<?xml version="1.0" encoding="UTF-8"?>
<!DOCTYPE xmeml>
<xmeml version="4">
	<sequence id="sequence-91" TL.SQAudioVisibleBase="7" TL.SQVideoVisibleBase="0" TL.SQVisibleBaseTime="538547259600001" TL.SQAVDividerPosition="0.5" TL.SQHideShyTracks="0" TL.SQHeaderWidth="236" TL.SQDataTrackViewControlState="0" Monitor.ProgramZoomOut="670602240000000" Monitor.ProgramZoomIn="0" TL.SQTimePerPixel="0.13497225848563968" AM.TrackVScrollPosition="0" AM.TrackScrollPosition="0" MZ.EditLine="567095800320000" MZ.Sequence.PreviewFrameSizeHeight="576" MZ.Sequence.PreviewFrameSizeWidth="720" MZ.Sequence.AudioTimeDisplayFormat="200" MZ.Sequence.PreviewRenderingClassID="1061109567" MZ.Sequence.PreviewRenderingPresetCodec="1685480304" MZ.Sequence.PreviewRenderingPresetPath="EncoderPresets/SequencePreview/04be6e19-a018-4e0c-a9d6-0ab44c64752b/QuickTime DV PAL.epr" MZ.Sequence.PreviewUseMaxRenderQuality="false" MZ.Sequence.PreviewUseMaxBitDepth="false" MZ.Sequence.EditingModeGUID="04be6e19-a018-4e0c-a9d6-0ab44c64752b" MZ.Sequence.VideoTimeDisplayFormat="101" MZ.WorkOutPoint="15240960000000" MZ.WorkInPoint="0" explodedTracks="true">
		<uuid>1df92ca9-2a5b-4748-8944-81a10654aa06</uuid>
		<duration>66000</duration>
		<rate>
			<timebase>25</timebase>
			<ntsc>FALSE</ntsc>
		</rate>
		<name>RU-468_MSWPRG005058</name>
		<media>
			<video>
				<format>
					<samplecharacteristics>
						<rate>
							<timebase>25</timebase>
							<ntsc>FALSE</ntsc>
						</rate>
						<codec>
							<name>Apple ProRes 422</name>
							<appspecificdata>
								<appname>Final Cut Pro</appname>
								<appmanufacturer>Apple Inc.</appmanufacturer>
								<appversion>7.0</appversion>
								<data>
									<qtcodec>
										<codecname>Apple ProRes 422</codecname>
										<codectypename>Apple ProRes 422</codectypename>
										<codectypecode>apcn</codectypecode>
										<codecvendorcode>appl</codecvendorcode>
										<spatialquality>1024</spatialquality>
										<temporalquality>0</temporalquality>
										<keyframerate>0</keyframerate>
										<datarate>0</datarate>
									</qtcodec>
								</data>
							</appspecificdata>
						</codec>
						<width>720</width>
						<height>576</height>
						<anamorphic>TRUE</anamorphic>
						<pixelaspectratio>PAL-601</pixelaspectratio>
						<fielddominance>lower</fielddominance>
						<colordepth>24</colordepth>
					</samplecharacteristics>
				</format>
				<track TL.SQTrackShy="0" TL.SQTrackExpandedHeight="25" TL.SQTrackExpanded="0" MZ.TrackTargeted="0">
					<clipitem id="clipitem-1168">
						<masterclipid>masterclip-496</masterclipid>
						<name>MYZ_RusskiyChart_appProRes_v2.mov</name>
						<enabled>TRUE</enabled>
						<duration>299</duration>
						<rate>
							<timebase>25</timebase>
							<ntsc>FALSE</ntsc>
						</rate>
						<start>0</start>
						<end>274</end>
						<in>0</in>
						<out>274</out>
						<pproTicksIn>0</pproTicksIn>
						<pproTicksOut>2784015360000</pproTicksOut>
						<alphatype>none</alphatype>
						<pixelaspectratio>square</pixelaspectratio>
						<anamorphic>FALSE</anamorphic>
						<file id="file-412">
							<name>MYZ_RusskiyChart_appProRes_v2.mov</name>
							<pathurl>file://localhost/Volumes/1Tb/_MUZ_TV/graphika/RU-21/MYZ_RusskiyChart_appProRes_v2.mov</pathurl>
							<rate>
								<timebase>25</timebase>
								<ntsc>FALSE</ntsc>
							</rate>
							<duration>299</duration>
							<timecode>
								<rate>
									<timebase>25</timebase>
									<ntsc>FALSE</ntsc>
								</rate>
								<string>00:00:00:00</string>
								<frame>0</frame>
								<displayformat>NDF</displayformat>
							</timecode>
							<media>
								<video>
									<samplecharacteristics>
										<rate>
											<timebase>25</timebase>
											<ntsc>FALSE</ntsc>
										</rate>
										<width>1920</width>
										<height>1080</height>
										<anamorphic>FALSE</anamorphic>
										<pixelaspectratio>square</pixelaspectratio>
										<fielddominance>none</fielddominance>
									</samplecharacteristics>
								</video>
								<audio>
									<samplecharacteristics>
										<depth>16</depth>
										<samplerate>48000</samplerate>
									</samplecharacteristics>
									<channelcount>2</channelcount>
								</audio>
							</media>
						</file>
						<filter>
							<effect>
								<name>Basic Motion</name>
								<effectid>basic</effectid>
								<effectcategory>motion</effectcategory>
								<effecttype>motion</effecttype>
								<mediatype>video</mediatype>
								<pproBypass>false</pproBypass>
								<parameter authoringApp="PremierePro">
									<parameterid>scale</parameterid>
									<name>Scale</name>
									<valuemin>0</valuemin>
									<valuemax>1000</valuemax>
									<value>55</value>
								</parameter>
								<parameter authoringApp="PremierePro">
									<parameterid>rotation</parameterid>
									<name>Rotation</name>
									<valuemin>-8640</valuemin>
									<valuemax>8640</valuemax>
									<value>0</value>
								</parameter>
								<parameter authoringApp="PremierePro">
									<parameterid>center</parameterid>
									<name>Center</name>
									<value>
										<horiz>0</horiz>
										<vert>0</vert>
									</value>
								</parameter>
								<parameter authoringApp="PremierePro">
									<parameterid>centerOffset</parameterid>
									<name>Anchor Point</name>
									<value>
										<horiz>0</horiz>
										<vert>0</vert>
									</value>
								</parameter>
								<parameter authoringApp="PremierePro">
									<parameterid>antiflicker</parameterid>
									<name>Anti-flicker Filter</name>
									<valuemin>0.0</valuemin>
									<valuemax>1.0</valuemax>
									<value>0</value>
								</parameter>
							</effect>
						</filter>
						<link>
							<linkclipref>clipitem-1168</linkclipref>
							<mediatype>video</mediatype>
							<trackindex>1</trackindex>
							<clipindex>1</clipindex>
						</link>
						<link>
							<linkclipref>clipitem-1409</linkclipref>
							<mediatype>audio</mediatype>
							<trackindex>1</trackindex>
							<clipindex>1</clipindex>
							<groupindex>1</groupindex>
						</link>
						<link>
							<linkclipref>clipitem-1447</linkclipref>
							<mediatype>audio</mediatype>
							<trackindex>2</trackindex>
							<clipindex>1</clipindex>
							<groupindex>1</groupindex>
						</link>
						<logginginfo>
							<description></description>
							<scene></scene>
							<shottake></shottake>
							<lognote></lognote>
							<good></good>
							<originalvideofilename></originalvideofilename>
							<originalaudiofilename></originalaudiofilename>
						</logginginfo>
						<colorinfo>
							<lut></lut>
							<lut1></lut1>
							<asc_sop></asc_sop>
							<asc_sat></asc_sat>
							<lut2></lut2>
						</colorinfo>
						<labels>
							<label2>Iris</label2>
						</labels>
					</clipitem>
					<clipitem id="clipitem-1169">
						<masterclipid>masterclip-497</masterclipid>
						<name>Nested Sequence 468</name>
						<enabled>TRUE</enabled>
						<duration>7503</duration>
						<rate>
							<timebase>25</timebase>
							<ntsc>FALSE</ntsc>
						</rate>
						<start>274</start>
						<end>742</end>
						<in>14</in>
						<out>482</out>
						<pproTicksIn>142248960000</pproTicksIn>
						<pproTicksOut>4897428480000</pproTicksOut>
						<sequence id="sequence-92" TL.SQVisibleBaseTime="0" TL.SQTimePerPixel="0.049999999999999996" MZ.Sequence.PreviewFrameSizeHeight="576" MZ.Sequence.PreviewFrameSizeWidth="720" MZ.Sequence.AudioTimeDisplayFormat="200" MZ.Sequence.PreviewRenderingPresetCodec="1685480304" MZ.Sequence.PreviewRenderingPresetPath="EncoderPresets/SequencePreview/04be6e19-a018-4e0c-a9d6-0ab44c64752b/QuickTime DV PAL.epr" MZ.Sequence.PreviewUseMaxRenderQuality="false" MZ.Sequence.PreviewUseMaxBitDepth="false" MZ.Sequence.EditingModeGUID="04be6e19-a018-4e0c-a9d6-0ab44c64752b" MZ.Sequence.VideoTimeDisplayFormat="101" MZ.WorkOutPoint="76235281920000" MZ.WorkInPoint="0">
							<duration>7503</duration>
							<rate>
								<timebase>25</timebase>
								<ntsc>FALSE</ntsc>
							</rate>
							<name>Nested Sequence 468</name>
							<media>
								<video>
									<format>
										<samplecharacteristics>
											<rate>
												<timebase>25</timebase>
												<ntsc>FALSE</ntsc>
											</rate>
											<codec>
												<name>Apple ProRes 422</name>
												<appspecificdata>
													<appname>Final Cut Pro</appname>
													<appmanufacturer>Apple Inc.</appmanufacturer>
													<appversion>7.0</appversion>
													<data>
														<qtcodec>
															<codecname>Apple ProRes 422</codecname>
															<codectypename>Apple ProRes 422</codectypename>
															<codectypecode>apcn</codectypecode>
															<codecvendorcode>appl</codecvendorcode>
															<spatialquality>1024</spatialquality>
															<temporalquality>0</temporalquality>
															<keyframerate>0</keyframerate>
															<datarate>0</datarate>
														</qtcodec>
													</data>
												</appspecificdata>
											</codec>
											<width>720</width>
											<height>576</height>
											<anamorphic>TRUE</anamorphic>
											<pixelaspectratio>PAL-601</pixelaspectratio>
											<fielddominance>lower</fielddominance>
											<colordepth>24</colordepth>
										</samplecharacteristics>
									</format>
									<track TL.SQTrackExpandedHeight="25" TL.SQTrackExpanded="0" MZ.TrackTargeted="1">
										<clipitem id="clipitem-1170">
											<masterclipid>masterclip-498</masterclipid>
											<name>RU-468.mov</name>
											<enabled>TRUE</enabled>
											<duration>7503</duration>
											<rate>
												<timebase>25</timebase>
												<ntsc>FALSE</ntsc>
											</rate>
											<start>0</start>
											<end>7503</end>
											<in>0</in>
											<out>7503</out>
											<pproTicksIn>0</pproTicksIn>
											<pproTicksOut>76235281920000</pproTicksOut>
											<alphatype>none</alphatype>
											<pixelaspectratio>square</pixelaspectratio>
											<anamorphic>FALSE</anamorphic>
											<file id="file-413">
												<name>RU-468.mov</name>
												<pathurl>file://localhost/Volumes/1Tb/_MUZ_TV/_Studia/ProRes/RU-468.mov</pathurl>
												<rate>
													<timebase>25</timebase>
													<ntsc>FALSE</ntsc>
												</rate>
												<duration>7503</duration>
												<timecode>
													<rate>
														<timebase>25</timebase>
														<ntsc>FALSE</ntsc>
													</rate>
													<string>00:00:00:00</string>
													<frame>0</frame>
													<displayformat>NDF</displayformat>
												</timecode>
												<media>
													<video>
														<samplecharacteristics>
															<rate>
																<timebase>25</timebase>
																<ntsc>FALSE</ntsc>
															</rate>
															<width>1920</width>
															<height>1080</height>
															<anamorphic>FALSE</anamorphic>
															<pixelaspectratio>square</pixelaspectratio>
															<fielddominance>upper</fielddominance>
														</samplecharacteristics>
													</video>
													<audio>
														<samplecharacteristics>
															<depth>16</depth>
															<samplerate>48000</samplerate>
														</samplecharacteristics>
														<channelcount>2</channelcount>
													</audio>
												</media>
											</file>
											<filter>
												<effect>
													<name>Basic Motion</name>
													<effectid>basic</effectid>
													<effectcategory>motion</effectcategory>
													<effecttype>motion</effecttype>
													<mediatype>video</mediatype>
													<pproBypass>false</pproBypass>
													<parameter authoringApp="PremierePro">
														<parameterid>scale</parameterid>
														<name>Scale</name>
														<valuemin>0</valuemin>
														<valuemax>1000</valuemax>
														<value>55</value>
													</parameter>
													<parameter authoringApp="PremierePro">
														<parameterid>rotation</parameterid>
														<name>Rotation</name>
														<valuemin>-8640</valuemin>
														<valuemax>8640</valuemax>
														<value>0</value>
													</parameter>
													<parameter authoringApp="PremierePro">
														<parameterid>center</parameterid>
														<name>Center</name>
														<value>
															<horiz>0</horiz>
															<vert>0</vert>
														</value>
													</parameter>
													<parameter authoringApp="PremierePro">
														<parameterid>centerOffset</parameterid>
														<name>Anchor Point</name>
														<value>
															<horiz>0</horiz>
															<vert>0</vert>
														</value>
													</parameter>
													<parameter authoringApp="PremierePro">
														<parameterid>antiflicker</parameterid>
														<name>Anti-flicker Filter</name>
														<valuemin>0.0</valuemin>
														<valuemax>1.0</valuemax>
														<value>0</value>
													</parameter>
												</effect>
											</filter>
											<filter>
												<effect>
													<name>Distort</name>
													<effectid>deformation</effectid>
													<effectcategory>motion</effectcategory>
													<effecttype>motion</effecttype>
													<mediatype>video</mediatype>
													<parameter authoringApp="PremierePro">
														<parameterid>aspect</parameterid>
														<name>Aspect</name>
														<valuemin>-10000</valuemin>
														<valuemax>10000</valuemax>
														<value>-3.125</value>
													</parameter>
												</effect>
											</filter>
											<link>
												<linkclipref>clipitem-1170</linkclipref>
												<mediatype>video</mediatype>
												<trackindex>1</trackindex>
												<clipindex>1</clipindex>
											</link>
											<link>
												<linkclipref>clipitem-1171</linkclipref>
												<mediatype>audio</mediatype>
												<trackindex>1</trackindex>
												<clipindex>1</clipindex>
												<groupindex>1</groupindex>
											</link>
											<link>
												<linkclipref>clipitem-1172</linkclipref>
												<mediatype>audio</mediatype>
												<trackindex>2</trackindex>
												<clipindex>1</clipindex>
												<groupindex>1</groupindex>
											</link>
											<logginginfo>
												<description></description>
												<scene></scene>
												<shottake></shottake>
												<lognote></lognote>
												<good></good>
												<originalvideofilename></originalvideofilename>
												<originalaudiofilename></originalaudiofilename>
											</logginginfo>
											<colorinfo>
												<lut></lut>
												<lut1></lut1>
												<asc_sop></asc_sop>
												<asc_sat></asc_sat>
												<lut2></lut2>
											</colorinfo>
											<labels>
												<label2>Iris</label2>
											</labels>
										</clipitem>
										<enabled>TRUE</enabled>
										<locked>FALSE</locked>
									</track>
								</video>
								<audio>
									<numOutputChannels>2</numOutputChannels>
									<format>
										<samplecharacteristics>
											<depth>16</depth>
											<samplerate>48000</samplerate>
										</samplecharacteristics>
									</format>
									<outputs>
										<group>
											<index>1</index>
											<numchannels>1</numchannels>
											<downmix>0</downmix>
											<channel>
												<index>1</index>
											</channel>
										</group>
										<group>
											<index>2</index>
											<numchannels>1</numchannels>
											<downmix>0</downmix>
											<channel>
												<index>2</index>
											</channel>
										</group>
									</outputs>
									<track TL.SQTrackExpandedHeight="25" TL.SQTrackExpanded="0" MZ.TrackTargeted="1" PannerCurrentValue="0.5" PannerIsInverted="true" PannerStartKeyframe="-91445760000000000,0.5,0,0,0,0,0,0" PannerName="Balance" currentExplodedTrackIndex="0" totalExplodedTrackCount="2" premiereTrackType="Stereo">
										<clipitem id="clipitem-1171" premiereChannelType="stereo">
											<masterclipid>masterclip-498</masterclipid>
											<name>RU-468.mov</name>
											<enabled>TRUE</enabled>
											<duration>7503</duration>
											<rate>
												<timebase>25</timebase>
												<ntsc>FALSE</ntsc>
											</rate>
											<start>0</start>
											<end>7503</end>
											<in>0</in>
											<out>7503</out>
											<pproTicksIn>0</pproTicksIn>
											<pproTicksOut>76235281920000</pproTicksOut>
											<file id="file-413"/>
											<sourcetrack>
												<mediatype>audio</mediatype>
												<trackindex>1</trackindex>
											</sourcetrack>
											<link>
												<linkclipref>clipitem-1170</linkclipref>
												<mediatype>video</mediatype>
												<trackindex>1</trackindex>
												<clipindex>1</clipindex>
											</link>
											<link>
												<linkclipref>clipitem-1171</linkclipref>
												<mediatype>audio</mediatype>
												<trackindex>1</trackindex>
												<clipindex>1</clipindex>
												<groupindex>1</groupindex>
											</link>
											<link>
												<linkclipref>clipitem-1172</linkclipref>
												<mediatype>audio</mediatype>
												<trackindex>2</trackindex>
												<clipindex>1</clipindex>
												<groupindex>1</groupindex>
											</link>
											<logginginfo>
												<description></description>
												<scene></scene>
												<shottake></shottake>
												<lognote></lognote>
												<good></good>
												<originalvideofilename></originalvideofilename>
												<originalaudiofilename></originalaudiofilename>
											</logginginfo>
											<colorinfo>
												<lut></lut>
												<lut1></lut1>
												<asc_sop></asc_sop>
												<asc_sat></asc_sat>
												<lut2></lut2>
											</colorinfo>
											<labels>
												<label2>Iris</label2>
											</labels>
										</clipitem>
										<enabled>TRUE</enabled>
										<locked>FALSE</locked>
										<outputchannelindex>1</outputchannelindex>
									</track>
									<track TL.SQTrackExpandedHeight="25" TL.SQTrackExpanded="0" MZ.TrackTargeted="1" PannerCurrentValue="0.5" PannerIsInverted="true" PannerStartKeyframe="-91445760000000000,0.5,0,0,0,0,0,0" PannerName="Balance" currentExplodedTrackIndex="1" totalExplodedTrackCount="2" premiereTrackType="Stereo">
										<clipitem id="clipitem-1172" premiereChannelType="stereo">
											<masterclipid>masterclip-498</masterclipid>
											<name>RU-468.mov</name>
											<enabled>TRUE</enabled>
											<duration>7503</duration>
											<rate>
												<timebase>25</timebase>
												<ntsc>FALSE</ntsc>
											</rate>
											<start>0</start>
											<end>7503</end>
											<in>0</in>
											<out>7503</out>
											<pproTicksIn>0</pproTicksIn>
											<pproTicksOut>76235281920000</pproTicksOut>
											<file id="file-413"/>
											<sourcetrack>
												<mediatype>audio</mediatype>
												<trackindex>2</trackindex>
											</sourcetrack>
											<link>
												<linkclipref>clipitem-1170</linkclipref>
												<mediatype>video</mediatype>
												<trackindex>1</trackindex>
												<clipindex>1</clipindex>
											</link>
											<link>
												<linkclipref>clipitem-1171</linkclipref>
												<mediatype>audio</mediatype>
												<trackindex>1</trackindex>
												<clipindex>1</clipindex>
												<groupindex>1</groupindex>
											</link>
											<link>
												<linkclipref>clipitem-1172</linkclipref>
												<mediatype>audio</mediatype>
												<trackindex>2</trackindex>
												<clipindex>1</clipindex>
												<groupindex>1</groupindex>
											</link>
											<logginginfo>
												<description></description>
												<scene></scene>
												<shottake></shottake>
												<lognote></lognote>
												<good></good>
												<originalvideofilename></originalvideofilename>
												<originalaudiofilename></originalaudiofilename>
											</logginginfo>
											<colorinfo>
												<lut></lut>
												<lut1></lut1>
												<asc_sop></asc_sop>
												<asc_sat></asc_sat>
												<lut2></lut2>
											</colorinfo>
											<labels>
												<label2>Iris</label2>
											</labels>
										</clipitem>
										<enabled>TRUE</enabled>
										<locked>FALSE</locked>
										<outputchannelindex>2</outputchannelindex>
									</track>
								</audio>
							</media>
							<timecode>
								<rate>
									<timebase>25</timebase>
									<ntsc>FALSE</ntsc>
								</rate>
								<string>00:00:00:00</string>
								<frame>0</frame>
								<displayformat>NDF</displayformat>
							</timecode>
							<logginginfo>
								<description></description>
								<scene></scene>
								<shottake></shottake>
								<lognote></lognote>
								<good></good>
								<originalvideofilename></originalvideofilename>
								<originalaudiofilename></originalaudiofilename>
							</logginginfo>
						</sequence>
						<link>
							<linkclipref>clipitem-1169</linkclipref>
							<mediatype>video</mediatype>
							<trackindex>1</trackindex>
							<clipindex>2</clipindex>
						</link>
						<link>
							<linkclipref>clipitem-1410</linkclipref>
							<mediatype>audio</mediatype>
							<trackindex>1</trackindex>
							<clipindex>2</clipindex>
							<groupindex>1</groupindex>
						</link>
						<link>
							<linkclipref>clipitem-1448</linkclipref>
							<mediatype>audio</mediatype>
							<trackindex>2</trackindex>
							<clipindex>2</clipindex>
							<groupindex>1</groupindex>
						</link>
						<labels>
							<label2>Forest</label2>
						</labels>
					</clipitem>
					<clipitem id="clipitem-1173">
						<masterclipid>masterclip-499</masterclipid>
						<name>12_OTB</name>
						<enabled>TRUE</enabled>
						<duration>180</duration>
						<rate>
							<timebase>25</timebase>
							<ntsc>FALSE</ntsc>
						</rate>
						<start>742</start>
						<end>817</end>
						<in>0</in>
						<out>180</out>
						<pproTicksIn>0</pproTicksIn>
						<pproTicksOut>1828915200000</pproTicksOut>
						<alphatype>none</alphatype>
						<pixelaspectratio>square</pixelaspectratio>
						<anamorphic>FALSE</anamorphic>
						<file id="file-414">
							<name>NUM_0.mov</name>
							<pathurl>file://localhost/_MUZ_TV/graphika/RU-21/MOD/otb/NUM_0.mov</pathurl>
							<rate>
								<timebase>25</timebase>
								<ntsc>FALSE</ntsc>
							</rate>
							<duration>180</duration>
							<timecode>
								<rate>
									<timebase>25</timebase>
									<ntsc>FALSE</ntsc>
								</rate>
								<string>00:00:00:00</string>
								<frame>0</frame>
								<displayformat>NDF</displayformat>
							</timecode>
							<media>
								<video>
									<samplecharacteristics>
										<rate>
											<timebase>25</timebase>
											<ntsc>FALSE</ntsc>
										</rate>
										<width>1920</width>
										<height>1080</height>
										<anamorphic>FALSE</anamorphic>
										<pixelaspectratio>square</pixelaspectratio>
										<fielddominance>none</fielddominance>
									</samplecharacteristics>
								</video>
							</media>
						</file>
						<filter>
							<effect>
								<name>Basic Motion</name>
								<effectid>basic</effectid>
								<effectcategory>motion</effectcategory>
								<effecttype>motion</effecttype>
								<mediatype>video</mediatype>
								<pproBypass>false</pproBypass>
								<parameter authoringApp="PremierePro">
									<parameterid>scale</parameterid>
									<name>Scale</name>
									<valuemin>0</valuemin>
									<valuemax>1000</valuemax>
									<value>55</value>
								</parameter>
								<parameter authoringApp="PremierePro">
									<parameterid>rotation</parameterid>
									<name>Rotation</name>
									<valuemin>-8640</valuemin>
									<valuemax>8640</valuemax>
									<value>0</value>
								</parameter>
								<parameter authoringApp="PremierePro">
									<parameterid>center</parameterid>
									<name>Center</name>
									<value>
										<horiz>0</horiz>
										<vert>0</vert>
									</value>
								</parameter>
								<parameter authoringApp="PremierePro">
									<parameterid>centerOffset</parameterid>
									<name>Anchor Point</name>
									<value>
										<horiz>0</horiz>
										<vert>0</vert>
									</value>
								</parameter>
								<parameter authoringApp="PremierePro">
									<parameterid>antiflicker</parameterid>
									<name>Anti-flicker Filter</name>
									<valuemin>0.0</valuemin>
									<valuemax>1.0</valuemax>
									<value>0</value>
								</parameter>
							</effect>
						</filter>
						<filter>
							<effect>
								<name>Distort</name>
								<effectid>deformation</effectid>
								<effectcategory>motion</effectcategory>
								<effecttype>motion</effecttype>
								<mediatype>video</mediatype>
								<parameter authoringApp="PremierePro">
									<parameterid>aspect</parameterid>
									<name>Aspect</name>
									<valuemin>-10000</valuemin>
									<valuemax>10000</valuemax>
									<value>-3.12506</value>
								</parameter>
							</effect>
						</filter>
						<logginginfo>
							<description></description>
							<scene></scene>
							<shottake></shottake>
							<lognote></lognote>
							<good></good>
							<originalvideofilename></originalvideofilename>
							<originalaudiofilename></originalaudiofilename>
						</logginginfo>
						<colorinfo>
							<lut></lut>
							<lut1></lut1>
							<asc_sop></asc_sop>
							<asc_sat></asc_sat>
							<lut2></lut2>
						</colorinfo>
						<labels>
							<label2>Violet</label2>
						</labels>
					</clipitem>
					<clipitem id="clipitem-1174">
						<masterclipid>masterclip-500</masterclipid>
						<name>ВАЛЕРИЙ МЕЛАДЗЕ_ПОЛЮБИЛ___MSWCLP004836.mov</name>
						<enabled>TRUE</enabled>
						<duration>13128</duration>
						<rate>
							<timebase>25</timebase>
							<ntsc>FALSE</ntsc>
						</rate>
						<start>817</start>
						<end>7376</end>
						<in>0</in>
						<out>6559</out>
						<pproTicksIn>0</pproTicksIn>
						<pproTicksOut>66643637760000</pproTicksOut>
						<alphatype>none</alphatype>
						<pixelaspectratio>PAL-601</pixelaspectratio>
						<anamorphic>TRUE</anamorphic>
						<pproOriginalPAR>square</pproOriginalPAR>
						<pproOriginalIsAnamorphic>FALSE</pproOriginalIsAnamorphic>
						<file id="file-415">
							<name>ВАЛЕРИЙ МЕЛАДЗЕ_ПОЛЮБИЛ___MSWCLP004836.mov</name>
							<pathurl>file://localhost/Volumes/1Tb/_MUZ_TV/Clips/%d0%92%d0%90%d0%9b%d0%95%d0%a0%d0%98%d0%98%cc%86%20%d0%9c%d0%95%d0%9b%d0%90%d0%94%d0%97%d0%95_%d0%9f%d0%9e%d0%9b%d0%ae%d0%91%d0%98%d0%9b___MSWCLP004836.mov</pathurl>
							<rate>
								<timebase>50</timebase>
								<ntsc>FALSE</ntsc>
							</rate>
							<duration>13128</duration>
							<timecode>
								<rate>
									<timebase>50</timebase>
									<ntsc>FALSE</ntsc>
								</rate>
								<string>00:00:00:00</string>
								<frame>0</frame>
								<displayformat>NDF</displayformat>
							</timecode>
							<media>
								<video>
									<samplecharacteristics>
										<rate>
											<timebase>50</timebase>
											<ntsc>FALSE</ntsc>
										</rate>
										<width>720</width>
										<height>576</height>
										<anamorphic>TRUE</anamorphic>
										<pixelaspectratio>PAL-601</pixelaspectratio>
										<pproOriginalIsAnamorphic>FALSE</pproOriginalIsAnamorphic>
										<pproOriginalPAR>square</pproOriginalPAR>
										<fielddominance>none</fielddominance>
									</samplecharacteristics>
								</video>
								<audio>
									<samplecharacteristics>
										<depth>16</depth>
										<samplerate>48000</samplerate>
									</samplecharacteristics>
									<channelcount>2</channelcount>
								</audio>
							</media>
						</file>
						<link>
							<linkclipref>clipitem-1174</linkclipref>
							<mediatype>video</mediatype>
							<trackindex>1</trackindex>
							<clipindex>4</clipindex>
						</link>
						<link>
							<linkclipref>clipitem-1411</linkclipref>
							<mediatype>audio</mediatype>
							<trackindex>1</trackindex>
							<clipindex>3</clipindex>
							<groupindex>1</groupindex>
						</link>
						<link>
							<linkclipref>clipitem-1449</linkclipref>
							<mediatype>audio</mediatype>
							<trackindex>2</trackindex>
							<clipindex>3</clipindex>
							<groupindex>1</groupindex>
						</link>
						<logginginfo>
							<description></description>
							<scene></scene>
							<shottake></shottake>
							<lognote></lognote>
							<good></good>
							<originalvideofilename></originalvideofilename>
							<originalaudiofilename></originalaudiofilename>
						</logginginfo>
						<colorinfo>
							<lut></lut>
							<lut1></lut1>
							<asc_sop></asc_sop>
							<asc_sat></asc_sat>
							<lut2></lut2>
						</colorinfo>
						<labels>
							<label2>Iris</label2>
						</labels>
					</clipitem>
					<clipitem id="clipitem-1175">
						<masterclipid>masterclip-501</masterclipid>
						<name>3sek_master</name>
						<enabled>TRUE</enabled>
						<duration>74</duration>
						<rate>
							<timebase>25</timebase>
							<ntsc>FALSE</ntsc>
						</rate>
						<start>7376</start>
						<end>7436</end>
						<in>0</in>
						<out>60</out>
						<pproTicksIn>0</pproTicksIn>
						<pproTicksOut>609638400000</pproTicksOut>
						<alphatype>none</alphatype>
						<pixelaspectratio>square</pixelaspectratio>
						<anamorphic>FALSE</anamorphic>
						<file id="file-416">
							<name>MYZ_RusskiyChart_OtbivkaMini_h264_v2.mp4</name>
							<pathurl>file://localhost/Volumes/1Tb/_MUZ_TV/graphika/RU-21/Otbivka/MYZ_RusskiyChart_OtbivkaMini_h264_v2.mp4</pathurl>
							<rate>
								<timebase>25</timebase>
								<ntsc>FALSE</ntsc>
							</rate>
							<duration>74</duration>
							<timecode>
								<rate>
									<timebase>25</timebase>
									<ntsc>FALSE</ntsc>
								</rate>
								<string>00:00:09:00</string>
								<frame>225</frame>
								<displayformat>NDF</displayformat>
							</timecode>
							<media>
								<video>
									<samplecharacteristics>
										<rate>
											<timebase>25</timebase>
											<ntsc>FALSE</ntsc>
										</rate>
										<width>1920</width>
										<height>1080</height>
										<anamorphic>FALSE</anamorphic>
										<pixelaspectratio>square</pixelaspectratio>
										<fielddominance>none</fielddominance>
									</samplecharacteristics>
								</video>
								<audio>
									<samplecharacteristics>
										<depth>16</depth>
										<samplerate>48000</samplerate>
									</samplecharacteristics>
									<channelcount>2</channelcount>
								</audio>
							</media>
						</file>
						<filter>
							<effect>
								<name>Basic Motion</name>
								<effectid>basic</effectid>
								<effectcategory>motion</effectcategory>
								<effecttype>motion</effecttype>
								<mediatype>video</mediatype>
								<pproBypass>false</pproBypass>
								<parameter authoringApp="PremierePro">
									<parameterid>scale</parameterid>
									<name>Scale</name>
									<valuemin>0</valuemin>
									<valuemax>1000</valuemax>
									<value>55</value>
								</parameter>
								<parameter authoringApp="PremierePro">
									<parameterid>rotation</parameterid>
									<name>Rotation</name>
									<valuemin>-8640</valuemin>
									<valuemax>8640</valuemax>
									<value>0</value>
								</parameter>
								<parameter authoringApp="PremierePro">
									<parameterid>center</parameterid>
									<name>Center</name>
									<value>
										<horiz>0</horiz>
										<vert>0</vert>
									</value>
								</parameter>
								<parameter authoringApp="PremierePro">
									<parameterid>centerOffset</parameterid>
									<name>Anchor Point</name>
									<value>
										<horiz>0</horiz>
										<vert>0</vert>
									</value>
								</parameter>
								<parameter authoringApp="PremierePro">
									<parameterid>antiflicker</parameterid>
									<name>Anti-flicker Filter</name>
									<valuemin>0.0</valuemin>
									<valuemax>1.0</valuemax>
									<value>0</value>
								</parameter>
							</effect>
						</filter>
						<filter>
							<effect>
								<name>Distort</name>
								<effectid>deformation</effectid>
								<effectcategory>motion</effectcategory>
								<effecttype>motion</effecttype>
								<mediatype>video</mediatype>
								<parameter authoringApp="PremierePro">
									<parameterid>aspect</parameterid>
									<name>Aspect</name>
									<valuemin>-10000</valuemin>
									<valuemax>10000</valuemax>
									<value>-3.125</value>
								</parameter>
							</effect>
						</filter>
						<link>
							<linkclipref>clipitem-1175</linkclipref>
							<mediatype>video</mediatype>
							<trackindex>1</trackindex>
							<clipindex>5</clipindex>
						</link>
						<link>
							<linkclipref>clipitem-1412</linkclipref>
							<mediatype>audio</mediatype>
							<trackindex>1</trackindex>
							<clipindex>4</clipindex>
							<groupindex>1</groupindex>
						</link>
						<link>
							<linkclipref>clipitem-1450</linkclipref>
							<mediatype>audio</mediatype>
							<trackindex>2</trackindex>
							<clipindex>4</clipindex>
							<groupindex>1</groupindex>
						</link>
						<logginginfo>
							<description></description>
							<scene></scene>
							<shottake></shottake>
							<lognote></lognote>
							<good></good>
							<originalvideofilename></originalvideofilename>
							<originalaudiofilename></originalaudiofilename>
						</logginginfo>
						<colorinfo>
							<lut></lut>
							<lut1></lut1>
							<asc_sop></asc_sop>
							<asc_sat></asc_sat>
							<lut2></lut2>
						</colorinfo>
						<labels>
							<label2>Purple</label2>
						</labels>
					</clipitem>
					<clipitem id="clipitem-1176">
						<masterclipid>masterclip-497</masterclipid>
						<name>Nested Sequence 468</name>
						<enabled>TRUE</enabled>
						<duration>7503</duration>
						<rate>
							<timebase>25</timebase>
							<ntsc>FALSE</ntsc>
						</rate>
						<start>7436</start>
						<end>7811</end>
						<in>502</in>
						<out>877</out>
						<pproTicksIn>5100641280000</pproTicksIn>
						<pproTicksOut>8910881280000</pproTicksOut>
						<sequence id="sequence-92"/>
						<link>
							<linkclipref>clipitem-1176</linkclipref>
							<mediatype>video</mediatype>
							<trackindex>1</trackindex>
							<clipindex>6</clipindex>
						</link>
						<link>
							<linkclipref>clipitem-1413</linkclipref>
							<mediatype>audio</mediatype>
							<trackindex>1</trackindex>
							<clipindex>5</clipindex>
							<groupindex>1</groupindex>
						</link>
						<link>
							<linkclipref>clipitem-1451</linkclipref>
							<mediatype>audio</mediatype>
							<trackindex>2</trackindex>
							<clipindex>5</clipindex>
							<groupindex>1</groupindex>
						</link>
						<labels>
							<label2>Forest</label2>
						</labels>
					</clipitem>
					<clipitem id="clipitem-1177">
						<masterclipid>masterclip-502</masterclipid>
						<name>11_OTB</name>
						<enabled>TRUE</enabled>
						<duration>180</duration>
						<rate>
							<timebase>25</timebase>
							<ntsc>FALSE</ntsc>
						</rate>
						<start>7811</start>
						<end>7886</end>
						<in>0</in>
						<out>180</out>
						<pproTicksIn>0</pproTicksIn>
						<pproTicksOut>1828915200000</pproTicksOut>
						<alphatype>none</alphatype>
						<pixelaspectratio>square</pixelaspectratio>
						<anamorphic>FALSE</anamorphic>
						<file id="file-417">
							<name>NUM_0.mov</name>
							<pathurl>file://localhost/_MUZ_TV/graphika/RU-21/MOD/otb/NUM_0.mov</pathurl>
							<rate>
								<timebase>25</timebase>
								<ntsc>FALSE</ntsc>
							</rate>
							<duration>180</duration>
							<timecode>
								<rate>
									<timebase>25</timebase>
									<ntsc>FALSE</ntsc>
								</rate>
								<string>00:00:00:00</string>
								<frame>0</frame>
								<displayformat>NDF</displayformat>
							</timecode>
							<media>
								<video>
									<samplecharacteristics>
										<rate>
											<timebase>25</timebase>
											<ntsc>FALSE</ntsc>
										</rate>
										<width>1920</width>
										<height>1080</height>
										<anamorphic>FALSE</anamorphic>
										<pixelaspectratio>square</pixelaspectratio>
										<fielddominance>none</fielddominance>
									</samplecharacteristics>
								</video>
							</media>
						</file>
						<filter>
							<effect>
								<name>Basic Motion</name>
								<effectid>basic</effectid>
								<effectcategory>motion</effectcategory>
								<effecttype>motion</effecttype>
								<mediatype>video</mediatype>
								<pproBypass>false</pproBypass>
								<parameter authoringApp="PremierePro">
									<parameterid>scale</parameterid>
									<name>Scale</name>
									<valuemin>0</valuemin>
									<valuemax>1000</valuemax>
									<value>55</value>
								</parameter>
								<parameter authoringApp="PremierePro">
									<parameterid>rotation</parameterid>
									<name>Rotation</name>
									<valuemin>-8640</valuemin>
									<valuemax>8640</valuemax>
									<value>0</value>
								</parameter>
								<parameter authoringApp="PremierePro">
									<parameterid>center</parameterid>
									<name>Center</name>
									<value>
										<horiz>0</horiz>
										<vert>0</vert>
									</value>
								</parameter>
								<parameter authoringApp="PremierePro">
									<parameterid>centerOffset</parameterid>
									<name>Anchor Point</name>
									<value>
										<horiz>0</horiz>
										<vert>0</vert>
									</value>
								</parameter>
								<parameter authoringApp="PremierePro">
									<parameterid>antiflicker</parameterid>
									<name>Anti-flicker Filter</name>
									<valuemin>0.0</valuemin>
									<valuemax>1.0</valuemax>
									<value>0</value>
								</parameter>
							</effect>
						</filter>
						<filter>
							<effect>
								<name>Distort</name>
								<effectid>deformation</effectid>
								<effectcategory>motion</effectcategory>
								<effecttype>motion</effecttype>
								<mediatype>video</mediatype>
								<parameter authoringApp="PremierePro">
									<parameterid>aspect</parameterid>
									<name>Aspect</name>
									<valuemin>-10000</valuemin>
									<valuemax>10000</valuemax>
									<value>-3.12506</value>
								</parameter>
							</effect>
						</filter>
						<logginginfo>
							<description></description>
							<scene></scene>
							<shottake></shottake>
							<lognote></lognote>
							<good></good>
							<originalvideofilename></originalvideofilename>
							<originalaudiofilename></originalaudiofilename>
						</logginginfo>
						<colorinfo>
							<lut></lut>
							<lut1></lut1>
							<asc_sop></asc_sop>
							<asc_sat></asc_sat>
							<lut2></lut2>
						</colorinfo>
						<labels>
							<label2>Violet</label2>
						</labels>
					</clipitem>
					<clipitem id="clipitem-1178">
						<masterclipid>masterclip-503</masterclipid>
						<name>АНИ ЛОРАК_ВЕРИЛА___MSWCLP004835.mov</name>
						<enabled>TRUE</enabled>
						<duration>10416</duration>
						<rate>
							<timebase>25</timebase>
							<ntsc>FALSE</ntsc>
						</rate>
						<start>7886</start>
						<end>13071</end>
						<in>0</in>
						<out>5185</out>
						<pproTicksIn>0</pproTicksIn>
						<pproTicksOut>52682918400000</pproTicksOut>
						<alphatype>none</alphatype>
						<pixelaspectratio>PAL-601</pixelaspectratio>
						<anamorphic>TRUE</anamorphic>
						<pproOriginalPAR>square</pproOriginalPAR>
						<pproOriginalIsAnamorphic>FALSE</pproOriginalIsAnamorphic>
						<file id="file-418">
							<name>АНИ ЛОРАК_ВЕРИЛА___MSWCLP004835.mov</name>
							<pathurl>file://localhost/Volumes/1Tb/_MUZ_TV/Clips/%d0%90%d0%9d%d0%98%20%d0%9b%d0%9e%d0%a0%d0%90%d0%9a_%d0%92%d0%95%d0%a0%d0%98%d0%9b%d0%90___MSWCLP004835.mov</pathurl>
							<rate>
								<timebase>50</timebase>
								<ntsc>FALSE</ntsc>
							</rate>
							<duration>10416</duration>
							<timecode>
								<rate>
									<timebase>50</timebase>
									<ntsc>FALSE</ntsc>
								</rate>
								<string>00:00:00:00</string>
								<frame>0</frame>
								<displayformat>NDF</displayformat>
							</timecode>
							<media>
								<video>
									<samplecharacteristics>
										<rate>
											<timebase>50</timebase>
											<ntsc>FALSE</ntsc>
										</rate>
										<width>720</width>
										<height>576</height>
										<anamorphic>TRUE</anamorphic>
										<pixelaspectratio>PAL-601</pixelaspectratio>
										<pproOriginalIsAnamorphic>FALSE</pproOriginalIsAnamorphic>
										<pproOriginalPAR>square</pproOriginalPAR>
										<fielddominance>none</fielddominance>
									</samplecharacteristics>
								</video>
								<audio>
									<samplecharacteristics>
										<depth>16</depth>
										<samplerate>48000</samplerate>
									</samplecharacteristics>
									<channelcount>2</channelcount>
								</audio>
							</media>
						</file>
						<link>
							<linkclipref>clipitem-1178</linkclipref>
							<mediatype>video</mediatype>
							<trackindex>1</trackindex>
							<clipindex>8</clipindex>
						</link>
						<link>
							<linkclipref>clipitem-1414</linkclipref>
							<mediatype>audio</mediatype>
							<trackindex>1</trackindex>
							<clipindex>6</clipindex>
							<groupindex>1</groupindex>
						</link>
						<link>
							<linkclipref>clipitem-1452</linkclipref>
							<mediatype>audio</mediatype>
							<trackindex>2</trackindex>
							<clipindex>6</clipindex>
							<groupindex>1</groupindex>
						</link>
						<logginginfo>
							<description></description>
							<scene></scene>
							<shottake></shottake>
							<lognote></lognote>
							<good></good>
							<originalvideofilename></originalvideofilename>
							<originalaudiofilename></originalaudiofilename>
						</logginginfo>
						<colorinfo>
							<lut></lut>
							<lut1></lut1>
							<asc_sop></asc_sop>
							<asc_sat></asc_sat>
							<lut2></lut2>
						</colorinfo>
						<labels>
							<label2>Iris</label2>
						</labels>
					</clipitem>
					<clipitem id="clipitem-1179">
						<masterclipid>masterclip-501</masterclipid>
						<name>3sek_master</name>
						<enabled>TRUE</enabled>
						<duration>74</duration>
						<rate>
							<timebase>25</timebase>
							<ntsc>FALSE</ntsc>
						</rate>
						<start>13071</start>
						<end>13131</end>
						<in>0</in>
						<out>60</out>
						<pproTicksIn>0</pproTicksIn>
						<pproTicksOut>609638400000</pproTicksOut>
						<alphatype>none</alphatype>
						<file id="file-416"/>
						<filter>
							<effect>
								<name>Basic Motion</name>
								<effectid>basic</effectid>
								<effectcategory>motion</effectcategory>
								<effecttype>motion</effecttype>
								<mediatype>video</mediatype>
								<pproBypass>false</pproBypass>
								<parameter authoringApp="PremierePro">
									<parameterid>scale</parameterid>
									<name>Scale</name>
									<valuemin>0</valuemin>
									<valuemax>1000</valuemax>
									<value>55</value>
								</parameter>
								<parameter authoringApp="PremierePro">
									<parameterid>rotation</parameterid>
									<name>Rotation</name>
									<valuemin>-8640</valuemin>
									<valuemax>8640</valuemax>
									<value>0</value>
								</parameter>
								<parameter authoringApp="PremierePro">
									<parameterid>center</parameterid>
									<name>Center</name>
									<value>
										<horiz>0</horiz>
										<vert>0</vert>
									</value>
								</parameter>
								<parameter authoringApp="PremierePro">
									<parameterid>centerOffset</parameterid>
									<name>Anchor Point</name>
									<value>
										<horiz>0</horiz>
										<vert>0</vert>
									</value>
								</parameter>
								<parameter authoringApp="PremierePro">
									<parameterid>antiflicker</parameterid>
									<name>Anti-flicker Filter</name>
									<valuemin>0.0</valuemin>
									<valuemax>1.0</valuemax>
									<value>0</value>
								</parameter>
							</effect>
						</filter>
						<filter>
							<effect>
								<name>Distort</name>
								<effectid>deformation</effectid>
								<effectcategory>motion</effectcategory>
								<effecttype>motion</effecttype>
								<mediatype>video</mediatype>
								<parameter authoringApp="PremierePro">
									<parameterid>aspect</parameterid>
									<name>Aspect</name>
									<valuemin>-10000</valuemin>
									<valuemax>10000</valuemax>
									<value>-3.125</value>
								</parameter>
							</effect>
						</filter>
						<link>
							<linkclipref>clipitem-1179</linkclipref>
							<mediatype>video</mediatype>
							<trackindex>1</trackindex>
							<clipindex>9</clipindex>
						</link>
						<link>
							<linkclipref>clipitem-1415</linkclipref>
							<mediatype>audio</mediatype>
							<trackindex>1</trackindex>
							<clipindex>7</clipindex>
							<groupindex>1</groupindex>
						</link>
						<link>
							<linkclipref>clipitem-1453</linkclipref>
							<mediatype>audio</mediatype>
							<trackindex>2</trackindex>
							<clipindex>7</clipindex>
							<groupindex>1</groupindex>
						</link>
						<logginginfo>
							<description></description>
							<scene></scene>
							<shottake></shottake>
							<lognote></lognote>
							<good></good>
							<originalvideofilename></originalvideofilename>
							<originalaudiofilename></originalaudiofilename>
						</logginginfo>
						<colorinfo>
							<lut></lut>
							<lut1></lut1>
							<asc_sop></asc_sop>
							<asc_sat></asc_sat>
							<lut2></lut2>
						</colorinfo>
						<labels>
							<label2>Purple</label2>
						</labels>
					</clipitem>
					<clipitem id="clipitem-1180">
						<masterclipid>masterclip-497</masterclipid>
						<name>Nested Sequence 468</name>
						<enabled>TRUE</enabled>
						<duration>7503</duration>
						<rate>
							<timebase>25</timebase>
							<ntsc>FALSE</ntsc>
						</rate>
						<start>13131</start>
						<end>13604</end>
						<in>920</in>
						<out>1393</out>
						<pproTicksIn>9347788800000</pproTicksIn>
						<pproTicksOut>14153771520000</pproTicksOut>
						<sequence id="sequence-92"/>
						<link>
							<linkclipref>clipitem-1180</linkclipref>
							<mediatype>video</mediatype>
							<trackindex>1</trackindex>
							<clipindex>10</clipindex>
						</link>
						<link>
							<linkclipref>clipitem-1416</linkclipref>
							<mediatype>audio</mediatype>
							<trackindex>1</trackindex>
							<clipindex>8</clipindex>
							<groupindex>1</groupindex>
						</link>
						<link>
							<linkclipref>clipitem-1454</linkclipref>
							<mediatype>audio</mediatype>
							<trackindex>2</trackindex>
							<clipindex>8</clipindex>
							<groupindex>1</groupindex>
						</link>
						<labels>
							<label2>Forest</label2>
						</labels>
					</clipitem>
					<clipitem id="clipitem-1181">
						<masterclipid>masterclip-504</masterclipid>
						<name>10_OTB</name>
						<enabled>TRUE</enabled>
						<duration>180</duration>
						<rate>
							<timebase>25</timebase>
							<ntsc>FALSE</ntsc>
						</rate>
						<start>13604</start>
						<end>13679</end>
						<in>0</in>
						<out>180</out>
						<pproTicksIn>0</pproTicksIn>
						<pproTicksOut>1828915200000</pproTicksOut>
						<alphatype>none</alphatype>
						<pixelaspectratio>square</pixelaspectratio>
						<anamorphic>FALSE</anamorphic>
						<file id="file-419">
							<name>NUM_10.mov</name>
							<pathurl>file://localhost/_MUZ_TV/graphika/RU-21/MOD/otb/NUM_10.mov</pathurl>
							<rate>
								<timebase>25</timebase>
								<ntsc>FALSE</ntsc>
							</rate>
							<duration>180</duration>
							<timecode>
								<rate>
									<timebase>25</timebase>
									<ntsc>FALSE</ntsc>
								</rate>
								<string>00:00:00:01</string>
								<frame>1</frame>
								<displayformat>NDF</displayformat>
							</timecode>
							<media>
								<video>
									<samplecharacteristics>
										<rate>
											<timebase>25</timebase>
											<ntsc>FALSE</ntsc>
										</rate>
										<width>1920</width>
										<height>1080</height>
										<anamorphic>FALSE</anamorphic>
										<pixelaspectratio>square</pixelaspectratio>
										<fielddominance>none</fielddominance>
									</samplecharacteristics>
								</video>
							</media>
						</file>
						<filter>
							<effect>
								<name>Basic Motion</name>
								<effectid>basic</effectid>
								<effectcategory>motion</effectcategory>
								<effecttype>motion</effecttype>
								<mediatype>video</mediatype>
								<pproBypass>false</pproBypass>
								<parameter authoringApp="PremierePro">
									<parameterid>scale</parameterid>
									<name>Scale</name>
									<valuemin>0</valuemin>
									<valuemax>1000</valuemax>
									<value>55</value>
								</parameter>
								<parameter authoringApp="PremierePro">
									<parameterid>rotation</parameterid>
									<name>Rotation</name>
									<valuemin>-8640</valuemin>
									<valuemax>8640</valuemax>
									<value>0</value>
								</parameter>
								<parameter authoringApp="PremierePro">
									<parameterid>center</parameterid>
									<name>Center</name>
									<value>
										<horiz>0</horiz>
										<vert>0</vert>
									</value>
								</parameter>
								<parameter authoringApp="PremierePro">
									<parameterid>centerOffset</parameterid>
									<name>Anchor Point</name>
									<value>
										<horiz>0</horiz>
										<vert>0</vert>
									</value>
								</parameter>
								<parameter authoringApp="PremierePro">
									<parameterid>antiflicker</parameterid>
									<name>Anti-flicker Filter</name>
									<valuemin>0.0</valuemin>
									<valuemax>1.0</valuemax>
									<value>0</value>
								</parameter>
							</effect>
						</filter>
						<filter>
							<effect>
								<name>Distort</name>
								<effectid>deformation</effectid>
								<effectcategory>motion</effectcategory>
								<effecttype>motion</effecttype>
								<mediatype>video</mediatype>
								<parameter authoringApp="PremierePro">
									<parameterid>aspect</parameterid>
									<name>Aspect</name>
									<valuemin>-10000</valuemin>
									<valuemax>10000</valuemax>
									<value>-3.12506</value>
								</parameter>
							</effect>
						</filter>
						<logginginfo>
							<description></description>
							<scene></scene>
							<shottake></shottake>
							<lognote></lognote>
							<good></good>
							<originalvideofilename></originalvideofilename>
							<originalaudiofilename></originalaudiofilename>
						</logginginfo>
						<colorinfo>
							<lut></lut>
							<lut1></lut1>
							<asc_sop></asc_sop>
							<asc_sat></asc_sat>
							<lut2></lut2>
						</colorinfo>
						<labels>
							<label2>Violet</label2>
						</labels>
					</clipitem>
					<clipitem id="clipitem-1182">
						<masterclipid>masterclip-505</masterclipid>
						<name>LOBODA_AMERICANO___MSWCLP004785.mov</name>
						<enabled>TRUE</enabled>
						<duration>11430</duration>
						<rate>
							<timebase>25</timebase>
							<ntsc>FALSE</ntsc>
						</rate>
						<start>13679</start>
						<end>19177</end>
						<in>217</in>
						<out>5715</out>
						<pproTicksIn>2204858880000</pproTicksIn>
						<pproTicksOut>58068057600000</pproTicksOut>
						<alphatype>none</alphatype>
						<pixelaspectratio>PAL-601</pixelaspectratio>
						<anamorphic>TRUE</anamorphic>
						<pproOriginalPAR>square</pproOriginalPAR>
						<pproOriginalIsAnamorphic>FALSE</pproOriginalIsAnamorphic>
						<file id="file-420">
							<name>LOBODA_AMERICANO___MSWCLP004785.mov</name>
							<pathurl>file://localhost/Volumes/1Tb/_MUZ_TV/Clips/LOBODA_AMERICANO___MSWCLP004785.mov</pathurl>
							<rate>
								<timebase>50</timebase>
								<ntsc>FALSE</ntsc>
							</rate>
							<duration>11430</duration>
							<timecode>
								<rate>
									<timebase>50</timebase>
									<ntsc>FALSE</ntsc>
								</rate>
								<string>00:00:00:00</string>
								<frame>0</frame>
								<displayformat>NDF</displayformat>
							</timecode>
							<media>
								<video>
									<samplecharacteristics>
										<rate>
											<timebase>50</timebase>
											<ntsc>FALSE</ntsc>
										</rate>
										<width>720</width>
										<height>576</height>
										<anamorphic>TRUE</anamorphic>
										<pixelaspectratio>PAL-601</pixelaspectratio>
										<pproOriginalIsAnamorphic>FALSE</pproOriginalIsAnamorphic>
										<pproOriginalPAR>square</pproOriginalPAR>
										<fielddominance>none</fielddominance>
									</samplecharacteristics>
								</video>
								<audio>
									<samplecharacteristics>
										<depth>16</depth>
										<samplerate>48000</samplerate>
									</samplecharacteristics>
									<channelcount>2</channelcount>
								</audio>
							</media>
						</file>
						<link>
							<linkclipref>clipitem-1182</linkclipref>
							<mediatype>video</mediatype>
							<trackindex>1</trackindex>
							<clipindex>12</clipindex>
						</link>
						<link>
							<linkclipref>clipitem-1417</linkclipref>
							<mediatype>audio</mediatype>
							<trackindex>1</trackindex>
							<clipindex>9</clipindex>
							<groupindex>1</groupindex>
						</link>
						<link>
							<linkclipref>clipitem-1455</linkclipref>
							<mediatype>audio</mediatype>
							<trackindex>2</trackindex>
							<clipindex>9</clipindex>
							<groupindex>1</groupindex>
						</link>
						<logginginfo>
							<description></description>
							<scene></scene>
							<shottake></shottake>
							<lognote></lognote>
							<good></good>
							<originalvideofilename></originalvideofilename>
							<originalaudiofilename></originalaudiofilename>
						</logginginfo>
						<colorinfo>
							<lut></lut>
							<lut1></lut1>
							<asc_sop></asc_sop>
							<asc_sat></asc_sat>
							<lut2></lut2>
						</colorinfo>
						<labels>
							<label2>Iris</label2>
						</labels>
					</clipitem>
					<clipitem id="clipitem-1183">
						<masterclipid>masterclip-501</masterclipid>
						<name>3sek_master</name>
						<enabled>TRUE</enabled>
						<duration>74</duration>
						<rate>
							<timebase>25</timebase>
							<ntsc>FALSE</ntsc>
						</rate>
						<start>19177</start>
						<end>19237</end>
						<in>0</in>
						<out>60</out>
						<pproTicksIn>0</pproTicksIn>
						<pproTicksOut>609638400000</pproTicksOut>
						<alphatype>none</alphatype>
						<file id="file-416"/>
						<filter>
							<effect>
								<name>Basic Motion</name>
								<effectid>basic</effectid>
								<effectcategory>motion</effectcategory>
								<effecttype>motion</effecttype>
								<mediatype>video</mediatype>
								<pproBypass>false</pproBypass>
								<parameter authoringApp="PremierePro">
									<parameterid>scale</parameterid>
									<name>Scale</name>
									<valuemin>0</valuemin>
									<valuemax>1000</valuemax>
									<value>55</value>
								</parameter>
								<parameter authoringApp="PremierePro">
									<parameterid>rotation</parameterid>
									<name>Rotation</name>
									<valuemin>-8640</valuemin>
									<valuemax>8640</valuemax>
									<value>0</value>
								</parameter>
								<parameter authoringApp="PremierePro">
									<parameterid>center</parameterid>
									<name>Center</name>
									<value>
										<horiz>0</horiz>
										<vert>0</vert>
									</value>
								</parameter>
								<parameter authoringApp="PremierePro">
									<parameterid>centerOffset</parameterid>
									<name>Anchor Point</name>
									<value>
										<horiz>0</horiz>
										<vert>0</vert>
									</value>
								</parameter>
								<parameter authoringApp="PremierePro">
									<parameterid>antiflicker</parameterid>
									<name>Anti-flicker Filter</name>
									<valuemin>0.0</valuemin>
									<valuemax>1.0</valuemax>
									<value>0</value>
								</parameter>
							</effect>
						</filter>
						<filter>
							<effect>
								<name>Distort</name>
								<effectid>deformation</effectid>
								<effectcategory>motion</effectcategory>
								<effecttype>motion</effecttype>
								<mediatype>video</mediatype>
								<parameter authoringApp="PremierePro">
									<parameterid>aspect</parameterid>
									<name>Aspect</name>
									<valuemin>-10000</valuemin>
									<valuemax>10000</valuemax>
									<value>-3.125</value>
								</parameter>
							</effect>
						</filter>
						<link>
							<linkclipref>clipitem-1183</linkclipref>
							<mediatype>video</mediatype>
							<trackindex>1</trackindex>
							<clipindex>13</clipindex>
						</link>
						<link>
							<linkclipref>clipitem-1418</linkclipref>
							<mediatype>audio</mediatype>
							<trackindex>1</trackindex>
							<clipindex>10</clipindex>
							<groupindex>1</groupindex>
						</link>
						<link>
							<linkclipref>clipitem-1456</linkclipref>
							<mediatype>audio</mediatype>
							<trackindex>2</trackindex>
							<clipindex>10</clipindex>
							<groupindex>1</groupindex>
						</link>
						<logginginfo>
							<description></description>
							<scene></scene>
							<shottake></shottake>
							<lognote></lognote>
							<good></good>
							<originalvideofilename></originalvideofilename>
							<originalaudiofilename></originalaudiofilename>
						</logginginfo>
						<colorinfo>
							<lut></lut>
							<lut1></lut1>
							<asc_sop></asc_sop>
							<asc_sat></asc_sat>
							<lut2></lut2>
						</colorinfo>
						<labels>
							<label2>Purple</label2>
						</labels>
					</clipitem>
					<clipitem id="clipitem-1184">
						<masterclipid>masterclip-497</masterclipid>
						<name>Nested Sequence 468</name>
						<enabled>TRUE</enabled>
						<duration>7503</duration>
						<rate>
							<timebase>25</timebase>
							<ntsc>FALSE</ntsc>
						</rate>
						<start>19237</start>
						<end>19826</end>
						<in>1443</in>
						<out>2032</out>
						<pproTicksIn>14661803520000</pproTicksIn>
						<pproTicksOut>20646420480000</pproTicksOut>
						<sequence id="sequence-92"/>
						<link>
							<linkclipref>clipitem-1184</linkclipref>
							<mediatype>video</mediatype>
							<trackindex>1</trackindex>
							<clipindex>14</clipindex>
						</link>
						<link>
							<linkclipref>clipitem-1419</linkclipref>
							<mediatype>audio</mediatype>
							<trackindex>1</trackindex>
							<clipindex>11</clipindex>
							<groupindex>1</groupindex>
						</link>
						<link>
							<linkclipref>clipitem-1457</linkclipref>
							<mediatype>audio</mediatype>
							<trackindex>2</trackindex>
							<clipindex>11</clipindex>
							<groupindex>1</groupindex>
						</link>
						<labels>
							<label2>Forest</label2>
						</labels>
					</clipitem>
					<clipitem id="clipitem-1185">
						<masterclipid>masterclip-506</masterclipid>
						<name>9_OTB</name>
						<enabled>TRUE</enabled>
						<duration>180</duration>
						<rate>
							<timebase>25</timebase>
							<ntsc>FALSE</ntsc>
						</rate>
						<start>19826</start>
						<end>19901</end>
						<in>0</in>
						<out>180</out>
						<pproTicksIn>0</pproTicksIn>
						<pproTicksOut>1828915200000</pproTicksOut>
						<alphatype>none</alphatype>
						<pixelaspectratio>square</pixelaspectratio>
						<anamorphic>FALSE</anamorphic>
						<file id="file-421">
							<name>NUM_9.mov</name>
							<pathurl>file://localhost/_MUZ_TV/graphika/RU-21/MOD/otb/NUM_9.mov</pathurl>
							<rate>
								<timebase>25</timebase>
								<ntsc>FALSE</ntsc>
							</rate>
							<duration>180</duration>
							<timecode>
								<rate>
									<timebase>25</timebase>
									<ntsc>FALSE</ntsc>
								</rate>
								<string>00:00:00:01</string>
								<frame>1</frame>
								<displayformat>NDF</displayformat>
							</timecode>
							<media>
								<video>
									<samplecharacteristics>
										<rate>
											<timebase>25</timebase>
											<ntsc>FALSE</ntsc>
										</rate>
										<width>1920</width>
										<height>1080</height>
										<anamorphic>FALSE</anamorphic>
										<pixelaspectratio>square</pixelaspectratio>
										<fielddominance>none</fielddominance>
									</samplecharacteristics>
								</video>
							</media>
						</file>
						<filter>
							<effect>
								<name>Basic Motion</name>
								<effectid>basic</effectid>
								<effectcategory>motion</effectcategory>
								<effecttype>motion</effecttype>
								<mediatype>video</mediatype>
								<pproBypass>false</pproBypass>
								<parameter authoringApp="PremierePro">
									<parameterid>scale</parameterid>
									<name>Scale</name>
									<valuemin>0</valuemin>
									<valuemax>1000</valuemax>
									<value>55</value>
								</parameter>
								<parameter authoringApp="PremierePro">
									<parameterid>rotation</parameterid>
									<name>Rotation</name>
									<valuemin>-8640</valuemin>
									<valuemax>8640</valuemax>
									<value>0</value>
								</parameter>
								<parameter authoringApp="PremierePro">
									<parameterid>center</parameterid>
									<name>Center</name>
									<value>
										<horiz>0</horiz>
										<vert>0</vert>
									</value>
								</parameter>
								<parameter authoringApp="PremierePro">
									<parameterid>centerOffset</parameterid>
									<name>Anchor Point</name>
									<value>
										<horiz>0</horiz>
										<vert>0</vert>
									</value>
								</parameter>
								<parameter authoringApp="PremierePro">
									<parameterid>antiflicker</parameterid>
									<name>Anti-flicker Filter</name>
									<valuemin>0.0</valuemin>
									<valuemax>1.0</valuemax>
									<value>0</value>
								</parameter>
							</effect>
						</filter>
						<filter>
							<effect>
								<name>Distort</name>
								<effectid>deformation</effectid>
								<effectcategory>motion</effectcategory>
								<effecttype>motion</effecttype>
								<mediatype>video</mediatype>
								<parameter authoringApp="PremierePro">
									<parameterid>aspect</parameterid>
									<name>Aspect</name>
									<valuemin>-10000</valuemin>
									<valuemax>10000</valuemax>
									<value>-3.12506</value>
								</parameter>
							</effect>
						</filter>
						<logginginfo>
							<description></description>
							<scene></scene>
							<shottake></shottake>
							<lognote></lognote>
							<good></good>
							<originalvideofilename></originalvideofilename>
							<originalaudiofilename></originalaudiofilename>
						</logginginfo>
						<colorinfo>
							<lut></lut>
							<lut1></lut1>
							<asc_sop></asc_sop>
							<asc_sat></asc_sat>
							<lut2></lut2>
						</colorinfo>
						<labels>
							<label2>Violet</label2>
						</labels>
					</clipitem>
					<clipitem id="clipitem-1186">
						<masterclipid>masterclip-507</masterclipid>
						<name>АРТУР ПИРОЖКОВ &amp; DIETER BOHLEN_ЛЕТОМ НА ФИЕСТЕ___MSWCLP004761.mov</name>
						<enabled>TRUE</enabled>
						<duration>8082</duration>
						<rate>
							<timebase>25</timebase>
							<ntsc>FALSE</ntsc>
						</rate>
						<start>19901</start>
						<end>23942</end>
						<in>0</in>
						<out>4041</out>
						<pproTicksIn>0</pproTicksIn>
						<pproTicksOut>41059146240000</pproTicksOut>
						<alphatype>none</alphatype>
						<pixelaspectratio>PAL-601</pixelaspectratio>
						<anamorphic>TRUE</anamorphic>
						<pproOriginalPAR>square</pproOriginalPAR>
						<pproOriginalIsAnamorphic>FALSE</pproOriginalIsAnamorphic>
						<file id="file-422">
							<name>АРТУР ПИРОЖКОВ &amp; DIETER BOHLEN_ЛЕТОМ НА ФИЕСТЕ___MSWCLP004761.mov</name>
							<pathurl>file://localhost/Volumes/1Tb/_MUZ_TV/Clips/%d0%90%d0%a0%d0%a2%d0%a3%d0%a0%20%d0%9f%d0%98%d0%a0%d0%9e%d0%96%d0%9a%d0%9e%d0%92%20&amp;%20DIETER%20BOHLEN_%d0%9b%d0%95%d0%a2%d0%9e%d0%9c%20%d0%9d%d0%90%20%d0%a4%d0%98%d0%95%d0%a1%d0%a2%d0%95___MSWCLP004761.mov</pathurl>
							<rate>
								<timebase>50</timebase>
								<ntsc>FALSE</ntsc>
							</rate>
							<duration>8082</duration>
							<timecode>
								<rate>
									<timebase>50</timebase>
									<ntsc>FALSE</ntsc>
								</rate>
								<string>00:00:00:00</string>
								<frame>0</frame>
								<displayformat>NDF</displayformat>
							</timecode>
							<media>
								<video>
									<samplecharacteristics>
										<rate>
											<timebase>50</timebase>
											<ntsc>FALSE</ntsc>
										</rate>
										<width>720</width>
										<height>576</height>
										<anamorphic>TRUE</anamorphic>
										<pixelaspectratio>PAL-601</pixelaspectratio>
										<pproOriginalIsAnamorphic>FALSE</pproOriginalIsAnamorphic>
										<pproOriginalPAR>square</pproOriginalPAR>
										<fielddominance>none</fielddominance>
									</samplecharacteristics>
								</video>
								<audio>
									<samplecharacteristics>
										<depth>16</depth>
										<samplerate>48000</samplerate>
									</samplecharacteristics>
									<channelcount>2</channelcount>
								</audio>
							</media>
						</file>
						<link>
							<linkclipref>clipitem-1186</linkclipref>
							<mediatype>video</mediatype>
							<trackindex>1</trackindex>
							<clipindex>16</clipindex>
						</link>
						<link>
							<linkclipref>clipitem-1420</linkclipref>
							<mediatype>audio</mediatype>
							<trackindex>1</trackindex>
							<clipindex>12</clipindex>
							<groupindex>1</groupindex>
						</link>
						<link>
							<linkclipref>clipitem-1458</linkclipref>
							<mediatype>audio</mediatype>
							<trackindex>2</trackindex>
							<clipindex>12</clipindex>
							<groupindex>1</groupindex>
						</link>
						<logginginfo>
							<description></description>
							<scene></scene>
							<shottake></shottake>
							<lognote></lognote>
							<good></good>
							<originalvideofilename></originalvideofilename>
							<originalaudiofilename></originalaudiofilename>
						</logginginfo>
						<colorinfo>
							<lut></lut>
							<lut1></lut1>
							<asc_sop></asc_sop>
							<asc_sat></asc_sat>
							<lut2></lut2>
						</colorinfo>
						<labels>
							<label2>Iris</label2>
						</labels>
					</clipitem>
					<clipitem id="clipitem-1187">
						<masterclipid>masterclip-501</masterclipid>
						<name>3sek_master</name>
						<enabled>TRUE</enabled>
						<duration>74</duration>
						<rate>
							<timebase>25</timebase>
							<ntsc>FALSE</ntsc>
						</rate>
						<start>23942</start>
						<end>24002</end>
						<in>0</in>
						<out>60</out>
						<pproTicksIn>0</pproTicksIn>
						<pproTicksOut>609638400000</pproTicksOut>
						<alphatype>none</alphatype>
						<file id="file-416"/>
						<filter>
							<effect>
								<name>Basic Motion</name>
								<effectid>basic</effectid>
								<effectcategory>motion</effectcategory>
								<effecttype>motion</effecttype>
								<mediatype>video</mediatype>
								<pproBypass>false</pproBypass>
								<parameter authoringApp="PremierePro">
									<parameterid>scale</parameterid>
									<name>Scale</name>
									<valuemin>0</valuemin>
									<valuemax>1000</valuemax>
									<value>55</value>
								</parameter>
								<parameter authoringApp="PremierePro">
									<parameterid>rotation</parameterid>
									<name>Rotation</name>
									<valuemin>-8640</valuemin>
									<valuemax>8640</valuemax>
									<value>0</value>
								</parameter>
								<parameter authoringApp="PremierePro">
									<parameterid>center</parameterid>
									<name>Center</name>
									<value>
										<horiz>0</horiz>
										<vert>0</vert>
									</value>
								</parameter>
								<parameter authoringApp="PremierePro">
									<parameterid>centerOffset</parameterid>
									<name>Anchor Point</name>
									<value>
										<horiz>0</horiz>
										<vert>0</vert>
									</value>
								</parameter>
								<parameter authoringApp="PremierePro">
									<parameterid>antiflicker</parameterid>
									<name>Anti-flicker Filter</name>
									<valuemin>0.0</valuemin>
									<valuemax>1.0</valuemax>
									<value>0</value>
								</parameter>
							</effect>
						</filter>
						<filter>
							<effect>
								<name>Distort</name>
								<effectid>deformation</effectid>
								<effectcategory>motion</effectcategory>
								<effecttype>motion</effecttype>
								<mediatype>video</mediatype>
								<parameter authoringApp="PremierePro">
									<parameterid>aspect</parameterid>
									<name>Aspect</name>
									<valuemin>-10000</valuemin>
									<valuemax>10000</valuemax>
									<value>-3.125</value>
								</parameter>
							</effect>
						</filter>
						<link>
							<linkclipref>clipitem-1187</linkclipref>
							<mediatype>video</mediatype>
							<trackindex>1</trackindex>
							<clipindex>17</clipindex>
						</link>
						<link>
							<linkclipref>clipitem-1421</linkclipref>
							<mediatype>audio</mediatype>
							<trackindex>1</trackindex>
							<clipindex>13</clipindex>
							<groupindex>1</groupindex>
						</link>
						<link>
							<linkclipref>clipitem-1459</linkclipref>
							<mediatype>audio</mediatype>
							<trackindex>2</trackindex>
							<clipindex>13</clipindex>
							<groupindex>1</groupindex>
						</link>
						<logginginfo>
							<description></description>
							<scene></scene>
							<shottake></shottake>
							<lognote></lognote>
							<good></good>
							<originalvideofilename></originalvideofilename>
							<originalaudiofilename></originalaudiofilename>
						</logginginfo>
						<colorinfo>
							<lut></lut>
							<lut1></lut1>
							<asc_sop></asc_sop>
							<asc_sat></asc_sat>
							<lut2></lut2>
						</colorinfo>
						<labels>
							<label2>Purple</label2>
						</labels>
					</clipitem>
					<clipitem id="clipitem-1188">
						<masterclipid>masterclip-497</masterclipid>
						<name>Nested Sequence 468</name>
						<enabled>TRUE</enabled>
						<duration>7503</duration>
						<rate>
							<timebase>25</timebase>
							<ntsc>FALSE</ntsc>
						</rate>
						<start>24002</start>
						<end>24582</end>
						<in>2108</in>
						<out>2688</out>
						<pproTicksIn>21418629120000</pproTicksIn>
						<pproTicksOut>27311800320000</pproTicksOut>
						<sequence id="sequence-92"/>
						<link>
							<linkclipref>clipitem-1188</linkclipref>
							<mediatype>video</mediatype>
							<trackindex>1</trackindex>
							<clipindex>18</clipindex>
						</link>
						<link>
							<linkclipref>clipitem-1422</linkclipref>
							<mediatype>audio</mediatype>
							<trackindex>1</trackindex>
							<clipindex>14</clipindex>
							<groupindex>1</groupindex>
						</link>
						<link>
							<linkclipref>clipitem-1460</linkclipref>
							<mediatype>audio</mediatype>
							<trackindex>2</trackindex>
							<clipindex>14</clipindex>
							<groupindex>1</groupindex>
						</link>
						<labels>
							<label2>Forest</label2>
						</labels>
					</clipitem>
					<clipitem id="clipitem-1189">
						<masterclipid>masterclip-508</masterclipid>
						<name>8_OTB</name>
						<enabled>TRUE</enabled>
						<duration>180</duration>
						<rate>
							<timebase>25</timebase>
							<ntsc>FALSE</ntsc>
						</rate>
						<start>24582</start>
						<end>24657</end>
						<in>0</in>
						<out>180</out>
						<pproTicksIn>0</pproTicksIn>
						<pproTicksOut>1828915200000</pproTicksOut>
						<alphatype>none</alphatype>
						<pixelaspectratio>square</pixelaspectratio>
						<anamorphic>FALSE</anamorphic>
						<file id="file-423">
							<name>NUM_8.mov</name>
							<pathurl>file://localhost/_MUZ_TV/graphika/RU-21/MOD/otb/NUM_8.mov</pathurl>
							<rate>
								<timebase>25</timebase>
								<ntsc>FALSE</ntsc>
							</rate>
							<duration>180</duration>
							<timecode>
								<rate>
									<timebase>25</timebase>
									<ntsc>FALSE</ntsc>
								</rate>
								<string>00:00:00:01</string>
								<frame>1</frame>
								<displayformat>NDF</displayformat>
							</timecode>
							<media>
								<video>
									<samplecharacteristics>
										<rate>
											<timebase>25</timebase>
											<ntsc>FALSE</ntsc>
										</rate>
										<width>1920</width>
										<height>1080</height>
										<anamorphic>FALSE</anamorphic>
										<pixelaspectratio>square</pixelaspectratio>
										<fielddominance>none</fielddominance>
									</samplecharacteristics>
								</video>
							</media>
						</file>
						<filter>
							<effect>
								<name>Basic Motion</name>
								<effectid>basic</effectid>
								<effectcategory>motion</effectcategory>
								<effecttype>motion</effecttype>
								<mediatype>video</mediatype>
								<pproBypass>false</pproBypass>
								<parameter authoringApp="PremierePro">
									<parameterid>scale</parameterid>
									<name>Scale</name>
									<valuemin>0</valuemin>
									<valuemax>1000</valuemax>
									<value>55</value>
								</parameter>
								<parameter authoringApp="PremierePro">
									<parameterid>rotation</parameterid>
									<name>Rotation</name>
									<valuemin>-8640</valuemin>
									<valuemax>8640</valuemax>
									<value>0</value>
								</parameter>
								<parameter authoringApp="PremierePro">
									<parameterid>center</parameterid>
									<name>Center</name>
									<value>
										<horiz>0</horiz>
										<vert>0</vert>
									</value>
								</parameter>
								<parameter authoringApp="PremierePro">
									<parameterid>centerOffset</parameterid>
									<name>Anchor Point</name>
									<value>
										<horiz>0</horiz>
										<vert>0</vert>
									</value>
								</parameter>
								<parameter authoringApp="PremierePro">
									<parameterid>antiflicker</parameterid>
									<name>Anti-flicker Filter</name>
									<valuemin>0.0</valuemin>
									<valuemax>1.0</valuemax>
									<value>0</value>
								</parameter>
							</effect>
						</filter>
						<filter>
							<effect>
								<name>Distort</name>
								<effectid>deformation</effectid>
								<effectcategory>motion</effectcategory>
								<effecttype>motion</effecttype>
								<mediatype>video</mediatype>
								<parameter authoringApp="PremierePro">
									<parameterid>aspect</parameterid>
									<name>Aspect</name>
									<valuemin>-10000</valuemin>
									<valuemax>10000</valuemax>
									<value>-3.12506</value>
								</parameter>
							</effect>
						</filter>
						<logginginfo>
							<description></description>
							<scene></scene>
							<shottake></shottake>
							<lognote></lognote>
							<good></good>
							<originalvideofilename></originalvideofilename>
							<originalaudiofilename></originalaudiofilename>
						</logginginfo>
						<colorinfo>
							<lut></lut>
							<lut1></lut1>
							<asc_sop></asc_sop>
							<asc_sat></asc_sat>
							<lut2></lut2>
						</colorinfo>
						<labels>
							<label2>Violet</label2>
						</labels>
					</clipitem>
					<clipitem id="clipitem-1190">
						<masterclipid>masterclip-509</masterclipid>
						<name>ZIVERT &amp; LYRIQ_FOREVER YOUNG___MSWCLP004838.mov</name>
						<enabled>TRUE</enabled>
						<duration>8864</duration>
						<rate>
							<timebase>25</timebase>
							<ntsc>FALSE</ntsc>
						</rate>
						<start>24657</start>
						<end>29061</end>
						<in>0</in>
						<out>4404</out>
						<pproTicksIn>0</pproTicksIn>
						<pproTicksOut>44747458560000</pproTicksOut>
						<alphatype>none</alphatype>
						<pixelaspectratio>PAL-601</pixelaspectratio>
						<anamorphic>TRUE</anamorphic>
						<pproOriginalPAR>square</pproOriginalPAR>
						<pproOriginalIsAnamorphic>FALSE</pproOriginalIsAnamorphic>
						<file id="file-424">
							<name>ZIVERT &amp; LYRIQ_FOREVER YOUNG___MSWCLP004838.mov</name>
							<pathurl>file://localhost/Volumes/1Tb/_MUZ_TV/Clips/ZIVERT%20&amp;%20LYRIQ_FOREVER%20YOUNG___MSWCLP004838.mov</pathurl>
							<rate>
								<timebase>50</timebase>
								<ntsc>FALSE</ntsc>
							</rate>
							<duration>8864</duration>
							<timecode>
								<rate>
									<timebase>50</timebase>
									<ntsc>FALSE</ntsc>
								</rate>
								<string>00:00:00:00</string>
								<frame>0</frame>
								<displayformat>NDF</displayformat>
							</timecode>
							<media>
								<video>
									<samplecharacteristics>
										<rate>
											<timebase>50</timebase>
											<ntsc>FALSE</ntsc>
										</rate>
										<width>720</width>
										<height>576</height>
										<anamorphic>TRUE</anamorphic>
										<pixelaspectratio>PAL-601</pixelaspectratio>
										<pproOriginalIsAnamorphic>FALSE</pproOriginalIsAnamorphic>
										<pproOriginalPAR>square</pproOriginalPAR>
										<fielddominance>none</fielddominance>
									</samplecharacteristics>
								</video>
								<audio>
									<samplecharacteristics>
										<depth>16</depth>
										<samplerate>48000</samplerate>
									</samplecharacteristics>
									<channelcount>2</channelcount>
								</audio>
							</media>
						</file>
						<link>
							<linkclipref>clipitem-1190</linkclipref>
							<mediatype>video</mediatype>
							<trackindex>1</trackindex>
							<clipindex>20</clipindex>
						</link>
						<link>
							<linkclipref>clipitem-1423</linkclipref>
							<mediatype>audio</mediatype>
							<trackindex>1</trackindex>
							<clipindex>15</clipindex>
							<groupindex>1</groupindex>
						</link>
						<link>
							<linkclipref>clipitem-1461</linkclipref>
							<mediatype>audio</mediatype>
							<trackindex>2</trackindex>
							<clipindex>15</clipindex>
							<groupindex>1</groupindex>
						</link>
						<logginginfo>
							<description></description>
							<scene></scene>
							<shottake></shottake>
							<lognote></lognote>
							<good></good>
							<originalvideofilename></originalvideofilename>
							<originalaudiofilename></originalaudiofilename>
						</logginginfo>
						<colorinfo>
							<lut></lut>
							<lut1></lut1>
							<asc_sop></asc_sop>
							<asc_sat></asc_sat>
							<lut2></lut2>
						</colorinfo>
						<labels>
							<label2>Iris</label2>
						</labels>
					</clipitem>
					<clipitem id="clipitem-1191">
						<masterclipid>masterclip-501</masterclipid>
						<name>3sek_master</name>
						<enabled>TRUE</enabled>
						<duration>74</duration>
						<rate>
							<timebase>25</timebase>
							<ntsc>FALSE</ntsc>
						</rate>
						<start>29061</start>
						<end>29121</end>
						<in>0</in>
						<out>60</out>
						<pproTicksIn>0</pproTicksIn>
						<pproTicksOut>609638400000</pproTicksOut>
						<alphatype>none</alphatype>
						<file id="file-416"/>
						<filter>
							<effect>
								<name>Basic Motion</name>
								<effectid>basic</effectid>
								<effectcategory>motion</effectcategory>
								<effecttype>motion</effecttype>
								<mediatype>video</mediatype>
								<pproBypass>false</pproBypass>
								<parameter authoringApp="PremierePro">
									<parameterid>scale</parameterid>
									<name>Scale</name>
									<valuemin>0</valuemin>
									<valuemax>1000</valuemax>
									<value>55</value>
								</parameter>
								<parameter authoringApp="PremierePro">
									<parameterid>rotation</parameterid>
									<name>Rotation</name>
									<valuemin>-8640</valuemin>
									<valuemax>8640</valuemax>
									<value>0</value>
								</parameter>
								<parameter authoringApp="PremierePro">
									<parameterid>center</parameterid>
									<name>Center</name>
									<value>
										<horiz>0</horiz>
										<vert>0</vert>
									</value>
								</parameter>
								<parameter authoringApp="PremierePro">
									<parameterid>centerOffset</parameterid>
									<name>Anchor Point</name>
									<value>
										<horiz>0</horiz>
										<vert>0</vert>
									</value>
								</parameter>
								<parameter authoringApp="PremierePro">
									<parameterid>antiflicker</parameterid>
									<name>Anti-flicker Filter</name>
									<valuemin>0.0</valuemin>
									<valuemax>1.0</valuemax>
									<value>0</value>
								</parameter>
							</effect>
						</filter>
						<filter>
							<effect>
								<name>Distort</name>
								<effectid>deformation</effectid>
								<effectcategory>motion</effectcategory>
								<effecttype>motion</effecttype>
								<mediatype>video</mediatype>
								<parameter authoringApp="PremierePro">
									<parameterid>aspect</parameterid>
									<name>Aspect</name>
									<valuemin>-10000</valuemin>
									<valuemax>10000</valuemax>
									<value>-3.125</value>
								</parameter>
							</effect>
						</filter>
						<link>
							<linkclipref>clipitem-1191</linkclipref>
							<mediatype>video</mediatype>
							<trackindex>1</trackindex>
							<clipindex>21</clipindex>
						</link>
						<link>
							<linkclipref>clipitem-1424</linkclipref>
							<mediatype>audio</mediatype>
							<trackindex>1</trackindex>
							<clipindex>16</clipindex>
							<groupindex>1</groupindex>
						</link>
						<link>
							<linkclipref>clipitem-1462</linkclipref>
							<mediatype>audio</mediatype>
							<trackindex>2</trackindex>
							<clipindex>16</clipindex>
							<groupindex>1</groupindex>
						</link>
						<logginginfo>
							<description></description>
							<scene></scene>
							<shottake></shottake>
							<lognote></lognote>
							<good></good>
							<originalvideofilename></originalvideofilename>
							<originalaudiofilename></originalaudiofilename>
						</logginginfo>
						<colorinfo>
							<lut></lut>
							<lut1></lut1>
							<asc_sop></asc_sop>
							<asc_sat></asc_sat>
							<lut2></lut2>
						</colorinfo>
						<labels>
							<label2>Purple</label2>
						</labels>
					</clipitem>
					<clipitem id="clipitem-1192">
						<masterclipid>masterclip-497</masterclipid>
						<name>Nested Sequence 468</name>
						<enabled>TRUE</enabled>
						<duration>7503</duration>
						<rate>
							<timebase>25</timebase>
							<ntsc>FALSE</ntsc>
						</rate>
						<start>29121</start>
						<end>29714</end>
						<in>3966</in>
						<out>4559</out>
						<pproTicksIn>40297098240000</pproTicksIn>
						<pproTicksOut>46322357760000</pproTicksOut>
						<sequence id="sequence-92"/>
						<link>
							<linkclipref>clipitem-1192</linkclipref>
							<mediatype>video</mediatype>
							<trackindex>1</trackindex>
							<clipindex>22</clipindex>
						</link>
						<link>
							<linkclipref>clipitem-1425</linkclipref>
							<mediatype>audio</mediatype>
							<trackindex>1</trackindex>
							<clipindex>17</clipindex>
							<groupindex>1</groupindex>
						</link>
						<link>
							<linkclipref>clipitem-1463</linkclipref>
							<mediatype>audio</mediatype>
							<trackindex>2</trackindex>
							<clipindex>17</clipindex>
							<groupindex>1</groupindex>
						</link>
						<labels>
							<label2>Forest</label2>
						</labels>
					</clipitem>
					<clipitem id="clipitem-1193">
						<masterclipid>masterclip-510</masterclipid>
						<name>7_OTB</name>
						<enabled>TRUE</enabled>
						<duration>180</duration>
						<rate>
							<timebase>25</timebase>
							<ntsc>FALSE</ntsc>
						</rate>
						<start>29714</start>
						<end>29789</end>
						<in>0</in>
						<out>180</out>
						<pproTicksIn>0</pproTicksIn>
						<pproTicksOut>1828915200000</pproTicksOut>
						<alphatype>none</alphatype>
						<pixelaspectratio>square</pixelaspectratio>
						<anamorphic>FALSE</anamorphic>
						<file id="file-425">
							<name>NUM_7.mov</name>
							<pathurl>file://localhost/_MUZ_TV/graphika/RU-21/MOD/otb/NUM_7.mov</pathurl>
							<rate>
								<timebase>25</timebase>
								<ntsc>FALSE</ntsc>
							</rate>
							<duration>180</duration>
							<timecode>
								<rate>
									<timebase>25</timebase>
									<ntsc>FALSE</ntsc>
								</rate>
								<string>00:00:00:01</string>
								<frame>1</frame>
								<displayformat>NDF</displayformat>
							</timecode>
							<media>
								<video>
									<samplecharacteristics>
										<rate>
											<timebase>25</timebase>
											<ntsc>FALSE</ntsc>
										</rate>
										<width>1920</width>
										<height>1080</height>
										<anamorphic>FALSE</anamorphic>
										<pixelaspectratio>square</pixelaspectratio>
										<fielddominance>none</fielddominance>
									</samplecharacteristics>
								</video>
							</media>
						</file>
						<filter>
							<effect>
								<name>Basic Motion</name>
								<effectid>basic</effectid>
								<effectcategory>motion</effectcategory>
								<effecttype>motion</effecttype>
								<mediatype>video</mediatype>
								<pproBypass>false</pproBypass>
								<parameter authoringApp="PremierePro">
									<parameterid>scale</parameterid>
									<name>Scale</name>
									<valuemin>0</valuemin>
									<valuemax>1000</valuemax>
									<value>55</value>
								</parameter>
								<parameter authoringApp="PremierePro">
									<parameterid>rotation</parameterid>
									<name>Rotation</name>
									<valuemin>-8640</valuemin>
									<valuemax>8640</valuemax>
									<value>0</value>
								</parameter>
								<parameter authoringApp="PremierePro">
									<parameterid>center</parameterid>
									<name>Center</name>
									<value>
										<horiz>0</horiz>
										<vert>0</vert>
									</value>
								</parameter>
								<parameter authoringApp="PremierePro">
									<parameterid>centerOffset</parameterid>
									<name>Anchor Point</name>
									<value>
										<horiz>0</horiz>
										<vert>0</vert>
									</value>
								</parameter>
								<parameter authoringApp="PremierePro">
									<parameterid>antiflicker</parameterid>
									<name>Anti-flicker Filter</name>
									<valuemin>0.0</valuemin>
									<valuemax>1.0</valuemax>
									<value>0</value>
								</parameter>
							</effect>
						</filter>
						<filter>
							<effect>
								<name>Distort</name>
								<effectid>deformation</effectid>
								<effectcategory>motion</effectcategory>
								<effecttype>motion</effecttype>
								<mediatype>video</mediatype>
								<parameter authoringApp="PremierePro">
									<parameterid>aspect</parameterid>
									<name>Aspect</name>
									<valuemin>-10000</valuemin>
									<valuemax>10000</valuemax>
									<value>-3.12506</value>
								</parameter>
							</effect>
						</filter>
						<logginginfo>
							<description></description>
							<scene></scene>
							<shottake></shottake>
							<lognote></lognote>
							<good></good>
							<originalvideofilename></originalvideofilename>
							<originalaudiofilename></originalaudiofilename>
						</logginginfo>
						<colorinfo>
							<lut></lut>
							<lut1></lut1>
							<asc_sop></asc_sop>
							<asc_sat></asc_sat>
							<lut2></lut2>
						</colorinfo>
						<labels>
							<label2>Violet</label2>
						</labels>
					</clipitem>
					<clipitem id="clipitem-1194">
						<masterclipid>masterclip-511</masterclipid>
						<name>DABRO_УСЛЫШИТ ВЕСЬ РАЙОН___MSWCLP004759.mov</name>
						<enabled>TRUE</enabled>
						<duration>9620</duration>
						<rate>
							<timebase>25</timebase>
							<ntsc>FALSE</ntsc>
						</rate>
						<start>29789</start>
						<end>34599</end>
						<in>0</in>
						<out>4810</out>
						<pproTicksIn>0</pproTicksIn>
						<pproTicksOut>48872678400000</pproTicksOut>
						<alphatype>none</alphatype>
						<pixelaspectratio>PAL-601</pixelaspectratio>
						<anamorphic>TRUE</anamorphic>
						<pproOriginalPAR>square</pproOriginalPAR>
						<pproOriginalIsAnamorphic>FALSE</pproOriginalIsAnamorphic>
						<file id="file-426">
							<name>DABRO_УСЛЫШИТ ВЕСЬ РАЙОН___MSWCLP004759.mov</name>
							<pathurl>file://localhost/Volumes/1Tb/_MUZ_TV/Clips/DABRO_%d0%a3%d0%a1%d0%9b%d0%ab%d0%a8%d0%98%d0%a2%20%d0%92%d0%95%d0%a1%d0%ac%20%d0%a0%d0%90%d0%98%cc%86%d0%9e%d0%9d___MSWCLP004759.mov</pathurl>
							<rate>
								<timebase>50</timebase>
								<ntsc>FALSE</ntsc>
							</rate>
							<duration>9620</duration>
							<timecode>
								<rate>
									<timebase>50</timebase>
									<ntsc>FALSE</ntsc>
								</rate>
								<string>00:00:00:00</string>
								<frame>0</frame>
								<displayformat>NDF</displayformat>
							</timecode>
							<media>
								<video>
									<samplecharacteristics>
										<rate>
											<timebase>50</timebase>
											<ntsc>FALSE</ntsc>
										</rate>
										<width>720</width>
										<height>576</height>
										<anamorphic>TRUE</anamorphic>
										<pixelaspectratio>PAL-601</pixelaspectratio>
										<pproOriginalIsAnamorphic>FALSE</pproOriginalIsAnamorphic>
										<pproOriginalPAR>square</pproOriginalPAR>
										<fielddominance>none</fielddominance>
									</samplecharacteristics>
								</video>
								<audio>
									<samplecharacteristics>
										<depth>16</depth>
										<samplerate>48000</samplerate>
									</samplecharacteristics>
									<channelcount>2</channelcount>
								</audio>
							</media>
						</file>
						<link>
							<linkclipref>clipitem-1194</linkclipref>
							<mediatype>video</mediatype>
							<trackindex>1</trackindex>
							<clipindex>24</clipindex>
						</link>
						<link>
							<linkclipref>clipitem-1426</linkclipref>
							<mediatype>audio</mediatype>
							<trackindex>1</trackindex>
							<clipindex>18</clipindex>
							<groupindex>1</groupindex>
						</link>
						<link>
							<linkclipref>clipitem-1464</linkclipref>
							<mediatype>audio</mediatype>
							<trackindex>2</trackindex>
							<clipindex>18</clipindex>
							<groupindex>1</groupindex>
						</link>
						<logginginfo>
							<description></description>
							<scene></scene>
							<shottake></shottake>
							<lognote></lognote>
							<good></good>
							<originalvideofilename></originalvideofilename>
							<originalaudiofilename></originalaudiofilename>
						</logginginfo>
						<colorinfo>
							<lut></lut>
							<lut1></lut1>
							<asc_sop></asc_sop>
							<asc_sat></asc_sat>
							<lut2></lut2>
						</colorinfo>
						<labels>
							<label2>Iris</label2>
						</labels>
					</clipitem>
					<clipitem id="clipitem-1195">
						<masterclipid>masterclip-501</masterclipid>
						<name>3sek_master</name>
						<enabled>TRUE</enabled>
						<duration>74</duration>
						<rate>
							<timebase>25</timebase>
							<ntsc>FALSE</ntsc>
						</rate>
						<start>34599</start>
						<end>34659</end>
						<in>0</in>
						<out>60</out>
						<pproTicksIn>0</pproTicksIn>
						<pproTicksOut>609638400000</pproTicksOut>
						<alphatype>none</alphatype>
						<file id="file-416"/>
						<filter>
							<effect>
								<name>Basic Motion</name>
								<effectid>basic</effectid>
								<effectcategory>motion</effectcategory>
								<effecttype>motion</effecttype>
								<mediatype>video</mediatype>
								<pproBypass>false</pproBypass>
								<parameter authoringApp="PremierePro">
									<parameterid>scale</parameterid>
									<name>Scale</name>
									<valuemin>0</valuemin>
									<valuemax>1000</valuemax>
									<value>55</value>
								</parameter>
								<parameter authoringApp="PremierePro">
									<parameterid>rotation</parameterid>
									<name>Rotation</name>
									<valuemin>-8640</valuemin>
									<valuemax>8640</valuemax>
									<value>0</value>
								</parameter>
								<parameter authoringApp="PremierePro">
									<parameterid>center</parameterid>
									<name>Center</name>
									<value>
										<horiz>0</horiz>
										<vert>0</vert>
									</value>
								</parameter>
								<parameter authoringApp="PremierePro">
									<parameterid>centerOffset</parameterid>
									<name>Anchor Point</name>
									<value>
										<horiz>0</horiz>
										<vert>0</vert>
									</value>
								</parameter>
								<parameter authoringApp="PremierePro">
									<parameterid>antiflicker</parameterid>
									<name>Anti-flicker Filter</name>
									<valuemin>0.0</valuemin>
									<valuemax>1.0</valuemax>
									<value>0</value>
								</parameter>
							</effect>
						</filter>
						<filter>
							<effect>
								<name>Distort</name>
								<effectid>deformation</effectid>
								<effectcategory>motion</effectcategory>
								<effecttype>motion</effecttype>
								<mediatype>video</mediatype>
								<parameter authoringApp="PremierePro">
									<parameterid>aspect</parameterid>
									<name>Aspect</name>
									<valuemin>-10000</valuemin>
									<valuemax>10000</valuemax>
									<value>-3.125</value>
								</parameter>
							</effect>
						</filter>
						<link>
							<linkclipref>clipitem-1195</linkclipref>
							<mediatype>video</mediatype>
							<trackindex>1</trackindex>
							<clipindex>25</clipindex>
						</link>
						<link>
							<linkclipref>clipitem-1427</linkclipref>
							<mediatype>audio</mediatype>
							<trackindex>1</trackindex>
							<clipindex>19</clipindex>
							<groupindex>1</groupindex>
						</link>
						<link>
							<linkclipref>clipitem-1465</linkclipref>
							<mediatype>audio</mediatype>
							<trackindex>2</trackindex>
							<clipindex>19</clipindex>
							<groupindex>1</groupindex>
						</link>
						<logginginfo>
							<description></description>
							<scene></scene>
							<shottake></shottake>
							<lognote></lognote>
							<good></good>
							<originalvideofilename></originalvideofilename>
							<originalaudiofilename></originalaudiofilename>
						</logginginfo>
						<colorinfo>
							<lut></lut>
							<lut1></lut1>
							<asc_sop></asc_sop>
							<asc_sat></asc_sat>
							<lut2></lut2>
						</colorinfo>
						<labels>
							<label2>Purple</label2>
						</labels>
					</clipitem>
					<clipitem id="clipitem-1196">
						<masterclipid>masterclip-497</masterclipid>
						<name>Nested Sequence 468</name>
						<enabled>TRUE</enabled>
						<duration>7503</duration>
						<rate>
							<timebase>25</timebase>
							<ntsc>FALSE</ntsc>
						</rate>
						<start>34659</start>
						<end>35166</end>
						<in>4607</in>
						<out>5114</out>
						<pproTicksIn>46810068480000</pproTicksIn>
						<pproTicksOut>51961512960000</pproTicksOut>
						<sequence id="sequence-92"/>
						<link>
							<linkclipref>clipitem-1196</linkclipref>
							<mediatype>video</mediatype>
							<trackindex>1</trackindex>
							<clipindex>26</clipindex>
						</link>
						<link>
							<linkclipref>clipitem-1428</linkclipref>
							<mediatype>audio</mediatype>
							<trackindex>1</trackindex>
							<clipindex>20</clipindex>
							<groupindex>1</groupindex>
						</link>
						<link>
							<linkclipref>clipitem-1466</linkclipref>
							<mediatype>audio</mediatype>
							<trackindex>2</trackindex>
							<clipindex>20</clipindex>
							<groupindex>1</groupindex>
						</link>
						<labels>
							<label2>Forest</label2>
						</labels>
					</clipitem>
					<clipitem id="clipitem-1197">
						<masterclipid>masterclip-512</masterclipid>
						<name>6_OTB</name>
						<enabled>TRUE</enabled>
						<duration>180</duration>
						<rate>
							<timebase>25</timebase>
							<ntsc>FALSE</ntsc>
						</rate>
						<start>35166</start>
						<end>35241</end>
						<in>0</in>
						<out>180</out>
						<pproTicksIn>0</pproTicksIn>
						<pproTicksOut>1828915200000</pproTicksOut>
						<alphatype>none</alphatype>
						<pixelaspectratio>square</pixelaspectratio>
						<anamorphic>FALSE</anamorphic>
						<file id="file-427">
							<name>NUM_6.mov</name>
							<pathurl>file://localhost/_MUZ_TV/graphika/RU-21/MOD/otb/NUM_6.mov</pathurl>
							<rate>
								<timebase>25</timebase>
								<ntsc>FALSE</ntsc>
							</rate>
							<duration>180</duration>
							<timecode>
								<rate>
									<timebase>25</timebase>
									<ntsc>FALSE</ntsc>
								</rate>
								<string>00:00:00:01</string>
								<frame>1</frame>
								<displayformat>NDF</displayformat>
							</timecode>
							<media>
								<video>
									<samplecharacteristics>
										<rate>
											<timebase>25</timebase>
											<ntsc>FALSE</ntsc>
										</rate>
										<width>1920</width>
										<height>1080</height>
										<anamorphic>FALSE</anamorphic>
										<pixelaspectratio>square</pixelaspectratio>
										<fielddominance>none</fielddominance>
									</samplecharacteristics>
								</video>
							</media>
						</file>
						<filter>
							<effect>
								<name>Basic Motion</name>
								<effectid>basic</effectid>
								<effectcategory>motion</effectcategory>
								<effecttype>motion</effecttype>
								<mediatype>video</mediatype>
								<pproBypass>false</pproBypass>
								<parameter authoringApp="PremierePro">
									<parameterid>scale</parameterid>
									<name>Scale</name>
									<valuemin>0</valuemin>
									<valuemax>1000</valuemax>
									<value>55</value>
								</parameter>
								<parameter authoringApp="PremierePro">
									<parameterid>rotation</parameterid>
									<name>Rotation</name>
									<valuemin>-8640</valuemin>
									<valuemax>8640</valuemax>
									<value>0</value>
								</parameter>
								<parameter authoringApp="PremierePro">
									<parameterid>center</parameterid>
									<name>Center</name>
									<value>
										<horiz>0</horiz>
										<vert>0</vert>
									</value>
								</parameter>
								<parameter authoringApp="PremierePro">
									<parameterid>centerOffset</parameterid>
									<name>Anchor Point</name>
									<value>
										<horiz>0</horiz>
										<vert>0</vert>
									</value>
								</parameter>
								<parameter authoringApp="PremierePro">
									<parameterid>antiflicker</parameterid>
									<name>Anti-flicker Filter</name>
									<valuemin>0.0</valuemin>
									<valuemax>1.0</valuemax>
									<value>0</value>
								</parameter>
							</effect>
						</filter>
						<filter>
							<effect>
								<name>Distort</name>
								<effectid>deformation</effectid>
								<effectcategory>motion</effectcategory>
								<effecttype>motion</effecttype>
								<mediatype>video</mediatype>
								<parameter authoringApp="PremierePro">
									<parameterid>aspect</parameterid>
									<name>Aspect</name>
									<valuemin>-10000</valuemin>
									<valuemax>10000</valuemax>
									<value>-3.12506</value>
								</parameter>
							</effect>
						</filter>
						<logginginfo>
							<description></description>
							<scene></scene>
							<shottake></shottake>
							<lognote></lognote>
							<good></good>
							<originalvideofilename></originalvideofilename>
							<originalaudiofilename></originalaudiofilename>
						</logginginfo>
						<colorinfo>
							<lut></lut>
							<lut1></lut1>
							<asc_sop></asc_sop>
							<asc_sat></asc_sat>
							<lut2></lut2>
						</colorinfo>
						<labels>
							<label2>Violet</label2>
						</labels>
					</clipitem>
					<clipitem id="clipitem-1198">
						<masterclipid>masterclip-513</masterclipid>
						<name>ЗВОНКИЙ &amp; МАРИ КРАЙМБРЕРИ_КАК ДЕЛА, МАЛЫШ?___MSWCLP004735.mov</name>
						<enabled>TRUE</enabled>
						<duration>11734</duration>
						<rate>
							<timebase>25</timebase>
							<ntsc>FALSE</ntsc>
						</rate>
						<start>35241</start>
						<end>40627</end>
						<in>481</in>
						<out>5867</out>
						<pproTicksIn>4887267840000</pproTicksIn>
						<pproTicksOut>59612474880000</pproTicksOut>
						<alphatype>none</alphatype>
						<pixelaspectratio>PAL-601</pixelaspectratio>
						<anamorphic>TRUE</anamorphic>
						<pproOriginalPAR>square</pproOriginalPAR>
						<pproOriginalIsAnamorphic>FALSE</pproOriginalIsAnamorphic>
						<file id="file-428">
							<name>ЗВОНКИЙ &amp; МАРИ КРАЙМБРЕРИ_КАК ДЕЛА, МАЛЫШ?___MSWCLP004735.mov</name>
							<pathurl>file://localhost/Volumes/1Tb/_MUZ_TV/Clips/%d0%97%d0%92%d0%9e%d0%9d%d0%9a%d0%98%d0%98%cc%86%20&amp;%20%d0%9c%d0%90%d0%a0%d0%98%20%d0%9a%d0%a0%d0%90%d0%98%cc%86%d0%9c%d0%91%d0%a0%d0%95%d0%a0%d0%98_%d0%9a%d0%90%d0%9a%20%d0%94%d0%95%d0%9b%d0%90,%20%d0%9c%d0%90%d0%9b%d0%ab%d0%a8?___MSWCLP004735.mov</pathurl>
							<rate>
								<timebase>50</timebase>
								<ntsc>FALSE</ntsc>
							</rate>
							<duration>11734</duration>
							<timecode>
								<rate>
									<timebase>50</timebase>
									<ntsc>FALSE</ntsc>
								</rate>
								<string>00:00:00:00</string>
								<frame>0</frame>
								<displayformat>NDF</displayformat>
							</timecode>
							<media>
								<video>
									<samplecharacteristics>
										<rate>
											<timebase>50</timebase>
											<ntsc>FALSE</ntsc>
										</rate>
										<width>720</width>
										<height>576</height>
										<anamorphic>TRUE</anamorphic>
										<pixelaspectratio>PAL-601</pixelaspectratio>
										<pproOriginalIsAnamorphic>FALSE</pproOriginalIsAnamorphic>
										<pproOriginalPAR>square</pproOriginalPAR>
										<fielddominance>none</fielddominance>
									</samplecharacteristics>
								</video>
								<audio>
									<samplecharacteristics>
										<depth>16</depth>
										<samplerate>48000</samplerate>
									</samplecharacteristics>
									<channelcount>2</channelcount>
								</audio>
							</media>
						</file>
						<logginginfo>
							<description></description>
							<scene></scene>
							<shottake></shottake>
							<lognote></lognote>
							<good></good>
							<originalvideofilename></originalvideofilename>
							<originalaudiofilename></originalaudiofilename>
						</logginginfo>
						<colorinfo>
							<lut></lut>
							<lut1></lut1>
							<asc_sop></asc_sop>
							<asc_sat></asc_sat>
							<lut2></lut2>
						</colorinfo>
						<labels>
							<label2>Iris</label2>
						</labels>
					</clipitem>
					<clipitem id="clipitem-1199">
						<masterclipid>masterclip-501</masterclipid>
						<name>3sek_master</name>
						<enabled>TRUE</enabled>
						<duration>74</duration>
						<rate>
							<timebase>25</timebase>
							<ntsc>FALSE</ntsc>
						</rate>
						<start>40627</start>
						<end>40687</end>
						<in>0</in>
						<out>60</out>
						<pproTicksIn>0</pproTicksIn>
						<pproTicksOut>609638400000</pproTicksOut>
						<alphatype>none</alphatype>
						<file id="file-416"/>
						<filter>
							<effect>
								<name>Basic Motion</name>
								<effectid>basic</effectid>
								<effectcategory>motion</effectcategory>
								<effecttype>motion</effecttype>
								<mediatype>video</mediatype>
								<pproBypass>false</pproBypass>
								<parameter authoringApp="PremierePro">
									<parameterid>scale</parameterid>
									<name>Scale</name>
									<valuemin>0</valuemin>
									<valuemax>1000</valuemax>
									<value>55</value>
								</parameter>
								<parameter authoringApp="PremierePro">
									<parameterid>rotation</parameterid>
									<name>Rotation</name>
									<valuemin>-8640</valuemin>
									<valuemax>8640</valuemax>
									<value>0</value>
								</parameter>
								<parameter authoringApp="PremierePro">
									<parameterid>center</parameterid>
									<name>Center</name>
									<value>
										<horiz>0</horiz>
										<vert>0</vert>
									</value>
								</parameter>
								<parameter authoringApp="PremierePro">
									<parameterid>centerOffset</parameterid>
									<name>Anchor Point</name>
									<value>
										<horiz>0</horiz>
										<vert>0</vert>
									</value>
								</parameter>
								<parameter authoringApp="PremierePro">
									<parameterid>antiflicker</parameterid>
									<name>Anti-flicker Filter</name>
									<valuemin>0.0</valuemin>
									<valuemax>1.0</valuemax>
									<value>0</value>
								</parameter>
							</effect>
						</filter>
						<filter>
							<effect>
								<name>Distort</name>
								<effectid>deformation</effectid>
								<effectcategory>motion</effectcategory>
								<effecttype>motion</effecttype>
								<mediatype>video</mediatype>
								<parameter authoringApp="PremierePro">
									<parameterid>aspect</parameterid>
									<name>Aspect</name>
									<valuemin>-10000</valuemin>
									<valuemax>10000</valuemax>
									<value>-3.125</value>
								</parameter>
							</effect>
						</filter>
						<link>
							<linkclipref>clipitem-1199</linkclipref>
							<mediatype>video</mediatype>
							<trackindex>1</trackindex>
							<clipindex>29</clipindex>
						</link>
						<link>
							<linkclipref>clipitem-1430</linkclipref>
							<mediatype>audio</mediatype>
							<trackindex>1</trackindex>
							<clipindex>22</clipindex>
							<groupindex>1</groupindex>
						</link>
						<link>
							<linkclipref>clipitem-1468</linkclipref>
							<mediatype>audio</mediatype>
							<trackindex>2</trackindex>
							<clipindex>22</clipindex>
							<groupindex>1</groupindex>
						</link>
						<logginginfo>
							<description></description>
							<scene></scene>
							<shottake></shottake>
							<lognote></lognote>
							<good></good>
							<originalvideofilename></originalvideofilename>
							<originalaudiofilename></originalaudiofilename>
						</logginginfo>
						<colorinfo>
							<lut></lut>
							<lut1></lut1>
							<asc_sop></asc_sop>
							<asc_sat></asc_sat>
							<lut2></lut2>
						</colorinfo>
						<labels>
							<label2>Purple</label2>
						</labels>
					</clipitem>
					<clipitem id="clipitem-1200">
						<masterclipid>masterclip-497</masterclipid>
						<name>Nested Sequence 468</name>
						<enabled>TRUE</enabled>
						<duration>7503</duration>
						<rate>
							<timebase>25</timebase>
							<ntsc>FALSE</ntsc>
						</rate>
						<start>40687</start>
						<end>41118</end>
						<in>5685</in>
						<out>6116</out>
						<pproTicksIn>57763238400000</pproTicksIn>
						<pproTicksOut>62142474240000</pproTicksOut>
						<sequence id="sequence-92"/>
						<link>
							<linkclipref>clipitem-1200</linkclipref>
							<mediatype>video</mediatype>
							<trackindex>1</trackindex>
							<clipindex>30</clipindex>
						</link>
						<link>
							<linkclipref>clipitem-1431</linkclipref>
							<mediatype>audio</mediatype>
							<trackindex>1</trackindex>
							<clipindex>23</clipindex>
							<groupindex>1</groupindex>
						</link>
						<link>
							<linkclipref>clipitem-1469</linkclipref>
							<mediatype>audio</mediatype>
							<trackindex>2</trackindex>
							<clipindex>23</clipindex>
							<groupindex>1</groupindex>
						</link>
						<labels>
							<label2>Forest</label2>
						</labels>
					</clipitem>
					<clipitem id="clipitem-1201">
						<masterclipid>masterclip-514</masterclipid>
						<name>5_OTB</name>
						<enabled>TRUE</enabled>
						<duration>180</duration>
						<rate>
							<timebase>25</timebase>
							<ntsc>FALSE</ntsc>
						</rate>
						<start>41118</start>
						<end>41193</end>
						<in>0</in>
						<out>180</out>
						<pproTicksIn>0</pproTicksIn>
						<pproTicksOut>1828915200000</pproTicksOut>
						<alphatype>none</alphatype>
						<pixelaspectratio>square</pixelaspectratio>
						<anamorphic>FALSE</anamorphic>
						<file id="file-429">
							<name>NUM_5.mov</name>
							<pathurl>file://localhost/_MUZ_TV/graphika/RU-21/MOD/otb/NUM_5.mov</pathurl>
							<rate>
								<timebase>25</timebase>
								<ntsc>FALSE</ntsc>
							</rate>
							<duration>180</duration>
							<timecode>
								<rate>
									<timebase>25</timebase>
									<ntsc>FALSE</ntsc>
								</rate>
								<string>00:00:00:01</string>
								<frame>1</frame>
								<displayformat>NDF</displayformat>
							</timecode>
							<media>
								<video>
									<samplecharacteristics>
										<rate>
											<timebase>25</timebase>
											<ntsc>FALSE</ntsc>
										</rate>
										<width>1920</width>
										<height>1080</height>
										<anamorphic>FALSE</anamorphic>
										<pixelaspectratio>square</pixelaspectratio>
										<fielddominance>none</fielddominance>
									</samplecharacteristics>
								</video>
							</media>
						</file>
						<filter>
							<effect>
								<name>Basic Motion</name>
								<effectid>basic</effectid>
								<effectcategory>motion</effectcategory>
								<effecttype>motion</effecttype>
								<mediatype>video</mediatype>
								<pproBypass>false</pproBypass>
								<parameter authoringApp="PremierePro">
									<parameterid>scale</parameterid>
									<name>Scale</name>
									<valuemin>0</valuemin>
									<valuemax>1000</valuemax>
									<value>55</value>
								</parameter>
								<parameter authoringApp="PremierePro">
									<parameterid>rotation</parameterid>
									<name>Rotation</name>
									<valuemin>-8640</valuemin>
									<valuemax>8640</valuemax>
									<value>0</value>
								</parameter>
								<parameter authoringApp="PremierePro">
									<parameterid>center</parameterid>
									<name>Center</name>
									<value>
										<horiz>0</horiz>
										<vert>0</vert>
									</value>
								</parameter>
								<parameter authoringApp="PremierePro">
									<parameterid>centerOffset</parameterid>
									<name>Anchor Point</name>
									<value>
										<horiz>0</horiz>
										<vert>0</vert>
									</value>
								</parameter>
								<parameter authoringApp="PremierePro">
									<parameterid>antiflicker</parameterid>
									<name>Anti-flicker Filter</name>
									<valuemin>0.0</valuemin>
									<valuemax>1.0</valuemax>
									<value>0</value>
								</parameter>
							</effect>
						</filter>
						<filter>
							<effect>
								<name>Distort</name>
								<effectid>deformation</effectid>
								<effectcategory>motion</effectcategory>
								<effecttype>motion</effecttype>
								<mediatype>video</mediatype>
								<parameter authoringApp="PremierePro">
									<parameterid>aspect</parameterid>
									<name>Aspect</name>
									<valuemin>-10000</valuemin>
									<valuemax>10000</valuemax>
									<value>-3.12506</value>
								</parameter>
							</effect>
						</filter>
						<logginginfo>
							<description></description>
							<scene></scene>
							<shottake></shottake>
							<lognote></lognote>
							<good></good>
							<originalvideofilename></originalvideofilename>
							<originalaudiofilename></originalaudiofilename>
						</logginginfo>
						<colorinfo>
							<lut></lut>
							<lut1></lut1>
							<asc_sop></asc_sop>
							<asc_sat></asc_sat>
							<lut2></lut2>
						</colorinfo>
						<labels>
							<label2>Violet</label2>
						</labels>
					</clipitem>
					<clipitem id="clipitem-1202">
						<masterclipid>masterclip-515</masterclipid>
						<name>BITTUEV_БРАТИК___MSWCLP004753.mov</name>
						<enabled>TRUE</enabled>
						<duration>5964</duration>
						<rate>
							<timebase>25</timebase>
							<ntsc>FALSE</ntsc>
						</rate>
						<start>41193</start>
						<end>44175</end>
						<in>0</in>
						<out>2982</out>
						<pproTicksIn>0</pproTicksIn>
						<pproTicksOut>30299028480000</pproTicksOut>
						<alphatype>none</alphatype>
						<pixelaspectratio>PAL-601</pixelaspectratio>
						<anamorphic>TRUE</anamorphic>
						<pproOriginalPAR>square</pproOriginalPAR>
						<pproOriginalIsAnamorphic>FALSE</pproOriginalIsAnamorphic>
						<file id="file-430">
							<name>BITTUEV_БРАТИК___MSWCLP004753.mov</name>
							<pathurl>file://localhost/Volumes/1Tb/_MUZ_TV/Clips/BITTUEV_%d0%91%d0%a0%d0%90%d0%a2%d0%98%d0%9a___MSWCLP004753.mov</pathurl>
							<rate>
								<timebase>50</timebase>
								<ntsc>FALSE</ntsc>
							</rate>
							<duration>5964</duration>
							<timecode>
								<rate>
									<timebase>50</timebase>
									<ntsc>FALSE</ntsc>
								</rate>
								<string>00:00:00:00</string>
								<frame>0</frame>
								<displayformat>NDF</displayformat>
							</timecode>
							<media>
								<video>
									<samplecharacteristics>
										<rate>
											<timebase>50</timebase>
											<ntsc>FALSE</ntsc>
										</rate>
										<width>720</width>
										<height>576</height>
										<anamorphic>TRUE</anamorphic>
										<pixelaspectratio>PAL-601</pixelaspectratio>
										<pproOriginalIsAnamorphic>FALSE</pproOriginalIsAnamorphic>
										<pproOriginalPAR>square</pproOriginalPAR>
										<fielddominance>none</fielddominance>
									</samplecharacteristics>
								</video>
								<audio>
									<samplecharacteristics>
										<depth>16</depth>
										<samplerate>48000</samplerate>
									</samplecharacteristics>
									<channelcount>2</channelcount>
								</audio>
							</media>
						</file>
						<link>
							<linkclipref>clipitem-1202</linkclipref>
							<mediatype>video</mediatype>
							<trackindex>1</trackindex>
							<clipindex>32</clipindex>
						</link>
						<link>
							<linkclipref>clipitem-1432</linkclipref>
							<mediatype>audio</mediatype>
							<trackindex>1</trackindex>
							<clipindex>24</clipindex>
							<groupindex>1</groupindex>
						</link>
						<link>
							<linkclipref>clipitem-1470</linkclipref>
							<mediatype>audio</mediatype>
							<trackindex>2</trackindex>
							<clipindex>24</clipindex>
							<groupindex>1</groupindex>
						</link>
						<logginginfo>
							<description></description>
							<scene></scene>
							<shottake></shottake>
							<lognote></lognote>
							<good></good>
							<originalvideofilename></originalvideofilename>
							<originalaudiofilename></originalaudiofilename>
						</logginginfo>
						<colorinfo>
							<lut></lut>
							<lut1></lut1>
							<asc_sop></asc_sop>
							<asc_sat></asc_sat>
							<lut2></lut2>
						</colorinfo>
						<labels>
							<label2>Iris</label2>
						</labels>
					</clipitem>
					<clipitem id="clipitem-1203">
						<masterclipid>masterclip-501</masterclipid>
						<name>3sek_master</name>
						<enabled>TRUE</enabled>
						<duration>74</duration>
						<rate>
							<timebase>25</timebase>
							<ntsc>FALSE</ntsc>
						</rate>
						<start>44175</start>
						<end>44235</end>
						<in>0</in>
						<out>60</out>
						<pproTicksIn>0</pproTicksIn>
						<pproTicksOut>609638400000</pproTicksOut>
						<alphatype>none</alphatype>
						<file id="file-416"/>
						<filter>
							<effect>
								<name>Basic Motion</name>
								<effectid>basic</effectid>
								<effectcategory>motion</effectcategory>
								<effecttype>motion</effecttype>
								<mediatype>video</mediatype>
								<pproBypass>false</pproBypass>
								<parameter authoringApp="PremierePro">
									<parameterid>scale</parameterid>
									<name>Scale</name>
									<valuemin>0</valuemin>
									<valuemax>1000</valuemax>
									<value>55</value>
								</parameter>
								<parameter authoringApp="PremierePro">
									<parameterid>rotation</parameterid>
									<name>Rotation</name>
									<valuemin>-8640</valuemin>
									<valuemax>8640</valuemax>
									<value>0</value>
								</parameter>
								<parameter authoringApp="PremierePro">
									<parameterid>center</parameterid>
									<name>Center</name>
									<value>
										<horiz>0</horiz>
										<vert>0</vert>
									</value>
								</parameter>
								<parameter authoringApp="PremierePro">
									<parameterid>centerOffset</parameterid>
									<name>Anchor Point</name>
									<value>
										<horiz>0</horiz>
										<vert>0</vert>
									</value>
								</parameter>
								<parameter authoringApp="PremierePro">
									<parameterid>antiflicker</parameterid>
									<name>Anti-flicker Filter</name>
									<valuemin>0.0</valuemin>
									<valuemax>1.0</valuemax>
									<value>0</value>
								</parameter>
							</effect>
						</filter>
						<filter>
							<effect>
								<name>Distort</name>
								<effectid>deformation</effectid>
								<effectcategory>motion</effectcategory>
								<effecttype>motion</effecttype>
								<mediatype>video</mediatype>
								<parameter authoringApp="PremierePro">
									<parameterid>aspect</parameterid>
									<name>Aspect</name>
									<valuemin>-10000</valuemin>
									<valuemax>10000</valuemax>
									<value>-3.125</value>
								</parameter>
							</effect>
						</filter>
						<link>
							<linkclipref>clipitem-1203</linkclipref>
							<mediatype>video</mediatype>
							<trackindex>1</trackindex>
							<clipindex>33</clipindex>
						</link>
						<link>
							<linkclipref>clipitem-1433</linkclipref>
							<mediatype>audio</mediatype>
							<trackindex>1</trackindex>
							<clipindex>25</clipindex>
							<groupindex>1</groupindex>
						</link>
						<link>
							<linkclipref>clipitem-1471</linkclipref>
							<mediatype>audio</mediatype>
							<trackindex>2</trackindex>
							<clipindex>25</clipindex>
							<groupindex>1</groupindex>
						</link>
						<logginginfo>
							<description></description>
							<scene></scene>
							<shottake></shottake>
							<lognote></lognote>
							<good></good>
							<originalvideofilename></originalvideofilename>
							<originalaudiofilename></originalaudiofilename>
						</logginginfo>
						<colorinfo>
							<lut></lut>
							<lut1></lut1>
							<asc_sop></asc_sop>
							<asc_sat></asc_sat>
							<lut2></lut2>
						</colorinfo>
						<labels>
							<label2>Purple</label2>
						</labels>
					</clipitem>
					<clipitem id="clipitem-1204">
						<masterclipid>masterclip-497</masterclipid>
						<name>Nested Sequence 468</name>
						<enabled>TRUE</enabled>
						<duration>7503</duration>
						<rate>
							<timebase>25</timebase>
							<ntsc>FALSE</ntsc>
						</rate>
						<start>44235</start>
						<end>44854</end>
						<in>2709</in>
						<out>3328</out>
						<pproTicksIn>27525173760000</pproTicksIn>
						<pproTicksOut>33814609920000</pproTicksOut>
						<sequence id="sequence-92"/>
						<link>
							<linkclipref>clipitem-1204</linkclipref>
							<mediatype>video</mediatype>
							<trackindex>1</trackindex>
							<clipindex>34</clipindex>
						</link>
						<link>
							<linkclipref>clipitem-1434</linkclipref>
							<mediatype>audio</mediatype>
							<trackindex>1</trackindex>
							<clipindex>26</clipindex>
							<groupindex>1</groupindex>
						</link>
						<link>
							<linkclipref>clipitem-1472</linkclipref>
							<mediatype>audio</mediatype>
							<trackindex>2</trackindex>
							<clipindex>26</clipindex>
							<groupindex>1</groupindex>
						</link>
						<labels>
							<label2>Forest</label2>
						</labels>
					</clipitem>
					<clipitem id="clipitem-1205">
						<masterclipid>masterclip-516</masterclipid>
						<name>4_OTB</name>
						<enabled>TRUE</enabled>
						<duration>180</duration>
						<rate>
							<timebase>25</timebase>
							<ntsc>FALSE</ntsc>
						</rate>
						<start>44854</start>
						<end>44929</end>
						<in>0</in>
						<out>180</out>
						<pproTicksIn>0</pproTicksIn>
						<pproTicksOut>1828915200000</pproTicksOut>
						<alphatype>none</alphatype>
						<pixelaspectratio>square</pixelaspectratio>
						<anamorphic>FALSE</anamorphic>
						<file id="file-431">
							<name>NUM_4.mov</name>
							<pathurl>file://localhost/_MUZ_TV/graphika/RU-21/MOD/otb/NUM_4.mov</pathurl>
							<rate>
								<timebase>25</timebase>
								<ntsc>FALSE</ntsc>
							</rate>
							<duration>180</duration>
							<timecode>
								<rate>
									<timebase>25</timebase>
									<ntsc>FALSE</ntsc>
								</rate>
								<string>00:00:00:01</string>
								<frame>1</frame>
								<displayformat>NDF</displayformat>
							</timecode>
							<media>
								<video>
									<samplecharacteristics>
										<rate>
											<timebase>25</timebase>
											<ntsc>FALSE</ntsc>
										</rate>
										<width>1920</width>
										<height>1080</height>
										<anamorphic>FALSE</anamorphic>
										<pixelaspectratio>square</pixelaspectratio>
										<fielddominance>none</fielddominance>
									</samplecharacteristics>
								</video>
							</media>
						</file>
						<filter>
							<effect>
								<name>Basic Motion</name>
								<effectid>basic</effectid>
								<effectcategory>motion</effectcategory>
								<effecttype>motion</effecttype>
								<mediatype>video</mediatype>
								<pproBypass>false</pproBypass>
								<parameter authoringApp="PremierePro">
									<parameterid>scale</parameterid>
									<name>Scale</name>
									<valuemin>0</valuemin>
									<valuemax>1000</valuemax>
									<value>55</value>
								</parameter>
								<parameter authoringApp="PremierePro">
									<parameterid>rotation</parameterid>
									<name>Rotation</name>
									<valuemin>-8640</valuemin>
									<valuemax>8640</valuemax>
									<value>0</value>
								</parameter>
								<parameter authoringApp="PremierePro">
									<parameterid>center</parameterid>
									<name>Center</name>
									<value>
										<horiz>0</horiz>
										<vert>0</vert>
									</value>
								</parameter>
								<parameter authoringApp="PremierePro">
									<parameterid>centerOffset</parameterid>
									<name>Anchor Point</name>
									<value>
										<horiz>0</horiz>
										<vert>0</vert>
									</value>
								</parameter>
								<parameter authoringApp="PremierePro">
									<parameterid>antiflicker</parameterid>
									<name>Anti-flicker Filter</name>
									<valuemin>0.0</valuemin>
									<valuemax>1.0</valuemax>
									<value>0</value>
								</parameter>
							</effect>
						</filter>
						<filter>
							<effect>
								<name>Distort</name>
								<effectid>deformation</effectid>
								<effectcategory>motion</effectcategory>
								<effecttype>motion</effecttype>
								<mediatype>video</mediatype>
								<parameter authoringApp="PremierePro">
									<parameterid>aspect</parameterid>
									<name>Aspect</name>
									<valuemin>-10000</valuemin>
									<valuemax>10000</valuemax>
									<value>-3.12506</value>
								</parameter>
							</effect>
						</filter>
						<logginginfo>
							<description></description>
							<scene></scene>
							<shottake></shottake>
							<lognote></lognote>
							<good></good>
							<originalvideofilename></originalvideofilename>
							<originalaudiofilename></originalaudiofilename>
						</logginginfo>
						<colorinfo>
							<lut></lut>
							<lut1></lut1>
							<asc_sop></asc_sop>
							<asc_sat></asc_sat>
							<lut2></lut2>
						</colorinfo>
						<labels>
							<label2>Violet</label2>
						</labels>
					</clipitem>
					<clipitem id="clipitem-1206">
						<masterclipid>masterclip-517</masterclipid>
						<name>КЛАВА КОКА_ЛА ЛА ЛА___MSWCLP004762.mov</name>
						<enabled>TRUE</enabled>
						<duration>8198</duration>
						<rate>
							<timebase>25</timebase>
							<ntsc>FALSE</ntsc>
						</rate>
						<start>44929</start>
						<end>49028</end>
						<in>0</in>
						<out>4099</out>
						<pproTicksIn>0</pproTicksIn>
						<pproTicksOut>41648463360000</pproTicksOut>
						<alphatype>none</alphatype>
						<pixelaspectratio>PAL-601</pixelaspectratio>
						<anamorphic>TRUE</anamorphic>
						<pproOriginalPAR>square</pproOriginalPAR>
						<pproOriginalIsAnamorphic>FALSE</pproOriginalIsAnamorphic>
						<file id="file-432">
							<name>КЛАВА КОКА_ЛА ЛА ЛА___MSWCLP004762.mov</name>
							<pathurl>file://localhost/Volumes/1Tb/_MUZ_TV/Clips/%d0%9a%d0%9b%d0%90%d0%92%d0%90%20%d0%9a%d0%9e%d0%9a%d0%90_%d0%9b%d0%90%20%d0%9b%d0%90%20%d0%9b%d0%90___MSWCLP004762.mov</pathurl>
							<rate>
								<timebase>50</timebase>
								<ntsc>FALSE</ntsc>
							</rate>
							<duration>8198</duration>
							<timecode>
								<rate>
									<timebase>50</timebase>
									<ntsc>FALSE</ntsc>
								</rate>
								<string>00:00:00:00</string>
								<frame>0</frame>
								<displayformat>NDF</displayformat>
							</timecode>
							<media>
								<video>
									<samplecharacteristics>
										<rate>
											<timebase>50</timebase>
											<ntsc>FALSE</ntsc>
										</rate>
										<width>720</width>
										<height>576</height>
										<anamorphic>TRUE</anamorphic>
										<pixelaspectratio>PAL-601</pixelaspectratio>
										<pproOriginalIsAnamorphic>FALSE</pproOriginalIsAnamorphic>
										<pproOriginalPAR>square</pproOriginalPAR>
										<fielddominance>none</fielddominance>
									</samplecharacteristics>
								</video>
								<audio>
									<samplecharacteristics>
										<depth>16</depth>
										<samplerate>48000</samplerate>
									</samplecharacteristics>
									<channelcount>2</channelcount>
								</audio>
							</media>
						</file>
						<link>
							<linkclipref>clipitem-1206</linkclipref>
							<mediatype>video</mediatype>
							<trackindex>1</trackindex>
							<clipindex>36</clipindex>
						</link>
						<link>
							<linkclipref>clipitem-1435</linkclipref>
							<mediatype>audio</mediatype>
							<trackindex>1</trackindex>
							<clipindex>27</clipindex>
							<groupindex>1</groupindex>
						</link>
						<link>
							<linkclipref>clipitem-1473</linkclipref>
							<mediatype>audio</mediatype>
							<trackindex>2</trackindex>
							<clipindex>27</clipindex>
							<groupindex>1</groupindex>
						</link>
						<logginginfo>
							<description></description>
							<scene></scene>
							<shottake></shottake>
							<lognote></lognote>
							<good></good>
							<originalvideofilename></originalvideofilename>
							<originalaudiofilename></originalaudiofilename>
						</logginginfo>
						<colorinfo>
							<lut></lut>
							<lut1></lut1>
							<asc_sop></asc_sop>
							<asc_sat></asc_sat>
							<lut2></lut2>
						</colorinfo>
						<labels>
							<label2>Iris</label2>
						</labels>
					</clipitem>
					<clipitem id="clipitem-1207">
						<masterclipid>masterclip-501</masterclipid>
						<name>3sek_master</name>
						<enabled>TRUE</enabled>
						<duration>74</duration>
						<rate>
							<timebase>25</timebase>
							<ntsc>FALSE</ntsc>
						</rate>
						<start>49028</start>
						<end>49088</end>
						<in>0</in>
						<out>60</out>
						<pproTicksIn>0</pproTicksIn>
						<pproTicksOut>609638400000</pproTicksOut>
						<alphatype>none</alphatype>
						<file id="file-416"/>
						<filter>
							<effect>
								<name>Basic Motion</name>
								<effectid>basic</effectid>
								<effectcategory>motion</effectcategory>
								<effecttype>motion</effecttype>
								<mediatype>video</mediatype>
								<pproBypass>false</pproBypass>
								<parameter authoringApp="PremierePro">
									<parameterid>scale</parameterid>
									<name>Scale</name>
									<valuemin>0</valuemin>
									<valuemax>1000</valuemax>
									<value>55</value>
								</parameter>
								<parameter authoringApp="PremierePro">
									<parameterid>rotation</parameterid>
									<name>Rotation</name>
									<valuemin>-8640</valuemin>
									<valuemax>8640</valuemax>
									<value>0</value>
								</parameter>
								<parameter authoringApp="PremierePro">
									<parameterid>center</parameterid>
									<name>Center</name>
									<value>
										<horiz>0</horiz>
										<vert>0</vert>
									</value>
								</parameter>
								<parameter authoringApp="PremierePro">
									<parameterid>centerOffset</parameterid>
									<name>Anchor Point</name>
									<value>
										<horiz>0</horiz>
										<vert>0</vert>
									</value>
								</parameter>
								<parameter authoringApp="PremierePro">
									<parameterid>antiflicker</parameterid>
									<name>Anti-flicker Filter</name>
									<valuemin>0.0</valuemin>
									<valuemax>1.0</valuemax>
									<value>0</value>
								</parameter>
							</effect>
						</filter>
						<filter>
							<effect>
								<name>Distort</name>
								<effectid>deformation</effectid>
								<effectcategory>motion</effectcategory>
								<effecttype>motion</effecttype>
								<mediatype>video</mediatype>
								<parameter authoringApp="PremierePro">
									<parameterid>aspect</parameterid>
									<name>Aspect</name>
									<valuemin>-10000</valuemin>
									<valuemax>10000</valuemax>
									<value>-3.125</value>
								</parameter>
							</effect>
						</filter>
						<link>
							<linkclipref>clipitem-1207</linkclipref>
							<mediatype>video</mediatype>
							<trackindex>1</trackindex>
							<clipindex>37</clipindex>
						</link>
						<link>
							<linkclipref>clipitem-1436</linkclipref>
							<mediatype>audio</mediatype>
							<trackindex>1</trackindex>
							<clipindex>28</clipindex>
							<groupindex>1</groupindex>
						</link>
						<link>
							<linkclipref>clipitem-1474</linkclipref>
							<mediatype>audio</mediatype>
							<trackindex>2</trackindex>
							<clipindex>28</clipindex>
							<groupindex>1</groupindex>
						</link>
						<logginginfo>
							<description></description>
							<scene></scene>
							<shottake></shottake>
							<lognote></lognote>
							<good></good>
							<originalvideofilename></originalvideofilename>
							<originalaudiofilename></originalaudiofilename>
						</logginginfo>
						<colorinfo>
							<lut></lut>
							<lut1></lut1>
							<asc_sop></asc_sop>
							<asc_sat></asc_sat>
							<lut2></lut2>
						</colorinfo>
						<labels>
							<label2>Purple</label2>
						</labels>
					</clipitem>
					<clipitem id="clipitem-1208">
						<masterclipid>masterclip-497</masterclipid>
						<name>Nested Sequence 468</name>
						<enabled>TRUE</enabled>
						<duration>7503</duration>
						<rate>
							<timebase>25</timebase>
							<ntsc>FALSE</ntsc>
						</rate>
						<start>49088</start>
						<end>49569</end>
						<in>5164</in>
						<out>5645</out>
						<pproTicksIn>52469544960000</pproTicksIn>
						<pproTicksOut>57356812800000</pproTicksOut>
						<sequence id="sequence-92"/>
						<link>
							<linkclipref>clipitem-1208</linkclipref>
							<mediatype>video</mediatype>
							<trackindex>1</trackindex>
							<clipindex>38</clipindex>
						</link>
						<link>
							<linkclipref>clipitem-1437</linkclipref>
							<mediatype>audio</mediatype>
							<trackindex>1</trackindex>
							<clipindex>29</clipindex>
							<groupindex>1</groupindex>
						</link>
						<link>
							<linkclipref>clipitem-1475</linkclipref>
							<mediatype>audio</mediatype>
							<trackindex>2</trackindex>
							<clipindex>29</clipindex>
							<groupindex>1</groupindex>
						</link>
						<labels>
							<label2>Forest</label2>
						</labels>
					</clipitem>
					<clipitem id="clipitem-1209">
						<masterclipid>masterclip-518</masterclipid>
						<name>3_OTB</name>
						<enabled>TRUE</enabled>
						<duration>180</duration>
						<rate>
							<timebase>25</timebase>
							<ntsc>FALSE</ntsc>
						</rate>
						<start>49569</start>
						<end>49644</end>
						<in>0</in>
						<out>180</out>
						<pproTicksIn>0</pproTicksIn>
						<pproTicksOut>1828915200000</pproTicksOut>
						<alphatype>none</alphatype>
						<pixelaspectratio>square</pixelaspectratio>
						<anamorphic>FALSE</anamorphic>
						<file id="file-433">
							<name>NUM_3.mov</name>
							<pathurl>file://localhost/_MUZ_TV/graphika/RU-21/MOD/otb/NUM_3.mov</pathurl>
							<rate>
								<timebase>25</timebase>
								<ntsc>FALSE</ntsc>
							</rate>
							<duration>180</duration>
							<timecode>
								<rate>
									<timebase>25</timebase>
									<ntsc>FALSE</ntsc>
								</rate>
								<string>00:00:00:01</string>
								<frame>1</frame>
								<displayformat>NDF</displayformat>
							</timecode>
							<media>
								<video>
									<samplecharacteristics>
										<rate>
											<timebase>25</timebase>
											<ntsc>FALSE</ntsc>
										</rate>
										<width>1920</width>
										<height>1080</height>
										<anamorphic>FALSE</anamorphic>
										<pixelaspectratio>square</pixelaspectratio>
										<fielddominance>none</fielddominance>
									</samplecharacteristics>
								</video>
							</media>
						</file>
						<filter>
							<effect>
								<name>Basic Motion</name>
								<effectid>basic</effectid>
								<effectcategory>motion</effectcategory>
								<effecttype>motion</effecttype>
								<mediatype>video</mediatype>
								<pproBypass>false</pproBypass>
								<parameter authoringApp="PremierePro">
									<parameterid>scale</parameterid>
									<name>Scale</name>
									<valuemin>0</valuemin>
									<valuemax>1000</valuemax>
									<value>55</value>
								</parameter>
								<parameter authoringApp="PremierePro">
									<parameterid>rotation</parameterid>
									<name>Rotation</name>
									<valuemin>-8640</valuemin>
									<valuemax>8640</valuemax>
									<value>0</value>
								</parameter>
								<parameter authoringApp="PremierePro">
									<parameterid>center</parameterid>
									<name>Center</name>
									<value>
										<horiz>0</horiz>
										<vert>0</vert>
									</value>
								</parameter>
								<parameter authoringApp="PremierePro">
									<parameterid>centerOffset</parameterid>
									<name>Anchor Point</name>
									<value>
										<horiz>0</horiz>
										<vert>0</vert>
									</value>
								</parameter>
								<parameter authoringApp="PremierePro">
									<parameterid>antiflicker</parameterid>
									<name>Anti-flicker Filter</name>
									<valuemin>0.0</valuemin>
									<valuemax>1.0</valuemax>
									<value>0</value>
								</parameter>
							</effect>
						</filter>
						<filter>
							<effect>
								<name>Distort</name>
								<effectid>deformation</effectid>
								<effectcategory>motion</effectcategory>
								<effecttype>motion</effecttype>
								<mediatype>video</mediatype>
								<parameter authoringApp="PremierePro">
									<parameterid>aspect</parameterid>
									<name>Aspect</name>
									<valuemin>-10000</valuemin>
									<valuemax>10000</valuemax>
									<value>-3.12506</value>
								</parameter>
							</effect>
						</filter>
						<logginginfo>
							<description></description>
							<scene></scene>
							<shottake></shottake>
							<lognote></lognote>
							<good></good>
							<originalvideofilename></originalvideofilename>
							<originalaudiofilename></originalaudiofilename>
						</logginginfo>
						<colorinfo>
							<lut></lut>
							<lut1></lut1>
							<asc_sop></asc_sop>
							<asc_sat></asc_sat>
							<lut2></lut2>
						</colorinfo>
						<labels>
							<label2>Violet</label2>
						</labels>
					</clipitem>
					<clipitem id="clipitem-1210">
						<masterclipid>masterclip-519</masterclipid>
						<name>GAYAZOV$ BROTHER$_МАЛИНОВАЯ ЛАДА___MSWCLP004814.mov</name>
						<enabled>TRUE</enabled>
						<duration>11542</duration>
						<rate>
							<timebase>25</timebase>
							<ntsc>FALSE</ntsc>
						</rate>
						<start>49644</start>
						<end>55170</end>
						<in>245</in>
						<out>5771</out>
						<pproTicksIn>2489356800000</pproTicksIn>
						<pproTicksOut>58637053440000</pproTicksOut>
						<alphatype>none</alphatype>
						<pixelaspectratio>PAL-601</pixelaspectratio>
						<anamorphic>TRUE</anamorphic>
						<pproOriginalPAR>square</pproOriginalPAR>
						<pproOriginalIsAnamorphic>FALSE</pproOriginalIsAnamorphic>
						<file id="file-434">
							<name>GAYAZOV$ BROTHER$_МАЛИНОВАЯ ЛАДА___MSWCLP004814.mov</name>
							<pathurl>file://localhost/Volumes/1Tb/_MUZ_TV/Clips/GAYAZOV$%20BROTHER$_%d0%9c%d0%90%d0%9b%d0%98%d0%9d%d0%9e%d0%92%d0%90%d0%af%20%d0%9b%d0%90%d0%94%d0%90___MSWCLP004814.mov</pathurl>
							<rate>
								<timebase>50</timebase>
								<ntsc>FALSE</ntsc>
							</rate>
							<duration>11542</duration>
							<timecode>
								<rate>
									<timebase>50</timebase>
									<ntsc>FALSE</ntsc>
								</rate>
								<string>00:00:00:00</string>
								<frame>0</frame>
								<displayformat>NDF</displayformat>
							</timecode>
							<media>
								<video>
									<samplecharacteristics>
										<rate>
											<timebase>50</timebase>
											<ntsc>FALSE</ntsc>
										</rate>
										<width>720</width>
										<height>576</height>
										<anamorphic>TRUE</anamorphic>
										<pixelaspectratio>PAL-601</pixelaspectratio>
										<pproOriginalIsAnamorphic>FALSE</pproOriginalIsAnamorphic>
										<pproOriginalPAR>square</pproOriginalPAR>
										<fielddominance>none</fielddominance>
									</samplecharacteristics>
								</video>
								<audio>
									<samplecharacteristics>
										<depth>16</depth>
										<samplerate>48000</samplerate>
									</samplecharacteristics>
									<channelcount>2</channelcount>
								</audio>
							</media>
						</file>
						<link>
							<linkclipref>clipitem-1210</linkclipref>
							<mediatype>video</mediatype>
							<trackindex>1</trackindex>
							<clipindex>40</clipindex>
						</link>
						<link>
							<linkclipref>clipitem-1438</linkclipref>
							<mediatype>audio</mediatype>
							<trackindex>1</trackindex>
							<clipindex>30</clipindex>
							<groupindex>1</groupindex>
						</link>
						<link>
							<linkclipref>clipitem-1476</linkclipref>
							<mediatype>audio</mediatype>
							<trackindex>2</trackindex>
							<clipindex>30</clipindex>
							<groupindex>1</groupindex>
						</link>
						<logginginfo>
							<description></description>
							<scene></scene>
							<shottake></shottake>
							<lognote></lognote>
							<good></good>
							<originalvideofilename></originalvideofilename>
							<originalaudiofilename></originalaudiofilename>
						</logginginfo>
						<colorinfo>
							<lut></lut>
							<lut1></lut1>
							<asc_sop></asc_sop>
							<asc_sat></asc_sat>
							<lut2></lut2>
						</colorinfo>
						<labels>
							<label2>Iris</label2>
						</labels>
					</clipitem>
					<clipitem id="clipitem-1211">
						<masterclipid>masterclip-501</masterclipid>
						<name>3sek_master</name>
						<enabled>TRUE</enabled>
						<duration>74</duration>
						<rate>
							<timebase>25</timebase>
							<ntsc>FALSE</ntsc>
						</rate>
						<start>55170</start>
						<end>55230</end>
						<in>0</in>
						<out>60</out>
						<pproTicksIn>0</pproTicksIn>
						<pproTicksOut>609638400000</pproTicksOut>
						<alphatype>none</alphatype>
						<file id="file-416"/>
						<filter>
							<effect>
								<name>Basic Motion</name>
								<effectid>basic</effectid>
								<effectcategory>motion</effectcategory>
								<effecttype>motion</effecttype>
								<mediatype>video</mediatype>
								<pproBypass>false</pproBypass>
								<parameter authoringApp="PremierePro">
									<parameterid>scale</parameterid>
									<name>Scale</name>
									<valuemin>0</valuemin>
									<valuemax>1000</valuemax>
									<value>55</value>
								</parameter>
								<parameter authoringApp="PremierePro">
									<parameterid>rotation</parameterid>
									<name>Rotation</name>
									<valuemin>-8640</valuemin>
									<valuemax>8640</valuemax>
									<value>0</value>
								</parameter>
								<parameter authoringApp="PremierePro">
									<parameterid>center</parameterid>
									<name>Center</name>
									<value>
										<horiz>0</horiz>
										<vert>0</vert>
									</value>
								</parameter>
								<parameter authoringApp="PremierePro">
									<parameterid>centerOffset</parameterid>
									<name>Anchor Point</name>
									<value>
										<horiz>0</horiz>
										<vert>0</vert>
									</value>
								</parameter>
								<parameter authoringApp="PremierePro">
									<parameterid>antiflicker</parameterid>
									<name>Anti-flicker Filter</name>
									<valuemin>0.0</valuemin>
									<valuemax>1.0</valuemax>
									<value>0</value>
								</parameter>
							</effect>
						</filter>
						<filter>
							<effect>
								<name>Distort</name>
								<effectid>deformation</effectid>
								<effectcategory>motion</effectcategory>
								<effecttype>motion</effecttype>
								<mediatype>video</mediatype>
								<parameter authoringApp="PremierePro">
									<parameterid>aspect</parameterid>
									<name>Aspect</name>
									<valuemin>-10000</valuemin>
									<valuemax>10000</valuemax>
									<value>-3.125</value>
								</parameter>
							</effect>
						</filter>
						<link>
							<linkclipref>clipitem-1211</linkclipref>
							<mediatype>video</mediatype>
							<trackindex>1</trackindex>
							<clipindex>41</clipindex>
						</link>
						<link>
							<linkclipref>clipitem-1439</linkclipref>
							<mediatype>audio</mediatype>
							<trackindex>1</trackindex>
							<clipindex>31</clipindex>
							<groupindex>1</groupindex>
						</link>
						<link>
							<linkclipref>clipitem-1477</linkclipref>
							<mediatype>audio</mediatype>
							<trackindex>2</trackindex>
							<clipindex>31</clipindex>
							<groupindex>1</groupindex>
						</link>
						<logginginfo>
							<description></description>
							<scene></scene>
							<shottake></shottake>
							<lognote></lognote>
							<good></good>
							<originalvideofilename></originalvideofilename>
							<originalaudiofilename></originalaudiofilename>
						</logginginfo>
						<colorinfo>
							<lut></lut>
							<lut1></lut1>
							<asc_sop></asc_sop>
							<asc_sat></asc_sat>
							<lut2></lut2>
						</colorinfo>
						<labels>
							<label2>Purple</label2>
						</labels>
					</clipitem>
					<clipitem id="clipitem-1212">
						<masterclipid>masterclip-497</masterclipid>
						<name>Nested Sequence 468</name>
						<enabled>TRUE</enabled>
						<duration>7503</duration>
						<rate>
							<timebase>25</timebase>
							<ntsc>FALSE</ntsc>
						</rate>
						<start>55230</start>
						<end>55813</end>
						<in>3351</in>
						<out>3934</out>
						<pproTicksIn>34048304640000</pproTicksIn>
						<pproTicksOut>39971957760000</pproTicksOut>
						<sequence id="sequence-92"/>
						<link>
							<linkclipref>clipitem-1212</linkclipref>
							<mediatype>video</mediatype>
							<trackindex>1</trackindex>
							<clipindex>42</clipindex>
						</link>
						<link>
							<linkclipref>clipitem-1440</linkclipref>
							<mediatype>audio</mediatype>
							<trackindex>1</trackindex>
							<clipindex>32</clipindex>
							<groupindex>1</groupindex>
						</link>
						<link>
							<linkclipref>clipitem-1478</linkclipref>
							<mediatype>audio</mediatype>
							<trackindex>2</trackindex>
							<clipindex>32</clipindex>
							<groupindex>1</groupindex>
						</link>
						<labels>
							<label2>Forest</label2>
						</labels>
					</clipitem>
					<clipitem id="clipitem-1213">
						<masterclipid>masterclip-520</masterclipid>
						<name>2_OTB</name>
						<enabled>TRUE</enabled>
						<duration>180</duration>
						<rate>
							<timebase>25</timebase>
							<ntsc>FALSE</ntsc>
						</rate>
						<start>55813</start>
						<end>55888</end>
						<in>0</in>
						<out>180</out>
						<pproTicksIn>0</pproTicksIn>
						<pproTicksOut>1828915200000</pproTicksOut>
						<alphatype>none</alphatype>
						<pixelaspectratio>square</pixelaspectratio>
						<anamorphic>FALSE</anamorphic>
						<file id="file-435">
							<name>NUM_2.mov</name>
							<pathurl>file://localhost/_MUZ_TV/graphika/RU-21/MOD/otb/NUM_2.mov</pathurl>
							<rate>
								<timebase>25</timebase>
								<ntsc>FALSE</ntsc>
							</rate>
							<duration>180</duration>
							<timecode>
								<rate>
									<timebase>25</timebase>
									<ntsc>FALSE</ntsc>
								</rate>
								<string>00:00:00:01</string>
								<frame>1</frame>
								<displayformat>NDF</displayformat>
							</timecode>
							<media>
								<video>
									<samplecharacteristics>
										<rate>
											<timebase>25</timebase>
											<ntsc>FALSE</ntsc>
										</rate>
										<width>1920</width>
										<height>1080</height>
										<anamorphic>FALSE</anamorphic>
										<pixelaspectratio>square</pixelaspectratio>
										<fielddominance>none</fielddominance>
									</samplecharacteristics>
								</video>
							</media>
						</file>
						<filter>
							<effect>
								<name>Basic Motion</name>
								<effectid>basic</effectid>
								<effectcategory>motion</effectcategory>
								<effecttype>motion</effecttype>
								<mediatype>video</mediatype>
								<pproBypass>false</pproBypass>
								<parameter authoringApp="PremierePro">
									<parameterid>scale</parameterid>
									<name>Scale</name>
									<valuemin>0</valuemin>
									<valuemax>1000</valuemax>
									<value>55</value>
								</parameter>
								<parameter authoringApp="PremierePro">
									<parameterid>rotation</parameterid>
									<name>Rotation</name>
									<valuemin>-8640</valuemin>
									<valuemax>8640</valuemax>
									<value>0</value>
								</parameter>
								<parameter authoringApp="PremierePro">
									<parameterid>center</parameterid>
									<name>Center</name>
									<value>
										<horiz>0</horiz>
										<vert>0</vert>
									</value>
								</parameter>
								<parameter authoringApp="PremierePro">
									<parameterid>centerOffset</parameterid>
									<name>Anchor Point</name>
									<value>
										<horiz>0</horiz>
										<vert>0</vert>
									</value>
								</parameter>
								<parameter authoringApp="PremierePro">
									<parameterid>antiflicker</parameterid>
									<name>Anti-flicker Filter</name>
									<valuemin>0.0</valuemin>
									<valuemax>1.0</valuemax>
									<value>0</value>
								</parameter>
							</effect>
						</filter>
						<filter>
							<effect>
								<name>Distort</name>
								<effectid>deformation</effectid>
								<effectcategory>motion</effectcategory>
								<effecttype>motion</effecttype>
								<mediatype>video</mediatype>
								<parameter authoringApp="PremierePro">
									<parameterid>aspect</parameterid>
									<name>Aspect</name>
									<valuemin>-10000</valuemin>
									<valuemax>10000</valuemax>
									<value>-3.12506</value>
								</parameter>
							</effect>
						</filter>
						<logginginfo>
							<description></description>
							<scene></scene>
							<shottake></shottake>
							<lognote></lognote>
							<good></good>
							<originalvideofilename></originalvideofilename>
							<originalaudiofilename></originalaudiofilename>
						</logginginfo>
						<colorinfo>
							<lut></lut>
							<lut1></lut1>
							<asc_sop></asc_sop>
							<asc_sat></asc_sat>
							<lut2></lut2>
						</colorinfo>
						<labels>
							<label2>Violet</label2>
						</labels>
					</clipitem>
					<clipitem id="clipitem-1214">
						<masterclipid>masterclip-521</masterclipid>
						<name>ДАНЯ МИЛОХИН &amp; МУМИЙ ТРОЛЛЬ_БАШНЯ___MSWCLP004828.mov</name>
						<enabled>TRUE</enabled>
						<duration>9870</duration>
						<rate>
							<timebase>25</timebase>
							<ntsc>FALSE</ntsc>
						</rate>
						<start>55888</start>
						<end>60823</end>
						<in>0</in>
						<out>4935</out>
						<pproTicksIn>0</pproTicksIn>
						<pproTicksOut>50142758400000</pproTicksOut>
						<alphatype>none</alphatype>
						<pixelaspectratio>PAL-601</pixelaspectratio>
						<anamorphic>TRUE</anamorphic>
						<pproOriginalPAR>square</pproOriginalPAR>
						<pproOriginalIsAnamorphic>FALSE</pproOriginalIsAnamorphic>
						<file id="file-436">
							<name>ДАНЯ МИЛОХИН &amp; МУМИЙ ТРОЛЛЬ_БАШНЯ___MSWCLP004828.mov</name>
							<pathurl>file://localhost/Volumes/1Tb/_MUZ_TV/Clips/%d0%94%d0%90%d0%9d%d0%af%20%d0%9c%d0%98%d0%9b%d0%9e%d0%a5%d0%98%d0%9d%20&amp;%20%d0%9c%d0%a3%d0%9c%d0%98%d0%98%cc%86%20%d0%a2%d0%a0%d0%9e%d0%9b%d0%9b%d0%ac_%d0%91%d0%90%d0%a8%d0%9d%d0%af___MSWCLP004828.mov</pathurl>
							<rate>
								<timebase>50</timebase>
								<ntsc>FALSE</ntsc>
							</rate>
							<duration>9870</duration>
							<timecode>
								<rate>
									<timebase>50</timebase>
									<ntsc>FALSE</ntsc>
								</rate>
								<string>00:00:00:00</string>
								<frame>0</frame>
								<displayformat>NDF</displayformat>
							</timecode>
							<media>
								<video>
									<samplecharacteristics>
										<rate>
											<timebase>50</timebase>
											<ntsc>FALSE</ntsc>
										</rate>
										<width>720</width>
										<height>576</height>
										<anamorphic>TRUE</anamorphic>
										<pixelaspectratio>PAL-601</pixelaspectratio>
										<pproOriginalIsAnamorphic>FALSE</pproOriginalIsAnamorphic>
										<pproOriginalPAR>square</pproOriginalPAR>
										<fielddominance>none</fielddominance>
									</samplecharacteristics>
								</video>
								<audio>
									<samplecharacteristics>
										<depth>16</depth>
										<samplerate>48000</samplerate>
									</samplecharacteristics>
									<channelcount>2</channelcount>
								</audio>
							</media>
						</file>
						<link>
							<linkclipref>clipitem-1214</linkclipref>
							<mediatype>video</mediatype>
							<trackindex>1</trackindex>
							<clipindex>44</clipindex>
						</link>
						<link>
							<linkclipref>clipitem-1441</linkclipref>
							<mediatype>audio</mediatype>
							<trackindex>1</trackindex>
							<clipindex>33</clipindex>
							<groupindex>1</groupindex>
						</link>
						<link>
							<linkclipref>clipitem-1479</linkclipref>
							<mediatype>audio</mediatype>
							<trackindex>2</trackindex>
							<clipindex>33</clipindex>
							<groupindex>1</groupindex>
						</link>
						<logginginfo>
							<description></description>
							<scene></scene>
							<shottake></shottake>
							<lognote></lognote>
							<good></good>
							<originalvideofilename></originalvideofilename>
							<originalaudiofilename></originalaudiofilename>
						</logginginfo>
						<colorinfo>
							<lut></lut>
							<lut1></lut1>
							<asc_sop></asc_sop>
							<asc_sat></asc_sat>
							<lut2></lut2>
						</colorinfo>
						<labels>
							<label2>Iris</label2>
						</labels>
					</clipitem>
					<clipitem id="clipitem-1215">
						<masterclipid>masterclip-501</masterclipid>
						<name>3sek_master</name>
						<enabled>TRUE</enabled>
						<duration>74</duration>
						<rate>
							<timebase>25</timebase>
							<ntsc>FALSE</ntsc>
						</rate>
						<start>60823</start>
						<end>60883</end>
						<in>0</in>
						<out>60</out>
						<pproTicksIn>0</pproTicksIn>
						<pproTicksOut>609638400000</pproTicksOut>
						<alphatype>none</alphatype>
						<file id="file-416"/>
						<filter>
							<effect>
								<name>Basic Motion</name>
								<effectid>basic</effectid>
								<effectcategory>motion</effectcategory>
								<effecttype>motion</effecttype>
								<mediatype>video</mediatype>
								<pproBypass>false</pproBypass>
								<parameter authoringApp="PremierePro">
									<parameterid>scale</parameterid>
									<name>Scale</name>
									<valuemin>0</valuemin>
									<valuemax>1000</valuemax>
									<value>55</value>
								</parameter>
								<parameter authoringApp="PremierePro">
									<parameterid>rotation</parameterid>
									<name>Rotation</name>
									<valuemin>-8640</valuemin>
									<valuemax>8640</valuemax>
									<value>0</value>
								</parameter>
								<parameter authoringApp="PremierePro">
									<parameterid>center</parameterid>
									<name>Center</name>
									<value>
										<horiz>0</horiz>
										<vert>0</vert>
									</value>
								</parameter>
								<parameter authoringApp="PremierePro">
									<parameterid>centerOffset</parameterid>
									<name>Anchor Point</name>
									<value>
										<horiz>0</horiz>
										<vert>0</vert>
									</value>
								</parameter>
								<parameter authoringApp="PremierePro">
									<parameterid>antiflicker</parameterid>
									<name>Anti-flicker Filter</name>
									<valuemin>0.0</valuemin>
									<valuemax>1.0</valuemax>
									<value>0</value>
								</parameter>
							</effect>
						</filter>
						<filter>
							<effect>
								<name>Distort</name>
								<effectid>deformation</effectid>
								<effectcategory>motion</effectcategory>
								<effecttype>motion</effecttype>
								<mediatype>video</mediatype>
								<parameter authoringApp="PremierePro">
									<parameterid>aspect</parameterid>
									<name>Aspect</name>
									<valuemin>-10000</valuemin>
									<valuemax>10000</valuemax>
									<value>-3.125</value>
								</parameter>
							</effect>
						</filter>
						<link>
							<linkclipref>clipitem-1215</linkclipref>
							<mediatype>video</mediatype>
							<trackindex>1</trackindex>
							<clipindex>45</clipindex>
						</link>
						<link>
							<linkclipref>clipitem-1442</linkclipref>
							<mediatype>audio</mediatype>
							<trackindex>1</trackindex>
							<clipindex>34</clipindex>
							<groupindex>1</groupindex>
						</link>
						<link>
							<linkclipref>clipitem-1480</linkclipref>
							<mediatype>audio</mediatype>
							<trackindex>2</trackindex>
							<clipindex>34</clipindex>
							<groupindex>1</groupindex>
						</link>
						<logginginfo>
							<description></description>
							<scene></scene>
							<shottake></shottake>
							<lognote></lognote>
							<good></good>
							<originalvideofilename></originalvideofilename>
							<originalaudiofilename></originalaudiofilename>
						</logginginfo>
						<colorinfo>
							<lut></lut>
							<lut1></lut1>
							<asc_sop></asc_sop>
							<asc_sat></asc_sat>
							<lut2></lut2>
						</colorinfo>
						<labels>
							<label2>Purple</label2>
						</labels>
					</clipitem>
					<clipitem id="clipitem-1216">
						<masterclipid>masterclip-497</masterclipid>
						<name>Nested Sequence 468</name>
						<enabled>TRUE</enabled>
						<duration>7503</duration>
						<rate>
							<timebase>25</timebase>
							<ntsc>FALSE</ntsc>
						</rate>
						<start>60883</start>
						<end>61365</end>
						<in>6164</in>
						<out>6646</out>
						<pproTicksIn>62630184960000</pproTicksIn>
						<pproTicksOut>67527613440000</pproTicksOut>
						<sequence id="sequence-92"/>
						<link>
							<linkclipref>clipitem-1216</linkclipref>
							<mediatype>video</mediatype>
							<trackindex>1</trackindex>
							<clipindex>46</clipindex>
						</link>
						<link>
							<linkclipref>clipitem-1443</linkclipref>
							<mediatype>audio</mediatype>
							<trackindex>1</trackindex>
							<clipindex>35</clipindex>
							<groupindex>1</groupindex>
						</link>
						<link>
							<linkclipref>clipitem-1481</linkclipref>
							<mediatype>audio</mediatype>
							<trackindex>2</trackindex>
							<clipindex>35</clipindex>
							<groupindex>1</groupindex>
						</link>
						<labels>
							<label2>Forest</label2>
						</labels>
					</clipitem>
					<clipitem id="clipitem-1217">
						<masterclipid>masterclip-522</masterclipid>
						<name>1_OTB</name>
						<enabled>TRUE</enabled>
						<duration>180</duration>
						<rate>
							<timebase>25</timebase>
							<ntsc>FALSE</ntsc>
						</rate>
						<start>61365</start>
						<end>61440</end>
						<in>0</in>
						<out>180</out>
						<pproTicksIn>0</pproTicksIn>
						<pproTicksOut>1828915200000</pproTicksOut>
						<alphatype>none</alphatype>
						<pixelaspectratio>square</pixelaspectratio>
						<anamorphic>FALSE</anamorphic>
						<file id="file-437">
							<name>NUM_1.mov</name>
							<pathurl>file://localhost/_MUZ_TV/graphika/RU-21/MOD/otb/NUM_1.mov</pathurl>
							<rate>
								<timebase>25</timebase>
								<ntsc>FALSE</ntsc>
							</rate>
							<duration>180</duration>
							<timecode>
								<rate>
									<timebase>25</timebase>
									<ntsc>FALSE</ntsc>
								</rate>
								<string>00:00:00:01</string>
								<frame>1</frame>
								<displayformat>NDF</displayformat>
							</timecode>
							<media>
								<video>
									<samplecharacteristics>
										<rate>
											<timebase>25</timebase>
											<ntsc>FALSE</ntsc>
										</rate>
										<width>1920</width>
										<height>1080</height>
										<anamorphic>FALSE</anamorphic>
										<pixelaspectratio>square</pixelaspectratio>
										<fielddominance>none</fielddominance>
									</samplecharacteristics>
								</video>
							</media>
						</file>
						<filter>
							<effect>
								<name>Basic Motion</name>
								<effectid>basic</effectid>
								<effectcategory>motion</effectcategory>
								<effecttype>motion</effecttype>
								<mediatype>video</mediatype>
								<pproBypass>false</pproBypass>
								<parameter authoringApp="PremierePro">
									<parameterid>scale</parameterid>
									<name>Scale</name>
									<valuemin>0</valuemin>
									<valuemax>1000</valuemax>
									<value>55</value>
								</parameter>
								<parameter authoringApp="PremierePro">
									<parameterid>rotation</parameterid>
									<name>Rotation</name>
									<valuemin>-8640</valuemin>
									<valuemax>8640</valuemax>
									<value>0</value>
								</parameter>
								<parameter authoringApp="PremierePro">
									<parameterid>center</parameterid>
									<name>Center</name>
									<value>
										<horiz>0</horiz>
										<vert>0</vert>
									</value>
								</parameter>
								<parameter authoringApp="PremierePro">
									<parameterid>centerOffset</parameterid>
									<name>Anchor Point</name>
									<value>
										<horiz>0</horiz>
										<vert>0</vert>
									</value>
								</parameter>
								<parameter authoringApp="PremierePro">
									<parameterid>antiflicker</parameterid>
									<name>Anti-flicker Filter</name>
									<valuemin>0.0</valuemin>
									<valuemax>1.0</valuemax>
									<value>0</value>
								</parameter>
							</effect>
						</filter>
						<filter>
							<effect>
								<name>Distort</name>
								<effectid>deformation</effectid>
								<effectcategory>motion</effectcategory>
								<effecttype>motion</effecttype>
								<mediatype>video</mediatype>
								<parameter authoringApp="PremierePro">
									<parameterid>aspect</parameterid>
									<name>Aspect</name>
									<valuemin>-10000</valuemin>
									<valuemax>10000</valuemax>
									<value>-3.12506</value>
								</parameter>
							</effect>
						</filter>
						<logginginfo>
							<description></description>
							<scene></scene>
							<shottake></shottake>
							<lognote></lognote>
							<good></good>
							<originalvideofilename></originalvideofilename>
							<originalaudiofilename></originalaudiofilename>
						</logginginfo>
						<colorinfo>
							<lut></lut>
							<lut1></lut1>
							<asc_sop></asc_sop>
							<asc_sat></asc_sat>
							<lut2></lut2>
						</colorinfo>
						<labels>
							<label2>Violet</label2>
						</labels>
					</clipitem>
					<clipitem id="clipitem-1218">
						<masterclipid>masterclip-523</masterclipid>
						<name>ЛЮСЯ ЧЕБОТИНА_СОЛНЦЕ МОНАКО___MSWCLP004812.mov</name>
						<enabled>TRUE</enabled>
						<duration>7794</duration>
						<rate>
							<timebase>25</timebase>
							<ntsc>FALSE</ntsc>
						</rate>
						<start>61440</start>
						<end>65337</end>
						<in>0</in>
						<out>3897</out>
						<pproTicksIn>0</pproTicksIn>
						<pproTicksOut>39596014080000</pproTicksOut>
						<alphatype>none</alphatype>
						<pixelaspectratio>PAL-601</pixelaspectratio>
						<anamorphic>TRUE</anamorphic>
						<pproOriginalPAR>square</pproOriginalPAR>
						<pproOriginalIsAnamorphic>FALSE</pproOriginalIsAnamorphic>
						<file id="file-438">
							<name>ЛЮСЯ ЧЕБОТИНА_СОЛНЦЕ МОНАКО___MSWCLP004812.mov</name>
							<pathurl>file://localhost/Volumes/1Tb/_MUZ_TV/Clips/%d0%9b%d0%ae%d0%a1%d0%af%20%d0%a7%d0%95%d0%91%d0%9e%d0%a2%d0%98%d0%9d%d0%90_%d0%a1%d0%9e%d0%9b%d0%9d%d0%a6%d0%95%20%d0%9c%d0%9e%d0%9d%d0%90%d0%9a%d0%9e___MSWCLP004812.mov</pathurl>
							<rate>
								<timebase>50</timebase>
								<ntsc>FALSE</ntsc>
							</rate>
							<duration>7794</duration>
							<timecode>
								<rate>
									<timebase>50</timebase>
									<ntsc>FALSE</ntsc>
								</rate>
								<string>00:00:00:00</string>
								<frame>0</frame>
								<displayformat>NDF</displayformat>
							</timecode>
							<media>
								<video>
									<samplecharacteristics>
										<rate>
											<timebase>50</timebase>
											<ntsc>FALSE</ntsc>
										</rate>
										<width>720</width>
										<height>576</height>
										<anamorphic>TRUE</anamorphic>
										<pixelaspectratio>PAL-601</pixelaspectratio>
										<pproOriginalIsAnamorphic>FALSE</pproOriginalIsAnamorphic>
										<pproOriginalPAR>square</pproOriginalPAR>
										<fielddominance>none</fielddominance>
									</samplecharacteristics>
								</video>
								<audio>
									<samplecharacteristics>
										<depth>16</depth>
										<samplerate>48000</samplerate>
									</samplecharacteristics>
									<channelcount>2</channelcount>
								</audio>
							</media>
						</file>
						<link>
							<linkclipref>clipitem-1218</linkclipref>
							<mediatype>video</mediatype>
							<trackindex>1</trackindex>
							<clipindex>48</clipindex>
						</link>
						<link>
							<linkclipref>clipitem-1444</linkclipref>
							<mediatype>audio</mediatype>
							<trackindex>1</trackindex>
							<clipindex>36</clipindex>
							<groupindex>1</groupindex>
						</link>
						<link>
							<linkclipref>clipitem-1482</linkclipref>
							<mediatype>audio</mediatype>
							<trackindex>2</trackindex>
							<clipindex>36</clipindex>
							<groupindex>1</groupindex>
						</link>
						<logginginfo>
							<description></description>
							<scene></scene>
							<shottake></shottake>
							<lognote></lognote>
							<good></good>
							<originalvideofilename></originalvideofilename>
							<originalaudiofilename></originalaudiofilename>
						</logginginfo>
						<colorinfo>
							<lut></lut>
							<lut1></lut1>
							<asc_sop></asc_sop>
							<asc_sat></asc_sat>
							<lut2></lut2>
						</colorinfo>
						<labels>
							<label2>Iris</label2>
						</labels>
					</clipitem>
					<clipitem id="clipitem-1219">
						<masterclipid>masterclip-501</masterclipid>
						<name>3sek_master</name>
						<enabled>TRUE</enabled>
						<duration>74</duration>
						<rate>
							<timebase>25</timebase>
							<ntsc>FALSE</ntsc>
						</rate>
						<start>65337</start>
						<end>65397</end>
						<in>0</in>
						<out>60</out>
						<pproTicksIn>0</pproTicksIn>
						<pproTicksOut>609638400000</pproTicksOut>
						<alphatype>none</alphatype>
						<file id="file-416"/>
						<filter>
							<effect>
								<name>Basic Motion</name>
								<effectid>basic</effectid>
								<effectcategory>motion</effectcategory>
								<effecttype>motion</effecttype>
								<mediatype>video</mediatype>
								<pproBypass>false</pproBypass>
								<parameter authoringApp="PremierePro">
									<parameterid>scale</parameterid>
									<name>Scale</name>
									<valuemin>0</valuemin>
									<valuemax>1000</valuemax>
									<value>55</value>
								</parameter>
								<parameter authoringApp="PremierePro">
									<parameterid>rotation</parameterid>
									<name>Rotation</name>
									<valuemin>-8640</valuemin>
									<valuemax>8640</valuemax>
									<value>0</value>
								</parameter>
								<parameter authoringApp="PremierePro">
									<parameterid>center</parameterid>
									<name>Center</name>
									<value>
										<horiz>0</horiz>
										<vert>0</vert>
									</value>
								</parameter>
								<parameter authoringApp="PremierePro">
									<parameterid>centerOffset</parameterid>
									<name>Anchor Point</name>
									<value>
										<horiz>0</horiz>
										<vert>0</vert>
									</value>
								</parameter>
								<parameter authoringApp="PremierePro">
									<parameterid>antiflicker</parameterid>
									<name>Anti-flicker Filter</name>
									<valuemin>0.0</valuemin>
									<valuemax>1.0</valuemax>
									<value>0</value>
								</parameter>
							</effect>
						</filter>
						<filter>
							<effect>
								<name>Distort</name>
								<effectid>deformation</effectid>
								<effectcategory>motion</effectcategory>
								<effecttype>motion</effecttype>
								<mediatype>video</mediatype>
								<parameter authoringApp="PremierePro">
									<parameterid>aspect</parameterid>
									<name>Aspect</name>
									<valuemin>-10000</valuemin>
									<valuemax>10000</valuemax>
									<value>-3.125</value>
								</parameter>
							</effect>
						</filter>
						<link>
							<linkclipref>clipitem-1219</linkclipref>
							<mediatype>video</mediatype>
							<trackindex>1</trackindex>
							<clipindex>49</clipindex>
						</link>
						<link>
							<linkclipref>clipitem-1445</linkclipref>
							<mediatype>audio</mediatype>
							<trackindex>1</trackindex>
							<clipindex>37</clipindex>
							<groupindex>1</groupindex>
						</link>
						<link>
							<linkclipref>clipitem-1483</linkclipref>
							<mediatype>audio</mediatype>
							<trackindex>2</trackindex>
							<clipindex>37</clipindex>
							<groupindex>1</groupindex>
						</link>
						<logginginfo>
							<description></description>
							<scene></scene>
							<shottake></shottake>
							<lognote></lognote>
							<good></good>
							<originalvideofilename></originalvideofilename>
							<originalaudiofilename></originalaudiofilename>
						</logginginfo>
						<colorinfo>
							<lut></lut>
							<lut1></lut1>
							<asc_sop></asc_sop>
							<asc_sat></asc_sat>
							<lut2></lut2>
						</colorinfo>
						<labels>
							<label2>Purple</label2>
						</labels>
					</clipitem>
					<clipitem id="clipitem-1220">
						<masterclipid>masterclip-497</masterclipid>
						<name>Nested Sequence 468</name>
						<enabled>TRUE</enabled>
						<duration>7503</duration>
						<rate>
							<timebase>25</timebase>
							<ntsc>FALSE</ntsc>
						</rate>
						<start>65397</start>
						<end>65740</end>
						<in>6707</in>
						<out>7050</out>
						<pproTicksIn>68147412480000</pproTicksIn>
						<pproTicksOut>71632512000000</pproTicksOut>
						<sequence id="sequence-92"/>
						<link>
							<linkclipref>clipitem-1220</linkclipref>
							<mediatype>video</mediatype>
							<trackindex>1</trackindex>
							<clipindex>50</clipindex>
						</link>
						<link>
							<linkclipref>clipitem-1446</linkclipref>
							<mediatype>audio</mediatype>
							<trackindex>1</trackindex>
							<clipindex>38</clipindex>
							<groupindex>1</groupindex>
						</link>
						<link>
							<linkclipref>clipitem-1484</linkclipref>
							<mediatype>audio</mediatype>
							<trackindex>2</trackindex>
							<clipindex>38</clipindex>
							<groupindex>1</groupindex>
						</link>
						<labels>
							<label2>Forest</label2>
						</labels>
					</clipitem>
					<clipitem id="clipitem-1221">
						<masterclipid>masterclip-496</masterclipid>
						<name>MYZ_RusskiyChart_appProRes_v2.mov</name>
						<enabled>TRUE</enabled>
						<duration>299</duration>
						<rate>
							<timebase>25</timebase>
							<ntsc>FALSE</ntsc>
						</rate>
						<start>65740</start>
						<end>66000</end>
						<in>22</in>
						<out>282</out>
						<pproTicksIn>223534080000</pproTicksIn>
						<pproTicksOut>2865300480000</pproTicksOut>
						<alphatype>none</alphatype>
						<file id="file-412"/>
						<filter>
							<effect>
								<name>Basic Motion</name>
								<effectid>basic</effectid>
								<effectcategory>motion</effectcategory>
								<effecttype>motion</effecttype>
								<mediatype>video</mediatype>
								<pproBypass>false</pproBypass>
								<parameter authoringApp="PremierePro">
									<parameterid>scale</parameterid>
									<name>Scale</name>
									<valuemin>0</valuemin>
									<valuemax>1000</valuemax>
									<value>55</value>
								</parameter>
								<parameter authoringApp="PremierePro">
									<parameterid>rotation</parameterid>
									<name>Rotation</name>
									<valuemin>-8640</valuemin>
									<valuemax>8640</valuemax>
									<value>0</value>
								</parameter>
								<parameter authoringApp="PremierePro">
									<parameterid>center</parameterid>
									<name>Center</name>
									<value>
										<horiz>0</horiz>
										<vert>0</vert>
									</value>
								</parameter>
								<parameter authoringApp="PremierePro">
									<parameterid>centerOffset</parameterid>
									<name>Anchor Point</name>
									<value>
										<horiz>0</horiz>
										<vert>0</vert>
									</value>
								</parameter>
								<parameter authoringApp="PremierePro">
									<parameterid>antiflicker</parameterid>
									<name>Anti-flicker Filter</name>
									<valuemin>0.0</valuemin>
									<valuemax>1.0</valuemax>
									<value>0</value>
								</parameter>
							</effect>
						</filter>
						<link>
							<linkclipref>clipitem-1221</linkclipref>
							<mediatype>video</mediatype>
							<trackindex>1</trackindex>
							<clipindex>51</clipindex>
						</link>
						<link>
							<linkclipref>clipitem-1497</linkclipref>
							<mediatype>audio</mediatype>
							<trackindex>3</trackindex>
							<clipindex>13</clipindex>
							<groupindex>1</groupindex>
						</link>
						<link>
							<linkclipref>clipitem-1510</linkclipref>
							<mediatype>audio</mediatype>
							<trackindex>4</trackindex>
							<clipindex>13</clipindex>
							<groupindex>1</groupindex>
						</link>
						<logginginfo>
							<description></description>
							<scene></scene>
							<shottake></shottake>
							<lognote></lognote>
							<good></good>
							<originalvideofilename></originalvideofilename>
							<originalaudiofilename></originalaudiofilename>
						</logginginfo>
						<colorinfo>
							<lut></lut>
							<lut1></lut1>
							<asc_sop></asc_sop>
							<asc_sat></asc_sat>
							<lut2></lut2>
						</colorinfo>
						<labels>
							<label2>Iris</label2>
						</labels>
					</clipitem>
					<enabled>TRUE</enabled>
					<locked>FALSE</locked>
				</track>
				<track TL.SQTrackShy="0" TL.SQTrackExpandedHeight="25" TL.SQTrackExpanded="0" MZ.TrackTargeted="0">
					<clipitem id="clipitem-1222">
						<masterclipid>masterclip-524</masterclipid>
						<name>12_TITLE</name>
						<enabled>TRUE</enabled>
						<duration>475</duration>
						<rate>
							<timebase>25</timebase>
							<ntsc>FALSE</ntsc>
						</rate>
						<start>817</start>
						<end>1167</end>
						<in>0</in>
						<out>475</out>
						<pproTicksIn>0</pproTicksIn>
						<pproTicksOut>4826304000000</pproTicksOut>
						<sequence id="sequence-93" TL.SQAudioVisibleBase="0" TL.SQVideoVisibleBase="0" TL.SQVisibleBaseTime="0" TL.SQAVDividerPosition="0.5" TL.SQHideShyTracks="0" TL.SQHeaderWidth="236" TL.SQDataTrackViewControlState="0" Monitor.ProgramZoomOut="4826304000000" Monitor.ProgramZoomIn="0" TL.SQTimePerPixel="0.024999999999999998" AM.TrackVScrollPosition="0" AM.TrackScrollPosition="0" MZ.EditLine="1473292800000" MZ.Sequence.PreviewFrameSizeHeight="576" MZ.Sequence.PreviewFrameSizeWidth="720" MZ.Sequence.AudioTimeDisplayFormat="200" MZ.Sequence.PreviewRenderingClassID="1061109567" MZ.Sequence.PreviewRenderingPresetCodec="1685480304" MZ.Sequence.PreviewRenderingPresetPath="EncoderPresets/SequencePreview/04be6e19-a018-4e0c-a9d6-0ab44c64752b/QuickTime DV PAL.epr" MZ.Sequence.PreviewUseMaxRenderQuality="false" MZ.Sequence.PreviewUseMaxBitDepth="false" MZ.Sequence.EditingModeGUID="04be6e19-a018-4e0c-a9d6-0ab44c64752b" MZ.Sequence.VideoTimeDisplayFormat="101" MZ.WorkOutPoint="4826304000000" MZ.WorkInPoint="0" MZ.ZeroPoint="0">
							<duration>475</duration>
							<rate>
								<timebase>25</timebase>
								<ntsc>FALSE</ntsc>
							</rate>
							<name>титр</name>
							<media>
								<video>
									<format>
										<samplecharacteristics>
											<rate>
												<timebase>25</timebase>
												<ntsc>FALSE</ntsc>
											</rate>
											<codec>
												<name>Apple ProRes 422</name>
												<appspecificdata>
													<appname>Final Cut Pro</appname>
													<appmanufacturer>Apple Inc.</appmanufacturer>
													<appversion>7.0</appversion>
													<data>
														<qtcodec>
															<codecname>Apple ProRes 422</codecname>
															<codectypename>Apple ProRes 422</codectypename>
															<codectypecode>apcn</codectypecode>
															<codecvendorcode>appl</codecvendorcode>
															<spatialquality>1024</spatialquality>
															<temporalquality>0</temporalquality>
															<keyframerate>0</keyframerate>
															<datarate>0</datarate>
														</qtcodec>
													</data>
												</appspecificdata>
											</codec>
											<width>720</width>
											<height>576</height>
											<anamorphic>TRUE</anamorphic>
											<pixelaspectratio>PAL-601</pixelaspectratio>
											<fielddominance>lower</fielddominance>
											<colordepth>24</colordepth>
										</samplecharacteristics>
									</format>
									<track TL.SQTrackShy="0" TL.SQTrackExpandedHeight="25" TL.SQTrackExpanded="0" MZ.TrackTargeted="1">
										<clipitem id="clipitem-1223">
											<masterclipid>masterclip-525</masterclipid>
											<name>9_title.mov</name>
											<enabled>TRUE</enabled>
											<duration>225</duration>
											<rate>
												<timebase>25</timebase>
												<ntsc>FALSE</ntsc>
											</rate>
											<start>125</start>
											<end>350</end>
											<in>0</in>
											<out>225</out>
											<pproTicksIn>0</pproTicksIn>
											<pproTicksOut>2286144000000</pproTicksOut>
											<alphatype>straight</alphatype>
											<pixelaspectratio>square</pixelaspectratio>
											<anamorphic>FALSE</anamorphic>
											<file id="file-439">
												<name>0_title.mov</name>
												<pathurl>file://localhost/_MUZ_TV/graphika/RU-21/MOD/title_plashka/0_title.mov</pathurl>
												<rate>
													<timebase>25</timebase>
													<ntsc>FALSE</ntsc>
												</rate>
												<duration>225</duration>
												<timecode>
													<rate>
														<timebase>25</timebase>
														<ntsc>FALSE</ntsc>
													</rate>
													<string>00:00:01:00</string>
													<frame>25</frame>
													<displayformat>NDF</displayformat>
												</timecode>
												<media>
													<video>
														<samplecharacteristics>
															<rate>
																<timebase>25</timebase>
																<ntsc>FALSE</ntsc>
															</rate>
															<width>1920</width>
															<height>1080</height>
															<anamorphic>FALSE</anamorphic>
															<pixelaspectratio>square</pixelaspectratio>
															<fielddominance>none</fielddominance>
														</samplecharacteristics>
													</video>
												</media>
											</file>
											<filter>
												<effect>
													<name>Basic Motion</name>
													<effectid>basic</effectid>
													<effectcategory>motion</effectcategory>
													<effecttype>motion</effecttype>
													<mediatype>video</mediatype>
													<pproBypass>false</pproBypass>
													<parameter authoringApp="PremierePro">
														<parameterid>scale</parameterid>
														<name>Scale</name>
														<valuemin>0</valuemin>
														<valuemax>1000</valuemax>
														<value>55</value>
													</parameter>
													<parameter authoringApp="PremierePro">
														<parameterid>rotation</parameterid>
														<name>Rotation</name>
														<valuemin>-8640</valuemin>
														<valuemax>8640</valuemax>
														<value>0</value>
													</parameter>
													<parameter authoringApp="PremierePro">
														<parameterid>center</parameterid>
														<name>Center</name>
														<value>
															<horiz>0</horiz>
															<vert>0</vert>
														</value>
													</parameter>
													<parameter authoringApp="PremierePro">
														<parameterid>centerOffset</parameterid>
														<name>Anchor Point</name>
														<value>
															<horiz>0</horiz>
															<vert>0</vert>
														</value>
													</parameter>
													<parameter authoringApp="PremierePro">
														<parameterid>antiflicker</parameterid>
														<name>Anti-flicker Filter</name>
														<valuemin>0.0</valuemin>
														<valuemax>1.0</valuemax>
														<value>0</value>
													</parameter>
												</effect>
											</filter>
											<filter>
												<effect>
													<name>Distort</name>
													<effectid>deformation</effectid>
													<effectcategory>motion</effectcategory>
													<effecttype>motion</effecttype>
													<mediatype>video</mediatype>
													<parameter authoringApp="PremierePro">
														<parameterid>aspect</parameterid>
														<name>Aspect</name>
														<valuemin>-10000</valuemin>
														<valuemax>10000</valuemax>
														<value>-3.12506</value>
													</parameter>
												</effect>
											</filter>
											<logginginfo>
												<description></description>
												<scene></scene>
												<shottake></shottake>
												<lognote></lognote>
												<good></good>
												<originalvideofilename></originalvideofilename>
												<originalaudiofilename></originalaudiofilename>
											</logginginfo>
											<colorinfo>
												<lut></lut>
												<lut1></lut1>
												<asc_sop></asc_sop>
												<asc_sat></asc_sat>
												<lut2></lut2>
											</colorinfo>
											<labels>
												<label2>Violet</label2>
											</labels>
										</clipitem>
										<clipitem id="clipitem-1224">
											<masterclipid>masterclip-526</masterclipid>
											<name>Graphic</name>
											<enabled>FALSE</enabled>
											<duration>1080000</duration>
											<rate>
												<timebase>25</timebase>
												<ntsc>FALSE</ntsc>
											</rate>
											<start>350</start>
											<end>475</end>
											<in>90000</in>
											<out>90125</out>
											<pproTicksIn>914457600000000</pproTicksIn>
											<pproTicksOut>915727680000000</pproTicksOut>
											<alphatype>straight</alphatype>
											<pixelaspectratio>PAL-601</pixelaspectratio>
											<anamorphic>TRUE</anamorphic>
											<file id="file-440">
												<name>Graphic</name>
												<mediaSource>GraphicAndType</mediaSource>
												<rate>
													<timebase>30</timebase>
													<ntsc>TRUE</ntsc>
												</rate>
												<timecode>
													<rate>
														<timebase>30</timebase>
														<ntsc>TRUE</ntsc>
													</rate>
													<string>00;00;00;00</string>
													<frame>0</frame>
													<displayformat>DF</displayformat>
												</timecode>
												<media>
													<video>
														<samplecharacteristics>
															<rate>
																<timebase>30</timebase>
																<ntsc>TRUE</ntsc>
															</rate>
															<width>720</width>
															<height>576</height>
															<anamorphic>TRUE</anamorphic>
															<pixelaspectratio>PAL-601</pixelaspectratio>
															<fielddominance>none</fielddominance>
														</samplecharacteristics>
													</video>
												</media>
											</file>
											<filter>
												<effect>
													<name>Basic Motion</name>
													<effectid>basic</effectid>
													<effectcategory>motion</effectcategory>
													<effecttype>motion</effecttype>
													<mediatype>video</mediatype>
													<pproBypass>false</pproBypass>
													<parameter authoringApp="PremierePro">
														<parameterid>scale</parameterid>
														<name>Scale</name>
														<valuemin>0</valuemin>
														<valuemax>1000</valuemax>
														<value>133.333</value>
													</parameter>
													<parameter authoringApp="PremierePro">
														<parameterid>rotation</parameterid>
														<name>Rotation</name>
														<valuemin>-8640</valuemin>
														<valuemax>8640</valuemax>
														<value>0</value>
													</parameter>
													<parameter authoringApp="PremierePro">
														<parameterid>center</parameterid>
														<name>Center</name>
														<value>
															<horiz>0</horiz>
															<vert>0</vert>
														</value>
													</parameter>
													<parameter authoringApp="PremierePro">
														<parameterid>centerOffset</parameterid>
														<name>Anchor Point</name>
														<value>
															<horiz>0</horiz>
															<vert>0</vert>
														</value>
													</parameter>
													<parameter authoringApp="PremierePro">
														<parameterid>antiflicker</parameterid>
														<name>Anti-flicker Filter</name>
														<valuemin>0.0</valuemin>
														<valuemax>1.0</valuemax>
														<value>0</value>
													</parameter>
												</effect>
											</filter>
											<filter>
												<effect>
													<name>Distort</name>
													<effectid>deformation</effectid>
													<effectcategory>motion</effectcategory>
													<effecttype>motion</effecttype>
													<mediatype>video</mediatype>
													<parameter authoringApp="PremierePro">
														<parameterid>aspect</parameterid>
														<name>Aspect</name>
														<valuemin>-10000</valuemin>
														<valuemax>10000</valuemax>
														<value>-33.333</value>
													</parameter>
												</effect>
											</filter>
											<filter>
												<effect>
													<name></name>
													<effectid>GraphicAndType</effectid>
													<effectcategory>graphic</effectcategory>
													<effecttype>filter</effecttype>
													<mediatype>video</mediatype>
													<pproBypass>false</pproBypass>
													<parameter authoringApp="PremierePro">
														<parameterid>1</parameterid>
														<name>Source Text</name>
														<hash>3f0faa81-c1b0-8370-b66c-fa0b000009f1</hash>
													</parameter>
													<parameter authoringApp="PremierePro">
														<parameterid>2</parameterid>
														<name>Transform</name>
														<IsTimeVarying>false</IsTimeVarying>
														<ParameterControlType>11</ParameterControlType>
														<LowerBound>false</LowerBound>
														<UpperBound>false</UpperBound>
														<value>-91445760000000000,false,0,0,0,0,0,0</value>
													</parameter>
													<parameter authoringApp="PremierePro">
														<parameterid>3</parameterid>
														<name>Position</name>
														<IsTimeVarying>false</IsTimeVarying>
														<value>-91445760000000000,0.55605381727218628:0.73039215803146362,0,0,0,0,0,0,5,4,0,0,0,0</value>
													</parameter>
													<parameter authoringApp="PremierePro">
														<parameterid>4</parameterid>
														<name>Scale</name>
														<IsTimeVarying>false</IsTimeVarying>
														<ParameterControlType>2</ParameterControlType>
														<LowerBound>0</LowerBound>
														<UpperBound>4000</UpperBound>
														<value>-91445760000000000,100.,0,0,0,0,0,0</value>
													</parameter>
													<parameter authoringApp="PremierePro">
														<parameterid>5</parameterid>
														<name>Horizontal Scale</name>
														<IsTimeVarying>false</IsTimeVarying>
														<ParameterControlType>2</ParameterControlType>
														<LowerBound>0</LowerBound>
														<UpperBound>4000</UpperBound>
														<value>-91445760000000000,100.,0,0,0,0,0,0</value>
													</parameter>
													<parameter authoringApp="PremierePro">
														<parameterid>6</parameterid>
														<name> </name>
														<IsTimeVarying>false</IsTimeVarying>
														<ParameterControlType>4</ParameterControlType>
														<LowerBound>false</LowerBound>
														<UpperBound>true</UpperBound>
														<value>-91445760000000000,true,0,0,0,0,0,0</value>
													</parameter>
													<parameter authoringApp="PremierePro">
														<parameterid>7</parameterid>
														<name>Rotation</name>
														<IsTimeVarying>false</IsTimeVarying>
														<ParameterControlType>3</ParameterControlType>
														<LowerBound>-32768</LowerBound>
														<UpperBound>32767</UpperBound>
														<value>-91445760000000000,0.,0,0,0,0,0,0</value>
													</parameter>
													<parameter authoringApp="PremierePro">
														<parameterid>8</parameterid>
														<name>Opacity</name>
														<IsTimeVarying>false</IsTimeVarying>
														<ParameterControlType>2</ParameterControlType>
														<LowerBound>0</LowerBound>
														<UpperBound>100</UpperBound>
														<value>-91445760000000000,100.,0,0,0,0,0,0</value>
													</parameter>
													<parameter authoringApp="PremierePro">
														<parameterid>9</parameterid>
														<name>Anchor Point</name>
														<IsTimeVarying>false</IsTimeVarying>
														<value>-91445760000000000,0:0,0,0,0,0,0,0,5,4,0,0,0,0</value>
													</parameter>
													<parameter authoringApp="PremierePro">
														<parameterid>10</parameterid>
														<name></name>
														<IsTimeVarying>false</IsTimeVarying>
														<ParameterControlType>12</ParameterControlType>
														<LowerBound>false</LowerBound>
														<UpperBound>false</UpperBound>
														<value>-91445760000000000,false,0,0,0,0,0,0</value>
													</parameter>
													<parameter authoringApp="PremierePro">
														<parameterid>11</parameterid>
														<name> </name>
														<IsTimeVarying>false</IsTimeVarying>
														<ParameterControlType>8</ParameterControlType>
														<LowerBound>0</LowerBound>
														<UpperBound>32768</UpperBound>
														<value>-91445760000000000,0.,0,0,0,0,0,0</value>
													</parameter>
													<parameter authoringApp="PremierePro">
														<parameterid>12</parameterid>
														<name> </name>
														<IsTimeVarying>false</IsTimeVarying>
														<ParameterControlType>8</ParameterControlType>
														<LowerBound>0</LowerBound>
														<UpperBound>32768</UpperBound>
														<value>-91445760000000000,0.,0,0,0,0,0,0</value>
													</parameter>
													<parameter authoringApp="PremierePro">
														<parameterid>13</parameterid>
														<name>start</name>
														<IsTimeVarying>false</IsTimeVarying>
														<ParameterControlType>8</ParameterControlType>
														<LowerBound>-100</LowerBound>
														<UpperBound>1000000000</UpperBound>
														<value>-91445760000000000,0.,0,0,0,0,0,0</value>
													</parameter>
													<parameter authoringApp="PremierePro">
														<parameterid>14</parameterid>
														<name>end</name>
														<IsTimeVarying>false</IsTimeVarying>
														<ParameterControlType>8</ParameterControlType>
														<LowerBound>-100</LowerBound>
														<UpperBound>1000000000</UpperBound>
														<value>-91445760000000000,0.,0,0,0,0,0,0</value>
													</parameter>
													<parameter authoringApp="PremierePro">
														<parameterid>15</parameterid>
														<name> </name>
														<IsTimeVarying>false</IsTimeVarying>
														<ParameterControlType>4</ParameterControlType>
														<LowerBound>false</LowerBound>
														<UpperBound>true</UpperBound>
														<value>-91445760000000000,false,0,0,0,0,0,0</value>
													</parameter>
													<parameter authoringApp="PremierePro">
														<parameterid>16</parameterid>
														<name> </name>
														<IsTimeVarying>false</IsTimeVarying>
														<ParameterControlType>4</ParameterControlType>
														<LowerBound>false</LowerBound>
														<UpperBound>true</UpperBound>
														<value>-91445760000000000,false,0,0,0,0,0,0</value>
													</parameter>
													<parameter authoringApp="PremierePro">
														<parameterid>17</parameterid>
														<name> </name>
														<IsTimeVarying>false</IsTimeVarying>
														<ParameterControlType>4</ParameterControlType>
														<LowerBound>false</LowerBound>
														<UpperBound>true</UpperBound>
														<value>-91445760000000000,false,0,0,0,0,0,0</value>
													</parameter>
													<parameter authoringApp="PremierePro">
														<parameterid>18</parameterid>
														<name> </name>
														<IsTimeVarying>false</IsTimeVarying>
														<ParameterControlType>4</ParameterControlType>
														<LowerBound>false</LowerBound>
														<UpperBound>true</UpperBound>
														<value>-91445760000000000,false,0,0,0,0,0,0</value>
													</parameter>
													<parameter authoringApp="PremierePro">
														<parameterid>19</parameterid>
														<name>Parent Width</name>
														<IsTimeVarying>false</IsTimeVarying>
														<ParameterControlType>2</ParameterControlType>
														<LowerBound>0</LowerBound>
														<UpperBound>20000</UpperBound>
														<value>-91445760000000000,0.,0,0,0,0,0,0</value>
													</parameter>
													<parameter authoringApp="PremierePro">
														<parameterid>20</parameterid>
														<name>Parent Height</name>
														<IsTimeVarying>false</IsTimeVarying>
														<ParameterControlType>2</ParameterControlType>
														<LowerBound>0</LowerBound>
														<UpperBound>20000</UpperBound>
														<value>-91445760000000000,0.,0,0,0,0,0,0</value>
													</parameter>
													<parameter authoringApp="PremierePro">
														<parameterid>21</parameterid>
														<name>Parent Rotation</name>
														<IsTimeVarying>false</IsTimeVarying>
														<ParameterControlType>3</ParameterControlType>
														<LowerBound>-32768</LowerBound>
														<UpperBound>32767</UpperBound>
														<value>-91445760000000000,0.,0,0,0,0,0,0</value>
													</parameter>
												</effect>
											</filter>
											<logginginfo>
												<description></description>
												<scene></scene>
												<shottake></shottake>
												<lognote></lognote>
												<good></good>
												<originalvideofilename></originalvideofilename>
												<originalaudiofilename></originalaudiofilename>
											</logginginfo>
											<colorinfo>
												<lut></lut>
												<lut1></lut1>
												<asc_sop></asc_sop>
												<asc_sat></asc_sat>
												<lut2></lut2>
											</colorinfo>
										</clipitem>
										<enabled>TRUE</enabled>
										<locked>FALSE</locked>
									</track>
									<track TL.SQTrackShy="0" TL.SQTrackExpandedHeight="25" TL.SQTrackExpanded="0" MZ.TrackTargeted="0">
										<transitionitem>
											<start>167</start>
											<end>224</end>
											<alignment>start-black</alignment>
											<cutPointTicks>0</cutPointTicks>
											<rate>
												<timebase>25</timebase>
												<ntsc>FALSE</ntsc>
											</rate>
											<effect>
												<name>Edge Wipe</name>
												<effectid>Edge Wipe</effectid>
												<effectcategory>Wipe</effectcategory>
												<effecttype>transition</effecttype>
												<mediatype>video</mediatype>
												<wipecode>2</wipecode>
												<wipeaccuracy>100</wipeaccuracy>
												<startratio>0</startratio>
												<endratio>1</endratio>
												<reverse>FALSE</reverse>
												<parameter authoringApp="PremierePro">
													<parameterid>directionofwipe</parameterid>
													<name>Angle</name>
													<valuemin>-360</valuemin>
													<valuemax>360</valuemax>
													<value>90</value>
												</parameter>
											</effect>
										</transitionitem>
										<clipitem id="clipitem-1225">
											<masterclipid>masterclip-527</masterclipid>
											<name>9.png</name>
											<enabled>TRUE</enabled>
											<duration>1080000</duration>
											<rate>
												<timebase>25</timebase>
												<ntsc>FALSE</ntsc>
											</rate>
											<start>-1</start>
											<end>-1</end>
											<in>90042</in>
											<out>90225</out>
											<pproTicksIn>914884346880000</pproTicksIn>
											<pproTicksOut>916743744000000</pproTicksOut>
											<alphatype>straight</alphatype>
											<pixelaspectratio>square</pixelaspectratio>
											<anamorphic>FALSE</anamorphic>
											<file id="file-441">
												<name>12.png</name>
												<pathurl>file://localhost/_MUZ_TV/project_AP/RU/_TITLE/468/12.png</pathurl>
												<rate>
													<timebase>30</timebase>
													<ntsc>TRUE</ntsc>
												</rate>
												<timecode>
													<rate>
														<timebase>30</timebase>
														<ntsc>TRUE</ntsc>
													</rate>
													<string>00;00;00;00</string>
													<frame>0</frame>
													<displayformat>DF</displayformat>
												</timecode>
												<media>
													<video>
														<samplecharacteristics>
															<rate>
																<timebase>30</timebase>
																<ntsc>TRUE</ntsc>
															</rate>
															<width>1920</width>
															<height>1080</height>
															<anamorphic>FALSE</anamorphic>
															<pixelaspectratio>square</pixelaspectratio>
															<fielddominance>none</fielddominance>
														</samplecharacteristics>
													</video>
												</media>
											</file>
											<filter>
												<effect>
													<name>Basic Motion</name>
													<effectid>basic</effectid>
													<effectcategory>motion</effectcategory>
													<effecttype>motion</effecttype>
													<mediatype>video</mediatype>
													<pproBypass>false</pproBypass>
													<parameter authoringApp="PremierePro">
														<parameterid>scale</parameterid>
														<name>Scale</name>
														<valuemin>0</valuemin>
														<valuemax>1000</valuemax>
														<value>53.3333</value>
													</parameter>
													<parameter authoringApp="PremierePro">
														<parameterid>rotation</parameterid>
														<name>Rotation</name>
														<valuemin>-8640</valuemin>
														<valuemax>8640</valuemax>
														<value>0</value>
													</parameter>
													<parameter authoringApp="PremierePro">
														<parameterid>center</parameterid>
														<name>Center</name>
														<value>
															<horiz>0</horiz>
															<vert>0</vert>
														</value>
													</parameter>
													<parameter authoringApp="PremierePro">
														<parameterid>centerOffset</parameterid>
														<name>Anchor Point</name>
														<value>
															<horiz>0</horiz>
															<vert>0</vert>
														</value>
													</parameter>
													<parameter authoringApp="PremierePro">
														<parameterid>antiflicker</parameterid>
														<name>Anti-flicker Filter</name>
														<valuemin>0.0</valuemin>
														<valuemax>1.0</valuemax>
														<value>0</value>
													</parameter>
												</effect>
											</filter>
											<logginginfo>
												<description></description>
												<scene></scene>
												<shottake></shottake>
												<lognote></lognote>
												<good></good>
												<originalvideofilename></originalvideofilename>
												<originalaudiofilename></originalaudiofilename>
											</logginginfo>
											<colorinfo>
												<lut></lut>
												<lut1></lut1>
												<asc_sop></asc_sop>
												<asc_sat></asc_sat>
												<lut2></lut2>
											</colorinfo>
											<labels>
												<label2>Lavender</label2>
											</labels>
										</clipitem>
										<transitionitem>
											<start>328</start>
											<end>350</end>
											<alignment>end-black</alignment>
											<cutPointTicks>223534080000</cutPointTicks>
											<rate>
												<timebase>25</timebase>
												<ntsc>FALSE</ntsc>
											</rate>
											<effect>
												<name>Edge Wipe</name>
												<effectid>Edge Wipe</effectid>
												<effectcategory>Wipe</effectcategory>
												<effecttype>transition</effecttype>
												<mediatype>video</mediatype>
												<wipecode>2</wipecode>
												<wipeaccuracy>100</wipeaccuracy>
												<startratio>0</startratio>
												<endratio>1</endratio>
												<reverse>FALSE</reverse>
												<parameter authoringApp="PremierePro">
													<parameterid>directionofwipe</parameterid>
													<name>Angle</name>
													<valuemin>-360</valuemin>
													<valuemax>360</valuemax>
													<value>90</value>
												</parameter>
											</effect>
										</transitionitem>
										<enabled>TRUE</enabled>
										<locked>FALSE</locked>
									</track>
									<track TL.SQTrackShy="0" TL.SQTrackExpandedHeight="25" TL.SQTrackExpanded="0" MZ.TrackTargeted="0">
										<transitionitem>
											<start>167</start>
											<end>224</end>
											<alignment>start-black</alignment>
											<cutPointTicks>0</cutPointTicks>
											<rate>
												<timebase>25</timebase>
												<ntsc>FALSE</ntsc>
											</rate>
											<effect>
												<name>Edge Wipe</name>
												<effectid>Edge Wipe</effectid>
												<effectcategory>Wipe</effectcategory>
												<effecttype>transition</effecttype>
												<mediatype>video</mediatype>
												<wipecode>2</wipecode>
												<wipeaccuracy>100</wipeaccuracy>
												<startratio>0</startratio>
												<endratio>1</endratio>
												<reverse>FALSE</reverse>
												<parameter authoringApp="PremierePro">
													<parameterid>directionofwipe</parameterid>
													<name>Angle</name>
													<valuemin>-360</valuemin>
													<valuemax>360</valuemax>
													<value>90</value>
												</parameter>
											</effect>
										</transitionitem>
										<clipitem id="clipitem-1226">
											<masterclipid>masterclip-528</masterclipid>
											<name>Graphic</name>
											<enabled>FALSE</enabled>
											<duration>1080000</duration>
											<rate>
												<timebase>25</timebase>
												<ntsc>FALSE</ntsc>
											</rate>
											<start>-1</start>
											<end>-1</end>
											<in>89998</in>
											<out>90181</out>
											<pproTicksIn>914437278720000</pproTicksIn>
											<pproTicksOut>916296675840000</pproTicksOut>
											<alphatype>straight</alphatype>
											<pixelaspectratio>PAL-601</pixelaspectratio>
											<anamorphic>TRUE</anamorphic>
											<file id="file-442">
												<name>Graphic</name>
												<mediaSource>GraphicAndType</mediaSource>
												<rate>
													<timebase>30</timebase>
													<ntsc>TRUE</ntsc>
												</rate>
												<timecode>
													<rate>
														<timebase>30</timebase>
														<ntsc>TRUE</ntsc>
													</rate>
													<string>00;00;00;00</string>
													<frame>0</frame>
													<displayformat>DF</displayformat>
												</timecode>
												<media>
													<video>
														<samplecharacteristics>
															<rate>
																<timebase>30</timebase>
																<ntsc>TRUE</ntsc>
															</rate>
															<width>720</width>
															<height>576</height>
															<anamorphic>TRUE</anamorphic>
															<pixelaspectratio>PAL-601</pixelaspectratio>
															<fielddominance>none</fielddominance>
														</samplecharacteristics>
													</video>
												</media>
											</file>
											<filter>
												<effect>
													<name>АРТУР ПИРОЖКОВ&#13;ЛЕТОМ НА ФИЕСТЕ</name>
													<effectid>GraphicAndType</effectid>
													<effectcategory>graphic</effectcategory>
													<effecttype>filter</effecttype>
													<mediatype>video</mediatype>
													<pproBypass>false</pproBypass>
													<pproExpanded>true</pproExpanded>
													<parameter authoringApp="PremierePro">
														<parameterid>1</parameterid>
														<name>Source Text</name>
														<hash>dc092258-f6b9-fd91-a76f-c3e700000476</hash>
													</parameter>
													<parameter authoringApp="PremierePro">
														<parameterid>2</parameterid>
														<name>Transform</name>
														<IsTimeVarying>false</IsTimeVarying>
														<ParameterControlType>11</ParameterControlType>
														<LowerBound>false</LowerBound>
														<UpperBound>false</UpperBound>
														<value>-91445760000000000,false,0,0,0,0,0,0</value>
													</parameter>
													<parameter authoringApp="PremierePro">
														<parameterid>3</parameterid>
														<name>Position</name>
														<IsTimeVarying>false</IsTimeVarying>
														<value>-91445760000000000,0.36944580078125:0.86468505859375,0,0,0,0,0,0,5,4,0,0,0,0</value>
													</parameter>
													<parameter authoringApp="PremierePro">
														<parameterid>4</parameterid>
														<name>Scale</name>
														<IsTimeVarying>false</IsTimeVarying>
														<ParameterControlType>2</ParameterControlType>
														<LowerBound>0</LowerBound>
														<UpperBound>4000</UpperBound>
														<value>-91445760000000000,100.,0,0,0,0,0,0</value>
													</parameter>
													<parameter authoringApp="PremierePro">
														<parameterid>5</parameterid>
														<name>Horizontal Scale</name>
														<IsTimeVarying>false</IsTimeVarying>
														<ParameterControlType>2</ParameterControlType>
														<LowerBound>0</LowerBound>
														<UpperBound>4000</UpperBound>
														<value>-91445760000000000,100.,0,0,0,0,0,0</value>
													</parameter>
													<parameter authoringApp="PremierePro">
														<parameterid>6</parameterid>
														<name> </name>
														<IsTimeVarying>false</IsTimeVarying>
														<ParameterControlType>4</ParameterControlType>
														<LowerBound>false</LowerBound>
														<UpperBound>true</UpperBound>
														<value>-91445760000000000,true,0,0,0,0,0,0</value>
													</parameter>
													<parameter authoringApp="PremierePro">
														<parameterid>7</parameterid>
														<name>Rotation</name>
														<IsTimeVarying>false</IsTimeVarying>
														<ParameterControlType>3</ParameterControlType>
														<LowerBound>-32768</LowerBound>
														<UpperBound>32767</UpperBound>
														<value>-91445760000000000,0.,0,0,0,0,0,0</value>
													</parameter>
													<parameter authoringApp="PremierePro">
														<parameterid>8</parameterid>
														<name>Opacity</name>
														<IsTimeVarying>false</IsTimeVarying>
														<ParameterControlType>2</ParameterControlType>
														<LowerBound>0</LowerBound>
														<UpperBound>100</UpperBound>
														<value>-91445760000000000,100.,0,0,0,0,0,0</value>
													</parameter>
													<parameter authoringApp="PremierePro">
														<parameterid>9</parameterid>
														<name>Anchor Point</name>
														<IsTimeVarying>false</IsTimeVarying>
														<value>-91445760000000000,0:0,0,0,0,0,0,0,5,4,0,0,0,0</value>
													</parameter>
													<parameter authoringApp="PremierePro">
														<parameterid>10</parameterid>
														<name></name>
														<IsTimeVarying>false</IsTimeVarying>
														<ParameterControlType>12</ParameterControlType>
														<LowerBound>false</LowerBound>
														<UpperBound>false</UpperBound>
														<value>-91445760000000000,false,0,0,0,0,0,0</value>
													</parameter>
													<parameter authoringApp="PremierePro">
														<parameterid>11</parameterid>
														<name> </name>
														<IsTimeVarying>false</IsTimeVarying>
														<ParameterControlType>8</ParameterControlType>
														<LowerBound>0</LowerBound>
														<UpperBound>32768</UpperBound>
														<value>-91445760000000000,0.,0,0,0,0,0,0</value>
													</parameter>
													<parameter authoringApp="PremierePro">
														<parameterid>12</parameterid>
														<name> </name>
														<IsTimeVarying>false</IsTimeVarying>
														<ParameterControlType>8</ParameterControlType>
														<LowerBound>0</LowerBound>
														<UpperBound>32768</UpperBound>
														<value>-91445760000000000,0.,0,0,0,0,0,0</value>
													</parameter>
													<parameter authoringApp="PremierePro">
														<parameterid>13</parameterid>
														<name>start</name>
														<IsTimeVarying>false</IsTimeVarying>
														<ParameterControlType>8</ParameterControlType>
														<LowerBound>-100</LowerBound>
														<UpperBound>1000000000</UpperBound>
														<value>-91445760000000000,30.,0,0,0,0,0,0</value>
													</parameter>
													<parameter authoringApp="PremierePro">
														<parameterid>14</parameterid>
														<name>end</name>
														<IsTimeVarying>false</IsTimeVarying>
														<ParameterControlType>8</ParameterControlType>
														<LowerBound>-100</LowerBound>
														<UpperBound>1000000000</UpperBound>
														<value>-91445760000000000,30.,0,0,0,0,0,0</value>
													</parameter>
													<parameter authoringApp="PremierePro">
														<parameterid>15</parameterid>
														<name> </name>
														<IsTimeVarying>false</IsTimeVarying>
														<ParameterControlType>4</ParameterControlType>
														<LowerBound>false</LowerBound>
														<UpperBound>true</UpperBound>
														<value>-91445760000000000,false,0,0,0,0,0,0</value>
													</parameter>
													<parameter authoringApp="PremierePro">
														<parameterid>16</parameterid>
														<name> </name>
														<IsTimeVarying>false</IsTimeVarying>
														<ParameterControlType>4</ParameterControlType>
														<LowerBound>false</LowerBound>
														<UpperBound>true</UpperBound>
														<value>-91445760000000000,false,0,0,0,0,0,0</value>
													</parameter>
													<parameter authoringApp="PremierePro">
														<parameterid>17</parameterid>
														<name> </name>
														<IsTimeVarying>false</IsTimeVarying>
														<ParameterControlType>4</ParameterControlType>
														<LowerBound>false</LowerBound>
														<UpperBound>true</UpperBound>
														<value>-91445760000000000,false,0,0,0,0,0,0</value>
													</parameter>
													<parameter authoringApp="PremierePro">
														<parameterid>18</parameterid>
														<name> </name>
														<IsTimeVarying>false</IsTimeVarying>
														<ParameterControlType>4</ParameterControlType>
														<LowerBound>false</LowerBound>
														<UpperBound>true</UpperBound>
														<value>-91445760000000000,false,0,0,0,0,0,0</value>
													</parameter>
													<parameter authoringApp="PremierePro">
														<parameterid>19</parameterid>
														<name>Parent Width</name>
														<IsTimeVarying>false</IsTimeVarying>
														<ParameterControlType>2</ParameterControlType>
														<LowerBound>0</LowerBound>
														<UpperBound>20000</UpperBound>
														<value>-91445760000000000,0.,0,0,0,0,0,0</value>
													</parameter>
													<parameter authoringApp="PremierePro">
														<parameterid>20</parameterid>
														<name>Parent Height</name>
														<IsTimeVarying>false</IsTimeVarying>
														<ParameterControlType>2</ParameterControlType>
														<LowerBound>0</LowerBound>
														<UpperBound>20000</UpperBound>
														<value>-91445760000000000,0.,0,0,0,0,0,0</value>
													</parameter>
													<parameter authoringApp="PremierePro">
														<parameterid>21</parameterid>
														<name>Parent Rotation</name>
														<IsTimeVarying>false</IsTimeVarying>
														<ParameterControlType>3</ParameterControlType>
														<LowerBound>-32768</LowerBound>
														<UpperBound>32767</UpperBound>
														<value>-91445760000000000,0.,0,0,0,0,0,0</value>
													</parameter>
												</effect>
											</filter>
											<logginginfo>
												<description></description>
												<scene></scene>
												<shottake></shottake>
												<lognote></lognote>
												<good></good>
												<originalvideofilename></originalvideofilename>
												<originalaudiofilename></originalaudiofilename>
											</logginginfo>
											<colorinfo>
												<lut></lut>
												<lut1></lut1>
												<asc_sop></asc_sop>
												<asc_sat></asc_sat>
												<lut2></lut2>
											</colorinfo>
										</clipitem>
										<transitionitem>
											<start>328</start>
											<end>350</end>
											<alignment>end-black</alignment>
											<cutPointTicks>223534080000</cutPointTicks>
											<rate>
												<timebase>25</timebase>
												<ntsc>FALSE</ntsc>
											</rate>
											<effect>
												<name>Edge Wipe</name>
												<effectid>Edge Wipe</effectid>
												<effectcategory>Wipe</effectcategory>
												<effecttype>transition</effecttype>
												<mediatype>video</mediatype>
												<wipecode>2</wipecode>
												<wipeaccuracy>100</wipeaccuracy>
												<startratio>0</startratio>
												<endratio>1</endratio>
												<reverse>FALSE</reverse>
												<parameter authoringApp="PremierePro">
													<parameterid>directionofwipe</parameterid>
													<name>Angle</name>
													<valuemin>-360</valuemin>
													<valuemax>360</valuemax>
													<value>90</value>
												</parameter>
											</effect>
										</transitionitem>
										<enabled>TRUE</enabled>
										<locked>FALSE</locked>
									</track>
								</video>
								<audio>
									<numOutputChannels>2</numOutputChannels>
									<format>
										<samplecharacteristics>
											<depth>16</depth>
											<samplerate>48000</samplerate>
										</samplecharacteristics>
									</format>
									<outputs>
										<group>
											<index>1</index>
											<numchannels>1</numchannels>
											<downmix>0</downmix>
											<channel>
												<index>1</index>
											</channel>
										</group>
										<group>
											<index>2</index>
											<numchannels>1</numchannels>
											<downmix>0</downmix>
											<channel>
												<index>2</index>
											</channel>
										</group>
									</outputs>
									<track TL.SQTrackAudioKeyframeStyle="0" TL.SQTrackShy="0" TL.SQTrackExpandedHeight="25" TL.SQTrackExpanded="0" MZ.TrackTargeted="1" PannerCurrentValue="0.5" PannerStartKeyframe="-91445760000000000,0.5,0,0,0,0,0,0" PannerName="Balance" currentExplodedTrackIndex="0" totalExplodedTrackCount="2" premiereTrackType="Stereo">
										<enabled>TRUE</enabled>
										<locked>FALSE</locked>
										<outputchannelindex>1</outputchannelindex>
									</track>
									<track TL.SQTrackAudioKeyframeStyle="0" TL.SQTrackShy="0" TL.SQTrackExpandedHeight="25" TL.SQTrackExpanded="0" MZ.TrackTargeted="1" PannerCurrentValue="0.5" PannerStartKeyframe="-91445760000000000,0.5,0,0,0,0,0,0" PannerName="Balance" currentExplodedTrackIndex="1" totalExplodedTrackCount="2" premiereTrackType="Stereo">
										<enabled>TRUE</enabled>
										<locked>FALSE</locked>
										<outputchannelindex>2</outputchannelindex>
									</track>
								</audio>
							</media>
							<timecode>
								<rate>
									<timebase>25</timebase>
									<ntsc>FALSE</ntsc>
								</rate>
								<string>00:00:00:00</string>
								<frame>0</frame>
								<displayformat>NDF</displayformat>
							</timecode>
								<marker>
									<comment></comment>
									<name></name>
									<in>125</in>
									<out>-1</out>
									<pproColor>4280578025</pproColor>
								</marker>
							<logginginfo>
								<description></description>
								<scene></scene>
								<shottake></shottake>
								<lognote></lognote>
								<good></good>
								<originalvideofilename></originalvideofilename>
								<originalaudiofilename></originalaudiofilename>
							</logginginfo>
						</sequence>
							<marker>
								<comment></comment>
								<name></name>
								<in>125</in>
								<out>-1</out>
								<pproColor>4280578025</pproColor>
							</marker>
						<labels>
							<label2>Forest</label2>
						</labels>
					</clipitem>
					<clipitem id="clipitem-1227">
						<masterclipid>masterclip-524</masterclipid>
						<name>12</name>
						<enabled>TRUE</enabled>
						<duration>475</duration>
						<rate>
							<timebase>25</timebase>
							<ntsc>FALSE</ntsc>
						</rate>
						<start>7025</start>
						<end>7376</end>
						<in>124</in>
						<out>475</out>
						<pproTicksIn>1259919360000</pproTicksIn>
						<pproTicksOut>4826304000000</pproTicksOut>
						<sequence id="sequence-93"/>
							<marker>
								<comment></comment>
								<name></name>
								<in>125</in>
								<out>-1</out>
								<pproColor>4280578025</pproColor>
							</marker>
						<labels>
							<label2>Forest</label2>
						</labels>
					</clipitem>
					<clipitem id="clipitem-1228">
						<masterclipid>masterclip-529</masterclipid>
						<name>11_TITLE</name>
						<enabled>TRUE</enabled>
						<duration>475</duration>
						<rate>
							<timebase>25</timebase>
							<ntsc>FALSE</ntsc>
						</rate>
						<start>7886</start>
						<end>8236</end>
						<in>0</in>
						<out>475</out>
						<pproTicksIn>0</pproTicksIn>
						<pproTicksOut>4826304000000</pproTicksOut>
						<sequence id="sequence-94" TL.SQAudioVisibleBase="0" TL.SQVideoVisibleBase="0" TL.SQVisibleBaseTime="0" TL.SQAVDividerPosition="0.5" TL.SQHideShyTracks="0" TL.SQHeaderWidth="236" TL.SQDataTrackViewControlState="0" Monitor.ProgramZoomOut="4826304000000" Monitor.ProgramZoomIn="0" TL.SQTimePerPixel="0.024999999999999998" AM.TrackVScrollPosition="0" AM.TrackScrollPosition="0" MZ.EditLine="1473292800000" MZ.Sequence.PreviewFrameSizeHeight="576" MZ.Sequence.PreviewFrameSizeWidth="720" MZ.Sequence.AudioTimeDisplayFormat="200" MZ.Sequence.PreviewRenderingClassID="1061109567" MZ.Sequence.PreviewRenderingPresetCodec="1685480304" MZ.Sequence.PreviewRenderingPresetPath="EncoderPresets/SequencePreview/04be6e19-a018-4e0c-a9d6-0ab44c64752b/QuickTime DV PAL.epr" MZ.Sequence.PreviewUseMaxRenderQuality="false" MZ.Sequence.PreviewUseMaxBitDepth="false" MZ.Sequence.EditingModeGUID="04be6e19-a018-4e0c-a9d6-0ab44c64752b" MZ.Sequence.VideoTimeDisplayFormat="101" MZ.WorkOutPoint="4826304000000" MZ.WorkInPoint="0" MZ.ZeroPoint="0">
							<duration>475</duration>
							<rate>
								<timebase>25</timebase>
								<ntsc>FALSE</ntsc>
							</rate>
							<name>титр</name>
							<media>
								<video>
									<format>
										<samplecharacteristics>
											<rate>
												<timebase>25</timebase>
												<ntsc>FALSE</ntsc>
											</rate>
											<codec>
												<name>Apple ProRes 422</name>
												<appspecificdata>
													<appname>Final Cut Pro</appname>
													<appmanufacturer>Apple Inc.</appmanufacturer>
													<appversion>7.0</appversion>
													<data>
														<qtcodec>
															<codecname>Apple ProRes 422</codecname>
															<codectypename>Apple ProRes 422</codectypename>
															<codectypecode>apcn</codectypecode>
															<codecvendorcode>appl</codecvendorcode>
															<spatialquality>1024</spatialquality>
															<temporalquality>0</temporalquality>
															<keyframerate>0</keyframerate>
															<datarate>0</datarate>
														</qtcodec>
													</data>
												</appspecificdata>
											</codec>
											<width>720</width>
											<height>576</height>
											<anamorphic>TRUE</anamorphic>
											<pixelaspectratio>PAL-601</pixelaspectratio>
											<fielddominance>lower</fielddominance>
											<colordepth>24</colordepth>
										</samplecharacteristics>
									</format>
									<track TL.SQTrackShy="0" TL.SQTrackExpandedHeight="25" TL.SQTrackExpanded="0" MZ.TrackTargeted="1">
										<clipitem id="clipitem-1229">
											<masterclipid>masterclip-525</masterclipid>
											<name>9_title.mov</name>
											<enabled>TRUE</enabled>
											<duration>225</duration>
											<rate>
												<timebase>25</timebase>
												<ntsc>FALSE</ntsc>
											</rate>
											<start>125</start>
											<end>350</end>
											<in>0</in>
											<out>225</out>
											<pproTicksIn>0</pproTicksIn>
											<pproTicksOut>2286144000000</pproTicksOut>
											<alphatype>straight</alphatype>
											<file id="file-439"/>
											<filter>
												<effect>
													<name>Basic Motion</name>
													<effectid>basic</effectid>
													<effectcategory>motion</effectcategory>
													<effecttype>motion</effecttype>
													<mediatype>video</mediatype>
													<pproBypass>false</pproBypass>
													<parameter authoringApp="PremierePro">
														<parameterid>scale</parameterid>
														<name>Scale</name>
														<valuemin>0</valuemin>
														<valuemax>1000</valuemax>
														<value>55</value>
													</parameter>
													<parameter authoringApp="PremierePro">
														<parameterid>rotation</parameterid>
														<name>Rotation</name>
														<valuemin>-8640</valuemin>
														<valuemax>8640</valuemax>
														<value>0</value>
													</parameter>
													<parameter authoringApp="PremierePro">
														<parameterid>center</parameterid>
														<name>Center</name>
														<value>
															<horiz>0</horiz>
															<vert>0</vert>
														</value>
													</parameter>
													<parameter authoringApp="PremierePro">
														<parameterid>centerOffset</parameterid>
														<name>Anchor Point</name>
														<value>
															<horiz>0</horiz>
															<vert>0</vert>
														</value>
													</parameter>
													<parameter authoringApp="PremierePro">
														<parameterid>antiflicker</parameterid>
														<name>Anti-flicker Filter</name>
														<valuemin>0.0</valuemin>
														<valuemax>1.0</valuemax>
														<value>0</value>
													</parameter>
												</effect>
											</filter>
											<filter>
												<effect>
													<name>Distort</name>
													<effectid>deformation</effectid>
													<effectcategory>motion</effectcategory>
													<effecttype>motion</effecttype>
													<mediatype>video</mediatype>
													<parameter authoringApp="PremierePro">
														<parameterid>aspect</parameterid>
														<name>Aspect</name>
														<valuemin>-10000</valuemin>
														<valuemax>10000</valuemax>
														<value>-3.12506</value>
													</parameter>
												</effect>
											</filter>
											<logginginfo>
												<description></description>
												<scene></scene>
												<shottake></shottake>
												<lognote></lognote>
												<good></good>
												<originalvideofilename></originalvideofilename>
												<originalaudiofilename></originalaudiofilename>
											</logginginfo>
											<colorinfo>
												<lut></lut>
												<lut1></lut1>
												<asc_sop></asc_sop>
												<asc_sat></asc_sat>
												<lut2></lut2>
											</colorinfo>
											<labels>
												<label2>Violet</label2>
											</labels>
										</clipitem>
										<clipitem id="clipitem-1230">
											<masterclipid>masterclip-530</masterclipid>
											<name>Graphic</name>
											<enabled>FALSE</enabled>
											<duration>1080000</duration>
											<rate>
												<timebase>25</timebase>
												<ntsc>FALSE</ntsc>
											</rate>
											<start>350</start>
											<end>475</end>
											<in>90000</in>
											<out>90125</out>
											<pproTicksIn>914457600000000</pproTicksIn>
											<pproTicksOut>915727680000000</pproTicksOut>
											<alphatype>straight</alphatype>
											<pixelaspectratio>PAL-601</pixelaspectratio>
											<anamorphic>TRUE</anamorphic>
											<file id="file-443">
												<name>Graphic</name>
												<mediaSource>GraphicAndType</mediaSource>
												<rate>
													<timebase>30</timebase>
													<ntsc>TRUE</ntsc>
												</rate>
												<timecode>
													<rate>
														<timebase>30</timebase>
														<ntsc>TRUE</ntsc>
													</rate>
													<string>00;00;00;00</string>
													<frame>0</frame>
													<displayformat>DF</displayformat>
												</timecode>
												<media>
													<video>
														<samplecharacteristics>
															<rate>
																<timebase>30</timebase>
																<ntsc>TRUE</ntsc>
															</rate>
															<width>720</width>
															<height>576</height>
															<anamorphic>TRUE</anamorphic>
															<pixelaspectratio>PAL-601</pixelaspectratio>
															<fielddominance>none</fielddominance>
														</samplecharacteristics>
													</video>
												</media>
											</file>
											<filter>
												<effect>
													<name>Basic Motion</name>
													<effectid>basic</effectid>
													<effectcategory>motion</effectcategory>
													<effecttype>motion</effecttype>
													<mediatype>video</mediatype>
													<pproBypass>false</pproBypass>
													<parameter authoringApp="PremierePro">
														<parameterid>scale</parameterid>
														<name>Scale</name>
														<valuemin>0</valuemin>
														<valuemax>1000</valuemax>
														<value>133.333</value>
													</parameter>
													<parameter authoringApp="PremierePro">
														<parameterid>rotation</parameterid>
														<name>Rotation</name>
														<valuemin>-8640</valuemin>
														<valuemax>8640</valuemax>
														<value>0</value>
													</parameter>
													<parameter authoringApp="PremierePro">
														<parameterid>center</parameterid>
														<name>Center</name>
														<value>
															<horiz>0</horiz>
															<vert>0</vert>
														</value>
													</parameter>
													<parameter authoringApp="PremierePro">
														<parameterid>centerOffset</parameterid>
														<name>Anchor Point</name>
														<value>
															<horiz>0</horiz>
															<vert>0</vert>
														</value>
													</parameter>
													<parameter authoringApp="PremierePro">
														<parameterid>antiflicker</parameterid>
														<name>Anti-flicker Filter</name>
														<valuemin>0.0</valuemin>
														<valuemax>1.0</valuemax>
														<value>0</value>
													</parameter>
												</effect>
											</filter>
											<filter>
												<effect>
													<name>Distort</name>
													<effectid>deformation</effectid>
													<effectcategory>motion</effectcategory>
													<effecttype>motion</effecttype>
													<mediatype>video</mediatype>
													<parameter authoringApp="PremierePro">
														<parameterid>aspect</parameterid>
														<name>Aspect</name>
														<valuemin>-10000</valuemin>
														<valuemax>10000</valuemax>
														<value>-33.333</value>
													</parameter>
												</effect>
											</filter>
											<filter>
												<effect>
													<name></name>
													<effectid>GraphicAndType</effectid>
													<effectcategory>graphic</effectcategory>
													<effecttype>filter</effecttype>
													<mediatype>video</mediatype>
													<pproBypass>false</pproBypass>
													<parameter authoringApp="PremierePro">
														<parameterid>1</parameterid>
														<name>Source Text</name>
														<hash>3f0faa81-c1b0-8370-b66c-fa0b000009f1</hash>
													</parameter>
													<parameter authoringApp="PremierePro">
														<parameterid>2</parameterid>
														<name>Transform</name>
														<IsTimeVarying>false</IsTimeVarying>
														<ParameterControlType>11</ParameterControlType>
														<LowerBound>false</LowerBound>
														<UpperBound>false</UpperBound>
														<value>-91445760000000000,false,0,0,0,0,0,0</value>
													</parameter>
													<parameter authoringApp="PremierePro">
														<parameterid>3</parameterid>
														<name>Position</name>
														<IsTimeVarying>false</IsTimeVarying>
														<value>-91445760000000000,0.55605381727218628:0.73039215803146362,0,0,0,0,0,0,5,4,0,0,0,0</value>
													</parameter>
													<parameter authoringApp="PremierePro">
														<parameterid>4</parameterid>
														<name>Scale</name>
														<IsTimeVarying>false</IsTimeVarying>
														<ParameterControlType>2</ParameterControlType>
														<LowerBound>0</LowerBound>
														<UpperBound>4000</UpperBound>
														<value>-91445760000000000,100.,0,0,0,0,0,0</value>
													</parameter>
													<parameter authoringApp="PremierePro">
														<parameterid>5</parameterid>
														<name>Horizontal Scale</name>
														<IsTimeVarying>false</IsTimeVarying>
														<ParameterControlType>2</ParameterControlType>
														<LowerBound>0</LowerBound>
														<UpperBound>4000</UpperBound>
														<value>-91445760000000000,100.,0,0,0,0,0,0</value>
													</parameter>
													<parameter authoringApp="PremierePro">
														<parameterid>6</parameterid>
														<name> </name>
														<IsTimeVarying>false</IsTimeVarying>
														<ParameterControlType>4</ParameterControlType>
														<LowerBound>false</LowerBound>
														<UpperBound>true</UpperBound>
														<value>-91445760000000000,true,0,0,0,0,0,0</value>
													</parameter>
													<parameter authoringApp="PremierePro">
														<parameterid>7</parameterid>
														<name>Rotation</name>
														<IsTimeVarying>false</IsTimeVarying>
														<ParameterControlType>3</ParameterControlType>
														<LowerBound>-32768</LowerBound>
														<UpperBound>32767</UpperBound>
														<value>-91445760000000000,0.,0,0,0,0,0,0</value>
													</parameter>
													<parameter authoringApp="PremierePro">
														<parameterid>8</parameterid>
														<name>Opacity</name>
														<IsTimeVarying>false</IsTimeVarying>
														<ParameterControlType>2</ParameterControlType>
														<LowerBound>0</LowerBound>
														<UpperBound>100</UpperBound>
														<value>-91445760000000000,100.,0,0,0,0,0,0</value>
													</parameter>
													<parameter authoringApp="PremierePro">
														<parameterid>9</parameterid>
														<name>Anchor Point</name>
														<IsTimeVarying>false</IsTimeVarying>
														<value>-91445760000000000,0:0,0,0,0,0,0,0,5,4,0,0,0,0</value>
													</parameter>
													<parameter authoringApp="PremierePro">
														<parameterid>10</parameterid>
														<name></name>
														<IsTimeVarying>false</IsTimeVarying>
														<ParameterControlType>12</ParameterControlType>
														<LowerBound>false</LowerBound>
														<UpperBound>false</UpperBound>
														<value>-91445760000000000,false,0,0,0,0,0,0</value>
													</parameter>
													<parameter authoringApp="PremierePro">
														<parameterid>11</parameterid>
														<name> </name>
														<IsTimeVarying>false</IsTimeVarying>
														<ParameterControlType>8</ParameterControlType>
														<LowerBound>0</LowerBound>
														<UpperBound>32768</UpperBound>
														<value>-91445760000000000,0.,0,0,0,0,0,0</value>
													</parameter>
													<parameter authoringApp="PremierePro">
														<parameterid>12</parameterid>
														<name> </name>
														<IsTimeVarying>false</IsTimeVarying>
														<ParameterControlType>8</ParameterControlType>
														<LowerBound>0</LowerBound>
														<UpperBound>32768</UpperBound>
														<value>-91445760000000000,0.,0,0,0,0,0,0</value>
													</parameter>
													<parameter authoringApp="PremierePro">
														<parameterid>13</parameterid>
														<name>start</name>
														<IsTimeVarying>false</IsTimeVarying>
														<ParameterControlType>8</ParameterControlType>
														<LowerBound>-100</LowerBound>
														<UpperBound>1000000000</UpperBound>
														<value>-91445760000000000,0.,0,0,0,0,0,0</value>
													</parameter>
													<parameter authoringApp="PremierePro">
														<parameterid>14</parameterid>
														<name>end</name>
														<IsTimeVarying>false</IsTimeVarying>
														<ParameterControlType>8</ParameterControlType>
														<LowerBound>-100</LowerBound>
														<UpperBound>1000000000</UpperBound>
														<value>-91445760000000000,0.,0,0,0,0,0,0</value>
													</parameter>
													<parameter authoringApp="PremierePro">
														<parameterid>15</parameterid>
														<name> </name>
														<IsTimeVarying>false</IsTimeVarying>
														<ParameterControlType>4</ParameterControlType>
														<LowerBound>false</LowerBound>
														<UpperBound>true</UpperBound>
														<value>-91445760000000000,false,0,0,0,0,0,0</value>
													</parameter>
													<parameter authoringApp="PremierePro">
														<parameterid>16</parameterid>
														<name> </name>
														<IsTimeVarying>false</IsTimeVarying>
														<ParameterControlType>4</ParameterControlType>
														<LowerBound>false</LowerBound>
														<UpperBound>true</UpperBound>
														<value>-91445760000000000,false,0,0,0,0,0,0</value>
													</parameter>
													<parameter authoringApp="PremierePro">
														<parameterid>17</parameterid>
														<name> </name>
														<IsTimeVarying>false</IsTimeVarying>
														<ParameterControlType>4</ParameterControlType>
														<LowerBound>false</LowerBound>
														<UpperBound>true</UpperBound>
														<value>-91445760000000000,false,0,0,0,0,0,0</value>
													</parameter>
													<parameter authoringApp="PremierePro">
														<parameterid>18</parameterid>
														<name> </name>
														<IsTimeVarying>false</IsTimeVarying>
														<ParameterControlType>4</ParameterControlType>
														<LowerBound>false</LowerBound>
														<UpperBound>true</UpperBound>
														<value>-91445760000000000,false,0,0,0,0,0,0</value>
													</parameter>
													<parameter authoringApp="PremierePro">
														<parameterid>19</parameterid>
														<name>Parent Width</name>
														<IsTimeVarying>false</IsTimeVarying>
														<ParameterControlType>2</ParameterControlType>
														<LowerBound>0</LowerBound>
														<UpperBound>20000</UpperBound>
														<value>-91445760000000000,0.,0,0,0,0,0,0</value>
													</parameter>
													<parameter authoringApp="PremierePro">
														<parameterid>20</parameterid>
														<name>Parent Height</name>
														<IsTimeVarying>false</IsTimeVarying>
														<ParameterControlType>2</ParameterControlType>
														<LowerBound>0</LowerBound>
														<UpperBound>20000</UpperBound>
														<value>-91445760000000000,0.,0,0,0,0,0,0</value>
													</parameter>
													<parameter authoringApp="PremierePro">
														<parameterid>21</parameterid>
														<name>Parent Rotation</name>
														<IsTimeVarying>false</IsTimeVarying>
														<ParameterControlType>3</ParameterControlType>
														<LowerBound>-32768</LowerBound>
														<UpperBound>32767</UpperBound>
														<value>-91445760000000000,0.,0,0,0,0,0,0</value>
													</parameter>
												</effect>
											</filter>
											<logginginfo>
												<description></description>
												<scene></scene>
												<shottake></shottake>
												<lognote></lognote>
												<good></good>
												<originalvideofilename></originalvideofilename>
												<originalaudiofilename></originalaudiofilename>
											</logginginfo>
											<colorinfo>
												<lut></lut>
												<lut1></lut1>
												<asc_sop></asc_sop>
												<asc_sat></asc_sat>
												<lut2></lut2>
											</colorinfo>
										</clipitem>
										<enabled>TRUE</enabled>
										<locked>FALSE</locked>
									</track>
									<track TL.SQTrackShy="0" TL.SQTrackExpandedHeight="25" TL.SQTrackExpanded="0" MZ.TrackTargeted="0">
										<transitionitem>
											<start>167</start>
											<end>224</end>
											<alignment>start-black</alignment>
											<cutPointTicks>0</cutPointTicks>
											<rate>
												<timebase>25</timebase>
												<ntsc>FALSE</ntsc>
											</rate>
											<effect>
												<name>Edge Wipe</name>
												<effectid>Edge Wipe</effectid>
												<effectcategory>Wipe</effectcategory>
												<effecttype>transition</effecttype>
												<mediatype>video</mediatype>
												<wipecode>2</wipecode>
												<wipeaccuracy>100</wipeaccuracy>
												<startratio>0</startratio>
												<endratio>1</endratio>
												<reverse>FALSE</reverse>
												<parameter authoringApp="PremierePro">
													<parameterid>directionofwipe</parameterid>
													<name>Angle</name>
													<valuemin>-360</valuemin>
													<valuemax>360</valuemax>
													<value>90</value>
												</parameter>
											</effect>
										</transitionitem>
										<clipitem id="clipitem-1231">
											<masterclipid>masterclip-531</masterclipid>
											<name>9.png</name>
											<enabled>TRUE</enabled>
											<duration>1080000</duration>
											<rate>
												<timebase>25</timebase>
												<ntsc>FALSE</ntsc>
											</rate>
											<start>-1</start>
											<end>-1</end>
											<in>90042</in>
											<out>90225</out>
											<pproTicksIn>914884346880000</pproTicksIn>
											<pproTicksOut>916743744000000</pproTicksOut>
											<alphatype>straight</alphatype>
											<pixelaspectratio>square</pixelaspectratio>
											<anamorphic>FALSE</anamorphic>
											<file id="file-444">
												<name>11.png</name>
												<pathurl>file://localhost/_MUZ_TV/project_AP/RU/_TITLE/468/11.png</pathurl>
												<rate>
													<timebase>30</timebase>
													<ntsc>TRUE</ntsc>
												</rate>
												<timecode>
													<rate>
														<timebase>30</timebase>
														<ntsc>TRUE</ntsc>
													</rate>
													<string>00;00;00;00</string>
													<frame>0</frame>
													<displayformat>DF</displayformat>
												</timecode>
												<media>
													<video>
														<samplecharacteristics>
															<rate>
																<timebase>30</timebase>
																<ntsc>TRUE</ntsc>
															</rate>
															<width>1920</width>
															<height>1080</height>
															<anamorphic>FALSE</anamorphic>
															<pixelaspectratio>square</pixelaspectratio>
															<fielddominance>none</fielddominance>
														</samplecharacteristics>
													</video>
												</media>
											</file>
											<filter>
												<effect>
													<name>Basic Motion</name>
													<effectid>basic</effectid>
													<effectcategory>motion</effectcategory>
													<effecttype>motion</effecttype>
													<mediatype>video</mediatype>
													<pproBypass>false</pproBypass>
													<parameter authoringApp="PremierePro">
														<parameterid>scale</parameterid>
														<name>Scale</name>
														<valuemin>0</valuemin>
														<valuemax>1000</valuemax>
														<value>53.3333</value>
													</parameter>
													<parameter authoringApp="PremierePro">
														<parameterid>rotation</parameterid>
														<name>Rotation</name>
														<valuemin>-8640</valuemin>
														<valuemax>8640</valuemax>
														<value>0</value>
													</parameter>
													<parameter authoringApp="PremierePro">
														<parameterid>center</parameterid>
														<name>Center</name>
														<value>
															<horiz>0</horiz>
															<vert>0</vert>
														</value>
													</parameter>
													<parameter authoringApp="PremierePro">
														<parameterid>centerOffset</parameterid>
														<name>Anchor Point</name>
														<value>
															<horiz>0</horiz>
															<vert>0</vert>
														</value>
													</parameter>
													<parameter authoringApp="PremierePro">
														<parameterid>antiflicker</parameterid>
														<name>Anti-flicker Filter</name>
														<valuemin>0.0</valuemin>
														<valuemax>1.0</valuemax>
														<value>0</value>
													</parameter>
												</effect>
											</filter>
											<logginginfo>
												<description></description>
												<scene></scene>
												<shottake></shottake>
												<lognote></lognote>
												<good></good>
												<originalvideofilename></originalvideofilename>
												<originalaudiofilename></originalaudiofilename>
											</logginginfo>
											<colorinfo>
												<lut></lut>
												<lut1></lut1>
												<asc_sop></asc_sop>
												<asc_sat></asc_sat>
												<lut2></lut2>
											</colorinfo>
											<labels>
												<label2>Lavender</label2>
											</labels>
										</clipitem>
										<transitionitem>
											<start>328</start>
											<end>350</end>
											<alignment>end-black</alignment>
											<cutPointTicks>223534080000</cutPointTicks>
											<rate>
												<timebase>25</timebase>
												<ntsc>FALSE</ntsc>
											</rate>
											<effect>
												<name>Edge Wipe</name>
												<effectid>Edge Wipe</effectid>
												<effectcategory>Wipe</effectcategory>
												<effecttype>transition</effecttype>
												<mediatype>video</mediatype>
												<wipecode>2</wipecode>
												<wipeaccuracy>100</wipeaccuracy>
												<startratio>0</startratio>
												<endratio>1</endratio>
												<reverse>FALSE</reverse>
												<parameter authoringApp="PremierePro">
													<parameterid>directionofwipe</parameterid>
													<name>Angle</name>
													<valuemin>-360</valuemin>
													<valuemax>360</valuemax>
													<value>90</value>
												</parameter>
											</effect>
										</transitionitem>
										<enabled>TRUE</enabled>
										<locked>FALSE</locked>
									</track>
									<track TL.SQTrackShy="0" TL.SQTrackExpandedHeight="25" TL.SQTrackExpanded="0" MZ.TrackTargeted="0">
										<transitionitem>
											<start>167</start>
											<end>224</end>
											<alignment>start-black</alignment>
											<cutPointTicks>0</cutPointTicks>
											<rate>
												<timebase>25</timebase>
												<ntsc>FALSE</ntsc>
											</rate>
											<effect>
												<name>Edge Wipe</name>
												<effectid>Edge Wipe</effectid>
												<effectcategory>Wipe</effectcategory>
												<effecttype>transition</effecttype>
												<mediatype>video</mediatype>
												<wipecode>2</wipecode>
												<wipeaccuracy>100</wipeaccuracy>
												<startratio>0</startratio>
												<endratio>1</endratio>
												<reverse>FALSE</reverse>
												<parameter authoringApp="PremierePro">
													<parameterid>directionofwipe</parameterid>
													<name>Angle</name>
													<valuemin>-360</valuemin>
													<valuemax>360</valuemax>
													<value>90</value>
												</parameter>
											</effect>
										</transitionitem>
										<clipitem id="clipitem-1232">
											<masterclipid>masterclip-532</masterclipid>
											<name>Graphic</name>
											<enabled>FALSE</enabled>
											<duration>1080000</duration>
											<rate>
												<timebase>25</timebase>
												<ntsc>FALSE</ntsc>
											</rate>
											<start>-1</start>
											<end>-1</end>
											<in>89998</in>
											<out>90181</out>
											<pproTicksIn>914437278720000</pproTicksIn>
											<pproTicksOut>916296675840000</pproTicksOut>
											<alphatype>straight</alphatype>
											<pixelaspectratio>PAL-601</pixelaspectratio>
											<anamorphic>TRUE</anamorphic>
											<file id="file-445">
												<name>Graphic</name>
												<mediaSource>GraphicAndType</mediaSource>
												<rate>
													<timebase>30</timebase>
													<ntsc>TRUE</ntsc>
												</rate>
												<timecode>
													<rate>
														<timebase>30</timebase>
														<ntsc>TRUE</ntsc>
													</rate>
													<string>00;00;00;00</string>
													<frame>0</frame>
													<displayformat>DF</displayformat>
												</timecode>
												<media>
													<video>
														<samplecharacteristics>
															<rate>
																<timebase>30</timebase>
																<ntsc>TRUE</ntsc>
															</rate>
															<width>720</width>
															<height>576</height>
															<anamorphic>TRUE</anamorphic>
															<pixelaspectratio>PAL-601</pixelaspectratio>
															<fielddominance>none</fielddominance>
														</samplecharacteristics>
													</video>
												</media>
											</file>
											<filter>
												<effect>
													<name>АРТУР ПИРОЖКОВ&#13;ЛЕТОМ НА ФИЕСТЕ</name>
													<effectid>GraphicAndType</effectid>
													<effectcategory>graphic</effectcategory>
													<effecttype>filter</effecttype>
													<mediatype>video</mediatype>
													<pproBypass>false</pproBypass>
													<pproExpanded>true</pproExpanded>
													<parameter authoringApp="PremierePro">
														<parameterid>1</parameterid>
														<name>Source Text</name>
														<hash>dc092258-f6b9-fd91-a76f-c3e700000476</hash>
													</parameter>
													<parameter authoringApp="PremierePro">
														<parameterid>2</parameterid>
														<name>Transform</name>
														<IsTimeVarying>false</IsTimeVarying>
														<ParameterControlType>11</ParameterControlType>
														<LowerBound>false</LowerBound>
														<UpperBound>false</UpperBound>
														<value>-91445760000000000,false,0,0,0,0,0,0</value>
													</parameter>
													<parameter authoringApp="PremierePro">
														<parameterid>3</parameterid>
														<name>Position</name>
														<IsTimeVarying>false</IsTimeVarying>
														<value>-91445760000000000,0.36944580078125:0.86468505859375,0,0,0,0,0,0,5,4,0,0,0,0</value>
													</parameter>
													<parameter authoringApp="PremierePro">
														<parameterid>4</parameterid>
														<name>Scale</name>
														<IsTimeVarying>false</IsTimeVarying>
														<ParameterControlType>2</ParameterControlType>
														<LowerBound>0</LowerBound>
														<UpperBound>4000</UpperBound>
														<value>-91445760000000000,100.,0,0,0,0,0,0</value>
													</parameter>
													<parameter authoringApp="PremierePro">
														<parameterid>5</parameterid>
														<name>Horizontal Scale</name>
														<IsTimeVarying>false</IsTimeVarying>
														<ParameterControlType>2</ParameterControlType>
														<LowerBound>0</LowerBound>
														<UpperBound>4000</UpperBound>
														<value>-91445760000000000,100.,0,0,0,0,0,0</value>
													</parameter>
													<parameter authoringApp="PremierePro">
														<parameterid>6</parameterid>
														<name> </name>
														<IsTimeVarying>false</IsTimeVarying>
														<ParameterControlType>4</ParameterControlType>
														<LowerBound>false</LowerBound>
														<UpperBound>true</UpperBound>
														<value>-91445760000000000,true,0,0,0,0,0,0</value>
													</parameter>
													<parameter authoringApp="PremierePro">
														<parameterid>7</parameterid>
														<name>Rotation</name>
														<IsTimeVarying>false</IsTimeVarying>
														<ParameterControlType>3</ParameterControlType>
														<LowerBound>-32768</LowerBound>
														<UpperBound>32767</UpperBound>
														<value>-91445760000000000,0.,0,0,0,0,0,0</value>
													</parameter>
													<parameter authoringApp="PremierePro">
														<parameterid>8</parameterid>
														<name>Opacity</name>
														<IsTimeVarying>false</IsTimeVarying>
														<ParameterControlType>2</ParameterControlType>
														<LowerBound>0</LowerBound>
														<UpperBound>100</UpperBound>
														<value>-91445760000000000,100.,0,0,0,0,0,0</value>
													</parameter>
													<parameter authoringApp="PremierePro">
														<parameterid>9</parameterid>
														<name>Anchor Point</name>
														<IsTimeVarying>false</IsTimeVarying>
														<value>-91445760000000000,0:0,0,0,0,0,0,0,5,4,0,0,0,0</value>
													</parameter>
													<parameter authoringApp="PremierePro">
														<parameterid>10</parameterid>
														<name></name>
														<IsTimeVarying>false</IsTimeVarying>
														<ParameterControlType>12</ParameterControlType>
														<LowerBound>false</LowerBound>
														<UpperBound>false</UpperBound>
														<value>-91445760000000000,false,0,0,0,0,0,0</value>
													</parameter>
													<parameter authoringApp="PremierePro">
														<parameterid>11</parameterid>
														<name> </name>
														<IsTimeVarying>false</IsTimeVarying>
														<ParameterControlType>8</ParameterControlType>
														<LowerBound>0</LowerBound>
														<UpperBound>32768</UpperBound>
														<value>-91445760000000000,0.,0,0,0,0,0,0</value>
													</parameter>
													<parameter authoringApp="PremierePro">
														<parameterid>12</parameterid>
														<name> </name>
														<IsTimeVarying>false</IsTimeVarying>
														<ParameterControlType>8</ParameterControlType>
														<LowerBound>0</LowerBound>
														<UpperBound>32768</UpperBound>
														<value>-91445760000000000,0.,0,0,0,0,0,0</value>
													</parameter>
													<parameter authoringApp="PremierePro">
														<parameterid>13</parameterid>
														<name>start</name>
														<IsTimeVarying>false</IsTimeVarying>
														<ParameterControlType>8</ParameterControlType>
														<LowerBound>-100</LowerBound>
														<UpperBound>1000000000</UpperBound>
														<value>-91445760000000000,30.,0,0,0,0,0,0</value>
													</parameter>
													<parameter authoringApp="PremierePro">
														<parameterid>14</parameterid>
														<name>end</name>
														<IsTimeVarying>false</IsTimeVarying>
														<ParameterControlType>8</ParameterControlType>
														<LowerBound>-100</LowerBound>
														<UpperBound>1000000000</UpperBound>
														<value>-91445760000000000,30.,0,0,0,0,0,0</value>
													</parameter>
													<parameter authoringApp="PremierePro">
														<parameterid>15</parameterid>
														<name> </name>
														<IsTimeVarying>false</IsTimeVarying>
														<ParameterControlType>4</ParameterControlType>
														<LowerBound>false</LowerBound>
														<UpperBound>true</UpperBound>
														<value>-91445760000000000,false,0,0,0,0,0,0</value>
													</parameter>
													<parameter authoringApp="PremierePro">
														<parameterid>16</parameterid>
														<name> </name>
														<IsTimeVarying>false</IsTimeVarying>
														<ParameterControlType>4</ParameterControlType>
														<LowerBound>false</LowerBound>
														<UpperBound>true</UpperBound>
														<value>-91445760000000000,false,0,0,0,0,0,0</value>
													</parameter>
													<parameter authoringApp="PremierePro">
														<parameterid>17</parameterid>
														<name> </name>
														<IsTimeVarying>false</IsTimeVarying>
														<ParameterControlType>4</ParameterControlType>
														<LowerBound>false</LowerBound>
														<UpperBound>true</UpperBound>
														<value>-91445760000000000,false,0,0,0,0,0,0</value>
													</parameter>
													<parameter authoringApp="PremierePro">
														<parameterid>18</parameterid>
														<name> </name>
														<IsTimeVarying>false</IsTimeVarying>
														<ParameterControlType>4</ParameterControlType>
														<LowerBound>false</LowerBound>
														<UpperBound>true</UpperBound>
														<value>-91445760000000000,false,0,0,0,0,0,0</value>
													</parameter>
													<parameter authoringApp="PremierePro">
														<parameterid>19</parameterid>
														<name>Parent Width</name>
														<IsTimeVarying>false</IsTimeVarying>
														<ParameterControlType>2</ParameterControlType>
														<LowerBound>0</LowerBound>
														<UpperBound>20000</UpperBound>
														<value>-91445760000000000,0.,0,0,0,0,0,0</value>
													</parameter>
													<parameter authoringApp="PremierePro">
														<parameterid>20</parameterid>
														<name>Parent Height</name>
														<IsTimeVarying>false</IsTimeVarying>
														<ParameterControlType>2</ParameterControlType>
														<LowerBound>0</LowerBound>
														<UpperBound>20000</UpperBound>
														<value>-91445760000000000,0.,0,0,0,0,0,0</value>
													</parameter>
													<parameter authoringApp="PremierePro">
														<parameterid>21</parameterid>
														<name>Parent Rotation</name>
														<IsTimeVarying>false</IsTimeVarying>
														<ParameterControlType>3</ParameterControlType>
														<LowerBound>-32768</LowerBound>
														<UpperBound>32767</UpperBound>
														<value>-91445760000000000,0.,0,0,0,0,0,0</value>
													</parameter>
												</effect>
											</filter>
											<logginginfo>
												<description></description>
												<scene></scene>
												<shottake></shottake>
												<lognote></lognote>
												<good></good>
												<originalvideofilename></originalvideofilename>
												<originalaudiofilename></originalaudiofilename>
											</logginginfo>
											<colorinfo>
												<lut></lut>
												<lut1></lut1>
												<asc_sop></asc_sop>
												<asc_sat></asc_sat>
												<lut2></lut2>
											</colorinfo>
										</clipitem>
										<transitionitem>
											<start>328</start>
											<end>350</end>
											<alignment>end-black</alignment>
											<cutPointTicks>223534080000</cutPointTicks>
											<rate>
												<timebase>25</timebase>
												<ntsc>FALSE</ntsc>
											</rate>
											<effect>
												<name>Edge Wipe</name>
												<effectid>Edge Wipe</effectid>
												<effectcategory>Wipe</effectcategory>
												<effecttype>transition</effecttype>
												<mediatype>video</mediatype>
												<wipecode>2</wipecode>
												<wipeaccuracy>100</wipeaccuracy>
												<startratio>0</startratio>
												<endratio>1</endratio>
												<reverse>FALSE</reverse>
												<parameter authoringApp="PremierePro">
													<parameterid>directionofwipe</parameterid>
													<name>Angle</name>
													<valuemin>-360</valuemin>
													<valuemax>360</valuemax>
													<value>90</value>
												</parameter>
											</effect>
										</transitionitem>
										<enabled>TRUE</enabled>
										<locked>FALSE</locked>
									</track>
								</video>
								<audio>
									<numOutputChannels>2</numOutputChannels>
									<format>
										<samplecharacteristics>
											<depth>16</depth>
											<samplerate>48000</samplerate>
										</samplecharacteristics>
									</format>
									<outputs>
										<group>
											<index>1</index>
											<numchannels>1</numchannels>
											<downmix>0</downmix>
											<channel>
												<index>1</index>
											</channel>
										</group>
										<group>
											<index>2</index>
											<numchannels>1</numchannels>
											<downmix>0</downmix>
											<channel>
												<index>2</index>
											</channel>
										</group>
									</outputs>
									<track TL.SQTrackAudioKeyframeStyle="0" TL.SQTrackShy="0" TL.SQTrackExpandedHeight="25" TL.SQTrackExpanded="0" MZ.TrackTargeted="1" PannerCurrentValue="0.5" PannerStartKeyframe="-91445760000000000,0.5,0,0,0,0,0,0" PannerName="Balance" currentExplodedTrackIndex="0" totalExplodedTrackCount="2" premiereTrackType="Stereo">
										<enabled>TRUE</enabled>
										<locked>FALSE</locked>
										<outputchannelindex>1</outputchannelindex>
									</track>
									<track TL.SQTrackAudioKeyframeStyle="0" TL.SQTrackShy="0" TL.SQTrackExpandedHeight="25" TL.SQTrackExpanded="0" MZ.TrackTargeted="1" PannerCurrentValue="0.5" PannerStartKeyframe="-91445760000000000,0.5,0,0,0,0,0,0" PannerName="Balance" currentExplodedTrackIndex="1" totalExplodedTrackCount="2" premiereTrackType="Stereo">
										<enabled>TRUE</enabled>
										<locked>FALSE</locked>
										<outputchannelindex>2</outputchannelindex>
									</track>
								</audio>
							</media>
							<timecode>
								<rate>
									<timebase>25</timebase>
									<ntsc>FALSE</ntsc>
								</rate>
								<string>00:00:00:00</string>
								<frame>0</frame>
								<displayformat>NDF</displayformat>
							</timecode>
								<marker>
									<comment></comment>
									<name></name>
									<in>125</in>
									<out>-1</out>
									<pproColor>4280578025</pproColor>
								</marker>
							<logginginfo>
								<description></description>
								<scene></scene>
								<shottake></shottake>
								<lognote></lognote>
								<good></good>
								<originalvideofilename></originalvideofilename>
								<originalaudiofilename></originalaudiofilename>
							</logginginfo>
						</sequence>
							<marker>
								<comment></comment>
								<name></name>
								<in>125</in>
								<out>-1</out>
								<pproColor>4280578025</pproColor>
							</marker>
						<labels>
							<label2>Forest</label2>
						</labels>
					</clipitem>
					<clipitem id="clipitem-1233">
						<masterclipid>masterclip-529</masterclipid>
						<name>11</name>
						<enabled>TRUE</enabled>
						<duration>475</duration>
						<rate>
							<timebase>25</timebase>
							<ntsc>FALSE</ntsc>
						</rate>
						<start>12720</start>
						<end>13071</end>
						<in>124</in>
						<out>475</out>
						<pproTicksIn>1259919360000</pproTicksIn>
						<pproTicksOut>4826304000000</pproTicksOut>
						<sequence id="sequence-94"/>
							<marker>
								<comment></comment>
								<name></name>
								<in>125</in>
								<out>-1</out>
								<pproColor>4280578025</pproColor>
							</marker>
						<labels>
							<label2>Forest</label2>
						</labels>
					</clipitem>
					<clipitem id="clipitem-1234">
						<masterclipid>masterclip-533</masterclipid>
						<name>10_TITLE</name>
						<enabled>TRUE</enabled>
						<duration>475</duration>
						<rate>
							<timebase>25</timebase>
							<ntsc>FALSE</ntsc>
						</rate>
						<start>13679</start>
						<end>14029</end>
						<in>0</in>
						<out>475</out>
						<pproTicksIn>0</pproTicksIn>
						<pproTicksOut>4826304000000</pproTicksOut>
						<sequence id="sequence-95" TL.SQAudioVisibleBase="0" TL.SQVideoVisibleBase="0" TL.SQVisibleBaseTime="0" TL.SQAVDividerPosition="0.5" TL.SQHideShyTracks="0" TL.SQHeaderWidth="236" TL.SQDataTrackViewControlState="0" Monitor.ProgramZoomOut="4826304000000" Monitor.ProgramZoomIn="0" TL.SQTimePerPixel="0.024999999999999998" AM.TrackVScrollPosition="0" AM.TrackScrollPosition="0" MZ.EditLine="1473292800000" MZ.Sequence.PreviewFrameSizeHeight="576" MZ.Sequence.PreviewFrameSizeWidth="720" MZ.Sequence.AudioTimeDisplayFormat="200" MZ.Sequence.PreviewRenderingClassID="1061109567" MZ.Sequence.PreviewRenderingPresetCodec="1685480304" MZ.Sequence.PreviewRenderingPresetPath="EncoderPresets/SequencePreview/04be6e19-a018-4e0c-a9d6-0ab44c64752b/QuickTime DV PAL.epr" MZ.Sequence.PreviewUseMaxRenderQuality="false" MZ.Sequence.PreviewUseMaxBitDepth="false" MZ.Sequence.EditingModeGUID="04be6e19-a018-4e0c-a9d6-0ab44c64752b" MZ.Sequence.VideoTimeDisplayFormat="101" MZ.WorkOutPoint="4826304000000" MZ.WorkInPoint="0" MZ.ZeroPoint="0">
							<duration>475</duration>
							<rate>
								<timebase>25</timebase>
								<ntsc>FALSE</ntsc>
							</rate>
							<name>титр</name>
							<media>
								<video>
									<format>
										<samplecharacteristics>
											<rate>
												<timebase>25</timebase>
												<ntsc>FALSE</ntsc>
											</rate>
											<codec>
												<name>Apple ProRes 422</name>
												<appspecificdata>
													<appname>Final Cut Pro</appname>
													<appmanufacturer>Apple Inc.</appmanufacturer>
													<appversion>7.0</appversion>
													<data>
														<qtcodec>
															<codecname>Apple ProRes 422</codecname>
															<codectypename>Apple ProRes 422</codectypename>
															<codectypecode>apcn</codectypecode>
															<codecvendorcode>appl</codecvendorcode>
															<spatialquality>1024</spatialquality>
															<temporalquality>0</temporalquality>
															<keyframerate>0</keyframerate>
															<datarate>0</datarate>
														</qtcodec>
													</data>
												</appspecificdata>
											</codec>
											<width>720</width>
											<height>576</height>
											<anamorphic>TRUE</anamorphic>
											<pixelaspectratio>PAL-601</pixelaspectratio>
											<fielddominance>lower</fielddominance>
											<colordepth>24</colordepth>
										</samplecharacteristics>
									</format>
									<track TL.SQTrackShy="0" TL.SQTrackExpandedHeight="25" TL.SQTrackExpanded="0" MZ.TrackTargeted="1">
										<clipitem id="clipitem-1235">
											<masterclipid>masterclip-534</masterclipid>
											<name>9_title.mov</name>
											<enabled>TRUE</enabled>
											<duration>225</duration>
											<rate>
												<timebase>25</timebase>
												<ntsc>FALSE</ntsc>
											</rate>
											<start>125</start>
											<end>350</end>
											<in>0</in>
											<out>225</out>
											<pproTicksIn>0</pproTicksIn>
											<pproTicksOut>2286144000000</pproTicksOut>
											<alphatype>straight</alphatype>
											<pixelaspectratio>square</pixelaspectratio>
											<anamorphic>FALSE</anamorphic>
											<file id="file-446">
												<name>10_title.mov</name>
												<pathurl>file://localhost/_MUZ_TV/graphika/RU-21/MOD/title_plashka/10_title.mov</pathurl>
												<rate>
													<timebase>25</timebase>
													<ntsc>FALSE</ntsc>
												</rate>
												<duration>225</duration>
												<timecode>
													<rate>
														<timebase>25</timebase>
														<ntsc>FALSE</ntsc>
													</rate>
													<string>00:00:00:00</string>
													<frame>0</frame>
													<displayformat>NDF</displayformat>
												</timecode>
												<media>
													<video>
														<samplecharacteristics>
															<rate>
																<timebase>25</timebase>
																<ntsc>FALSE</ntsc>
															</rate>
															<width>1920</width>
															<height>1080</height>
															<anamorphic>FALSE</anamorphic>
															<pixelaspectratio>square</pixelaspectratio>
															<fielddominance>none</fielddominance>
														</samplecharacteristics>
													</video>
												</media>
											</file>
											<filter>
												<effect>
													<name>Basic Motion</name>
													<effectid>basic</effectid>
													<effectcategory>motion</effectcategory>
													<effecttype>motion</effecttype>
													<mediatype>video</mediatype>
													<pproBypass>false</pproBypass>
													<parameter authoringApp="PremierePro">
														<parameterid>scale</parameterid>
														<name>Scale</name>
														<valuemin>0</valuemin>
														<valuemax>1000</valuemax>
														<value>55</value>
													</parameter>
													<parameter authoringApp="PremierePro">
														<parameterid>rotation</parameterid>
														<name>Rotation</name>
														<valuemin>-8640</valuemin>
														<valuemax>8640</valuemax>
														<value>0</value>
													</parameter>
													<parameter authoringApp="PremierePro">
														<parameterid>center</parameterid>
														<name>Center</name>
														<value>
															<horiz>0</horiz>
															<vert>0</vert>
														</value>
													</parameter>
													<parameter authoringApp="PremierePro">
														<parameterid>centerOffset</parameterid>
														<name>Anchor Point</name>
														<value>
															<horiz>0</horiz>
															<vert>0</vert>
														</value>
													</parameter>
													<parameter authoringApp="PremierePro">
														<parameterid>antiflicker</parameterid>
														<name>Anti-flicker Filter</name>
														<valuemin>0.0</valuemin>
														<valuemax>1.0</valuemax>
														<value>0</value>
													</parameter>
												</effect>
											</filter>
											<filter>
												<effect>
													<name>Distort</name>
													<effectid>deformation</effectid>
													<effectcategory>motion</effectcategory>
													<effecttype>motion</effecttype>
													<mediatype>video</mediatype>
													<parameter authoringApp="PremierePro">
														<parameterid>aspect</parameterid>
														<name>Aspect</name>
														<valuemin>-10000</valuemin>
														<valuemax>10000</valuemax>
														<value>-3.12506</value>
													</parameter>
												</effect>
											</filter>
											<logginginfo>
												<description></description>
												<scene></scene>
												<shottake></shottake>
												<lognote></lognote>
												<good></good>
												<originalvideofilename></originalvideofilename>
												<originalaudiofilename></originalaudiofilename>
											</logginginfo>
											<colorinfo>
												<lut></lut>
												<lut1></lut1>
												<asc_sop></asc_sop>
												<asc_sat></asc_sat>
												<lut2></lut2>
											</colorinfo>
											<labels>
												<label2>Violet</label2>
											</labels>
										</clipitem>
										<clipitem id="clipitem-1236">
											<masterclipid>masterclip-535</masterclipid>
											<name>Graphic</name>
											<enabled>FALSE</enabled>
											<duration>1080000</duration>
											<rate>
												<timebase>25</timebase>
												<ntsc>FALSE</ntsc>
											</rate>
											<start>350</start>
											<end>475</end>
											<in>90000</in>
											<out>90125</out>
											<pproTicksIn>914457600000000</pproTicksIn>
											<pproTicksOut>915727680000000</pproTicksOut>
											<alphatype>straight</alphatype>
											<pixelaspectratio>PAL-601</pixelaspectratio>
											<anamorphic>TRUE</anamorphic>
											<file id="file-447">
												<name>Graphic</name>
												<mediaSource>GraphicAndType</mediaSource>
												<rate>
													<timebase>30</timebase>
													<ntsc>TRUE</ntsc>
												</rate>
												<timecode>
													<rate>
														<timebase>30</timebase>
														<ntsc>TRUE</ntsc>
													</rate>
													<string>00;00;00;00</string>
													<frame>0</frame>
													<displayformat>DF</displayformat>
												</timecode>
												<media>
													<video>
														<samplecharacteristics>
															<rate>
																<timebase>30</timebase>
																<ntsc>TRUE</ntsc>
															</rate>
															<width>720</width>
															<height>576</height>
															<anamorphic>TRUE</anamorphic>
															<pixelaspectratio>PAL-601</pixelaspectratio>
															<fielddominance>none</fielddominance>
														</samplecharacteristics>
													</video>
												</media>
											</file>
											<filter>
												<effect>
													<name>Basic Motion</name>
													<effectid>basic</effectid>
													<effectcategory>motion</effectcategory>
													<effecttype>motion</effecttype>
													<mediatype>video</mediatype>
													<pproBypass>false</pproBypass>
													<parameter authoringApp="PremierePro">
														<parameterid>scale</parameterid>
														<name>Scale</name>
														<valuemin>0</valuemin>
														<valuemax>1000</valuemax>
														<value>133.333</value>
													</parameter>
													<parameter authoringApp="PremierePro">
														<parameterid>rotation</parameterid>
														<name>Rotation</name>
														<valuemin>-8640</valuemin>
														<valuemax>8640</valuemax>
														<value>0</value>
													</parameter>
													<parameter authoringApp="PremierePro">
														<parameterid>center</parameterid>
														<name>Center</name>
														<value>
															<horiz>0</horiz>
															<vert>0</vert>
														</value>
													</parameter>
													<parameter authoringApp="PremierePro">
														<parameterid>centerOffset</parameterid>
														<name>Anchor Point</name>
														<value>
															<horiz>0</horiz>
															<vert>0</vert>
														</value>
													</parameter>
													<parameter authoringApp="PremierePro">
														<parameterid>antiflicker</parameterid>
														<name>Anti-flicker Filter</name>
														<valuemin>0.0</valuemin>
														<valuemax>1.0</valuemax>
														<value>0</value>
													</parameter>
												</effect>
											</filter>
											<filter>
												<effect>
													<name>Distort</name>
													<effectid>deformation</effectid>
													<effectcategory>motion</effectcategory>
													<effecttype>motion</effecttype>
													<mediatype>video</mediatype>
													<parameter authoringApp="PremierePro">
														<parameterid>aspect</parameterid>
														<name>Aspect</name>
														<valuemin>-10000</valuemin>
														<valuemax>10000</valuemax>
														<value>-33.333</value>
													</parameter>
												</effect>
											</filter>
											<filter>
												<effect>
													<name></name>
													<effectid>GraphicAndType</effectid>
													<effectcategory>graphic</effectcategory>
													<effecttype>filter</effecttype>
													<mediatype>video</mediatype>
													<pproBypass>false</pproBypass>
													<parameter authoringApp="PremierePro">
														<parameterid>1</parameterid>
														<name>Source Text</name>
														<hash>3f0faa81-c1b0-8370-b66c-fa0b000009f1</hash>
													</parameter>
													<parameter authoringApp="PremierePro">
														<parameterid>2</parameterid>
														<name>Transform</name>
														<IsTimeVarying>false</IsTimeVarying>
														<ParameterControlType>11</ParameterControlType>
														<LowerBound>false</LowerBound>
														<UpperBound>false</UpperBound>
														<value>-91445760000000000,false,0,0,0,0,0,0</value>
													</parameter>
													<parameter authoringApp="PremierePro">
														<parameterid>3</parameterid>
														<name>Position</name>
														<IsTimeVarying>false</IsTimeVarying>
														<value>-91445760000000000,0.55605381727218628:0.73039215803146362,0,0,0,0,0,0,5,4,0,0,0,0</value>
													</parameter>
													<parameter authoringApp="PremierePro">
														<parameterid>4</parameterid>
														<name>Scale</name>
														<IsTimeVarying>false</IsTimeVarying>
														<ParameterControlType>2</ParameterControlType>
														<LowerBound>0</LowerBound>
														<UpperBound>4000</UpperBound>
														<value>-91445760000000000,100.,0,0,0,0,0,0</value>
													</parameter>
													<parameter authoringApp="PremierePro">
														<parameterid>5</parameterid>
														<name>Horizontal Scale</name>
														<IsTimeVarying>false</IsTimeVarying>
														<ParameterControlType>2</ParameterControlType>
														<LowerBound>0</LowerBound>
														<UpperBound>4000</UpperBound>
														<value>-91445760000000000,100.,0,0,0,0,0,0</value>
													</parameter>
													<parameter authoringApp="PremierePro">
														<parameterid>6</parameterid>
														<name> </name>
														<IsTimeVarying>false</IsTimeVarying>
														<ParameterControlType>4</ParameterControlType>
														<LowerBound>false</LowerBound>
														<UpperBound>true</UpperBound>
														<value>-91445760000000000,true,0,0,0,0,0,0</value>
													</parameter>
													<parameter authoringApp="PremierePro">
														<parameterid>7</parameterid>
														<name>Rotation</name>
														<IsTimeVarying>false</IsTimeVarying>
														<ParameterControlType>3</ParameterControlType>
														<LowerBound>-32768</LowerBound>
														<UpperBound>32767</UpperBound>
														<value>-91445760000000000,0.,0,0,0,0,0,0</value>
													</parameter>
													<parameter authoringApp="PremierePro">
														<parameterid>8</parameterid>
														<name>Opacity</name>
														<IsTimeVarying>false</IsTimeVarying>
														<ParameterControlType>2</ParameterControlType>
														<LowerBound>0</LowerBound>
														<UpperBound>100</UpperBound>
														<value>-91445760000000000,100.,0,0,0,0,0,0</value>
													</parameter>
													<parameter authoringApp="PremierePro">
														<parameterid>9</parameterid>
														<name>Anchor Point</name>
														<IsTimeVarying>false</IsTimeVarying>
														<value>-91445760000000000,0:0,0,0,0,0,0,0,5,4,0,0,0,0</value>
													</parameter>
													<parameter authoringApp="PremierePro">
														<parameterid>10</parameterid>
														<name></name>
														<IsTimeVarying>false</IsTimeVarying>
														<ParameterControlType>12</ParameterControlType>
														<LowerBound>false</LowerBound>
														<UpperBound>false</UpperBound>
														<value>-91445760000000000,false,0,0,0,0,0,0</value>
													</parameter>
													<parameter authoringApp="PremierePro">
														<parameterid>11</parameterid>
														<name> </name>
														<IsTimeVarying>false</IsTimeVarying>
														<ParameterControlType>8</ParameterControlType>
														<LowerBound>0</LowerBound>
														<UpperBound>32768</UpperBound>
														<value>-91445760000000000,0.,0,0,0,0,0,0</value>
													</parameter>
													<parameter authoringApp="PremierePro">
														<parameterid>12</parameterid>
														<name> </name>
														<IsTimeVarying>false</IsTimeVarying>
														<ParameterControlType>8</ParameterControlType>
														<LowerBound>0</LowerBound>
														<UpperBound>32768</UpperBound>
														<value>-91445760000000000,0.,0,0,0,0,0,0</value>
													</parameter>
													<parameter authoringApp="PremierePro">
														<parameterid>13</parameterid>
														<name>start</name>
														<IsTimeVarying>false</IsTimeVarying>
														<ParameterControlType>8</ParameterControlType>
														<LowerBound>-100</LowerBound>
														<UpperBound>1000000000</UpperBound>
														<value>-91445760000000000,0.,0,0,0,0,0,0</value>
													</parameter>
													<parameter authoringApp="PremierePro">
														<parameterid>14</parameterid>
														<name>end</name>
														<IsTimeVarying>false</IsTimeVarying>
														<ParameterControlType>8</ParameterControlType>
														<LowerBound>-100</LowerBound>
														<UpperBound>1000000000</UpperBound>
														<value>-91445760000000000,0.,0,0,0,0,0,0</value>
													</parameter>
													<parameter authoringApp="PremierePro">
														<parameterid>15</parameterid>
														<name> </name>
														<IsTimeVarying>false</IsTimeVarying>
														<ParameterControlType>4</ParameterControlType>
														<LowerBound>false</LowerBound>
														<UpperBound>true</UpperBound>
														<value>-91445760000000000,false,0,0,0,0,0,0</value>
													</parameter>
													<parameter authoringApp="PremierePro">
														<parameterid>16</parameterid>
														<name> </name>
														<IsTimeVarying>false</IsTimeVarying>
														<ParameterControlType>4</ParameterControlType>
														<LowerBound>false</LowerBound>
														<UpperBound>true</UpperBound>
														<value>-91445760000000000,false,0,0,0,0,0,0</value>
													</parameter>
													<parameter authoringApp="PremierePro">
														<parameterid>17</parameterid>
														<name> </name>
														<IsTimeVarying>false</IsTimeVarying>
														<ParameterControlType>4</ParameterControlType>
														<LowerBound>false</LowerBound>
														<UpperBound>true</UpperBound>
														<value>-91445760000000000,false,0,0,0,0,0,0</value>
													</parameter>
													<parameter authoringApp="PremierePro">
														<parameterid>18</parameterid>
														<name> </name>
														<IsTimeVarying>false</IsTimeVarying>
														<ParameterControlType>4</ParameterControlType>
														<LowerBound>false</LowerBound>
														<UpperBound>true</UpperBound>
														<value>-91445760000000000,false,0,0,0,0,0,0</value>
													</parameter>
													<parameter authoringApp="PremierePro">
														<parameterid>19</parameterid>
														<name>Parent Width</name>
														<IsTimeVarying>false</IsTimeVarying>
														<ParameterControlType>2</ParameterControlType>
														<LowerBound>0</LowerBound>
														<UpperBound>20000</UpperBound>
														<value>-91445760000000000,0.,0,0,0,0,0,0</value>
													</parameter>
													<parameter authoringApp="PremierePro">
														<parameterid>20</parameterid>
														<name>Parent Height</name>
														<IsTimeVarying>false</IsTimeVarying>
														<ParameterControlType>2</ParameterControlType>
														<LowerBound>0</LowerBound>
														<UpperBound>20000</UpperBound>
														<value>-91445760000000000,0.,0,0,0,0,0,0</value>
													</parameter>
													<parameter authoringApp="PremierePro">
														<parameterid>21</parameterid>
														<name>Parent Rotation</name>
														<IsTimeVarying>false</IsTimeVarying>
														<ParameterControlType>3</ParameterControlType>
														<LowerBound>-32768</LowerBound>
														<UpperBound>32767</UpperBound>
														<value>-91445760000000000,0.,0,0,0,0,0,0</value>
													</parameter>
												</effect>
											</filter>
											<logginginfo>
												<description></description>
												<scene></scene>
												<shottake></shottake>
												<lognote></lognote>
												<good></good>
												<originalvideofilename></originalvideofilename>
												<originalaudiofilename></originalaudiofilename>
											</logginginfo>
											<colorinfo>
												<lut></lut>
												<lut1></lut1>
												<asc_sop></asc_sop>
												<asc_sat></asc_sat>
												<lut2></lut2>
											</colorinfo>
										</clipitem>
										<enabled>TRUE</enabled>
										<locked>FALSE</locked>
									</track>
									<track TL.SQTrackShy="0" TL.SQTrackExpandedHeight="25" TL.SQTrackExpanded="0" MZ.TrackTargeted="0">
										<transitionitem>
											<start>167</start>
											<end>224</end>
											<alignment>start-black</alignment>
											<cutPointTicks>0</cutPointTicks>
											<rate>
												<timebase>25</timebase>
												<ntsc>FALSE</ntsc>
											</rate>
											<effect>
												<name>Edge Wipe</name>
												<effectid>Edge Wipe</effectid>
												<effectcategory>Wipe</effectcategory>
												<effecttype>transition</effecttype>
												<mediatype>video</mediatype>
												<wipecode>2</wipecode>
												<wipeaccuracy>100</wipeaccuracy>
												<startratio>0</startratio>
												<endratio>1</endratio>
												<reverse>FALSE</reverse>
												<parameter authoringApp="PremierePro">
													<parameterid>directionofwipe</parameterid>
													<name>Angle</name>
													<valuemin>-360</valuemin>
													<valuemax>360</valuemax>
													<value>90</value>
												</parameter>
											</effect>
										</transitionitem>
										<clipitem id="clipitem-1237">
											<masterclipid>masterclip-536</masterclipid>
											<name>9.png</name>
											<enabled>TRUE</enabled>
											<duration>1080000</duration>
											<rate>
												<timebase>25</timebase>
												<ntsc>FALSE</ntsc>
											</rate>
											<start>-1</start>
											<end>-1</end>
											<in>90042</in>
											<out>90225</out>
											<pproTicksIn>914884346880000</pproTicksIn>
											<pproTicksOut>916743744000000</pproTicksOut>
											<alphatype>straight</alphatype>
											<pixelaspectratio>square</pixelaspectratio>
											<anamorphic>FALSE</anamorphic>
											<file id="file-448">
												<name>10.png</name>
												<pathurl>file://localhost/_MUZ_TV/project_AP/RU/_TITLE/468/10.png</pathurl>
												<rate>
													<timebase>30</timebase>
													<ntsc>TRUE</ntsc>
												</rate>
												<timecode>
													<rate>
														<timebase>30</timebase>
														<ntsc>TRUE</ntsc>
													</rate>
													<string>00;00;00;00</string>
													<frame>0</frame>
													<displayformat>DF</displayformat>
												</timecode>
												<media>
													<video>
														<samplecharacteristics>
															<rate>
																<timebase>30</timebase>
																<ntsc>TRUE</ntsc>
															</rate>
															<width>1920</width>
															<height>1080</height>
															<anamorphic>FALSE</anamorphic>
															<pixelaspectratio>square</pixelaspectratio>
															<fielddominance>none</fielddominance>
														</samplecharacteristics>
													</video>
												</media>
											</file>
											<filter>
												<effect>
													<name>Basic Motion</name>
													<effectid>basic</effectid>
													<effectcategory>motion</effectcategory>
													<effecttype>motion</effecttype>
													<mediatype>video</mediatype>
													<pproBypass>false</pproBypass>
													<parameter authoringApp="PremierePro">
														<parameterid>scale</parameterid>
														<name>Scale</name>
														<valuemin>0</valuemin>
														<valuemax>1000</valuemax>
														<value>53.3333</value>
													</parameter>
													<parameter authoringApp="PremierePro">
														<parameterid>rotation</parameterid>
														<name>Rotation</name>
														<valuemin>-8640</valuemin>
														<valuemax>8640</valuemax>
														<value>0</value>
													</parameter>
													<parameter authoringApp="PremierePro">
														<parameterid>center</parameterid>
														<name>Center</name>
														<value>
															<horiz>0</horiz>
															<vert>0</vert>
														</value>
													</parameter>
													<parameter authoringApp="PremierePro">
														<parameterid>centerOffset</parameterid>
														<name>Anchor Point</name>
														<value>
															<horiz>0</horiz>
															<vert>0</vert>
														</value>
													</parameter>
													<parameter authoringApp="PremierePro">
														<parameterid>antiflicker</parameterid>
														<name>Anti-flicker Filter</name>
														<valuemin>0.0</valuemin>
														<valuemax>1.0</valuemax>
														<value>0</value>
													</parameter>
												</effect>
											</filter>
											<logginginfo>
												<description></description>
												<scene></scene>
												<shottake></shottake>
												<lognote></lognote>
												<good></good>
												<originalvideofilename></originalvideofilename>
												<originalaudiofilename></originalaudiofilename>
											</logginginfo>
											<colorinfo>
												<lut></lut>
												<lut1></lut1>
												<asc_sop></asc_sop>
												<asc_sat></asc_sat>
												<lut2></lut2>
											</colorinfo>
											<labels>
												<label2>Lavender</label2>
											</labels>
										</clipitem>
										<transitionitem>
											<start>328</start>
											<end>350</end>
											<alignment>end-black</alignment>
											<cutPointTicks>223534080000</cutPointTicks>
											<rate>
												<timebase>25</timebase>
												<ntsc>FALSE</ntsc>
											</rate>
											<effect>
												<name>Edge Wipe</name>
												<effectid>Edge Wipe</effectid>
												<effectcategory>Wipe</effectcategory>
												<effecttype>transition</effecttype>
												<mediatype>video</mediatype>
												<wipecode>2</wipecode>
												<wipeaccuracy>100</wipeaccuracy>
												<startratio>0</startratio>
												<endratio>1</endratio>
												<reverse>FALSE</reverse>
												<parameter authoringApp="PremierePro">
													<parameterid>directionofwipe</parameterid>
													<name>Angle</name>
													<valuemin>-360</valuemin>
													<valuemax>360</valuemax>
													<value>90</value>
												</parameter>
											</effect>
										</transitionitem>
										<enabled>TRUE</enabled>
										<locked>FALSE</locked>
									</track>
									<track TL.SQTrackShy="0" TL.SQTrackExpandedHeight="25" TL.SQTrackExpanded="0" MZ.TrackTargeted="0">
										<transitionitem>
											<start>167</start>
											<end>224</end>
											<alignment>start-black</alignment>
											<cutPointTicks>0</cutPointTicks>
											<rate>
												<timebase>25</timebase>
												<ntsc>FALSE</ntsc>
											</rate>
											<effect>
												<name>Edge Wipe</name>
												<effectid>Edge Wipe</effectid>
												<effectcategory>Wipe</effectcategory>
												<effecttype>transition</effecttype>
												<mediatype>video</mediatype>
												<wipecode>2</wipecode>
												<wipeaccuracy>100</wipeaccuracy>
												<startratio>0</startratio>
												<endratio>1</endratio>
												<reverse>FALSE</reverse>
												<parameter authoringApp="PremierePro">
													<parameterid>directionofwipe</parameterid>
													<name>Angle</name>
													<valuemin>-360</valuemin>
													<valuemax>360</valuemax>
													<value>90</value>
												</parameter>
											</effect>
										</transitionitem>
										<clipitem id="clipitem-1238">
											<masterclipid>masterclip-537</masterclipid>
											<name>Graphic</name>
											<enabled>FALSE</enabled>
											<duration>1080000</duration>
											<rate>
												<timebase>25</timebase>
												<ntsc>FALSE</ntsc>
											</rate>
											<start>-1</start>
											<end>-1</end>
											<in>89998</in>
											<out>90181</out>
											<pproTicksIn>914437278720000</pproTicksIn>
											<pproTicksOut>916296675840000</pproTicksOut>
											<alphatype>straight</alphatype>
											<pixelaspectratio>PAL-601</pixelaspectratio>
											<anamorphic>TRUE</anamorphic>
											<file id="file-449">
												<name>Graphic</name>
												<mediaSource>GraphicAndType</mediaSource>
												<rate>
													<timebase>30</timebase>
													<ntsc>TRUE</ntsc>
												</rate>
												<timecode>
													<rate>
														<timebase>30</timebase>
														<ntsc>TRUE</ntsc>
													</rate>
													<string>00;00;00;00</string>
													<frame>0</frame>
													<displayformat>DF</displayformat>
												</timecode>
												<media>
													<video>
														<samplecharacteristics>
															<rate>
																<timebase>30</timebase>
																<ntsc>TRUE</ntsc>
															</rate>
															<width>720</width>
															<height>576</height>
															<anamorphic>TRUE</anamorphic>
															<pixelaspectratio>PAL-601</pixelaspectratio>
															<fielddominance>none</fielddominance>
														</samplecharacteristics>
													</video>
												</media>
											</file>
											<filter>
												<effect>
													<name>АРТУР ПИРОЖКОВ&#13;ЛЕТОМ НА ФИЕСТЕ</name>
													<effectid>GraphicAndType</effectid>
													<effectcategory>graphic</effectcategory>
													<effecttype>filter</effecttype>
													<mediatype>video</mediatype>
													<pproBypass>false</pproBypass>
													<pproExpanded>true</pproExpanded>
													<parameter authoringApp="PremierePro">
														<parameterid>1</parameterid>
														<name>Source Text</name>
														<hash>dc092258-f6b9-fd91-a76f-c3e700000476</hash>
													</parameter>
													<parameter authoringApp="PremierePro">
														<parameterid>2</parameterid>
														<name>Transform</name>
														<IsTimeVarying>false</IsTimeVarying>
														<ParameterControlType>11</ParameterControlType>
														<LowerBound>false</LowerBound>
														<UpperBound>false</UpperBound>
														<value>-91445760000000000,false,0,0,0,0,0,0</value>
													</parameter>
													<parameter authoringApp="PremierePro">
														<parameterid>3</parameterid>
														<name>Position</name>
														<IsTimeVarying>false</IsTimeVarying>
														<value>-91445760000000000,0.36944580078125:0.86468505859375,0,0,0,0,0,0,5,4,0,0,0,0</value>
													</parameter>
													<parameter authoringApp="PremierePro">
														<parameterid>4</parameterid>
														<name>Scale</name>
														<IsTimeVarying>false</IsTimeVarying>
														<ParameterControlType>2</ParameterControlType>
														<LowerBound>0</LowerBound>
														<UpperBound>4000</UpperBound>
														<value>-91445760000000000,100.,0,0,0,0,0,0</value>
													</parameter>
													<parameter authoringApp="PremierePro">
														<parameterid>5</parameterid>
														<name>Horizontal Scale</name>
														<IsTimeVarying>false</IsTimeVarying>
														<ParameterControlType>2</ParameterControlType>
														<LowerBound>0</LowerBound>
														<UpperBound>4000</UpperBound>
														<value>-91445760000000000,100.,0,0,0,0,0,0</value>
													</parameter>
													<parameter authoringApp="PremierePro">
														<parameterid>6</parameterid>
														<name> </name>
														<IsTimeVarying>false</IsTimeVarying>
														<ParameterControlType>4</ParameterControlType>
														<LowerBound>false</LowerBound>
														<UpperBound>true</UpperBound>
														<value>-91445760000000000,true,0,0,0,0,0,0</value>
													</parameter>
													<parameter authoringApp="PremierePro">
														<parameterid>7</parameterid>
														<name>Rotation</name>
														<IsTimeVarying>false</IsTimeVarying>
														<ParameterControlType>3</ParameterControlType>
														<LowerBound>-32768</LowerBound>
														<UpperBound>32767</UpperBound>
														<value>-91445760000000000,0.,0,0,0,0,0,0</value>
													</parameter>
													<parameter authoringApp="PremierePro">
														<parameterid>8</parameterid>
														<name>Opacity</name>
														<IsTimeVarying>false</IsTimeVarying>
														<ParameterControlType>2</ParameterControlType>
														<LowerBound>0</LowerBound>
														<UpperBound>100</UpperBound>
														<value>-91445760000000000,100.,0,0,0,0,0,0</value>
													</parameter>
													<parameter authoringApp="PremierePro">
														<parameterid>9</parameterid>
														<name>Anchor Point</name>
														<IsTimeVarying>false</IsTimeVarying>
														<value>-91445760000000000,0:0,0,0,0,0,0,0,5,4,0,0,0,0</value>
													</parameter>
													<parameter authoringApp="PremierePro">
														<parameterid>10</parameterid>
														<name></name>
														<IsTimeVarying>false</IsTimeVarying>
														<ParameterControlType>12</ParameterControlType>
														<LowerBound>false</LowerBound>
														<UpperBound>false</UpperBound>
														<value>-91445760000000000,false,0,0,0,0,0,0</value>
													</parameter>
													<parameter authoringApp="PremierePro">
														<parameterid>11</parameterid>
														<name> </name>
														<IsTimeVarying>false</IsTimeVarying>
														<ParameterControlType>8</ParameterControlType>
														<LowerBound>0</LowerBound>
														<UpperBound>32768</UpperBound>
														<value>-91445760000000000,0.,0,0,0,0,0,0</value>
													</parameter>
													<parameter authoringApp="PremierePro">
														<parameterid>12</parameterid>
														<name> </name>
														<IsTimeVarying>false</IsTimeVarying>
														<ParameterControlType>8</ParameterControlType>
														<LowerBound>0</LowerBound>
														<UpperBound>32768</UpperBound>
														<value>-91445760000000000,0.,0,0,0,0,0,0</value>
													</parameter>
													<parameter authoringApp="PremierePro">
														<parameterid>13</parameterid>
														<name>start</name>
														<IsTimeVarying>false</IsTimeVarying>
														<ParameterControlType>8</ParameterControlType>
														<LowerBound>-100</LowerBound>
														<UpperBound>1000000000</UpperBound>
														<value>-91445760000000000,30.,0,0,0,0,0,0</value>
													</parameter>
													<parameter authoringApp="PremierePro">
														<parameterid>14</parameterid>
														<name>end</name>
														<IsTimeVarying>false</IsTimeVarying>
														<ParameterControlType>8</ParameterControlType>
														<LowerBound>-100</LowerBound>
														<UpperBound>1000000000</UpperBound>
														<value>-91445760000000000,30.,0,0,0,0,0,0</value>
													</parameter>
													<parameter authoringApp="PremierePro">
														<parameterid>15</parameterid>
														<name> </name>
														<IsTimeVarying>false</IsTimeVarying>
														<ParameterControlType>4</ParameterControlType>
														<LowerBound>false</LowerBound>
														<UpperBound>true</UpperBound>
														<value>-91445760000000000,false,0,0,0,0,0,0</value>
													</parameter>
													<parameter authoringApp="PremierePro">
														<parameterid>16</parameterid>
														<name> </name>
														<IsTimeVarying>false</IsTimeVarying>
														<ParameterControlType>4</ParameterControlType>
														<LowerBound>false</LowerBound>
														<UpperBound>true</UpperBound>
														<value>-91445760000000000,false,0,0,0,0,0,0</value>
													</parameter>
													<parameter authoringApp="PremierePro">
														<parameterid>17</parameterid>
														<name> </name>
														<IsTimeVarying>false</IsTimeVarying>
														<ParameterControlType>4</ParameterControlType>
														<LowerBound>false</LowerBound>
														<UpperBound>true</UpperBound>
														<value>-91445760000000000,false,0,0,0,0,0,0</value>
													</parameter>
													<parameter authoringApp="PremierePro">
														<parameterid>18</parameterid>
														<name> </name>
														<IsTimeVarying>false</IsTimeVarying>
														<ParameterControlType>4</ParameterControlType>
														<LowerBound>false</LowerBound>
														<UpperBound>true</UpperBound>
														<value>-91445760000000000,false,0,0,0,0,0,0</value>
													</parameter>
													<parameter authoringApp="PremierePro">
														<parameterid>19</parameterid>
														<name>Parent Width</name>
														<IsTimeVarying>false</IsTimeVarying>
														<ParameterControlType>2</ParameterControlType>
														<LowerBound>0</LowerBound>
														<UpperBound>20000</UpperBound>
														<value>-91445760000000000,0.,0,0,0,0,0,0</value>
													</parameter>
													<parameter authoringApp="PremierePro">
														<parameterid>20</parameterid>
														<name>Parent Height</name>
														<IsTimeVarying>false</IsTimeVarying>
														<ParameterControlType>2</ParameterControlType>
														<LowerBound>0</LowerBound>
														<UpperBound>20000</UpperBound>
														<value>-91445760000000000,0.,0,0,0,0,0,0</value>
													</parameter>
													<parameter authoringApp="PremierePro">
														<parameterid>21</parameterid>
														<name>Parent Rotation</name>
														<IsTimeVarying>false</IsTimeVarying>
														<ParameterControlType>3</ParameterControlType>
														<LowerBound>-32768</LowerBound>
														<UpperBound>32767</UpperBound>
														<value>-91445760000000000,0.,0,0,0,0,0,0</value>
													</parameter>
												</effect>
											</filter>
											<logginginfo>
												<description></description>
												<scene></scene>
												<shottake></shottake>
												<lognote></lognote>
												<good></good>
												<originalvideofilename></originalvideofilename>
												<originalaudiofilename></originalaudiofilename>
											</logginginfo>
											<colorinfo>
												<lut></lut>
												<lut1></lut1>
												<asc_sop></asc_sop>
												<asc_sat></asc_sat>
												<lut2></lut2>
											</colorinfo>
										</clipitem>
										<transitionitem>
											<start>328</start>
											<end>350</end>
											<alignment>end-black</alignment>
											<cutPointTicks>223534080000</cutPointTicks>
											<rate>
												<timebase>25</timebase>
												<ntsc>FALSE</ntsc>
											</rate>
											<effect>
												<name>Edge Wipe</name>
												<effectid>Edge Wipe</effectid>
												<effectcategory>Wipe</effectcategory>
												<effecttype>transition</effecttype>
												<mediatype>video</mediatype>
												<wipecode>2</wipecode>
												<wipeaccuracy>100</wipeaccuracy>
												<startratio>0</startratio>
												<endratio>1</endratio>
												<reverse>FALSE</reverse>
												<parameter authoringApp="PremierePro">
													<parameterid>directionofwipe</parameterid>
													<name>Angle</name>
													<valuemin>-360</valuemin>
													<valuemax>360</valuemax>
													<value>90</value>
												</parameter>
											</effect>
										</transitionitem>
										<enabled>TRUE</enabled>
										<locked>FALSE</locked>
									</track>
								</video>
								<audio>
									<numOutputChannels>2</numOutputChannels>
									<format>
										<samplecharacteristics>
											<depth>16</depth>
											<samplerate>48000</samplerate>
										</samplecharacteristics>
									</format>
									<outputs>
										<group>
											<index>1</index>
											<numchannels>1</numchannels>
											<downmix>0</downmix>
											<channel>
												<index>1</index>
											</channel>
										</group>
										<group>
											<index>2</index>
											<numchannels>1</numchannels>
											<downmix>0</downmix>
											<channel>
												<index>2</index>
											</channel>
										</group>
									</outputs>
									<track TL.SQTrackAudioKeyframeStyle="0" TL.SQTrackShy="0" TL.SQTrackExpandedHeight="25" TL.SQTrackExpanded="0" MZ.TrackTargeted="1" PannerCurrentValue="0.5" PannerStartKeyframe="-91445760000000000,0.5,0,0,0,0,0,0" PannerName="Balance" currentExplodedTrackIndex="0" totalExplodedTrackCount="2" premiereTrackType="Stereo">
										<enabled>TRUE</enabled>
										<locked>FALSE</locked>
										<outputchannelindex>1</outputchannelindex>
									</track>
									<track TL.SQTrackAudioKeyframeStyle="0" TL.SQTrackShy="0" TL.SQTrackExpandedHeight="25" TL.SQTrackExpanded="0" MZ.TrackTargeted="1" PannerCurrentValue="0.5" PannerStartKeyframe="-91445760000000000,0.5,0,0,0,0,0,0" PannerName="Balance" currentExplodedTrackIndex="1" totalExplodedTrackCount="2" premiereTrackType="Stereo">
										<enabled>TRUE</enabled>
										<locked>FALSE</locked>
										<outputchannelindex>2</outputchannelindex>
									</track>
								</audio>
							</media>
							<timecode>
								<rate>
									<timebase>25</timebase>
									<ntsc>FALSE</ntsc>
								</rate>
								<string>00:00:00:00</string>
								<frame>0</frame>
								<displayformat>NDF</displayformat>
							</timecode>
								<marker>
									<comment></comment>
									<name></name>
									<in>125</in>
									<out>-1</out>
									<pproColor>4280578025</pproColor>
								</marker>
							<logginginfo>
								<description></description>
								<scene></scene>
								<shottake></shottake>
								<lognote></lognote>
								<good></good>
								<originalvideofilename></originalvideofilename>
								<originalaudiofilename></originalaudiofilename>
							</logginginfo>
						</sequence>
							<marker>
								<comment></comment>
								<name></name>
								<in>125</in>
								<out>-1</out>
								<pproColor>4280578025</pproColor>
							</marker>
						<labels>
							<label2>Forest</label2>
						</labels>
					</clipitem>
					<clipitem id="clipitem-1239">
						<masterclipid>masterclip-533</masterclipid>
						<name>10</name>
						<enabled>TRUE</enabled>
						<duration>475</duration>
						<rate>
							<timebase>25</timebase>
							<ntsc>FALSE</ntsc>
						</rate>
						<start>18826</start>
						<end>19177</end>
						<in>124</in>
						<out>475</out>
						<pproTicksIn>1259919360000</pproTicksIn>
						<pproTicksOut>4826304000000</pproTicksOut>
						<sequence id="sequence-95"/>
							<marker>
								<comment></comment>
								<name></name>
								<in>125</in>
								<out>-1</out>
								<pproColor>4280578025</pproColor>
							</marker>
						<labels>
							<label2>Forest</label2>
						</labels>
					</clipitem>
					<clipitem id="clipitem-1240">
						<masterclipid>masterclip-538</masterclipid>
						<name>9_TITLE</name>
						<enabled>TRUE</enabled>
						<duration>475</duration>
						<rate>
							<timebase>25</timebase>
							<ntsc>FALSE</ntsc>
						</rate>
						<start>19901</start>
						<end>20251</end>
						<in>0</in>
						<out>475</out>
						<pproTicksIn>0</pproTicksIn>
						<pproTicksOut>4826304000000</pproTicksOut>
						<sequence id="sequence-96" TL.SQAudioVisibleBase="0" TL.SQVideoVisibleBase="0" TL.SQVisibleBaseTime="2907530640000" TL.SQAVDividerPosition="0.5" TL.SQHideShyTracks="0" TL.SQHeaderWidth="236" TL.SQDataTrackViewControlState="0" Monitor.ProgramZoomOut="4826304000000" Monitor.ProgramZoomIn="0" TL.SQTimePerPixel="0.0031249999999999997" AM.TrackVScrollPosition="0" AM.TrackScrollPosition="0" MZ.EditLine="3657830400000" MZ.Sequence.PreviewFrameSizeHeight="576" MZ.Sequence.PreviewFrameSizeWidth="720" MZ.Sequence.AudioTimeDisplayFormat="200" MZ.Sequence.PreviewRenderingClassID="1061109567" MZ.Sequence.PreviewRenderingPresetCodec="1685480304" MZ.Sequence.PreviewRenderingPresetPath="EncoderPresets/SequencePreview/04be6e19-a018-4e0c-a9d6-0ab44c64752b/QuickTime DV PAL.epr" MZ.Sequence.PreviewUseMaxRenderQuality="false" MZ.Sequence.PreviewUseMaxBitDepth="false" MZ.Sequence.EditingModeGUID="04be6e19-a018-4e0c-a9d6-0ab44c64752b" MZ.Sequence.VideoTimeDisplayFormat="101" MZ.WorkOutPoint="4826304000000" MZ.WorkInPoint="0" MZ.ZeroPoint="0">
							<duration>475</duration>
							<rate>
								<timebase>25</timebase>
								<ntsc>FALSE</ntsc>
							</rate>
							<name>титр</name>
							<media>
								<video>
									<format>
										<samplecharacteristics>
											<rate>
												<timebase>25</timebase>
												<ntsc>FALSE</ntsc>
											</rate>
											<codec>
												<name>Apple ProRes 422</name>
												<appspecificdata>
													<appname>Final Cut Pro</appname>
													<appmanufacturer>Apple Inc.</appmanufacturer>
													<appversion>7.0</appversion>
													<data>
														<qtcodec>
															<codecname>Apple ProRes 422</codecname>
															<codectypename>Apple ProRes 422</codectypename>
															<codectypecode>apcn</codectypecode>
															<codecvendorcode>appl</codecvendorcode>
															<spatialquality>1024</spatialquality>
															<temporalquality>0</temporalquality>
															<keyframerate>0</keyframerate>
															<datarate>0</datarate>
														</qtcodec>
													</data>
												</appspecificdata>
											</codec>
											<width>720</width>
											<height>576</height>
											<anamorphic>TRUE</anamorphic>
											<pixelaspectratio>PAL-601</pixelaspectratio>
											<fielddominance>lower</fielddominance>
											<colordepth>24</colordepth>
										</samplecharacteristics>
									</format>
									<track TL.SQTrackShy="0" TL.SQTrackExpandedHeight="25" TL.SQTrackExpanded="0" MZ.TrackTargeted="1">
										<clipitem id="clipitem-1241">
											<masterclipid>masterclip-539</masterclipid>
											<name>Nested Sequence 02</name>
											<enabled>TRUE</enabled>
											<duration>225</duration>
											<rate>
												<timebase>25</timebase>
												<ntsc>FALSE</ntsc>
											</rate>
											<start>125</start>
											<end>350</end>
											<in>0</in>
											<out>225</out>
											<pproTicksIn>0</pproTicksIn>
											<pproTicksOut>2286144000000</pproTicksOut>
											<sequence id="sequence-97" TL.SQVisibleBaseTime="6350400000" TL.SQTimePerPixel="0.012499999999999999" MZ.Sequence.PreviewFrameSizeHeight="576" MZ.Sequence.PreviewFrameSizeWidth="720" MZ.Sequence.AudioTimeDisplayFormat="200" MZ.Sequence.PreviewRenderingPresetCodec="1685480304" MZ.Sequence.PreviewRenderingPresetPath="EncoderPresets/SequencePreview/04be6e19-a018-4e0c-a9d6-0ab44c64752b/QuickTime DV PAL.epr" MZ.Sequence.PreviewUseMaxRenderQuality="false" MZ.Sequence.PreviewUseMaxBitDepth="false" MZ.Sequence.EditingModeGUID="04be6e19-a018-4e0c-a9d6-0ab44c64752b" MZ.Sequence.VideoTimeDisplayFormat="101" MZ.WorkOutPoint="2286144000000" MZ.WorkInPoint="0">
												<duration>225</duration>
												<rate>
													<timebase>25</timebase>
													<ntsc>FALSE</ntsc>
												</rate>
												<name>Nested Sequence 02</name>
												<media>
													<video>
														<format>
															<samplecharacteristics>
																<rate>
																	<timebase>25</timebase>
																	<ntsc>FALSE</ntsc>
																</rate>
																<codec>
																	<name>Apple ProRes 422</name>
																	<appspecificdata>
																		<appname>Final Cut Pro</appname>
																		<appmanufacturer>Apple Inc.</appmanufacturer>
																		<appversion>7.0</appversion>
																		<data>
																			<qtcodec>
																				<codecname>Apple ProRes 422</codecname>
																				<codectypename>Apple ProRes 422</codectypename>
																				<codectypecode>apcn</codectypecode>
																				<codecvendorcode>appl</codecvendorcode>
																				<spatialquality>1024</spatialquality>
																				<temporalquality>0</temporalquality>
																				<keyframerate>0</keyframerate>
																				<datarate>0</datarate>
																			</qtcodec>
																		</data>
																	</appspecificdata>
																</codec>
																<width>720</width>
																<height>576</height>
																<anamorphic>TRUE</anamorphic>
																<pixelaspectratio>PAL-601</pixelaspectratio>
																<fielddominance>lower</fielddominance>
																<colordepth>24</colordepth>
															</samplecharacteristics>
														</format>
														<track TL.SQTrackExpandedHeight="25" TL.SQTrackExpanded="0" MZ.TrackTargeted="1">
															<clipitem id="clipitem-1242">
																<masterclipid>masterclip-540</masterclipid>
																<name>9_title.mov</name>
																<enabled>TRUE</enabled>
																<duration>225</duration>
																<rate>
																	<timebase>25</timebase>
																	<ntsc>FALSE</ntsc>
																</rate>
																<start>0</start>
																<end>225</end>
																<in>0</in>
																<out>225</out>
																<pproTicksIn>0</pproTicksIn>
																<pproTicksOut>2286144000000</pproTicksOut>
																<alphatype>straight</alphatype>
																<pixelaspectratio>square</pixelaspectratio>
																<anamorphic>FALSE</anamorphic>
																<file id="file-450">
																	<name>9_title.mov</name>
																	<pathurl>file://localhost/_MUZ_TV/graphika/RU-21/MOD/title_plashka/9_title.mov</pathurl>
																	<rate>
																		<timebase>25</timebase>
																		<ntsc>FALSE</ntsc>
																	</rate>
																	<duration>225</duration>
																	<timecode>
																		<rate>
																			<timebase>25</timebase>
																			<ntsc>FALSE</ntsc>
																		</rate>
																		<string>00:00:09:00</string>
																		<frame>225</frame>
																		<displayformat>NDF</displayformat>
																	</timecode>
																	<media>
																		<video>
																			<samplecharacteristics>
																				<rate>
																					<timebase>25</timebase>
																					<ntsc>FALSE</ntsc>
																				</rate>
																				<width>1920</width>
																				<height>1080</height>
																				<anamorphic>FALSE</anamorphic>
																				<pixelaspectratio>square</pixelaspectratio>
																				<fielddominance>none</fielddominance>
																			</samplecharacteristics>
																		</video>
																	</media>
																</file>
																<filter>
																	<effect>
																		<name>Basic Motion</name>
																		<effectid>basic</effectid>
																		<effectcategory>motion</effectcategory>
																		<effecttype>motion</effecttype>
																		<mediatype>video</mediatype>
																		<pproBypass>false</pproBypass>
																		<parameter authoringApp="PremierePro">
																			<parameterid>scale</parameterid>
																			<name>Scale</name>
																			<valuemin>0</valuemin>
																			<valuemax>1000</valuemax>
																			<value>55</value>
																		</parameter>
																		<parameter authoringApp="PremierePro">
																			<parameterid>rotation</parameterid>
																			<name>Rotation</name>
																			<valuemin>-8640</valuemin>
																			<valuemax>8640</valuemax>
																			<value>0</value>
																		</parameter>
																		<parameter authoringApp="PremierePro">
																			<parameterid>center</parameterid>
																			<name>Center</name>
																			<value>
																				<horiz>0</horiz>
																				<vert>0</vert>
																			</value>
																		</parameter>
																		<parameter authoringApp="PremierePro">
																			<parameterid>centerOffset</parameterid>
																			<name>Anchor Point</name>
																			<value>
																				<horiz>0</horiz>
																				<vert>0</vert>
																			</value>
																		</parameter>
																		<parameter authoringApp="PremierePro">
																			<parameterid>antiflicker</parameterid>
																			<name>Anti-flicker Filter</name>
																			<valuemin>0.0</valuemin>
																			<valuemax>1.0</valuemax>
																			<value>0</value>
																		</parameter>
																	</effect>
																</filter>
																<filter>
																	<effect>
																		<name>Distort</name>
																		<effectid>deformation</effectid>
																		<effectcategory>motion</effectcategory>
																		<effecttype>motion</effecttype>
																		<mediatype>video</mediatype>
																		<parameter authoringApp="PremierePro">
																			<parameterid>aspect</parameterid>
																			<name>Aspect</name>
																			<valuemin>-10000</valuemin>
																			<valuemax>10000</valuemax>
																			<value>-3.12506</value>
																		</parameter>
																	</effect>
																</filter>
																<logginginfo>
																	<description></description>
																	<scene></scene>
																	<shottake></shottake>
																	<lognote></lognote>
																	<good></good>
																	<originalvideofilename></originalvideofilename>
																	<originalaudiofilename></originalaudiofilename>
																</logginginfo>
																<colorinfo>
																	<lut></lut>
																	<lut1></lut1>
																	<asc_sop></asc_sop>
																	<asc_sat></asc_sat>
																	<lut2></lut2>
																</colorinfo>
																<labels>
																	<label2>Violet</label2>
																</labels>
															</clipitem>
															<enabled>TRUE</enabled>
															<locked>FALSE</locked>
														</track>
													</video>
													<audio>
														<numOutputChannels>2</numOutputChannels>
														<format>
															<samplecharacteristics>
																<depth>16</depth>
																<samplerate>48000</samplerate>
															</samplecharacteristics>
														</format>
														<outputs>
															<group>
																<index>1</index>
																<numchannels>1</numchannels>
																<downmix>0</downmix>
																<channel>
																	<index>1</index>
																</channel>
															</group>
															<group>
																<index>2</index>
																<numchannels>1</numchannels>
																<downmix>0</downmix>
																<channel>
																	<index>2</index>
																</channel>
															</group>
														</outputs>
														<track TL.SQTrackExpandedHeight="25" TL.SQTrackExpanded="0" MZ.TrackTargeted="1" PannerCurrentValue="0.5" PannerIsInverted="true" PannerStartKeyframe="-91445760000000000,0.5,0,0,0,0,0,0" PannerName="Balance" currentExplodedTrackIndex="0" totalExplodedTrackCount="2" premiereTrackType="Stereo">
															<enabled>TRUE</enabled>
															<locked>FALSE</locked>
															<outputchannelindex>1</outputchannelindex>
														</track>
														<track TL.SQTrackExpandedHeight="25" TL.SQTrackExpanded="0" MZ.TrackTargeted="1" PannerCurrentValue="0.5" PannerIsInverted="true" PannerStartKeyframe="-91445760000000000,0.5,0,0,0,0,0,0" PannerName="Balance" currentExplodedTrackIndex="1" totalExplodedTrackCount="2" premiereTrackType="Stereo">
															<enabled>TRUE</enabled>
															<locked>FALSE</locked>
															<outputchannelindex>2</outputchannelindex>
														</track>
													</audio>
												</media>
												<timecode>
													<rate>
														<timebase>25</timebase>
														<ntsc>FALSE</ntsc>
													</rate>
													<string>00:00:00:00</string>
													<frame>0</frame>
													<displayformat>NDF</displayformat>
												</timecode>
												<logginginfo>
													<description></description>
													<scene></scene>
													<shottake></shottake>
													<lognote></lognote>
													<good></good>
													<originalvideofilename></originalvideofilename>
													<originalaudiofilename></originalaudiofilename>
												</logginginfo>
											</sequence>
											<labels>
												<label2>Forest</label2>
											</labels>
										</clipitem>
										<clipitem id="clipitem-1243">
											<masterclipid>masterclip-541</masterclipid>
											<name>Graphic</name>
											<enabled>FALSE</enabled>
											<duration>1080000</duration>
											<rate>
												<timebase>25</timebase>
												<ntsc>FALSE</ntsc>
											</rate>
											<start>350</start>
											<end>475</end>
											<in>90000</in>
											<out>90125</out>
											<pproTicksIn>914457600000000</pproTicksIn>
											<pproTicksOut>915727680000000</pproTicksOut>
											<alphatype>straight</alphatype>
											<pixelaspectratio>PAL-601</pixelaspectratio>
											<anamorphic>TRUE</anamorphic>
											<file id="file-451">
												<name>Graphic</name>
												<mediaSource>GraphicAndType</mediaSource>
												<rate>
													<timebase>30</timebase>
													<ntsc>TRUE</ntsc>
												</rate>
												<timecode>
													<rate>
														<timebase>30</timebase>
														<ntsc>TRUE</ntsc>
													</rate>
													<string>00;00;00;00</string>
													<frame>0</frame>
													<displayformat>DF</displayformat>
												</timecode>
												<media>
													<video>
														<samplecharacteristics>
															<rate>
																<timebase>30</timebase>
																<ntsc>TRUE</ntsc>
															</rate>
															<width>720</width>
															<height>576</height>
															<anamorphic>TRUE</anamorphic>
															<pixelaspectratio>PAL-601</pixelaspectratio>
															<fielddominance>none</fielddominance>
														</samplecharacteristics>
													</video>
												</media>
											</file>
											<filter>
												<effect>
													<name>Basic Motion</name>
													<effectid>basic</effectid>
													<effectcategory>motion</effectcategory>
													<effecttype>motion</effecttype>
													<mediatype>video</mediatype>
													<pproBypass>false</pproBypass>
													<parameter authoringApp="PremierePro">
														<parameterid>scale</parameterid>
														<name>Scale</name>
														<valuemin>0</valuemin>
														<valuemax>1000</valuemax>
														<value>133.333</value>
													</parameter>
													<parameter authoringApp="PremierePro">
														<parameterid>rotation</parameterid>
														<name>Rotation</name>
														<valuemin>-8640</valuemin>
														<valuemax>8640</valuemax>
														<value>0</value>
													</parameter>
													<parameter authoringApp="PremierePro">
														<parameterid>center</parameterid>
														<name>Center</name>
														<value>
															<horiz>0</horiz>
															<vert>0</vert>
														</value>
													</parameter>
													<parameter authoringApp="PremierePro">
														<parameterid>centerOffset</parameterid>
														<name>Anchor Point</name>
														<value>
															<horiz>0</horiz>
															<vert>0</vert>
														</value>
													</parameter>
													<parameter authoringApp="PremierePro">
														<parameterid>antiflicker</parameterid>
														<name>Anti-flicker Filter</name>
														<valuemin>0.0</valuemin>
														<valuemax>1.0</valuemax>
														<value>0</value>
													</parameter>
												</effect>
											</filter>
											<filter>
												<effect>
													<name>Distort</name>
													<effectid>deformation</effectid>
													<effectcategory>motion</effectcategory>
													<effecttype>motion</effecttype>
													<mediatype>video</mediatype>
													<parameter authoringApp="PremierePro">
														<parameterid>aspect</parameterid>
														<name>Aspect</name>
														<valuemin>-10000</valuemin>
														<valuemax>10000</valuemax>
														<value>-33.333</value>
													</parameter>
												</effect>
											</filter>
											<filter>
												<effect>
													<name></name>
													<effectid>GraphicAndType</effectid>
													<effectcategory>graphic</effectcategory>
													<effecttype>filter</effecttype>
													<mediatype>video</mediatype>
													<pproBypass>false</pproBypass>
													<parameter authoringApp="PremierePro">
														<parameterid>1</parameterid>
														<name>Source Text</name>
														<hash>3f0faa81-c1b0-8370-b66c-fa0b000009f1</hash>
													</parameter>
													<parameter authoringApp="PremierePro">
														<parameterid>2</parameterid>
														<name>Transform</name>
														<IsTimeVarying>false</IsTimeVarying>
														<ParameterControlType>11</ParameterControlType>
														<LowerBound>false</LowerBound>
														<UpperBound>false</UpperBound>
														<value>-91445760000000000,false,0,0,0,0,0,0</value>
													</parameter>
													<parameter authoringApp="PremierePro">
														<parameterid>3</parameterid>
														<name>Position</name>
														<IsTimeVarying>false</IsTimeVarying>
														<value>-91445760000000000,0.55605381727218628:0.73039215803146362,0,0,0,0,0,0,5,4,0,0,0,0</value>
													</parameter>
													<parameter authoringApp="PremierePro">
														<parameterid>4</parameterid>
														<name>Scale</name>
														<IsTimeVarying>false</IsTimeVarying>
														<ParameterControlType>2</ParameterControlType>
														<LowerBound>0</LowerBound>
														<UpperBound>4000</UpperBound>
														<value>-91445760000000000,100.,0,0,0,0,0,0</value>
													</parameter>
													<parameter authoringApp="PremierePro">
														<parameterid>5</parameterid>
														<name>Horizontal Scale</name>
														<IsTimeVarying>false</IsTimeVarying>
														<ParameterControlType>2</ParameterControlType>
														<LowerBound>0</LowerBound>
														<UpperBound>4000</UpperBound>
														<value>-91445760000000000,100.,0,0,0,0,0,0</value>
													</parameter>
													<parameter authoringApp="PremierePro">
														<parameterid>6</parameterid>
														<name> </name>
														<IsTimeVarying>false</IsTimeVarying>
														<ParameterControlType>4</ParameterControlType>
														<LowerBound>false</LowerBound>
														<UpperBound>true</UpperBound>
														<value>-91445760000000000,true,0,0,0,0,0,0</value>
													</parameter>
													<parameter authoringApp="PremierePro">
														<parameterid>7</parameterid>
														<name>Rotation</name>
														<IsTimeVarying>false</IsTimeVarying>
														<ParameterControlType>3</ParameterControlType>
														<LowerBound>-32768</LowerBound>
														<UpperBound>32767</UpperBound>
														<value>-91445760000000000,0.,0,0,0,0,0,0</value>
													</parameter>
													<parameter authoringApp="PremierePro">
														<parameterid>8</parameterid>
														<name>Opacity</name>
														<IsTimeVarying>false</IsTimeVarying>
														<ParameterControlType>2</ParameterControlType>
														<LowerBound>0</LowerBound>
														<UpperBound>100</UpperBound>
														<value>-91445760000000000,100.,0,0,0,0,0,0</value>
													</parameter>
													<parameter authoringApp="PremierePro">
														<parameterid>9</parameterid>
														<name>Anchor Point</name>
														<IsTimeVarying>false</IsTimeVarying>
														<value>-91445760000000000,0:0,0,0,0,0,0,0,5,4,0,0,0,0</value>
													</parameter>
													<parameter authoringApp="PremierePro">
														<parameterid>10</parameterid>
														<name></name>
														<IsTimeVarying>false</IsTimeVarying>
														<ParameterControlType>12</ParameterControlType>
														<LowerBound>false</LowerBound>
														<UpperBound>false</UpperBound>
														<value>-91445760000000000,false,0,0,0,0,0,0</value>
													</parameter>
													<parameter authoringApp="PremierePro">
														<parameterid>11</parameterid>
														<name> </name>
														<IsTimeVarying>false</IsTimeVarying>
														<ParameterControlType>8</ParameterControlType>
														<LowerBound>0</LowerBound>
														<UpperBound>32768</UpperBound>
														<value>-91445760000000000,0.,0,0,0,0,0,0</value>
													</parameter>
													<parameter authoringApp="PremierePro">
														<parameterid>12</parameterid>
														<name> </name>
														<IsTimeVarying>false</IsTimeVarying>
														<ParameterControlType>8</ParameterControlType>
														<LowerBound>0</LowerBound>
														<UpperBound>32768</UpperBound>
														<value>-91445760000000000,0.,0,0,0,0,0,0</value>
													</parameter>
													<parameter authoringApp="PremierePro">
														<parameterid>13</parameterid>
														<name>start</name>
														<IsTimeVarying>false</IsTimeVarying>
														<ParameterControlType>8</ParameterControlType>
														<LowerBound>-100</LowerBound>
														<UpperBound>1000000000</UpperBound>
														<value>-91445760000000000,0.,0,0,0,0,0,0</value>
													</parameter>
													<parameter authoringApp="PremierePro">
														<parameterid>14</parameterid>
														<name>end</name>
														<IsTimeVarying>false</IsTimeVarying>
														<ParameterControlType>8</ParameterControlType>
														<LowerBound>-100</LowerBound>
														<UpperBound>1000000000</UpperBound>
														<value>-91445760000000000,0.,0,0,0,0,0,0</value>
													</parameter>
													<parameter authoringApp="PremierePro">
														<parameterid>15</parameterid>
														<name> </name>
														<IsTimeVarying>false</IsTimeVarying>
														<ParameterControlType>4</ParameterControlType>
														<LowerBound>false</LowerBound>
														<UpperBound>true</UpperBound>
														<value>-91445760000000000,false,0,0,0,0,0,0</value>
													</parameter>
													<parameter authoringApp="PremierePro">
														<parameterid>16</parameterid>
														<name> </name>
														<IsTimeVarying>false</IsTimeVarying>
														<ParameterControlType>4</ParameterControlType>
														<LowerBound>false</LowerBound>
														<UpperBound>true</UpperBound>
														<value>-91445760000000000,false,0,0,0,0,0,0</value>
													</parameter>
													<parameter authoringApp="PremierePro">
														<parameterid>17</parameterid>
														<name> </name>
														<IsTimeVarying>false</IsTimeVarying>
														<ParameterControlType>4</ParameterControlType>
														<LowerBound>false</LowerBound>
														<UpperBound>true</UpperBound>
														<value>-91445760000000000,false,0,0,0,0,0,0</value>
													</parameter>
													<parameter authoringApp="PremierePro">
														<parameterid>18</parameterid>
														<name> </name>
														<IsTimeVarying>false</IsTimeVarying>
														<ParameterControlType>4</ParameterControlType>
														<LowerBound>false</LowerBound>
														<UpperBound>true</UpperBound>
														<value>-91445760000000000,false,0,0,0,0,0,0</value>
													</parameter>
													<parameter authoringApp="PremierePro">
														<parameterid>19</parameterid>
														<name>Parent Width</name>
														<IsTimeVarying>false</IsTimeVarying>
														<ParameterControlType>2</ParameterControlType>
														<LowerBound>0</LowerBound>
														<UpperBound>20000</UpperBound>
														<value>-91445760000000000,0.,0,0,0,0,0,0</value>
													</parameter>
													<parameter authoringApp="PremierePro">
														<parameterid>20</parameterid>
														<name>Parent Height</name>
														<IsTimeVarying>false</IsTimeVarying>
														<ParameterControlType>2</ParameterControlType>
														<LowerBound>0</LowerBound>
														<UpperBound>20000</UpperBound>
														<value>-91445760000000000,0.,0,0,0,0,0,0</value>
													</parameter>
													<parameter authoringApp="PremierePro">
														<parameterid>21</parameterid>
														<name>Parent Rotation</name>
														<IsTimeVarying>false</IsTimeVarying>
														<ParameterControlType>3</ParameterControlType>
														<LowerBound>-32768</LowerBound>
														<UpperBound>32767</UpperBound>
														<value>-91445760000000000,0.,0,0,0,0,0,0</value>
													</parameter>
												</effect>
											</filter>
											<logginginfo>
												<description></description>
												<scene></scene>
												<shottake></shottake>
												<lognote></lognote>
												<good></good>
												<originalvideofilename></originalvideofilename>
												<originalaudiofilename></originalaudiofilename>
											</logginginfo>
											<colorinfo>
												<lut></lut>
												<lut1></lut1>
												<asc_sop></asc_sop>
												<asc_sat></asc_sat>
												<lut2></lut2>
											</colorinfo>
										</clipitem>
										<enabled>TRUE</enabled>
										<locked>FALSE</locked>
									</track>
									<track TL.SQTrackShy="0" TL.SQTrackExpandedHeight="25" TL.SQTrackExpanded="0" MZ.TrackTargeted="0">
										<clipitem id="clipitem-1244">
											<masterclipid>masterclip-539</masterclipid>
											<name>Nested Sequence 02</name>
											<enabled>TRUE</enabled>
											<duration>225</duration>
											<rate>
												<timebase>25</timebase>
												<ntsc>FALSE</ntsc>
											</rate>
											<start>130</start>
											<end>341</end>
											<in>0</in>
											<out>211</out>
											<pproTicksIn>0</pproTicksIn>
											<pproTicksOut>2143895040000</pproTicksOut>
											<sequence id="sequence-97"/>
											<filter>
												<effect>
													<name>Basic Motion</name>
													<effectid>basic</effectid>
													<effectcategory>motion</effectcategory>
													<effecttype>motion</effecttype>
													<mediatype>video</mediatype>
													<pproBypass>false</pproBypass>
													<parameter authoringApp="PremierePro">
														<parameterid>scale</parameterid>
														<name>Scale</name>
														<valuemin>0</valuemin>
														<valuemax>1000</valuemax>
														<value>100</value>
													</parameter>
													<parameter authoringApp="PremierePro">
														<parameterid>rotation</parameterid>
														<name>Rotation</name>
														<valuemin>-8640</valuemin>
														<valuemax>8640</valuemax>
														<value>0</value>
													</parameter>
													<parameter authoringApp="PremierePro">
														<parameterid>center</parameterid>
														<name>Center</name>
														<value>
															<horiz>-0.5</horiz>
															<vert>-0.5</vert>
														</value>
													</parameter>
													<parameter authoringApp="PremierePro">
														<parameterid>centerOffset</parameterid>
														<name>Anchor Point</name>
														<value>
															<horiz>0</horiz>
															<vert>0</vert>
														</value>
													</parameter>
													<parameter authoringApp="PremierePro">
														<parameterid>antiflicker</parameterid>
														<name>Anti-flicker Filter</name>
														<valuemin>0.0</valuemin>
														<valuemax>1.0</valuemax>
														<value>0</value>
													</parameter>
												</effect>
											</filter>
											<filter>
												<effect>
													<name>Opacity</name>
													<effectid>opacity</effectid>
													<effectcategory>motion</effectcategory>
													<effecttype>motion</effecttype>
													<mediatype>video</mediatype>
													<pproBypass>false</pproBypass>
													<parameter authoringApp="PremierePro">
														<parameterid>opacity</parameterid>
														<name>opacity</name>
														<valuemin>0</valuemin>
														<valuemax>100</valuemax>
														<value>100</value>
													</parameter>
												</effect>
											</filter>
											<labels>
												<label2>Forest</label2>
											</labels>
										</clipitem>
										<clipitem id="clipitem-1245">
											<masterclipid>masterclip-539</masterclipid>
											<name>Nested Sequence 02</name>
											<enabled>TRUE</enabled>
											<duration>225</duration>
											<rate>
												<timebase>25</timebase>
												<ntsc>FALSE</ntsc>
											</rate>
											<start>341</start>
											<end>352</end>
											<in>214</in>
											<out>225</out>
											<pproTicksIn>2174376960000</pproTicksIn>
											<pproTicksOut>2286144000000</pproTicksOut>
											<sequence id="sequence-97"/>
											<filter>
												<effect>
													<name>Basic Motion</name>
													<effectid>basic</effectid>
													<effectcategory>motion</effectcategory>
													<effecttype>motion</effecttype>
													<mediatype>video</mediatype>
													<pproBypass>false</pproBypass>
													<parameter authoringApp="PremierePro">
														<parameterid>scale</parameterid>
														<name>Scale</name>
														<valuemin>0</valuemin>
														<valuemax>1000</valuemax>
														<value>100</value>
													</parameter>
													<parameter authoringApp="PremierePro">
														<parameterid>rotation</parameterid>
														<name>Rotation</name>
														<valuemin>-8640</valuemin>
														<valuemax>8640</valuemax>
														<value>0</value>
													</parameter>
													<parameter authoringApp="PremierePro">
														<parameterid>center</parameterid>
														<name>Center</name>
														<value>
															<horiz>-0.5</horiz>
															<vert>-0.5</vert>
														</value>
													</parameter>
													<parameter authoringApp="PremierePro">
														<parameterid>centerOffset</parameterid>
														<name>Anchor Point</name>
														<value>
															<horiz>0</horiz>
															<vert>0</vert>
														</value>
													</parameter>
													<parameter authoringApp="PremierePro">
														<parameterid>antiflicker</parameterid>
														<name>Anti-flicker Filter</name>
														<valuemin>0.0</valuemin>
														<valuemax>1.0</valuemax>
														<value>0</value>
													</parameter>
												</effect>
											</filter>
											<filter>
												<effect>
													<name>Opacity</name>
													<effectid>opacity</effectid>
													<effectcategory>motion</effectcategory>
													<effecttype>motion</effecttype>
													<mediatype>video</mediatype>
													<pproBypass>false</pproBypass>
													<parameter authoringApp="PremierePro">
														<parameterid>opacity</parameterid>
														<name>opacity</name>
														<valuemin>0</valuemin>
														<valuemax>100</valuemax>
														<value>100</value>
													</parameter>
												</effect>
											</filter>
											<labels>
												<label2>Forest</label2>
											</labels>
										</clipitem>
										<enabled>TRUE</enabled>
										<locked>FALSE</locked>
									</track>
									<track TL.SQTrackShy="0" TL.SQTrackExpandedHeight="25" TL.SQTrackExpanded="0" MZ.TrackTargeted="0">
										<transitionitem>
											<start>172</start>
											<end>229</end>
											<alignment>start-black</alignment>
											<cutPointTicks>0</cutPointTicks>
											<rate>
												<timebase>25</timebase>
												<ntsc>FALSE</ntsc>
											</rate>
											<effect>
												<name>Edge Wipe</name>
												<effectid>Edge Wipe</effectid>
												<effectcategory>Wipe</effectcategory>
												<effecttype>transition</effecttype>
												<mediatype>video</mediatype>
												<wipecode>2</wipecode>
												<wipeaccuracy>100</wipeaccuracy>
												<startratio>0</startratio>
												<endratio>1</endratio>
												<reverse>FALSE</reverse>
												<parameter authoringApp="PremierePro">
													<parameterid>directionofwipe</parameterid>
													<name>Angle</name>
													<valuemin>-360</valuemin>
													<valuemax>360</valuemax>
													<value>90</value>
												</parameter>
											</effect>
										</transitionitem>
										<clipitem id="clipitem-1246">
											<masterclipid>masterclip-542</masterclipid>
											<name>9.png</name>
											<enabled>TRUE</enabled>
											<duration>1080000</duration>
											<rate>
												<timebase>25</timebase>
												<ntsc>FALSE</ntsc>
											</rate>
											<start>-1</start>
											<end>-1</end>
											<in>90047</in>
											<out>90225</out>
											<pproTicksIn>914935150080000</pproTicksIn>
											<pproTicksOut>916743744000000</pproTicksOut>
											<alphatype>straight</alphatype>
											<pixelaspectratio>square</pixelaspectratio>
											<anamorphic>FALSE</anamorphic>
											<file id="file-452">
												<name>9.png</name>
												<pathurl>file://localhost/_MUZ_TV/project_AP/RU/_TITLE/468/9.png</pathurl>
												<rate>
													<timebase>30</timebase>
													<ntsc>TRUE</ntsc>
												</rate>
												<timecode>
													<rate>
														<timebase>30</timebase>
														<ntsc>TRUE</ntsc>
													</rate>
													<string>00;00;00;00</string>
													<frame>0</frame>
													<displayformat>DF</displayformat>
												</timecode>
												<media>
													<video>
														<samplecharacteristics>
															<rate>
																<timebase>30</timebase>
																<ntsc>TRUE</ntsc>
															</rate>
															<width>1920</width>
															<height>1080</height>
															<anamorphic>FALSE</anamorphic>
															<pixelaspectratio>square</pixelaspectratio>
															<fielddominance>none</fielddominance>
														</samplecharacteristics>
													</video>
												</media>
											</file>
											<filter>
												<effect>
													<name>Basic Motion</name>
													<effectid>basic</effectid>
													<effectcategory>motion</effectcategory>
													<effecttype>motion</effecttype>
													<mediatype>video</mediatype>
													<pproBypass>false</pproBypass>
													<parameter authoringApp="PremierePro">
														<parameterid>scale</parameterid>
														<name>Scale</name>
														<valuemin>0</valuemin>
														<valuemax>1000</valuemax>
														<value>53.3333</value>
													</parameter>
													<parameter authoringApp="PremierePro">
														<parameterid>rotation</parameterid>
														<name>Rotation</name>
														<valuemin>-8640</valuemin>
														<valuemax>8640</valuemax>
														<value>0</value>
													</parameter>
													<parameter authoringApp="PremierePro">
														<parameterid>center</parameterid>
														<name>Center</name>
														<value>
															<horiz>0</horiz>
															<vert>0</vert>
														</value>
													</parameter>
													<parameter authoringApp="PremierePro">
														<parameterid>centerOffset</parameterid>
														<name>Anchor Point</name>
														<value>
															<horiz>0</horiz>
															<vert>0</vert>
														</value>
													</parameter>
													<parameter authoringApp="PremierePro">
														<parameterid>antiflicker</parameterid>
														<name>Anti-flicker Filter</name>
														<valuemin>0.0</valuemin>
														<valuemax>1.0</valuemax>
														<value>0</value>
													</parameter>
												</effect>
											</filter>
											<logginginfo>
												<description></description>
												<scene></scene>
												<shottake></shottake>
												<lognote></lognote>
												<good></good>
												<originalvideofilename></originalvideofilename>
												<originalaudiofilename></originalaudiofilename>
											</logginginfo>
											<colorinfo>
												<lut></lut>
												<lut1></lut1>
												<asc_sop></asc_sop>
												<asc_sat></asc_sat>
												<lut2></lut2>
											</colorinfo>
											<labels>
												<label2>Lavender</label2>
											</labels>
										</clipitem>
										<transitionitem>
											<start>328</start>
											<end>350</end>
											<alignment>end-black</alignment>
											<cutPointTicks>223534080000</cutPointTicks>
											<rate>
												<timebase>25</timebase>
												<ntsc>FALSE</ntsc>
											</rate>
											<effect>
												<name>Edge Wipe</name>
												<effectid>Edge Wipe</effectid>
												<effectcategory>Wipe</effectcategory>
												<effecttype>transition</effecttype>
												<mediatype>video</mediatype>
												<wipecode>2</wipecode>
												<wipeaccuracy>100</wipeaccuracy>
												<startratio>0</startratio>
												<endratio>1</endratio>
												<reverse>FALSE</reverse>
												<parameter authoringApp="PremierePro">
													<parameterid>directionofwipe</parameterid>
													<name>Angle</name>
													<valuemin>-360</valuemin>
													<valuemax>360</valuemax>
													<value>90</value>
												</parameter>
											</effect>
										</transitionitem>
										<enabled>TRUE</enabled>
										<locked>FALSE</locked>
									</track>
								</video>
								<audio>
									<numOutputChannels>2</numOutputChannels>
									<format>
										<samplecharacteristics>
											<depth>16</depth>
											<samplerate>48000</samplerate>
										</samplecharacteristics>
									</format>
									<outputs>
										<group>
											<index>1</index>
											<numchannels>1</numchannels>
											<downmix>0</downmix>
											<channel>
												<index>1</index>
											</channel>
										</group>
										<group>
											<index>2</index>
											<numchannels>1</numchannels>
											<downmix>0</downmix>
											<channel>
												<index>2</index>
											</channel>
										</group>
									</outputs>
									<track TL.SQTrackAudioKeyframeStyle="0" TL.SQTrackShy="0" TL.SQTrackExpandedHeight="25" TL.SQTrackExpanded="0" MZ.TrackTargeted="1" PannerCurrentValue="0.5" PannerStartKeyframe="-91445760000000000,0.5,0,0,0,0,0,0" PannerName="Balance" currentExplodedTrackIndex="0" totalExplodedTrackCount="2" premiereTrackType="Stereo">
										<enabled>TRUE</enabled>
										<locked>FALSE</locked>
										<outputchannelindex>1</outputchannelindex>
									</track>
									<track TL.SQTrackAudioKeyframeStyle="0" TL.SQTrackShy="0" TL.SQTrackExpandedHeight="25" TL.SQTrackExpanded="0" MZ.TrackTargeted="1" PannerCurrentValue="0.5" PannerStartKeyframe="-91445760000000000,0.5,0,0,0,0,0,0" PannerName="Balance" currentExplodedTrackIndex="1" totalExplodedTrackCount="2" premiereTrackType="Stereo">
										<enabled>TRUE</enabled>
										<locked>FALSE</locked>
										<outputchannelindex>2</outputchannelindex>
									</track>
								</audio>
							</media>
							<timecode>
								<rate>
									<timebase>25</timebase>
									<ntsc>FALSE</ntsc>
								</rate>
								<string>00:00:00:00</string>
								<frame>0</frame>
								<displayformat>NDF</displayformat>
							</timecode>
								<marker>
									<comment></comment>
									<name></name>
									<in>125</in>
									<out>-1</out>
									<pproColor>4280578025</pproColor>
								</marker>
							<logginginfo>
								<description></description>
								<scene></scene>
								<shottake></shottake>
								<lognote></lognote>
								<good></good>
								<originalvideofilename></originalvideofilename>
								<originalaudiofilename></originalaudiofilename>
							</logginginfo>
						</sequence>
							<marker>
								<comment></comment>
								<name></name>
								<in>125</in>
								<out>-1</out>
								<pproColor>4280578025</pproColor>
							</marker>
						<labels>
							<label2>Forest</label2>
						</labels>
					</clipitem>
					<clipitem id="clipitem-1247">
						<masterclipid>masterclip-538</masterclipid>
						<name>9</name>
						<enabled>TRUE</enabled>
						<duration>475</duration>
						<rate>
							<timebase>25</timebase>
							<ntsc>FALSE</ntsc>
						</rate>
						<start>23591</start>
						<end>23942</end>
						<in>124</in>
						<out>475</out>
						<pproTicksIn>1259919360000</pproTicksIn>
						<pproTicksOut>4826304000000</pproTicksOut>
						<sequence id="sequence-96"/>
							<marker>
								<comment></comment>
								<name></name>
								<in>125</in>
								<out>-1</out>
								<pproColor>4280578025</pproColor>
							</marker>
						<labels>
							<label2>Forest</label2>
						</labels>
					</clipitem>
					<clipitem id="clipitem-1248">
						<masterclipid>masterclip-543</masterclipid>
						<name>8_TITLE</name>
						<enabled>TRUE</enabled>
						<duration>475</duration>
						<rate>
							<timebase>25</timebase>
							<ntsc>FALSE</ntsc>
						</rate>
						<start>24657</start>
						<end>25007</end>
						<in>0</in>
						<out>475</out>
						<pproTicksIn>0</pproTicksIn>
						<pproTicksOut>4826304000000</pproTicksOut>
						<sequence id="sequence-98" TL.SQAudioVisibleBase="0" TL.SQVideoVisibleBase="0" TL.SQVisibleBaseTime="0" TL.SQAVDividerPosition="0.5" TL.SQHideShyTracks="0" TL.SQHeaderWidth="236" TL.SQDataTrackViewControlState="0" Monitor.ProgramZoomOut="4826304000000" Monitor.ProgramZoomIn="0" TL.SQTimePerPixel="0.024999999999999998" AM.TrackVScrollPosition="0" AM.TrackScrollPosition="0" MZ.EditLine="1473292800000" MZ.Sequence.PreviewFrameSizeHeight="576" MZ.Sequence.PreviewFrameSizeWidth="720" MZ.Sequence.AudioTimeDisplayFormat="200" MZ.Sequence.PreviewRenderingClassID="1061109567" MZ.Sequence.PreviewRenderingPresetCodec="1685480304" MZ.Sequence.PreviewRenderingPresetPath="EncoderPresets/SequencePreview/04be6e19-a018-4e0c-a9d6-0ab44c64752b/QuickTime DV PAL.epr" MZ.Sequence.PreviewUseMaxRenderQuality="false" MZ.Sequence.PreviewUseMaxBitDepth="false" MZ.Sequence.EditingModeGUID="04be6e19-a018-4e0c-a9d6-0ab44c64752b" MZ.Sequence.VideoTimeDisplayFormat="101" MZ.WorkOutPoint="4826304000000" MZ.WorkInPoint="0" MZ.ZeroPoint="0">
							<duration>475</duration>
							<rate>
								<timebase>25</timebase>
								<ntsc>FALSE</ntsc>
							</rate>
							<name>титр</name>
							<media>
								<video>
									<format>
										<samplecharacteristics>
											<rate>
												<timebase>25</timebase>
												<ntsc>FALSE</ntsc>
											</rate>
											<codec>
												<name>Apple ProRes 422</name>
												<appspecificdata>
													<appname>Final Cut Pro</appname>
													<appmanufacturer>Apple Inc.</appmanufacturer>
													<appversion>7.0</appversion>
													<data>
														<qtcodec>
															<codecname>Apple ProRes 422</codecname>
															<codectypename>Apple ProRes 422</codectypename>
															<codectypecode>apcn</codectypecode>
															<codecvendorcode>appl</codecvendorcode>
															<spatialquality>1024</spatialquality>
															<temporalquality>0</temporalquality>
															<keyframerate>0</keyframerate>
															<datarate>0</datarate>
														</qtcodec>
													</data>
												</appspecificdata>
											</codec>
											<width>720</width>
											<height>576</height>
											<anamorphic>TRUE</anamorphic>
											<pixelaspectratio>PAL-601</pixelaspectratio>
											<fielddominance>lower</fielddominance>
											<colordepth>24</colordepth>
										</samplecharacteristics>
									</format>
									<track TL.SQTrackShy="0" TL.SQTrackExpandedHeight="25" TL.SQTrackExpanded="0" MZ.TrackTargeted="1">
										<clipitem id="clipitem-1249">
											<masterclipid>masterclip-544</masterclipid>
											<name>9_title.mov</name>
											<enabled>TRUE</enabled>
											<duration>225</duration>
											<rate>
												<timebase>25</timebase>
												<ntsc>FALSE</ntsc>
											</rate>
											<start>125</start>
											<end>350</end>
											<in>0</in>
											<out>225</out>
											<pproTicksIn>0</pproTicksIn>
											<pproTicksOut>2286144000000</pproTicksOut>
											<alphatype>straight</alphatype>
											<pixelaspectratio>square</pixelaspectratio>
											<anamorphic>FALSE</anamorphic>
											<file id="file-453">
												<name>8_title.mov</name>
												<pathurl>file://localhost/_MUZ_TV/graphika/RU-21/MOD/title_plashka/8_title.mov</pathurl>
												<rate>
													<timebase>25</timebase>
													<ntsc>FALSE</ntsc>
												</rate>
												<duration>225</duration>
												<timecode>
													<rate>
														<timebase>25</timebase>
														<ntsc>FALSE</ntsc>
													</rate>
													<string>00:00:18:00</string>
													<frame>450</frame>
													<displayformat>NDF</displayformat>
												</timecode>
												<media>
													<video>
														<samplecharacteristics>
															<rate>
																<timebase>25</timebase>
																<ntsc>FALSE</ntsc>
															</rate>
															<width>1920</width>
															<height>1080</height>
															<anamorphic>FALSE</anamorphic>
															<pixelaspectratio>square</pixelaspectratio>
															<fielddominance>none</fielddominance>
														</samplecharacteristics>
													</video>
												</media>
											</file>
											<filter>
												<effect>
													<name>Basic Motion</name>
													<effectid>basic</effectid>
													<effectcategory>motion</effectcategory>
													<effecttype>motion</effecttype>
													<mediatype>video</mediatype>
													<pproBypass>false</pproBypass>
													<parameter authoringApp="PremierePro">
														<parameterid>scale</parameterid>
														<name>Scale</name>
														<valuemin>0</valuemin>
														<valuemax>1000</valuemax>
														<value>55</value>
													</parameter>
													<parameter authoringApp="PremierePro">
														<parameterid>rotation</parameterid>
														<name>Rotation</name>
														<valuemin>-8640</valuemin>
														<valuemax>8640</valuemax>
														<value>0</value>
													</parameter>
													<parameter authoringApp="PremierePro">
														<parameterid>center</parameterid>
														<name>Center</name>
														<value>
															<horiz>0</horiz>
															<vert>0</vert>
														</value>
													</parameter>
													<parameter authoringApp="PremierePro">
														<parameterid>centerOffset</parameterid>
														<name>Anchor Point</name>
														<value>
															<horiz>0</horiz>
															<vert>0</vert>
														</value>
													</parameter>
													<parameter authoringApp="PremierePro">
														<parameterid>antiflicker</parameterid>
														<name>Anti-flicker Filter</name>
														<valuemin>0.0</valuemin>
														<valuemax>1.0</valuemax>
														<value>0</value>
													</parameter>
												</effect>
											</filter>
											<filter>
												<effect>
													<name>Distort</name>
													<effectid>deformation</effectid>
													<effectcategory>motion</effectcategory>
													<effecttype>motion</effecttype>
													<mediatype>video</mediatype>
													<parameter authoringApp="PremierePro">
														<parameterid>aspect</parameterid>
														<name>Aspect</name>
														<valuemin>-10000</valuemin>
														<valuemax>10000</valuemax>
														<value>-3.12506</value>
													</parameter>
												</effect>
											</filter>
											<logginginfo>
												<description></description>
												<scene></scene>
												<shottake></shottake>
												<lognote></lognote>
												<good></good>
												<originalvideofilename></originalvideofilename>
												<originalaudiofilename></originalaudiofilename>
											</logginginfo>
											<colorinfo>
												<lut></lut>
												<lut1></lut1>
												<asc_sop></asc_sop>
												<asc_sat></asc_sat>
												<lut2></lut2>
											</colorinfo>
											<labels>
												<label2>Violet</label2>
											</labels>
										</clipitem>
										<clipitem id="clipitem-1250">
											<masterclipid>masterclip-545</masterclipid>
											<name>Graphic</name>
											<enabled>FALSE</enabled>
											<duration>1080000</duration>
											<rate>
												<timebase>25</timebase>
												<ntsc>FALSE</ntsc>
											</rate>
											<start>350</start>
											<end>475</end>
											<in>90000</in>
											<out>90125</out>
											<pproTicksIn>914457600000000</pproTicksIn>
											<pproTicksOut>915727680000000</pproTicksOut>
											<alphatype>straight</alphatype>
											<pixelaspectratio>PAL-601</pixelaspectratio>
											<anamorphic>TRUE</anamorphic>
											<file id="file-454">
												<name>Graphic</name>
												<mediaSource>GraphicAndType</mediaSource>
												<rate>
													<timebase>30</timebase>
													<ntsc>TRUE</ntsc>
												</rate>
												<timecode>
													<rate>
														<timebase>30</timebase>
														<ntsc>TRUE</ntsc>
													</rate>
													<string>00;00;00;00</string>
													<frame>0</frame>
													<displayformat>DF</displayformat>
												</timecode>
												<media>
													<video>
														<samplecharacteristics>
															<rate>
																<timebase>30</timebase>
																<ntsc>TRUE</ntsc>
															</rate>
															<width>720</width>
															<height>576</height>
															<anamorphic>TRUE</anamorphic>
															<pixelaspectratio>PAL-601</pixelaspectratio>
															<fielddominance>none</fielddominance>
														</samplecharacteristics>
													</video>
												</media>
											</file>
											<filter>
												<effect>
													<name>Basic Motion</name>
													<effectid>basic</effectid>
													<effectcategory>motion</effectcategory>
													<effecttype>motion</effecttype>
													<mediatype>video</mediatype>
													<pproBypass>false</pproBypass>
													<parameter authoringApp="PremierePro">
														<parameterid>scale</parameterid>
														<name>Scale</name>
														<valuemin>0</valuemin>
														<valuemax>1000</valuemax>
														<value>133.333</value>
													</parameter>
													<parameter authoringApp="PremierePro">
														<parameterid>rotation</parameterid>
														<name>Rotation</name>
														<valuemin>-8640</valuemin>
														<valuemax>8640</valuemax>
														<value>0</value>
													</parameter>
													<parameter authoringApp="PremierePro">
														<parameterid>center</parameterid>
														<name>Center</name>
														<value>
															<horiz>0</horiz>
															<vert>0</vert>
														</value>
													</parameter>
													<parameter authoringApp="PremierePro">
														<parameterid>centerOffset</parameterid>
														<name>Anchor Point</name>
														<value>
															<horiz>0</horiz>
															<vert>0</vert>
														</value>
													</parameter>
													<parameter authoringApp="PremierePro">
														<parameterid>antiflicker</parameterid>
														<name>Anti-flicker Filter</name>
														<valuemin>0.0</valuemin>
														<valuemax>1.0</valuemax>
														<value>0</value>
													</parameter>
												</effect>
											</filter>
											<filter>
												<effect>
													<name>Distort</name>
													<effectid>deformation</effectid>
													<effectcategory>motion</effectcategory>
													<effecttype>motion</effecttype>
													<mediatype>video</mediatype>
													<parameter authoringApp="PremierePro">
														<parameterid>aspect</parameterid>
														<name>Aspect</name>
														<valuemin>-10000</valuemin>
														<valuemax>10000</valuemax>
														<value>-33.333</value>
													</parameter>
												</effect>
											</filter>
											<filter>
												<effect>
													<name></name>
													<effectid>GraphicAndType</effectid>
													<effectcategory>graphic</effectcategory>
													<effecttype>filter</effecttype>
													<mediatype>video</mediatype>
													<pproBypass>false</pproBypass>
													<parameter authoringApp="PremierePro">
														<parameterid>1</parameterid>
														<name>Source Text</name>
														<hash>3f0faa81-c1b0-8370-b66c-fa0b000009f1</hash>
													</parameter>
													<parameter authoringApp="PremierePro">
														<parameterid>2</parameterid>
														<name>Transform</name>
														<IsTimeVarying>false</IsTimeVarying>
														<ParameterControlType>11</ParameterControlType>
														<LowerBound>false</LowerBound>
														<UpperBound>false</UpperBound>
														<value>-91445760000000000,false,0,0,0,0,0,0</value>
													</parameter>
													<parameter authoringApp="PremierePro">
														<parameterid>3</parameterid>
														<name>Position</name>
														<IsTimeVarying>false</IsTimeVarying>
														<value>-91445760000000000,0.55605381727218628:0.73039215803146362,0,0,0,0,0,0,5,4,0,0,0,0</value>
													</parameter>
													<parameter authoringApp="PremierePro">
														<parameterid>4</parameterid>
														<name>Scale</name>
														<IsTimeVarying>false</IsTimeVarying>
														<ParameterControlType>2</ParameterControlType>
														<LowerBound>0</LowerBound>
														<UpperBound>4000</UpperBound>
														<value>-91445760000000000,100.,0,0,0,0,0,0</value>
													</parameter>
													<parameter authoringApp="PremierePro">
														<parameterid>5</parameterid>
														<name>Horizontal Scale</name>
														<IsTimeVarying>false</IsTimeVarying>
														<ParameterControlType>2</ParameterControlType>
														<LowerBound>0</LowerBound>
														<UpperBound>4000</UpperBound>
														<value>-91445760000000000,100.,0,0,0,0,0,0</value>
													</parameter>
													<parameter authoringApp="PremierePro">
														<parameterid>6</parameterid>
														<name> </name>
														<IsTimeVarying>false</IsTimeVarying>
														<ParameterControlType>4</ParameterControlType>
														<LowerBound>false</LowerBound>
														<UpperBound>true</UpperBound>
														<value>-91445760000000000,true,0,0,0,0,0,0</value>
													</parameter>
													<parameter authoringApp="PremierePro">
														<parameterid>7</parameterid>
														<name>Rotation</name>
														<IsTimeVarying>false</IsTimeVarying>
														<ParameterControlType>3</ParameterControlType>
														<LowerBound>-32768</LowerBound>
														<UpperBound>32767</UpperBound>
														<value>-91445760000000000,0.,0,0,0,0,0,0</value>
													</parameter>
													<parameter authoringApp="PremierePro">
														<parameterid>8</parameterid>
														<name>Opacity</name>
														<IsTimeVarying>false</IsTimeVarying>
														<ParameterControlType>2</ParameterControlType>
														<LowerBound>0</LowerBound>
														<UpperBound>100</UpperBound>
														<value>-91445760000000000,100.,0,0,0,0,0,0</value>
													</parameter>
													<parameter authoringApp="PremierePro">
														<parameterid>9</parameterid>
														<name>Anchor Point</name>
														<IsTimeVarying>false</IsTimeVarying>
														<value>-91445760000000000,0:0,0,0,0,0,0,0,5,4,0,0,0,0</value>
													</parameter>
													<parameter authoringApp="PremierePro">
														<parameterid>10</parameterid>
														<name></name>
														<IsTimeVarying>false</IsTimeVarying>
														<ParameterControlType>12</ParameterControlType>
														<LowerBound>false</LowerBound>
														<UpperBound>false</UpperBound>
														<value>-91445760000000000,false,0,0,0,0,0,0</value>
													</parameter>
													<parameter authoringApp="PremierePro">
														<parameterid>11</parameterid>
														<name> </name>
														<IsTimeVarying>false</IsTimeVarying>
														<ParameterControlType>8</ParameterControlType>
														<LowerBound>0</LowerBound>
														<UpperBound>32768</UpperBound>
														<value>-91445760000000000,0.,0,0,0,0,0,0</value>
													</parameter>
													<parameter authoringApp="PremierePro">
														<parameterid>12</parameterid>
														<name> </name>
														<IsTimeVarying>false</IsTimeVarying>
														<ParameterControlType>8</ParameterControlType>
														<LowerBound>0</LowerBound>
														<UpperBound>32768</UpperBound>
														<value>-91445760000000000,0.,0,0,0,0,0,0</value>
													</parameter>
													<parameter authoringApp="PremierePro">
														<parameterid>13</parameterid>
														<name>start</name>
														<IsTimeVarying>false</IsTimeVarying>
														<ParameterControlType>8</ParameterControlType>
														<LowerBound>-100</LowerBound>
														<UpperBound>1000000000</UpperBound>
														<value>-91445760000000000,0.,0,0,0,0,0,0</value>
													</parameter>
													<parameter authoringApp="PremierePro">
														<parameterid>14</parameterid>
														<name>end</name>
														<IsTimeVarying>false</IsTimeVarying>
														<ParameterControlType>8</ParameterControlType>
														<LowerBound>-100</LowerBound>
														<UpperBound>1000000000</UpperBound>
														<value>-91445760000000000,0.,0,0,0,0,0,0</value>
													</parameter>
													<parameter authoringApp="PremierePro">
														<parameterid>15</parameterid>
														<name> </name>
														<IsTimeVarying>false</IsTimeVarying>
														<ParameterControlType>4</ParameterControlType>
														<LowerBound>false</LowerBound>
														<UpperBound>true</UpperBound>
														<value>-91445760000000000,false,0,0,0,0,0,0</value>
													</parameter>
													<parameter authoringApp="PremierePro">
														<parameterid>16</parameterid>
														<name> </name>
														<IsTimeVarying>false</IsTimeVarying>
														<ParameterControlType>4</ParameterControlType>
														<LowerBound>false</LowerBound>
														<UpperBound>true</UpperBound>
														<value>-91445760000000000,false,0,0,0,0,0,0</value>
													</parameter>
													<parameter authoringApp="PremierePro">
														<parameterid>17</parameterid>
														<name> </name>
														<IsTimeVarying>false</IsTimeVarying>
														<ParameterControlType>4</ParameterControlType>
														<LowerBound>false</LowerBound>
														<UpperBound>true</UpperBound>
														<value>-91445760000000000,false,0,0,0,0,0,0</value>
													</parameter>
													<parameter authoringApp="PremierePro">
														<parameterid>18</parameterid>
														<name> </name>
														<IsTimeVarying>false</IsTimeVarying>
														<ParameterControlType>4</ParameterControlType>
														<LowerBound>false</LowerBound>
														<UpperBound>true</UpperBound>
														<value>-91445760000000000,false,0,0,0,0,0,0</value>
													</parameter>
													<parameter authoringApp="PremierePro">
														<parameterid>19</parameterid>
														<name>Parent Width</name>
														<IsTimeVarying>false</IsTimeVarying>
														<ParameterControlType>2</ParameterControlType>
														<LowerBound>0</LowerBound>
														<UpperBound>20000</UpperBound>
														<value>-91445760000000000,0.,0,0,0,0,0,0</value>
													</parameter>
													<parameter authoringApp="PremierePro">
														<parameterid>20</parameterid>
														<name>Parent Height</name>
														<IsTimeVarying>false</IsTimeVarying>
														<ParameterControlType>2</ParameterControlType>
														<LowerBound>0</LowerBound>
														<UpperBound>20000</UpperBound>
														<value>-91445760000000000,0.,0,0,0,0,0,0</value>
													</parameter>
													<parameter authoringApp="PremierePro">
														<parameterid>21</parameterid>
														<name>Parent Rotation</name>
														<IsTimeVarying>false</IsTimeVarying>
														<ParameterControlType>3</ParameterControlType>
														<LowerBound>-32768</LowerBound>
														<UpperBound>32767</UpperBound>
														<value>-91445760000000000,0.,0,0,0,0,0,0</value>
													</parameter>
												</effect>
											</filter>
											<logginginfo>
												<description></description>
												<scene></scene>
												<shottake></shottake>
												<lognote></lognote>
												<good></good>
												<originalvideofilename></originalvideofilename>
												<originalaudiofilename></originalaudiofilename>
											</logginginfo>
											<colorinfo>
												<lut></lut>
												<lut1></lut1>
												<asc_sop></asc_sop>
												<asc_sat></asc_sat>
												<lut2></lut2>
											</colorinfo>
										</clipitem>
										<enabled>TRUE</enabled>
										<locked>FALSE</locked>
									</track>
									<track TL.SQTrackShy="0" TL.SQTrackExpandedHeight="25" TL.SQTrackExpanded="0" MZ.TrackTargeted="0">
										<transitionitem>
											<start>167</start>
											<end>224</end>
											<alignment>start-black</alignment>
											<cutPointTicks>0</cutPointTicks>
											<rate>
												<timebase>25</timebase>
												<ntsc>FALSE</ntsc>
											</rate>
											<effect>
												<name>Edge Wipe</name>
												<effectid>Edge Wipe</effectid>
												<effectcategory>Wipe</effectcategory>
												<effecttype>transition</effecttype>
												<mediatype>video</mediatype>
												<wipecode>2</wipecode>
												<wipeaccuracy>100</wipeaccuracy>
												<startratio>0</startratio>
												<endratio>1</endratio>
												<reverse>FALSE</reverse>
												<parameter authoringApp="PremierePro">
													<parameterid>directionofwipe</parameterid>
													<name>Angle</name>
													<valuemin>-360</valuemin>
													<valuemax>360</valuemax>
													<value>90</value>
												</parameter>
											</effect>
										</transitionitem>
										<clipitem id="clipitem-1251">
											<masterclipid>masterclip-546</masterclipid>
											<name>9.png</name>
											<enabled>TRUE</enabled>
											<duration>1080000</duration>
											<rate>
												<timebase>25</timebase>
												<ntsc>FALSE</ntsc>
											</rate>
											<start>-1</start>
											<end>-1</end>
											<in>90042</in>
											<out>90225</out>
											<pproTicksIn>914884346880000</pproTicksIn>
											<pproTicksOut>916743744000000</pproTicksOut>
											<alphatype>straight</alphatype>
											<pixelaspectratio>square</pixelaspectratio>
											<anamorphic>FALSE</anamorphic>
											<file id="file-455">
												<name>8.png</name>
												<pathurl>file://localhost/_MUZ_TV/project_AP/RU/_TITLE/468/8.png</pathurl>
												<rate>
													<timebase>30</timebase>
													<ntsc>TRUE</ntsc>
												</rate>
												<timecode>
													<rate>
														<timebase>30</timebase>
														<ntsc>TRUE</ntsc>
													</rate>
													<string>00;00;00;00</string>
													<frame>0</frame>
													<displayformat>DF</displayformat>
												</timecode>
												<media>
													<video>
														<samplecharacteristics>
															<rate>
																<timebase>30</timebase>
																<ntsc>TRUE</ntsc>
															</rate>
															<width>1920</width>
															<height>1080</height>
															<anamorphic>FALSE</anamorphic>
															<pixelaspectratio>square</pixelaspectratio>
															<fielddominance>none</fielddominance>
														</samplecharacteristics>
													</video>
												</media>
											</file>
											<filter>
												<effect>
													<name>Basic Motion</name>
													<effectid>basic</effectid>
													<effectcategory>motion</effectcategory>
													<effecttype>motion</effecttype>
													<mediatype>video</mediatype>
													<pproBypass>false</pproBypass>
													<parameter authoringApp="PremierePro">
														<parameterid>scale</parameterid>
														<name>Scale</name>
														<valuemin>0</valuemin>
														<valuemax>1000</valuemax>
														<value>53.3333</value>
													</parameter>
													<parameter authoringApp="PremierePro">
														<parameterid>rotation</parameterid>
														<name>Rotation</name>
														<valuemin>-8640</valuemin>
														<valuemax>8640</valuemax>
														<value>0</value>
													</parameter>
													<parameter authoringApp="PremierePro">
														<parameterid>center</parameterid>
														<name>Center</name>
														<value>
															<horiz>0</horiz>
															<vert>0</vert>
														</value>
													</parameter>
													<parameter authoringApp="PremierePro">
														<parameterid>centerOffset</parameterid>
														<name>Anchor Point</name>
														<value>
															<horiz>0</horiz>
															<vert>0</vert>
														</value>
													</parameter>
													<parameter authoringApp="PremierePro">
														<parameterid>antiflicker</parameterid>
														<name>Anti-flicker Filter</name>
														<valuemin>0.0</valuemin>
														<valuemax>1.0</valuemax>
														<value>0</value>
													</parameter>
												</effect>
											</filter>
											<logginginfo>
												<description></description>
												<scene></scene>
												<shottake></shottake>
												<lognote></lognote>
												<good></good>
												<originalvideofilename></originalvideofilename>
												<originalaudiofilename></originalaudiofilename>
											</logginginfo>
											<colorinfo>
												<lut></lut>
												<lut1></lut1>
												<asc_sop></asc_sop>
												<asc_sat></asc_sat>
												<lut2></lut2>
											</colorinfo>
											<labels>
												<label2>Lavender</label2>
											</labels>
										</clipitem>
										<transitionitem>
											<start>328</start>
											<end>350</end>
											<alignment>end-black</alignment>
											<cutPointTicks>223534080000</cutPointTicks>
											<rate>
												<timebase>25</timebase>
												<ntsc>FALSE</ntsc>
											</rate>
											<effect>
												<name>Edge Wipe</name>
												<effectid>Edge Wipe</effectid>
												<effectcategory>Wipe</effectcategory>
												<effecttype>transition</effecttype>
												<mediatype>video</mediatype>
												<wipecode>2</wipecode>
												<wipeaccuracy>100</wipeaccuracy>
												<startratio>0</startratio>
												<endratio>1</endratio>
												<reverse>FALSE</reverse>
												<parameter authoringApp="PremierePro">
													<parameterid>directionofwipe</parameterid>
													<name>Angle</name>
													<valuemin>-360</valuemin>
													<valuemax>360</valuemax>
													<value>90</value>
												</parameter>
											</effect>
										</transitionitem>
										<enabled>TRUE</enabled>
										<locked>FALSE</locked>
									</track>
									<track TL.SQTrackShy="0" TL.SQTrackExpandedHeight="25" TL.SQTrackExpanded="0" MZ.TrackTargeted="0">
										<transitionitem>
											<start>167</start>
											<end>224</end>
											<alignment>start-black</alignment>
											<cutPointTicks>0</cutPointTicks>
											<rate>
												<timebase>25</timebase>
												<ntsc>FALSE</ntsc>
											</rate>
											<effect>
												<name>Edge Wipe</name>
												<effectid>Edge Wipe</effectid>
												<effectcategory>Wipe</effectcategory>
												<effecttype>transition</effecttype>
												<mediatype>video</mediatype>
												<wipecode>2</wipecode>
												<wipeaccuracy>100</wipeaccuracy>
												<startratio>0</startratio>
												<endratio>1</endratio>
												<reverse>FALSE</reverse>
												<parameter authoringApp="PremierePro">
													<parameterid>directionofwipe</parameterid>
													<name>Angle</name>
													<valuemin>-360</valuemin>
													<valuemax>360</valuemax>
													<value>90</value>
												</parameter>
											</effect>
										</transitionitem>
										<clipitem id="clipitem-1252">
											<masterclipid>masterclip-547</masterclipid>
											<name>Graphic</name>
											<enabled>FALSE</enabled>
											<duration>1080000</duration>
											<rate>
												<timebase>25</timebase>
												<ntsc>FALSE</ntsc>
											</rate>
											<start>-1</start>
											<end>-1</end>
											<in>89998</in>
											<out>90181</out>
											<pproTicksIn>914437278720000</pproTicksIn>
											<pproTicksOut>916296675840000</pproTicksOut>
											<alphatype>straight</alphatype>
											<pixelaspectratio>PAL-601</pixelaspectratio>
											<anamorphic>TRUE</anamorphic>
											<file id="file-456">
												<name>Graphic</name>
												<mediaSource>GraphicAndType</mediaSource>
												<rate>
													<timebase>30</timebase>
													<ntsc>TRUE</ntsc>
												</rate>
												<timecode>
													<rate>
														<timebase>30</timebase>
														<ntsc>TRUE</ntsc>
													</rate>
													<string>00;00;00;00</string>
													<frame>0</frame>
													<displayformat>DF</displayformat>
												</timecode>
												<media>
													<video>
														<samplecharacteristics>
															<rate>
																<timebase>30</timebase>
																<ntsc>TRUE</ntsc>
															</rate>
															<width>720</width>
															<height>576</height>
															<anamorphic>TRUE</anamorphic>
															<pixelaspectratio>PAL-601</pixelaspectratio>
															<fielddominance>none</fielddominance>
														</samplecharacteristics>
													</video>
												</media>
											</file>
											<filter>
												<effect>
													<name>АРТУР ПИРОЖКОВ&#13;ЛЕТОМ НА ФИЕСТЕ</name>
													<effectid>GraphicAndType</effectid>
													<effectcategory>graphic</effectcategory>
													<effecttype>filter</effecttype>
													<mediatype>video</mediatype>
													<pproBypass>false</pproBypass>
													<pproExpanded>true</pproExpanded>
													<parameter authoringApp="PremierePro">
														<parameterid>1</parameterid>
														<name>Source Text</name>
														<hash>dc092258-f6b9-fd91-a76f-c3e700000476</hash>
													</parameter>
													<parameter authoringApp="PremierePro">
														<parameterid>2</parameterid>
														<name>Transform</name>
														<IsTimeVarying>false</IsTimeVarying>
														<ParameterControlType>11</ParameterControlType>
														<LowerBound>false</LowerBound>
														<UpperBound>false</UpperBound>
														<value>-91445760000000000,false,0,0,0,0,0,0</value>
													</parameter>
													<parameter authoringApp="PremierePro">
														<parameterid>3</parameterid>
														<name>Position</name>
														<IsTimeVarying>false</IsTimeVarying>
														<value>-91445760000000000,0.36944580078125:0.86468505859375,0,0,0,0,0,0,5,4,0,0,0,0</value>
													</parameter>
													<parameter authoringApp="PremierePro">
														<parameterid>4</parameterid>
														<name>Scale</name>
														<IsTimeVarying>false</IsTimeVarying>
														<ParameterControlType>2</ParameterControlType>
														<LowerBound>0</LowerBound>
														<UpperBound>4000</UpperBound>
														<value>-91445760000000000,100.,0,0,0,0,0,0</value>
													</parameter>
													<parameter authoringApp="PremierePro">
														<parameterid>5</parameterid>
														<name>Horizontal Scale</name>
														<IsTimeVarying>false</IsTimeVarying>
														<ParameterControlType>2</ParameterControlType>
														<LowerBound>0</LowerBound>
														<UpperBound>4000</UpperBound>
														<value>-91445760000000000,100.,0,0,0,0,0,0</value>
													</parameter>
													<parameter authoringApp="PremierePro">
														<parameterid>6</parameterid>
														<name> </name>
														<IsTimeVarying>false</IsTimeVarying>
														<ParameterControlType>4</ParameterControlType>
														<LowerBound>false</LowerBound>
														<UpperBound>true</UpperBound>
														<value>-91445760000000000,true,0,0,0,0,0,0</value>
													</parameter>
													<parameter authoringApp="PremierePro">
														<parameterid>7</parameterid>
														<name>Rotation</name>
														<IsTimeVarying>false</IsTimeVarying>
														<ParameterControlType>3</ParameterControlType>
														<LowerBound>-32768</LowerBound>
														<UpperBound>32767</UpperBound>
														<value>-91445760000000000,0.,0,0,0,0,0,0</value>
													</parameter>
													<parameter authoringApp="PremierePro">
														<parameterid>8</parameterid>
														<name>Opacity</name>
														<IsTimeVarying>false</IsTimeVarying>
														<ParameterControlType>2</ParameterControlType>
														<LowerBound>0</LowerBound>
														<UpperBound>100</UpperBound>
														<value>-91445760000000000,100.,0,0,0,0,0,0</value>
													</parameter>
													<parameter authoringApp="PremierePro">
														<parameterid>9</parameterid>
														<name>Anchor Point</name>
														<IsTimeVarying>false</IsTimeVarying>
														<value>-91445760000000000,0:0,0,0,0,0,0,0,5,4,0,0,0,0</value>
													</parameter>
													<parameter authoringApp="PremierePro">
														<parameterid>10</parameterid>
														<name></name>
														<IsTimeVarying>false</IsTimeVarying>
														<ParameterControlType>12</ParameterControlType>
														<LowerBound>false</LowerBound>
														<UpperBound>false</UpperBound>
														<value>-91445760000000000,false,0,0,0,0,0,0</value>
													</parameter>
													<parameter authoringApp="PremierePro">
														<parameterid>11</parameterid>
														<name> </name>
														<IsTimeVarying>false</IsTimeVarying>
														<ParameterControlType>8</ParameterControlType>
														<LowerBound>0</LowerBound>
														<UpperBound>32768</UpperBound>
														<value>-91445760000000000,0.,0,0,0,0,0,0</value>
													</parameter>
													<parameter authoringApp="PremierePro">
														<parameterid>12</parameterid>
														<name> </name>
														<IsTimeVarying>false</IsTimeVarying>
														<ParameterControlType>8</ParameterControlType>
														<LowerBound>0</LowerBound>
														<UpperBound>32768</UpperBound>
														<value>-91445760000000000,0.,0,0,0,0,0,0</value>
													</parameter>
													<parameter authoringApp="PremierePro">
														<parameterid>13</parameterid>
														<name>start</name>
														<IsTimeVarying>false</IsTimeVarying>
														<ParameterControlType>8</ParameterControlType>
														<LowerBound>-100</LowerBound>
														<UpperBound>1000000000</UpperBound>
														<value>-91445760000000000,30.,0,0,0,0,0,0</value>
													</parameter>
													<parameter authoringApp="PremierePro">
														<parameterid>14</parameterid>
														<name>end</name>
														<IsTimeVarying>false</IsTimeVarying>
														<ParameterControlType>8</ParameterControlType>
														<LowerBound>-100</LowerBound>
														<UpperBound>1000000000</UpperBound>
														<value>-91445760000000000,30.,0,0,0,0,0,0</value>
													</parameter>
													<parameter authoringApp="PremierePro">
														<parameterid>15</parameterid>
														<name> </name>
														<IsTimeVarying>false</IsTimeVarying>
														<ParameterControlType>4</ParameterControlType>
														<LowerBound>false</LowerBound>
														<UpperBound>true</UpperBound>
														<value>-91445760000000000,false,0,0,0,0,0,0</value>
													</parameter>
													<parameter authoringApp="PremierePro">
														<parameterid>16</parameterid>
														<name> </name>
														<IsTimeVarying>false</IsTimeVarying>
														<ParameterControlType>4</ParameterControlType>
														<LowerBound>false</LowerBound>
														<UpperBound>true</UpperBound>
														<value>-91445760000000000,false,0,0,0,0,0,0</value>
													</parameter>
													<parameter authoringApp="PremierePro">
														<parameterid>17</parameterid>
														<name> </name>
														<IsTimeVarying>false</IsTimeVarying>
														<ParameterControlType>4</ParameterControlType>
														<LowerBound>false</LowerBound>
														<UpperBound>true</UpperBound>
														<value>-91445760000000000,false,0,0,0,0,0,0</value>
													</parameter>
													<parameter authoringApp="PremierePro">
														<parameterid>18</parameterid>
														<name> </name>
														<IsTimeVarying>false</IsTimeVarying>
														<ParameterControlType>4</ParameterControlType>
														<LowerBound>false</LowerBound>
														<UpperBound>true</UpperBound>
														<value>-91445760000000000,false,0,0,0,0,0,0</value>
													</parameter>
													<parameter authoringApp="PremierePro">
														<parameterid>19</parameterid>
														<name>Parent Width</name>
														<IsTimeVarying>false</IsTimeVarying>
														<ParameterControlType>2</ParameterControlType>
														<LowerBound>0</LowerBound>
														<UpperBound>20000</UpperBound>
														<value>-91445760000000000,0.,0,0,0,0,0,0</value>
													</parameter>
													<parameter authoringApp="PremierePro">
														<parameterid>20</parameterid>
														<name>Parent Height</name>
														<IsTimeVarying>false</IsTimeVarying>
														<ParameterControlType>2</ParameterControlType>
														<LowerBound>0</LowerBound>
														<UpperBound>20000</UpperBound>
														<value>-91445760000000000,0.,0,0,0,0,0,0</value>
													</parameter>
													<parameter authoringApp="PremierePro">
														<parameterid>21</parameterid>
														<name>Parent Rotation</name>
														<IsTimeVarying>false</IsTimeVarying>
														<ParameterControlType>3</ParameterControlType>
														<LowerBound>-32768</LowerBound>
														<UpperBound>32767</UpperBound>
														<value>-91445760000000000,0.,0,0,0,0,0,0</value>
													</parameter>
												</effect>
											</filter>
											<logginginfo>
												<description></description>
												<scene></scene>
												<shottake></shottake>
												<lognote></lognote>
												<good></good>
												<originalvideofilename></originalvideofilename>
												<originalaudiofilename></originalaudiofilename>
											</logginginfo>
											<colorinfo>
												<lut></lut>
												<lut1></lut1>
												<asc_sop></asc_sop>
												<asc_sat></asc_sat>
												<lut2></lut2>
											</colorinfo>
										</clipitem>
										<transitionitem>
											<start>328</start>
											<end>350</end>
											<alignment>end-black</alignment>
											<cutPointTicks>223534080000</cutPointTicks>
											<rate>
												<timebase>25</timebase>
												<ntsc>FALSE</ntsc>
											</rate>
											<effect>
												<name>Edge Wipe</name>
												<effectid>Edge Wipe</effectid>
												<effectcategory>Wipe</effectcategory>
												<effecttype>transition</effecttype>
												<mediatype>video</mediatype>
												<wipecode>2</wipecode>
												<wipeaccuracy>100</wipeaccuracy>
												<startratio>0</startratio>
												<endratio>1</endratio>
												<reverse>FALSE</reverse>
												<parameter authoringApp="PremierePro">
													<parameterid>directionofwipe</parameterid>
													<name>Angle</name>
													<valuemin>-360</valuemin>
													<valuemax>360</valuemax>
													<value>90</value>
												</parameter>
											</effect>
										</transitionitem>
										<enabled>TRUE</enabled>
										<locked>FALSE</locked>
									</track>
								</video>
								<audio>
									<numOutputChannels>2</numOutputChannels>
									<format>
										<samplecharacteristics>
											<depth>16</depth>
											<samplerate>48000</samplerate>
										</samplecharacteristics>
									</format>
									<outputs>
										<group>
											<index>1</index>
											<numchannels>1</numchannels>
											<downmix>0</downmix>
											<channel>
												<index>1</index>
											</channel>
										</group>
										<group>
											<index>2</index>
											<numchannels>1</numchannels>
											<downmix>0</downmix>
											<channel>
												<index>2</index>
											</channel>
										</group>
									</outputs>
									<track TL.SQTrackAudioKeyframeStyle="0" TL.SQTrackShy="0" TL.SQTrackExpandedHeight="25" TL.SQTrackExpanded="0" MZ.TrackTargeted="1" PannerCurrentValue="0.5" PannerStartKeyframe="-91445760000000000,0.5,0,0,0,0,0,0" PannerName="Balance" currentExplodedTrackIndex="0" totalExplodedTrackCount="2" premiereTrackType="Stereo">
										<enabled>TRUE</enabled>
										<locked>FALSE</locked>
										<outputchannelindex>1</outputchannelindex>
									</track>
									<track TL.SQTrackAudioKeyframeStyle="0" TL.SQTrackShy="0" TL.SQTrackExpandedHeight="25" TL.SQTrackExpanded="0" MZ.TrackTargeted="1" PannerCurrentValue="0.5" PannerStartKeyframe="-91445760000000000,0.5,0,0,0,0,0,0" PannerName="Balance" currentExplodedTrackIndex="1" totalExplodedTrackCount="2" premiereTrackType="Stereo">
										<enabled>TRUE</enabled>
										<locked>FALSE</locked>
										<outputchannelindex>2</outputchannelindex>
									</track>
								</audio>
							</media>
							<timecode>
								<rate>
									<timebase>25</timebase>
									<ntsc>FALSE</ntsc>
								</rate>
								<string>00:00:00:00</string>
								<frame>0</frame>
								<displayformat>NDF</displayformat>
							</timecode>
								<marker>
									<comment></comment>
									<name></name>
									<in>125</in>
									<out>-1</out>
									<pproColor>4280578025</pproColor>
								</marker>
							<logginginfo>
								<description></description>
								<scene></scene>
								<shottake></shottake>
								<lognote></lognote>
								<good></good>
								<originalvideofilename></originalvideofilename>
								<originalaudiofilename></originalaudiofilename>
							</logginginfo>
						</sequence>
							<marker>
								<comment></comment>
								<name></name>
								<in>125</in>
								<out>-1</out>
								<pproColor>4280578025</pproColor>
							</marker>
						<labels>
							<label2>Forest</label2>
						</labels>
					</clipitem>
					<clipitem id="clipitem-1253">
						<masterclipid>masterclip-543</masterclipid>
						<name>8</name>
						<enabled>TRUE</enabled>
						<duration>475</duration>
						<rate>
							<timebase>25</timebase>
							<ntsc>FALSE</ntsc>
						</rate>
						<start>28710</start>
						<end>29061</end>
						<in>124</in>
						<out>475</out>
						<pproTicksIn>1259919360000</pproTicksIn>
						<pproTicksOut>4826304000000</pproTicksOut>
						<sequence id="sequence-98"/>
							<marker>
								<comment></comment>
								<name></name>
								<in>125</in>
								<out>-1</out>
								<pproColor>4280578025</pproColor>
							</marker>
						<labels>
							<label2>Forest</label2>
						</labels>
					</clipitem>
					<clipitem id="clipitem-1254">
						<masterclipid>masterclip-548</masterclipid>
						<name>7_TITLE</name>
						<enabled>TRUE</enabled>
						<duration>475</duration>
						<rate>
							<timebase>25</timebase>
							<ntsc>FALSE</ntsc>
						</rate>
						<start>29789</start>
						<end>30139</end>
						<in>0</in>
						<out>475</out>
						<pproTicksIn>0</pproTicksIn>
						<pproTicksOut>4826304000000</pproTicksOut>
						<sequence id="sequence-99" TL.SQAudioVisibleBase="0" TL.SQVideoVisibleBase="0" TL.SQVisibleBaseTime="0" TL.SQAVDividerPosition="0.5" TL.SQHideShyTracks="0" TL.SQHeaderWidth="236" TL.SQDataTrackViewControlState="0" Monitor.ProgramZoomOut="4826304000000" Monitor.ProgramZoomIn="0" TL.SQTimePerPixel="0.024999999999999998" AM.TrackVScrollPosition="0" AM.TrackScrollPosition="0" MZ.EditLine="1473292800000" MZ.Sequence.PreviewFrameSizeHeight="576" MZ.Sequence.PreviewFrameSizeWidth="720" MZ.Sequence.AudioTimeDisplayFormat="200" MZ.Sequence.PreviewRenderingClassID="1061109567" MZ.Sequence.PreviewRenderingPresetCodec="1685480304" MZ.Sequence.PreviewRenderingPresetPath="EncoderPresets/SequencePreview/04be6e19-a018-4e0c-a9d6-0ab44c64752b/QuickTime DV PAL.epr" MZ.Sequence.PreviewUseMaxRenderQuality="false" MZ.Sequence.PreviewUseMaxBitDepth="false" MZ.Sequence.EditingModeGUID="04be6e19-a018-4e0c-a9d6-0ab44c64752b" MZ.Sequence.VideoTimeDisplayFormat="101" MZ.WorkOutPoint="4826304000000" MZ.WorkInPoint="0" MZ.ZeroPoint="0">
							<duration>475</duration>
							<rate>
								<timebase>25</timebase>
								<ntsc>FALSE</ntsc>
							</rate>
							<name>титр</name>
							<media>
								<video>
									<format>
										<samplecharacteristics>
											<rate>
												<timebase>25</timebase>
												<ntsc>FALSE</ntsc>
											</rate>
											<codec>
												<name>Apple ProRes 422</name>
												<appspecificdata>
													<appname>Final Cut Pro</appname>
													<appmanufacturer>Apple Inc.</appmanufacturer>
													<appversion>7.0</appversion>
													<data>
														<qtcodec>
															<codecname>Apple ProRes 422</codecname>
															<codectypename>Apple ProRes 422</codectypename>
															<codectypecode>apcn</codectypecode>
															<codecvendorcode>appl</codecvendorcode>
															<spatialquality>1024</spatialquality>
															<temporalquality>0</temporalquality>
															<keyframerate>0</keyframerate>
															<datarate>0</datarate>
														</qtcodec>
													</data>
												</appspecificdata>
											</codec>
											<width>720</width>
											<height>576</height>
											<anamorphic>TRUE</anamorphic>
											<pixelaspectratio>PAL-601</pixelaspectratio>
											<fielddominance>lower</fielddominance>
											<colordepth>24</colordepth>
										</samplecharacteristics>
									</format>
									<track TL.SQTrackShy="0" TL.SQTrackExpandedHeight="25" TL.SQTrackExpanded="0" MZ.TrackTargeted="1">
										<clipitem id="clipitem-1255">
											<masterclipid>masterclip-549</masterclipid>
											<name>9_title.mov</name>
											<enabled>TRUE</enabled>
											<duration>225</duration>
											<rate>
												<timebase>25</timebase>
												<ntsc>FALSE</ntsc>
											</rate>
											<start>125</start>
											<end>350</end>
											<in>0</in>
											<out>225</out>
											<pproTicksIn>0</pproTicksIn>
											<pproTicksOut>2286144000000</pproTicksOut>
											<alphatype>straight</alphatype>
											<pixelaspectratio>square</pixelaspectratio>
											<anamorphic>FALSE</anamorphic>
											<file id="file-457">
												<name>7_title.mov</name>
												<pathurl>file://localhost/_MUZ_TV/graphika/RU-21/MOD/title_plashka/7_title.mov</pathurl>
												<rate>
													<timebase>25</timebase>
													<ntsc>FALSE</ntsc>
												</rate>
												<duration>225</duration>
												<timecode>
													<rate>
														<timebase>25</timebase>
														<ntsc>FALSE</ntsc>
													</rate>
													<string>00:00:27:00</string>
													<frame>675</frame>
													<displayformat>NDF</displayformat>
												</timecode>
												<media>
													<video>
														<samplecharacteristics>
															<rate>
																<timebase>25</timebase>
																<ntsc>FALSE</ntsc>
															</rate>
															<width>1920</width>
															<height>1080</height>
															<anamorphic>FALSE</anamorphic>
															<pixelaspectratio>square</pixelaspectratio>
															<fielddominance>none</fielddominance>
														</samplecharacteristics>
													</video>
												</media>
											</file>
											<filter>
												<effect>
													<name>Basic Motion</name>
													<effectid>basic</effectid>
													<effectcategory>motion</effectcategory>
													<effecttype>motion</effecttype>
													<mediatype>video</mediatype>
													<pproBypass>false</pproBypass>
													<parameter authoringApp="PremierePro">
														<parameterid>scale</parameterid>
														<name>Scale</name>
														<valuemin>0</valuemin>
														<valuemax>1000</valuemax>
														<value>55</value>
													</parameter>
													<parameter authoringApp="PremierePro">
														<parameterid>rotation</parameterid>
														<name>Rotation</name>
														<valuemin>-8640</valuemin>
														<valuemax>8640</valuemax>
														<value>0</value>
													</parameter>
													<parameter authoringApp="PremierePro">
														<parameterid>center</parameterid>
														<name>Center</name>
														<value>
															<horiz>0</horiz>
															<vert>0</vert>
														</value>
													</parameter>
													<parameter authoringApp="PremierePro">
														<parameterid>centerOffset</parameterid>
														<name>Anchor Point</name>
														<value>
															<horiz>0</horiz>
															<vert>0</vert>
														</value>
													</parameter>
													<parameter authoringApp="PremierePro">
														<parameterid>antiflicker</parameterid>
														<name>Anti-flicker Filter</name>
														<valuemin>0.0</valuemin>
														<valuemax>1.0</valuemax>
														<value>0</value>
													</parameter>
												</effect>
											</filter>
											<filter>
												<effect>
													<name>Distort</name>
													<effectid>deformation</effectid>
													<effectcategory>motion</effectcategory>
													<effecttype>motion</effecttype>
													<mediatype>video</mediatype>
													<parameter authoringApp="PremierePro">
														<parameterid>aspect</parameterid>
														<name>Aspect</name>
														<valuemin>-10000</valuemin>
														<valuemax>10000</valuemax>
														<value>-3.12506</value>
													</parameter>
												</effect>
											</filter>
											<logginginfo>
												<description></description>
												<scene></scene>
												<shottake></shottake>
												<lognote></lognote>
												<good></good>
												<originalvideofilename></originalvideofilename>
												<originalaudiofilename></originalaudiofilename>
											</logginginfo>
											<colorinfo>
												<lut></lut>
												<lut1></lut1>
												<asc_sop></asc_sop>
												<asc_sat></asc_sat>
												<lut2></lut2>
											</colorinfo>
											<labels>
												<label2>Violet</label2>
											</labels>
										</clipitem>
										<clipitem id="clipitem-1256">
											<masterclipid>masterclip-550</masterclipid>
											<name>Graphic</name>
											<enabled>FALSE</enabled>
											<duration>1080000</duration>
											<rate>
												<timebase>25</timebase>
												<ntsc>FALSE</ntsc>
											</rate>
											<start>350</start>
											<end>475</end>
											<in>90000</in>
											<out>90125</out>
											<pproTicksIn>914457600000000</pproTicksIn>
											<pproTicksOut>915727680000000</pproTicksOut>
											<alphatype>straight</alphatype>
											<pixelaspectratio>PAL-601</pixelaspectratio>
											<anamorphic>TRUE</anamorphic>
											<file id="file-458">
												<name>Graphic</name>
												<mediaSource>GraphicAndType</mediaSource>
												<rate>
													<timebase>30</timebase>
													<ntsc>TRUE</ntsc>
												</rate>
												<timecode>
													<rate>
														<timebase>30</timebase>
														<ntsc>TRUE</ntsc>
													</rate>
													<string>00;00;00;00</string>
													<frame>0</frame>
													<displayformat>DF</displayformat>
												</timecode>
												<media>
													<video>
														<samplecharacteristics>
															<rate>
																<timebase>30</timebase>
																<ntsc>TRUE</ntsc>
															</rate>
															<width>720</width>
															<height>576</height>
															<anamorphic>TRUE</anamorphic>
															<pixelaspectratio>PAL-601</pixelaspectratio>
															<fielddominance>none</fielddominance>
														</samplecharacteristics>
													</video>
												</media>
											</file>
											<filter>
												<effect>
													<name>Basic Motion</name>
													<effectid>basic</effectid>
													<effectcategory>motion</effectcategory>
													<effecttype>motion</effecttype>
													<mediatype>video</mediatype>
													<pproBypass>false</pproBypass>
													<parameter authoringApp="PremierePro">
														<parameterid>scale</parameterid>
														<name>Scale</name>
														<valuemin>0</valuemin>
														<valuemax>1000</valuemax>
														<value>133.333</value>
													</parameter>
													<parameter authoringApp="PremierePro">
														<parameterid>rotation</parameterid>
														<name>Rotation</name>
														<valuemin>-8640</valuemin>
														<valuemax>8640</valuemax>
														<value>0</value>
													</parameter>
													<parameter authoringApp="PremierePro">
														<parameterid>center</parameterid>
														<name>Center</name>
														<value>
															<horiz>0</horiz>
															<vert>0</vert>
														</value>
													</parameter>
													<parameter authoringApp="PremierePro">
														<parameterid>centerOffset</parameterid>
														<name>Anchor Point</name>
														<value>
															<horiz>0</horiz>
															<vert>0</vert>
														</value>
													</parameter>
													<parameter authoringApp="PremierePro">
														<parameterid>antiflicker</parameterid>
														<name>Anti-flicker Filter</name>
														<valuemin>0.0</valuemin>
														<valuemax>1.0</valuemax>
														<value>0</value>
													</parameter>
												</effect>
											</filter>
											<filter>
												<effect>
													<name>Distort</name>
													<effectid>deformation</effectid>
													<effectcategory>motion</effectcategory>
													<effecttype>motion</effecttype>
													<mediatype>video</mediatype>
													<parameter authoringApp="PremierePro">
														<parameterid>aspect</parameterid>
														<name>Aspect</name>
														<valuemin>-10000</valuemin>
														<valuemax>10000</valuemax>
														<value>-33.333</value>
													</parameter>
												</effect>
											</filter>
											<filter>
												<effect>
													<name></name>
													<effectid>GraphicAndType</effectid>
													<effectcategory>graphic</effectcategory>
													<effecttype>filter</effecttype>
													<mediatype>video</mediatype>
													<pproBypass>false</pproBypass>
													<parameter authoringApp="PremierePro">
														<parameterid>1</parameterid>
														<name>Source Text</name>
														<hash>3f0faa81-c1b0-8370-b66c-fa0b000009f1</hash>
													</parameter>
													<parameter authoringApp="PremierePro">
														<parameterid>2</parameterid>
														<name>Transform</name>
														<IsTimeVarying>false</IsTimeVarying>
														<ParameterControlType>11</ParameterControlType>
														<LowerBound>false</LowerBound>
														<UpperBound>false</UpperBound>
														<value>-91445760000000000,false,0,0,0,0,0,0</value>
													</parameter>
													<parameter authoringApp="PremierePro">
														<parameterid>3</parameterid>
														<name>Position</name>
														<IsTimeVarying>false</IsTimeVarying>
														<value>-91445760000000000,0.55605381727218628:0.73039215803146362,0,0,0,0,0,0,5,4,0,0,0,0</value>
													</parameter>
													<parameter authoringApp="PremierePro">
														<parameterid>4</parameterid>
														<name>Scale</name>
														<IsTimeVarying>false</IsTimeVarying>
														<ParameterControlType>2</ParameterControlType>
														<LowerBound>0</LowerBound>
														<UpperBound>4000</UpperBound>
														<value>-91445760000000000,100.,0,0,0,0,0,0</value>
													</parameter>
													<parameter authoringApp="PremierePro">
														<parameterid>5</parameterid>
														<name>Horizontal Scale</name>
														<IsTimeVarying>false</IsTimeVarying>
														<ParameterControlType>2</ParameterControlType>
														<LowerBound>0</LowerBound>
														<UpperBound>4000</UpperBound>
														<value>-91445760000000000,100.,0,0,0,0,0,0</value>
													</parameter>
													<parameter authoringApp="PremierePro">
														<parameterid>6</parameterid>
														<name> </name>
														<IsTimeVarying>false</IsTimeVarying>
														<ParameterControlType>4</ParameterControlType>
														<LowerBound>false</LowerBound>
														<UpperBound>true</UpperBound>
														<value>-91445760000000000,true,0,0,0,0,0,0</value>
													</parameter>
													<parameter authoringApp="PremierePro">
														<parameterid>7</parameterid>
														<name>Rotation</name>
														<IsTimeVarying>false</IsTimeVarying>
														<ParameterControlType>3</ParameterControlType>
														<LowerBound>-32768</LowerBound>
														<UpperBound>32767</UpperBound>
														<value>-91445760000000000,0.,0,0,0,0,0,0</value>
													</parameter>
													<parameter authoringApp="PremierePro">
														<parameterid>8</parameterid>
														<name>Opacity</name>
														<IsTimeVarying>false</IsTimeVarying>
														<ParameterControlType>2</ParameterControlType>
														<LowerBound>0</LowerBound>
														<UpperBound>100</UpperBound>
														<value>-91445760000000000,100.,0,0,0,0,0,0</value>
													</parameter>
													<parameter authoringApp="PremierePro">
														<parameterid>9</parameterid>
														<name>Anchor Point</name>
														<IsTimeVarying>false</IsTimeVarying>
														<value>-91445760000000000,0:0,0,0,0,0,0,0,5,4,0,0,0,0</value>
													</parameter>
													<parameter authoringApp="PremierePro">
														<parameterid>10</parameterid>
														<name></name>
														<IsTimeVarying>false</IsTimeVarying>
														<ParameterControlType>12</ParameterControlType>
														<LowerBound>false</LowerBound>
														<UpperBound>false</UpperBound>
														<value>-91445760000000000,false,0,0,0,0,0,0</value>
													</parameter>
													<parameter authoringApp="PremierePro">
														<parameterid>11</parameterid>
														<name> </name>
														<IsTimeVarying>false</IsTimeVarying>
														<ParameterControlType>8</ParameterControlType>
														<LowerBound>0</LowerBound>
														<UpperBound>32768</UpperBound>
														<value>-91445760000000000,0.,0,0,0,0,0,0</value>
													</parameter>
													<parameter authoringApp="PremierePro">
														<parameterid>12</parameterid>
														<name> </name>
														<IsTimeVarying>false</IsTimeVarying>
														<ParameterControlType>8</ParameterControlType>
														<LowerBound>0</LowerBound>
														<UpperBound>32768</UpperBound>
														<value>-91445760000000000,0.,0,0,0,0,0,0</value>
													</parameter>
													<parameter authoringApp="PremierePro">
														<parameterid>13</parameterid>
														<name>start</name>
														<IsTimeVarying>false</IsTimeVarying>
														<ParameterControlType>8</ParameterControlType>
														<LowerBound>-100</LowerBound>
														<UpperBound>1000000000</UpperBound>
														<value>-91445760000000000,0.,0,0,0,0,0,0</value>
													</parameter>
													<parameter authoringApp="PremierePro">
														<parameterid>14</parameterid>
														<name>end</name>
														<IsTimeVarying>false</IsTimeVarying>
														<ParameterControlType>8</ParameterControlType>
														<LowerBound>-100</LowerBound>
														<UpperBound>1000000000</UpperBound>
														<value>-91445760000000000,0.,0,0,0,0,0,0</value>
													</parameter>
													<parameter authoringApp="PremierePro">
														<parameterid>15</parameterid>
														<name> </name>
														<IsTimeVarying>false</IsTimeVarying>
														<ParameterControlType>4</ParameterControlType>
														<LowerBound>false</LowerBound>
														<UpperBound>true</UpperBound>
														<value>-91445760000000000,false,0,0,0,0,0,0</value>
													</parameter>
													<parameter authoringApp="PremierePro">
														<parameterid>16</parameterid>
														<name> </name>
														<IsTimeVarying>false</IsTimeVarying>
														<ParameterControlType>4</ParameterControlType>
														<LowerBound>false</LowerBound>
														<UpperBound>true</UpperBound>
														<value>-91445760000000000,false,0,0,0,0,0,0</value>
													</parameter>
													<parameter authoringApp="PremierePro">
														<parameterid>17</parameterid>
														<name> </name>
														<IsTimeVarying>false</IsTimeVarying>
														<ParameterControlType>4</ParameterControlType>
														<LowerBound>false</LowerBound>
														<UpperBound>true</UpperBound>
														<value>-91445760000000000,false,0,0,0,0,0,0</value>
													</parameter>
													<parameter authoringApp="PremierePro">
														<parameterid>18</parameterid>
														<name> </name>
														<IsTimeVarying>false</IsTimeVarying>
														<ParameterControlType>4</ParameterControlType>
														<LowerBound>false</LowerBound>
														<UpperBound>true</UpperBound>
														<value>-91445760000000000,false,0,0,0,0,0,0</value>
													</parameter>
													<parameter authoringApp="PremierePro">
														<parameterid>19</parameterid>
														<name>Parent Width</name>
														<IsTimeVarying>false</IsTimeVarying>
														<ParameterControlType>2</ParameterControlType>
														<LowerBound>0</LowerBound>
														<UpperBound>20000</UpperBound>
														<value>-91445760000000000,0.,0,0,0,0,0,0</value>
													</parameter>
													<parameter authoringApp="PremierePro">
														<parameterid>20</parameterid>
														<name>Parent Height</name>
														<IsTimeVarying>false</IsTimeVarying>
														<ParameterControlType>2</ParameterControlType>
														<LowerBound>0</LowerBound>
														<UpperBound>20000</UpperBound>
														<value>-91445760000000000,0.,0,0,0,0,0,0</value>
													</parameter>
													<parameter authoringApp="PremierePro">
														<parameterid>21</parameterid>
														<name>Parent Rotation</name>
														<IsTimeVarying>false</IsTimeVarying>
														<ParameterControlType>3</ParameterControlType>
														<LowerBound>-32768</LowerBound>
														<UpperBound>32767</UpperBound>
														<value>-91445760000000000,0.,0,0,0,0,0,0</value>
													</parameter>
												</effect>
											</filter>
											<logginginfo>
												<description></description>
												<scene></scene>
												<shottake></shottake>
												<lognote></lognote>
												<good></good>
												<originalvideofilename></originalvideofilename>
												<originalaudiofilename></originalaudiofilename>
											</logginginfo>
											<colorinfo>
												<lut></lut>
												<lut1></lut1>
												<asc_sop></asc_sop>
												<asc_sat></asc_sat>
												<lut2></lut2>
											</colorinfo>
										</clipitem>
										<enabled>TRUE</enabled>
										<locked>FALSE</locked>
									</track>
									<track TL.SQTrackShy="0" TL.SQTrackExpandedHeight="25" TL.SQTrackExpanded="0" MZ.TrackTargeted="0">
										<transitionitem>
											<start>167</start>
											<end>224</end>
											<alignment>start-black</alignment>
											<cutPointTicks>0</cutPointTicks>
											<rate>
												<timebase>25</timebase>
												<ntsc>FALSE</ntsc>
											</rate>
											<effect>
												<name>Edge Wipe</name>
												<effectid>Edge Wipe</effectid>
												<effectcategory>Wipe</effectcategory>
												<effecttype>transition</effecttype>
												<mediatype>video</mediatype>
												<wipecode>2</wipecode>
												<wipeaccuracy>100</wipeaccuracy>
												<startratio>0</startratio>
												<endratio>1</endratio>
												<reverse>FALSE</reverse>
												<parameter authoringApp="PremierePro">
													<parameterid>directionofwipe</parameterid>
													<name>Angle</name>
													<valuemin>-360</valuemin>
													<valuemax>360</valuemax>
													<value>90</value>
												</parameter>
											</effect>
										</transitionitem>
										<clipitem id="clipitem-1257">
											<masterclipid>masterclip-551</masterclipid>
											<name>9.png</name>
											<enabled>TRUE</enabled>
											<duration>1080000</duration>
											<rate>
												<timebase>25</timebase>
												<ntsc>FALSE</ntsc>
											</rate>
											<start>-1</start>
											<end>-1</end>
											<in>90042</in>
											<out>90225</out>
											<pproTicksIn>914884346880000</pproTicksIn>
											<pproTicksOut>916743744000000</pproTicksOut>
											<alphatype>straight</alphatype>
											<pixelaspectratio>square</pixelaspectratio>
											<anamorphic>FALSE</anamorphic>
											<file id="file-459">
												<name>7.png</name>
												<pathurl>file://localhost/_MUZ_TV/project_AP/RU/_TITLE/468/7.png</pathurl>
												<rate>
													<timebase>30</timebase>
													<ntsc>TRUE</ntsc>
												</rate>
												<timecode>
													<rate>
														<timebase>30</timebase>
														<ntsc>TRUE</ntsc>
													</rate>
													<string>00;00;00;00</string>
													<frame>0</frame>
													<displayformat>DF</displayformat>
												</timecode>
												<media>
													<video>
														<samplecharacteristics>
															<rate>
																<timebase>30</timebase>
																<ntsc>TRUE</ntsc>
															</rate>
															<width>1920</width>
															<height>1080</height>
															<anamorphic>FALSE</anamorphic>
															<pixelaspectratio>square</pixelaspectratio>
															<fielddominance>none</fielddominance>
														</samplecharacteristics>
													</video>
												</media>
											</file>
											<filter>
												<effect>
													<name>Basic Motion</name>
													<effectid>basic</effectid>
													<effectcategory>motion</effectcategory>
													<effecttype>motion</effecttype>
													<mediatype>video</mediatype>
													<pproBypass>false</pproBypass>
													<parameter authoringApp="PremierePro">
														<parameterid>scale</parameterid>
														<name>Scale</name>
														<valuemin>0</valuemin>
														<valuemax>1000</valuemax>
														<value>53.3333</value>
													</parameter>
													<parameter authoringApp="PremierePro">
														<parameterid>rotation</parameterid>
														<name>Rotation</name>
														<valuemin>-8640</valuemin>
														<valuemax>8640</valuemax>
														<value>0</value>
													</parameter>
													<parameter authoringApp="PremierePro">
														<parameterid>center</parameterid>
														<name>Center</name>
														<value>
															<horiz>0</horiz>
															<vert>0</vert>
														</value>
													</parameter>
													<parameter authoringApp="PremierePro">
														<parameterid>centerOffset</parameterid>
														<name>Anchor Point</name>
														<value>
															<horiz>0</horiz>
															<vert>0</vert>
														</value>
													</parameter>
													<parameter authoringApp="PremierePro">
														<parameterid>antiflicker</parameterid>
														<name>Anti-flicker Filter</name>
														<valuemin>0.0</valuemin>
														<valuemax>1.0</valuemax>
														<value>0</value>
													</parameter>
												</effect>
											</filter>
											<logginginfo>
												<description></description>
												<scene></scene>
												<shottake></shottake>
												<lognote></lognote>
												<good></good>
												<originalvideofilename></originalvideofilename>
												<originalaudiofilename></originalaudiofilename>
											</logginginfo>
											<colorinfo>
												<lut></lut>
												<lut1></lut1>
												<asc_sop></asc_sop>
												<asc_sat></asc_sat>
												<lut2></lut2>
											</colorinfo>
											<labels>
												<label2>Lavender</label2>
											</labels>
										</clipitem>
										<transitionitem>
											<start>328</start>
											<end>350</end>
											<alignment>end-black</alignment>
											<cutPointTicks>223534080000</cutPointTicks>
											<rate>
												<timebase>25</timebase>
												<ntsc>FALSE</ntsc>
											</rate>
											<effect>
												<name>Edge Wipe</name>
												<effectid>Edge Wipe</effectid>
												<effectcategory>Wipe</effectcategory>
												<effecttype>transition</effecttype>
												<mediatype>video</mediatype>
												<wipecode>2</wipecode>
												<wipeaccuracy>100</wipeaccuracy>
												<startratio>0</startratio>
												<endratio>1</endratio>
												<reverse>FALSE</reverse>
												<parameter authoringApp="PremierePro">
													<parameterid>directionofwipe</parameterid>
													<name>Angle</name>
													<valuemin>-360</valuemin>
													<valuemax>360</valuemax>
													<value>90</value>
												</parameter>
											</effect>
										</transitionitem>
										<enabled>TRUE</enabled>
										<locked>FALSE</locked>
									</track>
									<track TL.SQTrackShy="0" TL.SQTrackExpandedHeight="25" TL.SQTrackExpanded="0" MZ.TrackTargeted="0">
										<transitionitem>
											<start>167</start>
											<end>224</end>
											<alignment>start-black</alignment>
											<cutPointTicks>0</cutPointTicks>
											<rate>
												<timebase>25</timebase>
												<ntsc>FALSE</ntsc>
											</rate>
											<effect>
												<name>Edge Wipe</name>
												<effectid>Edge Wipe</effectid>
												<effectcategory>Wipe</effectcategory>
												<effecttype>transition</effecttype>
												<mediatype>video</mediatype>
												<wipecode>2</wipecode>
												<wipeaccuracy>100</wipeaccuracy>
												<startratio>0</startratio>
												<endratio>1</endratio>
												<reverse>FALSE</reverse>
												<parameter authoringApp="PremierePro">
													<parameterid>directionofwipe</parameterid>
													<name>Angle</name>
													<valuemin>-360</valuemin>
													<valuemax>360</valuemax>
													<value>90</value>
												</parameter>
											</effect>
										</transitionitem>
										<clipitem id="clipitem-1258">
											<masterclipid>masterclip-552</masterclipid>
											<name>Graphic</name>
											<enabled>FALSE</enabled>
											<duration>1080000</duration>
											<rate>
												<timebase>25</timebase>
												<ntsc>FALSE</ntsc>
											</rate>
											<start>-1</start>
											<end>-1</end>
											<in>89998</in>
											<out>90181</out>
											<pproTicksIn>914437278720000</pproTicksIn>
											<pproTicksOut>916296675840000</pproTicksOut>
											<alphatype>straight</alphatype>
											<pixelaspectratio>PAL-601</pixelaspectratio>
											<anamorphic>TRUE</anamorphic>
											<file id="file-460">
												<name>Graphic</name>
												<mediaSource>GraphicAndType</mediaSource>
												<rate>
													<timebase>30</timebase>
													<ntsc>TRUE</ntsc>
												</rate>
												<timecode>
													<rate>
														<timebase>30</timebase>
														<ntsc>TRUE</ntsc>
													</rate>
													<string>00;00;00;00</string>
													<frame>0</frame>
													<displayformat>DF</displayformat>
												</timecode>
												<media>
													<video>
														<samplecharacteristics>
															<rate>
																<timebase>30</timebase>
																<ntsc>TRUE</ntsc>
															</rate>
															<width>720</width>
															<height>576</height>
															<anamorphic>TRUE</anamorphic>
															<pixelaspectratio>PAL-601</pixelaspectratio>
															<fielddominance>none</fielddominance>
														</samplecharacteristics>
													</video>
												</media>
											</file>
											<filter>
												<effect>
													<name>АРТУР ПИРОЖКОВ&#13;ЛЕТОМ НА ФИЕСТЕ</name>
													<effectid>GraphicAndType</effectid>
													<effectcategory>graphic</effectcategory>
													<effecttype>filter</effecttype>
													<mediatype>video</mediatype>
													<pproBypass>false</pproBypass>
													<pproExpanded>true</pproExpanded>
													<parameter authoringApp="PremierePro">
														<parameterid>1</parameterid>
														<name>Source Text</name>
														<hash>dc092258-f6b9-fd91-a76f-c3e700000476</hash>
													</parameter>
													<parameter authoringApp="PremierePro">
														<parameterid>2</parameterid>
														<name>Transform</name>
														<IsTimeVarying>false</IsTimeVarying>
														<ParameterControlType>11</ParameterControlType>
														<LowerBound>false</LowerBound>
														<UpperBound>false</UpperBound>
														<value>-91445760000000000,false,0,0,0,0,0,0</value>
													</parameter>
													<parameter authoringApp="PremierePro">
														<parameterid>3</parameterid>
														<name>Position</name>
														<IsTimeVarying>false</IsTimeVarying>
														<value>-91445760000000000,0.36944580078125:0.86468505859375,0,0,0,0,0,0,5,4,0,0,0,0</value>
													</parameter>
													<parameter authoringApp="PremierePro">
														<parameterid>4</parameterid>
														<name>Scale</name>
														<IsTimeVarying>false</IsTimeVarying>
														<ParameterControlType>2</ParameterControlType>
														<LowerBound>0</LowerBound>
														<UpperBound>4000</UpperBound>
														<value>-91445760000000000,100.,0,0,0,0,0,0</value>
													</parameter>
													<parameter authoringApp="PremierePro">
														<parameterid>5</parameterid>
														<name>Horizontal Scale</name>
														<IsTimeVarying>false</IsTimeVarying>
														<ParameterControlType>2</ParameterControlType>
														<LowerBound>0</LowerBound>
														<UpperBound>4000</UpperBound>
														<value>-91445760000000000,100.,0,0,0,0,0,0</value>
													</parameter>
													<parameter authoringApp="PremierePro">
														<parameterid>6</parameterid>
														<name> </name>
														<IsTimeVarying>false</IsTimeVarying>
														<ParameterControlType>4</ParameterControlType>
														<LowerBound>false</LowerBound>
														<UpperBound>true</UpperBound>
														<value>-91445760000000000,true,0,0,0,0,0,0</value>
													</parameter>
													<parameter authoringApp="PremierePro">
														<parameterid>7</parameterid>
														<name>Rotation</name>
														<IsTimeVarying>false</IsTimeVarying>
														<ParameterControlType>3</ParameterControlType>
														<LowerBound>-32768</LowerBound>
														<UpperBound>32767</UpperBound>
														<value>-91445760000000000,0.,0,0,0,0,0,0</value>
													</parameter>
													<parameter authoringApp="PremierePro">
														<parameterid>8</parameterid>
														<name>Opacity</name>
														<IsTimeVarying>false</IsTimeVarying>
														<ParameterControlType>2</ParameterControlType>
														<LowerBound>0</LowerBound>
														<UpperBound>100</UpperBound>
														<value>-91445760000000000,100.,0,0,0,0,0,0</value>
													</parameter>
													<parameter authoringApp="PremierePro">
														<parameterid>9</parameterid>
														<name>Anchor Point</name>
														<IsTimeVarying>false</IsTimeVarying>
														<value>-91445760000000000,0:0,0,0,0,0,0,0,5,4,0,0,0,0</value>
													</parameter>
													<parameter authoringApp="PremierePro">
														<parameterid>10</parameterid>
														<name></name>
														<IsTimeVarying>false</IsTimeVarying>
														<ParameterControlType>12</ParameterControlType>
														<LowerBound>false</LowerBound>
														<UpperBound>false</UpperBound>
														<value>-91445760000000000,false,0,0,0,0,0,0</value>
													</parameter>
													<parameter authoringApp="PremierePro">
														<parameterid>11</parameterid>
														<name> </name>
														<IsTimeVarying>false</IsTimeVarying>
														<ParameterControlType>8</ParameterControlType>
														<LowerBound>0</LowerBound>
														<UpperBound>32768</UpperBound>
														<value>-91445760000000000,0.,0,0,0,0,0,0</value>
													</parameter>
													<parameter authoringApp="PremierePro">
														<parameterid>12</parameterid>
														<name> </name>
														<IsTimeVarying>false</IsTimeVarying>
														<ParameterControlType>8</ParameterControlType>
														<LowerBound>0</LowerBound>
														<UpperBound>32768</UpperBound>
														<value>-91445760000000000,0.,0,0,0,0,0,0</value>
													</parameter>
													<parameter authoringApp="PremierePro">
														<parameterid>13</parameterid>
														<name>start</name>
														<IsTimeVarying>false</IsTimeVarying>
														<ParameterControlType>8</ParameterControlType>
														<LowerBound>-100</LowerBound>
														<UpperBound>1000000000</UpperBound>
														<value>-91445760000000000,30.,0,0,0,0,0,0</value>
													</parameter>
													<parameter authoringApp="PremierePro">
														<parameterid>14</parameterid>
														<name>end</name>
														<IsTimeVarying>false</IsTimeVarying>
														<ParameterControlType>8</ParameterControlType>
														<LowerBound>-100</LowerBound>
														<UpperBound>1000000000</UpperBound>
														<value>-91445760000000000,30.,0,0,0,0,0,0</value>
													</parameter>
													<parameter authoringApp="PremierePro">
														<parameterid>15</parameterid>
														<name> </name>
														<IsTimeVarying>false</IsTimeVarying>
														<ParameterControlType>4</ParameterControlType>
														<LowerBound>false</LowerBound>
														<UpperBound>true</UpperBound>
														<value>-91445760000000000,false,0,0,0,0,0,0</value>
													</parameter>
													<parameter authoringApp="PremierePro">
														<parameterid>16</parameterid>
														<name> </name>
														<IsTimeVarying>false</IsTimeVarying>
														<ParameterControlType>4</ParameterControlType>
														<LowerBound>false</LowerBound>
														<UpperBound>true</UpperBound>
														<value>-91445760000000000,false,0,0,0,0,0,0</value>
													</parameter>
													<parameter authoringApp="PremierePro">
														<parameterid>17</parameterid>
														<name> </name>
														<IsTimeVarying>false</IsTimeVarying>
														<ParameterControlType>4</ParameterControlType>
														<LowerBound>false</LowerBound>
														<UpperBound>true</UpperBound>
														<value>-91445760000000000,false,0,0,0,0,0,0</value>
													</parameter>
													<parameter authoringApp="PremierePro">
														<parameterid>18</parameterid>
														<name> </name>
														<IsTimeVarying>false</IsTimeVarying>
														<ParameterControlType>4</ParameterControlType>
														<LowerBound>false</LowerBound>
														<UpperBound>true</UpperBound>
														<value>-91445760000000000,false,0,0,0,0,0,0</value>
													</parameter>
													<parameter authoringApp="PremierePro">
														<parameterid>19</parameterid>
														<name>Parent Width</name>
														<IsTimeVarying>false</IsTimeVarying>
														<ParameterControlType>2</ParameterControlType>
														<LowerBound>0</LowerBound>
														<UpperBound>20000</UpperBound>
														<value>-91445760000000000,0.,0,0,0,0,0,0</value>
													</parameter>
													<parameter authoringApp="PremierePro">
														<parameterid>20</parameterid>
														<name>Parent Height</name>
														<IsTimeVarying>false</IsTimeVarying>
														<ParameterControlType>2</ParameterControlType>
														<LowerBound>0</LowerBound>
														<UpperBound>20000</UpperBound>
														<value>-91445760000000000,0.,0,0,0,0,0,0</value>
													</parameter>
													<parameter authoringApp="PremierePro">
														<parameterid>21</parameterid>
														<name>Parent Rotation</name>
														<IsTimeVarying>false</IsTimeVarying>
														<ParameterControlType>3</ParameterControlType>
														<LowerBound>-32768</LowerBound>
														<UpperBound>32767</UpperBound>
														<value>-91445760000000000,0.,0,0,0,0,0,0</value>
													</parameter>
												</effect>
											</filter>
											<logginginfo>
												<description></description>
												<scene></scene>
												<shottake></shottake>
												<lognote></lognote>
												<good></good>
												<originalvideofilename></originalvideofilename>
												<originalaudiofilename></originalaudiofilename>
											</logginginfo>
											<colorinfo>
												<lut></lut>
												<lut1></lut1>
												<asc_sop></asc_sop>
												<asc_sat></asc_sat>
												<lut2></lut2>
											</colorinfo>
										</clipitem>
										<transitionitem>
											<start>328</start>
											<end>350</end>
											<alignment>end-black</alignment>
											<cutPointTicks>223534080000</cutPointTicks>
											<rate>
												<timebase>25</timebase>
												<ntsc>FALSE</ntsc>
											</rate>
											<effect>
												<name>Edge Wipe</name>
												<effectid>Edge Wipe</effectid>
												<effectcategory>Wipe</effectcategory>
												<effecttype>transition</effecttype>
												<mediatype>video</mediatype>
												<wipecode>2</wipecode>
												<wipeaccuracy>100</wipeaccuracy>
												<startratio>0</startratio>
												<endratio>1</endratio>
												<reverse>FALSE</reverse>
												<parameter authoringApp="PremierePro">
													<parameterid>directionofwipe</parameterid>
													<name>Angle</name>
													<valuemin>-360</valuemin>
													<valuemax>360</valuemax>
													<value>90</value>
												</parameter>
											</effect>
										</transitionitem>
										<enabled>TRUE</enabled>
										<locked>FALSE</locked>
									</track>
								</video>
								<audio>
									<numOutputChannels>2</numOutputChannels>
									<format>
										<samplecharacteristics>
											<depth>16</depth>
											<samplerate>48000</samplerate>
										</samplecharacteristics>
									</format>
									<outputs>
										<group>
											<index>1</index>
											<numchannels>1</numchannels>
											<downmix>0</downmix>
											<channel>
												<index>1</index>
											</channel>
										</group>
										<group>
											<index>2</index>
											<numchannels>1</numchannels>
											<downmix>0</downmix>
											<channel>
												<index>2</index>
											</channel>
										</group>
									</outputs>
									<track TL.SQTrackAudioKeyframeStyle="0" TL.SQTrackShy="0" TL.SQTrackExpandedHeight="25" TL.SQTrackExpanded="0" MZ.TrackTargeted="1" PannerCurrentValue="0.5" PannerStartKeyframe="-91445760000000000,0.5,0,0,0,0,0,0" PannerName="Balance" currentExplodedTrackIndex="0" totalExplodedTrackCount="2" premiereTrackType="Stereo">
										<enabled>TRUE</enabled>
										<locked>FALSE</locked>
										<outputchannelindex>1</outputchannelindex>
									</track>
									<track TL.SQTrackAudioKeyframeStyle="0" TL.SQTrackShy="0" TL.SQTrackExpandedHeight="25" TL.SQTrackExpanded="0" MZ.TrackTargeted="1" PannerCurrentValue="0.5" PannerStartKeyframe="-91445760000000000,0.5,0,0,0,0,0,0" PannerName="Balance" currentExplodedTrackIndex="1" totalExplodedTrackCount="2" premiereTrackType="Stereo">
										<enabled>TRUE</enabled>
										<locked>FALSE</locked>
										<outputchannelindex>2</outputchannelindex>
									</track>
								</audio>
							</media>
							<timecode>
								<rate>
									<timebase>25</timebase>
									<ntsc>FALSE</ntsc>
								</rate>
								<string>00:00:00:00</string>
								<frame>0</frame>
								<displayformat>NDF</displayformat>
							</timecode>
								<marker>
									<comment></comment>
									<name></name>
									<in>125</in>
									<out>-1</out>
									<pproColor>4280578025</pproColor>
								</marker>
							<logginginfo>
								<description></description>
								<scene></scene>
								<shottake></shottake>
								<lognote></lognote>
								<good></good>
								<originalvideofilename></originalvideofilename>
								<originalaudiofilename></originalaudiofilename>
							</logginginfo>
						</sequence>
							<marker>
								<comment></comment>
								<name></name>
								<in>125</in>
								<out>-1</out>
								<pproColor>4280578025</pproColor>
							</marker>
						<labels>
							<label2>Forest</label2>
						</labels>
					</clipitem>
					<clipitem id="clipitem-1259">
						<masterclipid>masterclip-548</masterclipid>
						<name>7</name>
						<enabled>TRUE</enabled>
						<duration>475</duration>
						<rate>
							<timebase>25</timebase>
							<ntsc>FALSE</ntsc>
						</rate>
						<start>34248</start>
						<end>34599</end>
						<in>124</in>
						<out>475</out>
						<pproTicksIn>1259919360000</pproTicksIn>
						<pproTicksOut>4826304000000</pproTicksOut>
						<sequence id="sequence-99"/>
							<marker>
								<comment></comment>
								<name></name>
								<in>125</in>
								<out>-1</out>
								<pproColor>4280578025</pproColor>
							</marker>
						<labels>
							<label2>Forest</label2>
						</labels>
					</clipitem>
					<clipitem id="clipitem-1260">
						<masterclipid>masterclip-553</masterclipid>
						<name>6_TITLE</name>
						<enabled>TRUE</enabled>
						<duration>475</duration>
						<rate>
							<timebase>25</timebase>
							<ntsc>FALSE</ntsc>
						</rate>
						<start>35241</start>
						<end>35591</end>
						<in>0</in>
						<out>475</out>
						<pproTicksIn>0</pproTicksIn>
						<pproTicksOut>4826304000000</pproTicksOut>
						<sequence id="sequence-100" TL.SQAudioVisibleBase="0" TL.SQVideoVisibleBase="0" TL.SQVisibleBaseTime="1042735680000" TL.SQAVDividerPosition="0.5" TL.SQHideShyTracks="0" TL.SQHeaderWidth="236" TL.SQDataTrackViewControlState="0" Monitor.ProgramZoomOut="4826304000000" Monitor.ProgramZoomIn="0" TL.SQTimePerPixel="0.012499999999999999" AM.TrackVScrollPosition="0" AM.TrackScrollPosition="0" MZ.EditLine="3571464960000" MZ.Sequence.PreviewFrameSizeHeight="576" MZ.Sequence.PreviewFrameSizeWidth="720" MZ.Sequence.AudioTimeDisplayFormat="200" MZ.Sequence.PreviewRenderingClassID="1061109567" MZ.Sequence.PreviewRenderingPresetCodec="1685480304" MZ.Sequence.PreviewRenderingPresetPath="EncoderPresets/SequencePreview/04be6e19-a018-4e0c-a9d6-0ab44c64752b/QuickTime DV PAL.epr" MZ.Sequence.PreviewUseMaxRenderQuality="false" MZ.Sequence.PreviewUseMaxBitDepth="false" MZ.Sequence.EditingModeGUID="04be6e19-a018-4e0c-a9d6-0ab44c64752b" MZ.Sequence.VideoTimeDisplayFormat="101" MZ.WorkOutPoint="4826304000000" MZ.WorkInPoint="0" MZ.ZeroPoint="0">
							<duration>475</duration>
							<rate>
								<timebase>25</timebase>
								<ntsc>FALSE</ntsc>
							</rate>
							<name>титр</name>
							<media>
								<video>
									<format>
										<samplecharacteristics>
											<rate>
												<timebase>25</timebase>
												<ntsc>FALSE</ntsc>
											</rate>
											<codec>
												<name>Apple ProRes 422</name>
												<appspecificdata>
													<appname>Final Cut Pro</appname>
													<appmanufacturer>Apple Inc.</appmanufacturer>
													<appversion>7.0</appversion>
													<data>
														<qtcodec>
															<codecname>Apple ProRes 422</codecname>
															<codectypename>Apple ProRes 422</codectypename>
															<codectypecode>apcn</codectypecode>
															<codecvendorcode>appl</codecvendorcode>
															<spatialquality>1024</spatialquality>
															<temporalquality>0</temporalquality>
															<keyframerate>0</keyframerate>
															<datarate>0</datarate>
														</qtcodec>
													</data>
												</appspecificdata>
											</codec>
											<width>720</width>
											<height>576</height>
											<anamorphic>TRUE</anamorphic>
											<pixelaspectratio>PAL-601</pixelaspectratio>
											<fielddominance>lower</fielddominance>
											<colordepth>24</colordepth>
										</samplecharacteristics>
									</format>
									<track TL.SQTrackShy="0" TL.SQTrackExpandedHeight="25" TL.SQTrackExpanded="0" MZ.TrackTargeted="1">
										<clipitem id="clipitem-1261">
											<masterclipid>masterclip-554</masterclipid>
											<name>Nested Sequence 03</name>
											<enabled>TRUE</enabled>
											<duration>225</duration>
											<rate>
												<timebase>25</timebase>
												<ntsc>FALSE</ntsc>
											</rate>
											<start>125</start>
											<end>350</end>
											<in>0</in>
											<out>225</out>
											<pproTicksIn>0</pproTicksIn>
											<pproTicksOut>2286144000000</pproTicksOut>
											<sequence id="sequence-101" TL.SQVisibleBaseTime="0" TL.SQTimePerPixel="0.012499999999999999" MZ.Sequence.PreviewFrameSizeHeight="576" MZ.Sequence.PreviewFrameSizeWidth="720" MZ.Sequence.AudioTimeDisplayFormat="200" MZ.Sequence.PreviewRenderingPresetCodec="1685480304" MZ.Sequence.PreviewRenderingPresetPath="EncoderPresets/SequencePreview/04be6e19-a018-4e0c-a9d6-0ab44c64752b/QuickTime DV PAL.epr" MZ.Sequence.PreviewUseMaxRenderQuality="false" MZ.Sequence.PreviewUseMaxBitDepth="false" MZ.Sequence.EditingModeGUID="04be6e19-a018-4e0c-a9d6-0ab44c64752b" MZ.Sequence.VideoTimeDisplayFormat="101" MZ.WorkOutPoint="2286144000000" MZ.WorkInPoint="0">
												<duration>225</duration>
												<rate>
													<timebase>25</timebase>
													<ntsc>FALSE</ntsc>
												</rate>
												<name>Nested Sequence 03</name>
												<media>
													<video>
														<format>
															<samplecharacteristics>
																<rate>
																	<timebase>25</timebase>
																	<ntsc>FALSE</ntsc>
																</rate>
																<codec>
																	<name>Apple ProRes 422</name>
																	<appspecificdata>
																		<appname>Final Cut Pro</appname>
																		<appmanufacturer>Apple Inc.</appmanufacturer>
																		<appversion>7.0</appversion>
																		<data>
																			<qtcodec>
																				<codecname>Apple ProRes 422</codecname>
																				<codectypename>Apple ProRes 422</codectypename>
																				<codectypecode>apcn</codectypecode>
																				<codecvendorcode>appl</codecvendorcode>
																				<spatialquality>1024</spatialquality>
																				<temporalquality>0</temporalquality>
																				<keyframerate>0</keyframerate>
																				<datarate>0</datarate>
																			</qtcodec>
																		</data>
																	</appspecificdata>
																</codec>
																<width>720</width>
																<height>576</height>
																<anamorphic>TRUE</anamorphic>
																<pixelaspectratio>PAL-601</pixelaspectratio>
																<fielddominance>lower</fielddominance>
																<colordepth>24</colordepth>
															</samplecharacteristics>
														</format>
														<track TL.SQTrackExpandedHeight="25" TL.SQTrackExpanded="0" MZ.TrackTargeted="1">
															<clipitem id="clipitem-1262">
																<masterclipid>masterclip-555</masterclipid>
																<name>9_title.mov</name>
																<enabled>TRUE</enabled>
																<duration>225</duration>
																<rate>
																	<timebase>25</timebase>
																	<ntsc>FALSE</ntsc>
																</rate>
																<start>0</start>
																<end>225</end>
																<in>0</in>
																<out>225</out>
																<pproTicksIn>0</pproTicksIn>
																<pproTicksOut>2286144000000</pproTicksOut>
																<alphatype>straight</alphatype>
																<pixelaspectratio>square</pixelaspectratio>
																<anamorphic>FALSE</anamorphic>
																<file id="file-461">
																	<name>6_title.mov</name>
																	<pathurl>file://localhost/_MUZ_TV/graphika/RU-21/MOD/title_plashka/6_title.mov</pathurl>
																	<rate>
																		<timebase>25</timebase>
																		<ntsc>FALSE</ntsc>
																	</rate>
																	<duration>225</duration>
																	<timecode>
																		<rate>
																			<timebase>25</timebase>
																			<ntsc>FALSE</ntsc>
																		</rate>
																		<string>00:00:36:00</string>
																		<frame>900</frame>
																		<displayformat>NDF</displayformat>
																	</timecode>
																	<media>
																		<video>
																			<samplecharacteristics>
																				<rate>
																					<timebase>25</timebase>
																					<ntsc>FALSE</ntsc>
																				</rate>
																				<width>1920</width>
																				<height>1080</height>
																				<anamorphic>FALSE</anamorphic>
																				<pixelaspectratio>square</pixelaspectratio>
																				<fielddominance>none</fielddominance>
																			</samplecharacteristics>
																		</video>
																	</media>
																</file>
																<filter>
																	<effect>
																		<name>Basic Motion</name>
																		<effectid>basic</effectid>
																		<effectcategory>motion</effectcategory>
																		<effecttype>motion</effecttype>
																		<mediatype>video</mediatype>
																		<pproBypass>false</pproBypass>
																		<parameter authoringApp="PremierePro">
																			<parameterid>scale</parameterid>
																			<name>Scale</name>
																			<valuemin>0</valuemin>
																			<valuemax>1000</valuemax>
																			<value>55</value>
																		</parameter>
																		<parameter authoringApp="PremierePro">
																			<parameterid>rotation</parameterid>
																			<name>Rotation</name>
																			<valuemin>-8640</valuemin>
																			<valuemax>8640</valuemax>
																			<value>0</value>
																		</parameter>
																		<parameter authoringApp="PremierePro">
																			<parameterid>center</parameterid>
																			<name>Center</name>
																			<value>
																				<horiz>0</horiz>
																				<vert>0</vert>
																			</value>
																		</parameter>
																		<parameter authoringApp="PremierePro">
																			<parameterid>centerOffset</parameterid>
																			<name>Anchor Point</name>
																			<value>
																				<horiz>0</horiz>
																				<vert>0</vert>
																			</value>
																		</parameter>
																		<parameter authoringApp="PremierePro">
																			<parameterid>antiflicker</parameterid>
																			<name>Anti-flicker Filter</name>
																			<valuemin>0.0</valuemin>
																			<valuemax>1.0</valuemax>
																			<value>0</value>
																		</parameter>
																	</effect>
																</filter>
																<filter>
																	<effect>
																		<name>Distort</name>
																		<effectid>deformation</effectid>
																		<effectcategory>motion</effectcategory>
																		<effecttype>motion</effecttype>
																		<mediatype>video</mediatype>
																		<parameter authoringApp="PremierePro">
																			<parameterid>aspect</parameterid>
																			<name>Aspect</name>
																			<valuemin>-10000</valuemin>
																			<valuemax>10000</valuemax>
																			<value>-3.12506</value>
																		</parameter>
																	</effect>
																</filter>
																<logginginfo>
																	<description></description>
																	<scene></scene>
																	<shottake></shottake>
																	<lognote></lognote>
																	<good></good>
																	<originalvideofilename></originalvideofilename>
																	<originalaudiofilename></originalaudiofilename>
																</logginginfo>
																<colorinfo>
																	<lut></lut>
																	<lut1></lut1>
																	<asc_sop></asc_sop>
																	<asc_sat></asc_sat>
																	<lut2></lut2>
																</colorinfo>
																<labels>
																	<label2>Violet</label2>
																</labels>
															</clipitem>
															<enabled>TRUE</enabled>
															<locked>FALSE</locked>
														</track>
													</video>
													<audio>
														<numOutputChannels>2</numOutputChannels>
														<format>
															<samplecharacteristics>
																<depth>16</depth>
																<samplerate>48000</samplerate>
															</samplecharacteristics>
														</format>
														<outputs>
															<group>
																<index>1</index>
																<numchannels>1</numchannels>
																<downmix>0</downmix>
																<channel>
																	<index>1</index>
																</channel>
															</group>
															<group>
																<index>2</index>
																<numchannels>1</numchannels>
																<downmix>0</downmix>
																<channel>
																	<index>2</index>
																</channel>
															</group>
														</outputs>
														<track TL.SQTrackExpandedHeight="25" TL.SQTrackExpanded="0" MZ.TrackTargeted="1" PannerCurrentValue="0.5" PannerIsInverted="true" PannerStartKeyframe="-91445760000000000,0.5,0,0,0,0,0,0" PannerName="Balance" currentExplodedTrackIndex="0" totalExplodedTrackCount="2" premiereTrackType="Stereo">
															<enabled>TRUE</enabled>
															<locked>FALSE</locked>
															<outputchannelindex>1</outputchannelindex>
														</track>
														<track TL.SQTrackExpandedHeight="25" TL.SQTrackExpanded="0" MZ.TrackTargeted="1" PannerCurrentValue="0.5" PannerIsInverted="true" PannerStartKeyframe="-91445760000000000,0.5,0,0,0,0,0,0" PannerName="Balance" currentExplodedTrackIndex="1" totalExplodedTrackCount="2" premiereTrackType="Stereo">
															<enabled>TRUE</enabled>
															<locked>FALSE</locked>
															<outputchannelindex>2</outputchannelindex>
														</track>
													</audio>
												</media>
												<timecode>
													<rate>
														<timebase>25</timebase>
														<ntsc>FALSE</ntsc>
													</rate>
													<string>00:00:00:00</string>
													<frame>0</frame>
													<displayformat>NDF</displayformat>
												</timecode>
												<logginginfo>
													<description></description>
													<scene></scene>
													<shottake></shottake>
													<lognote></lognote>
													<good></good>
													<originalvideofilename></originalvideofilename>
													<originalaudiofilename></originalaudiofilename>
												</logginginfo>
											</sequence>
											<labels>
												<label2>Forest</label2>
											</labels>
										</clipitem>
										<clipitem id="clipitem-1263">
											<masterclipid>masterclip-556</masterclipid>
											<name>Graphic</name>
											<enabled>FALSE</enabled>
											<duration>1080000</duration>
											<rate>
												<timebase>25</timebase>
												<ntsc>FALSE</ntsc>
											</rate>
											<start>350</start>
											<end>475</end>
											<in>90000</in>
											<out>90125</out>
											<pproTicksIn>914457600000000</pproTicksIn>
											<pproTicksOut>915727680000000</pproTicksOut>
											<alphatype>straight</alphatype>
											<pixelaspectratio>PAL-601</pixelaspectratio>
											<anamorphic>TRUE</anamorphic>
											<file id="file-462">
												<name>Graphic</name>
												<mediaSource>GraphicAndType</mediaSource>
												<rate>
													<timebase>30</timebase>
													<ntsc>TRUE</ntsc>
												</rate>
												<timecode>
													<rate>
														<timebase>30</timebase>
														<ntsc>TRUE</ntsc>
													</rate>
													<string>00;00;00;00</string>
													<frame>0</frame>
													<displayformat>DF</displayformat>
												</timecode>
												<media>
													<video>
														<samplecharacteristics>
															<rate>
																<timebase>30</timebase>
																<ntsc>TRUE</ntsc>
															</rate>
															<width>720</width>
															<height>576</height>
															<anamorphic>TRUE</anamorphic>
															<pixelaspectratio>PAL-601</pixelaspectratio>
															<fielddominance>none</fielddominance>
														</samplecharacteristics>
													</video>
												</media>
											</file>
											<filter>
												<effect>
													<name>Basic Motion</name>
													<effectid>basic</effectid>
													<effectcategory>motion</effectcategory>
													<effecttype>motion</effecttype>
													<mediatype>video</mediatype>
													<pproBypass>false</pproBypass>
													<parameter authoringApp="PremierePro">
														<parameterid>scale</parameterid>
														<name>Scale</name>
														<valuemin>0</valuemin>
														<valuemax>1000</valuemax>
														<value>133.333</value>
													</parameter>
													<parameter authoringApp="PremierePro">
														<parameterid>rotation</parameterid>
														<name>Rotation</name>
														<valuemin>-8640</valuemin>
														<valuemax>8640</valuemax>
														<value>0</value>
													</parameter>
													<parameter authoringApp="PremierePro">
														<parameterid>center</parameterid>
														<name>Center</name>
														<value>
															<horiz>0</horiz>
															<vert>0</vert>
														</value>
													</parameter>
													<parameter authoringApp="PremierePro">
														<parameterid>centerOffset</parameterid>
														<name>Anchor Point</name>
														<value>
															<horiz>0</horiz>
															<vert>0</vert>
														</value>
													</parameter>
													<parameter authoringApp="PremierePro">
														<parameterid>antiflicker</parameterid>
														<name>Anti-flicker Filter</name>
														<valuemin>0.0</valuemin>
														<valuemax>1.0</valuemax>
														<value>0</value>
													</parameter>
												</effect>
											</filter>
											<filter>
												<effect>
													<name>Distort</name>
													<effectid>deformation</effectid>
													<effectcategory>motion</effectcategory>
													<effecttype>motion</effecttype>
													<mediatype>video</mediatype>
													<parameter authoringApp="PremierePro">
														<parameterid>aspect</parameterid>
														<name>Aspect</name>
														<valuemin>-10000</valuemin>
														<valuemax>10000</valuemax>
														<value>-33.333</value>
													</parameter>
												</effect>
											</filter>
											<filter>
												<effect>
													<name></name>
													<effectid>GraphicAndType</effectid>
													<effectcategory>graphic</effectcategory>
													<effecttype>filter</effecttype>
													<mediatype>video</mediatype>
													<pproBypass>false</pproBypass>
													<parameter authoringApp="PremierePro">
														<parameterid>1</parameterid>
														<name>Source Text</name>
														<hash>3f0faa81-c1b0-8370-b66c-fa0b000009f1</hash>
													</parameter>
													<parameter authoringApp="PremierePro">
														<parameterid>2</parameterid>
														<name>Transform</name>
														<IsTimeVarying>false</IsTimeVarying>
														<ParameterControlType>11</ParameterControlType>
														<LowerBound>false</LowerBound>
														<UpperBound>false</UpperBound>
														<value>-91445760000000000,false,0,0,0,0,0,0</value>
													</parameter>
													<parameter authoringApp="PremierePro">
														<parameterid>3</parameterid>
														<name>Position</name>
														<IsTimeVarying>false</IsTimeVarying>
														<value>-91445760000000000,0.55605381727218628:0.73039215803146362,0,0,0,0,0,0,5,4,0,0,0,0</value>
													</parameter>
													<parameter authoringApp="PremierePro">
														<parameterid>4</parameterid>
														<name>Scale</name>
														<IsTimeVarying>false</IsTimeVarying>
														<ParameterControlType>2</ParameterControlType>
														<LowerBound>0</LowerBound>
														<UpperBound>4000</UpperBound>
														<value>-91445760000000000,100.,0,0,0,0,0,0</value>
													</parameter>
													<parameter authoringApp="PremierePro">
														<parameterid>5</parameterid>
														<name>Horizontal Scale</name>
														<IsTimeVarying>false</IsTimeVarying>
														<ParameterControlType>2</ParameterControlType>
														<LowerBound>0</LowerBound>
														<UpperBound>4000</UpperBound>
														<value>-91445760000000000,100.,0,0,0,0,0,0</value>
													</parameter>
													<parameter authoringApp="PremierePro">
														<parameterid>6</parameterid>
														<name> </name>
														<IsTimeVarying>false</IsTimeVarying>
														<ParameterControlType>4</ParameterControlType>
														<LowerBound>false</LowerBound>
														<UpperBound>true</UpperBound>
														<value>-91445760000000000,true,0,0,0,0,0,0</value>
													</parameter>
													<parameter authoringApp="PremierePro">
														<parameterid>7</parameterid>
														<name>Rotation</name>
														<IsTimeVarying>false</IsTimeVarying>
														<ParameterControlType>3</ParameterControlType>
														<LowerBound>-32768</LowerBound>
														<UpperBound>32767</UpperBound>
														<value>-91445760000000000,0.,0,0,0,0,0,0</value>
													</parameter>
													<parameter authoringApp="PremierePro">
														<parameterid>8</parameterid>
														<name>Opacity</name>
														<IsTimeVarying>false</IsTimeVarying>
														<ParameterControlType>2</ParameterControlType>
														<LowerBound>0</LowerBound>
														<UpperBound>100</UpperBound>
														<value>-91445760000000000,100.,0,0,0,0,0,0</value>
													</parameter>
													<parameter authoringApp="PremierePro">
														<parameterid>9</parameterid>
														<name>Anchor Point</name>
														<IsTimeVarying>false</IsTimeVarying>
														<value>-91445760000000000,0:0,0,0,0,0,0,0,5,4,0,0,0,0</value>
													</parameter>
													<parameter authoringApp="PremierePro">
														<parameterid>10</parameterid>
														<name></name>
														<IsTimeVarying>false</IsTimeVarying>
														<ParameterControlType>12</ParameterControlType>
														<LowerBound>false</LowerBound>
														<UpperBound>false</UpperBound>
														<value>-91445760000000000,false,0,0,0,0,0,0</value>
													</parameter>
													<parameter authoringApp="PremierePro">
														<parameterid>11</parameterid>
														<name> </name>
														<IsTimeVarying>false</IsTimeVarying>
														<ParameterControlType>8</ParameterControlType>
														<LowerBound>0</LowerBound>
														<UpperBound>32768</UpperBound>
														<value>-91445760000000000,0.,0,0,0,0,0,0</value>
													</parameter>
													<parameter authoringApp="PremierePro">
														<parameterid>12</parameterid>
														<name> </name>
														<IsTimeVarying>false</IsTimeVarying>
														<ParameterControlType>8</ParameterControlType>
														<LowerBound>0</LowerBound>
														<UpperBound>32768</UpperBound>
														<value>-91445760000000000,0.,0,0,0,0,0,0</value>
													</parameter>
													<parameter authoringApp="PremierePro">
														<parameterid>13</parameterid>
														<name>start</name>
														<IsTimeVarying>false</IsTimeVarying>
														<ParameterControlType>8</ParameterControlType>
														<LowerBound>-100</LowerBound>
														<UpperBound>1000000000</UpperBound>
														<value>-91445760000000000,0.,0,0,0,0,0,0</value>
													</parameter>
													<parameter authoringApp="PremierePro">
														<parameterid>14</parameterid>
														<name>end</name>
														<IsTimeVarying>false</IsTimeVarying>
														<ParameterControlType>8</ParameterControlType>
														<LowerBound>-100</LowerBound>
														<UpperBound>1000000000</UpperBound>
														<value>-91445760000000000,0.,0,0,0,0,0,0</value>
													</parameter>
													<parameter authoringApp="PremierePro">
														<parameterid>15</parameterid>
														<name> </name>
														<IsTimeVarying>false</IsTimeVarying>
														<ParameterControlType>4</ParameterControlType>
														<LowerBound>false</LowerBound>
														<UpperBound>true</UpperBound>
														<value>-91445760000000000,false,0,0,0,0,0,0</value>
													</parameter>
													<parameter authoringApp="PremierePro">
														<parameterid>16</parameterid>
														<name> </name>
														<IsTimeVarying>false</IsTimeVarying>
														<ParameterControlType>4</ParameterControlType>
														<LowerBound>false</LowerBound>
														<UpperBound>true</UpperBound>
														<value>-91445760000000000,false,0,0,0,0,0,0</value>
													</parameter>
													<parameter authoringApp="PremierePro">
														<parameterid>17</parameterid>
														<name> </name>
														<IsTimeVarying>false</IsTimeVarying>
														<ParameterControlType>4</ParameterControlType>
														<LowerBound>false</LowerBound>
														<UpperBound>true</UpperBound>
														<value>-91445760000000000,false,0,0,0,0,0,0</value>
													</parameter>
													<parameter authoringApp="PremierePro">
														<parameterid>18</parameterid>
														<name> </name>
														<IsTimeVarying>false</IsTimeVarying>
														<ParameterControlType>4</ParameterControlType>
														<LowerBound>false</LowerBound>
														<UpperBound>true</UpperBound>
														<value>-91445760000000000,false,0,0,0,0,0,0</value>
													</parameter>
													<parameter authoringApp="PremierePro">
														<parameterid>19</parameterid>
														<name>Parent Width</name>
														<IsTimeVarying>false</IsTimeVarying>
														<ParameterControlType>2</ParameterControlType>
														<LowerBound>0</LowerBound>
														<UpperBound>20000</UpperBound>
														<value>-91445760000000000,0.,0,0,0,0,0,0</value>
													</parameter>
													<parameter authoringApp="PremierePro">
														<parameterid>20</parameterid>
														<name>Parent Height</name>
														<IsTimeVarying>false</IsTimeVarying>
														<ParameterControlType>2</ParameterControlType>
														<LowerBound>0</LowerBound>
														<UpperBound>20000</UpperBound>
														<value>-91445760000000000,0.,0,0,0,0,0,0</value>
													</parameter>
													<parameter authoringApp="PremierePro">
														<parameterid>21</parameterid>
														<name>Parent Rotation</name>
														<IsTimeVarying>false</IsTimeVarying>
														<ParameterControlType>3</ParameterControlType>
														<LowerBound>-32768</LowerBound>
														<UpperBound>32767</UpperBound>
														<value>-91445760000000000,0.,0,0,0,0,0,0</value>
													</parameter>
												</effect>
											</filter>
											<logginginfo>
												<description></description>
												<scene></scene>
												<shottake></shottake>
												<lognote></lognote>
												<good></good>
												<originalvideofilename></originalvideofilename>
												<originalaudiofilename></originalaudiofilename>
											</logginginfo>
											<colorinfo>
												<lut></lut>
												<lut1></lut1>
												<asc_sop></asc_sop>
												<asc_sat></asc_sat>
												<lut2></lut2>
											</colorinfo>
										</clipitem>
										<enabled>TRUE</enabled>
										<locked>FALSE</locked>
									</track>
									<track TL.SQTrackShy="0" TL.SQTrackExpandedHeight="25" TL.SQTrackExpanded="0" MZ.TrackTargeted="0">
										<clipitem id="clipitem-1264">
											<masterclipid>masterclip-554</masterclipid>
											<name>Nested Sequence 03</name>
											<enabled>TRUE</enabled>
											<duration>225</duration>
											<rate>
												<timebase>25</timebase>
												<ntsc>FALSE</ntsc>
											</rate>
											<start>128</start>
											<end>343</end>
											<in>0</in>
											<out>215</out>
											<pproTicksIn>0</pproTicksIn>
											<pproTicksOut>2184537600000</pproTicksOut>
											<sequence id="sequence-101"/>
											<filter>
												<effect>
													<name>Basic Motion</name>
													<effectid>basic</effectid>
													<effectcategory>motion</effectcategory>
													<effecttype>motion</effecttype>
													<mediatype>video</mediatype>
													<pproBypass>false</pproBypass>
													<parameter authoringApp="PremierePro">
														<parameterid>scale</parameterid>
														<name>Scale</name>
														<valuemin>0</valuemin>
														<valuemax>1000</valuemax>
														<value>100</value>
													</parameter>
													<parameter authoringApp="PremierePro">
														<parameterid>rotation</parameterid>
														<name>Rotation</name>
														<valuemin>-8640</valuemin>
														<valuemax>8640</valuemax>
														<value>0</value>
													</parameter>
													<parameter authoringApp="PremierePro">
														<parameterid>center</parameterid>
														<name>Center</name>
														<value>
															<horiz>-0.5</horiz>
															<vert>-0.5</vert>
														</value>
													</parameter>
													<parameter authoringApp="PremierePro">
														<parameterid>centerOffset</parameterid>
														<name>Anchor Point</name>
														<value>
															<horiz>0</horiz>
															<vert>0</vert>
														</value>
													</parameter>
													<parameter authoringApp="PremierePro">
														<parameterid>antiflicker</parameterid>
														<name>Anti-flicker Filter</name>
														<valuemin>0.0</valuemin>
														<valuemax>1.0</valuemax>
														<value>0</value>
													</parameter>
												</effect>
											</filter>
											<filter>
												<effect>
													<name>Opacity</name>
													<effectid>opacity</effectid>
													<effectcategory>motion</effectcategory>
													<effecttype>motion</effecttype>
													<mediatype>video</mediatype>
													<pproBypass>false</pproBypass>
													<parameter authoringApp="PremierePro">
														<parameterid>opacity</parameterid>
														<name>opacity</name>
														<valuemin>0</valuemin>
														<valuemax>100</valuemax>
														<value>100</value>
													</parameter>
												</effect>
											</filter>
											<labels>
												<label2>Forest</label2>
											</labels>
										</clipitem>
										<clipitem id="clipitem-1265">
											<masterclipid>masterclip-554</masterclipid>
											<name>Nested Sequence 03</name>
											<enabled>TRUE</enabled>
											<duration>225</duration>
											<rate>
												<timebase>25</timebase>
												<ntsc>FALSE</ntsc>
											</rate>
											<start>343</start>
											<end>351</end>
											<in>217</in>
											<out>225</out>
											<pproTicksIn>2204858880000</pproTicksIn>
											<pproTicksOut>2286144000000</pproTicksOut>
											<sequence id="sequence-101"/>
											<filter>
												<effect>
													<name>Basic Motion</name>
													<effectid>basic</effectid>
													<effectcategory>motion</effectcategory>
													<effecttype>motion</effecttype>
													<mediatype>video</mediatype>
													<pproBypass>false</pproBypass>
													<parameter authoringApp="PremierePro">
														<parameterid>scale</parameterid>
														<name>Scale</name>
														<valuemin>0</valuemin>
														<valuemax>1000</valuemax>
														<value>100</value>
													</parameter>
													<parameter authoringApp="PremierePro">
														<parameterid>rotation</parameterid>
														<name>Rotation</name>
														<valuemin>-8640</valuemin>
														<valuemax>8640</valuemax>
														<value>0</value>
													</parameter>
													<parameter authoringApp="PremierePro">
														<parameterid>center</parameterid>
														<name>Center</name>
														<value>
															<horiz>-0.5</horiz>
															<vert>-0.5</vert>
														</value>
													</parameter>
													<parameter authoringApp="PremierePro">
														<parameterid>centerOffset</parameterid>
														<name>Anchor Point</name>
														<value>
															<horiz>0</horiz>
															<vert>0</vert>
														</value>
													</parameter>
													<parameter authoringApp="PremierePro">
														<parameterid>antiflicker</parameterid>
														<name>Anti-flicker Filter</name>
														<valuemin>0.0</valuemin>
														<valuemax>1.0</valuemax>
														<value>0</value>
													</parameter>
												</effect>
											</filter>
											<filter>
												<effect>
													<name>Opacity</name>
													<effectid>opacity</effectid>
													<effectcategory>motion</effectcategory>
													<effecttype>motion</effecttype>
													<mediatype>video</mediatype>
													<pproBypass>false</pproBypass>
													<parameter authoringApp="PremierePro">
														<parameterid>opacity</parameterid>
														<name>opacity</name>
														<valuemin>0</valuemin>
														<valuemax>100</valuemax>
														<value>100</value>
													</parameter>
												</effect>
											</filter>
											<labels>
												<label2>Forest</label2>
											</labels>
										</clipitem>
										<enabled>TRUE</enabled>
										<locked>FALSE</locked>
									</track>
									<track TL.SQTrackShy="0" TL.SQTrackExpandedHeight="25" TL.SQTrackExpanded="0" MZ.TrackTargeted="0">
										<transitionitem>
											<start>174</start>
											<end>231</end>
											<alignment>start-black</alignment>
											<cutPointTicks>0</cutPointTicks>
											<rate>
												<timebase>25</timebase>
												<ntsc>FALSE</ntsc>
											</rate>
											<effect>
												<name>Edge Wipe</name>
												<effectid>Edge Wipe</effectid>
												<effectcategory>Wipe</effectcategory>
												<effecttype>transition</effecttype>
												<mediatype>video</mediatype>
												<wipecode>2</wipecode>
												<wipeaccuracy>100</wipeaccuracy>
												<startratio>0</startratio>
												<endratio>1</endratio>
												<reverse>FALSE</reverse>
												<parameter authoringApp="PremierePro">
													<parameterid>directionofwipe</parameterid>
													<name>Angle</name>
													<valuemin>-360</valuemin>
													<valuemax>360</valuemax>
													<value>90</value>
												</parameter>
											</effect>
										</transitionitem>
										<clipitem id="clipitem-1266">
											<masterclipid>masterclip-557</masterclipid>
											<name>9.png</name>
											<enabled>TRUE</enabled>
											<duration>1080000</duration>
											<rate>
												<timebase>25</timebase>
												<ntsc>FALSE</ntsc>
											</rate>
											<start>-1</start>
											<end>-1</end>
											<in>90049</in>
											<out>90225</out>
											<pproTicksIn>914955471360000</pproTicksIn>
											<pproTicksOut>916743744000000</pproTicksOut>
											<alphatype>straight</alphatype>
											<pixelaspectratio>square</pixelaspectratio>
											<anamorphic>FALSE</anamorphic>
											<file id="file-463">
												<name>6.png</name>
												<pathurl>file://localhost/_MUZ_TV/project_AP/RU/_TITLE/468/6.png</pathurl>
												<rate>
													<timebase>30</timebase>
													<ntsc>TRUE</ntsc>
												</rate>
												<timecode>
													<rate>
														<timebase>30</timebase>
														<ntsc>TRUE</ntsc>
													</rate>
													<string>00;00;00;00</string>
													<frame>0</frame>
													<displayformat>DF</displayformat>
												</timecode>
												<media>
													<video>
														<samplecharacteristics>
															<rate>
																<timebase>30</timebase>
																<ntsc>TRUE</ntsc>
															</rate>
															<width>1920</width>
															<height>1080</height>
															<anamorphic>FALSE</anamorphic>
															<pixelaspectratio>square</pixelaspectratio>
															<fielddominance>none</fielddominance>
														</samplecharacteristics>
													</video>
												</media>
											</file>
											<filter>
												<effect>
													<name>Basic Motion</name>
													<effectid>basic</effectid>
													<effectcategory>motion</effectcategory>
													<effecttype>motion</effecttype>
													<mediatype>video</mediatype>
													<pproBypass>false</pproBypass>
													<parameter authoringApp="PremierePro">
														<parameterid>scale</parameterid>
														<name>Scale</name>
														<valuemin>0</valuemin>
														<valuemax>1000</valuemax>
														<value>53.3333</value>
													</parameter>
													<parameter authoringApp="PremierePro">
														<parameterid>rotation</parameterid>
														<name>Rotation</name>
														<valuemin>-8640</valuemin>
														<valuemax>8640</valuemax>
														<value>0</value>
													</parameter>
													<parameter authoringApp="PremierePro">
														<parameterid>center</parameterid>
														<name>Center</name>
														<value>
															<horiz>0</horiz>
															<vert>0</vert>
														</value>
													</parameter>
													<parameter authoringApp="PremierePro">
														<parameterid>centerOffset</parameterid>
														<name>Anchor Point</name>
														<value>
															<horiz>0</horiz>
															<vert>0</vert>
														</value>
													</parameter>
													<parameter authoringApp="PremierePro">
														<parameterid>antiflicker</parameterid>
														<name>Anti-flicker Filter</name>
														<valuemin>0.0</valuemin>
														<valuemax>1.0</valuemax>
														<value>0</value>
													</parameter>
												</effect>
											</filter>
											<logginginfo>
												<description></description>
												<scene></scene>
												<shottake></shottake>
												<lognote></lognote>
												<good></good>
												<originalvideofilename></originalvideofilename>
												<originalaudiofilename></originalaudiofilename>
											</logginginfo>
											<colorinfo>
												<lut></lut>
												<lut1></lut1>
												<asc_sop></asc_sop>
												<asc_sat></asc_sat>
												<lut2></lut2>
											</colorinfo>
											<labels>
												<label2>Lavender</label2>
											</labels>
										</clipitem>
										<transitionitem>
											<start>328</start>
											<end>350</end>
											<alignment>end-black</alignment>
											<cutPointTicks>223534080000</cutPointTicks>
											<rate>
												<timebase>25</timebase>
												<ntsc>FALSE</ntsc>
											</rate>
											<effect>
												<name>Edge Wipe</name>
												<effectid>Edge Wipe</effectid>
												<effectcategory>Wipe</effectcategory>
												<effecttype>transition</effecttype>
												<mediatype>video</mediatype>
												<wipecode>2</wipecode>
												<wipeaccuracy>100</wipeaccuracy>
												<startratio>0</startratio>
												<endratio>1</endratio>
												<reverse>FALSE</reverse>
												<parameter authoringApp="PremierePro">
													<parameterid>directionofwipe</parameterid>
													<name>Angle</name>
													<valuemin>-360</valuemin>
													<valuemax>360</valuemax>
													<value>90</value>
												</parameter>
											</effect>
										</transitionitem>
										<enabled>TRUE</enabled>
										<locked>FALSE</locked>
									</track>
								</video>
								<audio>
									<numOutputChannels>2</numOutputChannels>
									<format>
										<samplecharacteristics>
											<depth>16</depth>
											<samplerate>48000</samplerate>
										</samplecharacteristics>
									</format>
									<outputs>
										<group>
											<index>1</index>
											<numchannels>1</numchannels>
											<downmix>0</downmix>
											<channel>
												<index>1</index>
											</channel>
										</group>
										<group>
											<index>2</index>
											<numchannels>1</numchannels>
											<downmix>0</downmix>
											<channel>
												<index>2</index>
											</channel>
										</group>
									</outputs>
									<track TL.SQTrackAudioKeyframeStyle="0" TL.SQTrackShy="0" TL.SQTrackExpandedHeight="25" TL.SQTrackExpanded="0" MZ.TrackTargeted="1" PannerCurrentValue="0.5" PannerStartKeyframe="-91445760000000000,0.5,0,0,0,0,0,0" PannerName="Balance" currentExplodedTrackIndex="0" totalExplodedTrackCount="2" premiereTrackType="Stereo">
										<enabled>TRUE</enabled>
										<locked>FALSE</locked>
										<outputchannelindex>1</outputchannelindex>
									</track>
									<track TL.SQTrackAudioKeyframeStyle="0" TL.SQTrackShy="0" TL.SQTrackExpandedHeight="25" TL.SQTrackExpanded="0" MZ.TrackTargeted="1" PannerCurrentValue="0.5" PannerStartKeyframe="-91445760000000000,0.5,0,0,0,0,0,0" PannerName="Balance" currentExplodedTrackIndex="1" totalExplodedTrackCount="2" premiereTrackType="Stereo">
										<enabled>TRUE</enabled>
										<locked>FALSE</locked>
										<outputchannelindex>2</outputchannelindex>
									</track>
								</audio>
							</media>
							<timecode>
								<rate>
									<timebase>25</timebase>
									<ntsc>FALSE</ntsc>
								</rate>
								<string>00:00:00:00</string>
								<frame>0</frame>
								<displayformat>NDF</displayformat>
							</timecode>
								<marker>
									<comment></comment>
									<name></name>
									<in>125</in>
									<out>-1</out>
									<pproColor>4280578025</pproColor>
								</marker>
							<logginginfo>
								<description></description>
								<scene></scene>
								<shottake></shottake>
								<lognote></lognote>
								<good></good>
								<originalvideofilename></originalvideofilename>
								<originalaudiofilename></originalaudiofilename>
							</logginginfo>
						</sequence>
							<marker>
								<comment></comment>
								<name></name>
								<in>125</in>
								<out>-1</out>
								<pproColor>4280578025</pproColor>
							</marker>
						<labels>
							<label2>Forest</label2>
						</labels>
					</clipitem>
					<clipitem id="clipitem-1267">
						<masterclipid>masterclip-553</masterclipid>
						<name>6</name>
						<enabled>TRUE</enabled>
						<duration>475</duration>
						<rate>
							<timebase>25</timebase>
							<ntsc>FALSE</ntsc>
						</rate>
						<start>40276</start>
						<end>40627</end>
						<in>124</in>
						<out>475</out>
						<pproTicksIn>1259919360000</pproTicksIn>
						<pproTicksOut>4826304000000</pproTicksOut>
						<sequence id="sequence-100"/>
							<marker>
								<comment></comment>
								<name></name>
								<in>125</in>
								<out>-1</out>
								<pproColor>4280578025</pproColor>
							</marker>
						<labels>
							<label2>Forest</label2>
						</labels>
					</clipitem>
					<clipitem id="clipitem-1268">
						<masterclipid>masterclip-558</masterclipid>
						<name>5_TITLE</name>
						<enabled>TRUE</enabled>
						<duration>475</duration>
						<rate>
							<timebase>25</timebase>
							<ntsc>FALSE</ntsc>
						</rate>
						<start>41193</start>
						<end>41543</end>
						<in>0</in>
						<out>475</out>
						<pproTicksIn>0</pproTicksIn>
						<pproTicksOut>4826304000000</pproTicksOut>
						<sequence id="sequence-102" TL.SQAudioVisibleBase="0" TL.SQVideoVisibleBase="0" TL.SQVisibleBaseTime="0" TL.SQAVDividerPosition="0.5" TL.SQHideShyTracks="0" TL.SQHeaderWidth="236" TL.SQDataTrackViewControlState="0" Monitor.ProgramZoomOut="4826304000000" Monitor.ProgramZoomIn="0" TL.SQTimePerPixel="0.024999999999999998" AM.TrackVScrollPosition="0" AM.TrackScrollPosition="0" MZ.EditLine="1473292800000" MZ.Sequence.PreviewFrameSizeHeight="576" MZ.Sequence.PreviewFrameSizeWidth="720" MZ.Sequence.AudioTimeDisplayFormat="200" MZ.Sequence.PreviewRenderingClassID="1061109567" MZ.Sequence.PreviewRenderingPresetCodec="1685480304" MZ.Sequence.PreviewRenderingPresetPath="EncoderPresets/SequencePreview/04be6e19-a018-4e0c-a9d6-0ab44c64752b/QuickTime DV PAL.epr" MZ.Sequence.PreviewUseMaxRenderQuality="false" MZ.Sequence.PreviewUseMaxBitDepth="false" MZ.Sequence.EditingModeGUID="04be6e19-a018-4e0c-a9d6-0ab44c64752b" MZ.Sequence.VideoTimeDisplayFormat="101" MZ.WorkOutPoint="4826304000000" MZ.WorkInPoint="0" MZ.ZeroPoint="0">
							<duration>475</duration>
							<rate>
								<timebase>25</timebase>
								<ntsc>FALSE</ntsc>
							</rate>
							<name>титр</name>
							<media>
								<video>
									<format>
										<samplecharacteristics>
											<rate>
												<timebase>25</timebase>
												<ntsc>FALSE</ntsc>
											</rate>
											<codec>
												<name>Apple ProRes 422</name>
												<appspecificdata>
													<appname>Final Cut Pro</appname>
													<appmanufacturer>Apple Inc.</appmanufacturer>
													<appversion>7.0</appversion>
													<data>
														<qtcodec>
															<codecname>Apple ProRes 422</codecname>
															<codectypename>Apple ProRes 422</codectypename>
															<codectypecode>apcn</codectypecode>
															<codecvendorcode>appl</codecvendorcode>
															<spatialquality>1024</spatialquality>
															<temporalquality>0</temporalquality>
															<keyframerate>0</keyframerate>
															<datarate>0</datarate>
														</qtcodec>
													</data>
												</appspecificdata>
											</codec>
											<width>720</width>
											<height>576</height>
											<anamorphic>TRUE</anamorphic>
											<pixelaspectratio>PAL-601</pixelaspectratio>
											<fielddominance>lower</fielddominance>
											<colordepth>24</colordepth>
										</samplecharacteristics>
									</format>
									<track TL.SQTrackShy="0" TL.SQTrackExpandedHeight="25" TL.SQTrackExpanded="0" MZ.TrackTargeted="1">
										<clipitem id="clipitem-1269">
											<masterclipid>masterclip-559</masterclipid>
											<name>9_title.mov</name>
											<enabled>TRUE</enabled>
											<duration>225</duration>
											<rate>
												<timebase>25</timebase>
												<ntsc>FALSE</ntsc>
											</rate>
											<start>125</start>
											<end>350</end>
											<in>0</in>
											<out>225</out>
											<pproTicksIn>0</pproTicksIn>
											<pproTicksOut>2286144000000</pproTicksOut>
											<alphatype>straight</alphatype>
											<pixelaspectratio>square</pixelaspectratio>
											<anamorphic>FALSE</anamorphic>
											<file id="file-464">
												<name>5_title.mov</name>
												<pathurl>file://localhost/_MUZ_TV/graphika/RU-21/MOD/title_plashka/5_title.mov</pathurl>
												<rate>
													<timebase>25</timebase>
													<ntsc>FALSE</ntsc>
												</rate>
												<duration>225</duration>
												<timecode>
													<rate>
														<timebase>25</timebase>
														<ntsc>FALSE</ntsc>
													</rate>
													<string>00:00:45:00</string>
													<frame>1125</frame>
													<displayformat>NDF</displayformat>
												</timecode>
												<media>
													<video>
														<samplecharacteristics>
															<rate>
																<timebase>25</timebase>
																<ntsc>FALSE</ntsc>
															</rate>
															<width>1920</width>
															<height>1080</height>
															<anamorphic>FALSE</anamorphic>
															<pixelaspectratio>square</pixelaspectratio>
															<fielddominance>none</fielddominance>
														</samplecharacteristics>
													</video>
												</media>
											</file>
											<filter>
												<effect>
													<name>Basic Motion</name>
													<effectid>basic</effectid>
													<effectcategory>motion</effectcategory>
													<effecttype>motion</effecttype>
													<mediatype>video</mediatype>
													<pproBypass>false</pproBypass>
													<parameter authoringApp="PremierePro">
														<parameterid>scale</parameterid>
														<name>Scale</name>
														<valuemin>0</valuemin>
														<valuemax>1000</valuemax>
														<value>55</value>
													</parameter>
													<parameter authoringApp="PremierePro">
														<parameterid>rotation</parameterid>
														<name>Rotation</name>
														<valuemin>-8640</valuemin>
														<valuemax>8640</valuemax>
														<value>0</value>
													</parameter>
													<parameter authoringApp="PremierePro">
														<parameterid>center</parameterid>
														<name>Center</name>
														<value>
															<horiz>0</horiz>
															<vert>0</vert>
														</value>
													</parameter>
													<parameter authoringApp="PremierePro">
														<parameterid>centerOffset</parameterid>
														<name>Anchor Point</name>
														<value>
															<horiz>0</horiz>
															<vert>0</vert>
														</value>
													</parameter>
													<parameter authoringApp="PremierePro">
														<parameterid>antiflicker</parameterid>
														<name>Anti-flicker Filter</name>
														<valuemin>0.0</valuemin>
														<valuemax>1.0</valuemax>
														<value>0</value>
													</parameter>
												</effect>
											</filter>
											<filter>
												<effect>
													<name>Distort</name>
													<effectid>deformation</effectid>
													<effectcategory>motion</effectcategory>
													<effecttype>motion</effecttype>
													<mediatype>video</mediatype>
													<parameter authoringApp="PremierePro">
														<parameterid>aspect</parameterid>
														<name>Aspect</name>
														<valuemin>-10000</valuemin>
														<valuemax>10000</valuemax>
														<value>-3.12506</value>
													</parameter>
												</effect>
											</filter>
											<logginginfo>
												<description></description>
												<scene></scene>
												<shottake></shottake>
												<lognote></lognote>
												<good></good>
												<originalvideofilename></originalvideofilename>
												<originalaudiofilename></originalaudiofilename>
											</logginginfo>
											<colorinfo>
												<lut></lut>
												<lut1></lut1>
												<asc_sop></asc_sop>
												<asc_sat></asc_sat>
												<lut2></lut2>
											</colorinfo>
											<labels>
												<label2>Violet</label2>
											</labels>
										</clipitem>
										<clipitem id="clipitem-1270">
											<masterclipid>masterclip-560</masterclipid>
											<name>Graphic</name>
											<enabled>FALSE</enabled>
											<duration>1080000</duration>
											<rate>
												<timebase>25</timebase>
												<ntsc>FALSE</ntsc>
											</rate>
											<start>350</start>
											<end>475</end>
											<in>90000</in>
											<out>90125</out>
											<pproTicksIn>914457600000000</pproTicksIn>
											<pproTicksOut>915727680000000</pproTicksOut>
											<alphatype>straight</alphatype>
											<pixelaspectratio>PAL-601</pixelaspectratio>
											<anamorphic>TRUE</anamorphic>
											<file id="file-465">
												<name>Graphic</name>
												<mediaSource>GraphicAndType</mediaSource>
												<rate>
													<timebase>30</timebase>
													<ntsc>TRUE</ntsc>
												</rate>
												<timecode>
													<rate>
														<timebase>30</timebase>
														<ntsc>TRUE</ntsc>
													</rate>
													<string>00;00;00;00</string>
													<frame>0</frame>
													<displayformat>DF</displayformat>
												</timecode>
												<media>
													<video>
														<samplecharacteristics>
															<rate>
																<timebase>30</timebase>
																<ntsc>TRUE</ntsc>
															</rate>
															<width>720</width>
															<height>576</height>
															<anamorphic>TRUE</anamorphic>
															<pixelaspectratio>PAL-601</pixelaspectratio>
															<fielddominance>none</fielddominance>
														</samplecharacteristics>
													</video>
												</media>
											</file>
											<filter>
												<effect>
													<name>Basic Motion</name>
													<effectid>basic</effectid>
													<effectcategory>motion</effectcategory>
													<effecttype>motion</effecttype>
													<mediatype>video</mediatype>
													<pproBypass>false</pproBypass>
													<parameter authoringApp="PremierePro">
														<parameterid>scale</parameterid>
														<name>Scale</name>
														<valuemin>0</valuemin>
														<valuemax>1000</valuemax>
														<value>133.333</value>
													</parameter>
													<parameter authoringApp="PremierePro">
														<parameterid>rotation</parameterid>
														<name>Rotation</name>
														<valuemin>-8640</valuemin>
														<valuemax>8640</valuemax>
														<value>0</value>
													</parameter>
													<parameter authoringApp="PremierePro">
														<parameterid>center</parameterid>
														<name>Center</name>
														<value>
															<horiz>0</horiz>
															<vert>0</vert>
														</value>
													</parameter>
													<parameter authoringApp="PremierePro">
														<parameterid>centerOffset</parameterid>
														<name>Anchor Point</name>
														<value>
															<horiz>0</horiz>
															<vert>0</vert>
														</value>
													</parameter>
													<parameter authoringApp="PremierePro">
														<parameterid>antiflicker</parameterid>
														<name>Anti-flicker Filter</name>
														<valuemin>0.0</valuemin>
														<valuemax>1.0</valuemax>
														<value>0</value>
													</parameter>
												</effect>
											</filter>
											<filter>
												<effect>
													<name>Distort</name>
													<effectid>deformation</effectid>
													<effectcategory>motion</effectcategory>
													<effecttype>motion</effecttype>
													<mediatype>video</mediatype>
													<parameter authoringApp="PremierePro">
														<parameterid>aspect</parameterid>
														<name>Aspect</name>
														<valuemin>-10000</valuemin>
														<valuemax>10000</valuemax>
														<value>-33.333</value>
													</parameter>
												</effect>
											</filter>
											<filter>
												<effect>
													<name></name>
													<effectid>GraphicAndType</effectid>
													<effectcategory>graphic</effectcategory>
													<effecttype>filter</effecttype>
													<mediatype>video</mediatype>
													<pproBypass>false</pproBypass>
													<parameter authoringApp="PremierePro">
														<parameterid>1</parameterid>
														<name>Source Text</name>
														<hash>3f0faa81-c1b0-8370-b66c-fa0b000009f1</hash>
													</parameter>
													<parameter authoringApp="PremierePro">
														<parameterid>2</parameterid>
														<name>Transform</name>
														<IsTimeVarying>false</IsTimeVarying>
														<ParameterControlType>11</ParameterControlType>
														<LowerBound>false</LowerBound>
														<UpperBound>false</UpperBound>
														<value>-91445760000000000,false,0,0,0,0,0,0</value>
													</parameter>
													<parameter authoringApp="PremierePro">
														<parameterid>3</parameterid>
														<name>Position</name>
														<IsTimeVarying>false</IsTimeVarying>
														<value>-91445760000000000,0.55605381727218628:0.73039215803146362,0,0,0,0,0,0,5,4,0,0,0,0</value>
													</parameter>
													<parameter authoringApp="PremierePro">
														<parameterid>4</parameterid>
														<name>Scale</name>
														<IsTimeVarying>false</IsTimeVarying>
														<ParameterControlType>2</ParameterControlType>
														<LowerBound>0</LowerBound>
														<UpperBound>4000</UpperBound>
														<value>-91445760000000000,100.,0,0,0,0,0,0</value>
													</parameter>
													<parameter authoringApp="PremierePro">
														<parameterid>5</parameterid>
														<name>Horizontal Scale</name>
														<IsTimeVarying>false</IsTimeVarying>
														<ParameterControlType>2</ParameterControlType>
														<LowerBound>0</LowerBound>
														<UpperBound>4000</UpperBound>
														<value>-91445760000000000,100.,0,0,0,0,0,0</value>
													</parameter>
													<parameter authoringApp="PremierePro">
														<parameterid>6</parameterid>
														<name> </name>
														<IsTimeVarying>false</IsTimeVarying>
														<ParameterControlType>4</ParameterControlType>
														<LowerBound>false</LowerBound>
														<UpperBound>true</UpperBound>
														<value>-91445760000000000,true,0,0,0,0,0,0</value>
													</parameter>
													<parameter authoringApp="PremierePro">
														<parameterid>7</parameterid>
														<name>Rotation</name>
														<IsTimeVarying>false</IsTimeVarying>
														<ParameterControlType>3</ParameterControlType>
														<LowerBound>-32768</LowerBound>
														<UpperBound>32767</UpperBound>
														<value>-91445760000000000,0.,0,0,0,0,0,0</value>
													</parameter>
													<parameter authoringApp="PremierePro">
														<parameterid>8</parameterid>
														<name>Opacity</name>
														<IsTimeVarying>false</IsTimeVarying>
														<ParameterControlType>2</ParameterControlType>
														<LowerBound>0</LowerBound>
														<UpperBound>100</UpperBound>
														<value>-91445760000000000,100.,0,0,0,0,0,0</value>
													</parameter>
													<parameter authoringApp="PremierePro">
														<parameterid>9</parameterid>
														<name>Anchor Point</name>
														<IsTimeVarying>false</IsTimeVarying>
														<value>-91445760000000000,0:0,0,0,0,0,0,0,5,4,0,0,0,0</value>
													</parameter>
													<parameter authoringApp="PremierePro">
														<parameterid>10</parameterid>
														<name></name>
														<IsTimeVarying>false</IsTimeVarying>
														<ParameterControlType>12</ParameterControlType>
														<LowerBound>false</LowerBound>
														<UpperBound>false</UpperBound>
														<value>-91445760000000000,false,0,0,0,0,0,0</value>
													</parameter>
													<parameter authoringApp="PremierePro">
														<parameterid>11</parameterid>
														<name> </name>
														<IsTimeVarying>false</IsTimeVarying>
														<ParameterControlType>8</ParameterControlType>
														<LowerBound>0</LowerBound>
														<UpperBound>32768</UpperBound>
														<value>-91445760000000000,0.,0,0,0,0,0,0</value>
													</parameter>
													<parameter authoringApp="PremierePro">
														<parameterid>12</parameterid>
														<name> </name>
														<IsTimeVarying>false</IsTimeVarying>
														<ParameterControlType>8</ParameterControlType>
														<LowerBound>0</LowerBound>
														<UpperBound>32768</UpperBound>
														<value>-91445760000000000,0.,0,0,0,0,0,0</value>
													</parameter>
													<parameter authoringApp="PremierePro">
														<parameterid>13</parameterid>
														<name>start</name>
														<IsTimeVarying>false</IsTimeVarying>
														<ParameterControlType>8</ParameterControlType>
														<LowerBound>-100</LowerBound>
														<UpperBound>1000000000</UpperBound>
														<value>-91445760000000000,0.,0,0,0,0,0,0</value>
													</parameter>
													<parameter authoringApp="PremierePro">
														<parameterid>14</parameterid>
														<name>end</name>
														<IsTimeVarying>false</IsTimeVarying>
														<ParameterControlType>8</ParameterControlType>
														<LowerBound>-100</LowerBound>
														<UpperBound>1000000000</UpperBound>
														<value>-91445760000000000,0.,0,0,0,0,0,0</value>
													</parameter>
													<parameter authoringApp="PremierePro">
														<parameterid>15</parameterid>
														<name> </name>
														<IsTimeVarying>false</IsTimeVarying>
														<ParameterControlType>4</ParameterControlType>
														<LowerBound>false</LowerBound>
														<UpperBound>true</UpperBound>
														<value>-91445760000000000,false,0,0,0,0,0,0</value>
													</parameter>
													<parameter authoringApp="PremierePro">
														<parameterid>16</parameterid>
														<name> </name>
														<IsTimeVarying>false</IsTimeVarying>
														<ParameterControlType>4</ParameterControlType>
														<LowerBound>false</LowerBound>
														<UpperBound>true</UpperBound>
														<value>-91445760000000000,false,0,0,0,0,0,0</value>
													</parameter>
													<parameter authoringApp="PremierePro">
														<parameterid>17</parameterid>
														<name> </name>
														<IsTimeVarying>false</IsTimeVarying>
														<ParameterControlType>4</ParameterControlType>
														<LowerBound>false</LowerBound>
														<UpperBound>true</UpperBound>
														<value>-91445760000000000,false,0,0,0,0,0,0</value>
													</parameter>
													<parameter authoringApp="PremierePro">
														<parameterid>18</parameterid>
														<name> </name>
														<IsTimeVarying>false</IsTimeVarying>
														<ParameterControlType>4</ParameterControlType>
														<LowerBound>false</LowerBound>
														<UpperBound>true</UpperBound>
														<value>-91445760000000000,false,0,0,0,0,0,0</value>
													</parameter>
													<parameter authoringApp="PremierePro">
														<parameterid>19</parameterid>
														<name>Parent Width</name>
														<IsTimeVarying>false</IsTimeVarying>
														<ParameterControlType>2</ParameterControlType>
														<LowerBound>0</LowerBound>
														<UpperBound>20000</UpperBound>
														<value>-91445760000000000,0.,0,0,0,0,0,0</value>
													</parameter>
													<parameter authoringApp="PremierePro">
														<parameterid>20</parameterid>
														<name>Parent Height</name>
														<IsTimeVarying>false</IsTimeVarying>
														<ParameterControlType>2</ParameterControlType>
														<LowerBound>0</LowerBound>
														<UpperBound>20000</UpperBound>
														<value>-91445760000000000,0.,0,0,0,0,0,0</value>
													</parameter>
													<parameter authoringApp="PremierePro">
														<parameterid>21</parameterid>
														<name>Parent Rotation</name>
														<IsTimeVarying>false</IsTimeVarying>
														<ParameterControlType>3</ParameterControlType>
														<LowerBound>-32768</LowerBound>
														<UpperBound>32767</UpperBound>
														<value>-91445760000000000,0.,0,0,0,0,0,0</value>
													</parameter>
												</effect>
											</filter>
											<logginginfo>
												<description></description>
												<scene></scene>
												<shottake></shottake>
												<lognote></lognote>
												<good></good>
												<originalvideofilename></originalvideofilename>
												<originalaudiofilename></originalaudiofilename>
											</logginginfo>
											<colorinfo>
												<lut></lut>
												<lut1></lut1>
												<asc_sop></asc_sop>
												<asc_sat></asc_sat>
												<lut2></lut2>
											</colorinfo>
										</clipitem>
										<enabled>TRUE</enabled>
										<locked>FALSE</locked>
									</track>
									<track TL.SQTrackShy="0" TL.SQTrackExpandedHeight="25" TL.SQTrackExpanded="0" MZ.TrackTargeted="0">
										<transitionitem>
											<start>167</start>
											<end>224</end>
											<alignment>start-black</alignment>
											<cutPointTicks>0</cutPointTicks>
											<rate>
												<timebase>25</timebase>
												<ntsc>FALSE</ntsc>
											</rate>
											<effect>
												<name>Edge Wipe</name>
												<effectid>Edge Wipe</effectid>
												<effectcategory>Wipe</effectcategory>
												<effecttype>transition</effecttype>
												<mediatype>video</mediatype>
												<wipecode>2</wipecode>
												<wipeaccuracy>100</wipeaccuracy>
												<startratio>0</startratio>
												<endratio>1</endratio>
												<reverse>FALSE</reverse>
												<parameter authoringApp="PremierePro">
													<parameterid>directionofwipe</parameterid>
													<name>Angle</name>
													<valuemin>-360</valuemin>
													<valuemax>360</valuemax>
													<value>90</value>
												</parameter>
											</effect>
										</transitionitem>
										<clipitem id="clipitem-1271">
											<masterclipid>masterclip-561</masterclipid>
											<name>9.png</name>
											<enabled>TRUE</enabled>
											<duration>1080000</duration>
											<rate>
												<timebase>25</timebase>
												<ntsc>FALSE</ntsc>
											</rate>
											<start>-1</start>
											<end>-1</end>
											<in>90042</in>
											<out>90225</out>
											<pproTicksIn>914884346880000</pproTicksIn>
											<pproTicksOut>916743744000000</pproTicksOut>
											<alphatype>straight</alphatype>
											<pixelaspectratio>square</pixelaspectratio>
											<anamorphic>FALSE</anamorphic>
											<file id="file-466">
												<name>5.png</name>
												<pathurl>file://localhost/_MUZ_TV/project_AP/RU/_TITLE/468/5.png</pathurl>
												<rate>
													<timebase>30</timebase>
													<ntsc>TRUE</ntsc>
												</rate>
												<timecode>
													<rate>
														<timebase>30</timebase>
														<ntsc>TRUE</ntsc>
													</rate>
													<string>00;00;00;00</string>
													<frame>0</frame>
													<displayformat>DF</displayformat>
												</timecode>
												<media>
													<video>
														<samplecharacteristics>
															<rate>
																<timebase>30</timebase>
																<ntsc>TRUE</ntsc>
															</rate>
															<width>1920</width>
															<height>1080</height>
															<anamorphic>FALSE</anamorphic>
															<pixelaspectratio>square</pixelaspectratio>
															<fielddominance>none</fielddominance>
														</samplecharacteristics>
													</video>
												</media>
											</file>
											<filter>
												<effect>
													<name>Basic Motion</name>
													<effectid>basic</effectid>
													<effectcategory>motion</effectcategory>
													<effecttype>motion</effecttype>
													<mediatype>video</mediatype>
													<pproBypass>false</pproBypass>
													<parameter authoringApp="PremierePro">
														<parameterid>scale</parameterid>
														<name>Scale</name>
														<valuemin>0</valuemin>
														<valuemax>1000</valuemax>
														<value>53.3333</value>
													</parameter>
													<parameter authoringApp="PremierePro">
														<parameterid>rotation</parameterid>
														<name>Rotation</name>
														<valuemin>-8640</valuemin>
														<valuemax>8640</valuemax>
														<value>0</value>
													</parameter>
													<parameter authoringApp="PremierePro">
														<parameterid>center</parameterid>
														<name>Center</name>
														<value>
															<horiz>0</horiz>
															<vert>0</vert>
														</value>
													</parameter>
													<parameter authoringApp="PremierePro">
														<parameterid>centerOffset</parameterid>
														<name>Anchor Point</name>
														<value>
															<horiz>0</horiz>
															<vert>0</vert>
														</value>
													</parameter>
													<parameter authoringApp="PremierePro">
														<parameterid>antiflicker</parameterid>
														<name>Anti-flicker Filter</name>
														<valuemin>0.0</valuemin>
														<valuemax>1.0</valuemax>
														<value>0</value>
													</parameter>
												</effect>
											</filter>
											<logginginfo>
												<description></description>
												<scene></scene>
												<shottake></shottake>
												<lognote></lognote>
												<good></good>
												<originalvideofilename></originalvideofilename>
												<originalaudiofilename></originalaudiofilename>
											</logginginfo>
											<colorinfo>
												<lut></lut>
												<lut1></lut1>
												<asc_sop></asc_sop>
												<asc_sat></asc_sat>
												<lut2></lut2>
											</colorinfo>
											<labels>
												<label2>Lavender</label2>
											</labels>
										</clipitem>
										<transitionitem>
											<start>328</start>
											<end>350</end>
											<alignment>end-black</alignment>
											<cutPointTicks>223534080000</cutPointTicks>
											<rate>
												<timebase>25</timebase>
												<ntsc>FALSE</ntsc>
											</rate>
											<effect>
												<name>Edge Wipe</name>
												<effectid>Edge Wipe</effectid>
												<effectcategory>Wipe</effectcategory>
												<effecttype>transition</effecttype>
												<mediatype>video</mediatype>
												<wipecode>2</wipecode>
												<wipeaccuracy>100</wipeaccuracy>
												<startratio>0</startratio>
												<endratio>1</endratio>
												<reverse>FALSE</reverse>
												<parameter authoringApp="PremierePro">
													<parameterid>directionofwipe</parameterid>
													<name>Angle</name>
													<valuemin>-360</valuemin>
													<valuemax>360</valuemax>
													<value>90</value>
												</parameter>
											</effect>
										</transitionitem>
										<enabled>TRUE</enabled>
										<locked>FALSE</locked>
									</track>
									<track TL.SQTrackShy="0" TL.SQTrackExpandedHeight="25" TL.SQTrackExpanded="0" MZ.TrackTargeted="0">
										<transitionitem>
											<start>167</start>
											<end>224</end>
											<alignment>start-black</alignment>
											<cutPointTicks>0</cutPointTicks>
											<rate>
												<timebase>25</timebase>
												<ntsc>FALSE</ntsc>
											</rate>
											<effect>
												<name>Edge Wipe</name>
												<effectid>Edge Wipe</effectid>
												<effectcategory>Wipe</effectcategory>
												<effecttype>transition</effecttype>
												<mediatype>video</mediatype>
												<wipecode>2</wipecode>
												<wipeaccuracy>100</wipeaccuracy>
												<startratio>0</startratio>
												<endratio>1</endratio>
												<reverse>FALSE</reverse>
												<parameter authoringApp="PremierePro">
													<parameterid>directionofwipe</parameterid>
													<name>Angle</name>
													<valuemin>-360</valuemin>
													<valuemax>360</valuemax>
													<value>90</value>
												</parameter>
											</effect>
										</transitionitem>
										<clipitem id="clipitem-1272">
											<masterclipid>masterclip-562</masterclipid>
											<name>Graphic</name>
											<enabled>FALSE</enabled>
											<duration>1080000</duration>
											<rate>
												<timebase>25</timebase>
												<ntsc>FALSE</ntsc>
											</rate>
											<start>-1</start>
											<end>-1</end>
											<in>89998</in>
											<out>90181</out>
											<pproTicksIn>914437278720000</pproTicksIn>
											<pproTicksOut>916296675840000</pproTicksOut>
											<alphatype>straight</alphatype>
											<pixelaspectratio>PAL-601</pixelaspectratio>
											<anamorphic>TRUE</anamorphic>
											<file id="file-467">
												<name>Graphic</name>
												<mediaSource>GraphicAndType</mediaSource>
												<rate>
													<timebase>30</timebase>
													<ntsc>TRUE</ntsc>
												</rate>
												<timecode>
													<rate>
														<timebase>30</timebase>
														<ntsc>TRUE</ntsc>
													</rate>
													<string>00;00;00;00</string>
													<frame>0</frame>
													<displayformat>DF</displayformat>
												</timecode>
												<media>
													<video>
														<samplecharacteristics>
															<rate>
																<timebase>30</timebase>
																<ntsc>TRUE</ntsc>
															</rate>
															<width>720</width>
															<height>576</height>
															<anamorphic>TRUE</anamorphic>
															<pixelaspectratio>PAL-601</pixelaspectratio>
															<fielddominance>none</fielddominance>
														</samplecharacteristics>
													</video>
												</media>
											</file>
											<filter>
												<effect>
													<name>АРТУР ПИРОЖКОВ&#13;ЛЕТОМ НА ФИЕСТЕ</name>
													<effectid>GraphicAndType</effectid>
													<effectcategory>graphic</effectcategory>
													<effecttype>filter</effecttype>
													<mediatype>video</mediatype>
													<pproBypass>false</pproBypass>
													<pproExpanded>true</pproExpanded>
													<parameter authoringApp="PremierePro">
														<parameterid>1</parameterid>
														<name>Source Text</name>
														<hash>dc092258-f6b9-fd91-a76f-c3e700000476</hash>
													</parameter>
													<parameter authoringApp="PremierePro">
														<parameterid>2</parameterid>
														<name>Transform</name>
														<IsTimeVarying>false</IsTimeVarying>
														<ParameterControlType>11</ParameterControlType>
														<LowerBound>false</LowerBound>
														<UpperBound>false</UpperBound>
														<value>-91445760000000000,false,0,0,0,0,0,0</value>
													</parameter>
													<parameter authoringApp="PremierePro">
														<parameterid>3</parameterid>
														<name>Position</name>
														<IsTimeVarying>false</IsTimeVarying>
														<value>-91445760000000000,0.36944580078125:0.86468505859375,0,0,0,0,0,0,5,4,0,0,0,0</value>
													</parameter>
													<parameter authoringApp="PremierePro">
														<parameterid>4</parameterid>
														<name>Scale</name>
														<IsTimeVarying>false</IsTimeVarying>
														<ParameterControlType>2</ParameterControlType>
														<LowerBound>0</LowerBound>
														<UpperBound>4000</UpperBound>
														<value>-91445760000000000,100.,0,0,0,0,0,0</value>
													</parameter>
													<parameter authoringApp="PremierePro">
														<parameterid>5</parameterid>
														<name>Horizontal Scale</name>
														<IsTimeVarying>false</IsTimeVarying>
														<ParameterControlType>2</ParameterControlType>
														<LowerBound>0</LowerBound>
														<UpperBound>4000</UpperBound>
														<value>-91445760000000000,100.,0,0,0,0,0,0</value>
													</parameter>
													<parameter authoringApp="PremierePro">
														<parameterid>6</parameterid>
														<name> </name>
														<IsTimeVarying>false</IsTimeVarying>
														<ParameterControlType>4</ParameterControlType>
														<LowerBound>false</LowerBound>
														<UpperBound>true</UpperBound>
														<value>-91445760000000000,true,0,0,0,0,0,0</value>
													</parameter>
													<parameter authoringApp="PremierePro">
														<parameterid>7</parameterid>
														<name>Rotation</name>
														<IsTimeVarying>false</IsTimeVarying>
														<ParameterControlType>3</ParameterControlType>
														<LowerBound>-32768</LowerBound>
														<UpperBound>32767</UpperBound>
														<value>-91445760000000000,0.,0,0,0,0,0,0</value>
													</parameter>
													<parameter authoringApp="PremierePro">
														<parameterid>8</parameterid>
														<name>Opacity</name>
														<IsTimeVarying>false</IsTimeVarying>
														<ParameterControlType>2</ParameterControlType>
														<LowerBound>0</LowerBound>
														<UpperBound>100</UpperBound>
														<value>-91445760000000000,100.,0,0,0,0,0,0</value>
													</parameter>
													<parameter authoringApp="PremierePro">
														<parameterid>9</parameterid>
														<name>Anchor Point</name>
														<IsTimeVarying>false</IsTimeVarying>
														<value>-91445760000000000,0:0,0,0,0,0,0,0,5,4,0,0,0,0</value>
													</parameter>
													<parameter authoringApp="PremierePro">
														<parameterid>10</parameterid>
														<name></name>
														<IsTimeVarying>false</IsTimeVarying>
														<ParameterControlType>12</ParameterControlType>
														<LowerBound>false</LowerBound>
														<UpperBound>false</UpperBound>
														<value>-91445760000000000,false,0,0,0,0,0,0</value>
													</parameter>
													<parameter authoringApp="PremierePro">
														<parameterid>11</parameterid>
														<name> </name>
														<IsTimeVarying>false</IsTimeVarying>
														<ParameterControlType>8</ParameterControlType>
														<LowerBound>0</LowerBound>
														<UpperBound>32768</UpperBound>
														<value>-91445760000000000,0.,0,0,0,0,0,0</value>
													</parameter>
													<parameter authoringApp="PremierePro">
														<parameterid>12</parameterid>
														<name> </name>
														<IsTimeVarying>false</IsTimeVarying>
														<ParameterControlType>8</ParameterControlType>
														<LowerBound>0</LowerBound>
														<UpperBound>32768</UpperBound>
														<value>-91445760000000000,0.,0,0,0,0,0,0</value>
													</parameter>
													<parameter authoringApp="PremierePro">
														<parameterid>13</parameterid>
														<name>start</name>
														<IsTimeVarying>false</IsTimeVarying>
														<ParameterControlType>8</ParameterControlType>
														<LowerBound>-100</LowerBound>
														<UpperBound>1000000000</UpperBound>
														<value>-91445760000000000,30.,0,0,0,0,0,0</value>
													</parameter>
													<parameter authoringApp="PremierePro">
														<parameterid>14</parameterid>
														<name>end</name>
														<IsTimeVarying>false</IsTimeVarying>
														<ParameterControlType>8</ParameterControlType>
														<LowerBound>-100</LowerBound>
														<UpperBound>1000000000</UpperBound>
														<value>-91445760000000000,30.,0,0,0,0,0,0</value>
													</parameter>
													<parameter authoringApp="PremierePro">
														<parameterid>15</parameterid>
														<name> </name>
														<IsTimeVarying>false</IsTimeVarying>
														<ParameterControlType>4</ParameterControlType>
														<LowerBound>false</LowerBound>
														<UpperBound>true</UpperBound>
														<value>-91445760000000000,false,0,0,0,0,0,0</value>
													</parameter>
													<parameter authoringApp="PremierePro">
														<parameterid>16</parameterid>
														<name> </name>
														<IsTimeVarying>false</IsTimeVarying>
														<ParameterControlType>4</ParameterControlType>
														<LowerBound>false</LowerBound>
														<UpperBound>true</UpperBound>
														<value>-91445760000000000,false,0,0,0,0,0,0</value>
													</parameter>
													<parameter authoringApp="PremierePro">
														<parameterid>17</parameterid>
														<name> </name>
														<IsTimeVarying>false</IsTimeVarying>
														<ParameterControlType>4</ParameterControlType>
														<LowerBound>false</LowerBound>
														<UpperBound>true</UpperBound>
														<value>-91445760000000000,false,0,0,0,0,0,0</value>
													</parameter>
													<parameter authoringApp="PremierePro">
														<parameterid>18</parameterid>
														<name> </name>
														<IsTimeVarying>false</IsTimeVarying>
														<ParameterControlType>4</ParameterControlType>
														<LowerBound>false</LowerBound>
														<UpperBound>true</UpperBound>
														<value>-91445760000000000,false,0,0,0,0,0,0</value>
													</parameter>
													<parameter authoringApp="PremierePro">
														<parameterid>19</parameterid>
														<name>Parent Width</name>
														<IsTimeVarying>false</IsTimeVarying>
														<ParameterControlType>2</ParameterControlType>
														<LowerBound>0</LowerBound>
														<UpperBound>20000</UpperBound>
														<value>-91445760000000000,0.,0,0,0,0,0,0</value>
													</parameter>
													<parameter authoringApp="PremierePro">
														<parameterid>20</parameterid>
														<name>Parent Height</name>
														<IsTimeVarying>false</IsTimeVarying>
														<ParameterControlType>2</ParameterControlType>
														<LowerBound>0</LowerBound>
														<UpperBound>20000</UpperBound>
														<value>-91445760000000000,0.,0,0,0,0,0,0</value>
													</parameter>
													<parameter authoringApp="PremierePro">
														<parameterid>21</parameterid>
														<name>Parent Rotation</name>
														<IsTimeVarying>false</IsTimeVarying>
														<ParameterControlType>3</ParameterControlType>
														<LowerBound>-32768</LowerBound>
														<UpperBound>32767</UpperBound>
														<value>-91445760000000000,0.,0,0,0,0,0,0</value>
													</parameter>
												</effect>
											</filter>
											<logginginfo>
												<description></description>
												<scene></scene>
												<shottake></shottake>
												<lognote></lognote>
												<good></good>
												<originalvideofilename></originalvideofilename>
												<originalaudiofilename></originalaudiofilename>
											</logginginfo>
											<colorinfo>
												<lut></lut>
												<lut1></lut1>
												<asc_sop></asc_sop>
												<asc_sat></asc_sat>
												<lut2></lut2>
											</colorinfo>
										</clipitem>
										<transitionitem>
											<start>328</start>
											<end>350</end>
											<alignment>end-black</alignment>
											<cutPointTicks>223534080000</cutPointTicks>
											<rate>
												<timebase>25</timebase>
												<ntsc>FALSE</ntsc>
											</rate>
											<effect>
												<name>Edge Wipe</name>
												<effectid>Edge Wipe</effectid>
												<effectcategory>Wipe</effectcategory>
												<effecttype>transition</effecttype>
												<mediatype>video</mediatype>
												<wipecode>2</wipecode>
												<wipeaccuracy>100</wipeaccuracy>
												<startratio>0</startratio>
												<endratio>1</endratio>
												<reverse>FALSE</reverse>
												<parameter authoringApp="PremierePro">
													<parameterid>directionofwipe</parameterid>
													<name>Angle</name>
													<valuemin>-360</valuemin>
													<valuemax>360</valuemax>
													<value>90</value>
												</parameter>
											</effect>
										</transitionitem>
										<enabled>TRUE</enabled>
										<locked>FALSE</locked>
									</track>
								</video>
								<audio>
									<numOutputChannels>2</numOutputChannels>
									<format>
										<samplecharacteristics>
											<depth>16</depth>
											<samplerate>48000</samplerate>
										</samplecharacteristics>
									</format>
									<outputs>
										<group>
											<index>1</index>
											<numchannels>1</numchannels>
											<downmix>0</downmix>
											<channel>
												<index>1</index>
											</channel>
										</group>
										<group>
											<index>2</index>
											<numchannels>1</numchannels>
											<downmix>0</downmix>
											<channel>
												<index>2</index>
											</channel>
										</group>
									</outputs>
									<track TL.SQTrackAudioKeyframeStyle="0" TL.SQTrackShy="0" TL.SQTrackExpandedHeight="25" TL.SQTrackExpanded="0" MZ.TrackTargeted="1" PannerCurrentValue="0.5" PannerStartKeyframe="-91445760000000000,0.5,0,0,0,0,0,0" PannerName="Balance" currentExplodedTrackIndex="0" totalExplodedTrackCount="2" premiereTrackType="Stereo">
										<enabled>TRUE</enabled>
										<locked>FALSE</locked>
										<outputchannelindex>1</outputchannelindex>
									</track>
									<track TL.SQTrackAudioKeyframeStyle="0" TL.SQTrackShy="0" TL.SQTrackExpandedHeight="25" TL.SQTrackExpanded="0" MZ.TrackTargeted="1" PannerCurrentValue="0.5" PannerStartKeyframe="-91445760000000000,0.5,0,0,0,0,0,0" PannerName="Balance" currentExplodedTrackIndex="1" totalExplodedTrackCount="2" premiereTrackType="Stereo">
										<enabled>TRUE</enabled>
										<locked>FALSE</locked>
										<outputchannelindex>2</outputchannelindex>
									</track>
								</audio>
							</media>
							<timecode>
								<rate>
									<timebase>25</timebase>
									<ntsc>FALSE</ntsc>
								</rate>
								<string>00:00:00:00</string>
								<frame>0</frame>
								<displayformat>NDF</displayformat>
							</timecode>
								<marker>
									<comment></comment>
									<name></name>
									<in>125</in>
									<out>-1</out>
									<pproColor>4280578025</pproColor>
								</marker>
							<logginginfo>
								<description></description>
								<scene></scene>
								<shottake></shottake>
								<lognote></lognote>
								<good></good>
								<originalvideofilename></originalvideofilename>
								<originalaudiofilename></originalaudiofilename>
							</logginginfo>
						</sequence>
							<marker>
								<comment></comment>
								<name></name>
								<in>125</in>
								<out>-1</out>
								<pproColor>4280578025</pproColor>
							</marker>
						<labels>
							<label2>Forest</label2>
						</labels>
					</clipitem>
					<clipitem id="clipitem-1273">
						<masterclipid>masterclip-558</masterclipid>
						<name>5</name>
						<enabled>TRUE</enabled>
						<duration>475</duration>
						<rate>
							<timebase>25</timebase>
							<ntsc>FALSE</ntsc>
						</rate>
						<start>43824</start>
						<end>44175</end>
						<in>124</in>
						<out>475</out>
						<pproTicksIn>1259919360000</pproTicksIn>
						<pproTicksOut>4826304000000</pproTicksOut>
						<sequence id="sequence-102"/>
							<marker>
								<comment></comment>
								<name></name>
								<in>125</in>
								<out>-1</out>
								<pproColor>4280578025</pproColor>
							</marker>
						<labels>
							<label2>Forest</label2>
						</labels>
					</clipitem>
					<clipitem id="clipitem-1274">
						<masterclipid>masterclip-563</masterclipid>
						<name>4_TITLE</name>
						<enabled>TRUE</enabled>
						<duration>475</duration>
						<rate>
							<timebase>25</timebase>
							<ntsc>FALSE</ntsc>
						</rate>
						<start>44929</start>
						<end>45279</end>
						<in>0</in>
						<out>475</out>
						<pproTicksIn>0</pproTicksIn>
						<pproTicksOut>4826304000000</pproTicksOut>
						<sequence id="sequence-103" TL.SQAudioVisibleBase="0" TL.SQVideoVisibleBase="0" TL.SQVisibleBaseTime="0" TL.SQAVDividerPosition="0.5" TL.SQHideShyTracks="0" TL.SQHeaderWidth="236" TL.SQDataTrackViewControlState="0" Monitor.ProgramZoomOut="4826304000000" Monitor.ProgramZoomIn="0" TL.SQTimePerPixel="0.024999999999999998" AM.TrackVScrollPosition="0" AM.TrackScrollPosition="0" MZ.EditLine="1473292800000" MZ.Sequence.PreviewFrameSizeHeight="576" MZ.Sequence.PreviewFrameSizeWidth="720" MZ.Sequence.AudioTimeDisplayFormat="200" MZ.Sequence.PreviewRenderingClassID="1061109567" MZ.Sequence.PreviewRenderingPresetCodec="1685480304" MZ.Sequence.PreviewRenderingPresetPath="EncoderPresets/SequencePreview/04be6e19-a018-4e0c-a9d6-0ab44c64752b/QuickTime DV PAL.epr" MZ.Sequence.PreviewUseMaxRenderQuality="false" MZ.Sequence.PreviewUseMaxBitDepth="false" MZ.Sequence.EditingModeGUID="04be6e19-a018-4e0c-a9d6-0ab44c64752b" MZ.Sequence.VideoTimeDisplayFormat="101" MZ.WorkOutPoint="4826304000000" MZ.WorkInPoint="0" MZ.ZeroPoint="0">
							<duration>475</duration>
							<rate>
								<timebase>25</timebase>
								<ntsc>FALSE</ntsc>
							</rate>
							<name>титр</name>
							<media>
								<video>
									<format>
										<samplecharacteristics>
											<rate>
												<timebase>25</timebase>
												<ntsc>FALSE</ntsc>
											</rate>
											<codec>
												<name>Apple ProRes 422</name>
												<appspecificdata>
													<appname>Final Cut Pro</appname>
													<appmanufacturer>Apple Inc.</appmanufacturer>
													<appversion>7.0</appversion>
													<data>
														<qtcodec>
															<codecname>Apple ProRes 422</codecname>
															<codectypename>Apple ProRes 422</codectypename>
															<codectypecode>apcn</codectypecode>
															<codecvendorcode>appl</codecvendorcode>
															<spatialquality>1024</spatialquality>
															<temporalquality>0</temporalquality>
															<keyframerate>0</keyframerate>
															<datarate>0</datarate>
														</qtcodec>
													</data>
												</appspecificdata>
											</codec>
											<width>720</width>
											<height>576</height>
											<anamorphic>TRUE</anamorphic>
											<pixelaspectratio>PAL-601</pixelaspectratio>
											<fielddominance>lower</fielddominance>
											<colordepth>24</colordepth>
										</samplecharacteristics>
									</format>
									<track TL.SQTrackShy="0" TL.SQTrackExpandedHeight="25" TL.SQTrackExpanded="0" MZ.TrackTargeted="1">
										<clipitem id="clipitem-1275">
											<masterclipid>masterclip-564</masterclipid>
											<name>9_title.mov</name>
											<enabled>TRUE</enabled>
											<duration>225</duration>
											<rate>
												<timebase>25</timebase>
												<ntsc>FALSE</ntsc>
											</rate>
											<start>125</start>
											<end>350</end>
											<in>0</in>
											<out>225</out>
											<pproTicksIn>0</pproTicksIn>
											<pproTicksOut>2286144000000</pproTicksOut>
											<alphatype>straight</alphatype>
											<pixelaspectratio>square</pixelaspectratio>
											<anamorphic>FALSE</anamorphic>
											<file id="file-468">
												<name>4_title.mov</name>
												<pathurl>file://localhost/_MUZ_TV/graphika/RU-21/MOD/title_plashka/4_title.mov</pathurl>
												<rate>
													<timebase>25</timebase>
													<ntsc>FALSE</ntsc>
												</rate>
												<duration>225</duration>
												<timecode>
													<rate>
														<timebase>25</timebase>
														<ntsc>FALSE</ntsc>
													</rate>
													<string>00:00:54:00</string>
													<frame>1350</frame>
													<displayformat>NDF</displayformat>
												</timecode>
												<media>
													<video>
														<samplecharacteristics>
															<rate>
																<timebase>25</timebase>
																<ntsc>FALSE</ntsc>
															</rate>
															<width>1920</width>
															<height>1080</height>
															<anamorphic>FALSE</anamorphic>
															<pixelaspectratio>square</pixelaspectratio>
															<fielddominance>none</fielddominance>
														</samplecharacteristics>
													</video>
												</media>
											</file>
											<filter>
												<effect>
													<name>Basic Motion</name>
													<effectid>basic</effectid>
													<effectcategory>motion</effectcategory>
													<effecttype>motion</effecttype>
													<mediatype>video</mediatype>
													<pproBypass>false</pproBypass>
													<parameter authoringApp="PremierePro">
														<parameterid>scale</parameterid>
														<name>Scale</name>
														<valuemin>0</valuemin>
														<valuemax>1000</valuemax>
														<value>55</value>
													</parameter>
													<parameter authoringApp="PremierePro">
														<parameterid>rotation</parameterid>
														<name>Rotation</name>
														<valuemin>-8640</valuemin>
														<valuemax>8640</valuemax>
														<value>0</value>
													</parameter>
													<parameter authoringApp="PremierePro">
														<parameterid>center</parameterid>
														<name>Center</name>
														<value>
															<horiz>0</horiz>
															<vert>0</vert>
														</value>
													</parameter>
													<parameter authoringApp="PremierePro">
														<parameterid>centerOffset</parameterid>
														<name>Anchor Point</name>
														<value>
															<horiz>0</horiz>
															<vert>0</vert>
														</value>
													</parameter>
													<parameter authoringApp="PremierePro">
														<parameterid>antiflicker</parameterid>
														<name>Anti-flicker Filter</name>
														<valuemin>0.0</valuemin>
														<valuemax>1.0</valuemax>
														<value>0</value>
													</parameter>
												</effect>
											</filter>
											<filter>
												<effect>
													<name>Distort</name>
													<effectid>deformation</effectid>
													<effectcategory>motion</effectcategory>
													<effecttype>motion</effecttype>
													<mediatype>video</mediatype>
													<parameter authoringApp="PremierePro">
														<parameterid>aspect</parameterid>
														<name>Aspect</name>
														<valuemin>-10000</valuemin>
														<valuemax>10000</valuemax>
														<value>-3.12506</value>
													</parameter>
												</effect>
											</filter>
											<logginginfo>
												<description></description>
												<scene></scene>
												<shottake></shottake>
												<lognote></lognote>
												<good></good>
												<originalvideofilename></originalvideofilename>
												<originalaudiofilename></originalaudiofilename>
											</logginginfo>
											<colorinfo>
												<lut></lut>
												<lut1></lut1>
												<asc_sop></asc_sop>
												<asc_sat></asc_sat>
												<lut2></lut2>
											</colorinfo>
											<labels>
												<label2>Violet</label2>
											</labels>
										</clipitem>
										<clipitem id="clipitem-1276">
											<masterclipid>masterclip-565</masterclipid>
											<name>Graphic</name>
											<enabled>FALSE</enabled>
											<duration>1080000</duration>
											<rate>
												<timebase>25</timebase>
												<ntsc>FALSE</ntsc>
											</rate>
											<start>350</start>
											<end>475</end>
											<in>90000</in>
											<out>90125</out>
											<pproTicksIn>914457600000000</pproTicksIn>
											<pproTicksOut>915727680000000</pproTicksOut>
											<alphatype>straight</alphatype>
											<pixelaspectratio>PAL-601</pixelaspectratio>
											<anamorphic>TRUE</anamorphic>
											<file id="file-469">
												<name>Graphic</name>
												<mediaSource>GraphicAndType</mediaSource>
												<rate>
													<timebase>30</timebase>
													<ntsc>TRUE</ntsc>
												</rate>
												<timecode>
													<rate>
														<timebase>30</timebase>
														<ntsc>TRUE</ntsc>
													</rate>
													<string>00;00;00;00</string>
													<frame>0</frame>
													<displayformat>DF</displayformat>
												</timecode>
												<media>
													<video>
														<samplecharacteristics>
															<rate>
																<timebase>30</timebase>
																<ntsc>TRUE</ntsc>
															</rate>
															<width>720</width>
															<height>576</height>
															<anamorphic>TRUE</anamorphic>
															<pixelaspectratio>PAL-601</pixelaspectratio>
															<fielddominance>none</fielddominance>
														</samplecharacteristics>
													</video>
												</media>
											</file>
											<filter>
												<effect>
													<name>Basic Motion</name>
													<effectid>basic</effectid>
													<effectcategory>motion</effectcategory>
													<effecttype>motion</effecttype>
													<mediatype>video</mediatype>
													<pproBypass>false</pproBypass>
													<parameter authoringApp="PremierePro">
														<parameterid>scale</parameterid>
														<name>Scale</name>
														<valuemin>0</valuemin>
														<valuemax>1000</valuemax>
														<value>133.333</value>
													</parameter>
													<parameter authoringApp="PremierePro">
														<parameterid>rotation</parameterid>
														<name>Rotation</name>
														<valuemin>-8640</valuemin>
														<valuemax>8640</valuemax>
														<value>0</value>
													</parameter>
													<parameter authoringApp="PremierePro">
														<parameterid>center</parameterid>
														<name>Center</name>
														<value>
															<horiz>0</horiz>
															<vert>0</vert>
														</value>
													</parameter>
													<parameter authoringApp="PremierePro">
														<parameterid>centerOffset</parameterid>
														<name>Anchor Point</name>
														<value>
															<horiz>0</horiz>
															<vert>0</vert>
														</value>
													</parameter>
													<parameter authoringApp="PremierePro">
														<parameterid>antiflicker</parameterid>
														<name>Anti-flicker Filter</name>
														<valuemin>0.0</valuemin>
														<valuemax>1.0</valuemax>
														<value>0</value>
													</parameter>
												</effect>
											</filter>
											<filter>
												<effect>
													<name>Distort</name>
													<effectid>deformation</effectid>
													<effectcategory>motion</effectcategory>
													<effecttype>motion</effecttype>
													<mediatype>video</mediatype>
													<parameter authoringApp="PremierePro">
														<parameterid>aspect</parameterid>
														<name>Aspect</name>
														<valuemin>-10000</valuemin>
														<valuemax>10000</valuemax>
														<value>-33.333</value>
													</parameter>
												</effect>
											</filter>
											<filter>
												<effect>
													<name></name>
													<effectid>GraphicAndType</effectid>
													<effectcategory>graphic</effectcategory>
													<effecttype>filter</effecttype>
													<mediatype>video</mediatype>
													<pproBypass>false</pproBypass>
													<parameter authoringApp="PremierePro">
														<parameterid>1</parameterid>
														<name>Source Text</name>
														<hash>3f0faa81-c1b0-8370-b66c-fa0b000009f1</hash>
													</parameter>
													<parameter authoringApp="PremierePro">
														<parameterid>2</parameterid>
														<name>Transform</name>
														<IsTimeVarying>false</IsTimeVarying>
														<ParameterControlType>11</ParameterControlType>
														<LowerBound>false</LowerBound>
														<UpperBound>false</UpperBound>
														<value>-91445760000000000,false,0,0,0,0,0,0</value>
													</parameter>
													<parameter authoringApp="PremierePro">
														<parameterid>3</parameterid>
														<name>Position</name>
														<IsTimeVarying>false</IsTimeVarying>
														<value>-91445760000000000,0.55605381727218628:0.73039215803146362,0,0,0,0,0,0,5,4,0,0,0,0</value>
													</parameter>
													<parameter authoringApp="PremierePro">
														<parameterid>4</parameterid>
														<name>Scale</name>
														<IsTimeVarying>false</IsTimeVarying>
														<ParameterControlType>2</ParameterControlType>
														<LowerBound>0</LowerBound>
														<UpperBound>4000</UpperBound>
														<value>-91445760000000000,100.,0,0,0,0,0,0</value>
													</parameter>
													<parameter authoringApp="PremierePro">
														<parameterid>5</parameterid>
														<name>Horizontal Scale</name>
														<IsTimeVarying>false</IsTimeVarying>
														<ParameterControlType>2</ParameterControlType>
														<LowerBound>0</LowerBound>
														<UpperBound>4000</UpperBound>
														<value>-91445760000000000,100.,0,0,0,0,0,0</value>
													</parameter>
													<parameter authoringApp="PremierePro">
														<parameterid>6</parameterid>
														<name> </name>
														<IsTimeVarying>false</IsTimeVarying>
														<ParameterControlType>4</ParameterControlType>
														<LowerBound>false</LowerBound>
														<UpperBound>true</UpperBound>
														<value>-91445760000000000,true,0,0,0,0,0,0</value>
													</parameter>
													<parameter authoringApp="PremierePro">
														<parameterid>7</parameterid>
														<name>Rotation</name>
														<IsTimeVarying>false</IsTimeVarying>
														<ParameterControlType>3</ParameterControlType>
														<LowerBound>-32768</LowerBound>
														<UpperBound>32767</UpperBound>
														<value>-91445760000000000,0.,0,0,0,0,0,0</value>
													</parameter>
													<parameter authoringApp="PremierePro">
														<parameterid>8</parameterid>
														<name>Opacity</name>
														<IsTimeVarying>false</IsTimeVarying>
														<ParameterControlType>2</ParameterControlType>
														<LowerBound>0</LowerBound>
														<UpperBound>100</UpperBound>
														<value>-91445760000000000,100.,0,0,0,0,0,0</value>
													</parameter>
													<parameter authoringApp="PremierePro">
														<parameterid>9</parameterid>
														<name>Anchor Point</name>
														<IsTimeVarying>false</IsTimeVarying>
														<value>-91445760000000000,0:0,0,0,0,0,0,0,5,4,0,0,0,0</value>
													</parameter>
													<parameter authoringApp="PremierePro">
														<parameterid>10</parameterid>
														<name></name>
														<IsTimeVarying>false</IsTimeVarying>
														<ParameterControlType>12</ParameterControlType>
														<LowerBound>false</LowerBound>
														<UpperBound>false</UpperBound>
														<value>-91445760000000000,false,0,0,0,0,0,0</value>
													</parameter>
													<parameter authoringApp="PremierePro">
														<parameterid>11</parameterid>
														<name> </name>
														<IsTimeVarying>false</IsTimeVarying>
														<ParameterControlType>8</ParameterControlType>
														<LowerBound>0</LowerBound>
														<UpperBound>32768</UpperBound>
														<value>-91445760000000000,0.,0,0,0,0,0,0</value>
													</parameter>
													<parameter authoringApp="PremierePro">
														<parameterid>12</parameterid>
														<name> </name>
														<IsTimeVarying>false</IsTimeVarying>
														<ParameterControlType>8</ParameterControlType>
														<LowerBound>0</LowerBound>
														<UpperBound>32768</UpperBound>
														<value>-91445760000000000,0.,0,0,0,0,0,0</value>
													</parameter>
													<parameter authoringApp="PremierePro">
														<parameterid>13</parameterid>
														<name>start</name>
														<IsTimeVarying>false</IsTimeVarying>
														<ParameterControlType>8</ParameterControlType>
														<LowerBound>-100</LowerBound>
														<UpperBound>1000000000</UpperBound>
														<value>-91445760000000000,0.,0,0,0,0,0,0</value>
													</parameter>
													<parameter authoringApp="PremierePro">
														<parameterid>14</parameterid>
														<name>end</name>
														<IsTimeVarying>false</IsTimeVarying>
														<ParameterControlType>8</ParameterControlType>
														<LowerBound>-100</LowerBound>
														<UpperBound>1000000000</UpperBound>
														<value>-91445760000000000,0.,0,0,0,0,0,0</value>
													</parameter>
													<parameter authoringApp="PremierePro">
														<parameterid>15</parameterid>
														<name> </name>
														<IsTimeVarying>false</IsTimeVarying>
														<ParameterControlType>4</ParameterControlType>
														<LowerBound>false</LowerBound>
														<UpperBound>true</UpperBound>
														<value>-91445760000000000,false,0,0,0,0,0,0</value>
													</parameter>
													<parameter authoringApp="PremierePro">
														<parameterid>16</parameterid>
														<name> </name>
														<IsTimeVarying>false</IsTimeVarying>
														<ParameterControlType>4</ParameterControlType>
														<LowerBound>false</LowerBound>
														<UpperBound>true</UpperBound>
														<value>-91445760000000000,false,0,0,0,0,0,0</value>
													</parameter>
													<parameter authoringApp="PremierePro">
														<parameterid>17</parameterid>
														<name> </name>
														<IsTimeVarying>false</IsTimeVarying>
														<ParameterControlType>4</ParameterControlType>
														<LowerBound>false</LowerBound>
														<UpperBound>true</UpperBound>
														<value>-91445760000000000,false,0,0,0,0,0,0</value>
													</parameter>
													<parameter authoringApp="PremierePro">
														<parameterid>18</parameterid>
														<name> </name>
														<IsTimeVarying>false</IsTimeVarying>
														<ParameterControlType>4</ParameterControlType>
														<LowerBound>false</LowerBound>
														<UpperBound>true</UpperBound>
														<value>-91445760000000000,false,0,0,0,0,0,0</value>
													</parameter>
													<parameter authoringApp="PremierePro">
														<parameterid>19</parameterid>
														<name>Parent Width</name>
														<IsTimeVarying>false</IsTimeVarying>
														<ParameterControlType>2</ParameterControlType>
														<LowerBound>0</LowerBound>
														<UpperBound>20000</UpperBound>
														<value>-91445760000000000,0.,0,0,0,0,0,0</value>
													</parameter>
													<parameter authoringApp="PremierePro">
														<parameterid>20</parameterid>
														<name>Parent Height</name>
														<IsTimeVarying>false</IsTimeVarying>
														<ParameterControlType>2</ParameterControlType>
														<LowerBound>0</LowerBound>
														<UpperBound>20000</UpperBound>
														<value>-91445760000000000,0.,0,0,0,0,0,0</value>
													</parameter>
													<parameter authoringApp="PremierePro">
														<parameterid>21</parameterid>
														<name>Parent Rotation</name>
														<IsTimeVarying>false</IsTimeVarying>
														<ParameterControlType>3</ParameterControlType>
														<LowerBound>-32768</LowerBound>
														<UpperBound>32767</UpperBound>
														<value>-91445760000000000,0.,0,0,0,0,0,0</value>
													</parameter>
												</effect>
											</filter>
											<logginginfo>
												<description></description>
												<scene></scene>
												<shottake></shottake>
												<lognote></lognote>
												<good></good>
												<originalvideofilename></originalvideofilename>
												<originalaudiofilename></originalaudiofilename>
											</logginginfo>
											<colorinfo>
												<lut></lut>
												<lut1></lut1>
												<asc_sop></asc_sop>
												<asc_sat></asc_sat>
												<lut2></lut2>
											</colorinfo>
										</clipitem>
										<enabled>TRUE</enabled>
										<locked>FALSE</locked>
									</track>
									<track TL.SQTrackShy="0" TL.SQTrackExpandedHeight="25" TL.SQTrackExpanded="0" MZ.TrackTargeted="0">
										<transitionitem>
											<start>167</start>
											<end>224</end>
											<alignment>start-black</alignment>
											<cutPointTicks>0</cutPointTicks>
											<rate>
												<timebase>25</timebase>
												<ntsc>FALSE</ntsc>
											</rate>
											<effect>
												<name>Edge Wipe</name>
												<effectid>Edge Wipe</effectid>
												<effectcategory>Wipe</effectcategory>
												<effecttype>transition</effecttype>
												<mediatype>video</mediatype>
												<wipecode>2</wipecode>
												<wipeaccuracy>100</wipeaccuracy>
												<startratio>0</startratio>
												<endratio>1</endratio>
												<reverse>FALSE</reverse>
												<parameter authoringApp="PremierePro">
													<parameterid>directionofwipe</parameterid>
													<name>Angle</name>
													<valuemin>-360</valuemin>
													<valuemax>360</valuemax>
													<value>90</value>
												</parameter>
											</effect>
										</transitionitem>
										<clipitem id="clipitem-1277">
											<masterclipid>masterclip-566</masterclipid>
											<name>9.png</name>
											<enabled>TRUE</enabled>
											<duration>1080000</duration>
											<rate>
												<timebase>25</timebase>
												<ntsc>FALSE</ntsc>
											</rate>
											<start>-1</start>
											<end>-1</end>
											<in>90042</in>
											<out>90225</out>
											<pproTicksIn>914884346880000</pproTicksIn>
											<pproTicksOut>916743744000000</pproTicksOut>
											<alphatype>straight</alphatype>
											<pixelaspectratio>square</pixelaspectratio>
											<anamorphic>FALSE</anamorphic>
											<file id="file-470">
												<name>4.png</name>
												<pathurl>file://localhost/_MUZ_TV/project_AP/RU/_TITLE/468/4.png</pathurl>
												<rate>
													<timebase>30</timebase>
													<ntsc>TRUE</ntsc>
												</rate>
												<timecode>
													<rate>
														<timebase>30</timebase>
														<ntsc>TRUE</ntsc>
													</rate>
													<string>00;00;00;00</string>
													<frame>0</frame>
													<displayformat>DF</displayformat>
												</timecode>
												<media>
													<video>
														<samplecharacteristics>
															<rate>
																<timebase>30</timebase>
																<ntsc>TRUE</ntsc>
															</rate>
															<width>1920</width>
															<height>1080</height>
															<anamorphic>FALSE</anamorphic>
															<pixelaspectratio>square</pixelaspectratio>
															<fielddominance>none</fielddominance>
														</samplecharacteristics>
													</video>
												</media>
											</file>
											<filter>
												<effect>
													<name>Basic Motion</name>
													<effectid>basic</effectid>
													<effectcategory>motion</effectcategory>
													<effecttype>motion</effecttype>
													<mediatype>video</mediatype>
													<pproBypass>false</pproBypass>
													<parameter authoringApp="PremierePro">
														<parameterid>scale</parameterid>
														<name>Scale</name>
														<valuemin>0</valuemin>
														<valuemax>1000</valuemax>
														<value>53.3333</value>
													</parameter>
													<parameter authoringApp="PremierePro">
														<parameterid>rotation</parameterid>
														<name>Rotation</name>
														<valuemin>-8640</valuemin>
														<valuemax>8640</valuemax>
														<value>0</value>
													</parameter>
													<parameter authoringApp="PremierePro">
														<parameterid>center</parameterid>
														<name>Center</name>
														<value>
															<horiz>0</horiz>
															<vert>0</vert>
														</value>
													</parameter>
													<parameter authoringApp="PremierePro">
														<parameterid>centerOffset</parameterid>
														<name>Anchor Point</name>
														<value>
															<horiz>0</horiz>
															<vert>0</vert>
														</value>
													</parameter>
													<parameter authoringApp="PremierePro">
														<parameterid>antiflicker</parameterid>
														<name>Anti-flicker Filter</name>
														<valuemin>0.0</valuemin>
														<valuemax>1.0</valuemax>
														<value>0</value>
													</parameter>
												</effect>
											</filter>
											<logginginfo>
												<description></description>
												<scene></scene>
												<shottake></shottake>
												<lognote></lognote>
												<good></good>
												<originalvideofilename></originalvideofilename>
												<originalaudiofilename></originalaudiofilename>
											</logginginfo>
											<colorinfo>
												<lut></lut>
												<lut1></lut1>
												<asc_sop></asc_sop>
												<asc_sat></asc_sat>
												<lut2></lut2>
											</colorinfo>
											<labels>
												<label2>Lavender</label2>
											</labels>
										</clipitem>
										<transitionitem>
											<start>328</start>
											<end>350</end>
											<alignment>end-black</alignment>
											<cutPointTicks>223534080000</cutPointTicks>
											<rate>
												<timebase>25</timebase>
												<ntsc>FALSE</ntsc>
											</rate>
											<effect>
												<name>Edge Wipe</name>
												<effectid>Edge Wipe</effectid>
												<effectcategory>Wipe</effectcategory>
												<effecttype>transition</effecttype>
												<mediatype>video</mediatype>
												<wipecode>2</wipecode>
												<wipeaccuracy>100</wipeaccuracy>
												<startratio>0</startratio>
												<endratio>1</endratio>
												<reverse>FALSE</reverse>
												<parameter authoringApp="PremierePro">
													<parameterid>directionofwipe</parameterid>
													<name>Angle</name>
													<valuemin>-360</valuemin>
													<valuemax>360</valuemax>
													<value>90</value>
												</parameter>
											</effect>
										</transitionitem>
										<enabled>TRUE</enabled>
										<locked>FALSE</locked>
									</track>
									<track TL.SQTrackShy="0" TL.SQTrackExpandedHeight="25" TL.SQTrackExpanded="0" MZ.TrackTargeted="0">
										<transitionitem>
											<start>167</start>
											<end>224</end>
											<alignment>start-black</alignment>
											<cutPointTicks>0</cutPointTicks>
											<rate>
												<timebase>25</timebase>
												<ntsc>FALSE</ntsc>
											</rate>
											<effect>
												<name>Edge Wipe</name>
												<effectid>Edge Wipe</effectid>
												<effectcategory>Wipe</effectcategory>
												<effecttype>transition</effecttype>
												<mediatype>video</mediatype>
												<wipecode>2</wipecode>
												<wipeaccuracy>100</wipeaccuracy>
												<startratio>0</startratio>
												<endratio>1</endratio>
												<reverse>FALSE</reverse>
												<parameter authoringApp="PremierePro">
													<parameterid>directionofwipe</parameterid>
													<name>Angle</name>
													<valuemin>-360</valuemin>
													<valuemax>360</valuemax>
													<value>90</value>
												</parameter>
											</effect>
										</transitionitem>
										<clipitem id="clipitem-1278">
											<masterclipid>masterclip-567</masterclipid>
											<name>Graphic</name>
											<enabled>FALSE</enabled>
											<duration>1080000</duration>
											<rate>
												<timebase>25</timebase>
												<ntsc>FALSE</ntsc>
											</rate>
											<start>-1</start>
											<end>-1</end>
											<in>89998</in>
											<out>90181</out>
											<pproTicksIn>914437278720000</pproTicksIn>
											<pproTicksOut>916296675840000</pproTicksOut>
											<alphatype>straight</alphatype>
											<pixelaspectratio>PAL-601</pixelaspectratio>
											<anamorphic>TRUE</anamorphic>
											<file id="file-471">
												<name>Graphic</name>
												<mediaSource>GraphicAndType</mediaSource>
												<rate>
													<timebase>30</timebase>
													<ntsc>TRUE</ntsc>
												</rate>
												<timecode>
													<rate>
														<timebase>30</timebase>
														<ntsc>TRUE</ntsc>
													</rate>
													<string>00;00;00;00</string>
													<frame>0</frame>
													<displayformat>DF</displayformat>
												</timecode>
												<media>
													<video>
														<samplecharacteristics>
															<rate>
																<timebase>30</timebase>
																<ntsc>TRUE</ntsc>
															</rate>
															<width>720</width>
															<height>576</height>
															<anamorphic>TRUE</anamorphic>
															<pixelaspectratio>PAL-601</pixelaspectratio>
															<fielddominance>none</fielddominance>
														</samplecharacteristics>
													</video>
												</media>
											</file>
											<filter>
												<effect>
													<name>АРТУР ПИРОЖКОВ&#13;ЛЕТОМ НА ФИЕСТЕ</name>
													<effectid>GraphicAndType</effectid>
													<effectcategory>graphic</effectcategory>
													<effecttype>filter</effecttype>
													<mediatype>video</mediatype>
													<pproBypass>false</pproBypass>
													<pproExpanded>true</pproExpanded>
													<parameter authoringApp="PremierePro">
														<parameterid>1</parameterid>
														<name>Source Text</name>
														<hash>dc092258-f6b9-fd91-a76f-c3e700000476</hash>
													</parameter>
													<parameter authoringApp="PremierePro">
														<parameterid>2</parameterid>
														<name>Transform</name>
														<IsTimeVarying>false</IsTimeVarying>
														<ParameterControlType>11</ParameterControlType>
														<LowerBound>false</LowerBound>
														<UpperBound>false</UpperBound>
														<value>-91445760000000000,false,0,0,0,0,0,0</value>
													</parameter>
													<parameter authoringApp="PremierePro">
														<parameterid>3</parameterid>
														<name>Position</name>
														<IsTimeVarying>false</IsTimeVarying>
														<value>-91445760000000000,0.36944580078125:0.86468505859375,0,0,0,0,0,0,5,4,0,0,0,0</value>
													</parameter>
													<parameter authoringApp="PremierePro">
														<parameterid>4</parameterid>
														<name>Scale</name>
														<IsTimeVarying>false</IsTimeVarying>
														<ParameterControlType>2</ParameterControlType>
														<LowerBound>0</LowerBound>
														<UpperBound>4000</UpperBound>
														<value>-91445760000000000,100.,0,0,0,0,0,0</value>
													</parameter>
													<parameter authoringApp="PremierePro">
														<parameterid>5</parameterid>
														<name>Horizontal Scale</name>
														<IsTimeVarying>false</IsTimeVarying>
														<ParameterControlType>2</ParameterControlType>
														<LowerBound>0</LowerBound>
														<UpperBound>4000</UpperBound>
														<value>-91445760000000000,100.,0,0,0,0,0,0</value>
													</parameter>
													<parameter authoringApp="PremierePro">
														<parameterid>6</parameterid>
														<name> </name>
														<IsTimeVarying>false</IsTimeVarying>
														<ParameterControlType>4</ParameterControlType>
														<LowerBound>false</LowerBound>
														<UpperBound>true</UpperBound>
														<value>-91445760000000000,true,0,0,0,0,0,0</value>
													</parameter>
													<parameter authoringApp="PremierePro">
														<parameterid>7</parameterid>
														<name>Rotation</name>
														<IsTimeVarying>false</IsTimeVarying>
														<ParameterControlType>3</ParameterControlType>
														<LowerBound>-32768</LowerBound>
														<UpperBound>32767</UpperBound>
														<value>-91445760000000000,0.,0,0,0,0,0,0</value>
													</parameter>
													<parameter authoringApp="PremierePro">
														<parameterid>8</parameterid>
														<name>Opacity</name>
														<IsTimeVarying>false</IsTimeVarying>
														<ParameterControlType>2</ParameterControlType>
														<LowerBound>0</LowerBound>
														<UpperBound>100</UpperBound>
														<value>-91445760000000000,100.,0,0,0,0,0,0</value>
													</parameter>
													<parameter authoringApp="PremierePro">
														<parameterid>9</parameterid>
														<name>Anchor Point</name>
														<IsTimeVarying>false</IsTimeVarying>
														<value>-91445760000000000,0:0,0,0,0,0,0,0,5,4,0,0,0,0</value>
													</parameter>
													<parameter authoringApp="PremierePro">
														<parameterid>10</parameterid>
														<name></name>
														<IsTimeVarying>false</IsTimeVarying>
														<ParameterControlType>12</ParameterControlType>
														<LowerBound>false</LowerBound>
														<UpperBound>false</UpperBound>
														<value>-91445760000000000,false,0,0,0,0,0,0</value>
													</parameter>
													<parameter authoringApp="PremierePro">
														<parameterid>11</parameterid>
														<name> </name>
														<IsTimeVarying>false</IsTimeVarying>
														<ParameterControlType>8</ParameterControlType>
														<LowerBound>0</LowerBound>
														<UpperBound>32768</UpperBound>
														<value>-91445760000000000,0.,0,0,0,0,0,0</value>
													</parameter>
													<parameter authoringApp="PremierePro">
														<parameterid>12</parameterid>
														<name> </name>
														<IsTimeVarying>false</IsTimeVarying>
														<ParameterControlType>8</ParameterControlType>
														<LowerBound>0</LowerBound>
														<UpperBound>32768</UpperBound>
														<value>-91445760000000000,0.,0,0,0,0,0,0</value>
													</parameter>
													<parameter authoringApp="PremierePro">
														<parameterid>13</parameterid>
														<name>start</name>
														<IsTimeVarying>false</IsTimeVarying>
														<ParameterControlType>8</ParameterControlType>
														<LowerBound>-100</LowerBound>
														<UpperBound>1000000000</UpperBound>
														<value>-91445760000000000,30.,0,0,0,0,0,0</value>
													</parameter>
													<parameter authoringApp="PremierePro">
														<parameterid>14</parameterid>
														<name>end</name>
														<IsTimeVarying>false</IsTimeVarying>
														<ParameterControlType>8</ParameterControlType>
														<LowerBound>-100</LowerBound>
														<UpperBound>1000000000</UpperBound>
														<value>-91445760000000000,30.,0,0,0,0,0,0</value>
													</parameter>
													<parameter authoringApp="PremierePro">
														<parameterid>15</parameterid>
														<name> </name>
														<IsTimeVarying>false</IsTimeVarying>
														<ParameterControlType>4</ParameterControlType>
														<LowerBound>false</LowerBound>
														<UpperBound>true</UpperBound>
														<value>-91445760000000000,false,0,0,0,0,0,0</value>
													</parameter>
													<parameter authoringApp="PremierePro">
														<parameterid>16</parameterid>
														<name> </name>
														<IsTimeVarying>false</IsTimeVarying>
														<ParameterControlType>4</ParameterControlType>
														<LowerBound>false</LowerBound>
														<UpperBound>true</UpperBound>
														<value>-91445760000000000,false,0,0,0,0,0,0</value>
													</parameter>
													<parameter authoringApp="PremierePro">
														<parameterid>17</parameterid>
														<name> </name>
														<IsTimeVarying>false</IsTimeVarying>
														<ParameterControlType>4</ParameterControlType>
														<LowerBound>false</LowerBound>
														<UpperBound>true</UpperBound>
														<value>-91445760000000000,false,0,0,0,0,0,0</value>
													</parameter>
													<parameter authoringApp="PremierePro">
														<parameterid>18</parameterid>
														<name> </name>
														<IsTimeVarying>false</IsTimeVarying>
														<ParameterControlType>4</ParameterControlType>
														<LowerBound>false</LowerBound>
														<UpperBound>true</UpperBound>
														<value>-91445760000000000,false,0,0,0,0,0,0</value>
													</parameter>
													<parameter authoringApp="PremierePro">
														<parameterid>19</parameterid>
														<name>Parent Width</name>
														<IsTimeVarying>false</IsTimeVarying>
														<ParameterControlType>2</ParameterControlType>
														<LowerBound>0</LowerBound>
														<UpperBound>20000</UpperBound>
														<value>-91445760000000000,0.,0,0,0,0,0,0</value>
													</parameter>
													<parameter authoringApp="PremierePro">
														<parameterid>20</parameterid>
														<name>Parent Height</name>
														<IsTimeVarying>false</IsTimeVarying>
														<ParameterControlType>2</ParameterControlType>
														<LowerBound>0</LowerBound>
														<UpperBound>20000</UpperBound>
														<value>-91445760000000000,0.,0,0,0,0,0,0</value>
													</parameter>
													<parameter authoringApp="PremierePro">
														<parameterid>21</parameterid>
														<name>Parent Rotation</name>
														<IsTimeVarying>false</IsTimeVarying>
														<ParameterControlType>3</ParameterControlType>
														<LowerBound>-32768</LowerBound>
														<UpperBound>32767</UpperBound>
														<value>-91445760000000000,0.,0,0,0,0,0,0</value>
													</parameter>
												</effect>
											</filter>
											<logginginfo>
												<description></description>
												<scene></scene>
												<shottake></shottake>
												<lognote></lognote>
												<good></good>
												<originalvideofilename></originalvideofilename>
												<originalaudiofilename></originalaudiofilename>
											</logginginfo>
											<colorinfo>
												<lut></lut>
												<lut1></lut1>
												<asc_sop></asc_sop>
												<asc_sat></asc_sat>
												<lut2></lut2>
											</colorinfo>
										</clipitem>
										<transitionitem>
											<start>328</start>
											<end>350</end>
											<alignment>end-black</alignment>
											<cutPointTicks>223534080000</cutPointTicks>
											<rate>
												<timebase>25</timebase>
												<ntsc>FALSE</ntsc>
											</rate>
											<effect>
												<name>Edge Wipe</name>
												<effectid>Edge Wipe</effectid>
												<effectcategory>Wipe</effectcategory>
												<effecttype>transition</effecttype>
												<mediatype>video</mediatype>
												<wipecode>2</wipecode>
												<wipeaccuracy>100</wipeaccuracy>
												<startratio>0</startratio>
												<endratio>1</endratio>
												<reverse>FALSE</reverse>
												<parameter authoringApp="PremierePro">
													<parameterid>directionofwipe</parameterid>
													<name>Angle</name>
													<valuemin>-360</valuemin>
													<valuemax>360</valuemax>
													<value>90</value>
												</parameter>
											</effect>
										</transitionitem>
										<enabled>TRUE</enabled>
										<locked>FALSE</locked>
									</track>
								</video>
								<audio>
									<numOutputChannels>2</numOutputChannels>
									<format>
										<samplecharacteristics>
											<depth>16</depth>
											<samplerate>48000</samplerate>
										</samplecharacteristics>
									</format>
									<outputs>
										<group>
											<index>1</index>
											<numchannels>1</numchannels>
											<downmix>0</downmix>
											<channel>
												<index>1</index>
											</channel>
										</group>
										<group>
											<index>2</index>
											<numchannels>1</numchannels>
											<downmix>0</downmix>
											<channel>
												<index>2</index>
											</channel>
										</group>
									</outputs>
									<track TL.SQTrackAudioKeyframeStyle="0" TL.SQTrackShy="0" TL.SQTrackExpandedHeight="25" TL.SQTrackExpanded="0" MZ.TrackTargeted="1" PannerCurrentValue="0.5" PannerStartKeyframe="-91445760000000000,0.5,0,0,0,0,0,0" PannerName="Balance" currentExplodedTrackIndex="0" totalExplodedTrackCount="2" premiereTrackType="Stereo">
										<enabled>TRUE</enabled>
										<locked>FALSE</locked>
										<outputchannelindex>1</outputchannelindex>
									</track>
									<track TL.SQTrackAudioKeyframeStyle="0" TL.SQTrackShy="0" TL.SQTrackExpandedHeight="25" TL.SQTrackExpanded="0" MZ.TrackTargeted="1" PannerCurrentValue="0.5" PannerStartKeyframe="-91445760000000000,0.5,0,0,0,0,0,0" PannerName="Balance" currentExplodedTrackIndex="1" totalExplodedTrackCount="2" premiereTrackType="Stereo">
										<enabled>TRUE</enabled>
										<locked>FALSE</locked>
										<outputchannelindex>2</outputchannelindex>
									</track>
								</audio>
							</media>
							<timecode>
								<rate>
									<timebase>25</timebase>
									<ntsc>FALSE</ntsc>
								</rate>
								<string>00:00:00:00</string>
								<frame>0</frame>
								<displayformat>NDF</displayformat>
							</timecode>
								<marker>
									<comment></comment>
									<name></name>
									<in>125</in>
									<out>-1</out>
									<pproColor>4280578025</pproColor>
								</marker>
							<logginginfo>
								<description></description>
								<scene></scene>
								<shottake></shottake>
								<lognote></lognote>
								<good></good>
								<originalvideofilename></originalvideofilename>
								<originalaudiofilename></originalaudiofilename>
							</logginginfo>
						</sequence>
							<marker>
								<comment></comment>
								<name></name>
								<in>125</in>
								<out>-1</out>
								<pproColor>4280578025</pproColor>
							</marker>
						<labels>
							<label2>Forest</label2>
						</labels>
					</clipitem>
					<clipitem id="clipitem-1279">
						<masterclipid>masterclip-563</masterclipid>
						<name>4</name>
						<enabled>TRUE</enabled>
						<duration>475</duration>
						<rate>
							<timebase>25</timebase>
							<ntsc>FALSE</ntsc>
						</rate>
						<start>48677</start>
						<end>49028</end>
						<in>124</in>
						<out>475</out>
						<pproTicksIn>1259919360000</pproTicksIn>
						<pproTicksOut>4826304000000</pproTicksOut>
						<sequence id="sequence-103"/>
							<marker>
								<comment></comment>
								<name></name>
								<in>125</in>
								<out>-1</out>
								<pproColor>4280578025</pproColor>
							</marker>
						<labels>
							<label2>Forest</label2>
						</labels>
					</clipitem>
					<clipitem id="clipitem-1280">
						<masterclipid>masterclip-568</masterclipid>
						<name>3_TITLE</name>
						<enabled>TRUE</enabled>
						<duration>475</duration>
						<rate>
							<timebase>25</timebase>
							<ntsc>FALSE</ntsc>
						</rate>
						<start>49644</start>
						<end>49994</end>
						<in>0</in>
						<out>475</out>
						<pproTicksIn>0</pproTicksIn>
						<pproTicksOut>4826304000000</pproTicksOut>
						<sequence id="sequence-104" TL.SQAudioVisibleBase="0" TL.SQVideoVisibleBase="0" TL.SQVisibleBaseTime="0" TL.SQAVDividerPosition="0.5" TL.SQHideShyTracks="0" TL.SQHeaderWidth="236" TL.SQDataTrackViewControlState="0" Monitor.ProgramZoomOut="4826304000000" Monitor.ProgramZoomIn="0" TL.SQTimePerPixel="0.024999999999999998" AM.TrackVScrollPosition="0" AM.TrackScrollPosition="0" MZ.EditLine="2855139840000" MZ.Sequence.PreviewFrameSizeHeight="576" MZ.Sequence.PreviewFrameSizeWidth="720" MZ.Sequence.AudioTimeDisplayFormat="200" MZ.Sequence.PreviewRenderingClassID="1061109567" MZ.Sequence.PreviewRenderingPresetCodec="1685480304" MZ.Sequence.PreviewRenderingPresetPath="EncoderPresets/SequencePreview/04be6e19-a018-4e0c-a9d6-0ab44c64752b/QuickTime DV PAL.epr" MZ.Sequence.PreviewUseMaxRenderQuality="false" MZ.Sequence.PreviewUseMaxBitDepth="false" MZ.Sequence.EditingModeGUID="04be6e19-a018-4e0c-a9d6-0ab44c64752b" MZ.Sequence.VideoTimeDisplayFormat="101" MZ.WorkOutPoint="4826304000000" MZ.WorkInPoint="0" MZ.ZeroPoint="0">
							<duration>475</duration>
							<rate>
								<timebase>25</timebase>
								<ntsc>FALSE</ntsc>
							</rate>
							<name>титр</name>
							<media>
								<video>
									<format>
										<samplecharacteristics>
											<rate>
												<timebase>25</timebase>
												<ntsc>FALSE</ntsc>
											</rate>
											<codec>
												<name>Apple ProRes 422</name>
												<appspecificdata>
													<appname>Final Cut Pro</appname>
													<appmanufacturer>Apple Inc.</appmanufacturer>
													<appversion>7.0</appversion>
													<data>
														<qtcodec>
															<codecname>Apple ProRes 422</codecname>
															<codectypename>Apple ProRes 422</codectypename>
															<codectypecode>apcn</codectypecode>
															<codecvendorcode>appl</codecvendorcode>
															<spatialquality>1024</spatialquality>
															<temporalquality>0</temporalquality>
															<keyframerate>0</keyframerate>
															<datarate>0</datarate>
														</qtcodec>
													</data>
												</appspecificdata>
											</codec>
											<width>720</width>
											<height>576</height>
											<anamorphic>TRUE</anamorphic>
											<pixelaspectratio>PAL-601</pixelaspectratio>
											<fielddominance>lower</fielddominance>
											<colordepth>24</colordepth>
										</samplecharacteristics>
									</format>
									<track TL.SQTrackShy="0" TL.SQTrackExpandedHeight="25" TL.SQTrackExpanded="0" MZ.TrackTargeted="1">
										<clipitem id="clipitem-1281">
											<masterclipid>masterclip-569</masterclipid>
											<name>9_title.mov</name>
											<enabled>TRUE</enabled>
											<duration>225</duration>
											<rate>
												<timebase>25</timebase>
												<ntsc>FALSE</ntsc>
											</rate>
											<start>125</start>
											<end>350</end>
											<in>0</in>
											<out>225</out>
											<pproTicksIn>0</pproTicksIn>
											<pproTicksOut>2286144000000</pproTicksOut>
											<alphatype>straight</alphatype>
											<pixelaspectratio>square</pixelaspectratio>
											<anamorphic>FALSE</anamorphic>
											<file id="file-472">
												<name>3_title.mov</name>
												<pathurl>file://localhost/_MUZ_TV/graphika/RU-21/MOD/title_plashka/3_title.mov</pathurl>
												<rate>
													<timebase>25</timebase>
													<ntsc>FALSE</ntsc>
												</rate>
												<duration>225</duration>
												<timecode>
													<rate>
														<timebase>25</timebase>
														<ntsc>FALSE</ntsc>
													</rate>
													<string>00:01:03:00</string>
													<frame>1575</frame>
													<displayformat>NDF</displayformat>
												</timecode>
												<media>
													<video>
														<samplecharacteristics>
															<rate>
																<timebase>25</timebase>
																<ntsc>FALSE</ntsc>
															</rate>
															<width>1920</width>
															<height>1080</height>
															<anamorphic>FALSE</anamorphic>
															<pixelaspectratio>square</pixelaspectratio>
															<fielddominance>none</fielddominance>
														</samplecharacteristics>
													</video>
												</media>
											</file>
											<filter>
												<effect>
													<name>Basic Motion</name>
													<effectid>basic</effectid>
													<effectcategory>motion</effectcategory>
													<effecttype>motion</effecttype>
													<mediatype>video</mediatype>
													<pproBypass>false</pproBypass>
													<parameter authoringApp="PremierePro">
														<parameterid>scale</parameterid>
														<name>Scale</name>
														<valuemin>0</valuemin>
														<valuemax>1000</valuemax>
														<value>55</value>
													</parameter>
													<parameter authoringApp="PremierePro">
														<parameterid>rotation</parameterid>
														<name>Rotation</name>
														<valuemin>-8640</valuemin>
														<valuemax>8640</valuemax>
														<value>0</value>
													</parameter>
													<parameter authoringApp="PremierePro">
														<parameterid>center</parameterid>
														<name>Center</name>
														<value>
															<horiz>0</horiz>
															<vert>0</vert>
														</value>
													</parameter>
													<parameter authoringApp="PremierePro">
														<parameterid>centerOffset</parameterid>
														<name>Anchor Point</name>
														<value>
															<horiz>0</horiz>
															<vert>0</vert>
														</value>
													</parameter>
													<parameter authoringApp="PremierePro">
														<parameterid>antiflicker</parameterid>
														<name>Anti-flicker Filter</name>
														<valuemin>0.0</valuemin>
														<valuemax>1.0</valuemax>
														<value>0</value>
													</parameter>
												</effect>
											</filter>
											<filter>
												<effect>
													<name>Distort</name>
													<effectid>deformation</effectid>
													<effectcategory>motion</effectcategory>
													<effecttype>motion</effecttype>
													<mediatype>video</mediatype>
													<parameter authoringApp="PremierePro">
														<parameterid>aspect</parameterid>
														<name>Aspect</name>
														<valuemin>-10000</valuemin>
														<valuemax>10000</valuemax>
														<value>-3.12506</value>
													</parameter>
												</effect>
											</filter>
											<logginginfo>
												<description></description>
												<scene></scene>
												<shottake></shottake>
												<lognote></lognote>
												<good></good>
												<originalvideofilename></originalvideofilename>
												<originalaudiofilename></originalaudiofilename>
											</logginginfo>
											<colorinfo>
												<lut></lut>
												<lut1></lut1>
												<asc_sop></asc_sop>
												<asc_sat></asc_sat>
												<lut2></lut2>
											</colorinfo>
											<labels>
												<label2>Violet</label2>
											</labels>
										</clipitem>
										<clipitem id="clipitem-1282">
											<masterclipid>masterclip-570</masterclipid>
											<name>Graphic</name>
											<enabled>FALSE</enabled>
											<duration>1080000</duration>
											<rate>
												<timebase>25</timebase>
												<ntsc>FALSE</ntsc>
											</rate>
											<start>350</start>
											<end>475</end>
											<in>90000</in>
											<out>90125</out>
											<pproTicksIn>914457600000000</pproTicksIn>
											<pproTicksOut>915727680000000</pproTicksOut>
											<alphatype>straight</alphatype>
											<pixelaspectratio>PAL-601</pixelaspectratio>
											<anamorphic>TRUE</anamorphic>
											<file id="file-473">
												<name>Graphic</name>
												<mediaSource>GraphicAndType</mediaSource>
												<rate>
													<timebase>30</timebase>
													<ntsc>TRUE</ntsc>
												</rate>
												<timecode>
													<rate>
														<timebase>30</timebase>
														<ntsc>TRUE</ntsc>
													</rate>
													<string>00;00;00;00</string>
													<frame>0</frame>
													<displayformat>DF</displayformat>
												</timecode>
												<media>
													<video>
														<samplecharacteristics>
															<rate>
																<timebase>30</timebase>
																<ntsc>TRUE</ntsc>
															</rate>
															<width>720</width>
															<height>576</height>
															<anamorphic>TRUE</anamorphic>
															<pixelaspectratio>PAL-601</pixelaspectratio>
															<fielddominance>none</fielddominance>
														</samplecharacteristics>
													</video>
												</media>
											</file>
											<filter>
												<effect>
													<name>Basic Motion</name>
													<effectid>basic</effectid>
													<effectcategory>motion</effectcategory>
													<effecttype>motion</effecttype>
													<mediatype>video</mediatype>
													<pproBypass>false</pproBypass>
													<parameter authoringApp="PremierePro">
														<parameterid>scale</parameterid>
														<name>Scale</name>
														<valuemin>0</valuemin>
														<valuemax>1000</valuemax>
														<value>133.333</value>
													</parameter>
													<parameter authoringApp="PremierePro">
														<parameterid>rotation</parameterid>
														<name>Rotation</name>
														<valuemin>-8640</valuemin>
														<valuemax>8640</valuemax>
														<value>0</value>
													</parameter>
													<parameter authoringApp="PremierePro">
														<parameterid>center</parameterid>
														<name>Center</name>
														<value>
															<horiz>0</horiz>
															<vert>0</vert>
														</value>
													</parameter>
													<parameter authoringApp="PremierePro">
														<parameterid>centerOffset</parameterid>
														<name>Anchor Point</name>
														<value>
															<horiz>0</horiz>
															<vert>0</vert>
														</value>
													</parameter>
													<parameter authoringApp="PremierePro">
														<parameterid>antiflicker</parameterid>
														<name>Anti-flicker Filter</name>
														<valuemin>0.0</valuemin>
														<valuemax>1.0</valuemax>
														<value>0</value>
													</parameter>
												</effect>
											</filter>
											<filter>
												<effect>
													<name>Distort</name>
													<effectid>deformation</effectid>
													<effectcategory>motion</effectcategory>
													<effecttype>motion</effecttype>
													<mediatype>video</mediatype>
													<parameter authoringApp="PremierePro">
														<parameterid>aspect</parameterid>
														<name>Aspect</name>
														<valuemin>-10000</valuemin>
														<valuemax>10000</valuemax>
														<value>-33.333</value>
													</parameter>
												</effect>
											</filter>
											<filter>
												<effect>
													<name></name>
													<effectid>GraphicAndType</effectid>
													<effectcategory>graphic</effectcategory>
													<effecttype>filter</effecttype>
													<mediatype>video</mediatype>
													<pproBypass>false</pproBypass>
													<parameter authoringApp="PremierePro">
														<parameterid>1</parameterid>
														<name>Source Text</name>
														<hash>3f0faa81-c1b0-8370-b66c-fa0b000009f1</hash>
													</parameter>
													<parameter authoringApp="PremierePro">
														<parameterid>2</parameterid>
														<name>Transform</name>
														<IsTimeVarying>false</IsTimeVarying>
														<ParameterControlType>11</ParameterControlType>
														<LowerBound>false</LowerBound>
														<UpperBound>false</UpperBound>
														<value>-91445760000000000,false,0,0,0,0,0,0</value>
													</parameter>
													<parameter authoringApp="PremierePro">
														<parameterid>3</parameterid>
														<name>Position</name>
														<IsTimeVarying>false</IsTimeVarying>
														<value>-91445760000000000,0.55605381727218628:0.73039215803146362,0,0,0,0,0,0,5,4,0,0,0,0</value>
													</parameter>
													<parameter authoringApp="PremierePro">
														<parameterid>4</parameterid>
														<name>Scale</name>
														<IsTimeVarying>false</IsTimeVarying>
														<ParameterControlType>2</ParameterControlType>
														<LowerBound>0</LowerBound>
														<UpperBound>4000</UpperBound>
														<value>-91445760000000000,100.,0,0,0,0,0,0</value>
													</parameter>
													<parameter authoringApp="PremierePro">
														<parameterid>5</parameterid>
														<name>Horizontal Scale</name>
														<IsTimeVarying>false</IsTimeVarying>
														<ParameterControlType>2</ParameterControlType>
														<LowerBound>0</LowerBound>
														<UpperBound>4000</UpperBound>
														<value>-91445760000000000,100.,0,0,0,0,0,0</value>
													</parameter>
													<parameter authoringApp="PremierePro">
														<parameterid>6</parameterid>
														<name> </name>
														<IsTimeVarying>false</IsTimeVarying>
														<ParameterControlType>4</ParameterControlType>
														<LowerBound>false</LowerBound>
														<UpperBound>true</UpperBound>
														<value>-91445760000000000,true,0,0,0,0,0,0</value>
													</parameter>
													<parameter authoringApp="PremierePro">
														<parameterid>7</parameterid>
														<name>Rotation</name>
														<IsTimeVarying>false</IsTimeVarying>
														<ParameterControlType>3</ParameterControlType>
														<LowerBound>-32768</LowerBound>
														<UpperBound>32767</UpperBound>
														<value>-91445760000000000,0.,0,0,0,0,0,0</value>
													</parameter>
													<parameter authoringApp="PremierePro">
														<parameterid>8</parameterid>
														<name>Opacity</name>
														<IsTimeVarying>false</IsTimeVarying>
														<ParameterControlType>2</ParameterControlType>
														<LowerBound>0</LowerBound>
														<UpperBound>100</UpperBound>
														<value>-91445760000000000,100.,0,0,0,0,0,0</value>
													</parameter>
													<parameter authoringApp="PremierePro">
														<parameterid>9</parameterid>
														<name>Anchor Point</name>
														<IsTimeVarying>false</IsTimeVarying>
														<value>-91445760000000000,0:0,0,0,0,0,0,0,5,4,0,0,0,0</value>
													</parameter>
													<parameter authoringApp="PremierePro">
														<parameterid>10</parameterid>
														<name></name>
														<IsTimeVarying>false</IsTimeVarying>
														<ParameterControlType>12</ParameterControlType>
														<LowerBound>false</LowerBound>
														<UpperBound>false</UpperBound>
														<value>-91445760000000000,false,0,0,0,0,0,0</value>
													</parameter>
													<parameter authoringApp="PremierePro">
														<parameterid>11</parameterid>
														<name> </name>
														<IsTimeVarying>false</IsTimeVarying>
														<ParameterControlType>8</ParameterControlType>
														<LowerBound>0</LowerBound>
														<UpperBound>32768</UpperBound>
														<value>-91445760000000000,0.,0,0,0,0,0,0</value>
													</parameter>
													<parameter authoringApp="PremierePro">
														<parameterid>12</parameterid>
														<name> </name>
														<IsTimeVarying>false</IsTimeVarying>
														<ParameterControlType>8</ParameterControlType>
														<LowerBound>0</LowerBound>
														<UpperBound>32768</UpperBound>
														<value>-91445760000000000,0.,0,0,0,0,0,0</value>
													</parameter>
													<parameter authoringApp="PremierePro">
														<parameterid>13</parameterid>
														<name>start</name>
														<IsTimeVarying>false</IsTimeVarying>
														<ParameterControlType>8</ParameterControlType>
														<LowerBound>-100</LowerBound>
														<UpperBound>1000000000</UpperBound>
														<value>-91445760000000000,0.,0,0,0,0,0,0</value>
													</parameter>
													<parameter authoringApp="PremierePro">
														<parameterid>14</parameterid>
														<name>end</name>
														<IsTimeVarying>false</IsTimeVarying>
														<ParameterControlType>8</ParameterControlType>
														<LowerBound>-100</LowerBound>
														<UpperBound>1000000000</UpperBound>
														<value>-91445760000000000,0.,0,0,0,0,0,0</value>
													</parameter>
													<parameter authoringApp="PremierePro">
														<parameterid>15</parameterid>
														<name> </name>
														<IsTimeVarying>false</IsTimeVarying>
														<ParameterControlType>4</ParameterControlType>
														<LowerBound>false</LowerBound>
														<UpperBound>true</UpperBound>
														<value>-91445760000000000,false,0,0,0,0,0,0</value>
													</parameter>
													<parameter authoringApp="PremierePro">
														<parameterid>16</parameterid>
														<name> </name>
														<IsTimeVarying>false</IsTimeVarying>
														<ParameterControlType>4</ParameterControlType>
														<LowerBound>false</LowerBound>
														<UpperBound>true</UpperBound>
														<value>-91445760000000000,false,0,0,0,0,0,0</value>
													</parameter>
													<parameter authoringApp="PremierePro">
														<parameterid>17</parameterid>
														<name> </name>
														<IsTimeVarying>false</IsTimeVarying>
														<ParameterControlType>4</ParameterControlType>
														<LowerBound>false</LowerBound>
														<UpperBound>true</UpperBound>
														<value>-91445760000000000,false,0,0,0,0,0,0</value>
													</parameter>
													<parameter authoringApp="PremierePro">
														<parameterid>18</parameterid>
														<name> </name>
														<IsTimeVarying>false</IsTimeVarying>
														<ParameterControlType>4</ParameterControlType>
														<LowerBound>false</LowerBound>
														<UpperBound>true</UpperBound>
														<value>-91445760000000000,false,0,0,0,0,0,0</value>
													</parameter>
													<parameter authoringApp="PremierePro">
														<parameterid>19</parameterid>
														<name>Parent Width</name>
														<IsTimeVarying>false</IsTimeVarying>
														<ParameterControlType>2</ParameterControlType>
														<LowerBound>0</LowerBound>
														<UpperBound>20000</UpperBound>
														<value>-91445760000000000,0.,0,0,0,0,0,0</value>
													</parameter>
													<parameter authoringApp="PremierePro">
														<parameterid>20</parameterid>
														<name>Parent Height</name>
														<IsTimeVarying>false</IsTimeVarying>
														<ParameterControlType>2</ParameterControlType>
														<LowerBound>0</LowerBound>
														<UpperBound>20000</UpperBound>
														<value>-91445760000000000,0.,0,0,0,0,0,0</value>
													</parameter>
													<parameter authoringApp="PremierePro">
														<parameterid>21</parameterid>
														<name>Parent Rotation</name>
														<IsTimeVarying>false</IsTimeVarying>
														<ParameterControlType>3</ParameterControlType>
														<LowerBound>-32768</LowerBound>
														<UpperBound>32767</UpperBound>
														<value>-91445760000000000,0.,0,0,0,0,0,0</value>
													</parameter>
												</effect>
											</filter>
											<logginginfo>
												<description></description>
												<scene></scene>
												<shottake></shottake>
												<lognote></lognote>
												<good></good>
												<originalvideofilename></originalvideofilename>
												<originalaudiofilename></originalaudiofilename>
											</logginginfo>
											<colorinfo>
												<lut></lut>
												<lut1></lut1>
												<asc_sop></asc_sop>
												<asc_sat></asc_sat>
												<lut2></lut2>
											</colorinfo>
										</clipitem>
										<enabled>TRUE</enabled>
										<locked>FALSE</locked>
									</track>
									<track TL.SQTrackShy="0" TL.SQTrackExpandedHeight="25" TL.SQTrackExpanded="0" MZ.TrackTargeted="0">
										<transitionitem>
											<start>167</start>
											<end>224</end>
											<alignment>start-black</alignment>
											<cutPointTicks>0</cutPointTicks>
											<rate>
												<timebase>25</timebase>
												<ntsc>FALSE</ntsc>
											</rate>
											<effect>
												<name>Edge Wipe</name>
												<effectid>Edge Wipe</effectid>
												<effectcategory>Wipe</effectcategory>
												<effecttype>transition</effecttype>
												<mediatype>video</mediatype>
												<wipecode>2</wipecode>
												<wipeaccuracy>100</wipeaccuracy>
												<startratio>0</startratio>
												<endratio>1</endratio>
												<reverse>FALSE</reverse>
												<parameter authoringApp="PremierePro">
													<parameterid>directionofwipe</parameterid>
													<name>Angle</name>
													<valuemin>-360</valuemin>
													<valuemax>360</valuemax>
													<value>90</value>
												</parameter>
											</effect>
										</transitionitem>
										<clipitem id="clipitem-1283">
											<masterclipid>masterclip-571</masterclipid>
											<name>9.png</name>
											<enabled>TRUE</enabled>
											<duration>1080000</duration>
											<rate>
												<timebase>25</timebase>
												<ntsc>FALSE</ntsc>
											</rate>
											<start>-1</start>
											<end>-1</end>
											<in>90042</in>
											<out>90225</out>
											<pproTicksIn>914884346880000</pproTicksIn>
											<pproTicksOut>916743744000000</pproTicksOut>
											<alphatype>straight</alphatype>
											<pixelaspectratio>square</pixelaspectratio>
											<anamorphic>FALSE</anamorphic>
											<file id="file-474">
												<name>3.png</name>
												<pathurl>file://localhost/_MUZ_TV/project_AP/RU/_TITLE/468/3.png</pathurl>
												<rate>
													<timebase>30</timebase>
													<ntsc>TRUE</ntsc>
												</rate>
												<timecode>
													<rate>
														<timebase>30</timebase>
														<ntsc>TRUE</ntsc>
													</rate>
													<string>00;00;00;00</string>
													<frame>0</frame>
													<displayformat>DF</displayformat>
												</timecode>
												<media>
													<video>
														<samplecharacteristics>
															<rate>
																<timebase>30</timebase>
																<ntsc>TRUE</ntsc>
															</rate>
															<width>1920</width>
															<height>1080</height>
															<anamorphic>FALSE</anamorphic>
															<pixelaspectratio>square</pixelaspectratio>
															<fielddominance>none</fielddominance>
														</samplecharacteristics>
													</video>
												</media>
											</file>
											<filter>
												<effect>
													<name>Basic Motion</name>
													<effectid>basic</effectid>
													<effectcategory>motion</effectcategory>
													<effecttype>motion</effecttype>
													<mediatype>video</mediatype>
													<pproBypass>false</pproBypass>
													<parameter authoringApp="PremierePro">
														<parameterid>scale</parameterid>
														<name>Scale</name>
														<valuemin>0</valuemin>
														<valuemax>1000</valuemax>
														<value>53.3333</value>
													</parameter>
													<parameter authoringApp="PremierePro">
														<parameterid>rotation</parameterid>
														<name>Rotation</name>
														<valuemin>-8640</valuemin>
														<valuemax>8640</valuemax>
														<value>0</value>
													</parameter>
													<parameter authoringApp="PremierePro">
														<parameterid>center</parameterid>
														<name>Center</name>
														<value>
															<horiz>0</horiz>
															<vert>-0.00185184</vert>
														</value>
													</parameter>
													<parameter authoringApp="PremierePro">
														<parameterid>centerOffset</parameterid>
														<name>Anchor Point</name>
														<value>
															<horiz>0</horiz>
															<vert>0</vert>
														</value>
													</parameter>
													<parameter authoringApp="PremierePro">
														<parameterid>antiflicker</parameterid>
														<name>Anti-flicker Filter</name>
														<valuemin>0.0</valuemin>
														<valuemax>1.0</valuemax>
														<value>0</value>
													</parameter>
												</effect>
											</filter>
											<logginginfo>
												<description></description>
												<scene></scene>
												<shottake></shottake>
												<lognote></lognote>
												<good></good>
												<originalvideofilename></originalvideofilename>
												<originalaudiofilename></originalaudiofilename>
											</logginginfo>
											<colorinfo>
												<lut></lut>
												<lut1></lut1>
												<asc_sop></asc_sop>
												<asc_sat></asc_sat>
												<lut2></lut2>
											</colorinfo>
											<labels>
												<label2>Lavender</label2>
											</labels>
										</clipitem>
										<transitionitem>
											<start>328</start>
											<end>350</end>
											<alignment>end-black</alignment>
											<cutPointTicks>223534080000</cutPointTicks>
											<rate>
												<timebase>25</timebase>
												<ntsc>FALSE</ntsc>
											</rate>
											<effect>
												<name>Edge Wipe</name>
												<effectid>Edge Wipe</effectid>
												<effectcategory>Wipe</effectcategory>
												<effecttype>transition</effecttype>
												<mediatype>video</mediatype>
												<wipecode>2</wipecode>
												<wipeaccuracy>100</wipeaccuracy>
												<startratio>0</startratio>
												<endratio>1</endratio>
												<reverse>FALSE</reverse>
												<parameter authoringApp="PremierePro">
													<parameterid>directionofwipe</parameterid>
													<name>Angle</name>
													<valuemin>-360</valuemin>
													<valuemax>360</valuemax>
													<value>90</value>
												</parameter>
											</effect>
										</transitionitem>
										<enabled>TRUE</enabled>
										<locked>FALSE</locked>
									</track>
									<track TL.SQTrackShy="0" TL.SQTrackExpandedHeight="25" TL.SQTrackExpanded="0" MZ.TrackTargeted="0">
										<transitionitem>
											<start>167</start>
											<end>224</end>
											<alignment>start-black</alignment>
											<cutPointTicks>0</cutPointTicks>
											<rate>
												<timebase>25</timebase>
												<ntsc>FALSE</ntsc>
											</rate>
											<effect>
												<name>Edge Wipe</name>
												<effectid>Edge Wipe</effectid>
												<effectcategory>Wipe</effectcategory>
												<effecttype>transition</effecttype>
												<mediatype>video</mediatype>
												<wipecode>2</wipecode>
												<wipeaccuracy>100</wipeaccuracy>
												<startratio>0</startratio>
												<endratio>1</endratio>
												<reverse>FALSE</reverse>
												<parameter authoringApp="PremierePro">
													<parameterid>directionofwipe</parameterid>
													<name>Angle</name>
													<valuemin>-360</valuemin>
													<valuemax>360</valuemax>
													<value>90</value>
												</parameter>
											</effect>
										</transitionitem>
										<clipitem id="clipitem-1284">
											<masterclipid>masterclip-572</masterclipid>
											<name>Graphic</name>
											<enabled>FALSE</enabled>
											<duration>1080000</duration>
											<rate>
												<timebase>25</timebase>
												<ntsc>FALSE</ntsc>
											</rate>
											<start>-1</start>
											<end>-1</end>
											<in>89998</in>
											<out>90181</out>
											<pproTicksIn>914437278720000</pproTicksIn>
											<pproTicksOut>916296675840000</pproTicksOut>
											<alphatype>straight</alphatype>
											<pixelaspectratio>PAL-601</pixelaspectratio>
											<anamorphic>TRUE</anamorphic>
											<file id="file-475">
												<name>Graphic</name>
												<mediaSource>GraphicAndType</mediaSource>
												<rate>
													<timebase>30</timebase>
													<ntsc>TRUE</ntsc>
												</rate>
												<timecode>
													<rate>
														<timebase>30</timebase>
														<ntsc>TRUE</ntsc>
													</rate>
													<string>00;00;00;00</string>
													<frame>0</frame>
													<displayformat>DF</displayformat>
												</timecode>
												<media>
													<video>
														<samplecharacteristics>
															<rate>
																<timebase>30</timebase>
																<ntsc>TRUE</ntsc>
															</rate>
															<width>720</width>
															<height>576</height>
															<anamorphic>TRUE</anamorphic>
															<pixelaspectratio>PAL-601</pixelaspectratio>
															<fielddominance>none</fielddominance>
														</samplecharacteristics>
													</video>
												</media>
											</file>
											<filter>
												<effect>
													<name>АРТУР ПИРОЖКОВ&#13;ЛЕТОМ НА ФИЕСТЕ</name>
													<effectid>GraphicAndType</effectid>
													<effectcategory>graphic</effectcategory>
													<effecttype>filter</effecttype>
													<mediatype>video</mediatype>
													<pproBypass>false</pproBypass>
													<pproExpanded>true</pproExpanded>
													<parameter authoringApp="PremierePro">
														<parameterid>1</parameterid>
														<name>Source Text</name>
														<hash>dc092258-f6b9-fd91-a76f-c3e700000476</hash>
													</parameter>
													<parameter authoringApp="PremierePro">
														<parameterid>2</parameterid>
														<name>Transform</name>
														<IsTimeVarying>false</IsTimeVarying>
														<ParameterControlType>11</ParameterControlType>
														<LowerBound>false</LowerBound>
														<UpperBound>false</UpperBound>
														<value>-91445760000000000,false,0,0,0,0,0,0</value>
													</parameter>
													<parameter authoringApp="PremierePro">
														<parameterid>3</parameterid>
														<name>Position</name>
														<IsTimeVarying>false</IsTimeVarying>
														<value>-91445760000000000,0.36944580078125:0.86468505859375,0,0,0,0,0,0,5,4,0,0,0,0</value>
													</parameter>
													<parameter authoringApp="PremierePro">
														<parameterid>4</parameterid>
														<name>Scale</name>
														<IsTimeVarying>false</IsTimeVarying>
														<ParameterControlType>2</ParameterControlType>
														<LowerBound>0</LowerBound>
														<UpperBound>4000</UpperBound>
														<value>-91445760000000000,100.,0,0,0,0,0,0</value>
													</parameter>
													<parameter authoringApp="PremierePro">
														<parameterid>5</parameterid>
														<name>Horizontal Scale</name>
														<IsTimeVarying>false</IsTimeVarying>
														<ParameterControlType>2</ParameterControlType>
														<LowerBound>0</LowerBound>
														<UpperBound>4000</UpperBound>
														<value>-91445760000000000,100.,0,0,0,0,0,0</value>
													</parameter>
													<parameter authoringApp="PremierePro">
														<parameterid>6</parameterid>
														<name> </name>
														<IsTimeVarying>false</IsTimeVarying>
														<ParameterControlType>4</ParameterControlType>
														<LowerBound>false</LowerBound>
														<UpperBound>true</UpperBound>
														<value>-91445760000000000,true,0,0,0,0,0,0</value>
													</parameter>
													<parameter authoringApp="PremierePro">
														<parameterid>7</parameterid>
														<name>Rotation</name>
														<IsTimeVarying>false</IsTimeVarying>
														<ParameterControlType>3</ParameterControlType>
														<LowerBound>-32768</LowerBound>
														<UpperBound>32767</UpperBound>
														<value>-91445760000000000,0.,0,0,0,0,0,0</value>
													</parameter>
													<parameter authoringApp="PremierePro">
														<parameterid>8</parameterid>
														<name>Opacity</name>
														<IsTimeVarying>false</IsTimeVarying>
														<ParameterControlType>2</ParameterControlType>
														<LowerBound>0</LowerBound>
														<UpperBound>100</UpperBound>
														<value>-91445760000000000,100.,0,0,0,0,0,0</value>
													</parameter>
													<parameter authoringApp="PremierePro">
														<parameterid>9</parameterid>
														<name>Anchor Point</name>
														<IsTimeVarying>false</IsTimeVarying>
														<value>-91445760000000000,0:0,0,0,0,0,0,0,5,4,0,0,0,0</value>
													</parameter>
													<parameter authoringApp="PremierePro">
														<parameterid>10</parameterid>
														<name></name>
														<IsTimeVarying>false</IsTimeVarying>
														<ParameterControlType>12</ParameterControlType>
														<LowerBound>false</LowerBound>
														<UpperBound>false</UpperBound>
														<value>-91445760000000000,false,0,0,0,0,0,0</value>
													</parameter>
													<parameter authoringApp="PremierePro">
														<parameterid>11</parameterid>
														<name> </name>
														<IsTimeVarying>false</IsTimeVarying>
														<ParameterControlType>8</ParameterControlType>
														<LowerBound>0</LowerBound>
														<UpperBound>32768</UpperBound>
														<value>-91445760000000000,0.,0,0,0,0,0,0</value>
													</parameter>
													<parameter authoringApp="PremierePro">
														<parameterid>12</parameterid>
														<name> </name>
														<IsTimeVarying>false</IsTimeVarying>
														<ParameterControlType>8</ParameterControlType>
														<LowerBound>0</LowerBound>
														<UpperBound>32768</UpperBound>
														<value>-91445760000000000,0.,0,0,0,0,0,0</value>
													</parameter>
													<parameter authoringApp="PremierePro">
														<parameterid>13</parameterid>
														<name>start</name>
														<IsTimeVarying>false</IsTimeVarying>
														<ParameterControlType>8</ParameterControlType>
														<LowerBound>-100</LowerBound>
														<UpperBound>1000000000</UpperBound>
														<value>-91445760000000000,30.,0,0,0,0,0,0</value>
													</parameter>
													<parameter authoringApp="PremierePro">
														<parameterid>14</parameterid>
														<name>end</name>
														<IsTimeVarying>false</IsTimeVarying>
														<ParameterControlType>8</ParameterControlType>
														<LowerBound>-100</LowerBound>
														<UpperBound>1000000000</UpperBound>
														<value>-91445760000000000,30.,0,0,0,0,0,0</value>
													</parameter>
													<parameter authoringApp="PremierePro">
														<parameterid>15</parameterid>
														<name> </name>
														<IsTimeVarying>false</IsTimeVarying>
														<ParameterControlType>4</ParameterControlType>
														<LowerBound>false</LowerBound>
														<UpperBound>true</UpperBound>
														<value>-91445760000000000,false,0,0,0,0,0,0</value>
													</parameter>
													<parameter authoringApp="PremierePro">
														<parameterid>16</parameterid>
														<name> </name>
														<IsTimeVarying>false</IsTimeVarying>
														<ParameterControlType>4</ParameterControlType>
														<LowerBound>false</LowerBound>
														<UpperBound>true</UpperBound>
														<value>-91445760000000000,false,0,0,0,0,0,0</value>
													</parameter>
													<parameter authoringApp="PremierePro">
														<parameterid>17</parameterid>
														<name> </name>
														<IsTimeVarying>false</IsTimeVarying>
														<ParameterControlType>4</ParameterControlType>
														<LowerBound>false</LowerBound>
														<UpperBound>true</UpperBound>
														<value>-91445760000000000,false,0,0,0,0,0,0</value>
													</parameter>
													<parameter authoringApp="PremierePro">
														<parameterid>18</parameterid>
														<name> </name>
														<IsTimeVarying>false</IsTimeVarying>
														<ParameterControlType>4</ParameterControlType>
														<LowerBound>false</LowerBound>
														<UpperBound>true</UpperBound>
														<value>-91445760000000000,false,0,0,0,0,0,0</value>
													</parameter>
													<parameter authoringApp="PremierePro">
														<parameterid>19</parameterid>
														<name>Parent Width</name>
														<IsTimeVarying>false</IsTimeVarying>
														<ParameterControlType>2</ParameterControlType>
														<LowerBound>0</LowerBound>
														<UpperBound>20000</UpperBound>
														<value>-91445760000000000,0.,0,0,0,0,0,0</value>
													</parameter>
													<parameter authoringApp="PremierePro">
														<parameterid>20</parameterid>
														<name>Parent Height</name>
														<IsTimeVarying>false</IsTimeVarying>
														<ParameterControlType>2</ParameterControlType>
														<LowerBound>0</LowerBound>
														<UpperBound>20000</UpperBound>
														<value>-91445760000000000,0.,0,0,0,0,0,0</value>
													</parameter>
													<parameter authoringApp="PremierePro">
														<parameterid>21</parameterid>
														<name>Parent Rotation</name>
														<IsTimeVarying>false</IsTimeVarying>
														<ParameterControlType>3</ParameterControlType>
														<LowerBound>-32768</LowerBound>
														<UpperBound>32767</UpperBound>
														<value>-91445760000000000,0.,0,0,0,0,0,0</value>
													</parameter>
												</effect>
											</filter>
											<logginginfo>
												<description></description>
												<scene></scene>
												<shottake></shottake>
												<lognote></lognote>
												<good></good>
												<originalvideofilename></originalvideofilename>
												<originalaudiofilename></originalaudiofilename>
											</logginginfo>
											<colorinfo>
												<lut></lut>
												<lut1></lut1>
												<asc_sop></asc_sop>
												<asc_sat></asc_sat>
												<lut2></lut2>
											</colorinfo>
										</clipitem>
										<transitionitem>
											<start>328</start>
											<end>350</end>
											<alignment>end-black</alignment>
											<cutPointTicks>223534080000</cutPointTicks>
											<rate>
												<timebase>25</timebase>
												<ntsc>FALSE</ntsc>
											</rate>
											<effect>
												<name>Edge Wipe</name>
												<effectid>Edge Wipe</effectid>
												<effectcategory>Wipe</effectcategory>
												<effecttype>transition</effecttype>
												<mediatype>video</mediatype>
												<wipecode>2</wipecode>
												<wipeaccuracy>100</wipeaccuracy>
												<startratio>0</startratio>
												<endratio>1</endratio>
												<reverse>FALSE</reverse>
												<parameter authoringApp="PremierePro">
													<parameterid>directionofwipe</parameterid>
													<name>Angle</name>
													<valuemin>-360</valuemin>
													<valuemax>360</valuemax>
													<value>90</value>
												</parameter>
											</effect>
										</transitionitem>
										<enabled>TRUE</enabled>
										<locked>FALSE</locked>
									</track>
								</video>
								<audio>
									<numOutputChannels>2</numOutputChannels>
									<format>
										<samplecharacteristics>
											<depth>16</depth>
											<samplerate>48000</samplerate>
										</samplecharacteristics>
									</format>
									<outputs>
										<group>
											<index>1</index>
											<numchannels>1</numchannels>
											<downmix>0</downmix>
											<channel>
												<index>1</index>
											</channel>
										</group>
										<group>
											<index>2</index>
											<numchannels>1</numchannels>
											<downmix>0</downmix>
											<channel>
												<index>2</index>
											</channel>
										</group>
									</outputs>
									<track TL.SQTrackAudioKeyframeStyle="0" TL.SQTrackShy="0" TL.SQTrackExpandedHeight="25" TL.SQTrackExpanded="0" MZ.TrackTargeted="1" PannerCurrentValue="0.5" PannerStartKeyframe="-91445760000000000,0.5,0,0,0,0,0,0" PannerName="Balance" currentExplodedTrackIndex="0" totalExplodedTrackCount="2" premiereTrackType="Stereo">
										<enabled>TRUE</enabled>
										<locked>FALSE</locked>
										<outputchannelindex>1</outputchannelindex>
									</track>
									<track TL.SQTrackAudioKeyframeStyle="0" TL.SQTrackShy="0" TL.SQTrackExpandedHeight="25" TL.SQTrackExpanded="0" MZ.TrackTargeted="1" PannerCurrentValue="0.5" PannerStartKeyframe="-91445760000000000,0.5,0,0,0,0,0,0" PannerName="Balance" currentExplodedTrackIndex="1" totalExplodedTrackCount="2" premiereTrackType="Stereo">
										<enabled>TRUE</enabled>
										<locked>FALSE</locked>
										<outputchannelindex>2</outputchannelindex>
									</track>
								</audio>
							</media>
							<timecode>
								<rate>
									<timebase>25</timebase>
									<ntsc>FALSE</ntsc>
								</rate>
								<string>00:00:00:00</string>
								<frame>0</frame>
								<displayformat>NDF</displayformat>
							</timecode>
								<marker>
									<comment></comment>
									<name></name>
									<in>125</in>
									<out>-1</out>
									<pproColor>4280578025</pproColor>
								</marker>
							<logginginfo>
								<description></description>
								<scene></scene>
								<shottake></shottake>
								<lognote></lognote>
								<good></good>
								<originalvideofilename></originalvideofilename>
								<originalaudiofilename></originalaudiofilename>
							</logginginfo>
						</sequence>
							<marker>
								<comment></comment>
								<name></name>
								<in>125</in>
								<out>-1</out>
								<pproColor>4280578025</pproColor>
							</marker>
						<labels>
							<label2>Forest</label2>
						</labels>
					</clipitem>
					<clipitem id="clipitem-1285">
						<masterclipid>masterclip-568</masterclipid>
						<name>3</name>
						<enabled>TRUE</enabled>
						<duration>475</duration>
						<rate>
							<timebase>25</timebase>
							<ntsc>FALSE</ntsc>
						</rate>
						<start>54819</start>
						<end>55170</end>
						<in>124</in>
						<out>475</out>
						<pproTicksIn>1259919360000</pproTicksIn>
						<pproTicksOut>4826304000000</pproTicksOut>
						<sequence id="sequence-104"/>
							<marker>
								<comment></comment>
								<name></name>
								<in>125</in>
								<out>-1</out>
								<pproColor>4280578025</pproColor>
							</marker>
						<labels>
							<label2>Forest</label2>
						</labels>
					</clipitem>
					<clipitem id="clipitem-1286">
						<masterclipid>masterclip-573</masterclipid>
						<name>2_TITLE</name>
						<enabled>TRUE</enabled>
						<duration>475</duration>
						<rate>
							<timebase>25</timebase>
							<ntsc>FALSE</ntsc>
						</rate>
						<start>55888</start>
						<end>56238</end>
						<in>0</in>
						<out>475</out>
						<pproTicksIn>0</pproTicksIn>
						<pproTicksOut>4826304000000</pproTicksOut>
						<sequence id="sequence-105" TL.SQAudioVisibleBase="0" TL.SQVideoVisibleBase="0" TL.SQVisibleBaseTime="2755121040000" TL.SQAVDividerPosition="0.5" TL.SQHideShyTracks="0" TL.SQHeaderWidth="236" TL.SQDataTrackViewControlState="0" Monitor.ProgramZoomOut="4826304000000" Monitor.ProgramZoomIn="0" TL.SQTimePerPixel="0.0031249999999999997" AM.TrackVScrollPosition="0" AM.TrackScrollPosition="0" MZ.EditLine="3637509120000" MZ.Sequence.PreviewFrameSizeHeight="576" MZ.Sequence.PreviewFrameSizeWidth="720" MZ.Sequence.AudioTimeDisplayFormat="200" MZ.Sequence.PreviewRenderingClassID="1061109567" MZ.Sequence.PreviewRenderingPresetCodec="1685480304" MZ.Sequence.PreviewRenderingPresetPath="EncoderPresets/SequencePreview/04be6e19-a018-4e0c-a9d6-0ab44c64752b/QuickTime DV PAL.epr" MZ.Sequence.PreviewUseMaxRenderQuality="false" MZ.Sequence.PreviewUseMaxBitDepth="false" MZ.Sequence.EditingModeGUID="04be6e19-a018-4e0c-a9d6-0ab44c64752b" MZ.Sequence.VideoTimeDisplayFormat="101" MZ.WorkOutPoint="4826304000000" MZ.WorkInPoint="0" MZ.ZeroPoint="0">
							<duration>475</duration>
							<rate>
								<timebase>25</timebase>
								<ntsc>FALSE</ntsc>
							</rate>
							<name>титр</name>
							<media>
								<video>
									<format>
										<samplecharacteristics>
											<rate>
												<timebase>25</timebase>
												<ntsc>FALSE</ntsc>
											</rate>
											<codec>
												<name>Apple ProRes 422</name>
												<appspecificdata>
													<appname>Final Cut Pro</appname>
													<appmanufacturer>Apple Inc.</appmanufacturer>
													<appversion>7.0</appversion>
													<data>
														<qtcodec>
															<codecname>Apple ProRes 422</codecname>
															<codectypename>Apple ProRes 422</codectypename>
															<codectypecode>apcn</codectypecode>
															<codecvendorcode>appl</codecvendorcode>
															<spatialquality>1024</spatialquality>
															<temporalquality>0</temporalquality>
															<keyframerate>0</keyframerate>
															<datarate>0</datarate>
														</qtcodec>
													</data>
												</appspecificdata>
											</codec>
											<width>720</width>
											<height>576</height>
											<anamorphic>TRUE</anamorphic>
											<pixelaspectratio>PAL-601</pixelaspectratio>
											<fielddominance>lower</fielddominance>
											<colordepth>24</colordepth>
										</samplecharacteristics>
									</format>
									<track TL.SQTrackShy="0" TL.SQTrackExpandedHeight="25" TL.SQTrackExpanded="0" MZ.TrackTargeted="1">
										<clipitem id="clipitem-1287">
											<masterclipid>masterclip-574</masterclipid>
											<name>Nested Sequence 05</name>
											<enabled>TRUE</enabled>
											<duration>225</duration>
											<rate>
												<timebase>25</timebase>
												<ntsc>FALSE</ntsc>
											</rate>
											<start>125</start>
											<end>350</end>
											<in>0</in>
											<out>225</out>
											<pproTicksIn>0</pproTicksIn>
											<pproTicksOut>2286144000000</pproTicksOut>
											<sequence id="sequence-106" TL.SQVisibleBaseTime="968436000000" TL.SQTimePerPixel="0.0062499999999999995" MZ.Sequence.PreviewFrameSizeHeight="576" MZ.Sequence.PreviewFrameSizeWidth="720" MZ.Sequence.AudioTimeDisplayFormat="200" MZ.Sequence.PreviewRenderingPresetCodec="1685480304" MZ.Sequence.PreviewRenderingPresetPath="EncoderPresets/SequencePreview/04be6e19-a018-4e0c-a9d6-0ab44c64752b/QuickTime DV PAL.epr" MZ.Sequence.PreviewUseMaxRenderQuality="false" MZ.Sequence.PreviewUseMaxBitDepth="false" MZ.Sequence.EditingModeGUID="04be6e19-a018-4e0c-a9d6-0ab44c64752b" MZ.Sequence.VideoTimeDisplayFormat="101" MZ.WorkOutPoint="2286144000000" MZ.WorkInPoint="0">
												<duration>225</duration>
												<rate>
													<timebase>25</timebase>
													<ntsc>FALSE</ntsc>
												</rate>
												<name>Nested Sequence 05</name>
												<media>
													<video>
														<format>
															<samplecharacteristics>
																<rate>
																	<timebase>25</timebase>
																	<ntsc>FALSE</ntsc>
																</rate>
																<codec>
																	<name>Apple ProRes 422</name>
																	<appspecificdata>
																		<appname>Final Cut Pro</appname>
																		<appmanufacturer>Apple Inc.</appmanufacturer>
																		<appversion>7.0</appversion>
																		<data>
																			<qtcodec>
																				<codecname>Apple ProRes 422</codecname>
																				<codectypename>Apple ProRes 422</codectypename>
																				<codectypecode>apcn</codectypecode>
																				<codecvendorcode>appl</codecvendorcode>
																				<spatialquality>1024</spatialquality>
																				<temporalquality>0</temporalquality>
																				<keyframerate>0</keyframerate>
																				<datarate>0</datarate>
																			</qtcodec>
																		</data>
																	</appspecificdata>
																</codec>
																<width>720</width>
																<height>576</height>
																<anamorphic>TRUE</anamorphic>
																<pixelaspectratio>PAL-601</pixelaspectratio>
																<fielddominance>lower</fielddominance>
																<colordepth>24</colordepth>
															</samplecharacteristics>
														</format>
														<track TL.SQTrackExpandedHeight="25" TL.SQTrackExpanded="0" MZ.TrackTargeted="1">
															<clipitem id="clipitem-1288">
																<masterclipid>masterclip-575</masterclipid>
																<name>9_title.mov</name>
																<enabled>TRUE</enabled>
																<duration>225</duration>
																<rate>
																	<timebase>25</timebase>
																	<ntsc>FALSE</ntsc>
																</rate>
																<start>0</start>
																<end>225</end>
																<in>0</in>
																<out>225</out>
																<pproTicksIn>0</pproTicksIn>
																<pproTicksOut>2286144000000</pproTicksOut>
																<alphatype>straight</alphatype>
																<pixelaspectratio>square</pixelaspectratio>
																<anamorphic>FALSE</anamorphic>
																<file id="file-476">
																	<name>2_title.mov</name>
																	<pathurl>file://localhost/_MUZ_TV/graphika/RU-21/MOD/title_plashka/2_title.mov</pathurl>
																	<rate>
																		<timebase>25</timebase>
																		<ntsc>FALSE</ntsc>
																	</rate>
																	<duration>225</duration>
																	<timecode>
																		<rate>
																			<timebase>25</timebase>
																			<ntsc>FALSE</ntsc>
																		</rate>
																		<string>00:01:12:00</string>
																		<frame>1800</frame>
																		<displayformat>NDF</displayformat>
																	</timecode>
																	<media>
																		<video>
																			<samplecharacteristics>
																				<rate>
																					<timebase>25</timebase>
																					<ntsc>FALSE</ntsc>
																				</rate>
																				<width>1920</width>
																				<height>1080</height>
																				<anamorphic>FALSE</anamorphic>
																				<pixelaspectratio>square</pixelaspectratio>
																				<fielddominance>none</fielddominance>
																			</samplecharacteristics>
																		</video>
																	</media>
																</file>
																<filter>
																	<effect>
																		<name>Basic Motion</name>
																		<effectid>basic</effectid>
																		<effectcategory>motion</effectcategory>
																		<effecttype>motion</effecttype>
																		<mediatype>video</mediatype>
																		<pproBypass>false</pproBypass>
																		<parameter authoringApp="PremierePro">
																			<parameterid>scale</parameterid>
																			<name>Scale</name>
																			<valuemin>0</valuemin>
																			<valuemax>1000</valuemax>
																			<value>55</value>
																		</parameter>
																		<parameter authoringApp="PremierePro">
																			<parameterid>rotation</parameterid>
																			<name>Rotation</name>
																			<valuemin>-8640</valuemin>
																			<valuemax>8640</valuemax>
																			<value>0</value>
																		</parameter>
																		<parameter authoringApp="PremierePro">
																			<parameterid>center</parameterid>
																			<name>Center</name>
																			<value>
																				<horiz>0</horiz>
																				<vert>0</vert>
																			</value>
																		</parameter>
																		<parameter authoringApp="PremierePro">
																			<parameterid>centerOffset</parameterid>
																			<name>Anchor Point</name>
																			<value>
																				<horiz>0</horiz>
																				<vert>0</vert>
																			</value>
																		</parameter>
																		<parameter authoringApp="PremierePro">
																			<parameterid>antiflicker</parameterid>
																			<name>Anti-flicker Filter</name>
																			<valuemin>0.0</valuemin>
																			<valuemax>1.0</valuemax>
																			<value>0</value>
																		</parameter>
																	</effect>
																</filter>
																<filter>
																	<effect>
																		<name>Distort</name>
																		<effectid>deformation</effectid>
																		<effectcategory>motion</effectcategory>
																		<effecttype>motion</effecttype>
																		<mediatype>video</mediatype>
																		<parameter authoringApp="PremierePro">
																			<parameterid>aspect</parameterid>
																			<name>Aspect</name>
																			<valuemin>-10000</valuemin>
																			<valuemax>10000</valuemax>
																			<value>-3.12506</value>
																		</parameter>
																	</effect>
																</filter>
																<logginginfo>
																	<description></description>
																	<scene></scene>
																	<shottake></shottake>
																	<lognote></lognote>
																	<good></good>
																	<originalvideofilename></originalvideofilename>
																	<originalaudiofilename></originalaudiofilename>
																</logginginfo>
																<colorinfo>
																	<lut></lut>
																	<lut1></lut1>
																	<asc_sop></asc_sop>
																	<asc_sat></asc_sat>
																	<lut2></lut2>
																</colorinfo>
																<labels>
																	<label2>Violet</label2>
																</labels>
															</clipitem>
															<enabled>TRUE</enabled>
															<locked>FALSE</locked>
														</track>
													</video>
													<audio>
														<numOutputChannels>2</numOutputChannels>
														<format>
															<samplecharacteristics>
																<depth>16</depth>
																<samplerate>48000</samplerate>
															</samplecharacteristics>
														</format>
														<outputs>
															<group>
																<index>1</index>
																<numchannels>1</numchannels>
																<downmix>0</downmix>
																<channel>
																	<index>1</index>
																</channel>
															</group>
															<group>
																<index>2</index>
																<numchannels>1</numchannels>
																<downmix>0</downmix>
																<channel>
																	<index>2</index>
																</channel>
															</group>
														</outputs>
														<track TL.SQTrackExpandedHeight="25" TL.SQTrackExpanded="0" MZ.TrackTargeted="1" PannerCurrentValue="0.5" PannerIsInverted="true" PannerStartKeyframe="-91445760000000000,0.5,0,0,0,0,0,0" PannerName="Balance" currentExplodedTrackIndex="0" totalExplodedTrackCount="2" premiereTrackType="Stereo">
															<enabled>TRUE</enabled>
															<locked>FALSE</locked>
															<outputchannelindex>1</outputchannelindex>
														</track>
														<track TL.SQTrackExpandedHeight="25" TL.SQTrackExpanded="0" MZ.TrackTargeted="1" PannerCurrentValue="0.5" PannerIsInverted="true" PannerStartKeyframe="-91445760000000000,0.5,0,0,0,0,0,0" PannerName="Balance" currentExplodedTrackIndex="1" totalExplodedTrackCount="2" premiereTrackType="Stereo">
															<enabled>TRUE</enabled>
															<locked>FALSE</locked>
															<outputchannelindex>2</outputchannelindex>
														</track>
													</audio>
												</media>
												<timecode>
													<rate>
														<timebase>25</timebase>
														<ntsc>FALSE</ntsc>
													</rate>
													<string>00:00:00:00</string>
													<frame>0</frame>
													<displayformat>NDF</displayformat>
												</timecode>
												<logginginfo>
													<description></description>
													<scene></scene>
													<shottake></shottake>
													<lognote></lognote>
													<good></good>
													<originalvideofilename></originalvideofilename>
													<originalaudiofilename></originalaudiofilename>
												</logginginfo>
											</sequence>
											<labels>
												<label2>Forest</label2>
											</labels>
										</clipitem>
										<clipitem id="clipitem-1289">
											<masterclipid>masterclip-576</masterclipid>
											<name>Graphic</name>
											<enabled>FALSE</enabled>
											<duration>1080000</duration>
											<rate>
												<timebase>25</timebase>
												<ntsc>FALSE</ntsc>
											</rate>
											<start>350</start>
											<end>475</end>
											<in>90000</in>
											<out>90125</out>
											<pproTicksIn>914457600000000</pproTicksIn>
											<pproTicksOut>915727680000000</pproTicksOut>
											<alphatype>straight</alphatype>
											<pixelaspectratio>PAL-601</pixelaspectratio>
											<anamorphic>TRUE</anamorphic>
											<file id="file-477">
												<name>Graphic</name>
												<mediaSource>GraphicAndType</mediaSource>
												<rate>
													<timebase>30</timebase>
													<ntsc>TRUE</ntsc>
												</rate>
												<timecode>
													<rate>
														<timebase>30</timebase>
														<ntsc>TRUE</ntsc>
													</rate>
													<string>00;00;00;00</string>
													<frame>0</frame>
													<displayformat>DF</displayformat>
												</timecode>
												<media>
													<video>
														<samplecharacteristics>
															<rate>
																<timebase>30</timebase>
																<ntsc>TRUE</ntsc>
															</rate>
															<width>720</width>
															<height>576</height>
															<anamorphic>TRUE</anamorphic>
															<pixelaspectratio>PAL-601</pixelaspectratio>
															<fielddominance>none</fielddominance>
														</samplecharacteristics>
													</video>
												</media>
											</file>
											<filter>
												<effect>
													<name>Basic Motion</name>
													<effectid>basic</effectid>
													<effectcategory>motion</effectcategory>
													<effecttype>motion</effecttype>
													<mediatype>video</mediatype>
													<pproBypass>false</pproBypass>
													<parameter authoringApp="PremierePro">
														<parameterid>scale</parameterid>
														<name>Scale</name>
														<valuemin>0</valuemin>
														<valuemax>1000</valuemax>
														<value>133.333</value>
													</parameter>
													<parameter authoringApp="PremierePro">
														<parameterid>rotation</parameterid>
														<name>Rotation</name>
														<valuemin>-8640</valuemin>
														<valuemax>8640</valuemax>
														<value>0</value>
													</parameter>
													<parameter authoringApp="PremierePro">
														<parameterid>center</parameterid>
														<name>Center</name>
														<value>
															<horiz>0</horiz>
															<vert>0</vert>
														</value>
													</parameter>
													<parameter authoringApp="PremierePro">
														<parameterid>centerOffset</parameterid>
														<name>Anchor Point</name>
														<value>
															<horiz>0</horiz>
															<vert>0</vert>
														</value>
													</parameter>
													<parameter authoringApp="PremierePro">
														<parameterid>antiflicker</parameterid>
														<name>Anti-flicker Filter</name>
														<valuemin>0.0</valuemin>
														<valuemax>1.0</valuemax>
														<value>0</value>
													</parameter>
												</effect>
											</filter>
											<filter>
												<effect>
													<name>Distort</name>
													<effectid>deformation</effectid>
													<effectcategory>motion</effectcategory>
													<effecttype>motion</effecttype>
													<mediatype>video</mediatype>
													<parameter authoringApp="PremierePro">
														<parameterid>aspect</parameterid>
														<name>Aspect</name>
														<valuemin>-10000</valuemin>
														<valuemax>10000</valuemax>
														<value>-33.333</value>
													</parameter>
												</effect>
											</filter>
											<filter>
												<effect>
													<name></name>
													<effectid>GraphicAndType</effectid>
													<effectcategory>graphic</effectcategory>
													<effecttype>filter</effecttype>
													<mediatype>video</mediatype>
													<pproBypass>false</pproBypass>
													<parameter authoringApp="PremierePro">
														<parameterid>1</parameterid>
														<name>Source Text</name>
														<hash>3f0faa81-c1b0-8370-b66c-fa0b000009f1</hash>
													</parameter>
													<parameter authoringApp="PremierePro">
														<parameterid>2</parameterid>
														<name>Transform</name>
														<IsTimeVarying>false</IsTimeVarying>
														<ParameterControlType>11</ParameterControlType>
														<LowerBound>false</LowerBound>
														<UpperBound>false</UpperBound>
														<value>-91445760000000000,false,0,0,0,0,0,0</value>
													</parameter>
													<parameter authoringApp="PremierePro">
														<parameterid>3</parameterid>
														<name>Position</name>
														<IsTimeVarying>false</IsTimeVarying>
														<value>-91445760000000000,0.55605381727218628:0.73039215803146362,0,0,0,0,0,0,5,4,0,0,0,0</value>
													</parameter>
													<parameter authoringApp="PremierePro">
														<parameterid>4</parameterid>
														<name>Scale</name>
														<IsTimeVarying>false</IsTimeVarying>
														<ParameterControlType>2</ParameterControlType>
														<LowerBound>0</LowerBound>
														<UpperBound>4000</UpperBound>
														<value>-91445760000000000,100.,0,0,0,0,0,0</value>
													</parameter>
													<parameter authoringApp="PremierePro">
														<parameterid>5</parameterid>
														<name>Horizontal Scale</name>
														<IsTimeVarying>false</IsTimeVarying>
														<ParameterControlType>2</ParameterControlType>
														<LowerBound>0</LowerBound>
														<UpperBound>4000</UpperBound>
														<value>-91445760000000000,100.,0,0,0,0,0,0</value>
													</parameter>
													<parameter authoringApp="PremierePro">
														<parameterid>6</parameterid>
														<name> </name>
														<IsTimeVarying>false</IsTimeVarying>
														<ParameterControlType>4</ParameterControlType>
														<LowerBound>false</LowerBound>
														<UpperBound>true</UpperBound>
														<value>-91445760000000000,true,0,0,0,0,0,0</value>
													</parameter>
													<parameter authoringApp="PremierePro">
														<parameterid>7</parameterid>
														<name>Rotation</name>
														<IsTimeVarying>false</IsTimeVarying>
														<ParameterControlType>3</ParameterControlType>
														<LowerBound>-32768</LowerBound>
														<UpperBound>32767</UpperBound>
														<value>-91445760000000000,0.,0,0,0,0,0,0</value>
													</parameter>
													<parameter authoringApp="PremierePro">
														<parameterid>8</parameterid>
														<name>Opacity</name>
														<IsTimeVarying>false</IsTimeVarying>
														<ParameterControlType>2</ParameterControlType>
														<LowerBound>0</LowerBound>
														<UpperBound>100</UpperBound>
														<value>-91445760000000000,100.,0,0,0,0,0,0</value>
													</parameter>
													<parameter authoringApp="PremierePro">
														<parameterid>9</parameterid>
														<name>Anchor Point</name>
														<IsTimeVarying>false</IsTimeVarying>
														<value>-91445760000000000,0:0,0,0,0,0,0,0,5,4,0,0,0,0</value>
													</parameter>
													<parameter authoringApp="PremierePro">
														<parameterid>10</parameterid>
														<name></name>
														<IsTimeVarying>false</IsTimeVarying>
														<ParameterControlType>12</ParameterControlType>
														<LowerBound>false</LowerBound>
														<UpperBound>false</UpperBound>
														<value>-91445760000000000,false,0,0,0,0,0,0</value>
													</parameter>
													<parameter authoringApp="PremierePro">
														<parameterid>11</parameterid>
														<name> </name>
														<IsTimeVarying>false</IsTimeVarying>
														<ParameterControlType>8</ParameterControlType>
														<LowerBound>0</LowerBound>
														<UpperBound>32768</UpperBound>
														<value>-91445760000000000,0.,0,0,0,0,0,0</value>
													</parameter>
													<parameter authoringApp="PremierePro">
														<parameterid>12</parameterid>
														<name> </name>
														<IsTimeVarying>false</IsTimeVarying>
														<ParameterControlType>8</ParameterControlType>
														<LowerBound>0</LowerBound>
														<UpperBound>32768</UpperBound>
														<value>-91445760000000000,0.,0,0,0,0,0,0</value>
													</parameter>
													<parameter authoringApp="PremierePro">
														<parameterid>13</parameterid>
														<name>start</name>
														<IsTimeVarying>false</IsTimeVarying>
														<ParameterControlType>8</ParameterControlType>
														<LowerBound>-100</LowerBound>
														<UpperBound>1000000000</UpperBound>
														<value>-91445760000000000,0.,0,0,0,0,0,0</value>
													</parameter>
													<parameter authoringApp="PremierePro">
														<parameterid>14</parameterid>
														<name>end</name>
														<IsTimeVarying>false</IsTimeVarying>
														<ParameterControlType>8</ParameterControlType>
														<LowerBound>-100</LowerBound>
														<UpperBound>1000000000</UpperBound>
														<value>-91445760000000000,0.,0,0,0,0,0,0</value>
													</parameter>
													<parameter authoringApp="PremierePro">
														<parameterid>15</parameterid>
														<name> </name>
														<IsTimeVarying>false</IsTimeVarying>
														<ParameterControlType>4</ParameterControlType>
														<LowerBound>false</LowerBound>
														<UpperBound>true</UpperBound>
														<value>-91445760000000000,false,0,0,0,0,0,0</value>
													</parameter>
													<parameter authoringApp="PremierePro">
														<parameterid>16</parameterid>
														<name> </name>
														<IsTimeVarying>false</IsTimeVarying>
														<ParameterControlType>4</ParameterControlType>
														<LowerBound>false</LowerBound>
														<UpperBound>true</UpperBound>
														<value>-91445760000000000,false,0,0,0,0,0,0</value>
													</parameter>
													<parameter authoringApp="PremierePro">
														<parameterid>17</parameterid>
														<name> </name>
														<IsTimeVarying>false</IsTimeVarying>
														<ParameterControlType>4</ParameterControlType>
														<LowerBound>false</LowerBound>
														<UpperBound>true</UpperBound>
														<value>-91445760000000000,false,0,0,0,0,0,0</value>
													</parameter>
													<parameter authoringApp="PremierePro">
														<parameterid>18</parameterid>
														<name> </name>
														<IsTimeVarying>false</IsTimeVarying>
														<ParameterControlType>4</ParameterControlType>
														<LowerBound>false</LowerBound>
														<UpperBound>true</UpperBound>
														<value>-91445760000000000,false,0,0,0,0,0,0</value>
													</parameter>
													<parameter authoringApp="PremierePro">
														<parameterid>19</parameterid>
														<name>Parent Width</name>
														<IsTimeVarying>false</IsTimeVarying>
														<ParameterControlType>2</ParameterControlType>
														<LowerBound>0</LowerBound>
														<UpperBound>20000</UpperBound>
														<value>-91445760000000000,0.,0,0,0,0,0,0</value>
													</parameter>
													<parameter authoringApp="PremierePro">
														<parameterid>20</parameterid>
														<name>Parent Height</name>
														<IsTimeVarying>false</IsTimeVarying>
														<ParameterControlType>2</ParameterControlType>
														<LowerBound>0</LowerBound>
														<UpperBound>20000</UpperBound>
														<value>-91445760000000000,0.,0,0,0,0,0,0</value>
													</parameter>
													<parameter authoringApp="PremierePro">
														<parameterid>21</parameterid>
														<name>Parent Rotation</name>
														<IsTimeVarying>false</IsTimeVarying>
														<ParameterControlType>3</ParameterControlType>
														<LowerBound>-32768</LowerBound>
														<UpperBound>32767</UpperBound>
														<value>-91445760000000000,0.,0,0,0,0,0,0</value>
													</parameter>
												</effect>
											</filter>
											<logginginfo>
												<description></description>
												<scene></scene>
												<shottake></shottake>
												<lognote></lognote>
												<good></good>
												<originalvideofilename></originalvideofilename>
												<originalaudiofilename></originalaudiofilename>
											</logginginfo>
											<colorinfo>
												<lut></lut>
												<lut1></lut1>
												<asc_sop></asc_sop>
												<asc_sat></asc_sat>
												<lut2></lut2>
											</colorinfo>
										</clipitem>
										<enabled>TRUE</enabled>
										<locked>FALSE</locked>
									</track>
									<track TL.SQTrackShy="0" TL.SQTrackExpandedHeight="25" TL.SQTrackExpanded="0" MZ.TrackTargeted="0">
										<clipitem id="clipitem-1290">
											<masterclipid>masterclip-574</masterclipid>
											<name>Nested Sequence 05</name>
											<enabled>TRUE</enabled>
											<duration>225</duration>
											<rate>
												<timebase>25</timebase>
												<ntsc>FALSE</ntsc>
											</rate>
											<start>129</start>
											<end>342</end>
											<in>0</in>
											<out>213</out>
											<pproTicksIn>0</pproTicksIn>
											<pproTicksOut>2164216320000</pproTicksOut>
											<sequence id="sequence-106"/>
											<filter>
												<effect>
													<name>Basic Motion</name>
													<effectid>basic</effectid>
													<effectcategory>motion</effectcategory>
													<effecttype>motion</effecttype>
													<mediatype>video</mediatype>
													<pproBypass>false</pproBypass>
													<parameter authoringApp="PremierePro">
														<parameterid>scale</parameterid>
														<name>Scale</name>
														<valuemin>0</valuemin>
														<valuemax>1000</valuemax>
														<value>100</value>
													</parameter>
													<parameter authoringApp="PremierePro">
														<parameterid>rotation</parameterid>
														<name>Rotation</name>
														<valuemin>-8640</valuemin>
														<valuemax>8640</valuemax>
														<value>0</value>
													</parameter>
													<parameter authoringApp="PremierePro">
														<parameterid>center</parameterid>
														<name>Center</name>
														<value>
															<horiz>-0.5</horiz>
															<vert>-0.5</vert>
														</value>
													</parameter>
													<parameter authoringApp="PremierePro">
														<parameterid>centerOffset</parameterid>
														<name>Anchor Point</name>
														<value>
															<horiz>0</horiz>
															<vert>0</vert>
														</value>
													</parameter>
													<parameter authoringApp="PremierePro">
														<parameterid>antiflicker</parameterid>
														<name>Anti-flicker Filter</name>
														<valuemin>0.0</valuemin>
														<valuemax>1.0</valuemax>
														<value>0</value>
													</parameter>
												</effect>
											</filter>
											<filter>
												<effect>
													<name>Opacity</name>
													<effectid>opacity</effectid>
													<effectcategory>motion</effectcategory>
													<effecttype>motion</effecttype>
													<mediatype>video</mediatype>
													<pproBypass>false</pproBypass>
													<parameter authoringApp="PremierePro">
														<parameterid>opacity</parameterid>
														<name>opacity</name>
														<valuemin>0</valuemin>
														<valuemax>100</valuemax>
														<value>100</value>
													</parameter>
												</effect>
											</filter>
											<labels>
												<label2>Forest</label2>
											</labels>
										</clipitem>
										<clipitem id="clipitem-1291">
											<masterclipid>masterclip-574</masterclipid>
											<name>Nested Sequence 05</name>
											<enabled>TRUE</enabled>
											<duration>225</duration>
											<rate>
												<timebase>25</timebase>
												<ntsc>FALSE</ntsc>
											</rate>
											<start>342</start>
											<end>352</end>
											<in>215</in>
											<out>225</out>
											<pproTicksIn>2184537600000</pproTicksIn>
											<pproTicksOut>2286144000000</pproTicksOut>
											<sequence id="sequence-106"/>
											<filter>
												<effect>
													<name>Basic Motion</name>
													<effectid>basic</effectid>
													<effectcategory>motion</effectcategory>
													<effecttype>motion</effecttype>
													<mediatype>video</mediatype>
													<pproBypass>false</pproBypass>
													<parameter authoringApp="PremierePro">
														<parameterid>scale</parameterid>
														<name>Scale</name>
														<valuemin>0</valuemin>
														<valuemax>1000</valuemax>
														<value>100</value>
													</parameter>
													<parameter authoringApp="PremierePro">
														<parameterid>rotation</parameterid>
														<name>Rotation</name>
														<valuemin>-8640</valuemin>
														<valuemax>8640</valuemax>
														<value>0</value>
													</parameter>
													<parameter authoringApp="PremierePro">
														<parameterid>center</parameterid>
														<name>Center</name>
														<value>
															<horiz>-0.5</horiz>
															<vert>-0.5</vert>
														</value>
													</parameter>
													<parameter authoringApp="PremierePro">
														<parameterid>centerOffset</parameterid>
														<name>Anchor Point</name>
														<value>
															<horiz>0</horiz>
															<vert>0</vert>
														</value>
													</parameter>
													<parameter authoringApp="PremierePro">
														<parameterid>antiflicker</parameterid>
														<name>Anti-flicker Filter</name>
														<valuemin>0.0</valuemin>
														<valuemax>1.0</valuemax>
														<value>0</value>
													</parameter>
												</effect>
											</filter>
											<filter>
												<effect>
													<name>Opacity</name>
													<effectid>opacity</effectid>
													<effectcategory>motion</effectcategory>
													<effecttype>motion</effecttype>
													<mediatype>video</mediatype>
													<pproBypass>false</pproBypass>
													<parameter authoringApp="PremierePro">
														<parameterid>opacity</parameterid>
														<name>opacity</name>
														<valuemin>0</valuemin>
														<valuemax>100</valuemax>
														<value>100</value>
													</parameter>
												</effect>
											</filter>
											<labels>
												<label2>Forest</label2>
											</labels>
										</clipitem>
										<enabled>TRUE</enabled>
										<locked>FALSE</locked>
									</track>
									<track TL.SQTrackShy="0" TL.SQTrackExpandedHeight="25" TL.SQTrackExpanded="0" MZ.TrackTargeted="0">
										<transitionitem>
											<start>173</start>
											<end>230</end>
											<alignment>start-black</alignment>
											<cutPointTicks>0</cutPointTicks>
											<rate>
												<timebase>25</timebase>
												<ntsc>FALSE</ntsc>
											</rate>
											<effect>
												<name>Edge Wipe</name>
												<effectid>Edge Wipe</effectid>
												<effectcategory>Wipe</effectcategory>
												<effecttype>transition</effecttype>
												<mediatype>video</mediatype>
												<wipecode>2</wipecode>
												<wipeaccuracy>100</wipeaccuracy>
												<startratio>0</startratio>
												<endratio>1</endratio>
												<reverse>FALSE</reverse>
												<parameter authoringApp="PremierePro">
													<parameterid>directionofwipe</parameterid>
													<name>Angle</name>
													<valuemin>-360</valuemin>
													<valuemax>360</valuemax>
													<value>90</value>
												</parameter>
											</effect>
										</transitionitem>
										<clipitem id="clipitem-1292">
											<masterclipid>masterclip-577</masterclipid>
											<name>9.png</name>
											<enabled>TRUE</enabled>
											<duration>1080000</duration>
											<rate>
												<timebase>25</timebase>
												<ntsc>FALSE</ntsc>
											</rate>
											<start>-1</start>
											<end>-1</end>
											<in>90048</in>
											<out>90225</out>
											<pproTicksIn>914945310720000</pproTicksIn>
											<pproTicksOut>916743744000000</pproTicksOut>
											<alphatype>straight</alphatype>
											<pixelaspectratio>square</pixelaspectratio>
											<anamorphic>FALSE</anamorphic>
											<file id="file-478">
												<name>2.png</name>
												<pathurl>file://localhost/_MUZ_TV/project_AP/RU/_TITLE/468/2.png</pathurl>
												<rate>
													<timebase>30</timebase>
													<ntsc>TRUE</ntsc>
												</rate>
												<timecode>
													<rate>
														<timebase>30</timebase>
														<ntsc>TRUE</ntsc>
													</rate>
													<string>00;00;00;00</string>
													<frame>0</frame>
													<displayformat>DF</displayformat>
												</timecode>
												<media>
													<video>
														<samplecharacteristics>
															<rate>
																<timebase>30</timebase>
																<ntsc>TRUE</ntsc>
															</rate>
															<width>1920</width>
															<height>1080</height>
															<anamorphic>FALSE</anamorphic>
															<pixelaspectratio>square</pixelaspectratio>
															<fielddominance>none</fielddominance>
														</samplecharacteristics>
													</video>
												</media>
											</file>
											<filter>
												<effect>
													<name>Basic Motion</name>
													<effectid>basic</effectid>
													<effectcategory>motion</effectcategory>
													<effecttype>motion</effecttype>
													<mediatype>video</mediatype>
													<pproBypass>false</pproBypass>
													<parameter authoringApp="PremierePro">
														<parameterid>scale</parameterid>
														<name>Scale</name>
														<valuemin>0</valuemin>
														<valuemax>1000</valuemax>
														<value>53.3333</value>
													</parameter>
													<parameter authoringApp="PremierePro">
														<parameterid>rotation</parameterid>
														<name>Rotation</name>
														<valuemin>-8640</valuemin>
														<valuemax>8640</valuemax>
														<value>0</value>
													</parameter>
													<parameter authoringApp="PremierePro">
														<parameterid>center</parameterid>
														<name>Center</name>
														<value>
															<horiz>0</horiz>
															<vert>0</vert>
														</value>
													</parameter>
													<parameter authoringApp="PremierePro">
														<parameterid>centerOffset</parameterid>
														<name>Anchor Point</name>
														<value>
															<horiz>0</horiz>
															<vert>0</vert>
														</value>
													</parameter>
													<parameter authoringApp="PremierePro">
														<parameterid>antiflicker</parameterid>
														<name>Anti-flicker Filter</name>
														<valuemin>0.0</valuemin>
														<valuemax>1.0</valuemax>
														<value>0</value>
													</parameter>
												</effect>
											</filter>
											<logginginfo>
												<description></description>
												<scene></scene>
												<shottake></shottake>
												<lognote></lognote>
												<good></good>
												<originalvideofilename></originalvideofilename>
												<originalaudiofilename></originalaudiofilename>
											</logginginfo>
											<colorinfo>
												<lut></lut>
												<lut1></lut1>
												<asc_sop></asc_sop>
												<asc_sat></asc_sat>
												<lut2></lut2>
											</colorinfo>
											<labels>
												<label2>Lavender</label2>
											</labels>
										</clipitem>
										<transitionitem>
											<start>328</start>
											<end>350</end>
											<alignment>end-black</alignment>
											<cutPointTicks>223534080000</cutPointTicks>
											<rate>
												<timebase>25</timebase>
												<ntsc>FALSE</ntsc>
											</rate>
											<effect>
												<name>Edge Wipe</name>
												<effectid>Edge Wipe</effectid>
												<effectcategory>Wipe</effectcategory>
												<effecttype>transition</effecttype>
												<mediatype>video</mediatype>
												<wipecode>2</wipecode>
												<wipeaccuracy>100</wipeaccuracy>
												<startratio>0</startratio>
												<endratio>1</endratio>
												<reverse>FALSE</reverse>
												<parameter authoringApp="PremierePro">
													<parameterid>directionofwipe</parameterid>
													<name>Angle</name>
													<valuemin>-360</valuemin>
													<valuemax>360</valuemax>
													<value>90</value>
												</parameter>
											</effect>
										</transitionitem>
										<enabled>TRUE</enabled>
										<locked>FALSE</locked>
									</track>
								</video>
								<audio>
									<numOutputChannels>2</numOutputChannels>
									<format>
										<samplecharacteristics>
											<depth>16</depth>
											<samplerate>48000</samplerate>
										</samplecharacteristics>
									</format>
									<outputs>
										<group>
											<index>1</index>
											<numchannels>1</numchannels>
											<downmix>0</downmix>
											<channel>
												<index>1</index>
											</channel>
										</group>
										<group>
											<index>2</index>
											<numchannels>1</numchannels>
											<downmix>0</downmix>
											<channel>
												<index>2</index>
											</channel>
										</group>
									</outputs>
									<track TL.SQTrackAudioKeyframeStyle="0" TL.SQTrackShy="0" TL.SQTrackExpandedHeight="25" TL.SQTrackExpanded="0" MZ.TrackTargeted="1" PannerCurrentValue="0.5" PannerStartKeyframe="-91445760000000000,0.5,0,0,0,0,0,0" PannerName="Balance" currentExplodedTrackIndex="0" totalExplodedTrackCount="2" premiereTrackType="Stereo">
										<enabled>TRUE</enabled>
										<locked>FALSE</locked>
										<outputchannelindex>1</outputchannelindex>
									</track>
									<track TL.SQTrackAudioKeyframeStyle="0" TL.SQTrackShy="0" TL.SQTrackExpandedHeight="25" TL.SQTrackExpanded="0" MZ.TrackTargeted="1" PannerCurrentValue="0.5" PannerStartKeyframe="-91445760000000000,0.5,0,0,0,0,0,0" PannerName="Balance" currentExplodedTrackIndex="1" totalExplodedTrackCount="2" premiereTrackType="Stereo">
										<enabled>TRUE</enabled>
										<locked>FALSE</locked>
										<outputchannelindex>2</outputchannelindex>
									</track>
								</audio>
							</media>
							<timecode>
								<rate>
									<timebase>25</timebase>
									<ntsc>FALSE</ntsc>
								</rate>
								<string>00:00:00:00</string>
								<frame>0</frame>
								<displayformat>NDF</displayformat>
							</timecode>
								<marker>
									<comment></comment>
									<name></name>
									<in>125</in>
									<out>-1</out>
									<pproColor>4280578025</pproColor>
								</marker>
							<logginginfo>
								<description></description>
								<scene></scene>
								<shottake></shottake>
								<lognote></lognote>
								<good></good>
								<originalvideofilename></originalvideofilename>
								<originalaudiofilename></originalaudiofilename>
							</logginginfo>
						</sequence>
							<marker>
								<comment></comment>
								<name></name>
								<in>125</in>
								<out>-1</out>
								<pproColor>4280578025</pproColor>
							</marker>
						<labels>
							<label2>Forest</label2>
						</labels>
					</clipitem>
					<clipitem id="clipitem-1293">
						<masterclipid>masterclip-573</masterclipid>
						<name>2</name>
						<enabled>TRUE</enabled>
						<duration>475</duration>
						<rate>
							<timebase>25</timebase>
							<ntsc>FALSE</ntsc>
						</rate>
						<start>60472</start>
						<end>60823</end>
						<in>124</in>
						<out>475</out>
						<pproTicksIn>1259919360000</pproTicksIn>
						<pproTicksOut>4826304000000</pproTicksOut>
						<sequence id="sequence-105"/>
							<marker>
								<comment></comment>
								<name></name>
								<in>125</in>
								<out>-1</out>
								<pproColor>4280578025</pproColor>
							</marker>
						<labels>
							<label2>Forest</label2>
						</labels>
					</clipitem>
					<clipitem id="clipitem-1294">
						<masterclipid>masterclip-578</masterclipid>
						<name>1_TITLE</name>
						<enabled>TRUE</enabled>
						<duration>475</duration>
						<rate>
							<timebase>25</timebase>
							<ntsc>FALSE</ntsc>
						</rate>
						<start>61440</start>
						<end>61790</end>
						<in>0</in>
						<out>475</out>
						<pproTicksIn>0</pproTicksIn>
						<pproTicksOut>4826304000000</pproTicksOut>
						<sequence id="sequence-107" TL.SQAudioVisibleBase="0" TL.SQVideoVisibleBase="0" TL.SQVisibleBaseTime="0" TL.SQAVDividerPosition="0.5" TL.SQHideShyTracks="0" TL.SQHeaderWidth="236" TL.SQDataTrackViewControlState="0" Monitor.ProgramZoomOut="4826304000000" Monitor.ProgramZoomIn="0" TL.SQTimePerPixel="0.024999999999999998" AM.TrackVScrollPosition="0" AM.TrackScrollPosition="0" MZ.EditLine="1473292800000" MZ.Sequence.PreviewFrameSizeHeight="576" MZ.Sequence.PreviewFrameSizeWidth="720" MZ.Sequence.AudioTimeDisplayFormat="200" MZ.Sequence.PreviewRenderingClassID="1061109567" MZ.Sequence.PreviewRenderingPresetCodec="1685480304" MZ.Sequence.PreviewRenderingPresetPath="EncoderPresets/SequencePreview/04be6e19-a018-4e0c-a9d6-0ab44c64752b/QuickTime DV PAL.epr" MZ.Sequence.PreviewUseMaxRenderQuality="false" MZ.Sequence.PreviewUseMaxBitDepth="false" MZ.Sequence.EditingModeGUID="04be6e19-a018-4e0c-a9d6-0ab44c64752b" MZ.Sequence.VideoTimeDisplayFormat="101" MZ.WorkOutPoint="4826304000000" MZ.WorkInPoint="0" MZ.ZeroPoint="0">
							<duration>475</duration>
							<rate>
								<timebase>25</timebase>
								<ntsc>FALSE</ntsc>
							</rate>
							<name>титр</name>
							<media>
								<video>
									<format>
										<samplecharacteristics>
											<rate>
												<timebase>25</timebase>
												<ntsc>FALSE</ntsc>
											</rate>
											<codec>
												<name>Apple ProRes 422</name>
												<appspecificdata>
													<appname>Final Cut Pro</appname>
													<appmanufacturer>Apple Inc.</appmanufacturer>
													<appversion>7.0</appversion>
													<data>
														<qtcodec>
															<codecname>Apple ProRes 422</codecname>
															<codectypename>Apple ProRes 422</codectypename>
															<codectypecode>apcn</codectypecode>
															<codecvendorcode>appl</codecvendorcode>
															<spatialquality>1024</spatialquality>
															<temporalquality>0</temporalquality>
															<keyframerate>0</keyframerate>
															<datarate>0</datarate>
														</qtcodec>
													</data>
												</appspecificdata>
											</codec>
											<width>720</width>
											<height>576</height>
											<anamorphic>TRUE</anamorphic>
											<pixelaspectratio>PAL-601</pixelaspectratio>
											<fielddominance>lower</fielddominance>
											<colordepth>24</colordepth>
										</samplecharacteristics>
									</format>
									<track TL.SQTrackShy="0" TL.SQTrackExpandedHeight="25" TL.SQTrackExpanded="0" MZ.TrackTargeted="1">
										<clipitem id="clipitem-1295">
											<masterclipid>masterclip-579</masterclipid>
											<name>9_title.mov</name>
											<enabled>TRUE</enabled>
											<duration>225</duration>
											<rate>
												<timebase>25</timebase>
												<ntsc>FALSE</ntsc>
											</rate>
											<start>125</start>
											<end>350</end>
											<in>0</in>
											<out>225</out>
											<pproTicksIn>0</pproTicksIn>
											<pproTicksOut>2286144000000</pproTicksOut>
											<alphatype>straight</alphatype>
											<pixelaspectratio>square</pixelaspectratio>
											<anamorphic>FALSE</anamorphic>
											<file id="file-479">
												<name>1_title.mov</name>
												<pathurl>file://localhost/_MUZ_TV/graphika/RU-21/MOD/title_plashka/1_title.mov</pathurl>
												<rate>
													<timebase>25</timebase>
													<ntsc>FALSE</ntsc>
												</rate>
												<duration>225</duration>
												<timecode>
													<rate>
														<timebase>25</timebase>
														<ntsc>FALSE</ntsc>
													</rate>
													<string>00:01:21:00</string>
													<frame>2025</frame>
													<displayformat>NDF</displayformat>
												</timecode>
												<media>
													<video>
														<samplecharacteristics>
															<rate>
																<timebase>25</timebase>
																<ntsc>FALSE</ntsc>
															</rate>
															<width>1920</width>
															<height>1080</height>
															<anamorphic>FALSE</anamorphic>
															<pixelaspectratio>square</pixelaspectratio>
															<fielddominance>none</fielddominance>
														</samplecharacteristics>
													</video>
												</media>
											</file>
											<filter>
												<effect>
													<name>Basic Motion</name>
													<effectid>basic</effectid>
													<effectcategory>motion</effectcategory>
													<effecttype>motion</effecttype>
													<mediatype>video</mediatype>
													<pproBypass>false</pproBypass>
													<parameter authoringApp="PremierePro">
														<parameterid>scale</parameterid>
														<name>Scale</name>
														<valuemin>0</valuemin>
														<valuemax>1000</valuemax>
														<value>55</value>
													</parameter>
													<parameter authoringApp="PremierePro">
														<parameterid>rotation</parameterid>
														<name>Rotation</name>
														<valuemin>-8640</valuemin>
														<valuemax>8640</valuemax>
														<value>0</value>
													</parameter>
													<parameter authoringApp="PremierePro">
														<parameterid>center</parameterid>
														<name>Center</name>
														<value>
															<horiz>0</horiz>
															<vert>0</vert>
														</value>
													</parameter>
													<parameter authoringApp="PremierePro">
														<parameterid>centerOffset</parameterid>
														<name>Anchor Point</name>
														<value>
															<horiz>0</horiz>
															<vert>0</vert>
														</value>
													</parameter>
													<parameter authoringApp="PremierePro">
														<parameterid>antiflicker</parameterid>
														<name>Anti-flicker Filter</name>
														<valuemin>0.0</valuemin>
														<valuemax>1.0</valuemax>
														<value>0</value>
													</parameter>
												</effect>
											</filter>
											<filter>
												<effect>
													<name>Distort</name>
													<effectid>deformation</effectid>
													<effectcategory>motion</effectcategory>
													<effecttype>motion</effecttype>
													<mediatype>video</mediatype>
													<parameter authoringApp="PremierePro">
														<parameterid>aspect</parameterid>
														<name>Aspect</name>
														<valuemin>-10000</valuemin>
														<valuemax>10000</valuemax>
														<value>-3.12506</value>
													</parameter>
												</effect>
											</filter>
											<logginginfo>
												<description></description>
												<scene></scene>
												<shottake></shottake>
												<lognote></lognote>
												<good></good>
												<originalvideofilename></originalvideofilename>
												<originalaudiofilename></originalaudiofilename>
											</logginginfo>
											<colorinfo>
												<lut></lut>
												<lut1></lut1>
												<asc_sop></asc_sop>
												<asc_sat></asc_sat>
												<lut2></lut2>
											</colorinfo>
											<labels>
												<label2>Violet</label2>
											</labels>
										</clipitem>
										<clipitem id="clipitem-1296">
											<masterclipid>masterclip-580</masterclipid>
											<name>Graphic</name>
											<enabled>FALSE</enabled>
											<duration>1080000</duration>
											<rate>
												<timebase>25</timebase>
												<ntsc>FALSE</ntsc>
											</rate>
											<start>350</start>
											<end>475</end>
											<in>90000</in>
											<out>90125</out>
											<pproTicksIn>914457600000000</pproTicksIn>
											<pproTicksOut>915727680000000</pproTicksOut>
											<alphatype>straight</alphatype>
											<pixelaspectratio>PAL-601</pixelaspectratio>
											<anamorphic>TRUE</anamorphic>
											<file id="file-480">
												<name>Graphic</name>
												<mediaSource>GraphicAndType</mediaSource>
												<rate>
													<timebase>30</timebase>
													<ntsc>TRUE</ntsc>
												</rate>
												<timecode>
													<rate>
														<timebase>30</timebase>
														<ntsc>TRUE</ntsc>
													</rate>
													<string>00;00;00;00</string>
													<frame>0</frame>
													<displayformat>DF</displayformat>
												</timecode>
												<media>
													<video>
														<samplecharacteristics>
															<rate>
																<timebase>30</timebase>
																<ntsc>TRUE</ntsc>
															</rate>
															<width>720</width>
															<height>576</height>
															<anamorphic>TRUE</anamorphic>
															<pixelaspectratio>PAL-601</pixelaspectratio>
															<fielddominance>none</fielddominance>
														</samplecharacteristics>
													</video>
												</media>
											</file>
											<filter>
												<effect>
													<name>Basic Motion</name>
													<effectid>basic</effectid>
													<effectcategory>motion</effectcategory>
													<effecttype>motion</effecttype>
													<mediatype>video</mediatype>
													<pproBypass>false</pproBypass>
													<parameter authoringApp="PremierePro">
														<parameterid>scale</parameterid>
														<name>Scale</name>
														<valuemin>0</valuemin>
														<valuemax>1000</valuemax>
														<value>133.333</value>
													</parameter>
													<parameter authoringApp="PremierePro">
														<parameterid>rotation</parameterid>
														<name>Rotation</name>
														<valuemin>-8640</valuemin>
														<valuemax>8640</valuemax>
														<value>0</value>
													</parameter>
													<parameter authoringApp="PremierePro">
														<parameterid>center</parameterid>
														<name>Center</name>
														<value>
															<horiz>0</horiz>
															<vert>0</vert>
														</value>
													</parameter>
													<parameter authoringApp="PremierePro">
														<parameterid>centerOffset</parameterid>
														<name>Anchor Point</name>
														<value>
															<horiz>0</horiz>
															<vert>0</vert>
														</value>
													</parameter>
													<parameter authoringApp="PremierePro">
														<parameterid>antiflicker</parameterid>
														<name>Anti-flicker Filter</name>
														<valuemin>0.0</valuemin>
														<valuemax>1.0</valuemax>
														<value>0</value>
													</parameter>
												</effect>
											</filter>
											<filter>
												<effect>
													<name>Distort</name>
													<effectid>deformation</effectid>
													<effectcategory>motion</effectcategory>
													<effecttype>motion</effecttype>
													<mediatype>video</mediatype>
													<parameter authoringApp="PremierePro">
														<parameterid>aspect</parameterid>
														<name>Aspect</name>
														<valuemin>-10000</valuemin>
														<valuemax>10000</valuemax>
														<value>-33.333</value>
													</parameter>
												</effect>
											</filter>
											<filter>
												<effect>
													<name></name>
													<effectid>GraphicAndType</effectid>
													<effectcategory>graphic</effectcategory>
													<effecttype>filter</effecttype>
													<mediatype>video</mediatype>
													<pproBypass>false</pproBypass>
													<parameter authoringApp="PremierePro">
														<parameterid>1</parameterid>
														<name>Source Text</name>
														<hash>3f0faa81-c1b0-8370-b66c-fa0b000009f1</hash>
														<value>8AAAAAAAAABEMyIREAAAAAwAEAAEAAAACAAMAAwAAABEAAAACAAAABAAAAAAAAAACAAWAAQADAAIAAAABHUnue56F4lVUlAsAAAAEQAAFgAMAAAABAAAAAAAAAAAAAAAAAAIABYAAAAUAAAANAAAAIT///+I////jP///wEAAAAEAAAADAAAAEx1Y2lkYUdyYW5kZQAAAAAIAAwABAAIAAgAAABQAAAANAAAADAACAAAAAAAAAAAAAAAAAAAAAAAAAAAAAAAAAAAAAAAAAAAAAAAAAAAAAAAAAAEADAAAAAEAAAA+P////z///8EAAQABAAAAAAAAAAAAAAAAAAAAAAAAAAAAAAAAAAAAAAAAAAAAAAAAAAAAAAAAAAAAAAAAAAAAAAAAAAAAAAAAAAAAAAAAAAAAAAAAAAAAAAAAAAAAAAAAAAAAAAAAAAAAAAAAAAAAAAAAAAAAAAAAAAAAAAAAAAAAAAAAAAAAAAAAAAAAAAAAAAAAAAAAAAAAAAAAAAAAAAAAAAAAAAAAAAAAAAAAAAAAAAAAAAAAAAAAAAAAAAAAAAAAAAAAAAAAAAAAAAAAAAAAAAAAAAAAAAAAAAAAAAAAAAAAAAAAAAAAAAAAAAAAAAAAAAAAAAAAAAAAAAAAAAAAAAAAAAAAAAAAAAAAAAAAAAAAAAAAAAAAAAAAAAAAAAAAAAAAAAAAAAAAAAAAAAAAAAAAAAAAAAAAAAAAAAAAAAAAAAAAAAAAAAAAAAAAAAAAAAAAAAAAAAAAAAAAAAAAAAAAAAAAAAAAAAAAAAAAAAAAAAAAAAAAAAAAAAAAAAAAAAAAAAAAAAAAAAAAAAAAAAAAAAAAAAAAAAAAAAAAAAAAAAAAAAAAAAAAAAAAAAAAAAAAAAAAAAAAAAAAAAAAAAAAAAAAAAAAAAAAAAAAAAAAAAAAAAAAAAAAAAAAAAAAAAAAAAAAAAAAAAAAAAAAAAAAAAAAAAAAAAAAAAAAAAAAAAAAAAAAAAAAAAAAAAAAAAAAAAAAAAAAAAAAAAAAAAAAAAAAAAAAAAAAAAAAAAAAAAAAAAAAAAAAAAAAAAAAAAAAAAAAAAAAAAAAAAAAAAAAAAAAAAAAAAAAAAAAAAAAAAAAAAAAAAAAAAAAAAAAAAAAAAAAAAAAAAAAAAAAAAAAAAAAAAAAAAAAAAAAAAAAAAAAAAAAAAAAAAAAAAAAAAAAAAAAAAAAAAAAAAAAAAAAAAAAAAAAAAAAAAAAAAAAAAAAAAAAAAAAAAAAAAAAAAAAAAAAAAAAAAAAAAAAAAAAAAAAAAAAAAAAAAAAAAAAAAAAAAAAAAAAAAAAAAAAAAAAAAAAAAAAAAAAAAAAAAAAAAAAAAAAAAAAAAAAAAAAAAAAAAAAAAAAAAAAAAAAAAAAAAAAAAAAAAAAAAAAAAAAAAAAAAAAAAAAAAAAAAAAAAAAAAAAAAAAAAAAAAAAAAAAAAAAAAAAAAAAAAAAAAAAAAAAAAAAAAAAAAAAAAAAAAAAAAAAAAAAAAAAAAAAAAAAAAAAAAAAAAAAAAAAAAAAAAAAAAAAAAAAAAAAAAAAAAAAAAAAAAAAAAAAAAAAAAAAAAAAAAAAAAAAAAAAAAAAAAAAAAAAAAAAAAAAAAAAAAAAAAAAAAAAAAAAAAAAAAAAAAAAAAAAAAAAAAAAAAAAAAAAAAAAAAAAAAAAAAAAAAAAAAAAAAAAAAAAAAAAAAAAAAAAAAAAAAAAAAAAAAAAAAAAAAAAAAAAAAAAAAAAAAAAAAAAAAAAAAAAAAAAAAAAAAAAAAAAAAAAAAAAAAAAAAAAAAAAAAAAAAAAAAAAAAAAAAAAAAAAAAAAAAAAAAAAAAAAAAAAAAAAAAAAAAAAAAAAAAAAAAAAAAAAAAAAAAAAAAAAAAAAAAAAAAAAAAAAAAAAAAAAAAAAAAAAAAAAAAAAAAAAAAAAAAAAAAAAAAAAAAAAAAAAAAAAAAAAAAAAAAAAAAAAAAAAAAAAAAAAAAAAAAAAAAAAAAAAAAAAAAAAAAAAAAAAAAAAAAAAAAAAAAAAAAAAAAAAAAAAAAAAAAAAAAAAAAAAAAAAAAAAAAAAAAAAAAAAAAAAAAAAAAAAAAAAAAAAAAAAAAAAAAAAAAAAAAAAAAAAAAAAAAAAAAAAAAAAAAAAAAAAAAAAAAAAAAAAAAAAAAAAAAAAAAAAAAAAAAAAAAAAAAAAAAAAAAAAAAAAAAAAAAAAAAAAAAAAAAAAAAAAAAAAAAAAAAAAAAAAAAAAAAAAAAAAAAAAAAAAAAAAAAAAAAAAAAAAAAAAAAAAAAAAAAAAAAAAAAAAAAAAAAAAAAAAAAAAAAAAAAAAAAAAAAAAAAAAAAAAAAAAAAAAAAAAAAAAAAAAAAAAAAAAAAAAAAAAAAAAAAAAAAAAAAAAAAAAAAAAAAAAAAAAAAAAAAAAAAAAAAAAAAAAAAAAAAAAAAAAAAAAAAAAAAAAAAAAAAAAAAAAAAAAAAAAAAAAAAAAAAAAAAAAAAAAAAAAAAAAAAAAAAAAAAAAAAAAAAAAAAAAAAAAAAAAAAAAAAAAAAAAAAAAAAAAAAAAAAAAAAAAAAAAAAAAAAAAAAAAAAAAAAAAAAAAAAAAAAAAAAAAAAAAAAAAAAAAAAAAAAAAAAAAAAAAAAAAAAAAAAAAAAAAAAAAAAAAAAAAAAAAAAAAAAAAAAAAAAAAAAAAAAAAAAAAAAAAAAAAAAAAAAAAAAAAAAAAAAAAAAAAAAAAAAAAAAAAAAAAAAAAAAAAAAAAAAAAAAAAAAAAAAAAAAAAAAAAAAAAAAAAAAAAAAAAAAAAAAAAAAAAAAAAAAAAAAAAAAAAAAAAAAAAAAAAAAAAAAAAAAAAAAAAAAAAAAAAAAAAAAAAAAAAAAAAAAAAAAAAAAAAAAAAAAAAAAAAAAAAAAAAAAAAAAAAAAAAAAAAAAAAAAAAAAAAAAAAAAAAAAAAAAAAAAAAAAAAAAAAAAAAAAAAAAAAAAAAAAAAAAAAAAAAAAAAAAAAAAAAAAAAAAAAAAAAAAAAAAAAAAAAAAAAAAAAAAAAAAAAAAAAAAAAAAAAAAAAAAAAAAAAAAAAAAAAAAAAAAAAAAAAAAAAAAAAAAAAAAAAAAAAAAAAAAAAAAAAAAAAAAAAAAAAAAAAAAAAAAAAAAAAAAAAAAAAAAAAAAAAAAAAAAAAAAAAAAAAAAAAAAAAAAAAAAAAAAAAAAAAAAAAAAAAAAAAAAAAAAAAAAAAAAAAAAAAAAAAAAAAAAAAAAAAAAAAAAAAAAAAAAAAAAAAAAAAAAAAAAAAAAAAAAAAAAAAAAAAAAAAAAAAAAAAAAAAAAAAAAAAAAAAAAAAAAAAAAAAAAAAAAAAAAAAAAAAAAAAAAAAA==</value>
													</parameter>
													<parameter authoringApp="PremierePro">
														<parameterid>2</parameterid>
														<name>Transform</name>
														<IsTimeVarying>false</IsTimeVarying>
														<ParameterControlType>11</ParameterControlType>
														<LowerBound>false</LowerBound>
														<UpperBound>false</UpperBound>
														<value>-91445760000000000,false,0,0,0,0,0,0</value>
													</parameter>
													<parameter authoringApp="PremierePro">
														<parameterid>3</parameterid>
														<name>Position</name>
														<IsTimeVarying>false</IsTimeVarying>
														<value>-91445760000000000,0.55605381727218628:0.73039215803146362,0,0,0,0,0,0,5,4,0,0,0,0</value>
													</parameter>
													<parameter authoringApp="PremierePro">
														<parameterid>4</parameterid>
														<name>Scale</name>
														<IsTimeVarying>false</IsTimeVarying>
														<ParameterControlType>2</ParameterControlType>
														<LowerBound>0</LowerBound>
														<UpperBound>4000</UpperBound>
														<value>-91445760000000000,100.,0,0,0,0,0,0</value>
													</parameter>
													<parameter authoringApp="PremierePro">
														<parameterid>5</parameterid>
														<name>Horizontal Scale</name>
														<IsTimeVarying>false</IsTimeVarying>
														<ParameterControlType>2</ParameterControlType>
														<LowerBound>0</LowerBound>
														<UpperBound>4000</UpperBound>
														<value>-91445760000000000,100.,0,0,0,0,0,0</value>
													</parameter>
													<parameter authoringApp="PremierePro">
														<parameterid>6</parameterid>
														<name> </name>
														<IsTimeVarying>false</IsTimeVarying>
														<ParameterControlType>4</ParameterControlType>
														<LowerBound>false</LowerBound>
														<UpperBound>true</UpperBound>
														<value>-91445760000000000,true,0,0,0,0,0,0</value>
													</parameter>
													<parameter authoringApp="PremierePro">
														<parameterid>7</parameterid>
														<name>Rotation</name>
														<IsTimeVarying>false</IsTimeVarying>
														<ParameterControlType>3</ParameterControlType>
														<LowerBound>-32768</LowerBound>
														<UpperBound>32767</UpperBound>
														<value>-91445760000000000,0.,0,0,0,0,0,0</value>
													</parameter>
													<parameter authoringApp="PremierePro">
														<parameterid>8</parameterid>
														<name>Opacity</name>
														<IsTimeVarying>false</IsTimeVarying>
														<ParameterControlType>2</ParameterControlType>
														<LowerBound>0</LowerBound>
														<UpperBound>100</UpperBound>
														<value>-91445760000000000,100.,0,0,0,0,0,0</value>
													</parameter>
													<parameter authoringApp="PremierePro">
														<parameterid>9</parameterid>
														<name>Anchor Point</name>
														<IsTimeVarying>false</IsTimeVarying>
														<value>-91445760000000000,0:0,0,0,0,0,0,0,5,4,0,0,0,0</value>
													</parameter>
													<parameter authoringApp="PremierePro">
														<parameterid>10</parameterid>
														<name></name>
														<IsTimeVarying>false</IsTimeVarying>
														<ParameterControlType>12</ParameterControlType>
														<LowerBound>false</LowerBound>
														<UpperBound>false</UpperBound>
														<value>-91445760000000000,false,0,0,0,0,0,0</value>
													</parameter>
													<parameter authoringApp="PremierePro">
														<parameterid>11</parameterid>
														<name> </name>
														<IsTimeVarying>false</IsTimeVarying>
														<ParameterControlType>8</ParameterControlType>
														<LowerBound>0</LowerBound>
														<UpperBound>32768</UpperBound>
														<value>-91445760000000000,0.,0,0,0,0,0,0</value>
													</parameter>
													<parameter authoringApp="PremierePro">
														<parameterid>12</parameterid>
														<name> </name>
														<IsTimeVarying>false</IsTimeVarying>
														<ParameterControlType>8</ParameterControlType>
														<LowerBound>0</LowerBound>
														<UpperBound>32768</UpperBound>
														<value>-91445760000000000,0.,0,0,0,0,0,0</value>
													</parameter>
													<parameter authoringApp="PremierePro">
														<parameterid>13</parameterid>
														<name>start</name>
														<IsTimeVarying>false</IsTimeVarying>
														<ParameterControlType>8</ParameterControlType>
														<LowerBound>-100</LowerBound>
														<UpperBound>1000000000</UpperBound>
														<value>-91445760000000000,0.,0,0,0,0,0,0</value>
													</parameter>
													<parameter authoringApp="PremierePro">
														<parameterid>14</parameterid>
														<name>end</name>
														<IsTimeVarying>false</IsTimeVarying>
														<ParameterControlType>8</ParameterControlType>
														<LowerBound>-100</LowerBound>
														<UpperBound>1000000000</UpperBound>
														<value>-91445760000000000,0.,0,0,0,0,0,0</value>
													</parameter>
													<parameter authoringApp="PremierePro">
														<parameterid>15</parameterid>
														<name> </name>
														<IsTimeVarying>false</IsTimeVarying>
														<ParameterControlType>4</ParameterControlType>
														<LowerBound>false</LowerBound>
														<UpperBound>true</UpperBound>
														<value>-91445760000000000,false,0,0,0,0,0,0</value>
													</parameter>
													<parameter authoringApp="PremierePro">
														<parameterid>16</parameterid>
														<name> </name>
														<IsTimeVarying>false</IsTimeVarying>
														<ParameterControlType>4</ParameterControlType>
														<LowerBound>false</LowerBound>
														<UpperBound>true</UpperBound>
														<value>-91445760000000000,false,0,0,0,0,0,0</value>
													</parameter>
													<parameter authoringApp="PremierePro">
														<parameterid>17</parameterid>
														<name> </name>
														<IsTimeVarying>false</IsTimeVarying>
														<ParameterControlType>4</ParameterControlType>
														<LowerBound>false</LowerBound>
														<UpperBound>true</UpperBound>
														<value>-91445760000000000,false,0,0,0,0,0,0</value>
													</parameter>
													<parameter authoringApp="PremierePro">
														<parameterid>18</parameterid>
														<name> </name>
														<IsTimeVarying>false</IsTimeVarying>
														<ParameterControlType>4</ParameterControlType>
														<LowerBound>false</LowerBound>
														<UpperBound>true</UpperBound>
														<value>-91445760000000000,false,0,0,0,0,0,0</value>
													</parameter>
													<parameter authoringApp="PremierePro">
														<parameterid>19</parameterid>
														<name>Parent Width</name>
														<IsTimeVarying>false</IsTimeVarying>
														<ParameterControlType>2</ParameterControlType>
														<LowerBound>0</LowerBound>
														<UpperBound>20000</UpperBound>
														<value>-91445760000000000,0.,0,0,0,0,0,0</value>
													</parameter>
													<parameter authoringApp="PremierePro">
														<parameterid>20</parameterid>
														<name>Parent Height</name>
														<IsTimeVarying>false</IsTimeVarying>
														<ParameterControlType>2</ParameterControlType>
														<LowerBound>0</LowerBound>
														<UpperBound>20000</UpperBound>
														<value>-91445760000000000,0.,0,0,0,0,0,0</value>
													</parameter>
													<parameter authoringApp="PremierePro">
														<parameterid>21</parameterid>
														<name>Parent Rotation</name>
														<IsTimeVarying>false</IsTimeVarying>
														<ParameterControlType>3</ParameterControlType>
														<LowerBound>-32768</LowerBound>
														<UpperBound>32767</UpperBound>
														<value>-91445760000000000,0.,0,0,0,0,0,0</value>
													</parameter>
												</effect>
											</filter>
											<logginginfo>
												<description></description>
												<scene></scene>
												<shottake></shottake>
												<lognote></lognote>
												<good></good>
												<originalvideofilename></originalvideofilename>
												<originalaudiofilename></originalaudiofilename>
											</logginginfo>
											<colorinfo>
												<lut></lut>
												<lut1></lut1>
												<asc_sop></asc_sop>
												<asc_sat></asc_sat>
												<lut2></lut2>
											</colorinfo>
										</clipitem>
										<enabled>TRUE</enabled>
										<locked>FALSE</locked>
									</track>
									<track TL.SQTrackShy="0" TL.SQTrackExpandedHeight="25" TL.SQTrackExpanded="0" MZ.TrackTargeted="0">
										<transitionitem>
											<start>167</start>
											<end>224</end>
											<alignment>start-black</alignment>
											<cutPointTicks>0</cutPointTicks>
											<rate>
												<timebase>25</timebase>
												<ntsc>FALSE</ntsc>
											</rate>
											<effect>
												<name>Edge Wipe</name>
												<effectid>Edge Wipe</effectid>
												<effectcategory>Wipe</effectcategory>
												<effecttype>transition</effecttype>
												<mediatype>video</mediatype>
												<wipecode>2</wipecode>
												<wipeaccuracy>100</wipeaccuracy>
												<startratio>0</startratio>
												<endratio>1</endratio>
												<reverse>FALSE</reverse>
												<parameter authoringApp="PremierePro">
													<parameterid>directionofwipe</parameterid>
													<name>Angle</name>
													<valuemin>-360</valuemin>
													<valuemax>360</valuemax>
													<value>90</value>
												</parameter>
											</effect>
										</transitionitem>
										<clipitem id="clipitem-1297">
											<masterclipid>masterclip-581</masterclipid>
											<name>9.png</name>
											<enabled>TRUE</enabled>
											<duration>1080000</duration>
											<rate>
												<timebase>25</timebase>
												<ntsc>FALSE</ntsc>
											</rate>
											<start>-1</start>
											<end>-1</end>
											<in>90042</in>
											<out>90225</out>
											<pproTicksIn>914884346880000</pproTicksIn>
											<pproTicksOut>916743744000000</pproTicksOut>
											<alphatype>straight</alphatype>
											<pixelaspectratio>square</pixelaspectratio>
											<anamorphic>FALSE</anamorphic>
											<file id="file-481">
												<name>1.png</name>
												<pathurl>file://localhost/_MUZ_TV/project_AP/RU/_TITLE/468/1.png</pathurl>
												<rate>
													<timebase>30</timebase>
													<ntsc>TRUE</ntsc>
												</rate>
												<timecode>
													<rate>
														<timebase>30</timebase>
														<ntsc>TRUE</ntsc>
													</rate>
													<string>00;00;00;00</string>
													<frame>0</frame>
													<displayformat>DF</displayformat>
												</timecode>
												<media>
													<video>
														<samplecharacteristics>
															<rate>
																<timebase>30</timebase>
																<ntsc>TRUE</ntsc>
															</rate>
															<width>1920</width>
															<height>1080</height>
															<anamorphic>FALSE</anamorphic>
															<pixelaspectratio>square</pixelaspectratio>
															<fielddominance>none</fielddominance>
														</samplecharacteristics>
													</video>
												</media>
											</file>
											<filter>
												<effect>
													<name>Basic Motion</name>
													<effectid>basic</effectid>
													<effectcategory>motion</effectcategory>
													<effecttype>motion</effecttype>
													<mediatype>video</mediatype>
													<pproBypass>false</pproBypass>
													<parameter authoringApp="PremierePro">
														<parameterid>scale</parameterid>
														<name>Scale</name>
														<valuemin>0</valuemin>
														<valuemax>1000</valuemax>
														<value>53.3333</value>
													</parameter>
													<parameter authoringApp="PremierePro">
														<parameterid>rotation</parameterid>
														<name>Rotation</name>
														<valuemin>-8640</valuemin>
														<valuemax>8640</valuemax>
														<value>0</value>
													</parameter>
													<parameter authoringApp="PremierePro">
														<parameterid>center</parameterid>
														<name>Center</name>
														<value>
															<horiz>0</horiz>
															<vert>0</vert>
														</value>
													</parameter>
													<parameter authoringApp="PremierePro">
														<parameterid>centerOffset</parameterid>
														<name>Anchor Point</name>
														<value>
															<horiz>0</horiz>
															<vert>0</vert>
														</value>
													</parameter>
													<parameter authoringApp="PremierePro">
														<parameterid>antiflicker</parameterid>
														<name>Anti-flicker Filter</name>
														<valuemin>0.0</valuemin>
														<valuemax>1.0</valuemax>
														<value>0</value>
													</parameter>
												</effect>
											</filter>
											<logginginfo>
												<description></description>
												<scene></scene>
												<shottake></shottake>
												<lognote></lognote>
												<good></good>
												<originalvideofilename></originalvideofilename>
												<originalaudiofilename></originalaudiofilename>
											</logginginfo>
											<colorinfo>
												<lut></lut>
												<lut1></lut1>
												<asc_sop></asc_sop>
												<asc_sat></asc_sat>
												<lut2></lut2>
											</colorinfo>
											<labels>
												<label2>Lavender</label2>
											</labels>
										</clipitem>
										<transitionitem>
											<start>328</start>
											<end>350</end>
											<alignment>end-black</alignment>
											<cutPointTicks>223534080000</cutPointTicks>
											<rate>
												<timebase>25</timebase>
												<ntsc>FALSE</ntsc>
											</rate>
											<effect>
												<name>Edge Wipe</name>
												<effectid>Edge Wipe</effectid>
												<effectcategory>Wipe</effectcategory>
												<effecttype>transition</effecttype>
												<mediatype>video</mediatype>
												<wipecode>2</wipecode>
												<wipeaccuracy>100</wipeaccuracy>
												<startratio>0</startratio>
												<endratio>1</endratio>
												<reverse>FALSE</reverse>
												<parameter authoringApp="PremierePro">
													<parameterid>directionofwipe</parameterid>
													<name>Angle</name>
													<valuemin>-360</valuemin>
													<valuemax>360</valuemax>
													<value>90</value>
												</parameter>
											</effect>
										</transitionitem>
										<enabled>TRUE</enabled>
										<locked>FALSE</locked>
									</track>
									<track TL.SQTrackShy="0" TL.SQTrackExpandedHeight="25" TL.SQTrackExpanded="0" MZ.TrackTargeted="0">
										<transitionitem>
											<start>167</start>
											<end>224</end>
											<alignment>start-black</alignment>
											<cutPointTicks>0</cutPointTicks>
											<rate>
												<timebase>25</timebase>
												<ntsc>FALSE</ntsc>
											</rate>
											<effect>
												<name>Edge Wipe</name>
												<effectid>Edge Wipe</effectid>
												<effectcategory>Wipe</effectcategory>
												<effecttype>transition</effecttype>
												<mediatype>video</mediatype>
												<wipecode>2</wipecode>
												<wipeaccuracy>100</wipeaccuracy>
												<startratio>0</startratio>
												<endratio>1</endratio>
												<reverse>FALSE</reverse>
												<parameter authoringApp="PremierePro">
													<parameterid>directionofwipe</parameterid>
													<name>Angle</name>
													<valuemin>-360</valuemin>
													<valuemax>360</valuemax>
													<value>90</value>
												</parameter>
											</effect>
										</transitionitem>
										<clipitem id="clipitem-1298">
											<masterclipid>masterclip-582</masterclipid>
											<name>Graphic</name>
											<enabled>FALSE</enabled>
											<duration>1080000</duration>
											<rate>
												<timebase>25</timebase>
												<ntsc>FALSE</ntsc>
											</rate>
											<start>-1</start>
											<end>-1</end>
											<in>89998</in>
											<out>90181</out>
											<pproTicksIn>914437278720000</pproTicksIn>
											<pproTicksOut>916296675840000</pproTicksOut>
											<alphatype>straight</alphatype>
											<pixelaspectratio>PAL-601</pixelaspectratio>
											<anamorphic>TRUE</anamorphic>
											<file id="file-482">
												<name>Graphic</name>
												<mediaSource>GraphicAndType</mediaSource>
												<rate>
													<timebase>30</timebase>
													<ntsc>TRUE</ntsc>
												</rate>
												<timecode>
													<rate>
														<timebase>30</timebase>
														<ntsc>TRUE</ntsc>
													</rate>
													<string>00;00;00;00</string>
													<frame>0</frame>
													<displayformat>DF</displayformat>
												</timecode>
												<media>
													<video>
														<samplecharacteristics>
															<rate>
																<timebase>30</timebase>
																<ntsc>TRUE</ntsc>
															</rate>
															<width>720</width>
															<height>576</height>
															<anamorphic>TRUE</anamorphic>
															<pixelaspectratio>PAL-601</pixelaspectratio>
															<fielddominance>none</fielddominance>
														</samplecharacteristics>
													</video>
												</media>
											</file>
											<filter>
												<effect>
													<name>АРТУР ПИРОЖКОВ&#13;ЛЕТОМ НА ФИЕСТЕ</name>
													<effectid>GraphicAndType</effectid>
													<effectcategory>graphic</effectcategory>
													<effecttype>filter</effecttype>
													<mediatype>video</mediatype>
													<pproBypass>false</pproBypass>
													<pproExpanded>true</pproExpanded>
													<parameter authoringApp="PremierePro">
														<parameterid>1</parameterid>
														<name>Source Text</name>
														<hash>dc092258-f6b9-fd91-a76f-c3e700000476</hash>
														<value>WAEAAAAAAABEMyIREAAAAAwAEAAEAAAACAAMAAwAAABEAAAACAAAABAAAAAAAAAACAAaAAQADAAIAAAAlX6GQZLUglGh3VTnAAAD0QAAAAAAABIAEAAIAAQAAAAAAAAAAAAMABIAAAAYAAAAMAAAAAAAgD9Y////XP///2D///8BAAAABAAAAA8AAABNb250c2VycmF0LUJvbGQAAQAAAAwAAAAIAAwABAAIAAgAAAB0AAAANAAAADAAGAAAABQAAAAAABAAAAAMAAAAAAAAAAgAAAAAAAAAAAAAAAAAAAAAAAAAAAAEADAAAAAYAAAAAACAv5qZmT8cAAAAAABAQQQABgAEAAAAAAAKAAgABQAGAAcACgAAAADl5eUEAAQABAAAADgAAADQkNCg0KLQo9CgINCf0JjQoNCe0JbQmtCe0JIN0JvQldCi0J7QnCDQndCQINCk0JjQldCh0KLQlQAAAAAAAAAAAAAAAAAAAAAAAAAAAAAAAAAAAAAAAAAAAAAAAAAAAAAAAAAAAAAAAAAAAAAAAAAAAAAAAAAAAAAAAAAAAAAAAAAAAAAAAAAAAAAAAAAAAAAAAAAAAAAAAAAAAAAAAAAAAAAAAAAAAAAAAAAAAAAAAAAAAAAAAAAAAAAAAAAAAAAAAAAAAAAAAAAAAAAAAAAAAAAAAAAAAAAAAAAAAAAAAAAAAAAAAAAAAAAAAAAAAAAAAAAAAAAAAAAAAAAAAAAAAAAAAAAAAAAAAAAAAAAAAAAAAAAAAAAAAAAAAAAAAAAAAAAAAAAAAAAAAAAAAAAAAAAAAAAAAAAAAAAAAAAAAAAAAAAAAAAAAAAAAAAAAAAAAAAAAAAAAAAAAAAAAAAAAAAAAAAAAAAAAAAAAAAAAAAAAAAAAAAAAAAAAAAAAAAAAAAAAAAAAAAAAAAAAAAAAAAAAAAAAAAAAAAAAAAAAAAAAAAAAAAAAAAAAAAAAAAAAAAAAAAAAAAAAAAAAAAAAAAAAAAAAAAAAAAAAAAAAAAAAAAAAAAAAAAAAAAAAAAAAAAAAAAAAAAAAAAAAAAAAAAAAAAAAAAAAAAAAAAAAAAAAAAAAAAAAAAAAAAAAAAAAAAAAAAAAAAAAAAAAAAAAAAAAAAAAAAAAAAAAAAAAAAAAAAAAAAAAAAAAAAAAAAAAAAAAAAAAAAAAAAAAAAAAAAAAAAAAAAAAAAAAAAAAAAAAAAAAAAAAAAAAAAAAAAAAAAAAAAAAAAAAAAAAAAAAAAAAAAAAAAAAAAAAAAAAAAAAAAAAAAAAAAAAAAAAAAAAAAAAAAAAAAAAAAAAAAAAAAAAAAAAAAAAAAAAAAAAAAAAAAAAAAAAAAAAAAAAAAAAAAAAAAAAAAAAAAAAAAAAAAAAAAAAAAAAAAAAAAAAAAAAAAAAAAAAAAAAAAAAAAAAAAAAAAAAAAAAAAAAAAAAAAAAAAAAAAAAAAAAAAAAAAAAAAAAAAAAAAAAAAAAAAAAAAAAAAAAAAAAAAAAAAAAAA=</value>
													</parameter>
													<parameter authoringApp="PremierePro">
														<parameterid>2</parameterid>
														<name>Transform</name>
														<IsTimeVarying>false</IsTimeVarying>
														<ParameterControlType>11</ParameterControlType>
														<LowerBound>false</LowerBound>
														<UpperBound>false</UpperBound>
														<value>-91445760000000000,false,0,0,0,0,0,0</value>
													</parameter>
													<parameter authoringApp="PremierePro">
														<parameterid>3</parameterid>
														<name>Position</name>
														<IsTimeVarying>false</IsTimeVarying>
														<value>-91445760000000000,0.36944580078125:0.86468505859375,0,0,0,0,0,0,5,4,0,0,0,0</value>
													</parameter>
													<parameter authoringApp="PremierePro">
														<parameterid>4</parameterid>
														<name>Scale</name>
														<IsTimeVarying>false</IsTimeVarying>
														<ParameterControlType>2</ParameterControlType>
														<LowerBound>0</LowerBound>
														<UpperBound>4000</UpperBound>
														<value>-91445760000000000,100.,0,0,0,0,0,0</value>
													</parameter>
													<parameter authoringApp="PremierePro">
														<parameterid>5</parameterid>
														<name>Horizontal Scale</name>
														<IsTimeVarying>false</IsTimeVarying>
														<ParameterControlType>2</ParameterControlType>
														<LowerBound>0</LowerBound>
														<UpperBound>4000</UpperBound>
														<value>-91445760000000000,100.,0,0,0,0,0,0</value>
													</parameter>
													<parameter authoringApp="PremierePro">
														<parameterid>6</parameterid>
														<name> </name>
														<IsTimeVarying>false</IsTimeVarying>
														<ParameterControlType>4</ParameterControlType>
														<LowerBound>false</LowerBound>
														<UpperBound>true</UpperBound>
														<value>-91445760000000000,true,0,0,0,0,0,0</value>
													</parameter>
													<parameter authoringApp="PremierePro">
														<parameterid>7</parameterid>
														<name>Rotation</name>
														<IsTimeVarying>false</IsTimeVarying>
														<ParameterControlType>3</ParameterControlType>
														<LowerBound>-32768</LowerBound>
														<UpperBound>32767</UpperBound>
														<value>-91445760000000000,0.,0,0,0,0,0,0</value>
													</parameter>
													<parameter authoringApp="PremierePro">
														<parameterid>8</parameterid>
														<name>Opacity</name>
														<IsTimeVarying>false</IsTimeVarying>
														<ParameterControlType>2</ParameterControlType>
														<LowerBound>0</LowerBound>
														<UpperBound>100</UpperBound>
														<value>-91445760000000000,100.,0,0,0,0,0,0</value>
													</parameter>
													<parameter authoringApp="PremierePro">
														<parameterid>9</parameterid>
														<name>Anchor Point</name>
														<IsTimeVarying>false</IsTimeVarying>
														<value>-91445760000000000,0:0,0,0,0,0,0,0,5,4,0,0,0,0</value>
													</parameter>
													<parameter authoringApp="PremierePro">
														<parameterid>10</parameterid>
														<name></name>
														<IsTimeVarying>false</IsTimeVarying>
														<ParameterControlType>12</ParameterControlType>
														<LowerBound>false</LowerBound>
														<UpperBound>false</UpperBound>
														<value>-91445760000000000,false,0,0,0,0,0,0</value>
													</parameter>
													<parameter authoringApp="PremierePro">
														<parameterid>11</parameterid>
														<name> </name>
														<IsTimeVarying>false</IsTimeVarying>
														<ParameterControlType>8</ParameterControlType>
														<LowerBound>0</LowerBound>
														<UpperBound>32768</UpperBound>
														<value>-91445760000000000,0.,0,0,0,0,0,0</value>
													</parameter>
													<parameter authoringApp="PremierePro">
														<parameterid>12</parameterid>
														<name> </name>
														<IsTimeVarying>false</IsTimeVarying>
														<ParameterControlType>8</ParameterControlType>
														<LowerBound>0</LowerBound>
														<UpperBound>32768</UpperBound>
														<value>-91445760000000000,0.,0,0,0,0,0,0</value>
													</parameter>
													<parameter authoringApp="PremierePro">
														<parameterid>13</parameterid>
														<name>start</name>
														<IsTimeVarying>false</IsTimeVarying>
														<ParameterControlType>8</ParameterControlType>
														<LowerBound>-100</LowerBound>
														<UpperBound>1000000000</UpperBound>
														<value>-91445760000000000,30.,0,0,0,0,0,0</value>
													</parameter>
													<parameter authoringApp="PremierePro">
														<parameterid>14</parameterid>
														<name>end</name>
														<IsTimeVarying>false</IsTimeVarying>
														<ParameterControlType>8</ParameterControlType>
														<LowerBound>-100</LowerBound>
														<UpperBound>1000000000</UpperBound>
														<value>-91445760000000000,30.,0,0,0,0,0,0</value>
													</parameter>
													<parameter authoringApp="PremierePro">
														<parameterid>15</parameterid>
														<name> </name>
														<IsTimeVarying>false</IsTimeVarying>
														<ParameterControlType>4</ParameterControlType>
														<LowerBound>false</LowerBound>
														<UpperBound>true</UpperBound>
														<value>-91445760000000000,false,0,0,0,0,0,0</value>
													</parameter>
													<parameter authoringApp="PremierePro">
														<parameterid>16</parameterid>
														<name> </name>
														<IsTimeVarying>false</IsTimeVarying>
														<ParameterControlType>4</ParameterControlType>
														<LowerBound>false</LowerBound>
														<UpperBound>true</UpperBound>
														<value>-91445760000000000,false,0,0,0,0,0,0</value>
													</parameter>
													<parameter authoringApp="PremierePro">
														<parameterid>17</parameterid>
														<name> </name>
														<IsTimeVarying>false</IsTimeVarying>
														<ParameterControlType>4</ParameterControlType>
														<LowerBound>false</LowerBound>
														<UpperBound>true</UpperBound>
														<value>-91445760000000000,false,0,0,0,0,0,0</value>
													</parameter>
													<parameter authoringApp="PremierePro">
														<parameterid>18</parameterid>
														<name> </name>
														<IsTimeVarying>false</IsTimeVarying>
														<ParameterControlType>4</ParameterControlType>
														<LowerBound>false</LowerBound>
														<UpperBound>true</UpperBound>
														<value>-91445760000000000,false,0,0,0,0,0,0</value>
													</parameter>
													<parameter authoringApp="PremierePro">
														<parameterid>19</parameterid>
														<name>Parent Width</name>
														<IsTimeVarying>false</IsTimeVarying>
														<ParameterControlType>2</ParameterControlType>
														<LowerBound>0</LowerBound>
														<UpperBound>20000</UpperBound>
														<value>-91445760000000000,0.,0,0,0,0,0,0</value>
													</parameter>
													<parameter authoringApp="PremierePro">
														<parameterid>20</parameterid>
														<name>Parent Height</name>
														<IsTimeVarying>false</IsTimeVarying>
														<ParameterControlType>2</ParameterControlType>
														<LowerBound>0</LowerBound>
														<UpperBound>20000</UpperBound>
														<value>-91445760000000000,0.,0,0,0,0,0,0</value>
													</parameter>
													<parameter authoringApp="PremierePro">
														<parameterid>21</parameterid>
														<name>Parent Rotation</name>
														<IsTimeVarying>false</IsTimeVarying>
														<ParameterControlType>3</ParameterControlType>
														<LowerBound>-32768</LowerBound>
														<UpperBound>32767</UpperBound>
														<value>-91445760000000000,0.,0,0,0,0,0,0</value>
													</parameter>
												</effect>
											</filter>
											<logginginfo>
												<description></description>
												<scene></scene>
												<shottake></shottake>
												<lognote></lognote>
												<good></good>
												<originalvideofilename></originalvideofilename>
												<originalaudiofilename></originalaudiofilename>
											</logginginfo>
											<colorinfo>
												<lut></lut>
												<lut1></lut1>
												<asc_sop></asc_sop>
												<asc_sat></asc_sat>
												<lut2></lut2>
											</colorinfo>
										</clipitem>
										<transitionitem>
											<start>328</start>
											<end>350</end>
											<alignment>end-black</alignment>
											<cutPointTicks>223534080000</cutPointTicks>
											<rate>
												<timebase>25</timebase>
												<ntsc>FALSE</ntsc>
											</rate>
											<effect>
												<name>Edge Wipe</name>
												<effectid>Edge Wipe</effectid>
												<effectcategory>Wipe</effectcategory>
												<effecttype>transition</effecttype>
												<mediatype>video</mediatype>
												<wipecode>2</wipecode>
												<wipeaccuracy>100</wipeaccuracy>
												<startratio>0</startratio>
												<endratio>1</endratio>
												<reverse>FALSE</reverse>
												<parameter authoringApp="PremierePro">
													<parameterid>directionofwipe</parameterid>
													<name>Angle</name>
													<valuemin>-360</valuemin>
													<valuemax>360</valuemax>
													<value>90</value>
												</parameter>
											</effect>
										</transitionitem>
										<enabled>TRUE</enabled>
										<locked>FALSE</locked>
									</track>
								</video>
								<audio>
									<numOutputChannels>2</numOutputChannels>
									<format>
										<samplecharacteristics>
											<depth>16</depth>
											<samplerate>48000</samplerate>
										</samplecharacteristics>
									</format>
									<outputs>
										<group>
											<index>1</index>
											<numchannels>1</numchannels>
											<downmix>0</downmix>
											<channel>
												<index>1</index>
											</channel>
										</group>
										<group>
											<index>2</index>
											<numchannels>1</numchannels>
											<downmix>0</downmix>
											<channel>
												<index>2</index>
											</channel>
										</group>
									</outputs>
									<track TL.SQTrackAudioKeyframeStyle="0" TL.SQTrackShy="0" TL.SQTrackExpandedHeight="25" TL.SQTrackExpanded="0" MZ.TrackTargeted="1" PannerCurrentValue="0.5" PannerStartKeyframe="-91445760000000000,0.5,0,0,0,0,0,0" PannerName="Balance" currentExplodedTrackIndex="0" totalExplodedTrackCount="2" premiereTrackType="Stereo">
										<enabled>TRUE</enabled>
										<locked>FALSE</locked>
										<outputchannelindex>1</outputchannelindex>
									</track>
									<track TL.SQTrackAudioKeyframeStyle="0" TL.SQTrackShy="0" TL.SQTrackExpandedHeight="25" TL.SQTrackExpanded="0" MZ.TrackTargeted="1" PannerCurrentValue="0.5" PannerStartKeyframe="-91445760000000000,0.5,0,0,0,0,0,0" PannerName="Balance" currentExplodedTrackIndex="1" totalExplodedTrackCount="2" premiereTrackType="Stereo">
										<enabled>TRUE</enabled>
										<locked>FALSE</locked>
										<outputchannelindex>2</outputchannelindex>
									</track>
								</audio>
							</media>
							<timecode>
								<rate>
									<timebase>25</timebase>
									<ntsc>FALSE</ntsc>
								</rate>
								<string>00:00:00:00</string>
								<frame>0</frame>
								<displayformat>NDF</displayformat>
							</timecode>
								<marker>
									<comment></comment>
									<name></name>
									<in>125</in>
									<out>-1</out>
									<pproColor>4280578025</pproColor>
								</marker>
							<logginginfo>
								<description></description>
								<scene></scene>
								<shottake></shottake>
								<lognote></lognote>
								<good></good>
								<originalvideofilename></originalvideofilename>
								<originalaudiofilename></originalaudiofilename>
							</logginginfo>
						</sequence>
							<marker>
								<comment></comment>
								<name></name>
								<in>125</in>
								<out>-1</out>
								<pproColor>4280578025</pproColor>
							</marker>
						<labels>
							<label2>Forest</label2>
						</labels>
					</clipitem>
					<clipitem id="clipitem-1299">
						<masterclipid>masterclip-578</masterclipid>
						<name>1</name>
						<enabled>TRUE</enabled>
						<duration>475</duration>
						<rate>
							<timebase>25</timebase>
							<ntsc>FALSE</ntsc>
						</rate>
						<start>64986</start>
						<end>65337</end>
						<in>124</in>
						<out>475</out>
						<pproTicksIn>1259919360000</pproTicksIn>
						<pproTicksOut>4826304000000</pproTicksOut>
						<sequence id="sequence-107"/>
							<marker>
								<comment></comment>
								<name></name>
								<in>125</in>
								<out>-1</out>
								<pproColor>4280578025</pproColor>
							</marker>
						<labels>
							<label2>Forest</label2>
						</labels>
					</clipitem>
					<transitionitem>
						<start>65941</start>
						<end>65954</end>
						<alignment>start-black</alignment>
						<cutPointTicks>0</cutPointTicks>
						<rate>
							<timebase>25</timebase>
							<ntsc>FALSE</ntsc>
						</rate>
						<effect>
							<name>Cross Dissolve</name>
							<effectid>Cross Dissolve</effectid>
							<effectcategory>Dissolve</effectcategory>
							<effecttype>transition</effecttype>
							<mediatype>video</mediatype>
							<wipecode>0</wipecode>
							<wipeaccuracy>100</wipeaccuracy>
							<startratio>0</startratio>
							<endratio>1</endratio>
							<reverse>FALSE</reverse>
						</effect>
					</transitionitem>
					<clipitem id="clipitem-1300">
						<masterclipid>masterclip-583</masterclipid>
						<name>Graphic</name>
						<enabled>TRUE</enabled>
						<duration>1080000</duration>
						<rate>
							<timebase>25</timebase>
							<ntsc>FALSE</ntsc>
						</rate>
						<start>-1</start>
						<end>66000</end>
						<in>90066</in>
						<out>90125</out>
						<pproTicksIn>915128202240000</pproTicksIn>
						<pproTicksOut>915727680000000</pproTicksOut>
						<alphatype>straight</alphatype>
						<pixelaspectratio>PAL-601</pixelaspectratio>
						<anamorphic>TRUE</anamorphic>
						<file id="file-483">
							<name>Graphic</name>
							<mediaSource>GraphicAndType</mediaSource>
							<rate>
								<timebase>30</timebase>
								<ntsc>TRUE</ntsc>
							</rate>
							<timecode>
								<rate>
									<timebase>30</timebase>
									<ntsc>TRUE</ntsc>
								</rate>
								<string>00;00;00;00</string>
								<frame>0</frame>
								<displayformat>DF</displayformat>
							</timecode>
							<media>
								<video>
									<samplecharacteristics>
										<rate>
											<timebase>30</timebase>
											<ntsc>TRUE</ntsc>
										</rate>
										<width>720</width>
										<height>576</height>
										<anamorphic>TRUE</anamorphic>
										<pixelaspectratio>PAL-601</pixelaspectratio>
										<fielddominance>none</fielddominance>
									</samplecharacteristics>
								</video>
							</media>
						</file>
						<filter>
							<effect>
								<name>©  ООО «Муз ТВ Операционная компания»</name>
								<effectid>GraphicAndType</effectid>
								<effectcategory>graphic</effectcategory>
								<effecttype>filter</effecttype>
								<mediatype>video</mediatype>
								<pproBypass>false</pproBypass>
								<pproExpanded>true</pproExpanded>
								<parameter authoringApp="PremierePro">
									<parameterid>1</parameterid>
									<name>Source Text</name>
									<hash>23fe30ae-95d8-0f51-d4ad-465000000220</hash>
									<value>CAIAAAAAAABEMyIRGAAAAAAAAAAAAA4AGAAEABcADAAQAAsADgAAAEAAAAAAAAABDAAAABQAAAAAAAABAAAAAAgAGAAEAAwACAAAACC5nj4BLdw/n7QkpQAAA4kAAAAACAAMAAgABAAIAAAAGAAAACwAAAD4/////P///wQABAAEAAAAAQAAAAQAAAALAAAASGVsaW9zLUJvbGQAAQAAAAwAAAAIAAwABAAIAAgAAAAYAQAANAAAADAAGgAAABQAEAAAAAwAAAAIAAAAAAAAAAAAAAAAAAAAAAAAAAAAAAAAAAAAAAAEADAAAAAgAAAAmpmZP7gAAADIAAAAAACQQQAACgAMAAAACAAEAAoAAAAIAAAAPAAAAAIAAAAsAAAAEAAAAAAACgAOAAAABAAIAAoAAAAAAIA/AAAAPwAACgAIAAAAAAAEAAoAAAAAAAA/AgAAADgAAAAQAAAAAAAKABAABAAIAAwACgAAABAAAAAAAIA/AAAAPwQABgAEAAAAAAAKAAwABAAAAAgACgAAAAgAAAAAAAA/9v///wAAAOXl5QoACgAHAAgACQAKAAAAAAAA5eXlCgAIAAUABgAHAAoAAAAA3d3dRAAAAMKpICDQntCe0J4gwqvQnNGD0Lcg0KLQkiDQntC/0LXRgNCw0YbQuNC+0L3QvdCw0Y8g0LrQvtC80L/QsNC90LjRj8K7AAAAAA==</value>
								</parameter>
								<parameter authoringApp="PremierePro">
									<parameterid>2</parameterid>
									<name>Transform</name>
									<IsTimeVarying>false</IsTimeVarying>
									<ParameterControlType>11</ParameterControlType>
									<LowerBound>false</LowerBound>
									<UpperBound>false</UpperBound>
									<value>-91445760000000000,false,0,0,0,0,0,0</value>
								</parameter>
								<parameter authoringApp="PremierePro">
									<parameterid>3</parameterid>
									<name>Position</name>
									<IsTimeVarying>false</IsTimeVarying>
									<value>-91445760000000000,0.53887939453125:0.901458740234375,0,0,0,0,0,0,5,4,0,0,0,0</value>
								</parameter>
								<parameter authoringApp="PremierePro">
									<parameterid>4</parameterid>
									<name>Scale</name>
									<IsTimeVarying>false</IsTimeVarying>
									<ParameterControlType>2</ParameterControlType>
									<LowerBound>0</LowerBound>
									<UpperBound>4000</UpperBound>
									<value>-91445760000000000,100.,0,0,0,0,0,0</value>
								</parameter>
								<parameter authoringApp="PremierePro">
									<parameterid>5</parameterid>
									<name>Horizontal Scale</name>
									<IsTimeVarying>false</IsTimeVarying>
									<ParameterControlType>2</ParameterControlType>
									<LowerBound>0</LowerBound>
									<UpperBound>4000</UpperBound>
									<value>-91445760000000000,100.,0,0,0,0,0,0</value>
								</parameter>
								<parameter authoringApp="PremierePro">
									<parameterid>6</parameterid>
									<name> </name>
									<IsTimeVarying>false</IsTimeVarying>
									<ParameterControlType>4</ParameterControlType>
									<LowerBound>false</LowerBound>
									<UpperBound>true</UpperBound>
									<value>-91445760000000000,true,0,0,0,0,0,0</value>
								</parameter>
								<parameter authoringApp="PremierePro">
									<parameterid>7</parameterid>
									<name>Rotation</name>
									<IsTimeVarying>false</IsTimeVarying>
									<ParameterControlType>3</ParameterControlType>
									<LowerBound>-32768</LowerBound>
									<UpperBound>32767</UpperBound>
									<value>-91445760000000000,0.,0,0,0,0,0,0</value>
								</parameter>
								<parameter authoringApp="PremierePro">
									<parameterid>8</parameterid>
									<name>Opacity</name>
									<IsTimeVarying>false</IsTimeVarying>
									<ParameterControlType>2</ParameterControlType>
									<LowerBound>0</LowerBound>
									<UpperBound>100</UpperBound>
									<value>-91445760000000000,100.,0,0,0,0,0,0</value>
								</parameter>
								<parameter authoringApp="PremierePro">
									<parameterid>9</parameterid>
									<name>Anchor Point</name>
									<IsTimeVarying>false</IsTimeVarying>
									<value>-91445760000000000,0:0,0,0,0,0,0,0,5,4,0,0,0,0</value>
								</parameter>
								<parameter authoringApp="PremierePro">
									<parameterid>10</parameterid>
									<name></name>
									<IsTimeVarying>false</IsTimeVarying>
									<ParameterControlType>12</ParameterControlType>
									<LowerBound>false</LowerBound>
									<UpperBound>false</UpperBound>
									<value>-91445760000000000,false,0,0,0,0,0,0</value>
								</parameter>
								<parameter authoringApp="PremierePro">
									<parameterid>11</parameterid>
									<name> </name>
									<IsTimeVarying>false</IsTimeVarying>
									<ParameterControlType>8</ParameterControlType>
									<LowerBound>0</LowerBound>
									<UpperBound>32768</UpperBound>
									<value>-91445760000000000,0.,0,0,0,0,0,0</value>
								</parameter>
								<parameter authoringApp="PremierePro">
									<parameterid>12</parameterid>
									<name> </name>
									<IsTimeVarying>false</IsTimeVarying>
									<ParameterControlType>8</ParameterControlType>
									<LowerBound>0</LowerBound>
									<UpperBound>32768</UpperBound>
									<value>-91445760000000000,0.,0,0,0,0,0,0</value>
								</parameter>
								<parameter authoringApp="PremierePro">
									<parameterid>13</parameterid>
									<name>start</name>
									<IsTimeVarying>false</IsTimeVarying>
									<ParameterControlType>8</ParameterControlType>
									<LowerBound>-100</LowerBound>
									<UpperBound>1000000000</UpperBound>
									<value>-91445760000000000,-1.,0,0,0,0,0,0</value>
								</parameter>
								<parameter authoringApp="PremierePro">
									<parameterid>14</parameterid>
									<name>end</name>
									<IsTimeVarying>false</IsTimeVarying>
									<ParameterControlType>8</ParameterControlType>
									<LowerBound>-100</LowerBound>
									<UpperBound>1000000000</UpperBound>
									<value>-91445760000000000,-1.,0,0,0,0,0,0</value>
								</parameter>
								<parameter authoringApp="PremierePro">
									<parameterid>15</parameterid>
									<name> </name>
									<IsTimeVarying>false</IsTimeVarying>
									<ParameterControlType>4</ParameterControlType>
									<LowerBound>false</LowerBound>
									<UpperBound>true</UpperBound>
									<value>-91445760000000000,false,0,0,0,0,0,0</value>
								</parameter>
								<parameter authoringApp="PremierePro">
									<parameterid>16</parameterid>
									<name> </name>
									<IsTimeVarying>false</IsTimeVarying>
									<ParameterControlType>4</ParameterControlType>
									<LowerBound>false</LowerBound>
									<UpperBound>true</UpperBound>
									<value>-91445760000000000,false,0,0,0,0,0,0</value>
								</parameter>
								<parameter authoringApp="PremierePro">
									<parameterid>17</parameterid>
									<name> </name>
									<IsTimeVarying>false</IsTimeVarying>
									<ParameterControlType>4</ParameterControlType>
									<LowerBound>false</LowerBound>
									<UpperBound>true</UpperBound>
									<value>-91445760000000000,false,0,0,0,0,0,0</value>
								</parameter>
								<parameter authoringApp="PremierePro">
									<parameterid>18</parameterid>
									<name> </name>
									<IsTimeVarying>false</IsTimeVarying>
									<ParameterControlType>4</ParameterControlType>
									<LowerBound>false</LowerBound>
									<UpperBound>true</UpperBound>
									<value>-91445760000000000,false,0,0,0,0,0,0</value>
								</parameter>
								<parameter authoringApp="PremierePro">
									<parameterid>19</parameterid>
									<name>Parent Width</name>
									<IsTimeVarying>false</IsTimeVarying>
									<ParameterControlType>2</ParameterControlType>
									<LowerBound>0</LowerBound>
									<UpperBound>20000</UpperBound>
									<value>-91445760000000000,0.,0,0,0,0,0,0</value>
								</parameter>
								<parameter authoringApp="PremierePro">
									<parameterid>20</parameterid>
									<name>Parent Height</name>
									<IsTimeVarying>false</IsTimeVarying>
									<ParameterControlType>2</ParameterControlType>
									<LowerBound>0</LowerBound>
									<UpperBound>20000</UpperBound>
									<value>-91445760000000000,0.,0,0,0,0,0,0</value>
								</parameter>
								<parameter authoringApp="PremierePro">
									<parameterid>21</parameterid>
									<name>Parent Rotation</name>
									<IsTimeVarying>false</IsTimeVarying>
									<ParameterControlType>3</ParameterControlType>
									<LowerBound>-32768</LowerBound>
									<UpperBound>32767</UpperBound>
									<value>-91445760000000000,0.,0,0,0,0,0,0</value>
								</parameter>
							</effect>
						</filter>
						<logginginfo>
							<description></description>
							<scene></scene>
							<shottake></shottake>
							<lognote></lognote>
							<good></good>
							<originalvideofilename></originalvideofilename>
							<originalaudiofilename></originalaudiofilename>
						</logginginfo>
						<colorinfo>
							<lut></lut>
							<lut1></lut1>
							<asc_sop></asc_sop>
							<asc_sat></asc_sat>
							<lut2></lut2>
						</colorinfo>
						<labels>
							<label2>Rose</label2>
						</labels>
					</clipitem>
					<enabled>TRUE</enabled>
					<locked>FALSE</locked>
				</track>
				<track TL.SQTrackShy="0" TL.SQTrackExpandedHeight="25" TL.SQTrackExpanded="0" MZ.TrackTargeted="0">
					<clipitem id="clipitem-1301">
						<masterclipid>masterclip-584</masterclipid>
						<name>12</name>
						<enabled>TRUE</enabled>
						<duration>1125</duration>
						<rate>
							<timebase>25</timebase>
							<ntsc>FALSE</ntsc>
						</rate>
						<start>2236</start>
						<end>2611</end>
						<in>0</in>
						<out>375</out>
						<pproTicksIn>0</pproTicksIn>
						<pproTicksOut>3810240000000</pproTicksOut>
						<sequence id="sequence-108" TL.SQAudioVisibleBase="0" TL.SQVideoVisibleBase="0" TL.SQVisibleBaseTime="0" TL.SQAVDividerPosition="0.5" TL.SQHideShyTracks="0" TL.SQHeaderWidth="236" Monitor.ProgramZoomOut="11430720000000" Monitor.ProgramZoomIn="0" TL.SQTimePerPixel="0.049051667756702035" AM.TrackVScrollPosition="0" AM.TrackScrollPosition="0" MZ.EditLine="9175057920000" MZ.Sequence.PreviewFrameSizeHeight="576" MZ.Sequence.PreviewFrameSizeWidth="720" MZ.Sequence.AudioTimeDisplayFormat="200" MZ.Sequence.PreviewRenderingClassID="1061109567" MZ.Sequence.PreviewRenderingPresetCodec="1685480304" MZ.Sequence.PreviewRenderingPresetPath="EncoderPresets/SequencePreview/04be6e19-a018-4e0c-a9d6-0ab44c64752b/QuickTime DV PAL.epr" MZ.Sequence.PreviewUseMaxRenderQuality="false" MZ.Sequence.PreviewUseMaxBitDepth="false" MZ.Sequence.EditingModeGUID="04be6e19-a018-4e0c-a9d6-0ab44c64752b" MZ.Sequence.VideoTimeDisplayFormat="101" MZ.WorkOutPoint="11430720000000" MZ.WorkInPoint="0" MZ.ZeroPoint="0">
							<duration>1125</duration>
							<rate>
								<timebase>25</timebase>
								<ntsc>FALSE</ntsc>
							</rate>
							<name>RU_Nested</name>
							<media>
								<video>
									<format>
										<samplecharacteristics>
											<rate>
												<timebase>25</timebase>
												<ntsc>FALSE</ntsc>
											</rate>
											<codec>
												<name>Apple ProRes 422</name>
												<appspecificdata>
													<appname>Final Cut Pro</appname>
													<appmanufacturer>Apple Inc.</appmanufacturer>
													<appversion>7.0</appversion>
													<data>
														<qtcodec>
															<codecname>Apple ProRes 422</codecname>
															<codectypename>Apple ProRes 422</codectypename>
															<codectypecode>apcn</codectypecode>
															<codecvendorcode>appl</codecvendorcode>
															<spatialquality>1024</spatialquality>
															<temporalquality>0</temporalquality>
															<keyframerate>0</keyframerate>
															<datarate>0</datarate>
														</qtcodec>
													</data>
												</appspecificdata>
											</codec>
											<width>720</width>
											<height>576</height>
											<anamorphic>TRUE</anamorphic>
											<pixelaspectratio>PAL-601</pixelaspectratio>
											<fielddominance>lower</fielddominance>
											<colordepth>24</colordepth>
										</samplecharacteristics>
									</format>
									<track TL.SQTrackShy="0" TL.SQTrackExpandedHeight="25" TL.SQTrackExpanded="0" MZ.TrackTargeted="1">
										<clipitem id="clipitem-1302">
											<masterclipid>masterclip-585</masterclipid>
											<name>Plashka_Right_DV.mov</name>
											<enabled>TRUE</enabled>
											<duration>375</duration>
											<rate>
												<timebase>25</timebase>
												<ntsc>FALSE</ntsc>
											</rate>
											<start>0</start>
											<end>375</end>
											<in>0</in>
											<out>375</out>
											<pproTicksIn>0</pproTicksIn>
											<pproTicksOut>3810240000000</pproTicksOut>
											<alphatype>straight</alphatype>
											<pixelaspectratio>PAL-601</pixelaspectratio>
											<anamorphic>TRUE</anamorphic>
											<file id="file-484">
												<name>Plashka_Right_DV.mov</name>
												<pathurl>file://localhost/Volumes/1Tb/_MUZ_TV/graphika/RU-21/MOD/Plashka_Right_DV.mov</pathurl>
												<rate>
													<timebase>25</timebase>
													<ntsc>FALSE</ntsc>
												</rate>
												<duration>375</duration>
												<timecode>
													<rate>
														<timebase>25</timebase>
														<ntsc>FALSE</ntsc>
													</rate>
													<string>00:00:15:10</string>
													<frame>385</frame>
													<displayformat>NDF</displayformat>
												</timecode>
												<media>
													<video>
														<samplecharacteristics>
															<rate>
																<timebase>25</timebase>
																<ntsc>FALSE</ntsc>
															</rate>
															<width>720</width>
															<height>576</height>
															<anamorphic>TRUE</anamorphic>
															<pixelaspectratio>PAL-601</pixelaspectratio>
															<fielddominance>lower</fielddominance>
														</samplecharacteristics>
													</video>
												</media>
											</file>
											<filter>
												<effect>
													<name>Basic Motion</name>
													<effectid>basic</effectid>
													<effectcategory>motion</effectcategory>
													<effecttype>motion</effecttype>
													<mediatype>video</mediatype>
													<pproBypass>false</pproBypass>
													<parameter authoringApp="PremierePro">
														<parameterid>scale</parameterid>
														<name>Scale</name>
														<valuemin>0</valuemin>
														<valuemax>1000</valuemax>
														<value>100</value>
													</parameter>
													<parameter authoringApp="PremierePro">
														<parameterid>rotation</parameterid>
														<name>Rotation</name>
														<valuemin>-8640</valuemin>
														<valuemax>8640</valuemax>
														<value>0</value>
													</parameter>
													<parameter authoringApp="PremierePro">
														<parameterid>center</parameterid>
														<name>Center</name>
														<value>
															<horiz>-5.55112e-17</horiz>
															<vert>-1.11022e-16</vert>
														</value>
													</parameter>
													<parameter authoringApp="PremierePro">
														<parameterid>centerOffset</parameterid>
														<name>Anchor Point</name>
														<value>
															<horiz>0.402314</horiz>
															<vert>0.41875</vert>
														</value>
													</parameter>
													<parameter authoringApp="PremierePro">
														<parameterid>antiflicker</parameterid>
														<name>Anti-flicker Filter</name>
														<valuemin>0.0</valuemin>
														<valuemax>1.0</valuemax>
														<value>0</value>
													</parameter>
												</effect>
											</filter>
											<filter>
												<effect>
													<name>Distort</name>
													<effectid>deformation</effectid>
													<effectcategory>motion</effectcategory>
													<effecttype>motion</effecttype>
													<mediatype>video</mediatype>
													<parameter authoringApp="PremierePro">
														<parameterid>aspect</parameterid>
														<name>Aspect</name>
														<valuemin>-10000</valuemin>
														<valuemax>10000</valuemax>
														<value>26.5823</value>
													</parameter>
												</effect>
											</filter>
											<logginginfo>
												<description></description>
												<scene></scene>
												<shottake></shottake>
												<lognote></lognote>
												<good></good>
												<originalvideofilename></originalvideofilename>
												<originalaudiofilename></originalaudiofilename>
											</logginginfo>
											<colorinfo>
												<lut></lut>
												<lut1></lut1>
												<asc_sop></asc_sop>
												<asc_sat></asc_sat>
												<lut2></lut2>
											</colorinfo>
											<labels>
												<label2>Violet</label2>
											</labels>
										</clipitem>
										<clipitem id="clipitem-1303">
											<masterclipid>masterclip-585</masterclipid>
											<name>Plashka_Right_DV.mov</name>
											<enabled>TRUE</enabled>
											<duration>375</duration>
											<rate>
												<timebase>25</timebase>
												<ntsc>FALSE</ntsc>
											</rate>
											<start>375</start>
											<end>750</end>
											<in>0</in>
											<out>375</out>
											<pproTicksIn>0</pproTicksIn>
											<pproTicksOut>3810240000000</pproTicksOut>
											<alphatype>straight</alphatype>
											<file id="file-484"/>
											<filter>
												<effect>
													<name>Basic Motion</name>
													<effectid>basic</effectid>
													<effectcategory>motion</effectcategory>
													<effecttype>motion</effecttype>
													<mediatype>video</mediatype>
													<pproBypass>false</pproBypass>
													<parameter authoringApp="PremierePro">
														<parameterid>scale</parameterid>
														<name>Scale</name>
														<valuemin>0</valuemin>
														<valuemax>1000</valuemax>
														<value>100</value>
													</parameter>
													<parameter authoringApp="PremierePro">
														<parameterid>rotation</parameterid>
														<name>Rotation</name>
														<valuemin>-8640</valuemin>
														<valuemax>8640</valuemax>
														<value>0</value>
													</parameter>
													<parameter authoringApp="PremierePro">
														<parameterid>center</parameterid>
														<name>Center</name>
														<value>
															<horiz>-5.55112e-17</horiz>
															<vert>-1.11022e-16</vert>
														</value>
													</parameter>
													<parameter authoringApp="PremierePro">
														<parameterid>centerOffset</parameterid>
														<name>Anchor Point</name>
														<value>
															<horiz>0.402314</horiz>
															<vert>0.41875</vert>
														</value>
													</parameter>
													<parameter authoringApp="PremierePro">
														<parameterid>antiflicker</parameterid>
														<name>Anti-flicker Filter</name>
														<valuemin>0.0</valuemin>
														<valuemax>1.0</valuemax>
														<value>0</value>
													</parameter>
												</effect>
											</filter>
											<filter>
												<effect>
													<name>Distort</name>
													<effectid>deformation</effectid>
													<effectcategory>motion</effectcategory>
													<effecttype>motion</effecttype>
													<mediatype>video</mediatype>
													<parameter authoringApp="PremierePro">
														<parameterid>aspect</parameterid>
														<name>Aspect</name>
														<valuemin>-10000</valuemin>
														<valuemax>10000</valuemax>
														<value>26.5823</value>
													</parameter>
												</effect>
											</filter>
											<logginginfo>
												<description></description>
												<scene></scene>
												<shottake></shottake>
												<lognote></lognote>
												<good></good>
												<originalvideofilename></originalvideofilename>
												<originalaudiofilename></originalaudiofilename>
											</logginginfo>
											<colorinfo>
												<lut></lut>
												<lut1></lut1>
												<asc_sop></asc_sop>
												<asc_sat></asc_sat>
												<lut2></lut2>
											</colorinfo>
											<labels>
												<label2>Violet</label2>
											</labels>
										</clipitem>
										<clipitem id="clipitem-1304">
											<masterclipid>masterclip-585</masterclipid>
											<name>Plashka_Right_DV.mov</name>
											<enabled>TRUE</enabled>
											<duration>375</duration>
											<rate>
												<timebase>25</timebase>
												<ntsc>FALSE</ntsc>
											</rate>
											<start>750</start>
											<end>1125</end>
											<in>0</in>
											<out>375</out>
											<pproTicksIn>0</pproTicksIn>
											<pproTicksOut>3810240000000</pproTicksOut>
											<alphatype>straight</alphatype>
											<file id="file-484"/>
											<filter>
												<effect>
													<name>Basic Motion</name>
													<effectid>basic</effectid>
													<effectcategory>motion</effectcategory>
													<effecttype>motion</effecttype>
													<mediatype>video</mediatype>
													<pproBypass>false</pproBypass>
													<parameter authoringApp="PremierePro">
														<parameterid>scale</parameterid>
														<name>Scale</name>
														<valuemin>0</valuemin>
														<valuemax>1000</valuemax>
														<value>100</value>
													</parameter>
													<parameter authoringApp="PremierePro">
														<parameterid>rotation</parameterid>
														<name>Rotation</name>
														<valuemin>-8640</valuemin>
														<valuemax>8640</valuemax>
														<value>0</value>
													</parameter>
													<parameter authoringApp="PremierePro">
														<parameterid>center</parameterid>
														<name>Center</name>
														<value>
															<horiz>-5.55112e-17</horiz>
															<vert>-1.11022e-16</vert>
														</value>
													</parameter>
													<parameter authoringApp="PremierePro">
														<parameterid>centerOffset</parameterid>
														<name>Anchor Point</name>
														<value>
															<horiz>0.402314</horiz>
															<vert>0.41875</vert>
														</value>
													</parameter>
													<parameter authoringApp="PremierePro">
														<parameterid>antiflicker</parameterid>
														<name>Anti-flicker Filter</name>
														<valuemin>0.0</valuemin>
														<valuemax>1.0</valuemax>
														<value>0</value>
													</parameter>
												</effect>
											</filter>
											<filter>
												<effect>
													<name>Distort</name>
													<effectid>deformation</effectid>
													<effectcategory>motion</effectcategory>
													<effecttype>motion</effecttype>
													<mediatype>video</mediatype>
													<parameter authoringApp="PremierePro">
														<parameterid>aspect</parameterid>
														<name>Aspect</name>
														<valuemin>-10000</valuemin>
														<valuemax>10000</valuemax>
														<value>5.26316</value>
													</parameter>
												</effect>
											</filter>
											<logginginfo>
												<description></description>
												<scene></scene>
												<shottake></shottake>
												<lognote></lognote>
												<good></good>
												<originalvideofilename></originalvideofilename>
												<originalaudiofilename></originalaudiofilename>
											</logginginfo>
											<colorinfo>
												<lut></lut>
												<lut1></lut1>
												<asc_sop></asc_sop>
												<asc_sat></asc_sat>
												<lut2></lut2>
											</colorinfo>
											<labels>
												<label2>Violet</label2>
											</labels>
										</clipitem>
										<enabled>TRUE</enabled>
										<locked>FALSE</locked>
									</track>
									<track TL.SQTrackShy="0" TL.SQTrackExpandedHeight="25" TL.SQTrackExpanded="0" MZ.TrackTargeted="0">
										<transitionitem>
											<start>6</start>
											<end>35</end>
											<alignment>start-black</alignment>
											<cutPointTicks>0</cutPointTicks>
											<rate>
												<timebase>25</timebase>
												<ntsc>FALSE</ntsc>
											</rate>
											<effect>
												<name>Edge Wipe</name>
												<effectid>Edge Wipe</effectid>
												<effectcategory>Wipe</effectcategory>
												<effecttype>transition</effecttype>
												<mediatype>video</mediatype>
												<wipecode>2</wipecode>
												<wipeaccuracy>100</wipeaccuracy>
												<startratio>0</startratio>
												<endratio>1</endratio>
												<reverse>FALSE</reverse>
												<parameter authoringApp="PremierePro">
													<parameterid>directionofwipe</parameterid>
													<name>Angle</name>
													<valuemin>-360</valuemin>
													<valuemax>360</valuemax>
													<value>270</value>
												</parameter>
											</effect>
										</transitionitem>
										<clipitem id="clipitem-1305">
											<masterclipid>masterclip-586</masterclipid>
											<name>12_1.png</name>
											<enabled>TRUE</enabled>
											<duration>1080000</duration>
											<rate>
												<timebase>25</timebase>
												<ntsc>FALSE</ntsc>
											</rate>
											<start>-1</start>
											<end>-1</end>
											<in>90006</in>
											<out>90369</out>
											<pproTicksIn>914518563840000</pproTicksIn>
											<pproTicksOut>918206876160000</pproTicksOut>
											<alphatype>straight</alphatype>
											<pixelaspectratio>square</pixelaspectratio>
											<anamorphic>FALSE</anamorphic>
											<file id="file-485">
												<name>12_1.png</name>
												<pathurl>file://localhost/_MUZ_TV/project_AP/RU/_TITLE/468/PNG/12_1.png</pathurl>
												<rate>
													<timebase>30</timebase>
													<ntsc>TRUE</ntsc>
												</rate>
												<timecode>
													<rate>
														<timebase>30</timebase>
														<ntsc>TRUE</ntsc>
													</rate>
													<string>00;00;00;00</string>
													<frame>0</frame>
													<displayformat>DF</displayformat>
												</timecode>
												<media>
													<video>
														<samplecharacteristics>
															<rate>
																<timebase>30</timebase>
																<ntsc>TRUE</ntsc>
															</rate>
															<width>1920</width>
															<height>1080</height>
															<anamorphic>FALSE</anamorphic>
															<pixelaspectratio>square</pixelaspectratio>
															<fielddominance>none</fielddominance>
														</samplecharacteristics>
													</video>
												</media>
											</file>
											<filter>
												<effect>
													<name>Basic Motion</name>
													<effectid>basic</effectid>
													<effectcategory>motion</effectcategory>
													<effecttype>motion</effecttype>
													<mediatype>video</mediatype>
													<pproBypass>false</pproBypass>
													<parameter authoringApp="PremierePro">
														<parameterid>scale</parameterid>
														<name>Scale</name>
														<valuemin>0</valuemin>
														<valuemax>1000</valuemax>
														<value>53.3333</value>
													</parameter>
													<parameter authoringApp="PremierePro">
														<parameterid>rotation</parameterid>
														<name>Rotation</name>
														<valuemin>-8640</valuemin>
														<valuemax>8640</valuemax>
														<value>0</value>
													</parameter>
													<parameter authoringApp="PremierePro">
														<parameterid>center</parameterid>
														<name>Center</name>
														<value>
															<horiz>0</horiz>
															<vert>0</vert>
														</value>
													</parameter>
													<parameter authoringApp="PremierePro">
														<parameterid>centerOffset</parameterid>
														<name>Anchor Point</name>
														<value>
															<horiz>0</horiz>
															<vert>0</vert>
														</value>
													</parameter>
													<parameter authoringApp="PremierePro">
														<parameterid>antiflicker</parameterid>
														<name>Anti-flicker Filter</name>
														<valuemin>0.0</valuemin>
														<valuemax>1.0</valuemax>
														<value>0</value>
													</parameter>
												</effect>
											</filter>
											<logginginfo>
												<description></description>
												<scene></scene>
												<shottake></shottake>
												<lognote></lognote>
												<good></good>
												<originalvideofilename></originalvideofilename>
												<originalaudiofilename></originalaudiofilename>
											</logginginfo>
											<colorinfo>
												<lut></lut>
												<lut1></lut1>
												<asc_sop></asc_sop>
												<asc_sat></asc_sat>
												<lut2></lut2>
											</colorinfo>
											<labels>
												<label2>Lavender</label2>
											</labels>
										</clipitem>
										<transitionitem>
											<start>344</start>
											<end>369</end>
											<alignment>end-black</alignment>
											<cutPointTicks>254016000000</cutPointTicks>
											<rate>
												<timebase>25</timebase>
												<ntsc>FALSE</ntsc>
											</rate>
											<effect>
												<name>Edge Wipe</name>
												<effectid>Edge Wipe</effectid>
												<effectcategory>Wipe</effectcategory>
												<effecttype>transition</effecttype>
												<mediatype>video</mediatype>
												<wipecode>2</wipecode>
												<wipeaccuracy>100</wipeaccuracy>
												<startratio>0</startratio>
												<endratio>1</endratio>
												<reverse>FALSE</reverse>
												<parameter authoringApp="PremierePro">
													<parameterid>directionofwipe</parameterid>
													<name>Angle</name>
													<valuemin>-360</valuemin>
													<valuemax>360</valuemax>
													<value>90</value>
												</parameter>
											</effect>
										</transitionitem>
										<transitionitem>
											<start>381</start>
											<end>410</end>
											<alignment>start-black</alignment>
											<cutPointTicks>0</cutPointTicks>
											<rate>
												<timebase>25</timebase>
												<ntsc>FALSE</ntsc>
											</rate>
											<effect>
												<name>Edge Wipe</name>
												<effectid>Edge Wipe</effectid>
												<effectcategory>Wipe</effectcategory>
												<effecttype>transition</effecttype>
												<mediatype>video</mediatype>
												<wipecode>2</wipecode>
												<wipeaccuracy>100</wipeaccuracy>
												<startratio>0</startratio>
												<endratio>1</endratio>
												<reverse>FALSE</reverse>
												<parameter authoringApp="PremierePro">
													<parameterid>directionofwipe</parameterid>
													<name>Angle</name>
													<valuemin>-360</valuemin>
													<valuemax>360</valuemax>
													<value>270</value>
												</parameter>
											</effect>
										</transitionitem>
										<clipitem id="clipitem-1306">
											<masterclipid>masterclip-587</masterclipid>
											<name>12_2.png</name>
											<enabled>TRUE</enabled>
											<duration>1080000</duration>
											<rate>
												<timebase>25</timebase>
												<ntsc>FALSE</ntsc>
											</rate>
											<start>-1</start>
											<end>-1</end>
											<in>90011</in>
											<out>90374</out>
											<pproTicksIn>914569367040000</pproTicksIn>
											<pproTicksOut>918257679360000</pproTicksOut>
											<alphatype>straight</alphatype>
											<pixelaspectratio>square</pixelaspectratio>
											<anamorphic>FALSE</anamorphic>
											<file id="file-486">
												<name>12_2.png</name>
												<pathurl>file://localhost/_MUZ_TV/project_AP/RU/_TITLE/468/PNG/12_2.png</pathurl>
												<rate>
													<timebase>30</timebase>
													<ntsc>TRUE</ntsc>
												</rate>
												<timecode>
													<rate>
														<timebase>30</timebase>
														<ntsc>TRUE</ntsc>
													</rate>
													<string>00;00;00;00</string>
													<frame>0</frame>
													<displayformat>DF</displayformat>
												</timecode>
												<media>
													<video>
														<samplecharacteristics>
															<rate>
																<timebase>30</timebase>
																<ntsc>TRUE</ntsc>
															</rate>
															<width>1920</width>
															<height>1080</height>
															<anamorphic>FALSE</anamorphic>
															<pixelaspectratio>square</pixelaspectratio>
															<fielddominance>none</fielddominance>
														</samplecharacteristics>
													</video>
												</media>
											</file>
											<filter>
												<effect>
													<name>Basic Motion</name>
													<effectid>basic</effectid>
													<effectcategory>motion</effectcategory>
													<effecttype>motion</effecttype>
													<mediatype>video</mediatype>
													<pproBypass>false</pproBypass>
													<parameter authoringApp="PremierePro">
														<parameterid>scale</parameterid>
														<name>Scale</name>
														<valuemin>0</valuemin>
														<valuemax>1000</valuemax>
														<value>53.3333</value>
													</parameter>
													<parameter authoringApp="PremierePro">
														<parameterid>rotation</parameterid>
														<name>Rotation</name>
														<valuemin>-8640</valuemin>
														<valuemax>8640</valuemax>
														<value>0</value>
													</parameter>
													<parameter authoringApp="PremierePro">
														<parameterid>center</parameterid>
														<name>Center</name>
														<value>
															<horiz>0</horiz>
															<vert>0</vert>
														</value>
													</parameter>
													<parameter authoringApp="PremierePro">
														<parameterid>centerOffset</parameterid>
														<name>Anchor Point</name>
														<value>
															<horiz>0</horiz>
															<vert>0</vert>
														</value>
													</parameter>
													<parameter authoringApp="PremierePro">
														<parameterid>antiflicker</parameterid>
														<name>Anti-flicker Filter</name>
														<valuemin>0.0</valuemin>
														<valuemax>1.0</valuemax>
														<value>0</value>
													</parameter>
												</effect>
											</filter>
											<logginginfo>
												<description></description>
												<scene></scene>
												<shottake></shottake>
												<lognote></lognote>
												<good></good>
												<originalvideofilename></originalvideofilename>
												<originalaudiofilename></originalaudiofilename>
											</logginginfo>
											<colorinfo>
												<lut></lut>
												<lut1></lut1>
												<asc_sop></asc_sop>
												<asc_sat></asc_sat>
												<lut2></lut2>
											</colorinfo>
											<labels>
												<label2>Lavender</label2>
											</labels>
										</clipitem>
										<transitionitem>
											<start>719</start>
											<end>744</end>
											<alignment>end-black</alignment>
											<cutPointTicks>254016000000</cutPointTicks>
											<rate>
												<timebase>25</timebase>
												<ntsc>FALSE</ntsc>
											</rate>
											<effect>
												<name>Edge Wipe</name>
												<effectid>Edge Wipe</effectid>
												<effectcategory>Wipe</effectcategory>
												<effecttype>transition</effecttype>
												<mediatype>video</mediatype>
												<wipecode>2</wipecode>
												<wipeaccuracy>100</wipeaccuracy>
												<startratio>0</startratio>
												<endratio>1</endratio>
												<reverse>FALSE</reverse>
												<parameter authoringApp="PremierePro">
													<parameterid>directionofwipe</parameterid>
													<name>Angle</name>
													<valuemin>-360</valuemin>
													<valuemax>360</valuemax>
													<value>90</value>
												</parameter>
											</effect>
										</transitionitem>
										<transitionitem>
											<start>756</start>
											<end>785</end>
											<alignment>start-black</alignment>
											<cutPointTicks>0</cutPointTicks>
											<rate>
												<timebase>25</timebase>
												<ntsc>FALSE</ntsc>
											</rate>
											<effect>
												<name>Edge Wipe</name>
												<effectid>Edge Wipe</effectid>
												<effectcategory>Wipe</effectcategory>
												<effecttype>transition</effecttype>
												<mediatype>video</mediatype>
												<wipecode>2</wipecode>
												<wipeaccuracy>100</wipeaccuracy>
												<startratio>0</startratio>
												<endratio>1</endratio>
												<reverse>FALSE</reverse>
												<parameter authoringApp="PremierePro">
													<parameterid>directionofwipe</parameterid>
													<name>Angle</name>
													<valuemin>-360</valuemin>
													<valuemax>360</valuemax>
													<value>270</value>
												</parameter>
											</effect>
										</transitionitem>
										<clipitem id="clipitem-1307">
											<masterclipid>masterclip-588</masterclipid>
											<name>12_3.png</name>
											<enabled>TRUE</enabled>
											<duration>1080000</duration>
											<rate>
												<timebase>25</timebase>
												<ntsc>FALSE</ntsc>
											</rate>
											<start>-1</start>
											<end>-1</end>
											<in>90011</in>
											<out>90375</out>
											<pproTicksIn>914569367040000</pproTicksIn>
											<pproTicksOut>918267840000000</pproTicksOut>
											<alphatype>straight</alphatype>
											<pixelaspectratio>square</pixelaspectratio>
											<anamorphic>FALSE</anamorphic>
											<file id="file-487">
												<name>12_3.png</name>
												<pathurl>file://localhost/_MUZ_TV/project_AP/RU/_TITLE/468/PNG/12_3.png</pathurl>
												<rate>
													<timebase>30</timebase>
													<ntsc>TRUE</ntsc>
												</rate>
												<timecode>
													<rate>
														<timebase>30</timebase>
														<ntsc>TRUE</ntsc>
													</rate>
													<string>00;00;00;00</string>
													<frame>0</frame>
													<displayformat>DF</displayformat>
												</timecode>
												<media>
													<video>
														<samplecharacteristics>
															<rate>
																<timebase>30</timebase>
																<ntsc>TRUE</ntsc>
															</rate>
															<width>1920</width>
															<height>1080</height>
															<anamorphic>FALSE</anamorphic>
															<pixelaspectratio>square</pixelaspectratio>
															<fielddominance>none</fielddominance>
														</samplecharacteristics>
													</video>
												</media>
											</file>
											<filter>
												<effect>
													<name>Basic Motion</name>
													<effectid>basic</effectid>
													<effectcategory>motion</effectcategory>
													<effecttype>motion</effecttype>
													<mediatype>video</mediatype>
													<pproBypass>false</pproBypass>
													<parameter authoringApp="PremierePro">
														<parameterid>scale</parameterid>
														<name>Scale</name>
														<valuemin>0</valuemin>
														<valuemax>1000</valuemax>
														<value>53.3333</value>
													</parameter>
													<parameter authoringApp="PremierePro">
														<parameterid>rotation</parameterid>
														<name>Rotation</name>
														<valuemin>-8640</valuemin>
														<valuemax>8640</valuemax>
														<value>0</value>
													</parameter>
													<parameter authoringApp="PremierePro">
														<parameterid>center</parameterid>
														<name>Center</name>
														<value>
															<horiz>0</horiz>
															<vert>0</vert>
														</value>
													</parameter>
													<parameter authoringApp="PremierePro">
														<parameterid>centerOffset</parameterid>
														<name>Anchor Point</name>
														<value>
															<horiz>0</horiz>
															<vert>0</vert>
														</value>
													</parameter>
													<parameter authoringApp="PremierePro">
														<parameterid>antiflicker</parameterid>
														<name>Anti-flicker Filter</name>
														<valuemin>0.0</valuemin>
														<valuemax>1.0</valuemax>
														<value>0</value>
													</parameter>
												</effect>
											</filter>
											<logginginfo>
												<description></description>
												<scene></scene>
												<shottake></shottake>
												<lognote></lognote>
												<good></good>
												<originalvideofilename></originalvideofilename>
												<originalaudiofilename></originalaudiofilename>
											</logginginfo>
											<colorinfo>
												<lut></lut>
												<lut1></lut1>
												<asc_sop></asc_sop>
												<asc_sat></asc_sat>
												<lut2></lut2>
											</colorinfo>
											<labels>
												<label2>Lavender</label2>
											</labels>
										</clipitem>
										<transitionitem>
											<start>1095</start>
											<end>1120</end>
											<alignment>end-black</alignment>
											<cutPointTicks>254016000000</cutPointTicks>
											<rate>
												<timebase>25</timebase>
												<ntsc>FALSE</ntsc>
											</rate>
											<effect>
												<name>Edge Wipe</name>
												<effectid>Edge Wipe</effectid>
												<effectcategory>Wipe</effectcategory>
												<effecttype>transition</effecttype>
												<mediatype>video</mediatype>
												<wipecode>2</wipecode>
												<wipeaccuracy>100</wipeaccuracy>
												<startratio>0</startratio>
												<endratio>1</endratio>
												<reverse>FALSE</reverse>
												<parameter authoringApp="PremierePro">
													<parameterid>directionofwipe</parameterid>
													<name>Angle</name>
													<valuemin>-360</valuemin>
													<valuemax>360</valuemax>
													<value>90</value>
												</parameter>
											</effect>
										</transitionitem>
										<enabled>TRUE</enabled>
										<locked>FALSE</locked>
									</track>
									<track TL.SQTrackShy="0" TL.SQTrackExpandedHeight="25" TL.SQTrackExpanded="0" MZ.TrackTargeted="0">
										<transitionitem>
											<start>755</start>
											<end>780</end>
											<alignment>start-black</alignment>
											<cutPointTicks>0</cutPointTicks>
											<rate>
												<timebase>25</timebase>
												<ntsc>FALSE</ntsc>
											</rate>
											<effect>
												<name>Edge Wipe</name>
												<effectid>Edge Wipe</effectid>
												<effectcategory>Wipe</effectcategory>
												<effecttype>transition</effecttype>
												<mediatype>video</mediatype>
												<wipecode>2</wipecode>
												<wipeaccuracy>100</wipeaccuracy>
												<startratio>0</startratio>
												<endratio>1</endratio>
												<reverse>FALSE</reverse>
												<parameter authoringApp="PremierePro">
													<parameterid>directionofwipe</parameterid>
													<name>Angle</name>
													<valuemin>-360</valuemin>
													<valuemax>360</valuemax>
													<value>270</value>
												</parameter>
											</effect>
										</transitionitem>
										<clipitem id="clipitem-1308">
											<masterclipid>masterclip-589</masterclipid>
											<name>Graphic</name>
											<enabled>FALSE</enabled>
											<duration>1080000</duration>
											<rate>
												<timebase>25</timebase>
												<ntsc>FALSE</ntsc>
											</rate>
											<start>-1</start>
											<end>-1</end>
											<in>89905</in>
											<out>90272</out>
											<pproTicksIn>913492339200000</pproTicksIn>
											<pproTicksOut>917221294080000</pproTicksOut>
											<alphatype>straight</alphatype>
											<pixelaspectratio>PAL-601</pixelaspectratio>
											<anamorphic>TRUE</anamorphic>
											<file id="file-488">
												<name>Graphic</name>
												<mediaSource>GraphicAndType</mediaSource>
												<rate>
													<timebase>30</timebase>
													<ntsc>TRUE</ntsc>
												</rate>
												<timecode>
													<rate>
														<timebase>30</timebase>
														<ntsc>TRUE</ntsc>
													</rate>
													<string>00;00;00;00</string>
													<frame>0</frame>
													<displayformat>DF</displayformat>
												</timecode>
												<media>
													<video>
														<samplecharacteristics>
															<rate>
																<timebase>30</timebase>
																<ntsc>TRUE</ntsc>
															</rate>
															<width>720</width>
															<height>576</height>
															<anamorphic>TRUE</anamorphic>
															<pixelaspectratio>PAL-601</pixelaspectratio>
															<fielddominance>none</fielddominance>
														</samplecharacteristics>
													</video>
												</media>
											</file>
											<filter>
												<effect>
													<name>Vector Motion</name>
													<effectid>GraphicGroup</effectid>
													<effectcategory>graphic</effectcategory>
													<effecttype>filter</effecttype>
													<mediatype>video</mediatype>
													<pproBypass>false</pproBypass>
													<parameter authoringApp="PremierePro">
														<parameterid>1</parameterid>
														<name>Position</name>
														<IsTimeVarying>false</IsTimeVarying>
														<value>-91445760000000000,0.81693898908787344:0.49085601568222115,0,0,0,0,0,0,5,4,0,0,0,0</value>
													</parameter>
													<parameter authoringApp="PremierePro">
														<parameterid>2</parameterid>
														<name>Scale</name>
														<IsTimeVarying>false</IsTimeVarying>
														<ParameterControlType>2</ParameterControlType>
														<LowerBound>0</LowerBound>
														<UpperBound>10000</UpperBound>
														<UpperUIBound>200</UpperUIBound>
														<value>-91445760000000000,100.,0,0,0,0,0,0</value>
													</parameter>
													<parameter authoringApp="PremierePro">
														<parameterid>3</parameterid>
														<name>Scale Width</name>
														<IsTimeVarying>false</IsTimeVarying>
														<ParameterControlType>2</ParameterControlType>
														<LowerBound>0</LowerBound>
														<UpperBound>10000</UpperBound>
														<UpperUIBound>200</UpperUIBound>
														<value>-91445760000000000,100.,0,0,0,0,0,0</value>
													</parameter>
													<parameter authoringApp="PremierePro">
														<parameterid>4</parameterid>
														<name> </name>
														<IsTimeVarying>false</IsTimeVarying>
														<ParameterControlType>4</ParameterControlType>
														<LowerBound>false</LowerBound>
														<UpperBound>true</UpperBound>
														<value>-91445760000000000,true,0,0,0,0,0,0</value>
													</parameter>
													<parameter authoringApp="PremierePro">
														<parameterid>5</parameterid>
														<name>Rotation</name>
														<IsTimeVarying>false</IsTimeVarying>
														<ParameterControlType>3</ParameterControlType>
														<LowerBound>-32768</LowerBound>
														<UpperBound>32767</UpperBound>
														<value>-91445760000000000,0.,0,0,0,0,0,0</value>
													</parameter>
													<parameter authoringApp="PremierePro">
														<parameterid>6</parameterid>
														<name>Anchor Point</name>
														<IsTimeVarying>false</IsTimeVarying>
														<value>-91445760000000000,0.5:0.5,0,0,0,0,0,0,5,4,0,0,0,0</value>
													</parameter>
												</effect>
											</filter>
											<filter>
												<effect>
													<name>Данил Прытков признаётся, &#13;что сильные провалы &#13;мотивируют его на творчество &#13;не меньше, чем победы. </name>
													<effectid>GraphicAndType</effectid>
													<effectcategory>graphic</effectcategory>
													<effecttype>filter</effecttype>
													<mediatype>video</mediatype>
													<pproBypass>false</pproBypass>
													<pproExpanded>true</pproExpanded>
													<parameter authoringApp="PremierePro">
														<parameterid>1</parameterid>
														<name>Source Text</name>
														<hash>698123b5-7d57-7b79-efb1-b0df00000a31</hash>
														<value>wAEAAAAAAABEMyIRFAAAAAAADgAUAAQAAAAMABAACwAOAAAASAAAAAAAAAEIAAAAEAAAAAAAAAAIABoABAAMAAgAAACLyt42dOPmQL2WjgkAAAyxAAAAAAAAEgAUAAgABAAAAAAAAAAQAAwAEgAAABwAAAA0AAAAAAAAwAEAAAB4////fP///4D///8BAAAABAAAAA8AAABNb250c2VycmF0LUJvbGQAAQAAAAwAAAAIAAwABAAIAAgAAABUAAAANAAAADAADAAAAAgAAAAAAAAAAAAAAAAAAAAAAAAAAAAAAAAAAAAAAAAAAAAAAAAAAAAEADAAAAAIAAAAAACIQfj////8////BAAEAAQAAAC2AAAA0JTQsNC90LjQuyDQn9GA0YvRgtC60L7QsiDQv9GA0LjQt9C90LDRkdGC0YHRjywgDdGH0YLQviDRgdC40LvRjNC90YvQtSDQv9GA0L7QstCw0LvRiyAN0LzQvtGC0LjQstC40YDRg9GO0YIg0LXQs9C+INC90LAg0YLQstC+0YDRh9C10YHRgtCy0L4gDdC90LUg0LzQtdC90YzRiNC1LCDRh9C10Lwg0L/QvtCx0LXQtNGLLiAAAAAAAAAAAAAAAAAAAAAAAAAAAAAAAAAAAAAAAAAAAAAAAAAAAAAAAAAAAAAAAAAAAAAAAAAAAAAAAAAAAAAAAAAAAAAAAAAAAAAAAAAAAAAAAAAAAAAAAAAAAAAAAAAAAAAAAAAAAAAAAAAAAAAAAAAAAAAAAAAAAAAAAAAAAAAAAAAAAAAAAAAAAAAAAAAAAAAAAAAAAAAAAAAAAAAAAAAAAAAAAAAAAAAAAAAAAAAAAAAAAAAAAAAAAAAAAAAAAAAAAAAAAAAAAAAAAAAAAAAAAAAAAAAAAAAAAAAAAAAAAAAAAAAAAAAAAAAAAAAAAAAAAAAAAAAAAAAAAAAAAAAAAAAAAAAAAAAAAAAAAAAAAAAAAAAAAAAAAAAAAAAAAAAAAAAAAAAAAAAAAAAAAAAAAAAAAAAAAAAAAAAAAAAAAAAAAAAAAAAAAAAAAAAAAAAAAAAAAAAAAAAAAAAAAAAAAAAAAAAAAAAAAAAAAAAAAAAAAAAAAAAAAAAAAAAAAAAAAAAAAAAAAAAAAAAAAAAAAAAAAAAAAAAAAAAAAAAAAAAAAAAAAAAAAAAAAAAAAAAAAAAAAAAAAAAAAAAAAAAAAAAAAAAAAAAAAAAAAAAAAAAAAAAAAAAAAAAAAAAAAAAAAAAAAAAAAAAAAAAAAAAAAAAAAAAAAAAAAAAAAAAAAAAAAAAAAAAAAAAAAAAAAAAAAAAAAAAAAAAAAAAAAAAAAAAAAAAAAAAAAAAAAAAAAAAAAAAAAAAAAAAAAAAAAAAAAAAAAAAAAAAAAAAAAAAAAAAAAAAAAAAAAAAAAAAAAAAAAAAAAAAAAAAAAAAAAAAAAAAAAAAAAAAAAAAAAAAAAAAAAAAAAAAAAAAAAAAAAAAAAAAAAAAAAAAAAAAAAAAAAAAAAAAAAAAAAAAAAAAAAAAAAAAAAAAAAAAAAAAAAAAAAAAAAAAAAAAAAAAAAAAAAAAAAAAAAAAAAAAAAAAAAAAAAAAAAAAAAAAAAAAAAAAAAAAAAAAAAAAAAAAAAAAAAAAAAAAAAAAAAAAAAAAAAAAAAAAAAAAAAAAAAAAAAAAAAAAAAAAAAAAAAAAAAAAAAAAAAAAAAAAAAAAAAAAAAAAAAAAAAAAAAAAAAAAAAAAAAAAAAAAAAAAAAAAAAAAAAAAAAAAAAAAAAAAAAAAAAAAAAAAAAAAAAAAAAAAAAAAAAAAAAAAAAAAAAAAAAAAAAAAAAAAAAAAAAAAAAAAAAAAAAAAAAAAAAAAAAAAAAAAAAAAAAAAAAAAAAAAAAAAAAAAAAAAAAAAAAAAAAAAAAAAAAAAAAAAAAAAAAAAAAAAAAAAAAAAAAAAAAAAAAAAAAAAAAAAAAAAAAAAAAAAAAAAAAAAAAAAAAAAAAAAAAAAAAAAAAAAAAAAAAAAAAAAAAAAAAAAAAAAAAAAAAAAAAAAAAAAAAAAAAAAAAAAAAAAAAAAAAAAAAAAAAAAAAAAAAAAAAAAAAAAAAAAAAAAAAAAAAAAAAAAAAAAAAAAAAAAAAAAAAAAAAAAAAAAAAAAAAAAAAAAAAAAAAAAAAAAAAAAAAAAAAAAAAAAAAAAAAAAAAAAAAAAAAAAAAAAAAAAAAAAAAAAAAAAAAAAAAAAAAAAAAAAAAAAAAAAAAAAAAAAAAAAAAAAAAAAAAAAAAAAAAAAAAAAAAAAAAAAAAAAAAAAAAAAAAAAAAAAAAAAAAAAAAAAAAAAAAAAAAAAAAAAAAAAAAAAAAAAAAAAAAAAAAAAAAAAAAAAAAAAAAAAAAAAAAAAAAAAAAAAAAAAAAAAAAAAAAAAAAAAAAAAAAAAAAAAAAAAAAAAAAAAAAAAAAAAAAAAAAAAAAAAAAAAAAAAAAAAAAAAAAAAAAAAAAAAAAAAAAAAAAAAAAAAAAAAAAAAAAAAAAAAAAAAAAAAAAAAAAAAAAAAAAAAAAAAAAAAAAAAAAAAAAAAAAAAAAAAAAAAAAAAAAAAAAAAAAAAAAAAAAAAAAAAAAAAAAAAAAAAAAAAAAAAAAAAAAAAAAAAAAAAAAAAAAAAAAAAAAAAAAAAAAAAAAAAAAAAAAAAAAAAAAAAAAAAAAAAAAAAAAAAAAAAAAAAAAAAAAAAAAAAAAAAAAAAAAAAAAAAAAAAAAAAAAAAAAAAAAAAAAAAAAAAAAAAAAAAAAAAAAAAAAAAAAAAAAAAAAAAAAAAAAAAAAAAAAAAAAAAAAAAAAAAAAAAAAAAAAAAAAAAAAAAAAAAAAAAAAAAAAAAAAAAAAAAAAAAAAAAAAAAAAAAAAAAAAAAAAAAAAAAAAAAAAAAAAAAAAAAAAAAAAAAAAAAAAAAAAAAAAAAAAAAAAAAAAAAAAAAAAAAAAAAAAAAAAAAAAAAAAAAAAAAAAAAAAAAAAAAAAAAAAAAAAAAAAAAAAAAAAAAAAAAAAAAAAAAAAAAAAAAAAAAAAAAAAAAAAAAAAAAAAAAAAAAAAAAAAAAAAAAAAAAAAAAAAAAAAAAAAAAAAAAAAAAAAAAAAAAAAAAAAAAAAAAAAAAAAAAAAAAAAAAAAAAAAAAAAAAAAAAAAAAAAAAAAAAAAAAAAAAAAAAAAAAAAAAAAAAAAAAAAAAAAAAAAAAAAAAAAAAAAAAAAAAAAAAAAAAAAAAAAAAAAAAAAAAAAAAAAAAAAAAAAAAAAAAAAAAAAAAAAAAAAAAAAAAAAAAAAAAAAAAAAAAAAAAAAAAAAAAAAAAAAAAAAAAAAAAAAAAAAAAAAAAAAAAAAAAAAAAAAAAAAAAAAAAAAAAAAAAAAAAAAAAAAAAAAAAAAAAAAAAAAAAAAAAAAAAAAAAAAAAAAAAAAAAAAAAAAAAAAAAAAAAAAAAAAAAAAAA=</value>
													</parameter>
													<parameter authoringApp="PremierePro">
														<parameterid>2</parameterid>
														<name>Transform</name>
														<IsTimeVarying>false</IsTimeVarying>
														<ParameterControlType>11</ParameterControlType>
														<LowerBound>false</LowerBound>
														<UpperBound>false</UpperBound>
														<value>-91445760000000000,false,0,0,0,0,0,0</value>
													</parameter>
													<parameter authoringApp="PremierePro">
														<parameterid>3</parameterid>
														<name>Position</name>
														<IsTimeVarying>false</IsTimeVarying>
														<value>-91445760000000000,0.270416259765625:0.640594482421875,0,0,0,0,0,0,5,4,0,0,0,0</value>
													</parameter>
													<parameter authoringApp="PremierePro">
														<parameterid>4</parameterid>
														<name>Scale</name>
														<IsTimeVarying>false</IsTimeVarying>
														<ParameterControlType>2</ParameterControlType>
														<LowerBound>0</LowerBound>
														<UpperBound>4000</UpperBound>
														<value>-91445760000000000,100.,0,0,0,0,0,0</value>
													</parameter>
													<parameter authoringApp="PremierePro">
														<parameterid>5</parameterid>
														<name>Horizontal Scale</name>
														<IsTimeVarying>false</IsTimeVarying>
														<ParameterControlType>2</ParameterControlType>
														<LowerBound>0</LowerBound>
														<UpperBound>4000</UpperBound>
														<value>-91445760000000000,100.,0,0,0,0,0,0</value>
													</parameter>
													<parameter authoringApp="PremierePro">
														<parameterid>6</parameterid>
														<name> </name>
														<IsTimeVarying>false</IsTimeVarying>
														<ParameterControlType>4</ParameterControlType>
														<LowerBound>false</LowerBound>
														<UpperBound>true</UpperBound>
														<value>-91445760000000000,true,0,0,0,0,0,0</value>
													</parameter>
													<parameter authoringApp="PremierePro">
														<parameterid>7</parameterid>
														<name>Rotation</name>
														<IsTimeVarying>false</IsTimeVarying>
														<ParameterControlType>3</ParameterControlType>
														<LowerBound>-32768</LowerBound>
														<UpperBound>32767</UpperBound>
														<value>-91445760000000000,0.,0,0,0,0,0,0</value>
													</parameter>
													<parameter authoringApp="PremierePro">
														<parameterid>8</parameterid>
														<name>Opacity</name>
														<IsTimeVarying>false</IsTimeVarying>
														<ParameterControlType>2</ParameterControlType>
														<LowerBound>0</LowerBound>
														<UpperBound>100</UpperBound>
														<value>-91445760000000000,100.,0,0,0,0,0,0</value>
													</parameter>
													<parameter authoringApp="PremierePro">
														<parameterid>9</parameterid>
														<name>Anchor Point</name>
														<IsTimeVarying>false</IsTimeVarying>
														<value>-91445760000000000,0:0,0,0,0,0,0,0,5,4,0,0,0,0</value>
													</parameter>
													<parameter authoringApp="PremierePro">
														<parameterid>10</parameterid>
														<name></name>
														<IsTimeVarying>false</IsTimeVarying>
														<ParameterControlType>12</ParameterControlType>
														<LowerBound>false</LowerBound>
														<UpperBound>false</UpperBound>
														<value>-91445760000000000,false,0,0,0,0,0,0</value>
													</parameter>
													<parameter authoringApp="PremierePro">
														<parameterid>11</parameterid>
														<name> </name>
														<IsTimeVarying>false</IsTimeVarying>
														<ParameterControlType>8</ParameterControlType>
														<LowerBound>0</LowerBound>
														<UpperBound>32768</UpperBound>
														<value>-91445760000000000,0.,0,0,0,0,0,0</value>
													</parameter>
													<parameter authoringApp="PremierePro">
														<parameterid>12</parameterid>
														<name> </name>
														<IsTimeVarying>false</IsTimeVarying>
														<ParameterControlType>8</ParameterControlType>
														<LowerBound>0</LowerBound>
														<UpperBound>32768</UpperBound>
														<value>-91445760000000000,0.,0,0,0,0,0,0</value>
													</parameter>
													<parameter authoringApp="PremierePro">
														<parameterid>13</parameterid>
														<name>start</name>
														<IsTimeVarying>false</IsTimeVarying>
														<ParameterControlType>8</ParameterControlType>
														<LowerBound>-100</LowerBound>
														<UpperBound>1000000000</UpperBound>
														<value>-91445760000000000,0.,0,0,0,0,0,0</value>
													</parameter>
													<parameter authoringApp="PremierePro">
														<parameterid>14</parameterid>
														<name>end</name>
														<IsTimeVarying>false</IsTimeVarying>
														<ParameterControlType>8</ParameterControlType>
														<LowerBound>-100</LowerBound>
														<UpperBound>1000000000</UpperBound>
														<value>-91445760000000000,101.,0,0,0,0,0,0</value>
													</parameter>
													<parameter authoringApp="PremierePro">
														<parameterid>15</parameterid>
														<name> </name>
														<IsTimeVarying>false</IsTimeVarying>
														<ParameterControlType>4</ParameterControlType>
														<LowerBound>false</LowerBound>
														<UpperBound>true</UpperBound>
														<value>-91445760000000000,false,0,0,0,0,0,0</value>
													</parameter>
													<parameter authoringApp="PremierePro">
														<parameterid>16</parameterid>
														<name> </name>
														<IsTimeVarying>false</IsTimeVarying>
														<ParameterControlType>4</ParameterControlType>
														<LowerBound>false</LowerBound>
														<UpperBound>true</UpperBound>
														<value>-91445760000000000,false,0,0,0,0,0,0</value>
													</parameter>
													<parameter authoringApp="PremierePro">
														<parameterid>17</parameterid>
														<name> </name>
														<IsTimeVarying>false</IsTimeVarying>
														<ParameterControlType>4</ParameterControlType>
														<LowerBound>false</LowerBound>
														<UpperBound>true</UpperBound>
														<value>-91445760000000000,false,0,0,0,0,0,0</value>
													</parameter>
													<parameter authoringApp="PremierePro">
														<parameterid>18</parameterid>
														<name> </name>
														<IsTimeVarying>false</IsTimeVarying>
														<ParameterControlType>4</ParameterControlType>
														<LowerBound>false</LowerBound>
														<UpperBound>true</UpperBound>
														<value>-91445760000000000,false,0,0,0,0,0,0</value>
													</parameter>
													<parameter authoringApp="PremierePro">
														<parameterid>19</parameterid>
														<name>Parent Width</name>
														<IsTimeVarying>false</IsTimeVarying>
														<ParameterControlType>2</ParameterControlType>
														<LowerBound>0</LowerBound>
														<UpperBound>20000</UpperBound>
														<value>-91445760000000000,0.,0,0,0,0,0,0</value>
													</parameter>
													<parameter authoringApp="PremierePro">
														<parameterid>20</parameterid>
														<name>Parent Height</name>
														<IsTimeVarying>false</IsTimeVarying>
														<ParameterControlType>2</ParameterControlType>
														<LowerBound>0</LowerBound>
														<UpperBound>20000</UpperBound>
														<value>-91445760000000000,0.,0,0,0,0,0,0</value>
													</parameter>
													<parameter authoringApp="PremierePro">
														<parameterid>21</parameterid>
														<name>Parent Rotation</name>
														<IsTimeVarying>false</IsTimeVarying>
														<ParameterControlType>3</ParameterControlType>
														<LowerBound>-32768</LowerBound>
														<UpperBound>32767</UpperBound>
														<value>-91445760000000000,0.,0,0,0,0,0,0</value>
													</parameter>
												</effect>
											</filter>
											<logginginfo>
												<description></description>
												<scene></scene>
												<shottake></shottake>
												<lognote></lognote>
												<good></good>
												<originalvideofilename></originalvideofilename>
												<originalaudiofilename></originalaudiofilename>
											</logginginfo>
											<colorinfo>
												<lut></lut>
												<lut1></lut1>
												<asc_sop></asc_sop>
												<asc_sat></asc_sat>
												<lut2></lut2>
											</colorinfo>
										</clipitem>
										<transitionitem>
											<start>1097</start>
											<end>1122</end>
											<alignment>end-black</alignment>
											<cutPointTicks>254016000000</cutPointTicks>
											<rate>
												<timebase>25</timebase>
												<ntsc>FALSE</ntsc>
											</rate>
											<effect>
												<name>Edge Wipe</name>
												<effectid>Edge Wipe</effectid>
												<effectcategory>Wipe</effectcategory>
												<effecttype>transition</effecttype>
												<mediatype>video</mediatype>
												<wipecode>2</wipecode>
												<wipeaccuracy>100</wipeaccuracy>
												<startratio>0</startratio>
												<endratio>1</endratio>
												<reverse>FALSE</reverse>
												<parameter authoringApp="PremierePro">
													<parameterid>directionofwipe</parameterid>
													<name>Angle</name>
													<valuemin>-360</valuemin>
													<valuemax>360</valuemax>
													<value>90</value>
												</parameter>
											</effect>
										</transitionitem>
										<enabled>TRUE</enabled>
										<locked>FALSE</locked>
									</track>
								</video>
								<audio>
									<numOutputChannels>2</numOutputChannels>
									<format>
										<samplecharacteristics>
											<depth>16</depth>
											<samplerate>48000</samplerate>
										</samplecharacteristics>
									</format>
									<outputs>
										<group>
											<index>1</index>
											<numchannels>1</numchannels>
											<downmix>0</downmix>
											<channel>
												<index>1</index>
											</channel>
										</group>
										<group>
											<index>2</index>
											<numchannels>1</numchannels>
											<downmix>0</downmix>
											<channel>
												<index>2</index>
											</channel>
										</group>
									</outputs>
									<track TL.SQTrackAudioKeyframeStyle="0" TL.SQTrackShy="0" TL.SQTrackExpandedHeight="25" TL.SQTrackExpanded="0" MZ.TrackTargeted="1" PannerCurrentValue="0.5" PannerStartKeyframe="-91445760000000000,0.5,0,0,0,0,0,0" PannerName="Balance" currentExplodedTrackIndex="0" totalExplodedTrackCount="2" premiereTrackType="Stereo">
										<enabled>TRUE</enabled>
										<locked>FALSE</locked>
										<outputchannelindex>1</outputchannelindex>
									</track>
									<track TL.SQTrackAudioKeyframeStyle="0" TL.SQTrackShy="0" TL.SQTrackExpandedHeight="25" TL.SQTrackExpanded="0" MZ.TrackTargeted="1" PannerCurrentValue="0.5" PannerStartKeyframe="-91445760000000000,0.5,0,0,0,0,0,0" PannerName="Balance" currentExplodedTrackIndex="1" totalExplodedTrackCount="2" premiereTrackType="Stereo">
										<enabled>TRUE</enabled>
										<locked>FALSE</locked>
										<outputchannelindex>2</outputchannelindex>
									</track>
								</audio>
							</media>
							<timecode>
								<rate>
									<timebase>25</timebase>
									<ntsc>FALSE</ntsc>
								</rate>
								<string>00:00:00:00</string>
								<frame>0</frame>
								<displayformat>NDF</displayformat>
							</timecode>
								<marker>
									<comment></comment>
									<name></name>
									<in>50</in>
									<out>-1</out>
									<pproColor>4292277273</pproColor>
								</marker>
								<marker>
									<comment></comment>
									<name></name>
									<in>800</in>
									<out>-1</out>
									<pproColor>4292277273</pproColor>
								</marker>
								<marker>
									<comment></comment>
									<name></name>
									<in>425</in>
									<out>-1</out>
									<pproColor>4292277273</pproColor>
								</marker>
							<logginginfo>
								<description></description>
								<scene></scene>
								<shottake></shottake>
								<lognote></lognote>
								<good></good>
								<originalvideofilename></originalvideofilename>
								<originalaudiofilename></originalaudiofilename>
							</logginginfo>
						</sequence>
							<marker>
								<comment></comment>
								<name></name>
								<in>50</in>
								<out>-1</out>
								<pproColor>4292277273</pproColor>
							</marker>
							<marker>
								<comment></comment>
								<name></name>
								<in>800</in>
								<out>-1</out>
								<pproColor>4292277273</pproColor>
							</marker>
							<marker>
								<comment></comment>
								<name></name>
								<in>425</in>
								<out>-1</out>
								<pproColor>4292277273</pproColor>
							</marker>
						<labels>
							<label2>Forest</label2>
						</labels>
					</clipitem>
					<clipitem id="clipitem-1309">
						<masterclipid>masterclip-584</masterclipid>
						<name>12</name>
						<enabled>TRUE</enabled>
						<duration>1125</duration>
						<rate>
							<timebase>25</timebase>
							<ntsc>FALSE</ntsc>
						</rate>
						<start>3938</start>
						<end>4313</end>
						<in>375</in>
						<out>750</out>
						<pproTicksIn>3810240000000</pproTicksIn>
						<pproTicksOut>7620480000000</pproTicksOut>
						<sequence id="sequence-108"/>
							<marker>
								<comment></comment>
								<name></name>
								<in>50</in>
								<out>-1</out>
								<pproColor>4292277273</pproColor>
							</marker>
							<marker>
								<comment></comment>
								<name></name>
								<in>800</in>
								<out>-1</out>
								<pproColor>4292277273</pproColor>
							</marker>
							<marker>
								<comment></comment>
								<name></name>
								<in>425</in>
								<out>-1</out>
								<pproColor>4292277273</pproColor>
							</marker>
						<labels>
							<label2>Forest</label2>
						</labels>
					</clipitem>
					<clipitem id="clipitem-1310">
						<masterclipid>masterclip-584</masterclipid>
						<name>12</name>
						<enabled>TRUE</enabled>
						<duration>1125</duration>
						<rate>
							<timebase>25</timebase>
							<ntsc>FALSE</ntsc>
						</rate>
						<start>5619</start>
						<end>5994</end>
						<in>750</in>
						<out>1125</out>
						<pproTicksIn>7620480000000</pproTicksIn>
						<pproTicksOut>11430720000000</pproTicksOut>
						<sequence id="sequence-108"/>
							<marker>
								<comment></comment>
								<name></name>
								<in>50</in>
								<out>-1</out>
								<pproColor>4292277273</pproColor>
							</marker>
							<marker>
								<comment></comment>
								<name></name>
								<in>800</in>
								<out>-1</out>
								<pproColor>4292277273</pproColor>
							</marker>
							<marker>
								<comment></comment>
								<name></name>
								<in>425</in>
								<out>-1</out>
								<pproColor>4292277273</pproColor>
							</marker>
						<labels>
							<label2>Forest</label2>
						</labels>
					</clipitem>
					<clipitem id="clipitem-1311">
						<masterclipid>masterclip-590</masterclipid>
						<name>11</name>
						<enabled>TRUE</enabled>
						<duration>1125</duration>
						<rate>
							<timebase>25</timebase>
							<ntsc>FALSE</ntsc>
						</rate>
						<start>9187</start>
						<end>9562</end>
						<in>0</in>
						<out>375</out>
						<pproTicksIn>0</pproTicksIn>
						<pproTicksOut>3810240000000</pproTicksOut>
						<sequence id="sequence-109" TL.SQAudioVisibleBase="0" TL.SQVideoVisibleBase="0" TL.SQVisibleBaseTime="0" TL.SQAVDividerPosition="0.5" TL.SQHideShyTracks="0" TL.SQHeaderWidth="236" Monitor.ProgramZoomOut="11430720000000" Monitor.ProgramZoomIn="0" TL.SQTimePerPixel="0.098103335513404069" AM.TrackVScrollPosition="0" AM.TrackScrollPosition="0" MZ.EditLine="9398592000000" MZ.Sequence.PreviewFrameSizeHeight="576" MZ.Sequence.PreviewFrameSizeWidth="720" MZ.Sequence.AudioTimeDisplayFormat="200" MZ.Sequence.PreviewRenderingClassID="1061109567" MZ.Sequence.PreviewRenderingPresetCodec="1685480304" MZ.Sequence.PreviewRenderingPresetPath="EncoderPresets/SequencePreview/04be6e19-a018-4e0c-a9d6-0ab44c64752b/QuickTime DV PAL.epr" MZ.Sequence.PreviewUseMaxRenderQuality="false" MZ.Sequence.PreviewUseMaxBitDepth="false" MZ.Sequence.EditingModeGUID="04be6e19-a018-4e0c-a9d6-0ab44c64752b" MZ.Sequence.VideoTimeDisplayFormat="101" MZ.WorkOutPoint="11430720000000" MZ.WorkInPoint="0" MZ.ZeroPoint="0">
							<duration>1125</duration>
							<rate>
								<timebase>25</timebase>
								<ntsc>FALSE</ntsc>
							</rate>
							<name>RU_Nested</name>
							<media>
								<video>
									<format>
										<samplecharacteristics>
											<rate>
												<timebase>25</timebase>
												<ntsc>FALSE</ntsc>
											</rate>
											<codec>
												<name>Apple ProRes 422</name>
												<appspecificdata>
													<appname>Final Cut Pro</appname>
													<appmanufacturer>Apple Inc.</appmanufacturer>
													<appversion>7.0</appversion>
													<data>
														<qtcodec>
															<codecname>Apple ProRes 422</codecname>
															<codectypename>Apple ProRes 422</codectypename>
															<codectypecode>apcn</codectypecode>
															<codecvendorcode>appl</codecvendorcode>
															<spatialquality>1024</spatialquality>
															<temporalquality>0</temporalquality>
															<keyframerate>0</keyframerate>
															<datarate>0</datarate>
														</qtcodec>
													</data>
												</appspecificdata>
											</codec>
											<width>720</width>
											<height>576</height>
											<anamorphic>TRUE</anamorphic>
											<pixelaspectratio>PAL-601</pixelaspectratio>
											<fielddominance>lower</fielddominance>
											<colordepth>24</colordepth>
										</samplecharacteristics>
									</format>
									<track TL.SQTrackShy="0" TL.SQTrackExpandedHeight="25" TL.SQTrackExpanded="0" MZ.TrackTargeted="1">
										<clipitem id="clipitem-1312">
											<masterclipid>masterclip-585</masterclipid>
											<name>Plashka_Right_DV.mov</name>
											<enabled>TRUE</enabled>
											<duration>375</duration>
											<rate>
												<timebase>25</timebase>
												<ntsc>FALSE</ntsc>
											</rate>
											<start>0</start>
											<end>375</end>
											<in>0</in>
											<out>375</out>
											<pproTicksIn>0</pproTicksIn>
											<pproTicksOut>3810240000000</pproTicksOut>
											<alphatype>straight</alphatype>
											<file id="file-484"/>
											<filter>
												<effect>
													<name>Basic Motion</name>
													<effectid>basic</effectid>
													<effectcategory>motion</effectcategory>
													<effecttype>motion</effecttype>
													<mediatype>video</mediatype>
													<pproBypass>false</pproBypass>
													<parameter authoringApp="PremierePro">
														<parameterid>scale</parameterid>
														<name>Scale</name>
														<valuemin>0</valuemin>
														<valuemax>1000</valuemax>
														<value>100</value>
													</parameter>
													<parameter authoringApp="PremierePro">
														<parameterid>rotation</parameterid>
														<name>Rotation</name>
														<valuemin>-8640</valuemin>
														<valuemax>8640</valuemax>
														<value>0</value>
													</parameter>
													<parameter authoringApp="PremierePro">
														<parameterid>center</parameterid>
														<name>Center</name>
														<value>
															<horiz>-5.55112e-17</horiz>
															<vert>-1.11022e-16</vert>
														</value>
													</parameter>
													<parameter authoringApp="PremierePro">
														<parameterid>centerOffset</parameterid>
														<name>Anchor Point</name>
														<value>
															<horiz>0.402314</horiz>
															<vert>0.41875</vert>
														</value>
													</parameter>
													<parameter authoringApp="PremierePro">
														<parameterid>antiflicker</parameterid>
														<name>Anti-flicker Filter</name>
														<valuemin>0.0</valuemin>
														<valuemax>1.0</valuemax>
														<value>0</value>
													</parameter>
												</effect>
											</filter>
											<filter>
												<effect>
													<name>Distort</name>
													<effectid>deformation</effectid>
													<effectcategory>motion</effectcategory>
													<effecttype>motion</effecttype>
													<mediatype>video</mediatype>
													<parameter authoringApp="PremierePro">
														<parameterid>aspect</parameterid>
														<name>Aspect</name>
														<valuemin>-10000</valuemin>
														<valuemax>10000</valuemax>
														<value>19.0476</value>
													</parameter>
												</effect>
											</filter>
											<logginginfo>
												<description></description>
												<scene></scene>
												<shottake></shottake>
												<lognote></lognote>
												<good></good>
												<originalvideofilename></originalvideofilename>
												<originalaudiofilename></originalaudiofilename>
											</logginginfo>
											<colorinfo>
												<lut></lut>
												<lut1></lut1>
												<asc_sop></asc_sop>
												<asc_sat></asc_sat>
												<lut2></lut2>
											</colorinfo>
											<labels>
												<label2>Violet</label2>
											</labels>
										</clipitem>
										<clipitem id="clipitem-1313">
											<masterclipid>masterclip-585</masterclipid>
											<name>Plashka_Right_DV.mov</name>
											<enabled>TRUE</enabled>
											<duration>375</duration>
											<rate>
												<timebase>25</timebase>
												<ntsc>FALSE</ntsc>
											</rate>
											<start>375</start>
											<end>750</end>
											<in>0</in>
											<out>375</out>
											<pproTicksIn>0</pproTicksIn>
											<pproTicksOut>3810240000000</pproTicksOut>
											<alphatype>straight</alphatype>
											<file id="file-484"/>
											<filter>
												<effect>
													<name>Basic Motion</name>
													<effectid>basic</effectid>
													<effectcategory>motion</effectcategory>
													<effecttype>motion</effecttype>
													<mediatype>video</mediatype>
													<pproBypass>false</pproBypass>
													<parameter authoringApp="PremierePro">
														<parameterid>scale</parameterid>
														<name>Scale</name>
														<valuemin>0</valuemin>
														<valuemax>1000</valuemax>
														<value>100</value>
													</parameter>
													<parameter authoringApp="PremierePro">
														<parameterid>rotation</parameterid>
														<name>Rotation</name>
														<valuemin>-8640</valuemin>
														<valuemax>8640</valuemax>
														<value>0</value>
													</parameter>
													<parameter authoringApp="PremierePro">
														<parameterid>center</parameterid>
														<name>Center</name>
														<value>
															<horiz>-5.55112e-17</horiz>
															<vert>-1.11022e-16</vert>
														</value>
													</parameter>
													<parameter authoringApp="PremierePro">
														<parameterid>centerOffset</parameterid>
														<name>Anchor Point</name>
														<value>
															<horiz>0.402314</horiz>
															<vert>0.41875</vert>
														</value>
													</parameter>
													<parameter authoringApp="PremierePro">
														<parameterid>antiflicker</parameterid>
														<name>Anti-flicker Filter</name>
														<valuemin>0.0</valuemin>
														<valuemax>1.0</valuemax>
														<value>0</value>
													</parameter>
												</effect>
											</filter>
											<filter>
												<effect>
													<name>Distort</name>
													<effectid>deformation</effectid>
													<effectcategory>motion</effectcategory>
													<effecttype>motion</effecttype>
													<mediatype>video</mediatype>
													<parameter authoringApp="PremierePro">
														<parameterid>aspect</parameterid>
														<name>Aspect</name>
														<valuemin>-10000</valuemin>
														<valuemax>10000</valuemax>
														<value>81.8182</value>
													</parameter>
												</effect>
											</filter>
											<logginginfo>
												<description></description>
												<scene></scene>
												<shottake></shottake>
												<lognote></lognote>
												<good></good>
												<originalvideofilename></originalvideofilename>
												<originalaudiofilename></originalaudiofilename>
											</logginginfo>
											<colorinfo>
												<lut></lut>
												<lut1></lut1>
												<asc_sop></asc_sop>
												<asc_sat></asc_sat>
												<lut2></lut2>
											</colorinfo>
											<labels>
												<label2>Violet</label2>
											</labels>
										</clipitem>
										<clipitem id="clipitem-1314">
											<masterclipid>masterclip-585</masterclipid>
											<name>Plashka_Right_DV.mov</name>
											<enabled>TRUE</enabled>
											<duration>375</duration>
											<rate>
												<timebase>25</timebase>
												<ntsc>FALSE</ntsc>
											</rate>
											<start>750</start>
											<end>1125</end>
											<in>0</in>
											<out>375</out>
											<pproTicksIn>0</pproTicksIn>
											<pproTicksOut>3810240000000</pproTicksOut>
											<alphatype>straight</alphatype>
											<file id="file-484"/>
											<filter>
												<effect>
													<name>Basic Motion</name>
													<effectid>basic</effectid>
													<effectcategory>motion</effectcategory>
													<effecttype>motion</effecttype>
													<mediatype>video</mediatype>
													<pproBypass>false</pproBypass>
													<parameter authoringApp="PremierePro">
														<parameterid>scale</parameterid>
														<name>Scale</name>
														<valuemin>0</valuemin>
														<valuemax>1000</valuemax>
														<value>100</value>
													</parameter>
													<parameter authoringApp="PremierePro">
														<parameterid>rotation</parameterid>
														<name>Rotation</name>
														<valuemin>-8640</valuemin>
														<valuemax>8640</valuemax>
														<value>0</value>
													</parameter>
													<parameter authoringApp="PremierePro">
														<parameterid>center</parameterid>
														<name>Center</name>
														<value>
															<horiz>-5.55112e-17</horiz>
															<vert>-1.11022e-16</vert>
														</value>
													</parameter>
													<parameter authoringApp="PremierePro">
														<parameterid>centerOffset</parameterid>
														<name>Anchor Point</name>
														<value>
															<horiz>0.402314</horiz>
															<vert>0.41875</vert>
														</value>
													</parameter>
													<parameter authoringApp="PremierePro">
														<parameterid>antiflicker</parameterid>
														<name>Anti-flicker Filter</name>
														<valuemin>0.0</valuemin>
														<valuemax>1.0</valuemax>
														<value>0</value>
													</parameter>
												</effect>
											</filter>
											<filter>
												<effect>
													<name>Distort</name>
													<effectid>deformation</effectid>
													<effectcategory>motion</effectcategory>
													<effecttype>motion</effecttype>
													<mediatype>video</mediatype>
													<parameter authoringApp="PremierePro">
														<parameterid>aspect</parameterid>
														<name>Aspect</name>
														<valuemin>-10000</valuemin>
														<valuemax>10000</valuemax>
														<value>14.9425</value>
													</parameter>
												</effect>
											</filter>
											<logginginfo>
												<description></description>
												<scene></scene>
												<shottake></shottake>
												<lognote></lognote>
												<good></good>
												<originalvideofilename></originalvideofilename>
												<originalaudiofilename></originalaudiofilename>
											</logginginfo>
											<colorinfo>
												<lut></lut>
												<lut1></lut1>
												<asc_sop></asc_sop>
												<asc_sat></asc_sat>
												<lut2></lut2>
											</colorinfo>
											<labels>
												<label2>Violet</label2>
											</labels>
										</clipitem>
										<enabled>TRUE</enabled>
										<locked>FALSE</locked>
									</track>
									<track TL.SQTrackShy="0" TL.SQTrackExpandedHeight="25" TL.SQTrackExpanded="0" MZ.TrackTargeted="0">
										<transitionitem>
											<start>6</start>
											<end>35</end>
											<alignment>start-black</alignment>
											<cutPointTicks>0</cutPointTicks>
											<rate>
												<timebase>25</timebase>
												<ntsc>FALSE</ntsc>
											</rate>
											<effect>
												<name>Edge Wipe</name>
												<effectid>Edge Wipe</effectid>
												<effectcategory>Wipe</effectcategory>
												<effecttype>transition</effecttype>
												<mediatype>video</mediatype>
												<wipecode>2</wipecode>
												<wipeaccuracy>100</wipeaccuracy>
												<startratio>0</startratio>
												<endratio>1</endratio>
												<reverse>FALSE</reverse>
												<parameter authoringApp="PremierePro">
													<parameterid>directionofwipe</parameterid>
													<name>Angle</name>
													<valuemin>-360</valuemin>
													<valuemax>360</valuemax>
													<value>270</value>
												</parameter>
											</effect>
										</transitionitem>
										<clipitem id="clipitem-1315">
											<masterclipid>masterclip-591</masterclipid>
											<name>11_1.png</name>
											<enabled>TRUE</enabled>
											<duration>1080000</duration>
											<rate>
												<timebase>25</timebase>
												<ntsc>FALSE</ntsc>
											</rate>
											<start>-1</start>
											<end>-1</end>
											<in>90006</in>
											<out>90369</out>
											<pproTicksIn>914518563840000</pproTicksIn>
											<pproTicksOut>918206876160000</pproTicksOut>
											<alphatype>straight</alphatype>
											<pixelaspectratio>square</pixelaspectratio>
											<anamorphic>FALSE</anamorphic>
											<file id="file-489">
												<name>11_1.png</name>
												<pathurl>file://localhost/_MUZ_TV/project_AP/RU/_TITLE/468/PNG/11_1.png</pathurl>
												<rate>
													<timebase>30</timebase>
													<ntsc>TRUE</ntsc>
												</rate>
												<timecode>
													<rate>
														<timebase>30</timebase>
														<ntsc>TRUE</ntsc>
													</rate>
													<string>00;00;00;00</string>
													<frame>0</frame>
													<displayformat>DF</displayformat>
												</timecode>
												<media>
													<video>
														<samplecharacteristics>
															<rate>
																<timebase>30</timebase>
																<ntsc>TRUE</ntsc>
															</rate>
															<width>1920</width>
															<height>1080</height>
															<anamorphic>FALSE</anamorphic>
															<pixelaspectratio>square</pixelaspectratio>
															<fielddominance>none</fielddominance>
														</samplecharacteristics>
													</video>
												</media>
											</file>
											<filter>
												<effect>
													<name>Basic Motion</name>
													<effectid>basic</effectid>
													<effectcategory>motion</effectcategory>
													<effecttype>motion</effecttype>
													<mediatype>video</mediatype>
													<pproBypass>false</pproBypass>
													<parameter authoringApp="PremierePro">
														<parameterid>scale</parameterid>
														<name>Scale</name>
														<valuemin>0</valuemin>
														<valuemax>1000</valuemax>
														<value>53.3333</value>
													</parameter>
													<parameter authoringApp="PremierePro">
														<parameterid>rotation</parameterid>
														<name>Rotation</name>
														<valuemin>-8640</valuemin>
														<valuemax>8640</valuemax>
														<value>0</value>
													</parameter>
													<parameter authoringApp="PremierePro">
														<parameterid>center</parameterid>
														<name>Center</name>
														<value>
															<horiz>0</horiz>
															<vert>0</vert>
														</value>
													</parameter>
													<parameter authoringApp="PremierePro">
														<parameterid>centerOffset</parameterid>
														<name>Anchor Point</name>
														<value>
															<horiz>0</horiz>
															<vert>0</vert>
														</value>
													</parameter>
													<parameter authoringApp="PremierePro">
														<parameterid>antiflicker</parameterid>
														<name>Anti-flicker Filter</name>
														<valuemin>0.0</valuemin>
														<valuemax>1.0</valuemax>
														<value>0</value>
													</parameter>
												</effect>
											</filter>
											<logginginfo>
												<description></description>
												<scene></scene>
												<shottake></shottake>
												<lognote></lognote>
												<good></good>
												<originalvideofilename></originalvideofilename>
												<originalaudiofilename></originalaudiofilename>
											</logginginfo>
											<colorinfo>
												<lut></lut>
												<lut1></lut1>
												<asc_sop></asc_sop>
												<asc_sat></asc_sat>
												<lut2></lut2>
											</colorinfo>
											<labels>
												<label2>Lavender</label2>
											</labels>
										</clipitem>
										<transitionitem>
											<start>344</start>
											<end>369</end>
											<alignment>end-black</alignment>
											<cutPointTicks>254016000000</cutPointTicks>
											<rate>
												<timebase>25</timebase>
												<ntsc>FALSE</ntsc>
											</rate>
											<effect>
												<name>Edge Wipe</name>
												<effectid>Edge Wipe</effectid>
												<effectcategory>Wipe</effectcategory>
												<effecttype>transition</effecttype>
												<mediatype>video</mediatype>
												<wipecode>2</wipecode>
												<wipeaccuracy>100</wipeaccuracy>
												<startratio>0</startratio>
												<endratio>1</endratio>
												<reverse>FALSE</reverse>
												<parameter authoringApp="PremierePro">
													<parameterid>directionofwipe</parameterid>
													<name>Angle</name>
													<valuemin>-360</valuemin>
													<valuemax>360</valuemax>
													<value>90</value>
												</parameter>
											</effect>
										</transitionitem>
										<transitionitem>
											<start>381</start>
											<end>410</end>
											<alignment>start-black</alignment>
											<cutPointTicks>0</cutPointTicks>
											<rate>
												<timebase>25</timebase>
												<ntsc>FALSE</ntsc>
											</rate>
											<effect>
												<name>Edge Wipe</name>
												<effectid>Edge Wipe</effectid>
												<effectcategory>Wipe</effectcategory>
												<effecttype>transition</effecttype>
												<mediatype>video</mediatype>
												<wipecode>2</wipecode>
												<wipeaccuracy>100</wipeaccuracy>
												<startratio>0</startratio>
												<endratio>1</endratio>
												<reverse>FALSE</reverse>
												<parameter authoringApp="PremierePro">
													<parameterid>directionofwipe</parameterid>
													<name>Angle</name>
													<valuemin>-360</valuemin>
													<valuemax>360</valuemax>
													<value>270</value>
												</parameter>
											</effect>
										</transitionitem>
										<clipitem id="clipitem-1316">
											<masterclipid>masterclip-592</masterclipid>
											<name>11_2.png</name>
											<enabled>TRUE</enabled>
											<duration>1080000</duration>
											<rate>
												<timebase>25</timebase>
												<ntsc>FALSE</ntsc>
											</rate>
											<start>-1</start>
											<end>-1</end>
											<in>90011</in>
											<out>90374</out>
											<pproTicksIn>914569367040000</pproTicksIn>
											<pproTicksOut>918257679360000</pproTicksOut>
											<alphatype>straight</alphatype>
											<pixelaspectratio>square</pixelaspectratio>
											<anamorphic>FALSE</anamorphic>
											<file id="file-490">
												<name>11_2.png</name>
												<pathurl>file://localhost/_MUZ_TV/project_AP/RU/_TITLE/468/PNG/11_2.png</pathurl>
												<rate>
													<timebase>30</timebase>
													<ntsc>TRUE</ntsc>
												</rate>
												<timecode>
													<rate>
														<timebase>30</timebase>
														<ntsc>TRUE</ntsc>
													</rate>
													<string>00;00;00;00</string>
													<frame>0</frame>
													<displayformat>DF</displayformat>
												</timecode>
												<media>
													<video>
														<samplecharacteristics>
															<rate>
																<timebase>30</timebase>
																<ntsc>TRUE</ntsc>
															</rate>
															<width>1920</width>
															<height>1080</height>
															<anamorphic>FALSE</anamorphic>
															<pixelaspectratio>square</pixelaspectratio>
															<fielddominance>none</fielddominance>
														</samplecharacteristics>
													</video>
												</media>
											</file>
											<filter>
												<effect>
													<name>Basic Motion</name>
													<effectid>basic</effectid>
													<effectcategory>motion</effectcategory>
													<effecttype>motion</effecttype>
													<mediatype>video</mediatype>
													<pproBypass>false</pproBypass>
													<parameter authoringApp="PremierePro">
														<parameterid>scale</parameterid>
														<name>Scale</name>
														<valuemin>0</valuemin>
														<valuemax>1000</valuemax>
														<value>53.3333</value>
													</parameter>
													<parameter authoringApp="PremierePro">
														<parameterid>rotation</parameterid>
														<name>Rotation</name>
														<valuemin>-8640</valuemin>
														<valuemax>8640</valuemax>
														<value>0</value>
													</parameter>
													<parameter authoringApp="PremierePro">
														<parameterid>center</parameterid>
														<name>Center</name>
														<value>
															<horiz>0</horiz>
															<vert>0</vert>
														</value>
													</parameter>
													<parameter authoringApp="PremierePro">
														<parameterid>centerOffset</parameterid>
														<name>Anchor Point</name>
														<value>
															<horiz>0</horiz>
															<vert>0</vert>
														</value>
													</parameter>
													<parameter authoringApp="PremierePro">
														<parameterid>antiflicker</parameterid>
														<name>Anti-flicker Filter</name>
														<valuemin>0.0</valuemin>
														<valuemax>1.0</valuemax>
														<value>0</value>
													</parameter>
												</effect>
											</filter>
											<logginginfo>
												<description></description>
												<scene></scene>
												<shottake></shottake>
												<lognote></lognote>
												<good></good>
												<originalvideofilename></originalvideofilename>
												<originalaudiofilename></originalaudiofilename>
											</logginginfo>
											<colorinfo>
												<lut></lut>
												<lut1></lut1>
												<asc_sop></asc_sop>
												<asc_sat></asc_sat>
												<lut2></lut2>
											</colorinfo>
											<labels>
												<label2>Lavender</label2>
											</labels>
										</clipitem>
										<transitionitem>
											<start>719</start>
											<end>744</end>
											<alignment>end-black</alignment>
											<cutPointTicks>254016000000</cutPointTicks>
											<rate>
												<timebase>25</timebase>
												<ntsc>FALSE</ntsc>
											</rate>
											<effect>
												<name>Edge Wipe</name>
												<effectid>Edge Wipe</effectid>
												<effectcategory>Wipe</effectcategory>
												<effecttype>transition</effecttype>
												<mediatype>video</mediatype>
												<wipecode>2</wipecode>
												<wipeaccuracy>100</wipeaccuracy>
												<startratio>0</startratio>
												<endratio>1</endratio>
												<reverse>FALSE</reverse>
												<parameter authoringApp="PremierePro">
													<parameterid>directionofwipe</parameterid>
													<name>Angle</name>
													<valuemin>-360</valuemin>
													<valuemax>360</valuemax>
													<value>90</value>
												</parameter>
											</effect>
										</transitionitem>
										<transitionitem>
											<start>756</start>
											<end>785</end>
											<alignment>start-black</alignment>
											<cutPointTicks>0</cutPointTicks>
											<rate>
												<timebase>25</timebase>
												<ntsc>FALSE</ntsc>
											</rate>
											<effect>
												<name>Edge Wipe</name>
												<effectid>Edge Wipe</effectid>
												<effectcategory>Wipe</effectcategory>
												<effecttype>transition</effecttype>
												<mediatype>video</mediatype>
												<wipecode>2</wipecode>
												<wipeaccuracy>100</wipeaccuracy>
												<startratio>0</startratio>
												<endratio>1</endratio>
												<reverse>FALSE</reverse>
												<parameter authoringApp="PremierePro">
													<parameterid>directionofwipe</parameterid>
													<name>Angle</name>
													<valuemin>-360</valuemin>
													<valuemax>360</valuemax>
													<value>270</value>
												</parameter>
											</effect>
										</transitionitem>
										<clipitem id="clipitem-1317">
											<masterclipid>masterclip-593</masterclipid>
											<name>11_3.png</name>
											<enabled>TRUE</enabled>
											<duration>1080000</duration>
											<rate>
												<timebase>25</timebase>
												<ntsc>FALSE</ntsc>
											</rate>
											<start>-1</start>
											<end>-1</end>
											<in>90011</in>
											<out>90375</out>
											<pproTicksIn>914569367040000</pproTicksIn>
											<pproTicksOut>918267840000000</pproTicksOut>
											<alphatype>straight</alphatype>
											<pixelaspectratio>square</pixelaspectratio>
											<anamorphic>FALSE</anamorphic>
											<file id="file-491">
												<name>11_3.png</name>
												<pathurl>file://localhost/_MUZ_TV/project_AP/RU/_TITLE/468/PNG/11_3.png</pathurl>
												<rate>
													<timebase>30</timebase>
													<ntsc>TRUE</ntsc>
												</rate>
												<timecode>
													<rate>
														<timebase>30</timebase>
														<ntsc>TRUE</ntsc>
													</rate>
													<string>00;00;00;00</string>
													<frame>0</frame>
													<displayformat>DF</displayformat>
												</timecode>
												<media>
													<video>
														<samplecharacteristics>
															<rate>
																<timebase>30</timebase>
																<ntsc>TRUE</ntsc>
															</rate>
															<width>1920</width>
															<height>1080</height>
															<anamorphic>FALSE</anamorphic>
															<pixelaspectratio>square</pixelaspectratio>
															<fielddominance>none</fielddominance>
														</samplecharacteristics>
													</video>
												</media>
											</file>
											<filter>
												<effect>
													<name>Basic Motion</name>
													<effectid>basic</effectid>
													<effectcategory>motion</effectcategory>
													<effecttype>motion</effecttype>
													<mediatype>video</mediatype>
													<pproBypass>false</pproBypass>
													<parameter authoringApp="PremierePro">
														<parameterid>scale</parameterid>
														<name>Scale</name>
														<valuemin>0</valuemin>
														<valuemax>1000</valuemax>
														<value>53.3333</value>
													</parameter>
													<parameter authoringApp="PremierePro">
														<parameterid>rotation</parameterid>
														<name>Rotation</name>
														<valuemin>-8640</valuemin>
														<valuemax>8640</valuemax>
														<value>0</value>
													</parameter>
													<parameter authoringApp="PremierePro">
														<parameterid>center</parameterid>
														<name>Center</name>
														<value>
															<horiz>0</horiz>
															<vert>0</vert>
														</value>
													</parameter>
													<parameter authoringApp="PremierePro">
														<parameterid>centerOffset</parameterid>
														<name>Anchor Point</name>
														<value>
															<horiz>0</horiz>
															<vert>0</vert>
														</value>
													</parameter>
													<parameter authoringApp="PremierePro">
														<parameterid>antiflicker</parameterid>
														<name>Anti-flicker Filter</name>
														<valuemin>0.0</valuemin>
														<valuemax>1.0</valuemax>
														<value>0</value>
													</parameter>
												</effect>
											</filter>
											<logginginfo>
												<description></description>
												<scene></scene>
												<shottake></shottake>
												<lognote></lognote>
												<good></good>
												<originalvideofilename></originalvideofilename>
												<originalaudiofilename></originalaudiofilename>
											</logginginfo>
											<colorinfo>
												<lut></lut>
												<lut1></lut1>
												<asc_sop></asc_sop>
												<asc_sat></asc_sat>
												<lut2></lut2>
											</colorinfo>
											<labels>
												<label2>Lavender</label2>
											</labels>
										</clipitem>
										<transitionitem>
											<start>1095</start>
											<end>1120</end>
											<alignment>end-black</alignment>
											<cutPointTicks>254016000000</cutPointTicks>
											<rate>
												<timebase>25</timebase>
												<ntsc>FALSE</ntsc>
											</rate>
											<effect>
												<name>Edge Wipe</name>
												<effectid>Edge Wipe</effectid>
												<effectcategory>Wipe</effectcategory>
												<effecttype>transition</effecttype>
												<mediatype>video</mediatype>
												<wipecode>2</wipecode>
												<wipeaccuracy>100</wipeaccuracy>
												<startratio>0</startratio>
												<endratio>1</endratio>
												<reverse>FALSE</reverse>
												<parameter authoringApp="PremierePro">
													<parameterid>directionofwipe</parameterid>
													<name>Angle</name>
													<valuemin>-360</valuemin>
													<valuemax>360</valuemax>
													<value>90</value>
												</parameter>
											</effect>
										</transitionitem>
										<enabled>TRUE</enabled>
										<locked>FALSE</locked>
									</track>
									<track TL.SQTrackShy="0" TL.SQTrackExpandedHeight="25" TL.SQTrackExpanded="0" MZ.TrackTargeted="0">
										<transitionitem>
											<start>755</start>
											<end>780</end>
											<alignment>start-black</alignment>
											<cutPointTicks>0</cutPointTicks>
											<rate>
												<timebase>25</timebase>
												<ntsc>FALSE</ntsc>
											</rate>
											<effect>
												<name>Edge Wipe</name>
												<effectid>Edge Wipe</effectid>
												<effectcategory>Wipe</effectcategory>
												<effecttype>transition</effecttype>
												<mediatype>video</mediatype>
												<wipecode>2</wipecode>
												<wipeaccuracy>100</wipeaccuracy>
												<startratio>0</startratio>
												<endratio>1</endratio>
												<reverse>FALSE</reverse>
												<parameter authoringApp="PremierePro">
													<parameterid>directionofwipe</parameterid>
													<name>Angle</name>
													<valuemin>-360</valuemin>
													<valuemax>360</valuemax>
													<value>270</value>
												</parameter>
											</effect>
										</transitionitem>
										<clipitem id="clipitem-1318">
											<masterclipid>masterclip-594</masterclipid>
											<name>Graphic</name>
											<enabled>FALSE</enabled>
											<duration>1080000</duration>
											<rate>
												<timebase>25</timebase>
												<ntsc>FALSE</ntsc>
											</rate>
											<start>-1</start>
											<end>-1</end>
											<in>89905</in>
											<out>90272</out>
											<pproTicksIn>913492339200000</pproTicksIn>
											<pproTicksOut>917221294080000</pproTicksOut>
											<alphatype>straight</alphatype>
											<pixelaspectratio>PAL-601</pixelaspectratio>
											<anamorphic>TRUE</anamorphic>
											<file id="file-492">
												<name>Graphic</name>
												<mediaSource>GraphicAndType</mediaSource>
												<rate>
													<timebase>30</timebase>
													<ntsc>TRUE</ntsc>
												</rate>
												<timecode>
													<rate>
														<timebase>30</timebase>
														<ntsc>TRUE</ntsc>
													</rate>
													<string>00;00;00;00</string>
													<frame>0</frame>
													<displayformat>DF</displayformat>
												</timecode>
												<media>
													<video>
														<samplecharacteristics>
															<rate>
																<timebase>30</timebase>
																<ntsc>TRUE</ntsc>
															</rate>
															<width>720</width>
															<height>576</height>
															<anamorphic>TRUE</anamorphic>
															<pixelaspectratio>PAL-601</pixelaspectratio>
															<fielddominance>none</fielddominance>
														</samplecharacteristics>
													</video>
												</media>
											</file>
											<filter>
												<effect>
													<name>Vector Motion</name>
													<effectid>GraphicGroup</effectid>
													<effectcategory>graphic</effectcategory>
													<effecttype>filter</effecttype>
													<mediatype>video</mediatype>
													<pproBypass>false</pproBypass>
													<parameter authoringApp="PremierePro">
														<parameterid>1</parameterid>
														<name>Position</name>
														<IsTimeVarying>false</IsTimeVarying>
														<value>-91445760000000000,0.81693898908787344:0.49085601568222115,0,0,0,0,0,0,5,4,0,0,0,0</value>
													</parameter>
													<parameter authoringApp="PremierePro">
														<parameterid>2</parameterid>
														<name>Scale</name>
														<IsTimeVarying>false</IsTimeVarying>
														<ParameterControlType>2</ParameterControlType>
														<LowerBound>0</LowerBound>
														<UpperBound>10000</UpperBound>
														<UpperUIBound>200</UpperUIBound>
														<value>-91445760000000000,100.,0,0,0,0,0,0</value>
													</parameter>
													<parameter authoringApp="PremierePro">
														<parameterid>3</parameterid>
														<name>Scale Width</name>
														<IsTimeVarying>false</IsTimeVarying>
														<ParameterControlType>2</ParameterControlType>
														<LowerBound>0</LowerBound>
														<UpperBound>10000</UpperBound>
														<UpperUIBound>200</UpperUIBound>
														<value>-91445760000000000,100.,0,0,0,0,0,0</value>
													</parameter>
													<parameter authoringApp="PremierePro">
														<parameterid>4</parameterid>
														<name> </name>
														<IsTimeVarying>false</IsTimeVarying>
														<ParameterControlType>4</ParameterControlType>
														<LowerBound>false</LowerBound>
														<UpperBound>true</UpperBound>
														<value>-91445760000000000,true,0,0,0,0,0,0</value>
													</parameter>
													<parameter authoringApp="PremierePro">
														<parameterid>5</parameterid>
														<name>Rotation</name>
														<IsTimeVarying>false</IsTimeVarying>
														<ParameterControlType>3</ParameterControlType>
														<LowerBound>-32768</LowerBound>
														<UpperBound>32767</UpperBound>
														<value>-91445760000000000,0.,0,0,0,0,0,0</value>
													</parameter>
													<parameter authoringApp="PremierePro">
														<parameterid>6</parameterid>
														<name>Anchor Point</name>
														<IsTimeVarying>false</IsTimeVarying>
														<value>-91445760000000000,0.5:0.5,0,0,0,0,0,0,5,4,0,0,0,0</value>
													</parameter>
												</effect>
											</filter>
											<filter>
												<effect>
													<name>Данил Прытков признаётся, &#13;что сильные провалы &#13;мотивируют его на творчество &#13;не меньше, чем победы. </name>
													<effectid>GraphicAndType</effectid>
													<effectcategory>graphic</effectcategory>
													<effecttype>filter</effecttype>
													<mediatype>video</mediatype>
													<pproBypass>false</pproBypass>
													<pproExpanded>true</pproExpanded>
													<parameter authoringApp="PremierePro">
														<parameterid>1</parameterid>
														<name>Source Text</name>
														<hash>698123b5-7d57-7b79-efb1-b0df00000a31</hash>
													</parameter>
													<parameter authoringApp="PremierePro">
														<parameterid>2</parameterid>
														<name>Transform</name>
														<IsTimeVarying>false</IsTimeVarying>
														<ParameterControlType>11</ParameterControlType>
														<LowerBound>false</LowerBound>
														<UpperBound>false</UpperBound>
														<value>-91445760000000000,false,0,0,0,0,0,0</value>
													</parameter>
													<parameter authoringApp="PremierePro">
														<parameterid>3</parameterid>
														<name>Position</name>
														<IsTimeVarying>false</IsTimeVarying>
														<value>-91445760000000000,0.270416259765625:0.640594482421875,0,0,0,0,0,0,5,4,0,0,0,0</value>
													</parameter>
													<parameter authoringApp="PremierePro">
														<parameterid>4</parameterid>
														<name>Scale</name>
														<IsTimeVarying>false</IsTimeVarying>
														<ParameterControlType>2</ParameterControlType>
														<LowerBound>0</LowerBound>
														<UpperBound>4000</UpperBound>
														<value>-91445760000000000,100.,0,0,0,0,0,0</value>
													</parameter>
													<parameter authoringApp="PremierePro">
														<parameterid>5</parameterid>
														<name>Horizontal Scale</name>
														<IsTimeVarying>false</IsTimeVarying>
														<ParameterControlType>2</ParameterControlType>
														<LowerBound>0</LowerBound>
														<UpperBound>4000</UpperBound>
														<value>-91445760000000000,100.,0,0,0,0,0,0</value>
													</parameter>
													<parameter authoringApp="PremierePro">
														<parameterid>6</parameterid>
														<name> </name>
														<IsTimeVarying>false</IsTimeVarying>
														<ParameterControlType>4</ParameterControlType>
														<LowerBound>false</LowerBound>
														<UpperBound>true</UpperBound>
														<value>-91445760000000000,true,0,0,0,0,0,0</value>
													</parameter>
													<parameter authoringApp="PremierePro">
														<parameterid>7</parameterid>
														<name>Rotation</name>
														<IsTimeVarying>false</IsTimeVarying>
														<ParameterControlType>3</ParameterControlType>
														<LowerBound>-32768</LowerBound>
														<UpperBound>32767</UpperBound>
														<value>-91445760000000000,0.,0,0,0,0,0,0</value>
													</parameter>
													<parameter authoringApp="PremierePro">
														<parameterid>8</parameterid>
														<name>Opacity</name>
														<IsTimeVarying>false</IsTimeVarying>
														<ParameterControlType>2</ParameterControlType>
														<LowerBound>0</LowerBound>
														<UpperBound>100</UpperBound>
														<value>-91445760000000000,100.,0,0,0,0,0,0</value>
													</parameter>
													<parameter authoringApp="PremierePro">
														<parameterid>9</parameterid>
														<name>Anchor Point</name>
														<IsTimeVarying>false</IsTimeVarying>
														<value>-91445760000000000,0:0,0,0,0,0,0,0,5,4,0,0,0,0</value>
													</parameter>
													<parameter authoringApp="PremierePro">
														<parameterid>10</parameterid>
														<name></name>
														<IsTimeVarying>false</IsTimeVarying>
														<ParameterControlType>12</ParameterControlType>
														<LowerBound>false</LowerBound>
														<UpperBound>false</UpperBound>
														<value>-91445760000000000,false,0,0,0,0,0,0</value>
													</parameter>
													<parameter authoringApp="PremierePro">
														<parameterid>11</parameterid>
														<name> </name>
														<IsTimeVarying>false</IsTimeVarying>
														<ParameterControlType>8</ParameterControlType>
														<LowerBound>0</LowerBound>
														<UpperBound>32768</UpperBound>
														<value>-91445760000000000,0.,0,0,0,0,0,0</value>
													</parameter>
													<parameter authoringApp="PremierePro">
														<parameterid>12</parameterid>
														<name> </name>
														<IsTimeVarying>false</IsTimeVarying>
														<ParameterControlType>8</ParameterControlType>
														<LowerBound>0</LowerBound>
														<UpperBound>32768</UpperBound>
														<value>-91445760000000000,0.,0,0,0,0,0,0</value>
													</parameter>
													<parameter authoringApp="PremierePro">
														<parameterid>13</parameterid>
														<name>start</name>
														<IsTimeVarying>false</IsTimeVarying>
														<ParameterControlType>8</ParameterControlType>
														<LowerBound>-100</LowerBound>
														<UpperBound>1000000000</UpperBound>
														<value>-91445760000000000,0.,0,0,0,0,0,0</value>
													</parameter>
													<parameter authoringApp="PremierePro">
														<parameterid>14</parameterid>
														<name>end</name>
														<IsTimeVarying>false</IsTimeVarying>
														<ParameterControlType>8</ParameterControlType>
														<LowerBound>-100</LowerBound>
														<UpperBound>1000000000</UpperBound>
														<value>-91445760000000000,101.,0,0,0,0,0,0</value>
													</parameter>
													<parameter authoringApp="PremierePro">
														<parameterid>15</parameterid>
														<name> </name>
														<IsTimeVarying>false</IsTimeVarying>
														<ParameterControlType>4</ParameterControlType>
														<LowerBound>false</LowerBound>
														<UpperBound>true</UpperBound>
														<value>-91445760000000000,false,0,0,0,0,0,0</value>
													</parameter>
													<parameter authoringApp="PremierePro">
														<parameterid>16</parameterid>
														<name> </name>
														<IsTimeVarying>false</IsTimeVarying>
														<ParameterControlType>4</ParameterControlType>
														<LowerBound>false</LowerBound>
														<UpperBound>true</UpperBound>
														<value>-91445760000000000,false,0,0,0,0,0,0</value>
													</parameter>
													<parameter authoringApp="PremierePro">
														<parameterid>17</parameterid>
														<name> </name>
														<IsTimeVarying>false</IsTimeVarying>
														<ParameterControlType>4</ParameterControlType>
														<LowerBound>false</LowerBound>
														<UpperBound>true</UpperBound>
														<value>-91445760000000000,false,0,0,0,0,0,0</value>
													</parameter>
													<parameter authoringApp="PremierePro">
														<parameterid>18</parameterid>
														<name> </name>
														<IsTimeVarying>false</IsTimeVarying>
														<ParameterControlType>4</ParameterControlType>
														<LowerBound>false</LowerBound>
														<UpperBound>true</UpperBound>
														<value>-91445760000000000,false,0,0,0,0,0,0</value>
													</parameter>
													<parameter authoringApp="PremierePro">
														<parameterid>19</parameterid>
														<name>Parent Width</name>
														<IsTimeVarying>false</IsTimeVarying>
														<ParameterControlType>2</ParameterControlType>
														<LowerBound>0</LowerBound>
														<UpperBound>20000</UpperBound>
														<value>-91445760000000000,0.,0,0,0,0,0,0</value>
													</parameter>
													<parameter authoringApp="PremierePro">
														<parameterid>20</parameterid>
														<name>Parent Height</name>
														<IsTimeVarying>false</IsTimeVarying>
														<ParameterControlType>2</ParameterControlType>
														<LowerBound>0</LowerBound>
														<UpperBound>20000</UpperBound>
														<value>-91445760000000000,0.,0,0,0,0,0,0</value>
													</parameter>
													<parameter authoringApp="PremierePro">
														<parameterid>21</parameterid>
														<name>Parent Rotation</name>
														<IsTimeVarying>false</IsTimeVarying>
														<ParameterControlType>3</ParameterControlType>
														<LowerBound>-32768</LowerBound>
														<UpperBound>32767</UpperBound>
														<value>-91445760000000000,0.,0,0,0,0,0,0</value>
													</parameter>
												</effect>
											</filter>
											<logginginfo>
												<description></description>
												<scene></scene>
												<shottake></shottake>
												<lognote></lognote>
												<good></good>
												<originalvideofilename></originalvideofilename>
												<originalaudiofilename></originalaudiofilename>
											</logginginfo>
											<colorinfo>
												<lut></lut>
												<lut1></lut1>
												<asc_sop></asc_sop>
												<asc_sat></asc_sat>
												<lut2></lut2>
											</colorinfo>
										</clipitem>
										<transitionitem>
											<start>1097</start>
											<end>1122</end>
											<alignment>end-black</alignment>
											<cutPointTicks>254016000000</cutPointTicks>
											<rate>
												<timebase>25</timebase>
												<ntsc>FALSE</ntsc>
											</rate>
											<effect>
												<name>Edge Wipe</name>
												<effectid>Edge Wipe</effectid>
												<effectcategory>Wipe</effectcategory>
												<effecttype>transition</effecttype>
												<mediatype>video</mediatype>
												<wipecode>2</wipecode>
												<wipeaccuracy>100</wipeaccuracy>
												<startratio>0</startratio>
												<endratio>1</endratio>
												<reverse>FALSE</reverse>
												<parameter authoringApp="PremierePro">
													<parameterid>directionofwipe</parameterid>
													<name>Angle</name>
													<valuemin>-360</valuemin>
													<valuemax>360</valuemax>
													<value>90</value>
												</parameter>
											</effect>
										</transitionitem>
										<enabled>TRUE</enabled>
										<locked>FALSE</locked>
									</track>
								</video>
								<audio>
									<numOutputChannels>2</numOutputChannels>
									<format>
										<samplecharacteristics>
											<depth>16</depth>
											<samplerate>48000</samplerate>
										</samplecharacteristics>
									</format>
									<outputs>
										<group>
											<index>1</index>
											<numchannels>1</numchannels>
											<downmix>0</downmix>
											<channel>
												<index>1</index>
											</channel>
										</group>
										<group>
											<index>2</index>
											<numchannels>1</numchannels>
											<downmix>0</downmix>
											<channel>
												<index>2</index>
											</channel>
										</group>
									</outputs>
									<track TL.SQTrackAudioKeyframeStyle="0" TL.SQTrackShy="0" TL.SQTrackExpandedHeight="25" TL.SQTrackExpanded="0" MZ.TrackTargeted="1" PannerCurrentValue="0.5" PannerStartKeyframe="-91445760000000000,0.5,0,0,0,0,0,0" PannerName="Balance" currentExplodedTrackIndex="0" totalExplodedTrackCount="2" premiereTrackType="Stereo">
										<enabled>TRUE</enabled>
										<locked>FALSE</locked>
										<outputchannelindex>1</outputchannelindex>
									</track>
									<track TL.SQTrackAudioKeyframeStyle="0" TL.SQTrackShy="0" TL.SQTrackExpandedHeight="25" TL.SQTrackExpanded="0" MZ.TrackTargeted="1" PannerCurrentValue="0.5" PannerStartKeyframe="-91445760000000000,0.5,0,0,0,0,0,0" PannerName="Balance" currentExplodedTrackIndex="1" totalExplodedTrackCount="2" premiereTrackType="Stereo">
										<enabled>TRUE</enabled>
										<locked>FALSE</locked>
										<outputchannelindex>2</outputchannelindex>
									</track>
								</audio>
							</media>
							<timecode>
								<rate>
									<timebase>25</timebase>
									<ntsc>FALSE</ntsc>
								</rate>
								<string>00:00:00:00</string>
								<frame>0</frame>
								<displayformat>NDF</displayformat>
							</timecode>
								<marker>
									<comment></comment>
									<name></name>
									<in>425</in>
									<out>-1</out>
									<pproColor>4292277273</pproColor>
								</marker>
								<marker>
									<comment></comment>
									<name></name>
									<in>50</in>
									<out>-1</out>
									<pproColor>4292277273</pproColor>
								</marker>
								<marker>
									<comment></comment>
									<name></name>
									<in>800</in>
									<out>-1</out>
									<pproColor>4292277273</pproColor>
								</marker>
							<logginginfo>
								<description></description>
								<scene></scene>
								<shottake></shottake>
								<lognote></lognote>
								<good></good>
								<originalvideofilename></originalvideofilename>
								<originalaudiofilename></originalaudiofilename>
							</logginginfo>
						</sequence>
							<marker>
								<comment></comment>
								<name></name>
								<in>425</in>
								<out>-1</out>
								<pproColor>4292277273</pproColor>
							</marker>
							<marker>
								<comment></comment>
								<name></name>
								<in>50</in>
								<out>-1</out>
								<pproColor>4292277273</pproColor>
							</marker>
							<marker>
								<comment></comment>
								<name></name>
								<in>800</in>
								<out>-1</out>
								<pproColor>4292277273</pproColor>
							</marker>
						<labels>
							<label2>Forest</label2>
						</labels>
					</clipitem>
					<clipitem id="clipitem-1319">
						<masterclipid>masterclip-590</masterclipid>
						<name>11</name>
						<enabled>TRUE</enabled>
						<duration>1125</duration>
						<rate>
							<timebase>25</timebase>
							<ntsc>FALSE</ntsc>
						</rate>
						<start>10476</start>
						<end>10851</end>
						<in>375</in>
						<out>750</out>
						<pproTicksIn>3810240000000</pproTicksIn>
						<pproTicksOut>7620480000000</pproTicksOut>
						<sequence id="sequence-109"/>
							<marker>
								<comment></comment>
								<name></name>
								<in>425</in>
								<out>-1</out>
								<pproColor>4292277273</pproColor>
							</marker>
							<marker>
								<comment></comment>
								<name></name>
								<in>50</in>
								<out>-1</out>
								<pproColor>4292277273</pproColor>
							</marker>
							<marker>
								<comment></comment>
								<name></name>
								<in>800</in>
								<out>-1</out>
								<pproColor>4292277273</pproColor>
							</marker>
						<labels>
							<label2>Forest</label2>
						</labels>
					</clipitem>
					<clipitem id="clipitem-1320">
						<masterclipid>masterclip-590</masterclipid>
						<name>11</name>
						<enabled>TRUE</enabled>
						<duration>1125</duration>
						<rate>
							<timebase>25</timebase>
							<ntsc>FALSE</ntsc>
						</rate>
						<start>11803</start>
						<end>12178</end>
						<in>750</in>
						<out>1125</out>
						<pproTicksIn>7620480000000</pproTicksIn>
						<pproTicksOut>11430720000000</pproTicksOut>
						<sequence id="sequence-109"/>
							<marker>
								<comment></comment>
								<name></name>
								<in>425</in>
								<out>-1</out>
								<pproColor>4292277273</pproColor>
							</marker>
							<marker>
								<comment></comment>
								<name></name>
								<in>50</in>
								<out>-1</out>
								<pproColor>4292277273</pproColor>
							</marker>
							<marker>
								<comment></comment>
								<name></name>
								<in>800</in>
								<out>-1</out>
								<pproColor>4292277273</pproColor>
							</marker>
						<labels>
							<label2>Forest</label2>
						</labels>
					</clipitem>
					<clipitem id="clipitem-1321">
						<masterclipid>masterclip-595</masterclipid>
						<name>10</name>
						<enabled>TRUE</enabled>
						<duration>1125</duration>
						<rate>
							<timebase>25</timebase>
							<ntsc>FALSE</ntsc>
						</rate>
						<start>14825</start>
						<end>15200</end>
						<in>0</in>
						<out>375</out>
						<pproTicksIn>0</pproTicksIn>
						<pproTicksOut>3810240000000</pproTicksOut>
						<sequence id="sequence-110" TL.SQAudioVisibleBase="0" TL.SQVideoVisibleBase="0" TL.SQVisibleBaseTime="0" TL.SQAVDividerPosition="0.5" TL.SQHideShyTracks="0" TL.SQHeaderWidth="236" Monitor.ProgramZoomOut="11430720000000" Monitor.ProgramZoomIn="0" TL.SQTimePerPixel="0.19620667102680814" AM.TrackVScrollPosition="0" AM.TrackScrollPosition="0" MZ.EditLine="9266503680000" MZ.Sequence.PreviewFrameSizeHeight="576" MZ.Sequence.PreviewFrameSizeWidth="720" MZ.Sequence.AudioTimeDisplayFormat="200" MZ.Sequence.PreviewRenderingClassID="1061109567" MZ.Sequence.PreviewRenderingPresetCodec="1685480304" MZ.Sequence.PreviewRenderingPresetPath="EncoderPresets/SequencePreview/04be6e19-a018-4e0c-a9d6-0ab44c64752b/QuickTime DV PAL.epr" MZ.Sequence.PreviewUseMaxRenderQuality="false" MZ.Sequence.PreviewUseMaxBitDepth="false" MZ.Sequence.EditingModeGUID="04be6e19-a018-4e0c-a9d6-0ab44c64752b" MZ.Sequence.VideoTimeDisplayFormat="101" MZ.WorkOutPoint="11430720000000" MZ.WorkInPoint="0" MZ.ZeroPoint="0">
							<duration>1125</duration>
							<rate>
								<timebase>25</timebase>
								<ntsc>FALSE</ntsc>
							</rate>
							<name>RU_Nested</name>
							<media>
								<video>
									<format>
										<samplecharacteristics>
											<rate>
												<timebase>25</timebase>
												<ntsc>FALSE</ntsc>
											</rate>
											<codec>
												<name>Apple ProRes 422</name>
												<appspecificdata>
													<appname>Final Cut Pro</appname>
													<appmanufacturer>Apple Inc.</appmanufacturer>
													<appversion>7.0</appversion>
													<data>
														<qtcodec>
															<codecname>Apple ProRes 422</codecname>
															<codectypename>Apple ProRes 422</codectypename>
															<codectypecode>apcn</codectypecode>
															<codecvendorcode>appl</codecvendorcode>
															<spatialquality>1024</spatialquality>
															<temporalquality>0</temporalquality>
															<keyframerate>0</keyframerate>
															<datarate>0</datarate>
														</qtcodec>
													</data>
												</appspecificdata>
											</codec>
											<width>720</width>
											<height>576</height>
											<anamorphic>TRUE</anamorphic>
											<pixelaspectratio>PAL-601</pixelaspectratio>
											<fielddominance>lower</fielddominance>
											<colordepth>24</colordepth>
										</samplecharacteristics>
									</format>
									<track TL.SQTrackShy="0" TL.SQTrackExpandedHeight="25" TL.SQTrackExpanded="0" MZ.TrackTargeted="1">
										<clipitem id="clipitem-1322">
											<masterclipid>masterclip-585</masterclipid>
											<name>Plashka_Right_DV.mov</name>
											<enabled>TRUE</enabled>
											<duration>375</duration>
											<rate>
												<timebase>25</timebase>
												<ntsc>FALSE</ntsc>
											</rate>
											<start>0</start>
											<end>375</end>
											<in>0</in>
											<out>375</out>
											<pproTicksIn>0</pproTicksIn>
											<pproTicksOut>3810240000000</pproTicksOut>
											<alphatype>straight</alphatype>
											<file id="file-484"/>
											<filter>
												<effect>
													<name>Basic Motion</name>
													<effectid>basic</effectid>
													<effectcategory>motion</effectcategory>
													<effecttype>motion</effecttype>
													<mediatype>video</mediatype>
													<pproBypass>false</pproBypass>
													<parameter authoringApp="PremierePro">
														<parameterid>scale</parameterid>
														<name>Scale</name>
														<valuemin>0</valuemin>
														<valuemax>1000</valuemax>
														<value>100</value>
													</parameter>
													<parameter authoringApp="PremierePro">
														<parameterid>rotation</parameterid>
														<name>Rotation</name>
														<valuemin>-8640</valuemin>
														<valuemax>8640</valuemax>
														<value>0</value>
													</parameter>
													<parameter authoringApp="PremierePro">
														<parameterid>center</parameterid>
														<name>Center</name>
														<value>
															<horiz>-5.55112e-17</horiz>
															<vert>-1.11022e-16</vert>
														</value>
													</parameter>
													<parameter authoringApp="PremierePro">
														<parameterid>centerOffset</parameterid>
														<name>Anchor Point</name>
														<value>
															<horiz>0.402314</horiz>
															<vert>0.41875</vert>
														</value>
													</parameter>
													<parameter authoringApp="PremierePro">
														<parameterid>antiflicker</parameterid>
														<name>Anti-flicker Filter</name>
														<valuemin>0.0</valuemin>
														<valuemax>1.0</valuemax>
														<value>0</value>
													</parameter>
												</effect>
											</filter>
											<filter>
												<effect>
													<name>Distort</name>
													<effectid>deformation</effectid>
													<effectcategory>motion</effectcategory>
													<effecttype>motion</effecttype>
													<mediatype>video</mediatype>
													<parameter authoringApp="PremierePro">
														<parameterid>aspect</parameterid>
														<name>Aspect</name>
														<valuemin>-10000</valuemin>
														<valuemax>10000</valuemax>
														<value>9.89011</value>
													</parameter>
												</effect>
											</filter>
											<logginginfo>
												<description></description>
												<scene></scene>
												<shottake></shottake>
												<lognote></lognote>
												<good></good>
												<originalvideofilename></originalvideofilename>
												<originalaudiofilename></originalaudiofilename>
											</logginginfo>
											<colorinfo>
												<lut></lut>
												<lut1></lut1>
												<asc_sop></asc_sop>
												<asc_sat></asc_sat>
												<lut2></lut2>
											</colorinfo>
											<labels>
												<label2>Violet</label2>
											</labels>
										</clipitem>
										<clipitem id="clipitem-1323">
											<masterclipid>masterclip-585</masterclipid>
											<name>Plashka_Right_DV.mov</name>
											<enabled>TRUE</enabled>
											<duration>375</duration>
											<rate>
												<timebase>25</timebase>
												<ntsc>FALSE</ntsc>
											</rate>
											<start>375</start>
											<end>750</end>
											<in>0</in>
											<out>375</out>
											<pproTicksIn>0</pproTicksIn>
											<pproTicksOut>3810240000000</pproTicksOut>
											<alphatype>straight</alphatype>
											<file id="file-484"/>
											<filter>
												<effect>
													<name>Basic Motion</name>
													<effectid>basic</effectid>
													<effectcategory>motion</effectcategory>
													<effecttype>motion</effecttype>
													<mediatype>video</mediatype>
													<pproBypass>false</pproBypass>
													<parameter authoringApp="PremierePro">
														<parameterid>scale</parameterid>
														<name>Scale</name>
														<valuemin>0</valuemin>
														<valuemax>1000</valuemax>
														<value>100</value>
													</parameter>
													<parameter authoringApp="PremierePro">
														<parameterid>rotation</parameterid>
														<name>Rotation</name>
														<valuemin>-8640</valuemin>
														<valuemax>8640</valuemax>
														<value>0</value>
													</parameter>
													<parameter authoringApp="PremierePro">
														<parameterid>center</parameterid>
														<name>Center</name>
														<value>
															<horiz>-5.55112e-17</horiz>
															<vert>-1.11022e-16</vert>
														</value>
													</parameter>
													<parameter authoringApp="PremierePro">
														<parameterid>centerOffset</parameterid>
														<name>Anchor Point</name>
														<value>
															<horiz>0.402314</horiz>
															<vert>0.41875</vert>
														</value>
													</parameter>
													<parameter authoringApp="PremierePro">
														<parameterid>antiflicker</parameterid>
														<name>Anti-flicker Filter</name>
														<valuemin>0.0</valuemin>
														<valuemax>1.0</valuemax>
														<value>0</value>
													</parameter>
												</effect>
											</filter>
											<filter>
												<effect>
													<name>Distort</name>
													<effectid>deformation</effectid>
													<effectcategory>motion</effectcategory>
													<effecttype>motion</effecttype>
													<mediatype>video</mediatype>
													<parameter authoringApp="PremierePro">
														<parameterid>aspect</parameterid>
														<name>Aspect</name>
														<valuemin>-10000</valuemin>
														<valuemax>10000</valuemax>
														<value>28.2051</value>
													</parameter>
												</effect>
											</filter>
											<logginginfo>
												<description></description>
												<scene></scene>
												<shottake></shottake>
												<lognote></lognote>
												<good></good>
												<originalvideofilename></originalvideofilename>
												<originalaudiofilename></originalaudiofilename>
											</logginginfo>
											<colorinfo>
												<lut></lut>
												<lut1></lut1>
												<asc_sop></asc_sop>
												<asc_sat></asc_sat>
												<lut2></lut2>
											</colorinfo>
											<labels>
												<label2>Violet</label2>
											</labels>
										</clipitem>
										<clipitem id="clipitem-1324">
											<masterclipid>masterclip-585</masterclipid>
											<name>Plashka_Right_DV.mov</name>
											<enabled>TRUE</enabled>
											<duration>375</duration>
											<rate>
												<timebase>25</timebase>
												<ntsc>FALSE</ntsc>
											</rate>
											<start>750</start>
											<end>1125</end>
											<in>0</in>
											<out>375</out>
											<pproTicksIn>0</pproTicksIn>
											<pproTicksOut>3810240000000</pproTicksOut>
											<alphatype>straight</alphatype>
											<file id="file-484"/>
											<filter>
												<effect>
													<name>Basic Motion</name>
													<effectid>basic</effectid>
													<effectcategory>motion</effectcategory>
													<effecttype>motion</effecttype>
													<mediatype>video</mediatype>
													<pproBypass>false</pproBypass>
													<parameter authoringApp="PremierePro">
														<parameterid>scale</parameterid>
														<name>Scale</name>
														<valuemin>0</valuemin>
														<valuemax>1000</valuemax>
														<value>100</value>
													</parameter>
													<parameter authoringApp="PremierePro">
														<parameterid>rotation</parameterid>
														<name>Rotation</name>
														<valuemin>-8640</valuemin>
														<valuemax>8640</valuemax>
														<value>0</value>
													</parameter>
													<parameter authoringApp="PremierePro">
														<parameterid>center</parameterid>
														<name>Center</name>
														<value>
															<horiz>-5.55112e-17</horiz>
															<vert>-1.11022e-16</vert>
														</value>
													</parameter>
													<parameter authoringApp="PremierePro">
														<parameterid>centerOffset</parameterid>
														<name>Anchor Point</name>
														<value>
															<horiz>0.402314</horiz>
															<vert>0.41875</vert>
														</value>
													</parameter>
													<parameter authoringApp="PremierePro">
														<parameterid>antiflicker</parameterid>
														<name>Anti-flicker Filter</name>
														<valuemin>0.0</valuemin>
														<valuemax>1.0</valuemax>
														<value>0</value>
													</parameter>
												</effect>
											</filter>
											<filter>
												<effect>
													<name>Distort</name>
													<effectid>deformation</effectid>
													<effectcategory>motion</effectcategory>
													<effecttype>motion</effecttype>
													<mediatype>video</mediatype>
													<parameter authoringApp="PremierePro">
														<parameterid>aspect</parameterid>
														<name>Aspect</name>
														<valuemin>-10000</valuemin>
														<valuemax>10000</valuemax>
														<value>25</value>
													</parameter>
												</effect>
											</filter>
											<logginginfo>
												<description></description>
												<scene></scene>
												<shottake></shottake>
												<lognote></lognote>
												<good></good>
												<originalvideofilename></originalvideofilename>
												<originalaudiofilename></originalaudiofilename>
											</logginginfo>
											<colorinfo>
												<lut></lut>
												<lut1></lut1>
												<asc_sop></asc_sop>
												<asc_sat></asc_sat>
												<lut2></lut2>
											</colorinfo>
											<labels>
												<label2>Violet</label2>
											</labels>
										</clipitem>
										<enabled>TRUE</enabled>
										<locked>FALSE</locked>
									</track>
									<track TL.SQTrackShy="0" TL.SQTrackExpandedHeight="25" TL.SQTrackExpanded="0" MZ.TrackTargeted="0">
										<transitionitem>
											<start>6</start>
											<end>35</end>
											<alignment>start-black</alignment>
											<cutPointTicks>0</cutPointTicks>
											<rate>
												<timebase>25</timebase>
												<ntsc>FALSE</ntsc>
											</rate>
											<effect>
												<name>Edge Wipe</name>
												<effectid>Edge Wipe</effectid>
												<effectcategory>Wipe</effectcategory>
												<effecttype>transition</effecttype>
												<mediatype>video</mediatype>
												<wipecode>2</wipecode>
												<wipeaccuracy>100</wipeaccuracy>
												<startratio>0</startratio>
												<endratio>1</endratio>
												<reverse>FALSE</reverse>
												<parameter authoringApp="PremierePro">
													<parameterid>directionofwipe</parameterid>
													<name>Angle</name>
													<valuemin>-360</valuemin>
													<valuemax>360</valuemax>
													<value>270</value>
												</parameter>
											</effect>
										</transitionitem>
										<clipitem id="clipitem-1325">
											<masterclipid>masterclip-596</masterclipid>
											<name>10_1.png</name>
											<enabled>TRUE</enabled>
											<duration>1080000</duration>
											<rate>
												<timebase>25</timebase>
												<ntsc>FALSE</ntsc>
											</rate>
											<start>-1</start>
											<end>-1</end>
											<in>90006</in>
											<out>90369</out>
											<pproTicksIn>914518563840000</pproTicksIn>
											<pproTicksOut>918206876160000</pproTicksOut>
											<alphatype>straight</alphatype>
											<pixelaspectratio>square</pixelaspectratio>
											<anamorphic>FALSE</anamorphic>
											<file id="file-493">
												<name>10_1.png</name>
												<pathurl>file://localhost/_MUZ_TV/project_AP/RU/_TITLE/468/PNG/10_1.png</pathurl>
												<rate>
													<timebase>30</timebase>
													<ntsc>TRUE</ntsc>
												</rate>
												<timecode>
													<rate>
														<timebase>30</timebase>
														<ntsc>TRUE</ntsc>
													</rate>
													<string>00;00;00;00</string>
													<frame>0</frame>
													<displayformat>DF</displayformat>
												</timecode>
												<media>
													<video>
														<samplecharacteristics>
															<rate>
																<timebase>30</timebase>
																<ntsc>TRUE</ntsc>
															</rate>
															<width>1920</width>
															<height>1080</height>
															<anamorphic>FALSE</anamorphic>
															<pixelaspectratio>square</pixelaspectratio>
															<fielddominance>none</fielddominance>
														</samplecharacteristics>
													</video>
												</media>
											</file>
											<filter>
												<effect>
													<name>Basic Motion</name>
													<effectid>basic</effectid>
													<effectcategory>motion</effectcategory>
													<effecttype>motion</effecttype>
													<mediatype>video</mediatype>
													<pproBypass>false</pproBypass>
													<parameter authoringApp="PremierePro">
														<parameterid>scale</parameterid>
														<name>Scale</name>
														<valuemin>0</valuemin>
														<valuemax>1000</valuemax>
														<value>53.3333</value>
													</parameter>
													<parameter authoringApp="PremierePro">
														<parameterid>rotation</parameterid>
														<name>Rotation</name>
														<valuemin>-8640</valuemin>
														<valuemax>8640</valuemax>
														<value>0</value>
													</parameter>
													<parameter authoringApp="PremierePro">
														<parameterid>center</parameterid>
														<name>Center</name>
														<value>
															<horiz>0</horiz>
															<vert>0</vert>
														</value>
													</parameter>
													<parameter authoringApp="PremierePro">
														<parameterid>centerOffset</parameterid>
														<name>Anchor Point</name>
														<value>
															<horiz>0</horiz>
															<vert>0</vert>
														</value>
													</parameter>
													<parameter authoringApp="PremierePro">
														<parameterid>antiflicker</parameterid>
														<name>Anti-flicker Filter</name>
														<valuemin>0.0</valuemin>
														<valuemax>1.0</valuemax>
														<value>0</value>
													</parameter>
												</effect>
											</filter>
											<logginginfo>
												<description></description>
												<scene></scene>
												<shottake></shottake>
												<lognote></lognote>
												<good></good>
												<originalvideofilename></originalvideofilename>
												<originalaudiofilename></originalaudiofilename>
											</logginginfo>
											<colorinfo>
												<lut></lut>
												<lut1></lut1>
												<asc_sop></asc_sop>
												<asc_sat></asc_sat>
												<lut2></lut2>
											</colorinfo>
											<labels>
												<label2>Lavender</label2>
											</labels>
										</clipitem>
										<transitionitem>
											<start>344</start>
											<end>369</end>
											<alignment>end-black</alignment>
											<cutPointTicks>254016000000</cutPointTicks>
											<rate>
												<timebase>25</timebase>
												<ntsc>FALSE</ntsc>
											</rate>
											<effect>
												<name>Edge Wipe</name>
												<effectid>Edge Wipe</effectid>
												<effectcategory>Wipe</effectcategory>
												<effecttype>transition</effecttype>
												<mediatype>video</mediatype>
												<wipecode>2</wipecode>
												<wipeaccuracy>100</wipeaccuracy>
												<startratio>0</startratio>
												<endratio>1</endratio>
												<reverse>FALSE</reverse>
												<parameter authoringApp="PremierePro">
													<parameterid>directionofwipe</parameterid>
													<name>Angle</name>
													<valuemin>-360</valuemin>
													<valuemax>360</valuemax>
													<value>90</value>
												</parameter>
											</effect>
										</transitionitem>
										<transitionitem>
											<start>381</start>
											<end>410</end>
											<alignment>start-black</alignment>
											<cutPointTicks>0</cutPointTicks>
											<rate>
												<timebase>25</timebase>
												<ntsc>FALSE</ntsc>
											</rate>
											<effect>
												<name>Edge Wipe</name>
												<effectid>Edge Wipe</effectid>
												<effectcategory>Wipe</effectcategory>
												<effecttype>transition</effecttype>
												<mediatype>video</mediatype>
												<wipecode>2</wipecode>
												<wipeaccuracy>100</wipeaccuracy>
												<startratio>0</startratio>
												<endratio>1</endratio>
												<reverse>FALSE</reverse>
												<parameter authoringApp="PremierePro">
													<parameterid>directionofwipe</parameterid>
													<name>Angle</name>
													<valuemin>-360</valuemin>
													<valuemax>360</valuemax>
													<value>270</value>
												</parameter>
											</effect>
										</transitionitem>
										<clipitem id="clipitem-1326">
											<masterclipid>masterclip-597</masterclipid>
											<name>10_2.png</name>
											<enabled>TRUE</enabled>
											<duration>1080000</duration>
											<rate>
												<timebase>25</timebase>
												<ntsc>FALSE</ntsc>
											</rate>
											<start>-1</start>
											<end>-1</end>
											<in>90011</in>
											<out>90374</out>
											<pproTicksIn>914569367040000</pproTicksIn>
											<pproTicksOut>918257679360000</pproTicksOut>
											<alphatype>straight</alphatype>
											<pixelaspectratio>square</pixelaspectratio>
											<anamorphic>FALSE</anamorphic>
											<file id="file-494">
												<name>10_2.png</name>
												<pathurl>file://localhost/_MUZ_TV/project_AP/RU/_TITLE/468/PNG/10_2.png</pathurl>
												<rate>
													<timebase>30</timebase>
													<ntsc>TRUE</ntsc>
												</rate>
												<timecode>
													<rate>
														<timebase>30</timebase>
														<ntsc>TRUE</ntsc>
													</rate>
													<string>00;00;00;00</string>
													<frame>0</frame>
													<displayformat>DF</displayformat>
												</timecode>
												<media>
													<video>
														<samplecharacteristics>
															<rate>
																<timebase>30</timebase>
																<ntsc>TRUE</ntsc>
															</rate>
															<width>1920</width>
															<height>1080</height>
															<anamorphic>FALSE</anamorphic>
															<pixelaspectratio>square</pixelaspectratio>
															<fielddominance>none</fielddominance>
														</samplecharacteristics>
													</video>
												</media>
											</file>
											<filter>
												<effect>
													<name>Basic Motion</name>
													<effectid>basic</effectid>
													<effectcategory>motion</effectcategory>
													<effecttype>motion</effecttype>
													<mediatype>video</mediatype>
													<pproBypass>false</pproBypass>
													<parameter authoringApp="PremierePro">
														<parameterid>scale</parameterid>
														<name>Scale</name>
														<valuemin>0</valuemin>
														<valuemax>1000</valuemax>
														<value>53.3333</value>
													</parameter>
													<parameter authoringApp="PremierePro">
														<parameterid>rotation</parameterid>
														<name>Rotation</name>
														<valuemin>-8640</valuemin>
														<valuemax>8640</valuemax>
														<value>0</value>
													</parameter>
													<parameter authoringApp="PremierePro">
														<parameterid>center</parameterid>
														<name>Center</name>
														<value>
															<horiz>0</horiz>
															<vert>0</vert>
														</value>
													</parameter>
													<parameter authoringApp="PremierePro">
														<parameterid>centerOffset</parameterid>
														<name>Anchor Point</name>
														<value>
															<horiz>0</horiz>
															<vert>0</vert>
														</value>
													</parameter>
													<parameter authoringApp="PremierePro">
														<parameterid>antiflicker</parameterid>
														<name>Anti-flicker Filter</name>
														<valuemin>0.0</valuemin>
														<valuemax>1.0</valuemax>
														<value>0</value>
													</parameter>
												</effect>
											</filter>
											<logginginfo>
												<description></description>
												<scene></scene>
												<shottake></shottake>
												<lognote></lognote>
												<good></good>
												<originalvideofilename></originalvideofilename>
												<originalaudiofilename></originalaudiofilename>
											</logginginfo>
											<colorinfo>
												<lut></lut>
												<lut1></lut1>
												<asc_sop></asc_sop>
												<asc_sat></asc_sat>
												<lut2></lut2>
											</colorinfo>
											<labels>
												<label2>Lavender</label2>
											</labels>
										</clipitem>
										<transitionitem>
											<start>719</start>
											<end>744</end>
											<alignment>end-black</alignment>
											<cutPointTicks>254016000000</cutPointTicks>
											<rate>
												<timebase>25</timebase>
												<ntsc>FALSE</ntsc>
											</rate>
											<effect>
												<name>Edge Wipe</name>
												<effectid>Edge Wipe</effectid>
												<effectcategory>Wipe</effectcategory>
												<effecttype>transition</effecttype>
												<mediatype>video</mediatype>
												<wipecode>2</wipecode>
												<wipeaccuracy>100</wipeaccuracy>
												<startratio>0</startratio>
												<endratio>1</endratio>
												<reverse>FALSE</reverse>
												<parameter authoringApp="PremierePro">
													<parameterid>directionofwipe</parameterid>
													<name>Angle</name>
													<valuemin>-360</valuemin>
													<valuemax>360</valuemax>
													<value>90</value>
												</parameter>
											</effect>
										</transitionitem>
										<transitionitem>
											<start>756</start>
											<end>785</end>
											<alignment>start-black</alignment>
											<cutPointTicks>0</cutPointTicks>
											<rate>
												<timebase>25</timebase>
												<ntsc>FALSE</ntsc>
											</rate>
											<effect>
												<name>Edge Wipe</name>
												<effectid>Edge Wipe</effectid>
												<effectcategory>Wipe</effectcategory>
												<effecttype>transition</effecttype>
												<mediatype>video</mediatype>
												<wipecode>2</wipecode>
												<wipeaccuracy>100</wipeaccuracy>
												<startratio>0</startratio>
												<endratio>1</endratio>
												<reverse>FALSE</reverse>
												<parameter authoringApp="PremierePro">
													<parameterid>directionofwipe</parameterid>
													<name>Angle</name>
													<valuemin>-360</valuemin>
													<valuemax>360</valuemax>
													<value>270</value>
												</parameter>
											</effect>
										</transitionitem>
										<clipitem id="clipitem-1327">
											<masterclipid>masterclip-598</masterclipid>
											<name>10_3.png</name>
											<enabled>TRUE</enabled>
											<duration>1080000</duration>
											<rate>
												<timebase>25</timebase>
												<ntsc>FALSE</ntsc>
											</rate>
											<start>-1</start>
											<end>-1</end>
											<in>90011</in>
											<out>90375</out>
											<pproTicksIn>914569367040000</pproTicksIn>
											<pproTicksOut>918267840000000</pproTicksOut>
											<alphatype>straight</alphatype>
											<pixelaspectratio>square</pixelaspectratio>
											<anamorphic>FALSE</anamorphic>
											<file id="file-495">
												<name>10_3.png</name>
												<pathurl>file://localhost/_MUZ_TV/project_AP/RU/_TITLE/468/PNG/10_3.png</pathurl>
												<rate>
													<timebase>30</timebase>
													<ntsc>TRUE</ntsc>
												</rate>
												<timecode>
													<rate>
														<timebase>30</timebase>
														<ntsc>TRUE</ntsc>
													</rate>
													<string>00;00;00;00</string>
													<frame>0</frame>
													<displayformat>DF</displayformat>
												</timecode>
												<media>
													<video>
														<samplecharacteristics>
															<rate>
																<timebase>30</timebase>
																<ntsc>TRUE</ntsc>
															</rate>
															<width>1920</width>
															<height>1080</height>
															<anamorphic>FALSE</anamorphic>
															<pixelaspectratio>square</pixelaspectratio>
															<fielddominance>none</fielddominance>
														</samplecharacteristics>
													</video>
												</media>
											</file>
											<filter>
												<effect>
													<name>Basic Motion</name>
													<effectid>basic</effectid>
													<effectcategory>motion</effectcategory>
													<effecttype>motion</effecttype>
													<mediatype>video</mediatype>
													<pproBypass>false</pproBypass>
													<parameter authoringApp="PremierePro">
														<parameterid>scale</parameterid>
														<name>Scale</name>
														<valuemin>0</valuemin>
														<valuemax>1000</valuemax>
														<value>53.3333</value>
													</parameter>
													<parameter authoringApp="PremierePro">
														<parameterid>rotation</parameterid>
														<name>Rotation</name>
														<valuemin>-8640</valuemin>
														<valuemax>8640</valuemax>
														<value>0</value>
													</parameter>
													<parameter authoringApp="PremierePro">
														<parameterid>center</parameterid>
														<name>Center</name>
														<value>
															<horiz>0</horiz>
															<vert>0</vert>
														</value>
													</parameter>
													<parameter authoringApp="PremierePro">
														<parameterid>centerOffset</parameterid>
														<name>Anchor Point</name>
														<value>
															<horiz>0</horiz>
															<vert>0</vert>
														</value>
													</parameter>
													<parameter authoringApp="PremierePro">
														<parameterid>antiflicker</parameterid>
														<name>Anti-flicker Filter</name>
														<valuemin>0.0</valuemin>
														<valuemax>1.0</valuemax>
														<value>0</value>
													</parameter>
												</effect>
											</filter>
											<logginginfo>
												<description></description>
												<scene></scene>
												<shottake></shottake>
												<lognote></lognote>
												<good></good>
												<originalvideofilename></originalvideofilename>
												<originalaudiofilename></originalaudiofilename>
											</logginginfo>
											<colorinfo>
												<lut></lut>
												<lut1></lut1>
												<asc_sop></asc_sop>
												<asc_sat></asc_sat>
												<lut2></lut2>
											</colorinfo>
											<labels>
												<label2>Lavender</label2>
											</labels>
										</clipitem>
										<transitionitem>
											<start>1095</start>
											<end>1120</end>
											<alignment>end-black</alignment>
											<cutPointTicks>254016000000</cutPointTicks>
											<rate>
												<timebase>25</timebase>
												<ntsc>FALSE</ntsc>
											</rate>
											<effect>
												<name>Edge Wipe</name>
												<effectid>Edge Wipe</effectid>
												<effectcategory>Wipe</effectcategory>
												<effecttype>transition</effecttype>
												<mediatype>video</mediatype>
												<wipecode>2</wipecode>
												<wipeaccuracy>100</wipeaccuracy>
												<startratio>0</startratio>
												<endratio>1</endratio>
												<reverse>FALSE</reverse>
												<parameter authoringApp="PremierePro">
													<parameterid>directionofwipe</parameterid>
													<name>Angle</name>
													<valuemin>-360</valuemin>
													<valuemax>360</valuemax>
													<value>90</value>
												</parameter>
											</effect>
										</transitionitem>
										<enabled>TRUE</enabled>
										<locked>FALSE</locked>
									</track>
									<track TL.SQTrackShy="0" TL.SQTrackExpandedHeight="25" TL.SQTrackExpanded="0" MZ.TrackTargeted="0">
										<transitionitem>
											<start>755</start>
											<end>780</end>
											<alignment>start-black</alignment>
											<cutPointTicks>0</cutPointTicks>
											<rate>
												<timebase>25</timebase>
												<ntsc>FALSE</ntsc>
											</rate>
											<effect>
												<name>Edge Wipe</name>
												<effectid>Edge Wipe</effectid>
												<effectcategory>Wipe</effectcategory>
												<effecttype>transition</effecttype>
												<mediatype>video</mediatype>
												<wipecode>2</wipecode>
												<wipeaccuracy>100</wipeaccuracy>
												<startratio>0</startratio>
												<endratio>1</endratio>
												<reverse>FALSE</reverse>
												<parameter authoringApp="PremierePro">
													<parameterid>directionofwipe</parameterid>
													<name>Angle</name>
													<valuemin>-360</valuemin>
													<valuemax>360</valuemax>
													<value>270</value>
												</parameter>
											</effect>
										</transitionitem>
										<clipitem id="clipitem-1328">
											<masterclipid>masterclip-599</masterclipid>
											<name>Graphic</name>
											<enabled>FALSE</enabled>
											<duration>1080000</duration>
											<rate>
												<timebase>25</timebase>
												<ntsc>FALSE</ntsc>
											</rate>
											<start>-1</start>
											<end>-1</end>
											<in>89905</in>
											<out>90272</out>
											<pproTicksIn>913492339200000</pproTicksIn>
											<pproTicksOut>917221294080000</pproTicksOut>
											<alphatype>straight</alphatype>
											<pixelaspectratio>PAL-601</pixelaspectratio>
											<anamorphic>TRUE</anamorphic>
											<file id="file-496">
												<name>Graphic</name>
												<mediaSource>GraphicAndType</mediaSource>
												<rate>
													<timebase>30</timebase>
													<ntsc>TRUE</ntsc>
												</rate>
												<timecode>
													<rate>
														<timebase>30</timebase>
														<ntsc>TRUE</ntsc>
													</rate>
													<string>00;00;00;00</string>
													<frame>0</frame>
													<displayformat>DF</displayformat>
												</timecode>
												<media>
													<video>
														<samplecharacteristics>
															<rate>
																<timebase>30</timebase>
																<ntsc>TRUE</ntsc>
															</rate>
															<width>720</width>
															<height>576</height>
															<anamorphic>TRUE</anamorphic>
															<pixelaspectratio>PAL-601</pixelaspectratio>
															<fielddominance>none</fielddominance>
														</samplecharacteristics>
													</video>
												</media>
											</file>
											<filter>
												<effect>
													<name>Vector Motion</name>
													<effectid>GraphicGroup</effectid>
													<effectcategory>graphic</effectcategory>
													<effecttype>filter</effecttype>
													<mediatype>video</mediatype>
													<pproBypass>false</pproBypass>
													<parameter authoringApp="PremierePro">
														<parameterid>1</parameterid>
														<name>Position</name>
														<IsTimeVarying>false</IsTimeVarying>
														<value>-91445760000000000,0.81693898908787344:0.49085601568222115,0,0,0,0,0,0,5,4,0,0,0,0</value>
													</parameter>
													<parameter authoringApp="PremierePro">
														<parameterid>2</parameterid>
														<name>Scale</name>
														<IsTimeVarying>false</IsTimeVarying>
														<ParameterControlType>2</ParameterControlType>
														<LowerBound>0</LowerBound>
														<UpperBound>10000</UpperBound>
														<UpperUIBound>200</UpperUIBound>
														<value>-91445760000000000,100.,0,0,0,0,0,0</value>
													</parameter>
													<parameter authoringApp="PremierePro">
														<parameterid>3</parameterid>
														<name>Scale Width</name>
														<IsTimeVarying>false</IsTimeVarying>
														<ParameterControlType>2</ParameterControlType>
														<LowerBound>0</LowerBound>
														<UpperBound>10000</UpperBound>
														<UpperUIBound>200</UpperUIBound>
														<value>-91445760000000000,100.,0,0,0,0,0,0</value>
													</parameter>
													<parameter authoringApp="PremierePro">
														<parameterid>4</parameterid>
														<name> </name>
														<IsTimeVarying>false</IsTimeVarying>
														<ParameterControlType>4</ParameterControlType>
														<LowerBound>false</LowerBound>
														<UpperBound>true</UpperBound>
														<value>-91445760000000000,true,0,0,0,0,0,0</value>
													</parameter>
													<parameter authoringApp="PremierePro">
														<parameterid>5</parameterid>
														<name>Rotation</name>
														<IsTimeVarying>false</IsTimeVarying>
														<ParameterControlType>3</ParameterControlType>
														<LowerBound>-32768</LowerBound>
														<UpperBound>32767</UpperBound>
														<value>-91445760000000000,0.,0,0,0,0,0,0</value>
													</parameter>
													<parameter authoringApp="PremierePro">
														<parameterid>6</parameterid>
														<name>Anchor Point</name>
														<IsTimeVarying>false</IsTimeVarying>
														<value>-91445760000000000,0.5:0.5,0,0,0,0,0,0,5,4,0,0,0,0</value>
													</parameter>
												</effect>
											</filter>
											<filter>
												<effect>
													<name>Данил Прытков признаётся, &#13;что сильные провалы &#13;мотивируют его на творчество &#13;не меньше, чем победы. </name>
													<effectid>GraphicAndType</effectid>
													<effectcategory>graphic</effectcategory>
													<effecttype>filter</effecttype>
													<mediatype>video</mediatype>
													<pproBypass>false</pproBypass>
													<pproExpanded>true</pproExpanded>
													<parameter authoringApp="PremierePro">
														<parameterid>1</parameterid>
														<name>Source Text</name>
														<hash>698123b5-7d57-7b79-efb1-b0df00000a31</hash>
													</parameter>
													<parameter authoringApp="PremierePro">
														<parameterid>2</parameterid>
														<name>Transform</name>
														<IsTimeVarying>false</IsTimeVarying>
														<ParameterControlType>11</ParameterControlType>
														<LowerBound>false</LowerBound>
														<UpperBound>false</UpperBound>
														<value>-91445760000000000,false,0,0,0,0,0,0</value>
													</parameter>
													<parameter authoringApp="PremierePro">
														<parameterid>3</parameterid>
														<name>Position</name>
														<IsTimeVarying>false</IsTimeVarying>
														<value>-91445760000000000,0.270416259765625:0.640594482421875,0,0,0,0,0,0,5,4,0,0,0,0</value>
													</parameter>
													<parameter authoringApp="PremierePro">
														<parameterid>4</parameterid>
														<name>Scale</name>
														<IsTimeVarying>false</IsTimeVarying>
														<ParameterControlType>2</ParameterControlType>
														<LowerBound>0</LowerBound>
														<UpperBound>4000</UpperBound>
														<value>-91445760000000000,100.,0,0,0,0,0,0</value>
													</parameter>
													<parameter authoringApp="PremierePro">
														<parameterid>5</parameterid>
														<name>Horizontal Scale</name>
														<IsTimeVarying>false</IsTimeVarying>
														<ParameterControlType>2</ParameterControlType>
														<LowerBound>0</LowerBound>
														<UpperBound>4000</UpperBound>
														<value>-91445760000000000,100.,0,0,0,0,0,0</value>
													</parameter>
													<parameter authoringApp="PremierePro">
														<parameterid>6</parameterid>
														<name> </name>
														<IsTimeVarying>false</IsTimeVarying>
														<ParameterControlType>4</ParameterControlType>
														<LowerBound>false</LowerBound>
														<UpperBound>true</UpperBound>
														<value>-91445760000000000,true,0,0,0,0,0,0</value>
													</parameter>
													<parameter authoringApp="PremierePro">
														<parameterid>7</parameterid>
														<name>Rotation</name>
														<IsTimeVarying>false</IsTimeVarying>
														<ParameterControlType>3</ParameterControlType>
														<LowerBound>-32768</LowerBound>
														<UpperBound>32767</UpperBound>
														<value>-91445760000000000,0.,0,0,0,0,0,0</value>
													</parameter>
													<parameter authoringApp="PremierePro">
														<parameterid>8</parameterid>
														<name>Opacity</name>
														<IsTimeVarying>false</IsTimeVarying>
														<ParameterControlType>2</ParameterControlType>
														<LowerBound>0</LowerBound>
														<UpperBound>100</UpperBound>
														<value>-91445760000000000,100.,0,0,0,0,0,0</value>
													</parameter>
													<parameter authoringApp="PremierePro">
														<parameterid>9</parameterid>
														<name>Anchor Point</name>
														<IsTimeVarying>false</IsTimeVarying>
														<value>-91445760000000000,0:0,0,0,0,0,0,0,5,4,0,0,0,0</value>
													</parameter>
													<parameter authoringApp="PremierePro">
														<parameterid>10</parameterid>
														<name></name>
														<IsTimeVarying>false</IsTimeVarying>
														<ParameterControlType>12</ParameterControlType>
														<LowerBound>false</LowerBound>
														<UpperBound>false</UpperBound>
														<value>-91445760000000000,false,0,0,0,0,0,0</value>
													</parameter>
													<parameter authoringApp="PremierePro">
														<parameterid>11</parameterid>
														<name> </name>
														<IsTimeVarying>false</IsTimeVarying>
														<ParameterControlType>8</ParameterControlType>
														<LowerBound>0</LowerBound>
														<UpperBound>32768</UpperBound>
														<value>-91445760000000000,0.,0,0,0,0,0,0</value>
													</parameter>
													<parameter authoringApp="PremierePro">
														<parameterid>12</parameterid>
														<name> </name>
														<IsTimeVarying>false</IsTimeVarying>
														<ParameterControlType>8</ParameterControlType>
														<LowerBound>0</LowerBound>
														<UpperBound>32768</UpperBound>
														<value>-91445760000000000,0.,0,0,0,0,0,0</value>
													</parameter>
													<parameter authoringApp="PremierePro">
														<parameterid>13</parameterid>
														<name>start</name>
														<IsTimeVarying>false</IsTimeVarying>
														<ParameterControlType>8</ParameterControlType>
														<LowerBound>-100</LowerBound>
														<UpperBound>1000000000</UpperBound>
														<value>-91445760000000000,0.,0,0,0,0,0,0</value>
													</parameter>
													<parameter authoringApp="PremierePro">
														<parameterid>14</parameterid>
														<name>end</name>
														<IsTimeVarying>false</IsTimeVarying>
														<ParameterControlType>8</ParameterControlType>
														<LowerBound>-100</LowerBound>
														<UpperBound>1000000000</UpperBound>
														<value>-91445760000000000,101.,0,0,0,0,0,0</value>
													</parameter>
													<parameter authoringApp="PremierePro">
														<parameterid>15</parameterid>
														<name> </name>
														<IsTimeVarying>false</IsTimeVarying>
														<ParameterControlType>4</ParameterControlType>
														<LowerBound>false</LowerBound>
														<UpperBound>true</UpperBound>
														<value>-91445760000000000,false,0,0,0,0,0,0</value>
													</parameter>
													<parameter authoringApp="PremierePro">
														<parameterid>16</parameterid>
														<name> </name>
														<IsTimeVarying>false</IsTimeVarying>
														<ParameterControlType>4</ParameterControlType>
														<LowerBound>false</LowerBound>
														<UpperBound>true</UpperBound>
														<value>-91445760000000000,false,0,0,0,0,0,0</value>
													</parameter>
													<parameter authoringApp="PremierePro">
														<parameterid>17</parameterid>
														<name> </name>
														<IsTimeVarying>false</IsTimeVarying>
														<ParameterControlType>4</ParameterControlType>
														<LowerBound>false</LowerBound>
														<UpperBound>true</UpperBound>
														<value>-91445760000000000,false,0,0,0,0,0,0</value>
													</parameter>
													<parameter authoringApp="PremierePro">
														<parameterid>18</parameterid>
														<name> </name>
														<IsTimeVarying>false</IsTimeVarying>
														<ParameterControlType>4</ParameterControlType>
														<LowerBound>false</LowerBound>
														<UpperBound>true</UpperBound>
														<value>-91445760000000000,false,0,0,0,0,0,0</value>
													</parameter>
													<parameter authoringApp="PremierePro">
														<parameterid>19</parameterid>
														<name>Parent Width</name>
														<IsTimeVarying>false</IsTimeVarying>
														<ParameterControlType>2</ParameterControlType>
														<LowerBound>0</LowerBound>
														<UpperBound>20000</UpperBound>
														<value>-91445760000000000,0.,0,0,0,0,0,0</value>
													</parameter>
													<parameter authoringApp="PremierePro">
														<parameterid>20</parameterid>
														<name>Parent Height</name>
														<IsTimeVarying>false</IsTimeVarying>
														<ParameterControlType>2</ParameterControlType>
														<LowerBound>0</LowerBound>
														<UpperBound>20000</UpperBound>
														<value>-91445760000000000,0.,0,0,0,0,0,0</value>
													</parameter>
													<parameter authoringApp="PremierePro">
														<parameterid>21</parameterid>
														<name>Parent Rotation</name>
														<IsTimeVarying>false</IsTimeVarying>
														<ParameterControlType>3</ParameterControlType>
														<LowerBound>-32768</LowerBound>
														<UpperBound>32767</UpperBound>
														<value>-91445760000000000,0.,0,0,0,0,0,0</value>
													</parameter>
												</effect>
											</filter>
											<logginginfo>
												<description></description>
												<scene></scene>
												<shottake></shottake>
												<lognote></lognote>
												<good></good>
												<originalvideofilename></originalvideofilename>
												<originalaudiofilename></originalaudiofilename>
											</logginginfo>
											<colorinfo>
												<lut></lut>
												<lut1></lut1>
												<asc_sop></asc_sop>
												<asc_sat></asc_sat>
												<lut2></lut2>
											</colorinfo>
										</clipitem>
										<transitionitem>
											<start>1097</start>
											<end>1122</end>
											<alignment>end-black</alignment>
											<cutPointTicks>254016000000</cutPointTicks>
											<rate>
												<timebase>25</timebase>
												<ntsc>FALSE</ntsc>
											</rate>
											<effect>
												<name>Edge Wipe</name>
												<effectid>Edge Wipe</effectid>
												<effectcategory>Wipe</effectcategory>
												<effecttype>transition</effecttype>
												<mediatype>video</mediatype>
												<wipecode>2</wipecode>
												<wipeaccuracy>100</wipeaccuracy>
												<startratio>0</startratio>
												<endratio>1</endratio>
												<reverse>FALSE</reverse>
												<parameter authoringApp="PremierePro">
													<parameterid>directionofwipe</parameterid>
													<name>Angle</name>
													<valuemin>-360</valuemin>
													<valuemax>360</valuemax>
													<value>90</value>
												</parameter>
											</effect>
										</transitionitem>
										<enabled>TRUE</enabled>
										<locked>FALSE</locked>
									</track>
								</video>
								<audio>
									<numOutputChannels>2</numOutputChannels>
									<format>
										<samplecharacteristics>
											<depth>16</depth>
											<samplerate>48000</samplerate>
										</samplecharacteristics>
									</format>
									<outputs>
										<group>
											<index>1</index>
											<numchannels>1</numchannels>
											<downmix>0</downmix>
											<channel>
												<index>1</index>
											</channel>
										</group>
										<group>
											<index>2</index>
											<numchannels>1</numchannels>
											<downmix>0</downmix>
											<channel>
												<index>2</index>
											</channel>
										</group>
									</outputs>
									<track TL.SQTrackAudioKeyframeStyle="0" TL.SQTrackShy="0" TL.SQTrackExpandedHeight="25" TL.SQTrackExpanded="0" MZ.TrackTargeted="1" PannerCurrentValue="0.5" PannerStartKeyframe="-91445760000000000,0.5,0,0,0,0,0,0" PannerName="Balance" currentExplodedTrackIndex="0" totalExplodedTrackCount="2" premiereTrackType="Stereo">
										<enabled>TRUE</enabled>
										<locked>FALSE</locked>
										<outputchannelindex>1</outputchannelindex>
									</track>
									<track TL.SQTrackAudioKeyframeStyle="0" TL.SQTrackShy="0" TL.SQTrackExpandedHeight="25" TL.SQTrackExpanded="0" MZ.TrackTargeted="1" PannerCurrentValue="0.5" PannerStartKeyframe="-91445760000000000,0.5,0,0,0,0,0,0" PannerName="Balance" currentExplodedTrackIndex="1" totalExplodedTrackCount="2" premiereTrackType="Stereo">
										<enabled>TRUE</enabled>
										<locked>FALSE</locked>
										<outputchannelindex>2</outputchannelindex>
									</track>
								</audio>
							</media>
							<timecode>
								<rate>
									<timebase>25</timebase>
									<ntsc>FALSE</ntsc>
								</rate>
								<string>00:00:00:00</string>
								<frame>0</frame>
								<displayformat>NDF</displayformat>
							</timecode>
								<marker>
									<comment></comment>
									<name></name>
									<in>800</in>
									<out>-1</out>
									<pproColor>4292277273</pproColor>
								</marker>
								<marker>
									<comment></comment>
									<name></name>
									<in>425</in>
									<out>-1</out>
									<pproColor>4292277273</pproColor>
								</marker>
								<marker>
									<comment></comment>
									<name></name>
									<in>50</in>
									<out>-1</out>
									<pproColor>4292277273</pproColor>
								</marker>
							<logginginfo>
								<description></description>
								<scene></scene>
								<shottake></shottake>
								<lognote></lognote>
								<good></good>
								<originalvideofilename></originalvideofilename>
								<originalaudiofilename></originalaudiofilename>
							</logginginfo>
						</sequence>
							<marker>
								<comment></comment>
								<name></name>
								<in>800</in>
								<out>-1</out>
								<pproColor>4292277273</pproColor>
							</marker>
							<marker>
								<comment></comment>
								<name></name>
								<in>425</in>
								<out>-1</out>
								<pproColor>4292277273</pproColor>
							</marker>
							<marker>
								<comment></comment>
								<name></name>
								<in>50</in>
								<out>-1</out>
								<pproColor>4292277273</pproColor>
							</marker>
						<labels>
							<label2>Forest</label2>
						</labels>
					</clipitem>
					<clipitem id="clipitem-1329">
						<masterclipid>masterclip-595</masterclipid>
						<name>10</name>
						<enabled>TRUE</enabled>
						<duration>1125</duration>
						<rate>
							<timebase>25</timebase>
							<ntsc>FALSE</ntsc>
						</rate>
						<start>16241</start>
						<end>16616</end>
						<in>375</in>
						<out>750</out>
						<pproTicksIn>3810240000000</pproTicksIn>
						<pproTicksOut>7620480000000</pproTicksOut>
						<sequence id="sequence-110"/>
							<marker>
								<comment></comment>
								<name></name>
								<in>800</in>
								<out>-1</out>
								<pproColor>4292277273</pproColor>
							</marker>
							<marker>
								<comment></comment>
								<name></name>
								<in>425</in>
								<out>-1</out>
								<pproColor>4292277273</pproColor>
							</marker>
							<marker>
								<comment></comment>
								<name></name>
								<in>50</in>
								<out>-1</out>
								<pproColor>4292277273</pproColor>
							</marker>
						<labels>
							<label2>Forest</label2>
						</labels>
					</clipitem>
					<clipitem id="clipitem-1330">
						<masterclipid>masterclip-595</masterclipid>
						<name>10</name>
						<enabled>TRUE</enabled>
						<duration>1125</duration>
						<rate>
							<timebase>25</timebase>
							<ntsc>FALSE</ntsc>
						</rate>
						<start>17697</start>
						<end>18072</end>
						<in>750</in>
						<out>1125</out>
						<pproTicksIn>7620480000000</pproTicksIn>
						<pproTicksOut>11430720000000</pproTicksOut>
						<sequence id="sequence-110"/>
							<marker>
								<comment></comment>
								<name></name>
								<in>800</in>
								<out>-1</out>
								<pproColor>4292277273</pproColor>
							</marker>
							<marker>
								<comment></comment>
								<name></name>
								<in>425</in>
								<out>-1</out>
								<pproColor>4292277273</pproColor>
							</marker>
							<marker>
								<comment></comment>
								<name></name>
								<in>50</in>
								<out>-1</out>
								<pproColor>4292277273</pproColor>
							</marker>
						<labels>
							<label2>Forest</label2>
						</labels>
					</clipitem>
					<clipitem id="clipitem-1331">
						<masterclipid>masterclip-600</masterclipid>
						<name>9</name>
						<enabled>TRUE</enabled>
						<duration>1125</duration>
						<rate>
							<timebase>25</timebase>
							<ntsc>FALSE</ntsc>
						</rate>
						<start>21021</start>
						<end>21396</end>
						<in>0</in>
						<out>375</out>
						<pproTicksIn>0</pproTicksIn>
						<pproTicksOut>3810240000000</pproTicksOut>
						<sequence id="sequence-111" TL.SQAudioVisibleBase="0" TL.SQVideoVisibleBase="0" TL.SQVisibleBaseTime="0" TL.SQAVDividerPosition="0.5" TL.SQHideShyTracks="0" TL.SQHeaderWidth="236" Monitor.ProgramZoomOut="7620480000000" Monitor.ProgramZoomIn="0" TL.SQTimePerPixel="0.19620667102680814" AM.TrackVScrollPosition="0" AM.TrackScrollPosition="0" MZ.EditLine="10119997440000" MZ.Sequence.PreviewFrameSizeHeight="576" MZ.Sequence.PreviewFrameSizeWidth="720" MZ.Sequence.AudioTimeDisplayFormat="200" MZ.Sequence.PreviewRenderingClassID="1061109567" MZ.Sequence.PreviewRenderingPresetCodec="1685480304" MZ.Sequence.PreviewRenderingPresetPath="EncoderPresets/SequencePreview/04be6e19-a018-4e0c-a9d6-0ab44c64752b/QuickTime DV PAL.epr" MZ.Sequence.PreviewUseMaxRenderQuality="false" MZ.Sequence.PreviewUseMaxBitDepth="false" MZ.Sequence.EditingModeGUID="04be6e19-a018-4e0c-a9d6-0ab44c64752b" MZ.Sequence.VideoTimeDisplayFormat="101" MZ.WorkOutPoint="11430720000000" MZ.WorkInPoint="0" MZ.ZeroPoint="0">
							<duration>750</duration>
							<rate>
								<timebase>25</timebase>
								<ntsc>FALSE</ntsc>
							</rate>
							<name>RU_Nested</name>
							<media>
								<video>
									<format>
										<samplecharacteristics>
											<rate>
												<timebase>25</timebase>
												<ntsc>FALSE</ntsc>
											</rate>
											<codec>
												<name>Apple ProRes 422</name>
												<appspecificdata>
													<appname>Final Cut Pro</appname>
													<appmanufacturer>Apple Inc.</appmanufacturer>
													<appversion>7.0</appversion>
													<data>
														<qtcodec>
															<codecname>Apple ProRes 422</codecname>
															<codectypename>Apple ProRes 422</codectypename>
															<codectypecode>apcn</codectypecode>
															<codecvendorcode>appl</codecvendorcode>
															<spatialquality>1024</spatialquality>
															<temporalquality>0</temporalquality>
															<keyframerate>0</keyframerate>
															<datarate>0</datarate>
														</qtcodec>
													</data>
												</appspecificdata>
											</codec>
											<width>720</width>
											<height>576</height>
											<anamorphic>TRUE</anamorphic>
											<pixelaspectratio>PAL-601</pixelaspectratio>
											<fielddominance>lower</fielddominance>
											<colordepth>24</colordepth>
										</samplecharacteristics>
									</format>
									<track TL.SQTrackShy="0" TL.SQTrackExpandedHeight="25" TL.SQTrackExpanded="0" MZ.TrackTargeted="1">
										<clipitem id="clipitem-1332">
											<masterclipid>masterclip-585</masterclipid>
											<name>Plashka_Right_DV.mov</name>
											<enabled>TRUE</enabled>
											<duration>375</duration>
											<rate>
												<timebase>25</timebase>
												<ntsc>FALSE</ntsc>
											</rate>
											<start>0</start>
											<end>375</end>
											<in>0</in>
											<out>375</out>
											<pproTicksIn>0</pproTicksIn>
											<pproTicksOut>3810240000000</pproTicksOut>
											<alphatype>straight</alphatype>
											<file id="file-484"/>
											<filter>
												<effect>
													<name>Basic Motion</name>
													<effectid>basic</effectid>
													<effectcategory>motion</effectcategory>
													<effecttype>motion</effecttype>
													<mediatype>video</mediatype>
													<pproBypass>false</pproBypass>
													<parameter authoringApp="PremierePro">
														<parameterid>scale</parameterid>
														<name>Scale</name>
														<valuemin>0</valuemin>
														<valuemax>1000</valuemax>
														<value>100</value>
													</parameter>
													<parameter authoringApp="PremierePro">
														<parameterid>rotation</parameterid>
														<name>Rotation</name>
														<valuemin>-8640</valuemin>
														<valuemax>8640</valuemax>
														<value>0</value>
													</parameter>
													<parameter authoringApp="PremierePro">
														<parameterid>center</parameterid>
														<name>Center</name>
														<value>
															<horiz>-5.55112e-17</horiz>
															<vert>-1.11022e-16</vert>
														</value>
													</parameter>
													<parameter authoringApp="PremierePro">
														<parameterid>centerOffset</parameterid>
														<name>Anchor Point</name>
														<value>
															<horiz>0.402314</horiz>
															<vert>0.41875</vert>
														</value>
													</parameter>
													<parameter authoringApp="PremierePro">
														<parameterid>antiflicker</parameterid>
														<name>Anti-flicker Filter</name>
														<valuemin>0.0</valuemin>
														<valuemax>1.0</valuemax>
														<value>0</value>
													</parameter>
												</effect>
											</filter>
											<filter>
												<effect>
													<name>Distort</name>
													<effectid>deformation</effectid>
													<effectcategory>motion</effectcategory>
													<effecttype>motion</effecttype>
													<mediatype>video</mediatype>
													<parameter authoringApp="PremierePro">
														<parameterid>aspect</parameterid>
														<name>Aspect</name>
														<valuemin>-10000</valuemin>
														<valuemax>10000</valuemax>
														<value>25</value>
													</parameter>
												</effect>
											</filter>
											<logginginfo>
												<description></description>
												<scene></scene>
												<shottake></shottake>
												<lognote></lognote>
												<good></good>
												<originalvideofilename></originalvideofilename>
												<originalaudiofilename></originalaudiofilename>
											</logginginfo>
											<colorinfo>
												<lut></lut>
												<lut1></lut1>
												<asc_sop></asc_sop>
												<asc_sat></asc_sat>
												<lut2></lut2>
											</colorinfo>
											<labels>
												<label2>Violet</label2>
											</labels>
										</clipitem>
										<clipitem id="clipitem-1333">
											<masterclipid>masterclip-585</masterclipid>
											<name>Plashka_Right_DV.mov</name>
											<enabled>TRUE</enabled>
											<duration>375</duration>
											<rate>
												<timebase>25</timebase>
												<ntsc>FALSE</ntsc>
											</rate>
											<start>375</start>
											<end>750</end>
											<in>0</in>
											<out>375</out>
											<pproTicksIn>0</pproTicksIn>
											<pproTicksOut>3810240000000</pproTicksOut>
											<alphatype>straight</alphatype>
											<file id="file-484"/>
											<filter>
												<effect>
													<name>Basic Motion</name>
													<effectid>basic</effectid>
													<effectcategory>motion</effectcategory>
													<effecttype>motion</effecttype>
													<mediatype>video</mediatype>
													<pproBypass>false</pproBypass>
													<parameter authoringApp="PremierePro">
														<parameterid>scale</parameterid>
														<name>Scale</name>
														<valuemin>0</valuemin>
														<valuemax>1000</valuemax>
														<value>100</value>
													</parameter>
													<parameter authoringApp="PremierePro">
														<parameterid>rotation</parameterid>
														<name>Rotation</name>
														<valuemin>-8640</valuemin>
														<valuemax>8640</valuemax>
														<value>0</value>
													</parameter>
													<parameter authoringApp="PremierePro">
														<parameterid>center</parameterid>
														<name>Center</name>
														<value>
															<horiz>-5.55112e-17</horiz>
															<vert>-1.11022e-16</vert>
														</value>
													</parameter>
													<parameter authoringApp="PremierePro">
														<parameterid>centerOffset</parameterid>
														<name>Anchor Point</name>
														<value>
															<horiz>0.402314</horiz>
															<vert>0.41875</vert>
														</value>
													</parameter>
													<parameter authoringApp="PremierePro">
														<parameterid>antiflicker</parameterid>
														<name>Anti-flicker Filter</name>
														<valuemin>0.0</valuemin>
														<valuemax>1.0</valuemax>
														<value>0</value>
													</parameter>
												</effect>
											</filter>
											<filter>
												<effect>
													<name>Distort</name>
													<effectid>deformation</effectid>
													<effectcategory>motion</effectcategory>
													<effecttype>motion</effecttype>
													<mediatype>video</mediatype>
													<parameter authoringApp="PremierePro">
														<parameterid>aspect</parameterid>
														<name>Aspect</name>
														<valuemin>-10000</valuemin>
														<valuemax>10000</valuemax>
														<value>33.3333</value>
													</parameter>
												</effect>
											</filter>
											<logginginfo>
												<description></description>
												<scene></scene>
												<shottake></shottake>
												<lognote></lognote>
												<good></good>
												<originalvideofilename></originalvideofilename>
												<originalaudiofilename></originalaudiofilename>
											</logginginfo>
											<colorinfo>
												<lut></lut>
												<lut1></lut1>
												<asc_sop></asc_sop>
												<asc_sat></asc_sat>
												<lut2></lut2>
											</colorinfo>
											<labels>
												<label2>Violet</label2>
											</labels>
										</clipitem>
										<enabled>TRUE</enabled>
										<locked>FALSE</locked>
									</track>
									<track TL.SQTrackShy="0" TL.SQTrackExpandedHeight="25" TL.SQTrackExpanded="0" MZ.TrackTargeted="0">
										<transitionitem>
											<start>6</start>
											<end>35</end>
											<alignment>start-black</alignment>
											<cutPointTicks>0</cutPointTicks>
											<rate>
												<timebase>25</timebase>
												<ntsc>FALSE</ntsc>
											</rate>
											<effect>
												<name>Edge Wipe</name>
												<effectid>Edge Wipe</effectid>
												<effectcategory>Wipe</effectcategory>
												<effecttype>transition</effecttype>
												<mediatype>video</mediatype>
												<wipecode>2</wipecode>
												<wipeaccuracy>100</wipeaccuracy>
												<startratio>0</startratio>
												<endratio>1</endratio>
												<reverse>FALSE</reverse>
												<parameter authoringApp="PremierePro">
													<parameterid>directionofwipe</parameterid>
													<name>Angle</name>
													<valuemin>-360</valuemin>
													<valuemax>360</valuemax>
													<value>270</value>
												</parameter>
											</effect>
										</transitionitem>
										<clipitem id="clipitem-1334">
											<masterclipid>masterclip-601</masterclipid>
											<name>9_1.png</name>
											<enabled>TRUE</enabled>
											<duration>1080000</duration>
											<rate>
												<timebase>25</timebase>
												<ntsc>FALSE</ntsc>
											</rate>
											<start>-1</start>
											<end>-1</end>
											<in>90006</in>
											<out>90369</out>
											<pproTicksIn>914518563840000</pproTicksIn>
											<pproTicksOut>918206876160000</pproTicksOut>
											<alphatype>straight</alphatype>
											<pixelaspectratio>square</pixelaspectratio>
											<anamorphic>FALSE</anamorphic>
											<file id="file-497">
												<name>9_1.png</name>
												<pathurl>file://localhost/_MUZ_TV/project_AP/RU/_TITLE/468/PNG/9_1.png</pathurl>
												<rate>
													<timebase>30</timebase>
													<ntsc>TRUE</ntsc>
												</rate>
												<timecode>
													<rate>
														<timebase>30</timebase>
														<ntsc>TRUE</ntsc>
													</rate>
													<string>00;00;00;00</string>
													<frame>0</frame>
													<displayformat>DF</displayformat>
												</timecode>
												<media>
													<video>
														<samplecharacteristics>
															<rate>
																<timebase>30</timebase>
																<ntsc>TRUE</ntsc>
															</rate>
															<width>1920</width>
															<height>1080</height>
															<anamorphic>FALSE</anamorphic>
															<pixelaspectratio>square</pixelaspectratio>
															<fielddominance>none</fielddominance>
														</samplecharacteristics>
													</video>
												</media>
											</file>
											<filter>
												<effect>
													<name>Basic Motion</name>
													<effectid>basic</effectid>
													<effectcategory>motion</effectcategory>
													<effecttype>motion</effecttype>
													<mediatype>video</mediatype>
													<pproBypass>false</pproBypass>
													<parameter authoringApp="PremierePro">
														<parameterid>scale</parameterid>
														<name>Scale</name>
														<valuemin>0</valuemin>
														<valuemax>1000</valuemax>
														<value>53.3333</value>
													</parameter>
													<parameter authoringApp="PremierePro">
														<parameterid>rotation</parameterid>
														<name>Rotation</name>
														<valuemin>-8640</valuemin>
														<valuemax>8640</valuemax>
														<value>0</value>
													</parameter>
													<parameter authoringApp="PremierePro">
														<parameterid>center</parameterid>
														<name>Center</name>
														<value>
															<horiz>0</horiz>
															<vert>0</vert>
														</value>
													</parameter>
													<parameter authoringApp="PremierePro">
														<parameterid>centerOffset</parameterid>
														<name>Anchor Point</name>
														<value>
															<horiz>0</horiz>
															<vert>0</vert>
														</value>
													</parameter>
													<parameter authoringApp="PremierePro">
														<parameterid>antiflicker</parameterid>
														<name>Anti-flicker Filter</name>
														<valuemin>0.0</valuemin>
														<valuemax>1.0</valuemax>
														<value>0</value>
													</parameter>
												</effect>
											</filter>
											<logginginfo>
												<description></description>
												<scene></scene>
												<shottake></shottake>
												<lognote></lognote>
												<good></good>
												<originalvideofilename></originalvideofilename>
												<originalaudiofilename></originalaudiofilename>
											</logginginfo>
											<colorinfo>
												<lut></lut>
												<lut1></lut1>
												<asc_sop></asc_sop>
												<asc_sat></asc_sat>
												<lut2></lut2>
											</colorinfo>
											<labels>
												<label2>Lavender</label2>
											</labels>
										</clipitem>
										<transitionitem>
											<start>344</start>
											<end>369</end>
											<alignment>end-black</alignment>
											<cutPointTicks>254016000000</cutPointTicks>
											<rate>
												<timebase>25</timebase>
												<ntsc>FALSE</ntsc>
											</rate>
											<effect>
												<name>Edge Wipe</name>
												<effectid>Edge Wipe</effectid>
												<effectcategory>Wipe</effectcategory>
												<effecttype>transition</effecttype>
												<mediatype>video</mediatype>
												<wipecode>2</wipecode>
												<wipeaccuracy>100</wipeaccuracy>
												<startratio>0</startratio>
												<endratio>1</endratio>
												<reverse>FALSE</reverse>
												<parameter authoringApp="PremierePro">
													<parameterid>directionofwipe</parameterid>
													<name>Angle</name>
													<valuemin>-360</valuemin>
													<valuemax>360</valuemax>
													<value>90</value>
												</parameter>
											</effect>
										</transitionitem>
										<transitionitem>
											<start>381</start>
											<end>410</end>
											<alignment>start-black</alignment>
											<cutPointTicks>0</cutPointTicks>
											<rate>
												<timebase>25</timebase>
												<ntsc>FALSE</ntsc>
											</rate>
											<effect>
												<name>Edge Wipe</name>
												<effectid>Edge Wipe</effectid>
												<effectcategory>Wipe</effectcategory>
												<effecttype>transition</effecttype>
												<mediatype>video</mediatype>
												<wipecode>2</wipecode>
												<wipeaccuracy>100</wipeaccuracy>
												<startratio>0</startratio>
												<endratio>1</endratio>
												<reverse>FALSE</reverse>
												<parameter authoringApp="PremierePro">
													<parameterid>directionofwipe</parameterid>
													<name>Angle</name>
													<valuemin>-360</valuemin>
													<valuemax>360</valuemax>
													<value>270</value>
												</parameter>
											</effect>
										</transitionitem>
										<clipitem id="clipitem-1335">
											<masterclipid>masterclip-602</masterclipid>
											<name>9_2.png</name>
											<enabled>TRUE</enabled>
											<duration>1080000</duration>
											<rate>
												<timebase>25</timebase>
												<ntsc>FALSE</ntsc>
											</rate>
											<start>-1</start>
											<end>-1</end>
											<in>90011</in>
											<out>90374</out>
											<pproTicksIn>914569367040000</pproTicksIn>
											<pproTicksOut>918257679360000</pproTicksOut>
											<alphatype>straight</alphatype>
											<pixelaspectratio>square</pixelaspectratio>
											<anamorphic>FALSE</anamorphic>
											<file id="file-498">
												<name>9_2.png</name>
												<pathurl>file://localhost/_MUZ_TV/project_AP/RU/_TITLE/468/PNG/9_2.png</pathurl>
												<rate>
													<timebase>30</timebase>
													<ntsc>TRUE</ntsc>
												</rate>
												<timecode>
													<rate>
														<timebase>30</timebase>
														<ntsc>TRUE</ntsc>
													</rate>
													<string>00;00;00;00</string>
													<frame>0</frame>
													<displayformat>DF</displayformat>
												</timecode>
												<media>
													<video>
														<samplecharacteristics>
															<rate>
																<timebase>30</timebase>
																<ntsc>TRUE</ntsc>
															</rate>
															<width>1920</width>
															<height>1080</height>
															<anamorphic>FALSE</anamorphic>
															<pixelaspectratio>square</pixelaspectratio>
															<fielddominance>none</fielddominance>
														</samplecharacteristics>
													</video>
												</media>
											</file>
											<filter>
												<effect>
													<name>Basic Motion</name>
													<effectid>basic</effectid>
													<effectcategory>motion</effectcategory>
													<effecttype>motion</effecttype>
													<mediatype>video</mediatype>
													<pproBypass>false</pproBypass>
													<parameter authoringApp="PremierePro">
														<parameterid>scale</parameterid>
														<name>Scale</name>
														<valuemin>0</valuemin>
														<valuemax>1000</valuemax>
														<value>53.3333</value>
													</parameter>
													<parameter authoringApp="PremierePro">
														<parameterid>rotation</parameterid>
														<name>Rotation</name>
														<valuemin>-8640</valuemin>
														<valuemax>8640</valuemax>
														<value>0</value>
													</parameter>
													<parameter authoringApp="PremierePro">
														<parameterid>center</parameterid>
														<name>Center</name>
														<value>
															<horiz>0</horiz>
															<vert>0</vert>
														</value>
													</parameter>
													<parameter authoringApp="PremierePro">
														<parameterid>centerOffset</parameterid>
														<name>Anchor Point</name>
														<value>
															<horiz>0</horiz>
															<vert>0</vert>
														</value>
													</parameter>
													<parameter authoringApp="PremierePro">
														<parameterid>antiflicker</parameterid>
														<name>Anti-flicker Filter</name>
														<valuemin>0.0</valuemin>
														<valuemax>1.0</valuemax>
														<value>0</value>
													</parameter>
												</effect>
											</filter>
											<logginginfo>
												<description></description>
												<scene></scene>
												<shottake></shottake>
												<lognote></lognote>
												<good></good>
												<originalvideofilename></originalvideofilename>
												<originalaudiofilename></originalaudiofilename>
											</logginginfo>
											<colorinfo>
												<lut></lut>
												<lut1></lut1>
												<asc_sop></asc_sop>
												<asc_sat></asc_sat>
												<lut2></lut2>
											</colorinfo>
											<labels>
												<label2>Lavender</label2>
											</labels>
										</clipitem>
										<transitionitem>
											<start>719</start>
											<end>744</end>
											<alignment>end-black</alignment>
											<cutPointTicks>254016000000</cutPointTicks>
											<rate>
												<timebase>25</timebase>
												<ntsc>FALSE</ntsc>
											</rate>
											<effect>
												<name>Edge Wipe</name>
												<effectid>Edge Wipe</effectid>
												<effectcategory>Wipe</effectcategory>
												<effecttype>transition</effecttype>
												<mediatype>video</mediatype>
												<wipecode>2</wipecode>
												<wipeaccuracy>100</wipeaccuracy>
												<startratio>0</startratio>
												<endratio>1</endratio>
												<reverse>FALSE</reverse>
												<parameter authoringApp="PremierePro">
													<parameterid>directionofwipe</parameterid>
													<name>Angle</name>
													<valuemin>-360</valuemin>
													<valuemax>360</valuemax>
													<value>90</value>
												</parameter>
											</effect>
										</transitionitem>
										<enabled>TRUE</enabled>
										<locked>FALSE</locked>
									</track>
									<track TL.SQTrackShy="0" TL.SQTrackExpandedHeight="25" TL.SQTrackExpanded="0" MZ.TrackTargeted="0">
										<enabled>TRUE</enabled>
										<locked>FALSE</locked>
									</track>
								</video>
								<audio>
									<numOutputChannels>2</numOutputChannels>
									<format>
										<samplecharacteristics>
											<depth>16</depth>
											<samplerate>48000</samplerate>
										</samplecharacteristics>
									</format>
									<outputs>
										<group>
											<index>1</index>
											<numchannels>1</numchannels>
											<downmix>0</downmix>
											<channel>
												<index>1</index>
											</channel>
										</group>
										<group>
											<index>2</index>
											<numchannels>1</numchannels>
											<downmix>0</downmix>
											<channel>
												<index>2</index>
											</channel>
										</group>
									</outputs>
									<track TL.SQTrackAudioKeyframeStyle="0" TL.SQTrackShy="0" TL.SQTrackExpandedHeight="25" TL.SQTrackExpanded="0" MZ.TrackTargeted="1" PannerCurrentValue="0.5" PannerStartKeyframe="-91445760000000000,0.5,0,0,0,0,0,0" PannerName="Balance" currentExplodedTrackIndex="0" totalExplodedTrackCount="2" premiereTrackType="Stereo">
										<enabled>TRUE</enabled>
										<locked>FALSE</locked>
										<outputchannelindex>1</outputchannelindex>
									</track>
									<track TL.SQTrackAudioKeyframeStyle="0" TL.SQTrackShy="0" TL.SQTrackExpandedHeight="25" TL.SQTrackExpanded="0" MZ.TrackTargeted="1" PannerCurrentValue="0.5" PannerStartKeyframe="-91445760000000000,0.5,0,0,0,0,0,0" PannerName="Balance" currentExplodedTrackIndex="1" totalExplodedTrackCount="2" premiereTrackType="Stereo">
										<enabled>TRUE</enabled>
										<locked>FALSE</locked>
										<outputchannelindex>2</outputchannelindex>
									</track>
								</audio>
							</media>
							<timecode>
								<rate>
									<timebase>25</timebase>
									<ntsc>FALSE</ntsc>
								</rate>
								<string>00:00:00:00</string>
								<frame>0</frame>
								<displayformat>NDF</displayformat>
							</timecode>
								<marker>
									<comment></comment>
									<name></name>
									<in>800</in>
									<out>-1</out>
									<pproColor>4292277273</pproColor>
								</marker>
								<marker>
									<comment></comment>
									<name></name>
									<in>425</in>
									<out>-1</out>
									<pproColor>4292277273</pproColor>
								</marker>
								<marker>
									<comment></comment>
									<name></name>
									<in>50</in>
									<out>-1</out>
									<pproColor>4292277273</pproColor>
								</marker>
							<logginginfo>
								<description></description>
								<scene></scene>
								<shottake></shottake>
								<lognote></lognote>
								<good></good>
								<originalvideofilename></originalvideofilename>
								<originalaudiofilename></originalaudiofilename>
							</logginginfo>
						</sequence>
							<marker>
								<comment></comment>
								<name></name>
								<in>800</in>
								<out>-1</out>
								<pproColor>4292277273</pproColor>
							</marker>
							<marker>
								<comment></comment>
								<name></name>
								<in>425</in>
								<out>-1</out>
								<pproColor>4292277273</pproColor>
							</marker>
							<marker>
								<comment></comment>
								<name></name>
								<in>50</in>
								<out>-1</out>
								<pproColor>4292277273</pproColor>
							</marker>
						<labels>
							<label2>Forest</label2>
						</labels>
					</clipitem>
					<clipitem id="clipitem-1336">
						<masterclipid>masterclip-600</masterclipid>
						<name>9</name>
						<enabled>TRUE</enabled>
						<duration>1125</duration>
						<rate>
							<timebase>25</timebase>
							<ntsc>FALSE</ntsc>
						</rate>
						<start>22201</start>
						<end>22576</end>
						<in>375</in>
						<out>750</out>
						<pproTicksIn>3810240000000</pproTicksIn>
						<pproTicksOut>7620480000000</pproTicksOut>
						<sequence id="sequence-111"/>
							<marker>
								<comment></comment>
								<name></name>
								<in>800</in>
								<out>-1</out>
								<pproColor>4292277273</pproColor>
							</marker>
							<marker>
								<comment></comment>
								<name></name>
								<in>425</in>
								<out>-1</out>
								<pproColor>4292277273</pproColor>
							</marker>
							<marker>
								<comment></comment>
								<name></name>
								<in>50</in>
								<out>-1</out>
								<pproColor>4292277273</pproColor>
							</marker>
						<labels>
							<label2>Forest</label2>
						</labels>
					</clipitem>
					<clipitem id="clipitem-1337">
						<masterclipid>masterclip-603</masterclipid>
						<name>8</name>
						<enabled>TRUE</enabled>
						<duration>1125</duration>
						<rate>
							<timebase>25</timebase>
							<ntsc>FALSE</ntsc>
						</rate>
						<start>25551</start>
						<end>25926</end>
						<in>0</in>
						<out>375</out>
						<pproTicksIn>0</pproTicksIn>
						<pproTicksOut>3810240000000</pproTicksOut>
						<sequence id="sequence-112" TL.SQAudioVisibleBase="0" TL.SQVideoVisibleBase="0" TL.SQVisibleBaseTime="0" TL.SQAVDividerPosition="0.5" TL.SQHideShyTracks="0" TL.SQHeaderWidth="236" Monitor.ProgramZoomOut="11430720000000" Monitor.ProgramZoomIn="0" TL.SQTimePerPixel="0.19620667102680814" AM.TrackVScrollPosition="0" AM.TrackScrollPosition="0" MZ.EditLine="9266503680000" MZ.Sequence.PreviewFrameSizeHeight="576" MZ.Sequence.PreviewFrameSizeWidth="720" MZ.Sequence.AudioTimeDisplayFormat="200" MZ.Sequence.PreviewRenderingClassID="1061109567" MZ.Sequence.PreviewRenderingPresetCodec="1685480304" MZ.Sequence.PreviewRenderingPresetPath="EncoderPresets/SequencePreview/04be6e19-a018-4e0c-a9d6-0ab44c64752b/QuickTime DV PAL.epr" MZ.Sequence.PreviewUseMaxRenderQuality="false" MZ.Sequence.PreviewUseMaxBitDepth="false" MZ.Sequence.EditingModeGUID="04be6e19-a018-4e0c-a9d6-0ab44c64752b" MZ.Sequence.VideoTimeDisplayFormat="101" MZ.WorkOutPoint="11430720000000" MZ.WorkInPoint="0" MZ.ZeroPoint="0">
							<duration>1125</duration>
							<rate>
								<timebase>25</timebase>
								<ntsc>FALSE</ntsc>
							</rate>
							<name>RU_Nested</name>
							<media>
								<video>
									<format>
										<samplecharacteristics>
											<rate>
												<timebase>25</timebase>
												<ntsc>FALSE</ntsc>
											</rate>
											<codec>
												<name>Apple ProRes 422</name>
												<appspecificdata>
													<appname>Final Cut Pro</appname>
													<appmanufacturer>Apple Inc.</appmanufacturer>
													<appversion>7.0</appversion>
													<data>
														<qtcodec>
															<codecname>Apple ProRes 422</codecname>
															<codectypename>Apple ProRes 422</codectypename>
															<codectypecode>apcn</codectypecode>
															<codecvendorcode>appl</codecvendorcode>
															<spatialquality>1024</spatialquality>
															<temporalquality>0</temporalquality>
															<keyframerate>0</keyframerate>
															<datarate>0</datarate>
														</qtcodec>
													</data>
												</appspecificdata>
											</codec>
											<width>720</width>
											<height>576</height>
											<anamorphic>TRUE</anamorphic>
											<pixelaspectratio>PAL-601</pixelaspectratio>
											<fielddominance>lower</fielddominance>
											<colordepth>24</colordepth>
										</samplecharacteristics>
									</format>
									<track TL.SQTrackShy="0" TL.SQTrackExpandedHeight="25" TL.SQTrackExpanded="0" MZ.TrackTargeted="1">
										<clipitem id="clipitem-1338">
											<masterclipid>masterclip-585</masterclipid>
											<name>Plashka_Right_DV.mov</name>
											<enabled>TRUE</enabled>
											<duration>375</duration>
											<rate>
												<timebase>25</timebase>
												<ntsc>FALSE</ntsc>
											</rate>
											<start>0</start>
											<end>375</end>
											<in>0</in>
											<out>375</out>
											<pproTicksIn>0</pproTicksIn>
											<pproTicksOut>3810240000000</pproTicksOut>
											<alphatype>straight</alphatype>
											<file id="file-484"/>
											<filter>
												<effect>
													<name>Basic Motion</name>
													<effectid>basic</effectid>
													<effectcategory>motion</effectcategory>
													<effecttype>motion</effecttype>
													<mediatype>video</mediatype>
													<pproBypass>false</pproBypass>
													<parameter authoringApp="PremierePro">
														<parameterid>scale</parameterid>
														<name>Scale</name>
														<valuemin>0</valuemin>
														<valuemax>1000</valuemax>
														<value>100</value>
													</parameter>
													<parameter authoringApp="PremierePro">
														<parameterid>rotation</parameterid>
														<name>Rotation</name>
														<valuemin>-8640</valuemin>
														<valuemax>8640</valuemax>
														<value>0</value>
													</parameter>
													<parameter authoringApp="PremierePro">
														<parameterid>center</parameterid>
														<name>Center</name>
														<value>
															<horiz>-5.55112e-17</horiz>
															<vert>-1.11022e-16</vert>
														</value>
													</parameter>
													<parameter authoringApp="PremierePro">
														<parameterid>centerOffset</parameterid>
														<name>Anchor Point</name>
														<value>
															<horiz>0.402314</horiz>
															<vert>0.41875</vert>
														</value>
													</parameter>
													<parameter authoringApp="PremierePro">
														<parameterid>antiflicker</parameterid>
														<name>Anti-flicker Filter</name>
														<valuemin>0.0</valuemin>
														<valuemax>1.0</valuemax>
														<value>0</value>
													</parameter>
												</effect>
											</filter>
											<filter>
												<effect>
													<name>Distort</name>
													<effectid>deformation</effectid>
													<effectcategory>motion</effectcategory>
													<effecttype>motion</effecttype>
													<mediatype>video</mediatype>
													<parameter authoringApp="PremierePro">
														<parameterid>aspect</parameterid>
														<name>Aspect</name>
														<valuemin>-10000</valuemin>
														<valuemax>10000</valuemax>
														<value>14.9425</value>
													</parameter>
												</effect>
											</filter>
											<logginginfo>
												<description></description>
												<scene></scene>
												<shottake></shottake>
												<lognote></lognote>
												<good></good>
												<originalvideofilename></originalvideofilename>
												<originalaudiofilename></originalaudiofilename>
											</logginginfo>
											<colorinfo>
												<lut></lut>
												<lut1></lut1>
												<asc_sop></asc_sop>
												<asc_sat></asc_sat>
												<lut2></lut2>
											</colorinfo>
											<labels>
												<label2>Violet</label2>
											</labels>
										</clipitem>
										<clipitem id="clipitem-1339">
											<masterclipid>masterclip-585</masterclipid>
											<name>Plashka_Right_DV.mov</name>
											<enabled>TRUE</enabled>
											<duration>375</duration>
											<rate>
												<timebase>25</timebase>
												<ntsc>FALSE</ntsc>
											</rate>
											<start>375</start>
											<end>750</end>
											<in>0</in>
											<out>375</out>
											<pproTicksIn>0</pproTicksIn>
											<pproTicksOut>3810240000000</pproTicksOut>
											<alphatype>straight</alphatype>
											<file id="file-484"/>
											<filter>
												<effect>
													<name>Basic Motion</name>
													<effectid>basic</effectid>
													<effectcategory>motion</effectcategory>
													<effecttype>motion</effecttype>
													<mediatype>video</mediatype>
													<pproBypass>false</pproBypass>
													<parameter authoringApp="PremierePro">
														<parameterid>scale</parameterid>
														<name>Scale</name>
														<valuemin>0</valuemin>
														<valuemax>1000</valuemax>
														<value>100</value>
													</parameter>
													<parameter authoringApp="PremierePro">
														<parameterid>rotation</parameterid>
														<name>Rotation</name>
														<valuemin>-8640</valuemin>
														<valuemax>8640</valuemax>
														<value>0</value>
													</parameter>
													<parameter authoringApp="PremierePro">
														<parameterid>center</parameterid>
														<name>Center</name>
														<value>
															<horiz>-5.55112e-17</horiz>
															<vert>-1.11022e-16</vert>
														</value>
													</parameter>
													<parameter authoringApp="PremierePro">
														<parameterid>centerOffset</parameterid>
														<name>Anchor Point</name>
														<value>
															<horiz>0.402314</horiz>
															<vert>0.41875</vert>
														</value>
													</parameter>
													<parameter authoringApp="PremierePro">
														<parameterid>antiflicker</parameterid>
														<name>Anti-flicker Filter</name>
														<valuemin>0.0</valuemin>
														<valuemax>1.0</valuemax>
														<value>0</value>
													</parameter>
												</effect>
											</filter>
											<filter>
												<effect>
													<name>Distort</name>
													<effectid>deformation</effectid>
													<effectcategory>motion</effectcategory>
													<effecttype>motion</effecttype>
													<mediatype>video</mediatype>
													<parameter authoringApp="PremierePro">
														<parameterid>aspect</parameterid>
														<name>Aspect</name>
														<valuemin>-10000</valuemin>
														<valuemax>10000</valuemax>
														<value>14.9425</value>
													</parameter>
												</effect>
											</filter>
											<logginginfo>
												<description></description>
												<scene></scene>
												<shottake></shottake>
												<lognote></lognote>
												<good></good>
												<originalvideofilename></originalvideofilename>
												<originalaudiofilename></originalaudiofilename>
											</logginginfo>
											<colorinfo>
												<lut></lut>
												<lut1></lut1>
												<asc_sop></asc_sop>
												<asc_sat></asc_sat>
												<lut2></lut2>
											</colorinfo>
											<labels>
												<label2>Violet</label2>
											</labels>
										</clipitem>
										<clipitem id="clipitem-1340">
											<masterclipid>masterclip-585</masterclipid>
											<name>Plashka_Right_DV.mov</name>
											<enabled>TRUE</enabled>
											<duration>375</duration>
											<rate>
												<timebase>25</timebase>
												<ntsc>FALSE</ntsc>
											</rate>
											<start>750</start>
											<end>1125</end>
											<in>0</in>
											<out>375</out>
											<pproTicksIn>0</pproTicksIn>
											<pproTicksOut>3810240000000</pproTicksOut>
											<alphatype>straight</alphatype>
											<file id="file-484"/>
											<filter>
												<effect>
													<name>Basic Motion</name>
													<effectid>basic</effectid>
													<effectcategory>motion</effectcategory>
													<effecttype>motion</effecttype>
													<mediatype>video</mediatype>
													<pproBypass>false</pproBypass>
													<parameter authoringApp="PremierePro">
														<parameterid>scale</parameterid>
														<name>Scale</name>
														<valuemin>0</valuemin>
														<valuemax>1000</valuemax>
														<value>100</value>
													</parameter>
													<parameter authoringApp="PremierePro">
														<parameterid>rotation</parameterid>
														<name>Rotation</name>
														<valuemin>-8640</valuemin>
														<valuemax>8640</valuemax>
														<value>0</value>
													</parameter>
													<parameter authoringApp="PremierePro">
														<parameterid>center</parameterid>
														<name>Center</name>
														<value>
															<horiz>-5.55112e-17</horiz>
															<vert>-1.11022e-16</vert>
														</value>
													</parameter>
													<parameter authoringApp="PremierePro">
														<parameterid>centerOffset</parameterid>
														<name>Anchor Point</name>
														<value>
															<horiz>0.402314</horiz>
															<vert>0.41875</vert>
														</value>
													</parameter>
													<parameter authoringApp="PremierePro">
														<parameterid>antiflicker</parameterid>
														<name>Anti-flicker Filter</name>
														<valuemin>0.0</valuemin>
														<valuemax>1.0</valuemax>
														<value>0</value>
													</parameter>
												</effect>
											</filter>
											<filter>
												<effect>
													<name>Distort</name>
													<effectid>deformation</effectid>
													<effectcategory>motion</effectcategory>
													<effecttype>motion</effecttype>
													<mediatype>video</mediatype>
													<parameter authoringApp="PremierePro">
														<parameterid>aspect</parameterid>
														<name>Aspect</name>
														<valuemin>-10000</valuemin>
														<valuemax>10000</valuemax>
														<value>3.09278</value>
													</parameter>
												</effect>
											</filter>
											<logginginfo>
												<description></description>
												<scene></scene>
												<shottake></shottake>
												<lognote></lognote>
												<good></good>
												<originalvideofilename></originalvideofilename>
												<originalaudiofilename></originalaudiofilename>
											</logginginfo>
											<colorinfo>
												<lut></lut>
												<lut1></lut1>
												<asc_sop></asc_sop>
												<asc_sat></asc_sat>
												<lut2></lut2>
											</colorinfo>
											<labels>
												<label2>Violet</label2>
											</labels>
										</clipitem>
										<enabled>TRUE</enabled>
										<locked>FALSE</locked>
									</track>
									<track TL.SQTrackShy="0" TL.SQTrackExpandedHeight="25" TL.SQTrackExpanded="0" MZ.TrackTargeted="0">
										<transitionitem>
											<start>6</start>
											<end>35</end>
											<alignment>start-black</alignment>
											<cutPointTicks>0</cutPointTicks>
											<rate>
												<timebase>25</timebase>
												<ntsc>FALSE</ntsc>
											</rate>
											<effect>
												<name>Edge Wipe</name>
												<effectid>Edge Wipe</effectid>
												<effectcategory>Wipe</effectcategory>
												<effecttype>transition</effecttype>
												<mediatype>video</mediatype>
												<wipecode>2</wipecode>
												<wipeaccuracy>100</wipeaccuracy>
												<startratio>0</startratio>
												<endratio>1</endratio>
												<reverse>FALSE</reverse>
												<parameter authoringApp="PremierePro">
													<parameterid>directionofwipe</parameterid>
													<name>Angle</name>
													<valuemin>-360</valuemin>
													<valuemax>360</valuemax>
													<value>270</value>
												</parameter>
											</effect>
										</transitionitem>
										<clipitem id="clipitem-1341">
											<masterclipid>masterclip-604</masterclipid>
											<name>8_1.png</name>
											<enabled>TRUE</enabled>
											<duration>1080000</duration>
											<rate>
												<timebase>25</timebase>
												<ntsc>FALSE</ntsc>
											</rate>
											<start>-1</start>
											<end>-1</end>
											<in>90006</in>
											<out>90369</out>
											<pproTicksIn>914518563840000</pproTicksIn>
											<pproTicksOut>918206876160000</pproTicksOut>
											<alphatype>straight</alphatype>
											<pixelaspectratio>square</pixelaspectratio>
											<anamorphic>FALSE</anamorphic>
											<file id="file-499">
												<name>8_1.png</name>
												<pathurl>file://localhost/_MUZ_TV/project_AP/RU/_TITLE/468/PNG/8_1.png</pathurl>
												<rate>
													<timebase>30</timebase>
													<ntsc>TRUE</ntsc>
												</rate>
												<timecode>
													<rate>
														<timebase>30</timebase>
														<ntsc>TRUE</ntsc>
													</rate>
													<string>00;00;00;00</string>
													<frame>0</frame>
													<displayformat>DF</displayformat>
												</timecode>
												<media>
													<video>
														<samplecharacteristics>
															<rate>
																<timebase>30</timebase>
																<ntsc>TRUE</ntsc>
															</rate>
															<width>1920</width>
															<height>1080</height>
															<anamorphic>FALSE</anamorphic>
															<pixelaspectratio>square</pixelaspectratio>
															<fielddominance>none</fielddominance>
														</samplecharacteristics>
													</video>
												</media>
											</file>
											<filter>
												<effect>
													<name>Basic Motion</name>
													<effectid>basic</effectid>
													<effectcategory>motion</effectcategory>
													<effecttype>motion</effecttype>
													<mediatype>video</mediatype>
													<pproBypass>false</pproBypass>
													<parameter authoringApp="PremierePro">
														<parameterid>scale</parameterid>
														<name>Scale</name>
														<valuemin>0</valuemin>
														<valuemax>1000</valuemax>
														<value>53.3333</value>
													</parameter>
													<parameter authoringApp="PremierePro">
														<parameterid>rotation</parameterid>
														<name>Rotation</name>
														<valuemin>-8640</valuemin>
														<valuemax>8640</valuemax>
														<value>0</value>
													</parameter>
													<parameter authoringApp="PremierePro">
														<parameterid>center</parameterid>
														<name>Center</name>
														<value>
															<horiz>0</horiz>
															<vert>0</vert>
														</value>
													</parameter>
													<parameter authoringApp="PremierePro">
														<parameterid>centerOffset</parameterid>
														<name>Anchor Point</name>
														<value>
															<horiz>0</horiz>
															<vert>0</vert>
														</value>
													</parameter>
													<parameter authoringApp="PremierePro">
														<parameterid>antiflicker</parameterid>
														<name>Anti-flicker Filter</name>
														<valuemin>0.0</valuemin>
														<valuemax>1.0</valuemax>
														<value>0</value>
													</parameter>
												</effect>
											</filter>
											<logginginfo>
												<description></description>
												<scene></scene>
												<shottake></shottake>
												<lognote></lognote>
												<good></good>
												<originalvideofilename></originalvideofilename>
												<originalaudiofilename></originalaudiofilename>
											</logginginfo>
											<colorinfo>
												<lut></lut>
												<lut1></lut1>
												<asc_sop></asc_sop>
												<asc_sat></asc_sat>
												<lut2></lut2>
											</colorinfo>
											<labels>
												<label2>Lavender</label2>
											</labels>
										</clipitem>
										<transitionitem>
											<start>344</start>
											<end>369</end>
											<alignment>end-black</alignment>
											<cutPointTicks>254016000000</cutPointTicks>
											<rate>
												<timebase>25</timebase>
												<ntsc>FALSE</ntsc>
											</rate>
											<effect>
												<name>Edge Wipe</name>
												<effectid>Edge Wipe</effectid>
												<effectcategory>Wipe</effectcategory>
												<effecttype>transition</effecttype>
												<mediatype>video</mediatype>
												<wipecode>2</wipecode>
												<wipeaccuracy>100</wipeaccuracy>
												<startratio>0</startratio>
												<endratio>1</endratio>
												<reverse>FALSE</reverse>
												<parameter authoringApp="PremierePro">
													<parameterid>directionofwipe</parameterid>
													<name>Angle</name>
													<valuemin>-360</valuemin>
													<valuemax>360</valuemax>
													<value>90</value>
												</parameter>
											</effect>
										</transitionitem>
										<transitionitem>
											<start>381</start>
											<end>410</end>
											<alignment>start-black</alignment>
											<cutPointTicks>0</cutPointTicks>
											<rate>
												<timebase>25</timebase>
												<ntsc>FALSE</ntsc>
											</rate>
											<effect>
												<name>Edge Wipe</name>
												<effectid>Edge Wipe</effectid>
												<effectcategory>Wipe</effectcategory>
												<effecttype>transition</effecttype>
												<mediatype>video</mediatype>
												<wipecode>2</wipecode>
												<wipeaccuracy>100</wipeaccuracy>
												<startratio>0</startratio>
												<endratio>1</endratio>
												<reverse>FALSE</reverse>
												<parameter authoringApp="PremierePro">
													<parameterid>directionofwipe</parameterid>
													<name>Angle</name>
													<valuemin>-360</valuemin>
													<valuemax>360</valuemax>
													<value>270</value>
												</parameter>
											</effect>
										</transitionitem>
										<clipitem id="clipitem-1342">
											<masterclipid>masterclip-605</masterclipid>
											<name>8_2.png</name>
											<enabled>TRUE</enabled>
											<duration>1080000</duration>
											<rate>
												<timebase>25</timebase>
												<ntsc>FALSE</ntsc>
											</rate>
											<start>-1</start>
											<end>-1</end>
											<in>90011</in>
											<out>90374</out>
											<pproTicksIn>914569367040000</pproTicksIn>
											<pproTicksOut>918257679360000</pproTicksOut>
											<alphatype>straight</alphatype>
											<pixelaspectratio>square</pixelaspectratio>
											<anamorphic>FALSE</anamorphic>
											<file id="file-500">
												<name>8_2.png</name>
												<pathurl>file://localhost/_MUZ_TV/project_AP/RU/_TITLE/468/PNG/8_2.png</pathurl>
												<rate>
													<timebase>30</timebase>
													<ntsc>TRUE</ntsc>
												</rate>
												<timecode>
													<rate>
														<timebase>30</timebase>
														<ntsc>TRUE</ntsc>
													</rate>
													<string>00;00;00;00</string>
													<frame>0</frame>
													<displayformat>DF</displayformat>
												</timecode>
												<media>
													<video>
														<samplecharacteristics>
															<rate>
																<timebase>30</timebase>
																<ntsc>TRUE</ntsc>
															</rate>
															<width>1920</width>
															<height>1080</height>
															<anamorphic>FALSE</anamorphic>
															<pixelaspectratio>square</pixelaspectratio>
															<fielddominance>none</fielddominance>
														</samplecharacteristics>
													</video>
												</media>
											</file>
											<filter>
												<effect>
													<name>Basic Motion</name>
													<effectid>basic</effectid>
													<effectcategory>motion</effectcategory>
													<effecttype>motion</effecttype>
													<mediatype>video</mediatype>
													<pproBypass>false</pproBypass>
													<parameter authoringApp="PremierePro">
														<parameterid>scale</parameterid>
														<name>Scale</name>
														<valuemin>0</valuemin>
														<valuemax>1000</valuemax>
														<value>53.3333</value>
													</parameter>
													<parameter authoringApp="PremierePro">
														<parameterid>rotation</parameterid>
														<name>Rotation</name>
														<valuemin>-8640</valuemin>
														<valuemax>8640</valuemax>
														<value>0</value>
													</parameter>
													<parameter authoringApp="PremierePro">
														<parameterid>center</parameterid>
														<name>Center</name>
														<value>
															<horiz>0</horiz>
															<vert>0</vert>
														</value>
													</parameter>
													<parameter authoringApp="PremierePro">
														<parameterid>centerOffset</parameterid>
														<name>Anchor Point</name>
														<value>
															<horiz>0</horiz>
															<vert>0</vert>
														</value>
													</parameter>
													<parameter authoringApp="PremierePro">
														<parameterid>antiflicker</parameterid>
														<name>Anti-flicker Filter</name>
														<valuemin>0.0</valuemin>
														<valuemax>1.0</valuemax>
														<value>0</value>
													</parameter>
												</effect>
											</filter>
											<logginginfo>
												<description></description>
												<scene></scene>
												<shottake></shottake>
												<lognote></lognote>
												<good></good>
												<originalvideofilename></originalvideofilename>
												<originalaudiofilename></originalaudiofilename>
											</logginginfo>
											<colorinfo>
												<lut></lut>
												<lut1></lut1>
												<asc_sop></asc_sop>
												<asc_sat></asc_sat>
												<lut2></lut2>
											</colorinfo>
											<labels>
												<label2>Lavender</label2>
											</labels>
										</clipitem>
										<transitionitem>
											<start>719</start>
											<end>744</end>
											<alignment>end-black</alignment>
											<cutPointTicks>254016000000</cutPointTicks>
											<rate>
												<timebase>25</timebase>
												<ntsc>FALSE</ntsc>
											</rate>
											<effect>
												<name>Edge Wipe</name>
												<effectid>Edge Wipe</effectid>
												<effectcategory>Wipe</effectcategory>
												<effecttype>transition</effecttype>
												<mediatype>video</mediatype>
												<wipecode>2</wipecode>
												<wipeaccuracy>100</wipeaccuracy>
												<startratio>0</startratio>
												<endratio>1</endratio>
												<reverse>FALSE</reverse>
												<parameter authoringApp="PremierePro">
													<parameterid>directionofwipe</parameterid>
													<name>Angle</name>
													<valuemin>-360</valuemin>
													<valuemax>360</valuemax>
													<value>90</value>
												</parameter>
											</effect>
										</transitionitem>
										<transitionitem>
											<start>756</start>
											<end>785</end>
											<alignment>start-black</alignment>
											<cutPointTicks>0</cutPointTicks>
											<rate>
												<timebase>25</timebase>
												<ntsc>FALSE</ntsc>
											</rate>
											<effect>
												<name>Edge Wipe</name>
												<effectid>Edge Wipe</effectid>
												<effectcategory>Wipe</effectcategory>
												<effecttype>transition</effecttype>
												<mediatype>video</mediatype>
												<wipecode>2</wipecode>
												<wipeaccuracy>100</wipeaccuracy>
												<startratio>0</startratio>
												<endratio>1</endratio>
												<reverse>FALSE</reverse>
												<parameter authoringApp="PremierePro">
													<parameterid>directionofwipe</parameterid>
													<name>Angle</name>
													<valuemin>-360</valuemin>
													<valuemax>360</valuemax>
													<value>270</value>
												</parameter>
											</effect>
										</transitionitem>
										<clipitem id="clipitem-1343">
											<masterclipid>masterclip-606</masterclipid>
											<name>8_3.png</name>
											<enabled>TRUE</enabled>
											<duration>1080000</duration>
											<rate>
												<timebase>25</timebase>
												<ntsc>FALSE</ntsc>
											</rate>
											<start>-1</start>
											<end>-1</end>
											<in>90011</in>
											<out>90375</out>
											<pproTicksIn>914569367040000</pproTicksIn>
											<pproTicksOut>918267840000000</pproTicksOut>
											<alphatype>straight</alphatype>
											<pixelaspectratio>square</pixelaspectratio>
											<anamorphic>FALSE</anamorphic>
											<file id="file-501">
												<name>8_3.png</name>
												<pathurl>file://localhost/_MUZ_TV/project_AP/RU/_TITLE/468/PNG/8_3.png</pathurl>
												<rate>
													<timebase>30</timebase>
													<ntsc>TRUE</ntsc>
												</rate>
												<timecode>
													<rate>
														<timebase>30</timebase>
														<ntsc>TRUE</ntsc>
													</rate>
													<string>00;00;00;00</string>
													<frame>0</frame>
													<displayformat>DF</displayformat>
												</timecode>
												<media>
													<video>
														<samplecharacteristics>
															<rate>
																<timebase>30</timebase>
																<ntsc>TRUE</ntsc>
															</rate>
															<width>1920</width>
															<height>1080</height>
															<anamorphic>FALSE</anamorphic>
															<pixelaspectratio>square</pixelaspectratio>
															<fielddominance>none</fielddominance>
														</samplecharacteristics>
													</video>
												</media>
											</file>
											<filter>
												<effect>
													<name>Basic Motion</name>
													<effectid>basic</effectid>
													<effectcategory>motion</effectcategory>
													<effecttype>motion</effecttype>
													<mediatype>video</mediatype>
													<pproBypass>false</pproBypass>
													<parameter authoringApp="PremierePro">
														<parameterid>scale</parameterid>
														<name>Scale</name>
														<valuemin>0</valuemin>
														<valuemax>1000</valuemax>
														<value>53.3333</value>
													</parameter>
													<parameter authoringApp="PremierePro">
														<parameterid>rotation</parameterid>
														<name>Rotation</name>
														<valuemin>-8640</valuemin>
														<valuemax>8640</valuemax>
														<value>0</value>
													</parameter>
													<parameter authoringApp="PremierePro">
														<parameterid>center</parameterid>
														<name>Center</name>
														<value>
															<horiz>0</horiz>
															<vert>0</vert>
														</value>
													</parameter>
													<parameter authoringApp="PremierePro">
														<parameterid>centerOffset</parameterid>
														<name>Anchor Point</name>
														<value>
															<horiz>0</horiz>
															<vert>0</vert>
														</value>
													</parameter>
													<parameter authoringApp="PremierePro">
														<parameterid>antiflicker</parameterid>
														<name>Anti-flicker Filter</name>
														<valuemin>0.0</valuemin>
														<valuemax>1.0</valuemax>
														<value>0</value>
													</parameter>
												</effect>
											</filter>
											<logginginfo>
												<description></description>
												<scene></scene>
												<shottake></shottake>
												<lognote></lognote>
												<good></good>
												<originalvideofilename></originalvideofilename>
												<originalaudiofilename></originalaudiofilename>
											</logginginfo>
											<colorinfo>
												<lut></lut>
												<lut1></lut1>
												<asc_sop></asc_sop>
												<asc_sat></asc_sat>
												<lut2></lut2>
											</colorinfo>
											<labels>
												<label2>Lavender</label2>
											</labels>
										</clipitem>
										<transitionitem>
											<start>1095</start>
											<end>1120</end>
											<alignment>end-black</alignment>
											<cutPointTicks>254016000000</cutPointTicks>
											<rate>
												<timebase>25</timebase>
												<ntsc>FALSE</ntsc>
											</rate>
											<effect>
												<name>Edge Wipe</name>
												<effectid>Edge Wipe</effectid>
												<effectcategory>Wipe</effectcategory>
												<effecttype>transition</effecttype>
												<mediatype>video</mediatype>
												<wipecode>2</wipecode>
												<wipeaccuracy>100</wipeaccuracy>
												<startratio>0</startratio>
												<endratio>1</endratio>
												<reverse>FALSE</reverse>
												<parameter authoringApp="PremierePro">
													<parameterid>directionofwipe</parameterid>
													<name>Angle</name>
													<valuemin>-360</valuemin>
													<valuemax>360</valuemax>
													<value>90</value>
												</parameter>
											</effect>
										</transitionitem>
										<enabled>TRUE</enabled>
										<locked>FALSE</locked>
									</track>
									<track TL.SQTrackShy="0" TL.SQTrackExpandedHeight="25" TL.SQTrackExpanded="0" MZ.TrackTargeted="0">
										<transitionitem>
											<start>755</start>
											<end>780</end>
											<alignment>start-black</alignment>
											<cutPointTicks>0</cutPointTicks>
											<rate>
												<timebase>25</timebase>
												<ntsc>FALSE</ntsc>
											</rate>
											<effect>
												<name>Edge Wipe</name>
												<effectid>Edge Wipe</effectid>
												<effectcategory>Wipe</effectcategory>
												<effecttype>transition</effecttype>
												<mediatype>video</mediatype>
												<wipecode>2</wipecode>
												<wipeaccuracy>100</wipeaccuracy>
												<startratio>0</startratio>
												<endratio>1</endratio>
												<reverse>FALSE</reverse>
												<parameter authoringApp="PremierePro">
													<parameterid>directionofwipe</parameterid>
													<name>Angle</name>
													<valuemin>-360</valuemin>
													<valuemax>360</valuemax>
													<value>270</value>
												</parameter>
											</effect>
										</transitionitem>
										<clipitem id="clipitem-1344">
											<masterclipid>masterclip-607</masterclipid>
											<name>Graphic</name>
											<enabled>FALSE</enabled>
											<duration>1080000</duration>
											<rate>
												<timebase>25</timebase>
												<ntsc>FALSE</ntsc>
											</rate>
											<start>-1</start>
											<end>-1</end>
											<in>89905</in>
											<out>90272</out>
											<pproTicksIn>913492339200000</pproTicksIn>
											<pproTicksOut>917221294080000</pproTicksOut>
											<alphatype>straight</alphatype>
											<pixelaspectratio>PAL-601</pixelaspectratio>
											<anamorphic>TRUE</anamorphic>
											<file id="file-502">
												<name>Graphic</name>
												<mediaSource>GraphicAndType</mediaSource>
												<rate>
													<timebase>30</timebase>
													<ntsc>TRUE</ntsc>
												</rate>
												<timecode>
													<rate>
														<timebase>30</timebase>
														<ntsc>TRUE</ntsc>
													</rate>
													<string>00;00;00;00</string>
													<frame>0</frame>
													<displayformat>DF</displayformat>
												</timecode>
												<media>
													<video>
														<samplecharacteristics>
															<rate>
																<timebase>30</timebase>
																<ntsc>TRUE</ntsc>
															</rate>
															<width>720</width>
															<height>576</height>
															<anamorphic>TRUE</anamorphic>
															<pixelaspectratio>PAL-601</pixelaspectratio>
															<fielddominance>none</fielddominance>
														</samplecharacteristics>
													</video>
												</media>
											</file>
											<filter>
												<effect>
													<name>Vector Motion</name>
													<effectid>GraphicGroup</effectid>
													<effectcategory>graphic</effectcategory>
													<effecttype>filter</effecttype>
													<mediatype>video</mediatype>
													<pproBypass>false</pproBypass>
													<parameter authoringApp="PremierePro">
														<parameterid>1</parameterid>
														<name>Position</name>
														<IsTimeVarying>false</IsTimeVarying>
														<value>-91445760000000000,0.81693898908787344:0.49085601568222115,0,0,0,0,0,0,5,4,0,0,0,0</value>
													</parameter>
													<parameter authoringApp="PremierePro">
														<parameterid>2</parameterid>
														<name>Scale</name>
														<IsTimeVarying>false</IsTimeVarying>
														<ParameterControlType>2</ParameterControlType>
														<LowerBound>0</LowerBound>
														<UpperBound>10000</UpperBound>
														<UpperUIBound>200</UpperUIBound>
														<value>-91445760000000000,100.,0,0,0,0,0,0</value>
													</parameter>
													<parameter authoringApp="PremierePro">
														<parameterid>3</parameterid>
														<name>Scale Width</name>
														<IsTimeVarying>false</IsTimeVarying>
														<ParameterControlType>2</ParameterControlType>
														<LowerBound>0</LowerBound>
														<UpperBound>10000</UpperBound>
														<UpperUIBound>200</UpperUIBound>
														<value>-91445760000000000,100.,0,0,0,0,0,0</value>
													</parameter>
													<parameter authoringApp="PremierePro">
														<parameterid>4</parameterid>
														<name> </name>
														<IsTimeVarying>false</IsTimeVarying>
														<ParameterControlType>4</ParameterControlType>
														<LowerBound>false</LowerBound>
														<UpperBound>true</UpperBound>
														<value>-91445760000000000,true,0,0,0,0,0,0</value>
													</parameter>
													<parameter authoringApp="PremierePro">
														<parameterid>5</parameterid>
														<name>Rotation</name>
														<IsTimeVarying>false</IsTimeVarying>
														<ParameterControlType>3</ParameterControlType>
														<LowerBound>-32768</LowerBound>
														<UpperBound>32767</UpperBound>
														<value>-91445760000000000,0.,0,0,0,0,0,0</value>
													</parameter>
													<parameter authoringApp="PremierePro">
														<parameterid>6</parameterid>
														<name>Anchor Point</name>
														<IsTimeVarying>false</IsTimeVarying>
														<value>-91445760000000000,0.5:0.5,0,0,0,0,0,0,5,4,0,0,0,0</value>
													</parameter>
												</effect>
											</filter>
											<filter>
												<effect>
													<name>Данил Прытков признаётся, &#13;что сильные провалы &#13;мотивируют его на творчество &#13;не меньше, чем победы. </name>
													<effectid>GraphicAndType</effectid>
													<effectcategory>graphic</effectcategory>
													<effecttype>filter</effecttype>
													<mediatype>video</mediatype>
													<pproBypass>false</pproBypass>
													<pproExpanded>true</pproExpanded>
													<parameter authoringApp="PremierePro">
														<parameterid>1</parameterid>
														<name>Source Text</name>
														<hash>698123b5-7d57-7b79-efb1-b0df00000a31</hash>
													</parameter>
													<parameter authoringApp="PremierePro">
														<parameterid>2</parameterid>
														<name>Transform</name>
														<IsTimeVarying>false</IsTimeVarying>
														<ParameterControlType>11</ParameterControlType>
														<LowerBound>false</LowerBound>
														<UpperBound>false</UpperBound>
														<value>-91445760000000000,false,0,0,0,0,0,0</value>
													</parameter>
													<parameter authoringApp="PremierePro">
														<parameterid>3</parameterid>
														<name>Position</name>
														<IsTimeVarying>false</IsTimeVarying>
														<value>-91445760000000000,0.270416259765625:0.640594482421875,0,0,0,0,0,0,5,4,0,0,0,0</value>
													</parameter>
													<parameter authoringApp="PremierePro">
														<parameterid>4</parameterid>
														<name>Scale</name>
														<IsTimeVarying>false</IsTimeVarying>
														<ParameterControlType>2</ParameterControlType>
														<LowerBound>0</LowerBound>
														<UpperBound>4000</UpperBound>
														<value>-91445760000000000,100.,0,0,0,0,0,0</value>
													</parameter>
													<parameter authoringApp="PremierePro">
														<parameterid>5</parameterid>
														<name>Horizontal Scale</name>
														<IsTimeVarying>false</IsTimeVarying>
														<ParameterControlType>2</ParameterControlType>
														<LowerBound>0</LowerBound>
														<UpperBound>4000</UpperBound>
														<value>-91445760000000000,100.,0,0,0,0,0,0</value>
													</parameter>
													<parameter authoringApp="PremierePro">
														<parameterid>6</parameterid>
														<name> </name>
														<IsTimeVarying>false</IsTimeVarying>
														<ParameterControlType>4</ParameterControlType>
														<LowerBound>false</LowerBound>
														<UpperBound>true</UpperBound>
														<value>-91445760000000000,true,0,0,0,0,0,0</value>
													</parameter>
													<parameter authoringApp="PremierePro">
														<parameterid>7</parameterid>
														<name>Rotation</name>
														<IsTimeVarying>false</IsTimeVarying>
														<ParameterControlType>3</ParameterControlType>
														<LowerBound>-32768</LowerBound>
														<UpperBound>32767</UpperBound>
														<value>-91445760000000000,0.,0,0,0,0,0,0</value>
													</parameter>
													<parameter authoringApp="PremierePro">
														<parameterid>8</parameterid>
														<name>Opacity</name>
														<IsTimeVarying>false</IsTimeVarying>
														<ParameterControlType>2</ParameterControlType>
														<LowerBound>0</LowerBound>
														<UpperBound>100</UpperBound>
														<value>-91445760000000000,100.,0,0,0,0,0,0</value>
													</parameter>
													<parameter authoringApp="PremierePro">
														<parameterid>9</parameterid>
														<name>Anchor Point</name>
														<IsTimeVarying>false</IsTimeVarying>
														<value>-91445760000000000,0:0,0,0,0,0,0,0,5,4,0,0,0,0</value>
													</parameter>
													<parameter authoringApp="PremierePro">
														<parameterid>10</parameterid>
														<name></name>
														<IsTimeVarying>false</IsTimeVarying>
														<ParameterControlType>12</ParameterControlType>
														<LowerBound>false</LowerBound>
														<UpperBound>false</UpperBound>
														<value>-91445760000000000,false,0,0,0,0,0,0</value>
													</parameter>
													<parameter authoringApp="PremierePro">
														<parameterid>11</parameterid>
														<name> </name>
														<IsTimeVarying>false</IsTimeVarying>
														<ParameterControlType>8</ParameterControlType>
														<LowerBound>0</LowerBound>
														<UpperBound>32768</UpperBound>
														<value>-91445760000000000,0.,0,0,0,0,0,0</value>
													</parameter>
													<parameter authoringApp="PremierePro">
														<parameterid>12</parameterid>
														<name> </name>
														<IsTimeVarying>false</IsTimeVarying>
														<ParameterControlType>8</ParameterControlType>
														<LowerBound>0</LowerBound>
														<UpperBound>32768</UpperBound>
														<value>-91445760000000000,0.,0,0,0,0,0,0</value>
													</parameter>
													<parameter authoringApp="PremierePro">
														<parameterid>13</parameterid>
														<name>start</name>
														<IsTimeVarying>false</IsTimeVarying>
														<ParameterControlType>8</ParameterControlType>
														<LowerBound>-100</LowerBound>
														<UpperBound>1000000000</UpperBound>
														<value>-91445760000000000,0.,0,0,0,0,0,0</value>
													</parameter>
													<parameter authoringApp="PremierePro">
														<parameterid>14</parameterid>
														<name>end</name>
														<IsTimeVarying>false</IsTimeVarying>
														<ParameterControlType>8</ParameterControlType>
														<LowerBound>-100</LowerBound>
														<UpperBound>1000000000</UpperBound>
														<value>-91445760000000000,101.,0,0,0,0,0,0</value>
													</parameter>
													<parameter authoringApp="PremierePro">
														<parameterid>15</parameterid>
														<name> </name>
														<IsTimeVarying>false</IsTimeVarying>
														<ParameterControlType>4</ParameterControlType>
														<LowerBound>false</LowerBound>
														<UpperBound>true</UpperBound>
														<value>-91445760000000000,false,0,0,0,0,0,0</value>
													</parameter>
													<parameter authoringApp="PremierePro">
														<parameterid>16</parameterid>
														<name> </name>
														<IsTimeVarying>false</IsTimeVarying>
														<ParameterControlType>4</ParameterControlType>
														<LowerBound>false</LowerBound>
														<UpperBound>true</UpperBound>
														<value>-91445760000000000,false,0,0,0,0,0,0</value>
													</parameter>
													<parameter authoringApp="PremierePro">
														<parameterid>17</parameterid>
														<name> </name>
														<IsTimeVarying>false</IsTimeVarying>
														<ParameterControlType>4</ParameterControlType>
														<LowerBound>false</LowerBound>
														<UpperBound>true</UpperBound>
														<value>-91445760000000000,false,0,0,0,0,0,0</value>
													</parameter>
													<parameter authoringApp="PremierePro">
														<parameterid>18</parameterid>
														<name> </name>
														<IsTimeVarying>false</IsTimeVarying>
														<ParameterControlType>4</ParameterControlType>
														<LowerBound>false</LowerBound>
														<UpperBound>true</UpperBound>
														<value>-91445760000000000,false,0,0,0,0,0,0</value>
													</parameter>
													<parameter authoringApp="PremierePro">
														<parameterid>19</parameterid>
														<name>Parent Width</name>
														<IsTimeVarying>false</IsTimeVarying>
														<ParameterControlType>2</ParameterControlType>
														<LowerBound>0</LowerBound>
														<UpperBound>20000</UpperBound>
														<value>-91445760000000000,0.,0,0,0,0,0,0</value>
													</parameter>
													<parameter authoringApp="PremierePro">
														<parameterid>20</parameterid>
														<name>Parent Height</name>
														<IsTimeVarying>false</IsTimeVarying>
														<ParameterControlType>2</ParameterControlType>
														<LowerBound>0</LowerBound>
														<UpperBound>20000</UpperBound>
														<value>-91445760000000000,0.,0,0,0,0,0,0</value>
													</parameter>
													<parameter authoringApp="PremierePro">
														<parameterid>21</parameterid>
														<name>Parent Rotation</name>
														<IsTimeVarying>false</IsTimeVarying>
														<ParameterControlType>3</ParameterControlType>
														<LowerBound>-32768</LowerBound>
														<UpperBound>32767</UpperBound>
														<value>-91445760000000000,0.,0,0,0,0,0,0</value>
													</parameter>
												</effect>
											</filter>
											<logginginfo>
												<description></description>
												<scene></scene>
												<shottake></shottake>
												<lognote></lognote>
												<good></good>
												<originalvideofilename></originalvideofilename>
												<originalaudiofilename></originalaudiofilename>
											</logginginfo>
											<colorinfo>
												<lut></lut>
												<lut1></lut1>
												<asc_sop></asc_sop>
												<asc_sat></asc_sat>
												<lut2></lut2>
											</colorinfo>
										</clipitem>
										<transitionitem>
											<start>1097</start>
											<end>1122</end>
											<alignment>end-black</alignment>
											<cutPointTicks>254016000000</cutPointTicks>
											<rate>
												<timebase>25</timebase>
												<ntsc>FALSE</ntsc>
											</rate>
											<effect>
												<name>Edge Wipe</name>
												<effectid>Edge Wipe</effectid>
												<effectcategory>Wipe</effectcategory>
												<effecttype>transition</effecttype>
												<mediatype>video</mediatype>
												<wipecode>2</wipecode>
												<wipeaccuracy>100</wipeaccuracy>
												<startratio>0</startratio>
												<endratio>1</endratio>
												<reverse>FALSE</reverse>
												<parameter authoringApp="PremierePro">
													<parameterid>directionofwipe</parameterid>
													<name>Angle</name>
													<valuemin>-360</valuemin>
													<valuemax>360</valuemax>
													<value>90</value>
												</parameter>
											</effect>
										</transitionitem>
										<enabled>TRUE</enabled>
										<locked>FALSE</locked>
									</track>
								</video>
								<audio>
									<numOutputChannels>2</numOutputChannels>
									<format>
										<samplecharacteristics>
											<depth>16</depth>
											<samplerate>48000</samplerate>
										</samplecharacteristics>
									</format>
									<outputs>
										<group>
											<index>1</index>
											<numchannels>1</numchannels>
											<downmix>0</downmix>
											<channel>
												<index>1</index>
											</channel>
										</group>
										<group>
											<index>2</index>
											<numchannels>1</numchannels>
											<downmix>0</downmix>
											<channel>
												<index>2</index>
											</channel>
										</group>
									</outputs>
									<track TL.SQTrackAudioKeyframeStyle="0" TL.SQTrackShy="0" TL.SQTrackExpandedHeight="25" TL.SQTrackExpanded="0" MZ.TrackTargeted="1" PannerCurrentValue="0.5" PannerStartKeyframe="-91445760000000000,0.5,0,0,0,0,0,0" PannerName="Balance" currentExplodedTrackIndex="0" totalExplodedTrackCount="2" premiereTrackType="Stereo">
										<enabled>TRUE</enabled>
										<locked>FALSE</locked>
										<outputchannelindex>1</outputchannelindex>
									</track>
									<track TL.SQTrackAudioKeyframeStyle="0" TL.SQTrackShy="0" TL.SQTrackExpandedHeight="25" TL.SQTrackExpanded="0" MZ.TrackTargeted="1" PannerCurrentValue="0.5" PannerStartKeyframe="-91445760000000000,0.5,0,0,0,0,0,0" PannerName="Balance" currentExplodedTrackIndex="1" totalExplodedTrackCount="2" premiereTrackType="Stereo">
										<enabled>TRUE</enabled>
										<locked>FALSE</locked>
										<outputchannelindex>2</outputchannelindex>
									</track>
								</audio>
							</media>
							<timecode>
								<rate>
									<timebase>25</timebase>
									<ntsc>FALSE</ntsc>
								</rate>
								<string>00:00:00:00</string>
								<frame>0</frame>
								<displayformat>NDF</displayformat>
							</timecode>
								<marker>
									<comment></comment>
									<name></name>
									<in>425</in>
									<out>-1</out>
									<pproColor>4292277273</pproColor>
								</marker>
								<marker>
									<comment></comment>
									<name></name>
									<in>800</in>
									<out>-1</out>
									<pproColor>4292277273</pproColor>
								</marker>
								<marker>
									<comment></comment>
									<name></name>
									<in>50</in>
									<out>-1</out>
									<pproColor>4292277273</pproColor>
								</marker>
							<logginginfo>
								<description></description>
								<scene></scene>
								<shottake></shottake>
								<lognote></lognote>
								<good></good>
								<originalvideofilename></originalvideofilename>
								<originalaudiofilename></originalaudiofilename>
							</logginginfo>
						</sequence>
							<marker>
								<comment></comment>
								<name></name>
								<in>425</in>
								<out>-1</out>
								<pproColor>4292277273</pproColor>
							</marker>
							<marker>
								<comment></comment>
								<name></name>
								<in>800</in>
								<out>-1</out>
								<pproColor>4292277273</pproColor>
							</marker>
							<marker>
								<comment></comment>
								<name></name>
								<in>50</in>
								<out>-1</out>
								<pproColor>4292277273</pproColor>
							</marker>
						<labels>
							<label2>Forest</label2>
						</labels>
					</clipitem>
					<clipitem id="clipitem-1345">
						<masterclipid>masterclip-603</masterclipid>
						<name>8</name>
						<enabled>TRUE</enabled>
						<duration>1125</duration>
						<rate>
							<timebase>25</timebase>
							<ntsc>FALSE</ntsc>
						</rate>
						<start>26800</start>
						<end>27175</end>
						<in>375</in>
						<out>750</out>
						<pproTicksIn>3810240000000</pproTicksIn>
						<pproTicksOut>7620480000000</pproTicksOut>
						<sequence id="sequence-112"/>
							<marker>
								<comment></comment>
								<name></name>
								<in>425</in>
								<out>-1</out>
								<pproColor>4292277273</pproColor>
							</marker>
							<marker>
								<comment></comment>
								<name></name>
								<in>800</in>
								<out>-1</out>
								<pproColor>4292277273</pproColor>
							</marker>
							<marker>
								<comment></comment>
								<name></name>
								<in>50</in>
								<out>-1</out>
								<pproColor>4292277273</pproColor>
							</marker>
						<labels>
							<label2>Forest</label2>
						</labels>
					</clipitem>
					<clipitem id="clipitem-1346">
						<masterclipid>masterclip-603</masterclipid>
						<name>8</name>
						<enabled>TRUE</enabled>
						<duration>1125</duration>
						<rate>
							<timebase>25</timebase>
							<ntsc>FALSE</ntsc>
						</rate>
						<start>27958</start>
						<end>28333</end>
						<in>750</in>
						<out>1125</out>
						<pproTicksIn>7620480000000</pproTicksIn>
						<pproTicksOut>11430720000000</pproTicksOut>
						<sequence id="sequence-112"/>
							<marker>
								<comment></comment>
								<name></name>
								<in>425</in>
								<out>-1</out>
								<pproColor>4292277273</pproColor>
							</marker>
							<marker>
								<comment></comment>
								<name></name>
								<in>800</in>
								<out>-1</out>
								<pproColor>4292277273</pproColor>
							</marker>
							<marker>
								<comment></comment>
								<name></name>
								<in>50</in>
								<out>-1</out>
								<pproColor>4292277273</pproColor>
							</marker>
						<labels>
							<label2>Forest</label2>
						</labels>
					</clipitem>
					<clipitem id="clipitem-1347">
						<masterclipid>masterclip-608</masterclipid>
						<name>7</name>
						<enabled>TRUE</enabled>
						<duration>1125</duration>
						<rate>
							<timebase>25</timebase>
							<ntsc>FALSE</ntsc>
						</rate>
						<start>31047</start>
						<end>31422</end>
						<in>0</in>
						<out>375</out>
						<pproTicksIn>0</pproTicksIn>
						<pproTicksOut>3810240000000</pproTicksOut>
						<sequence id="sequence-113" TL.SQAudioVisibleBase="0" TL.SQVideoVisibleBase="0" TL.SQVisibleBaseTime="0" TL.SQAVDividerPosition="0.5" TL.SQHideShyTracks="0" TL.SQHeaderWidth="236" Monitor.ProgramZoomOut="7620480000000" Monitor.ProgramZoomIn="0" TL.SQTimePerPixel="0.19620667102680814" AM.TrackVScrollPosition="0" AM.TrackScrollPosition="0" MZ.EditLine="5883010560000" MZ.Sequence.PreviewFrameSizeHeight="576" MZ.Sequence.PreviewFrameSizeWidth="720" MZ.Sequence.AudioTimeDisplayFormat="200" MZ.Sequence.PreviewRenderingClassID="1061109567" MZ.Sequence.PreviewRenderingPresetCodec="1685480304" MZ.Sequence.PreviewRenderingPresetPath="EncoderPresets/SequencePreview/04be6e19-a018-4e0c-a9d6-0ab44c64752b/QuickTime DV PAL.epr" MZ.Sequence.PreviewUseMaxRenderQuality="false" MZ.Sequence.PreviewUseMaxBitDepth="false" MZ.Sequence.EditingModeGUID="04be6e19-a018-4e0c-a9d6-0ab44c64752b" MZ.Sequence.VideoTimeDisplayFormat="101" MZ.WorkOutPoint="11430720000000" MZ.WorkInPoint="0" MZ.ZeroPoint="0">
							<duration>750</duration>
							<rate>
								<timebase>25</timebase>
								<ntsc>FALSE</ntsc>
							</rate>
							<name>RU_Nested</name>
							<media>
								<video>
									<format>
										<samplecharacteristics>
											<rate>
												<timebase>25</timebase>
												<ntsc>FALSE</ntsc>
											</rate>
											<codec>
												<name>Apple ProRes 422</name>
												<appspecificdata>
													<appname>Final Cut Pro</appname>
													<appmanufacturer>Apple Inc.</appmanufacturer>
													<appversion>7.0</appversion>
													<data>
														<qtcodec>
															<codecname>Apple ProRes 422</codecname>
															<codectypename>Apple ProRes 422</codectypename>
															<codectypecode>apcn</codectypecode>
															<codecvendorcode>appl</codecvendorcode>
															<spatialquality>1024</spatialquality>
															<temporalquality>0</temporalquality>
															<keyframerate>0</keyframerate>
															<datarate>0</datarate>
														</qtcodec>
													</data>
												</appspecificdata>
											</codec>
											<width>720</width>
											<height>576</height>
											<anamorphic>TRUE</anamorphic>
											<pixelaspectratio>PAL-601</pixelaspectratio>
											<fielddominance>lower</fielddominance>
											<colordepth>24</colordepth>
										</samplecharacteristics>
									</format>
									<track TL.SQTrackShy="0" TL.SQTrackExpandedHeight="25" TL.SQTrackExpanded="0" MZ.TrackTargeted="1">
										<clipitem id="clipitem-1348">
											<masterclipid>masterclip-585</masterclipid>
											<name>Plashka_Right_DV.mov</name>
											<enabled>TRUE</enabled>
											<duration>375</duration>
											<rate>
												<timebase>25</timebase>
												<ntsc>FALSE</ntsc>
											</rate>
											<start>0</start>
											<end>375</end>
											<in>0</in>
											<out>375</out>
											<pproTicksIn>0</pproTicksIn>
											<pproTicksOut>3810240000000</pproTicksOut>
											<alphatype>straight</alphatype>
											<file id="file-484"/>
											<filter>
												<effect>
													<name>Basic Motion</name>
													<effectid>basic</effectid>
													<effectcategory>motion</effectcategory>
													<effecttype>motion</effecttype>
													<mediatype>video</mediatype>
													<pproBypass>false</pproBypass>
													<parameter authoringApp="PremierePro">
														<parameterid>scale</parameterid>
														<name>Scale</name>
														<valuemin>0</valuemin>
														<valuemax>1000</valuemax>
														<value>100</value>
													</parameter>
													<parameter authoringApp="PremierePro">
														<parameterid>rotation</parameterid>
														<name>Rotation</name>
														<valuemin>-8640</valuemin>
														<valuemax>8640</valuemax>
														<value>0</value>
													</parameter>
													<parameter authoringApp="PremierePro">
														<parameterid>center</parameterid>
														<name>Center</name>
														<value>
															<horiz>-5.55112e-17</horiz>
															<vert>-1.11022e-16</vert>
														</value>
													</parameter>
													<parameter authoringApp="PremierePro">
														<parameterid>centerOffset</parameterid>
														<name>Anchor Point</name>
														<value>
															<horiz>0.402314</horiz>
															<vert>0.41875</vert>
														</value>
													</parameter>
													<parameter authoringApp="PremierePro">
														<parameterid>antiflicker</parameterid>
														<name>Anti-flicker Filter</name>
														<valuemin>0.0</valuemin>
														<valuemax>1.0</valuemax>
														<value>0</value>
													</parameter>
												</effect>
											</filter>
											<filter>
												<effect>
													<name>Distort</name>
													<effectid>deformation</effectid>
													<effectcategory>motion</effectcategory>
													<effecttype>motion</effecttype>
													<mediatype>video</mediatype>
													<parameter authoringApp="PremierePro">
														<parameterid>aspect</parameterid>
														<name>Aspect</name>
														<valuemin>-10000</valuemin>
														<valuemax>10000</valuemax>
														<value>13.6364</value>
													</parameter>
												</effect>
											</filter>
											<logginginfo>
												<description></description>
												<scene></scene>
												<shottake></shottake>
												<lognote></lognote>
												<good></good>
												<originalvideofilename></originalvideofilename>
												<originalaudiofilename></originalaudiofilename>
											</logginginfo>
											<colorinfo>
												<lut></lut>
												<lut1></lut1>
												<asc_sop></asc_sop>
												<asc_sat></asc_sat>
												<lut2></lut2>
											</colorinfo>
											<labels>
												<label2>Violet</label2>
											</labels>
										</clipitem>
										<clipitem id="clipitem-1349">
											<masterclipid>masterclip-585</masterclipid>
											<name>Plashka_Right_DV.mov</name>
											<enabled>TRUE</enabled>
											<duration>375</duration>
											<rate>
												<timebase>25</timebase>
												<ntsc>FALSE</ntsc>
											</rate>
											<start>375</start>
											<end>750</end>
											<in>0</in>
											<out>375</out>
											<pproTicksIn>0</pproTicksIn>
											<pproTicksOut>3810240000000</pproTicksOut>
											<alphatype>straight</alphatype>
											<file id="file-484"/>
											<filter>
												<effect>
													<name>Basic Motion</name>
													<effectid>basic</effectid>
													<effectcategory>motion</effectcategory>
													<effecttype>motion</effecttype>
													<mediatype>video</mediatype>
													<pproBypass>false</pproBypass>
													<parameter authoringApp="PremierePro">
														<parameterid>scale</parameterid>
														<name>Scale</name>
														<valuemin>0</valuemin>
														<valuemax>1000</valuemax>
														<value>100</value>
													</parameter>
													<parameter authoringApp="PremierePro">
														<parameterid>rotation</parameterid>
														<name>Rotation</name>
														<valuemin>-8640</valuemin>
														<valuemax>8640</valuemax>
														<value>0</value>
													</parameter>
													<parameter authoringApp="PremierePro">
														<parameterid>center</parameterid>
														<name>Center</name>
														<value>
															<horiz>-5.55112e-17</horiz>
															<vert>-1.11022e-16</vert>
														</value>
													</parameter>
													<parameter authoringApp="PremierePro">
														<parameterid>centerOffset</parameterid>
														<name>Anchor Point</name>
														<value>
															<horiz>0.402314</horiz>
															<vert>0.41875</vert>
														</value>
													</parameter>
													<parameter authoringApp="PremierePro">
														<parameterid>antiflicker</parameterid>
														<name>Anti-flicker Filter</name>
														<valuemin>0.0</valuemin>
														<valuemax>1.0</valuemax>
														<value>0</value>
													</parameter>
												</effect>
											</filter>
											<filter>
												<effect>
													<name>Distort</name>
													<effectid>deformation</effectid>
													<effectcategory>motion</effectcategory>
													<effecttype>motion</effecttype>
													<mediatype>video</mediatype>
													<parameter authoringApp="PremierePro">
														<parameterid>aspect</parameterid>
														<name>Aspect</name>
														<valuemin>-10000</valuemin>
														<valuemax>10000</valuemax>
														<value>13.6364</value>
													</parameter>
												</effect>
											</filter>
											<logginginfo>
												<description></description>
												<scene></scene>
												<shottake></shottake>
												<lognote></lognote>
												<good></good>
												<originalvideofilename></originalvideofilename>
												<originalaudiofilename></originalaudiofilename>
											</logginginfo>
											<colorinfo>
												<lut></lut>
												<lut1></lut1>
												<asc_sop></asc_sop>
												<asc_sat></asc_sat>
												<lut2></lut2>
											</colorinfo>
											<labels>
												<label2>Violet</label2>
											</labels>
										</clipitem>
										<enabled>TRUE</enabled>
										<locked>FALSE</locked>
									</track>
									<track TL.SQTrackShy="0" TL.SQTrackExpandedHeight="25" TL.SQTrackExpanded="0" MZ.TrackTargeted="0">
										<transitionitem>
											<start>6</start>
											<end>35</end>
											<alignment>start-black</alignment>
											<cutPointTicks>0</cutPointTicks>
											<rate>
												<timebase>25</timebase>
												<ntsc>FALSE</ntsc>
											</rate>
											<effect>
												<name>Edge Wipe</name>
												<effectid>Edge Wipe</effectid>
												<effectcategory>Wipe</effectcategory>
												<effecttype>transition</effecttype>
												<mediatype>video</mediatype>
												<wipecode>2</wipecode>
												<wipeaccuracy>100</wipeaccuracy>
												<startratio>0</startratio>
												<endratio>1</endratio>
												<reverse>FALSE</reverse>
												<parameter authoringApp="PremierePro">
													<parameterid>directionofwipe</parameterid>
													<name>Angle</name>
													<valuemin>-360</valuemin>
													<valuemax>360</valuemax>
													<value>270</value>
												</parameter>
											</effect>
										</transitionitem>
										<clipitem id="clipitem-1350">
											<masterclipid>masterclip-609</masterclipid>
											<name>7_1.png</name>
											<enabled>TRUE</enabled>
											<duration>1080000</duration>
											<rate>
												<timebase>25</timebase>
												<ntsc>FALSE</ntsc>
											</rate>
											<start>-1</start>
											<end>-1</end>
											<in>90006</in>
											<out>90369</out>
											<pproTicksIn>914518563840000</pproTicksIn>
											<pproTicksOut>918206876160000</pproTicksOut>
											<alphatype>straight</alphatype>
											<pixelaspectratio>square</pixelaspectratio>
											<anamorphic>FALSE</anamorphic>
											<file id="file-503">
												<name>7_1.png</name>
												<pathurl>file://localhost/_MUZ_TV/project_AP/RU/_TITLE/468/PNG/7_1.png</pathurl>
												<rate>
													<timebase>30</timebase>
													<ntsc>TRUE</ntsc>
												</rate>
												<timecode>
													<rate>
														<timebase>30</timebase>
														<ntsc>TRUE</ntsc>
													</rate>
													<string>00;00;00;00</string>
													<frame>0</frame>
													<displayformat>DF</displayformat>
												</timecode>
												<media>
													<video>
														<samplecharacteristics>
															<rate>
																<timebase>30</timebase>
																<ntsc>TRUE</ntsc>
															</rate>
															<width>1920</width>
															<height>1080</height>
															<anamorphic>FALSE</anamorphic>
															<pixelaspectratio>square</pixelaspectratio>
															<fielddominance>none</fielddominance>
														</samplecharacteristics>
													</video>
												</media>
											</file>
											<filter>
												<effect>
													<name>Basic Motion</name>
													<effectid>basic</effectid>
													<effectcategory>motion</effectcategory>
													<effecttype>motion</effecttype>
													<mediatype>video</mediatype>
													<pproBypass>false</pproBypass>
													<parameter authoringApp="PremierePro">
														<parameterid>scale</parameterid>
														<name>Scale</name>
														<valuemin>0</valuemin>
														<valuemax>1000</valuemax>
														<value>53.3333</value>
													</parameter>
													<parameter authoringApp="PremierePro">
														<parameterid>rotation</parameterid>
														<name>Rotation</name>
														<valuemin>-8640</valuemin>
														<valuemax>8640</valuemax>
														<value>0</value>
													</parameter>
													<parameter authoringApp="PremierePro">
														<parameterid>center</parameterid>
														<name>Center</name>
														<value>
															<horiz>0</horiz>
															<vert>0</vert>
														</value>
													</parameter>
													<parameter authoringApp="PremierePro">
														<parameterid>centerOffset</parameterid>
														<name>Anchor Point</name>
														<value>
															<horiz>0</horiz>
															<vert>0</vert>
														</value>
													</parameter>
													<parameter authoringApp="PremierePro">
														<parameterid>antiflicker</parameterid>
														<name>Anti-flicker Filter</name>
														<valuemin>0.0</valuemin>
														<valuemax>1.0</valuemax>
														<value>0</value>
													</parameter>
												</effect>
											</filter>
											<logginginfo>
												<description></description>
												<scene></scene>
												<shottake></shottake>
												<lognote></lognote>
												<good></good>
												<originalvideofilename></originalvideofilename>
												<originalaudiofilename></originalaudiofilename>
											</logginginfo>
											<colorinfo>
												<lut></lut>
												<lut1></lut1>
												<asc_sop></asc_sop>
												<asc_sat></asc_sat>
												<lut2></lut2>
											</colorinfo>
											<labels>
												<label2>Lavender</label2>
											</labels>
										</clipitem>
										<transitionitem>
											<start>344</start>
											<end>369</end>
											<alignment>end-black</alignment>
											<cutPointTicks>254016000000</cutPointTicks>
											<rate>
												<timebase>25</timebase>
												<ntsc>FALSE</ntsc>
											</rate>
											<effect>
												<name>Edge Wipe</name>
												<effectid>Edge Wipe</effectid>
												<effectcategory>Wipe</effectcategory>
												<effecttype>transition</effecttype>
												<mediatype>video</mediatype>
												<wipecode>2</wipecode>
												<wipeaccuracy>100</wipeaccuracy>
												<startratio>0</startratio>
												<endratio>1</endratio>
												<reverse>FALSE</reverse>
												<parameter authoringApp="PremierePro">
													<parameterid>directionofwipe</parameterid>
													<name>Angle</name>
													<valuemin>-360</valuemin>
													<valuemax>360</valuemax>
													<value>90</value>
												</parameter>
											</effect>
										</transitionitem>
										<transitionitem>
											<start>381</start>
											<end>410</end>
											<alignment>start-black</alignment>
											<cutPointTicks>0</cutPointTicks>
											<rate>
												<timebase>25</timebase>
												<ntsc>FALSE</ntsc>
											</rate>
											<effect>
												<name>Edge Wipe</name>
												<effectid>Edge Wipe</effectid>
												<effectcategory>Wipe</effectcategory>
												<effecttype>transition</effecttype>
												<mediatype>video</mediatype>
												<wipecode>2</wipecode>
												<wipeaccuracy>100</wipeaccuracy>
												<startratio>0</startratio>
												<endratio>1</endratio>
												<reverse>FALSE</reverse>
												<parameter authoringApp="PremierePro">
													<parameterid>directionofwipe</parameterid>
													<name>Angle</name>
													<valuemin>-360</valuemin>
													<valuemax>360</valuemax>
													<value>270</value>
												</parameter>
											</effect>
										</transitionitem>
										<clipitem id="clipitem-1351">
											<masterclipid>masterclip-610</masterclipid>
											<name>7_2.png</name>
											<enabled>TRUE</enabled>
											<duration>1080000</duration>
											<rate>
												<timebase>25</timebase>
												<ntsc>FALSE</ntsc>
											</rate>
											<start>-1</start>
											<end>-1</end>
											<in>90011</in>
											<out>90374</out>
											<pproTicksIn>914569367040000</pproTicksIn>
											<pproTicksOut>918257679360000</pproTicksOut>
											<alphatype>straight</alphatype>
											<pixelaspectratio>square</pixelaspectratio>
											<anamorphic>FALSE</anamorphic>
											<file id="file-504">
												<name>7_2.png</name>
												<pathurl>file://localhost/_MUZ_TV/project_AP/RU/_TITLE/468/PNG/7_2.png</pathurl>
												<rate>
													<timebase>30</timebase>
													<ntsc>TRUE</ntsc>
												</rate>
												<timecode>
													<rate>
														<timebase>30</timebase>
														<ntsc>TRUE</ntsc>
													</rate>
													<string>00;00;00;00</string>
													<frame>0</frame>
													<displayformat>DF</displayformat>
												</timecode>
												<media>
													<video>
														<samplecharacteristics>
															<rate>
																<timebase>30</timebase>
																<ntsc>TRUE</ntsc>
															</rate>
															<width>1920</width>
															<height>1080</height>
															<anamorphic>FALSE</anamorphic>
															<pixelaspectratio>square</pixelaspectratio>
															<fielddominance>none</fielddominance>
														</samplecharacteristics>
													</video>
												</media>
											</file>
											<filter>
												<effect>
													<name>Basic Motion</name>
													<effectid>basic</effectid>
													<effectcategory>motion</effectcategory>
													<effecttype>motion</effecttype>
													<mediatype>video</mediatype>
													<pproBypass>false</pproBypass>
													<parameter authoringApp="PremierePro">
														<parameterid>scale</parameterid>
														<name>Scale</name>
														<valuemin>0</valuemin>
														<valuemax>1000</valuemax>
														<value>53.3333</value>
													</parameter>
													<parameter authoringApp="PremierePro">
														<parameterid>rotation</parameterid>
														<name>Rotation</name>
														<valuemin>-8640</valuemin>
														<valuemax>8640</valuemax>
														<value>0</value>
													</parameter>
													<parameter authoringApp="PremierePro">
														<parameterid>center</parameterid>
														<name>Center</name>
														<value>
															<horiz>0</horiz>
															<vert>0</vert>
														</value>
													</parameter>
													<parameter authoringApp="PremierePro">
														<parameterid>centerOffset</parameterid>
														<name>Anchor Point</name>
														<value>
															<horiz>0</horiz>
															<vert>0</vert>
														</value>
													</parameter>
													<parameter authoringApp="PremierePro">
														<parameterid>antiflicker</parameterid>
														<name>Anti-flicker Filter</name>
														<valuemin>0.0</valuemin>
														<valuemax>1.0</valuemax>
														<value>0</value>
													</parameter>
												</effect>
											</filter>
											<logginginfo>
												<description></description>
												<scene></scene>
												<shottake></shottake>
												<lognote></lognote>
												<good></good>
												<originalvideofilename></originalvideofilename>
												<originalaudiofilename></originalaudiofilename>
											</logginginfo>
											<colorinfo>
												<lut></lut>
												<lut1></lut1>
												<asc_sop></asc_sop>
												<asc_sat></asc_sat>
												<lut2></lut2>
											</colorinfo>
											<labels>
												<label2>Lavender</label2>
											</labels>
										</clipitem>
										<transitionitem>
											<start>719</start>
											<end>744</end>
											<alignment>end-black</alignment>
											<cutPointTicks>254016000000</cutPointTicks>
											<rate>
												<timebase>25</timebase>
												<ntsc>FALSE</ntsc>
											</rate>
											<effect>
												<name>Edge Wipe</name>
												<effectid>Edge Wipe</effectid>
												<effectcategory>Wipe</effectcategory>
												<effecttype>transition</effecttype>
												<mediatype>video</mediatype>
												<wipecode>2</wipecode>
												<wipeaccuracy>100</wipeaccuracy>
												<startratio>0</startratio>
												<endratio>1</endratio>
												<reverse>FALSE</reverse>
												<parameter authoringApp="PremierePro">
													<parameterid>directionofwipe</parameterid>
													<name>Angle</name>
													<valuemin>-360</valuemin>
													<valuemax>360</valuemax>
													<value>90</value>
												</parameter>
											</effect>
										</transitionitem>
										<enabled>TRUE</enabled>
										<locked>FALSE</locked>
									</track>
									<track TL.SQTrackShy="0" TL.SQTrackExpandedHeight="25" TL.SQTrackExpanded="0" MZ.TrackTargeted="0">
										<enabled>TRUE</enabled>
										<locked>FALSE</locked>
									</track>
								</video>
								<audio>
									<numOutputChannels>2</numOutputChannels>
									<format>
										<samplecharacteristics>
											<depth>16</depth>
											<samplerate>48000</samplerate>
										</samplecharacteristics>
									</format>
									<outputs>
										<group>
											<index>1</index>
											<numchannels>1</numchannels>
											<downmix>0</downmix>
											<channel>
												<index>1</index>
											</channel>
										</group>
										<group>
											<index>2</index>
											<numchannels>1</numchannels>
											<downmix>0</downmix>
											<channel>
												<index>2</index>
											</channel>
										</group>
									</outputs>
									<track TL.SQTrackAudioKeyframeStyle="0" TL.SQTrackShy="0" TL.SQTrackExpandedHeight="25" TL.SQTrackExpanded="0" MZ.TrackTargeted="1" PannerCurrentValue="0.5" PannerStartKeyframe="-91445760000000000,0.5,0,0,0,0,0,0" PannerName="Balance" currentExplodedTrackIndex="0" totalExplodedTrackCount="2" premiereTrackType="Stereo">
										<enabled>TRUE</enabled>
										<locked>FALSE</locked>
										<outputchannelindex>1</outputchannelindex>
									</track>
									<track TL.SQTrackAudioKeyframeStyle="0" TL.SQTrackShy="0" TL.SQTrackExpandedHeight="25" TL.SQTrackExpanded="0" MZ.TrackTargeted="1" PannerCurrentValue="0.5" PannerStartKeyframe="-91445760000000000,0.5,0,0,0,0,0,0" PannerName="Balance" currentExplodedTrackIndex="1" totalExplodedTrackCount="2" premiereTrackType="Stereo">
										<enabled>TRUE</enabled>
										<locked>FALSE</locked>
										<outputchannelindex>2</outputchannelindex>
									</track>
								</audio>
							</media>
							<timecode>
								<rate>
									<timebase>25</timebase>
									<ntsc>FALSE</ntsc>
								</rate>
								<string>00:00:00:00</string>
								<frame>0</frame>
								<displayformat>NDF</displayformat>
							</timecode>
								<marker>
									<comment></comment>
									<name></name>
									<in>800</in>
									<out>-1</out>
									<pproColor>4292277273</pproColor>
								</marker>
								<marker>
									<comment></comment>
									<name></name>
									<in>425</in>
									<out>-1</out>
									<pproColor>4292277273</pproColor>
								</marker>
								<marker>
									<comment></comment>
									<name></name>
									<in>50</in>
									<out>-1</out>
									<pproColor>4292277273</pproColor>
								</marker>
							<logginginfo>
								<description></description>
								<scene></scene>
								<shottake></shottake>
								<lognote></lognote>
								<good></good>
								<originalvideofilename></originalvideofilename>
								<originalaudiofilename></originalaudiofilename>
							</logginginfo>
						</sequence>
							<marker>
								<comment></comment>
								<name></name>
								<in>800</in>
								<out>-1</out>
								<pproColor>4292277273</pproColor>
							</marker>
							<marker>
								<comment></comment>
								<name></name>
								<in>425</in>
								<out>-1</out>
								<pproColor>4292277273</pproColor>
							</marker>
							<marker>
								<comment></comment>
								<name></name>
								<in>50</in>
								<out>-1</out>
								<pproColor>4292277273</pproColor>
							</marker>
						<labels>
							<label2>Forest</label2>
						</labels>
					</clipitem>
					<clipitem id="clipitem-1352">
						<masterclipid>masterclip-608</masterclipid>
						<name>7</name>
						<enabled>TRUE</enabled>
						<duration>1125</duration>
						<rate>
							<timebase>25</timebase>
							<ntsc>FALSE</ntsc>
						</rate>
						<start>32445</start>
						<end>32820</end>
						<in>375</in>
						<out>750</out>
						<pproTicksIn>3810240000000</pproTicksIn>
						<pproTicksOut>7620480000000</pproTicksOut>
						<sequence id="sequence-113"/>
							<marker>
								<comment></comment>
								<name></name>
								<in>800</in>
								<out>-1</out>
								<pproColor>4292277273</pproColor>
							</marker>
							<marker>
								<comment></comment>
								<name></name>
								<in>425</in>
								<out>-1</out>
								<pproColor>4292277273</pproColor>
							</marker>
							<marker>
								<comment></comment>
								<name></name>
								<in>50</in>
								<out>-1</out>
								<pproColor>4292277273</pproColor>
							</marker>
						<labels>
							<label2>Forest</label2>
						</labels>
					</clipitem>
					<clipitem id="clipitem-1353">
						<masterclipid>masterclip-611</masterclipid>
						<name>6</name>
						<enabled>TRUE</enabled>
						<duration>1125</duration>
						<rate>
							<timebase>25</timebase>
							<ntsc>FALSE</ntsc>
						</rate>
						<start>36009</start>
						<end>36384</end>
						<in>0</in>
						<out>375</out>
						<pproTicksIn>0</pproTicksIn>
						<pproTicksOut>3810240000000</pproTicksOut>
						<sequence id="sequence-114" TL.SQAudioVisibleBase="0" TL.SQVideoVisibleBase="0" TL.SQVisibleBaseTime="0" TL.SQAVDividerPosition="0.5" TL.SQHideShyTracks="0" TL.SQHeaderWidth="236" Monitor.ProgramZoomOut="11430720000000" Monitor.ProgramZoomIn="0" TL.SQTimePerPixel="0.19620667102680814" AM.TrackVScrollPosition="0" AM.TrackScrollPosition="0" MZ.EditLine="9764375040000" MZ.Sequence.PreviewFrameSizeHeight="576" MZ.Sequence.PreviewFrameSizeWidth="720" MZ.Sequence.AudioTimeDisplayFormat="200" MZ.Sequence.PreviewRenderingClassID="1061109567" MZ.Sequence.PreviewRenderingPresetCodec="1685480304" MZ.Sequence.PreviewRenderingPresetPath="EncoderPresets/SequencePreview/04be6e19-a018-4e0c-a9d6-0ab44c64752b/QuickTime DV PAL.epr" MZ.Sequence.PreviewUseMaxRenderQuality="false" MZ.Sequence.PreviewUseMaxBitDepth="false" MZ.Sequence.EditingModeGUID="04be6e19-a018-4e0c-a9d6-0ab44c64752b" MZ.Sequence.VideoTimeDisplayFormat="101" MZ.WorkOutPoint="11430720000000" MZ.WorkInPoint="0" MZ.ZeroPoint="0">
							<duration>1125</duration>
							<rate>
								<timebase>25</timebase>
								<ntsc>FALSE</ntsc>
							</rate>
							<name>RU_Nested</name>
							<media>
								<video>
									<format>
										<samplecharacteristics>
											<rate>
												<timebase>25</timebase>
												<ntsc>FALSE</ntsc>
											</rate>
											<codec>
												<name>Apple ProRes 422</name>
												<appspecificdata>
													<appname>Final Cut Pro</appname>
													<appmanufacturer>Apple Inc.</appmanufacturer>
													<appversion>7.0</appversion>
													<data>
														<qtcodec>
															<codecname>Apple ProRes 422</codecname>
															<codectypename>Apple ProRes 422</codectypename>
															<codectypecode>apcn</codectypecode>
															<codecvendorcode>appl</codecvendorcode>
															<spatialquality>1024</spatialquality>
															<temporalquality>0</temporalquality>
															<keyframerate>0</keyframerate>
															<datarate>0</datarate>
														</qtcodec>
													</data>
												</appspecificdata>
											</codec>
											<width>720</width>
											<height>576</height>
											<anamorphic>TRUE</anamorphic>
											<pixelaspectratio>PAL-601</pixelaspectratio>
											<fielddominance>lower</fielddominance>
											<colordepth>24</colordepth>
										</samplecharacteristics>
									</format>
									<track TL.SQTrackShy="0" TL.SQTrackExpandedHeight="25" TL.SQTrackExpanded="0" MZ.TrackTargeted="1">
										<clipitem id="clipitem-1354">
											<masterclipid>masterclip-585</masterclipid>
											<name>Plashka_Right_DV.mov</name>
											<enabled>TRUE</enabled>
											<duration>375</duration>
											<rate>
												<timebase>25</timebase>
												<ntsc>FALSE</ntsc>
											</rate>
											<start>0</start>
											<end>375</end>
											<in>0</in>
											<out>375</out>
											<pproTicksIn>0</pproTicksIn>
											<pproTicksOut>3810240000000</pproTicksOut>
											<alphatype>straight</alphatype>
											<file id="file-484"/>
											<filter>
												<effect>
													<name>Basic Motion</name>
													<effectid>basic</effectid>
													<effectcategory>motion</effectcategory>
													<effecttype>motion</effecttype>
													<mediatype>video</mediatype>
													<pproBypass>false</pproBypass>
													<parameter authoringApp="PremierePro">
														<parameterid>scale</parameterid>
														<name>Scale</name>
														<valuemin>0</valuemin>
														<valuemax>1000</valuemax>
														<value>100</value>
													</parameter>
													<parameter authoringApp="PremierePro">
														<parameterid>rotation</parameterid>
														<name>Rotation</name>
														<valuemin>-8640</valuemin>
														<valuemax>8640</valuemax>
														<value>0</value>
													</parameter>
													<parameter authoringApp="PremierePro">
														<parameterid>center</parameterid>
														<name>Center</name>
														<value>
															<horiz>-5.55112e-17</horiz>
															<vert>-1.11022e-16</vert>
														</value>
													</parameter>
													<parameter authoringApp="PremierePro">
														<parameterid>centerOffset</parameterid>
														<name>Anchor Point</name>
														<value>
															<horiz>0.402314</horiz>
															<vert>0.41875</vert>
														</value>
													</parameter>
													<parameter authoringApp="PremierePro">
														<parameterid>antiflicker</parameterid>
														<name>Anti-flicker Filter</name>
														<valuemin>0.0</valuemin>
														<valuemax>1.0</valuemax>
														<value>0</value>
													</parameter>
												</effect>
											</filter>
											<filter>
												<effect>
													<name>Distort</name>
													<effectid>deformation</effectid>
													<effectcategory>motion</effectcategory>
													<effecttype>motion</effecttype>
													<mediatype>video</mediatype>
													<parameter authoringApp="PremierePro">
														<parameterid>aspect</parameterid>
														<name>Aspect</name>
														<valuemin>-10000</valuemin>
														<valuemax>10000</valuemax>
														<value>6.38298</value>
													</parameter>
												</effect>
											</filter>
											<logginginfo>
												<description></description>
												<scene></scene>
												<shottake></shottake>
												<lognote></lognote>
												<good></good>
												<originalvideofilename></originalvideofilename>
												<originalaudiofilename></originalaudiofilename>
											</logginginfo>
											<colorinfo>
												<lut></lut>
												<lut1></lut1>
												<asc_sop></asc_sop>
												<asc_sat></asc_sat>
												<lut2></lut2>
											</colorinfo>
											<labels>
												<label2>Violet</label2>
											</labels>
										</clipitem>
										<clipitem id="clipitem-1355">
											<masterclipid>masterclip-585</masterclipid>
											<name>Plashka_Right_DV.mov</name>
											<enabled>TRUE</enabled>
											<duration>375</duration>
											<rate>
												<timebase>25</timebase>
												<ntsc>FALSE</ntsc>
											</rate>
											<start>375</start>
											<end>750</end>
											<in>0</in>
											<out>375</out>
											<pproTicksIn>0</pproTicksIn>
											<pproTicksOut>3810240000000</pproTicksOut>
											<alphatype>straight</alphatype>
											<file id="file-484"/>
											<filter>
												<effect>
													<name>Basic Motion</name>
													<effectid>basic</effectid>
													<effectcategory>motion</effectcategory>
													<effecttype>motion</effecttype>
													<mediatype>video</mediatype>
													<pproBypass>false</pproBypass>
													<parameter authoringApp="PremierePro">
														<parameterid>scale</parameterid>
														<name>Scale</name>
														<valuemin>0</valuemin>
														<valuemax>1000</valuemax>
														<value>100</value>
													</parameter>
													<parameter authoringApp="PremierePro">
														<parameterid>rotation</parameterid>
														<name>Rotation</name>
														<valuemin>-8640</valuemin>
														<valuemax>8640</valuemax>
														<value>0</value>
													</parameter>
													<parameter authoringApp="PremierePro">
														<parameterid>center</parameterid>
														<name>Center</name>
														<value>
															<horiz>-5.55112e-17</horiz>
															<vert>-1.11022e-16</vert>
														</value>
													</parameter>
													<parameter authoringApp="PremierePro">
														<parameterid>centerOffset</parameterid>
														<name>Anchor Point</name>
														<value>
															<horiz>0.402314</horiz>
															<vert>0.41875</vert>
														</value>
													</parameter>
													<parameter authoringApp="PremierePro">
														<parameterid>antiflicker</parameterid>
														<name>Anti-flicker Filter</name>
														<valuemin>0.0</valuemin>
														<valuemax>1.0</valuemax>
														<value>0</value>
													</parameter>
												</effect>
											</filter>
											<filter>
												<effect>
													<name>Distort</name>
													<effectid>deformation</effectid>
													<effectcategory>motion</effectcategory>
													<effecttype>motion</effecttype>
													<mediatype>video</mediatype>
													<parameter authoringApp="PremierePro">
														<parameterid>aspect</parameterid>
														<name>Aspect</name>
														<valuemin>-10000</valuemin>
														<valuemax>10000</valuemax>
														<value>8.69565</value>
													</parameter>
												</effect>
											</filter>
											<logginginfo>
												<description></description>
												<scene></scene>
												<shottake></shottake>
												<lognote></lognote>
												<good></good>
												<originalvideofilename></originalvideofilename>
												<originalaudiofilename></originalaudiofilename>
											</logginginfo>
											<colorinfo>
												<lut></lut>
												<lut1></lut1>
												<asc_sop></asc_sop>
												<asc_sat></asc_sat>
												<lut2></lut2>
											</colorinfo>
											<labels>
												<label2>Violet</label2>
											</labels>
										</clipitem>
										<clipitem id="clipitem-1356">
											<masterclipid>masterclip-585</masterclipid>
											<name>Plashka_Right_DV.mov</name>
											<enabled>TRUE</enabled>
											<duration>375</duration>
											<rate>
												<timebase>25</timebase>
												<ntsc>FALSE</ntsc>
											</rate>
											<start>750</start>
											<end>1125</end>
											<in>0</in>
											<out>375</out>
											<pproTicksIn>0</pproTicksIn>
											<pproTicksOut>3810240000000</pproTicksOut>
											<alphatype>straight</alphatype>
											<file id="file-484"/>
											<filter>
												<effect>
													<name>Basic Motion</name>
													<effectid>basic</effectid>
													<effectcategory>motion</effectcategory>
													<effecttype>motion</effecttype>
													<mediatype>video</mediatype>
													<pproBypass>false</pproBypass>
													<parameter authoringApp="PremierePro">
														<parameterid>scale</parameterid>
														<name>Scale</name>
														<valuemin>0</valuemin>
														<valuemax>1000</valuemax>
														<value>100</value>
													</parameter>
													<parameter authoringApp="PremierePro">
														<parameterid>rotation</parameterid>
														<name>Rotation</name>
														<valuemin>-8640</valuemin>
														<valuemax>8640</valuemax>
														<value>0</value>
													</parameter>
													<parameter authoringApp="PremierePro">
														<parameterid>center</parameterid>
														<name>Center</name>
														<value>
															<horiz>-5.55112e-17</horiz>
															<vert>-1.11022e-16</vert>
														</value>
													</parameter>
													<parameter authoringApp="PremierePro">
														<parameterid>centerOffset</parameterid>
														<name>Anchor Point</name>
														<value>
															<horiz>0.402314</horiz>
															<vert>0.41875</vert>
														</value>
													</parameter>
													<parameter authoringApp="PremierePro">
														<parameterid>antiflicker</parameterid>
														<name>Anti-flicker Filter</name>
														<valuemin>0.0</valuemin>
														<valuemax>1.0</valuemax>
														<value>0</value>
													</parameter>
												</effect>
											</filter>
											<filter>
												<effect>
													<name>Distort</name>
													<effectid>deformation</effectid>
													<effectcategory>motion</effectcategory>
													<effecttype>motion</effecttype>
													<mediatype>video</mediatype>
													<parameter authoringApp="PremierePro">
														<parameterid>aspect</parameterid>
														<name>Aspect</name>
														<valuemin>-10000</valuemin>
														<valuemax>10000</valuemax>
														<value>9.89011</value>
													</parameter>
												</effect>
											</filter>
											<logginginfo>
												<description></description>
												<scene></scene>
												<shottake></shottake>
												<lognote></lognote>
												<good></good>
												<originalvideofilename></originalvideofilename>
												<originalaudiofilename></originalaudiofilename>
											</logginginfo>
											<colorinfo>
												<lut></lut>
												<lut1></lut1>
												<asc_sop></asc_sop>
												<asc_sat></asc_sat>
												<lut2></lut2>
											</colorinfo>
											<labels>
												<label2>Violet</label2>
											</labels>
										</clipitem>
										<enabled>TRUE</enabled>
										<locked>FALSE</locked>
									</track>
									<track TL.SQTrackShy="0" TL.SQTrackExpandedHeight="25" TL.SQTrackExpanded="0" MZ.TrackTargeted="0">
										<transitionitem>
											<start>6</start>
											<end>35</end>
											<alignment>start-black</alignment>
											<cutPointTicks>0</cutPointTicks>
											<rate>
												<timebase>25</timebase>
												<ntsc>FALSE</ntsc>
											</rate>
											<effect>
												<name>Edge Wipe</name>
												<effectid>Edge Wipe</effectid>
												<effectcategory>Wipe</effectcategory>
												<effecttype>transition</effecttype>
												<mediatype>video</mediatype>
												<wipecode>2</wipecode>
												<wipeaccuracy>100</wipeaccuracy>
												<startratio>0</startratio>
												<endratio>1</endratio>
												<reverse>FALSE</reverse>
												<parameter authoringApp="PremierePro">
													<parameterid>directionofwipe</parameterid>
													<name>Angle</name>
													<valuemin>-360</valuemin>
													<valuemax>360</valuemax>
													<value>270</value>
												</parameter>
											</effect>
										</transitionitem>
										<clipitem id="clipitem-1357">
											<masterclipid>masterclip-612</masterclipid>
											<name>6_1.png</name>
											<enabled>TRUE</enabled>
											<duration>1080000</duration>
											<rate>
												<timebase>25</timebase>
												<ntsc>FALSE</ntsc>
											</rate>
											<start>-1</start>
											<end>-1</end>
											<in>90006</in>
											<out>90369</out>
											<pproTicksIn>914518563840000</pproTicksIn>
											<pproTicksOut>918206876160000</pproTicksOut>
											<alphatype>straight</alphatype>
											<pixelaspectratio>square</pixelaspectratio>
											<anamorphic>FALSE</anamorphic>
											<file id="file-505">
												<name>6_1.png</name>
												<pathurl>file://localhost/_MUZ_TV/project_AP/RU/_TITLE/468/PNG/6_1.png</pathurl>
												<rate>
													<timebase>30</timebase>
													<ntsc>TRUE</ntsc>
												</rate>
												<timecode>
													<rate>
														<timebase>30</timebase>
														<ntsc>TRUE</ntsc>
													</rate>
													<string>00;00;00;00</string>
													<frame>0</frame>
													<displayformat>DF</displayformat>
												</timecode>
												<media>
													<video>
														<samplecharacteristics>
															<rate>
																<timebase>30</timebase>
																<ntsc>TRUE</ntsc>
															</rate>
															<width>1920</width>
															<height>1080</height>
															<anamorphic>FALSE</anamorphic>
															<pixelaspectratio>square</pixelaspectratio>
															<fielddominance>none</fielddominance>
														</samplecharacteristics>
													</video>
												</media>
											</file>
											<filter>
												<effect>
													<name>Basic Motion</name>
													<effectid>basic</effectid>
													<effectcategory>motion</effectcategory>
													<effecttype>motion</effecttype>
													<mediatype>video</mediatype>
													<pproBypass>false</pproBypass>
													<parameter authoringApp="PremierePro">
														<parameterid>scale</parameterid>
														<name>Scale</name>
														<valuemin>0</valuemin>
														<valuemax>1000</valuemax>
														<value>53.3333</value>
													</parameter>
													<parameter authoringApp="PremierePro">
														<parameterid>rotation</parameterid>
														<name>Rotation</name>
														<valuemin>-8640</valuemin>
														<valuemax>8640</valuemax>
														<value>0</value>
													</parameter>
													<parameter authoringApp="PremierePro">
														<parameterid>center</parameterid>
														<name>Center</name>
														<value>
															<horiz>0</horiz>
															<vert>0</vert>
														</value>
													</parameter>
													<parameter authoringApp="PremierePro">
														<parameterid>centerOffset</parameterid>
														<name>Anchor Point</name>
														<value>
															<horiz>0</horiz>
															<vert>0</vert>
														</value>
													</parameter>
													<parameter authoringApp="PremierePro">
														<parameterid>antiflicker</parameterid>
														<name>Anti-flicker Filter</name>
														<valuemin>0.0</valuemin>
														<valuemax>1.0</valuemax>
														<value>0</value>
													</parameter>
												</effect>
											</filter>
											<logginginfo>
												<description></description>
												<scene></scene>
												<shottake></shottake>
												<lognote></lognote>
												<good></good>
												<originalvideofilename></originalvideofilename>
												<originalaudiofilename></originalaudiofilename>
											</logginginfo>
											<colorinfo>
												<lut></lut>
												<lut1></lut1>
												<asc_sop></asc_sop>
												<asc_sat></asc_sat>
												<lut2></lut2>
											</colorinfo>
											<labels>
												<label2>Lavender</label2>
											</labels>
										</clipitem>
										<transitionitem>
											<start>344</start>
											<end>369</end>
											<alignment>end-black</alignment>
											<cutPointTicks>254016000000</cutPointTicks>
											<rate>
												<timebase>25</timebase>
												<ntsc>FALSE</ntsc>
											</rate>
											<effect>
												<name>Edge Wipe</name>
												<effectid>Edge Wipe</effectid>
												<effectcategory>Wipe</effectcategory>
												<effecttype>transition</effecttype>
												<mediatype>video</mediatype>
												<wipecode>2</wipecode>
												<wipeaccuracy>100</wipeaccuracy>
												<startratio>0</startratio>
												<endratio>1</endratio>
												<reverse>FALSE</reverse>
												<parameter authoringApp="PremierePro">
													<parameterid>directionofwipe</parameterid>
													<name>Angle</name>
													<valuemin>-360</valuemin>
													<valuemax>360</valuemax>
													<value>90</value>
												</parameter>
											</effect>
										</transitionitem>
										<transitionitem>
											<start>381</start>
											<end>410</end>
											<alignment>start-black</alignment>
											<cutPointTicks>0</cutPointTicks>
											<rate>
												<timebase>25</timebase>
												<ntsc>FALSE</ntsc>
											</rate>
											<effect>
												<name>Edge Wipe</name>
												<effectid>Edge Wipe</effectid>
												<effectcategory>Wipe</effectcategory>
												<effecttype>transition</effecttype>
												<mediatype>video</mediatype>
												<wipecode>2</wipecode>
												<wipeaccuracy>100</wipeaccuracy>
												<startratio>0</startratio>
												<endratio>1</endratio>
												<reverse>FALSE</reverse>
												<parameter authoringApp="PremierePro">
													<parameterid>directionofwipe</parameterid>
													<name>Angle</name>
													<valuemin>-360</valuemin>
													<valuemax>360</valuemax>
													<value>270</value>
												</parameter>
											</effect>
										</transitionitem>
										<clipitem id="clipitem-1358">
											<masterclipid>masterclip-613</masterclipid>
											<name>6_2.png</name>
											<enabled>TRUE</enabled>
											<duration>1080000</duration>
											<rate>
												<timebase>25</timebase>
												<ntsc>FALSE</ntsc>
											</rate>
											<start>-1</start>
											<end>-1</end>
											<in>90011</in>
											<out>90374</out>
											<pproTicksIn>914569367040000</pproTicksIn>
											<pproTicksOut>918257679360000</pproTicksOut>
											<alphatype>straight</alphatype>
											<pixelaspectratio>square</pixelaspectratio>
											<anamorphic>FALSE</anamorphic>
											<file id="file-506">
												<name>6_2.png</name>
												<pathurl>file://localhost/_MUZ_TV/project_AP/RU/_TITLE/468/PNG/6_2.png</pathurl>
												<rate>
													<timebase>30</timebase>
													<ntsc>TRUE</ntsc>
												</rate>
												<timecode>
													<rate>
														<timebase>30</timebase>
														<ntsc>TRUE</ntsc>
													</rate>
													<string>00;00;00;00</string>
													<frame>0</frame>
													<displayformat>DF</displayformat>
												</timecode>
												<media>
													<video>
														<samplecharacteristics>
															<rate>
																<timebase>30</timebase>
																<ntsc>TRUE</ntsc>
															</rate>
															<width>1920</width>
															<height>1080</height>
															<anamorphic>FALSE</anamorphic>
															<pixelaspectratio>square</pixelaspectratio>
															<fielddominance>none</fielddominance>
														</samplecharacteristics>
													</video>
												</media>
											</file>
											<filter>
												<effect>
													<name>Basic Motion</name>
													<effectid>basic</effectid>
													<effectcategory>motion</effectcategory>
													<effecttype>motion</effecttype>
													<mediatype>video</mediatype>
													<pproBypass>false</pproBypass>
													<parameter authoringApp="PremierePro">
														<parameterid>scale</parameterid>
														<name>Scale</name>
														<valuemin>0</valuemin>
														<valuemax>1000</valuemax>
														<value>53.3333</value>
													</parameter>
													<parameter authoringApp="PremierePro">
														<parameterid>rotation</parameterid>
														<name>Rotation</name>
														<valuemin>-8640</valuemin>
														<valuemax>8640</valuemax>
														<value>0</value>
													</parameter>
													<parameter authoringApp="PremierePro">
														<parameterid>center</parameterid>
														<name>Center</name>
														<value>
															<horiz>0</horiz>
															<vert>0</vert>
														</value>
													</parameter>
													<parameter authoringApp="PremierePro">
														<parameterid>centerOffset</parameterid>
														<name>Anchor Point</name>
														<value>
															<horiz>0</horiz>
															<vert>0</vert>
														</value>
													</parameter>
													<parameter authoringApp="PremierePro">
														<parameterid>antiflicker</parameterid>
														<name>Anti-flicker Filter</name>
														<valuemin>0.0</valuemin>
														<valuemax>1.0</valuemax>
														<value>0</value>
													</parameter>
												</effect>
											</filter>
											<logginginfo>
												<description></description>
												<scene></scene>
												<shottake></shottake>
												<lognote></lognote>
												<good></good>
												<originalvideofilename></originalvideofilename>
												<originalaudiofilename></originalaudiofilename>
											</logginginfo>
											<colorinfo>
												<lut></lut>
												<lut1></lut1>
												<asc_sop></asc_sop>
												<asc_sat></asc_sat>
												<lut2></lut2>
											</colorinfo>
											<labels>
												<label2>Lavender</label2>
											</labels>
										</clipitem>
										<transitionitem>
											<start>719</start>
											<end>744</end>
											<alignment>end-black</alignment>
											<cutPointTicks>254016000000</cutPointTicks>
											<rate>
												<timebase>25</timebase>
												<ntsc>FALSE</ntsc>
											</rate>
											<effect>
												<name>Edge Wipe</name>
												<effectid>Edge Wipe</effectid>
												<effectcategory>Wipe</effectcategory>
												<effecttype>transition</effecttype>
												<mediatype>video</mediatype>
												<wipecode>2</wipecode>
												<wipeaccuracy>100</wipeaccuracy>
												<startratio>0</startratio>
												<endratio>1</endratio>
												<reverse>FALSE</reverse>
												<parameter authoringApp="PremierePro">
													<parameterid>directionofwipe</parameterid>
													<name>Angle</name>
													<valuemin>-360</valuemin>
													<valuemax>360</valuemax>
													<value>90</value>
												</parameter>
											</effect>
										</transitionitem>
										<transitionitem>
											<start>756</start>
											<end>785</end>
											<alignment>start-black</alignment>
											<cutPointTicks>0</cutPointTicks>
											<rate>
												<timebase>25</timebase>
												<ntsc>FALSE</ntsc>
											</rate>
											<effect>
												<name>Edge Wipe</name>
												<effectid>Edge Wipe</effectid>
												<effectcategory>Wipe</effectcategory>
												<effecttype>transition</effecttype>
												<mediatype>video</mediatype>
												<wipecode>2</wipecode>
												<wipeaccuracy>100</wipeaccuracy>
												<startratio>0</startratio>
												<endratio>1</endratio>
												<reverse>FALSE</reverse>
												<parameter authoringApp="PremierePro">
													<parameterid>directionofwipe</parameterid>
													<name>Angle</name>
													<valuemin>-360</valuemin>
													<valuemax>360</valuemax>
													<value>270</value>
												</parameter>
											</effect>
										</transitionitem>
										<clipitem id="clipitem-1359">
											<masterclipid>masterclip-614</masterclipid>
											<name>6_3.png</name>
											<enabled>TRUE</enabled>
											<duration>1080000</duration>
											<rate>
												<timebase>25</timebase>
												<ntsc>FALSE</ntsc>
											</rate>
											<start>-1</start>
											<end>-1</end>
											<in>90011</in>
											<out>90375</out>
											<pproTicksIn>914569367040000</pproTicksIn>
											<pproTicksOut>918267840000000</pproTicksOut>
											<alphatype>straight</alphatype>
											<pixelaspectratio>square</pixelaspectratio>
											<anamorphic>FALSE</anamorphic>
											<file id="file-507">
												<name>6_3.png</name>
												<pathurl>file://localhost/_MUZ_TV/project_AP/RU/_TITLE/468/PNG/6_3.png</pathurl>
												<rate>
													<timebase>30</timebase>
													<ntsc>TRUE</ntsc>
												</rate>
												<timecode>
													<rate>
														<timebase>30</timebase>
														<ntsc>TRUE</ntsc>
													</rate>
													<string>00;00;00;00</string>
													<frame>0</frame>
													<displayformat>DF</displayformat>
												</timecode>
												<media>
													<video>
														<samplecharacteristics>
															<rate>
																<timebase>30</timebase>
																<ntsc>TRUE</ntsc>
															</rate>
															<width>1920</width>
															<height>1080</height>
															<anamorphic>FALSE</anamorphic>
															<pixelaspectratio>square</pixelaspectratio>
															<fielddominance>none</fielddominance>
														</samplecharacteristics>
													</video>
												</media>
											</file>
											<filter>
												<effect>
													<name>Basic Motion</name>
													<effectid>basic</effectid>
													<effectcategory>motion</effectcategory>
													<effecttype>motion</effecttype>
													<mediatype>video</mediatype>
													<pproBypass>false</pproBypass>
													<parameter authoringApp="PremierePro">
														<parameterid>scale</parameterid>
														<name>Scale</name>
														<valuemin>0</valuemin>
														<valuemax>1000</valuemax>
														<value>53.3333</value>
													</parameter>
													<parameter authoringApp="PremierePro">
														<parameterid>rotation</parameterid>
														<name>Rotation</name>
														<valuemin>-8640</valuemin>
														<valuemax>8640</valuemax>
														<value>0</value>
													</parameter>
													<parameter authoringApp="PremierePro">
														<parameterid>center</parameterid>
														<name>Center</name>
														<value>
															<horiz>0</horiz>
															<vert>0</vert>
														</value>
													</parameter>
													<parameter authoringApp="PremierePro">
														<parameterid>centerOffset</parameterid>
														<name>Anchor Point</name>
														<value>
															<horiz>0</horiz>
															<vert>0</vert>
														</value>
													</parameter>
													<parameter authoringApp="PremierePro">
														<parameterid>antiflicker</parameterid>
														<name>Anti-flicker Filter</name>
														<valuemin>0.0</valuemin>
														<valuemax>1.0</valuemax>
														<value>0</value>
													</parameter>
												</effect>
											</filter>
											<logginginfo>
												<description></description>
												<scene></scene>
												<shottake></shottake>
												<lognote></lognote>
												<good></good>
												<originalvideofilename></originalvideofilename>
												<originalaudiofilename></originalaudiofilename>
											</logginginfo>
											<colorinfo>
												<lut></lut>
												<lut1></lut1>
												<asc_sop></asc_sop>
												<asc_sat></asc_sat>
												<lut2></lut2>
											</colorinfo>
											<labels>
												<label2>Lavender</label2>
											</labels>
										</clipitem>
										<transitionitem>
											<start>1095</start>
											<end>1120</end>
											<alignment>end-black</alignment>
											<cutPointTicks>254016000000</cutPointTicks>
											<rate>
												<timebase>25</timebase>
												<ntsc>FALSE</ntsc>
											</rate>
											<effect>
												<name>Edge Wipe</name>
												<effectid>Edge Wipe</effectid>
												<effectcategory>Wipe</effectcategory>
												<effecttype>transition</effecttype>
												<mediatype>video</mediatype>
												<wipecode>2</wipecode>
												<wipeaccuracy>100</wipeaccuracy>
												<startratio>0</startratio>
												<endratio>1</endratio>
												<reverse>FALSE</reverse>
												<parameter authoringApp="PremierePro">
													<parameterid>directionofwipe</parameterid>
													<name>Angle</name>
													<valuemin>-360</valuemin>
													<valuemax>360</valuemax>
													<value>90</value>
												</parameter>
											</effect>
										</transitionitem>
										<enabled>TRUE</enabled>
										<locked>FALSE</locked>
									</track>
									<track TL.SQTrackShy="0" TL.SQTrackExpandedHeight="25" TL.SQTrackExpanded="0" MZ.TrackTargeted="0">
										<transitionitem>
											<start>755</start>
											<end>780</end>
											<alignment>start-black</alignment>
											<cutPointTicks>0</cutPointTicks>
											<rate>
												<timebase>25</timebase>
												<ntsc>FALSE</ntsc>
											</rate>
											<effect>
												<name>Edge Wipe</name>
												<effectid>Edge Wipe</effectid>
												<effectcategory>Wipe</effectcategory>
												<effecttype>transition</effecttype>
												<mediatype>video</mediatype>
												<wipecode>2</wipecode>
												<wipeaccuracy>100</wipeaccuracy>
												<startratio>0</startratio>
												<endratio>1</endratio>
												<reverse>FALSE</reverse>
												<parameter authoringApp="PremierePro">
													<parameterid>directionofwipe</parameterid>
													<name>Angle</name>
													<valuemin>-360</valuemin>
													<valuemax>360</valuemax>
													<value>270</value>
												</parameter>
											</effect>
										</transitionitem>
										<clipitem id="clipitem-1360">
											<masterclipid>masterclip-615</masterclipid>
											<name>Graphic</name>
											<enabled>FALSE</enabled>
											<duration>1080000</duration>
											<rate>
												<timebase>25</timebase>
												<ntsc>FALSE</ntsc>
											</rate>
											<start>-1</start>
											<end>-1</end>
											<in>89905</in>
											<out>90272</out>
											<pproTicksIn>913492339200000</pproTicksIn>
											<pproTicksOut>917221294080000</pproTicksOut>
											<alphatype>straight</alphatype>
											<pixelaspectratio>PAL-601</pixelaspectratio>
											<anamorphic>TRUE</anamorphic>
											<file id="file-508">
												<name>Graphic</name>
												<mediaSource>GraphicAndType</mediaSource>
												<rate>
													<timebase>30</timebase>
													<ntsc>TRUE</ntsc>
												</rate>
												<timecode>
													<rate>
														<timebase>30</timebase>
														<ntsc>TRUE</ntsc>
													</rate>
													<string>00;00;00;00</string>
													<frame>0</frame>
													<displayformat>DF</displayformat>
												</timecode>
												<media>
													<video>
														<samplecharacteristics>
															<rate>
																<timebase>30</timebase>
																<ntsc>TRUE</ntsc>
															</rate>
															<width>720</width>
															<height>576</height>
															<anamorphic>TRUE</anamorphic>
															<pixelaspectratio>PAL-601</pixelaspectratio>
															<fielddominance>none</fielddominance>
														</samplecharacteristics>
													</video>
												</media>
											</file>
											<filter>
												<effect>
													<name>Vector Motion</name>
													<effectid>GraphicGroup</effectid>
													<effectcategory>graphic</effectcategory>
													<effecttype>filter</effecttype>
													<mediatype>video</mediatype>
													<pproBypass>false</pproBypass>
													<parameter authoringApp="PremierePro">
														<parameterid>1</parameterid>
														<name>Position</name>
														<IsTimeVarying>false</IsTimeVarying>
														<value>-91445760000000000,0.81693898908787344:0.49085601568222115,0,0,0,0,0,0,5,4,0,0,0,0</value>
													</parameter>
													<parameter authoringApp="PremierePro">
														<parameterid>2</parameterid>
														<name>Scale</name>
														<IsTimeVarying>false</IsTimeVarying>
														<ParameterControlType>2</ParameterControlType>
														<LowerBound>0</LowerBound>
														<UpperBound>10000</UpperBound>
														<UpperUIBound>200</UpperUIBound>
														<value>-91445760000000000,100.,0,0,0,0,0,0</value>
													</parameter>
													<parameter authoringApp="PremierePro">
														<parameterid>3</parameterid>
														<name>Scale Width</name>
														<IsTimeVarying>false</IsTimeVarying>
														<ParameterControlType>2</ParameterControlType>
														<LowerBound>0</LowerBound>
														<UpperBound>10000</UpperBound>
														<UpperUIBound>200</UpperUIBound>
														<value>-91445760000000000,100.,0,0,0,0,0,0</value>
													</parameter>
													<parameter authoringApp="PremierePro">
														<parameterid>4</parameterid>
														<name> </name>
														<IsTimeVarying>false</IsTimeVarying>
														<ParameterControlType>4</ParameterControlType>
														<LowerBound>false</LowerBound>
														<UpperBound>true</UpperBound>
														<value>-91445760000000000,true,0,0,0,0,0,0</value>
													</parameter>
													<parameter authoringApp="PremierePro">
														<parameterid>5</parameterid>
														<name>Rotation</name>
														<IsTimeVarying>false</IsTimeVarying>
														<ParameterControlType>3</ParameterControlType>
														<LowerBound>-32768</LowerBound>
														<UpperBound>32767</UpperBound>
														<value>-91445760000000000,0.,0,0,0,0,0,0</value>
													</parameter>
													<parameter authoringApp="PremierePro">
														<parameterid>6</parameterid>
														<name>Anchor Point</name>
														<IsTimeVarying>false</IsTimeVarying>
														<value>-91445760000000000,0.5:0.5,0,0,0,0,0,0,5,4,0,0,0,0</value>
													</parameter>
												</effect>
											</filter>
											<filter>
												<effect>
													<name>Данил Прытков признаётся, &#13;что сильные провалы &#13;мотивируют его на творчество &#13;не меньше, чем победы. </name>
													<effectid>GraphicAndType</effectid>
													<effectcategory>graphic</effectcategory>
													<effecttype>filter</effecttype>
													<mediatype>video</mediatype>
													<pproBypass>false</pproBypass>
													<pproExpanded>true</pproExpanded>
													<parameter authoringApp="PremierePro">
														<parameterid>1</parameterid>
														<name>Source Text</name>
														<hash>698123b5-7d57-7b79-efb1-b0df00000a31</hash>
													</parameter>
													<parameter authoringApp="PremierePro">
														<parameterid>2</parameterid>
														<name>Transform</name>
														<IsTimeVarying>false</IsTimeVarying>
														<ParameterControlType>11</ParameterControlType>
														<LowerBound>false</LowerBound>
														<UpperBound>false</UpperBound>
														<value>-91445760000000000,false,0,0,0,0,0,0</value>
													</parameter>
													<parameter authoringApp="PremierePro">
														<parameterid>3</parameterid>
														<name>Position</name>
														<IsTimeVarying>false</IsTimeVarying>
														<value>-91445760000000000,0.270416259765625:0.640594482421875,0,0,0,0,0,0,5,4,0,0,0,0</value>
													</parameter>
													<parameter authoringApp="PremierePro">
														<parameterid>4</parameterid>
														<name>Scale</name>
														<IsTimeVarying>false</IsTimeVarying>
														<ParameterControlType>2</ParameterControlType>
														<LowerBound>0</LowerBound>
														<UpperBound>4000</UpperBound>
														<value>-91445760000000000,100.,0,0,0,0,0,0</value>
													</parameter>
													<parameter authoringApp="PremierePro">
														<parameterid>5</parameterid>
														<name>Horizontal Scale</name>
														<IsTimeVarying>false</IsTimeVarying>
														<ParameterControlType>2</ParameterControlType>
														<LowerBound>0</LowerBound>
														<UpperBound>4000</UpperBound>
														<value>-91445760000000000,100.,0,0,0,0,0,0</value>
													</parameter>
													<parameter authoringApp="PremierePro">
														<parameterid>6</parameterid>
														<name> </name>
														<IsTimeVarying>false</IsTimeVarying>
														<ParameterControlType>4</ParameterControlType>
														<LowerBound>false</LowerBound>
														<UpperBound>true</UpperBound>
														<value>-91445760000000000,true,0,0,0,0,0,0</value>
													</parameter>
													<parameter authoringApp="PremierePro">
														<parameterid>7</parameterid>
														<name>Rotation</name>
														<IsTimeVarying>false</IsTimeVarying>
														<ParameterControlType>3</ParameterControlType>
														<LowerBound>-32768</LowerBound>
														<UpperBound>32767</UpperBound>
														<value>-91445760000000000,0.,0,0,0,0,0,0</value>
													</parameter>
													<parameter authoringApp="PremierePro">
														<parameterid>8</parameterid>
														<name>Opacity</name>
														<IsTimeVarying>false</IsTimeVarying>
														<ParameterControlType>2</ParameterControlType>
														<LowerBound>0</LowerBound>
														<UpperBound>100</UpperBound>
														<value>-91445760000000000,100.,0,0,0,0,0,0</value>
													</parameter>
													<parameter authoringApp="PremierePro">
														<parameterid>9</parameterid>
														<name>Anchor Point</name>
														<IsTimeVarying>false</IsTimeVarying>
														<value>-91445760000000000,0:0,0,0,0,0,0,0,5,4,0,0,0,0</value>
													</parameter>
													<parameter authoringApp="PremierePro">
														<parameterid>10</parameterid>
														<name></name>
														<IsTimeVarying>false</IsTimeVarying>
														<ParameterControlType>12</ParameterControlType>
														<LowerBound>false</LowerBound>
														<UpperBound>false</UpperBound>
														<value>-91445760000000000,false,0,0,0,0,0,0</value>
													</parameter>
													<parameter authoringApp="PremierePro">
														<parameterid>11</parameterid>
														<name> </name>
														<IsTimeVarying>false</IsTimeVarying>
														<ParameterControlType>8</ParameterControlType>
														<LowerBound>0</LowerBound>
														<UpperBound>32768</UpperBound>
														<value>-91445760000000000,0.,0,0,0,0,0,0</value>
													</parameter>
													<parameter authoringApp="PremierePro">
														<parameterid>12</parameterid>
														<name> </name>
														<IsTimeVarying>false</IsTimeVarying>
														<ParameterControlType>8</ParameterControlType>
														<LowerBound>0</LowerBound>
														<UpperBound>32768</UpperBound>
														<value>-91445760000000000,0.,0,0,0,0,0,0</value>
													</parameter>
													<parameter authoringApp="PremierePro">
														<parameterid>13</parameterid>
														<name>start</name>
														<IsTimeVarying>false</IsTimeVarying>
														<ParameterControlType>8</ParameterControlType>
														<LowerBound>-100</LowerBound>
														<UpperBound>1000000000</UpperBound>
														<value>-91445760000000000,0.,0,0,0,0,0,0</value>
													</parameter>
													<parameter authoringApp="PremierePro">
														<parameterid>14</parameterid>
														<name>end</name>
														<IsTimeVarying>false</IsTimeVarying>
														<ParameterControlType>8</ParameterControlType>
														<LowerBound>-100</LowerBound>
														<UpperBound>1000000000</UpperBound>
														<value>-91445760000000000,101.,0,0,0,0,0,0</value>
													</parameter>
													<parameter authoringApp="PremierePro">
														<parameterid>15</parameterid>
														<name> </name>
														<IsTimeVarying>false</IsTimeVarying>
														<ParameterControlType>4</ParameterControlType>
														<LowerBound>false</LowerBound>
														<UpperBound>true</UpperBound>
														<value>-91445760000000000,false,0,0,0,0,0,0</value>
													</parameter>
													<parameter authoringApp="PremierePro">
														<parameterid>16</parameterid>
														<name> </name>
														<IsTimeVarying>false</IsTimeVarying>
														<ParameterControlType>4</ParameterControlType>
														<LowerBound>false</LowerBound>
														<UpperBound>true</UpperBound>
														<value>-91445760000000000,false,0,0,0,0,0,0</value>
													</parameter>
													<parameter authoringApp="PremierePro">
														<parameterid>17</parameterid>
														<name> </name>
														<IsTimeVarying>false</IsTimeVarying>
														<ParameterControlType>4</ParameterControlType>
														<LowerBound>false</LowerBound>
														<UpperBound>true</UpperBound>
														<value>-91445760000000000,false,0,0,0,0,0,0</value>
													</parameter>
													<parameter authoringApp="PremierePro">
														<parameterid>18</parameterid>
														<name> </name>
														<IsTimeVarying>false</IsTimeVarying>
														<ParameterControlType>4</ParameterControlType>
														<LowerBound>false</LowerBound>
														<UpperBound>true</UpperBound>
														<value>-91445760000000000,false,0,0,0,0,0,0</value>
													</parameter>
													<parameter authoringApp="PremierePro">
														<parameterid>19</parameterid>
														<name>Parent Width</name>
														<IsTimeVarying>false</IsTimeVarying>
														<ParameterControlType>2</ParameterControlType>
														<LowerBound>0</LowerBound>
														<UpperBound>20000</UpperBound>
														<value>-91445760000000000,0.,0,0,0,0,0,0</value>
													</parameter>
													<parameter authoringApp="PremierePro">
														<parameterid>20</parameterid>
														<name>Parent Height</name>
														<IsTimeVarying>false</IsTimeVarying>
														<ParameterControlType>2</ParameterControlType>
														<LowerBound>0</LowerBound>
														<UpperBound>20000</UpperBound>
														<value>-91445760000000000,0.,0,0,0,0,0,0</value>
													</parameter>
													<parameter authoringApp="PremierePro">
														<parameterid>21</parameterid>
														<name>Parent Rotation</name>
														<IsTimeVarying>false</IsTimeVarying>
														<ParameterControlType>3</ParameterControlType>
														<LowerBound>-32768</LowerBound>
														<UpperBound>32767</UpperBound>
														<value>-91445760000000000,0.,0,0,0,0,0,0</value>
													</parameter>
												</effect>
											</filter>
											<logginginfo>
												<description></description>
												<scene></scene>
												<shottake></shottake>
												<lognote></lognote>
												<good></good>
												<originalvideofilename></originalvideofilename>
												<originalaudiofilename></originalaudiofilename>
											</logginginfo>
											<colorinfo>
												<lut></lut>
												<lut1></lut1>
												<asc_sop></asc_sop>
												<asc_sat></asc_sat>
												<lut2></lut2>
											</colorinfo>
										</clipitem>
										<transitionitem>
											<start>1097</start>
											<end>1122</end>
											<alignment>end-black</alignment>
											<cutPointTicks>254016000000</cutPointTicks>
											<rate>
												<timebase>25</timebase>
												<ntsc>FALSE</ntsc>
											</rate>
											<effect>
												<name>Edge Wipe</name>
												<effectid>Edge Wipe</effectid>
												<effectcategory>Wipe</effectcategory>
												<effecttype>transition</effecttype>
												<mediatype>video</mediatype>
												<wipecode>2</wipecode>
												<wipeaccuracy>100</wipeaccuracy>
												<startratio>0</startratio>
												<endratio>1</endratio>
												<reverse>FALSE</reverse>
												<parameter authoringApp="PremierePro">
													<parameterid>directionofwipe</parameterid>
													<name>Angle</name>
													<valuemin>-360</valuemin>
													<valuemax>360</valuemax>
													<value>90</value>
												</parameter>
											</effect>
										</transitionitem>
										<enabled>TRUE</enabled>
										<locked>FALSE</locked>
									</track>
								</video>
								<audio>
									<numOutputChannels>2</numOutputChannels>
									<format>
										<samplecharacteristics>
											<depth>16</depth>
											<samplerate>48000</samplerate>
										</samplecharacteristics>
									</format>
									<outputs>
										<group>
											<index>1</index>
											<numchannels>1</numchannels>
											<downmix>0</downmix>
											<channel>
												<index>1</index>
											</channel>
										</group>
										<group>
											<index>2</index>
											<numchannels>1</numchannels>
											<downmix>0</downmix>
											<channel>
												<index>2</index>
											</channel>
										</group>
									</outputs>
									<track TL.SQTrackAudioKeyframeStyle="0" TL.SQTrackShy="0" TL.SQTrackExpandedHeight="25" TL.SQTrackExpanded="0" MZ.TrackTargeted="1" PannerCurrentValue="0.5" PannerStartKeyframe="-91445760000000000,0.5,0,0,0,0,0,0" PannerName="Balance" currentExplodedTrackIndex="0" totalExplodedTrackCount="2" premiereTrackType="Stereo">
										<enabled>TRUE</enabled>
										<locked>FALSE</locked>
										<outputchannelindex>1</outputchannelindex>
									</track>
									<track TL.SQTrackAudioKeyframeStyle="0" TL.SQTrackShy="0" TL.SQTrackExpandedHeight="25" TL.SQTrackExpanded="0" MZ.TrackTargeted="1" PannerCurrentValue="0.5" PannerStartKeyframe="-91445760000000000,0.5,0,0,0,0,0,0" PannerName="Balance" currentExplodedTrackIndex="1" totalExplodedTrackCount="2" premiereTrackType="Stereo">
										<enabled>TRUE</enabled>
										<locked>FALSE</locked>
										<outputchannelindex>2</outputchannelindex>
									</track>
								</audio>
							</media>
							<timecode>
								<rate>
									<timebase>25</timebase>
									<ntsc>FALSE</ntsc>
								</rate>
								<string>00:00:00:00</string>
								<frame>0</frame>
								<displayformat>NDF</displayformat>
							</timecode>
								<marker>
									<comment></comment>
									<name></name>
									<in>50</in>
									<out>-1</out>
									<pproColor>4292277273</pproColor>
								</marker>
								<marker>
									<comment></comment>
									<name></name>
									<in>800</in>
									<out>-1</out>
									<pproColor>4292277273</pproColor>
								</marker>
								<marker>
									<comment></comment>
									<name></name>
									<in>425</in>
									<out>-1</out>
									<pproColor>4292277273</pproColor>
								</marker>
							<logginginfo>
								<description></description>
								<scene></scene>
								<shottake></shottake>
								<lognote></lognote>
								<good></good>
								<originalvideofilename></originalvideofilename>
								<originalaudiofilename></originalaudiofilename>
							</logginginfo>
						</sequence>
							<marker>
								<comment></comment>
								<name></name>
								<in>50</in>
								<out>-1</out>
								<pproColor>4292277273</pproColor>
							</marker>
							<marker>
								<comment></comment>
								<name></name>
								<in>800</in>
								<out>-1</out>
								<pproColor>4292277273</pproColor>
							</marker>
							<marker>
								<comment></comment>
								<name></name>
								<in>425</in>
								<out>-1</out>
								<pproColor>4292277273</pproColor>
							</marker>
						<labels>
							<label2>Forest</label2>
						</labels>
					</clipitem>
					<clipitem id="clipitem-1361">
						<masterclipid>masterclip-611</masterclipid>
						<name>6</name>
						<enabled>TRUE</enabled>
						<duration>1125</duration>
						<rate>
							<timebase>25</timebase>
							<ntsc>FALSE</ntsc>
						</rate>
						<start>37650</start>
						<end>38025</end>
						<in>375</in>
						<out>750</out>
						<pproTicksIn>3810240000000</pproTicksIn>
						<pproTicksOut>7620480000000</pproTicksOut>
						<sequence id="sequence-114"/>
							<marker>
								<comment></comment>
								<name></name>
								<in>50</in>
								<out>-1</out>
								<pproColor>4292277273</pproColor>
							</marker>
							<marker>
								<comment></comment>
								<name></name>
								<in>800</in>
								<out>-1</out>
								<pproColor>4292277273</pproColor>
							</marker>
							<marker>
								<comment></comment>
								<name></name>
								<in>425</in>
								<out>-1</out>
								<pproColor>4292277273</pproColor>
							</marker>
						<labels>
							<label2>Forest</label2>
						</labels>
					</clipitem>
					<clipitem id="clipitem-1362">
						<masterclipid>masterclip-611</masterclipid>
						<name>6</name>
						<enabled>TRUE</enabled>
						<duration>1125</duration>
						<rate>
							<timebase>25</timebase>
							<ntsc>FALSE</ntsc>
						</rate>
						<start>39002</start>
						<end>39377</end>
						<in>750</in>
						<out>1125</out>
						<pproTicksIn>7620480000000</pproTicksIn>
						<pproTicksOut>11430720000000</pproTicksOut>
						<sequence id="sequence-114"/>
							<marker>
								<comment></comment>
								<name></name>
								<in>50</in>
								<out>-1</out>
								<pproColor>4292277273</pproColor>
							</marker>
							<marker>
								<comment></comment>
								<name></name>
								<in>800</in>
								<out>-1</out>
								<pproColor>4292277273</pproColor>
							</marker>
							<marker>
								<comment></comment>
								<name></name>
								<in>425</in>
								<out>-1</out>
								<pproColor>4292277273</pproColor>
							</marker>
						<labels>
							<label2>Forest</label2>
						</labels>
					</clipitem>
					<clipitem id="clipitem-1363">
						<masterclipid>masterclip-616</masterclipid>
						<name>5</name>
						<enabled>TRUE</enabled>
						<duration>1125</duration>
						<rate>
							<timebase>25</timebase>
							<ntsc>FALSE</ntsc>
						</rate>
						<start>41961</start>
						<end>42336</end>
						<in>0</in>
						<out>375</out>
						<pproTicksIn>0</pproTicksIn>
						<pproTicksOut>3810240000000</pproTicksOut>
						<sequence id="sequence-115" TL.SQAudioVisibleBase="0" TL.SQVideoVisibleBase="0" TL.SQVisibleBaseTime="0" TL.SQAVDividerPosition="0.5" TL.SQHideShyTracks="0" TL.SQHeaderWidth="236" Monitor.ProgramZoomOut="11430720000000" Monitor.ProgramZoomIn="0" TL.SQTimePerPixel="0.19620667102680814" AM.TrackVScrollPosition="0" AM.TrackScrollPosition="0" MZ.EditLine="9215700480000" MZ.Sequence.PreviewFrameSizeHeight="576" MZ.Sequence.PreviewFrameSizeWidth="720" MZ.Sequence.AudioTimeDisplayFormat="200" MZ.Sequence.PreviewRenderingClassID="1061109567" MZ.Sequence.PreviewRenderingPresetCodec="1685480304" MZ.Sequence.PreviewRenderingPresetPath="EncoderPresets/SequencePreview/04be6e19-a018-4e0c-a9d6-0ab44c64752b/QuickTime DV PAL.epr" MZ.Sequence.PreviewUseMaxRenderQuality="false" MZ.Sequence.PreviewUseMaxBitDepth="false" MZ.Sequence.EditingModeGUID="04be6e19-a018-4e0c-a9d6-0ab44c64752b" MZ.Sequence.VideoTimeDisplayFormat="101" MZ.WorkOutPoint="11430720000000" MZ.WorkInPoint="0" MZ.ZeroPoint="0">
							<duration>1125</duration>
							<rate>
								<timebase>25</timebase>
								<ntsc>FALSE</ntsc>
							</rate>
							<name>RU_Nested</name>
							<media>
								<video>
									<format>
										<samplecharacteristics>
											<rate>
												<timebase>25</timebase>
												<ntsc>FALSE</ntsc>
											</rate>
											<codec>
												<name>Apple ProRes 422</name>
												<appspecificdata>
													<appname>Final Cut Pro</appname>
													<appmanufacturer>Apple Inc.</appmanufacturer>
													<appversion>7.0</appversion>
													<data>
														<qtcodec>
															<codecname>Apple ProRes 422</codecname>
															<codectypename>Apple ProRes 422</codectypename>
															<codectypecode>apcn</codectypecode>
															<codecvendorcode>appl</codecvendorcode>
															<spatialquality>1024</spatialquality>
															<temporalquality>0</temporalquality>
															<keyframerate>0</keyframerate>
															<datarate>0</datarate>
														</qtcodec>
													</data>
												</appspecificdata>
											</codec>
											<width>720</width>
											<height>576</height>
											<anamorphic>TRUE</anamorphic>
											<pixelaspectratio>PAL-601</pixelaspectratio>
											<fielddominance>lower</fielddominance>
											<colordepth>24</colordepth>
										</samplecharacteristics>
									</format>
									<track TL.SQTrackShy="0" TL.SQTrackExpandedHeight="25" TL.SQTrackExpanded="0" MZ.TrackTargeted="1">
										<clipitem id="clipitem-1364">
											<masterclipid>masterclip-585</masterclipid>
											<name>Plashka_Right_DV.mov</name>
											<enabled>TRUE</enabled>
											<duration>375</duration>
											<rate>
												<timebase>25</timebase>
												<ntsc>FALSE</ntsc>
											</rate>
											<start>0</start>
											<end>375</end>
											<in>0</in>
											<out>375</out>
											<pproTicksIn>0</pproTicksIn>
											<pproTicksOut>3810240000000</pproTicksOut>
											<alphatype>straight</alphatype>
											<file id="file-484"/>
											<filter>
												<effect>
													<name>Basic Motion</name>
													<effectid>basic</effectid>
													<effectcategory>motion</effectcategory>
													<effecttype>motion</effecttype>
													<mediatype>video</mediatype>
													<pproBypass>false</pproBypass>
													<parameter authoringApp="PremierePro">
														<parameterid>scale</parameterid>
														<name>Scale</name>
														<valuemin>0</valuemin>
														<valuemax>1000</valuemax>
														<value>100</value>
													</parameter>
													<parameter authoringApp="PremierePro">
														<parameterid>rotation</parameterid>
														<name>Rotation</name>
														<valuemin>-8640</valuemin>
														<valuemax>8640</valuemax>
														<value>0</value>
													</parameter>
													<parameter authoringApp="PremierePro">
														<parameterid>center</parameterid>
														<name>Center</name>
														<value>
															<horiz>-5.55112e-17</horiz>
															<vert>-1.11022e-16</vert>
														</value>
													</parameter>
													<parameter authoringApp="PremierePro">
														<parameterid>centerOffset</parameterid>
														<name>Anchor Point</name>
														<value>
															<horiz>0.402314</horiz>
															<vert>0.41875</vert>
														</value>
													</parameter>
													<parameter authoringApp="PremierePro">
														<parameterid>antiflicker</parameterid>
														<name>Anti-flicker Filter</name>
														<valuemin>0.0</valuemin>
														<valuemax>1.0</valuemax>
														<value>0</value>
													</parameter>
												</effect>
											</filter>
											<filter>
												<effect>
													<name>Distort</name>
													<effectid>deformation</effectid>
													<effectcategory>motion</effectcategory>
													<effecttype>motion</effecttype>
													<mediatype>video</mediatype>
													<parameter authoringApp="PremierePro">
														<parameterid>aspect</parameterid>
														<name>Aspect</name>
														<valuemin>-10000</valuemin>
														<valuemax>10000</valuemax>
														<value>9.89011</value>
													</parameter>
												</effect>
											</filter>
											<logginginfo>
												<description></description>
												<scene></scene>
												<shottake></shottake>
												<lognote></lognote>
												<good></good>
												<originalvideofilename></originalvideofilename>
												<originalaudiofilename></originalaudiofilename>
											</logginginfo>
											<colorinfo>
												<lut></lut>
												<lut1></lut1>
												<asc_sop></asc_sop>
												<asc_sat></asc_sat>
												<lut2></lut2>
											</colorinfo>
											<labels>
												<label2>Violet</label2>
											</labels>
										</clipitem>
										<clipitem id="clipitem-1365">
											<masterclipid>masterclip-585</masterclipid>
											<name>Plashka_Right_DV.mov</name>
											<enabled>TRUE</enabled>
											<duration>375</duration>
											<rate>
												<timebase>25</timebase>
												<ntsc>FALSE</ntsc>
											</rate>
											<start>375</start>
											<end>750</end>
											<in>0</in>
											<out>375</out>
											<pproTicksIn>0</pproTicksIn>
											<pproTicksOut>3810240000000</pproTicksOut>
											<alphatype>straight</alphatype>
											<file id="file-484"/>
											<filter>
												<effect>
													<name>Basic Motion</name>
													<effectid>basic</effectid>
													<effectcategory>motion</effectcategory>
													<effecttype>motion</effecttype>
													<mediatype>video</mediatype>
													<pproBypass>false</pproBypass>
													<parameter authoringApp="PremierePro">
														<parameterid>scale</parameterid>
														<name>Scale</name>
														<valuemin>0</valuemin>
														<valuemax>1000</valuemax>
														<value>100</value>
													</parameter>
													<parameter authoringApp="PremierePro">
														<parameterid>rotation</parameterid>
														<name>Rotation</name>
														<valuemin>-8640</valuemin>
														<valuemax>8640</valuemax>
														<value>0</value>
													</parameter>
													<parameter authoringApp="PremierePro">
														<parameterid>center</parameterid>
														<name>Center</name>
														<value>
															<horiz>-5.55112e-17</horiz>
															<vert>-1.11022e-16</vert>
														</value>
													</parameter>
													<parameter authoringApp="PremierePro">
														<parameterid>centerOffset</parameterid>
														<name>Anchor Point</name>
														<value>
															<horiz>0.402314</horiz>
															<vert>0.41875</vert>
														</value>
													</parameter>
													<parameter authoringApp="PremierePro">
														<parameterid>antiflicker</parameterid>
														<name>Anti-flicker Filter</name>
														<valuemin>0.0</valuemin>
														<valuemax>1.0</valuemax>
														<value>0</value>
													</parameter>
												</effect>
											</filter>
											<filter>
												<effect>
													<name>Distort</name>
													<effectid>deformation</effectid>
													<effectcategory>motion</effectcategory>
													<effecttype>motion</effecttype>
													<mediatype>video</mediatype>
													<parameter authoringApp="PremierePro">
														<parameterid>aspect</parameterid>
														<name>Aspect</name>
														<valuemin>-10000</valuemin>
														<valuemax>10000</valuemax>
														<value>17.6471</value>
													</parameter>
												</effect>
											</filter>
											<logginginfo>
												<description></description>
												<scene></scene>
												<shottake></shottake>
												<lognote></lognote>
												<good></good>
												<originalvideofilename></originalvideofilename>
												<originalaudiofilename></originalaudiofilename>
											</logginginfo>
											<colorinfo>
												<lut></lut>
												<lut1></lut1>
												<asc_sop></asc_sop>
												<asc_sat></asc_sat>
												<lut2></lut2>
											</colorinfo>
											<labels>
												<label2>Violet</label2>
											</labels>
										</clipitem>
										<clipitem id="clipitem-1366">
											<masterclipid>masterclip-585</masterclipid>
											<name>Plashka_Right_DV.mov</name>
											<enabled>TRUE</enabled>
											<duration>375</duration>
											<rate>
												<timebase>25</timebase>
												<ntsc>FALSE</ntsc>
											</rate>
											<start>750</start>
											<end>1125</end>
											<in>0</in>
											<out>375</out>
											<pproTicksIn>0</pproTicksIn>
											<pproTicksOut>3810240000000</pproTicksOut>
											<alphatype>straight</alphatype>
											<file id="file-484"/>
											<filter>
												<effect>
													<name>Basic Motion</name>
													<effectid>basic</effectid>
													<effectcategory>motion</effectcategory>
													<effecttype>motion</effecttype>
													<mediatype>video</mediatype>
													<pproBypass>false</pproBypass>
													<parameter authoringApp="PremierePro">
														<parameterid>scale</parameterid>
														<name>Scale</name>
														<valuemin>0</valuemin>
														<valuemax>1000</valuemax>
														<value>100</value>
													</parameter>
													<parameter authoringApp="PremierePro">
														<parameterid>rotation</parameterid>
														<name>Rotation</name>
														<valuemin>-8640</valuemin>
														<valuemax>8640</valuemax>
														<value>0</value>
													</parameter>
													<parameter authoringApp="PremierePro">
														<parameterid>center</parameterid>
														<name>Center</name>
														<value>
															<horiz>-5.55112e-17</horiz>
															<vert>-1.11022e-16</vert>
														</value>
													</parameter>
													<parameter authoringApp="PremierePro">
														<parameterid>centerOffset</parameterid>
														<name>Anchor Point</name>
														<value>
															<horiz>0.402314</horiz>
															<vert>0.41875</vert>
														</value>
													</parameter>
													<parameter authoringApp="PremierePro">
														<parameterid>antiflicker</parameterid>
														<name>Anti-flicker Filter</name>
														<valuemin>0.0</valuemin>
														<valuemax>1.0</valuemax>
														<value>0</value>
													</parameter>
												</effect>
											</filter>
											<filter>
												<effect>
													<name>Distort</name>
													<effectid>deformation</effectid>
													<effectcategory>motion</effectcategory>
													<effecttype>motion</effecttype>
													<mediatype>video</mediatype>
													<parameter authoringApp="PremierePro">
														<parameterid>aspect</parameterid>
														<name>Aspect</name>
														<valuemin>-10000</valuemin>
														<valuemax>10000</valuemax>
														<value>16.2791</value>
													</parameter>
												</effect>
											</filter>
											<logginginfo>
												<description></description>
												<scene></scene>
												<shottake></shottake>
												<lognote></lognote>
												<good></good>
												<originalvideofilename></originalvideofilename>
												<originalaudiofilename></originalaudiofilename>
											</logginginfo>
											<colorinfo>
												<lut></lut>
												<lut1></lut1>
												<asc_sop></asc_sop>
												<asc_sat></asc_sat>
												<lut2></lut2>
											</colorinfo>
											<labels>
												<label2>Violet</label2>
											</labels>
										</clipitem>
										<enabled>TRUE</enabled>
										<locked>FALSE</locked>
									</track>
									<track TL.SQTrackShy="0" TL.SQTrackExpandedHeight="25" TL.SQTrackExpanded="0" MZ.TrackTargeted="0">
										<transitionitem>
											<start>6</start>
											<end>35</end>
											<alignment>start-black</alignment>
											<cutPointTicks>0</cutPointTicks>
											<rate>
												<timebase>25</timebase>
												<ntsc>FALSE</ntsc>
											</rate>
											<effect>
												<name>Edge Wipe</name>
												<effectid>Edge Wipe</effectid>
												<effectcategory>Wipe</effectcategory>
												<effecttype>transition</effecttype>
												<mediatype>video</mediatype>
												<wipecode>2</wipecode>
												<wipeaccuracy>100</wipeaccuracy>
												<startratio>0</startratio>
												<endratio>1</endratio>
												<reverse>FALSE</reverse>
												<parameter authoringApp="PremierePro">
													<parameterid>directionofwipe</parameterid>
													<name>Angle</name>
													<valuemin>-360</valuemin>
													<valuemax>360</valuemax>
													<value>270</value>
												</parameter>
											</effect>
										</transitionitem>
										<clipitem id="clipitem-1367">
											<masterclipid>masterclip-617</masterclipid>
											<name>5_1.png</name>
											<enabled>TRUE</enabled>
											<duration>1080000</duration>
											<rate>
												<timebase>25</timebase>
												<ntsc>FALSE</ntsc>
											</rate>
											<start>-1</start>
											<end>-1</end>
											<in>90006</in>
											<out>90369</out>
											<pproTicksIn>914518563840000</pproTicksIn>
											<pproTicksOut>918206876160000</pproTicksOut>
											<alphatype>straight</alphatype>
											<pixelaspectratio>square</pixelaspectratio>
											<anamorphic>FALSE</anamorphic>
											<file id="file-509">
												<name>5_1.png</name>
												<pathurl>file://localhost/_MUZ_TV/project_AP/RU/_TITLE/468/PNG/5_1.png</pathurl>
												<rate>
													<timebase>30</timebase>
													<ntsc>TRUE</ntsc>
												</rate>
												<timecode>
													<rate>
														<timebase>30</timebase>
														<ntsc>TRUE</ntsc>
													</rate>
													<string>00;00;00;00</string>
													<frame>0</frame>
													<displayformat>DF</displayformat>
												</timecode>
												<media>
													<video>
														<samplecharacteristics>
															<rate>
																<timebase>30</timebase>
																<ntsc>TRUE</ntsc>
															</rate>
															<width>1920</width>
															<height>1080</height>
															<anamorphic>FALSE</anamorphic>
															<pixelaspectratio>square</pixelaspectratio>
															<fielddominance>none</fielddominance>
														</samplecharacteristics>
													</video>
												</media>
											</file>
											<filter>
												<effect>
													<name>Basic Motion</name>
													<effectid>basic</effectid>
													<effectcategory>motion</effectcategory>
													<effecttype>motion</effecttype>
													<mediatype>video</mediatype>
													<pproBypass>false</pproBypass>
													<parameter authoringApp="PremierePro">
														<parameterid>scale</parameterid>
														<name>Scale</name>
														<valuemin>0</valuemin>
														<valuemax>1000</valuemax>
														<value>53.3333</value>
													</parameter>
													<parameter authoringApp="PremierePro">
														<parameterid>rotation</parameterid>
														<name>Rotation</name>
														<valuemin>-8640</valuemin>
														<valuemax>8640</valuemax>
														<value>0</value>
													</parameter>
													<parameter authoringApp="PremierePro">
														<parameterid>center</parameterid>
														<name>Center</name>
														<value>
															<horiz>0</horiz>
															<vert>0</vert>
														</value>
													</parameter>
													<parameter authoringApp="PremierePro">
														<parameterid>centerOffset</parameterid>
														<name>Anchor Point</name>
														<value>
															<horiz>0</horiz>
															<vert>0</vert>
														</value>
													</parameter>
													<parameter authoringApp="PremierePro">
														<parameterid>antiflicker</parameterid>
														<name>Anti-flicker Filter</name>
														<valuemin>0.0</valuemin>
														<valuemax>1.0</valuemax>
														<value>0</value>
													</parameter>
												</effect>
											</filter>
											<logginginfo>
												<description></description>
												<scene></scene>
												<shottake></shottake>
												<lognote></lognote>
												<good></good>
												<originalvideofilename></originalvideofilename>
												<originalaudiofilename></originalaudiofilename>
											</logginginfo>
											<colorinfo>
												<lut></lut>
												<lut1></lut1>
												<asc_sop></asc_sop>
												<asc_sat></asc_sat>
												<lut2></lut2>
											</colorinfo>
											<labels>
												<label2>Lavender</label2>
											</labels>
										</clipitem>
										<transitionitem>
											<start>344</start>
											<end>369</end>
											<alignment>end-black</alignment>
											<cutPointTicks>254016000000</cutPointTicks>
											<rate>
												<timebase>25</timebase>
												<ntsc>FALSE</ntsc>
											</rate>
											<effect>
												<name>Edge Wipe</name>
												<effectid>Edge Wipe</effectid>
												<effectcategory>Wipe</effectcategory>
												<effecttype>transition</effecttype>
												<mediatype>video</mediatype>
												<wipecode>2</wipecode>
												<wipeaccuracy>100</wipeaccuracy>
												<startratio>0</startratio>
												<endratio>1</endratio>
												<reverse>FALSE</reverse>
												<parameter authoringApp="PremierePro">
													<parameterid>directionofwipe</parameterid>
													<name>Angle</name>
													<valuemin>-360</valuemin>
													<valuemax>360</valuemax>
													<value>90</value>
												</parameter>
											</effect>
										</transitionitem>
										<transitionitem>
											<start>381</start>
											<end>410</end>
											<alignment>start-black</alignment>
											<cutPointTicks>0</cutPointTicks>
											<rate>
												<timebase>25</timebase>
												<ntsc>FALSE</ntsc>
											</rate>
											<effect>
												<name>Edge Wipe</name>
												<effectid>Edge Wipe</effectid>
												<effectcategory>Wipe</effectcategory>
												<effecttype>transition</effecttype>
												<mediatype>video</mediatype>
												<wipecode>2</wipecode>
												<wipeaccuracy>100</wipeaccuracy>
												<startratio>0</startratio>
												<endratio>1</endratio>
												<reverse>FALSE</reverse>
												<parameter authoringApp="PremierePro">
													<parameterid>directionofwipe</parameterid>
													<name>Angle</name>
													<valuemin>-360</valuemin>
													<valuemax>360</valuemax>
													<value>270</value>
												</parameter>
											</effect>
										</transitionitem>
										<clipitem id="clipitem-1368">
											<masterclipid>masterclip-618</masterclipid>
											<name>5_2.png</name>
											<enabled>TRUE</enabled>
											<duration>1080000</duration>
											<rate>
												<timebase>25</timebase>
												<ntsc>FALSE</ntsc>
											</rate>
											<start>-1</start>
											<end>-1</end>
											<in>90011</in>
											<out>90374</out>
											<pproTicksIn>914569367040000</pproTicksIn>
											<pproTicksOut>918257679360000</pproTicksOut>
											<alphatype>straight</alphatype>
											<pixelaspectratio>square</pixelaspectratio>
											<anamorphic>FALSE</anamorphic>
											<file id="file-510">
												<name>5_2.png</name>
												<pathurl>file://localhost/_MUZ_TV/project_AP/RU/_TITLE/468/PNG/5_2.png</pathurl>
												<rate>
													<timebase>30</timebase>
													<ntsc>TRUE</ntsc>
												</rate>
												<timecode>
													<rate>
														<timebase>30</timebase>
														<ntsc>TRUE</ntsc>
													</rate>
													<string>00;00;00;00</string>
													<frame>0</frame>
													<displayformat>DF</displayformat>
												</timecode>
												<media>
													<video>
														<samplecharacteristics>
															<rate>
																<timebase>30</timebase>
																<ntsc>TRUE</ntsc>
															</rate>
															<width>1920</width>
															<height>1080</height>
															<anamorphic>FALSE</anamorphic>
															<pixelaspectratio>square</pixelaspectratio>
															<fielddominance>none</fielddominance>
														</samplecharacteristics>
													</video>
												</media>
											</file>
											<filter>
												<effect>
													<name>Basic Motion</name>
													<effectid>basic</effectid>
													<effectcategory>motion</effectcategory>
													<effecttype>motion</effecttype>
													<mediatype>video</mediatype>
													<pproBypass>false</pproBypass>
													<parameter authoringApp="PremierePro">
														<parameterid>scale</parameterid>
														<name>Scale</name>
														<valuemin>0</valuemin>
														<valuemax>1000</valuemax>
														<value>53.3333</value>
													</parameter>
													<parameter authoringApp="PremierePro">
														<parameterid>rotation</parameterid>
														<name>Rotation</name>
														<valuemin>-8640</valuemin>
														<valuemax>8640</valuemax>
														<value>0</value>
													</parameter>
													<parameter authoringApp="PremierePro">
														<parameterid>center</parameterid>
														<name>Center</name>
														<value>
															<horiz>0</horiz>
															<vert>0</vert>
														</value>
													</parameter>
													<parameter authoringApp="PremierePro">
														<parameterid>centerOffset</parameterid>
														<name>Anchor Point</name>
														<value>
															<horiz>0</horiz>
															<vert>0</vert>
														</value>
													</parameter>
													<parameter authoringApp="PremierePro">
														<parameterid>antiflicker</parameterid>
														<name>Anti-flicker Filter</name>
														<valuemin>0.0</valuemin>
														<valuemax>1.0</valuemax>
														<value>0</value>
													</parameter>
												</effect>
											</filter>
											<logginginfo>
												<description></description>
												<scene></scene>
												<shottake></shottake>
												<lognote></lognote>
												<good></good>
												<originalvideofilename></originalvideofilename>
												<originalaudiofilename></originalaudiofilename>
											</logginginfo>
											<colorinfo>
												<lut></lut>
												<lut1></lut1>
												<asc_sop></asc_sop>
												<asc_sat></asc_sat>
												<lut2></lut2>
											</colorinfo>
											<labels>
												<label2>Lavender</label2>
											</labels>
										</clipitem>
										<transitionitem>
											<start>719</start>
											<end>744</end>
											<alignment>end-black</alignment>
											<cutPointTicks>254016000000</cutPointTicks>
											<rate>
												<timebase>25</timebase>
												<ntsc>FALSE</ntsc>
											</rate>
											<effect>
												<name>Edge Wipe</name>
												<effectid>Edge Wipe</effectid>
												<effectcategory>Wipe</effectcategory>
												<effecttype>transition</effecttype>
												<mediatype>video</mediatype>
												<wipecode>2</wipecode>
												<wipeaccuracy>100</wipeaccuracy>
												<startratio>0</startratio>
												<endratio>1</endratio>
												<reverse>FALSE</reverse>
												<parameter authoringApp="PremierePro">
													<parameterid>directionofwipe</parameterid>
													<name>Angle</name>
													<valuemin>-360</valuemin>
													<valuemax>360</valuemax>
													<value>90</value>
												</parameter>
											</effect>
										</transitionitem>
										<transitionitem>
											<start>756</start>
											<end>785</end>
											<alignment>start-black</alignment>
											<cutPointTicks>0</cutPointTicks>
											<rate>
												<timebase>25</timebase>
												<ntsc>FALSE</ntsc>
											</rate>
											<effect>
												<name>Edge Wipe</name>
												<effectid>Edge Wipe</effectid>
												<effectcategory>Wipe</effectcategory>
												<effecttype>transition</effecttype>
												<mediatype>video</mediatype>
												<wipecode>2</wipecode>
												<wipeaccuracy>100</wipeaccuracy>
												<startratio>0</startratio>
												<endratio>1</endratio>
												<reverse>FALSE</reverse>
												<parameter authoringApp="PremierePro">
													<parameterid>directionofwipe</parameterid>
													<name>Angle</name>
													<valuemin>-360</valuemin>
													<valuemax>360</valuemax>
													<value>270</value>
												</parameter>
											</effect>
										</transitionitem>
										<clipitem id="clipitem-1369">
											<masterclipid>masterclip-619</masterclipid>
											<name>5_3.png</name>
											<enabled>TRUE</enabled>
											<duration>1080000</duration>
											<rate>
												<timebase>25</timebase>
												<ntsc>FALSE</ntsc>
											</rate>
											<start>-1</start>
											<end>-1</end>
											<in>90011</in>
											<out>90375</out>
											<pproTicksIn>914569367040000</pproTicksIn>
											<pproTicksOut>918267840000000</pproTicksOut>
											<alphatype>straight</alphatype>
											<pixelaspectratio>square</pixelaspectratio>
											<anamorphic>FALSE</anamorphic>
											<file id="file-511">
												<name>5_3.png</name>
												<pathurl>file://localhost/_MUZ_TV/project_AP/RU/_TITLE/468/PNG/5_3.png</pathurl>
												<rate>
													<timebase>30</timebase>
													<ntsc>TRUE</ntsc>
												</rate>
												<timecode>
													<rate>
														<timebase>30</timebase>
														<ntsc>TRUE</ntsc>
													</rate>
													<string>00;00;00;00</string>
													<frame>0</frame>
													<displayformat>DF</displayformat>
												</timecode>
												<media>
													<video>
														<samplecharacteristics>
															<rate>
																<timebase>30</timebase>
																<ntsc>TRUE</ntsc>
															</rate>
															<width>1920</width>
															<height>1080</height>
															<anamorphic>FALSE</anamorphic>
															<pixelaspectratio>square</pixelaspectratio>
															<fielddominance>none</fielddominance>
														</samplecharacteristics>
													</video>
												</media>
											</file>
											<filter>
												<effect>
													<name>Basic Motion</name>
													<effectid>basic</effectid>
													<effectcategory>motion</effectcategory>
													<effecttype>motion</effecttype>
													<mediatype>video</mediatype>
													<pproBypass>false</pproBypass>
													<parameter authoringApp="PremierePro">
														<parameterid>scale</parameterid>
														<name>Scale</name>
														<valuemin>0</valuemin>
														<valuemax>1000</valuemax>
														<value>53.3333</value>
													</parameter>
													<parameter authoringApp="PremierePro">
														<parameterid>rotation</parameterid>
														<name>Rotation</name>
														<valuemin>-8640</valuemin>
														<valuemax>8640</valuemax>
														<value>0</value>
													</parameter>
													<parameter authoringApp="PremierePro">
														<parameterid>center</parameterid>
														<name>Center</name>
														<value>
															<horiz>0</horiz>
															<vert>0</vert>
														</value>
													</parameter>
													<parameter authoringApp="PremierePro">
														<parameterid>centerOffset</parameterid>
														<name>Anchor Point</name>
														<value>
															<horiz>0</horiz>
															<vert>0</vert>
														</value>
													</parameter>
													<parameter authoringApp="PremierePro">
														<parameterid>antiflicker</parameterid>
														<name>Anti-flicker Filter</name>
														<valuemin>0.0</valuemin>
														<valuemax>1.0</valuemax>
														<value>0</value>
													</parameter>
												</effect>
											</filter>
											<logginginfo>
												<description></description>
												<scene></scene>
												<shottake></shottake>
												<lognote></lognote>
												<good></good>
												<originalvideofilename></originalvideofilename>
												<originalaudiofilename></originalaudiofilename>
											</logginginfo>
											<colorinfo>
												<lut></lut>
												<lut1></lut1>
												<asc_sop></asc_sop>
												<asc_sat></asc_sat>
												<lut2></lut2>
											</colorinfo>
											<labels>
												<label2>Lavender</label2>
											</labels>
										</clipitem>
										<transitionitem>
											<start>1095</start>
											<end>1120</end>
											<alignment>end-black</alignment>
											<cutPointTicks>254016000000</cutPointTicks>
											<rate>
												<timebase>25</timebase>
												<ntsc>FALSE</ntsc>
											</rate>
											<effect>
												<name>Edge Wipe</name>
												<effectid>Edge Wipe</effectid>
												<effectcategory>Wipe</effectcategory>
												<effecttype>transition</effecttype>
												<mediatype>video</mediatype>
												<wipecode>2</wipecode>
												<wipeaccuracy>100</wipeaccuracy>
												<startratio>0</startratio>
												<endratio>1</endratio>
												<reverse>FALSE</reverse>
												<parameter authoringApp="PremierePro">
													<parameterid>directionofwipe</parameterid>
													<name>Angle</name>
													<valuemin>-360</valuemin>
													<valuemax>360</valuemax>
													<value>90</value>
												</parameter>
											</effect>
										</transitionitem>
										<enabled>TRUE</enabled>
										<locked>FALSE</locked>
									</track>
									<track TL.SQTrackShy="0" TL.SQTrackExpandedHeight="25" TL.SQTrackExpanded="0" MZ.TrackTargeted="0">
										<transitionitem>
											<start>755</start>
											<end>780</end>
											<alignment>start-black</alignment>
											<cutPointTicks>0</cutPointTicks>
											<rate>
												<timebase>25</timebase>
												<ntsc>FALSE</ntsc>
											</rate>
											<effect>
												<name>Edge Wipe</name>
												<effectid>Edge Wipe</effectid>
												<effectcategory>Wipe</effectcategory>
												<effecttype>transition</effecttype>
												<mediatype>video</mediatype>
												<wipecode>2</wipecode>
												<wipeaccuracy>100</wipeaccuracy>
												<startratio>0</startratio>
												<endratio>1</endratio>
												<reverse>FALSE</reverse>
												<parameter authoringApp="PremierePro">
													<parameterid>directionofwipe</parameterid>
													<name>Angle</name>
													<valuemin>-360</valuemin>
													<valuemax>360</valuemax>
													<value>270</value>
												</parameter>
											</effect>
										</transitionitem>
										<clipitem id="clipitem-1370">
											<masterclipid>masterclip-620</masterclipid>
											<name>Graphic</name>
											<enabled>FALSE</enabled>
											<duration>1080000</duration>
											<rate>
												<timebase>25</timebase>
												<ntsc>FALSE</ntsc>
											</rate>
											<start>-1</start>
											<end>-1</end>
											<in>89905</in>
											<out>90272</out>
											<pproTicksIn>913492339200000</pproTicksIn>
											<pproTicksOut>917221294080000</pproTicksOut>
											<alphatype>straight</alphatype>
											<pixelaspectratio>PAL-601</pixelaspectratio>
											<anamorphic>TRUE</anamorphic>
											<file id="file-512">
												<name>Graphic</name>
												<mediaSource>GraphicAndType</mediaSource>
												<rate>
													<timebase>30</timebase>
													<ntsc>TRUE</ntsc>
												</rate>
												<timecode>
													<rate>
														<timebase>30</timebase>
														<ntsc>TRUE</ntsc>
													</rate>
													<string>00;00;00;00</string>
													<frame>0</frame>
													<displayformat>DF</displayformat>
												</timecode>
												<media>
													<video>
														<samplecharacteristics>
															<rate>
																<timebase>30</timebase>
																<ntsc>TRUE</ntsc>
															</rate>
															<width>720</width>
															<height>576</height>
															<anamorphic>TRUE</anamorphic>
															<pixelaspectratio>PAL-601</pixelaspectratio>
															<fielddominance>none</fielddominance>
														</samplecharacteristics>
													</video>
												</media>
											</file>
											<filter>
												<effect>
													<name>Vector Motion</name>
													<effectid>GraphicGroup</effectid>
													<effectcategory>graphic</effectcategory>
													<effecttype>filter</effecttype>
													<mediatype>video</mediatype>
													<pproBypass>false</pproBypass>
													<parameter authoringApp="PremierePro">
														<parameterid>1</parameterid>
														<name>Position</name>
														<IsTimeVarying>false</IsTimeVarying>
														<value>-91445760000000000,0.81693898908787344:0.49085601568222115,0,0,0,0,0,0,5,4,0,0,0,0</value>
													</parameter>
													<parameter authoringApp="PremierePro">
														<parameterid>2</parameterid>
														<name>Scale</name>
														<IsTimeVarying>false</IsTimeVarying>
														<ParameterControlType>2</ParameterControlType>
														<LowerBound>0</LowerBound>
														<UpperBound>10000</UpperBound>
														<UpperUIBound>200</UpperUIBound>
														<value>-91445760000000000,100.,0,0,0,0,0,0</value>
													</parameter>
													<parameter authoringApp="PremierePro">
														<parameterid>3</parameterid>
														<name>Scale Width</name>
														<IsTimeVarying>false</IsTimeVarying>
														<ParameterControlType>2</ParameterControlType>
														<LowerBound>0</LowerBound>
														<UpperBound>10000</UpperBound>
														<UpperUIBound>200</UpperUIBound>
														<value>-91445760000000000,100.,0,0,0,0,0,0</value>
													</parameter>
													<parameter authoringApp="PremierePro">
														<parameterid>4</parameterid>
														<name> </name>
														<IsTimeVarying>false</IsTimeVarying>
														<ParameterControlType>4</ParameterControlType>
														<LowerBound>false</LowerBound>
														<UpperBound>true</UpperBound>
														<value>-91445760000000000,true,0,0,0,0,0,0</value>
													</parameter>
													<parameter authoringApp="PremierePro">
														<parameterid>5</parameterid>
														<name>Rotation</name>
														<IsTimeVarying>false</IsTimeVarying>
														<ParameterControlType>3</ParameterControlType>
														<LowerBound>-32768</LowerBound>
														<UpperBound>32767</UpperBound>
														<value>-91445760000000000,0.,0,0,0,0,0,0</value>
													</parameter>
													<parameter authoringApp="PremierePro">
														<parameterid>6</parameterid>
														<name>Anchor Point</name>
														<IsTimeVarying>false</IsTimeVarying>
														<value>-91445760000000000,0.5:0.5,0,0,0,0,0,0,5,4,0,0,0,0</value>
													</parameter>
												</effect>
											</filter>
											<filter>
												<effect>
													<name>Данил Прытков признаётся, &#13;что сильные провалы &#13;мотивируют его на творчество &#13;не меньше, чем победы. </name>
													<effectid>GraphicAndType</effectid>
													<effectcategory>graphic</effectcategory>
													<effecttype>filter</effecttype>
													<mediatype>video</mediatype>
													<pproBypass>false</pproBypass>
													<pproExpanded>true</pproExpanded>
													<parameter authoringApp="PremierePro">
														<parameterid>1</parameterid>
														<name>Source Text</name>
														<hash>698123b5-7d57-7b79-efb1-b0df00000a31</hash>
													</parameter>
													<parameter authoringApp="PremierePro">
														<parameterid>2</parameterid>
														<name>Transform</name>
														<IsTimeVarying>false</IsTimeVarying>
														<ParameterControlType>11</ParameterControlType>
														<LowerBound>false</LowerBound>
														<UpperBound>false</UpperBound>
														<value>-91445760000000000,false,0,0,0,0,0,0</value>
													</parameter>
													<parameter authoringApp="PremierePro">
														<parameterid>3</parameterid>
														<name>Position</name>
														<IsTimeVarying>false</IsTimeVarying>
														<value>-91445760000000000,0.270416259765625:0.640594482421875,0,0,0,0,0,0,5,4,0,0,0,0</value>
													</parameter>
													<parameter authoringApp="PremierePro">
														<parameterid>4</parameterid>
														<name>Scale</name>
														<IsTimeVarying>false</IsTimeVarying>
														<ParameterControlType>2</ParameterControlType>
														<LowerBound>0</LowerBound>
														<UpperBound>4000</UpperBound>
														<value>-91445760000000000,100.,0,0,0,0,0,0</value>
													</parameter>
													<parameter authoringApp="PremierePro">
														<parameterid>5</parameterid>
														<name>Horizontal Scale</name>
														<IsTimeVarying>false</IsTimeVarying>
														<ParameterControlType>2</ParameterControlType>
														<LowerBound>0</LowerBound>
														<UpperBound>4000</UpperBound>
														<value>-91445760000000000,100.,0,0,0,0,0,0</value>
													</parameter>
													<parameter authoringApp="PremierePro">
														<parameterid>6</parameterid>
														<name> </name>
														<IsTimeVarying>false</IsTimeVarying>
														<ParameterControlType>4</ParameterControlType>
														<LowerBound>false</LowerBound>
														<UpperBound>true</UpperBound>
														<value>-91445760000000000,true,0,0,0,0,0,0</value>
													</parameter>
													<parameter authoringApp="PremierePro">
														<parameterid>7</parameterid>
														<name>Rotation</name>
														<IsTimeVarying>false</IsTimeVarying>
														<ParameterControlType>3</ParameterControlType>
														<LowerBound>-32768</LowerBound>
														<UpperBound>32767</UpperBound>
														<value>-91445760000000000,0.,0,0,0,0,0,0</value>
													</parameter>
													<parameter authoringApp="PremierePro">
														<parameterid>8</parameterid>
														<name>Opacity</name>
														<IsTimeVarying>false</IsTimeVarying>
														<ParameterControlType>2</ParameterControlType>
														<LowerBound>0</LowerBound>
														<UpperBound>100</UpperBound>
														<value>-91445760000000000,100.,0,0,0,0,0,0</value>
													</parameter>
													<parameter authoringApp="PremierePro">
														<parameterid>9</parameterid>
														<name>Anchor Point</name>
														<IsTimeVarying>false</IsTimeVarying>
														<value>-91445760000000000,0:0,0,0,0,0,0,0,5,4,0,0,0,0</value>
													</parameter>
													<parameter authoringApp="PremierePro">
														<parameterid>10</parameterid>
														<name></name>
														<IsTimeVarying>false</IsTimeVarying>
														<ParameterControlType>12</ParameterControlType>
														<LowerBound>false</LowerBound>
														<UpperBound>false</UpperBound>
														<value>-91445760000000000,false,0,0,0,0,0,0</value>
													</parameter>
													<parameter authoringApp="PremierePro">
														<parameterid>11</parameterid>
														<name> </name>
														<IsTimeVarying>false</IsTimeVarying>
														<ParameterControlType>8</ParameterControlType>
														<LowerBound>0</LowerBound>
														<UpperBound>32768</UpperBound>
														<value>-91445760000000000,0.,0,0,0,0,0,0</value>
													</parameter>
													<parameter authoringApp="PremierePro">
														<parameterid>12</parameterid>
														<name> </name>
														<IsTimeVarying>false</IsTimeVarying>
														<ParameterControlType>8</ParameterControlType>
														<LowerBound>0</LowerBound>
														<UpperBound>32768</UpperBound>
														<value>-91445760000000000,0.,0,0,0,0,0,0</value>
													</parameter>
													<parameter authoringApp="PremierePro">
														<parameterid>13</parameterid>
														<name>start</name>
														<IsTimeVarying>false</IsTimeVarying>
														<ParameterControlType>8</ParameterControlType>
														<LowerBound>-100</LowerBound>
														<UpperBound>1000000000</UpperBound>
														<value>-91445760000000000,0.,0,0,0,0,0,0</value>
													</parameter>
													<parameter authoringApp="PremierePro">
														<parameterid>14</parameterid>
														<name>end</name>
														<IsTimeVarying>false</IsTimeVarying>
														<ParameterControlType>8</ParameterControlType>
														<LowerBound>-100</LowerBound>
														<UpperBound>1000000000</UpperBound>
														<value>-91445760000000000,101.,0,0,0,0,0,0</value>
													</parameter>
													<parameter authoringApp="PremierePro">
														<parameterid>15</parameterid>
														<name> </name>
														<IsTimeVarying>false</IsTimeVarying>
														<ParameterControlType>4</ParameterControlType>
														<LowerBound>false</LowerBound>
														<UpperBound>true</UpperBound>
														<value>-91445760000000000,false,0,0,0,0,0,0</value>
													</parameter>
													<parameter authoringApp="PremierePro">
														<parameterid>16</parameterid>
														<name> </name>
														<IsTimeVarying>false</IsTimeVarying>
														<ParameterControlType>4</ParameterControlType>
														<LowerBound>false</LowerBound>
														<UpperBound>true</UpperBound>
														<value>-91445760000000000,false,0,0,0,0,0,0</value>
													</parameter>
													<parameter authoringApp="PremierePro">
														<parameterid>17</parameterid>
														<name> </name>
														<IsTimeVarying>false</IsTimeVarying>
														<ParameterControlType>4</ParameterControlType>
														<LowerBound>false</LowerBound>
														<UpperBound>true</UpperBound>
														<value>-91445760000000000,false,0,0,0,0,0,0</value>
													</parameter>
													<parameter authoringApp="PremierePro">
														<parameterid>18</parameterid>
														<name> </name>
														<IsTimeVarying>false</IsTimeVarying>
														<ParameterControlType>4</ParameterControlType>
														<LowerBound>false</LowerBound>
														<UpperBound>true</UpperBound>
														<value>-91445760000000000,false,0,0,0,0,0,0</value>
													</parameter>
													<parameter authoringApp="PremierePro">
														<parameterid>19</parameterid>
														<name>Parent Width</name>
														<IsTimeVarying>false</IsTimeVarying>
														<ParameterControlType>2</ParameterControlType>
														<LowerBound>0</LowerBound>
														<UpperBound>20000</UpperBound>
														<value>-91445760000000000,0.,0,0,0,0,0,0</value>
													</parameter>
													<parameter authoringApp="PremierePro">
														<parameterid>20</parameterid>
														<name>Parent Height</name>
														<IsTimeVarying>false</IsTimeVarying>
														<ParameterControlType>2</ParameterControlType>
														<LowerBound>0</LowerBound>
														<UpperBound>20000</UpperBound>
														<value>-91445760000000000,0.,0,0,0,0,0,0</value>
													</parameter>
													<parameter authoringApp="PremierePro">
														<parameterid>21</parameterid>
														<name>Parent Rotation</name>
														<IsTimeVarying>false</IsTimeVarying>
														<ParameterControlType>3</ParameterControlType>
														<LowerBound>-32768</LowerBound>
														<UpperBound>32767</UpperBound>
														<value>-91445760000000000,0.,0,0,0,0,0,0</value>
													</parameter>
												</effect>
											</filter>
											<logginginfo>
												<description></description>
												<scene></scene>
												<shottake></shottake>
												<lognote></lognote>
												<good></good>
												<originalvideofilename></originalvideofilename>
												<originalaudiofilename></originalaudiofilename>
											</logginginfo>
											<colorinfo>
												<lut></lut>
												<lut1></lut1>
												<asc_sop></asc_sop>
												<asc_sat></asc_sat>
												<lut2></lut2>
											</colorinfo>
										</clipitem>
										<transitionitem>
											<start>1097</start>
											<end>1122</end>
											<alignment>end-black</alignment>
											<cutPointTicks>254016000000</cutPointTicks>
											<rate>
												<timebase>25</timebase>
												<ntsc>FALSE</ntsc>
											</rate>
											<effect>
												<name>Edge Wipe</name>
												<effectid>Edge Wipe</effectid>
												<effectcategory>Wipe</effectcategory>
												<effecttype>transition</effecttype>
												<mediatype>video</mediatype>
												<wipecode>2</wipecode>
												<wipeaccuracy>100</wipeaccuracy>
												<startratio>0</startratio>
												<endratio>1</endratio>
												<reverse>FALSE</reverse>
												<parameter authoringApp="PremierePro">
													<parameterid>directionofwipe</parameterid>
													<name>Angle</name>
													<valuemin>-360</valuemin>
													<valuemax>360</valuemax>
													<value>90</value>
												</parameter>
											</effect>
										</transitionitem>
										<enabled>TRUE</enabled>
										<locked>FALSE</locked>
									</track>
								</video>
								<audio>
									<numOutputChannels>2</numOutputChannels>
									<format>
										<samplecharacteristics>
											<depth>16</depth>
											<samplerate>48000</samplerate>
										</samplecharacteristics>
									</format>
									<outputs>
										<group>
											<index>1</index>
											<numchannels>1</numchannels>
											<downmix>0</downmix>
											<channel>
												<index>1</index>
											</channel>
										</group>
										<group>
											<index>2</index>
											<numchannels>1</numchannels>
											<downmix>0</downmix>
											<channel>
												<index>2</index>
											</channel>
										</group>
									</outputs>
									<track TL.SQTrackAudioKeyframeStyle="0" TL.SQTrackShy="0" TL.SQTrackExpandedHeight="25" TL.SQTrackExpanded="0" MZ.TrackTargeted="1" PannerCurrentValue="0.5" PannerStartKeyframe="-91445760000000000,0.5,0,0,0,0,0,0" PannerName="Balance" currentExplodedTrackIndex="0" totalExplodedTrackCount="2" premiereTrackType="Stereo">
										<enabled>TRUE</enabled>
										<locked>FALSE</locked>
										<outputchannelindex>1</outputchannelindex>
									</track>
									<track TL.SQTrackAudioKeyframeStyle="0" TL.SQTrackShy="0" TL.SQTrackExpandedHeight="25" TL.SQTrackExpanded="0" MZ.TrackTargeted="1" PannerCurrentValue="0.5" PannerStartKeyframe="-91445760000000000,0.5,0,0,0,0,0,0" PannerName="Balance" currentExplodedTrackIndex="1" totalExplodedTrackCount="2" premiereTrackType="Stereo">
										<enabled>TRUE</enabled>
										<locked>FALSE</locked>
										<outputchannelindex>2</outputchannelindex>
									</track>
								</audio>
							</media>
							<timecode>
								<rate>
									<timebase>25</timebase>
									<ntsc>FALSE</ntsc>
								</rate>
								<string>00:00:00:00</string>
								<frame>0</frame>
								<displayformat>NDF</displayformat>
							</timecode>
								<marker>
									<comment></comment>
									<name></name>
									<in>50</in>
									<out>-1</out>
									<pproColor>4292277273</pproColor>
								</marker>
								<marker>
									<comment></comment>
									<name></name>
									<in>800</in>
									<out>-1</out>
									<pproColor>4292277273</pproColor>
								</marker>
								<marker>
									<comment></comment>
									<name></name>
									<in>425</in>
									<out>-1</out>
									<pproColor>4292277273</pproColor>
								</marker>
							<logginginfo>
								<description></description>
								<scene></scene>
								<shottake></shottake>
								<lognote></lognote>
								<good></good>
								<originalvideofilename></originalvideofilename>
								<originalaudiofilename></originalaudiofilename>
							</logginginfo>
						</sequence>
							<marker>
								<comment></comment>
								<name></name>
								<in>50</in>
								<out>-1</out>
								<pproColor>4292277273</pproColor>
							</marker>
							<marker>
								<comment></comment>
								<name></name>
								<in>800</in>
								<out>-1</out>
								<pproColor>4292277273</pproColor>
							</marker>
							<marker>
								<comment></comment>
								<name></name>
								<in>425</in>
								<out>-1</out>
								<pproColor>4292277273</pproColor>
							</marker>
						<labels>
							<label2>Forest</label2>
						</labels>
					</clipitem>
					<clipitem id="clipitem-1371">
						<masterclipid>masterclip-616</masterclipid>
						<name>5</name>
						<enabled>TRUE</enabled>
						<duration>1125</duration>
						<rate>
							<timebase>25</timebase>
							<ntsc>FALSE</ntsc>
						</rate>
						<start>42611</start>
						<end>42986</end>
						<in>375</in>
						<out>750</out>
						<pproTicksIn>3810240000000</pproTicksIn>
						<pproTicksOut>7620480000000</pproTicksOut>
						<sequence id="sequence-115"/>
							<marker>
								<comment></comment>
								<name></name>
								<in>50</in>
								<out>-1</out>
								<pproColor>4292277273</pproColor>
							</marker>
							<marker>
								<comment></comment>
								<name></name>
								<in>800</in>
								<out>-1</out>
								<pproColor>4292277273</pproColor>
							</marker>
							<marker>
								<comment></comment>
								<name></name>
								<in>425</in>
								<out>-1</out>
								<pproColor>4292277273</pproColor>
							</marker>
						<labels>
							<label2>Forest</label2>
						</labels>
					</clipitem>
					<clipitem id="clipitem-1372">
						<masterclipid>masterclip-616</masterclipid>
						<name>5</name>
						<enabled>TRUE</enabled>
						<duration>1125</duration>
						<rate>
							<timebase>25</timebase>
							<ntsc>FALSE</ntsc>
						</rate>
						<start>43262</start>
						<end>43637</end>
						<in>750</in>
						<out>1125</out>
						<pproTicksIn>7620480000000</pproTicksIn>
						<pproTicksOut>11430720000000</pproTicksOut>
						<sequence id="sequence-115"/>
							<marker>
								<comment></comment>
								<name></name>
								<in>50</in>
								<out>-1</out>
								<pproColor>4292277273</pproColor>
							</marker>
							<marker>
								<comment></comment>
								<name></name>
								<in>800</in>
								<out>-1</out>
								<pproColor>4292277273</pproColor>
							</marker>
							<marker>
								<comment></comment>
								<name></name>
								<in>425</in>
								<out>-1</out>
								<pproColor>4292277273</pproColor>
							</marker>
						<labels>
							<label2>Forest</label2>
						</labels>
					</clipitem>
					<clipitem id="clipitem-1373">
						<masterclipid>masterclip-621</masterclipid>
						<name>4</name>
						<enabled>TRUE</enabled>
						<duration>1125</duration>
						<rate>
							<timebase>25</timebase>
							<ntsc>FALSE</ntsc>
						</rate>
						<start>45697</start>
						<end>46072</end>
						<in>0</in>
						<out>375</out>
						<pproTicksIn>0</pproTicksIn>
						<pproTicksOut>3810240000000</pproTicksOut>
						<sequence id="sequence-116" TL.SQAudioVisibleBase="0" TL.SQVideoVisibleBase="0" TL.SQVisibleBaseTime="0" TL.SQAVDividerPosition="0.5" TL.SQHideShyTracks="0" TL.SQHeaderWidth="236" Monitor.ProgramZoomOut="11430720000000" Monitor.ProgramZoomIn="0" TL.SQTimePerPixel="0.19620667102680814" AM.TrackVScrollPosition="0" AM.TrackScrollPosition="0" MZ.EditLine="9916784640000" MZ.Sequence.PreviewFrameSizeHeight="576" MZ.Sequence.PreviewFrameSizeWidth="720" MZ.Sequence.AudioTimeDisplayFormat="200" MZ.Sequence.PreviewRenderingClassID="1061109567" MZ.Sequence.PreviewRenderingPresetCodec="1685480304" MZ.Sequence.PreviewRenderingPresetPath="EncoderPresets/SequencePreview/04be6e19-a018-4e0c-a9d6-0ab44c64752b/QuickTime DV PAL.epr" MZ.Sequence.PreviewUseMaxRenderQuality="false" MZ.Sequence.PreviewUseMaxBitDepth="false" MZ.Sequence.EditingModeGUID="04be6e19-a018-4e0c-a9d6-0ab44c64752b" MZ.Sequence.VideoTimeDisplayFormat="101" MZ.WorkOutPoint="11430720000000" MZ.WorkInPoint="0" MZ.ZeroPoint="0">
							<duration>1125</duration>
							<rate>
								<timebase>25</timebase>
								<ntsc>FALSE</ntsc>
							</rate>
							<name>RU_Nested</name>
							<media>
								<video>
									<format>
										<samplecharacteristics>
											<rate>
												<timebase>25</timebase>
												<ntsc>FALSE</ntsc>
											</rate>
											<codec>
												<name>Apple ProRes 422</name>
												<appspecificdata>
													<appname>Final Cut Pro</appname>
													<appmanufacturer>Apple Inc.</appmanufacturer>
													<appversion>7.0</appversion>
													<data>
														<qtcodec>
															<codecname>Apple ProRes 422</codecname>
															<codectypename>Apple ProRes 422</codectypename>
															<codectypecode>apcn</codectypecode>
															<codecvendorcode>appl</codecvendorcode>
															<spatialquality>1024</spatialquality>
															<temporalquality>0</temporalquality>
															<keyframerate>0</keyframerate>
															<datarate>0</datarate>
														</qtcodec>
													</data>
												</appspecificdata>
											</codec>
											<width>720</width>
											<height>576</height>
											<anamorphic>TRUE</anamorphic>
											<pixelaspectratio>PAL-601</pixelaspectratio>
											<fielddominance>lower</fielddominance>
											<colordepth>24</colordepth>
										</samplecharacteristics>
									</format>
									<track TL.SQTrackShy="0" TL.SQTrackExpandedHeight="25" TL.SQTrackExpanded="0" MZ.TrackTargeted="1">
										<clipitem id="clipitem-1374">
											<masterclipid>masterclip-585</masterclipid>
											<name>Plashka_Right_DV.mov</name>
											<enabled>TRUE</enabled>
											<duration>375</duration>
											<rate>
												<timebase>25</timebase>
												<ntsc>FALSE</ntsc>
											</rate>
											<start>0</start>
											<end>375</end>
											<in>0</in>
											<out>375</out>
											<pproTicksIn>0</pproTicksIn>
											<pproTicksOut>3810240000000</pproTicksOut>
											<alphatype>straight</alphatype>
											<file id="file-484"/>
											<filter>
												<effect>
													<name>Basic Motion</name>
													<effectid>basic</effectid>
													<effectcategory>motion</effectcategory>
													<effecttype>motion</effecttype>
													<mediatype>video</mediatype>
													<pproBypass>false</pproBypass>
													<parameter authoringApp="PremierePro">
														<parameterid>scale</parameterid>
														<name>Scale</name>
														<valuemin>0</valuemin>
														<valuemax>1000</valuemax>
														<value>100</value>
													</parameter>
													<parameter authoringApp="PremierePro">
														<parameterid>rotation</parameterid>
														<name>Rotation</name>
														<valuemin>-8640</valuemin>
														<valuemax>8640</valuemax>
														<value>0</value>
													</parameter>
													<parameter authoringApp="PremierePro">
														<parameterid>center</parameterid>
														<name>Center</name>
														<value>
															<horiz>-5.55112e-17</horiz>
															<vert>-1.11022e-16</vert>
														</value>
													</parameter>
													<parameter authoringApp="PremierePro">
														<parameterid>centerOffset</parameterid>
														<name>Anchor Point</name>
														<value>
															<horiz>0.402314</horiz>
															<vert>0.41875</vert>
														</value>
													</parameter>
													<parameter authoringApp="PremierePro">
														<parameterid>antiflicker</parameterid>
														<name>Anti-flicker Filter</name>
														<valuemin>0.0</valuemin>
														<valuemax>1.0</valuemax>
														<value>0</value>
													</parameter>
												</effect>
											</filter>
											<filter>
												<effect>
													<name>Distort</name>
													<effectid>deformation</effectid>
													<effectcategory>motion</effectcategory>
													<effecttype>motion</effecttype>
													<mediatype>video</mediatype>
													<parameter authoringApp="PremierePro">
														<parameterid>aspect</parameterid>
														<name>Aspect</name>
														<valuemin>-10000</valuemin>
														<valuemax>10000</valuemax>
														<value>7.52688</value>
													</parameter>
												</effect>
											</filter>
											<logginginfo>
												<description></description>
												<scene></scene>
												<shottake></shottake>
												<lognote></lognote>
												<good></good>
												<originalvideofilename></originalvideofilename>
												<originalaudiofilename></originalaudiofilename>
											</logginginfo>
											<colorinfo>
												<lut></lut>
												<lut1></lut1>
												<asc_sop></asc_sop>
												<asc_sat></asc_sat>
												<lut2></lut2>
											</colorinfo>
											<labels>
												<label2>Violet</label2>
											</labels>
										</clipitem>
										<clipitem id="clipitem-1375">
											<masterclipid>masterclip-585</masterclipid>
											<name>Plashka_Right_DV.mov</name>
											<enabled>TRUE</enabled>
											<duration>375</duration>
											<rate>
												<timebase>25</timebase>
												<ntsc>FALSE</ntsc>
											</rate>
											<start>375</start>
											<end>750</end>
											<in>0</in>
											<out>375</out>
											<pproTicksIn>0</pproTicksIn>
											<pproTicksOut>3810240000000</pproTicksOut>
											<alphatype>straight</alphatype>
											<file id="file-484"/>
											<filter>
												<effect>
													<name>Basic Motion</name>
													<effectid>basic</effectid>
													<effectcategory>motion</effectcategory>
													<effecttype>motion</effecttype>
													<mediatype>video</mediatype>
													<pproBypass>false</pproBypass>
													<parameter authoringApp="PremierePro">
														<parameterid>scale</parameterid>
														<name>Scale</name>
														<valuemin>0</valuemin>
														<valuemax>1000</valuemax>
														<value>100</value>
													</parameter>
													<parameter authoringApp="PremierePro">
														<parameterid>rotation</parameterid>
														<name>Rotation</name>
														<valuemin>-8640</valuemin>
														<valuemax>8640</valuemax>
														<value>0</value>
													</parameter>
													<parameter authoringApp="PremierePro">
														<parameterid>center</parameterid>
														<name>Center</name>
														<value>
															<horiz>-5.55112e-17</horiz>
															<vert>-1.11022e-16</vert>
														</value>
													</parameter>
													<parameter authoringApp="PremierePro">
														<parameterid>centerOffset</parameterid>
														<name>Anchor Point</name>
														<value>
															<horiz>0.402314</horiz>
															<vert>0.41875</vert>
														</value>
													</parameter>
													<parameter authoringApp="PremierePro">
														<parameterid>antiflicker</parameterid>
														<name>Anti-flicker Filter</name>
														<valuemin>0.0</valuemin>
														<valuemax>1.0</valuemax>
														<value>0</value>
													</parameter>
												</effect>
											</filter>
											<filter>
												<effect>
													<name>Distort</name>
													<effectid>deformation</effectid>
													<effectcategory>motion</effectcategory>
													<effecttype>motion</effecttype>
													<mediatype>video</mediatype>
													<parameter authoringApp="PremierePro">
														<parameterid>aspect</parameterid>
														<name>Aspect</name>
														<valuemin>-10000</valuemin>
														<valuemax>10000</valuemax>
														<value>9.89011</value>
													</parameter>
												</effect>
											</filter>
											<logginginfo>
												<description></description>
												<scene></scene>
												<shottake></shottake>
												<lognote></lognote>
												<good></good>
												<originalvideofilename></originalvideofilename>
												<originalaudiofilename></originalaudiofilename>
											</logginginfo>
											<colorinfo>
												<lut></lut>
												<lut1></lut1>
												<asc_sop></asc_sop>
												<asc_sat></asc_sat>
												<lut2></lut2>
											</colorinfo>
											<labels>
												<label2>Violet</label2>
											</labels>
										</clipitem>
										<clipitem id="clipitem-1376">
											<masterclipid>masterclip-585</masterclipid>
											<name>Plashka_Right_DV.mov</name>
											<enabled>TRUE</enabled>
											<duration>375</duration>
											<rate>
												<timebase>25</timebase>
												<ntsc>FALSE</ntsc>
											</rate>
											<start>750</start>
											<end>1125</end>
											<in>0</in>
											<out>375</out>
											<pproTicksIn>0</pproTicksIn>
											<pproTicksOut>3810240000000</pproTicksOut>
											<alphatype>straight</alphatype>
											<file id="file-484"/>
											<filter>
												<effect>
													<name>Basic Motion</name>
													<effectid>basic</effectid>
													<effectcategory>motion</effectcategory>
													<effecttype>motion</effecttype>
													<mediatype>video</mediatype>
													<pproBypass>false</pproBypass>
													<parameter authoringApp="PremierePro">
														<parameterid>scale</parameterid>
														<name>Scale</name>
														<valuemin>0</valuemin>
														<valuemax>1000</valuemax>
														<value>100</value>
													</parameter>
													<parameter authoringApp="PremierePro">
														<parameterid>rotation</parameterid>
														<name>Rotation</name>
														<valuemin>-8640</valuemin>
														<valuemax>8640</valuemax>
														<value>0</value>
													</parameter>
													<parameter authoringApp="PremierePro">
														<parameterid>center</parameterid>
														<name>Center</name>
														<value>
															<horiz>-5.55112e-17</horiz>
															<vert>-1.11022e-16</vert>
														</value>
													</parameter>
													<parameter authoringApp="PremierePro">
														<parameterid>centerOffset</parameterid>
														<name>Anchor Point</name>
														<value>
															<horiz>0.402314</horiz>
															<vert>0.41875</vert>
														</value>
													</parameter>
													<parameter authoringApp="PremierePro">
														<parameterid>antiflicker</parameterid>
														<name>Anti-flicker Filter</name>
														<valuemin>0.0</valuemin>
														<valuemax>1.0</valuemax>
														<value>0</value>
													</parameter>
												</effect>
											</filter>
											<filter>
												<effect>
													<name>Distort</name>
													<effectid>deformation</effectid>
													<effectcategory>motion</effectcategory>
													<effecttype>motion</effecttype>
													<mediatype>video</mediatype>
													<parameter authoringApp="PremierePro">
														<parameterid>aspect</parameterid>
														<name>Aspect</name>
														<valuemin>-10000</valuemin>
														<valuemax>10000</valuemax>
														<value>25</value>
													</parameter>
												</effect>
											</filter>
											<logginginfo>
												<description></description>
												<scene></scene>
												<shottake></shottake>
												<lognote></lognote>
												<good></good>
												<originalvideofilename></originalvideofilename>
												<originalaudiofilename></originalaudiofilename>
											</logginginfo>
											<colorinfo>
												<lut></lut>
												<lut1></lut1>
												<asc_sop></asc_sop>
												<asc_sat></asc_sat>
												<lut2></lut2>
											</colorinfo>
											<labels>
												<label2>Violet</label2>
											</labels>
										</clipitem>
										<enabled>TRUE</enabled>
										<locked>FALSE</locked>
									</track>
									<track TL.SQTrackShy="0" TL.SQTrackExpandedHeight="25" TL.SQTrackExpanded="0" MZ.TrackTargeted="0">
										<transitionitem>
											<start>6</start>
											<end>35</end>
											<alignment>start-black</alignment>
											<cutPointTicks>0</cutPointTicks>
											<rate>
												<timebase>25</timebase>
												<ntsc>FALSE</ntsc>
											</rate>
											<effect>
												<name>Edge Wipe</name>
												<effectid>Edge Wipe</effectid>
												<effectcategory>Wipe</effectcategory>
												<effecttype>transition</effecttype>
												<mediatype>video</mediatype>
												<wipecode>2</wipecode>
												<wipeaccuracy>100</wipeaccuracy>
												<startratio>0</startratio>
												<endratio>1</endratio>
												<reverse>FALSE</reverse>
												<parameter authoringApp="PremierePro">
													<parameterid>directionofwipe</parameterid>
													<name>Angle</name>
													<valuemin>-360</valuemin>
													<valuemax>360</valuemax>
													<value>270</value>
												</parameter>
											</effect>
										</transitionitem>
										<clipitem id="clipitem-1377">
											<masterclipid>masterclip-622</masterclipid>
											<name>4_1.png</name>
											<enabled>TRUE</enabled>
											<duration>1080000</duration>
											<rate>
												<timebase>25</timebase>
												<ntsc>FALSE</ntsc>
											</rate>
											<start>-1</start>
											<end>-1</end>
											<in>90006</in>
											<out>90369</out>
											<pproTicksIn>914518563840000</pproTicksIn>
											<pproTicksOut>918206876160000</pproTicksOut>
											<alphatype>straight</alphatype>
											<pixelaspectratio>square</pixelaspectratio>
											<anamorphic>FALSE</anamorphic>
											<file id="file-513">
												<name>4_1.png</name>
												<pathurl>file://localhost/_MUZ_TV/project_AP/RU/_TITLE/468/PNG/4_1.png</pathurl>
												<rate>
													<timebase>30</timebase>
													<ntsc>TRUE</ntsc>
												</rate>
												<timecode>
													<rate>
														<timebase>30</timebase>
														<ntsc>TRUE</ntsc>
													</rate>
													<string>00;00;00;00</string>
													<frame>0</frame>
													<displayformat>DF</displayformat>
												</timecode>
												<media>
													<video>
														<samplecharacteristics>
															<rate>
																<timebase>30</timebase>
																<ntsc>TRUE</ntsc>
															</rate>
															<width>1920</width>
															<height>1080</height>
															<anamorphic>FALSE</anamorphic>
															<pixelaspectratio>square</pixelaspectratio>
															<fielddominance>none</fielddominance>
														</samplecharacteristics>
													</video>
												</media>
											</file>
											<filter>
												<effect>
													<name>Basic Motion</name>
													<effectid>basic</effectid>
													<effectcategory>motion</effectcategory>
													<effecttype>motion</effecttype>
													<mediatype>video</mediatype>
													<pproBypass>false</pproBypass>
													<parameter authoringApp="PremierePro">
														<parameterid>scale</parameterid>
														<name>Scale</name>
														<valuemin>0</valuemin>
														<valuemax>1000</valuemax>
														<value>53.3333</value>
													</parameter>
													<parameter authoringApp="PremierePro">
														<parameterid>rotation</parameterid>
														<name>Rotation</name>
														<valuemin>-8640</valuemin>
														<valuemax>8640</valuemax>
														<value>0</value>
													</parameter>
													<parameter authoringApp="PremierePro">
														<parameterid>center</parameterid>
														<name>Center</name>
														<value>
															<horiz>0</horiz>
															<vert>0</vert>
														</value>
													</parameter>
													<parameter authoringApp="PremierePro">
														<parameterid>centerOffset</parameterid>
														<name>Anchor Point</name>
														<value>
															<horiz>0</horiz>
															<vert>0</vert>
														</value>
													</parameter>
													<parameter authoringApp="PremierePro">
														<parameterid>antiflicker</parameterid>
														<name>Anti-flicker Filter</name>
														<valuemin>0.0</valuemin>
														<valuemax>1.0</valuemax>
														<value>0</value>
													</parameter>
												</effect>
											</filter>
											<logginginfo>
												<description></description>
												<scene></scene>
												<shottake></shottake>
												<lognote></lognote>
												<good></good>
												<originalvideofilename></originalvideofilename>
												<originalaudiofilename></originalaudiofilename>
											</logginginfo>
											<colorinfo>
												<lut></lut>
												<lut1></lut1>
												<asc_sop></asc_sop>
												<asc_sat></asc_sat>
												<lut2></lut2>
											</colorinfo>
											<labels>
												<label2>Lavender</label2>
											</labels>
										</clipitem>
										<transitionitem>
											<start>344</start>
											<end>369</end>
											<alignment>end-black</alignment>
											<cutPointTicks>254016000000</cutPointTicks>
											<rate>
												<timebase>25</timebase>
												<ntsc>FALSE</ntsc>
											</rate>
											<effect>
												<name>Edge Wipe</name>
												<effectid>Edge Wipe</effectid>
												<effectcategory>Wipe</effectcategory>
												<effecttype>transition</effecttype>
												<mediatype>video</mediatype>
												<wipecode>2</wipecode>
												<wipeaccuracy>100</wipeaccuracy>
												<startratio>0</startratio>
												<endratio>1</endratio>
												<reverse>FALSE</reverse>
												<parameter authoringApp="PremierePro">
													<parameterid>directionofwipe</parameterid>
													<name>Angle</name>
													<valuemin>-360</valuemin>
													<valuemax>360</valuemax>
													<value>90</value>
												</parameter>
											</effect>
										</transitionitem>
										<transitionitem>
											<start>381</start>
											<end>410</end>
											<alignment>start-black</alignment>
											<cutPointTicks>0</cutPointTicks>
											<rate>
												<timebase>25</timebase>
												<ntsc>FALSE</ntsc>
											</rate>
											<effect>
												<name>Edge Wipe</name>
												<effectid>Edge Wipe</effectid>
												<effectcategory>Wipe</effectcategory>
												<effecttype>transition</effecttype>
												<mediatype>video</mediatype>
												<wipecode>2</wipecode>
												<wipeaccuracy>100</wipeaccuracy>
												<startratio>0</startratio>
												<endratio>1</endratio>
												<reverse>FALSE</reverse>
												<parameter authoringApp="PremierePro">
													<parameterid>directionofwipe</parameterid>
													<name>Angle</name>
													<valuemin>-360</valuemin>
													<valuemax>360</valuemax>
													<value>270</value>
												</parameter>
											</effect>
										</transitionitem>
										<clipitem id="clipitem-1378">
											<masterclipid>masterclip-623</masterclipid>
											<name>4_2.png</name>
											<enabled>TRUE</enabled>
											<duration>1080000</duration>
											<rate>
												<timebase>25</timebase>
												<ntsc>FALSE</ntsc>
											</rate>
											<start>-1</start>
											<end>-1</end>
											<in>90011</in>
											<out>90374</out>
											<pproTicksIn>914569367040000</pproTicksIn>
											<pproTicksOut>918257679360000</pproTicksOut>
											<alphatype>straight</alphatype>
											<pixelaspectratio>square</pixelaspectratio>
											<anamorphic>FALSE</anamorphic>
											<file id="file-514">
												<name>4_2.png</name>
												<pathurl>file://localhost/_MUZ_TV/project_AP/RU/_TITLE/468/PNG/4_2.png</pathurl>
												<rate>
													<timebase>30</timebase>
													<ntsc>TRUE</ntsc>
												</rate>
												<timecode>
													<rate>
														<timebase>30</timebase>
														<ntsc>TRUE</ntsc>
													</rate>
													<string>00;00;00;00</string>
													<frame>0</frame>
													<displayformat>DF</displayformat>
												</timecode>
												<media>
													<video>
														<samplecharacteristics>
															<rate>
																<timebase>30</timebase>
																<ntsc>TRUE</ntsc>
															</rate>
															<width>1920</width>
															<height>1080</height>
															<anamorphic>FALSE</anamorphic>
															<pixelaspectratio>square</pixelaspectratio>
															<fielddominance>none</fielddominance>
														</samplecharacteristics>
													</video>
												</media>
											</file>
											<filter>
												<effect>
													<name>Basic Motion</name>
													<effectid>basic</effectid>
													<effectcategory>motion</effectcategory>
													<effecttype>motion</effecttype>
													<mediatype>video</mediatype>
													<pproBypass>false</pproBypass>
													<parameter authoringApp="PremierePro">
														<parameterid>scale</parameterid>
														<name>Scale</name>
														<valuemin>0</valuemin>
														<valuemax>1000</valuemax>
														<value>53.3333</value>
													</parameter>
													<parameter authoringApp="PremierePro">
														<parameterid>rotation</parameterid>
														<name>Rotation</name>
														<valuemin>-8640</valuemin>
														<valuemax>8640</valuemax>
														<value>0</value>
													</parameter>
													<parameter authoringApp="PremierePro">
														<parameterid>center</parameterid>
														<name>Center</name>
														<value>
															<horiz>0</horiz>
															<vert>0</vert>
														</value>
													</parameter>
													<parameter authoringApp="PremierePro">
														<parameterid>centerOffset</parameterid>
														<name>Anchor Point</name>
														<value>
															<horiz>0</horiz>
															<vert>0</vert>
														</value>
													</parameter>
													<parameter authoringApp="PremierePro">
														<parameterid>antiflicker</parameterid>
														<name>Anti-flicker Filter</name>
														<valuemin>0.0</valuemin>
														<valuemax>1.0</valuemax>
														<value>0</value>
													</parameter>
												</effect>
											</filter>
											<logginginfo>
												<description></description>
												<scene></scene>
												<shottake></shottake>
												<lognote></lognote>
												<good></good>
												<originalvideofilename></originalvideofilename>
												<originalaudiofilename></originalaudiofilename>
											</logginginfo>
											<colorinfo>
												<lut></lut>
												<lut1></lut1>
												<asc_sop></asc_sop>
												<asc_sat></asc_sat>
												<lut2></lut2>
											</colorinfo>
											<labels>
												<label2>Lavender</label2>
											</labels>
										</clipitem>
										<transitionitem>
											<start>719</start>
											<end>744</end>
											<alignment>end-black</alignment>
											<cutPointTicks>254016000000</cutPointTicks>
											<rate>
												<timebase>25</timebase>
												<ntsc>FALSE</ntsc>
											</rate>
											<effect>
												<name>Edge Wipe</name>
												<effectid>Edge Wipe</effectid>
												<effectcategory>Wipe</effectcategory>
												<effecttype>transition</effecttype>
												<mediatype>video</mediatype>
												<wipecode>2</wipecode>
												<wipeaccuracy>100</wipeaccuracy>
												<startratio>0</startratio>
												<endratio>1</endratio>
												<reverse>FALSE</reverse>
												<parameter authoringApp="PremierePro">
													<parameterid>directionofwipe</parameterid>
													<name>Angle</name>
													<valuemin>-360</valuemin>
													<valuemax>360</valuemax>
													<value>90</value>
												</parameter>
											</effect>
										</transitionitem>
										<transitionitem>
											<start>756</start>
											<end>785</end>
											<alignment>start-black</alignment>
											<cutPointTicks>0</cutPointTicks>
											<rate>
												<timebase>25</timebase>
												<ntsc>FALSE</ntsc>
											</rate>
											<effect>
												<name>Edge Wipe</name>
												<effectid>Edge Wipe</effectid>
												<effectcategory>Wipe</effectcategory>
												<effecttype>transition</effecttype>
												<mediatype>video</mediatype>
												<wipecode>2</wipecode>
												<wipeaccuracy>100</wipeaccuracy>
												<startratio>0</startratio>
												<endratio>1</endratio>
												<reverse>FALSE</reverse>
												<parameter authoringApp="PremierePro">
													<parameterid>directionofwipe</parameterid>
													<name>Angle</name>
													<valuemin>-360</valuemin>
													<valuemax>360</valuemax>
													<value>270</value>
												</parameter>
											</effect>
										</transitionitem>
										<clipitem id="clipitem-1379">
											<masterclipid>masterclip-624</masterclipid>
											<name>4_3.png</name>
											<enabled>TRUE</enabled>
											<duration>1080000</duration>
											<rate>
												<timebase>25</timebase>
												<ntsc>FALSE</ntsc>
											</rate>
											<start>-1</start>
											<end>-1</end>
											<in>90011</in>
											<out>90375</out>
											<pproTicksIn>914569367040000</pproTicksIn>
											<pproTicksOut>918267840000000</pproTicksOut>
											<alphatype>straight</alphatype>
											<pixelaspectratio>square</pixelaspectratio>
											<anamorphic>FALSE</anamorphic>
											<file id="file-515">
												<name>4_3.png</name>
												<pathurl>file://localhost/_MUZ_TV/project_AP/RU/_TITLE/468/PNG/4_3.png</pathurl>
												<rate>
													<timebase>30</timebase>
													<ntsc>TRUE</ntsc>
												</rate>
												<timecode>
													<rate>
														<timebase>30</timebase>
														<ntsc>TRUE</ntsc>
													</rate>
													<string>00;00;00;00</string>
													<frame>0</frame>
													<displayformat>DF</displayformat>
												</timecode>
												<media>
													<video>
														<samplecharacteristics>
															<rate>
																<timebase>30</timebase>
																<ntsc>TRUE</ntsc>
															</rate>
															<width>1920</width>
															<height>1080</height>
															<anamorphic>FALSE</anamorphic>
															<pixelaspectratio>square</pixelaspectratio>
															<fielddominance>none</fielddominance>
														</samplecharacteristics>
													</video>
												</media>
											</file>
											<filter>
												<effect>
													<name>Basic Motion</name>
													<effectid>basic</effectid>
													<effectcategory>motion</effectcategory>
													<effecttype>motion</effecttype>
													<mediatype>video</mediatype>
													<pproBypass>false</pproBypass>
													<parameter authoringApp="PremierePro">
														<parameterid>scale</parameterid>
														<name>Scale</name>
														<valuemin>0</valuemin>
														<valuemax>1000</valuemax>
														<value>53.3333</value>
													</parameter>
													<parameter authoringApp="PremierePro">
														<parameterid>rotation</parameterid>
														<name>Rotation</name>
														<valuemin>-8640</valuemin>
														<valuemax>8640</valuemax>
														<value>0</value>
													</parameter>
													<parameter authoringApp="PremierePro">
														<parameterid>center</parameterid>
														<name>Center</name>
														<value>
															<horiz>0</horiz>
															<vert>0</vert>
														</value>
													</parameter>
													<parameter authoringApp="PremierePro">
														<parameterid>centerOffset</parameterid>
														<name>Anchor Point</name>
														<value>
															<horiz>0</horiz>
															<vert>0</vert>
														</value>
													</parameter>
													<parameter authoringApp="PremierePro">
														<parameterid>antiflicker</parameterid>
														<name>Anti-flicker Filter</name>
														<valuemin>0.0</valuemin>
														<valuemax>1.0</valuemax>
														<value>0</value>
													</parameter>
												</effect>
											</filter>
											<logginginfo>
												<description></description>
												<scene></scene>
												<shottake></shottake>
												<lognote></lognote>
												<good></good>
												<originalvideofilename></originalvideofilename>
												<originalaudiofilename></originalaudiofilename>
											</logginginfo>
											<colorinfo>
												<lut></lut>
												<lut1></lut1>
												<asc_sop></asc_sop>
												<asc_sat></asc_sat>
												<lut2></lut2>
											</colorinfo>
											<labels>
												<label2>Lavender</label2>
											</labels>
										</clipitem>
										<transitionitem>
											<start>1095</start>
											<end>1120</end>
											<alignment>end-black</alignment>
											<cutPointTicks>254016000000</cutPointTicks>
											<rate>
												<timebase>25</timebase>
												<ntsc>FALSE</ntsc>
											</rate>
											<effect>
												<name>Edge Wipe</name>
												<effectid>Edge Wipe</effectid>
												<effectcategory>Wipe</effectcategory>
												<effecttype>transition</effecttype>
												<mediatype>video</mediatype>
												<wipecode>2</wipecode>
												<wipeaccuracy>100</wipeaccuracy>
												<startratio>0</startratio>
												<endratio>1</endratio>
												<reverse>FALSE</reverse>
												<parameter authoringApp="PremierePro">
													<parameterid>directionofwipe</parameterid>
													<name>Angle</name>
													<valuemin>-360</valuemin>
													<valuemax>360</valuemax>
													<value>90</value>
												</parameter>
											</effect>
										</transitionitem>
										<enabled>TRUE</enabled>
										<locked>FALSE</locked>
									</track>
									<track TL.SQTrackShy="0" TL.SQTrackExpandedHeight="25" TL.SQTrackExpanded="0" MZ.TrackTargeted="0">
										<transitionitem>
											<start>755</start>
											<end>780</end>
											<alignment>start-black</alignment>
											<cutPointTicks>0</cutPointTicks>
											<rate>
												<timebase>25</timebase>
												<ntsc>FALSE</ntsc>
											</rate>
											<effect>
												<name>Edge Wipe</name>
												<effectid>Edge Wipe</effectid>
												<effectcategory>Wipe</effectcategory>
												<effecttype>transition</effecttype>
												<mediatype>video</mediatype>
												<wipecode>2</wipecode>
												<wipeaccuracy>100</wipeaccuracy>
												<startratio>0</startratio>
												<endratio>1</endratio>
												<reverse>FALSE</reverse>
												<parameter authoringApp="PremierePro">
													<parameterid>directionofwipe</parameterid>
													<name>Angle</name>
													<valuemin>-360</valuemin>
													<valuemax>360</valuemax>
													<value>270</value>
												</parameter>
											</effect>
										</transitionitem>
										<clipitem id="clipitem-1380">
											<masterclipid>masterclip-625</masterclipid>
											<name>Graphic</name>
											<enabled>FALSE</enabled>
											<duration>1080000</duration>
											<rate>
												<timebase>25</timebase>
												<ntsc>FALSE</ntsc>
											</rate>
											<start>-1</start>
											<end>-1</end>
											<in>89905</in>
											<out>90272</out>
											<pproTicksIn>913492339200000</pproTicksIn>
											<pproTicksOut>917221294080000</pproTicksOut>
											<alphatype>straight</alphatype>
											<pixelaspectratio>PAL-601</pixelaspectratio>
											<anamorphic>TRUE</anamorphic>
											<file id="file-516">
												<name>Graphic</name>
												<mediaSource>GraphicAndType</mediaSource>
												<rate>
													<timebase>30</timebase>
													<ntsc>TRUE</ntsc>
												</rate>
												<timecode>
													<rate>
														<timebase>30</timebase>
														<ntsc>TRUE</ntsc>
													</rate>
													<string>00;00;00;00</string>
													<frame>0</frame>
													<displayformat>DF</displayformat>
												</timecode>
												<media>
													<video>
														<samplecharacteristics>
															<rate>
																<timebase>30</timebase>
																<ntsc>TRUE</ntsc>
															</rate>
															<width>720</width>
															<height>576</height>
															<anamorphic>TRUE</anamorphic>
															<pixelaspectratio>PAL-601</pixelaspectratio>
															<fielddominance>none</fielddominance>
														</samplecharacteristics>
													</video>
												</media>
											</file>
											<filter>
												<effect>
													<name>Vector Motion</name>
													<effectid>GraphicGroup</effectid>
													<effectcategory>graphic</effectcategory>
													<effecttype>filter</effecttype>
													<mediatype>video</mediatype>
													<pproBypass>false</pproBypass>
													<parameter authoringApp="PremierePro">
														<parameterid>1</parameterid>
														<name>Position</name>
														<IsTimeVarying>false</IsTimeVarying>
														<value>-91445760000000000,0.81693898908787344:0.49085601568222115,0,0,0,0,0,0,5,4,0,0,0,0</value>
													</parameter>
													<parameter authoringApp="PremierePro">
														<parameterid>2</parameterid>
														<name>Scale</name>
														<IsTimeVarying>false</IsTimeVarying>
														<ParameterControlType>2</ParameterControlType>
														<LowerBound>0</LowerBound>
														<UpperBound>10000</UpperBound>
														<UpperUIBound>200</UpperUIBound>
														<value>-91445760000000000,100.,0,0,0,0,0,0</value>
													</parameter>
													<parameter authoringApp="PremierePro">
														<parameterid>3</parameterid>
														<name>Scale Width</name>
														<IsTimeVarying>false</IsTimeVarying>
														<ParameterControlType>2</ParameterControlType>
														<LowerBound>0</LowerBound>
														<UpperBound>10000</UpperBound>
														<UpperUIBound>200</UpperUIBound>
														<value>-91445760000000000,100.,0,0,0,0,0,0</value>
													</parameter>
													<parameter authoringApp="PremierePro">
														<parameterid>4</parameterid>
														<name> </name>
														<IsTimeVarying>false</IsTimeVarying>
														<ParameterControlType>4</ParameterControlType>
														<LowerBound>false</LowerBound>
														<UpperBound>true</UpperBound>
														<value>-91445760000000000,true,0,0,0,0,0,0</value>
													</parameter>
													<parameter authoringApp="PremierePro">
														<parameterid>5</parameterid>
														<name>Rotation</name>
														<IsTimeVarying>false</IsTimeVarying>
														<ParameterControlType>3</ParameterControlType>
														<LowerBound>-32768</LowerBound>
														<UpperBound>32767</UpperBound>
														<value>-91445760000000000,0.,0,0,0,0,0,0</value>
													</parameter>
													<parameter authoringApp="PremierePro">
														<parameterid>6</parameterid>
														<name>Anchor Point</name>
														<IsTimeVarying>false</IsTimeVarying>
														<value>-91445760000000000,0.5:0.5,0,0,0,0,0,0,5,4,0,0,0,0</value>
													</parameter>
												</effect>
											</filter>
											<filter>
												<effect>
													<name>Данил Прытков признаётся, &#13;что сильные провалы &#13;мотивируют его на творчество &#13;не меньше, чем победы. </name>
													<effectid>GraphicAndType</effectid>
													<effectcategory>graphic</effectcategory>
													<effecttype>filter</effecttype>
													<mediatype>video</mediatype>
													<pproBypass>false</pproBypass>
													<pproExpanded>true</pproExpanded>
													<parameter authoringApp="PremierePro">
														<parameterid>1</parameterid>
														<name>Source Text</name>
														<hash>698123b5-7d57-7b79-efb1-b0df00000a31</hash>
													</parameter>
													<parameter authoringApp="PremierePro">
														<parameterid>2</parameterid>
														<name>Transform</name>
														<IsTimeVarying>false</IsTimeVarying>
														<ParameterControlType>11</ParameterControlType>
														<LowerBound>false</LowerBound>
														<UpperBound>false</UpperBound>
														<value>-91445760000000000,false,0,0,0,0,0,0</value>
													</parameter>
													<parameter authoringApp="PremierePro">
														<parameterid>3</parameterid>
														<name>Position</name>
														<IsTimeVarying>false</IsTimeVarying>
														<value>-91445760000000000,0.270416259765625:0.640594482421875,0,0,0,0,0,0,5,4,0,0,0,0</value>
													</parameter>
													<parameter authoringApp="PremierePro">
														<parameterid>4</parameterid>
														<name>Scale</name>
														<IsTimeVarying>false</IsTimeVarying>
														<ParameterControlType>2</ParameterControlType>
														<LowerBound>0</LowerBound>
														<UpperBound>4000</UpperBound>
														<value>-91445760000000000,100.,0,0,0,0,0,0</value>
													</parameter>
													<parameter authoringApp="PremierePro">
														<parameterid>5</parameterid>
														<name>Horizontal Scale</name>
														<IsTimeVarying>false</IsTimeVarying>
														<ParameterControlType>2</ParameterControlType>
														<LowerBound>0</LowerBound>
														<UpperBound>4000</UpperBound>
														<value>-91445760000000000,100.,0,0,0,0,0,0</value>
													</parameter>
													<parameter authoringApp="PremierePro">
														<parameterid>6</parameterid>
														<name> </name>
														<IsTimeVarying>false</IsTimeVarying>
														<ParameterControlType>4</ParameterControlType>
														<LowerBound>false</LowerBound>
														<UpperBound>true</UpperBound>
														<value>-91445760000000000,true,0,0,0,0,0,0</value>
													</parameter>
													<parameter authoringApp="PremierePro">
														<parameterid>7</parameterid>
														<name>Rotation</name>
														<IsTimeVarying>false</IsTimeVarying>
														<ParameterControlType>3</ParameterControlType>
														<LowerBound>-32768</LowerBound>
														<UpperBound>32767</UpperBound>
														<value>-91445760000000000,0.,0,0,0,0,0,0</value>
													</parameter>
													<parameter authoringApp="PremierePro">
														<parameterid>8</parameterid>
														<name>Opacity</name>
														<IsTimeVarying>false</IsTimeVarying>
														<ParameterControlType>2</ParameterControlType>
														<LowerBound>0</LowerBound>
														<UpperBound>100</UpperBound>
														<value>-91445760000000000,100.,0,0,0,0,0,0</value>
													</parameter>
													<parameter authoringApp="PremierePro">
														<parameterid>9</parameterid>
														<name>Anchor Point</name>
														<IsTimeVarying>false</IsTimeVarying>
														<value>-91445760000000000,0:0,0,0,0,0,0,0,5,4,0,0,0,0</value>
													</parameter>
													<parameter authoringApp="PremierePro">
														<parameterid>10</parameterid>
														<name></name>
														<IsTimeVarying>false</IsTimeVarying>
														<ParameterControlType>12</ParameterControlType>
														<LowerBound>false</LowerBound>
														<UpperBound>false</UpperBound>
														<value>-91445760000000000,false,0,0,0,0,0,0</value>
													</parameter>
													<parameter authoringApp="PremierePro">
														<parameterid>11</parameterid>
														<name> </name>
														<IsTimeVarying>false</IsTimeVarying>
														<ParameterControlType>8</ParameterControlType>
														<LowerBound>0</LowerBound>
														<UpperBound>32768</UpperBound>
														<value>-91445760000000000,0.,0,0,0,0,0,0</value>
													</parameter>
													<parameter authoringApp="PremierePro">
														<parameterid>12</parameterid>
														<name> </name>
														<IsTimeVarying>false</IsTimeVarying>
														<ParameterControlType>8</ParameterControlType>
														<LowerBound>0</LowerBound>
														<UpperBound>32768</UpperBound>
														<value>-91445760000000000,0.,0,0,0,0,0,0</value>
													</parameter>
													<parameter authoringApp="PremierePro">
														<parameterid>13</parameterid>
														<name>start</name>
														<IsTimeVarying>false</IsTimeVarying>
														<ParameterControlType>8</ParameterControlType>
														<LowerBound>-100</LowerBound>
														<UpperBound>1000000000</UpperBound>
														<value>-91445760000000000,0.,0,0,0,0,0,0</value>
													</parameter>
													<parameter authoringApp="PremierePro">
														<parameterid>14</parameterid>
														<name>end</name>
														<IsTimeVarying>false</IsTimeVarying>
														<ParameterControlType>8</ParameterControlType>
														<LowerBound>-100</LowerBound>
														<UpperBound>1000000000</UpperBound>
														<value>-91445760000000000,101.,0,0,0,0,0,0</value>
													</parameter>
													<parameter authoringApp="PremierePro">
														<parameterid>15</parameterid>
														<name> </name>
														<IsTimeVarying>false</IsTimeVarying>
														<ParameterControlType>4</ParameterControlType>
														<LowerBound>false</LowerBound>
														<UpperBound>true</UpperBound>
														<value>-91445760000000000,false,0,0,0,0,0,0</value>
													</parameter>
													<parameter authoringApp="PremierePro">
														<parameterid>16</parameterid>
														<name> </name>
														<IsTimeVarying>false</IsTimeVarying>
														<ParameterControlType>4</ParameterControlType>
														<LowerBound>false</LowerBound>
														<UpperBound>true</UpperBound>
														<value>-91445760000000000,false,0,0,0,0,0,0</value>
													</parameter>
													<parameter authoringApp="PremierePro">
														<parameterid>17</parameterid>
														<name> </name>
														<IsTimeVarying>false</IsTimeVarying>
														<ParameterControlType>4</ParameterControlType>
														<LowerBound>false</LowerBound>
														<UpperBound>true</UpperBound>
														<value>-91445760000000000,false,0,0,0,0,0,0</value>
													</parameter>
													<parameter authoringApp="PremierePro">
														<parameterid>18</parameterid>
														<name> </name>
														<IsTimeVarying>false</IsTimeVarying>
														<ParameterControlType>4</ParameterControlType>
														<LowerBound>false</LowerBound>
														<UpperBound>true</UpperBound>
														<value>-91445760000000000,false,0,0,0,0,0,0</value>
													</parameter>
													<parameter authoringApp="PremierePro">
														<parameterid>19</parameterid>
														<name>Parent Width</name>
														<IsTimeVarying>false</IsTimeVarying>
														<ParameterControlType>2</ParameterControlType>
														<LowerBound>0</LowerBound>
														<UpperBound>20000</UpperBound>
														<value>-91445760000000000,0.,0,0,0,0,0,0</value>
													</parameter>
													<parameter authoringApp="PremierePro">
														<parameterid>20</parameterid>
														<name>Parent Height</name>
														<IsTimeVarying>false</IsTimeVarying>
														<ParameterControlType>2</ParameterControlType>
														<LowerBound>0</LowerBound>
														<UpperBound>20000</UpperBound>
														<value>-91445760000000000,0.,0,0,0,0,0,0</value>
													</parameter>
													<parameter authoringApp="PremierePro">
														<parameterid>21</parameterid>
														<name>Parent Rotation</name>
														<IsTimeVarying>false</IsTimeVarying>
														<ParameterControlType>3</ParameterControlType>
														<LowerBound>-32768</LowerBound>
														<UpperBound>32767</UpperBound>
														<value>-91445760000000000,0.,0,0,0,0,0,0</value>
													</parameter>
												</effect>
											</filter>
											<logginginfo>
												<description></description>
												<scene></scene>
												<shottake></shottake>
												<lognote></lognote>
												<good></good>
												<originalvideofilename></originalvideofilename>
												<originalaudiofilename></originalaudiofilename>
											</logginginfo>
											<colorinfo>
												<lut></lut>
												<lut1></lut1>
												<asc_sop></asc_sop>
												<asc_sat></asc_sat>
												<lut2></lut2>
											</colorinfo>
										</clipitem>
										<transitionitem>
											<start>1097</start>
											<end>1122</end>
											<alignment>end-black</alignment>
											<cutPointTicks>254016000000</cutPointTicks>
											<rate>
												<timebase>25</timebase>
												<ntsc>FALSE</ntsc>
											</rate>
											<effect>
												<name>Edge Wipe</name>
												<effectid>Edge Wipe</effectid>
												<effectcategory>Wipe</effectcategory>
												<effecttype>transition</effecttype>
												<mediatype>video</mediatype>
												<wipecode>2</wipecode>
												<wipeaccuracy>100</wipeaccuracy>
												<startratio>0</startratio>
												<endratio>1</endratio>
												<reverse>FALSE</reverse>
												<parameter authoringApp="PremierePro">
													<parameterid>directionofwipe</parameterid>
													<name>Angle</name>
													<valuemin>-360</valuemin>
													<valuemax>360</valuemax>
													<value>90</value>
												</parameter>
											</effect>
										</transitionitem>
										<enabled>TRUE</enabled>
										<locked>FALSE</locked>
									</track>
								</video>
								<audio>
									<numOutputChannels>2</numOutputChannels>
									<format>
										<samplecharacteristics>
											<depth>16</depth>
											<samplerate>48000</samplerate>
										</samplecharacteristics>
									</format>
									<outputs>
										<group>
											<index>1</index>
											<numchannels>1</numchannels>
											<downmix>0</downmix>
											<channel>
												<index>1</index>
											</channel>
										</group>
										<group>
											<index>2</index>
											<numchannels>1</numchannels>
											<downmix>0</downmix>
											<channel>
												<index>2</index>
											</channel>
										</group>
									</outputs>
									<track TL.SQTrackAudioKeyframeStyle="0" TL.SQTrackShy="0" TL.SQTrackExpandedHeight="25" TL.SQTrackExpanded="0" MZ.TrackTargeted="1" PannerCurrentValue="0.5" PannerStartKeyframe="-91445760000000000,0.5,0,0,0,0,0,0" PannerName="Balance" currentExplodedTrackIndex="0" totalExplodedTrackCount="2" premiereTrackType="Stereo">
										<enabled>TRUE</enabled>
										<locked>FALSE</locked>
										<outputchannelindex>1</outputchannelindex>
									</track>
									<track TL.SQTrackAudioKeyframeStyle="0" TL.SQTrackShy="0" TL.SQTrackExpandedHeight="25" TL.SQTrackExpanded="0" MZ.TrackTargeted="1" PannerCurrentValue="0.5" PannerStartKeyframe="-91445760000000000,0.5,0,0,0,0,0,0" PannerName="Balance" currentExplodedTrackIndex="1" totalExplodedTrackCount="2" premiereTrackType="Stereo">
										<enabled>TRUE</enabled>
										<locked>FALSE</locked>
										<outputchannelindex>2</outputchannelindex>
									</track>
								</audio>
							</media>
							<timecode>
								<rate>
									<timebase>25</timebase>
									<ntsc>FALSE</ntsc>
								</rate>
								<string>00:00:00:00</string>
								<frame>0</frame>
								<displayformat>NDF</displayformat>
							</timecode>
								<marker>
									<comment></comment>
									<name></name>
									<in>50</in>
									<out>-1</out>
									<pproColor>4292277273</pproColor>
								</marker>
								<marker>
									<comment></comment>
									<name></name>
									<in>800</in>
									<out>-1</out>
									<pproColor>4292277273</pproColor>
								</marker>
								<marker>
									<comment></comment>
									<name></name>
									<in>425</in>
									<out>-1</out>
									<pproColor>4292277273</pproColor>
								</marker>
							<logginginfo>
								<description></description>
								<scene></scene>
								<shottake></shottake>
								<lognote></lognote>
								<good></good>
								<originalvideofilename></originalvideofilename>
								<originalaudiofilename></originalaudiofilename>
							</logginginfo>
						</sequence>
							<marker>
								<comment></comment>
								<name></name>
								<in>50</in>
								<out>-1</out>
								<pproColor>4292277273</pproColor>
							</marker>
							<marker>
								<comment></comment>
								<name></name>
								<in>800</in>
								<out>-1</out>
								<pproColor>4292277273</pproColor>
							</marker>
							<marker>
								<comment></comment>
								<name></name>
								<in>425</in>
								<out>-1</out>
								<pproColor>4292277273</pproColor>
							</marker>
						<labels>
							<label2>Forest</label2>
						</labels>
					</clipitem>
					<clipitem id="clipitem-1381">
						<masterclipid>masterclip-621</masterclipid>
						<name>4</name>
						<enabled>TRUE</enabled>
						<duration>1125</duration>
						<rate>
							<timebase>25</timebase>
							<ntsc>FALSE</ntsc>
						</rate>
						<start>46906</start>
						<end>47281</end>
						<in>375</in>
						<out>750</out>
						<pproTicksIn>3810240000000</pproTicksIn>
						<pproTicksOut>7620480000000</pproTicksOut>
						<sequence id="sequence-116"/>
							<marker>
								<comment></comment>
								<name></name>
								<in>50</in>
								<out>-1</out>
								<pproColor>4292277273</pproColor>
							</marker>
							<marker>
								<comment></comment>
								<name></name>
								<in>800</in>
								<out>-1</out>
								<pproColor>4292277273</pproColor>
							</marker>
							<marker>
								<comment></comment>
								<name></name>
								<in>425</in>
								<out>-1</out>
								<pproColor>4292277273</pproColor>
							</marker>
						<labels>
							<label2>Forest</label2>
						</labels>
					</clipitem>
					<clipitem id="clipitem-1382">
						<masterclipid>masterclip-621</masterclipid>
						<name>4</name>
						<enabled>TRUE</enabled>
						<duration>1125</duration>
						<rate>
							<timebase>25</timebase>
							<ntsc>FALSE</ntsc>
						</rate>
						<start>48115</start>
						<end>48490</end>
						<in>750</in>
						<out>1125</out>
						<pproTicksIn>7620480000000</pproTicksIn>
						<pproTicksOut>11430720000000</pproTicksOut>
						<sequence id="sequence-116"/>
							<marker>
								<comment></comment>
								<name></name>
								<in>50</in>
								<out>-1</out>
								<pproColor>4292277273</pproColor>
							</marker>
							<marker>
								<comment></comment>
								<name></name>
								<in>800</in>
								<out>-1</out>
								<pproColor>4292277273</pproColor>
							</marker>
							<marker>
								<comment></comment>
								<name></name>
								<in>425</in>
								<out>-1</out>
								<pproColor>4292277273</pproColor>
							</marker>
						<labels>
							<label2>Forest</label2>
						</labels>
					</clipitem>
					<clipitem id="clipitem-1383">
						<masterclipid>masterclip-626</masterclipid>
						<name>3</name>
						<enabled>TRUE</enabled>
						<duration>1125</duration>
						<rate>
							<timebase>25</timebase>
							<ntsc>FALSE</ntsc>
						</rate>
						<start>50620</start>
						<end>50995</end>
						<in>0</in>
						<out>375</out>
						<pproTicksIn>0</pproTicksIn>
						<pproTicksOut>3810240000000</pproTicksOut>
						<sequence id="sequence-117" TL.SQAudioVisibleBase="0" TL.SQVideoVisibleBase="0" TL.SQVisibleBaseTime="0" TL.SQAVDividerPosition="0.5" TL.SQHideShyTracks="0" TL.SQHeaderWidth="236" Monitor.ProgramZoomOut="11430720000000" Monitor.ProgramZoomIn="0" TL.SQTimePerPixel="0.19620667102680814" AM.TrackVScrollPosition="0" AM.TrackScrollPosition="0" MZ.EditLine="9469716480000" MZ.Sequence.PreviewFrameSizeHeight="576" MZ.Sequence.PreviewFrameSizeWidth="720" MZ.Sequence.AudioTimeDisplayFormat="200" MZ.Sequence.PreviewRenderingClassID="1061109567" MZ.Sequence.PreviewRenderingPresetCodec="1685480304" MZ.Sequence.PreviewRenderingPresetPath="EncoderPresets/SequencePreview/04be6e19-a018-4e0c-a9d6-0ab44c64752b/QuickTime DV PAL.epr" MZ.Sequence.PreviewUseMaxRenderQuality="false" MZ.Sequence.PreviewUseMaxBitDepth="false" MZ.Sequence.EditingModeGUID="04be6e19-a018-4e0c-a9d6-0ab44c64752b" MZ.Sequence.VideoTimeDisplayFormat="101" MZ.WorkOutPoint="11430720000000" MZ.WorkInPoint="0" MZ.ZeroPoint="0">
							<duration>1125</duration>
							<rate>
								<timebase>25</timebase>
								<ntsc>FALSE</ntsc>
							</rate>
							<name>RU_Nested</name>
							<media>
								<video>
									<format>
										<samplecharacteristics>
											<rate>
												<timebase>25</timebase>
												<ntsc>FALSE</ntsc>
											</rate>
											<codec>
												<name>Apple ProRes 422</name>
												<appspecificdata>
													<appname>Final Cut Pro</appname>
													<appmanufacturer>Apple Inc.</appmanufacturer>
													<appversion>7.0</appversion>
													<data>
														<qtcodec>
															<codecname>Apple ProRes 422</codecname>
															<codectypename>Apple ProRes 422</codectypename>
															<codectypecode>apcn</codectypecode>
															<codecvendorcode>appl</codecvendorcode>
															<spatialquality>1024</spatialquality>
															<temporalquality>0</temporalquality>
															<keyframerate>0</keyframerate>
															<datarate>0</datarate>
														</qtcodec>
													</data>
												</appspecificdata>
											</codec>
											<width>720</width>
											<height>576</height>
											<anamorphic>TRUE</anamorphic>
											<pixelaspectratio>PAL-601</pixelaspectratio>
											<fielddominance>lower</fielddominance>
											<colordepth>24</colordepth>
										</samplecharacteristics>
									</format>
									<track TL.SQTrackShy="0" TL.SQTrackExpandedHeight="25" TL.SQTrackExpanded="0" MZ.TrackTargeted="1">
										<clipitem id="clipitem-1384">
											<masterclipid>masterclip-585</masterclipid>
											<name>Plashka_Right_DV.mov</name>
											<enabled>TRUE</enabled>
											<duration>375</duration>
											<rate>
												<timebase>25</timebase>
												<ntsc>FALSE</ntsc>
											</rate>
											<start>0</start>
											<end>375</end>
											<in>0</in>
											<out>375</out>
											<pproTicksIn>0</pproTicksIn>
											<pproTicksOut>3810240000000</pproTicksOut>
											<alphatype>straight</alphatype>
											<file id="file-484"/>
											<filter>
												<effect>
													<name>Basic Motion</name>
													<effectid>basic</effectid>
													<effectcategory>motion</effectcategory>
													<effecttype>motion</effecttype>
													<mediatype>video</mediatype>
													<pproBypass>false</pproBypass>
													<parameter authoringApp="PremierePro">
														<parameterid>scale</parameterid>
														<name>Scale</name>
														<valuemin>0</valuemin>
														<valuemax>1000</valuemax>
														<value>100</value>
													</parameter>
													<parameter authoringApp="PremierePro">
														<parameterid>rotation</parameterid>
														<name>Rotation</name>
														<valuemin>-8640</valuemin>
														<valuemax>8640</valuemax>
														<value>0</value>
													</parameter>
													<parameter authoringApp="PremierePro">
														<parameterid>center</parameterid>
														<name>Center</name>
														<value>
															<horiz>-5.55112e-17</horiz>
															<vert>-1.11022e-16</vert>
														</value>
													</parameter>
													<parameter authoringApp="PremierePro">
														<parameterid>centerOffset</parameterid>
														<name>Anchor Point</name>
														<value>
															<horiz>0.402314</horiz>
															<vert>0.41875</vert>
														</value>
													</parameter>
													<parameter authoringApp="PremierePro">
														<parameterid>antiflicker</parameterid>
														<name>Anti-flicker Filter</name>
														<valuemin>0.0</valuemin>
														<valuemax>1.0</valuemax>
														<value>0</value>
													</parameter>
												</effect>
											</filter>
											<filter>
												<effect>
													<name>Distort</name>
													<effectid>deformation</effectid>
													<effectcategory>motion</effectcategory>
													<effecttype>motion</effecttype>
													<mediatype>video</mediatype>
													<parameter authoringApp="PremierePro">
														<parameterid>aspect</parameterid>
														<name>Aspect</name>
														<valuemin>-10000</valuemin>
														<valuemax>10000</valuemax>
														<value>6.38298</value>
													</parameter>
												</effect>
											</filter>
											<logginginfo>
												<description></description>
												<scene></scene>
												<shottake></shottake>
												<lognote></lognote>
												<good></good>
												<originalvideofilename></originalvideofilename>
												<originalaudiofilename></originalaudiofilename>
											</logginginfo>
											<colorinfo>
												<lut></lut>
												<lut1></lut1>
												<asc_sop></asc_sop>
												<asc_sat></asc_sat>
												<lut2></lut2>
											</colorinfo>
											<labels>
												<label2>Violet</label2>
											</labels>
										</clipitem>
										<clipitem id="clipitem-1385">
											<masterclipid>masterclip-585</masterclipid>
											<name>Plashka_Right_DV.mov</name>
											<enabled>TRUE</enabled>
											<duration>375</duration>
											<rate>
												<timebase>25</timebase>
												<ntsc>FALSE</ntsc>
											</rate>
											<start>375</start>
											<end>750</end>
											<in>0</in>
											<out>375</out>
											<pproTicksIn>0</pproTicksIn>
											<pproTicksOut>3810240000000</pproTicksOut>
											<alphatype>straight</alphatype>
											<file id="file-484"/>
											<filter>
												<effect>
													<name>Basic Motion</name>
													<effectid>basic</effectid>
													<effectcategory>motion</effectcategory>
													<effecttype>motion</effecttype>
													<mediatype>video</mediatype>
													<pproBypass>false</pproBypass>
													<parameter authoringApp="PremierePro">
														<parameterid>scale</parameterid>
														<name>Scale</name>
														<valuemin>0</valuemin>
														<valuemax>1000</valuemax>
														<value>100</value>
													</parameter>
													<parameter authoringApp="PremierePro">
														<parameterid>rotation</parameterid>
														<name>Rotation</name>
														<valuemin>-8640</valuemin>
														<valuemax>8640</valuemax>
														<value>0</value>
													</parameter>
													<parameter authoringApp="PremierePro">
														<parameterid>center</parameterid>
														<name>Center</name>
														<value>
															<horiz>-5.55112e-17</horiz>
															<vert>-1.11022e-16</vert>
														</value>
													</parameter>
													<parameter authoringApp="PremierePro">
														<parameterid>centerOffset</parameterid>
														<name>Anchor Point</name>
														<value>
															<horiz>0.402314</horiz>
															<vert>0.41875</vert>
														</value>
													</parameter>
													<parameter authoringApp="PremierePro">
														<parameterid>antiflicker</parameterid>
														<name>Anti-flicker Filter</name>
														<valuemin>0.0</valuemin>
														<valuemax>1.0</valuemax>
														<value>0</value>
													</parameter>
												</effect>
											</filter>
											<filter>
												<effect>
													<name>Distort</name>
													<effectid>deformation</effectid>
													<effectcategory>motion</effectcategory>
													<effecttype>motion</effecttype>
													<mediatype>video</mediatype>
													<parameter authoringApp="PremierePro">
														<parameterid>aspect</parameterid>
														<name>Aspect</name>
														<valuemin>-10000</valuemin>
														<valuemax>10000</valuemax>
														<value>7.52688</value>
													</parameter>
												</effect>
											</filter>
											<logginginfo>
												<description></description>
												<scene></scene>
												<shottake></shottake>
												<lognote></lognote>
												<good></good>
												<originalvideofilename></originalvideofilename>
												<originalaudiofilename></originalaudiofilename>
											</logginginfo>
											<colorinfo>
												<lut></lut>
												<lut1></lut1>
												<asc_sop></asc_sop>
												<asc_sat></asc_sat>
												<lut2></lut2>
											</colorinfo>
											<labels>
												<label2>Violet</label2>
											</labels>
										</clipitem>
										<clipitem id="clipitem-1386">
											<masterclipid>masterclip-585</masterclipid>
											<name>Plashka_Right_DV.mov</name>
											<enabled>TRUE</enabled>
											<duration>375</duration>
											<rate>
												<timebase>25</timebase>
												<ntsc>FALSE</ntsc>
											</rate>
											<start>750</start>
											<end>1125</end>
											<in>0</in>
											<out>375</out>
											<pproTicksIn>0</pproTicksIn>
											<pproTicksOut>3810240000000</pproTicksOut>
											<alphatype>straight</alphatype>
											<file id="file-484"/>
											<filter>
												<effect>
													<name>Basic Motion</name>
													<effectid>basic</effectid>
													<effectcategory>motion</effectcategory>
													<effecttype>motion</effecttype>
													<mediatype>video</mediatype>
													<pproBypass>false</pproBypass>
													<parameter authoringApp="PremierePro">
														<parameterid>scale</parameterid>
														<name>Scale</name>
														<valuemin>0</valuemin>
														<valuemax>1000</valuemax>
														<value>100</value>
													</parameter>
													<parameter authoringApp="PremierePro">
														<parameterid>rotation</parameterid>
														<name>Rotation</name>
														<valuemin>-8640</valuemin>
														<valuemax>8640</valuemax>
														<value>0</value>
													</parameter>
													<parameter authoringApp="PremierePro">
														<parameterid>center</parameterid>
														<name>Center</name>
														<value>
															<horiz>-5.55112e-17</horiz>
															<vert>-1.11022e-16</vert>
														</value>
													</parameter>
													<parameter authoringApp="PremierePro">
														<parameterid>centerOffset</parameterid>
														<name>Anchor Point</name>
														<value>
															<horiz>0.402314</horiz>
															<vert>0.41875</vert>
														</value>
													</parameter>
													<parameter authoringApp="PremierePro">
														<parameterid>antiflicker</parameterid>
														<name>Anti-flicker Filter</name>
														<valuemin>0.0</valuemin>
														<valuemax>1.0</valuemax>
														<value>0</value>
													</parameter>
												</effect>
											</filter>
											<filter>
												<effect>
													<name>Distort</name>
													<effectid>deformation</effectid>
													<effectcategory>motion</effectcategory>
													<effecttype>motion</effecttype>
													<mediatype>video</mediatype>
													<parameter authoringApp="PremierePro">
														<parameterid>aspect</parameterid>
														<name>Aspect</name>
														<valuemin>-10000</valuemin>
														<valuemax>10000</valuemax>
														<value>40.8451</value>
													</parameter>
												</effect>
											</filter>
											<logginginfo>
												<description></description>
												<scene></scene>
												<shottake></shottake>
												<lognote></lognote>
												<good></good>
												<originalvideofilename></originalvideofilename>
												<originalaudiofilename></originalaudiofilename>
											</logginginfo>
											<colorinfo>
												<lut></lut>
												<lut1></lut1>
												<asc_sop></asc_sop>
												<asc_sat></asc_sat>
												<lut2></lut2>
											</colorinfo>
											<labels>
												<label2>Violet</label2>
											</labels>
										</clipitem>
										<enabled>TRUE</enabled>
										<locked>FALSE</locked>
									</track>
									<track TL.SQTrackShy="0" TL.SQTrackExpandedHeight="25" TL.SQTrackExpanded="0" MZ.TrackTargeted="0">
										<transitionitem>
											<start>6</start>
											<end>35</end>
											<alignment>start-black</alignment>
											<cutPointTicks>0</cutPointTicks>
											<rate>
												<timebase>25</timebase>
												<ntsc>FALSE</ntsc>
											</rate>
											<effect>
												<name>Edge Wipe</name>
												<effectid>Edge Wipe</effectid>
												<effectcategory>Wipe</effectcategory>
												<effecttype>transition</effecttype>
												<mediatype>video</mediatype>
												<wipecode>2</wipecode>
												<wipeaccuracy>100</wipeaccuracy>
												<startratio>0</startratio>
												<endratio>1</endratio>
												<reverse>FALSE</reverse>
												<parameter authoringApp="PremierePro">
													<parameterid>directionofwipe</parameterid>
													<name>Angle</name>
													<valuemin>-360</valuemin>
													<valuemax>360</valuemax>
													<value>270</value>
												</parameter>
											</effect>
										</transitionitem>
										<clipitem id="clipitem-1387">
											<masterclipid>masterclip-627</masterclipid>
											<name>3_1.png</name>
											<enabled>TRUE</enabled>
											<duration>1080000</duration>
											<rate>
												<timebase>25</timebase>
												<ntsc>FALSE</ntsc>
											</rate>
											<start>-1</start>
											<end>-1</end>
											<in>90006</in>
											<out>90369</out>
											<pproTicksIn>914518563840000</pproTicksIn>
											<pproTicksOut>918206876160000</pproTicksOut>
											<alphatype>straight</alphatype>
											<pixelaspectratio>square</pixelaspectratio>
											<anamorphic>FALSE</anamorphic>
											<file id="file-517">
												<name>3_1.png</name>
												<pathurl>file://localhost/_MUZ_TV/project_AP/RU/_TITLE/468/PNG/3_1.png</pathurl>
												<rate>
													<timebase>30</timebase>
													<ntsc>TRUE</ntsc>
												</rate>
												<timecode>
													<rate>
														<timebase>30</timebase>
														<ntsc>TRUE</ntsc>
													</rate>
													<string>00;00;00;00</string>
													<frame>0</frame>
													<displayformat>DF</displayformat>
												</timecode>
												<media>
													<video>
														<samplecharacteristics>
															<rate>
																<timebase>30</timebase>
																<ntsc>TRUE</ntsc>
															</rate>
															<width>1920</width>
															<height>1080</height>
															<anamorphic>FALSE</anamorphic>
															<pixelaspectratio>square</pixelaspectratio>
															<fielddominance>none</fielddominance>
														</samplecharacteristics>
													</video>
												</media>
											</file>
											<filter>
												<effect>
													<name>Basic Motion</name>
													<effectid>basic</effectid>
													<effectcategory>motion</effectcategory>
													<effecttype>motion</effecttype>
													<mediatype>video</mediatype>
													<pproBypass>false</pproBypass>
													<parameter authoringApp="PremierePro">
														<parameterid>scale</parameterid>
														<name>Scale</name>
														<valuemin>0</valuemin>
														<valuemax>1000</valuemax>
														<value>53.3333</value>
													</parameter>
													<parameter authoringApp="PremierePro">
														<parameterid>rotation</parameterid>
														<name>Rotation</name>
														<valuemin>-8640</valuemin>
														<valuemax>8640</valuemax>
														<value>0</value>
													</parameter>
													<parameter authoringApp="PremierePro">
														<parameterid>center</parameterid>
														<name>Center</name>
														<value>
															<horiz>0</horiz>
															<vert>0</vert>
														</value>
													</parameter>
													<parameter authoringApp="PremierePro">
														<parameterid>centerOffset</parameterid>
														<name>Anchor Point</name>
														<value>
															<horiz>0</horiz>
															<vert>0</vert>
														</value>
													</parameter>
													<parameter authoringApp="PremierePro">
														<parameterid>antiflicker</parameterid>
														<name>Anti-flicker Filter</name>
														<valuemin>0.0</valuemin>
														<valuemax>1.0</valuemax>
														<value>0</value>
													</parameter>
												</effect>
											</filter>
											<logginginfo>
												<description></description>
												<scene></scene>
												<shottake></shottake>
												<lognote></lognote>
												<good></good>
												<originalvideofilename></originalvideofilename>
												<originalaudiofilename></originalaudiofilename>
											</logginginfo>
											<colorinfo>
												<lut></lut>
												<lut1></lut1>
												<asc_sop></asc_sop>
												<asc_sat></asc_sat>
												<lut2></lut2>
											</colorinfo>
											<labels>
												<label2>Lavender</label2>
											</labels>
										</clipitem>
										<transitionitem>
											<start>344</start>
											<end>369</end>
											<alignment>end-black</alignment>
											<cutPointTicks>254016000000</cutPointTicks>
											<rate>
												<timebase>25</timebase>
												<ntsc>FALSE</ntsc>
											</rate>
											<effect>
												<name>Edge Wipe</name>
												<effectid>Edge Wipe</effectid>
												<effectcategory>Wipe</effectcategory>
												<effecttype>transition</effecttype>
												<mediatype>video</mediatype>
												<wipecode>2</wipecode>
												<wipeaccuracy>100</wipeaccuracy>
												<startratio>0</startratio>
												<endratio>1</endratio>
												<reverse>FALSE</reverse>
												<parameter authoringApp="PremierePro">
													<parameterid>directionofwipe</parameterid>
													<name>Angle</name>
													<valuemin>-360</valuemin>
													<valuemax>360</valuemax>
													<value>90</value>
												</parameter>
											</effect>
										</transitionitem>
										<transitionitem>
											<start>381</start>
											<end>410</end>
											<alignment>start-black</alignment>
											<cutPointTicks>0</cutPointTicks>
											<rate>
												<timebase>25</timebase>
												<ntsc>FALSE</ntsc>
											</rate>
											<effect>
												<name>Edge Wipe</name>
												<effectid>Edge Wipe</effectid>
												<effectcategory>Wipe</effectcategory>
												<effecttype>transition</effecttype>
												<mediatype>video</mediatype>
												<wipecode>2</wipecode>
												<wipeaccuracy>100</wipeaccuracy>
												<startratio>0</startratio>
												<endratio>1</endratio>
												<reverse>FALSE</reverse>
												<parameter authoringApp="PremierePro">
													<parameterid>directionofwipe</parameterid>
													<name>Angle</name>
													<valuemin>-360</valuemin>
													<valuemax>360</valuemax>
													<value>270</value>
												</parameter>
											</effect>
										</transitionitem>
										<clipitem id="clipitem-1388">
											<masterclipid>masterclip-628</masterclipid>
											<name>3_2.png</name>
											<enabled>TRUE</enabled>
											<duration>1080000</duration>
											<rate>
												<timebase>25</timebase>
												<ntsc>FALSE</ntsc>
											</rate>
											<start>-1</start>
											<end>-1</end>
											<in>90011</in>
											<out>90374</out>
											<pproTicksIn>914569367040000</pproTicksIn>
											<pproTicksOut>918257679360000</pproTicksOut>
											<alphatype>straight</alphatype>
											<pixelaspectratio>square</pixelaspectratio>
											<anamorphic>FALSE</anamorphic>
											<file id="file-518">
												<name>3_2.png</name>
												<pathurl>file://localhost/_MUZ_TV/project_AP/RU/_TITLE/468/PNG/3_2.png</pathurl>
												<rate>
													<timebase>30</timebase>
													<ntsc>TRUE</ntsc>
												</rate>
												<timecode>
													<rate>
														<timebase>30</timebase>
														<ntsc>TRUE</ntsc>
													</rate>
													<string>00;00;00;00</string>
													<frame>0</frame>
													<displayformat>DF</displayformat>
												</timecode>
												<media>
													<video>
														<samplecharacteristics>
															<rate>
																<timebase>30</timebase>
																<ntsc>TRUE</ntsc>
															</rate>
															<width>1920</width>
															<height>1080</height>
															<anamorphic>FALSE</anamorphic>
															<pixelaspectratio>square</pixelaspectratio>
															<fielddominance>none</fielddominance>
														</samplecharacteristics>
													</video>
												</media>
											</file>
											<filter>
												<effect>
													<name>Basic Motion</name>
													<effectid>basic</effectid>
													<effectcategory>motion</effectcategory>
													<effecttype>motion</effecttype>
													<mediatype>video</mediatype>
													<pproBypass>false</pproBypass>
													<parameter authoringApp="PremierePro">
														<parameterid>scale</parameterid>
														<name>Scale</name>
														<valuemin>0</valuemin>
														<valuemax>1000</valuemax>
														<value>53.3333</value>
													</parameter>
													<parameter authoringApp="PremierePro">
														<parameterid>rotation</parameterid>
														<name>Rotation</name>
														<valuemin>-8640</valuemin>
														<valuemax>8640</valuemax>
														<value>0</value>
													</parameter>
													<parameter authoringApp="PremierePro">
														<parameterid>center</parameterid>
														<name>Center</name>
														<value>
															<horiz>0</horiz>
															<vert>0</vert>
														</value>
													</parameter>
													<parameter authoringApp="PremierePro">
														<parameterid>centerOffset</parameterid>
														<name>Anchor Point</name>
														<value>
															<horiz>0</horiz>
															<vert>0</vert>
														</value>
													</parameter>
													<parameter authoringApp="PremierePro">
														<parameterid>antiflicker</parameterid>
														<name>Anti-flicker Filter</name>
														<valuemin>0.0</valuemin>
														<valuemax>1.0</valuemax>
														<value>0</value>
													</parameter>
												</effect>
											</filter>
											<logginginfo>
												<description></description>
												<scene></scene>
												<shottake></shottake>
												<lognote></lognote>
												<good></good>
												<originalvideofilename></originalvideofilename>
												<originalaudiofilename></originalaudiofilename>
											</logginginfo>
											<colorinfo>
												<lut></lut>
												<lut1></lut1>
												<asc_sop></asc_sop>
												<asc_sat></asc_sat>
												<lut2></lut2>
											</colorinfo>
											<labels>
												<label2>Lavender</label2>
											</labels>
										</clipitem>
										<transitionitem>
											<start>719</start>
											<end>744</end>
											<alignment>end-black</alignment>
											<cutPointTicks>254016000000</cutPointTicks>
											<rate>
												<timebase>25</timebase>
												<ntsc>FALSE</ntsc>
											</rate>
											<effect>
												<name>Edge Wipe</name>
												<effectid>Edge Wipe</effectid>
												<effectcategory>Wipe</effectcategory>
												<effecttype>transition</effecttype>
												<mediatype>video</mediatype>
												<wipecode>2</wipecode>
												<wipeaccuracy>100</wipeaccuracy>
												<startratio>0</startratio>
												<endratio>1</endratio>
												<reverse>FALSE</reverse>
												<parameter authoringApp="PremierePro">
													<parameterid>directionofwipe</parameterid>
													<name>Angle</name>
													<valuemin>-360</valuemin>
													<valuemax>360</valuemax>
													<value>90</value>
												</parameter>
											</effect>
										</transitionitem>
										<transitionitem>
											<start>756</start>
											<end>785</end>
											<alignment>start-black</alignment>
											<cutPointTicks>0</cutPointTicks>
											<rate>
												<timebase>25</timebase>
												<ntsc>FALSE</ntsc>
											</rate>
											<effect>
												<name>Edge Wipe</name>
												<effectid>Edge Wipe</effectid>
												<effectcategory>Wipe</effectcategory>
												<effecttype>transition</effecttype>
												<mediatype>video</mediatype>
												<wipecode>2</wipecode>
												<wipeaccuracy>100</wipeaccuracy>
												<startratio>0</startratio>
												<endratio>1</endratio>
												<reverse>FALSE</reverse>
												<parameter authoringApp="PremierePro">
													<parameterid>directionofwipe</parameterid>
													<name>Angle</name>
													<valuemin>-360</valuemin>
													<valuemax>360</valuemax>
													<value>270</value>
												</parameter>
											</effect>
										</transitionitem>
										<clipitem id="clipitem-1389">
											<masterclipid>masterclip-629</masterclipid>
											<name>3_3.png</name>
											<enabled>TRUE</enabled>
											<duration>1080000</duration>
											<rate>
												<timebase>25</timebase>
												<ntsc>FALSE</ntsc>
											</rate>
											<start>-1</start>
											<end>-1</end>
											<in>90011</in>
											<out>90375</out>
											<pproTicksIn>914569367040000</pproTicksIn>
											<pproTicksOut>918267840000000</pproTicksOut>
											<alphatype>straight</alphatype>
											<pixelaspectratio>square</pixelaspectratio>
											<anamorphic>FALSE</anamorphic>
											<file id="file-519">
												<name>3_3.png</name>
												<pathurl>file://localhost/_MUZ_TV/project_AP/RU/_TITLE/468/PNG/3_3.png</pathurl>
												<rate>
													<timebase>30</timebase>
													<ntsc>TRUE</ntsc>
												</rate>
												<timecode>
													<rate>
														<timebase>30</timebase>
														<ntsc>TRUE</ntsc>
													</rate>
													<string>00;00;00;00</string>
													<frame>0</frame>
													<displayformat>DF</displayformat>
												</timecode>
												<media>
													<video>
														<samplecharacteristics>
															<rate>
																<timebase>30</timebase>
																<ntsc>TRUE</ntsc>
															</rate>
															<width>1920</width>
															<height>1080</height>
															<anamorphic>FALSE</anamorphic>
															<pixelaspectratio>square</pixelaspectratio>
															<fielddominance>none</fielddominance>
														</samplecharacteristics>
													</video>
												</media>
											</file>
											<filter>
												<effect>
													<name>Basic Motion</name>
													<effectid>basic</effectid>
													<effectcategory>motion</effectcategory>
													<effecttype>motion</effecttype>
													<mediatype>video</mediatype>
													<pproBypass>false</pproBypass>
													<parameter authoringApp="PremierePro">
														<parameterid>scale</parameterid>
														<name>Scale</name>
														<valuemin>0</valuemin>
														<valuemax>1000</valuemax>
														<value>53.3333</value>
													</parameter>
													<parameter authoringApp="PremierePro">
														<parameterid>rotation</parameterid>
														<name>Rotation</name>
														<valuemin>-8640</valuemin>
														<valuemax>8640</valuemax>
														<value>0</value>
													</parameter>
													<parameter authoringApp="PremierePro">
														<parameterid>center</parameterid>
														<name>Center</name>
														<value>
															<horiz>0</horiz>
															<vert>0</vert>
														</value>
													</parameter>
													<parameter authoringApp="PremierePro">
														<parameterid>centerOffset</parameterid>
														<name>Anchor Point</name>
														<value>
															<horiz>0</horiz>
															<vert>0</vert>
														</value>
													</parameter>
													<parameter authoringApp="PremierePro">
														<parameterid>antiflicker</parameterid>
														<name>Anti-flicker Filter</name>
														<valuemin>0.0</valuemin>
														<valuemax>1.0</valuemax>
														<value>0</value>
													</parameter>
												</effect>
											</filter>
											<logginginfo>
												<description></description>
												<scene></scene>
												<shottake></shottake>
												<lognote></lognote>
												<good></good>
												<originalvideofilename></originalvideofilename>
												<originalaudiofilename></originalaudiofilename>
											</logginginfo>
											<colorinfo>
												<lut></lut>
												<lut1></lut1>
												<asc_sop></asc_sop>
												<asc_sat></asc_sat>
												<lut2></lut2>
											</colorinfo>
											<labels>
												<label2>Lavender</label2>
											</labels>
										</clipitem>
										<transitionitem>
											<start>1095</start>
											<end>1120</end>
											<alignment>end-black</alignment>
											<cutPointTicks>254016000000</cutPointTicks>
											<rate>
												<timebase>25</timebase>
												<ntsc>FALSE</ntsc>
											</rate>
											<effect>
												<name>Edge Wipe</name>
												<effectid>Edge Wipe</effectid>
												<effectcategory>Wipe</effectcategory>
												<effecttype>transition</effecttype>
												<mediatype>video</mediatype>
												<wipecode>2</wipecode>
												<wipeaccuracy>100</wipeaccuracy>
												<startratio>0</startratio>
												<endratio>1</endratio>
												<reverse>FALSE</reverse>
												<parameter authoringApp="PremierePro">
													<parameterid>directionofwipe</parameterid>
													<name>Angle</name>
													<valuemin>-360</valuemin>
													<valuemax>360</valuemax>
													<value>90</value>
												</parameter>
											</effect>
										</transitionitem>
										<enabled>TRUE</enabled>
										<locked>FALSE</locked>
									</track>
									<track TL.SQTrackShy="0" TL.SQTrackExpandedHeight="25" TL.SQTrackExpanded="0" MZ.TrackTargeted="0">
										<transitionitem>
											<start>755</start>
											<end>780</end>
											<alignment>start-black</alignment>
											<cutPointTicks>0</cutPointTicks>
											<rate>
												<timebase>25</timebase>
												<ntsc>FALSE</ntsc>
											</rate>
											<effect>
												<name>Edge Wipe</name>
												<effectid>Edge Wipe</effectid>
												<effectcategory>Wipe</effectcategory>
												<effecttype>transition</effecttype>
												<mediatype>video</mediatype>
												<wipecode>2</wipecode>
												<wipeaccuracy>100</wipeaccuracy>
												<startratio>0</startratio>
												<endratio>1</endratio>
												<reverse>FALSE</reverse>
												<parameter authoringApp="PremierePro">
													<parameterid>directionofwipe</parameterid>
													<name>Angle</name>
													<valuemin>-360</valuemin>
													<valuemax>360</valuemax>
													<value>270</value>
												</parameter>
											</effect>
										</transitionitem>
										<clipitem id="clipitem-1390">
											<masterclipid>masterclip-630</masterclipid>
											<name>Graphic</name>
											<enabled>FALSE</enabled>
											<duration>1080000</duration>
											<rate>
												<timebase>25</timebase>
												<ntsc>FALSE</ntsc>
											</rate>
											<start>-1</start>
											<end>-1</end>
											<in>89905</in>
											<out>90272</out>
											<pproTicksIn>913492339200000</pproTicksIn>
											<pproTicksOut>917221294080000</pproTicksOut>
											<alphatype>straight</alphatype>
											<pixelaspectratio>PAL-601</pixelaspectratio>
											<anamorphic>TRUE</anamorphic>
											<file id="file-520">
												<name>Graphic</name>
												<mediaSource>GraphicAndType</mediaSource>
												<rate>
													<timebase>30</timebase>
													<ntsc>TRUE</ntsc>
												</rate>
												<timecode>
													<rate>
														<timebase>30</timebase>
														<ntsc>TRUE</ntsc>
													</rate>
													<string>00;00;00;00</string>
													<frame>0</frame>
													<displayformat>DF</displayformat>
												</timecode>
												<media>
													<video>
														<samplecharacteristics>
															<rate>
																<timebase>30</timebase>
																<ntsc>TRUE</ntsc>
															</rate>
															<width>720</width>
															<height>576</height>
															<anamorphic>TRUE</anamorphic>
															<pixelaspectratio>PAL-601</pixelaspectratio>
															<fielddominance>none</fielddominance>
														</samplecharacteristics>
													</video>
												</media>
											</file>
											<filter>
												<effect>
													<name>Vector Motion</name>
													<effectid>GraphicGroup</effectid>
													<effectcategory>graphic</effectcategory>
													<effecttype>filter</effecttype>
													<mediatype>video</mediatype>
													<pproBypass>false</pproBypass>
													<parameter authoringApp="PremierePro">
														<parameterid>1</parameterid>
														<name>Position</name>
														<IsTimeVarying>false</IsTimeVarying>
														<value>-91445760000000000,0.81693898908787344:0.49085601568222115,0,0,0,0,0,0,5,4,0,0,0,0</value>
													</parameter>
													<parameter authoringApp="PremierePro">
														<parameterid>2</parameterid>
														<name>Scale</name>
														<IsTimeVarying>false</IsTimeVarying>
														<ParameterControlType>2</ParameterControlType>
														<LowerBound>0</LowerBound>
														<UpperBound>10000</UpperBound>
														<UpperUIBound>200</UpperUIBound>
														<value>-91445760000000000,100.,0,0,0,0,0,0</value>
													</parameter>
													<parameter authoringApp="PremierePro">
														<parameterid>3</parameterid>
														<name>Scale Width</name>
														<IsTimeVarying>false</IsTimeVarying>
														<ParameterControlType>2</ParameterControlType>
														<LowerBound>0</LowerBound>
														<UpperBound>10000</UpperBound>
														<UpperUIBound>200</UpperUIBound>
														<value>-91445760000000000,100.,0,0,0,0,0,0</value>
													</parameter>
													<parameter authoringApp="PremierePro">
														<parameterid>4</parameterid>
														<name> </name>
														<IsTimeVarying>false</IsTimeVarying>
														<ParameterControlType>4</ParameterControlType>
														<LowerBound>false</LowerBound>
														<UpperBound>true</UpperBound>
														<value>-91445760000000000,true,0,0,0,0,0,0</value>
													</parameter>
													<parameter authoringApp="PremierePro">
														<parameterid>5</parameterid>
														<name>Rotation</name>
														<IsTimeVarying>false</IsTimeVarying>
														<ParameterControlType>3</ParameterControlType>
														<LowerBound>-32768</LowerBound>
														<UpperBound>32767</UpperBound>
														<value>-91445760000000000,0.,0,0,0,0,0,0</value>
													</parameter>
													<parameter authoringApp="PremierePro">
														<parameterid>6</parameterid>
														<name>Anchor Point</name>
														<IsTimeVarying>false</IsTimeVarying>
														<value>-91445760000000000,0.5:0.5,0,0,0,0,0,0,5,4,0,0,0,0</value>
													</parameter>
												</effect>
											</filter>
											<filter>
												<effect>
													<name>Данил Прытков признаётся, &#13;что сильные провалы &#13;мотивируют его на творчество &#13;не меньше, чем победы. </name>
													<effectid>GraphicAndType</effectid>
													<effectcategory>graphic</effectcategory>
													<effecttype>filter</effecttype>
													<mediatype>video</mediatype>
													<pproBypass>false</pproBypass>
													<pproExpanded>true</pproExpanded>
													<parameter authoringApp="PremierePro">
														<parameterid>1</parameterid>
														<name>Source Text</name>
														<hash>698123b5-7d57-7b79-efb1-b0df00000a31</hash>
													</parameter>
													<parameter authoringApp="PremierePro">
														<parameterid>2</parameterid>
														<name>Transform</name>
														<IsTimeVarying>false</IsTimeVarying>
														<ParameterControlType>11</ParameterControlType>
														<LowerBound>false</LowerBound>
														<UpperBound>false</UpperBound>
														<value>-91445760000000000,false,0,0,0,0,0,0</value>
													</parameter>
													<parameter authoringApp="PremierePro">
														<parameterid>3</parameterid>
														<name>Position</name>
														<IsTimeVarying>false</IsTimeVarying>
														<value>-91445760000000000,0.270416259765625:0.640594482421875,0,0,0,0,0,0,5,4,0,0,0,0</value>
													</parameter>
													<parameter authoringApp="PremierePro">
														<parameterid>4</parameterid>
														<name>Scale</name>
														<IsTimeVarying>false</IsTimeVarying>
														<ParameterControlType>2</ParameterControlType>
														<LowerBound>0</LowerBound>
														<UpperBound>4000</UpperBound>
														<value>-91445760000000000,100.,0,0,0,0,0,0</value>
													</parameter>
													<parameter authoringApp="PremierePro">
														<parameterid>5</parameterid>
														<name>Horizontal Scale</name>
														<IsTimeVarying>false</IsTimeVarying>
														<ParameterControlType>2</ParameterControlType>
														<LowerBound>0</LowerBound>
														<UpperBound>4000</UpperBound>
														<value>-91445760000000000,100.,0,0,0,0,0,0</value>
													</parameter>
													<parameter authoringApp="PremierePro">
														<parameterid>6</parameterid>
														<name> </name>
														<IsTimeVarying>false</IsTimeVarying>
														<ParameterControlType>4</ParameterControlType>
														<LowerBound>false</LowerBound>
														<UpperBound>true</UpperBound>
														<value>-91445760000000000,true,0,0,0,0,0,0</value>
													</parameter>
													<parameter authoringApp="PremierePro">
														<parameterid>7</parameterid>
														<name>Rotation</name>
														<IsTimeVarying>false</IsTimeVarying>
														<ParameterControlType>3</ParameterControlType>
														<LowerBound>-32768</LowerBound>
														<UpperBound>32767</UpperBound>
														<value>-91445760000000000,0.,0,0,0,0,0,0</value>
													</parameter>
													<parameter authoringApp="PremierePro">
														<parameterid>8</parameterid>
														<name>Opacity</name>
														<IsTimeVarying>false</IsTimeVarying>
														<ParameterControlType>2</ParameterControlType>
														<LowerBound>0</LowerBound>
														<UpperBound>100</UpperBound>
														<value>-91445760000000000,100.,0,0,0,0,0,0</value>
													</parameter>
													<parameter authoringApp="PremierePro">
														<parameterid>9</parameterid>
														<name>Anchor Point</name>
														<IsTimeVarying>false</IsTimeVarying>
														<value>-91445760000000000,0:0,0,0,0,0,0,0,5,4,0,0,0,0</value>
													</parameter>
													<parameter authoringApp="PremierePro">
														<parameterid>10</parameterid>
														<name></name>
														<IsTimeVarying>false</IsTimeVarying>
														<ParameterControlType>12</ParameterControlType>
														<LowerBound>false</LowerBound>
														<UpperBound>false</UpperBound>
														<value>-91445760000000000,false,0,0,0,0,0,0</value>
													</parameter>
													<parameter authoringApp="PremierePro">
														<parameterid>11</parameterid>
														<name> </name>
														<IsTimeVarying>false</IsTimeVarying>
														<ParameterControlType>8</ParameterControlType>
														<LowerBound>0</LowerBound>
														<UpperBound>32768</UpperBound>
														<value>-91445760000000000,0.,0,0,0,0,0,0</value>
													</parameter>
													<parameter authoringApp="PremierePro">
														<parameterid>12</parameterid>
														<name> </name>
														<IsTimeVarying>false</IsTimeVarying>
														<ParameterControlType>8</ParameterControlType>
														<LowerBound>0</LowerBound>
														<UpperBound>32768</UpperBound>
														<value>-91445760000000000,0.,0,0,0,0,0,0</value>
													</parameter>
													<parameter authoringApp="PremierePro">
														<parameterid>13</parameterid>
														<name>start</name>
														<IsTimeVarying>false</IsTimeVarying>
														<ParameterControlType>8</ParameterControlType>
														<LowerBound>-100</LowerBound>
														<UpperBound>1000000000</UpperBound>
														<value>-91445760000000000,0.,0,0,0,0,0,0</value>
													</parameter>
													<parameter authoringApp="PremierePro">
														<parameterid>14</parameterid>
														<name>end</name>
														<IsTimeVarying>false</IsTimeVarying>
														<ParameterControlType>8</ParameterControlType>
														<LowerBound>-100</LowerBound>
														<UpperBound>1000000000</UpperBound>
														<value>-91445760000000000,101.,0,0,0,0,0,0</value>
													</parameter>
													<parameter authoringApp="PremierePro">
														<parameterid>15</parameterid>
														<name> </name>
														<IsTimeVarying>false</IsTimeVarying>
														<ParameterControlType>4</ParameterControlType>
														<LowerBound>false</LowerBound>
														<UpperBound>true</UpperBound>
														<value>-91445760000000000,false,0,0,0,0,0,0</value>
													</parameter>
													<parameter authoringApp="PremierePro">
														<parameterid>16</parameterid>
														<name> </name>
														<IsTimeVarying>false</IsTimeVarying>
														<ParameterControlType>4</ParameterControlType>
														<LowerBound>false</LowerBound>
														<UpperBound>true</UpperBound>
														<value>-91445760000000000,false,0,0,0,0,0,0</value>
													</parameter>
													<parameter authoringApp="PremierePro">
														<parameterid>17</parameterid>
														<name> </name>
														<IsTimeVarying>false</IsTimeVarying>
														<ParameterControlType>4</ParameterControlType>
														<LowerBound>false</LowerBound>
														<UpperBound>true</UpperBound>
														<value>-91445760000000000,false,0,0,0,0,0,0</value>
													</parameter>
													<parameter authoringApp="PremierePro">
														<parameterid>18</parameterid>
														<name> </name>
														<IsTimeVarying>false</IsTimeVarying>
														<ParameterControlType>4</ParameterControlType>
														<LowerBound>false</LowerBound>
														<UpperBound>true</UpperBound>
														<value>-91445760000000000,false,0,0,0,0,0,0</value>
													</parameter>
													<parameter authoringApp="PremierePro">
														<parameterid>19</parameterid>
														<name>Parent Width</name>
														<IsTimeVarying>false</IsTimeVarying>
														<ParameterControlType>2</ParameterControlType>
														<LowerBound>0</LowerBound>
														<UpperBound>20000</UpperBound>
														<value>-91445760000000000,0.,0,0,0,0,0,0</value>
													</parameter>
													<parameter authoringApp="PremierePro">
														<parameterid>20</parameterid>
														<name>Parent Height</name>
														<IsTimeVarying>false</IsTimeVarying>
														<ParameterControlType>2</ParameterControlType>
														<LowerBound>0</LowerBound>
														<UpperBound>20000</UpperBound>
														<value>-91445760000000000,0.,0,0,0,0,0,0</value>
													</parameter>
													<parameter authoringApp="PremierePro">
														<parameterid>21</parameterid>
														<name>Parent Rotation</name>
														<IsTimeVarying>false</IsTimeVarying>
														<ParameterControlType>3</ParameterControlType>
														<LowerBound>-32768</LowerBound>
														<UpperBound>32767</UpperBound>
														<value>-91445760000000000,0.,0,0,0,0,0,0</value>
													</parameter>
												</effect>
											</filter>
											<logginginfo>
												<description></description>
												<scene></scene>
												<shottake></shottake>
												<lognote></lognote>
												<good></good>
												<originalvideofilename></originalvideofilename>
												<originalaudiofilename></originalaudiofilename>
											</logginginfo>
											<colorinfo>
												<lut></lut>
												<lut1></lut1>
												<asc_sop></asc_sop>
												<asc_sat></asc_sat>
												<lut2></lut2>
											</colorinfo>
										</clipitem>
										<transitionitem>
											<start>1097</start>
											<end>1122</end>
											<alignment>end-black</alignment>
											<cutPointTicks>254016000000</cutPointTicks>
											<rate>
												<timebase>25</timebase>
												<ntsc>FALSE</ntsc>
											</rate>
											<effect>
												<name>Edge Wipe</name>
												<effectid>Edge Wipe</effectid>
												<effectcategory>Wipe</effectcategory>
												<effecttype>transition</effecttype>
												<mediatype>video</mediatype>
												<wipecode>2</wipecode>
												<wipeaccuracy>100</wipeaccuracy>
												<startratio>0</startratio>
												<endratio>1</endratio>
												<reverse>FALSE</reverse>
												<parameter authoringApp="PremierePro">
													<parameterid>directionofwipe</parameterid>
													<name>Angle</name>
													<valuemin>-360</valuemin>
													<valuemax>360</valuemax>
													<value>90</value>
												</parameter>
											</effect>
										</transitionitem>
										<enabled>TRUE</enabled>
										<locked>FALSE</locked>
									</track>
								</video>
								<audio>
									<numOutputChannels>2</numOutputChannels>
									<format>
										<samplecharacteristics>
											<depth>16</depth>
											<samplerate>48000</samplerate>
										</samplecharacteristics>
									</format>
									<outputs>
										<group>
											<index>1</index>
											<numchannels>1</numchannels>
											<downmix>0</downmix>
											<channel>
												<index>1</index>
											</channel>
										</group>
										<group>
											<index>2</index>
											<numchannels>1</numchannels>
											<downmix>0</downmix>
											<channel>
												<index>2</index>
											</channel>
										</group>
									</outputs>
									<track TL.SQTrackAudioKeyframeStyle="0" TL.SQTrackShy="0" TL.SQTrackExpandedHeight="25" TL.SQTrackExpanded="0" MZ.TrackTargeted="1" PannerCurrentValue="0.5" PannerStartKeyframe="-91445760000000000,0.5,0,0,0,0,0,0" PannerName="Balance" currentExplodedTrackIndex="0" totalExplodedTrackCount="2" premiereTrackType="Stereo">
										<enabled>TRUE</enabled>
										<locked>FALSE</locked>
										<outputchannelindex>1</outputchannelindex>
									</track>
									<track TL.SQTrackAudioKeyframeStyle="0" TL.SQTrackShy="0" TL.SQTrackExpandedHeight="25" TL.SQTrackExpanded="0" MZ.TrackTargeted="1" PannerCurrentValue="0.5" PannerStartKeyframe="-91445760000000000,0.5,0,0,0,0,0,0" PannerName="Balance" currentExplodedTrackIndex="1" totalExplodedTrackCount="2" premiereTrackType="Stereo">
										<enabled>TRUE</enabled>
										<locked>FALSE</locked>
										<outputchannelindex>2</outputchannelindex>
									</track>
								</audio>
							</media>
							<timecode>
								<rate>
									<timebase>25</timebase>
									<ntsc>FALSE</ntsc>
								</rate>
								<string>00:00:00:00</string>
								<frame>0</frame>
								<displayformat>NDF</displayformat>
							</timecode>
								<marker>
									<comment></comment>
									<name></name>
									<in>50</in>
									<out>-1</out>
									<pproColor>4292277273</pproColor>
								</marker>
								<marker>
									<comment></comment>
									<name></name>
									<in>425</in>
									<out>-1</out>
									<pproColor>4292277273</pproColor>
								</marker>
								<marker>
									<comment></comment>
									<name></name>
									<in>800</in>
									<out>-1</out>
									<pproColor>4292277273</pproColor>
								</marker>
							<logginginfo>
								<description></description>
								<scene></scene>
								<shottake></shottake>
								<lognote></lognote>
								<good></good>
								<originalvideofilename></originalvideofilename>
								<originalaudiofilename></originalaudiofilename>
							</logginginfo>
						</sequence>
							<marker>
								<comment></comment>
								<name></name>
								<in>50</in>
								<out>-1</out>
								<pproColor>4292277273</pproColor>
							</marker>
							<marker>
								<comment></comment>
								<name></name>
								<in>425</in>
								<out>-1</out>
								<pproColor>4292277273</pproColor>
							</marker>
							<marker>
								<comment></comment>
								<name></name>
								<in>800</in>
								<out>-1</out>
								<pproColor>4292277273</pproColor>
							</marker>
						<labels>
							<label2>Forest</label2>
						</labels>
					</clipitem>
					<clipitem id="clipitem-1391">
						<masterclipid>masterclip-626</masterclipid>
						<name>3</name>
						<enabled>TRUE</enabled>
						<duration>1125</duration>
						<rate>
							<timebase>25</timebase>
							<ntsc>FALSE</ntsc>
						</rate>
						<start>52189</start>
						<end>52564</end>
						<in>375</in>
						<out>750</out>
						<pproTicksIn>3810240000000</pproTicksIn>
						<pproTicksOut>7620480000000</pproTicksOut>
						<sequence id="sequence-117"/>
							<marker>
								<comment></comment>
								<name></name>
								<in>50</in>
								<out>-1</out>
								<pproColor>4292277273</pproColor>
							</marker>
							<marker>
								<comment></comment>
								<name></name>
								<in>425</in>
								<out>-1</out>
								<pproColor>4292277273</pproColor>
							</marker>
							<marker>
								<comment></comment>
								<name></name>
								<in>800</in>
								<out>-1</out>
								<pproColor>4292277273</pproColor>
							</marker>
						<labels>
							<label2>Forest</label2>
						</labels>
					</clipitem>
					<clipitem id="clipitem-1392">
						<masterclipid>masterclip-626</masterclipid>
						<name>3</name>
						<enabled>TRUE</enabled>
						<duration>1125</duration>
						<rate>
							<timebase>25</timebase>
							<ntsc>FALSE</ntsc>
						</rate>
						<start>53944</start>
						<end>54319</end>
						<in>750</in>
						<out>1125</out>
						<pproTicksIn>7620480000000</pproTicksIn>
						<pproTicksOut>11430720000000</pproTicksOut>
						<sequence id="sequence-117"/>
							<marker>
								<comment></comment>
								<name></name>
								<in>50</in>
								<out>-1</out>
								<pproColor>4292277273</pproColor>
							</marker>
							<marker>
								<comment></comment>
								<name></name>
								<in>425</in>
								<out>-1</out>
								<pproColor>4292277273</pproColor>
							</marker>
							<marker>
								<comment></comment>
								<name></name>
								<in>800</in>
								<out>-1</out>
								<pproColor>4292277273</pproColor>
							</marker>
						<labels>
							<label2>Forest</label2>
						</labels>
					</clipitem>
					<clipitem id="clipitem-1393">
						<masterclipid>masterclip-631</masterclipid>
						<name>2</name>
						<enabled>TRUE</enabled>
						<duration>1125</duration>
						<rate>
							<timebase>25</timebase>
							<ntsc>FALSE</ntsc>
						</rate>
						<start>56656</start>
						<end>57031</end>
						<in>0</in>
						<out>375</out>
						<pproTicksIn>0</pproTicksIn>
						<pproTicksOut>3810240000000</pproTicksOut>
						<sequence id="sequence-118" TL.SQAudioVisibleBase="0" TL.SQVideoVisibleBase="0" TL.SQVisibleBaseTime="0" TL.SQAVDividerPosition="0.5" TL.SQHideShyTracks="0" TL.SQHeaderWidth="236" Monitor.ProgramZoomOut="11430720000000" Monitor.ProgramZoomIn="0" TL.SQTimePerPixel="0.19620667102680814" AM.TrackVScrollPosition="0" AM.TrackScrollPosition="0" MZ.EditLine="9815178240000" MZ.Sequence.PreviewFrameSizeHeight="576" MZ.Sequence.PreviewFrameSizeWidth="720" MZ.Sequence.AudioTimeDisplayFormat="200" MZ.Sequence.PreviewRenderingClassID="1061109567" MZ.Sequence.PreviewRenderingPresetCodec="1685480304" MZ.Sequence.PreviewRenderingPresetPath="EncoderPresets/SequencePreview/04be6e19-a018-4e0c-a9d6-0ab44c64752b/QuickTime DV PAL.epr" MZ.Sequence.PreviewUseMaxRenderQuality="false" MZ.Sequence.PreviewUseMaxBitDepth="false" MZ.Sequence.EditingModeGUID="04be6e19-a018-4e0c-a9d6-0ab44c64752b" MZ.Sequence.VideoTimeDisplayFormat="101" MZ.WorkOutPoint="11430720000000" MZ.WorkInPoint="0" MZ.ZeroPoint="0">
							<duration>1125</duration>
							<rate>
								<timebase>25</timebase>
								<ntsc>FALSE</ntsc>
							</rate>
							<name>RU_Nested</name>
							<media>
								<video>
									<format>
										<samplecharacteristics>
											<rate>
												<timebase>25</timebase>
												<ntsc>FALSE</ntsc>
											</rate>
											<codec>
												<name>Apple ProRes 422</name>
												<appspecificdata>
													<appname>Final Cut Pro</appname>
													<appmanufacturer>Apple Inc.</appmanufacturer>
													<appversion>7.0</appversion>
													<data>
														<qtcodec>
															<codecname>Apple ProRes 422</codecname>
															<codectypename>Apple ProRes 422</codectypename>
															<codectypecode>apcn</codectypecode>
															<codecvendorcode>appl</codecvendorcode>
															<spatialquality>1024</spatialquality>
															<temporalquality>0</temporalquality>
															<keyframerate>0</keyframerate>
															<datarate>0</datarate>
														</qtcodec>
													</data>
												</appspecificdata>
											</codec>
											<width>720</width>
											<height>576</height>
											<anamorphic>TRUE</anamorphic>
											<pixelaspectratio>PAL-601</pixelaspectratio>
											<fielddominance>lower</fielddominance>
											<colordepth>24</colordepth>
										</samplecharacteristics>
									</format>
									<track TL.SQTrackShy="0" TL.SQTrackExpandedHeight="25" TL.SQTrackExpanded="0" MZ.TrackTargeted="1">
										<clipitem id="clipitem-1394">
											<masterclipid>masterclip-585</masterclipid>
											<name>Plashka_Right_DV.mov</name>
											<enabled>TRUE</enabled>
											<duration>375</duration>
											<rate>
												<timebase>25</timebase>
												<ntsc>FALSE</ntsc>
											</rate>
											<start>6</start>
											<end>381</end>
											<in>0</in>
											<out>375</out>
											<pproTicksIn>0</pproTicksIn>
											<pproTicksOut>3810240000000</pproTicksOut>
											<alphatype>straight</alphatype>
											<file id="file-484"/>
											<filter>
												<effect>
													<name>Basic Motion</name>
													<effectid>basic</effectid>
													<effectcategory>motion</effectcategory>
													<effecttype>motion</effecttype>
													<mediatype>video</mediatype>
													<pproBypass>false</pproBypass>
													<parameter authoringApp="PremierePro">
														<parameterid>scale</parameterid>
														<name>Scale</name>
														<valuemin>0</valuemin>
														<valuemax>1000</valuemax>
														<value>102</value>
													</parameter>
													<parameter authoringApp="PremierePro">
														<parameterid>rotation</parameterid>
														<name>Rotation</name>
														<valuemin>-8640</valuemin>
														<valuemax>8640</valuemax>
														<value>0</value>
													</parameter>
													<parameter authoringApp="PremierePro">
														<parameterid>center</parameterid>
														<name>Center</name>
														<value>
															<horiz>-5.55112e-17</horiz>
															<vert>-1.11022e-16</vert>
														</value>
													</parameter>
													<parameter authoringApp="PremierePro">
														<parameterid>centerOffset</parameterid>
														<name>Anchor Point</name>
														<value>
															<horiz>0.402314</horiz>
															<vert>0.41875</vert>
														</value>
													</parameter>
													<parameter authoringApp="PremierePro">
														<parameterid>antiflicker</parameterid>
														<name>Anti-flicker Filter</name>
														<valuemin>0.0</valuemin>
														<valuemax>1.0</valuemax>
														<value>0</value>
													</parameter>
												</effect>
											</filter>
											<filter>
												<effect>
													<name>Distort</name>
													<effectid>deformation</effectid>
													<effectcategory>motion</effectcategory>
													<effecttype>motion</effecttype>
													<mediatype>video</mediatype>
													<parameter authoringApp="PremierePro">
														<parameterid>aspect</parameterid>
														<name>Aspect</name>
														<valuemin>-10000</valuemin>
														<valuemax>10000</valuemax>
														<value>-2</value>
													</parameter>
												</effect>
											</filter>
											<logginginfo>
												<description></description>
												<scene></scene>
												<shottake></shottake>
												<lognote></lognote>
												<good></good>
												<originalvideofilename></originalvideofilename>
												<originalaudiofilename></originalaudiofilename>
											</logginginfo>
											<colorinfo>
												<lut></lut>
												<lut1></lut1>
												<asc_sop></asc_sop>
												<asc_sat></asc_sat>
												<lut2></lut2>
											</colorinfo>
											<labels>
												<label2>Violet</label2>
											</labels>
										</clipitem>
										<clipitem id="clipitem-1395">
											<masterclipid>masterclip-585</masterclipid>
											<name>Plashka_Right_DV.mov</name>
											<enabled>TRUE</enabled>
											<duration>375</duration>
											<rate>
												<timebase>25</timebase>
												<ntsc>FALSE</ntsc>
											</rate>
											<start>381</start>
											<end>750</end>
											<in>6</in>
											<out>375</out>
											<pproTicksIn>60963840000</pproTicksIn>
											<pproTicksOut>3810240000000</pproTicksOut>
											<alphatype>straight</alphatype>
											<file id="file-484"/>
											<filter>
												<effect>
													<name>Basic Motion</name>
													<effectid>basic</effectid>
													<effectcategory>motion</effectcategory>
													<effecttype>motion</effecttype>
													<mediatype>video</mediatype>
													<pproBypass>false</pproBypass>
													<parameter authoringApp="PremierePro">
														<parameterid>scale</parameterid>
														<name>Scale</name>
														<valuemin>0</valuemin>
														<valuemax>1000</valuemax>
														<value>100</value>
													</parameter>
													<parameter authoringApp="PremierePro">
														<parameterid>rotation</parameterid>
														<name>Rotation</name>
														<valuemin>-8640</valuemin>
														<valuemax>8640</valuemax>
														<value>0</value>
													</parameter>
													<parameter authoringApp="PremierePro">
														<parameterid>center</parameterid>
														<name>Center</name>
														<value>
															<horiz>-5.55112e-17</horiz>
															<vert>-1.11022e-16</vert>
														</value>
													</parameter>
													<parameter authoringApp="PremierePro">
														<parameterid>centerOffset</parameterid>
														<name>Anchor Point</name>
														<value>
															<horiz>0.402314</horiz>
															<vert>0.41875</vert>
														</value>
													</parameter>
													<parameter authoringApp="PremierePro">
														<parameterid>antiflicker</parameterid>
														<name>Anti-flicker Filter</name>
														<valuemin>0.0</valuemin>
														<valuemax>1.0</valuemax>
														<value>0</value>
													</parameter>
												</effect>
											</filter>
											<filter>
												<effect>
													<name>Distort</name>
													<effectid>deformation</effectid>
													<effectcategory>motion</effectcategory>
													<effecttype>motion</effecttype>
													<mediatype>video</mediatype>
													<parameter authoringApp="PremierePro">
														<parameterid>aspect</parameterid>
														<name>Aspect</name>
														<valuemin>-10000</valuemin>
														<valuemax>10000</valuemax>
														<value>6.38298</value>
													</parameter>
												</effect>
											</filter>
											<logginginfo>
												<description></description>
												<scene></scene>
												<shottake></shottake>
												<lognote></lognote>
												<good></good>
												<originalvideofilename></originalvideofilename>
												<originalaudiofilename></originalaudiofilename>
											</logginginfo>
											<colorinfo>
												<lut></lut>
												<lut1></lut1>
												<asc_sop></asc_sop>
												<asc_sat></asc_sat>
												<lut2></lut2>
											</colorinfo>
											<labels>
												<label2>Violet</label2>
											</labels>
										</clipitem>
										<clipitem id="clipitem-1396">
											<masterclipid>masterclip-585</masterclipid>
											<name>Plashka_Right_DV.mov</name>
											<enabled>TRUE</enabled>
											<duration>375</duration>
											<rate>
												<timebase>25</timebase>
												<ntsc>FALSE</ntsc>
											</rate>
											<start>750</start>
											<end>1125</end>
											<in>0</in>
											<out>375</out>
											<pproTicksIn>0</pproTicksIn>
											<pproTicksOut>3810240000000</pproTicksOut>
											<alphatype>straight</alphatype>
											<file id="file-484"/>
											<filter>
												<effect>
													<name>Basic Motion</name>
													<effectid>basic</effectid>
													<effectcategory>motion</effectcategory>
													<effecttype>motion</effecttype>
													<mediatype>video</mediatype>
													<pproBypass>false</pproBypass>
													<parameter authoringApp="PremierePro">
														<parameterid>scale</parameterid>
														<name>Scale</name>
														<valuemin>0</valuemin>
														<valuemax>1000</valuemax>
														<value>100</value>
													</parameter>
													<parameter authoringApp="PremierePro">
														<parameterid>rotation</parameterid>
														<name>Rotation</name>
														<valuemin>-8640</valuemin>
														<valuemax>8640</valuemax>
														<value>0</value>
													</parameter>
													<parameter authoringApp="PremierePro">
														<parameterid>center</parameterid>
														<name>Center</name>
														<value>
															<horiz>-5.55112e-17</horiz>
															<vert>-1.11022e-16</vert>
														</value>
													</parameter>
													<parameter authoringApp="PremierePro">
														<parameterid>centerOffset</parameterid>
														<name>Anchor Point</name>
														<value>
															<horiz>0.402314</horiz>
															<vert>0.41875</vert>
														</value>
													</parameter>
													<parameter authoringApp="PremierePro">
														<parameterid>antiflicker</parameterid>
														<name>Anti-flicker Filter</name>
														<valuemin>0.0</valuemin>
														<valuemax>1.0</valuemax>
														<value>0</value>
													</parameter>
												</effect>
											</filter>
											<filter>
												<effect>
													<name>Distort</name>
													<effectid>deformation</effectid>
													<effectcategory>motion</effectcategory>
													<effecttype>motion</effecttype>
													<mediatype>video</mediatype>
													<parameter authoringApp="PremierePro">
														<parameterid>aspect</parameterid>
														<name>Aspect</name>
														<valuemin>-10000</valuemin>
														<valuemax>10000</valuemax>
														<value>47.0588</value>
													</parameter>
												</effect>
											</filter>
											<logginginfo>
												<description></description>
												<scene></scene>
												<shottake></shottake>
												<lognote></lognote>
												<good></good>
												<originalvideofilename></originalvideofilename>
												<originalaudiofilename></originalaudiofilename>
											</logginginfo>
											<colorinfo>
												<lut></lut>
												<lut1></lut1>
												<asc_sop></asc_sop>
												<asc_sat></asc_sat>
												<lut2></lut2>
											</colorinfo>
											<labels>
												<label2>Violet</label2>
											</labels>
										</clipitem>
										<enabled>TRUE</enabled>
										<locked>FALSE</locked>
									</track>
									<track TL.SQTrackShy="0" TL.SQTrackExpandedHeight="25" TL.SQTrackExpanded="0" MZ.TrackTargeted="0">
										<transitionitem>
											<start>6</start>
											<end>35</end>
											<alignment>start-black</alignment>
											<cutPointTicks>0</cutPointTicks>
											<rate>
												<timebase>25</timebase>
												<ntsc>FALSE</ntsc>
											</rate>
											<effect>
												<name>Edge Wipe</name>
												<effectid>Edge Wipe</effectid>
												<effectcategory>Wipe</effectcategory>
												<effecttype>transition</effecttype>
												<mediatype>video</mediatype>
												<wipecode>2</wipecode>
												<wipeaccuracy>100</wipeaccuracy>
												<startratio>0</startratio>
												<endratio>1</endratio>
												<reverse>FALSE</reverse>
												<parameter authoringApp="PremierePro">
													<parameterid>directionofwipe</parameterid>
													<name>Angle</name>
													<valuemin>-360</valuemin>
													<valuemax>360</valuemax>
													<value>270</value>
												</parameter>
											</effect>
										</transitionitem>
										<clipitem id="clipitem-1397">
											<masterclipid>masterclip-632</masterclipid>
											<name>2_1.png</name>
											<enabled>TRUE</enabled>
											<duration>1080000</duration>
											<rate>
												<timebase>25</timebase>
												<ntsc>FALSE</ntsc>
											</rate>
											<start>-1</start>
											<end>-1</end>
											<in>90006</in>
											<out>90369</out>
											<pproTicksIn>914518563840000</pproTicksIn>
											<pproTicksOut>918206876160000</pproTicksOut>
											<alphatype>straight</alphatype>
											<pixelaspectratio>square</pixelaspectratio>
											<anamorphic>FALSE</anamorphic>
											<file id="file-521">
												<name>2_1.png</name>
												<pathurl>file://localhost/_MUZ_TV/project_AP/RU/_TITLE/468/PNG/2_1.png</pathurl>
												<rate>
													<timebase>30</timebase>
													<ntsc>TRUE</ntsc>
												</rate>
												<timecode>
													<rate>
														<timebase>30</timebase>
														<ntsc>TRUE</ntsc>
													</rate>
													<string>00;00;00;00</string>
													<frame>0</frame>
													<displayformat>DF</displayformat>
												</timecode>
												<media>
													<video>
														<samplecharacteristics>
															<rate>
																<timebase>30</timebase>
																<ntsc>TRUE</ntsc>
															</rate>
															<width>1920</width>
															<height>1080</height>
															<anamorphic>FALSE</anamorphic>
															<pixelaspectratio>square</pixelaspectratio>
															<fielddominance>none</fielddominance>
														</samplecharacteristics>
													</video>
												</media>
											</file>
											<filter>
												<effect>
													<name>Basic Motion</name>
													<effectid>basic</effectid>
													<effectcategory>motion</effectcategory>
													<effecttype>motion</effecttype>
													<mediatype>video</mediatype>
													<pproBypass>false</pproBypass>
													<parameter authoringApp="PremierePro">
														<parameterid>scale</parameterid>
														<name>Scale</name>
														<valuemin>0</valuemin>
														<valuemax>1000</valuemax>
														<value>53.3333</value>
													</parameter>
													<parameter authoringApp="PremierePro">
														<parameterid>rotation</parameterid>
														<name>Rotation</name>
														<valuemin>-8640</valuemin>
														<valuemax>8640</valuemax>
														<value>0</value>
													</parameter>
													<parameter authoringApp="PremierePro">
														<parameterid>center</parameterid>
														<name>Center</name>
														<value>
															<horiz>0</horiz>
															<vert>0</vert>
														</value>
													</parameter>
													<parameter authoringApp="PremierePro">
														<parameterid>centerOffset</parameterid>
														<name>Anchor Point</name>
														<value>
															<horiz>0</horiz>
															<vert>0</vert>
														</value>
													</parameter>
													<parameter authoringApp="PremierePro">
														<parameterid>antiflicker</parameterid>
														<name>Anti-flicker Filter</name>
														<valuemin>0.0</valuemin>
														<valuemax>1.0</valuemax>
														<value>0</value>
													</parameter>
												</effect>
											</filter>
											<logginginfo>
												<description></description>
												<scene></scene>
												<shottake></shottake>
												<lognote></lognote>
												<good></good>
												<originalvideofilename></originalvideofilename>
												<originalaudiofilename></originalaudiofilename>
											</logginginfo>
											<colorinfo>
												<lut></lut>
												<lut1></lut1>
												<asc_sop></asc_sop>
												<asc_sat></asc_sat>
												<lut2></lut2>
											</colorinfo>
											<labels>
												<label2>Lavender</label2>
											</labels>
										</clipitem>
										<transitionitem>
											<start>344</start>
											<end>369</end>
											<alignment>end-black</alignment>
											<cutPointTicks>254016000000</cutPointTicks>
											<rate>
												<timebase>25</timebase>
												<ntsc>FALSE</ntsc>
											</rate>
											<effect>
												<name>Edge Wipe</name>
												<effectid>Edge Wipe</effectid>
												<effectcategory>Wipe</effectcategory>
												<effecttype>transition</effecttype>
												<mediatype>video</mediatype>
												<wipecode>2</wipecode>
												<wipeaccuracy>100</wipeaccuracy>
												<startratio>0</startratio>
												<endratio>1</endratio>
												<reverse>FALSE</reverse>
												<parameter authoringApp="PremierePro">
													<parameterid>directionofwipe</parameterid>
													<name>Angle</name>
													<valuemin>-360</valuemin>
													<valuemax>360</valuemax>
													<value>90</value>
												</parameter>
											</effect>
										</transitionitem>
										<transitionitem>
											<start>381</start>
											<end>410</end>
											<alignment>start-black</alignment>
											<cutPointTicks>0</cutPointTicks>
											<rate>
												<timebase>25</timebase>
												<ntsc>FALSE</ntsc>
											</rate>
											<effect>
												<name>Edge Wipe</name>
												<effectid>Edge Wipe</effectid>
												<effectcategory>Wipe</effectcategory>
												<effecttype>transition</effecttype>
												<mediatype>video</mediatype>
												<wipecode>2</wipecode>
												<wipeaccuracy>100</wipeaccuracy>
												<startratio>0</startratio>
												<endratio>1</endratio>
												<reverse>FALSE</reverse>
												<parameter authoringApp="PremierePro">
													<parameterid>directionofwipe</parameterid>
													<name>Angle</name>
													<valuemin>-360</valuemin>
													<valuemax>360</valuemax>
													<value>270</value>
												</parameter>
											</effect>
										</transitionitem>
										<clipitem id="clipitem-1398">
											<masterclipid>masterclip-633</masterclipid>
											<name>2_2.png</name>
											<enabled>TRUE</enabled>
											<duration>1080000</duration>
											<rate>
												<timebase>25</timebase>
												<ntsc>FALSE</ntsc>
											</rate>
											<start>-1</start>
											<end>-1</end>
											<in>90011</in>
											<out>90374</out>
											<pproTicksIn>914569367040000</pproTicksIn>
											<pproTicksOut>918257679360000</pproTicksOut>
											<alphatype>straight</alphatype>
											<pixelaspectratio>square</pixelaspectratio>
											<anamorphic>FALSE</anamorphic>
											<file id="file-522">
												<name>2_2.png</name>
												<pathurl>file://localhost/_MUZ_TV/project_AP/RU/_TITLE/468/PNG/2_2.png</pathurl>
												<rate>
													<timebase>30</timebase>
													<ntsc>TRUE</ntsc>
												</rate>
												<timecode>
													<rate>
														<timebase>30</timebase>
														<ntsc>TRUE</ntsc>
													</rate>
													<string>00;00;00;00</string>
													<frame>0</frame>
													<displayformat>DF</displayformat>
												</timecode>
												<media>
													<video>
														<samplecharacteristics>
															<rate>
																<timebase>30</timebase>
																<ntsc>TRUE</ntsc>
															</rate>
															<width>1920</width>
															<height>1080</height>
															<anamorphic>FALSE</anamorphic>
															<pixelaspectratio>square</pixelaspectratio>
															<fielddominance>none</fielddominance>
														</samplecharacteristics>
													</video>
												</media>
											</file>
											<filter>
												<effect>
													<name>Basic Motion</name>
													<effectid>basic</effectid>
													<effectcategory>motion</effectcategory>
													<effecttype>motion</effecttype>
													<mediatype>video</mediatype>
													<pproBypass>false</pproBypass>
													<parameter authoringApp="PremierePro">
														<parameterid>scale</parameterid>
														<name>Scale</name>
														<valuemin>0</valuemin>
														<valuemax>1000</valuemax>
														<value>53.3333</value>
													</parameter>
													<parameter authoringApp="PremierePro">
														<parameterid>rotation</parameterid>
														<name>Rotation</name>
														<valuemin>-8640</valuemin>
														<valuemax>8640</valuemax>
														<value>0</value>
													</parameter>
													<parameter authoringApp="PremierePro">
														<parameterid>center</parameterid>
														<name>Center</name>
														<value>
															<horiz>0</horiz>
															<vert>0</vert>
														</value>
													</parameter>
													<parameter authoringApp="PremierePro">
														<parameterid>centerOffset</parameterid>
														<name>Anchor Point</name>
														<value>
															<horiz>0</horiz>
															<vert>0</vert>
														</value>
													</parameter>
													<parameter authoringApp="PremierePro">
														<parameterid>antiflicker</parameterid>
														<name>Anti-flicker Filter</name>
														<valuemin>0.0</valuemin>
														<valuemax>1.0</valuemax>
														<value>0</value>
													</parameter>
												</effect>
											</filter>
											<logginginfo>
												<description></description>
												<scene></scene>
												<shottake></shottake>
												<lognote></lognote>
												<good></good>
												<originalvideofilename></originalvideofilename>
												<originalaudiofilename></originalaudiofilename>
											</logginginfo>
											<colorinfo>
												<lut></lut>
												<lut1></lut1>
												<asc_sop></asc_sop>
												<asc_sat></asc_sat>
												<lut2></lut2>
											</colorinfo>
											<labels>
												<label2>Lavender</label2>
											</labels>
										</clipitem>
										<transitionitem>
											<start>719</start>
											<end>744</end>
											<alignment>end-black</alignment>
											<cutPointTicks>254016000000</cutPointTicks>
											<rate>
												<timebase>25</timebase>
												<ntsc>FALSE</ntsc>
											</rate>
											<effect>
												<name>Edge Wipe</name>
												<effectid>Edge Wipe</effectid>
												<effectcategory>Wipe</effectcategory>
												<effecttype>transition</effecttype>
												<mediatype>video</mediatype>
												<wipecode>2</wipecode>
												<wipeaccuracy>100</wipeaccuracy>
												<startratio>0</startratio>
												<endratio>1</endratio>
												<reverse>FALSE</reverse>
												<parameter authoringApp="PremierePro">
													<parameterid>directionofwipe</parameterid>
													<name>Angle</name>
													<valuemin>-360</valuemin>
													<valuemax>360</valuemax>
													<value>90</value>
												</parameter>
											</effect>
										</transitionitem>
										<transitionitem>
											<start>756</start>
											<end>785</end>
											<alignment>start-black</alignment>
											<cutPointTicks>0</cutPointTicks>
											<rate>
												<timebase>25</timebase>
												<ntsc>FALSE</ntsc>
											</rate>
											<effect>
												<name>Edge Wipe</name>
												<effectid>Edge Wipe</effectid>
												<effectcategory>Wipe</effectcategory>
												<effecttype>transition</effecttype>
												<mediatype>video</mediatype>
												<wipecode>2</wipecode>
												<wipeaccuracy>100</wipeaccuracy>
												<startratio>0</startratio>
												<endratio>1</endratio>
												<reverse>FALSE</reverse>
												<parameter authoringApp="PremierePro">
													<parameterid>directionofwipe</parameterid>
													<name>Angle</name>
													<valuemin>-360</valuemin>
													<valuemax>360</valuemax>
													<value>270</value>
												</parameter>
											</effect>
										</transitionitem>
										<clipitem id="clipitem-1399">
											<masterclipid>masterclip-634</masterclipid>
											<name>2_3.png</name>
											<enabled>TRUE</enabled>
											<duration>1080000</duration>
											<rate>
												<timebase>25</timebase>
												<ntsc>FALSE</ntsc>
											</rate>
											<start>-1</start>
											<end>-1</end>
											<in>90011</in>
											<out>90375</out>
											<pproTicksIn>914569367040000</pproTicksIn>
											<pproTicksOut>918267840000000</pproTicksOut>
											<alphatype>straight</alphatype>
											<pixelaspectratio>square</pixelaspectratio>
											<anamorphic>FALSE</anamorphic>
											<file id="file-523">
												<name>2_3.png</name>
												<pathurl>file://localhost/_MUZ_TV/project_AP/RU/_TITLE/468/PNG/2_3.png</pathurl>
												<rate>
													<timebase>30</timebase>
													<ntsc>TRUE</ntsc>
												</rate>
												<timecode>
													<rate>
														<timebase>30</timebase>
														<ntsc>TRUE</ntsc>
													</rate>
													<string>00;00;00;00</string>
													<frame>0</frame>
													<displayformat>DF</displayformat>
												</timecode>
												<media>
													<video>
														<samplecharacteristics>
															<rate>
																<timebase>30</timebase>
																<ntsc>TRUE</ntsc>
															</rate>
															<width>1920</width>
															<height>1080</height>
															<anamorphic>FALSE</anamorphic>
															<pixelaspectratio>square</pixelaspectratio>
															<fielddominance>none</fielddominance>
														</samplecharacteristics>
													</video>
												</media>
											</file>
											<filter>
												<effect>
													<name>Basic Motion</name>
													<effectid>basic</effectid>
													<effectcategory>motion</effectcategory>
													<effecttype>motion</effecttype>
													<mediatype>video</mediatype>
													<pproBypass>false</pproBypass>
													<parameter authoringApp="PremierePro">
														<parameterid>scale</parameterid>
														<name>Scale</name>
														<valuemin>0</valuemin>
														<valuemax>1000</valuemax>
														<value>53.3333</value>
													</parameter>
													<parameter authoringApp="PremierePro">
														<parameterid>rotation</parameterid>
														<name>Rotation</name>
														<valuemin>-8640</valuemin>
														<valuemax>8640</valuemax>
														<value>0</value>
													</parameter>
													<parameter authoringApp="PremierePro">
														<parameterid>center</parameterid>
														<name>Center</name>
														<value>
															<horiz>0</horiz>
															<vert>0</vert>
														</value>
													</parameter>
													<parameter authoringApp="PremierePro">
														<parameterid>centerOffset</parameterid>
														<name>Anchor Point</name>
														<value>
															<horiz>0</horiz>
															<vert>0</vert>
														</value>
													</parameter>
													<parameter authoringApp="PremierePro">
														<parameterid>antiflicker</parameterid>
														<name>Anti-flicker Filter</name>
														<valuemin>0.0</valuemin>
														<valuemax>1.0</valuemax>
														<value>0</value>
													</parameter>
												</effect>
											</filter>
											<logginginfo>
												<description></description>
												<scene></scene>
												<shottake></shottake>
												<lognote></lognote>
												<good></good>
												<originalvideofilename></originalvideofilename>
												<originalaudiofilename></originalaudiofilename>
											</logginginfo>
											<colorinfo>
												<lut></lut>
												<lut1></lut1>
												<asc_sop></asc_sop>
												<asc_sat></asc_sat>
												<lut2></lut2>
											</colorinfo>
											<labels>
												<label2>Lavender</label2>
											</labels>
										</clipitem>
										<transitionitem>
											<start>1095</start>
											<end>1120</end>
											<alignment>end-black</alignment>
											<cutPointTicks>254016000000</cutPointTicks>
											<rate>
												<timebase>25</timebase>
												<ntsc>FALSE</ntsc>
											</rate>
											<effect>
												<name>Edge Wipe</name>
												<effectid>Edge Wipe</effectid>
												<effectcategory>Wipe</effectcategory>
												<effecttype>transition</effecttype>
												<mediatype>video</mediatype>
												<wipecode>2</wipecode>
												<wipeaccuracy>100</wipeaccuracy>
												<startratio>0</startratio>
												<endratio>1</endratio>
												<reverse>FALSE</reverse>
												<parameter authoringApp="PremierePro">
													<parameterid>directionofwipe</parameterid>
													<name>Angle</name>
													<valuemin>-360</valuemin>
													<valuemax>360</valuemax>
													<value>90</value>
												</parameter>
											</effect>
										</transitionitem>
										<enabled>TRUE</enabled>
										<locked>FALSE</locked>
									</track>
									<track TL.SQTrackShy="0" TL.SQTrackExpandedHeight="25" TL.SQTrackExpanded="0" MZ.TrackTargeted="0">
										<transitionitem>
											<start>755</start>
											<end>780</end>
											<alignment>start-black</alignment>
											<cutPointTicks>0</cutPointTicks>
											<rate>
												<timebase>25</timebase>
												<ntsc>FALSE</ntsc>
											</rate>
											<effect>
												<name>Edge Wipe</name>
												<effectid>Edge Wipe</effectid>
												<effectcategory>Wipe</effectcategory>
												<effecttype>transition</effecttype>
												<mediatype>video</mediatype>
												<wipecode>2</wipecode>
												<wipeaccuracy>100</wipeaccuracy>
												<startratio>0</startratio>
												<endratio>1</endratio>
												<reverse>FALSE</reverse>
												<parameter authoringApp="PremierePro">
													<parameterid>directionofwipe</parameterid>
													<name>Angle</name>
													<valuemin>-360</valuemin>
													<valuemax>360</valuemax>
													<value>270</value>
												</parameter>
											</effect>
										</transitionitem>
										<clipitem id="clipitem-1400">
											<masterclipid>masterclip-635</masterclipid>
											<name>Graphic</name>
											<enabled>FALSE</enabled>
											<duration>1080000</duration>
											<rate>
												<timebase>25</timebase>
												<ntsc>FALSE</ntsc>
											</rate>
											<start>-1</start>
											<end>-1</end>
											<in>89905</in>
											<out>90272</out>
											<pproTicksIn>913492339200000</pproTicksIn>
											<pproTicksOut>917221294080000</pproTicksOut>
											<alphatype>straight</alphatype>
											<pixelaspectratio>PAL-601</pixelaspectratio>
											<anamorphic>TRUE</anamorphic>
											<file id="file-524">
												<name>Graphic</name>
												<mediaSource>GraphicAndType</mediaSource>
												<rate>
													<timebase>30</timebase>
													<ntsc>TRUE</ntsc>
												</rate>
												<timecode>
													<rate>
														<timebase>30</timebase>
														<ntsc>TRUE</ntsc>
													</rate>
													<string>00;00;00;00</string>
													<frame>0</frame>
													<displayformat>DF</displayformat>
												</timecode>
												<media>
													<video>
														<samplecharacteristics>
															<rate>
																<timebase>30</timebase>
																<ntsc>TRUE</ntsc>
															</rate>
															<width>720</width>
															<height>576</height>
															<anamorphic>TRUE</anamorphic>
															<pixelaspectratio>PAL-601</pixelaspectratio>
															<fielddominance>none</fielddominance>
														</samplecharacteristics>
													</video>
												</media>
											</file>
											<filter>
												<effect>
													<name>Vector Motion</name>
													<effectid>GraphicGroup</effectid>
													<effectcategory>graphic</effectcategory>
													<effecttype>filter</effecttype>
													<mediatype>video</mediatype>
													<pproBypass>false</pproBypass>
													<parameter authoringApp="PremierePro">
														<parameterid>1</parameterid>
														<name>Position</name>
														<IsTimeVarying>false</IsTimeVarying>
														<value>-91445760000000000,0.81693898908787344:0.49085601568222115,0,0,0,0,0,0,5,4,0,0,0,0</value>
													</parameter>
													<parameter authoringApp="PremierePro">
														<parameterid>2</parameterid>
														<name>Scale</name>
														<IsTimeVarying>false</IsTimeVarying>
														<ParameterControlType>2</ParameterControlType>
														<LowerBound>0</LowerBound>
														<UpperBound>10000</UpperBound>
														<UpperUIBound>200</UpperUIBound>
														<value>-91445760000000000,100.,0,0,0,0,0,0</value>
													</parameter>
													<parameter authoringApp="PremierePro">
														<parameterid>3</parameterid>
														<name>Scale Width</name>
														<IsTimeVarying>false</IsTimeVarying>
														<ParameterControlType>2</ParameterControlType>
														<LowerBound>0</LowerBound>
														<UpperBound>10000</UpperBound>
														<UpperUIBound>200</UpperUIBound>
														<value>-91445760000000000,100.,0,0,0,0,0,0</value>
													</parameter>
													<parameter authoringApp="PremierePro">
														<parameterid>4</parameterid>
														<name> </name>
														<IsTimeVarying>false</IsTimeVarying>
														<ParameterControlType>4</ParameterControlType>
														<LowerBound>false</LowerBound>
														<UpperBound>true</UpperBound>
														<value>-91445760000000000,true,0,0,0,0,0,0</value>
													</parameter>
													<parameter authoringApp="PremierePro">
														<parameterid>5</parameterid>
														<name>Rotation</name>
														<IsTimeVarying>false</IsTimeVarying>
														<ParameterControlType>3</ParameterControlType>
														<LowerBound>-32768</LowerBound>
														<UpperBound>32767</UpperBound>
														<value>-91445760000000000,0.,0,0,0,0,0,0</value>
													</parameter>
													<parameter authoringApp="PremierePro">
														<parameterid>6</parameterid>
														<name>Anchor Point</name>
														<IsTimeVarying>false</IsTimeVarying>
														<value>-91445760000000000,0.5:0.5,0,0,0,0,0,0,5,4,0,0,0,0</value>
													</parameter>
												</effect>
											</filter>
											<filter>
												<effect>
													<name>Данил Прытков признаётся, &#13;что сильные провалы &#13;мотивируют его на творчество &#13;не меньше, чем победы. </name>
													<effectid>GraphicAndType</effectid>
													<effectcategory>graphic</effectcategory>
													<effecttype>filter</effecttype>
													<mediatype>video</mediatype>
													<pproBypass>false</pproBypass>
													<pproExpanded>true</pproExpanded>
													<parameter authoringApp="PremierePro">
														<parameterid>1</parameterid>
														<name>Source Text</name>
														<hash>698123b5-7d57-7b79-efb1-b0df00000a31</hash>
													</parameter>
													<parameter authoringApp="PremierePro">
														<parameterid>2</parameterid>
														<name>Transform</name>
														<IsTimeVarying>false</IsTimeVarying>
														<ParameterControlType>11</ParameterControlType>
														<LowerBound>false</LowerBound>
														<UpperBound>false</UpperBound>
														<value>-91445760000000000,false,0,0,0,0,0,0</value>
													</parameter>
													<parameter authoringApp="PremierePro">
														<parameterid>3</parameterid>
														<name>Position</name>
														<IsTimeVarying>false</IsTimeVarying>
														<value>-91445760000000000,0.270416259765625:0.640594482421875,0,0,0,0,0,0,5,4,0,0,0,0</value>
													</parameter>
													<parameter authoringApp="PremierePro">
														<parameterid>4</parameterid>
														<name>Scale</name>
														<IsTimeVarying>false</IsTimeVarying>
														<ParameterControlType>2</ParameterControlType>
														<LowerBound>0</LowerBound>
														<UpperBound>4000</UpperBound>
														<value>-91445760000000000,100.,0,0,0,0,0,0</value>
													</parameter>
													<parameter authoringApp="PremierePro">
														<parameterid>5</parameterid>
														<name>Horizontal Scale</name>
														<IsTimeVarying>false</IsTimeVarying>
														<ParameterControlType>2</ParameterControlType>
														<LowerBound>0</LowerBound>
														<UpperBound>4000</UpperBound>
														<value>-91445760000000000,100.,0,0,0,0,0,0</value>
													</parameter>
													<parameter authoringApp="PremierePro">
														<parameterid>6</parameterid>
														<name> </name>
														<IsTimeVarying>false</IsTimeVarying>
														<ParameterControlType>4</ParameterControlType>
														<LowerBound>false</LowerBound>
														<UpperBound>true</UpperBound>
														<value>-91445760000000000,true,0,0,0,0,0,0</value>
													</parameter>
													<parameter authoringApp="PremierePro">
														<parameterid>7</parameterid>
														<name>Rotation</name>
														<IsTimeVarying>false</IsTimeVarying>
														<ParameterControlType>3</ParameterControlType>
														<LowerBound>-32768</LowerBound>
														<UpperBound>32767</UpperBound>
														<value>-91445760000000000,0.,0,0,0,0,0,0</value>
													</parameter>
													<parameter authoringApp="PremierePro">
														<parameterid>8</parameterid>
														<name>Opacity</name>
														<IsTimeVarying>false</IsTimeVarying>
														<ParameterControlType>2</ParameterControlType>
														<LowerBound>0</LowerBound>
														<UpperBound>100</UpperBound>
														<value>-91445760000000000,100.,0,0,0,0,0,0</value>
													</parameter>
													<parameter authoringApp="PremierePro">
														<parameterid>9</parameterid>
														<name>Anchor Point</name>
														<IsTimeVarying>false</IsTimeVarying>
														<value>-91445760000000000,0:0,0,0,0,0,0,0,5,4,0,0,0,0</value>
													</parameter>
													<parameter authoringApp="PremierePro">
														<parameterid>10</parameterid>
														<name></name>
														<IsTimeVarying>false</IsTimeVarying>
														<ParameterControlType>12</ParameterControlType>
														<LowerBound>false</LowerBound>
														<UpperBound>false</UpperBound>
														<value>-91445760000000000,false,0,0,0,0,0,0</value>
													</parameter>
													<parameter authoringApp="PremierePro">
														<parameterid>11</parameterid>
														<name> </name>
														<IsTimeVarying>false</IsTimeVarying>
														<ParameterControlType>8</ParameterControlType>
														<LowerBound>0</LowerBound>
														<UpperBound>32768</UpperBound>
														<value>-91445760000000000,0.,0,0,0,0,0,0</value>
													</parameter>
													<parameter authoringApp="PremierePro">
														<parameterid>12</parameterid>
														<name> </name>
														<IsTimeVarying>false</IsTimeVarying>
														<ParameterControlType>8</ParameterControlType>
														<LowerBound>0</LowerBound>
														<UpperBound>32768</UpperBound>
														<value>-91445760000000000,0.,0,0,0,0,0,0</value>
													</parameter>
													<parameter authoringApp="PremierePro">
														<parameterid>13</parameterid>
														<name>start</name>
														<IsTimeVarying>false</IsTimeVarying>
														<ParameterControlType>8</ParameterControlType>
														<LowerBound>-100</LowerBound>
														<UpperBound>1000000000</UpperBound>
														<value>-91445760000000000,0.,0,0,0,0,0,0</value>
													</parameter>
													<parameter authoringApp="PremierePro">
														<parameterid>14</parameterid>
														<name>end</name>
														<IsTimeVarying>false</IsTimeVarying>
														<ParameterControlType>8</ParameterControlType>
														<LowerBound>-100</LowerBound>
														<UpperBound>1000000000</UpperBound>
														<value>-91445760000000000,101.,0,0,0,0,0,0</value>
													</parameter>
													<parameter authoringApp="PremierePro">
														<parameterid>15</parameterid>
														<name> </name>
														<IsTimeVarying>false</IsTimeVarying>
														<ParameterControlType>4</ParameterControlType>
														<LowerBound>false</LowerBound>
														<UpperBound>true</UpperBound>
														<value>-91445760000000000,false,0,0,0,0,0,0</value>
													</parameter>
													<parameter authoringApp="PremierePro">
														<parameterid>16</parameterid>
														<name> </name>
														<IsTimeVarying>false</IsTimeVarying>
														<ParameterControlType>4</ParameterControlType>
														<LowerBound>false</LowerBound>
														<UpperBound>true</UpperBound>
														<value>-91445760000000000,false,0,0,0,0,0,0</value>
													</parameter>
													<parameter authoringApp="PremierePro">
														<parameterid>17</parameterid>
														<name> </name>
														<IsTimeVarying>false</IsTimeVarying>
														<ParameterControlType>4</ParameterControlType>
														<LowerBound>false</LowerBound>
														<UpperBound>true</UpperBound>
														<value>-91445760000000000,false,0,0,0,0,0,0</value>
													</parameter>
													<parameter authoringApp="PremierePro">
														<parameterid>18</parameterid>
														<name> </name>
														<IsTimeVarying>false</IsTimeVarying>
														<ParameterControlType>4</ParameterControlType>
														<LowerBound>false</LowerBound>
														<UpperBound>true</UpperBound>
														<value>-91445760000000000,false,0,0,0,0,0,0</value>
													</parameter>
													<parameter authoringApp="PremierePro">
														<parameterid>19</parameterid>
														<name>Parent Width</name>
														<IsTimeVarying>false</IsTimeVarying>
														<ParameterControlType>2</ParameterControlType>
														<LowerBound>0</LowerBound>
														<UpperBound>20000</UpperBound>
														<value>-91445760000000000,0.,0,0,0,0,0,0</value>
													</parameter>
													<parameter authoringApp="PremierePro">
														<parameterid>20</parameterid>
														<name>Parent Height</name>
														<IsTimeVarying>false</IsTimeVarying>
														<ParameterControlType>2</ParameterControlType>
														<LowerBound>0</LowerBound>
														<UpperBound>20000</UpperBound>
														<value>-91445760000000000,0.,0,0,0,0,0,0</value>
													</parameter>
													<parameter authoringApp="PremierePro">
														<parameterid>21</parameterid>
														<name>Parent Rotation</name>
														<IsTimeVarying>false</IsTimeVarying>
														<ParameterControlType>3</ParameterControlType>
														<LowerBound>-32768</LowerBound>
														<UpperBound>32767</UpperBound>
														<value>-91445760000000000,0.,0,0,0,0,0,0</value>
													</parameter>
												</effect>
											</filter>
											<logginginfo>
												<description></description>
												<scene></scene>
												<shottake></shottake>
												<lognote></lognote>
												<good></good>
												<originalvideofilename></originalvideofilename>
												<originalaudiofilename></originalaudiofilename>
											</logginginfo>
											<colorinfo>
												<lut></lut>
												<lut1></lut1>
												<asc_sop></asc_sop>
												<asc_sat></asc_sat>
												<lut2></lut2>
											</colorinfo>
										</clipitem>
										<transitionitem>
											<start>1097</start>
											<end>1122</end>
											<alignment>end-black</alignment>
											<cutPointTicks>254016000000</cutPointTicks>
											<rate>
												<timebase>25</timebase>
												<ntsc>FALSE</ntsc>
											</rate>
											<effect>
												<name>Edge Wipe</name>
												<effectid>Edge Wipe</effectid>
												<effectcategory>Wipe</effectcategory>
												<effecttype>transition</effecttype>
												<mediatype>video</mediatype>
												<wipecode>2</wipecode>
												<wipeaccuracy>100</wipeaccuracy>
												<startratio>0</startratio>
												<endratio>1</endratio>
												<reverse>FALSE</reverse>
												<parameter authoringApp="PremierePro">
													<parameterid>directionofwipe</parameterid>
													<name>Angle</name>
													<valuemin>-360</valuemin>
													<valuemax>360</valuemax>
													<value>90</value>
												</parameter>
											</effect>
										</transitionitem>
										<enabled>TRUE</enabled>
										<locked>FALSE</locked>
									</track>
								</video>
								<audio>
									<numOutputChannels>2</numOutputChannels>
									<format>
										<samplecharacteristics>
											<depth>16</depth>
											<samplerate>48000</samplerate>
										</samplecharacteristics>
									</format>
									<outputs>
										<group>
											<index>1</index>
											<numchannels>1</numchannels>
											<downmix>0</downmix>
											<channel>
												<index>1</index>
											</channel>
										</group>
										<group>
											<index>2</index>
											<numchannels>1</numchannels>
											<downmix>0</downmix>
											<channel>
												<index>2</index>
											</channel>
										</group>
									</outputs>
									<track TL.SQTrackAudioKeyframeStyle="0" TL.SQTrackShy="0" TL.SQTrackExpandedHeight="25" TL.SQTrackExpanded="0" MZ.TrackTargeted="1" PannerCurrentValue="0.5" PannerStartKeyframe="-91445760000000000,0.5,0,0,0,0,0,0" PannerName="Balance" currentExplodedTrackIndex="0" totalExplodedTrackCount="2" premiereTrackType="Stereo">
										<enabled>TRUE</enabled>
										<locked>FALSE</locked>
										<outputchannelindex>1</outputchannelindex>
									</track>
									<track TL.SQTrackAudioKeyframeStyle="0" TL.SQTrackShy="0" TL.SQTrackExpandedHeight="25" TL.SQTrackExpanded="0" MZ.TrackTargeted="1" PannerCurrentValue="0.5" PannerStartKeyframe="-91445760000000000,0.5,0,0,0,0,0,0" PannerName="Balance" currentExplodedTrackIndex="1" totalExplodedTrackCount="2" premiereTrackType="Stereo">
										<enabled>TRUE</enabled>
										<locked>FALSE</locked>
										<outputchannelindex>2</outputchannelindex>
									</track>
								</audio>
							</media>
							<timecode>
								<rate>
									<timebase>25</timebase>
									<ntsc>FALSE</ntsc>
								</rate>
								<string>00:00:00:00</string>
								<frame>0</frame>
								<displayformat>NDF</displayformat>
							</timecode>
								<marker>
									<comment></comment>
									<name></name>
									<in>425</in>
									<out>-1</out>
									<pproColor>4292277273</pproColor>
								</marker>
								<marker>
									<comment></comment>
									<name></name>
									<in>50</in>
									<out>-1</out>
									<pproColor>4292277273</pproColor>
								</marker>
								<marker>
									<comment></comment>
									<name></name>
									<in>800</in>
									<out>-1</out>
									<pproColor>4292277273</pproColor>
								</marker>
							<logginginfo>
								<description></description>
								<scene></scene>
								<shottake></shottake>
								<lognote></lognote>
								<good></good>
								<originalvideofilename></originalvideofilename>
								<originalaudiofilename></originalaudiofilename>
							</logginginfo>
						</sequence>
							<marker>
								<comment></comment>
								<name></name>
								<in>425</in>
								<out>-1</out>
								<pproColor>4292277273</pproColor>
							</marker>
							<marker>
								<comment></comment>
								<name></name>
								<in>50</in>
								<out>-1</out>
								<pproColor>4292277273</pproColor>
							</marker>
							<marker>
								<comment></comment>
								<name></name>
								<in>800</in>
								<out>-1</out>
								<pproColor>4292277273</pproColor>
							</marker>
						<labels>
							<label2>Forest</label2>
						</labels>
					</clipitem>
					<clipitem id="clipitem-1401">
						<masterclipid>masterclip-631</masterclipid>
						<name>2</name>
						<enabled>TRUE</enabled>
						<duration>1125</duration>
						<rate>
							<timebase>25</timebase>
							<ntsc>FALSE</ntsc>
						</rate>
						<start>58283</start>
						<end>58658</end>
						<in>375</in>
						<out>750</out>
						<pproTicksIn>3810240000000</pproTicksIn>
						<pproTicksOut>7620480000000</pproTicksOut>
						<sequence id="sequence-118"/>
							<marker>
								<comment></comment>
								<name></name>
								<in>425</in>
								<out>-1</out>
								<pproColor>4292277273</pproColor>
							</marker>
							<marker>
								<comment></comment>
								<name></name>
								<in>50</in>
								<out>-1</out>
								<pproColor>4292277273</pproColor>
							</marker>
							<marker>
								<comment></comment>
								<name></name>
								<in>800</in>
								<out>-1</out>
								<pproColor>4292277273</pproColor>
							</marker>
						<labels>
							<label2>Forest</label2>
						</labels>
					</clipitem>
					<clipitem id="clipitem-1402">
						<masterclipid>masterclip-631</masterclipid>
						<name>2</name>
						<enabled>TRUE</enabled>
						<duration>1125</duration>
						<rate>
							<timebase>25</timebase>
							<ntsc>FALSE</ntsc>
						</rate>
						<start>59910</start>
						<end>60285</end>
						<in>750</in>
						<out>1125</out>
						<pproTicksIn>7620480000000</pproTicksIn>
						<pproTicksOut>11430720000000</pproTicksOut>
						<sequence id="sequence-118"/>
							<marker>
								<comment></comment>
								<name></name>
								<in>425</in>
								<out>-1</out>
								<pproColor>4292277273</pproColor>
							</marker>
							<marker>
								<comment></comment>
								<name></name>
								<in>50</in>
								<out>-1</out>
								<pproColor>4292277273</pproColor>
							</marker>
							<marker>
								<comment></comment>
								<name></name>
								<in>800</in>
								<out>-1</out>
								<pproColor>4292277273</pproColor>
							</marker>
						<labels>
							<label2>Forest</label2>
						</labels>
					</clipitem>
					<clipitem id="clipitem-1403">
						<masterclipid>masterclip-636</masterclipid>
						<name>1</name>
						<enabled>TRUE</enabled>
						<duration>1125</duration>
						<rate>
							<timebase>25</timebase>
							<ntsc>FALSE</ntsc>
						</rate>
						<start>62662</start>
						<end>63037</end>
						<in>0</in>
						<out>375</out>
						<pproTicksIn>0</pproTicksIn>
						<pproTicksOut>3810240000000</pproTicksOut>
						<sequence id="sequence-119" TL.SQAudioVisibleBase="0" TL.SQVideoVisibleBase="0" TL.SQVisibleBaseTime="0" TL.SQAVDividerPosition="0.5" TL.SQHideShyTracks="0" TL.SQHeaderWidth="236" Monitor.ProgramZoomOut="7620480000000" Monitor.ProgramZoomIn="0" TL.SQTimePerPixel="0.19620667102680814" AM.TrackVScrollPosition="0" AM.TrackScrollPosition="0" MZ.EditLine="9815178240000" MZ.Sequence.PreviewFrameSizeHeight="576" MZ.Sequence.PreviewFrameSizeWidth="720" MZ.Sequence.AudioTimeDisplayFormat="200" MZ.Sequence.PreviewRenderingClassID="1061109567" MZ.Sequence.PreviewRenderingPresetCodec="1685480304" MZ.Sequence.PreviewRenderingPresetPath="EncoderPresets/SequencePreview/04be6e19-a018-4e0c-a9d6-0ab44c64752b/QuickTime DV PAL.epr" MZ.Sequence.PreviewUseMaxRenderQuality="false" MZ.Sequence.PreviewUseMaxBitDepth="false" MZ.Sequence.EditingModeGUID="04be6e19-a018-4e0c-a9d6-0ab44c64752b" MZ.Sequence.VideoTimeDisplayFormat="101" MZ.WorkOutPoint="11430720000000" MZ.WorkInPoint="0" MZ.ZeroPoint="0">
							<duration>750</duration>
							<rate>
								<timebase>25</timebase>
								<ntsc>FALSE</ntsc>
							</rate>
							<name>RU_Nested</name>
							<media>
								<video>
									<format>
										<samplecharacteristics>
											<rate>
												<timebase>25</timebase>
												<ntsc>FALSE</ntsc>
											</rate>
											<codec>
												<name>Apple ProRes 422</name>
												<appspecificdata>
													<appname>Final Cut Pro</appname>
													<appmanufacturer>Apple Inc.</appmanufacturer>
													<appversion>7.0</appversion>
													<data>
														<qtcodec>
															<codecname>Apple ProRes 422</codecname>
															<codectypename>Apple ProRes 422</codectypename>
															<codectypecode>apcn</codectypecode>
															<codecvendorcode>appl</codecvendorcode>
															<spatialquality>1024</spatialquality>
															<temporalquality>0</temporalquality>
															<keyframerate>0</keyframerate>
															<datarate>0</datarate>
														</qtcodec>
													</data>
												</appspecificdata>
											</codec>
											<width>720</width>
											<height>576</height>
											<anamorphic>TRUE</anamorphic>
											<pixelaspectratio>PAL-601</pixelaspectratio>
											<fielddominance>lower</fielddominance>
											<colordepth>24</colordepth>
										</samplecharacteristics>
									</format>
									<track TL.SQTrackShy="0" TL.SQTrackExpandedHeight="25" TL.SQTrackExpanded="0" MZ.TrackTargeted="1">
										<clipitem id="clipitem-1404">
											<masterclipid>masterclip-585</masterclipid>
											<name>Plashka_Right_DV.mov</name>
											<enabled>TRUE</enabled>
											<duration>375</duration>
											<rate>
												<timebase>25</timebase>
												<ntsc>FALSE</ntsc>
											</rate>
											<start>0</start>
											<end>375</end>
											<in>0</in>
											<out>375</out>
											<pproTicksIn>0</pproTicksIn>
											<pproTicksOut>3810240000000</pproTicksOut>
											<alphatype>straight</alphatype>
											<file id="file-484"/>
											<filter>
												<effect>
													<name>Basic Motion</name>
													<effectid>basic</effectid>
													<effectcategory>motion</effectcategory>
													<effecttype>motion</effecttype>
													<mediatype>video</mediatype>
													<pproBypass>false</pproBypass>
													<parameter authoringApp="PremierePro">
														<parameterid>scale</parameterid>
														<name>Scale</name>
														<valuemin>0</valuemin>
														<valuemax>1000</valuemax>
														<value>100</value>
													</parameter>
													<parameter authoringApp="PremierePro">
														<parameterid>rotation</parameterid>
														<name>Rotation</name>
														<valuemin>-8640</valuemin>
														<valuemax>8640</valuemax>
														<value>0</value>
													</parameter>
													<parameter authoringApp="PremierePro">
														<parameterid>center</parameterid>
														<name>Center</name>
														<value>
															<horiz>-5.55112e-17</horiz>
															<vert>-1.11022e-16</vert>
														</value>
													</parameter>
													<parameter authoringApp="PremierePro">
														<parameterid>centerOffset</parameterid>
														<name>Anchor Point</name>
														<value>
															<horiz>0.402314</horiz>
															<vert>0.41875</vert>
														</value>
													</parameter>
													<parameter authoringApp="PremierePro">
														<parameterid>antiflicker</parameterid>
														<name>Anti-flicker Filter</name>
														<valuemin>0.0</valuemin>
														<valuemax>1.0</valuemax>
														<value>0</value>
													</parameter>
												</effect>
											</filter>
											<logginginfo>
												<description></description>
												<scene></scene>
												<shottake></shottake>
												<lognote></lognote>
												<good></good>
												<originalvideofilename></originalvideofilename>
												<originalaudiofilename></originalaudiofilename>
											</logginginfo>
											<colorinfo>
												<lut></lut>
												<lut1></lut1>
												<asc_sop></asc_sop>
												<asc_sat></asc_sat>
												<lut2></lut2>
											</colorinfo>
											<labels>
												<label2>Violet</label2>
											</labels>
										</clipitem>
										<clipitem id="clipitem-1405">
											<masterclipid>masterclip-585</masterclipid>
											<name>Plashka_Right_DV.mov</name>
											<enabled>TRUE</enabled>
											<duration>375</duration>
											<rate>
												<timebase>25</timebase>
												<ntsc>FALSE</ntsc>
											</rate>
											<start>375</start>
											<end>750</end>
											<in>0</in>
											<out>375</out>
											<pproTicksIn>0</pproTicksIn>
											<pproTicksOut>3810240000000</pproTicksOut>
											<alphatype>straight</alphatype>
											<file id="file-484"/>
											<filter>
												<effect>
													<name>Basic Motion</name>
													<effectid>basic</effectid>
													<effectcategory>motion</effectcategory>
													<effecttype>motion</effecttype>
													<mediatype>video</mediatype>
													<pproBypass>false</pproBypass>
													<parameter authoringApp="PremierePro">
														<parameterid>scale</parameterid>
														<name>Scale</name>
														<valuemin>0</valuemin>
														<valuemax>1000</valuemax>
														<value>101</value>
													</parameter>
													<parameter authoringApp="PremierePro">
														<parameterid>rotation</parameterid>
														<name>Rotation</name>
														<valuemin>-8640</valuemin>
														<valuemax>8640</valuemax>
														<value>0</value>
													</parameter>
													<parameter authoringApp="PremierePro">
														<parameterid>center</parameterid>
														<name>Center</name>
														<value>
															<horiz>-5.55112e-17</horiz>
															<vert>-1.11022e-16</vert>
														</value>
													</parameter>
													<parameter authoringApp="PremierePro">
														<parameterid>centerOffset</parameterid>
														<name>Anchor Point</name>
														<value>
															<horiz>0.402314</horiz>
															<vert>0.41875</vert>
														</value>
													</parameter>
													<parameter authoringApp="PremierePro">
														<parameterid>antiflicker</parameterid>
														<name>Anti-flicker Filter</name>
														<valuemin>0.0</valuemin>
														<valuemax>1.0</valuemax>
														<value>0</value>
													</parameter>
												</effect>
											</filter>
											<filter>
												<effect>
													<name>Distort</name>
													<effectid>deformation</effectid>
													<effectcategory>motion</effectcategory>
													<effecttype>motion</effecttype>
													<mediatype>video</mediatype>
													<parameter authoringApp="PremierePro">
														<parameterid>aspect</parameterid>
														<name>Aspect</name>
														<valuemin>-10000</valuemin>
														<valuemax>10000</valuemax>
														<value>-1</value>
													</parameter>
												</effect>
											</filter>
											<logginginfo>
												<description></description>
												<scene></scene>
												<shottake></shottake>
												<lognote></lognote>
												<good></good>
												<originalvideofilename></originalvideofilename>
												<originalaudiofilename></originalaudiofilename>
											</logginginfo>
											<colorinfo>
												<lut></lut>
												<lut1></lut1>
												<asc_sop></asc_sop>
												<asc_sat></asc_sat>
												<lut2></lut2>
											</colorinfo>
											<labels>
												<label2>Violet</label2>
											</labels>
										</clipitem>
										<enabled>TRUE</enabled>
										<locked>FALSE</locked>
									</track>
									<track TL.SQTrackShy="0" TL.SQTrackExpandedHeight="25" TL.SQTrackExpanded="0" MZ.TrackTargeted="0">
										<transitionitem>
											<start>6</start>
											<end>35</end>
											<alignment>start-black</alignment>
											<cutPointTicks>0</cutPointTicks>
											<rate>
												<timebase>25</timebase>
												<ntsc>FALSE</ntsc>
											</rate>
											<effect>
												<name>Edge Wipe</name>
												<effectid>Edge Wipe</effectid>
												<effectcategory>Wipe</effectcategory>
												<effecttype>transition</effecttype>
												<mediatype>video</mediatype>
												<wipecode>2</wipecode>
												<wipeaccuracy>100</wipeaccuracy>
												<startratio>0</startratio>
												<endratio>1</endratio>
												<reverse>FALSE</reverse>
												<parameter authoringApp="PremierePro">
													<parameterid>directionofwipe</parameterid>
													<name>Angle</name>
													<valuemin>-360</valuemin>
													<valuemax>360</valuemax>
													<value>270</value>
												</parameter>
											</effect>
										</transitionitem>
										<clipitem id="clipitem-1406">
											<masterclipid>masterclip-637</masterclipid>
											<name>1_1.png</name>
											<enabled>TRUE</enabled>
											<duration>1080000</duration>
											<rate>
												<timebase>25</timebase>
												<ntsc>FALSE</ntsc>
											</rate>
											<start>-1</start>
											<end>-1</end>
											<in>90006</in>
											<out>90369</out>
											<pproTicksIn>914518563840000</pproTicksIn>
											<pproTicksOut>918206876160000</pproTicksOut>
											<alphatype>straight</alphatype>
											<pixelaspectratio>square</pixelaspectratio>
											<anamorphic>FALSE</anamorphic>
											<file id="file-525">
												<name>1_1.png</name>
												<pathurl>file://localhost/_MUZ_TV/project_AP/RU/_TITLE/468/PNG/1_1.png</pathurl>
												<rate>
													<timebase>30</timebase>
													<ntsc>TRUE</ntsc>
												</rate>
												<timecode>
													<rate>
														<timebase>30</timebase>
														<ntsc>TRUE</ntsc>
													</rate>
													<string>00;00;00;00</string>
													<frame>0</frame>
													<displayformat>DF</displayformat>
												</timecode>
												<media>
													<video>
														<samplecharacteristics>
															<rate>
																<timebase>30</timebase>
																<ntsc>TRUE</ntsc>
															</rate>
															<width>1920</width>
															<height>1080</height>
															<anamorphic>FALSE</anamorphic>
															<pixelaspectratio>square</pixelaspectratio>
															<fielddominance>none</fielddominance>
														</samplecharacteristics>
													</video>
												</media>
											</file>
											<filter>
												<effect>
													<name>Basic Motion</name>
													<effectid>basic</effectid>
													<effectcategory>motion</effectcategory>
													<effecttype>motion</effecttype>
													<mediatype>video</mediatype>
													<pproBypass>false</pproBypass>
													<parameter authoringApp="PremierePro">
														<parameterid>scale</parameterid>
														<name>Scale</name>
														<valuemin>0</valuemin>
														<valuemax>1000</valuemax>
														<value>53.3333</value>
													</parameter>
													<parameter authoringApp="PremierePro">
														<parameterid>rotation</parameterid>
														<name>Rotation</name>
														<valuemin>-8640</valuemin>
														<valuemax>8640</valuemax>
														<value>0</value>
													</parameter>
													<parameter authoringApp="PremierePro">
														<parameterid>center</parameterid>
														<name>Center</name>
														<value>
															<horiz>0</horiz>
															<vert>0</vert>
														</value>
													</parameter>
													<parameter authoringApp="PremierePro">
														<parameterid>centerOffset</parameterid>
														<name>Anchor Point</name>
														<value>
															<horiz>0</horiz>
															<vert>0</vert>
														</value>
													</parameter>
													<parameter authoringApp="PremierePro">
														<parameterid>antiflicker</parameterid>
														<name>Anti-flicker Filter</name>
														<valuemin>0.0</valuemin>
														<valuemax>1.0</valuemax>
														<value>0</value>
													</parameter>
												</effect>
											</filter>
											<logginginfo>
												<description></description>
												<scene></scene>
												<shottake></shottake>
												<lognote></lognote>
												<good></good>
												<originalvideofilename></originalvideofilename>
												<originalaudiofilename></originalaudiofilename>
											</logginginfo>
											<colorinfo>
												<lut></lut>
												<lut1></lut1>
												<asc_sop></asc_sop>
												<asc_sat></asc_sat>
												<lut2></lut2>
											</colorinfo>
											<labels>
												<label2>Lavender</label2>
											</labels>
										</clipitem>
										<transitionitem>
											<start>344</start>
											<end>369</end>
											<alignment>end-black</alignment>
											<cutPointTicks>254016000000</cutPointTicks>
											<rate>
												<timebase>25</timebase>
												<ntsc>FALSE</ntsc>
											</rate>
											<effect>
												<name>Edge Wipe</name>
												<effectid>Edge Wipe</effectid>
												<effectcategory>Wipe</effectcategory>
												<effecttype>transition</effecttype>
												<mediatype>video</mediatype>
												<wipecode>2</wipecode>
												<wipeaccuracy>100</wipeaccuracy>
												<startratio>0</startratio>
												<endratio>1</endratio>
												<reverse>FALSE</reverse>
												<parameter authoringApp="PremierePro">
													<parameterid>directionofwipe</parameterid>
													<name>Angle</name>
													<valuemin>-360</valuemin>
													<valuemax>360</valuemax>
													<value>90</value>
												</parameter>
											</effect>
										</transitionitem>
										<transitionitem>
											<start>381</start>
											<end>410</end>
											<alignment>start-black</alignment>
											<cutPointTicks>0</cutPointTicks>
											<rate>
												<timebase>25</timebase>
												<ntsc>FALSE</ntsc>
											</rate>
											<effect>
												<name>Edge Wipe</name>
												<effectid>Edge Wipe</effectid>
												<effectcategory>Wipe</effectcategory>
												<effecttype>transition</effecttype>
												<mediatype>video</mediatype>
												<wipecode>2</wipecode>
												<wipeaccuracy>100</wipeaccuracy>
												<startratio>0</startratio>
												<endratio>1</endratio>
												<reverse>FALSE</reverse>
												<parameter authoringApp="PremierePro">
													<parameterid>directionofwipe</parameterid>
													<name>Angle</name>
													<valuemin>-360</valuemin>
													<valuemax>360</valuemax>
													<value>270</value>
												</parameter>
											</effect>
										</transitionitem>
										<clipitem id="clipitem-1407">
											<masterclipid>masterclip-638</masterclipid>
											<name>1_2.png</name>
											<enabled>TRUE</enabled>
											<duration>1080000</duration>
											<rate>
												<timebase>25</timebase>
												<ntsc>FALSE</ntsc>
											</rate>
											<start>-1</start>
											<end>-1</end>
											<in>90011</in>
											<out>90374</out>
											<pproTicksIn>914569367040000</pproTicksIn>
											<pproTicksOut>918257679360000</pproTicksOut>
											<alphatype>straight</alphatype>
											<pixelaspectratio>square</pixelaspectratio>
											<anamorphic>FALSE</anamorphic>
											<file id="file-526">
												<name>1_2.png</name>
												<pathurl>file://localhost/_MUZ_TV/project_AP/RU/_TITLE/468/PNG/1_2.png</pathurl>
												<rate>
													<timebase>30</timebase>
													<ntsc>TRUE</ntsc>
												</rate>
												<timecode>
													<rate>
														<timebase>30</timebase>
														<ntsc>TRUE</ntsc>
													</rate>
													<string>00;00;00;00</string>
													<frame>0</frame>
													<displayformat>DF</displayformat>
												</timecode>
												<media>
													<video>
														<samplecharacteristics>
															<rate>
																<timebase>30</timebase>
																<ntsc>TRUE</ntsc>
															</rate>
															<width>1920</width>
															<height>1080</height>
															<anamorphic>FALSE</anamorphic>
															<pixelaspectratio>square</pixelaspectratio>
															<fielddominance>none</fielddominance>
														</samplecharacteristics>
													</video>
												</media>
											</file>
											<filter>
												<effect>
													<name>Basic Motion</name>
													<effectid>basic</effectid>
													<effectcategory>motion</effectcategory>
													<effecttype>motion</effecttype>
													<mediatype>video</mediatype>
													<pproBypass>false</pproBypass>
													<parameter authoringApp="PremierePro">
														<parameterid>scale</parameterid>
														<name>Scale</name>
														<valuemin>0</valuemin>
														<valuemax>1000</valuemax>
														<value>53.3333</value>
													</parameter>
													<parameter authoringApp="PremierePro">
														<parameterid>rotation</parameterid>
														<name>Rotation</name>
														<valuemin>-8640</valuemin>
														<valuemax>8640</valuemax>
														<value>0</value>
													</parameter>
													<parameter authoringApp="PremierePro">
														<parameterid>center</parameterid>
														<name>Center</name>
														<value>
															<horiz>0</horiz>
															<vert>0</vert>
														</value>
													</parameter>
													<parameter authoringApp="PremierePro">
														<parameterid>centerOffset</parameterid>
														<name>Anchor Point</name>
														<value>
															<horiz>0</horiz>
															<vert>0</vert>
														</value>
													</parameter>
													<parameter authoringApp="PremierePro">
														<parameterid>antiflicker</parameterid>
														<name>Anti-flicker Filter</name>
														<valuemin>0.0</valuemin>
														<valuemax>1.0</valuemax>
														<value>0</value>
													</parameter>
												</effect>
											</filter>
											<logginginfo>
												<description></description>
												<scene></scene>
												<shottake></shottake>
												<lognote></lognote>
												<good></good>
												<originalvideofilename></originalvideofilename>
												<originalaudiofilename></originalaudiofilename>
											</logginginfo>
											<colorinfo>
												<lut></lut>
												<lut1></lut1>
												<asc_sop></asc_sop>
												<asc_sat></asc_sat>
												<lut2></lut2>
											</colorinfo>
											<labels>
												<label2>Lavender</label2>
											</labels>
										</clipitem>
										<transitionitem>
											<start>719</start>
											<end>744</end>
											<alignment>end-black</alignment>
											<cutPointTicks>254016000000</cutPointTicks>
											<rate>
												<timebase>25</timebase>
												<ntsc>FALSE</ntsc>
											</rate>
											<effect>
												<name>Edge Wipe</name>
												<effectid>Edge Wipe</effectid>
												<effectcategory>Wipe</effectcategory>
												<effecttype>transition</effecttype>
												<mediatype>video</mediatype>
												<wipecode>2</wipecode>
												<wipeaccuracy>100</wipeaccuracy>
												<startratio>0</startratio>
												<endratio>1</endratio>
												<reverse>FALSE</reverse>
												<parameter authoringApp="PremierePro">
													<parameterid>directionofwipe</parameterid>
													<name>Angle</name>
													<valuemin>-360</valuemin>
													<valuemax>360</valuemax>
													<value>90</value>
												</parameter>
											</effect>
										</transitionitem>
										<enabled>TRUE</enabled>
										<locked>FALSE</locked>
									</track>
									<track TL.SQTrackShy="0" TL.SQTrackExpandedHeight="25" TL.SQTrackExpanded="0" MZ.TrackTargeted="0">
										<enabled>TRUE</enabled>
										<locked>FALSE</locked>
									</track>
								</video>
								<audio>
									<numOutputChannels>2</numOutputChannels>
									<format>
										<samplecharacteristics>
											<depth>16</depth>
											<samplerate>48000</samplerate>
										</samplecharacteristics>
									</format>
									<outputs>
										<group>
											<index>1</index>
											<numchannels>1</numchannels>
											<downmix>0</downmix>
											<channel>
												<index>1</index>
											</channel>
										</group>
										<group>
											<index>2</index>
											<numchannels>1</numchannels>
											<downmix>0</downmix>
											<channel>
												<index>2</index>
											</channel>
										</group>
									</outputs>
									<track TL.SQTrackAudioKeyframeStyle="0" TL.SQTrackShy="0" TL.SQTrackExpandedHeight="25" TL.SQTrackExpanded="0" MZ.TrackTargeted="1" PannerCurrentValue="0.5" PannerStartKeyframe="-91445760000000000,0.5,0,0,0,0,0,0" PannerName="Balance" currentExplodedTrackIndex="0" totalExplodedTrackCount="2" premiereTrackType="Stereo">
										<enabled>TRUE</enabled>
										<locked>FALSE</locked>
										<outputchannelindex>1</outputchannelindex>
									</track>
									<track TL.SQTrackAudioKeyframeStyle="0" TL.SQTrackShy="0" TL.SQTrackExpandedHeight="25" TL.SQTrackExpanded="0" MZ.TrackTargeted="1" PannerCurrentValue="0.5" PannerStartKeyframe="-91445760000000000,0.5,0,0,0,0,0,0" PannerName="Balance" currentExplodedTrackIndex="1" totalExplodedTrackCount="2" premiereTrackType="Stereo">
										<enabled>TRUE</enabled>
										<locked>FALSE</locked>
										<outputchannelindex>2</outputchannelindex>
									</track>
								</audio>
							</media>
							<timecode>
								<rate>
									<timebase>25</timebase>
									<ntsc>FALSE</ntsc>
								</rate>
								<string>00:00:00:00</string>
								<frame>0</frame>
								<displayformat>NDF</displayformat>
							</timecode>
								<marker>
									<comment></comment>
									<name></name>
									<in>800</in>
									<out>-1</out>
									<pproColor>4292277273</pproColor>
								</marker>
								<marker>
									<comment></comment>
									<name></name>
									<in>50</in>
									<out>-1</out>
									<pproColor>4292277273</pproColor>
								</marker>
								<marker>
									<comment></comment>
									<name></name>
									<in>425</in>
									<out>-1</out>
									<pproColor>4292277273</pproColor>
								</marker>
							<logginginfo>
								<description></description>
								<scene></scene>
								<shottake></shottake>
								<lognote></lognote>
								<good></good>
								<originalvideofilename></originalvideofilename>
								<originalaudiofilename></originalaudiofilename>
							</logginginfo>
						</sequence>
							<marker>
								<comment></comment>
								<name></name>
								<in>800</in>
								<out>-1</out>
								<pproColor>4292277273</pproColor>
							</marker>
							<marker>
								<comment></comment>
								<name></name>
								<in>50</in>
								<out>-1</out>
								<pproColor>4292277273</pproColor>
							</marker>
							<marker>
								<comment></comment>
								<name></name>
								<in>425</in>
								<out>-1</out>
								<pproColor>4292277273</pproColor>
							</marker>
						<labels>
							<label2>Forest</label2>
						</labels>
					</clipitem>
					<clipitem id="clipitem-1408">
						<masterclipid>masterclip-636</masterclipid>
						<name>1</name>
						<enabled>TRUE</enabled>
						<duration>1125</duration>
						<rate>
							<timebase>25</timebase>
							<ntsc>FALSE</ntsc>
						</rate>
						<start>63770</start>
						<end>64145</end>
						<in>375</in>
						<out>750</out>
						<pproTicksIn>3810240000000</pproTicksIn>
						<pproTicksOut>7620480000000</pproTicksOut>
						<sequence id="sequence-119"/>
							<marker>
								<comment></comment>
								<name></name>
								<in>800</in>
								<out>-1</out>
								<pproColor>4292277273</pproColor>
							</marker>
							<marker>
								<comment></comment>
								<name></name>
								<in>50</in>
								<out>-1</out>
								<pproColor>4292277273</pproColor>
							</marker>
							<marker>
								<comment></comment>
								<name></name>
								<in>425</in>
								<out>-1</out>
								<pproColor>4292277273</pproColor>
							</marker>
						<labels>
							<label2>Forest</label2>
						</labels>
					</clipitem>
					<enabled>TRUE</enabled>
					<locked>FALSE</locked>
				</track>
			</video>
			<audio>
				<numOutputChannels>2</numOutputChannels>
				<format>
					<samplecharacteristics>
						<depth>16</depth>
						<samplerate>48000</samplerate>
					</samplecharacteristics>
				</format>
				<outputs>
					<group>
						<index>1</index>
						<numchannels>1</numchannels>
						<downmix>0</downmix>
						<channel>
							<index>1</index>
						</channel>
					</group>
					<group>
						<index>2</index>
						<numchannels>1</numchannels>
						<downmix>0</downmix>
						<channel>
							<index>2</index>
						</channel>
					</group>
				</outputs>
				<track TL.SQTrackAudioKeyframeStyle="0" TL.SQTrackShy="0" TL.SQTrackExpandedHeight="85" TL.SQTrackExpanded="0" MZ.TrackTargeted="0" PannerCurrentValue="0.5" PannerIsInverted="true" PannerStartKeyframe="-91445760000000000,0.5,0,0,0,0,0,0" PannerName="Balance" currentExplodedTrackIndex="0" totalExplodedTrackCount="2" premiereTrackType="Stereo">
					<clipitem id="clipitem-1409" premiereChannelType="stereo">
						<masterclipid>masterclip-496</masterclipid>
						<name>MYZ_RusskiyChart_appProRes_v2.mov</name>
						<enabled>TRUE</enabled>
						<duration>299</duration>
						<rate>
							<timebase>25</timebase>
							<ntsc>FALSE</ntsc>
						</rate>
						<start>0</start>
						<end>274</end>
						<in>0</in>
						<out>274</out>
						<pproTicksIn>0</pproTicksIn>
						<pproTicksOut>2784015360000</pproTicksOut>
						<file id="file-412"/>
						<sourcetrack>
							<mediatype>audio</mediatype>
							<trackindex>1</trackindex>
						</sourcetrack>
						<filter>
							<effect>
								<name>Audio Levels</name>
								<effectid>audiolevels</effectid>
								<effectcategory>audiolevels</effectcategory>
								<effecttype>audiolevels</effecttype>
								<mediatype>audio</mediatype>
								<pproBypass>false</pproBypass>
								<parameter authoringApp="PremierePro">
									<parameterid>level</parameterid>
									<name>Level</name>
									<valuemin>0</valuemin>
									<valuemax>3.98109</valuemax>
									<value>0</value>
									<keyframe>
										<when>262</when>
										<value>0.158489</value>
									</keyframe>
									<keyframe>
										<when>272</when>
										<value>0</value>
									</keyframe>
								</parameter>
							</effect>
						</filter>
						<link>
							<linkclipref>clipitem-1168</linkclipref>
							<mediatype>video</mediatype>
							<trackindex>1</trackindex>
							<clipindex>1</clipindex>
						</link>
						<link>
							<linkclipref>clipitem-1409</linkclipref>
							<mediatype>audio</mediatype>
							<trackindex>1</trackindex>
							<clipindex>1</clipindex>
							<groupindex>1</groupindex>
						</link>
						<link>
							<linkclipref>clipitem-1447</linkclipref>
							<mediatype>audio</mediatype>
							<trackindex>2</trackindex>
							<clipindex>1</clipindex>
							<groupindex>1</groupindex>
						</link>
						<logginginfo>
							<description></description>
							<scene></scene>
							<shottake></shottake>
							<lognote></lognote>
							<good></good>
							<originalvideofilename></originalvideofilename>
							<originalaudiofilename></originalaudiofilename>
						</logginginfo>
						<colorinfo>
							<lut></lut>
							<lut1></lut1>
							<asc_sop></asc_sop>
							<asc_sat></asc_sat>
							<lut2></lut2>
						</colorinfo>
						<labels>
							<label2>Iris</label2>
						</labels>
					</clipitem>
					<clipitem id="clipitem-1410" premiereChannelType="stereo">
						<masterclipid>masterclip-497</masterclipid>
						<name>Nested Sequence 468</name>
						<enabled>TRUE</enabled>
						<duration>7503</duration>
						<rate>
							<timebase>25</timebase>
							<ntsc>FALSE</ntsc>
						</rate>
						<start>274</start>
						<end>742</end>
						<in>14</in>
						<out>482</out>
						<pproTicksIn>142248960000</pproTicksIn>
						<pproTicksOut>4897428480000</pproTicksOut>
						<sequence id="sequence-92"/>
						<sourcetrack>
							<mediatype>audio</mediatype>
							<trackindex>0</trackindex>
						</sourcetrack>
						<filter>
							<effect>
								<name>Audio Levels</name>
								<effectid>audiolevels</effectid>
								<effectcategory>audiolevels</effectcategory>
								<effecttype>audiolevels</effecttype>
								<mediatype>audio</mediatype>
								<pproBypass>false</pproBypass>
								<parameter authoringApp="PremierePro">
									<parameterid>level</parameterid>
									<name>Level</name>
									<valuemin>0</valuemin>
									<valuemax>3.98109</valuemax>
									<value>1</value>
									<keyframe>
										<when>18</when>
										<value>0</value>
									</keyframe>
									<keyframe>
										<when>19</when>
										<value>1</value>
									</keyframe>
								</parameter>
							</effect>
						</filter>
						<link>
							<linkclipref>clipitem-1169</linkclipref>
							<mediatype>video</mediatype>
							<trackindex>1</trackindex>
							<clipindex>2</clipindex>
						</link>
						<link>
							<linkclipref>clipitem-1410</linkclipref>
							<mediatype>audio</mediatype>
							<trackindex>1</trackindex>
							<clipindex>2</clipindex>
							<groupindex>1</groupindex>
						</link>
						<link>
							<linkclipref>clipitem-1448</linkclipref>
							<mediatype>audio</mediatype>
							<trackindex>2</trackindex>
							<clipindex>2</clipindex>
							<groupindex>1</groupindex>
						</link>
						<labels>
							<label2>Forest</label2>
						</labels>
					</clipitem>
					<clipitem id="clipitem-1411" premiereChannelType="stereo">
						<masterclipid>masterclip-500</masterclipid>
						<name>ВАЛЕРИЙ МЕЛАДЗЕ_ПОЛЮБИЛ___MSWCLP004836.mov</name>
						<enabled>TRUE</enabled>
						<duration>13128</duration>
						<rate>
							<timebase>25</timebase>
							<ntsc>FALSE</ntsc>
						</rate>
						<start>817</start>
						<end>7376</end>
						<in>0</in>
						<out>6559</out>
						<pproTicksIn>0</pproTicksIn>
						<pproTicksOut>66643637760000</pproTicksOut>
						<file id="file-415"/>
						<sourcetrack>
							<mediatype>audio</mediatype>
							<trackindex>1</trackindex>
						</sourcetrack>
						<filter>
							<effect>
								<name>Audio Levels</name>
								<effectid>audiolevels</effectid>
								<effectcategory>audiolevels</effectcategory>
								<effecttype>audiolevels</effecttype>
								<mediatype>audio</mediatype>
								<pproBypass>false</pproBypass>
								<parameter authoringApp="PremierePro">
									<parameterid>level</parameterid>
									<name>Level</name>
									<valuemin>0</valuemin>
									<valuemax>3.98109</valuemax>
									<value>1</value>
									<keyframe>
										<when>6219</when>
										<value>1</value>
									</keyframe>
									<keyframe>
										<when>6471</when>
										<value>1</value>
									</keyframe>
								</parameter>
							</effect>
						</filter>
						<link>
							<linkclipref>clipitem-1174</linkclipref>
							<mediatype>video</mediatype>
							<trackindex>1</trackindex>
							<clipindex>4</clipindex>
						</link>
						<link>
							<linkclipref>clipitem-1411</linkclipref>
							<mediatype>audio</mediatype>
							<trackindex>1</trackindex>
							<clipindex>3</clipindex>
							<groupindex>1</groupindex>
						</link>
						<link>
							<linkclipref>clipitem-1449</linkclipref>
							<mediatype>audio</mediatype>
							<trackindex>2</trackindex>
							<clipindex>3</clipindex>
							<groupindex>1</groupindex>
						</link>
						<logginginfo>
							<description></description>
							<scene></scene>
							<shottake></shottake>
							<lognote></lognote>
							<good></good>
							<originalvideofilename></originalvideofilename>
							<originalaudiofilename></originalaudiofilename>
						</logginginfo>
						<colorinfo>
							<lut></lut>
							<lut1></lut1>
							<asc_sop></asc_sop>
							<asc_sat></asc_sat>
							<lut2></lut2>
						</colorinfo>
						<labels>
							<label2>Iris</label2>
						</labels>
					</clipitem>
					<clipitem id="clipitem-1412" premiereChannelType="stereo">
						<masterclipid>masterclip-501</masterclipid>
						<name>MYZ_RusskiyChart_OtbivkaMini_h264_v2.mp4</name>
						<enabled>TRUE</enabled>
						<duration>74</duration>
						<rate>
							<timebase>25</timebase>
							<ntsc>FALSE</ntsc>
						</rate>
						<start>7376</start>
						<end>7436</end>
						<in>0</in>
						<out>60</out>
						<pproTicksIn>0</pproTicksIn>
						<pproTicksOut>609638400000</pproTicksOut>
						<file id="file-416"/>
						<sourcetrack>
							<mediatype>audio</mediatype>
							<trackindex>1</trackindex>
						</sourcetrack>
						<filter>
							<effect>
								<name>Audio Levels</name>
								<effectid>audiolevels</effectid>
								<effectcategory>audiolevels</effectcategory>
								<effecttype>audiolevels</effecttype>
								<mediatype>audio</mediatype>
								<pproBypass>false</pproBypass>
								<parameter authoringApp="PremierePro">
									<parameterid>level</parameterid>
									<name>Level</name>
									<valuemin>0</valuemin>
									<valuemax>3.98109</valuemax>
									<value>0.258297</value>
									<keyframe>
										<when>60</when>
										<value>0.251189</value>
									</keyframe>
									<keyframe>
										<when>70</when>
										<value>0.258297</value>
									</keyframe>
								</parameter>
							</effect>
						</filter>
						<link>
							<linkclipref>clipitem-1175</linkclipref>
							<mediatype>video</mediatype>
							<trackindex>1</trackindex>
							<clipindex>5</clipindex>
						</link>
						<link>
							<linkclipref>clipitem-1412</linkclipref>
							<mediatype>audio</mediatype>
							<trackindex>1</trackindex>
							<clipindex>4</clipindex>
							<groupindex>1</groupindex>
						</link>
						<link>
							<linkclipref>clipitem-1450</linkclipref>
							<mediatype>audio</mediatype>
							<trackindex>2</trackindex>
							<clipindex>4</clipindex>
							<groupindex>1</groupindex>
						</link>
						<logginginfo>
							<description></description>
							<scene></scene>
							<shottake></shottake>
							<lognote></lognote>
							<good></good>
							<originalvideofilename></originalvideofilename>
							<originalaudiofilename></originalaudiofilename>
						</logginginfo>
						<colorinfo>
							<lut></lut>
							<lut1></lut1>
							<asc_sop></asc_sop>
							<asc_sat></asc_sat>
							<lut2></lut2>
						</colorinfo>
						<labels>
							<label2>Purple</label2>
						</labels>
					</clipitem>
					<clipitem id="clipitem-1413" premiereChannelType="stereo">
						<masterclipid>masterclip-497</masterclipid>
						<name>Nested Sequence 468</name>
						<enabled>TRUE</enabled>
						<duration>7503</duration>
						<rate>
							<timebase>25</timebase>
							<ntsc>FALSE</ntsc>
						</rate>
						<start>7436</start>
						<end>7811</end>
						<in>502</in>
						<out>877</out>
						<pproTicksIn>5100641280000</pproTicksIn>
						<pproTicksOut>8910881280000</pproTicksOut>
						<sequence id="sequence-92"/>
						<sourcetrack>
							<mediatype>audio</mediatype>
							<trackindex>0</trackindex>
						</sourcetrack>
						<filter>
							<effect>
								<name>Audio Levels</name>
								<effectid>audiolevels</effectid>
								<effectcategory>audiolevels</effectcategory>
								<effecttype>audiolevels</effecttype>
								<mediatype>audio</mediatype>
								<pproBypass>false</pproBypass>
								<parameter authoringApp="PremierePro">
									<parameterid>level</parameterid>
									<name>Level</name>
									<valuemin>0</valuemin>
									<valuemax>3.98109</valuemax>
									<value>1</value>
									<keyframe>
										<when>18</when>
										<value>0</value>
									</keyframe>
									<keyframe>
										<when>19</when>
										<value>0</value>
									</keyframe>
									<keyframe>
										<when>507</when>
										<value>0</value>
									</keyframe>
									<keyframe>
										<when>509</when>
										<value>1</value>
									</keyframe>
								</parameter>
							</effect>
						</filter>
						<link>
							<linkclipref>clipitem-1176</linkclipref>
							<mediatype>video</mediatype>
							<trackindex>1</trackindex>
							<clipindex>6</clipindex>
						</link>
						<link>
							<linkclipref>clipitem-1413</linkclipref>
							<mediatype>audio</mediatype>
							<trackindex>1</trackindex>
							<clipindex>5</clipindex>
							<groupindex>1</groupindex>
						</link>
						<link>
							<linkclipref>clipitem-1451</linkclipref>
							<mediatype>audio</mediatype>
							<trackindex>2</trackindex>
							<clipindex>5</clipindex>
							<groupindex>1</groupindex>
						</link>
						<labels>
							<label2>Forest</label2>
						</labels>
					</clipitem>
					<clipitem id="clipitem-1414" premiereChannelType="stereo">
						<masterclipid>masterclip-503</masterclipid>
						<name>АНИ ЛОРАК_ВЕРИЛА___MSWCLP004835.mov</name>
						<enabled>TRUE</enabled>
						<duration>10416</duration>
						<rate>
							<timebase>25</timebase>
							<ntsc>FALSE</ntsc>
						</rate>
						<start>7886</start>
						<end>13071</end>
						<in>0</in>
						<out>5185</out>
						<pproTicksIn>0</pproTicksIn>
						<pproTicksOut>52682918400000</pproTicksOut>
						<file id="file-418"/>
						<sourcetrack>
							<mediatype>audio</mediatype>
							<trackindex>1</trackindex>
						</sourcetrack>
						<filter>
							<effect>
								<name>Audio Levels</name>
								<effectid>audiolevels</effectid>
								<effectcategory>audiolevels</effectcategory>
								<effecttype>audiolevels</effecttype>
								<mediatype>audio</mediatype>
								<pproBypass>false</pproBypass>
								<parameter authoringApp="PremierePro">
									<parameterid>level</parameterid>
									<name>Level</name>
									<valuemin>0</valuemin>
									<valuemax>3.98109</valuemax>
									<value>1</value>
									<keyframe>
										<when>375</when>
										<value>1</value>
									</keyframe>
								</parameter>
							</effect>
						</filter>
						<link>
							<linkclipref>clipitem-1178</linkclipref>
							<mediatype>video</mediatype>
							<trackindex>1</trackindex>
							<clipindex>8</clipindex>
						</link>
						<link>
							<linkclipref>clipitem-1414</linkclipref>
							<mediatype>audio</mediatype>
							<trackindex>1</trackindex>
							<clipindex>6</clipindex>
							<groupindex>1</groupindex>
						</link>
						<link>
							<linkclipref>clipitem-1452</linkclipref>
							<mediatype>audio</mediatype>
							<trackindex>2</trackindex>
							<clipindex>6</clipindex>
							<groupindex>1</groupindex>
						</link>
						<logginginfo>
							<description></description>
							<scene></scene>
							<shottake></shottake>
							<lognote></lognote>
							<good></good>
							<originalvideofilename></originalvideofilename>
							<originalaudiofilename></originalaudiofilename>
						</logginginfo>
						<colorinfo>
							<lut></lut>
							<lut1></lut1>
							<asc_sop></asc_sop>
							<asc_sat></asc_sat>
							<lut2></lut2>
						</colorinfo>
						<labels>
							<label2>Iris</label2>
						</labels>
					</clipitem>
					<clipitem id="clipitem-1415" premiereChannelType="stereo">
						<masterclipid>masterclip-501</masterclipid>
						<name>MYZ_RusskiyChart_OtbivkaMini_h264_v2.mp4</name>
						<enabled>TRUE</enabled>
						<duration>74</duration>
						<rate>
							<timebase>25</timebase>
							<ntsc>FALSE</ntsc>
						</rate>
						<start>13071</start>
						<end>13131</end>
						<in>0</in>
						<out>60</out>
						<pproTicksIn>0</pproTicksIn>
						<pproTicksOut>609638400000</pproTicksOut>
						<file id="file-416"/>
						<sourcetrack>
							<mediatype>audio</mediatype>
							<trackindex>1</trackindex>
						</sourcetrack>
						<filter>
							<effect>
								<name>Audio Levels</name>
								<effectid>audiolevels</effectid>
								<effectcategory>audiolevels</effectcategory>
								<effecttype>audiolevels</effecttype>
								<mediatype>audio</mediatype>
								<pproBypass>false</pproBypass>
								<parameter authoringApp="PremierePro">
									<parameterid>level</parameterid>
									<name>Level</name>
									<valuemin>0</valuemin>
									<valuemax>3.98109</valuemax>
									<value>0.258297</value>
									<keyframe>
										<when>60</when>
										<value>0.251189</value>
									</keyframe>
									<keyframe>
										<when>70</when>
										<value>0.258297</value>
									</keyframe>
								</parameter>
							</effect>
						</filter>
						<link>
							<linkclipref>clipitem-1179</linkclipref>
							<mediatype>video</mediatype>
							<trackindex>1</trackindex>
							<clipindex>9</clipindex>
						</link>
						<link>
							<linkclipref>clipitem-1415</linkclipref>
							<mediatype>audio</mediatype>
							<trackindex>1</trackindex>
							<clipindex>7</clipindex>
							<groupindex>1</groupindex>
						</link>
						<link>
							<linkclipref>clipitem-1453</linkclipref>
							<mediatype>audio</mediatype>
							<trackindex>2</trackindex>
							<clipindex>7</clipindex>
							<groupindex>1</groupindex>
						</link>
						<logginginfo>
							<description></description>
							<scene></scene>
							<shottake></shottake>
							<lognote></lognote>
							<good></good>
							<originalvideofilename></originalvideofilename>
							<originalaudiofilename></originalaudiofilename>
						</logginginfo>
						<colorinfo>
							<lut></lut>
							<lut1></lut1>
							<asc_sop></asc_sop>
							<asc_sat></asc_sat>
							<lut2></lut2>
						</colorinfo>
						<labels>
							<label2>Purple</label2>
						</labels>
					</clipitem>
					<clipitem id="clipitem-1416" premiereChannelType="stereo">
						<masterclipid>masterclip-497</masterclipid>
						<name>Nested Sequence 468</name>
						<enabled>TRUE</enabled>
						<duration>7503</duration>
						<rate>
							<timebase>25</timebase>
							<ntsc>FALSE</ntsc>
						</rate>
						<start>13131</start>
						<end>13604</end>
						<in>920</in>
						<out>1393</out>
						<pproTicksIn>9347788800000</pproTicksIn>
						<pproTicksOut>14153771520000</pproTicksOut>
						<sequence id="sequence-92"/>
						<sourcetrack>
							<mediatype>audio</mediatype>
							<trackindex>0</trackindex>
						</sourcetrack>
						<filter>
							<effect>
								<name>Audio Levels</name>
								<effectid>audiolevels</effectid>
								<effectcategory>audiolevels</effectcategory>
								<effecttype>audiolevels</effecttype>
								<mediatype>audio</mediatype>
								<pproBypass>false</pproBypass>
								<parameter authoringApp="PremierePro">
									<parameterid>level</parameterid>
									<name>Level</name>
									<valuemin>0</valuemin>
									<valuemax>3.98109</valuemax>
									<value>1</value>
									<keyframe>
										<when>18</when>
										<value>0</value>
									</keyframe>
									<keyframe>
										<when>19</when>
										<value>0</value>
									</keyframe>
									<keyframe>
										<when>507</when>
										<value>0</value>
									</keyframe>
									<keyframe>
										<when>509</when>
										<value>1</value>
									</keyframe>
								</parameter>
							</effect>
						</filter>
						<link>
							<linkclipref>clipitem-1180</linkclipref>
							<mediatype>video</mediatype>
							<trackindex>1</trackindex>
							<clipindex>10</clipindex>
						</link>
						<link>
							<linkclipref>clipitem-1416</linkclipref>
							<mediatype>audio</mediatype>
							<trackindex>1</trackindex>
							<clipindex>8</clipindex>
							<groupindex>1</groupindex>
						</link>
						<link>
							<linkclipref>clipitem-1454</linkclipref>
							<mediatype>audio</mediatype>
							<trackindex>2</trackindex>
							<clipindex>8</clipindex>
							<groupindex>1</groupindex>
						</link>
						<labels>
							<label2>Forest</label2>
						</labels>
					</clipitem>
					<clipitem id="clipitem-1417" premiereChannelType="stereo">
						<masterclipid>masterclip-505</masterclipid>
						<name>LOBODA_AMERICANO___MSWCLP004785.mov</name>
						<enabled>TRUE</enabled>
						<duration>11430</duration>
						<rate>
							<timebase>25</timebase>
							<ntsc>FALSE</ntsc>
						</rate>
						<start>13679</start>
						<end>19177</end>
						<in>217</in>
						<out>5715</out>
						<pproTicksIn>2204858880000</pproTicksIn>
						<pproTicksOut>58068057600000</pproTicksOut>
						<file id="file-420"/>
						<sourcetrack>
							<mediatype>audio</mediatype>
							<trackindex>1</trackindex>
						</sourcetrack>
						<filter>
							<effect>
								<name>Audio Levels</name>
								<effectid>audiolevels</effectid>
								<effectcategory>audiolevels</effectcategory>
								<effecttype>audiolevels</effecttype>
								<mediatype>audio</mediatype>
								<pproBypass>false</pproBypass>
								<parameter authoringApp="PremierePro">
									<parameterid>level</parameterid>
									<name>Level</name>
									<valuemin>0</valuemin>
									<valuemax>3.98109</valuemax>
									<value>1</value>
									<keyframe>
										<when>217</when>
										<value>0.0040588</value>
									</keyframe>
									<keyframe>
										<when>262</when>
										<value>1</value>
									</keyframe>
									<keyframe>
										<when>481</when>
										<value>1</value>
									</keyframe>
								</parameter>
							</effect>
						</filter>
						<link>
							<linkclipref>clipitem-1182</linkclipref>
							<mediatype>video</mediatype>
							<trackindex>1</trackindex>
							<clipindex>12</clipindex>
						</link>
						<link>
							<linkclipref>clipitem-1417</linkclipref>
							<mediatype>audio</mediatype>
							<trackindex>1</trackindex>
							<clipindex>9</clipindex>
							<groupindex>1</groupindex>
						</link>
						<link>
							<linkclipref>clipitem-1455</linkclipref>
							<mediatype>audio</mediatype>
							<trackindex>2</trackindex>
							<clipindex>9</clipindex>
							<groupindex>1</groupindex>
						</link>
						<logginginfo>
							<description></description>
							<scene></scene>
							<shottake></shottake>
							<lognote></lognote>
							<good></good>
							<originalvideofilename></originalvideofilename>
							<originalaudiofilename></originalaudiofilename>
						</logginginfo>
						<colorinfo>
							<lut></lut>
							<lut1></lut1>
							<asc_sop></asc_sop>
							<asc_sat></asc_sat>
							<lut2></lut2>
						</colorinfo>
						<labels>
							<label2>Iris</label2>
						</labels>
					</clipitem>
					<clipitem id="clipitem-1418" premiereChannelType="stereo">
						<masterclipid>masterclip-501</masterclipid>
						<name>MYZ_RusskiyChart_OtbivkaMini_h264_v2.mp4</name>
						<enabled>TRUE</enabled>
						<duration>74</duration>
						<rate>
							<timebase>25</timebase>
							<ntsc>FALSE</ntsc>
						</rate>
						<start>19177</start>
						<end>19237</end>
						<in>0</in>
						<out>60</out>
						<pproTicksIn>0</pproTicksIn>
						<pproTicksOut>609638400000</pproTicksOut>
						<file id="file-416"/>
						<sourcetrack>
							<mediatype>audio</mediatype>
							<trackindex>1</trackindex>
						</sourcetrack>
						<filter>
							<effect>
								<name>Audio Levels</name>
								<effectid>audiolevels</effectid>
								<effectcategory>audiolevels</effectcategory>
								<effecttype>audiolevels</effecttype>
								<mediatype>audio</mediatype>
								<pproBypass>false</pproBypass>
								<parameter authoringApp="PremierePro">
									<parameterid>level</parameterid>
									<name>Level</name>
									<valuemin>0</valuemin>
									<valuemax>3.98109</valuemax>
									<value>0.258297</value>
									<keyframe>
										<when>60</when>
										<value>0.251189</value>
									</keyframe>
									<keyframe>
										<when>70</when>
										<value>0.258297</value>
									</keyframe>
								</parameter>
							</effect>
						</filter>
						<link>
							<linkclipref>clipitem-1183</linkclipref>
							<mediatype>video</mediatype>
							<trackindex>1</trackindex>
							<clipindex>13</clipindex>
						</link>
						<link>
							<linkclipref>clipitem-1418</linkclipref>
							<mediatype>audio</mediatype>
							<trackindex>1</trackindex>
							<clipindex>10</clipindex>
							<groupindex>1</groupindex>
						</link>
						<link>
							<linkclipref>clipitem-1456</linkclipref>
							<mediatype>audio</mediatype>
							<trackindex>2</trackindex>
							<clipindex>10</clipindex>
							<groupindex>1</groupindex>
						</link>
						<logginginfo>
							<description></description>
							<scene></scene>
							<shottake></shottake>
							<lognote></lognote>
							<good></good>
							<originalvideofilename></originalvideofilename>
							<originalaudiofilename></originalaudiofilename>
						</logginginfo>
						<colorinfo>
							<lut></lut>
							<lut1></lut1>
							<asc_sop></asc_sop>
							<asc_sat></asc_sat>
							<lut2></lut2>
						</colorinfo>
						<labels>
							<label2>Purple</label2>
						</labels>
					</clipitem>
					<clipitem id="clipitem-1419" premiereChannelType="stereo">
						<masterclipid>masterclip-497</masterclipid>
						<name>Nested Sequence 468</name>
						<enabled>TRUE</enabled>
						<duration>7503</duration>
						<rate>
							<timebase>25</timebase>
							<ntsc>FALSE</ntsc>
						</rate>
						<start>19237</start>
						<end>19826</end>
						<in>1443</in>
						<out>2032</out>
						<pproTicksIn>14661803520000</pproTicksIn>
						<pproTicksOut>20646420480000</pproTicksOut>
						<sequence id="sequence-92"/>
						<sourcetrack>
							<mediatype>audio</mediatype>
							<trackindex>0</trackindex>
						</sourcetrack>
						<filter>
							<effect>
								<name>Audio Levels</name>
								<effectid>audiolevels</effectid>
								<effectcategory>audiolevels</effectcategory>
								<effecttype>audiolevels</effecttype>
								<mediatype>audio</mediatype>
								<pproBypass>false</pproBypass>
								<parameter authoringApp="PremierePro">
									<parameterid>level</parameterid>
									<name>Level</name>
									<valuemin>0</valuemin>
									<valuemax>3.98109</valuemax>
									<value>1</value>
									<keyframe>
										<when>18</when>
										<value>0</value>
									</keyframe>
									<keyframe>
										<when>19</when>
										<value>0</value>
									</keyframe>
									<keyframe>
										<when>507</when>
										<value>0</value>
									</keyframe>
									<keyframe>
										<when>509</when>
										<value>0</value>
									</keyframe>
									<keyframe>
										<when>1448</when>
										<value>0</value>
									</keyframe>
									<keyframe>
										<when>1449</when>
										<value>1</value>
									</keyframe>
								</parameter>
							</effect>
						</filter>
						<link>
							<linkclipref>clipitem-1184</linkclipref>
							<mediatype>video</mediatype>
							<trackindex>1</trackindex>
							<clipindex>14</clipindex>
						</link>
						<link>
							<linkclipref>clipitem-1419</linkclipref>
							<mediatype>audio</mediatype>
							<trackindex>1</trackindex>
							<clipindex>11</clipindex>
							<groupindex>1</groupindex>
						</link>
						<link>
							<linkclipref>clipitem-1457</linkclipref>
							<mediatype>audio</mediatype>
							<trackindex>2</trackindex>
							<clipindex>11</clipindex>
							<groupindex>1</groupindex>
						</link>
						<labels>
							<label2>Forest</label2>
						</labels>
					</clipitem>
					<clipitem id="clipitem-1420" premiereChannelType="stereo">
						<masterclipid>masterclip-507</masterclipid>
						<name>АРТУР ПИРОЖКОВ &amp; DIETER BOHLEN_ЛЕТОМ НА ФИЕСТЕ___MSWCLP004761.mov</name>
						<enabled>TRUE</enabled>
						<duration>8082</duration>
						<rate>
							<timebase>25</timebase>
							<ntsc>FALSE</ntsc>
						</rate>
						<start>19901</start>
						<end>23942</end>
						<in>0</in>
						<out>4041</out>
						<pproTicksIn>0</pproTicksIn>
						<pproTicksOut>41059146240000</pproTicksOut>
						<file id="file-422"/>
						<sourcetrack>
							<mediatype>audio</mediatype>
							<trackindex>1</trackindex>
						</sourcetrack>
						<filter>
							<effect>
								<name>Audio Levels</name>
								<effectid>audiolevels</effectid>
								<effectcategory>audiolevels</effectcategory>
								<effecttype>audiolevels</effecttype>
								<mediatype>audio</mediatype>
								<pproBypass>false</pproBypass>
								<parameter authoringApp="PremierePro">
									<parameterid>level</parameterid>
									<name>Level</name>
									<valuemin>0</valuemin>
									<valuemax>3.98109</valuemax>
									<value>1</value>
								</parameter>
							</effect>
						</filter>
						<link>
							<linkclipref>clipitem-1186</linkclipref>
							<mediatype>video</mediatype>
							<trackindex>1</trackindex>
							<clipindex>16</clipindex>
						</link>
						<link>
							<linkclipref>clipitem-1420</linkclipref>
							<mediatype>audio</mediatype>
							<trackindex>1</trackindex>
							<clipindex>12</clipindex>
							<groupindex>1</groupindex>
						</link>
						<link>
							<linkclipref>clipitem-1458</linkclipref>
							<mediatype>audio</mediatype>
							<trackindex>2</trackindex>
							<clipindex>12</clipindex>
							<groupindex>1</groupindex>
						</link>
						<logginginfo>
							<description></description>
							<scene></scene>
							<shottake></shottake>
							<lognote></lognote>
							<good></good>
							<originalvideofilename></originalvideofilename>
							<originalaudiofilename></originalaudiofilename>
						</logginginfo>
						<colorinfo>
							<lut></lut>
							<lut1></lut1>
							<asc_sop></asc_sop>
							<asc_sat></asc_sat>
							<lut2></lut2>
						</colorinfo>
						<labels>
							<label2>Iris</label2>
						</labels>
					</clipitem>
					<clipitem id="clipitem-1421" premiereChannelType="stereo">
						<masterclipid>masterclip-501</masterclipid>
						<name>MYZ_RusskiyChart_OtbivkaMini_h264_v2.mp4</name>
						<enabled>TRUE</enabled>
						<duration>74</duration>
						<rate>
							<timebase>25</timebase>
							<ntsc>FALSE</ntsc>
						</rate>
						<start>23942</start>
						<end>24002</end>
						<in>0</in>
						<out>60</out>
						<pproTicksIn>0</pproTicksIn>
						<pproTicksOut>609638400000</pproTicksOut>
						<file id="file-416"/>
						<sourcetrack>
							<mediatype>audio</mediatype>
							<trackindex>1</trackindex>
						</sourcetrack>
						<filter>
							<effect>
								<name>Audio Levels</name>
								<effectid>audiolevels</effectid>
								<effectcategory>audiolevels</effectcategory>
								<effecttype>audiolevels</effecttype>
								<mediatype>audio</mediatype>
								<pproBypass>false</pproBypass>
								<parameter authoringApp="PremierePro">
									<parameterid>level</parameterid>
									<name>Level</name>
									<valuemin>0</valuemin>
									<valuemax>3.98109</valuemax>
									<value>0.258297</value>
									<keyframe>
										<when>60</when>
										<value>0.251189</value>
									</keyframe>
									<keyframe>
										<when>70</when>
										<value>0.258297</value>
									</keyframe>
								</parameter>
							</effect>
						</filter>
						<link>
							<linkclipref>clipitem-1187</linkclipref>
							<mediatype>video</mediatype>
							<trackindex>1</trackindex>
							<clipindex>17</clipindex>
						</link>
						<link>
							<linkclipref>clipitem-1421</linkclipref>
							<mediatype>audio</mediatype>
							<trackindex>1</trackindex>
							<clipindex>13</clipindex>
							<groupindex>1</groupindex>
						</link>
						<link>
							<linkclipref>clipitem-1459</linkclipref>
							<mediatype>audio</mediatype>
							<trackindex>2</trackindex>
							<clipindex>13</clipindex>
							<groupindex>1</groupindex>
						</link>
						<logginginfo>
							<description></description>
							<scene></scene>
							<shottake></shottake>
							<lognote></lognote>
							<good></good>
							<originalvideofilename></originalvideofilename>
							<originalaudiofilename></originalaudiofilename>
						</logginginfo>
						<colorinfo>
							<lut></lut>
							<lut1></lut1>
							<asc_sop></asc_sop>
							<asc_sat></asc_sat>
							<lut2></lut2>
						</colorinfo>
						<labels>
							<label2>Purple</label2>
						</labels>
					</clipitem>
					<clipitem id="clipitem-1422" premiereChannelType="stereo">
						<masterclipid>masterclip-497</masterclipid>
						<name>Nested Sequence 468</name>
						<enabled>TRUE</enabled>
						<duration>7503</duration>
						<rate>
							<timebase>25</timebase>
							<ntsc>FALSE</ntsc>
						</rate>
						<start>24002</start>
						<end>24582</end>
						<in>2108</in>
						<out>2688</out>
						<pproTicksIn>21418629120000</pproTicksIn>
						<pproTicksOut>27311800320000</pproTicksOut>
						<sequence id="sequence-92"/>
						<sourcetrack>
							<mediatype>audio</mediatype>
							<trackindex>0</trackindex>
						</sourcetrack>
						<filter>
							<effect>
								<name>Audio Levels</name>
								<effectid>audiolevels</effectid>
								<effectcategory>audiolevels</effectcategory>
								<effecttype>audiolevels</effecttype>
								<mediatype>audio</mediatype>
								<pproBypass>false</pproBypass>
								<parameter authoringApp="PremierePro">
									<parameterid>level</parameterid>
									<name>Level</name>
									<valuemin>0</valuemin>
									<valuemax>3.98109</valuemax>
									<value>1</value>
									<keyframe>
										<when>18</when>
										<value>0</value>
									</keyframe>
									<keyframe>
										<when>19</when>
										<value>0</value>
									</keyframe>
									<keyframe>
										<when>507</when>
										<value>0</value>
									</keyframe>
									<keyframe>
										<when>509</when>
										<value>0</value>
									</keyframe>
									<keyframe>
										<when>1448</when>
										<value>0</value>
									</keyframe>
									<keyframe>
										<when>1449</when>
										<value>0.00880158</value>
									</keyframe>
									<keyframe>
										<when>2112</when>
										<value>0.00880158</value>
									</keyframe>
									<keyframe>
										<when>2114</when>
										<value>1</value>
									</keyframe>
								</parameter>
							</effect>
						</filter>
						<link>
							<linkclipref>clipitem-1188</linkclipref>
							<mediatype>video</mediatype>
							<trackindex>1</trackindex>
							<clipindex>18</clipindex>
						</link>
						<link>
							<linkclipref>clipitem-1422</linkclipref>
							<mediatype>audio</mediatype>
							<trackindex>1</trackindex>
							<clipindex>14</clipindex>
							<groupindex>1</groupindex>
						</link>
						<link>
							<linkclipref>clipitem-1460</linkclipref>
							<mediatype>audio</mediatype>
							<trackindex>2</trackindex>
							<clipindex>14</clipindex>
							<groupindex>1</groupindex>
						</link>
						<labels>
							<label2>Forest</label2>
						</labels>
					</clipitem>
					<clipitem id="clipitem-1423" premiereChannelType="stereo">
						<masterclipid>masterclip-509</masterclipid>
						<name>ZIVERT &amp; LYRIQ_FOREVER YOUNG___MSWCLP004838.mov</name>
						<enabled>TRUE</enabled>
						<duration>8864</duration>
						<rate>
							<timebase>25</timebase>
							<ntsc>FALSE</ntsc>
						</rate>
						<start>24657</start>
						<end>29061</end>
						<in>0</in>
						<out>4404</out>
						<pproTicksIn>0</pproTicksIn>
						<pproTicksOut>44747458560000</pproTicksOut>
						<file id="file-424"/>
						<sourcetrack>
							<mediatype>audio</mediatype>
							<trackindex>1</trackindex>
						</sourcetrack>
						<filter>
							<effect>
								<name>Audio Levels</name>
								<effectid>audiolevels</effectid>
								<effectcategory>audiolevels</effectcategory>
								<effecttype>audiolevels</effecttype>
								<mediatype>audio</mediatype>
								<pproBypass>false</pproBypass>
								<parameter authoringApp="PremierePro">
									<parameterid>level</parameterid>
									<name>Level</name>
									<valuemin>0</valuemin>
									<valuemax>3.98109</valuemax>
									<value>0.192517</value>
									<keyframe>
										<when>4376</when>
										<value>1</value>
									</keyframe>
									<keyframe>
										<when>4399</when>
										<value>0.192517</value>
									</keyframe>
								</parameter>
							</effect>
						</filter>
						<link>
							<linkclipref>clipitem-1190</linkclipref>
							<mediatype>video</mediatype>
							<trackindex>1</trackindex>
							<clipindex>20</clipindex>
						</link>
						<link>
							<linkclipref>clipitem-1423</linkclipref>
							<mediatype>audio</mediatype>
							<trackindex>1</trackindex>
							<clipindex>15</clipindex>
							<groupindex>1</groupindex>
						</link>
						<link>
							<linkclipref>clipitem-1461</linkclipref>
							<mediatype>audio</mediatype>
							<trackindex>2</trackindex>
							<clipindex>15</clipindex>
							<groupindex>1</groupindex>
						</link>
						<logginginfo>
							<description></description>
							<scene></scene>
							<shottake></shottake>
							<lognote></lognote>
							<good></good>
							<originalvideofilename></originalvideofilename>
							<originalaudiofilename></originalaudiofilename>
						</logginginfo>
						<colorinfo>
							<lut></lut>
							<lut1></lut1>
							<asc_sop></asc_sop>
							<asc_sat></asc_sat>
							<lut2></lut2>
						</colorinfo>
						<labels>
							<label2>Iris</label2>
						</labels>
					</clipitem>
					<clipitem id="clipitem-1424" premiereChannelType="stereo">
						<masterclipid>masterclip-501</masterclipid>
						<name>MYZ_RusskiyChart_OtbivkaMini_h264_v2.mp4</name>
						<enabled>TRUE</enabled>
						<duration>74</duration>
						<rate>
							<timebase>25</timebase>
							<ntsc>FALSE</ntsc>
						</rate>
						<start>29061</start>
						<end>29121</end>
						<in>0</in>
						<out>60</out>
						<pproTicksIn>0</pproTicksIn>
						<pproTicksOut>609638400000</pproTicksOut>
						<file id="file-416"/>
						<sourcetrack>
							<mediatype>audio</mediatype>
							<trackindex>1</trackindex>
						</sourcetrack>
						<filter>
							<effect>
								<name>Audio Levels</name>
								<effectid>audiolevels</effectid>
								<effectcategory>audiolevels</effectcategory>
								<effecttype>audiolevels</effecttype>
								<mediatype>audio</mediatype>
								<pproBypass>false</pproBypass>
								<parameter authoringApp="PremierePro">
									<parameterid>level</parameterid>
									<name>Level</name>
									<valuemin>0</valuemin>
									<valuemax>3.98109</valuemax>
									<value>0.258297</value>
									<keyframe>
										<when>60</when>
										<value>0.251189</value>
									</keyframe>
									<keyframe>
										<when>70</when>
										<value>0.258297</value>
									</keyframe>
								</parameter>
							</effect>
						</filter>
						<link>
							<linkclipref>clipitem-1191</linkclipref>
							<mediatype>video</mediatype>
							<trackindex>1</trackindex>
							<clipindex>21</clipindex>
						</link>
						<link>
							<linkclipref>clipitem-1424</linkclipref>
							<mediatype>audio</mediatype>
							<trackindex>1</trackindex>
							<clipindex>16</clipindex>
							<groupindex>1</groupindex>
						</link>
						<link>
							<linkclipref>clipitem-1462</linkclipref>
							<mediatype>audio</mediatype>
							<trackindex>2</trackindex>
							<clipindex>16</clipindex>
							<groupindex>1</groupindex>
						</link>
						<logginginfo>
							<description></description>
							<scene></scene>
							<shottake></shottake>
							<lognote></lognote>
							<good></good>
							<originalvideofilename></originalvideofilename>
							<originalaudiofilename></originalaudiofilename>
						</logginginfo>
						<colorinfo>
							<lut></lut>
							<lut1></lut1>
							<asc_sop></asc_sop>
							<asc_sat></asc_sat>
							<lut2></lut2>
						</colorinfo>
						<labels>
							<label2>Purple</label2>
						</labels>
					</clipitem>
					<clipitem id="clipitem-1425" premiereChannelType="stereo">
						<masterclipid>masterclip-497</masterclipid>
						<name>Nested Sequence 468</name>
						<enabled>TRUE</enabled>
						<duration>7503</duration>
						<rate>
							<timebase>25</timebase>
							<ntsc>FALSE</ntsc>
						</rate>
						<start>29121</start>
						<end>29714</end>
						<in>3966</in>
						<out>4559</out>
						<pproTicksIn>40297098240000</pproTicksIn>
						<pproTicksOut>46322357760000</pproTicksOut>
						<sequence id="sequence-92"/>
						<sourcetrack>
							<mediatype>audio</mediatype>
							<trackindex>0</trackindex>
						</sourcetrack>
						<filter>
							<effect>
								<name>Audio Levels</name>
								<effectid>audiolevels</effectid>
								<effectcategory>audiolevels</effectcategory>
								<effecttype>audiolevels</effecttype>
								<mediatype>audio</mediatype>
								<pproBypass>false</pproBypass>
								<parameter authoringApp="PremierePro">
									<parameterid>level</parameterid>
									<name>Level</name>
									<valuemin>0</valuemin>
									<valuemax>3.98109</valuemax>
									<value>1</value>
									<keyframe>
										<when>18</when>
										<value>0</value>
									</keyframe>
									<keyframe>
										<when>19</when>
										<value>0</value>
									</keyframe>
									<keyframe>
										<when>507</when>
										<value>0</value>
									</keyframe>
									<keyframe>
										<when>509</when>
										<value>0</value>
									</keyframe>
									<keyframe>
										<when>1448</when>
										<value>0</value>
									</keyframe>
									<keyframe>
										<when>1449</when>
										<value>0.00880158</value>
									</keyframe>
									<keyframe>
										<when>2112</when>
										<value>0.00880158</value>
									</keyframe>
									<keyframe>
										<when>2114</when>
										<value>0</value>
									</keyframe>
									<keyframe>
										<when>2713</when>
										<value>0</value>
									</keyframe>
									<keyframe>
										<when>2715</when>
										<value>0</value>
									</keyframe>
									<keyframe>
										<when>3356</when>
										<value>0</value>
									</keyframe>
									<keyframe>
										<when>3358</when>
										<value>1</value>
									</keyframe>
								</parameter>
							</effect>
						</filter>
						<link>
							<linkclipref>clipitem-1192</linkclipref>
							<mediatype>video</mediatype>
							<trackindex>1</trackindex>
							<clipindex>22</clipindex>
						</link>
						<link>
							<linkclipref>clipitem-1425</linkclipref>
							<mediatype>audio</mediatype>
							<trackindex>1</trackindex>
							<clipindex>17</clipindex>
							<groupindex>1</groupindex>
						</link>
						<link>
							<linkclipref>clipitem-1463</linkclipref>
							<mediatype>audio</mediatype>
							<trackindex>2</trackindex>
							<clipindex>17</clipindex>
							<groupindex>1</groupindex>
						</link>
						<labels>
							<label2>Forest</label2>
						</labels>
					</clipitem>
					<clipitem id="clipitem-1426" premiereChannelType="stereo">
						<masterclipid>masterclip-511</masterclipid>
						<name>DABRO_УСЛЫШИТ ВЕСЬ РАЙОН___MSWCLP004759.mov</name>
						<enabled>TRUE</enabled>
						<duration>9620</duration>
						<rate>
							<timebase>25</timebase>
							<ntsc>FALSE</ntsc>
						</rate>
						<start>29789</start>
						<end>34599</end>
						<in>0</in>
						<out>4810</out>
						<pproTicksIn>0</pproTicksIn>
						<pproTicksOut>48872678400000</pproTicksOut>
						<file id="file-426"/>
						<sourcetrack>
							<mediatype>audio</mediatype>
							<trackindex>1</trackindex>
						</sourcetrack>
						<filter>
							<effect>
								<name>Audio Levels</name>
								<effectid>audiolevels</effectid>
								<effectcategory>audiolevels</effectcategory>
								<effecttype>audiolevels</effecttype>
								<mediatype>audio</mediatype>
								<pproBypass>false</pproBypass>
								<parameter authoringApp="PremierePro">
									<parameterid>level</parameterid>
									<name>Level</name>
									<valuemin>0</valuemin>
									<valuemax>3.98109</valuemax>
									<value>0.371266</value>
									<keyframe>
										<when>4796</when>
										<value>1</value>
									</keyframe>
									<keyframe>
										<when>4808</when>
										<value>0.371266</value>
									</keyframe>
								</parameter>
							</effect>
						</filter>
						<link>
							<linkclipref>clipitem-1194</linkclipref>
							<mediatype>video</mediatype>
							<trackindex>1</trackindex>
							<clipindex>24</clipindex>
						</link>
						<link>
							<linkclipref>clipitem-1426</linkclipref>
							<mediatype>audio</mediatype>
							<trackindex>1</trackindex>
							<clipindex>18</clipindex>
							<groupindex>1</groupindex>
						</link>
						<link>
							<linkclipref>clipitem-1464</linkclipref>
							<mediatype>audio</mediatype>
							<trackindex>2</trackindex>
							<clipindex>18</clipindex>
							<groupindex>1</groupindex>
						</link>
						<logginginfo>
							<description></description>
							<scene></scene>
							<shottake></shottake>
							<lognote></lognote>
							<good></good>
							<originalvideofilename></originalvideofilename>
							<originalaudiofilename></originalaudiofilename>
						</logginginfo>
						<colorinfo>
							<lut></lut>
							<lut1></lut1>
							<asc_sop></asc_sop>
							<asc_sat></asc_sat>
							<lut2></lut2>
						</colorinfo>
						<labels>
							<label2>Iris</label2>
						</labels>
					</clipitem>
					<clipitem id="clipitem-1427" premiereChannelType="stereo">
						<masterclipid>masterclip-501</masterclipid>
						<name>MYZ_RusskiyChart_OtbivkaMini_h264_v2.mp4</name>
						<enabled>TRUE</enabled>
						<duration>74</duration>
						<rate>
							<timebase>25</timebase>
							<ntsc>FALSE</ntsc>
						</rate>
						<start>34599</start>
						<end>34659</end>
						<in>0</in>
						<out>60</out>
						<pproTicksIn>0</pproTicksIn>
						<pproTicksOut>609638400000</pproTicksOut>
						<file id="file-416"/>
						<sourcetrack>
							<mediatype>audio</mediatype>
							<trackindex>1</trackindex>
						</sourcetrack>
						<filter>
							<effect>
								<name>Audio Levels</name>
								<effectid>audiolevels</effectid>
								<effectcategory>audiolevels</effectcategory>
								<effecttype>audiolevels</effecttype>
								<mediatype>audio</mediatype>
								<pproBypass>false</pproBypass>
								<parameter authoringApp="PremierePro">
									<parameterid>level</parameterid>
									<name>Level</name>
									<valuemin>0</valuemin>
									<valuemax>3.98109</valuemax>
									<value>0.258297</value>
									<keyframe>
										<when>60</when>
										<value>0.251189</value>
									</keyframe>
									<keyframe>
										<when>70</when>
										<value>0.258297</value>
									</keyframe>
								</parameter>
							</effect>
						</filter>
						<link>
							<linkclipref>clipitem-1195</linkclipref>
							<mediatype>video</mediatype>
							<trackindex>1</trackindex>
							<clipindex>25</clipindex>
						</link>
						<link>
							<linkclipref>clipitem-1427</linkclipref>
							<mediatype>audio</mediatype>
							<trackindex>1</trackindex>
							<clipindex>19</clipindex>
							<groupindex>1</groupindex>
						</link>
						<link>
							<linkclipref>clipitem-1465</linkclipref>
							<mediatype>audio</mediatype>
							<trackindex>2</trackindex>
							<clipindex>19</clipindex>
							<groupindex>1</groupindex>
						</link>
						<logginginfo>
							<description></description>
							<scene></scene>
							<shottake></shottake>
							<lognote></lognote>
							<good></good>
							<originalvideofilename></originalvideofilename>
							<originalaudiofilename></originalaudiofilename>
						</logginginfo>
						<colorinfo>
							<lut></lut>
							<lut1></lut1>
							<asc_sop></asc_sop>
							<asc_sat></asc_sat>
							<lut2></lut2>
						</colorinfo>
						<labels>
							<label2>Purple</label2>
						</labels>
					</clipitem>
					<clipitem id="clipitem-1428" premiereChannelType="stereo">
						<masterclipid>masterclip-497</masterclipid>
						<name>Nested Sequence 468</name>
						<enabled>TRUE</enabled>
						<duration>7503</duration>
						<rate>
							<timebase>25</timebase>
							<ntsc>FALSE</ntsc>
						</rate>
						<start>34659</start>
						<end>35166</end>
						<in>4607</in>
						<out>5114</out>
						<pproTicksIn>46810068480000</pproTicksIn>
						<pproTicksOut>51961512960000</pproTicksOut>
						<sequence id="sequence-92"/>
						<sourcetrack>
							<mediatype>audio</mediatype>
							<trackindex>0</trackindex>
						</sourcetrack>
						<filter>
							<effect>
								<name>Audio Levels</name>
								<effectid>audiolevels</effectid>
								<effectcategory>audiolevels</effectcategory>
								<effecttype>audiolevels</effecttype>
								<mediatype>audio</mediatype>
								<pproBypass>false</pproBypass>
								<parameter authoringApp="PremierePro">
									<parameterid>level</parameterid>
									<name>Level</name>
									<valuemin>0</valuemin>
									<valuemax>3.98109</valuemax>
									<value>1</value>
									<keyframe>
										<when>18</when>
										<value>0</value>
									</keyframe>
									<keyframe>
										<when>19</when>
										<value>0</value>
									</keyframe>
									<keyframe>
										<when>507</when>
										<value>0</value>
									</keyframe>
									<keyframe>
										<when>509</when>
										<value>0</value>
									</keyframe>
									<keyframe>
										<when>1448</when>
										<value>0</value>
									</keyframe>
									<keyframe>
										<when>1449</when>
										<value>0.00880158</value>
									</keyframe>
									<keyframe>
										<when>2112</when>
										<value>0.00880158</value>
									</keyframe>
									<keyframe>
										<when>2114</when>
										<value>0</value>
									</keyframe>
									<keyframe>
										<when>2713</when>
										<value>0</value>
									</keyframe>
									<keyframe>
										<when>2715</when>
										<value>0</value>
									</keyframe>
									<keyframe>
										<when>3356</when>
										<value>0</value>
									</keyframe>
									<keyframe>
										<when>3358</when>
										<value>1</value>
									</keyframe>
								</parameter>
							</effect>
						</filter>
						<link>
							<linkclipref>clipitem-1196</linkclipref>
							<mediatype>video</mediatype>
							<trackindex>1</trackindex>
							<clipindex>26</clipindex>
						</link>
						<link>
							<linkclipref>clipitem-1428</linkclipref>
							<mediatype>audio</mediatype>
							<trackindex>1</trackindex>
							<clipindex>20</clipindex>
							<groupindex>1</groupindex>
						</link>
						<link>
							<linkclipref>clipitem-1466</linkclipref>
							<mediatype>audio</mediatype>
							<trackindex>2</trackindex>
							<clipindex>20</clipindex>
							<groupindex>1</groupindex>
						</link>
						<labels>
							<label2>Forest</label2>
						</labels>
					</clipitem>
					<clipitem id="clipitem-1429" premiereChannelType="stereo">
						<masterclipid>masterclip-513</masterclipid>
						<name>ЗВОНКИЙ &amp; МАРИ КРАЙМБРЕРИ_КАК ДЕЛА, МАЛЫШ?___MSWCLP004735.mov</name>
						<enabled>TRUE</enabled>
						<duration>11734</duration>
						<rate>
							<timebase>25</timebase>
							<ntsc>FALSE</ntsc>
						</rate>
						<start>35213</start>
						<end>40627</end>
						<in>453</in>
						<out>5867</out>
						<pproTicksIn>4602769920000</pproTicksIn>
						<pproTicksOut>59612474880000</pproTicksOut>
						<file id="file-428"/>
						<sourcetrack>
							<mediatype>audio</mediatype>
							<trackindex>1</trackindex>
						</sourcetrack>
						<filter>
							<effect>
								<name>Audio Levels</name>
								<effectid>audiolevels</effectid>
								<effectcategory>audiolevels</effectcategory>
								<effecttype>audiolevels</effecttype>
								<mediatype>audio</mediatype>
								<pproBypass>false</pproBypass>
								<parameter authoringApp="PremierePro">
									<parameterid>level</parameterid>
									<name>Level</name>
									<valuemin>0</valuemin>
									<valuemax>3.98109</valuemax>
									<value>1</value>
									<keyframe>
										<when>292</when>
										<value>0</value>
									</keyframe>
									<keyframe>
										<when>478</when>
										<value>0</value>
									</keyframe>
									<keyframe>
										<when>481</when>
										<value>1</value>
									</keyframe>
								</parameter>
							</effect>
						</filter>
						<link>
							<linkclipref>clipitem-1429</linkclipref>
							<mediatype>audio</mediatype>
							<trackindex>1</trackindex>
							<clipindex>21</clipindex>
							<groupindex>1</groupindex>
						</link>
						<link>
							<linkclipref>clipitem-1467</linkclipref>
							<mediatype>audio</mediatype>
							<trackindex>2</trackindex>
							<clipindex>21</clipindex>
							<groupindex>1</groupindex>
						</link>
						<logginginfo>
							<description></description>
							<scene></scene>
							<shottake></shottake>
							<lognote></lognote>
							<good></good>
							<originalvideofilename></originalvideofilename>
							<originalaudiofilename></originalaudiofilename>
						</logginginfo>
						<colorinfo>
							<lut></lut>
							<lut1></lut1>
							<asc_sop></asc_sop>
							<asc_sat></asc_sat>
							<lut2></lut2>
						</colorinfo>
						<labels>
							<label2>Iris</label2>
						</labels>
					</clipitem>
					<clipitem id="clipitem-1430" premiereChannelType="stereo">
						<masterclipid>masterclip-501</masterclipid>
						<name>MYZ_RusskiyChart_OtbivkaMini_h264_v2.mp4</name>
						<enabled>TRUE</enabled>
						<duration>74</duration>
						<rate>
							<timebase>25</timebase>
							<ntsc>FALSE</ntsc>
						</rate>
						<start>40627</start>
						<end>40687</end>
						<in>0</in>
						<out>60</out>
						<pproTicksIn>0</pproTicksIn>
						<pproTicksOut>609638400000</pproTicksOut>
						<file id="file-416"/>
						<sourcetrack>
							<mediatype>audio</mediatype>
							<trackindex>1</trackindex>
						</sourcetrack>
						<filter>
							<effect>
								<name>Audio Levels</name>
								<effectid>audiolevels</effectid>
								<effectcategory>audiolevels</effectcategory>
								<effecttype>audiolevels</effecttype>
								<mediatype>audio</mediatype>
								<pproBypass>false</pproBypass>
								<parameter authoringApp="PremierePro">
									<parameterid>level</parameterid>
									<name>Level</name>
									<valuemin>0</valuemin>
									<valuemax>3.98109</valuemax>
									<value>0.258297</value>
									<keyframe>
										<when>60</when>
										<value>0.251189</value>
									</keyframe>
									<keyframe>
										<when>70</when>
										<value>0.258297</value>
									</keyframe>
								</parameter>
							</effect>
						</filter>
						<link>
							<linkclipref>clipitem-1199</linkclipref>
							<mediatype>video</mediatype>
							<trackindex>1</trackindex>
							<clipindex>29</clipindex>
						</link>
						<link>
							<linkclipref>clipitem-1430</linkclipref>
							<mediatype>audio</mediatype>
							<trackindex>1</trackindex>
							<clipindex>22</clipindex>
							<groupindex>1</groupindex>
						</link>
						<link>
							<linkclipref>clipitem-1468</linkclipref>
							<mediatype>audio</mediatype>
							<trackindex>2</trackindex>
							<clipindex>22</clipindex>
							<groupindex>1</groupindex>
						</link>
						<logginginfo>
							<description></description>
							<scene></scene>
							<shottake></shottake>
							<lognote></lognote>
							<good></good>
							<originalvideofilename></originalvideofilename>
							<originalaudiofilename></originalaudiofilename>
						</logginginfo>
						<colorinfo>
							<lut></lut>
							<lut1></lut1>
							<asc_sop></asc_sop>
							<asc_sat></asc_sat>
							<lut2></lut2>
						</colorinfo>
						<labels>
							<label2>Purple</label2>
						</labels>
					</clipitem>
					<clipitem id="clipitem-1431" premiereChannelType="stereo">
						<masterclipid>masterclip-497</masterclipid>
						<name>Nested Sequence 468</name>
						<enabled>TRUE</enabled>
						<duration>7503</duration>
						<rate>
							<timebase>25</timebase>
							<ntsc>FALSE</ntsc>
						</rate>
						<start>40687</start>
						<end>41118</end>
						<in>5685</in>
						<out>6116</out>
						<pproTicksIn>57763238400000</pproTicksIn>
						<pproTicksOut>62142474240000</pproTicksOut>
						<sequence id="sequence-92"/>
						<sourcetrack>
							<mediatype>audio</mediatype>
							<trackindex>0</trackindex>
						</sourcetrack>
						<filter>
							<effect>
								<name>Audio Levels</name>
								<effectid>audiolevels</effectid>
								<effectcategory>audiolevels</effectcategory>
								<effecttype>audiolevels</effecttype>
								<mediatype>audio</mediatype>
								<pproBypass>false</pproBypass>
								<parameter authoringApp="PremierePro">
									<parameterid>level</parameterid>
									<name>Level</name>
									<valuemin>0</valuemin>
									<valuemax>3.98109</valuemax>
									<value>1</value>
									<keyframe>
										<when>18</when>
										<value>0</value>
									</keyframe>
									<keyframe>
										<when>19</when>
										<value>0</value>
									</keyframe>
									<keyframe>
										<when>507</when>
										<value>0</value>
									</keyframe>
									<keyframe>
										<when>509</when>
										<value>0</value>
									</keyframe>
									<keyframe>
										<when>1448</when>
										<value>0</value>
									</keyframe>
									<keyframe>
										<when>1449</when>
										<value>0.00880158</value>
									</keyframe>
									<keyframe>
										<when>2112</when>
										<value>0.00880158</value>
									</keyframe>
									<keyframe>
										<when>2114</when>
										<value>0</value>
									</keyframe>
									<keyframe>
										<when>2713</when>
										<value>0</value>
									</keyframe>
									<keyframe>
										<when>2715</when>
										<value>0</value>
									</keyframe>
									<keyframe>
										<when>3356</when>
										<value>0</value>
									</keyframe>
									<keyframe>
										<when>3358</when>
										<value>0</value>
									</keyframe>
									<keyframe>
										<when>5166</when>
										<value>0</value>
									</keyframe>
									<keyframe>
										<when>5167</when>
										<value>0</value>
									</keyframe>
									<keyframe>
										<when>5688</when>
										<value>0</value>
									</keyframe>
									<keyframe>
										<when>5691</when>
										<value>1</value>
									</keyframe>
								</parameter>
							</effect>
						</filter>
						<link>
							<linkclipref>clipitem-1200</linkclipref>
							<mediatype>video</mediatype>
							<trackindex>1</trackindex>
							<clipindex>30</clipindex>
						</link>
						<link>
							<linkclipref>clipitem-1431</linkclipref>
							<mediatype>audio</mediatype>
							<trackindex>1</trackindex>
							<clipindex>23</clipindex>
							<groupindex>1</groupindex>
						</link>
						<link>
							<linkclipref>clipitem-1469</linkclipref>
							<mediatype>audio</mediatype>
							<trackindex>2</trackindex>
							<clipindex>23</clipindex>
							<groupindex>1</groupindex>
						</link>
						<labels>
							<label2>Forest</label2>
						</labels>
					</clipitem>
					<clipitem id="clipitem-1432" premiereChannelType="stereo">
						<masterclipid>masterclip-515</masterclipid>
						<name>BITTUEV_БРАТИК___MSWCLP004753.mov</name>
						<enabled>TRUE</enabled>
						<duration>5964</duration>
						<rate>
							<timebase>25</timebase>
							<ntsc>FALSE</ntsc>
						</rate>
						<start>41193</start>
						<end>44175</end>
						<in>0</in>
						<out>2982</out>
						<pproTicksIn>0</pproTicksIn>
						<pproTicksOut>30299028480000</pproTicksOut>
						<file id="file-430"/>
						<sourcetrack>
							<mediatype>audio</mediatype>
							<trackindex>1</trackindex>
						</sourcetrack>
						<filter>
							<effect>
								<name>Audio Levels</name>
								<effectid>audiolevels</effectid>
								<effectcategory>audiolevels</effectcategory>
								<effecttype>audiolevels</effecttype>
								<mediatype>audio</mediatype>
								<pproBypass>false</pproBypass>
								<parameter authoringApp="PremierePro">
									<parameterid>level</parameterid>
									<name>Level</name>
									<valuemin>0</valuemin>
									<valuemax>3.98109</valuemax>
									<value>1</value>
								</parameter>
							</effect>
						</filter>
						<link>
							<linkclipref>clipitem-1202</linkclipref>
							<mediatype>video</mediatype>
							<trackindex>1</trackindex>
							<clipindex>32</clipindex>
						</link>
						<link>
							<linkclipref>clipitem-1432</linkclipref>
							<mediatype>audio</mediatype>
							<trackindex>1</trackindex>
							<clipindex>24</clipindex>
							<groupindex>1</groupindex>
						</link>
						<link>
							<linkclipref>clipitem-1470</linkclipref>
							<mediatype>audio</mediatype>
							<trackindex>2</trackindex>
							<clipindex>24</clipindex>
							<groupindex>1</groupindex>
						</link>
						<logginginfo>
							<description></description>
							<scene></scene>
							<shottake></shottake>
							<lognote></lognote>
							<good></good>
							<originalvideofilename></originalvideofilename>
							<originalaudiofilename></originalaudiofilename>
						</logginginfo>
						<colorinfo>
							<lut></lut>
							<lut1></lut1>
							<asc_sop></asc_sop>
							<asc_sat></asc_sat>
							<lut2></lut2>
						</colorinfo>
						<labels>
							<label2>Iris</label2>
						</labels>
					</clipitem>
					<clipitem id="clipitem-1433" premiereChannelType="stereo">
						<masterclipid>masterclip-501</masterclipid>
						<name>MYZ_RusskiyChart_OtbivkaMini_h264_v2.mp4</name>
						<enabled>TRUE</enabled>
						<duration>74</duration>
						<rate>
							<timebase>25</timebase>
							<ntsc>FALSE</ntsc>
						</rate>
						<start>44175</start>
						<end>44235</end>
						<in>0</in>
						<out>60</out>
						<pproTicksIn>0</pproTicksIn>
						<pproTicksOut>609638400000</pproTicksOut>
						<file id="file-416"/>
						<sourcetrack>
							<mediatype>audio</mediatype>
							<trackindex>1</trackindex>
						</sourcetrack>
						<filter>
							<effect>
								<name>Audio Levels</name>
								<effectid>audiolevels</effectid>
								<effectcategory>audiolevels</effectcategory>
								<effecttype>audiolevels</effecttype>
								<mediatype>audio</mediatype>
								<pproBypass>false</pproBypass>
								<parameter authoringApp="PremierePro">
									<parameterid>level</parameterid>
									<name>Level</name>
									<valuemin>0</valuemin>
									<valuemax>3.98109</valuemax>
									<value>0.258297</value>
									<keyframe>
										<when>60</when>
										<value>0.251189</value>
									</keyframe>
									<keyframe>
										<when>70</when>
										<value>0.258297</value>
									</keyframe>
								</parameter>
							</effect>
						</filter>
						<link>
							<linkclipref>clipitem-1203</linkclipref>
							<mediatype>video</mediatype>
							<trackindex>1</trackindex>
							<clipindex>33</clipindex>
						</link>
						<link>
							<linkclipref>clipitem-1433</linkclipref>
							<mediatype>audio</mediatype>
							<trackindex>1</trackindex>
							<clipindex>25</clipindex>
							<groupindex>1</groupindex>
						</link>
						<link>
							<linkclipref>clipitem-1471</linkclipref>
							<mediatype>audio</mediatype>
							<trackindex>2</trackindex>
							<clipindex>25</clipindex>
							<groupindex>1</groupindex>
						</link>
						<logginginfo>
							<description></description>
							<scene></scene>
							<shottake></shottake>
							<lognote></lognote>
							<good></good>
							<originalvideofilename></originalvideofilename>
							<originalaudiofilename></originalaudiofilename>
						</logginginfo>
						<colorinfo>
							<lut></lut>
							<lut1></lut1>
							<asc_sop></asc_sop>
							<asc_sat></asc_sat>
							<lut2></lut2>
						</colorinfo>
						<labels>
							<label2>Purple</label2>
						</labels>
					</clipitem>
					<clipitem id="clipitem-1434" premiereChannelType="stereo">
						<masterclipid>masterclip-497</masterclipid>
						<name>Nested Sequence 468</name>
						<enabled>TRUE</enabled>
						<duration>7503</duration>
						<rate>
							<timebase>25</timebase>
							<ntsc>FALSE</ntsc>
						</rate>
						<start>44235</start>
						<end>44854</end>
						<in>2709</in>
						<out>3328</out>
						<pproTicksIn>27525173760000</pproTicksIn>
						<pproTicksOut>33814609920000</pproTicksOut>
						<sequence id="sequence-92"/>
						<sourcetrack>
							<mediatype>audio</mediatype>
							<trackindex>0</trackindex>
						</sourcetrack>
						<filter>
							<effect>
								<name>Audio Levels</name>
								<effectid>audiolevels</effectid>
								<effectcategory>audiolevels</effectcategory>
								<effecttype>audiolevels</effecttype>
								<mediatype>audio</mediatype>
								<pproBypass>false</pproBypass>
								<parameter authoringApp="PremierePro">
									<parameterid>level</parameterid>
									<name>Level</name>
									<valuemin>0</valuemin>
									<valuemax>3.98109</valuemax>
									<value>1</value>
									<keyframe>
										<when>18</when>
										<value>0</value>
									</keyframe>
									<keyframe>
										<when>19</when>
										<value>0</value>
									</keyframe>
									<keyframe>
										<when>507</when>
										<value>0</value>
									</keyframe>
									<keyframe>
										<when>509</when>
										<value>0</value>
									</keyframe>
									<keyframe>
										<when>1448</when>
										<value>0</value>
									</keyframe>
									<keyframe>
										<when>1449</when>
										<value>0.00880158</value>
									</keyframe>
									<keyframe>
										<when>2112</when>
										<value>0.00880158</value>
									</keyframe>
									<keyframe>
										<when>2114</when>
										<value>0</value>
									</keyframe>
									<keyframe>
										<when>2713</when>
										<value>0</value>
									</keyframe>
									<keyframe>
										<when>2715</when>
										<value>1</value>
									</keyframe>
								</parameter>
							</effect>
						</filter>
						<link>
							<linkclipref>clipitem-1204</linkclipref>
							<mediatype>video</mediatype>
							<trackindex>1</trackindex>
							<clipindex>34</clipindex>
						</link>
						<link>
							<linkclipref>clipitem-1434</linkclipref>
							<mediatype>audio</mediatype>
							<trackindex>1</trackindex>
							<clipindex>26</clipindex>
							<groupindex>1</groupindex>
						</link>
						<link>
							<linkclipref>clipitem-1472</linkclipref>
							<mediatype>audio</mediatype>
							<trackindex>2</trackindex>
							<clipindex>26</clipindex>
							<groupindex>1</groupindex>
						</link>
						<labels>
							<label2>Forest</label2>
						</labels>
					</clipitem>
					<clipitem id="clipitem-1435" premiereChannelType="stereo">
						<masterclipid>masterclip-517</masterclipid>
						<name>КЛАВА КОКА_ЛА ЛА ЛА___MSWCLP004762.mov</name>
						<enabled>TRUE</enabled>
						<duration>8198</duration>
						<rate>
							<timebase>25</timebase>
							<ntsc>FALSE</ntsc>
						</rate>
						<start>44929</start>
						<end>49028</end>
						<in>0</in>
						<out>4099</out>
						<pproTicksIn>0</pproTicksIn>
						<pproTicksOut>41648463360000</pproTicksOut>
						<file id="file-432"/>
						<sourcetrack>
							<mediatype>audio</mediatype>
							<trackindex>1</trackindex>
						</sourcetrack>
						<filter>
							<effect>
								<name>Audio Levels</name>
								<effectid>audiolevels</effectid>
								<effectcategory>audiolevels</effectcategory>
								<effecttype>audiolevels</effecttype>
								<mediatype>audio</mediatype>
								<pproBypass>false</pproBypass>
								<parameter authoringApp="PremierePro">
									<parameterid>level</parameterid>
									<name>Level</name>
									<valuemin>0</valuemin>
									<valuemax>3.98109</valuemax>
									<value>1</value>
									<keyframe>
										<when>2</when>
										<value>0.618238</value>
									</keyframe>
									<keyframe>
										<when>26</when>
										<value>1</value>
									</keyframe>
								</parameter>
							</effect>
						</filter>
						<link>
							<linkclipref>clipitem-1206</linkclipref>
							<mediatype>video</mediatype>
							<trackindex>1</trackindex>
							<clipindex>36</clipindex>
						</link>
						<link>
							<linkclipref>clipitem-1435</linkclipref>
							<mediatype>audio</mediatype>
							<trackindex>1</trackindex>
							<clipindex>27</clipindex>
							<groupindex>1</groupindex>
						</link>
						<link>
							<linkclipref>clipitem-1473</linkclipref>
							<mediatype>audio</mediatype>
							<trackindex>2</trackindex>
							<clipindex>27</clipindex>
							<groupindex>1</groupindex>
						</link>
						<logginginfo>
							<description></description>
							<scene></scene>
							<shottake></shottake>
							<lognote></lognote>
							<good></good>
							<originalvideofilename></originalvideofilename>
							<originalaudiofilename></originalaudiofilename>
						</logginginfo>
						<colorinfo>
							<lut></lut>
							<lut1></lut1>
							<asc_sop></asc_sop>
							<asc_sat></asc_sat>
							<lut2></lut2>
						</colorinfo>
						<labels>
							<label2>Iris</label2>
						</labels>
					</clipitem>
					<clipitem id="clipitem-1436" premiereChannelType="stereo">
						<masterclipid>masterclip-501</masterclipid>
						<name>MYZ_RusskiyChart_OtbivkaMini_h264_v2.mp4</name>
						<enabled>TRUE</enabled>
						<duration>74</duration>
						<rate>
							<timebase>25</timebase>
							<ntsc>FALSE</ntsc>
						</rate>
						<start>49028</start>
						<end>49088</end>
						<in>0</in>
						<out>60</out>
						<pproTicksIn>0</pproTicksIn>
						<pproTicksOut>609638400000</pproTicksOut>
						<file id="file-416"/>
						<sourcetrack>
							<mediatype>audio</mediatype>
							<trackindex>1</trackindex>
						</sourcetrack>
						<filter>
							<effect>
								<name>Audio Levels</name>
								<effectid>audiolevels</effectid>
								<effectcategory>audiolevels</effectcategory>
								<effecttype>audiolevels</effecttype>
								<mediatype>audio</mediatype>
								<pproBypass>false</pproBypass>
								<parameter authoringApp="PremierePro">
									<parameterid>level</parameterid>
									<name>Level</name>
									<valuemin>0</valuemin>
									<valuemax>3.98109</valuemax>
									<value>0.258297</value>
									<keyframe>
										<when>60</when>
										<value>0.251189</value>
									</keyframe>
									<keyframe>
										<when>70</when>
										<value>0.258297</value>
									</keyframe>
								</parameter>
							</effect>
						</filter>
						<link>
							<linkclipref>clipitem-1207</linkclipref>
							<mediatype>video</mediatype>
							<trackindex>1</trackindex>
							<clipindex>37</clipindex>
						</link>
						<link>
							<linkclipref>clipitem-1436</linkclipref>
							<mediatype>audio</mediatype>
							<trackindex>1</trackindex>
							<clipindex>28</clipindex>
							<groupindex>1</groupindex>
						</link>
						<link>
							<linkclipref>clipitem-1474</linkclipref>
							<mediatype>audio</mediatype>
							<trackindex>2</trackindex>
							<clipindex>28</clipindex>
							<groupindex>1</groupindex>
						</link>
						<logginginfo>
							<description></description>
							<scene></scene>
							<shottake></shottake>
							<lognote></lognote>
							<good></good>
							<originalvideofilename></originalvideofilename>
							<originalaudiofilename></originalaudiofilename>
						</logginginfo>
						<colorinfo>
							<lut></lut>
							<lut1></lut1>
							<asc_sop></asc_sop>
							<asc_sat></asc_sat>
							<lut2></lut2>
						</colorinfo>
						<labels>
							<label2>Purple</label2>
						</labels>
					</clipitem>
					<clipitem id="clipitem-1437" premiereChannelType="stereo">
						<masterclipid>masterclip-497</masterclipid>
						<name>Nested Sequence 468</name>
						<enabled>TRUE</enabled>
						<duration>7503</duration>
						<rate>
							<timebase>25</timebase>
							<ntsc>FALSE</ntsc>
						</rate>
						<start>49088</start>
						<end>49569</end>
						<in>5164</in>
						<out>5645</out>
						<pproTicksIn>52469544960000</pproTicksIn>
						<pproTicksOut>57356812800000</pproTicksOut>
						<sequence id="sequence-92"/>
						<sourcetrack>
							<mediatype>audio</mediatype>
							<trackindex>0</trackindex>
						</sourcetrack>
						<filter>
							<effect>
								<name>Audio Levels</name>
								<effectid>audiolevels</effectid>
								<effectcategory>audiolevels</effectcategory>
								<effecttype>audiolevels</effecttype>
								<mediatype>audio</mediatype>
								<pproBypass>false</pproBypass>
								<parameter authoringApp="PremierePro">
									<parameterid>level</parameterid>
									<name>Level</name>
									<valuemin>0</valuemin>
									<valuemax>3.98109</valuemax>
									<value>1</value>
									<keyframe>
										<when>18</when>
										<value>0</value>
									</keyframe>
									<keyframe>
										<when>19</when>
										<value>0</value>
									</keyframe>
									<keyframe>
										<when>507</when>
										<value>0</value>
									</keyframe>
									<keyframe>
										<when>509</when>
										<value>0</value>
									</keyframe>
									<keyframe>
										<when>1448</when>
										<value>0</value>
									</keyframe>
									<keyframe>
										<when>1449</when>
										<value>0.00880158</value>
									</keyframe>
									<keyframe>
										<when>2112</when>
										<value>0.00880158</value>
									</keyframe>
									<keyframe>
										<when>2114</when>
										<value>0</value>
									</keyframe>
									<keyframe>
										<when>2713</when>
										<value>0</value>
									</keyframe>
									<keyframe>
										<when>2715</when>
										<value>0</value>
									</keyframe>
									<keyframe>
										<when>3356</when>
										<value>0</value>
									</keyframe>
									<keyframe>
										<when>3358</when>
										<value>0</value>
									</keyframe>
									<keyframe>
										<when>5166</when>
										<value>0</value>
									</keyframe>
									<keyframe>
										<when>5167</when>
										<value>1</value>
									</keyframe>
								</parameter>
							</effect>
						</filter>
						<link>
							<linkclipref>clipitem-1208</linkclipref>
							<mediatype>video</mediatype>
							<trackindex>1</trackindex>
							<clipindex>38</clipindex>
						</link>
						<link>
							<linkclipref>clipitem-1437</linkclipref>
							<mediatype>audio</mediatype>
							<trackindex>1</trackindex>
							<clipindex>29</clipindex>
							<groupindex>1</groupindex>
						</link>
						<link>
							<linkclipref>clipitem-1475</linkclipref>
							<mediatype>audio</mediatype>
							<trackindex>2</trackindex>
							<clipindex>29</clipindex>
							<groupindex>1</groupindex>
						</link>
						<labels>
							<label2>Forest</label2>
						</labels>
					</clipitem>
					<clipitem id="clipitem-1438" premiereChannelType="stereo">
						<masterclipid>masterclip-519</masterclipid>
						<name>GAYAZOV$ BROTHER$_МАЛИНОВАЯ ЛАДА___MSWCLP004814.mov</name>
						<enabled>TRUE</enabled>
						<duration>11542</duration>
						<rate>
							<timebase>25</timebase>
							<ntsc>FALSE</ntsc>
						</rate>
						<start>49644</start>
						<end>55170</end>
						<in>245</in>
						<out>5771</out>
						<pproTicksIn>2489356800000</pproTicksIn>
						<pproTicksOut>58637053440000</pproTicksOut>
						<file id="file-434"/>
						<sourcetrack>
							<mediatype>audio</mediatype>
							<trackindex>1</trackindex>
						</sourcetrack>
						<filter>
							<effect>
								<name>Audio Levels</name>
								<effectid>audiolevels</effectid>
								<effectcategory>audiolevels</effectcategory>
								<effecttype>audiolevels</effecttype>
								<mediatype>audio</mediatype>
								<pproBypass>false</pproBypass>
								<parameter authoringApp="PremierePro">
									<parameterid>level</parameterid>
									<name>Level</name>
									<valuemin>0</valuemin>
									<valuemax>3.98109</valuemax>
									<value>1</value>
									<keyframe>
										<when>254</when>
										<value>0</value>
									</keyframe>
									<keyframe>
										<when>256</when>
										<value>1</value>
									</keyframe>
								</parameter>
							</effect>
						</filter>
						<link>
							<linkclipref>clipitem-1210</linkclipref>
							<mediatype>video</mediatype>
							<trackindex>1</trackindex>
							<clipindex>40</clipindex>
						</link>
						<link>
							<linkclipref>clipitem-1438</linkclipref>
							<mediatype>audio</mediatype>
							<trackindex>1</trackindex>
							<clipindex>30</clipindex>
							<groupindex>1</groupindex>
						</link>
						<link>
							<linkclipref>clipitem-1476</linkclipref>
							<mediatype>audio</mediatype>
							<trackindex>2</trackindex>
							<clipindex>30</clipindex>
							<groupindex>1</groupindex>
						</link>
						<logginginfo>
							<description></description>
							<scene></scene>
							<shottake></shottake>
							<lognote></lognote>
							<good></good>
							<originalvideofilename></originalvideofilename>
							<originalaudiofilename></originalaudiofilename>
						</logginginfo>
						<colorinfo>
							<lut></lut>
							<lut1></lut1>
							<asc_sop></asc_sop>
							<asc_sat></asc_sat>
							<lut2></lut2>
						</colorinfo>
						<labels>
							<label2>Iris</label2>
						</labels>
					</clipitem>
					<clipitem id="clipitem-1439" premiereChannelType="stereo">
						<masterclipid>masterclip-501</masterclipid>
						<name>MYZ_RusskiyChart_OtbivkaMini_h264_v2.mp4</name>
						<enabled>TRUE</enabled>
						<duration>74</duration>
						<rate>
							<timebase>25</timebase>
							<ntsc>FALSE</ntsc>
						</rate>
						<start>55170</start>
						<end>55230</end>
						<in>0</in>
						<out>60</out>
						<pproTicksIn>0</pproTicksIn>
						<pproTicksOut>609638400000</pproTicksOut>
						<file id="file-416"/>
						<sourcetrack>
							<mediatype>audio</mediatype>
							<trackindex>1</trackindex>
						</sourcetrack>
						<filter>
							<effect>
								<name>Audio Levels</name>
								<effectid>audiolevels</effectid>
								<effectcategory>audiolevels</effectcategory>
								<effecttype>audiolevels</effecttype>
								<mediatype>audio</mediatype>
								<pproBypass>false</pproBypass>
								<parameter authoringApp="PremierePro">
									<parameterid>level</parameterid>
									<name>Level</name>
									<valuemin>0</valuemin>
									<valuemax>3.98109</valuemax>
									<value>0.258297</value>
									<keyframe>
										<when>60</when>
										<value>0.251189</value>
									</keyframe>
									<keyframe>
										<when>70</when>
										<value>0.258297</value>
									</keyframe>
								</parameter>
							</effect>
						</filter>
						<link>
							<linkclipref>clipitem-1211</linkclipref>
							<mediatype>video</mediatype>
							<trackindex>1</trackindex>
							<clipindex>41</clipindex>
						</link>
						<link>
							<linkclipref>clipitem-1439</linkclipref>
							<mediatype>audio</mediatype>
							<trackindex>1</trackindex>
							<clipindex>31</clipindex>
							<groupindex>1</groupindex>
						</link>
						<link>
							<linkclipref>clipitem-1477</linkclipref>
							<mediatype>audio</mediatype>
							<trackindex>2</trackindex>
							<clipindex>31</clipindex>
							<groupindex>1</groupindex>
						</link>
						<logginginfo>
							<description></description>
							<scene></scene>
							<shottake></shottake>
							<lognote></lognote>
							<good></good>
							<originalvideofilename></originalvideofilename>
							<originalaudiofilename></originalaudiofilename>
						</logginginfo>
						<colorinfo>
							<lut></lut>
							<lut1></lut1>
							<asc_sop></asc_sop>
							<asc_sat></asc_sat>
							<lut2></lut2>
						</colorinfo>
						<labels>
							<label2>Purple</label2>
						</labels>
					</clipitem>
					<clipitem id="clipitem-1440" premiereChannelType="stereo">
						<masterclipid>masterclip-497</masterclipid>
						<name>Nested Sequence 468</name>
						<enabled>TRUE</enabled>
						<duration>7503</duration>
						<rate>
							<timebase>25</timebase>
							<ntsc>FALSE</ntsc>
						</rate>
						<start>55230</start>
						<end>55813</end>
						<in>3351</in>
						<out>3934</out>
						<pproTicksIn>34048304640000</pproTicksIn>
						<pproTicksOut>39971957760000</pproTicksOut>
						<sequence id="sequence-92"/>
						<sourcetrack>
							<mediatype>audio</mediatype>
							<trackindex>0</trackindex>
						</sourcetrack>
						<filter>
							<effect>
								<name>Audio Levels</name>
								<effectid>audiolevels</effectid>
								<effectcategory>audiolevels</effectcategory>
								<effecttype>audiolevels</effecttype>
								<mediatype>audio</mediatype>
								<pproBypass>false</pproBypass>
								<parameter authoringApp="PremierePro">
									<parameterid>level</parameterid>
									<name>Level</name>
									<valuemin>0</valuemin>
									<valuemax>3.98109</valuemax>
									<value>1</value>
									<keyframe>
										<when>18</when>
										<value>0</value>
									</keyframe>
									<keyframe>
										<when>19</when>
										<value>0</value>
									</keyframe>
									<keyframe>
										<when>507</when>
										<value>0</value>
									</keyframe>
									<keyframe>
										<when>509</when>
										<value>0</value>
									</keyframe>
									<keyframe>
										<when>1448</when>
										<value>0</value>
									</keyframe>
									<keyframe>
										<when>1449</when>
										<value>0.00880158</value>
									</keyframe>
									<keyframe>
										<when>2112</when>
										<value>0.00880158</value>
									</keyframe>
									<keyframe>
										<when>2114</when>
										<value>0</value>
									</keyframe>
									<keyframe>
										<when>2713</when>
										<value>0</value>
									</keyframe>
									<keyframe>
										<when>2715</when>
										<value>0</value>
									</keyframe>
									<keyframe>
										<when>3356</when>
										<value>0</value>
									</keyframe>
									<keyframe>
										<when>3358</when>
										<value>1</value>
									</keyframe>
								</parameter>
							</effect>
						</filter>
						<link>
							<linkclipref>clipitem-1212</linkclipref>
							<mediatype>video</mediatype>
							<trackindex>1</trackindex>
							<clipindex>42</clipindex>
						</link>
						<link>
							<linkclipref>clipitem-1440</linkclipref>
							<mediatype>audio</mediatype>
							<trackindex>1</trackindex>
							<clipindex>32</clipindex>
							<groupindex>1</groupindex>
						</link>
						<link>
							<linkclipref>clipitem-1478</linkclipref>
							<mediatype>audio</mediatype>
							<trackindex>2</trackindex>
							<clipindex>32</clipindex>
							<groupindex>1</groupindex>
						</link>
						<labels>
							<label2>Forest</label2>
						</labels>
					</clipitem>
					<clipitem id="clipitem-1441" premiereChannelType="stereo">
						<masterclipid>masterclip-521</masterclipid>
						<name>ДАНЯ МИЛОХИН &amp; МУМИЙ ТРОЛЛЬ_БАШНЯ___MSWCLP004828.mov</name>
						<enabled>TRUE</enabled>
						<duration>9870</duration>
						<rate>
							<timebase>25</timebase>
							<ntsc>FALSE</ntsc>
						</rate>
						<start>55888</start>
						<end>60823</end>
						<in>0</in>
						<out>4935</out>
						<pproTicksIn>0</pproTicksIn>
						<pproTicksOut>50142758400000</pproTicksOut>
						<file id="file-436"/>
						<sourcetrack>
							<mediatype>audio</mediatype>
							<trackindex>1</trackindex>
						</sourcetrack>
						<filter>
							<effect>
								<name>Audio Levels</name>
								<effectid>audiolevels</effectid>
								<effectcategory>audiolevels</effectcategory>
								<effecttype>audiolevels</effecttype>
								<mediatype>audio</mediatype>
								<pproBypass>false</pproBypass>
								<parameter authoringApp="PremierePro">
									<parameterid>level</parameterid>
									<name>Level</name>
									<valuemin>0</valuemin>
									<valuemax>3.98109</valuemax>
									<value>1</value>
									<keyframe>
										<when>4897</when>
										<value>1</value>
									</keyframe>
									<keyframe>
										<when>4931</when>
										<value>0.1886</value>
									</keyframe>
								</parameter>
							</effect>
						</filter>
						<link>
							<linkclipref>clipitem-1214</linkclipref>
							<mediatype>video</mediatype>
							<trackindex>1</trackindex>
							<clipindex>44</clipindex>
						</link>
						<link>
							<linkclipref>clipitem-1441</linkclipref>
							<mediatype>audio</mediatype>
							<trackindex>1</trackindex>
							<clipindex>33</clipindex>
							<groupindex>1</groupindex>
						</link>
						<link>
							<linkclipref>clipitem-1479</linkclipref>
							<mediatype>audio</mediatype>
							<trackindex>2</trackindex>
							<clipindex>33</clipindex>
							<groupindex>1</groupindex>
						</link>
						<logginginfo>
							<description></description>
							<scene></scene>
							<shottake></shottake>
							<lognote></lognote>
							<good></good>
							<originalvideofilename></originalvideofilename>
							<originalaudiofilename></originalaudiofilename>
						</logginginfo>
						<colorinfo>
							<lut></lut>
							<lut1></lut1>
							<asc_sop></asc_sop>
							<asc_sat></asc_sat>
							<lut2></lut2>
						</colorinfo>
						<labels>
							<label2>Iris</label2>
						</labels>
					</clipitem>
					<clipitem id="clipitem-1442" premiereChannelType="stereo">
						<masterclipid>masterclip-501</masterclipid>
						<name>MYZ_RusskiyChart_OtbivkaMini_h264_v2.mp4</name>
						<enabled>TRUE</enabled>
						<duration>74</duration>
						<rate>
							<timebase>25</timebase>
							<ntsc>FALSE</ntsc>
						</rate>
						<start>60823</start>
						<end>60883</end>
						<in>0</in>
						<out>60</out>
						<pproTicksIn>0</pproTicksIn>
						<pproTicksOut>609638400000</pproTicksOut>
						<file id="file-416"/>
						<sourcetrack>
							<mediatype>audio</mediatype>
							<trackindex>1</trackindex>
						</sourcetrack>
						<filter>
							<effect>
								<name>Audio Levels</name>
								<effectid>audiolevels</effectid>
								<effectcategory>audiolevels</effectcategory>
								<effecttype>audiolevels</effecttype>
								<mediatype>audio</mediatype>
								<pproBypass>false</pproBypass>
								<parameter authoringApp="PremierePro">
									<parameterid>level</parameterid>
									<name>Level</name>
									<valuemin>0</valuemin>
									<valuemax>3.98109</valuemax>
									<value>0.251189</value>
									<keyframe>
										<when>60</when>
										<value>0.251189</value>
									</keyframe>
									<keyframe>
										<when>70</when>
										<value>0.258297</value>
									</keyframe>
								</parameter>
							</effect>
						</filter>
						<link>
							<linkclipref>clipitem-1215</linkclipref>
							<mediatype>video</mediatype>
							<trackindex>1</trackindex>
							<clipindex>45</clipindex>
						</link>
						<link>
							<linkclipref>clipitem-1442</linkclipref>
							<mediatype>audio</mediatype>
							<trackindex>1</trackindex>
							<clipindex>34</clipindex>
							<groupindex>1</groupindex>
						</link>
						<link>
							<linkclipref>clipitem-1480</linkclipref>
							<mediatype>audio</mediatype>
							<trackindex>2</trackindex>
							<clipindex>34</clipindex>
							<groupindex>1</groupindex>
						</link>
						<logginginfo>
							<description></description>
							<scene></scene>
							<shottake></shottake>
							<lognote></lognote>
							<good></good>
							<originalvideofilename></originalvideofilename>
							<originalaudiofilename></originalaudiofilename>
						</logginginfo>
						<colorinfo>
							<lut></lut>
							<lut1></lut1>
							<asc_sop></asc_sop>
							<asc_sat></asc_sat>
							<lut2></lut2>
						</colorinfo>
						<labels>
							<label2>Purple</label2>
						</labels>
					</clipitem>
					<clipitem id="clipitem-1443" premiereChannelType="stereo">
						<masterclipid>masterclip-497</masterclipid>
						<name>Nested Sequence 468</name>
						<enabled>TRUE</enabled>
						<duration>7503</duration>
						<rate>
							<timebase>25</timebase>
							<ntsc>FALSE</ntsc>
						</rate>
						<start>60883</start>
						<end>61365</end>
						<in>6164</in>
						<out>6646</out>
						<pproTicksIn>62630184960000</pproTicksIn>
						<pproTicksOut>67527613440000</pproTicksOut>
						<sequence id="sequence-92"/>
						<sourcetrack>
							<mediatype>audio</mediatype>
							<trackindex>0</trackindex>
						</sourcetrack>
						<filter>
							<effect>
								<name>Audio Levels</name>
								<effectid>audiolevels</effectid>
								<effectcategory>audiolevels</effectcategory>
								<effecttype>audiolevels</effecttype>
								<mediatype>audio</mediatype>
								<pproBypass>false</pproBypass>
								<parameter authoringApp="PremierePro">
									<parameterid>level</parameterid>
									<name>Level</name>
									<valuemin>0</valuemin>
									<valuemax>3.98109</valuemax>
									<value>0</value>
									<keyframe>
										<when>18</when>
										<value>0</value>
									</keyframe>
									<keyframe>
										<when>19</when>
										<value>0</value>
									</keyframe>
									<keyframe>
										<when>507</when>
										<value>0</value>
									</keyframe>
									<keyframe>
										<when>509</when>
										<value>0</value>
									</keyframe>
									<keyframe>
										<when>1448</when>
										<value>0</value>
									</keyframe>
									<keyframe>
										<when>1449</when>
										<value>0.00880158</value>
									</keyframe>
									<keyframe>
										<when>2112</when>
										<value>0.00880158</value>
									</keyframe>
									<keyframe>
										<when>2114</when>
										<value>0</value>
									</keyframe>
									<keyframe>
										<when>2713</when>
										<value>0</value>
									</keyframe>
									<keyframe>
										<when>2715</when>
										<value>0</value>
									</keyframe>
									<keyframe>
										<when>3356</when>
										<value>0</value>
									</keyframe>
									<keyframe>
										<when>3358</when>
										<value>0</value>
									</keyframe>
									<keyframe>
										<when>5166</when>
										<value>0</value>
									</keyframe>
									<keyframe>
										<when>5167</when>
										<value>0</value>
									</keyframe>
									<keyframe>
										<when>5688</when>
										<value>0</value>
									</keyframe>
									<keyframe>
										<when>5691</when>
										<value>0</value>
									</keyframe>
									<keyframe>
										<when>6168</when>
										<value>0</value>
									</keyframe>
									<keyframe>
										<when>6169</when>
										<value>1</value>
									</keyframe>
								</parameter>
							</effect>
						</filter>
						<link>
							<linkclipref>clipitem-1216</linkclipref>
							<mediatype>video</mediatype>
							<trackindex>1</trackindex>
							<clipindex>46</clipindex>
						</link>
						<link>
							<linkclipref>clipitem-1443</linkclipref>
							<mediatype>audio</mediatype>
							<trackindex>1</trackindex>
							<clipindex>35</clipindex>
							<groupindex>1</groupindex>
						</link>
						<link>
							<linkclipref>clipitem-1481</linkclipref>
							<mediatype>audio</mediatype>
							<trackindex>2</trackindex>
							<clipindex>35</clipindex>
							<groupindex>1</groupindex>
						</link>
						<labels>
							<label2>Forest</label2>
						</labels>
					</clipitem>
					<clipitem id="clipitem-1444" premiereChannelType="stereo">
						<masterclipid>masterclip-523</masterclipid>
						<name>ЛЮСЯ ЧЕБОТИНА_СОЛНЦЕ МОНАКО___MSWCLP004812.mov</name>
						<enabled>TRUE</enabled>
						<duration>7794</duration>
						<rate>
							<timebase>25</timebase>
							<ntsc>FALSE</ntsc>
						</rate>
						<start>61440</start>
						<end>65337</end>
						<in>0</in>
						<out>3897</out>
						<pproTicksIn>0</pproTicksIn>
						<pproTicksOut>39596014080000</pproTicksOut>
						<file id="file-438"/>
						<sourcetrack>
							<mediatype>audio</mediatype>
							<trackindex>1</trackindex>
						</sourcetrack>
						<filter>
							<effect>
								<name>Audio Levels</name>
								<effectid>audiolevels</effectid>
								<effectcategory>audiolevels</effectcategory>
								<effecttype>audiolevels</effecttype>
								<mediatype>audio</mediatype>
								<pproBypass>false</pproBypass>
								<parameter authoringApp="PremierePro">
									<parameterid>level</parameterid>
									<name>Level</name>
									<valuemin>0</valuemin>
									<valuemax>3.98109</valuemax>
									<value>1</value>
								</parameter>
							</effect>
						</filter>
						<link>
							<linkclipref>clipitem-1218</linkclipref>
							<mediatype>video</mediatype>
							<trackindex>1</trackindex>
							<clipindex>48</clipindex>
						</link>
						<link>
							<linkclipref>clipitem-1444</linkclipref>
							<mediatype>audio</mediatype>
							<trackindex>1</trackindex>
							<clipindex>36</clipindex>
							<groupindex>1</groupindex>
						</link>
						<link>
							<linkclipref>clipitem-1482</linkclipref>
							<mediatype>audio</mediatype>
							<trackindex>2</trackindex>
							<clipindex>36</clipindex>
							<groupindex>1</groupindex>
						</link>
						<logginginfo>
							<description></description>
							<scene></scene>
							<shottake></shottake>
							<lognote></lognote>
							<good></good>
							<originalvideofilename></originalvideofilename>
							<originalaudiofilename></originalaudiofilename>
						</logginginfo>
						<colorinfo>
							<lut></lut>
							<lut1></lut1>
							<asc_sop></asc_sop>
							<asc_sat></asc_sat>
							<lut2></lut2>
						</colorinfo>
						<labels>
							<label2>Iris</label2>
						</labels>
					</clipitem>
					<clipitem id="clipitem-1445" premiereChannelType="stereo">
						<masterclipid>masterclip-501</masterclipid>
						<name>MYZ_RusskiyChart_OtbivkaMini_h264_v2.mp4</name>
						<enabled>TRUE</enabled>
						<duration>74</duration>
						<rate>
							<timebase>25</timebase>
							<ntsc>FALSE</ntsc>
						</rate>
						<start>65337</start>
						<end>65397</end>
						<in>0</in>
						<out>60</out>
						<pproTicksIn>0</pproTicksIn>
						<pproTicksOut>609638400000</pproTicksOut>
						<file id="file-416"/>
						<sourcetrack>
							<mediatype>audio</mediatype>
							<trackindex>1</trackindex>
						</sourcetrack>
						<filter>
							<effect>
								<name>Audio Levels</name>
								<effectid>audiolevels</effectid>
								<effectcategory>audiolevels</effectcategory>
								<effecttype>audiolevels</effecttype>
								<mediatype>audio</mediatype>
								<pproBypass>false</pproBypass>
								<parameter authoringApp="PremierePro">
									<parameterid>level</parameterid>
									<name>Level</name>
									<valuemin>0</valuemin>
									<valuemax>3.98109</valuemax>
									<value>0.251189</value>
									<keyframe>
										<when>60</when>
										<value>0.251189</value>
									</keyframe>
									<keyframe>
										<when>70</when>
										<value>0.258297</value>
									</keyframe>
								</parameter>
							</effect>
						</filter>
						<link>
							<linkclipref>clipitem-1219</linkclipref>
							<mediatype>video</mediatype>
							<trackindex>1</trackindex>
							<clipindex>49</clipindex>
						</link>
						<link>
							<linkclipref>clipitem-1445</linkclipref>
							<mediatype>audio</mediatype>
							<trackindex>1</trackindex>
							<clipindex>37</clipindex>
							<groupindex>1</groupindex>
						</link>
						<link>
							<linkclipref>clipitem-1483</linkclipref>
							<mediatype>audio</mediatype>
							<trackindex>2</trackindex>
							<clipindex>37</clipindex>
							<groupindex>1</groupindex>
						</link>
						<logginginfo>
							<description></description>
							<scene></scene>
							<shottake></shottake>
							<lognote></lognote>
							<good></good>
							<originalvideofilename></originalvideofilename>
							<originalaudiofilename></originalaudiofilename>
						</logginginfo>
						<colorinfo>
							<lut></lut>
							<lut1></lut1>
							<asc_sop></asc_sop>
							<asc_sat></asc_sat>
							<lut2></lut2>
						</colorinfo>
						<labels>
							<label2>Purple</label2>
						</labels>
					</clipitem>
					<clipitem id="clipitem-1446" premiereChannelType="stereo">
						<masterclipid>masterclip-497</masterclipid>
						<name>Nested Sequence 468</name>
						<enabled>TRUE</enabled>
						<duration>7503</duration>
						<rate>
							<timebase>25</timebase>
							<ntsc>FALSE</ntsc>
						</rate>
						<start>65397</start>
						<end>65740</end>
						<in>6707</in>
						<out>7050</out>
						<pproTicksIn>68147412480000</pproTicksIn>
						<pproTicksOut>71632512000000</pproTicksOut>
						<sequence id="sequence-92"/>
						<sourcetrack>
							<mediatype>audio</mediatype>
							<trackindex>0</trackindex>
						</sourcetrack>
						<filter>
							<effect>
								<name>Audio Levels</name>
								<effectid>audiolevels</effectid>
								<effectcategory>audiolevels</effectcategory>
								<effecttype>audiolevels</effecttype>
								<mediatype>audio</mediatype>
								<pproBypass>false</pproBypass>
								<parameter authoringApp="PremierePro">
									<parameterid>level</parameterid>
									<name>Level</name>
									<valuemin>0</valuemin>
									<valuemax>3.98109</valuemax>
									<value>0</value>
									<keyframe>
										<when>18</when>
										<value>0</value>
									</keyframe>
									<keyframe>
										<when>19</when>
										<value>0</value>
									</keyframe>
									<keyframe>
										<when>507</when>
										<value>0</value>
									</keyframe>
									<keyframe>
										<when>509</when>
										<value>0</value>
									</keyframe>
									<keyframe>
										<when>1448</when>
										<value>0</value>
									</keyframe>
									<keyframe>
										<when>1449</when>
										<value>0.00880158</value>
									</keyframe>
									<keyframe>
										<when>2112</when>
										<value>0.00880158</value>
									</keyframe>
									<keyframe>
										<when>2114</when>
										<value>0</value>
									</keyframe>
									<keyframe>
										<when>2713</when>
										<value>0</value>
									</keyframe>
									<keyframe>
										<when>2715</when>
										<value>0</value>
									</keyframe>
									<keyframe>
										<when>3356</when>
										<value>0</value>
									</keyframe>
									<keyframe>
										<when>3358</when>
										<value>0</value>
									</keyframe>
									<keyframe>
										<when>5166</when>
										<value>0</value>
									</keyframe>
									<keyframe>
										<when>5167</when>
										<value>0</value>
									</keyframe>
									<keyframe>
										<when>5688</when>
										<value>0</value>
									</keyframe>
									<keyframe>
										<when>5691</when>
										<value>0</value>
									</keyframe>
									<keyframe>
										<when>6168</when>
										<value>0</value>
									</keyframe>
									<keyframe>
										<when>6169</when>
										<value>0</value>
									</keyframe>
									<keyframe>
										<when>6711</when>
										<value>0</value>
									</keyframe>
									<keyframe>
										<when>6713</when>
										<value>1</value>
									</keyframe>
								</parameter>
							</effect>
						</filter>
						<link>
							<linkclipref>clipitem-1220</linkclipref>
							<mediatype>video</mediatype>
							<trackindex>1</trackindex>
							<clipindex>50</clipindex>
						</link>
						<link>
							<linkclipref>clipitem-1446</linkclipref>
							<mediatype>audio</mediatype>
							<trackindex>1</trackindex>
							<clipindex>38</clipindex>
							<groupindex>1</groupindex>
						</link>
						<link>
							<linkclipref>clipitem-1484</linkclipref>
							<mediatype>audio</mediatype>
							<trackindex>2</trackindex>
							<clipindex>38</clipindex>
							<groupindex>1</groupindex>
						</link>
						<labels>
							<label2>Forest</label2>
						</labels>
					</clipitem>
					<enabled>TRUE</enabled>
					<locked>FALSE</locked>
					<outputchannelindex>1</outputchannelindex>
				</track>
				<track TL.SQTrackAudioKeyframeStyle="0" TL.SQTrackShy="0" TL.SQTrackExpandedHeight="85" TL.SQTrackExpanded="0" MZ.TrackTargeted="0" PannerCurrentValue="0.5" PannerIsInverted="true" PannerStartKeyframe="-91445760000000000,0.5,0,0,0,0,0,0" PannerName="Balance" currentExplodedTrackIndex="1" totalExplodedTrackCount="2" premiereTrackType="Stereo">
					<clipitem id="clipitem-1447" premiereChannelType="stereo">
						<masterclipid>masterclip-496</masterclipid>
						<name>MYZ_RusskiyChart_appProRes_v2.mov</name>
						<enabled>TRUE</enabled>
						<duration>299</duration>
						<rate>
							<timebase>25</timebase>
							<ntsc>FALSE</ntsc>
						</rate>
						<start>0</start>
						<end>274</end>
						<in>0</in>
						<out>274</out>
						<pproTicksIn>0</pproTicksIn>
						<pproTicksOut>2784015360000</pproTicksOut>
						<file id="file-412"/>
						<sourcetrack>
							<mediatype>audio</mediatype>
							<trackindex>2</trackindex>
						</sourcetrack>
						<filter>
							<effect>
								<name>Audio Levels</name>
								<effectid>audiolevels</effectid>
								<effectcategory>audiolevels</effectcategory>
								<effecttype>audiolevels</effecttype>
								<mediatype>audio</mediatype>
								<pproBypass>false</pproBypass>
								<parameter authoringApp="PremierePro">
									<parameterid>level</parameterid>
									<name>Level</name>
									<valuemin>0</valuemin>
									<valuemax>3.98109</valuemax>
									<value>0</value>
									<keyframe>
										<when>262</when>
										<value>0.158489</value>
									</keyframe>
									<keyframe>
										<when>272</when>
										<value>0</value>
									</keyframe>
								</parameter>
							</effect>
						</filter>
						<link>
							<linkclipref>clipitem-1168</linkclipref>
							<mediatype>video</mediatype>
							<trackindex>1</trackindex>
							<clipindex>1</clipindex>
						</link>
						<link>
							<linkclipref>clipitem-1409</linkclipref>
							<mediatype>audio</mediatype>
							<trackindex>1</trackindex>
							<clipindex>1</clipindex>
							<groupindex>1</groupindex>
						</link>
						<link>
							<linkclipref>clipitem-1447</linkclipref>
							<mediatype>audio</mediatype>
							<trackindex>2</trackindex>
							<clipindex>1</clipindex>
							<groupindex>1</groupindex>
						</link>
						<logginginfo>
							<description></description>
							<scene></scene>
							<shottake></shottake>
							<lognote></lognote>
							<good></good>
							<originalvideofilename></originalvideofilename>
							<originalaudiofilename></originalaudiofilename>
						</logginginfo>
						<colorinfo>
							<lut></lut>
							<lut1></lut1>
							<asc_sop></asc_sop>
							<asc_sat></asc_sat>
							<lut2></lut2>
						</colorinfo>
						<labels>
							<label2>Iris</label2>
						</labels>
					</clipitem>
					<clipitem id="clipitem-1448" premiereChannelType="stereo">
						<masterclipid>masterclip-497</masterclipid>
						<name>Nested Sequence 468</name>
						<enabled>TRUE</enabled>
						<duration>7503</duration>
						<rate>
							<timebase>25</timebase>
							<ntsc>FALSE</ntsc>
						</rate>
						<start>274</start>
						<end>742</end>
						<in>14</in>
						<out>482</out>
						<pproTicksIn>142248960000</pproTicksIn>
						<pproTicksOut>4897428480000</pproTicksOut>
						<sequence id="sequence-92"/>
						<sourcetrack>
							<mediatype>audio</mediatype>
							<trackindex>1</trackindex>
						</sourcetrack>
						<filter>
							<effect>
								<name>Audio Levels</name>
								<effectid>audiolevels</effectid>
								<effectcategory>audiolevels</effectcategory>
								<effecttype>audiolevels</effecttype>
								<mediatype>audio</mediatype>
								<pproBypass>false</pproBypass>
								<parameter authoringApp="PremierePro">
									<parameterid>level</parameterid>
									<name>Level</name>
									<valuemin>0</valuemin>
									<valuemax>3.98109</valuemax>
									<value>1</value>
									<keyframe>
										<when>18</when>
										<value>0</value>
									</keyframe>
									<keyframe>
										<when>19</when>
										<value>1</value>
									</keyframe>
								</parameter>
							</effect>
						</filter>
						<link>
							<linkclipref>clipitem-1169</linkclipref>
							<mediatype>video</mediatype>
							<trackindex>1</trackindex>
							<clipindex>2</clipindex>
						</link>
						<link>
							<linkclipref>clipitem-1410</linkclipref>
							<mediatype>audio</mediatype>
							<trackindex>1</trackindex>
							<clipindex>2</clipindex>
							<groupindex>1</groupindex>
						</link>
						<link>
							<linkclipref>clipitem-1448</linkclipref>
							<mediatype>audio</mediatype>
							<trackindex>2</trackindex>
							<clipindex>2</clipindex>
							<groupindex>1</groupindex>
						</link>
						<labels>
							<label2>Forest</label2>
						</labels>
					</clipitem>
					<clipitem id="clipitem-1449" premiereChannelType="stereo">
						<masterclipid>masterclip-500</masterclipid>
						<name>ВАЛЕРИЙ МЕЛАДЗЕ_ПОЛЮБИЛ___MSWCLP004836.mov</name>
						<enabled>TRUE</enabled>
						<duration>13128</duration>
						<rate>
							<timebase>25</timebase>
							<ntsc>FALSE</ntsc>
						</rate>
						<start>817</start>
						<end>7376</end>
						<in>0</in>
						<out>6559</out>
						<pproTicksIn>0</pproTicksIn>
						<pproTicksOut>66643637760000</pproTicksOut>
						<file id="file-415"/>
						<sourcetrack>
							<mediatype>audio</mediatype>
							<trackindex>2</trackindex>
						</sourcetrack>
						<filter>
							<effect>
								<name>Audio Levels</name>
								<effectid>audiolevels</effectid>
								<effectcategory>audiolevels</effectcategory>
								<effecttype>audiolevels</effecttype>
								<mediatype>audio</mediatype>
								<pproBypass>false</pproBypass>
								<parameter authoringApp="PremierePro">
									<parameterid>level</parameterid>
									<name>Level</name>
									<valuemin>0</valuemin>
									<valuemax>3.98109</valuemax>
									<value>1</value>
									<keyframe>
										<when>6219</when>
										<value>1</value>
									</keyframe>
									<keyframe>
										<when>6471</when>
										<value>1</value>
									</keyframe>
								</parameter>
							</effect>
						</filter>
						<link>
							<linkclipref>clipitem-1174</linkclipref>
							<mediatype>video</mediatype>
							<trackindex>1</trackindex>
							<clipindex>4</clipindex>
						</link>
						<link>
							<linkclipref>clipitem-1411</linkclipref>
							<mediatype>audio</mediatype>
							<trackindex>1</trackindex>
							<clipindex>3</clipindex>
							<groupindex>1</groupindex>
						</link>
						<link>
							<linkclipref>clipitem-1449</linkclipref>
							<mediatype>audio</mediatype>
							<trackindex>2</trackindex>
							<clipindex>3</clipindex>
							<groupindex>1</groupindex>
						</link>
						<logginginfo>
							<description></description>
							<scene></scene>
							<shottake></shottake>
							<lognote></lognote>
							<good></good>
							<originalvideofilename></originalvideofilename>
							<originalaudiofilename></originalaudiofilename>
						</logginginfo>
						<colorinfo>
							<lut></lut>
							<lut1></lut1>
							<asc_sop></asc_sop>
							<asc_sat></asc_sat>
							<lut2></lut2>
						</colorinfo>
						<labels>
							<label2>Iris</label2>
						</labels>
					</clipitem>
					<clipitem id="clipitem-1450" premiereChannelType="stereo">
						<masterclipid>masterclip-501</masterclipid>
						<name>MYZ_RusskiyChart_OtbivkaMini_h264_v2.mp4</name>
						<enabled>TRUE</enabled>
						<duration>74</duration>
						<rate>
							<timebase>25</timebase>
							<ntsc>FALSE</ntsc>
						</rate>
						<start>7376</start>
						<end>7436</end>
						<in>0</in>
						<out>60</out>
						<pproTicksIn>0</pproTicksIn>
						<pproTicksOut>609638400000</pproTicksOut>
						<file id="file-416"/>
						<sourcetrack>
							<mediatype>audio</mediatype>
							<trackindex>2</trackindex>
						</sourcetrack>
						<filter>
							<effect>
								<name>Audio Levels</name>
								<effectid>audiolevels</effectid>
								<effectcategory>audiolevels</effectcategory>
								<effecttype>audiolevels</effecttype>
								<mediatype>audio</mediatype>
								<pproBypass>false</pproBypass>
								<parameter authoringApp="PremierePro">
									<parameterid>level</parameterid>
									<name>Level</name>
									<valuemin>0</valuemin>
									<valuemax>3.98109</valuemax>
									<value>0.258297</value>
									<keyframe>
										<when>60</when>
										<value>0.251189</value>
									</keyframe>
									<keyframe>
										<when>70</when>
										<value>0.258297</value>
									</keyframe>
								</parameter>
							</effect>
						</filter>
						<link>
							<linkclipref>clipitem-1175</linkclipref>
							<mediatype>video</mediatype>
							<trackindex>1</trackindex>
							<clipindex>5</clipindex>
						</link>
						<link>
							<linkclipref>clipitem-1412</linkclipref>
							<mediatype>audio</mediatype>
							<trackindex>1</trackindex>
							<clipindex>4</clipindex>
							<groupindex>1</groupindex>
						</link>
						<link>
							<linkclipref>clipitem-1450</linkclipref>
							<mediatype>audio</mediatype>
							<trackindex>2</trackindex>
							<clipindex>4</clipindex>
							<groupindex>1</groupindex>
						</link>
						<logginginfo>
							<description></description>
							<scene></scene>
							<shottake></shottake>
							<lognote></lognote>
							<good></good>
							<originalvideofilename></originalvideofilename>
							<originalaudiofilename></originalaudiofilename>
						</logginginfo>
						<colorinfo>
							<lut></lut>
							<lut1></lut1>
							<asc_sop></asc_sop>
							<asc_sat></asc_sat>
							<lut2></lut2>
						</colorinfo>
						<labels>
							<label2>Purple</label2>
						</labels>
					</clipitem>
					<clipitem id="clipitem-1451" premiereChannelType="stereo">
						<masterclipid>masterclip-497</masterclipid>
						<name>Nested Sequence 468</name>
						<enabled>TRUE</enabled>
						<duration>7503</duration>
						<rate>
							<timebase>25</timebase>
							<ntsc>FALSE</ntsc>
						</rate>
						<start>7436</start>
						<end>7811</end>
						<in>502</in>
						<out>877</out>
						<pproTicksIn>5100641280000</pproTicksIn>
						<pproTicksOut>8910881280000</pproTicksOut>
						<sequence id="sequence-92"/>
						<sourcetrack>
							<mediatype>audio</mediatype>
							<trackindex>1</trackindex>
						</sourcetrack>
						<filter>
							<effect>
								<name>Audio Levels</name>
								<effectid>audiolevels</effectid>
								<effectcategory>audiolevels</effectcategory>
								<effecttype>audiolevels</effecttype>
								<mediatype>audio</mediatype>
								<pproBypass>false</pproBypass>
								<parameter authoringApp="PremierePro">
									<parameterid>level</parameterid>
									<name>Level</name>
									<valuemin>0</valuemin>
									<valuemax>3.98109</valuemax>
									<value>1</value>
									<keyframe>
										<when>18</when>
										<value>0</value>
									</keyframe>
									<keyframe>
										<when>19</when>
										<value>0</value>
									</keyframe>
									<keyframe>
										<when>507</when>
										<value>0</value>
									</keyframe>
									<keyframe>
										<when>509</when>
										<value>1</value>
									</keyframe>
								</parameter>
							</effect>
						</filter>
						<link>
							<linkclipref>clipitem-1176</linkclipref>
							<mediatype>video</mediatype>
							<trackindex>1</trackindex>
							<clipindex>6</clipindex>
						</link>
						<link>
							<linkclipref>clipitem-1413</linkclipref>
							<mediatype>audio</mediatype>
							<trackindex>1</trackindex>
							<clipindex>5</clipindex>
							<groupindex>1</groupindex>
						</link>
						<link>
							<linkclipref>clipitem-1451</linkclipref>
							<mediatype>audio</mediatype>
							<trackindex>2</trackindex>
							<clipindex>5</clipindex>
							<groupindex>1</groupindex>
						</link>
						<labels>
							<label2>Forest</label2>
						</labels>
					</clipitem>
					<clipitem id="clipitem-1452" premiereChannelType="stereo">
						<masterclipid>masterclip-503</masterclipid>
						<name>АНИ ЛОРАК_ВЕРИЛА___MSWCLP004835.mov</name>
						<enabled>TRUE</enabled>
						<duration>10416</duration>
						<rate>
							<timebase>25</timebase>
							<ntsc>FALSE</ntsc>
						</rate>
						<start>7886</start>
						<end>13071</end>
						<in>0</in>
						<out>5185</out>
						<pproTicksIn>0</pproTicksIn>
						<pproTicksOut>52682918400000</pproTicksOut>
						<file id="file-418"/>
						<sourcetrack>
							<mediatype>audio</mediatype>
							<trackindex>2</trackindex>
						</sourcetrack>
						<filter>
							<effect>
								<name>Audio Levels</name>
								<effectid>audiolevels</effectid>
								<effectcategory>audiolevels</effectcategory>
								<effecttype>audiolevels</effecttype>
								<mediatype>audio</mediatype>
								<pproBypass>false</pproBypass>
								<parameter authoringApp="PremierePro">
									<parameterid>level</parameterid>
									<name>Level</name>
									<valuemin>0</valuemin>
									<valuemax>3.98109</valuemax>
									<value>1</value>
									<keyframe>
										<when>375</when>
										<value>1</value>
									</keyframe>
								</parameter>
							</effect>
						</filter>
						<link>
							<linkclipref>clipitem-1178</linkclipref>
							<mediatype>video</mediatype>
							<trackindex>1</trackindex>
							<clipindex>8</clipindex>
						</link>
						<link>
							<linkclipref>clipitem-1414</linkclipref>
							<mediatype>audio</mediatype>
							<trackindex>1</trackindex>
							<clipindex>6</clipindex>
							<groupindex>1</groupindex>
						</link>
						<link>
							<linkclipref>clipitem-1452</linkclipref>
							<mediatype>audio</mediatype>
							<trackindex>2</trackindex>
							<clipindex>6</clipindex>
							<groupindex>1</groupindex>
						</link>
						<logginginfo>
							<description></description>
							<scene></scene>
							<shottake></shottake>
							<lognote></lognote>
							<good></good>
							<originalvideofilename></originalvideofilename>
							<originalaudiofilename></originalaudiofilename>
						</logginginfo>
						<colorinfo>
							<lut></lut>
							<lut1></lut1>
							<asc_sop></asc_sop>
							<asc_sat></asc_sat>
							<lut2></lut2>
						</colorinfo>
						<labels>
							<label2>Iris</label2>
						</labels>
					</clipitem>
					<clipitem id="clipitem-1453" premiereChannelType="stereo">
						<masterclipid>masterclip-501</masterclipid>
						<name>MYZ_RusskiyChart_OtbivkaMini_h264_v2.mp4</name>
						<enabled>TRUE</enabled>
						<duration>74</duration>
						<rate>
							<timebase>25</timebase>
							<ntsc>FALSE</ntsc>
						</rate>
						<start>13071</start>
						<end>13131</end>
						<in>0</in>
						<out>60</out>
						<pproTicksIn>0</pproTicksIn>
						<pproTicksOut>609638400000</pproTicksOut>
						<file id="file-416"/>
						<sourcetrack>
							<mediatype>audio</mediatype>
							<trackindex>2</trackindex>
						</sourcetrack>
						<filter>
							<effect>
								<name>Audio Levels</name>
								<effectid>audiolevels</effectid>
								<effectcategory>audiolevels</effectcategory>
								<effecttype>audiolevels</effecttype>
								<mediatype>audio</mediatype>
								<pproBypass>false</pproBypass>
								<parameter authoringApp="PremierePro">
									<parameterid>level</parameterid>
									<name>Level</name>
									<valuemin>0</valuemin>
									<valuemax>3.98109</valuemax>
									<value>0.258297</value>
									<keyframe>
										<when>60</when>
										<value>0.251189</value>
									</keyframe>
									<keyframe>
										<when>70</when>
										<value>0.258297</value>
									</keyframe>
								</parameter>
							</effect>
						</filter>
						<link>
							<linkclipref>clipitem-1179</linkclipref>
							<mediatype>video</mediatype>
							<trackindex>1</trackindex>
							<clipindex>9</clipindex>
						</link>
						<link>
							<linkclipref>clipitem-1415</linkclipref>
							<mediatype>audio</mediatype>
							<trackindex>1</trackindex>
							<clipindex>7</clipindex>
							<groupindex>1</groupindex>
						</link>
						<link>
							<linkclipref>clipitem-1453</linkclipref>
							<mediatype>audio</mediatype>
							<trackindex>2</trackindex>
							<clipindex>7</clipindex>
							<groupindex>1</groupindex>
						</link>
						<logginginfo>
							<description></description>
							<scene></scene>
							<shottake></shottake>
							<lognote></lognote>
							<good></good>
							<originalvideofilename></originalvideofilename>
							<originalaudiofilename></originalaudiofilename>
						</logginginfo>
						<colorinfo>
							<lut></lut>
							<lut1></lut1>
							<asc_sop></asc_sop>
							<asc_sat></asc_sat>
							<lut2></lut2>
						</colorinfo>
						<labels>
							<label2>Purple</label2>
						</labels>
					</clipitem>
					<clipitem id="clipitem-1454" premiereChannelType="stereo">
						<masterclipid>masterclip-497</masterclipid>
						<name>Nested Sequence 468</name>
						<enabled>TRUE</enabled>
						<duration>7503</duration>
						<rate>
							<timebase>25</timebase>
							<ntsc>FALSE</ntsc>
						</rate>
						<start>13131</start>
						<end>13604</end>
						<in>920</in>
						<out>1393</out>
						<pproTicksIn>9347788800000</pproTicksIn>
						<pproTicksOut>14153771520000</pproTicksOut>
						<sequence id="sequence-92"/>
						<sourcetrack>
							<mediatype>audio</mediatype>
							<trackindex>1</trackindex>
						</sourcetrack>
						<filter>
							<effect>
								<name>Audio Levels</name>
								<effectid>audiolevels</effectid>
								<effectcategory>audiolevels</effectcategory>
								<effecttype>audiolevels</effecttype>
								<mediatype>audio</mediatype>
								<pproBypass>false</pproBypass>
								<parameter authoringApp="PremierePro">
									<parameterid>level</parameterid>
									<name>Level</name>
									<valuemin>0</valuemin>
									<valuemax>3.98109</valuemax>
									<value>1</value>
									<keyframe>
										<when>18</when>
										<value>0</value>
									</keyframe>
									<keyframe>
										<when>19</when>
										<value>0</value>
									</keyframe>
									<keyframe>
										<when>507</when>
										<value>0</value>
									</keyframe>
									<keyframe>
										<when>509</when>
										<value>1</value>
									</keyframe>
								</parameter>
							</effect>
						</filter>
						<link>
							<linkclipref>clipitem-1180</linkclipref>
							<mediatype>video</mediatype>
							<trackindex>1</trackindex>
							<clipindex>10</clipindex>
						</link>
						<link>
							<linkclipref>clipitem-1416</linkclipref>
							<mediatype>audio</mediatype>
							<trackindex>1</trackindex>
							<clipindex>8</clipindex>
							<groupindex>1</groupindex>
						</link>
						<link>
							<linkclipref>clipitem-1454</linkclipref>
							<mediatype>audio</mediatype>
							<trackindex>2</trackindex>
							<clipindex>8</clipindex>
							<groupindex>1</groupindex>
						</link>
						<labels>
							<label2>Forest</label2>
						</labels>
					</clipitem>
					<clipitem id="clipitem-1455" premiereChannelType="stereo">
						<masterclipid>masterclip-505</masterclipid>
						<name>LOBODA_AMERICANO___MSWCLP004785.mov</name>
						<enabled>TRUE</enabled>
						<duration>11430</duration>
						<rate>
							<timebase>25</timebase>
							<ntsc>FALSE</ntsc>
						</rate>
						<start>13679</start>
						<end>19177</end>
						<in>217</in>
						<out>5715</out>
						<pproTicksIn>2204858880000</pproTicksIn>
						<pproTicksOut>58068057600000</pproTicksOut>
						<file id="file-420"/>
						<sourcetrack>
							<mediatype>audio</mediatype>
							<trackindex>2</trackindex>
						</sourcetrack>
						<filter>
							<effect>
								<name>Audio Levels</name>
								<effectid>audiolevels</effectid>
								<effectcategory>audiolevels</effectcategory>
								<effecttype>audiolevels</effecttype>
								<mediatype>audio</mediatype>
								<pproBypass>false</pproBypass>
								<parameter authoringApp="PremierePro">
									<parameterid>level</parameterid>
									<name>Level</name>
									<valuemin>0</valuemin>
									<valuemax>3.98109</valuemax>
									<value>1</value>
									<keyframe>
										<when>217</when>
										<value>0.0040588</value>
									</keyframe>
									<keyframe>
										<when>262</when>
										<value>1</value>
									</keyframe>
									<keyframe>
										<when>481</when>
										<value>1</value>
									</keyframe>
								</parameter>
							</effect>
						</filter>
						<link>
							<linkclipref>clipitem-1182</linkclipref>
							<mediatype>video</mediatype>
							<trackindex>1</trackindex>
							<clipindex>12</clipindex>
						</link>
						<link>
							<linkclipref>clipitem-1417</linkclipref>
							<mediatype>audio</mediatype>
							<trackindex>1</trackindex>
							<clipindex>9</clipindex>
							<groupindex>1</groupindex>
						</link>
						<link>
							<linkclipref>clipitem-1455</linkclipref>
							<mediatype>audio</mediatype>
							<trackindex>2</trackindex>
							<clipindex>9</clipindex>
							<groupindex>1</groupindex>
						</link>
						<logginginfo>
							<description></description>
							<scene></scene>
							<shottake></shottake>
							<lognote></lognote>
							<good></good>
							<originalvideofilename></originalvideofilename>
							<originalaudiofilename></originalaudiofilename>
						</logginginfo>
						<colorinfo>
							<lut></lut>
							<lut1></lut1>
							<asc_sop></asc_sop>
							<asc_sat></asc_sat>
							<lut2></lut2>
						</colorinfo>
						<labels>
							<label2>Iris</label2>
						</labels>
					</clipitem>
					<clipitem id="clipitem-1456" premiereChannelType="stereo">
						<masterclipid>masterclip-501</masterclipid>
						<name>MYZ_RusskiyChart_OtbivkaMini_h264_v2.mp4</name>
						<enabled>TRUE</enabled>
						<duration>74</duration>
						<rate>
							<timebase>25</timebase>
							<ntsc>FALSE</ntsc>
						</rate>
						<start>19177</start>
						<end>19237</end>
						<in>0</in>
						<out>60</out>
						<pproTicksIn>0</pproTicksIn>
						<pproTicksOut>609638400000</pproTicksOut>
						<file id="file-416"/>
						<sourcetrack>
							<mediatype>audio</mediatype>
							<trackindex>2</trackindex>
						</sourcetrack>
						<filter>
							<effect>
								<name>Audio Levels</name>
								<effectid>audiolevels</effectid>
								<effectcategory>audiolevels</effectcategory>
								<effecttype>audiolevels</effecttype>
								<mediatype>audio</mediatype>
								<pproBypass>false</pproBypass>
								<parameter authoringApp="PremierePro">
									<parameterid>level</parameterid>
									<name>Level</name>
									<valuemin>0</valuemin>
									<valuemax>3.98109</valuemax>
									<value>0.258297</value>
									<keyframe>
										<when>60</when>
										<value>0.251189</value>
									</keyframe>
									<keyframe>
										<when>70</when>
										<value>0.258297</value>
									</keyframe>
								</parameter>
							</effect>
						</filter>
						<link>
							<linkclipref>clipitem-1183</linkclipref>
							<mediatype>video</mediatype>
							<trackindex>1</trackindex>
							<clipindex>13</clipindex>
						</link>
						<link>
							<linkclipref>clipitem-1418</linkclipref>
							<mediatype>audio</mediatype>
							<trackindex>1</trackindex>
							<clipindex>10</clipindex>
							<groupindex>1</groupindex>
						</link>
						<link>
							<linkclipref>clipitem-1456</linkclipref>
							<mediatype>audio</mediatype>
							<trackindex>2</trackindex>
							<clipindex>10</clipindex>
							<groupindex>1</groupindex>
						</link>
						<logginginfo>
							<description></description>
							<scene></scene>
							<shottake></shottake>
							<lognote></lognote>
							<good></good>
							<originalvideofilename></originalvideofilename>
							<originalaudiofilename></originalaudiofilename>
						</logginginfo>
						<colorinfo>
							<lut></lut>
							<lut1></lut1>
							<asc_sop></asc_sop>
							<asc_sat></asc_sat>
							<lut2></lut2>
						</colorinfo>
						<labels>
							<label2>Purple</label2>
						</labels>
					</clipitem>
					<clipitem id="clipitem-1457" premiereChannelType="stereo">
						<masterclipid>masterclip-497</masterclipid>
						<name>Nested Sequence 468</name>
						<enabled>TRUE</enabled>
						<duration>7503</duration>
						<rate>
							<timebase>25</timebase>
							<ntsc>FALSE</ntsc>
						</rate>
						<start>19237</start>
						<end>19826</end>
						<in>1443</in>
						<out>2032</out>
						<pproTicksIn>14661803520000</pproTicksIn>
						<pproTicksOut>20646420480000</pproTicksOut>
						<sequence id="sequence-92"/>
						<sourcetrack>
							<mediatype>audio</mediatype>
							<trackindex>1</trackindex>
						</sourcetrack>
						<filter>
							<effect>
								<name>Audio Levels</name>
								<effectid>audiolevels</effectid>
								<effectcategory>audiolevels</effectcategory>
								<effecttype>audiolevels</effecttype>
								<mediatype>audio</mediatype>
								<pproBypass>false</pproBypass>
								<parameter authoringApp="PremierePro">
									<parameterid>level</parameterid>
									<name>Level</name>
									<valuemin>0</valuemin>
									<valuemax>3.98109</valuemax>
									<value>1</value>
									<keyframe>
										<when>18</when>
										<value>0</value>
									</keyframe>
									<keyframe>
										<when>19</when>
										<value>0</value>
									</keyframe>
									<keyframe>
										<when>507</when>
										<value>0</value>
									</keyframe>
									<keyframe>
										<when>509</when>
										<value>0</value>
									</keyframe>
									<keyframe>
										<when>1448</when>
										<value>0</value>
									</keyframe>
									<keyframe>
										<when>1449</when>
										<value>1</value>
									</keyframe>
								</parameter>
							</effect>
						</filter>
						<link>
							<linkclipref>clipitem-1184</linkclipref>
							<mediatype>video</mediatype>
							<trackindex>1</trackindex>
							<clipindex>14</clipindex>
						</link>
						<link>
							<linkclipref>clipitem-1419</linkclipref>
							<mediatype>audio</mediatype>
							<trackindex>1</trackindex>
							<clipindex>11</clipindex>
							<groupindex>1</groupindex>
						</link>
						<link>
							<linkclipref>clipitem-1457</linkclipref>
							<mediatype>audio</mediatype>
							<trackindex>2</trackindex>
							<clipindex>11</clipindex>
							<groupindex>1</groupindex>
						</link>
						<labels>
							<label2>Forest</label2>
						</labels>
					</clipitem>
					<clipitem id="clipitem-1458" premiereChannelType="stereo">
						<masterclipid>masterclip-507</masterclipid>
						<name>АРТУР ПИРОЖКОВ &amp; DIETER BOHLEN_ЛЕТОМ НА ФИЕСТЕ___MSWCLP004761.mov</name>
						<enabled>TRUE</enabled>
						<duration>8082</duration>
						<rate>
							<timebase>25</timebase>
							<ntsc>FALSE</ntsc>
						</rate>
						<start>19901</start>
						<end>23942</end>
						<in>0</in>
						<out>4041</out>
						<pproTicksIn>0</pproTicksIn>
						<pproTicksOut>41059146240000</pproTicksOut>
						<file id="file-422"/>
						<sourcetrack>
							<mediatype>audio</mediatype>
							<trackindex>2</trackindex>
						</sourcetrack>
						<filter>
							<effect>
								<name>Audio Levels</name>
								<effectid>audiolevels</effectid>
								<effectcategory>audiolevels</effectcategory>
								<effecttype>audiolevels</effecttype>
								<mediatype>audio</mediatype>
								<pproBypass>false</pproBypass>
								<parameter authoringApp="PremierePro">
									<parameterid>level</parameterid>
									<name>Level</name>
									<valuemin>0</valuemin>
									<valuemax>3.98109</valuemax>
									<value>1</value>
								</parameter>
							</effect>
						</filter>
						<link>
							<linkclipref>clipitem-1186</linkclipref>
							<mediatype>video</mediatype>
							<trackindex>1</trackindex>
							<clipindex>16</clipindex>
						</link>
						<link>
							<linkclipref>clipitem-1420</linkclipref>
							<mediatype>audio</mediatype>
							<trackindex>1</trackindex>
							<clipindex>12</clipindex>
							<groupindex>1</groupindex>
						</link>
						<link>
							<linkclipref>clipitem-1458</linkclipref>
							<mediatype>audio</mediatype>
							<trackindex>2</trackindex>
							<clipindex>12</clipindex>
							<groupindex>1</groupindex>
						</link>
						<logginginfo>
							<description></description>
							<scene></scene>
							<shottake></shottake>
							<lognote></lognote>
							<good></good>
							<originalvideofilename></originalvideofilename>
							<originalaudiofilename></originalaudiofilename>
						</logginginfo>
						<colorinfo>
							<lut></lut>
							<lut1></lut1>
							<asc_sop></asc_sop>
							<asc_sat></asc_sat>
							<lut2></lut2>
						</colorinfo>
						<labels>
							<label2>Iris</label2>
						</labels>
					</clipitem>
					<clipitem id="clipitem-1459" premiereChannelType="stereo">
						<masterclipid>masterclip-501</masterclipid>
						<name>MYZ_RusskiyChart_OtbivkaMini_h264_v2.mp4</name>
						<enabled>TRUE</enabled>
						<duration>74</duration>
						<rate>
							<timebase>25</timebase>
							<ntsc>FALSE</ntsc>
						</rate>
						<start>23942</start>
						<end>24002</end>
						<in>0</in>
						<out>60</out>
						<pproTicksIn>0</pproTicksIn>
						<pproTicksOut>609638400000</pproTicksOut>
						<file id="file-416"/>
						<sourcetrack>
							<mediatype>audio</mediatype>
							<trackindex>2</trackindex>
						</sourcetrack>
						<filter>
							<effect>
								<name>Audio Levels</name>
								<effectid>audiolevels</effectid>
								<effectcategory>audiolevels</effectcategory>
								<effecttype>audiolevels</effecttype>
								<mediatype>audio</mediatype>
								<pproBypass>false</pproBypass>
								<parameter authoringApp="PremierePro">
									<parameterid>level</parameterid>
									<name>Level</name>
									<valuemin>0</valuemin>
									<valuemax>3.98109</valuemax>
									<value>0.258297</value>
									<keyframe>
										<when>60</when>
										<value>0.251189</value>
									</keyframe>
									<keyframe>
										<when>70</when>
										<value>0.258297</value>
									</keyframe>
								</parameter>
							</effect>
						</filter>
						<link>
							<linkclipref>clipitem-1187</linkclipref>
							<mediatype>video</mediatype>
							<trackindex>1</trackindex>
							<clipindex>17</clipindex>
						</link>
						<link>
							<linkclipref>clipitem-1421</linkclipref>
							<mediatype>audio</mediatype>
							<trackindex>1</trackindex>
							<clipindex>13</clipindex>
							<groupindex>1</groupindex>
						</link>
						<link>
							<linkclipref>clipitem-1459</linkclipref>
							<mediatype>audio</mediatype>
							<trackindex>2</trackindex>
							<clipindex>13</clipindex>
							<groupindex>1</groupindex>
						</link>
						<logginginfo>
							<description></description>
							<scene></scene>
							<shottake></shottake>
							<lognote></lognote>
							<good></good>
							<originalvideofilename></originalvideofilename>
							<originalaudiofilename></originalaudiofilename>
						</logginginfo>
						<colorinfo>
							<lut></lut>
							<lut1></lut1>
							<asc_sop></asc_sop>
							<asc_sat></asc_sat>
							<lut2></lut2>
						</colorinfo>
						<labels>
							<label2>Purple</label2>
						</labels>
					</clipitem>
					<clipitem id="clipitem-1460" premiereChannelType="stereo">
						<masterclipid>masterclip-497</masterclipid>
						<name>Nested Sequence 468</name>
						<enabled>TRUE</enabled>
						<duration>7503</duration>
						<rate>
							<timebase>25</timebase>
							<ntsc>FALSE</ntsc>
						</rate>
						<start>24002</start>
						<end>24582</end>
						<in>2108</in>
						<out>2688</out>
						<pproTicksIn>21418629120000</pproTicksIn>
						<pproTicksOut>27311800320000</pproTicksOut>
						<sequence id="sequence-92"/>
						<sourcetrack>
							<mediatype>audio</mediatype>
							<trackindex>1</trackindex>
						</sourcetrack>
						<filter>
							<effect>
								<name>Audio Levels</name>
								<effectid>audiolevels</effectid>
								<effectcategory>audiolevels</effectcategory>
								<effecttype>audiolevels</effecttype>
								<mediatype>audio</mediatype>
								<pproBypass>false</pproBypass>
								<parameter authoringApp="PremierePro">
									<parameterid>level</parameterid>
									<name>Level</name>
									<valuemin>0</valuemin>
									<valuemax>3.98109</valuemax>
									<value>1</value>
									<keyframe>
										<when>18</when>
										<value>0</value>
									</keyframe>
									<keyframe>
										<when>19</when>
										<value>0</value>
									</keyframe>
									<keyframe>
										<when>507</when>
										<value>0</value>
									</keyframe>
									<keyframe>
										<when>509</when>
										<value>0</value>
									</keyframe>
									<keyframe>
										<when>1448</when>
										<value>0</value>
									</keyframe>
									<keyframe>
										<when>1449</when>
										<value>0.00880158</value>
									</keyframe>
									<keyframe>
										<when>2112</when>
										<value>0.00880158</value>
									</keyframe>
									<keyframe>
										<when>2114</when>
										<value>1</value>
									</keyframe>
								</parameter>
							</effect>
						</filter>
						<link>
							<linkclipref>clipitem-1188</linkclipref>
							<mediatype>video</mediatype>
							<trackindex>1</trackindex>
							<clipindex>18</clipindex>
						</link>
						<link>
							<linkclipref>clipitem-1422</linkclipref>
							<mediatype>audio</mediatype>
							<trackindex>1</trackindex>
							<clipindex>14</clipindex>
							<groupindex>1</groupindex>
						</link>
						<link>
							<linkclipref>clipitem-1460</linkclipref>
							<mediatype>audio</mediatype>
							<trackindex>2</trackindex>
							<clipindex>14</clipindex>
							<groupindex>1</groupindex>
						</link>
						<labels>
							<label2>Forest</label2>
						</labels>
					</clipitem>
					<clipitem id="clipitem-1461" premiereChannelType="stereo">
						<masterclipid>masterclip-509</masterclipid>
						<name>ZIVERT &amp; LYRIQ_FOREVER YOUNG___MSWCLP004838.mov</name>
						<enabled>TRUE</enabled>
						<duration>8864</duration>
						<rate>
							<timebase>25</timebase>
							<ntsc>FALSE</ntsc>
						</rate>
						<start>24657</start>
						<end>29061</end>
						<in>0</in>
						<out>4404</out>
						<pproTicksIn>0</pproTicksIn>
						<pproTicksOut>44747458560000</pproTicksOut>
						<file id="file-424"/>
						<sourcetrack>
							<mediatype>audio</mediatype>
							<trackindex>2</trackindex>
						</sourcetrack>
						<filter>
							<effect>
								<name>Audio Levels</name>
								<effectid>audiolevels</effectid>
								<effectcategory>audiolevels</effectcategory>
								<effecttype>audiolevels</effecttype>
								<mediatype>audio</mediatype>
								<pproBypass>false</pproBypass>
								<parameter authoringApp="PremierePro">
									<parameterid>level</parameterid>
									<name>Level</name>
									<valuemin>0</valuemin>
									<valuemax>3.98109</valuemax>
									<value>0.192517</value>
									<keyframe>
										<when>4376</when>
										<value>1</value>
									</keyframe>
									<keyframe>
										<when>4399</when>
										<value>0.192517</value>
									</keyframe>
								</parameter>
							</effect>
						</filter>
						<link>
							<linkclipref>clipitem-1190</linkclipref>
							<mediatype>video</mediatype>
							<trackindex>1</trackindex>
							<clipindex>20</clipindex>
						</link>
						<link>
							<linkclipref>clipitem-1423</linkclipref>
							<mediatype>audio</mediatype>
							<trackindex>1</trackindex>
							<clipindex>15</clipindex>
							<groupindex>1</groupindex>
						</link>
						<link>
							<linkclipref>clipitem-1461</linkclipref>
							<mediatype>audio</mediatype>
							<trackindex>2</trackindex>
							<clipindex>15</clipindex>
							<groupindex>1</groupindex>
						</link>
						<logginginfo>
							<description></description>
							<scene></scene>
							<shottake></shottake>
							<lognote></lognote>
							<good></good>
							<originalvideofilename></originalvideofilename>
							<originalaudiofilename></originalaudiofilename>
						</logginginfo>
						<colorinfo>
							<lut></lut>
							<lut1></lut1>
							<asc_sop></asc_sop>
							<asc_sat></asc_sat>
							<lut2></lut2>
						</colorinfo>
						<labels>
							<label2>Iris</label2>
						</labels>
					</clipitem>
					<clipitem id="clipitem-1462" premiereChannelType="stereo">
						<masterclipid>masterclip-501</masterclipid>
						<name>MYZ_RusskiyChart_OtbivkaMini_h264_v2.mp4</name>
						<enabled>TRUE</enabled>
						<duration>74</duration>
						<rate>
							<timebase>25</timebase>
							<ntsc>FALSE</ntsc>
						</rate>
						<start>29061</start>
						<end>29121</end>
						<in>0</in>
						<out>60</out>
						<pproTicksIn>0</pproTicksIn>
						<pproTicksOut>609638400000</pproTicksOut>
						<file id="file-416"/>
						<sourcetrack>
							<mediatype>audio</mediatype>
							<trackindex>2</trackindex>
						</sourcetrack>
						<filter>
							<effect>
								<name>Audio Levels</name>
								<effectid>audiolevels</effectid>
								<effectcategory>audiolevels</effectcategory>
								<effecttype>audiolevels</effecttype>
								<mediatype>audio</mediatype>
								<pproBypass>false</pproBypass>
								<parameter authoringApp="PremierePro">
									<parameterid>level</parameterid>
									<name>Level</name>
									<valuemin>0</valuemin>
									<valuemax>3.98109</valuemax>
									<value>0.258297</value>
									<keyframe>
										<when>60</when>
										<value>0.251189</value>
									</keyframe>
									<keyframe>
										<when>70</when>
										<value>0.258297</value>
									</keyframe>
								</parameter>
							</effect>
						</filter>
						<link>
							<linkclipref>clipitem-1191</linkclipref>
							<mediatype>video</mediatype>
							<trackindex>1</trackindex>
							<clipindex>21</clipindex>
						</link>
						<link>
							<linkclipref>clipitem-1424</linkclipref>
							<mediatype>audio</mediatype>
							<trackindex>1</trackindex>
							<clipindex>16</clipindex>
							<groupindex>1</groupindex>
						</link>
						<link>
							<linkclipref>clipitem-1462</linkclipref>
							<mediatype>audio</mediatype>
							<trackindex>2</trackindex>
							<clipindex>16</clipindex>
							<groupindex>1</groupindex>
						</link>
						<logginginfo>
							<description></description>
							<scene></scene>
							<shottake></shottake>
							<lognote></lognote>
							<good></good>
							<originalvideofilename></originalvideofilename>
							<originalaudiofilename></originalaudiofilename>
						</logginginfo>
						<colorinfo>
							<lut></lut>
							<lut1></lut1>
							<asc_sop></asc_sop>
							<asc_sat></asc_sat>
							<lut2></lut2>
						</colorinfo>
						<labels>
							<label2>Purple</label2>
						</labels>
					</clipitem>
					<clipitem id="clipitem-1463" premiereChannelType="stereo">
						<masterclipid>masterclip-497</masterclipid>
						<name>Nested Sequence 468</name>
						<enabled>TRUE</enabled>
						<duration>7503</duration>
						<rate>
							<timebase>25</timebase>
							<ntsc>FALSE</ntsc>
						</rate>
						<start>29121</start>
						<end>29714</end>
						<in>3966</in>
						<out>4559</out>
						<pproTicksIn>40297098240000</pproTicksIn>
						<pproTicksOut>46322357760000</pproTicksOut>
						<sequence id="sequence-92"/>
						<sourcetrack>
							<mediatype>audio</mediatype>
							<trackindex>1</trackindex>
						</sourcetrack>
						<filter>
							<effect>
								<name>Audio Levels</name>
								<effectid>audiolevels</effectid>
								<effectcategory>audiolevels</effectcategory>
								<effecttype>audiolevels</effecttype>
								<mediatype>audio</mediatype>
								<pproBypass>false</pproBypass>
								<parameter authoringApp="PremierePro">
									<parameterid>level</parameterid>
									<name>Level</name>
									<valuemin>0</valuemin>
									<valuemax>3.98109</valuemax>
									<value>1</value>
									<keyframe>
										<when>18</when>
										<value>0</value>
									</keyframe>
									<keyframe>
										<when>19</when>
										<value>0</value>
									</keyframe>
									<keyframe>
										<when>507</when>
										<value>0</value>
									</keyframe>
									<keyframe>
										<when>509</when>
										<value>0</value>
									</keyframe>
									<keyframe>
										<when>1448</when>
										<value>0</value>
									</keyframe>
									<keyframe>
										<when>1449</when>
										<value>0.00880158</value>
									</keyframe>
									<keyframe>
										<when>2112</when>
										<value>0.00880158</value>
									</keyframe>
									<keyframe>
										<when>2114</when>
										<value>0</value>
									</keyframe>
									<keyframe>
										<when>2713</when>
										<value>0</value>
									</keyframe>
									<keyframe>
										<when>2715</when>
										<value>0</value>
									</keyframe>
									<keyframe>
										<when>3356</when>
										<value>0</value>
									</keyframe>
									<keyframe>
										<when>3358</when>
										<value>1</value>
									</keyframe>
								</parameter>
							</effect>
						</filter>
						<link>
							<linkclipref>clipitem-1192</linkclipref>
							<mediatype>video</mediatype>
							<trackindex>1</trackindex>
							<clipindex>22</clipindex>
						</link>
						<link>
							<linkclipref>clipitem-1425</linkclipref>
							<mediatype>audio</mediatype>
							<trackindex>1</trackindex>
							<clipindex>17</clipindex>
							<groupindex>1</groupindex>
						</link>
						<link>
							<linkclipref>clipitem-1463</linkclipref>
							<mediatype>audio</mediatype>
							<trackindex>2</trackindex>
							<clipindex>17</clipindex>
							<groupindex>1</groupindex>
						</link>
						<labels>
							<label2>Forest</label2>
						</labels>
					</clipitem>
					<clipitem id="clipitem-1464" premiereChannelType="stereo">
						<masterclipid>masterclip-511</masterclipid>
						<name>DABRO_УСЛЫШИТ ВЕСЬ РАЙОН___MSWCLP004759.mov</name>
						<enabled>TRUE</enabled>
						<duration>9620</duration>
						<rate>
							<timebase>25</timebase>
							<ntsc>FALSE</ntsc>
						</rate>
						<start>29789</start>
						<end>34599</end>
						<in>0</in>
						<out>4810</out>
						<pproTicksIn>0</pproTicksIn>
						<pproTicksOut>48872678400000</pproTicksOut>
						<file id="file-426"/>
						<sourcetrack>
							<mediatype>audio</mediatype>
							<trackindex>2</trackindex>
						</sourcetrack>
						<filter>
							<effect>
								<name>Audio Levels</name>
								<effectid>audiolevels</effectid>
								<effectcategory>audiolevels</effectcategory>
								<effecttype>audiolevels</effecttype>
								<mediatype>audio</mediatype>
								<pproBypass>false</pproBypass>
								<parameter authoringApp="PremierePro">
									<parameterid>level</parameterid>
									<name>Level</name>
									<valuemin>0</valuemin>
									<valuemax>3.98109</valuemax>
									<value>0.371266</value>
									<keyframe>
										<when>4796</when>
										<value>1</value>
									</keyframe>
									<keyframe>
										<when>4808</when>
										<value>0.371266</value>
									</keyframe>
								</parameter>
							</effect>
						</filter>
						<link>
							<linkclipref>clipitem-1194</linkclipref>
							<mediatype>video</mediatype>
							<trackindex>1</trackindex>
							<clipindex>24</clipindex>
						</link>
						<link>
							<linkclipref>clipitem-1426</linkclipref>
							<mediatype>audio</mediatype>
							<trackindex>1</trackindex>
							<clipindex>18</clipindex>
							<groupindex>1</groupindex>
						</link>
						<link>
							<linkclipref>clipitem-1464</linkclipref>
							<mediatype>audio</mediatype>
							<trackindex>2</trackindex>
							<clipindex>18</clipindex>
							<groupindex>1</groupindex>
						</link>
						<logginginfo>
							<description></description>
							<scene></scene>
							<shottake></shottake>
							<lognote></lognote>
							<good></good>
							<originalvideofilename></originalvideofilename>
							<originalaudiofilename></originalaudiofilename>
						</logginginfo>
						<colorinfo>
							<lut></lut>
							<lut1></lut1>
							<asc_sop></asc_sop>
							<asc_sat></asc_sat>
							<lut2></lut2>
						</colorinfo>
						<labels>
							<label2>Iris</label2>
						</labels>
					</clipitem>
					<clipitem id="clipitem-1465" premiereChannelType="stereo">
						<masterclipid>masterclip-501</masterclipid>
						<name>MYZ_RusskiyChart_OtbivkaMini_h264_v2.mp4</name>
						<enabled>TRUE</enabled>
						<duration>74</duration>
						<rate>
							<timebase>25</timebase>
							<ntsc>FALSE</ntsc>
						</rate>
						<start>34599</start>
						<end>34659</end>
						<in>0</in>
						<out>60</out>
						<pproTicksIn>0</pproTicksIn>
						<pproTicksOut>609638400000</pproTicksOut>
						<file id="file-416"/>
						<sourcetrack>
							<mediatype>audio</mediatype>
							<trackindex>2</trackindex>
						</sourcetrack>
						<filter>
							<effect>
								<name>Audio Levels</name>
								<effectid>audiolevels</effectid>
								<effectcategory>audiolevels</effectcategory>
								<effecttype>audiolevels</effecttype>
								<mediatype>audio</mediatype>
								<pproBypass>false</pproBypass>
								<parameter authoringApp="PremierePro">
									<parameterid>level</parameterid>
									<name>Level</name>
									<valuemin>0</valuemin>
									<valuemax>3.98109</valuemax>
									<value>0.258297</value>
									<keyframe>
										<when>60</when>
										<value>0.251189</value>
									</keyframe>
									<keyframe>
										<when>70</when>
										<value>0.258297</value>
									</keyframe>
								</parameter>
							</effect>
						</filter>
						<link>
							<linkclipref>clipitem-1195</linkclipref>
							<mediatype>video</mediatype>
							<trackindex>1</trackindex>
							<clipindex>25</clipindex>
						</link>
						<link>
							<linkclipref>clipitem-1427</linkclipref>
							<mediatype>audio</mediatype>
							<trackindex>1</trackindex>
							<clipindex>19</clipindex>
							<groupindex>1</groupindex>
						</link>
						<link>
							<linkclipref>clipitem-1465</linkclipref>
							<mediatype>audio</mediatype>
							<trackindex>2</trackindex>
							<clipindex>19</clipindex>
							<groupindex>1</groupindex>
						</link>
						<logginginfo>
							<description></description>
							<scene></scene>
							<shottake></shottake>
							<lognote></lognote>
							<good></good>
							<originalvideofilename></originalvideofilename>
							<originalaudiofilename></originalaudiofilename>
						</logginginfo>
						<colorinfo>
							<lut></lut>
							<lut1></lut1>
							<asc_sop></asc_sop>
							<asc_sat></asc_sat>
							<lut2></lut2>
						</colorinfo>
						<labels>
							<label2>Purple</label2>
						</labels>
					</clipitem>
					<clipitem id="clipitem-1466" premiereChannelType="stereo">
						<masterclipid>masterclip-497</masterclipid>
						<name>Nested Sequence 468</name>
						<enabled>TRUE</enabled>
						<duration>7503</duration>
						<rate>
							<timebase>25</timebase>
							<ntsc>FALSE</ntsc>
						</rate>
						<start>34659</start>
						<end>35166</end>
						<in>4607</in>
						<out>5114</out>
						<pproTicksIn>46810068480000</pproTicksIn>
						<pproTicksOut>51961512960000</pproTicksOut>
						<sequence id="sequence-92"/>
						<sourcetrack>
							<mediatype>audio</mediatype>
							<trackindex>1</trackindex>
						</sourcetrack>
						<filter>
							<effect>
								<name>Audio Levels</name>
								<effectid>audiolevels</effectid>
								<effectcategory>audiolevels</effectcategory>
								<effecttype>audiolevels</effecttype>
								<mediatype>audio</mediatype>
								<pproBypass>false</pproBypass>
								<parameter authoringApp="PremierePro">
									<parameterid>level</parameterid>
									<name>Level</name>
									<valuemin>0</valuemin>
									<valuemax>3.98109</valuemax>
									<value>1</value>
									<keyframe>
										<when>18</when>
										<value>0</value>
									</keyframe>
									<keyframe>
										<when>19</when>
										<value>0</value>
									</keyframe>
									<keyframe>
										<when>507</when>
										<value>0</value>
									</keyframe>
									<keyframe>
										<when>509</when>
										<value>0</value>
									</keyframe>
									<keyframe>
										<when>1448</when>
										<value>0</value>
									</keyframe>
									<keyframe>
										<when>1449</when>
										<value>0.00880158</value>
									</keyframe>
									<keyframe>
										<when>2112</when>
										<value>0.00880158</value>
									</keyframe>
									<keyframe>
										<when>2114</when>
										<value>0</value>
									</keyframe>
									<keyframe>
										<when>2713</when>
										<value>0</value>
									</keyframe>
									<keyframe>
										<when>2715</when>
										<value>0</value>
									</keyframe>
									<keyframe>
										<when>3356</when>
										<value>0</value>
									</keyframe>
									<keyframe>
										<when>3358</when>
										<value>1</value>
									</keyframe>
								</parameter>
							</effect>
						</filter>
						<link>
							<linkclipref>clipitem-1196</linkclipref>
							<mediatype>video</mediatype>
							<trackindex>1</trackindex>
							<clipindex>26</clipindex>
						</link>
						<link>
							<linkclipref>clipitem-1428</linkclipref>
							<mediatype>audio</mediatype>
							<trackindex>1</trackindex>
							<clipindex>20</clipindex>
							<groupindex>1</groupindex>
						</link>
						<link>
							<linkclipref>clipitem-1466</linkclipref>
							<mediatype>audio</mediatype>
							<trackindex>2</trackindex>
							<clipindex>20</clipindex>
							<groupindex>1</groupindex>
						</link>
						<labels>
							<label2>Forest</label2>
						</labels>
					</clipitem>
					<clipitem id="clipitem-1467" premiereChannelType="stereo">
						<masterclipid>masterclip-513</masterclipid>
						<name>ЗВОНКИЙ &amp; МАРИ КРАЙМБРЕРИ_КАК ДЕЛА, МАЛЫШ?___MSWCLP004735.mov</name>
						<enabled>TRUE</enabled>
						<duration>11734</duration>
						<rate>
							<timebase>25</timebase>
							<ntsc>FALSE</ntsc>
						</rate>
						<start>35213</start>
						<end>40627</end>
						<in>453</in>
						<out>5867</out>
						<pproTicksIn>4602769920000</pproTicksIn>
						<pproTicksOut>59612474880000</pproTicksOut>
						<file id="file-428"/>
						<sourcetrack>
							<mediatype>audio</mediatype>
							<trackindex>2</trackindex>
						</sourcetrack>
						<filter>
							<effect>
								<name>Audio Levels</name>
								<effectid>audiolevels</effectid>
								<effectcategory>audiolevels</effectcategory>
								<effecttype>audiolevels</effecttype>
								<mediatype>audio</mediatype>
								<pproBypass>false</pproBypass>
								<parameter authoringApp="PremierePro">
									<parameterid>level</parameterid>
									<name>Level</name>
									<valuemin>0</valuemin>
									<valuemax>3.98109</valuemax>
									<value>1</value>
									<keyframe>
										<when>292</when>
										<value>0</value>
									</keyframe>
									<keyframe>
										<when>478</when>
										<value>0</value>
									</keyframe>
									<keyframe>
										<when>481</when>
										<value>1</value>
									</keyframe>
								</parameter>
							</effect>
						</filter>
						<link>
							<linkclipref>clipitem-1429</linkclipref>
							<mediatype>audio</mediatype>
							<trackindex>1</trackindex>
							<clipindex>21</clipindex>
							<groupindex>1</groupindex>
						</link>
						<link>
							<linkclipref>clipitem-1467</linkclipref>
							<mediatype>audio</mediatype>
							<trackindex>2</trackindex>
							<clipindex>21</clipindex>
							<groupindex>1</groupindex>
						</link>
						<logginginfo>
							<description></description>
							<scene></scene>
							<shottake></shottake>
							<lognote></lognote>
							<good></good>
							<originalvideofilename></originalvideofilename>
							<originalaudiofilename></originalaudiofilename>
						</logginginfo>
						<colorinfo>
							<lut></lut>
							<lut1></lut1>
							<asc_sop></asc_sop>
							<asc_sat></asc_sat>
							<lut2></lut2>
						</colorinfo>
						<labels>
							<label2>Iris</label2>
						</labels>
					</clipitem>
					<clipitem id="clipitem-1468" premiereChannelType="stereo">
						<masterclipid>masterclip-501</masterclipid>
						<name>MYZ_RusskiyChart_OtbivkaMini_h264_v2.mp4</name>
						<enabled>TRUE</enabled>
						<duration>74</duration>
						<rate>
							<timebase>25</timebase>
							<ntsc>FALSE</ntsc>
						</rate>
						<start>40627</start>
						<end>40687</end>
						<in>0</in>
						<out>60</out>
						<pproTicksIn>0</pproTicksIn>
						<pproTicksOut>609638400000</pproTicksOut>
						<file id="file-416"/>
						<sourcetrack>
							<mediatype>audio</mediatype>
							<trackindex>2</trackindex>
						</sourcetrack>
						<filter>
							<effect>
								<name>Audio Levels</name>
								<effectid>audiolevels</effectid>
								<effectcategory>audiolevels</effectcategory>
								<effecttype>audiolevels</effecttype>
								<mediatype>audio</mediatype>
								<pproBypass>false</pproBypass>
								<parameter authoringApp="PremierePro">
									<parameterid>level</parameterid>
									<name>Level</name>
									<valuemin>0</valuemin>
									<valuemax>3.98109</valuemax>
									<value>0.258297</value>
									<keyframe>
										<when>60</when>
										<value>0.251189</value>
									</keyframe>
									<keyframe>
										<when>70</when>
										<value>0.258297</value>
									</keyframe>
								</parameter>
							</effect>
						</filter>
						<link>
							<linkclipref>clipitem-1199</linkclipref>
							<mediatype>video</mediatype>
							<trackindex>1</trackindex>
							<clipindex>29</clipindex>
						</link>
						<link>
							<linkclipref>clipitem-1430</linkclipref>
							<mediatype>audio</mediatype>
							<trackindex>1</trackindex>
							<clipindex>22</clipindex>
							<groupindex>1</groupindex>
						</link>
						<link>
							<linkclipref>clipitem-1468</linkclipref>
							<mediatype>audio</mediatype>
							<trackindex>2</trackindex>
							<clipindex>22</clipindex>
							<groupindex>1</groupindex>
						</link>
						<logginginfo>
							<description></description>
							<scene></scene>
							<shottake></shottake>
							<lognote></lognote>
							<good></good>
							<originalvideofilename></originalvideofilename>
							<originalaudiofilename></originalaudiofilename>
						</logginginfo>
						<colorinfo>
							<lut></lut>
							<lut1></lut1>
							<asc_sop></asc_sop>
							<asc_sat></asc_sat>
							<lut2></lut2>
						</colorinfo>
						<labels>
							<label2>Purple</label2>
						</labels>
					</clipitem>
					<clipitem id="clipitem-1469" premiereChannelType="stereo">
						<masterclipid>masterclip-497</masterclipid>
						<name>Nested Sequence 468</name>
						<enabled>TRUE</enabled>
						<duration>7503</duration>
						<rate>
							<timebase>25</timebase>
							<ntsc>FALSE</ntsc>
						</rate>
						<start>40687</start>
						<end>41118</end>
						<in>5685</in>
						<out>6116</out>
						<pproTicksIn>57763238400000</pproTicksIn>
						<pproTicksOut>62142474240000</pproTicksOut>
						<sequence id="sequence-92"/>
						<sourcetrack>
							<mediatype>audio</mediatype>
							<trackindex>1</trackindex>
						</sourcetrack>
						<filter>
							<effect>
								<name>Audio Levels</name>
								<effectid>audiolevels</effectid>
								<effectcategory>audiolevels</effectcategory>
								<effecttype>audiolevels</effecttype>
								<mediatype>audio</mediatype>
								<pproBypass>false</pproBypass>
								<parameter authoringApp="PremierePro">
									<parameterid>level</parameterid>
									<name>Level</name>
									<valuemin>0</valuemin>
									<valuemax>3.98109</valuemax>
									<value>1</value>
									<keyframe>
										<when>18</when>
										<value>0</value>
									</keyframe>
									<keyframe>
										<when>19</when>
										<value>0</value>
									</keyframe>
									<keyframe>
										<when>507</when>
										<value>0</value>
									</keyframe>
									<keyframe>
										<when>509</when>
										<value>0</value>
									</keyframe>
									<keyframe>
										<when>1448</when>
										<value>0</value>
									</keyframe>
									<keyframe>
										<when>1449</when>
										<value>0.00880158</value>
									</keyframe>
									<keyframe>
										<when>2112</when>
										<value>0.00880158</value>
									</keyframe>
									<keyframe>
										<when>2114</when>
										<value>0</value>
									</keyframe>
									<keyframe>
										<when>2713</when>
										<value>0</value>
									</keyframe>
									<keyframe>
										<when>2715</when>
										<value>0</value>
									</keyframe>
									<keyframe>
										<when>3356</when>
										<value>0</value>
									</keyframe>
									<keyframe>
										<when>3358</when>
										<value>0</value>
									</keyframe>
									<keyframe>
										<when>5166</when>
										<value>0</value>
									</keyframe>
									<keyframe>
										<when>5167</when>
										<value>0</value>
									</keyframe>
									<keyframe>
										<when>5688</when>
										<value>0</value>
									</keyframe>
									<keyframe>
										<when>5691</when>
										<value>1</value>
									</keyframe>
								</parameter>
							</effect>
						</filter>
						<link>
							<linkclipref>clipitem-1200</linkclipref>
							<mediatype>video</mediatype>
							<trackindex>1</trackindex>
							<clipindex>30</clipindex>
						</link>
						<link>
							<linkclipref>clipitem-1431</linkclipref>
							<mediatype>audio</mediatype>
							<trackindex>1</trackindex>
							<clipindex>23</clipindex>
							<groupindex>1</groupindex>
						</link>
						<link>
							<linkclipref>clipitem-1469</linkclipref>
							<mediatype>audio</mediatype>
							<trackindex>2</trackindex>
							<clipindex>23</clipindex>
							<groupindex>1</groupindex>
						</link>
						<labels>
							<label2>Forest</label2>
						</labels>
					</clipitem>
					<clipitem id="clipitem-1470" premiereChannelType="stereo">
						<masterclipid>masterclip-515</masterclipid>
						<name>BITTUEV_БРАТИК___MSWCLP004753.mov</name>
						<enabled>TRUE</enabled>
						<duration>5964</duration>
						<rate>
							<timebase>25</timebase>
							<ntsc>FALSE</ntsc>
						</rate>
						<start>41193</start>
						<end>44175</end>
						<in>0</in>
						<out>2982</out>
						<pproTicksIn>0</pproTicksIn>
						<pproTicksOut>30299028480000</pproTicksOut>
						<file id="file-430"/>
						<sourcetrack>
							<mediatype>audio</mediatype>
							<trackindex>2</trackindex>
						</sourcetrack>
						<filter>
							<effect>
								<name>Audio Levels</name>
								<effectid>audiolevels</effectid>
								<effectcategory>audiolevels</effectcategory>
								<effecttype>audiolevels</effecttype>
								<mediatype>audio</mediatype>
								<pproBypass>false</pproBypass>
								<parameter authoringApp="PremierePro">
									<parameterid>level</parameterid>
									<name>Level</name>
									<valuemin>0</valuemin>
									<valuemax>3.98109</valuemax>
									<value>1</value>
								</parameter>
							</effect>
						</filter>
						<link>
							<linkclipref>clipitem-1202</linkclipref>
							<mediatype>video</mediatype>
							<trackindex>1</trackindex>
							<clipindex>32</clipindex>
						</link>
						<link>
							<linkclipref>clipitem-1432</linkclipref>
							<mediatype>audio</mediatype>
							<trackindex>1</trackindex>
							<clipindex>24</clipindex>
							<groupindex>1</groupindex>
						</link>
						<link>
							<linkclipref>clipitem-1470</linkclipref>
							<mediatype>audio</mediatype>
							<trackindex>2</trackindex>
							<clipindex>24</clipindex>
							<groupindex>1</groupindex>
						</link>
						<logginginfo>
							<description></description>
							<scene></scene>
							<shottake></shottake>
							<lognote></lognote>
							<good></good>
							<originalvideofilename></originalvideofilename>
							<originalaudiofilename></originalaudiofilename>
						</logginginfo>
						<colorinfo>
							<lut></lut>
							<lut1></lut1>
							<asc_sop></asc_sop>
							<asc_sat></asc_sat>
							<lut2></lut2>
						</colorinfo>
						<labels>
							<label2>Iris</label2>
						</labels>
					</clipitem>
					<clipitem id="clipitem-1471" premiereChannelType="stereo">
						<masterclipid>masterclip-501</masterclipid>
						<name>MYZ_RusskiyChart_OtbivkaMini_h264_v2.mp4</name>
						<enabled>TRUE</enabled>
						<duration>74</duration>
						<rate>
							<timebase>25</timebase>
							<ntsc>FALSE</ntsc>
						</rate>
						<start>44175</start>
						<end>44235</end>
						<in>0</in>
						<out>60</out>
						<pproTicksIn>0</pproTicksIn>
						<pproTicksOut>609638400000</pproTicksOut>
						<file id="file-416"/>
						<sourcetrack>
							<mediatype>audio</mediatype>
							<trackindex>2</trackindex>
						</sourcetrack>
						<filter>
							<effect>
								<name>Audio Levels</name>
								<effectid>audiolevels</effectid>
								<effectcategory>audiolevels</effectcategory>
								<effecttype>audiolevels</effecttype>
								<mediatype>audio</mediatype>
								<pproBypass>false</pproBypass>
								<parameter authoringApp="PremierePro">
									<parameterid>level</parameterid>
									<name>Level</name>
									<valuemin>0</valuemin>
									<valuemax>3.98109</valuemax>
									<value>0.258297</value>
									<keyframe>
										<when>60</when>
										<value>0.251189</value>
									</keyframe>
									<keyframe>
										<when>70</when>
										<value>0.258297</value>
									</keyframe>
								</parameter>
							</effect>
						</filter>
						<link>
							<linkclipref>clipitem-1203</linkclipref>
							<mediatype>video</mediatype>
							<trackindex>1</trackindex>
							<clipindex>33</clipindex>
						</link>
						<link>
							<linkclipref>clipitem-1433</linkclipref>
							<mediatype>audio</mediatype>
							<trackindex>1</trackindex>
							<clipindex>25</clipindex>
							<groupindex>1</groupindex>
						</link>
						<link>
							<linkclipref>clipitem-1471</linkclipref>
							<mediatype>audio</mediatype>
							<trackindex>2</trackindex>
							<clipindex>25</clipindex>
							<groupindex>1</groupindex>
						</link>
						<logginginfo>
							<description></description>
							<scene></scene>
							<shottake></shottake>
							<lognote></lognote>
							<good></good>
							<originalvideofilename></originalvideofilename>
							<originalaudiofilename></originalaudiofilename>
						</logginginfo>
						<colorinfo>
							<lut></lut>
							<lut1></lut1>
							<asc_sop></asc_sop>
							<asc_sat></asc_sat>
							<lut2></lut2>
						</colorinfo>
						<labels>
							<label2>Purple</label2>
						</labels>
					</clipitem>
					<clipitem id="clipitem-1472" premiereChannelType="stereo">
						<masterclipid>masterclip-497</masterclipid>
						<name>Nested Sequence 468</name>
						<enabled>TRUE</enabled>
						<duration>7503</duration>
						<rate>
							<timebase>25</timebase>
							<ntsc>FALSE</ntsc>
						</rate>
						<start>44235</start>
						<end>44854</end>
						<in>2709</in>
						<out>3328</out>
						<pproTicksIn>27525173760000</pproTicksIn>
						<pproTicksOut>33814609920000</pproTicksOut>
						<sequence id="sequence-92"/>
						<sourcetrack>
							<mediatype>audio</mediatype>
							<trackindex>1</trackindex>
						</sourcetrack>
						<filter>
							<effect>
								<name>Audio Levels</name>
								<effectid>audiolevels</effectid>
								<effectcategory>audiolevels</effectcategory>
								<effecttype>audiolevels</effecttype>
								<mediatype>audio</mediatype>
								<pproBypass>false</pproBypass>
								<parameter authoringApp="PremierePro">
									<parameterid>level</parameterid>
									<name>Level</name>
									<valuemin>0</valuemin>
									<valuemax>3.98109</valuemax>
									<value>1</value>
									<keyframe>
										<when>18</when>
										<value>0</value>
									</keyframe>
									<keyframe>
										<when>19</when>
										<value>0</value>
									</keyframe>
									<keyframe>
										<when>507</when>
										<value>0</value>
									</keyframe>
									<keyframe>
										<when>509</when>
										<value>0</value>
									</keyframe>
									<keyframe>
										<when>1448</when>
										<value>0</value>
									</keyframe>
									<keyframe>
										<when>1449</when>
										<value>0.00880158</value>
									</keyframe>
									<keyframe>
										<when>2112</when>
										<value>0.00880158</value>
									</keyframe>
									<keyframe>
										<when>2114</when>
										<value>0</value>
									</keyframe>
									<keyframe>
										<when>2713</when>
										<value>0</value>
									</keyframe>
									<keyframe>
										<when>2715</when>
										<value>1</value>
									</keyframe>
								</parameter>
							</effect>
						</filter>
						<link>
							<linkclipref>clipitem-1204</linkclipref>
							<mediatype>video</mediatype>
							<trackindex>1</trackindex>
							<clipindex>34</clipindex>
						</link>
						<link>
							<linkclipref>clipitem-1434</linkclipref>
							<mediatype>audio</mediatype>
							<trackindex>1</trackindex>
							<clipindex>26</clipindex>
							<groupindex>1</groupindex>
						</link>
						<link>
							<linkclipref>clipitem-1472</linkclipref>
							<mediatype>audio</mediatype>
							<trackindex>2</trackindex>
							<clipindex>26</clipindex>
							<groupindex>1</groupindex>
						</link>
						<labels>
							<label2>Forest</label2>
						</labels>
					</clipitem>
					<clipitem id="clipitem-1473" premiereChannelType="stereo">
						<masterclipid>masterclip-517</masterclipid>
						<name>КЛАВА КОКА_ЛА ЛА ЛА___MSWCLP004762.mov</name>
						<enabled>TRUE</enabled>
						<duration>8198</duration>
						<rate>
							<timebase>25</timebase>
							<ntsc>FALSE</ntsc>
						</rate>
						<start>44929</start>
						<end>49028</end>
						<in>0</in>
						<out>4099</out>
						<pproTicksIn>0</pproTicksIn>
						<pproTicksOut>41648463360000</pproTicksOut>
						<file id="file-432"/>
						<sourcetrack>
							<mediatype>audio</mediatype>
							<trackindex>2</trackindex>
						</sourcetrack>
						<filter>
							<effect>
								<name>Audio Levels</name>
								<effectid>audiolevels</effectid>
								<effectcategory>audiolevels</effectcategory>
								<effecttype>audiolevels</effecttype>
								<mediatype>audio</mediatype>
								<pproBypass>false</pproBypass>
								<parameter authoringApp="PremierePro">
									<parameterid>level</parameterid>
									<name>Level</name>
									<valuemin>0</valuemin>
									<valuemax>3.98109</valuemax>
									<value>1</value>
									<keyframe>
										<when>2</when>
										<value>0.618238</value>
									</keyframe>
									<keyframe>
										<when>26</when>
										<value>1</value>
									</keyframe>
								</parameter>
							</effect>
						</filter>
						<link>
							<linkclipref>clipitem-1206</linkclipref>
							<mediatype>video</mediatype>
							<trackindex>1</trackindex>
							<clipindex>36</clipindex>
						</link>
						<link>
							<linkclipref>clipitem-1435</linkclipref>
							<mediatype>audio</mediatype>
							<trackindex>1</trackindex>
							<clipindex>27</clipindex>
							<groupindex>1</groupindex>
						</link>
						<link>
							<linkclipref>clipitem-1473</linkclipref>
							<mediatype>audio</mediatype>
							<trackindex>2</trackindex>
							<clipindex>27</clipindex>
							<groupindex>1</groupindex>
						</link>
						<logginginfo>
							<description></description>
							<scene></scene>
							<shottake></shottake>
							<lognote></lognote>
							<good></good>
							<originalvideofilename></originalvideofilename>
							<originalaudiofilename></originalaudiofilename>
						</logginginfo>
						<colorinfo>
							<lut></lut>
							<lut1></lut1>
							<asc_sop></asc_sop>
							<asc_sat></asc_sat>
							<lut2></lut2>
						</colorinfo>
						<labels>
							<label2>Iris</label2>
						</labels>
					</clipitem>
					<clipitem id="clipitem-1474" premiereChannelType="stereo">
						<masterclipid>masterclip-501</masterclipid>
						<name>MYZ_RusskiyChart_OtbivkaMini_h264_v2.mp4</name>
						<enabled>TRUE</enabled>
						<duration>74</duration>
						<rate>
							<timebase>25</timebase>
							<ntsc>FALSE</ntsc>
						</rate>
						<start>49028</start>
						<end>49088</end>
						<in>0</in>
						<out>60</out>
						<pproTicksIn>0</pproTicksIn>
						<pproTicksOut>609638400000</pproTicksOut>
						<file id="file-416"/>
						<sourcetrack>
							<mediatype>audio</mediatype>
							<trackindex>2</trackindex>
						</sourcetrack>
						<filter>
							<effect>
								<name>Audio Levels</name>
								<effectid>audiolevels</effectid>
								<effectcategory>audiolevels</effectcategory>
								<effecttype>audiolevels</effecttype>
								<mediatype>audio</mediatype>
								<pproBypass>false</pproBypass>
								<parameter authoringApp="PremierePro">
									<parameterid>level</parameterid>
									<name>Level</name>
									<valuemin>0</valuemin>
									<valuemax>3.98109</valuemax>
									<value>0.258297</value>
									<keyframe>
										<when>60</when>
										<value>0.251189</value>
									</keyframe>
									<keyframe>
										<when>70</when>
										<value>0.258297</value>
									</keyframe>
								</parameter>
							</effect>
						</filter>
						<link>
							<linkclipref>clipitem-1207</linkclipref>
							<mediatype>video</mediatype>
							<trackindex>1</trackindex>
							<clipindex>37</clipindex>
						</link>
						<link>
							<linkclipref>clipitem-1436</linkclipref>
							<mediatype>audio</mediatype>
							<trackindex>1</trackindex>
							<clipindex>28</clipindex>
							<groupindex>1</groupindex>
						</link>
						<link>
							<linkclipref>clipitem-1474</linkclipref>
							<mediatype>audio</mediatype>
							<trackindex>2</trackindex>
							<clipindex>28</clipindex>
							<groupindex>1</groupindex>
						</link>
						<logginginfo>
							<description></description>
							<scene></scene>
							<shottake></shottake>
							<lognote></lognote>
							<good></good>
							<originalvideofilename></originalvideofilename>
							<originalaudiofilename></originalaudiofilename>
						</logginginfo>
						<colorinfo>
							<lut></lut>
							<lut1></lut1>
							<asc_sop></asc_sop>
							<asc_sat></asc_sat>
							<lut2></lut2>
						</colorinfo>
						<labels>
							<label2>Purple</label2>
						</labels>
					</clipitem>
					<clipitem id="clipitem-1475" premiereChannelType="stereo">
						<masterclipid>masterclip-497</masterclipid>
						<name>Nested Sequence 468</name>
						<enabled>TRUE</enabled>
						<duration>7503</duration>
						<rate>
							<timebase>25</timebase>
							<ntsc>FALSE</ntsc>
						</rate>
						<start>49088</start>
						<end>49569</end>
						<in>5164</in>
						<out>5645</out>
						<pproTicksIn>52469544960000</pproTicksIn>
						<pproTicksOut>57356812800000</pproTicksOut>
						<sequence id="sequence-92"/>
						<sourcetrack>
							<mediatype>audio</mediatype>
							<trackindex>1</trackindex>
						</sourcetrack>
						<filter>
							<effect>
								<name>Audio Levels</name>
								<effectid>audiolevels</effectid>
								<effectcategory>audiolevels</effectcategory>
								<effecttype>audiolevels</effecttype>
								<mediatype>audio</mediatype>
								<pproBypass>false</pproBypass>
								<parameter authoringApp="PremierePro">
									<parameterid>level</parameterid>
									<name>Level</name>
									<valuemin>0</valuemin>
									<valuemax>3.98109</valuemax>
									<value>1</value>
									<keyframe>
										<when>18</when>
										<value>0</value>
									</keyframe>
									<keyframe>
										<when>19</when>
										<value>0</value>
									</keyframe>
									<keyframe>
										<when>507</when>
										<value>0</value>
									</keyframe>
									<keyframe>
										<when>509</when>
										<value>0</value>
									</keyframe>
									<keyframe>
										<when>1448</when>
										<value>0</value>
									</keyframe>
									<keyframe>
										<when>1449</when>
										<value>0.00880158</value>
									</keyframe>
									<keyframe>
										<when>2112</when>
										<value>0.00880158</value>
									</keyframe>
									<keyframe>
										<when>2114</when>
										<value>0</value>
									</keyframe>
									<keyframe>
										<when>2713</when>
										<value>0</value>
									</keyframe>
									<keyframe>
										<when>2715</when>
										<value>0</value>
									</keyframe>
									<keyframe>
										<when>3356</when>
										<value>0</value>
									</keyframe>
									<keyframe>
										<when>3358</when>
										<value>0</value>
									</keyframe>
									<keyframe>
										<when>5166</when>
										<value>0</value>
									</keyframe>
									<keyframe>
										<when>5167</when>
										<value>1</value>
									</keyframe>
								</parameter>
							</effect>
						</filter>
						<link>
							<linkclipref>clipitem-1208</linkclipref>
							<mediatype>video</mediatype>
							<trackindex>1</trackindex>
							<clipindex>38</clipindex>
						</link>
						<link>
							<linkclipref>clipitem-1437</linkclipref>
							<mediatype>audio</mediatype>
							<trackindex>1</trackindex>
							<clipindex>29</clipindex>
							<groupindex>1</groupindex>
						</link>
						<link>
							<linkclipref>clipitem-1475</linkclipref>
							<mediatype>audio</mediatype>
							<trackindex>2</trackindex>
							<clipindex>29</clipindex>
							<groupindex>1</groupindex>
						</link>
						<labels>
							<label2>Forest</label2>
						</labels>
					</clipitem>
					<clipitem id="clipitem-1476" premiereChannelType="stereo">
						<masterclipid>masterclip-519</masterclipid>
						<name>GAYAZOV$ BROTHER$_МАЛИНОВАЯ ЛАДА___MSWCLP004814.mov</name>
						<enabled>TRUE</enabled>
						<duration>11542</duration>
						<rate>
							<timebase>25</timebase>
							<ntsc>FALSE</ntsc>
						</rate>
						<start>49644</start>
						<end>55170</end>
						<in>245</in>
						<out>5771</out>
						<pproTicksIn>2489356800000</pproTicksIn>
						<pproTicksOut>58637053440000</pproTicksOut>
						<file id="file-434"/>
						<sourcetrack>
							<mediatype>audio</mediatype>
							<trackindex>2</trackindex>
						</sourcetrack>
						<filter>
							<effect>
								<name>Audio Levels</name>
								<effectid>audiolevels</effectid>
								<effectcategory>audiolevels</effectcategory>
								<effecttype>audiolevels</effecttype>
								<mediatype>audio</mediatype>
								<pproBypass>false</pproBypass>
								<parameter authoringApp="PremierePro">
									<parameterid>level</parameterid>
									<name>Level</name>
									<valuemin>0</valuemin>
									<valuemax>3.98109</valuemax>
									<value>1</value>
									<keyframe>
										<when>254</when>
										<value>0</value>
									</keyframe>
									<keyframe>
										<when>256</when>
										<value>1</value>
									</keyframe>
								</parameter>
							</effect>
						</filter>
						<link>
							<linkclipref>clipitem-1210</linkclipref>
							<mediatype>video</mediatype>
							<trackindex>1</trackindex>
							<clipindex>40</clipindex>
						</link>
						<link>
							<linkclipref>clipitem-1438</linkclipref>
							<mediatype>audio</mediatype>
							<trackindex>1</trackindex>
							<clipindex>30</clipindex>
							<groupindex>1</groupindex>
						</link>
						<link>
							<linkclipref>clipitem-1476</linkclipref>
							<mediatype>audio</mediatype>
							<trackindex>2</trackindex>
							<clipindex>30</clipindex>
							<groupindex>1</groupindex>
						</link>
						<logginginfo>
							<description></description>
							<scene></scene>
							<shottake></shottake>
							<lognote></lognote>
							<good></good>
							<originalvideofilename></originalvideofilename>
							<originalaudiofilename></originalaudiofilename>
						</logginginfo>
						<colorinfo>
							<lut></lut>
							<lut1></lut1>
							<asc_sop></asc_sop>
							<asc_sat></asc_sat>
							<lut2></lut2>
						</colorinfo>
						<labels>
							<label2>Iris</label2>
						</labels>
					</clipitem>
					<clipitem id="clipitem-1477" premiereChannelType="stereo">
						<masterclipid>masterclip-501</masterclipid>
						<name>MYZ_RusskiyChart_OtbivkaMini_h264_v2.mp4</name>
						<enabled>TRUE</enabled>
						<duration>74</duration>
						<rate>
							<timebase>25</timebase>
							<ntsc>FALSE</ntsc>
						</rate>
						<start>55170</start>
						<end>55230</end>
						<in>0</in>
						<out>60</out>
						<pproTicksIn>0</pproTicksIn>
						<pproTicksOut>609638400000</pproTicksOut>
						<file id="file-416"/>
						<sourcetrack>
							<mediatype>audio</mediatype>
							<trackindex>2</trackindex>
						</sourcetrack>
						<filter>
							<effect>
								<name>Audio Levels</name>
								<effectid>audiolevels</effectid>
								<effectcategory>audiolevels</effectcategory>
								<effecttype>audiolevels</effecttype>
								<mediatype>audio</mediatype>
								<pproBypass>false</pproBypass>
								<parameter authoringApp="PremierePro">
									<parameterid>level</parameterid>
									<name>Level</name>
									<valuemin>0</valuemin>
									<valuemax>3.98109</valuemax>
									<value>0.258297</value>
									<keyframe>
										<when>60</when>
										<value>0.251189</value>
									</keyframe>
									<keyframe>
										<when>70</when>
										<value>0.258297</value>
									</keyframe>
								</parameter>
							</effect>
						</filter>
						<link>
							<linkclipref>clipitem-1211</linkclipref>
							<mediatype>video</mediatype>
							<trackindex>1</trackindex>
							<clipindex>41</clipindex>
						</link>
						<link>
							<linkclipref>clipitem-1439</linkclipref>
							<mediatype>audio</mediatype>
							<trackindex>1</trackindex>
							<clipindex>31</clipindex>
							<groupindex>1</groupindex>
						</link>
						<link>
							<linkclipref>clipitem-1477</linkclipref>
							<mediatype>audio</mediatype>
							<trackindex>2</trackindex>
							<clipindex>31</clipindex>
							<groupindex>1</groupindex>
						</link>
						<logginginfo>
							<description></description>
							<scene></scene>
							<shottake></shottake>
							<lognote></lognote>
							<good></good>
							<originalvideofilename></originalvideofilename>
							<originalaudiofilename></originalaudiofilename>
						</logginginfo>
						<colorinfo>
							<lut></lut>
							<lut1></lut1>
							<asc_sop></asc_sop>
							<asc_sat></asc_sat>
							<lut2></lut2>
						</colorinfo>
						<labels>
							<label2>Purple</label2>
						</labels>
					</clipitem>
					<clipitem id="clipitem-1478" premiereChannelType="stereo">
						<masterclipid>masterclip-497</masterclipid>
						<name>Nested Sequence 468</name>
						<enabled>TRUE</enabled>
						<duration>7503</duration>
						<rate>
							<timebase>25</timebase>
							<ntsc>FALSE</ntsc>
						</rate>
						<start>55230</start>
						<end>55813</end>
						<in>3351</in>
						<out>3934</out>
						<pproTicksIn>34048304640000</pproTicksIn>
						<pproTicksOut>39971957760000</pproTicksOut>
						<sequence id="sequence-92"/>
						<sourcetrack>
							<mediatype>audio</mediatype>
							<trackindex>1</trackindex>
						</sourcetrack>
						<filter>
							<effect>
								<name>Audio Levels</name>
								<effectid>audiolevels</effectid>
								<effectcategory>audiolevels</effectcategory>
								<effecttype>audiolevels</effecttype>
								<mediatype>audio</mediatype>
								<pproBypass>false</pproBypass>
								<parameter authoringApp="PremierePro">
									<parameterid>level</parameterid>
									<name>Level</name>
									<valuemin>0</valuemin>
									<valuemax>3.98109</valuemax>
									<value>1</value>
									<keyframe>
										<when>18</when>
										<value>0</value>
									</keyframe>
									<keyframe>
										<when>19</when>
										<value>0</value>
									</keyframe>
									<keyframe>
										<when>507</when>
										<value>0</value>
									</keyframe>
									<keyframe>
										<when>509</when>
										<value>0</value>
									</keyframe>
									<keyframe>
										<when>1448</when>
										<value>0</value>
									</keyframe>
									<keyframe>
										<when>1449</when>
										<value>0.00880158</value>
									</keyframe>
									<keyframe>
										<when>2112</when>
										<value>0.00880158</value>
									</keyframe>
									<keyframe>
										<when>2114</when>
										<value>0</value>
									</keyframe>
									<keyframe>
										<when>2713</when>
										<value>0</value>
									</keyframe>
									<keyframe>
										<when>2715</when>
										<value>0</value>
									</keyframe>
									<keyframe>
										<when>3356</when>
										<value>0</value>
									</keyframe>
									<keyframe>
										<when>3358</when>
										<value>1</value>
									</keyframe>
								</parameter>
							</effect>
						</filter>
						<link>
							<linkclipref>clipitem-1212</linkclipref>
							<mediatype>video</mediatype>
							<trackindex>1</trackindex>
							<clipindex>42</clipindex>
						</link>
						<link>
							<linkclipref>clipitem-1440</linkclipref>
							<mediatype>audio</mediatype>
							<trackindex>1</trackindex>
							<clipindex>32</clipindex>
							<groupindex>1</groupindex>
						</link>
						<link>
							<linkclipref>clipitem-1478</linkclipref>
							<mediatype>audio</mediatype>
							<trackindex>2</trackindex>
							<clipindex>32</clipindex>
							<groupindex>1</groupindex>
						</link>
						<labels>
							<label2>Forest</label2>
						</labels>
					</clipitem>
					<clipitem id="clipitem-1479" premiereChannelType="stereo">
						<masterclipid>masterclip-521</masterclipid>
						<name>ДАНЯ МИЛОХИН &amp; МУМИЙ ТРОЛЛЬ_БАШНЯ___MSWCLP004828.mov</name>
						<enabled>TRUE</enabled>
						<duration>9870</duration>
						<rate>
							<timebase>25</timebase>
							<ntsc>FALSE</ntsc>
						</rate>
						<start>55888</start>
						<end>60823</end>
						<in>0</in>
						<out>4935</out>
						<pproTicksIn>0</pproTicksIn>
						<pproTicksOut>50142758400000</pproTicksOut>
						<file id="file-436"/>
						<sourcetrack>
							<mediatype>audio</mediatype>
							<trackindex>2</trackindex>
						</sourcetrack>
						<filter>
							<effect>
								<name>Audio Levels</name>
								<effectid>audiolevels</effectid>
								<effectcategory>audiolevels</effectcategory>
								<effecttype>audiolevels</effecttype>
								<mediatype>audio</mediatype>
								<pproBypass>false</pproBypass>
								<parameter authoringApp="PremierePro">
									<parameterid>level</parameterid>
									<name>Level</name>
									<valuemin>0</valuemin>
									<valuemax>3.98109</valuemax>
									<value>1</value>
									<keyframe>
										<when>4897</when>
										<value>1</value>
									</keyframe>
									<keyframe>
										<when>4931</when>
										<value>0.1886</value>
									</keyframe>
								</parameter>
							</effect>
						</filter>
						<link>
							<linkclipref>clipitem-1214</linkclipref>
							<mediatype>video</mediatype>
							<trackindex>1</trackindex>
							<clipindex>44</clipindex>
						</link>
						<link>
							<linkclipref>clipitem-1441</linkclipref>
							<mediatype>audio</mediatype>
							<trackindex>1</trackindex>
							<clipindex>33</clipindex>
							<groupindex>1</groupindex>
						</link>
						<link>
							<linkclipref>clipitem-1479</linkclipref>
							<mediatype>audio</mediatype>
							<trackindex>2</trackindex>
							<clipindex>33</clipindex>
							<groupindex>1</groupindex>
						</link>
						<logginginfo>
							<description></description>
							<scene></scene>
							<shottake></shottake>
							<lognote></lognote>
							<good></good>
							<originalvideofilename></originalvideofilename>
							<originalaudiofilename></originalaudiofilename>
						</logginginfo>
						<colorinfo>
							<lut></lut>
							<lut1></lut1>
							<asc_sop></asc_sop>
							<asc_sat></asc_sat>
							<lut2></lut2>
						</colorinfo>
						<labels>
							<label2>Iris</label2>
						</labels>
					</clipitem>
					<clipitem id="clipitem-1480" premiereChannelType="stereo">
						<masterclipid>masterclip-501</masterclipid>
						<name>MYZ_RusskiyChart_OtbivkaMini_h264_v2.mp4</name>
						<enabled>TRUE</enabled>
						<duration>74</duration>
						<rate>
							<timebase>25</timebase>
							<ntsc>FALSE</ntsc>
						</rate>
						<start>60823</start>
						<end>60883</end>
						<in>0</in>
						<out>60</out>
						<pproTicksIn>0</pproTicksIn>
						<pproTicksOut>609638400000</pproTicksOut>
						<file id="file-416"/>
						<sourcetrack>
							<mediatype>audio</mediatype>
							<trackindex>2</trackindex>
						</sourcetrack>
						<filter>
							<effect>
								<name>Audio Levels</name>
								<effectid>audiolevels</effectid>
								<effectcategory>audiolevels</effectcategory>
								<effecttype>audiolevels</effecttype>
								<mediatype>audio</mediatype>
								<pproBypass>false</pproBypass>
								<parameter authoringApp="PremierePro">
									<parameterid>level</parameterid>
									<name>Level</name>
									<valuemin>0</valuemin>
									<valuemax>3.98109</valuemax>
									<value>0.251189</value>
									<keyframe>
										<when>60</when>
										<value>0.251189</value>
									</keyframe>
									<keyframe>
										<when>70</when>
										<value>0.258297</value>
									</keyframe>
								</parameter>
							</effect>
						</filter>
						<link>
							<linkclipref>clipitem-1215</linkclipref>
							<mediatype>video</mediatype>
							<trackindex>1</trackindex>
							<clipindex>45</clipindex>
						</link>
						<link>
							<linkclipref>clipitem-1442</linkclipref>
							<mediatype>audio</mediatype>
							<trackindex>1</trackindex>
							<clipindex>34</clipindex>
							<groupindex>1</groupindex>
						</link>
						<link>
							<linkclipref>clipitem-1480</linkclipref>
							<mediatype>audio</mediatype>
							<trackindex>2</trackindex>
							<clipindex>34</clipindex>
							<groupindex>1</groupindex>
						</link>
						<logginginfo>
							<description></description>
							<scene></scene>
							<shottake></shottake>
							<lognote></lognote>
							<good></good>
							<originalvideofilename></originalvideofilename>
							<originalaudiofilename></originalaudiofilename>
						</logginginfo>
						<colorinfo>
							<lut></lut>
							<lut1></lut1>
							<asc_sop></asc_sop>
							<asc_sat></asc_sat>
							<lut2></lut2>
						</colorinfo>
						<labels>
							<label2>Purple</label2>
						</labels>
					</clipitem>
					<clipitem id="clipitem-1481" premiereChannelType="stereo">
						<masterclipid>masterclip-497</masterclipid>
						<name>Nested Sequence 468</name>
						<enabled>TRUE</enabled>
						<duration>7503</duration>
						<rate>
							<timebase>25</timebase>
							<ntsc>FALSE</ntsc>
						</rate>
						<start>60883</start>
						<end>61365</end>
						<in>6164</in>
						<out>6646</out>
						<pproTicksIn>62630184960000</pproTicksIn>
						<pproTicksOut>67527613440000</pproTicksOut>
						<sequence id="sequence-92"/>
						<sourcetrack>
							<mediatype>audio</mediatype>
							<trackindex>1</trackindex>
						</sourcetrack>
						<filter>
							<effect>
								<name>Audio Levels</name>
								<effectid>audiolevels</effectid>
								<effectcategory>audiolevels</effectcategory>
								<effecttype>audiolevels</effecttype>
								<mediatype>audio</mediatype>
								<pproBypass>false</pproBypass>
								<parameter authoringApp="PremierePro">
									<parameterid>level</parameterid>
									<name>Level</name>
									<valuemin>0</valuemin>
									<valuemax>3.98109</valuemax>
									<value>0</value>
									<keyframe>
										<when>18</when>
										<value>0</value>
									</keyframe>
									<keyframe>
										<when>19</when>
										<value>0</value>
									</keyframe>
									<keyframe>
										<when>507</when>
										<value>0</value>
									</keyframe>
									<keyframe>
										<when>509</when>
										<value>0</value>
									</keyframe>
									<keyframe>
										<when>1448</when>
										<value>0</value>
									</keyframe>
									<keyframe>
										<when>1449</when>
										<value>0.00880158</value>
									</keyframe>
									<keyframe>
										<when>2112</when>
										<value>0.00880158</value>
									</keyframe>
									<keyframe>
										<when>2114</when>
										<value>0</value>
									</keyframe>
									<keyframe>
										<when>2713</when>
										<value>0</value>
									</keyframe>
									<keyframe>
										<when>2715</when>
										<value>0</value>
									</keyframe>
									<keyframe>
										<when>3356</when>
										<value>0</value>
									</keyframe>
									<keyframe>
										<when>3358</when>
										<value>0</value>
									</keyframe>
									<keyframe>
										<when>5166</when>
										<value>0</value>
									</keyframe>
									<keyframe>
										<when>5167</when>
										<value>0</value>
									</keyframe>
									<keyframe>
										<when>5688</when>
										<value>0</value>
									</keyframe>
									<keyframe>
										<when>5691</when>
										<value>0</value>
									</keyframe>
									<keyframe>
										<when>6168</when>
										<value>0</value>
									</keyframe>
									<keyframe>
										<when>6169</when>
										<value>1</value>
									</keyframe>
								</parameter>
							</effect>
						</filter>
						<link>
							<linkclipref>clipitem-1216</linkclipref>
							<mediatype>video</mediatype>
							<trackindex>1</trackindex>
							<clipindex>46</clipindex>
						</link>
						<link>
							<linkclipref>clipitem-1443</linkclipref>
							<mediatype>audio</mediatype>
							<trackindex>1</trackindex>
							<clipindex>35</clipindex>
							<groupindex>1</groupindex>
						</link>
						<link>
							<linkclipref>clipitem-1481</linkclipref>
							<mediatype>audio</mediatype>
							<trackindex>2</trackindex>
							<clipindex>35</clipindex>
							<groupindex>1</groupindex>
						</link>
						<labels>
							<label2>Forest</label2>
						</labels>
					</clipitem>
					<clipitem id="clipitem-1482" premiereChannelType="stereo">
						<masterclipid>masterclip-523</masterclipid>
						<name>ЛЮСЯ ЧЕБОТИНА_СОЛНЦЕ МОНАКО___MSWCLP004812.mov</name>
						<enabled>TRUE</enabled>
						<duration>7794</duration>
						<rate>
							<timebase>25</timebase>
							<ntsc>FALSE</ntsc>
						</rate>
						<start>61440</start>
						<end>65337</end>
						<in>0</in>
						<out>3897</out>
						<pproTicksIn>0</pproTicksIn>
						<pproTicksOut>39596014080000</pproTicksOut>
						<file id="file-438"/>
						<sourcetrack>
							<mediatype>audio</mediatype>
							<trackindex>2</trackindex>
						</sourcetrack>
						<filter>
							<effect>
								<name>Audio Levels</name>
								<effectid>audiolevels</effectid>
								<effectcategory>audiolevels</effectcategory>
								<effecttype>audiolevels</effecttype>
								<mediatype>audio</mediatype>
								<pproBypass>false</pproBypass>
								<parameter authoringApp="PremierePro">
									<parameterid>level</parameterid>
									<name>Level</name>
									<valuemin>0</valuemin>
									<valuemax>3.98109</valuemax>
									<value>1</value>
								</parameter>
							</effect>
						</filter>
						<link>
							<linkclipref>clipitem-1218</linkclipref>
							<mediatype>video</mediatype>
							<trackindex>1</trackindex>
							<clipindex>48</clipindex>
						</link>
						<link>
							<linkclipref>clipitem-1444</linkclipref>
							<mediatype>audio</mediatype>
							<trackindex>1</trackindex>
							<clipindex>36</clipindex>
							<groupindex>1</groupindex>
						</link>
						<link>
							<linkclipref>clipitem-1482</linkclipref>
							<mediatype>audio</mediatype>
							<trackindex>2</trackindex>
							<clipindex>36</clipindex>
							<groupindex>1</groupindex>
						</link>
						<logginginfo>
							<description></description>
							<scene></scene>
							<shottake></shottake>
							<lognote></lognote>
							<good></good>
							<originalvideofilename></originalvideofilename>
							<originalaudiofilename></originalaudiofilename>
						</logginginfo>
						<colorinfo>
							<lut></lut>
							<lut1></lut1>
							<asc_sop></asc_sop>
							<asc_sat></asc_sat>
							<lut2></lut2>
						</colorinfo>
						<labels>
							<label2>Iris</label2>
						</labels>
					</clipitem>
					<clipitem id="clipitem-1483" premiereChannelType="stereo">
						<masterclipid>masterclip-501</masterclipid>
						<name>MYZ_RusskiyChart_OtbivkaMini_h264_v2.mp4</name>
						<enabled>TRUE</enabled>
						<duration>74</duration>
						<rate>
							<timebase>25</timebase>
							<ntsc>FALSE</ntsc>
						</rate>
						<start>65337</start>
						<end>65397</end>
						<in>0</in>
						<out>60</out>
						<pproTicksIn>0</pproTicksIn>
						<pproTicksOut>609638400000</pproTicksOut>
						<file id="file-416"/>
						<sourcetrack>
							<mediatype>audio</mediatype>
							<trackindex>2</trackindex>
						</sourcetrack>
						<filter>
							<effect>
								<name>Audio Levels</name>
								<effectid>audiolevels</effectid>
								<effectcategory>audiolevels</effectcategory>
								<effecttype>audiolevels</effecttype>
								<mediatype>audio</mediatype>
								<pproBypass>false</pproBypass>
								<parameter authoringApp="PremierePro">
									<parameterid>level</parameterid>
									<name>Level</name>
									<valuemin>0</valuemin>
									<valuemax>3.98109</valuemax>
									<value>0.251189</value>
									<keyframe>
										<when>60</when>
										<value>0.251189</value>
									</keyframe>
									<keyframe>
										<when>70</when>
										<value>0.258297</value>
									</keyframe>
								</parameter>
							</effect>
						</filter>
						<link>
							<linkclipref>clipitem-1219</linkclipref>
							<mediatype>video</mediatype>
							<trackindex>1</trackindex>
							<clipindex>49</clipindex>
						</link>
						<link>
							<linkclipref>clipitem-1445</linkclipref>
							<mediatype>audio</mediatype>
							<trackindex>1</trackindex>
							<clipindex>37</clipindex>
							<groupindex>1</groupindex>
						</link>
						<link>
							<linkclipref>clipitem-1483</linkclipref>
							<mediatype>audio</mediatype>
							<trackindex>2</trackindex>
							<clipindex>37</clipindex>
							<groupindex>1</groupindex>
						</link>
						<logginginfo>
							<description></description>
							<scene></scene>
							<shottake></shottake>
							<lognote></lognote>
							<good></good>
							<originalvideofilename></originalvideofilename>
							<originalaudiofilename></originalaudiofilename>
						</logginginfo>
						<colorinfo>
							<lut></lut>
							<lut1></lut1>
							<asc_sop></asc_sop>
							<asc_sat></asc_sat>
							<lut2></lut2>
						</colorinfo>
						<labels>
							<label2>Purple</label2>
						</labels>
					</clipitem>
					<clipitem id="clipitem-1484" premiereChannelType="stereo">
						<masterclipid>masterclip-497</masterclipid>
						<name>Nested Sequence 468</name>
						<enabled>TRUE</enabled>
						<duration>7503</duration>
						<rate>
							<timebase>25</timebase>
							<ntsc>FALSE</ntsc>
						</rate>
						<start>65397</start>
						<end>65740</end>
						<in>6707</in>
						<out>7050</out>
						<pproTicksIn>68147412480000</pproTicksIn>
						<pproTicksOut>71632512000000</pproTicksOut>
						<sequence id="sequence-92"/>
						<sourcetrack>
							<mediatype>audio</mediatype>
							<trackindex>1</trackindex>
						</sourcetrack>
						<filter>
							<effect>
								<name>Audio Levels</name>
								<effectid>audiolevels</effectid>
								<effectcategory>audiolevels</effectcategory>
								<effecttype>audiolevels</effecttype>
								<mediatype>audio</mediatype>
								<pproBypass>false</pproBypass>
								<parameter authoringApp="PremierePro">
									<parameterid>level</parameterid>
									<name>Level</name>
									<valuemin>0</valuemin>
									<valuemax>3.98109</valuemax>
									<value>0</value>
									<keyframe>
										<when>18</when>
										<value>0</value>
									</keyframe>
									<keyframe>
										<when>19</when>
										<value>0</value>
									</keyframe>
									<keyframe>
										<when>507</when>
										<value>0</value>
									</keyframe>
									<keyframe>
										<when>509</when>
										<value>0</value>
									</keyframe>
									<keyframe>
										<when>1448</when>
										<value>0</value>
									</keyframe>
									<keyframe>
										<when>1449</when>
										<value>0.00880158</value>
									</keyframe>
									<keyframe>
										<when>2112</when>
										<value>0.00880158</value>
									</keyframe>
									<keyframe>
										<when>2114</when>
										<value>0</value>
									</keyframe>
									<keyframe>
										<when>2713</when>
										<value>0</value>
									</keyframe>
									<keyframe>
										<when>2715</when>
										<value>0</value>
									</keyframe>
									<keyframe>
										<when>3356</when>
										<value>0</value>
									</keyframe>
									<keyframe>
										<when>3358</when>
										<value>0</value>
									</keyframe>
									<keyframe>
										<when>5166</when>
										<value>0</value>
									</keyframe>
									<keyframe>
										<when>5167</when>
										<value>0</value>
									</keyframe>
									<keyframe>
										<when>5688</when>
										<value>0</value>
									</keyframe>
									<keyframe>
										<when>5691</when>
										<value>0</value>
									</keyframe>
									<keyframe>
										<when>6168</when>
										<value>0</value>
									</keyframe>
									<keyframe>
										<when>6169</when>
										<value>0</value>
									</keyframe>
									<keyframe>
										<when>6711</when>
										<value>0</value>
									</keyframe>
									<keyframe>
										<when>6713</when>
										<value>1</value>
									</keyframe>
								</parameter>
							</effect>
						</filter>
						<link>
							<linkclipref>clipitem-1220</linkclipref>
							<mediatype>video</mediatype>
							<trackindex>1</trackindex>
							<clipindex>50</clipindex>
						</link>
						<link>
							<linkclipref>clipitem-1446</linkclipref>
							<mediatype>audio</mediatype>
							<trackindex>1</trackindex>
							<clipindex>38</clipindex>
							<groupindex>1</groupindex>
						</link>
						<link>
							<linkclipref>clipitem-1484</linkclipref>
							<mediatype>audio</mediatype>
							<trackindex>2</trackindex>
							<clipindex>38</clipindex>
							<groupindex>1</groupindex>
						</link>
						<labels>
							<label2>Forest</label2>
						</labels>
					</clipitem>
					<enabled>TRUE</enabled>
					<locked>FALSE</locked>
					<outputchannelindex>2</outputchannelindex>
				</track>
				<track TL.SQTrackAudioKeyframeStyle="0" TL.SQTrackShy="0" TL.SQTrackExpandedHeight="25" TL.SQTrackExpanded="0" MZ.TrackTargeted="0" PannerCurrentValue="0.5" PannerIsInverted="true" PannerStartKeyframe="-91445760000000000,0.5,0,0,0,0,0,0" PannerName="Balance" currentExplodedTrackIndex="0" totalExplodedTrackCount="2" premiereTrackType="Stereo">
					<clipitem id="clipitem-1485" premiereChannelType="stereo">
						<masterclipid>masterclip-639</masterclipid>
						<name>OTB_Sound-1.aif</name>
						<enabled>TRUE</enabled>
						<duration>151</duration>
						<rate>
							<timebase>25</timebase>
							<ntsc>FALSE</ntsc>
						</rate>
						<start>717</start>
						<end>862</end>
						<in>6</in>
						<out>151</out>
						<pproTicksIn>60963840000</pproTicksIn>
						<pproTicksOut>1534256640000</pproTicksOut>
						<file id="file-527">
							<name>OTB_Sound-1.aif</name>
							<pathurl>file://localhost/Volumes/1Tb/_MUZ_TV/graphika/RU-21/MOD/OTB_Sound-1.aif</pathurl>
							<rate>
								<timebase>25</timebase>
								<ntsc>FALSE</ntsc>
							</rate>
							<duration>151</duration>
							<timecode>
								<rate>
									<timebase>25</timebase>
									<ntsc>FALSE</ntsc>
								</rate>
								<string>00:08:37:15</string>
								<frame>12940</frame>
								<displayformat>NDF</displayformat>
							</timecode>
							<media>
								<audio>
									<samplecharacteristics>
										<depth>16</depth>
										<samplerate>48000</samplerate>
									</samplecharacteristics>
									<channelcount>2</channelcount>
								</audio>
							</media>
						</file>
						<sourcetrack>
							<mediatype>audio</mediatype>
							<trackindex>1</trackindex>
						</sourcetrack>
						<filter>
							<effect>
								<name>Audio Levels</name>
								<effectid>audiolevels</effectid>
								<effectcategory>audiolevels</effectcategory>
								<effecttype>audiolevels</effecttype>
								<mediatype>audio</mediatype>
								<pproBypass>false</pproBypass>
								<parameter authoringApp="PremierePro">
									<parameterid>level</parameterid>
									<name>Level</name>
									<valuemin>0</valuemin>
									<valuemax>3.98109</valuemax>
									<value>1</value>
									<keyframe>
										<when>97</when>
										<value>1</value>
									</keyframe>
									<keyframe>
										<when>125</when>
										<value>1</value>
									</keyframe>
								</parameter>
							</effect>
						</filter>
							<marker>
								<comment></comment>
								<name></name>
								<in>106</in>
								<out>-1</out>
								<pproColor>4294967295</pproColor>
							</marker>
							<marker>
								<comment></comment>
								<name></name>
								<in>31</in>
								<out>-1</out>
								<pproColor>4294967295</pproColor>
							</marker>
						<link>
							<linkclipref>clipitem-1485</linkclipref>
							<mediatype>audio</mediatype>
							<trackindex>3</trackindex>
							<clipindex>1</clipindex>
							<groupindex>1</groupindex>
						</link>
						<link>
							<linkclipref>clipitem-1498</linkclipref>
							<mediatype>audio</mediatype>
							<trackindex>4</trackindex>
							<clipindex>1</clipindex>
							<groupindex>1</groupindex>
						</link>
						<logginginfo>
							<description></description>
							<scene></scene>
							<shottake></shottake>
							<lognote></lognote>
							<good></good>
							<originalvideofilename></originalvideofilename>
							<originalaudiofilename></originalaudiofilename>
						</logginginfo>
						<colorinfo>
							<lut></lut>
							<lut1></lut1>
							<asc_sop></asc_sop>
							<asc_sat></asc_sat>
							<lut2></lut2>
						</colorinfo>
						<labels>
							<label2>Caribbean</label2>
						</labels>
					</clipitem>
					<clipitem id="clipitem-1486" premiereChannelType="stereo">
						<masterclipid>masterclip-640</masterclipid>
						<name>OTB_Sound-1.aif</name>
						<enabled>TRUE</enabled>
						<duration>151</duration>
						<rate>
							<timebase>25</timebase>
							<ntsc>FALSE</ntsc>
						</rate>
						<start>7786</start>
						<end>7931</end>
						<in>6</in>
						<out>151</out>
						<pproTicksIn>60963840000</pproTicksIn>
						<pproTicksOut>1534256640000</pproTicksOut>
						<file id="file-528">
							<name>OTB_Sound-1.aif</name>
							<pathurl>file://localhost/Volumes/1Tb/_MUZ_TV/graphika/RU-21/MOD/OTB_Sound-1.aif</pathurl>
							<rate>
								<timebase>25</timebase>
								<ntsc>FALSE</ntsc>
							</rate>
							<duration>151</duration>
							<timecode>
								<rate>
									<timebase>25</timebase>
									<ntsc>FALSE</ntsc>
								</rate>
								<string>00:08:37:15</string>
								<frame>12940</frame>
								<displayformat>NDF</displayformat>
							</timecode>
							<media>
								<audio>
									<samplecharacteristics>
										<depth>16</depth>
										<samplerate>48000</samplerate>
									</samplecharacteristics>
									<channelcount>2</channelcount>
								</audio>
							</media>
						</file>
						<sourcetrack>
							<mediatype>audio</mediatype>
							<trackindex>1</trackindex>
						</sourcetrack>
						<filter>
							<effect>
								<name>Audio Levels</name>
								<effectid>audiolevels</effectid>
								<effectcategory>audiolevels</effectcategory>
								<effecttype>audiolevels</effecttype>
								<mediatype>audio</mediatype>
								<pproBypass>false</pproBypass>
								<parameter authoringApp="PremierePro">
									<parameterid>level</parameterid>
									<name>Level</name>
									<valuemin>0</valuemin>
									<valuemax>3.98109</valuemax>
									<value>1</value>
									<keyframe>
										<when>97</when>
										<value>1</value>
									</keyframe>
									<keyframe>
										<when>125</when>
										<value>1</value>
									</keyframe>
								</parameter>
							</effect>
						</filter>
							<marker>
								<comment></comment>
								<name></name>
								<in>106</in>
								<out>-1</out>
								<pproColor>4294967295</pproColor>
							</marker>
							<marker>
								<comment></comment>
								<name></name>
								<in>31</in>
								<out>-1</out>
								<pproColor>4294967295</pproColor>
							</marker>
						<link>
							<linkclipref>clipitem-1486</linkclipref>
							<mediatype>audio</mediatype>
							<trackindex>3</trackindex>
							<clipindex>2</clipindex>
							<groupindex>1</groupindex>
						</link>
						<link>
							<linkclipref>clipitem-1499</linkclipref>
							<mediatype>audio</mediatype>
							<trackindex>4</trackindex>
							<clipindex>2</clipindex>
							<groupindex>1</groupindex>
						</link>
						<logginginfo>
							<description></description>
							<scene></scene>
							<shottake></shottake>
							<lognote></lognote>
							<good></good>
							<originalvideofilename></originalvideofilename>
							<originalaudiofilename></originalaudiofilename>
						</logginginfo>
						<colorinfo>
							<lut></lut>
							<lut1></lut1>
							<asc_sop></asc_sop>
							<asc_sat></asc_sat>
							<lut2></lut2>
						</colorinfo>
						<labels>
							<label2>Caribbean</label2>
						</labels>
					</clipitem>
					<clipitem id="clipitem-1487" premiereChannelType="stereo">
						<masterclipid>masterclip-641</masterclipid>
						<name>OTB_Sound-1.aif</name>
						<enabled>TRUE</enabled>
						<duration>151</duration>
						<rate>
							<timebase>25</timebase>
							<ntsc>FALSE</ntsc>
						</rate>
						<start>13579</start>
						<end>13724</end>
						<in>6</in>
						<out>151</out>
						<pproTicksIn>60963840000</pproTicksIn>
						<pproTicksOut>1534256640000</pproTicksOut>
						<file id="file-529">
							<name>OTB_Sound-1.aif</name>
							<pathurl>file://localhost/Volumes/1Tb/_MUZ_TV/graphika/RU-21/MOD/OTB_Sound-1.aif</pathurl>
							<rate>
								<timebase>25</timebase>
								<ntsc>FALSE</ntsc>
							</rate>
							<duration>151</duration>
							<timecode>
								<rate>
									<timebase>25</timebase>
									<ntsc>FALSE</ntsc>
								</rate>
								<string>00:08:37:15</string>
								<frame>12940</frame>
								<displayformat>NDF</displayformat>
							</timecode>
							<media>
								<audio>
									<samplecharacteristics>
										<depth>16</depth>
										<samplerate>48000</samplerate>
									</samplecharacteristics>
									<channelcount>2</channelcount>
								</audio>
							</media>
						</file>
						<sourcetrack>
							<mediatype>audio</mediatype>
							<trackindex>1</trackindex>
						</sourcetrack>
						<filter>
							<effect>
								<name>Audio Levels</name>
								<effectid>audiolevels</effectid>
								<effectcategory>audiolevels</effectcategory>
								<effecttype>audiolevels</effecttype>
								<mediatype>audio</mediatype>
								<pproBypass>false</pproBypass>
								<parameter authoringApp="PremierePro">
									<parameterid>level</parameterid>
									<name>Level</name>
									<valuemin>0</valuemin>
									<valuemax>3.98109</valuemax>
									<value>1</value>
									<keyframe>
										<when>97</when>
										<value>1</value>
									</keyframe>
									<keyframe>
										<when>125</when>
										<value>1</value>
									</keyframe>
								</parameter>
							</effect>
						</filter>
							<marker>
								<comment></comment>
								<name></name>
								<in>106</in>
								<out>-1</out>
								<pproColor>4294967295</pproColor>
							</marker>
							<marker>
								<comment></comment>
								<name></name>
								<in>31</in>
								<out>-1</out>
								<pproColor>4294967295</pproColor>
							</marker>
						<link>
							<linkclipref>clipitem-1487</linkclipref>
							<mediatype>audio</mediatype>
							<trackindex>3</trackindex>
							<clipindex>3</clipindex>
							<groupindex>1</groupindex>
						</link>
						<link>
							<linkclipref>clipitem-1500</linkclipref>
							<mediatype>audio</mediatype>
							<trackindex>4</trackindex>
							<clipindex>3</clipindex>
							<groupindex>1</groupindex>
						</link>
						<logginginfo>
							<description></description>
							<scene></scene>
							<shottake></shottake>
							<lognote></lognote>
							<good></good>
							<originalvideofilename></originalvideofilename>
							<originalaudiofilename></originalaudiofilename>
						</logginginfo>
						<colorinfo>
							<lut></lut>
							<lut1></lut1>
							<asc_sop></asc_sop>
							<asc_sat></asc_sat>
							<lut2></lut2>
						</colorinfo>
						<labels>
							<label2>Caribbean</label2>
						</labels>
					</clipitem>
					<clipitem id="clipitem-1488" premiereChannelType="stereo">
						<masterclipid>masterclip-642</masterclipid>
						<name>OTB_Sound-1.aif</name>
						<enabled>TRUE</enabled>
						<duration>151</duration>
						<rate>
							<timebase>25</timebase>
							<ntsc>FALSE</ntsc>
						</rate>
						<start>19801</start>
						<end>19946</end>
						<in>6</in>
						<out>151</out>
						<pproTicksIn>60963840000</pproTicksIn>
						<pproTicksOut>1534256640000</pproTicksOut>
						<file id="file-530">
							<name>OTB_Sound-1.aif</name>
							<pathurl>file://localhost/Volumes/1Tb/_MUZ_TV/graphika/RU-21/MOD/OTB_Sound-1.aif</pathurl>
							<rate>
								<timebase>25</timebase>
								<ntsc>FALSE</ntsc>
							</rate>
							<duration>151</duration>
							<timecode>
								<rate>
									<timebase>25</timebase>
									<ntsc>FALSE</ntsc>
								</rate>
								<string>00:08:37:15</string>
								<frame>12940</frame>
								<displayformat>NDF</displayformat>
							</timecode>
							<media>
								<audio>
									<samplecharacteristics>
										<depth>16</depth>
										<samplerate>48000</samplerate>
									</samplecharacteristics>
									<channelcount>2</channelcount>
								</audio>
							</media>
						</file>
						<sourcetrack>
							<mediatype>audio</mediatype>
							<trackindex>1</trackindex>
						</sourcetrack>
						<filter>
							<effect>
								<name>Audio Levels</name>
								<effectid>audiolevels</effectid>
								<effectcategory>audiolevels</effectcategory>
								<effecttype>audiolevels</effecttype>
								<mediatype>audio</mediatype>
								<pproBypass>false</pproBypass>
								<parameter authoringApp="PremierePro">
									<parameterid>level</parameterid>
									<name>Level</name>
									<valuemin>0</valuemin>
									<valuemax>3.98109</valuemax>
									<value>1</value>
									<keyframe>
										<when>97</when>
										<value>1</value>
									</keyframe>
									<keyframe>
										<when>125</when>
										<value>1</value>
									</keyframe>
								</parameter>
							</effect>
						</filter>
							<marker>
								<comment></comment>
								<name></name>
								<in>106</in>
								<out>-1</out>
								<pproColor>4294967295</pproColor>
							</marker>
							<marker>
								<comment></comment>
								<name></name>
								<in>31</in>
								<out>-1</out>
								<pproColor>4294967295</pproColor>
							</marker>
						<link>
							<linkclipref>clipitem-1488</linkclipref>
							<mediatype>audio</mediatype>
							<trackindex>3</trackindex>
							<clipindex>4</clipindex>
							<groupindex>1</groupindex>
						</link>
						<link>
							<linkclipref>clipitem-1501</linkclipref>
							<mediatype>audio</mediatype>
							<trackindex>4</trackindex>
							<clipindex>4</clipindex>
							<groupindex>1</groupindex>
						</link>
						<logginginfo>
							<description></description>
							<scene></scene>
							<shottake></shottake>
							<lognote></lognote>
							<good></good>
							<originalvideofilename></originalvideofilename>
							<originalaudiofilename></originalaudiofilename>
						</logginginfo>
						<colorinfo>
							<lut></lut>
							<lut1></lut1>
							<asc_sop></asc_sop>
							<asc_sat></asc_sat>
							<lut2></lut2>
						</colorinfo>
						<labels>
							<label2>Caribbean</label2>
						</labels>
					</clipitem>
					<clipitem id="clipitem-1489" premiereChannelType="stereo">
						<masterclipid>masterclip-643</masterclipid>
						<name>OTB_Sound-1.aif</name>
						<enabled>TRUE</enabled>
						<duration>151</duration>
						<rate>
							<timebase>25</timebase>
							<ntsc>FALSE</ntsc>
						</rate>
						<start>24557</start>
						<end>24702</end>
						<in>6</in>
						<out>151</out>
						<pproTicksIn>60963840000</pproTicksIn>
						<pproTicksOut>1534256640000</pproTicksOut>
						<file id="file-531">
							<name>OTB_Sound-1.aif</name>
							<pathurl>file://localhost/Volumes/1Tb/_MUZ_TV/graphika/RU-21/MOD/OTB_Sound-1.aif</pathurl>
							<rate>
								<timebase>25</timebase>
								<ntsc>FALSE</ntsc>
							</rate>
							<duration>151</duration>
							<timecode>
								<rate>
									<timebase>25</timebase>
									<ntsc>FALSE</ntsc>
								</rate>
								<string>00:08:37:15</string>
								<frame>12940</frame>
								<displayformat>NDF</displayformat>
							</timecode>
							<media>
								<audio>
									<samplecharacteristics>
										<depth>16</depth>
										<samplerate>48000</samplerate>
									</samplecharacteristics>
									<channelcount>2</channelcount>
								</audio>
							</media>
						</file>
						<sourcetrack>
							<mediatype>audio</mediatype>
							<trackindex>1</trackindex>
						</sourcetrack>
						<filter>
							<effect>
								<name>Audio Levels</name>
								<effectid>audiolevels</effectid>
								<effectcategory>audiolevels</effectcategory>
								<effecttype>audiolevels</effecttype>
								<mediatype>audio</mediatype>
								<pproBypass>false</pproBypass>
								<parameter authoringApp="PremierePro">
									<parameterid>level</parameterid>
									<name>Level</name>
									<valuemin>0</valuemin>
									<valuemax>3.98109</valuemax>
									<value>1</value>
									<keyframe>
										<when>97</when>
										<value>1</value>
									</keyframe>
									<keyframe>
										<when>125</when>
										<value>1</value>
									</keyframe>
								</parameter>
							</effect>
						</filter>
							<marker>
								<comment></comment>
								<name></name>
								<in>31</in>
								<out>-1</out>
								<pproColor>4294967295</pproColor>
							</marker>
							<marker>
								<comment></comment>
								<name></name>
								<in>106</in>
								<out>-1</out>
								<pproColor>4294967295</pproColor>
							</marker>
						<link>
							<linkclipref>clipitem-1489</linkclipref>
							<mediatype>audio</mediatype>
							<trackindex>3</trackindex>
							<clipindex>5</clipindex>
							<groupindex>1</groupindex>
						</link>
						<link>
							<linkclipref>clipitem-1502</linkclipref>
							<mediatype>audio</mediatype>
							<trackindex>4</trackindex>
							<clipindex>5</clipindex>
							<groupindex>1</groupindex>
						</link>
						<logginginfo>
							<description></description>
							<scene></scene>
							<shottake></shottake>
							<lognote></lognote>
							<good></good>
							<originalvideofilename></originalvideofilename>
							<originalaudiofilename></originalaudiofilename>
						</logginginfo>
						<colorinfo>
							<lut></lut>
							<lut1></lut1>
							<asc_sop></asc_sop>
							<asc_sat></asc_sat>
							<lut2></lut2>
						</colorinfo>
						<labels>
							<label2>Caribbean</label2>
						</labels>
					</clipitem>
					<clipitem id="clipitem-1490" premiereChannelType="stereo">
						<masterclipid>masterclip-644</masterclipid>
						<name>OTB_Sound-1.aif</name>
						<enabled>TRUE</enabled>
						<duration>151</duration>
						<rate>
							<timebase>25</timebase>
							<ntsc>FALSE</ntsc>
						</rate>
						<start>29689</start>
						<end>29834</end>
						<in>6</in>
						<out>151</out>
						<pproTicksIn>60963840000</pproTicksIn>
						<pproTicksOut>1534256640000</pproTicksOut>
						<file id="file-532">
							<name>OTB_Sound-1.aif</name>
							<pathurl>file://localhost/Volumes/1Tb/_MUZ_TV/graphika/RU-21/MOD/OTB_Sound-1.aif</pathurl>
							<rate>
								<timebase>25</timebase>
								<ntsc>FALSE</ntsc>
							</rate>
							<duration>151</duration>
							<timecode>
								<rate>
									<timebase>25</timebase>
									<ntsc>FALSE</ntsc>
								</rate>
								<string>00:08:37:15</string>
								<frame>12940</frame>
								<displayformat>NDF</displayformat>
							</timecode>
							<media>
								<audio>
									<samplecharacteristics>
										<depth>16</depth>
										<samplerate>48000</samplerate>
									</samplecharacteristics>
									<channelcount>2</channelcount>
								</audio>
							</media>
						</file>
						<sourcetrack>
							<mediatype>audio</mediatype>
							<trackindex>1</trackindex>
						</sourcetrack>
						<filter>
							<effect>
								<name>Audio Levels</name>
								<effectid>audiolevels</effectid>
								<effectcategory>audiolevels</effectcategory>
								<effecttype>audiolevels</effecttype>
								<mediatype>audio</mediatype>
								<pproBypass>false</pproBypass>
								<parameter authoringApp="PremierePro">
									<parameterid>level</parameterid>
									<name>Level</name>
									<valuemin>0</valuemin>
									<valuemax>3.98109</valuemax>
									<value>1</value>
									<keyframe>
										<when>97</when>
										<value>1</value>
									</keyframe>
									<keyframe>
										<when>125</when>
										<value>1</value>
									</keyframe>
								</parameter>
							</effect>
						</filter>
							<marker>
								<comment></comment>
								<name></name>
								<in>31</in>
								<out>-1</out>
								<pproColor>4294967295</pproColor>
							</marker>
							<marker>
								<comment></comment>
								<name></name>
								<in>106</in>
								<out>-1</out>
								<pproColor>4294967295</pproColor>
							</marker>
						<link>
							<linkclipref>clipitem-1490</linkclipref>
							<mediatype>audio</mediatype>
							<trackindex>3</trackindex>
							<clipindex>6</clipindex>
							<groupindex>1</groupindex>
						</link>
						<link>
							<linkclipref>clipitem-1503</linkclipref>
							<mediatype>audio</mediatype>
							<trackindex>4</trackindex>
							<clipindex>6</clipindex>
							<groupindex>1</groupindex>
						</link>
						<logginginfo>
							<description></description>
							<scene></scene>
							<shottake></shottake>
							<lognote></lognote>
							<good></good>
							<originalvideofilename></originalvideofilename>
							<originalaudiofilename></originalaudiofilename>
						</logginginfo>
						<colorinfo>
							<lut></lut>
							<lut1></lut1>
							<asc_sop></asc_sop>
							<asc_sat></asc_sat>
							<lut2></lut2>
						</colorinfo>
						<labels>
							<label2>Caribbean</label2>
						</labels>
					</clipitem>
					<clipitem id="clipitem-1491" premiereChannelType="stereo">
						<masterclipid>masterclip-645</masterclipid>
						<name>OTB_Sound-1.aif</name>
						<enabled>TRUE</enabled>
						<duration>151</duration>
						<rate>
							<timebase>25</timebase>
							<ntsc>FALSE</ntsc>
						</rate>
						<start>35141</start>
						<end>35286</end>
						<in>6</in>
						<out>151</out>
						<pproTicksIn>60963840000</pproTicksIn>
						<pproTicksOut>1534256640000</pproTicksOut>
						<file id="file-533">
							<name>OTB_Sound-1.aif</name>
							<pathurl>file://localhost/Volumes/1Tb/_MUZ_TV/graphika/RU-21/MOD/OTB_Sound-1.aif</pathurl>
							<rate>
								<timebase>25</timebase>
								<ntsc>FALSE</ntsc>
							</rate>
							<duration>151</duration>
							<timecode>
								<rate>
									<timebase>25</timebase>
									<ntsc>FALSE</ntsc>
								</rate>
								<string>00:08:37:15</string>
								<frame>12940</frame>
								<displayformat>NDF</displayformat>
							</timecode>
							<media>
								<audio>
									<samplecharacteristics>
										<depth>16</depth>
										<samplerate>48000</samplerate>
									</samplecharacteristics>
									<channelcount>2</channelcount>
								</audio>
							</media>
						</file>
						<sourcetrack>
							<mediatype>audio</mediatype>
							<trackindex>1</trackindex>
						</sourcetrack>
						<filter>
							<effect>
								<name>Audio Levels</name>
								<effectid>audiolevels</effectid>
								<effectcategory>audiolevels</effectcategory>
								<effecttype>audiolevels</effecttype>
								<mediatype>audio</mediatype>
								<pproBypass>false</pproBypass>
								<parameter authoringApp="PremierePro">
									<parameterid>level</parameterid>
									<name>Level</name>
									<valuemin>0</valuemin>
									<valuemax>3.98109</valuemax>
									<value>0.346289</value>
									<keyframe>
										<when>97</when>
										<value>1</value>
									</keyframe>
									<keyframe>
										<when>125</when>
										<value>0.346289</value>
									</keyframe>
								</parameter>
							</effect>
						</filter>
							<marker>
								<comment></comment>
								<name></name>
								<in>106</in>
								<out>-1</out>
								<pproColor>4294967295</pproColor>
							</marker>
							<marker>
								<comment></comment>
								<name></name>
								<in>31</in>
								<out>-1</out>
								<pproColor>4294967295</pproColor>
							</marker>
						<link>
							<linkclipref>clipitem-1491</linkclipref>
							<mediatype>audio</mediatype>
							<trackindex>3</trackindex>
							<clipindex>7</clipindex>
							<groupindex>1</groupindex>
						</link>
						<link>
							<linkclipref>clipitem-1504</linkclipref>
							<mediatype>audio</mediatype>
							<trackindex>4</trackindex>
							<clipindex>7</clipindex>
							<groupindex>1</groupindex>
						</link>
						<logginginfo>
							<description></description>
							<scene></scene>
							<shottake></shottake>
							<lognote></lognote>
							<good></good>
							<originalvideofilename></originalvideofilename>
							<originalaudiofilename></originalaudiofilename>
						</logginginfo>
						<colorinfo>
							<lut></lut>
							<lut1></lut1>
							<asc_sop></asc_sop>
							<asc_sat></asc_sat>
							<lut2></lut2>
						</colorinfo>
						<labels>
							<label2>Caribbean</label2>
						</labels>
					</clipitem>
					<clipitem id="clipitem-1492" premiereChannelType="stereo">
						<masterclipid>masterclip-646</masterclipid>
						<name>OTB_Sound-1.aif</name>
						<enabled>TRUE</enabled>
						<duration>151</duration>
						<rate>
							<timebase>25</timebase>
							<ntsc>FALSE</ntsc>
						</rate>
						<start>41093</start>
						<end>41238</end>
						<in>6</in>
						<out>151</out>
						<pproTicksIn>60963840000</pproTicksIn>
						<pproTicksOut>1534256640000</pproTicksOut>
						<file id="file-534">
							<name>OTB_Sound-1.aif</name>
							<pathurl>file://localhost/Volumes/1Tb/_MUZ_TV/graphika/RU-21/MOD/OTB_Sound-1.aif</pathurl>
							<rate>
								<timebase>25</timebase>
								<ntsc>FALSE</ntsc>
							</rate>
							<duration>151</duration>
							<timecode>
								<rate>
									<timebase>25</timebase>
									<ntsc>FALSE</ntsc>
								</rate>
								<string>00:08:37:15</string>
								<frame>12940</frame>
								<displayformat>NDF</displayformat>
							</timecode>
							<media>
								<audio>
									<samplecharacteristics>
										<depth>16</depth>
										<samplerate>48000</samplerate>
									</samplecharacteristics>
									<channelcount>2</channelcount>
								</audio>
							</media>
						</file>
						<sourcetrack>
							<mediatype>audio</mediatype>
							<trackindex>1</trackindex>
						</sourcetrack>
						<filter>
							<effect>
								<name>Audio Levels</name>
								<effectid>audiolevels</effectid>
								<effectcategory>audiolevels</effectcategory>
								<effecttype>audiolevels</effecttype>
								<mediatype>audio</mediatype>
								<pproBypass>false</pproBypass>
								<parameter authoringApp="PremierePro">
									<parameterid>level</parameterid>
									<name>Level</name>
									<valuemin>0</valuemin>
									<valuemax>3.98109</valuemax>
									<value>1</value>
									<keyframe>
										<when>97</when>
										<value>1</value>
									</keyframe>
									<keyframe>
										<when>125</when>
										<value>1</value>
									</keyframe>
								</parameter>
							</effect>
						</filter>
							<marker>
								<comment></comment>
								<name></name>
								<in>31</in>
								<out>-1</out>
								<pproColor>4294967295</pproColor>
							</marker>
							<marker>
								<comment></comment>
								<name></name>
								<in>106</in>
								<out>-1</out>
								<pproColor>4294967295</pproColor>
							</marker>
						<link>
							<linkclipref>clipitem-1492</linkclipref>
							<mediatype>audio</mediatype>
							<trackindex>3</trackindex>
							<clipindex>8</clipindex>
							<groupindex>1</groupindex>
						</link>
						<link>
							<linkclipref>clipitem-1505</linkclipref>
							<mediatype>audio</mediatype>
							<trackindex>4</trackindex>
							<clipindex>8</clipindex>
							<groupindex>1</groupindex>
						</link>
						<logginginfo>
							<description></description>
							<scene></scene>
							<shottake></shottake>
							<lognote></lognote>
							<good></good>
							<originalvideofilename></originalvideofilename>
							<originalaudiofilename></originalaudiofilename>
						</logginginfo>
						<colorinfo>
							<lut></lut>
							<lut1></lut1>
							<asc_sop></asc_sop>
							<asc_sat></asc_sat>
							<lut2></lut2>
						</colorinfo>
						<labels>
							<label2>Caribbean</label2>
						</labels>
					</clipitem>
					<clipitem id="clipitem-1493" premiereChannelType="stereo">
						<masterclipid>masterclip-647</masterclipid>
						<name>OTB_Sound-1.aif</name>
						<enabled>TRUE</enabled>
						<duration>151</duration>
						<rate>
							<timebase>25</timebase>
							<ntsc>FALSE</ntsc>
						</rate>
						<start>44829</start>
						<end>44974</end>
						<in>6</in>
						<out>151</out>
						<pproTicksIn>60963840000</pproTicksIn>
						<pproTicksOut>1534256640000</pproTicksOut>
						<file id="file-535">
							<name>OTB_Sound-1.aif</name>
							<pathurl>file://localhost/Volumes/1Tb/_MUZ_TV/graphika/RU-21/MOD/OTB_Sound-1.aif</pathurl>
							<rate>
								<timebase>25</timebase>
								<ntsc>FALSE</ntsc>
							</rate>
							<duration>151</duration>
							<timecode>
								<rate>
									<timebase>25</timebase>
									<ntsc>FALSE</ntsc>
								</rate>
								<string>00:08:37:15</string>
								<frame>12940</frame>
								<displayformat>NDF</displayformat>
							</timecode>
							<media>
								<audio>
									<samplecharacteristics>
										<depth>16</depth>
										<samplerate>48000</samplerate>
									</samplecharacteristics>
									<channelcount>2</channelcount>
								</audio>
							</media>
						</file>
						<sourcetrack>
							<mediatype>audio</mediatype>
							<trackindex>1</trackindex>
						</sourcetrack>
						<filter>
							<effect>
								<name>Audio Levels</name>
								<effectid>audiolevels</effectid>
								<effectcategory>audiolevels</effectcategory>
								<effecttype>audiolevels</effecttype>
								<mediatype>audio</mediatype>
								<pproBypass>false</pproBypass>
								<parameter authoringApp="PremierePro">
									<parameterid>level</parameterid>
									<name>Level</name>
									<valuemin>0</valuemin>
									<valuemax>3.98109</valuemax>
									<value>1</value>
									<keyframe>
										<when>97</when>
										<value>1</value>
									</keyframe>
									<keyframe>
										<when>125</when>
										<value>1</value>
									</keyframe>
								</parameter>
							</effect>
						</filter>
							<marker>
								<comment></comment>
								<name></name>
								<in>106</in>
								<out>-1</out>
								<pproColor>4294967295</pproColor>
							</marker>
							<marker>
								<comment></comment>
								<name></name>
								<in>31</in>
								<out>-1</out>
								<pproColor>4294967295</pproColor>
							</marker>
						<link>
							<linkclipref>clipitem-1493</linkclipref>
							<mediatype>audio</mediatype>
							<trackindex>3</trackindex>
							<clipindex>9</clipindex>
							<groupindex>1</groupindex>
						</link>
						<link>
							<linkclipref>clipitem-1506</linkclipref>
							<mediatype>audio</mediatype>
							<trackindex>4</trackindex>
							<clipindex>9</clipindex>
							<groupindex>1</groupindex>
						</link>
						<logginginfo>
							<description></description>
							<scene></scene>
							<shottake></shottake>
							<lognote></lognote>
							<good></good>
							<originalvideofilename></originalvideofilename>
							<originalaudiofilename></originalaudiofilename>
						</logginginfo>
						<colorinfo>
							<lut></lut>
							<lut1></lut1>
							<asc_sop></asc_sop>
							<asc_sat></asc_sat>
							<lut2></lut2>
						</colorinfo>
						<labels>
							<label2>Caribbean</label2>
						</labels>
					</clipitem>
					<clipitem id="clipitem-1494" premiereChannelType="stereo">
						<masterclipid>masterclip-648</masterclipid>
						<name>OTB_Sound-1.aif</name>
						<enabled>TRUE</enabled>
						<duration>151</duration>
						<rate>
							<timebase>25</timebase>
							<ntsc>FALSE</ntsc>
						</rate>
						<start>49544</start>
						<end>49689</end>
						<in>6</in>
						<out>151</out>
						<pproTicksIn>60963840000</pproTicksIn>
						<pproTicksOut>1534256640000</pproTicksOut>
						<file id="file-536">
							<name>OTB_Sound-1.aif</name>
							<pathurl>file://localhost/Volumes/1Tb/_MUZ_TV/graphika/RU-21/MOD/OTB_Sound-1.aif</pathurl>
							<rate>
								<timebase>25</timebase>
								<ntsc>FALSE</ntsc>
							</rate>
							<duration>151</duration>
							<timecode>
								<rate>
									<timebase>25</timebase>
									<ntsc>FALSE</ntsc>
								</rate>
								<string>00:08:37:15</string>
								<frame>12940</frame>
								<displayformat>NDF</displayformat>
							</timecode>
							<media>
								<audio>
									<samplecharacteristics>
										<depth>16</depth>
										<samplerate>48000</samplerate>
									</samplecharacteristics>
									<channelcount>2</channelcount>
								</audio>
							</media>
						</file>
						<sourcetrack>
							<mediatype>audio</mediatype>
							<trackindex>1</trackindex>
						</sourcetrack>
						<filter>
							<effect>
								<name>Audio Levels</name>
								<effectid>audiolevels</effectid>
								<effectcategory>audiolevels</effectcategory>
								<effecttype>audiolevels</effecttype>
								<mediatype>audio</mediatype>
								<pproBypass>false</pproBypass>
								<parameter authoringApp="PremierePro">
									<parameterid>level</parameterid>
									<name>Level</name>
									<valuemin>0</valuemin>
									<valuemax>3.98109</valuemax>
									<value>1</value>
									<keyframe>
										<when>97</when>
										<value>1</value>
									</keyframe>
									<keyframe>
										<when>125</when>
										<value>1</value>
									</keyframe>
								</parameter>
							</effect>
						</filter>
							<marker>
								<comment></comment>
								<name></name>
								<in>31</in>
								<out>-1</out>
								<pproColor>4294967295</pproColor>
							</marker>
							<marker>
								<comment></comment>
								<name></name>
								<in>106</in>
								<out>-1</out>
								<pproColor>4294967295</pproColor>
							</marker>
						<link>
							<linkclipref>clipitem-1494</linkclipref>
							<mediatype>audio</mediatype>
							<trackindex>3</trackindex>
							<clipindex>10</clipindex>
							<groupindex>1</groupindex>
						</link>
						<link>
							<linkclipref>clipitem-1507</linkclipref>
							<mediatype>audio</mediatype>
							<trackindex>4</trackindex>
							<clipindex>10</clipindex>
							<groupindex>1</groupindex>
						</link>
						<logginginfo>
							<description></description>
							<scene></scene>
							<shottake></shottake>
							<lognote></lognote>
							<good></good>
							<originalvideofilename></originalvideofilename>
							<originalaudiofilename></originalaudiofilename>
						</logginginfo>
						<colorinfo>
							<lut></lut>
							<lut1></lut1>
							<asc_sop></asc_sop>
							<asc_sat></asc_sat>
							<lut2></lut2>
						</colorinfo>
						<labels>
							<label2>Caribbean</label2>
						</labels>
					</clipitem>
					<clipitem id="clipitem-1495" premiereChannelType="stereo">
						<masterclipid>masterclip-649</masterclipid>
						<name>OTB_Sound-1.aif</name>
						<enabled>TRUE</enabled>
						<duration>151</duration>
						<rate>
							<timebase>25</timebase>
							<ntsc>FALSE</ntsc>
						</rate>
						<start>55788</start>
						<end>55933</end>
						<in>6</in>
						<out>151</out>
						<pproTicksIn>60963840000</pproTicksIn>
						<pproTicksOut>1534256640000</pproTicksOut>
						<file id="file-537">
							<name>OTB_Sound-1.aif</name>
							<pathurl>file://localhost/Volumes/1Tb/_MUZ_TV/graphika/RU-21/MOD/OTB_Sound-1.aif</pathurl>
							<rate>
								<timebase>25</timebase>
								<ntsc>FALSE</ntsc>
							</rate>
							<duration>151</duration>
							<timecode>
								<rate>
									<timebase>25</timebase>
									<ntsc>FALSE</ntsc>
								</rate>
								<string>00:08:37:15</string>
								<frame>12940</frame>
								<displayformat>NDF</displayformat>
							</timecode>
							<media>
								<audio>
									<samplecharacteristics>
										<depth>16</depth>
										<samplerate>48000</samplerate>
									</samplecharacteristics>
									<channelcount>2</channelcount>
								</audio>
							</media>
						</file>
						<sourcetrack>
							<mediatype>audio</mediatype>
							<trackindex>1</trackindex>
						</sourcetrack>
						<filter>
							<effect>
								<name>Audio Levels</name>
								<effectid>audiolevels</effectid>
								<effectcategory>audiolevels</effectcategory>
								<effecttype>audiolevels</effecttype>
								<mediatype>audio</mediatype>
								<pproBypass>false</pproBypass>
								<parameter authoringApp="PremierePro">
									<parameterid>level</parameterid>
									<name>Level</name>
									<valuemin>0</valuemin>
									<valuemax>3.98109</valuemax>
									<value>1</value>
									<keyframe>
										<when>97</when>
										<value>1</value>
									</keyframe>
									<keyframe>
										<when>125</when>
										<value>1</value>
									</keyframe>
								</parameter>
							</effect>
						</filter>
							<marker>
								<comment></comment>
								<name></name>
								<in>106</in>
								<out>-1</out>
								<pproColor>4294967295</pproColor>
							</marker>
							<marker>
								<comment></comment>
								<name></name>
								<in>31</in>
								<out>-1</out>
								<pproColor>4294967295</pproColor>
							</marker>
						<link>
							<linkclipref>clipitem-1495</linkclipref>
							<mediatype>audio</mediatype>
							<trackindex>3</trackindex>
							<clipindex>11</clipindex>
							<groupindex>1</groupindex>
						</link>
						<link>
							<linkclipref>clipitem-1508</linkclipref>
							<mediatype>audio</mediatype>
							<trackindex>4</trackindex>
							<clipindex>11</clipindex>
							<groupindex>1</groupindex>
						</link>
						<logginginfo>
							<description></description>
							<scene></scene>
							<shottake></shottake>
							<lognote></lognote>
							<good></good>
							<originalvideofilename></originalvideofilename>
							<originalaudiofilename></originalaudiofilename>
						</logginginfo>
						<colorinfo>
							<lut></lut>
							<lut1></lut1>
							<asc_sop></asc_sop>
							<asc_sat></asc_sat>
							<lut2></lut2>
						</colorinfo>
						<labels>
							<label2>Caribbean</label2>
						</labels>
					</clipitem>
					<clipitem id="clipitem-1496" premiereChannelType="stereo">
						<masterclipid>masterclip-650</masterclipid>
						<name>OTB_Sound-1.aif</name>
						<enabled>TRUE</enabled>
						<duration>151</duration>
						<rate>
							<timebase>25</timebase>
							<ntsc>FALSE</ntsc>
						</rate>
						<start>61340</start>
						<end>61485</end>
						<in>6</in>
						<out>151</out>
						<pproTicksIn>60963840000</pproTicksIn>
						<pproTicksOut>1534256640000</pproTicksOut>
						<file id="file-538">
							<name>OTB_Sound-1.aif</name>
							<pathurl>file://localhost/Volumes/1Tb/_MUZ_TV/graphika/RU-21/MOD/OTB_Sound-1.aif</pathurl>
							<rate>
								<timebase>25</timebase>
								<ntsc>FALSE</ntsc>
							</rate>
							<duration>151</duration>
							<timecode>
								<rate>
									<timebase>25</timebase>
									<ntsc>FALSE</ntsc>
								</rate>
								<string>00:08:37:15</string>
								<frame>12940</frame>
								<displayformat>NDF</displayformat>
							</timecode>
							<media>
								<audio>
									<samplecharacteristics>
										<depth>16</depth>
										<samplerate>48000</samplerate>
									</samplecharacteristics>
									<channelcount>2</channelcount>
								</audio>
							</media>
						</file>
						<sourcetrack>
							<mediatype>audio</mediatype>
							<trackindex>1</trackindex>
						</sourcetrack>
						<filter>
							<effect>
								<name>Audio Levels</name>
								<effectid>audiolevels</effectid>
								<effectcategory>audiolevels</effectcategory>
								<effecttype>audiolevels</effecttype>
								<mediatype>audio</mediatype>
								<pproBypass>false</pproBypass>
								<parameter authoringApp="PremierePro">
									<parameterid>level</parameterid>
									<name>Level</name>
									<valuemin>0</valuemin>
									<valuemax>3.98109</valuemax>
									<value>1</value>
									<keyframe>
										<when>97</when>
										<value>1</value>
									</keyframe>
									<keyframe>
										<when>125</when>
										<value>1</value>
									</keyframe>
								</parameter>
							</effect>
						</filter>
							<marker>
								<comment></comment>
								<name></name>
								<in>31</in>
								<out>-1</out>
								<pproColor>4294967295</pproColor>
							</marker>
							<marker>
								<comment></comment>
								<name></name>
								<in>106</in>
								<out>-1</out>
								<pproColor>4294967295</pproColor>
							</marker>
						<link>
							<linkclipref>clipitem-1496</linkclipref>
							<mediatype>audio</mediatype>
							<trackindex>3</trackindex>
							<clipindex>12</clipindex>
							<groupindex>1</groupindex>
						</link>
						<link>
							<linkclipref>clipitem-1509</linkclipref>
							<mediatype>audio</mediatype>
							<trackindex>4</trackindex>
							<clipindex>12</clipindex>
							<groupindex>1</groupindex>
						</link>
						<logginginfo>
							<description></description>
							<scene></scene>
							<shottake></shottake>
							<lognote></lognote>
							<good></good>
							<originalvideofilename></originalvideofilename>
							<originalaudiofilename></originalaudiofilename>
						</logginginfo>
						<colorinfo>
							<lut></lut>
							<lut1></lut1>
							<asc_sop></asc_sop>
							<asc_sat></asc_sat>
							<lut2></lut2>
						</colorinfo>
						<labels>
							<label2>Caribbean</label2>
						</labels>
					</clipitem>
					<clipitem id="clipitem-1497" premiereChannelType="stereo">
						<masterclipid>masterclip-496</masterclipid>
						<name>MYZ_RusskiyChart_appProRes_v2.mov</name>
						<enabled>TRUE</enabled>
						<duration>299</duration>
						<rate>
							<timebase>25</timebase>
							<ntsc>FALSE</ntsc>
						</rate>
						<start>65718</start>
						<end>66000</end>
						<in>0</in>
						<out>282</out>
						<pproTicksIn>0</pproTicksIn>
						<pproTicksOut>2865300480000</pproTicksOut>
						<file id="file-412"/>
						<sourcetrack>
							<mediatype>audio</mediatype>
							<trackindex>1</trackindex>
						</sourcetrack>
						<filter>
							<effect>
								<name>Audio Levels</name>
								<effectid>audiolevels</effectid>
								<effectcategory>audiolevels</effectcategory>
								<effecttype>audiolevels</effecttype>
								<mediatype>audio</mediatype>
								<pproBypass>false</pproBypass>
								<parameter authoringApp="PremierePro">
									<parameterid>level</parameterid>
									<name>Level</name>
									<valuemin>0</valuemin>
									<valuemax>3.98109</valuemax>
									<value>0</value>
									<keyframe>
										<when>0</when>
										<value>0</value>
									</keyframe>
									<keyframe>
										<when>19</when>
										<value>0.158489</value>
									</keyframe>
									<keyframe>
										<when>262</when>
										<value>0.158489</value>
									</keyframe>
								</parameter>
							</effect>
						</filter>
						<link>
							<linkclipref>clipitem-1221</linkclipref>
							<mediatype>video</mediatype>
							<trackindex>1</trackindex>
							<clipindex>51</clipindex>
						</link>
						<link>
							<linkclipref>clipitem-1497</linkclipref>
							<mediatype>audio</mediatype>
							<trackindex>3</trackindex>
							<clipindex>13</clipindex>
							<groupindex>1</groupindex>
						</link>
						<link>
							<linkclipref>clipitem-1510</linkclipref>
							<mediatype>audio</mediatype>
							<trackindex>4</trackindex>
							<clipindex>13</clipindex>
							<groupindex>1</groupindex>
						</link>
						<logginginfo>
							<description></description>
							<scene></scene>
							<shottake></shottake>
							<lognote></lognote>
							<good></good>
							<originalvideofilename></originalvideofilename>
							<originalaudiofilename></originalaudiofilename>
						</logginginfo>
						<colorinfo>
							<lut></lut>
							<lut1></lut1>
							<asc_sop></asc_sop>
							<asc_sat></asc_sat>
							<lut2></lut2>
						</colorinfo>
						<labels>
							<label2>Iris</label2>
						</labels>
					</clipitem>
					<enabled>TRUE</enabled>
					<locked>FALSE</locked>
					<outputchannelindex>1</outputchannelindex>
				</track>
				<track TL.SQTrackAudioKeyframeStyle="0" TL.SQTrackShy="0" TL.SQTrackExpandedHeight="25" TL.SQTrackExpanded="0" MZ.TrackTargeted="0" PannerCurrentValue="0.5" PannerIsInverted="true" PannerStartKeyframe="-91445760000000000,0.5,0,0,0,0,0,0" PannerName="Balance" currentExplodedTrackIndex="1" totalExplodedTrackCount="2" premiereTrackType="Stereo">
					<clipitem id="clipitem-1498" premiereChannelType="stereo">
						<masterclipid>masterclip-639</masterclipid>
						<name>OTB_Sound-1.aif</name>
						<enabled>TRUE</enabled>
						<duration>151</duration>
						<rate>
							<timebase>25</timebase>
							<ntsc>FALSE</ntsc>
						</rate>
						<start>717</start>
						<end>862</end>
						<in>6</in>
						<out>151</out>
						<pproTicksIn>60963840000</pproTicksIn>
						<pproTicksOut>1534256640000</pproTicksOut>
						<file id="file-527"/>
						<sourcetrack>
							<mediatype>audio</mediatype>
							<trackindex>2</trackindex>
						</sourcetrack>
						<filter>
							<effect>
								<name>Audio Levels</name>
								<effectid>audiolevels</effectid>
								<effectcategory>audiolevels</effectcategory>
								<effecttype>audiolevels</effecttype>
								<mediatype>audio</mediatype>
								<pproBypass>false</pproBypass>
								<parameter authoringApp="PremierePro">
									<parameterid>level</parameterid>
									<name>Level</name>
									<valuemin>0</valuemin>
									<valuemax>3.98109</valuemax>
									<value>1</value>
									<keyframe>
										<when>97</when>
										<value>1</value>
									</keyframe>
									<keyframe>
										<when>125</when>
										<value>1</value>
									</keyframe>
								</parameter>
							</effect>
						</filter>
							<marker>
								<comment></comment>
								<name></name>
								<in>106</in>
								<out>-1</out>
								<pproColor>4294967295</pproColor>
							</marker>
							<marker>
								<comment></comment>
								<name></name>
								<in>31</in>
								<out>-1</out>
								<pproColor>4294967295</pproColor>
							</marker>
						<link>
							<linkclipref>clipitem-1485</linkclipref>
							<mediatype>audio</mediatype>
							<trackindex>3</trackindex>
							<clipindex>1</clipindex>
							<groupindex>1</groupindex>
						</link>
						<link>
							<linkclipref>clipitem-1498</linkclipref>
							<mediatype>audio</mediatype>
							<trackindex>4</trackindex>
							<clipindex>1</clipindex>
							<groupindex>1</groupindex>
						</link>
						<logginginfo>
							<description></description>
							<scene></scene>
							<shottake></shottake>
							<lognote></lognote>
							<good></good>
							<originalvideofilename></originalvideofilename>
							<originalaudiofilename></originalaudiofilename>
						</logginginfo>
						<colorinfo>
							<lut></lut>
							<lut1></lut1>
							<asc_sop></asc_sop>
							<asc_sat></asc_sat>
							<lut2></lut2>
						</colorinfo>
						<labels>
							<label2>Caribbean</label2>
						</labels>
					</clipitem>
					<clipitem id="clipitem-1499" premiereChannelType="stereo">
						<masterclipid>masterclip-640</masterclipid>
						<name>OTB_Sound-1.aif</name>
						<enabled>TRUE</enabled>
						<duration>151</duration>
						<rate>
							<timebase>25</timebase>
							<ntsc>FALSE</ntsc>
						</rate>
						<start>7786</start>
						<end>7931</end>
						<in>6</in>
						<out>151</out>
						<pproTicksIn>60963840000</pproTicksIn>
						<pproTicksOut>1534256640000</pproTicksOut>
						<file id="file-528"/>
						<sourcetrack>
							<mediatype>audio</mediatype>
							<trackindex>2</trackindex>
						</sourcetrack>
						<filter>
							<effect>
								<name>Audio Levels</name>
								<effectid>audiolevels</effectid>
								<effectcategory>audiolevels</effectcategory>
								<effecttype>audiolevels</effecttype>
								<mediatype>audio</mediatype>
								<pproBypass>false</pproBypass>
								<parameter authoringApp="PremierePro">
									<parameterid>level</parameterid>
									<name>Level</name>
									<valuemin>0</valuemin>
									<valuemax>3.98109</valuemax>
									<value>1</value>
									<keyframe>
										<when>97</when>
										<value>1</value>
									</keyframe>
									<keyframe>
										<when>125</when>
										<value>1</value>
									</keyframe>
								</parameter>
							</effect>
						</filter>
							<marker>
								<comment></comment>
								<name></name>
								<in>106</in>
								<out>-1</out>
								<pproColor>4294967295</pproColor>
							</marker>
							<marker>
								<comment></comment>
								<name></name>
								<in>31</in>
								<out>-1</out>
								<pproColor>4294967295</pproColor>
							</marker>
						<link>
							<linkclipref>clipitem-1486</linkclipref>
							<mediatype>audio</mediatype>
							<trackindex>3</trackindex>
							<clipindex>2</clipindex>
							<groupindex>1</groupindex>
						</link>
						<link>
							<linkclipref>clipitem-1499</linkclipref>
							<mediatype>audio</mediatype>
							<trackindex>4</trackindex>
							<clipindex>2</clipindex>
							<groupindex>1</groupindex>
						</link>
						<logginginfo>
							<description></description>
							<scene></scene>
							<shottake></shottake>
							<lognote></lognote>
							<good></good>
							<originalvideofilename></originalvideofilename>
							<originalaudiofilename></originalaudiofilename>
						</logginginfo>
						<colorinfo>
							<lut></lut>
							<lut1></lut1>
							<asc_sop></asc_sop>
							<asc_sat></asc_sat>
							<lut2></lut2>
						</colorinfo>
						<labels>
							<label2>Caribbean</label2>
						</labels>
					</clipitem>
					<clipitem id="clipitem-1500" premiereChannelType="stereo">
						<masterclipid>masterclip-641</masterclipid>
						<name>OTB_Sound-1.aif</name>
						<enabled>TRUE</enabled>
						<duration>151</duration>
						<rate>
							<timebase>25</timebase>
							<ntsc>FALSE</ntsc>
						</rate>
						<start>13579</start>
						<end>13724</end>
						<in>6</in>
						<out>151</out>
						<pproTicksIn>60963840000</pproTicksIn>
						<pproTicksOut>1534256640000</pproTicksOut>
						<file id="file-529"/>
						<sourcetrack>
							<mediatype>audio</mediatype>
							<trackindex>2</trackindex>
						</sourcetrack>
						<filter>
							<effect>
								<name>Audio Levels</name>
								<effectid>audiolevels</effectid>
								<effectcategory>audiolevels</effectcategory>
								<effecttype>audiolevels</effecttype>
								<mediatype>audio</mediatype>
								<pproBypass>false</pproBypass>
								<parameter authoringApp="PremierePro">
									<parameterid>level</parameterid>
									<name>Level</name>
									<valuemin>0</valuemin>
									<valuemax>3.98109</valuemax>
									<value>1</value>
									<keyframe>
										<when>97</when>
										<value>1</value>
									</keyframe>
									<keyframe>
										<when>125</when>
										<value>1</value>
									</keyframe>
								</parameter>
							</effect>
						</filter>
							<marker>
								<comment></comment>
								<name></name>
								<in>106</in>
								<out>-1</out>
								<pproColor>4294967295</pproColor>
							</marker>
							<marker>
								<comment></comment>
								<name></name>
								<in>31</in>
								<out>-1</out>
								<pproColor>4294967295</pproColor>
							</marker>
						<link>
							<linkclipref>clipitem-1487</linkclipref>
							<mediatype>audio</mediatype>
							<trackindex>3</trackindex>
							<clipindex>3</clipindex>
							<groupindex>1</groupindex>
						</link>
						<link>
							<linkclipref>clipitem-1500</linkclipref>
							<mediatype>audio</mediatype>
							<trackindex>4</trackindex>
							<clipindex>3</clipindex>
							<groupindex>1</groupindex>
						</link>
						<logginginfo>
							<description></description>
							<scene></scene>
							<shottake></shottake>
							<lognote></lognote>
							<good></good>
							<originalvideofilename></originalvideofilename>
							<originalaudiofilename></originalaudiofilename>
						</logginginfo>
						<colorinfo>
							<lut></lut>
							<lut1></lut1>
							<asc_sop></asc_sop>
							<asc_sat></asc_sat>
							<lut2></lut2>
						</colorinfo>
						<labels>
							<label2>Caribbean</label2>
						</labels>
					</clipitem>
					<clipitem id="clipitem-1501" premiereChannelType="stereo">
						<masterclipid>masterclip-642</masterclipid>
						<name>OTB_Sound-1.aif</name>
						<enabled>TRUE</enabled>
						<duration>151</duration>
						<rate>
							<timebase>25</timebase>
							<ntsc>FALSE</ntsc>
						</rate>
						<start>19801</start>
						<end>19946</end>
						<in>6</in>
						<out>151</out>
						<pproTicksIn>60963840000</pproTicksIn>
						<pproTicksOut>1534256640000</pproTicksOut>
						<file id="file-530"/>
						<sourcetrack>
							<mediatype>audio</mediatype>
							<trackindex>2</trackindex>
						</sourcetrack>
						<filter>
							<effect>
								<name>Audio Levels</name>
								<effectid>audiolevels</effectid>
								<effectcategory>audiolevels</effectcategory>
								<effecttype>audiolevels</effecttype>
								<mediatype>audio</mediatype>
								<pproBypass>false</pproBypass>
								<parameter authoringApp="PremierePro">
									<parameterid>level</parameterid>
									<name>Level</name>
									<valuemin>0</valuemin>
									<valuemax>3.98109</valuemax>
									<value>1</value>
									<keyframe>
										<when>97</when>
										<value>1</value>
									</keyframe>
									<keyframe>
										<when>125</when>
										<value>1</value>
									</keyframe>
								</parameter>
							</effect>
						</filter>
							<marker>
								<comment></comment>
								<name></name>
								<in>106</in>
								<out>-1</out>
								<pproColor>4294967295</pproColor>
							</marker>
							<marker>
								<comment></comment>
								<name></name>
								<in>31</in>
								<out>-1</out>
								<pproColor>4294967295</pproColor>
							</marker>
						<link>
							<linkclipref>clipitem-1488</linkclipref>
							<mediatype>audio</mediatype>
							<trackindex>3</trackindex>
							<clipindex>4</clipindex>
							<groupindex>1</groupindex>
						</link>
						<link>
							<linkclipref>clipitem-1501</linkclipref>
							<mediatype>audio</mediatype>
							<trackindex>4</trackindex>
							<clipindex>4</clipindex>
							<groupindex>1</groupindex>
						</link>
						<logginginfo>
							<description></description>
							<scene></scene>
							<shottake></shottake>
							<lognote></lognote>
							<good></good>
							<originalvideofilename></originalvideofilename>
							<originalaudiofilename></originalaudiofilename>
						</logginginfo>
						<colorinfo>
							<lut></lut>
							<lut1></lut1>
							<asc_sop></asc_sop>
							<asc_sat></asc_sat>
							<lut2></lut2>
						</colorinfo>
						<labels>
							<label2>Caribbean</label2>
						</labels>
					</clipitem>
					<clipitem id="clipitem-1502" premiereChannelType="stereo">
						<masterclipid>masterclip-643</masterclipid>
						<name>OTB_Sound-1.aif</name>
						<enabled>TRUE</enabled>
						<duration>151</duration>
						<rate>
							<timebase>25</timebase>
							<ntsc>FALSE</ntsc>
						</rate>
						<start>24557</start>
						<end>24702</end>
						<in>6</in>
						<out>151</out>
						<pproTicksIn>60963840000</pproTicksIn>
						<pproTicksOut>1534256640000</pproTicksOut>
						<file id="file-531"/>
						<sourcetrack>
							<mediatype>audio</mediatype>
							<trackindex>2</trackindex>
						</sourcetrack>
						<filter>
							<effect>
								<name>Audio Levels</name>
								<effectid>audiolevels</effectid>
								<effectcategory>audiolevels</effectcategory>
								<effecttype>audiolevels</effecttype>
								<mediatype>audio</mediatype>
								<pproBypass>false</pproBypass>
								<parameter authoringApp="PremierePro">
									<parameterid>level</parameterid>
									<name>Level</name>
									<valuemin>0</valuemin>
									<valuemax>3.98109</valuemax>
									<value>1</value>
									<keyframe>
										<when>97</when>
										<value>1</value>
									</keyframe>
									<keyframe>
										<when>125</when>
										<value>1</value>
									</keyframe>
								</parameter>
							</effect>
						</filter>
							<marker>
								<comment></comment>
								<name></name>
								<in>31</in>
								<out>-1</out>
								<pproColor>4294967295</pproColor>
							</marker>
							<marker>
								<comment></comment>
								<name></name>
								<in>106</in>
								<out>-1</out>
								<pproColor>4294967295</pproColor>
							</marker>
						<link>
							<linkclipref>clipitem-1489</linkclipref>
							<mediatype>audio</mediatype>
							<trackindex>3</trackindex>
							<clipindex>5</clipindex>
							<groupindex>1</groupindex>
						</link>
						<link>
							<linkclipref>clipitem-1502</linkclipref>
							<mediatype>audio</mediatype>
							<trackindex>4</trackindex>
							<clipindex>5</clipindex>
							<groupindex>1</groupindex>
						</link>
						<logginginfo>
							<description></description>
							<scene></scene>
							<shottake></shottake>
							<lognote></lognote>
							<good></good>
							<originalvideofilename></originalvideofilename>
							<originalaudiofilename></originalaudiofilename>
						</logginginfo>
						<colorinfo>
							<lut></lut>
							<lut1></lut1>
							<asc_sop></asc_sop>
							<asc_sat></asc_sat>
							<lut2></lut2>
						</colorinfo>
						<labels>
							<label2>Caribbean</label2>
						</labels>
					</clipitem>
					<clipitem id="clipitem-1503" premiereChannelType="stereo">
						<masterclipid>masterclip-644</masterclipid>
						<name>OTB_Sound-1.aif</name>
						<enabled>TRUE</enabled>
						<duration>151</duration>
						<rate>
							<timebase>25</timebase>
							<ntsc>FALSE</ntsc>
						</rate>
						<start>29689</start>
						<end>29834</end>
						<in>6</in>
						<out>151</out>
						<pproTicksIn>60963840000</pproTicksIn>
						<pproTicksOut>1534256640000</pproTicksOut>
						<file id="file-532"/>
						<sourcetrack>
							<mediatype>audio</mediatype>
							<trackindex>2</trackindex>
						</sourcetrack>
						<filter>
							<effect>
								<name>Audio Levels</name>
								<effectid>audiolevels</effectid>
								<effectcategory>audiolevels</effectcategory>
								<effecttype>audiolevels</effecttype>
								<mediatype>audio</mediatype>
								<pproBypass>false</pproBypass>
								<parameter authoringApp="PremierePro">
									<parameterid>level</parameterid>
									<name>Level</name>
									<valuemin>0</valuemin>
									<valuemax>3.98109</valuemax>
									<value>1</value>
									<keyframe>
										<when>97</when>
										<value>1</value>
									</keyframe>
									<keyframe>
										<when>125</when>
										<value>1</value>
									</keyframe>
								</parameter>
							</effect>
						</filter>
							<marker>
								<comment></comment>
								<name></name>
								<in>31</in>
								<out>-1</out>
								<pproColor>4294967295</pproColor>
							</marker>
							<marker>
								<comment></comment>
								<name></name>
								<in>106</in>
								<out>-1</out>
								<pproColor>4294967295</pproColor>
							</marker>
						<link>
							<linkclipref>clipitem-1490</linkclipref>
							<mediatype>audio</mediatype>
							<trackindex>3</trackindex>
							<clipindex>6</clipindex>
							<groupindex>1</groupindex>
						</link>
						<link>
							<linkclipref>clipitem-1503</linkclipref>
							<mediatype>audio</mediatype>
							<trackindex>4</trackindex>
							<clipindex>6</clipindex>
							<groupindex>1</groupindex>
						</link>
						<logginginfo>
							<description></description>
							<scene></scene>
							<shottake></shottake>
							<lognote></lognote>
							<good></good>
							<originalvideofilename></originalvideofilename>
							<originalaudiofilename></originalaudiofilename>
						</logginginfo>
						<colorinfo>
							<lut></lut>
							<lut1></lut1>
							<asc_sop></asc_sop>
							<asc_sat></asc_sat>
							<lut2></lut2>
						</colorinfo>
						<labels>
							<label2>Caribbean</label2>
						</labels>
					</clipitem>
					<clipitem id="clipitem-1504" premiereChannelType="stereo">
						<masterclipid>masterclip-645</masterclipid>
						<name>OTB_Sound-1.aif</name>
						<enabled>TRUE</enabled>
						<duration>151</duration>
						<rate>
							<timebase>25</timebase>
							<ntsc>FALSE</ntsc>
						</rate>
						<start>35141</start>
						<end>35286</end>
						<in>6</in>
						<out>151</out>
						<pproTicksIn>60963840000</pproTicksIn>
						<pproTicksOut>1534256640000</pproTicksOut>
						<file id="file-533"/>
						<sourcetrack>
							<mediatype>audio</mediatype>
							<trackindex>2</trackindex>
						</sourcetrack>
						<filter>
							<effect>
								<name>Audio Levels</name>
								<effectid>audiolevels</effectid>
								<effectcategory>audiolevels</effectcategory>
								<effecttype>audiolevels</effecttype>
								<mediatype>audio</mediatype>
								<pproBypass>false</pproBypass>
								<parameter authoringApp="PremierePro">
									<parameterid>level</parameterid>
									<name>Level</name>
									<valuemin>0</valuemin>
									<valuemax>3.98109</valuemax>
									<value>0.346289</value>
									<keyframe>
										<when>97</when>
										<value>1</value>
									</keyframe>
									<keyframe>
										<when>125</when>
										<value>0.346289</value>
									</keyframe>
								</parameter>
							</effect>
						</filter>
							<marker>
								<comment></comment>
								<name></name>
								<in>106</in>
								<out>-1</out>
								<pproColor>4294967295</pproColor>
							</marker>
							<marker>
								<comment></comment>
								<name></name>
								<in>31</in>
								<out>-1</out>
								<pproColor>4294967295</pproColor>
							</marker>
						<link>
							<linkclipref>clipitem-1491</linkclipref>
							<mediatype>audio</mediatype>
							<trackindex>3</trackindex>
							<clipindex>7</clipindex>
							<groupindex>1</groupindex>
						</link>
						<link>
							<linkclipref>clipitem-1504</linkclipref>
							<mediatype>audio</mediatype>
							<trackindex>4</trackindex>
							<clipindex>7</clipindex>
							<groupindex>1</groupindex>
						</link>
						<logginginfo>
							<description></description>
							<scene></scene>
							<shottake></shottake>
							<lognote></lognote>
							<good></good>
							<originalvideofilename></originalvideofilename>
							<originalaudiofilename></originalaudiofilename>
						</logginginfo>
						<colorinfo>
							<lut></lut>
							<lut1></lut1>
							<asc_sop></asc_sop>
							<asc_sat></asc_sat>
							<lut2></lut2>
						</colorinfo>
						<labels>
							<label2>Caribbean</label2>
						</labels>
					</clipitem>
					<clipitem id="clipitem-1505" premiereChannelType="stereo">
						<masterclipid>masterclip-646</masterclipid>
						<name>OTB_Sound-1.aif</name>
						<enabled>TRUE</enabled>
						<duration>151</duration>
						<rate>
							<timebase>25</timebase>
							<ntsc>FALSE</ntsc>
						</rate>
						<start>41093</start>
						<end>41238</end>
						<in>6</in>
						<out>151</out>
						<pproTicksIn>60963840000</pproTicksIn>
						<pproTicksOut>1534256640000</pproTicksOut>
						<file id="file-534"/>
						<sourcetrack>
							<mediatype>audio</mediatype>
							<trackindex>2</trackindex>
						</sourcetrack>
						<filter>
							<effect>
								<name>Audio Levels</name>
								<effectid>audiolevels</effectid>
								<effectcategory>audiolevels</effectcategory>
								<effecttype>audiolevels</effecttype>
								<mediatype>audio</mediatype>
								<pproBypass>false</pproBypass>
								<parameter authoringApp="PremierePro">
									<parameterid>level</parameterid>
									<name>Level</name>
									<valuemin>0</valuemin>
									<valuemax>3.98109</valuemax>
									<value>1</value>
									<keyframe>
										<when>97</when>
										<value>1</value>
									</keyframe>
									<keyframe>
										<when>125</when>
										<value>1</value>
									</keyframe>
								</parameter>
							</effect>
						</filter>
							<marker>
								<comment></comment>
								<name></name>
								<in>31</in>
								<out>-1</out>
								<pproColor>4294967295</pproColor>
							</marker>
							<marker>
								<comment></comment>
								<name></name>
								<in>106</in>
								<out>-1</out>
								<pproColor>4294967295</pproColor>
							</marker>
						<link>
							<linkclipref>clipitem-1492</linkclipref>
							<mediatype>audio</mediatype>
							<trackindex>3</trackindex>
							<clipindex>8</clipindex>
							<groupindex>1</groupindex>
						</link>
						<link>
							<linkclipref>clipitem-1505</linkclipref>
							<mediatype>audio</mediatype>
							<trackindex>4</trackindex>
							<clipindex>8</clipindex>
							<groupindex>1</groupindex>
						</link>
						<logginginfo>
							<description></description>
							<scene></scene>
							<shottake></shottake>
							<lognote></lognote>
							<good></good>
							<originalvideofilename></originalvideofilename>
							<originalaudiofilename></originalaudiofilename>
						</logginginfo>
						<colorinfo>
							<lut></lut>
							<lut1></lut1>
							<asc_sop></asc_sop>
							<asc_sat></asc_sat>
							<lut2></lut2>
						</colorinfo>
						<labels>
							<label2>Caribbean</label2>
						</labels>
					</clipitem>
					<clipitem id="clipitem-1506" premiereChannelType="stereo">
						<masterclipid>masterclip-647</masterclipid>
						<name>OTB_Sound-1.aif</name>
						<enabled>TRUE</enabled>
						<duration>151</duration>
						<rate>
							<timebase>25</timebase>
							<ntsc>FALSE</ntsc>
						</rate>
						<start>44829</start>
						<end>44974</end>
						<in>6</in>
						<out>151</out>
						<pproTicksIn>60963840000</pproTicksIn>
						<pproTicksOut>1534256640000</pproTicksOut>
						<file id="file-535"/>
						<sourcetrack>
							<mediatype>audio</mediatype>
							<trackindex>2</trackindex>
						</sourcetrack>
						<filter>
							<effect>
								<name>Audio Levels</name>
								<effectid>audiolevels</effectid>
								<effectcategory>audiolevels</effectcategory>
								<effecttype>audiolevels</effecttype>
								<mediatype>audio</mediatype>
								<pproBypass>false</pproBypass>
								<parameter authoringApp="PremierePro">
									<parameterid>level</parameterid>
									<name>Level</name>
									<valuemin>0</valuemin>
									<valuemax>3.98109</valuemax>
									<value>1</value>
									<keyframe>
										<when>97</when>
										<value>1</value>
									</keyframe>
									<keyframe>
										<when>125</when>
										<value>1</value>
									</keyframe>
								</parameter>
							</effect>
						</filter>
							<marker>
								<comment></comment>
								<name></name>
								<in>106</in>
								<out>-1</out>
								<pproColor>4294967295</pproColor>
							</marker>
							<marker>
								<comment></comment>
								<name></name>
								<in>31</in>
								<out>-1</out>
								<pproColor>4294967295</pproColor>
							</marker>
						<link>
							<linkclipref>clipitem-1493</linkclipref>
							<mediatype>audio</mediatype>
							<trackindex>3</trackindex>
							<clipindex>9</clipindex>
							<groupindex>1</groupindex>
						</link>
						<link>
							<linkclipref>clipitem-1506</linkclipref>
							<mediatype>audio</mediatype>
							<trackindex>4</trackindex>
							<clipindex>9</clipindex>
							<groupindex>1</groupindex>
						</link>
						<logginginfo>
							<description></description>
							<scene></scene>
							<shottake></shottake>
							<lognote></lognote>
							<good></good>
							<originalvideofilename></originalvideofilename>
							<originalaudiofilename></originalaudiofilename>
						</logginginfo>
						<colorinfo>
							<lut></lut>
							<lut1></lut1>
							<asc_sop></asc_sop>
							<asc_sat></asc_sat>
							<lut2></lut2>
						</colorinfo>
						<labels>
							<label2>Caribbean</label2>
						</labels>
					</clipitem>
					<clipitem id="clipitem-1507" premiereChannelType="stereo">
						<masterclipid>masterclip-648</masterclipid>
						<name>OTB_Sound-1.aif</name>
						<enabled>TRUE</enabled>
						<duration>151</duration>
						<rate>
							<timebase>25</timebase>
							<ntsc>FALSE</ntsc>
						</rate>
						<start>49544</start>
						<end>49689</end>
						<in>6</in>
						<out>151</out>
						<pproTicksIn>60963840000</pproTicksIn>
						<pproTicksOut>1534256640000</pproTicksOut>
						<file id="file-536"/>
						<sourcetrack>
							<mediatype>audio</mediatype>
							<trackindex>2</trackindex>
						</sourcetrack>
						<filter>
							<effect>
								<name>Audio Levels</name>
								<effectid>audiolevels</effectid>
								<effectcategory>audiolevels</effectcategory>
								<effecttype>audiolevels</effecttype>
								<mediatype>audio</mediatype>
								<pproBypass>false</pproBypass>
								<parameter authoringApp="PremierePro">
									<parameterid>level</parameterid>
									<name>Level</name>
									<valuemin>0</valuemin>
									<valuemax>3.98109</valuemax>
									<value>1</value>
									<keyframe>
										<when>97</when>
										<value>1</value>
									</keyframe>
									<keyframe>
										<when>125</when>
										<value>1</value>
									</keyframe>
								</parameter>
							</effect>
						</filter>
							<marker>
								<comment></comment>
								<name></name>
								<in>31</in>
								<out>-1</out>
								<pproColor>4294967295</pproColor>
							</marker>
							<marker>
								<comment></comment>
								<name></name>
								<in>106</in>
								<out>-1</out>
								<pproColor>4294967295</pproColor>
							</marker>
						<link>
							<linkclipref>clipitem-1494</linkclipref>
							<mediatype>audio</mediatype>
							<trackindex>3</trackindex>
							<clipindex>10</clipindex>
							<groupindex>1</groupindex>
						</link>
						<link>
							<linkclipref>clipitem-1507</linkclipref>
							<mediatype>audio</mediatype>
							<trackindex>4</trackindex>
							<clipindex>10</clipindex>
							<groupindex>1</groupindex>
						</link>
						<logginginfo>
							<description></description>
							<scene></scene>
							<shottake></shottake>
							<lognote></lognote>
							<good></good>
							<originalvideofilename></originalvideofilename>
							<originalaudiofilename></originalaudiofilename>
						</logginginfo>
						<colorinfo>
							<lut></lut>
							<lut1></lut1>
							<asc_sop></asc_sop>
							<asc_sat></asc_sat>
							<lut2></lut2>
						</colorinfo>
						<labels>
							<label2>Caribbean</label2>
						</labels>
					</clipitem>
					<clipitem id="clipitem-1508" premiereChannelType="stereo">
						<masterclipid>masterclip-649</masterclipid>
						<name>OTB_Sound-1.aif</name>
						<enabled>TRUE</enabled>
						<duration>151</duration>
						<rate>
							<timebase>25</timebase>
							<ntsc>FALSE</ntsc>
						</rate>
						<start>55788</start>
						<end>55933</end>
						<in>6</in>
						<out>151</out>
						<pproTicksIn>60963840000</pproTicksIn>
						<pproTicksOut>1534256640000</pproTicksOut>
						<file id="file-537"/>
						<sourcetrack>
							<mediatype>audio</mediatype>
							<trackindex>2</trackindex>
						</sourcetrack>
						<filter>
							<effect>
								<name>Audio Levels</name>
								<effectid>audiolevels</effectid>
								<effectcategory>audiolevels</effectcategory>
								<effecttype>audiolevels</effecttype>
								<mediatype>audio</mediatype>
								<pproBypass>false</pproBypass>
								<parameter authoringApp="PremierePro">
									<parameterid>level</parameterid>
									<name>Level</name>
									<valuemin>0</valuemin>
									<valuemax>3.98109</valuemax>
									<value>1</value>
									<keyframe>
										<when>97</when>
										<value>1</value>
									</keyframe>
									<keyframe>
										<when>125</when>
										<value>1</value>
									</keyframe>
								</parameter>
							</effect>
						</filter>
							<marker>
								<comment></comment>
								<name></name>
								<in>106</in>
								<out>-1</out>
								<pproColor>4294967295</pproColor>
							</marker>
							<marker>
								<comment></comment>
								<name></name>
								<in>31</in>
								<out>-1</out>
								<pproColor>4294967295</pproColor>
							</marker>
						<link>
							<linkclipref>clipitem-1495</linkclipref>
							<mediatype>audio</mediatype>
							<trackindex>3</trackindex>
							<clipindex>11</clipindex>
							<groupindex>1</groupindex>
						</link>
						<link>
							<linkclipref>clipitem-1508</linkclipref>
							<mediatype>audio</mediatype>
							<trackindex>4</trackindex>
							<clipindex>11</clipindex>
							<groupindex>1</groupindex>
						</link>
						<logginginfo>
							<description></description>
							<scene></scene>
							<shottake></shottake>
							<lognote></lognote>
							<good></good>
							<originalvideofilename></originalvideofilename>
							<originalaudiofilename></originalaudiofilename>
						</logginginfo>
						<colorinfo>
							<lut></lut>
							<lut1></lut1>
							<asc_sop></asc_sop>
							<asc_sat></asc_sat>
							<lut2></lut2>
						</colorinfo>
						<labels>
							<label2>Caribbean</label2>
						</labels>
					</clipitem>
					<clipitem id="clipitem-1509" premiereChannelType="stereo">
						<masterclipid>masterclip-650</masterclipid>
						<name>OTB_Sound-1.aif</name>
						<enabled>TRUE</enabled>
						<duration>151</duration>
						<rate>
							<timebase>25</timebase>
							<ntsc>FALSE</ntsc>
						</rate>
						<start>61340</start>
						<end>61485</end>
						<in>6</in>
						<out>151</out>
						<pproTicksIn>60963840000</pproTicksIn>
						<pproTicksOut>1534256640000</pproTicksOut>
						<file id="file-538"/>
						<sourcetrack>
							<mediatype>audio</mediatype>
							<trackindex>2</trackindex>
						</sourcetrack>
						<filter>
							<effect>
								<name>Audio Levels</name>
								<effectid>audiolevels</effectid>
								<effectcategory>audiolevels</effectcategory>
								<effecttype>audiolevels</effecttype>
								<mediatype>audio</mediatype>
								<pproBypass>false</pproBypass>
								<parameter authoringApp="PremierePro">
									<parameterid>level</parameterid>
									<name>Level</name>
									<valuemin>0</valuemin>
									<valuemax>3.98109</valuemax>
									<value>1</value>
									<keyframe>
										<when>97</when>
										<value>1</value>
									</keyframe>
									<keyframe>
										<when>125</when>
										<value>1</value>
									</keyframe>
								</parameter>
							</effect>
						</filter>
							<marker>
								<comment></comment>
								<name></name>
								<in>31</in>
								<out>-1</out>
								<pproColor>4294967295</pproColor>
							</marker>
							<marker>
								<comment></comment>
								<name></name>
								<in>106</in>
								<out>-1</out>
								<pproColor>4294967295</pproColor>
							</marker>
						<link>
							<linkclipref>clipitem-1496</linkclipref>
							<mediatype>audio</mediatype>
							<trackindex>3</trackindex>
							<clipindex>12</clipindex>
							<groupindex>1</groupindex>
						</link>
						<link>
							<linkclipref>clipitem-1509</linkclipref>
							<mediatype>audio</mediatype>
							<trackindex>4</trackindex>
							<clipindex>12</clipindex>
							<groupindex>1</groupindex>
						</link>
						<logginginfo>
							<description></description>
							<scene></scene>
							<shottake></shottake>
							<lognote></lognote>
							<good></good>
							<originalvideofilename></originalvideofilename>
							<originalaudiofilename></originalaudiofilename>
						</logginginfo>
						<colorinfo>
							<lut></lut>
							<lut1></lut1>
							<asc_sop></asc_sop>
							<asc_sat></asc_sat>
							<lut2></lut2>
						</colorinfo>
						<labels>
							<label2>Caribbean</label2>
						</labels>
					</clipitem>
					<clipitem id="clipitem-1510" premiereChannelType="stereo">
						<masterclipid>masterclip-496</masterclipid>
						<name>MYZ_RusskiyChart_appProRes_v2.mov</name>
						<enabled>TRUE</enabled>
						<duration>299</duration>
						<rate>
							<timebase>25</timebase>
							<ntsc>FALSE</ntsc>
						</rate>
						<start>65718</start>
						<end>66000</end>
						<in>0</in>
						<out>282</out>
						<pproTicksIn>0</pproTicksIn>
						<pproTicksOut>2865300480000</pproTicksOut>
						<file id="file-412"/>
						<sourcetrack>
							<mediatype>audio</mediatype>
							<trackindex>2</trackindex>
						</sourcetrack>
						<filter>
							<effect>
								<name>Audio Levels</name>
								<effectid>audiolevels</effectid>
								<effectcategory>audiolevels</effectcategory>
								<effecttype>audiolevels</effecttype>
								<mediatype>audio</mediatype>
								<pproBypass>false</pproBypass>
								<parameter authoringApp="PremierePro">
									<parameterid>level</parameterid>
									<name>Level</name>
									<valuemin>0</valuemin>
									<valuemax>3.98109</valuemax>
									<value>0</value>
									<keyframe>
										<when>0</when>
										<value>0</value>
									</keyframe>
									<keyframe>
										<when>19</when>
										<value>0.158489</value>
									</keyframe>
									<keyframe>
										<when>262</when>
										<value>0.158489</value>
									</keyframe>
								</parameter>
							</effect>
						</filter>
						<link>
							<linkclipref>clipitem-1221</linkclipref>
							<mediatype>video</mediatype>
							<trackindex>1</trackindex>
							<clipindex>51</clipindex>
						</link>
						<link>
							<linkclipref>clipitem-1497</linkclipref>
							<mediatype>audio</mediatype>
							<trackindex>3</trackindex>
							<clipindex>13</clipindex>
							<groupindex>1</groupindex>
						</link>
						<link>
							<linkclipref>clipitem-1510</linkclipref>
							<mediatype>audio</mediatype>
							<trackindex>4</trackindex>
							<clipindex>13</clipindex>
							<groupindex>1</groupindex>
						</link>
						<logginginfo>
							<description></description>
							<scene></scene>
							<shottake></shottake>
							<lognote></lognote>
							<good></good>
							<originalvideofilename></originalvideofilename>
							<originalaudiofilename></originalaudiofilename>
						</logginginfo>
						<colorinfo>
							<lut></lut>
							<lut1></lut1>
							<asc_sop></asc_sop>
							<asc_sat></asc_sat>
							<lut2></lut2>
						</colorinfo>
						<labels>
							<label2>Iris</label2>
						</labels>
					</clipitem>
					<enabled>TRUE</enabled>
					<locked>FALSE</locked>
					<outputchannelindex>2</outputchannelindex>
				</track>
				<track TL.SQTrackAudioKeyframeStyle="0" TL.SQTrackShy="0" TL.SQTrackExpandedHeight="15" TL.SQTrackExpanded="0" MZ.TrackTargeted="0" PannerCurrentValue="0.5" PannerIsInverted="true" PannerStartKeyframe="-91445760000000000,0.5,0,0,0,0,0,0" PannerName="Balance" currentExplodedTrackIndex="0" totalExplodedTrackCount="2" premiereTrackType="Stereo">
					<clipitem id="clipitem-1511" premiereChannelType="stereo">
						<masterclipid>masterclip-651</masterclipid>
						<name>SOUND_2021.mp3</name>
						<enabled>TRUE</enabled>
						<duration>45395</duration>
						<rate>
							<timebase>25</timebase>
							<ntsc>FALSE</ntsc>
						</rate>
						<start>262</start>
						<end>742</end>
						<in>1</in>
						<out>481</out>
						<pproTicksIn>10160640000</pproTicksIn>
						<pproTicksOut>4887267840000</pproTicksOut>
						<file id="file-539">
							<name>SOUND_2021.mp3</name>
							<pathurl>file://localhost/Volumes/1Tb/_MUZ_TV/graphika/sound/2021/SOUND_2021.mp3</pathurl>
							<rate>
								<timebase>30</timebase>
								<ntsc>TRUE</ntsc>
							</rate>
							<duration>54420</duration>
							<timecode>
								<rate>
									<timebase>30</timebase>
									<ntsc>TRUE</ntsc>
								</rate>
								<string>00;00;00;00</string>
								<frame>0</frame>
								<displayformat>DF</displayformat>
							</timecode>
							<media>
								<audio>
									<samplecharacteristics>
										<depth>16</depth>
										<samplerate>44100</samplerate>
									</samplecharacteristics>
									<channelcount>2</channelcount>
								</audio>
							</media>
						</file>
						<sourcetrack>
							<mediatype>audio</mediatype>
							<trackindex>1</trackindex>
						</sourcetrack>
						<filter>
							<effect>
								<name>Audio Levels</name>
								<effectid>audiolevels</effectid>
								<effectcategory>audiolevels</effectcategory>
								<effecttype>audiolevels</effecttype>
								<mediatype>audio</mediatype>
								<pproBypass>false</pproBypass>
								<parameter authoringApp="PremierePro">
									<parameterid>level</parameterid>
									<name>Level</name>
									<valuemin>0</valuemin>
									<valuemax>3.98109</valuemax>
									<value>0.177828</value>
								</parameter>
							</effect>
						</filter>
							<marker>
								<comment></comment>
								<name></name>
								<in>0</in>
								<out>-1</out>
							</marker>
							<marker>
								<comment></comment>
								<name></name>
								<in>35404</in>
								<out>-1</out>
							</marker>
							<marker>
								<comment></comment>
								<name></name>
								<in>22388</in>
								<out>-1</out>
							</marker>
							<marker>
								<comment></comment>
								<name></name>
								<in>16790</in>
								<out>-1</out>
							</marker>
							<marker>
								<comment></comment>
								<name></name>
								<in>11832</in>
								<out>-1</out>
							</marker>
							<marker>
								<comment></comment>
								<name></name>
								<in>43475</in>
								<out>-1</out>
							</marker>
							<marker>
								<comment></comment>
								<name></name>
								<in>19163</in>
								<out>-1</out>
							</marker>
							<marker>
								<comment></comment>
								<name></name>
								<in>26248</in>
								<out>-1</out>
							</marker>
							<marker>
								<comment></comment>
								<name></name>
								<in>9861</in>
								<out>-1</out>
							</marker>
							<marker>
								<comment></comment>
								<name></name>
								<in>39699</in>
								<out>-1</out>
							</marker>
							<marker>
								<comment></comment>
								<name></name>
								<in>37815</in>
								<out>-1</out>
							</marker>
							<marker>
								<comment></comment>
								<name></name>
								<in>33007</in>
								<out>-1</out>
							</marker>
							<marker>
								<comment></comment>
								<name></name>
								<in>2059</in>
								<out>-1</out>
							</marker>
							<marker>
								<comment></comment>
								<name></name>
								<in>2</in>
								<out>-1</out>
							</marker>
							<marker>
								<comment></comment>
								<name></name>
								<in>29059</in>
								<out>-1</out>
							</marker>
							<marker>
								<comment></comment>
								<name></name>
								<in>20862</in>
								<out>-1</out>
							</marker>
							<marker>
								<comment></comment>
								<name></name>
								<in>31139</in>
								<out>-1</out>
							</marker>
							<marker>
								<comment></comment>
								<name></name>
								<in>4214</in>
								<out>-1</out>
							</marker>
							<marker>
								<comment></comment>
								<name></name>
								<in>6200</in>
								<out>-1</out>
							</marker>
							<marker>
								<comment></comment>
								<name></name>
								<in>24484</in>
								<out>-1</out>
							</marker>
							<marker>
								<comment></comment>
								<name></name>
								<in>14293</in>
								<out>-1</out>
							</marker>
						<link>
							<linkclipref>clipitem-1511</linkclipref>
							<mediatype>audio</mediatype>
							<trackindex>5</trackindex>
							<clipindex>1</clipindex>
							<groupindex>1</groupindex>
						</link>
						<link>
							<linkclipref>clipitem-1524</linkclipref>
							<mediatype>audio</mediatype>
							<trackindex>6</trackindex>
							<clipindex>1</clipindex>
							<groupindex>1</groupindex>
						</link>
						<logginginfo>
							<description></description>
							<scene></scene>
							<shottake></shottake>
							<lognote></lognote>
							<good></good>
							<originalvideofilename></originalvideofilename>
							<originalaudiofilename></originalaudiofilename>
						</logginginfo>
						<colorinfo>
							<lut></lut>
							<lut1></lut1>
							<asc_sop></asc_sop>
							<asc_sat></asc_sat>
							<lut2></lut2>
						</colorinfo>
						<labels>
							<label2>Rose</label2>
						</labels>
					</clipitem>
					<clipitem id="clipitem-1512" premiereChannelType="stereo">
						<masterclipid>masterclip-651</masterclipid>
						<name>SOUND_2021.mp3</name>
						<enabled>TRUE</enabled>
						<duration>45395</duration>
						<rate>
							<timebase>25</timebase>
							<ntsc>FALSE</ntsc>
						</rate>
						<start>7424</start>
						<end>-1</end>
						<in>2058</in>
						<out>2445</out>
						<pproTicksIn>20910597120000</pproTicksIn>
						<pproTicksOut>24842764800000</pproTicksOut>
						<file id="file-539"/>
						<sourcetrack>
							<mediatype>audio</mediatype>
							<trackindex>1</trackindex>
						</sourcetrack>
						<filter>
							<effect>
								<name>Audio Levels</name>
								<effectid>audiolevels</effectid>
								<effectcategory>audiolevels</effectcategory>
								<effecttype>audiolevels</effecttype>
								<mediatype>audio</mediatype>
								<pproBypass>false</pproBypass>
								<parameter authoringApp="PremierePro">
									<parameterid>level</parameterid>
									<name>Level</name>
									<valuemin>0</valuemin>
									<valuemax>3.98109</valuemax>
									<value>0.177828</value>
								</parameter>
							</effect>
						</filter>
							<marker>
								<comment></comment>
								<name></name>
								<in>0</in>
								<out>-1</out>
							</marker>
							<marker>
								<comment></comment>
								<name></name>
								<in>35404</in>
								<out>-1</out>
							</marker>
							<marker>
								<comment></comment>
								<name></name>
								<in>22388</in>
								<out>-1</out>
							</marker>
							<marker>
								<comment></comment>
								<name></name>
								<in>16790</in>
								<out>-1</out>
							</marker>
							<marker>
								<comment></comment>
								<name></name>
								<in>11832</in>
								<out>-1</out>
							</marker>
							<marker>
								<comment></comment>
								<name></name>
								<in>43475</in>
								<out>-1</out>
							</marker>
							<marker>
								<comment></comment>
								<name></name>
								<in>19163</in>
								<out>-1</out>
							</marker>
							<marker>
								<comment></comment>
								<name></name>
								<in>26248</in>
								<out>-1</out>
							</marker>
							<marker>
								<comment></comment>
								<name></name>
								<in>9861</in>
								<out>-1</out>
							</marker>
							<marker>
								<comment></comment>
								<name></name>
								<in>39699</in>
								<out>-1</out>
							</marker>
							<marker>
								<comment></comment>
								<name></name>
								<in>37815</in>
								<out>-1</out>
							</marker>
							<marker>
								<comment></comment>
								<name></name>
								<in>33007</in>
								<out>-1</out>
							</marker>
							<marker>
								<comment></comment>
								<name></name>
								<in>2059</in>
								<out>-1</out>
							</marker>
							<marker>
								<comment></comment>
								<name></name>
								<in>2</in>
								<out>-1</out>
							</marker>
							<marker>
								<comment></comment>
								<name></name>
								<in>29059</in>
								<out>-1</out>
							</marker>
							<marker>
								<comment></comment>
								<name></name>
								<in>20862</in>
								<out>-1</out>
							</marker>
							<marker>
								<comment></comment>
								<name></name>
								<in>31139</in>
								<out>-1</out>
							</marker>
							<marker>
								<comment></comment>
								<name></name>
								<in>4214</in>
								<out>-1</out>
							</marker>
							<marker>
								<comment></comment>
								<name></name>
								<in>6200</in>
								<out>-1</out>
							</marker>
							<marker>
								<comment></comment>
								<name></name>
								<in>24484</in>
								<out>-1</out>
							</marker>
							<marker>
								<comment></comment>
								<name></name>
								<in>14293</in>
								<out>-1</out>
							</marker>
						<link>
							<linkclipref>clipitem-1512</linkclipref>
							<mediatype>audio</mediatype>
							<trackindex>5</trackindex>
							<clipindex>2</clipindex>
							<groupindex>1</groupindex>
						</link>
						<link>
							<linkclipref>clipitem-1525</linkclipref>
							<mediatype>audio</mediatype>
							<trackindex>6</trackindex>
							<clipindex>2</clipindex>
							<groupindex>1</groupindex>
						</link>
						<logginginfo>
							<description></description>
							<scene></scene>
							<shottake></shottake>
							<lognote></lognote>
							<good></good>
							<originalvideofilename></originalvideofilename>
							<originalaudiofilename></originalaudiofilename>
						</logginginfo>
						<colorinfo>
							<lut></lut>
							<lut1></lut1>
							<asc_sop></asc_sop>
							<asc_sat></asc_sat>
							<lut2></lut2>
						</colorinfo>
						<labels>
							<label2>Rose</label2>
						</labels>
					</clipitem>
					<transitionitem>
						<start>7786</start>
						<end>7811</end>
						<pproTicksIn>79110743040000</pproTicksIn>
						<pproTicksOut>79364759040000</pproTicksOut>
						<alignment>end-black</alignment>
						<cutPointTicks>254016000000</cutPointTicks>
						<rate>
							<timebase>25</timebase>
							<ntsc>FALSE</ntsc>
						</rate>
						<effect>
							<name>Cross Fade (+3dB)</name>
							<effectid>KGAudioTransCrossFade3dB</effectid>
							<effecttype>transition</effecttype>
							<mediatype>audio</mediatype>
							<wipecode>0</wipecode>
							<wipeaccuracy>100</wipeaccuracy>
							<startratio>0</startratio>
							<endratio>1</endratio>
							<reverse>FALSE</reverse>
						</effect>
					</transitionitem>
					<clipitem id="clipitem-1513" premiereChannelType="stereo">
						<masterclipid>masterclip-651</masterclipid>
						<name>SOUND_2021.mp3</name>
						<enabled>TRUE</enabled>
						<duration>45395</duration>
						<rate>
							<timebase>25</timebase>
							<ntsc>FALSE</ntsc>
						</rate>
						<start>13119</start>
						<end>-1</end>
						<in>4213</in>
						<out>4698</out>
						<pproTicksIn>42806776320000</pproTicksIn>
						<pproTicksOut>47734686720000</pproTicksOut>
						<file id="file-539"/>
						<sourcetrack>
							<mediatype>audio</mediatype>
							<trackindex>1</trackindex>
						</sourcetrack>
						<filter>
							<effect>
								<name>Audio Levels</name>
								<effectid>audiolevels</effectid>
								<effectcategory>audiolevels</effectcategory>
								<effecttype>audiolevels</effecttype>
								<mediatype>audio</mediatype>
								<pproBypass>false</pproBypass>
								<parameter authoringApp="PremierePro">
									<parameterid>level</parameterid>
									<name>Level</name>
									<valuemin>0</valuemin>
									<valuemax>3.98109</valuemax>
									<value>0.177828</value>
								</parameter>
							</effect>
						</filter>
							<marker>
								<comment></comment>
								<name></name>
								<in>0</in>
								<out>-1</out>
							</marker>
							<marker>
								<comment></comment>
								<name></name>
								<in>35404</in>
								<out>-1</out>
							</marker>
							<marker>
								<comment></comment>
								<name></name>
								<in>22388</in>
								<out>-1</out>
							</marker>
							<marker>
								<comment></comment>
								<name></name>
								<in>16790</in>
								<out>-1</out>
							</marker>
							<marker>
								<comment></comment>
								<name></name>
								<in>11832</in>
								<out>-1</out>
							</marker>
							<marker>
								<comment></comment>
								<name></name>
								<in>43475</in>
								<out>-1</out>
							</marker>
							<marker>
								<comment></comment>
								<name></name>
								<in>19163</in>
								<out>-1</out>
							</marker>
							<marker>
								<comment></comment>
								<name></name>
								<in>26248</in>
								<out>-1</out>
							</marker>
							<marker>
								<comment></comment>
								<name></name>
								<in>9861</in>
								<out>-1</out>
							</marker>
							<marker>
								<comment></comment>
								<name></name>
								<in>39699</in>
								<out>-1</out>
							</marker>
							<marker>
								<comment></comment>
								<name></name>
								<in>37815</in>
								<out>-1</out>
							</marker>
							<marker>
								<comment></comment>
								<name></name>
								<in>33007</in>
								<out>-1</out>
							</marker>
							<marker>
								<comment></comment>
								<name></name>
								<in>2059</in>
								<out>-1</out>
							</marker>
							<marker>
								<comment></comment>
								<name></name>
								<in>2</in>
								<out>-1</out>
							</marker>
							<marker>
								<comment></comment>
								<name></name>
								<in>29059</in>
								<out>-1</out>
							</marker>
							<marker>
								<comment></comment>
								<name></name>
								<in>20862</in>
								<out>-1</out>
							</marker>
							<marker>
								<comment></comment>
								<name></name>
								<in>31139</in>
								<out>-1</out>
							</marker>
							<marker>
								<comment></comment>
								<name></name>
								<in>4214</in>
								<out>-1</out>
							</marker>
							<marker>
								<comment></comment>
								<name></name>
								<in>6200</in>
								<out>-1</out>
							</marker>
							<marker>
								<comment></comment>
								<name></name>
								<in>24484</in>
								<out>-1</out>
							</marker>
							<marker>
								<comment></comment>
								<name></name>
								<in>14293</in>
								<out>-1</out>
							</marker>
						<link>
							<linkclipref>clipitem-1513</linkclipref>
							<mediatype>audio</mediatype>
							<trackindex>5</trackindex>
							<clipindex>4</clipindex>
							<groupindex>1</groupindex>
						</link>
						<link>
							<linkclipref>clipitem-1526</linkclipref>
							<mediatype>audio</mediatype>
							<trackindex>6</trackindex>
							<clipindex>4</clipindex>
							<groupindex>1</groupindex>
						</link>
						<logginginfo>
							<description></description>
							<scene></scene>
							<shottake></shottake>
							<lognote></lognote>
							<good></good>
							<originalvideofilename></originalvideofilename>
							<originalaudiofilename></originalaudiofilename>
						</logginginfo>
						<colorinfo>
							<lut></lut>
							<lut1></lut1>
							<asc_sop></asc_sop>
							<asc_sat></asc_sat>
							<lut2></lut2>
						</colorinfo>
						<labels>
							<label2>Rose</label2>
						</labels>
					</clipitem>
					<transitionitem>
						<start>13579</start>
						<end>13604</end>
						<pproTicksIn>137971330560000</pproTicksIn>
						<pproTicksOut>138225346560000</pproTicksOut>
						<alignment>end-black</alignment>
						<cutPointTicks>254016000000</cutPointTicks>
						<rate>
							<timebase>25</timebase>
							<ntsc>FALSE</ntsc>
						</rate>
						<effect>
							<name>Cross Fade (+3dB)</name>
							<effectid>KGAudioTransCrossFade3dB</effectid>
							<effecttype>transition</effecttype>
							<mediatype>audio</mediatype>
							<wipecode>0</wipecode>
							<wipeaccuracy>100</wipeaccuracy>
							<startratio>0</startratio>
							<endratio>1</endratio>
							<reverse>FALSE</reverse>
						</effect>
					</transitionitem>
					<clipitem id="clipitem-1514" premiereChannelType="stereo">
						<masterclipid>masterclip-651</masterclipid>
						<name>SOUND_2021.mp3</name>
						<enabled>TRUE</enabled>
						<duration>45395</duration>
						<rate>
							<timebase>25</timebase>
							<ntsc>FALSE</ntsc>
						</rate>
						<start>19225</start>
						<end>-1</end>
						<in>6199</in>
						<out>6800</out>
						<pproTicksIn>62985807360000</pproTicksIn>
						<pproTicksOut>69092352000000</pproTicksOut>
						<file id="file-539"/>
						<sourcetrack>
							<mediatype>audio</mediatype>
							<trackindex>1</trackindex>
						</sourcetrack>
						<filter>
							<effect>
								<name>Audio Levels</name>
								<effectid>audiolevels</effectid>
								<effectcategory>audiolevels</effectcategory>
								<effecttype>audiolevels</effecttype>
								<mediatype>audio</mediatype>
								<pproBypass>false</pproBypass>
								<parameter authoringApp="PremierePro">
									<parameterid>level</parameterid>
									<name>Level</name>
									<valuemin>0</valuemin>
									<valuemax>3.98109</valuemax>
									<value>0.177828</value>
								</parameter>
							</effect>
						</filter>
							<marker>
								<comment></comment>
								<name></name>
								<in>0</in>
								<out>-1</out>
							</marker>
							<marker>
								<comment></comment>
								<name></name>
								<in>35404</in>
								<out>-1</out>
							</marker>
							<marker>
								<comment></comment>
								<name></name>
								<in>22388</in>
								<out>-1</out>
							</marker>
							<marker>
								<comment></comment>
								<name></name>
								<in>16790</in>
								<out>-1</out>
							</marker>
							<marker>
								<comment></comment>
								<name></name>
								<in>11832</in>
								<out>-1</out>
							</marker>
							<marker>
								<comment></comment>
								<name></name>
								<in>43475</in>
								<out>-1</out>
							</marker>
							<marker>
								<comment></comment>
								<name></name>
								<in>19163</in>
								<out>-1</out>
							</marker>
							<marker>
								<comment></comment>
								<name></name>
								<in>26248</in>
								<out>-1</out>
							</marker>
							<marker>
								<comment></comment>
								<name></name>
								<in>9861</in>
								<out>-1</out>
							</marker>
							<marker>
								<comment></comment>
								<name></name>
								<in>39699</in>
								<out>-1</out>
							</marker>
							<marker>
								<comment></comment>
								<name></name>
								<in>37815</in>
								<out>-1</out>
							</marker>
							<marker>
								<comment></comment>
								<name></name>
								<in>33007</in>
								<out>-1</out>
							</marker>
							<marker>
								<comment></comment>
								<name></name>
								<in>2059</in>
								<out>-1</out>
							</marker>
							<marker>
								<comment></comment>
								<name></name>
								<in>2</in>
								<out>-1</out>
							</marker>
							<marker>
								<comment></comment>
								<name></name>
								<in>29059</in>
								<out>-1</out>
							</marker>
							<marker>
								<comment></comment>
								<name></name>
								<in>20862</in>
								<out>-1</out>
							</marker>
							<marker>
								<comment></comment>
								<name></name>
								<in>31139</in>
								<out>-1</out>
							</marker>
							<marker>
								<comment></comment>
								<name></name>
								<in>4214</in>
								<out>-1</out>
							</marker>
							<marker>
								<comment></comment>
								<name></name>
								<in>6200</in>
								<out>-1</out>
							</marker>
							<marker>
								<comment></comment>
								<name></name>
								<in>24484</in>
								<out>-1</out>
							</marker>
							<marker>
								<comment></comment>
								<name></name>
								<in>14293</in>
								<out>-1</out>
							</marker>
						<link>
							<linkclipref>clipitem-1514</linkclipref>
							<mediatype>audio</mediatype>
							<trackindex>5</trackindex>
							<clipindex>6</clipindex>
							<groupindex>1</groupindex>
						</link>
						<link>
							<linkclipref>clipitem-1527</linkclipref>
							<mediatype>audio</mediatype>
							<trackindex>6</trackindex>
							<clipindex>6</clipindex>
							<groupindex>1</groupindex>
						</link>
						<logginginfo>
							<description></description>
							<scene></scene>
							<shottake></shottake>
							<lognote></lognote>
							<good></good>
							<originalvideofilename></originalvideofilename>
							<originalaudiofilename></originalaudiofilename>
						</logginginfo>
						<colorinfo>
							<lut></lut>
							<lut1></lut1>
							<asc_sop></asc_sop>
							<asc_sat></asc_sat>
							<lut2></lut2>
						</colorinfo>
						<labels>
							<label2>Rose</label2>
						</labels>
					</clipitem>
					<transitionitem>
						<start>19801</start>
						<end>19826</end>
						<pproTicksIn>201190832640000</pproTicksIn>
						<pproTicksOut>201444848640000</pproTicksOut>
						<alignment>end-black</alignment>
						<cutPointTicks>254016000000</cutPointTicks>
						<rate>
							<timebase>25</timebase>
							<ntsc>FALSE</ntsc>
						</rate>
						<effect>
							<name>Cross Fade (+3dB)</name>
							<effectid>KGAudioTransCrossFade3dB</effectid>
							<effecttype>transition</effecttype>
							<mediatype>audio</mediatype>
							<wipecode>0</wipecode>
							<wipeaccuracy>100</wipeaccuracy>
							<startratio>0</startratio>
							<endratio>1</endratio>
							<reverse>FALSE</reverse>
						</effect>
					</transitionitem>
					<clipitem id="clipitem-1515" premiereChannelType="stereo">
						<masterclipid>masterclip-651</masterclipid>
						<name>SOUND_2021.mp3</name>
						<enabled>TRUE</enabled>
						<duration>45395</duration>
						<rate>
							<timebase>25</timebase>
							<ntsc>FALSE</ntsc>
						</rate>
						<start>23990</start>
						<end>-1</end>
						<in>9860</in>
						<out>10452</out>
						<pproTicksIn>100183910400000</pproTicksIn>
						<pproTicksOut>106199009280000</pproTicksOut>
						<file id="file-539"/>
						<sourcetrack>
							<mediatype>audio</mediatype>
							<trackindex>1</trackindex>
						</sourcetrack>
						<filter>
							<effect>
								<name>Audio Levels</name>
								<effectid>audiolevels</effectid>
								<effectcategory>audiolevels</effectcategory>
								<effecttype>audiolevels</effecttype>
								<mediatype>audio</mediatype>
								<pproBypass>false</pproBypass>
								<parameter authoringApp="PremierePro">
									<parameterid>level</parameterid>
									<name>Level</name>
									<valuemin>0</valuemin>
									<valuemax>3.98109</valuemax>
									<value>0.177828</value>
								</parameter>
							</effect>
						</filter>
							<marker>
								<comment></comment>
								<name></name>
								<in>0</in>
								<out>-1</out>
							</marker>
							<marker>
								<comment></comment>
								<name></name>
								<in>35404</in>
								<out>-1</out>
							</marker>
							<marker>
								<comment></comment>
								<name></name>
								<in>22388</in>
								<out>-1</out>
							</marker>
							<marker>
								<comment></comment>
								<name></name>
								<in>16790</in>
								<out>-1</out>
							</marker>
							<marker>
								<comment></comment>
								<name></name>
								<in>11832</in>
								<out>-1</out>
							</marker>
							<marker>
								<comment></comment>
								<name></name>
								<in>43475</in>
								<out>-1</out>
							</marker>
							<marker>
								<comment></comment>
								<name></name>
								<in>19163</in>
								<out>-1</out>
							</marker>
							<marker>
								<comment></comment>
								<name></name>
								<in>26248</in>
								<out>-1</out>
							</marker>
							<marker>
								<comment></comment>
								<name></name>
								<in>9861</in>
								<out>-1</out>
							</marker>
							<marker>
								<comment></comment>
								<name></name>
								<in>39699</in>
								<out>-1</out>
							</marker>
							<marker>
								<comment></comment>
								<name></name>
								<in>37815</in>
								<out>-1</out>
							</marker>
							<marker>
								<comment></comment>
								<name></name>
								<in>33007</in>
								<out>-1</out>
							</marker>
							<marker>
								<comment></comment>
								<name></name>
								<in>2059</in>
								<out>-1</out>
							</marker>
							<marker>
								<comment></comment>
								<name></name>
								<in>2</in>
								<out>-1</out>
							</marker>
							<marker>
								<comment></comment>
								<name></name>
								<in>29059</in>
								<out>-1</out>
							</marker>
							<marker>
								<comment></comment>
								<name></name>
								<in>20862</in>
								<out>-1</out>
							</marker>
							<marker>
								<comment></comment>
								<name></name>
								<in>31139</in>
								<out>-1</out>
							</marker>
							<marker>
								<comment></comment>
								<name></name>
								<in>4214</in>
								<out>-1</out>
							</marker>
							<marker>
								<comment></comment>
								<name></name>
								<in>6200</in>
								<out>-1</out>
							</marker>
							<marker>
								<comment></comment>
								<name></name>
								<in>24484</in>
								<out>-1</out>
							</marker>
							<marker>
								<comment></comment>
								<name></name>
								<in>14293</in>
								<out>-1</out>
							</marker>
						<link>
							<linkclipref>clipitem-1515</linkclipref>
							<mediatype>audio</mediatype>
							<trackindex>5</trackindex>
							<clipindex>8</clipindex>
							<groupindex>1</groupindex>
						</link>
						<link>
							<linkclipref>clipitem-1528</linkclipref>
							<mediatype>audio</mediatype>
							<trackindex>6</trackindex>
							<clipindex>8</clipindex>
							<groupindex>1</groupindex>
						</link>
						<logginginfo>
							<description></description>
							<scene></scene>
							<shottake></shottake>
							<lognote></lognote>
							<good></good>
							<originalvideofilename></originalvideofilename>
							<originalaudiofilename></originalaudiofilename>
						</logginginfo>
						<colorinfo>
							<lut></lut>
							<lut1></lut1>
							<asc_sop></asc_sop>
							<asc_sat></asc_sat>
							<lut2></lut2>
						</colorinfo>
						<labels>
							<label2>Rose</label2>
						</labels>
					</clipitem>
					<transitionitem>
						<start>24557</start>
						<end>24582</end>
						<pproTicksIn>249514836480000</pproTicksIn>
						<pproTicksOut>249768852480000</pproTicksOut>
						<alignment>end-black</alignment>
						<cutPointTicks>254016000000</cutPointTicks>
						<rate>
							<timebase>25</timebase>
							<ntsc>FALSE</ntsc>
						</rate>
						<effect>
							<name>Cross Fade (+3dB)</name>
							<effectid>KGAudioTransCrossFade3dB</effectid>
							<effecttype>transition</effecttype>
							<mediatype>audio</mediatype>
							<wipecode>0</wipecode>
							<wipeaccuracy>100</wipeaccuracy>
							<startratio>0</startratio>
							<endratio>1</endratio>
							<reverse>FALSE</reverse>
						</effect>
					</transitionitem>
					<clipitem id="clipitem-1516" premiereChannelType="stereo">
						<masterclipid>masterclip-651</masterclipid>
						<name>SOUND_2021.mp3</name>
						<enabled>TRUE</enabled>
						<duration>45395</duration>
						<rate>
							<timebase>25</timebase>
							<ntsc>FALSE</ntsc>
						</rate>
						<start>29109</start>
						<end>-1</end>
						<in>16789</in>
						<out>17394</out>
						<pproTicksIn>170586984960000</pproTicksIn>
						<pproTicksOut>176734172160000</pproTicksOut>
						<file id="file-539"/>
						<sourcetrack>
							<mediatype>audio</mediatype>
							<trackindex>1</trackindex>
						</sourcetrack>
						<filter>
							<effect>
								<name>Audio Levels</name>
								<effectid>audiolevels</effectid>
								<effectcategory>audiolevels</effectcategory>
								<effecttype>audiolevels</effecttype>
								<mediatype>audio</mediatype>
								<pproBypass>false</pproBypass>
								<parameter authoringApp="PremierePro">
									<parameterid>level</parameterid>
									<name>Level</name>
									<valuemin>0</valuemin>
									<valuemax>3.98109</valuemax>
									<value>0.177828</value>
								</parameter>
							</effect>
						</filter>
							<marker>
								<comment></comment>
								<name></name>
								<in>0</in>
								<out>-1</out>
							</marker>
							<marker>
								<comment></comment>
								<name></name>
								<in>35404</in>
								<out>-1</out>
							</marker>
							<marker>
								<comment></comment>
								<name></name>
								<in>22388</in>
								<out>-1</out>
							</marker>
							<marker>
								<comment></comment>
								<name></name>
								<in>16790</in>
								<out>-1</out>
							</marker>
							<marker>
								<comment></comment>
								<name></name>
								<in>11832</in>
								<out>-1</out>
							</marker>
							<marker>
								<comment></comment>
								<name></name>
								<in>43475</in>
								<out>-1</out>
							</marker>
							<marker>
								<comment></comment>
								<name></name>
								<in>19163</in>
								<out>-1</out>
							</marker>
							<marker>
								<comment></comment>
								<name></name>
								<in>26248</in>
								<out>-1</out>
							</marker>
							<marker>
								<comment></comment>
								<name></name>
								<in>9861</in>
								<out>-1</out>
							</marker>
							<marker>
								<comment></comment>
								<name></name>
								<in>39699</in>
								<out>-1</out>
							</marker>
							<marker>
								<comment></comment>
								<name></name>
								<in>37815</in>
								<out>-1</out>
							</marker>
							<marker>
								<comment></comment>
								<name></name>
								<in>33007</in>
								<out>-1</out>
							</marker>
							<marker>
								<comment></comment>
								<name></name>
								<in>2059</in>
								<out>-1</out>
							</marker>
							<marker>
								<comment></comment>
								<name></name>
								<in>2</in>
								<out>-1</out>
							</marker>
							<marker>
								<comment></comment>
								<name></name>
								<in>29059</in>
								<out>-1</out>
							</marker>
							<marker>
								<comment></comment>
								<name></name>
								<in>20862</in>
								<out>-1</out>
							</marker>
							<marker>
								<comment></comment>
								<name></name>
								<in>31139</in>
								<out>-1</out>
							</marker>
							<marker>
								<comment></comment>
								<name></name>
								<in>4214</in>
								<out>-1</out>
							</marker>
							<marker>
								<comment></comment>
								<name></name>
								<in>6200</in>
								<out>-1</out>
							</marker>
							<marker>
								<comment></comment>
								<name></name>
								<in>24484</in>
								<out>-1</out>
							</marker>
							<marker>
								<comment></comment>
								<name></name>
								<in>14293</in>
								<out>-1</out>
							</marker>
						<link>
							<linkclipref>clipitem-1516</linkclipref>
							<mediatype>audio</mediatype>
							<trackindex>5</trackindex>
							<clipindex>10</clipindex>
							<groupindex>1</groupindex>
						</link>
						<link>
							<linkclipref>clipitem-1529</linkclipref>
							<mediatype>audio</mediatype>
							<trackindex>6</trackindex>
							<clipindex>10</clipindex>
							<groupindex>1</groupindex>
						</link>
						<logginginfo>
							<description></description>
							<scene></scene>
							<shottake></shottake>
							<lognote></lognote>
							<good></good>
							<originalvideofilename></originalvideofilename>
							<originalaudiofilename></originalaudiofilename>
						</logginginfo>
						<colorinfo>
							<lut></lut>
							<lut1></lut1>
							<asc_sop></asc_sop>
							<asc_sat></asc_sat>
							<lut2></lut2>
						</colorinfo>
						<labels>
							<label2>Rose</label2>
						</labels>
					</clipitem>
					<transitionitem>
						<start>29689</start>
						<end>29714</end>
						<pproTicksIn>301659240960000</pproTicksIn>
						<pproTicksOut>301913256960000</pproTicksOut>
						<alignment>end-black</alignment>
						<cutPointTicks>254016000000</cutPointTicks>
						<rate>
							<timebase>25</timebase>
							<ntsc>FALSE</ntsc>
						</rate>
						<effect>
							<name>Cross Fade (+3dB)</name>
							<effectid>KGAudioTransCrossFade3dB</effectid>
							<effecttype>transition</effecttype>
							<mediatype>audio</mediatype>
							<wipecode>0</wipecode>
							<wipeaccuracy>100</wipeaccuracy>
							<startratio>0</startratio>
							<endratio>1</endratio>
							<reverse>FALSE</reverse>
						</effect>
					</transitionitem>
					<clipitem id="clipitem-1517" premiereChannelType="stereo">
						<masterclipid>masterclip-651</masterclipid>
						<name>SOUND_2021.mp3</name>
						<enabled>TRUE</enabled>
						<duration>45395</duration>
						<rate>
							<timebase>25</timebase>
							<ntsc>FALSE</ntsc>
						</rate>
						<start>34647</start>
						<end>-1</end>
						<in>19162</in>
						<out>19681</out>
						<pproTicksIn>194698183680000</pproTicksIn>
						<pproTicksOut>199971555840000</pproTicksOut>
						<file id="file-539"/>
						<sourcetrack>
							<mediatype>audio</mediatype>
							<trackindex>1</trackindex>
						</sourcetrack>
						<filter>
							<effect>
								<name>Audio Levels</name>
								<effectid>audiolevels</effectid>
								<effectcategory>audiolevels</effectcategory>
								<effecttype>audiolevels</effecttype>
								<mediatype>audio</mediatype>
								<pproBypass>false</pproBypass>
								<parameter authoringApp="PremierePro">
									<parameterid>level</parameterid>
									<name>Level</name>
									<valuemin>0</valuemin>
									<valuemax>3.98109</valuemax>
									<value>0.177828</value>
								</parameter>
							</effect>
						</filter>
							<marker>
								<comment></comment>
								<name></name>
								<in>0</in>
								<out>-1</out>
							</marker>
							<marker>
								<comment></comment>
								<name></name>
								<in>35404</in>
								<out>-1</out>
							</marker>
							<marker>
								<comment></comment>
								<name></name>
								<in>22388</in>
								<out>-1</out>
							</marker>
							<marker>
								<comment></comment>
								<name></name>
								<in>16790</in>
								<out>-1</out>
							</marker>
							<marker>
								<comment></comment>
								<name></name>
								<in>11832</in>
								<out>-1</out>
							</marker>
							<marker>
								<comment></comment>
								<name></name>
								<in>43475</in>
								<out>-1</out>
							</marker>
							<marker>
								<comment></comment>
								<name></name>
								<in>19163</in>
								<out>-1</out>
							</marker>
							<marker>
								<comment></comment>
								<name></name>
								<in>26248</in>
								<out>-1</out>
							</marker>
							<marker>
								<comment></comment>
								<name></name>
								<in>9861</in>
								<out>-1</out>
							</marker>
							<marker>
								<comment></comment>
								<name></name>
								<in>39699</in>
								<out>-1</out>
							</marker>
							<marker>
								<comment></comment>
								<name></name>
								<in>37815</in>
								<out>-1</out>
							</marker>
							<marker>
								<comment></comment>
								<name></name>
								<in>33007</in>
								<out>-1</out>
							</marker>
							<marker>
								<comment></comment>
								<name></name>
								<in>2059</in>
								<out>-1</out>
							</marker>
							<marker>
								<comment></comment>
								<name></name>
								<in>2</in>
								<out>-1</out>
							</marker>
							<marker>
								<comment></comment>
								<name></name>
								<in>29059</in>
								<out>-1</out>
							</marker>
							<marker>
								<comment></comment>
								<name></name>
								<in>20862</in>
								<out>-1</out>
							</marker>
							<marker>
								<comment></comment>
								<name></name>
								<in>31139</in>
								<out>-1</out>
							</marker>
							<marker>
								<comment></comment>
								<name></name>
								<in>4214</in>
								<out>-1</out>
							</marker>
							<marker>
								<comment></comment>
								<name></name>
								<in>6200</in>
								<out>-1</out>
							</marker>
							<marker>
								<comment></comment>
								<name></name>
								<in>24484</in>
								<out>-1</out>
							</marker>
							<marker>
								<comment></comment>
								<name></name>
								<in>14293</in>
								<out>-1</out>
							</marker>
						<link>
							<linkclipref>clipitem-1517</linkclipref>
							<mediatype>audio</mediatype>
							<trackindex>5</trackindex>
							<clipindex>12</clipindex>
							<groupindex>1</groupindex>
						</link>
						<link>
							<linkclipref>clipitem-1530</linkclipref>
							<mediatype>audio</mediatype>
							<trackindex>6</trackindex>
							<clipindex>12</clipindex>
							<groupindex>1</groupindex>
						</link>
						<logginginfo>
							<description></description>
							<scene></scene>
							<shottake></shottake>
							<lognote></lognote>
							<good></good>
							<originalvideofilename></originalvideofilename>
							<originalaudiofilename></originalaudiofilename>
						</logginginfo>
						<colorinfo>
							<lut></lut>
							<lut1></lut1>
							<asc_sop></asc_sop>
							<asc_sat></asc_sat>
							<lut2></lut2>
						</colorinfo>
						<labels>
							<label2>Rose</label2>
						</labels>
					</clipitem>
					<transitionitem>
						<start>35141</start>
						<end>35166</end>
						<pproTicksIn>357055050240000</pproTicksIn>
						<pproTicksOut>357309066240000</pproTicksOut>
						<alignment>end-black</alignment>
						<cutPointTicks>254016000000</cutPointTicks>
						<rate>
							<timebase>25</timebase>
							<ntsc>FALSE</ntsc>
						</rate>
						<effect>
							<name>Cross Fade (+3dB)</name>
							<effectid>KGAudioTransCrossFade3dB</effectid>
							<effecttype>transition</effecttype>
							<mediatype>audio</mediatype>
							<wipecode>0</wipecode>
							<wipeaccuracy>100</wipeaccuracy>
							<startratio>0</startratio>
							<endratio>1</endratio>
							<reverse>FALSE</reverse>
						</effect>
					</transitionitem>
					<clipitem id="clipitem-1518" premiereChannelType="stereo">
						<masterclipid>masterclip-651</masterclipid>
						<name>SOUND_2021.mp3</name>
						<enabled>TRUE</enabled>
						<duration>45395</duration>
						<rate>
							<timebase>25</timebase>
							<ntsc>FALSE</ntsc>
						</rate>
						<start>40675</start>
						<end>-1</end>
						<in>22387</in>
						<out>22830</out>
						<pproTicksIn>227466247680000</pproTicksIn>
						<pproTicksOut>231967411200000</pproTicksOut>
						<file id="file-539"/>
						<sourcetrack>
							<mediatype>audio</mediatype>
							<trackindex>1</trackindex>
						</sourcetrack>
						<filter>
							<effect>
								<name>Audio Levels</name>
								<effectid>audiolevels</effectid>
								<effectcategory>audiolevels</effectcategory>
								<effecttype>audiolevels</effecttype>
								<mediatype>audio</mediatype>
								<pproBypass>false</pproBypass>
								<parameter authoringApp="PremierePro">
									<parameterid>level</parameterid>
									<name>Level</name>
									<valuemin>0</valuemin>
									<valuemax>3.98109</valuemax>
									<value>0.177828</value>
								</parameter>
							</effect>
						</filter>
							<marker>
								<comment></comment>
								<name></name>
								<in>0</in>
								<out>-1</out>
							</marker>
							<marker>
								<comment></comment>
								<name></name>
								<in>35404</in>
								<out>-1</out>
							</marker>
							<marker>
								<comment></comment>
								<name></name>
								<in>22388</in>
								<out>-1</out>
							</marker>
							<marker>
								<comment></comment>
								<name></name>
								<in>16790</in>
								<out>-1</out>
							</marker>
							<marker>
								<comment></comment>
								<name></name>
								<in>11832</in>
								<out>-1</out>
							</marker>
							<marker>
								<comment></comment>
								<name></name>
								<in>43475</in>
								<out>-1</out>
							</marker>
							<marker>
								<comment></comment>
								<name></name>
								<in>19163</in>
								<out>-1</out>
							</marker>
							<marker>
								<comment></comment>
								<name></name>
								<in>26248</in>
								<out>-1</out>
							</marker>
							<marker>
								<comment></comment>
								<name></name>
								<in>9861</in>
								<out>-1</out>
							</marker>
							<marker>
								<comment></comment>
								<name></name>
								<in>39699</in>
								<out>-1</out>
							</marker>
							<marker>
								<comment></comment>
								<name></name>
								<in>37815</in>
								<out>-1</out>
							</marker>
							<marker>
								<comment></comment>
								<name></name>
								<in>33007</in>
								<out>-1</out>
							</marker>
							<marker>
								<comment></comment>
								<name></name>
								<in>2059</in>
								<out>-1</out>
							</marker>
							<marker>
								<comment></comment>
								<name></name>
								<in>2</in>
								<out>-1</out>
							</marker>
							<marker>
								<comment></comment>
								<name></name>
								<in>29059</in>
								<out>-1</out>
							</marker>
							<marker>
								<comment></comment>
								<name></name>
								<in>20862</in>
								<out>-1</out>
							</marker>
							<marker>
								<comment></comment>
								<name></name>
								<in>31139</in>
								<out>-1</out>
							</marker>
							<marker>
								<comment></comment>
								<name></name>
								<in>4214</in>
								<out>-1</out>
							</marker>
							<marker>
								<comment></comment>
								<name></name>
								<in>6200</in>
								<out>-1</out>
							</marker>
							<marker>
								<comment></comment>
								<name></name>
								<in>24484</in>
								<out>-1</out>
							</marker>
							<marker>
								<comment></comment>
								<name></name>
								<in>14293</in>
								<out>-1</out>
							</marker>
						<link>
							<linkclipref>clipitem-1518</linkclipref>
							<mediatype>audio</mediatype>
							<trackindex>5</trackindex>
							<clipindex>14</clipindex>
							<groupindex>1</groupindex>
						</link>
						<link>
							<linkclipref>clipitem-1531</linkclipref>
							<mediatype>audio</mediatype>
							<trackindex>6</trackindex>
							<clipindex>14</clipindex>
							<groupindex>1</groupindex>
						</link>
						<logginginfo>
							<description></description>
							<scene></scene>
							<shottake></shottake>
							<lognote></lognote>
							<good></good>
							<originalvideofilename></originalvideofilename>
							<originalaudiofilename></originalaudiofilename>
						</logginginfo>
						<colorinfo>
							<lut></lut>
							<lut1></lut1>
							<asc_sop></asc_sop>
							<asc_sat></asc_sat>
							<lut2></lut2>
						</colorinfo>
						<labels>
							<label2>Rose</label2>
						</labels>
					</clipitem>
					<transitionitem>
						<start>41093</start>
						<end>41118</end>
						<pproTicksIn>417531179520000</pproTicksIn>
						<pproTicksOut>417785195520000</pproTicksOut>
						<alignment>end-black</alignment>
						<cutPointTicks>254016000000</cutPointTicks>
						<rate>
							<timebase>25</timebase>
							<ntsc>FALSE</ntsc>
						</rate>
						<effect>
							<name>Cross Fade (+3dB)</name>
							<effectid>KGAudioTransCrossFade3dB</effectid>
							<effecttype>transition</effecttype>
							<mediatype>audio</mediatype>
							<wipecode>0</wipecode>
							<wipeaccuracy>100</wipeaccuracy>
							<startratio>0</startratio>
							<endratio>1</endratio>
							<reverse>FALSE</reverse>
						</effect>
					</transitionitem>
					<clipitem id="clipitem-1519" premiereChannelType="stereo">
						<masterclipid>masterclip-651</masterclipid>
						<name>SOUND_2021.mp3</name>
						<enabled>TRUE</enabled>
						<duration>45395</duration>
						<rate>
							<timebase>25</timebase>
							<ntsc>FALSE</ntsc>
						</rate>
						<start>44223</start>
						<end>-1</end>
						<in>11831</in>
						<out>12462</out>
						<pproTicksIn>120210531840000</pproTicksIn>
						<pproTicksOut>126621895680000</pproTicksOut>
						<file id="file-539"/>
						<sourcetrack>
							<mediatype>audio</mediatype>
							<trackindex>1</trackindex>
						</sourcetrack>
						<filter>
							<effect>
								<name>Audio Levels</name>
								<effectid>audiolevels</effectid>
								<effectcategory>audiolevels</effectcategory>
								<effecttype>audiolevels</effecttype>
								<mediatype>audio</mediatype>
								<pproBypass>false</pproBypass>
								<parameter authoringApp="PremierePro">
									<parameterid>level</parameterid>
									<name>Level</name>
									<valuemin>0</valuemin>
									<valuemax>3.98109</valuemax>
									<value>0.177828</value>
								</parameter>
							</effect>
						</filter>
							<marker>
								<comment></comment>
								<name></name>
								<in>0</in>
								<out>-1</out>
							</marker>
							<marker>
								<comment></comment>
								<name></name>
								<in>35404</in>
								<out>-1</out>
							</marker>
							<marker>
								<comment></comment>
								<name></name>
								<in>22388</in>
								<out>-1</out>
							</marker>
							<marker>
								<comment></comment>
								<name></name>
								<in>16790</in>
								<out>-1</out>
							</marker>
							<marker>
								<comment></comment>
								<name></name>
								<in>11832</in>
								<out>-1</out>
							</marker>
							<marker>
								<comment></comment>
								<name></name>
								<in>43475</in>
								<out>-1</out>
							</marker>
							<marker>
								<comment></comment>
								<name></name>
								<in>19163</in>
								<out>-1</out>
							</marker>
							<marker>
								<comment></comment>
								<name></name>
								<in>26248</in>
								<out>-1</out>
							</marker>
							<marker>
								<comment></comment>
								<name></name>
								<in>9861</in>
								<out>-1</out>
							</marker>
							<marker>
								<comment></comment>
								<name></name>
								<in>39699</in>
								<out>-1</out>
							</marker>
							<marker>
								<comment></comment>
								<name></name>
								<in>37815</in>
								<out>-1</out>
							</marker>
							<marker>
								<comment></comment>
								<name></name>
								<in>33007</in>
								<out>-1</out>
							</marker>
							<marker>
								<comment></comment>
								<name></name>
								<in>2059</in>
								<out>-1</out>
							</marker>
							<marker>
								<comment></comment>
								<name></name>
								<in>2</in>
								<out>-1</out>
							</marker>
							<marker>
								<comment></comment>
								<name></name>
								<in>29059</in>
								<out>-1</out>
							</marker>
							<marker>
								<comment></comment>
								<name></name>
								<in>20862</in>
								<out>-1</out>
							</marker>
							<marker>
								<comment></comment>
								<name></name>
								<in>31139</in>
								<out>-1</out>
							</marker>
							<marker>
								<comment></comment>
								<name></name>
								<in>4214</in>
								<out>-1</out>
							</marker>
							<marker>
								<comment></comment>
								<name></name>
								<in>6200</in>
								<out>-1</out>
							</marker>
							<marker>
								<comment></comment>
								<name></name>
								<in>24484</in>
								<out>-1</out>
							</marker>
							<marker>
								<comment></comment>
								<name></name>
								<in>14293</in>
								<out>-1</out>
							</marker>
						<link>
							<linkclipref>clipitem-1519</linkclipref>
							<mediatype>audio</mediatype>
							<trackindex>5</trackindex>
							<clipindex>16</clipindex>
							<groupindex>1</groupindex>
						</link>
						<link>
							<linkclipref>clipitem-1532</linkclipref>
							<mediatype>audio</mediatype>
							<trackindex>6</trackindex>
							<clipindex>16</clipindex>
							<groupindex>1</groupindex>
						</link>
						<logginginfo>
							<description></description>
							<scene></scene>
							<shottake></shottake>
							<lognote></lognote>
							<good></good>
							<originalvideofilename></originalvideofilename>
							<originalaudiofilename></originalaudiofilename>
						</logginginfo>
						<colorinfo>
							<lut></lut>
							<lut1></lut1>
							<asc_sop></asc_sop>
							<asc_sat></asc_sat>
							<lut2></lut2>
						</colorinfo>
						<labels>
							<label2>Rose</label2>
						</labels>
					</clipitem>
					<transitionitem>
						<start>44829</start>
						<end>44854</end>
						<pproTicksIn>455491330560000</pproTicksIn>
						<pproTicksOut>455745346560000</pproTicksOut>
						<alignment>end-black</alignment>
						<cutPointTicks>254016000000</cutPointTicks>
						<rate>
							<timebase>25</timebase>
							<ntsc>FALSE</ntsc>
						</rate>
						<effect>
							<name>Cross Fade (+3dB)</name>
							<effectid>KGAudioTransCrossFade3dB</effectid>
							<effecttype>transition</effecttype>
							<mediatype>audio</mediatype>
							<wipecode>0</wipecode>
							<wipeaccuracy>100</wipeaccuracy>
							<startratio>0</startratio>
							<endratio>1</endratio>
							<reverse>FALSE</reverse>
						</effect>
					</transitionitem>
					<clipitem id="clipitem-1520" premiereChannelType="stereo">
						<masterclipid>masterclip-651</masterclipid>
						<name>SOUND_2021.mp3</name>
						<enabled>TRUE</enabled>
						<duration>45395</duration>
						<rate>
							<timebase>25</timebase>
							<ntsc>FALSE</ntsc>
						</rate>
						<start>49076</start>
						<end>-1</end>
						<in>20861</in>
						<out>21354</out>
						<pproTicksIn>211961111040000</pproTicksIn>
						<pproTicksOut>216970306560000</pproTicksOut>
						<file id="file-539"/>
						<sourcetrack>
							<mediatype>audio</mediatype>
							<trackindex>1</trackindex>
						</sourcetrack>
						<filter>
							<effect>
								<name>Audio Levels</name>
								<effectid>audiolevels</effectid>
								<effectcategory>audiolevels</effectcategory>
								<effecttype>audiolevels</effecttype>
								<mediatype>audio</mediatype>
								<pproBypass>false</pproBypass>
								<parameter authoringApp="PremierePro">
									<parameterid>level</parameterid>
									<name>Level</name>
									<valuemin>0</valuemin>
									<valuemax>3.98109</valuemax>
									<value>0.177828</value>
								</parameter>
							</effect>
						</filter>
							<marker>
								<comment></comment>
								<name></name>
								<in>0</in>
								<out>-1</out>
							</marker>
							<marker>
								<comment></comment>
								<name></name>
								<in>35404</in>
								<out>-1</out>
							</marker>
							<marker>
								<comment></comment>
								<name></name>
								<in>22388</in>
								<out>-1</out>
							</marker>
							<marker>
								<comment></comment>
								<name></name>
								<in>16790</in>
								<out>-1</out>
							</marker>
							<marker>
								<comment></comment>
								<name></name>
								<in>11832</in>
								<out>-1</out>
							</marker>
							<marker>
								<comment></comment>
								<name></name>
								<in>43475</in>
								<out>-1</out>
							</marker>
							<marker>
								<comment></comment>
								<name></name>
								<in>19163</in>
								<out>-1</out>
							</marker>
							<marker>
								<comment></comment>
								<name></name>
								<in>26248</in>
								<out>-1</out>
							</marker>
							<marker>
								<comment></comment>
								<name></name>
								<in>9861</in>
								<out>-1</out>
							</marker>
							<marker>
								<comment></comment>
								<name></name>
								<in>39699</in>
								<out>-1</out>
							</marker>
							<marker>
								<comment></comment>
								<name></name>
								<in>37815</in>
								<out>-1</out>
							</marker>
							<marker>
								<comment></comment>
								<name></name>
								<in>33007</in>
								<out>-1</out>
							</marker>
							<marker>
								<comment></comment>
								<name></name>
								<in>2059</in>
								<out>-1</out>
							</marker>
							<marker>
								<comment></comment>
								<name></name>
								<in>2</in>
								<out>-1</out>
							</marker>
							<marker>
								<comment></comment>
								<name></name>
								<in>29059</in>
								<out>-1</out>
							</marker>
							<marker>
								<comment></comment>
								<name></name>
								<in>20862</in>
								<out>-1</out>
							</marker>
							<marker>
								<comment></comment>
								<name></name>
								<in>31139</in>
								<out>-1</out>
							</marker>
							<marker>
								<comment></comment>
								<name></name>
								<in>4214</in>
								<out>-1</out>
							</marker>
							<marker>
								<comment></comment>
								<name></name>
								<in>6200</in>
								<out>-1</out>
							</marker>
							<marker>
								<comment></comment>
								<name></name>
								<in>24484</in>
								<out>-1</out>
							</marker>
							<marker>
								<comment></comment>
								<name></name>
								<in>14293</in>
								<out>-1</out>
							</marker>
						<link>
							<linkclipref>clipitem-1520</linkclipref>
							<mediatype>audio</mediatype>
							<trackindex>5</trackindex>
							<clipindex>18</clipindex>
							<groupindex>1</groupindex>
						</link>
						<link>
							<linkclipref>clipitem-1533</linkclipref>
							<mediatype>audio</mediatype>
							<trackindex>6</trackindex>
							<clipindex>18</clipindex>
							<groupindex>1</groupindex>
						</link>
						<logginginfo>
							<description></description>
							<scene></scene>
							<shottake></shottake>
							<lognote></lognote>
							<good></good>
							<originalvideofilename></originalvideofilename>
							<originalaudiofilename></originalaudiofilename>
						</logginginfo>
						<colorinfo>
							<lut></lut>
							<lut1></lut1>
							<asc_sop></asc_sop>
							<asc_sat></asc_sat>
							<lut2></lut2>
						</colorinfo>
						<labels>
							<label2>Rose</label2>
						</labels>
					</clipitem>
					<transitionitem>
						<start>49544</start>
						<end>49569</end>
						<pproTicksIn>503398748160000</pproTicksIn>
						<pproTicksOut>503652764160000</pproTicksOut>
						<alignment>end-black</alignment>
						<cutPointTicks>254016000000</cutPointTicks>
						<rate>
							<timebase>25</timebase>
							<ntsc>FALSE</ntsc>
						</rate>
						<effect>
							<name>Cross Fade (+3dB)</name>
							<effectid>KGAudioTransCrossFade3dB</effectid>
							<effecttype>transition</effecttype>
							<mediatype>audio</mediatype>
							<wipecode>0</wipecode>
							<wipeaccuracy>100</wipeaccuracy>
							<startratio>0</startratio>
							<endratio>1</endratio>
							<reverse>FALSE</reverse>
						</effect>
					</transitionitem>
					<clipitem id="clipitem-1521" premiereChannelType="stereo">
						<masterclipid>masterclip-651</masterclipid>
						<name>SOUND_2021.mp3</name>
						<enabled>TRUE</enabled>
						<duration>45395</duration>
						<rate>
							<timebase>25</timebase>
							<ntsc>FALSE</ntsc>
						</rate>
						<start>55218</start>
						<end>-1</end>
						<in>14292</in>
						<out>14887</out>
						<pproTicksIn>145215866880000</pproTicksIn>
						<pproTicksOut>151261447680000</pproTicksOut>
						<file id="file-539"/>
						<sourcetrack>
							<mediatype>audio</mediatype>
							<trackindex>1</trackindex>
						</sourcetrack>
						<filter>
							<effect>
								<name>Audio Levels</name>
								<effectid>audiolevels</effectid>
								<effectcategory>audiolevels</effectcategory>
								<effecttype>audiolevels</effecttype>
								<mediatype>audio</mediatype>
								<pproBypass>false</pproBypass>
								<parameter authoringApp="PremierePro">
									<parameterid>level</parameterid>
									<name>Level</name>
									<valuemin>0</valuemin>
									<valuemax>3.98109</valuemax>
									<value>0.177828</value>
								</parameter>
							</effect>
						</filter>
							<marker>
								<comment></comment>
								<name></name>
								<in>0</in>
								<out>-1</out>
							</marker>
							<marker>
								<comment></comment>
								<name></name>
								<in>35404</in>
								<out>-1</out>
							</marker>
							<marker>
								<comment></comment>
								<name></name>
								<in>22388</in>
								<out>-1</out>
							</marker>
							<marker>
								<comment></comment>
								<name></name>
								<in>16790</in>
								<out>-1</out>
							</marker>
							<marker>
								<comment></comment>
								<name></name>
								<in>11832</in>
								<out>-1</out>
							</marker>
							<marker>
								<comment></comment>
								<name></name>
								<in>43475</in>
								<out>-1</out>
							</marker>
							<marker>
								<comment></comment>
								<name></name>
								<in>19163</in>
								<out>-1</out>
							</marker>
							<marker>
								<comment></comment>
								<name></name>
								<in>26248</in>
								<out>-1</out>
							</marker>
							<marker>
								<comment></comment>
								<name></name>
								<in>9861</in>
								<out>-1</out>
							</marker>
							<marker>
								<comment></comment>
								<name></name>
								<in>39699</in>
								<out>-1</out>
							</marker>
							<marker>
								<comment></comment>
								<name></name>
								<in>37815</in>
								<out>-1</out>
							</marker>
							<marker>
								<comment></comment>
								<name></name>
								<in>33007</in>
								<out>-1</out>
							</marker>
							<marker>
								<comment></comment>
								<name></name>
								<in>2059</in>
								<out>-1</out>
							</marker>
							<marker>
								<comment></comment>
								<name></name>
								<in>2</in>
								<out>-1</out>
							</marker>
							<marker>
								<comment></comment>
								<name></name>
								<in>29059</in>
								<out>-1</out>
							</marker>
							<marker>
								<comment></comment>
								<name></name>
								<in>20862</in>
								<out>-1</out>
							</marker>
							<marker>
								<comment></comment>
								<name></name>
								<in>31139</in>
								<out>-1</out>
							</marker>
							<marker>
								<comment></comment>
								<name></name>
								<in>4214</in>
								<out>-1</out>
							</marker>
							<marker>
								<comment></comment>
								<name></name>
								<in>6200</in>
								<out>-1</out>
							</marker>
							<marker>
								<comment></comment>
								<name></name>
								<in>24484</in>
								<out>-1</out>
							</marker>
							<marker>
								<comment></comment>
								<name></name>
								<in>14293</in>
								<out>-1</out>
							</marker>
						<link>
							<linkclipref>clipitem-1521</linkclipref>
							<mediatype>audio</mediatype>
							<trackindex>5</trackindex>
							<clipindex>20</clipindex>
							<groupindex>1</groupindex>
						</link>
						<link>
							<linkclipref>clipitem-1534</linkclipref>
							<mediatype>audio</mediatype>
							<trackindex>6</trackindex>
							<clipindex>20</clipindex>
							<groupindex>1</groupindex>
						</link>
						<logginginfo>
							<description></description>
							<scene></scene>
							<shottake></shottake>
							<lognote></lognote>
							<good></good>
							<originalvideofilename></originalvideofilename>
							<originalaudiofilename></originalaudiofilename>
						</logginginfo>
						<colorinfo>
							<lut></lut>
							<lut1></lut1>
							<asc_sop></asc_sop>
							<asc_sat></asc_sat>
							<lut2></lut2>
						</colorinfo>
						<labels>
							<label2>Rose</label2>
						</labels>
					</clipitem>
					<transitionitem>
						<start>55788</start>
						<end>55813</end>
						<pproTicksIn>566841784320000</pproTicksIn>
						<pproTicksOut>567095800320000</pproTicksOut>
						<alignment>end-black</alignment>
						<cutPointTicks>254016000000</cutPointTicks>
						<rate>
							<timebase>25</timebase>
							<ntsc>FALSE</ntsc>
						</rate>
						<effect>
							<name>Cross Fade (+3dB)</name>
							<effectid>KGAudioTransCrossFade3dB</effectid>
							<effecttype>transition</effecttype>
							<mediatype>audio</mediatype>
							<wipecode>0</wipecode>
							<wipeaccuracy>100</wipeaccuracy>
							<startratio>0</startratio>
							<endratio>1</endratio>
							<reverse>FALSE</reverse>
						</effect>
					</transitionitem>
					<clipitem id="clipitem-1522" premiereChannelType="stereo">
						<masterclipid>masterclip-651</masterclipid>
						<name>SOUND_2021.mp3</name>
						<enabled>TRUE</enabled>
						<duration>45395</duration>
						<rate>
							<timebase>25</timebase>
							<ntsc>FALSE</ntsc>
						</rate>
						<start>60871</start>
						<end>-1</end>
						<in>24483</in>
						<out>24977</out>
						<pproTicksIn>248762949120000</pproTicksIn>
						<pproTicksOut>253782305280000</pproTicksOut>
						<file id="file-539"/>
						<sourcetrack>
							<mediatype>audio</mediatype>
							<trackindex>1</trackindex>
						</sourcetrack>
						<filter>
							<effect>
								<name>Audio Levels</name>
								<effectid>audiolevels</effectid>
								<effectcategory>audiolevels</effectcategory>
								<effecttype>audiolevels</effecttype>
								<mediatype>audio</mediatype>
								<pproBypass>false</pproBypass>
								<parameter authoringApp="PremierePro">
									<parameterid>level</parameterid>
									<name>Level</name>
									<valuemin>0</valuemin>
									<valuemax>3.98109</valuemax>
									<value>0.177828</value>
								</parameter>
							</effect>
						</filter>
							<marker>
								<comment></comment>
								<name></name>
								<in>0</in>
								<out>-1</out>
							</marker>
							<marker>
								<comment></comment>
								<name></name>
								<in>35404</in>
								<out>-1</out>
							</marker>
							<marker>
								<comment></comment>
								<name></name>
								<in>22388</in>
								<out>-1</out>
							</marker>
							<marker>
								<comment></comment>
								<name></name>
								<in>16790</in>
								<out>-1</out>
							</marker>
							<marker>
								<comment></comment>
								<name></name>
								<in>11832</in>
								<out>-1</out>
							</marker>
							<marker>
								<comment></comment>
								<name></name>
								<in>43475</in>
								<out>-1</out>
							</marker>
							<marker>
								<comment></comment>
								<name></name>
								<in>19163</in>
								<out>-1</out>
							</marker>
							<marker>
								<comment></comment>
								<name></name>
								<in>26248</in>
								<out>-1</out>
							</marker>
							<marker>
								<comment></comment>
								<name></name>
								<in>9861</in>
								<out>-1</out>
							</marker>
							<marker>
								<comment></comment>
								<name></name>
								<in>39699</in>
								<out>-1</out>
							</marker>
							<marker>
								<comment></comment>
								<name></name>
								<in>37815</in>
								<out>-1</out>
							</marker>
							<marker>
								<comment></comment>
								<name></name>
								<in>33007</in>
								<out>-1</out>
							</marker>
							<marker>
								<comment></comment>
								<name></name>
								<in>2059</in>
								<out>-1</out>
							</marker>
							<marker>
								<comment></comment>
								<name></name>
								<in>2</in>
								<out>-1</out>
							</marker>
							<marker>
								<comment></comment>
								<name></name>
								<in>29059</in>
								<out>-1</out>
							</marker>
							<marker>
								<comment></comment>
								<name></name>
								<in>20862</in>
								<out>-1</out>
							</marker>
							<marker>
								<comment></comment>
								<name></name>
								<in>31139</in>
								<out>-1</out>
							</marker>
							<marker>
								<comment></comment>
								<name></name>
								<in>4214</in>
								<out>-1</out>
							</marker>
							<marker>
								<comment></comment>
								<name></name>
								<in>6200</in>
								<out>-1</out>
							</marker>
							<marker>
								<comment></comment>
								<name></name>
								<in>24484</in>
								<out>-1</out>
							</marker>
							<marker>
								<comment></comment>
								<name></name>
								<in>14293</in>
								<out>-1</out>
							</marker>
						<link>
							<linkclipref>clipitem-1522</linkclipref>
							<mediatype>audio</mediatype>
							<trackindex>5</trackindex>
							<clipindex>22</clipindex>
							<groupindex>1</groupindex>
						</link>
						<link>
							<linkclipref>clipitem-1535</linkclipref>
							<mediatype>audio</mediatype>
							<trackindex>6</trackindex>
							<clipindex>22</clipindex>
							<groupindex>1</groupindex>
						</link>
						<logginginfo>
							<description></description>
							<scene></scene>
							<shottake></shottake>
							<lognote></lognote>
							<good></good>
							<originalvideofilename></originalvideofilename>
							<originalaudiofilename></originalaudiofilename>
						</logginginfo>
						<colorinfo>
							<lut></lut>
							<lut1></lut1>
							<asc_sop></asc_sop>
							<asc_sat></asc_sat>
							<lut2></lut2>
						</colorinfo>
						<labels>
							<label2>Rose</label2>
						</labels>
					</clipitem>
					<transitionitem>
						<start>61340</start>
						<end>61365</end>
						<pproTicksIn>623253657600000</pproTicksIn>
						<pproTicksOut>623507673600000</pproTicksOut>
						<alignment>end-black</alignment>
						<cutPointTicks>254016000000</cutPointTicks>
						<rate>
							<timebase>25</timebase>
							<ntsc>FALSE</ntsc>
						</rate>
						<effect>
							<name>Cross Fade (+3dB)</name>
							<effectid>KGAudioTransCrossFade3dB</effectid>
							<effecttype>transition</effecttype>
							<mediatype>audio</mediatype>
							<wipecode>0</wipecode>
							<wipeaccuracy>100</wipeaccuracy>
							<startratio>0</startratio>
							<endratio>1</endratio>
							<reverse>FALSE</reverse>
						</effect>
					</transitionitem>
					<clipitem id="clipitem-1523" premiereChannelType="stereo">
						<masterclipid>masterclip-651</masterclipid>
						<name>SOUND_2021.mp3</name>
						<enabled>TRUE</enabled>
						<duration>45395</duration>
						<rate>
							<timebase>25</timebase>
							<ntsc>FALSE</ntsc>
						</rate>
						<start>65385</start>
						<end>-1</end>
						<in>26247</in>
						<out>26602</out>
						<pproTicksIn>266686318080000</pproTicksIn>
						<pproTicksOut>270293345280000</pproTicksOut>
						<file id="file-539"/>
						<sourcetrack>
							<mediatype>audio</mediatype>
							<trackindex>1</trackindex>
						</sourcetrack>
						<filter>
							<effect>
								<name>Audio Levels</name>
								<effectid>audiolevels</effectid>
								<effectcategory>audiolevels</effectcategory>
								<effecttype>audiolevels</effecttype>
								<mediatype>audio</mediatype>
								<pproBypass>false</pproBypass>
								<parameter authoringApp="PremierePro">
									<parameterid>level</parameterid>
									<name>Level</name>
									<valuemin>0</valuemin>
									<valuemax>3.98109</valuemax>
									<value>0.177828</value>
								</parameter>
							</effect>
						</filter>
							<marker>
								<comment></comment>
								<name></name>
								<in>0</in>
								<out>-1</out>
							</marker>
							<marker>
								<comment></comment>
								<name></name>
								<in>35404</in>
								<out>-1</out>
							</marker>
							<marker>
								<comment></comment>
								<name></name>
								<in>22388</in>
								<out>-1</out>
							</marker>
							<marker>
								<comment></comment>
								<name></name>
								<in>16790</in>
								<out>-1</out>
							</marker>
							<marker>
								<comment></comment>
								<name></name>
								<in>11832</in>
								<out>-1</out>
							</marker>
							<marker>
								<comment></comment>
								<name></name>
								<in>43475</in>
								<out>-1</out>
							</marker>
							<marker>
								<comment></comment>
								<name></name>
								<in>19163</in>
								<out>-1</out>
							</marker>
							<marker>
								<comment></comment>
								<name></name>
								<in>26248</in>
								<out>-1</out>
							</marker>
							<marker>
								<comment></comment>
								<name></name>
								<in>9861</in>
								<out>-1</out>
							</marker>
							<marker>
								<comment></comment>
								<name></name>
								<in>39699</in>
								<out>-1</out>
							</marker>
							<marker>
								<comment></comment>
								<name></name>
								<in>37815</in>
								<out>-1</out>
							</marker>
							<marker>
								<comment></comment>
								<name></name>
								<in>33007</in>
								<out>-1</out>
							</marker>
							<marker>
								<comment></comment>
								<name></name>
								<in>2059</in>
								<out>-1</out>
							</marker>
							<marker>
								<comment></comment>
								<name></name>
								<in>2</in>
								<out>-1</out>
							</marker>
							<marker>
								<comment></comment>
								<name></name>
								<in>29059</in>
								<out>-1</out>
							</marker>
							<marker>
								<comment></comment>
								<name></name>
								<in>20862</in>
								<out>-1</out>
							</marker>
							<marker>
								<comment></comment>
								<name></name>
								<in>31139</in>
								<out>-1</out>
							</marker>
							<marker>
								<comment></comment>
								<name></name>
								<in>4214</in>
								<out>-1</out>
							</marker>
							<marker>
								<comment></comment>
								<name></name>
								<in>6200</in>
								<out>-1</out>
							</marker>
							<marker>
								<comment></comment>
								<name></name>
								<in>24484</in>
								<out>-1</out>
							</marker>
							<marker>
								<comment></comment>
								<name></name>
								<in>14293</in>
								<out>-1</out>
							</marker>
						<link>
							<linkclipref>clipitem-1523</linkclipref>
							<mediatype>audio</mediatype>
							<trackindex>5</trackindex>
							<clipindex>24</clipindex>
							<groupindex>1</groupindex>
						</link>
						<link>
							<linkclipref>clipitem-1536</linkclipref>
							<mediatype>audio</mediatype>
							<trackindex>6</trackindex>
							<clipindex>24</clipindex>
							<groupindex>1</groupindex>
						</link>
						<logginginfo>
							<description></description>
							<scene></scene>
							<shottake></shottake>
							<lognote></lognote>
							<good></good>
							<originalvideofilename></originalvideofilename>
							<originalaudiofilename></originalaudiofilename>
						</logginginfo>
						<colorinfo>
							<lut></lut>
							<lut1></lut1>
							<asc_sop></asc_sop>
							<asc_sat></asc_sat>
							<lut2></lut2>
						</colorinfo>
						<labels>
							<label2>Rose</label2>
						</labels>
					</clipitem>
					<transitionitem>
						<start>65715</start>
						<end>65740</end>
						<pproTicksIn>667706457600000</pproTicksIn>
						<pproTicksOut>667960473600000</pproTicksOut>
						<alignment>end-black</alignment>
						<cutPointTicks>254016000000</cutPointTicks>
						<rate>
							<timebase>25</timebase>
							<ntsc>FALSE</ntsc>
						</rate>
						<effect>
							<name>Cross Fade (+3dB)</name>
							<effectid>KGAudioTransCrossFade3dB</effectid>
							<effecttype>transition</effecttype>
							<mediatype>audio</mediatype>
							<wipecode>0</wipecode>
							<wipeaccuracy>100</wipeaccuracy>
							<startratio>0</startratio>
							<endratio>1</endratio>
							<reverse>FALSE</reverse>
						</effect>
					</transitionitem>
					<enabled>TRUE</enabled>
					<locked>FALSE</locked>
					<outputchannelindex>1</outputchannelindex>
				</track>
				<track TL.SQTrackAudioKeyframeStyle="0" TL.SQTrackShy="0" TL.SQTrackExpandedHeight="15" TL.SQTrackExpanded="0" MZ.TrackTargeted="0" PannerCurrentValue="0.5" PannerIsInverted="true" PannerStartKeyframe="-91445760000000000,0.5,0,0,0,0,0,0" PannerName="Balance" currentExplodedTrackIndex="1" totalExplodedTrackCount="2" premiereTrackType="Stereo">
					<clipitem id="clipitem-1524" premiereChannelType="stereo">
						<masterclipid>masterclip-651</masterclipid>
						<name>SOUND_2021.mp3</name>
						<enabled>TRUE</enabled>
						<duration>45395</duration>
						<rate>
							<timebase>25</timebase>
							<ntsc>FALSE</ntsc>
						</rate>
						<start>262</start>
						<end>742</end>
						<in>1</in>
						<out>481</out>
						<pproTicksIn>10160640000</pproTicksIn>
						<pproTicksOut>4887267840000</pproTicksOut>
						<file id="file-539"/>
						<sourcetrack>
							<mediatype>audio</mediatype>
							<trackindex>2</trackindex>
						</sourcetrack>
						<filter>
							<effect>
								<name>Audio Levels</name>
								<effectid>audiolevels</effectid>
								<effectcategory>audiolevels</effectcategory>
								<effecttype>audiolevels</effecttype>
								<mediatype>audio</mediatype>
								<pproBypass>false</pproBypass>
								<parameter authoringApp="PremierePro">
									<parameterid>level</parameterid>
									<name>Level</name>
									<valuemin>0</valuemin>
									<valuemax>3.98109</valuemax>
									<value>0.177828</value>
								</parameter>
							</effect>
						</filter>
							<marker>
								<comment></comment>
								<name></name>
								<in>0</in>
								<out>-1</out>
							</marker>
							<marker>
								<comment></comment>
								<name></name>
								<in>35404</in>
								<out>-1</out>
							</marker>
							<marker>
								<comment></comment>
								<name></name>
								<in>22388</in>
								<out>-1</out>
							</marker>
							<marker>
								<comment></comment>
								<name></name>
								<in>16790</in>
								<out>-1</out>
							</marker>
							<marker>
								<comment></comment>
								<name></name>
								<in>11832</in>
								<out>-1</out>
							</marker>
							<marker>
								<comment></comment>
								<name></name>
								<in>43475</in>
								<out>-1</out>
							</marker>
							<marker>
								<comment></comment>
								<name></name>
								<in>19163</in>
								<out>-1</out>
							</marker>
							<marker>
								<comment></comment>
								<name></name>
								<in>26248</in>
								<out>-1</out>
							</marker>
							<marker>
								<comment></comment>
								<name></name>
								<in>9861</in>
								<out>-1</out>
							</marker>
							<marker>
								<comment></comment>
								<name></name>
								<in>39699</in>
								<out>-1</out>
							</marker>
							<marker>
								<comment></comment>
								<name></name>
								<in>37815</in>
								<out>-1</out>
							</marker>
							<marker>
								<comment></comment>
								<name></name>
								<in>33007</in>
								<out>-1</out>
							</marker>
							<marker>
								<comment></comment>
								<name></name>
								<in>2059</in>
								<out>-1</out>
							</marker>
							<marker>
								<comment></comment>
								<name></name>
								<in>2</in>
								<out>-1</out>
							</marker>
							<marker>
								<comment></comment>
								<name></name>
								<in>29059</in>
								<out>-1</out>
							</marker>
							<marker>
								<comment></comment>
								<name></name>
								<in>20862</in>
								<out>-1</out>
							</marker>
							<marker>
								<comment></comment>
								<name></name>
								<in>31139</in>
								<out>-1</out>
							</marker>
							<marker>
								<comment></comment>
								<name></name>
								<in>4214</in>
								<out>-1</out>
							</marker>
							<marker>
								<comment></comment>
								<name></name>
								<in>6200</in>
								<out>-1</out>
							</marker>
							<marker>
								<comment></comment>
								<name></name>
								<in>24484</in>
								<out>-1</out>
							</marker>
							<marker>
								<comment></comment>
								<name></name>
								<in>14293</in>
								<out>-1</out>
							</marker>
						<link>
							<linkclipref>clipitem-1511</linkclipref>
							<mediatype>audio</mediatype>
							<trackindex>5</trackindex>
							<clipindex>1</clipindex>
							<groupindex>1</groupindex>
						</link>
						<link>
							<linkclipref>clipitem-1524</linkclipref>
							<mediatype>audio</mediatype>
							<trackindex>6</trackindex>
							<clipindex>1</clipindex>
							<groupindex>1</groupindex>
						</link>
						<logginginfo>
							<description></description>
							<scene></scene>
							<shottake></shottake>
							<lognote></lognote>
							<good></good>
							<originalvideofilename></originalvideofilename>
							<originalaudiofilename></originalaudiofilename>
						</logginginfo>
						<colorinfo>
							<lut></lut>
							<lut1></lut1>
							<asc_sop></asc_sop>
							<asc_sat></asc_sat>
							<lut2></lut2>
						</colorinfo>
						<labels>
							<label2>Rose</label2>
						</labels>
					</clipitem>
					<clipitem id="clipitem-1525" premiereChannelType="stereo">
						<masterclipid>masterclip-651</masterclipid>
						<name>SOUND_2021.mp3</name>
						<enabled>TRUE</enabled>
						<duration>45395</duration>
						<rate>
							<timebase>25</timebase>
							<ntsc>FALSE</ntsc>
						</rate>
						<start>7424</start>
						<end>-1</end>
						<in>2058</in>
						<out>2445</out>
						<pproTicksIn>20910597120000</pproTicksIn>
						<pproTicksOut>24842764800000</pproTicksOut>
						<file id="file-539"/>
						<sourcetrack>
							<mediatype>audio</mediatype>
							<trackindex>2</trackindex>
						</sourcetrack>
						<filter>
							<effect>
								<name>Audio Levels</name>
								<effectid>audiolevels</effectid>
								<effectcategory>audiolevels</effectcategory>
								<effecttype>audiolevels</effecttype>
								<mediatype>audio</mediatype>
								<pproBypass>false</pproBypass>
								<parameter authoringApp="PremierePro">
									<parameterid>level</parameterid>
									<name>Level</name>
									<valuemin>0</valuemin>
									<valuemax>3.98109</valuemax>
									<value>0.177828</value>
								</parameter>
							</effect>
						</filter>
							<marker>
								<comment></comment>
								<name></name>
								<in>0</in>
								<out>-1</out>
							</marker>
							<marker>
								<comment></comment>
								<name></name>
								<in>35404</in>
								<out>-1</out>
							</marker>
							<marker>
								<comment></comment>
								<name></name>
								<in>22388</in>
								<out>-1</out>
							</marker>
							<marker>
								<comment></comment>
								<name></name>
								<in>16790</in>
								<out>-1</out>
							</marker>
							<marker>
								<comment></comment>
								<name></name>
								<in>11832</in>
								<out>-1</out>
							</marker>
							<marker>
								<comment></comment>
								<name></name>
								<in>43475</in>
								<out>-1</out>
							</marker>
							<marker>
								<comment></comment>
								<name></name>
								<in>19163</in>
								<out>-1</out>
							</marker>
							<marker>
								<comment></comment>
								<name></name>
								<in>26248</in>
								<out>-1</out>
							</marker>
							<marker>
								<comment></comment>
								<name></name>
								<in>9861</in>
								<out>-1</out>
							</marker>
							<marker>
								<comment></comment>
								<name></name>
								<in>39699</in>
								<out>-1</out>
							</marker>
							<marker>
								<comment></comment>
								<name></name>
								<in>37815</in>
								<out>-1</out>
							</marker>
							<marker>
								<comment></comment>
								<name></name>
								<in>33007</in>
								<out>-1</out>
							</marker>
							<marker>
								<comment></comment>
								<name></name>
								<in>2059</in>
								<out>-1</out>
							</marker>
							<marker>
								<comment></comment>
								<name></name>
								<in>2</in>
								<out>-1</out>
							</marker>
							<marker>
								<comment></comment>
								<name></name>
								<in>29059</in>
								<out>-1</out>
							</marker>
							<marker>
								<comment></comment>
								<name></name>
								<in>20862</in>
								<out>-1</out>
							</marker>
							<marker>
								<comment></comment>
								<name></name>
								<in>31139</in>
								<out>-1</out>
							</marker>
							<marker>
								<comment></comment>
								<name></name>
								<in>4214</in>
								<out>-1</out>
							</marker>
							<marker>
								<comment></comment>
								<name></name>
								<in>6200</in>
								<out>-1</out>
							</marker>
							<marker>
								<comment></comment>
								<name></name>
								<in>24484</in>
								<out>-1</out>
							</marker>
							<marker>
								<comment></comment>
								<name></name>
								<in>14293</in>
								<out>-1</out>
							</marker>
						<link>
							<linkclipref>clipitem-1512</linkclipref>
							<mediatype>audio</mediatype>
							<trackindex>5</trackindex>
							<clipindex>2</clipindex>
							<groupindex>1</groupindex>
						</link>
						<link>
							<linkclipref>clipitem-1525</linkclipref>
							<mediatype>audio</mediatype>
							<trackindex>6</trackindex>
							<clipindex>2</clipindex>
							<groupindex>1</groupindex>
						</link>
						<logginginfo>
							<description></description>
							<scene></scene>
							<shottake></shottake>
							<lognote></lognote>
							<good></good>
							<originalvideofilename></originalvideofilename>
							<originalaudiofilename></originalaudiofilename>
						</logginginfo>
						<colorinfo>
							<lut></lut>
							<lut1></lut1>
							<asc_sop></asc_sop>
							<asc_sat></asc_sat>
							<lut2></lut2>
						</colorinfo>
						<labels>
							<label2>Rose</label2>
						</labels>
					</clipitem>
					<transitionitem>
						<start>7786</start>
						<end>7811</end>
						<pproTicksIn>79110743040000</pproTicksIn>
						<pproTicksOut>79364759040000</pproTicksOut>
						<alignment>end-black</alignment>
						<cutPointTicks>254016000000</cutPointTicks>
						<rate>
							<timebase>25</timebase>
							<ntsc>FALSE</ntsc>
						</rate>
						<effect>
							<name>Cross Fade (+3dB)</name>
							<effectid>KGAudioTransCrossFade3dB</effectid>
							<effecttype>transition</effecttype>
							<mediatype>audio</mediatype>
							<wipecode>0</wipecode>
							<wipeaccuracy>100</wipeaccuracy>
							<startratio>0</startratio>
							<endratio>1</endratio>
							<reverse>FALSE</reverse>
						</effect>
					</transitionitem>
					<clipitem id="clipitem-1526" premiereChannelType="stereo">
						<masterclipid>masterclip-651</masterclipid>
						<name>SOUND_2021.mp3</name>
						<enabled>TRUE</enabled>
						<duration>45395</duration>
						<rate>
							<timebase>25</timebase>
							<ntsc>FALSE</ntsc>
						</rate>
						<start>13119</start>
						<end>-1</end>
						<in>4213</in>
						<out>4698</out>
						<pproTicksIn>42806776320000</pproTicksIn>
						<pproTicksOut>47734686720000</pproTicksOut>
						<file id="file-539"/>
						<sourcetrack>
							<mediatype>audio</mediatype>
							<trackindex>2</trackindex>
						</sourcetrack>
						<filter>
							<effect>
								<name>Audio Levels</name>
								<effectid>audiolevels</effectid>
								<effectcategory>audiolevels</effectcategory>
								<effecttype>audiolevels</effecttype>
								<mediatype>audio</mediatype>
								<pproBypass>false</pproBypass>
								<parameter authoringApp="PremierePro">
									<parameterid>level</parameterid>
									<name>Level</name>
									<valuemin>0</valuemin>
									<valuemax>3.98109</valuemax>
									<value>0.177828</value>
								</parameter>
							</effect>
						</filter>
							<marker>
								<comment></comment>
								<name></name>
								<in>0</in>
								<out>-1</out>
							</marker>
							<marker>
								<comment></comment>
								<name></name>
								<in>35404</in>
								<out>-1</out>
							</marker>
							<marker>
								<comment></comment>
								<name></name>
								<in>22388</in>
								<out>-1</out>
							</marker>
							<marker>
								<comment></comment>
								<name></name>
								<in>16790</in>
								<out>-1</out>
							</marker>
							<marker>
								<comment></comment>
								<name></name>
								<in>11832</in>
								<out>-1</out>
							</marker>
							<marker>
								<comment></comment>
								<name></name>
								<in>43475</in>
								<out>-1</out>
							</marker>
							<marker>
								<comment></comment>
								<name></name>
								<in>19163</in>
								<out>-1</out>
							</marker>
							<marker>
								<comment></comment>
								<name></name>
								<in>26248</in>
								<out>-1</out>
							</marker>
							<marker>
								<comment></comment>
								<name></name>
								<in>9861</in>
								<out>-1</out>
							</marker>
							<marker>
								<comment></comment>
								<name></name>
								<in>39699</in>
								<out>-1</out>
							</marker>
							<marker>
								<comment></comment>
								<name></name>
								<in>37815</in>
								<out>-1</out>
							</marker>
							<marker>
								<comment></comment>
								<name></name>
								<in>33007</in>
								<out>-1</out>
							</marker>
							<marker>
								<comment></comment>
								<name></name>
								<in>2059</in>
								<out>-1</out>
							</marker>
							<marker>
								<comment></comment>
								<name></name>
								<in>2</in>
								<out>-1</out>
							</marker>
							<marker>
								<comment></comment>
								<name></name>
								<in>29059</in>
								<out>-1</out>
							</marker>
							<marker>
								<comment></comment>
								<name></name>
								<in>20862</in>
								<out>-1</out>
							</marker>
							<marker>
								<comment></comment>
								<name></name>
								<in>31139</in>
								<out>-1</out>
							</marker>
							<marker>
								<comment></comment>
								<name></name>
								<in>4214</in>
								<out>-1</out>
							</marker>
							<marker>
								<comment></comment>
								<name></name>
								<in>6200</in>
								<out>-1</out>
							</marker>
							<marker>
								<comment></comment>
								<name></name>
								<in>24484</in>
								<out>-1</out>
							</marker>
							<marker>
								<comment></comment>
								<name></name>
								<in>14293</in>
								<out>-1</out>
							</marker>
						<link>
							<linkclipref>clipitem-1513</linkclipref>
							<mediatype>audio</mediatype>
							<trackindex>5</trackindex>
							<clipindex>4</clipindex>
							<groupindex>1</groupindex>
						</link>
						<link>
							<linkclipref>clipitem-1526</linkclipref>
							<mediatype>audio</mediatype>
							<trackindex>6</trackindex>
							<clipindex>4</clipindex>
							<groupindex>1</groupindex>
						</link>
						<logginginfo>
							<description></description>
							<scene></scene>
							<shottake></shottake>
							<lognote></lognote>
							<good></good>
							<originalvideofilename></originalvideofilename>
							<originalaudiofilename></originalaudiofilename>
						</logginginfo>
						<colorinfo>
							<lut></lut>
							<lut1></lut1>
							<asc_sop></asc_sop>
							<asc_sat></asc_sat>
							<lut2></lut2>
						</colorinfo>
						<labels>
							<label2>Rose</label2>
						</labels>
					</clipitem>
					<transitionitem>
						<start>13579</start>
						<end>13604</end>
						<pproTicksIn>137971330560000</pproTicksIn>
						<pproTicksOut>138225346560000</pproTicksOut>
						<alignment>end-black</alignment>
						<cutPointTicks>254016000000</cutPointTicks>
						<rate>
							<timebase>25</timebase>
							<ntsc>FALSE</ntsc>
						</rate>
						<effect>
							<name>Cross Fade (+3dB)</name>
							<effectid>KGAudioTransCrossFade3dB</effectid>
							<effecttype>transition</effecttype>
							<mediatype>audio</mediatype>
							<wipecode>0</wipecode>
							<wipeaccuracy>100</wipeaccuracy>
							<startratio>0</startratio>
							<endratio>1</endratio>
							<reverse>FALSE</reverse>
						</effect>
					</transitionitem>
					<clipitem id="clipitem-1527" premiereChannelType="stereo">
						<masterclipid>masterclip-651</masterclipid>
						<name>SOUND_2021.mp3</name>
						<enabled>TRUE</enabled>
						<duration>45395</duration>
						<rate>
							<timebase>25</timebase>
							<ntsc>FALSE</ntsc>
						</rate>
						<start>19225</start>
						<end>-1</end>
						<in>6199</in>
						<out>6800</out>
						<pproTicksIn>62985807360000</pproTicksIn>
						<pproTicksOut>69092352000000</pproTicksOut>
						<file id="file-539"/>
						<sourcetrack>
							<mediatype>audio</mediatype>
							<trackindex>2</trackindex>
						</sourcetrack>
						<filter>
							<effect>
								<name>Audio Levels</name>
								<effectid>audiolevels</effectid>
								<effectcategory>audiolevels</effectcategory>
								<effecttype>audiolevels</effecttype>
								<mediatype>audio</mediatype>
								<pproBypass>false</pproBypass>
								<parameter authoringApp="PremierePro">
									<parameterid>level</parameterid>
									<name>Level</name>
									<valuemin>0</valuemin>
									<valuemax>3.98109</valuemax>
									<value>0.177828</value>
								</parameter>
							</effect>
						</filter>
							<marker>
								<comment></comment>
								<name></name>
								<in>0</in>
								<out>-1</out>
							</marker>
							<marker>
								<comment></comment>
								<name></name>
								<in>35404</in>
								<out>-1</out>
							</marker>
							<marker>
								<comment></comment>
								<name></name>
								<in>22388</in>
								<out>-1</out>
							</marker>
							<marker>
								<comment></comment>
								<name></name>
								<in>16790</in>
								<out>-1</out>
							</marker>
							<marker>
								<comment></comment>
								<name></name>
								<in>11832</in>
								<out>-1</out>
							</marker>
							<marker>
								<comment></comment>
								<name></name>
								<in>43475</in>
								<out>-1</out>
							</marker>
							<marker>
								<comment></comment>
								<name></name>
								<in>19163</in>
								<out>-1</out>
							</marker>
							<marker>
								<comment></comment>
								<name></name>
								<in>26248</in>
								<out>-1</out>
							</marker>
							<marker>
								<comment></comment>
								<name></name>
								<in>9861</in>
								<out>-1</out>
							</marker>
							<marker>
								<comment></comment>
								<name></name>
								<in>39699</in>
								<out>-1</out>
							</marker>
							<marker>
								<comment></comment>
								<name></name>
								<in>37815</in>
								<out>-1</out>
							</marker>
							<marker>
								<comment></comment>
								<name></name>
								<in>33007</in>
								<out>-1</out>
							</marker>
							<marker>
								<comment></comment>
								<name></name>
								<in>2059</in>
								<out>-1</out>
							</marker>
							<marker>
								<comment></comment>
								<name></name>
								<in>2</in>
								<out>-1</out>
							</marker>
							<marker>
								<comment></comment>
								<name></name>
								<in>29059</in>
								<out>-1</out>
							</marker>
							<marker>
								<comment></comment>
								<name></name>
								<in>20862</in>
								<out>-1</out>
							</marker>
							<marker>
								<comment></comment>
								<name></name>
								<in>31139</in>
								<out>-1</out>
							</marker>
							<marker>
								<comment></comment>
								<name></name>
								<in>4214</in>
								<out>-1</out>
							</marker>
							<marker>
								<comment></comment>
								<name></name>
								<in>6200</in>
								<out>-1</out>
							</marker>
							<marker>
								<comment></comment>
								<name></name>
								<in>24484</in>
								<out>-1</out>
							</marker>
							<marker>
								<comment></comment>
								<name></name>
								<in>14293</in>
								<out>-1</out>
							</marker>
						<link>
							<linkclipref>clipitem-1514</linkclipref>
							<mediatype>audio</mediatype>
							<trackindex>5</trackindex>
							<clipindex>6</clipindex>
							<groupindex>1</groupindex>
						</link>
						<link>
							<linkclipref>clipitem-1527</linkclipref>
							<mediatype>audio</mediatype>
							<trackindex>6</trackindex>
							<clipindex>6</clipindex>
							<groupindex>1</groupindex>
						</link>
						<logginginfo>
							<description></description>
							<scene></scene>
							<shottake></shottake>
							<lognote></lognote>
							<good></good>
							<originalvideofilename></originalvideofilename>
							<originalaudiofilename></originalaudiofilename>
						</logginginfo>
						<colorinfo>
							<lut></lut>
							<lut1></lut1>
							<asc_sop></asc_sop>
							<asc_sat></asc_sat>
							<lut2></lut2>
						</colorinfo>
						<labels>
							<label2>Rose</label2>
						</labels>
					</clipitem>
					<transitionitem>
						<start>19801</start>
						<end>19826</end>
						<pproTicksIn>201190832640000</pproTicksIn>
						<pproTicksOut>201444848640000</pproTicksOut>
						<alignment>end-black</alignment>
						<cutPointTicks>254016000000</cutPointTicks>
						<rate>
							<timebase>25</timebase>
							<ntsc>FALSE</ntsc>
						</rate>
						<effect>
							<name>Cross Fade (+3dB)</name>
							<effectid>KGAudioTransCrossFade3dB</effectid>
							<effecttype>transition</effecttype>
							<mediatype>audio</mediatype>
							<wipecode>0</wipecode>
							<wipeaccuracy>100</wipeaccuracy>
							<startratio>0</startratio>
							<endratio>1</endratio>
							<reverse>FALSE</reverse>
						</effect>
					</transitionitem>
					<clipitem id="clipitem-1528" premiereChannelType="stereo">
						<masterclipid>masterclip-651</masterclipid>
						<name>SOUND_2021.mp3</name>
						<enabled>TRUE</enabled>
						<duration>45395</duration>
						<rate>
							<timebase>25</timebase>
							<ntsc>FALSE</ntsc>
						</rate>
						<start>23990</start>
						<end>-1</end>
						<in>9860</in>
						<out>10452</out>
						<pproTicksIn>100183910400000</pproTicksIn>
						<pproTicksOut>106199009280000</pproTicksOut>
						<file id="file-539"/>
						<sourcetrack>
							<mediatype>audio</mediatype>
							<trackindex>2</trackindex>
						</sourcetrack>
						<filter>
							<effect>
								<name>Audio Levels</name>
								<effectid>audiolevels</effectid>
								<effectcategory>audiolevels</effectcategory>
								<effecttype>audiolevels</effecttype>
								<mediatype>audio</mediatype>
								<pproBypass>false</pproBypass>
								<parameter authoringApp="PremierePro">
									<parameterid>level</parameterid>
									<name>Level</name>
									<valuemin>0</valuemin>
									<valuemax>3.98109</valuemax>
									<value>0.177828</value>
								</parameter>
							</effect>
						</filter>
							<marker>
								<comment></comment>
								<name></name>
								<in>0</in>
								<out>-1</out>
							</marker>
							<marker>
								<comment></comment>
								<name></name>
								<in>35404</in>
								<out>-1</out>
							</marker>
							<marker>
								<comment></comment>
								<name></name>
								<in>22388</in>
								<out>-1</out>
							</marker>
							<marker>
								<comment></comment>
								<name></name>
								<in>16790</in>
								<out>-1</out>
							</marker>
							<marker>
								<comment></comment>
								<name></name>
								<in>11832</in>
								<out>-1</out>
							</marker>
							<marker>
								<comment></comment>
								<name></name>
								<in>43475</in>
								<out>-1</out>
							</marker>
							<marker>
								<comment></comment>
								<name></name>
								<in>19163</in>
								<out>-1</out>
							</marker>
							<marker>
								<comment></comment>
								<name></name>
								<in>26248</in>
								<out>-1</out>
							</marker>
							<marker>
								<comment></comment>
								<name></name>
								<in>9861</in>
								<out>-1</out>
							</marker>
							<marker>
								<comment></comment>
								<name></name>
								<in>39699</in>
								<out>-1</out>
							</marker>
							<marker>
								<comment></comment>
								<name></name>
								<in>37815</in>
								<out>-1</out>
							</marker>
							<marker>
								<comment></comment>
								<name></name>
								<in>33007</in>
								<out>-1</out>
							</marker>
							<marker>
								<comment></comment>
								<name></name>
								<in>2059</in>
								<out>-1</out>
							</marker>
							<marker>
								<comment></comment>
								<name></name>
								<in>2</in>
								<out>-1</out>
							</marker>
							<marker>
								<comment></comment>
								<name></name>
								<in>29059</in>
								<out>-1</out>
							</marker>
							<marker>
								<comment></comment>
								<name></name>
								<in>20862</in>
								<out>-1</out>
							</marker>
							<marker>
								<comment></comment>
								<name></name>
								<in>31139</in>
								<out>-1</out>
							</marker>
							<marker>
								<comment></comment>
								<name></name>
								<in>4214</in>
								<out>-1</out>
							</marker>
							<marker>
								<comment></comment>
								<name></name>
								<in>6200</in>
								<out>-1</out>
							</marker>
							<marker>
								<comment></comment>
								<name></name>
								<in>24484</in>
								<out>-1</out>
							</marker>
							<marker>
								<comment></comment>
								<name></name>
								<in>14293</in>
								<out>-1</out>
							</marker>
						<link>
							<linkclipref>clipitem-1515</linkclipref>
							<mediatype>audio</mediatype>
							<trackindex>5</trackindex>
							<clipindex>8</clipindex>
							<groupindex>1</groupindex>
						</link>
						<link>
							<linkclipref>clipitem-1528</linkclipref>
							<mediatype>audio</mediatype>
							<trackindex>6</trackindex>
							<clipindex>8</clipindex>
							<groupindex>1</groupindex>
						</link>
						<logginginfo>
							<description></description>
							<scene></scene>
							<shottake></shottake>
							<lognote></lognote>
							<good></good>
							<originalvideofilename></originalvideofilename>
							<originalaudiofilename></originalaudiofilename>
						</logginginfo>
						<colorinfo>
							<lut></lut>
							<lut1></lut1>
							<asc_sop></asc_sop>
							<asc_sat></asc_sat>
							<lut2></lut2>
						</colorinfo>
						<labels>
							<label2>Rose</label2>
						</labels>
					</clipitem>
					<transitionitem>
						<start>24557</start>
						<end>24582</end>
						<pproTicksIn>249514836480000</pproTicksIn>
						<pproTicksOut>249768852480000</pproTicksOut>
						<alignment>end-black</alignment>
						<cutPointTicks>254016000000</cutPointTicks>
						<rate>
							<timebase>25</timebase>
							<ntsc>FALSE</ntsc>
						</rate>
						<effect>
							<name>Cross Fade (+3dB)</name>
							<effectid>KGAudioTransCrossFade3dB</effectid>
							<effecttype>transition</effecttype>
							<mediatype>audio</mediatype>
							<wipecode>0</wipecode>
							<wipeaccuracy>100</wipeaccuracy>
							<startratio>0</startratio>
							<endratio>1</endratio>
							<reverse>FALSE</reverse>
						</effect>
					</transitionitem>
					<clipitem id="clipitem-1529" premiereChannelType="stereo">
						<masterclipid>masterclip-651</masterclipid>
						<name>SOUND_2021.mp3</name>
						<enabled>TRUE</enabled>
						<duration>45395</duration>
						<rate>
							<timebase>25</timebase>
							<ntsc>FALSE</ntsc>
						</rate>
						<start>29109</start>
						<end>-1</end>
						<in>16789</in>
						<out>17394</out>
						<pproTicksIn>170586984960000</pproTicksIn>
						<pproTicksOut>176734172160000</pproTicksOut>
						<file id="file-539"/>
						<sourcetrack>
							<mediatype>audio</mediatype>
							<trackindex>2</trackindex>
						</sourcetrack>
						<filter>
							<effect>
								<name>Audio Levels</name>
								<effectid>audiolevels</effectid>
								<effectcategory>audiolevels</effectcategory>
								<effecttype>audiolevels</effecttype>
								<mediatype>audio</mediatype>
								<pproBypass>false</pproBypass>
								<parameter authoringApp="PremierePro">
									<parameterid>level</parameterid>
									<name>Level</name>
									<valuemin>0</valuemin>
									<valuemax>3.98109</valuemax>
									<value>0.177828</value>
								</parameter>
							</effect>
						</filter>
							<marker>
								<comment></comment>
								<name></name>
								<in>0</in>
								<out>-1</out>
							</marker>
							<marker>
								<comment></comment>
								<name></name>
								<in>35404</in>
								<out>-1</out>
							</marker>
							<marker>
								<comment></comment>
								<name></name>
								<in>22388</in>
								<out>-1</out>
							</marker>
							<marker>
								<comment></comment>
								<name></name>
								<in>16790</in>
								<out>-1</out>
							</marker>
							<marker>
								<comment></comment>
								<name></name>
								<in>11832</in>
								<out>-1</out>
							</marker>
							<marker>
								<comment></comment>
								<name></name>
								<in>43475</in>
								<out>-1</out>
							</marker>
							<marker>
								<comment></comment>
								<name></name>
								<in>19163</in>
								<out>-1</out>
							</marker>
							<marker>
								<comment></comment>
								<name></name>
								<in>26248</in>
								<out>-1</out>
							</marker>
							<marker>
								<comment></comment>
								<name></name>
								<in>9861</in>
								<out>-1</out>
							</marker>
							<marker>
								<comment></comment>
								<name></name>
								<in>39699</in>
								<out>-1</out>
							</marker>
							<marker>
								<comment></comment>
								<name></name>
								<in>37815</in>
								<out>-1</out>
							</marker>
							<marker>
								<comment></comment>
								<name></name>
								<in>33007</in>
								<out>-1</out>
							</marker>
							<marker>
								<comment></comment>
								<name></name>
								<in>2059</in>
								<out>-1</out>
							</marker>
							<marker>
								<comment></comment>
								<name></name>
								<in>2</in>
								<out>-1</out>
							</marker>
							<marker>
								<comment></comment>
								<name></name>
								<in>29059</in>
								<out>-1</out>
							</marker>
							<marker>
								<comment></comment>
								<name></name>
								<in>20862</in>
								<out>-1</out>
							</marker>
							<marker>
								<comment></comment>
								<name></name>
								<in>31139</in>
								<out>-1</out>
							</marker>
							<marker>
								<comment></comment>
								<name></name>
								<in>4214</in>
								<out>-1</out>
							</marker>
							<marker>
								<comment></comment>
								<name></name>
								<in>6200</in>
								<out>-1</out>
							</marker>
							<marker>
								<comment></comment>
								<name></name>
								<in>24484</in>
								<out>-1</out>
							</marker>
							<marker>
								<comment></comment>
								<name></name>
								<in>14293</in>
								<out>-1</out>
							</marker>
						<link>
							<linkclipref>clipitem-1516</linkclipref>
							<mediatype>audio</mediatype>
							<trackindex>5</trackindex>
							<clipindex>10</clipindex>
							<groupindex>1</groupindex>
						</link>
						<link>
							<linkclipref>clipitem-1529</linkclipref>
							<mediatype>audio</mediatype>
							<trackindex>6</trackindex>
							<clipindex>10</clipindex>
							<groupindex>1</groupindex>
						</link>
						<logginginfo>
							<description></description>
							<scene></scene>
							<shottake></shottake>
							<lognote></lognote>
							<good></good>
							<originalvideofilename></originalvideofilename>
							<originalaudiofilename></originalaudiofilename>
						</logginginfo>
						<colorinfo>
							<lut></lut>
							<lut1></lut1>
							<asc_sop></asc_sop>
							<asc_sat></asc_sat>
							<lut2></lut2>
						</colorinfo>
						<labels>
							<label2>Rose</label2>
						</labels>
					</clipitem>
					<transitionitem>
						<start>29689</start>
						<end>29714</end>
						<pproTicksIn>301659240960000</pproTicksIn>
						<pproTicksOut>301913256960000</pproTicksOut>
						<alignment>end-black</alignment>
						<cutPointTicks>254016000000</cutPointTicks>
						<rate>
							<timebase>25</timebase>
							<ntsc>FALSE</ntsc>
						</rate>
						<effect>
							<name>Cross Fade (+3dB)</name>
							<effectid>KGAudioTransCrossFade3dB</effectid>
							<effecttype>transition</effecttype>
							<mediatype>audio</mediatype>
							<wipecode>0</wipecode>
							<wipeaccuracy>100</wipeaccuracy>
							<startratio>0</startratio>
							<endratio>1</endratio>
							<reverse>FALSE</reverse>
						</effect>
					</transitionitem>
					<clipitem id="clipitem-1530" premiereChannelType="stereo">
						<masterclipid>masterclip-651</masterclipid>
						<name>SOUND_2021.mp3</name>
						<enabled>TRUE</enabled>
						<duration>45395</duration>
						<rate>
							<timebase>25</timebase>
							<ntsc>FALSE</ntsc>
						</rate>
						<start>34647</start>
						<end>-1</end>
						<in>19162</in>
						<out>19681</out>
						<pproTicksIn>194698183680000</pproTicksIn>
						<pproTicksOut>199971555840000</pproTicksOut>
						<file id="file-539"/>
						<sourcetrack>
							<mediatype>audio</mediatype>
							<trackindex>2</trackindex>
						</sourcetrack>
						<filter>
							<effect>
								<name>Audio Levels</name>
								<effectid>audiolevels</effectid>
								<effectcategory>audiolevels</effectcategory>
								<effecttype>audiolevels</effecttype>
								<mediatype>audio</mediatype>
								<pproBypass>false</pproBypass>
								<parameter authoringApp="PremierePro">
									<parameterid>level</parameterid>
									<name>Level</name>
									<valuemin>0</valuemin>
									<valuemax>3.98109</valuemax>
									<value>0.177828</value>
								</parameter>
							</effect>
						</filter>
							<marker>
								<comment></comment>
								<name></name>
								<in>0</in>
								<out>-1</out>
							</marker>
							<marker>
								<comment></comment>
								<name></name>
								<in>35404</in>
								<out>-1</out>
							</marker>
							<marker>
								<comment></comment>
								<name></name>
								<in>22388</in>
								<out>-1</out>
							</marker>
							<marker>
								<comment></comment>
								<name></name>
								<in>16790</in>
								<out>-1</out>
							</marker>
							<marker>
								<comment></comment>
								<name></name>
								<in>11832</in>
								<out>-1</out>
							</marker>
							<marker>
								<comment></comment>
								<name></name>
								<in>43475</in>
								<out>-1</out>
							</marker>
							<marker>
								<comment></comment>
								<name></name>
								<in>19163</in>
								<out>-1</out>
							</marker>
							<marker>
								<comment></comment>
								<name></name>
								<in>26248</in>
								<out>-1</out>
							</marker>
							<marker>
								<comment></comment>
								<name></name>
								<in>9861</in>
								<out>-1</out>
							</marker>
							<marker>
								<comment></comment>
								<name></name>
								<in>39699</in>
								<out>-1</out>
							</marker>
							<marker>
								<comment></comment>
								<name></name>
								<in>37815</in>
								<out>-1</out>
							</marker>
							<marker>
								<comment></comment>
								<name></name>
								<in>33007</in>
								<out>-1</out>
							</marker>
							<marker>
								<comment></comment>
								<name></name>
								<in>2059</in>
								<out>-1</out>
							</marker>
							<marker>
								<comment></comment>
								<name></name>
								<in>2</in>
								<out>-1</out>
							</marker>
							<marker>
								<comment></comment>
								<name></name>
								<in>29059</in>
								<out>-1</out>
							</marker>
							<marker>
								<comment></comment>
								<name></name>
								<in>20862</in>
								<out>-1</out>
							</marker>
							<marker>
								<comment></comment>
								<name></name>
								<in>31139</in>
								<out>-1</out>
							</marker>
							<marker>
								<comment></comment>
								<name></name>
								<in>4214</in>
								<out>-1</out>
							</marker>
							<marker>
								<comment></comment>
								<name></name>
								<in>6200</in>
								<out>-1</out>
							</marker>
							<marker>
								<comment></comment>
								<name></name>
								<in>24484</in>
								<out>-1</out>
							</marker>
							<marker>
								<comment></comment>
								<name></name>
								<in>14293</in>
								<out>-1</out>
							</marker>
						<link>
							<linkclipref>clipitem-1517</linkclipref>
							<mediatype>audio</mediatype>
							<trackindex>5</trackindex>
							<clipindex>12</clipindex>
							<groupindex>1</groupindex>
						</link>
						<link>
							<linkclipref>clipitem-1530</linkclipref>
							<mediatype>audio</mediatype>
							<trackindex>6</trackindex>
							<clipindex>12</clipindex>
							<groupindex>1</groupindex>
						</link>
						<logginginfo>
							<description></description>
							<scene></scene>
							<shottake></shottake>
							<lognote></lognote>
							<good></good>
							<originalvideofilename></originalvideofilename>
							<originalaudiofilename></originalaudiofilename>
						</logginginfo>
						<colorinfo>
							<lut></lut>
							<lut1></lut1>
							<asc_sop></asc_sop>
							<asc_sat></asc_sat>
							<lut2></lut2>
						</colorinfo>
						<labels>
							<label2>Rose</label2>
						</labels>
					</clipitem>
					<transitionitem>
						<start>35141</start>
						<end>35166</end>
						<pproTicksIn>357055050240000</pproTicksIn>
						<pproTicksOut>357309066240000</pproTicksOut>
						<alignment>end-black</alignment>
						<cutPointTicks>254016000000</cutPointTicks>
						<rate>
							<timebase>25</timebase>
							<ntsc>FALSE</ntsc>
						</rate>
						<effect>
							<name>Cross Fade (+3dB)</name>
							<effectid>KGAudioTransCrossFade3dB</effectid>
							<effecttype>transition</effecttype>
							<mediatype>audio</mediatype>
							<wipecode>0</wipecode>
							<wipeaccuracy>100</wipeaccuracy>
							<startratio>0</startratio>
							<endratio>1</endratio>
							<reverse>FALSE</reverse>
						</effect>
					</transitionitem>
					<clipitem id="clipitem-1531" premiereChannelType="stereo">
						<masterclipid>masterclip-651</masterclipid>
						<name>SOUND_2021.mp3</name>
						<enabled>TRUE</enabled>
						<duration>45395</duration>
						<rate>
							<timebase>25</timebase>
							<ntsc>FALSE</ntsc>
						</rate>
						<start>40675</start>
						<end>-1</end>
						<in>22387</in>
						<out>22830</out>
						<pproTicksIn>227466247680000</pproTicksIn>
						<pproTicksOut>231967411200000</pproTicksOut>
						<file id="file-539"/>
						<sourcetrack>
							<mediatype>audio</mediatype>
							<trackindex>2</trackindex>
						</sourcetrack>
						<filter>
							<effect>
								<name>Audio Levels</name>
								<effectid>audiolevels</effectid>
								<effectcategory>audiolevels</effectcategory>
								<effecttype>audiolevels</effecttype>
								<mediatype>audio</mediatype>
								<pproBypass>false</pproBypass>
								<parameter authoringApp="PremierePro">
									<parameterid>level</parameterid>
									<name>Level</name>
									<valuemin>0</valuemin>
									<valuemax>3.98109</valuemax>
									<value>0.177828</value>
								</parameter>
							</effect>
						</filter>
							<marker>
								<comment></comment>
								<name></name>
								<in>0</in>
								<out>-1</out>
							</marker>
							<marker>
								<comment></comment>
								<name></name>
								<in>35404</in>
								<out>-1</out>
							</marker>
							<marker>
								<comment></comment>
								<name></name>
								<in>22388</in>
								<out>-1</out>
							</marker>
							<marker>
								<comment></comment>
								<name></name>
								<in>16790</in>
								<out>-1</out>
							</marker>
							<marker>
								<comment></comment>
								<name></name>
								<in>11832</in>
								<out>-1</out>
							</marker>
							<marker>
								<comment></comment>
								<name></name>
								<in>43475</in>
								<out>-1</out>
							</marker>
							<marker>
								<comment></comment>
								<name></name>
								<in>19163</in>
								<out>-1</out>
							</marker>
							<marker>
								<comment></comment>
								<name></name>
								<in>26248</in>
								<out>-1</out>
							</marker>
							<marker>
								<comment></comment>
								<name></name>
								<in>9861</in>
								<out>-1</out>
							</marker>
							<marker>
								<comment></comment>
								<name></name>
								<in>39699</in>
								<out>-1</out>
							</marker>
							<marker>
								<comment></comment>
								<name></name>
								<in>37815</in>
								<out>-1</out>
							</marker>
							<marker>
								<comment></comment>
								<name></name>
								<in>33007</in>
								<out>-1</out>
							</marker>
							<marker>
								<comment></comment>
								<name></name>
								<in>2059</in>
								<out>-1</out>
							</marker>
							<marker>
								<comment></comment>
								<name></name>
								<in>2</in>
								<out>-1</out>
							</marker>
							<marker>
								<comment></comment>
								<name></name>
								<in>29059</in>
								<out>-1</out>
							</marker>
							<marker>
								<comment></comment>
								<name></name>
								<in>20862</in>
								<out>-1</out>
							</marker>
							<marker>
								<comment></comment>
								<name></name>
								<in>31139</in>
								<out>-1</out>
							</marker>
							<marker>
								<comment></comment>
								<name></name>
								<in>4214</in>
								<out>-1</out>
							</marker>
							<marker>
								<comment></comment>
								<name></name>
								<in>6200</in>
								<out>-1</out>
							</marker>
							<marker>
								<comment></comment>
								<name></name>
								<in>24484</in>
								<out>-1</out>
							</marker>
							<marker>
								<comment></comment>
								<name></name>
								<in>14293</in>
								<out>-1</out>
							</marker>
						<link>
							<linkclipref>clipitem-1518</linkclipref>
							<mediatype>audio</mediatype>
							<trackindex>5</trackindex>
							<clipindex>14</clipindex>
							<groupindex>1</groupindex>
						</link>
						<link>
							<linkclipref>clipitem-1531</linkclipref>
							<mediatype>audio</mediatype>
							<trackindex>6</trackindex>
							<clipindex>14</clipindex>
							<groupindex>1</groupindex>
						</link>
						<logginginfo>
							<description></description>
							<scene></scene>
							<shottake></shottake>
							<lognote></lognote>
							<good></good>
							<originalvideofilename></originalvideofilename>
							<originalaudiofilename></originalaudiofilename>
						</logginginfo>
						<colorinfo>
							<lut></lut>
							<lut1></lut1>
							<asc_sop></asc_sop>
							<asc_sat></asc_sat>
							<lut2></lut2>
						</colorinfo>
						<labels>
							<label2>Rose</label2>
						</labels>
					</clipitem>
					<transitionitem>
						<start>41093</start>
						<end>41118</end>
						<pproTicksIn>417531179520000</pproTicksIn>
						<pproTicksOut>417785195520000</pproTicksOut>
						<alignment>end-black</alignment>
						<cutPointTicks>254016000000</cutPointTicks>
						<rate>
							<timebase>25</timebase>
							<ntsc>FALSE</ntsc>
						</rate>
						<effect>
							<name>Cross Fade (+3dB)</name>
							<effectid>KGAudioTransCrossFade3dB</effectid>
							<effecttype>transition</effecttype>
							<mediatype>audio</mediatype>
							<wipecode>0</wipecode>
							<wipeaccuracy>100</wipeaccuracy>
							<startratio>0</startratio>
							<endratio>1</endratio>
							<reverse>FALSE</reverse>
						</effect>
					</transitionitem>
					<clipitem id="clipitem-1532" premiereChannelType="stereo">
						<masterclipid>masterclip-651</masterclipid>
						<name>SOUND_2021.mp3</name>
						<enabled>TRUE</enabled>
						<duration>45395</duration>
						<rate>
							<timebase>25</timebase>
							<ntsc>FALSE</ntsc>
						</rate>
						<start>44223</start>
						<end>-1</end>
						<in>11831</in>
						<out>12462</out>
						<pproTicksIn>120210531840000</pproTicksIn>
						<pproTicksOut>126621895680000</pproTicksOut>
						<file id="file-539"/>
						<sourcetrack>
							<mediatype>audio</mediatype>
							<trackindex>2</trackindex>
						</sourcetrack>
						<filter>
							<effect>
								<name>Audio Levels</name>
								<effectid>audiolevels</effectid>
								<effectcategory>audiolevels</effectcategory>
								<effecttype>audiolevels</effecttype>
								<mediatype>audio</mediatype>
								<pproBypass>false</pproBypass>
								<parameter authoringApp="PremierePro">
									<parameterid>level</parameterid>
									<name>Level</name>
									<valuemin>0</valuemin>
									<valuemax>3.98109</valuemax>
									<value>0.177828</value>
								</parameter>
							</effect>
						</filter>
							<marker>
								<comment></comment>
								<name></name>
								<in>0</in>
								<out>-1</out>
							</marker>
							<marker>
								<comment></comment>
								<name></name>
								<in>35404</in>
								<out>-1</out>
							</marker>
							<marker>
								<comment></comment>
								<name></name>
								<in>22388</in>
								<out>-1</out>
							</marker>
							<marker>
								<comment></comment>
								<name></name>
								<in>16790</in>
								<out>-1</out>
							</marker>
							<marker>
								<comment></comment>
								<name></name>
								<in>11832</in>
								<out>-1</out>
							</marker>
							<marker>
								<comment></comment>
								<name></name>
								<in>43475</in>
								<out>-1</out>
							</marker>
							<marker>
								<comment></comment>
								<name></name>
								<in>19163</in>
								<out>-1</out>
							</marker>
							<marker>
								<comment></comment>
								<name></name>
								<in>26248</in>
								<out>-1</out>
							</marker>
							<marker>
								<comment></comment>
								<name></name>
								<in>9861</in>
								<out>-1</out>
							</marker>
							<marker>
								<comment></comment>
								<name></name>
								<in>39699</in>
								<out>-1</out>
							</marker>
							<marker>
								<comment></comment>
								<name></name>
								<in>37815</in>
								<out>-1</out>
							</marker>
							<marker>
								<comment></comment>
								<name></name>
								<in>33007</in>
								<out>-1</out>
							</marker>
							<marker>
								<comment></comment>
								<name></name>
								<in>2059</in>
								<out>-1</out>
							</marker>
							<marker>
								<comment></comment>
								<name></name>
								<in>2</in>
								<out>-1</out>
							</marker>
							<marker>
								<comment></comment>
								<name></name>
								<in>29059</in>
								<out>-1</out>
							</marker>
							<marker>
								<comment></comment>
								<name></name>
								<in>20862</in>
								<out>-1</out>
							</marker>
							<marker>
								<comment></comment>
								<name></name>
								<in>31139</in>
								<out>-1</out>
							</marker>
							<marker>
								<comment></comment>
								<name></name>
								<in>4214</in>
								<out>-1</out>
							</marker>
							<marker>
								<comment></comment>
								<name></name>
								<in>6200</in>
								<out>-1</out>
							</marker>
							<marker>
								<comment></comment>
								<name></name>
								<in>24484</in>
								<out>-1</out>
							</marker>
							<marker>
								<comment></comment>
								<name></name>
								<in>14293</in>
								<out>-1</out>
							</marker>
						<link>
							<linkclipref>clipitem-1519</linkclipref>
							<mediatype>audio</mediatype>
							<trackindex>5</trackindex>
							<clipindex>16</clipindex>
							<groupindex>1</groupindex>
						</link>
						<link>
							<linkclipref>clipitem-1532</linkclipref>
							<mediatype>audio</mediatype>
							<trackindex>6</trackindex>
							<clipindex>16</clipindex>
							<groupindex>1</groupindex>
						</link>
						<logginginfo>
							<description></description>
							<scene></scene>
							<shottake></shottake>
							<lognote></lognote>
							<good></good>
							<originalvideofilename></originalvideofilename>
							<originalaudiofilename></originalaudiofilename>
						</logginginfo>
						<colorinfo>
							<lut></lut>
							<lut1></lut1>
							<asc_sop></asc_sop>
							<asc_sat></asc_sat>
							<lut2></lut2>
						</colorinfo>
						<labels>
							<label2>Rose</label2>
						</labels>
					</clipitem>
					<transitionitem>
						<start>44829</start>
						<end>44854</end>
						<pproTicksIn>455491330560000</pproTicksIn>
						<pproTicksOut>455745346560000</pproTicksOut>
						<alignment>end-black</alignment>
						<cutPointTicks>254016000000</cutPointTicks>
						<rate>
							<timebase>25</timebase>
							<ntsc>FALSE</ntsc>
						</rate>
						<effect>
							<name>Cross Fade (+3dB)</name>
							<effectid>KGAudioTransCrossFade3dB</effectid>
							<effecttype>transition</effecttype>
							<mediatype>audio</mediatype>
							<wipecode>0</wipecode>
							<wipeaccuracy>100</wipeaccuracy>
							<startratio>0</startratio>
							<endratio>1</endratio>
							<reverse>FALSE</reverse>
						</effect>
					</transitionitem>
					<clipitem id="clipitem-1533" premiereChannelType="stereo">
						<masterclipid>masterclip-651</masterclipid>
						<name>SOUND_2021.mp3</name>
						<enabled>TRUE</enabled>
						<duration>45395</duration>
						<rate>
							<timebase>25</timebase>
							<ntsc>FALSE</ntsc>
						</rate>
						<start>49076</start>
						<end>-1</end>
						<in>20861</in>
						<out>21354</out>
						<pproTicksIn>211961111040000</pproTicksIn>
						<pproTicksOut>216970306560000</pproTicksOut>
						<file id="file-539"/>
						<sourcetrack>
							<mediatype>audio</mediatype>
							<trackindex>2</trackindex>
						</sourcetrack>
						<filter>
							<effect>
								<name>Audio Levels</name>
								<effectid>audiolevels</effectid>
								<effectcategory>audiolevels</effectcategory>
								<effecttype>audiolevels</effecttype>
								<mediatype>audio</mediatype>
								<pproBypass>false</pproBypass>
								<parameter authoringApp="PremierePro">
									<parameterid>level</parameterid>
									<name>Level</name>
									<valuemin>0</valuemin>
									<valuemax>3.98109</valuemax>
									<value>0.177828</value>
								</parameter>
							</effect>
						</filter>
							<marker>
								<comment></comment>
								<name></name>
								<in>0</in>
								<out>-1</out>
							</marker>
							<marker>
								<comment></comment>
								<name></name>
								<in>35404</in>
								<out>-1</out>
							</marker>
							<marker>
								<comment></comment>
								<name></name>
								<in>22388</in>
								<out>-1</out>
							</marker>
							<marker>
								<comment></comment>
								<name></name>
								<in>16790</in>
								<out>-1</out>
							</marker>
							<marker>
								<comment></comment>
								<name></name>
								<in>11832</in>
								<out>-1</out>
							</marker>
							<marker>
								<comment></comment>
								<name></name>
								<in>43475</in>
								<out>-1</out>
							</marker>
							<marker>
								<comment></comment>
								<name></name>
								<in>19163</in>
								<out>-1</out>
							</marker>
							<marker>
								<comment></comment>
								<name></name>
								<in>26248</in>
								<out>-1</out>
							</marker>
							<marker>
								<comment></comment>
								<name></name>
								<in>9861</in>
								<out>-1</out>
							</marker>
							<marker>
								<comment></comment>
								<name></name>
								<in>39699</in>
								<out>-1</out>
							</marker>
							<marker>
								<comment></comment>
								<name></name>
								<in>37815</in>
								<out>-1</out>
							</marker>
							<marker>
								<comment></comment>
								<name></name>
								<in>33007</in>
								<out>-1</out>
							</marker>
							<marker>
								<comment></comment>
								<name></name>
								<in>2059</in>
								<out>-1</out>
							</marker>
							<marker>
								<comment></comment>
								<name></name>
								<in>2</in>
								<out>-1</out>
							</marker>
							<marker>
								<comment></comment>
								<name></name>
								<in>29059</in>
								<out>-1</out>
							</marker>
							<marker>
								<comment></comment>
								<name></name>
								<in>20862</in>
								<out>-1</out>
							</marker>
							<marker>
								<comment></comment>
								<name></name>
								<in>31139</in>
								<out>-1</out>
							</marker>
							<marker>
								<comment></comment>
								<name></name>
								<in>4214</in>
								<out>-1</out>
							</marker>
							<marker>
								<comment></comment>
								<name></name>
								<in>6200</in>
								<out>-1</out>
							</marker>
							<marker>
								<comment></comment>
								<name></name>
								<in>24484</in>
								<out>-1</out>
							</marker>
							<marker>
								<comment></comment>
								<name></name>
								<in>14293</in>
								<out>-1</out>
							</marker>
						<link>
							<linkclipref>clipitem-1520</linkclipref>
							<mediatype>audio</mediatype>
							<trackindex>5</trackindex>
							<clipindex>18</clipindex>
							<groupindex>1</groupindex>
						</link>
						<link>
							<linkclipref>clipitem-1533</linkclipref>
							<mediatype>audio</mediatype>
							<trackindex>6</trackindex>
							<clipindex>18</clipindex>
							<groupindex>1</groupindex>
						</link>
						<logginginfo>
							<description></description>
							<scene></scene>
							<shottake></shottake>
							<lognote></lognote>
							<good></good>
							<originalvideofilename></originalvideofilename>
							<originalaudiofilename></originalaudiofilename>
						</logginginfo>
						<colorinfo>
							<lut></lut>
							<lut1></lut1>
							<asc_sop></asc_sop>
							<asc_sat></asc_sat>
							<lut2></lut2>
						</colorinfo>
						<labels>
							<label2>Rose</label2>
						</labels>
					</clipitem>
					<transitionitem>
						<start>49544</start>
						<end>49569</end>
						<pproTicksIn>503398748160000</pproTicksIn>
						<pproTicksOut>503652764160000</pproTicksOut>
						<alignment>end-black</alignment>
						<cutPointTicks>254016000000</cutPointTicks>
						<rate>
							<timebase>25</timebase>
							<ntsc>FALSE</ntsc>
						</rate>
						<effect>
							<name>Cross Fade (+3dB)</name>
							<effectid>KGAudioTransCrossFade3dB</effectid>
							<effecttype>transition</effecttype>
							<mediatype>audio</mediatype>
							<wipecode>0</wipecode>
							<wipeaccuracy>100</wipeaccuracy>
							<startratio>0</startratio>
							<endratio>1</endratio>
							<reverse>FALSE</reverse>
						</effect>
					</transitionitem>
					<clipitem id="clipitem-1534" premiereChannelType="stereo">
						<masterclipid>masterclip-651</masterclipid>
						<name>SOUND_2021.mp3</name>
						<enabled>TRUE</enabled>
						<duration>45395</duration>
						<rate>
							<timebase>25</timebase>
							<ntsc>FALSE</ntsc>
						</rate>
						<start>55218</start>
						<end>-1</end>
						<in>14292</in>
						<out>14887</out>
						<pproTicksIn>145215866880000</pproTicksIn>
						<pproTicksOut>151261447680000</pproTicksOut>
						<file id="file-539"/>
						<sourcetrack>
							<mediatype>audio</mediatype>
							<trackindex>2</trackindex>
						</sourcetrack>
						<filter>
							<effect>
								<name>Audio Levels</name>
								<effectid>audiolevels</effectid>
								<effectcategory>audiolevels</effectcategory>
								<effecttype>audiolevels</effecttype>
								<mediatype>audio</mediatype>
								<pproBypass>false</pproBypass>
								<parameter authoringApp="PremierePro">
									<parameterid>level</parameterid>
									<name>Level</name>
									<valuemin>0</valuemin>
									<valuemax>3.98109</valuemax>
									<value>0.177828</value>
								</parameter>
							</effect>
						</filter>
							<marker>
								<comment></comment>
								<name></name>
								<in>0</in>
								<out>-1</out>
							</marker>
							<marker>
								<comment></comment>
								<name></name>
								<in>35404</in>
								<out>-1</out>
							</marker>
							<marker>
								<comment></comment>
								<name></name>
								<in>22388</in>
								<out>-1</out>
							</marker>
							<marker>
								<comment></comment>
								<name></name>
								<in>16790</in>
								<out>-1</out>
							</marker>
							<marker>
								<comment></comment>
								<name></name>
								<in>11832</in>
								<out>-1</out>
							</marker>
							<marker>
								<comment></comment>
								<name></name>
								<in>43475</in>
								<out>-1</out>
							</marker>
							<marker>
								<comment></comment>
								<name></name>
								<in>19163</in>
								<out>-1</out>
							</marker>
							<marker>
								<comment></comment>
								<name></name>
								<in>26248</in>
								<out>-1</out>
							</marker>
							<marker>
								<comment></comment>
								<name></name>
								<in>9861</in>
								<out>-1</out>
							</marker>
							<marker>
								<comment></comment>
								<name></name>
								<in>39699</in>
								<out>-1</out>
							</marker>
							<marker>
								<comment></comment>
								<name></name>
								<in>37815</in>
								<out>-1</out>
							</marker>
							<marker>
								<comment></comment>
								<name></name>
								<in>33007</in>
								<out>-1</out>
							</marker>
							<marker>
								<comment></comment>
								<name></name>
								<in>2059</in>
								<out>-1</out>
							</marker>
							<marker>
								<comment></comment>
								<name></name>
								<in>2</in>
								<out>-1</out>
							</marker>
							<marker>
								<comment></comment>
								<name></name>
								<in>29059</in>
								<out>-1</out>
							</marker>
							<marker>
								<comment></comment>
								<name></name>
								<in>20862</in>
								<out>-1</out>
							</marker>
							<marker>
								<comment></comment>
								<name></name>
								<in>31139</in>
								<out>-1</out>
							</marker>
							<marker>
								<comment></comment>
								<name></name>
								<in>4214</in>
								<out>-1</out>
							</marker>
							<marker>
								<comment></comment>
								<name></name>
								<in>6200</in>
								<out>-1</out>
							</marker>
							<marker>
								<comment></comment>
								<name></name>
								<in>24484</in>
								<out>-1</out>
							</marker>
							<marker>
								<comment></comment>
								<name></name>
								<in>14293</in>
								<out>-1</out>
							</marker>
						<link>
							<linkclipref>clipitem-1521</linkclipref>
							<mediatype>audio</mediatype>
							<trackindex>5</trackindex>
							<clipindex>20</clipindex>
							<groupindex>1</groupindex>
						</link>
						<link>
							<linkclipref>clipitem-1534</linkclipref>
							<mediatype>audio</mediatype>
							<trackindex>6</trackindex>
							<clipindex>20</clipindex>
							<groupindex>1</groupindex>
						</link>
						<logginginfo>
							<description></description>
							<scene></scene>
							<shottake></shottake>
							<lognote></lognote>
							<good></good>
							<originalvideofilename></originalvideofilename>
							<originalaudiofilename></originalaudiofilename>
						</logginginfo>
						<colorinfo>
							<lut></lut>
							<lut1></lut1>
							<asc_sop></asc_sop>
							<asc_sat></asc_sat>
							<lut2></lut2>
						</colorinfo>
						<labels>
							<label2>Rose</label2>
						</labels>
					</clipitem>
					<transitionitem>
						<start>55788</start>
						<end>55813</end>
						<pproTicksIn>566841784320000</pproTicksIn>
						<pproTicksOut>567095800320000</pproTicksOut>
						<alignment>end-black</alignment>
						<cutPointTicks>254016000000</cutPointTicks>
						<rate>
							<timebase>25</timebase>
							<ntsc>FALSE</ntsc>
						</rate>
						<effect>
							<name>Cross Fade (+3dB)</name>
							<effectid>KGAudioTransCrossFade3dB</effectid>
							<effecttype>transition</effecttype>
							<mediatype>audio</mediatype>
							<wipecode>0</wipecode>
							<wipeaccuracy>100</wipeaccuracy>
							<startratio>0</startratio>
							<endratio>1</endratio>
							<reverse>FALSE</reverse>
						</effect>
					</transitionitem>
					<clipitem id="clipitem-1535" premiereChannelType="stereo">
						<masterclipid>masterclip-651</masterclipid>
						<name>SOUND_2021.mp3</name>
						<enabled>TRUE</enabled>
						<duration>45395</duration>
						<rate>
							<timebase>25</timebase>
							<ntsc>FALSE</ntsc>
						</rate>
						<start>60871</start>
						<end>-1</end>
						<in>24483</in>
						<out>24977</out>
						<pproTicksIn>248762949120000</pproTicksIn>
						<pproTicksOut>253782305280000</pproTicksOut>
						<file id="file-539"/>
						<sourcetrack>
							<mediatype>audio</mediatype>
							<trackindex>2</trackindex>
						</sourcetrack>
						<filter>
							<effect>
								<name>Audio Levels</name>
								<effectid>audiolevels</effectid>
								<effectcategory>audiolevels</effectcategory>
								<effecttype>audiolevels</effecttype>
								<mediatype>audio</mediatype>
								<pproBypass>false</pproBypass>
								<parameter authoringApp="PremierePro">
									<parameterid>level</parameterid>
									<name>Level</name>
									<valuemin>0</valuemin>
									<valuemax>3.98109</valuemax>
									<value>0.177828</value>
								</parameter>
							</effect>
						</filter>
							<marker>
								<comment></comment>
								<name></name>
								<in>0</in>
								<out>-1</out>
							</marker>
							<marker>
								<comment></comment>
								<name></name>
								<in>35404</in>
								<out>-1</out>
							</marker>
							<marker>
								<comment></comment>
								<name></name>
								<in>22388</in>
								<out>-1</out>
							</marker>
							<marker>
								<comment></comment>
								<name></name>
								<in>16790</in>
								<out>-1</out>
							</marker>
							<marker>
								<comment></comment>
								<name></name>
								<in>11832</in>
								<out>-1</out>
							</marker>
							<marker>
								<comment></comment>
								<name></name>
								<in>43475</in>
								<out>-1</out>
							</marker>
							<marker>
								<comment></comment>
								<name></name>
								<in>19163</in>
								<out>-1</out>
							</marker>
							<marker>
								<comment></comment>
								<name></name>
								<in>26248</in>
								<out>-1</out>
							</marker>
							<marker>
								<comment></comment>
								<name></name>
								<in>9861</in>
								<out>-1</out>
							</marker>
							<marker>
								<comment></comment>
								<name></name>
								<in>39699</in>
								<out>-1</out>
							</marker>
							<marker>
								<comment></comment>
								<name></name>
								<in>37815</in>
								<out>-1</out>
							</marker>
							<marker>
								<comment></comment>
								<name></name>
								<in>33007</in>
								<out>-1</out>
							</marker>
							<marker>
								<comment></comment>
								<name></name>
								<in>2059</in>
								<out>-1</out>
							</marker>
							<marker>
								<comment></comment>
								<name></name>
								<in>2</in>
								<out>-1</out>
							</marker>
							<marker>
								<comment></comment>
								<name></name>
								<in>29059</in>
								<out>-1</out>
							</marker>
							<marker>
								<comment></comment>
								<name></name>
								<in>20862</in>
								<out>-1</out>
							</marker>
							<marker>
								<comment></comment>
								<name></name>
								<in>31139</in>
								<out>-1</out>
							</marker>
							<marker>
								<comment></comment>
								<name></name>
								<in>4214</in>
								<out>-1</out>
							</marker>
							<marker>
								<comment></comment>
								<name></name>
								<in>6200</in>
								<out>-1</out>
							</marker>
							<marker>
								<comment></comment>
								<name></name>
								<in>24484</in>
								<out>-1</out>
							</marker>
							<marker>
								<comment></comment>
								<name></name>
								<in>14293</in>
								<out>-1</out>
							</marker>
						<link>
							<linkclipref>clipitem-1522</linkclipref>
							<mediatype>audio</mediatype>
							<trackindex>5</trackindex>
							<clipindex>22</clipindex>
							<groupindex>1</groupindex>
						</link>
						<link>
							<linkclipref>clipitem-1535</linkclipref>
							<mediatype>audio</mediatype>
							<trackindex>6</trackindex>
							<clipindex>22</clipindex>
							<groupindex>1</groupindex>
						</link>
						<logginginfo>
							<description></description>
							<scene></scene>
							<shottake></shottake>
							<lognote></lognote>
							<good></good>
							<originalvideofilename></originalvideofilename>
							<originalaudiofilename></originalaudiofilename>
						</logginginfo>
						<colorinfo>
							<lut></lut>
							<lut1></lut1>
							<asc_sop></asc_sop>
							<asc_sat></asc_sat>
							<lut2></lut2>
						</colorinfo>
						<labels>
							<label2>Rose</label2>
						</labels>
					</clipitem>
					<transitionitem>
						<start>61340</start>
						<end>61365</end>
						<pproTicksIn>623253657600000</pproTicksIn>
						<pproTicksOut>623507673600000</pproTicksOut>
						<alignment>end-black</alignment>
						<cutPointTicks>254016000000</cutPointTicks>
						<rate>
							<timebase>25</timebase>
							<ntsc>FALSE</ntsc>
						</rate>
						<effect>
							<name>Cross Fade (+3dB)</name>
							<effectid>KGAudioTransCrossFade3dB</effectid>
							<effecttype>transition</effecttype>
							<mediatype>audio</mediatype>
							<wipecode>0</wipecode>
							<wipeaccuracy>100</wipeaccuracy>
							<startratio>0</startratio>
							<endratio>1</endratio>
							<reverse>FALSE</reverse>
						</effect>
					</transitionitem>
					<clipitem id="clipitem-1536" premiereChannelType="stereo">
						<masterclipid>masterclip-651</masterclipid>
						<name>SOUND_2021.mp3</name>
						<enabled>TRUE</enabled>
						<duration>45395</duration>
						<rate>
							<timebase>25</timebase>
							<ntsc>FALSE</ntsc>
						</rate>
						<start>65385</start>
						<end>-1</end>
						<in>26247</in>
						<out>26602</out>
						<pproTicksIn>266686318080000</pproTicksIn>
						<pproTicksOut>270293345280000</pproTicksOut>
						<file id="file-539"/>
						<sourcetrack>
							<mediatype>audio</mediatype>
							<trackindex>2</trackindex>
						</sourcetrack>
						<filter>
							<effect>
								<name>Audio Levels</name>
								<effectid>audiolevels</effectid>
								<effectcategory>audiolevels</effectcategory>
								<effecttype>audiolevels</effecttype>
								<mediatype>audio</mediatype>
								<pproBypass>false</pproBypass>
								<parameter authoringApp="PremierePro">
									<parameterid>level</parameterid>
									<name>Level</name>
									<valuemin>0</valuemin>
									<valuemax>3.98109</valuemax>
									<value>0.177828</value>
								</parameter>
							</effect>
						</filter>
							<marker>
								<comment></comment>
								<name></name>
								<in>0</in>
								<out>-1</out>
							</marker>
							<marker>
								<comment></comment>
								<name></name>
								<in>35404</in>
								<out>-1</out>
							</marker>
							<marker>
								<comment></comment>
								<name></name>
								<in>22388</in>
								<out>-1</out>
							</marker>
							<marker>
								<comment></comment>
								<name></name>
								<in>16790</in>
								<out>-1</out>
							</marker>
							<marker>
								<comment></comment>
								<name></name>
								<in>11832</in>
								<out>-1</out>
							</marker>
							<marker>
								<comment></comment>
								<name></name>
								<in>43475</in>
								<out>-1</out>
							</marker>
							<marker>
								<comment></comment>
								<name></name>
								<in>19163</in>
								<out>-1</out>
							</marker>
							<marker>
								<comment></comment>
								<name></name>
								<in>26248</in>
								<out>-1</out>
							</marker>
							<marker>
								<comment></comment>
								<name></name>
								<in>9861</in>
								<out>-1</out>
							</marker>
							<marker>
								<comment></comment>
								<name></name>
								<in>39699</in>
								<out>-1</out>
							</marker>
							<marker>
								<comment></comment>
								<name></name>
								<in>37815</in>
								<out>-1</out>
							</marker>
							<marker>
								<comment></comment>
								<name></name>
								<in>33007</in>
								<out>-1</out>
							</marker>
							<marker>
								<comment></comment>
								<name></name>
								<in>2059</in>
								<out>-1</out>
							</marker>
							<marker>
								<comment></comment>
								<name></name>
								<in>2</in>
								<out>-1</out>
							</marker>
							<marker>
								<comment></comment>
								<name></name>
								<in>29059</in>
								<out>-1</out>
							</marker>
							<marker>
								<comment></comment>
								<name></name>
								<in>20862</in>
								<out>-1</out>
							</marker>
							<marker>
								<comment></comment>
								<name></name>
								<in>31139</in>
								<out>-1</out>
							</marker>
							<marker>
								<comment></comment>
								<name></name>
								<in>4214</in>
								<out>-1</out>
							</marker>
							<marker>
								<comment></comment>
								<name></name>
								<in>6200</in>
								<out>-1</out>
							</marker>
							<marker>
								<comment></comment>
								<name></name>
								<in>24484</in>
								<out>-1</out>
							</marker>
							<marker>
								<comment></comment>
								<name></name>
								<in>14293</in>
								<out>-1</out>
							</marker>
						<link>
							<linkclipref>clipitem-1523</linkclipref>
							<mediatype>audio</mediatype>
							<trackindex>5</trackindex>
							<clipindex>24</clipindex>
							<groupindex>1</groupindex>
						</link>
						<link>
							<linkclipref>clipitem-1536</linkclipref>
							<mediatype>audio</mediatype>
							<trackindex>6</trackindex>
							<clipindex>24</clipindex>
							<groupindex>1</groupindex>
						</link>
						<logginginfo>
							<description></description>
							<scene></scene>
							<shottake></shottake>
							<lognote></lognote>
							<good></good>
							<originalvideofilename></originalvideofilename>
							<originalaudiofilename></originalaudiofilename>
						</logginginfo>
						<colorinfo>
							<lut></lut>
							<lut1></lut1>
							<asc_sop></asc_sop>
							<asc_sat></asc_sat>
							<lut2></lut2>
						</colorinfo>
						<labels>
							<label2>Rose</label2>
						</labels>
					</clipitem>
					<transitionitem>
						<start>65715</start>
						<end>65740</end>
						<pproTicksIn>667706457600000</pproTicksIn>
						<pproTicksOut>667960473600000</pproTicksOut>
						<alignment>end-black</alignment>
						<cutPointTicks>254016000000</cutPointTicks>
						<rate>
							<timebase>25</timebase>
							<ntsc>FALSE</ntsc>
						</rate>
						<effect>
							<name>Cross Fade (+3dB)</name>
							<effectid>KGAudioTransCrossFade3dB</effectid>
							<effecttype>transition</effecttype>
							<mediatype>audio</mediatype>
							<wipecode>0</wipecode>
							<wipeaccuracy>100</wipeaccuracy>
							<startratio>0</startratio>
							<endratio>1</endratio>
							<reverse>FALSE</reverse>
						</effect>
					</transitionitem>
					<enabled>TRUE</enabled>
					<locked>FALSE</locked>
					<outputchannelindex>2</outputchannelindex>
				</track>
			</audio>
		</media>
		<timecode>
			<rate>
				<timebase>25</timebase>
				<ntsc>FALSE</ntsc>
			</rate>
			<string>00:00:00:00</string>
			<frame>0</frame>
			<displayformat>NDF</displayformat>
		</timecode>
		<labels>
			<label2>Forest</label2>
		</labels>
		<logginginfo>
			<description></description>
			<scene></scene>
			<shottake></shottake>
			<lognote></lognote>
			<good></good>
			<originalvideofilename></originalvideofilename>
			<originalaudiofilename></originalaudiofilename>
		</logginginfo>
	</sequence>
</xmeml>
