<?xml version="1.0" encoding="UTF-8"?>
<!DOCTYPE xmeml>
<xmeml version="4">
	<sequence id="sequence-35" TL.SQAudioVisibleBase="0" TL.SQVideoVisibleBase="0" TL.SQVisibleBaseTime="0" TL.SQAVDividerPosition="0.5" TL.SQHideShyTracks="0" TL.SQHeaderWidth="236" TL.SQDataTrackViewControlState="0" Monitor.ProgramZoomOut="670602240000000" Monitor.ProgramZoomIn="0" TL.SQTimePerPixel="1.9865113427345187" AM.TrackVScrollPosition="0" AM.TrackScrollPosition="0" MZ.EditLine="359026214400000" MZ.Sequence.PreviewFrameSizeHeight="576" MZ.Sequence.PreviewFrameSizeWidth="720" MZ.Sequence.AudioTimeDisplayFormat="200" MZ.Sequence.PreviewRenderingClassID="1061109567" MZ.Sequence.PreviewRenderingPresetCodec="1685480304" MZ.Sequence.PreviewRenderingPresetPath="EncoderPresets/SequencePreview/04be6e19-a018-4e0c-a9d6-0ab44c64752b/QuickTime DV PAL.epr" MZ.Sequence.PreviewUseMaxRenderQuality="false" MZ.Sequence.PreviewUseMaxBitDepth="false" MZ.Sequence.EditingModeGUID="04be6e19-a018-4e0c-a9d6-0ab44c64752b" MZ.Sequence.VideoTimeDisplayFormat="101" MZ.WorkOutPoint="15240960000000" MZ.WorkInPoint="0" explodedTracks="true">
		<uuid>4fd25747-37ed-42b1-8ba0-2b0554e89ed9</uuid>
		<duration>66000</duration>
		<rate>
			<timebase>25</timebase>
			<ntsc>FALSE</ntsc>
		</rate>
		<name>RU-470</name>
		<media>
			<video>
				<format>
					<samplecharacteristics>
						<rate>
							<timebase>25</timebase>
							<ntsc>FALSE</ntsc>
						</rate>
						<codec>
							<name>Apple ProRes 422</name>
							<appspecificdata>
								<appname>Final Cut Pro</appname>
								<appmanufacturer>Apple Inc.</appmanufacturer>
								<appversion>7.0</appversion>
								<data>
									<qtcodec>
										<codecname>Apple ProRes 422</codecname>
										<codectypename>Apple ProRes 422</codectypename>
										<codectypecode>apcn</codectypecode>
										<codecvendorcode>appl</codecvendorcode>
										<spatialquality>1024</spatialquality>
										<temporalquality>0</temporalquality>
										<keyframerate>0</keyframerate>
										<datarate>0</datarate>
									</qtcodec>
								</data>
							</appspecificdata>
						</codec>
						<width>720</width>
						<height>576</height>
						<anamorphic>TRUE</anamorphic>
						<pixelaspectratio>PAL-601</pixelaspectratio>
						<fielddominance>lower</fielddominance>
						<colordepth>24</colordepth>
					</samplecharacteristics>
				</format>
				<track TL.SQTrackShy="0" TL.SQTrackExpandedHeight="25" TL.SQTrackExpanded="0" MZ.TrackTargeted="0">
					<clipitem id="clipitem-584">
						<masterclipid>masterclip-243</masterclipid>
						<name>MYZ_RusskiyChart_appProRes_v2.mov</name>
						<enabled>TRUE</enabled>
						<duration>299</duration>
						<rate>
							<timebase>25</timebase>
							<ntsc>FALSE</ntsc>
						</rate>
						<start>0</start>
						<end>274</end>
						<in>0</in>
						<out>274</out>
						<pproTicksIn>0</pproTicksIn>
						<pproTicksOut>2784015360000</pproTicksOut>
						<alphatype>none</alphatype>
						<pixelaspectratio>square</pixelaspectratio>
						<anamorphic>FALSE</anamorphic>
						<file id="file-212">
							<name>MYZ_RusskiyChart_appProRes_v2.mov</name>
							<pathurl>file://localhost/Volumes/1Tb/_MUZ_TV/graphika/RU-21/MYZ_RusskiyChart_appProRes_v2.mov</pathurl>
							<rate>
								<timebase>25</timebase>
								<ntsc>FALSE</ntsc>
							</rate>
							<duration>299</duration>
							<timecode>
								<rate>
									<timebase>25</timebase>
									<ntsc>FALSE</ntsc>
								</rate>
								<string>00:00:00:00</string>
								<frame>0</frame>
								<displayformat>NDF</displayformat>
							</timecode>
							<media>
								<video>
									<samplecharacteristics>
										<rate>
											<timebase>25</timebase>
											<ntsc>FALSE</ntsc>
										</rate>
										<width>1920</width>
										<height>1080</height>
										<anamorphic>FALSE</anamorphic>
										<pixelaspectratio>square</pixelaspectratio>
										<fielddominance>none</fielddominance>
									</samplecharacteristics>
								</video>
								<audio>
									<samplecharacteristics>
										<depth>16</depth>
										<samplerate>48000</samplerate>
									</samplecharacteristics>
									<channelcount>2</channelcount>
								</audio>
							</media>
						</file>
						<filter>
							<effect>
								<name>Basic Motion</name>
								<effectid>basic</effectid>
								<effectcategory>motion</effectcategory>
								<effecttype>motion</effecttype>
								<mediatype>video</mediatype>
								<pproBypass>false</pproBypass>
								<parameter authoringApp="PremierePro">
									<parameterid>scale</parameterid>
									<name>Scale</name>
									<valuemin>0</valuemin>
									<valuemax>1000</valuemax>
									<value>55</value>
								</parameter>
								<parameter authoringApp="PremierePro">
									<parameterid>rotation</parameterid>
									<name>Rotation</name>
									<valuemin>-8640</valuemin>
									<valuemax>8640</valuemax>
									<value>0</value>
								</parameter>
								<parameter authoringApp="PremierePro">
									<parameterid>center</parameterid>
									<name>Center</name>
									<value>
										<horiz>0</horiz>
										<vert>0</vert>
									</value>
								</parameter>
								<parameter authoringApp="PremierePro">
									<parameterid>centerOffset</parameterid>
									<name>Anchor Point</name>
									<value>
										<horiz>0</horiz>
										<vert>0</vert>
									</value>
								</parameter>
								<parameter authoringApp="PremierePro">
									<parameterid>antiflicker</parameterid>
									<name>Anti-flicker Filter</name>
									<valuemin>0.0</valuemin>
									<valuemax>1.0</valuemax>
									<value>0</value>
								</parameter>
							</effect>
						</filter>
						<link>
							<linkclipref>clipitem-584</linkclipref>
							<mediatype>video</mediatype>
							<trackindex>1</trackindex>
							<clipindex>1</clipindex>
						</link>
						<link>
							<linkclipref>clipitem-853</linkclipref>
							<mediatype>audio</mediatype>
							<trackindex>1</trackindex>
							<clipindex>1</clipindex>
							<groupindex>1</groupindex>
						</link>
						<link>
							<linkclipref>clipitem-888</linkclipref>
							<mediatype>audio</mediatype>
							<trackindex>2</trackindex>
							<clipindex>1</clipindex>
							<groupindex>1</groupindex>
						</link>
						<logginginfo>
							<description></description>
							<scene></scene>
							<shottake></shottake>
							<lognote></lognote>
							<good></good>
							<originalvideofilename></originalvideofilename>
							<originalaudiofilename></originalaudiofilename>
						</logginginfo>
						<colorinfo>
							<lut></lut>
							<lut1></lut1>
							<asc_sop></asc_sop>
							<asc_sat></asc_sat>
							<lut2></lut2>
						</colorinfo>
						<labels>
							<label2>Iris</label2>
						</labels>
					</clipitem>
					<clipitem id="clipitem-585">
						<masterclipid>masterclip-244</masterclipid>
						<name>Nested Sequence_470</name>
						<enabled>TRUE</enabled>
						<duration>13650</duration>
						<rate>
							<timebase>25</timebase>
							<ntsc>FALSE</ntsc>
						</rate>
						<start>274</start>
						<end>1402</end>
						<in>8</in>
						<out>1136</out>
						<pproTicksIn>81285120000</pproTicksIn>
						<pproTicksOut>11542487040000</pproTicksOut>
						<sequence id="sequence-36" TL.SQVisibleBaseTime="0" TL.SQTimePerPixel="0.049999999999999996" MZ.Sequence.PreviewFrameSizeHeight="576" MZ.Sequence.PreviewFrameSizeWidth="720" MZ.Sequence.AudioTimeDisplayFormat="200" MZ.Sequence.PreviewRenderingClassID="1061109567" MZ.Sequence.PreviewRenderingPresetCodec="1685480304" MZ.Sequence.PreviewRenderingPresetPath="EncoderPresets/SequencePreview/04be6e19-a018-4e0c-a9d6-0ab44c64752b/QuickTime DV PAL.epr" MZ.Sequence.PreviewUseMaxRenderQuality="false" MZ.Sequence.PreviewUseMaxBitDepth="false" MZ.Sequence.EditingModeGUID="04be6e19-a018-4e0c-a9d6-0ab44c64752b" MZ.Sequence.VideoTimeDisplayFormat="101" MZ.WorkOutPoint="138692736000000" MZ.WorkInPoint="0">
							<duration>13650</duration>
							<rate>
								<timebase>25</timebase>
								<ntsc>FALSE</ntsc>
							</rate>
							<name>Nested Sequence_470</name>
							<media>
								<video>
									<format>
										<samplecharacteristics>
											<rate>
												<timebase>25</timebase>
												<ntsc>FALSE</ntsc>
											</rate>
											<codec>
												<name>Apple ProRes 422</name>
												<appspecificdata>
													<appname>Final Cut Pro</appname>
													<appmanufacturer>Apple Inc.</appmanufacturer>
													<appversion>7.0</appversion>
													<data>
														<qtcodec>
															<codecname>Apple ProRes 422</codecname>
															<codectypename>Apple ProRes 422</codectypename>
															<codectypecode>apcn</codectypecode>
															<codecvendorcode>appl</codecvendorcode>
															<spatialquality>1024</spatialquality>
															<temporalquality>0</temporalquality>
															<keyframerate>0</keyframerate>
															<datarate>0</datarate>
														</qtcodec>
													</data>
												</appspecificdata>
											</codec>
											<width>720</width>
											<height>576</height>
											<anamorphic>TRUE</anamorphic>
											<pixelaspectratio>PAL-601</pixelaspectratio>
											<fielddominance>lower</fielddominance>
											<colordepth>24</colordepth>
										</samplecharacteristics>
									</format>
									<track TL.SQTrackExpandedHeight="25" TL.SQTrackExpanded="0" MZ.TrackTargeted="1">
										<clipitem id="clipitem-586">
											<masterclipid>masterclip-245</masterclipid>
											<name>RU-470.mov</name>
											<enabled>TRUE</enabled>
											<duration>13650</duration>
											<rate>
												<timebase>25</timebase>
												<ntsc>FALSE</ntsc>
											</rate>
											<start>0</start>
											<end>13650</end>
											<in>0</in>
											<out>13650</out>
											<pproTicksIn>0</pproTicksIn>
											<pproTicksOut>138692736000000</pproTicksOut>
											<alphatype>none</alphatype>
											<pixelaspectratio>square</pixelaspectratio>
											<anamorphic>FALSE</anamorphic>
											<file id="file-213">
												<name>RU-470.mov</name>
												<pathurl>file://localhost/Volumes/1Tb/_MUZ_TV/_Studia/ProRes/RU-470.mov</pathurl>
												<rate>
													<timebase>25</timebase>
													<ntsc>FALSE</ntsc>
												</rate>
												<duration>13650</duration>
												<timecode>
													<rate>
														<timebase>25</timebase>
														<ntsc>FALSE</ntsc>
													</rate>
													<string>00:00:00:00</string>
													<frame>0</frame>
													<displayformat>NDF</displayformat>
												</timecode>
												<media>
													<video>
														<samplecharacteristics>
															<rate>
																<timebase>25</timebase>
																<ntsc>FALSE</ntsc>
															</rate>
															<width>1920</width>
															<height>1080</height>
															<anamorphic>FALSE</anamorphic>
															<pixelaspectratio>square</pixelaspectratio>
															<fielddominance>upper</fielddominance>
														</samplecharacteristics>
													</video>
													<audio>
														<samplecharacteristics>
															<depth>16</depth>
															<samplerate>48000</samplerate>
														</samplecharacteristics>
														<channelcount>2</channelcount>
													</audio>
												</media>
											</file>
											<filter>
												<effect>
													<name>Basic Motion</name>
													<effectid>basic</effectid>
													<effectcategory>motion</effectcategory>
													<effecttype>motion</effecttype>
													<mediatype>video</mediatype>
													<pproBypass>false</pproBypass>
													<parameter authoringApp="PremierePro">
														<parameterid>scale</parameterid>
														<name>Scale</name>
														<valuemin>0</valuemin>
														<valuemax>1000</valuemax>
														<value>55</value>
													</parameter>
													<parameter authoringApp="PremierePro">
														<parameterid>rotation</parameterid>
														<name>Rotation</name>
														<valuemin>-8640</valuemin>
														<valuemax>8640</valuemax>
														<value>0</value>
													</parameter>
													<parameter authoringApp="PremierePro">
														<parameterid>center</parameterid>
														<name>Center</name>
														<value>
															<horiz>0</horiz>
															<vert>0</vert>
														</value>
													</parameter>
													<parameter authoringApp="PremierePro">
														<parameterid>centerOffset</parameterid>
														<name>Anchor Point</name>
														<value>
															<horiz>0</horiz>
															<vert>0</vert>
														</value>
													</parameter>
													<parameter authoringApp="PremierePro">
														<parameterid>antiflicker</parameterid>
														<name>Anti-flicker Filter</name>
														<valuemin>0.0</valuemin>
														<valuemax>1.0</valuemax>
														<value>0</value>
													</parameter>
												</effect>
											</filter>
											<filter>
												<effect>
													<name>Distort</name>
													<effectid>deformation</effectid>
													<effectcategory>motion</effectcategory>
													<effecttype>motion</effecttype>
													<mediatype>video</mediatype>
													<parameter authoringApp="PremierePro">
														<parameterid>aspect</parameterid>
														<name>Aspect</name>
														<valuemin>-10000</valuemin>
														<valuemax>10000</valuemax>
														<value>-3.125</value>
													</parameter>
												</effect>
											</filter>
											<link>
												<linkclipref>clipitem-586</linkclipref>
												<mediatype>video</mediatype>
												<trackindex>1</trackindex>
												<clipindex>1</clipindex>
											</link>
											<link>
												<linkclipref>clipitem-587</linkclipref>
												<mediatype>audio</mediatype>
												<trackindex>1</trackindex>
												<clipindex>1</clipindex>
												<groupindex>1</groupindex>
											</link>
											<link>
												<linkclipref>clipitem-588</linkclipref>
												<mediatype>audio</mediatype>
												<trackindex>2</trackindex>
												<clipindex>1</clipindex>
												<groupindex>1</groupindex>
											</link>
											<logginginfo>
												<description></description>
												<scene></scene>
												<shottake></shottake>
												<lognote></lognote>
												<good></good>
												<originalvideofilename></originalvideofilename>
												<originalaudiofilename></originalaudiofilename>
											</logginginfo>
											<colorinfo>
												<lut></lut>
												<lut1></lut1>
												<asc_sop></asc_sop>
												<asc_sat></asc_sat>
												<lut2></lut2>
											</colorinfo>
											<labels>
												<label2>Iris</label2>
											</labels>
										</clipitem>
										<enabled>TRUE</enabled>
										<locked>FALSE</locked>
									</track>
								</video>
								<audio>
									<numOutputChannels>2</numOutputChannels>
									<format>
										<samplecharacteristics>
											<depth>16</depth>
											<samplerate>48000</samplerate>
										</samplecharacteristics>
									</format>
									<outputs>
										<group>
											<index>1</index>
											<numchannels>1</numchannels>
											<downmix>0</downmix>
											<channel>
												<index>1</index>
											</channel>
										</group>
										<group>
											<index>2</index>
											<numchannels>1</numchannels>
											<downmix>0</downmix>
											<channel>
												<index>2</index>
											</channel>
										</group>
									</outputs>
									<track TL.SQTrackExpandedHeight="25" TL.SQTrackExpanded="0" MZ.TrackTargeted="1" PannerCurrentValue="0.5" PannerIsInverted="true" PannerStartKeyframe="-91445760000000000,0.5,0,0,0,0,0,0" PannerName="Balance" currentExplodedTrackIndex="0" totalExplodedTrackCount="2" premiereTrackType="Stereo">
										<clipitem id="clipitem-587" premiereChannelType="stereo">
											<masterclipid>masterclip-245</masterclipid>
											<name>RU-470.mov</name>
											<enabled>TRUE</enabled>
											<duration>13650</duration>
											<rate>
												<timebase>25</timebase>
												<ntsc>FALSE</ntsc>
											</rate>
											<start>0</start>
											<end>13650</end>
											<in>0</in>
											<out>13650</out>
											<pproTicksIn>0</pproTicksIn>
											<pproTicksOut>138692736000000</pproTicksOut>
											<file id="file-213"/>
											<sourcetrack>
												<mediatype>audio</mediatype>
												<trackindex>1</trackindex>
											</sourcetrack>
											<link>
												<linkclipref>clipitem-586</linkclipref>
												<mediatype>video</mediatype>
												<trackindex>1</trackindex>
												<clipindex>1</clipindex>
											</link>
											<link>
												<linkclipref>clipitem-587</linkclipref>
												<mediatype>audio</mediatype>
												<trackindex>1</trackindex>
												<clipindex>1</clipindex>
												<groupindex>1</groupindex>
											</link>
											<link>
												<linkclipref>clipitem-588</linkclipref>
												<mediatype>audio</mediatype>
												<trackindex>2</trackindex>
												<clipindex>1</clipindex>
												<groupindex>1</groupindex>
											</link>
											<logginginfo>
												<description></description>
												<scene></scene>
												<shottake></shottake>
												<lognote></lognote>
												<good></good>
												<originalvideofilename></originalvideofilename>
												<originalaudiofilename></originalaudiofilename>
											</logginginfo>
											<colorinfo>
												<lut></lut>
												<lut1></lut1>
												<asc_sop></asc_sop>
												<asc_sat></asc_sat>
												<lut2></lut2>
											</colorinfo>
											<labels>
												<label2>Iris</label2>
											</labels>
										</clipitem>
										<enabled>TRUE</enabled>
										<locked>FALSE</locked>
										<outputchannelindex>1</outputchannelindex>
									</track>
									<track TL.SQTrackExpandedHeight="25" TL.SQTrackExpanded="0" MZ.TrackTargeted="1" PannerCurrentValue="0.5" PannerIsInverted="true" PannerStartKeyframe="-91445760000000000,0.5,0,0,0,0,0,0" PannerName="Balance" currentExplodedTrackIndex="1" totalExplodedTrackCount="2" premiereTrackType="Stereo">
										<clipitem id="clipitem-588" premiereChannelType="stereo">
											<masterclipid>masterclip-245</masterclipid>
											<name>RU-470.mov</name>
											<enabled>TRUE</enabled>
											<duration>13650</duration>
											<rate>
												<timebase>25</timebase>
												<ntsc>FALSE</ntsc>
											</rate>
											<start>0</start>
											<end>13650</end>
											<in>0</in>
											<out>13650</out>
											<pproTicksIn>0</pproTicksIn>
											<pproTicksOut>138692736000000</pproTicksOut>
											<file id="file-213"/>
											<sourcetrack>
												<mediatype>audio</mediatype>
												<trackindex>2</trackindex>
											</sourcetrack>
											<link>
												<linkclipref>clipitem-586</linkclipref>
												<mediatype>video</mediatype>
												<trackindex>1</trackindex>
												<clipindex>1</clipindex>
											</link>
											<link>
												<linkclipref>clipitem-587</linkclipref>
												<mediatype>audio</mediatype>
												<trackindex>1</trackindex>
												<clipindex>1</clipindex>
												<groupindex>1</groupindex>
											</link>
											<link>
												<linkclipref>clipitem-588</linkclipref>
												<mediatype>audio</mediatype>
												<trackindex>2</trackindex>
												<clipindex>1</clipindex>
												<groupindex>1</groupindex>
											</link>
											<logginginfo>
												<description></description>
												<scene></scene>
												<shottake></shottake>
												<lognote></lognote>
												<good></good>
												<originalvideofilename></originalvideofilename>
												<originalaudiofilename></originalaudiofilename>
											</logginginfo>
											<colorinfo>
												<lut></lut>
												<lut1></lut1>
												<asc_sop></asc_sop>
												<asc_sat></asc_sat>
												<lut2></lut2>
											</colorinfo>
											<labels>
												<label2>Iris</label2>
											</labels>
										</clipitem>
										<enabled>TRUE</enabled>
										<locked>FALSE</locked>
										<outputchannelindex>2</outputchannelindex>
									</track>
								</audio>
							</media>
							<timecode>
								<rate>
									<timebase>25</timebase>
									<ntsc>FALSE</ntsc>
								</rate>
								<string>00:00:00:00</string>
								<frame>0</frame>
								<displayformat>NDF</displayformat>
							</timecode>
							<logginginfo>
								<description></description>
								<scene></scene>
								<shottake></shottake>
								<lognote></lognote>
								<good></good>
								<originalvideofilename></originalvideofilename>
								<originalaudiofilename></originalaudiofilename>
							</logginginfo>
						</sequence>
						<link>
							<linkclipref>clipitem-585</linkclipref>
							<mediatype>video</mediatype>
							<trackindex>1</trackindex>
							<clipindex>2</clipindex>
						</link>
						<link>
							<linkclipref>clipitem-854</linkclipref>
							<mediatype>audio</mediatype>
							<trackindex>1</trackindex>
							<clipindex>2</clipindex>
							<groupindex>1</groupindex>
						</link>
						<link>
							<linkclipref>clipitem-889</linkclipref>
							<mediatype>audio</mediatype>
							<trackindex>2</trackindex>
							<clipindex>2</clipindex>
							<groupindex>1</groupindex>
						</link>
						<labels>
							<label2>Forest</label2>
						</labels>
					</clipitem>
					<clipitem id="clipitem-589">
						<masterclipid>masterclip-246</masterclipid>
						<name>10_OTB</name>
						<enabled>TRUE</enabled>
						<duration>180</duration>
						<rate>
							<timebase>25</timebase>
							<ntsc>FALSE</ntsc>
						</rate>
						<start>1402</start>
						<end>1477</end>
						<in>0</in>
						<out>180</out>
						<pproTicksIn>0</pproTicksIn>
						<pproTicksOut>1828915200000</pproTicksOut>
						<alphatype>none</alphatype>
						<pixelaspectratio>square</pixelaspectratio>
						<anamorphic>FALSE</anamorphic>
						<file id="file-214">
							<name>NUM_10.mov</name>
							<pathurl>file://localhost/_MUZ_TV/graphika/RU-21/MOD/otb/NUM_10.mov</pathurl>
							<rate>
								<timebase>25</timebase>
								<ntsc>FALSE</ntsc>
							</rate>
							<duration>180</duration>
							<timecode>
								<rate>
									<timebase>25</timebase>
									<ntsc>FALSE</ntsc>
								</rate>
								<string>00:00:00:01</string>
								<frame>1</frame>
								<displayformat>NDF</displayformat>
							</timecode>
							<media>
								<video>
									<samplecharacteristics>
										<rate>
											<timebase>25</timebase>
											<ntsc>FALSE</ntsc>
										</rate>
										<width>1920</width>
										<height>1080</height>
										<anamorphic>FALSE</anamorphic>
										<pixelaspectratio>square</pixelaspectratio>
										<fielddominance>none</fielddominance>
									</samplecharacteristics>
								</video>
							</media>
						</file>
						<filter>
							<effect>
								<name>Basic Motion</name>
								<effectid>basic</effectid>
								<effectcategory>motion</effectcategory>
								<effecttype>motion</effecttype>
								<mediatype>video</mediatype>
								<pproBypass>false</pproBypass>
								<parameter authoringApp="PremierePro">
									<parameterid>scale</parameterid>
									<name>Scale</name>
									<valuemin>0</valuemin>
									<valuemax>1000</valuemax>
									<value>55</value>
								</parameter>
								<parameter authoringApp="PremierePro">
									<parameterid>rotation</parameterid>
									<name>Rotation</name>
									<valuemin>-8640</valuemin>
									<valuemax>8640</valuemax>
									<value>0</value>
								</parameter>
								<parameter authoringApp="PremierePro">
									<parameterid>center</parameterid>
									<name>Center</name>
									<value>
										<horiz>0</horiz>
										<vert>0</vert>
									</value>
								</parameter>
								<parameter authoringApp="PremierePro">
									<parameterid>centerOffset</parameterid>
									<name>Anchor Point</name>
									<value>
										<horiz>0</horiz>
										<vert>0</vert>
									</value>
								</parameter>
								<parameter authoringApp="PremierePro">
									<parameterid>antiflicker</parameterid>
									<name>Anti-flicker Filter</name>
									<valuemin>0.0</valuemin>
									<valuemax>1.0</valuemax>
									<value>0</value>
								</parameter>
							</effect>
						</filter>
						<filter>
							<effect>
								<name>Distort</name>
								<effectid>deformation</effectid>
								<effectcategory>motion</effectcategory>
								<effecttype>motion</effecttype>
								<mediatype>video</mediatype>
								<parameter authoringApp="PremierePro">
									<parameterid>aspect</parameterid>
									<name>Aspect</name>
									<valuemin>-10000</valuemin>
									<valuemax>10000</valuemax>
									<value>-3.12506</value>
								</parameter>
							</effect>
						</filter>
						<logginginfo>
							<description></description>
							<scene></scene>
							<shottake></shottake>
							<lognote></lognote>
							<good></good>
							<originalvideofilename></originalvideofilename>
							<originalaudiofilename></originalaudiofilename>
						</logginginfo>
						<colorinfo>
							<lut></lut>
							<lut1></lut1>
							<asc_sop></asc_sop>
							<asc_sat></asc_sat>
							<lut2></lut2>
						</colorinfo>
						<labels>
							<label2>Violet</label2>
						</labels>
					</clipitem>
					<clipitem id="clipitem-590">
						<masterclipid>masterclip-247</masterclipid>
						<name>ЛЮСЯ ЧЕБОТИНА_СОЛНЦЕ МОНАКО___MSWCLP004812.mov</name>
						<enabled>TRUE</enabled>
						<duration>7794</duration>
						<rate>
							<timebase>25</timebase>
							<ntsc>FALSE</ntsc>
						</rate>
						<start>1477</start>
						<end>5171</end>
						<in>170</in>
						<out>3864</out>
						<pproTicksIn>1727308800000</pproTicksIn>
						<pproTicksOut>39260712960000</pproTicksOut>
						<alphatype>none</alphatype>
						<pixelaspectratio>PAL-601</pixelaspectratio>
						<anamorphic>TRUE</anamorphic>
						<pproOriginalPAR>square</pproOriginalPAR>
						<pproOriginalIsAnamorphic>FALSE</pproOriginalIsAnamorphic>
						<file id="file-215">
							<name>ЛЮСЯ ЧЕБОТИНА_СОЛНЦЕ МОНАКО___MSWCLP004812.mov</name>
							<pathurl>file://localhost/Volumes/1Tb/_MUZ_TV/Clips/%d0%9b%d0%ae%d0%a1%d0%af%20%d0%a7%d0%95%d0%91%d0%9e%d0%a2%d0%98%d0%9d%d0%90_%d0%a1%d0%9e%d0%9b%d0%9d%d0%a6%d0%95%20%d0%9c%d0%9e%d0%9d%d0%90%d0%9a%d0%9e___MSWCLP004812.mov</pathurl>
							<rate>
								<timebase>50</timebase>
								<ntsc>FALSE</ntsc>
							</rate>
							<duration>7794</duration>
							<timecode>
								<rate>
									<timebase>50</timebase>
									<ntsc>FALSE</ntsc>
								</rate>
								<string>00:00:00:00</string>
								<frame>0</frame>
								<displayformat>NDF</displayformat>
							</timecode>
							<media>
								<video>
									<samplecharacteristics>
										<rate>
											<timebase>50</timebase>
											<ntsc>FALSE</ntsc>
										</rate>
										<width>720</width>
										<height>576</height>
										<anamorphic>TRUE</anamorphic>
										<pixelaspectratio>PAL-601</pixelaspectratio>
										<pproOriginalIsAnamorphic>FALSE</pproOriginalIsAnamorphic>
										<pproOriginalPAR>square</pproOriginalPAR>
										<fielddominance>none</fielddominance>
									</samplecharacteristics>
								</video>
								<audio>
									<samplecharacteristics>
										<depth>16</depth>
										<samplerate>48000</samplerate>
									</samplecharacteristics>
									<channelcount>2</channelcount>
								</audio>
							</media>
						</file>
						<link>
							<linkclipref>clipitem-590</linkclipref>
							<mediatype>video</mediatype>
							<trackindex>1</trackindex>
							<clipindex>4</clipindex>
						</link>
						<link>
							<linkclipref>clipitem-855</linkclipref>
							<mediatype>audio</mediatype>
							<trackindex>1</trackindex>
							<clipindex>3</clipindex>
							<groupindex>1</groupindex>
						</link>
						<link>
							<linkclipref>clipitem-890</linkclipref>
							<mediatype>audio</mediatype>
							<trackindex>2</trackindex>
							<clipindex>3</clipindex>
							<groupindex>1</groupindex>
						</link>
						<logginginfo>
							<description></description>
							<scene></scene>
							<shottake></shottake>
							<lognote></lognote>
							<good></good>
							<originalvideofilename></originalvideofilename>
							<originalaudiofilename></originalaudiofilename>
						</logginginfo>
						<colorinfo>
							<lut></lut>
							<lut1></lut1>
							<asc_sop></asc_sop>
							<asc_sat></asc_sat>
							<lut2></lut2>
						</colorinfo>
						<labels>
							<label2>Iris</label2>
						</labels>
					</clipitem>
					<clipitem id="clipitem-591">
						<masterclipid>masterclip-248</masterclipid>
						<name>10_OTB</name>
						<enabled>TRUE</enabled>
						<duration>180</duration>
						<rate>
							<timebase>25</timebase>
							<ntsc>FALSE</ntsc>
						</rate>
						<start>5171</start>
						<end>5246</end>
						<in>0</in>
						<out>180</out>
						<pproTicksIn>0</pproTicksIn>
						<pproTicksOut>1828915200000</pproTicksOut>
						<alphatype>none</alphatype>
						<pixelaspectratio>square</pixelaspectratio>
						<anamorphic>FALSE</anamorphic>
						<file id="file-216">
							<name>NUM_10.mov</name>
							<pathurl>file://localhost/_MUZ_TV/graphika/RU-21/MOD/otb/NUM_10.mov</pathurl>
							<rate>
								<timebase>25</timebase>
								<ntsc>FALSE</ntsc>
							</rate>
							<duration>180</duration>
							<timecode>
								<rate>
									<timebase>25</timebase>
									<ntsc>FALSE</ntsc>
								</rate>
								<string>00:00:00:01</string>
								<frame>1</frame>
								<displayformat>NDF</displayformat>
							</timecode>
							<media>
								<video>
									<samplecharacteristics>
										<rate>
											<timebase>25</timebase>
											<ntsc>FALSE</ntsc>
										</rate>
										<width>1920</width>
										<height>1080</height>
										<anamorphic>FALSE</anamorphic>
										<pixelaspectratio>square</pixelaspectratio>
										<fielddominance>none</fielddominance>
									</samplecharacteristics>
								</video>
							</media>
						</file>
						<filter>
							<effect>
								<name>Basic Motion</name>
								<effectid>basic</effectid>
								<effectcategory>motion</effectcategory>
								<effecttype>motion</effecttype>
								<mediatype>video</mediatype>
								<pproBypass>false</pproBypass>
								<parameter authoringApp="PremierePro">
									<parameterid>scale</parameterid>
									<name>Scale</name>
									<valuemin>0</valuemin>
									<valuemax>1000</valuemax>
									<value>55</value>
								</parameter>
								<parameter authoringApp="PremierePro">
									<parameterid>rotation</parameterid>
									<name>Rotation</name>
									<valuemin>-8640</valuemin>
									<valuemax>8640</valuemax>
									<value>0</value>
								</parameter>
								<parameter authoringApp="PremierePro">
									<parameterid>center</parameterid>
									<name>Center</name>
									<value>
										<horiz>0</horiz>
										<vert>0</vert>
									</value>
								</parameter>
								<parameter authoringApp="PremierePro">
									<parameterid>centerOffset</parameterid>
									<name>Anchor Point</name>
									<value>
										<horiz>0</horiz>
										<vert>0</vert>
									</value>
								</parameter>
								<parameter authoringApp="PremierePro">
									<parameterid>antiflicker</parameterid>
									<name>Anti-flicker Filter</name>
									<valuemin>0.0</valuemin>
									<valuemax>1.0</valuemax>
									<value>0</value>
								</parameter>
							</effect>
						</filter>
						<filter>
							<effect>
								<name>Distort</name>
								<effectid>deformation</effectid>
								<effectcategory>motion</effectcategory>
								<effecttype>motion</effecttype>
								<mediatype>video</mediatype>
								<parameter authoringApp="PremierePro">
									<parameterid>aspect</parameterid>
									<name>Aspect</name>
									<valuemin>-10000</valuemin>
									<valuemax>10000</valuemax>
									<value>-3.12506</value>
								</parameter>
							</effect>
						</filter>
						<logginginfo>
							<description></description>
							<scene></scene>
							<shottake></shottake>
							<lognote></lognote>
							<good></good>
							<originalvideofilename></originalvideofilename>
							<originalaudiofilename></originalaudiofilename>
						</logginginfo>
						<colorinfo>
							<lut></lut>
							<lut1></lut1>
							<asc_sop></asc_sop>
							<asc_sat></asc_sat>
							<lut2></lut2>
						</colorinfo>
						<labels>
							<label2>Violet</label2>
						</labels>
					</clipitem>
					<clipitem id="clipitem-592">
						<masterclipid>masterclip-249</masterclipid>
						<name>ВАНЯ ДМИТРИЕНКО_ВЕНЕРА-ЮПИТЕР___MSWCLP004350.mov</name>
						<enabled>TRUE</enabled>
						<duration>3281</duration>
						<rate>
							<timebase>25</timebase>
							<ntsc>FALSE</ntsc>
						</rate>
						<start>5246</start>
						<end>8354</end>
						<in>148</in>
						<out>3256</out>
						<pproTicksIn>1503774720000</pproTicksIn>
						<pproTicksOut>33083043840000</pproTicksOut>
						<alphatype>none</alphatype>
						<pixelaspectratio>PAL-601</pixelaspectratio>
						<anamorphic>TRUE</anamorphic>
						<pproOriginalPAR>square</pproOriginalPAR>
						<pproOriginalIsAnamorphic>FALSE</pproOriginalIsAnamorphic>
						<file id="file-217">
							<name>ВАНЯ ДМИТРИЕНКО_ВЕНЕРА-ЮПИТЕР___MSWCLP004350.mov</name>
							<pathurl>file://localhost/Volumes/1Tb/_MUZ_TV/Clips/%d0%92%d0%90%d0%9d%d0%af%20%d0%94%d0%9c%d0%98%d0%a2%d0%a0%d0%98%d0%95%d0%9d%d0%9a%d0%9e_%d0%92%d0%95%d0%9d%d0%95%d0%a0%d0%90-%d0%ae%d0%9f%d0%98%d0%a2%d0%95%d0%a0___MSWCLP004350.mov</pathurl>
							<rate>
								<timebase>25</timebase>
								<ntsc>FALSE</ntsc>
							</rate>
							<duration>3281</duration>
							<timecode>
								<rate>
									<timebase>25</timebase>
									<ntsc>FALSE</ntsc>
								</rate>
								<string>00:00:00:00</string>
								<frame>0</frame>
								<displayformat>NDF</displayformat>
							</timecode>
							<media>
								<video>
									<samplecharacteristics>
										<rate>
											<timebase>25</timebase>
											<ntsc>FALSE</ntsc>
										</rate>
										<width>720</width>
										<height>576</height>
										<anamorphic>TRUE</anamorphic>
										<pixelaspectratio>PAL-601</pixelaspectratio>
										<pproOriginalIsAnamorphic>FALSE</pproOriginalIsAnamorphic>
										<pproOriginalPAR>square</pproOriginalPAR>
										<fielddominance>none</fielddominance>
									</samplecharacteristics>
								</video>
								<audio>
									<samplecharacteristics>
										<depth>16</depth>
										<samplerate>48000</samplerate>
									</samplecharacteristics>
									<channelcount>2</channelcount>
								</audio>
							</media>
						</file>
						<link>
							<linkclipref>clipitem-592</linkclipref>
							<mediatype>video</mediatype>
							<trackindex>1</trackindex>
							<clipindex>6</clipindex>
						</link>
						<link>
							<linkclipref>clipitem-856</linkclipref>
							<mediatype>audio</mediatype>
							<trackindex>1</trackindex>
							<clipindex>4</clipindex>
							<groupindex>1</groupindex>
						</link>
						<link>
							<linkclipref>clipitem-891</linkclipref>
							<mediatype>audio</mediatype>
							<trackindex>2</trackindex>
							<clipindex>4</clipindex>
							<groupindex>1</groupindex>
						</link>
						<logginginfo>
							<description></description>
							<scene></scene>
							<shottake></shottake>
							<lognote></lognote>
							<good></good>
							<originalvideofilename></originalvideofilename>
							<originalaudiofilename></originalaudiofilename>
						</logginginfo>
						<colorinfo>
							<lut></lut>
							<lut1></lut1>
							<asc_sop></asc_sop>
							<asc_sat></asc_sat>
							<lut2></lut2>
						</colorinfo>
						<labels>
							<label2>Iris</label2>
						</labels>
					</clipitem>
					<clipitem id="clipitem-593">
						<masterclipid>masterclip-249</masterclipid>
						<name>ВАНЯ ДМИТРИЕНКО_ВЕНЕРА-ЮПИТЕР___MSWCLP004350.mov</name>
						<enabled>TRUE</enabled>
						<duration>3281</duration>
						<rate>
							<timebase>25</timebase>
							<ntsc>FALSE</ntsc>
						</rate>
						<start>8354</start>
						<end>8365</end>
						<in>3256</in>
						<out>3267</out>
						<pproTicksIn>33083043840000</pproTicksIn>
						<pproTicksOut>33194810880000</pproTicksOut>
						<alphatype>none</alphatype>
						<file id="file-217"/>
						<logginginfo>
							<description></description>
							<scene></scene>
							<shottake></shottake>
							<lognote></lognote>
							<good></good>
							<originalvideofilename></originalvideofilename>
							<originalaudiofilename></originalaudiofilename>
						</logginginfo>
						<colorinfo>
							<lut></lut>
							<lut1></lut1>
							<asc_sop></asc_sop>
							<asc_sat></asc_sat>
							<lut2></lut2>
						</colorinfo>
						<labels>
							<label2>Iris</label2>
						</labels>
					</clipitem>
					<clipitem id="clipitem-594">
						<masterclipid>masterclip-250</masterclipid>
						<name>3sek_master</name>
						<enabled>TRUE</enabled>
						<duration>74</duration>
						<rate>
							<timebase>25</timebase>
							<ntsc>FALSE</ntsc>
						</rate>
						<start>8365</start>
						<end>8425</end>
						<in>0</in>
						<out>60</out>
						<pproTicksIn>0</pproTicksIn>
						<pproTicksOut>609638400000</pproTicksOut>
						<alphatype>none</alphatype>
						<pixelaspectratio>square</pixelaspectratio>
						<anamorphic>FALSE</anamorphic>
						<file id="file-218">
							<name>MYZ_RusskiyChart_OtbivkaMini_h264_v2.mp4</name>
							<pathurl>file://localhost/Volumes/1Tb/_MUZ_TV/graphika/RU-21/Otbivka/MYZ_RusskiyChart_OtbivkaMini_h264_v2.mp4</pathurl>
							<rate>
								<timebase>25</timebase>
								<ntsc>FALSE</ntsc>
							</rate>
							<duration>74</duration>
							<timecode>
								<rate>
									<timebase>25</timebase>
									<ntsc>FALSE</ntsc>
								</rate>
								<string>00:00:09:00</string>
								<frame>225</frame>
								<displayformat>NDF</displayformat>
							</timecode>
							<media>
								<video>
									<samplecharacteristics>
										<rate>
											<timebase>25</timebase>
											<ntsc>FALSE</ntsc>
										</rate>
										<width>1920</width>
										<height>1080</height>
										<anamorphic>FALSE</anamorphic>
										<pixelaspectratio>square</pixelaspectratio>
										<fielddominance>none</fielddominance>
									</samplecharacteristics>
								</video>
								<audio>
									<samplecharacteristics>
										<depth>16</depth>
										<samplerate>48000</samplerate>
									</samplecharacteristics>
									<channelcount>2</channelcount>
								</audio>
							</media>
						</file>
						<filter>
							<effect>
								<name>Basic Motion</name>
								<effectid>basic</effectid>
								<effectcategory>motion</effectcategory>
								<effecttype>motion</effecttype>
								<mediatype>video</mediatype>
								<pproBypass>false</pproBypass>
								<parameter authoringApp="PremierePro">
									<parameterid>scale</parameterid>
									<name>Scale</name>
									<valuemin>0</valuemin>
									<valuemax>1000</valuemax>
									<value>55</value>
								</parameter>
								<parameter authoringApp="PremierePro">
									<parameterid>rotation</parameterid>
									<name>Rotation</name>
									<valuemin>-8640</valuemin>
									<valuemax>8640</valuemax>
									<value>0</value>
								</parameter>
								<parameter authoringApp="PremierePro">
									<parameterid>center</parameterid>
									<name>Center</name>
									<value>
										<horiz>0</horiz>
										<vert>0</vert>
									</value>
								</parameter>
								<parameter authoringApp="PremierePro">
									<parameterid>centerOffset</parameterid>
									<name>Anchor Point</name>
									<value>
										<horiz>0</horiz>
										<vert>0</vert>
									</value>
								</parameter>
								<parameter authoringApp="PremierePro">
									<parameterid>antiflicker</parameterid>
									<name>Anti-flicker Filter</name>
									<valuemin>0.0</valuemin>
									<valuemax>1.0</valuemax>
									<value>0</value>
								</parameter>
							</effect>
						</filter>
						<filter>
							<effect>
								<name>Distort</name>
								<effectid>deformation</effectid>
								<effectcategory>motion</effectcategory>
								<effecttype>motion</effecttype>
								<mediatype>video</mediatype>
								<parameter authoringApp="PremierePro">
									<parameterid>aspect</parameterid>
									<name>Aspect</name>
									<valuemin>-10000</valuemin>
									<valuemax>10000</valuemax>
									<value>-3.125</value>
								</parameter>
							</effect>
						</filter>
						<link>
							<linkclipref>clipitem-594</linkclipref>
							<mediatype>video</mediatype>
							<trackindex>1</trackindex>
							<clipindex>8</clipindex>
						</link>
						<link>
							<linkclipref>clipitem-857</linkclipref>
							<mediatype>audio</mediatype>
							<trackindex>1</trackindex>
							<clipindex>5</clipindex>
							<groupindex>1</groupindex>
						</link>
						<link>
							<linkclipref>clipitem-892</linkclipref>
							<mediatype>audio</mediatype>
							<trackindex>2</trackindex>
							<clipindex>5</clipindex>
							<groupindex>1</groupindex>
						</link>
						<logginginfo>
							<description></description>
							<scene></scene>
							<shottake></shottake>
							<lognote></lognote>
							<good></good>
							<originalvideofilename></originalvideofilename>
							<originalaudiofilename></originalaudiofilename>
						</logginginfo>
						<colorinfo>
							<lut></lut>
							<lut1></lut1>
							<asc_sop></asc_sop>
							<asc_sat></asc_sat>
							<lut2></lut2>
						</colorinfo>
						<labels>
							<label2>Purple</label2>
						</labels>
					</clipitem>
					<clipitem id="clipitem-595">
						<masterclipid>masterclip-244</masterclipid>
						<name>Nested Sequence_470</name>
						<enabled>TRUE</enabled>
						<duration>13650</duration>
						<rate>
							<timebase>25</timebase>
							<ntsc>FALSE</ntsc>
						</rate>
						<start>8425</start>
						<end>9247</end>
						<in>1188</in>
						<out>2010</out>
						<pproTicksIn>12070840320000</pproTicksIn>
						<pproTicksOut>20422886400000</pproTicksOut>
						<sequence id="sequence-36"/>
						<link>
							<linkclipref>clipitem-595</linkclipref>
							<mediatype>video</mediatype>
							<trackindex>1</trackindex>
							<clipindex>9</clipindex>
						</link>
						<link>
							<linkclipref>clipitem-858</linkclipref>
							<mediatype>audio</mediatype>
							<trackindex>1</trackindex>
							<clipindex>6</clipindex>
							<groupindex>1</groupindex>
						</link>
						<link>
							<linkclipref>clipitem-893</linkclipref>
							<mediatype>audio</mediatype>
							<trackindex>2</trackindex>
							<clipindex>6</clipindex>
							<groupindex>1</groupindex>
						</link>
						<labels>
							<label2>Forest</label2>
						</labels>
					</clipitem>
					<clipitem id="clipitem-596">
						<masterclipid>masterclip-251</masterclipid>
						<name>9_OTB</name>
						<enabled>TRUE</enabled>
						<duration>180</duration>
						<rate>
							<timebase>25</timebase>
							<ntsc>FALSE</ntsc>
						</rate>
						<start>9247</start>
						<end>9322</end>
						<in>0</in>
						<out>180</out>
						<pproTicksIn>0</pproTicksIn>
						<pproTicksOut>1828915200000</pproTicksOut>
						<alphatype>none</alphatype>
						<pixelaspectratio>square</pixelaspectratio>
						<anamorphic>FALSE</anamorphic>
						<file id="file-219">
							<name>NUM_9.mov</name>
							<pathurl>file://localhost/_MUZ_TV/graphika/RU-21/MOD/otb/NUM_9.mov</pathurl>
							<rate>
								<timebase>25</timebase>
								<ntsc>FALSE</ntsc>
							</rate>
							<duration>180</duration>
							<timecode>
								<rate>
									<timebase>25</timebase>
									<ntsc>FALSE</ntsc>
								</rate>
								<string>00:00:00:01</string>
								<frame>1</frame>
								<displayformat>NDF</displayformat>
							</timecode>
							<media>
								<video>
									<samplecharacteristics>
										<rate>
											<timebase>25</timebase>
											<ntsc>FALSE</ntsc>
										</rate>
										<width>1920</width>
										<height>1080</height>
										<anamorphic>FALSE</anamorphic>
										<pixelaspectratio>square</pixelaspectratio>
										<fielddominance>none</fielddominance>
									</samplecharacteristics>
								</video>
							</media>
						</file>
						<filter>
							<effect>
								<name>Basic Motion</name>
								<effectid>basic</effectid>
								<effectcategory>motion</effectcategory>
								<effecttype>motion</effecttype>
								<mediatype>video</mediatype>
								<pproBypass>false</pproBypass>
								<parameter authoringApp="PremierePro">
									<parameterid>scale</parameterid>
									<name>Scale</name>
									<valuemin>0</valuemin>
									<valuemax>1000</valuemax>
									<value>55</value>
								</parameter>
								<parameter authoringApp="PremierePro">
									<parameterid>rotation</parameterid>
									<name>Rotation</name>
									<valuemin>-8640</valuemin>
									<valuemax>8640</valuemax>
									<value>0</value>
								</parameter>
								<parameter authoringApp="PremierePro">
									<parameterid>center</parameterid>
									<name>Center</name>
									<value>
										<horiz>0</horiz>
										<vert>0</vert>
									</value>
								</parameter>
								<parameter authoringApp="PremierePro">
									<parameterid>centerOffset</parameterid>
									<name>Anchor Point</name>
									<value>
										<horiz>0</horiz>
										<vert>0</vert>
									</value>
								</parameter>
								<parameter authoringApp="PremierePro">
									<parameterid>antiflicker</parameterid>
									<name>Anti-flicker Filter</name>
									<valuemin>0.0</valuemin>
									<valuemax>1.0</valuemax>
									<value>0</value>
								</parameter>
							</effect>
						</filter>
						<filter>
							<effect>
								<name>Distort</name>
								<effectid>deformation</effectid>
								<effectcategory>motion</effectcategory>
								<effecttype>motion</effecttype>
								<mediatype>video</mediatype>
								<parameter authoringApp="PremierePro">
									<parameterid>aspect</parameterid>
									<name>Aspect</name>
									<valuemin>-10000</valuemin>
									<valuemax>10000</valuemax>
									<value>-3.12506</value>
								</parameter>
							</effect>
						</filter>
						<logginginfo>
							<description></description>
							<scene></scene>
							<shottake></shottake>
							<lognote></lognote>
							<good></good>
							<originalvideofilename></originalvideofilename>
							<originalaudiofilename></originalaudiofilename>
						</logginginfo>
						<colorinfo>
							<lut></lut>
							<lut1></lut1>
							<asc_sop></asc_sop>
							<asc_sat></asc_sat>
							<lut2></lut2>
						</colorinfo>
						<labels>
							<label2>Violet</label2>
						</labels>
					</clipitem>
					<clipitem id="clipitem-597">
						<masterclipid>masterclip-252</masterclipid>
						<name>GUMA_СТЕКЛЯННАЯ___MSWCLP004707.mov</name>
						<enabled>TRUE</enabled>
						<duration>4102</duration>
						<rate>
							<timebase>25</timebase>
							<ntsc>FALSE</ntsc>
						</rate>
						<start>9322</start>
						<end>13261</end>
						<in>163</in>
						<out>4102</out>
						<pproTicksIn>1656184320000</pproTicksIn>
						<pproTicksOut>41678945280000</pproTicksOut>
						<alphatype>none</alphatype>
						<pixelaspectratio>PAL-601</pixelaspectratio>
						<anamorphic>TRUE</anamorphic>
						<pproOriginalPAR>square</pproOriginalPAR>
						<pproOriginalIsAnamorphic>FALSE</pproOriginalIsAnamorphic>
						<file id="file-220">
							<name>GUMA_СТЕКЛЯННАЯ___MSWCLP004707.mov</name>
							<pathurl>file://localhost/Volumes/1Tb/_MUZ_TV/Clips/GUMA_%d0%a1%d0%a2%d0%95%d0%9a%d0%9b%d0%af%d0%9d%d0%9d%d0%90%d0%af___MSWCLP004707.mov</pathurl>
							<rate>
								<timebase>25</timebase>
								<ntsc>FALSE</ntsc>
							</rate>
							<duration>4102</duration>
							<timecode>
								<rate>
									<timebase>25</timebase>
									<ntsc>FALSE</ntsc>
								</rate>
								<string>00:00:00:00</string>
								<frame>0</frame>
								<displayformat>NDF</displayformat>
							</timecode>
							<media>
								<video>
									<samplecharacteristics>
										<rate>
											<timebase>25</timebase>
											<ntsc>FALSE</ntsc>
										</rate>
										<width>720</width>
										<height>576</height>
										<anamorphic>TRUE</anamorphic>
										<pixelaspectratio>PAL-601</pixelaspectratio>
										<pproOriginalIsAnamorphic>FALSE</pproOriginalIsAnamorphic>
										<pproOriginalPAR>square</pproOriginalPAR>
										<fielddominance>none</fielddominance>
									</samplecharacteristics>
								</video>
								<audio>
									<samplecharacteristics>
										<depth>16</depth>
										<samplerate>48000</samplerate>
									</samplecharacteristics>
									<channelcount>2</channelcount>
								</audio>
							</media>
						</file>
						<link>
							<linkclipref>clipitem-597</linkclipref>
							<mediatype>video</mediatype>
							<trackindex>1</trackindex>
							<clipindex>11</clipindex>
						</link>
						<link>
							<linkclipref>clipitem-859</linkclipref>
							<mediatype>audio</mediatype>
							<trackindex>1</trackindex>
							<clipindex>7</clipindex>
							<groupindex>1</groupindex>
						</link>
						<link>
							<linkclipref>clipitem-894</linkclipref>
							<mediatype>audio</mediatype>
							<trackindex>2</trackindex>
							<clipindex>7</clipindex>
							<groupindex>1</groupindex>
						</link>
						<logginginfo>
							<description></description>
							<scene></scene>
							<shottake></shottake>
							<lognote></lognote>
							<good></good>
							<originalvideofilename></originalvideofilename>
							<originalaudiofilename></originalaudiofilename>
						</logginginfo>
						<colorinfo>
							<lut></lut>
							<lut1></lut1>
							<asc_sop></asc_sop>
							<asc_sat></asc_sat>
							<lut2></lut2>
						</colorinfo>
						<labels>
							<label2>Iris</label2>
						</labels>
					</clipitem>
					<clipitem id="clipitem-598">
						<masterclipid>masterclip-250</masterclipid>
						<name>3sek_master</name>
						<enabled>TRUE</enabled>
						<duration>74</duration>
						<rate>
							<timebase>25</timebase>
							<ntsc>FALSE</ntsc>
						</rate>
						<start>13261</start>
						<end>13321</end>
						<in>0</in>
						<out>60</out>
						<pproTicksIn>0</pproTicksIn>
						<pproTicksOut>609638400000</pproTicksOut>
						<alphatype>none</alphatype>
						<file id="file-218"/>
						<filter>
							<effect>
								<name>Basic Motion</name>
								<effectid>basic</effectid>
								<effectcategory>motion</effectcategory>
								<effecttype>motion</effecttype>
								<mediatype>video</mediatype>
								<pproBypass>false</pproBypass>
								<parameter authoringApp="PremierePro">
									<parameterid>scale</parameterid>
									<name>Scale</name>
									<valuemin>0</valuemin>
									<valuemax>1000</valuemax>
									<value>55</value>
								</parameter>
								<parameter authoringApp="PremierePro">
									<parameterid>rotation</parameterid>
									<name>Rotation</name>
									<valuemin>-8640</valuemin>
									<valuemax>8640</valuemax>
									<value>0</value>
								</parameter>
								<parameter authoringApp="PremierePro">
									<parameterid>center</parameterid>
									<name>Center</name>
									<value>
										<horiz>0</horiz>
										<vert>0</vert>
									</value>
								</parameter>
								<parameter authoringApp="PremierePro">
									<parameterid>centerOffset</parameterid>
									<name>Anchor Point</name>
									<value>
										<horiz>0</horiz>
										<vert>0</vert>
									</value>
								</parameter>
								<parameter authoringApp="PremierePro">
									<parameterid>antiflicker</parameterid>
									<name>Anti-flicker Filter</name>
									<valuemin>0.0</valuemin>
									<valuemax>1.0</valuemax>
									<value>0</value>
								</parameter>
							</effect>
						</filter>
						<filter>
							<effect>
								<name>Distort</name>
								<effectid>deformation</effectid>
								<effectcategory>motion</effectcategory>
								<effecttype>motion</effecttype>
								<mediatype>video</mediatype>
								<parameter authoringApp="PremierePro">
									<parameterid>aspect</parameterid>
									<name>Aspect</name>
									<valuemin>-10000</valuemin>
									<valuemax>10000</valuemax>
									<value>-3.125</value>
								</parameter>
							</effect>
						</filter>
						<link>
							<linkclipref>clipitem-598</linkclipref>
							<mediatype>video</mediatype>
							<trackindex>1</trackindex>
							<clipindex>12</clipindex>
						</link>
						<link>
							<linkclipref>clipitem-860</linkclipref>
							<mediatype>audio</mediatype>
							<trackindex>1</trackindex>
							<clipindex>8</clipindex>
							<groupindex>1</groupindex>
						</link>
						<link>
							<linkclipref>clipitem-895</linkclipref>
							<mediatype>audio</mediatype>
							<trackindex>2</trackindex>
							<clipindex>8</clipindex>
							<groupindex>1</groupindex>
						</link>
						<logginginfo>
							<description></description>
							<scene></scene>
							<shottake></shottake>
							<lognote></lognote>
							<good></good>
							<originalvideofilename></originalvideofilename>
							<originalaudiofilename></originalaudiofilename>
						</logginginfo>
						<colorinfo>
							<lut></lut>
							<lut1></lut1>
							<asc_sop></asc_sop>
							<asc_sat></asc_sat>
							<lut2></lut2>
						</colorinfo>
						<labels>
							<label2>Purple</label2>
						</labels>
					</clipitem>
					<clipitem id="clipitem-599">
						<masterclipid>masterclip-244</masterclipid>
						<name>Nested Sequence_470</name>
						<enabled>TRUE</enabled>
						<duration>13650</duration>
						<rate>
							<timebase>25</timebase>
							<ntsc>FALSE</ntsc>
						</rate>
						<start>13321</start>
						<end>14193</end>
						<in>2029</in>
						<out>2901</out>
						<pproTicksIn>20615938560000</pproTicksIn>
						<pproTicksOut>29476016640000</pproTicksOut>
						<sequence id="sequence-36"/>
						<link>
							<linkclipref>clipitem-599</linkclipref>
							<mediatype>video</mediatype>
							<trackindex>1</trackindex>
							<clipindex>13</clipindex>
						</link>
						<link>
							<linkclipref>clipitem-861</linkclipref>
							<mediatype>audio</mediatype>
							<trackindex>1</trackindex>
							<clipindex>9</clipindex>
							<groupindex>1</groupindex>
						</link>
						<link>
							<linkclipref>clipitem-896</linkclipref>
							<mediatype>audio</mediatype>
							<trackindex>2</trackindex>
							<clipindex>9</clipindex>
							<groupindex>1</groupindex>
						</link>
						<labels>
							<label2>Forest</label2>
						</labels>
					</clipitem>
					<clipitem id="clipitem-600">
						<masterclipid>masterclip-253</masterclipid>
						<name>8_OTB</name>
						<enabled>TRUE</enabled>
						<duration>180</duration>
						<rate>
							<timebase>25</timebase>
							<ntsc>FALSE</ntsc>
						</rate>
						<start>14193</start>
						<end>14268</end>
						<in>0</in>
						<out>180</out>
						<pproTicksIn>0</pproTicksIn>
						<pproTicksOut>1828915200000</pproTicksOut>
						<alphatype>none</alphatype>
						<pixelaspectratio>square</pixelaspectratio>
						<anamorphic>FALSE</anamorphic>
						<file id="file-221">
							<name>NUM_8.mov</name>
							<pathurl>file://localhost/_MUZ_TV/graphika/RU-21/MOD/otb/NUM_8.mov</pathurl>
							<rate>
								<timebase>25</timebase>
								<ntsc>FALSE</ntsc>
							</rate>
							<duration>180</duration>
							<timecode>
								<rate>
									<timebase>25</timebase>
									<ntsc>FALSE</ntsc>
								</rate>
								<string>00:00:00:01</string>
								<frame>1</frame>
								<displayformat>NDF</displayformat>
							</timecode>
							<media>
								<video>
									<samplecharacteristics>
										<rate>
											<timebase>25</timebase>
											<ntsc>FALSE</ntsc>
										</rate>
										<width>1920</width>
										<height>1080</height>
										<anamorphic>FALSE</anamorphic>
										<pixelaspectratio>square</pixelaspectratio>
										<fielddominance>none</fielddominance>
									</samplecharacteristics>
								</video>
							</media>
						</file>
						<filter>
							<effect>
								<name>Basic Motion</name>
								<effectid>basic</effectid>
								<effectcategory>motion</effectcategory>
								<effecttype>motion</effecttype>
								<mediatype>video</mediatype>
								<pproBypass>false</pproBypass>
								<parameter authoringApp="PremierePro">
									<parameterid>scale</parameterid>
									<name>Scale</name>
									<valuemin>0</valuemin>
									<valuemax>1000</valuemax>
									<value>55</value>
								</parameter>
								<parameter authoringApp="PremierePro">
									<parameterid>rotation</parameterid>
									<name>Rotation</name>
									<valuemin>-8640</valuemin>
									<valuemax>8640</valuemax>
									<value>0</value>
								</parameter>
								<parameter authoringApp="PremierePro">
									<parameterid>center</parameterid>
									<name>Center</name>
									<value>
										<horiz>0</horiz>
										<vert>0</vert>
									</value>
								</parameter>
								<parameter authoringApp="PremierePro">
									<parameterid>centerOffset</parameterid>
									<name>Anchor Point</name>
									<value>
										<horiz>0</horiz>
										<vert>0</vert>
									</value>
								</parameter>
								<parameter authoringApp="PremierePro">
									<parameterid>antiflicker</parameterid>
									<name>Anti-flicker Filter</name>
									<valuemin>0.0</valuemin>
									<valuemax>1.0</valuemax>
									<value>0</value>
								</parameter>
							</effect>
						</filter>
						<filter>
							<effect>
								<name>Distort</name>
								<effectid>deformation</effectid>
								<effectcategory>motion</effectcategory>
								<effecttype>motion</effecttype>
								<mediatype>video</mediatype>
								<parameter authoringApp="PremierePro">
									<parameterid>aspect</parameterid>
									<name>Aspect</name>
									<valuemin>-10000</valuemin>
									<valuemax>10000</valuemax>
									<value>-3.12506</value>
								</parameter>
							</effect>
						</filter>
						<logginginfo>
							<description></description>
							<scene></scene>
							<shottake></shottake>
							<lognote></lognote>
							<good></good>
							<originalvideofilename></originalvideofilename>
							<originalaudiofilename></originalaudiofilename>
						</logginginfo>
						<colorinfo>
							<lut></lut>
							<lut1></lut1>
							<asc_sop></asc_sop>
							<asc_sat></asc_sat>
							<lut2></lut2>
						</colorinfo>
						<labels>
							<label2>Violet</label2>
						</labels>
					</clipitem>
					<clipitem id="clipitem-601">
						<masterclipid>masterclip-254</masterclipid>
						<name>FILATOV &amp; KARAS vs МУМИЙ ТРОЛЛЬ_AMORE МОРЕ, GOODBYE___MSWCLP004662.mov</name>
						<enabled>TRUE</enabled>
						<duration>3313</duration>
						<rate>
							<timebase>25</timebase>
							<ntsc>FALSE</ntsc>
						</rate>
						<start>14268</start>
						<end>17521</end>
						<in>0</in>
						<out>3253</out>
						<pproTicksIn>0</pproTicksIn>
						<pproTicksOut>33052561920000</pproTicksOut>
						<alphatype>none</alphatype>
						<pixelaspectratio>PAL-601</pixelaspectratio>
						<anamorphic>TRUE</anamorphic>
						<pproOriginalPAR>square</pproOriginalPAR>
						<pproOriginalIsAnamorphic>FALSE</pproOriginalIsAnamorphic>
						<file id="file-222">
							<name>FILATOV &amp; KARAS vs МУМИЙ ТРОЛЛЬ_AMORE МОРЕ, GOODBYE___MSWCLP004662.mov</name>
							<pathurl>file://localhost/Volumes/1Tb/_MUZ_TV/Clips/FILATOV%20&amp;%20KARAS%20vs%20%d0%9c%d0%a3%d0%9c%d0%98%d0%98%cc%86%20%d0%a2%d0%a0%d0%9e%d0%9b%d0%9b%d0%ac_AMORE%20%d0%9c%d0%9e%d0%a0%d0%95,%20GOODBYE___MSWCLP004662.mov</pathurl>
							<rate>
								<timebase>25</timebase>
								<ntsc>FALSE</ntsc>
							</rate>
							<duration>3313</duration>
							<timecode>
								<rate>
									<timebase>25</timebase>
									<ntsc>FALSE</ntsc>
								</rate>
								<string>00:00:00:00</string>
								<frame>0</frame>
								<displayformat>NDF</displayformat>
							</timecode>
							<media>
								<video>
									<samplecharacteristics>
										<rate>
											<timebase>25</timebase>
											<ntsc>FALSE</ntsc>
										</rate>
										<width>720</width>
										<height>576</height>
										<anamorphic>TRUE</anamorphic>
										<pixelaspectratio>PAL-601</pixelaspectratio>
										<pproOriginalIsAnamorphic>FALSE</pproOriginalIsAnamorphic>
										<pproOriginalPAR>square</pproOriginalPAR>
										<fielddominance>none</fielddominance>
									</samplecharacteristics>
								</video>
								<audio>
									<samplecharacteristics>
										<depth>16</depth>
										<samplerate>48000</samplerate>
									</samplecharacteristics>
									<channelcount>2</channelcount>
								</audio>
							</media>
						</file>
						<link>
							<linkclipref>clipitem-601</linkclipref>
							<mediatype>video</mediatype>
							<trackindex>1</trackindex>
							<clipindex>15</clipindex>
						</link>
						<link>
							<linkclipref>clipitem-862</linkclipref>
							<mediatype>audio</mediatype>
							<trackindex>1</trackindex>
							<clipindex>10</clipindex>
							<groupindex>1</groupindex>
						</link>
						<link>
							<linkclipref>clipitem-897</linkclipref>
							<mediatype>audio</mediatype>
							<trackindex>2</trackindex>
							<clipindex>10</clipindex>
							<groupindex>1</groupindex>
						</link>
						<logginginfo>
							<description></description>
							<scene></scene>
							<shottake></shottake>
							<lognote></lognote>
							<good></good>
							<originalvideofilename></originalvideofilename>
							<originalaudiofilename></originalaudiofilename>
						</logginginfo>
						<colorinfo>
							<lut></lut>
							<lut1></lut1>
							<asc_sop></asc_sop>
							<asc_sat></asc_sat>
							<lut2></lut2>
						</colorinfo>
						<labels>
							<label2>Iris</label2>
						</labels>
					</clipitem>
					<clipitem id="clipitem-602">
						<masterclipid>masterclip-250</masterclipid>
						<name>3sek_master</name>
						<enabled>TRUE</enabled>
						<duration>74</duration>
						<rate>
							<timebase>25</timebase>
							<ntsc>FALSE</ntsc>
						</rate>
						<start>17521</start>
						<end>17581</end>
						<in>0</in>
						<out>60</out>
						<pproTicksIn>0</pproTicksIn>
						<pproTicksOut>609638400000</pproTicksOut>
						<alphatype>none</alphatype>
						<file id="file-218"/>
						<filter>
							<effect>
								<name>Basic Motion</name>
								<effectid>basic</effectid>
								<effectcategory>motion</effectcategory>
								<effecttype>motion</effecttype>
								<mediatype>video</mediatype>
								<pproBypass>false</pproBypass>
								<parameter authoringApp="PremierePro">
									<parameterid>scale</parameterid>
									<name>Scale</name>
									<valuemin>0</valuemin>
									<valuemax>1000</valuemax>
									<value>55</value>
								</parameter>
								<parameter authoringApp="PremierePro">
									<parameterid>rotation</parameterid>
									<name>Rotation</name>
									<valuemin>-8640</valuemin>
									<valuemax>8640</valuemax>
									<value>0</value>
								</parameter>
								<parameter authoringApp="PremierePro">
									<parameterid>center</parameterid>
									<name>Center</name>
									<value>
										<horiz>0</horiz>
										<vert>0</vert>
									</value>
								</parameter>
								<parameter authoringApp="PremierePro">
									<parameterid>centerOffset</parameterid>
									<name>Anchor Point</name>
									<value>
										<horiz>0</horiz>
										<vert>0</vert>
									</value>
								</parameter>
								<parameter authoringApp="PremierePro">
									<parameterid>antiflicker</parameterid>
									<name>Anti-flicker Filter</name>
									<valuemin>0.0</valuemin>
									<valuemax>1.0</valuemax>
									<value>0</value>
								</parameter>
							</effect>
						</filter>
						<filter>
							<effect>
								<name>Distort</name>
								<effectid>deformation</effectid>
								<effectcategory>motion</effectcategory>
								<effecttype>motion</effecttype>
								<mediatype>video</mediatype>
								<parameter authoringApp="PremierePro">
									<parameterid>aspect</parameterid>
									<name>Aspect</name>
									<valuemin>-10000</valuemin>
									<valuemax>10000</valuemax>
									<value>-3.125</value>
								</parameter>
							</effect>
						</filter>
						<link>
							<linkclipref>clipitem-602</linkclipref>
							<mediatype>video</mediatype>
							<trackindex>1</trackindex>
							<clipindex>16</clipindex>
						</link>
						<link>
							<linkclipref>clipitem-863</linkclipref>
							<mediatype>audio</mediatype>
							<trackindex>1</trackindex>
							<clipindex>11</clipindex>
							<groupindex>1</groupindex>
						</link>
						<link>
							<linkclipref>clipitem-898</linkclipref>
							<mediatype>audio</mediatype>
							<trackindex>2</trackindex>
							<clipindex>11</clipindex>
							<groupindex>1</groupindex>
						</link>
						<logginginfo>
							<description></description>
							<scene></scene>
							<shottake></shottake>
							<lognote></lognote>
							<good></good>
							<originalvideofilename></originalvideofilename>
							<originalaudiofilename></originalaudiofilename>
						</logginginfo>
						<colorinfo>
							<lut></lut>
							<lut1></lut1>
							<asc_sop></asc_sop>
							<asc_sat></asc_sat>
							<lut2></lut2>
						</colorinfo>
						<labels>
							<label2>Purple</label2>
						</labels>
					</clipitem>
					<clipitem id="clipitem-603">
						<masterclipid>masterclip-244</masterclipid>
						<name>Nested Sequence_470</name>
						<enabled>TRUE</enabled>
						<duration>13650</duration>
						<rate>
							<timebase>25</timebase>
							<ntsc>FALSE</ntsc>
						</rate>
						<start>17581</start>
						<end>18743</end>
						<in>2922</in>
						<out>4084</out>
						<pproTicksIn>29689390080000</pproTicksIn>
						<pproTicksOut>41496053760000</pproTicksOut>
						<sequence id="sequence-36"/>
						<link>
							<linkclipref>clipitem-603</linkclipref>
							<mediatype>video</mediatype>
							<trackindex>1</trackindex>
							<clipindex>17</clipindex>
						</link>
						<link>
							<linkclipref>clipitem-864</linkclipref>
							<mediatype>audio</mediatype>
							<trackindex>1</trackindex>
							<clipindex>12</clipindex>
							<groupindex>1</groupindex>
						</link>
						<link>
							<linkclipref>clipitem-899</linkclipref>
							<mediatype>audio</mediatype>
							<trackindex>2</trackindex>
							<clipindex>12</clipindex>
							<groupindex>1</groupindex>
						</link>
						<labels>
							<label2>Forest</label2>
						</labels>
					</clipitem>
					<clipitem id="clipitem-604">
						<masterclipid>masterclip-255</masterclipid>
						<name>7_OTB</name>
						<enabled>TRUE</enabled>
						<duration>180</duration>
						<rate>
							<timebase>25</timebase>
							<ntsc>FALSE</ntsc>
						</rate>
						<start>18743</start>
						<end>18818</end>
						<in>0</in>
						<out>180</out>
						<pproTicksIn>0</pproTicksIn>
						<pproTicksOut>1828915200000</pproTicksOut>
						<alphatype>none</alphatype>
						<pixelaspectratio>square</pixelaspectratio>
						<anamorphic>FALSE</anamorphic>
						<file id="file-223">
							<name>NUM_7.mov</name>
							<pathurl>file://localhost/_MUZ_TV/graphika/RU-21/MOD/otb/NUM_7.mov</pathurl>
							<rate>
								<timebase>25</timebase>
								<ntsc>FALSE</ntsc>
							</rate>
							<duration>180</duration>
							<timecode>
								<rate>
									<timebase>25</timebase>
									<ntsc>FALSE</ntsc>
								</rate>
								<string>00:00:00:01</string>
								<frame>1</frame>
								<displayformat>NDF</displayformat>
							</timecode>
							<media>
								<video>
									<samplecharacteristics>
										<rate>
											<timebase>25</timebase>
											<ntsc>FALSE</ntsc>
										</rate>
										<width>1920</width>
										<height>1080</height>
										<anamorphic>FALSE</anamorphic>
										<pixelaspectratio>square</pixelaspectratio>
										<fielddominance>none</fielddominance>
									</samplecharacteristics>
								</video>
							</media>
						</file>
						<filter>
							<effect>
								<name>Basic Motion</name>
								<effectid>basic</effectid>
								<effectcategory>motion</effectcategory>
								<effecttype>motion</effecttype>
								<mediatype>video</mediatype>
								<pproBypass>false</pproBypass>
								<parameter authoringApp="PremierePro">
									<parameterid>scale</parameterid>
									<name>Scale</name>
									<valuemin>0</valuemin>
									<valuemax>1000</valuemax>
									<value>55</value>
								</parameter>
								<parameter authoringApp="PremierePro">
									<parameterid>rotation</parameterid>
									<name>Rotation</name>
									<valuemin>-8640</valuemin>
									<valuemax>8640</valuemax>
									<value>0</value>
								</parameter>
								<parameter authoringApp="PremierePro">
									<parameterid>center</parameterid>
									<name>Center</name>
									<value>
										<horiz>0</horiz>
										<vert>0</vert>
									</value>
								</parameter>
								<parameter authoringApp="PremierePro">
									<parameterid>centerOffset</parameterid>
									<name>Anchor Point</name>
									<value>
										<horiz>0</horiz>
										<vert>0</vert>
									</value>
								</parameter>
								<parameter authoringApp="PremierePro">
									<parameterid>antiflicker</parameterid>
									<name>Anti-flicker Filter</name>
									<valuemin>0.0</valuemin>
									<valuemax>1.0</valuemax>
									<value>0</value>
								</parameter>
							</effect>
						</filter>
						<filter>
							<effect>
								<name>Distort</name>
								<effectid>deformation</effectid>
								<effectcategory>motion</effectcategory>
								<effecttype>motion</effecttype>
								<mediatype>video</mediatype>
								<parameter authoringApp="PremierePro">
									<parameterid>aspect</parameterid>
									<name>Aspect</name>
									<valuemin>-10000</valuemin>
									<valuemax>10000</valuemax>
									<value>-3.12506</value>
								</parameter>
							</effect>
						</filter>
						<logginginfo>
							<description></description>
							<scene></scene>
							<shottake></shottake>
							<lognote></lognote>
							<good></good>
							<originalvideofilename></originalvideofilename>
							<originalaudiofilename></originalaudiofilename>
						</logginginfo>
						<colorinfo>
							<lut></lut>
							<lut1></lut1>
							<asc_sop></asc_sop>
							<asc_sat></asc_sat>
							<lut2></lut2>
						</colorinfo>
						<labels>
							<label2>Violet</label2>
						</labels>
					</clipitem>
					<clipitem id="clipitem-605">
						<masterclipid>masterclip-256</masterclipid>
						<name>DABRO_НА ЧАСАХ НОЛЬ-НОЛЬ___MSWCLP004492.mov</name>
						<enabled>TRUE</enabled>
						<duration>5559</duration>
						<rate>
							<timebase>25</timebase>
							<ntsc>FALSE</ntsc>
						</rate>
						<start>18818</start>
						<end>23890</end>
						<in>487</in>
						<out>5559</out>
						<pproTicksIn>4948231680000</pproTicksIn>
						<pproTicksOut>56482997760000</pproTicksOut>
						<alphatype>none</alphatype>
						<pixelaspectratio>PAL-601</pixelaspectratio>
						<anamorphic>TRUE</anamorphic>
						<pproOriginalPAR>square</pproOriginalPAR>
						<pproOriginalIsAnamorphic>FALSE</pproOriginalIsAnamorphic>
						<file id="file-224">
							<name>DABRO_НА ЧАСАХ НОЛЬ-НОЛЬ___MSWCLP004492.mov</name>
							<pathurl>file://localhost/Volumes/1Tb/_MUZ_TV/Clips/DABRO_%d0%9d%d0%90%20%d0%a7%d0%90%d0%a1%d0%90%d0%a5%20%d0%9d%d0%9e%d0%9b%d0%ac-%d0%9d%d0%9e%d0%9b%d0%ac___MSWCLP004492.mov</pathurl>
							<rate>
								<timebase>25</timebase>
								<ntsc>FALSE</ntsc>
							</rate>
							<duration>5559</duration>
							<timecode>
								<rate>
									<timebase>25</timebase>
									<ntsc>FALSE</ntsc>
								</rate>
								<string>00:00:00:00</string>
								<frame>0</frame>
								<displayformat>NDF</displayformat>
							</timecode>
							<media>
								<video>
									<samplecharacteristics>
										<rate>
											<timebase>25</timebase>
											<ntsc>FALSE</ntsc>
										</rate>
										<width>720</width>
										<height>576</height>
										<anamorphic>TRUE</anamorphic>
										<pixelaspectratio>PAL-601</pixelaspectratio>
										<pproOriginalIsAnamorphic>FALSE</pproOriginalIsAnamorphic>
										<pproOriginalPAR>square</pproOriginalPAR>
										<fielddominance>none</fielddominance>
									</samplecharacteristics>
								</video>
								<audio>
									<samplecharacteristics>
										<depth>16</depth>
										<samplerate>48000</samplerate>
									</samplecharacteristics>
									<channelcount>2</channelcount>
								</audio>
							</media>
						</file>
						<link>
							<linkclipref>clipitem-605</linkclipref>
							<mediatype>video</mediatype>
							<trackindex>1</trackindex>
							<clipindex>19</clipindex>
						</link>
						<link>
							<linkclipref>clipitem-865</linkclipref>
							<mediatype>audio</mediatype>
							<trackindex>1</trackindex>
							<clipindex>13</clipindex>
							<groupindex>1</groupindex>
						</link>
						<link>
							<linkclipref>clipitem-900</linkclipref>
							<mediatype>audio</mediatype>
							<trackindex>2</trackindex>
							<clipindex>13</clipindex>
							<groupindex>1</groupindex>
						</link>
						<logginginfo>
							<description></description>
							<scene></scene>
							<shottake></shottake>
							<lognote></lognote>
							<good></good>
							<originalvideofilename></originalvideofilename>
							<originalaudiofilename></originalaudiofilename>
						</logginginfo>
						<colorinfo>
							<lut></lut>
							<lut1></lut1>
							<asc_sop></asc_sop>
							<asc_sat></asc_sat>
							<lut2></lut2>
						</colorinfo>
						<labels>
							<label2>Iris</label2>
						</labels>
					</clipitem>
					<clipitem id="clipitem-606">
						<masterclipid>masterclip-257</masterclipid>
						<name>7_OTB</name>
						<enabled>TRUE</enabled>
						<duration>180</duration>
						<rate>
							<timebase>25</timebase>
							<ntsc>FALSE</ntsc>
						</rate>
						<start>23890</start>
						<end>23965</end>
						<in>0</in>
						<out>180</out>
						<pproTicksIn>0</pproTicksIn>
						<pproTicksOut>1828915200000</pproTicksOut>
						<alphatype>none</alphatype>
						<pixelaspectratio>square</pixelaspectratio>
						<anamorphic>FALSE</anamorphic>
						<file id="file-225">
							<name>NUM_7.mov</name>
							<pathurl>file://localhost/_MUZ_TV/graphika/RU-21/MOD/otb/NUM_7.mov</pathurl>
							<rate>
								<timebase>25</timebase>
								<ntsc>FALSE</ntsc>
							</rate>
							<duration>180</duration>
							<timecode>
								<rate>
									<timebase>25</timebase>
									<ntsc>FALSE</ntsc>
								</rate>
								<string>00:00:00:01</string>
								<frame>1</frame>
								<displayformat>NDF</displayformat>
							</timecode>
							<media>
								<video>
									<samplecharacteristics>
										<rate>
											<timebase>25</timebase>
											<ntsc>FALSE</ntsc>
										</rate>
										<width>1920</width>
										<height>1080</height>
										<anamorphic>FALSE</anamorphic>
										<pixelaspectratio>square</pixelaspectratio>
										<fielddominance>none</fielddominance>
									</samplecharacteristics>
								</video>
							</media>
						</file>
						<filter>
							<effect>
								<name>Basic Motion</name>
								<effectid>basic</effectid>
								<effectcategory>motion</effectcategory>
								<effecttype>motion</effecttype>
								<mediatype>video</mediatype>
								<pproBypass>false</pproBypass>
								<parameter authoringApp="PremierePro">
									<parameterid>scale</parameterid>
									<name>Scale</name>
									<valuemin>0</valuemin>
									<valuemax>1000</valuemax>
									<value>55</value>
								</parameter>
								<parameter authoringApp="PremierePro">
									<parameterid>rotation</parameterid>
									<name>Rotation</name>
									<valuemin>-8640</valuemin>
									<valuemax>8640</valuemax>
									<value>0</value>
								</parameter>
								<parameter authoringApp="PremierePro">
									<parameterid>center</parameterid>
									<name>Center</name>
									<value>
										<horiz>0</horiz>
										<vert>0</vert>
									</value>
								</parameter>
								<parameter authoringApp="PremierePro">
									<parameterid>centerOffset</parameterid>
									<name>Anchor Point</name>
									<value>
										<horiz>0</horiz>
										<vert>0</vert>
									</value>
								</parameter>
								<parameter authoringApp="PremierePro">
									<parameterid>antiflicker</parameterid>
									<name>Anti-flicker Filter</name>
									<valuemin>0.0</valuemin>
									<valuemax>1.0</valuemax>
									<value>0</value>
								</parameter>
							</effect>
						</filter>
						<filter>
							<effect>
								<name>Distort</name>
								<effectid>deformation</effectid>
								<effectcategory>motion</effectcategory>
								<effecttype>motion</effecttype>
								<mediatype>video</mediatype>
								<parameter authoringApp="PremierePro">
									<parameterid>aspect</parameterid>
									<name>Aspect</name>
									<valuemin>-10000</valuemin>
									<valuemax>10000</valuemax>
									<value>-3.12506</value>
								</parameter>
							</effect>
						</filter>
						<logginginfo>
							<description></description>
							<scene></scene>
							<shottake></shottake>
							<lognote></lognote>
							<good></good>
							<originalvideofilename></originalvideofilename>
							<originalaudiofilename></originalaudiofilename>
						</logginginfo>
						<colorinfo>
							<lut></lut>
							<lut1></lut1>
							<asc_sop></asc_sop>
							<asc_sat></asc_sat>
							<lut2></lut2>
						</colorinfo>
						<labels>
							<label2>Violet</label2>
						</labels>
					</clipitem>
					<clipitem id="clipitem-607">
						<masterclipid>masterclip-258</masterclipid>
						<name>БАСТА_ТЫ БЫЛА ПРАВА___MSWCLP004606.mov</name>
						<enabled>TRUE</enabled>
						<duration>2977</duration>
						<rate>
							<timebase>25</timebase>
							<ntsc>FALSE</ntsc>
						</rate>
						<start>23965</start>
						<end>26757</end>
						<in>169</in>
						<out>2961</out>
						<pproTicksIn>1717148160000</pproTicksIn>
						<pproTicksOut>30085655040000</pproTicksOut>
						<alphatype>none</alphatype>
						<pixelaspectratio>PAL-601</pixelaspectratio>
						<anamorphic>TRUE</anamorphic>
						<pproOriginalPAR>square</pproOriginalPAR>
						<pproOriginalIsAnamorphic>FALSE</pproOriginalIsAnamorphic>
						<file id="file-226">
							<name>БАСТА_ТЫ БЫЛА ПРАВА___MSWCLP004606.mov</name>
							<pathurl>file://localhost/Volumes/1Tb/_MUZ_TV/Clips/%d0%91%d0%90%d0%a1%d0%a2%d0%90_%d0%a2%d0%ab%20%d0%91%d0%ab%d0%9b%d0%90%20%d0%9f%d0%a0%d0%90%d0%92%d0%90___MSWCLP004606.mov</pathurl>
							<rate>
								<timebase>25</timebase>
								<ntsc>FALSE</ntsc>
							</rate>
							<duration>2977</duration>
							<timecode>
								<rate>
									<timebase>25</timebase>
									<ntsc>FALSE</ntsc>
								</rate>
								<string>00:00:00:00</string>
								<frame>0</frame>
								<displayformat>NDF</displayformat>
							</timecode>
							<media>
								<video>
									<samplecharacteristics>
										<rate>
											<timebase>25</timebase>
											<ntsc>FALSE</ntsc>
										</rate>
										<width>720</width>
										<height>576</height>
										<anamorphic>TRUE</anamorphic>
										<pixelaspectratio>PAL-601</pixelaspectratio>
										<pproOriginalIsAnamorphic>FALSE</pproOriginalIsAnamorphic>
										<pproOriginalPAR>square</pproOriginalPAR>
										<fielddominance>none</fielddominance>
									</samplecharacteristics>
								</video>
								<audio>
									<samplecharacteristics>
										<depth>16</depth>
										<samplerate>48000</samplerate>
									</samplecharacteristics>
									<channelcount>2</channelcount>
								</audio>
							</media>
						</file>
						<link>
							<linkclipref>clipitem-607</linkclipref>
							<mediatype>video</mediatype>
							<trackindex>1</trackindex>
							<clipindex>21</clipindex>
						</link>
						<link>
							<linkclipref>clipitem-866</linkclipref>
							<mediatype>audio</mediatype>
							<trackindex>1</trackindex>
							<clipindex>14</clipindex>
							<groupindex>1</groupindex>
						</link>
						<link>
							<linkclipref>clipitem-901</linkclipref>
							<mediatype>audio</mediatype>
							<trackindex>2</trackindex>
							<clipindex>14</clipindex>
							<groupindex>1</groupindex>
						</link>
						<logginginfo>
							<description></description>
							<scene></scene>
							<shottake></shottake>
							<lognote></lognote>
							<good></good>
							<originalvideofilename></originalvideofilename>
							<originalaudiofilename></originalaudiofilename>
						</logginginfo>
						<colorinfo>
							<lut></lut>
							<lut1></lut1>
							<asc_sop></asc_sop>
							<asc_sat></asc_sat>
							<lut2></lut2>
						</colorinfo>
						<labels>
							<label2>Iris</label2>
						</labels>
					</clipitem>
					<clipitem id="clipitem-608">
						<masterclipid>masterclip-250</masterclipid>
						<name>3sek_master</name>
						<enabled>TRUE</enabled>
						<duration>74</duration>
						<rate>
							<timebase>25</timebase>
							<ntsc>FALSE</ntsc>
						</rate>
						<start>26757</start>
						<end>26817</end>
						<in>0</in>
						<out>60</out>
						<pproTicksIn>0</pproTicksIn>
						<pproTicksOut>609638400000</pproTicksOut>
						<alphatype>none</alphatype>
						<file id="file-218"/>
						<filter>
							<effect>
								<name>Basic Motion</name>
								<effectid>basic</effectid>
								<effectcategory>motion</effectcategory>
								<effecttype>motion</effecttype>
								<mediatype>video</mediatype>
								<pproBypass>false</pproBypass>
								<parameter authoringApp="PremierePro">
									<parameterid>scale</parameterid>
									<name>Scale</name>
									<valuemin>0</valuemin>
									<valuemax>1000</valuemax>
									<value>55</value>
								</parameter>
								<parameter authoringApp="PremierePro">
									<parameterid>rotation</parameterid>
									<name>Rotation</name>
									<valuemin>-8640</valuemin>
									<valuemax>8640</valuemax>
									<value>0</value>
								</parameter>
								<parameter authoringApp="PremierePro">
									<parameterid>center</parameterid>
									<name>Center</name>
									<value>
										<horiz>0</horiz>
										<vert>0</vert>
									</value>
								</parameter>
								<parameter authoringApp="PremierePro">
									<parameterid>centerOffset</parameterid>
									<name>Anchor Point</name>
									<value>
										<horiz>0</horiz>
										<vert>0</vert>
									</value>
								</parameter>
								<parameter authoringApp="PremierePro">
									<parameterid>antiflicker</parameterid>
									<name>Anti-flicker Filter</name>
									<valuemin>0.0</valuemin>
									<valuemax>1.0</valuemax>
									<value>0</value>
								</parameter>
							</effect>
						</filter>
						<filter>
							<effect>
								<name>Distort</name>
								<effectid>deformation</effectid>
								<effectcategory>motion</effectcategory>
								<effecttype>motion</effecttype>
								<mediatype>video</mediatype>
								<parameter authoringApp="PremierePro">
									<parameterid>aspect</parameterid>
									<name>Aspect</name>
									<valuemin>-10000</valuemin>
									<valuemax>10000</valuemax>
									<value>-3.125</value>
								</parameter>
							</effect>
						</filter>
						<link>
							<linkclipref>clipitem-608</linkclipref>
							<mediatype>video</mediatype>
							<trackindex>1</trackindex>
							<clipindex>22</clipindex>
						</link>
						<link>
							<linkclipref>clipitem-867</linkclipref>
							<mediatype>audio</mediatype>
							<trackindex>1</trackindex>
							<clipindex>15</clipindex>
							<groupindex>1</groupindex>
						</link>
						<link>
							<linkclipref>clipitem-902</linkclipref>
							<mediatype>audio</mediatype>
							<trackindex>2</trackindex>
							<clipindex>15</clipindex>
							<groupindex>1</groupindex>
						</link>
						<logginginfo>
							<description></description>
							<scene></scene>
							<shottake></shottake>
							<lognote></lognote>
							<good></good>
							<originalvideofilename></originalvideofilename>
							<originalaudiofilename></originalaudiofilename>
						</logginginfo>
						<colorinfo>
							<lut></lut>
							<lut1></lut1>
							<asc_sop></asc_sop>
							<asc_sat></asc_sat>
							<lut2></lut2>
						</colorinfo>
						<labels>
							<label2>Purple</label2>
						</labels>
					</clipitem>
					<clipitem id="clipitem-609">
						<masterclipid>masterclip-244</masterclipid>
						<name>Nested Sequence_470</name>
						<enabled>TRUE</enabled>
						<duration>13650</duration>
						<rate>
							<timebase>25</timebase>
							<ntsc>FALSE</ntsc>
						</rate>
						<start>26817</start>
						<end>27934</end>
						<in>4128</in>
						<out>5245</out>
						<pproTicksIn>41943121920000</pproTicksIn>
						<pproTicksOut>53292556800000</pproTicksOut>
						<sequence id="sequence-36"/>
						<link>
							<linkclipref>clipitem-609</linkclipref>
							<mediatype>video</mediatype>
							<trackindex>1</trackindex>
							<clipindex>23</clipindex>
						</link>
						<link>
							<linkclipref>clipitem-868</linkclipref>
							<mediatype>audio</mediatype>
							<trackindex>1</trackindex>
							<clipindex>16</clipindex>
							<groupindex>1</groupindex>
						</link>
						<link>
							<linkclipref>clipitem-903</linkclipref>
							<mediatype>audio</mediatype>
							<trackindex>2</trackindex>
							<clipindex>16</clipindex>
							<groupindex>1</groupindex>
						</link>
						<labels>
							<label2>Forest</label2>
						</labels>
					</clipitem>
					<clipitem id="clipitem-610">
						<masterclipid>masterclip-259</masterclipid>
						<name>6_OTB</name>
						<enabled>TRUE</enabled>
						<duration>180</duration>
						<rate>
							<timebase>25</timebase>
							<ntsc>FALSE</ntsc>
						</rate>
						<start>27934</start>
						<end>28009</end>
						<in>0</in>
						<out>180</out>
						<pproTicksIn>0</pproTicksIn>
						<pproTicksOut>1828915200000</pproTicksOut>
						<alphatype>none</alphatype>
						<pixelaspectratio>square</pixelaspectratio>
						<anamorphic>FALSE</anamorphic>
						<file id="file-227">
							<name>NUM_6.mov</name>
							<pathurl>file://localhost/_MUZ_TV/graphika/RU-21/MOD/otb/NUM_6.mov</pathurl>
							<rate>
								<timebase>25</timebase>
								<ntsc>FALSE</ntsc>
							</rate>
							<duration>180</duration>
							<timecode>
								<rate>
									<timebase>25</timebase>
									<ntsc>FALSE</ntsc>
								</rate>
								<string>00:00:00:01</string>
								<frame>1</frame>
								<displayformat>NDF</displayformat>
							</timecode>
							<media>
								<video>
									<samplecharacteristics>
										<rate>
											<timebase>25</timebase>
											<ntsc>FALSE</ntsc>
										</rate>
										<width>1920</width>
										<height>1080</height>
										<anamorphic>FALSE</anamorphic>
										<pixelaspectratio>square</pixelaspectratio>
										<fielddominance>none</fielddominance>
									</samplecharacteristics>
								</video>
							</media>
						</file>
						<filter>
							<effect>
								<name>Basic Motion</name>
								<effectid>basic</effectid>
								<effectcategory>motion</effectcategory>
								<effecttype>motion</effecttype>
								<mediatype>video</mediatype>
								<pproBypass>false</pproBypass>
								<parameter authoringApp="PremierePro">
									<parameterid>scale</parameterid>
									<name>Scale</name>
									<valuemin>0</valuemin>
									<valuemax>1000</valuemax>
									<value>55</value>
								</parameter>
								<parameter authoringApp="PremierePro">
									<parameterid>rotation</parameterid>
									<name>Rotation</name>
									<valuemin>-8640</valuemin>
									<valuemax>8640</valuemax>
									<value>0</value>
								</parameter>
								<parameter authoringApp="PremierePro">
									<parameterid>center</parameterid>
									<name>Center</name>
									<value>
										<horiz>0</horiz>
										<vert>0</vert>
									</value>
								</parameter>
								<parameter authoringApp="PremierePro">
									<parameterid>centerOffset</parameterid>
									<name>Anchor Point</name>
									<value>
										<horiz>0</horiz>
										<vert>0</vert>
									</value>
								</parameter>
								<parameter authoringApp="PremierePro">
									<parameterid>antiflicker</parameterid>
									<name>Anti-flicker Filter</name>
									<valuemin>0.0</valuemin>
									<valuemax>1.0</valuemax>
									<value>0</value>
								</parameter>
							</effect>
						</filter>
						<filter>
							<effect>
								<name>Distort</name>
								<effectid>deformation</effectid>
								<effectcategory>motion</effectcategory>
								<effecttype>motion</effecttype>
								<mediatype>video</mediatype>
								<parameter authoringApp="PremierePro">
									<parameterid>aspect</parameterid>
									<name>Aspect</name>
									<valuemin>-10000</valuemin>
									<valuemax>10000</valuemax>
									<value>-3.12506</value>
								</parameter>
							</effect>
						</filter>
						<logginginfo>
							<description></description>
							<scene></scene>
							<shottake></shottake>
							<lognote></lognote>
							<good></good>
							<originalvideofilename></originalvideofilename>
							<originalaudiofilename></originalaudiofilename>
						</logginginfo>
						<colorinfo>
							<lut></lut>
							<lut1></lut1>
							<asc_sop></asc_sop>
							<asc_sat></asc_sat>
							<lut2></lut2>
						</colorinfo>
						<labels>
							<label2>Violet</label2>
						</labels>
					</clipitem>
					<clipitem id="clipitem-611">
						<masterclipid>masterclip-260</masterclipid>
						<name>ARTIK &amp; ASTI_ОНА НЕ Я___MSWCLP004593.mov</name>
						<enabled>TRUE</enabled>
						<duration>5330</duration>
						<rate>
							<timebase>25</timebase>
							<ntsc>FALSE</ntsc>
						</rate>
						<start>28009</start>
						<end>32968</end>
						<in>359</in>
						<out>5318</out>
						<pproTicksIn>3647669760000</pproTicksIn>
						<pproTicksOut>54034283520000</pproTicksOut>
						<alphatype>none</alphatype>
						<pixelaspectratio>PAL-601</pixelaspectratio>
						<anamorphic>TRUE</anamorphic>
						<pproOriginalPAR>square</pproOriginalPAR>
						<pproOriginalIsAnamorphic>FALSE</pproOriginalIsAnamorphic>
						<file id="file-228">
							<name>ARTIK &amp; ASTI_ОНА НЕ Я___MSWCLP004593.mov</name>
							<pathurl>file://localhost/Volumes/1Tb/_MUZ_TV/Clips/ARTIK%20&amp;%20ASTI_%d0%9e%d0%9d%d0%90%20%d0%9d%d0%95%20%d0%af___MSWCLP004593.mov</pathurl>
							<rate>
								<timebase>25</timebase>
								<ntsc>FALSE</ntsc>
							</rate>
							<duration>5330</duration>
							<timecode>
								<rate>
									<timebase>25</timebase>
									<ntsc>FALSE</ntsc>
								</rate>
								<string>00:00:00:00</string>
								<frame>0</frame>
								<displayformat>NDF</displayformat>
							</timecode>
							<media>
								<video>
									<samplecharacteristics>
										<rate>
											<timebase>25</timebase>
											<ntsc>FALSE</ntsc>
										</rate>
										<width>720</width>
										<height>576</height>
										<anamorphic>TRUE</anamorphic>
										<pixelaspectratio>PAL-601</pixelaspectratio>
										<pproOriginalIsAnamorphic>FALSE</pproOriginalIsAnamorphic>
										<pproOriginalPAR>square</pproOriginalPAR>
										<fielddominance>none</fielddominance>
									</samplecharacteristics>
								</video>
								<audio>
									<samplecharacteristics>
										<depth>16</depth>
										<samplerate>48000</samplerate>
									</samplecharacteristics>
									<channelcount>2</channelcount>
								</audio>
							</media>
						</file>
						<link>
							<linkclipref>clipitem-611</linkclipref>
							<mediatype>video</mediatype>
							<trackindex>1</trackindex>
							<clipindex>25</clipindex>
						</link>
						<link>
							<linkclipref>clipitem-869</linkclipref>
							<mediatype>audio</mediatype>
							<trackindex>1</trackindex>
							<clipindex>17</clipindex>
							<groupindex>1</groupindex>
						</link>
						<link>
							<linkclipref>clipitem-904</linkclipref>
							<mediatype>audio</mediatype>
							<trackindex>2</trackindex>
							<clipindex>17</clipindex>
							<groupindex>1</groupindex>
						</link>
						<logginginfo>
							<description></description>
							<scene></scene>
							<shottake></shottake>
							<lognote></lognote>
							<good></good>
							<originalvideofilename></originalvideofilename>
							<originalaudiofilename></originalaudiofilename>
						</logginginfo>
						<colorinfo>
							<lut></lut>
							<lut1></lut1>
							<asc_sop></asc_sop>
							<asc_sat></asc_sat>
							<lut2></lut2>
						</colorinfo>
						<labels>
							<label2>Iris</label2>
						</labels>
					</clipitem>
					<clipitem id="clipitem-612">
						<masterclipid>masterclip-261</masterclipid>
						<name>6_OTB</name>
						<enabled>TRUE</enabled>
						<duration>180</duration>
						<rate>
							<timebase>25</timebase>
							<ntsc>FALSE</ntsc>
						</rate>
						<start>32968</start>
						<end>33043</end>
						<in>0</in>
						<out>180</out>
						<pproTicksIn>0</pproTicksIn>
						<pproTicksOut>1828915200000</pproTicksOut>
						<alphatype>none</alphatype>
						<pixelaspectratio>square</pixelaspectratio>
						<anamorphic>FALSE</anamorphic>
						<file id="file-229">
							<name>NUM_6.mov</name>
							<pathurl>file://localhost/_MUZ_TV/graphika/RU-21/MOD/otb/NUM_6.mov</pathurl>
							<rate>
								<timebase>25</timebase>
								<ntsc>FALSE</ntsc>
							</rate>
							<duration>180</duration>
							<timecode>
								<rate>
									<timebase>25</timebase>
									<ntsc>FALSE</ntsc>
								</rate>
								<string>00:00:00:01</string>
								<frame>1</frame>
								<displayformat>NDF</displayformat>
							</timecode>
							<media>
								<video>
									<samplecharacteristics>
										<rate>
											<timebase>25</timebase>
											<ntsc>FALSE</ntsc>
										</rate>
										<width>1920</width>
										<height>1080</height>
										<anamorphic>FALSE</anamorphic>
										<pixelaspectratio>square</pixelaspectratio>
										<fielddominance>none</fielddominance>
									</samplecharacteristics>
								</video>
							</media>
						</file>
						<filter>
							<effect>
								<name>Basic Motion</name>
								<effectid>basic</effectid>
								<effectcategory>motion</effectcategory>
								<effecttype>motion</effecttype>
								<mediatype>video</mediatype>
								<pproBypass>false</pproBypass>
								<parameter authoringApp="PremierePro">
									<parameterid>scale</parameterid>
									<name>Scale</name>
									<valuemin>0</valuemin>
									<valuemax>1000</valuemax>
									<value>55</value>
								</parameter>
								<parameter authoringApp="PremierePro">
									<parameterid>rotation</parameterid>
									<name>Rotation</name>
									<valuemin>-8640</valuemin>
									<valuemax>8640</valuemax>
									<value>0</value>
								</parameter>
								<parameter authoringApp="PremierePro">
									<parameterid>center</parameterid>
									<name>Center</name>
									<value>
										<horiz>0</horiz>
										<vert>0</vert>
									</value>
								</parameter>
								<parameter authoringApp="PremierePro">
									<parameterid>centerOffset</parameterid>
									<name>Anchor Point</name>
									<value>
										<horiz>0</horiz>
										<vert>0</vert>
									</value>
								</parameter>
								<parameter authoringApp="PremierePro">
									<parameterid>antiflicker</parameterid>
									<name>Anti-flicker Filter</name>
									<valuemin>0.0</valuemin>
									<valuemax>1.0</valuemax>
									<value>0</value>
								</parameter>
							</effect>
						</filter>
						<filter>
							<effect>
								<name>Distort</name>
								<effectid>deformation</effectid>
								<effectcategory>motion</effectcategory>
								<effecttype>motion</effecttype>
								<mediatype>video</mediatype>
								<parameter authoringApp="PremierePro">
									<parameterid>aspect</parameterid>
									<name>Aspect</name>
									<valuemin>-10000</valuemin>
									<valuemax>10000</valuemax>
									<value>-3.12506</value>
								</parameter>
							</effect>
						</filter>
						<logginginfo>
							<description></description>
							<scene></scene>
							<shottake></shottake>
							<lognote></lognote>
							<good></good>
							<originalvideofilename></originalvideofilename>
							<originalaudiofilename></originalaudiofilename>
						</logginginfo>
						<colorinfo>
							<lut></lut>
							<lut1></lut1>
							<asc_sop></asc_sop>
							<asc_sat></asc_sat>
							<lut2></lut2>
						</colorinfo>
						<labels>
							<label2>Violet</label2>
						</labels>
					</clipitem>
					<clipitem id="clipitem-613">
						<masterclipid>masterclip-262</masterclipid>
						<name>SLAVA MARLOW_ТЫ ГОРИШЬ КАК ОГОНЬ___MSWCLP004382.mov</name>
						<enabled>TRUE</enabled>
						<duration>4191</duration>
						<rate>
							<timebase>25</timebase>
							<ntsc>FALSE</ntsc>
						</rate>
						<start>33043</start>
						<end>37234</end>
						<in>0</in>
						<out>4191</out>
						<pproTicksIn>0</pproTicksIn>
						<pproTicksOut>42583242240000</pproTicksOut>
						<alphatype>none</alphatype>
						<pixelaspectratio>PAL-601</pixelaspectratio>
						<anamorphic>TRUE</anamorphic>
						<pproOriginalPAR>square</pproOriginalPAR>
						<pproOriginalIsAnamorphic>FALSE</pproOriginalIsAnamorphic>
						<file id="file-230">
							<name>SLAVA MARLOW_ТЫ ГОРИШЬ КАК ОГОНЬ___MSWCLP004382.mov</name>
							<pathurl>file://localhost/Volumes/1Tb/_MUZ_TV/Clips/SLAVA%20MARLOW_%d0%a2%d0%ab%20%d0%93%d0%9e%d0%a0%d0%98%d0%a8%d0%ac%20%d0%9a%d0%90%d0%9a%20%d0%9e%d0%93%d0%9e%d0%9d%d0%ac___MSWCLP004382.mov</pathurl>
							<rate>
								<timebase>25</timebase>
								<ntsc>FALSE</ntsc>
							</rate>
							<duration>4191</duration>
							<timecode>
								<rate>
									<timebase>25</timebase>
									<ntsc>FALSE</ntsc>
								</rate>
								<string>00:00:00:00</string>
								<frame>0</frame>
								<displayformat>NDF</displayformat>
							</timecode>
							<media>
								<video>
									<samplecharacteristics>
										<rate>
											<timebase>25</timebase>
											<ntsc>FALSE</ntsc>
										</rate>
										<width>720</width>
										<height>576</height>
										<anamorphic>TRUE</anamorphic>
										<pixelaspectratio>PAL-601</pixelaspectratio>
										<pproOriginalIsAnamorphic>FALSE</pproOriginalIsAnamorphic>
										<pproOriginalPAR>square</pproOriginalPAR>
										<fielddominance>none</fielddominance>
									</samplecharacteristics>
								</video>
								<audio>
									<samplecharacteristics>
										<depth>16</depth>
										<samplerate>48000</samplerate>
									</samplecharacteristics>
									<channelcount>2</channelcount>
								</audio>
							</media>
						</file>
						<link>
							<linkclipref>clipitem-613</linkclipref>
							<mediatype>video</mediatype>
							<trackindex>1</trackindex>
							<clipindex>27</clipindex>
						</link>
						<link>
							<linkclipref>clipitem-870</linkclipref>
							<mediatype>audio</mediatype>
							<trackindex>1</trackindex>
							<clipindex>18</clipindex>
							<groupindex>1</groupindex>
						</link>
						<link>
							<linkclipref>clipitem-905</linkclipref>
							<mediatype>audio</mediatype>
							<trackindex>2</trackindex>
							<clipindex>18</clipindex>
							<groupindex>1</groupindex>
						</link>
						<logginginfo>
							<description></description>
							<scene></scene>
							<shottake></shottake>
							<lognote></lognote>
							<good></good>
							<originalvideofilename></originalvideofilename>
							<originalaudiofilename></originalaudiofilename>
						</logginginfo>
						<colorinfo>
							<lut></lut>
							<lut1></lut1>
							<asc_sop></asc_sop>
							<asc_sat></asc_sat>
							<lut2></lut2>
						</colorinfo>
						<labels>
							<label2>Iris</label2>
						</labels>
					</clipitem>
					<clipitem id="clipitem-614">
						<masterclipid>masterclip-250</masterclipid>
						<name>3sek_master</name>
						<enabled>TRUE</enabled>
						<duration>74</duration>
						<rate>
							<timebase>25</timebase>
							<ntsc>FALSE</ntsc>
						</rate>
						<start>37234</start>
						<end>37294</end>
						<in>0</in>
						<out>60</out>
						<pproTicksIn>0</pproTicksIn>
						<pproTicksOut>609638400000</pproTicksOut>
						<alphatype>none</alphatype>
						<file id="file-218"/>
						<filter>
							<effect>
								<name>Basic Motion</name>
								<effectid>basic</effectid>
								<effectcategory>motion</effectcategory>
								<effecttype>motion</effecttype>
								<mediatype>video</mediatype>
								<pproBypass>false</pproBypass>
								<parameter authoringApp="PremierePro">
									<parameterid>scale</parameterid>
									<name>Scale</name>
									<valuemin>0</valuemin>
									<valuemax>1000</valuemax>
									<value>55</value>
								</parameter>
								<parameter authoringApp="PremierePro">
									<parameterid>rotation</parameterid>
									<name>Rotation</name>
									<valuemin>-8640</valuemin>
									<valuemax>8640</valuemax>
									<value>0</value>
								</parameter>
								<parameter authoringApp="PremierePro">
									<parameterid>center</parameterid>
									<name>Center</name>
									<value>
										<horiz>0</horiz>
										<vert>0</vert>
									</value>
								</parameter>
								<parameter authoringApp="PremierePro">
									<parameterid>centerOffset</parameterid>
									<name>Anchor Point</name>
									<value>
										<horiz>0</horiz>
										<vert>0</vert>
									</value>
								</parameter>
								<parameter authoringApp="PremierePro">
									<parameterid>antiflicker</parameterid>
									<name>Anti-flicker Filter</name>
									<valuemin>0.0</valuemin>
									<valuemax>1.0</valuemax>
									<value>0</value>
								</parameter>
							</effect>
						</filter>
						<filter>
							<effect>
								<name>Distort</name>
								<effectid>deformation</effectid>
								<effectcategory>motion</effectcategory>
								<effecttype>motion</effecttype>
								<mediatype>video</mediatype>
								<parameter authoringApp="PremierePro">
									<parameterid>aspect</parameterid>
									<name>Aspect</name>
									<valuemin>-10000</valuemin>
									<valuemax>10000</valuemax>
									<value>-3.125</value>
								</parameter>
							</effect>
						</filter>
						<link>
							<linkclipref>clipitem-614</linkclipref>
							<mediatype>video</mediatype>
							<trackindex>1</trackindex>
							<clipindex>28</clipindex>
						</link>
						<link>
							<linkclipref>clipitem-871</linkclipref>
							<mediatype>audio</mediatype>
							<trackindex>1</trackindex>
							<clipindex>19</clipindex>
							<groupindex>1</groupindex>
						</link>
						<link>
							<linkclipref>clipitem-906</linkclipref>
							<mediatype>audio</mediatype>
							<trackindex>2</trackindex>
							<clipindex>19</clipindex>
							<groupindex>1</groupindex>
						</link>
						<logginginfo>
							<description></description>
							<scene></scene>
							<shottake></shottake>
							<lognote></lognote>
							<good></good>
							<originalvideofilename></originalvideofilename>
							<originalaudiofilename></originalaudiofilename>
						</logginginfo>
						<colorinfo>
							<lut></lut>
							<lut1></lut1>
							<asc_sop></asc_sop>
							<asc_sat></asc_sat>
							<lut2></lut2>
						</colorinfo>
						<labels>
							<label2>Purple</label2>
						</labels>
					</clipitem>
					<clipitem id="clipitem-615">
						<masterclipid>masterclip-244</masterclipid>
						<name>Nested Sequence_470</name>
						<enabled>TRUE</enabled>
						<duration>13650</duration>
						<rate>
							<timebase>25</timebase>
							<ntsc>FALSE</ntsc>
						</rate>
						<start>37294</start>
						<end>38147</end>
						<in>5289</in>
						<out>6142</out>
						<pproTicksIn>53739624960000</pproTicksIn>
						<pproTicksOut>62406650880000</pproTicksOut>
						<sequence id="sequence-36"/>
						<link>
							<linkclipref>clipitem-615</linkclipref>
							<mediatype>video</mediatype>
							<trackindex>1</trackindex>
							<clipindex>29</clipindex>
						</link>
						<link>
							<linkclipref>clipitem-872</linkclipref>
							<mediatype>audio</mediatype>
							<trackindex>1</trackindex>
							<clipindex>20</clipindex>
							<groupindex>1</groupindex>
						</link>
						<link>
							<linkclipref>clipitem-907</linkclipref>
							<mediatype>audio</mediatype>
							<trackindex>2</trackindex>
							<clipindex>20</clipindex>
							<groupindex>1</groupindex>
						</link>
						<labels>
							<label2>Forest</label2>
						</labels>
					</clipitem>
					<clipitem id="clipitem-616">
						<masterclipid>masterclip-263</masterclipid>
						<name>5_OTB</name>
						<enabled>TRUE</enabled>
						<duration>180</duration>
						<rate>
							<timebase>25</timebase>
							<ntsc>FALSE</ntsc>
						</rate>
						<start>38147</start>
						<end>38222</end>
						<in>0</in>
						<out>180</out>
						<pproTicksIn>0</pproTicksIn>
						<pproTicksOut>1828915200000</pproTicksOut>
						<alphatype>none</alphatype>
						<pixelaspectratio>square</pixelaspectratio>
						<anamorphic>FALSE</anamorphic>
						<file id="file-231">
							<name>NUM_5.mov</name>
							<pathurl>file://localhost/_MUZ_TV/graphika/RU-21/MOD/otb/NUM_5.mov</pathurl>
							<rate>
								<timebase>25</timebase>
								<ntsc>FALSE</ntsc>
							</rate>
							<duration>180</duration>
							<timecode>
								<rate>
									<timebase>25</timebase>
									<ntsc>FALSE</ntsc>
								</rate>
								<string>00:00:00:01</string>
								<frame>1</frame>
								<displayformat>NDF</displayformat>
							</timecode>
							<media>
								<video>
									<samplecharacteristics>
										<rate>
											<timebase>25</timebase>
											<ntsc>FALSE</ntsc>
										</rate>
										<width>1920</width>
										<height>1080</height>
										<anamorphic>FALSE</anamorphic>
										<pixelaspectratio>square</pixelaspectratio>
										<fielddominance>none</fielddominance>
									</samplecharacteristics>
								</video>
							</media>
						</file>
						<filter>
							<effect>
								<name>Basic Motion</name>
								<effectid>basic</effectid>
								<effectcategory>motion</effectcategory>
								<effecttype>motion</effecttype>
								<mediatype>video</mediatype>
								<pproBypass>false</pproBypass>
								<parameter authoringApp="PremierePro">
									<parameterid>scale</parameterid>
									<name>Scale</name>
									<valuemin>0</valuemin>
									<valuemax>1000</valuemax>
									<value>55</value>
								</parameter>
								<parameter authoringApp="PremierePro">
									<parameterid>rotation</parameterid>
									<name>Rotation</name>
									<valuemin>-8640</valuemin>
									<valuemax>8640</valuemax>
									<value>0</value>
								</parameter>
								<parameter authoringApp="PremierePro">
									<parameterid>center</parameterid>
									<name>Center</name>
									<value>
										<horiz>0</horiz>
										<vert>0</vert>
									</value>
								</parameter>
								<parameter authoringApp="PremierePro">
									<parameterid>centerOffset</parameterid>
									<name>Anchor Point</name>
									<value>
										<horiz>0</horiz>
										<vert>0</vert>
									</value>
								</parameter>
								<parameter authoringApp="PremierePro">
									<parameterid>antiflicker</parameterid>
									<name>Anti-flicker Filter</name>
									<valuemin>0.0</valuemin>
									<valuemax>1.0</valuemax>
									<value>0</value>
								</parameter>
							</effect>
						</filter>
						<filter>
							<effect>
								<name>Distort</name>
								<effectid>deformation</effectid>
								<effectcategory>motion</effectcategory>
								<effecttype>motion</effecttype>
								<mediatype>video</mediatype>
								<parameter authoringApp="PremierePro">
									<parameterid>aspect</parameterid>
									<name>Aspect</name>
									<valuemin>-10000</valuemin>
									<valuemax>10000</valuemax>
									<value>-3.12506</value>
								</parameter>
							</effect>
						</filter>
						<logginginfo>
							<description></description>
							<scene></scene>
							<shottake></shottake>
							<lognote></lognote>
							<good></good>
							<originalvideofilename></originalvideofilename>
							<originalaudiofilename></originalaudiofilename>
						</logginginfo>
						<colorinfo>
							<lut></lut>
							<lut1></lut1>
							<asc_sop></asc_sop>
							<asc_sat></asc_sat>
							<lut2></lut2>
						</colorinfo>
						<labels>
							<label2>Violet</label2>
						</labels>
					</clipitem>
					<clipitem id="clipitem-617">
						<masterclipid>masterclip-264</masterclipid>
						<name>LOBODA_РОДНОЙ___MSWCLP004376.mov</name>
						<enabled>TRUE</enabled>
						<duration>5466</duration>
						<rate>
							<timebase>25</timebase>
							<ntsc>FALSE</ntsc>
						</rate>
						<start>38222</start>
						<end>43544</end>
						<in>66</in>
						<out>5388</out>
						<pproTicksIn>670602240000</pproTicksIn>
						<pproTicksOut>54745528320000</pproTicksOut>
						<alphatype>none</alphatype>
						<pixelaspectratio>PAL-601</pixelaspectratio>
						<anamorphic>TRUE</anamorphic>
						<pproOriginalPAR>square</pproOriginalPAR>
						<pproOriginalIsAnamorphic>FALSE</pproOriginalIsAnamorphic>
						<file id="file-232">
							<name>LOBODA_РОДНОЙ___MSWCLP004376.mov</name>
							<pathurl>file://localhost/Volumes/1Tb/_MUZ_TV/Clips/LOBODA_%d0%a0%d0%9e%d0%94%d0%9d%d0%9e%d0%98%cc%86___MSWCLP004376.mov</pathurl>
							<rate>
								<timebase>25</timebase>
								<ntsc>FALSE</ntsc>
							</rate>
							<duration>5466</duration>
							<timecode>
								<rate>
									<timebase>25</timebase>
									<ntsc>FALSE</ntsc>
								</rate>
								<string>00:00:00:00</string>
								<frame>0</frame>
								<displayformat>NDF</displayformat>
							</timecode>
							<media>
								<video>
									<samplecharacteristics>
										<rate>
											<timebase>25</timebase>
											<ntsc>FALSE</ntsc>
										</rate>
										<width>720</width>
										<height>576</height>
										<anamorphic>TRUE</anamorphic>
										<pixelaspectratio>PAL-601</pixelaspectratio>
										<pproOriginalIsAnamorphic>FALSE</pproOriginalIsAnamorphic>
										<pproOriginalPAR>square</pproOriginalPAR>
										<fielddominance>none</fielddominance>
									</samplecharacteristics>
								</video>
								<audio>
									<samplecharacteristics>
										<depth>16</depth>
										<samplerate>48000</samplerate>
									</samplecharacteristics>
									<channelcount>2</channelcount>
								</audio>
							</media>
						</file>
						<link>
							<linkclipref>clipitem-617</linkclipref>
							<mediatype>video</mediatype>
							<trackindex>1</trackindex>
							<clipindex>31</clipindex>
						</link>
						<link>
							<linkclipref>clipitem-873</linkclipref>
							<mediatype>audio</mediatype>
							<trackindex>1</trackindex>
							<clipindex>21</clipindex>
							<groupindex>1</groupindex>
						</link>
						<link>
							<linkclipref>clipitem-908</linkclipref>
							<mediatype>audio</mediatype>
							<trackindex>2</trackindex>
							<clipindex>21</clipindex>
							<groupindex>1</groupindex>
						</link>
						<logginginfo>
							<description></description>
							<scene></scene>
							<shottake></shottake>
							<lognote></lognote>
							<good></good>
							<originalvideofilename></originalvideofilename>
							<originalaudiofilename></originalaudiofilename>
						</logginginfo>
						<colorinfo>
							<lut></lut>
							<lut1></lut1>
							<asc_sop></asc_sop>
							<asc_sat></asc_sat>
							<lut2></lut2>
						</colorinfo>
						<labels>
							<label2>Iris</label2>
						</labels>
					</clipitem>
					<clipitem id="clipitem-618">
						<masterclipid>masterclip-250</masterclipid>
						<name>3sek_master</name>
						<enabled>TRUE</enabled>
						<duration>74</duration>
						<rate>
							<timebase>25</timebase>
							<ntsc>FALSE</ntsc>
						</rate>
						<start>43544</start>
						<end>43604</end>
						<in>0</in>
						<out>60</out>
						<pproTicksIn>0</pproTicksIn>
						<pproTicksOut>609638400000</pproTicksOut>
						<alphatype>none</alphatype>
						<file id="file-218"/>
						<filter>
							<effect>
								<name>Basic Motion</name>
								<effectid>basic</effectid>
								<effectcategory>motion</effectcategory>
								<effecttype>motion</effecttype>
								<mediatype>video</mediatype>
								<pproBypass>false</pproBypass>
								<parameter authoringApp="PremierePro">
									<parameterid>scale</parameterid>
									<name>Scale</name>
									<valuemin>0</valuemin>
									<valuemax>1000</valuemax>
									<value>55</value>
								</parameter>
								<parameter authoringApp="PremierePro">
									<parameterid>rotation</parameterid>
									<name>Rotation</name>
									<valuemin>-8640</valuemin>
									<valuemax>8640</valuemax>
									<value>0</value>
								</parameter>
								<parameter authoringApp="PremierePro">
									<parameterid>center</parameterid>
									<name>Center</name>
									<value>
										<horiz>0</horiz>
										<vert>0</vert>
									</value>
								</parameter>
								<parameter authoringApp="PremierePro">
									<parameterid>centerOffset</parameterid>
									<name>Anchor Point</name>
									<value>
										<horiz>0</horiz>
										<vert>0</vert>
									</value>
								</parameter>
								<parameter authoringApp="PremierePro">
									<parameterid>antiflicker</parameterid>
									<name>Anti-flicker Filter</name>
									<valuemin>0.0</valuemin>
									<valuemax>1.0</valuemax>
									<value>0</value>
								</parameter>
							</effect>
						</filter>
						<filter>
							<effect>
								<name>Distort</name>
								<effectid>deformation</effectid>
								<effectcategory>motion</effectcategory>
								<effecttype>motion</effecttype>
								<mediatype>video</mediatype>
								<parameter authoringApp="PremierePro">
									<parameterid>aspect</parameterid>
									<name>Aspect</name>
									<valuemin>-10000</valuemin>
									<valuemax>10000</valuemax>
									<value>-3.125</value>
								</parameter>
							</effect>
						</filter>
						<link>
							<linkclipref>clipitem-618</linkclipref>
							<mediatype>video</mediatype>
							<trackindex>1</trackindex>
							<clipindex>32</clipindex>
						</link>
						<link>
							<linkclipref>clipitem-874</linkclipref>
							<mediatype>audio</mediatype>
							<trackindex>1</trackindex>
							<clipindex>22</clipindex>
							<groupindex>1</groupindex>
						</link>
						<link>
							<linkclipref>clipitem-909</linkclipref>
							<mediatype>audio</mediatype>
							<trackindex>2</trackindex>
							<clipindex>22</clipindex>
							<groupindex>1</groupindex>
						</link>
						<logginginfo>
							<description></description>
							<scene></scene>
							<shottake></shottake>
							<lognote></lognote>
							<good></good>
							<originalvideofilename></originalvideofilename>
							<originalaudiofilename></originalaudiofilename>
						</logginginfo>
						<colorinfo>
							<lut></lut>
							<lut1></lut1>
							<asc_sop></asc_sop>
							<asc_sat></asc_sat>
							<lut2></lut2>
						</colorinfo>
						<labels>
							<label2>Purple</label2>
						</labels>
					</clipitem>
					<clipitem id="clipitem-619">
						<masterclipid>masterclip-244</masterclipid>
						<name>Nested Sequence_470</name>
						<enabled>TRUE</enabled>
						<duration>13650</duration>
						<rate>
							<timebase>25</timebase>
							<ntsc>FALSE</ntsc>
						</rate>
						<start>43604</start>
						<end>44786</end>
						<in>6183</in>
						<out>7365</out>
						<pproTicksIn>62823237120000</pproTicksIn>
						<pproTicksOut>74833113600000</pproTicksOut>
						<sequence id="sequence-36"/>
						<link>
							<linkclipref>clipitem-619</linkclipref>
							<mediatype>video</mediatype>
							<trackindex>1</trackindex>
							<clipindex>33</clipindex>
						</link>
						<link>
							<linkclipref>clipitem-875</linkclipref>
							<mediatype>audio</mediatype>
							<trackindex>1</trackindex>
							<clipindex>23</clipindex>
							<groupindex>1</groupindex>
						</link>
						<link>
							<linkclipref>clipitem-910</linkclipref>
							<mediatype>audio</mediatype>
							<trackindex>2</trackindex>
							<clipindex>23</clipindex>
							<groupindex>1</groupindex>
						</link>
						<labels>
							<label2>Forest</label2>
						</labels>
					</clipitem>
					<clipitem id="clipitem-620">
						<masterclipid>masterclip-265</masterclipid>
						<name>4_OTB</name>
						<enabled>TRUE</enabled>
						<duration>180</duration>
						<rate>
							<timebase>25</timebase>
							<ntsc>FALSE</ntsc>
						</rate>
						<start>44786</start>
						<end>44861</end>
						<in>0</in>
						<out>180</out>
						<pproTicksIn>0</pproTicksIn>
						<pproTicksOut>1828915200000</pproTicksOut>
						<alphatype>none</alphatype>
						<pixelaspectratio>square</pixelaspectratio>
						<anamorphic>FALSE</anamorphic>
						<file id="file-233">
							<name>NUM_4.mov</name>
							<pathurl>file://localhost/_MUZ_TV/graphika/RU-21/MOD/otb/NUM_4.mov</pathurl>
							<rate>
								<timebase>25</timebase>
								<ntsc>FALSE</ntsc>
							</rate>
							<duration>180</duration>
							<timecode>
								<rate>
									<timebase>25</timebase>
									<ntsc>FALSE</ntsc>
								</rate>
								<string>00:00:00:01</string>
								<frame>1</frame>
								<displayformat>NDF</displayformat>
							</timecode>
							<media>
								<video>
									<samplecharacteristics>
										<rate>
											<timebase>25</timebase>
											<ntsc>FALSE</ntsc>
										</rate>
										<width>1920</width>
										<height>1080</height>
										<anamorphic>FALSE</anamorphic>
										<pixelaspectratio>square</pixelaspectratio>
										<fielddominance>none</fielddominance>
									</samplecharacteristics>
								</video>
							</media>
						</file>
						<filter>
							<effect>
								<name>Basic Motion</name>
								<effectid>basic</effectid>
								<effectcategory>motion</effectcategory>
								<effecttype>motion</effecttype>
								<mediatype>video</mediatype>
								<pproBypass>false</pproBypass>
								<parameter authoringApp="PremierePro">
									<parameterid>scale</parameterid>
									<name>Scale</name>
									<valuemin>0</valuemin>
									<valuemax>1000</valuemax>
									<value>55</value>
								</parameter>
								<parameter authoringApp="PremierePro">
									<parameterid>rotation</parameterid>
									<name>Rotation</name>
									<valuemin>-8640</valuemin>
									<valuemax>8640</valuemax>
									<value>0</value>
								</parameter>
								<parameter authoringApp="PremierePro">
									<parameterid>center</parameterid>
									<name>Center</name>
									<value>
										<horiz>0</horiz>
										<vert>0</vert>
									</value>
								</parameter>
								<parameter authoringApp="PremierePro">
									<parameterid>centerOffset</parameterid>
									<name>Anchor Point</name>
									<value>
										<horiz>0</horiz>
										<vert>0</vert>
									</value>
								</parameter>
								<parameter authoringApp="PremierePro">
									<parameterid>antiflicker</parameterid>
									<name>Anti-flicker Filter</name>
									<valuemin>0.0</valuemin>
									<valuemax>1.0</valuemax>
									<value>0</value>
								</parameter>
							</effect>
						</filter>
						<filter>
							<effect>
								<name>Distort</name>
								<effectid>deformation</effectid>
								<effectcategory>motion</effectcategory>
								<effecttype>motion</effecttype>
								<mediatype>video</mediatype>
								<parameter authoringApp="PremierePro">
									<parameterid>aspect</parameterid>
									<name>Aspect</name>
									<valuemin>-10000</valuemin>
									<valuemax>10000</valuemax>
									<value>-3.12506</value>
								</parameter>
							</effect>
						</filter>
						<logginginfo>
							<description></description>
							<scene></scene>
							<shottake></shottake>
							<lognote></lognote>
							<good></good>
							<originalvideofilename></originalvideofilename>
							<originalaudiofilename></originalaudiofilename>
						</logginginfo>
						<colorinfo>
							<lut></lut>
							<lut1></lut1>
							<asc_sop></asc_sop>
							<asc_sat></asc_sat>
							<lut2></lut2>
						</colorinfo>
						<labels>
							<label2>Violet</label2>
						</labels>
					</clipitem>
					<clipitem id="clipitem-621">
						<masterclipid>masterclip-266</masterclipid>
						<name>СУЛТАН ЛАГУЧЕВ_ГОРЬКИЙ ВКУС___MSWCLP004337.mov</name>
						<enabled>TRUE</enabled>
						<duration>4437</duration>
						<rate>
							<timebase>25</timebase>
							<ntsc>FALSE</ntsc>
						</rate>
						<start>44861</start>
						<end>49232</end>
						<in>39</in>
						<out>4410</out>
						<pproTicksIn>396264960000</pproTicksIn>
						<pproTicksOut>44808422400000</pproTicksOut>
						<alphatype>none</alphatype>
						<pixelaspectratio>PAL-601</pixelaspectratio>
						<anamorphic>TRUE</anamorphic>
						<pproOriginalPAR>square</pproOriginalPAR>
						<pproOriginalIsAnamorphic>FALSE</pproOriginalIsAnamorphic>
						<file id="file-234">
							<name>СУЛТАН ЛАГУЧЕВ_ГОРЬКИЙ ВКУС___MSWCLP004337.mov</name>
							<pathurl>file://localhost/Volumes/1Tb/_MUZ_TV/Clips/%d0%a1%d0%a3%d0%9b%d0%a2%d0%90%d0%9d%20%d0%9b%d0%90%d0%93%d0%a3%d0%a7%d0%95%d0%92_%d0%93%d0%9e%d0%a0%d0%ac%d0%9a%d0%98%d0%98%cc%86%20%d0%92%d0%9a%d0%a3%d0%a1___MSWCLP004337.mov</pathurl>
							<rate>
								<timebase>25</timebase>
								<ntsc>FALSE</ntsc>
							</rate>
							<duration>4437</duration>
							<timecode>
								<rate>
									<timebase>25</timebase>
									<ntsc>FALSE</ntsc>
								</rate>
								<string>00:00:00:00</string>
								<frame>0</frame>
								<displayformat>NDF</displayformat>
							</timecode>
							<media>
								<video>
									<samplecharacteristics>
										<rate>
											<timebase>25</timebase>
											<ntsc>FALSE</ntsc>
										</rate>
										<width>720</width>
										<height>576</height>
										<anamorphic>TRUE</anamorphic>
										<pixelaspectratio>PAL-601</pixelaspectratio>
										<pproOriginalIsAnamorphic>FALSE</pproOriginalIsAnamorphic>
										<pproOriginalPAR>square</pproOriginalPAR>
										<fielddominance>none</fielddominance>
									</samplecharacteristics>
								</video>
								<audio>
									<samplecharacteristics>
										<depth>16</depth>
										<samplerate>48000</samplerate>
									</samplecharacteristics>
									<channelcount>2</channelcount>
								</audio>
							</media>
						</file>
						<link>
							<linkclipref>clipitem-621</linkclipref>
							<mediatype>video</mediatype>
							<trackindex>1</trackindex>
							<clipindex>35</clipindex>
						</link>
						<link>
							<linkclipref>clipitem-876</linkclipref>
							<mediatype>audio</mediatype>
							<trackindex>1</trackindex>
							<clipindex>24</clipindex>
							<groupindex>1</groupindex>
						</link>
						<link>
							<linkclipref>clipitem-911</linkclipref>
							<mediatype>audio</mediatype>
							<trackindex>2</trackindex>
							<clipindex>24</clipindex>
							<groupindex>1</groupindex>
						</link>
						<logginginfo>
							<description></description>
							<scene></scene>
							<shottake></shottake>
							<lognote></lognote>
							<good></good>
							<originalvideofilename></originalvideofilename>
							<originalaudiofilename></originalaudiofilename>
						</logginginfo>
						<colorinfo>
							<lut></lut>
							<lut1></lut1>
							<asc_sop></asc_sop>
							<asc_sat></asc_sat>
							<lut2></lut2>
						</colorinfo>
						<labels>
							<label2>Iris</label2>
						</labels>
					</clipitem>
					<clipitem id="clipitem-622">
						<masterclipid>masterclip-250</masterclipid>
						<name>3sek_master</name>
						<enabled>TRUE</enabled>
						<duration>74</duration>
						<rate>
							<timebase>25</timebase>
							<ntsc>FALSE</ntsc>
						</rate>
						<start>49232</start>
						<end>49292</end>
						<in>0</in>
						<out>60</out>
						<pproTicksIn>0</pproTicksIn>
						<pproTicksOut>609638400000</pproTicksOut>
						<alphatype>none</alphatype>
						<file id="file-218"/>
						<filter>
							<effect>
								<name>Basic Motion</name>
								<effectid>basic</effectid>
								<effectcategory>motion</effectcategory>
								<effecttype>motion</effecttype>
								<mediatype>video</mediatype>
								<pproBypass>false</pproBypass>
								<parameter authoringApp="PremierePro">
									<parameterid>scale</parameterid>
									<name>Scale</name>
									<valuemin>0</valuemin>
									<valuemax>1000</valuemax>
									<value>55</value>
								</parameter>
								<parameter authoringApp="PremierePro">
									<parameterid>rotation</parameterid>
									<name>Rotation</name>
									<valuemin>-8640</valuemin>
									<valuemax>8640</valuemax>
									<value>0</value>
								</parameter>
								<parameter authoringApp="PremierePro">
									<parameterid>center</parameterid>
									<name>Center</name>
									<value>
										<horiz>0</horiz>
										<vert>0</vert>
									</value>
								</parameter>
								<parameter authoringApp="PremierePro">
									<parameterid>centerOffset</parameterid>
									<name>Anchor Point</name>
									<value>
										<horiz>0</horiz>
										<vert>0</vert>
									</value>
								</parameter>
								<parameter authoringApp="PremierePro">
									<parameterid>antiflicker</parameterid>
									<name>Anti-flicker Filter</name>
									<valuemin>0.0</valuemin>
									<valuemax>1.0</valuemax>
									<value>0</value>
								</parameter>
							</effect>
						</filter>
						<filter>
							<effect>
								<name>Distort</name>
								<effectid>deformation</effectid>
								<effectcategory>motion</effectcategory>
								<effecttype>motion</effecttype>
								<mediatype>video</mediatype>
								<parameter authoringApp="PremierePro">
									<parameterid>aspect</parameterid>
									<name>Aspect</name>
									<valuemin>-10000</valuemin>
									<valuemax>10000</valuemax>
									<value>-3.125</value>
								</parameter>
							</effect>
						</filter>
						<link>
							<linkclipref>clipitem-622</linkclipref>
							<mediatype>video</mediatype>
							<trackindex>1</trackindex>
							<clipindex>36</clipindex>
						</link>
						<link>
							<linkclipref>clipitem-877</linkclipref>
							<mediatype>audio</mediatype>
							<trackindex>1</trackindex>
							<clipindex>25</clipindex>
							<groupindex>1</groupindex>
						</link>
						<link>
							<linkclipref>clipitem-912</linkclipref>
							<mediatype>audio</mediatype>
							<trackindex>2</trackindex>
							<clipindex>25</clipindex>
							<groupindex>1</groupindex>
						</link>
						<logginginfo>
							<description></description>
							<scene></scene>
							<shottake></shottake>
							<lognote></lognote>
							<good></good>
							<originalvideofilename></originalvideofilename>
							<originalaudiofilename></originalaudiofilename>
						</logginginfo>
						<colorinfo>
							<lut></lut>
							<lut1></lut1>
							<asc_sop></asc_sop>
							<asc_sat></asc_sat>
							<lut2></lut2>
						</colorinfo>
						<labels>
							<label2>Purple</label2>
						</labels>
					</clipitem>
					<clipitem id="clipitem-623">
						<masterclipid>masterclip-244</masterclipid>
						<name>Nested Sequence_470</name>
						<enabled>TRUE</enabled>
						<duration>13650</duration>
						<rate>
							<timebase>25</timebase>
							<ntsc>FALSE</ntsc>
						</rate>
						<start>49292</start>
						<end>50340</end>
						<in>9043</in>
						<out>10091</out>
						<pproTicksIn>91882667520000</pproTicksIn>
						<pproTicksOut>102531018240000</pproTicksOut>
						<sequence id="sequence-36"/>
						<link>
							<linkclipref>clipitem-623</linkclipref>
							<mediatype>video</mediatype>
							<trackindex>1</trackindex>
							<clipindex>37</clipindex>
						</link>
						<link>
							<linkclipref>clipitem-878</linkclipref>
							<mediatype>audio</mediatype>
							<trackindex>1</trackindex>
							<clipindex>26</clipindex>
							<groupindex>1</groupindex>
						</link>
						<link>
							<linkclipref>clipitem-913</linkclipref>
							<mediatype>audio</mediatype>
							<trackindex>2</trackindex>
							<clipindex>26</clipindex>
							<groupindex>1</groupindex>
						</link>
						<labels>
							<label2>Forest</label2>
						</labels>
					</clipitem>
					<clipitem id="clipitem-624">
						<masterclipid>masterclip-267</masterclipid>
						<name>3_OTB</name>
						<enabled>TRUE</enabled>
						<duration>180</duration>
						<rate>
							<timebase>25</timebase>
							<ntsc>FALSE</ntsc>
						</rate>
						<start>50340</start>
						<end>50415</end>
						<in>0</in>
						<out>180</out>
						<pproTicksIn>0</pproTicksIn>
						<pproTicksOut>1828915200000</pproTicksOut>
						<alphatype>none</alphatype>
						<pixelaspectratio>square</pixelaspectratio>
						<anamorphic>FALSE</anamorphic>
						<file id="file-235">
							<name>NUM_3.mov</name>
							<pathurl>file://localhost/_MUZ_TV/graphika/RU-21/MOD/otb/NUM_3.mov</pathurl>
							<rate>
								<timebase>25</timebase>
								<ntsc>FALSE</ntsc>
							</rate>
							<duration>180</duration>
							<timecode>
								<rate>
									<timebase>25</timebase>
									<ntsc>FALSE</ntsc>
								</rate>
								<string>00:00:00:01</string>
								<frame>1</frame>
								<displayformat>NDF</displayformat>
							</timecode>
							<media>
								<video>
									<samplecharacteristics>
										<rate>
											<timebase>25</timebase>
											<ntsc>FALSE</ntsc>
										</rate>
										<width>1920</width>
										<height>1080</height>
										<anamorphic>FALSE</anamorphic>
										<pixelaspectratio>square</pixelaspectratio>
										<fielddominance>none</fielddominance>
									</samplecharacteristics>
								</video>
							</media>
						</file>
						<filter>
							<effect>
								<name>Basic Motion</name>
								<effectid>basic</effectid>
								<effectcategory>motion</effectcategory>
								<effecttype>motion</effecttype>
								<mediatype>video</mediatype>
								<pproBypass>false</pproBypass>
								<parameter authoringApp="PremierePro">
									<parameterid>scale</parameterid>
									<name>Scale</name>
									<valuemin>0</valuemin>
									<valuemax>1000</valuemax>
									<value>55</value>
								</parameter>
								<parameter authoringApp="PremierePro">
									<parameterid>rotation</parameterid>
									<name>Rotation</name>
									<valuemin>-8640</valuemin>
									<valuemax>8640</valuemax>
									<value>0</value>
								</parameter>
								<parameter authoringApp="PremierePro">
									<parameterid>center</parameterid>
									<name>Center</name>
									<value>
										<horiz>0</horiz>
										<vert>0</vert>
									</value>
								</parameter>
								<parameter authoringApp="PremierePro">
									<parameterid>centerOffset</parameterid>
									<name>Anchor Point</name>
									<value>
										<horiz>0</horiz>
										<vert>0</vert>
									</value>
								</parameter>
								<parameter authoringApp="PremierePro">
									<parameterid>antiflicker</parameterid>
									<name>Anti-flicker Filter</name>
									<valuemin>0.0</valuemin>
									<valuemax>1.0</valuemax>
									<value>0</value>
								</parameter>
							</effect>
						</filter>
						<filter>
							<effect>
								<name>Distort</name>
								<effectid>deformation</effectid>
								<effectcategory>motion</effectcategory>
								<effecttype>motion</effecttype>
								<mediatype>video</mediatype>
								<parameter authoringApp="PremierePro">
									<parameterid>aspect</parameterid>
									<name>Aspect</name>
									<valuemin>-10000</valuemin>
									<valuemax>10000</valuemax>
									<value>-3.12506</value>
								</parameter>
							</effect>
						</filter>
						<logginginfo>
							<description></description>
							<scene></scene>
							<shottake></shottake>
							<lognote></lognote>
							<good></good>
							<originalvideofilename></originalvideofilename>
							<originalaudiofilename></originalaudiofilename>
						</logginginfo>
						<colorinfo>
							<lut></lut>
							<lut1></lut1>
							<asc_sop></asc_sop>
							<asc_sat></asc_sat>
							<lut2></lut2>
						</colorinfo>
						<labels>
							<label2>Violet</label2>
						</labels>
					</clipitem>
					<clipitem id="clipitem-625">
						<masterclipid>masterclip-268</masterclipid>
						<name>МАКС БАРСКИХ &amp; ZIVERT_BESTSELLER___MSWCLP004396.mov</name>
						<enabled>TRUE</enabled>
						<duration>5597</duration>
						<rate>
							<timebase>25</timebase>
							<ntsc>FALSE</ntsc>
						</rate>
						<start>50415</start>
						<end>55933</end>
						<in>0</in>
						<out>5518</out>
						<pproTicksIn>0</pproTicksIn>
						<pproTicksOut>56066411520000</pproTicksOut>
						<alphatype>none</alphatype>
						<pixelaspectratio>PAL-601</pixelaspectratio>
						<anamorphic>TRUE</anamorphic>
						<pproOriginalPAR>square</pproOriginalPAR>
						<pproOriginalIsAnamorphic>FALSE</pproOriginalIsAnamorphic>
						<file id="file-236">
							<name>МАКС БАРСКИХ &amp; ZIVERT_BESTSELLER___MSWCLP004396.mov</name>
							<pathurl>file://localhost/Volumes/1Tb/_MUZ_TV/Clips/%d0%9c%d0%90%d0%9a%d0%a1%20%d0%91%d0%90%d0%a0%d0%a1%d0%9a%d0%98%d0%a5%20&amp;%20ZIVERT_BESTSELLER___MSWCLP004396.mov</pathurl>
							<rate>
								<timebase>25</timebase>
								<ntsc>FALSE</ntsc>
							</rate>
							<duration>5597</duration>
							<timecode>
								<rate>
									<timebase>25</timebase>
									<ntsc>FALSE</ntsc>
								</rate>
								<string>00:00:00:00</string>
								<frame>0</frame>
								<displayformat>NDF</displayformat>
							</timecode>
							<media>
								<video>
									<samplecharacteristics>
										<rate>
											<timebase>25</timebase>
											<ntsc>FALSE</ntsc>
										</rate>
										<width>720</width>
										<height>576</height>
										<anamorphic>TRUE</anamorphic>
										<pixelaspectratio>PAL-601</pixelaspectratio>
										<pproOriginalIsAnamorphic>FALSE</pproOriginalIsAnamorphic>
										<pproOriginalPAR>square</pproOriginalPAR>
										<fielddominance>none</fielddominance>
									</samplecharacteristics>
								</video>
								<audio>
									<samplecharacteristics>
										<depth>16</depth>
										<samplerate>48000</samplerate>
									</samplecharacteristics>
									<channelcount>2</channelcount>
								</audio>
							</media>
						</file>
						<link>
							<linkclipref>clipitem-625</linkclipref>
							<mediatype>video</mediatype>
							<trackindex>1</trackindex>
							<clipindex>39</clipindex>
						</link>
						<link>
							<linkclipref>clipitem-879</linkclipref>
							<mediatype>audio</mediatype>
							<trackindex>1</trackindex>
							<clipindex>27</clipindex>
							<groupindex>1</groupindex>
						</link>
						<link>
							<linkclipref>clipitem-914</linkclipref>
							<mediatype>audio</mediatype>
							<trackindex>2</trackindex>
							<clipindex>27</clipindex>
							<groupindex>1</groupindex>
						</link>
						<logginginfo>
							<description></description>
							<scene></scene>
							<shottake></shottake>
							<lognote></lognote>
							<good></good>
							<originalvideofilename></originalvideofilename>
							<originalaudiofilename></originalaudiofilename>
						</logginginfo>
						<colorinfo>
							<lut></lut>
							<lut1></lut1>
							<asc_sop></asc_sop>
							<asc_sat></asc_sat>
							<lut2></lut2>
						</colorinfo>
						<labels>
							<label2>Iris</label2>
						</labels>
					</clipitem>
					<clipitem id="clipitem-626">
						<masterclipid>masterclip-250</masterclipid>
						<name>3sek_master</name>
						<enabled>TRUE</enabled>
						<duration>74</duration>
						<rate>
							<timebase>25</timebase>
							<ntsc>FALSE</ntsc>
						</rate>
						<start>55933</start>
						<end>55993</end>
						<in>0</in>
						<out>60</out>
						<pproTicksIn>0</pproTicksIn>
						<pproTicksOut>609638400000</pproTicksOut>
						<alphatype>none</alphatype>
						<file id="file-218"/>
						<filter>
							<effect>
								<name>Basic Motion</name>
								<effectid>basic</effectid>
								<effectcategory>motion</effectcategory>
								<effecttype>motion</effecttype>
								<mediatype>video</mediatype>
								<pproBypass>false</pproBypass>
								<parameter authoringApp="PremierePro">
									<parameterid>scale</parameterid>
									<name>Scale</name>
									<valuemin>0</valuemin>
									<valuemax>1000</valuemax>
									<value>55</value>
								</parameter>
								<parameter authoringApp="PremierePro">
									<parameterid>rotation</parameterid>
									<name>Rotation</name>
									<valuemin>-8640</valuemin>
									<valuemax>8640</valuemax>
									<value>0</value>
								</parameter>
								<parameter authoringApp="PremierePro">
									<parameterid>center</parameterid>
									<name>Center</name>
									<value>
										<horiz>0</horiz>
										<vert>0</vert>
									</value>
								</parameter>
								<parameter authoringApp="PremierePro">
									<parameterid>centerOffset</parameterid>
									<name>Anchor Point</name>
									<value>
										<horiz>0</horiz>
										<vert>0</vert>
									</value>
								</parameter>
								<parameter authoringApp="PremierePro">
									<parameterid>antiflicker</parameterid>
									<name>Anti-flicker Filter</name>
									<valuemin>0.0</valuemin>
									<valuemax>1.0</valuemax>
									<value>0</value>
								</parameter>
							</effect>
						</filter>
						<filter>
							<effect>
								<name>Distort</name>
								<effectid>deformation</effectid>
								<effectcategory>motion</effectcategory>
								<effecttype>motion</effecttype>
								<mediatype>video</mediatype>
								<parameter authoringApp="PremierePro">
									<parameterid>aspect</parameterid>
									<name>Aspect</name>
									<valuemin>-10000</valuemin>
									<valuemax>10000</valuemax>
									<value>-3.125</value>
								</parameter>
							</effect>
						</filter>
						<link>
							<linkclipref>clipitem-626</linkclipref>
							<mediatype>video</mediatype>
							<trackindex>1</trackindex>
							<clipindex>40</clipindex>
						</link>
						<link>
							<linkclipref>clipitem-880</linkclipref>
							<mediatype>audio</mediatype>
							<trackindex>1</trackindex>
							<clipindex>28</clipindex>
							<groupindex>1</groupindex>
						</link>
						<link>
							<linkclipref>clipitem-915</linkclipref>
							<mediatype>audio</mediatype>
							<trackindex>2</trackindex>
							<clipindex>28</clipindex>
							<groupindex>1</groupindex>
						</link>
						<logginginfo>
							<description></description>
							<scene></scene>
							<shottake></shottake>
							<lognote></lognote>
							<good></good>
							<originalvideofilename></originalvideofilename>
							<originalaudiofilename></originalaudiofilename>
						</logginginfo>
						<colorinfo>
							<lut></lut>
							<lut1></lut1>
							<asc_sop></asc_sop>
							<asc_sat></asc_sat>
							<lut2></lut2>
						</colorinfo>
						<labels>
							<label2>Purple</label2>
						</labels>
					</clipitem>
					<clipitem id="clipitem-627">
						<masterclipid>masterclip-244</masterclipid>
						<name>Nested Sequence_470</name>
						<enabled>TRUE</enabled>
						<duration>13650</duration>
						<rate>
							<timebase>25</timebase>
							<ntsc>FALSE</ntsc>
						</rate>
						<start>55993</start>
						<end>56985</end>
						<in>10112</in>
						<out>11104</out>
						<pproTicksIn>102744391680000</pproTicksIn>
						<pproTicksOut>112823746560000</pproTicksOut>
						<sequence id="sequence-36"/>
						<link>
							<linkclipref>clipitem-627</linkclipref>
							<mediatype>video</mediatype>
							<trackindex>1</trackindex>
							<clipindex>41</clipindex>
						</link>
						<link>
							<linkclipref>clipitem-881</linkclipref>
							<mediatype>audio</mediatype>
							<trackindex>1</trackindex>
							<clipindex>29</clipindex>
							<groupindex>1</groupindex>
						</link>
						<link>
							<linkclipref>clipitem-916</linkclipref>
							<mediatype>audio</mediatype>
							<trackindex>2</trackindex>
							<clipindex>29</clipindex>
							<groupindex>1</groupindex>
						</link>
						<labels>
							<label2>Forest</label2>
						</labels>
					</clipitem>
					<clipitem id="clipitem-628">
						<masterclipid>masterclip-269</masterclipid>
						<name>2_OTB</name>
						<enabled>TRUE</enabled>
						<duration>180</duration>
						<rate>
							<timebase>25</timebase>
							<ntsc>FALSE</ntsc>
						</rate>
						<start>56985</start>
						<end>57060</end>
						<in>0</in>
						<out>180</out>
						<pproTicksIn>0</pproTicksIn>
						<pproTicksOut>1828915200000</pproTicksOut>
						<alphatype>none</alphatype>
						<pixelaspectratio>square</pixelaspectratio>
						<anamorphic>FALSE</anamorphic>
						<file id="file-237">
							<name>NUM_2.mov</name>
							<pathurl>file://localhost/_MUZ_TV/graphika/RU-21/MOD/otb/NUM_2.mov</pathurl>
							<rate>
								<timebase>25</timebase>
								<ntsc>FALSE</ntsc>
							</rate>
							<duration>180</duration>
							<timecode>
								<rate>
									<timebase>25</timebase>
									<ntsc>FALSE</ntsc>
								</rate>
								<string>00:00:00:01</string>
								<frame>1</frame>
								<displayformat>NDF</displayformat>
							</timecode>
							<media>
								<video>
									<samplecharacteristics>
										<rate>
											<timebase>25</timebase>
											<ntsc>FALSE</ntsc>
										</rate>
										<width>1920</width>
										<height>1080</height>
										<anamorphic>FALSE</anamorphic>
										<pixelaspectratio>square</pixelaspectratio>
										<fielddominance>none</fielddominance>
									</samplecharacteristics>
								</video>
							</media>
						</file>
						<filter>
							<effect>
								<name>Basic Motion</name>
								<effectid>basic</effectid>
								<effectcategory>motion</effectcategory>
								<effecttype>motion</effecttype>
								<mediatype>video</mediatype>
								<pproBypass>false</pproBypass>
								<parameter authoringApp="PremierePro">
									<parameterid>scale</parameterid>
									<name>Scale</name>
									<valuemin>0</valuemin>
									<valuemax>1000</valuemax>
									<value>55</value>
								</parameter>
								<parameter authoringApp="PremierePro">
									<parameterid>rotation</parameterid>
									<name>Rotation</name>
									<valuemin>-8640</valuemin>
									<valuemax>8640</valuemax>
									<value>0</value>
								</parameter>
								<parameter authoringApp="PremierePro">
									<parameterid>center</parameterid>
									<name>Center</name>
									<value>
										<horiz>0</horiz>
										<vert>0</vert>
									</value>
								</parameter>
								<parameter authoringApp="PremierePro">
									<parameterid>centerOffset</parameterid>
									<name>Anchor Point</name>
									<value>
										<horiz>0</horiz>
										<vert>0</vert>
									</value>
								</parameter>
								<parameter authoringApp="PremierePro">
									<parameterid>antiflicker</parameterid>
									<name>Anti-flicker Filter</name>
									<valuemin>0.0</valuemin>
									<valuemax>1.0</valuemax>
									<value>0</value>
								</parameter>
							</effect>
						</filter>
						<filter>
							<effect>
								<name>Distort</name>
								<effectid>deformation</effectid>
								<effectcategory>motion</effectcategory>
								<effecttype>motion</effecttype>
								<mediatype>video</mediatype>
								<parameter authoringApp="PremierePro">
									<parameterid>aspect</parameterid>
									<name>Aspect</name>
									<valuemin>-10000</valuemin>
									<valuemax>10000</valuemax>
									<value>-3.12506</value>
								</parameter>
							</effect>
						</filter>
						<logginginfo>
							<description></description>
							<scene></scene>
							<shottake></shottake>
							<lognote></lognote>
							<good></good>
							<originalvideofilename></originalvideofilename>
							<originalaudiofilename></originalaudiofilename>
						</logginginfo>
						<colorinfo>
							<lut></lut>
							<lut1></lut1>
							<asc_sop></asc_sop>
							<asc_sat></asc_sat>
							<lut2></lut2>
						</colorinfo>
						<labels>
							<label2>Violet</label2>
						</labels>
					</clipitem>
					<clipitem id="clipitem-629">
						<masterclipid>masterclip-270</masterclipid>
						<name>GALIBRI &amp; MAVIK_ФЕДЕРИКО ФЕЛЛИНИ___MSWCLP004538.mov</name>
						<enabled>TRUE</enabled>
						<duration>3492</duration>
						<rate>
							<timebase>25</timebase>
							<ntsc>FALSE</ntsc>
						</rate>
						<start>57060</start>
						<end>60462</end>
						<in>0</in>
						<out>3402</out>
						<pproTicksIn>0</pproTicksIn>
						<pproTicksOut>34566497280000</pproTicksOut>
						<alphatype>none</alphatype>
						<pixelaspectratio>PAL-601</pixelaspectratio>
						<anamorphic>TRUE</anamorphic>
						<pproOriginalPAR>square</pproOriginalPAR>
						<pproOriginalIsAnamorphic>FALSE</pproOriginalIsAnamorphic>
						<file id="file-238">
							<name>GALIBRI &amp; MAVIK_ФЕДЕРИКО ФЕЛЛИНИ___MSWCLP004538.mov</name>
							<pathurl>file://localhost/Volumes/1Tb/_MUZ_TV/Clips/GALIBRI%20&amp;%20MAVIK_%d0%a4%d0%95%d0%94%d0%95%d0%a0%d0%98%d0%9a%d0%9e%20%d0%a4%d0%95%d0%9b%d0%9b%d0%98%d0%9d%d0%98___MSWCLP004538.mov</pathurl>
							<rate>
								<timebase>25</timebase>
								<ntsc>FALSE</ntsc>
							</rate>
							<duration>3492</duration>
							<timecode>
								<rate>
									<timebase>25</timebase>
									<ntsc>FALSE</ntsc>
								</rate>
								<string>00:00:00:00</string>
								<frame>0</frame>
								<displayformat>NDF</displayformat>
							</timecode>
							<media>
								<video>
									<samplecharacteristics>
										<rate>
											<timebase>25</timebase>
											<ntsc>FALSE</ntsc>
										</rate>
										<width>720</width>
										<height>576</height>
										<anamorphic>TRUE</anamorphic>
										<pixelaspectratio>PAL-601</pixelaspectratio>
										<pproOriginalIsAnamorphic>FALSE</pproOriginalIsAnamorphic>
										<pproOriginalPAR>square</pproOriginalPAR>
										<fielddominance>none</fielddominance>
									</samplecharacteristics>
								</video>
								<audio>
									<samplecharacteristics>
										<depth>16</depth>
										<samplerate>48000</samplerate>
									</samplecharacteristics>
									<channelcount>2</channelcount>
								</audio>
							</media>
						</file>
						<link>
							<linkclipref>clipitem-629</linkclipref>
							<mediatype>video</mediatype>
							<trackindex>1</trackindex>
							<clipindex>43</clipindex>
						</link>
						<link>
							<linkclipref>clipitem-882</linkclipref>
							<mediatype>audio</mediatype>
							<trackindex>1</trackindex>
							<clipindex>30</clipindex>
							<groupindex>1</groupindex>
						</link>
						<link>
							<linkclipref>clipitem-917</linkclipref>
							<mediatype>audio</mediatype>
							<trackindex>2</trackindex>
							<clipindex>30</clipindex>
							<groupindex>1</groupindex>
						</link>
						<logginginfo>
							<description></description>
							<scene></scene>
							<shottake></shottake>
							<lognote></lognote>
							<good></good>
							<originalvideofilename></originalvideofilename>
							<originalaudiofilename></originalaudiofilename>
						</logginginfo>
						<colorinfo>
							<lut></lut>
							<lut1></lut1>
							<asc_sop></asc_sop>
							<asc_sat></asc_sat>
							<lut2></lut2>
						</colorinfo>
						<labels>
							<label2>Iris</label2>
						</labels>
					</clipitem>
					<clipitem id="clipitem-630">
						<masterclipid>masterclip-250</masterclipid>
						<name>3sek_master</name>
						<enabled>TRUE</enabled>
						<duration>74</duration>
						<rate>
							<timebase>25</timebase>
							<ntsc>FALSE</ntsc>
						</rate>
						<start>60462</start>
						<end>60522</end>
						<in>0</in>
						<out>60</out>
						<pproTicksIn>0</pproTicksIn>
						<pproTicksOut>609638400000</pproTicksOut>
						<alphatype>none</alphatype>
						<file id="file-218"/>
						<filter>
							<effect>
								<name>Basic Motion</name>
								<effectid>basic</effectid>
								<effectcategory>motion</effectcategory>
								<effecttype>motion</effecttype>
								<mediatype>video</mediatype>
								<pproBypass>false</pproBypass>
								<parameter authoringApp="PremierePro">
									<parameterid>scale</parameterid>
									<name>Scale</name>
									<valuemin>0</valuemin>
									<valuemax>1000</valuemax>
									<value>55</value>
								</parameter>
								<parameter authoringApp="PremierePro">
									<parameterid>rotation</parameterid>
									<name>Rotation</name>
									<valuemin>-8640</valuemin>
									<valuemax>8640</valuemax>
									<value>0</value>
								</parameter>
								<parameter authoringApp="PremierePro">
									<parameterid>center</parameterid>
									<name>Center</name>
									<value>
										<horiz>0</horiz>
										<vert>0</vert>
									</value>
								</parameter>
								<parameter authoringApp="PremierePro">
									<parameterid>centerOffset</parameterid>
									<name>Anchor Point</name>
									<value>
										<horiz>0</horiz>
										<vert>0</vert>
									</value>
								</parameter>
								<parameter authoringApp="PremierePro">
									<parameterid>antiflicker</parameterid>
									<name>Anti-flicker Filter</name>
									<valuemin>0.0</valuemin>
									<valuemax>1.0</valuemax>
									<value>0</value>
								</parameter>
							</effect>
						</filter>
						<filter>
							<effect>
								<name>Distort</name>
								<effectid>deformation</effectid>
								<effectcategory>motion</effectcategory>
								<effecttype>motion</effecttype>
								<mediatype>video</mediatype>
								<parameter authoringApp="PremierePro">
									<parameterid>aspect</parameterid>
									<name>Aspect</name>
									<valuemin>-10000</valuemin>
									<valuemax>10000</valuemax>
									<value>-3.125</value>
								</parameter>
							</effect>
						</filter>
						<link>
							<linkclipref>clipitem-630</linkclipref>
							<mediatype>video</mediatype>
							<trackindex>1</trackindex>
							<clipindex>44</clipindex>
						</link>
						<link>
							<linkclipref>clipitem-883</linkclipref>
							<mediatype>audio</mediatype>
							<trackindex>1</trackindex>
							<clipindex>31</clipindex>
							<groupindex>1</groupindex>
						</link>
						<link>
							<linkclipref>clipitem-918</linkclipref>
							<mediatype>audio</mediatype>
							<trackindex>2</trackindex>
							<clipindex>31</clipindex>
							<groupindex>1</groupindex>
						</link>
						<logginginfo>
							<description></description>
							<scene></scene>
							<shottake></shottake>
							<lognote></lognote>
							<good></good>
							<originalvideofilename></originalvideofilename>
							<originalaudiofilename></originalaudiofilename>
						</logginginfo>
						<colorinfo>
							<lut></lut>
							<lut1></lut1>
							<asc_sop></asc_sop>
							<asc_sat></asc_sat>
							<lut2></lut2>
						</colorinfo>
						<labels>
							<label2>Purple</label2>
						</labels>
					</clipitem>
					<clipitem id="clipitem-631">
						<masterclipid>masterclip-244</masterclipid>
						<name>Nested Sequence_470</name>
						<enabled>TRUE</enabled>
						<duration>13650</duration>
						<rate>
							<timebase>25</timebase>
							<ntsc>FALSE</ntsc>
						</rate>
						<start>60522</start>
						<end>61499</end>
						<in>11134</in>
						<out>12111</out>
						<pproTicksIn>113128565760000</pproTicksIn>
						<pproTicksOut>123055511040000</pproTicksOut>
						<sequence id="sequence-36"/>
						<link>
							<linkclipref>clipitem-631</linkclipref>
							<mediatype>video</mediatype>
							<trackindex>1</trackindex>
							<clipindex>45</clipindex>
						</link>
						<link>
							<linkclipref>clipitem-884</linkclipref>
							<mediatype>audio</mediatype>
							<trackindex>1</trackindex>
							<clipindex>32</clipindex>
							<groupindex>1</groupindex>
						</link>
						<link>
							<linkclipref>clipitem-919</linkclipref>
							<mediatype>audio</mediatype>
							<trackindex>2</trackindex>
							<clipindex>32</clipindex>
							<groupindex>1</groupindex>
						</link>
						<labels>
							<label2>Forest</label2>
						</labels>
					</clipitem>
					<clipitem id="clipitem-632">
						<masterclipid>masterclip-271</masterclipid>
						<name>1_OTB</name>
						<enabled>TRUE</enabled>
						<duration>180</duration>
						<rate>
							<timebase>25</timebase>
							<ntsc>FALSE</ntsc>
						</rate>
						<start>61499</start>
						<end>61574</end>
						<in>0</in>
						<out>180</out>
						<pproTicksIn>0</pproTicksIn>
						<pproTicksOut>1828915200000</pproTicksOut>
						<alphatype>none</alphatype>
						<pixelaspectratio>square</pixelaspectratio>
						<anamorphic>FALSE</anamorphic>
						<file id="file-239">
							<name>NUM_1.mov</name>
							<pathurl>file://localhost/_MUZ_TV/graphika/RU-21/MOD/otb/NUM_1.mov</pathurl>
							<rate>
								<timebase>25</timebase>
								<ntsc>FALSE</ntsc>
							</rate>
							<duration>180</duration>
							<timecode>
								<rate>
									<timebase>25</timebase>
									<ntsc>FALSE</ntsc>
								</rate>
								<string>00:00:00:01</string>
								<frame>1</frame>
								<displayformat>NDF</displayformat>
							</timecode>
							<media>
								<video>
									<samplecharacteristics>
										<rate>
											<timebase>25</timebase>
											<ntsc>FALSE</ntsc>
										</rate>
										<width>1920</width>
										<height>1080</height>
										<anamorphic>FALSE</anamorphic>
										<pixelaspectratio>square</pixelaspectratio>
										<fielddominance>none</fielddominance>
									</samplecharacteristics>
								</video>
							</media>
						</file>
						<filter>
							<effect>
								<name>Basic Motion</name>
								<effectid>basic</effectid>
								<effectcategory>motion</effectcategory>
								<effecttype>motion</effecttype>
								<mediatype>video</mediatype>
								<pproBypass>false</pproBypass>
								<parameter authoringApp="PremierePro">
									<parameterid>scale</parameterid>
									<name>Scale</name>
									<valuemin>0</valuemin>
									<valuemax>1000</valuemax>
									<value>55</value>
								</parameter>
								<parameter authoringApp="PremierePro">
									<parameterid>rotation</parameterid>
									<name>Rotation</name>
									<valuemin>-8640</valuemin>
									<valuemax>8640</valuemax>
									<value>0</value>
								</parameter>
								<parameter authoringApp="PremierePro">
									<parameterid>center</parameterid>
									<name>Center</name>
									<value>
										<horiz>0</horiz>
										<vert>0</vert>
									</value>
								</parameter>
								<parameter authoringApp="PremierePro">
									<parameterid>centerOffset</parameterid>
									<name>Anchor Point</name>
									<value>
										<horiz>0</horiz>
										<vert>0</vert>
									</value>
								</parameter>
								<parameter authoringApp="PremierePro">
									<parameterid>antiflicker</parameterid>
									<name>Anti-flicker Filter</name>
									<valuemin>0.0</valuemin>
									<valuemax>1.0</valuemax>
									<value>0</value>
								</parameter>
							</effect>
						</filter>
						<filter>
							<effect>
								<name>Distort</name>
								<effectid>deformation</effectid>
								<effectcategory>motion</effectcategory>
								<effecttype>motion</effecttype>
								<mediatype>video</mediatype>
								<parameter authoringApp="PremierePro">
									<parameterid>aspect</parameterid>
									<name>Aspect</name>
									<valuemin>-10000</valuemin>
									<valuemax>10000</valuemax>
									<value>-3.12506</value>
								</parameter>
							</effect>
						</filter>
						<logginginfo>
							<description></description>
							<scene></scene>
							<shottake></shottake>
							<lognote></lognote>
							<good></good>
							<originalvideofilename></originalvideofilename>
							<originalaudiofilename></originalaudiofilename>
						</logginginfo>
						<colorinfo>
							<lut></lut>
							<lut1></lut1>
							<asc_sop></asc_sop>
							<asc_sat></asc_sat>
							<lut2></lut2>
						</colorinfo>
						<labels>
							<label2>Violet</label2>
						</labels>
					</clipitem>
					<clipitem id="clipitem-633">
						<masterclipid>masterclip-272</masterclipid>
						<name>ХАБИБ_ЯГОДА МАЛИНКА___MSWCLP004296.mov</name>
						<enabled>TRUE</enabled>
						<duration>3670</duration>
						<rate>
							<timebase>25</timebase>
							<ntsc>FALSE</ntsc>
						</rate>
						<start>61574</start>
						<end>65117</end>
						<in>121</in>
						<out>3664</out>
						<pproTicksIn>1229437440000</pproTicksIn>
						<pproTicksOut>37228584960000</pproTicksOut>
						<alphatype>none</alphatype>
						<pixelaspectratio>PAL-601</pixelaspectratio>
						<anamorphic>TRUE</anamorphic>
						<pproOriginalPAR>square</pproOriginalPAR>
						<pproOriginalIsAnamorphic>FALSE</pproOriginalIsAnamorphic>
						<file id="file-240">
							<name>ХАБИБ_ЯГОДА МАЛИНКА___MSWCLP004296.mov</name>
							<pathurl>file://localhost/Volumes/1Tb/_MUZ_TV/Clips/%d0%a5%d0%90%d0%91%d0%98%d0%91_%d0%af%d0%93%d0%9e%d0%94%d0%90%20%d0%9c%d0%90%d0%9b%d0%98%d0%9d%d0%9a%d0%90___MSWCLP004296.mov</pathurl>
							<rate>
								<timebase>25</timebase>
								<ntsc>FALSE</ntsc>
							</rate>
							<duration>3670</duration>
							<timecode>
								<rate>
									<timebase>25</timebase>
									<ntsc>FALSE</ntsc>
								</rate>
								<string>00:00:00:00</string>
								<frame>0</frame>
								<displayformat>NDF</displayformat>
							</timecode>
							<media>
								<video>
									<samplecharacteristics>
										<rate>
											<timebase>25</timebase>
											<ntsc>FALSE</ntsc>
										</rate>
										<width>720</width>
										<height>576</height>
										<anamorphic>TRUE</anamorphic>
										<pixelaspectratio>PAL-601</pixelaspectratio>
										<pproOriginalIsAnamorphic>FALSE</pproOriginalIsAnamorphic>
										<pproOriginalPAR>square</pproOriginalPAR>
										<fielddominance>none</fielddominance>
									</samplecharacteristics>
								</video>
								<audio>
									<samplecharacteristics>
										<depth>16</depth>
										<samplerate>48000</samplerate>
									</samplecharacteristics>
									<channelcount>2</channelcount>
								</audio>
							</media>
						</file>
						<link>
							<linkclipref>clipitem-633</linkclipref>
							<mediatype>video</mediatype>
							<trackindex>1</trackindex>
							<clipindex>47</clipindex>
						</link>
						<link>
							<linkclipref>clipitem-885</linkclipref>
							<mediatype>audio</mediatype>
							<trackindex>1</trackindex>
							<clipindex>33</clipindex>
							<groupindex>1</groupindex>
						</link>
						<link>
							<linkclipref>clipitem-920</linkclipref>
							<mediatype>audio</mediatype>
							<trackindex>2</trackindex>
							<clipindex>33</clipindex>
							<groupindex>1</groupindex>
						</link>
						<logginginfo>
							<description></description>
							<scene></scene>
							<shottake></shottake>
							<lognote></lognote>
							<good></good>
							<originalvideofilename></originalvideofilename>
							<originalaudiofilename></originalaudiofilename>
						</logginginfo>
						<colorinfo>
							<lut></lut>
							<lut1></lut1>
							<asc_sop></asc_sop>
							<asc_sat></asc_sat>
							<lut2></lut2>
						</colorinfo>
						<labels>
							<label2>Iris</label2>
						</labels>
					</clipitem>
					<clipitem id="clipitem-634">
						<masterclipid>masterclip-250</masterclipid>
						<name>3sek_master</name>
						<enabled>TRUE</enabled>
						<duration>74</duration>
						<rate>
							<timebase>25</timebase>
							<ntsc>FALSE</ntsc>
						</rate>
						<start>65117</start>
						<end>65177</end>
						<in>0</in>
						<out>60</out>
						<pproTicksIn>0</pproTicksIn>
						<pproTicksOut>609638400000</pproTicksOut>
						<alphatype>none</alphatype>
						<file id="file-218"/>
						<filter>
							<effect>
								<name>Basic Motion</name>
								<effectid>basic</effectid>
								<effectcategory>motion</effectcategory>
								<effecttype>motion</effecttype>
								<mediatype>video</mediatype>
								<pproBypass>false</pproBypass>
								<parameter authoringApp="PremierePro">
									<parameterid>scale</parameterid>
									<name>Scale</name>
									<valuemin>0</valuemin>
									<valuemax>1000</valuemax>
									<value>55</value>
								</parameter>
								<parameter authoringApp="PremierePro">
									<parameterid>rotation</parameterid>
									<name>Rotation</name>
									<valuemin>-8640</valuemin>
									<valuemax>8640</valuemax>
									<value>0</value>
								</parameter>
								<parameter authoringApp="PremierePro">
									<parameterid>center</parameterid>
									<name>Center</name>
									<value>
										<horiz>0</horiz>
										<vert>0</vert>
									</value>
								</parameter>
								<parameter authoringApp="PremierePro">
									<parameterid>centerOffset</parameterid>
									<name>Anchor Point</name>
									<value>
										<horiz>0</horiz>
										<vert>0</vert>
									</value>
								</parameter>
								<parameter authoringApp="PremierePro">
									<parameterid>antiflicker</parameterid>
									<name>Anti-flicker Filter</name>
									<valuemin>0.0</valuemin>
									<valuemax>1.0</valuemax>
									<value>0</value>
								</parameter>
							</effect>
						</filter>
						<filter>
							<effect>
								<name>Distort</name>
								<effectid>deformation</effectid>
								<effectcategory>motion</effectcategory>
								<effecttype>motion</effecttype>
								<mediatype>video</mediatype>
								<parameter authoringApp="PremierePro">
									<parameterid>aspect</parameterid>
									<name>Aspect</name>
									<valuemin>-10000</valuemin>
									<valuemax>10000</valuemax>
									<value>-3.125</value>
								</parameter>
							</effect>
						</filter>
						<link>
							<linkclipref>clipitem-634</linkclipref>
							<mediatype>video</mediatype>
							<trackindex>1</trackindex>
							<clipindex>48</clipindex>
						</link>
						<link>
							<linkclipref>clipitem-886</linkclipref>
							<mediatype>audio</mediatype>
							<trackindex>1</trackindex>
							<clipindex>34</clipindex>
							<groupindex>1</groupindex>
						</link>
						<link>
							<linkclipref>clipitem-921</linkclipref>
							<mediatype>audio</mediatype>
							<trackindex>2</trackindex>
							<clipindex>34</clipindex>
							<groupindex>1</groupindex>
						</link>
						<logginginfo>
							<description></description>
							<scene></scene>
							<shottake></shottake>
							<lognote></lognote>
							<good></good>
							<originalvideofilename></originalvideofilename>
							<originalaudiofilename></originalaudiofilename>
						</logginginfo>
						<colorinfo>
							<lut></lut>
							<lut1></lut1>
							<asc_sop></asc_sop>
							<asc_sat></asc_sat>
							<lut2></lut2>
						</colorinfo>
						<labels>
							<label2>Purple</label2>
						</labels>
					</clipitem>
					<clipitem id="clipitem-635">
						<masterclipid>masterclip-244</masterclipid>
						<name>Nested Sequence_470</name>
						<enabled>TRUE</enabled>
						<duration>13650</duration>
						<rate>
							<timebase>25</timebase>
							<ntsc>FALSE</ntsc>
						</rate>
						<start>65177</start>
						<end>65740</end>
						<in>12135</in>
						<out>12698</out>
						<pproTicksIn>123299366400000</pproTicksIn>
						<pproTicksOut>129019806720000</pproTicksOut>
						<sequence id="sequence-36"/>
						<link>
							<linkclipref>clipitem-635</linkclipref>
							<mediatype>video</mediatype>
							<trackindex>1</trackindex>
							<clipindex>49</clipindex>
						</link>
						<link>
							<linkclipref>clipitem-887</linkclipref>
							<mediatype>audio</mediatype>
							<trackindex>1</trackindex>
							<clipindex>35</clipindex>
							<groupindex>1</groupindex>
						</link>
						<link>
							<linkclipref>clipitem-922</linkclipref>
							<mediatype>audio</mediatype>
							<trackindex>2</trackindex>
							<clipindex>35</clipindex>
							<groupindex>1</groupindex>
						</link>
						<labels>
							<label2>Forest</label2>
						</labels>
					</clipitem>
					<clipitem id="clipitem-636">
						<masterclipid>masterclip-243</masterclipid>
						<name>MYZ_RusskiyChart_appProRes_v2.mov</name>
						<enabled>TRUE</enabled>
						<duration>299</duration>
						<rate>
							<timebase>25</timebase>
							<ntsc>FALSE</ntsc>
						</rate>
						<start>65740</start>
						<end>66000</end>
						<in>22</in>
						<out>282</out>
						<pproTicksIn>223534080000</pproTicksIn>
						<pproTicksOut>2865300480000</pproTicksOut>
						<alphatype>none</alphatype>
						<file id="file-212"/>
						<filter>
							<effect>
								<name>Basic Motion</name>
								<effectid>basic</effectid>
								<effectcategory>motion</effectcategory>
								<effecttype>motion</effecttype>
								<mediatype>video</mediatype>
								<pproBypass>false</pproBypass>
								<parameter authoringApp="PremierePro">
									<parameterid>scale</parameterid>
									<name>Scale</name>
									<valuemin>0</valuemin>
									<valuemax>1000</valuemax>
									<value>55</value>
								</parameter>
								<parameter authoringApp="PremierePro">
									<parameterid>rotation</parameterid>
									<name>Rotation</name>
									<valuemin>-8640</valuemin>
									<valuemax>8640</valuemax>
									<value>0</value>
								</parameter>
								<parameter authoringApp="PremierePro">
									<parameterid>center</parameterid>
									<name>Center</name>
									<value>
										<horiz>0</horiz>
										<vert>0</vert>
									</value>
								</parameter>
								<parameter authoringApp="PremierePro">
									<parameterid>centerOffset</parameterid>
									<name>Anchor Point</name>
									<value>
										<horiz>0</horiz>
										<vert>0</vert>
									</value>
								</parameter>
								<parameter authoringApp="PremierePro">
									<parameterid>antiflicker</parameterid>
									<name>Anti-flicker Filter</name>
									<valuemin>0.0</valuemin>
									<valuemax>1.0</valuemax>
									<value>0</value>
								</parameter>
							</effect>
						</filter>
						<link>
							<linkclipref>clipitem-636</linkclipref>
							<mediatype>video</mediatype>
							<trackindex>1</trackindex>
							<clipindex>50</clipindex>
						</link>
						<link>
							<linkclipref>clipitem-936</linkclipref>
							<mediatype>audio</mediatype>
							<trackindex>3</trackindex>
							<clipindex>14</clipindex>
							<groupindex>1</groupindex>
						</link>
						<link>
							<linkclipref>clipitem-950</linkclipref>
							<mediatype>audio</mediatype>
							<trackindex>4</trackindex>
							<clipindex>14</clipindex>
							<groupindex>1</groupindex>
						</link>
						<logginginfo>
							<description></description>
							<scene></scene>
							<shottake></shottake>
							<lognote></lognote>
							<good></good>
							<originalvideofilename></originalvideofilename>
							<originalaudiofilename></originalaudiofilename>
						</logginginfo>
						<colorinfo>
							<lut></lut>
							<lut1></lut1>
							<asc_sop></asc_sop>
							<asc_sat></asc_sat>
							<lut2></lut2>
						</colorinfo>
						<labels>
							<label2>Iris</label2>
						</labels>
					</clipitem>
					<enabled>TRUE</enabled>
					<locked>FALSE</locked>
				</track>
				<track TL.SQTrackShy="0" TL.SQTrackExpandedHeight="25" TL.SQTrackExpanded="0" MZ.TrackTargeted="0">
					<clipitem id="clipitem-637">
						<masterclipid>masterclip-273</masterclipid>
						<name>титр</name>
						<enabled>TRUE</enabled>
						<duration>225</duration>
						<rate>
							<timebase>25</timebase>
							<ntsc>FALSE</ntsc>
						</rate>
						<start>317</start>
						<end>488</end>
						<in>0</in>
						<out>171</out>
						<pproTicksIn>0</pproTicksIn>
						<pproTicksOut>1737469440000</pproTicksOut>
						<sequence id="sequence-37" TL.SQAudioVisibleBase="0" TL.SQVideoVisibleBase="0" TL.SQVisibleBaseTime="0" TL.SQAVDividerPosition="0.5" TL.SQHideShyTracks="0" TL.SQHeaderWidth="236" Monitor.ProgramZoomOut="1727308800000" Monitor.ProgramZoomIn="0" TL.SQTimePerPixel="0.016155997644678316" AM.TrackVScrollPosition="0" AM.TrackScrollPosition="0" MZ.EditLine="965260800000" MZ.Sequence.PreviewFrameSizeHeight="576" MZ.Sequence.PreviewFrameSizeWidth="720" MZ.Sequence.AudioTimeDisplayFormat="200" MZ.Sequence.PreviewRenderingClassID="1061109567" MZ.Sequence.PreviewRenderingPresetCodec="1685480304" MZ.Sequence.PreviewRenderingPresetPath="EncoderPresets/SequencePreview/04be6e19-a018-4e0c-a9d6-0ab44c64752b/QuickTime DV PAL.epr" MZ.Sequence.PreviewUseMaxRenderQuality="false" MZ.Sequence.PreviewUseMaxBitDepth="false" MZ.Sequence.EditingModeGUID="04be6e19-a018-4e0c-a9d6-0ab44c64752b" MZ.Sequence.VideoTimeDisplayFormat="101" MZ.WorkOutPoint="2286144000000" MZ.WorkInPoint="0">
							<duration>0</duration>
							<rate>
								<timebase>25</timebase>
								<ntsc>FALSE</ntsc>
							</rate>
							<name>Nested Sequence 09</name>
							<media>
								<video>
									<format>
										<samplecharacteristics>
											<rate>
												<timebase>25</timebase>
												<ntsc>FALSE</ntsc>
											</rate>
											<codec>
												<name>Apple ProRes 422</name>
												<appspecificdata>
													<appname>Final Cut Pro</appname>
													<appmanufacturer>Apple Inc.</appmanufacturer>
													<appversion>7.0</appversion>
													<data>
														<qtcodec>
															<codecname>Apple ProRes 422</codecname>
															<codectypename>Apple ProRes 422</codectypename>
															<codectypecode>apcn</codectypecode>
															<codecvendorcode>appl</codecvendorcode>
															<spatialquality>1024</spatialquality>
															<temporalquality>0</temporalquality>
															<keyframerate>0</keyframerate>
															<datarate>0</datarate>
														</qtcodec>
													</data>
												</appspecificdata>
											</codec>
											<width>720</width>
											<height>576</height>
											<anamorphic>TRUE</anamorphic>
											<pixelaspectratio>PAL-601</pixelaspectratio>
											<fielddominance>lower</fielddominance>
											<colordepth>24</colordepth>
										</samplecharacteristics>
									</format>
									<track TL.SQTrackShy="0" TL.SQTrackExpandedHeight="25" TL.SQTrackExpanded="0" MZ.TrackTargeted="1">
										<enabled>TRUE</enabled>
										<locked>FALSE</locked>
									</track>
									<track TL.SQTrackShy="0" TL.SQTrackExpandedHeight="25" TL.SQTrackExpanded="0" MZ.TrackTargeted="0">
										<enabled>TRUE</enabled>
										<locked>FALSE</locked>
									</track>
									<track TL.SQTrackShy="0" TL.SQTrackExpandedHeight="25" TL.SQTrackExpanded="0" MZ.TrackTargeted="0">
										<clipitem id="clipitem-638">
											<masterclipid>masterclip-274</masterclipid>
											<name>clean.mov</name>
											<enabled>TRUE</enabled>
											<duration>225</duration>
											<rate>
												<timebase>25</timebase>
												<ntsc>FALSE</ntsc>
											</rate>
											<start>0</start>
											<end>-1</end>
											<in>0</in>
											<out>146</out>
											<pproTicksIn>0</pproTicksIn>
											<pproTicksOut>1483453440000</pproTicksOut>
											<alphatype>straight</alphatype>
											<pixelaspectratio>square</pixelaspectratio>
											<anamorphic>FALSE</anamorphic>
											<file id="file-241">
												<name>clean.mov</name>
												<pathurl>file://localhost/Volumes/1Tb/_MUZ_TV/graphika/RU-21/MOD/title_plashka/clean.mov</pathurl>
												<rate>
													<timebase>25</timebase>
													<ntsc>FALSE</ntsc>
												</rate>
												<duration>225</duration>
												<timecode>
													<rate>
														<timebase>25</timebase>
														<ntsc>FALSE</ntsc>
													</rate>
													<string>00:01:30:00</string>
													<frame>2250</frame>
													<displayformat>NDF</displayformat>
												</timecode>
												<media>
													<video>
														<samplecharacteristics>
															<rate>
																<timebase>25</timebase>
																<ntsc>FALSE</ntsc>
															</rate>
															<width>1920</width>
															<height>1080</height>
															<anamorphic>FALSE</anamorphic>
															<pixelaspectratio>square</pixelaspectratio>
															<fielddominance>none</fielddominance>
														</samplecharacteristics>
													</video>
												</media>
											</file>
											<filter>
												<effect>
													<name>Basic Motion</name>
													<effectid>basic</effectid>
													<effectcategory>motion</effectcategory>
													<effecttype>motion</effecttype>
													<mediatype>video</mediatype>
													<pproBypass>false</pproBypass>
													<parameter authoringApp="PremierePro">
														<parameterid>scale</parameterid>
														<name>Scale</name>
														<valuemin>0</valuemin>
														<valuemax>1000</valuemax>
														<value>55</value>
													</parameter>
													<parameter authoringApp="PremierePro">
														<parameterid>rotation</parameterid>
														<name>Rotation</name>
														<valuemin>-8640</valuemin>
														<valuemax>8640</valuemax>
														<value>0</value>
													</parameter>
													<parameter authoringApp="PremierePro">
														<parameterid>center</parameterid>
														<name>Center</name>
														<value>
															<horiz>0</horiz>
															<vert>0</vert>
														</value>
													</parameter>
													<parameter authoringApp="PremierePro">
														<parameterid>centerOffset</parameterid>
														<name>Anchor Point</name>
														<value>
															<horiz>0</horiz>
															<vert>0</vert>
														</value>
													</parameter>
													<parameter authoringApp="PremierePro">
														<parameterid>antiflicker</parameterid>
														<name>Anti-flicker Filter</name>
														<valuemin>0.0</valuemin>
														<valuemax>1.0</valuemax>
														<value>0</value>
													</parameter>
												</effect>
											</filter>
											<filter>
												<effect>
													<name>Distort</name>
													<effectid>deformation</effectid>
													<effectcategory>motion</effectcategory>
													<effecttype>motion</effecttype>
													<mediatype>video</mediatype>
													<parameter authoringApp="PremierePro">
														<parameterid>aspect</parameterid>
														<name>Aspect</name>
														<valuemin>-10000</valuemin>
														<valuemax>10000</valuemax>
														<value>-3.125</value>
													</parameter>
												</effect>
											</filter>
											<logginginfo>
												<description></description>
												<scene></scene>
												<shottake></shottake>
												<lognote></lognote>
												<good></good>
												<originalvideofilename></originalvideofilename>
												<originalaudiofilename></originalaudiofilename>
											</logginginfo>
											<colorinfo>
												<lut></lut>
												<lut1></lut1>
												<asc_sop></asc_sop>
												<asc_sat></asc_sat>
												<lut2></lut2>
											</colorinfo>
											<labels>
												<label2>Violet</label2>
											</labels>
										</clipitem>
										<transitionitem>
											<start>106</start>
											<end>146</end>
											<alignment>center</alignment>
											<cutPointTicks>203212800000</cutPointTicks>
											<rate>
												<timebase>25</timebase>
												<ntsc>FALSE</ntsc>
											</rate>
											<effect>
												<name>Cross Dissolve</name>
												<effectid>Cross Dissolve</effectid>
												<effectcategory>Dissolve</effectcategory>
												<effecttype>transition</effecttype>
												<mediatype>video</mediatype>
												<wipecode>0</wipecode>
												<wipeaccuracy>100</wipeaccuracy>
												<startratio>0</startratio>
												<endratio>1</endratio>
												<reverse>FALSE</reverse>
											</effect>
										</transitionitem>
										<clipitem id="clipitem-639">
											<masterclipid>masterclip-274</masterclipid>
											<name>clean.mov</name>
											<enabled>TRUE</enabled>
											<duration>225</duration>
											<rate>
												<timebase>25</timebase>
												<ntsc>FALSE</ntsc>
											</rate>
											<start>-1</start>
											<end>170</end>
											<in>161</in>
											<out>225</out>
											<pproTicksIn>1635863040000</pproTicksIn>
											<pproTicksOut>2286144000000</pproTicksOut>
											<alphatype>straight</alphatype>
											<file id="file-241"/>
											<filter>
												<effect>
													<name>Basic Motion</name>
													<effectid>basic</effectid>
													<effectcategory>motion</effectcategory>
													<effecttype>motion</effecttype>
													<mediatype>video</mediatype>
													<pproBypass>false</pproBypass>
													<parameter authoringApp="PremierePro">
														<parameterid>scale</parameterid>
														<name>Scale</name>
														<valuemin>0</valuemin>
														<valuemax>1000</valuemax>
														<value>55</value>
													</parameter>
													<parameter authoringApp="PremierePro">
														<parameterid>rotation</parameterid>
														<name>Rotation</name>
														<valuemin>-8640</valuemin>
														<valuemax>8640</valuemax>
														<value>0</value>
													</parameter>
													<parameter authoringApp="PremierePro">
														<parameterid>center</parameterid>
														<name>Center</name>
														<value>
															<horiz>0</horiz>
															<vert>0</vert>
														</value>
													</parameter>
													<parameter authoringApp="PremierePro">
														<parameterid>centerOffset</parameterid>
														<name>Anchor Point</name>
														<value>
															<horiz>0</horiz>
															<vert>0</vert>
														</value>
													</parameter>
													<parameter authoringApp="PremierePro">
														<parameterid>antiflicker</parameterid>
														<name>Anti-flicker Filter</name>
														<valuemin>0.0</valuemin>
														<valuemax>1.0</valuemax>
														<value>0</value>
													</parameter>
												</effect>
											</filter>
											<filter>
												<effect>
													<name>Distort</name>
													<effectid>deformation</effectid>
													<effectcategory>motion</effectcategory>
													<effecttype>motion</effecttype>
													<mediatype>video</mediatype>
													<parameter authoringApp="PremierePro">
														<parameterid>aspect</parameterid>
														<name>Aspect</name>
														<valuemin>-10000</valuemin>
														<valuemax>10000</valuemax>
														<value>-3.125</value>
													</parameter>
												</effect>
											</filter>
											<logginginfo>
												<description></description>
												<scene></scene>
												<shottake></shottake>
												<lognote></lognote>
												<good></good>
												<originalvideofilename></originalvideofilename>
												<originalaudiofilename></originalaudiofilename>
											</logginginfo>
											<colorinfo>
												<lut></lut>
												<lut1></lut1>
												<asc_sop></asc_sop>
												<asc_sat></asc_sat>
												<lut2></lut2>
											</colorinfo>
											<labels>
												<label2>Violet</label2>
											</labels>
										</clipitem>
										<enabled>TRUE</enabled>
										<locked>FALSE</locked>
									</track>
									<track TL.SQTrackShy="0" TL.SQTrackExpandedHeight="25" TL.SQTrackExpanded="0" MZ.TrackTargeted="0">
										<transitionitem>
											<start>44</start>
											<end>101</end>
											<alignment>start-black</alignment>
											<cutPointTicks>0</cutPointTicks>
											<rate>
												<timebase>25</timebase>
												<ntsc>FALSE</ntsc>
											</rate>
											<effect>
												<name>Edge Wipe</name>
												<effectid>Edge Wipe</effectid>
												<effectcategory>Wipe</effectcategory>
												<effecttype>transition</effecttype>
												<mediatype>video</mediatype>
												<wipecode>2</wipecode>
												<wipeaccuracy>100</wipeaccuracy>
												<startratio>0</startratio>
												<endratio>1</endratio>
												<reverse>FALSE</reverse>
												<parameter authoringApp="PremierePro">
													<parameterid>directionofwipe</parameterid>
													<name>Angle</name>
													<valuemin>-360</valuemin>
													<valuemax>360</valuemax>
													<value>90</value>
												</parameter>
											</effect>
										</transitionitem>
										<clipitem id="clipitem-640">
											<masterclipid>masterclip-275</masterclipid>
											<name>ХАБИБ</name>
											<enabled>TRUE</enabled>
											<duration>1080000</duration>
											<rate>
												<timebase>25</timebase>
												<ntsc>FALSE</ntsc>
											</rate>
											<start>-1</start>
											<end>-1</end>
											<in>90000</in>
											<out>90126</out>
											<pproTicksIn>914457600000000</pproTicksIn>
											<pproTicksOut>915737840640000</pproTicksOut>
											<alphatype>straight</alphatype>
											<pixelaspectratio>PAL-601</pixelaspectratio>
											<anamorphic>TRUE</anamorphic>
											<file id="file-242">
												<name>Graphic</name>
												<mediaSource>GraphicAndType</mediaSource>
												<rate>
													<timebase>30</timebase>
													<ntsc>TRUE</ntsc>
												</rate>
												<timecode>
													<rate>
														<timebase>30</timebase>
														<ntsc>TRUE</ntsc>
													</rate>
													<string>00;00;00;00</string>
													<frame>0</frame>
													<displayformat>DF</displayformat>
												</timecode>
												<media>
													<video>
														<samplecharacteristics>
															<rate>
																<timebase>30</timebase>
																<ntsc>TRUE</ntsc>
															</rate>
															<width>720</width>
															<height>576</height>
															<anamorphic>TRUE</anamorphic>
															<pixelaspectratio>PAL-601</pixelaspectratio>
															<fielddominance>none</fielddominance>
														</samplecharacteristics>
													</video>
												</media>
											</file>
											<filter>
												<effect>
													<name>Vector Motion</name>
													<effectid>GraphicGroup</effectid>
													<effectcategory>graphic</effectcategory>
													<effecttype>filter</effecttype>
													<mediatype>video</mediatype>
													<pproBypass>false</pproBypass>
													<parameter authoringApp="PremierePro">
														<parameterid>1</parameterid>
														<name>Position</name>
														<IsTimeVarying>false</IsTimeVarying>
														<value>-91445760000000000,0.52638888359069824:0.5,0,0,0,0,0,0,5,4,0,0,0,0</value>
													</parameter>
													<parameter authoringApp="PremierePro">
														<parameterid>2</parameterid>
														<name>Scale</name>
														<IsTimeVarying>false</IsTimeVarying>
														<ParameterControlType>2</ParameterControlType>
														<LowerBound>0</LowerBound>
														<UpperBound>10000</UpperBound>
														<UpperUIBound>200</UpperUIBound>
														<value>-91445760000000000,100.,0,0,0,0,0,0</value>
													</parameter>
													<parameter authoringApp="PremierePro">
														<parameterid>3</parameterid>
														<name>Scale Width</name>
														<IsTimeVarying>false</IsTimeVarying>
														<ParameterControlType>2</ParameterControlType>
														<LowerBound>0</LowerBound>
														<UpperBound>10000</UpperBound>
														<UpperUIBound>200</UpperUIBound>
														<value>-91445760000000000,100.,0,0,0,0,0,0</value>
													</parameter>
													<parameter authoringApp="PremierePro">
														<parameterid>4</parameterid>
														<name> </name>
														<IsTimeVarying>false</IsTimeVarying>
														<ParameterControlType>4</ParameterControlType>
														<LowerBound>false</LowerBound>
														<UpperBound>true</UpperBound>
														<value>-91445760000000000,true,0,0,0,0,0,0</value>
													</parameter>
													<parameter authoringApp="PremierePro">
														<parameterid>5</parameterid>
														<name>Rotation</name>
														<IsTimeVarying>false</IsTimeVarying>
														<ParameterControlType>3</ParameterControlType>
														<LowerBound>-32768</LowerBound>
														<UpperBound>32767</UpperBound>
														<value>-91445760000000000,0.,0,0,0,0,0,0</value>
													</parameter>
													<parameter authoringApp="PremierePro">
														<parameterid>6</parameterid>
														<name>Anchor Point</name>
														<IsTimeVarying>false</IsTimeVarying>
														<value>-91445760000000000,0.5:0.5,0,0,0,0,0,0,5,4,0,0,0,0</value>
													</parameter>
												</effect>
											</filter>
											<filter>
												<effect>
													<name>ZIVERT</name>
													<effectid>GraphicAndType</effectid>
													<effectcategory>graphic</effectcategory>
													<effecttype>filter</effecttype>
													<mediatype>video</mediatype>
													<pproBypass>false</pproBypass>
													<pproExpanded>true</pproExpanded>
													<parameter authoringApp="PremierePro">
														<parameterid>1</parameterid>
														<name>Source Text</name>
														<hash>9cac9eab-a337-34bb-da70-afca00000138</hash>
														<value>IAEAAAAAAABEMyIREAAAAAwAEAAEAAAACAAMAAwAAABAAAAACAAAABAAAAAAAAAACAAWAAQADAAIAAAAVkGuWZrjOHk5jiF/AAAA0QAAEgAQAAgABAAAAAAAAAAAAAwAEgAAABgAAAAwAAAAAACAP1j///9c////YP///wEAAAAEAAAADwAAAE1vbnRzZXJyYXQtQm9sZAABAAAADAAAAAgADAAEAAgACAAAAHQAAAA0AAAAMAAYAAAAFAAAAAAAEAAAAAwAAAAAAAAACAAAAAAAAAAAAAAAAAAAAAAAAAAAAAQAMAAAABgAAAAAAIC/mpmZPxwAAAAAAIBBBAAGAAQAAAAAAAoACAAFAAYABwAKAAAAAOXl5QQABAAEAAAABgAAAFpJVkVSVAAA</value>
													</parameter>
													<parameter authoringApp="PremierePro">
														<parameterid>2</parameterid>
														<name>Transform</name>
														<IsTimeVarying>false</IsTimeVarying>
														<ParameterControlType>11</ParameterControlType>
														<LowerBound>false</LowerBound>
														<UpperBound>false</UpperBound>
														<value>-91445760000000000,false,0,0,0,0,0,0</value>
													</parameter>
													<parameter authoringApp="PremierePro">
														<parameterid>3</parameterid>
														<name>Position</name>
														<IsTimeVarying>false</IsTimeVarying>
														<value>-91445760000000000,0.250030517578125:0.878631591796875,0,0,0,0,0,0,5,4,0,0,0,0</value>
													</parameter>
													<parameter authoringApp="PremierePro">
														<parameterid>4</parameterid>
														<name>Scale</name>
														<IsTimeVarying>false</IsTimeVarying>
														<ParameterControlType>2</ParameterControlType>
														<LowerBound>0</LowerBound>
														<UpperBound>4000</UpperBound>
														<value>-91445760000000000,100.,0,0,0,0,0,0</value>
													</parameter>
													<parameter authoringApp="PremierePro">
														<parameterid>5</parameterid>
														<name>Horizontal Scale</name>
														<IsTimeVarying>false</IsTimeVarying>
														<ParameterControlType>2</ParameterControlType>
														<LowerBound>0</LowerBound>
														<UpperBound>4000</UpperBound>
														<value>-91445760000000000,100.,0,0,0,0,0,0</value>
													</parameter>
													<parameter authoringApp="PremierePro">
														<parameterid>6</parameterid>
														<name> </name>
														<IsTimeVarying>false</IsTimeVarying>
														<ParameterControlType>4</ParameterControlType>
														<LowerBound>false</LowerBound>
														<UpperBound>true</UpperBound>
														<value>-91445760000000000,true,0,0,0,0,0,0</value>
													</parameter>
													<parameter authoringApp="PremierePro">
														<parameterid>7</parameterid>
														<name>Rotation</name>
														<IsTimeVarying>false</IsTimeVarying>
														<ParameterControlType>3</ParameterControlType>
														<LowerBound>-32768</LowerBound>
														<UpperBound>32767</UpperBound>
														<value>-91445760000000000,0.,0,0,0,0,0,0</value>
													</parameter>
													<parameter authoringApp="PremierePro">
														<parameterid>8</parameterid>
														<name>Opacity</name>
														<IsTimeVarying>false</IsTimeVarying>
														<ParameterControlType>2</ParameterControlType>
														<LowerBound>0</LowerBound>
														<UpperBound>100</UpperBound>
														<value>-91445760000000000,100.,0,0,0,0,0,0</value>
													</parameter>
													<parameter authoringApp="PremierePro">
														<parameterid>9</parameterid>
														<name>Anchor Point</name>
														<IsTimeVarying>false</IsTimeVarying>
														<value>-91445760000000000,0:0,0,0,0,0,0,0,5,4,0,0,0,0</value>
													</parameter>
													<parameter authoringApp="PremierePro">
														<parameterid>10</parameterid>
														<name></name>
														<IsTimeVarying>false</IsTimeVarying>
														<ParameterControlType>12</ParameterControlType>
														<LowerBound>false</LowerBound>
														<UpperBound>false</UpperBound>
														<value>-91445760000000000,false,0,0,0,0,0,0</value>
													</parameter>
													<parameter authoringApp="PremierePro">
														<parameterid>11</parameterid>
														<name> </name>
														<IsTimeVarying>false</IsTimeVarying>
														<ParameterControlType>8</ParameterControlType>
														<LowerBound>0</LowerBound>
														<UpperBound>32768</UpperBound>
														<value>-91445760000000000,0.,0,0,0,0,0,0</value>
													</parameter>
													<parameter authoringApp="PremierePro">
														<parameterid>12</parameterid>
														<name> </name>
														<IsTimeVarying>false</IsTimeVarying>
														<ParameterControlType>8</ParameterControlType>
														<LowerBound>0</LowerBound>
														<UpperBound>32768</UpperBound>
														<value>-91445760000000000,0.,0,0,0,0,0,0</value>
													</parameter>
													<parameter authoringApp="PremierePro">
														<parameterid>13</parameterid>
														<name>start</name>
														<IsTimeVarying>false</IsTimeVarying>
														<ParameterControlType>8</ParameterControlType>
														<LowerBound>-100</LowerBound>
														<UpperBound>1000000000</UpperBound>
														<value>-91445760000000000,6.,0,0,0,0,0,0</value>
													</parameter>
													<parameter authoringApp="PremierePro">
														<parameterid>14</parameterid>
														<name>end</name>
														<IsTimeVarying>false</IsTimeVarying>
														<ParameterControlType>8</ParameterControlType>
														<LowerBound>-100</LowerBound>
														<UpperBound>1000000000</UpperBound>
														<value>-91445760000000000,6.,0,0,0,0,0,0</value>
													</parameter>
													<parameter authoringApp="PremierePro">
														<parameterid>15</parameterid>
														<name> </name>
														<IsTimeVarying>false</IsTimeVarying>
														<ParameterControlType>4</ParameterControlType>
														<LowerBound>false</LowerBound>
														<UpperBound>true</UpperBound>
														<value>-91445760000000000,false,0,0,0,0,0,0</value>
													</parameter>
													<parameter authoringApp="PremierePro">
														<parameterid>16</parameterid>
														<name> </name>
														<IsTimeVarying>false</IsTimeVarying>
														<ParameterControlType>4</ParameterControlType>
														<LowerBound>false</LowerBound>
														<UpperBound>true</UpperBound>
														<value>-91445760000000000,false,0,0,0,0,0,0</value>
													</parameter>
													<parameter authoringApp="PremierePro">
														<parameterid>17</parameterid>
														<name> </name>
														<IsTimeVarying>false</IsTimeVarying>
														<ParameterControlType>4</ParameterControlType>
														<LowerBound>false</LowerBound>
														<UpperBound>true</UpperBound>
														<value>-91445760000000000,false,0,0,0,0,0,0</value>
													</parameter>
													<parameter authoringApp="PremierePro">
														<parameterid>18</parameterid>
														<name> </name>
														<IsTimeVarying>false</IsTimeVarying>
														<ParameterControlType>4</ParameterControlType>
														<LowerBound>false</LowerBound>
														<UpperBound>true</UpperBound>
														<value>-91445760000000000,false,0,0,0,0,0,0</value>
													</parameter>
													<parameter authoringApp="PremierePro">
														<parameterid>19</parameterid>
														<name>Parent Width</name>
														<IsTimeVarying>false</IsTimeVarying>
														<ParameterControlType>2</ParameterControlType>
														<LowerBound>0</LowerBound>
														<UpperBound>20000</UpperBound>
														<value>-91445760000000000,0.,0,0,0,0,0,0</value>
													</parameter>
													<parameter authoringApp="PremierePro">
														<parameterid>20</parameterid>
														<name>Parent Height</name>
														<IsTimeVarying>false</IsTimeVarying>
														<ParameterControlType>2</ParameterControlType>
														<LowerBound>0</LowerBound>
														<UpperBound>20000</UpperBound>
														<value>-91445760000000000,0.,0,0,0,0,0,0</value>
													</parameter>
													<parameter authoringApp="PremierePro">
														<parameterid>21</parameterid>
														<name>Parent Rotation</name>
														<IsTimeVarying>false</IsTimeVarying>
														<ParameterControlType>3</ParameterControlType>
														<LowerBound>-32768</LowerBound>
														<UpperBound>32767</UpperBound>
														<value>-91445760000000000,0.,0,0,0,0,0,0</value>
													</parameter>
												</effect>
											</filter>
											<logginginfo>
												<description></description>
												<scene></scene>
												<shottake></shottake>
												<lognote></lognote>
												<good></good>
												<originalvideofilename></originalvideofilename>
												<originalaudiofilename></originalaudiofilename>
											</logginginfo>
											<colorinfo>
												<lut></lut>
												<lut1></lut1>
												<asc_sop></asc_sop>
												<asc_sat></asc_sat>
												<lut2></lut2>
											</colorinfo>
										</clipitem>
										<transitionitem>
											<start>148</start>
											<end>170</end>
											<alignment>end-black</alignment>
											<cutPointTicks>223534080000</cutPointTicks>
											<rate>
												<timebase>25</timebase>
												<ntsc>FALSE</ntsc>
											</rate>
											<effect>
												<name>Edge Wipe</name>
												<effectid>Edge Wipe</effectid>
												<effectcategory>Wipe</effectcategory>
												<effecttype>transition</effecttype>
												<mediatype>video</mediatype>
												<wipecode>2</wipecode>
												<wipeaccuracy>100</wipeaccuracy>
												<startratio>0</startratio>
												<endratio>1</endratio>
												<reverse>FALSE</reverse>
												<parameter authoringApp="PremierePro">
													<parameterid>directionofwipe</parameterid>
													<name>Angle</name>
													<valuemin>-360</valuemin>
													<valuemax>360</valuemax>
													<value>90</value>
												</parameter>
											</effect>
										</transitionitem>
										<enabled>TRUE</enabled>
										<locked>FALSE</locked>
									</track>
								</video>
								<audio>
									<numOutputChannels>2</numOutputChannels>
									<format>
										<samplecharacteristics>
											<depth>16</depth>
											<samplerate>48000</samplerate>
										</samplecharacteristics>
									</format>
									<outputs>
										<group>
											<index>1</index>
											<numchannels>1</numchannels>
											<downmix>0</downmix>
											<channel>
												<index>1</index>
											</channel>
										</group>
										<group>
											<index>2</index>
											<numchannels>1</numchannels>
											<downmix>0</downmix>
											<channel>
												<index>2</index>
											</channel>
										</group>
									</outputs>
									<track TL.SQTrackAudioKeyframeStyle="0" TL.SQTrackShy="0" TL.SQTrackExpandedHeight="25" TL.SQTrackExpanded="0" MZ.TrackTargeted="1" PannerCurrentValue="0.5" PannerIsInverted="true" PannerStartKeyframe="-91445760000000000,0.5,0,0,0,0,0,0" PannerName="Balance" currentExplodedTrackIndex="0" totalExplodedTrackCount="2" premiereTrackType="Stereo">
										<enabled>TRUE</enabled>
										<locked>FALSE</locked>
										<outputchannelindex>1</outputchannelindex>
									</track>
									<track TL.SQTrackAudioKeyframeStyle="0" TL.SQTrackShy="0" TL.SQTrackExpandedHeight="25" TL.SQTrackExpanded="0" MZ.TrackTargeted="1" PannerCurrentValue="0.5" PannerIsInverted="true" PannerStartKeyframe="-91445760000000000,0.5,0,0,0,0,0,0" PannerName="Balance" currentExplodedTrackIndex="1" totalExplodedTrackCount="2" premiereTrackType="Stereo">
										<enabled>TRUE</enabled>
										<locked>FALSE</locked>
										<outputchannelindex>2</outputchannelindex>
									</track>
								</audio>
							</media>
							<timecode>
								<rate>
									<timebase>25</timebase>
									<ntsc>FALSE</ntsc>
								</rate>
								<string>00:00:00:00</string>
								<frame>0</frame>
								<displayformat>NDF</displayformat>
							</timecode>
								<marker>
									<comment></comment>
									<name></name>
									<in>57</in>
									<out>-1</out>
									<pproColor>4294741314</pproColor>
								</marker>
							<logginginfo>
								<description></description>
								<scene></scene>
								<shottake></shottake>
								<lognote></lognote>
								<good></good>
								<originalvideofilename></originalvideofilename>
								<originalaudiofilename></originalaudiofilename>
							</logginginfo>
						</sequence>
						<filter>
							<effect>
								<name>Opacity</name>
								<effectid>opacity</effectid>
								<effectcategory>motion</effectcategory>
								<effecttype>motion</effecttype>
								<mediatype>video</mediatype>
								<pproBypass>false</pproBypass>
								<parameter authoringApp="PremierePro">
									<parameterid>opacity</parameterid>
									<name>opacity</name>
									<valuemin>0</valuemin>
									<valuemax>100</valuemax>
									<value>100</value>
								</parameter>
							</effect>
						</filter>
							<marker>
								<comment></comment>
								<name></name>
								<in>57</in>
								<out>-1</out>
								<pproColor>4294741314</pproColor>
							</marker>
						<labels>
							<label2>Forest</label2>
						</labels>
					</clipitem>
					<clipitem id="clipitem-641">
						<masterclipid>masterclip-276</masterclipid>
						<name>13_TITLE</name>
						<enabled>TRUE</enabled>
						<duration>475</duration>
						<rate>
							<timebase>25</timebase>
							<ntsc>FALSE</ntsc>
						</rate>
						<start>1477</start>
						<end>1827</end>
						<in>0</in>
						<out>475</out>
						<pproTicksIn>0</pproTicksIn>
						<pproTicksOut>4826304000000</pproTicksOut>
						<sequence id="sequence-38" TL.SQAudioVisibleBase="0" TL.SQVideoVisibleBase="0" TL.SQVisibleBaseTime="0" TL.SQAVDividerPosition="0.5" TL.SQHideShyTracks="0" TL.SQHeaderWidth="236" TL.SQDataTrackViewControlState="0" Monitor.ProgramZoomOut="4826304000000" Monitor.ProgramZoomIn="0" TL.SQTimePerPixel="0.012499999999999999" AM.TrackVScrollPosition="0" AM.TrackScrollPosition="0" MZ.EditLine="2702730240000" MZ.Sequence.PreviewFrameSizeHeight="576" MZ.Sequence.PreviewFrameSizeWidth="720" MZ.Sequence.AudioTimeDisplayFormat="200" MZ.Sequence.PreviewRenderingClassID="1061109567" MZ.Sequence.PreviewRenderingPresetCodec="1685480304" MZ.Sequence.PreviewRenderingPresetPath="EncoderPresets/SequencePreview/04be6e19-a018-4e0c-a9d6-0ab44c64752b/QuickTime DV PAL.epr" MZ.Sequence.PreviewUseMaxRenderQuality="false" MZ.Sequence.PreviewUseMaxBitDepth="false" MZ.Sequence.EditingModeGUID="04be6e19-a018-4e0c-a9d6-0ab44c64752b" MZ.Sequence.VideoTimeDisplayFormat="101" MZ.WorkOutPoint="4826304000000" MZ.WorkInPoint="0" MZ.ZeroPoint="0">
							<duration>475</duration>
							<rate>
								<timebase>25</timebase>
								<ntsc>FALSE</ntsc>
							</rate>
							<name>титр</name>
							<media>
								<video>
									<format>
										<samplecharacteristics>
											<rate>
												<timebase>25</timebase>
												<ntsc>FALSE</ntsc>
											</rate>
											<codec>
												<name>Apple ProRes 422</name>
												<appspecificdata>
													<appname>Final Cut Pro</appname>
													<appmanufacturer>Apple Inc.</appmanufacturer>
													<appversion>7.0</appversion>
													<data>
														<qtcodec>
															<codecname>Apple ProRes 422</codecname>
															<codectypename>Apple ProRes 422</codectypename>
															<codectypecode>apcn</codectypecode>
															<codecvendorcode>appl</codecvendorcode>
															<spatialquality>1024</spatialquality>
															<temporalquality>0</temporalquality>
															<keyframerate>0</keyframerate>
															<datarate>0</datarate>
														</qtcodec>
													</data>
												</appspecificdata>
											</codec>
											<width>720</width>
											<height>576</height>
											<anamorphic>TRUE</anamorphic>
											<pixelaspectratio>PAL-601</pixelaspectratio>
											<fielddominance>lower</fielddominance>
											<colordepth>24</colordepth>
										</samplecharacteristics>
									</format>
									<track TL.SQTrackShy="0" TL.SQTrackExpandedHeight="25" TL.SQTrackExpanded="0" MZ.TrackTargeted="1">
										<clipitem id="clipitem-642">
											<masterclipid>masterclip-277</masterclipid>
											<name>9_title.mov</name>
											<enabled>TRUE</enabled>
											<duration>225</duration>
											<rate>
												<timebase>25</timebase>
												<ntsc>FALSE</ntsc>
											</rate>
											<start>125</start>
											<end>350</end>
											<in>0</in>
											<out>225</out>
											<pproTicksIn>0</pproTicksIn>
											<pproTicksOut>2286144000000</pproTicksOut>
											<alphatype>straight</alphatype>
											<pixelaspectratio>square</pixelaspectratio>
											<anamorphic>FALSE</anamorphic>
											<file id="file-243">
												<name>10_title.mov</name>
												<pathurl>file://localhost/_MUZ_TV/graphika/RU-21/MOD/title_plashka/10_title.mov</pathurl>
												<rate>
													<timebase>25</timebase>
													<ntsc>FALSE</ntsc>
												</rate>
												<duration>225</duration>
												<timecode>
													<rate>
														<timebase>25</timebase>
														<ntsc>FALSE</ntsc>
													</rate>
													<string>00:00:00:00</string>
													<frame>0</frame>
													<displayformat>NDF</displayformat>
												</timecode>
												<media>
													<video>
														<samplecharacteristics>
															<rate>
																<timebase>25</timebase>
																<ntsc>FALSE</ntsc>
															</rate>
															<width>1920</width>
															<height>1080</height>
															<anamorphic>FALSE</anamorphic>
															<pixelaspectratio>square</pixelaspectratio>
															<fielddominance>none</fielddominance>
														</samplecharacteristics>
													</video>
												</media>
											</file>
											<filter>
												<effect>
													<name>Basic Motion</name>
													<effectid>basic</effectid>
													<effectcategory>motion</effectcategory>
													<effecttype>motion</effecttype>
													<mediatype>video</mediatype>
													<pproBypass>false</pproBypass>
													<parameter authoringApp="PremierePro">
														<parameterid>scale</parameterid>
														<name>Scale</name>
														<valuemin>0</valuemin>
														<valuemax>1000</valuemax>
														<value>55</value>
													</parameter>
													<parameter authoringApp="PremierePro">
														<parameterid>rotation</parameterid>
														<name>Rotation</name>
														<valuemin>-8640</valuemin>
														<valuemax>8640</valuemax>
														<value>0</value>
													</parameter>
													<parameter authoringApp="PremierePro">
														<parameterid>center</parameterid>
														<name>Center</name>
														<value>
															<horiz>0</horiz>
															<vert>0</vert>
														</value>
													</parameter>
													<parameter authoringApp="PremierePro">
														<parameterid>centerOffset</parameterid>
														<name>Anchor Point</name>
														<value>
															<horiz>0</horiz>
															<vert>0</vert>
														</value>
													</parameter>
													<parameter authoringApp="PremierePro">
														<parameterid>antiflicker</parameterid>
														<name>Anti-flicker Filter</name>
														<valuemin>0.0</valuemin>
														<valuemax>1.0</valuemax>
														<value>0</value>
													</parameter>
												</effect>
											</filter>
											<filter>
												<effect>
													<name>Distort</name>
													<effectid>deformation</effectid>
													<effectcategory>motion</effectcategory>
													<effecttype>motion</effecttype>
													<mediatype>video</mediatype>
													<parameter authoringApp="PremierePro">
														<parameterid>aspect</parameterid>
														<name>Aspect</name>
														<valuemin>-10000</valuemin>
														<valuemax>10000</valuemax>
														<value>-3.12506</value>
													</parameter>
												</effect>
											</filter>
											<logginginfo>
												<description></description>
												<scene></scene>
												<shottake></shottake>
												<lognote></lognote>
												<good></good>
												<originalvideofilename></originalvideofilename>
												<originalaudiofilename></originalaudiofilename>
											</logginginfo>
											<colorinfo>
												<lut></lut>
												<lut1></lut1>
												<asc_sop></asc_sop>
												<asc_sat></asc_sat>
												<lut2></lut2>
											</colorinfo>
											<labels>
												<label2>Violet</label2>
											</labels>
										</clipitem>
										<clipitem id="clipitem-643">
											<masterclipid>masterclip-278</masterclipid>
											<name>Graphic</name>
											<enabled>FALSE</enabled>
											<duration>1080000</duration>
											<rate>
												<timebase>25</timebase>
												<ntsc>FALSE</ntsc>
											</rate>
											<start>350</start>
											<end>475</end>
											<in>90000</in>
											<out>90125</out>
											<pproTicksIn>914457600000000</pproTicksIn>
											<pproTicksOut>915727680000000</pproTicksOut>
											<alphatype>straight</alphatype>
											<pixelaspectratio>PAL-601</pixelaspectratio>
											<anamorphic>TRUE</anamorphic>
											<file id="file-244">
												<name>Graphic</name>
												<mediaSource>GraphicAndType</mediaSource>
												<rate>
													<timebase>30</timebase>
													<ntsc>TRUE</ntsc>
												</rate>
												<timecode>
													<rate>
														<timebase>30</timebase>
														<ntsc>TRUE</ntsc>
													</rate>
													<string>00;00;00;00</string>
													<frame>0</frame>
													<displayformat>DF</displayformat>
												</timecode>
												<media>
													<video>
														<samplecharacteristics>
															<rate>
																<timebase>30</timebase>
																<ntsc>TRUE</ntsc>
															</rate>
															<width>720</width>
															<height>576</height>
															<anamorphic>TRUE</anamorphic>
															<pixelaspectratio>PAL-601</pixelaspectratio>
															<fielddominance>none</fielddominance>
														</samplecharacteristics>
													</video>
												</media>
											</file>
											<filter>
												<effect>
													<name>Basic Motion</name>
													<effectid>basic</effectid>
													<effectcategory>motion</effectcategory>
													<effecttype>motion</effecttype>
													<mediatype>video</mediatype>
													<pproBypass>false</pproBypass>
													<parameter authoringApp="PremierePro">
														<parameterid>scale</parameterid>
														<name>Scale</name>
														<valuemin>0</valuemin>
														<valuemax>1000</valuemax>
														<value>133.333</value>
													</parameter>
													<parameter authoringApp="PremierePro">
														<parameterid>rotation</parameterid>
														<name>Rotation</name>
														<valuemin>-8640</valuemin>
														<valuemax>8640</valuemax>
														<value>0</value>
													</parameter>
													<parameter authoringApp="PremierePro">
														<parameterid>center</parameterid>
														<name>Center</name>
														<value>
															<horiz>0</horiz>
															<vert>0</vert>
														</value>
													</parameter>
													<parameter authoringApp="PremierePro">
														<parameterid>centerOffset</parameterid>
														<name>Anchor Point</name>
														<value>
															<horiz>0</horiz>
															<vert>0</vert>
														</value>
													</parameter>
													<parameter authoringApp="PremierePro">
														<parameterid>antiflicker</parameterid>
														<name>Anti-flicker Filter</name>
														<valuemin>0.0</valuemin>
														<valuemax>1.0</valuemax>
														<value>0</value>
													</parameter>
												</effect>
											</filter>
											<filter>
												<effect>
													<name>Distort</name>
													<effectid>deformation</effectid>
													<effectcategory>motion</effectcategory>
													<effecttype>motion</effecttype>
													<mediatype>video</mediatype>
													<parameter authoringApp="PremierePro">
														<parameterid>aspect</parameterid>
														<name>Aspect</name>
														<valuemin>-10000</valuemin>
														<valuemax>10000</valuemax>
														<value>-33.333</value>
													</parameter>
												</effect>
											</filter>
											<filter>
												<effect>
													<name></name>
													<effectid>GraphicAndType</effectid>
													<effectcategory>graphic</effectcategory>
													<effecttype>filter</effecttype>
													<mediatype>video</mediatype>
													<pproBypass>false</pproBypass>
													<parameter authoringApp="PremierePro">
														<parameterid>1</parameterid>
														<name>Source Text</name>
														<hash>3f0faa81-c1b0-8370-b66c-fa0b000009f1</hash>
													</parameter>
													<parameter authoringApp="PremierePro">
														<parameterid>2</parameterid>
														<name>Transform</name>
														<IsTimeVarying>false</IsTimeVarying>
														<ParameterControlType>11</ParameterControlType>
														<LowerBound>false</LowerBound>
														<UpperBound>false</UpperBound>
														<value>-91445760000000000,false,0,0,0,0,0,0</value>
													</parameter>
													<parameter authoringApp="PremierePro">
														<parameterid>3</parameterid>
														<name>Position</name>
														<IsTimeVarying>false</IsTimeVarying>
														<value>-91445760000000000,0.55605381727218628:0.73039215803146362,0,0,0,0,0,0,5,4,0,0,0,0</value>
													</parameter>
													<parameter authoringApp="PremierePro">
														<parameterid>4</parameterid>
														<name>Scale</name>
														<IsTimeVarying>false</IsTimeVarying>
														<ParameterControlType>2</ParameterControlType>
														<LowerBound>0</LowerBound>
														<UpperBound>4000</UpperBound>
														<value>-91445760000000000,100.,0,0,0,0,0,0</value>
													</parameter>
													<parameter authoringApp="PremierePro">
														<parameterid>5</parameterid>
														<name>Horizontal Scale</name>
														<IsTimeVarying>false</IsTimeVarying>
														<ParameterControlType>2</ParameterControlType>
														<LowerBound>0</LowerBound>
														<UpperBound>4000</UpperBound>
														<value>-91445760000000000,100.,0,0,0,0,0,0</value>
													</parameter>
													<parameter authoringApp="PremierePro">
														<parameterid>6</parameterid>
														<name> </name>
														<IsTimeVarying>false</IsTimeVarying>
														<ParameterControlType>4</ParameterControlType>
														<LowerBound>false</LowerBound>
														<UpperBound>true</UpperBound>
														<value>-91445760000000000,true,0,0,0,0,0,0</value>
													</parameter>
													<parameter authoringApp="PremierePro">
														<parameterid>7</parameterid>
														<name>Rotation</name>
														<IsTimeVarying>false</IsTimeVarying>
														<ParameterControlType>3</ParameterControlType>
														<LowerBound>-32768</LowerBound>
														<UpperBound>32767</UpperBound>
														<value>-91445760000000000,0.,0,0,0,0,0,0</value>
													</parameter>
													<parameter authoringApp="PremierePro">
														<parameterid>8</parameterid>
														<name>Opacity</name>
														<IsTimeVarying>false</IsTimeVarying>
														<ParameterControlType>2</ParameterControlType>
														<LowerBound>0</LowerBound>
														<UpperBound>100</UpperBound>
														<value>-91445760000000000,100.,0,0,0,0,0,0</value>
													</parameter>
													<parameter authoringApp="PremierePro">
														<parameterid>9</parameterid>
														<name>Anchor Point</name>
														<IsTimeVarying>false</IsTimeVarying>
														<value>-91445760000000000,0:0,0,0,0,0,0,0,5,4,0,0,0,0</value>
													</parameter>
													<parameter authoringApp="PremierePro">
														<parameterid>10</parameterid>
														<name></name>
														<IsTimeVarying>false</IsTimeVarying>
														<ParameterControlType>12</ParameterControlType>
														<LowerBound>false</LowerBound>
														<UpperBound>false</UpperBound>
														<value>-91445760000000000,false,0,0,0,0,0,0</value>
													</parameter>
													<parameter authoringApp="PremierePro">
														<parameterid>11</parameterid>
														<name> </name>
														<IsTimeVarying>false</IsTimeVarying>
														<ParameterControlType>8</ParameterControlType>
														<LowerBound>0</LowerBound>
														<UpperBound>32768</UpperBound>
														<value>-91445760000000000,0.,0,0,0,0,0,0</value>
													</parameter>
													<parameter authoringApp="PremierePro">
														<parameterid>12</parameterid>
														<name> </name>
														<IsTimeVarying>false</IsTimeVarying>
														<ParameterControlType>8</ParameterControlType>
														<LowerBound>0</LowerBound>
														<UpperBound>32768</UpperBound>
														<value>-91445760000000000,0.,0,0,0,0,0,0</value>
													</parameter>
													<parameter authoringApp="PremierePro">
														<parameterid>13</parameterid>
														<name>start</name>
														<IsTimeVarying>false</IsTimeVarying>
														<ParameterControlType>8</ParameterControlType>
														<LowerBound>-100</LowerBound>
														<UpperBound>1000000000</UpperBound>
														<value>-91445760000000000,0.,0,0,0,0,0,0</value>
													</parameter>
													<parameter authoringApp="PremierePro">
														<parameterid>14</parameterid>
														<name>end</name>
														<IsTimeVarying>false</IsTimeVarying>
														<ParameterControlType>8</ParameterControlType>
														<LowerBound>-100</LowerBound>
														<UpperBound>1000000000</UpperBound>
														<value>-91445760000000000,0.,0,0,0,0,0,0</value>
													</parameter>
													<parameter authoringApp="PremierePro">
														<parameterid>15</parameterid>
														<name> </name>
														<IsTimeVarying>false</IsTimeVarying>
														<ParameterControlType>4</ParameterControlType>
														<LowerBound>false</LowerBound>
														<UpperBound>true</UpperBound>
														<value>-91445760000000000,false,0,0,0,0,0,0</value>
													</parameter>
													<parameter authoringApp="PremierePro">
														<parameterid>16</parameterid>
														<name> </name>
														<IsTimeVarying>false</IsTimeVarying>
														<ParameterControlType>4</ParameterControlType>
														<LowerBound>false</LowerBound>
														<UpperBound>true</UpperBound>
														<value>-91445760000000000,false,0,0,0,0,0,0</value>
													</parameter>
													<parameter authoringApp="PremierePro">
														<parameterid>17</parameterid>
														<name> </name>
														<IsTimeVarying>false</IsTimeVarying>
														<ParameterControlType>4</ParameterControlType>
														<LowerBound>false</LowerBound>
														<UpperBound>true</UpperBound>
														<value>-91445760000000000,false,0,0,0,0,0,0</value>
													</parameter>
													<parameter authoringApp="PremierePro">
														<parameterid>18</parameterid>
														<name> </name>
														<IsTimeVarying>false</IsTimeVarying>
														<ParameterControlType>4</ParameterControlType>
														<LowerBound>false</LowerBound>
														<UpperBound>true</UpperBound>
														<value>-91445760000000000,false,0,0,0,0,0,0</value>
													</parameter>
													<parameter authoringApp="PremierePro">
														<parameterid>19</parameterid>
														<name>Parent Width</name>
														<IsTimeVarying>false</IsTimeVarying>
														<ParameterControlType>2</ParameterControlType>
														<LowerBound>0</LowerBound>
														<UpperBound>20000</UpperBound>
														<value>-91445760000000000,0.,0,0,0,0,0,0</value>
													</parameter>
													<parameter authoringApp="PremierePro">
														<parameterid>20</parameterid>
														<name>Parent Height</name>
														<IsTimeVarying>false</IsTimeVarying>
														<ParameterControlType>2</ParameterControlType>
														<LowerBound>0</LowerBound>
														<UpperBound>20000</UpperBound>
														<value>-91445760000000000,0.,0,0,0,0,0,0</value>
													</parameter>
													<parameter authoringApp="PremierePro">
														<parameterid>21</parameterid>
														<name>Parent Rotation</name>
														<IsTimeVarying>false</IsTimeVarying>
														<ParameterControlType>3</ParameterControlType>
														<LowerBound>-32768</LowerBound>
														<UpperBound>32767</UpperBound>
														<value>-91445760000000000,0.,0,0,0,0,0,0</value>
													</parameter>
												</effect>
											</filter>
											<logginginfo>
												<description></description>
												<scene></scene>
												<shottake></shottake>
												<lognote></lognote>
												<good></good>
												<originalvideofilename></originalvideofilename>
												<originalaudiofilename></originalaudiofilename>
											</logginginfo>
											<colorinfo>
												<lut></lut>
												<lut1></lut1>
												<asc_sop></asc_sop>
												<asc_sat></asc_sat>
												<lut2></lut2>
											</colorinfo>
										</clipitem>
										<enabled>TRUE</enabled>
										<locked>FALSE</locked>
									</track>
									<track TL.SQTrackShy="0" TL.SQTrackExpandedHeight="25" TL.SQTrackExpanded="0" MZ.TrackTargeted="0">
										<transitionitem>
											<start>167</start>
											<end>224</end>
											<alignment>start-black</alignment>
											<cutPointTicks>0</cutPointTicks>
											<rate>
												<timebase>25</timebase>
												<ntsc>FALSE</ntsc>
											</rate>
											<effect>
												<name>Edge Wipe</name>
												<effectid>Edge Wipe</effectid>
												<effectcategory>Wipe</effectcategory>
												<effecttype>transition</effecttype>
												<mediatype>video</mediatype>
												<wipecode>2</wipecode>
												<wipeaccuracy>100</wipeaccuracy>
												<startratio>0</startratio>
												<endratio>1</endratio>
												<reverse>FALSE</reverse>
												<parameter authoringApp="PremierePro">
													<parameterid>directionofwipe</parameterid>
													<name>Angle</name>
													<valuemin>-360</valuemin>
													<valuemax>360</valuemax>
													<value>90</value>
												</parameter>
											</effect>
										</transitionitem>
										<clipitem id="clipitem-644">
											<masterclipid>masterclip-279</masterclipid>
											<name>9.png</name>
											<enabled>TRUE</enabled>
											<duration>1080000</duration>
											<rate>
												<timebase>25</timebase>
												<ntsc>FALSE</ntsc>
											</rate>
											<start>-1</start>
											<end>-1</end>
											<in>90042</in>
											<out>90225</out>
											<pproTicksIn>914884346880000</pproTicksIn>
											<pproTicksOut>916743744000000</pproTicksOut>
											<alphatype>straight</alphatype>
											<pixelaspectratio>square</pixelaspectratio>
											<anamorphic>FALSE</anamorphic>
											<file id="file-245">
												<name>13.png</name>
												<pathurl>file://localhost/_MUZ_TV/project_AP/RU/_TITLE/END/13.png</pathurl>
												<rate>
													<timebase>30</timebase>
													<ntsc>TRUE</ntsc>
												</rate>
												<timecode>
													<rate>
														<timebase>30</timebase>
														<ntsc>TRUE</ntsc>
													</rate>
													<string>00;00;00;00</string>
													<frame>0</frame>
													<displayformat>DF</displayformat>
												</timecode>
												<media>
													<video>
														<samplecharacteristics>
															<rate>
																<timebase>30</timebase>
																<ntsc>TRUE</ntsc>
															</rate>
															<width>1920</width>
															<height>1080</height>
															<anamorphic>FALSE</anamorphic>
															<pixelaspectratio>square</pixelaspectratio>
															<fielddominance>none</fielddominance>
														</samplecharacteristics>
													</video>
												</media>
											</file>
											<filter>
												<effect>
													<name>Basic Motion</name>
													<effectid>basic</effectid>
													<effectcategory>motion</effectcategory>
													<effecttype>motion</effecttype>
													<mediatype>video</mediatype>
													<pproBypass>false</pproBypass>
													<parameter authoringApp="PremierePro">
														<parameterid>scale</parameterid>
														<name>Scale</name>
														<valuemin>0</valuemin>
														<valuemax>1000</valuemax>
														<value>53.3333</value>
													</parameter>
													<parameter authoringApp="PremierePro">
														<parameterid>rotation</parameterid>
														<name>Rotation</name>
														<valuemin>-8640</valuemin>
														<valuemax>8640</valuemax>
														<value>0</value>
													</parameter>
													<parameter authoringApp="PremierePro">
														<parameterid>center</parameterid>
														<name>Center</name>
														<value>
															<horiz>0</horiz>
															<vert>0</vert>
														</value>
													</parameter>
													<parameter authoringApp="PremierePro">
														<parameterid>centerOffset</parameterid>
														<name>Anchor Point</name>
														<value>
															<horiz>0</horiz>
															<vert>0</vert>
														</value>
													</parameter>
													<parameter authoringApp="PremierePro">
														<parameterid>antiflicker</parameterid>
														<name>Anti-flicker Filter</name>
														<valuemin>0.0</valuemin>
														<valuemax>1.0</valuemax>
														<value>0</value>
													</parameter>
												</effect>
											</filter>
											<logginginfo>
												<description></description>
												<scene></scene>
												<shottake></shottake>
												<lognote></lognote>
												<good></good>
												<originalvideofilename></originalvideofilename>
												<originalaudiofilename></originalaudiofilename>
											</logginginfo>
											<colorinfo>
												<lut></lut>
												<lut1></lut1>
												<asc_sop></asc_sop>
												<asc_sat></asc_sat>
												<lut2></lut2>
											</colorinfo>
											<labels>
												<label2>Lavender</label2>
											</labels>
										</clipitem>
										<transitionitem>
											<start>328</start>
											<end>350</end>
											<alignment>end-black</alignment>
											<cutPointTicks>223534080000</cutPointTicks>
											<rate>
												<timebase>25</timebase>
												<ntsc>FALSE</ntsc>
											</rate>
											<effect>
												<name>Edge Wipe</name>
												<effectid>Edge Wipe</effectid>
												<effectcategory>Wipe</effectcategory>
												<effecttype>transition</effecttype>
												<mediatype>video</mediatype>
												<wipecode>2</wipecode>
												<wipeaccuracy>100</wipeaccuracy>
												<startratio>0</startratio>
												<endratio>1</endratio>
												<reverse>FALSE</reverse>
												<parameter authoringApp="PremierePro">
													<parameterid>directionofwipe</parameterid>
													<name>Angle</name>
													<valuemin>-360</valuemin>
													<valuemax>360</valuemax>
													<value>90</value>
												</parameter>
											</effect>
										</transitionitem>
										<enabled>TRUE</enabled>
										<locked>FALSE</locked>
									</track>
									<track TL.SQTrackShy="0" TL.SQTrackExpandedHeight="25" TL.SQTrackExpanded="0" MZ.TrackTargeted="0">
										<transitionitem>
											<start>167</start>
											<end>224</end>
											<alignment>start-black</alignment>
											<cutPointTicks>0</cutPointTicks>
											<rate>
												<timebase>25</timebase>
												<ntsc>FALSE</ntsc>
											</rate>
											<effect>
												<name>Edge Wipe</name>
												<effectid>Edge Wipe</effectid>
												<effectcategory>Wipe</effectcategory>
												<effecttype>transition</effecttype>
												<mediatype>video</mediatype>
												<wipecode>2</wipecode>
												<wipeaccuracy>100</wipeaccuracy>
												<startratio>0</startratio>
												<endratio>1</endratio>
												<reverse>FALSE</reverse>
												<parameter authoringApp="PremierePro">
													<parameterid>directionofwipe</parameterid>
													<name>Angle</name>
													<valuemin>-360</valuemin>
													<valuemax>360</valuemax>
													<value>90</value>
												</parameter>
											</effect>
										</transitionitem>
										<clipitem id="clipitem-645">
											<masterclipid>masterclip-280</masterclipid>
											<name>Graphic</name>
											<enabled>FALSE</enabled>
											<duration>1080000</duration>
											<rate>
												<timebase>25</timebase>
												<ntsc>FALSE</ntsc>
											</rate>
											<start>-1</start>
											<end>-1</end>
											<in>89998</in>
											<out>90181</out>
											<pproTicksIn>914437278720000</pproTicksIn>
											<pproTicksOut>916296675840000</pproTicksOut>
											<alphatype>straight</alphatype>
											<pixelaspectratio>PAL-601</pixelaspectratio>
											<anamorphic>TRUE</anamorphic>
											<file id="file-246">
												<name>Graphic</name>
												<mediaSource>GraphicAndType</mediaSource>
												<rate>
													<timebase>30</timebase>
													<ntsc>TRUE</ntsc>
												</rate>
												<timecode>
													<rate>
														<timebase>30</timebase>
														<ntsc>TRUE</ntsc>
													</rate>
													<string>00;00;00;00</string>
													<frame>0</frame>
													<displayformat>DF</displayformat>
												</timecode>
												<media>
													<video>
														<samplecharacteristics>
															<rate>
																<timebase>30</timebase>
																<ntsc>TRUE</ntsc>
															</rate>
															<width>720</width>
															<height>576</height>
															<anamorphic>TRUE</anamorphic>
															<pixelaspectratio>PAL-601</pixelaspectratio>
															<fielddominance>none</fielddominance>
														</samplecharacteristics>
													</video>
												</media>
											</file>
											<filter>
												<effect>
													<name>АРТУР ПИРОЖКОВ&#13;ЛЕТОМ НА ФИЕСТЕ</name>
													<effectid>GraphicAndType</effectid>
													<effectcategory>graphic</effectcategory>
													<effecttype>filter</effecttype>
													<mediatype>video</mediatype>
													<pproBypass>false</pproBypass>
													<pproExpanded>true</pproExpanded>
													<parameter authoringApp="PremierePro">
														<parameterid>1</parameterid>
														<name>Source Text</name>
														<hash>dc092258-f6b9-fd91-a76f-c3e700000476</hash>
													</parameter>
													<parameter authoringApp="PremierePro">
														<parameterid>2</parameterid>
														<name>Transform</name>
														<IsTimeVarying>false</IsTimeVarying>
														<ParameterControlType>11</ParameterControlType>
														<LowerBound>false</LowerBound>
														<UpperBound>false</UpperBound>
														<value>-91445760000000000,false,0,0,0,0,0,0</value>
													</parameter>
													<parameter authoringApp="PremierePro">
														<parameterid>3</parameterid>
														<name>Position</name>
														<IsTimeVarying>false</IsTimeVarying>
														<value>-91445760000000000,0.36944580078125:0.86468505859375,0,0,0,0,0,0,5,4,0,0,0,0</value>
													</parameter>
													<parameter authoringApp="PremierePro">
														<parameterid>4</parameterid>
														<name>Scale</name>
														<IsTimeVarying>false</IsTimeVarying>
														<ParameterControlType>2</ParameterControlType>
														<LowerBound>0</LowerBound>
														<UpperBound>4000</UpperBound>
														<value>-91445760000000000,100.,0,0,0,0,0,0</value>
													</parameter>
													<parameter authoringApp="PremierePro">
														<parameterid>5</parameterid>
														<name>Horizontal Scale</name>
														<IsTimeVarying>false</IsTimeVarying>
														<ParameterControlType>2</ParameterControlType>
														<LowerBound>0</LowerBound>
														<UpperBound>4000</UpperBound>
														<value>-91445760000000000,100.,0,0,0,0,0,0</value>
													</parameter>
													<parameter authoringApp="PremierePro">
														<parameterid>6</parameterid>
														<name> </name>
														<IsTimeVarying>false</IsTimeVarying>
														<ParameterControlType>4</ParameterControlType>
														<LowerBound>false</LowerBound>
														<UpperBound>true</UpperBound>
														<value>-91445760000000000,true,0,0,0,0,0,0</value>
													</parameter>
													<parameter authoringApp="PremierePro">
														<parameterid>7</parameterid>
														<name>Rotation</name>
														<IsTimeVarying>false</IsTimeVarying>
														<ParameterControlType>3</ParameterControlType>
														<LowerBound>-32768</LowerBound>
														<UpperBound>32767</UpperBound>
														<value>-91445760000000000,0.,0,0,0,0,0,0</value>
													</parameter>
													<parameter authoringApp="PremierePro">
														<parameterid>8</parameterid>
														<name>Opacity</name>
														<IsTimeVarying>false</IsTimeVarying>
														<ParameterControlType>2</ParameterControlType>
														<LowerBound>0</LowerBound>
														<UpperBound>100</UpperBound>
														<value>-91445760000000000,100.,0,0,0,0,0,0</value>
													</parameter>
													<parameter authoringApp="PremierePro">
														<parameterid>9</parameterid>
														<name>Anchor Point</name>
														<IsTimeVarying>false</IsTimeVarying>
														<value>-91445760000000000,0:0,0,0,0,0,0,0,5,4,0,0,0,0</value>
													</parameter>
													<parameter authoringApp="PremierePro">
														<parameterid>10</parameterid>
														<name></name>
														<IsTimeVarying>false</IsTimeVarying>
														<ParameterControlType>12</ParameterControlType>
														<LowerBound>false</LowerBound>
														<UpperBound>false</UpperBound>
														<value>-91445760000000000,false,0,0,0,0,0,0</value>
													</parameter>
													<parameter authoringApp="PremierePro">
														<parameterid>11</parameterid>
														<name> </name>
														<IsTimeVarying>false</IsTimeVarying>
														<ParameterControlType>8</ParameterControlType>
														<LowerBound>0</LowerBound>
														<UpperBound>32768</UpperBound>
														<value>-91445760000000000,0.,0,0,0,0,0,0</value>
													</parameter>
													<parameter authoringApp="PremierePro">
														<parameterid>12</parameterid>
														<name> </name>
														<IsTimeVarying>false</IsTimeVarying>
														<ParameterControlType>8</ParameterControlType>
														<LowerBound>0</LowerBound>
														<UpperBound>32768</UpperBound>
														<value>-91445760000000000,0.,0,0,0,0,0,0</value>
													</parameter>
													<parameter authoringApp="PremierePro">
														<parameterid>13</parameterid>
														<name>start</name>
														<IsTimeVarying>false</IsTimeVarying>
														<ParameterControlType>8</ParameterControlType>
														<LowerBound>-100</LowerBound>
														<UpperBound>1000000000</UpperBound>
														<value>-91445760000000000,30.,0,0,0,0,0,0</value>
													</parameter>
													<parameter authoringApp="PremierePro">
														<parameterid>14</parameterid>
														<name>end</name>
														<IsTimeVarying>false</IsTimeVarying>
														<ParameterControlType>8</ParameterControlType>
														<LowerBound>-100</LowerBound>
														<UpperBound>1000000000</UpperBound>
														<value>-91445760000000000,30.,0,0,0,0,0,0</value>
													</parameter>
													<parameter authoringApp="PremierePro">
														<parameterid>15</parameterid>
														<name> </name>
														<IsTimeVarying>false</IsTimeVarying>
														<ParameterControlType>4</ParameterControlType>
														<LowerBound>false</LowerBound>
														<UpperBound>true</UpperBound>
														<value>-91445760000000000,false,0,0,0,0,0,0</value>
													</parameter>
													<parameter authoringApp="PremierePro">
														<parameterid>16</parameterid>
														<name> </name>
														<IsTimeVarying>false</IsTimeVarying>
														<ParameterControlType>4</ParameterControlType>
														<LowerBound>false</LowerBound>
														<UpperBound>true</UpperBound>
														<value>-91445760000000000,false,0,0,0,0,0,0</value>
													</parameter>
													<parameter authoringApp="PremierePro">
														<parameterid>17</parameterid>
														<name> </name>
														<IsTimeVarying>false</IsTimeVarying>
														<ParameterControlType>4</ParameterControlType>
														<LowerBound>false</LowerBound>
														<UpperBound>true</UpperBound>
														<value>-91445760000000000,false,0,0,0,0,0,0</value>
													</parameter>
													<parameter authoringApp="PremierePro">
														<parameterid>18</parameterid>
														<name> </name>
														<IsTimeVarying>false</IsTimeVarying>
														<ParameterControlType>4</ParameterControlType>
														<LowerBound>false</LowerBound>
														<UpperBound>true</UpperBound>
														<value>-91445760000000000,false,0,0,0,0,0,0</value>
													</parameter>
													<parameter authoringApp="PremierePro">
														<parameterid>19</parameterid>
														<name>Parent Width</name>
														<IsTimeVarying>false</IsTimeVarying>
														<ParameterControlType>2</ParameterControlType>
														<LowerBound>0</LowerBound>
														<UpperBound>20000</UpperBound>
														<value>-91445760000000000,0.,0,0,0,0,0,0</value>
													</parameter>
													<parameter authoringApp="PremierePro">
														<parameterid>20</parameterid>
														<name>Parent Height</name>
														<IsTimeVarying>false</IsTimeVarying>
														<ParameterControlType>2</ParameterControlType>
														<LowerBound>0</LowerBound>
														<UpperBound>20000</UpperBound>
														<value>-91445760000000000,0.,0,0,0,0,0,0</value>
													</parameter>
													<parameter authoringApp="PremierePro">
														<parameterid>21</parameterid>
														<name>Parent Rotation</name>
														<IsTimeVarying>false</IsTimeVarying>
														<ParameterControlType>3</ParameterControlType>
														<LowerBound>-32768</LowerBound>
														<UpperBound>32767</UpperBound>
														<value>-91445760000000000,0.,0,0,0,0,0,0</value>
													</parameter>
												</effect>
											</filter>
											<logginginfo>
												<description></description>
												<scene></scene>
												<shottake></shottake>
												<lognote></lognote>
												<good></good>
												<originalvideofilename></originalvideofilename>
												<originalaudiofilename></originalaudiofilename>
											</logginginfo>
											<colorinfo>
												<lut></lut>
												<lut1></lut1>
												<asc_sop></asc_sop>
												<asc_sat></asc_sat>
												<lut2></lut2>
											</colorinfo>
										</clipitem>
										<transitionitem>
											<start>328</start>
											<end>350</end>
											<alignment>end-black</alignment>
											<cutPointTicks>223534080000</cutPointTicks>
											<rate>
												<timebase>25</timebase>
												<ntsc>FALSE</ntsc>
											</rate>
											<effect>
												<name>Edge Wipe</name>
												<effectid>Edge Wipe</effectid>
												<effectcategory>Wipe</effectcategory>
												<effecttype>transition</effecttype>
												<mediatype>video</mediatype>
												<wipecode>2</wipecode>
												<wipeaccuracy>100</wipeaccuracy>
												<startratio>0</startratio>
												<endratio>1</endratio>
												<reverse>FALSE</reverse>
												<parameter authoringApp="PremierePro">
													<parameterid>directionofwipe</parameterid>
													<name>Angle</name>
													<valuemin>-360</valuemin>
													<valuemax>360</valuemax>
													<value>90</value>
												</parameter>
											</effect>
										</transitionitem>
										<enabled>TRUE</enabled>
										<locked>FALSE</locked>
									</track>
								</video>
								<audio>
									<numOutputChannels>2</numOutputChannels>
									<format>
										<samplecharacteristics>
											<depth>16</depth>
											<samplerate>48000</samplerate>
										</samplecharacteristics>
									</format>
									<outputs>
										<group>
											<index>1</index>
											<numchannels>1</numchannels>
											<downmix>0</downmix>
											<channel>
												<index>1</index>
											</channel>
										</group>
										<group>
											<index>2</index>
											<numchannels>1</numchannels>
											<downmix>0</downmix>
											<channel>
												<index>2</index>
											</channel>
										</group>
									</outputs>
									<track TL.SQTrackAudioKeyframeStyle="0" TL.SQTrackShy="0" TL.SQTrackExpandedHeight="25" TL.SQTrackExpanded="0" MZ.TrackTargeted="1" PannerCurrentValue="0.5" PannerStartKeyframe="-91445760000000000,0.5,0,0,0,0,0,0" PannerName="Balance" currentExplodedTrackIndex="0" totalExplodedTrackCount="2" premiereTrackType="Stereo">
										<enabled>TRUE</enabled>
										<locked>FALSE</locked>
										<outputchannelindex>1</outputchannelindex>
									</track>
									<track TL.SQTrackAudioKeyframeStyle="0" TL.SQTrackShy="0" TL.SQTrackExpandedHeight="25" TL.SQTrackExpanded="0" MZ.TrackTargeted="1" PannerCurrentValue="0.5" PannerStartKeyframe="-91445760000000000,0.5,0,0,0,0,0,0" PannerName="Balance" currentExplodedTrackIndex="1" totalExplodedTrackCount="2" premiereTrackType="Stereo">
										<enabled>TRUE</enabled>
										<locked>FALSE</locked>
										<outputchannelindex>2</outputchannelindex>
									</track>
								</audio>
							</media>
							<timecode>
								<rate>
									<timebase>25</timebase>
									<ntsc>FALSE</ntsc>
								</rate>
								<string>00:00:00:00</string>
								<frame>0</frame>
								<displayformat>NDF</displayformat>
							</timecode>
								<marker>
									<comment></comment>
									<name></name>
									<in>125</in>
									<out>-1</out>
									<pproColor>4280578025</pproColor>
								</marker>
							<logginginfo>
								<description></description>
								<scene></scene>
								<shottake></shottake>
								<lognote></lognote>
								<good></good>
								<originalvideofilename></originalvideofilename>
								<originalaudiofilename></originalaudiofilename>
							</logginginfo>
						</sequence>
							<marker>
								<comment></comment>
								<name></name>
								<in>125</in>
								<out>-1</out>
								<pproColor>4280578025</pproColor>
							</marker>
						<labels>
							<label2>Forest</label2>
						</labels>
					</clipitem>
					<clipitem id="clipitem-646">
						<masterclipid>masterclip-276</masterclipid>
						<name>13</name>
						<enabled>TRUE</enabled>
						<duration>475</duration>
						<rate>
							<timebase>25</timebase>
							<ntsc>FALSE</ntsc>
						</rate>
						<start>4820</start>
						<end>5171</end>
						<in>124</in>
						<out>475</out>
						<pproTicksIn>1259919360000</pproTicksIn>
						<pproTicksOut>4826304000000</pproTicksOut>
						<sequence id="sequence-38"/>
							<marker>
								<comment></comment>
								<name></name>
								<in>125</in>
								<out>-1</out>
								<pproColor>4280578025</pproColor>
							</marker>
						<labels>
							<label2>Forest</label2>
						</labels>
					</clipitem>
					<clipitem id="clipitem-647">
						<masterclipid>masterclip-281</masterclipid>
						<name>12_TITLE</name>
						<enabled>TRUE</enabled>
						<duration>475</duration>
						<rate>
							<timebase>25</timebase>
							<ntsc>FALSE</ntsc>
						</rate>
						<start>5246</start>
						<end>5596</end>
						<in>0</in>
						<out>475</out>
						<pproTicksIn>0</pproTicksIn>
						<pproTicksOut>4826304000000</pproTicksOut>
						<sequence id="sequence-39" TL.SQAudioVisibleBase="0" TL.SQVideoVisibleBase="0" TL.SQVisibleBaseTime="0" TL.SQAVDividerPosition="0.5" TL.SQHideShyTracks="0" TL.SQHeaderWidth="236" TL.SQDataTrackViewControlState="0" Monitor.ProgramZoomOut="4826304000000" Monitor.ProgramZoomIn="0" TL.SQTimePerPixel="0.024999999999999998" AM.TrackVScrollPosition="0" AM.TrackScrollPosition="0" MZ.EditLine="2855139840000" MZ.Sequence.PreviewFrameSizeHeight="576" MZ.Sequence.PreviewFrameSizeWidth="720" MZ.Sequence.AudioTimeDisplayFormat="200" MZ.Sequence.PreviewRenderingClassID="1061109567" MZ.Sequence.PreviewRenderingPresetCodec="1685480304" MZ.Sequence.PreviewRenderingPresetPath="EncoderPresets/SequencePreview/04be6e19-a018-4e0c-a9d6-0ab44c64752b/QuickTime DV PAL.epr" MZ.Sequence.PreviewUseMaxRenderQuality="false" MZ.Sequence.PreviewUseMaxBitDepth="false" MZ.Sequence.EditingModeGUID="04be6e19-a018-4e0c-a9d6-0ab44c64752b" MZ.Sequence.VideoTimeDisplayFormat="101" MZ.WorkOutPoint="4826304000000" MZ.WorkInPoint="0" MZ.ZeroPoint="0">
							<duration>475</duration>
							<rate>
								<timebase>25</timebase>
								<ntsc>FALSE</ntsc>
							</rate>
							<name>титр</name>
							<media>
								<video>
									<format>
										<samplecharacteristics>
											<rate>
												<timebase>25</timebase>
												<ntsc>FALSE</ntsc>
											</rate>
											<codec>
												<name>Apple ProRes 422</name>
												<appspecificdata>
													<appname>Final Cut Pro</appname>
													<appmanufacturer>Apple Inc.</appmanufacturer>
													<appversion>7.0</appversion>
													<data>
														<qtcodec>
															<codecname>Apple ProRes 422</codecname>
															<codectypename>Apple ProRes 422</codectypename>
															<codectypecode>apcn</codectypecode>
															<codecvendorcode>appl</codecvendorcode>
															<spatialquality>1024</spatialquality>
															<temporalquality>0</temporalquality>
															<keyframerate>0</keyframerate>
															<datarate>0</datarate>
														</qtcodec>
													</data>
												</appspecificdata>
											</codec>
											<width>720</width>
											<height>576</height>
											<anamorphic>TRUE</anamorphic>
											<pixelaspectratio>PAL-601</pixelaspectratio>
											<fielddominance>lower</fielddominance>
											<colordepth>24</colordepth>
										</samplecharacteristics>
									</format>
									<track TL.SQTrackShy="0" TL.SQTrackExpandedHeight="25" TL.SQTrackExpanded="0" MZ.TrackTargeted="1">
										<clipitem id="clipitem-648">
											<masterclipid>masterclip-277</masterclipid>
											<name>9_title.mov</name>
											<enabled>TRUE</enabled>
											<duration>225</duration>
											<rate>
												<timebase>25</timebase>
												<ntsc>FALSE</ntsc>
											</rate>
											<start>125</start>
											<end>350</end>
											<in>0</in>
											<out>225</out>
											<pproTicksIn>0</pproTicksIn>
											<pproTicksOut>2286144000000</pproTicksOut>
											<alphatype>straight</alphatype>
											<file id="file-243"/>
											<filter>
												<effect>
													<name>Basic Motion</name>
													<effectid>basic</effectid>
													<effectcategory>motion</effectcategory>
													<effecttype>motion</effecttype>
													<mediatype>video</mediatype>
													<pproBypass>false</pproBypass>
													<parameter authoringApp="PremierePro">
														<parameterid>scale</parameterid>
														<name>Scale</name>
														<valuemin>0</valuemin>
														<valuemax>1000</valuemax>
														<value>55</value>
													</parameter>
													<parameter authoringApp="PremierePro">
														<parameterid>rotation</parameterid>
														<name>Rotation</name>
														<valuemin>-8640</valuemin>
														<valuemax>8640</valuemax>
														<value>0</value>
													</parameter>
													<parameter authoringApp="PremierePro">
														<parameterid>center</parameterid>
														<name>Center</name>
														<value>
															<horiz>0</horiz>
															<vert>0</vert>
														</value>
													</parameter>
													<parameter authoringApp="PremierePro">
														<parameterid>centerOffset</parameterid>
														<name>Anchor Point</name>
														<value>
															<horiz>0</horiz>
															<vert>0</vert>
														</value>
													</parameter>
													<parameter authoringApp="PremierePro">
														<parameterid>antiflicker</parameterid>
														<name>Anti-flicker Filter</name>
														<valuemin>0.0</valuemin>
														<valuemax>1.0</valuemax>
														<value>0</value>
													</parameter>
												</effect>
											</filter>
											<filter>
												<effect>
													<name>Distort</name>
													<effectid>deformation</effectid>
													<effectcategory>motion</effectcategory>
													<effecttype>motion</effecttype>
													<mediatype>video</mediatype>
													<parameter authoringApp="PremierePro">
														<parameterid>aspect</parameterid>
														<name>Aspect</name>
														<valuemin>-10000</valuemin>
														<valuemax>10000</valuemax>
														<value>-3.12506</value>
													</parameter>
												</effect>
											</filter>
											<logginginfo>
												<description></description>
												<scene></scene>
												<shottake></shottake>
												<lognote></lognote>
												<good></good>
												<originalvideofilename></originalvideofilename>
												<originalaudiofilename></originalaudiofilename>
											</logginginfo>
											<colorinfo>
												<lut></lut>
												<lut1></lut1>
												<asc_sop></asc_sop>
												<asc_sat></asc_sat>
												<lut2></lut2>
											</colorinfo>
											<labels>
												<label2>Violet</label2>
											</labels>
										</clipitem>
										<clipitem id="clipitem-649">
											<masterclipid>masterclip-282</masterclipid>
											<name>Graphic</name>
											<enabled>FALSE</enabled>
											<duration>1080000</duration>
											<rate>
												<timebase>25</timebase>
												<ntsc>FALSE</ntsc>
											</rate>
											<start>350</start>
											<end>475</end>
											<in>90000</in>
											<out>90125</out>
											<pproTicksIn>914457600000000</pproTicksIn>
											<pproTicksOut>915727680000000</pproTicksOut>
											<alphatype>straight</alphatype>
											<pixelaspectratio>PAL-601</pixelaspectratio>
											<anamorphic>TRUE</anamorphic>
											<file id="file-247">
												<name>Graphic</name>
												<mediaSource>GraphicAndType</mediaSource>
												<rate>
													<timebase>30</timebase>
													<ntsc>TRUE</ntsc>
												</rate>
												<timecode>
													<rate>
														<timebase>30</timebase>
														<ntsc>TRUE</ntsc>
													</rate>
													<string>00;00;00;00</string>
													<frame>0</frame>
													<displayformat>DF</displayformat>
												</timecode>
												<media>
													<video>
														<samplecharacteristics>
															<rate>
																<timebase>30</timebase>
																<ntsc>TRUE</ntsc>
															</rate>
															<width>720</width>
															<height>576</height>
															<anamorphic>TRUE</anamorphic>
															<pixelaspectratio>PAL-601</pixelaspectratio>
															<fielddominance>none</fielddominance>
														</samplecharacteristics>
													</video>
												</media>
											</file>
											<filter>
												<effect>
													<name>Basic Motion</name>
													<effectid>basic</effectid>
													<effectcategory>motion</effectcategory>
													<effecttype>motion</effecttype>
													<mediatype>video</mediatype>
													<pproBypass>false</pproBypass>
													<parameter authoringApp="PremierePro">
														<parameterid>scale</parameterid>
														<name>Scale</name>
														<valuemin>0</valuemin>
														<valuemax>1000</valuemax>
														<value>133.333</value>
													</parameter>
													<parameter authoringApp="PremierePro">
														<parameterid>rotation</parameterid>
														<name>Rotation</name>
														<valuemin>-8640</valuemin>
														<valuemax>8640</valuemax>
														<value>0</value>
													</parameter>
													<parameter authoringApp="PremierePro">
														<parameterid>center</parameterid>
														<name>Center</name>
														<value>
															<horiz>0</horiz>
															<vert>0</vert>
														</value>
													</parameter>
													<parameter authoringApp="PremierePro">
														<parameterid>centerOffset</parameterid>
														<name>Anchor Point</name>
														<value>
															<horiz>0</horiz>
															<vert>0</vert>
														</value>
													</parameter>
													<parameter authoringApp="PremierePro">
														<parameterid>antiflicker</parameterid>
														<name>Anti-flicker Filter</name>
														<valuemin>0.0</valuemin>
														<valuemax>1.0</valuemax>
														<value>0</value>
													</parameter>
												</effect>
											</filter>
											<filter>
												<effect>
													<name>Distort</name>
													<effectid>deformation</effectid>
													<effectcategory>motion</effectcategory>
													<effecttype>motion</effecttype>
													<mediatype>video</mediatype>
													<parameter authoringApp="PremierePro">
														<parameterid>aspect</parameterid>
														<name>Aspect</name>
														<valuemin>-10000</valuemin>
														<valuemax>10000</valuemax>
														<value>-33.333</value>
													</parameter>
												</effect>
											</filter>
											<filter>
												<effect>
													<name></name>
													<effectid>GraphicAndType</effectid>
													<effectcategory>graphic</effectcategory>
													<effecttype>filter</effecttype>
													<mediatype>video</mediatype>
													<pproBypass>false</pproBypass>
													<parameter authoringApp="PremierePro">
														<parameterid>1</parameterid>
														<name>Source Text</name>
														<hash>3f0faa81-c1b0-8370-b66c-fa0b000009f1</hash>
													</parameter>
													<parameter authoringApp="PremierePro">
														<parameterid>2</parameterid>
														<name>Transform</name>
														<IsTimeVarying>false</IsTimeVarying>
														<ParameterControlType>11</ParameterControlType>
														<LowerBound>false</LowerBound>
														<UpperBound>false</UpperBound>
														<value>-91445760000000000,false,0,0,0,0,0,0</value>
													</parameter>
													<parameter authoringApp="PremierePro">
														<parameterid>3</parameterid>
														<name>Position</name>
														<IsTimeVarying>false</IsTimeVarying>
														<value>-91445760000000000,0.55605381727218628:0.73039215803146362,0,0,0,0,0,0,5,4,0,0,0,0</value>
													</parameter>
													<parameter authoringApp="PremierePro">
														<parameterid>4</parameterid>
														<name>Scale</name>
														<IsTimeVarying>false</IsTimeVarying>
														<ParameterControlType>2</ParameterControlType>
														<LowerBound>0</LowerBound>
														<UpperBound>4000</UpperBound>
														<value>-91445760000000000,100.,0,0,0,0,0,0</value>
													</parameter>
													<parameter authoringApp="PremierePro">
														<parameterid>5</parameterid>
														<name>Horizontal Scale</name>
														<IsTimeVarying>false</IsTimeVarying>
														<ParameterControlType>2</ParameterControlType>
														<LowerBound>0</LowerBound>
														<UpperBound>4000</UpperBound>
														<value>-91445760000000000,100.,0,0,0,0,0,0</value>
													</parameter>
													<parameter authoringApp="PremierePro">
														<parameterid>6</parameterid>
														<name> </name>
														<IsTimeVarying>false</IsTimeVarying>
														<ParameterControlType>4</ParameterControlType>
														<LowerBound>false</LowerBound>
														<UpperBound>true</UpperBound>
														<value>-91445760000000000,true,0,0,0,0,0,0</value>
													</parameter>
													<parameter authoringApp="PremierePro">
														<parameterid>7</parameterid>
														<name>Rotation</name>
														<IsTimeVarying>false</IsTimeVarying>
														<ParameterControlType>3</ParameterControlType>
														<LowerBound>-32768</LowerBound>
														<UpperBound>32767</UpperBound>
														<value>-91445760000000000,0.,0,0,0,0,0,0</value>
													</parameter>
													<parameter authoringApp="PremierePro">
														<parameterid>8</parameterid>
														<name>Opacity</name>
														<IsTimeVarying>false</IsTimeVarying>
														<ParameterControlType>2</ParameterControlType>
														<LowerBound>0</LowerBound>
														<UpperBound>100</UpperBound>
														<value>-91445760000000000,100.,0,0,0,0,0,0</value>
													</parameter>
													<parameter authoringApp="PremierePro">
														<parameterid>9</parameterid>
														<name>Anchor Point</name>
														<IsTimeVarying>false</IsTimeVarying>
														<value>-91445760000000000,0:0,0,0,0,0,0,0,5,4,0,0,0,0</value>
													</parameter>
													<parameter authoringApp="PremierePro">
														<parameterid>10</parameterid>
														<name></name>
														<IsTimeVarying>false</IsTimeVarying>
														<ParameterControlType>12</ParameterControlType>
														<LowerBound>false</LowerBound>
														<UpperBound>false</UpperBound>
														<value>-91445760000000000,false,0,0,0,0,0,0</value>
													</parameter>
													<parameter authoringApp="PremierePro">
														<parameterid>11</parameterid>
														<name> </name>
														<IsTimeVarying>false</IsTimeVarying>
														<ParameterControlType>8</ParameterControlType>
														<LowerBound>0</LowerBound>
														<UpperBound>32768</UpperBound>
														<value>-91445760000000000,0.,0,0,0,0,0,0</value>
													</parameter>
													<parameter authoringApp="PremierePro">
														<parameterid>12</parameterid>
														<name> </name>
														<IsTimeVarying>false</IsTimeVarying>
														<ParameterControlType>8</ParameterControlType>
														<LowerBound>0</LowerBound>
														<UpperBound>32768</UpperBound>
														<value>-91445760000000000,0.,0,0,0,0,0,0</value>
													</parameter>
													<parameter authoringApp="PremierePro">
														<parameterid>13</parameterid>
														<name>start</name>
														<IsTimeVarying>false</IsTimeVarying>
														<ParameterControlType>8</ParameterControlType>
														<LowerBound>-100</LowerBound>
														<UpperBound>1000000000</UpperBound>
														<value>-91445760000000000,0.,0,0,0,0,0,0</value>
													</parameter>
													<parameter authoringApp="PremierePro">
														<parameterid>14</parameterid>
														<name>end</name>
														<IsTimeVarying>false</IsTimeVarying>
														<ParameterControlType>8</ParameterControlType>
														<LowerBound>-100</LowerBound>
														<UpperBound>1000000000</UpperBound>
														<value>-91445760000000000,0.,0,0,0,0,0,0</value>
													</parameter>
													<parameter authoringApp="PremierePro">
														<parameterid>15</parameterid>
														<name> </name>
														<IsTimeVarying>false</IsTimeVarying>
														<ParameterControlType>4</ParameterControlType>
														<LowerBound>false</LowerBound>
														<UpperBound>true</UpperBound>
														<value>-91445760000000000,false,0,0,0,0,0,0</value>
													</parameter>
													<parameter authoringApp="PremierePro">
														<parameterid>16</parameterid>
														<name> </name>
														<IsTimeVarying>false</IsTimeVarying>
														<ParameterControlType>4</ParameterControlType>
														<LowerBound>false</LowerBound>
														<UpperBound>true</UpperBound>
														<value>-91445760000000000,false,0,0,0,0,0,0</value>
													</parameter>
													<parameter authoringApp="PremierePro">
														<parameterid>17</parameterid>
														<name> </name>
														<IsTimeVarying>false</IsTimeVarying>
														<ParameterControlType>4</ParameterControlType>
														<LowerBound>false</LowerBound>
														<UpperBound>true</UpperBound>
														<value>-91445760000000000,false,0,0,0,0,0,0</value>
													</parameter>
													<parameter authoringApp="PremierePro">
														<parameterid>18</parameterid>
														<name> </name>
														<IsTimeVarying>false</IsTimeVarying>
														<ParameterControlType>4</ParameterControlType>
														<LowerBound>false</LowerBound>
														<UpperBound>true</UpperBound>
														<value>-91445760000000000,false,0,0,0,0,0,0</value>
													</parameter>
													<parameter authoringApp="PremierePro">
														<parameterid>19</parameterid>
														<name>Parent Width</name>
														<IsTimeVarying>false</IsTimeVarying>
														<ParameterControlType>2</ParameterControlType>
														<LowerBound>0</LowerBound>
														<UpperBound>20000</UpperBound>
														<value>-91445760000000000,0.,0,0,0,0,0,0</value>
													</parameter>
													<parameter authoringApp="PremierePro">
														<parameterid>20</parameterid>
														<name>Parent Height</name>
														<IsTimeVarying>false</IsTimeVarying>
														<ParameterControlType>2</ParameterControlType>
														<LowerBound>0</LowerBound>
														<UpperBound>20000</UpperBound>
														<value>-91445760000000000,0.,0,0,0,0,0,0</value>
													</parameter>
													<parameter authoringApp="PremierePro">
														<parameterid>21</parameterid>
														<name>Parent Rotation</name>
														<IsTimeVarying>false</IsTimeVarying>
														<ParameterControlType>3</ParameterControlType>
														<LowerBound>-32768</LowerBound>
														<UpperBound>32767</UpperBound>
														<value>-91445760000000000,0.,0,0,0,0,0,0</value>
													</parameter>
												</effect>
											</filter>
											<logginginfo>
												<description></description>
												<scene></scene>
												<shottake></shottake>
												<lognote></lognote>
												<good></good>
												<originalvideofilename></originalvideofilename>
												<originalaudiofilename></originalaudiofilename>
											</logginginfo>
											<colorinfo>
												<lut></lut>
												<lut1></lut1>
												<asc_sop></asc_sop>
												<asc_sat></asc_sat>
												<lut2></lut2>
											</colorinfo>
										</clipitem>
										<enabled>TRUE</enabled>
										<locked>FALSE</locked>
									</track>
									<track TL.SQTrackShy="0" TL.SQTrackExpandedHeight="25" TL.SQTrackExpanded="0" MZ.TrackTargeted="0">
										<transitionitem>
											<start>167</start>
											<end>224</end>
											<alignment>start-black</alignment>
											<cutPointTicks>0</cutPointTicks>
											<rate>
												<timebase>25</timebase>
												<ntsc>FALSE</ntsc>
											</rate>
											<effect>
												<name>Edge Wipe</name>
												<effectid>Edge Wipe</effectid>
												<effectcategory>Wipe</effectcategory>
												<effecttype>transition</effecttype>
												<mediatype>video</mediatype>
												<wipecode>2</wipecode>
												<wipeaccuracy>100</wipeaccuracy>
												<startratio>0</startratio>
												<endratio>1</endratio>
												<reverse>FALSE</reverse>
												<parameter authoringApp="PremierePro">
													<parameterid>directionofwipe</parameterid>
													<name>Angle</name>
													<valuemin>-360</valuemin>
													<valuemax>360</valuemax>
													<value>90</value>
												</parameter>
											</effect>
										</transitionitem>
										<clipitem id="clipitem-650">
											<masterclipid>masterclip-283</masterclipid>
											<name>9.png</name>
											<enabled>TRUE</enabled>
											<duration>1080000</duration>
											<rate>
												<timebase>25</timebase>
												<ntsc>FALSE</ntsc>
											</rate>
											<start>-1</start>
											<end>-1</end>
											<in>90042</in>
											<out>90225</out>
											<pproTicksIn>914884346880000</pproTicksIn>
											<pproTicksOut>916743744000000</pproTicksOut>
											<alphatype>straight</alphatype>
											<pixelaspectratio>square</pixelaspectratio>
											<anamorphic>FALSE</anamorphic>
											<file id="file-248">
												<name>12.png</name>
												<pathurl>file://localhost/_MUZ_TV/project_AP/RU/_TITLE/END/12.png</pathurl>
												<rate>
													<timebase>30</timebase>
													<ntsc>TRUE</ntsc>
												</rate>
												<timecode>
													<rate>
														<timebase>30</timebase>
														<ntsc>TRUE</ntsc>
													</rate>
													<string>00;00;00;00</string>
													<frame>0</frame>
													<displayformat>DF</displayformat>
												</timecode>
												<media>
													<video>
														<samplecharacteristics>
															<rate>
																<timebase>30</timebase>
																<ntsc>TRUE</ntsc>
															</rate>
															<width>1920</width>
															<height>1080</height>
															<anamorphic>FALSE</anamorphic>
															<pixelaspectratio>square</pixelaspectratio>
															<fielddominance>none</fielddominance>
														</samplecharacteristics>
													</video>
												</media>
											</file>
											<filter>
												<effect>
													<name>Basic Motion</name>
													<effectid>basic</effectid>
													<effectcategory>motion</effectcategory>
													<effecttype>motion</effecttype>
													<mediatype>video</mediatype>
													<pproBypass>false</pproBypass>
													<parameter authoringApp="PremierePro">
														<parameterid>scale</parameterid>
														<name>Scale</name>
														<valuemin>0</valuemin>
														<valuemax>1000</valuemax>
														<value>53.3333</value>
													</parameter>
													<parameter authoringApp="PremierePro">
														<parameterid>rotation</parameterid>
														<name>Rotation</name>
														<valuemin>-8640</valuemin>
														<valuemax>8640</valuemax>
														<value>0</value>
													</parameter>
													<parameter authoringApp="PremierePro">
														<parameterid>center</parameterid>
														<name>Center</name>
														<value>
															<horiz>0</horiz>
															<vert>0</vert>
														</value>
													</parameter>
													<parameter authoringApp="PremierePro">
														<parameterid>centerOffset</parameterid>
														<name>Anchor Point</name>
														<value>
															<horiz>0</horiz>
															<vert>0</vert>
														</value>
													</parameter>
													<parameter authoringApp="PremierePro">
														<parameterid>antiflicker</parameterid>
														<name>Anti-flicker Filter</name>
														<valuemin>0.0</valuemin>
														<valuemax>1.0</valuemax>
														<value>0</value>
													</parameter>
												</effect>
											</filter>
											<logginginfo>
												<description></description>
												<scene></scene>
												<shottake></shottake>
												<lognote></lognote>
												<good></good>
												<originalvideofilename></originalvideofilename>
												<originalaudiofilename></originalaudiofilename>
											</logginginfo>
											<colorinfo>
												<lut></lut>
												<lut1></lut1>
												<asc_sop></asc_sop>
												<asc_sat></asc_sat>
												<lut2></lut2>
											</colorinfo>
											<labels>
												<label2>Lavender</label2>
											</labels>
										</clipitem>
										<transitionitem>
											<start>328</start>
											<end>350</end>
											<alignment>end-black</alignment>
											<cutPointTicks>223534080000</cutPointTicks>
											<rate>
												<timebase>25</timebase>
												<ntsc>FALSE</ntsc>
											</rate>
											<effect>
												<name>Edge Wipe</name>
												<effectid>Edge Wipe</effectid>
												<effectcategory>Wipe</effectcategory>
												<effecttype>transition</effecttype>
												<mediatype>video</mediatype>
												<wipecode>2</wipecode>
												<wipeaccuracy>100</wipeaccuracy>
												<startratio>0</startratio>
												<endratio>1</endratio>
												<reverse>FALSE</reverse>
												<parameter authoringApp="PremierePro">
													<parameterid>directionofwipe</parameterid>
													<name>Angle</name>
													<valuemin>-360</valuemin>
													<valuemax>360</valuemax>
													<value>90</value>
												</parameter>
											</effect>
										</transitionitem>
										<enabled>TRUE</enabled>
										<locked>FALSE</locked>
									</track>
									<track TL.SQTrackShy="0" TL.SQTrackExpandedHeight="25" TL.SQTrackExpanded="0" MZ.TrackTargeted="0">
										<transitionitem>
											<start>167</start>
											<end>224</end>
											<alignment>start-black</alignment>
											<cutPointTicks>0</cutPointTicks>
											<rate>
												<timebase>25</timebase>
												<ntsc>FALSE</ntsc>
											</rate>
											<effect>
												<name>Edge Wipe</name>
												<effectid>Edge Wipe</effectid>
												<effectcategory>Wipe</effectcategory>
												<effecttype>transition</effecttype>
												<mediatype>video</mediatype>
												<wipecode>2</wipecode>
												<wipeaccuracy>100</wipeaccuracy>
												<startratio>0</startratio>
												<endratio>1</endratio>
												<reverse>FALSE</reverse>
												<parameter authoringApp="PremierePro">
													<parameterid>directionofwipe</parameterid>
													<name>Angle</name>
													<valuemin>-360</valuemin>
													<valuemax>360</valuemax>
													<value>90</value>
												</parameter>
											</effect>
										</transitionitem>
										<clipitem id="clipitem-651">
											<masterclipid>masterclip-284</masterclipid>
											<name>Graphic</name>
											<enabled>FALSE</enabled>
											<duration>1080000</duration>
											<rate>
												<timebase>25</timebase>
												<ntsc>FALSE</ntsc>
											</rate>
											<start>-1</start>
											<end>-1</end>
											<in>89998</in>
											<out>90181</out>
											<pproTicksIn>914437278720000</pproTicksIn>
											<pproTicksOut>916296675840000</pproTicksOut>
											<alphatype>straight</alphatype>
											<pixelaspectratio>PAL-601</pixelaspectratio>
											<anamorphic>TRUE</anamorphic>
											<file id="file-249">
												<name>Graphic</name>
												<mediaSource>GraphicAndType</mediaSource>
												<rate>
													<timebase>30</timebase>
													<ntsc>TRUE</ntsc>
												</rate>
												<timecode>
													<rate>
														<timebase>30</timebase>
														<ntsc>TRUE</ntsc>
													</rate>
													<string>00;00;00;00</string>
													<frame>0</frame>
													<displayformat>DF</displayformat>
												</timecode>
												<media>
													<video>
														<samplecharacteristics>
															<rate>
																<timebase>30</timebase>
																<ntsc>TRUE</ntsc>
															</rate>
															<width>720</width>
															<height>576</height>
															<anamorphic>TRUE</anamorphic>
															<pixelaspectratio>PAL-601</pixelaspectratio>
															<fielddominance>none</fielddominance>
														</samplecharacteristics>
													</video>
												</media>
											</file>
											<filter>
												<effect>
													<name>АРТУР ПИРОЖКОВ&#13;ЛЕТОМ НА ФИЕСТЕ</name>
													<effectid>GraphicAndType</effectid>
													<effectcategory>graphic</effectcategory>
													<effecttype>filter</effecttype>
													<mediatype>video</mediatype>
													<pproBypass>false</pproBypass>
													<pproExpanded>true</pproExpanded>
													<parameter authoringApp="PremierePro">
														<parameterid>1</parameterid>
														<name>Source Text</name>
														<hash>dc092258-f6b9-fd91-a76f-c3e700000476</hash>
													</parameter>
													<parameter authoringApp="PremierePro">
														<parameterid>2</parameterid>
														<name>Transform</name>
														<IsTimeVarying>false</IsTimeVarying>
														<ParameterControlType>11</ParameterControlType>
														<LowerBound>false</LowerBound>
														<UpperBound>false</UpperBound>
														<value>-91445760000000000,false,0,0,0,0,0,0</value>
													</parameter>
													<parameter authoringApp="PremierePro">
														<parameterid>3</parameterid>
														<name>Position</name>
														<IsTimeVarying>false</IsTimeVarying>
														<value>-91445760000000000,0.36944580078125:0.86468505859375,0,0,0,0,0,0,5,4,0,0,0,0</value>
													</parameter>
													<parameter authoringApp="PremierePro">
														<parameterid>4</parameterid>
														<name>Scale</name>
														<IsTimeVarying>false</IsTimeVarying>
														<ParameterControlType>2</ParameterControlType>
														<LowerBound>0</LowerBound>
														<UpperBound>4000</UpperBound>
														<value>-91445760000000000,100.,0,0,0,0,0,0</value>
													</parameter>
													<parameter authoringApp="PremierePro">
														<parameterid>5</parameterid>
														<name>Horizontal Scale</name>
														<IsTimeVarying>false</IsTimeVarying>
														<ParameterControlType>2</ParameterControlType>
														<LowerBound>0</LowerBound>
														<UpperBound>4000</UpperBound>
														<value>-91445760000000000,100.,0,0,0,0,0,0</value>
													</parameter>
													<parameter authoringApp="PremierePro">
														<parameterid>6</parameterid>
														<name> </name>
														<IsTimeVarying>false</IsTimeVarying>
														<ParameterControlType>4</ParameterControlType>
														<LowerBound>false</LowerBound>
														<UpperBound>true</UpperBound>
														<value>-91445760000000000,true,0,0,0,0,0,0</value>
													</parameter>
													<parameter authoringApp="PremierePro">
														<parameterid>7</parameterid>
														<name>Rotation</name>
														<IsTimeVarying>false</IsTimeVarying>
														<ParameterControlType>3</ParameterControlType>
														<LowerBound>-32768</LowerBound>
														<UpperBound>32767</UpperBound>
														<value>-91445760000000000,0.,0,0,0,0,0,0</value>
													</parameter>
													<parameter authoringApp="PremierePro">
														<parameterid>8</parameterid>
														<name>Opacity</name>
														<IsTimeVarying>false</IsTimeVarying>
														<ParameterControlType>2</ParameterControlType>
														<LowerBound>0</LowerBound>
														<UpperBound>100</UpperBound>
														<value>-91445760000000000,100.,0,0,0,0,0,0</value>
													</parameter>
													<parameter authoringApp="PremierePro">
														<parameterid>9</parameterid>
														<name>Anchor Point</name>
														<IsTimeVarying>false</IsTimeVarying>
														<value>-91445760000000000,0:0,0,0,0,0,0,0,5,4,0,0,0,0</value>
													</parameter>
													<parameter authoringApp="PremierePro">
														<parameterid>10</parameterid>
														<name></name>
														<IsTimeVarying>false</IsTimeVarying>
														<ParameterControlType>12</ParameterControlType>
														<LowerBound>false</LowerBound>
														<UpperBound>false</UpperBound>
														<value>-91445760000000000,false,0,0,0,0,0,0</value>
													</parameter>
													<parameter authoringApp="PremierePro">
														<parameterid>11</parameterid>
														<name> </name>
														<IsTimeVarying>false</IsTimeVarying>
														<ParameterControlType>8</ParameterControlType>
														<LowerBound>0</LowerBound>
														<UpperBound>32768</UpperBound>
														<value>-91445760000000000,0.,0,0,0,0,0,0</value>
													</parameter>
													<parameter authoringApp="PremierePro">
														<parameterid>12</parameterid>
														<name> </name>
														<IsTimeVarying>false</IsTimeVarying>
														<ParameterControlType>8</ParameterControlType>
														<LowerBound>0</LowerBound>
														<UpperBound>32768</UpperBound>
														<value>-91445760000000000,0.,0,0,0,0,0,0</value>
													</parameter>
													<parameter authoringApp="PremierePro">
														<parameterid>13</parameterid>
														<name>start</name>
														<IsTimeVarying>false</IsTimeVarying>
														<ParameterControlType>8</ParameterControlType>
														<LowerBound>-100</LowerBound>
														<UpperBound>1000000000</UpperBound>
														<value>-91445760000000000,30.,0,0,0,0,0,0</value>
													</parameter>
													<parameter authoringApp="PremierePro">
														<parameterid>14</parameterid>
														<name>end</name>
														<IsTimeVarying>false</IsTimeVarying>
														<ParameterControlType>8</ParameterControlType>
														<LowerBound>-100</LowerBound>
														<UpperBound>1000000000</UpperBound>
														<value>-91445760000000000,30.,0,0,0,0,0,0</value>
													</parameter>
													<parameter authoringApp="PremierePro">
														<parameterid>15</parameterid>
														<name> </name>
														<IsTimeVarying>false</IsTimeVarying>
														<ParameterControlType>4</ParameterControlType>
														<LowerBound>false</LowerBound>
														<UpperBound>true</UpperBound>
														<value>-91445760000000000,false,0,0,0,0,0,0</value>
													</parameter>
													<parameter authoringApp="PremierePro">
														<parameterid>16</parameterid>
														<name> </name>
														<IsTimeVarying>false</IsTimeVarying>
														<ParameterControlType>4</ParameterControlType>
														<LowerBound>false</LowerBound>
														<UpperBound>true</UpperBound>
														<value>-91445760000000000,false,0,0,0,0,0,0</value>
													</parameter>
													<parameter authoringApp="PremierePro">
														<parameterid>17</parameterid>
														<name> </name>
														<IsTimeVarying>false</IsTimeVarying>
														<ParameterControlType>4</ParameterControlType>
														<LowerBound>false</LowerBound>
														<UpperBound>true</UpperBound>
														<value>-91445760000000000,false,0,0,0,0,0,0</value>
													</parameter>
													<parameter authoringApp="PremierePro">
														<parameterid>18</parameterid>
														<name> </name>
														<IsTimeVarying>false</IsTimeVarying>
														<ParameterControlType>4</ParameterControlType>
														<LowerBound>false</LowerBound>
														<UpperBound>true</UpperBound>
														<value>-91445760000000000,false,0,0,0,0,0,0</value>
													</parameter>
													<parameter authoringApp="PremierePro">
														<parameterid>19</parameterid>
														<name>Parent Width</name>
														<IsTimeVarying>false</IsTimeVarying>
														<ParameterControlType>2</ParameterControlType>
														<LowerBound>0</LowerBound>
														<UpperBound>20000</UpperBound>
														<value>-91445760000000000,0.,0,0,0,0,0,0</value>
													</parameter>
													<parameter authoringApp="PremierePro">
														<parameterid>20</parameterid>
														<name>Parent Height</name>
														<IsTimeVarying>false</IsTimeVarying>
														<ParameterControlType>2</ParameterControlType>
														<LowerBound>0</LowerBound>
														<UpperBound>20000</UpperBound>
														<value>-91445760000000000,0.,0,0,0,0,0,0</value>
													</parameter>
													<parameter authoringApp="PremierePro">
														<parameterid>21</parameterid>
														<name>Parent Rotation</name>
														<IsTimeVarying>false</IsTimeVarying>
														<ParameterControlType>3</ParameterControlType>
														<LowerBound>-32768</LowerBound>
														<UpperBound>32767</UpperBound>
														<value>-91445760000000000,0.,0,0,0,0,0,0</value>
													</parameter>
												</effect>
											</filter>
											<logginginfo>
												<description></description>
												<scene></scene>
												<shottake></shottake>
												<lognote></lognote>
												<good></good>
												<originalvideofilename></originalvideofilename>
												<originalaudiofilename></originalaudiofilename>
											</logginginfo>
											<colorinfo>
												<lut></lut>
												<lut1></lut1>
												<asc_sop></asc_sop>
												<asc_sat></asc_sat>
												<lut2></lut2>
											</colorinfo>
										</clipitem>
										<transitionitem>
											<start>328</start>
											<end>350</end>
											<alignment>end-black</alignment>
											<cutPointTicks>223534080000</cutPointTicks>
											<rate>
												<timebase>25</timebase>
												<ntsc>FALSE</ntsc>
											</rate>
											<effect>
												<name>Edge Wipe</name>
												<effectid>Edge Wipe</effectid>
												<effectcategory>Wipe</effectcategory>
												<effecttype>transition</effecttype>
												<mediatype>video</mediatype>
												<wipecode>2</wipecode>
												<wipeaccuracy>100</wipeaccuracy>
												<startratio>0</startratio>
												<endratio>1</endratio>
												<reverse>FALSE</reverse>
												<parameter authoringApp="PremierePro">
													<parameterid>directionofwipe</parameterid>
													<name>Angle</name>
													<valuemin>-360</valuemin>
													<valuemax>360</valuemax>
													<value>90</value>
												</parameter>
											</effect>
										</transitionitem>
										<enabled>TRUE</enabled>
										<locked>FALSE</locked>
									</track>
								</video>
								<audio>
									<numOutputChannels>2</numOutputChannels>
									<format>
										<samplecharacteristics>
											<depth>16</depth>
											<samplerate>48000</samplerate>
										</samplecharacteristics>
									</format>
									<outputs>
										<group>
											<index>1</index>
											<numchannels>1</numchannels>
											<downmix>0</downmix>
											<channel>
												<index>1</index>
											</channel>
										</group>
										<group>
											<index>2</index>
											<numchannels>1</numchannels>
											<downmix>0</downmix>
											<channel>
												<index>2</index>
											</channel>
										</group>
									</outputs>
									<track TL.SQTrackAudioKeyframeStyle="0" TL.SQTrackShy="0" TL.SQTrackExpandedHeight="25" TL.SQTrackExpanded="0" MZ.TrackTargeted="1" PannerCurrentValue="0.5" PannerStartKeyframe="-91445760000000000,0.5,0,0,0,0,0,0" PannerName="Balance" currentExplodedTrackIndex="0" totalExplodedTrackCount="2" premiereTrackType="Stereo">
										<enabled>TRUE</enabled>
										<locked>FALSE</locked>
										<outputchannelindex>1</outputchannelindex>
									</track>
									<track TL.SQTrackAudioKeyframeStyle="0" TL.SQTrackShy="0" TL.SQTrackExpandedHeight="25" TL.SQTrackExpanded="0" MZ.TrackTargeted="1" PannerCurrentValue="0.5" PannerStartKeyframe="-91445760000000000,0.5,0,0,0,0,0,0" PannerName="Balance" currentExplodedTrackIndex="1" totalExplodedTrackCount="2" premiereTrackType="Stereo">
										<enabled>TRUE</enabled>
										<locked>FALSE</locked>
										<outputchannelindex>2</outputchannelindex>
									</track>
								</audio>
							</media>
							<timecode>
								<rate>
									<timebase>25</timebase>
									<ntsc>FALSE</ntsc>
								</rate>
								<string>00:00:00:00</string>
								<frame>0</frame>
								<displayformat>NDF</displayformat>
							</timecode>
								<marker>
									<comment></comment>
									<name></name>
									<in>125</in>
									<out>-1</out>
									<pproColor>4280578025</pproColor>
								</marker>
							<logginginfo>
								<description></description>
								<scene></scene>
								<shottake></shottake>
								<lognote></lognote>
								<good></good>
								<originalvideofilename></originalvideofilename>
								<originalaudiofilename></originalaudiofilename>
							</logginginfo>
						</sequence>
							<marker>
								<comment></comment>
								<name></name>
								<in>125</in>
								<out>-1</out>
								<pproColor>4280578025</pproColor>
							</marker>
						<labels>
							<label2>Forest</label2>
						</labels>
					</clipitem>
					<clipitem id="clipitem-652">
						<masterclipid>masterclip-281</masterclipid>
						<name>12_TITLE</name>
						<enabled>TRUE</enabled>
						<duration>475</duration>
						<rate>
							<timebase>25</timebase>
							<ntsc>FALSE</ntsc>
						</rate>
						<start>8015</start>
						<end>8365</end>
						<in>0</in>
						<out>475</out>
						<pproTicksIn>0</pproTicksIn>
						<pproTicksOut>4826304000000</pproTicksOut>
						<sequence id="sequence-39"/>
							<marker>
								<comment></comment>
								<name></name>
								<in>125</in>
								<out>-1</out>
								<pproColor>4280578025</pproColor>
							</marker>
						<labels>
							<label2>Forest</label2>
						</labels>
					</clipitem>
					<clipitem id="clipitem-653">
						<masterclipid>masterclip-285</masterclipid>
						<name>11_TITLE</name>
						<enabled>TRUE</enabled>
						<duration>475</duration>
						<rate>
							<timebase>25</timebase>
							<ntsc>FALSE</ntsc>
						</rate>
						<start>9322</start>
						<end>9672</end>
						<in>0</in>
						<out>475</out>
						<pproTicksIn>0</pproTicksIn>
						<pproTicksOut>4826304000000</pproTicksOut>
						<sequence id="sequence-40" TL.SQAudioVisibleBase="0" TL.SQVideoVisibleBase="0" TL.SQVisibleBaseTime="0" TL.SQAVDividerPosition="0.5" TL.SQHideShyTracks="0" TL.SQHeaderWidth="236" TL.SQDataTrackViewControlState="0" Monitor.ProgramZoomOut="4826304000000" Monitor.ProgramZoomIn="0" TL.SQTimePerPixel="0.024999999999999998" AM.TrackVScrollPosition="0" AM.TrackScrollPosition="0" MZ.EditLine="3556224000000" MZ.Sequence.PreviewFrameSizeHeight="576" MZ.Sequence.PreviewFrameSizeWidth="720" MZ.Sequence.AudioTimeDisplayFormat="200" MZ.Sequence.PreviewRenderingClassID="1061109567" MZ.Sequence.PreviewRenderingPresetCodec="1685480304" MZ.Sequence.PreviewRenderingPresetPath="EncoderPresets/SequencePreview/04be6e19-a018-4e0c-a9d6-0ab44c64752b/QuickTime DV PAL.epr" MZ.Sequence.PreviewUseMaxRenderQuality="false" MZ.Sequence.PreviewUseMaxBitDepth="false" MZ.Sequence.EditingModeGUID="04be6e19-a018-4e0c-a9d6-0ab44c64752b" MZ.Sequence.VideoTimeDisplayFormat="101" MZ.WorkOutPoint="4826304000000" MZ.WorkInPoint="0" MZ.ZeroPoint="0">
							<duration>475</duration>
							<rate>
								<timebase>25</timebase>
								<ntsc>FALSE</ntsc>
							</rate>
							<name>титр</name>
							<media>
								<video>
									<format>
										<samplecharacteristics>
											<rate>
												<timebase>25</timebase>
												<ntsc>FALSE</ntsc>
											</rate>
											<codec>
												<name>Apple ProRes 422</name>
												<appspecificdata>
													<appname>Final Cut Pro</appname>
													<appmanufacturer>Apple Inc.</appmanufacturer>
													<appversion>7.0</appversion>
													<data>
														<qtcodec>
															<codecname>Apple ProRes 422</codecname>
															<codectypename>Apple ProRes 422</codectypename>
															<codectypecode>apcn</codectypecode>
															<codecvendorcode>appl</codecvendorcode>
															<spatialquality>1024</spatialquality>
															<temporalquality>0</temporalquality>
															<keyframerate>0</keyframerate>
															<datarate>0</datarate>
														</qtcodec>
													</data>
												</appspecificdata>
											</codec>
											<width>720</width>
											<height>576</height>
											<anamorphic>TRUE</anamorphic>
											<pixelaspectratio>PAL-601</pixelaspectratio>
											<fielddominance>lower</fielddominance>
											<colordepth>24</colordepth>
										</samplecharacteristics>
									</format>
									<track TL.SQTrackShy="0" TL.SQTrackExpandedHeight="25" TL.SQTrackExpanded="0" MZ.TrackTargeted="1">
										<clipitem id="clipitem-654">
											<masterclipid>masterclip-286</masterclipid>
											<name>9_title.mov</name>
											<enabled>TRUE</enabled>
											<duration>225</duration>
											<rate>
												<timebase>25</timebase>
												<ntsc>FALSE</ntsc>
											</rate>
											<start>125</start>
											<end>350</end>
											<in>0</in>
											<out>225</out>
											<pproTicksIn>0</pproTicksIn>
											<pproTicksOut>2286144000000</pproTicksOut>
											<alphatype>straight</alphatype>
											<pixelaspectratio>square</pixelaspectratio>
											<anamorphic>FALSE</anamorphic>
											<file id="file-250">
												<name>9_title.mov</name>
												<pathurl>file://localhost/_MUZ_TV/graphika/RU-21/MOD/title_plashka/9_title.mov</pathurl>
												<rate>
													<timebase>25</timebase>
													<ntsc>FALSE</ntsc>
												</rate>
												<duration>225</duration>
												<timecode>
													<rate>
														<timebase>25</timebase>
														<ntsc>FALSE</ntsc>
													</rate>
													<string>00:00:09:00</string>
													<frame>225</frame>
													<displayformat>NDF</displayformat>
												</timecode>
												<media>
													<video>
														<samplecharacteristics>
															<rate>
																<timebase>25</timebase>
																<ntsc>FALSE</ntsc>
															</rate>
															<width>1920</width>
															<height>1080</height>
															<anamorphic>FALSE</anamorphic>
															<pixelaspectratio>square</pixelaspectratio>
															<fielddominance>none</fielddominance>
														</samplecharacteristics>
													</video>
												</media>
											</file>
											<filter>
												<effect>
													<name>Basic Motion</name>
													<effectid>basic</effectid>
													<effectcategory>motion</effectcategory>
													<effecttype>motion</effecttype>
													<mediatype>video</mediatype>
													<pproBypass>false</pproBypass>
													<parameter authoringApp="PremierePro">
														<parameterid>scale</parameterid>
														<name>Scale</name>
														<valuemin>0</valuemin>
														<valuemax>1000</valuemax>
														<value>55</value>
													</parameter>
													<parameter authoringApp="PremierePro">
														<parameterid>rotation</parameterid>
														<name>Rotation</name>
														<valuemin>-8640</valuemin>
														<valuemax>8640</valuemax>
														<value>0</value>
													</parameter>
													<parameter authoringApp="PremierePro">
														<parameterid>center</parameterid>
														<name>Center</name>
														<value>
															<horiz>0</horiz>
															<vert>0</vert>
														</value>
													</parameter>
													<parameter authoringApp="PremierePro">
														<parameterid>centerOffset</parameterid>
														<name>Anchor Point</name>
														<value>
															<horiz>0</horiz>
															<vert>0</vert>
														</value>
													</parameter>
													<parameter authoringApp="PremierePro">
														<parameterid>antiflicker</parameterid>
														<name>Anti-flicker Filter</name>
														<valuemin>0.0</valuemin>
														<valuemax>1.0</valuemax>
														<value>0</value>
													</parameter>
												</effect>
											</filter>
											<filter>
												<effect>
													<name>Distort</name>
													<effectid>deformation</effectid>
													<effectcategory>motion</effectcategory>
													<effecttype>motion</effecttype>
													<mediatype>video</mediatype>
													<parameter authoringApp="PremierePro">
														<parameterid>aspect</parameterid>
														<name>Aspect</name>
														<valuemin>-10000</valuemin>
														<valuemax>10000</valuemax>
														<value>-3.12506</value>
													</parameter>
												</effect>
											</filter>
											<logginginfo>
												<description></description>
												<scene></scene>
												<shottake></shottake>
												<lognote></lognote>
												<good></good>
												<originalvideofilename></originalvideofilename>
												<originalaudiofilename></originalaudiofilename>
											</logginginfo>
											<colorinfo>
												<lut></lut>
												<lut1></lut1>
												<asc_sop></asc_sop>
												<asc_sat></asc_sat>
												<lut2></lut2>
											</colorinfo>
											<labels>
												<label2>Violet</label2>
											</labels>
										</clipitem>
										<clipitem id="clipitem-655">
											<masterclipid>masterclip-287</masterclipid>
											<name>Graphic</name>
											<enabled>FALSE</enabled>
											<duration>1080000</duration>
											<rate>
												<timebase>25</timebase>
												<ntsc>FALSE</ntsc>
											</rate>
											<start>350</start>
											<end>475</end>
											<in>90000</in>
											<out>90125</out>
											<pproTicksIn>914457600000000</pproTicksIn>
											<pproTicksOut>915727680000000</pproTicksOut>
											<alphatype>straight</alphatype>
											<pixelaspectratio>PAL-601</pixelaspectratio>
											<anamorphic>TRUE</anamorphic>
											<file id="file-251">
												<name>Graphic</name>
												<mediaSource>GraphicAndType</mediaSource>
												<rate>
													<timebase>30</timebase>
													<ntsc>TRUE</ntsc>
												</rate>
												<timecode>
													<rate>
														<timebase>30</timebase>
														<ntsc>TRUE</ntsc>
													</rate>
													<string>00;00;00;00</string>
													<frame>0</frame>
													<displayformat>DF</displayformat>
												</timecode>
												<media>
													<video>
														<samplecharacteristics>
															<rate>
																<timebase>30</timebase>
																<ntsc>TRUE</ntsc>
															</rate>
															<width>720</width>
															<height>576</height>
															<anamorphic>TRUE</anamorphic>
															<pixelaspectratio>PAL-601</pixelaspectratio>
															<fielddominance>none</fielddominance>
														</samplecharacteristics>
													</video>
												</media>
											</file>
											<filter>
												<effect>
													<name>Basic Motion</name>
													<effectid>basic</effectid>
													<effectcategory>motion</effectcategory>
													<effecttype>motion</effecttype>
													<mediatype>video</mediatype>
													<pproBypass>false</pproBypass>
													<parameter authoringApp="PremierePro">
														<parameterid>scale</parameterid>
														<name>Scale</name>
														<valuemin>0</valuemin>
														<valuemax>1000</valuemax>
														<value>133.333</value>
													</parameter>
													<parameter authoringApp="PremierePro">
														<parameterid>rotation</parameterid>
														<name>Rotation</name>
														<valuemin>-8640</valuemin>
														<valuemax>8640</valuemax>
														<value>0</value>
													</parameter>
													<parameter authoringApp="PremierePro">
														<parameterid>center</parameterid>
														<name>Center</name>
														<value>
															<horiz>0</horiz>
															<vert>0</vert>
														</value>
													</parameter>
													<parameter authoringApp="PremierePro">
														<parameterid>centerOffset</parameterid>
														<name>Anchor Point</name>
														<value>
															<horiz>0</horiz>
															<vert>0</vert>
														</value>
													</parameter>
													<parameter authoringApp="PremierePro">
														<parameterid>antiflicker</parameterid>
														<name>Anti-flicker Filter</name>
														<valuemin>0.0</valuemin>
														<valuemax>1.0</valuemax>
														<value>0</value>
													</parameter>
												</effect>
											</filter>
											<filter>
												<effect>
													<name>Distort</name>
													<effectid>deformation</effectid>
													<effectcategory>motion</effectcategory>
													<effecttype>motion</effecttype>
													<mediatype>video</mediatype>
													<parameter authoringApp="PremierePro">
														<parameterid>aspect</parameterid>
														<name>Aspect</name>
														<valuemin>-10000</valuemin>
														<valuemax>10000</valuemax>
														<value>-33.333</value>
													</parameter>
												</effect>
											</filter>
											<filter>
												<effect>
													<name></name>
													<effectid>GraphicAndType</effectid>
													<effectcategory>graphic</effectcategory>
													<effecttype>filter</effecttype>
													<mediatype>video</mediatype>
													<pproBypass>false</pproBypass>
													<parameter authoringApp="PremierePro">
														<parameterid>1</parameterid>
														<name>Source Text</name>
														<hash>3f0faa81-c1b0-8370-b66c-fa0b000009f1</hash>
														<value>8AAAAAAAAABEMyIREAAAAAwAEAAEAAAACAAMAAwAAABEAAAACAAAABAAAAAAAAAACAAWAAQADAAIAAAABHUnue56F4lVUlAsAAAAEQAAFgAMAAAABAAAAAAAAAAAAAAAAAAIABYAAAAUAAAANAAAAIT///+I////jP///wEAAAAEAAAADAAAAEx1Y2lkYUdyYW5kZQAAAAAIAAwABAAIAAgAAABQAAAANAAAADAACAAAAAAAAAAAAAAAAAAAAAAAAAAAAAAAAAAAAAAAAAAAAAAAAAAAAAAAAAAEADAAAAAEAAAA+P////z///8EAAQABAAAAAAAAAAAAAAAAAAAAAAAAAAAAAAAAAAAAAAAAAAAAAAAAAAAAAAAAAAAAAAAAAAAAAAAAAAAAAAAAAAAAAAAAAAAAAAAAAAAAAAAAAAAAAAAAAAAAAAAAAAAAAAAAAAAAAAAAAAAAAAAAAAAAAAAAAAAAAAAAAAAAAAAAAAAAAAAAAAAAAAAAAAAAAAAAAAAAAAAAAAAAAAAAAAAAAAAAAAAAAAAAAAAAAAAAAAAAAAAAAAAAAAAAAAAAAAAAAAAAAAAAAAAAAAAAAAAAAAAAAAAAAAAAAAAAAAAAAAAAAAAAAAAAAAAAAAAAAAAAAAAAAAAAAAAAAAAAAAAAAAAAAAAAAAAAAAAAAAAAAAAAAAAAAAAAAAAAAAAAAAAAAAAAAAAAAAAAAAAAAAAAAAAAAAAAAAAAAAAAAAAAAAAAAAAAAAAAAAAAAAAAAAAAAAAAAAAAAAAAAAAAAAAAAAAAAAAAAAAAAAAAAAAAAAAAAAAAAAAAAAAAAAAAAAAAAAAAAAAAAAAAAAAAAAAAAAAAAAAAAAAAAAAAAAAAAAAAAAAAAAAAAAAAAAAAAAAAAAAAAAAAAAAAAAAAAAAAAAAAAAAAAAAAAAAAAAAAAAAAAAAAAAAAAAAAAAAAAAAAAAAAAAAAAAAAAAAAAAAAAAAAAAAAAAAAAAAAAAAAAAAAAAAAAAAAAAAAAAAAAAAAAAAAAAAAAAAAAAAAAAAAAAAAAAAAAAAAAAAAAAAAAAAAAAAAAAAAAAAAAAAAAAAAAAAAAAAAAAAAAAAAAAAAAAAAAAAAAAAAAAAAAAAAAAAAAAAAAAAAAAAAAAAAAAAAAAAAAAAAAAAAAAAAAAAAAAAAAAAAAAAAAAAAAAAAAAAAAAAAAAAAAAAAAAAAAAAAAAAAAAAAAAAAAAAAAAAAAAAAAAAAAAAAAAAAAAAAAAAAAAAAAAAAAAAAAAAAAAAAAAAAAAAAAAAAAAAAAAAAAAAAAAAAAAAAAAAAAAAAAAAAAAAAAAAAAAAAAAAAAAAAAAAAAAAAAAAAAAAAAAAAAAAAAAAAAAAAAAAAAAAAAAAAAAAAAAAAAAAAAAAAAAAAAAAAAAAAAAAAAAAAAAAAAAAAAAAAAAAAAAAAAAAAAAAAAAAAAAAAAAAAAAAAAAAAAAAAAAAAAAAAAAAAAAAAAAAAAAAAAAAAAAAAAAAAAAAAAAAAAAAAAAAAAAAAAAAAAAAAAAAAAAAAAAAAAAAAAAAAAAAAAAAAAAAAAAAAAAAAAAAAAAAAAAAAAAAAAAAAAAAAAAAAAAAAAAAAAAAAAAAAAAAAAAAAAAAAAAAAAAAAAAAAAAAAAAAAAAAAAAAAAAAAAAAAAAAAAAAAAAAAAAAAAAAAAAAAAAAAAAAAAAAAAAAAAAAAAAAAAAAAAAAAAAAAAAAAAAAAAAAAAAAAAAAAAAAAAAAAAAAAAAAAAAAAAAAAAAAAAAAAAAAAAAAAAAAAAAAAAAAAAAAAAAAAAAAAAAAAAAAAAAAAAAAAAAAAAAAAAAAAAAAAAAAAAAAAAAAAAAAAAAAAAAAAAAAAAAAAAAAAAAAAAAAAAAAAAAAAAAAAAAAAAAAAAAAAAAAAAAAAAAAAAAAAAAAAAAAAAAAAAAAAAAAAAAAAAAAAAAAAAAAAAAAAAAAAAAAAAAAAAAAAAAAAAAAAAAAAAAAAAAAAAAAAAAAAAAAAAAAAAAAAAAAAAAAAAAAAAAAAAAAAAAAAAAAAAAAAAAAAAAAAAAAAAAAAAAAAAAAAAAAAAAAAAAAAAAAAAAAAAAAAAAAAAAAAAAAAAAAAAAAAAAAAAAAAAAAAAAAAAAAAAAAAAAAAAAAAAAAAAAAAAAAAAAAAAAAAAAAAAAAAAAAAAAAAAAAAAAAAAAAAAAAAAAAAAAAAAAAAAAAAAAAAAAAAAAAAAAAAAAAAAAAAAAAAAAAAAAAAAAAAAAAAAAAAAAAAAAAAAAAAAAAAAAAAAAAAAAAAAAAAAAAAAAAAAAAAAAAAAAAAAAAAAAAAAAAAAAAAAAAAAAAAAAAAAAAAAAAAAAAAAAAAAAAAAAAAAAAAAAAAAAAAAAAAAAAAAAAAAAAAAAAAAAAAAAAAAAAAAAAAAAAAAAAAAAAAAAAAAAAAAAAAAAAAAAAAAAAAAAAAAAAAAAAAAAAAAAAAAAAAAAAAAAAAAAAAAAAAAAAAAAAAAAAAAAAAAAAAAAAAAAAAAAAAAAAAAAAAAAAAAAAAAAAAAAAAAAAAAAAAAAAAAAAAAAAAAAAAAAAAAAAAAAAAAAAAAAAAAAAAAAAAAAAAAAAAAAAAAAAAAAAAAAAAAAAAAAAAAAAAAAAAAAAAAAAAAAAAAAAAAAAAAAAAAAAAAAAAAAAAAAAAAAAAAAAAAAAAAAAAAAAAAAAAAAAAAAAAAAAAAAAAAAAAAAAAAAAAAAAAAAAAAAAAAAAAAAAAAAAAAAAAAAAAAAAAAAAAAAAAAAAAAAAAAAAAAAAAAAAAAAAAAAAAAAAAAAAAAAAAAAAAAAAAAAAAAAAAAAAAAAAAAAAAAAAAAAAAAAAAAAAAAAAAAAAAAAAAAAAAAAAAAAAAAAAAAAAAAAAAAAAAAAAAAAAAAAAAAAAAAAAAAAAAAAAAAAAAAAAAAAAAAAAAAAAAAAAAAAAAAAAAAAAAAAAAAAAAAAAAAAAAAAAAAAAAAAAAAAAAAAAAAAAAAAAAAAAAAAAAAAAAAAAAAAAAAAAAAAAAAAAAAAAAAAAAAAAAAAAAAAAAAAAAAAAAAAAAAAAAAAAAAAAAAAAAAAAAAAAAAAAAAAAAAAAAAAAAAAAAAAAAAAAAAAAAAAAAAAAAAAAAAAAAAAAAAAAAAAAAAAAAAAAAAAAAAAAAAAAAAAAAAAAAAAAAAAAAAAAAAAAAAAAAAAAAAAAAAAAAAAAAAAAAAAAAAAAAAAAAAAAAAAAAAAAAAAAAAAAAAAAAAAAAAAAAAAAAAAAAAAAAAAAAAAAAAAAAAAAAAAAAAAAAAAAAAAAAAAAAAAAAAAAAAAAAAAAAAAAAAAAAAAAAAAAAAAAAAAAAAAAAAAAAA==</value>
													</parameter>
													<parameter authoringApp="PremierePro">
														<parameterid>2</parameterid>
														<name>Transform</name>
														<IsTimeVarying>false</IsTimeVarying>
														<ParameterControlType>11</ParameterControlType>
														<LowerBound>false</LowerBound>
														<UpperBound>false</UpperBound>
														<value>-91445760000000000,false,0,0,0,0,0,0</value>
													</parameter>
													<parameter authoringApp="PremierePro">
														<parameterid>3</parameterid>
														<name>Position</name>
														<IsTimeVarying>false</IsTimeVarying>
														<value>-91445760000000000,0.55605381727218628:0.73039215803146362,0,0,0,0,0,0,5,4,0,0,0,0</value>
													</parameter>
													<parameter authoringApp="PremierePro">
														<parameterid>4</parameterid>
														<name>Scale</name>
														<IsTimeVarying>false</IsTimeVarying>
														<ParameterControlType>2</ParameterControlType>
														<LowerBound>0</LowerBound>
														<UpperBound>4000</UpperBound>
														<value>-91445760000000000,100.,0,0,0,0,0,0</value>
													</parameter>
													<parameter authoringApp="PremierePro">
														<parameterid>5</parameterid>
														<name>Horizontal Scale</name>
														<IsTimeVarying>false</IsTimeVarying>
														<ParameterControlType>2</ParameterControlType>
														<LowerBound>0</LowerBound>
														<UpperBound>4000</UpperBound>
														<value>-91445760000000000,100.,0,0,0,0,0,0</value>
													</parameter>
													<parameter authoringApp="PremierePro">
														<parameterid>6</parameterid>
														<name> </name>
														<IsTimeVarying>false</IsTimeVarying>
														<ParameterControlType>4</ParameterControlType>
														<LowerBound>false</LowerBound>
														<UpperBound>true</UpperBound>
														<value>-91445760000000000,true,0,0,0,0,0,0</value>
													</parameter>
													<parameter authoringApp="PremierePro">
														<parameterid>7</parameterid>
														<name>Rotation</name>
														<IsTimeVarying>false</IsTimeVarying>
														<ParameterControlType>3</ParameterControlType>
														<LowerBound>-32768</LowerBound>
														<UpperBound>32767</UpperBound>
														<value>-91445760000000000,0.,0,0,0,0,0,0</value>
													</parameter>
													<parameter authoringApp="PremierePro">
														<parameterid>8</parameterid>
														<name>Opacity</name>
														<IsTimeVarying>false</IsTimeVarying>
														<ParameterControlType>2</ParameterControlType>
														<LowerBound>0</LowerBound>
														<UpperBound>100</UpperBound>
														<value>-91445760000000000,100.,0,0,0,0,0,0</value>
													</parameter>
													<parameter authoringApp="PremierePro">
														<parameterid>9</parameterid>
														<name>Anchor Point</name>
														<IsTimeVarying>false</IsTimeVarying>
														<value>-91445760000000000,0:0,0,0,0,0,0,0,5,4,0,0,0,0</value>
													</parameter>
													<parameter authoringApp="PremierePro">
														<parameterid>10</parameterid>
														<name></name>
														<IsTimeVarying>false</IsTimeVarying>
														<ParameterControlType>12</ParameterControlType>
														<LowerBound>false</LowerBound>
														<UpperBound>false</UpperBound>
														<value>-91445760000000000,false,0,0,0,0,0,0</value>
													</parameter>
													<parameter authoringApp="PremierePro">
														<parameterid>11</parameterid>
														<name> </name>
														<IsTimeVarying>false</IsTimeVarying>
														<ParameterControlType>8</ParameterControlType>
														<LowerBound>0</LowerBound>
														<UpperBound>32768</UpperBound>
														<value>-91445760000000000,0.,0,0,0,0,0,0</value>
													</parameter>
													<parameter authoringApp="PremierePro">
														<parameterid>12</parameterid>
														<name> </name>
														<IsTimeVarying>false</IsTimeVarying>
														<ParameterControlType>8</ParameterControlType>
														<LowerBound>0</LowerBound>
														<UpperBound>32768</UpperBound>
														<value>-91445760000000000,0.,0,0,0,0,0,0</value>
													</parameter>
													<parameter authoringApp="PremierePro">
														<parameterid>13</parameterid>
														<name>start</name>
														<IsTimeVarying>false</IsTimeVarying>
														<ParameterControlType>8</ParameterControlType>
														<LowerBound>-100</LowerBound>
														<UpperBound>1000000000</UpperBound>
														<value>-91445760000000000,0.,0,0,0,0,0,0</value>
													</parameter>
													<parameter authoringApp="PremierePro">
														<parameterid>14</parameterid>
														<name>end</name>
														<IsTimeVarying>false</IsTimeVarying>
														<ParameterControlType>8</ParameterControlType>
														<LowerBound>-100</LowerBound>
														<UpperBound>1000000000</UpperBound>
														<value>-91445760000000000,0.,0,0,0,0,0,0</value>
													</parameter>
													<parameter authoringApp="PremierePro">
														<parameterid>15</parameterid>
														<name> </name>
														<IsTimeVarying>false</IsTimeVarying>
														<ParameterControlType>4</ParameterControlType>
														<LowerBound>false</LowerBound>
														<UpperBound>true</UpperBound>
														<value>-91445760000000000,false,0,0,0,0,0,0</value>
													</parameter>
													<parameter authoringApp="PremierePro">
														<parameterid>16</parameterid>
														<name> </name>
														<IsTimeVarying>false</IsTimeVarying>
														<ParameterControlType>4</ParameterControlType>
														<LowerBound>false</LowerBound>
														<UpperBound>true</UpperBound>
														<value>-91445760000000000,false,0,0,0,0,0,0</value>
													</parameter>
													<parameter authoringApp="PremierePro">
														<parameterid>17</parameterid>
														<name> </name>
														<IsTimeVarying>false</IsTimeVarying>
														<ParameterControlType>4</ParameterControlType>
														<LowerBound>false</LowerBound>
														<UpperBound>true</UpperBound>
														<value>-91445760000000000,false,0,0,0,0,0,0</value>
													</parameter>
													<parameter authoringApp="PremierePro">
														<parameterid>18</parameterid>
														<name> </name>
														<IsTimeVarying>false</IsTimeVarying>
														<ParameterControlType>4</ParameterControlType>
														<LowerBound>false</LowerBound>
														<UpperBound>true</UpperBound>
														<value>-91445760000000000,false,0,0,0,0,0,0</value>
													</parameter>
													<parameter authoringApp="PremierePro">
														<parameterid>19</parameterid>
														<name>Parent Width</name>
														<IsTimeVarying>false</IsTimeVarying>
														<ParameterControlType>2</ParameterControlType>
														<LowerBound>0</LowerBound>
														<UpperBound>20000</UpperBound>
														<value>-91445760000000000,0.,0,0,0,0,0,0</value>
													</parameter>
													<parameter authoringApp="PremierePro">
														<parameterid>20</parameterid>
														<name>Parent Height</name>
														<IsTimeVarying>false</IsTimeVarying>
														<ParameterControlType>2</ParameterControlType>
														<LowerBound>0</LowerBound>
														<UpperBound>20000</UpperBound>
														<value>-91445760000000000,0.,0,0,0,0,0,0</value>
													</parameter>
													<parameter authoringApp="PremierePro">
														<parameterid>21</parameterid>
														<name>Parent Rotation</name>
														<IsTimeVarying>false</IsTimeVarying>
														<ParameterControlType>3</ParameterControlType>
														<LowerBound>-32768</LowerBound>
														<UpperBound>32767</UpperBound>
														<value>-91445760000000000,0.,0,0,0,0,0,0</value>
													</parameter>
												</effect>
											</filter>
											<logginginfo>
												<description></description>
												<scene></scene>
												<shottake></shottake>
												<lognote></lognote>
												<good></good>
												<originalvideofilename></originalvideofilename>
												<originalaudiofilename></originalaudiofilename>
											</logginginfo>
											<colorinfo>
												<lut></lut>
												<lut1></lut1>
												<asc_sop></asc_sop>
												<asc_sat></asc_sat>
												<lut2></lut2>
											</colorinfo>
										</clipitem>
										<enabled>TRUE</enabled>
										<locked>FALSE</locked>
									</track>
									<track TL.SQTrackShy="0" TL.SQTrackExpandedHeight="25" TL.SQTrackExpanded="0" MZ.TrackTargeted="0">
										<transitionitem>
											<start>167</start>
											<end>224</end>
											<alignment>start-black</alignment>
											<cutPointTicks>0</cutPointTicks>
											<rate>
												<timebase>25</timebase>
												<ntsc>FALSE</ntsc>
											</rate>
											<effect>
												<name>Edge Wipe</name>
												<effectid>Edge Wipe</effectid>
												<effectcategory>Wipe</effectcategory>
												<effecttype>transition</effecttype>
												<mediatype>video</mediatype>
												<wipecode>2</wipecode>
												<wipeaccuracy>100</wipeaccuracy>
												<startratio>0</startratio>
												<endratio>1</endratio>
												<reverse>FALSE</reverse>
												<parameter authoringApp="PremierePro">
													<parameterid>directionofwipe</parameterid>
													<name>Angle</name>
													<valuemin>-360</valuemin>
													<valuemax>360</valuemax>
													<value>90</value>
												</parameter>
											</effect>
										</transitionitem>
										<clipitem id="clipitem-656">
											<masterclipid>masterclip-288</masterclipid>
											<name>9.png</name>
											<enabled>TRUE</enabled>
											<duration>1080000</duration>
											<rate>
												<timebase>25</timebase>
												<ntsc>FALSE</ntsc>
											</rate>
											<start>-1</start>
											<end>-1</end>
											<in>90042</in>
											<out>90225</out>
											<pproTicksIn>914884346880000</pproTicksIn>
											<pproTicksOut>916743744000000</pproTicksOut>
											<alphatype>straight</alphatype>
											<pixelaspectratio>square</pixelaspectratio>
											<anamorphic>FALSE</anamorphic>
											<file id="file-252">
												<name>11.png</name>
												<pathurl>file://localhost/_MUZ_TV/project_AP/RU/_TITLE/END/11.png</pathurl>
												<rate>
													<timebase>30</timebase>
													<ntsc>TRUE</ntsc>
												</rate>
												<timecode>
													<rate>
														<timebase>30</timebase>
														<ntsc>TRUE</ntsc>
													</rate>
													<string>00;00;00;00</string>
													<frame>0</frame>
													<displayformat>DF</displayformat>
												</timecode>
												<media>
													<video>
														<samplecharacteristics>
															<rate>
																<timebase>30</timebase>
																<ntsc>TRUE</ntsc>
															</rate>
															<width>1920</width>
															<height>1080</height>
															<anamorphic>FALSE</anamorphic>
															<pixelaspectratio>square</pixelaspectratio>
															<fielddominance>none</fielddominance>
														</samplecharacteristics>
													</video>
												</media>
											</file>
											<filter>
												<effect>
													<name>Basic Motion</name>
													<effectid>basic</effectid>
													<effectcategory>motion</effectcategory>
													<effecttype>motion</effecttype>
													<mediatype>video</mediatype>
													<pproBypass>false</pproBypass>
													<parameter authoringApp="PremierePro">
														<parameterid>scale</parameterid>
														<name>Scale</name>
														<valuemin>0</valuemin>
														<valuemax>1000</valuemax>
														<value>53.3333</value>
													</parameter>
													<parameter authoringApp="PremierePro">
														<parameterid>rotation</parameterid>
														<name>Rotation</name>
														<valuemin>-8640</valuemin>
														<valuemax>8640</valuemax>
														<value>0</value>
													</parameter>
													<parameter authoringApp="PremierePro">
														<parameterid>center</parameterid>
														<name>Center</name>
														<value>
															<horiz>0</horiz>
															<vert>0</vert>
														</value>
													</parameter>
													<parameter authoringApp="PremierePro">
														<parameterid>centerOffset</parameterid>
														<name>Anchor Point</name>
														<value>
															<horiz>0</horiz>
															<vert>0</vert>
														</value>
													</parameter>
													<parameter authoringApp="PremierePro">
														<parameterid>antiflicker</parameterid>
														<name>Anti-flicker Filter</name>
														<valuemin>0.0</valuemin>
														<valuemax>1.0</valuemax>
														<value>0</value>
													</parameter>
												</effect>
											</filter>
											<logginginfo>
												<description></description>
												<scene></scene>
												<shottake></shottake>
												<lognote></lognote>
												<good></good>
												<originalvideofilename></originalvideofilename>
												<originalaudiofilename></originalaudiofilename>
											</logginginfo>
											<colorinfo>
												<lut></lut>
												<lut1></lut1>
												<asc_sop></asc_sop>
												<asc_sat></asc_sat>
												<lut2></lut2>
											</colorinfo>
											<labels>
												<label2>Lavender</label2>
											</labels>
										</clipitem>
										<transitionitem>
											<start>328</start>
											<end>350</end>
											<alignment>end-black</alignment>
											<cutPointTicks>223534080000</cutPointTicks>
											<rate>
												<timebase>25</timebase>
												<ntsc>FALSE</ntsc>
											</rate>
											<effect>
												<name>Edge Wipe</name>
												<effectid>Edge Wipe</effectid>
												<effectcategory>Wipe</effectcategory>
												<effecttype>transition</effecttype>
												<mediatype>video</mediatype>
												<wipecode>2</wipecode>
												<wipeaccuracy>100</wipeaccuracy>
												<startratio>0</startratio>
												<endratio>1</endratio>
												<reverse>FALSE</reverse>
												<parameter authoringApp="PremierePro">
													<parameterid>directionofwipe</parameterid>
													<name>Angle</name>
													<valuemin>-360</valuemin>
													<valuemax>360</valuemax>
													<value>90</value>
												</parameter>
											</effect>
										</transitionitem>
										<enabled>TRUE</enabled>
										<locked>FALSE</locked>
									</track>
									<track TL.SQTrackShy="0" TL.SQTrackExpandedHeight="25" TL.SQTrackExpanded="0" MZ.TrackTargeted="0">
										<transitionitem>
											<start>167</start>
											<end>224</end>
											<alignment>start-black</alignment>
											<cutPointTicks>0</cutPointTicks>
											<rate>
												<timebase>25</timebase>
												<ntsc>FALSE</ntsc>
											</rate>
											<effect>
												<name>Edge Wipe</name>
												<effectid>Edge Wipe</effectid>
												<effectcategory>Wipe</effectcategory>
												<effecttype>transition</effecttype>
												<mediatype>video</mediatype>
												<wipecode>2</wipecode>
												<wipeaccuracy>100</wipeaccuracy>
												<startratio>0</startratio>
												<endratio>1</endratio>
												<reverse>FALSE</reverse>
												<parameter authoringApp="PremierePro">
													<parameterid>directionofwipe</parameterid>
													<name>Angle</name>
													<valuemin>-360</valuemin>
													<valuemax>360</valuemax>
													<value>90</value>
												</parameter>
											</effect>
										</transitionitem>
										<clipitem id="clipitem-657">
											<masterclipid>masterclip-289</masterclipid>
											<name>Graphic</name>
											<enabled>FALSE</enabled>
											<duration>1080000</duration>
											<rate>
												<timebase>25</timebase>
												<ntsc>FALSE</ntsc>
											</rate>
											<start>-1</start>
											<end>-1</end>
											<in>89998</in>
											<out>90181</out>
											<pproTicksIn>914437278720000</pproTicksIn>
											<pproTicksOut>916296675840000</pproTicksOut>
											<alphatype>straight</alphatype>
											<pixelaspectratio>PAL-601</pixelaspectratio>
											<anamorphic>TRUE</anamorphic>
											<file id="file-253">
												<name>Graphic</name>
												<mediaSource>GraphicAndType</mediaSource>
												<rate>
													<timebase>30</timebase>
													<ntsc>TRUE</ntsc>
												</rate>
												<timecode>
													<rate>
														<timebase>30</timebase>
														<ntsc>TRUE</ntsc>
													</rate>
													<string>00;00;00;00</string>
													<frame>0</frame>
													<displayformat>DF</displayformat>
												</timecode>
												<media>
													<video>
														<samplecharacteristics>
															<rate>
																<timebase>30</timebase>
																<ntsc>TRUE</ntsc>
															</rate>
															<width>720</width>
															<height>576</height>
															<anamorphic>TRUE</anamorphic>
															<pixelaspectratio>PAL-601</pixelaspectratio>
															<fielddominance>none</fielddominance>
														</samplecharacteristics>
													</video>
												</media>
											</file>
											<filter>
												<effect>
													<name>АРТУР ПИРОЖКОВ&#13;ЛЕТОМ НА ФИЕСТЕ</name>
													<effectid>GraphicAndType</effectid>
													<effectcategory>graphic</effectcategory>
													<effecttype>filter</effecttype>
													<mediatype>video</mediatype>
													<pproBypass>false</pproBypass>
													<pproExpanded>true</pproExpanded>
													<parameter authoringApp="PremierePro">
														<parameterid>1</parameterid>
														<name>Source Text</name>
														<hash>dc092258-f6b9-fd91-a76f-c3e700000476</hash>
														<value>WAEAAAAAAABEMyIREAAAAAwAEAAEAAAACAAMAAwAAABEAAAACAAAABAAAAAAAAAACAAaAAQADAAIAAAAlX6GQZLUglGh3VTnAAAD0QAAAAAAABIAEAAIAAQAAAAAAAAAAAAMABIAAAAYAAAAMAAAAAAAgD9Y////XP///2D///8BAAAABAAAAA8AAABNb250c2VycmF0LUJvbGQAAQAAAAwAAAAIAAwABAAIAAgAAAB0AAAANAAAADAAGAAAABQAAAAAABAAAAAMAAAAAAAAAAgAAAAAAAAAAAAAAAAAAAAAAAAAAAAEADAAAAAYAAAAAACAv5qZmT8cAAAAAABAQQQABgAEAAAAAAAKAAgABQAGAAcACgAAAADl5eUEAAQABAAAADgAAADQkNCg0KLQo9CgINCf0JjQoNCe0JbQmtCe0JIN0JvQldCi0J7QnCDQndCQINCk0JjQldCh0KLQlQAAAAAAAAAAAAAAAAAAAAAAAAAAAAAAAAAAAAAAAAAAAAAAAAAAAAAAAAAAAAAAAAAAAAAAAAAAAAAAAAAAAAAAAAAAAAAAAAAAAAAAAAAAAAAAAAAAAAAAAAAAAAAAAAAAAAAAAAAAAAAAAAAAAAAAAAAAAAAAAAAAAAAAAAAAAAAAAAAAAAAAAAAAAAAAAAAAAAAAAAAAAAAAAAAAAAAAAAAAAAAAAAAAAAAAAAAAAAAAAAAAAAAAAAAAAAAAAAAAAAAAAAAAAAAAAAAAAAAAAAAAAAAAAAAAAAAAAAAAAAAAAAAAAAAAAAAAAAAAAAAAAAAAAAAAAAAAAAAAAAAAAAAAAAAAAAAAAAAAAAAAAAAAAAAAAAAAAAAAAAAAAAAAAAAAAAAAAAAAAAAAAAAAAAAAAAAAAAAAAAAAAAAAAAAAAAAAAAAAAAAAAAAAAAAAAAAAAAAAAAAAAAAAAAAAAAAAAAAAAAAAAAAAAAAAAAAAAAAAAAAAAAAAAAAAAAAAAAAAAAAAAAAAAAAAAAAAAAAAAAAAAAAAAAAAAAAAAAAAAAAAAAAAAAAAAAAAAAAAAAAAAAAAAAAAAAAAAAAAAAAAAAAAAAAAAAAAAAAAAAAAAAAAAAAAAAAAAAAAAAAAAAAAAAAAAAAAAAAAAAAAAAAAAAAAAAAAAAAAAAAAAAAAAAAAAAAAAAAAAAAAAAAAAAAAAAAAAAAAAAAAAAAAAAAAAAAAAAAAAAAAAAAAAAAAAAAAAAAAAAAAAAAAAAAAAAAAAAAAAAAAAAAAAAAAAAAAAAAAAAAAAAAAAAAAAAAAAAAAAAAAAAAAAAAAAAAAAAAAAAAAAAAAAAAAAAAAAAAAAAAAAAAAAAAAAAAAAAAAAAAAAAAAAAAAAAAAAAAAAAAAAAAAAAAAAAAAAAAAAAAAAAAAAAAAAAAAAAAAAAAAAAAAAAAAAAAAAAAAAAAAAAAAAAAAAAAAAAAAAAAAAAAAAAAAAAAAAAAAAAAAAAAAAAAAAAAAAAAAAAAAAAAAAAAAAAAAAAA=</value>
													</parameter>
													<parameter authoringApp="PremierePro">
														<parameterid>2</parameterid>
														<name>Transform</name>
														<IsTimeVarying>false</IsTimeVarying>
														<ParameterControlType>11</ParameterControlType>
														<LowerBound>false</LowerBound>
														<UpperBound>false</UpperBound>
														<value>-91445760000000000,false,0,0,0,0,0,0</value>
													</parameter>
													<parameter authoringApp="PremierePro">
														<parameterid>3</parameterid>
														<name>Position</name>
														<IsTimeVarying>false</IsTimeVarying>
														<value>-91445760000000000,0.36944580078125:0.86468505859375,0,0,0,0,0,0,5,4,0,0,0,0</value>
													</parameter>
													<parameter authoringApp="PremierePro">
														<parameterid>4</parameterid>
														<name>Scale</name>
														<IsTimeVarying>false</IsTimeVarying>
														<ParameterControlType>2</ParameterControlType>
														<LowerBound>0</LowerBound>
														<UpperBound>4000</UpperBound>
														<value>-91445760000000000,100.,0,0,0,0,0,0</value>
													</parameter>
													<parameter authoringApp="PremierePro">
														<parameterid>5</parameterid>
														<name>Horizontal Scale</name>
														<IsTimeVarying>false</IsTimeVarying>
														<ParameterControlType>2</ParameterControlType>
														<LowerBound>0</LowerBound>
														<UpperBound>4000</UpperBound>
														<value>-91445760000000000,100.,0,0,0,0,0,0</value>
													</parameter>
													<parameter authoringApp="PremierePro">
														<parameterid>6</parameterid>
														<name> </name>
														<IsTimeVarying>false</IsTimeVarying>
														<ParameterControlType>4</ParameterControlType>
														<LowerBound>false</LowerBound>
														<UpperBound>true</UpperBound>
														<value>-91445760000000000,true,0,0,0,0,0,0</value>
													</parameter>
													<parameter authoringApp="PremierePro">
														<parameterid>7</parameterid>
														<name>Rotation</name>
														<IsTimeVarying>false</IsTimeVarying>
														<ParameterControlType>3</ParameterControlType>
														<LowerBound>-32768</LowerBound>
														<UpperBound>32767</UpperBound>
														<value>-91445760000000000,0.,0,0,0,0,0,0</value>
													</parameter>
													<parameter authoringApp="PremierePro">
														<parameterid>8</parameterid>
														<name>Opacity</name>
														<IsTimeVarying>false</IsTimeVarying>
														<ParameterControlType>2</ParameterControlType>
														<LowerBound>0</LowerBound>
														<UpperBound>100</UpperBound>
														<value>-91445760000000000,100.,0,0,0,0,0,0</value>
													</parameter>
													<parameter authoringApp="PremierePro">
														<parameterid>9</parameterid>
														<name>Anchor Point</name>
														<IsTimeVarying>false</IsTimeVarying>
														<value>-91445760000000000,0:0,0,0,0,0,0,0,5,4,0,0,0,0</value>
													</parameter>
													<parameter authoringApp="PremierePro">
														<parameterid>10</parameterid>
														<name></name>
														<IsTimeVarying>false</IsTimeVarying>
														<ParameterControlType>12</ParameterControlType>
														<LowerBound>false</LowerBound>
														<UpperBound>false</UpperBound>
														<value>-91445760000000000,false,0,0,0,0,0,0</value>
													</parameter>
													<parameter authoringApp="PremierePro">
														<parameterid>11</parameterid>
														<name> </name>
														<IsTimeVarying>false</IsTimeVarying>
														<ParameterControlType>8</ParameterControlType>
														<LowerBound>0</LowerBound>
														<UpperBound>32768</UpperBound>
														<value>-91445760000000000,0.,0,0,0,0,0,0</value>
													</parameter>
													<parameter authoringApp="PremierePro">
														<parameterid>12</parameterid>
														<name> </name>
														<IsTimeVarying>false</IsTimeVarying>
														<ParameterControlType>8</ParameterControlType>
														<LowerBound>0</LowerBound>
														<UpperBound>32768</UpperBound>
														<value>-91445760000000000,0.,0,0,0,0,0,0</value>
													</parameter>
													<parameter authoringApp="PremierePro">
														<parameterid>13</parameterid>
														<name>start</name>
														<IsTimeVarying>false</IsTimeVarying>
														<ParameterControlType>8</ParameterControlType>
														<LowerBound>-100</LowerBound>
														<UpperBound>1000000000</UpperBound>
														<value>-91445760000000000,30.,0,0,0,0,0,0</value>
													</parameter>
													<parameter authoringApp="PremierePro">
														<parameterid>14</parameterid>
														<name>end</name>
														<IsTimeVarying>false</IsTimeVarying>
														<ParameterControlType>8</ParameterControlType>
														<LowerBound>-100</LowerBound>
														<UpperBound>1000000000</UpperBound>
														<value>-91445760000000000,30.,0,0,0,0,0,0</value>
													</parameter>
													<parameter authoringApp="PremierePro">
														<parameterid>15</parameterid>
														<name> </name>
														<IsTimeVarying>false</IsTimeVarying>
														<ParameterControlType>4</ParameterControlType>
														<LowerBound>false</LowerBound>
														<UpperBound>true</UpperBound>
														<value>-91445760000000000,false,0,0,0,0,0,0</value>
													</parameter>
													<parameter authoringApp="PremierePro">
														<parameterid>16</parameterid>
														<name> </name>
														<IsTimeVarying>false</IsTimeVarying>
														<ParameterControlType>4</ParameterControlType>
														<LowerBound>false</LowerBound>
														<UpperBound>true</UpperBound>
														<value>-91445760000000000,false,0,0,0,0,0,0</value>
													</parameter>
													<parameter authoringApp="PremierePro">
														<parameterid>17</parameterid>
														<name> </name>
														<IsTimeVarying>false</IsTimeVarying>
														<ParameterControlType>4</ParameterControlType>
														<LowerBound>false</LowerBound>
														<UpperBound>true</UpperBound>
														<value>-91445760000000000,false,0,0,0,0,0,0</value>
													</parameter>
													<parameter authoringApp="PremierePro">
														<parameterid>18</parameterid>
														<name> </name>
														<IsTimeVarying>false</IsTimeVarying>
														<ParameterControlType>4</ParameterControlType>
														<LowerBound>false</LowerBound>
														<UpperBound>true</UpperBound>
														<value>-91445760000000000,false,0,0,0,0,0,0</value>
													</parameter>
													<parameter authoringApp="PremierePro">
														<parameterid>19</parameterid>
														<name>Parent Width</name>
														<IsTimeVarying>false</IsTimeVarying>
														<ParameterControlType>2</ParameterControlType>
														<LowerBound>0</LowerBound>
														<UpperBound>20000</UpperBound>
														<value>-91445760000000000,0.,0,0,0,0,0,0</value>
													</parameter>
													<parameter authoringApp="PremierePro">
														<parameterid>20</parameterid>
														<name>Parent Height</name>
														<IsTimeVarying>false</IsTimeVarying>
														<ParameterControlType>2</ParameterControlType>
														<LowerBound>0</LowerBound>
														<UpperBound>20000</UpperBound>
														<value>-91445760000000000,0.,0,0,0,0,0,0</value>
													</parameter>
													<parameter authoringApp="PremierePro">
														<parameterid>21</parameterid>
														<name>Parent Rotation</name>
														<IsTimeVarying>false</IsTimeVarying>
														<ParameterControlType>3</ParameterControlType>
														<LowerBound>-32768</LowerBound>
														<UpperBound>32767</UpperBound>
														<value>-91445760000000000,0.,0,0,0,0,0,0</value>
													</parameter>
												</effect>
											</filter>
											<logginginfo>
												<description></description>
												<scene></scene>
												<shottake></shottake>
												<lognote></lognote>
												<good></good>
												<originalvideofilename></originalvideofilename>
												<originalaudiofilename></originalaudiofilename>
											</logginginfo>
											<colorinfo>
												<lut></lut>
												<lut1></lut1>
												<asc_sop></asc_sop>
												<asc_sat></asc_sat>
												<lut2></lut2>
											</colorinfo>
										</clipitem>
										<transitionitem>
											<start>328</start>
											<end>350</end>
											<alignment>end-black</alignment>
											<cutPointTicks>223534080000</cutPointTicks>
											<rate>
												<timebase>25</timebase>
												<ntsc>FALSE</ntsc>
											</rate>
											<effect>
												<name>Edge Wipe</name>
												<effectid>Edge Wipe</effectid>
												<effectcategory>Wipe</effectcategory>
												<effecttype>transition</effecttype>
												<mediatype>video</mediatype>
												<wipecode>2</wipecode>
												<wipeaccuracy>100</wipeaccuracy>
												<startratio>0</startratio>
												<endratio>1</endratio>
												<reverse>FALSE</reverse>
												<parameter authoringApp="PremierePro">
													<parameterid>directionofwipe</parameterid>
													<name>Angle</name>
													<valuemin>-360</valuemin>
													<valuemax>360</valuemax>
													<value>90</value>
												</parameter>
											</effect>
										</transitionitem>
										<enabled>TRUE</enabled>
										<locked>FALSE</locked>
									</track>
								</video>
								<audio>
									<numOutputChannels>2</numOutputChannels>
									<format>
										<samplecharacteristics>
											<depth>16</depth>
											<samplerate>48000</samplerate>
										</samplecharacteristics>
									</format>
									<outputs>
										<group>
											<index>1</index>
											<numchannels>1</numchannels>
											<downmix>0</downmix>
											<channel>
												<index>1</index>
											</channel>
										</group>
										<group>
											<index>2</index>
											<numchannels>1</numchannels>
											<downmix>0</downmix>
											<channel>
												<index>2</index>
											</channel>
										</group>
									</outputs>
									<track TL.SQTrackAudioKeyframeStyle="0" TL.SQTrackShy="0" TL.SQTrackExpandedHeight="25" TL.SQTrackExpanded="0" MZ.TrackTargeted="1" PannerCurrentValue="0.5" PannerStartKeyframe="-91445760000000000,0.5,0,0,0,0,0,0" PannerName="Balance" currentExplodedTrackIndex="0" totalExplodedTrackCount="2" premiereTrackType="Stereo">
										<enabled>TRUE</enabled>
										<locked>FALSE</locked>
										<outputchannelindex>1</outputchannelindex>
									</track>
									<track TL.SQTrackAudioKeyframeStyle="0" TL.SQTrackShy="0" TL.SQTrackExpandedHeight="25" TL.SQTrackExpanded="0" MZ.TrackTargeted="1" PannerCurrentValue="0.5" PannerStartKeyframe="-91445760000000000,0.5,0,0,0,0,0,0" PannerName="Balance" currentExplodedTrackIndex="1" totalExplodedTrackCount="2" premiereTrackType="Stereo">
										<enabled>TRUE</enabled>
										<locked>FALSE</locked>
										<outputchannelindex>2</outputchannelindex>
									</track>
								</audio>
							</media>
							<timecode>
								<rate>
									<timebase>25</timebase>
									<ntsc>FALSE</ntsc>
								</rate>
								<string>00:00:00:00</string>
								<frame>0</frame>
								<displayformat>NDF</displayformat>
							</timecode>
								<marker>
									<comment></comment>
									<name></name>
									<in>125</in>
									<out>-1</out>
									<pproColor>4280578025</pproColor>
								</marker>
							<logginginfo>
								<description></description>
								<scene></scene>
								<shottake></shottake>
								<lognote></lognote>
								<good></good>
								<originalvideofilename></originalvideofilename>
								<originalaudiofilename></originalaudiofilename>
							</logginginfo>
						</sequence>
							<marker>
								<comment></comment>
								<name></name>
								<in>125</in>
								<out>-1</out>
								<pproColor>4280578025</pproColor>
							</marker>
						<labels>
							<label2>Forest</label2>
						</labels>
					</clipitem>
					<clipitem id="clipitem-658">
						<masterclipid>masterclip-285</masterclipid>
						<name>11</name>
						<enabled>TRUE</enabled>
						<duration>475</duration>
						<rate>
							<timebase>25</timebase>
							<ntsc>FALSE</ntsc>
						</rate>
						<start>12910</start>
						<end>13261</end>
						<in>124</in>
						<out>475</out>
						<pproTicksIn>1259919360000</pproTicksIn>
						<pproTicksOut>4826304000000</pproTicksOut>
						<sequence id="sequence-40"/>
							<marker>
								<comment></comment>
								<name></name>
								<in>125</in>
								<out>-1</out>
								<pproColor>4280578025</pproColor>
							</marker>
						<labels>
							<label2>Forest</label2>
						</labels>
					</clipitem>
					<clipitem id="clipitem-659">
						<masterclipid>masterclip-273</masterclipid>
						<name>титр</name>
						<enabled>TRUE</enabled>
						<duration>225</duration>
						<rate>
							<timebase>25</timebase>
							<ntsc>FALSE</ntsc>
						</rate>
						<start>13321</start>
						<end>13492</end>
						<in>0</in>
						<out>171</out>
						<pproTicksIn>0</pproTicksIn>
						<pproTicksOut>1737469440000</pproTicksOut>
						<sequence id="sequence-37"/>
						<filter>
							<effect>
								<name>Opacity</name>
								<effectid>opacity</effectid>
								<effectcategory>motion</effectcategory>
								<effecttype>motion</effecttype>
								<mediatype>video</mediatype>
								<pproBypass>false</pproBypass>
								<parameter authoringApp="PremierePro">
									<parameterid>opacity</parameterid>
									<name>opacity</name>
									<valuemin>0</valuemin>
									<valuemax>100</valuemax>
									<value>100</value>
								</parameter>
							</effect>
						</filter>
							<marker>
								<comment></comment>
								<name></name>
								<in>57</in>
								<out>-1</out>
								<pproColor>4294741314</pproColor>
							</marker>
						<labels>
							<label2>Forest</label2>
						</labels>
					</clipitem>
					<clipitem id="clipitem-660">
						<masterclipid>masterclip-290</masterclipid>
						<name>10_TITLE</name>
						<enabled>TRUE</enabled>
						<duration>475</duration>
						<rate>
							<timebase>25</timebase>
							<ntsc>FALSE</ntsc>
						</rate>
						<start>14268</start>
						<end>14618</end>
						<in>0</in>
						<out>475</out>
						<pproTicksIn>0</pproTicksIn>
						<pproTicksOut>4826304000000</pproTicksOut>
						<sequence id="sequence-41" TL.SQAudioVisibleBase="0" TL.SQVideoVisibleBase="0" TL.SQVisibleBaseTime="0" TL.SQAVDividerPosition="0.5" TL.SQHideShyTracks="0" TL.SQHeaderWidth="236" TL.SQDataTrackViewControlState="0" Monitor.ProgramZoomOut="4826304000000" Monitor.ProgramZoomIn="0" TL.SQTimePerPixel="0.012499999999999999" AM.TrackVScrollPosition="0" AM.TrackScrollPosition="0" MZ.EditLine="1757790720000" MZ.Sequence.PreviewFrameSizeHeight="576" MZ.Sequence.PreviewFrameSizeWidth="720" MZ.Sequence.AudioTimeDisplayFormat="200" MZ.Sequence.PreviewRenderingClassID="1061109567" MZ.Sequence.PreviewRenderingPresetCodec="1685480304" MZ.Sequence.PreviewRenderingPresetPath="EncoderPresets/SequencePreview/04be6e19-a018-4e0c-a9d6-0ab44c64752b/QuickTime DV PAL.epr" MZ.Sequence.PreviewUseMaxRenderQuality="false" MZ.Sequence.PreviewUseMaxBitDepth="false" MZ.Sequence.EditingModeGUID="04be6e19-a018-4e0c-a9d6-0ab44c64752b" MZ.Sequence.VideoTimeDisplayFormat="101" MZ.WorkOutPoint="4826304000000" MZ.WorkInPoint="0" MZ.ZeroPoint="0">
							<duration>475</duration>
							<rate>
								<timebase>25</timebase>
								<ntsc>FALSE</ntsc>
							</rate>
							<name>титр</name>
							<media>
								<video>
									<format>
										<samplecharacteristics>
											<rate>
												<timebase>25</timebase>
												<ntsc>FALSE</ntsc>
											</rate>
											<codec>
												<name>Apple ProRes 422</name>
												<appspecificdata>
													<appname>Final Cut Pro</appname>
													<appmanufacturer>Apple Inc.</appmanufacturer>
													<appversion>7.0</appversion>
													<data>
														<qtcodec>
															<codecname>Apple ProRes 422</codecname>
															<codectypename>Apple ProRes 422</codectypename>
															<codectypecode>apcn</codectypecode>
															<codecvendorcode>appl</codecvendorcode>
															<spatialquality>1024</spatialquality>
															<temporalquality>0</temporalquality>
															<keyframerate>0</keyframerate>
															<datarate>0</datarate>
														</qtcodec>
													</data>
												</appspecificdata>
											</codec>
											<width>720</width>
											<height>576</height>
											<anamorphic>TRUE</anamorphic>
											<pixelaspectratio>PAL-601</pixelaspectratio>
											<fielddominance>lower</fielddominance>
											<colordepth>24</colordepth>
										</samplecharacteristics>
									</format>
									<track TL.SQTrackShy="0" TL.SQTrackExpandedHeight="25" TL.SQTrackExpanded="0" MZ.TrackTargeted="1">
										<clipitem id="clipitem-661">
											<masterclipid>masterclip-291</masterclipid>
											<name>Nested Sequence 02</name>
											<enabled>TRUE</enabled>
											<duration>225</duration>
											<rate>
												<timebase>25</timebase>
												<ntsc>FALSE</ntsc>
											</rate>
											<start>125</start>
											<end>350</end>
											<in>0</in>
											<out>225</out>
											<pproTicksIn>0</pproTicksIn>
											<pproTicksOut>2286144000000</pproTicksOut>
											<sequence id="sequence-42" TL.SQAudioVisibleBase="0" TL.SQVideoVisibleBase="0" TL.SQVisibleBaseTime="0" TL.SQAVDividerPosition="0.5" TL.SQHideShyTracks="0" TL.SQHeaderWidth="236" Monitor.ProgramZoomOut="2286144000000" Monitor.ProgramZoomIn="0" TL.SQTimePerPixel="0.024999999999999998" AM.TrackVScrollPosition="0" AM.TrackScrollPosition="0" MZ.EditLine="985582080000" MZ.Sequence.PreviewFrameSizeHeight="576" MZ.Sequence.PreviewFrameSizeWidth="720" MZ.Sequence.AudioTimeDisplayFormat="200" MZ.Sequence.PreviewRenderingPresetCodec="1685480304" MZ.Sequence.PreviewRenderingPresetPath="EncoderPresets/SequencePreview/04be6e19-a018-4e0c-a9d6-0ab44c64752b/QuickTime DV PAL.epr" MZ.Sequence.PreviewUseMaxRenderQuality="false" MZ.Sequence.PreviewUseMaxBitDepth="false" MZ.Sequence.EditingModeGUID="04be6e19-a018-4e0c-a9d6-0ab44c64752b" MZ.Sequence.VideoTimeDisplayFormat="101" MZ.WorkOutPoint="2286144000000" MZ.WorkInPoint="0">
												<duration>225</duration>
												<rate>
													<timebase>25</timebase>
													<ntsc>FALSE</ntsc>
												</rate>
												<name>Nested Sequence 02</name>
												<media>
													<video>
														<format>
															<samplecharacteristics>
																<rate>
																	<timebase>25</timebase>
																	<ntsc>FALSE</ntsc>
																</rate>
																<codec>
																	<name>Apple ProRes 422</name>
																	<appspecificdata>
																		<appname>Final Cut Pro</appname>
																		<appmanufacturer>Apple Inc.</appmanufacturer>
																		<appversion>7.0</appversion>
																		<data>
																			<qtcodec>
																				<codecname>Apple ProRes 422</codecname>
																				<codectypename>Apple ProRes 422</codectypename>
																				<codectypecode>apcn</codectypecode>
																				<codecvendorcode>appl</codecvendorcode>
																				<spatialquality>1024</spatialquality>
																				<temporalquality>0</temporalquality>
																				<keyframerate>0</keyframerate>
																				<datarate>0</datarate>
																			</qtcodec>
																		</data>
																	</appspecificdata>
																</codec>
																<width>720</width>
																<height>576</height>
																<anamorphic>TRUE</anamorphic>
																<pixelaspectratio>PAL-601</pixelaspectratio>
																<fielddominance>lower</fielddominance>
																<colordepth>24</colordepth>
															</samplecharacteristics>
														</format>
														<track TL.SQTrackShy="0" TL.SQTrackExpandedHeight="25" TL.SQTrackExpanded="0" MZ.TrackTargeted="1">
															<clipitem id="clipitem-662">
																<masterclipid>masterclip-292</masterclipid>
																<name>9_title.mov</name>
																<enabled>TRUE</enabled>
																<duration>225</duration>
																<rate>
																	<timebase>25</timebase>
																	<ntsc>FALSE</ntsc>
																</rate>
																<start>0</start>
																<end>225</end>
																<in>0</in>
																<out>225</out>
																<pproTicksIn>0</pproTicksIn>
																<pproTicksOut>2286144000000</pproTicksOut>
																<alphatype>straight</alphatype>
																<pixelaspectratio>square</pixelaspectratio>
																<anamorphic>FALSE</anamorphic>
																<file id="file-254">
																	<name>8_title.mov</name>
																	<pathurl>file://localhost/_MUZ_TV/graphika/RU-21/MOD/title_plashka/8_title.mov</pathurl>
																	<rate>
																		<timebase>25</timebase>
																		<ntsc>FALSE</ntsc>
																	</rate>
																	<duration>225</duration>
																	<timecode>
																		<rate>
																			<timebase>25</timebase>
																			<ntsc>FALSE</ntsc>
																		</rate>
																		<string>00:00:18:00</string>
																		<frame>450</frame>
																		<displayformat>NDF</displayformat>
																	</timecode>
																	<media>
																		<video>
																			<samplecharacteristics>
																				<rate>
																					<timebase>25</timebase>
																					<ntsc>FALSE</ntsc>
																				</rate>
																				<width>1920</width>
																				<height>1080</height>
																				<anamorphic>FALSE</anamorphic>
																				<pixelaspectratio>square</pixelaspectratio>
																				<fielddominance>none</fielddominance>
																			</samplecharacteristics>
																		</video>
																	</media>
																</file>
																<filter>
																	<effect>
																		<name>Basic Motion</name>
																		<effectid>basic</effectid>
																		<effectcategory>motion</effectcategory>
																		<effecttype>motion</effecttype>
																		<mediatype>video</mediatype>
																		<pproBypass>false</pproBypass>
																		<parameter authoringApp="PremierePro">
																			<parameterid>scale</parameterid>
																			<name>Scale</name>
																			<valuemin>0</valuemin>
																			<valuemax>1000</valuemax>
																			<value>55</value>
																		</parameter>
																		<parameter authoringApp="PremierePro">
																			<parameterid>rotation</parameterid>
																			<name>Rotation</name>
																			<valuemin>-8640</valuemin>
																			<valuemax>8640</valuemax>
																			<value>0</value>
																		</parameter>
																		<parameter authoringApp="PremierePro">
																			<parameterid>center</parameterid>
																			<name>Center</name>
																			<value>
																				<horiz>0</horiz>
																				<vert>0</vert>
																			</value>
																		</parameter>
																		<parameter authoringApp="PremierePro">
																			<parameterid>centerOffset</parameterid>
																			<name>Anchor Point</name>
																			<value>
																				<horiz>0</horiz>
																				<vert>0</vert>
																			</value>
																		</parameter>
																		<parameter authoringApp="PremierePro">
																			<parameterid>antiflicker</parameterid>
																			<name>Anti-flicker Filter</name>
																			<valuemin>0.0</valuemin>
																			<valuemax>1.0</valuemax>
																			<value>0</value>
																		</parameter>
																	</effect>
																</filter>
																<filter>
																	<effect>
																		<name>Distort</name>
																		<effectid>deformation</effectid>
																		<effectcategory>motion</effectcategory>
																		<effecttype>motion</effecttype>
																		<mediatype>video</mediatype>
																		<parameter authoringApp="PremierePro">
																			<parameterid>aspect</parameterid>
																			<name>Aspect</name>
																			<valuemin>-10000</valuemin>
																			<valuemax>10000</valuemax>
																			<value>-3.12506</value>
																		</parameter>
																	</effect>
																</filter>
																<logginginfo>
																	<description></description>
																	<scene></scene>
																	<shottake></shottake>
																	<lognote></lognote>
																	<good></good>
																	<originalvideofilename></originalvideofilename>
																	<originalaudiofilename></originalaudiofilename>
																</logginginfo>
																<colorinfo>
																	<lut></lut>
																	<lut1></lut1>
																	<asc_sop></asc_sop>
																	<asc_sat></asc_sat>
																	<lut2></lut2>
																</colorinfo>
																<labels>
																	<label2>Violet</label2>
																</labels>
															</clipitem>
															<enabled>TRUE</enabled>
															<locked>FALSE</locked>
														</track>
													</video>
													<audio>
														<numOutputChannels>2</numOutputChannels>
														<format>
															<samplecharacteristics>
																<depth>16</depth>
																<samplerate>48000</samplerate>
															</samplecharacteristics>
														</format>
														<outputs>
															<group>
																<index>1</index>
																<numchannels>1</numchannels>
																<downmix>0</downmix>
																<channel>
																	<index>1</index>
																</channel>
															</group>
															<group>
																<index>2</index>
																<numchannels>1</numchannels>
																<downmix>0</downmix>
																<channel>
																	<index>2</index>
																</channel>
															</group>
														</outputs>
														<track TL.SQTrackAudioKeyframeStyle="0" TL.SQTrackShy="0" TL.SQTrackExpandedHeight="25" TL.SQTrackExpanded="0" MZ.TrackTargeted="1" PannerCurrentValue="0.5" PannerIsInverted="true" PannerStartKeyframe="-91445760000000000,0.5,0,0,0,0,0,0" PannerName="Balance" currentExplodedTrackIndex="0" totalExplodedTrackCount="2" premiereTrackType="Stereo">
															<enabled>TRUE</enabled>
															<locked>FALSE</locked>
															<outputchannelindex>1</outputchannelindex>
														</track>
														<track TL.SQTrackAudioKeyframeStyle="0" TL.SQTrackShy="0" TL.SQTrackExpandedHeight="25" TL.SQTrackExpanded="0" MZ.TrackTargeted="1" PannerCurrentValue="0.5" PannerIsInverted="true" PannerStartKeyframe="-91445760000000000,0.5,0,0,0,0,0,0" PannerName="Balance" currentExplodedTrackIndex="1" totalExplodedTrackCount="2" premiereTrackType="Stereo">
															<enabled>TRUE</enabled>
															<locked>FALSE</locked>
															<outputchannelindex>2</outputchannelindex>
														</track>
													</audio>
												</media>
												<timecode>
													<rate>
														<timebase>25</timebase>
														<ntsc>FALSE</ntsc>
													</rate>
													<string>00:00:00:00</string>
													<frame>0</frame>
													<displayformat>NDF</displayformat>
												</timecode>
												<logginginfo>
													<description></description>
													<scene></scene>
													<shottake></shottake>
													<lognote></lognote>
													<good></good>
													<originalvideofilename></originalvideofilename>
													<originalaudiofilename></originalaudiofilename>
												</logginginfo>
											</sequence>
											<labels>
												<label2>Forest</label2>
											</labels>
										</clipitem>
										<clipitem id="clipitem-663">
											<masterclipid>masterclip-293</masterclipid>
											<name>Graphic</name>
											<enabled>FALSE</enabled>
											<duration>1080000</duration>
											<rate>
												<timebase>25</timebase>
												<ntsc>FALSE</ntsc>
											</rate>
											<start>350</start>
											<end>475</end>
											<in>90000</in>
											<out>90125</out>
											<pproTicksIn>914457600000000</pproTicksIn>
											<pproTicksOut>915727680000000</pproTicksOut>
											<alphatype>straight</alphatype>
											<pixelaspectratio>PAL-601</pixelaspectratio>
											<anamorphic>TRUE</anamorphic>
											<file id="file-255">
												<name>Graphic</name>
												<mediaSource>GraphicAndType</mediaSource>
												<rate>
													<timebase>30</timebase>
													<ntsc>TRUE</ntsc>
												</rate>
												<timecode>
													<rate>
														<timebase>30</timebase>
														<ntsc>TRUE</ntsc>
													</rate>
													<string>00;00;00;00</string>
													<frame>0</frame>
													<displayformat>DF</displayformat>
												</timecode>
												<media>
													<video>
														<samplecharacteristics>
															<rate>
																<timebase>30</timebase>
																<ntsc>TRUE</ntsc>
															</rate>
															<width>720</width>
															<height>576</height>
															<anamorphic>TRUE</anamorphic>
															<pixelaspectratio>PAL-601</pixelaspectratio>
															<fielddominance>none</fielddominance>
														</samplecharacteristics>
													</video>
												</media>
											</file>
											<filter>
												<effect>
													<name>Basic Motion</name>
													<effectid>basic</effectid>
													<effectcategory>motion</effectcategory>
													<effecttype>motion</effecttype>
													<mediatype>video</mediatype>
													<pproBypass>false</pproBypass>
													<parameter authoringApp="PremierePro">
														<parameterid>scale</parameterid>
														<name>Scale</name>
														<valuemin>0</valuemin>
														<valuemax>1000</valuemax>
														<value>133.333</value>
													</parameter>
													<parameter authoringApp="PremierePro">
														<parameterid>rotation</parameterid>
														<name>Rotation</name>
														<valuemin>-8640</valuemin>
														<valuemax>8640</valuemax>
														<value>0</value>
													</parameter>
													<parameter authoringApp="PremierePro">
														<parameterid>center</parameterid>
														<name>Center</name>
														<value>
															<horiz>0</horiz>
															<vert>0</vert>
														</value>
													</parameter>
													<parameter authoringApp="PremierePro">
														<parameterid>centerOffset</parameterid>
														<name>Anchor Point</name>
														<value>
															<horiz>0</horiz>
															<vert>0</vert>
														</value>
													</parameter>
													<parameter authoringApp="PremierePro">
														<parameterid>antiflicker</parameterid>
														<name>Anti-flicker Filter</name>
														<valuemin>0.0</valuemin>
														<valuemax>1.0</valuemax>
														<value>0</value>
													</parameter>
												</effect>
											</filter>
											<filter>
												<effect>
													<name>Distort</name>
													<effectid>deformation</effectid>
													<effectcategory>motion</effectcategory>
													<effecttype>motion</effecttype>
													<mediatype>video</mediatype>
													<parameter authoringApp="PremierePro">
														<parameterid>aspect</parameterid>
														<name>Aspect</name>
														<valuemin>-10000</valuemin>
														<valuemax>10000</valuemax>
														<value>-33.333</value>
													</parameter>
												</effect>
											</filter>
											<filter>
												<effect>
													<name></name>
													<effectid>GraphicAndType</effectid>
													<effectcategory>graphic</effectcategory>
													<effecttype>filter</effecttype>
													<mediatype>video</mediatype>
													<pproBypass>false</pproBypass>
													<parameter authoringApp="PremierePro">
														<parameterid>1</parameterid>
														<name>Source Text</name>
														<hash>3f0faa81-c1b0-8370-b66c-fa0b000009f1</hash>
													</parameter>
													<parameter authoringApp="PremierePro">
														<parameterid>2</parameterid>
														<name>Transform</name>
														<IsTimeVarying>false</IsTimeVarying>
														<ParameterControlType>11</ParameterControlType>
														<LowerBound>false</LowerBound>
														<UpperBound>false</UpperBound>
														<value>-91445760000000000,false,0,0,0,0,0,0</value>
													</parameter>
													<parameter authoringApp="PremierePro">
														<parameterid>3</parameterid>
														<name>Position</name>
														<IsTimeVarying>false</IsTimeVarying>
														<value>-91445760000000000,0.55605381727218628:0.73039215803146362,0,0,0,0,0,0,5,4,0,0,0,0</value>
													</parameter>
													<parameter authoringApp="PremierePro">
														<parameterid>4</parameterid>
														<name>Scale</name>
														<IsTimeVarying>false</IsTimeVarying>
														<ParameterControlType>2</ParameterControlType>
														<LowerBound>0</LowerBound>
														<UpperBound>4000</UpperBound>
														<value>-91445760000000000,100.,0,0,0,0,0,0</value>
													</parameter>
													<parameter authoringApp="PremierePro">
														<parameterid>5</parameterid>
														<name>Horizontal Scale</name>
														<IsTimeVarying>false</IsTimeVarying>
														<ParameterControlType>2</ParameterControlType>
														<LowerBound>0</LowerBound>
														<UpperBound>4000</UpperBound>
														<value>-91445760000000000,100.,0,0,0,0,0,0</value>
													</parameter>
													<parameter authoringApp="PremierePro">
														<parameterid>6</parameterid>
														<name> </name>
														<IsTimeVarying>false</IsTimeVarying>
														<ParameterControlType>4</ParameterControlType>
														<LowerBound>false</LowerBound>
														<UpperBound>true</UpperBound>
														<value>-91445760000000000,true,0,0,0,0,0,0</value>
													</parameter>
													<parameter authoringApp="PremierePro">
														<parameterid>7</parameterid>
														<name>Rotation</name>
														<IsTimeVarying>false</IsTimeVarying>
														<ParameterControlType>3</ParameterControlType>
														<LowerBound>-32768</LowerBound>
														<UpperBound>32767</UpperBound>
														<value>-91445760000000000,0.,0,0,0,0,0,0</value>
													</parameter>
													<parameter authoringApp="PremierePro">
														<parameterid>8</parameterid>
														<name>Opacity</name>
														<IsTimeVarying>false</IsTimeVarying>
														<ParameterControlType>2</ParameterControlType>
														<LowerBound>0</LowerBound>
														<UpperBound>100</UpperBound>
														<value>-91445760000000000,100.,0,0,0,0,0,0</value>
													</parameter>
													<parameter authoringApp="PremierePro">
														<parameterid>9</parameterid>
														<name>Anchor Point</name>
														<IsTimeVarying>false</IsTimeVarying>
														<value>-91445760000000000,0:0,0,0,0,0,0,0,5,4,0,0,0,0</value>
													</parameter>
													<parameter authoringApp="PremierePro">
														<parameterid>10</parameterid>
														<name></name>
														<IsTimeVarying>false</IsTimeVarying>
														<ParameterControlType>12</ParameterControlType>
														<LowerBound>false</LowerBound>
														<UpperBound>false</UpperBound>
														<value>-91445760000000000,false,0,0,0,0,0,0</value>
													</parameter>
													<parameter authoringApp="PremierePro">
														<parameterid>11</parameterid>
														<name> </name>
														<IsTimeVarying>false</IsTimeVarying>
														<ParameterControlType>8</ParameterControlType>
														<LowerBound>0</LowerBound>
														<UpperBound>32768</UpperBound>
														<value>-91445760000000000,0.,0,0,0,0,0,0</value>
													</parameter>
													<parameter authoringApp="PremierePro">
														<parameterid>12</parameterid>
														<name> </name>
														<IsTimeVarying>false</IsTimeVarying>
														<ParameterControlType>8</ParameterControlType>
														<LowerBound>0</LowerBound>
														<UpperBound>32768</UpperBound>
														<value>-91445760000000000,0.,0,0,0,0,0,0</value>
													</parameter>
													<parameter authoringApp="PremierePro">
														<parameterid>13</parameterid>
														<name>start</name>
														<IsTimeVarying>false</IsTimeVarying>
														<ParameterControlType>8</ParameterControlType>
														<LowerBound>-100</LowerBound>
														<UpperBound>1000000000</UpperBound>
														<value>-91445760000000000,0.,0,0,0,0,0,0</value>
													</parameter>
													<parameter authoringApp="PremierePro">
														<parameterid>14</parameterid>
														<name>end</name>
														<IsTimeVarying>false</IsTimeVarying>
														<ParameterControlType>8</ParameterControlType>
														<LowerBound>-100</LowerBound>
														<UpperBound>1000000000</UpperBound>
														<value>-91445760000000000,0.,0,0,0,0,0,0</value>
													</parameter>
													<parameter authoringApp="PremierePro">
														<parameterid>15</parameterid>
														<name> </name>
														<IsTimeVarying>false</IsTimeVarying>
														<ParameterControlType>4</ParameterControlType>
														<LowerBound>false</LowerBound>
														<UpperBound>true</UpperBound>
														<value>-91445760000000000,false,0,0,0,0,0,0</value>
													</parameter>
													<parameter authoringApp="PremierePro">
														<parameterid>16</parameterid>
														<name> </name>
														<IsTimeVarying>false</IsTimeVarying>
														<ParameterControlType>4</ParameterControlType>
														<LowerBound>false</LowerBound>
														<UpperBound>true</UpperBound>
														<value>-91445760000000000,false,0,0,0,0,0,0</value>
													</parameter>
													<parameter authoringApp="PremierePro">
														<parameterid>17</parameterid>
														<name> </name>
														<IsTimeVarying>false</IsTimeVarying>
														<ParameterControlType>4</ParameterControlType>
														<LowerBound>false</LowerBound>
														<UpperBound>true</UpperBound>
														<value>-91445760000000000,false,0,0,0,0,0,0</value>
													</parameter>
													<parameter authoringApp="PremierePro">
														<parameterid>18</parameterid>
														<name> </name>
														<IsTimeVarying>false</IsTimeVarying>
														<ParameterControlType>4</ParameterControlType>
														<LowerBound>false</LowerBound>
														<UpperBound>true</UpperBound>
														<value>-91445760000000000,false,0,0,0,0,0,0</value>
													</parameter>
													<parameter authoringApp="PremierePro">
														<parameterid>19</parameterid>
														<name>Parent Width</name>
														<IsTimeVarying>false</IsTimeVarying>
														<ParameterControlType>2</ParameterControlType>
														<LowerBound>0</LowerBound>
														<UpperBound>20000</UpperBound>
														<value>-91445760000000000,0.,0,0,0,0,0,0</value>
													</parameter>
													<parameter authoringApp="PremierePro">
														<parameterid>20</parameterid>
														<name>Parent Height</name>
														<IsTimeVarying>false</IsTimeVarying>
														<ParameterControlType>2</ParameterControlType>
														<LowerBound>0</LowerBound>
														<UpperBound>20000</UpperBound>
														<value>-91445760000000000,0.,0,0,0,0,0,0</value>
													</parameter>
													<parameter authoringApp="PremierePro">
														<parameterid>21</parameterid>
														<name>Parent Rotation</name>
														<IsTimeVarying>false</IsTimeVarying>
														<ParameterControlType>3</ParameterControlType>
														<LowerBound>-32768</LowerBound>
														<UpperBound>32767</UpperBound>
														<value>-91445760000000000,0.,0,0,0,0,0,0</value>
													</parameter>
												</effect>
											</filter>
											<logginginfo>
												<description></description>
												<scene></scene>
												<shottake></shottake>
												<lognote></lognote>
												<good></good>
												<originalvideofilename></originalvideofilename>
												<originalaudiofilename></originalaudiofilename>
											</logginginfo>
											<colorinfo>
												<lut></lut>
												<lut1></lut1>
												<asc_sop></asc_sop>
												<asc_sat></asc_sat>
												<lut2></lut2>
											</colorinfo>
										</clipitem>
										<enabled>TRUE</enabled>
										<locked>FALSE</locked>
									</track>
									<track TL.SQTrackShy="0" TL.SQTrackExpandedHeight="25" TL.SQTrackExpanded="0" MZ.TrackTargeted="0">
										<clipitem id="clipitem-664">
											<masterclipid>masterclip-291</masterclipid>
											<name>Nested Sequence 02</name>
											<enabled>TRUE</enabled>
											<duration>225</duration>
											<rate>
												<timebase>25</timebase>
												<ntsc>FALSE</ntsc>
											</rate>
											<start>128</start>
											<end>337</end>
											<in>0</in>
											<out>209</out>
											<pproTicksIn>0</pproTicksIn>
											<pproTicksOut>2123573760000</pproTicksOut>
											<sequence id="sequence-42"/>
											<filter>
												<effect>
													<name>Basic Motion</name>
													<effectid>basic</effectid>
													<effectcategory>motion</effectcategory>
													<effecttype>motion</effecttype>
													<mediatype>video</mediatype>
													<pproBypass>false</pproBypass>
													<parameter authoringApp="PremierePro">
														<parameterid>scale</parameterid>
														<name>Scale</name>
														<valuemin>0</valuemin>
														<valuemax>1000</valuemax>
														<value>100</value>
													</parameter>
													<parameter authoringApp="PremierePro">
														<parameterid>rotation</parameterid>
														<name>Rotation</name>
														<valuemin>-8640</valuemin>
														<valuemax>8640</valuemax>
														<value>0</value>
													</parameter>
													<parameter authoringApp="PremierePro">
														<parameterid>center</parameterid>
														<name>Center</name>
														<value>
															<horiz>-0.5</horiz>
															<vert>-0.5</vert>
														</value>
													</parameter>
													<parameter authoringApp="PremierePro">
														<parameterid>centerOffset</parameterid>
														<name>Anchor Point</name>
														<value>
															<horiz>0</horiz>
															<vert>0</vert>
														</value>
													</parameter>
													<parameter authoringApp="PremierePro">
														<parameterid>antiflicker</parameterid>
														<name>Anti-flicker Filter</name>
														<valuemin>0.0</valuemin>
														<valuemax>1.0</valuemax>
														<value>0</value>
													</parameter>
												</effect>
											</filter>
											<filter>
												<effect>
													<name>Opacity</name>
													<effectid>opacity</effectid>
													<effectcategory>motion</effectcategory>
													<effecttype>motion</effecttype>
													<mediatype>video</mediatype>
													<pproBypass>false</pproBypass>
													<parameter authoringApp="PremierePro">
														<parameterid>opacity</parameterid>
														<name>opacity</name>
														<valuemin>0</valuemin>
														<valuemax>100</valuemax>
														<value>100</value>
													</parameter>
												</effect>
											</filter>
											<labels>
												<label2>Forest</label2>
											</labels>
										</clipitem>
										<clipitem id="clipitem-665">
											<masterclipid>masterclip-291</masterclipid>
											<name>Nested Sequence 02</name>
											<enabled>TRUE</enabled>
											<duration>225</duration>
											<rate>
												<timebase>25</timebase>
												<ntsc>FALSE</ntsc>
											</rate>
											<start>337</start>
											<end>352</end>
											<in>210</in>
											<out>225</out>
											<pproTicksIn>2133734400000</pproTicksIn>
											<pproTicksOut>2286144000000</pproTicksOut>
											<sequence id="sequence-42"/>
											<filter>
												<effect>
													<name>Basic Motion</name>
													<effectid>basic</effectid>
													<effectcategory>motion</effectcategory>
													<effecttype>motion</effecttype>
													<mediatype>video</mediatype>
													<pproBypass>false</pproBypass>
													<parameter authoringApp="PremierePro">
														<parameterid>scale</parameterid>
														<name>Scale</name>
														<valuemin>0</valuemin>
														<valuemax>1000</valuemax>
														<value>100</value>
													</parameter>
													<parameter authoringApp="PremierePro">
														<parameterid>rotation</parameterid>
														<name>Rotation</name>
														<valuemin>-8640</valuemin>
														<valuemax>8640</valuemax>
														<value>0</value>
													</parameter>
													<parameter authoringApp="PremierePro">
														<parameterid>center</parameterid>
														<name>Center</name>
														<value>
															<horiz>-0.5</horiz>
															<vert>-0.5</vert>
														</value>
													</parameter>
													<parameter authoringApp="PremierePro">
														<parameterid>centerOffset</parameterid>
														<name>Anchor Point</name>
														<value>
															<horiz>0</horiz>
															<vert>0</vert>
														</value>
													</parameter>
													<parameter authoringApp="PremierePro">
														<parameterid>antiflicker</parameterid>
														<name>Anti-flicker Filter</name>
														<valuemin>0.0</valuemin>
														<valuemax>1.0</valuemax>
														<value>0</value>
													</parameter>
												</effect>
											</filter>
											<filter>
												<effect>
													<name>Opacity</name>
													<effectid>opacity</effectid>
													<effectcategory>motion</effectcategory>
													<effecttype>motion</effecttype>
													<mediatype>video</mediatype>
													<pproBypass>false</pproBypass>
													<parameter authoringApp="PremierePro">
														<parameterid>opacity</parameterid>
														<name>opacity</name>
														<valuemin>0</valuemin>
														<valuemax>100</valuemax>
														<value>100</value>
													</parameter>
												</effect>
											</filter>
											<labels>
												<label2>Forest</label2>
											</labels>
										</clipitem>
										<enabled>TRUE</enabled>
										<locked>FALSE</locked>
									</track>
									<track TL.SQTrackShy="0" TL.SQTrackExpandedHeight="25" TL.SQTrackExpanded="0" MZ.TrackTargeted="0">
										<transitionitem>
											<start>173</start>
											<end>230</end>
											<alignment>start-black</alignment>
											<cutPointTicks>0</cutPointTicks>
											<rate>
												<timebase>25</timebase>
												<ntsc>FALSE</ntsc>
											</rate>
											<effect>
												<name>Edge Wipe</name>
												<effectid>Edge Wipe</effectid>
												<effectcategory>Wipe</effectcategory>
												<effecttype>transition</effecttype>
												<mediatype>video</mediatype>
												<wipecode>2</wipecode>
												<wipeaccuracy>100</wipeaccuracy>
												<startratio>0</startratio>
												<endratio>1</endratio>
												<reverse>FALSE</reverse>
												<parameter authoringApp="PremierePro">
													<parameterid>directionofwipe</parameterid>
													<name>Angle</name>
													<valuemin>-360</valuemin>
													<valuemax>360</valuemax>
													<value>90</value>
												</parameter>
											</effect>
										</transitionitem>
										<clipitem id="clipitem-666">
											<masterclipid>masterclip-294</masterclipid>
											<name>9.png</name>
											<enabled>TRUE</enabled>
											<duration>1080000</duration>
											<rate>
												<timebase>25</timebase>
												<ntsc>FALSE</ntsc>
											</rate>
											<start>-1</start>
											<end>-1</end>
											<in>90048</in>
											<out>90225</out>
											<pproTicksIn>914945310720000</pproTicksIn>
											<pproTicksOut>916743744000000</pproTicksOut>
											<alphatype>straight</alphatype>
											<pixelaspectratio>square</pixelaspectratio>
											<anamorphic>FALSE</anamorphic>
											<file id="file-256">
												<name>10.png</name>
												<pathurl>file://localhost/_MUZ_TV/project_AP/RU/_TITLE/END/10.png</pathurl>
												<rate>
													<timebase>30</timebase>
													<ntsc>TRUE</ntsc>
												</rate>
												<timecode>
													<rate>
														<timebase>30</timebase>
														<ntsc>TRUE</ntsc>
													</rate>
													<string>00;00;00;00</string>
													<frame>0</frame>
													<displayformat>DF</displayformat>
												</timecode>
												<media>
													<video>
														<samplecharacteristics>
															<rate>
																<timebase>30</timebase>
																<ntsc>TRUE</ntsc>
															</rate>
															<width>1920</width>
															<height>1080</height>
															<anamorphic>FALSE</anamorphic>
															<pixelaspectratio>square</pixelaspectratio>
															<fielddominance>none</fielddominance>
														</samplecharacteristics>
													</video>
												</media>
											</file>
											<filter>
												<effect>
													<name>Basic Motion</name>
													<effectid>basic</effectid>
													<effectcategory>motion</effectcategory>
													<effecttype>motion</effecttype>
													<mediatype>video</mediatype>
													<pproBypass>false</pproBypass>
													<parameter authoringApp="PremierePro">
														<parameterid>scale</parameterid>
														<name>Scale</name>
														<valuemin>0</valuemin>
														<valuemax>1000</valuemax>
														<value>53.3333</value>
													</parameter>
													<parameter authoringApp="PremierePro">
														<parameterid>rotation</parameterid>
														<name>Rotation</name>
														<valuemin>-8640</valuemin>
														<valuemax>8640</valuemax>
														<value>0</value>
													</parameter>
													<parameter authoringApp="PremierePro">
														<parameterid>center</parameterid>
														<name>Center</name>
														<value>
															<horiz>0</horiz>
															<vert>0</vert>
														</value>
													</parameter>
													<parameter authoringApp="PremierePro">
														<parameterid>centerOffset</parameterid>
														<name>Anchor Point</name>
														<value>
															<horiz>0</horiz>
															<vert>0</vert>
														</value>
													</parameter>
													<parameter authoringApp="PremierePro">
														<parameterid>antiflicker</parameterid>
														<name>Anti-flicker Filter</name>
														<valuemin>0.0</valuemin>
														<valuemax>1.0</valuemax>
														<value>0</value>
													</parameter>
												</effect>
											</filter>
											<logginginfo>
												<description></description>
												<scene></scene>
												<shottake></shottake>
												<lognote></lognote>
												<good></good>
												<originalvideofilename></originalvideofilename>
												<originalaudiofilename></originalaudiofilename>
											</logginginfo>
											<colorinfo>
												<lut></lut>
												<lut1></lut1>
												<asc_sop></asc_sop>
												<asc_sat></asc_sat>
												<lut2></lut2>
											</colorinfo>
											<labels>
												<label2>Lavender</label2>
											</labels>
										</clipitem>
										<transitionitem>
											<start>328</start>
											<end>350</end>
											<alignment>end-black</alignment>
											<cutPointTicks>223534080000</cutPointTicks>
											<rate>
												<timebase>25</timebase>
												<ntsc>FALSE</ntsc>
											</rate>
											<effect>
												<name>Edge Wipe</name>
												<effectid>Edge Wipe</effectid>
												<effectcategory>Wipe</effectcategory>
												<effecttype>transition</effecttype>
												<mediatype>video</mediatype>
												<wipecode>2</wipecode>
												<wipeaccuracy>100</wipeaccuracy>
												<startratio>0</startratio>
												<endratio>1</endratio>
												<reverse>FALSE</reverse>
												<parameter authoringApp="PremierePro">
													<parameterid>directionofwipe</parameterid>
													<name>Angle</name>
													<valuemin>-360</valuemin>
													<valuemax>360</valuemax>
													<value>90</value>
												</parameter>
											</effect>
										</transitionitem>
										<enabled>TRUE</enabled>
										<locked>FALSE</locked>
									</track>
								</video>
								<audio>
									<numOutputChannels>2</numOutputChannels>
									<format>
										<samplecharacteristics>
											<depth>16</depth>
											<samplerate>48000</samplerate>
										</samplecharacteristics>
									</format>
									<outputs>
										<group>
											<index>1</index>
											<numchannels>1</numchannels>
											<downmix>0</downmix>
											<channel>
												<index>1</index>
											</channel>
										</group>
										<group>
											<index>2</index>
											<numchannels>1</numchannels>
											<downmix>0</downmix>
											<channel>
												<index>2</index>
											</channel>
										</group>
									</outputs>
									<track TL.SQTrackAudioKeyframeStyle="0" TL.SQTrackShy="0" TL.SQTrackExpandedHeight="25" TL.SQTrackExpanded="0" MZ.TrackTargeted="1" PannerCurrentValue="0.5" PannerStartKeyframe="-91445760000000000,0.5,0,0,0,0,0,0" PannerName="Balance" currentExplodedTrackIndex="0" totalExplodedTrackCount="2" premiereTrackType="Stereo">
										<enabled>TRUE</enabled>
										<locked>FALSE</locked>
										<outputchannelindex>1</outputchannelindex>
									</track>
									<track TL.SQTrackAudioKeyframeStyle="0" TL.SQTrackShy="0" TL.SQTrackExpandedHeight="25" TL.SQTrackExpanded="0" MZ.TrackTargeted="1" PannerCurrentValue="0.5" PannerStartKeyframe="-91445760000000000,0.5,0,0,0,0,0,0" PannerName="Balance" currentExplodedTrackIndex="1" totalExplodedTrackCount="2" premiereTrackType="Stereo">
										<enabled>TRUE</enabled>
										<locked>FALSE</locked>
										<outputchannelindex>2</outputchannelindex>
									</track>
								</audio>
							</media>
							<timecode>
								<rate>
									<timebase>25</timebase>
									<ntsc>FALSE</ntsc>
								</rate>
								<string>00:00:00:00</string>
								<frame>0</frame>
								<displayformat>NDF</displayformat>
							</timecode>
								<marker>
									<comment></comment>
									<name></name>
									<in>125</in>
									<out>-1</out>
									<pproColor>4280578025</pproColor>
								</marker>
							<logginginfo>
								<description></description>
								<scene></scene>
								<shottake></shottake>
								<lognote></lognote>
								<good></good>
								<originalvideofilename></originalvideofilename>
								<originalaudiofilename></originalaudiofilename>
							</logginginfo>
						</sequence>
							<marker>
								<comment></comment>
								<name></name>
								<in>125</in>
								<out>-1</out>
								<pproColor>4280578025</pproColor>
							</marker>
						<labels>
							<label2>Forest</label2>
						</labels>
					</clipitem>
					<clipitem id="clipitem-667">
						<masterclipid>masterclip-290</masterclipid>
						<name>10</name>
						<enabled>TRUE</enabled>
						<duration>475</duration>
						<rate>
							<timebase>25</timebase>
							<ntsc>FALSE</ntsc>
						</rate>
						<start>17170</start>
						<end>17521</end>
						<in>124</in>
						<out>475</out>
						<pproTicksIn>1259919360000</pproTicksIn>
						<pproTicksOut>4826304000000</pproTicksOut>
						<sequence id="sequence-41"/>
							<marker>
								<comment></comment>
								<name></name>
								<in>125</in>
								<out>-1</out>
								<pproColor>4280578025</pproColor>
							</marker>
						<labels>
							<label2>Forest</label2>
						</labels>
					</clipitem>
					<clipitem id="clipitem-668">
						<masterclipid>masterclip-295</masterclipid>
						<name>9_TITLE</name>
						<enabled>TRUE</enabled>
						<duration>475</duration>
						<rate>
							<timebase>25</timebase>
							<ntsc>FALSE</ntsc>
						</rate>
						<start>18818</start>
						<end>19168</end>
						<in>0</in>
						<out>475</out>
						<pproTicksIn>0</pproTicksIn>
						<pproTicksOut>4826304000000</pproTicksOut>
						<sequence id="sequence-43" TL.SQAudioVisibleBase="0" TL.SQVideoVisibleBase="0" TL.SQVisibleBaseTime="0" TL.SQAVDividerPosition="0.5" TL.SQHideShyTracks="0" TL.SQHeaderWidth="236" TL.SQDataTrackViewControlState="0" Monitor.ProgramZoomOut="4826304000000" Monitor.ProgramZoomIn="0" TL.SQTimePerPixel="0.024999999999999998" AM.TrackVScrollPosition="0" AM.TrackScrollPosition="0" MZ.EditLine="2336947200000" MZ.Sequence.PreviewFrameSizeHeight="576" MZ.Sequence.PreviewFrameSizeWidth="720" MZ.Sequence.AudioTimeDisplayFormat="200" MZ.Sequence.PreviewRenderingClassID="1061109567" MZ.Sequence.PreviewRenderingPresetCodec="1685480304" MZ.Sequence.PreviewRenderingPresetPath="EncoderPresets/SequencePreview/04be6e19-a018-4e0c-a9d6-0ab44c64752b/QuickTime DV PAL.epr" MZ.Sequence.PreviewUseMaxRenderQuality="false" MZ.Sequence.PreviewUseMaxBitDepth="false" MZ.Sequence.EditingModeGUID="04be6e19-a018-4e0c-a9d6-0ab44c64752b" MZ.Sequence.VideoTimeDisplayFormat="101" MZ.WorkOutPoint="4826304000000" MZ.WorkInPoint="0" MZ.ZeroPoint="0">
							<duration>475</duration>
							<rate>
								<timebase>25</timebase>
								<ntsc>FALSE</ntsc>
							</rate>
							<name>титр</name>
							<media>
								<video>
									<format>
										<samplecharacteristics>
											<rate>
												<timebase>25</timebase>
												<ntsc>FALSE</ntsc>
											</rate>
											<codec>
												<name>Apple ProRes 422</name>
												<appspecificdata>
													<appname>Final Cut Pro</appname>
													<appmanufacturer>Apple Inc.</appmanufacturer>
													<appversion>7.0</appversion>
													<data>
														<qtcodec>
															<codecname>Apple ProRes 422</codecname>
															<codectypename>Apple ProRes 422</codectypename>
															<codectypecode>apcn</codectypecode>
															<codecvendorcode>appl</codecvendorcode>
															<spatialquality>1024</spatialquality>
															<temporalquality>0</temporalquality>
															<keyframerate>0</keyframerate>
															<datarate>0</datarate>
														</qtcodec>
													</data>
												</appspecificdata>
											</codec>
											<width>720</width>
											<height>576</height>
											<anamorphic>TRUE</anamorphic>
											<pixelaspectratio>PAL-601</pixelaspectratio>
											<fielddominance>lower</fielddominance>
											<colordepth>24</colordepth>
										</samplecharacteristics>
									</format>
									<track TL.SQTrackShy="0" TL.SQTrackExpandedHeight="25" TL.SQTrackExpanded="0" MZ.TrackTargeted="1">
										<clipitem id="clipitem-669">
											<masterclipid>masterclip-296</masterclipid>
											<name>9_title.mov</name>
											<enabled>TRUE</enabled>
											<duration>225</duration>
											<rate>
												<timebase>25</timebase>
												<ntsc>FALSE</ntsc>
											</rate>
											<start>125</start>
											<end>350</end>
											<in>0</in>
											<out>225</out>
											<pproTicksIn>0</pproTicksIn>
											<pproTicksOut>2286144000000</pproTicksOut>
											<alphatype>straight</alphatype>
											<pixelaspectratio>square</pixelaspectratio>
											<anamorphic>FALSE</anamorphic>
											<file id="file-257">
												<name>7_title.mov</name>
												<pathurl>file://localhost/_MUZ_TV/graphika/RU-21/MOD/title_plashka/7_title.mov</pathurl>
												<rate>
													<timebase>25</timebase>
													<ntsc>FALSE</ntsc>
												</rate>
												<duration>225</duration>
												<timecode>
													<rate>
														<timebase>25</timebase>
														<ntsc>FALSE</ntsc>
													</rate>
													<string>00:00:27:00</string>
													<frame>675</frame>
													<displayformat>NDF</displayformat>
												</timecode>
												<media>
													<video>
														<samplecharacteristics>
															<rate>
																<timebase>25</timebase>
																<ntsc>FALSE</ntsc>
															</rate>
															<width>1920</width>
															<height>1080</height>
															<anamorphic>FALSE</anamorphic>
															<pixelaspectratio>square</pixelaspectratio>
															<fielddominance>none</fielddominance>
														</samplecharacteristics>
													</video>
												</media>
											</file>
											<filter>
												<effect>
													<name>Basic Motion</name>
													<effectid>basic</effectid>
													<effectcategory>motion</effectcategory>
													<effecttype>motion</effecttype>
													<mediatype>video</mediatype>
													<pproBypass>false</pproBypass>
													<parameter authoringApp="PremierePro">
														<parameterid>scale</parameterid>
														<name>Scale</name>
														<valuemin>0</valuemin>
														<valuemax>1000</valuemax>
														<value>55</value>
													</parameter>
													<parameter authoringApp="PremierePro">
														<parameterid>rotation</parameterid>
														<name>Rotation</name>
														<valuemin>-8640</valuemin>
														<valuemax>8640</valuemax>
														<value>0</value>
													</parameter>
													<parameter authoringApp="PremierePro">
														<parameterid>center</parameterid>
														<name>Center</name>
														<value>
															<horiz>0</horiz>
															<vert>0</vert>
														</value>
													</parameter>
													<parameter authoringApp="PremierePro">
														<parameterid>centerOffset</parameterid>
														<name>Anchor Point</name>
														<value>
															<horiz>0</horiz>
															<vert>0</vert>
														</value>
													</parameter>
													<parameter authoringApp="PremierePro">
														<parameterid>antiflicker</parameterid>
														<name>Anti-flicker Filter</name>
														<valuemin>0.0</valuemin>
														<valuemax>1.0</valuemax>
														<value>0</value>
													</parameter>
												</effect>
											</filter>
											<filter>
												<effect>
													<name>Distort</name>
													<effectid>deformation</effectid>
													<effectcategory>motion</effectcategory>
													<effecttype>motion</effecttype>
													<mediatype>video</mediatype>
													<parameter authoringApp="PremierePro">
														<parameterid>aspect</parameterid>
														<name>Aspect</name>
														<valuemin>-10000</valuemin>
														<valuemax>10000</valuemax>
														<value>-3.12506</value>
													</parameter>
												</effect>
											</filter>
											<logginginfo>
												<description></description>
												<scene></scene>
												<shottake></shottake>
												<lognote></lognote>
												<good></good>
												<originalvideofilename></originalvideofilename>
												<originalaudiofilename></originalaudiofilename>
											</logginginfo>
											<colorinfo>
												<lut></lut>
												<lut1></lut1>
												<asc_sop></asc_sop>
												<asc_sat></asc_sat>
												<lut2></lut2>
											</colorinfo>
											<labels>
												<label2>Violet</label2>
											</labels>
										</clipitem>
										<clipitem id="clipitem-670">
											<masterclipid>masterclip-297</masterclipid>
											<name>Graphic</name>
											<enabled>FALSE</enabled>
											<duration>1080000</duration>
											<rate>
												<timebase>25</timebase>
												<ntsc>FALSE</ntsc>
											</rate>
											<start>350</start>
											<end>475</end>
											<in>90000</in>
											<out>90125</out>
											<pproTicksIn>914457600000000</pproTicksIn>
											<pproTicksOut>915727680000000</pproTicksOut>
											<alphatype>straight</alphatype>
											<pixelaspectratio>PAL-601</pixelaspectratio>
											<anamorphic>TRUE</anamorphic>
											<file id="file-258">
												<name>Graphic</name>
												<mediaSource>GraphicAndType</mediaSource>
												<rate>
													<timebase>30</timebase>
													<ntsc>TRUE</ntsc>
												</rate>
												<timecode>
													<rate>
														<timebase>30</timebase>
														<ntsc>TRUE</ntsc>
													</rate>
													<string>00;00;00;00</string>
													<frame>0</frame>
													<displayformat>DF</displayformat>
												</timecode>
												<media>
													<video>
														<samplecharacteristics>
															<rate>
																<timebase>30</timebase>
																<ntsc>TRUE</ntsc>
															</rate>
															<width>720</width>
															<height>576</height>
															<anamorphic>TRUE</anamorphic>
															<pixelaspectratio>PAL-601</pixelaspectratio>
															<fielddominance>none</fielddominance>
														</samplecharacteristics>
													</video>
												</media>
											</file>
											<filter>
												<effect>
													<name>Basic Motion</name>
													<effectid>basic</effectid>
													<effectcategory>motion</effectcategory>
													<effecttype>motion</effecttype>
													<mediatype>video</mediatype>
													<pproBypass>false</pproBypass>
													<parameter authoringApp="PremierePro">
														<parameterid>scale</parameterid>
														<name>Scale</name>
														<valuemin>0</valuemin>
														<valuemax>1000</valuemax>
														<value>133.333</value>
													</parameter>
													<parameter authoringApp="PremierePro">
														<parameterid>rotation</parameterid>
														<name>Rotation</name>
														<valuemin>-8640</valuemin>
														<valuemax>8640</valuemax>
														<value>0</value>
													</parameter>
													<parameter authoringApp="PremierePro">
														<parameterid>center</parameterid>
														<name>Center</name>
														<value>
															<horiz>0</horiz>
															<vert>0</vert>
														</value>
													</parameter>
													<parameter authoringApp="PremierePro">
														<parameterid>centerOffset</parameterid>
														<name>Anchor Point</name>
														<value>
															<horiz>0</horiz>
															<vert>0</vert>
														</value>
													</parameter>
													<parameter authoringApp="PremierePro">
														<parameterid>antiflicker</parameterid>
														<name>Anti-flicker Filter</name>
														<valuemin>0.0</valuemin>
														<valuemax>1.0</valuemax>
														<value>0</value>
													</parameter>
												</effect>
											</filter>
											<filter>
												<effect>
													<name>Distort</name>
													<effectid>deformation</effectid>
													<effectcategory>motion</effectcategory>
													<effecttype>motion</effecttype>
													<mediatype>video</mediatype>
													<parameter authoringApp="PremierePro">
														<parameterid>aspect</parameterid>
														<name>Aspect</name>
														<valuemin>-10000</valuemin>
														<valuemax>10000</valuemax>
														<value>-33.333</value>
													</parameter>
												</effect>
											</filter>
											<filter>
												<effect>
													<name></name>
													<effectid>GraphicAndType</effectid>
													<effectcategory>graphic</effectcategory>
													<effecttype>filter</effecttype>
													<mediatype>video</mediatype>
													<pproBypass>false</pproBypass>
													<parameter authoringApp="PremierePro">
														<parameterid>1</parameterid>
														<name>Source Text</name>
														<hash>3f0faa81-c1b0-8370-b66c-fa0b000009f1</hash>
													</parameter>
													<parameter authoringApp="PremierePro">
														<parameterid>2</parameterid>
														<name>Transform</name>
														<IsTimeVarying>false</IsTimeVarying>
														<ParameterControlType>11</ParameterControlType>
														<LowerBound>false</LowerBound>
														<UpperBound>false</UpperBound>
														<value>-91445760000000000,false,0,0,0,0,0,0</value>
													</parameter>
													<parameter authoringApp="PremierePro">
														<parameterid>3</parameterid>
														<name>Position</name>
														<IsTimeVarying>false</IsTimeVarying>
														<value>-91445760000000000,0.55605381727218628:0.73039215803146362,0,0,0,0,0,0,5,4,0,0,0,0</value>
													</parameter>
													<parameter authoringApp="PremierePro">
														<parameterid>4</parameterid>
														<name>Scale</name>
														<IsTimeVarying>false</IsTimeVarying>
														<ParameterControlType>2</ParameterControlType>
														<LowerBound>0</LowerBound>
														<UpperBound>4000</UpperBound>
														<value>-91445760000000000,100.,0,0,0,0,0,0</value>
													</parameter>
													<parameter authoringApp="PremierePro">
														<parameterid>5</parameterid>
														<name>Horizontal Scale</name>
														<IsTimeVarying>false</IsTimeVarying>
														<ParameterControlType>2</ParameterControlType>
														<LowerBound>0</LowerBound>
														<UpperBound>4000</UpperBound>
														<value>-91445760000000000,100.,0,0,0,0,0,0</value>
													</parameter>
													<parameter authoringApp="PremierePro">
														<parameterid>6</parameterid>
														<name> </name>
														<IsTimeVarying>false</IsTimeVarying>
														<ParameterControlType>4</ParameterControlType>
														<LowerBound>false</LowerBound>
														<UpperBound>true</UpperBound>
														<value>-91445760000000000,true,0,0,0,0,0,0</value>
													</parameter>
													<parameter authoringApp="PremierePro">
														<parameterid>7</parameterid>
														<name>Rotation</name>
														<IsTimeVarying>false</IsTimeVarying>
														<ParameterControlType>3</ParameterControlType>
														<LowerBound>-32768</LowerBound>
														<UpperBound>32767</UpperBound>
														<value>-91445760000000000,0.,0,0,0,0,0,0</value>
													</parameter>
													<parameter authoringApp="PremierePro">
														<parameterid>8</parameterid>
														<name>Opacity</name>
														<IsTimeVarying>false</IsTimeVarying>
														<ParameterControlType>2</ParameterControlType>
														<LowerBound>0</LowerBound>
														<UpperBound>100</UpperBound>
														<value>-91445760000000000,100.,0,0,0,0,0,0</value>
													</parameter>
													<parameter authoringApp="PremierePro">
														<parameterid>9</parameterid>
														<name>Anchor Point</name>
														<IsTimeVarying>false</IsTimeVarying>
														<value>-91445760000000000,0:0,0,0,0,0,0,0,5,4,0,0,0,0</value>
													</parameter>
													<parameter authoringApp="PremierePro">
														<parameterid>10</parameterid>
														<name></name>
														<IsTimeVarying>false</IsTimeVarying>
														<ParameterControlType>12</ParameterControlType>
														<LowerBound>false</LowerBound>
														<UpperBound>false</UpperBound>
														<value>-91445760000000000,false,0,0,0,0,0,0</value>
													</parameter>
													<parameter authoringApp="PremierePro">
														<parameterid>11</parameterid>
														<name> </name>
														<IsTimeVarying>false</IsTimeVarying>
														<ParameterControlType>8</ParameterControlType>
														<LowerBound>0</LowerBound>
														<UpperBound>32768</UpperBound>
														<value>-91445760000000000,0.,0,0,0,0,0,0</value>
													</parameter>
													<parameter authoringApp="PremierePro">
														<parameterid>12</parameterid>
														<name> </name>
														<IsTimeVarying>false</IsTimeVarying>
														<ParameterControlType>8</ParameterControlType>
														<LowerBound>0</LowerBound>
														<UpperBound>32768</UpperBound>
														<value>-91445760000000000,0.,0,0,0,0,0,0</value>
													</parameter>
													<parameter authoringApp="PremierePro">
														<parameterid>13</parameterid>
														<name>start</name>
														<IsTimeVarying>false</IsTimeVarying>
														<ParameterControlType>8</ParameterControlType>
														<LowerBound>-100</LowerBound>
														<UpperBound>1000000000</UpperBound>
														<value>-91445760000000000,0.,0,0,0,0,0,0</value>
													</parameter>
													<parameter authoringApp="PremierePro">
														<parameterid>14</parameterid>
														<name>end</name>
														<IsTimeVarying>false</IsTimeVarying>
														<ParameterControlType>8</ParameterControlType>
														<LowerBound>-100</LowerBound>
														<UpperBound>1000000000</UpperBound>
														<value>-91445760000000000,0.,0,0,0,0,0,0</value>
													</parameter>
													<parameter authoringApp="PremierePro">
														<parameterid>15</parameterid>
														<name> </name>
														<IsTimeVarying>false</IsTimeVarying>
														<ParameterControlType>4</ParameterControlType>
														<LowerBound>false</LowerBound>
														<UpperBound>true</UpperBound>
														<value>-91445760000000000,false,0,0,0,0,0,0</value>
													</parameter>
													<parameter authoringApp="PremierePro">
														<parameterid>16</parameterid>
														<name> </name>
														<IsTimeVarying>false</IsTimeVarying>
														<ParameterControlType>4</ParameterControlType>
														<LowerBound>false</LowerBound>
														<UpperBound>true</UpperBound>
														<value>-91445760000000000,false,0,0,0,0,0,0</value>
													</parameter>
													<parameter authoringApp="PremierePro">
														<parameterid>17</parameterid>
														<name> </name>
														<IsTimeVarying>false</IsTimeVarying>
														<ParameterControlType>4</ParameterControlType>
														<LowerBound>false</LowerBound>
														<UpperBound>true</UpperBound>
														<value>-91445760000000000,false,0,0,0,0,0,0</value>
													</parameter>
													<parameter authoringApp="PremierePro">
														<parameterid>18</parameterid>
														<name> </name>
														<IsTimeVarying>false</IsTimeVarying>
														<ParameterControlType>4</ParameterControlType>
														<LowerBound>false</LowerBound>
														<UpperBound>true</UpperBound>
														<value>-91445760000000000,false,0,0,0,0,0,0</value>
													</parameter>
													<parameter authoringApp="PremierePro">
														<parameterid>19</parameterid>
														<name>Parent Width</name>
														<IsTimeVarying>false</IsTimeVarying>
														<ParameterControlType>2</ParameterControlType>
														<LowerBound>0</LowerBound>
														<UpperBound>20000</UpperBound>
														<value>-91445760000000000,0.,0,0,0,0,0,0</value>
													</parameter>
													<parameter authoringApp="PremierePro">
														<parameterid>20</parameterid>
														<name>Parent Height</name>
														<IsTimeVarying>false</IsTimeVarying>
														<ParameterControlType>2</ParameterControlType>
														<LowerBound>0</LowerBound>
														<UpperBound>20000</UpperBound>
														<value>-91445760000000000,0.,0,0,0,0,0,0</value>
													</parameter>
													<parameter authoringApp="PremierePro">
														<parameterid>21</parameterid>
														<name>Parent Rotation</name>
														<IsTimeVarying>false</IsTimeVarying>
														<ParameterControlType>3</ParameterControlType>
														<LowerBound>-32768</LowerBound>
														<UpperBound>32767</UpperBound>
														<value>-91445760000000000,0.,0,0,0,0,0,0</value>
													</parameter>
												</effect>
											</filter>
											<logginginfo>
												<description></description>
												<scene></scene>
												<shottake></shottake>
												<lognote></lognote>
												<good></good>
												<originalvideofilename></originalvideofilename>
												<originalaudiofilename></originalaudiofilename>
											</logginginfo>
											<colorinfo>
												<lut></lut>
												<lut1></lut1>
												<asc_sop></asc_sop>
												<asc_sat></asc_sat>
												<lut2></lut2>
											</colorinfo>
										</clipitem>
										<enabled>TRUE</enabled>
										<locked>FALSE</locked>
									</track>
									<track TL.SQTrackShy="0" TL.SQTrackExpandedHeight="25" TL.SQTrackExpanded="0" MZ.TrackTargeted="0">
										<transitionitem>
											<start>167</start>
											<end>224</end>
											<alignment>start-black</alignment>
											<cutPointTicks>0</cutPointTicks>
											<rate>
												<timebase>25</timebase>
												<ntsc>FALSE</ntsc>
											</rate>
											<effect>
												<name>Edge Wipe</name>
												<effectid>Edge Wipe</effectid>
												<effectcategory>Wipe</effectcategory>
												<effecttype>transition</effecttype>
												<mediatype>video</mediatype>
												<wipecode>2</wipecode>
												<wipeaccuracy>100</wipeaccuracy>
												<startratio>0</startratio>
												<endratio>1</endratio>
												<reverse>FALSE</reverse>
												<parameter authoringApp="PremierePro">
													<parameterid>directionofwipe</parameterid>
													<name>Angle</name>
													<valuemin>-360</valuemin>
													<valuemax>360</valuemax>
													<value>90</value>
												</parameter>
											</effect>
										</transitionitem>
										<clipitem id="clipitem-671">
											<masterclipid>masterclip-298</masterclipid>
											<name>9.png</name>
											<enabled>TRUE</enabled>
											<duration>1080000</duration>
											<rate>
												<timebase>25</timebase>
												<ntsc>FALSE</ntsc>
											</rate>
											<start>-1</start>
											<end>-1</end>
											<in>90042</in>
											<out>90225</out>
											<pproTicksIn>914884346880000</pproTicksIn>
											<pproTicksOut>916743744000000</pproTicksOut>
											<alphatype>straight</alphatype>
											<pixelaspectratio>square</pixelaspectratio>
											<anamorphic>FALSE</anamorphic>
											<file id="file-259">
												<name>9.png</name>
												<pathurl>file://localhost/_MUZ_TV/project_AP/RU/_TITLE/END/9.png</pathurl>
												<rate>
													<timebase>30</timebase>
													<ntsc>TRUE</ntsc>
												</rate>
												<timecode>
													<rate>
														<timebase>30</timebase>
														<ntsc>TRUE</ntsc>
													</rate>
													<string>00;00;00;00</string>
													<frame>0</frame>
													<displayformat>DF</displayformat>
												</timecode>
												<media>
													<video>
														<samplecharacteristics>
															<rate>
																<timebase>30</timebase>
																<ntsc>TRUE</ntsc>
															</rate>
															<width>1920</width>
															<height>1080</height>
															<anamorphic>FALSE</anamorphic>
															<pixelaspectratio>square</pixelaspectratio>
															<fielddominance>none</fielddominance>
														</samplecharacteristics>
													</video>
												</media>
											</file>
											<filter>
												<effect>
													<name>Basic Motion</name>
													<effectid>basic</effectid>
													<effectcategory>motion</effectcategory>
													<effecttype>motion</effecttype>
													<mediatype>video</mediatype>
													<pproBypass>false</pproBypass>
													<parameter authoringApp="PremierePro">
														<parameterid>scale</parameterid>
														<name>Scale</name>
														<valuemin>0</valuemin>
														<valuemax>1000</valuemax>
														<value>53.3333</value>
													</parameter>
													<parameter authoringApp="PremierePro">
														<parameterid>rotation</parameterid>
														<name>Rotation</name>
														<valuemin>-8640</valuemin>
														<valuemax>8640</valuemax>
														<value>0</value>
													</parameter>
													<parameter authoringApp="PremierePro">
														<parameterid>center</parameterid>
														<name>Center</name>
														<value>
															<horiz>0</horiz>
															<vert>0</vert>
														</value>
													</parameter>
													<parameter authoringApp="PremierePro">
														<parameterid>centerOffset</parameterid>
														<name>Anchor Point</name>
														<value>
															<horiz>0</horiz>
															<vert>0</vert>
														</value>
													</parameter>
													<parameter authoringApp="PremierePro">
														<parameterid>antiflicker</parameterid>
														<name>Anti-flicker Filter</name>
														<valuemin>0.0</valuemin>
														<valuemax>1.0</valuemax>
														<value>0</value>
													</parameter>
												</effect>
											</filter>
											<logginginfo>
												<description></description>
												<scene></scene>
												<shottake></shottake>
												<lognote></lognote>
												<good></good>
												<originalvideofilename></originalvideofilename>
												<originalaudiofilename></originalaudiofilename>
											</logginginfo>
											<colorinfo>
												<lut></lut>
												<lut1></lut1>
												<asc_sop></asc_sop>
												<asc_sat></asc_sat>
												<lut2></lut2>
											</colorinfo>
											<labels>
												<label2>Lavender</label2>
											</labels>
										</clipitem>
										<transitionitem>
											<start>328</start>
											<end>350</end>
											<alignment>end-black</alignment>
											<cutPointTicks>223534080000</cutPointTicks>
											<rate>
												<timebase>25</timebase>
												<ntsc>FALSE</ntsc>
											</rate>
											<effect>
												<name>Edge Wipe</name>
												<effectid>Edge Wipe</effectid>
												<effectcategory>Wipe</effectcategory>
												<effecttype>transition</effecttype>
												<mediatype>video</mediatype>
												<wipecode>2</wipecode>
												<wipeaccuracy>100</wipeaccuracy>
												<startratio>0</startratio>
												<endratio>1</endratio>
												<reverse>FALSE</reverse>
												<parameter authoringApp="PremierePro">
													<parameterid>directionofwipe</parameterid>
													<name>Angle</name>
													<valuemin>-360</valuemin>
													<valuemax>360</valuemax>
													<value>90</value>
												</parameter>
											</effect>
										</transitionitem>
										<enabled>TRUE</enabled>
										<locked>FALSE</locked>
									</track>
									<track TL.SQTrackShy="0" TL.SQTrackExpandedHeight="25" TL.SQTrackExpanded="0" MZ.TrackTargeted="0">
										<transitionitem>
											<start>167</start>
											<end>224</end>
											<alignment>start-black</alignment>
											<cutPointTicks>0</cutPointTicks>
											<rate>
												<timebase>25</timebase>
												<ntsc>FALSE</ntsc>
											</rate>
											<effect>
												<name>Edge Wipe</name>
												<effectid>Edge Wipe</effectid>
												<effectcategory>Wipe</effectcategory>
												<effecttype>transition</effecttype>
												<mediatype>video</mediatype>
												<wipecode>2</wipecode>
												<wipeaccuracy>100</wipeaccuracy>
												<startratio>0</startratio>
												<endratio>1</endratio>
												<reverse>FALSE</reverse>
												<parameter authoringApp="PremierePro">
													<parameterid>directionofwipe</parameterid>
													<name>Angle</name>
													<valuemin>-360</valuemin>
													<valuemax>360</valuemax>
													<value>90</value>
												</parameter>
											</effect>
										</transitionitem>
										<clipitem id="clipitem-672">
											<masterclipid>masterclip-299</masterclipid>
											<name>Graphic</name>
											<enabled>FALSE</enabled>
											<duration>1080000</duration>
											<rate>
												<timebase>25</timebase>
												<ntsc>FALSE</ntsc>
											</rate>
											<start>-1</start>
											<end>-1</end>
											<in>89998</in>
											<out>90181</out>
											<pproTicksIn>914437278720000</pproTicksIn>
											<pproTicksOut>916296675840000</pproTicksOut>
											<alphatype>straight</alphatype>
											<pixelaspectratio>PAL-601</pixelaspectratio>
											<anamorphic>TRUE</anamorphic>
											<file id="file-260">
												<name>Graphic</name>
												<mediaSource>GraphicAndType</mediaSource>
												<rate>
													<timebase>30</timebase>
													<ntsc>TRUE</ntsc>
												</rate>
												<timecode>
													<rate>
														<timebase>30</timebase>
														<ntsc>TRUE</ntsc>
													</rate>
													<string>00;00;00;00</string>
													<frame>0</frame>
													<displayformat>DF</displayformat>
												</timecode>
												<media>
													<video>
														<samplecharacteristics>
															<rate>
																<timebase>30</timebase>
																<ntsc>TRUE</ntsc>
															</rate>
															<width>720</width>
															<height>576</height>
															<anamorphic>TRUE</anamorphic>
															<pixelaspectratio>PAL-601</pixelaspectratio>
															<fielddominance>none</fielddominance>
														</samplecharacteristics>
													</video>
												</media>
											</file>
											<filter>
												<effect>
													<name>АРТУР ПИРОЖКОВ&#13;ЛЕТОМ НА ФИЕСТЕ</name>
													<effectid>GraphicAndType</effectid>
													<effectcategory>graphic</effectcategory>
													<effecttype>filter</effecttype>
													<mediatype>video</mediatype>
													<pproBypass>false</pproBypass>
													<pproExpanded>true</pproExpanded>
													<parameter authoringApp="PremierePro">
														<parameterid>1</parameterid>
														<name>Source Text</name>
														<hash>dc092258-f6b9-fd91-a76f-c3e700000476</hash>
													</parameter>
													<parameter authoringApp="PremierePro">
														<parameterid>2</parameterid>
														<name>Transform</name>
														<IsTimeVarying>false</IsTimeVarying>
														<ParameterControlType>11</ParameterControlType>
														<LowerBound>false</LowerBound>
														<UpperBound>false</UpperBound>
														<value>-91445760000000000,false,0,0,0,0,0,0</value>
													</parameter>
													<parameter authoringApp="PremierePro">
														<parameterid>3</parameterid>
														<name>Position</name>
														<IsTimeVarying>false</IsTimeVarying>
														<value>-91445760000000000,0.36944580078125:0.86468505859375,0,0,0,0,0,0,5,4,0,0,0,0</value>
													</parameter>
													<parameter authoringApp="PremierePro">
														<parameterid>4</parameterid>
														<name>Scale</name>
														<IsTimeVarying>false</IsTimeVarying>
														<ParameterControlType>2</ParameterControlType>
														<LowerBound>0</LowerBound>
														<UpperBound>4000</UpperBound>
														<value>-91445760000000000,100.,0,0,0,0,0,0</value>
													</parameter>
													<parameter authoringApp="PremierePro">
														<parameterid>5</parameterid>
														<name>Horizontal Scale</name>
														<IsTimeVarying>false</IsTimeVarying>
														<ParameterControlType>2</ParameterControlType>
														<LowerBound>0</LowerBound>
														<UpperBound>4000</UpperBound>
														<value>-91445760000000000,100.,0,0,0,0,0,0</value>
													</parameter>
													<parameter authoringApp="PremierePro">
														<parameterid>6</parameterid>
														<name> </name>
														<IsTimeVarying>false</IsTimeVarying>
														<ParameterControlType>4</ParameterControlType>
														<LowerBound>false</LowerBound>
														<UpperBound>true</UpperBound>
														<value>-91445760000000000,true,0,0,0,0,0,0</value>
													</parameter>
													<parameter authoringApp="PremierePro">
														<parameterid>7</parameterid>
														<name>Rotation</name>
														<IsTimeVarying>false</IsTimeVarying>
														<ParameterControlType>3</ParameterControlType>
														<LowerBound>-32768</LowerBound>
														<UpperBound>32767</UpperBound>
														<value>-91445760000000000,0.,0,0,0,0,0,0</value>
													</parameter>
													<parameter authoringApp="PremierePro">
														<parameterid>8</parameterid>
														<name>Opacity</name>
														<IsTimeVarying>false</IsTimeVarying>
														<ParameterControlType>2</ParameterControlType>
														<LowerBound>0</LowerBound>
														<UpperBound>100</UpperBound>
														<value>-91445760000000000,100.,0,0,0,0,0,0</value>
													</parameter>
													<parameter authoringApp="PremierePro">
														<parameterid>9</parameterid>
														<name>Anchor Point</name>
														<IsTimeVarying>false</IsTimeVarying>
														<value>-91445760000000000,0:0,0,0,0,0,0,0,5,4,0,0,0,0</value>
													</parameter>
													<parameter authoringApp="PremierePro">
														<parameterid>10</parameterid>
														<name></name>
														<IsTimeVarying>false</IsTimeVarying>
														<ParameterControlType>12</ParameterControlType>
														<LowerBound>false</LowerBound>
														<UpperBound>false</UpperBound>
														<value>-91445760000000000,false,0,0,0,0,0,0</value>
													</parameter>
													<parameter authoringApp="PremierePro">
														<parameterid>11</parameterid>
														<name> </name>
														<IsTimeVarying>false</IsTimeVarying>
														<ParameterControlType>8</ParameterControlType>
														<LowerBound>0</LowerBound>
														<UpperBound>32768</UpperBound>
														<value>-91445760000000000,0.,0,0,0,0,0,0</value>
													</parameter>
													<parameter authoringApp="PremierePro">
														<parameterid>12</parameterid>
														<name> </name>
														<IsTimeVarying>false</IsTimeVarying>
														<ParameterControlType>8</ParameterControlType>
														<LowerBound>0</LowerBound>
														<UpperBound>32768</UpperBound>
														<value>-91445760000000000,0.,0,0,0,0,0,0</value>
													</parameter>
													<parameter authoringApp="PremierePro">
														<parameterid>13</parameterid>
														<name>start</name>
														<IsTimeVarying>false</IsTimeVarying>
														<ParameterControlType>8</ParameterControlType>
														<LowerBound>-100</LowerBound>
														<UpperBound>1000000000</UpperBound>
														<value>-91445760000000000,30.,0,0,0,0,0,0</value>
													</parameter>
													<parameter authoringApp="PremierePro">
														<parameterid>14</parameterid>
														<name>end</name>
														<IsTimeVarying>false</IsTimeVarying>
														<ParameterControlType>8</ParameterControlType>
														<LowerBound>-100</LowerBound>
														<UpperBound>1000000000</UpperBound>
														<value>-91445760000000000,30.,0,0,0,0,0,0</value>
													</parameter>
													<parameter authoringApp="PremierePro">
														<parameterid>15</parameterid>
														<name> </name>
														<IsTimeVarying>false</IsTimeVarying>
														<ParameterControlType>4</ParameterControlType>
														<LowerBound>false</LowerBound>
														<UpperBound>true</UpperBound>
														<value>-91445760000000000,false,0,0,0,0,0,0</value>
													</parameter>
													<parameter authoringApp="PremierePro">
														<parameterid>16</parameterid>
														<name> </name>
														<IsTimeVarying>false</IsTimeVarying>
														<ParameterControlType>4</ParameterControlType>
														<LowerBound>false</LowerBound>
														<UpperBound>true</UpperBound>
														<value>-91445760000000000,false,0,0,0,0,0,0</value>
													</parameter>
													<parameter authoringApp="PremierePro">
														<parameterid>17</parameterid>
														<name> </name>
														<IsTimeVarying>false</IsTimeVarying>
														<ParameterControlType>4</ParameterControlType>
														<LowerBound>false</LowerBound>
														<UpperBound>true</UpperBound>
														<value>-91445760000000000,false,0,0,0,0,0,0</value>
													</parameter>
													<parameter authoringApp="PremierePro">
														<parameterid>18</parameterid>
														<name> </name>
														<IsTimeVarying>false</IsTimeVarying>
														<ParameterControlType>4</ParameterControlType>
														<LowerBound>false</LowerBound>
														<UpperBound>true</UpperBound>
														<value>-91445760000000000,false,0,0,0,0,0,0</value>
													</parameter>
													<parameter authoringApp="PremierePro">
														<parameterid>19</parameterid>
														<name>Parent Width</name>
														<IsTimeVarying>false</IsTimeVarying>
														<ParameterControlType>2</ParameterControlType>
														<LowerBound>0</LowerBound>
														<UpperBound>20000</UpperBound>
														<value>-91445760000000000,0.,0,0,0,0,0,0</value>
													</parameter>
													<parameter authoringApp="PremierePro">
														<parameterid>20</parameterid>
														<name>Parent Height</name>
														<IsTimeVarying>false</IsTimeVarying>
														<ParameterControlType>2</ParameterControlType>
														<LowerBound>0</LowerBound>
														<UpperBound>20000</UpperBound>
														<value>-91445760000000000,0.,0,0,0,0,0,0</value>
													</parameter>
													<parameter authoringApp="PremierePro">
														<parameterid>21</parameterid>
														<name>Parent Rotation</name>
														<IsTimeVarying>false</IsTimeVarying>
														<ParameterControlType>3</ParameterControlType>
														<LowerBound>-32768</LowerBound>
														<UpperBound>32767</UpperBound>
														<value>-91445760000000000,0.,0,0,0,0,0,0</value>
													</parameter>
												</effect>
											</filter>
											<logginginfo>
												<description></description>
												<scene></scene>
												<shottake></shottake>
												<lognote></lognote>
												<good></good>
												<originalvideofilename></originalvideofilename>
												<originalaudiofilename></originalaudiofilename>
											</logginginfo>
											<colorinfo>
												<lut></lut>
												<lut1></lut1>
												<asc_sop></asc_sop>
												<asc_sat></asc_sat>
												<lut2></lut2>
											</colorinfo>
										</clipitem>
										<transitionitem>
											<start>328</start>
											<end>350</end>
											<alignment>end-black</alignment>
											<cutPointTicks>223534080000</cutPointTicks>
											<rate>
												<timebase>25</timebase>
												<ntsc>FALSE</ntsc>
											</rate>
											<effect>
												<name>Edge Wipe</name>
												<effectid>Edge Wipe</effectid>
												<effectcategory>Wipe</effectcategory>
												<effecttype>transition</effecttype>
												<mediatype>video</mediatype>
												<wipecode>2</wipecode>
												<wipeaccuracy>100</wipeaccuracy>
												<startratio>0</startratio>
												<endratio>1</endratio>
												<reverse>FALSE</reverse>
												<parameter authoringApp="PremierePro">
													<parameterid>directionofwipe</parameterid>
													<name>Angle</name>
													<valuemin>-360</valuemin>
													<valuemax>360</valuemax>
													<value>90</value>
												</parameter>
											</effect>
										</transitionitem>
										<enabled>TRUE</enabled>
										<locked>FALSE</locked>
									</track>
								</video>
								<audio>
									<numOutputChannels>2</numOutputChannels>
									<format>
										<samplecharacteristics>
											<depth>16</depth>
											<samplerate>48000</samplerate>
										</samplecharacteristics>
									</format>
									<outputs>
										<group>
											<index>1</index>
											<numchannels>1</numchannels>
											<downmix>0</downmix>
											<channel>
												<index>1</index>
											</channel>
										</group>
										<group>
											<index>2</index>
											<numchannels>1</numchannels>
											<downmix>0</downmix>
											<channel>
												<index>2</index>
											</channel>
										</group>
									</outputs>
									<track TL.SQTrackAudioKeyframeStyle="0" TL.SQTrackShy="0" TL.SQTrackExpandedHeight="25" TL.SQTrackExpanded="0" MZ.TrackTargeted="1" PannerCurrentValue="0.5" PannerStartKeyframe="-91445760000000000,0.5,0,0,0,0,0,0" PannerName="Balance" currentExplodedTrackIndex="0" totalExplodedTrackCount="2" premiereTrackType="Stereo">
										<enabled>TRUE</enabled>
										<locked>FALSE</locked>
										<outputchannelindex>1</outputchannelindex>
									</track>
									<track TL.SQTrackAudioKeyframeStyle="0" TL.SQTrackShy="0" TL.SQTrackExpandedHeight="25" TL.SQTrackExpanded="0" MZ.TrackTargeted="1" PannerCurrentValue="0.5" PannerStartKeyframe="-91445760000000000,0.5,0,0,0,0,0,0" PannerName="Balance" currentExplodedTrackIndex="1" totalExplodedTrackCount="2" premiereTrackType="Stereo">
										<enabled>TRUE</enabled>
										<locked>FALSE</locked>
										<outputchannelindex>2</outputchannelindex>
									</track>
								</audio>
							</media>
							<timecode>
								<rate>
									<timebase>25</timebase>
									<ntsc>FALSE</ntsc>
								</rate>
								<string>00:00:00:00</string>
								<frame>0</frame>
								<displayformat>NDF</displayformat>
							</timecode>
								<marker>
									<comment></comment>
									<name></name>
									<in>125</in>
									<out>-1</out>
									<pproColor>4280578025</pproColor>
								</marker>
							<logginginfo>
								<description></description>
								<scene></scene>
								<shottake></shottake>
								<lognote></lognote>
								<good></good>
								<originalvideofilename></originalvideofilename>
								<originalaudiofilename></originalaudiofilename>
							</logginginfo>
						</sequence>
							<marker>
								<comment></comment>
								<name></name>
								<in>125</in>
								<out>-1</out>
								<pproColor>4280578025</pproColor>
							</marker>
						<labels>
							<label2>Forest</label2>
						</labels>
					</clipitem>
					<clipitem id="clipitem-673">
						<masterclipid>masterclip-295</masterclipid>
						<name>9</name>
						<enabled>TRUE</enabled>
						<duration>475</duration>
						<rate>
							<timebase>25</timebase>
							<ntsc>FALSE</ntsc>
						</rate>
						<start>23539</start>
						<end>23890</end>
						<in>124</in>
						<out>475</out>
						<pproTicksIn>1259919360000</pproTicksIn>
						<pproTicksOut>4826304000000</pproTicksOut>
						<sequence id="sequence-43"/>
							<marker>
								<comment></comment>
								<name></name>
								<in>125</in>
								<out>-1</out>
								<pproColor>4280578025</pproColor>
							</marker>
						<labels>
							<label2>Forest</label2>
						</labels>
					</clipitem>
					<clipitem id="clipitem-674">
						<masterclipid>masterclip-300</masterclipid>
						<name>8_TITLE</name>
						<enabled>TRUE</enabled>
						<duration>475</duration>
						<rate>
							<timebase>25</timebase>
							<ntsc>FALSE</ntsc>
						</rate>
						<start>23965</start>
						<end>24315</end>
						<in>0</in>
						<out>475</out>
						<pproTicksIn>0</pproTicksIn>
						<pproTicksOut>4826304000000</pproTicksOut>
						<sequence id="sequence-44" TL.SQAudioVisibleBase="0" TL.SQVideoVisibleBase="0" TL.SQVisibleBaseTime="0" TL.SQAVDividerPosition="0.5" TL.SQHideShyTracks="0" TL.SQHeaderWidth="236" TL.SQDataTrackViewControlState="0" Monitor.ProgramZoomOut="4826304000000" Monitor.ProgramZoomIn="0" TL.SQTimePerPixel="0.024999999999999998" AM.TrackVScrollPosition="0" AM.TrackScrollPosition="0" MZ.EditLine="3556224000000" MZ.Sequence.PreviewFrameSizeHeight="576" MZ.Sequence.PreviewFrameSizeWidth="720" MZ.Sequence.AudioTimeDisplayFormat="200" MZ.Sequence.PreviewRenderingClassID="1061109567" MZ.Sequence.PreviewRenderingPresetCodec="1685480304" MZ.Sequence.PreviewRenderingPresetPath="EncoderPresets/SequencePreview/04be6e19-a018-4e0c-a9d6-0ab44c64752b/QuickTime DV PAL.epr" MZ.Sequence.PreviewUseMaxRenderQuality="false" MZ.Sequence.PreviewUseMaxBitDepth="false" MZ.Sequence.EditingModeGUID="04be6e19-a018-4e0c-a9d6-0ab44c64752b" MZ.Sequence.VideoTimeDisplayFormat="101" MZ.WorkOutPoint="4826304000000" MZ.WorkInPoint="0" MZ.ZeroPoint="0">
							<duration>475</duration>
							<rate>
								<timebase>25</timebase>
								<ntsc>FALSE</ntsc>
							</rate>
							<name>титр</name>
							<media>
								<video>
									<format>
										<samplecharacteristics>
											<rate>
												<timebase>25</timebase>
												<ntsc>FALSE</ntsc>
											</rate>
											<codec>
												<name>Apple ProRes 422</name>
												<appspecificdata>
													<appname>Final Cut Pro</appname>
													<appmanufacturer>Apple Inc.</appmanufacturer>
													<appversion>7.0</appversion>
													<data>
														<qtcodec>
															<codecname>Apple ProRes 422</codecname>
															<codectypename>Apple ProRes 422</codectypename>
															<codectypecode>apcn</codectypecode>
															<codecvendorcode>appl</codecvendorcode>
															<spatialquality>1024</spatialquality>
															<temporalquality>0</temporalquality>
															<keyframerate>0</keyframerate>
															<datarate>0</datarate>
														</qtcodec>
													</data>
												</appspecificdata>
											</codec>
											<width>720</width>
											<height>576</height>
											<anamorphic>TRUE</anamorphic>
											<pixelaspectratio>PAL-601</pixelaspectratio>
											<fielddominance>lower</fielddominance>
											<colordepth>24</colordepth>
										</samplecharacteristics>
									</format>
									<track TL.SQTrackShy="0" TL.SQTrackExpandedHeight="25" TL.SQTrackExpanded="0" MZ.TrackTargeted="1">
										<clipitem id="clipitem-675">
											<masterclipid>masterclip-296</masterclipid>
											<name>9_title.mov</name>
											<enabled>TRUE</enabled>
											<duration>225</duration>
											<rate>
												<timebase>25</timebase>
												<ntsc>FALSE</ntsc>
											</rate>
											<start>125</start>
											<end>350</end>
											<in>0</in>
											<out>225</out>
											<pproTicksIn>0</pproTicksIn>
											<pproTicksOut>2286144000000</pproTicksOut>
											<alphatype>straight</alphatype>
											<file id="file-257"/>
											<filter>
												<effect>
													<name>Basic Motion</name>
													<effectid>basic</effectid>
													<effectcategory>motion</effectcategory>
													<effecttype>motion</effecttype>
													<mediatype>video</mediatype>
													<pproBypass>false</pproBypass>
													<parameter authoringApp="PremierePro">
														<parameterid>scale</parameterid>
														<name>Scale</name>
														<valuemin>0</valuemin>
														<valuemax>1000</valuemax>
														<value>55</value>
													</parameter>
													<parameter authoringApp="PremierePro">
														<parameterid>rotation</parameterid>
														<name>Rotation</name>
														<valuemin>-8640</valuemin>
														<valuemax>8640</valuemax>
														<value>0</value>
													</parameter>
													<parameter authoringApp="PremierePro">
														<parameterid>center</parameterid>
														<name>Center</name>
														<value>
															<horiz>0</horiz>
															<vert>0</vert>
														</value>
													</parameter>
													<parameter authoringApp="PremierePro">
														<parameterid>centerOffset</parameterid>
														<name>Anchor Point</name>
														<value>
															<horiz>0</horiz>
															<vert>0</vert>
														</value>
													</parameter>
													<parameter authoringApp="PremierePro">
														<parameterid>antiflicker</parameterid>
														<name>Anti-flicker Filter</name>
														<valuemin>0.0</valuemin>
														<valuemax>1.0</valuemax>
														<value>0</value>
													</parameter>
												</effect>
											</filter>
											<filter>
												<effect>
													<name>Distort</name>
													<effectid>deformation</effectid>
													<effectcategory>motion</effectcategory>
													<effecttype>motion</effecttype>
													<mediatype>video</mediatype>
													<parameter authoringApp="PremierePro">
														<parameterid>aspect</parameterid>
														<name>Aspect</name>
														<valuemin>-10000</valuemin>
														<valuemax>10000</valuemax>
														<value>-3.12506</value>
													</parameter>
												</effect>
											</filter>
											<logginginfo>
												<description></description>
												<scene></scene>
												<shottake></shottake>
												<lognote></lognote>
												<good></good>
												<originalvideofilename></originalvideofilename>
												<originalaudiofilename></originalaudiofilename>
											</logginginfo>
											<colorinfo>
												<lut></lut>
												<lut1></lut1>
												<asc_sop></asc_sop>
												<asc_sat></asc_sat>
												<lut2></lut2>
											</colorinfo>
											<labels>
												<label2>Violet</label2>
											</labels>
										</clipitem>
										<clipitem id="clipitem-676">
											<masterclipid>masterclip-301</masterclipid>
											<name>Graphic</name>
											<enabled>FALSE</enabled>
											<duration>1080000</duration>
											<rate>
												<timebase>25</timebase>
												<ntsc>FALSE</ntsc>
											</rate>
											<start>350</start>
											<end>475</end>
											<in>90000</in>
											<out>90125</out>
											<pproTicksIn>914457600000000</pproTicksIn>
											<pproTicksOut>915727680000000</pproTicksOut>
											<alphatype>straight</alphatype>
											<pixelaspectratio>PAL-601</pixelaspectratio>
											<anamorphic>TRUE</anamorphic>
											<file id="file-261">
												<name>Graphic</name>
												<mediaSource>GraphicAndType</mediaSource>
												<rate>
													<timebase>30</timebase>
													<ntsc>TRUE</ntsc>
												</rate>
												<timecode>
													<rate>
														<timebase>30</timebase>
														<ntsc>TRUE</ntsc>
													</rate>
													<string>00;00;00;00</string>
													<frame>0</frame>
													<displayformat>DF</displayformat>
												</timecode>
												<media>
													<video>
														<samplecharacteristics>
															<rate>
																<timebase>30</timebase>
																<ntsc>TRUE</ntsc>
															</rate>
															<width>720</width>
															<height>576</height>
															<anamorphic>TRUE</anamorphic>
															<pixelaspectratio>PAL-601</pixelaspectratio>
															<fielddominance>none</fielddominance>
														</samplecharacteristics>
													</video>
												</media>
											</file>
											<filter>
												<effect>
													<name>Basic Motion</name>
													<effectid>basic</effectid>
													<effectcategory>motion</effectcategory>
													<effecttype>motion</effecttype>
													<mediatype>video</mediatype>
													<pproBypass>false</pproBypass>
													<parameter authoringApp="PremierePro">
														<parameterid>scale</parameterid>
														<name>Scale</name>
														<valuemin>0</valuemin>
														<valuemax>1000</valuemax>
														<value>133.333</value>
													</parameter>
													<parameter authoringApp="PremierePro">
														<parameterid>rotation</parameterid>
														<name>Rotation</name>
														<valuemin>-8640</valuemin>
														<valuemax>8640</valuemax>
														<value>0</value>
													</parameter>
													<parameter authoringApp="PremierePro">
														<parameterid>center</parameterid>
														<name>Center</name>
														<value>
															<horiz>0</horiz>
															<vert>0</vert>
														</value>
													</parameter>
													<parameter authoringApp="PremierePro">
														<parameterid>centerOffset</parameterid>
														<name>Anchor Point</name>
														<value>
															<horiz>0</horiz>
															<vert>0</vert>
														</value>
													</parameter>
													<parameter authoringApp="PremierePro">
														<parameterid>antiflicker</parameterid>
														<name>Anti-flicker Filter</name>
														<valuemin>0.0</valuemin>
														<valuemax>1.0</valuemax>
														<value>0</value>
													</parameter>
												</effect>
											</filter>
											<filter>
												<effect>
													<name>Distort</name>
													<effectid>deformation</effectid>
													<effectcategory>motion</effectcategory>
													<effecttype>motion</effecttype>
													<mediatype>video</mediatype>
													<parameter authoringApp="PremierePro">
														<parameterid>aspect</parameterid>
														<name>Aspect</name>
														<valuemin>-10000</valuemin>
														<valuemax>10000</valuemax>
														<value>-33.333</value>
													</parameter>
												</effect>
											</filter>
											<filter>
												<effect>
													<name></name>
													<effectid>GraphicAndType</effectid>
													<effectcategory>graphic</effectcategory>
													<effecttype>filter</effecttype>
													<mediatype>video</mediatype>
													<pproBypass>false</pproBypass>
													<parameter authoringApp="PremierePro">
														<parameterid>1</parameterid>
														<name>Source Text</name>
														<hash>3f0faa81-c1b0-8370-b66c-fa0b000009f1</hash>
													</parameter>
													<parameter authoringApp="PremierePro">
														<parameterid>2</parameterid>
														<name>Transform</name>
														<IsTimeVarying>false</IsTimeVarying>
														<ParameterControlType>11</ParameterControlType>
														<LowerBound>false</LowerBound>
														<UpperBound>false</UpperBound>
														<value>-91445760000000000,false,0,0,0,0,0,0</value>
													</parameter>
													<parameter authoringApp="PremierePro">
														<parameterid>3</parameterid>
														<name>Position</name>
														<IsTimeVarying>false</IsTimeVarying>
														<value>-91445760000000000,0.55605381727218628:0.73039215803146362,0,0,0,0,0,0,5,4,0,0,0,0</value>
													</parameter>
													<parameter authoringApp="PremierePro">
														<parameterid>4</parameterid>
														<name>Scale</name>
														<IsTimeVarying>false</IsTimeVarying>
														<ParameterControlType>2</ParameterControlType>
														<LowerBound>0</LowerBound>
														<UpperBound>4000</UpperBound>
														<value>-91445760000000000,100.,0,0,0,0,0,0</value>
													</parameter>
													<parameter authoringApp="PremierePro">
														<parameterid>5</parameterid>
														<name>Horizontal Scale</name>
														<IsTimeVarying>false</IsTimeVarying>
														<ParameterControlType>2</ParameterControlType>
														<LowerBound>0</LowerBound>
														<UpperBound>4000</UpperBound>
														<value>-91445760000000000,100.,0,0,0,0,0,0</value>
													</parameter>
													<parameter authoringApp="PremierePro">
														<parameterid>6</parameterid>
														<name> </name>
														<IsTimeVarying>false</IsTimeVarying>
														<ParameterControlType>4</ParameterControlType>
														<LowerBound>false</LowerBound>
														<UpperBound>true</UpperBound>
														<value>-91445760000000000,true,0,0,0,0,0,0</value>
													</parameter>
													<parameter authoringApp="PremierePro">
														<parameterid>7</parameterid>
														<name>Rotation</name>
														<IsTimeVarying>false</IsTimeVarying>
														<ParameterControlType>3</ParameterControlType>
														<LowerBound>-32768</LowerBound>
														<UpperBound>32767</UpperBound>
														<value>-91445760000000000,0.,0,0,0,0,0,0</value>
													</parameter>
													<parameter authoringApp="PremierePro">
														<parameterid>8</parameterid>
														<name>Opacity</name>
														<IsTimeVarying>false</IsTimeVarying>
														<ParameterControlType>2</ParameterControlType>
														<LowerBound>0</LowerBound>
														<UpperBound>100</UpperBound>
														<value>-91445760000000000,100.,0,0,0,0,0,0</value>
													</parameter>
													<parameter authoringApp="PremierePro">
														<parameterid>9</parameterid>
														<name>Anchor Point</name>
														<IsTimeVarying>false</IsTimeVarying>
														<value>-91445760000000000,0:0,0,0,0,0,0,0,5,4,0,0,0,0</value>
													</parameter>
													<parameter authoringApp="PremierePro">
														<parameterid>10</parameterid>
														<name></name>
														<IsTimeVarying>false</IsTimeVarying>
														<ParameterControlType>12</ParameterControlType>
														<LowerBound>false</LowerBound>
														<UpperBound>false</UpperBound>
														<value>-91445760000000000,false,0,0,0,0,0,0</value>
													</parameter>
													<parameter authoringApp="PremierePro">
														<parameterid>11</parameterid>
														<name> </name>
														<IsTimeVarying>false</IsTimeVarying>
														<ParameterControlType>8</ParameterControlType>
														<LowerBound>0</LowerBound>
														<UpperBound>32768</UpperBound>
														<value>-91445760000000000,0.,0,0,0,0,0,0</value>
													</parameter>
													<parameter authoringApp="PremierePro">
														<parameterid>12</parameterid>
														<name> </name>
														<IsTimeVarying>false</IsTimeVarying>
														<ParameterControlType>8</ParameterControlType>
														<LowerBound>0</LowerBound>
														<UpperBound>32768</UpperBound>
														<value>-91445760000000000,0.,0,0,0,0,0,0</value>
													</parameter>
													<parameter authoringApp="PremierePro">
														<parameterid>13</parameterid>
														<name>start</name>
														<IsTimeVarying>false</IsTimeVarying>
														<ParameterControlType>8</ParameterControlType>
														<LowerBound>-100</LowerBound>
														<UpperBound>1000000000</UpperBound>
														<value>-91445760000000000,0.,0,0,0,0,0,0</value>
													</parameter>
													<parameter authoringApp="PremierePro">
														<parameterid>14</parameterid>
														<name>end</name>
														<IsTimeVarying>false</IsTimeVarying>
														<ParameterControlType>8</ParameterControlType>
														<LowerBound>-100</LowerBound>
														<UpperBound>1000000000</UpperBound>
														<value>-91445760000000000,0.,0,0,0,0,0,0</value>
													</parameter>
													<parameter authoringApp="PremierePro">
														<parameterid>15</parameterid>
														<name> </name>
														<IsTimeVarying>false</IsTimeVarying>
														<ParameterControlType>4</ParameterControlType>
														<LowerBound>false</LowerBound>
														<UpperBound>true</UpperBound>
														<value>-91445760000000000,false,0,0,0,0,0,0</value>
													</parameter>
													<parameter authoringApp="PremierePro">
														<parameterid>16</parameterid>
														<name> </name>
														<IsTimeVarying>false</IsTimeVarying>
														<ParameterControlType>4</ParameterControlType>
														<LowerBound>false</LowerBound>
														<UpperBound>true</UpperBound>
														<value>-91445760000000000,false,0,0,0,0,0,0</value>
													</parameter>
													<parameter authoringApp="PremierePro">
														<parameterid>17</parameterid>
														<name> </name>
														<IsTimeVarying>false</IsTimeVarying>
														<ParameterControlType>4</ParameterControlType>
														<LowerBound>false</LowerBound>
														<UpperBound>true</UpperBound>
														<value>-91445760000000000,false,0,0,0,0,0,0</value>
													</parameter>
													<parameter authoringApp="PremierePro">
														<parameterid>18</parameterid>
														<name> </name>
														<IsTimeVarying>false</IsTimeVarying>
														<ParameterControlType>4</ParameterControlType>
														<LowerBound>false</LowerBound>
														<UpperBound>true</UpperBound>
														<value>-91445760000000000,false,0,0,0,0,0,0</value>
													</parameter>
													<parameter authoringApp="PremierePro">
														<parameterid>19</parameterid>
														<name>Parent Width</name>
														<IsTimeVarying>false</IsTimeVarying>
														<ParameterControlType>2</ParameterControlType>
														<LowerBound>0</LowerBound>
														<UpperBound>20000</UpperBound>
														<value>-91445760000000000,0.,0,0,0,0,0,0</value>
													</parameter>
													<parameter authoringApp="PremierePro">
														<parameterid>20</parameterid>
														<name>Parent Height</name>
														<IsTimeVarying>false</IsTimeVarying>
														<ParameterControlType>2</ParameterControlType>
														<LowerBound>0</LowerBound>
														<UpperBound>20000</UpperBound>
														<value>-91445760000000000,0.,0,0,0,0,0,0</value>
													</parameter>
													<parameter authoringApp="PremierePro">
														<parameterid>21</parameterid>
														<name>Parent Rotation</name>
														<IsTimeVarying>false</IsTimeVarying>
														<ParameterControlType>3</ParameterControlType>
														<LowerBound>-32768</LowerBound>
														<UpperBound>32767</UpperBound>
														<value>-91445760000000000,0.,0,0,0,0,0,0</value>
													</parameter>
												</effect>
											</filter>
											<logginginfo>
												<description></description>
												<scene></scene>
												<shottake></shottake>
												<lognote></lognote>
												<good></good>
												<originalvideofilename></originalvideofilename>
												<originalaudiofilename></originalaudiofilename>
											</logginginfo>
											<colorinfo>
												<lut></lut>
												<lut1></lut1>
												<asc_sop></asc_sop>
												<asc_sat></asc_sat>
												<lut2></lut2>
											</colorinfo>
										</clipitem>
										<enabled>TRUE</enabled>
										<locked>FALSE</locked>
									</track>
									<track TL.SQTrackShy="0" TL.SQTrackExpandedHeight="25" TL.SQTrackExpanded="0" MZ.TrackTargeted="0">
										<transitionitem>
											<start>167</start>
											<end>224</end>
											<alignment>start-black</alignment>
											<cutPointTicks>0</cutPointTicks>
											<rate>
												<timebase>25</timebase>
												<ntsc>FALSE</ntsc>
											</rate>
											<effect>
												<name>Edge Wipe</name>
												<effectid>Edge Wipe</effectid>
												<effectcategory>Wipe</effectcategory>
												<effecttype>transition</effecttype>
												<mediatype>video</mediatype>
												<wipecode>2</wipecode>
												<wipeaccuracy>100</wipeaccuracy>
												<startratio>0</startratio>
												<endratio>1</endratio>
												<reverse>FALSE</reverse>
												<parameter authoringApp="PremierePro">
													<parameterid>directionofwipe</parameterid>
													<name>Angle</name>
													<valuemin>-360</valuemin>
													<valuemax>360</valuemax>
													<value>90</value>
												</parameter>
											</effect>
										</transitionitem>
										<clipitem id="clipitem-677">
											<masterclipid>masterclip-302</masterclipid>
											<name>9.png</name>
											<enabled>TRUE</enabled>
											<duration>1080000</duration>
											<rate>
												<timebase>25</timebase>
												<ntsc>FALSE</ntsc>
											</rate>
											<start>-1</start>
											<end>-1</end>
											<in>90042</in>
											<out>90225</out>
											<pproTicksIn>914884346880000</pproTicksIn>
											<pproTicksOut>916743744000000</pproTicksOut>
											<alphatype>straight</alphatype>
											<pixelaspectratio>square</pixelaspectratio>
											<anamorphic>FALSE</anamorphic>
											<file id="file-262">
												<name>8.png</name>
												<pathurl>file://localhost/_MUZ_TV/project_AP/RU/_TITLE/END/8.png</pathurl>
												<rate>
													<timebase>30</timebase>
													<ntsc>TRUE</ntsc>
												</rate>
												<timecode>
													<rate>
														<timebase>30</timebase>
														<ntsc>TRUE</ntsc>
													</rate>
													<string>00;00;00;00</string>
													<frame>0</frame>
													<displayformat>DF</displayformat>
												</timecode>
												<media>
													<video>
														<samplecharacteristics>
															<rate>
																<timebase>30</timebase>
																<ntsc>TRUE</ntsc>
															</rate>
															<width>1920</width>
															<height>1080</height>
															<anamorphic>FALSE</anamorphic>
															<pixelaspectratio>square</pixelaspectratio>
															<fielddominance>none</fielddominance>
														</samplecharacteristics>
													</video>
												</media>
											</file>
											<filter>
												<effect>
													<name>Basic Motion</name>
													<effectid>basic</effectid>
													<effectcategory>motion</effectcategory>
													<effecttype>motion</effecttype>
													<mediatype>video</mediatype>
													<pproBypass>false</pproBypass>
													<parameter authoringApp="PremierePro">
														<parameterid>scale</parameterid>
														<name>Scale</name>
														<valuemin>0</valuemin>
														<valuemax>1000</valuemax>
														<value>53.3333</value>
													</parameter>
													<parameter authoringApp="PremierePro">
														<parameterid>rotation</parameterid>
														<name>Rotation</name>
														<valuemin>-8640</valuemin>
														<valuemax>8640</valuemax>
														<value>0</value>
													</parameter>
													<parameter authoringApp="PremierePro">
														<parameterid>center</parameterid>
														<name>Center</name>
														<value>
															<horiz>0</horiz>
															<vert>0</vert>
														</value>
													</parameter>
													<parameter authoringApp="PremierePro">
														<parameterid>centerOffset</parameterid>
														<name>Anchor Point</name>
														<value>
															<horiz>0</horiz>
															<vert>0</vert>
														</value>
													</parameter>
													<parameter authoringApp="PremierePro">
														<parameterid>antiflicker</parameterid>
														<name>Anti-flicker Filter</name>
														<valuemin>0.0</valuemin>
														<valuemax>1.0</valuemax>
														<value>0</value>
													</parameter>
												</effect>
											</filter>
											<logginginfo>
												<description></description>
												<scene></scene>
												<shottake></shottake>
												<lognote></lognote>
												<good></good>
												<originalvideofilename></originalvideofilename>
												<originalaudiofilename></originalaudiofilename>
											</logginginfo>
											<colorinfo>
												<lut></lut>
												<lut1></lut1>
												<asc_sop></asc_sop>
												<asc_sat></asc_sat>
												<lut2></lut2>
											</colorinfo>
											<labels>
												<label2>Lavender</label2>
											</labels>
										</clipitem>
										<transitionitem>
											<start>328</start>
											<end>350</end>
											<alignment>end-black</alignment>
											<cutPointTicks>223534080000</cutPointTicks>
											<rate>
												<timebase>25</timebase>
												<ntsc>FALSE</ntsc>
											</rate>
											<effect>
												<name>Edge Wipe</name>
												<effectid>Edge Wipe</effectid>
												<effectcategory>Wipe</effectcategory>
												<effecttype>transition</effecttype>
												<mediatype>video</mediatype>
												<wipecode>2</wipecode>
												<wipeaccuracy>100</wipeaccuracy>
												<startratio>0</startratio>
												<endratio>1</endratio>
												<reverse>FALSE</reverse>
												<parameter authoringApp="PremierePro">
													<parameterid>directionofwipe</parameterid>
													<name>Angle</name>
													<valuemin>-360</valuemin>
													<valuemax>360</valuemax>
													<value>90</value>
												</parameter>
											</effect>
										</transitionitem>
										<enabled>TRUE</enabled>
										<locked>FALSE</locked>
									</track>
									<track TL.SQTrackShy="0" TL.SQTrackExpandedHeight="25" TL.SQTrackExpanded="0" MZ.TrackTargeted="0">
										<transitionitem>
											<start>167</start>
											<end>224</end>
											<alignment>start-black</alignment>
											<cutPointTicks>0</cutPointTicks>
											<rate>
												<timebase>25</timebase>
												<ntsc>FALSE</ntsc>
											</rate>
											<effect>
												<name>Edge Wipe</name>
												<effectid>Edge Wipe</effectid>
												<effectcategory>Wipe</effectcategory>
												<effecttype>transition</effecttype>
												<mediatype>video</mediatype>
												<wipecode>2</wipecode>
												<wipeaccuracy>100</wipeaccuracy>
												<startratio>0</startratio>
												<endratio>1</endratio>
												<reverse>FALSE</reverse>
												<parameter authoringApp="PremierePro">
													<parameterid>directionofwipe</parameterid>
													<name>Angle</name>
													<valuemin>-360</valuemin>
													<valuemax>360</valuemax>
													<value>90</value>
												</parameter>
											</effect>
										</transitionitem>
										<clipitem id="clipitem-678">
											<masterclipid>masterclip-303</masterclipid>
											<name>Graphic</name>
											<enabled>FALSE</enabled>
											<duration>1080000</duration>
											<rate>
												<timebase>25</timebase>
												<ntsc>FALSE</ntsc>
											</rate>
											<start>-1</start>
											<end>-1</end>
											<in>89998</in>
											<out>90181</out>
											<pproTicksIn>914437278720000</pproTicksIn>
											<pproTicksOut>916296675840000</pproTicksOut>
											<alphatype>straight</alphatype>
											<pixelaspectratio>PAL-601</pixelaspectratio>
											<anamorphic>TRUE</anamorphic>
											<file id="file-263">
												<name>Graphic</name>
												<mediaSource>GraphicAndType</mediaSource>
												<rate>
													<timebase>30</timebase>
													<ntsc>TRUE</ntsc>
												</rate>
												<timecode>
													<rate>
														<timebase>30</timebase>
														<ntsc>TRUE</ntsc>
													</rate>
													<string>00;00;00;00</string>
													<frame>0</frame>
													<displayformat>DF</displayformat>
												</timecode>
												<media>
													<video>
														<samplecharacteristics>
															<rate>
																<timebase>30</timebase>
																<ntsc>TRUE</ntsc>
															</rate>
															<width>720</width>
															<height>576</height>
															<anamorphic>TRUE</anamorphic>
															<pixelaspectratio>PAL-601</pixelaspectratio>
															<fielddominance>none</fielddominance>
														</samplecharacteristics>
													</video>
												</media>
											</file>
											<filter>
												<effect>
													<name>АРТУР ПИРОЖКОВ&#13;ЛЕТОМ НА ФИЕСТЕ</name>
													<effectid>GraphicAndType</effectid>
													<effectcategory>graphic</effectcategory>
													<effecttype>filter</effecttype>
													<mediatype>video</mediatype>
													<pproBypass>false</pproBypass>
													<pproExpanded>true</pproExpanded>
													<parameter authoringApp="PremierePro">
														<parameterid>1</parameterid>
														<name>Source Text</name>
														<hash>dc092258-f6b9-fd91-a76f-c3e700000476</hash>
													</parameter>
													<parameter authoringApp="PremierePro">
														<parameterid>2</parameterid>
														<name>Transform</name>
														<IsTimeVarying>false</IsTimeVarying>
														<ParameterControlType>11</ParameterControlType>
														<LowerBound>false</LowerBound>
														<UpperBound>false</UpperBound>
														<value>-91445760000000000,false,0,0,0,0,0,0</value>
													</parameter>
													<parameter authoringApp="PremierePro">
														<parameterid>3</parameterid>
														<name>Position</name>
														<IsTimeVarying>false</IsTimeVarying>
														<value>-91445760000000000,0.36944580078125:0.86468505859375,0,0,0,0,0,0,5,4,0,0,0,0</value>
													</parameter>
													<parameter authoringApp="PremierePro">
														<parameterid>4</parameterid>
														<name>Scale</name>
														<IsTimeVarying>false</IsTimeVarying>
														<ParameterControlType>2</ParameterControlType>
														<LowerBound>0</LowerBound>
														<UpperBound>4000</UpperBound>
														<value>-91445760000000000,100.,0,0,0,0,0,0</value>
													</parameter>
													<parameter authoringApp="PremierePro">
														<parameterid>5</parameterid>
														<name>Horizontal Scale</name>
														<IsTimeVarying>false</IsTimeVarying>
														<ParameterControlType>2</ParameterControlType>
														<LowerBound>0</LowerBound>
														<UpperBound>4000</UpperBound>
														<value>-91445760000000000,100.,0,0,0,0,0,0</value>
													</parameter>
													<parameter authoringApp="PremierePro">
														<parameterid>6</parameterid>
														<name> </name>
														<IsTimeVarying>false</IsTimeVarying>
														<ParameterControlType>4</ParameterControlType>
														<LowerBound>false</LowerBound>
														<UpperBound>true</UpperBound>
														<value>-91445760000000000,true,0,0,0,0,0,0</value>
													</parameter>
													<parameter authoringApp="PremierePro">
														<parameterid>7</parameterid>
														<name>Rotation</name>
														<IsTimeVarying>false</IsTimeVarying>
														<ParameterControlType>3</ParameterControlType>
														<LowerBound>-32768</LowerBound>
														<UpperBound>32767</UpperBound>
														<value>-91445760000000000,0.,0,0,0,0,0,0</value>
													</parameter>
													<parameter authoringApp="PremierePro">
														<parameterid>8</parameterid>
														<name>Opacity</name>
														<IsTimeVarying>false</IsTimeVarying>
														<ParameterControlType>2</ParameterControlType>
														<LowerBound>0</LowerBound>
														<UpperBound>100</UpperBound>
														<value>-91445760000000000,100.,0,0,0,0,0,0</value>
													</parameter>
													<parameter authoringApp="PremierePro">
														<parameterid>9</parameterid>
														<name>Anchor Point</name>
														<IsTimeVarying>false</IsTimeVarying>
														<value>-91445760000000000,0:0,0,0,0,0,0,0,5,4,0,0,0,0</value>
													</parameter>
													<parameter authoringApp="PremierePro">
														<parameterid>10</parameterid>
														<name></name>
														<IsTimeVarying>false</IsTimeVarying>
														<ParameterControlType>12</ParameterControlType>
														<LowerBound>false</LowerBound>
														<UpperBound>false</UpperBound>
														<value>-91445760000000000,false,0,0,0,0,0,0</value>
													</parameter>
													<parameter authoringApp="PremierePro">
														<parameterid>11</parameterid>
														<name> </name>
														<IsTimeVarying>false</IsTimeVarying>
														<ParameterControlType>8</ParameterControlType>
														<LowerBound>0</LowerBound>
														<UpperBound>32768</UpperBound>
														<value>-91445760000000000,0.,0,0,0,0,0,0</value>
													</parameter>
													<parameter authoringApp="PremierePro">
														<parameterid>12</parameterid>
														<name> </name>
														<IsTimeVarying>false</IsTimeVarying>
														<ParameterControlType>8</ParameterControlType>
														<LowerBound>0</LowerBound>
														<UpperBound>32768</UpperBound>
														<value>-91445760000000000,0.,0,0,0,0,0,0</value>
													</parameter>
													<parameter authoringApp="PremierePro">
														<parameterid>13</parameterid>
														<name>start</name>
														<IsTimeVarying>false</IsTimeVarying>
														<ParameterControlType>8</ParameterControlType>
														<LowerBound>-100</LowerBound>
														<UpperBound>1000000000</UpperBound>
														<value>-91445760000000000,30.,0,0,0,0,0,0</value>
													</parameter>
													<parameter authoringApp="PremierePro">
														<parameterid>14</parameterid>
														<name>end</name>
														<IsTimeVarying>false</IsTimeVarying>
														<ParameterControlType>8</ParameterControlType>
														<LowerBound>-100</LowerBound>
														<UpperBound>1000000000</UpperBound>
														<value>-91445760000000000,30.,0,0,0,0,0,0</value>
													</parameter>
													<parameter authoringApp="PremierePro">
														<parameterid>15</parameterid>
														<name> </name>
														<IsTimeVarying>false</IsTimeVarying>
														<ParameterControlType>4</ParameterControlType>
														<LowerBound>false</LowerBound>
														<UpperBound>true</UpperBound>
														<value>-91445760000000000,false,0,0,0,0,0,0</value>
													</parameter>
													<parameter authoringApp="PremierePro">
														<parameterid>16</parameterid>
														<name> </name>
														<IsTimeVarying>false</IsTimeVarying>
														<ParameterControlType>4</ParameterControlType>
														<LowerBound>false</LowerBound>
														<UpperBound>true</UpperBound>
														<value>-91445760000000000,false,0,0,0,0,0,0</value>
													</parameter>
													<parameter authoringApp="PremierePro">
														<parameterid>17</parameterid>
														<name> </name>
														<IsTimeVarying>false</IsTimeVarying>
														<ParameterControlType>4</ParameterControlType>
														<LowerBound>false</LowerBound>
														<UpperBound>true</UpperBound>
														<value>-91445760000000000,false,0,0,0,0,0,0</value>
													</parameter>
													<parameter authoringApp="PremierePro">
														<parameterid>18</parameterid>
														<name> </name>
														<IsTimeVarying>false</IsTimeVarying>
														<ParameterControlType>4</ParameterControlType>
														<LowerBound>false</LowerBound>
														<UpperBound>true</UpperBound>
														<value>-91445760000000000,false,0,0,0,0,0,0</value>
													</parameter>
													<parameter authoringApp="PremierePro">
														<parameterid>19</parameterid>
														<name>Parent Width</name>
														<IsTimeVarying>false</IsTimeVarying>
														<ParameterControlType>2</ParameterControlType>
														<LowerBound>0</LowerBound>
														<UpperBound>20000</UpperBound>
														<value>-91445760000000000,0.,0,0,0,0,0,0</value>
													</parameter>
													<parameter authoringApp="PremierePro">
														<parameterid>20</parameterid>
														<name>Parent Height</name>
														<IsTimeVarying>false</IsTimeVarying>
														<ParameterControlType>2</ParameterControlType>
														<LowerBound>0</LowerBound>
														<UpperBound>20000</UpperBound>
														<value>-91445760000000000,0.,0,0,0,0,0,0</value>
													</parameter>
													<parameter authoringApp="PremierePro">
														<parameterid>21</parameterid>
														<name>Parent Rotation</name>
														<IsTimeVarying>false</IsTimeVarying>
														<ParameterControlType>3</ParameterControlType>
														<LowerBound>-32768</LowerBound>
														<UpperBound>32767</UpperBound>
														<value>-91445760000000000,0.,0,0,0,0,0,0</value>
													</parameter>
												</effect>
											</filter>
											<logginginfo>
												<description></description>
												<scene></scene>
												<shottake></shottake>
												<lognote></lognote>
												<good></good>
												<originalvideofilename></originalvideofilename>
												<originalaudiofilename></originalaudiofilename>
											</logginginfo>
											<colorinfo>
												<lut></lut>
												<lut1></lut1>
												<asc_sop></asc_sop>
												<asc_sat></asc_sat>
												<lut2></lut2>
											</colorinfo>
										</clipitem>
										<transitionitem>
											<start>328</start>
											<end>350</end>
											<alignment>end-black</alignment>
											<cutPointTicks>223534080000</cutPointTicks>
											<rate>
												<timebase>25</timebase>
												<ntsc>FALSE</ntsc>
											</rate>
											<effect>
												<name>Edge Wipe</name>
												<effectid>Edge Wipe</effectid>
												<effectcategory>Wipe</effectcategory>
												<effecttype>transition</effecttype>
												<mediatype>video</mediatype>
												<wipecode>2</wipecode>
												<wipeaccuracy>100</wipeaccuracy>
												<startratio>0</startratio>
												<endratio>1</endratio>
												<reverse>FALSE</reverse>
												<parameter authoringApp="PremierePro">
													<parameterid>directionofwipe</parameterid>
													<name>Angle</name>
													<valuemin>-360</valuemin>
													<valuemax>360</valuemax>
													<value>90</value>
												</parameter>
											</effect>
										</transitionitem>
										<enabled>TRUE</enabled>
										<locked>FALSE</locked>
									</track>
								</video>
								<audio>
									<numOutputChannels>2</numOutputChannels>
									<format>
										<samplecharacteristics>
											<depth>16</depth>
											<samplerate>48000</samplerate>
										</samplecharacteristics>
									</format>
									<outputs>
										<group>
											<index>1</index>
											<numchannels>1</numchannels>
											<downmix>0</downmix>
											<channel>
												<index>1</index>
											</channel>
										</group>
										<group>
											<index>2</index>
											<numchannels>1</numchannels>
											<downmix>0</downmix>
											<channel>
												<index>2</index>
											</channel>
										</group>
									</outputs>
									<track TL.SQTrackAudioKeyframeStyle="0" TL.SQTrackShy="0" TL.SQTrackExpandedHeight="25" TL.SQTrackExpanded="0" MZ.TrackTargeted="1" PannerCurrentValue="0.5" PannerStartKeyframe="-91445760000000000,0.5,0,0,0,0,0,0" PannerName="Balance" currentExplodedTrackIndex="0" totalExplodedTrackCount="2" premiereTrackType="Stereo">
										<enabled>TRUE</enabled>
										<locked>FALSE</locked>
										<outputchannelindex>1</outputchannelindex>
									</track>
									<track TL.SQTrackAudioKeyframeStyle="0" TL.SQTrackShy="0" TL.SQTrackExpandedHeight="25" TL.SQTrackExpanded="0" MZ.TrackTargeted="1" PannerCurrentValue="0.5" PannerStartKeyframe="-91445760000000000,0.5,0,0,0,0,0,0" PannerName="Balance" currentExplodedTrackIndex="1" totalExplodedTrackCount="2" premiereTrackType="Stereo">
										<enabled>TRUE</enabled>
										<locked>FALSE</locked>
										<outputchannelindex>2</outputchannelindex>
									</track>
								</audio>
							</media>
							<timecode>
								<rate>
									<timebase>25</timebase>
									<ntsc>FALSE</ntsc>
								</rate>
								<string>00:00:00:00</string>
								<frame>0</frame>
								<displayformat>NDF</displayformat>
							</timecode>
								<marker>
									<comment></comment>
									<name></name>
									<in>125</in>
									<out>-1</out>
									<pproColor>4280578025</pproColor>
								</marker>
							<logginginfo>
								<description></description>
								<scene></scene>
								<shottake></shottake>
								<lognote></lognote>
								<good></good>
								<originalvideofilename></originalvideofilename>
								<originalaudiofilename></originalaudiofilename>
							</logginginfo>
						</sequence>
							<marker>
								<comment></comment>
								<name></name>
								<in>125</in>
								<out>-1</out>
								<pproColor>4280578025</pproColor>
							</marker>
						<labels>
							<label2>Forest</label2>
						</labels>
					</clipitem>
					<clipitem id="clipitem-679">
						<masterclipid>masterclip-300</masterclipid>
						<name>8</name>
						<enabled>TRUE</enabled>
						<duration>475</duration>
						<rate>
							<timebase>25</timebase>
							<ntsc>FALSE</ntsc>
						</rate>
						<start>26406</start>
						<end>26757</end>
						<in>124</in>
						<out>475</out>
						<pproTicksIn>1259919360000</pproTicksIn>
						<pproTicksOut>4826304000000</pproTicksOut>
						<sequence id="sequence-44"/>
							<marker>
								<comment></comment>
								<name></name>
								<in>125</in>
								<out>-1</out>
								<pproColor>4280578025</pproColor>
							</marker>
						<labels>
							<label2>Forest</label2>
						</labels>
					</clipitem>
					<clipitem id="clipitem-680">
						<masterclipid>masterclip-273</masterclipid>
						<name>титр</name>
						<enabled>TRUE</enabled>
						<duration>225</duration>
						<rate>
							<timebase>25</timebase>
							<ntsc>FALSE</ntsc>
						</rate>
						<start>26817</start>
						<end>26988</end>
						<in>0</in>
						<out>171</out>
						<pproTicksIn>0</pproTicksIn>
						<pproTicksOut>1737469440000</pproTicksOut>
						<sequence id="sequence-37"/>
						<filter>
							<effect>
								<name>Opacity</name>
								<effectid>opacity</effectid>
								<effectcategory>motion</effectcategory>
								<effecttype>motion</effecttype>
								<mediatype>video</mediatype>
								<pproBypass>false</pproBypass>
								<parameter authoringApp="PremierePro">
									<parameterid>opacity</parameterid>
									<name>opacity</name>
									<valuemin>0</valuemin>
									<valuemax>100</valuemax>
									<value>100</value>
								</parameter>
							</effect>
						</filter>
							<marker>
								<comment></comment>
								<name></name>
								<in>57</in>
								<out>-1</out>
								<pproColor>4294741314</pproColor>
							</marker>
						<labels>
							<label2>Forest</label2>
						</labels>
					</clipitem>
					<clipitem id="clipitem-681">
						<masterclipid>masterclip-304</masterclipid>
						<name>7_TITLE</name>
						<enabled>TRUE</enabled>
						<duration>475</duration>
						<rate>
							<timebase>25</timebase>
							<ntsc>FALSE</ntsc>
						</rate>
						<start>28009</start>
						<end>28359</end>
						<in>0</in>
						<out>475</out>
						<pproTicksIn>0</pproTicksIn>
						<pproTicksOut>4826304000000</pproTicksOut>
						<sequence id="sequence-45" TL.SQAudioVisibleBase="0" TL.SQVideoVisibleBase="0" TL.SQVisibleBaseTime="0" TL.SQAVDividerPosition="0.5" TL.SQHideShyTracks="0" TL.SQHeaderWidth="236" TL.SQDataTrackViewControlState="0" Monitor.ProgramZoomOut="4826304000000" Monitor.ProgramZoomIn="0" TL.SQTimePerPixel="0.024999999999999998" AM.TrackVScrollPosition="0" AM.TrackScrollPosition="0" MZ.EditLine="2844979200000" MZ.Sequence.PreviewFrameSizeHeight="576" MZ.Sequence.PreviewFrameSizeWidth="720" MZ.Sequence.AudioTimeDisplayFormat="200" MZ.Sequence.PreviewRenderingClassID="1061109567" MZ.Sequence.PreviewRenderingPresetCodec="1685480304" MZ.Sequence.PreviewRenderingPresetPath="EncoderPresets/SequencePreview/04be6e19-a018-4e0c-a9d6-0ab44c64752b/QuickTime DV PAL.epr" MZ.Sequence.PreviewUseMaxRenderQuality="false" MZ.Sequence.PreviewUseMaxBitDepth="false" MZ.Sequence.EditingModeGUID="04be6e19-a018-4e0c-a9d6-0ab44c64752b" MZ.Sequence.VideoTimeDisplayFormat="101" MZ.WorkOutPoint="4826304000000" MZ.WorkInPoint="0" MZ.ZeroPoint="0">
							<duration>475</duration>
							<rate>
								<timebase>25</timebase>
								<ntsc>FALSE</ntsc>
							</rate>
							<name>титр</name>
							<media>
								<video>
									<format>
										<samplecharacteristics>
											<rate>
												<timebase>25</timebase>
												<ntsc>FALSE</ntsc>
											</rate>
											<codec>
												<name>Apple ProRes 422</name>
												<appspecificdata>
													<appname>Final Cut Pro</appname>
													<appmanufacturer>Apple Inc.</appmanufacturer>
													<appversion>7.0</appversion>
													<data>
														<qtcodec>
															<codecname>Apple ProRes 422</codecname>
															<codectypename>Apple ProRes 422</codectypename>
															<codectypecode>apcn</codectypecode>
															<codecvendorcode>appl</codecvendorcode>
															<spatialquality>1024</spatialquality>
															<temporalquality>0</temporalquality>
															<keyframerate>0</keyframerate>
															<datarate>0</datarate>
														</qtcodec>
													</data>
												</appspecificdata>
											</codec>
											<width>720</width>
											<height>576</height>
											<anamorphic>TRUE</anamorphic>
											<pixelaspectratio>PAL-601</pixelaspectratio>
											<fielddominance>lower</fielddominance>
											<colordepth>24</colordepth>
										</samplecharacteristics>
									</format>
									<track TL.SQTrackShy="0" TL.SQTrackExpandedHeight="25" TL.SQTrackExpanded="0" MZ.TrackTargeted="1">
										<clipitem id="clipitem-682">
											<masterclipid>masterclip-305</masterclipid>
											<name>9_title.mov</name>
											<enabled>TRUE</enabled>
											<duration>225</duration>
											<rate>
												<timebase>25</timebase>
												<ntsc>FALSE</ntsc>
											</rate>
											<start>125</start>
											<end>350</end>
											<in>0</in>
											<out>225</out>
											<pproTicksIn>0</pproTicksIn>
											<pproTicksOut>2286144000000</pproTicksOut>
											<alphatype>straight</alphatype>
											<pixelaspectratio>square</pixelaspectratio>
											<anamorphic>FALSE</anamorphic>
											<file id="file-264">
												<name>6_title.mov</name>
												<pathurl>file://localhost/_MUZ_TV/graphika/RU-21/MOD/title_plashka/6_title.mov</pathurl>
												<rate>
													<timebase>25</timebase>
													<ntsc>FALSE</ntsc>
												</rate>
												<duration>225</duration>
												<timecode>
													<rate>
														<timebase>25</timebase>
														<ntsc>FALSE</ntsc>
													</rate>
													<string>00:00:36:00</string>
													<frame>900</frame>
													<displayformat>NDF</displayformat>
												</timecode>
												<media>
													<video>
														<samplecharacteristics>
															<rate>
																<timebase>25</timebase>
																<ntsc>FALSE</ntsc>
															</rate>
															<width>1920</width>
															<height>1080</height>
															<anamorphic>FALSE</anamorphic>
															<pixelaspectratio>square</pixelaspectratio>
															<fielddominance>none</fielddominance>
														</samplecharacteristics>
													</video>
												</media>
											</file>
											<filter>
												<effect>
													<name>Basic Motion</name>
													<effectid>basic</effectid>
													<effectcategory>motion</effectcategory>
													<effecttype>motion</effecttype>
													<mediatype>video</mediatype>
													<pproBypass>false</pproBypass>
													<parameter authoringApp="PremierePro">
														<parameterid>scale</parameterid>
														<name>Scale</name>
														<valuemin>0</valuemin>
														<valuemax>1000</valuemax>
														<value>55</value>
													</parameter>
													<parameter authoringApp="PremierePro">
														<parameterid>rotation</parameterid>
														<name>Rotation</name>
														<valuemin>-8640</valuemin>
														<valuemax>8640</valuemax>
														<value>0</value>
													</parameter>
													<parameter authoringApp="PremierePro">
														<parameterid>center</parameterid>
														<name>Center</name>
														<value>
															<horiz>0</horiz>
															<vert>0</vert>
														</value>
													</parameter>
													<parameter authoringApp="PremierePro">
														<parameterid>centerOffset</parameterid>
														<name>Anchor Point</name>
														<value>
															<horiz>0</horiz>
															<vert>0</vert>
														</value>
													</parameter>
													<parameter authoringApp="PremierePro">
														<parameterid>antiflicker</parameterid>
														<name>Anti-flicker Filter</name>
														<valuemin>0.0</valuemin>
														<valuemax>1.0</valuemax>
														<value>0</value>
													</parameter>
												</effect>
											</filter>
											<filter>
												<effect>
													<name>Distort</name>
													<effectid>deformation</effectid>
													<effectcategory>motion</effectcategory>
													<effecttype>motion</effecttype>
													<mediatype>video</mediatype>
													<parameter authoringApp="PremierePro">
														<parameterid>aspect</parameterid>
														<name>Aspect</name>
														<valuemin>-10000</valuemin>
														<valuemax>10000</valuemax>
														<value>-3.12506</value>
													</parameter>
												</effect>
											</filter>
											<logginginfo>
												<description></description>
												<scene></scene>
												<shottake></shottake>
												<lognote></lognote>
												<good></good>
												<originalvideofilename></originalvideofilename>
												<originalaudiofilename></originalaudiofilename>
											</logginginfo>
											<colorinfo>
												<lut></lut>
												<lut1></lut1>
												<asc_sop></asc_sop>
												<asc_sat></asc_sat>
												<lut2></lut2>
											</colorinfo>
											<labels>
												<label2>Violet</label2>
											</labels>
										</clipitem>
										<clipitem id="clipitem-683">
											<masterclipid>masterclip-306</masterclipid>
											<name>Graphic</name>
											<enabled>FALSE</enabled>
											<duration>1080000</duration>
											<rate>
												<timebase>25</timebase>
												<ntsc>FALSE</ntsc>
											</rate>
											<start>350</start>
											<end>475</end>
											<in>90000</in>
											<out>90125</out>
											<pproTicksIn>914457600000000</pproTicksIn>
											<pproTicksOut>915727680000000</pproTicksOut>
											<alphatype>straight</alphatype>
											<pixelaspectratio>PAL-601</pixelaspectratio>
											<anamorphic>TRUE</anamorphic>
											<file id="file-265">
												<name>Graphic</name>
												<mediaSource>GraphicAndType</mediaSource>
												<rate>
													<timebase>30</timebase>
													<ntsc>TRUE</ntsc>
												</rate>
												<timecode>
													<rate>
														<timebase>30</timebase>
														<ntsc>TRUE</ntsc>
													</rate>
													<string>00;00;00;00</string>
													<frame>0</frame>
													<displayformat>DF</displayformat>
												</timecode>
												<media>
													<video>
														<samplecharacteristics>
															<rate>
																<timebase>30</timebase>
																<ntsc>TRUE</ntsc>
															</rate>
															<width>720</width>
															<height>576</height>
															<anamorphic>TRUE</anamorphic>
															<pixelaspectratio>PAL-601</pixelaspectratio>
															<fielddominance>none</fielddominance>
														</samplecharacteristics>
													</video>
												</media>
											</file>
											<filter>
												<effect>
													<name>Basic Motion</name>
													<effectid>basic</effectid>
													<effectcategory>motion</effectcategory>
													<effecttype>motion</effecttype>
													<mediatype>video</mediatype>
													<pproBypass>false</pproBypass>
													<parameter authoringApp="PremierePro">
														<parameterid>scale</parameterid>
														<name>Scale</name>
														<valuemin>0</valuemin>
														<valuemax>1000</valuemax>
														<value>133.333</value>
													</parameter>
													<parameter authoringApp="PremierePro">
														<parameterid>rotation</parameterid>
														<name>Rotation</name>
														<valuemin>-8640</valuemin>
														<valuemax>8640</valuemax>
														<value>0</value>
													</parameter>
													<parameter authoringApp="PremierePro">
														<parameterid>center</parameterid>
														<name>Center</name>
														<value>
															<horiz>0</horiz>
															<vert>0</vert>
														</value>
													</parameter>
													<parameter authoringApp="PremierePro">
														<parameterid>centerOffset</parameterid>
														<name>Anchor Point</name>
														<value>
															<horiz>0</horiz>
															<vert>0</vert>
														</value>
													</parameter>
													<parameter authoringApp="PremierePro">
														<parameterid>antiflicker</parameterid>
														<name>Anti-flicker Filter</name>
														<valuemin>0.0</valuemin>
														<valuemax>1.0</valuemax>
														<value>0</value>
													</parameter>
												</effect>
											</filter>
											<filter>
												<effect>
													<name>Distort</name>
													<effectid>deformation</effectid>
													<effectcategory>motion</effectcategory>
													<effecttype>motion</effecttype>
													<mediatype>video</mediatype>
													<parameter authoringApp="PremierePro">
														<parameterid>aspect</parameterid>
														<name>Aspect</name>
														<valuemin>-10000</valuemin>
														<valuemax>10000</valuemax>
														<value>-33.333</value>
													</parameter>
												</effect>
											</filter>
											<filter>
												<effect>
													<name></name>
													<effectid>GraphicAndType</effectid>
													<effectcategory>graphic</effectcategory>
													<effecttype>filter</effecttype>
													<mediatype>video</mediatype>
													<pproBypass>false</pproBypass>
													<parameter authoringApp="PremierePro">
														<parameterid>1</parameterid>
														<name>Source Text</name>
														<hash>3f0faa81-c1b0-8370-b66c-fa0b000009f1</hash>
													</parameter>
													<parameter authoringApp="PremierePro">
														<parameterid>2</parameterid>
														<name>Transform</name>
														<IsTimeVarying>false</IsTimeVarying>
														<ParameterControlType>11</ParameterControlType>
														<LowerBound>false</LowerBound>
														<UpperBound>false</UpperBound>
														<value>-91445760000000000,false,0,0,0,0,0,0</value>
													</parameter>
													<parameter authoringApp="PremierePro">
														<parameterid>3</parameterid>
														<name>Position</name>
														<IsTimeVarying>false</IsTimeVarying>
														<value>-91445760000000000,0.55605381727218628:0.73039215803146362,0,0,0,0,0,0,5,4,0,0,0,0</value>
													</parameter>
													<parameter authoringApp="PremierePro">
														<parameterid>4</parameterid>
														<name>Scale</name>
														<IsTimeVarying>false</IsTimeVarying>
														<ParameterControlType>2</ParameterControlType>
														<LowerBound>0</LowerBound>
														<UpperBound>4000</UpperBound>
														<value>-91445760000000000,100.,0,0,0,0,0,0</value>
													</parameter>
													<parameter authoringApp="PremierePro">
														<parameterid>5</parameterid>
														<name>Horizontal Scale</name>
														<IsTimeVarying>false</IsTimeVarying>
														<ParameterControlType>2</ParameterControlType>
														<LowerBound>0</LowerBound>
														<UpperBound>4000</UpperBound>
														<value>-91445760000000000,100.,0,0,0,0,0,0</value>
													</parameter>
													<parameter authoringApp="PremierePro">
														<parameterid>6</parameterid>
														<name> </name>
														<IsTimeVarying>false</IsTimeVarying>
														<ParameterControlType>4</ParameterControlType>
														<LowerBound>false</LowerBound>
														<UpperBound>true</UpperBound>
														<value>-91445760000000000,true,0,0,0,0,0,0</value>
													</parameter>
													<parameter authoringApp="PremierePro">
														<parameterid>7</parameterid>
														<name>Rotation</name>
														<IsTimeVarying>false</IsTimeVarying>
														<ParameterControlType>3</ParameterControlType>
														<LowerBound>-32768</LowerBound>
														<UpperBound>32767</UpperBound>
														<value>-91445760000000000,0.,0,0,0,0,0,0</value>
													</parameter>
													<parameter authoringApp="PremierePro">
														<parameterid>8</parameterid>
														<name>Opacity</name>
														<IsTimeVarying>false</IsTimeVarying>
														<ParameterControlType>2</ParameterControlType>
														<LowerBound>0</LowerBound>
														<UpperBound>100</UpperBound>
														<value>-91445760000000000,100.,0,0,0,0,0,0</value>
													</parameter>
													<parameter authoringApp="PremierePro">
														<parameterid>9</parameterid>
														<name>Anchor Point</name>
														<IsTimeVarying>false</IsTimeVarying>
														<value>-91445760000000000,0:0,0,0,0,0,0,0,5,4,0,0,0,0</value>
													</parameter>
													<parameter authoringApp="PremierePro">
														<parameterid>10</parameterid>
														<name></name>
														<IsTimeVarying>false</IsTimeVarying>
														<ParameterControlType>12</ParameterControlType>
														<LowerBound>false</LowerBound>
														<UpperBound>false</UpperBound>
														<value>-91445760000000000,false,0,0,0,0,0,0</value>
													</parameter>
													<parameter authoringApp="PremierePro">
														<parameterid>11</parameterid>
														<name> </name>
														<IsTimeVarying>false</IsTimeVarying>
														<ParameterControlType>8</ParameterControlType>
														<LowerBound>0</LowerBound>
														<UpperBound>32768</UpperBound>
														<value>-91445760000000000,0.,0,0,0,0,0,0</value>
													</parameter>
													<parameter authoringApp="PremierePro">
														<parameterid>12</parameterid>
														<name> </name>
														<IsTimeVarying>false</IsTimeVarying>
														<ParameterControlType>8</ParameterControlType>
														<LowerBound>0</LowerBound>
														<UpperBound>32768</UpperBound>
														<value>-91445760000000000,0.,0,0,0,0,0,0</value>
													</parameter>
													<parameter authoringApp="PremierePro">
														<parameterid>13</parameterid>
														<name>start</name>
														<IsTimeVarying>false</IsTimeVarying>
														<ParameterControlType>8</ParameterControlType>
														<LowerBound>-100</LowerBound>
														<UpperBound>1000000000</UpperBound>
														<value>-91445760000000000,0.,0,0,0,0,0,0</value>
													</parameter>
													<parameter authoringApp="PremierePro">
														<parameterid>14</parameterid>
														<name>end</name>
														<IsTimeVarying>false</IsTimeVarying>
														<ParameterControlType>8</ParameterControlType>
														<LowerBound>-100</LowerBound>
														<UpperBound>1000000000</UpperBound>
														<value>-91445760000000000,0.,0,0,0,0,0,0</value>
													</parameter>
													<parameter authoringApp="PremierePro">
														<parameterid>15</parameterid>
														<name> </name>
														<IsTimeVarying>false</IsTimeVarying>
														<ParameterControlType>4</ParameterControlType>
														<LowerBound>false</LowerBound>
														<UpperBound>true</UpperBound>
														<value>-91445760000000000,false,0,0,0,0,0,0</value>
													</parameter>
													<parameter authoringApp="PremierePro">
														<parameterid>16</parameterid>
														<name> </name>
														<IsTimeVarying>false</IsTimeVarying>
														<ParameterControlType>4</ParameterControlType>
														<LowerBound>false</LowerBound>
														<UpperBound>true</UpperBound>
														<value>-91445760000000000,false,0,0,0,0,0,0</value>
													</parameter>
													<parameter authoringApp="PremierePro">
														<parameterid>17</parameterid>
														<name> </name>
														<IsTimeVarying>false</IsTimeVarying>
														<ParameterControlType>4</ParameterControlType>
														<LowerBound>false</LowerBound>
														<UpperBound>true</UpperBound>
														<value>-91445760000000000,false,0,0,0,0,0,0</value>
													</parameter>
													<parameter authoringApp="PremierePro">
														<parameterid>18</parameterid>
														<name> </name>
														<IsTimeVarying>false</IsTimeVarying>
														<ParameterControlType>4</ParameterControlType>
														<LowerBound>false</LowerBound>
														<UpperBound>true</UpperBound>
														<value>-91445760000000000,false,0,0,0,0,0,0</value>
													</parameter>
													<parameter authoringApp="PremierePro">
														<parameterid>19</parameterid>
														<name>Parent Width</name>
														<IsTimeVarying>false</IsTimeVarying>
														<ParameterControlType>2</ParameterControlType>
														<LowerBound>0</LowerBound>
														<UpperBound>20000</UpperBound>
														<value>-91445760000000000,0.,0,0,0,0,0,0</value>
													</parameter>
													<parameter authoringApp="PremierePro">
														<parameterid>20</parameterid>
														<name>Parent Height</name>
														<IsTimeVarying>false</IsTimeVarying>
														<ParameterControlType>2</ParameterControlType>
														<LowerBound>0</LowerBound>
														<UpperBound>20000</UpperBound>
														<value>-91445760000000000,0.,0,0,0,0,0,0</value>
													</parameter>
													<parameter authoringApp="PremierePro">
														<parameterid>21</parameterid>
														<name>Parent Rotation</name>
														<IsTimeVarying>false</IsTimeVarying>
														<ParameterControlType>3</ParameterControlType>
														<LowerBound>-32768</LowerBound>
														<UpperBound>32767</UpperBound>
														<value>-91445760000000000,0.,0,0,0,0,0,0</value>
													</parameter>
												</effect>
											</filter>
											<logginginfo>
												<description></description>
												<scene></scene>
												<shottake></shottake>
												<lognote></lognote>
												<good></good>
												<originalvideofilename></originalvideofilename>
												<originalaudiofilename></originalaudiofilename>
											</logginginfo>
											<colorinfo>
												<lut></lut>
												<lut1></lut1>
												<asc_sop></asc_sop>
												<asc_sat></asc_sat>
												<lut2></lut2>
											</colorinfo>
										</clipitem>
										<enabled>TRUE</enabled>
										<locked>FALSE</locked>
									</track>
									<track TL.SQTrackShy="0" TL.SQTrackExpandedHeight="25" TL.SQTrackExpanded="0" MZ.TrackTargeted="0">
										<transitionitem>
											<start>167</start>
											<end>224</end>
											<alignment>start-black</alignment>
											<cutPointTicks>0</cutPointTicks>
											<rate>
												<timebase>25</timebase>
												<ntsc>FALSE</ntsc>
											</rate>
											<effect>
												<name>Edge Wipe</name>
												<effectid>Edge Wipe</effectid>
												<effectcategory>Wipe</effectcategory>
												<effecttype>transition</effecttype>
												<mediatype>video</mediatype>
												<wipecode>2</wipecode>
												<wipeaccuracy>100</wipeaccuracy>
												<startratio>0</startratio>
												<endratio>1</endratio>
												<reverse>FALSE</reverse>
												<parameter authoringApp="PremierePro">
													<parameterid>directionofwipe</parameterid>
													<name>Angle</name>
													<valuemin>-360</valuemin>
													<valuemax>360</valuemax>
													<value>90</value>
												</parameter>
											</effect>
										</transitionitem>
										<clipitem id="clipitem-684">
											<masterclipid>masterclip-307</masterclipid>
											<name>9.png</name>
											<enabled>TRUE</enabled>
											<duration>1080000</duration>
											<rate>
												<timebase>25</timebase>
												<ntsc>FALSE</ntsc>
											</rate>
											<start>-1</start>
											<end>-1</end>
											<in>90042</in>
											<out>90225</out>
											<pproTicksIn>914884346880000</pproTicksIn>
											<pproTicksOut>916743744000000</pproTicksOut>
											<alphatype>straight</alphatype>
											<pixelaspectratio>square</pixelaspectratio>
											<anamorphic>FALSE</anamorphic>
											<file id="file-266">
												<name>7.png</name>
												<pathurl>file://localhost/_MUZ_TV/project_AP/RU/_TITLE/END/7.png</pathurl>
												<rate>
													<timebase>30</timebase>
													<ntsc>TRUE</ntsc>
												</rate>
												<timecode>
													<rate>
														<timebase>30</timebase>
														<ntsc>TRUE</ntsc>
													</rate>
													<string>00;00;00;00</string>
													<frame>0</frame>
													<displayformat>DF</displayformat>
												</timecode>
												<media>
													<video>
														<samplecharacteristics>
															<rate>
																<timebase>30</timebase>
																<ntsc>TRUE</ntsc>
															</rate>
															<width>1920</width>
															<height>1080</height>
															<anamorphic>FALSE</anamorphic>
															<pixelaspectratio>square</pixelaspectratio>
															<fielddominance>none</fielddominance>
														</samplecharacteristics>
													</video>
												</media>
											</file>
											<filter>
												<effect>
													<name>Basic Motion</name>
													<effectid>basic</effectid>
													<effectcategory>motion</effectcategory>
													<effecttype>motion</effecttype>
													<mediatype>video</mediatype>
													<pproBypass>false</pproBypass>
													<parameter authoringApp="PremierePro">
														<parameterid>scale</parameterid>
														<name>Scale</name>
														<valuemin>0</valuemin>
														<valuemax>1000</valuemax>
														<value>53.3333</value>
													</parameter>
													<parameter authoringApp="PremierePro">
														<parameterid>rotation</parameterid>
														<name>Rotation</name>
														<valuemin>-8640</valuemin>
														<valuemax>8640</valuemax>
														<value>0</value>
													</parameter>
													<parameter authoringApp="PremierePro">
														<parameterid>center</parameterid>
														<name>Center</name>
														<value>
															<horiz>0</horiz>
															<vert>0</vert>
														</value>
													</parameter>
													<parameter authoringApp="PremierePro">
														<parameterid>centerOffset</parameterid>
														<name>Anchor Point</name>
														<value>
															<horiz>0</horiz>
															<vert>0</vert>
														</value>
													</parameter>
													<parameter authoringApp="PremierePro">
														<parameterid>antiflicker</parameterid>
														<name>Anti-flicker Filter</name>
														<valuemin>0.0</valuemin>
														<valuemax>1.0</valuemax>
														<value>0</value>
													</parameter>
												</effect>
											</filter>
											<logginginfo>
												<description></description>
												<scene></scene>
												<shottake></shottake>
												<lognote></lognote>
												<good></good>
												<originalvideofilename></originalvideofilename>
												<originalaudiofilename></originalaudiofilename>
											</logginginfo>
											<colorinfo>
												<lut></lut>
												<lut1></lut1>
												<asc_sop></asc_sop>
												<asc_sat></asc_sat>
												<lut2></lut2>
											</colorinfo>
											<labels>
												<label2>Lavender</label2>
											</labels>
										</clipitem>
										<transitionitem>
											<start>328</start>
											<end>350</end>
											<alignment>end-black</alignment>
											<cutPointTicks>223534080000</cutPointTicks>
											<rate>
												<timebase>25</timebase>
												<ntsc>FALSE</ntsc>
											</rate>
											<effect>
												<name>Edge Wipe</name>
												<effectid>Edge Wipe</effectid>
												<effectcategory>Wipe</effectcategory>
												<effecttype>transition</effecttype>
												<mediatype>video</mediatype>
												<wipecode>2</wipecode>
												<wipeaccuracy>100</wipeaccuracy>
												<startratio>0</startratio>
												<endratio>1</endratio>
												<reverse>FALSE</reverse>
												<parameter authoringApp="PremierePro">
													<parameterid>directionofwipe</parameterid>
													<name>Angle</name>
													<valuemin>-360</valuemin>
													<valuemax>360</valuemax>
													<value>90</value>
												</parameter>
											</effect>
										</transitionitem>
										<enabled>TRUE</enabled>
										<locked>FALSE</locked>
									</track>
									<track TL.SQTrackShy="0" TL.SQTrackExpandedHeight="25" TL.SQTrackExpanded="0" MZ.TrackTargeted="0">
										<transitionitem>
											<start>167</start>
											<end>224</end>
											<alignment>start-black</alignment>
											<cutPointTicks>0</cutPointTicks>
											<rate>
												<timebase>25</timebase>
												<ntsc>FALSE</ntsc>
											</rate>
											<effect>
												<name>Edge Wipe</name>
												<effectid>Edge Wipe</effectid>
												<effectcategory>Wipe</effectcategory>
												<effecttype>transition</effecttype>
												<mediatype>video</mediatype>
												<wipecode>2</wipecode>
												<wipeaccuracy>100</wipeaccuracy>
												<startratio>0</startratio>
												<endratio>1</endratio>
												<reverse>FALSE</reverse>
												<parameter authoringApp="PremierePro">
													<parameterid>directionofwipe</parameterid>
													<name>Angle</name>
													<valuemin>-360</valuemin>
													<valuemax>360</valuemax>
													<value>90</value>
												</parameter>
											</effect>
										</transitionitem>
										<clipitem id="clipitem-685">
											<masterclipid>masterclip-308</masterclipid>
											<name>Graphic</name>
											<enabled>FALSE</enabled>
											<duration>1080000</duration>
											<rate>
												<timebase>25</timebase>
												<ntsc>FALSE</ntsc>
											</rate>
											<start>-1</start>
											<end>-1</end>
											<in>89998</in>
											<out>90181</out>
											<pproTicksIn>914437278720000</pproTicksIn>
											<pproTicksOut>916296675840000</pproTicksOut>
											<alphatype>straight</alphatype>
											<pixelaspectratio>PAL-601</pixelaspectratio>
											<anamorphic>TRUE</anamorphic>
											<file id="file-267">
												<name>Graphic</name>
												<mediaSource>GraphicAndType</mediaSource>
												<rate>
													<timebase>30</timebase>
													<ntsc>TRUE</ntsc>
												</rate>
												<timecode>
													<rate>
														<timebase>30</timebase>
														<ntsc>TRUE</ntsc>
													</rate>
													<string>00;00;00;00</string>
													<frame>0</frame>
													<displayformat>DF</displayformat>
												</timecode>
												<media>
													<video>
														<samplecharacteristics>
															<rate>
																<timebase>30</timebase>
																<ntsc>TRUE</ntsc>
															</rate>
															<width>720</width>
															<height>576</height>
															<anamorphic>TRUE</anamorphic>
															<pixelaspectratio>PAL-601</pixelaspectratio>
															<fielddominance>none</fielddominance>
														</samplecharacteristics>
													</video>
												</media>
											</file>
											<filter>
												<effect>
													<name>АРТУР ПИРОЖКОВ&#13;ЛЕТОМ НА ФИЕСТЕ</name>
													<effectid>GraphicAndType</effectid>
													<effectcategory>graphic</effectcategory>
													<effecttype>filter</effecttype>
													<mediatype>video</mediatype>
													<pproBypass>false</pproBypass>
													<pproExpanded>true</pproExpanded>
													<parameter authoringApp="PremierePro">
														<parameterid>1</parameterid>
														<name>Source Text</name>
														<hash>dc092258-f6b9-fd91-a76f-c3e700000476</hash>
													</parameter>
													<parameter authoringApp="PremierePro">
														<parameterid>2</parameterid>
														<name>Transform</name>
														<IsTimeVarying>false</IsTimeVarying>
														<ParameterControlType>11</ParameterControlType>
														<LowerBound>false</LowerBound>
														<UpperBound>false</UpperBound>
														<value>-91445760000000000,false,0,0,0,0,0,0</value>
													</parameter>
													<parameter authoringApp="PremierePro">
														<parameterid>3</parameterid>
														<name>Position</name>
														<IsTimeVarying>false</IsTimeVarying>
														<value>-91445760000000000,0.36944580078125:0.86468505859375,0,0,0,0,0,0,5,4,0,0,0,0</value>
													</parameter>
													<parameter authoringApp="PremierePro">
														<parameterid>4</parameterid>
														<name>Scale</name>
														<IsTimeVarying>false</IsTimeVarying>
														<ParameterControlType>2</ParameterControlType>
														<LowerBound>0</LowerBound>
														<UpperBound>4000</UpperBound>
														<value>-91445760000000000,100.,0,0,0,0,0,0</value>
													</parameter>
													<parameter authoringApp="PremierePro">
														<parameterid>5</parameterid>
														<name>Horizontal Scale</name>
														<IsTimeVarying>false</IsTimeVarying>
														<ParameterControlType>2</ParameterControlType>
														<LowerBound>0</LowerBound>
														<UpperBound>4000</UpperBound>
														<value>-91445760000000000,100.,0,0,0,0,0,0</value>
													</parameter>
													<parameter authoringApp="PremierePro">
														<parameterid>6</parameterid>
														<name> </name>
														<IsTimeVarying>false</IsTimeVarying>
														<ParameterControlType>4</ParameterControlType>
														<LowerBound>false</LowerBound>
														<UpperBound>true</UpperBound>
														<value>-91445760000000000,true,0,0,0,0,0,0</value>
													</parameter>
													<parameter authoringApp="PremierePro">
														<parameterid>7</parameterid>
														<name>Rotation</name>
														<IsTimeVarying>false</IsTimeVarying>
														<ParameterControlType>3</ParameterControlType>
														<LowerBound>-32768</LowerBound>
														<UpperBound>32767</UpperBound>
														<value>-91445760000000000,0.,0,0,0,0,0,0</value>
													</parameter>
													<parameter authoringApp="PremierePro">
														<parameterid>8</parameterid>
														<name>Opacity</name>
														<IsTimeVarying>false</IsTimeVarying>
														<ParameterControlType>2</ParameterControlType>
														<LowerBound>0</LowerBound>
														<UpperBound>100</UpperBound>
														<value>-91445760000000000,100.,0,0,0,0,0,0</value>
													</parameter>
													<parameter authoringApp="PremierePro">
														<parameterid>9</parameterid>
														<name>Anchor Point</name>
														<IsTimeVarying>false</IsTimeVarying>
														<value>-91445760000000000,0:0,0,0,0,0,0,0,5,4,0,0,0,0</value>
													</parameter>
													<parameter authoringApp="PremierePro">
														<parameterid>10</parameterid>
														<name></name>
														<IsTimeVarying>false</IsTimeVarying>
														<ParameterControlType>12</ParameterControlType>
														<LowerBound>false</LowerBound>
														<UpperBound>false</UpperBound>
														<value>-91445760000000000,false,0,0,0,0,0,0</value>
													</parameter>
													<parameter authoringApp="PremierePro">
														<parameterid>11</parameterid>
														<name> </name>
														<IsTimeVarying>false</IsTimeVarying>
														<ParameterControlType>8</ParameterControlType>
														<LowerBound>0</LowerBound>
														<UpperBound>32768</UpperBound>
														<value>-91445760000000000,0.,0,0,0,0,0,0</value>
													</parameter>
													<parameter authoringApp="PremierePro">
														<parameterid>12</parameterid>
														<name> </name>
														<IsTimeVarying>false</IsTimeVarying>
														<ParameterControlType>8</ParameterControlType>
														<LowerBound>0</LowerBound>
														<UpperBound>32768</UpperBound>
														<value>-91445760000000000,0.,0,0,0,0,0,0</value>
													</parameter>
													<parameter authoringApp="PremierePro">
														<parameterid>13</parameterid>
														<name>start</name>
														<IsTimeVarying>false</IsTimeVarying>
														<ParameterControlType>8</ParameterControlType>
														<LowerBound>-100</LowerBound>
														<UpperBound>1000000000</UpperBound>
														<value>-91445760000000000,30.,0,0,0,0,0,0</value>
													</parameter>
													<parameter authoringApp="PremierePro">
														<parameterid>14</parameterid>
														<name>end</name>
														<IsTimeVarying>false</IsTimeVarying>
														<ParameterControlType>8</ParameterControlType>
														<LowerBound>-100</LowerBound>
														<UpperBound>1000000000</UpperBound>
														<value>-91445760000000000,30.,0,0,0,0,0,0</value>
													</parameter>
													<parameter authoringApp="PremierePro">
														<parameterid>15</parameterid>
														<name> </name>
														<IsTimeVarying>false</IsTimeVarying>
														<ParameterControlType>4</ParameterControlType>
														<LowerBound>false</LowerBound>
														<UpperBound>true</UpperBound>
														<value>-91445760000000000,false,0,0,0,0,0,0</value>
													</parameter>
													<parameter authoringApp="PremierePro">
														<parameterid>16</parameterid>
														<name> </name>
														<IsTimeVarying>false</IsTimeVarying>
														<ParameterControlType>4</ParameterControlType>
														<LowerBound>false</LowerBound>
														<UpperBound>true</UpperBound>
														<value>-91445760000000000,false,0,0,0,0,0,0</value>
													</parameter>
													<parameter authoringApp="PremierePro">
														<parameterid>17</parameterid>
														<name> </name>
														<IsTimeVarying>false</IsTimeVarying>
														<ParameterControlType>4</ParameterControlType>
														<LowerBound>false</LowerBound>
														<UpperBound>true</UpperBound>
														<value>-91445760000000000,false,0,0,0,0,0,0</value>
													</parameter>
													<parameter authoringApp="PremierePro">
														<parameterid>18</parameterid>
														<name> </name>
														<IsTimeVarying>false</IsTimeVarying>
														<ParameterControlType>4</ParameterControlType>
														<LowerBound>false</LowerBound>
														<UpperBound>true</UpperBound>
														<value>-91445760000000000,false,0,0,0,0,0,0</value>
													</parameter>
													<parameter authoringApp="PremierePro">
														<parameterid>19</parameterid>
														<name>Parent Width</name>
														<IsTimeVarying>false</IsTimeVarying>
														<ParameterControlType>2</ParameterControlType>
														<LowerBound>0</LowerBound>
														<UpperBound>20000</UpperBound>
														<value>-91445760000000000,0.,0,0,0,0,0,0</value>
													</parameter>
													<parameter authoringApp="PremierePro">
														<parameterid>20</parameterid>
														<name>Parent Height</name>
														<IsTimeVarying>false</IsTimeVarying>
														<ParameterControlType>2</ParameterControlType>
														<LowerBound>0</LowerBound>
														<UpperBound>20000</UpperBound>
														<value>-91445760000000000,0.,0,0,0,0,0,0</value>
													</parameter>
													<parameter authoringApp="PremierePro">
														<parameterid>21</parameterid>
														<name>Parent Rotation</name>
														<IsTimeVarying>false</IsTimeVarying>
														<ParameterControlType>3</ParameterControlType>
														<LowerBound>-32768</LowerBound>
														<UpperBound>32767</UpperBound>
														<value>-91445760000000000,0.,0,0,0,0,0,0</value>
													</parameter>
												</effect>
											</filter>
											<logginginfo>
												<description></description>
												<scene></scene>
												<shottake></shottake>
												<lognote></lognote>
												<good></good>
												<originalvideofilename></originalvideofilename>
												<originalaudiofilename></originalaudiofilename>
											</logginginfo>
											<colorinfo>
												<lut></lut>
												<lut1></lut1>
												<asc_sop></asc_sop>
												<asc_sat></asc_sat>
												<lut2></lut2>
											</colorinfo>
										</clipitem>
										<transitionitem>
											<start>328</start>
											<end>350</end>
											<alignment>end-black</alignment>
											<cutPointTicks>223534080000</cutPointTicks>
											<rate>
												<timebase>25</timebase>
												<ntsc>FALSE</ntsc>
											</rate>
											<effect>
												<name>Edge Wipe</name>
												<effectid>Edge Wipe</effectid>
												<effectcategory>Wipe</effectcategory>
												<effecttype>transition</effecttype>
												<mediatype>video</mediatype>
												<wipecode>2</wipecode>
												<wipeaccuracy>100</wipeaccuracy>
												<startratio>0</startratio>
												<endratio>1</endratio>
												<reverse>FALSE</reverse>
												<parameter authoringApp="PremierePro">
													<parameterid>directionofwipe</parameterid>
													<name>Angle</name>
													<valuemin>-360</valuemin>
													<valuemax>360</valuemax>
													<value>90</value>
												</parameter>
											</effect>
										</transitionitem>
										<enabled>TRUE</enabled>
										<locked>FALSE</locked>
									</track>
								</video>
								<audio>
									<numOutputChannels>2</numOutputChannels>
									<format>
										<samplecharacteristics>
											<depth>16</depth>
											<samplerate>48000</samplerate>
										</samplecharacteristics>
									</format>
									<outputs>
										<group>
											<index>1</index>
											<numchannels>1</numchannels>
											<downmix>0</downmix>
											<channel>
												<index>1</index>
											</channel>
										</group>
										<group>
											<index>2</index>
											<numchannels>1</numchannels>
											<downmix>0</downmix>
											<channel>
												<index>2</index>
											</channel>
										</group>
									</outputs>
									<track TL.SQTrackAudioKeyframeStyle="0" TL.SQTrackShy="0" TL.SQTrackExpandedHeight="25" TL.SQTrackExpanded="0" MZ.TrackTargeted="1" PannerCurrentValue="0.5" PannerStartKeyframe="-91445760000000000,0.5,0,0,0,0,0,0" PannerName="Balance" currentExplodedTrackIndex="0" totalExplodedTrackCount="2" premiereTrackType="Stereo">
										<enabled>TRUE</enabled>
										<locked>FALSE</locked>
										<outputchannelindex>1</outputchannelindex>
									</track>
									<track TL.SQTrackAudioKeyframeStyle="0" TL.SQTrackShy="0" TL.SQTrackExpandedHeight="25" TL.SQTrackExpanded="0" MZ.TrackTargeted="1" PannerCurrentValue="0.5" PannerStartKeyframe="-91445760000000000,0.5,0,0,0,0,0,0" PannerName="Balance" currentExplodedTrackIndex="1" totalExplodedTrackCount="2" premiereTrackType="Stereo">
										<enabled>TRUE</enabled>
										<locked>FALSE</locked>
										<outputchannelindex>2</outputchannelindex>
									</track>
								</audio>
							</media>
							<timecode>
								<rate>
									<timebase>25</timebase>
									<ntsc>FALSE</ntsc>
								</rate>
								<string>00:00:00:00</string>
								<frame>0</frame>
								<displayformat>NDF</displayformat>
							</timecode>
								<marker>
									<comment></comment>
									<name></name>
									<in>125</in>
									<out>-1</out>
									<pproColor>4280578025</pproColor>
								</marker>
							<logginginfo>
								<description></description>
								<scene></scene>
								<shottake></shottake>
								<lognote></lognote>
								<good></good>
								<originalvideofilename></originalvideofilename>
								<originalaudiofilename></originalaudiofilename>
							</logginginfo>
						</sequence>
							<marker>
								<comment></comment>
								<name></name>
								<in>125</in>
								<out>-1</out>
								<pproColor>4280578025</pproColor>
							</marker>
						<labels>
							<label2>Forest</label2>
						</labels>
					</clipitem>
					<clipitem id="clipitem-686">
						<masterclipid>masterclip-304</masterclipid>
						<name>7</name>
						<enabled>TRUE</enabled>
						<duration>475</duration>
						<rate>
							<timebase>25</timebase>
							<ntsc>FALSE</ntsc>
						</rate>
						<start>32617</start>
						<end>32968</end>
						<in>124</in>
						<out>475</out>
						<pproTicksIn>1259919360000</pproTicksIn>
						<pproTicksOut>4826304000000</pproTicksOut>
						<sequence id="sequence-45"/>
							<marker>
								<comment></comment>
								<name></name>
								<in>125</in>
								<out>-1</out>
								<pproColor>4280578025</pproColor>
							</marker>
						<labels>
							<label2>Forest</label2>
						</labels>
					</clipitem>
					<clipitem id="clipitem-687">
						<masterclipid>masterclip-309</masterclipid>
						<name>6_TITLE</name>
						<enabled>TRUE</enabled>
						<duration>475</duration>
						<rate>
							<timebase>25</timebase>
							<ntsc>FALSE</ntsc>
						</rate>
						<start>33043</start>
						<end>33393</end>
						<in>0</in>
						<out>475</out>
						<pproTicksIn>0</pproTicksIn>
						<pproTicksOut>4826304000000</pproTicksOut>
						<sequence id="sequence-46" TL.SQAudioVisibleBase="0" TL.SQVideoVisibleBase="0" TL.SQVisibleBaseTime="0" TL.SQAVDividerPosition="0.5" TL.SQHideShyTracks="0" TL.SQHeaderWidth="236" TL.SQDataTrackViewControlState="0" Monitor.ProgramZoomOut="4826304000000" Monitor.ProgramZoomIn="0" TL.SQTimePerPixel="0.024999999999999998" AM.TrackVScrollPosition="0" AM.TrackScrollPosition="0" MZ.EditLine="3027870720000" MZ.Sequence.PreviewFrameSizeHeight="576" MZ.Sequence.PreviewFrameSizeWidth="720" MZ.Sequence.AudioTimeDisplayFormat="200" MZ.Sequence.PreviewRenderingClassID="1061109567" MZ.Sequence.PreviewRenderingPresetCodec="1685480304" MZ.Sequence.PreviewRenderingPresetPath="EncoderPresets/SequencePreview/04be6e19-a018-4e0c-a9d6-0ab44c64752b/QuickTime DV PAL.epr" MZ.Sequence.PreviewUseMaxRenderQuality="false" MZ.Sequence.PreviewUseMaxBitDepth="false" MZ.Sequence.EditingModeGUID="04be6e19-a018-4e0c-a9d6-0ab44c64752b" MZ.Sequence.VideoTimeDisplayFormat="101" MZ.WorkOutPoint="4826304000000" MZ.WorkInPoint="0" MZ.ZeroPoint="0">
							<duration>475</duration>
							<rate>
								<timebase>25</timebase>
								<ntsc>FALSE</ntsc>
							</rate>
							<name>титр</name>
							<media>
								<video>
									<format>
										<samplecharacteristics>
											<rate>
												<timebase>25</timebase>
												<ntsc>FALSE</ntsc>
											</rate>
											<codec>
												<name>Apple ProRes 422</name>
												<appspecificdata>
													<appname>Final Cut Pro</appname>
													<appmanufacturer>Apple Inc.</appmanufacturer>
													<appversion>7.0</appversion>
													<data>
														<qtcodec>
															<codecname>Apple ProRes 422</codecname>
															<codectypename>Apple ProRes 422</codectypename>
															<codectypecode>apcn</codectypecode>
															<codecvendorcode>appl</codecvendorcode>
															<spatialquality>1024</spatialquality>
															<temporalquality>0</temporalquality>
															<keyframerate>0</keyframerate>
															<datarate>0</datarate>
														</qtcodec>
													</data>
												</appspecificdata>
											</codec>
											<width>720</width>
											<height>576</height>
											<anamorphic>TRUE</anamorphic>
											<pixelaspectratio>PAL-601</pixelaspectratio>
											<fielddominance>lower</fielddominance>
											<colordepth>24</colordepth>
										</samplecharacteristics>
									</format>
									<track TL.SQTrackShy="0" TL.SQTrackExpandedHeight="25" TL.SQTrackExpanded="0" MZ.TrackTargeted="1">
										<clipitem id="clipitem-688">
											<masterclipid>masterclip-310</masterclipid>
											<name>9_title.mov</name>
											<enabled>TRUE</enabled>
											<duration>225</duration>
											<rate>
												<timebase>25</timebase>
												<ntsc>FALSE</ntsc>
											</rate>
											<start>125</start>
											<end>350</end>
											<in>0</in>
											<out>225</out>
											<pproTicksIn>0</pproTicksIn>
											<pproTicksOut>2286144000000</pproTicksOut>
											<alphatype>straight</alphatype>
											<pixelaspectratio>square</pixelaspectratio>
											<anamorphic>FALSE</anamorphic>
											<file id="file-268">
												<name>6_title.mov</name>
												<pathurl>file://localhost/_MUZ_TV/graphika/RU-21/MOD/title_plashka/6_title.mov</pathurl>
												<rate>
													<timebase>25</timebase>
													<ntsc>FALSE</ntsc>
												</rate>
												<duration>225</duration>
												<timecode>
													<rate>
														<timebase>25</timebase>
														<ntsc>FALSE</ntsc>
													</rate>
													<string>00:00:36:00</string>
													<frame>900</frame>
													<displayformat>NDF</displayformat>
												</timecode>
												<media>
													<video>
														<samplecharacteristics>
															<rate>
																<timebase>25</timebase>
																<ntsc>FALSE</ntsc>
															</rate>
															<width>1920</width>
															<height>1080</height>
															<anamorphic>FALSE</anamorphic>
															<pixelaspectratio>square</pixelaspectratio>
															<fielddominance>none</fielddominance>
														</samplecharacteristics>
													</video>
												</media>
											</file>
											<filter>
												<effect>
													<name>Basic Motion</name>
													<effectid>basic</effectid>
													<effectcategory>motion</effectcategory>
													<effecttype>motion</effecttype>
													<mediatype>video</mediatype>
													<pproBypass>false</pproBypass>
													<parameter authoringApp="PremierePro">
														<parameterid>scale</parameterid>
														<name>Scale</name>
														<valuemin>0</valuemin>
														<valuemax>1000</valuemax>
														<value>55</value>
													</parameter>
													<parameter authoringApp="PremierePro">
														<parameterid>rotation</parameterid>
														<name>Rotation</name>
														<valuemin>-8640</valuemin>
														<valuemax>8640</valuemax>
														<value>0</value>
													</parameter>
													<parameter authoringApp="PremierePro">
														<parameterid>center</parameterid>
														<name>Center</name>
														<value>
															<horiz>0</horiz>
															<vert>0</vert>
														</value>
													</parameter>
													<parameter authoringApp="PremierePro">
														<parameterid>centerOffset</parameterid>
														<name>Anchor Point</name>
														<value>
															<horiz>0</horiz>
															<vert>0</vert>
														</value>
													</parameter>
													<parameter authoringApp="PremierePro">
														<parameterid>antiflicker</parameterid>
														<name>Anti-flicker Filter</name>
														<valuemin>0.0</valuemin>
														<valuemax>1.0</valuemax>
														<value>0</value>
													</parameter>
												</effect>
											</filter>
											<filter>
												<effect>
													<name>Distort</name>
													<effectid>deformation</effectid>
													<effectcategory>motion</effectcategory>
													<effecttype>motion</effecttype>
													<mediatype>video</mediatype>
													<parameter authoringApp="PremierePro">
														<parameterid>aspect</parameterid>
														<name>Aspect</name>
														<valuemin>-10000</valuemin>
														<valuemax>10000</valuemax>
														<value>-3.12506</value>
													</parameter>
												</effect>
											</filter>
											<logginginfo>
												<description></description>
												<scene></scene>
												<shottake></shottake>
												<lognote></lognote>
												<good></good>
												<originalvideofilename></originalvideofilename>
												<originalaudiofilename></originalaudiofilename>
											</logginginfo>
											<colorinfo>
												<lut></lut>
												<lut1></lut1>
												<asc_sop></asc_sop>
												<asc_sat></asc_sat>
												<lut2></lut2>
											</colorinfo>
											<labels>
												<label2>Violet</label2>
											</labels>
										</clipitem>
										<clipitem id="clipitem-689">
											<masterclipid>masterclip-311</masterclipid>
											<name>Graphic</name>
											<enabled>FALSE</enabled>
											<duration>1080000</duration>
											<rate>
												<timebase>25</timebase>
												<ntsc>FALSE</ntsc>
											</rate>
											<start>350</start>
											<end>475</end>
											<in>90000</in>
											<out>90125</out>
											<pproTicksIn>914457600000000</pproTicksIn>
											<pproTicksOut>915727680000000</pproTicksOut>
											<alphatype>straight</alphatype>
											<pixelaspectratio>PAL-601</pixelaspectratio>
											<anamorphic>TRUE</anamorphic>
											<file id="file-269">
												<name>Graphic</name>
												<mediaSource>GraphicAndType</mediaSource>
												<rate>
													<timebase>30</timebase>
													<ntsc>TRUE</ntsc>
												</rate>
												<timecode>
													<rate>
														<timebase>30</timebase>
														<ntsc>TRUE</ntsc>
													</rate>
													<string>00;00;00;00</string>
													<frame>0</frame>
													<displayformat>DF</displayformat>
												</timecode>
												<media>
													<video>
														<samplecharacteristics>
															<rate>
																<timebase>30</timebase>
																<ntsc>TRUE</ntsc>
															</rate>
															<width>720</width>
															<height>576</height>
															<anamorphic>TRUE</anamorphic>
															<pixelaspectratio>PAL-601</pixelaspectratio>
															<fielddominance>none</fielddominance>
														</samplecharacteristics>
													</video>
												</media>
											</file>
											<filter>
												<effect>
													<name>Basic Motion</name>
													<effectid>basic</effectid>
													<effectcategory>motion</effectcategory>
													<effecttype>motion</effecttype>
													<mediatype>video</mediatype>
													<pproBypass>false</pproBypass>
													<parameter authoringApp="PremierePro">
														<parameterid>scale</parameterid>
														<name>Scale</name>
														<valuemin>0</valuemin>
														<valuemax>1000</valuemax>
														<value>133.333</value>
													</parameter>
													<parameter authoringApp="PremierePro">
														<parameterid>rotation</parameterid>
														<name>Rotation</name>
														<valuemin>-8640</valuemin>
														<valuemax>8640</valuemax>
														<value>0</value>
													</parameter>
													<parameter authoringApp="PremierePro">
														<parameterid>center</parameterid>
														<name>Center</name>
														<value>
															<horiz>0</horiz>
															<vert>0</vert>
														</value>
													</parameter>
													<parameter authoringApp="PremierePro">
														<parameterid>centerOffset</parameterid>
														<name>Anchor Point</name>
														<value>
															<horiz>0</horiz>
															<vert>0</vert>
														</value>
													</parameter>
													<parameter authoringApp="PremierePro">
														<parameterid>antiflicker</parameterid>
														<name>Anti-flicker Filter</name>
														<valuemin>0.0</valuemin>
														<valuemax>1.0</valuemax>
														<value>0</value>
													</parameter>
												</effect>
											</filter>
											<filter>
												<effect>
													<name>Distort</name>
													<effectid>deformation</effectid>
													<effectcategory>motion</effectcategory>
													<effecttype>motion</effecttype>
													<mediatype>video</mediatype>
													<parameter authoringApp="PremierePro">
														<parameterid>aspect</parameterid>
														<name>Aspect</name>
														<valuemin>-10000</valuemin>
														<valuemax>10000</valuemax>
														<value>-33.333</value>
													</parameter>
												</effect>
											</filter>
											<filter>
												<effect>
													<name></name>
													<effectid>GraphicAndType</effectid>
													<effectcategory>graphic</effectcategory>
													<effecttype>filter</effecttype>
													<mediatype>video</mediatype>
													<pproBypass>false</pproBypass>
													<parameter authoringApp="PremierePro">
														<parameterid>1</parameterid>
														<name>Source Text</name>
														<hash>3f0faa81-c1b0-8370-b66c-fa0b000009f1</hash>
													</parameter>
													<parameter authoringApp="PremierePro">
														<parameterid>2</parameterid>
														<name>Transform</name>
														<IsTimeVarying>false</IsTimeVarying>
														<ParameterControlType>11</ParameterControlType>
														<LowerBound>false</LowerBound>
														<UpperBound>false</UpperBound>
														<value>-91445760000000000,false,0,0,0,0,0,0</value>
													</parameter>
													<parameter authoringApp="PremierePro">
														<parameterid>3</parameterid>
														<name>Position</name>
														<IsTimeVarying>false</IsTimeVarying>
														<value>-91445760000000000,0.55605381727218628:0.73039215803146362,0,0,0,0,0,0,5,4,0,0,0,0</value>
													</parameter>
													<parameter authoringApp="PremierePro">
														<parameterid>4</parameterid>
														<name>Scale</name>
														<IsTimeVarying>false</IsTimeVarying>
														<ParameterControlType>2</ParameterControlType>
														<LowerBound>0</LowerBound>
														<UpperBound>4000</UpperBound>
														<value>-91445760000000000,100.,0,0,0,0,0,0</value>
													</parameter>
													<parameter authoringApp="PremierePro">
														<parameterid>5</parameterid>
														<name>Horizontal Scale</name>
														<IsTimeVarying>false</IsTimeVarying>
														<ParameterControlType>2</ParameterControlType>
														<LowerBound>0</LowerBound>
														<UpperBound>4000</UpperBound>
														<value>-91445760000000000,100.,0,0,0,0,0,0</value>
													</parameter>
													<parameter authoringApp="PremierePro">
														<parameterid>6</parameterid>
														<name> </name>
														<IsTimeVarying>false</IsTimeVarying>
														<ParameterControlType>4</ParameterControlType>
														<LowerBound>false</LowerBound>
														<UpperBound>true</UpperBound>
														<value>-91445760000000000,true,0,0,0,0,0,0</value>
													</parameter>
													<parameter authoringApp="PremierePro">
														<parameterid>7</parameterid>
														<name>Rotation</name>
														<IsTimeVarying>false</IsTimeVarying>
														<ParameterControlType>3</ParameterControlType>
														<LowerBound>-32768</LowerBound>
														<UpperBound>32767</UpperBound>
														<value>-91445760000000000,0.,0,0,0,0,0,0</value>
													</parameter>
													<parameter authoringApp="PremierePro">
														<parameterid>8</parameterid>
														<name>Opacity</name>
														<IsTimeVarying>false</IsTimeVarying>
														<ParameterControlType>2</ParameterControlType>
														<LowerBound>0</LowerBound>
														<UpperBound>100</UpperBound>
														<value>-91445760000000000,100.,0,0,0,0,0,0</value>
													</parameter>
													<parameter authoringApp="PremierePro">
														<parameterid>9</parameterid>
														<name>Anchor Point</name>
														<IsTimeVarying>false</IsTimeVarying>
														<value>-91445760000000000,0:0,0,0,0,0,0,0,5,4,0,0,0,0</value>
													</parameter>
													<parameter authoringApp="PremierePro">
														<parameterid>10</parameterid>
														<name></name>
														<IsTimeVarying>false</IsTimeVarying>
														<ParameterControlType>12</ParameterControlType>
														<LowerBound>false</LowerBound>
														<UpperBound>false</UpperBound>
														<value>-91445760000000000,false,0,0,0,0,0,0</value>
													</parameter>
													<parameter authoringApp="PremierePro">
														<parameterid>11</parameterid>
														<name> </name>
														<IsTimeVarying>false</IsTimeVarying>
														<ParameterControlType>8</ParameterControlType>
														<LowerBound>0</LowerBound>
														<UpperBound>32768</UpperBound>
														<value>-91445760000000000,0.,0,0,0,0,0,0</value>
													</parameter>
													<parameter authoringApp="PremierePro">
														<parameterid>12</parameterid>
														<name> </name>
														<IsTimeVarying>false</IsTimeVarying>
														<ParameterControlType>8</ParameterControlType>
														<LowerBound>0</LowerBound>
														<UpperBound>32768</UpperBound>
														<value>-91445760000000000,0.,0,0,0,0,0,0</value>
													</parameter>
													<parameter authoringApp="PremierePro">
														<parameterid>13</parameterid>
														<name>start</name>
														<IsTimeVarying>false</IsTimeVarying>
														<ParameterControlType>8</ParameterControlType>
														<LowerBound>-100</LowerBound>
														<UpperBound>1000000000</UpperBound>
														<value>-91445760000000000,0.,0,0,0,0,0,0</value>
													</parameter>
													<parameter authoringApp="PremierePro">
														<parameterid>14</parameterid>
														<name>end</name>
														<IsTimeVarying>false</IsTimeVarying>
														<ParameterControlType>8</ParameterControlType>
														<LowerBound>-100</LowerBound>
														<UpperBound>1000000000</UpperBound>
														<value>-91445760000000000,0.,0,0,0,0,0,0</value>
													</parameter>
													<parameter authoringApp="PremierePro">
														<parameterid>15</parameterid>
														<name> </name>
														<IsTimeVarying>false</IsTimeVarying>
														<ParameterControlType>4</ParameterControlType>
														<LowerBound>false</LowerBound>
														<UpperBound>true</UpperBound>
														<value>-91445760000000000,false,0,0,0,0,0,0</value>
													</parameter>
													<parameter authoringApp="PremierePro">
														<parameterid>16</parameterid>
														<name> </name>
														<IsTimeVarying>false</IsTimeVarying>
														<ParameterControlType>4</ParameterControlType>
														<LowerBound>false</LowerBound>
														<UpperBound>true</UpperBound>
														<value>-91445760000000000,false,0,0,0,0,0,0</value>
													</parameter>
													<parameter authoringApp="PremierePro">
														<parameterid>17</parameterid>
														<name> </name>
														<IsTimeVarying>false</IsTimeVarying>
														<ParameterControlType>4</ParameterControlType>
														<LowerBound>false</LowerBound>
														<UpperBound>true</UpperBound>
														<value>-91445760000000000,false,0,0,0,0,0,0</value>
													</parameter>
													<parameter authoringApp="PremierePro">
														<parameterid>18</parameterid>
														<name> </name>
														<IsTimeVarying>false</IsTimeVarying>
														<ParameterControlType>4</ParameterControlType>
														<LowerBound>false</LowerBound>
														<UpperBound>true</UpperBound>
														<value>-91445760000000000,false,0,0,0,0,0,0</value>
													</parameter>
													<parameter authoringApp="PremierePro">
														<parameterid>19</parameterid>
														<name>Parent Width</name>
														<IsTimeVarying>false</IsTimeVarying>
														<ParameterControlType>2</ParameterControlType>
														<LowerBound>0</LowerBound>
														<UpperBound>20000</UpperBound>
														<value>-91445760000000000,0.,0,0,0,0,0,0</value>
													</parameter>
													<parameter authoringApp="PremierePro">
														<parameterid>20</parameterid>
														<name>Parent Height</name>
														<IsTimeVarying>false</IsTimeVarying>
														<ParameterControlType>2</ParameterControlType>
														<LowerBound>0</LowerBound>
														<UpperBound>20000</UpperBound>
														<value>-91445760000000000,0.,0,0,0,0,0,0</value>
													</parameter>
													<parameter authoringApp="PremierePro">
														<parameterid>21</parameterid>
														<name>Parent Rotation</name>
														<IsTimeVarying>false</IsTimeVarying>
														<ParameterControlType>3</ParameterControlType>
														<LowerBound>-32768</LowerBound>
														<UpperBound>32767</UpperBound>
														<value>-91445760000000000,0.,0,0,0,0,0,0</value>
													</parameter>
												</effect>
											</filter>
											<logginginfo>
												<description></description>
												<scene></scene>
												<shottake></shottake>
												<lognote></lognote>
												<good></good>
												<originalvideofilename></originalvideofilename>
												<originalaudiofilename></originalaudiofilename>
											</logginginfo>
											<colorinfo>
												<lut></lut>
												<lut1></lut1>
												<asc_sop></asc_sop>
												<asc_sat></asc_sat>
												<lut2></lut2>
											</colorinfo>
										</clipitem>
										<enabled>TRUE</enabled>
										<locked>FALSE</locked>
									</track>
									<track TL.SQTrackShy="0" TL.SQTrackExpandedHeight="25" TL.SQTrackExpanded="0" MZ.TrackTargeted="0">
										<transitionitem>
											<start>167</start>
											<end>224</end>
											<alignment>start-black</alignment>
											<cutPointTicks>0</cutPointTicks>
											<rate>
												<timebase>25</timebase>
												<ntsc>FALSE</ntsc>
											</rate>
											<effect>
												<name>Edge Wipe</name>
												<effectid>Edge Wipe</effectid>
												<effectcategory>Wipe</effectcategory>
												<effecttype>transition</effecttype>
												<mediatype>video</mediatype>
												<wipecode>2</wipecode>
												<wipeaccuracy>100</wipeaccuracy>
												<startratio>0</startratio>
												<endratio>1</endratio>
												<reverse>FALSE</reverse>
												<parameter authoringApp="PremierePro">
													<parameterid>directionofwipe</parameterid>
													<name>Angle</name>
													<valuemin>-360</valuemin>
													<valuemax>360</valuemax>
													<value>90</value>
												</parameter>
											</effect>
										</transitionitem>
										<clipitem id="clipitem-690">
											<masterclipid>masterclip-312</masterclipid>
											<name>9.png</name>
											<enabled>TRUE</enabled>
											<duration>1080000</duration>
											<rate>
												<timebase>25</timebase>
												<ntsc>FALSE</ntsc>
											</rate>
											<start>-1</start>
											<end>-1</end>
											<in>90042</in>
											<out>90225</out>
											<pproTicksIn>914884346880000</pproTicksIn>
											<pproTicksOut>916743744000000</pproTicksOut>
											<alphatype>straight</alphatype>
											<pixelaspectratio>square</pixelaspectratio>
											<anamorphic>FALSE</anamorphic>
											<file id="file-270">
												<name>6.png</name>
												<pathurl>file://localhost/_MUZ_TV/project_AP/RU/_TITLE/END/6.png</pathurl>
												<rate>
													<timebase>30</timebase>
													<ntsc>TRUE</ntsc>
												</rate>
												<timecode>
													<rate>
														<timebase>30</timebase>
														<ntsc>TRUE</ntsc>
													</rate>
													<string>00;00;00;00</string>
													<frame>0</frame>
													<displayformat>DF</displayformat>
												</timecode>
												<media>
													<video>
														<samplecharacteristics>
															<rate>
																<timebase>30</timebase>
																<ntsc>TRUE</ntsc>
															</rate>
															<width>1920</width>
															<height>1080</height>
															<anamorphic>FALSE</anamorphic>
															<pixelaspectratio>square</pixelaspectratio>
															<fielddominance>none</fielddominance>
														</samplecharacteristics>
													</video>
												</media>
											</file>
											<filter>
												<effect>
													<name>Basic Motion</name>
													<effectid>basic</effectid>
													<effectcategory>motion</effectcategory>
													<effecttype>motion</effecttype>
													<mediatype>video</mediatype>
													<pproBypass>false</pproBypass>
													<parameter authoringApp="PremierePro">
														<parameterid>scale</parameterid>
														<name>Scale</name>
														<valuemin>0</valuemin>
														<valuemax>1000</valuemax>
														<value>53.3333</value>
													</parameter>
													<parameter authoringApp="PremierePro">
														<parameterid>rotation</parameterid>
														<name>Rotation</name>
														<valuemin>-8640</valuemin>
														<valuemax>8640</valuemax>
														<value>0</value>
													</parameter>
													<parameter authoringApp="PremierePro">
														<parameterid>center</parameterid>
														<name>Center</name>
														<value>
															<horiz>0</horiz>
															<vert>0</vert>
														</value>
													</parameter>
													<parameter authoringApp="PremierePro">
														<parameterid>centerOffset</parameterid>
														<name>Anchor Point</name>
														<value>
															<horiz>0</horiz>
															<vert>0</vert>
														</value>
													</parameter>
													<parameter authoringApp="PremierePro">
														<parameterid>antiflicker</parameterid>
														<name>Anti-flicker Filter</name>
														<valuemin>0.0</valuemin>
														<valuemax>1.0</valuemax>
														<value>0</value>
													</parameter>
												</effect>
											</filter>
											<logginginfo>
												<description></description>
												<scene></scene>
												<shottake></shottake>
												<lognote></lognote>
												<good></good>
												<originalvideofilename></originalvideofilename>
												<originalaudiofilename></originalaudiofilename>
											</logginginfo>
											<colorinfo>
												<lut></lut>
												<lut1></lut1>
												<asc_sop></asc_sop>
												<asc_sat></asc_sat>
												<lut2></lut2>
											</colorinfo>
											<labels>
												<label2>Lavender</label2>
											</labels>
										</clipitem>
										<transitionitem>
											<start>328</start>
											<end>350</end>
											<alignment>end-black</alignment>
											<cutPointTicks>223534080000</cutPointTicks>
											<rate>
												<timebase>25</timebase>
												<ntsc>FALSE</ntsc>
											</rate>
											<effect>
												<name>Edge Wipe</name>
												<effectid>Edge Wipe</effectid>
												<effectcategory>Wipe</effectcategory>
												<effecttype>transition</effecttype>
												<mediatype>video</mediatype>
												<wipecode>2</wipecode>
												<wipeaccuracy>100</wipeaccuracy>
												<startratio>0</startratio>
												<endratio>1</endratio>
												<reverse>FALSE</reverse>
												<parameter authoringApp="PremierePro">
													<parameterid>directionofwipe</parameterid>
													<name>Angle</name>
													<valuemin>-360</valuemin>
													<valuemax>360</valuemax>
													<value>90</value>
												</parameter>
											</effect>
										</transitionitem>
										<enabled>TRUE</enabled>
										<locked>FALSE</locked>
									</track>
									<track TL.SQTrackShy="0" TL.SQTrackExpandedHeight="25" TL.SQTrackExpanded="0" MZ.TrackTargeted="0">
										<transitionitem>
											<start>167</start>
											<end>224</end>
											<alignment>start-black</alignment>
											<cutPointTicks>0</cutPointTicks>
											<rate>
												<timebase>25</timebase>
												<ntsc>FALSE</ntsc>
											</rate>
											<effect>
												<name>Edge Wipe</name>
												<effectid>Edge Wipe</effectid>
												<effectcategory>Wipe</effectcategory>
												<effecttype>transition</effecttype>
												<mediatype>video</mediatype>
												<wipecode>2</wipecode>
												<wipeaccuracy>100</wipeaccuracy>
												<startratio>0</startratio>
												<endratio>1</endratio>
												<reverse>FALSE</reverse>
												<parameter authoringApp="PremierePro">
													<parameterid>directionofwipe</parameterid>
													<name>Angle</name>
													<valuemin>-360</valuemin>
													<valuemax>360</valuemax>
													<value>90</value>
												</parameter>
											</effect>
										</transitionitem>
										<clipitem id="clipitem-691">
											<masterclipid>masterclip-313</masterclipid>
											<name>Graphic</name>
											<enabled>FALSE</enabled>
											<duration>1080000</duration>
											<rate>
												<timebase>25</timebase>
												<ntsc>FALSE</ntsc>
											</rate>
											<start>-1</start>
											<end>-1</end>
											<in>89998</in>
											<out>90181</out>
											<pproTicksIn>914437278720000</pproTicksIn>
											<pproTicksOut>916296675840000</pproTicksOut>
											<alphatype>straight</alphatype>
											<pixelaspectratio>PAL-601</pixelaspectratio>
											<anamorphic>TRUE</anamorphic>
											<file id="file-271">
												<name>Graphic</name>
												<mediaSource>GraphicAndType</mediaSource>
												<rate>
													<timebase>30</timebase>
													<ntsc>TRUE</ntsc>
												</rate>
												<timecode>
													<rate>
														<timebase>30</timebase>
														<ntsc>TRUE</ntsc>
													</rate>
													<string>00;00;00;00</string>
													<frame>0</frame>
													<displayformat>DF</displayformat>
												</timecode>
												<media>
													<video>
														<samplecharacteristics>
															<rate>
																<timebase>30</timebase>
																<ntsc>TRUE</ntsc>
															</rate>
															<width>720</width>
															<height>576</height>
															<anamorphic>TRUE</anamorphic>
															<pixelaspectratio>PAL-601</pixelaspectratio>
															<fielddominance>none</fielddominance>
														</samplecharacteristics>
													</video>
												</media>
											</file>
											<filter>
												<effect>
													<name>АРТУР ПИРОЖКОВ&#13;ЛЕТОМ НА ФИЕСТЕ</name>
													<effectid>GraphicAndType</effectid>
													<effectcategory>graphic</effectcategory>
													<effecttype>filter</effecttype>
													<mediatype>video</mediatype>
													<pproBypass>false</pproBypass>
													<pproExpanded>true</pproExpanded>
													<parameter authoringApp="PremierePro">
														<parameterid>1</parameterid>
														<name>Source Text</name>
														<hash>dc092258-f6b9-fd91-a76f-c3e700000476</hash>
													</parameter>
													<parameter authoringApp="PremierePro">
														<parameterid>2</parameterid>
														<name>Transform</name>
														<IsTimeVarying>false</IsTimeVarying>
														<ParameterControlType>11</ParameterControlType>
														<LowerBound>false</LowerBound>
														<UpperBound>false</UpperBound>
														<value>-91445760000000000,false,0,0,0,0,0,0</value>
													</parameter>
													<parameter authoringApp="PremierePro">
														<parameterid>3</parameterid>
														<name>Position</name>
														<IsTimeVarying>false</IsTimeVarying>
														<value>-91445760000000000,0.36944580078125:0.86468505859375,0,0,0,0,0,0,5,4,0,0,0,0</value>
													</parameter>
													<parameter authoringApp="PremierePro">
														<parameterid>4</parameterid>
														<name>Scale</name>
														<IsTimeVarying>false</IsTimeVarying>
														<ParameterControlType>2</ParameterControlType>
														<LowerBound>0</LowerBound>
														<UpperBound>4000</UpperBound>
														<value>-91445760000000000,100.,0,0,0,0,0,0</value>
													</parameter>
													<parameter authoringApp="PremierePro">
														<parameterid>5</parameterid>
														<name>Horizontal Scale</name>
														<IsTimeVarying>false</IsTimeVarying>
														<ParameterControlType>2</ParameterControlType>
														<LowerBound>0</LowerBound>
														<UpperBound>4000</UpperBound>
														<value>-91445760000000000,100.,0,0,0,0,0,0</value>
													</parameter>
													<parameter authoringApp="PremierePro">
														<parameterid>6</parameterid>
														<name> </name>
														<IsTimeVarying>false</IsTimeVarying>
														<ParameterControlType>4</ParameterControlType>
														<LowerBound>false</LowerBound>
														<UpperBound>true</UpperBound>
														<value>-91445760000000000,true,0,0,0,0,0,0</value>
													</parameter>
													<parameter authoringApp="PremierePro">
														<parameterid>7</parameterid>
														<name>Rotation</name>
														<IsTimeVarying>false</IsTimeVarying>
														<ParameterControlType>3</ParameterControlType>
														<LowerBound>-32768</LowerBound>
														<UpperBound>32767</UpperBound>
														<value>-91445760000000000,0.,0,0,0,0,0,0</value>
													</parameter>
													<parameter authoringApp="PremierePro">
														<parameterid>8</parameterid>
														<name>Opacity</name>
														<IsTimeVarying>false</IsTimeVarying>
														<ParameterControlType>2</ParameterControlType>
														<LowerBound>0</LowerBound>
														<UpperBound>100</UpperBound>
														<value>-91445760000000000,100.,0,0,0,0,0,0</value>
													</parameter>
													<parameter authoringApp="PremierePro">
														<parameterid>9</parameterid>
														<name>Anchor Point</name>
														<IsTimeVarying>false</IsTimeVarying>
														<value>-91445760000000000,0:0,0,0,0,0,0,0,5,4,0,0,0,0</value>
													</parameter>
													<parameter authoringApp="PremierePro">
														<parameterid>10</parameterid>
														<name></name>
														<IsTimeVarying>false</IsTimeVarying>
														<ParameterControlType>12</ParameterControlType>
														<LowerBound>false</LowerBound>
														<UpperBound>false</UpperBound>
														<value>-91445760000000000,false,0,0,0,0,0,0</value>
													</parameter>
													<parameter authoringApp="PremierePro">
														<parameterid>11</parameterid>
														<name> </name>
														<IsTimeVarying>false</IsTimeVarying>
														<ParameterControlType>8</ParameterControlType>
														<LowerBound>0</LowerBound>
														<UpperBound>32768</UpperBound>
														<value>-91445760000000000,0.,0,0,0,0,0,0</value>
													</parameter>
													<parameter authoringApp="PremierePro">
														<parameterid>12</parameterid>
														<name> </name>
														<IsTimeVarying>false</IsTimeVarying>
														<ParameterControlType>8</ParameterControlType>
														<LowerBound>0</LowerBound>
														<UpperBound>32768</UpperBound>
														<value>-91445760000000000,0.,0,0,0,0,0,0</value>
													</parameter>
													<parameter authoringApp="PremierePro">
														<parameterid>13</parameterid>
														<name>start</name>
														<IsTimeVarying>false</IsTimeVarying>
														<ParameterControlType>8</ParameterControlType>
														<LowerBound>-100</LowerBound>
														<UpperBound>1000000000</UpperBound>
														<value>-91445760000000000,30.,0,0,0,0,0,0</value>
													</parameter>
													<parameter authoringApp="PremierePro">
														<parameterid>14</parameterid>
														<name>end</name>
														<IsTimeVarying>false</IsTimeVarying>
														<ParameterControlType>8</ParameterControlType>
														<LowerBound>-100</LowerBound>
														<UpperBound>1000000000</UpperBound>
														<value>-91445760000000000,30.,0,0,0,0,0,0</value>
													</parameter>
													<parameter authoringApp="PremierePro">
														<parameterid>15</parameterid>
														<name> </name>
														<IsTimeVarying>false</IsTimeVarying>
														<ParameterControlType>4</ParameterControlType>
														<LowerBound>false</LowerBound>
														<UpperBound>true</UpperBound>
														<value>-91445760000000000,false,0,0,0,0,0,0</value>
													</parameter>
													<parameter authoringApp="PremierePro">
														<parameterid>16</parameterid>
														<name> </name>
														<IsTimeVarying>false</IsTimeVarying>
														<ParameterControlType>4</ParameterControlType>
														<LowerBound>false</LowerBound>
														<UpperBound>true</UpperBound>
														<value>-91445760000000000,false,0,0,0,0,0,0</value>
													</parameter>
													<parameter authoringApp="PremierePro">
														<parameterid>17</parameterid>
														<name> </name>
														<IsTimeVarying>false</IsTimeVarying>
														<ParameterControlType>4</ParameterControlType>
														<LowerBound>false</LowerBound>
														<UpperBound>true</UpperBound>
														<value>-91445760000000000,false,0,0,0,0,0,0</value>
													</parameter>
													<parameter authoringApp="PremierePro">
														<parameterid>18</parameterid>
														<name> </name>
														<IsTimeVarying>false</IsTimeVarying>
														<ParameterControlType>4</ParameterControlType>
														<LowerBound>false</LowerBound>
														<UpperBound>true</UpperBound>
														<value>-91445760000000000,false,0,0,0,0,0,0</value>
													</parameter>
													<parameter authoringApp="PremierePro">
														<parameterid>19</parameterid>
														<name>Parent Width</name>
														<IsTimeVarying>false</IsTimeVarying>
														<ParameterControlType>2</ParameterControlType>
														<LowerBound>0</LowerBound>
														<UpperBound>20000</UpperBound>
														<value>-91445760000000000,0.,0,0,0,0,0,0</value>
													</parameter>
													<parameter authoringApp="PremierePro">
														<parameterid>20</parameterid>
														<name>Parent Height</name>
														<IsTimeVarying>false</IsTimeVarying>
														<ParameterControlType>2</ParameterControlType>
														<LowerBound>0</LowerBound>
														<UpperBound>20000</UpperBound>
														<value>-91445760000000000,0.,0,0,0,0,0,0</value>
													</parameter>
													<parameter authoringApp="PremierePro">
														<parameterid>21</parameterid>
														<name>Parent Rotation</name>
														<IsTimeVarying>false</IsTimeVarying>
														<ParameterControlType>3</ParameterControlType>
														<LowerBound>-32768</LowerBound>
														<UpperBound>32767</UpperBound>
														<value>-91445760000000000,0.,0,0,0,0,0,0</value>
													</parameter>
												</effect>
											</filter>
											<logginginfo>
												<description></description>
												<scene></scene>
												<shottake></shottake>
												<lognote></lognote>
												<good></good>
												<originalvideofilename></originalvideofilename>
												<originalaudiofilename></originalaudiofilename>
											</logginginfo>
											<colorinfo>
												<lut></lut>
												<lut1></lut1>
												<asc_sop></asc_sop>
												<asc_sat></asc_sat>
												<lut2></lut2>
											</colorinfo>
										</clipitem>
										<transitionitem>
											<start>328</start>
											<end>350</end>
											<alignment>end-black</alignment>
											<cutPointTicks>223534080000</cutPointTicks>
											<rate>
												<timebase>25</timebase>
												<ntsc>FALSE</ntsc>
											</rate>
											<effect>
												<name>Edge Wipe</name>
												<effectid>Edge Wipe</effectid>
												<effectcategory>Wipe</effectcategory>
												<effecttype>transition</effecttype>
												<mediatype>video</mediatype>
												<wipecode>2</wipecode>
												<wipeaccuracy>100</wipeaccuracy>
												<startratio>0</startratio>
												<endratio>1</endratio>
												<reverse>FALSE</reverse>
												<parameter authoringApp="PremierePro">
													<parameterid>directionofwipe</parameterid>
													<name>Angle</name>
													<valuemin>-360</valuemin>
													<valuemax>360</valuemax>
													<value>90</value>
												</parameter>
											</effect>
										</transitionitem>
										<enabled>TRUE</enabled>
										<locked>FALSE</locked>
									</track>
								</video>
								<audio>
									<numOutputChannels>2</numOutputChannels>
									<format>
										<samplecharacteristics>
											<depth>16</depth>
											<samplerate>48000</samplerate>
										</samplecharacteristics>
									</format>
									<outputs>
										<group>
											<index>1</index>
											<numchannels>1</numchannels>
											<downmix>0</downmix>
											<channel>
												<index>1</index>
											</channel>
										</group>
										<group>
											<index>2</index>
											<numchannels>1</numchannels>
											<downmix>0</downmix>
											<channel>
												<index>2</index>
											</channel>
										</group>
									</outputs>
									<track TL.SQTrackAudioKeyframeStyle="0" TL.SQTrackShy="0" TL.SQTrackExpandedHeight="25" TL.SQTrackExpanded="0" MZ.TrackTargeted="1" PannerCurrentValue="0.5" PannerStartKeyframe="-91445760000000000,0.5,0,0,0,0,0,0" PannerName="Balance" currentExplodedTrackIndex="0" totalExplodedTrackCount="2" premiereTrackType="Stereo">
										<enabled>TRUE</enabled>
										<locked>FALSE</locked>
										<outputchannelindex>1</outputchannelindex>
									</track>
									<track TL.SQTrackAudioKeyframeStyle="0" TL.SQTrackShy="0" TL.SQTrackExpandedHeight="25" TL.SQTrackExpanded="0" MZ.TrackTargeted="1" PannerCurrentValue="0.5" PannerStartKeyframe="-91445760000000000,0.5,0,0,0,0,0,0" PannerName="Balance" currentExplodedTrackIndex="1" totalExplodedTrackCount="2" premiereTrackType="Stereo">
										<enabled>TRUE</enabled>
										<locked>FALSE</locked>
										<outputchannelindex>2</outputchannelindex>
									</track>
								</audio>
							</media>
							<timecode>
								<rate>
									<timebase>25</timebase>
									<ntsc>FALSE</ntsc>
								</rate>
								<string>00:00:00:00</string>
								<frame>0</frame>
								<displayformat>NDF</displayformat>
							</timecode>
								<marker>
									<comment></comment>
									<name></name>
									<in>125</in>
									<out>-1</out>
									<pproColor>4280578025</pproColor>
								</marker>
							<logginginfo>
								<description></description>
								<scene></scene>
								<shottake></shottake>
								<lognote></lognote>
								<good></good>
								<originalvideofilename></originalvideofilename>
								<originalaudiofilename></originalaudiofilename>
							</logginginfo>
						</sequence>
							<marker>
								<comment></comment>
								<name></name>
								<in>125</in>
								<out>-1</out>
								<pproColor>4280578025</pproColor>
							</marker>
						<labels>
							<label2>Forest</label2>
						</labels>
					</clipitem>
					<clipitem id="clipitem-692">
						<masterclipid>masterclip-309</masterclipid>
						<name>6</name>
						<enabled>TRUE</enabled>
						<duration>475</duration>
						<rate>
							<timebase>25</timebase>
							<ntsc>FALSE</ntsc>
						</rate>
						<start>36883</start>
						<end>37234</end>
						<in>124</in>
						<out>475</out>
						<pproTicksIn>1259919360000</pproTicksIn>
						<pproTicksOut>4826304000000</pproTicksOut>
						<sequence id="sequence-46"/>
							<marker>
								<comment></comment>
								<name></name>
								<in>125</in>
								<out>-1</out>
								<pproColor>4280578025</pproColor>
							</marker>
						<labels>
							<label2>Forest</label2>
						</labels>
					</clipitem>
					<clipitem id="clipitem-693">
						<masterclipid>masterclip-314</masterclipid>
						<name>5_TITLE</name>
						<enabled>TRUE</enabled>
						<duration>475</duration>
						<rate>
							<timebase>25</timebase>
							<ntsc>FALSE</ntsc>
						</rate>
						<start>38222</start>
						<end>38572</end>
						<in>0</in>
						<out>475</out>
						<pproTicksIn>0</pproTicksIn>
						<pproTicksOut>4826304000000</pproTicksOut>
						<sequence id="sequence-47" TL.SQAudioVisibleBase="0" TL.SQVideoVisibleBase="0" TL.SQVisibleBaseTime="0" TL.SQAVDividerPosition="0.5" TL.SQHideShyTracks="0" TL.SQHeaderWidth="236" TL.SQDataTrackViewControlState="0" Monitor.ProgramZoomOut="4826304000000" Monitor.ProgramZoomIn="0" TL.SQTimePerPixel="0.024999999999999998" AM.TrackVScrollPosition="0" AM.TrackScrollPosition="0" MZ.EditLine="1473292800000" MZ.Sequence.PreviewFrameSizeHeight="576" MZ.Sequence.PreviewFrameSizeWidth="720" MZ.Sequence.AudioTimeDisplayFormat="200" MZ.Sequence.PreviewRenderingClassID="1061109567" MZ.Sequence.PreviewRenderingPresetCodec="1685480304" MZ.Sequence.PreviewRenderingPresetPath="EncoderPresets/SequencePreview/04be6e19-a018-4e0c-a9d6-0ab44c64752b/QuickTime DV PAL.epr" MZ.Sequence.PreviewUseMaxRenderQuality="false" MZ.Sequence.PreviewUseMaxBitDepth="false" MZ.Sequence.EditingModeGUID="04be6e19-a018-4e0c-a9d6-0ab44c64752b" MZ.Sequence.VideoTimeDisplayFormat="101" MZ.WorkOutPoint="4826304000000" MZ.WorkInPoint="0" MZ.ZeroPoint="0">
							<duration>475</duration>
							<rate>
								<timebase>25</timebase>
								<ntsc>FALSE</ntsc>
							</rate>
							<name>титр</name>
							<media>
								<video>
									<format>
										<samplecharacteristics>
											<rate>
												<timebase>25</timebase>
												<ntsc>FALSE</ntsc>
											</rate>
											<codec>
												<name>Apple ProRes 422</name>
												<appspecificdata>
													<appname>Final Cut Pro</appname>
													<appmanufacturer>Apple Inc.</appmanufacturer>
													<appversion>7.0</appversion>
													<data>
														<qtcodec>
															<codecname>Apple ProRes 422</codecname>
															<codectypename>Apple ProRes 422</codectypename>
															<codectypecode>apcn</codectypecode>
															<codecvendorcode>appl</codecvendorcode>
															<spatialquality>1024</spatialquality>
															<temporalquality>0</temporalquality>
															<keyframerate>0</keyframerate>
															<datarate>0</datarate>
														</qtcodec>
													</data>
												</appspecificdata>
											</codec>
											<width>720</width>
											<height>576</height>
											<anamorphic>TRUE</anamorphic>
											<pixelaspectratio>PAL-601</pixelaspectratio>
											<fielddominance>lower</fielddominance>
											<colordepth>24</colordepth>
										</samplecharacteristics>
									</format>
									<track TL.SQTrackShy="0" TL.SQTrackExpandedHeight="25" TL.SQTrackExpanded="0" MZ.TrackTargeted="1">
										<clipitem id="clipitem-694">
											<masterclipid>masterclip-315</masterclipid>
											<name>9_title.mov</name>
											<enabled>TRUE</enabled>
											<duration>225</duration>
											<rate>
												<timebase>25</timebase>
												<ntsc>FALSE</ntsc>
											</rate>
											<start>125</start>
											<end>350</end>
											<in>0</in>
											<out>225</out>
											<pproTicksIn>0</pproTicksIn>
											<pproTicksOut>2286144000000</pproTicksOut>
											<alphatype>straight</alphatype>
											<pixelaspectratio>square</pixelaspectratio>
											<anamorphic>FALSE</anamorphic>
											<file id="file-272">
												<name>5_title.mov</name>
												<pathurl>file://localhost/_MUZ_TV/graphika/RU-21/MOD/title_plashka/5_title.mov</pathurl>
												<rate>
													<timebase>25</timebase>
													<ntsc>FALSE</ntsc>
												</rate>
												<duration>225</duration>
												<timecode>
													<rate>
														<timebase>25</timebase>
														<ntsc>FALSE</ntsc>
													</rate>
													<string>00:00:45:00</string>
													<frame>1125</frame>
													<displayformat>NDF</displayformat>
												</timecode>
												<media>
													<video>
														<samplecharacteristics>
															<rate>
																<timebase>25</timebase>
																<ntsc>FALSE</ntsc>
															</rate>
															<width>1920</width>
															<height>1080</height>
															<anamorphic>FALSE</anamorphic>
															<pixelaspectratio>square</pixelaspectratio>
															<fielddominance>none</fielddominance>
														</samplecharacteristics>
													</video>
												</media>
											</file>
											<filter>
												<effect>
													<name>Basic Motion</name>
													<effectid>basic</effectid>
													<effectcategory>motion</effectcategory>
													<effecttype>motion</effecttype>
													<mediatype>video</mediatype>
													<pproBypass>false</pproBypass>
													<parameter authoringApp="PremierePro">
														<parameterid>scale</parameterid>
														<name>Scale</name>
														<valuemin>0</valuemin>
														<valuemax>1000</valuemax>
														<value>55</value>
													</parameter>
													<parameter authoringApp="PremierePro">
														<parameterid>rotation</parameterid>
														<name>Rotation</name>
														<valuemin>-8640</valuemin>
														<valuemax>8640</valuemax>
														<value>0</value>
													</parameter>
													<parameter authoringApp="PremierePro">
														<parameterid>center</parameterid>
														<name>Center</name>
														<value>
															<horiz>0</horiz>
															<vert>0</vert>
														</value>
													</parameter>
													<parameter authoringApp="PremierePro">
														<parameterid>centerOffset</parameterid>
														<name>Anchor Point</name>
														<value>
															<horiz>0</horiz>
															<vert>0</vert>
														</value>
													</parameter>
													<parameter authoringApp="PremierePro">
														<parameterid>antiflicker</parameterid>
														<name>Anti-flicker Filter</name>
														<valuemin>0.0</valuemin>
														<valuemax>1.0</valuemax>
														<value>0</value>
													</parameter>
												</effect>
											</filter>
											<filter>
												<effect>
													<name>Distort</name>
													<effectid>deformation</effectid>
													<effectcategory>motion</effectcategory>
													<effecttype>motion</effecttype>
													<mediatype>video</mediatype>
													<parameter authoringApp="PremierePro">
														<parameterid>aspect</parameterid>
														<name>Aspect</name>
														<valuemin>-10000</valuemin>
														<valuemax>10000</valuemax>
														<value>-3.12506</value>
													</parameter>
												</effect>
											</filter>
											<logginginfo>
												<description></description>
												<scene></scene>
												<shottake></shottake>
												<lognote></lognote>
												<good></good>
												<originalvideofilename></originalvideofilename>
												<originalaudiofilename></originalaudiofilename>
											</logginginfo>
											<colorinfo>
												<lut></lut>
												<lut1></lut1>
												<asc_sop></asc_sop>
												<asc_sat></asc_sat>
												<lut2></lut2>
											</colorinfo>
											<labels>
												<label2>Violet</label2>
											</labels>
										</clipitem>
										<clipitem id="clipitem-695">
											<masterclipid>masterclip-316</masterclipid>
											<name>Graphic</name>
											<enabled>FALSE</enabled>
											<duration>1080000</duration>
											<rate>
												<timebase>25</timebase>
												<ntsc>FALSE</ntsc>
											</rate>
											<start>350</start>
											<end>475</end>
											<in>90000</in>
											<out>90125</out>
											<pproTicksIn>914457600000000</pproTicksIn>
											<pproTicksOut>915727680000000</pproTicksOut>
											<alphatype>straight</alphatype>
											<pixelaspectratio>PAL-601</pixelaspectratio>
											<anamorphic>TRUE</anamorphic>
											<file id="file-273">
												<name>Graphic</name>
												<mediaSource>GraphicAndType</mediaSource>
												<rate>
													<timebase>30</timebase>
													<ntsc>TRUE</ntsc>
												</rate>
												<timecode>
													<rate>
														<timebase>30</timebase>
														<ntsc>TRUE</ntsc>
													</rate>
													<string>00;00;00;00</string>
													<frame>0</frame>
													<displayformat>DF</displayformat>
												</timecode>
												<media>
													<video>
														<samplecharacteristics>
															<rate>
																<timebase>30</timebase>
																<ntsc>TRUE</ntsc>
															</rate>
															<width>720</width>
															<height>576</height>
															<anamorphic>TRUE</anamorphic>
															<pixelaspectratio>PAL-601</pixelaspectratio>
															<fielddominance>none</fielddominance>
														</samplecharacteristics>
													</video>
												</media>
											</file>
											<filter>
												<effect>
													<name>Basic Motion</name>
													<effectid>basic</effectid>
													<effectcategory>motion</effectcategory>
													<effecttype>motion</effecttype>
													<mediatype>video</mediatype>
													<pproBypass>false</pproBypass>
													<parameter authoringApp="PremierePro">
														<parameterid>scale</parameterid>
														<name>Scale</name>
														<valuemin>0</valuemin>
														<valuemax>1000</valuemax>
														<value>133.333</value>
													</parameter>
													<parameter authoringApp="PremierePro">
														<parameterid>rotation</parameterid>
														<name>Rotation</name>
														<valuemin>-8640</valuemin>
														<valuemax>8640</valuemax>
														<value>0</value>
													</parameter>
													<parameter authoringApp="PremierePro">
														<parameterid>center</parameterid>
														<name>Center</name>
														<value>
															<horiz>0</horiz>
															<vert>0</vert>
														</value>
													</parameter>
													<parameter authoringApp="PremierePro">
														<parameterid>centerOffset</parameterid>
														<name>Anchor Point</name>
														<value>
															<horiz>0</horiz>
															<vert>0</vert>
														</value>
													</parameter>
													<parameter authoringApp="PremierePro">
														<parameterid>antiflicker</parameterid>
														<name>Anti-flicker Filter</name>
														<valuemin>0.0</valuemin>
														<valuemax>1.0</valuemax>
														<value>0</value>
													</parameter>
												</effect>
											</filter>
											<filter>
												<effect>
													<name>Distort</name>
													<effectid>deformation</effectid>
													<effectcategory>motion</effectcategory>
													<effecttype>motion</effecttype>
													<mediatype>video</mediatype>
													<parameter authoringApp="PremierePro">
														<parameterid>aspect</parameterid>
														<name>Aspect</name>
														<valuemin>-10000</valuemin>
														<valuemax>10000</valuemax>
														<value>-33.333</value>
													</parameter>
												</effect>
											</filter>
											<filter>
												<effect>
													<name></name>
													<effectid>GraphicAndType</effectid>
													<effectcategory>graphic</effectcategory>
													<effecttype>filter</effecttype>
													<mediatype>video</mediatype>
													<pproBypass>false</pproBypass>
													<parameter authoringApp="PremierePro">
														<parameterid>1</parameterid>
														<name>Source Text</name>
														<hash>3f0faa81-c1b0-8370-b66c-fa0b000009f1</hash>
													</parameter>
													<parameter authoringApp="PremierePro">
														<parameterid>2</parameterid>
														<name>Transform</name>
														<IsTimeVarying>false</IsTimeVarying>
														<ParameterControlType>11</ParameterControlType>
														<LowerBound>false</LowerBound>
														<UpperBound>false</UpperBound>
														<value>-91445760000000000,false,0,0,0,0,0,0</value>
													</parameter>
													<parameter authoringApp="PremierePro">
														<parameterid>3</parameterid>
														<name>Position</name>
														<IsTimeVarying>false</IsTimeVarying>
														<value>-91445760000000000,0.55605381727218628:0.73039215803146362,0,0,0,0,0,0,5,4,0,0,0,0</value>
													</parameter>
													<parameter authoringApp="PremierePro">
														<parameterid>4</parameterid>
														<name>Scale</name>
														<IsTimeVarying>false</IsTimeVarying>
														<ParameterControlType>2</ParameterControlType>
														<LowerBound>0</LowerBound>
														<UpperBound>4000</UpperBound>
														<value>-91445760000000000,100.,0,0,0,0,0,0</value>
													</parameter>
													<parameter authoringApp="PremierePro">
														<parameterid>5</parameterid>
														<name>Horizontal Scale</name>
														<IsTimeVarying>false</IsTimeVarying>
														<ParameterControlType>2</ParameterControlType>
														<LowerBound>0</LowerBound>
														<UpperBound>4000</UpperBound>
														<value>-91445760000000000,100.,0,0,0,0,0,0</value>
													</parameter>
													<parameter authoringApp="PremierePro">
														<parameterid>6</parameterid>
														<name> </name>
														<IsTimeVarying>false</IsTimeVarying>
														<ParameterControlType>4</ParameterControlType>
														<LowerBound>false</LowerBound>
														<UpperBound>true</UpperBound>
														<value>-91445760000000000,true,0,0,0,0,0,0</value>
													</parameter>
													<parameter authoringApp="PremierePro">
														<parameterid>7</parameterid>
														<name>Rotation</name>
														<IsTimeVarying>false</IsTimeVarying>
														<ParameterControlType>3</ParameterControlType>
														<LowerBound>-32768</LowerBound>
														<UpperBound>32767</UpperBound>
														<value>-91445760000000000,0.,0,0,0,0,0,0</value>
													</parameter>
													<parameter authoringApp="PremierePro">
														<parameterid>8</parameterid>
														<name>Opacity</name>
														<IsTimeVarying>false</IsTimeVarying>
														<ParameterControlType>2</ParameterControlType>
														<LowerBound>0</LowerBound>
														<UpperBound>100</UpperBound>
														<value>-91445760000000000,100.,0,0,0,0,0,0</value>
													</parameter>
													<parameter authoringApp="PremierePro">
														<parameterid>9</parameterid>
														<name>Anchor Point</name>
														<IsTimeVarying>false</IsTimeVarying>
														<value>-91445760000000000,0:0,0,0,0,0,0,0,5,4,0,0,0,0</value>
													</parameter>
													<parameter authoringApp="PremierePro">
														<parameterid>10</parameterid>
														<name></name>
														<IsTimeVarying>false</IsTimeVarying>
														<ParameterControlType>12</ParameterControlType>
														<LowerBound>false</LowerBound>
														<UpperBound>false</UpperBound>
														<value>-91445760000000000,false,0,0,0,0,0,0</value>
													</parameter>
													<parameter authoringApp="PremierePro">
														<parameterid>11</parameterid>
														<name> </name>
														<IsTimeVarying>false</IsTimeVarying>
														<ParameterControlType>8</ParameterControlType>
														<LowerBound>0</LowerBound>
														<UpperBound>32768</UpperBound>
														<value>-91445760000000000,0.,0,0,0,0,0,0</value>
													</parameter>
													<parameter authoringApp="PremierePro">
														<parameterid>12</parameterid>
														<name> </name>
														<IsTimeVarying>false</IsTimeVarying>
														<ParameterControlType>8</ParameterControlType>
														<LowerBound>0</LowerBound>
														<UpperBound>32768</UpperBound>
														<value>-91445760000000000,0.,0,0,0,0,0,0</value>
													</parameter>
													<parameter authoringApp="PremierePro">
														<parameterid>13</parameterid>
														<name>start</name>
														<IsTimeVarying>false</IsTimeVarying>
														<ParameterControlType>8</ParameterControlType>
														<LowerBound>-100</LowerBound>
														<UpperBound>1000000000</UpperBound>
														<value>-91445760000000000,0.,0,0,0,0,0,0</value>
													</parameter>
													<parameter authoringApp="PremierePro">
														<parameterid>14</parameterid>
														<name>end</name>
														<IsTimeVarying>false</IsTimeVarying>
														<ParameterControlType>8</ParameterControlType>
														<LowerBound>-100</LowerBound>
														<UpperBound>1000000000</UpperBound>
														<value>-91445760000000000,0.,0,0,0,0,0,0</value>
													</parameter>
													<parameter authoringApp="PremierePro">
														<parameterid>15</parameterid>
														<name> </name>
														<IsTimeVarying>false</IsTimeVarying>
														<ParameterControlType>4</ParameterControlType>
														<LowerBound>false</LowerBound>
														<UpperBound>true</UpperBound>
														<value>-91445760000000000,false,0,0,0,0,0,0</value>
													</parameter>
													<parameter authoringApp="PremierePro">
														<parameterid>16</parameterid>
														<name> </name>
														<IsTimeVarying>false</IsTimeVarying>
														<ParameterControlType>4</ParameterControlType>
														<LowerBound>false</LowerBound>
														<UpperBound>true</UpperBound>
														<value>-91445760000000000,false,0,0,0,0,0,0</value>
													</parameter>
													<parameter authoringApp="PremierePro">
														<parameterid>17</parameterid>
														<name> </name>
														<IsTimeVarying>false</IsTimeVarying>
														<ParameterControlType>4</ParameterControlType>
														<LowerBound>false</LowerBound>
														<UpperBound>true</UpperBound>
														<value>-91445760000000000,false,0,0,0,0,0,0</value>
													</parameter>
													<parameter authoringApp="PremierePro">
														<parameterid>18</parameterid>
														<name> </name>
														<IsTimeVarying>false</IsTimeVarying>
														<ParameterControlType>4</ParameterControlType>
														<LowerBound>false</LowerBound>
														<UpperBound>true</UpperBound>
														<value>-91445760000000000,false,0,0,0,0,0,0</value>
													</parameter>
													<parameter authoringApp="PremierePro">
														<parameterid>19</parameterid>
														<name>Parent Width</name>
														<IsTimeVarying>false</IsTimeVarying>
														<ParameterControlType>2</ParameterControlType>
														<LowerBound>0</LowerBound>
														<UpperBound>20000</UpperBound>
														<value>-91445760000000000,0.,0,0,0,0,0,0</value>
													</parameter>
													<parameter authoringApp="PremierePro">
														<parameterid>20</parameterid>
														<name>Parent Height</name>
														<IsTimeVarying>false</IsTimeVarying>
														<ParameterControlType>2</ParameterControlType>
														<LowerBound>0</LowerBound>
														<UpperBound>20000</UpperBound>
														<value>-91445760000000000,0.,0,0,0,0,0,0</value>
													</parameter>
													<parameter authoringApp="PremierePro">
														<parameterid>21</parameterid>
														<name>Parent Rotation</name>
														<IsTimeVarying>false</IsTimeVarying>
														<ParameterControlType>3</ParameterControlType>
														<LowerBound>-32768</LowerBound>
														<UpperBound>32767</UpperBound>
														<value>-91445760000000000,0.,0,0,0,0,0,0</value>
													</parameter>
												</effect>
											</filter>
											<logginginfo>
												<description></description>
												<scene></scene>
												<shottake></shottake>
												<lognote></lognote>
												<good></good>
												<originalvideofilename></originalvideofilename>
												<originalaudiofilename></originalaudiofilename>
											</logginginfo>
											<colorinfo>
												<lut></lut>
												<lut1></lut1>
												<asc_sop></asc_sop>
												<asc_sat></asc_sat>
												<lut2></lut2>
											</colorinfo>
										</clipitem>
										<enabled>TRUE</enabled>
										<locked>FALSE</locked>
									</track>
									<track TL.SQTrackShy="0" TL.SQTrackExpandedHeight="25" TL.SQTrackExpanded="0" MZ.TrackTargeted="0">
										<transitionitem>
											<start>167</start>
											<end>224</end>
											<alignment>start-black</alignment>
											<cutPointTicks>0</cutPointTicks>
											<rate>
												<timebase>25</timebase>
												<ntsc>FALSE</ntsc>
											</rate>
											<effect>
												<name>Edge Wipe</name>
												<effectid>Edge Wipe</effectid>
												<effectcategory>Wipe</effectcategory>
												<effecttype>transition</effecttype>
												<mediatype>video</mediatype>
												<wipecode>2</wipecode>
												<wipeaccuracy>100</wipeaccuracy>
												<startratio>0</startratio>
												<endratio>1</endratio>
												<reverse>FALSE</reverse>
												<parameter authoringApp="PremierePro">
													<parameterid>directionofwipe</parameterid>
													<name>Angle</name>
													<valuemin>-360</valuemin>
													<valuemax>360</valuemax>
													<value>90</value>
												</parameter>
											</effect>
										</transitionitem>
										<clipitem id="clipitem-696">
											<masterclipid>masterclip-317</masterclipid>
											<name>9.png</name>
											<enabled>TRUE</enabled>
											<duration>1080000</duration>
											<rate>
												<timebase>25</timebase>
												<ntsc>FALSE</ntsc>
											</rate>
											<start>-1</start>
											<end>-1</end>
											<in>90042</in>
											<out>90225</out>
											<pproTicksIn>914884346880000</pproTicksIn>
											<pproTicksOut>916743744000000</pproTicksOut>
											<alphatype>straight</alphatype>
											<pixelaspectratio>square</pixelaspectratio>
											<anamorphic>FALSE</anamorphic>
											<file id="file-274">
												<name>5.png</name>
												<pathurl>file://localhost/_MUZ_TV/project_AP/RU/_TITLE/END/5.png</pathurl>
												<rate>
													<timebase>30</timebase>
													<ntsc>TRUE</ntsc>
												</rate>
												<timecode>
													<rate>
														<timebase>30</timebase>
														<ntsc>TRUE</ntsc>
													</rate>
													<string>00;00;00;00</string>
													<frame>0</frame>
													<displayformat>DF</displayformat>
												</timecode>
												<media>
													<video>
														<samplecharacteristics>
															<rate>
																<timebase>30</timebase>
																<ntsc>TRUE</ntsc>
															</rate>
															<width>1920</width>
															<height>1080</height>
															<anamorphic>FALSE</anamorphic>
															<pixelaspectratio>square</pixelaspectratio>
															<fielddominance>none</fielddominance>
														</samplecharacteristics>
													</video>
												</media>
											</file>
											<filter>
												<effect>
													<name>Basic Motion</name>
													<effectid>basic</effectid>
													<effectcategory>motion</effectcategory>
													<effecttype>motion</effecttype>
													<mediatype>video</mediatype>
													<pproBypass>false</pproBypass>
													<parameter authoringApp="PremierePro">
														<parameterid>scale</parameterid>
														<name>Scale</name>
														<valuemin>0</valuemin>
														<valuemax>1000</valuemax>
														<value>53.3333</value>
													</parameter>
													<parameter authoringApp="PremierePro">
														<parameterid>rotation</parameterid>
														<name>Rotation</name>
														<valuemin>-8640</valuemin>
														<valuemax>8640</valuemax>
														<value>0</value>
													</parameter>
													<parameter authoringApp="PremierePro">
														<parameterid>center</parameterid>
														<name>Center</name>
														<value>
															<horiz>0</horiz>
															<vert>0</vert>
														</value>
													</parameter>
													<parameter authoringApp="PremierePro">
														<parameterid>centerOffset</parameterid>
														<name>Anchor Point</name>
														<value>
															<horiz>0</horiz>
															<vert>0</vert>
														</value>
													</parameter>
													<parameter authoringApp="PremierePro">
														<parameterid>antiflicker</parameterid>
														<name>Anti-flicker Filter</name>
														<valuemin>0.0</valuemin>
														<valuemax>1.0</valuemax>
														<value>0</value>
													</parameter>
												</effect>
											</filter>
											<logginginfo>
												<description></description>
												<scene></scene>
												<shottake></shottake>
												<lognote></lognote>
												<good></good>
												<originalvideofilename></originalvideofilename>
												<originalaudiofilename></originalaudiofilename>
											</logginginfo>
											<colorinfo>
												<lut></lut>
												<lut1></lut1>
												<asc_sop></asc_sop>
												<asc_sat></asc_sat>
												<lut2></lut2>
											</colorinfo>
											<labels>
												<label2>Lavender</label2>
											</labels>
										</clipitem>
										<transitionitem>
											<start>328</start>
											<end>350</end>
											<alignment>end-black</alignment>
											<cutPointTicks>223534080000</cutPointTicks>
											<rate>
												<timebase>25</timebase>
												<ntsc>FALSE</ntsc>
											</rate>
											<effect>
												<name>Edge Wipe</name>
												<effectid>Edge Wipe</effectid>
												<effectcategory>Wipe</effectcategory>
												<effecttype>transition</effecttype>
												<mediatype>video</mediatype>
												<wipecode>2</wipecode>
												<wipeaccuracy>100</wipeaccuracy>
												<startratio>0</startratio>
												<endratio>1</endratio>
												<reverse>FALSE</reverse>
												<parameter authoringApp="PremierePro">
													<parameterid>directionofwipe</parameterid>
													<name>Angle</name>
													<valuemin>-360</valuemin>
													<valuemax>360</valuemax>
													<value>90</value>
												</parameter>
											</effect>
										</transitionitem>
										<enabled>TRUE</enabled>
										<locked>FALSE</locked>
									</track>
									<track TL.SQTrackShy="0" TL.SQTrackExpandedHeight="25" TL.SQTrackExpanded="0" MZ.TrackTargeted="0">
										<transitionitem>
											<start>167</start>
											<end>224</end>
											<alignment>start-black</alignment>
											<cutPointTicks>0</cutPointTicks>
											<rate>
												<timebase>25</timebase>
												<ntsc>FALSE</ntsc>
											</rate>
											<effect>
												<name>Edge Wipe</name>
												<effectid>Edge Wipe</effectid>
												<effectcategory>Wipe</effectcategory>
												<effecttype>transition</effecttype>
												<mediatype>video</mediatype>
												<wipecode>2</wipecode>
												<wipeaccuracy>100</wipeaccuracy>
												<startratio>0</startratio>
												<endratio>1</endratio>
												<reverse>FALSE</reverse>
												<parameter authoringApp="PremierePro">
													<parameterid>directionofwipe</parameterid>
													<name>Angle</name>
													<valuemin>-360</valuemin>
													<valuemax>360</valuemax>
													<value>90</value>
												</parameter>
											</effect>
										</transitionitem>
										<clipitem id="clipitem-697">
											<masterclipid>masterclip-318</masterclipid>
											<name>Graphic</name>
											<enabled>FALSE</enabled>
											<duration>1080000</duration>
											<rate>
												<timebase>25</timebase>
												<ntsc>FALSE</ntsc>
											</rate>
											<start>-1</start>
											<end>-1</end>
											<in>89998</in>
											<out>90181</out>
											<pproTicksIn>914437278720000</pproTicksIn>
											<pproTicksOut>916296675840000</pproTicksOut>
											<alphatype>straight</alphatype>
											<pixelaspectratio>PAL-601</pixelaspectratio>
											<anamorphic>TRUE</anamorphic>
											<file id="file-275">
												<name>Graphic</name>
												<mediaSource>GraphicAndType</mediaSource>
												<rate>
													<timebase>30</timebase>
													<ntsc>TRUE</ntsc>
												</rate>
												<timecode>
													<rate>
														<timebase>30</timebase>
														<ntsc>TRUE</ntsc>
													</rate>
													<string>00;00;00;00</string>
													<frame>0</frame>
													<displayformat>DF</displayformat>
												</timecode>
												<media>
													<video>
														<samplecharacteristics>
															<rate>
																<timebase>30</timebase>
																<ntsc>TRUE</ntsc>
															</rate>
															<width>720</width>
															<height>576</height>
															<anamorphic>TRUE</anamorphic>
															<pixelaspectratio>PAL-601</pixelaspectratio>
															<fielddominance>none</fielddominance>
														</samplecharacteristics>
													</video>
												</media>
											</file>
											<filter>
												<effect>
													<name>АРТУР ПИРОЖКОВ&#13;ЛЕТОМ НА ФИЕСТЕ</name>
													<effectid>GraphicAndType</effectid>
													<effectcategory>graphic</effectcategory>
													<effecttype>filter</effecttype>
													<mediatype>video</mediatype>
													<pproBypass>false</pproBypass>
													<pproExpanded>true</pproExpanded>
													<parameter authoringApp="PremierePro">
														<parameterid>1</parameterid>
														<name>Source Text</name>
														<hash>dc092258-f6b9-fd91-a76f-c3e700000476</hash>
													</parameter>
													<parameter authoringApp="PremierePro">
														<parameterid>2</parameterid>
														<name>Transform</name>
														<IsTimeVarying>false</IsTimeVarying>
														<ParameterControlType>11</ParameterControlType>
														<LowerBound>false</LowerBound>
														<UpperBound>false</UpperBound>
														<value>-91445760000000000,false,0,0,0,0,0,0</value>
													</parameter>
													<parameter authoringApp="PremierePro">
														<parameterid>3</parameterid>
														<name>Position</name>
														<IsTimeVarying>false</IsTimeVarying>
														<value>-91445760000000000,0.36944580078125:0.86468505859375,0,0,0,0,0,0,5,4,0,0,0,0</value>
													</parameter>
													<parameter authoringApp="PremierePro">
														<parameterid>4</parameterid>
														<name>Scale</name>
														<IsTimeVarying>false</IsTimeVarying>
														<ParameterControlType>2</ParameterControlType>
														<LowerBound>0</LowerBound>
														<UpperBound>4000</UpperBound>
														<value>-91445760000000000,100.,0,0,0,0,0,0</value>
													</parameter>
													<parameter authoringApp="PremierePro">
														<parameterid>5</parameterid>
														<name>Horizontal Scale</name>
														<IsTimeVarying>false</IsTimeVarying>
														<ParameterControlType>2</ParameterControlType>
														<LowerBound>0</LowerBound>
														<UpperBound>4000</UpperBound>
														<value>-91445760000000000,100.,0,0,0,0,0,0</value>
													</parameter>
													<parameter authoringApp="PremierePro">
														<parameterid>6</parameterid>
														<name> </name>
														<IsTimeVarying>false</IsTimeVarying>
														<ParameterControlType>4</ParameterControlType>
														<LowerBound>false</LowerBound>
														<UpperBound>true</UpperBound>
														<value>-91445760000000000,true,0,0,0,0,0,0</value>
													</parameter>
													<parameter authoringApp="PremierePro">
														<parameterid>7</parameterid>
														<name>Rotation</name>
														<IsTimeVarying>false</IsTimeVarying>
														<ParameterControlType>3</ParameterControlType>
														<LowerBound>-32768</LowerBound>
														<UpperBound>32767</UpperBound>
														<value>-91445760000000000,0.,0,0,0,0,0,0</value>
													</parameter>
													<parameter authoringApp="PremierePro">
														<parameterid>8</parameterid>
														<name>Opacity</name>
														<IsTimeVarying>false</IsTimeVarying>
														<ParameterControlType>2</ParameterControlType>
														<LowerBound>0</LowerBound>
														<UpperBound>100</UpperBound>
														<value>-91445760000000000,100.,0,0,0,0,0,0</value>
													</parameter>
													<parameter authoringApp="PremierePro">
														<parameterid>9</parameterid>
														<name>Anchor Point</name>
														<IsTimeVarying>false</IsTimeVarying>
														<value>-91445760000000000,0:0,0,0,0,0,0,0,5,4,0,0,0,0</value>
													</parameter>
													<parameter authoringApp="PremierePro">
														<parameterid>10</parameterid>
														<name></name>
														<IsTimeVarying>false</IsTimeVarying>
														<ParameterControlType>12</ParameterControlType>
														<LowerBound>false</LowerBound>
														<UpperBound>false</UpperBound>
														<value>-91445760000000000,false,0,0,0,0,0,0</value>
													</parameter>
													<parameter authoringApp="PremierePro">
														<parameterid>11</parameterid>
														<name> </name>
														<IsTimeVarying>false</IsTimeVarying>
														<ParameterControlType>8</ParameterControlType>
														<LowerBound>0</LowerBound>
														<UpperBound>32768</UpperBound>
														<value>-91445760000000000,0.,0,0,0,0,0,0</value>
													</parameter>
													<parameter authoringApp="PremierePro">
														<parameterid>12</parameterid>
														<name> </name>
														<IsTimeVarying>false</IsTimeVarying>
														<ParameterControlType>8</ParameterControlType>
														<LowerBound>0</LowerBound>
														<UpperBound>32768</UpperBound>
														<value>-91445760000000000,0.,0,0,0,0,0,0</value>
													</parameter>
													<parameter authoringApp="PremierePro">
														<parameterid>13</parameterid>
														<name>start</name>
														<IsTimeVarying>false</IsTimeVarying>
														<ParameterControlType>8</ParameterControlType>
														<LowerBound>-100</LowerBound>
														<UpperBound>1000000000</UpperBound>
														<value>-91445760000000000,30.,0,0,0,0,0,0</value>
													</parameter>
													<parameter authoringApp="PremierePro">
														<parameterid>14</parameterid>
														<name>end</name>
														<IsTimeVarying>false</IsTimeVarying>
														<ParameterControlType>8</ParameterControlType>
														<LowerBound>-100</LowerBound>
														<UpperBound>1000000000</UpperBound>
														<value>-91445760000000000,30.,0,0,0,0,0,0</value>
													</parameter>
													<parameter authoringApp="PremierePro">
														<parameterid>15</parameterid>
														<name> </name>
														<IsTimeVarying>false</IsTimeVarying>
														<ParameterControlType>4</ParameterControlType>
														<LowerBound>false</LowerBound>
														<UpperBound>true</UpperBound>
														<value>-91445760000000000,false,0,0,0,0,0,0</value>
													</parameter>
													<parameter authoringApp="PremierePro">
														<parameterid>16</parameterid>
														<name> </name>
														<IsTimeVarying>false</IsTimeVarying>
														<ParameterControlType>4</ParameterControlType>
														<LowerBound>false</LowerBound>
														<UpperBound>true</UpperBound>
														<value>-91445760000000000,false,0,0,0,0,0,0</value>
													</parameter>
													<parameter authoringApp="PremierePro">
														<parameterid>17</parameterid>
														<name> </name>
														<IsTimeVarying>false</IsTimeVarying>
														<ParameterControlType>4</ParameterControlType>
														<LowerBound>false</LowerBound>
														<UpperBound>true</UpperBound>
														<value>-91445760000000000,false,0,0,0,0,0,0</value>
													</parameter>
													<parameter authoringApp="PremierePro">
														<parameterid>18</parameterid>
														<name> </name>
														<IsTimeVarying>false</IsTimeVarying>
														<ParameterControlType>4</ParameterControlType>
														<LowerBound>false</LowerBound>
														<UpperBound>true</UpperBound>
														<value>-91445760000000000,false,0,0,0,0,0,0</value>
													</parameter>
													<parameter authoringApp="PremierePro">
														<parameterid>19</parameterid>
														<name>Parent Width</name>
														<IsTimeVarying>false</IsTimeVarying>
														<ParameterControlType>2</ParameterControlType>
														<LowerBound>0</LowerBound>
														<UpperBound>20000</UpperBound>
														<value>-91445760000000000,0.,0,0,0,0,0,0</value>
													</parameter>
													<parameter authoringApp="PremierePro">
														<parameterid>20</parameterid>
														<name>Parent Height</name>
														<IsTimeVarying>false</IsTimeVarying>
														<ParameterControlType>2</ParameterControlType>
														<LowerBound>0</LowerBound>
														<UpperBound>20000</UpperBound>
														<value>-91445760000000000,0.,0,0,0,0,0,0</value>
													</parameter>
													<parameter authoringApp="PremierePro">
														<parameterid>21</parameterid>
														<name>Parent Rotation</name>
														<IsTimeVarying>false</IsTimeVarying>
														<ParameterControlType>3</ParameterControlType>
														<LowerBound>-32768</LowerBound>
														<UpperBound>32767</UpperBound>
														<value>-91445760000000000,0.,0,0,0,0,0,0</value>
													</parameter>
												</effect>
											</filter>
											<logginginfo>
												<description></description>
												<scene></scene>
												<shottake></shottake>
												<lognote></lognote>
												<good></good>
												<originalvideofilename></originalvideofilename>
												<originalaudiofilename></originalaudiofilename>
											</logginginfo>
											<colorinfo>
												<lut></lut>
												<lut1></lut1>
												<asc_sop></asc_sop>
												<asc_sat></asc_sat>
												<lut2></lut2>
											</colorinfo>
										</clipitem>
										<transitionitem>
											<start>328</start>
											<end>350</end>
											<alignment>end-black</alignment>
											<cutPointTicks>223534080000</cutPointTicks>
											<rate>
												<timebase>25</timebase>
												<ntsc>FALSE</ntsc>
											</rate>
											<effect>
												<name>Edge Wipe</name>
												<effectid>Edge Wipe</effectid>
												<effectcategory>Wipe</effectcategory>
												<effecttype>transition</effecttype>
												<mediatype>video</mediatype>
												<wipecode>2</wipecode>
												<wipeaccuracy>100</wipeaccuracy>
												<startratio>0</startratio>
												<endratio>1</endratio>
												<reverse>FALSE</reverse>
												<parameter authoringApp="PremierePro">
													<parameterid>directionofwipe</parameterid>
													<name>Angle</name>
													<valuemin>-360</valuemin>
													<valuemax>360</valuemax>
													<value>90</value>
												</parameter>
											</effect>
										</transitionitem>
										<enabled>TRUE</enabled>
										<locked>FALSE</locked>
									</track>
								</video>
								<audio>
									<numOutputChannels>2</numOutputChannels>
									<format>
										<samplecharacteristics>
											<depth>16</depth>
											<samplerate>48000</samplerate>
										</samplecharacteristics>
									</format>
									<outputs>
										<group>
											<index>1</index>
											<numchannels>1</numchannels>
											<downmix>0</downmix>
											<channel>
												<index>1</index>
											</channel>
										</group>
										<group>
											<index>2</index>
											<numchannels>1</numchannels>
											<downmix>0</downmix>
											<channel>
												<index>2</index>
											</channel>
										</group>
									</outputs>
									<track TL.SQTrackAudioKeyframeStyle="0" TL.SQTrackShy="0" TL.SQTrackExpandedHeight="25" TL.SQTrackExpanded="0" MZ.TrackTargeted="1" PannerCurrentValue="0.5" PannerStartKeyframe="-91445760000000000,0.5,0,0,0,0,0,0" PannerName="Balance" currentExplodedTrackIndex="0" totalExplodedTrackCount="2" premiereTrackType="Stereo">
										<enabled>TRUE</enabled>
										<locked>FALSE</locked>
										<outputchannelindex>1</outputchannelindex>
									</track>
									<track TL.SQTrackAudioKeyframeStyle="0" TL.SQTrackShy="0" TL.SQTrackExpandedHeight="25" TL.SQTrackExpanded="0" MZ.TrackTargeted="1" PannerCurrentValue="0.5" PannerStartKeyframe="-91445760000000000,0.5,0,0,0,0,0,0" PannerName="Balance" currentExplodedTrackIndex="1" totalExplodedTrackCount="2" premiereTrackType="Stereo">
										<enabled>TRUE</enabled>
										<locked>FALSE</locked>
										<outputchannelindex>2</outputchannelindex>
									</track>
								</audio>
							</media>
							<timecode>
								<rate>
									<timebase>25</timebase>
									<ntsc>FALSE</ntsc>
								</rate>
								<string>00:00:00:00</string>
								<frame>0</frame>
								<displayformat>NDF</displayformat>
							</timecode>
								<marker>
									<comment></comment>
									<name></name>
									<in>125</in>
									<out>-1</out>
									<pproColor>4280578025</pproColor>
								</marker>
							<logginginfo>
								<description></description>
								<scene></scene>
								<shottake></shottake>
								<lognote></lognote>
								<good></good>
								<originalvideofilename></originalvideofilename>
								<originalaudiofilename></originalaudiofilename>
							</logginginfo>
						</sequence>
							<marker>
								<comment></comment>
								<name></name>
								<in>125</in>
								<out>-1</out>
								<pproColor>4280578025</pproColor>
							</marker>
						<labels>
							<label2>Forest</label2>
						</labels>
					</clipitem>
					<clipitem id="clipitem-698">
						<masterclipid>masterclip-314</masterclipid>
						<name>5</name>
						<enabled>TRUE</enabled>
						<duration>475</duration>
						<rate>
							<timebase>25</timebase>
							<ntsc>FALSE</ntsc>
						</rate>
						<start>43193</start>
						<end>43544</end>
						<in>124</in>
						<out>475</out>
						<pproTicksIn>1259919360000</pproTicksIn>
						<pproTicksOut>4826304000000</pproTicksOut>
						<sequence id="sequence-47"/>
							<marker>
								<comment></comment>
								<name></name>
								<in>125</in>
								<out>-1</out>
								<pproColor>4280578025</pproColor>
							</marker>
						<labels>
							<label2>Forest</label2>
						</labels>
					</clipitem>
					<clipitem id="clipitem-699">
						<masterclipid>masterclip-273</masterclipid>
						<name>титр</name>
						<enabled>TRUE</enabled>
						<duration>225</duration>
						<rate>
							<timebase>25</timebase>
							<ntsc>FALSE</ntsc>
						</rate>
						<start>43604</start>
						<end>43775</end>
						<in>0</in>
						<out>171</out>
						<pproTicksIn>0</pproTicksIn>
						<pproTicksOut>1737469440000</pproTicksOut>
						<sequence id="sequence-37"/>
						<filter>
							<effect>
								<name>Opacity</name>
								<effectid>opacity</effectid>
								<effectcategory>motion</effectcategory>
								<effecttype>motion</effecttype>
								<mediatype>video</mediatype>
								<pproBypass>false</pproBypass>
								<parameter authoringApp="PremierePro">
									<parameterid>opacity</parameterid>
									<name>opacity</name>
									<valuemin>0</valuemin>
									<valuemax>100</valuemax>
									<value>100</value>
								</parameter>
							</effect>
						</filter>
							<marker>
								<comment></comment>
								<name></name>
								<in>57</in>
								<out>-1</out>
								<pproColor>4294741314</pproColor>
							</marker>
						<labels>
							<label2>Forest</label2>
						</labels>
					</clipitem>
					<clipitem id="clipitem-700">
						<masterclipid>masterclip-319</masterclipid>
						<name>4_TITLE</name>
						<enabled>TRUE</enabled>
						<duration>475</duration>
						<rate>
							<timebase>25</timebase>
							<ntsc>FALSE</ntsc>
						</rate>
						<start>44861</start>
						<end>45211</end>
						<in>0</in>
						<out>475</out>
						<pproTicksIn>0</pproTicksIn>
						<pproTicksOut>4826304000000</pproTicksOut>
						<sequence id="sequence-48" TL.SQAudioVisibleBase="0" TL.SQVideoVisibleBase="0" TL.SQVisibleBaseTime="0" TL.SQAVDividerPosition="0.5" TL.SQHideShyTracks="0" TL.SQHeaderWidth="236" TL.SQDataTrackViewControlState="0" Monitor.ProgramZoomOut="4826304000000" Monitor.ProgramZoomIn="0" TL.SQTimePerPixel="0.024999999999999998" AM.TrackVScrollPosition="0" AM.TrackScrollPosition="0" MZ.EditLine="1473292800000" MZ.Sequence.PreviewFrameSizeHeight="576" MZ.Sequence.PreviewFrameSizeWidth="720" MZ.Sequence.AudioTimeDisplayFormat="200" MZ.Sequence.PreviewRenderingClassID="1061109567" MZ.Sequence.PreviewRenderingPresetCodec="1685480304" MZ.Sequence.PreviewRenderingPresetPath="EncoderPresets/SequencePreview/04be6e19-a018-4e0c-a9d6-0ab44c64752b/QuickTime DV PAL.epr" MZ.Sequence.PreviewUseMaxRenderQuality="false" MZ.Sequence.PreviewUseMaxBitDepth="false" MZ.Sequence.EditingModeGUID="04be6e19-a018-4e0c-a9d6-0ab44c64752b" MZ.Sequence.VideoTimeDisplayFormat="101" MZ.WorkOutPoint="4826304000000" MZ.WorkInPoint="0" MZ.ZeroPoint="0">
							<duration>475</duration>
							<rate>
								<timebase>25</timebase>
								<ntsc>FALSE</ntsc>
							</rate>
							<name>титр</name>
							<media>
								<video>
									<format>
										<samplecharacteristics>
											<rate>
												<timebase>25</timebase>
												<ntsc>FALSE</ntsc>
											</rate>
											<codec>
												<name>Apple ProRes 422</name>
												<appspecificdata>
													<appname>Final Cut Pro</appname>
													<appmanufacturer>Apple Inc.</appmanufacturer>
													<appversion>7.0</appversion>
													<data>
														<qtcodec>
															<codecname>Apple ProRes 422</codecname>
															<codectypename>Apple ProRes 422</codectypename>
															<codectypecode>apcn</codectypecode>
															<codecvendorcode>appl</codecvendorcode>
															<spatialquality>1024</spatialquality>
															<temporalquality>0</temporalquality>
															<keyframerate>0</keyframerate>
															<datarate>0</datarate>
														</qtcodec>
													</data>
												</appspecificdata>
											</codec>
											<width>720</width>
											<height>576</height>
											<anamorphic>TRUE</anamorphic>
											<pixelaspectratio>PAL-601</pixelaspectratio>
											<fielddominance>lower</fielddominance>
											<colordepth>24</colordepth>
										</samplecharacteristics>
									</format>
									<track TL.SQTrackShy="0" TL.SQTrackExpandedHeight="25" TL.SQTrackExpanded="0" MZ.TrackTargeted="1">
										<clipitem id="clipitem-701">
											<masterclipid>masterclip-320</masterclipid>
											<name>9_title.mov</name>
											<enabled>TRUE</enabled>
											<duration>225</duration>
											<rate>
												<timebase>25</timebase>
												<ntsc>FALSE</ntsc>
											</rate>
											<start>125</start>
											<end>350</end>
											<in>0</in>
											<out>225</out>
											<pproTicksIn>0</pproTicksIn>
											<pproTicksOut>2286144000000</pproTicksOut>
											<alphatype>straight</alphatype>
											<pixelaspectratio>square</pixelaspectratio>
											<anamorphic>FALSE</anamorphic>
											<file id="file-276">
												<name>4_title.mov</name>
												<pathurl>file://localhost/_MUZ_TV/graphika/RU-21/MOD/title_plashka/4_title.mov</pathurl>
												<rate>
													<timebase>25</timebase>
													<ntsc>FALSE</ntsc>
												</rate>
												<duration>225</duration>
												<timecode>
													<rate>
														<timebase>25</timebase>
														<ntsc>FALSE</ntsc>
													</rate>
													<string>00:00:54:00</string>
													<frame>1350</frame>
													<displayformat>NDF</displayformat>
												</timecode>
												<media>
													<video>
														<samplecharacteristics>
															<rate>
																<timebase>25</timebase>
																<ntsc>FALSE</ntsc>
															</rate>
															<width>1920</width>
															<height>1080</height>
															<anamorphic>FALSE</anamorphic>
															<pixelaspectratio>square</pixelaspectratio>
															<fielddominance>none</fielddominance>
														</samplecharacteristics>
													</video>
												</media>
											</file>
											<filter>
												<effect>
													<name>Basic Motion</name>
													<effectid>basic</effectid>
													<effectcategory>motion</effectcategory>
													<effecttype>motion</effecttype>
													<mediatype>video</mediatype>
													<pproBypass>false</pproBypass>
													<parameter authoringApp="PremierePro">
														<parameterid>scale</parameterid>
														<name>Scale</name>
														<valuemin>0</valuemin>
														<valuemax>1000</valuemax>
														<value>55</value>
													</parameter>
													<parameter authoringApp="PremierePro">
														<parameterid>rotation</parameterid>
														<name>Rotation</name>
														<valuemin>-8640</valuemin>
														<valuemax>8640</valuemax>
														<value>0</value>
													</parameter>
													<parameter authoringApp="PremierePro">
														<parameterid>center</parameterid>
														<name>Center</name>
														<value>
															<horiz>0</horiz>
															<vert>0</vert>
														</value>
													</parameter>
													<parameter authoringApp="PremierePro">
														<parameterid>centerOffset</parameterid>
														<name>Anchor Point</name>
														<value>
															<horiz>0</horiz>
															<vert>0</vert>
														</value>
													</parameter>
													<parameter authoringApp="PremierePro">
														<parameterid>antiflicker</parameterid>
														<name>Anti-flicker Filter</name>
														<valuemin>0.0</valuemin>
														<valuemax>1.0</valuemax>
														<value>0</value>
													</parameter>
												</effect>
											</filter>
											<filter>
												<effect>
													<name>Distort</name>
													<effectid>deformation</effectid>
													<effectcategory>motion</effectcategory>
													<effecttype>motion</effecttype>
													<mediatype>video</mediatype>
													<parameter authoringApp="PremierePro">
														<parameterid>aspect</parameterid>
														<name>Aspect</name>
														<valuemin>-10000</valuemin>
														<valuemax>10000</valuemax>
														<value>-3.12506</value>
													</parameter>
												</effect>
											</filter>
											<logginginfo>
												<description></description>
												<scene></scene>
												<shottake></shottake>
												<lognote></lognote>
												<good></good>
												<originalvideofilename></originalvideofilename>
												<originalaudiofilename></originalaudiofilename>
											</logginginfo>
											<colorinfo>
												<lut></lut>
												<lut1></lut1>
												<asc_sop></asc_sop>
												<asc_sat></asc_sat>
												<lut2></lut2>
											</colorinfo>
											<labels>
												<label2>Violet</label2>
											</labels>
										</clipitem>
										<clipitem id="clipitem-702">
											<masterclipid>masterclip-321</masterclipid>
											<name>Graphic</name>
											<enabled>FALSE</enabled>
											<duration>1080000</duration>
											<rate>
												<timebase>25</timebase>
												<ntsc>FALSE</ntsc>
											</rate>
											<start>350</start>
											<end>475</end>
											<in>90000</in>
											<out>90125</out>
											<pproTicksIn>914457600000000</pproTicksIn>
											<pproTicksOut>915727680000000</pproTicksOut>
											<alphatype>straight</alphatype>
											<pixelaspectratio>PAL-601</pixelaspectratio>
											<anamorphic>TRUE</anamorphic>
											<file id="file-277">
												<name>Graphic</name>
												<mediaSource>GraphicAndType</mediaSource>
												<rate>
													<timebase>30</timebase>
													<ntsc>TRUE</ntsc>
												</rate>
												<timecode>
													<rate>
														<timebase>30</timebase>
														<ntsc>TRUE</ntsc>
													</rate>
													<string>00;00;00;00</string>
													<frame>0</frame>
													<displayformat>DF</displayformat>
												</timecode>
												<media>
													<video>
														<samplecharacteristics>
															<rate>
																<timebase>30</timebase>
																<ntsc>TRUE</ntsc>
															</rate>
															<width>720</width>
															<height>576</height>
															<anamorphic>TRUE</anamorphic>
															<pixelaspectratio>PAL-601</pixelaspectratio>
															<fielddominance>none</fielddominance>
														</samplecharacteristics>
													</video>
												</media>
											</file>
											<filter>
												<effect>
													<name>Basic Motion</name>
													<effectid>basic</effectid>
													<effectcategory>motion</effectcategory>
													<effecttype>motion</effecttype>
													<mediatype>video</mediatype>
													<pproBypass>false</pproBypass>
													<parameter authoringApp="PremierePro">
														<parameterid>scale</parameterid>
														<name>Scale</name>
														<valuemin>0</valuemin>
														<valuemax>1000</valuemax>
														<value>133.333</value>
													</parameter>
													<parameter authoringApp="PremierePro">
														<parameterid>rotation</parameterid>
														<name>Rotation</name>
														<valuemin>-8640</valuemin>
														<valuemax>8640</valuemax>
														<value>0</value>
													</parameter>
													<parameter authoringApp="PremierePro">
														<parameterid>center</parameterid>
														<name>Center</name>
														<value>
															<horiz>0</horiz>
															<vert>0</vert>
														</value>
													</parameter>
													<parameter authoringApp="PremierePro">
														<parameterid>centerOffset</parameterid>
														<name>Anchor Point</name>
														<value>
															<horiz>0</horiz>
															<vert>0</vert>
														</value>
													</parameter>
													<parameter authoringApp="PremierePro">
														<parameterid>antiflicker</parameterid>
														<name>Anti-flicker Filter</name>
														<valuemin>0.0</valuemin>
														<valuemax>1.0</valuemax>
														<value>0</value>
													</parameter>
												</effect>
											</filter>
											<filter>
												<effect>
													<name>Distort</name>
													<effectid>deformation</effectid>
													<effectcategory>motion</effectcategory>
													<effecttype>motion</effecttype>
													<mediatype>video</mediatype>
													<parameter authoringApp="PremierePro">
														<parameterid>aspect</parameterid>
														<name>Aspect</name>
														<valuemin>-10000</valuemin>
														<valuemax>10000</valuemax>
														<value>-33.333</value>
													</parameter>
												</effect>
											</filter>
											<filter>
												<effect>
													<name></name>
													<effectid>GraphicAndType</effectid>
													<effectcategory>graphic</effectcategory>
													<effecttype>filter</effecttype>
													<mediatype>video</mediatype>
													<pproBypass>false</pproBypass>
													<parameter authoringApp="PremierePro">
														<parameterid>1</parameterid>
														<name>Source Text</name>
														<hash>3f0faa81-c1b0-8370-b66c-fa0b000009f1</hash>
													</parameter>
													<parameter authoringApp="PremierePro">
														<parameterid>2</parameterid>
														<name>Transform</name>
														<IsTimeVarying>false</IsTimeVarying>
														<ParameterControlType>11</ParameterControlType>
														<LowerBound>false</LowerBound>
														<UpperBound>false</UpperBound>
														<value>-91445760000000000,false,0,0,0,0,0,0</value>
													</parameter>
													<parameter authoringApp="PremierePro">
														<parameterid>3</parameterid>
														<name>Position</name>
														<IsTimeVarying>false</IsTimeVarying>
														<value>-91445760000000000,0.55605381727218628:0.73039215803146362,0,0,0,0,0,0,5,4,0,0,0,0</value>
													</parameter>
													<parameter authoringApp="PremierePro">
														<parameterid>4</parameterid>
														<name>Scale</name>
														<IsTimeVarying>false</IsTimeVarying>
														<ParameterControlType>2</ParameterControlType>
														<LowerBound>0</LowerBound>
														<UpperBound>4000</UpperBound>
														<value>-91445760000000000,100.,0,0,0,0,0,0</value>
													</parameter>
													<parameter authoringApp="PremierePro">
														<parameterid>5</parameterid>
														<name>Horizontal Scale</name>
														<IsTimeVarying>false</IsTimeVarying>
														<ParameterControlType>2</ParameterControlType>
														<LowerBound>0</LowerBound>
														<UpperBound>4000</UpperBound>
														<value>-91445760000000000,100.,0,0,0,0,0,0</value>
													</parameter>
													<parameter authoringApp="PremierePro">
														<parameterid>6</parameterid>
														<name> </name>
														<IsTimeVarying>false</IsTimeVarying>
														<ParameterControlType>4</ParameterControlType>
														<LowerBound>false</LowerBound>
														<UpperBound>true</UpperBound>
														<value>-91445760000000000,true,0,0,0,0,0,0</value>
													</parameter>
													<parameter authoringApp="PremierePro">
														<parameterid>7</parameterid>
														<name>Rotation</name>
														<IsTimeVarying>false</IsTimeVarying>
														<ParameterControlType>3</ParameterControlType>
														<LowerBound>-32768</LowerBound>
														<UpperBound>32767</UpperBound>
														<value>-91445760000000000,0.,0,0,0,0,0,0</value>
													</parameter>
													<parameter authoringApp="PremierePro">
														<parameterid>8</parameterid>
														<name>Opacity</name>
														<IsTimeVarying>false</IsTimeVarying>
														<ParameterControlType>2</ParameterControlType>
														<LowerBound>0</LowerBound>
														<UpperBound>100</UpperBound>
														<value>-91445760000000000,100.,0,0,0,0,0,0</value>
													</parameter>
													<parameter authoringApp="PremierePro">
														<parameterid>9</parameterid>
														<name>Anchor Point</name>
														<IsTimeVarying>false</IsTimeVarying>
														<value>-91445760000000000,0:0,0,0,0,0,0,0,5,4,0,0,0,0</value>
													</parameter>
													<parameter authoringApp="PremierePro">
														<parameterid>10</parameterid>
														<name></name>
														<IsTimeVarying>false</IsTimeVarying>
														<ParameterControlType>12</ParameterControlType>
														<LowerBound>false</LowerBound>
														<UpperBound>false</UpperBound>
														<value>-91445760000000000,false,0,0,0,0,0,0</value>
													</parameter>
													<parameter authoringApp="PremierePro">
														<parameterid>11</parameterid>
														<name> </name>
														<IsTimeVarying>false</IsTimeVarying>
														<ParameterControlType>8</ParameterControlType>
														<LowerBound>0</LowerBound>
														<UpperBound>32768</UpperBound>
														<value>-91445760000000000,0.,0,0,0,0,0,0</value>
													</parameter>
													<parameter authoringApp="PremierePro">
														<parameterid>12</parameterid>
														<name> </name>
														<IsTimeVarying>false</IsTimeVarying>
														<ParameterControlType>8</ParameterControlType>
														<LowerBound>0</LowerBound>
														<UpperBound>32768</UpperBound>
														<value>-91445760000000000,0.,0,0,0,0,0,0</value>
													</parameter>
													<parameter authoringApp="PremierePro">
														<parameterid>13</parameterid>
														<name>start</name>
														<IsTimeVarying>false</IsTimeVarying>
														<ParameterControlType>8</ParameterControlType>
														<LowerBound>-100</LowerBound>
														<UpperBound>1000000000</UpperBound>
														<value>-91445760000000000,0.,0,0,0,0,0,0</value>
													</parameter>
													<parameter authoringApp="PremierePro">
														<parameterid>14</parameterid>
														<name>end</name>
														<IsTimeVarying>false</IsTimeVarying>
														<ParameterControlType>8</ParameterControlType>
														<LowerBound>-100</LowerBound>
														<UpperBound>1000000000</UpperBound>
														<value>-91445760000000000,0.,0,0,0,0,0,0</value>
													</parameter>
													<parameter authoringApp="PremierePro">
														<parameterid>15</parameterid>
														<name> </name>
														<IsTimeVarying>false</IsTimeVarying>
														<ParameterControlType>4</ParameterControlType>
														<LowerBound>false</LowerBound>
														<UpperBound>true</UpperBound>
														<value>-91445760000000000,false,0,0,0,0,0,0</value>
													</parameter>
													<parameter authoringApp="PremierePro">
														<parameterid>16</parameterid>
														<name> </name>
														<IsTimeVarying>false</IsTimeVarying>
														<ParameterControlType>4</ParameterControlType>
														<LowerBound>false</LowerBound>
														<UpperBound>true</UpperBound>
														<value>-91445760000000000,false,0,0,0,0,0,0</value>
													</parameter>
													<parameter authoringApp="PremierePro">
														<parameterid>17</parameterid>
														<name> </name>
														<IsTimeVarying>false</IsTimeVarying>
														<ParameterControlType>4</ParameterControlType>
														<LowerBound>false</LowerBound>
														<UpperBound>true</UpperBound>
														<value>-91445760000000000,false,0,0,0,0,0,0</value>
													</parameter>
													<parameter authoringApp="PremierePro">
														<parameterid>18</parameterid>
														<name> </name>
														<IsTimeVarying>false</IsTimeVarying>
														<ParameterControlType>4</ParameterControlType>
														<LowerBound>false</LowerBound>
														<UpperBound>true</UpperBound>
														<value>-91445760000000000,false,0,0,0,0,0,0</value>
													</parameter>
													<parameter authoringApp="PremierePro">
														<parameterid>19</parameterid>
														<name>Parent Width</name>
														<IsTimeVarying>false</IsTimeVarying>
														<ParameterControlType>2</ParameterControlType>
														<LowerBound>0</LowerBound>
														<UpperBound>20000</UpperBound>
														<value>-91445760000000000,0.,0,0,0,0,0,0</value>
													</parameter>
													<parameter authoringApp="PremierePro">
														<parameterid>20</parameterid>
														<name>Parent Height</name>
														<IsTimeVarying>false</IsTimeVarying>
														<ParameterControlType>2</ParameterControlType>
														<LowerBound>0</LowerBound>
														<UpperBound>20000</UpperBound>
														<value>-91445760000000000,0.,0,0,0,0,0,0</value>
													</parameter>
													<parameter authoringApp="PremierePro">
														<parameterid>21</parameterid>
														<name>Parent Rotation</name>
														<IsTimeVarying>false</IsTimeVarying>
														<ParameterControlType>3</ParameterControlType>
														<LowerBound>-32768</LowerBound>
														<UpperBound>32767</UpperBound>
														<value>-91445760000000000,0.,0,0,0,0,0,0</value>
													</parameter>
												</effect>
											</filter>
											<logginginfo>
												<description></description>
												<scene></scene>
												<shottake></shottake>
												<lognote></lognote>
												<good></good>
												<originalvideofilename></originalvideofilename>
												<originalaudiofilename></originalaudiofilename>
											</logginginfo>
											<colorinfo>
												<lut></lut>
												<lut1></lut1>
												<asc_sop></asc_sop>
												<asc_sat></asc_sat>
												<lut2></lut2>
											</colorinfo>
										</clipitem>
										<enabled>TRUE</enabled>
										<locked>FALSE</locked>
									</track>
									<track TL.SQTrackShy="0" TL.SQTrackExpandedHeight="25" TL.SQTrackExpanded="0" MZ.TrackTargeted="0">
										<transitionitem>
											<start>167</start>
											<end>224</end>
											<alignment>start-black</alignment>
											<cutPointTicks>0</cutPointTicks>
											<rate>
												<timebase>25</timebase>
												<ntsc>FALSE</ntsc>
											</rate>
											<effect>
												<name>Edge Wipe</name>
												<effectid>Edge Wipe</effectid>
												<effectcategory>Wipe</effectcategory>
												<effecttype>transition</effecttype>
												<mediatype>video</mediatype>
												<wipecode>2</wipecode>
												<wipeaccuracy>100</wipeaccuracy>
												<startratio>0</startratio>
												<endratio>1</endratio>
												<reverse>FALSE</reverse>
												<parameter authoringApp="PremierePro">
													<parameterid>directionofwipe</parameterid>
													<name>Angle</name>
													<valuemin>-360</valuemin>
													<valuemax>360</valuemax>
													<value>90</value>
												</parameter>
											</effect>
										</transitionitem>
										<clipitem id="clipitem-703">
											<masterclipid>masterclip-322</masterclipid>
											<name>9.png</name>
											<enabled>TRUE</enabled>
											<duration>1080000</duration>
											<rate>
												<timebase>25</timebase>
												<ntsc>FALSE</ntsc>
											</rate>
											<start>-1</start>
											<end>-1</end>
											<in>90042</in>
											<out>90225</out>
											<pproTicksIn>914884346880000</pproTicksIn>
											<pproTicksOut>916743744000000</pproTicksOut>
											<alphatype>straight</alphatype>
											<pixelaspectratio>square</pixelaspectratio>
											<anamorphic>FALSE</anamorphic>
											<file id="file-278">
												<name>4.png</name>
												<pathurl>file://localhost/_MUZ_TV/project_AP/RU/_TITLE/END/4.png</pathurl>
												<rate>
													<timebase>30</timebase>
													<ntsc>TRUE</ntsc>
												</rate>
												<timecode>
													<rate>
														<timebase>30</timebase>
														<ntsc>TRUE</ntsc>
													</rate>
													<string>00;00;00;00</string>
													<frame>0</frame>
													<displayformat>DF</displayformat>
												</timecode>
												<media>
													<video>
														<samplecharacteristics>
															<rate>
																<timebase>30</timebase>
																<ntsc>TRUE</ntsc>
															</rate>
															<width>1920</width>
															<height>1080</height>
															<anamorphic>FALSE</anamorphic>
															<pixelaspectratio>square</pixelaspectratio>
															<fielddominance>none</fielddominance>
														</samplecharacteristics>
													</video>
												</media>
											</file>
											<filter>
												<effect>
													<name>Basic Motion</name>
													<effectid>basic</effectid>
													<effectcategory>motion</effectcategory>
													<effecttype>motion</effecttype>
													<mediatype>video</mediatype>
													<pproBypass>false</pproBypass>
													<parameter authoringApp="PremierePro">
														<parameterid>scale</parameterid>
														<name>Scale</name>
														<valuemin>0</valuemin>
														<valuemax>1000</valuemax>
														<value>53.3333</value>
													</parameter>
													<parameter authoringApp="PremierePro">
														<parameterid>rotation</parameterid>
														<name>Rotation</name>
														<valuemin>-8640</valuemin>
														<valuemax>8640</valuemax>
														<value>0</value>
													</parameter>
													<parameter authoringApp="PremierePro">
														<parameterid>center</parameterid>
														<name>Center</name>
														<value>
															<horiz>0</horiz>
															<vert>0</vert>
														</value>
													</parameter>
													<parameter authoringApp="PremierePro">
														<parameterid>centerOffset</parameterid>
														<name>Anchor Point</name>
														<value>
															<horiz>0</horiz>
															<vert>0</vert>
														</value>
													</parameter>
													<parameter authoringApp="PremierePro">
														<parameterid>antiflicker</parameterid>
														<name>Anti-flicker Filter</name>
														<valuemin>0.0</valuemin>
														<valuemax>1.0</valuemax>
														<value>0</value>
													</parameter>
												</effect>
											</filter>
											<logginginfo>
												<description></description>
												<scene></scene>
												<shottake></shottake>
												<lognote></lognote>
												<good></good>
												<originalvideofilename></originalvideofilename>
												<originalaudiofilename></originalaudiofilename>
											</logginginfo>
											<colorinfo>
												<lut></lut>
												<lut1></lut1>
												<asc_sop></asc_sop>
												<asc_sat></asc_sat>
												<lut2></lut2>
											</colorinfo>
											<labels>
												<label2>Lavender</label2>
											</labels>
										</clipitem>
										<transitionitem>
											<start>328</start>
											<end>350</end>
											<alignment>end-black</alignment>
											<cutPointTicks>223534080000</cutPointTicks>
											<rate>
												<timebase>25</timebase>
												<ntsc>FALSE</ntsc>
											</rate>
											<effect>
												<name>Edge Wipe</name>
												<effectid>Edge Wipe</effectid>
												<effectcategory>Wipe</effectcategory>
												<effecttype>transition</effecttype>
												<mediatype>video</mediatype>
												<wipecode>2</wipecode>
												<wipeaccuracy>100</wipeaccuracy>
												<startratio>0</startratio>
												<endratio>1</endratio>
												<reverse>FALSE</reverse>
												<parameter authoringApp="PremierePro">
													<parameterid>directionofwipe</parameterid>
													<name>Angle</name>
													<valuemin>-360</valuemin>
													<valuemax>360</valuemax>
													<value>90</value>
												</parameter>
											</effect>
										</transitionitem>
										<enabled>TRUE</enabled>
										<locked>FALSE</locked>
									</track>
									<track TL.SQTrackShy="0" TL.SQTrackExpandedHeight="25" TL.SQTrackExpanded="0" MZ.TrackTargeted="0">
										<transitionitem>
											<start>167</start>
											<end>224</end>
											<alignment>start-black</alignment>
											<cutPointTicks>0</cutPointTicks>
											<rate>
												<timebase>25</timebase>
												<ntsc>FALSE</ntsc>
											</rate>
											<effect>
												<name>Edge Wipe</name>
												<effectid>Edge Wipe</effectid>
												<effectcategory>Wipe</effectcategory>
												<effecttype>transition</effecttype>
												<mediatype>video</mediatype>
												<wipecode>2</wipecode>
												<wipeaccuracy>100</wipeaccuracy>
												<startratio>0</startratio>
												<endratio>1</endratio>
												<reverse>FALSE</reverse>
												<parameter authoringApp="PremierePro">
													<parameterid>directionofwipe</parameterid>
													<name>Angle</name>
													<valuemin>-360</valuemin>
													<valuemax>360</valuemax>
													<value>90</value>
												</parameter>
											</effect>
										</transitionitem>
										<clipitem id="clipitem-704">
											<masterclipid>masterclip-323</masterclipid>
											<name>Graphic</name>
											<enabled>FALSE</enabled>
											<duration>1080000</duration>
											<rate>
												<timebase>25</timebase>
												<ntsc>FALSE</ntsc>
											</rate>
											<start>-1</start>
											<end>-1</end>
											<in>89998</in>
											<out>90181</out>
											<pproTicksIn>914437278720000</pproTicksIn>
											<pproTicksOut>916296675840000</pproTicksOut>
											<alphatype>straight</alphatype>
											<pixelaspectratio>PAL-601</pixelaspectratio>
											<anamorphic>TRUE</anamorphic>
											<file id="file-279">
												<name>Graphic</name>
												<mediaSource>GraphicAndType</mediaSource>
												<rate>
													<timebase>30</timebase>
													<ntsc>TRUE</ntsc>
												</rate>
												<timecode>
													<rate>
														<timebase>30</timebase>
														<ntsc>TRUE</ntsc>
													</rate>
													<string>00;00;00;00</string>
													<frame>0</frame>
													<displayformat>DF</displayformat>
												</timecode>
												<media>
													<video>
														<samplecharacteristics>
															<rate>
																<timebase>30</timebase>
																<ntsc>TRUE</ntsc>
															</rate>
															<width>720</width>
															<height>576</height>
															<anamorphic>TRUE</anamorphic>
															<pixelaspectratio>PAL-601</pixelaspectratio>
															<fielddominance>none</fielddominance>
														</samplecharacteristics>
													</video>
												</media>
											</file>
											<filter>
												<effect>
													<name>АРТУР ПИРОЖКОВ&#13;ЛЕТОМ НА ФИЕСТЕ</name>
													<effectid>GraphicAndType</effectid>
													<effectcategory>graphic</effectcategory>
													<effecttype>filter</effecttype>
													<mediatype>video</mediatype>
													<pproBypass>false</pproBypass>
													<pproExpanded>true</pproExpanded>
													<parameter authoringApp="PremierePro">
														<parameterid>1</parameterid>
														<name>Source Text</name>
														<hash>dc092258-f6b9-fd91-a76f-c3e700000476</hash>
													</parameter>
													<parameter authoringApp="PremierePro">
														<parameterid>2</parameterid>
														<name>Transform</name>
														<IsTimeVarying>false</IsTimeVarying>
														<ParameterControlType>11</ParameterControlType>
														<LowerBound>false</LowerBound>
														<UpperBound>false</UpperBound>
														<value>-91445760000000000,false,0,0,0,0,0,0</value>
													</parameter>
													<parameter authoringApp="PremierePro">
														<parameterid>3</parameterid>
														<name>Position</name>
														<IsTimeVarying>false</IsTimeVarying>
														<value>-91445760000000000,0.36944580078125:0.86468505859375,0,0,0,0,0,0,5,4,0,0,0,0</value>
													</parameter>
													<parameter authoringApp="PremierePro">
														<parameterid>4</parameterid>
														<name>Scale</name>
														<IsTimeVarying>false</IsTimeVarying>
														<ParameterControlType>2</ParameterControlType>
														<LowerBound>0</LowerBound>
														<UpperBound>4000</UpperBound>
														<value>-91445760000000000,100.,0,0,0,0,0,0</value>
													</parameter>
													<parameter authoringApp="PremierePro">
														<parameterid>5</parameterid>
														<name>Horizontal Scale</name>
														<IsTimeVarying>false</IsTimeVarying>
														<ParameterControlType>2</ParameterControlType>
														<LowerBound>0</LowerBound>
														<UpperBound>4000</UpperBound>
														<value>-91445760000000000,100.,0,0,0,0,0,0</value>
													</parameter>
													<parameter authoringApp="PremierePro">
														<parameterid>6</parameterid>
														<name> </name>
														<IsTimeVarying>false</IsTimeVarying>
														<ParameterControlType>4</ParameterControlType>
														<LowerBound>false</LowerBound>
														<UpperBound>true</UpperBound>
														<value>-91445760000000000,true,0,0,0,0,0,0</value>
													</parameter>
													<parameter authoringApp="PremierePro">
														<parameterid>7</parameterid>
														<name>Rotation</name>
														<IsTimeVarying>false</IsTimeVarying>
														<ParameterControlType>3</ParameterControlType>
														<LowerBound>-32768</LowerBound>
														<UpperBound>32767</UpperBound>
														<value>-91445760000000000,0.,0,0,0,0,0,0</value>
													</parameter>
													<parameter authoringApp="PremierePro">
														<parameterid>8</parameterid>
														<name>Opacity</name>
														<IsTimeVarying>false</IsTimeVarying>
														<ParameterControlType>2</ParameterControlType>
														<LowerBound>0</LowerBound>
														<UpperBound>100</UpperBound>
														<value>-91445760000000000,100.,0,0,0,0,0,0</value>
													</parameter>
													<parameter authoringApp="PremierePro">
														<parameterid>9</parameterid>
														<name>Anchor Point</name>
														<IsTimeVarying>false</IsTimeVarying>
														<value>-91445760000000000,0:0,0,0,0,0,0,0,5,4,0,0,0,0</value>
													</parameter>
													<parameter authoringApp="PremierePro">
														<parameterid>10</parameterid>
														<name></name>
														<IsTimeVarying>false</IsTimeVarying>
														<ParameterControlType>12</ParameterControlType>
														<LowerBound>false</LowerBound>
														<UpperBound>false</UpperBound>
														<value>-91445760000000000,false,0,0,0,0,0,0</value>
													</parameter>
													<parameter authoringApp="PremierePro">
														<parameterid>11</parameterid>
														<name> </name>
														<IsTimeVarying>false</IsTimeVarying>
														<ParameterControlType>8</ParameterControlType>
														<LowerBound>0</LowerBound>
														<UpperBound>32768</UpperBound>
														<value>-91445760000000000,0.,0,0,0,0,0,0</value>
													</parameter>
													<parameter authoringApp="PremierePro">
														<parameterid>12</parameterid>
														<name> </name>
														<IsTimeVarying>false</IsTimeVarying>
														<ParameterControlType>8</ParameterControlType>
														<LowerBound>0</LowerBound>
														<UpperBound>32768</UpperBound>
														<value>-91445760000000000,0.,0,0,0,0,0,0</value>
													</parameter>
													<parameter authoringApp="PremierePro">
														<parameterid>13</parameterid>
														<name>start</name>
														<IsTimeVarying>false</IsTimeVarying>
														<ParameterControlType>8</ParameterControlType>
														<LowerBound>-100</LowerBound>
														<UpperBound>1000000000</UpperBound>
														<value>-91445760000000000,30.,0,0,0,0,0,0</value>
													</parameter>
													<parameter authoringApp="PremierePro">
														<parameterid>14</parameterid>
														<name>end</name>
														<IsTimeVarying>false</IsTimeVarying>
														<ParameterControlType>8</ParameterControlType>
														<LowerBound>-100</LowerBound>
														<UpperBound>1000000000</UpperBound>
														<value>-91445760000000000,30.,0,0,0,0,0,0</value>
													</parameter>
													<parameter authoringApp="PremierePro">
														<parameterid>15</parameterid>
														<name> </name>
														<IsTimeVarying>false</IsTimeVarying>
														<ParameterControlType>4</ParameterControlType>
														<LowerBound>false</LowerBound>
														<UpperBound>true</UpperBound>
														<value>-91445760000000000,false,0,0,0,0,0,0</value>
													</parameter>
													<parameter authoringApp="PremierePro">
														<parameterid>16</parameterid>
														<name> </name>
														<IsTimeVarying>false</IsTimeVarying>
														<ParameterControlType>4</ParameterControlType>
														<LowerBound>false</LowerBound>
														<UpperBound>true</UpperBound>
														<value>-91445760000000000,false,0,0,0,0,0,0</value>
													</parameter>
													<parameter authoringApp="PremierePro">
														<parameterid>17</parameterid>
														<name> </name>
														<IsTimeVarying>false</IsTimeVarying>
														<ParameterControlType>4</ParameterControlType>
														<LowerBound>false</LowerBound>
														<UpperBound>true</UpperBound>
														<value>-91445760000000000,false,0,0,0,0,0,0</value>
													</parameter>
													<parameter authoringApp="PremierePro">
														<parameterid>18</parameterid>
														<name> </name>
														<IsTimeVarying>false</IsTimeVarying>
														<ParameterControlType>4</ParameterControlType>
														<LowerBound>false</LowerBound>
														<UpperBound>true</UpperBound>
														<value>-91445760000000000,false,0,0,0,0,0,0</value>
													</parameter>
													<parameter authoringApp="PremierePro">
														<parameterid>19</parameterid>
														<name>Parent Width</name>
														<IsTimeVarying>false</IsTimeVarying>
														<ParameterControlType>2</ParameterControlType>
														<LowerBound>0</LowerBound>
														<UpperBound>20000</UpperBound>
														<value>-91445760000000000,0.,0,0,0,0,0,0</value>
													</parameter>
													<parameter authoringApp="PremierePro">
														<parameterid>20</parameterid>
														<name>Parent Height</name>
														<IsTimeVarying>false</IsTimeVarying>
														<ParameterControlType>2</ParameterControlType>
														<LowerBound>0</LowerBound>
														<UpperBound>20000</UpperBound>
														<value>-91445760000000000,0.,0,0,0,0,0,0</value>
													</parameter>
													<parameter authoringApp="PremierePro">
														<parameterid>21</parameterid>
														<name>Parent Rotation</name>
														<IsTimeVarying>false</IsTimeVarying>
														<ParameterControlType>3</ParameterControlType>
														<LowerBound>-32768</LowerBound>
														<UpperBound>32767</UpperBound>
														<value>-91445760000000000,0.,0,0,0,0,0,0</value>
													</parameter>
												</effect>
											</filter>
											<logginginfo>
												<description></description>
												<scene></scene>
												<shottake></shottake>
												<lognote></lognote>
												<good></good>
												<originalvideofilename></originalvideofilename>
												<originalaudiofilename></originalaudiofilename>
											</logginginfo>
											<colorinfo>
												<lut></lut>
												<lut1></lut1>
												<asc_sop></asc_sop>
												<asc_sat></asc_sat>
												<lut2></lut2>
											</colorinfo>
										</clipitem>
										<transitionitem>
											<start>328</start>
											<end>350</end>
											<alignment>end-black</alignment>
											<cutPointTicks>223534080000</cutPointTicks>
											<rate>
												<timebase>25</timebase>
												<ntsc>FALSE</ntsc>
											</rate>
											<effect>
												<name>Edge Wipe</name>
												<effectid>Edge Wipe</effectid>
												<effectcategory>Wipe</effectcategory>
												<effecttype>transition</effecttype>
												<mediatype>video</mediatype>
												<wipecode>2</wipecode>
												<wipeaccuracy>100</wipeaccuracy>
												<startratio>0</startratio>
												<endratio>1</endratio>
												<reverse>FALSE</reverse>
												<parameter authoringApp="PremierePro">
													<parameterid>directionofwipe</parameterid>
													<name>Angle</name>
													<valuemin>-360</valuemin>
													<valuemax>360</valuemax>
													<value>90</value>
												</parameter>
											</effect>
										</transitionitem>
										<enabled>TRUE</enabled>
										<locked>FALSE</locked>
									</track>
								</video>
								<audio>
									<numOutputChannels>2</numOutputChannels>
									<format>
										<samplecharacteristics>
											<depth>16</depth>
											<samplerate>48000</samplerate>
										</samplecharacteristics>
									</format>
									<outputs>
										<group>
											<index>1</index>
											<numchannels>1</numchannels>
											<downmix>0</downmix>
											<channel>
												<index>1</index>
											</channel>
										</group>
										<group>
											<index>2</index>
											<numchannels>1</numchannels>
											<downmix>0</downmix>
											<channel>
												<index>2</index>
											</channel>
										</group>
									</outputs>
									<track TL.SQTrackAudioKeyframeStyle="0" TL.SQTrackShy="0" TL.SQTrackExpandedHeight="25" TL.SQTrackExpanded="0" MZ.TrackTargeted="1" PannerCurrentValue="0.5" PannerStartKeyframe="-91445760000000000,0.5,0,0,0,0,0,0" PannerName="Balance" currentExplodedTrackIndex="0" totalExplodedTrackCount="2" premiereTrackType="Stereo">
										<enabled>TRUE</enabled>
										<locked>FALSE</locked>
										<outputchannelindex>1</outputchannelindex>
									</track>
									<track TL.SQTrackAudioKeyframeStyle="0" TL.SQTrackShy="0" TL.SQTrackExpandedHeight="25" TL.SQTrackExpanded="0" MZ.TrackTargeted="1" PannerCurrentValue="0.5" PannerStartKeyframe="-91445760000000000,0.5,0,0,0,0,0,0" PannerName="Balance" currentExplodedTrackIndex="1" totalExplodedTrackCount="2" premiereTrackType="Stereo">
										<enabled>TRUE</enabled>
										<locked>FALSE</locked>
										<outputchannelindex>2</outputchannelindex>
									</track>
								</audio>
							</media>
							<timecode>
								<rate>
									<timebase>25</timebase>
									<ntsc>FALSE</ntsc>
								</rate>
								<string>00:00:00:00</string>
								<frame>0</frame>
								<displayformat>NDF</displayformat>
							</timecode>
								<marker>
									<comment></comment>
									<name></name>
									<in>125</in>
									<out>-1</out>
									<pproColor>4280578025</pproColor>
								</marker>
							<logginginfo>
								<description></description>
								<scene></scene>
								<shottake></shottake>
								<lognote></lognote>
								<good></good>
								<originalvideofilename></originalvideofilename>
								<originalaudiofilename></originalaudiofilename>
							</logginginfo>
						</sequence>
							<marker>
								<comment></comment>
								<name></name>
								<in>125</in>
								<out>-1</out>
								<pproColor>4280578025</pproColor>
							</marker>
						<labels>
							<label2>Forest</label2>
						</labels>
					</clipitem>
					<clipitem id="clipitem-705">
						<masterclipid>masterclip-319</masterclipid>
						<name>4</name>
						<enabled>TRUE</enabled>
						<duration>475</duration>
						<rate>
							<timebase>25</timebase>
							<ntsc>FALSE</ntsc>
						</rate>
						<start>48881</start>
						<end>49232</end>
						<in>124</in>
						<out>475</out>
						<pproTicksIn>1259919360000</pproTicksIn>
						<pproTicksOut>4826304000000</pproTicksOut>
						<sequence id="sequence-48"/>
							<marker>
								<comment></comment>
								<name></name>
								<in>125</in>
								<out>-1</out>
								<pproColor>4280578025</pproColor>
							</marker>
						<labels>
							<label2>Forest</label2>
						</labels>
					</clipitem>
					<clipitem id="clipitem-706">
						<masterclipid>masterclip-324</masterclipid>
						<name>3_TITLE</name>
						<enabled>TRUE</enabled>
						<duration>475</duration>
						<rate>
							<timebase>25</timebase>
							<ntsc>FALSE</ntsc>
						</rate>
						<start>50415</start>
						<end>50765</end>
						<in>0</in>
						<out>475</out>
						<pproTicksIn>0</pproTicksIn>
						<pproTicksOut>4826304000000</pproTicksOut>
						<sequence id="sequence-49" TL.SQAudioVisibleBase="0" TL.SQVideoVisibleBase="0" TL.SQVisibleBaseTime="0" TL.SQAVDividerPosition="0.5" TL.SQHideShyTracks="0" TL.SQHeaderWidth="236" TL.SQDataTrackViewControlState="0" Monitor.ProgramZoomOut="4826304000000" Monitor.ProgramZoomIn="0" TL.SQTimePerPixel="0.024999999999999998" AM.TrackVScrollPosition="0" AM.TrackScrollPosition="0" MZ.EditLine="1473292800000" MZ.Sequence.PreviewFrameSizeHeight="576" MZ.Sequence.PreviewFrameSizeWidth="720" MZ.Sequence.AudioTimeDisplayFormat="200" MZ.Sequence.PreviewRenderingClassID="1061109567" MZ.Sequence.PreviewRenderingPresetCodec="1685480304" MZ.Sequence.PreviewRenderingPresetPath="EncoderPresets/SequencePreview/04be6e19-a018-4e0c-a9d6-0ab44c64752b/QuickTime DV PAL.epr" MZ.Sequence.PreviewUseMaxRenderQuality="false" MZ.Sequence.PreviewUseMaxBitDepth="false" MZ.Sequence.EditingModeGUID="04be6e19-a018-4e0c-a9d6-0ab44c64752b" MZ.Sequence.VideoTimeDisplayFormat="101" MZ.WorkOutPoint="4826304000000" MZ.WorkInPoint="0" MZ.ZeroPoint="0">
							<duration>475</duration>
							<rate>
								<timebase>25</timebase>
								<ntsc>FALSE</ntsc>
							</rate>
							<name>титр</name>
							<media>
								<video>
									<format>
										<samplecharacteristics>
											<rate>
												<timebase>25</timebase>
												<ntsc>FALSE</ntsc>
											</rate>
											<codec>
												<name>Apple ProRes 422</name>
												<appspecificdata>
													<appname>Final Cut Pro</appname>
													<appmanufacturer>Apple Inc.</appmanufacturer>
													<appversion>7.0</appversion>
													<data>
														<qtcodec>
															<codecname>Apple ProRes 422</codecname>
															<codectypename>Apple ProRes 422</codectypename>
															<codectypecode>apcn</codectypecode>
															<codecvendorcode>appl</codecvendorcode>
															<spatialquality>1024</spatialquality>
															<temporalquality>0</temporalquality>
															<keyframerate>0</keyframerate>
															<datarate>0</datarate>
														</qtcodec>
													</data>
												</appspecificdata>
											</codec>
											<width>720</width>
											<height>576</height>
											<anamorphic>TRUE</anamorphic>
											<pixelaspectratio>PAL-601</pixelaspectratio>
											<fielddominance>lower</fielddominance>
											<colordepth>24</colordepth>
										</samplecharacteristics>
									</format>
									<track TL.SQTrackShy="0" TL.SQTrackExpandedHeight="25" TL.SQTrackExpanded="0" MZ.TrackTargeted="1">
										<clipitem id="clipitem-707">
											<masterclipid>masterclip-325</masterclipid>
											<name>9_title.mov</name>
											<enabled>TRUE</enabled>
											<duration>225</duration>
											<rate>
												<timebase>25</timebase>
												<ntsc>FALSE</ntsc>
											</rate>
											<start>125</start>
											<end>350</end>
											<in>0</in>
											<out>225</out>
											<pproTicksIn>0</pproTicksIn>
											<pproTicksOut>2286144000000</pproTicksOut>
											<alphatype>straight</alphatype>
											<pixelaspectratio>square</pixelaspectratio>
											<anamorphic>FALSE</anamorphic>
											<file id="file-280">
												<name>3_title.mov</name>
												<pathurl>file://localhost/_MUZ_TV/graphika/RU-21/MOD/title_plashka/3_title.mov</pathurl>
												<rate>
													<timebase>25</timebase>
													<ntsc>FALSE</ntsc>
												</rate>
												<duration>225</duration>
												<timecode>
													<rate>
														<timebase>25</timebase>
														<ntsc>FALSE</ntsc>
													</rate>
													<string>00:01:03:00</string>
													<frame>1575</frame>
													<displayformat>NDF</displayformat>
												</timecode>
												<media>
													<video>
														<samplecharacteristics>
															<rate>
																<timebase>25</timebase>
																<ntsc>FALSE</ntsc>
															</rate>
															<width>1920</width>
															<height>1080</height>
															<anamorphic>FALSE</anamorphic>
															<pixelaspectratio>square</pixelaspectratio>
															<fielddominance>none</fielddominance>
														</samplecharacteristics>
													</video>
												</media>
											</file>
											<filter>
												<effect>
													<name>Basic Motion</name>
													<effectid>basic</effectid>
													<effectcategory>motion</effectcategory>
													<effecttype>motion</effecttype>
													<mediatype>video</mediatype>
													<pproBypass>false</pproBypass>
													<parameter authoringApp="PremierePro">
														<parameterid>scale</parameterid>
														<name>Scale</name>
														<valuemin>0</valuemin>
														<valuemax>1000</valuemax>
														<value>55</value>
													</parameter>
													<parameter authoringApp="PremierePro">
														<parameterid>rotation</parameterid>
														<name>Rotation</name>
														<valuemin>-8640</valuemin>
														<valuemax>8640</valuemax>
														<value>0</value>
													</parameter>
													<parameter authoringApp="PremierePro">
														<parameterid>center</parameterid>
														<name>Center</name>
														<value>
															<horiz>0</horiz>
															<vert>0</vert>
														</value>
													</parameter>
													<parameter authoringApp="PremierePro">
														<parameterid>centerOffset</parameterid>
														<name>Anchor Point</name>
														<value>
															<horiz>0</horiz>
															<vert>0</vert>
														</value>
													</parameter>
													<parameter authoringApp="PremierePro">
														<parameterid>antiflicker</parameterid>
														<name>Anti-flicker Filter</name>
														<valuemin>0.0</valuemin>
														<valuemax>1.0</valuemax>
														<value>0</value>
													</parameter>
												</effect>
											</filter>
											<filter>
												<effect>
													<name>Distort</name>
													<effectid>deformation</effectid>
													<effectcategory>motion</effectcategory>
													<effecttype>motion</effecttype>
													<mediatype>video</mediatype>
													<parameter authoringApp="PremierePro">
														<parameterid>aspect</parameterid>
														<name>Aspect</name>
														<valuemin>-10000</valuemin>
														<valuemax>10000</valuemax>
														<value>-3.12506</value>
													</parameter>
												</effect>
											</filter>
											<logginginfo>
												<description></description>
												<scene></scene>
												<shottake></shottake>
												<lognote></lognote>
												<good></good>
												<originalvideofilename></originalvideofilename>
												<originalaudiofilename></originalaudiofilename>
											</logginginfo>
											<colorinfo>
												<lut></lut>
												<lut1></lut1>
												<asc_sop></asc_sop>
												<asc_sat></asc_sat>
												<lut2></lut2>
											</colorinfo>
											<labels>
												<label2>Violet</label2>
											</labels>
										</clipitem>
										<clipitem id="clipitem-708">
											<masterclipid>masterclip-326</masterclipid>
											<name>Graphic</name>
											<enabled>FALSE</enabled>
											<duration>1080000</duration>
											<rate>
												<timebase>25</timebase>
												<ntsc>FALSE</ntsc>
											</rate>
											<start>350</start>
											<end>475</end>
											<in>90000</in>
											<out>90125</out>
											<pproTicksIn>914457600000000</pproTicksIn>
											<pproTicksOut>915727680000000</pproTicksOut>
											<alphatype>straight</alphatype>
											<pixelaspectratio>PAL-601</pixelaspectratio>
											<anamorphic>TRUE</anamorphic>
											<file id="file-281">
												<name>Graphic</name>
												<mediaSource>GraphicAndType</mediaSource>
												<rate>
													<timebase>30</timebase>
													<ntsc>TRUE</ntsc>
												</rate>
												<timecode>
													<rate>
														<timebase>30</timebase>
														<ntsc>TRUE</ntsc>
													</rate>
													<string>00;00;00;00</string>
													<frame>0</frame>
													<displayformat>DF</displayformat>
												</timecode>
												<media>
													<video>
														<samplecharacteristics>
															<rate>
																<timebase>30</timebase>
																<ntsc>TRUE</ntsc>
															</rate>
															<width>720</width>
															<height>576</height>
															<anamorphic>TRUE</anamorphic>
															<pixelaspectratio>PAL-601</pixelaspectratio>
															<fielddominance>none</fielddominance>
														</samplecharacteristics>
													</video>
												</media>
											</file>
											<filter>
												<effect>
													<name>Basic Motion</name>
													<effectid>basic</effectid>
													<effectcategory>motion</effectcategory>
													<effecttype>motion</effecttype>
													<mediatype>video</mediatype>
													<pproBypass>false</pproBypass>
													<parameter authoringApp="PremierePro">
														<parameterid>scale</parameterid>
														<name>Scale</name>
														<valuemin>0</valuemin>
														<valuemax>1000</valuemax>
														<value>133.333</value>
													</parameter>
													<parameter authoringApp="PremierePro">
														<parameterid>rotation</parameterid>
														<name>Rotation</name>
														<valuemin>-8640</valuemin>
														<valuemax>8640</valuemax>
														<value>0</value>
													</parameter>
													<parameter authoringApp="PremierePro">
														<parameterid>center</parameterid>
														<name>Center</name>
														<value>
															<horiz>0</horiz>
															<vert>0</vert>
														</value>
													</parameter>
													<parameter authoringApp="PremierePro">
														<parameterid>centerOffset</parameterid>
														<name>Anchor Point</name>
														<value>
															<horiz>0</horiz>
															<vert>0</vert>
														</value>
													</parameter>
													<parameter authoringApp="PremierePro">
														<parameterid>antiflicker</parameterid>
														<name>Anti-flicker Filter</name>
														<valuemin>0.0</valuemin>
														<valuemax>1.0</valuemax>
														<value>0</value>
													</parameter>
												</effect>
											</filter>
											<filter>
												<effect>
													<name>Distort</name>
													<effectid>deformation</effectid>
													<effectcategory>motion</effectcategory>
													<effecttype>motion</effecttype>
													<mediatype>video</mediatype>
													<parameter authoringApp="PremierePro">
														<parameterid>aspect</parameterid>
														<name>Aspect</name>
														<valuemin>-10000</valuemin>
														<valuemax>10000</valuemax>
														<value>-33.333</value>
													</parameter>
												</effect>
											</filter>
											<filter>
												<effect>
													<name></name>
													<effectid>GraphicAndType</effectid>
													<effectcategory>graphic</effectcategory>
													<effecttype>filter</effecttype>
													<mediatype>video</mediatype>
													<pproBypass>false</pproBypass>
													<parameter authoringApp="PremierePro">
														<parameterid>1</parameterid>
														<name>Source Text</name>
														<hash>3f0faa81-c1b0-8370-b66c-fa0b000009f1</hash>
													</parameter>
													<parameter authoringApp="PremierePro">
														<parameterid>2</parameterid>
														<name>Transform</name>
														<IsTimeVarying>false</IsTimeVarying>
														<ParameterControlType>11</ParameterControlType>
														<LowerBound>false</LowerBound>
														<UpperBound>false</UpperBound>
														<value>-91445760000000000,false,0,0,0,0,0,0</value>
													</parameter>
													<parameter authoringApp="PremierePro">
														<parameterid>3</parameterid>
														<name>Position</name>
														<IsTimeVarying>false</IsTimeVarying>
														<value>-91445760000000000,0.55605381727218628:0.73039215803146362,0,0,0,0,0,0,5,4,0,0,0,0</value>
													</parameter>
													<parameter authoringApp="PremierePro">
														<parameterid>4</parameterid>
														<name>Scale</name>
														<IsTimeVarying>false</IsTimeVarying>
														<ParameterControlType>2</ParameterControlType>
														<LowerBound>0</LowerBound>
														<UpperBound>4000</UpperBound>
														<value>-91445760000000000,100.,0,0,0,0,0,0</value>
													</parameter>
													<parameter authoringApp="PremierePro">
														<parameterid>5</parameterid>
														<name>Horizontal Scale</name>
														<IsTimeVarying>false</IsTimeVarying>
														<ParameterControlType>2</ParameterControlType>
														<LowerBound>0</LowerBound>
														<UpperBound>4000</UpperBound>
														<value>-91445760000000000,100.,0,0,0,0,0,0</value>
													</parameter>
													<parameter authoringApp="PremierePro">
														<parameterid>6</parameterid>
														<name> </name>
														<IsTimeVarying>false</IsTimeVarying>
														<ParameterControlType>4</ParameterControlType>
														<LowerBound>false</LowerBound>
														<UpperBound>true</UpperBound>
														<value>-91445760000000000,true,0,0,0,0,0,0</value>
													</parameter>
													<parameter authoringApp="PremierePro">
														<parameterid>7</parameterid>
														<name>Rotation</name>
														<IsTimeVarying>false</IsTimeVarying>
														<ParameterControlType>3</ParameterControlType>
														<LowerBound>-32768</LowerBound>
														<UpperBound>32767</UpperBound>
														<value>-91445760000000000,0.,0,0,0,0,0,0</value>
													</parameter>
													<parameter authoringApp="PremierePro">
														<parameterid>8</parameterid>
														<name>Opacity</name>
														<IsTimeVarying>false</IsTimeVarying>
														<ParameterControlType>2</ParameterControlType>
														<LowerBound>0</LowerBound>
														<UpperBound>100</UpperBound>
														<value>-91445760000000000,100.,0,0,0,0,0,0</value>
													</parameter>
													<parameter authoringApp="PremierePro">
														<parameterid>9</parameterid>
														<name>Anchor Point</name>
														<IsTimeVarying>false</IsTimeVarying>
														<value>-91445760000000000,0:0,0,0,0,0,0,0,5,4,0,0,0,0</value>
													</parameter>
													<parameter authoringApp="PremierePro">
														<parameterid>10</parameterid>
														<name></name>
														<IsTimeVarying>false</IsTimeVarying>
														<ParameterControlType>12</ParameterControlType>
														<LowerBound>false</LowerBound>
														<UpperBound>false</UpperBound>
														<value>-91445760000000000,false,0,0,0,0,0,0</value>
													</parameter>
													<parameter authoringApp="PremierePro">
														<parameterid>11</parameterid>
														<name> </name>
														<IsTimeVarying>false</IsTimeVarying>
														<ParameterControlType>8</ParameterControlType>
														<LowerBound>0</LowerBound>
														<UpperBound>32768</UpperBound>
														<value>-91445760000000000,0.,0,0,0,0,0,0</value>
													</parameter>
													<parameter authoringApp="PremierePro">
														<parameterid>12</parameterid>
														<name> </name>
														<IsTimeVarying>false</IsTimeVarying>
														<ParameterControlType>8</ParameterControlType>
														<LowerBound>0</LowerBound>
														<UpperBound>32768</UpperBound>
														<value>-91445760000000000,0.,0,0,0,0,0,0</value>
													</parameter>
													<parameter authoringApp="PremierePro">
														<parameterid>13</parameterid>
														<name>start</name>
														<IsTimeVarying>false</IsTimeVarying>
														<ParameterControlType>8</ParameterControlType>
														<LowerBound>-100</LowerBound>
														<UpperBound>1000000000</UpperBound>
														<value>-91445760000000000,0.,0,0,0,0,0,0</value>
													</parameter>
													<parameter authoringApp="PremierePro">
														<parameterid>14</parameterid>
														<name>end</name>
														<IsTimeVarying>false</IsTimeVarying>
														<ParameterControlType>8</ParameterControlType>
														<LowerBound>-100</LowerBound>
														<UpperBound>1000000000</UpperBound>
														<value>-91445760000000000,0.,0,0,0,0,0,0</value>
													</parameter>
													<parameter authoringApp="PremierePro">
														<parameterid>15</parameterid>
														<name> </name>
														<IsTimeVarying>false</IsTimeVarying>
														<ParameterControlType>4</ParameterControlType>
														<LowerBound>false</LowerBound>
														<UpperBound>true</UpperBound>
														<value>-91445760000000000,false,0,0,0,0,0,0</value>
													</parameter>
													<parameter authoringApp="PremierePro">
														<parameterid>16</parameterid>
														<name> </name>
														<IsTimeVarying>false</IsTimeVarying>
														<ParameterControlType>4</ParameterControlType>
														<LowerBound>false</LowerBound>
														<UpperBound>true</UpperBound>
														<value>-91445760000000000,false,0,0,0,0,0,0</value>
													</parameter>
													<parameter authoringApp="PremierePro">
														<parameterid>17</parameterid>
														<name> </name>
														<IsTimeVarying>false</IsTimeVarying>
														<ParameterControlType>4</ParameterControlType>
														<LowerBound>false</LowerBound>
														<UpperBound>true</UpperBound>
														<value>-91445760000000000,false,0,0,0,0,0,0</value>
													</parameter>
													<parameter authoringApp="PremierePro">
														<parameterid>18</parameterid>
														<name> </name>
														<IsTimeVarying>false</IsTimeVarying>
														<ParameterControlType>4</ParameterControlType>
														<LowerBound>false</LowerBound>
														<UpperBound>true</UpperBound>
														<value>-91445760000000000,false,0,0,0,0,0,0</value>
													</parameter>
													<parameter authoringApp="PremierePro">
														<parameterid>19</parameterid>
														<name>Parent Width</name>
														<IsTimeVarying>false</IsTimeVarying>
														<ParameterControlType>2</ParameterControlType>
														<LowerBound>0</LowerBound>
														<UpperBound>20000</UpperBound>
														<value>-91445760000000000,0.,0,0,0,0,0,0</value>
													</parameter>
													<parameter authoringApp="PremierePro">
														<parameterid>20</parameterid>
														<name>Parent Height</name>
														<IsTimeVarying>false</IsTimeVarying>
														<ParameterControlType>2</ParameterControlType>
														<LowerBound>0</LowerBound>
														<UpperBound>20000</UpperBound>
														<value>-91445760000000000,0.,0,0,0,0,0,0</value>
													</parameter>
													<parameter authoringApp="PremierePro">
														<parameterid>21</parameterid>
														<name>Parent Rotation</name>
														<IsTimeVarying>false</IsTimeVarying>
														<ParameterControlType>3</ParameterControlType>
														<LowerBound>-32768</LowerBound>
														<UpperBound>32767</UpperBound>
														<value>-91445760000000000,0.,0,0,0,0,0,0</value>
													</parameter>
												</effect>
											</filter>
											<logginginfo>
												<description></description>
												<scene></scene>
												<shottake></shottake>
												<lognote></lognote>
												<good></good>
												<originalvideofilename></originalvideofilename>
												<originalaudiofilename></originalaudiofilename>
											</logginginfo>
											<colorinfo>
												<lut></lut>
												<lut1></lut1>
												<asc_sop></asc_sop>
												<asc_sat></asc_sat>
												<lut2></lut2>
											</colorinfo>
										</clipitem>
										<enabled>TRUE</enabled>
										<locked>FALSE</locked>
									</track>
									<track TL.SQTrackShy="0" TL.SQTrackExpandedHeight="25" TL.SQTrackExpanded="0" MZ.TrackTargeted="0">
										<transitionitem>
											<start>167</start>
											<end>224</end>
											<alignment>start-black</alignment>
											<cutPointTicks>0</cutPointTicks>
											<rate>
												<timebase>25</timebase>
												<ntsc>FALSE</ntsc>
											</rate>
											<effect>
												<name>Edge Wipe</name>
												<effectid>Edge Wipe</effectid>
												<effectcategory>Wipe</effectcategory>
												<effecttype>transition</effecttype>
												<mediatype>video</mediatype>
												<wipecode>2</wipecode>
												<wipeaccuracy>100</wipeaccuracy>
												<startratio>0</startratio>
												<endratio>1</endratio>
												<reverse>FALSE</reverse>
												<parameter authoringApp="PremierePro">
													<parameterid>directionofwipe</parameterid>
													<name>Angle</name>
													<valuemin>-360</valuemin>
													<valuemax>360</valuemax>
													<value>90</value>
												</parameter>
											</effect>
										</transitionitem>
										<clipitem id="clipitem-709">
											<masterclipid>masterclip-327</masterclipid>
											<name>9.png</name>
											<enabled>TRUE</enabled>
											<duration>1080000</duration>
											<rate>
												<timebase>25</timebase>
												<ntsc>FALSE</ntsc>
											</rate>
											<start>-1</start>
											<end>-1</end>
											<in>90042</in>
											<out>90225</out>
											<pproTicksIn>914884346880000</pproTicksIn>
											<pproTicksOut>916743744000000</pproTicksOut>
											<alphatype>straight</alphatype>
											<pixelaspectratio>square</pixelaspectratio>
											<anamorphic>FALSE</anamorphic>
											<file id="file-282">
												<name>3.png</name>
												<pathurl>file://localhost/_MUZ_TV/project_AP/RU/_TITLE/END/3.png</pathurl>
												<rate>
													<timebase>30</timebase>
													<ntsc>TRUE</ntsc>
												</rate>
												<timecode>
													<rate>
														<timebase>30</timebase>
														<ntsc>TRUE</ntsc>
													</rate>
													<string>00;00;00;00</string>
													<frame>0</frame>
													<displayformat>DF</displayformat>
												</timecode>
												<media>
													<video>
														<samplecharacteristics>
															<rate>
																<timebase>30</timebase>
																<ntsc>TRUE</ntsc>
															</rate>
															<width>1920</width>
															<height>1080</height>
															<anamorphic>FALSE</anamorphic>
															<pixelaspectratio>square</pixelaspectratio>
															<fielddominance>none</fielddominance>
														</samplecharacteristics>
													</video>
												</media>
											</file>
											<filter>
												<effect>
													<name>Basic Motion</name>
													<effectid>basic</effectid>
													<effectcategory>motion</effectcategory>
													<effecttype>motion</effecttype>
													<mediatype>video</mediatype>
													<pproBypass>false</pproBypass>
													<parameter authoringApp="PremierePro">
														<parameterid>scale</parameterid>
														<name>Scale</name>
														<valuemin>0</valuemin>
														<valuemax>1000</valuemax>
														<value>53.3333</value>
													</parameter>
													<parameter authoringApp="PremierePro">
														<parameterid>rotation</parameterid>
														<name>Rotation</name>
														<valuemin>-8640</valuemin>
														<valuemax>8640</valuemax>
														<value>0</value>
													</parameter>
													<parameter authoringApp="PremierePro">
														<parameterid>center</parameterid>
														<name>Center</name>
														<value>
															<horiz>0</horiz>
															<vert>0</vert>
														</value>
													</parameter>
													<parameter authoringApp="PremierePro">
														<parameterid>centerOffset</parameterid>
														<name>Anchor Point</name>
														<value>
															<horiz>0</horiz>
															<vert>0</vert>
														</value>
													</parameter>
													<parameter authoringApp="PremierePro">
														<parameterid>antiflicker</parameterid>
														<name>Anti-flicker Filter</name>
														<valuemin>0.0</valuemin>
														<valuemax>1.0</valuemax>
														<value>0</value>
													</parameter>
												</effect>
											</filter>
											<logginginfo>
												<description></description>
												<scene></scene>
												<shottake></shottake>
												<lognote></lognote>
												<good></good>
												<originalvideofilename></originalvideofilename>
												<originalaudiofilename></originalaudiofilename>
											</logginginfo>
											<colorinfo>
												<lut></lut>
												<lut1></lut1>
												<asc_sop></asc_sop>
												<asc_sat></asc_sat>
												<lut2></lut2>
											</colorinfo>
											<labels>
												<label2>Lavender</label2>
											</labels>
										</clipitem>
										<transitionitem>
											<start>328</start>
											<end>350</end>
											<alignment>end-black</alignment>
											<cutPointTicks>223534080000</cutPointTicks>
											<rate>
												<timebase>25</timebase>
												<ntsc>FALSE</ntsc>
											</rate>
											<effect>
												<name>Edge Wipe</name>
												<effectid>Edge Wipe</effectid>
												<effectcategory>Wipe</effectcategory>
												<effecttype>transition</effecttype>
												<mediatype>video</mediatype>
												<wipecode>2</wipecode>
												<wipeaccuracy>100</wipeaccuracy>
												<startratio>0</startratio>
												<endratio>1</endratio>
												<reverse>FALSE</reverse>
												<parameter authoringApp="PremierePro">
													<parameterid>directionofwipe</parameterid>
													<name>Angle</name>
													<valuemin>-360</valuemin>
													<valuemax>360</valuemax>
													<value>90</value>
												</parameter>
											</effect>
										</transitionitem>
										<enabled>TRUE</enabled>
										<locked>FALSE</locked>
									</track>
									<track TL.SQTrackShy="0" TL.SQTrackExpandedHeight="25" TL.SQTrackExpanded="0" MZ.TrackTargeted="0">
										<transitionitem>
											<start>167</start>
											<end>224</end>
											<alignment>start-black</alignment>
											<cutPointTicks>0</cutPointTicks>
											<rate>
												<timebase>25</timebase>
												<ntsc>FALSE</ntsc>
											</rate>
											<effect>
												<name>Edge Wipe</name>
												<effectid>Edge Wipe</effectid>
												<effectcategory>Wipe</effectcategory>
												<effecttype>transition</effecttype>
												<mediatype>video</mediatype>
												<wipecode>2</wipecode>
												<wipeaccuracy>100</wipeaccuracy>
												<startratio>0</startratio>
												<endratio>1</endratio>
												<reverse>FALSE</reverse>
												<parameter authoringApp="PremierePro">
													<parameterid>directionofwipe</parameterid>
													<name>Angle</name>
													<valuemin>-360</valuemin>
													<valuemax>360</valuemax>
													<value>90</value>
												</parameter>
											</effect>
										</transitionitem>
										<clipitem id="clipitem-710">
											<masterclipid>masterclip-328</masterclipid>
											<name>Graphic</name>
											<enabled>FALSE</enabled>
											<duration>1080000</duration>
											<rate>
												<timebase>25</timebase>
												<ntsc>FALSE</ntsc>
											</rate>
											<start>-1</start>
											<end>-1</end>
											<in>89998</in>
											<out>90181</out>
											<pproTicksIn>914437278720000</pproTicksIn>
											<pproTicksOut>916296675840000</pproTicksOut>
											<alphatype>straight</alphatype>
											<pixelaspectratio>PAL-601</pixelaspectratio>
											<anamorphic>TRUE</anamorphic>
											<file id="file-283">
												<name>Graphic</name>
												<mediaSource>GraphicAndType</mediaSource>
												<rate>
													<timebase>30</timebase>
													<ntsc>TRUE</ntsc>
												</rate>
												<timecode>
													<rate>
														<timebase>30</timebase>
														<ntsc>TRUE</ntsc>
													</rate>
													<string>00;00;00;00</string>
													<frame>0</frame>
													<displayformat>DF</displayformat>
												</timecode>
												<media>
													<video>
														<samplecharacteristics>
															<rate>
																<timebase>30</timebase>
																<ntsc>TRUE</ntsc>
															</rate>
															<width>720</width>
															<height>576</height>
															<anamorphic>TRUE</anamorphic>
															<pixelaspectratio>PAL-601</pixelaspectratio>
															<fielddominance>none</fielddominance>
														</samplecharacteristics>
													</video>
												</media>
											</file>
											<filter>
												<effect>
													<name>АРТУР ПИРОЖКОВ&#13;ЛЕТОМ НА ФИЕСТЕ</name>
													<effectid>GraphicAndType</effectid>
													<effectcategory>graphic</effectcategory>
													<effecttype>filter</effecttype>
													<mediatype>video</mediatype>
													<pproBypass>false</pproBypass>
													<pproExpanded>true</pproExpanded>
													<parameter authoringApp="PremierePro">
														<parameterid>1</parameterid>
														<name>Source Text</name>
														<hash>dc092258-f6b9-fd91-a76f-c3e700000476</hash>
													</parameter>
													<parameter authoringApp="PremierePro">
														<parameterid>2</parameterid>
														<name>Transform</name>
														<IsTimeVarying>false</IsTimeVarying>
														<ParameterControlType>11</ParameterControlType>
														<LowerBound>false</LowerBound>
														<UpperBound>false</UpperBound>
														<value>-91445760000000000,false,0,0,0,0,0,0</value>
													</parameter>
													<parameter authoringApp="PremierePro">
														<parameterid>3</parameterid>
														<name>Position</name>
														<IsTimeVarying>false</IsTimeVarying>
														<value>-91445760000000000,0.36944580078125:0.86468505859375,0,0,0,0,0,0,5,4,0,0,0,0</value>
													</parameter>
													<parameter authoringApp="PremierePro">
														<parameterid>4</parameterid>
														<name>Scale</name>
														<IsTimeVarying>false</IsTimeVarying>
														<ParameterControlType>2</ParameterControlType>
														<LowerBound>0</LowerBound>
														<UpperBound>4000</UpperBound>
														<value>-91445760000000000,100.,0,0,0,0,0,0</value>
													</parameter>
													<parameter authoringApp="PremierePro">
														<parameterid>5</parameterid>
														<name>Horizontal Scale</name>
														<IsTimeVarying>false</IsTimeVarying>
														<ParameterControlType>2</ParameterControlType>
														<LowerBound>0</LowerBound>
														<UpperBound>4000</UpperBound>
														<value>-91445760000000000,100.,0,0,0,0,0,0</value>
													</parameter>
													<parameter authoringApp="PremierePro">
														<parameterid>6</parameterid>
														<name> </name>
														<IsTimeVarying>false</IsTimeVarying>
														<ParameterControlType>4</ParameterControlType>
														<LowerBound>false</LowerBound>
														<UpperBound>true</UpperBound>
														<value>-91445760000000000,true,0,0,0,0,0,0</value>
													</parameter>
													<parameter authoringApp="PremierePro">
														<parameterid>7</parameterid>
														<name>Rotation</name>
														<IsTimeVarying>false</IsTimeVarying>
														<ParameterControlType>3</ParameterControlType>
														<LowerBound>-32768</LowerBound>
														<UpperBound>32767</UpperBound>
														<value>-91445760000000000,0.,0,0,0,0,0,0</value>
													</parameter>
													<parameter authoringApp="PremierePro">
														<parameterid>8</parameterid>
														<name>Opacity</name>
														<IsTimeVarying>false</IsTimeVarying>
														<ParameterControlType>2</ParameterControlType>
														<LowerBound>0</LowerBound>
														<UpperBound>100</UpperBound>
														<value>-91445760000000000,100.,0,0,0,0,0,0</value>
													</parameter>
													<parameter authoringApp="PremierePro">
														<parameterid>9</parameterid>
														<name>Anchor Point</name>
														<IsTimeVarying>false</IsTimeVarying>
														<value>-91445760000000000,0:0,0,0,0,0,0,0,5,4,0,0,0,0</value>
													</parameter>
													<parameter authoringApp="PremierePro">
														<parameterid>10</parameterid>
														<name></name>
														<IsTimeVarying>false</IsTimeVarying>
														<ParameterControlType>12</ParameterControlType>
														<LowerBound>false</LowerBound>
														<UpperBound>false</UpperBound>
														<value>-91445760000000000,false,0,0,0,0,0,0</value>
													</parameter>
													<parameter authoringApp="PremierePro">
														<parameterid>11</parameterid>
														<name> </name>
														<IsTimeVarying>false</IsTimeVarying>
														<ParameterControlType>8</ParameterControlType>
														<LowerBound>0</LowerBound>
														<UpperBound>32768</UpperBound>
														<value>-91445760000000000,0.,0,0,0,0,0,0</value>
													</parameter>
													<parameter authoringApp="PremierePro">
														<parameterid>12</parameterid>
														<name> </name>
														<IsTimeVarying>false</IsTimeVarying>
														<ParameterControlType>8</ParameterControlType>
														<LowerBound>0</LowerBound>
														<UpperBound>32768</UpperBound>
														<value>-91445760000000000,0.,0,0,0,0,0,0</value>
													</parameter>
													<parameter authoringApp="PremierePro">
														<parameterid>13</parameterid>
														<name>start</name>
														<IsTimeVarying>false</IsTimeVarying>
														<ParameterControlType>8</ParameterControlType>
														<LowerBound>-100</LowerBound>
														<UpperBound>1000000000</UpperBound>
														<value>-91445760000000000,30.,0,0,0,0,0,0</value>
													</parameter>
													<parameter authoringApp="PremierePro">
														<parameterid>14</parameterid>
														<name>end</name>
														<IsTimeVarying>false</IsTimeVarying>
														<ParameterControlType>8</ParameterControlType>
														<LowerBound>-100</LowerBound>
														<UpperBound>1000000000</UpperBound>
														<value>-91445760000000000,30.,0,0,0,0,0,0</value>
													</parameter>
													<parameter authoringApp="PremierePro">
														<parameterid>15</parameterid>
														<name> </name>
														<IsTimeVarying>false</IsTimeVarying>
														<ParameterControlType>4</ParameterControlType>
														<LowerBound>false</LowerBound>
														<UpperBound>true</UpperBound>
														<value>-91445760000000000,false,0,0,0,0,0,0</value>
													</parameter>
													<parameter authoringApp="PremierePro">
														<parameterid>16</parameterid>
														<name> </name>
														<IsTimeVarying>false</IsTimeVarying>
														<ParameterControlType>4</ParameterControlType>
														<LowerBound>false</LowerBound>
														<UpperBound>true</UpperBound>
														<value>-91445760000000000,false,0,0,0,0,0,0</value>
													</parameter>
													<parameter authoringApp="PremierePro">
														<parameterid>17</parameterid>
														<name> </name>
														<IsTimeVarying>false</IsTimeVarying>
														<ParameterControlType>4</ParameterControlType>
														<LowerBound>false</LowerBound>
														<UpperBound>true</UpperBound>
														<value>-91445760000000000,false,0,0,0,0,0,0</value>
													</parameter>
													<parameter authoringApp="PremierePro">
														<parameterid>18</parameterid>
														<name> </name>
														<IsTimeVarying>false</IsTimeVarying>
														<ParameterControlType>4</ParameterControlType>
														<LowerBound>false</LowerBound>
														<UpperBound>true</UpperBound>
														<value>-91445760000000000,false,0,0,0,0,0,0</value>
													</parameter>
													<parameter authoringApp="PremierePro">
														<parameterid>19</parameterid>
														<name>Parent Width</name>
														<IsTimeVarying>false</IsTimeVarying>
														<ParameterControlType>2</ParameterControlType>
														<LowerBound>0</LowerBound>
														<UpperBound>20000</UpperBound>
														<value>-91445760000000000,0.,0,0,0,0,0,0</value>
													</parameter>
													<parameter authoringApp="PremierePro">
														<parameterid>20</parameterid>
														<name>Parent Height</name>
														<IsTimeVarying>false</IsTimeVarying>
														<ParameterControlType>2</ParameterControlType>
														<LowerBound>0</LowerBound>
														<UpperBound>20000</UpperBound>
														<value>-91445760000000000,0.,0,0,0,0,0,0</value>
													</parameter>
													<parameter authoringApp="PremierePro">
														<parameterid>21</parameterid>
														<name>Parent Rotation</name>
														<IsTimeVarying>false</IsTimeVarying>
														<ParameterControlType>3</ParameterControlType>
														<LowerBound>-32768</LowerBound>
														<UpperBound>32767</UpperBound>
														<value>-91445760000000000,0.,0,0,0,0,0,0</value>
													</parameter>
												</effect>
											</filter>
											<logginginfo>
												<description></description>
												<scene></scene>
												<shottake></shottake>
												<lognote></lognote>
												<good></good>
												<originalvideofilename></originalvideofilename>
												<originalaudiofilename></originalaudiofilename>
											</logginginfo>
											<colorinfo>
												<lut></lut>
												<lut1></lut1>
												<asc_sop></asc_sop>
												<asc_sat></asc_sat>
												<lut2></lut2>
											</colorinfo>
										</clipitem>
										<transitionitem>
											<start>328</start>
											<end>350</end>
											<alignment>end-black</alignment>
											<cutPointTicks>223534080000</cutPointTicks>
											<rate>
												<timebase>25</timebase>
												<ntsc>FALSE</ntsc>
											</rate>
											<effect>
												<name>Edge Wipe</name>
												<effectid>Edge Wipe</effectid>
												<effectcategory>Wipe</effectcategory>
												<effecttype>transition</effecttype>
												<mediatype>video</mediatype>
												<wipecode>2</wipecode>
												<wipeaccuracy>100</wipeaccuracy>
												<startratio>0</startratio>
												<endratio>1</endratio>
												<reverse>FALSE</reverse>
												<parameter authoringApp="PremierePro">
													<parameterid>directionofwipe</parameterid>
													<name>Angle</name>
													<valuemin>-360</valuemin>
													<valuemax>360</valuemax>
													<value>90</value>
												</parameter>
											</effect>
										</transitionitem>
										<enabled>TRUE</enabled>
										<locked>FALSE</locked>
									</track>
								</video>
								<audio>
									<numOutputChannels>2</numOutputChannels>
									<format>
										<samplecharacteristics>
											<depth>16</depth>
											<samplerate>48000</samplerate>
										</samplecharacteristics>
									</format>
									<outputs>
										<group>
											<index>1</index>
											<numchannels>1</numchannels>
											<downmix>0</downmix>
											<channel>
												<index>1</index>
											</channel>
										</group>
										<group>
											<index>2</index>
											<numchannels>1</numchannels>
											<downmix>0</downmix>
											<channel>
												<index>2</index>
											</channel>
										</group>
									</outputs>
									<track TL.SQTrackAudioKeyframeStyle="0" TL.SQTrackShy="0" TL.SQTrackExpandedHeight="25" TL.SQTrackExpanded="0" MZ.TrackTargeted="1" PannerCurrentValue="0.5" PannerStartKeyframe="-91445760000000000,0.5,0,0,0,0,0,0" PannerName="Balance" currentExplodedTrackIndex="0" totalExplodedTrackCount="2" premiereTrackType="Stereo">
										<enabled>TRUE</enabled>
										<locked>FALSE</locked>
										<outputchannelindex>1</outputchannelindex>
									</track>
									<track TL.SQTrackAudioKeyframeStyle="0" TL.SQTrackShy="0" TL.SQTrackExpandedHeight="25" TL.SQTrackExpanded="0" MZ.TrackTargeted="1" PannerCurrentValue="0.5" PannerStartKeyframe="-91445760000000000,0.5,0,0,0,0,0,0" PannerName="Balance" currentExplodedTrackIndex="1" totalExplodedTrackCount="2" premiereTrackType="Stereo">
										<enabled>TRUE</enabled>
										<locked>FALSE</locked>
										<outputchannelindex>2</outputchannelindex>
									</track>
								</audio>
							</media>
							<timecode>
								<rate>
									<timebase>25</timebase>
									<ntsc>FALSE</ntsc>
								</rate>
								<string>00:00:00:00</string>
								<frame>0</frame>
								<displayformat>NDF</displayformat>
							</timecode>
								<marker>
									<comment></comment>
									<name></name>
									<in>125</in>
									<out>-1</out>
									<pproColor>4280578025</pproColor>
								</marker>
							<logginginfo>
								<description></description>
								<scene></scene>
								<shottake></shottake>
								<lognote></lognote>
								<good></good>
								<originalvideofilename></originalvideofilename>
								<originalaudiofilename></originalaudiofilename>
							</logginginfo>
						</sequence>
							<marker>
								<comment></comment>
								<name></name>
								<in>125</in>
								<out>-1</out>
								<pproColor>4280578025</pproColor>
							</marker>
						<labels>
							<label2>Forest</label2>
						</labels>
					</clipitem>
					<clipitem id="clipitem-711">
						<masterclipid>masterclip-324</masterclipid>
						<name>3</name>
						<enabled>TRUE</enabled>
						<duration>475</duration>
						<rate>
							<timebase>25</timebase>
							<ntsc>FALSE</ntsc>
						</rate>
						<start>55582</start>
						<end>55933</end>
						<in>124</in>
						<out>475</out>
						<pproTicksIn>1259919360000</pproTicksIn>
						<pproTicksOut>4826304000000</pproTicksOut>
						<sequence id="sequence-49"/>
							<marker>
								<comment></comment>
								<name></name>
								<in>125</in>
								<out>-1</out>
								<pproColor>4280578025</pproColor>
							</marker>
						<labels>
							<label2>Forest</label2>
						</labels>
					</clipitem>
					<clipitem id="clipitem-712">
						<masterclipid>masterclip-273</masterclipid>
						<name>титр</name>
						<enabled>TRUE</enabled>
						<duration>225</duration>
						<rate>
							<timebase>25</timebase>
							<ntsc>FALSE</ntsc>
						</rate>
						<start>55993</start>
						<end>56164</end>
						<in>0</in>
						<out>171</out>
						<pproTicksIn>0</pproTicksIn>
						<pproTicksOut>1737469440000</pproTicksOut>
						<sequence id="sequence-37"/>
						<filter>
							<effect>
								<name>Opacity</name>
								<effectid>opacity</effectid>
								<effectcategory>motion</effectcategory>
								<effecttype>motion</effecttype>
								<mediatype>video</mediatype>
								<pproBypass>false</pproBypass>
								<parameter authoringApp="PremierePro">
									<parameterid>opacity</parameterid>
									<name>opacity</name>
									<valuemin>0</valuemin>
									<valuemax>100</valuemax>
									<value>100</value>
								</parameter>
							</effect>
						</filter>
							<marker>
								<comment></comment>
								<name></name>
								<in>57</in>
								<out>-1</out>
								<pproColor>4294741314</pproColor>
							</marker>
						<labels>
							<label2>Forest</label2>
						</labels>
					</clipitem>
					<clipitem id="clipitem-713">
						<masterclipid>masterclip-329</masterclipid>
						<name>2_TITLE</name>
						<enabled>TRUE</enabled>
						<duration>475</duration>
						<rate>
							<timebase>25</timebase>
							<ntsc>FALSE</ntsc>
						</rate>
						<start>57060</start>
						<end>57410</end>
						<in>0</in>
						<out>475</out>
						<pproTicksIn>0</pproTicksIn>
						<pproTicksOut>4826304000000</pproTicksOut>
						<sequence id="sequence-50" TL.SQAudioVisibleBase="0" TL.SQVideoVisibleBase="0" TL.SQVisibleBaseTime="0" TL.SQAVDividerPosition="0.5" TL.SQHideShyTracks="0" TL.SQHeaderWidth="236" TL.SQDataTrackViewControlState="0" Monitor.ProgramZoomOut="4826304000000" Monitor.ProgramZoomIn="0" TL.SQTimePerPixel="0.024999999999999998" AM.TrackVScrollPosition="0" AM.TrackScrollPosition="0" MZ.EditLine="3312368640000" MZ.Sequence.PreviewFrameSizeHeight="576" MZ.Sequence.PreviewFrameSizeWidth="720" MZ.Sequence.AudioTimeDisplayFormat="200" MZ.Sequence.PreviewRenderingClassID="1061109567" MZ.Sequence.PreviewRenderingPresetCodec="1685480304" MZ.Sequence.PreviewRenderingPresetPath="EncoderPresets/SequencePreview/04be6e19-a018-4e0c-a9d6-0ab44c64752b/QuickTime DV PAL.epr" MZ.Sequence.PreviewUseMaxRenderQuality="false" MZ.Sequence.PreviewUseMaxBitDepth="false" MZ.Sequence.EditingModeGUID="04be6e19-a018-4e0c-a9d6-0ab44c64752b" MZ.Sequence.VideoTimeDisplayFormat="101" MZ.WorkOutPoint="4826304000000" MZ.WorkInPoint="0" MZ.ZeroPoint="0">
							<duration>475</duration>
							<rate>
								<timebase>25</timebase>
								<ntsc>FALSE</ntsc>
							</rate>
							<name>титр</name>
							<media>
								<video>
									<format>
										<samplecharacteristics>
											<rate>
												<timebase>25</timebase>
												<ntsc>FALSE</ntsc>
											</rate>
											<codec>
												<name>Apple ProRes 422</name>
												<appspecificdata>
													<appname>Final Cut Pro</appname>
													<appmanufacturer>Apple Inc.</appmanufacturer>
													<appversion>7.0</appversion>
													<data>
														<qtcodec>
															<codecname>Apple ProRes 422</codecname>
															<codectypename>Apple ProRes 422</codectypename>
															<codectypecode>apcn</codectypecode>
															<codecvendorcode>appl</codecvendorcode>
															<spatialquality>1024</spatialquality>
															<temporalquality>0</temporalquality>
															<keyframerate>0</keyframerate>
															<datarate>0</datarate>
														</qtcodec>
													</data>
												</appspecificdata>
											</codec>
											<width>720</width>
											<height>576</height>
											<anamorphic>TRUE</anamorphic>
											<pixelaspectratio>PAL-601</pixelaspectratio>
											<fielddominance>lower</fielddominance>
											<colordepth>24</colordepth>
										</samplecharacteristics>
									</format>
									<track TL.SQTrackShy="0" TL.SQTrackExpandedHeight="25" TL.SQTrackExpanded="0" MZ.TrackTargeted="1">
										<clipitem id="clipitem-714">
											<masterclipid>masterclip-330</masterclipid>
											<name>9_title.mov</name>
											<enabled>TRUE</enabled>
											<duration>225</duration>
											<rate>
												<timebase>25</timebase>
												<ntsc>FALSE</ntsc>
											</rate>
											<start>125</start>
											<end>350</end>
											<in>0</in>
											<out>225</out>
											<pproTicksIn>0</pproTicksIn>
											<pproTicksOut>2286144000000</pproTicksOut>
											<alphatype>straight</alphatype>
											<pixelaspectratio>square</pixelaspectratio>
											<anamorphic>FALSE</anamorphic>
											<file id="file-284">
												<name>2_title.mov</name>
												<pathurl>file://localhost/_MUZ_TV/graphika/RU-21/MOD/title_plashka/2_title.mov</pathurl>
												<rate>
													<timebase>25</timebase>
													<ntsc>FALSE</ntsc>
												</rate>
												<duration>225</duration>
												<timecode>
													<rate>
														<timebase>25</timebase>
														<ntsc>FALSE</ntsc>
													</rate>
													<string>00:01:12:00</string>
													<frame>1800</frame>
													<displayformat>NDF</displayformat>
												</timecode>
												<media>
													<video>
														<samplecharacteristics>
															<rate>
																<timebase>25</timebase>
																<ntsc>FALSE</ntsc>
															</rate>
															<width>1920</width>
															<height>1080</height>
															<anamorphic>FALSE</anamorphic>
															<pixelaspectratio>square</pixelaspectratio>
															<fielddominance>none</fielddominance>
														</samplecharacteristics>
													</video>
												</media>
											</file>
											<filter>
												<effect>
													<name>Basic Motion</name>
													<effectid>basic</effectid>
													<effectcategory>motion</effectcategory>
													<effecttype>motion</effecttype>
													<mediatype>video</mediatype>
													<pproBypass>false</pproBypass>
													<parameter authoringApp="PremierePro">
														<parameterid>scale</parameterid>
														<name>Scale</name>
														<valuemin>0</valuemin>
														<valuemax>1000</valuemax>
														<value>55</value>
													</parameter>
													<parameter authoringApp="PremierePro">
														<parameterid>rotation</parameterid>
														<name>Rotation</name>
														<valuemin>-8640</valuemin>
														<valuemax>8640</valuemax>
														<value>0</value>
													</parameter>
													<parameter authoringApp="PremierePro">
														<parameterid>center</parameterid>
														<name>Center</name>
														<value>
															<horiz>0</horiz>
															<vert>0</vert>
														</value>
													</parameter>
													<parameter authoringApp="PremierePro">
														<parameterid>centerOffset</parameterid>
														<name>Anchor Point</name>
														<value>
															<horiz>0</horiz>
															<vert>0</vert>
														</value>
													</parameter>
													<parameter authoringApp="PremierePro">
														<parameterid>antiflicker</parameterid>
														<name>Anti-flicker Filter</name>
														<valuemin>0.0</valuemin>
														<valuemax>1.0</valuemax>
														<value>0</value>
													</parameter>
												</effect>
											</filter>
											<filter>
												<effect>
													<name>Distort</name>
													<effectid>deformation</effectid>
													<effectcategory>motion</effectcategory>
													<effecttype>motion</effecttype>
													<mediatype>video</mediatype>
													<parameter authoringApp="PremierePro">
														<parameterid>aspect</parameterid>
														<name>Aspect</name>
														<valuemin>-10000</valuemin>
														<valuemax>10000</valuemax>
														<value>-3.12506</value>
													</parameter>
												</effect>
											</filter>
											<logginginfo>
												<description></description>
												<scene></scene>
												<shottake></shottake>
												<lognote></lognote>
												<good></good>
												<originalvideofilename></originalvideofilename>
												<originalaudiofilename></originalaudiofilename>
											</logginginfo>
											<colorinfo>
												<lut></lut>
												<lut1></lut1>
												<asc_sop></asc_sop>
												<asc_sat></asc_sat>
												<lut2></lut2>
											</colorinfo>
											<labels>
												<label2>Violet</label2>
											</labels>
										</clipitem>
										<clipitem id="clipitem-715">
											<masterclipid>masterclip-331</masterclipid>
											<name>Graphic</name>
											<enabled>FALSE</enabled>
											<duration>1080000</duration>
											<rate>
												<timebase>25</timebase>
												<ntsc>FALSE</ntsc>
											</rate>
											<start>350</start>
											<end>475</end>
											<in>90000</in>
											<out>90125</out>
											<pproTicksIn>914457600000000</pproTicksIn>
											<pproTicksOut>915727680000000</pproTicksOut>
											<alphatype>straight</alphatype>
											<pixelaspectratio>PAL-601</pixelaspectratio>
											<anamorphic>TRUE</anamorphic>
											<file id="file-285">
												<name>Graphic</name>
												<mediaSource>GraphicAndType</mediaSource>
												<rate>
													<timebase>30</timebase>
													<ntsc>TRUE</ntsc>
												</rate>
												<timecode>
													<rate>
														<timebase>30</timebase>
														<ntsc>TRUE</ntsc>
													</rate>
													<string>00;00;00;00</string>
													<frame>0</frame>
													<displayformat>DF</displayformat>
												</timecode>
												<media>
													<video>
														<samplecharacteristics>
															<rate>
																<timebase>30</timebase>
																<ntsc>TRUE</ntsc>
															</rate>
															<width>720</width>
															<height>576</height>
															<anamorphic>TRUE</anamorphic>
															<pixelaspectratio>PAL-601</pixelaspectratio>
															<fielddominance>none</fielddominance>
														</samplecharacteristics>
													</video>
												</media>
											</file>
											<filter>
												<effect>
													<name>Basic Motion</name>
													<effectid>basic</effectid>
													<effectcategory>motion</effectcategory>
													<effecttype>motion</effecttype>
													<mediatype>video</mediatype>
													<pproBypass>false</pproBypass>
													<parameter authoringApp="PremierePro">
														<parameterid>scale</parameterid>
														<name>Scale</name>
														<valuemin>0</valuemin>
														<valuemax>1000</valuemax>
														<value>133.333</value>
													</parameter>
													<parameter authoringApp="PremierePro">
														<parameterid>rotation</parameterid>
														<name>Rotation</name>
														<valuemin>-8640</valuemin>
														<valuemax>8640</valuemax>
														<value>0</value>
													</parameter>
													<parameter authoringApp="PremierePro">
														<parameterid>center</parameterid>
														<name>Center</name>
														<value>
															<horiz>0</horiz>
															<vert>0</vert>
														</value>
													</parameter>
													<parameter authoringApp="PremierePro">
														<parameterid>centerOffset</parameterid>
														<name>Anchor Point</name>
														<value>
															<horiz>0</horiz>
															<vert>0</vert>
														</value>
													</parameter>
													<parameter authoringApp="PremierePro">
														<parameterid>antiflicker</parameterid>
														<name>Anti-flicker Filter</name>
														<valuemin>0.0</valuemin>
														<valuemax>1.0</valuemax>
														<value>0</value>
													</parameter>
												</effect>
											</filter>
											<filter>
												<effect>
													<name>Distort</name>
													<effectid>deformation</effectid>
													<effectcategory>motion</effectcategory>
													<effecttype>motion</effecttype>
													<mediatype>video</mediatype>
													<parameter authoringApp="PremierePro">
														<parameterid>aspect</parameterid>
														<name>Aspect</name>
														<valuemin>-10000</valuemin>
														<valuemax>10000</valuemax>
														<value>-33.333</value>
													</parameter>
												</effect>
											</filter>
											<filter>
												<effect>
													<name></name>
													<effectid>GraphicAndType</effectid>
													<effectcategory>graphic</effectcategory>
													<effecttype>filter</effecttype>
													<mediatype>video</mediatype>
													<pproBypass>false</pproBypass>
													<parameter authoringApp="PremierePro">
														<parameterid>1</parameterid>
														<name>Source Text</name>
														<hash>3f0faa81-c1b0-8370-b66c-fa0b000009f1</hash>
													</parameter>
													<parameter authoringApp="PremierePro">
														<parameterid>2</parameterid>
														<name>Transform</name>
														<IsTimeVarying>false</IsTimeVarying>
														<ParameterControlType>11</ParameterControlType>
														<LowerBound>false</LowerBound>
														<UpperBound>false</UpperBound>
														<value>-91445760000000000,false,0,0,0,0,0,0</value>
													</parameter>
													<parameter authoringApp="PremierePro">
														<parameterid>3</parameterid>
														<name>Position</name>
														<IsTimeVarying>false</IsTimeVarying>
														<value>-91445760000000000,0.55605381727218628:0.73039215803146362,0,0,0,0,0,0,5,4,0,0,0,0</value>
													</parameter>
													<parameter authoringApp="PremierePro">
														<parameterid>4</parameterid>
														<name>Scale</name>
														<IsTimeVarying>false</IsTimeVarying>
														<ParameterControlType>2</ParameterControlType>
														<LowerBound>0</LowerBound>
														<UpperBound>4000</UpperBound>
														<value>-91445760000000000,100.,0,0,0,0,0,0</value>
													</parameter>
													<parameter authoringApp="PremierePro">
														<parameterid>5</parameterid>
														<name>Horizontal Scale</name>
														<IsTimeVarying>false</IsTimeVarying>
														<ParameterControlType>2</ParameterControlType>
														<LowerBound>0</LowerBound>
														<UpperBound>4000</UpperBound>
														<value>-91445760000000000,100.,0,0,0,0,0,0</value>
													</parameter>
													<parameter authoringApp="PremierePro">
														<parameterid>6</parameterid>
														<name> </name>
														<IsTimeVarying>false</IsTimeVarying>
														<ParameterControlType>4</ParameterControlType>
														<LowerBound>false</LowerBound>
														<UpperBound>true</UpperBound>
														<value>-91445760000000000,true,0,0,0,0,0,0</value>
													</parameter>
													<parameter authoringApp="PremierePro">
														<parameterid>7</parameterid>
														<name>Rotation</name>
														<IsTimeVarying>false</IsTimeVarying>
														<ParameterControlType>3</ParameterControlType>
														<LowerBound>-32768</LowerBound>
														<UpperBound>32767</UpperBound>
														<value>-91445760000000000,0.,0,0,0,0,0,0</value>
													</parameter>
													<parameter authoringApp="PremierePro">
														<parameterid>8</parameterid>
														<name>Opacity</name>
														<IsTimeVarying>false</IsTimeVarying>
														<ParameterControlType>2</ParameterControlType>
														<LowerBound>0</LowerBound>
														<UpperBound>100</UpperBound>
														<value>-91445760000000000,100.,0,0,0,0,0,0</value>
													</parameter>
													<parameter authoringApp="PremierePro">
														<parameterid>9</parameterid>
														<name>Anchor Point</name>
														<IsTimeVarying>false</IsTimeVarying>
														<value>-91445760000000000,0:0,0,0,0,0,0,0,5,4,0,0,0,0</value>
													</parameter>
													<parameter authoringApp="PremierePro">
														<parameterid>10</parameterid>
														<name></name>
														<IsTimeVarying>false</IsTimeVarying>
														<ParameterControlType>12</ParameterControlType>
														<LowerBound>false</LowerBound>
														<UpperBound>false</UpperBound>
														<value>-91445760000000000,false,0,0,0,0,0,0</value>
													</parameter>
													<parameter authoringApp="PremierePro">
														<parameterid>11</parameterid>
														<name> </name>
														<IsTimeVarying>false</IsTimeVarying>
														<ParameterControlType>8</ParameterControlType>
														<LowerBound>0</LowerBound>
														<UpperBound>32768</UpperBound>
														<value>-91445760000000000,0.,0,0,0,0,0,0</value>
													</parameter>
													<parameter authoringApp="PremierePro">
														<parameterid>12</parameterid>
														<name> </name>
														<IsTimeVarying>false</IsTimeVarying>
														<ParameterControlType>8</ParameterControlType>
														<LowerBound>0</LowerBound>
														<UpperBound>32768</UpperBound>
														<value>-91445760000000000,0.,0,0,0,0,0,0</value>
													</parameter>
													<parameter authoringApp="PremierePro">
														<parameterid>13</parameterid>
														<name>start</name>
														<IsTimeVarying>false</IsTimeVarying>
														<ParameterControlType>8</ParameterControlType>
														<LowerBound>-100</LowerBound>
														<UpperBound>1000000000</UpperBound>
														<value>-91445760000000000,0.,0,0,0,0,0,0</value>
													</parameter>
													<parameter authoringApp="PremierePro">
														<parameterid>14</parameterid>
														<name>end</name>
														<IsTimeVarying>false</IsTimeVarying>
														<ParameterControlType>8</ParameterControlType>
														<LowerBound>-100</LowerBound>
														<UpperBound>1000000000</UpperBound>
														<value>-91445760000000000,0.,0,0,0,0,0,0</value>
													</parameter>
													<parameter authoringApp="PremierePro">
														<parameterid>15</parameterid>
														<name> </name>
														<IsTimeVarying>false</IsTimeVarying>
														<ParameterControlType>4</ParameterControlType>
														<LowerBound>false</LowerBound>
														<UpperBound>true</UpperBound>
														<value>-91445760000000000,false,0,0,0,0,0,0</value>
													</parameter>
													<parameter authoringApp="PremierePro">
														<parameterid>16</parameterid>
														<name> </name>
														<IsTimeVarying>false</IsTimeVarying>
														<ParameterControlType>4</ParameterControlType>
														<LowerBound>false</LowerBound>
														<UpperBound>true</UpperBound>
														<value>-91445760000000000,false,0,0,0,0,0,0</value>
													</parameter>
													<parameter authoringApp="PremierePro">
														<parameterid>17</parameterid>
														<name> </name>
														<IsTimeVarying>false</IsTimeVarying>
														<ParameterControlType>4</ParameterControlType>
														<LowerBound>false</LowerBound>
														<UpperBound>true</UpperBound>
														<value>-91445760000000000,false,0,0,0,0,0,0</value>
													</parameter>
													<parameter authoringApp="PremierePro">
														<parameterid>18</parameterid>
														<name> </name>
														<IsTimeVarying>false</IsTimeVarying>
														<ParameterControlType>4</ParameterControlType>
														<LowerBound>false</LowerBound>
														<UpperBound>true</UpperBound>
														<value>-91445760000000000,false,0,0,0,0,0,0</value>
													</parameter>
													<parameter authoringApp="PremierePro">
														<parameterid>19</parameterid>
														<name>Parent Width</name>
														<IsTimeVarying>false</IsTimeVarying>
														<ParameterControlType>2</ParameterControlType>
														<LowerBound>0</LowerBound>
														<UpperBound>20000</UpperBound>
														<value>-91445760000000000,0.,0,0,0,0,0,0</value>
													</parameter>
													<parameter authoringApp="PremierePro">
														<parameterid>20</parameterid>
														<name>Parent Height</name>
														<IsTimeVarying>false</IsTimeVarying>
														<ParameterControlType>2</ParameterControlType>
														<LowerBound>0</LowerBound>
														<UpperBound>20000</UpperBound>
														<value>-91445760000000000,0.,0,0,0,0,0,0</value>
													</parameter>
													<parameter authoringApp="PremierePro">
														<parameterid>21</parameterid>
														<name>Parent Rotation</name>
														<IsTimeVarying>false</IsTimeVarying>
														<ParameterControlType>3</ParameterControlType>
														<LowerBound>-32768</LowerBound>
														<UpperBound>32767</UpperBound>
														<value>-91445760000000000,0.,0,0,0,0,0,0</value>
													</parameter>
												</effect>
											</filter>
											<logginginfo>
												<description></description>
												<scene></scene>
												<shottake></shottake>
												<lognote></lognote>
												<good></good>
												<originalvideofilename></originalvideofilename>
												<originalaudiofilename></originalaudiofilename>
											</logginginfo>
											<colorinfo>
												<lut></lut>
												<lut1></lut1>
												<asc_sop></asc_sop>
												<asc_sat></asc_sat>
												<lut2></lut2>
											</colorinfo>
										</clipitem>
										<enabled>TRUE</enabled>
										<locked>FALSE</locked>
									</track>
									<track TL.SQTrackShy="0" TL.SQTrackExpandedHeight="25" TL.SQTrackExpanded="0" MZ.TrackTargeted="0">
										<transitionitem>
											<start>167</start>
											<end>224</end>
											<alignment>start-black</alignment>
											<cutPointTicks>0</cutPointTicks>
											<rate>
												<timebase>25</timebase>
												<ntsc>FALSE</ntsc>
											</rate>
											<effect>
												<name>Edge Wipe</name>
												<effectid>Edge Wipe</effectid>
												<effectcategory>Wipe</effectcategory>
												<effecttype>transition</effecttype>
												<mediatype>video</mediatype>
												<wipecode>2</wipecode>
												<wipeaccuracy>100</wipeaccuracy>
												<startratio>0</startratio>
												<endratio>1</endratio>
												<reverse>FALSE</reverse>
												<parameter authoringApp="PremierePro">
													<parameterid>directionofwipe</parameterid>
													<name>Angle</name>
													<valuemin>-360</valuemin>
													<valuemax>360</valuemax>
													<value>90</value>
												</parameter>
											</effect>
										</transitionitem>
										<clipitem id="clipitem-716">
											<masterclipid>masterclip-332</masterclipid>
											<name>9.png</name>
											<enabled>TRUE</enabled>
											<duration>1080000</duration>
											<rate>
												<timebase>25</timebase>
												<ntsc>FALSE</ntsc>
											</rate>
											<start>-1</start>
											<end>-1</end>
											<in>90042</in>
											<out>90225</out>
											<pproTicksIn>914884346880000</pproTicksIn>
											<pproTicksOut>916743744000000</pproTicksOut>
											<alphatype>straight</alphatype>
											<pixelaspectratio>square</pixelaspectratio>
											<anamorphic>FALSE</anamorphic>
											<file id="file-286">
												<name>2.png</name>
												<pathurl>file://localhost/_MUZ_TV/project_AP/RU/_TITLE/END/2.png</pathurl>
												<rate>
													<timebase>30</timebase>
													<ntsc>TRUE</ntsc>
												</rate>
												<timecode>
													<rate>
														<timebase>30</timebase>
														<ntsc>TRUE</ntsc>
													</rate>
													<string>00;00;00;00</string>
													<frame>0</frame>
													<displayformat>DF</displayformat>
												</timecode>
												<media>
													<video>
														<samplecharacteristics>
															<rate>
																<timebase>30</timebase>
																<ntsc>TRUE</ntsc>
															</rate>
															<width>1920</width>
															<height>1080</height>
															<anamorphic>FALSE</anamorphic>
															<pixelaspectratio>square</pixelaspectratio>
															<fielddominance>none</fielddominance>
														</samplecharacteristics>
													</video>
												</media>
											</file>
											<filter>
												<effect>
													<name>Basic Motion</name>
													<effectid>basic</effectid>
													<effectcategory>motion</effectcategory>
													<effecttype>motion</effecttype>
													<mediatype>video</mediatype>
													<pproBypass>false</pproBypass>
													<parameter authoringApp="PremierePro">
														<parameterid>scale</parameterid>
														<name>Scale</name>
														<valuemin>0</valuemin>
														<valuemax>1000</valuemax>
														<value>53.3333</value>
													</parameter>
													<parameter authoringApp="PremierePro">
														<parameterid>rotation</parameterid>
														<name>Rotation</name>
														<valuemin>-8640</valuemin>
														<valuemax>8640</valuemax>
														<value>0</value>
													</parameter>
													<parameter authoringApp="PremierePro">
														<parameterid>center</parameterid>
														<name>Center</name>
														<value>
															<horiz>0</horiz>
															<vert>0</vert>
														</value>
													</parameter>
													<parameter authoringApp="PremierePro">
														<parameterid>centerOffset</parameterid>
														<name>Anchor Point</name>
														<value>
															<horiz>0</horiz>
															<vert>0</vert>
														</value>
													</parameter>
													<parameter authoringApp="PremierePro">
														<parameterid>antiflicker</parameterid>
														<name>Anti-flicker Filter</name>
														<valuemin>0.0</valuemin>
														<valuemax>1.0</valuemax>
														<value>0</value>
													</parameter>
												</effect>
											</filter>
											<logginginfo>
												<description></description>
												<scene></scene>
												<shottake></shottake>
												<lognote></lognote>
												<good></good>
												<originalvideofilename></originalvideofilename>
												<originalaudiofilename></originalaudiofilename>
											</logginginfo>
											<colorinfo>
												<lut></lut>
												<lut1></lut1>
												<asc_sop></asc_sop>
												<asc_sat></asc_sat>
												<lut2></lut2>
											</colorinfo>
											<labels>
												<label2>Lavender</label2>
											</labels>
										</clipitem>
										<transitionitem>
											<start>328</start>
											<end>350</end>
											<alignment>end-black</alignment>
											<cutPointTicks>223534080000</cutPointTicks>
											<rate>
												<timebase>25</timebase>
												<ntsc>FALSE</ntsc>
											</rate>
											<effect>
												<name>Edge Wipe</name>
												<effectid>Edge Wipe</effectid>
												<effectcategory>Wipe</effectcategory>
												<effecttype>transition</effecttype>
												<mediatype>video</mediatype>
												<wipecode>2</wipecode>
												<wipeaccuracy>100</wipeaccuracy>
												<startratio>0</startratio>
												<endratio>1</endratio>
												<reverse>FALSE</reverse>
												<parameter authoringApp="PremierePro">
													<parameterid>directionofwipe</parameterid>
													<name>Angle</name>
													<valuemin>-360</valuemin>
													<valuemax>360</valuemax>
													<value>90</value>
												</parameter>
											</effect>
										</transitionitem>
										<enabled>TRUE</enabled>
										<locked>FALSE</locked>
									</track>
									<track TL.SQTrackShy="0" TL.SQTrackExpandedHeight="25" TL.SQTrackExpanded="0" MZ.TrackTargeted="0">
										<transitionitem>
											<start>167</start>
											<end>224</end>
											<alignment>start-black</alignment>
											<cutPointTicks>0</cutPointTicks>
											<rate>
												<timebase>25</timebase>
												<ntsc>FALSE</ntsc>
											</rate>
											<effect>
												<name>Edge Wipe</name>
												<effectid>Edge Wipe</effectid>
												<effectcategory>Wipe</effectcategory>
												<effecttype>transition</effecttype>
												<mediatype>video</mediatype>
												<wipecode>2</wipecode>
												<wipeaccuracy>100</wipeaccuracy>
												<startratio>0</startratio>
												<endratio>1</endratio>
												<reverse>FALSE</reverse>
												<parameter authoringApp="PremierePro">
													<parameterid>directionofwipe</parameterid>
													<name>Angle</name>
													<valuemin>-360</valuemin>
													<valuemax>360</valuemax>
													<value>90</value>
												</parameter>
											</effect>
										</transitionitem>
										<clipitem id="clipitem-717">
											<masterclipid>masterclip-333</masterclipid>
											<name>Graphic</name>
											<enabled>FALSE</enabled>
											<duration>1080000</duration>
											<rate>
												<timebase>25</timebase>
												<ntsc>FALSE</ntsc>
											</rate>
											<start>-1</start>
											<end>-1</end>
											<in>89998</in>
											<out>90181</out>
											<pproTicksIn>914437278720000</pproTicksIn>
											<pproTicksOut>916296675840000</pproTicksOut>
											<alphatype>straight</alphatype>
											<pixelaspectratio>PAL-601</pixelaspectratio>
											<anamorphic>TRUE</anamorphic>
											<file id="file-287">
												<name>Graphic</name>
												<mediaSource>GraphicAndType</mediaSource>
												<rate>
													<timebase>30</timebase>
													<ntsc>TRUE</ntsc>
												</rate>
												<timecode>
													<rate>
														<timebase>30</timebase>
														<ntsc>TRUE</ntsc>
													</rate>
													<string>00;00;00;00</string>
													<frame>0</frame>
													<displayformat>DF</displayformat>
												</timecode>
												<media>
													<video>
														<samplecharacteristics>
															<rate>
																<timebase>30</timebase>
																<ntsc>TRUE</ntsc>
															</rate>
															<width>720</width>
															<height>576</height>
															<anamorphic>TRUE</anamorphic>
															<pixelaspectratio>PAL-601</pixelaspectratio>
															<fielddominance>none</fielddominance>
														</samplecharacteristics>
													</video>
												</media>
											</file>
											<filter>
												<effect>
													<name>АРТУР ПИРОЖКОВ&#13;ЛЕТОМ НА ФИЕСТЕ</name>
													<effectid>GraphicAndType</effectid>
													<effectcategory>graphic</effectcategory>
													<effecttype>filter</effecttype>
													<mediatype>video</mediatype>
													<pproBypass>false</pproBypass>
													<pproExpanded>true</pproExpanded>
													<parameter authoringApp="PremierePro">
														<parameterid>1</parameterid>
														<name>Source Text</name>
														<hash>dc092258-f6b9-fd91-a76f-c3e700000476</hash>
													</parameter>
													<parameter authoringApp="PremierePro">
														<parameterid>2</parameterid>
														<name>Transform</name>
														<IsTimeVarying>false</IsTimeVarying>
														<ParameterControlType>11</ParameterControlType>
														<LowerBound>false</LowerBound>
														<UpperBound>false</UpperBound>
														<value>-91445760000000000,false,0,0,0,0,0,0</value>
													</parameter>
													<parameter authoringApp="PremierePro">
														<parameterid>3</parameterid>
														<name>Position</name>
														<IsTimeVarying>false</IsTimeVarying>
														<value>-91445760000000000,0.36944580078125:0.86468505859375,0,0,0,0,0,0,5,4,0,0,0,0</value>
													</parameter>
													<parameter authoringApp="PremierePro">
														<parameterid>4</parameterid>
														<name>Scale</name>
														<IsTimeVarying>false</IsTimeVarying>
														<ParameterControlType>2</ParameterControlType>
														<LowerBound>0</LowerBound>
														<UpperBound>4000</UpperBound>
														<value>-91445760000000000,100.,0,0,0,0,0,0</value>
													</parameter>
													<parameter authoringApp="PremierePro">
														<parameterid>5</parameterid>
														<name>Horizontal Scale</name>
														<IsTimeVarying>false</IsTimeVarying>
														<ParameterControlType>2</ParameterControlType>
														<LowerBound>0</LowerBound>
														<UpperBound>4000</UpperBound>
														<value>-91445760000000000,100.,0,0,0,0,0,0</value>
													</parameter>
													<parameter authoringApp="PremierePro">
														<parameterid>6</parameterid>
														<name> </name>
														<IsTimeVarying>false</IsTimeVarying>
														<ParameterControlType>4</ParameterControlType>
														<LowerBound>false</LowerBound>
														<UpperBound>true</UpperBound>
														<value>-91445760000000000,true,0,0,0,0,0,0</value>
													</parameter>
													<parameter authoringApp="PremierePro">
														<parameterid>7</parameterid>
														<name>Rotation</name>
														<IsTimeVarying>false</IsTimeVarying>
														<ParameterControlType>3</ParameterControlType>
														<LowerBound>-32768</LowerBound>
														<UpperBound>32767</UpperBound>
														<value>-91445760000000000,0.,0,0,0,0,0,0</value>
													</parameter>
													<parameter authoringApp="PremierePro">
														<parameterid>8</parameterid>
														<name>Opacity</name>
														<IsTimeVarying>false</IsTimeVarying>
														<ParameterControlType>2</ParameterControlType>
														<LowerBound>0</LowerBound>
														<UpperBound>100</UpperBound>
														<value>-91445760000000000,100.,0,0,0,0,0,0</value>
													</parameter>
													<parameter authoringApp="PremierePro">
														<parameterid>9</parameterid>
														<name>Anchor Point</name>
														<IsTimeVarying>false</IsTimeVarying>
														<value>-91445760000000000,0:0,0,0,0,0,0,0,5,4,0,0,0,0</value>
													</parameter>
													<parameter authoringApp="PremierePro">
														<parameterid>10</parameterid>
														<name></name>
														<IsTimeVarying>false</IsTimeVarying>
														<ParameterControlType>12</ParameterControlType>
														<LowerBound>false</LowerBound>
														<UpperBound>false</UpperBound>
														<value>-91445760000000000,false,0,0,0,0,0,0</value>
													</parameter>
													<parameter authoringApp="PremierePro">
														<parameterid>11</parameterid>
														<name> </name>
														<IsTimeVarying>false</IsTimeVarying>
														<ParameterControlType>8</ParameterControlType>
														<LowerBound>0</LowerBound>
														<UpperBound>32768</UpperBound>
														<value>-91445760000000000,0.,0,0,0,0,0,0</value>
													</parameter>
													<parameter authoringApp="PremierePro">
														<parameterid>12</parameterid>
														<name> </name>
														<IsTimeVarying>false</IsTimeVarying>
														<ParameterControlType>8</ParameterControlType>
														<LowerBound>0</LowerBound>
														<UpperBound>32768</UpperBound>
														<value>-91445760000000000,0.,0,0,0,0,0,0</value>
													</parameter>
													<parameter authoringApp="PremierePro">
														<parameterid>13</parameterid>
														<name>start</name>
														<IsTimeVarying>false</IsTimeVarying>
														<ParameterControlType>8</ParameterControlType>
														<LowerBound>-100</LowerBound>
														<UpperBound>1000000000</UpperBound>
														<value>-91445760000000000,30.,0,0,0,0,0,0</value>
													</parameter>
													<parameter authoringApp="PremierePro">
														<parameterid>14</parameterid>
														<name>end</name>
														<IsTimeVarying>false</IsTimeVarying>
														<ParameterControlType>8</ParameterControlType>
														<LowerBound>-100</LowerBound>
														<UpperBound>1000000000</UpperBound>
														<value>-91445760000000000,30.,0,0,0,0,0,0</value>
													</parameter>
													<parameter authoringApp="PremierePro">
														<parameterid>15</parameterid>
														<name> </name>
														<IsTimeVarying>false</IsTimeVarying>
														<ParameterControlType>4</ParameterControlType>
														<LowerBound>false</LowerBound>
														<UpperBound>true</UpperBound>
														<value>-91445760000000000,false,0,0,0,0,0,0</value>
													</parameter>
													<parameter authoringApp="PremierePro">
														<parameterid>16</parameterid>
														<name> </name>
														<IsTimeVarying>false</IsTimeVarying>
														<ParameterControlType>4</ParameterControlType>
														<LowerBound>false</LowerBound>
														<UpperBound>true</UpperBound>
														<value>-91445760000000000,false,0,0,0,0,0,0</value>
													</parameter>
													<parameter authoringApp="PremierePro">
														<parameterid>17</parameterid>
														<name> </name>
														<IsTimeVarying>false</IsTimeVarying>
														<ParameterControlType>4</ParameterControlType>
														<LowerBound>false</LowerBound>
														<UpperBound>true</UpperBound>
														<value>-91445760000000000,false,0,0,0,0,0,0</value>
													</parameter>
													<parameter authoringApp="PremierePro">
														<parameterid>18</parameterid>
														<name> </name>
														<IsTimeVarying>false</IsTimeVarying>
														<ParameterControlType>4</ParameterControlType>
														<LowerBound>false</LowerBound>
														<UpperBound>true</UpperBound>
														<value>-91445760000000000,false,0,0,0,0,0,0</value>
													</parameter>
													<parameter authoringApp="PremierePro">
														<parameterid>19</parameterid>
														<name>Parent Width</name>
														<IsTimeVarying>false</IsTimeVarying>
														<ParameterControlType>2</ParameterControlType>
														<LowerBound>0</LowerBound>
														<UpperBound>20000</UpperBound>
														<value>-91445760000000000,0.,0,0,0,0,0,0</value>
													</parameter>
													<parameter authoringApp="PremierePro">
														<parameterid>20</parameterid>
														<name>Parent Height</name>
														<IsTimeVarying>false</IsTimeVarying>
														<ParameterControlType>2</ParameterControlType>
														<LowerBound>0</LowerBound>
														<UpperBound>20000</UpperBound>
														<value>-91445760000000000,0.,0,0,0,0,0,0</value>
													</parameter>
													<parameter authoringApp="PremierePro">
														<parameterid>21</parameterid>
														<name>Parent Rotation</name>
														<IsTimeVarying>false</IsTimeVarying>
														<ParameterControlType>3</ParameterControlType>
														<LowerBound>-32768</LowerBound>
														<UpperBound>32767</UpperBound>
														<value>-91445760000000000,0.,0,0,0,0,0,0</value>
													</parameter>
												</effect>
											</filter>
											<logginginfo>
												<description></description>
												<scene></scene>
												<shottake></shottake>
												<lognote></lognote>
												<good></good>
												<originalvideofilename></originalvideofilename>
												<originalaudiofilename></originalaudiofilename>
											</logginginfo>
											<colorinfo>
												<lut></lut>
												<lut1></lut1>
												<asc_sop></asc_sop>
												<asc_sat></asc_sat>
												<lut2></lut2>
											</colorinfo>
										</clipitem>
										<transitionitem>
											<start>328</start>
											<end>350</end>
											<alignment>end-black</alignment>
											<cutPointTicks>223534080000</cutPointTicks>
											<rate>
												<timebase>25</timebase>
												<ntsc>FALSE</ntsc>
											</rate>
											<effect>
												<name>Edge Wipe</name>
												<effectid>Edge Wipe</effectid>
												<effectcategory>Wipe</effectcategory>
												<effecttype>transition</effecttype>
												<mediatype>video</mediatype>
												<wipecode>2</wipecode>
												<wipeaccuracy>100</wipeaccuracy>
												<startratio>0</startratio>
												<endratio>1</endratio>
												<reverse>FALSE</reverse>
												<parameter authoringApp="PremierePro">
													<parameterid>directionofwipe</parameterid>
													<name>Angle</name>
													<valuemin>-360</valuemin>
													<valuemax>360</valuemax>
													<value>90</value>
												</parameter>
											</effect>
										</transitionitem>
										<enabled>TRUE</enabled>
										<locked>FALSE</locked>
									</track>
								</video>
								<audio>
									<numOutputChannels>2</numOutputChannels>
									<format>
										<samplecharacteristics>
											<depth>16</depth>
											<samplerate>48000</samplerate>
										</samplecharacteristics>
									</format>
									<outputs>
										<group>
											<index>1</index>
											<numchannels>1</numchannels>
											<downmix>0</downmix>
											<channel>
												<index>1</index>
											</channel>
										</group>
										<group>
											<index>2</index>
											<numchannels>1</numchannels>
											<downmix>0</downmix>
											<channel>
												<index>2</index>
											</channel>
										</group>
									</outputs>
									<track TL.SQTrackAudioKeyframeStyle="0" TL.SQTrackShy="0" TL.SQTrackExpandedHeight="25" TL.SQTrackExpanded="0" MZ.TrackTargeted="1" PannerCurrentValue="0.5" PannerStartKeyframe="-91445760000000000,0.5,0,0,0,0,0,0" PannerName="Balance" currentExplodedTrackIndex="0" totalExplodedTrackCount="2" premiereTrackType="Stereo">
										<enabled>TRUE</enabled>
										<locked>FALSE</locked>
										<outputchannelindex>1</outputchannelindex>
									</track>
									<track TL.SQTrackAudioKeyframeStyle="0" TL.SQTrackShy="0" TL.SQTrackExpandedHeight="25" TL.SQTrackExpanded="0" MZ.TrackTargeted="1" PannerCurrentValue="0.5" PannerStartKeyframe="-91445760000000000,0.5,0,0,0,0,0,0" PannerName="Balance" currentExplodedTrackIndex="1" totalExplodedTrackCount="2" premiereTrackType="Stereo">
										<enabled>TRUE</enabled>
										<locked>FALSE</locked>
										<outputchannelindex>2</outputchannelindex>
									</track>
								</audio>
							</media>
							<timecode>
								<rate>
									<timebase>25</timebase>
									<ntsc>FALSE</ntsc>
								</rate>
								<string>00:00:00:00</string>
								<frame>0</frame>
								<displayformat>NDF</displayformat>
							</timecode>
								<marker>
									<comment></comment>
									<name></name>
									<in>125</in>
									<out>-1</out>
									<pproColor>4280578025</pproColor>
								</marker>
							<logginginfo>
								<description></description>
								<scene></scene>
								<shottake></shottake>
								<lognote></lognote>
								<good></good>
								<originalvideofilename></originalvideofilename>
								<originalaudiofilename></originalaudiofilename>
							</logginginfo>
						</sequence>
							<marker>
								<comment></comment>
								<name></name>
								<in>125</in>
								<out>-1</out>
								<pproColor>4280578025</pproColor>
							</marker>
						<labels>
							<label2>Forest</label2>
						</labels>
					</clipitem>
					<clipitem id="clipitem-718">
						<masterclipid>masterclip-329</masterclipid>
						<name>2</name>
						<enabled>TRUE</enabled>
						<duration>475</duration>
						<rate>
							<timebase>25</timebase>
							<ntsc>FALSE</ntsc>
						</rate>
						<start>60111</start>
						<end>60462</end>
						<in>124</in>
						<out>475</out>
						<pproTicksIn>1259919360000</pproTicksIn>
						<pproTicksOut>4826304000000</pproTicksOut>
						<sequence id="sequence-50"/>
							<marker>
								<comment></comment>
								<name></name>
								<in>125</in>
								<out>-1</out>
								<pproColor>4280578025</pproColor>
							</marker>
						<labels>
							<label2>Forest</label2>
						</labels>
					</clipitem>
					<clipitem id="clipitem-719">
						<masterclipid>masterclip-334</masterclipid>
						<name>1_TITLE</name>
						<enabled>TRUE</enabled>
						<duration>475</duration>
						<rate>
							<timebase>25</timebase>
							<ntsc>FALSE</ntsc>
						</rate>
						<start>61574</start>
						<end>61924</end>
						<in>0</in>
						<out>475</out>
						<pproTicksIn>0</pproTicksIn>
						<pproTicksOut>4826304000000</pproTicksOut>
						<sequence id="sequence-51" TL.SQAudioVisibleBase="0" TL.SQVideoVisibleBase="0" TL.SQVisibleBaseTime="0" TL.SQAVDividerPosition="0.5" TL.SQHideShyTracks="0" TL.SQHeaderWidth="236" TL.SQDataTrackViewControlState="0" Monitor.ProgramZoomOut="4826304000000" Monitor.ProgramZoomIn="0" TL.SQTimePerPixel="0.024999999999999998" AM.TrackVScrollPosition="0" AM.TrackScrollPosition="0" MZ.EditLine="2712890880000" MZ.Sequence.PreviewFrameSizeHeight="576" MZ.Sequence.PreviewFrameSizeWidth="720" MZ.Sequence.AudioTimeDisplayFormat="200" MZ.Sequence.PreviewRenderingClassID="1061109567" MZ.Sequence.PreviewRenderingPresetCodec="1685480304" MZ.Sequence.PreviewRenderingPresetPath="EncoderPresets/SequencePreview/04be6e19-a018-4e0c-a9d6-0ab44c64752b/QuickTime DV PAL.epr" MZ.Sequence.PreviewUseMaxRenderQuality="false" MZ.Sequence.PreviewUseMaxBitDepth="false" MZ.Sequence.EditingModeGUID="04be6e19-a018-4e0c-a9d6-0ab44c64752b" MZ.Sequence.VideoTimeDisplayFormat="101" MZ.WorkOutPoint="4826304000000" MZ.WorkInPoint="0" MZ.ZeroPoint="0">
							<duration>475</duration>
							<rate>
								<timebase>25</timebase>
								<ntsc>FALSE</ntsc>
							</rate>
							<name>титр</name>
							<media>
								<video>
									<format>
										<samplecharacteristics>
											<rate>
												<timebase>25</timebase>
												<ntsc>FALSE</ntsc>
											</rate>
											<codec>
												<name>Apple ProRes 422</name>
												<appspecificdata>
													<appname>Final Cut Pro</appname>
													<appmanufacturer>Apple Inc.</appmanufacturer>
													<appversion>7.0</appversion>
													<data>
														<qtcodec>
															<codecname>Apple ProRes 422</codecname>
															<codectypename>Apple ProRes 422</codectypename>
															<codectypecode>apcn</codectypecode>
															<codecvendorcode>appl</codecvendorcode>
															<spatialquality>1024</spatialquality>
															<temporalquality>0</temporalquality>
															<keyframerate>0</keyframerate>
															<datarate>0</datarate>
														</qtcodec>
													</data>
												</appspecificdata>
											</codec>
											<width>720</width>
											<height>576</height>
											<anamorphic>TRUE</anamorphic>
											<pixelaspectratio>PAL-601</pixelaspectratio>
											<fielddominance>lower</fielddominance>
											<colordepth>24</colordepth>
										</samplecharacteristics>
									</format>
									<track TL.SQTrackShy="0" TL.SQTrackExpandedHeight="25" TL.SQTrackExpanded="0" MZ.TrackTargeted="1">
										<clipitem id="clipitem-720">
											<masterclipid>masterclip-335</masterclipid>
											<name>9_title.mov</name>
											<enabled>TRUE</enabled>
											<duration>225</duration>
											<rate>
												<timebase>25</timebase>
												<ntsc>FALSE</ntsc>
											</rate>
											<start>125</start>
											<end>350</end>
											<in>0</in>
											<out>225</out>
											<pproTicksIn>0</pproTicksIn>
											<pproTicksOut>2286144000000</pproTicksOut>
											<alphatype>straight</alphatype>
											<pixelaspectratio>square</pixelaspectratio>
											<anamorphic>FALSE</anamorphic>
											<file id="file-288">
												<name>1_title.mov</name>
												<pathurl>file://localhost/_MUZ_TV/graphika/RU-21/MOD/title_plashka/1_title.mov</pathurl>
												<rate>
													<timebase>25</timebase>
													<ntsc>FALSE</ntsc>
												</rate>
												<duration>225</duration>
												<timecode>
													<rate>
														<timebase>25</timebase>
														<ntsc>FALSE</ntsc>
													</rate>
													<string>00:01:21:00</string>
													<frame>2025</frame>
													<displayformat>NDF</displayformat>
												</timecode>
												<media>
													<video>
														<samplecharacteristics>
															<rate>
																<timebase>25</timebase>
																<ntsc>FALSE</ntsc>
															</rate>
															<width>1920</width>
															<height>1080</height>
															<anamorphic>FALSE</anamorphic>
															<pixelaspectratio>square</pixelaspectratio>
															<fielddominance>none</fielddominance>
														</samplecharacteristics>
													</video>
												</media>
											</file>
											<filter>
												<effect>
													<name>Basic Motion</name>
													<effectid>basic</effectid>
													<effectcategory>motion</effectcategory>
													<effecttype>motion</effecttype>
													<mediatype>video</mediatype>
													<pproBypass>false</pproBypass>
													<parameter authoringApp="PremierePro">
														<parameterid>scale</parameterid>
														<name>Scale</name>
														<valuemin>0</valuemin>
														<valuemax>1000</valuemax>
														<value>55</value>
													</parameter>
													<parameter authoringApp="PremierePro">
														<parameterid>rotation</parameterid>
														<name>Rotation</name>
														<valuemin>-8640</valuemin>
														<valuemax>8640</valuemax>
														<value>0</value>
													</parameter>
													<parameter authoringApp="PremierePro">
														<parameterid>center</parameterid>
														<name>Center</name>
														<value>
															<horiz>0</horiz>
															<vert>0</vert>
														</value>
													</parameter>
													<parameter authoringApp="PremierePro">
														<parameterid>centerOffset</parameterid>
														<name>Anchor Point</name>
														<value>
															<horiz>0</horiz>
															<vert>0</vert>
														</value>
													</parameter>
													<parameter authoringApp="PremierePro">
														<parameterid>antiflicker</parameterid>
														<name>Anti-flicker Filter</name>
														<valuemin>0.0</valuemin>
														<valuemax>1.0</valuemax>
														<value>0</value>
													</parameter>
												</effect>
											</filter>
											<filter>
												<effect>
													<name>Distort</name>
													<effectid>deformation</effectid>
													<effectcategory>motion</effectcategory>
													<effecttype>motion</effecttype>
													<mediatype>video</mediatype>
													<parameter authoringApp="PremierePro">
														<parameterid>aspect</parameterid>
														<name>Aspect</name>
														<valuemin>-10000</valuemin>
														<valuemax>10000</valuemax>
														<value>-3.12506</value>
													</parameter>
												</effect>
											</filter>
											<logginginfo>
												<description></description>
												<scene></scene>
												<shottake></shottake>
												<lognote></lognote>
												<good></good>
												<originalvideofilename></originalvideofilename>
												<originalaudiofilename></originalaudiofilename>
											</logginginfo>
											<colorinfo>
												<lut></lut>
												<lut1></lut1>
												<asc_sop></asc_sop>
												<asc_sat></asc_sat>
												<lut2></lut2>
											</colorinfo>
											<labels>
												<label2>Violet</label2>
											</labels>
										</clipitem>
										<clipitem id="clipitem-721">
											<masterclipid>masterclip-336</masterclipid>
											<name>Graphic</name>
											<enabled>FALSE</enabled>
											<duration>1080000</duration>
											<rate>
												<timebase>25</timebase>
												<ntsc>FALSE</ntsc>
											</rate>
											<start>350</start>
											<end>475</end>
											<in>90000</in>
											<out>90125</out>
											<pproTicksIn>914457600000000</pproTicksIn>
											<pproTicksOut>915727680000000</pproTicksOut>
											<alphatype>straight</alphatype>
											<pixelaspectratio>PAL-601</pixelaspectratio>
											<anamorphic>TRUE</anamorphic>
											<file id="file-289">
												<name>Graphic</name>
												<mediaSource>GraphicAndType</mediaSource>
												<rate>
													<timebase>30</timebase>
													<ntsc>TRUE</ntsc>
												</rate>
												<timecode>
													<rate>
														<timebase>30</timebase>
														<ntsc>TRUE</ntsc>
													</rate>
													<string>00;00;00;00</string>
													<frame>0</frame>
													<displayformat>DF</displayformat>
												</timecode>
												<media>
													<video>
														<samplecharacteristics>
															<rate>
																<timebase>30</timebase>
																<ntsc>TRUE</ntsc>
															</rate>
															<width>720</width>
															<height>576</height>
															<anamorphic>TRUE</anamorphic>
															<pixelaspectratio>PAL-601</pixelaspectratio>
															<fielddominance>none</fielddominance>
														</samplecharacteristics>
													</video>
												</media>
											</file>
											<filter>
												<effect>
													<name>Basic Motion</name>
													<effectid>basic</effectid>
													<effectcategory>motion</effectcategory>
													<effecttype>motion</effecttype>
													<mediatype>video</mediatype>
													<pproBypass>false</pproBypass>
													<parameter authoringApp="PremierePro">
														<parameterid>scale</parameterid>
														<name>Scale</name>
														<valuemin>0</valuemin>
														<valuemax>1000</valuemax>
														<value>133.333</value>
													</parameter>
													<parameter authoringApp="PremierePro">
														<parameterid>rotation</parameterid>
														<name>Rotation</name>
														<valuemin>-8640</valuemin>
														<valuemax>8640</valuemax>
														<value>0</value>
													</parameter>
													<parameter authoringApp="PremierePro">
														<parameterid>center</parameterid>
														<name>Center</name>
														<value>
															<horiz>0</horiz>
															<vert>0</vert>
														</value>
													</parameter>
													<parameter authoringApp="PremierePro">
														<parameterid>centerOffset</parameterid>
														<name>Anchor Point</name>
														<value>
															<horiz>0</horiz>
															<vert>0</vert>
														</value>
													</parameter>
													<parameter authoringApp="PremierePro">
														<parameterid>antiflicker</parameterid>
														<name>Anti-flicker Filter</name>
														<valuemin>0.0</valuemin>
														<valuemax>1.0</valuemax>
														<value>0</value>
													</parameter>
												</effect>
											</filter>
											<filter>
												<effect>
													<name>Distort</name>
													<effectid>deformation</effectid>
													<effectcategory>motion</effectcategory>
													<effecttype>motion</effecttype>
													<mediatype>video</mediatype>
													<parameter authoringApp="PremierePro">
														<parameterid>aspect</parameterid>
														<name>Aspect</name>
														<valuemin>-10000</valuemin>
														<valuemax>10000</valuemax>
														<value>-33.333</value>
													</parameter>
												</effect>
											</filter>
											<filter>
												<effect>
													<name></name>
													<effectid>GraphicAndType</effectid>
													<effectcategory>graphic</effectcategory>
													<effecttype>filter</effecttype>
													<mediatype>video</mediatype>
													<pproBypass>false</pproBypass>
													<parameter authoringApp="PremierePro">
														<parameterid>1</parameterid>
														<name>Source Text</name>
														<hash>3f0faa81-c1b0-8370-b66c-fa0b000009f1</hash>
													</parameter>
													<parameter authoringApp="PremierePro">
														<parameterid>2</parameterid>
														<name>Transform</name>
														<IsTimeVarying>false</IsTimeVarying>
														<ParameterControlType>11</ParameterControlType>
														<LowerBound>false</LowerBound>
														<UpperBound>false</UpperBound>
														<value>-91445760000000000,false,0,0,0,0,0,0</value>
													</parameter>
													<parameter authoringApp="PremierePro">
														<parameterid>3</parameterid>
														<name>Position</name>
														<IsTimeVarying>false</IsTimeVarying>
														<value>-91445760000000000,0.55605381727218628:0.73039215803146362,0,0,0,0,0,0,5,4,0,0,0,0</value>
													</parameter>
													<parameter authoringApp="PremierePro">
														<parameterid>4</parameterid>
														<name>Scale</name>
														<IsTimeVarying>false</IsTimeVarying>
														<ParameterControlType>2</ParameterControlType>
														<LowerBound>0</LowerBound>
														<UpperBound>4000</UpperBound>
														<value>-91445760000000000,100.,0,0,0,0,0,0</value>
													</parameter>
													<parameter authoringApp="PremierePro">
														<parameterid>5</parameterid>
														<name>Horizontal Scale</name>
														<IsTimeVarying>false</IsTimeVarying>
														<ParameterControlType>2</ParameterControlType>
														<LowerBound>0</LowerBound>
														<UpperBound>4000</UpperBound>
														<value>-91445760000000000,100.,0,0,0,0,0,0</value>
													</parameter>
													<parameter authoringApp="PremierePro">
														<parameterid>6</parameterid>
														<name> </name>
														<IsTimeVarying>false</IsTimeVarying>
														<ParameterControlType>4</ParameterControlType>
														<LowerBound>false</LowerBound>
														<UpperBound>true</UpperBound>
														<value>-91445760000000000,true,0,0,0,0,0,0</value>
													</parameter>
													<parameter authoringApp="PremierePro">
														<parameterid>7</parameterid>
														<name>Rotation</name>
														<IsTimeVarying>false</IsTimeVarying>
														<ParameterControlType>3</ParameterControlType>
														<LowerBound>-32768</LowerBound>
														<UpperBound>32767</UpperBound>
														<value>-91445760000000000,0.,0,0,0,0,0,0</value>
													</parameter>
													<parameter authoringApp="PremierePro">
														<parameterid>8</parameterid>
														<name>Opacity</name>
														<IsTimeVarying>false</IsTimeVarying>
														<ParameterControlType>2</ParameterControlType>
														<LowerBound>0</LowerBound>
														<UpperBound>100</UpperBound>
														<value>-91445760000000000,100.,0,0,0,0,0,0</value>
													</parameter>
													<parameter authoringApp="PremierePro">
														<parameterid>9</parameterid>
														<name>Anchor Point</name>
														<IsTimeVarying>false</IsTimeVarying>
														<value>-91445760000000000,0:0,0,0,0,0,0,0,5,4,0,0,0,0</value>
													</parameter>
													<parameter authoringApp="PremierePro">
														<parameterid>10</parameterid>
														<name></name>
														<IsTimeVarying>false</IsTimeVarying>
														<ParameterControlType>12</ParameterControlType>
														<LowerBound>false</LowerBound>
														<UpperBound>false</UpperBound>
														<value>-91445760000000000,false,0,0,0,0,0,0</value>
													</parameter>
													<parameter authoringApp="PremierePro">
														<parameterid>11</parameterid>
														<name> </name>
														<IsTimeVarying>false</IsTimeVarying>
														<ParameterControlType>8</ParameterControlType>
														<LowerBound>0</LowerBound>
														<UpperBound>32768</UpperBound>
														<value>-91445760000000000,0.,0,0,0,0,0,0</value>
													</parameter>
													<parameter authoringApp="PremierePro">
														<parameterid>12</parameterid>
														<name> </name>
														<IsTimeVarying>false</IsTimeVarying>
														<ParameterControlType>8</ParameterControlType>
														<LowerBound>0</LowerBound>
														<UpperBound>32768</UpperBound>
														<value>-91445760000000000,0.,0,0,0,0,0,0</value>
													</parameter>
													<parameter authoringApp="PremierePro">
														<parameterid>13</parameterid>
														<name>start</name>
														<IsTimeVarying>false</IsTimeVarying>
														<ParameterControlType>8</ParameterControlType>
														<LowerBound>-100</LowerBound>
														<UpperBound>1000000000</UpperBound>
														<value>-91445760000000000,0.,0,0,0,0,0,0</value>
													</parameter>
													<parameter authoringApp="PremierePro">
														<parameterid>14</parameterid>
														<name>end</name>
														<IsTimeVarying>false</IsTimeVarying>
														<ParameterControlType>8</ParameterControlType>
														<LowerBound>-100</LowerBound>
														<UpperBound>1000000000</UpperBound>
														<value>-91445760000000000,0.,0,0,0,0,0,0</value>
													</parameter>
													<parameter authoringApp="PremierePro">
														<parameterid>15</parameterid>
														<name> </name>
														<IsTimeVarying>false</IsTimeVarying>
														<ParameterControlType>4</ParameterControlType>
														<LowerBound>false</LowerBound>
														<UpperBound>true</UpperBound>
														<value>-91445760000000000,false,0,0,0,0,0,0</value>
													</parameter>
													<parameter authoringApp="PremierePro">
														<parameterid>16</parameterid>
														<name> </name>
														<IsTimeVarying>false</IsTimeVarying>
														<ParameterControlType>4</ParameterControlType>
														<LowerBound>false</LowerBound>
														<UpperBound>true</UpperBound>
														<value>-91445760000000000,false,0,0,0,0,0,0</value>
													</parameter>
													<parameter authoringApp="PremierePro">
														<parameterid>17</parameterid>
														<name> </name>
														<IsTimeVarying>false</IsTimeVarying>
														<ParameterControlType>4</ParameterControlType>
														<LowerBound>false</LowerBound>
														<UpperBound>true</UpperBound>
														<value>-91445760000000000,false,0,0,0,0,0,0</value>
													</parameter>
													<parameter authoringApp="PremierePro">
														<parameterid>18</parameterid>
														<name> </name>
														<IsTimeVarying>false</IsTimeVarying>
														<ParameterControlType>4</ParameterControlType>
														<LowerBound>false</LowerBound>
														<UpperBound>true</UpperBound>
														<value>-91445760000000000,false,0,0,0,0,0,0</value>
													</parameter>
													<parameter authoringApp="PremierePro">
														<parameterid>19</parameterid>
														<name>Parent Width</name>
														<IsTimeVarying>false</IsTimeVarying>
														<ParameterControlType>2</ParameterControlType>
														<LowerBound>0</LowerBound>
														<UpperBound>20000</UpperBound>
														<value>-91445760000000000,0.,0,0,0,0,0,0</value>
													</parameter>
													<parameter authoringApp="PremierePro">
														<parameterid>20</parameterid>
														<name>Parent Height</name>
														<IsTimeVarying>false</IsTimeVarying>
														<ParameterControlType>2</ParameterControlType>
														<LowerBound>0</LowerBound>
														<UpperBound>20000</UpperBound>
														<value>-91445760000000000,0.,0,0,0,0,0,0</value>
													</parameter>
													<parameter authoringApp="PremierePro">
														<parameterid>21</parameterid>
														<name>Parent Rotation</name>
														<IsTimeVarying>false</IsTimeVarying>
														<ParameterControlType>3</ParameterControlType>
														<LowerBound>-32768</LowerBound>
														<UpperBound>32767</UpperBound>
														<value>-91445760000000000,0.,0,0,0,0,0,0</value>
													</parameter>
												</effect>
											</filter>
											<logginginfo>
												<description></description>
												<scene></scene>
												<shottake></shottake>
												<lognote></lognote>
												<good></good>
												<originalvideofilename></originalvideofilename>
												<originalaudiofilename></originalaudiofilename>
											</logginginfo>
											<colorinfo>
												<lut></lut>
												<lut1></lut1>
												<asc_sop></asc_sop>
												<asc_sat></asc_sat>
												<lut2></lut2>
											</colorinfo>
										</clipitem>
										<enabled>TRUE</enabled>
										<locked>FALSE</locked>
									</track>
									<track TL.SQTrackShy="0" TL.SQTrackExpandedHeight="25" TL.SQTrackExpanded="0" MZ.TrackTargeted="0">
										<transitionitem>
											<start>167</start>
											<end>224</end>
											<alignment>start-black</alignment>
											<cutPointTicks>0</cutPointTicks>
											<rate>
												<timebase>25</timebase>
												<ntsc>FALSE</ntsc>
											</rate>
											<effect>
												<name>Edge Wipe</name>
												<effectid>Edge Wipe</effectid>
												<effectcategory>Wipe</effectcategory>
												<effecttype>transition</effecttype>
												<mediatype>video</mediatype>
												<wipecode>2</wipecode>
												<wipeaccuracy>100</wipeaccuracy>
												<startratio>0</startratio>
												<endratio>1</endratio>
												<reverse>FALSE</reverse>
												<parameter authoringApp="PremierePro">
													<parameterid>directionofwipe</parameterid>
													<name>Angle</name>
													<valuemin>-360</valuemin>
													<valuemax>360</valuemax>
													<value>90</value>
												</parameter>
											</effect>
										</transitionitem>
										<clipitem id="clipitem-722">
											<masterclipid>masterclip-337</masterclipid>
											<name>9.png</name>
											<enabled>TRUE</enabled>
											<duration>1080000</duration>
											<rate>
												<timebase>25</timebase>
												<ntsc>FALSE</ntsc>
											</rate>
											<start>-1</start>
											<end>-1</end>
											<in>90042</in>
											<out>90225</out>
											<pproTicksIn>914884346880000</pproTicksIn>
											<pproTicksOut>916743744000000</pproTicksOut>
											<alphatype>straight</alphatype>
											<pixelaspectratio>square</pixelaspectratio>
											<anamorphic>FALSE</anamorphic>
											<file id="file-290">
												<name>1.png</name>
												<pathurl>file://localhost/_MUZ_TV/project_AP/RU/_TITLE/END/1.png</pathurl>
												<rate>
													<timebase>30</timebase>
													<ntsc>TRUE</ntsc>
												</rate>
												<timecode>
													<rate>
														<timebase>30</timebase>
														<ntsc>TRUE</ntsc>
													</rate>
													<string>00;00;00;00</string>
													<frame>0</frame>
													<displayformat>DF</displayformat>
												</timecode>
												<media>
													<video>
														<samplecharacteristics>
															<rate>
																<timebase>30</timebase>
																<ntsc>TRUE</ntsc>
															</rate>
															<width>1920</width>
															<height>1080</height>
															<anamorphic>FALSE</anamorphic>
															<pixelaspectratio>square</pixelaspectratio>
															<fielddominance>none</fielddominance>
														</samplecharacteristics>
													</video>
												</media>
											</file>
											<filter>
												<effect>
													<name>Basic Motion</name>
													<effectid>basic</effectid>
													<effectcategory>motion</effectcategory>
													<effecttype>motion</effecttype>
													<mediatype>video</mediatype>
													<pproBypass>false</pproBypass>
													<parameter authoringApp="PremierePro">
														<parameterid>scale</parameterid>
														<name>Scale</name>
														<valuemin>0</valuemin>
														<valuemax>1000</valuemax>
														<value>53.3333</value>
													</parameter>
													<parameter authoringApp="PremierePro">
														<parameterid>rotation</parameterid>
														<name>Rotation</name>
														<valuemin>-8640</valuemin>
														<valuemax>8640</valuemax>
														<value>0</value>
													</parameter>
													<parameter authoringApp="PremierePro">
														<parameterid>center</parameterid>
														<name>Center</name>
														<value>
															<horiz>0</horiz>
															<vert>-0.00185184</vert>
														</value>
													</parameter>
													<parameter authoringApp="PremierePro">
														<parameterid>centerOffset</parameterid>
														<name>Anchor Point</name>
														<value>
															<horiz>0</horiz>
															<vert>0</vert>
														</value>
													</parameter>
													<parameter authoringApp="PremierePro">
														<parameterid>antiflicker</parameterid>
														<name>Anti-flicker Filter</name>
														<valuemin>0.0</valuemin>
														<valuemax>1.0</valuemax>
														<value>0</value>
													</parameter>
												</effect>
											</filter>
											<logginginfo>
												<description></description>
												<scene></scene>
												<shottake></shottake>
												<lognote></lognote>
												<good></good>
												<originalvideofilename></originalvideofilename>
												<originalaudiofilename></originalaudiofilename>
											</logginginfo>
											<colorinfo>
												<lut></lut>
												<lut1></lut1>
												<asc_sop></asc_sop>
												<asc_sat></asc_sat>
												<lut2></lut2>
											</colorinfo>
											<labels>
												<label2>Lavender</label2>
											</labels>
										</clipitem>
										<transitionitem>
											<start>328</start>
											<end>350</end>
											<alignment>end-black</alignment>
											<cutPointTicks>223534080000</cutPointTicks>
											<rate>
												<timebase>25</timebase>
												<ntsc>FALSE</ntsc>
											</rate>
											<effect>
												<name>Edge Wipe</name>
												<effectid>Edge Wipe</effectid>
												<effectcategory>Wipe</effectcategory>
												<effecttype>transition</effecttype>
												<mediatype>video</mediatype>
												<wipecode>2</wipecode>
												<wipeaccuracy>100</wipeaccuracy>
												<startratio>0</startratio>
												<endratio>1</endratio>
												<reverse>FALSE</reverse>
												<parameter authoringApp="PremierePro">
													<parameterid>directionofwipe</parameterid>
													<name>Angle</name>
													<valuemin>-360</valuemin>
													<valuemax>360</valuemax>
													<value>90</value>
												</parameter>
											</effect>
										</transitionitem>
										<enabled>TRUE</enabled>
										<locked>FALSE</locked>
									</track>
									<track TL.SQTrackShy="0" TL.SQTrackExpandedHeight="25" TL.SQTrackExpanded="0" MZ.TrackTargeted="0">
										<transitionitem>
											<start>167</start>
											<end>224</end>
											<alignment>start-black</alignment>
											<cutPointTicks>0</cutPointTicks>
											<rate>
												<timebase>25</timebase>
												<ntsc>FALSE</ntsc>
											</rate>
											<effect>
												<name>Edge Wipe</name>
												<effectid>Edge Wipe</effectid>
												<effectcategory>Wipe</effectcategory>
												<effecttype>transition</effecttype>
												<mediatype>video</mediatype>
												<wipecode>2</wipecode>
												<wipeaccuracy>100</wipeaccuracy>
												<startratio>0</startratio>
												<endratio>1</endratio>
												<reverse>FALSE</reverse>
												<parameter authoringApp="PremierePro">
													<parameterid>directionofwipe</parameterid>
													<name>Angle</name>
													<valuemin>-360</valuemin>
													<valuemax>360</valuemax>
													<value>90</value>
												</parameter>
											</effect>
										</transitionitem>
										<clipitem id="clipitem-723">
											<masterclipid>masterclip-338</masterclipid>
											<name>Graphic</name>
											<enabled>FALSE</enabled>
											<duration>1080000</duration>
											<rate>
												<timebase>25</timebase>
												<ntsc>FALSE</ntsc>
											</rate>
											<start>-1</start>
											<end>-1</end>
											<in>89998</in>
											<out>90181</out>
											<pproTicksIn>914437278720000</pproTicksIn>
											<pproTicksOut>916296675840000</pproTicksOut>
											<alphatype>straight</alphatype>
											<pixelaspectratio>PAL-601</pixelaspectratio>
											<anamorphic>TRUE</anamorphic>
											<file id="file-291">
												<name>Graphic</name>
												<mediaSource>GraphicAndType</mediaSource>
												<rate>
													<timebase>30</timebase>
													<ntsc>TRUE</ntsc>
												</rate>
												<timecode>
													<rate>
														<timebase>30</timebase>
														<ntsc>TRUE</ntsc>
													</rate>
													<string>00;00;00;00</string>
													<frame>0</frame>
													<displayformat>DF</displayformat>
												</timecode>
												<media>
													<video>
														<samplecharacteristics>
															<rate>
																<timebase>30</timebase>
																<ntsc>TRUE</ntsc>
															</rate>
															<width>720</width>
															<height>576</height>
															<anamorphic>TRUE</anamorphic>
															<pixelaspectratio>PAL-601</pixelaspectratio>
															<fielddominance>none</fielddominance>
														</samplecharacteristics>
													</video>
												</media>
											</file>
											<filter>
												<effect>
													<name>АРТУР ПИРОЖКОВ&#13;ЛЕТОМ НА ФИЕСТЕ</name>
													<effectid>GraphicAndType</effectid>
													<effectcategory>graphic</effectcategory>
													<effecttype>filter</effecttype>
													<mediatype>video</mediatype>
													<pproBypass>false</pproBypass>
													<pproExpanded>true</pproExpanded>
													<parameter authoringApp="PremierePro">
														<parameterid>1</parameterid>
														<name>Source Text</name>
														<hash>dc092258-f6b9-fd91-a76f-c3e700000476</hash>
													</parameter>
													<parameter authoringApp="PremierePro">
														<parameterid>2</parameterid>
														<name>Transform</name>
														<IsTimeVarying>false</IsTimeVarying>
														<ParameterControlType>11</ParameterControlType>
														<LowerBound>false</LowerBound>
														<UpperBound>false</UpperBound>
														<value>-91445760000000000,false,0,0,0,0,0,0</value>
													</parameter>
													<parameter authoringApp="PremierePro">
														<parameterid>3</parameterid>
														<name>Position</name>
														<IsTimeVarying>false</IsTimeVarying>
														<value>-91445760000000000,0.36944580078125:0.86468505859375,0,0,0,0,0,0,5,4,0,0,0,0</value>
													</parameter>
													<parameter authoringApp="PremierePro">
														<parameterid>4</parameterid>
														<name>Scale</name>
														<IsTimeVarying>false</IsTimeVarying>
														<ParameterControlType>2</ParameterControlType>
														<LowerBound>0</LowerBound>
														<UpperBound>4000</UpperBound>
														<value>-91445760000000000,100.,0,0,0,0,0,0</value>
													</parameter>
													<parameter authoringApp="PremierePro">
														<parameterid>5</parameterid>
														<name>Horizontal Scale</name>
														<IsTimeVarying>false</IsTimeVarying>
														<ParameterControlType>2</ParameterControlType>
														<LowerBound>0</LowerBound>
														<UpperBound>4000</UpperBound>
														<value>-91445760000000000,100.,0,0,0,0,0,0</value>
													</parameter>
													<parameter authoringApp="PremierePro">
														<parameterid>6</parameterid>
														<name> </name>
														<IsTimeVarying>false</IsTimeVarying>
														<ParameterControlType>4</ParameterControlType>
														<LowerBound>false</LowerBound>
														<UpperBound>true</UpperBound>
														<value>-91445760000000000,true,0,0,0,0,0,0</value>
													</parameter>
													<parameter authoringApp="PremierePro">
														<parameterid>7</parameterid>
														<name>Rotation</name>
														<IsTimeVarying>false</IsTimeVarying>
														<ParameterControlType>3</ParameterControlType>
														<LowerBound>-32768</LowerBound>
														<UpperBound>32767</UpperBound>
														<value>-91445760000000000,0.,0,0,0,0,0,0</value>
													</parameter>
													<parameter authoringApp="PremierePro">
														<parameterid>8</parameterid>
														<name>Opacity</name>
														<IsTimeVarying>false</IsTimeVarying>
														<ParameterControlType>2</ParameterControlType>
														<LowerBound>0</LowerBound>
														<UpperBound>100</UpperBound>
														<value>-91445760000000000,100.,0,0,0,0,0,0</value>
													</parameter>
													<parameter authoringApp="PremierePro">
														<parameterid>9</parameterid>
														<name>Anchor Point</name>
														<IsTimeVarying>false</IsTimeVarying>
														<value>-91445760000000000,0:0,0,0,0,0,0,0,5,4,0,0,0,0</value>
													</parameter>
													<parameter authoringApp="PremierePro">
														<parameterid>10</parameterid>
														<name></name>
														<IsTimeVarying>false</IsTimeVarying>
														<ParameterControlType>12</ParameterControlType>
														<LowerBound>false</LowerBound>
														<UpperBound>false</UpperBound>
														<value>-91445760000000000,false,0,0,0,0,0,0</value>
													</parameter>
													<parameter authoringApp="PremierePro">
														<parameterid>11</parameterid>
														<name> </name>
														<IsTimeVarying>false</IsTimeVarying>
														<ParameterControlType>8</ParameterControlType>
														<LowerBound>0</LowerBound>
														<UpperBound>32768</UpperBound>
														<value>-91445760000000000,0.,0,0,0,0,0,0</value>
													</parameter>
													<parameter authoringApp="PremierePro">
														<parameterid>12</parameterid>
														<name> </name>
														<IsTimeVarying>false</IsTimeVarying>
														<ParameterControlType>8</ParameterControlType>
														<LowerBound>0</LowerBound>
														<UpperBound>32768</UpperBound>
														<value>-91445760000000000,0.,0,0,0,0,0,0</value>
													</parameter>
													<parameter authoringApp="PremierePro">
														<parameterid>13</parameterid>
														<name>start</name>
														<IsTimeVarying>false</IsTimeVarying>
														<ParameterControlType>8</ParameterControlType>
														<LowerBound>-100</LowerBound>
														<UpperBound>1000000000</UpperBound>
														<value>-91445760000000000,30.,0,0,0,0,0,0</value>
													</parameter>
													<parameter authoringApp="PremierePro">
														<parameterid>14</parameterid>
														<name>end</name>
														<IsTimeVarying>false</IsTimeVarying>
														<ParameterControlType>8</ParameterControlType>
														<LowerBound>-100</LowerBound>
														<UpperBound>1000000000</UpperBound>
														<value>-91445760000000000,30.,0,0,0,0,0,0</value>
													</parameter>
													<parameter authoringApp="PremierePro">
														<parameterid>15</parameterid>
														<name> </name>
														<IsTimeVarying>false</IsTimeVarying>
														<ParameterControlType>4</ParameterControlType>
														<LowerBound>false</LowerBound>
														<UpperBound>true</UpperBound>
														<value>-91445760000000000,false,0,0,0,0,0,0</value>
													</parameter>
													<parameter authoringApp="PremierePro">
														<parameterid>16</parameterid>
														<name> </name>
														<IsTimeVarying>false</IsTimeVarying>
														<ParameterControlType>4</ParameterControlType>
														<LowerBound>false</LowerBound>
														<UpperBound>true</UpperBound>
														<value>-91445760000000000,false,0,0,0,0,0,0</value>
													</parameter>
													<parameter authoringApp="PremierePro">
														<parameterid>17</parameterid>
														<name> </name>
														<IsTimeVarying>false</IsTimeVarying>
														<ParameterControlType>4</ParameterControlType>
														<LowerBound>false</LowerBound>
														<UpperBound>true</UpperBound>
														<value>-91445760000000000,false,0,0,0,0,0,0</value>
													</parameter>
													<parameter authoringApp="PremierePro">
														<parameterid>18</parameterid>
														<name> </name>
														<IsTimeVarying>false</IsTimeVarying>
														<ParameterControlType>4</ParameterControlType>
														<LowerBound>false</LowerBound>
														<UpperBound>true</UpperBound>
														<value>-91445760000000000,false,0,0,0,0,0,0</value>
													</parameter>
													<parameter authoringApp="PremierePro">
														<parameterid>19</parameterid>
														<name>Parent Width</name>
														<IsTimeVarying>false</IsTimeVarying>
														<ParameterControlType>2</ParameterControlType>
														<LowerBound>0</LowerBound>
														<UpperBound>20000</UpperBound>
														<value>-91445760000000000,0.,0,0,0,0,0,0</value>
													</parameter>
													<parameter authoringApp="PremierePro">
														<parameterid>20</parameterid>
														<name>Parent Height</name>
														<IsTimeVarying>false</IsTimeVarying>
														<ParameterControlType>2</ParameterControlType>
														<LowerBound>0</LowerBound>
														<UpperBound>20000</UpperBound>
														<value>-91445760000000000,0.,0,0,0,0,0,0</value>
													</parameter>
													<parameter authoringApp="PremierePro">
														<parameterid>21</parameterid>
														<name>Parent Rotation</name>
														<IsTimeVarying>false</IsTimeVarying>
														<ParameterControlType>3</ParameterControlType>
														<LowerBound>-32768</LowerBound>
														<UpperBound>32767</UpperBound>
														<value>-91445760000000000,0.,0,0,0,0,0,0</value>
													</parameter>
												</effect>
											</filter>
											<logginginfo>
												<description></description>
												<scene></scene>
												<shottake></shottake>
												<lognote></lognote>
												<good></good>
												<originalvideofilename></originalvideofilename>
												<originalaudiofilename></originalaudiofilename>
											</logginginfo>
											<colorinfo>
												<lut></lut>
												<lut1></lut1>
												<asc_sop></asc_sop>
												<asc_sat></asc_sat>
												<lut2></lut2>
											</colorinfo>
										</clipitem>
										<transitionitem>
											<start>328</start>
											<end>350</end>
											<alignment>end-black</alignment>
											<cutPointTicks>223534080000</cutPointTicks>
											<rate>
												<timebase>25</timebase>
												<ntsc>FALSE</ntsc>
											</rate>
											<effect>
												<name>Edge Wipe</name>
												<effectid>Edge Wipe</effectid>
												<effectcategory>Wipe</effectcategory>
												<effecttype>transition</effecttype>
												<mediatype>video</mediatype>
												<wipecode>2</wipecode>
												<wipeaccuracy>100</wipeaccuracy>
												<startratio>0</startratio>
												<endratio>1</endratio>
												<reverse>FALSE</reverse>
												<parameter authoringApp="PremierePro">
													<parameterid>directionofwipe</parameterid>
													<name>Angle</name>
													<valuemin>-360</valuemin>
													<valuemax>360</valuemax>
													<value>90</value>
												</parameter>
											</effect>
										</transitionitem>
										<enabled>TRUE</enabled>
										<locked>FALSE</locked>
									</track>
								</video>
								<audio>
									<numOutputChannels>2</numOutputChannels>
									<format>
										<samplecharacteristics>
											<depth>16</depth>
											<samplerate>48000</samplerate>
										</samplecharacteristics>
									</format>
									<outputs>
										<group>
											<index>1</index>
											<numchannels>1</numchannels>
											<downmix>0</downmix>
											<channel>
												<index>1</index>
											</channel>
										</group>
										<group>
											<index>2</index>
											<numchannels>1</numchannels>
											<downmix>0</downmix>
											<channel>
												<index>2</index>
											</channel>
										</group>
									</outputs>
									<track TL.SQTrackAudioKeyframeStyle="0" TL.SQTrackShy="0" TL.SQTrackExpandedHeight="25" TL.SQTrackExpanded="0" MZ.TrackTargeted="1" PannerCurrentValue="0.5" PannerStartKeyframe="-91445760000000000,0.5,0,0,0,0,0,0" PannerName="Balance" currentExplodedTrackIndex="0" totalExplodedTrackCount="2" premiereTrackType="Stereo">
										<enabled>TRUE</enabled>
										<locked>FALSE</locked>
										<outputchannelindex>1</outputchannelindex>
									</track>
									<track TL.SQTrackAudioKeyframeStyle="0" TL.SQTrackShy="0" TL.SQTrackExpandedHeight="25" TL.SQTrackExpanded="0" MZ.TrackTargeted="1" PannerCurrentValue="0.5" PannerStartKeyframe="-91445760000000000,0.5,0,0,0,0,0,0" PannerName="Balance" currentExplodedTrackIndex="1" totalExplodedTrackCount="2" premiereTrackType="Stereo">
										<enabled>TRUE</enabled>
										<locked>FALSE</locked>
										<outputchannelindex>2</outputchannelindex>
									</track>
								</audio>
							</media>
							<timecode>
								<rate>
									<timebase>25</timebase>
									<ntsc>FALSE</ntsc>
								</rate>
								<string>00:00:00:00</string>
								<frame>0</frame>
								<displayformat>NDF</displayformat>
							</timecode>
								<marker>
									<comment></comment>
									<name></name>
									<in>125</in>
									<out>-1</out>
									<pproColor>4280578025</pproColor>
								</marker>
							<logginginfo>
								<description></description>
								<scene></scene>
								<shottake></shottake>
								<lognote></lognote>
								<good></good>
								<originalvideofilename></originalvideofilename>
								<originalaudiofilename></originalaudiofilename>
							</logginginfo>
						</sequence>
							<marker>
								<comment></comment>
								<name></name>
								<in>125</in>
								<out>-1</out>
								<pproColor>4280578025</pproColor>
							</marker>
						<labels>
							<label2>Forest</label2>
						</labels>
					</clipitem>
					<clipitem id="clipitem-724">
						<masterclipid>masterclip-334</masterclipid>
						<name>1</name>
						<enabled>TRUE</enabled>
						<duration>475</duration>
						<rate>
							<timebase>25</timebase>
							<ntsc>FALSE</ntsc>
						</rate>
						<start>64766</start>
						<end>65117</end>
						<in>124</in>
						<out>475</out>
						<pproTicksIn>1259919360000</pproTicksIn>
						<pproTicksOut>4826304000000</pproTicksOut>
						<sequence id="sequence-51"/>
							<marker>
								<comment></comment>
								<name></name>
								<in>125</in>
								<out>-1</out>
								<pproColor>4280578025</pproColor>
							</marker>
						<labels>
							<label2>Forest</label2>
						</labels>
					</clipitem>
					<clipitem id="clipitem-725">
						<masterclipid>masterclip-273</masterclipid>
						<name>титр</name>
						<enabled>TRUE</enabled>
						<duration>225</duration>
						<rate>
							<timebase>25</timebase>
							<ntsc>FALSE</ntsc>
						</rate>
						<start>65499</start>
						<end>65670</end>
						<in>0</in>
						<out>171</out>
						<pproTicksIn>0</pproTicksIn>
						<pproTicksOut>1737469440000</pproTicksOut>
						<sequence id="sequence-37"/>
						<filter>
							<effect>
								<name>Opacity</name>
								<effectid>opacity</effectid>
								<effectcategory>motion</effectcategory>
								<effecttype>motion</effecttype>
								<mediatype>video</mediatype>
								<pproBypass>false</pproBypass>
								<parameter authoringApp="PremierePro">
									<parameterid>opacity</parameterid>
									<name>opacity</name>
									<valuemin>0</valuemin>
									<valuemax>100</valuemax>
									<value>100</value>
								</parameter>
							</effect>
						</filter>
							<marker>
								<comment></comment>
								<name></name>
								<in>57</in>
								<out>-1</out>
								<pproColor>4294741314</pproColor>
							</marker>
						<labels>
							<label2>Forest</label2>
						</labels>
					</clipitem>
					<transitionitem>
						<start>65941</start>
						<end>65954</end>
						<alignment>start-black</alignment>
						<cutPointTicks>0</cutPointTicks>
						<rate>
							<timebase>25</timebase>
							<ntsc>FALSE</ntsc>
						</rate>
						<effect>
							<name>Cross Dissolve</name>
							<effectid>Cross Dissolve</effectid>
							<effectcategory>Dissolve</effectcategory>
							<effecttype>transition</effecttype>
							<mediatype>video</mediatype>
							<wipecode>0</wipecode>
							<wipeaccuracy>100</wipeaccuracy>
							<startratio>0</startratio>
							<endratio>1</endratio>
							<reverse>FALSE</reverse>
						</effect>
					</transitionitem>
					<clipitem id="clipitem-726">
						<masterclipid>masterclip-339</masterclipid>
						<name>Graphic</name>
						<enabled>TRUE</enabled>
						<duration>1080000</duration>
						<rate>
							<timebase>25</timebase>
							<ntsc>FALSE</ntsc>
						</rate>
						<start>-1</start>
						<end>66000</end>
						<in>90066</in>
						<out>90125</out>
						<pproTicksIn>915128202240000</pproTicksIn>
						<pproTicksOut>915727680000000</pproTicksOut>
						<alphatype>straight</alphatype>
						<pixelaspectratio>PAL-601</pixelaspectratio>
						<anamorphic>TRUE</anamorphic>
						<file id="file-292">
							<name>Graphic</name>
							<mediaSource>GraphicAndType</mediaSource>
							<rate>
								<timebase>30</timebase>
								<ntsc>TRUE</ntsc>
							</rate>
							<timecode>
								<rate>
									<timebase>30</timebase>
									<ntsc>TRUE</ntsc>
								</rate>
								<string>00;00;00;00</string>
								<frame>0</frame>
								<displayformat>DF</displayformat>
							</timecode>
							<media>
								<video>
									<samplecharacteristics>
										<rate>
											<timebase>30</timebase>
											<ntsc>TRUE</ntsc>
										</rate>
										<width>720</width>
										<height>576</height>
										<anamorphic>TRUE</anamorphic>
										<pixelaspectratio>PAL-601</pixelaspectratio>
										<fielddominance>none</fielddominance>
									</samplecharacteristics>
								</video>
							</media>
						</file>
						<filter>
							<effect>
								<name>©  ООО «Муз ТВ Операционная компания»</name>
								<effectid>GraphicAndType</effectid>
								<effectcategory>graphic</effectcategory>
								<effecttype>filter</effecttype>
								<mediatype>video</mediatype>
								<pproBypass>false</pproBypass>
								<pproExpanded>true</pproExpanded>
								<parameter authoringApp="PremierePro">
									<parameterid>1</parameterid>
									<name>Source Text</name>
									<hash>23fe30ae-95d8-0f51-d4ad-465000000220</hash>
									<value>CAIAAAAAAABEMyIRGAAAAAAAAAAAAA4AGAAEABcADAAQAAsADgAAAEAAAAAAAAABDAAAABQAAAAAAAABAAAAAAgAGAAEAAwACAAAACC5nj4BLdw/n7QkpQAAA4kAAAAACAAMAAgABAAIAAAAGAAAACwAAAD4/////P///wQABAAEAAAAAQAAAAQAAAALAAAASGVsaW9zLUJvbGQAAQAAAAwAAAAIAAwABAAIAAgAAAAYAQAANAAAADAAGgAAABQAEAAAAAwAAAAIAAAAAAAAAAAAAAAAAAAAAAAAAAAAAAAAAAAAAAAEADAAAAAgAAAAmpmZP7gAAADIAAAAAACQQQAACgAMAAAACAAEAAoAAAAIAAAAPAAAAAIAAAAsAAAAEAAAAAAACgAOAAAABAAIAAoAAAAAAIA/AAAAPwAACgAIAAAAAAAEAAoAAAAAAAA/AgAAADgAAAAQAAAAAAAKABAABAAIAAwACgAAABAAAAAAAIA/AAAAPwQABgAEAAAAAAAKAAwABAAAAAgACgAAAAgAAAAAAAA/9v///wAAAOXl5QoACgAHAAgACQAKAAAAAAAA5eXlCgAIAAUABgAHAAoAAAAA3d3dRAAAAMKpICDQntCe0J4gwqvQnNGD0Lcg0KLQkiDQntC/0LXRgNCw0YbQuNC+0L3QvdCw0Y8g0LrQvtC80L/QsNC90LjRj8K7AAAAAA==</value>
								</parameter>
								<parameter authoringApp="PremierePro">
									<parameterid>2</parameterid>
									<name>Transform</name>
									<IsTimeVarying>false</IsTimeVarying>
									<ParameterControlType>11</ParameterControlType>
									<LowerBound>false</LowerBound>
									<UpperBound>false</UpperBound>
									<value>-91445760000000000,false,0,0,0,0,0,0</value>
								</parameter>
								<parameter authoringApp="PremierePro">
									<parameterid>3</parameterid>
									<name>Position</name>
									<IsTimeVarying>false</IsTimeVarying>
									<value>-91445760000000000,0.53887939453125:0.901458740234375,0,0,0,0,0,0,5,4,0,0,0,0</value>
								</parameter>
								<parameter authoringApp="PremierePro">
									<parameterid>4</parameterid>
									<name>Scale</name>
									<IsTimeVarying>false</IsTimeVarying>
									<ParameterControlType>2</ParameterControlType>
									<LowerBound>0</LowerBound>
									<UpperBound>4000</UpperBound>
									<value>-91445760000000000,100.,0,0,0,0,0,0</value>
								</parameter>
								<parameter authoringApp="PremierePro">
									<parameterid>5</parameterid>
									<name>Horizontal Scale</name>
									<IsTimeVarying>false</IsTimeVarying>
									<ParameterControlType>2</ParameterControlType>
									<LowerBound>0</LowerBound>
									<UpperBound>4000</UpperBound>
									<value>-91445760000000000,100.,0,0,0,0,0,0</value>
								</parameter>
								<parameter authoringApp="PremierePro">
									<parameterid>6</parameterid>
									<name> </name>
									<IsTimeVarying>false</IsTimeVarying>
									<ParameterControlType>4</ParameterControlType>
									<LowerBound>false</LowerBound>
									<UpperBound>true</UpperBound>
									<value>-91445760000000000,true,0,0,0,0,0,0</value>
								</parameter>
								<parameter authoringApp="PremierePro">
									<parameterid>7</parameterid>
									<name>Rotation</name>
									<IsTimeVarying>false</IsTimeVarying>
									<ParameterControlType>3</ParameterControlType>
									<LowerBound>-32768</LowerBound>
									<UpperBound>32767</UpperBound>
									<value>-91445760000000000,0.,0,0,0,0,0,0</value>
								</parameter>
								<parameter authoringApp="PremierePro">
									<parameterid>8</parameterid>
									<name>Opacity</name>
									<IsTimeVarying>false</IsTimeVarying>
									<ParameterControlType>2</ParameterControlType>
									<LowerBound>0</LowerBound>
									<UpperBound>100</UpperBound>
									<value>-91445760000000000,100.,0,0,0,0,0,0</value>
								</parameter>
								<parameter authoringApp="PremierePro">
									<parameterid>9</parameterid>
									<name>Anchor Point</name>
									<IsTimeVarying>false</IsTimeVarying>
									<value>-91445760000000000,0:0,0,0,0,0,0,0,5,4,0,0,0,0</value>
								</parameter>
								<parameter authoringApp="PremierePro">
									<parameterid>10</parameterid>
									<name></name>
									<IsTimeVarying>false</IsTimeVarying>
									<ParameterControlType>12</ParameterControlType>
									<LowerBound>false</LowerBound>
									<UpperBound>false</UpperBound>
									<value>-91445760000000000,false,0,0,0,0,0,0</value>
								</parameter>
								<parameter authoringApp="PremierePro">
									<parameterid>11</parameterid>
									<name> </name>
									<IsTimeVarying>false</IsTimeVarying>
									<ParameterControlType>8</ParameterControlType>
									<LowerBound>0</LowerBound>
									<UpperBound>32768</UpperBound>
									<value>-91445760000000000,0.,0,0,0,0,0,0</value>
								</parameter>
								<parameter authoringApp="PremierePro">
									<parameterid>12</parameterid>
									<name> </name>
									<IsTimeVarying>false</IsTimeVarying>
									<ParameterControlType>8</ParameterControlType>
									<LowerBound>0</LowerBound>
									<UpperBound>32768</UpperBound>
									<value>-91445760000000000,0.,0,0,0,0,0,0</value>
								</parameter>
								<parameter authoringApp="PremierePro">
									<parameterid>13</parameterid>
									<name>start</name>
									<IsTimeVarying>false</IsTimeVarying>
									<ParameterControlType>8</ParameterControlType>
									<LowerBound>-100</LowerBound>
									<UpperBound>1000000000</UpperBound>
									<value>-91445760000000000,-1.,0,0,0,0,0,0</value>
								</parameter>
								<parameter authoringApp="PremierePro">
									<parameterid>14</parameterid>
									<name>end</name>
									<IsTimeVarying>false</IsTimeVarying>
									<ParameterControlType>8</ParameterControlType>
									<LowerBound>-100</LowerBound>
									<UpperBound>1000000000</UpperBound>
									<value>-91445760000000000,-1.,0,0,0,0,0,0</value>
								</parameter>
								<parameter authoringApp="PremierePro">
									<parameterid>15</parameterid>
									<name> </name>
									<IsTimeVarying>false</IsTimeVarying>
									<ParameterControlType>4</ParameterControlType>
									<LowerBound>false</LowerBound>
									<UpperBound>true</UpperBound>
									<value>-91445760000000000,false,0,0,0,0,0,0</value>
								</parameter>
								<parameter authoringApp="PremierePro">
									<parameterid>16</parameterid>
									<name> </name>
									<IsTimeVarying>false</IsTimeVarying>
									<ParameterControlType>4</ParameterControlType>
									<LowerBound>false</LowerBound>
									<UpperBound>true</UpperBound>
									<value>-91445760000000000,false,0,0,0,0,0,0</value>
								</parameter>
								<parameter authoringApp="PremierePro">
									<parameterid>17</parameterid>
									<name> </name>
									<IsTimeVarying>false</IsTimeVarying>
									<ParameterControlType>4</ParameterControlType>
									<LowerBound>false</LowerBound>
									<UpperBound>true</UpperBound>
									<value>-91445760000000000,false,0,0,0,0,0,0</value>
								</parameter>
								<parameter authoringApp="PremierePro">
									<parameterid>18</parameterid>
									<name> </name>
									<IsTimeVarying>false</IsTimeVarying>
									<ParameterControlType>4</ParameterControlType>
									<LowerBound>false</LowerBound>
									<UpperBound>true</UpperBound>
									<value>-91445760000000000,false,0,0,0,0,0,0</value>
								</parameter>
								<parameter authoringApp="PremierePro">
									<parameterid>19</parameterid>
									<name>Parent Width</name>
									<IsTimeVarying>false</IsTimeVarying>
									<ParameterControlType>2</ParameterControlType>
									<LowerBound>0</LowerBound>
									<UpperBound>20000</UpperBound>
									<value>-91445760000000000,0.,0,0,0,0,0,0</value>
								</parameter>
								<parameter authoringApp="PremierePro">
									<parameterid>20</parameterid>
									<name>Parent Height</name>
									<IsTimeVarying>false</IsTimeVarying>
									<ParameterControlType>2</ParameterControlType>
									<LowerBound>0</LowerBound>
									<UpperBound>20000</UpperBound>
									<value>-91445760000000000,0.,0,0,0,0,0,0</value>
								</parameter>
								<parameter authoringApp="PremierePro">
									<parameterid>21</parameterid>
									<name>Parent Rotation</name>
									<IsTimeVarying>false</IsTimeVarying>
									<ParameterControlType>3</ParameterControlType>
									<LowerBound>-32768</LowerBound>
									<UpperBound>32767</UpperBound>
									<value>-91445760000000000,0.,0,0,0,0,0,0</value>
								</parameter>
							</effect>
						</filter>
						<logginginfo>
							<description></description>
							<scene></scene>
							<shottake></shottake>
							<lognote></lognote>
							<good></good>
							<originalvideofilename></originalvideofilename>
							<originalaudiofilename></originalaudiofilename>
						</logginginfo>
						<colorinfo>
							<lut></lut>
							<lut1></lut1>
							<asc_sop></asc_sop>
							<asc_sat></asc_sat>
							<lut2></lut2>
						</colorinfo>
						<labels>
							<label2>Rose</label2>
						</labels>
					</clipitem>
					<enabled>TRUE</enabled>
					<locked>FALSE</locked>
				</track>
				<track TL.SQTrackShy="0" TL.SQTrackExpandedHeight="25" TL.SQTrackExpanded="0" MZ.TrackTargeted="0">
					<enabled>TRUE</enabled>
					<locked>FALSE</locked>
				</track>
				<track TL.SQTrackShy="0" TL.SQTrackExpandedHeight="25" TL.SQTrackExpanded="0" MZ.TrackTargeted="0">
					<clipitem id="clipitem-727">
						<masterclipid>masterclip-340</masterclipid>
						<name>12</name>
						<enabled>TRUE</enabled>
						<duration>1130</duration>
						<rate>
							<timebase>25</timebase>
							<ntsc>FALSE</ntsc>
						</rate>
						<start>2365</start>
						<end>2740</end>
						<in>0</in>
						<out>375</out>
						<pproTicksIn>0</pproTicksIn>
						<pproTicksOut>3810240000000</pproTicksOut>
						<sequence id="sequence-52" TL.SQAudioVisibleBase="0" TL.SQVideoVisibleBase="0" TL.SQVisibleBaseTime="11095418880000" TL.SQAVDividerPosition="0.5" TL.SQHideShyTracks="0" TL.SQHeaderWidth="236" Monitor.ProgramZoomOut="11481523200000" Monitor.ProgramZoomIn="0" TL.SQTimePerPixel="0.0013333333333333333" AM.TrackVScrollPosition="0" AM.TrackScrollPosition="0" MZ.EditLine="11471362560000" MZ.Sequence.PreviewFrameSizeHeight="576" MZ.Sequence.PreviewFrameSizeWidth="720" MZ.Sequence.AudioTimeDisplayFormat="200" MZ.Sequence.PreviewRenderingClassID="1061109567" MZ.Sequence.PreviewRenderingPresetCodec="1685480304" MZ.Sequence.PreviewRenderingPresetPath="EncoderPresets/SequencePreview/04be6e19-a018-4e0c-a9d6-0ab44c64752b/QuickTime DV PAL.epr" MZ.Sequence.PreviewUseMaxRenderQuality="false" MZ.Sequence.PreviewUseMaxBitDepth="false" MZ.Sequence.EditingModeGUID="04be6e19-a018-4e0c-a9d6-0ab44c64752b" MZ.Sequence.VideoTimeDisplayFormat="101" MZ.WorkOutPoint="11430720000000" MZ.WorkInPoint="0" MZ.ZeroPoint="0">
							<duration>1130</duration>
							<rate>
								<timebase>25</timebase>
								<ntsc>FALSE</ntsc>
							</rate>
							<name>RU_Nested</name>
							<media>
								<video>
									<format>
										<samplecharacteristics>
											<rate>
												<timebase>25</timebase>
												<ntsc>FALSE</ntsc>
											</rate>
											<codec>
												<name>Apple ProRes 422</name>
												<appspecificdata>
													<appname>Final Cut Pro</appname>
													<appmanufacturer>Apple Inc.</appmanufacturer>
													<appversion>7.0</appversion>
													<data>
														<qtcodec>
															<codecname>Apple ProRes 422</codecname>
															<codectypename>Apple ProRes 422</codectypename>
															<codectypecode>apcn</codectypecode>
															<codecvendorcode>appl</codecvendorcode>
															<spatialquality>1024</spatialquality>
															<temporalquality>0</temporalquality>
															<keyframerate>0</keyframerate>
															<datarate>0</datarate>
														</qtcodec>
													</data>
												</appspecificdata>
											</codec>
											<width>720</width>
											<height>576</height>
											<anamorphic>TRUE</anamorphic>
											<pixelaspectratio>PAL-601</pixelaspectratio>
											<fielddominance>lower</fielddominance>
											<colordepth>24</colordepth>
										</samplecharacteristics>
									</format>
									<track TL.SQTrackShy="0" TL.SQTrackExpandedHeight="25" TL.SQTrackExpanded="0" MZ.TrackTargeted="0">
										<clipitem id="clipitem-728">
											<masterclipid>masterclip-341</masterclipid>
											<name>Plashka_Right_DV.mov</name>
											<enabled>TRUE</enabled>
											<duration>375</duration>
											<rate>
												<timebase>25</timebase>
												<ntsc>FALSE</ntsc>
											</rate>
											<start>0</start>
											<end>375</end>
											<in>0</in>
											<out>375</out>
											<pproTicksIn>0</pproTicksIn>
											<pproTicksOut>3810240000000</pproTicksOut>
											<alphatype>straight</alphatype>
											<pixelaspectratio>PAL-601</pixelaspectratio>
											<anamorphic>TRUE</anamorphic>
											<file id="file-293">
												<name>Plashka_Right_DV.mov</name>
												<pathurl>file://localhost/Volumes/1Tb/_MUZ_TV/graphika/RU-21/MOD/Plashka_Right_DV.mov</pathurl>
												<rate>
													<timebase>25</timebase>
													<ntsc>FALSE</ntsc>
												</rate>
												<duration>375</duration>
												<timecode>
													<rate>
														<timebase>25</timebase>
														<ntsc>FALSE</ntsc>
													</rate>
													<string>00:00:15:10</string>
													<frame>385</frame>
													<displayformat>NDF</displayformat>
												</timecode>
												<media>
													<video>
														<samplecharacteristics>
															<rate>
																<timebase>25</timebase>
																<ntsc>FALSE</ntsc>
															</rate>
															<width>720</width>
															<height>576</height>
															<anamorphic>TRUE</anamorphic>
															<pixelaspectratio>PAL-601</pixelaspectratio>
															<fielddominance>lower</fielddominance>
														</samplecharacteristics>
													</video>
												</media>
											</file>
											<filter>
												<effect>
													<name>Basic Motion</name>
													<effectid>basic</effectid>
													<effectcategory>motion</effectcategory>
													<effecttype>motion</effecttype>
													<mediatype>video</mediatype>
													<pproBypass>false</pproBypass>
													<parameter authoringApp="PremierePro">
														<parameterid>scale</parameterid>
														<name>Scale</name>
														<valuemin>0</valuemin>
														<valuemax>1000</valuemax>
														<value>100</value>
													</parameter>
													<parameter authoringApp="PremierePro">
														<parameterid>rotation</parameterid>
														<name>Rotation</name>
														<valuemin>-8640</valuemin>
														<valuemax>8640</valuemax>
														<value>0</value>
													</parameter>
													<parameter authoringApp="PremierePro">
														<parameterid>center</parameterid>
														<name>Center</name>
														<value>
															<horiz>-5.55112e-17</horiz>
															<vert>-1.11022e-16</vert>
														</value>
													</parameter>
													<parameter authoringApp="PremierePro">
														<parameterid>centerOffset</parameterid>
														<name>Anchor Point</name>
														<value>
															<horiz>0.402314</horiz>
															<vert>0.41875</vert>
														</value>
													</parameter>
													<parameter authoringApp="PremierePro">
														<parameterid>antiflicker</parameterid>
														<name>Anti-flicker Filter</name>
														<valuemin>0.0</valuemin>
														<valuemax>1.0</valuemax>
														<value>0</value>
													</parameter>
												</effect>
											</filter>
											<filter>
												<effect>
													<name>Distort</name>
													<effectid>deformation</effectid>
													<effectcategory>motion</effectcategory>
													<effecttype>motion</effecttype>
													<mediatype>video</mediatype>
													<parameter authoringApp="PremierePro">
														<parameterid>aspect</parameterid>
														<name>Aspect</name>
														<valuemin>-10000</valuemin>
														<valuemax>10000</valuemax>
														<value>4.16667</value>
													</parameter>
												</effect>
											</filter>
											<logginginfo>
												<description></description>
												<scene></scene>
												<shottake></shottake>
												<lognote></lognote>
												<good></good>
												<originalvideofilename></originalvideofilename>
												<originalaudiofilename></originalaudiofilename>
											</logginginfo>
											<colorinfo>
												<lut></lut>
												<lut1></lut1>
												<asc_sop></asc_sop>
												<asc_sat></asc_sat>
												<lut2></lut2>
											</colorinfo>
											<labels>
												<label2>Violet</label2>
											</labels>
										</clipitem>
										<clipitem id="clipitem-729">
											<masterclipid>masterclip-341</masterclipid>
											<name>Plashka_Right_DV.mov</name>
											<enabled>TRUE</enabled>
											<duration>375</duration>
											<rate>
												<timebase>25</timebase>
												<ntsc>FALSE</ntsc>
											</rate>
											<start>375</start>
											<end>750</end>
											<in>0</in>
											<out>375</out>
											<pproTicksIn>0</pproTicksIn>
											<pproTicksOut>3810240000000</pproTicksOut>
											<alphatype>straight</alphatype>
											<file id="file-293"/>
											<filter>
												<effect>
													<name>Basic Motion</name>
													<effectid>basic</effectid>
													<effectcategory>motion</effectcategory>
													<effecttype>motion</effecttype>
													<mediatype>video</mediatype>
													<pproBypass>false</pproBypass>
													<parameter authoringApp="PremierePro">
														<parameterid>scale</parameterid>
														<name>Scale</name>
														<valuemin>0</valuemin>
														<valuemax>1000</valuemax>
														<value>100</value>
													</parameter>
													<parameter authoringApp="PremierePro">
														<parameterid>rotation</parameterid>
														<name>Rotation</name>
														<valuemin>-8640</valuemin>
														<valuemax>8640</valuemax>
														<value>0</value>
													</parameter>
													<parameter authoringApp="PremierePro">
														<parameterid>center</parameterid>
														<name>Center</name>
														<value>
															<horiz>-5.55112e-17</horiz>
															<vert>-1.11022e-16</vert>
														</value>
													</parameter>
													<parameter authoringApp="PremierePro">
														<parameterid>centerOffset</parameterid>
														<name>Anchor Point</name>
														<value>
															<horiz>0.402314</horiz>
															<vert>0.41875</vert>
														</value>
													</parameter>
													<parameter authoringApp="PremierePro">
														<parameterid>antiflicker</parameterid>
														<name>Anti-flicker Filter</name>
														<valuemin>0.0</valuemin>
														<valuemax>1.0</valuemax>
														<value>0</value>
													</parameter>
												</effect>
											</filter>
											<filter>
												<effect>
													<name>Distort</name>
													<effectid>deformation</effectid>
													<effectcategory>motion</effectcategory>
													<effecttype>motion</effecttype>
													<mediatype>video</mediatype>
													<parameter authoringApp="PremierePro">
														<parameterid>aspect</parameterid>
														<name>Aspect</name>
														<valuemin>-10000</valuemin>
														<valuemax>10000</valuemax>
														<value>25</value>
													</parameter>
												</effect>
											</filter>
											<logginginfo>
												<description></description>
												<scene></scene>
												<shottake></shottake>
												<lognote></lognote>
												<good></good>
												<originalvideofilename></originalvideofilename>
												<originalaudiofilename></originalaudiofilename>
											</logginginfo>
											<colorinfo>
												<lut></lut>
												<lut1></lut1>
												<asc_sop></asc_sop>
												<asc_sat></asc_sat>
												<lut2></lut2>
											</colorinfo>
											<labels>
												<label2>Violet</label2>
											</labels>
										</clipitem>
										<clipitem id="clipitem-730">
											<masterclipid>masterclip-341</masterclipid>
											<name>Plashka_Right_DV.mov</name>
											<enabled>TRUE</enabled>
											<duration>375</duration>
											<rate>
												<timebase>25</timebase>
												<ntsc>FALSE</ntsc>
											</rate>
											<start>755</start>
											<end>1130</end>
											<in>0</in>
											<out>375</out>
											<pproTicksIn>0</pproTicksIn>
											<pproTicksOut>3810240000000</pproTicksOut>
											<alphatype>straight</alphatype>
											<file id="file-293"/>
											<filter>
												<effect>
													<name>Basic Motion</name>
													<effectid>basic</effectid>
													<effectcategory>motion</effectcategory>
													<effecttype>motion</effecttype>
													<mediatype>video</mediatype>
													<pproBypass>false</pproBypass>
													<parameter authoringApp="PremierePro">
														<parameterid>scale</parameterid>
														<name>Scale</name>
														<valuemin>0</valuemin>
														<valuemax>1000</valuemax>
														<value>100</value>
													</parameter>
													<parameter authoringApp="PremierePro">
														<parameterid>rotation</parameterid>
														<name>Rotation</name>
														<valuemin>-8640</valuemin>
														<valuemax>8640</valuemax>
														<value>0</value>
													</parameter>
													<parameter authoringApp="PremierePro">
														<parameterid>center</parameterid>
														<name>Center</name>
														<value>
															<horiz>-5.55112e-17</horiz>
															<vert>-1.11022e-16</vert>
														</value>
													</parameter>
													<parameter authoringApp="PremierePro">
														<parameterid>centerOffset</parameterid>
														<name>Anchor Point</name>
														<value>
															<horiz>0.402314</horiz>
															<vert>0.41875</vert>
														</value>
													</parameter>
													<parameter authoringApp="PremierePro">
														<parameterid>antiflicker</parameterid>
														<name>Anti-flicker Filter</name>
														<valuemin>0.0</valuemin>
														<valuemax>1.0</valuemax>
														<value>0</value>
													</parameter>
												</effect>
											</filter>
											<filter>
												<effect>
													<name>Distort</name>
													<effectid>deformation</effectid>
													<effectcategory>motion</effectcategory>
													<effecttype>motion</effecttype>
													<mediatype>video</mediatype>
													<parameter authoringApp="PremierePro">
														<parameterid>aspect</parameterid>
														<name>Aspect</name>
														<valuemin>-10000</valuemin>
														<valuemax>10000</valuemax>
														<value>31.5789</value>
													</parameter>
												</effect>
											</filter>
											<logginginfo>
												<description></description>
												<scene></scene>
												<shottake></shottake>
												<lognote></lognote>
												<good></good>
												<originalvideofilename></originalvideofilename>
												<originalaudiofilename></originalaudiofilename>
											</logginginfo>
											<colorinfo>
												<lut></lut>
												<lut1></lut1>
												<asc_sop></asc_sop>
												<asc_sat></asc_sat>
												<lut2></lut2>
											</colorinfo>
											<labels>
												<label2>Violet</label2>
											</labels>
										</clipitem>
										<enabled>TRUE</enabled>
										<locked>FALSE</locked>
									</track>
									<track TL.SQTrackShy="0" TL.SQTrackExpandedHeight="25" TL.SQTrackExpanded="0" MZ.TrackTargeted="0">
										<transitionitem>
											<start>6</start>
											<end>35</end>
											<alignment>start-black</alignment>
											<cutPointTicks>0</cutPointTicks>
											<rate>
												<timebase>25</timebase>
												<ntsc>FALSE</ntsc>
											</rate>
											<effect>
												<name>Edge Wipe</name>
												<effectid>Edge Wipe</effectid>
												<effectcategory>Wipe</effectcategory>
												<effecttype>transition</effecttype>
												<mediatype>video</mediatype>
												<wipecode>2</wipecode>
												<wipeaccuracy>100</wipeaccuracy>
												<startratio>0</startratio>
												<endratio>1</endratio>
												<reverse>FALSE</reverse>
												<parameter authoringApp="PremierePro">
													<parameterid>directionofwipe</parameterid>
													<name>Angle</name>
													<valuemin>-360</valuemin>
													<valuemax>360</valuemax>
													<value>270</value>
												</parameter>
											</effect>
										</transitionitem>
										<clipitem id="clipitem-731">
											<masterclipid>masterclip-342</masterclipid>
											<name>12_1.png</name>
											<enabled>TRUE</enabled>
											<duration>1080000</duration>
											<rate>
												<timebase>25</timebase>
												<ntsc>FALSE</ntsc>
											</rate>
											<start>-1</start>
											<end>-1</end>
											<in>90006</in>
											<out>90369</out>
											<pproTicksIn>914518563840000</pproTicksIn>
											<pproTicksOut>918206876160000</pproTicksOut>
											<alphatype>straight</alphatype>
											<pixelaspectratio>square</pixelaspectratio>
											<anamorphic>FALSE</anamorphic>
											<file id="file-294">
												<name>12_1.png</name>
												<pathurl>file://localhost/_MUZ_TV/project_AP/RU/_TITLE/END/PNG/12_1.png</pathurl>
												<rate>
													<timebase>30</timebase>
													<ntsc>TRUE</ntsc>
												</rate>
												<timecode>
													<rate>
														<timebase>30</timebase>
														<ntsc>TRUE</ntsc>
													</rate>
													<string>00;00;00;00</string>
													<frame>0</frame>
													<displayformat>DF</displayformat>
												</timecode>
												<media>
													<video>
														<samplecharacteristics>
															<rate>
																<timebase>30</timebase>
																<ntsc>TRUE</ntsc>
															</rate>
															<width>1920</width>
															<height>1080</height>
															<anamorphic>FALSE</anamorphic>
															<pixelaspectratio>square</pixelaspectratio>
															<fielddominance>none</fielddominance>
														</samplecharacteristics>
													</video>
												</media>
											</file>
											<filter>
												<effect>
													<name>Basic Motion</name>
													<effectid>basic</effectid>
													<effectcategory>motion</effectcategory>
													<effecttype>motion</effecttype>
													<mediatype>video</mediatype>
													<pproBypass>false</pproBypass>
													<parameter authoringApp="PremierePro">
														<parameterid>scale</parameterid>
														<name>Scale</name>
														<valuemin>0</valuemin>
														<valuemax>1000</valuemax>
														<value>53.3333</value>
													</parameter>
													<parameter authoringApp="PremierePro">
														<parameterid>rotation</parameterid>
														<name>Rotation</name>
														<valuemin>-8640</valuemin>
														<valuemax>8640</valuemax>
														<value>0</value>
													</parameter>
													<parameter authoringApp="PremierePro">
														<parameterid>center</parameterid>
														<name>Center</name>
														<value>
															<horiz>0</horiz>
															<vert>0</vert>
														</value>
													</parameter>
													<parameter authoringApp="PremierePro">
														<parameterid>centerOffset</parameterid>
														<name>Anchor Point</name>
														<value>
															<horiz>0</horiz>
															<vert>0</vert>
														</value>
													</parameter>
													<parameter authoringApp="PremierePro">
														<parameterid>antiflicker</parameterid>
														<name>Anti-flicker Filter</name>
														<valuemin>0.0</valuemin>
														<valuemax>1.0</valuemax>
														<value>0</value>
													</parameter>
												</effect>
											</filter>
											<logginginfo>
												<description></description>
												<scene></scene>
												<shottake></shottake>
												<lognote></lognote>
												<good></good>
												<originalvideofilename></originalvideofilename>
												<originalaudiofilename></originalaudiofilename>
											</logginginfo>
											<colorinfo>
												<lut></lut>
												<lut1></lut1>
												<asc_sop></asc_sop>
												<asc_sat></asc_sat>
												<lut2></lut2>
											</colorinfo>
											<labels>
												<label2>Lavender</label2>
											</labels>
										</clipitem>
										<transitionitem>
											<start>344</start>
											<end>369</end>
											<alignment>end-black</alignment>
											<cutPointTicks>254016000000</cutPointTicks>
											<rate>
												<timebase>25</timebase>
												<ntsc>FALSE</ntsc>
											</rate>
											<effect>
												<name>Edge Wipe</name>
												<effectid>Edge Wipe</effectid>
												<effectcategory>Wipe</effectcategory>
												<effecttype>transition</effecttype>
												<mediatype>video</mediatype>
												<wipecode>2</wipecode>
												<wipeaccuracy>100</wipeaccuracy>
												<startratio>0</startratio>
												<endratio>1</endratio>
												<reverse>FALSE</reverse>
												<parameter authoringApp="PremierePro">
													<parameterid>directionofwipe</parameterid>
													<name>Angle</name>
													<valuemin>-360</valuemin>
													<valuemax>360</valuemax>
													<value>90</value>
												</parameter>
											</effect>
										</transitionitem>
										<transitionitem>
											<start>381</start>
											<end>410</end>
											<alignment>start-black</alignment>
											<cutPointTicks>0</cutPointTicks>
											<rate>
												<timebase>25</timebase>
												<ntsc>FALSE</ntsc>
											</rate>
											<effect>
												<name>Edge Wipe</name>
												<effectid>Edge Wipe</effectid>
												<effectcategory>Wipe</effectcategory>
												<effecttype>transition</effecttype>
												<mediatype>video</mediatype>
												<wipecode>2</wipecode>
												<wipeaccuracy>100</wipeaccuracy>
												<startratio>0</startratio>
												<endratio>1</endratio>
												<reverse>FALSE</reverse>
												<parameter authoringApp="PremierePro">
													<parameterid>directionofwipe</parameterid>
													<name>Angle</name>
													<valuemin>-360</valuemin>
													<valuemax>360</valuemax>
													<value>270</value>
												</parameter>
											</effect>
										</transitionitem>
										<clipitem id="clipitem-732">
											<masterclipid>masterclip-343</masterclipid>
											<name>12_2.png</name>
											<enabled>TRUE</enabled>
											<duration>1080000</duration>
											<rate>
												<timebase>25</timebase>
												<ntsc>FALSE</ntsc>
											</rate>
											<start>-1</start>
											<end>-1</end>
											<in>90011</in>
											<out>90374</out>
											<pproTicksIn>914569367040000</pproTicksIn>
											<pproTicksOut>918257679360000</pproTicksOut>
											<alphatype>straight</alphatype>
											<pixelaspectratio>square</pixelaspectratio>
											<anamorphic>FALSE</anamorphic>
											<file id="file-295">
												<name>12_2.png</name>
												<pathurl>file://localhost/_MUZ_TV/project_AP/RU/_TITLE/END/PNG/12_2.png</pathurl>
												<rate>
													<timebase>30</timebase>
													<ntsc>TRUE</ntsc>
												</rate>
												<timecode>
													<rate>
														<timebase>30</timebase>
														<ntsc>TRUE</ntsc>
													</rate>
													<string>00;00;00;00</string>
													<frame>0</frame>
													<displayformat>DF</displayformat>
												</timecode>
												<media>
													<video>
														<samplecharacteristics>
															<rate>
																<timebase>30</timebase>
																<ntsc>TRUE</ntsc>
															</rate>
															<width>1920</width>
															<height>1080</height>
															<anamorphic>FALSE</anamorphic>
															<pixelaspectratio>square</pixelaspectratio>
															<fielddominance>none</fielddominance>
														</samplecharacteristics>
													</video>
												</media>
											</file>
											<filter>
												<effect>
													<name>Basic Motion</name>
													<effectid>basic</effectid>
													<effectcategory>motion</effectcategory>
													<effecttype>motion</effecttype>
													<mediatype>video</mediatype>
													<pproBypass>false</pproBypass>
													<parameter authoringApp="PremierePro">
														<parameterid>scale</parameterid>
														<name>Scale</name>
														<valuemin>0</valuemin>
														<valuemax>1000</valuemax>
														<value>53.3333</value>
													</parameter>
													<parameter authoringApp="PremierePro">
														<parameterid>rotation</parameterid>
														<name>Rotation</name>
														<valuemin>-8640</valuemin>
														<valuemax>8640</valuemax>
														<value>0</value>
													</parameter>
													<parameter authoringApp="PremierePro">
														<parameterid>center</parameterid>
														<name>Center</name>
														<value>
															<horiz>0</horiz>
															<vert>0</vert>
														</value>
													</parameter>
													<parameter authoringApp="PremierePro">
														<parameterid>centerOffset</parameterid>
														<name>Anchor Point</name>
														<value>
															<horiz>0</horiz>
															<vert>0</vert>
														</value>
													</parameter>
													<parameter authoringApp="PremierePro">
														<parameterid>antiflicker</parameterid>
														<name>Anti-flicker Filter</name>
														<valuemin>0.0</valuemin>
														<valuemax>1.0</valuemax>
														<value>0</value>
													</parameter>
												</effect>
											</filter>
											<logginginfo>
												<description></description>
												<scene></scene>
												<shottake></shottake>
												<lognote></lognote>
												<good></good>
												<originalvideofilename></originalvideofilename>
												<originalaudiofilename></originalaudiofilename>
											</logginginfo>
											<colorinfo>
												<lut></lut>
												<lut1></lut1>
												<asc_sop></asc_sop>
												<asc_sat></asc_sat>
												<lut2></lut2>
											</colorinfo>
											<labels>
												<label2>Lavender</label2>
											</labels>
										</clipitem>
										<transitionitem>
											<start>719</start>
											<end>744</end>
											<alignment>end-black</alignment>
											<cutPointTicks>254016000000</cutPointTicks>
											<rate>
												<timebase>25</timebase>
												<ntsc>FALSE</ntsc>
											</rate>
											<effect>
												<name>Edge Wipe</name>
												<effectid>Edge Wipe</effectid>
												<effectcategory>Wipe</effectcategory>
												<effecttype>transition</effecttype>
												<mediatype>video</mediatype>
												<wipecode>2</wipecode>
												<wipeaccuracy>100</wipeaccuracy>
												<startratio>0</startratio>
												<endratio>1</endratio>
												<reverse>FALSE</reverse>
												<parameter authoringApp="PremierePro">
													<parameterid>directionofwipe</parameterid>
													<name>Angle</name>
													<valuemin>-360</valuemin>
													<valuemax>360</valuemax>
													<value>90</value>
												</parameter>
											</effect>
										</transitionitem>
										<transitionitem>
											<start>761</start>
											<end>790</end>
											<alignment>start-black</alignment>
											<cutPointTicks>0</cutPointTicks>
											<rate>
												<timebase>25</timebase>
												<ntsc>FALSE</ntsc>
											</rate>
											<effect>
												<name>Edge Wipe</name>
												<effectid>Edge Wipe</effectid>
												<effectcategory>Wipe</effectcategory>
												<effecttype>transition</effecttype>
												<mediatype>video</mediatype>
												<wipecode>2</wipecode>
												<wipeaccuracy>100</wipeaccuracy>
												<startratio>0</startratio>
												<endratio>1</endratio>
												<reverse>FALSE</reverse>
												<parameter authoringApp="PremierePro">
													<parameterid>directionofwipe</parameterid>
													<name>Angle</name>
													<valuemin>-360</valuemin>
													<valuemax>360</valuemax>
													<value>270</value>
												</parameter>
											</effect>
										</transitionitem>
										<clipitem id="clipitem-733">
											<masterclipid>masterclip-344</masterclipid>
											<name>12_3.png</name>
											<enabled>TRUE</enabled>
											<duration>1080000</duration>
											<rate>
												<timebase>25</timebase>
												<ntsc>FALSE</ntsc>
											</rate>
											<start>-1</start>
											<end>-1</end>
											<in>90016</in>
											<out>90379</out>
											<pproTicksIn>914620170240000</pproTicksIn>
											<pproTicksOut>918308482560000</pproTicksOut>
											<alphatype>straight</alphatype>
											<pixelaspectratio>square</pixelaspectratio>
											<anamorphic>FALSE</anamorphic>
											<file id="file-296">
												<name>12_3.png</name>
												<pathurl>file://localhost/_MUZ_TV/project_AP/RU/_TITLE/END/PNG/12_3.png</pathurl>
												<rate>
													<timebase>30</timebase>
													<ntsc>TRUE</ntsc>
												</rate>
												<timecode>
													<rate>
														<timebase>30</timebase>
														<ntsc>TRUE</ntsc>
													</rate>
													<string>00;00;00;00</string>
													<frame>0</frame>
													<displayformat>DF</displayformat>
												</timecode>
												<media>
													<video>
														<samplecharacteristics>
															<rate>
																<timebase>30</timebase>
																<ntsc>TRUE</ntsc>
															</rate>
															<width>1920</width>
															<height>1080</height>
															<anamorphic>FALSE</anamorphic>
															<pixelaspectratio>square</pixelaspectratio>
															<fielddominance>none</fielddominance>
														</samplecharacteristics>
													</video>
												</media>
											</file>
											<filter>
												<effect>
													<name>Basic Motion</name>
													<effectid>basic</effectid>
													<effectcategory>motion</effectcategory>
													<effecttype>motion</effecttype>
													<mediatype>video</mediatype>
													<pproBypass>false</pproBypass>
													<parameter authoringApp="PremierePro">
														<parameterid>scale</parameterid>
														<name>Scale</name>
														<valuemin>0</valuemin>
														<valuemax>1000</valuemax>
														<value>53.3333</value>
													</parameter>
													<parameter authoringApp="PremierePro">
														<parameterid>rotation</parameterid>
														<name>Rotation</name>
														<valuemin>-8640</valuemin>
														<valuemax>8640</valuemax>
														<value>0</value>
													</parameter>
													<parameter authoringApp="PremierePro">
														<parameterid>center</parameterid>
														<name>Center</name>
														<value>
															<horiz>0</horiz>
															<vert>0</vert>
														</value>
													</parameter>
													<parameter authoringApp="PremierePro">
														<parameterid>centerOffset</parameterid>
														<name>Anchor Point</name>
														<value>
															<horiz>0</horiz>
															<vert>0</vert>
														</value>
													</parameter>
													<parameter authoringApp="PremierePro">
														<parameterid>antiflicker</parameterid>
														<name>Anti-flicker Filter</name>
														<valuemin>0.0</valuemin>
														<valuemax>1.0</valuemax>
														<value>0</value>
													</parameter>
												</effect>
											</filter>
											<logginginfo>
												<description></description>
												<scene></scene>
												<shottake></shottake>
												<lognote></lognote>
												<good></good>
												<originalvideofilename></originalvideofilename>
												<originalaudiofilename></originalaudiofilename>
											</logginginfo>
											<colorinfo>
												<lut></lut>
												<lut1></lut1>
												<asc_sop></asc_sop>
												<asc_sat></asc_sat>
												<lut2></lut2>
											</colorinfo>
											<labels>
												<label2>Lavender</label2>
											</labels>
										</clipitem>
										<transitionitem>
											<start>1099</start>
											<end>1124</end>
											<alignment>end-black</alignment>
											<cutPointTicks>254016000000</cutPointTicks>
											<rate>
												<timebase>25</timebase>
												<ntsc>FALSE</ntsc>
											</rate>
											<effect>
												<name>Edge Wipe</name>
												<effectid>Edge Wipe</effectid>
												<effectcategory>Wipe</effectcategory>
												<effecttype>transition</effecttype>
												<mediatype>video</mediatype>
												<wipecode>2</wipecode>
												<wipeaccuracy>100</wipeaccuracy>
												<startratio>0</startratio>
												<endratio>1</endratio>
												<reverse>FALSE</reverse>
												<parameter authoringApp="PremierePro">
													<parameterid>directionofwipe</parameterid>
													<name>Angle</name>
													<valuemin>-360</valuemin>
													<valuemax>360</valuemax>
													<value>90</value>
												</parameter>
											</effect>
										</transitionitem>
										<enabled>TRUE</enabled>
										<locked>FALSE</locked>
									</track>
									<track TL.SQTrackShy="0" TL.SQTrackExpandedHeight="25" TL.SQTrackExpanded="0" MZ.TrackTargeted="0">
										<transitionitem>
											<start>755</start>
											<end>780</end>
											<alignment>start-black</alignment>
											<cutPointTicks>0</cutPointTicks>
											<rate>
												<timebase>25</timebase>
												<ntsc>FALSE</ntsc>
											</rate>
											<effect>
												<name>Edge Wipe</name>
												<effectid>Edge Wipe</effectid>
												<effectcategory>Wipe</effectcategory>
												<effecttype>transition</effecttype>
												<mediatype>video</mediatype>
												<wipecode>2</wipecode>
												<wipeaccuracy>100</wipeaccuracy>
												<startratio>0</startratio>
												<endratio>1</endratio>
												<reverse>FALSE</reverse>
												<parameter authoringApp="PremierePro">
													<parameterid>directionofwipe</parameterid>
													<name>Angle</name>
													<valuemin>-360</valuemin>
													<valuemax>360</valuemax>
													<value>270</value>
												</parameter>
											</effect>
										</transitionitem>
										<clipitem id="clipitem-734">
											<masterclipid>masterclip-345</masterclipid>
											<name>Graphic</name>
											<enabled>FALSE</enabled>
											<duration>1080000</duration>
											<rate>
												<timebase>25</timebase>
												<ntsc>FALSE</ntsc>
											</rate>
											<start>-1</start>
											<end>-1</end>
											<in>89905</in>
											<out>90272</out>
											<pproTicksIn>913492339200000</pproTicksIn>
											<pproTicksOut>917221294080000</pproTicksOut>
											<alphatype>straight</alphatype>
											<pixelaspectratio>PAL-601</pixelaspectratio>
											<anamorphic>TRUE</anamorphic>
											<file id="file-297">
												<name>Graphic</name>
												<mediaSource>GraphicAndType</mediaSource>
												<rate>
													<timebase>30</timebase>
													<ntsc>TRUE</ntsc>
												</rate>
												<timecode>
													<rate>
														<timebase>30</timebase>
														<ntsc>TRUE</ntsc>
													</rate>
													<string>00;00;00;00</string>
													<frame>0</frame>
													<displayformat>DF</displayformat>
												</timecode>
												<media>
													<video>
														<samplecharacteristics>
															<rate>
																<timebase>30</timebase>
																<ntsc>TRUE</ntsc>
															</rate>
															<width>720</width>
															<height>576</height>
															<anamorphic>TRUE</anamorphic>
															<pixelaspectratio>PAL-601</pixelaspectratio>
															<fielddominance>none</fielddominance>
														</samplecharacteristics>
													</video>
												</media>
											</file>
											<filter>
												<effect>
													<name>Vector Motion</name>
													<effectid>GraphicGroup</effectid>
													<effectcategory>graphic</effectcategory>
													<effecttype>filter</effecttype>
													<mediatype>video</mediatype>
													<pproBypass>false</pproBypass>
													<parameter authoringApp="PremierePro">
														<parameterid>1</parameterid>
														<name>Position</name>
														<IsTimeVarying>false</IsTimeVarying>
														<value>-91445760000000000,0.81693898908787344:0.49085601568222115,0,0,0,0,0,0,5,4,0,0,0,0</value>
													</parameter>
													<parameter authoringApp="PremierePro">
														<parameterid>2</parameterid>
														<name>Scale</name>
														<IsTimeVarying>false</IsTimeVarying>
														<ParameterControlType>2</ParameterControlType>
														<LowerBound>0</LowerBound>
														<UpperBound>10000</UpperBound>
														<UpperUIBound>200</UpperUIBound>
														<value>-91445760000000000,100.,0,0,0,0,0,0</value>
													</parameter>
													<parameter authoringApp="PremierePro">
														<parameterid>3</parameterid>
														<name>Scale Width</name>
														<IsTimeVarying>false</IsTimeVarying>
														<ParameterControlType>2</ParameterControlType>
														<LowerBound>0</LowerBound>
														<UpperBound>10000</UpperBound>
														<UpperUIBound>200</UpperUIBound>
														<value>-91445760000000000,100.,0,0,0,0,0,0</value>
													</parameter>
													<parameter authoringApp="PremierePro">
														<parameterid>4</parameterid>
														<name> </name>
														<IsTimeVarying>false</IsTimeVarying>
														<ParameterControlType>4</ParameterControlType>
														<LowerBound>false</LowerBound>
														<UpperBound>true</UpperBound>
														<value>-91445760000000000,true,0,0,0,0,0,0</value>
													</parameter>
													<parameter authoringApp="PremierePro">
														<parameterid>5</parameterid>
														<name>Rotation</name>
														<IsTimeVarying>false</IsTimeVarying>
														<ParameterControlType>3</ParameterControlType>
														<LowerBound>-32768</LowerBound>
														<UpperBound>32767</UpperBound>
														<value>-91445760000000000,0.,0,0,0,0,0,0</value>
													</parameter>
													<parameter authoringApp="PremierePro">
														<parameterid>6</parameterid>
														<name>Anchor Point</name>
														<IsTimeVarying>false</IsTimeVarying>
														<value>-91445760000000000,0.5:0.5,0,0,0,0,0,0,5,4,0,0,0,0</value>
													</parameter>
												</effect>
											</filter>
											<filter>
												<effect>
													<name>Данил Прытков признаётся, &#13;что сильные провалы &#13;мотивируют его на творчество &#13;не меньше, чем победы. </name>
													<effectid>GraphicAndType</effectid>
													<effectcategory>graphic</effectcategory>
													<effecttype>filter</effecttype>
													<mediatype>video</mediatype>
													<pproBypass>false</pproBypass>
													<pproExpanded>true</pproExpanded>
													<parameter authoringApp="PremierePro">
														<parameterid>1</parameterid>
														<name>Source Text</name>
														<hash>698123b5-7d57-7b79-efb1-b0df00000a31</hash>
													</parameter>
													<parameter authoringApp="PremierePro">
														<parameterid>2</parameterid>
														<name>Transform</name>
														<IsTimeVarying>false</IsTimeVarying>
														<ParameterControlType>11</ParameterControlType>
														<LowerBound>false</LowerBound>
														<UpperBound>false</UpperBound>
														<value>-91445760000000000,false,0,0,0,0,0,0</value>
													</parameter>
													<parameter authoringApp="PremierePro">
														<parameterid>3</parameterid>
														<name>Position</name>
														<IsTimeVarying>false</IsTimeVarying>
														<value>-91445760000000000,0.270416259765625:0.640594482421875,0,0,0,0,0,0,5,4,0,0,0,0</value>
													</parameter>
													<parameter authoringApp="PremierePro">
														<parameterid>4</parameterid>
														<name>Scale</name>
														<IsTimeVarying>false</IsTimeVarying>
														<ParameterControlType>2</ParameterControlType>
														<LowerBound>0</LowerBound>
														<UpperBound>4000</UpperBound>
														<value>-91445760000000000,100.,0,0,0,0,0,0</value>
													</parameter>
													<parameter authoringApp="PremierePro">
														<parameterid>5</parameterid>
														<name>Horizontal Scale</name>
														<IsTimeVarying>false</IsTimeVarying>
														<ParameterControlType>2</ParameterControlType>
														<LowerBound>0</LowerBound>
														<UpperBound>4000</UpperBound>
														<value>-91445760000000000,100.,0,0,0,0,0,0</value>
													</parameter>
													<parameter authoringApp="PremierePro">
														<parameterid>6</parameterid>
														<name> </name>
														<IsTimeVarying>false</IsTimeVarying>
														<ParameterControlType>4</ParameterControlType>
														<LowerBound>false</LowerBound>
														<UpperBound>true</UpperBound>
														<value>-91445760000000000,true,0,0,0,0,0,0</value>
													</parameter>
													<parameter authoringApp="PremierePro">
														<parameterid>7</parameterid>
														<name>Rotation</name>
														<IsTimeVarying>false</IsTimeVarying>
														<ParameterControlType>3</ParameterControlType>
														<LowerBound>-32768</LowerBound>
														<UpperBound>32767</UpperBound>
														<value>-91445760000000000,0.,0,0,0,0,0,0</value>
													</parameter>
													<parameter authoringApp="PremierePro">
														<parameterid>8</parameterid>
														<name>Opacity</name>
														<IsTimeVarying>false</IsTimeVarying>
														<ParameterControlType>2</ParameterControlType>
														<LowerBound>0</LowerBound>
														<UpperBound>100</UpperBound>
														<value>-91445760000000000,100.,0,0,0,0,0,0</value>
													</parameter>
													<parameter authoringApp="PremierePro">
														<parameterid>9</parameterid>
														<name>Anchor Point</name>
														<IsTimeVarying>false</IsTimeVarying>
														<value>-91445760000000000,0:0,0,0,0,0,0,0,5,4,0,0,0,0</value>
													</parameter>
													<parameter authoringApp="PremierePro">
														<parameterid>10</parameterid>
														<name></name>
														<IsTimeVarying>false</IsTimeVarying>
														<ParameterControlType>12</ParameterControlType>
														<LowerBound>false</LowerBound>
														<UpperBound>false</UpperBound>
														<value>-91445760000000000,false,0,0,0,0,0,0</value>
													</parameter>
													<parameter authoringApp="PremierePro">
														<parameterid>11</parameterid>
														<name> </name>
														<IsTimeVarying>false</IsTimeVarying>
														<ParameterControlType>8</ParameterControlType>
														<LowerBound>0</LowerBound>
														<UpperBound>32768</UpperBound>
														<value>-91445760000000000,0.,0,0,0,0,0,0</value>
													</parameter>
													<parameter authoringApp="PremierePro">
														<parameterid>12</parameterid>
														<name> </name>
														<IsTimeVarying>false</IsTimeVarying>
														<ParameterControlType>8</ParameterControlType>
														<LowerBound>0</LowerBound>
														<UpperBound>32768</UpperBound>
														<value>-91445760000000000,0.,0,0,0,0,0,0</value>
													</parameter>
													<parameter authoringApp="PremierePro">
														<parameterid>13</parameterid>
														<name>start</name>
														<IsTimeVarying>false</IsTimeVarying>
														<ParameterControlType>8</ParameterControlType>
														<LowerBound>-100</LowerBound>
														<UpperBound>1000000000</UpperBound>
														<value>-91445760000000000,0.,0,0,0,0,0,0</value>
													</parameter>
													<parameter authoringApp="PremierePro">
														<parameterid>14</parameterid>
														<name>end</name>
														<IsTimeVarying>false</IsTimeVarying>
														<ParameterControlType>8</ParameterControlType>
														<LowerBound>-100</LowerBound>
														<UpperBound>1000000000</UpperBound>
														<value>-91445760000000000,101.,0,0,0,0,0,0</value>
													</parameter>
													<parameter authoringApp="PremierePro">
														<parameterid>15</parameterid>
														<name> </name>
														<IsTimeVarying>false</IsTimeVarying>
														<ParameterControlType>4</ParameterControlType>
														<LowerBound>false</LowerBound>
														<UpperBound>true</UpperBound>
														<value>-91445760000000000,false,0,0,0,0,0,0</value>
													</parameter>
													<parameter authoringApp="PremierePro">
														<parameterid>16</parameterid>
														<name> </name>
														<IsTimeVarying>false</IsTimeVarying>
														<ParameterControlType>4</ParameterControlType>
														<LowerBound>false</LowerBound>
														<UpperBound>true</UpperBound>
														<value>-91445760000000000,false,0,0,0,0,0,0</value>
													</parameter>
													<parameter authoringApp="PremierePro">
														<parameterid>17</parameterid>
														<name> </name>
														<IsTimeVarying>false</IsTimeVarying>
														<ParameterControlType>4</ParameterControlType>
														<LowerBound>false</LowerBound>
														<UpperBound>true</UpperBound>
														<value>-91445760000000000,false,0,0,0,0,0,0</value>
													</parameter>
													<parameter authoringApp="PremierePro">
														<parameterid>18</parameterid>
														<name> </name>
														<IsTimeVarying>false</IsTimeVarying>
														<ParameterControlType>4</ParameterControlType>
														<LowerBound>false</LowerBound>
														<UpperBound>true</UpperBound>
														<value>-91445760000000000,false,0,0,0,0,0,0</value>
													</parameter>
													<parameter authoringApp="PremierePro">
														<parameterid>19</parameterid>
														<name>Parent Width</name>
														<IsTimeVarying>false</IsTimeVarying>
														<ParameterControlType>2</ParameterControlType>
														<LowerBound>0</LowerBound>
														<UpperBound>20000</UpperBound>
														<value>-91445760000000000,0.,0,0,0,0,0,0</value>
													</parameter>
													<parameter authoringApp="PremierePro">
														<parameterid>20</parameterid>
														<name>Parent Height</name>
														<IsTimeVarying>false</IsTimeVarying>
														<ParameterControlType>2</ParameterControlType>
														<LowerBound>0</LowerBound>
														<UpperBound>20000</UpperBound>
														<value>-91445760000000000,0.,0,0,0,0,0,0</value>
													</parameter>
													<parameter authoringApp="PremierePro">
														<parameterid>21</parameterid>
														<name>Parent Rotation</name>
														<IsTimeVarying>false</IsTimeVarying>
														<ParameterControlType>3</ParameterControlType>
														<LowerBound>-32768</LowerBound>
														<UpperBound>32767</UpperBound>
														<value>-91445760000000000,0.,0,0,0,0,0,0</value>
													</parameter>
												</effect>
											</filter>
											<logginginfo>
												<description></description>
												<scene></scene>
												<shottake></shottake>
												<lognote></lognote>
												<good></good>
												<originalvideofilename></originalvideofilename>
												<originalaudiofilename></originalaudiofilename>
											</logginginfo>
											<colorinfo>
												<lut></lut>
												<lut1></lut1>
												<asc_sop></asc_sop>
												<asc_sat></asc_sat>
												<lut2></lut2>
											</colorinfo>
										</clipitem>
										<transitionitem>
											<start>1097</start>
											<end>1122</end>
											<alignment>end-black</alignment>
											<cutPointTicks>254016000000</cutPointTicks>
											<rate>
												<timebase>25</timebase>
												<ntsc>FALSE</ntsc>
											</rate>
											<effect>
												<name>Edge Wipe</name>
												<effectid>Edge Wipe</effectid>
												<effectcategory>Wipe</effectcategory>
												<effecttype>transition</effecttype>
												<mediatype>video</mediatype>
												<wipecode>2</wipecode>
												<wipeaccuracy>100</wipeaccuracy>
												<startratio>0</startratio>
												<endratio>1</endratio>
												<reverse>FALSE</reverse>
												<parameter authoringApp="PremierePro">
													<parameterid>directionofwipe</parameterid>
													<name>Angle</name>
													<valuemin>-360</valuemin>
													<valuemax>360</valuemax>
													<value>90</value>
												</parameter>
											</effect>
										</transitionitem>
										<enabled>TRUE</enabled>
										<locked>FALSE</locked>
									</track>
								</video>
								<audio>
									<numOutputChannels>2</numOutputChannels>
									<format>
										<samplecharacteristics>
											<depth>16</depth>
											<samplerate>48000</samplerate>
										</samplecharacteristics>
									</format>
									<outputs>
										<group>
											<index>1</index>
											<numchannels>1</numchannels>
											<downmix>0</downmix>
											<channel>
												<index>1</index>
											</channel>
										</group>
										<group>
											<index>2</index>
											<numchannels>1</numchannels>
											<downmix>0</downmix>
											<channel>
												<index>2</index>
											</channel>
										</group>
									</outputs>
									<track TL.SQTrackAudioKeyframeStyle="0" TL.SQTrackShy="0" TL.SQTrackExpandedHeight="25" TL.SQTrackExpanded="0" MZ.TrackTargeted="0" PannerCurrentValue="0.5" PannerStartKeyframe="-91445760000000000,0.5,0,0,0,0,0,0" PannerName="Balance" currentExplodedTrackIndex="0" totalExplodedTrackCount="2" premiereTrackType="Stereo">
										<enabled>TRUE</enabled>
										<locked>FALSE</locked>
										<outputchannelindex>1</outputchannelindex>
									</track>
									<track TL.SQTrackAudioKeyframeStyle="0" TL.SQTrackShy="0" TL.SQTrackExpandedHeight="25" TL.SQTrackExpanded="0" MZ.TrackTargeted="0" PannerCurrentValue="0.5" PannerStartKeyframe="-91445760000000000,0.5,0,0,0,0,0,0" PannerName="Balance" currentExplodedTrackIndex="1" totalExplodedTrackCount="2" premiereTrackType="Stereo">
										<enabled>TRUE</enabled>
										<locked>FALSE</locked>
										<outputchannelindex>2</outputchannelindex>
									</track>
								</audio>
							</media>
							<timecode>
								<rate>
									<timebase>25</timebase>
									<ntsc>FALSE</ntsc>
								</rate>
								<string>00:00:00:00</string>
								<frame>0</frame>
								<displayformat>NDF</displayformat>
							</timecode>
								<marker>
									<comment></comment>
									<name></name>
									<in>800</in>
									<out>-1</out>
									<pproColor>4292277273</pproColor>
								</marker>
								<marker>
									<comment></comment>
									<name></name>
									<in>50</in>
									<out>-1</out>
									<pproColor>4292277273</pproColor>
								</marker>
								<marker>
									<comment></comment>
									<name></name>
									<in>425</in>
									<out>-1</out>
									<pproColor>4292277273</pproColor>
								</marker>
							<logginginfo>
								<description></description>
								<scene></scene>
								<shottake></shottake>
								<lognote></lognote>
								<good></good>
								<originalvideofilename></originalvideofilename>
								<originalaudiofilename></originalaudiofilename>
							</logginginfo>
						</sequence>
							<marker>
								<comment></comment>
								<name></name>
								<in>800</in>
								<out>-1</out>
								<pproColor>4292277273</pproColor>
							</marker>
							<marker>
								<comment></comment>
								<name></name>
								<in>50</in>
								<out>-1</out>
								<pproColor>4292277273</pproColor>
							</marker>
							<marker>
								<comment></comment>
								<name></name>
								<in>425</in>
								<out>-1</out>
								<pproColor>4292277273</pproColor>
							</marker>
						<labels>
							<label2>Forest</label2>
						</labels>
					</clipitem>
					<clipitem id="clipitem-735">
						<masterclipid>masterclip-340</masterclipid>
						<name>12</name>
						<enabled>TRUE</enabled>
						<duration>1130</duration>
						<rate>
							<timebase>25</timebase>
							<ntsc>FALSE</ntsc>
						</rate>
						<start>3078</start>
						<end>3453</end>
						<in>375</in>
						<out>750</out>
						<pproTicksIn>3810240000000</pproTicksIn>
						<pproTicksOut>7620480000000</pproTicksOut>
						<sequence id="sequence-52"/>
							<marker>
								<comment></comment>
								<name></name>
								<in>800</in>
								<out>-1</out>
								<pproColor>4292277273</pproColor>
							</marker>
							<marker>
								<comment></comment>
								<name></name>
								<in>50</in>
								<out>-1</out>
								<pproColor>4292277273</pproColor>
							</marker>
							<marker>
								<comment></comment>
								<name></name>
								<in>425</in>
								<out>-1</out>
								<pproColor>4292277273</pproColor>
							</marker>
						<labels>
							<label2>Forest</label2>
						</labels>
					</clipitem>
					<clipitem id="clipitem-736">
						<masterclipid>masterclip-340</masterclipid>
						<name>12</name>
						<enabled>TRUE</enabled>
						<duration>1130</duration>
						<rate>
							<timebase>25</timebase>
							<ntsc>FALSE</ntsc>
						</rate>
						<start>4025</start>
						<end>4400</end>
						<in>750</in>
						<out>1125</out>
						<pproTicksIn>7620480000000</pproTicksIn>
						<pproTicksOut>11430720000000</pproTicksOut>
						<sequence id="sequence-52"/>
							<marker>
								<comment></comment>
								<name></name>
								<in>800</in>
								<out>-1</out>
								<pproColor>4292277273</pproColor>
							</marker>
							<marker>
								<comment></comment>
								<name></name>
								<in>50</in>
								<out>-1</out>
								<pproColor>4292277273</pproColor>
							</marker>
							<marker>
								<comment></comment>
								<name></name>
								<in>425</in>
								<out>-1</out>
								<pproColor>4292277273</pproColor>
							</marker>
						<labels>
							<label2>Forest</label2>
						</labels>
					</clipitem>
					<clipitem id="clipitem-737">
						<masterclipid>masterclip-346</masterclipid>
						<name>13</name>
						<enabled>TRUE</enabled>
						<duration>1125</duration>
						<rate>
							<timebase>25</timebase>
							<ntsc>FALSE</ntsc>
						</rate>
						<start>6089</start>
						<end>6464</end>
						<in>375</in>
						<out>750</out>
						<pproTicksIn>3810240000000</pproTicksIn>
						<pproTicksOut>7620480000000</pproTicksOut>
						<sequence id="sequence-53" TL.SQAudioVisibleBase="0" TL.SQVideoVisibleBase="0" TL.SQVisibleBaseTime="7302947020929" TL.SQAVDividerPosition="0.5" TL.SQHideShyTracks="0" TL.SQHeaderWidth="236" Monitor.ProgramZoomOut="11430720000000" Monitor.ProgramZoomIn="0" TL.SQTimePerPixel="0.0015328646173968816" AM.TrackVScrollPosition="0" AM.TrackScrollPosition="0" MZ.EditLine="7620480000000" MZ.Sequence.PreviewFrameSizeHeight="576" MZ.Sequence.PreviewFrameSizeWidth="720" MZ.Sequence.AudioTimeDisplayFormat="200" MZ.Sequence.PreviewRenderingClassID="1061109567" MZ.Sequence.PreviewRenderingPresetCodec="1685480304" MZ.Sequence.PreviewRenderingPresetPath="EncoderPresets/SequencePreview/04be6e19-a018-4e0c-a9d6-0ab44c64752b/QuickTime DV PAL.epr" MZ.Sequence.PreviewUseMaxRenderQuality="false" MZ.Sequence.PreviewUseMaxBitDepth="false" MZ.Sequence.EditingModeGUID="04be6e19-a018-4e0c-a9d6-0ab44c64752b" MZ.Sequence.VideoTimeDisplayFormat="101" MZ.WorkOutPoint="11430720000000" MZ.WorkInPoint="0" MZ.ZeroPoint="0">
							<duration>1125</duration>
							<rate>
								<timebase>25</timebase>
								<ntsc>FALSE</ntsc>
							</rate>
							<name>RU_Nested</name>
							<media>
								<video>
									<format>
										<samplecharacteristics>
											<rate>
												<timebase>25</timebase>
												<ntsc>FALSE</ntsc>
											</rate>
											<codec>
												<name>Apple ProRes 422</name>
												<appspecificdata>
													<appname>Final Cut Pro</appname>
													<appmanufacturer>Apple Inc.</appmanufacturer>
													<appversion>7.0</appversion>
													<data>
														<qtcodec>
															<codecname>Apple ProRes 422</codecname>
															<codectypename>Apple ProRes 422</codectypename>
															<codectypecode>apcn</codectypecode>
															<codecvendorcode>appl</codecvendorcode>
															<spatialquality>1024</spatialquality>
															<temporalquality>0</temporalquality>
															<keyframerate>0</keyframerate>
															<datarate>0</datarate>
														</qtcodec>
													</data>
												</appspecificdata>
											</codec>
											<width>720</width>
											<height>576</height>
											<anamorphic>TRUE</anamorphic>
											<pixelaspectratio>PAL-601</pixelaspectratio>
											<fielddominance>lower</fielddominance>
											<colordepth>24</colordepth>
										</samplecharacteristics>
									</format>
									<track TL.SQTrackShy="0" TL.SQTrackExpandedHeight="25" TL.SQTrackExpanded="0" MZ.TrackTargeted="1">
										<clipitem id="clipitem-738">
											<masterclipid>masterclip-347</masterclipid>
											<name>Plashka_Right_DV.mov</name>
											<enabled>TRUE</enabled>
											<duration>375</duration>
											<rate>
												<timebase>25</timebase>
												<ntsc>FALSE</ntsc>
											</rate>
											<start>0</start>
											<end>375</end>
											<in>0</in>
											<out>375</out>
											<pproTicksIn>0</pproTicksIn>
											<pproTicksOut>3810240000000</pproTicksOut>
											<alphatype>straight</alphatype>
											<pixelaspectratio>PAL-601</pixelaspectratio>
											<anamorphic>TRUE</anamorphic>
											<file id="file-298">
												<name>Plashka_Right_DV.mov</name>
												<pathurl>file://localhost/Volumes/1Tb/_MUZ_TV/graphika/RU-21/MOD/Plashka_Right_DV.mov</pathurl>
												<rate>
													<timebase>25</timebase>
													<ntsc>FALSE</ntsc>
												</rate>
												<duration>375</duration>
												<timecode>
													<rate>
														<timebase>25</timebase>
														<ntsc>FALSE</ntsc>
													</rate>
													<string>00:00:15:10</string>
													<frame>385</frame>
													<displayformat>NDF</displayformat>
												</timecode>
												<media>
													<video>
														<samplecharacteristics>
															<rate>
																<timebase>25</timebase>
																<ntsc>FALSE</ntsc>
															</rate>
															<width>720</width>
															<height>576</height>
															<anamorphic>TRUE</anamorphic>
															<pixelaspectratio>PAL-601</pixelaspectratio>
															<fielddominance>lower</fielddominance>
														</samplecharacteristics>
													</video>
												</media>
											</file>
											<filter>
												<effect>
													<name>Basic Motion</name>
													<effectid>basic</effectid>
													<effectcategory>motion</effectcategory>
													<effecttype>motion</effecttype>
													<mediatype>video</mediatype>
													<pproBypass>false</pproBypass>
													<parameter authoringApp="PremierePro">
														<parameterid>scale</parameterid>
														<name>Scale</name>
														<valuemin>0</valuemin>
														<valuemax>1000</valuemax>
														<value>100</value>
													</parameter>
													<parameter authoringApp="PremierePro">
														<parameterid>rotation</parameterid>
														<name>Rotation</name>
														<valuemin>-8640</valuemin>
														<valuemax>8640</valuemax>
														<value>0</value>
													</parameter>
													<parameter authoringApp="PremierePro">
														<parameterid>center</parameterid>
														<name>Center</name>
														<value>
															<horiz>-5.55112e-17</horiz>
															<vert>-1.11022e-16</vert>
														</value>
													</parameter>
													<parameter authoringApp="PremierePro">
														<parameterid>centerOffset</parameterid>
														<name>Anchor Point</name>
														<value>
															<horiz>0.402314</horiz>
															<vert>0.41875</vert>
														</value>
													</parameter>
													<parameter authoringApp="PremierePro">
														<parameterid>antiflicker</parameterid>
														<name>Anti-flicker Filter</name>
														<valuemin>0.0</valuemin>
														<valuemax>1.0</valuemax>
														<value>0</value>
													</parameter>
												</effect>
											</filter>
											<filter>
												<effect>
													<name>Distort</name>
													<effectid>deformation</effectid>
													<effectcategory>motion</effectcategory>
													<effecttype>motion</effecttype>
													<mediatype>video</mediatype>
													<parameter authoringApp="PremierePro">
														<parameterid>aspect</parameterid>
														<name>Aspect</name>
														<valuemin>-10000</valuemin>
														<valuemax>10000</valuemax>
														<value>4.16667</value>
													</parameter>
												</effect>
											</filter>
											<logginginfo>
												<description></description>
												<scene></scene>
												<shottake></shottake>
												<lognote></lognote>
												<good></good>
												<originalvideofilename></originalvideofilename>
												<originalaudiofilename></originalaudiofilename>
											</logginginfo>
											<colorinfo>
												<lut></lut>
												<lut1></lut1>
												<asc_sop></asc_sop>
												<asc_sat></asc_sat>
												<lut2></lut2>
											</colorinfo>
											<labels>
												<label2>Violet</label2>
											</labels>
										</clipitem>
										<clipitem id="clipitem-739">
											<masterclipid>masterclip-347</masterclipid>
											<name>Plashka_Right_DV.mov</name>
											<enabled>TRUE</enabled>
											<duration>375</duration>
											<rate>
												<timebase>25</timebase>
												<ntsc>FALSE</ntsc>
											</rate>
											<start>375</start>
											<end>750</end>
											<in>0</in>
											<out>375</out>
											<pproTicksIn>0</pproTicksIn>
											<pproTicksOut>3810240000000</pproTicksOut>
											<alphatype>straight</alphatype>
											<file id="file-298"/>
											<filter>
												<effect>
													<name>Basic Motion</name>
													<effectid>basic</effectid>
													<effectcategory>motion</effectcategory>
													<effecttype>motion</effecttype>
													<mediatype>video</mediatype>
													<pproBypass>false</pproBypass>
													<parameter authoringApp="PremierePro">
														<parameterid>scale</parameterid>
														<name>Scale</name>
														<valuemin>0</valuemin>
														<valuemax>1000</valuemax>
														<value>100</value>
													</parameter>
													<parameter authoringApp="PremierePro">
														<parameterid>rotation</parameterid>
														<name>Rotation</name>
														<valuemin>-8640</valuemin>
														<valuemax>8640</valuemax>
														<value>0</value>
													</parameter>
													<parameter authoringApp="PremierePro">
														<parameterid>center</parameterid>
														<name>Center</name>
														<value>
															<horiz>-5.55112e-17</horiz>
															<vert>-1.11022e-16</vert>
														</value>
													</parameter>
													<parameter authoringApp="PremierePro">
														<parameterid>centerOffset</parameterid>
														<name>Anchor Point</name>
														<value>
															<horiz>0.402314</horiz>
															<vert>0.41875</vert>
														</value>
													</parameter>
													<parameter authoringApp="PremierePro">
														<parameterid>antiflicker</parameterid>
														<name>Anti-flicker Filter</name>
														<valuemin>0.0</valuemin>
														<valuemax>1.0</valuemax>
														<value>0</value>
													</parameter>
												</effect>
											</filter>
											<filter>
												<effect>
													<name>Distort</name>
													<effectid>deformation</effectid>
													<effectcategory>motion</effectcategory>
													<effecttype>motion</effecttype>
													<mediatype>video</mediatype>
													<parameter authoringApp="PremierePro">
														<parameterid>aspect</parameterid>
														<name>Aspect</name>
														<valuemin>-10000</valuemin>
														<valuemax>10000</valuemax>
														<value>47.0588</value>
													</parameter>
												</effect>
											</filter>
											<logginginfo>
												<description></description>
												<scene></scene>
												<shottake></shottake>
												<lognote></lognote>
												<good></good>
												<originalvideofilename></originalvideofilename>
												<originalaudiofilename></originalaudiofilename>
											</logginginfo>
											<colorinfo>
												<lut></lut>
												<lut1></lut1>
												<asc_sop></asc_sop>
												<asc_sat></asc_sat>
												<lut2></lut2>
											</colorinfo>
											<labels>
												<label2>Violet</label2>
											</labels>
										</clipitem>
										<clipitem id="clipitem-740">
											<masterclipid>masterclip-347</masterclipid>
											<name>Plashka_Right_DV.mov</name>
											<enabled>TRUE</enabled>
											<duration>375</duration>
											<rate>
												<timebase>25</timebase>
												<ntsc>FALSE</ntsc>
											</rate>
											<start>750</start>
											<end>1125</end>
											<in>0</in>
											<out>375</out>
											<pproTicksIn>0</pproTicksIn>
											<pproTicksOut>3810240000000</pproTicksOut>
											<alphatype>straight</alphatype>
											<file id="file-298"/>
											<filter>
												<effect>
													<name>Basic Motion</name>
													<effectid>basic</effectid>
													<effectcategory>motion</effectcategory>
													<effecttype>motion</effecttype>
													<mediatype>video</mediatype>
													<pproBypass>false</pproBypass>
													<parameter authoringApp="PremierePro">
														<parameterid>scale</parameterid>
														<name>Scale</name>
														<valuemin>0</valuemin>
														<valuemax>1000</valuemax>
														<value>100</value>
													</parameter>
													<parameter authoringApp="PremierePro">
														<parameterid>rotation</parameterid>
														<name>Rotation</name>
														<valuemin>-8640</valuemin>
														<valuemax>8640</valuemax>
														<value>0</value>
													</parameter>
													<parameter authoringApp="PremierePro">
														<parameterid>center</parameterid>
														<name>Center</name>
														<value>
															<horiz>-5.55112e-17</horiz>
															<vert>-1.11022e-16</vert>
														</value>
													</parameter>
													<parameter authoringApp="PremierePro">
														<parameterid>centerOffset</parameterid>
														<name>Anchor Point</name>
														<value>
															<horiz>0.402314</horiz>
															<vert>0.41875</vert>
														</value>
													</parameter>
													<parameter authoringApp="PremierePro">
														<parameterid>antiflicker</parameterid>
														<name>Anti-flicker Filter</name>
														<valuemin>0.0</valuemin>
														<valuemax>1.0</valuemax>
														<value>0</value>
													</parameter>
												</effect>
											</filter>
											<filter>
												<effect>
													<name>Distort</name>
													<effectid>deformation</effectid>
													<effectcategory>motion</effectcategory>
													<effecttype>motion</effecttype>
													<mediatype>video</mediatype>
													<parameter authoringApp="PremierePro">
														<parameterid>aspect</parameterid>
														<name>Aspect</name>
														<valuemin>-10000</valuemin>
														<valuemax>10000</valuemax>
														<value>28.2051</value>
													</parameter>
												</effect>
											</filter>
											<logginginfo>
												<description></description>
												<scene></scene>
												<shottake></shottake>
												<lognote></lognote>
												<good></good>
												<originalvideofilename></originalvideofilename>
												<originalaudiofilename></originalaudiofilename>
											</logginginfo>
											<colorinfo>
												<lut></lut>
												<lut1></lut1>
												<asc_sop></asc_sop>
												<asc_sat></asc_sat>
												<lut2></lut2>
											</colorinfo>
											<labels>
												<label2>Violet</label2>
											</labels>
										</clipitem>
										<enabled>TRUE</enabled>
										<locked>FALSE</locked>
									</track>
									<track TL.SQTrackShy="0" TL.SQTrackExpandedHeight="25" TL.SQTrackExpanded="0" MZ.TrackTargeted="0">
										<transitionitem>
											<start>6</start>
											<end>35</end>
											<alignment>start-black</alignment>
											<cutPointTicks>0</cutPointTicks>
											<rate>
												<timebase>25</timebase>
												<ntsc>FALSE</ntsc>
											</rate>
											<effect>
												<name>Edge Wipe</name>
												<effectid>Edge Wipe</effectid>
												<effectcategory>Wipe</effectcategory>
												<effecttype>transition</effecttype>
												<mediatype>video</mediatype>
												<wipecode>2</wipecode>
												<wipeaccuracy>100</wipeaccuracy>
												<startratio>0</startratio>
												<endratio>1</endratio>
												<reverse>FALSE</reverse>
												<parameter authoringApp="PremierePro">
													<parameterid>directionofwipe</parameterid>
													<name>Angle</name>
													<valuemin>-360</valuemin>
													<valuemax>360</valuemax>
													<value>270</value>
												</parameter>
											</effect>
										</transitionitem>
										<clipitem id="clipitem-741">
											<masterclipid>masterclip-348</masterclipid>
											<name>13_1.png</name>
											<enabled>TRUE</enabled>
											<duration>1080000</duration>
											<rate>
												<timebase>25</timebase>
												<ntsc>FALSE</ntsc>
											</rate>
											<start>-1</start>
											<end>-1</end>
											<in>180006</in>
											<out>180369</out>
											<pproTicksIn>1828976163840000</pproTicksIn>
											<pproTicksOut>1832664476160000</pproTicksOut>
											<alphatype>straight</alphatype>
											<pixelaspectratio>square</pixelaspectratio>
											<anamorphic>FALSE</anamorphic>
											<file id="file-299">
												<name>13_1.png</name>
												<pathurl>file://localhost/Volumes/1Tb/_MUZ_TV/project_AP/RU/_TITLE/END/PNG/13_1.png</pathurl>
												<rate>
													<timebase>30</timebase>
													<ntsc>TRUE</ntsc>
												</rate>
												<timecode>
													<rate>
														<timebase>30</timebase>
														<ntsc>TRUE</ntsc>
													</rate>
													<string>00;00;00;00</string>
													<frame>0</frame>
													<displayformat>DF</displayformat>
												</timecode>
												<media>
													<video>
														<samplecharacteristics>
															<rate>
																<timebase>30</timebase>
																<ntsc>TRUE</ntsc>
															</rate>
															<width>1920</width>
															<height>1080</height>
															<anamorphic>FALSE</anamorphic>
															<pixelaspectratio>square</pixelaspectratio>
															<fielddominance>none</fielddominance>
														</samplecharacteristics>
													</video>
												</media>
											</file>
											<filter>
												<effect>
													<name>Basic Motion</name>
													<effectid>basic</effectid>
													<effectcategory>motion</effectcategory>
													<effecttype>motion</effecttype>
													<mediatype>video</mediatype>
													<pproBypass>false</pproBypass>
													<parameter authoringApp="PremierePro">
														<parameterid>scale</parameterid>
														<name>Scale</name>
														<valuemin>0</valuemin>
														<valuemax>1000</valuemax>
														<value>53.3333</value>
													</parameter>
													<parameter authoringApp="PremierePro">
														<parameterid>rotation</parameterid>
														<name>Rotation</name>
														<valuemin>-8640</valuemin>
														<valuemax>8640</valuemax>
														<value>0</value>
													</parameter>
													<parameter authoringApp="PremierePro">
														<parameterid>center</parameterid>
														<name>Center</name>
														<value>
															<horiz>0</horiz>
															<vert>0</vert>
														</value>
													</parameter>
													<parameter authoringApp="PremierePro">
														<parameterid>centerOffset</parameterid>
														<name>Anchor Point</name>
														<value>
															<horiz>0</horiz>
															<vert>0</vert>
														</value>
													</parameter>
													<parameter authoringApp="PremierePro">
														<parameterid>antiflicker</parameterid>
														<name>Anti-flicker Filter</name>
														<valuemin>0.0</valuemin>
														<valuemax>1.0</valuemax>
														<value>0</value>
													</parameter>
												</effect>
											</filter>
											<logginginfo>
												<description></description>
												<scene></scene>
												<shottake></shottake>
												<lognote></lognote>
												<good></good>
												<originalvideofilename></originalvideofilename>
												<originalaudiofilename></originalaudiofilename>
											</logginginfo>
											<colorinfo>
												<lut></lut>
												<lut1></lut1>
												<asc_sop></asc_sop>
												<asc_sat></asc_sat>
												<lut2></lut2>
											</colorinfo>
											<labels>
												<label2>Lavender</label2>
											</labels>
										</clipitem>
										<transitionitem>
											<start>344</start>
											<end>369</end>
											<alignment>end-black</alignment>
											<cutPointTicks>254016000000</cutPointTicks>
											<rate>
												<timebase>25</timebase>
												<ntsc>FALSE</ntsc>
											</rate>
											<effect>
												<name>Edge Wipe</name>
												<effectid>Edge Wipe</effectid>
												<effectcategory>Wipe</effectcategory>
												<effecttype>transition</effecttype>
												<mediatype>video</mediatype>
												<wipecode>2</wipecode>
												<wipeaccuracy>100</wipeaccuracy>
												<startratio>0</startratio>
												<endratio>1</endratio>
												<reverse>FALSE</reverse>
												<parameter authoringApp="PremierePro">
													<parameterid>directionofwipe</parameterid>
													<name>Angle</name>
													<valuemin>-360</valuemin>
													<valuemax>360</valuemax>
													<value>90</value>
												</parameter>
											</effect>
										</transitionitem>
										<transitionitem>
											<start>381</start>
											<end>410</end>
											<alignment>start-black</alignment>
											<cutPointTicks>0</cutPointTicks>
											<rate>
												<timebase>25</timebase>
												<ntsc>FALSE</ntsc>
											</rate>
											<effect>
												<name>Edge Wipe</name>
												<effectid>Edge Wipe</effectid>
												<effectcategory>Wipe</effectcategory>
												<effecttype>transition</effecttype>
												<mediatype>video</mediatype>
												<wipecode>2</wipecode>
												<wipeaccuracy>100</wipeaccuracy>
												<startratio>0</startratio>
												<endratio>1</endratio>
												<reverse>FALSE</reverse>
												<parameter authoringApp="PremierePro">
													<parameterid>directionofwipe</parameterid>
													<name>Angle</name>
													<valuemin>-360</valuemin>
													<valuemax>360</valuemax>
													<value>270</value>
												</parameter>
											</effect>
										</transitionitem>
										<clipitem id="clipitem-742">
											<masterclipid>masterclip-349</masterclipid>
											<name>13_2.png</name>
											<enabled>TRUE</enabled>
											<duration>1080000</duration>
											<rate>
												<timebase>25</timebase>
												<ntsc>FALSE</ntsc>
											</rate>
											<start>-1</start>
											<end>-1</end>
											<in>180011</in>
											<out>180374</out>
											<pproTicksIn>1829026967040000</pproTicksIn>
											<pproTicksOut>1832715279360000</pproTicksOut>
											<alphatype>straight</alphatype>
											<pixelaspectratio>square</pixelaspectratio>
											<anamorphic>FALSE</anamorphic>
											<file id="file-300">
												<name>13_2.png</name>
												<pathurl>file://localhost/Volumes/1Tb/_MUZ_TV/project_AP/RU/_TITLE/END/PNG/13_2.png</pathurl>
												<rate>
													<timebase>30</timebase>
													<ntsc>TRUE</ntsc>
												</rate>
												<timecode>
													<rate>
														<timebase>30</timebase>
														<ntsc>TRUE</ntsc>
													</rate>
													<string>00;00;00;00</string>
													<frame>0</frame>
													<displayformat>DF</displayformat>
												</timecode>
												<media>
													<video>
														<samplecharacteristics>
															<rate>
																<timebase>30</timebase>
																<ntsc>TRUE</ntsc>
															</rate>
															<width>1920</width>
															<height>1080</height>
															<anamorphic>FALSE</anamorphic>
															<pixelaspectratio>square</pixelaspectratio>
															<fielddominance>none</fielddominance>
														</samplecharacteristics>
													</video>
												</media>
											</file>
											<filter>
												<effect>
													<name>Basic Motion</name>
													<effectid>basic</effectid>
													<effectcategory>motion</effectcategory>
													<effecttype>motion</effecttype>
													<mediatype>video</mediatype>
													<pproBypass>false</pproBypass>
													<parameter authoringApp="PremierePro">
														<parameterid>scale</parameterid>
														<name>Scale</name>
														<valuemin>0</valuemin>
														<valuemax>1000</valuemax>
														<value>53.3333</value>
													</parameter>
													<parameter authoringApp="PremierePro">
														<parameterid>rotation</parameterid>
														<name>Rotation</name>
														<valuemin>-8640</valuemin>
														<valuemax>8640</valuemax>
														<value>0</value>
													</parameter>
													<parameter authoringApp="PremierePro">
														<parameterid>center</parameterid>
														<name>Center</name>
														<value>
															<horiz>0</horiz>
															<vert>0</vert>
														</value>
													</parameter>
													<parameter authoringApp="PremierePro">
														<parameterid>centerOffset</parameterid>
														<name>Anchor Point</name>
														<value>
															<horiz>0</horiz>
															<vert>0</vert>
														</value>
													</parameter>
													<parameter authoringApp="PremierePro">
														<parameterid>antiflicker</parameterid>
														<name>Anti-flicker Filter</name>
														<valuemin>0.0</valuemin>
														<valuemax>1.0</valuemax>
														<value>0</value>
													</parameter>
												</effect>
											</filter>
											<logginginfo>
												<description></description>
												<scene></scene>
												<shottake></shottake>
												<lognote></lognote>
												<good></good>
												<originalvideofilename></originalvideofilename>
												<originalaudiofilename></originalaudiofilename>
											</logginginfo>
											<colorinfo>
												<lut></lut>
												<lut1></lut1>
												<asc_sop></asc_sop>
												<asc_sat></asc_sat>
												<lut2></lut2>
											</colorinfo>
											<labels>
												<label2>Lavender</label2>
											</labels>
										</clipitem>
										<transitionitem>
											<start>719</start>
											<end>744</end>
											<alignment>end-black</alignment>
											<cutPointTicks>254016000000</cutPointTicks>
											<rate>
												<timebase>25</timebase>
												<ntsc>FALSE</ntsc>
											</rate>
											<effect>
												<name>Edge Wipe</name>
												<effectid>Edge Wipe</effectid>
												<effectcategory>Wipe</effectcategory>
												<effecttype>transition</effecttype>
												<mediatype>video</mediatype>
												<wipecode>2</wipecode>
												<wipeaccuracy>100</wipeaccuracy>
												<startratio>0</startratio>
												<endratio>1</endratio>
												<reverse>FALSE</reverse>
												<parameter authoringApp="PremierePro">
													<parameterid>directionofwipe</parameterid>
													<name>Angle</name>
													<valuemin>-360</valuemin>
													<valuemax>360</valuemax>
													<value>90</value>
												</parameter>
											</effect>
										</transitionitem>
										<transitionitem>
											<start>756</start>
											<end>785</end>
											<alignment>start-black</alignment>
											<cutPointTicks>0</cutPointTicks>
											<rate>
												<timebase>25</timebase>
												<ntsc>FALSE</ntsc>
											</rate>
											<effect>
												<name>Edge Wipe</name>
												<effectid>Edge Wipe</effectid>
												<effectcategory>Wipe</effectcategory>
												<effecttype>transition</effecttype>
												<mediatype>video</mediatype>
												<wipecode>2</wipecode>
												<wipeaccuracy>100</wipeaccuracy>
												<startratio>0</startratio>
												<endratio>1</endratio>
												<reverse>FALSE</reverse>
												<parameter authoringApp="PremierePro">
													<parameterid>directionofwipe</parameterid>
													<name>Angle</name>
													<valuemin>-360</valuemin>
													<valuemax>360</valuemax>
													<value>270</value>
												</parameter>
											</effect>
										</transitionitem>
										<clipitem id="clipitem-743">
											<masterclipid>masterclip-350</masterclipid>
											<name>13_3.png</name>
											<enabled>TRUE</enabled>
											<duration>1080000</duration>
											<rate>
												<timebase>25</timebase>
												<ntsc>FALSE</ntsc>
											</rate>
											<start>-1</start>
											<end>-1</end>
											<in>180011</in>
											<out>180375</out>
											<pproTicksIn>1829026967040000</pproTicksIn>
											<pproTicksOut>1832725440000000</pproTicksOut>
											<alphatype>straight</alphatype>
											<pixelaspectratio>square</pixelaspectratio>
											<anamorphic>FALSE</anamorphic>
											<file id="file-301">
												<name>13_3.png</name>
												<pathurl>file://localhost/Volumes/1Tb/_MUZ_TV/project_AP/RU/_TITLE/END/PNG/13_3.png</pathurl>
												<rate>
													<timebase>30</timebase>
													<ntsc>TRUE</ntsc>
												</rate>
												<timecode>
													<rate>
														<timebase>30</timebase>
														<ntsc>TRUE</ntsc>
													</rate>
													<string>00;00;00;00</string>
													<frame>0</frame>
													<displayformat>DF</displayformat>
												</timecode>
												<media>
													<video>
														<samplecharacteristics>
															<rate>
																<timebase>30</timebase>
																<ntsc>TRUE</ntsc>
															</rate>
															<width>1920</width>
															<height>1080</height>
															<anamorphic>FALSE</anamorphic>
															<pixelaspectratio>square</pixelaspectratio>
															<fielddominance>none</fielddominance>
														</samplecharacteristics>
													</video>
												</media>
											</file>
											<filter>
												<effect>
													<name>Basic Motion</name>
													<effectid>basic</effectid>
													<effectcategory>motion</effectcategory>
													<effecttype>motion</effecttype>
													<mediatype>video</mediatype>
													<pproBypass>false</pproBypass>
													<parameter authoringApp="PremierePro">
														<parameterid>scale</parameterid>
														<name>Scale</name>
														<valuemin>0</valuemin>
														<valuemax>1000</valuemax>
														<value>53.3333</value>
													</parameter>
													<parameter authoringApp="PremierePro">
														<parameterid>rotation</parameterid>
														<name>Rotation</name>
														<valuemin>-8640</valuemin>
														<valuemax>8640</valuemax>
														<value>0</value>
													</parameter>
													<parameter authoringApp="PremierePro">
														<parameterid>center</parameterid>
														<name>Center</name>
														<value>
															<horiz>0</horiz>
															<vert>0</vert>
														</value>
													</parameter>
													<parameter authoringApp="PremierePro">
														<parameterid>centerOffset</parameterid>
														<name>Anchor Point</name>
														<value>
															<horiz>0</horiz>
															<vert>0</vert>
														</value>
													</parameter>
													<parameter authoringApp="PremierePro">
														<parameterid>antiflicker</parameterid>
														<name>Anti-flicker Filter</name>
														<valuemin>0.0</valuemin>
														<valuemax>1.0</valuemax>
														<value>0</value>
													</parameter>
												</effect>
											</filter>
											<logginginfo>
												<description></description>
												<scene></scene>
												<shottake></shottake>
												<lognote></lognote>
												<good></good>
												<originalvideofilename></originalvideofilename>
												<originalaudiofilename></originalaudiofilename>
											</logginginfo>
											<colorinfo>
												<lut></lut>
												<lut1></lut1>
												<asc_sop></asc_sop>
												<asc_sat></asc_sat>
												<lut2></lut2>
											</colorinfo>
											<labels>
												<label2>Lavender</label2>
											</labels>
										</clipitem>
										<transitionitem>
											<start>1095</start>
											<end>1120</end>
											<alignment>end-black</alignment>
											<cutPointTicks>254016000000</cutPointTicks>
											<rate>
												<timebase>25</timebase>
												<ntsc>FALSE</ntsc>
											</rate>
											<effect>
												<name>Edge Wipe</name>
												<effectid>Edge Wipe</effectid>
												<effectcategory>Wipe</effectcategory>
												<effecttype>transition</effecttype>
												<mediatype>video</mediatype>
												<wipecode>2</wipecode>
												<wipeaccuracy>100</wipeaccuracy>
												<startratio>0</startratio>
												<endratio>1</endratio>
												<reverse>FALSE</reverse>
												<parameter authoringApp="PremierePro">
													<parameterid>directionofwipe</parameterid>
													<name>Angle</name>
													<valuemin>-360</valuemin>
													<valuemax>360</valuemax>
													<value>90</value>
												</parameter>
											</effect>
										</transitionitem>
										<enabled>TRUE</enabled>
										<locked>FALSE</locked>
									</track>
									<track TL.SQTrackShy="0" TL.SQTrackExpandedHeight="25" TL.SQTrackExpanded="0" MZ.TrackTargeted="0">
										<transitionitem>
											<start>755</start>
											<end>780</end>
											<alignment>start-black</alignment>
											<cutPointTicks>0</cutPointTicks>
											<rate>
												<timebase>25</timebase>
												<ntsc>FALSE</ntsc>
											</rate>
											<effect>
												<name>Edge Wipe</name>
												<effectid>Edge Wipe</effectid>
												<effectcategory>Wipe</effectcategory>
												<effecttype>transition</effecttype>
												<mediatype>video</mediatype>
												<wipecode>2</wipecode>
												<wipeaccuracy>100</wipeaccuracy>
												<startratio>0</startratio>
												<endratio>1</endratio>
												<reverse>FALSE</reverse>
												<parameter authoringApp="PremierePro">
													<parameterid>directionofwipe</parameterid>
													<name>Angle</name>
													<valuemin>-360</valuemin>
													<valuemax>360</valuemax>
													<value>270</value>
												</parameter>
											</effect>
										</transitionitem>
										<clipitem id="clipitem-744">
											<masterclipid>masterclip-351</masterclipid>
											<name>Graphic</name>
											<enabled>FALSE</enabled>
											<duration>1080000</duration>
											<rate>
												<timebase>25</timebase>
												<ntsc>FALSE</ntsc>
											</rate>
											<start>-1</start>
											<end>-1</end>
											<in>89905</in>
											<out>90272</out>
											<pproTicksIn>913492339200000</pproTicksIn>
											<pproTicksOut>917221294080000</pproTicksOut>
											<alphatype>straight</alphatype>
											<pixelaspectratio>PAL-601</pixelaspectratio>
											<anamorphic>TRUE</anamorphic>
											<file id="file-302">
												<name>Graphic</name>
												<mediaSource>GraphicAndType</mediaSource>
												<rate>
													<timebase>30</timebase>
													<ntsc>TRUE</ntsc>
												</rate>
												<timecode>
													<rate>
														<timebase>30</timebase>
														<ntsc>TRUE</ntsc>
													</rate>
													<string>00;00;00;00</string>
													<frame>0</frame>
													<displayformat>DF</displayformat>
												</timecode>
												<media>
													<video>
														<samplecharacteristics>
															<rate>
																<timebase>30</timebase>
																<ntsc>TRUE</ntsc>
															</rate>
															<width>720</width>
															<height>576</height>
															<anamorphic>TRUE</anamorphic>
															<pixelaspectratio>PAL-601</pixelaspectratio>
															<fielddominance>none</fielddominance>
														</samplecharacteristics>
													</video>
												</media>
											</file>
											<filter>
												<effect>
													<name>Vector Motion</name>
													<effectid>GraphicGroup</effectid>
													<effectcategory>graphic</effectcategory>
													<effecttype>filter</effecttype>
													<mediatype>video</mediatype>
													<pproBypass>false</pproBypass>
													<parameter authoringApp="PremierePro">
														<parameterid>1</parameterid>
														<name>Position</name>
														<IsTimeVarying>false</IsTimeVarying>
														<value>-91445760000000000,0.81693898908787344:0.49085601568222115,0,0,0,0,0,0,5,4,0,0,0,0</value>
													</parameter>
													<parameter authoringApp="PremierePro">
														<parameterid>2</parameterid>
														<name>Scale</name>
														<IsTimeVarying>false</IsTimeVarying>
														<ParameterControlType>2</ParameterControlType>
														<LowerBound>0</LowerBound>
														<UpperBound>10000</UpperBound>
														<UpperUIBound>200</UpperUIBound>
														<value>-91445760000000000,100.,0,0,0,0,0,0</value>
													</parameter>
													<parameter authoringApp="PremierePro">
														<parameterid>3</parameterid>
														<name>Scale Width</name>
														<IsTimeVarying>false</IsTimeVarying>
														<ParameterControlType>2</ParameterControlType>
														<LowerBound>0</LowerBound>
														<UpperBound>10000</UpperBound>
														<UpperUIBound>200</UpperUIBound>
														<value>-91445760000000000,100.,0,0,0,0,0,0</value>
													</parameter>
													<parameter authoringApp="PremierePro">
														<parameterid>4</parameterid>
														<name> </name>
														<IsTimeVarying>false</IsTimeVarying>
														<ParameterControlType>4</ParameterControlType>
														<LowerBound>false</LowerBound>
														<UpperBound>true</UpperBound>
														<value>-91445760000000000,true,0,0,0,0,0,0</value>
													</parameter>
													<parameter authoringApp="PremierePro">
														<parameterid>5</parameterid>
														<name>Rotation</name>
														<IsTimeVarying>false</IsTimeVarying>
														<ParameterControlType>3</ParameterControlType>
														<LowerBound>-32768</LowerBound>
														<UpperBound>32767</UpperBound>
														<value>-91445760000000000,0.,0,0,0,0,0,0</value>
													</parameter>
													<parameter authoringApp="PremierePro">
														<parameterid>6</parameterid>
														<name>Anchor Point</name>
														<IsTimeVarying>false</IsTimeVarying>
														<value>-91445760000000000,0.5:0.5,0,0,0,0,0,0,5,4,0,0,0,0</value>
													</parameter>
												</effect>
											</filter>
											<filter>
												<effect>
													<name>Данил Прытков признаётся, &#13;что сильные провалы &#13;мотивируют его на творчество &#13;не меньше, чем победы. </name>
													<effectid>GraphicAndType</effectid>
													<effectcategory>graphic</effectcategory>
													<effecttype>filter</effecttype>
													<mediatype>video</mediatype>
													<pproBypass>false</pproBypass>
													<pproExpanded>true</pproExpanded>
													<parameter authoringApp="PremierePro">
														<parameterid>1</parameterid>
														<name>Source Text</name>
														<hash>698123b5-7d57-7b79-efb1-b0df00000a31</hash>
													</parameter>
													<parameter authoringApp="PremierePro">
														<parameterid>2</parameterid>
														<name>Transform</name>
														<IsTimeVarying>false</IsTimeVarying>
														<ParameterControlType>11</ParameterControlType>
														<LowerBound>false</LowerBound>
														<UpperBound>false</UpperBound>
														<value>-91445760000000000,false,0,0,0,0,0,0</value>
													</parameter>
													<parameter authoringApp="PremierePro">
														<parameterid>3</parameterid>
														<name>Position</name>
														<IsTimeVarying>false</IsTimeVarying>
														<value>-91445760000000000,0.270416259765625:0.640594482421875,0,0,0,0,0,0,5,4,0,0,0,0</value>
													</parameter>
													<parameter authoringApp="PremierePro">
														<parameterid>4</parameterid>
														<name>Scale</name>
														<IsTimeVarying>false</IsTimeVarying>
														<ParameterControlType>2</ParameterControlType>
														<LowerBound>0</LowerBound>
														<UpperBound>4000</UpperBound>
														<value>-91445760000000000,100.,0,0,0,0,0,0</value>
													</parameter>
													<parameter authoringApp="PremierePro">
														<parameterid>5</parameterid>
														<name>Horizontal Scale</name>
														<IsTimeVarying>false</IsTimeVarying>
														<ParameterControlType>2</ParameterControlType>
														<LowerBound>0</LowerBound>
														<UpperBound>4000</UpperBound>
														<value>-91445760000000000,100.,0,0,0,0,0,0</value>
													</parameter>
													<parameter authoringApp="PremierePro">
														<parameterid>6</parameterid>
														<name> </name>
														<IsTimeVarying>false</IsTimeVarying>
														<ParameterControlType>4</ParameterControlType>
														<LowerBound>false</LowerBound>
														<UpperBound>true</UpperBound>
														<value>-91445760000000000,true,0,0,0,0,0,0</value>
													</parameter>
													<parameter authoringApp="PremierePro">
														<parameterid>7</parameterid>
														<name>Rotation</name>
														<IsTimeVarying>false</IsTimeVarying>
														<ParameterControlType>3</ParameterControlType>
														<LowerBound>-32768</LowerBound>
														<UpperBound>32767</UpperBound>
														<value>-91445760000000000,0.,0,0,0,0,0,0</value>
													</parameter>
													<parameter authoringApp="PremierePro">
														<parameterid>8</parameterid>
														<name>Opacity</name>
														<IsTimeVarying>false</IsTimeVarying>
														<ParameterControlType>2</ParameterControlType>
														<LowerBound>0</LowerBound>
														<UpperBound>100</UpperBound>
														<value>-91445760000000000,100.,0,0,0,0,0,0</value>
													</parameter>
													<parameter authoringApp="PremierePro">
														<parameterid>9</parameterid>
														<name>Anchor Point</name>
														<IsTimeVarying>false</IsTimeVarying>
														<value>-91445760000000000,0:0,0,0,0,0,0,0,5,4,0,0,0,0</value>
													</parameter>
													<parameter authoringApp="PremierePro">
														<parameterid>10</parameterid>
														<name></name>
														<IsTimeVarying>false</IsTimeVarying>
														<ParameterControlType>12</ParameterControlType>
														<LowerBound>false</LowerBound>
														<UpperBound>false</UpperBound>
														<value>-91445760000000000,false,0,0,0,0,0,0</value>
													</parameter>
													<parameter authoringApp="PremierePro">
														<parameterid>11</parameterid>
														<name> </name>
														<IsTimeVarying>false</IsTimeVarying>
														<ParameterControlType>8</ParameterControlType>
														<LowerBound>0</LowerBound>
														<UpperBound>32768</UpperBound>
														<value>-91445760000000000,0.,0,0,0,0,0,0</value>
													</parameter>
													<parameter authoringApp="PremierePro">
														<parameterid>12</parameterid>
														<name> </name>
														<IsTimeVarying>false</IsTimeVarying>
														<ParameterControlType>8</ParameterControlType>
														<LowerBound>0</LowerBound>
														<UpperBound>32768</UpperBound>
														<value>-91445760000000000,0.,0,0,0,0,0,0</value>
													</parameter>
													<parameter authoringApp="PremierePro">
														<parameterid>13</parameterid>
														<name>start</name>
														<IsTimeVarying>false</IsTimeVarying>
														<ParameterControlType>8</ParameterControlType>
														<LowerBound>-100</LowerBound>
														<UpperBound>1000000000</UpperBound>
														<value>-91445760000000000,0.,0,0,0,0,0,0</value>
													</parameter>
													<parameter authoringApp="PremierePro">
														<parameterid>14</parameterid>
														<name>end</name>
														<IsTimeVarying>false</IsTimeVarying>
														<ParameterControlType>8</ParameterControlType>
														<LowerBound>-100</LowerBound>
														<UpperBound>1000000000</UpperBound>
														<value>-91445760000000000,101.,0,0,0,0,0,0</value>
													</parameter>
													<parameter authoringApp="PremierePro">
														<parameterid>15</parameterid>
														<name> </name>
														<IsTimeVarying>false</IsTimeVarying>
														<ParameterControlType>4</ParameterControlType>
														<LowerBound>false</LowerBound>
														<UpperBound>true</UpperBound>
														<value>-91445760000000000,false,0,0,0,0,0,0</value>
													</parameter>
													<parameter authoringApp="PremierePro">
														<parameterid>16</parameterid>
														<name> </name>
														<IsTimeVarying>false</IsTimeVarying>
														<ParameterControlType>4</ParameterControlType>
														<LowerBound>false</LowerBound>
														<UpperBound>true</UpperBound>
														<value>-91445760000000000,false,0,0,0,0,0,0</value>
													</parameter>
													<parameter authoringApp="PremierePro">
														<parameterid>17</parameterid>
														<name> </name>
														<IsTimeVarying>false</IsTimeVarying>
														<ParameterControlType>4</ParameterControlType>
														<LowerBound>false</LowerBound>
														<UpperBound>true</UpperBound>
														<value>-91445760000000000,false,0,0,0,0,0,0</value>
													</parameter>
													<parameter authoringApp="PremierePro">
														<parameterid>18</parameterid>
														<name> </name>
														<IsTimeVarying>false</IsTimeVarying>
														<ParameterControlType>4</ParameterControlType>
														<LowerBound>false</LowerBound>
														<UpperBound>true</UpperBound>
														<value>-91445760000000000,false,0,0,0,0,0,0</value>
													</parameter>
													<parameter authoringApp="PremierePro">
														<parameterid>19</parameterid>
														<name>Parent Width</name>
														<IsTimeVarying>false</IsTimeVarying>
														<ParameterControlType>2</ParameterControlType>
														<LowerBound>0</LowerBound>
														<UpperBound>20000</UpperBound>
														<value>-91445760000000000,0.,0,0,0,0,0,0</value>
													</parameter>
													<parameter authoringApp="PremierePro">
														<parameterid>20</parameterid>
														<name>Parent Height</name>
														<IsTimeVarying>false</IsTimeVarying>
														<ParameterControlType>2</ParameterControlType>
														<LowerBound>0</LowerBound>
														<UpperBound>20000</UpperBound>
														<value>-91445760000000000,0.,0,0,0,0,0,0</value>
													</parameter>
													<parameter authoringApp="PremierePro">
														<parameterid>21</parameterid>
														<name>Parent Rotation</name>
														<IsTimeVarying>false</IsTimeVarying>
														<ParameterControlType>3</ParameterControlType>
														<LowerBound>-32768</LowerBound>
														<UpperBound>32767</UpperBound>
														<value>-91445760000000000,0.,0,0,0,0,0,0</value>
													</parameter>
												</effect>
											</filter>
											<logginginfo>
												<description></description>
												<scene></scene>
												<shottake></shottake>
												<lognote></lognote>
												<good></good>
												<originalvideofilename></originalvideofilename>
												<originalaudiofilename></originalaudiofilename>
											</logginginfo>
											<colorinfo>
												<lut></lut>
												<lut1></lut1>
												<asc_sop></asc_sop>
												<asc_sat></asc_sat>
												<lut2></lut2>
											</colorinfo>
										</clipitem>
										<transitionitem>
											<start>1097</start>
											<end>1122</end>
											<alignment>end-black</alignment>
											<cutPointTicks>254016000000</cutPointTicks>
											<rate>
												<timebase>25</timebase>
												<ntsc>FALSE</ntsc>
											</rate>
											<effect>
												<name>Edge Wipe</name>
												<effectid>Edge Wipe</effectid>
												<effectcategory>Wipe</effectcategory>
												<effecttype>transition</effecttype>
												<mediatype>video</mediatype>
												<wipecode>2</wipecode>
												<wipeaccuracy>100</wipeaccuracy>
												<startratio>0</startratio>
												<endratio>1</endratio>
												<reverse>FALSE</reverse>
												<parameter authoringApp="PremierePro">
													<parameterid>directionofwipe</parameterid>
													<name>Angle</name>
													<valuemin>-360</valuemin>
													<valuemax>360</valuemax>
													<value>90</value>
												</parameter>
											</effect>
										</transitionitem>
										<enabled>TRUE</enabled>
										<locked>FALSE</locked>
									</track>
								</video>
								<audio>
									<numOutputChannels>2</numOutputChannels>
									<format>
										<samplecharacteristics>
											<depth>16</depth>
											<samplerate>48000</samplerate>
										</samplecharacteristics>
									</format>
									<outputs>
										<group>
											<index>1</index>
											<numchannels>1</numchannels>
											<downmix>0</downmix>
											<channel>
												<index>1</index>
											</channel>
										</group>
										<group>
											<index>2</index>
											<numchannels>1</numchannels>
											<downmix>0</downmix>
											<channel>
												<index>2</index>
											</channel>
										</group>
									</outputs>
									<track TL.SQTrackAudioKeyframeStyle="0" TL.SQTrackShy="0" TL.SQTrackExpandedHeight="25" TL.SQTrackExpanded="0" MZ.TrackTargeted="1" PannerCurrentValue="0.5" PannerStartKeyframe="-91445760000000000,0.5,0,0,0,0,0,0" PannerName="Balance" currentExplodedTrackIndex="0" totalExplodedTrackCount="2" premiereTrackType="Stereo">
										<enabled>TRUE</enabled>
										<locked>FALSE</locked>
										<outputchannelindex>1</outputchannelindex>
									</track>
									<track TL.SQTrackAudioKeyframeStyle="0" TL.SQTrackShy="0" TL.SQTrackExpandedHeight="25" TL.SQTrackExpanded="0" MZ.TrackTargeted="1" PannerCurrentValue="0.5" PannerStartKeyframe="-91445760000000000,0.5,0,0,0,0,0,0" PannerName="Balance" currentExplodedTrackIndex="1" totalExplodedTrackCount="2" premiereTrackType="Stereo">
										<enabled>TRUE</enabled>
										<locked>FALSE</locked>
										<outputchannelindex>2</outputchannelindex>
									</track>
								</audio>
							</media>
							<timecode>
								<rate>
									<timebase>25</timebase>
									<ntsc>FALSE</ntsc>
								</rate>
								<string>00:00:00:00</string>
								<frame>0</frame>
								<displayformat>NDF</displayformat>
							</timecode>
								<marker>
									<comment></comment>
									<name></name>
									<in>425</in>
									<out>-1</out>
									<pproColor>4292277273</pproColor>
								</marker>
								<marker>
									<comment></comment>
									<name></name>
									<in>50</in>
									<out>-1</out>
									<pproColor>4292277273</pproColor>
								</marker>
								<marker>
									<comment></comment>
									<name></name>
									<in>800</in>
									<out>-1</out>
									<pproColor>4292277273</pproColor>
								</marker>
							<logginginfo>
								<description></description>
								<scene></scene>
								<shottake></shottake>
								<lognote></lognote>
								<good></good>
								<originalvideofilename></originalvideofilename>
								<originalaudiofilename></originalaudiofilename>
							</logginginfo>
						</sequence>
							<marker>
								<comment></comment>
								<name></name>
								<in>425</in>
								<out>-1</out>
								<pproColor>4292277273</pproColor>
							</marker>
							<marker>
								<comment></comment>
								<name></name>
								<in>50</in>
								<out>-1</out>
								<pproColor>4292277273</pproColor>
							</marker>
							<marker>
								<comment></comment>
								<name></name>
								<in>800</in>
								<out>-1</out>
								<pproColor>4292277273</pproColor>
							</marker>
						<labels>
							<label2>Forest</label2>
						</labels>
					</clipitem>
					<clipitem id="clipitem-745">
						<masterclipid>masterclip-346</masterclipid>
						<name>13</name>
						<enabled>TRUE</enabled>
						<duration>1125</duration>
						<rate>
							<timebase>25</timebase>
							<ntsc>FALSE</ntsc>
						</rate>
						<start>6790</start>
						<end>7165</end>
						<in>0</in>
						<out>375</out>
						<pproTicksIn>0</pproTicksIn>
						<pproTicksOut>3810240000000</pproTicksOut>
						<sequence id="sequence-53"/>
							<marker>
								<comment></comment>
								<name></name>
								<in>425</in>
								<out>-1</out>
								<pproColor>4292277273</pproColor>
							</marker>
							<marker>
								<comment></comment>
								<name></name>
								<in>50</in>
								<out>-1</out>
								<pproColor>4292277273</pproColor>
							</marker>
							<marker>
								<comment></comment>
								<name></name>
								<in>800</in>
								<out>-1</out>
								<pproColor>4292277273</pproColor>
							</marker>
						<labels>
							<label2>Forest</label2>
						</labels>
					</clipitem>
					<clipitem id="clipitem-746">
						<masterclipid>masterclip-346</masterclipid>
						<name>13</name>
						<enabled>TRUE</enabled>
						<duration>1125</duration>
						<rate>
							<timebase>25</timebase>
							<ntsc>FALSE</ntsc>
						</rate>
						<start>7546</start>
						<end>7921</end>
						<in>750</in>
						<out>1125</out>
						<pproTicksIn>7620480000000</pproTicksIn>
						<pproTicksOut>11430720000000</pproTicksOut>
						<sequence id="sequence-53"/>
							<marker>
								<comment></comment>
								<name></name>
								<in>425</in>
								<out>-1</out>
								<pproColor>4292277273</pproColor>
							</marker>
							<marker>
								<comment></comment>
								<name></name>
								<in>50</in>
								<out>-1</out>
								<pproColor>4292277273</pproColor>
							</marker>
							<marker>
								<comment></comment>
								<name></name>
								<in>800</in>
								<out>-1</out>
								<pproColor>4292277273</pproColor>
							</marker>
						<labels>
							<label2>Forest</label2>
						</labels>
					</clipitem>
					<clipitem id="clipitem-747">
						<masterclipid>masterclip-352</masterclipid>
						<name>11</name>
						<enabled>TRUE</enabled>
						<duration>1125</duration>
						<rate>
							<timebase>25</timebase>
							<ntsc>FALSE</ntsc>
						</rate>
						<start>9997</start>
						<end>10372</end>
						<in>0</in>
						<out>375</out>
						<pproTicksIn>0</pproTicksIn>
						<pproTicksOut>3810240000000</pproTicksOut>
						<sequence id="sequence-54" TL.SQAudioVisibleBase="0" TL.SQVideoVisibleBase="0" TL.SQVisibleBaseTime="0" TL.SQAVDividerPosition="0.5" TL.SQHideShyTracks="0" TL.SQHeaderWidth="236" Monitor.ProgramZoomOut="7620480000000" Monitor.ProgramZoomIn="0" TL.SQTimePerPixel="0.09810333551340282" AM.TrackVScrollPosition="0" AM.TrackScrollPosition="0" MZ.EditLine="10180961280000" MZ.Sequence.PreviewFrameSizeHeight="576" MZ.Sequence.PreviewFrameSizeWidth="720" MZ.Sequence.AudioTimeDisplayFormat="200" MZ.Sequence.PreviewRenderingClassID="1061109567" MZ.Sequence.PreviewRenderingPresetCodec="1685480304" MZ.Sequence.PreviewRenderingPresetPath="EncoderPresets/SequencePreview/04be6e19-a018-4e0c-a9d6-0ab44c64752b/QuickTime DV PAL.epr" MZ.Sequence.PreviewUseMaxRenderQuality="false" MZ.Sequence.PreviewUseMaxBitDepth="false" MZ.Sequence.EditingModeGUID="04be6e19-a018-4e0c-a9d6-0ab44c64752b" MZ.Sequence.VideoTimeDisplayFormat="101" MZ.WorkOutPoint="11430720000000" MZ.WorkInPoint="0" MZ.ZeroPoint="0">
							<duration>750</duration>
							<rate>
								<timebase>25</timebase>
								<ntsc>FALSE</ntsc>
							</rate>
							<name>RU_Nested</name>
							<media>
								<video>
									<format>
										<samplecharacteristics>
											<rate>
												<timebase>25</timebase>
												<ntsc>FALSE</ntsc>
											</rate>
											<codec>
												<name>Apple ProRes 422</name>
												<appspecificdata>
													<appname>Final Cut Pro</appname>
													<appmanufacturer>Apple Inc.</appmanufacturer>
													<appversion>7.0</appversion>
													<data>
														<qtcodec>
															<codecname>Apple ProRes 422</codecname>
															<codectypename>Apple ProRes 422</codectypename>
															<codectypecode>apcn</codectypecode>
															<codecvendorcode>appl</codecvendorcode>
															<spatialquality>1024</spatialquality>
															<temporalquality>0</temporalquality>
															<keyframerate>0</keyframerate>
															<datarate>0</datarate>
														</qtcodec>
													</data>
												</appspecificdata>
											</codec>
											<width>720</width>
											<height>576</height>
											<anamorphic>TRUE</anamorphic>
											<pixelaspectratio>PAL-601</pixelaspectratio>
											<fielddominance>lower</fielddominance>
											<colordepth>24</colordepth>
										</samplecharacteristics>
									</format>
									<track TL.SQTrackShy="0" TL.SQTrackExpandedHeight="25" TL.SQTrackExpanded="0" MZ.TrackTargeted="1">
										<clipitem id="clipitem-748">
											<masterclipid>masterclip-353</masterclipid>
											<name>Plashka_Right_DV.mov</name>
											<enabled>TRUE</enabled>
											<duration>375</duration>
											<rate>
												<timebase>25</timebase>
												<ntsc>FALSE</ntsc>
											</rate>
											<start>0</start>
											<end>375</end>
											<in>0</in>
											<out>375</out>
											<pproTicksIn>0</pproTicksIn>
											<pproTicksOut>3810240000000</pproTicksOut>
											<alphatype>straight</alphatype>
											<pixelaspectratio>PAL-601</pixelaspectratio>
											<anamorphic>TRUE</anamorphic>
											<file id="file-303">
												<name>Plashka_Right_DV.mov</name>
												<pathurl>file://localhost/Volumes/1Tb/_MUZ_TV/graphika/RU-21/MOD/Plashka_Right_DV.mov</pathurl>
												<rate>
													<timebase>25</timebase>
													<ntsc>FALSE</ntsc>
												</rate>
												<duration>375</duration>
												<timecode>
													<rate>
														<timebase>25</timebase>
														<ntsc>FALSE</ntsc>
													</rate>
													<string>00:00:15:10</string>
													<frame>385</frame>
													<displayformat>NDF</displayformat>
												</timecode>
												<media>
													<video>
														<samplecharacteristics>
															<rate>
																<timebase>25</timebase>
																<ntsc>FALSE</ntsc>
															</rate>
															<width>720</width>
															<height>576</height>
															<anamorphic>TRUE</anamorphic>
															<pixelaspectratio>PAL-601</pixelaspectratio>
															<fielddominance>lower</fielddominance>
														</samplecharacteristics>
													</video>
												</media>
											</file>
											<filter>
												<effect>
													<name>Basic Motion</name>
													<effectid>basic</effectid>
													<effectcategory>motion</effectcategory>
													<effecttype>motion</effecttype>
													<mediatype>video</mediatype>
													<pproBypass>false</pproBypass>
													<parameter authoringApp="PremierePro">
														<parameterid>scale</parameterid>
														<name>Scale</name>
														<valuemin>0</valuemin>
														<valuemax>1000</valuemax>
														<value>104</value>
													</parameter>
													<parameter authoringApp="PremierePro">
														<parameterid>rotation</parameterid>
														<name>Rotation</name>
														<valuemin>-8640</valuemin>
														<valuemax>8640</valuemax>
														<value>0</value>
													</parameter>
													<parameter authoringApp="PremierePro">
														<parameterid>center</parameterid>
														<name>Center</name>
														<value>
															<horiz>-5.55112e-17</horiz>
															<vert>-1.11022e-16</vert>
														</value>
													</parameter>
													<parameter authoringApp="PremierePro">
														<parameterid>centerOffset</parameterid>
														<name>Anchor Point</name>
														<value>
															<horiz>0.402314</horiz>
															<vert>0.41875</vert>
														</value>
													</parameter>
													<parameter authoringApp="PremierePro">
														<parameterid>antiflicker</parameterid>
														<name>Anti-flicker Filter</name>
														<valuemin>0.0</valuemin>
														<valuemax>1.0</valuemax>
														<value>0</value>
													</parameter>
												</effect>
											</filter>
											<filter>
												<effect>
													<name>Distort</name>
													<effectid>deformation</effectid>
													<effectcategory>motion</effectcategory>
													<effecttype>motion</effecttype>
													<mediatype>video</mediatype>
													<parameter authoringApp="PremierePro">
														<parameterid>aspect</parameterid>
														<name>Aspect</name>
														<valuemin>-10000</valuemin>
														<valuemax>10000</valuemax>
														<value>-4</value>
													</parameter>
												</effect>
											</filter>
											<logginginfo>
												<description></description>
												<scene></scene>
												<shottake></shottake>
												<lognote></lognote>
												<good></good>
												<originalvideofilename></originalvideofilename>
												<originalaudiofilename></originalaudiofilename>
											</logginginfo>
											<colorinfo>
												<lut></lut>
												<lut1></lut1>
												<asc_sop></asc_sop>
												<asc_sat></asc_sat>
												<lut2></lut2>
											</colorinfo>
											<labels>
												<label2>Violet</label2>
											</labels>
										</clipitem>
										<clipitem id="clipitem-749">
											<masterclipid>masterclip-353</masterclipid>
											<name>Plashka_Right_DV.mov</name>
											<enabled>TRUE</enabled>
											<duration>375</duration>
											<rate>
												<timebase>25</timebase>
												<ntsc>FALSE</ntsc>
											</rate>
											<start>375</start>
											<end>750</end>
											<in>0</in>
											<out>375</out>
											<pproTicksIn>0</pproTicksIn>
											<pproTicksOut>3810240000000</pproTicksOut>
											<alphatype>straight</alphatype>
											<file id="file-303"/>
											<filter>
												<effect>
													<name>Basic Motion</name>
													<effectid>basic</effectid>
													<effectcategory>motion</effectcategory>
													<effecttype>motion</effecttype>
													<mediatype>video</mediatype>
													<pproBypass>false</pproBypass>
													<parameter authoringApp="PremierePro">
														<parameterid>scale</parameterid>
														<name>Scale</name>
														<valuemin>0</valuemin>
														<valuemax>1000</valuemax>
														<value>100</value>
													</parameter>
													<parameter authoringApp="PremierePro">
														<parameterid>rotation</parameterid>
														<name>Rotation</name>
														<valuemin>-8640</valuemin>
														<valuemax>8640</valuemax>
														<value>0</value>
													</parameter>
													<parameter authoringApp="PremierePro">
														<parameterid>center</parameterid>
														<name>Center</name>
														<value>
															<horiz>-5.55112e-17</horiz>
															<vert>-1.11022e-16</vert>
														</value>
													</parameter>
													<parameter authoringApp="PremierePro">
														<parameterid>centerOffset</parameterid>
														<name>Anchor Point</name>
														<value>
															<horiz>0.402314</horiz>
															<vert>0.41875</vert>
														</value>
													</parameter>
													<parameter authoringApp="PremierePro">
														<parameterid>antiflicker</parameterid>
														<name>Anti-flicker Filter</name>
														<valuemin>0.0</valuemin>
														<valuemax>1.0</valuemax>
														<value>0</value>
													</parameter>
												</effect>
											</filter>
											<filter>
												<effect>
													<name>Distort</name>
													<effectid>deformation</effectid>
													<effectcategory>motion</effectcategory>
													<effecttype>motion</effecttype>
													<mediatype>video</mediatype>
													<parameter authoringApp="PremierePro">
														<parameterid>aspect</parameterid>
														<name>Aspect</name>
														<valuemin>-10000</valuemin>
														<valuemax>10000</valuemax>
														<value>21.9512</value>
													</parameter>
												</effect>
											</filter>
											<logginginfo>
												<description></description>
												<scene></scene>
												<shottake></shottake>
												<lognote></lognote>
												<good></good>
												<originalvideofilename></originalvideofilename>
												<originalaudiofilename></originalaudiofilename>
											</logginginfo>
											<colorinfo>
												<lut></lut>
												<lut1></lut1>
												<asc_sop></asc_sop>
												<asc_sat></asc_sat>
												<lut2></lut2>
											</colorinfo>
											<labels>
												<label2>Violet</label2>
											</labels>
										</clipitem>
										<enabled>TRUE</enabled>
										<locked>FALSE</locked>
									</track>
									<track TL.SQTrackShy="0" TL.SQTrackExpandedHeight="25" TL.SQTrackExpanded="0" MZ.TrackTargeted="0">
										<transitionitem>
											<start>6</start>
											<end>35</end>
											<alignment>start-black</alignment>
											<cutPointTicks>0</cutPointTicks>
											<rate>
												<timebase>25</timebase>
												<ntsc>FALSE</ntsc>
											</rate>
											<effect>
												<name>Edge Wipe</name>
												<effectid>Edge Wipe</effectid>
												<effectcategory>Wipe</effectcategory>
												<effecttype>transition</effecttype>
												<mediatype>video</mediatype>
												<wipecode>2</wipecode>
												<wipeaccuracy>100</wipeaccuracy>
												<startratio>0</startratio>
												<endratio>1</endratio>
												<reverse>FALSE</reverse>
												<parameter authoringApp="PremierePro">
													<parameterid>directionofwipe</parameterid>
													<name>Angle</name>
													<valuemin>-360</valuemin>
													<valuemax>360</valuemax>
													<value>270</value>
												</parameter>
											</effect>
										</transitionitem>
										<clipitem id="clipitem-750">
											<masterclipid>masterclip-354</masterclipid>
											<name>11_1.png</name>
											<enabled>TRUE</enabled>
											<duration>1080000</duration>
											<rate>
												<timebase>25</timebase>
												<ntsc>FALSE</ntsc>
											</rate>
											<start>-1</start>
											<end>-1</end>
											<in>90006</in>
											<out>90369</out>
											<pproTicksIn>914518563840000</pproTicksIn>
											<pproTicksOut>918206876160000</pproTicksOut>
											<alphatype>straight</alphatype>
											<pixelaspectratio>square</pixelaspectratio>
											<anamorphic>FALSE</anamorphic>
											<file id="file-304">
												<name>11_1.png</name>
												<pathurl>file://localhost/_MUZ_TV/project_AP/RU/_TITLE/END/PNG/11_1.png</pathurl>
												<rate>
													<timebase>30</timebase>
													<ntsc>TRUE</ntsc>
												</rate>
												<timecode>
													<rate>
														<timebase>30</timebase>
														<ntsc>TRUE</ntsc>
													</rate>
													<string>00;00;00;00</string>
													<frame>0</frame>
													<displayformat>DF</displayformat>
												</timecode>
												<media>
													<video>
														<samplecharacteristics>
															<rate>
																<timebase>30</timebase>
																<ntsc>TRUE</ntsc>
															</rate>
															<width>1920</width>
															<height>1080</height>
															<anamorphic>FALSE</anamorphic>
															<pixelaspectratio>square</pixelaspectratio>
															<fielddominance>none</fielddominance>
														</samplecharacteristics>
													</video>
												</media>
											</file>
											<filter>
												<effect>
													<name>Basic Motion</name>
													<effectid>basic</effectid>
													<effectcategory>motion</effectcategory>
													<effecttype>motion</effecttype>
													<mediatype>video</mediatype>
													<pproBypass>false</pproBypass>
													<parameter authoringApp="PremierePro">
														<parameterid>scale</parameterid>
														<name>Scale</name>
														<valuemin>0</valuemin>
														<valuemax>1000</valuemax>
														<value>53.3333</value>
													</parameter>
													<parameter authoringApp="PremierePro">
														<parameterid>rotation</parameterid>
														<name>Rotation</name>
														<valuemin>-8640</valuemin>
														<valuemax>8640</valuemax>
														<value>0</value>
													</parameter>
													<parameter authoringApp="PremierePro">
														<parameterid>center</parameterid>
														<name>Center</name>
														<value>
															<horiz>0</horiz>
															<vert>0</vert>
														</value>
													</parameter>
													<parameter authoringApp="PremierePro">
														<parameterid>centerOffset</parameterid>
														<name>Anchor Point</name>
														<value>
															<horiz>0</horiz>
															<vert>0</vert>
														</value>
													</parameter>
													<parameter authoringApp="PremierePro">
														<parameterid>antiflicker</parameterid>
														<name>Anti-flicker Filter</name>
														<valuemin>0.0</valuemin>
														<valuemax>1.0</valuemax>
														<value>0</value>
													</parameter>
												</effect>
											</filter>
											<logginginfo>
												<description></description>
												<scene></scene>
												<shottake></shottake>
												<lognote></lognote>
												<good></good>
												<originalvideofilename></originalvideofilename>
												<originalaudiofilename></originalaudiofilename>
											</logginginfo>
											<colorinfo>
												<lut></lut>
												<lut1></lut1>
												<asc_sop></asc_sop>
												<asc_sat></asc_sat>
												<lut2></lut2>
											</colorinfo>
											<labels>
												<label2>Lavender</label2>
											</labels>
										</clipitem>
										<transitionitem>
											<start>344</start>
											<end>369</end>
											<alignment>end-black</alignment>
											<cutPointTicks>254016000000</cutPointTicks>
											<rate>
												<timebase>25</timebase>
												<ntsc>FALSE</ntsc>
											</rate>
											<effect>
												<name>Edge Wipe</name>
												<effectid>Edge Wipe</effectid>
												<effectcategory>Wipe</effectcategory>
												<effecttype>transition</effecttype>
												<mediatype>video</mediatype>
												<wipecode>2</wipecode>
												<wipeaccuracy>100</wipeaccuracy>
												<startratio>0</startratio>
												<endratio>1</endratio>
												<reverse>FALSE</reverse>
												<parameter authoringApp="PremierePro">
													<parameterid>directionofwipe</parameterid>
													<name>Angle</name>
													<valuemin>-360</valuemin>
													<valuemax>360</valuemax>
													<value>90</value>
												</parameter>
											</effect>
										</transitionitem>
										<transitionitem>
											<start>381</start>
											<end>410</end>
											<alignment>start-black</alignment>
											<cutPointTicks>0</cutPointTicks>
											<rate>
												<timebase>25</timebase>
												<ntsc>FALSE</ntsc>
											</rate>
											<effect>
												<name>Edge Wipe</name>
												<effectid>Edge Wipe</effectid>
												<effectcategory>Wipe</effectcategory>
												<effecttype>transition</effecttype>
												<mediatype>video</mediatype>
												<wipecode>2</wipecode>
												<wipeaccuracy>100</wipeaccuracy>
												<startratio>0</startratio>
												<endratio>1</endratio>
												<reverse>FALSE</reverse>
												<parameter authoringApp="PremierePro">
													<parameterid>directionofwipe</parameterid>
													<name>Angle</name>
													<valuemin>-360</valuemin>
													<valuemax>360</valuemax>
													<value>270</value>
												</parameter>
											</effect>
										</transitionitem>
										<clipitem id="clipitem-751">
											<masterclipid>masterclip-355</masterclipid>
											<name>11_2.png</name>
											<enabled>TRUE</enabled>
											<duration>1080000</duration>
											<rate>
												<timebase>25</timebase>
												<ntsc>FALSE</ntsc>
											</rate>
											<start>-1</start>
											<end>-1</end>
											<in>90011</in>
											<out>90374</out>
											<pproTicksIn>914569367040000</pproTicksIn>
											<pproTicksOut>918257679360000</pproTicksOut>
											<alphatype>straight</alphatype>
											<pixelaspectratio>square</pixelaspectratio>
											<anamorphic>FALSE</anamorphic>
											<file id="file-305">
												<name>11_2.png</name>
												<pathurl>file://localhost/_MUZ_TV/project_AP/RU/_TITLE/END/PNG/11_2.png</pathurl>
												<rate>
													<timebase>30</timebase>
													<ntsc>TRUE</ntsc>
												</rate>
												<timecode>
													<rate>
														<timebase>30</timebase>
														<ntsc>TRUE</ntsc>
													</rate>
													<string>00;00;00;00</string>
													<frame>0</frame>
													<displayformat>DF</displayformat>
												</timecode>
												<media>
													<video>
														<samplecharacteristics>
															<rate>
																<timebase>30</timebase>
																<ntsc>TRUE</ntsc>
															</rate>
															<width>1920</width>
															<height>1080</height>
															<anamorphic>FALSE</anamorphic>
															<pixelaspectratio>square</pixelaspectratio>
															<fielddominance>none</fielddominance>
														</samplecharacteristics>
													</video>
												</media>
											</file>
											<filter>
												<effect>
													<name>Basic Motion</name>
													<effectid>basic</effectid>
													<effectcategory>motion</effectcategory>
													<effecttype>motion</effecttype>
													<mediatype>video</mediatype>
													<pproBypass>false</pproBypass>
													<parameter authoringApp="PremierePro">
														<parameterid>scale</parameterid>
														<name>Scale</name>
														<valuemin>0</valuemin>
														<valuemax>1000</valuemax>
														<value>53.3333</value>
													</parameter>
													<parameter authoringApp="PremierePro">
														<parameterid>rotation</parameterid>
														<name>Rotation</name>
														<valuemin>-8640</valuemin>
														<valuemax>8640</valuemax>
														<value>0</value>
													</parameter>
													<parameter authoringApp="PremierePro">
														<parameterid>center</parameterid>
														<name>Center</name>
														<value>
															<horiz>0</horiz>
															<vert>0</vert>
														</value>
													</parameter>
													<parameter authoringApp="PremierePro">
														<parameterid>centerOffset</parameterid>
														<name>Anchor Point</name>
														<value>
															<horiz>0</horiz>
															<vert>0</vert>
														</value>
													</parameter>
													<parameter authoringApp="PremierePro">
														<parameterid>antiflicker</parameterid>
														<name>Anti-flicker Filter</name>
														<valuemin>0.0</valuemin>
														<valuemax>1.0</valuemax>
														<value>0</value>
													</parameter>
												</effect>
											</filter>
											<logginginfo>
												<description></description>
												<scene></scene>
												<shottake></shottake>
												<lognote></lognote>
												<good></good>
												<originalvideofilename></originalvideofilename>
												<originalaudiofilename></originalaudiofilename>
											</logginginfo>
											<colorinfo>
												<lut></lut>
												<lut1></lut1>
												<asc_sop></asc_sop>
												<asc_sat></asc_sat>
												<lut2></lut2>
											</colorinfo>
											<labels>
												<label2>Lavender</label2>
											</labels>
										</clipitem>
										<transitionitem>
											<start>719</start>
											<end>744</end>
											<alignment>end-black</alignment>
											<cutPointTicks>254016000000</cutPointTicks>
											<rate>
												<timebase>25</timebase>
												<ntsc>FALSE</ntsc>
											</rate>
											<effect>
												<name>Edge Wipe</name>
												<effectid>Edge Wipe</effectid>
												<effectcategory>Wipe</effectcategory>
												<effecttype>transition</effecttype>
												<mediatype>video</mediatype>
												<wipecode>2</wipecode>
												<wipeaccuracy>100</wipeaccuracy>
												<startratio>0</startratio>
												<endratio>1</endratio>
												<reverse>FALSE</reverse>
												<parameter authoringApp="PremierePro">
													<parameterid>directionofwipe</parameterid>
													<name>Angle</name>
													<valuemin>-360</valuemin>
													<valuemax>360</valuemax>
													<value>90</value>
												</parameter>
											</effect>
										</transitionitem>
										<enabled>TRUE</enabled>
										<locked>FALSE</locked>
									</track>
									<track TL.SQTrackShy="0" TL.SQTrackExpandedHeight="25" TL.SQTrackExpanded="0" MZ.TrackTargeted="0">
										<enabled>TRUE</enabled>
										<locked>FALSE</locked>
									</track>
								</video>
								<audio>
									<numOutputChannels>2</numOutputChannels>
									<format>
										<samplecharacteristics>
											<depth>16</depth>
											<samplerate>48000</samplerate>
										</samplecharacteristics>
									</format>
									<outputs>
										<group>
											<index>1</index>
											<numchannels>1</numchannels>
											<downmix>0</downmix>
											<channel>
												<index>1</index>
											</channel>
										</group>
										<group>
											<index>2</index>
											<numchannels>1</numchannels>
											<downmix>0</downmix>
											<channel>
												<index>2</index>
											</channel>
										</group>
									</outputs>
									<track TL.SQTrackAudioKeyframeStyle="0" TL.SQTrackShy="0" TL.SQTrackExpandedHeight="25" TL.SQTrackExpanded="0" MZ.TrackTargeted="1" PannerCurrentValue="0.5" PannerStartKeyframe="-91445760000000000,0.5,0,0,0,0,0,0" PannerName="Balance" currentExplodedTrackIndex="0" totalExplodedTrackCount="2" premiereTrackType="Stereo">
										<enabled>TRUE</enabled>
										<locked>FALSE</locked>
										<outputchannelindex>1</outputchannelindex>
									</track>
									<track TL.SQTrackAudioKeyframeStyle="0" TL.SQTrackShy="0" TL.SQTrackExpandedHeight="25" TL.SQTrackExpanded="0" MZ.TrackTargeted="1" PannerCurrentValue="0.5" PannerStartKeyframe="-91445760000000000,0.5,0,0,0,0,0,0" PannerName="Balance" currentExplodedTrackIndex="1" totalExplodedTrackCount="2" premiereTrackType="Stereo">
										<enabled>TRUE</enabled>
										<locked>FALSE</locked>
										<outputchannelindex>2</outputchannelindex>
									</track>
								</audio>
							</media>
							<timecode>
								<rate>
									<timebase>25</timebase>
									<ntsc>FALSE</ntsc>
								</rate>
								<string>00:00:00:00</string>
								<frame>0</frame>
								<displayformat>NDF</displayformat>
							</timecode>
								<marker>
									<comment></comment>
									<name></name>
									<in>800</in>
									<out>-1</out>
									<pproColor>4292277273</pproColor>
								</marker>
								<marker>
									<comment></comment>
									<name></name>
									<in>50</in>
									<out>-1</out>
									<pproColor>4292277273</pproColor>
								</marker>
								<marker>
									<comment></comment>
									<name></name>
									<in>425</in>
									<out>-1</out>
									<pproColor>4292277273</pproColor>
								</marker>
							<logginginfo>
								<description></description>
								<scene></scene>
								<shottake></shottake>
								<lognote></lognote>
								<good></good>
								<originalvideofilename></originalvideofilename>
								<originalaudiofilename></originalaudiofilename>
							</logginginfo>
						</sequence>
							<marker>
								<comment></comment>
								<name></name>
								<in>800</in>
								<out>-1</out>
								<pproColor>4292277273</pproColor>
							</marker>
							<marker>
								<comment></comment>
								<name></name>
								<in>50</in>
								<out>-1</out>
								<pproColor>4292277273</pproColor>
							</marker>
							<marker>
								<comment></comment>
								<name></name>
								<in>425</in>
								<out>-1</out>
								<pproColor>4292277273</pproColor>
							</marker>
						<labels>
							<label2>Forest</label2>
						</labels>
					</clipitem>
					<clipitem id="clipitem-752">
						<masterclipid>masterclip-352</masterclipid>
						<name>11</name>
						<enabled>TRUE</enabled>
						<duration>1125</duration>
						<rate>
							<timebase>25</timebase>
							<ntsc>FALSE</ntsc>
						</rate>
						<start>11126</start>
						<end>11501</end>
						<in>375</in>
						<out>750</out>
						<pproTicksIn>3810240000000</pproTicksIn>
						<pproTicksOut>7620480000000</pproTicksOut>
						<sequence id="sequence-54"/>
							<marker>
								<comment></comment>
								<name></name>
								<in>800</in>
								<out>-1</out>
								<pproColor>4292277273</pproColor>
							</marker>
							<marker>
								<comment></comment>
								<name></name>
								<in>50</in>
								<out>-1</out>
								<pproColor>4292277273</pproColor>
							</marker>
							<marker>
								<comment></comment>
								<name></name>
								<in>425</in>
								<out>-1</out>
								<pproColor>4292277273</pproColor>
							</marker>
						<labels>
							<label2>Forest</label2>
						</labels>
					</clipitem>
					<clipitem id="clipitem-753">
						<masterclipid>masterclip-356</masterclipid>
						<name>10</name>
						<enabled>TRUE</enabled>
						<duration>1125</duration>
						<rate>
							<timebase>25</timebase>
							<ntsc>FALSE</ntsc>
						</rate>
						<start>14946</start>
						<end>15321</end>
						<in>0</in>
						<out>375</out>
						<pproTicksIn>0</pproTicksIn>
						<pproTicksOut>3810240000000</pproTicksOut>
						<sequence id="sequence-55" TL.SQAudioVisibleBase="0" TL.SQVideoVisibleBase="0" TL.SQVisibleBaseTime="0" TL.SQAVDividerPosition="0.5" TL.SQHideShyTracks="0" TL.SQHeaderWidth="236" Monitor.ProgramZoomOut="11430720000000" Monitor.ProgramZoomIn="0" TL.SQTimePerPixel="0.19620667102680808" AM.TrackVScrollPosition="0" AM.TrackScrollPosition="0" MZ.EditLine="10018391040000" MZ.Sequence.PreviewFrameSizeHeight="576" MZ.Sequence.PreviewFrameSizeWidth="720" MZ.Sequence.AudioTimeDisplayFormat="200" MZ.Sequence.PreviewRenderingClassID="1061109567" MZ.Sequence.PreviewRenderingPresetCodec="1685480304" MZ.Sequence.PreviewRenderingPresetPath="EncoderPresets/SequencePreview/04be6e19-a018-4e0c-a9d6-0ab44c64752b/QuickTime DV PAL.epr" MZ.Sequence.PreviewUseMaxRenderQuality="false" MZ.Sequence.PreviewUseMaxBitDepth="false" MZ.Sequence.EditingModeGUID="04be6e19-a018-4e0c-a9d6-0ab44c64752b" MZ.Sequence.VideoTimeDisplayFormat="101" MZ.WorkOutPoint="11430720000000" MZ.WorkInPoint="0" MZ.ZeroPoint="0">
							<duration>1125</duration>
							<rate>
								<timebase>25</timebase>
								<ntsc>FALSE</ntsc>
							</rate>
							<name>RU_Nested</name>
							<media>
								<video>
									<format>
										<samplecharacteristics>
											<rate>
												<timebase>25</timebase>
												<ntsc>FALSE</ntsc>
											</rate>
											<codec>
												<name>Apple ProRes 422</name>
												<appspecificdata>
													<appname>Final Cut Pro</appname>
													<appmanufacturer>Apple Inc.</appmanufacturer>
													<appversion>7.0</appversion>
													<data>
														<qtcodec>
															<codecname>Apple ProRes 422</codecname>
															<codectypename>Apple ProRes 422</codectypename>
															<codectypecode>apcn</codectypecode>
															<codecvendorcode>appl</codecvendorcode>
															<spatialquality>1024</spatialquality>
															<temporalquality>0</temporalquality>
															<keyframerate>0</keyframerate>
															<datarate>0</datarate>
														</qtcodec>
													</data>
												</appspecificdata>
											</codec>
											<width>720</width>
											<height>576</height>
											<anamorphic>TRUE</anamorphic>
											<pixelaspectratio>PAL-601</pixelaspectratio>
											<fielddominance>lower</fielddominance>
											<colordepth>24</colordepth>
										</samplecharacteristics>
									</format>
									<track TL.SQTrackShy="0" TL.SQTrackExpandedHeight="25" TL.SQTrackExpanded="0" MZ.TrackTargeted="1">
										<clipitem id="clipitem-754">
											<masterclipid>masterclip-357</masterclipid>
											<name>Plashka_Right_DV.mov</name>
											<enabled>TRUE</enabled>
											<duration>375</duration>
											<rate>
												<timebase>25</timebase>
												<ntsc>FALSE</ntsc>
											</rate>
											<start>0</start>
											<end>375</end>
											<in>0</in>
											<out>375</out>
											<pproTicksIn>0</pproTicksIn>
											<pproTicksOut>3810240000000</pproTicksOut>
											<alphatype>straight</alphatype>
											<pixelaspectratio>PAL-601</pixelaspectratio>
											<anamorphic>TRUE</anamorphic>
											<file id="file-306">
												<name>Plashka_Right_DV.mov</name>
												<pathurl>file://localhost/Volumes/1Tb/_MUZ_TV/graphika/RU-21/MOD/Plashka_Right_DV.mov</pathurl>
												<rate>
													<timebase>25</timebase>
													<ntsc>FALSE</ntsc>
												</rate>
												<duration>375</duration>
												<timecode>
													<rate>
														<timebase>25</timebase>
														<ntsc>FALSE</ntsc>
													</rate>
													<string>00:00:15:10</string>
													<frame>385</frame>
													<displayformat>NDF</displayformat>
												</timecode>
												<media>
													<video>
														<samplecharacteristics>
															<rate>
																<timebase>25</timebase>
																<ntsc>FALSE</ntsc>
															</rate>
															<width>720</width>
															<height>576</height>
															<anamorphic>TRUE</anamorphic>
															<pixelaspectratio>PAL-601</pixelaspectratio>
															<fielddominance>lower</fielddominance>
														</samplecharacteristics>
													</video>
												</media>
											</file>
											<filter>
												<effect>
													<name>Basic Motion</name>
													<effectid>basic</effectid>
													<effectcategory>motion</effectcategory>
													<effecttype>motion</effecttype>
													<mediatype>video</mediatype>
													<pproBypass>false</pproBypass>
													<parameter authoringApp="PremierePro">
														<parameterid>scale</parameterid>
														<name>Scale</name>
														<valuemin>0</valuemin>
														<valuemax>1000</valuemax>
														<value>100</value>
													</parameter>
													<parameter authoringApp="PremierePro">
														<parameterid>rotation</parameterid>
														<name>Rotation</name>
														<valuemin>-8640</valuemin>
														<valuemax>8640</valuemax>
														<value>0</value>
													</parameter>
													<parameter authoringApp="PremierePro">
														<parameterid>center</parameterid>
														<name>Center</name>
														<value>
															<horiz>-5.55112e-17</horiz>
															<vert>-1.11022e-16</vert>
														</value>
													</parameter>
													<parameter authoringApp="PremierePro">
														<parameterid>centerOffset</parameterid>
														<name>Anchor Point</name>
														<value>
															<horiz>0.402314</horiz>
															<vert>0.41875</vert>
														</value>
													</parameter>
													<parameter authoringApp="PremierePro">
														<parameterid>antiflicker</parameterid>
														<name>Anti-flicker Filter</name>
														<valuemin>0.0</valuemin>
														<valuemax>1.0</valuemax>
														<value>0</value>
													</parameter>
												</effect>
											</filter>
											<filter>
												<effect>
													<name>Distort</name>
													<effectid>deformation</effectid>
													<effectcategory>motion</effectcategory>
													<effecttype>motion</effecttype>
													<mediatype>video</mediatype>
													<parameter authoringApp="PremierePro">
														<parameterid>aspect</parameterid>
														<name>Aspect</name>
														<valuemin>-10000</valuemin>
														<valuemax>10000</valuemax>
														<value>21.9512</value>
													</parameter>
												</effect>
											</filter>
											<logginginfo>
												<description></description>
												<scene></scene>
												<shottake></shottake>
												<lognote></lognote>
												<good></good>
												<originalvideofilename></originalvideofilename>
												<originalaudiofilename></originalaudiofilename>
											</logginginfo>
											<colorinfo>
												<lut></lut>
												<lut1></lut1>
												<asc_sop></asc_sop>
												<asc_sat></asc_sat>
												<lut2></lut2>
											</colorinfo>
											<labels>
												<label2>Violet</label2>
											</labels>
										</clipitem>
										<clipitem id="clipitem-755">
											<masterclipid>masterclip-357</masterclipid>
											<name>Plashka_Right_DV.mov</name>
											<enabled>TRUE</enabled>
											<duration>375</duration>
											<rate>
												<timebase>25</timebase>
												<ntsc>FALSE</ntsc>
											</rate>
											<start>375</start>
											<end>750</end>
											<in>0</in>
											<out>375</out>
											<pproTicksIn>0</pproTicksIn>
											<pproTicksOut>3810240000000</pproTicksOut>
											<alphatype>straight</alphatype>
											<file id="file-306"/>
											<filter>
												<effect>
													<name>Basic Motion</name>
													<effectid>basic</effectid>
													<effectcategory>motion</effectcategory>
													<effecttype>motion</effecttype>
													<mediatype>video</mediatype>
													<pproBypass>false</pproBypass>
													<parameter authoringApp="PremierePro">
														<parameterid>scale</parameterid>
														<name>Scale</name>
														<valuemin>0</valuemin>
														<valuemax>1000</valuemax>
														<value>100</value>
													</parameter>
													<parameter authoringApp="PremierePro">
														<parameterid>rotation</parameterid>
														<name>Rotation</name>
														<valuemin>-8640</valuemin>
														<valuemax>8640</valuemax>
														<value>0</value>
													</parameter>
													<parameter authoringApp="PremierePro">
														<parameterid>center</parameterid>
														<name>Center</name>
														<value>
															<horiz>-5.55112e-17</horiz>
															<vert>-1.11022e-16</vert>
														</value>
													</parameter>
													<parameter authoringApp="PremierePro">
														<parameterid>centerOffset</parameterid>
														<name>Anchor Point</name>
														<value>
															<horiz>0.402314</horiz>
															<vert>0.41875</vert>
														</value>
													</parameter>
													<parameter authoringApp="PremierePro">
														<parameterid>antiflicker</parameterid>
														<name>Anti-flicker Filter</name>
														<valuemin>0.0</valuemin>
														<valuemax>1.0</valuemax>
														<value>0</value>
													</parameter>
												</effect>
											</filter>
											<filter>
												<effect>
													<name>Distort</name>
													<effectid>deformation</effectid>
													<effectcategory>motion</effectcategory>
													<effecttype>motion</effecttype>
													<mediatype>video</mediatype>
													<parameter authoringApp="PremierePro">
														<parameterid>aspect</parameterid>
														<name>Aspect</name>
														<valuemin>-10000</valuemin>
														<valuemax>10000</valuemax>
														<value>8.69565</value>
													</parameter>
												</effect>
											</filter>
											<logginginfo>
												<description></description>
												<scene></scene>
												<shottake></shottake>
												<lognote></lognote>
												<good></good>
												<originalvideofilename></originalvideofilename>
												<originalaudiofilename></originalaudiofilename>
											</logginginfo>
											<colorinfo>
												<lut></lut>
												<lut1></lut1>
												<asc_sop></asc_sop>
												<asc_sat></asc_sat>
												<lut2></lut2>
											</colorinfo>
											<labels>
												<label2>Violet</label2>
											</labels>
										</clipitem>
										<clipitem id="clipitem-756">
											<masterclipid>masterclip-357</masterclipid>
											<name>Plashka_Right_DV.mov</name>
											<enabled>TRUE</enabled>
											<duration>375</duration>
											<rate>
												<timebase>25</timebase>
												<ntsc>FALSE</ntsc>
											</rate>
											<start>750</start>
											<end>1125</end>
											<in>0</in>
											<out>375</out>
											<pproTicksIn>0</pproTicksIn>
											<pproTicksOut>3810240000000</pproTicksOut>
											<alphatype>straight</alphatype>
											<file id="file-306"/>
											<filter>
												<effect>
													<name>Basic Motion</name>
													<effectid>basic</effectid>
													<effectcategory>motion</effectcategory>
													<effecttype>motion</effecttype>
													<mediatype>video</mediatype>
													<pproBypass>false</pproBypass>
													<parameter authoringApp="PremierePro">
														<parameterid>scale</parameterid>
														<name>Scale</name>
														<valuemin>0</valuemin>
														<valuemax>1000</valuemax>
														<value>100</value>
													</parameter>
													<parameter authoringApp="PremierePro">
														<parameterid>rotation</parameterid>
														<name>Rotation</name>
														<valuemin>-8640</valuemin>
														<valuemax>8640</valuemax>
														<value>0</value>
													</parameter>
													<parameter authoringApp="PremierePro">
														<parameterid>center</parameterid>
														<name>Center</name>
														<value>
															<horiz>-5.55112e-17</horiz>
															<vert>-1.11022e-16</vert>
														</value>
													</parameter>
													<parameter authoringApp="PremierePro">
														<parameterid>centerOffset</parameterid>
														<name>Anchor Point</name>
														<value>
															<horiz>0.402314</horiz>
															<vert>0.41875</vert>
														</value>
													</parameter>
													<parameter authoringApp="PremierePro">
														<parameterid>antiflicker</parameterid>
														<name>Anti-flicker Filter</name>
														<valuemin>0.0</valuemin>
														<valuemax>1.0</valuemax>
														<value>0</value>
													</parameter>
												</effect>
											</filter>
											<filter>
												<effect>
													<name>Distort</name>
													<effectid>deformation</effectid>
													<effectcategory>motion</effectcategory>
													<effecttype>motion</effecttype>
													<mediatype>video</mediatype>
													<parameter authoringApp="PremierePro">
														<parameterid>aspect</parameterid>
														<name>Aspect</name>
														<valuemin>-10000</valuemin>
														<valuemax>10000</valuemax>
														<value>11.1111</value>
													</parameter>
												</effect>
											</filter>
											<logginginfo>
												<description></description>
												<scene></scene>
												<shottake></shottake>
												<lognote></lognote>
												<good></good>
												<originalvideofilename></originalvideofilename>
												<originalaudiofilename></originalaudiofilename>
											</logginginfo>
											<colorinfo>
												<lut></lut>
												<lut1></lut1>
												<asc_sop></asc_sop>
												<asc_sat></asc_sat>
												<lut2></lut2>
											</colorinfo>
											<labels>
												<label2>Violet</label2>
											</labels>
										</clipitem>
										<enabled>TRUE</enabled>
										<locked>FALSE</locked>
									</track>
									<track TL.SQTrackShy="0" TL.SQTrackExpandedHeight="25" TL.SQTrackExpanded="0" MZ.TrackTargeted="0">
										<transitionitem>
											<start>6</start>
											<end>35</end>
											<alignment>start-black</alignment>
											<cutPointTicks>0</cutPointTicks>
											<rate>
												<timebase>25</timebase>
												<ntsc>FALSE</ntsc>
											</rate>
											<effect>
												<name>Edge Wipe</name>
												<effectid>Edge Wipe</effectid>
												<effectcategory>Wipe</effectcategory>
												<effecttype>transition</effecttype>
												<mediatype>video</mediatype>
												<wipecode>2</wipecode>
												<wipeaccuracy>100</wipeaccuracy>
												<startratio>0</startratio>
												<endratio>1</endratio>
												<reverse>FALSE</reverse>
												<parameter authoringApp="PremierePro">
													<parameterid>directionofwipe</parameterid>
													<name>Angle</name>
													<valuemin>-360</valuemin>
													<valuemax>360</valuemax>
													<value>270</value>
												</parameter>
											</effect>
										</transitionitem>
										<clipitem id="clipitem-757">
											<masterclipid>masterclip-358</masterclipid>
											<name>10_1.png</name>
											<enabled>TRUE</enabled>
											<duration>1080000</duration>
											<rate>
												<timebase>25</timebase>
												<ntsc>FALSE</ntsc>
											</rate>
											<start>-1</start>
											<end>-1</end>
											<in>90006</in>
											<out>90369</out>
											<pproTicksIn>914518563840000</pproTicksIn>
											<pproTicksOut>918206876160000</pproTicksOut>
											<alphatype>straight</alphatype>
											<pixelaspectratio>square</pixelaspectratio>
											<anamorphic>FALSE</anamorphic>
											<file id="file-307">
												<name>10_1.png</name>
												<pathurl>file://localhost/_MUZ_TV/project_AP/RU/_TITLE/END/PNG/10_1.png</pathurl>
												<rate>
													<timebase>30</timebase>
													<ntsc>TRUE</ntsc>
												</rate>
												<timecode>
													<rate>
														<timebase>30</timebase>
														<ntsc>TRUE</ntsc>
													</rate>
													<string>00;00;00;00</string>
													<frame>0</frame>
													<displayformat>DF</displayformat>
												</timecode>
												<media>
													<video>
														<samplecharacteristics>
															<rate>
																<timebase>30</timebase>
																<ntsc>TRUE</ntsc>
															</rate>
															<width>1920</width>
															<height>1080</height>
															<anamorphic>FALSE</anamorphic>
															<pixelaspectratio>square</pixelaspectratio>
															<fielddominance>none</fielddominance>
														</samplecharacteristics>
													</video>
												</media>
											</file>
											<filter>
												<effect>
													<name>Basic Motion</name>
													<effectid>basic</effectid>
													<effectcategory>motion</effectcategory>
													<effecttype>motion</effecttype>
													<mediatype>video</mediatype>
													<pproBypass>false</pproBypass>
													<parameter authoringApp="PremierePro">
														<parameterid>scale</parameterid>
														<name>Scale</name>
														<valuemin>0</valuemin>
														<valuemax>1000</valuemax>
														<value>53.3333</value>
													</parameter>
													<parameter authoringApp="PremierePro">
														<parameterid>rotation</parameterid>
														<name>Rotation</name>
														<valuemin>-8640</valuemin>
														<valuemax>8640</valuemax>
														<value>0</value>
													</parameter>
													<parameter authoringApp="PremierePro">
														<parameterid>center</parameterid>
														<name>Center</name>
														<value>
															<horiz>0</horiz>
															<vert>0</vert>
														</value>
													</parameter>
													<parameter authoringApp="PremierePro">
														<parameterid>centerOffset</parameterid>
														<name>Anchor Point</name>
														<value>
															<horiz>0</horiz>
															<vert>0</vert>
														</value>
													</parameter>
													<parameter authoringApp="PremierePro">
														<parameterid>antiflicker</parameterid>
														<name>Anti-flicker Filter</name>
														<valuemin>0.0</valuemin>
														<valuemax>1.0</valuemax>
														<value>0</value>
													</parameter>
												</effect>
											</filter>
											<logginginfo>
												<description></description>
												<scene></scene>
												<shottake></shottake>
												<lognote></lognote>
												<good></good>
												<originalvideofilename></originalvideofilename>
												<originalaudiofilename></originalaudiofilename>
											</logginginfo>
											<colorinfo>
												<lut></lut>
												<lut1></lut1>
												<asc_sop></asc_sop>
												<asc_sat></asc_sat>
												<lut2></lut2>
											</colorinfo>
											<labels>
												<label2>Lavender</label2>
											</labels>
										</clipitem>
										<transitionitem>
											<start>344</start>
											<end>369</end>
											<alignment>end-black</alignment>
											<cutPointTicks>254016000000</cutPointTicks>
											<rate>
												<timebase>25</timebase>
												<ntsc>FALSE</ntsc>
											</rate>
											<effect>
												<name>Edge Wipe</name>
												<effectid>Edge Wipe</effectid>
												<effectcategory>Wipe</effectcategory>
												<effecttype>transition</effecttype>
												<mediatype>video</mediatype>
												<wipecode>2</wipecode>
												<wipeaccuracy>100</wipeaccuracy>
												<startratio>0</startratio>
												<endratio>1</endratio>
												<reverse>FALSE</reverse>
												<parameter authoringApp="PremierePro">
													<parameterid>directionofwipe</parameterid>
													<name>Angle</name>
													<valuemin>-360</valuemin>
													<valuemax>360</valuemax>
													<value>90</value>
												</parameter>
											</effect>
										</transitionitem>
										<transitionitem>
											<start>381</start>
											<end>410</end>
											<alignment>start-black</alignment>
											<cutPointTicks>0</cutPointTicks>
											<rate>
												<timebase>25</timebase>
												<ntsc>FALSE</ntsc>
											</rate>
											<effect>
												<name>Edge Wipe</name>
												<effectid>Edge Wipe</effectid>
												<effectcategory>Wipe</effectcategory>
												<effecttype>transition</effecttype>
												<mediatype>video</mediatype>
												<wipecode>2</wipecode>
												<wipeaccuracy>100</wipeaccuracy>
												<startratio>0</startratio>
												<endratio>1</endratio>
												<reverse>FALSE</reverse>
												<parameter authoringApp="PremierePro">
													<parameterid>directionofwipe</parameterid>
													<name>Angle</name>
													<valuemin>-360</valuemin>
													<valuemax>360</valuemax>
													<value>270</value>
												</parameter>
											</effect>
										</transitionitem>
										<clipitem id="clipitem-758">
											<masterclipid>masterclip-359</masterclipid>
											<name>10_2.png</name>
											<enabled>TRUE</enabled>
											<duration>1080000</duration>
											<rate>
												<timebase>25</timebase>
												<ntsc>FALSE</ntsc>
											</rate>
											<start>-1</start>
											<end>-1</end>
											<in>90011</in>
											<out>90374</out>
											<pproTicksIn>914569367040000</pproTicksIn>
											<pproTicksOut>918257679360000</pproTicksOut>
											<alphatype>straight</alphatype>
											<pixelaspectratio>square</pixelaspectratio>
											<anamorphic>FALSE</anamorphic>
											<file id="file-308">
												<name>10_2.png</name>
												<pathurl>file://localhost/_MUZ_TV/project_AP/RU/_TITLE/END/PNG/10_2.png</pathurl>
												<rate>
													<timebase>30</timebase>
													<ntsc>TRUE</ntsc>
												</rate>
												<timecode>
													<rate>
														<timebase>30</timebase>
														<ntsc>TRUE</ntsc>
													</rate>
													<string>00;00;00;00</string>
													<frame>0</frame>
													<displayformat>DF</displayformat>
												</timecode>
												<media>
													<video>
														<samplecharacteristics>
															<rate>
																<timebase>30</timebase>
																<ntsc>TRUE</ntsc>
															</rate>
															<width>1920</width>
															<height>1080</height>
															<anamorphic>FALSE</anamorphic>
															<pixelaspectratio>square</pixelaspectratio>
															<fielddominance>none</fielddominance>
														</samplecharacteristics>
													</video>
												</media>
											</file>
											<filter>
												<effect>
													<name>Basic Motion</name>
													<effectid>basic</effectid>
													<effectcategory>motion</effectcategory>
													<effecttype>motion</effecttype>
													<mediatype>video</mediatype>
													<pproBypass>false</pproBypass>
													<parameter authoringApp="PremierePro">
														<parameterid>scale</parameterid>
														<name>Scale</name>
														<valuemin>0</valuemin>
														<valuemax>1000</valuemax>
														<value>53.3333</value>
													</parameter>
													<parameter authoringApp="PremierePro">
														<parameterid>rotation</parameterid>
														<name>Rotation</name>
														<valuemin>-8640</valuemin>
														<valuemax>8640</valuemax>
														<value>0</value>
													</parameter>
													<parameter authoringApp="PremierePro">
														<parameterid>center</parameterid>
														<name>Center</name>
														<value>
															<horiz>0</horiz>
															<vert>0</vert>
														</value>
													</parameter>
													<parameter authoringApp="PremierePro">
														<parameterid>centerOffset</parameterid>
														<name>Anchor Point</name>
														<value>
															<horiz>0</horiz>
															<vert>0</vert>
														</value>
													</parameter>
													<parameter authoringApp="PremierePro">
														<parameterid>antiflicker</parameterid>
														<name>Anti-flicker Filter</name>
														<valuemin>0.0</valuemin>
														<valuemax>1.0</valuemax>
														<value>0</value>
													</parameter>
												</effect>
											</filter>
											<logginginfo>
												<description></description>
												<scene></scene>
												<shottake></shottake>
												<lognote></lognote>
												<good></good>
												<originalvideofilename></originalvideofilename>
												<originalaudiofilename></originalaudiofilename>
											</logginginfo>
											<colorinfo>
												<lut></lut>
												<lut1></lut1>
												<asc_sop></asc_sop>
												<asc_sat></asc_sat>
												<lut2></lut2>
											</colorinfo>
											<labels>
												<label2>Lavender</label2>
											</labels>
										</clipitem>
										<transitionitem>
											<start>719</start>
											<end>744</end>
											<alignment>end-black</alignment>
											<cutPointTicks>254016000000</cutPointTicks>
											<rate>
												<timebase>25</timebase>
												<ntsc>FALSE</ntsc>
											</rate>
											<effect>
												<name>Edge Wipe</name>
												<effectid>Edge Wipe</effectid>
												<effectcategory>Wipe</effectcategory>
												<effecttype>transition</effecttype>
												<mediatype>video</mediatype>
												<wipecode>2</wipecode>
												<wipeaccuracy>100</wipeaccuracy>
												<startratio>0</startratio>
												<endratio>1</endratio>
												<reverse>FALSE</reverse>
												<parameter authoringApp="PremierePro">
													<parameterid>directionofwipe</parameterid>
													<name>Angle</name>
													<valuemin>-360</valuemin>
													<valuemax>360</valuemax>
													<value>90</value>
												</parameter>
											</effect>
										</transitionitem>
										<transitionitem>
											<start>756</start>
											<end>785</end>
											<alignment>start-black</alignment>
											<cutPointTicks>0</cutPointTicks>
											<rate>
												<timebase>25</timebase>
												<ntsc>FALSE</ntsc>
											</rate>
											<effect>
												<name>Edge Wipe</name>
												<effectid>Edge Wipe</effectid>
												<effectcategory>Wipe</effectcategory>
												<effecttype>transition</effecttype>
												<mediatype>video</mediatype>
												<wipecode>2</wipecode>
												<wipeaccuracy>100</wipeaccuracy>
												<startratio>0</startratio>
												<endratio>1</endratio>
												<reverse>FALSE</reverse>
												<parameter authoringApp="PremierePro">
													<parameterid>directionofwipe</parameterid>
													<name>Angle</name>
													<valuemin>-360</valuemin>
													<valuemax>360</valuemax>
													<value>270</value>
												</parameter>
											</effect>
										</transitionitem>
										<clipitem id="clipitem-759">
											<masterclipid>masterclip-360</masterclipid>
											<name>10_3.png</name>
											<enabled>TRUE</enabled>
											<duration>1080000</duration>
											<rate>
												<timebase>25</timebase>
												<ntsc>FALSE</ntsc>
											</rate>
											<start>-1</start>
											<end>-1</end>
											<in>90011</in>
											<out>90375</out>
											<pproTicksIn>914569367040000</pproTicksIn>
											<pproTicksOut>918267840000000</pproTicksOut>
											<alphatype>straight</alphatype>
											<pixelaspectratio>square</pixelaspectratio>
											<anamorphic>FALSE</anamorphic>
											<file id="file-309">
												<name>10_3.png</name>
												<pathurl>file://localhost/_MUZ_TV/project_AP/RU/_TITLE/END/PNG/10_3.png</pathurl>
												<rate>
													<timebase>30</timebase>
													<ntsc>TRUE</ntsc>
												</rate>
												<timecode>
													<rate>
														<timebase>30</timebase>
														<ntsc>TRUE</ntsc>
													</rate>
													<string>00;00;00;00</string>
													<frame>0</frame>
													<displayformat>DF</displayformat>
												</timecode>
												<media>
													<video>
														<samplecharacteristics>
															<rate>
																<timebase>30</timebase>
																<ntsc>TRUE</ntsc>
															</rate>
															<width>1920</width>
															<height>1080</height>
															<anamorphic>FALSE</anamorphic>
															<pixelaspectratio>square</pixelaspectratio>
															<fielddominance>none</fielddominance>
														</samplecharacteristics>
													</video>
												</media>
											</file>
											<filter>
												<effect>
													<name>Basic Motion</name>
													<effectid>basic</effectid>
													<effectcategory>motion</effectcategory>
													<effecttype>motion</effecttype>
													<mediatype>video</mediatype>
													<pproBypass>false</pproBypass>
													<parameter authoringApp="PremierePro">
														<parameterid>scale</parameterid>
														<name>Scale</name>
														<valuemin>0</valuemin>
														<valuemax>1000</valuemax>
														<value>53.3333</value>
													</parameter>
													<parameter authoringApp="PremierePro">
														<parameterid>rotation</parameterid>
														<name>Rotation</name>
														<valuemin>-8640</valuemin>
														<valuemax>8640</valuemax>
														<value>0</value>
													</parameter>
													<parameter authoringApp="PremierePro">
														<parameterid>center</parameterid>
														<name>Center</name>
														<value>
															<horiz>0</horiz>
															<vert>0</vert>
														</value>
													</parameter>
													<parameter authoringApp="PremierePro">
														<parameterid>centerOffset</parameterid>
														<name>Anchor Point</name>
														<value>
															<horiz>0</horiz>
															<vert>0</vert>
														</value>
													</parameter>
													<parameter authoringApp="PremierePro">
														<parameterid>antiflicker</parameterid>
														<name>Anti-flicker Filter</name>
														<valuemin>0.0</valuemin>
														<valuemax>1.0</valuemax>
														<value>0</value>
													</parameter>
												</effect>
											</filter>
											<logginginfo>
												<description></description>
												<scene></scene>
												<shottake></shottake>
												<lognote></lognote>
												<good></good>
												<originalvideofilename></originalvideofilename>
												<originalaudiofilename></originalaudiofilename>
											</logginginfo>
											<colorinfo>
												<lut></lut>
												<lut1></lut1>
												<asc_sop></asc_sop>
												<asc_sat></asc_sat>
												<lut2></lut2>
											</colorinfo>
											<labels>
												<label2>Lavender</label2>
											</labels>
										</clipitem>
										<transitionitem>
											<start>1095</start>
											<end>1120</end>
											<alignment>end-black</alignment>
											<cutPointTicks>254016000000</cutPointTicks>
											<rate>
												<timebase>25</timebase>
												<ntsc>FALSE</ntsc>
											</rate>
											<effect>
												<name>Edge Wipe</name>
												<effectid>Edge Wipe</effectid>
												<effectcategory>Wipe</effectcategory>
												<effecttype>transition</effecttype>
												<mediatype>video</mediatype>
												<wipecode>2</wipecode>
												<wipeaccuracy>100</wipeaccuracy>
												<startratio>0</startratio>
												<endratio>1</endratio>
												<reverse>FALSE</reverse>
												<parameter authoringApp="PremierePro">
													<parameterid>directionofwipe</parameterid>
													<name>Angle</name>
													<valuemin>-360</valuemin>
													<valuemax>360</valuemax>
													<value>90</value>
												</parameter>
											</effect>
										</transitionitem>
										<enabled>TRUE</enabled>
										<locked>FALSE</locked>
									</track>
									<track TL.SQTrackShy="0" TL.SQTrackExpandedHeight="25" TL.SQTrackExpanded="0" MZ.TrackTargeted="0">
										<transitionitem>
											<start>755</start>
											<end>780</end>
											<alignment>start-black</alignment>
											<cutPointTicks>0</cutPointTicks>
											<rate>
												<timebase>25</timebase>
												<ntsc>FALSE</ntsc>
											</rate>
											<effect>
												<name>Edge Wipe</name>
												<effectid>Edge Wipe</effectid>
												<effectcategory>Wipe</effectcategory>
												<effecttype>transition</effecttype>
												<mediatype>video</mediatype>
												<wipecode>2</wipecode>
												<wipeaccuracy>100</wipeaccuracy>
												<startratio>0</startratio>
												<endratio>1</endratio>
												<reverse>FALSE</reverse>
												<parameter authoringApp="PremierePro">
													<parameterid>directionofwipe</parameterid>
													<name>Angle</name>
													<valuemin>-360</valuemin>
													<valuemax>360</valuemax>
													<value>270</value>
												</parameter>
											</effect>
										</transitionitem>
										<clipitem id="clipitem-760">
											<masterclipid>masterclip-361</masterclipid>
											<name>Graphic</name>
											<enabled>FALSE</enabled>
											<duration>1080000</duration>
											<rate>
												<timebase>25</timebase>
												<ntsc>FALSE</ntsc>
											</rate>
											<start>-1</start>
											<end>-1</end>
											<in>89905</in>
											<out>90272</out>
											<pproTicksIn>913492339200000</pproTicksIn>
											<pproTicksOut>917221294080000</pproTicksOut>
											<alphatype>straight</alphatype>
											<pixelaspectratio>PAL-601</pixelaspectratio>
											<anamorphic>TRUE</anamorphic>
											<file id="file-310">
												<name>Graphic</name>
												<mediaSource>GraphicAndType</mediaSource>
												<rate>
													<timebase>30</timebase>
													<ntsc>TRUE</ntsc>
												</rate>
												<timecode>
													<rate>
														<timebase>30</timebase>
														<ntsc>TRUE</ntsc>
													</rate>
													<string>00;00;00;00</string>
													<frame>0</frame>
													<displayformat>DF</displayformat>
												</timecode>
												<media>
													<video>
														<samplecharacteristics>
															<rate>
																<timebase>30</timebase>
																<ntsc>TRUE</ntsc>
															</rate>
															<width>720</width>
															<height>576</height>
															<anamorphic>TRUE</anamorphic>
															<pixelaspectratio>PAL-601</pixelaspectratio>
															<fielddominance>none</fielddominance>
														</samplecharacteristics>
													</video>
												</media>
											</file>
											<filter>
												<effect>
													<name>Vector Motion</name>
													<effectid>GraphicGroup</effectid>
													<effectcategory>graphic</effectcategory>
													<effecttype>filter</effecttype>
													<mediatype>video</mediatype>
													<pproBypass>false</pproBypass>
													<parameter authoringApp="PremierePro">
														<parameterid>1</parameterid>
														<name>Position</name>
														<IsTimeVarying>false</IsTimeVarying>
														<value>-91445760000000000,0.81693898908787344:0.49085601568222115,0,0,0,0,0,0,5,4,0,0,0,0</value>
													</parameter>
													<parameter authoringApp="PremierePro">
														<parameterid>2</parameterid>
														<name>Scale</name>
														<IsTimeVarying>false</IsTimeVarying>
														<ParameterControlType>2</ParameterControlType>
														<LowerBound>0</LowerBound>
														<UpperBound>10000</UpperBound>
														<UpperUIBound>200</UpperUIBound>
														<value>-91445760000000000,100.,0,0,0,0,0,0</value>
													</parameter>
													<parameter authoringApp="PremierePro">
														<parameterid>3</parameterid>
														<name>Scale Width</name>
														<IsTimeVarying>false</IsTimeVarying>
														<ParameterControlType>2</ParameterControlType>
														<LowerBound>0</LowerBound>
														<UpperBound>10000</UpperBound>
														<UpperUIBound>200</UpperUIBound>
														<value>-91445760000000000,100.,0,0,0,0,0,0</value>
													</parameter>
													<parameter authoringApp="PremierePro">
														<parameterid>4</parameterid>
														<name> </name>
														<IsTimeVarying>false</IsTimeVarying>
														<ParameterControlType>4</ParameterControlType>
														<LowerBound>false</LowerBound>
														<UpperBound>true</UpperBound>
														<value>-91445760000000000,true,0,0,0,0,0,0</value>
													</parameter>
													<parameter authoringApp="PremierePro">
														<parameterid>5</parameterid>
														<name>Rotation</name>
														<IsTimeVarying>false</IsTimeVarying>
														<ParameterControlType>3</ParameterControlType>
														<LowerBound>-32768</LowerBound>
														<UpperBound>32767</UpperBound>
														<value>-91445760000000000,0.,0,0,0,0,0,0</value>
													</parameter>
													<parameter authoringApp="PremierePro">
														<parameterid>6</parameterid>
														<name>Anchor Point</name>
														<IsTimeVarying>false</IsTimeVarying>
														<value>-91445760000000000,0.5:0.5,0,0,0,0,0,0,5,4,0,0,0,0</value>
													</parameter>
												</effect>
											</filter>
											<filter>
												<effect>
													<name>Данил Прытков признаётся, &#13;что сильные провалы &#13;мотивируют его на творчество &#13;не меньше, чем победы. </name>
													<effectid>GraphicAndType</effectid>
													<effectcategory>graphic</effectcategory>
													<effecttype>filter</effecttype>
													<mediatype>video</mediatype>
													<pproBypass>false</pproBypass>
													<pproExpanded>true</pproExpanded>
													<parameter authoringApp="PremierePro">
														<parameterid>1</parameterid>
														<name>Source Text</name>
														<hash>698123b5-7d57-7b79-efb1-b0df00000a31</hash>
													</parameter>
													<parameter authoringApp="PremierePro">
														<parameterid>2</parameterid>
														<name>Transform</name>
														<IsTimeVarying>false</IsTimeVarying>
														<ParameterControlType>11</ParameterControlType>
														<LowerBound>false</LowerBound>
														<UpperBound>false</UpperBound>
														<value>-91445760000000000,false,0,0,0,0,0,0</value>
													</parameter>
													<parameter authoringApp="PremierePro">
														<parameterid>3</parameterid>
														<name>Position</name>
														<IsTimeVarying>false</IsTimeVarying>
														<value>-91445760000000000,0.270416259765625:0.640594482421875,0,0,0,0,0,0,5,4,0,0,0,0</value>
													</parameter>
													<parameter authoringApp="PremierePro">
														<parameterid>4</parameterid>
														<name>Scale</name>
														<IsTimeVarying>false</IsTimeVarying>
														<ParameterControlType>2</ParameterControlType>
														<LowerBound>0</LowerBound>
														<UpperBound>4000</UpperBound>
														<value>-91445760000000000,100.,0,0,0,0,0,0</value>
													</parameter>
													<parameter authoringApp="PremierePro">
														<parameterid>5</parameterid>
														<name>Horizontal Scale</name>
														<IsTimeVarying>false</IsTimeVarying>
														<ParameterControlType>2</ParameterControlType>
														<LowerBound>0</LowerBound>
														<UpperBound>4000</UpperBound>
														<value>-91445760000000000,100.,0,0,0,0,0,0</value>
													</parameter>
													<parameter authoringApp="PremierePro">
														<parameterid>6</parameterid>
														<name> </name>
														<IsTimeVarying>false</IsTimeVarying>
														<ParameterControlType>4</ParameterControlType>
														<LowerBound>false</LowerBound>
														<UpperBound>true</UpperBound>
														<value>-91445760000000000,true,0,0,0,0,0,0</value>
													</parameter>
													<parameter authoringApp="PremierePro">
														<parameterid>7</parameterid>
														<name>Rotation</name>
														<IsTimeVarying>false</IsTimeVarying>
														<ParameterControlType>3</ParameterControlType>
														<LowerBound>-32768</LowerBound>
														<UpperBound>32767</UpperBound>
														<value>-91445760000000000,0.,0,0,0,0,0,0</value>
													</parameter>
													<parameter authoringApp="PremierePro">
														<parameterid>8</parameterid>
														<name>Opacity</name>
														<IsTimeVarying>false</IsTimeVarying>
														<ParameterControlType>2</ParameterControlType>
														<LowerBound>0</LowerBound>
														<UpperBound>100</UpperBound>
														<value>-91445760000000000,100.,0,0,0,0,0,0</value>
													</parameter>
													<parameter authoringApp="PremierePro">
														<parameterid>9</parameterid>
														<name>Anchor Point</name>
														<IsTimeVarying>false</IsTimeVarying>
														<value>-91445760000000000,0:0,0,0,0,0,0,0,5,4,0,0,0,0</value>
													</parameter>
													<parameter authoringApp="PremierePro">
														<parameterid>10</parameterid>
														<name></name>
														<IsTimeVarying>false</IsTimeVarying>
														<ParameterControlType>12</ParameterControlType>
														<LowerBound>false</LowerBound>
														<UpperBound>false</UpperBound>
														<value>-91445760000000000,false,0,0,0,0,0,0</value>
													</parameter>
													<parameter authoringApp="PremierePro">
														<parameterid>11</parameterid>
														<name> </name>
														<IsTimeVarying>false</IsTimeVarying>
														<ParameterControlType>8</ParameterControlType>
														<LowerBound>0</LowerBound>
														<UpperBound>32768</UpperBound>
														<value>-91445760000000000,0.,0,0,0,0,0,0</value>
													</parameter>
													<parameter authoringApp="PremierePro">
														<parameterid>12</parameterid>
														<name> </name>
														<IsTimeVarying>false</IsTimeVarying>
														<ParameterControlType>8</ParameterControlType>
														<LowerBound>0</LowerBound>
														<UpperBound>32768</UpperBound>
														<value>-91445760000000000,0.,0,0,0,0,0,0</value>
													</parameter>
													<parameter authoringApp="PremierePro">
														<parameterid>13</parameterid>
														<name>start</name>
														<IsTimeVarying>false</IsTimeVarying>
														<ParameterControlType>8</ParameterControlType>
														<LowerBound>-100</LowerBound>
														<UpperBound>1000000000</UpperBound>
														<value>-91445760000000000,0.,0,0,0,0,0,0</value>
													</parameter>
													<parameter authoringApp="PremierePro">
														<parameterid>14</parameterid>
														<name>end</name>
														<IsTimeVarying>false</IsTimeVarying>
														<ParameterControlType>8</ParameterControlType>
														<LowerBound>-100</LowerBound>
														<UpperBound>1000000000</UpperBound>
														<value>-91445760000000000,101.,0,0,0,0,0,0</value>
													</parameter>
													<parameter authoringApp="PremierePro">
														<parameterid>15</parameterid>
														<name> </name>
														<IsTimeVarying>false</IsTimeVarying>
														<ParameterControlType>4</ParameterControlType>
														<LowerBound>false</LowerBound>
														<UpperBound>true</UpperBound>
														<value>-91445760000000000,false,0,0,0,0,0,0</value>
													</parameter>
													<parameter authoringApp="PremierePro">
														<parameterid>16</parameterid>
														<name> </name>
														<IsTimeVarying>false</IsTimeVarying>
														<ParameterControlType>4</ParameterControlType>
														<LowerBound>false</LowerBound>
														<UpperBound>true</UpperBound>
														<value>-91445760000000000,false,0,0,0,0,0,0</value>
													</parameter>
													<parameter authoringApp="PremierePro">
														<parameterid>17</parameterid>
														<name> </name>
														<IsTimeVarying>false</IsTimeVarying>
														<ParameterControlType>4</ParameterControlType>
														<LowerBound>false</LowerBound>
														<UpperBound>true</UpperBound>
														<value>-91445760000000000,false,0,0,0,0,0,0</value>
													</parameter>
													<parameter authoringApp="PremierePro">
														<parameterid>18</parameterid>
														<name> </name>
														<IsTimeVarying>false</IsTimeVarying>
														<ParameterControlType>4</ParameterControlType>
														<LowerBound>false</LowerBound>
														<UpperBound>true</UpperBound>
														<value>-91445760000000000,false,0,0,0,0,0,0</value>
													</parameter>
													<parameter authoringApp="PremierePro">
														<parameterid>19</parameterid>
														<name>Parent Width</name>
														<IsTimeVarying>false</IsTimeVarying>
														<ParameterControlType>2</ParameterControlType>
														<LowerBound>0</LowerBound>
														<UpperBound>20000</UpperBound>
														<value>-91445760000000000,0.,0,0,0,0,0,0</value>
													</parameter>
													<parameter authoringApp="PremierePro">
														<parameterid>20</parameterid>
														<name>Parent Height</name>
														<IsTimeVarying>false</IsTimeVarying>
														<ParameterControlType>2</ParameterControlType>
														<LowerBound>0</LowerBound>
														<UpperBound>20000</UpperBound>
														<value>-91445760000000000,0.,0,0,0,0,0,0</value>
													</parameter>
													<parameter authoringApp="PremierePro">
														<parameterid>21</parameterid>
														<name>Parent Rotation</name>
														<IsTimeVarying>false</IsTimeVarying>
														<ParameterControlType>3</ParameterControlType>
														<LowerBound>-32768</LowerBound>
														<UpperBound>32767</UpperBound>
														<value>-91445760000000000,0.,0,0,0,0,0,0</value>
													</parameter>
												</effect>
											</filter>
											<logginginfo>
												<description></description>
												<scene></scene>
												<shottake></shottake>
												<lognote></lognote>
												<good></good>
												<originalvideofilename></originalvideofilename>
												<originalaudiofilename></originalaudiofilename>
											</logginginfo>
											<colorinfo>
												<lut></lut>
												<lut1></lut1>
												<asc_sop></asc_sop>
												<asc_sat></asc_sat>
												<lut2></lut2>
											</colorinfo>
										</clipitem>
										<transitionitem>
											<start>1097</start>
											<end>1122</end>
											<alignment>end-black</alignment>
											<cutPointTicks>254016000000</cutPointTicks>
											<rate>
												<timebase>25</timebase>
												<ntsc>FALSE</ntsc>
											</rate>
											<effect>
												<name>Edge Wipe</name>
												<effectid>Edge Wipe</effectid>
												<effectcategory>Wipe</effectcategory>
												<effecttype>transition</effecttype>
												<mediatype>video</mediatype>
												<wipecode>2</wipecode>
												<wipeaccuracy>100</wipeaccuracy>
												<startratio>0</startratio>
												<endratio>1</endratio>
												<reverse>FALSE</reverse>
												<parameter authoringApp="PremierePro">
													<parameterid>directionofwipe</parameterid>
													<name>Angle</name>
													<valuemin>-360</valuemin>
													<valuemax>360</valuemax>
													<value>90</value>
												</parameter>
											</effect>
										</transitionitem>
										<enabled>TRUE</enabled>
										<locked>FALSE</locked>
									</track>
								</video>
								<audio>
									<numOutputChannels>2</numOutputChannels>
									<format>
										<samplecharacteristics>
											<depth>16</depth>
											<samplerate>48000</samplerate>
										</samplecharacteristics>
									</format>
									<outputs>
										<group>
											<index>1</index>
											<numchannels>1</numchannels>
											<downmix>0</downmix>
											<channel>
												<index>1</index>
											</channel>
										</group>
										<group>
											<index>2</index>
											<numchannels>1</numchannels>
											<downmix>0</downmix>
											<channel>
												<index>2</index>
											</channel>
										</group>
									</outputs>
									<track TL.SQTrackAudioKeyframeStyle="0" TL.SQTrackShy="0" TL.SQTrackExpandedHeight="25" TL.SQTrackExpanded="0" MZ.TrackTargeted="1" PannerCurrentValue="0.5" PannerStartKeyframe="-91445760000000000,0.5,0,0,0,0,0,0" PannerName="Balance" currentExplodedTrackIndex="0" totalExplodedTrackCount="2" premiereTrackType="Stereo">
										<enabled>TRUE</enabled>
										<locked>FALSE</locked>
										<outputchannelindex>1</outputchannelindex>
									</track>
									<track TL.SQTrackAudioKeyframeStyle="0" TL.SQTrackShy="0" TL.SQTrackExpandedHeight="25" TL.SQTrackExpanded="0" MZ.TrackTargeted="1" PannerCurrentValue="0.5" PannerStartKeyframe="-91445760000000000,0.5,0,0,0,0,0,0" PannerName="Balance" currentExplodedTrackIndex="1" totalExplodedTrackCount="2" premiereTrackType="Stereo">
										<enabled>TRUE</enabled>
										<locked>FALSE</locked>
										<outputchannelindex>2</outputchannelindex>
									</track>
								</audio>
							</media>
							<timecode>
								<rate>
									<timebase>25</timebase>
									<ntsc>FALSE</ntsc>
								</rate>
								<string>00:00:00:00</string>
								<frame>0</frame>
								<displayformat>NDF</displayformat>
							</timecode>
								<marker>
									<comment></comment>
									<name></name>
									<in>425</in>
									<out>-1</out>
									<pproColor>4292277273</pproColor>
								</marker>
								<marker>
									<comment></comment>
									<name></name>
									<in>50</in>
									<out>-1</out>
									<pproColor>4292277273</pproColor>
								</marker>
								<marker>
									<comment></comment>
									<name></name>
									<in>800</in>
									<out>-1</out>
									<pproColor>4292277273</pproColor>
								</marker>
							<logginginfo>
								<description></description>
								<scene></scene>
								<shottake></shottake>
								<lognote></lognote>
								<good></good>
								<originalvideofilename></originalvideofilename>
								<originalaudiofilename></originalaudiofilename>
							</logginginfo>
						</sequence>
							<marker>
								<comment></comment>
								<name></name>
								<in>425</in>
								<out>-1</out>
								<pproColor>4292277273</pproColor>
							</marker>
							<marker>
								<comment></comment>
								<name></name>
								<in>50</in>
								<out>-1</out>
								<pproColor>4292277273</pproColor>
							</marker>
							<marker>
								<comment></comment>
								<name></name>
								<in>800</in>
								<out>-1</out>
								<pproColor>4292277273</pproColor>
							</marker>
						<labels>
							<label2>Forest</label2>
						</labels>
					</clipitem>
					<clipitem id="clipitem-761">
						<masterclipid>masterclip-356</masterclipid>
						<name>10</name>
						<enabled>TRUE</enabled>
						<duration>1125</duration>
						<rate>
							<timebase>25</timebase>
							<ntsc>FALSE</ntsc>
						</rate>
						<start>15732</start>
						<end>16107</end>
						<in>375</in>
						<out>750</out>
						<pproTicksIn>3810240000000</pproTicksIn>
						<pproTicksOut>7620480000000</pproTicksOut>
						<sequence id="sequence-55"/>
							<marker>
								<comment></comment>
								<name></name>
								<in>425</in>
								<out>-1</out>
								<pproColor>4292277273</pproColor>
							</marker>
							<marker>
								<comment></comment>
								<name></name>
								<in>50</in>
								<out>-1</out>
								<pproColor>4292277273</pproColor>
							</marker>
							<marker>
								<comment></comment>
								<name></name>
								<in>800</in>
								<out>-1</out>
								<pproColor>4292277273</pproColor>
							</marker>
						<labels>
							<label2>Forest</label2>
						</labels>
					</clipitem>
					<clipitem id="clipitem-762">
						<masterclipid>masterclip-356</masterclipid>
						<name>10</name>
						<enabled>TRUE</enabled>
						<duration>1125</duration>
						<rate>
							<timebase>25</timebase>
							<ntsc>FALSE</ntsc>
						</rate>
						<start>16518</start>
						<end>16893</end>
						<in>750</in>
						<out>1125</out>
						<pproTicksIn>7620480000000</pproTicksIn>
						<pproTicksOut>11430720000000</pproTicksOut>
						<sequence id="sequence-55"/>
							<marker>
								<comment></comment>
								<name></name>
								<in>425</in>
								<out>-1</out>
								<pproColor>4292277273</pproColor>
							</marker>
							<marker>
								<comment></comment>
								<name></name>
								<in>50</in>
								<out>-1</out>
								<pproColor>4292277273</pproColor>
							</marker>
							<marker>
								<comment></comment>
								<name></name>
								<in>800</in>
								<out>-1</out>
								<pproColor>4292277273</pproColor>
							</marker>
						<labels>
							<label2>Forest</label2>
						</labels>
					</clipitem>
					<clipitem id="clipitem-763">
						<masterclipid>masterclip-362</masterclipid>
						<name>8</name>
						<enabled>TRUE</enabled>
						<duration>1125</duration>
						<rate>
							<timebase>25</timebase>
							<ntsc>FALSE</ntsc>
						</rate>
						<start>19750</start>
						<end>20125</end>
						<in>0</in>
						<out>375</out>
						<pproTicksIn>0</pproTicksIn>
						<pproTicksOut>3810240000000</pproTicksOut>
						<sequence id="sequence-56" TL.SQAudioVisibleBase="0" TL.SQVideoVisibleBase="0" TL.SQVisibleBaseTime="0" TL.SQAVDividerPosition="0.5" TL.SQHideShyTracks="0" TL.SQHeaderWidth="236" Monitor.ProgramZoomOut="11430720000000" Monitor.ProgramZoomIn="0" TL.SQTimePerPixel="0.19620667102680808" AM.TrackVScrollPosition="0" AM.TrackScrollPosition="0" MZ.EditLine="10069194240000" MZ.Sequence.PreviewFrameSizeHeight="576" MZ.Sequence.PreviewFrameSizeWidth="720" MZ.Sequence.AudioTimeDisplayFormat="200" MZ.Sequence.PreviewRenderingClassID="1061109567" MZ.Sequence.PreviewRenderingPresetCodec="1685480304" MZ.Sequence.PreviewRenderingPresetPath="EncoderPresets/SequencePreview/04be6e19-a018-4e0c-a9d6-0ab44c64752b/QuickTime DV PAL.epr" MZ.Sequence.PreviewUseMaxRenderQuality="false" MZ.Sequence.PreviewUseMaxBitDepth="false" MZ.Sequence.EditingModeGUID="04be6e19-a018-4e0c-a9d6-0ab44c64752b" MZ.Sequence.VideoTimeDisplayFormat="101" MZ.WorkOutPoint="11430720000000" MZ.WorkInPoint="0" MZ.ZeroPoint="0">
							<duration>1125</duration>
							<rate>
								<timebase>25</timebase>
								<ntsc>FALSE</ntsc>
							</rate>
							<name>RU_Nested</name>
							<media>
								<video>
									<format>
										<samplecharacteristics>
											<rate>
												<timebase>25</timebase>
												<ntsc>FALSE</ntsc>
											</rate>
											<codec>
												<name>Apple ProRes 422</name>
												<appspecificdata>
													<appname>Final Cut Pro</appname>
													<appmanufacturer>Apple Inc.</appmanufacturer>
													<appversion>7.0</appversion>
													<data>
														<qtcodec>
															<codecname>Apple ProRes 422</codecname>
															<codectypename>Apple ProRes 422</codectypename>
															<codectypecode>apcn</codectypecode>
															<codecvendorcode>appl</codecvendorcode>
															<spatialquality>1024</spatialquality>
															<temporalquality>0</temporalquality>
															<keyframerate>0</keyframerate>
															<datarate>0</datarate>
														</qtcodec>
													</data>
												</appspecificdata>
											</codec>
											<width>720</width>
											<height>576</height>
											<anamorphic>TRUE</anamorphic>
											<pixelaspectratio>PAL-601</pixelaspectratio>
											<fielddominance>lower</fielddominance>
											<colordepth>24</colordepth>
										</samplecharacteristics>
									</format>
									<track TL.SQTrackShy="0" TL.SQTrackExpandedHeight="25" TL.SQTrackExpanded="0" MZ.TrackTargeted="1">
										<clipitem id="clipitem-764">
											<masterclipid>masterclip-363</masterclipid>
											<name>Plashka_Right_DV.mov</name>
											<enabled>TRUE</enabled>
											<duration>375</duration>
											<rate>
												<timebase>25</timebase>
												<ntsc>FALSE</ntsc>
											</rate>
											<start>0</start>
											<end>375</end>
											<in>0</in>
											<out>375</out>
											<pproTicksIn>0</pproTicksIn>
											<pproTicksOut>3810240000000</pproTicksOut>
											<alphatype>straight</alphatype>
											<pixelaspectratio>PAL-601</pixelaspectratio>
											<anamorphic>TRUE</anamorphic>
											<file id="file-311">
												<name>Plashka_Right_DV.mov</name>
												<pathurl>file://localhost/Volumes/1Tb/_MUZ_TV/graphika/RU-21/MOD/Plashka_Right_DV.mov</pathurl>
												<rate>
													<timebase>25</timebase>
													<ntsc>FALSE</ntsc>
												</rate>
												<duration>375</duration>
												<timecode>
													<rate>
														<timebase>25</timebase>
														<ntsc>FALSE</ntsc>
													</rate>
													<string>00:00:15:10</string>
													<frame>385</frame>
													<displayformat>NDF</displayformat>
												</timecode>
												<media>
													<video>
														<samplecharacteristics>
															<rate>
																<timebase>25</timebase>
																<ntsc>FALSE</ntsc>
															</rate>
															<width>720</width>
															<height>576</height>
															<anamorphic>TRUE</anamorphic>
															<pixelaspectratio>PAL-601</pixelaspectratio>
															<fielddominance>lower</fielddominance>
														</samplecharacteristics>
													</video>
												</media>
											</file>
											<filter>
												<effect>
													<name>Basic Motion</name>
													<effectid>basic</effectid>
													<effectcategory>motion</effectcategory>
													<effecttype>motion</effecttype>
													<mediatype>video</mediatype>
													<pproBypass>false</pproBypass>
													<parameter authoringApp="PremierePro">
														<parameterid>scale</parameterid>
														<name>Scale</name>
														<valuemin>0</valuemin>
														<valuemax>1000</valuemax>
														<value>100</value>
													</parameter>
													<parameter authoringApp="PremierePro">
														<parameterid>rotation</parameterid>
														<name>Rotation</name>
														<valuemin>-8640</valuemin>
														<valuemax>8640</valuemax>
														<value>0</value>
													</parameter>
													<parameter authoringApp="PremierePro">
														<parameterid>center</parameterid>
														<name>Center</name>
														<value>
															<horiz>-5.55112e-17</horiz>
															<vert>-1.11022e-16</vert>
														</value>
													</parameter>
													<parameter authoringApp="PremierePro">
														<parameterid>centerOffset</parameterid>
														<name>Anchor Point</name>
														<value>
															<horiz>0.402314</horiz>
															<vert>0.41875</vert>
														</value>
													</parameter>
													<parameter authoringApp="PremierePro">
														<parameterid>antiflicker</parameterid>
														<name>Anti-flicker Filter</name>
														<valuemin>0.0</valuemin>
														<valuemax>1.0</valuemax>
														<value>0</value>
													</parameter>
												</effect>
											</filter>
											<filter>
												<effect>
													<name>Distort</name>
													<effectid>deformation</effectid>
													<effectcategory>motion</effectcategory>
													<effecttype>motion</effecttype>
													<mediatype>video</mediatype>
													<parameter authoringApp="PremierePro">
														<parameterid>aspect</parameterid>
														<name>Aspect</name>
														<valuemin>-10000</valuemin>
														<valuemax>10000</valuemax>
														<value>35.1351</value>
													</parameter>
												</effect>
											</filter>
											<logginginfo>
												<description></description>
												<scene></scene>
												<shottake></shottake>
												<lognote></lognote>
												<good></good>
												<originalvideofilename></originalvideofilename>
												<originalaudiofilename></originalaudiofilename>
											</logginginfo>
											<colorinfo>
												<lut></lut>
												<lut1></lut1>
												<asc_sop></asc_sop>
												<asc_sat></asc_sat>
												<lut2></lut2>
											</colorinfo>
											<labels>
												<label2>Violet</label2>
											</labels>
										</clipitem>
										<clipitem id="clipitem-765">
											<masterclipid>masterclip-363</masterclipid>
											<name>Plashka_Right_DV.mov</name>
											<enabled>TRUE</enabled>
											<duration>375</duration>
											<rate>
												<timebase>25</timebase>
												<ntsc>FALSE</ntsc>
											</rate>
											<start>375</start>
											<end>750</end>
											<in>0</in>
											<out>375</out>
											<pproTicksIn>0</pproTicksIn>
											<pproTicksOut>3810240000000</pproTicksOut>
											<alphatype>straight</alphatype>
											<file id="file-311"/>
											<filter>
												<effect>
													<name>Basic Motion</name>
													<effectid>basic</effectid>
													<effectcategory>motion</effectcategory>
													<effecttype>motion</effecttype>
													<mediatype>video</mediatype>
													<pproBypass>false</pproBypass>
													<parameter authoringApp="PremierePro">
														<parameterid>scale</parameterid>
														<name>Scale</name>
														<valuemin>0</valuemin>
														<valuemax>1000</valuemax>
														<value>100</value>
													</parameter>
													<parameter authoringApp="PremierePro">
														<parameterid>rotation</parameterid>
														<name>Rotation</name>
														<valuemin>-8640</valuemin>
														<valuemax>8640</valuemax>
														<value>0</value>
													</parameter>
													<parameter authoringApp="PremierePro">
														<parameterid>center</parameterid>
														<name>Center</name>
														<value>
															<horiz>-5.55112e-17</horiz>
															<vert>-1.11022e-16</vert>
														</value>
													</parameter>
													<parameter authoringApp="PremierePro">
														<parameterid>centerOffset</parameterid>
														<name>Anchor Point</name>
														<value>
															<horiz>0.402314</horiz>
															<vert>0.41875</vert>
														</value>
													</parameter>
													<parameter authoringApp="PremierePro">
														<parameterid>antiflicker</parameterid>
														<name>Anti-flicker Filter</name>
														<valuemin>0.0</valuemin>
														<valuemax>1.0</valuemax>
														<value>0</value>
													</parameter>
												</effect>
											</filter>
											<filter>
												<effect>
													<name>Distort</name>
													<effectid>deformation</effectid>
													<effectcategory>motion</effectcategory>
													<effecttype>motion</effecttype>
													<mediatype>video</mediatype>
													<parameter authoringApp="PremierePro">
														<parameterid>aspect</parameterid>
														<name>Aspect</name>
														<valuemin>-10000</valuemin>
														<valuemax>10000</valuemax>
														<value>14.9425</value>
													</parameter>
												</effect>
											</filter>
											<logginginfo>
												<description></description>
												<scene></scene>
												<shottake></shottake>
												<lognote></lognote>
												<good></good>
												<originalvideofilename></originalvideofilename>
												<originalaudiofilename></originalaudiofilename>
											</logginginfo>
											<colorinfo>
												<lut></lut>
												<lut1></lut1>
												<asc_sop></asc_sop>
												<asc_sat></asc_sat>
												<lut2></lut2>
											</colorinfo>
											<labels>
												<label2>Violet</label2>
											</labels>
										</clipitem>
										<clipitem id="clipitem-766">
											<masterclipid>masterclip-363</masterclipid>
											<name>Plashka_Right_DV.mov</name>
											<enabled>TRUE</enabled>
											<duration>375</duration>
											<rate>
												<timebase>25</timebase>
												<ntsc>FALSE</ntsc>
											</rate>
											<start>750</start>
											<end>1125</end>
											<in>0</in>
											<out>375</out>
											<pproTicksIn>0</pproTicksIn>
											<pproTicksOut>3810240000000</pproTicksOut>
											<alphatype>straight</alphatype>
											<file id="file-311"/>
											<filter>
												<effect>
													<name>Basic Motion</name>
													<effectid>basic</effectid>
													<effectcategory>motion</effectcategory>
													<effecttype>motion</effecttype>
													<mediatype>video</mediatype>
													<pproBypass>false</pproBypass>
													<parameter authoringApp="PremierePro">
														<parameterid>scale</parameterid>
														<name>Scale</name>
														<valuemin>0</valuemin>
														<valuemax>1000</valuemax>
														<value>100</value>
													</parameter>
													<parameter authoringApp="PremierePro">
														<parameterid>rotation</parameterid>
														<name>Rotation</name>
														<valuemin>-8640</valuemin>
														<valuemax>8640</valuemax>
														<value>0</value>
													</parameter>
													<parameter authoringApp="PremierePro">
														<parameterid>center</parameterid>
														<name>Center</name>
														<value>
															<horiz>-5.55112e-17</horiz>
															<vert>-1.11022e-16</vert>
														</value>
													</parameter>
													<parameter authoringApp="PremierePro">
														<parameterid>centerOffset</parameterid>
														<name>Anchor Point</name>
														<value>
															<horiz>0.402314</horiz>
															<vert>0.41875</vert>
														</value>
													</parameter>
													<parameter authoringApp="PremierePro">
														<parameterid>antiflicker</parameterid>
														<name>Anti-flicker Filter</name>
														<valuemin>0.0</valuemin>
														<valuemax>1.0</valuemax>
														<value>0</value>
													</parameter>
												</effect>
											</filter>
											<filter>
												<effect>
													<name>Distort</name>
													<effectid>deformation</effectid>
													<effectcategory>motion</effectcategory>
													<effecttype>motion</effecttype>
													<mediatype>video</mediatype>
													<parameter authoringApp="PremierePro">
														<parameterid>aspect</parameterid>
														<name>Aspect</name>
														<valuemin>-10000</valuemin>
														<valuemax>10000</valuemax>
														<value>25</value>
													</parameter>
												</effect>
											</filter>
											<logginginfo>
												<description></description>
												<scene></scene>
												<shottake></shottake>
												<lognote></lognote>
												<good></good>
												<originalvideofilename></originalvideofilename>
												<originalaudiofilename></originalaudiofilename>
											</logginginfo>
											<colorinfo>
												<lut></lut>
												<lut1></lut1>
												<asc_sop></asc_sop>
												<asc_sat></asc_sat>
												<lut2></lut2>
											</colorinfo>
											<labels>
												<label2>Violet</label2>
											</labels>
										</clipitem>
										<enabled>TRUE</enabled>
										<locked>FALSE</locked>
									</track>
									<track TL.SQTrackShy="0" TL.SQTrackExpandedHeight="25" TL.SQTrackExpanded="0" MZ.TrackTargeted="0">
										<transitionitem>
											<start>6</start>
											<end>35</end>
											<alignment>start-black</alignment>
											<cutPointTicks>0</cutPointTicks>
											<rate>
												<timebase>25</timebase>
												<ntsc>FALSE</ntsc>
											</rate>
											<effect>
												<name>Edge Wipe</name>
												<effectid>Edge Wipe</effectid>
												<effectcategory>Wipe</effectcategory>
												<effecttype>transition</effecttype>
												<mediatype>video</mediatype>
												<wipecode>2</wipecode>
												<wipeaccuracy>100</wipeaccuracy>
												<startratio>0</startratio>
												<endratio>1</endratio>
												<reverse>FALSE</reverse>
												<parameter authoringApp="PremierePro">
													<parameterid>directionofwipe</parameterid>
													<name>Angle</name>
													<valuemin>-360</valuemin>
													<valuemax>360</valuemax>
													<value>270</value>
												</parameter>
											</effect>
										</transitionitem>
										<clipitem id="clipitem-767">
											<masterclipid>masterclip-364</masterclipid>
											<name>8_1.png</name>
											<enabled>TRUE</enabled>
											<duration>1080000</duration>
											<rate>
												<timebase>25</timebase>
												<ntsc>FALSE</ntsc>
											</rate>
											<start>-1</start>
											<end>-1</end>
											<in>90006</in>
											<out>90369</out>
											<pproTicksIn>914518563840000</pproTicksIn>
											<pproTicksOut>918206876160000</pproTicksOut>
											<alphatype>straight</alphatype>
											<pixelaspectratio>square</pixelaspectratio>
											<anamorphic>FALSE</anamorphic>
											<file id="file-312">
												<name>8_1.png</name>
												<pathurl>file://localhost/_MUZ_TV/project_AP/RU/_TITLE/END/PNG/8_1.png</pathurl>
												<rate>
													<timebase>30</timebase>
													<ntsc>TRUE</ntsc>
												</rate>
												<timecode>
													<rate>
														<timebase>30</timebase>
														<ntsc>TRUE</ntsc>
													</rate>
													<string>00;00;00;00</string>
													<frame>0</frame>
													<displayformat>DF</displayformat>
												</timecode>
												<media>
													<video>
														<samplecharacteristics>
															<rate>
																<timebase>30</timebase>
																<ntsc>TRUE</ntsc>
															</rate>
															<width>1920</width>
															<height>1080</height>
															<anamorphic>FALSE</anamorphic>
															<pixelaspectratio>square</pixelaspectratio>
															<fielddominance>none</fielddominance>
														</samplecharacteristics>
													</video>
												</media>
											</file>
											<filter>
												<effect>
													<name>Basic Motion</name>
													<effectid>basic</effectid>
													<effectcategory>motion</effectcategory>
													<effecttype>motion</effecttype>
													<mediatype>video</mediatype>
													<pproBypass>false</pproBypass>
													<parameter authoringApp="PremierePro">
														<parameterid>scale</parameterid>
														<name>Scale</name>
														<valuemin>0</valuemin>
														<valuemax>1000</valuemax>
														<value>53.3333</value>
													</parameter>
													<parameter authoringApp="PremierePro">
														<parameterid>rotation</parameterid>
														<name>Rotation</name>
														<valuemin>-8640</valuemin>
														<valuemax>8640</valuemax>
														<value>0</value>
													</parameter>
													<parameter authoringApp="PremierePro">
														<parameterid>center</parameterid>
														<name>Center</name>
														<value>
															<horiz>0</horiz>
															<vert>0</vert>
														</value>
													</parameter>
													<parameter authoringApp="PremierePro">
														<parameterid>centerOffset</parameterid>
														<name>Anchor Point</name>
														<value>
															<horiz>0</horiz>
															<vert>0</vert>
														</value>
													</parameter>
													<parameter authoringApp="PremierePro">
														<parameterid>antiflicker</parameterid>
														<name>Anti-flicker Filter</name>
														<valuemin>0.0</valuemin>
														<valuemax>1.0</valuemax>
														<value>0</value>
													</parameter>
												</effect>
											</filter>
											<logginginfo>
												<description></description>
												<scene></scene>
												<shottake></shottake>
												<lognote></lognote>
												<good></good>
												<originalvideofilename></originalvideofilename>
												<originalaudiofilename></originalaudiofilename>
											</logginginfo>
											<colorinfo>
												<lut></lut>
												<lut1></lut1>
												<asc_sop></asc_sop>
												<asc_sat></asc_sat>
												<lut2></lut2>
											</colorinfo>
											<labels>
												<label2>Lavender</label2>
											</labels>
										</clipitem>
										<transitionitem>
											<start>344</start>
											<end>369</end>
											<alignment>end-black</alignment>
											<cutPointTicks>254016000000</cutPointTicks>
											<rate>
												<timebase>25</timebase>
												<ntsc>FALSE</ntsc>
											</rate>
											<effect>
												<name>Edge Wipe</name>
												<effectid>Edge Wipe</effectid>
												<effectcategory>Wipe</effectcategory>
												<effecttype>transition</effecttype>
												<mediatype>video</mediatype>
												<wipecode>2</wipecode>
												<wipeaccuracy>100</wipeaccuracy>
												<startratio>0</startratio>
												<endratio>1</endratio>
												<reverse>FALSE</reverse>
												<parameter authoringApp="PremierePro">
													<parameterid>directionofwipe</parameterid>
													<name>Angle</name>
													<valuemin>-360</valuemin>
													<valuemax>360</valuemax>
													<value>90</value>
												</parameter>
											</effect>
										</transitionitem>
										<transitionitem>
											<start>381</start>
											<end>410</end>
											<alignment>start-black</alignment>
											<cutPointTicks>0</cutPointTicks>
											<rate>
												<timebase>25</timebase>
												<ntsc>FALSE</ntsc>
											</rate>
											<effect>
												<name>Edge Wipe</name>
												<effectid>Edge Wipe</effectid>
												<effectcategory>Wipe</effectcategory>
												<effecttype>transition</effecttype>
												<mediatype>video</mediatype>
												<wipecode>2</wipecode>
												<wipeaccuracy>100</wipeaccuracy>
												<startratio>0</startratio>
												<endratio>1</endratio>
												<reverse>FALSE</reverse>
												<parameter authoringApp="PremierePro">
													<parameterid>directionofwipe</parameterid>
													<name>Angle</name>
													<valuemin>-360</valuemin>
													<valuemax>360</valuemax>
													<value>270</value>
												</parameter>
											</effect>
										</transitionitem>
										<clipitem id="clipitem-768">
											<masterclipid>masterclip-365</masterclipid>
											<name>8_2.png</name>
											<enabled>TRUE</enabled>
											<duration>1080000</duration>
											<rate>
												<timebase>25</timebase>
												<ntsc>FALSE</ntsc>
											</rate>
											<start>-1</start>
											<end>-1</end>
											<in>90011</in>
											<out>90374</out>
											<pproTicksIn>914569367040000</pproTicksIn>
											<pproTicksOut>918257679360000</pproTicksOut>
											<alphatype>straight</alphatype>
											<pixelaspectratio>square</pixelaspectratio>
											<anamorphic>FALSE</anamorphic>
											<file id="file-313">
												<name>8_2.png</name>
												<pathurl>file://localhost/_MUZ_TV/project_AP/RU/_TITLE/END/PNG/8_2.png</pathurl>
												<rate>
													<timebase>30</timebase>
													<ntsc>TRUE</ntsc>
												</rate>
												<timecode>
													<rate>
														<timebase>30</timebase>
														<ntsc>TRUE</ntsc>
													</rate>
													<string>00;00;00;00</string>
													<frame>0</frame>
													<displayformat>DF</displayformat>
												</timecode>
												<media>
													<video>
														<samplecharacteristics>
															<rate>
																<timebase>30</timebase>
																<ntsc>TRUE</ntsc>
															</rate>
															<width>1920</width>
															<height>1080</height>
															<anamorphic>FALSE</anamorphic>
															<pixelaspectratio>square</pixelaspectratio>
															<fielddominance>none</fielddominance>
														</samplecharacteristics>
													</video>
												</media>
											</file>
											<filter>
												<effect>
													<name>Basic Motion</name>
													<effectid>basic</effectid>
													<effectcategory>motion</effectcategory>
													<effecttype>motion</effecttype>
													<mediatype>video</mediatype>
													<pproBypass>false</pproBypass>
													<parameter authoringApp="PremierePro">
														<parameterid>scale</parameterid>
														<name>Scale</name>
														<valuemin>0</valuemin>
														<valuemax>1000</valuemax>
														<value>53.3333</value>
													</parameter>
													<parameter authoringApp="PremierePro">
														<parameterid>rotation</parameterid>
														<name>Rotation</name>
														<valuemin>-8640</valuemin>
														<valuemax>8640</valuemax>
														<value>0</value>
													</parameter>
													<parameter authoringApp="PremierePro">
														<parameterid>center</parameterid>
														<name>Center</name>
														<value>
															<horiz>0</horiz>
															<vert>0</vert>
														</value>
													</parameter>
													<parameter authoringApp="PremierePro">
														<parameterid>centerOffset</parameterid>
														<name>Anchor Point</name>
														<value>
															<horiz>0</horiz>
															<vert>0</vert>
														</value>
													</parameter>
													<parameter authoringApp="PremierePro">
														<parameterid>antiflicker</parameterid>
														<name>Anti-flicker Filter</name>
														<valuemin>0.0</valuemin>
														<valuemax>1.0</valuemax>
														<value>0</value>
													</parameter>
												</effect>
											</filter>
											<logginginfo>
												<description></description>
												<scene></scene>
												<shottake></shottake>
												<lognote></lognote>
												<good></good>
												<originalvideofilename></originalvideofilename>
												<originalaudiofilename></originalaudiofilename>
											</logginginfo>
											<colorinfo>
												<lut></lut>
												<lut1></lut1>
												<asc_sop></asc_sop>
												<asc_sat></asc_sat>
												<lut2></lut2>
											</colorinfo>
											<labels>
												<label2>Lavender</label2>
											</labels>
										</clipitem>
										<transitionitem>
											<start>719</start>
											<end>744</end>
											<alignment>end-black</alignment>
											<cutPointTicks>254016000000</cutPointTicks>
											<rate>
												<timebase>25</timebase>
												<ntsc>FALSE</ntsc>
											</rate>
											<effect>
												<name>Edge Wipe</name>
												<effectid>Edge Wipe</effectid>
												<effectcategory>Wipe</effectcategory>
												<effecttype>transition</effecttype>
												<mediatype>video</mediatype>
												<wipecode>2</wipecode>
												<wipeaccuracy>100</wipeaccuracy>
												<startratio>0</startratio>
												<endratio>1</endratio>
												<reverse>FALSE</reverse>
												<parameter authoringApp="PremierePro">
													<parameterid>directionofwipe</parameterid>
													<name>Angle</name>
													<valuemin>-360</valuemin>
													<valuemax>360</valuemax>
													<value>90</value>
												</parameter>
											</effect>
										</transitionitem>
										<transitionitem>
											<start>756</start>
											<end>785</end>
											<alignment>start-black</alignment>
											<cutPointTicks>0</cutPointTicks>
											<rate>
												<timebase>25</timebase>
												<ntsc>FALSE</ntsc>
											</rate>
											<effect>
												<name>Edge Wipe</name>
												<effectid>Edge Wipe</effectid>
												<effectcategory>Wipe</effectcategory>
												<effecttype>transition</effecttype>
												<mediatype>video</mediatype>
												<wipecode>2</wipecode>
												<wipeaccuracy>100</wipeaccuracy>
												<startratio>0</startratio>
												<endratio>1</endratio>
												<reverse>FALSE</reverse>
												<parameter authoringApp="PremierePro">
													<parameterid>directionofwipe</parameterid>
													<name>Angle</name>
													<valuemin>-360</valuemin>
													<valuemax>360</valuemax>
													<value>270</value>
												</parameter>
											</effect>
										</transitionitem>
										<clipitem id="clipitem-769">
											<masterclipid>masterclip-366</masterclipid>
											<name>8_3.png</name>
											<enabled>TRUE</enabled>
											<duration>1080000</duration>
											<rate>
												<timebase>25</timebase>
												<ntsc>FALSE</ntsc>
											</rate>
											<start>-1</start>
											<end>-1</end>
											<in>90011</in>
											<out>90375</out>
											<pproTicksIn>914569367040000</pproTicksIn>
											<pproTicksOut>918267840000000</pproTicksOut>
											<alphatype>straight</alphatype>
											<pixelaspectratio>square</pixelaspectratio>
											<anamorphic>FALSE</anamorphic>
											<file id="file-314">
												<name>8_3.png</name>
												<pathurl>file://localhost/_MUZ_TV/project_AP/RU/_TITLE/END/PNG/8_3.png</pathurl>
												<rate>
													<timebase>30</timebase>
													<ntsc>TRUE</ntsc>
												</rate>
												<timecode>
													<rate>
														<timebase>30</timebase>
														<ntsc>TRUE</ntsc>
													</rate>
													<string>00;00;00;00</string>
													<frame>0</frame>
													<displayformat>DF</displayformat>
												</timecode>
												<media>
													<video>
														<samplecharacteristics>
															<rate>
																<timebase>30</timebase>
																<ntsc>TRUE</ntsc>
															</rate>
															<width>1920</width>
															<height>1080</height>
															<anamorphic>FALSE</anamorphic>
															<pixelaspectratio>square</pixelaspectratio>
															<fielddominance>none</fielddominance>
														</samplecharacteristics>
													</video>
												</media>
											</file>
											<filter>
												<effect>
													<name>Basic Motion</name>
													<effectid>basic</effectid>
													<effectcategory>motion</effectcategory>
													<effecttype>motion</effecttype>
													<mediatype>video</mediatype>
													<pproBypass>false</pproBypass>
													<parameter authoringApp="PremierePro">
														<parameterid>scale</parameterid>
														<name>Scale</name>
														<valuemin>0</valuemin>
														<valuemax>1000</valuemax>
														<value>53.3333</value>
													</parameter>
													<parameter authoringApp="PremierePro">
														<parameterid>rotation</parameterid>
														<name>Rotation</name>
														<valuemin>-8640</valuemin>
														<valuemax>8640</valuemax>
														<value>0</value>
													</parameter>
													<parameter authoringApp="PremierePro">
														<parameterid>center</parameterid>
														<name>Center</name>
														<value>
															<horiz>0</horiz>
															<vert>0</vert>
														</value>
													</parameter>
													<parameter authoringApp="PremierePro">
														<parameterid>centerOffset</parameterid>
														<name>Anchor Point</name>
														<value>
															<horiz>0</horiz>
															<vert>0</vert>
														</value>
													</parameter>
													<parameter authoringApp="PremierePro">
														<parameterid>antiflicker</parameterid>
														<name>Anti-flicker Filter</name>
														<valuemin>0.0</valuemin>
														<valuemax>1.0</valuemax>
														<value>0</value>
													</parameter>
												</effect>
											</filter>
											<logginginfo>
												<description></description>
												<scene></scene>
												<shottake></shottake>
												<lognote></lognote>
												<good></good>
												<originalvideofilename></originalvideofilename>
												<originalaudiofilename></originalaudiofilename>
											</logginginfo>
											<colorinfo>
												<lut></lut>
												<lut1></lut1>
												<asc_sop></asc_sop>
												<asc_sat></asc_sat>
												<lut2></lut2>
											</colorinfo>
											<labels>
												<label2>Lavender</label2>
											</labels>
										</clipitem>
										<transitionitem>
											<start>1095</start>
											<end>1120</end>
											<alignment>end-black</alignment>
											<cutPointTicks>254016000000</cutPointTicks>
											<rate>
												<timebase>25</timebase>
												<ntsc>FALSE</ntsc>
											</rate>
											<effect>
												<name>Edge Wipe</name>
												<effectid>Edge Wipe</effectid>
												<effectcategory>Wipe</effectcategory>
												<effecttype>transition</effecttype>
												<mediatype>video</mediatype>
												<wipecode>2</wipecode>
												<wipeaccuracy>100</wipeaccuracy>
												<startratio>0</startratio>
												<endratio>1</endratio>
												<reverse>FALSE</reverse>
												<parameter authoringApp="PremierePro">
													<parameterid>directionofwipe</parameterid>
													<name>Angle</name>
													<valuemin>-360</valuemin>
													<valuemax>360</valuemax>
													<value>90</value>
												</parameter>
											</effect>
										</transitionitem>
										<enabled>TRUE</enabled>
										<locked>FALSE</locked>
									</track>
									<track TL.SQTrackShy="0" TL.SQTrackExpandedHeight="25" TL.SQTrackExpanded="0" MZ.TrackTargeted="0">
										<transitionitem>
											<start>755</start>
											<end>780</end>
											<alignment>start-black</alignment>
											<cutPointTicks>0</cutPointTicks>
											<rate>
												<timebase>25</timebase>
												<ntsc>FALSE</ntsc>
											</rate>
											<effect>
												<name>Edge Wipe</name>
												<effectid>Edge Wipe</effectid>
												<effectcategory>Wipe</effectcategory>
												<effecttype>transition</effecttype>
												<mediatype>video</mediatype>
												<wipecode>2</wipecode>
												<wipeaccuracy>100</wipeaccuracy>
												<startratio>0</startratio>
												<endratio>1</endratio>
												<reverse>FALSE</reverse>
												<parameter authoringApp="PremierePro">
													<parameterid>directionofwipe</parameterid>
													<name>Angle</name>
													<valuemin>-360</valuemin>
													<valuemax>360</valuemax>
													<value>270</value>
												</parameter>
											</effect>
										</transitionitem>
										<clipitem id="clipitem-770">
											<masterclipid>masterclip-367</masterclipid>
											<name>Graphic</name>
											<enabled>FALSE</enabled>
											<duration>1080000</duration>
											<rate>
												<timebase>25</timebase>
												<ntsc>FALSE</ntsc>
											</rate>
											<start>-1</start>
											<end>-1</end>
											<in>89905</in>
											<out>90272</out>
											<pproTicksIn>913492339200000</pproTicksIn>
											<pproTicksOut>917221294080000</pproTicksOut>
											<alphatype>straight</alphatype>
											<pixelaspectratio>PAL-601</pixelaspectratio>
											<anamorphic>TRUE</anamorphic>
											<file id="file-315">
												<name>Graphic</name>
												<mediaSource>GraphicAndType</mediaSource>
												<rate>
													<timebase>30</timebase>
													<ntsc>TRUE</ntsc>
												</rate>
												<timecode>
													<rate>
														<timebase>30</timebase>
														<ntsc>TRUE</ntsc>
													</rate>
													<string>00;00;00;00</string>
													<frame>0</frame>
													<displayformat>DF</displayformat>
												</timecode>
												<media>
													<video>
														<samplecharacteristics>
															<rate>
																<timebase>30</timebase>
																<ntsc>TRUE</ntsc>
															</rate>
															<width>720</width>
															<height>576</height>
															<anamorphic>TRUE</anamorphic>
															<pixelaspectratio>PAL-601</pixelaspectratio>
															<fielddominance>none</fielddominance>
														</samplecharacteristics>
													</video>
												</media>
											</file>
											<filter>
												<effect>
													<name>Vector Motion</name>
													<effectid>GraphicGroup</effectid>
													<effectcategory>graphic</effectcategory>
													<effecttype>filter</effecttype>
													<mediatype>video</mediatype>
													<pproBypass>false</pproBypass>
													<parameter authoringApp="PremierePro">
														<parameterid>1</parameterid>
														<name>Position</name>
														<IsTimeVarying>false</IsTimeVarying>
														<value>-91445760000000000,0.81693898908787344:0.49085601568222115,0,0,0,0,0,0,5,4,0,0,0,0</value>
													</parameter>
													<parameter authoringApp="PremierePro">
														<parameterid>2</parameterid>
														<name>Scale</name>
														<IsTimeVarying>false</IsTimeVarying>
														<ParameterControlType>2</ParameterControlType>
														<LowerBound>0</LowerBound>
														<UpperBound>10000</UpperBound>
														<UpperUIBound>200</UpperUIBound>
														<value>-91445760000000000,100.,0,0,0,0,0,0</value>
													</parameter>
													<parameter authoringApp="PremierePro">
														<parameterid>3</parameterid>
														<name>Scale Width</name>
														<IsTimeVarying>false</IsTimeVarying>
														<ParameterControlType>2</ParameterControlType>
														<LowerBound>0</LowerBound>
														<UpperBound>10000</UpperBound>
														<UpperUIBound>200</UpperUIBound>
														<value>-91445760000000000,100.,0,0,0,0,0,0</value>
													</parameter>
													<parameter authoringApp="PremierePro">
														<parameterid>4</parameterid>
														<name> </name>
														<IsTimeVarying>false</IsTimeVarying>
														<ParameterControlType>4</ParameterControlType>
														<LowerBound>false</LowerBound>
														<UpperBound>true</UpperBound>
														<value>-91445760000000000,true,0,0,0,0,0,0</value>
													</parameter>
													<parameter authoringApp="PremierePro">
														<parameterid>5</parameterid>
														<name>Rotation</name>
														<IsTimeVarying>false</IsTimeVarying>
														<ParameterControlType>3</ParameterControlType>
														<LowerBound>-32768</LowerBound>
														<UpperBound>32767</UpperBound>
														<value>-91445760000000000,0.,0,0,0,0,0,0</value>
													</parameter>
													<parameter authoringApp="PremierePro">
														<parameterid>6</parameterid>
														<name>Anchor Point</name>
														<IsTimeVarying>false</IsTimeVarying>
														<value>-91445760000000000,0.5:0.5,0,0,0,0,0,0,5,4,0,0,0,0</value>
													</parameter>
												</effect>
											</filter>
											<filter>
												<effect>
													<name>Данил Прытков признаётся, &#13;что сильные провалы &#13;мотивируют его на творчество &#13;не меньше, чем победы. </name>
													<effectid>GraphicAndType</effectid>
													<effectcategory>graphic</effectcategory>
													<effecttype>filter</effecttype>
													<mediatype>video</mediatype>
													<pproBypass>false</pproBypass>
													<pproExpanded>true</pproExpanded>
													<parameter authoringApp="PremierePro">
														<parameterid>1</parameterid>
														<name>Source Text</name>
														<hash>698123b5-7d57-7b79-efb1-b0df00000a31</hash>
													</parameter>
													<parameter authoringApp="PremierePro">
														<parameterid>2</parameterid>
														<name>Transform</name>
														<IsTimeVarying>false</IsTimeVarying>
														<ParameterControlType>11</ParameterControlType>
														<LowerBound>false</LowerBound>
														<UpperBound>false</UpperBound>
														<value>-91445760000000000,false,0,0,0,0,0,0</value>
													</parameter>
													<parameter authoringApp="PremierePro">
														<parameterid>3</parameterid>
														<name>Position</name>
														<IsTimeVarying>false</IsTimeVarying>
														<value>-91445760000000000,0.270416259765625:0.640594482421875,0,0,0,0,0,0,5,4,0,0,0,0</value>
													</parameter>
													<parameter authoringApp="PremierePro">
														<parameterid>4</parameterid>
														<name>Scale</name>
														<IsTimeVarying>false</IsTimeVarying>
														<ParameterControlType>2</ParameterControlType>
														<LowerBound>0</LowerBound>
														<UpperBound>4000</UpperBound>
														<value>-91445760000000000,100.,0,0,0,0,0,0</value>
													</parameter>
													<parameter authoringApp="PremierePro">
														<parameterid>5</parameterid>
														<name>Horizontal Scale</name>
														<IsTimeVarying>false</IsTimeVarying>
														<ParameterControlType>2</ParameterControlType>
														<LowerBound>0</LowerBound>
														<UpperBound>4000</UpperBound>
														<value>-91445760000000000,100.,0,0,0,0,0,0</value>
													</parameter>
													<parameter authoringApp="PremierePro">
														<parameterid>6</parameterid>
														<name> </name>
														<IsTimeVarying>false</IsTimeVarying>
														<ParameterControlType>4</ParameterControlType>
														<LowerBound>false</LowerBound>
														<UpperBound>true</UpperBound>
														<value>-91445760000000000,true,0,0,0,0,0,0</value>
													</parameter>
													<parameter authoringApp="PremierePro">
														<parameterid>7</parameterid>
														<name>Rotation</name>
														<IsTimeVarying>false</IsTimeVarying>
														<ParameterControlType>3</ParameterControlType>
														<LowerBound>-32768</LowerBound>
														<UpperBound>32767</UpperBound>
														<value>-91445760000000000,0.,0,0,0,0,0,0</value>
													</parameter>
													<parameter authoringApp="PremierePro">
														<parameterid>8</parameterid>
														<name>Opacity</name>
														<IsTimeVarying>false</IsTimeVarying>
														<ParameterControlType>2</ParameterControlType>
														<LowerBound>0</LowerBound>
														<UpperBound>100</UpperBound>
														<value>-91445760000000000,100.,0,0,0,0,0,0</value>
													</parameter>
													<parameter authoringApp="PremierePro">
														<parameterid>9</parameterid>
														<name>Anchor Point</name>
														<IsTimeVarying>false</IsTimeVarying>
														<value>-91445760000000000,0:0,0,0,0,0,0,0,5,4,0,0,0,0</value>
													</parameter>
													<parameter authoringApp="PremierePro">
														<parameterid>10</parameterid>
														<name></name>
														<IsTimeVarying>false</IsTimeVarying>
														<ParameterControlType>12</ParameterControlType>
														<LowerBound>false</LowerBound>
														<UpperBound>false</UpperBound>
														<value>-91445760000000000,false,0,0,0,0,0,0</value>
													</parameter>
													<parameter authoringApp="PremierePro">
														<parameterid>11</parameterid>
														<name> </name>
														<IsTimeVarying>false</IsTimeVarying>
														<ParameterControlType>8</ParameterControlType>
														<LowerBound>0</LowerBound>
														<UpperBound>32768</UpperBound>
														<value>-91445760000000000,0.,0,0,0,0,0,0</value>
													</parameter>
													<parameter authoringApp="PremierePro">
														<parameterid>12</parameterid>
														<name> </name>
														<IsTimeVarying>false</IsTimeVarying>
														<ParameterControlType>8</ParameterControlType>
														<LowerBound>0</LowerBound>
														<UpperBound>32768</UpperBound>
														<value>-91445760000000000,0.,0,0,0,0,0,0</value>
													</parameter>
													<parameter authoringApp="PremierePro">
														<parameterid>13</parameterid>
														<name>start</name>
														<IsTimeVarying>false</IsTimeVarying>
														<ParameterControlType>8</ParameterControlType>
														<LowerBound>-100</LowerBound>
														<UpperBound>1000000000</UpperBound>
														<value>-91445760000000000,0.,0,0,0,0,0,0</value>
													</parameter>
													<parameter authoringApp="PremierePro">
														<parameterid>14</parameterid>
														<name>end</name>
														<IsTimeVarying>false</IsTimeVarying>
														<ParameterControlType>8</ParameterControlType>
														<LowerBound>-100</LowerBound>
														<UpperBound>1000000000</UpperBound>
														<value>-91445760000000000,101.,0,0,0,0,0,0</value>
													</parameter>
													<parameter authoringApp="PremierePro">
														<parameterid>15</parameterid>
														<name> </name>
														<IsTimeVarying>false</IsTimeVarying>
														<ParameterControlType>4</ParameterControlType>
														<LowerBound>false</LowerBound>
														<UpperBound>true</UpperBound>
														<value>-91445760000000000,false,0,0,0,0,0,0</value>
													</parameter>
													<parameter authoringApp="PremierePro">
														<parameterid>16</parameterid>
														<name> </name>
														<IsTimeVarying>false</IsTimeVarying>
														<ParameterControlType>4</ParameterControlType>
														<LowerBound>false</LowerBound>
														<UpperBound>true</UpperBound>
														<value>-91445760000000000,false,0,0,0,0,0,0</value>
													</parameter>
													<parameter authoringApp="PremierePro">
														<parameterid>17</parameterid>
														<name> </name>
														<IsTimeVarying>false</IsTimeVarying>
														<ParameterControlType>4</ParameterControlType>
														<LowerBound>false</LowerBound>
														<UpperBound>true</UpperBound>
														<value>-91445760000000000,false,0,0,0,0,0,0</value>
													</parameter>
													<parameter authoringApp="PremierePro">
														<parameterid>18</parameterid>
														<name> </name>
														<IsTimeVarying>false</IsTimeVarying>
														<ParameterControlType>4</ParameterControlType>
														<LowerBound>false</LowerBound>
														<UpperBound>true</UpperBound>
														<value>-91445760000000000,false,0,0,0,0,0,0</value>
													</parameter>
													<parameter authoringApp="PremierePro">
														<parameterid>19</parameterid>
														<name>Parent Width</name>
														<IsTimeVarying>false</IsTimeVarying>
														<ParameterControlType>2</ParameterControlType>
														<LowerBound>0</LowerBound>
														<UpperBound>20000</UpperBound>
														<value>-91445760000000000,0.,0,0,0,0,0,0</value>
													</parameter>
													<parameter authoringApp="PremierePro">
														<parameterid>20</parameterid>
														<name>Parent Height</name>
														<IsTimeVarying>false</IsTimeVarying>
														<ParameterControlType>2</ParameterControlType>
														<LowerBound>0</LowerBound>
														<UpperBound>20000</UpperBound>
														<value>-91445760000000000,0.,0,0,0,0,0,0</value>
													</parameter>
													<parameter authoringApp="PremierePro">
														<parameterid>21</parameterid>
														<name>Parent Rotation</name>
														<IsTimeVarying>false</IsTimeVarying>
														<ParameterControlType>3</ParameterControlType>
														<LowerBound>-32768</LowerBound>
														<UpperBound>32767</UpperBound>
														<value>-91445760000000000,0.,0,0,0,0,0,0</value>
													</parameter>
												</effect>
											</filter>
											<logginginfo>
												<description></description>
												<scene></scene>
												<shottake></shottake>
												<lognote></lognote>
												<good></good>
												<originalvideofilename></originalvideofilename>
												<originalaudiofilename></originalaudiofilename>
											</logginginfo>
											<colorinfo>
												<lut></lut>
												<lut1></lut1>
												<asc_sop></asc_sop>
												<asc_sat></asc_sat>
												<lut2></lut2>
											</colorinfo>
										</clipitem>
										<transitionitem>
											<start>1097</start>
											<end>1122</end>
											<alignment>end-black</alignment>
											<cutPointTicks>254016000000</cutPointTicks>
											<rate>
												<timebase>25</timebase>
												<ntsc>FALSE</ntsc>
											</rate>
											<effect>
												<name>Edge Wipe</name>
												<effectid>Edge Wipe</effectid>
												<effectcategory>Wipe</effectcategory>
												<effecttype>transition</effecttype>
												<mediatype>video</mediatype>
												<wipecode>2</wipecode>
												<wipeaccuracy>100</wipeaccuracy>
												<startratio>0</startratio>
												<endratio>1</endratio>
												<reverse>FALSE</reverse>
												<parameter authoringApp="PremierePro">
													<parameterid>directionofwipe</parameterid>
													<name>Angle</name>
													<valuemin>-360</valuemin>
													<valuemax>360</valuemax>
													<value>90</value>
												</parameter>
											</effect>
										</transitionitem>
										<enabled>TRUE</enabled>
										<locked>FALSE</locked>
									</track>
								</video>
								<audio>
									<numOutputChannels>2</numOutputChannels>
									<format>
										<samplecharacteristics>
											<depth>16</depth>
											<samplerate>48000</samplerate>
										</samplecharacteristics>
									</format>
									<outputs>
										<group>
											<index>1</index>
											<numchannels>1</numchannels>
											<downmix>0</downmix>
											<channel>
												<index>1</index>
											</channel>
										</group>
										<group>
											<index>2</index>
											<numchannels>1</numchannels>
											<downmix>0</downmix>
											<channel>
												<index>2</index>
											</channel>
										</group>
									</outputs>
									<track TL.SQTrackAudioKeyframeStyle="0" TL.SQTrackShy="0" TL.SQTrackExpandedHeight="25" TL.SQTrackExpanded="0" MZ.TrackTargeted="1" PannerCurrentValue="0.5" PannerStartKeyframe="-91445760000000000,0.5,0,0,0,0,0,0" PannerName="Balance" currentExplodedTrackIndex="0" totalExplodedTrackCount="2" premiereTrackType="Stereo">
										<enabled>TRUE</enabled>
										<locked>FALSE</locked>
										<outputchannelindex>1</outputchannelindex>
									</track>
									<track TL.SQTrackAudioKeyframeStyle="0" TL.SQTrackShy="0" TL.SQTrackExpandedHeight="25" TL.SQTrackExpanded="0" MZ.TrackTargeted="1" PannerCurrentValue="0.5" PannerStartKeyframe="-91445760000000000,0.5,0,0,0,0,0,0" PannerName="Balance" currentExplodedTrackIndex="1" totalExplodedTrackCount="2" premiereTrackType="Stereo">
										<enabled>TRUE</enabled>
										<locked>FALSE</locked>
										<outputchannelindex>2</outputchannelindex>
									</track>
								</audio>
							</media>
							<timecode>
								<rate>
									<timebase>25</timebase>
									<ntsc>FALSE</ntsc>
								</rate>
								<string>00:00:00:00</string>
								<frame>0</frame>
								<displayformat>NDF</displayformat>
							</timecode>
								<marker>
									<comment></comment>
									<name></name>
									<in>800</in>
									<out>-1</out>
									<pproColor>4292277273</pproColor>
								</marker>
								<marker>
									<comment></comment>
									<name></name>
									<in>50</in>
									<out>-1</out>
									<pproColor>4292277273</pproColor>
								</marker>
								<marker>
									<comment></comment>
									<name></name>
									<in>425</in>
									<out>-1</out>
									<pproColor>4292277273</pproColor>
								</marker>
							<logginginfo>
								<description></description>
								<scene></scene>
								<shottake></shottake>
								<lognote></lognote>
								<good></good>
								<originalvideofilename></originalvideofilename>
								<originalaudiofilename></originalaudiofilename>
							</logginginfo>
						</sequence>
							<marker>
								<comment></comment>
								<name></name>
								<in>800</in>
								<out>-1</out>
								<pproColor>4292277273</pproColor>
							</marker>
							<marker>
								<comment></comment>
								<name></name>
								<in>50</in>
								<out>-1</out>
								<pproColor>4292277273</pproColor>
							</marker>
							<marker>
								<comment></comment>
								<name></name>
								<in>425</in>
								<out>-1</out>
								<pproColor>4292277273</pproColor>
							</marker>
						<labels>
							<label2>Forest</label2>
						</labels>
					</clipitem>
					<clipitem id="clipitem-771">
						<masterclipid>masterclip-362</masterclipid>
						<name>8</name>
						<enabled>TRUE</enabled>
						<duration>1125</duration>
						<rate>
							<timebase>25</timebase>
							<ntsc>FALSE</ntsc>
						</rate>
						<start>21060</start>
						<end>21435</end>
						<in>375</in>
						<out>750</out>
						<pproTicksIn>3810240000000</pproTicksIn>
						<pproTicksOut>7620480000000</pproTicksOut>
						<sequence id="sequence-56"/>
							<marker>
								<comment></comment>
								<name></name>
								<in>800</in>
								<out>-1</out>
								<pproColor>4292277273</pproColor>
							</marker>
							<marker>
								<comment></comment>
								<name></name>
								<in>50</in>
								<out>-1</out>
								<pproColor>4292277273</pproColor>
							</marker>
							<marker>
								<comment></comment>
								<name></name>
								<in>425</in>
								<out>-1</out>
								<pproColor>4292277273</pproColor>
							</marker>
						<labels>
							<label2>Forest</label2>
						</labels>
					</clipitem>
					<clipitem id="clipitem-772">
						<masterclipid>masterclip-362</masterclipid>
						<name>8</name>
						<enabled>TRUE</enabled>
						<duration>1125</duration>
						<rate>
							<timebase>25</timebase>
							<ntsc>FALSE</ntsc>
						</rate>
						<start>22763</start>
						<end>23138</end>
						<in>750</in>
						<out>1125</out>
						<pproTicksIn>7620480000000</pproTicksIn>
						<pproTicksOut>11430720000000</pproTicksOut>
						<sequence id="sequence-56"/>
							<marker>
								<comment></comment>
								<name></name>
								<in>800</in>
								<out>-1</out>
								<pproColor>4292277273</pproColor>
							</marker>
							<marker>
								<comment></comment>
								<name></name>
								<in>50</in>
								<out>-1</out>
								<pproColor>4292277273</pproColor>
							</marker>
							<marker>
								<comment></comment>
								<name></name>
								<in>425</in>
								<out>-1</out>
								<pproColor>4292277273</pproColor>
							</marker>
						<labels>
							<label2>Forest</label2>
						</labels>
					</clipitem>
					<clipitem id="clipitem-773">
						<masterclipid>masterclip-368</masterclipid>
						<name>9</name>
						<enabled>TRUE</enabled>
						<duration>1125</duration>
						<rate>
							<timebase>25</timebase>
							<ntsc>FALSE</ntsc>
						</rate>
						<start>24576</start>
						<end>24951</end>
						<in>0</in>
						<out>375</out>
						<pproTicksIn>0</pproTicksIn>
						<pproTicksOut>3810240000000</pproTicksOut>
						<sequence id="sequence-57" TL.SQAudioVisibleBase="0" TL.SQVideoVisibleBase="0" TL.SQVisibleBaseTime="0" TL.SQAVDividerPosition="0.5" TL.SQHideShyTracks="0" TL.SQHeaderWidth="236" Monitor.ProgramZoomOut="11430720000000" Monitor.ProgramZoomIn="0" TL.SQTimePerPixel="0.19620667102680808" AM.TrackVScrollPosition="0" AM.TrackScrollPosition="0" MZ.EditLine="1940682240000" MZ.Sequence.PreviewFrameSizeHeight="576" MZ.Sequence.PreviewFrameSizeWidth="720" MZ.Sequence.AudioTimeDisplayFormat="200" MZ.Sequence.PreviewRenderingClassID="1061109567" MZ.Sequence.PreviewRenderingPresetCodec="1685480304" MZ.Sequence.PreviewRenderingPresetPath="EncoderPresets/SequencePreview/04be6e19-a018-4e0c-a9d6-0ab44c64752b/QuickTime DV PAL.epr" MZ.Sequence.PreviewUseMaxRenderQuality="false" MZ.Sequence.PreviewUseMaxBitDepth="false" MZ.Sequence.EditingModeGUID="04be6e19-a018-4e0c-a9d6-0ab44c64752b" MZ.Sequence.VideoTimeDisplayFormat="101" MZ.WorkOutPoint="11430720000000" MZ.WorkInPoint="0" MZ.ZeroPoint="0">
							<duration>1125</duration>
							<rate>
								<timebase>25</timebase>
								<ntsc>FALSE</ntsc>
							</rate>
							<name>RU_Nested</name>
							<media>
								<video>
									<format>
										<samplecharacteristics>
											<rate>
												<timebase>25</timebase>
												<ntsc>FALSE</ntsc>
											</rate>
											<codec>
												<name>Apple ProRes 422</name>
												<appspecificdata>
													<appname>Final Cut Pro</appname>
													<appmanufacturer>Apple Inc.</appmanufacturer>
													<appversion>7.0</appversion>
													<data>
														<qtcodec>
															<codecname>Apple ProRes 422</codecname>
															<codectypename>Apple ProRes 422</codectypename>
															<codectypecode>apcn</codectypecode>
															<codecvendorcode>appl</codecvendorcode>
															<spatialquality>1024</spatialquality>
															<temporalquality>0</temporalquality>
															<keyframerate>0</keyframerate>
															<datarate>0</datarate>
														</qtcodec>
													</data>
												</appspecificdata>
											</codec>
											<width>720</width>
											<height>576</height>
											<anamorphic>TRUE</anamorphic>
											<pixelaspectratio>PAL-601</pixelaspectratio>
											<fielddominance>lower</fielddominance>
											<colordepth>24</colordepth>
										</samplecharacteristics>
									</format>
									<track TL.SQTrackShy="0" TL.SQTrackExpandedHeight="25" TL.SQTrackExpanded="0" MZ.TrackTargeted="1">
										<clipitem id="clipitem-774">
											<masterclipid>masterclip-369</masterclipid>
											<name>Plashka_Right_DV.mov</name>
											<enabled>TRUE</enabled>
											<duration>375</duration>
											<rate>
												<timebase>25</timebase>
												<ntsc>FALSE</ntsc>
											</rate>
											<start>0</start>
											<end>375</end>
											<in>0</in>
											<out>375</out>
											<pproTicksIn>0</pproTicksIn>
											<pproTicksOut>3810240000000</pproTicksOut>
											<alphatype>straight</alphatype>
											<pixelaspectratio>PAL-601</pixelaspectratio>
											<anamorphic>TRUE</anamorphic>
											<file id="file-316">
												<name>Plashka_Right_DV.mov</name>
												<pathurl>file://localhost/Volumes/1Tb/_MUZ_TV/graphika/RU-21/MOD/Plashka_Right_DV.mov</pathurl>
												<rate>
													<timebase>25</timebase>
													<ntsc>FALSE</ntsc>
												</rate>
												<duration>375</duration>
												<timecode>
													<rate>
														<timebase>25</timebase>
														<ntsc>FALSE</ntsc>
													</rate>
													<string>00:00:15:10</string>
													<frame>385</frame>
													<displayformat>NDF</displayformat>
												</timecode>
												<media>
													<video>
														<samplecharacteristics>
															<rate>
																<timebase>25</timebase>
																<ntsc>FALSE</ntsc>
															</rate>
															<width>720</width>
															<height>576</height>
															<anamorphic>TRUE</anamorphic>
															<pixelaspectratio>PAL-601</pixelaspectratio>
															<fielddominance>lower</fielddominance>
														</samplecharacteristics>
													</video>
												</media>
											</file>
											<filter>
												<effect>
													<name>Basic Motion</name>
													<effectid>basic</effectid>
													<effectcategory>motion</effectcategory>
													<effecttype>motion</effecttype>
													<mediatype>video</mediatype>
													<pproBypass>false</pproBypass>
													<parameter authoringApp="PremierePro">
														<parameterid>scale</parameterid>
														<name>Scale</name>
														<valuemin>0</valuemin>
														<valuemax>1000</valuemax>
														<value>107</value>
													</parameter>
													<parameter authoringApp="PremierePro">
														<parameterid>rotation</parameterid>
														<name>Rotation</name>
														<valuemin>-8640</valuemin>
														<valuemax>8640</valuemax>
														<value>0</value>
													</parameter>
													<parameter authoringApp="PremierePro">
														<parameterid>center</parameterid>
														<name>Center</name>
														<value>
															<horiz>-5.55112e-17</horiz>
															<vert>-1.11022e-16</vert>
														</value>
													</parameter>
													<parameter authoringApp="PremierePro">
														<parameterid>centerOffset</parameterid>
														<name>Anchor Point</name>
														<value>
															<horiz>0.402314</horiz>
															<vert>0.41875</vert>
														</value>
													</parameter>
													<parameter authoringApp="PremierePro">
														<parameterid>antiflicker</parameterid>
														<name>Anti-flicker Filter</name>
														<valuemin>0.0</valuemin>
														<valuemax>1.0</valuemax>
														<value>0</value>
													</parameter>
												</effect>
											</filter>
											<filter>
												<effect>
													<name>Distort</name>
													<effectid>deformation</effectid>
													<effectcategory>motion</effectcategory>
													<effecttype>motion</effecttype>
													<mediatype>video</mediatype>
													<parameter authoringApp="PremierePro">
														<parameterid>aspect</parameterid>
														<name>Aspect</name>
														<valuemin>-10000</valuemin>
														<valuemax>10000</valuemax>
														<value>-7</value>
													</parameter>
												</effect>
											</filter>
											<logginginfo>
												<description></description>
												<scene></scene>
												<shottake></shottake>
												<lognote></lognote>
												<good></good>
												<originalvideofilename></originalvideofilename>
												<originalaudiofilename></originalaudiofilename>
											</logginginfo>
											<colorinfo>
												<lut></lut>
												<lut1></lut1>
												<asc_sop></asc_sop>
												<asc_sat></asc_sat>
												<lut2></lut2>
											</colorinfo>
											<labels>
												<label2>Violet</label2>
											</labels>
										</clipitem>
										<clipitem id="clipitem-775">
											<masterclipid>masterclip-369</masterclipid>
											<name>Plashka_Right_DV.mov</name>
											<enabled>TRUE</enabled>
											<duration>375</duration>
											<rate>
												<timebase>25</timebase>
												<ntsc>FALSE</ntsc>
											</rate>
											<start>375</start>
											<end>750</end>
											<in>0</in>
											<out>375</out>
											<pproTicksIn>0</pproTicksIn>
											<pproTicksOut>3810240000000</pproTicksOut>
											<alphatype>straight</alphatype>
											<file id="file-316"/>
											<filter>
												<effect>
													<name>Basic Motion</name>
													<effectid>basic</effectid>
													<effectcategory>motion</effectcategory>
													<effecttype>motion</effecttype>
													<mediatype>video</mediatype>
													<pproBypass>false</pproBypass>
													<parameter authoringApp="PremierePro">
														<parameterid>scale</parameterid>
														<name>Scale</name>
														<valuemin>0</valuemin>
														<valuemax>1000</valuemax>
														<value>100</value>
													</parameter>
													<parameter authoringApp="PremierePro">
														<parameterid>rotation</parameterid>
														<name>Rotation</name>
														<valuemin>-8640</valuemin>
														<valuemax>8640</valuemax>
														<value>0</value>
													</parameter>
													<parameter authoringApp="PremierePro">
														<parameterid>center</parameterid>
														<name>Center</name>
														<value>
															<horiz>-5.55112e-17</horiz>
															<vert>-1.11022e-16</vert>
														</value>
													</parameter>
													<parameter authoringApp="PremierePro">
														<parameterid>centerOffset</parameterid>
														<name>Anchor Point</name>
														<value>
															<horiz>0.402314</horiz>
															<vert>0.41875</vert>
														</value>
													</parameter>
													<parameter authoringApp="PremierePro">
														<parameterid>antiflicker</parameterid>
														<name>Anti-flicker Filter</name>
														<valuemin>0.0</valuemin>
														<valuemax>1.0</valuemax>
														<value>0</value>
													</parameter>
												</effect>
											</filter>
											<filter>
												<effect>
													<name>Distort</name>
													<effectid>deformation</effectid>
													<effectcategory>motion</effectcategory>
													<effecttype>motion</effecttype>
													<mediatype>video</mediatype>
													<parameter authoringApp="PremierePro">
														<parameterid>aspect</parameterid>
														<name>Aspect</name>
														<valuemin>-10000</valuemin>
														<valuemax>10000</valuemax>
														<value>11.1111</value>
													</parameter>
												</effect>
											</filter>
											<logginginfo>
												<description></description>
												<scene></scene>
												<shottake></shottake>
												<lognote></lognote>
												<good></good>
												<originalvideofilename></originalvideofilename>
												<originalaudiofilename></originalaudiofilename>
											</logginginfo>
											<colorinfo>
												<lut></lut>
												<lut1></lut1>
												<asc_sop></asc_sop>
												<asc_sat></asc_sat>
												<lut2></lut2>
											</colorinfo>
											<labels>
												<label2>Violet</label2>
											</labels>
										</clipitem>
										<clipitem id="clipitem-776">
											<masterclipid>masterclip-369</masterclipid>
											<name>Plashka_Right_DV.mov</name>
											<enabled>TRUE</enabled>
											<duration>375</duration>
											<rate>
												<timebase>25</timebase>
												<ntsc>FALSE</ntsc>
											</rate>
											<start>750</start>
											<end>1125</end>
											<in>0</in>
											<out>375</out>
											<pproTicksIn>0</pproTicksIn>
											<pproTicksOut>3810240000000</pproTicksOut>
											<alphatype>straight</alphatype>
											<file id="file-316"/>
											<filter>
												<effect>
													<name>Basic Motion</name>
													<effectid>basic</effectid>
													<effectcategory>motion</effectcategory>
													<effecttype>motion</effecttype>
													<mediatype>video</mediatype>
													<pproBypass>false</pproBypass>
													<parameter authoringApp="PremierePro">
														<parameterid>scale</parameterid>
														<name>Scale</name>
														<valuemin>0</valuemin>
														<valuemax>1000</valuemax>
														<value>100</value>
													</parameter>
													<parameter authoringApp="PremierePro">
														<parameterid>rotation</parameterid>
														<name>Rotation</name>
														<valuemin>-8640</valuemin>
														<valuemax>8640</valuemax>
														<value>0</value>
													</parameter>
													<parameter authoringApp="PremierePro">
														<parameterid>center</parameterid>
														<name>Center</name>
														<value>
															<horiz>-5.55112e-17</horiz>
															<vert>-1.11022e-16</vert>
														</value>
													</parameter>
													<parameter authoringApp="PremierePro">
														<parameterid>centerOffset</parameterid>
														<name>Anchor Point</name>
														<value>
															<horiz>0.402314</horiz>
															<vert>0.41875</vert>
														</value>
													</parameter>
													<parameter authoringApp="PremierePro">
														<parameterid>antiflicker</parameterid>
														<name>Anti-flicker Filter</name>
														<valuemin>0.0</valuemin>
														<valuemax>1.0</valuemax>
														<value>0</value>
													</parameter>
												</effect>
											</filter>
											<filter>
												<effect>
													<name>Distort</name>
													<effectid>deformation</effectid>
													<effectcategory>motion</effectcategory>
													<effecttype>motion</effecttype>
													<mediatype>video</mediatype>
													<parameter authoringApp="PremierePro">
														<parameterid>aspect</parameterid>
														<name>Aspect</name>
														<valuemin>-10000</valuemin>
														<valuemax>10000</valuemax>
														<value>5.26316</value>
													</parameter>
												</effect>
											</filter>
											<logginginfo>
												<description></description>
												<scene></scene>
												<shottake></shottake>
												<lognote></lognote>
												<good></good>
												<originalvideofilename></originalvideofilename>
												<originalaudiofilename></originalaudiofilename>
											</logginginfo>
											<colorinfo>
												<lut></lut>
												<lut1></lut1>
												<asc_sop></asc_sop>
												<asc_sat></asc_sat>
												<lut2></lut2>
											</colorinfo>
											<labels>
												<label2>Violet</label2>
											</labels>
										</clipitem>
										<enabled>TRUE</enabled>
										<locked>FALSE</locked>
									</track>
									<track TL.SQTrackShy="0" TL.SQTrackExpandedHeight="25" TL.SQTrackExpanded="0" MZ.TrackTargeted="0">
										<transitionitem>
											<start>6</start>
											<end>35</end>
											<alignment>start-black</alignment>
											<cutPointTicks>0</cutPointTicks>
											<rate>
												<timebase>25</timebase>
												<ntsc>FALSE</ntsc>
											</rate>
											<effect>
												<name>Edge Wipe</name>
												<effectid>Edge Wipe</effectid>
												<effectcategory>Wipe</effectcategory>
												<effecttype>transition</effecttype>
												<mediatype>video</mediatype>
												<wipecode>2</wipecode>
												<wipeaccuracy>100</wipeaccuracy>
												<startratio>0</startratio>
												<endratio>1</endratio>
												<reverse>FALSE</reverse>
												<parameter authoringApp="PremierePro">
													<parameterid>directionofwipe</parameterid>
													<name>Angle</name>
													<valuemin>-360</valuemin>
													<valuemax>360</valuemax>
													<value>270</value>
												</parameter>
											</effect>
										</transitionitem>
										<clipitem id="clipitem-777">
											<masterclipid>masterclip-370</masterclipid>
											<name>9_1.png</name>
											<enabled>TRUE</enabled>
											<duration>1080000</duration>
											<rate>
												<timebase>25</timebase>
												<ntsc>FALSE</ntsc>
											</rate>
											<start>-1</start>
											<end>-1</end>
											<in>90006</in>
											<out>90369</out>
											<pproTicksIn>914518563840000</pproTicksIn>
											<pproTicksOut>918206876160000</pproTicksOut>
											<alphatype>straight</alphatype>
											<pixelaspectratio>square</pixelaspectratio>
											<anamorphic>FALSE</anamorphic>
											<file id="file-317">
												<name>9_1.png</name>
												<pathurl>file://localhost/_MUZ_TV/project_AP/RU/_TITLE/END/PNG/9_1.png</pathurl>
												<rate>
													<timebase>30</timebase>
													<ntsc>TRUE</ntsc>
												</rate>
												<timecode>
													<rate>
														<timebase>30</timebase>
														<ntsc>TRUE</ntsc>
													</rate>
													<string>00;00;00;00</string>
													<frame>0</frame>
													<displayformat>DF</displayformat>
												</timecode>
												<media>
													<video>
														<samplecharacteristics>
															<rate>
																<timebase>30</timebase>
																<ntsc>TRUE</ntsc>
															</rate>
															<width>1920</width>
															<height>1080</height>
															<anamorphic>FALSE</anamorphic>
															<pixelaspectratio>square</pixelaspectratio>
															<fielddominance>none</fielddominance>
														</samplecharacteristics>
													</video>
												</media>
											</file>
											<filter>
												<effect>
													<name>Basic Motion</name>
													<effectid>basic</effectid>
													<effectcategory>motion</effectcategory>
													<effecttype>motion</effecttype>
													<mediatype>video</mediatype>
													<pproBypass>false</pproBypass>
													<parameter authoringApp="PremierePro">
														<parameterid>scale</parameterid>
														<name>Scale</name>
														<valuemin>0</valuemin>
														<valuemax>1000</valuemax>
														<value>53.3333</value>
													</parameter>
													<parameter authoringApp="PremierePro">
														<parameterid>rotation</parameterid>
														<name>Rotation</name>
														<valuemin>-8640</valuemin>
														<valuemax>8640</valuemax>
														<value>0</value>
													</parameter>
													<parameter authoringApp="PremierePro">
														<parameterid>center</parameterid>
														<name>Center</name>
														<value>
															<horiz>0</horiz>
															<vert>0</vert>
														</value>
													</parameter>
													<parameter authoringApp="PremierePro">
														<parameterid>centerOffset</parameterid>
														<name>Anchor Point</name>
														<value>
															<horiz>0</horiz>
															<vert>0</vert>
														</value>
													</parameter>
													<parameter authoringApp="PremierePro">
														<parameterid>antiflicker</parameterid>
														<name>Anti-flicker Filter</name>
														<valuemin>0.0</valuemin>
														<valuemax>1.0</valuemax>
														<value>0</value>
													</parameter>
												</effect>
											</filter>
											<logginginfo>
												<description></description>
												<scene></scene>
												<shottake></shottake>
												<lognote></lognote>
												<good></good>
												<originalvideofilename></originalvideofilename>
												<originalaudiofilename></originalaudiofilename>
											</logginginfo>
											<colorinfo>
												<lut></lut>
												<lut1></lut1>
												<asc_sop></asc_sop>
												<asc_sat></asc_sat>
												<lut2></lut2>
											</colorinfo>
											<labels>
												<label2>Lavender</label2>
											</labels>
										</clipitem>
										<transitionitem>
											<start>344</start>
											<end>369</end>
											<alignment>end-black</alignment>
											<cutPointTicks>254016000000</cutPointTicks>
											<rate>
												<timebase>25</timebase>
												<ntsc>FALSE</ntsc>
											</rate>
											<effect>
												<name>Edge Wipe</name>
												<effectid>Edge Wipe</effectid>
												<effectcategory>Wipe</effectcategory>
												<effecttype>transition</effecttype>
												<mediatype>video</mediatype>
												<wipecode>2</wipecode>
												<wipeaccuracy>100</wipeaccuracy>
												<startratio>0</startratio>
												<endratio>1</endratio>
												<reverse>FALSE</reverse>
												<parameter authoringApp="PremierePro">
													<parameterid>directionofwipe</parameterid>
													<name>Angle</name>
													<valuemin>-360</valuemin>
													<valuemax>360</valuemax>
													<value>90</value>
												</parameter>
											</effect>
										</transitionitem>
										<transitionitem>
											<start>381</start>
											<end>410</end>
											<alignment>start-black</alignment>
											<cutPointTicks>0</cutPointTicks>
											<rate>
												<timebase>25</timebase>
												<ntsc>FALSE</ntsc>
											</rate>
											<effect>
												<name>Edge Wipe</name>
												<effectid>Edge Wipe</effectid>
												<effectcategory>Wipe</effectcategory>
												<effecttype>transition</effecttype>
												<mediatype>video</mediatype>
												<wipecode>2</wipecode>
												<wipeaccuracy>100</wipeaccuracy>
												<startratio>0</startratio>
												<endratio>1</endratio>
												<reverse>FALSE</reverse>
												<parameter authoringApp="PremierePro">
													<parameterid>directionofwipe</parameterid>
													<name>Angle</name>
													<valuemin>-360</valuemin>
													<valuemax>360</valuemax>
													<value>270</value>
												</parameter>
											</effect>
										</transitionitem>
										<clipitem id="clipitem-778">
											<masterclipid>masterclip-371</masterclipid>
											<name>9_2.png</name>
											<enabled>TRUE</enabled>
											<duration>1080000</duration>
											<rate>
												<timebase>25</timebase>
												<ntsc>FALSE</ntsc>
											</rate>
											<start>-1</start>
											<end>-1</end>
											<in>90011</in>
											<out>90374</out>
											<pproTicksIn>914569367040000</pproTicksIn>
											<pproTicksOut>918257679360000</pproTicksOut>
											<alphatype>straight</alphatype>
											<pixelaspectratio>square</pixelaspectratio>
											<anamorphic>FALSE</anamorphic>
											<file id="file-318">
												<name>9_2.png</name>
												<pathurl>file://localhost/_MUZ_TV/project_AP/RU/_TITLE/END/PNG/9_2.png</pathurl>
												<rate>
													<timebase>30</timebase>
													<ntsc>TRUE</ntsc>
												</rate>
												<timecode>
													<rate>
														<timebase>30</timebase>
														<ntsc>TRUE</ntsc>
													</rate>
													<string>00;00;00;00</string>
													<frame>0</frame>
													<displayformat>DF</displayformat>
												</timecode>
												<media>
													<video>
														<samplecharacteristics>
															<rate>
																<timebase>30</timebase>
																<ntsc>TRUE</ntsc>
															</rate>
															<width>1920</width>
															<height>1080</height>
															<anamorphic>FALSE</anamorphic>
															<pixelaspectratio>square</pixelaspectratio>
															<fielddominance>none</fielddominance>
														</samplecharacteristics>
													</video>
												</media>
											</file>
											<filter>
												<effect>
													<name>Basic Motion</name>
													<effectid>basic</effectid>
													<effectcategory>motion</effectcategory>
													<effecttype>motion</effecttype>
													<mediatype>video</mediatype>
													<pproBypass>false</pproBypass>
													<parameter authoringApp="PremierePro">
														<parameterid>scale</parameterid>
														<name>Scale</name>
														<valuemin>0</valuemin>
														<valuemax>1000</valuemax>
														<value>53.3333</value>
													</parameter>
													<parameter authoringApp="PremierePro">
														<parameterid>rotation</parameterid>
														<name>Rotation</name>
														<valuemin>-8640</valuemin>
														<valuemax>8640</valuemax>
														<value>0</value>
													</parameter>
													<parameter authoringApp="PremierePro">
														<parameterid>center</parameterid>
														<name>Center</name>
														<value>
															<horiz>0</horiz>
															<vert>0</vert>
														</value>
													</parameter>
													<parameter authoringApp="PremierePro">
														<parameterid>centerOffset</parameterid>
														<name>Anchor Point</name>
														<value>
															<horiz>0</horiz>
															<vert>0</vert>
														</value>
													</parameter>
													<parameter authoringApp="PremierePro">
														<parameterid>antiflicker</parameterid>
														<name>Anti-flicker Filter</name>
														<valuemin>0.0</valuemin>
														<valuemax>1.0</valuemax>
														<value>0</value>
													</parameter>
												</effect>
											</filter>
											<logginginfo>
												<description></description>
												<scene></scene>
												<shottake></shottake>
												<lognote></lognote>
												<good></good>
												<originalvideofilename></originalvideofilename>
												<originalaudiofilename></originalaudiofilename>
											</logginginfo>
											<colorinfo>
												<lut></lut>
												<lut1></lut1>
												<asc_sop></asc_sop>
												<asc_sat></asc_sat>
												<lut2></lut2>
											</colorinfo>
											<labels>
												<label2>Lavender</label2>
											</labels>
										</clipitem>
										<transitionitem>
											<start>719</start>
											<end>744</end>
											<alignment>end-black</alignment>
											<cutPointTicks>254016000000</cutPointTicks>
											<rate>
												<timebase>25</timebase>
												<ntsc>FALSE</ntsc>
											</rate>
											<effect>
												<name>Edge Wipe</name>
												<effectid>Edge Wipe</effectid>
												<effectcategory>Wipe</effectcategory>
												<effecttype>transition</effecttype>
												<mediatype>video</mediatype>
												<wipecode>2</wipecode>
												<wipeaccuracy>100</wipeaccuracy>
												<startratio>0</startratio>
												<endratio>1</endratio>
												<reverse>FALSE</reverse>
												<parameter authoringApp="PremierePro">
													<parameterid>directionofwipe</parameterid>
													<name>Angle</name>
													<valuemin>-360</valuemin>
													<valuemax>360</valuemax>
													<value>90</value>
												</parameter>
											</effect>
										</transitionitem>
										<transitionitem>
											<start>756</start>
											<end>785</end>
											<alignment>start-black</alignment>
											<cutPointTicks>0</cutPointTicks>
											<rate>
												<timebase>25</timebase>
												<ntsc>FALSE</ntsc>
											</rate>
											<effect>
												<name>Edge Wipe</name>
												<effectid>Edge Wipe</effectid>
												<effectcategory>Wipe</effectcategory>
												<effecttype>transition</effecttype>
												<mediatype>video</mediatype>
												<wipecode>2</wipecode>
												<wipeaccuracy>100</wipeaccuracy>
												<startratio>0</startratio>
												<endratio>1</endratio>
												<reverse>FALSE</reverse>
												<parameter authoringApp="PremierePro">
													<parameterid>directionofwipe</parameterid>
													<name>Angle</name>
													<valuemin>-360</valuemin>
													<valuemax>360</valuemax>
													<value>270</value>
												</parameter>
											</effect>
										</transitionitem>
										<clipitem id="clipitem-779">
											<masterclipid>masterclip-372</masterclipid>
											<name>9_3.png</name>
											<enabled>TRUE</enabled>
											<duration>1080000</duration>
											<rate>
												<timebase>25</timebase>
												<ntsc>FALSE</ntsc>
											</rate>
											<start>-1</start>
											<end>-1</end>
											<in>90011</in>
											<out>90375</out>
											<pproTicksIn>914569367040000</pproTicksIn>
											<pproTicksOut>918267840000000</pproTicksOut>
											<alphatype>straight</alphatype>
											<pixelaspectratio>square</pixelaspectratio>
											<anamorphic>FALSE</anamorphic>
											<file id="file-319">
												<name>9_3.png</name>
												<pathurl>file://localhost/_MUZ_TV/project_AP/RU/_TITLE/END/PNG/9_3.png</pathurl>
												<rate>
													<timebase>30</timebase>
													<ntsc>TRUE</ntsc>
												</rate>
												<timecode>
													<rate>
														<timebase>30</timebase>
														<ntsc>TRUE</ntsc>
													</rate>
													<string>00;00;00;00</string>
													<frame>0</frame>
													<displayformat>DF</displayformat>
												</timecode>
												<media>
													<video>
														<samplecharacteristics>
															<rate>
																<timebase>30</timebase>
																<ntsc>TRUE</ntsc>
															</rate>
															<width>1920</width>
															<height>1080</height>
															<anamorphic>FALSE</anamorphic>
															<pixelaspectratio>square</pixelaspectratio>
															<fielddominance>none</fielddominance>
														</samplecharacteristics>
													</video>
												</media>
											</file>
											<filter>
												<effect>
													<name>Basic Motion</name>
													<effectid>basic</effectid>
													<effectcategory>motion</effectcategory>
													<effecttype>motion</effecttype>
													<mediatype>video</mediatype>
													<pproBypass>false</pproBypass>
													<parameter authoringApp="PremierePro">
														<parameterid>scale</parameterid>
														<name>Scale</name>
														<valuemin>0</valuemin>
														<valuemax>1000</valuemax>
														<value>53.3333</value>
													</parameter>
													<parameter authoringApp="PremierePro">
														<parameterid>rotation</parameterid>
														<name>Rotation</name>
														<valuemin>-8640</valuemin>
														<valuemax>8640</valuemax>
														<value>0</value>
													</parameter>
													<parameter authoringApp="PremierePro">
														<parameterid>center</parameterid>
														<name>Center</name>
														<value>
															<horiz>0</horiz>
															<vert>0</vert>
														</value>
													</parameter>
													<parameter authoringApp="PremierePro">
														<parameterid>centerOffset</parameterid>
														<name>Anchor Point</name>
														<value>
															<horiz>0</horiz>
															<vert>0</vert>
														</value>
													</parameter>
													<parameter authoringApp="PremierePro">
														<parameterid>antiflicker</parameterid>
														<name>Anti-flicker Filter</name>
														<valuemin>0.0</valuemin>
														<valuemax>1.0</valuemax>
														<value>0</value>
													</parameter>
												</effect>
											</filter>
											<logginginfo>
												<description></description>
												<scene></scene>
												<shottake></shottake>
												<lognote></lognote>
												<good></good>
												<originalvideofilename></originalvideofilename>
												<originalaudiofilename></originalaudiofilename>
											</logginginfo>
											<colorinfo>
												<lut></lut>
												<lut1></lut1>
												<asc_sop></asc_sop>
												<asc_sat></asc_sat>
												<lut2></lut2>
											</colorinfo>
											<labels>
												<label2>Lavender</label2>
											</labels>
										</clipitem>
										<transitionitem>
											<start>1095</start>
											<end>1120</end>
											<alignment>end-black</alignment>
											<cutPointTicks>254016000000</cutPointTicks>
											<rate>
												<timebase>25</timebase>
												<ntsc>FALSE</ntsc>
											</rate>
											<effect>
												<name>Edge Wipe</name>
												<effectid>Edge Wipe</effectid>
												<effectcategory>Wipe</effectcategory>
												<effecttype>transition</effecttype>
												<mediatype>video</mediatype>
												<wipecode>2</wipecode>
												<wipeaccuracy>100</wipeaccuracy>
												<startratio>0</startratio>
												<endratio>1</endratio>
												<reverse>FALSE</reverse>
												<parameter authoringApp="PremierePro">
													<parameterid>directionofwipe</parameterid>
													<name>Angle</name>
													<valuemin>-360</valuemin>
													<valuemax>360</valuemax>
													<value>90</value>
												</parameter>
											</effect>
										</transitionitem>
										<enabled>TRUE</enabled>
										<locked>FALSE</locked>
									</track>
									<track TL.SQTrackShy="0" TL.SQTrackExpandedHeight="25" TL.SQTrackExpanded="0" MZ.TrackTargeted="0">
										<transitionitem>
											<start>755</start>
											<end>780</end>
											<alignment>start-black</alignment>
											<cutPointTicks>0</cutPointTicks>
											<rate>
												<timebase>25</timebase>
												<ntsc>FALSE</ntsc>
											</rate>
											<effect>
												<name>Edge Wipe</name>
												<effectid>Edge Wipe</effectid>
												<effectcategory>Wipe</effectcategory>
												<effecttype>transition</effecttype>
												<mediatype>video</mediatype>
												<wipecode>2</wipecode>
												<wipeaccuracy>100</wipeaccuracy>
												<startratio>0</startratio>
												<endratio>1</endratio>
												<reverse>FALSE</reverse>
												<parameter authoringApp="PremierePro">
													<parameterid>directionofwipe</parameterid>
													<name>Angle</name>
													<valuemin>-360</valuemin>
													<valuemax>360</valuemax>
													<value>270</value>
												</parameter>
											</effect>
										</transitionitem>
										<clipitem id="clipitem-780">
											<masterclipid>masterclip-373</masterclipid>
											<name>Graphic</name>
											<enabled>FALSE</enabled>
											<duration>1080000</duration>
											<rate>
												<timebase>25</timebase>
												<ntsc>FALSE</ntsc>
											</rate>
											<start>-1</start>
											<end>-1</end>
											<in>89905</in>
											<out>90272</out>
											<pproTicksIn>913492339200000</pproTicksIn>
											<pproTicksOut>917221294080000</pproTicksOut>
											<alphatype>straight</alphatype>
											<pixelaspectratio>PAL-601</pixelaspectratio>
											<anamorphic>TRUE</anamorphic>
											<file id="file-320">
												<name>Graphic</name>
												<mediaSource>GraphicAndType</mediaSource>
												<rate>
													<timebase>30</timebase>
													<ntsc>TRUE</ntsc>
												</rate>
												<timecode>
													<rate>
														<timebase>30</timebase>
														<ntsc>TRUE</ntsc>
													</rate>
													<string>00;00;00;00</string>
													<frame>0</frame>
													<displayformat>DF</displayformat>
												</timecode>
												<media>
													<video>
														<samplecharacteristics>
															<rate>
																<timebase>30</timebase>
																<ntsc>TRUE</ntsc>
															</rate>
															<width>720</width>
															<height>576</height>
															<anamorphic>TRUE</anamorphic>
															<pixelaspectratio>PAL-601</pixelaspectratio>
															<fielddominance>none</fielddominance>
														</samplecharacteristics>
													</video>
												</media>
											</file>
											<filter>
												<effect>
													<name>Vector Motion</name>
													<effectid>GraphicGroup</effectid>
													<effectcategory>graphic</effectcategory>
													<effecttype>filter</effecttype>
													<mediatype>video</mediatype>
													<pproBypass>false</pproBypass>
													<parameter authoringApp="PremierePro">
														<parameterid>1</parameterid>
														<name>Position</name>
														<IsTimeVarying>false</IsTimeVarying>
														<value>-91445760000000000,0.81693898908787344:0.49085601568222115,0,0,0,0,0,0,5,4,0,0,0,0</value>
													</parameter>
													<parameter authoringApp="PremierePro">
														<parameterid>2</parameterid>
														<name>Scale</name>
														<IsTimeVarying>false</IsTimeVarying>
														<ParameterControlType>2</ParameterControlType>
														<LowerBound>0</LowerBound>
														<UpperBound>10000</UpperBound>
														<UpperUIBound>200</UpperUIBound>
														<value>-91445760000000000,100.,0,0,0,0,0,0</value>
													</parameter>
													<parameter authoringApp="PremierePro">
														<parameterid>3</parameterid>
														<name>Scale Width</name>
														<IsTimeVarying>false</IsTimeVarying>
														<ParameterControlType>2</ParameterControlType>
														<LowerBound>0</LowerBound>
														<UpperBound>10000</UpperBound>
														<UpperUIBound>200</UpperUIBound>
														<value>-91445760000000000,100.,0,0,0,0,0,0</value>
													</parameter>
													<parameter authoringApp="PremierePro">
														<parameterid>4</parameterid>
														<name> </name>
														<IsTimeVarying>false</IsTimeVarying>
														<ParameterControlType>4</ParameterControlType>
														<LowerBound>false</LowerBound>
														<UpperBound>true</UpperBound>
														<value>-91445760000000000,true,0,0,0,0,0,0</value>
													</parameter>
													<parameter authoringApp="PremierePro">
														<parameterid>5</parameterid>
														<name>Rotation</name>
														<IsTimeVarying>false</IsTimeVarying>
														<ParameterControlType>3</ParameterControlType>
														<LowerBound>-32768</LowerBound>
														<UpperBound>32767</UpperBound>
														<value>-91445760000000000,0.,0,0,0,0,0,0</value>
													</parameter>
													<parameter authoringApp="PremierePro">
														<parameterid>6</parameterid>
														<name>Anchor Point</name>
														<IsTimeVarying>false</IsTimeVarying>
														<value>-91445760000000000,0.5:0.5,0,0,0,0,0,0,5,4,0,0,0,0</value>
													</parameter>
												</effect>
											</filter>
											<filter>
												<effect>
													<name>Данил Прытков признаётся, &#13;что сильные провалы &#13;мотивируют его на творчество &#13;не меньше, чем победы. </name>
													<effectid>GraphicAndType</effectid>
													<effectcategory>graphic</effectcategory>
													<effecttype>filter</effecttype>
													<mediatype>video</mediatype>
													<pproBypass>false</pproBypass>
													<pproExpanded>true</pproExpanded>
													<parameter authoringApp="PremierePro">
														<parameterid>1</parameterid>
														<name>Source Text</name>
														<hash>698123b5-7d57-7b79-efb1-b0df00000a31</hash>
													</parameter>
													<parameter authoringApp="PremierePro">
														<parameterid>2</parameterid>
														<name>Transform</name>
														<IsTimeVarying>false</IsTimeVarying>
														<ParameterControlType>11</ParameterControlType>
														<LowerBound>false</LowerBound>
														<UpperBound>false</UpperBound>
														<value>-91445760000000000,false,0,0,0,0,0,0</value>
													</parameter>
													<parameter authoringApp="PremierePro">
														<parameterid>3</parameterid>
														<name>Position</name>
														<IsTimeVarying>false</IsTimeVarying>
														<value>-91445760000000000,0.270416259765625:0.640594482421875,0,0,0,0,0,0,5,4,0,0,0,0</value>
													</parameter>
													<parameter authoringApp="PremierePro">
														<parameterid>4</parameterid>
														<name>Scale</name>
														<IsTimeVarying>false</IsTimeVarying>
														<ParameterControlType>2</ParameterControlType>
														<LowerBound>0</LowerBound>
														<UpperBound>4000</UpperBound>
														<value>-91445760000000000,100.,0,0,0,0,0,0</value>
													</parameter>
													<parameter authoringApp="PremierePro">
														<parameterid>5</parameterid>
														<name>Horizontal Scale</name>
														<IsTimeVarying>false</IsTimeVarying>
														<ParameterControlType>2</ParameterControlType>
														<LowerBound>0</LowerBound>
														<UpperBound>4000</UpperBound>
														<value>-91445760000000000,100.,0,0,0,0,0,0</value>
													</parameter>
													<parameter authoringApp="PremierePro">
														<parameterid>6</parameterid>
														<name> </name>
														<IsTimeVarying>false</IsTimeVarying>
														<ParameterControlType>4</ParameterControlType>
														<LowerBound>false</LowerBound>
														<UpperBound>true</UpperBound>
														<value>-91445760000000000,true,0,0,0,0,0,0</value>
													</parameter>
													<parameter authoringApp="PremierePro">
														<parameterid>7</parameterid>
														<name>Rotation</name>
														<IsTimeVarying>false</IsTimeVarying>
														<ParameterControlType>3</ParameterControlType>
														<LowerBound>-32768</LowerBound>
														<UpperBound>32767</UpperBound>
														<value>-91445760000000000,0.,0,0,0,0,0,0</value>
													</parameter>
													<parameter authoringApp="PremierePro">
														<parameterid>8</parameterid>
														<name>Opacity</name>
														<IsTimeVarying>false</IsTimeVarying>
														<ParameterControlType>2</ParameterControlType>
														<LowerBound>0</LowerBound>
														<UpperBound>100</UpperBound>
														<value>-91445760000000000,100.,0,0,0,0,0,0</value>
													</parameter>
													<parameter authoringApp="PremierePro">
														<parameterid>9</parameterid>
														<name>Anchor Point</name>
														<IsTimeVarying>false</IsTimeVarying>
														<value>-91445760000000000,0:0,0,0,0,0,0,0,5,4,0,0,0,0</value>
													</parameter>
													<parameter authoringApp="PremierePro">
														<parameterid>10</parameterid>
														<name></name>
														<IsTimeVarying>false</IsTimeVarying>
														<ParameterControlType>12</ParameterControlType>
														<LowerBound>false</LowerBound>
														<UpperBound>false</UpperBound>
														<value>-91445760000000000,false,0,0,0,0,0,0</value>
													</parameter>
													<parameter authoringApp="PremierePro">
														<parameterid>11</parameterid>
														<name> </name>
														<IsTimeVarying>false</IsTimeVarying>
														<ParameterControlType>8</ParameterControlType>
														<LowerBound>0</LowerBound>
														<UpperBound>32768</UpperBound>
														<value>-91445760000000000,0.,0,0,0,0,0,0</value>
													</parameter>
													<parameter authoringApp="PremierePro">
														<parameterid>12</parameterid>
														<name> </name>
														<IsTimeVarying>false</IsTimeVarying>
														<ParameterControlType>8</ParameterControlType>
														<LowerBound>0</LowerBound>
														<UpperBound>32768</UpperBound>
														<value>-91445760000000000,0.,0,0,0,0,0,0</value>
													</parameter>
													<parameter authoringApp="PremierePro">
														<parameterid>13</parameterid>
														<name>start</name>
														<IsTimeVarying>false</IsTimeVarying>
														<ParameterControlType>8</ParameterControlType>
														<LowerBound>-100</LowerBound>
														<UpperBound>1000000000</UpperBound>
														<value>-91445760000000000,0.,0,0,0,0,0,0</value>
													</parameter>
													<parameter authoringApp="PremierePro">
														<parameterid>14</parameterid>
														<name>end</name>
														<IsTimeVarying>false</IsTimeVarying>
														<ParameterControlType>8</ParameterControlType>
														<LowerBound>-100</LowerBound>
														<UpperBound>1000000000</UpperBound>
														<value>-91445760000000000,101.,0,0,0,0,0,0</value>
													</parameter>
													<parameter authoringApp="PremierePro">
														<parameterid>15</parameterid>
														<name> </name>
														<IsTimeVarying>false</IsTimeVarying>
														<ParameterControlType>4</ParameterControlType>
														<LowerBound>false</LowerBound>
														<UpperBound>true</UpperBound>
														<value>-91445760000000000,false,0,0,0,0,0,0</value>
													</parameter>
													<parameter authoringApp="PremierePro">
														<parameterid>16</parameterid>
														<name> </name>
														<IsTimeVarying>false</IsTimeVarying>
														<ParameterControlType>4</ParameterControlType>
														<LowerBound>false</LowerBound>
														<UpperBound>true</UpperBound>
														<value>-91445760000000000,false,0,0,0,0,0,0</value>
													</parameter>
													<parameter authoringApp="PremierePro">
														<parameterid>17</parameterid>
														<name> </name>
														<IsTimeVarying>false</IsTimeVarying>
														<ParameterControlType>4</ParameterControlType>
														<LowerBound>false</LowerBound>
														<UpperBound>true</UpperBound>
														<value>-91445760000000000,false,0,0,0,0,0,0</value>
													</parameter>
													<parameter authoringApp="PremierePro">
														<parameterid>18</parameterid>
														<name> </name>
														<IsTimeVarying>false</IsTimeVarying>
														<ParameterControlType>4</ParameterControlType>
														<LowerBound>false</LowerBound>
														<UpperBound>true</UpperBound>
														<value>-91445760000000000,false,0,0,0,0,0,0</value>
													</parameter>
													<parameter authoringApp="PremierePro">
														<parameterid>19</parameterid>
														<name>Parent Width</name>
														<IsTimeVarying>false</IsTimeVarying>
														<ParameterControlType>2</ParameterControlType>
														<LowerBound>0</LowerBound>
														<UpperBound>20000</UpperBound>
														<value>-91445760000000000,0.,0,0,0,0,0,0</value>
													</parameter>
													<parameter authoringApp="PremierePro">
														<parameterid>20</parameterid>
														<name>Parent Height</name>
														<IsTimeVarying>false</IsTimeVarying>
														<ParameterControlType>2</ParameterControlType>
														<LowerBound>0</LowerBound>
														<UpperBound>20000</UpperBound>
														<value>-91445760000000000,0.,0,0,0,0,0,0</value>
													</parameter>
													<parameter authoringApp="PremierePro">
														<parameterid>21</parameterid>
														<name>Parent Rotation</name>
														<IsTimeVarying>false</IsTimeVarying>
														<ParameterControlType>3</ParameterControlType>
														<LowerBound>-32768</LowerBound>
														<UpperBound>32767</UpperBound>
														<value>-91445760000000000,0.,0,0,0,0,0,0</value>
													</parameter>
												</effect>
											</filter>
											<logginginfo>
												<description></description>
												<scene></scene>
												<shottake></shottake>
												<lognote></lognote>
												<good></good>
												<originalvideofilename></originalvideofilename>
												<originalaudiofilename></originalaudiofilename>
											</logginginfo>
											<colorinfo>
												<lut></lut>
												<lut1></lut1>
												<asc_sop></asc_sop>
												<asc_sat></asc_sat>
												<lut2></lut2>
											</colorinfo>
										</clipitem>
										<transitionitem>
											<start>1097</start>
											<end>1122</end>
											<alignment>end-black</alignment>
											<cutPointTicks>254016000000</cutPointTicks>
											<rate>
												<timebase>25</timebase>
												<ntsc>FALSE</ntsc>
											</rate>
											<effect>
												<name>Edge Wipe</name>
												<effectid>Edge Wipe</effectid>
												<effectcategory>Wipe</effectcategory>
												<effecttype>transition</effecttype>
												<mediatype>video</mediatype>
												<wipecode>2</wipecode>
												<wipeaccuracy>100</wipeaccuracy>
												<startratio>0</startratio>
												<endratio>1</endratio>
												<reverse>FALSE</reverse>
												<parameter authoringApp="PremierePro">
													<parameterid>directionofwipe</parameterid>
													<name>Angle</name>
													<valuemin>-360</valuemin>
													<valuemax>360</valuemax>
													<value>90</value>
												</parameter>
											</effect>
										</transitionitem>
										<enabled>TRUE</enabled>
										<locked>FALSE</locked>
									</track>
								</video>
								<audio>
									<numOutputChannels>2</numOutputChannels>
									<format>
										<samplecharacteristics>
											<depth>16</depth>
											<samplerate>48000</samplerate>
										</samplecharacteristics>
									</format>
									<outputs>
										<group>
											<index>1</index>
											<numchannels>1</numchannels>
											<downmix>0</downmix>
											<channel>
												<index>1</index>
											</channel>
										</group>
										<group>
											<index>2</index>
											<numchannels>1</numchannels>
											<downmix>0</downmix>
											<channel>
												<index>2</index>
											</channel>
										</group>
									</outputs>
									<track TL.SQTrackAudioKeyframeStyle="0" TL.SQTrackShy="0" TL.SQTrackExpandedHeight="25" TL.SQTrackExpanded="0" MZ.TrackTargeted="1" PannerCurrentValue="0.5" PannerStartKeyframe="-91445760000000000,0.5,0,0,0,0,0,0" PannerName="Balance" currentExplodedTrackIndex="0" totalExplodedTrackCount="2" premiereTrackType="Stereo">
										<enabled>TRUE</enabled>
										<locked>FALSE</locked>
										<outputchannelindex>1</outputchannelindex>
									</track>
									<track TL.SQTrackAudioKeyframeStyle="0" TL.SQTrackShy="0" TL.SQTrackExpandedHeight="25" TL.SQTrackExpanded="0" MZ.TrackTargeted="1" PannerCurrentValue="0.5" PannerStartKeyframe="-91445760000000000,0.5,0,0,0,0,0,0" PannerName="Balance" currentExplodedTrackIndex="1" totalExplodedTrackCount="2" premiereTrackType="Stereo">
										<enabled>TRUE</enabled>
										<locked>FALSE</locked>
										<outputchannelindex>2</outputchannelindex>
									</track>
								</audio>
							</media>
							<timecode>
								<rate>
									<timebase>25</timebase>
									<ntsc>FALSE</ntsc>
								</rate>
								<string>00:00:00:00</string>
								<frame>0</frame>
								<displayformat>NDF</displayformat>
							</timecode>
								<marker>
									<comment></comment>
									<name></name>
									<in>800</in>
									<out>-1</out>
									<pproColor>4292277273</pproColor>
								</marker>
								<marker>
									<comment></comment>
									<name></name>
									<in>50</in>
									<out>-1</out>
									<pproColor>4292277273</pproColor>
								</marker>
								<marker>
									<comment></comment>
									<name></name>
									<in>425</in>
									<out>-1</out>
									<pproColor>4292277273</pproColor>
								</marker>
							<logginginfo>
								<description></description>
								<scene></scene>
								<shottake></shottake>
								<lognote></lognote>
								<good></good>
								<originalvideofilename></originalvideofilename>
								<originalaudiofilename></originalaudiofilename>
							</logginginfo>
						</sequence>
							<marker>
								<comment></comment>
								<name></name>
								<in>800</in>
								<out>-1</out>
								<pproColor>4292277273</pproColor>
							</marker>
							<marker>
								<comment></comment>
								<name></name>
								<in>50</in>
								<out>-1</out>
								<pproColor>4292277273</pproColor>
							</marker>
							<marker>
								<comment></comment>
								<name></name>
								<in>425</in>
								<out>-1</out>
								<pproColor>4292277273</pproColor>
							</marker>
						<labels>
							<label2>Forest</label2>
						</labels>
					</clipitem>
					<clipitem id="clipitem-781">
						<masterclipid>masterclip-368</masterclipid>
						<name>9</name>
						<enabled>TRUE</enabled>
						<duration>1125</duration>
						<rate>
							<timebase>25</timebase>
							<ntsc>FALSE</ntsc>
						</rate>
						<start>25233</start>
						<end>25608</end>
						<in>375</in>
						<out>750</out>
						<pproTicksIn>3810240000000</pproTicksIn>
						<pproTicksOut>7620480000000</pproTicksOut>
						<sequence id="sequence-57"/>
							<marker>
								<comment></comment>
								<name></name>
								<in>800</in>
								<out>-1</out>
								<pproColor>4292277273</pproColor>
							</marker>
							<marker>
								<comment></comment>
								<name></name>
								<in>50</in>
								<out>-1</out>
								<pproColor>4292277273</pproColor>
							</marker>
							<marker>
								<comment></comment>
								<name></name>
								<in>425</in>
								<out>-1</out>
								<pproColor>4292277273</pproColor>
							</marker>
						<labels>
							<label2>Forest</label2>
						</labels>
					</clipitem>
					<clipitem id="clipitem-782">
						<masterclipid>masterclip-368</masterclipid>
						<name>9</name>
						<enabled>TRUE</enabled>
						<duration>1125</duration>
						<rate>
							<timebase>25</timebase>
							<ntsc>FALSE</ntsc>
						</rate>
						<start>25870</start>
						<end>26245</end>
						<in>750</in>
						<out>1125</out>
						<pproTicksIn>7620480000000</pproTicksIn>
						<pproTicksOut>11430720000000</pproTicksOut>
						<sequence id="sequence-57"/>
							<marker>
								<comment></comment>
								<name></name>
								<in>800</in>
								<out>-1</out>
								<pproColor>4292277273</pproColor>
							</marker>
							<marker>
								<comment></comment>
								<name></name>
								<in>50</in>
								<out>-1</out>
								<pproColor>4292277273</pproColor>
							</marker>
							<marker>
								<comment></comment>
								<name></name>
								<in>425</in>
								<out>-1</out>
								<pproColor>4292277273</pproColor>
							</marker>
						<labels>
							<label2>Forest</label2>
						</labels>
					</clipitem>
					<clipitem id="clipitem-783">
						<masterclipid>masterclip-374</masterclipid>
						<name>6</name>
						<enabled>TRUE</enabled>
						<duration>1125</duration>
						<rate>
							<timebase>25</timebase>
							<ntsc>FALSE</ntsc>
						</rate>
						<start>28962</start>
						<end>29337</end>
						<in>0</in>
						<out>375</out>
						<pproTicksIn>0</pproTicksIn>
						<pproTicksOut>3810240000000</pproTicksOut>
						<sequence id="sequence-58" TL.SQAudioVisibleBase="0" TL.SQVideoVisibleBase="0" TL.SQVisibleBaseTime="0" TL.SQAVDividerPosition="0.5" TL.SQHideShyTracks="0" TL.SQHeaderWidth="236" Monitor.ProgramZoomOut="11430720000000" Monitor.ProgramZoomIn="0" TL.SQTimePerPixel="0.19620667102680808" AM.TrackVScrollPosition="0" AM.TrackScrollPosition="0" MZ.EditLine="3038031360000" MZ.Sequence.PreviewFrameSizeHeight="576" MZ.Sequence.PreviewFrameSizeWidth="720" MZ.Sequence.AudioTimeDisplayFormat="200" MZ.Sequence.PreviewRenderingClassID="1061109567" MZ.Sequence.PreviewRenderingPresetCodec="1685480304" MZ.Sequence.PreviewRenderingPresetPath="EncoderPresets/SequencePreview/04be6e19-a018-4e0c-a9d6-0ab44c64752b/QuickTime DV PAL.epr" MZ.Sequence.PreviewUseMaxRenderQuality="false" MZ.Sequence.PreviewUseMaxBitDepth="false" MZ.Sequence.EditingModeGUID="04be6e19-a018-4e0c-a9d6-0ab44c64752b" MZ.Sequence.VideoTimeDisplayFormat="101" MZ.WorkOutPoint="11430720000000" MZ.WorkInPoint="0" MZ.ZeroPoint="0">
							<duration>1125</duration>
							<rate>
								<timebase>25</timebase>
								<ntsc>FALSE</ntsc>
							</rate>
							<name>RU_Nested</name>
							<media>
								<video>
									<format>
										<samplecharacteristics>
											<rate>
												<timebase>25</timebase>
												<ntsc>FALSE</ntsc>
											</rate>
											<codec>
												<name>Apple ProRes 422</name>
												<appspecificdata>
													<appname>Final Cut Pro</appname>
													<appmanufacturer>Apple Inc.</appmanufacturer>
													<appversion>7.0</appversion>
													<data>
														<qtcodec>
															<codecname>Apple ProRes 422</codecname>
															<codectypename>Apple ProRes 422</codectypename>
															<codectypecode>apcn</codectypecode>
															<codecvendorcode>appl</codecvendorcode>
															<spatialquality>1024</spatialquality>
															<temporalquality>0</temporalquality>
															<keyframerate>0</keyframerate>
															<datarate>0</datarate>
														</qtcodec>
													</data>
												</appspecificdata>
											</codec>
											<width>720</width>
											<height>576</height>
											<anamorphic>TRUE</anamorphic>
											<pixelaspectratio>PAL-601</pixelaspectratio>
											<fielddominance>lower</fielddominance>
											<colordepth>24</colordepth>
										</samplecharacteristics>
									</format>
									<track TL.SQTrackShy="0" TL.SQTrackExpandedHeight="25" TL.SQTrackExpanded="0" MZ.TrackTargeted="1">
										<clipitem id="clipitem-784">
											<masterclipid>masterclip-375</masterclipid>
											<name>Plashka_Right_DV.mov</name>
											<enabled>TRUE</enabled>
											<duration>375</duration>
											<rate>
												<timebase>25</timebase>
												<ntsc>FALSE</ntsc>
											</rate>
											<start>0</start>
											<end>375</end>
											<in>0</in>
											<out>375</out>
											<pproTicksIn>0</pproTicksIn>
											<pproTicksOut>3810240000000</pproTicksOut>
											<alphatype>straight</alphatype>
											<pixelaspectratio>PAL-601</pixelaspectratio>
											<anamorphic>TRUE</anamorphic>
											<file id="file-321">
												<name>Plashka_Right_DV.mov</name>
												<pathurl>file://localhost/Volumes/1Tb/_MUZ_TV/graphika/RU-21/MOD/Plashka_Right_DV.mov</pathurl>
												<rate>
													<timebase>25</timebase>
													<ntsc>FALSE</ntsc>
												</rate>
												<duration>375</duration>
												<timecode>
													<rate>
														<timebase>25</timebase>
														<ntsc>FALSE</ntsc>
													</rate>
													<string>00:00:15:10</string>
													<frame>385</frame>
													<displayformat>NDF</displayformat>
												</timecode>
												<media>
													<video>
														<samplecharacteristics>
															<rate>
																<timebase>25</timebase>
																<ntsc>FALSE</ntsc>
															</rate>
															<width>720</width>
															<height>576</height>
															<anamorphic>TRUE</anamorphic>
															<pixelaspectratio>PAL-601</pixelaspectratio>
															<fielddominance>lower</fielddominance>
														</samplecharacteristics>
													</video>
												</media>
											</file>
											<filter>
												<effect>
													<name>Basic Motion</name>
													<effectid>basic</effectid>
													<effectcategory>motion</effectcategory>
													<effecttype>motion</effecttype>
													<mediatype>video</mediatype>
													<pproBypass>false</pproBypass>
													<parameter authoringApp="PremierePro">
														<parameterid>scale</parameterid>
														<name>Scale</name>
														<valuemin>0</valuemin>
														<valuemax>1000</valuemax>
														<value>106</value>
													</parameter>
													<parameter authoringApp="PremierePro">
														<parameterid>rotation</parameterid>
														<name>Rotation</name>
														<valuemin>-8640</valuemin>
														<valuemax>8640</valuemax>
														<value>0</value>
													</parameter>
													<parameter authoringApp="PremierePro">
														<parameterid>center</parameterid>
														<name>Center</name>
														<value>
															<horiz>-5.55112e-17</horiz>
															<vert>-1.11022e-16</vert>
														</value>
													</parameter>
													<parameter authoringApp="PremierePro">
														<parameterid>centerOffset</parameterid>
														<name>Anchor Point</name>
														<value>
															<horiz>0.402314</horiz>
															<vert>0.41875</vert>
														</value>
													</parameter>
													<parameter authoringApp="PremierePro">
														<parameterid>antiflicker</parameterid>
														<name>Anti-flicker Filter</name>
														<valuemin>0.0</valuemin>
														<valuemax>1.0</valuemax>
														<value>0</value>
													</parameter>
												</effect>
											</filter>
											<filter>
												<effect>
													<name>Distort</name>
													<effectid>deformation</effectid>
													<effectcategory>motion</effectcategory>
													<effecttype>motion</effecttype>
													<mediatype>video</mediatype>
													<parameter authoringApp="PremierePro">
														<parameterid>aspect</parameterid>
														<name>Aspect</name>
														<valuemin>-10000</valuemin>
														<valuemax>10000</valuemax>
														<value>-6</value>
													</parameter>
												</effect>
											</filter>
											<logginginfo>
												<description></description>
												<scene></scene>
												<shottake></shottake>
												<lognote></lognote>
												<good></good>
												<originalvideofilename></originalvideofilename>
												<originalaudiofilename></originalaudiofilename>
											</logginginfo>
											<colorinfo>
												<lut></lut>
												<lut1></lut1>
												<asc_sop></asc_sop>
												<asc_sat></asc_sat>
												<lut2></lut2>
											</colorinfo>
											<labels>
												<label2>Violet</label2>
											</labels>
										</clipitem>
										<clipitem id="clipitem-785">
											<masterclipid>masterclip-375</masterclipid>
											<name>Plashka_Right_DV.mov</name>
											<enabled>TRUE</enabled>
											<duration>375</duration>
											<rate>
												<timebase>25</timebase>
												<ntsc>FALSE</ntsc>
											</rate>
											<start>375</start>
											<end>750</end>
											<in>0</in>
											<out>375</out>
											<pproTicksIn>0</pproTicksIn>
											<pproTicksOut>3810240000000</pproTicksOut>
											<alphatype>straight</alphatype>
											<file id="file-321"/>
											<filter>
												<effect>
													<name>Basic Motion</name>
													<effectid>basic</effectid>
													<effectcategory>motion</effectcategory>
													<effecttype>motion</effecttype>
													<mediatype>video</mediatype>
													<pproBypass>false</pproBypass>
													<parameter authoringApp="PremierePro">
														<parameterid>scale</parameterid>
														<name>Scale</name>
														<valuemin>0</valuemin>
														<valuemax>1000</valuemax>
														<value>100</value>
													</parameter>
													<parameter authoringApp="PremierePro">
														<parameterid>rotation</parameterid>
														<name>Rotation</name>
														<valuemin>-8640</valuemin>
														<valuemax>8640</valuemax>
														<value>0</value>
													</parameter>
													<parameter authoringApp="PremierePro">
														<parameterid>center</parameterid>
														<name>Center</name>
														<value>
															<horiz>-5.55112e-17</horiz>
															<vert>-1.11022e-16</vert>
														</value>
													</parameter>
													<parameter authoringApp="PremierePro">
														<parameterid>centerOffset</parameterid>
														<name>Anchor Point</name>
														<value>
															<horiz>0.402314</horiz>
															<vert>0.41875</vert>
														</value>
													</parameter>
													<parameter authoringApp="PremierePro">
														<parameterid>antiflicker</parameterid>
														<name>Anti-flicker Filter</name>
														<valuemin>0.0</valuemin>
														<valuemax>1.0</valuemax>
														<value>0</value>
													</parameter>
												</effect>
											</filter>
											<filter>
												<effect>
													<name>Distort</name>
													<effectid>deformation</effectid>
													<effectcategory>motion</effectcategory>
													<effecttype>motion</effecttype>
													<mediatype>video</mediatype>
													<parameter authoringApp="PremierePro">
														<parameterid>aspect</parameterid>
														<name>Aspect</name>
														<valuemin>-10000</valuemin>
														<valuemax>10000</valuemax>
														<value>8.69565</value>
													</parameter>
												</effect>
											</filter>
											<logginginfo>
												<description></description>
												<scene></scene>
												<shottake></shottake>
												<lognote></lognote>
												<good></good>
												<originalvideofilename></originalvideofilename>
												<originalaudiofilename></originalaudiofilename>
											</logginginfo>
											<colorinfo>
												<lut></lut>
												<lut1></lut1>
												<asc_sop></asc_sop>
												<asc_sat></asc_sat>
												<lut2></lut2>
											</colorinfo>
											<labels>
												<label2>Violet</label2>
											</labels>
										</clipitem>
										<clipitem id="clipitem-786">
											<masterclipid>masterclip-375</masterclipid>
											<name>Plashka_Right_DV.mov</name>
											<enabled>TRUE</enabled>
											<duration>375</duration>
											<rate>
												<timebase>25</timebase>
												<ntsc>FALSE</ntsc>
											</rate>
											<start>750</start>
											<end>1125</end>
											<in>0</in>
											<out>375</out>
											<pproTicksIn>0</pproTicksIn>
											<pproTicksOut>3810240000000</pproTicksOut>
											<alphatype>straight</alphatype>
											<file id="file-321"/>
											<filter>
												<effect>
													<name>Basic Motion</name>
													<effectid>basic</effectid>
													<effectcategory>motion</effectcategory>
													<effecttype>motion</effecttype>
													<mediatype>video</mediatype>
													<pproBypass>false</pproBypass>
													<parameter authoringApp="PremierePro">
														<parameterid>scale</parameterid>
														<name>Scale</name>
														<valuemin>0</valuemin>
														<valuemax>1000</valuemax>
														<value>100</value>
													</parameter>
													<parameter authoringApp="PremierePro">
														<parameterid>rotation</parameterid>
														<name>Rotation</name>
														<valuemin>-8640</valuemin>
														<valuemax>8640</valuemax>
														<value>0</value>
													</parameter>
													<parameter authoringApp="PremierePro">
														<parameterid>center</parameterid>
														<name>Center</name>
														<value>
															<horiz>-5.55112e-17</horiz>
															<vert>-1.11022e-16</vert>
														</value>
													</parameter>
													<parameter authoringApp="PremierePro">
														<parameterid>centerOffset</parameterid>
														<name>Anchor Point</name>
														<value>
															<horiz>0.402314</horiz>
															<vert>0.41875</vert>
														</value>
													</parameter>
													<parameter authoringApp="PremierePro">
														<parameterid>antiflicker</parameterid>
														<name>Anti-flicker Filter</name>
														<valuemin>0.0</valuemin>
														<valuemax>1.0</valuemax>
														<value>0</value>
													</parameter>
												</effect>
											</filter>
											<logginginfo>
												<description></description>
												<scene></scene>
												<shottake></shottake>
												<lognote></lognote>
												<good></good>
												<originalvideofilename></originalvideofilename>
												<originalaudiofilename></originalaudiofilename>
											</logginginfo>
											<colorinfo>
												<lut></lut>
												<lut1></lut1>
												<asc_sop></asc_sop>
												<asc_sat></asc_sat>
												<lut2></lut2>
											</colorinfo>
											<labels>
												<label2>Violet</label2>
											</labels>
										</clipitem>
										<enabled>TRUE</enabled>
										<locked>FALSE</locked>
									</track>
									<track TL.SQTrackShy="0" TL.SQTrackExpandedHeight="25" TL.SQTrackExpanded="0" MZ.TrackTargeted="0">
										<transitionitem>
											<start>6</start>
											<end>35</end>
											<alignment>start-black</alignment>
											<cutPointTicks>0</cutPointTicks>
											<rate>
												<timebase>25</timebase>
												<ntsc>FALSE</ntsc>
											</rate>
											<effect>
												<name>Edge Wipe</name>
												<effectid>Edge Wipe</effectid>
												<effectcategory>Wipe</effectcategory>
												<effecttype>transition</effecttype>
												<mediatype>video</mediatype>
												<wipecode>2</wipecode>
												<wipeaccuracy>100</wipeaccuracy>
												<startratio>0</startratio>
												<endratio>1</endratio>
												<reverse>FALSE</reverse>
												<parameter authoringApp="PremierePro">
													<parameterid>directionofwipe</parameterid>
													<name>Angle</name>
													<valuemin>-360</valuemin>
													<valuemax>360</valuemax>
													<value>270</value>
												</parameter>
											</effect>
										</transitionitem>
										<clipitem id="clipitem-787">
											<masterclipid>masterclip-376</masterclipid>
											<name>6_1.png</name>
											<enabled>TRUE</enabled>
											<duration>1080000</duration>
											<rate>
												<timebase>25</timebase>
												<ntsc>FALSE</ntsc>
											</rate>
											<start>-1</start>
											<end>-1</end>
											<in>90006</in>
											<out>90369</out>
											<pproTicksIn>914518563840000</pproTicksIn>
											<pproTicksOut>918206876160000</pproTicksOut>
											<alphatype>straight</alphatype>
											<pixelaspectratio>square</pixelaspectratio>
											<anamorphic>FALSE</anamorphic>
											<file id="file-322">
												<name>6_1.png</name>
												<pathurl>file://localhost/_MUZ_TV/project_AP/RU/_TITLE/END/PNG/6_1.png</pathurl>
												<rate>
													<timebase>30</timebase>
													<ntsc>TRUE</ntsc>
												</rate>
												<timecode>
													<rate>
														<timebase>30</timebase>
														<ntsc>TRUE</ntsc>
													</rate>
													<string>00;00;00;00</string>
													<frame>0</frame>
													<displayformat>DF</displayformat>
												</timecode>
												<media>
													<video>
														<samplecharacteristics>
															<rate>
																<timebase>30</timebase>
																<ntsc>TRUE</ntsc>
															</rate>
															<width>1920</width>
															<height>1080</height>
															<anamorphic>FALSE</anamorphic>
															<pixelaspectratio>square</pixelaspectratio>
															<fielddominance>none</fielddominance>
														</samplecharacteristics>
													</video>
												</media>
											</file>
											<filter>
												<effect>
													<name>Basic Motion</name>
													<effectid>basic</effectid>
													<effectcategory>motion</effectcategory>
													<effecttype>motion</effecttype>
													<mediatype>video</mediatype>
													<pproBypass>false</pproBypass>
													<parameter authoringApp="PremierePro">
														<parameterid>scale</parameterid>
														<name>Scale</name>
														<valuemin>0</valuemin>
														<valuemax>1000</valuemax>
														<value>53.3333</value>
													</parameter>
													<parameter authoringApp="PremierePro">
														<parameterid>rotation</parameterid>
														<name>Rotation</name>
														<valuemin>-8640</valuemin>
														<valuemax>8640</valuemax>
														<value>0</value>
													</parameter>
													<parameter authoringApp="PremierePro">
														<parameterid>center</parameterid>
														<name>Center</name>
														<value>
															<horiz>0</horiz>
															<vert>0</vert>
														</value>
													</parameter>
													<parameter authoringApp="PremierePro">
														<parameterid>centerOffset</parameterid>
														<name>Anchor Point</name>
														<value>
															<horiz>0</horiz>
															<vert>0</vert>
														</value>
													</parameter>
													<parameter authoringApp="PremierePro">
														<parameterid>antiflicker</parameterid>
														<name>Anti-flicker Filter</name>
														<valuemin>0.0</valuemin>
														<valuemax>1.0</valuemax>
														<value>0</value>
													</parameter>
												</effect>
											</filter>
											<logginginfo>
												<description></description>
												<scene></scene>
												<shottake></shottake>
												<lognote></lognote>
												<good></good>
												<originalvideofilename></originalvideofilename>
												<originalaudiofilename></originalaudiofilename>
											</logginginfo>
											<colorinfo>
												<lut></lut>
												<lut1></lut1>
												<asc_sop></asc_sop>
												<asc_sat></asc_sat>
												<lut2></lut2>
											</colorinfo>
											<labels>
												<label2>Lavender</label2>
											</labels>
										</clipitem>
										<transitionitem>
											<start>344</start>
											<end>369</end>
											<alignment>end-black</alignment>
											<cutPointTicks>254016000000</cutPointTicks>
											<rate>
												<timebase>25</timebase>
												<ntsc>FALSE</ntsc>
											</rate>
											<effect>
												<name>Edge Wipe</name>
												<effectid>Edge Wipe</effectid>
												<effectcategory>Wipe</effectcategory>
												<effecttype>transition</effecttype>
												<mediatype>video</mediatype>
												<wipecode>2</wipecode>
												<wipeaccuracy>100</wipeaccuracy>
												<startratio>0</startratio>
												<endratio>1</endratio>
												<reverse>FALSE</reverse>
												<parameter authoringApp="PremierePro">
													<parameterid>directionofwipe</parameterid>
													<name>Angle</name>
													<valuemin>-360</valuemin>
													<valuemax>360</valuemax>
													<value>90</value>
												</parameter>
											</effect>
										</transitionitem>
										<transitionitem>
											<start>381</start>
											<end>410</end>
											<alignment>start-black</alignment>
											<cutPointTicks>0</cutPointTicks>
											<rate>
												<timebase>25</timebase>
												<ntsc>FALSE</ntsc>
											</rate>
											<effect>
												<name>Edge Wipe</name>
												<effectid>Edge Wipe</effectid>
												<effectcategory>Wipe</effectcategory>
												<effecttype>transition</effecttype>
												<mediatype>video</mediatype>
												<wipecode>2</wipecode>
												<wipeaccuracy>100</wipeaccuracy>
												<startratio>0</startratio>
												<endratio>1</endratio>
												<reverse>FALSE</reverse>
												<parameter authoringApp="PremierePro">
													<parameterid>directionofwipe</parameterid>
													<name>Angle</name>
													<valuemin>-360</valuemin>
													<valuemax>360</valuemax>
													<value>270</value>
												</parameter>
											</effect>
										</transitionitem>
										<clipitem id="clipitem-788">
											<masterclipid>masterclip-377</masterclipid>
											<name>6_2.png</name>
											<enabled>TRUE</enabled>
											<duration>1080000</duration>
											<rate>
												<timebase>25</timebase>
												<ntsc>FALSE</ntsc>
											</rate>
											<start>-1</start>
											<end>-1</end>
											<in>90011</in>
											<out>90374</out>
											<pproTicksIn>914569367040000</pproTicksIn>
											<pproTicksOut>918257679360000</pproTicksOut>
											<alphatype>straight</alphatype>
											<pixelaspectratio>square</pixelaspectratio>
											<anamorphic>FALSE</anamorphic>
											<file id="file-323">
												<name>6_2.png</name>
												<pathurl>file://localhost/_MUZ_TV/project_AP/RU/_TITLE/END/PNG/6_2.png</pathurl>
												<rate>
													<timebase>30</timebase>
													<ntsc>TRUE</ntsc>
												</rate>
												<timecode>
													<rate>
														<timebase>30</timebase>
														<ntsc>TRUE</ntsc>
													</rate>
													<string>00;00;00;00</string>
													<frame>0</frame>
													<displayformat>DF</displayformat>
												</timecode>
												<media>
													<video>
														<samplecharacteristics>
															<rate>
																<timebase>30</timebase>
																<ntsc>TRUE</ntsc>
															</rate>
															<width>1920</width>
															<height>1080</height>
															<anamorphic>FALSE</anamorphic>
															<pixelaspectratio>square</pixelaspectratio>
															<fielddominance>none</fielddominance>
														</samplecharacteristics>
													</video>
												</media>
											</file>
											<filter>
												<effect>
													<name>Basic Motion</name>
													<effectid>basic</effectid>
													<effectcategory>motion</effectcategory>
													<effecttype>motion</effecttype>
													<mediatype>video</mediatype>
													<pproBypass>false</pproBypass>
													<parameter authoringApp="PremierePro">
														<parameterid>scale</parameterid>
														<name>Scale</name>
														<valuemin>0</valuemin>
														<valuemax>1000</valuemax>
														<value>53.3333</value>
													</parameter>
													<parameter authoringApp="PremierePro">
														<parameterid>rotation</parameterid>
														<name>Rotation</name>
														<valuemin>-8640</valuemin>
														<valuemax>8640</valuemax>
														<value>0</value>
													</parameter>
													<parameter authoringApp="PremierePro">
														<parameterid>center</parameterid>
														<name>Center</name>
														<value>
															<horiz>0</horiz>
															<vert>0</vert>
														</value>
													</parameter>
													<parameter authoringApp="PremierePro">
														<parameterid>centerOffset</parameterid>
														<name>Anchor Point</name>
														<value>
															<horiz>0</horiz>
															<vert>0</vert>
														</value>
													</parameter>
													<parameter authoringApp="PremierePro">
														<parameterid>antiflicker</parameterid>
														<name>Anti-flicker Filter</name>
														<valuemin>0.0</valuemin>
														<valuemax>1.0</valuemax>
														<value>0</value>
													</parameter>
												</effect>
											</filter>
											<logginginfo>
												<description></description>
												<scene></scene>
												<shottake></shottake>
												<lognote></lognote>
												<good></good>
												<originalvideofilename></originalvideofilename>
												<originalaudiofilename></originalaudiofilename>
											</logginginfo>
											<colorinfo>
												<lut></lut>
												<lut1></lut1>
												<asc_sop></asc_sop>
												<asc_sat></asc_sat>
												<lut2></lut2>
											</colorinfo>
											<labels>
												<label2>Lavender</label2>
											</labels>
										</clipitem>
										<transitionitem>
											<start>719</start>
											<end>744</end>
											<alignment>end-black</alignment>
											<cutPointTicks>254016000000</cutPointTicks>
											<rate>
												<timebase>25</timebase>
												<ntsc>FALSE</ntsc>
											</rate>
											<effect>
												<name>Edge Wipe</name>
												<effectid>Edge Wipe</effectid>
												<effectcategory>Wipe</effectcategory>
												<effecttype>transition</effecttype>
												<mediatype>video</mediatype>
												<wipecode>2</wipecode>
												<wipeaccuracy>100</wipeaccuracy>
												<startratio>0</startratio>
												<endratio>1</endratio>
												<reverse>FALSE</reverse>
												<parameter authoringApp="PremierePro">
													<parameterid>directionofwipe</parameterid>
													<name>Angle</name>
													<valuemin>-360</valuemin>
													<valuemax>360</valuemax>
													<value>90</value>
												</parameter>
											</effect>
										</transitionitem>
										<transitionitem>
											<start>756</start>
											<end>785</end>
											<alignment>start-black</alignment>
											<cutPointTicks>0</cutPointTicks>
											<rate>
												<timebase>25</timebase>
												<ntsc>FALSE</ntsc>
											</rate>
											<effect>
												<name>Edge Wipe</name>
												<effectid>Edge Wipe</effectid>
												<effectcategory>Wipe</effectcategory>
												<effecttype>transition</effecttype>
												<mediatype>video</mediatype>
												<wipecode>2</wipecode>
												<wipeaccuracy>100</wipeaccuracy>
												<startratio>0</startratio>
												<endratio>1</endratio>
												<reverse>FALSE</reverse>
												<parameter authoringApp="PremierePro">
													<parameterid>directionofwipe</parameterid>
													<name>Angle</name>
													<valuemin>-360</valuemin>
													<valuemax>360</valuemax>
													<value>270</value>
												</parameter>
											</effect>
										</transitionitem>
										<clipitem id="clipitem-789">
											<masterclipid>masterclip-378</masterclipid>
											<name>6_3.png</name>
											<enabled>TRUE</enabled>
											<duration>1080000</duration>
											<rate>
												<timebase>25</timebase>
												<ntsc>FALSE</ntsc>
											</rate>
											<start>-1</start>
											<end>-1</end>
											<in>90011</in>
											<out>90375</out>
											<pproTicksIn>914569367040000</pproTicksIn>
											<pproTicksOut>918267840000000</pproTicksOut>
											<alphatype>straight</alphatype>
											<pixelaspectratio>square</pixelaspectratio>
											<anamorphic>FALSE</anamorphic>
											<file id="file-324">
												<name>6_3.png</name>
												<pathurl>file://localhost/_MUZ_TV/project_AP/RU/_TITLE/END/PNG/6_3.png</pathurl>
												<rate>
													<timebase>30</timebase>
													<ntsc>TRUE</ntsc>
												</rate>
												<timecode>
													<rate>
														<timebase>30</timebase>
														<ntsc>TRUE</ntsc>
													</rate>
													<string>00;00;00;00</string>
													<frame>0</frame>
													<displayformat>DF</displayformat>
												</timecode>
												<media>
													<video>
														<samplecharacteristics>
															<rate>
																<timebase>30</timebase>
																<ntsc>TRUE</ntsc>
															</rate>
															<width>1920</width>
															<height>1080</height>
															<anamorphic>FALSE</anamorphic>
															<pixelaspectratio>square</pixelaspectratio>
															<fielddominance>none</fielddominance>
														</samplecharacteristics>
													</video>
												</media>
											</file>
											<filter>
												<effect>
													<name>Basic Motion</name>
													<effectid>basic</effectid>
													<effectcategory>motion</effectcategory>
													<effecttype>motion</effecttype>
													<mediatype>video</mediatype>
													<pproBypass>false</pproBypass>
													<parameter authoringApp="PremierePro">
														<parameterid>scale</parameterid>
														<name>Scale</name>
														<valuemin>0</valuemin>
														<valuemax>1000</valuemax>
														<value>53.3333</value>
													</parameter>
													<parameter authoringApp="PremierePro">
														<parameterid>rotation</parameterid>
														<name>Rotation</name>
														<valuemin>-8640</valuemin>
														<valuemax>8640</valuemax>
														<value>0</value>
													</parameter>
													<parameter authoringApp="PremierePro">
														<parameterid>center</parameterid>
														<name>Center</name>
														<value>
															<horiz>0</horiz>
															<vert>0</vert>
														</value>
													</parameter>
													<parameter authoringApp="PremierePro">
														<parameterid>centerOffset</parameterid>
														<name>Anchor Point</name>
														<value>
															<horiz>0</horiz>
															<vert>0</vert>
														</value>
													</parameter>
													<parameter authoringApp="PremierePro">
														<parameterid>antiflicker</parameterid>
														<name>Anti-flicker Filter</name>
														<valuemin>0.0</valuemin>
														<valuemax>1.0</valuemax>
														<value>0</value>
													</parameter>
												</effect>
											</filter>
											<logginginfo>
												<description></description>
												<scene></scene>
												<shottake></shottake>
												<lognote></lognote>
												<good></good>
												<originalvideofilename></originalvideofilename>
												<originalaudiofilename></originalaudiofilename>
											</logginginfo>
											<colorinfo>
												<lut></lut>
												<lut1></lut1>
												<asc_sop></asc_sop>
												<asc_sat></asc_sat>
												<lut2></lut2>
											</colorinfo>
											<labels>
												<label2>Lavender</label2>
											</labels>
										</clipitem>
										<transitionitem>
											<start>1095</start>
											<end>1120</end>
											<alignment>end-black</alignment>
											<cutPointTicks>254016000000</cutPointTicks>
											<rate>
												<timebase>25</timebase>
												<ntsc>FALSE</ntsc>
											</rate>
											<effect>
												<name>Edge Wipe</name>
												<effectid>Edge Wipe</effectid>
												<effectcategory>Wipe</effectcategory>
												<effecttype>transition</effecttype>
												<mediatype>video</mediatype>
												<wipecode>2</wipecode>
												<wipeaccuracy>100</wipeaccuracy>
												<startratio>0</startratio>
												<endratio>1</endratio>
												<reverse>FALSE</reverse>
												<parameter authoringApp="PremierePro">
													<parameterid>directionofwipe</parameterid>
													<name>Angle</name>
													<valuemin>-360</valuemin>
													<valuemax>360</valuemax>
													<value>90</value>
												</parameter>
											</effect>
										</transitionitem>
										<enabled>TRUE</enabled>
										<locked>FALSE</locked>
									</track>
									<track TL.SQTrackShy="0" TL.SQTrackExpandedHeight="25" TL.SQTrackExpanded="0" MZ.TrackTargeted="0">
										<transitionitem>
											<start>755</start>
											<end>780</end>
											<alignment>start-black</alignment>
											<cutPointTicks>0</cutPointTicks>
											<rate>
												<timebase>25</timebase>
												<ntsc>FALSE</ntsc>
											</rate>
											<effect>
												<name>Edge Wipe</name>
												<effectid>Edge Wipe</effectid>
												<effectcategory>Wipe</effectcategory>
												<effecttype>transition</effecttype>
												<mediatype>video</mediatype>
												<wipecode>2</wipecode>
												<wipeaccuracy>100</wipeaccuracy>
												<startratio>0</startratio>
												<endratio>1</endratio>
												<reverse>FALSE</reverse>
												<parameter authoringApp="PremierePro">
													<parameterid>directionofwipe</parameterid>
													<name>Angle</name>
													<valuemin>-360</valuemin>
													<valuemax>360</valuemax>
													<value>270</value>
												</parameter>
											</effect>
										</transitionitem>
										<clipitem id="clipitem-790">
											<masterclipid>masterclip-379</masterclipid>
											<name>Graphic</name>
											<enabled>FALSE</enabled>
											<duration>1080000</duration>
											<rate>
												<timebase>25</timebase>
												<ntsc>FALSE</ntsc>
											</rate>
											<start>-1</start>
											<end>-1</end>
											<in>89905</in>
											<out>90272</out>
											<pproTicksIn>913492339200000</pproTicksIn>
											<pproTicksOut>917221294080000</pproTicksOut>
											<alphatype>straight</alphatype>
											<pixelaspectratio>PAL-601</pixelaspectratio>
											<anamorphic>TRUE</anamorphic>
											<file id="file-325">
												<name>Graphic</name>
												<mediaSource>GraphicAndType</mediaSource>
												<rate>
													<timebase>30</timebase>
													<ntsc>TRUE</ntsc>
												</rate>
												<timecode>
													<rate>
														<timebase>30</timebase>
														<ntsc>TRUE</ntsc>
													</rate>
													<string>00;00;00;00</string>
													<frame>0</frame>
													<displayformat>DF</displayformat>
												</timecode>
												<media>
													<video>
														<samplecharacteristics>
															<rate>
																<timebase>30</timebase>
																<ntsc>TRUE</ntsc>
															</rate>
															<width>720</width>
															<height>576</height>
															<anamorphic>TRUE</anamorphic>
															<pixelaspectratio>PAL-601</pixelaspectratio>
															<fielddominance>none</fielddominance>
														</samplecharacteristics>
													</video>
												</media>
											</file>
											<filter>
												<effect>
													<name>Vector Motion</name>
													<effectid>GraphicGroup</effectid>
													<effectcategory>graphic</effectcategory>
													<effecttype>filter</effecttype>
													<mediatype>video</mediatype>
													<pproBypass>false</pproBypass>
													<parameter authoringApp="PremierePro">
														<parameterid>1</parameterid>
														<name>Position</name>
														<IsTimeVarying>false</IsTimeVarying>
														<value>-91445760000000000,0.81693898908787344:0.49085601568222115,0,0,0,0,0,0,5,4,0,0,0,0</value>
													</parameter>
													<parameter authoringApp="PremierePro">
														<parameterid>2</parameterid>
														<name>Scale</name>
														<IsTimeVarying>false</IsTimeVarying>
														<ParameterControlType>2</ParameterControlType>
														<LowerBound>0</LowerBound>
														<UpperBound>10000</UpperBound>
														<UpperUIBound>200</UpperUIBound>
														<value>-91445760000000000,100.,0,0,0,0,0,0</value>
													</parameter>
													<parameter authoringApp="PremierePro">
														<parameterid>3</parameterid>
														<name>Scale Width</name>
														<IsTimeVarying>false</IsTimeVarying>
														<ParameterControlType>2</ParameterControlType>
														<LowerBound>0</LowerBound>
														<UpperBound>10000</UpperBound>
														<UpperUIBound>200</UpperUIBound>
														<value>-91445760000000000,100.,0,0,0,0,0,0</value>
													</parameter>
													<parameter authoringApp="PremierePro">
														<parameterid>4</parameterid>
														<name> </name>
														<IsTimeVarying>false</IsTimeVarying>
														<ParameterControlType>4</ParameterControlType>
														<LowerBound>false</LowerBound>
														<UpperBound>true</UpperBound>
														<value>-91445760000000000,true,0,0,0,0,0,0</value>
													</parameter>
													<parameter authoringApp="PremierePro">
														<parameterid>5</parameterid>
														<name>Rotation</name>
														<IsTimeVarying>false</IsTimeVarying>
														<ParameterControlType>3</ParameterControlType>
														<LowerBound>-32768</LowerBound>
														<UpperBound>32767</UpperBound>
														<value>-91445760000000000,0.,0,0,0,0,0,0</value>
													</parameter>
													<parameter authoringApp="PremierePro">
														<parameterid>6</parameterid>
														<name>Anchor Point</name>
														<IsTimeVarying>false</IsTimeVarying>
														<value>-91445760000000000,0.5:0.5,0,0,0,0,0,0,5,4,0,0,0,0</value>
													</parameter>
												</effect>
											</filter>
											<filter>
												<effect>
													<name>Данил Прытков признаётся, &#13;что сильные провалы &#13;мотивируют его на творчество &#13;не меньше, чем победы. </name>
													<effectid>GraphicAndType</effectid>
													<effectcategory>graphic</effectcategory>
													<effecttype>filter</effecttype>
													<mediatype>video</mediatype>
													<pproBypass>false</pproBypass>
													<pproExpanded>true</pproExpanded>
													<parameter authoringApp="PremierePro">
														<parameterid>1</parameterid>
														<name>Source Text</name>
														<hash>698123b5-7d57-7b79-efb1-b0df00000a31</hash>
													</parameter>
													<parameter authoringApp="PremierePro">
														<parameterid>2</parameterid>
														<name>Transform</name>
														<IsTimeVarying>false</IsTimeVarying>
														<ParameterControlType>11</ParameterControlType>
														<LowerBound>false</LowerBound>
														<UpperBound>false</UpperBound>
														<value>-91445760000000000,false,0,0,0,0,0,0</value>
													</parameter>
													<parameter authoringApp="PremierePro">
														<parameterid>3</parameterid>
														<name>Position</name>
														<IsTimeVarying>false</IsTimeVarying>
														<value>-91445760000000000,0.270416259765625:0.640594482421875,0,0,0,0,0,0,5,4,0,0,0,0</value>
													</parameter>
													<parameter authoringApp="PremierePro">
														<parameterid>4</parameterid>
														<name>Scale</name>
														<IsTimeVarying>false</IsTimeVarying>
														<ParameterControlType>2</ParameterControlType>
														<LowerBound>0</LowerBound>
														<UpperBound>4000</UpperBound>
														<value>-91445760000000000,100.,0,0,0,0,0,0</value>
													</parameter>
													<parameter authoringApp="PremierePro">
														<parameterid>5</parameterid>
														<name>Horizontal Scale</name>
														<IsTimeVarying>false</IsTimeVarying>
														<ParameterControlType>2</ParameterControlType>
														<LowerBound>0</LowerBound>
														<UpperBound>4000</UpperBound>
														<value>-91445760000000000,100.,0,0,0,0,0,0</value>
													</parameter>
													<parameter authoringApp="PremierePro">
														<parameterid>6</parameterid>
														<name> </name>
														<IsTimeVarying>false</IsTimeVarying>
														<ParameterControlType>4</ParameterControlType>
														<LowerBound>false</LowerBound>
														<UpperBound>true</UpperBound>
														<value>-91445760000000000,true,0,0,0,0,0,0</value>
													</parameter>
													<parameter authoringApp="PremierePro">
														<parameterid>7</parameterid>
														<name>Rotation</name>
														<IsTimeVarying>false</IsTimeVarying>
														<ParameterControlType>3</ParameterControlType>
														<LowerBound>-32768</LowerBound>
														<UpperBound>32767</UpperBound>
														<value>-91445760000000000,0.,0,0,0,0,0,0</value>
													</parameter>
													<parameter authoringApp="PremierePro">
														<parameterid>8</parameterid>
														<name>Opacity</name>
														<IsTimeVarying>false</IsTimeVarying>
														<ParameterControlType>2</ParameterControlType>
														<LowerBound>0</LowerBound>
														<UpperBound>100</UpperBound>
														<value>-91445760000000000,100.,0,0,0,0,0,0</value>
													</parameter>
													<parameter authoringApp="PremierePro">
														<parameterid>9</parameterid>
														<name>Anchor Point</name>
														<IsTimeVarying>false</IsTimeVarying>
														<value>-91445760000000000,0:0,0,0,0,0,0,0,5,4,0,0,0,0</value>
													</parameter>
													<parameter authoringApp="PremierePro">
														<parameterid>10</parameterid>
														<name></name>
														<IsTimeVarying>false</IsTimeVarying>
														<ParameterControlType>12</ParameterControlType>
														<LowerBound>false</LowerBound>
														<UpperBound>false</UpperBound>
														<value>-91445760000000000,false,0,0,0,0,0,0</value>
													</parameter>
													<parameter authoringApp="PremierePro">
														<parameterid>11</parameterid>
														<name> </name>
														<IsTimeVarying>false</IsTimeVarying>
														<ParameterControlType>8</ParameterControlType>
														<LowerBound>0</LowerBound>
														<UpperBound>32768</UpperBound>
														<value>-91445760000000000,0.,0,0,0,0,0,0</value>
													</parameter>
													<parameter authoringApp="PremierePro">
														<parameterid>12</parameterid>
														<name> </name>
														<IsTimeVarying>false</IsTimeVarying>
														<ParameterControlType>8</ParameterControlType>
														<LowerBound>0</LowerBound>
														<UpperBound>32768</UpperBound>
														<value>-91445760000000000,0.,0,0,0,0,0,0</value>
													</parameter>
													<parameter authoringApp="PremierePro">
														<parameterid>13</parameterid>
														<name>start</name>
														<IsTimeVarying>false</IsTimeVarying>
														<ParameterControlType>8</ParameterControlType>
														<LowerBound>-100</LowerBound>
														<UpperBound>1000000000</UpperBound>
														<value>-91445760000000000,0.,0,0,0,0,0,0</value>
													</parameter>
													<parameter authoringApp="PremierePro">
														<parameterid>14</parameterid>
														<name>end</name>
														<IsTimeVarying>false</IsTimeVarying>
														<ParameterControlType>8</ParameterControlType>
														<LowerBound>-100</LowerBound>
														<UpperBound>1000000000</UpperBound>
														<value>-91445760000000000,101.,0,0,0,0,0,0</value>
													</parameter>
													<parameter authoringApp="PremierePro">
														<parameterid>15</parameterid>
														<name> </name>
														<IsTimeVarying>false</IsTimeVarying>
														<ParameterControlType>4</ParameterControlType>
														<LowerBound>false</LowerBound>
														<UpperBound>true</UpperBound>
														<value>-91445760000000000,false,0,0,0,0,0,0</value>
													</parameter>
													<parameter authoringApp="PremierePro">
														<parameterid>16</parameterid>
														<name> </name>
														<IsTimeVarying>false</IsTimeVarying>
														<ParameterControlType>4</ParameterControlType>
														<LowerBound>false</LowerBound>
														<UpperBound>true</UpperBound>
														<value>-91445760000000000,false,0,0,0,0,0,0</value>
													</parameter>
													<parameter authoringApp="PremierePro">
														<parameterid>17</parameterid>
														<name> </name>
														<IsTimeVarying>false</IsTimeVarying>
														<ParameterControlType>4</ParameterControlType>
														<LowerBound>false</LowerBound>
														<UpperBound>true</UpperBound>
														<value>-91445760000000000,false,0,0,0,0,0,0</value>
													</parameter>
													<parameter authoringApp="PremierePro">
														<parameterid>18</parameterid>
														<name> </name>
														<IsTimeVarying>false</IsTimeVarying>
														<ParameterControlType>4</ParameterControlType>
														<LowerBound>false</LowerBound>
														<UpperBound>true</UpperBound>
														<value>-91445760000000000,false,0,0,0,0,0,0</value>
													</parameter>
													<parameter authoringApp="PremierePro">
														<parameterid>19</parameterid>
														<name>Parent Width</name>
														<IsTimeVarying>false</IsTimeVarying>
														<ParameterControlType>2</ParameterControlType>
														<LowerBound>0</LowerBound>
														<UpperBound>20000</UpperBound>
														<value>-91445760000000000,0.,0,0,0,0,0,0</value>
													</parameter>
													<parameter authoringApp="PremierePro">
														<parameterid>20</parameterid>
														<name>Parent Height</name>
														<IsTimeVarying>false</IsTimeVarying>
														<ParameterControlType>2</ParameterControlType>
														<LowerBound>0</LowerBound>
														<UpperBound>20000</UpperBound>
														<value>-91445760000000000,0.,0,0,0,0,0,0</value>
													</parameter>
													<parameter authoringApp="PremierePro">
														<parameterid>21</parameterid>
														<name>Parent Rotation</name>
														<IsTimeVarying>false</IsTimeVarying>
														<ParameterControlType>3</ParameterControlType>
														<LowerBound>-32768</LowerBound>
														<UpperBound>32767</UpperBound>
														<value>-91445760000000000,0.,0,0,0,0,0,0</value>
													</parameter>
												</effect>
											</filter>
											<logginginfo>
												<description></description>
												<scene></scene>
												<shottake></shottake>
												<lognote></lognote>
												<good></good>
												<originalvideofilename></originalvideofilename>
												<originalaudiofilename></originalaudiofilename>
											</logginginfo>
											<colorinfo>
												<lut></lut>
												<lut1></lut1>
												<asc_sop></asc_sop>
												<asc_sat></asc_sat>
												<lut2></lut2>
											</colorinfo>
										</clipitem>
										<transitionitem>
											<start>1097</start>
											<end>1122</end>
											<alignment>end-black</alignment>
											<cutPointTicks>254016000000</cutPointTicks>
											<rate>
												<timebase>25</timebase>
												<ntsc>FALSE</ntsc>
											</rate>
											<effect>
												<name>Edge Wipe</name>
												<effectid>Edge Wipe</effectid>
												<effectcategory>Wipe</effectcategory>
												<effecttype>transition</effecttype>
												<mediatype>video</mediatype>
												<wipecode>2</wipecode>
												<wipeaccuracy>100</wipeaccuracy>
												<startratio>0</startratio>
												<endratio>1</endratio>
												<reverse>FALSE</reverse>
												<parameter authoringApp="PremierePro">
													<parameterid>directionofwipe</parameterid>
													<name>Angle</name>
													<valuemin>-360</valuemin>
													<valuemax>360</valuemax>
													<value>90</value>
												</parameter>
											</effect>
										</transitionitem>
										<enabled>TRUE</enabled>
										<locked>FALSE</locked>
									</track>
								</video>
								<audio>
									<numOutputChannels>2</numOutputChannels>
									<format>
										<samplecharacteristics>
											<depth>16</depth>
											<samplerate>48000</samplerate>
										</samplecharacteristics>
									</format>
									<outputs>
										<group>
											<index>1</index>
											<numchannels>1</numchannels>
											<downmix>0</downmix>
											<channel>
												<index>1</index>
											</channel>
										</group>
										<group>
											<index>2</index>
											<numchannels>1</numchannels>
											<downmix>0</downmix>
											<channel>
												<index>2</index>
											</channel>
										</group>
									</outputs>
									<track TL.SQTrackAudioKeyframeStyle="0" TL.SQTrackShy="0" TL.SQTrackExpandedHeight="25" TL.SQTrackExpanded="0" MZ.TrackTargeted="1" PannerCurrentValue="0.5" PannerStartKeyframe="-91445760000000000,0.5,0,0,0,0,0,0" PannerName="Balance" currentExplodedTrackIndex="0" totalExplodedTrackCount="2" premiereTrackType="Stereo">
										<enabled>TRUE</enabled>
										<locked>FALSE</locked>
										<outputchannelindex>1</outputchannelindex>
									</track>
									<track TL.SQTrackAudioKeyframeStyle="0" TL.SQTrackShy="0" TL.SQTrackExpandedHeight="25" TL.SQTrackExpanded="0" MZ.TrackTargeted="1" PannerCurrentValue="0.5" PannerStartKeyframe="-91445760000000000,0.5,0,0,0,0,0,0" PannerName="Balance" currentExplodedTrackIndex="1" totalExplodedTrackCount="2" premiereTrackType="Stereo">
										<enabled>TRUE</enabled>
										<locked>FALSE</locked>
										<outputchannelindex>2</outputchannelindex>
									</track>
								</audio>
							</media>
							<timecode>
								<rate>
									<timebase>25</timebase>
									<ntsc>FALSE</ntsc>
								</rate>
								<string>00:00:00:00</string>
								<frame>0</frame>
								<displayformat>NDF</displayformat>
							</timecode>
								<marker>
									<comment></comment>
									<name></name>
									<in>800</in>
									<out>-1</out>
									<pproColor>4292277273</pproColor>
								</marker>
								<marker>
									<comment></comment>
									<name></name>
									<in>50</in>
									<out>-1</out>
									<pproColor>4292277273</pproColor>
								</marker>
								<marker>
									<comment></comment>
									<name></name>
									<in>425</in>
									<out>-1</out>
									<pproColor>4292277273</pproColor>
								</marker>
							<logginginfo>
								<description></description>
								<scene></scene>
								<shottake></shottake>
								<lognote></lognote>
								<good></good>
								<originalvideofilename></originalvideofilename>
								<originalaudiofilename></originalaudiofilename>
							</logginginfo>
						</sequence>
							<marker>
								<comment></comment>
								<name></name>
								<in>800</in>
								<out>-1</out>
								<pproColor>4292277273</pproColor>
							</marker>
							<marker>
								<comment></comment>
								<name></name>
								<in>50</in>
								<out>-1</out>
								<pproColor>4292277273</pproColor>
							</marker>
							<marker>
								<comment></comment>
								<name></name>
								<in>425</in>
								<out>-1</out>
								<pproColor>4292277273</pproColor>
							</marker>
						<labels>
							<label2>Forest</label2>
						</labels>
					</clipitem>
					<clipitem id="clipitem-791">
						<masterclipid>masterclip-374</masterclipid>
						<name>6</name>
						<enabled>TRUE</enabled>
						<duration>1125</duration>
						<rate>
							<timebase>25</timebase>
							<ntsc>FALSE</ntsc>
						</rate>
						<start>30217</start>
						<end>30592</end>
						<in>375</in>
						<out>750</out>
						<pproTicksIn>3810240000000</pproTicksIn>
						<pproTicksOut>7620480000000</pproTicksOut>
						<sequence id="sequence-58"/>
							<marker>
								<comment></comment>
								<name></name>
								<in>800</in>
								<out>-1</out>
								<pproColor>4292277273</pproColor>
							</marker>
							<marker>
								<comment></comment>
								<name></name>
								<in>50</in>
								<out>-1</out>
								<pproColor>4292277273</pproColor>
							</marker>
							<marker>
								<comment></comment>
								<name></name>
								<in>425</in>
								<out>-1</out>
								<pproColor>4292277273</pproColor>
							</marker>
						<labels>
							<label2>Forest</label2>
						</labels>
					</clipitem>
					<clipitem id="clipitem-792">
						<masterclipid>masterclip-374</masterclipid>
						<name>6</name>
						<enabled>TRUE</enabled>
						<duration>1125</duration>
						<rate>
							<timebase>25</timebase>
							<ntsc>FALSE</ntsc>
						</rate>
						<start>31472</start>
						<end>31847</end>
						<in>750</in>
						<out>1125</out>
						<pproTicksIn>7620480000000</pproTicksIn>
						<pproTicksOut>11430720000000</pproTicksOut>
						<sequence id="sequence-58"/>
							<marker>
								<comment></comment>
								<name></name>
								<in>800</in>
								<out>-1</out>
								<pproColor>4292277273</pproColor>
							</marker>
							<marker>
								<comment></comment>
								<name></name>
								<in>50</in>
								<out>-1</out>
								<pproColor>4292277273</pproColor>
							</marker>
							<marker>
								<comment></comment>
								<name></name>
								<in>425</in>
								<out>-1</out>
								<pproColor>4292277273</pproColor>
							</marker>
						<labels>
							<label2>Forest</label2>
						</labels>
					</clipitem>
					<clipitem id="clipitem-793">
						<masterclipid>masterclip-380</masterclipid>
						<name>7</name>
						<enabled>TRUE</enabled>
						<duration>1125</duration>
						<rate>
							<timebase>25</timebase>
							<ntsc>FALSE</ntsc>
						</rate>
						<start>33829</start>
						<end>34204</end>
						<in>0</in>
						<out>375</out>
						<pproTicksIn>0</pproTicksIn>
						<pproTicksOut>3810240000000</pproTicksOut>
						<sequence id="sequence-59" TL.SQAudioVisibleBase="0" TL.SQVideoVisibleBase="0" TL.SQVisibleBaseTime="0" TL.SQAVDividerPosition="0.5" TL.SQHideShyTracks="0" TL.SQHeaderWidth="236" Monitor.ProgramZoomOut="11430720000000" Monitor.ProgramZoomIn="0" TL.SQTimePerPixel="0.19620667102680808" AM.TrackVScrollPosition="0" AM.TrackScrollPosition="0" MZ.EditLine="2794176000000" MZ.Sequence.PreviewFrameSizeHeight="576" MZ.Sequence.PreviewFrameSizeWidth="720" MZ.Sequence.AudioTimeDisplayFormat="200" MZ.Sequence.PreviewRenderingClassID="1061109567" MZ.Sequence.PreviewRenderingPresetCodec="1685480304" MZ.Sequence.PreviewRenderingPresetPath="EncoderPresets/SequencePreview/04be6e19-a018-4e0c-a9d6-0ab44c64752b/QuickTime DV PAL.epr" MZ.Sequence.PreviewUseMaxRenderQuality="false" MZ.Sequence.PreviewUseMaxBitDepth="false" MZ.Sequence.EditingModeGUID="04be6e19-a018-4e0c-a9d6-0ab44c64752b" MZ.Sequence.VideoTimeDisplayFormat="101" MZ.WorkOutPoint="11430720000000" MZ.WorkInPoint="0" MZ.ZeroPoint="0">
							<duration>1125</duration>
							<rate>
								<timebase>25</timebase>
								<ntsc>FALSE</ntsc>
							</rate>
							<name>RU_Nested</name>
							<media>
								<video>
									<format>
										<samplecharacteristics>
											<rate>
												<timebase>25</timebase>
												<ntsc>FALSE</ntsc>
											</rate>
											<codec>
												<name>Apple ProRes 422</name>
												<appspecificdata>
													<appname>Final Cut Pro</appname>
													<appmanufacturer>Apple Inc.</appmanufacturer>
													<appversion>7.0</appversion>
													<data>
														<qtcodec>
															<codecname>Apple ProRes 422</codecname>
															<codectypename>Apple ProRes 422</codectypename>
															<codectypecode>apcn</codectypecode>
															<codecvendorcode>appl</codecvendorcode>
															<spatialquality>1024</spatialquality>
															<temporalquality>0</temporalquality>
															<keyframerate>0</keyframerate>
															<datarate>0</datarate>
														</qtcodec>
													</data>
												</appspecificdata>
											</codec>
											<width>720</width>
											<height>576</height>
											<anamorphic>TRUE</anamorphic>
											<pixelaspectratio>PAL-601</pixelaspectratio>
											<fielddominance>lower</fielddominance>
											<colordepth>24</colordepth>
										</samplecharacteristics>
									</format>
									<track TL.SQTrackShy="0" TL.SQTrackExpandedHeight="25" TL.SQTrackExpanded="0" MZ.TrackTargeted="1">
										<clipitem id="clipitem-794">
											<masterclipid>masterclip-381</masterclipid>
											<name>Plashka_Right_DV.mov</name>
											<enabled>TRUE</enabled>
											<duration>375</duration>
											<rate>
												<timebase>25</timebase>
												<ntsc>FALSE</ntsc>
											</rate>
											<start>0</start>
											<end>375</end>
											<in>0</in>
											<out>375</out>
											<pproTicksIn>0</pproTicksIn>
											<pproTicksOut>3810240000000</pproTicksOut>
											<alphatype>straight</alphatype>
											<pixelaspectratio>PAL-601</pixelaspectratio>
											<anamorphic>TRUE</anamorphic>
											<file id="file-326">
												<name>Plashka_Right_DV.mov</name>
												<pathurl>file://localhost/Volumes/1Tb/_MUZ_TV/graphika/RU-21/MOD/Plashka_Right_DV.mov</pathurl>
												<rate>
													<timebase>25</timebase>
													<ntsc>FALSE</ntsc>
												</rate>
												<duration>375</duration>
												<timecode>
													<rate>
														<timebase>25</timebase>
														<ntsc>FALSE</ntsc>
													</rate>
													<string>00:00:15:10</string>
													<frame>385</frame>
													<displayformat>NDF</displayformat>
												</timecode>
												<media>
													<video>
														<samplecharacteristics>
															<rate>
																<timebase>25</timebase>
																<ntsc>FALSE</ntsc>
															</rate>
															<width>720</width>
															<height>576</height>
															<anamorphic>TRUE</anamorphic>
															<pixelaspectratio>PAL-601</pixelaspectratio>
															<fielddominance>lower</fielddominance>
														</samplecharacteristics>
													</video>
												</media>
											</file>
											<filter>
												<effect>
													<name>Basic Motion</name>
													<effectid>basic</effectid>
													<effectcategory>motion</effectcategory>
													<effecttype>motion</effecttype>
													<mediatype>video</mediatype>
													<pproBypass>false</pproBypass>
													<parameter authoringApp="PremierePro">
														<parameterid>scale</parameterid>
														<name>Scale</name>
														<valuemin>0</valuemin>
														<valuemax>1000</valuemax>
														<value>100</value>
													</parameter>
													<parameter authoringApp="PremierePro">
														<parameterid>rotation</parameterid>
														<name>Rotation</name>
														<valuemin>-8640</valuemin>
														<valuemax>8640</valuemax>
														<value>0</value>
													</parameter>
													<parameter authoringApp="PremierePro">
														<parameterid>center</parameterid>
														<name>Center</name>
														<value>
															<horiz>-5.55112e-17</horiz>
															<vert>-1.11022e-16</vert>
														</value>
													</parameter>
													<parameter authoringApp="PremierePro">
														<parameterid>centerOffset</parameterid>
														<name>Anchor Point</name>
														<value>
															<horiz>0.402314</horiz>
															<vert>0.41875</vert>
														</value>
													</parameter>
													<parameter authoringApp="PremierePro">
														<parameterid>antiflicker</parameterid>
														<name>Anti-flicker Filter</name>
														<valuemin>0.0</valuemin>
														<valuemax>1.0</valuemax>
														<value>0</value>
													</parameter>
												</effect>
											</filter>
											<filter>
												<effect>
													<name>Distort</name>
													<effectid>deformation</effectid>
													<effectcategory>motion</effectcategory>
													<effecttype>motion</effecttype>
													<mediatype>video</mediatype>
													<parameter authoringApp="PremierePro">
														<parameterid>aspect</parameterid>
														<name>Aspect</name>
														<valuemin>-10000</valuemin>
														<valuemax>10000</valuemax>
														<value>1.0101</value>
													</parameter>
												</effect>
											</filter>
											<logginginfo>
												<description></description>
												<scene></scene>
												<shottake></shottake>
												<lognote></lognote>
												<good></good>
												<originalvideofilename></originalvideofilename>
												<originalaudiofilename></originalaudiofilename>
											</logginginfo>
											<colorinfo>
												<lut></lut>
												<lut1></lut1>
												<asc_sop></asc_sop>
												<asc_sat></asc_sat>
												<lut2></lut2>
											</colorinfo>
											<labels>
												<label2>Violet</label2>
											</labels>
										</clipitem>
										<clipitem id="clipitem-795">
											<masterclipid>masterclip-381</masterclipid>
											<name>Plashka_Right_DV.mov</name>
											<enabled>TRUE</enabled>
											<duration>375</duration>
											<rate>
												<timebase>25</timebase>
												<ntsc>FALSE</ntsc>
											</rate>
											<start>375</start>
											<end>750</end>
											<in>0</in>
											<out>375</out>
											<pproTicksIn>0</pproTicksIn>
											<pproTicksOut>3810240000000</pproTicksOut>
											<alphatype>straight</alphatype>
											<file id="file-326"/>
											<filter>
												<effect>
													<name>Basic Motion</name>
													<effectid>basic</effectid>
													<effectcategory>motion</effectcategory>
													<effecttype>motion</effecttype>
													<mediatype>video</mediatype>
													<pproBypass>false</pproBypass>
													<parameter authoringApp="PremierePro">
														<parameterid>scale</parameterid>
														<name>Scale</name>
														<valuemin>0</valuemin>
														<valuemax>1000</valuemax>
														<value>100</value>
													</parameter>
													<parameter authoringApp="PremierePro">
														<parameterid>rotation</parameterid>
														<name>Rotation</name>
														<valuemin>-8640</valuemin>
														<valuemax>8640</valuemax>
														<value>0</value>
													</parameter>
													<parameter authoringApp="PremierePro">
														<parameterid>center</parameterid>
														<name>Center</name>
														<value>
															<horiz>-5.55112e-17</horiz>
															<vert>-1.11022e-16</vert>
														</value>
													</parameter>
													<parameter authoringApp="PremierePro">
														<parameterid>centerOffset</parameterid>
														<name>Anchor Point</name>
														<value>
															<horiz>0.402314</horiz>
															<vert>0.41875</vert>
														</value>
													</parameter>
													<parameter authoringApp="PremierePro">
														<parameterid>antiflicker</parameterid>
														<name>Anti-flicker Filter</name>
														<valuemin>0.0</valuemin>
														<valuemax>1.0</valuemax>
														<value>0</value>
													</parameter>
												</effect>
											</filter>
											<filter>
												<effect>
													<name>Distort</name>
													<effectid>deformation</effectid>
													<effectcategory>motion</effectcategory>
													<effecttype>motion</effecttype>
													<mediatype>video</mediatype>
													<parameter authoringApp="PremierePro">
														<parameterid>aspect</parameterid>
														<name>Aspect</name>
														<valuemin>-10000</valuemin>
														<valuemax>10000</valuemax>
														<value>36.9863</value>
													</parameter>
												</effect>
											</filter>
											<logginginfo>
												<description></description>
												<scene></scene>
												<shottake></shottake>
												<lognote></lognote>
												<good></good>
												<originalvideofilename></originalvideofilename>
												<originalaudiofilename></originalaudiofilename>
											</logginginfo>
											<colorinfo>
												<lut></lut>
												<lut1></lut1>
												<asc_sop></asc_sop>
												<asc_sat></asc_sat>
												<lut2></lut2>
											</colorinfo>
											<labels>
												<label2>Violet</label2>
											</labels>
										</clipitem>
										<clipitem id="clipitem-796">
											<masterclipid>masterclip-381</masterclipid>
											<name>Plashka_Right_DV.mov</name>
											<enabled>TRUE</enabled>
											<duration>375</duration>
											<rate>
												<timebase>25</timebase>
												<ntsc>FALSE</ntsc>
											</rate>
											<start>750</start>
											<end>1125</end>
											<in>0</in>
											<out>375</out>
											<pproTicksIn>0</pproTicksIn>
											<pproTicksOut>3810240000000</pproTicksOut>
											<alphatype>straight</alphatype>
											<file id="file-326"/>
											<filter>
												<effect>
													<name>Basic Motion</name>
													<effectid>basic</effectid>
													<effectcategory>motion</effectcategory>
													<effecttype>motion</effecttype>
													<mediatype>video</mediatype>
													<pproBypass>false</pproBypass>
													<parameter authoringApp="PremierePro">
														<parameterid>scale</parameterid>
														<name>Scale</name>
														<valuemin>0</valuemin>
														<valuemax>1000</valuemax>
														<value>100</value>
													</parameter>
													<parameter authoringApp="PremierePro">
														<parameterid>rotation</parameterid>
														<name>Rotation</name>
														<valuemin>-8640</valuemin>
														<valuemax>8640</valuemax>
														<value>0</value>
													</parameter>
													<parameter authoringApp="PremierePro">
														<parameterid>center</parameterid>
														<name>Center</name>
														<value>
															<horiz>-5.55112e-17</horiz>
															<vert>-1.11022e-16</vert>
														</value>
													</parameter>
													<parameter authoringApp="PremierePro">
														<parameterid>centerOffset</parameterid>
														<name>Anchor Point</name>
														<value>
															<horiz>0.402314</horiz>
															<vert>0.41875</vert>
														</value>
													</parameter>
													<parameter authoringApp="PremierePro">
														<parameterid>antiflicker</parameterid>
														<name>Anti-flicker Filter</name>
														<valuemin>0.0</valuemin>
														<valuemax>1.0</valuemax>
														<value>0</value>
													</parameter>
												</effect>
											</filter>
											<filter>
												<effect>
													<name>Distort</name>
													<effectid>deformation</effectid>
													<effectcategory>motion</effectcategory>
													<effecttype>motion</effecttype>
													<mediatype>video</mediatype>
													<parameter authoringApp="PremierePro">
														<parameterid>aspect</parameterid>
														<name>Aspect</name>
														<valuemin>-10000</valuemin>
														<valuemax>10000</valuemax>
														<value>40.8451</value>
													</parameter>
												</effect>
											</filter>
											<logginginfo>
												<description></description>
												<scene></scene>
												<shottake></shottake>
												<lognote></lognote>
												<good></good>
												<originalvideofilename></originalvideofilename>
												<originalaudiofilename></originalaudiofilename>
											</logginginfo>
											<colorinfo>
												<lut></lut>
												<lut1></lut1>
												<asc_sop></asc_sop>
												<asc_sat></asc_sat>
												<lut2></lut2>
											</colorinfo>
											<labels>
												<label2>Violet</label2>
											</labels>
										</clipitem>
										<enabled>TRUE</enabled>
										<locked>FALSE</locked>
									</track>
									<track TL.SQTrackShy="0" TL.SQTrackExpandedHeight="25" TL.SQTrackExpanded="0" MZ.TrackTargeted="0">
										<transitionitem>
											<start>6</start>
											<end>35</end>
											<alignment>start-black</alignment>
											<cutPointTicks>0</cutPointTicks>
											<rate>
												<timebase>25</timebase>
												<ntsc>FALSE</ntsc>
											</rate>
											<effect>
												<name>Edge Wipe</name>
												<effectid>Edge Wipe</effectid>
												<effectcategory>Wipe</effectcategory>
												<effecttype>transition</effecttype>
												<mediatype>video</mediatype>
												<wipecode>2</wipecode>
												<wipeaccuracy>100</wipeaccuracy>
												<startratio>0</startratio>
												<endratio>1</endratio>
												<reverse>FALSE</reverse>
												<parameter authoringApp="PremierePro">
													<parameterid>directionofwipe</parameterid>
													<name>Angle</name>
													<valuemin>-360</valuemin>
													<valuemax>360</valuemax>
													<value>270</value>
												</parameter>
											</effect>
										</transitionitem>
										<clipitem id="clipitem-797">
											<masterclipid>masterclip-382</masterclipid>
											<name>7_1.png</name>
											<enabled>TRUE</enabled>
											<duration>1080000</duration>
											<rate>
												<timebase>25</timebase>
												<ntsc>FALSE</ntsc>
											</rate>
											<start>-1</start>
											<end>-1</end>
											<in>90006</in>
											<out>90369</out>
											<pproTicksIn>914518563840000</pproTicksIn>
											<pproTicksOut>918206876160000</pproTicksOut>
											<alphatype>straight</alphatype>
											<pixelaspectratio>square</pixelaspectratio>
											<anamorphic>FALSE</anamorphic>
											<file id="file-327">
												<name>7_1.png</name>
												<pathurl>file://localhost/_MUZ_TV/project_AP/RU/_TITLE/END/PNG/7_1.png</pathurl>
												<rate>
													<timebase>30</timebase>
													<ntsc>TRUE</ntsc>
												</rate>
												<timecode>
													<rate>
														<timebase>30</timebase>
														<ntsc>TRUE</ntsc>
													</rate>
													<string>00;00;00;00</string>
													<frame>0</frame>
													<displayformat>DF</displayformat>
												</timecode>
												<media>
													<video>
														<samplecharacteristics>
															<rate>
																<timebase>30</timebase>
																<ntsc>TRUE</ntsc>
															</rate>
															<width>1920</width>
															<height>1080</height>
															<anamorphic>FALSE</anamorphic>
															<pixelaspectratio>square</pixelaspectratio>
															<fielddominance>none</fielddominance>
														</samplecharacteristics>
													</video>
												</media>
											</file>
											<filter>
												<effect>
													<name>Basic Motion</name>
													<effectid>basic</effectid>
													<effectcategory>motion</effectcategory>
													<effecttype>motion</effecttype>
													<mediatype>video</mediatype>
													<pproBypass>false</pproBypass>
													<parameter authoringApp="PremierePro">
														<parameterid>scale</parameterid>
														<name>Scale</name>
														<valuemin>0</valuemin>
														<valuemax>1000</valuemax>
														<value>53.3333</value>
													</parameter>
													<parameter authoringApp="PremierePro">
														<parameterid>rotation</parameterid>
														<name>Rotation</name>
														<valuemin>-8640</valuemin>
														<valuemax>8640</valuemax>
														<value>0</value>
													</parameter>
													<parameter authoringApp="PremierePro">
														<parameterid>center</parameterid>
														<name>Center</name>
														<value>
															<horiz>0</horiz>
															<vert>0</vert>
														</value>
													</parameter>
													<parameter authoringApp="PremierePro">
														<parameterid>centerOffset</parameterid>
														<name>Anchor Point</name>
														<value>
															<horiz>0</horiz>
															<vert>0</vert>
														</value>
													</parameter>
													<parameter authoringApp="PremierePro">
														<parameterid>antiflicker</parameterid>
														<name>Anti-flicker Filter</name>
														<valuemin>0.0</valuemin>
														<valuemax>1.0</valuemax>
														<value>0</value>
													</parameter>
												</effect>
											</filter>
											<logginginfo>
												<description></description>
												<scene></scene>
												<shottake></shottake>
												<lognote></lognote>
												<good></good>
												<originalvideofilename></originalvideofilename>
												<originalaudiofilename></originalaudiofilename>
											</logginginfo>
											<colorinfo>
												<lut></lut>
												<lut1></lut1>
												<asc_sop></asc_sop>
												<asc_sat></asc_sat>
												<lut2></lut2>
											</colorinfo>
											<labels>
												<label2>Lavender</label2>
											</labels>
										</clipitem>
										<transitionitem>
											<start>344</start>
											<end>369</end>
											<alignment>end-black</alignment>
											<cutPointTicks>254016000000</cutPointTicks>
											<rate>
												<timebase>25</timebase>
												<ntsc>FALSE</ntsc>
											</rate>
											<effect>
												<name>Edge Wipe</name>
												<effectid>Edge Wipe</effectid>
												<effectcategory>Wipe</effectcategory>
												<effecttype>transition</effecttype>
												<mediatype>video</mediatype>
												<wipecode>2</wipecode>
												<wipeaccuracy>100</wipeaccuracy>
												<startratio>0</startratio>
												<endratio>1</endratio>
												<reverse>FALSE</reverse>
												<parameter authoringApp="PremierePro">
													<parameterid>directionofwipe</parameterid>
													<name>Angle</name>
													<valuemin>-360</valuemin>
													<valuemax>360</valuemax>
													<value>90</value>
												</parameter>
											</effect>
										</transitionitem>
										<transitionitem>
											<start>381</start>
											<end>410</end>
											<alignment>start-black</alignment>
											<cutPointTicks>0</cutPointTicks>
											<rate>
												<timebase>25</timebase>
												<ntsc>FALSE</ntsc>
											</rate>
											<effect>
												<name>Edge Wipe</name>
												<effectid>Edge Wipe</effectid>
												<effectcategory>Wipe</effectcategory>
												<effecttype>transition</effecttype>
												<mediatype>video</mediatype>
												<wipecode>2</wipecode>
												<wipeaccuracy>100</wipeaccuracy>
												<startratio>0</startratio>
												<endratio>1</endratio>
												<reverse>FALSE</reverse>
												<parameter authoringApp="PremierePro">
													<parameterid>directionofwipe</parameterid>
													<name>Angle</name>
													<valuemin>-360</valuemin>
													<valuemax>360</valuemax>
													<value>270</value>
												</parameter>
											</effect>
										</transitionitem>
										<clipitem id="clipitem-798">
											<masterclipid>masterclip-383</masterclipid>
											<name>7_2.png</name>
											<enabled>TRUE</enabled>
											<duration>1080000</duration>
											<rate>
												<timebase>25</timebase>
												<ntsc>FALSE</ntsc>
											</rate>
											<start>-1</start>
											<end>-1</end>
											<in>90011</in>
											<out>90374</out>
											<pproTicksIn>914569367040000</pproTicksIn>
											<pproTicksOut>918257679360000</pproTicksOut>
											<alphatype>straight</alphatype>
											<pixelaspectratio>square</pixelaspectratio>
											<anamorphic>FALSE</anamorphic>
											<file id="file-328">
												<name>7_2.png</name>
												<pathurl>file://localhost/_MUZ_TV/project_AP/RU/_TITLE/END/PNG/7_2.png</pathurl>
												<rate>
													<timebase>30</timebase>
													<ntsc>TRUE</ntsc>
												</rate>
												<timecode>
													<rate>
														<timebase>30</timebase>
														<ntsc>TRUE</ntsc>
													</rate>
													<string>00;00;00;00</string>
													<frame>0</frame>
													<displayformat>DF</displayformat>
												</timecode>
												<media>
													<video>
														<samplecharacteristics>
															<rate>
																<timebase>30</timebase>
																<ntsc>TRUE</ntsc>
															</rate>
															<width>1920</width>
															<height>1080</height>
															<anamorphic>FALSE</anamorphic>
															<pixelaspectratio>square</pixelaspectratio>
															<fielddominance>none</fielddominance>
														</samplecharacteristics>
													</video>
												</media>
											</file>
											<filter>
												<effect>
													<name>Basic Motion</name>
													<effectid>basic</effectid>
													<effectcategory>motion</effectcategory>
													<effecttype>motion</effecttype>
													<mediatype>video</mediatype>
													<pproBypass>false</pproBypass>
													<parameter authoringApp="PremierePro">
														<parameterid>scale</parameterid>
														<name>Scale</name>
														<valuemin>0</valuemin>
														<valuemax>1000</valuemax>
														<value>53.3333</value>
													</parameter>
													<parameter authoringApp="PremierePro">
														<parameterid>rotation</parameterid>
														<name>Rotation</name>
														<valuemin>-8640</valuemin>
														<valuemax>8640</valuemax>
														<value>0</value>
													</parameter>
													<parameter authoringApp="PremierePro">
														<parameterid>center</parameterid>
														<name>Center</name>
														<value>
															<horiz>0</horiz>
															<vert>0</vert>
														</value>
													</parameter>
													<parameter authoringApp="PremierePro">
														<parameterid>centerOffset</parameterid>
														<name>Anchor Point</name>
														<value>
															<horiz>0</horiz>
															<vert>0</vert>
														</value>
													</parameter>
													<parameter authoringApp="PremierePro">
														<parameterid>antiflicker</parameterid>
														<name>Anti-flicker Filter</name>
														<valuemin>0.0</valuemin>
														<valuemax>1.0</valuemax>
														<value>0</value>
													</parameter>
												</effect>
											</filter>
											<logginginfo>
												<description></description>
												<scene></scene>
												<shottake></shottake>
												<lognote></lognote>
												<good></good>
												<originalvideofilename></originalvideofilename>
												<originalaudiofilename></originalaudiofilename>
											</logginginfo>
											<colorinfo>
												<lut></lut>
												<lut1></lut1>
												<asc_sop></asc_sop>
												<asc_sat></asc_sat>
												<lut2></lut2>
											</colorinfo>
											<labels>
												<label2>Lavender</label2>
											</labels>
										</clipitem>
										<transitionitem>
											<start>719</start>
											<end>744</end>
											<alignment>end-black</alignment>
											<cutPointTicks>254016000000</cutPointTicks>
											<rate>
												<timebase>25</timebase>
												<ntsc>FALSE</ntsc>
											</rate>
											<effect>
												<name>Edge Wipe</name>
												<effectid>Edge Wipe</effectid>
												<effectcategory>Wipe</effectcategory>
												<effecttype>transition</effecttype>
												<mediatype>video</mediatype>
												<wipecode>2</wipecode>
												<wipeaccuracy>100</wipeaccuracy>
												<startratio>0</startratio>
												<endratio>1</endratio>
												<reverse>FALSE</reverse>
												<parameter authoringApp="PremierePro">
													<parameterid>directionofwipe</parameterid>
													<name>Angle</name>
													<valuemin>-360</valuemin>
													<valuemax>360</valuemax>
													<value>90</value>
												</parameter>
											</effect>
										</transitionitem>
										<transitionitem>
											<start>756</start>
											<end>785</end>
											<alignment>start-black</alignment>
											<cutPointTicks>0</cutPointTicks>
											<rate>
												<timebase>25</timebase>
												<ntsc>FALSE</ntsc>
											</rate>
											<effect>
												<name>Edge Wipe</name>
												<effectid>Edge Wipe</effectid>
												<effectcategory>Wipe</effectcategory>
												<effecttype>transition</effecttype>
												<mediatype>video</mediatype>
												<wipecode>2</wipecode>
												<wipeaccuracy>100</wipeaccuracy>
												<startratio>0</startratio>
												<endratio>1</endratio>
												<reverse>FALSE</reverse>
												<parameter authoringApp="PremierePro">
													<parameterid>directionofwipe</parameterid>
													<name>Angle</name>
													<valuemin>-360</valuemin>
													<valuemax>360</valuemax>
													<value>270</value>
												</parameter>
											</effect>
										</transitionitem>
										<clipitem id="clipitem-799">
											<masterclipid>masterclip-384</masterclipid>
											<name>7_3.png</name>
											<enabled>TRUE</enabled>
											<duration>1080000</duration>
											<rate>
												<timebase>25</timebase>
												<ntsc>FALSE</ntsc>
											</rate>
											<start>-1</start>
											<end>-1</end>
											<in>90011</in>
											<out>90375</out>
											<pproTicksIn>914569367040000</pproTicksIn>
											<pproTicksOut>918267840000000</pproTicksOut>
											<alphatype>straight</alphatype>
											<pixelaspectratio>square</pixelaspectratio>
											<anamorphic>FALSE</anamorphic>
											<file id="file-329">
												<name>7_3.png</name>
												<pathurl>file://localhost/_MUZ_TV/project_AP/RU/_TITLE/END/PNG/7_3.png</pathurl>
												<rate>
													<timebase>30</timebase>
													<ntsc>TRUE</ntsc>
												</rate>
												<timecode>
													<rate>
														<timebase>30</timebase>
														<ntsc>TRUE</ntsc>
													</rate>
													<string>00;00;00;00</string>
													<frame>0</frame>
													<displayformat>DF</displayformat>
												</timecode>
												<media>
													<video>
														<samplecharacteristics>
															<rate>
																<timebase>30</timebase>
																<ntsc>TRUE</ntsc>
															</rate>
															<width>1920</width>
															<height>1080</height>
															<anamorphic>FALSE</anamorphic>
															<pixelaspectratio>square</pixelaspectratio>
															<fielddominance>none</fielddominance>
														</samplecharacteristics>
													</video>
												</media>
											</file>
											<filter>
												<effect>
													<name>Basic Motion</name>
													<effectid>basic</effectid>
													<effectcategory>motion</effectcategory>
													<effecttype>motion</effecttype>
													<mediatype>video</mediatype>
													<pproBypass>false</pproBypass>
													<parameter authoringApp="PremierePro">
														<parameterid>scale</parameterid>
														<name>Scale</name>
														<valuemin>0</valuemin>
														<valuemax>1000</valuemax>
														<value>53.3333</value>
													</parameter>
													<parameter authoringApp="PremierePro">
														<parameterid>rotation</parameterid>
														<name>Rotation</name>
														<valuemin>-8640</valuemin>
														<valuemax>8640</valuemax>
														<value>0</value>
													</parameter>
													<parameter authoringApp="PremierePro">
														<parameterid>center</parameterid>
														<name>Center</name>
														<value>
															<horiz>0</horiz>
															<vert>0</vert>
														</value>
													</parameter>
													<parameter authoringApp="PremierePro">
														<parameterid>centerOffset</parameterid>
														<name>Anchor Point</name>
														<value>
															<horiz>0</horiz>
															<vert>0</vert>
														</value>
													</parameter>
													<parameter authoringApp="PremierePro">
														<parameterid>antiflicker</parameterid>
														<name>Anti-flicker Filter</name>
														<valuemin>0.0</valuemin>
														<valuemax>1.0</valuemax>
														<value>0</value>
													</parameter>
												</effect>
											</filter>
											<logginginfo>
												<description></description>
												<scene></scene>
												<shottake></shottake>
												<lognote></lognote>
												<good></good>
												<originalvideofilename></originalvideofilename>
												<originalaudiofilename></originalaudiofilename>
											</logginginfo>
											<colorinfo>
												<lut></lut>
												<lut1></lut1>
												<asc_sop></asc_sop>
												<asc_sat></asc_sat>
												<lut2></lut2>
											</colorinfo>
											<labels>
												<label2>Lavender</label2>
											</labels>
										</clipitem>
										<transitionitem>
											<start>1095</start>
											<end>1120</end>
											<alignment>end-black</alignment>
											<cutPointTicks>254016000000</cutPointTicks>
											<rate>
												<timebase>25</timebase>
												<ntsc>FALSE</ntsc>
											</rate>
											<effect>
												<name>Edge Wipe</name>
												<effectid>Edge Wipe</effectid>
												<effectcategory>Wipe</effectcategory>
												<effecttype>transition</effecttype>
												<mediatype>video</mediatype>
												<wipecode>2</wipecode>
												<wipeaccuracy>100</wipeaccuracy>
												<startratio>0</startratio>
												<endratio>1</endratio>
												<reverse>FALSE</reverse>
												<parameter authoringApp="PremierePro">
													<parameterid>directionofwipe</parameterid>
													<name>Angle</name>
													<valuemin>-360</valuemin>
													<valuemax>360</valuemax>
													<value>90</value>
												</parameter>
											</effect>
										</transitionitem>
										<enabled>TRUE</enabled>
										<locked>FALSE</locked>
									</track>
									<track TL.SQTrackShy="0" TL.SQTrackExpandedHeight="25" TL.SQTrackExpanded="0" MZ.TrackTargeted="0">
										<transitionitem>
											<start>755</start>
											<end>780</end>
											<alignment>start-black</alignment>
											<cutPointTicks>0</cutPointTicks>
											<rate>
												<timebase>25</timebase>
												<ntsc>FALSE</ntsc>
											</rate>
											<effect>
												<name>Edge Wipe</name>
												<effectid>Edge Wipe</effectid>
												<effectcategory>Wipe</effectcategory>
												<effecttype>transition</effecttype>
												<mediatype>video</mediatype>
												<wipecode>2</wipecode>
												<wipeaccuracy>100</wipeaccuracy>
												<startratio>0</startratio>
												<endratio>1</endratio>
												<reverse>FALSE</reverse>
												<parameter authoringApp="PremierePro">
													<parameterid>directionofwipe</parameterid>
													<name>Angle</name>
													<valuemin>-360</valuemin>
													<valuemax>360</valuemax>
													<value>270</value>
												</parameter>
											</effect>
										</transitionitem>
										<clipitem id="clipitem-800">
											<masterclipid>masterclip-385</masterclipid>
											<name>Graphic</name>
											<enabled>FALSE</enabled>
											<duration>1080000</duration>
											<rate>
												<timebase>25</timebase>
												<ntsc>FALSE</ntsc>
											</rate>
											<start>-1</start>
											<end>-1</end>
											<in>89905</in>
											<out>90272</out>
											<pproTicksIn>913492339200000</pproTicksIn>
											<pproTicksOut>917221294080000</pproTicksOut>
											<alphatype>straight</alphatype>
											<pixelaspectratio>PAL-601</pixelaspectratio>
											<anamorphic>TRUE</anamorphic>
											<file id="file-330">
												<name>Graphic</name>
												<mediaSource>GraphicAndType</mediaSource>
												<rate>
													<timebase>30</timebase>
													<ntsc>TRUE</ntsc>
												</rate>
												<timecode>
													<rate>
														<timebase>30</timebase>
														<ntsc>TRUE</ntsc>
													</rate>
													<string>00;00;00;00</string>
													<frame>0</frame>
													<displayformat>DF</displayformat>
												</timecode>
												<media>
													<video>
														<samplecharacteristics>
															<rate>
																<timebase>30</timebase>
																<ntsc>TRUE</ntsc>
															</rate>
															<width>720</width>
															<height>576</height>
															<anamorphic>TRUE</anamorphic>
															<pixelaspectratio>PAL-601</pixelaspectratio>
															<fielddominance>none</fielddominance>
														</samplecharacteristics>
													</video>
												</media>
											</file>
											<filter>
												<effect>
													<name>Vector Motion</name>
													<effectid>GraphicGroup</effectid>
													<effectcategory>graphic</effectcategory>
													<effecttype>filter</effecttype>
													<mediatype>video</mediatype>
													<pproBypass>false</pproBypass>
													<parameter authoringApp="PremierePro">
														<parameterid>1</parameterid>
														<name>Position</name>
														<IsTimeVarying>false</IsTimeVarying>
														<value>-91445760000000000,0.81693898908787344:0.49085601568222115,0,0,0,0,0,0,5,4,0,0,0,0</value>
													</parameter>
													<parameter authoringApp="PremierePro">
														<parameterid>2</parameterid>
														<name>Scale</name>
														<IsTimeVarying>false</IsTimeVarying>
														<ParameterControlType>2</ParameterControlType>
														<LowerBound>0</LowerBound>
														<UpperBound>10000</UpperBound>
														<UpperUIBound>200</UpperUIBound>
														<value>-91445760000000000,100.,0,0,0,0,0,0</value>
													</parameter>
													<parameter authoringApp="PremierePro">
														<parameterid>3</parameterid>
														<name>Scale Width</name>
														<IsTimeVarying>false</IsTimeVarying>
														<ParameterControlType>2</ParameterControlType>
														<LowerBound>0</LowerBound>
														<UpperBound>10000</UpperBound>
														<UpperUIBound>200</UpperUIBound>
														<value>-91445760000000000,100.,0,0,0,0,0,0</value>
													</parameter>
													<parameter authoringApp="PremierePro">
														<parameterid>4</parameterid>
														<name> </name>
														<IsTimeVarying>false</IsTimeVarying>
														<ParameterControlType>4</ParameterControlType>
														<LowerBound>false</LowerBound>
														<UpperBound>true</UpperBound>
														<value>-91445760000000000,true,0,0,0,0,0,0</value>
													</parameter>
													<parameter authoringApp="PremierePro">
														<parameterid>5</parameterid>
														<name>Rotation</name>
														<IsTimeVarying>false</IsTimeVarying>
														<ParameterControlType>3</ParameterControlType>
														<LowerBound>-32768</LowerBound>
														<UpperBound>32767</UpperBound>
														<value>-91445760000000000,0.,0,0,0,0,0,0</value>
													</parameter>
													<parameter authoringApp="PremierePro">
														<parameterid>6</parameterid>
														<name>Anchor Point</name>
														<IsTimeVarying>false</IsTimeVarying>
														<value>-91445760000000000,0.5:0.5,0,0,0,0,0,0,5,4,0,0,0,0</value>
													</parameter>
												</effect>
											</filter>
											<filter>
												<effect>
													<name>Данил Прытков признаётся, &#13;что сильные провалы &#13;мотивируют его на творчество &#13;не меньше, чем победы. </name>
													<effectid>GraphicAndType</effectid>
													<effectcategory>graphic</effectcategory>
													<effecttype>filter</effecttype>
													<mediatype>video</mediatype>
													<pproBypass>false</pproBypass>
													<pproExpanded>true</pproExpanded>
													<parameter authoringApp="PremierePro">
														<parameterid>1</parameterid>
														<name>Source Text</name>
														<hash>698123b5-7d57-7b79-efb1-b0df00000a31</hash>
														<value>wAEAAAAAAABEMyIRFAAAAAAADgAUAAQAAAAMABAACwAOAAAASAAAAAAAAAEIAAAAEAAAAAAAAAAIABoABAAMAAgAAACLyt42dOPmQL2WjgkAAAyxAAAAAAAAEgAUAAgABAAAAAAAAAAQAAwAEgAAABwAAAA0AAAAAAAAwAEAAAB4////fP///4D///8BAAAABAAAAA8AAABNb250c2VycmF0LUJvbGQAAQAAAAwAAAAIAAwABAAIAAgAAABUAAAANAAAADAADAAAAAgAAAAAAAAAAAAAAAAAAAAAAAAAAAAAAAAAAAAAAAAAAAAAAAAAAAAEADAAAAAIAAAAAACIQfj////8////BAAEAAQAAAC2AAAA0JTQsNC90LjQuyDQn9GA0YvRgtC60L7QsiDQv9GA0LjQt9C90LDRkdGC0YHRjywgDdGH0YLQviDRgdC40LvRjNC90YvQtSDQv9GA0L7QstCw0LvRiyAN0LzQvtGC0LjQstC40YDRg9GO0YIg0LXQs9C+INC90LAg0YLQstC+0YDRh9C10YHRgtCy0L4gDdC90LUg0LzQtdC90YzRiNC1LCDRh9C10Lwg0L/QvtCx0LXQtNGLLiAAAAAAAAAAAAAAAAAAAAAAAAAAAAAAAAAAAAAAAAAAAAAAAAAAAAAAAAAAAAAAAAAAAAAAAAAAAAAAAAAAAAAAAAAAAAAAAAAAAAAAAAAAAAAAAAAAAAAAAAAAAAAAAAAAAAAAAAAAAAAAAAAAAAAAAAAAAAAAAAAAAAAAAAAAAAAAAAAAAAAAAAAAAAAAAAAAAAAAAAAAAAAAAAAAAAAAAAAAAAAAAAAAAAAAAAAAAAAAAAAAAAAAAAAAAAAAAAAAAAAAAAAAAAAAAAAAAAAAAAAAAAAAAAAAAAAAAAAAAAAAAAAAAAAAAAAAAAAAAAAAAAAAAAAAAAAAAAAAAAAAAAAAAAAAAAAAAAAAAAAAAAAAAAAAAAAAAAAAAAAAAAAAAAAAAAAAAAAAAAAAAAAAAAAAAAAAAAAAAAAAAAAAAAAAAAAAAAAAAAAAAAAAAAAAAAAAAAAAAAAAAAAAAAAAAAAAAAAAAAAAAAAAAAAAAAAAAAAAAAAAAAAAAAAAAAAAAAAAAAAAAAAAAAAAAAAAAAAAAAAAAAAAAAAAAAAAAAAAAAAAAAAAAAAAAAAAAAAAAAAAAAAAAAAAAAAAAAAAAAAAAAAAAAAAAAAAAAAAAAAAAAAAAAAAAAAAAAAAAAAAAAAAAAAAAAAAAAAAAAAAAAAAAAAAAAAAAAAAAAAAAAAAAAAAAAAAAAAAAAAAAAAAAAAAAAAAAAAAAAAAAAAAAAAAAAAAAAAAAAAAAAAAAAAAAAAAAAAAAAAAAAAAAAAAAAAAAAAAAAAAAAAAAAAAAAAAAAAAAAAAAAAAAAAAAAAAAAAAAAAAAAAAAAAAAAAAAAAAAAAAAAAAAAAAAAAAAAAAAAAAAAAAAAAAAAAAAAAAAAAAAAAAAAAAAAAAAAAAAAAAAAAAAAAAAAAAAAAAAAAAAAAAAAAAAAAAAAAAAAAAAAAAAAAAAAAAAAAAAAAAAAAAAAAAAAAAAAAAAAAAAAAAAAAAAAAAAAAAAAAAAAAAAAAAAAAAAAAAAAAAAAAAAAAAAAAAAAAAAAAAAAAAAAAAAAAAAAAAAAAAAAAAAAAAAAAAAAAAAAAAAAAAAAAAAAAAAAAAAAAAAAAAAAAAAAAAAAAAAAAAAAAAAAAAAAAAAAAAAAAAAAAAAAAAAAAAAAAAAAAAAAAAAAAAAAAAAAAAAAAAAAAAAAAAAAAAAAAAAAAAAAAAAAAAAAAAAAAAAAAAAAAAAAAAAAAAAAAAAAAAAAAAAAAAAAAAAAAAAAAAAAAAAAAAAAAAAAAAAAAAAAAAAAAAAAAAAAAAAAAAAAAAAAAAAAAAAAAAAAAAAAAAAAAAAAAAAAAAAAAAAAAAAAAAAAAAAAAAAAAAAAAAAAAAAAAAAAAAAAAAAAAAAAAAAAAAAAAAAAAAAAAAAAAAAAAAAAAAAAAAAAAAAAAAAAAAAAAAAAAAAAAAAAAAAAAAAAAAAAAAAAAAAAAAAAAAAAAAAAAAAAAAAAAAAAAAAAAAAAAAAAAAAAAAAAAAAAAAAAAAAAAAAAAAAAAAAAAAAAAAAAAAAAAAAAAAAAAAAAAAAAAAAAAAAAAAAAAAAAAAAAAAAAAAAAAAAAAAAAAAAAAAAAAAAAAAAAAAAAAAAAAAAAAAAAAAAAAAAAAAAAAAAAAAAAAAAAAAAAAAAAAAAAAAAAAAAAAAAAAAAAAAAAAAAAAAAAAAAAAAAAAAAAAAAAAAAAAAAAAAAAAAAAAAAAAAAAAAAAAAAAAAAAAAAAAAAAAAAAAAAAAAAAAAAAAAAAAAAAAAAAAAAAAAAAAAAAAAAAAAAAAAAAAAAAAAAAAAAAAAAAAAAAAAAAAAAAAAAAAAAAAAAAAAAAAAAAAAAAAAAAAAAAAAAAAAAAAAAAAAAAAAAAAAAAAAAAAAAAAAAAAAAAAAAAAAAAAAAAAAAAAAAAAAAAAAAAAAAAAAAAAAAAAAAAAAAAAAAAAAAAAAAAAAAAAAAAAAAAAAAAAAAAAAAAAAAAAAAAAAAAAAAAAAAAAAAAAAAAAAAAAAAAAAAAAAAAAAAAAAAAAAAAAAAAAAAAAAAAAAAAAAAAAAAAAAAAAAAAAAAAAAAAAAAAAAAAAAAAAAAAAAAAAAAAAAAAAAAAAAAAAAAAAAAAAAAAAAAAAAAAAAAAAAAAAAAAAAAAAAAAAAAAAAAAAAAAAAAAAAAAAAAAAAAAAAAAAAAAAAAAAAAAAAAAAAAAAAAAAAAAAAAAAAAAAAAAAAAAAAAAAAAAAAAAAAAAAAAAAAAAAAAAAAAAAAAAAAAAAAAAAAAAAAAAAAAAAAAAAAAAAAAAAAAAAAAAAAAAAAAAAAAAAAAAAAAAAAAAAAAAAAAAAAAAAAAAAAAAAAAAAAAAAAAAAAAAAAAAAAAAAAAAAAAAAAAAAAAAAAAAAAAAAAAAAAAAAAAAAAAAAAAAAAAAAAAAAAAAAAAAAAAAAAAAAAAAAAAAAAAAAAAAAAAAAAAAAAAAAAAAAAAAAAAAAAAAAAAAAAAAAAAAAAAAAAAAAAAAAAAAAAAAAAAAAAAAAAAAAAAAAAAAAAAAAAAAAAAAAAAAAAAAAAAAAAAAAAAAAAAAAAAAAAAAAAAAAAAAAAAAAAAAAAAAAAAAAAAAAAAAAAAAAAAAAAAAAAAAAAAAAAAAAAAAAAAAAAAAAAAAAAAAAAAAAAAAAAAAAAAAAAAAAAAAAAAAAAAAAAAAAAAAAAAAAAAAAAAAAAAAAAAAAAAAAAAAAAAAAAAAAAAAAAAAAAAAAAAAAAAAAAAAAAAAAAAAAAAAAAAAAAAAAAAAAAAAAAAAAAAAAAAAAAAAAAAAAAAAAAAAAAAAAAAAAAAAAAAAAAAAAAAAAAAAA=</value>
													</parameter>
													<parameter authoringApp="PremierePro">
														<parameterid>2</parameterid>
														<name>Transform</name>
														<IsTimeVarying>false</IsTimeVarying>
														<ParameterControlType>11</ParameterControlType>
														<LowerBound>false</LowerBound>
														<UpperBound>false</UpperBound>
														<value>-91445760000000000,false,0,0,0,0,0,0</value>
													</parameter>
													<parameter authoringApp="PremierePro">
														<parameterid>3</parameterid>
														<name>Position</name>
														<IsTimeVarying>false</IsTimeVarying>
														<value>-91445760000000000,0.270416259765625:0.640594482421875,0,0,0,0,0,0,5,4,0,0,0,0</value>
													</parameter>
													<parameter authoringApp="PremierePro">
														<parameterid>4</parameterid>
														<name>Scale</name>
														<IsTimeVarying>false</IsTimeVarying>
														<ParameterControlType>2</ParameterControlType>
														<LowerBound>0</LowerBound>
														<UpperBound>4000</UpperBound>
														<value>-91445760000000000,100.,0,0,0,0,0,0</value>
													</parameter>
													<parameter authoringApp="PremierePro">
														<parameterid>5</parameterid>
														<name>Horizontal Scale</name>
														<IsTimeVarying>false</IsTimeVarying>
														<ParameterControlType>2</ParameterControlType>
														<LowerBound>0</LowerBound>
														<UpperBound>4000</UpperBound>
														<value>-91445760000000000,100.,0,0,0,0,0,0</value>
													</parameter>
													<parameter authoringApp="PremierePro">
														<parameterid>6</parameterid>
														<name> </name>
														<IsTimeVarying>false</IsTimeVarying>
														<ParameterControlType>4</ParameterControlType>
														<LowerBound>false</LowerBound>
														<UpperBound>true</UpperBound>
														<value>-91445760000000000,true,0,0,0,0,0,0</value>
													</parameter>
													<parameter authoringApp="PremierePro">
														<parameterid>7</parameterid>
														<name>Rotation</name>
														<IsTimeVarying>false</IsTimeVarying>
														<ParameterControlType>3</ParameterControlType>
														<LowerBound>-32768</LowerBound>
														<UpperBound>32767</UpperBound>
														<value>-91445760000000000,0.,0,0,0,0,0,0</value>
													</parameter>
													<parameter authoringApp="PremierePro">
														<parameterid>8</parameterid>
														<name>Opacity</name>
														<IsTimeVarying>false</IsTimeVarying>
														<ParameterControlType>2</ParameterControlType>
														<LowerBound>0</LowerBound>
														<UpperBound>100</UpperBound>
														<value>-91445760000000000,100.,0,0,0,0,0,0</value>
													</parameter>
													<parameter authoringApp="PremierePro">
														<parameterid>9</parameterid>
														<name>Anchor Point</name>
														<IsTimeVarying>false</IsTimeVarying>
														<value>-91445760000000000,0:0,0,0,0,0,0,0,5,4,0,0,0,0</value>
													</parameter>
													<parameter authoringApp="PremierePro">
														<parameterid>10</parameterid>
														<name></name>
														<IsTimeVarying>false</IsTimeVarying>
														<ParameterControlType>12</ParameterControlType>
														<LowerBound>false</LowerBound>
														<UpperBound>false</UpperBound>
														<value>-91445760000000000,false,0,0,0,0,0,0</value>
													</parameter>
													<parameter authoringApp="PremierePro">
														<parameterid>11</parameterid>
														<name> </name>
														<IsTimeVarying>false</IsTimeVarying>
														<ParameterControlType>8</ParameterControlType>
														<LowerBound>0</LowerBound>
														<UpperBound>32768</UpperBound>
														<value>-91445760000000000,0.,0,0,0,0,0,0</value>
													</parameter>
													<parameter authoringApp="PremierePro">
														<parameterid>12</parameterid>
														<name> </name>
														<IsTimeVarying>false</IsTimeVarying>
														<ParameterControlType>8</ParameterControlType>
														<LowerBound>0</LowerBound>
														<UpperBound>32768</UpperBound>
														<value>-91445760000000000,0.,0,0,0,0,0,0</value>
													</parameter>
													<parameter authoringApp="PremierePro">
														<parameterid>13</parameterid>
														<name>start</name>
														<IsTimeVarying>false</IsTimeVarying>
														<ParameterControlType>8</ParameterControlType>
														<LowerBound>-100</LowerBound>
														<UpperBound>1000000000</UpperBound>
														<value>-91445760000000000,0.,0,0,0,0,0,0</value>
													</parameter>
													<parameter authoringApp="PremierePro">
														<parameterid>14</parameterid>
														<name>end</name>
														<IsTimeVarying>false</IsTimeVarying>
														<ParameterControlType>8</ParameterControlType>
														<LowerBound>-100</LowerBound>
														<UpperBound>1000000000</UpperBound>
														<value>-91445760000000000,101.,0,0,0,0,0,0</value>
													</parameter>
													<parameter authoringApp="PremierePro">
														<parameterid>15</parameterid>
														<name> </name>
														<IsTimeVarying>false</IsTimeVarying>
														<ParameterControlType>4</ParameterControlType>
														<LowerBound>false</LowerBound>
														<UpperBound>true</UpperBound>
														<value>-91445760000000000,false,0,0,0,0,0,0</value>
													</parameter>
													<parameter authoringApp="PremierePro">
														<parameterid>16</parameterid>
														<name> </name>
														<IsTimeVarying>false</IsTimeVarying>
														<ParameterControlType>4</ParameterControlType>
														<LowerBound>false</LowerBound>
														<UpperBound>true</UpperBound>
														<value>-91445760000000000,false,0,0,0,0,0,0</value>
													</parameter>
													<parameter authoringApp="PremierePro">
														<parameterid>17</parameterid>
														<name> </name>
														<IsTimeVarying>false</IsTimeVarying>
														<ParameterControlType>4</ParameterControlType>
														<LowerBound>false</LowerBound>
														<UpperBound>true</UpperBound>
														<value>-91445760000000000,false,0,0,0,0,0,0</value>
													</parameter>
													<parameter authoringApp="PremierePro">
														<parameterid>18</parameterid>
														<name> </name>
														<IsTimeVarying>false</IsTimeVarying>
														<ParameterControlType>4</ParameterControlType>
														<LowerBound>false</LowerBound>
														<UpperBound>true</UpperBound>
														<value>-91445760000000000,false,0,0,0,0,0,0</value>
													</parameter>
													<parameter authoringApp="PremierePro">
														<parameterid>19</parameterid>
														<name>Parent Width</name>
														<IsTimeVarying>false</IsTimeVarying>
														<ParameterControlType>2</ParameterControlType>
														<LowerBound>0</LowerBound>
														<UpperBound>20000</UpperBound>
														<value>-91445760000000000,0.,0,0,0,0,0,0</value>
													</parameter>
													<parameter authoringApp="PremierePro">
														<parameterid>20</parameterid>
														<name>Parent Height</name>
														<IsTimeVarying>false</IsTimeVarying>
														<ParameterControlType>2</ParameterControlType>
														<LowerBound>0</LowerBound>
														<UpperBound>20000</UpperBound>
														<value>-91445760000000000,0.,0,0,0,0,0,0</value>
													</parameter>
													<parameter authoringApp="PremierePro">
														<parameterid>21</parameterid>
														<name>Parent Rotation</name>
														<IsTimeVarying>false</IsTimeVarying>
														<ParameterControlType>3</ParameterControlType>
														<LowerBound>-32768</LowerBound>
														<UpperBound>32767</UpperBound>
														<value>-91445760000000000,0.,0,0,0,0,0,0</value>
													</parameter>
												</effect>
											</filter>
											<logginginfo>
												<description></description>
												<scene></scene>
												<shottake></shottake>
												<lognote></lognote>
												<good></good>
												<originalvideofilename></originalvideofilename>
												<originalaudiofilename></originalaudiofilename>
											</logginginfo>
											<colorinfo>
												<lut></lut>
												<lut1></lut1>
												<asc_sop></asc_sop>
												<asc_sat></asc_sat>
												<lut2></lut2>
											</colorinfo>
										</clipitem>
										<transitionitem>
											<start>1097</start>
											<end>1122</end>
											<alignment>end-black</alignment>
											<cutPointTicks>254016000000</cutPointTicks>
											<rate>
												<timebase>25</timebase>
												<ntsc>FALSE</ntsc>
											</rate>
											<effect>
												<name>Edge Wipe</name>
												<effectid>Edge Wipe</effectid>
												<effectcategory>Wipe</effectcategory>
												<effecttype>transition</effecttype>
												<mediatype>video</mediatype>
												<wipecode>2</wipecode>
												<wipeaccuracy>100</wipeaccuracy>
												<startratio>0</startratio>
												<endratio>1</endratio>
												<reverse>FALSE</reverse>
												<parameter authoringApp="PremierePro">
													<parameterid>directionofwipe</parameterid>
													<name>Angle</name>
													<valuemin>-360</valuemin>
													<valuemax>360</valuemax>
													<value>90</value>
												</parameter>
											</effect>
										</transitionitem>
										<enabled>TRUE</enabled>
										<locked>FALSE</locked>
									</track>
								</video>
								<audio>
									<numOutputChannels>2</numOutputChannels>
									<format>
										<samplecharacteristics>
											<depth>16</depth>
											<samplerate>48000</samplerate>
										</samplecharacteristics>
									</format>
									<outputs>
										<group>
											<index>1</index>
											<numchannels>1</numchannels>
											<downmix>0</downmix>
											<channel>
												<index>1</index>
											</channel>
										</group>
										<group>
											<index>2</index>
											<numchannels>1</numchannels>
											<downmix>0</downmix>
											<channel>
												<index>2</index>
											</channel>
										</group>
									</outputs>
									<track TL.SQTrackAudioKeyframeStyle="0" TL.SQTrackShy="0" TL.SQTrackExpandedHeight="25" TL.SQTrackExpanded="0" MZ.TrackTargeted="1" PannerCurrentValue="0.5" PannerStartKeyframe="-91445760000000000,0.5,0,0,0,0,0,0" PannerName="Balance" currentExplodedTrackIndex="0" totalExplodedTrackCount="2" premiereTrackType="Stereo">
										<enabled>TRUE</enabled>
										<locked>FALSE</locked>
										<outputchannelindex>1</outputchannelindex>
									</track>
									<track TL.SQTrackAudioKeyframeStyle="0" TL.SQTrackShy="0" TL.SQTrackExpandedHeight="25" TL.SQTrackExpanded="0" MZ.TrackTargeted="1" PannerCurrentValue="0.5" PannerStartKeyframe="-91445760000000000,0.5,0,0,0,0,0,0" PannerName="Balance" currentExplodedTrackIndex="1" totalExplodedTrackCount="2" premiereTrackType="Stereo">
										<enabled>TRUE</enabled>
										<locked>FALSE</locked>
										<outputchannelindex>2</outputchannelindex>
									</track>
								</audio>
							</media>
							<timecode>
								<rate>
									<timebase>25</timebase>
									<ntsc>FALSE</ntsc>
								</rate>
								<string>00:00:00:00</string>
								<frame>0</frame>
								<displayformat>NDF</displayformat>
							</timecode>
								<marker>
									<comment></comment>
									<name></name>
									<in>425</in>
									<out>-1</out>
									<pproColor>4292277273</pproColor>
								</marker>
								<marker>
									<comment></comment>
									<name></name>
									<in>50</in>
									<out>-1</out>
									<pproColor>4292277273</pproColor>
								</marker>
								<marker>
									<comment></comment>
									<name></name>
									<in>800</in>
									<out>-1</out>
									<pproColor>4292277273</pproColor>
								</marker>
							<logginginfo>
								<description></description>
								<scene></scene>
								<shottake></shottake>
								<lognote></lognote>
								<good></good>
								<originalvideofilename></originalvideofilename>
								<originalaudiofilename></originalaudiofilename>
							</logginginfo>
						</sequence>
							<marker>
								<comment></comment>
								<name></name>
								<in>425</in>
								<out>-1</out>
								<pproColor>4292277273</pproColor>
							</marker>
							<marker>
								<comment></comment>
								<name></name>
								<in>50</in>
								<out>-1</out>
								<pproColor>4292277273</pproColor>
							</marker>
							<marker>
								<comment></comment>
								<name></name>
								<in>800</in>
								<out>-1</out>
								<pproColor>4292277273</pproColor>
							</marker>
						<labels>
							<label2>Forest</label2>
						</labels>
					</clipitem>
					<clipitem id="clipitem-801">
						<masterclipid>masterclip-380</masterclipid>
						<name>7</name>
						<enabled>TRUE</enabled>
						<duration>1125</duration>
						<rate>
							<timebase>25</timebase>
							<ntsc>FALSE</ntsc>
						</rate>
						<start>34960</start>
						<end>35335</end>
						<in>375</in>
						<out>750</out>
						<pproTicksIn>3810240000000</pproTicksIn>
						<pproTicksOut>7620480000000</pproTicksOut>
						<sequence id="sequence-59"/>
							<marker>
								<comment></comment>
								<name></name>
								<in>425</in>
								<out>-1</out>
								<pproColor>4292277273</pproColor>
							</marker>
							<marker>
								<comment></comment>
								<name></name>
								<in>50</in>
								<out>-1</out>
								<pproColor>4292277273</pproColor>
							</marker>
							<marker>
								<comment></comment>
								<name></name>
								<in>800</in>
								<out>-1</out>
								<pproColor>4292277273</pproColor>
							</marker>
						<labels>
							<label2>Forest</label2>
						</labels>
					</clipitem>
					<clipitem id="clipitem-802">
						<masterclipid>masterclip-380</masterclipid>
						<name>7</name>
						<enabled>TRUE</enabled>
						<duration>1125</duration>
						<rate>
							<timebase>25</timebase>
							<ntsc>FALSE</ntsc>
						</rate>
						<start>36138</start>
						<end>36513</end>
						<in>750</in>
						<out>1125</out>
						<pproTicksIn>7620480000000</pproTicksIn>
						<pproTicksOut>11430720000000</pproTicksOut>
						<sequence id="sequence-59"/>
							<marker>
								<comment></comment>
								<name></name>
								<in>425</in>
								<out>-1</out>
								<pproColor>4292277273</pproColor>
							</marker>
							<marker>
								<comment></comment>
								<name></name>
								<in>50</in>
								<out>-1</out>
								<pproColor>4292277273</pproColor>
							</marker>
							<marker>
								<comment></comment>
								<name></name>
								<in>800</in>
								<out>-1</out>
								<pproColor>4292277273</pproColor>
							</marker>
						<labels>
							<label2>Forest</label2>
						</labels>
					</clipitem>
					<clipitem id="clipitem-803">
						<masterclipid>masterclip-386</masterclipid>
						<name>5</name>
						<enabled>TRUE</enabled>
						<duration>1125</duration>
						<rate>
							<timebase>25</timebase>
							<ntsc>FALSE</ntsc>
						</rate>
						<start>38990</start>
						<end>39365</end>
						<in>0</in>
						<out>375</out>
						<pproTicksIn>0</pproTicksIn>
						<pproTicksOut>3810240000000</pproTicksOut>
						<sequence id="sequence-60" TL.SQAudioVisibleBase="0" TL.SQVideoVisibleBase="0" TL.SQVisibleBaseTime="0" TL.SQAVDividerPosition="0.5" TL.SQHideShyTracks="0" TL.SQHeaderWidth="236" Monitor.ProgramZoomOut="11430720000000" Monitor.ProgramZoomIn="0" TL.SQTimePerPixel="0.19620667102680808" AM.TrackVScrollPosition="0" AM.TrackScrollPosition="0" MZ.EditLine="9469716480000" MZ.Sequence.PreviewFrameSizeHeight="576" MZ.Sequence.PreviewFrameSizeWidth="720" MZ.Sequence.AudioTimeDisplayFormat="200" MZ.Sequence.PreviewRenderingClassID="1061109567" MZ.Sequence.PreviewRenderingPresetCodec="1685480304" MZ.Sequence.PreviewRenderingPresetPath="EncoderPresets/SequencePreview/04be6e19-a018-4e0c-a9d6-0ab44c64752b/QuickTime DV PAL.epr" MZ.Sequence.PreviewUseMaxRenderQuality="false" MZ.Sequence.PreviewUseMaxBitDepth="false" MZ.Sequence.EditingModeGUID="04be6e19-a018-4e0c-a9d6-0ab44c64752b" MZ.Sequence.VideoTimeDisplayFormat="101" MZ.WorkOutPoint="11430720000000" MZ.WorkInPoint="0" MZ.ZeroPoint="0">
							<duration>1125</duration>
							<rate>
								<timebase>25</timebase>
								<ntsc>FALSE</ntsc>
							</rate>
							<name>RU_Nested</name>
							<media>
								<video>
									<format>
										<samplecharacteristics>
											<rate>
												<timebase>25</timebase>
												<ntsc>FALSE</ntsc>
											</rate>
											<codec>
												<name>Apple ProRes 422</name>
												<appspecificdata>
													<appname>Final Cut Pro</appname>
													<appmanufacturer>Apple Inc.</appmanufacturer>
													<appversion>7.0</appversion>
													<data>
														<qtcodec>
															<codecname>Apple ProRes 422</codecname>
															<codectypename>Apple ProRes 422</codectypename>
															<codectypecode>apcn</codectypecode>
															<codecvendorcode>appl</codecvendorcode>
															<spatialquality>1024</spatialquality>
															<temporalquality>0</temporalquality>
															<keyframerate>0</keyframerate>
															<datarate>0</datarate>
														</qtcodec>
													</data>
												</appspecificdata>
											</codec>
											<width>720</width>
											<height>576</height>
											<anamorphic>TRUE</anamorphic>
											<pixelaspectratio>PAL-601</pixelaspectratio>
											<fielddominance>lower</fielddominance>
											<colordepth>24</colordepth>
										</samplecharacteristics>
									</format>
									<track TL.SQTrackShy="0" TL.SQTrackExpandedHeight="25" TL.SQTrackExpanded="0" MZ.TrackTargeted="1">
										<clipitem id="clipitem-804">
											<masterclipid>masterclip-387</masterclipid>
											<name>Plashka_Right_DV.mov</name>
											<enabled>TRUE</enabled>
											<duration>375</duration>
											<rate>
												<timebase>25</timebase>
												<ntsc>FALSE</ntsc>
											</rate>
											<start>0</start>
											<end>375</end>
											<in>0</in>
											<out>375</out>
											<pproTicksIn>0</pproTicksIn>
											<pproTicksOut>3810240000000</pproTicksOut>
											<alphatype>straight</alphatype>
											<pixelaspectratio>PAL-601</pixelaspectratio>
											<anamorphic>TRUE</anamorphic>
											<file id="file-331">
												<name>Plashka_Right_DV.mov</name>
												<pathurl>file://localhost/Volumes/1Tb/_MUZ_TV/graphika/RU-21/MOD/Plashka_Right_DV.mov</pathurl>
												<rate>
													<timebase>25</timebase>
													<ntsc>FALSE</ntsc>
												</rate>
												<duration>375</duration>
												<timecode>
													<rate>
														<timebase>25</timebase>
														<ntsc>FALSE</ntsc>
													</rate>
													<string>00:00:15:10</string>
													<frame>385</frame>
													<displayformat>NDF</displayformat>
												</timecode>
												<media>
													<video>
														<samplecharacteristics>
															<rate>
																<timebase>25</timebase>
																<ntsc>FALSE</ntsc>
															</rate>
															<width>720</width>
															<height>576</height>
															<anamorphic>TRUE</anamorphic>
															<pixelaspectratio>PAL-601</pixelaspectratio>
															<fielddominance>lower</fielddominance>
														</samplecharacteristics>
													</video>
												</media>
											</file>
											<filter>
												<effect>
													<name>Basic Motion</name>
													<effectid>basic</effectid>
													<effectcategory>motion</effectcategory>
													<effecttype>motion</effecttype>
													<mediatype>video</mediatype>
													<pproBypass>false</pproBypass>
													<parameter authoringApp="PremierePro">
														<parameterid>scale</parameterid>
														<name>Scale</name>
														<valuemin>0</valuemin>
														<valuemax>1000</valuemax>
														<value>100</value>
													</parameter>
													<parameter authoringApp="PremierePro">
														<parameterid>rotation</parameterid>
														<name>Rotation</name>
														<valuemin>-8640</valuemin>
														<valuemax>8640</valuemax>
														<value>0</value>
													</parameter>
													<parameter authoringApp="PremierePro">
														<parameterid>center</parameterid>
														<name>Center</name>
														<value>
															<horiz>-5.55112e-17</horiz>
															<vert>-1.11022e-16</vert>
														</value>
													</parameter>
													<parameter authoringApp="PremierePro">
														<parameterid>centerOffset</parameterid>
														<name>Anchor Point</name>
														<value>
															<horiz>0.402314</horiz>
															<vert>0.41875</vert>
														</value>
													</parameter>
													<parameter authoringApp="PremierePro">
														<parameterid>antiflicker</parameterid>
														<name>Anti-flicker Filter</name>
														<valuemin>0.0</valuemin>
														<valuemax>1.0</valuemax>
														<value>0</value>
													</parameter>
												</effect>
											</filter>
											<filter>
												<effect>
													<name>Distort</name>
													<effectid>deformation</effectid>
													<effectcategory>motion</effectcategory>
													<effecttype>motion</effecttype>
													<mediatype>video</mediatype>
													<parameter authoringApp="PremierePro">
														<parameterid>aspect</parameterid>
														<name>Aspect</name>
														<valuemin>-10000</valuemin>
														<valuemax>10000</valuemax>
														<value>26.5823</value>
													</parameter>
												</effect>
											</filter>
											<logginginfo>
												<description></description>
												<scene></scene>
												<shottake></shottake>
												<lognote></lognote>
												<good></good>
												<originalvideofilename></originalvideofilename>
												<originalaudiofilename></originalaudiofilename>
											</logginginfo>
											<colorinfo>
												<lut></lut>
												<lut1></lut1>
												<asc_sop></asc_sop>
												<asc_sat></asc_sat>
												<lut2></lut2>
											</colorinfo>
											<labels>
												<label2>Violet</label2>
											</labels>
										</clipitem>
										<clipitem id="clipitem-805">
											<masterclipid>masterclip-387</masterclipid>
											<name>Plashka_Right_DV.mov</name>
											<enabled>TRUE</enabled>
											<duration>375</duration>
											<rate>
												<timebase>25</timebase>
												<ntsc>FALSE</ntsc>
											</rate>
											<start>375</start>
											<end>750</end>
											<in>0</in>
											<out>375</out>
											<pproTicksIn>0</pproTicksIn>
											<pproTicksOut>3810240000000</pproTicksOut>
											<alphatype>straight</alphatype>
											<file id="file-331"/>
											<filter>
												<effect>
													<name>Basic Motion</name>
													<effectid>basic</effectid>
													<effectcategory>motion</effectcategory>
													<effecttype>motion</effecttype>
													<mediatype>video</mediatype>
													<pproBypass>false</pproBypass>
													<parameter authoringApp="PremierePro">
														<parameterid>scale</parameterid>
														<name>Scale</name>
														<valuemin>0</valuemin>
														<valuemax>1000</valuemax>
														<value>100</value>
													</parameter>
													<parameter authoringApp="PremierePro">
														<parameterid>rotation</parameterid>
														<name>Rotation</name>
														<valuemin>-8640</valuemin>
														<valuemax>8640</valuemax>
														<value>0</value>
													</parameter>
													<parameter authoringApp="PremierePro">
														<parameterid>center</parameterid>
														<name>Center</name>
														<value>
															<horiz>-5.55112e-17</horiz>
															<vert>-1.11022e-16</vert>
														</value>
													</parameter>
													<parameter authoringApp="PremierePro">
														<parameterid>centerOffset</parameterid>
														<name>Anchor Point</name>
														<value>
															<horiz>0.402314</horiz>
															<vert>0.41875</vert>
														</value>
													</parameter>
													<parameter authoringApp="PremierePro">
														<parameterid>antiflicker</parameterid>
														<name>Anti-flicker Filter</name>
														<valuemin>0.0</valuemin>
														<valuemax>1.0</valuemax>
														<value>0</value>
													</parameter>
												</effect>
											</filter>
											<filter>
												<effect>
													<name>Distort</name>
													<effectid>deformation</effectid>
													<effectcategory>motion</effectcategory>
													<effecttype>motion</effecttype>
													<mediatype>video</mediatype>
													<parameter authoringApp="PremierePro">
														<parameterid>aspect</parameterid>
														<name>Aspect</name>
														<valuemin>-10000</valuemin>
														<valuemax>10000</valuemax>
														<value>20.4819</value>
													</parameter>
												</effect>
											</filter>
											<logginginfo>
												<description></description>
												<scene></scene>
												<shottake></shottake>
												<lognote></lognote>
												<good></good>
												<originalvideofilename></originalvideofilename>
												<originalaudiofilename></originalaudiofilename>
											</logginginfo>
											<colorinfo>
												<lut></lut>
												<lut1></lut1>
												<asc_sop></asc_sop>
												<asc_sat></asc_sat>
												<lut2></lut2>
											</colorinfo>
											<labels>
												<label2>Violet</label2>
											</labels>
										</clipitem>
										<clipitem id="clipitem-806">
											<masterclipid>masterclip-387</masterclipid>
											<name>Plashka_Right_DV.mov</name>
											<enabled>TRUE</enabled>
											<duration>375</duration>
											<rate>
												<timebase>25</timebase>
												<ntsc>FALSE</ntsc>
											</rate>
											<start>750</start>
											<end>1125</end>
											<in>0</in>
											<out>375</out>
											<pproTicksIn>0</pproTicksIn>
											<pproTicksOut>3810240000000</pproTicksOut>
											<alphatype>straight</alphatype>
											<file id="file-331"/>
											<filter>
												<effect>
													<name>Basic Motion</name>
													<effectid>basic</effectid>
													<effectcategory>motion</effectcategory>
													<effecttype>motion</effecttype>
													<mediatype>video</mediatype>
													<pproBypass>false</pproBypass>
													<parameter authoringApp="PremierePro">
														<parameterid>scale</parameterid>
														<name>Scale</name>
														<valuemin>0</valuemin>
														<valuemax>1000</valuemax>
														<value>100</value>
													</parameter>
													<parameter authoringApp="PremierePro">
														<parameterid>rotation</parameterid>
														<name>Rotation</name>
														<valuemin>-8640</valuemin>
														<valuemax>8640</valuemax>
														<value>0</value>
													</parameter>
													<parameter authoringApp="PremierePro">
														<parameterid>center</parameterid>
														<name>Center</name>
														<value>
															<horiz>-5.55112e-17</horiz>
															<vert>-1.11022e-16</vert>
														</value>
													</parameter>
													<parameter authoringApp="PremierePro">
														<parameterid>centerOffset</parameterid>
														<name>Anchor Point</name>
														<value>
															<horiz>0.402314</horiz>
															<vert>0.41875</vert>
														</value>
													</parameter>
													<parameter authoringApp="PremierePro">
														<parameterid>antiflicker</parameterid>
														<name>Anti-flicker Filter</name>
														<valuemin>0.0</valuemin>
														<valuemax>1.0</valuemax>
														<value>0</value>
													</parameter>
												</effect>
											</filter>
											<filter>
												<effect>
													<name>Distort</name>
													<effectid>deformation</effectid>
													<effectcategory>motion</effectcategory>
													<effecttype>motion</effecttype>
													<mediatype>video</mediatype>
													<parameter authoringApp="PremierePro">
														<parameterid>aspect</parameterid>
														<name>Aspect</name>
														<valuemin>-10000</valuemin>
														<valuemax>10000</valuemax>
														<value>28.2051</value>
													</parameter>
												</effect>
											</filter>
											<logginginfo>
												<description></description>
												<scene></scene>
												<shottake></shottake>
												<lognote></lognote>
												<good></good>
												<originalvideofilename></originalvideofilename>
												<originalaudiofilename></originalaudiofilename>
											</logginginfo>
											<colorinfo>
												<lut></lut>
												<lut1></lut1>
												<asc_sop></asc_sop>
												<asc_sat></asc_sat>
												<lut2></lut2>
											</colorinfo>
											<labels>
												<label2>Violet</label2>
											</labels>
										</clipitem>
										<enabled>TRUE</enabled>
										<locked>FALSE</locked>
									</track>
									<track TL.SQTrackShy="0" TL.SQTrackExpandedHeight="25" TL.SQTrackExpanded="0" MZ.TrackTargeted="0">
										<transitionitem>
											<start>6</start>
											<end>35</end>
											<alignment>start-black</alignment>
											<cutPointTicks>0</cutPointTicks>
											<rate>
												<timebase>25</timebase>
												<ntsc>FALSE</ntsc>
											</rate>
											<effect>
												<name>Edge Wipe</name>
												<effectid>Edge Wipe</effectid>
												<effectcategory>Wipe</effectcategory>
												<effecttype>transition</effecttype>
												<mediatype>video</mediatype>
												<wipecode>2</wipecode>
												<wipeaccuracy>100</wipeaccuracy>
												<startratio>0</startratio>
												<endratio>1</endratio>
												<reverse>FALSE</reverse>
												<parameter authoringApp="PremierePro">
													<parameterid>directionofwipe</parameterid>
													<name>Angle</name>
													<valuemin>-360</valuemin>
													<valuemax>360</valuemax>
													<value>270</value>
												</parameter>
											</effect>
										</transitionitem>
										<clipitem id="clipitem-807">
											<masterclipid>masterclip-388</masterclipid>
											<name>5_1.png</name>
											<enabled>TRUE</enabled>
											<duration>1080000</duration>
											<rate>
												<timebase>25</timebase>
												<ntsc>FALSE</ntsc>
											</rate>
											<start>-1</start>
											<end>-1</end>
											<in>90006</in>
											<out>90369</out>
											<pproTicksIn>914518563840000</pproTicksIn>
											<pproTicksOut>918206876160000</pproTicksOut>
											<alphatype>straight</alphatype>
											<pixelaspectratio>square</pixelaspectratio>
											<anamorphic>FALSE</anamorphic>
											<file id="file-332">
												<name>5_1.png</name>
												<pathurl>file://localhost/_MUZ_TV/project_AP/RU/_TITLE/END/PNG/5_1.png</pathurl>
												<rate>
													<timebase>30</timebase>
													<ntsc>TRUE</ntsc>
												</rate>
												<timecode>
													<rate>
														<timebase>30</timebase>
														<ntsc>TRUE</ntsc>
													</rate>
													<string>00;00;00;00</string>
													<frame>0</frame>
													<displayformat>DF</displayformat>
												</timecode>
												<media>
													<video>
														<samplecharacteristics>
															<rate>
																<timebase>30</timebase>
																<ntsc>TRUE</ntsc>
															</rate>
															<width>1920</width>
															<height>1080</height>
															<anamorphic>FALSE</anamorphic>
															<pixelaspectratio>square</pixelaspectratio>
															<fielddominance>none</fielddominance>
														</samplecharacteristics>
													</video>
												</media>
											</file>
											<filter>
												<effect>
													<name>Basic Motion</name>
													<effectid>basic</effectid>
													<effectcategory>motion</effectcategory>
													<effecttype>motion</effecttype>
													<mediatype>video</mediatype>
													<pproBypass>false</pproBypass>
													<parameter authoringApp="PremierePro">
														<parameterid>scale</parameterid>
														<name>Scale</name>
														<valuemin>0</valuemin>
														<valuemax>1000</valuemax>
														<value>53.3333</value>
													</parameter>
													<parameter authoringApp="PremierePro">
														<parameterid>rotation</parameterid>
														<name>Rotation</name>
														<valuemin>-8640</valuemin>
														<valuemax>8640</valuemax>
														<value>0</value>
													</parameter>
													<parameter authoringApp="PremierePro">
														<parameterid>center</parameterid>
														<name>Center</name>
														<value>
															<horiz>0</horiz>
															<vert>0</vert>
														</value>
													</parameter>
													<parameter authoringApp="PremierePro">
														<parameterid>centerOffset</parameterid>
														<name>Anchor Point</name>
														<value>
															<horiz>0</horiz>
															<vert>0</vert>
														</value>
													</parameter>
													<parameter authoringApp="PremierePro">
														<parameterid>antiflicker</parameterid>
														<name>Anti-flicker Filter</name>
														<valuemin>0.0</valuemin>
														<valuemax>1.0</valuemax>
														<value>0</value>
													</parameter>
												</effect>
											</filter>
											<logginginfo>
												<description></description>
												<scene></scene>
												<shottake></shottake>
												<lognote></lognote>
												<good></good>
												<originalvideofilename></originalvideofilename>
												<originalaudiofilename></originalaudiofilename>
											</logginginfo>
											<colorinfo>
												<lut></lut>
												<lut1></lut1>
												<asc_sop></asc_sop>
												<asc_sat></asc_sat>
												<lut2></lut2>
											</colorinfo>
											<labels>
												<label2>Lavender</label2>
											</labels>
										</clipitem>
										<transitionitem>
											<start>344</start>
											<end>369</end>
											<alignment>end-black</alignment>
											<cutPointTicks>254016000000</cutPointTicks>
											<rate>
												<timebase>25</timebase>
												<ntsc>FALSE</ntsc>
											</rate>
											<effect>
												<name>Edge Wipe</name>
												<effectid>Edge Wipe</effectid>
												<effectcategory>Wipe</effectcategory>
												<effecttype>transition</effecttype>
												<mediatype>video</mediatype>
												<wipecode>2</wipecode>
												<wipeaccuracy>100</wipeaccuracy>
												<startratio>0</startratio>
												<endratio>1</endratio>
												<reverse>FALSE</reverse>
												<parameter authoringApp="PremierePro">
													<parameterid>directionofwipe</parameterid>
													<name>Angle</name>
													<valuemin>-360</valuemin>
													<valuemax>360</valuemax>
													<value>90</value>
												</parameter>
											</effect>
										</transitionitem>
										<transitionitem>
											<start>381</start>
											<end>410</end>
											<alignment>start-black</alignment>
											<cutPointTicks>0</cutPointTicks>
											<rate>
												<timebase>25</timebase>
												<ntsc>FALSE</ntsc>
											</rate>
											<effect>
												<name>Edge Wipe</name>
												<effectid>Edge Wipe</effectid>
												<effectcategory>Wipe</effectcategory>
												<effecttype>transition</effecttype>
												<mediatype>video</mediatype>
												<wipecode>2</wipecode>
												<wipeaccuracy>100</wipeaccuracy>
												<startratio>0</startratio>
												<endratio>1</endratio>
												<reverse>FALSE</reverse>
												<parameter authoringApp="PremierePro">
													<parameterid>directionofwipe</parameterid>
													<name>Angle</name>
													<valuemin>-360</valuemin>
													<valuemax>360</valuemax>
													<value>270</value>
												</parameter>
											</effect>
										</transitionitem>
										<clipitem id="clipitem-808">
											<masterclipid>masterclip-389</masterclipid>
											<name>5_2.png</name>
											<enabled>TRUE</enabled>
											<duration>1080000</duration>
											<rate>
												<timebase>25</timebase>
												<ntsc>FALSE</ntsc>
											</rate>
											<start>-1</start>
											<end>-1</end>
											<in>90011</in>
											<out>90374</out>
											<pproTicksIn>914569367040000</pproTicksIn>
											<pproTicksOut>918257679360000</pproTicksOut>
											<alphatype>straight</alphatype>
											<pixelaspectratio>square</pixelaspectratio>
											<anamorphic>FALSE</anamorphic>
											<file id="file-333">
												<name>5_2.png</name>
												<pathurl>file://localhost/_MUZ_TV/project_AP/RU/_TITLE/END/PNG/5_2.png</pathurl>
												<rate>
													<timebase>30</timebase>
													<ntsc>TRUE</ntsc>
												</rate>
												<timecode>
													<rate>
														<timebase>30</timebase>
														<ntsc>TRUE</ntsc>
													</rate>
													<string>00;00;00;00</string>
													<frame>0</frame>
													<displayformat>DF</displayformat>
												</timecode>
												<media>
													<video>
														<samplecharacteristics>
															<rate>
																<timebase>30</timebase>
																<ntsc>TRUE</ntsc>
															</rate>
															<width>1920</width>
															<height>1080</height>
															<anamorphic>FALSE</anamorphic>
															<pixelaspectratio>square</pixelaspectratio>
															<fielddominance>none</fielddominance>
														</samplecharacteristics>
													</video>
												</media>
											</file>
											<filter>
												<effect>
													<name>Basic Motion</name>
													<effectid>basic</effectid>
													<effectcategory>motion</effectcategory>
													<effecttype>motion</effecttype>
													<mediatype>video</mediatype>
													<pproBypass>false</pproBypass>
													<parameter authoringApp="PremierePro">
														<parameterid>scale</parameterid>
														<name>Scale</name>
														<valuemin>0</valuemin>
														<valuemax>1000</valuemax>
														<value>53.3333</value>
													</parameter>
													<parameter authoringApp="PremierePro">
														<parameterid>rotation</parameterid>
														<name>Rotation</name>
														<valuemin>-8640</valuemin>
														<valuemax>8640</valuemax>
														<value>0</value>
													</parameter>
													<parameter authoringApp="PremierePro">
														<parameterid>center</parameterid>
														<name>Center</name>
														<value>
															<horiz>0</horiz>
															<vert>0</vert>
														</value>
													</parameter>
													<parameter authoringApp="PremierePro">
														<parameterid>centerOffset</parameterid>
														<name>Anchor Point</name>
														<value>
															<horiz>0</horiz>
															<vert>0</vert>
														</value>
													</parameter>
													<parameter authoringApp="PremierePro">
														<parameterid>antiflicker</parameterid>
														<name>Anti-flicker Filter</name>
														<valuemin>0.0</valuemin>
														<valuemax>1.0</valuemax>
														<value>0</value>
													</parameter>
												</effect>
											</filter>
											<logginginfo>
												<description></description>
												<scene></scene>
												<shottake></shottake>
												<lognote></lognote>
												<good></good>
												<originalvideofilename></originalvideofilename>
												<originalaudiofilename></originalaudiofilename>
											</logginginfo>
											<colorinfo>
												<lut></lut>
												<lut1></lut1>
												<asc_sop></asc_sop>
												<asc_sat></asc_sat>
												<lut2></lut2>
											</colorinfo>
											<labels>
												<label2>Lavender</label2>
											</labels>
										</clipitem>
										<transitionitem>
											<start>719</start>
											<end>744</end>
											<alignment>end-black</alignment>
											<cutPointTicks>254016000000</cutPointTicks>
											<rate>
												<timebase>25</timebase>
												<ntsc>FALSE</ntsc>
											</rate>
											<effect>
												<name>Edge Wipe</name>
												<effectid>Edge Wipe</effectid>
												<effectcategory>Wipe</effectcategory>
												<effecttype>transition</effecttype>
												<mediatype>video</mediatype>
												<wipecode>2</wipecode>
												<wipeaccuracy>100</wipeaccuracy>
												<startratio>0</startratio>
												<endratio>1</endratio>
												<reverse>FALSE</reverse>
												<parameter authoringApp="PremierePro">
													<parameterid>directionofwipe</parameterid>
													<name>Angle</name>
													<valuemin>-360</valuemin>
													<valuemax>360</valuemax>
													<value>90</value>
												</parameter>
											</effect>
										</transitionitem>
										<transitionitem>
											<start>756</start>
											<end>785</end>
											<alignment>start-black</alignment>
											<cutPointTicks>0</cutPointTicks>
											<rate>
												<timebase>25</timebase>
												<ntsc>FALSE</ntsc>
											</rate>
											<effect>
												<name>Edge Wipe</name>
												<effectid>Edge Wipe</effectid>
												<effectcategory>Wipe</effectcategory>
												<effecttype>transition</effecttype>
												<mediatype>video</mediatype>
												<wipecode>2</wipecode>
												<wipeaccuracy>100</wipeaccuracy>
												<startratio>0</startratio>
												<endratio>1</endratio>
												<reverse>FALSE</reverse>
												<parameter authoringApp="PremierePro">
													<parameterid>directionofwipe</parameterid>
													<name>Angle</name>
													<valuemin>-360</valuemin>
													<valuemax>360</valuemax>
													<value>270</value>
												</parameter>
											</effect>
										</transitionitem>
										<clipitem id="clipitem-809">
											<masterclipid>masterclip-390</masterclipid>
											<name>5_3.png</name>
											<enabled>TRUE</enabled>
											<duration>1080000</duration>
											<rate>
												<timebase>25</timebase>
												<ntsc>FALSE</ntsc>
											</rate>
											<start>-1</start>
											<end>-1</end>
											<in>90011</in>
											<out>90375</out>
											<pproTicksIn>914569367040000</pproTicksIn>
											<pproTicksOut>918267840000000</pproTicksOut>
											<alphatype>straight</alphatype>
											<pixelaspectratio>square</pixelaspectratio>
											<anamorphic>FALSE</anamorphic>
											<file id="file-334">
												<name>5_3.png</name>
												<pathurl>file://localhost/_MUZ_TV/project_AP/RU/_TITLE/END/PNG/5_3.png</pathurl>
												<rate>
													<timebase>30</timebase>
													<ntsc>TRUE</ntsc>
												</rate>
												<timecode>
													<rate>
														<timebase>30</timebase>
														<ntsc>TRUE</ntsc>
													</rate>
													<string>00;00;00;00</string>
													<frame>0</frame>
													<displayformat>DF</displayformat>
												</timecode>
												<media>
													<video>
														<samplecharacteristics>
															<rate>
																<timebase>30</timebase>
																<ntsc>TRUE</ntsc>
															</rate>
															<width>1920</width>
															<height>1080</height>
															<anamorphic>FALSE</anamorphic>
															<pixelaspectratio>square</pixelaspectratio>
															<fielddominance>none</fielddominance>
														</samplecharacteristics>
													</video>
												</media>
											</file>
											<filter>
												<effect>
													<name>Basic Motion</name>
													<effectid>basic</effectid>
													<effectcategory>motion</effectcategory>
													<effecttype>motion</effecttype>
													<mediatype>video</mediatype>
													<pproBypass>false</pproBypass>
													<parameter authoringApp="PremierePro">
														<parameterid>scale</parameterid>
														<name>Scale</name>
														<valuemin>0</valuemin>
														<valuemax>1000</valuemax>
														<value>53.3333</value>
													</parameter>
													<parameter authoringApp="PremierePro">
														<parameterid>rotation</parameterid>
														<name>Rotation</name>
														<valuemin>-8640</valuemin>
														<valuemax>8640</valuemax>
														<value>0</value>
													</parameter>
													<parameter authoringApp="PremierePro">
														<parameterid>center</parameterid>
														<name>Center</name>
														<value>
															<horiz>0</horiz>
															<vert>0</vert>
														</value>
													</parameter>
													<parameter authoringApp="PremierePro">
														<parameterid>centerOffset</parameterid>
														<name>Anchor Point</name>
														<value>
															<horiz>0</horiz>
															<vert>0</vert>
														</value>
													</parameter>
													<parameter authoringApp="PremierePro">
														<parameterid>antiflicker</parameterid>
														<name>Anti-flicker Filter</name>
														<valuemin>0.0</valuemin>
														<valuemax>1.0</valuemax>
														<value>0</value>
													</parameter>
												</effect>
											</filter>
											<logginginfo>
												<description></description>
												<scene></scene>
												<shottake></shottake>
												<lognote></lognote>
												<good></good>
												<originalvideofilename></originalvideofilename>
												<originalaudiofilename></originalaudiofilename>
											</logginginfo>
											<colorinfo>
												<lut></lut>
												<lut1></lut1>
												<asc_sop></asc_sop>
												<asc_sat></asc_sat>
												<lut2></lut2>
											</colorinfo>
											<labels>
												<label2>Lavender</label2>
											</labels>
										</clipitem>
										<transitionitem>
											<start>1095</start>
											<end>1120</end>
											<alignment>end-black</alignment>
											<cutPointTicks>254016000000</cutPointTicks>
											<rate>
												<timebase>25</timebase>
												<ntsc>FALSE</ntsc>
											</rate>
											<effect>
												<name>Edge Wipe</name>
												<effectid>Edge Wipe</effectid>
												<effectcategory>Wipe</effectcategory>
												<effecttype>transition</effecttype>
												<mediatype>video</mediatype>
												<wipecode>2</wipecode>
												<wipeaccuracy>100</wipeaccuracy>
												<startratio>0</startratio>
												<endratio>1</endratio>
												<reverse>FALSE</reverse>
												<parameter authoringApp="PremierePro">
													<parameterid>directionofwipe</parameterid>
													<name>Angle</name>
													<valuemin>-360</valuemin>
													<valuemax>360</valuemax>
													<value>90</value>
												</parameter>
											</effect>
										</transitionitem>
										<enabled>TRUE</enabled>
										<locked>FALSE</locked>
									</track>
									<track TL.SQTrackShy="0" TL.SQTrackExpandedHeight="25" TL.SQTrackExpanded="0" MZ.TrackTargeted="0">
										<transitionitem>
											<start>755</start>
											<end>780</end>
											<alignment>start-black</alignment>
											<cutPointTicks>0</cutPointTicks>
											<rate>
												<timebase>25</timebase>
												<ntsc>FALSE</ntsc>
											</rate>
											<effect>
												<name>Edge Wipe</name>
												<effectid>Edge Wipe</effectid>
												<effectcategory>Wipe</effectcategory>
												<effecttype>transition</effecttype>
												<mediatype>video</mediatype>
												<wipecode>2</wipecode>
												<wipeaccuracy>100</wipeaccuracy>
												<startratio>0</startratio>
												<endratio>1</endratio>
												<reverse>FALSE</reverse>
												<parameter authoringApp="PremierePro">
													<parameterid>directionofwipe</parameterid>
													<name>Angle</name>
													<valuemin>-360</valuemin>
													<valuemax>360</valuemax>
													<value>270</value>
												</parameter>
											</effect>
										</transitionitem>
										<clipitem id="clipitem-810">
											<masterclipid>masterclip-391</masterclipid>
											<name>Graphic</name>
											<enabled>FALSE</enabled>
											<duration>1080000</duration>
											<rate>
												<timebase>25</timebase>
												<ntsc>FALSE</ntsc>
											</rate>
											<start>-1</start>
											<end>-1</end>
											<in>89905</in>
											<out>90272</out>
											<pproTicksIn>913492339200000</pproTicksIn>
											<pproTicksOut>917221294080000</pproTicksOut>
											<alphatype>straight</alphatype>
											<pixelaspectratio>PAL-601</pixelaspectratio>
											<anamorphic>TRUE</anamorphic>
											<file id="file-335">
												<name>Graphic</name>
												<mediaSource>GraphicAndType</mediaSource>
												<rate>
													<timebase>30</timebase>
													<ntsc>TRUE</ntsc>
												</rate>
												<timecode>
													<rate>
														<timebase>30</timebase>
														<ntsc>TRUE</ntsc>
													</rate>
													<string>00;00;00;00</string>
													<frame>0</frame>
													<displayformat>DF</displayformat>
												</timecode>
												<media>
													<video>
														<samplecharacteristics>
															<rate>
																<timebase>30</timebase>
																<ntsc>TRUE</ntsc>
															</rate>
															<width>720</width>
															<height>576</height>
															<anamorphic>TRUE</anamorphic>
															<pixelaspectratio>PAL-601</pixelaspectratio>
															<fielddominance>none</fielddominance>
														</samplecharacteristics>
													</video>
												</media>
											</file>
											<filter>
												<effect>
													<name>Vector Motion</name>
													<effectid>GraphicGroup</effectid>
													<effectcategory>graphic</effectcategory>
													<effecttype>filter</effecttype>
													<mediatype>video</mediatype>
													<pproBypass>false</pproBypass>
													<parameter authoringApp="PremierePro">
														<parameterid>1</parameterid>
														<name>Position</name>
														<IsTimeVarying>false</IsTimeVarying>
														<value>-91445760000000000,0.81693898908787344:0.49085601568222115,0,0,0,0,0,0,5,4,0,0,0,0</value>
													</parameter>
													<parameter authoringApp="PremierePro">
														<parameterid>2</parameterid>
														<name>Scale</name>
														<IsTimeVarying>false</IsTimeVarying>
														<ParameterControlType>2</ParameterControlType>
														<LowerBound>0</LowerBound>
														<UpperBound>10000</UpperBound>
														<UpperUIBound>200</UpperUIBound>
														<value>-91445760000000000,100.,0,0,0,0,0,0</value>
													</parameter>
													<parameter authoringApp="PremierePro">
														<parameterid>3</parameterid>
														<name>Scale Width</name>
														<IsTimeVarying>false</IsTimeVarying>
														<ParameterControlType>2</ParameterControlType>
														<LowerBound>0</LowerBound>
														<UpperBound>10000</UpperBound>
														<UpperUIBound>200</UpperUIBound>
														<value>-91445760000000000,100.,0,0,0,0,0,0</value>
													</parameter>
													<parameter authoringApp="PremierePro">
														<parameterid>4</parameterid>
														<name> </name>
														<IsTimeVarying>false</IsTimeVarying>
														<ParameterControlType>4</ParameterControlType>
														<LowerBound>false</LowerBound>
														<UpperBound>true</UpperBound>
														<value>-91445760000000000,true,0,0,0,0,0,0</value>
													</parameter>
													<parameter authoringApp="PremierePro">
														<parameterid>5</parameterid>
														<name>Rotation</name>
														<IsTimeVarying>false</IsTimeVarying>
														<ParameterControlType>3</ParameterControlType>
														<LowerBound>-32768</LowerBound>
														<UpperBound>32767</UpperBound>
														<value>-91445760000000000,0.,0,0,0,0,0,0</value>
													</parameter>
													<parameter authoringApp="PremierePro">
														<parameterid>6</parameterid>
														<name>Anchor Point</name>
														<IsTimeVarying>false</IsTimeVarying>
														<value>-91445760000000000,0.5:0.5,0,0,0,0,0,0,5,4,0,0,0,0</value>
													</parameter>
												</effect>
											</filter>
											<filter>
												<effect>
													<name>Данил Прытков признаётся, &#13;что сильные провалы &#13;мотивируют его на творчество &#13;не меньше, чем победы. </name>
													<effectid>GraphicAndType</effectid>
													<effectcategory>graphic</effectcategory>
													<effecttype>filter</effecttype>
													<mediatype>video</mediatype>
													<pproBypass>false</pproBypass>
													<pproExpanded>true</pproExpanded>
													<parameter authoringApp="PremierePro">
														<parameterid>1</parameterid>
														<name>Source Text</name>
														<hash>698123b5-7d57-7b79-efb1-b0df00000a31</hash>
													</parameter>
													<parameter authoringApp="PremierePro">
														<parameterid>2</parameterid>
														<name>Transform</name>
														<IsTimeVarying>false</IsTimeVarying>
														<ParameterControlType>11</ParameterControlType>
														<LowerBound>false</LowerBound>
														<UpperBound>false</UpperBound>
														<value>-91445760000000000,false,0,0,0,0,0,0</value>
													</parameter>
													<parameter authoringApp="PremierePro">
														<parameterid>3</parameterid>
														<name>Position</name>
														<IsTimeVarying>false</IsTimeVarying>
														<value>-91445760000000000,0.270416259765625:0.640594482421875,0,0,0,0,0,0,5,4,0,0,0,0</value>
													</parameter>
													<parameter authoringApp="PremierePro">
														<parameterid>4</parameterid>
														<name>Scale</name>
														<IsTimeVarying>false</IsTimeVarying>
														<ParameterControlType>2</ParameterControlType>
														<LowerBound>0</LowerBound>
														<UpperBound>4000</UpperBound>
														<value>-91445760000000000,100.,0,0,0,0,0,0</value>
													</parameter>
													<parameter authoringApp="PremierePro">
														<parameterid>5</parameterid>
														<name>Horizontal Scale</name>
														<IsTimeVarying>false</IsTimeVarying>
														<ParameterControlType>2</ParameterControlType>
														<LowerBound>0</LowerBound>
														<UpperBound>4000</UpperBound>
														<value>-91445760000000000,100.,0,0,0,0,0,0</value>
													</parameter>
													<parameter authoringApp="PremierePro">
														<parameterid>6</parameterid>
														<name> </name>
														<IsTimeVarying>false</IsTimeVarying>
														<ParameterControlType>4</ParameterControlType>
														<LowerBound>false</LowerBound>
														<UpperBound>true</UpperBound>
														<value>-91445760000000000,true,0,0,0,0,0,0</value>
													</parameter>
													<parameter authoringApp="PremierePro">
														<parameterid>7</parameterid>
														<name>Rotation</name>
														<IsTimeVarying>false</IsTimeVarying>
														<ParameterControlType>3</ParameterControlType>
														<LowerBound>-32768</LowerBound>
														<UpperBound>32767</UpperBound>
														<value>-91445760000000000,0.,0,0,0,0,0,0</value>
													</parameter>
													<parameter authoringApp="PremierePro">
														<parameterid>8</parameterid>
														<name>Opacity</name>
														<IsTimeVarying>false</IsTimeVarying>
														<ParameterControlType>2</ParameterControlType>
														<LowerBound>0</LowerBound>
														<UpperBound>100</UpperBound>
														<value>-91445760000000000,100.,0,0,0,0,0,0</value>
													</parameter>
													<parameter authoringApp="PremierePro">
														<parameterid>9</parameterid>
														<name>Anchor Point</name>
														<IsTimeVarying>false</IsTimeVarying>
														<value>-91445760000000000,0:0,0,0,0,0,0,0,5,4,0,0,0,0</value>
													</parameter>
													<parameter authoringApp="PremierePro">
														<parameterid>10</parameterid>
														<name></name>
														<IsTimeVarying>false</IsTimeVarying>
														<ParameterControlType>12</ParameterControlType>
														<LowerBound>false</LowerBound>
														<UpperBound>false</UpperBound>
														<value>-91445760000000000,false,0,0,0,0,0,0</value>
													</parameter>
													<parameter authoringApp="PremierePro">
														<parameterid>11</parameterid>
														<name> </name>
														<IsTimeVarying>false</IsTimeVarying>
														<ParameterControlType>8</ParameterControlType>
														<LowerBound>0</LowerBound>
														<UpperBound>32768</UpperBound>
														<value>-91445760000000000,0.,0,0,0,0,0,0</value>
													</parameter>
													<parameter authoringApp="PremierePro">
														<parameterid>12</parameterid>
														<name> </name>
														<IsTimeVarying>false</IsTimeVarying>
														<ParameterControlType>8</ParameterControlType>
														<LowerBound>0</LowerBound>
														<UpperBound>32768</UpperBound>
														<value>-91445760000000000,0.,0,0,0,0,0,0</value>
													</parameter>
													<parameter authoringApp="PremierePro">
														<parameterid>13</parameterid>
														<name>start</name>
														<IsTimeVarying>false</IsTimeVarying>
														<ParameterControlType>8</ParameterControlType>
														<LowerBound>-100</LowerBound>
														<UpperBound>1000000000</UpperBound>
														<value>-91445760000000000,0.,0,0,0,0,0,0</value>
													</parameter>
													<parameter authoringApp="PremierePro">
														<parameterid>14</parameterid>
														<name>end</name>
														<IsTimeVarying>false</IsTimeVarying>
														<ParameterControlType>8</ParameterControlType>
														<LowerBound>-100</LowerBound>
														<UpperBound>1000000000</UpperBound>
														<value>-91445760000000000,101.,0,0,0,0,0,0</value>
													</parameter>
													<parameter authoringApp="PremierePro">
														<parameterid>15</parameterid>
														<name> </name>
														<IsTimeVarying>false</IsTimeVarying>
														<ParameterControlType>4</ParameterControlType>
														<LowerBound>false</LowerBound>
														<UpperBound>true</UpperBound>
														<value>-91445760000000000,false,0,0,0,0,0,0</value>
													</parameter>
													<parameter authoringApp="PremierePro">
														<parameterid>16</parameterid>
														<name> </name>
														<IsTimeVarying>false</IsTimeVarying>
														<ParameterControlType>4</ParameterControlType>
														<LowerBound>false</LowerBound>
														<UpperBound>true</UpperBound>
														<value>-91445760000000000,false,0,0,0,0,0,0</value>
													</parameter>
													<parameter authoringApp="PremierePro">
														<parameterid>17</parameterid>
														<name> </name>
														<IsTimeVarying>false</IsTimeVarying>
														<ParameterControlType>4</ParameterControlType>
														<LowerBound>false</LowerBound>
														<UpperBound>true</UpperBound>
														<value>-91445760000000000,false,0,0,0,0,0,0</value>
													</parameter>
													<parameter authoringApp="PremierePro">
														<parameterid>18</parameterid>
														<name> </name>
														<IsTimeVarying>false</IsTimeVarying>
														<ParameterControlType>4</ParameterControlType>
														<LowerBound>false</LowerBound>
														<UpperBound>true</UpperBound>
														<value>-91445760000000000,false,0,0,0,0,0,0</value>
													</parameter>
													<parameter authoringApp="PremierePro">
														<parameterid>19</parameterid>
														<name>Parent Width</name>
														<IsTimeVarying>false</IsTimeVarying>
														<ParameterControlType>2</ParameterControlType>
														<LowerBound>0</LowerBound>
														<UpperBound>20000</UpperBound>
														<value>-91445760000000000,0.,0,0,0,0,0,0</value>
													</parameter>
													<parameter authoringApp="PremierePro">
														<parameterid>20</parameterid>
														<name>Parent Height</name>
														<IsTimeVarying>false</IsTimeVarying>
														<ParameterControlType>2</ParameterControlType>
														<LowerBound>0</LowerBound>
														<UpperBound>20000</UpperBound>
														<value>-91445760000000000,0.,0,0,0,0,0,0</value>
													</parameter>
													<parameter authoringApp="PremierePro">
														<parameterid>21</parameterid>
														<name>Parent Rotation</name>
														<IsTimeVarying>false</IsTimeVarying>
														<ParameterControlType>3</ParameterControlType>
														<LowerBound>-32768</LowerBound>
														<UpperBound>32767</UpperBound>
														<value>-91445760000000000,0.,0,0,0,0,0,0</value>
													</parameter>
												</effect>
											</filter>
											<logginginfo>
												<description></description>
												<scene></scene>
												<shottake></shottake>
												<lognote></lognote>
												<good></good>
												<originalvideofilename></originalvideofilename>
												<originalaudiofilename></originalaudiofilename>
											</logginginfo>
											<colorinfo>
												<lut></lut>
												<lut1></lut1>
												<asc_sop></asc_sop>
												<asc_sat></asc_sat>
												<lut2></lut2>
											</colorinfo>
										</clipitem>
										<transitionitem>
											<start>1097</start>
											<end>1122</end>
											<alignment>end-black</alignment>
											<cutPointTicks>254016000000</cutPointTicks>
											<rate>
												<timebase>25</timebase>
												<ntsc>FALSE</ntsc>
											</rate>
											<effect>
												<name>Edge Wipe</name>
												<effectid>Edge Wipe</effectid>
												<effectcategory>Wipe</effectcategory>
												<effecttype>transition</effecttype>
												<mediatype>video</mediatype>
												<wipecode>2</wipecode>
												<wipeaccuracy>100</wipeaccuracy>
												<startratio>0</startratio>
												<endratio>1</endratio>
												<reverse>FALSE</reverse>
												<parameter authoringApp="PremierePro">
													<parameterid>directionofwipe</parameterid>
													<name>Angle</name>
													<valuemin>-360</valuemin>
													<valuemax>360</valuemax>
													<value>90</value>
												</parameter>
											</effect>
										</transitionitem>
										<enabled>TRUE</enabled>
										<locked>FALSE</locked>
									</track>
								</video>
								<audio>
									<numOutputChannels>2</numOutputChannels>
									<format>
										<samplecharacteristics>
											<depth>16</depth>
											<samplerate>48000</samplerate>
										</samplecharacteristics>
									</format>
									<outputs>
										<group>
											<index>1</index>
											<numchannels>1</numchannels>
											<downmix>0</downmix>
											<channel>
												<index>1</index>
											</channel>
										</group>
										<group>
											<index>2</index>
											<numchannels>1</numchannels>
											<downmix>0</downmix>
											<channel>
												<index>2</index>
											</channel>
										</group>
									</outputs>
									<track TL.SQTrackAudioKeyframeStyle="0" TL.SQTrackShy="0" TL.SQTrackExpandedHeight="25" TL.SQTrackExpanded="0" MZ.TrackTargeted="1" PannerCurrentValue="0.5" PannerStartKeyframe="-91445760000000000,0.5,0,0,0,0,0,0" PannerName="Balance" currentExplodedTrackIndex="0" totalExplodedTrackCount="2" premiereTrackType="Stereo">
										<enabled>TRUE</enabled>
										<locked>FALSE</locked>
										<outputchannelindex>1</outputchannelindex>
									</track>
									<track TL.SQTrackAudioKeyframeStyle="0" TL.SQTrackShy="0" TL.SQTrackExpandedHeight="25" TL.SQTrackExpanded="0" MZ.TrackTargeted="1" PannerCurrentValue="0.5" PannerStartKeyframe="-91445760000000000,0.5,0,0,0,0,0,0" PannerName="Balance" currentExplodedTrackIndex="1" totalExplodedTrackCount="2" premiereTrackType="Stereo">
										<enabled>TRUE</enabled>
										<locked>FALSE</locked>
										<outputchannelindex>2</outputchannelindex>
									</track>
								</audio>
							</media>
							<timecode>
								<rate>
									<timebase>25</timebase>
									<ntsc>FALSE</ntsc>
								</rate>
								<string>00:00:00:00</string>
								<frame>0</frame>
								<displayformat>NDF</displayformat>
							</timecode>
								<marker>
									<comment></comment>
									<name></name>
									<in>50</in>
									<out>-1</out>
									<pproColor>4292277273</pproColor>
								</marker>
								<marker>
									<comment></comment>
									<name></name>
									<in>800</in>
									<out>-1</out>
									<pproColor>4292277273</pproColor>
								</marker>
								<marker>
									<comment></comment>
									<name></name>
									<in>425</in>
									<out>-1</out>
									<pproColor>4292277273</pproColor>
								</marker>
							<logginginfo>
								<description></description>
								<scene></scene>
								<shottake></shottake>
								<lognote></lognote>
								<good></good>
								<originalvideofilename></originalvideofilename>
								<originalaudiofilename></originalaudiofilename>
							</logginginfo>
						</sequence>
							<marker>
								<comment></comment>
								<name></name>
								<in>50</in>
								<out>-1</out>
								<pproColor>4292277273</pproColor>
							</marker>
							<marker>
								<comment></comment>
								<name></name>
								<in>800</in>
								<out>-1</out>
								<pproColor>4292277273</pproColor>
							</marker>
							<marker>
								<comment></comment>
								<name></name>
								<in>425</in>
								<out>-1</out>
								<pproColor>4292277273</pproColor>
							</marker>
						<labels>
							<label2>Forest</label2>
						</labels>
					</clipitem>
					<clipitem id="clipitem-811">
						<masterclipid>masterclip-386</masterclipid>
						<name>5</name>
						<enabled>TRUE</enabled>
						<duration>1125</duration>
						<rate>
							<timebase>25</timebase>
							<ntsc>FALSE</ntsc>
						</rate>
						<start>40882</start>
						<end>41257</end>
						<in>375</in>
						<out>750</out>
						<pproTicksIn>3810240000000</pproTicksIn>
						<pproTicksOut>7620480000000</pproTicksOut>
						<sequence id="sequence-60"/>
							<marker>
								<comment></comment>
								<name></name>
								<in>50</in>
								<out>-1</out>
								<pproColor>4292277273</pproColor>
							</marker>
							<marker>
								<comment></comment>
								<name></name>
								<in>800</in>
								<out>-1</out>
								<pproColor>4292277273</pproColor>
							</marker>
							<marker>
								<comment></comment>
								<name></name>
								<in>425</in>
								<out>-1</out>
								<pproColor>4292277273</pproColor>
							</marker>
						<labels>
							<label2>Forest</label2>
						</labels>
					</clipitem>
					<clipitem id="clipitem-812">
						<masterclipid>masterclip-386</masterclipid>
						<name>5</name>
						<enabled>TRUE</enabled>
						<duration>1125</duration>
						<rate>
							<timebase>25</timebase>
							<ntsc>FALSE</ntsc>
						</rate>
						<start>42775</start>
						<end>43150</end>
						<in>750</in>
						<out>1125</out>
						<pproTicksIn>7620480000000</pproTicksIn>
						<pproTicksOut>11430720000000</pproTicksOut>
						<sequence id="sequence-60"/>
							<marker>
								<comment></comment>
								<name></name>
								<in>50</in>
								<out>-1</out>
								<pproColor>4292277273</pproColor>
							</marker>
							<marker>
								<comment></comment>
								<name></name>
								<in>800</in>
								<out>-1</out>
								<pproColor>4292277273</pproColor>
							</marker>
							<marker>
								<comment></comment>
								<name></name>
								<in>425</in>
								<out>-1</out>
								<pproColor>4292277273</pproColor>
							</marker>
						<labels>
							<label2>Forest</label2>
						</labels>
					</clipitem>
					<clipitem id="clipitem-813">
						<masterclipid>masterclip-392</masterclipid>
						<name>4</name>
						<enabled>TRUE</enabled>
						<duration>1125</duration>
						<rate>
							<timebase>25</timebase>
							<ntsc>FALSE</ntsc>
						</rate>
						<start>45629</start>
						<end>46004</end>
						<in>0</in>
						<out>375</out>
						<pproTicksIn>0</pproTicksIn>
						<pproTicksOut>3810240000000</pproTicksOut>
						<sequence id="sequence-61" TL.SQAudioVisibleBase="0" TL.SQVideoVisibleBase="0" TL.SQVisibleBaseTime="0" TL.SQAVDividerPosition="0.5" TL.SQHideShyTracks="0" TL.SQHeaderWidth="236" Monitor.ProgramZoomOut="11430720000000" Monitor.ProgramZoomIn="0" TL.SQTimePerPixel="0.19620667102680808" AM.TrackVScrollPosition="0" AM.TrackScrollPosition="0" MZ.EditLine="9571322880000" MZ.Sequence.PreviewFrameSizeHeight="576" MZ.Sequence.PreviewFrameSizeWidth="720" MZ.Sequence.AudioTimeDisplayFormat="200" MZ.Sequence.PreviewRenderingClassID="1061109567" MZ.Sequence.PreviewRenderingPresetCodec="1685480304" MZ.Sequence.PreviewRenderingPresetPath="EncoderPresets/SequencePreview/04be6e19-a018-4e0c-a9d6-0ab44c64752b/QuickTime DV PAL.epr" MZ.Sequence.PreviewUseMaxRenderQuality="false" MZ.Sequence.PreviewUseMaxBitDepth="false" MZ.Sequence.EditingModeGUID="04be6e19-a018-4e0c-a9d6-0ab44c64752b" MZ.Sequence.VideoTimeDisplayFormat="101" MZ.WorkOutPoint="11430720000000" MZ.WorkInPoint="0" MZ.ZeroPoint="0">
							<duration>1125</duration>
							<rate>
								<timebase>25</timebase>
								<ntsc>FALSE</ntsc>
							</rate>
							<name>RU_Nested</name>
							<media>
								<video>
									<format>
										<samplecharacteristics>
											<rate>
												<timebase>25</timebase>
												<ntsc>FALSE</ntsc>
											</rate>
											<codec>
												<name>Apple ProRes 422</name>
												<appspecificdata>
													<appname>Final Cut Pro</appname>
													<appmanufacturer>Apple Inc.</appmanufacturer>
													<appversion>7.0</appversion>
													<data>
														<qtcodec>
															<codecname>Apple ProRes 422</codecname>
															<codectypename>Apple ProRes 422</codectypename>
															<codectypecode>apcn</codectypecode>
															<codecvendorcode>appl</codecvendorcode>
															<spatialquality>1024</spatialquality>
															<temporalquality>0</temporalquality>
															<keyframerate>0</keyframerate>
															<datarate>0</datarate>
														</qtcodec>
													</data>
												</appspecificdata>
											</codec>
											<width>720</width>
											<height>576</height>
											<anamorphic>TRUE</anamorphic>
											<pixelaspectratio>PAL-601</pixelaspectratio>
											<fielddominance>lower</fielddominance>
											<colordepth>24</colordepth>
										</samplecharacteristics>
									</format>
									<track TL.SQTrackShy="0" TL.SQTrackExpandedHeight="25" TL.SQTrackExpanded="0" MZ.TrackTargeted="1">
										<clipitem id="clipitem-814">
											<masterclipid>masterclip-393</masterclipid>
											<name>Plashka_Right_DV.mov</name>
											<enabled>TRUE</enabled>
											<duration>375</duration>
											<rate>
												<timebase>25</timebase>
												<ntsc>FALSE</ntsc>
											</rate>
											<start>0</start>
											<end>375</end>
											<in>0</in>
											<out>375</out>
											<pproTicksIn>0</pproTicksIn>
											<pproTicksOut>3810240000000</pproTicksOut>
											<alphatype>straight</alphatype>
											<pixelaspectratio>PAL-601</pixelaspectratio>
											<anamorphic>TRUE</anamorphic>
											<file id="file-336">
												<name>Plashka_Right_DV.mov</name>
												<pathurl>file://localhost/Volumes/1Tb/_MUZ_TV/graphika/RU-21/MOD/Plashka_Right_DV.mov</pathurl>
												<rate>
													<timebase>25</timebase>
													<ntsc>FALSE</ntsc>
												</rate>
												<duration>375</duration>
												<timecode>
													<rate>
														<timebase>25</timebase>
														<ntsc>FALSE</ntsc>
													</rate>
													<string>00:00:15:10</string>
													<frame>385</frame>
													<displayformat>NDF</displayformat>
												</timecode>
												<media>
													<video>
														<samplecharacteristics>
															<rate>
																<timebase>25</timebase>
																<ntsc>FALSE</ntsc>
															</rate>
															<width>720</width>
															<height>576</height>
															<anamorphic>TRUE</anamorphic>
															<pixelaspectratio>PAL-601</pixelaspectratio>
															<fielddominance>lower</fielddominance>
														</samplecharacteristics>
													</video>
												</media>
											</file>
											<filter>
												<effect>
													<name>Basic Motion</name>
													<effectid>basic</effectid>
													<effectcategory>motion</effectcategory>
													<effecttype>motion</effecttype>
													<mediatype>video</mediatype>
													<pproBypass>false</pproBypass>
													<parameter authoringApp="PremierePro">
														<parameterid>scale</parameterid>
														<name>Scale</name>
														<valuemin>0</valuemin>
														<valuemax>1000</valuemax>
														<value>100</value>
													</parameter>
													<parameter authoringApp="PremierePro">
														<parameterid>rotation</parameterid>
														<name>Rotation</name>
														<valuemin>-8640</valuemin>
														<valuemax>8640</valuemax>
														<value>0</value>
													</parameter>
													<parameter authoringApp="PremierePro">
														<parameterid>center</parameterid>
														<name>Center</name>
														<value>
															<horiz>-5.55112e-17</horiz>
															<vert>-1.11022e-16</vert>
														</value>
													</parameter>
													<parameter authoringApp="PremierePro">
														<parameterid>centerOffset</parameterid>
														<name>Anchor Point</name>
														<value>
															<horiz>0.402314</horiz>
															<vert>0.41875</vert>
														</value>
													</parameter>
													<parameter authoringApp="PremierePro">
														<parameterid>antiflicker</parameterid>
														<name>Anti-flicker Filter</name>
														<valuemin>0.0</valuemin>
														<valuemax>1.0</valuemax>
														<value>0</value>
													</parameter>
												</effect>
											</filter>
											<filter>
												<effect>
													<name>Distort</name>
													<effectid>deformation</effectid>
													<effectcategory>motion</effectcategory>
													<effecttype>motion</effecttype>
													<mediatype>video</mediatype>
													<parameter authoringApp="PremierePro">
														<parameterid>aspect</parameterid>
														<name>Aspect</name>
														<valuemin>-10000</valuemin>
														<valuemax>10000</valuemax>
														<value>16.2791</value>
													</parameter>
												</effect>
											</filter>
											<logginginfo>
												<description></description>
												<scene></scene>
												<shottake></shottake>
												<lognote></lognote>
												<good></good>
												<originalvideofilename></originalvideofilename>
												<originalaudiofilename></originalaudiofilename>
											</logginginfo>
											<colorinfo>
												<lut></lut>
												<lut1></lut1>
												<asc_sop></asc_sop>
												<asc_sat></asc_sat>
												<lut2></lut2>
											</colorinfo>
											<labels>
												<label2>Violet</label2>
											</labels>
										</clipitem>
										<clipitem id="clipitem-815">
											<masterclipid>masterclip-393</masterclipid>
											<name>Plashka_Right_DV.mov</name>
											<enabled>TRUE</enabled>
											<duration>375</duration>
											<rate>
												<timebase>25</timebase>
												<ntsc>FALSE</ntsc>
											</rate>
											<start>375</start>
											<end>750</end>
											<in>0</in>
											<out>375</out>
											<pproTicksIn>0</pproTicksIn>
											<pproTicksOut>3810240000000</pproTicksOut>
											<alphatype>straight</alphatype>
											<file id="file-336"/>
											<filter>
												<effect>
													<name>Basic Motion</name>
													<effectid>basic</effectid>
													<effectcategory>motion</effectcategory>
													<effecttype>motion</effecttype>
													<mediatype>video</mediatype>
													<pproBypass>false</pproBypass>
													<parameter authoringApp="PremierePro">
														<parameterid>scale</parameterid>
														<name>Scale</name>
														<valuemin>0</valuemin>
														<valuemax>1000</valuemax>
														<value>102</value>
													</parameter>
													<parameter authoringApp="PremierePro">
														<parameterid>rotation</parameterid>
														<name>Rotation</name>
														<valuemin>-8640</valuemin>
														<valuemax>8640</valuemax>
														<value>0</value>
													</parameter>
													<parameter authoringApp="PremierePro">
														<parameterid>center</parameterid>
														<name>Center</name>
														<value>
															<horiz>-5.55112e-17</horiz>
															<vert>-1.11022e-16</vert>
														</value>
													</parameter>
													<parameter authoringApp="PremierePro">
														<parameterid>centerOffset</parameterid>
														<name>Anchor Point</name>
														<value>
															<horiz>0.402314</horiz>
															<vert>0.41875</vert>
														</value>
													</parameter>
													<parameter authoringApp="PremierePro">
														<parameterid>antiflicker</parameterid>
														<name>Anti-flicker Filter</name>
														<valuemin>0.0</valuemin>
														<valuemax>1.0</valuemax>
														<value>0</value>
													</parameter>
												</effect>
											</filter>
											<filter>
												<effect>
													<name>Distort</name>
													<effectid>deformation</effectid>
													<effectcategory>motion</effectcategory>
													<effecttype>motion</effecttype>
													<mediatype>video</mediatype>
													<parameter authoringApp="PremierePro">
														<parameterid>aspect</parameterid>
														<name>Aspect</name>
														<valuemin>-10000</valuemin>
														<valuemax>10000</valuemax>
														<value>-2</value>
													</parameter>
												</effect>
											</filter>
											<logginginfo>
												<description></description>
												<scene></scene>
												<shottake></shottake>
												<lognote></lognote>
												<good></good>
												<originalvideofilename></originalvideofilename>
												<originalaudiofilename></originalaudiofilename>
											</logginginfo>
											<colorinfo>
												<lut></lut>
												<lut1></lut1>
												<asc_sop></asc_sop>
												<asc_sat></asc_sat>
												<lut2></lut2>
											</colorinfo>
											<labels>
												<label2>Violet</label2>
											</labels>
										</clipitem>
										<clipitem id="clipitem-816">
											<masterclipid>masterclip-393</masterclipid>
											<name>Plashka_Right_DV.mov</name>
											<enabled>TRUE</enabled>
											<duration>375</duration>
											<rate>
												<timebase>25</timebase>
												<ntsc>FALSE</ntsc>
											</rate>
											<start>750</start>
											<end>1125</end>
											<in>0</in>
											<out>375</out>
											<pproTicksIn>0</pproTicksIn>
											<pproTicksOut>3810240000000</pproTicksOut>
											<alphatype>straight</alphatype>
											<file id="file-336"/>
											<filter>
												<effect>
													<name>Basic Motion</name>
													<effectid>basic</effectid>
													<effectcategory>motion</effectcategory>
													<effecttype>motion</effecttype>
													<mediatype>video</mediatype>
													<pproBypass>false</pproBypass>
													<parameter authoringApp="PremierePro">
														<parameterid>scale</parameterid>
														<name>Scale</name>
														<valuemin>0</valuemin>
														<valuemax>1000</valuemax>
														<value>101</value>
													</parameter>
													<parameter authoringApp="PremierePro">
														<parameterid>rotation</parameterid>
														<name>Rotation</name>
														<valuemin>-8640</valuemin>
														<valuemax>8640</valuemax>
														<value>0</value>
													</parameter>
													<parameter authoringApp="PremierePro">
														<parameterid>center</parameterid>
														<name>Center</name>
														<value>
															<horiz>-5.55112e-17</horiz>
															<vert>-1.11022e-16</vert>
														</value>
													</parameter>
													<parameter authoringApp="PremierePro">
														<parameterid>centerOffset</parameterid>
														<name>Anchor Point</name>
														<value>
															<horiz>0.402314</horiz>
															<vert>0.41875</vert>
														</value>
													</parameter>
													<parameter authoringApp="PremierePro">
														<parameterid>antiflicker</parameterid>
														<name>Anti-flicker Filter</name>
														<valuemin>0.0</valuemin>
														<valuemax>1.0</valuemax>
														<value>0</value>
													</parameter>
												</effect>
											</filter>
											<filter>
												<effect>
													<name>Distort</name>
													<effectid>deformation</effectid>
													<effectcategory>motion</effectcategory>
													<effecttype>motion</effecttype>
													<mediatype>video</mediatype>
													<parameter authoringApp="PremierePro">
														<parameterid>aspect</parameterid>
														<name>Aspect</name>
														<valuemin>-10000</valuemin>
														<valuemax>10000</valuemax>
														<value>-1</value>
													</parameter>
												</effect>
											</filter>
											<logginginfo>
												<description></description>
												<scene></scene>
												<shottake></shottake>
												<lognote></lognote>
												<good></good>
												<originalvideofilename></originalvideofilename>
												<originalaudiofilename></originalaudiofilename>
											</logginginfo>
											<colorinfo>
												<lut></lut>
												<lut1></lut1>
												<asc_sop></asc_sop>
												<asc_sat></asc_sat>
												<lut2></lut2>
											</colorinfo>
											<labels>
												<label2>Violet</label2>
											</labels>
										</clipitem>
										<enabled>TRUE</enabled>
										<locked>FALSE</locked>
									</track>
									<track TL.SQTrackShy="0" TL.SQTrackExpandedHeight="25" TL.SQTrackExpanded="0" MZ.TrackTargeted="0">
										<transitionitem>
											<start>6</start>
											<end>35</end>
											<alignment>start-black</alignment>
											<cutPointTicks>0</cutPointTicks>
											<rate>
												<timebase>25</timebase>
												<ntsc>FALSE</ntsc>
											</rate>
											<effect>
												<name>Edge Wipe</name>
												<effectid>Edge Wipe</effectid>
												<effectcategory>Wipe</effectcategory>
												<effecttype>transition</effecttype>
												<mediatype>video</mediatype>
												<wipecode>2</wipecode>
												<wipeaccuracy>100</wipeaccuracy>
												<startratio>0</startratio>
												<endratio>1</endratio>
												<reverse>FALSE</reverse>
												<parameter authoringApp="PremierePro">
													<parameterid>directionofwipe</parameterid>
													<name>Angle</name>
													<valuemin>-360</valuemin>
													<valuemax>360</valuemax>
													<value>270</value>
												</parameter>
											</effect>
										</transitionitem>
										<clipitem id="clipitem-817">
											<masterclipid>masterclip-394</masterclipid>
											<name>4_1.png</name>
											<enabled>TRUE</enabled>
											<duration>1080000</duration>
											<rate>
												<timebase>25</timebase>
												<ntsc>FALSE</ntsc>
											</rate>
											<start>-1</start>
											<end>-1</end>
											<in>90006</in>
											<out>90369</out>
											<pproTicksIn>914518563840000</pproTicksIn>
											<pproTicksOut>918206876160000</pproTicksOut>
											<alphatype>straight</alphatype>
											<pixelaspectratio>square</pixelaspectratio>
											<anamorphic>FALSE</anamorphic>
											<file id="file-337">
												<name>4_1.png</name>
												<pathurl>file://localhost/_MUZ_TV/project_AP/RU/_TITLE/END/PNG/4_1.png</pathurl>
												<rate>
													<timebase>30</timebase>
													<ntsc>TRUE</ntsc>
												</rate>
												<timecode>
													<rate>
														<timebase>30</timebase>
														<ntsc>TRUE</ntsc>
													</rate>
													<string>00;00;00;00</string>
													<frame>0</frame>
													<displayformat>DF</displayformat>
												</timecode>
												<media>
													<video>
														<samplecharacteristics>
															<rate>
																<timebase>30</timebase>
																<ntsc>TRUE</ntsc>
															</rate>
															<width>1920</width>
															<height>1080</height>
															<anamorphic>FALSE</anamorphic>
															<pixelaspectratio>square</pixelaspectratio>
															<fielddominance>none</fielddominance>
														</samplecharacteristics>
													</video>
												</media>
											</file>
											<filter>
												<effect>
													<name>Basic Motion</name>
													<effectid>basic</effectid>
													<effectcategory>motion</effectcategory>
													<effecttype>motion</effecttype>
													<mediatype>video</mediatype>
													<pproBypass>false</pproBypass>
													<parameter authoringApp="PremierePro">
														<parameterid>scale</parameterid>
														<name>Scale</name>
														<valuemin>0</valuemin>
														<valuemax>1000</valuemax>
														<value>53.3333</value>
													</parameter>
													<parameter authoringApp="PremierePro">
														<parameterid>rotation</parameterid>
														<name>Rotation</name>
														<valuemin>-8640</valuemin>
														<valuemax>8640</valuemax>
														<value>0</value>
													</parameter>
													<parameter authoringApp="PremierePro">
														<parameterid>center</parameterid>
														<name>Center</name>
														<value>
															<horiz>0</horiz>
															<vert>0</vert>
														</value>
													</parameter>
													<parameter authoringApp="PremierePro">
														<parameterid>centerOffset</parameterid>
														<name>Anchor Point</name>
														<value>
															<horiz>0</horiz>
															<vert>0</vert>
														</value>
													</parameter>
													<parameter authoringApp="PremierePro">
														<parameterid>antiflicker</parameterid>
														<name>Anti-flicker Filter</name>
														<valuemin>0.0</valuemin>
														<valuemax>1.0</valuemax>
														<value>0</value>
													</parameter>
												</effect>
											</filter>
											<logginginfo>
												<description></description>
												<scene></scene>
												<shottake></shottake>
												<lognote></lognote>
												<good></good>
												<originalvideofilename></originalvideofilename>
												<originalaudiofilename></originalaudiofilename>
											</logginginfo>
											<colorinfo>
												<lut></lut>
												<lut1></lut1>
												<asc_sop></asc_sop>
												<asc_sat></asc_sat>
												<lut2></lut2>
											</colorinfo>
											<labels>
												<label2>Lavender</label2>
											</labels>
										</clipitem>
										<transitionitem>
											<start>344</start>
											<end>369</end>
											<alignment>end-black</alignment>
											<cutPointTicks>254016000000</cutPointTicks>
											<rate>
												<timebase>25</timebase>
												<ntsc>FALSE</ntsc>
											</rate>
											<effect>
												<name>Edge Wipe</name>
												<effectid>Edge Wipe</effectid>
												<effectcategory>Wipe</effectcategory>
												<effecttype>transition</effecttype>
												<mediatype>video</mediatype>
												<wipecode>2</wipecode>
												<wipeaccuracy>100</wipeaccuracy>
												<startratio>0</startratio>
												<endratio>1</endratio>
												<reverse>FALSE</reverse>
												<parameter authoringApp="PremierePro">
													<parameterid>directionofwipe</parameterid>
													<name>Angle</name>
													<valuemin>-360</valuemin>
													<valuemax>360</valuemax>
													<value>90</value>
												</parameter>
											</effect>
										</transitionitem>
										<transitionitem>
											<start>381</start>
											<end>410</end>
											<alignment>start-black</alignment>
											<cutPointTicks>0</cutPointTicks>
											<rate>
												<timebase>25</timebase>
												<ntsc>FALSE</ntsc>
											</rate>
											<effect>
												<name>Edge Wipe</name>
												<effectid>Edge Wipe</effectid>
												<effectcategory>Wipe</effectcategory>
												<effecttype>transition</effecttype>
												<mediatype>video</mediatype>
												<wipecode>2</wipecode>
												<wipeaccuracy>100</wipeaccuracy>
												<startratio>0</startratio>
												<endratio>1</endratio>
												<reverse>FALSE</reverse>
												<parameter authoringApp="PremierePro">
													<parameterid>directionofwipe</parameterid>
													<name>Angle</name>
													<valuemin>-360</valuemin>
													<valuemax>360</valuemax>
													<value>270</value>
												</parameter>
											</effect>
										</transitionitem>
										<clipitem id="clipitem-818">
											<masterclipid>masterclip-395</masterclipid>
											<name>4_2.png</name>
											<enabled>TRUE</enabled>
											<duration>1080000</duration>
											<rate>
												<timebase>25</timebase>
												<ntsc>FALSE</ntsc>
											</rate>
											<start>-1</start>
											<end>-1</end>
											<in>90011</in>
											<out>90374</out>
											<pproTicksIn>914569367040000</pproTicksIn>
											<pproTicksOut>918257679360000</pproTicksOut>
											<alphatype>straight</alphatype>
											<pixelaspectratio>square</pixelaspectratio>
											<anamorphic>FALSE</anamorphic>
											<file id="file-338">
												<name>4_2.png</name>
												<pathurl>file://localhost/_MUZ_TV/project_AP/RU/_TITLE/END/PNG/4_2.png</pathurl>
												<rate>
													<timebase>30</timebase>
													<ntsc>TRUE</ntsc>
												</rate>
												<timecode>
													<rate>
														<timebase>30</timebase>
														<ntsc>TRUE</ntsc>
													</rate>
													<string>00;00;00;00</string>
													<frame>0</frame>
													<displayformat>DF</displayformat>
												</timecode>
												<media>
													<video>
														<samplecharacteristics>
															<rate>
																<timebase>30</timebase>
																<ntsc>TRUE</ntsc>
															</rate>
															<width>1920</width>
															<height>1080</height>
															<anamorphic>FALSE</anamorphic>
															<pixelaspectratio>square</pixelaspectratio>
															<fielddominance>none</fielddominance>
														</samplecharacteristics>
													</video>
												</media>
											</file>
											<filter>
												<effect>
													<name>Basic Motion</name>
													<effectid>basic</effectid>
													<effectcategory>motion</effectcategory>
													<effecttype>motion</effecttype>
													<mediatype>video</mediatype>
													<pproBypass>false</pproBypass>
													<parameter authoringApp="PremierePro">
														<parameterid>scale</parameterid>
														<name>Scale</name>
														<valuemin>0</valuemin>
														<valuemax>1000</valuemax>
														<value>53.3333</value>
													</parameter>
													<parameter authoringApp="PremierePro">
														<parameterid>rotation</parameterid>
														<name>Rotation</name>
														<valuemin>-8640</valuemin>
														<valuemax>8640</valuemax>
														<value>0</value>
													</parameter>
													<parameter authoringApp="PremierePro">
														<parameterid>center</parameterid>
														<name>Center</name>
														<value>
															<horiz>0</horiz>
															<vert>0</vert>
														</value>
													</parameter>
													<parameter authoringApp="PremierePro">
														<parameterid>centerOffset</parameterid>
														<name>Anchor Point</name>
														<value>
															<horiz>0</horiz>
															<vert>0</vert>
														</value>
													</parameter>
													<parameter authoringApp="PremierePro">
														<parameterid>antiflicker</parameterid>
														<name>Anti-flicker Filter</name>
														<valuemin>0.0</valuemin>
														<valuemax>1.0</valuemax>
														<value>0</value>
													</parameter>
												</effect>
											</filter>
											<logginginfo>
												<description></description>
												<scene></scene>
												<shottake></shottake>
												<lognote></lognote>
												<good></good>
												<originalvideofilename></originalvideofilename>
												<originalaudiofilename></originalaudiofilename>
											</logginginfo>
											<colorinfo>
												<lut></lut>
												<lut1></lut1>
												<asc_sop></asc_sop>
												<asc_sat></asc_sat>
												<lut2></lut2>
											</colorinfo>
											<labels>
												<label2>Lavender</label2>
											</labels>
										</clipitem>
										<transitionitem>
											<start>719</start>
											<end>744</end>
											<alignment>end-black</alignment>
											<cutPointTicks>254016000000</cutPointTicks>
											<rate>
												<timebase>25</timebase>
												<ntsc>FALSE</ntsc>
											</rate>
											<effect>
												<name>Edge Wipe</name>
												<effectid>Edge Wipe</effectid>
												<effectcategory>Wipe</effectcategory>
												<effecttype>transition</effecttype>
												<mediatype>video</mediatype>
												<wipecode>2</wipecode>
												<wipeaccuracy>100</wipeaccuracy>
												<startratio>0</startratio>
												<endratio>1</endratio>
												<reverse>FALSE</reverse>
												<parameter authoringApp="PremierePro">
													<parameterid>directionofwipe</parameterid>
													<name>Angle</name>
													<valuemin>-360</valuemin>
													<valuemax>360</valuemax>
													<value>90</value>
												</parameter>
											</effect>
										</transitionitem>
										<transitionitem>
											<start>756</start>
											<end>785</end>
											<alignment>start-black</alignment>
											<cutPointTicks>0</cutPointTicks>
											<rate>
												<timebase>25</timebase>
												<ntsc>FALSE</ntsc>
											</rate>
											<effect>
												<name>Edge Wipe</name>
												<effectid>Edge Wipe</effectid>
												<effectcategory>Wipe</effectcategory>
												<effecttype>transition</effecttype>
												<mediatype>video</mediatype>
												<wipecode>2</wipecode>
												<wipeaccuracy>100</wipeaccuracy>
												<startratio>0</startratio>
												<endratio>1</endratio>
												<reverse>FALSE</reverse>
												<parameter authoringApp="PremierePro">
													<parameterid>directionofwipe</parameterid>
													<name>Angle</name>
													<valuemin>-360</valuemin>
													<valuemax>360</valuemax>
													<value>270</value>
												</parameter>
											</effect>
										</transitionitem>
										<clipitem id="clipitem-819">
											<masterclipid>masterclip-396</masterclipid>
											<name>4_3.png</name>
											<enabled>TRUE</enabled>
											<duration>1080000</duration>
											<rate>
												<timebase>25</timebase>
												<ntsc>FALSE</ntsc>
											</rate>
											<start>-1</start>
											<end>-1</end>
											<in>90011</in>
											<out>90375</out>
											<pproTicksIn>914569367040000</pproTicksIn>
											<pproTicksOut>918267840000000</pproTicksOut>
											<alphatype>straight</alphatype>
											<pixelaspectratio>square</pixelaspectratio>
											<anamorphic>FALSE</anamorphic>
											<file id="file-339">
												<name>4_3.png</name>
												<pathurl>file://localhost/_MUZ_TV/project_AP/RU/_TITLE/END/PNG/4_3.png</pathurl>
												<rate>
													<timebase>30</timebase>
													<ntsc>TRUE</ntsc>
												</rate>
												<timecode>
													<rate>
														<timebase>30</timebase>
														<ntsc>TRUE</ntsc>
													</rate>
													<string>00;00;00;00</string>
													<frame>0</frame>
													<displayformat>DF</displayformat>
												</timecode>
												<media>
													<video>
														<samplecharacteristics>
															<rate>
																<timebase>30</timebase>
																<ntsc>TRUE</ntsc>
															</rate>
															<width>1920</width>
															<height>1080</height>
															<anamorphic>FALSE</anamorphic>
															<pixelaspectratio>square</pixelaspectratio>
															<fielddominance>none</fielddominance>
														</samplecharacteristics>
													</video>
												</media>
											</file>
											<filter>
												<effect>
													<name>Basic Motion</name>
													<effectid>basic</effectid>
													<effectcategory>motion</effectcategory>
													<effecttype>motion</effecttype>
													<mediatype>video</mediatype>
													<pproBypass>false</pproBypass>
													<parameter authoringApp="PremierePro">
														<parameterid>scale</parameterid>
														<name>Scale</name>
														<valuemin>0</valuemin>
														<valuemax>1000</valuemax>
														<value>53.3333</value>
													</parameter>
													<parameter authoringApp="PremierePro">
														<parameterid>rotation</parameterid>
														<name>Rotation</name>
														<valuemin>-8640</valuemin>
														<valuemax>8640</valuemax>
														<value>0</value>
													</parameter>
													<parameter authoringApp="PremierePro">
														<parameterid>center</parameterid>
														<name>Center</name>
														<value>
															<horiz>0</horiz>
															<vert>0</vert>
														</value>
													</parameter>
													<parameter authoringApp="PremierePro">
														<parameterid>centerOffset</parameterid>
														<name>Anchor Point</name>
														<value>
															<horiz>0</horiz>
															<vert>0</vert>
														</value>
													</parameter>
													<parameter authoringApp="PremierePro">
														<parameterid>antiflicker</parameterid>
														<name>Anti-flicker Filter</name>
														<valuemin>0.0</valuemin>
														<valuemax>1.0</valuemax>
														<value>0</value>
													</parameter>
												</effect>
											</filter>
											<logginginfo>
												<description></description>
												<scene></scene>
												<shottake></shottake>
												<lognote></lognote>
												<good></good>
												<originalvideofilename></originalvideofilename>
												<originalaudiofilename></originalaudiofilename>
											</logginginfo>
											<colorinfo>
												<lut></lut>
												<lut1></lut1>
												<asc_sop></asc_sop>
												<asc_sat></asc_sat>
												<lut2></lut2>
											</colorinfo>
											<labels>
												<label2>Lavender</label2>
											</labels>
										</clipitem>
										<transitionitem>
											<start>1095</start>
											<end>1120</end>
											<alignment>end-black</alignment>
											<cutPointTicks>254016000000</cutPointTicks>
											<rate>
												<timebase>25</timebase>
												<ntsc>FALSE</ntsc>
											</rate>
											<effect>
												<name>Edge Wipe</name>
												<effectid>Edge Wipe</effectid>
												<effectcategory>Wipe</effectcategory>
												<effecttype>transition</effecttype>
												<mediatype>video</mediatype>
												<wipecode>2</wipecode>
												<wipeaccuracy>100</wipeaccuracy>
												<startratio>0</startratio>
												<endratio>1</endratio>
												<reverse>FALSE</reverse>
												<parameter authoringApp="PremierePro">
													<parameterid>directionofwipe</parameterid>
													<name>Angle</name>
													<valuemin>-360</valuemin>
													<valuemax>360</valuemax>
													<value>90</value>
												</parameter>
											</effect>
										</transitionitem>
										<enabled>TRUE</enabled>
										<locked>FALSE</locked>
									</track>
									<track TL.SQTrackShy="0" TL.SQTrackExpandedHeight="25" TL.SQTrackExpanded="0" MZ.TrackTargeted="0">
										<transitionitem>
											<start>755</start>
											<end>780</end>
											<alignment>start-black</alignment>
											<cutPointTicks>0</cutPointTicks>
											<rate>
												<timebase>25</timebase>
												<ntsc>FALSE</ntsc>
											</rate>
											<effect>
												<name>Edge Wipe</name>
												<effectid>Edge Wipe</effectid>
												<effectcategory>Wipe</effectcategory>
												<effecttype>transition</effecttype>
												<mediatype>video</mediatype>
												<wipecode>2</wipecode>
												<wipeaccuracy>100</wipeaccuracy>
												<startratio>0</startratio>
												<endratio>1</endratio>
												<reverse>FALSE</reverse>
												<parameter authoringApp="PremierePro">
													<parameterid>directionofwipe</parameterid>
													<name>Angle</name>
													<valuemin>-360</valuemin>
													<valuemax>360</valuemax>
													<value>270</value>
												</parameter>
											</effect>
										</transitionitem>
										<clipitem id="clipitem-820">
											<masterclipid>masterclip-397</masterclipid>
											<name>Graphic</name>
											<enabled>FALSE</enabled>
											<duration>1080000</duration>
											<rate>
												<timebase>25</timebase>
												<ntsc>FALSE</ntsc>
											</rate>
											<start>-1</start>
											<end>-1</end>
											<in>89905</in>
											<out>90272</out>
											<pproTicksIn>913492339200000</pproTicksIn>
											<pproTicksOut>917221294080000</pproTicksOut>
											<alphatype>straight</alphatype>
											<pixelaspectratio>PAL-601</pixelaspectratio>
											<anamorphic>TRUE</anamorphic>
											<file id="file-340">
												<name>Graphic</name>
												<mediaSource>GraphicAndType</mediaSource>
												<rate>
													<timebase>30</timebase>
													<ntsc>TRUE</ntsc>
												</rate>
												<timecode>
													<rate>
														<timebase>30</timebase>
														<ntsc>TRUE</ntsc>
													</rate>
													<string>00;00;00;00</string>
													<frame>0</frame>
													<displayformat>DF</displayformat>
												</timecode>
												<media>
													<video>
														<samplecharacteristics>
															<rate>
																<timebase>30</timebase>
																<ntsc>TRUE</ntsc>
															</rate>
															<width>720</width>
															<height>576</height>
															<anamorphic>TRUE</anamorphic>
															<pixelaspectratio>PAL-601</pixelaspectratio>
															<fielddominance>none</fielddominance>
														</samplecharacteristics>
													</video>
												</media>
											</file>
											<filter>
												<effect>
													<name>Vector Motion</name>
													<effectid>GraphicGroup</effectid>
													<effectcategory>graphic</effectcategory>
													<effecttype>filter</effecttype>
													<mediatype>video</mediatype>
													<pproBypass>false</pproBypass>
													<parameter authoringApp="PremierePro">
														<parameterid>1</parameterid>
														<name>Position</name>
														<IsTimeVarying>false</IsTimeVarying>
														<value>-91445760000000000,0.81693898908787344:0.49085601568222115,0,0,0,0,0,0,5,4,0,0,0,0</value>
													</parameter>
													<parameter authoringApp="PremierePro">
														<parameterid>2</parameterid>
														<name>Scale</name>
														<IsTimeVarying>false</IsTimeVarying>
														<ParameterControlType>2</ParameterControlType>
														<LowerBound>0</LowerBound>
														<UpperBound>10000</UpperBound>
														<UpperUIBound>200</UpperUIBound>
														<value>-91445760000000000,100.,0,0,0,0,0,0</value>
													</parameter>
													<parameter authoringApp="PremierePro">
														<parameterid>3</parameterid>
														<name>Scale Width</name>
														<IsTimeVarying>false</IsTimeVarying>
														<ParameterControlType>2</ParameterControlType>
														<LowerBound>0</LowerBound>
														<UpperBound>10000</UpperBound>
														<UpperUIBound>200</UpperUIBound>
														<value>-91445760000000000,100.,0,0,0,0,0,0</value>
													</parameter>
													<parameter authoringApp="PremierePro">
														<parameterid>4</parameterid>
														<name> </name>
														<IsTimeVarying>false</IsTimeVarying>
														<ParameterControlType>4</ParameterControlType>
														<LowerBound>false</LowerBound>
														<UpperBound>true</UpperBound>
														<value>-91445760000000000,true,0,0,0,0,0,0</value>
													</parameter>
													<parameter authoringApp="PremierePro">
														<parameterid>5</parameterid>
														<name>Rotation</name>
														<IsTimeVarying>false</IsTimeVarying>
														<ParameterControlType>3</ParameterControlType>
														<LowerBound>-32768</LowerBound>
														<UpperBound>32767</UpperBound>
														<value>-91445760000000000,0.,0,0,0,0,0,0</value>
													</parameter>
													<parameter authoringApp="PremierePro">
														<parameterid>6</parameterid>
														<name>Anchor Point</name>
														<IsTimeVarying>false</IsTimeVarying>
														<value>-91445760000000000,0.5:0.5,0,0,0,0,0,0,5,4,0,0,0,0</value>
													</parameter>
												</effect>
											</filter>
											<filter>
												<effect>
													<name>Данил Прытков признаётся, &#13;что сильные провалы &#13;мотивируют его на творчество &#13;не меньше, чем победы. </name>
													<effectid>GraphicAndType</effectid>
													<effectcategory>graphic</effectcategory>
													<effecttype>filter</effecttype>
													<mediatype>video</mediatype>
													<pproBypass>false</pproBypass>
													<pproExpanded>true</pproExpanded>
													<parameter authoringApp="PremierePro">
														<parameterid>1</parameterid>
														<name>Source Text</name>
														<hash>698123b5-7d57-7b79-efb1-b0df00000a31</hash>
													</parameter>
													<parameter authoringApp="PremierePro">
														<parameterid>2</parameterid>
														<name>Transform</name>
														<IsTimeVarying>false</IsTimeVarying>
														<ParameterControlType>11</ParameterControlType>
														<LowerBound>false</LowerBound>
														<UpperBound>false</UpperBound>
														<value>-91445760000000000,false,0,0,0,0,0,0</value>
													</parameter>
													<parameter authoringApp="PremierePro">
														<parameterid>3</parameterid>
														<name>Position</name>
														<IsTimeVarying>false</IsTimeVarying>
														<value>-91445760000000000,0.270416259765625:0.640594482421875,0,0,0,0,0,0,5,4,0,0,0,0</value>
													</parameter>
													<parameter authoringApp="PremierePro">
														<parameterid>4</parameterid>
														<name>Scale</name>
														<IsTimeVarying>false</IsTimeVarying>
														<ParameterControlType>2</ParameterControlType>
														<LowerBound>0</LowerBound>
														<UpperBound>4000</UpperBound>
														<value>-91445760000000000,100.,0,0,0,0,0,0</value>
													</parameter>
													<parameter authoringApp="PremierePro">
														<parameterid>5</parameterid>
														<name>Horizontal Scale</name>
														<IsTimeVarying>false</IsTimeVarying>
														<ParameterControlType>2</ParameterControlType>
														<LowerBound>0</LowerBound>
														<UpperBound>4000</UpperBound>
														<value>-91445760000000000,100.,0,0,0,0,0,0</value>
													</parameter>
													<parameter authoringApp="PremierePro">
														<parameterid>6</parameterid>
														<name> </name>
														<IsTimeVarying>false</IsTimeVarying>
														<ParameterControlType>4</ParameterControlType>
														<LowerBound>false</LowerBound>
														<UpperBound>true</UpperBound>
														<value>-91445760000000000,true,0,0,0,0,0,0</value>
													</parameter>
													<parameter authoringApp="PremierePro">
														<parameterid>7</parameterid>
														<name>Rotation</name>
														<IsTimeVarying>false</IsTimeVarying>
														<ParameterControlType>3</ParameterControlType>
														<LowerBound>-32768</LowerBound>
														<UpperBound>32767</UpperBound>
														<value>-91445760000000000,0.,0,0,0,0,0,0</value>
													</parameter>
													<parameter authoringApp="PremierePro">
														<parameterid>8</parameterid>
														<name>Opacity</name>
														<IsTimeVarying>false</IsTimeVarying>
														<ParameterControlType>2</ParameterControlType>
														<LowerBound>0</LowerBound>
														<UpperBound>100</UpperBound>
														<value>-91445760000000000,100.,0,0,0,0,0,0</value>
													</parameter>
													<parameter authoringApp="PremierePro">
														<parameterid>9</parameterid>
														<name>Anchor Point</name>
														<IsTimeVarying>false</IsTimeVarying>
														<value>-91445760000000000,0:0,0,0,0,0,0,0,5,4,0,0,0,0</value>
													</parameter>
													<parameter authoringApp="PremierePro">
														<parameterid>10</parameterid>
														<name></name>
														<IsTimeVarying>false</IsTimeVarying>
														<ParameterControlType>12</ParameterControlType>
														<LowerBound>false</LowerBound>
														<UpperBound>false</UpperBound>
														<value>-91445760000000000,false,0,0,0,0,0,0</value>
													</parameter>
													<parameter authoringApp="PremierePro">
														<parameterid>11</parameterid>
														<name> </name>
														<IsTimeVarying>false</IsTimeVarying>
														<ParameterControlType>8</ParameterControlType>
														<LowerBound>0</LowerBound>
														<UpperBound>32768</UpperBound>
														<value>-91445760000000000,0.,0,0,0,0,0,0</value>
													</parameter>
													<parameter authoringApp="PremierePro">
														<parameterid>12</parameterid>
														<name> </name>
														<IsTimeVarying>false</IsTimeVarying>
														<ParameterControlType>8</ParameterControlType>
														<LowerBound>0</LowerBound>
														<UpperBound>32768</UpperBound>
														<value>-91445760000000000,0.,0,0,0,0,0,0</value>
													</parameter>
													<parameter authoringApp="PremierePro">
														<parameterid>13</parameterid>
														<name>start</name>
														<IsTimeVarying>false</IsTimeVarying>
														<ParameterControlType>8</ParameterControlType>
														<LowerBound>-100</LowerBound>
														<UpperBound>1000000000</UpperBound>
														<value>-91445760000000000,0.,0,0,0,0,0,0</value>
													</parameter>
													<parameter authoringApp="PremierePro">
														<parameterid>14</parameterid>
														<name>end</name>
														<IsTimeVarying>false</IsTimeVarying>
														<ParameterControlType>8</ParameterControlType>
														<LowerBound>-100</LowerBound>
														<UpperBound>1000000000</UpperBound>
														<value>-91445760000000000,101.,0,0,0,0,0,0</value>
													</parameter>
													<parameter authoringApp="PremierePro">
														<parameterid>15</parameterid>
														<name> </name>
														<IsTimeVarying>false</IsTimeVarying>
														<ParameterControlType>4</ParameterControlType>
														<LowerBound>false</LowerBound>
														<UpperBound>true</UpperBound>
														<value>-91445760000000000,false,0,0,0,0,0,0</value>
													</parameter>
													<parameter authoringApp="PremierePro">
														<parameterid>16</parameterid>
														<name> </name>
														<IsTimeVarying>false</IsTimeVarying>
														<ParameterControlType>4</ParameterControlType>
														<LowerBound>false</LowerBound>
														<UpperBound>true</UpperBound>
														<value>-91445760000000000,false,0,0,0,0,0,0</value>
													</parameter>
													<parameter authoringApp="PremierePro">
														<parameterid>17</parameterid>
														<name> </name>
														<IsTimeVarying>false</IsTimeVarying>
														<ParameterControlType>4</ParameterControlType>
														<LowerBound>false</LowerBound>
														<UpperBound>true</UpperBound>
														<value>-91445760000000000,false,0,0,0,0,0,0</value>
													</parameter>
													<parameter authoringApp="PremierePro">
														<parameterid>18</parameterid>
														<name> </name>
														<IsTimeVarying>false</IsTimeVarying>
														<ParameterControlType>4</ParameterControlType>
														<LowerBound>false</LowerBound>
														<UpperBound>true</UpperBound>
														<value>-91445760000000000,false,0,0,0,0,0,0</value>
													</parameter>
													<parameter authoringApp="PremierePro">
														<parameterid>19</parameterid>
														<name>Parent Width</name>
														<IsTimeVarying>false</IsTimeVarying>
														<ParameterControlType>2</ParameterControlType>
														<LowerBound>0</LowerBound>
														<UpperBound>20000</UpperBound>
														<value>-91445760000000000,0.,0,0,0,0,0,0</value>
													</parameter>
													<parameter authoringApp="PremierePro">
														<parameterid>20</parameterid>
														<name>Parent Height</name>
														<IsTimeVarying>false</IsTimeVarying>
														<ParameterControlType>2</ParameterControlType>
														<LowerBound>0</LowerBound>
														<UpperBound>20000</UpperBound>
														<value>-91445760000000000,0.,0,0,0,0,0,0</value>
													</parameter>
													<parameter authoringApp="PremierePro">
														<parameterid>21</parameterid>
														<name>Parent Rotation</name>
														<IsTimeVarying>false</IsTimeVarying>
														<ParameterControlType>3</ParameterControlType>
														<LowerBound>-32768</LowerBound>
														<UpperBound>32767</UpperBound>
														<value>-91445760000000000,0.,0,0,0,0,0,0</value>
													</parameter>
												</effect>
											</filter>
											<logginginfo>
												<description></description>
												<scene></scene>
												<shottake></shottake>
												<lognote></lognote>
												<good></good>
												<originalvideofilename></originalvideofilename>
												<originalaudiofilename></originalaudiofilename>
											</logginginfo>
											<colorinfo>
												<lut></lut>
												<lut1></lut1>
												<asc_sop></asc_sop>
												<asc_sat></asc_sat>
												<lut2></lut2>
											</colorinfo>
										</clipitem>
										<transitionitem>
											<start>1097</start>
											<end>1122</end>
											<alignment>end-black</alignment>
											<cutPointTicks>254016000000</cutPointTicks>
											<rate>
												<timebase>25</timebase>
												<ntsc>FALSE</ntsc>
											</rate>
											<effect>
												<name>Edge Wipe</name>
												<effectid>Edge Wipe</effectid>
												<effectcategory>Wipe</effectcategory>
												<effecttype>transition</effecttype>
												<mediatype>video</mediatype>
												<wipecode>2</wipecode>
												<wipeaccuracy>100</wipeaccuracy>
												<startratio>0</startratio>
												<endratio>1</endratio>
												<reverse>FALSE</reverse>
												<parameter authoringApp="PremierePro">
													<parameterid>directionofwipe</parameterid>
													<name>Angle</name>
													<valuemin>-360</valuemin>
													<valuemax>360</valuemax>
													<value>90</value>
												</parameter>
											</effect>
										</transitionitem>
										<enabled>TRUE</enabled>
										<locked>FALSE</locked>
									</track>
								</video>
								<audio>
									<numOutputChannels>2</numOutputChannels>
									<format>
										<samplecharacteristics>
											<depth>16</depth>
											<samplerate>48000</samplerate>
										</samplecharacteristics>
									</format>
									<outputs>
										<group>
											<index>1</index>
											<numchannels>1</numchannels>
											<downmix>0</downmix>
											<channel>
												<index>1</index>
											</channel>
										</group>
										<group>
											<index>2</index>
											<numchannels>1</numchannels>
											<downmix>0</downmix>
											<channel>
												<index>2</index>
											</channel>
										</group>
									</outputs>
									<track TL.SQTrackAudioKeyframeStyle="0" TL.SQTrackShy="0" TL.SQTrackExpandedHeight="25" TL.SQTrackExpanded="0" MZ.TrackTargeted="1" PannerCurrentValue="0.5" PannerStartKeyframe="-91445760000000000,0.5,0,0,0,0,0,0" PannerName="Balance" currentExplodedTrackIndex="0" totalExplodedTrackCount="2" premiereTrackType="Stereo">
										<enabled>TRUE</enabled>
										<locked>FALSE</locked>
										<outputchannelindex>1</outputchannelindex>
									</track>
									<track TL.SQTrackAudioKeyframeStyle="0" TL.SQTrackShy="0" TL.SQTrackExpandedHeight="25" TL.SQTrackExpanded="0" MZ.TrackTargeted="1" PannerCurrentValue="0.5" PannerStartKeyframe="-91445760000000000,0.5,0,0,0,0,0,0" PannerName="Balance" currentExplodedTrackIndex="1" totalExplodedTrackCount="2" premiereTrackType="Stereo">
										<enabled>TRUE</enabled>
										<locked>FALSE</locked>
										<outputchannelindex>2</outputchannelindex>
									</track>
								</audio>
							</media>
							<timecode>
								<rate>
									<timebase>25</timebase>
									<ntsc>FALSE</ntsc>
								</rate>
								<string>00:00:00:00</string>
								<frame>0</frame>
								<displayformat>NDF</displayformat>
							</timecode>
								<marker>
									<comment></comment>
									<name></name>
									<in>425</in>
									<out>-1</out>
									<pproColor>4292277273</pproColor>
								</marker>
								<marker>
									<comment></comment>
									<name></name>
									<in>800</in>
									<out>-1</out>
									<pproColor>4292277273</pproColor>
								</marker>
								<marker>
									<comment></comment>
									<name></name>
									<in>50</in>
									<out>-1</out>
									<pproColor>4292277273</pproColor>
								</marker>
							<logginginfo>
								<description></description>
								<scene></scene>
								<shottake></shottake>
								<lognote></lognote>
								<good></good>
								<originalvideofilename></originalvideofilename>
								<originalaudiofilename></originalaudiofilename>
							</logginginfo>
						</sequence>
							<marker>
								<comment></comment>
								<name></name>
								<in>425</in>
								<out>-1</out>
								<pproColor>4292277273</pproColor>
							</marker>
							<marker>
								<comment></comment>
								<name></name>
								<in>800</in>
								<out>-1</out>
								<pproColor>4292277273</pproColor>
							</marker>
							<marker>
								<comment></comment>
								<name></name>
								<in>50</in>
								<out>-1</out>
								<pproColor>4292277273</pproColor>
							</marker>
						<labels>
							<label2>Forest</label2>
						</labels>
					</clipitem>
					<clipitem id="clipitem-821">
						<masterclipid>masterclip-392</masterclipid>
						<name>4</name>
						<enabled>TRUE</enabled>
						<duration>1125</duration>
						<rate>
							<timebase>25</timebase>
							<ntsc>FALSE</ntsc>
						</rate>
						<start>47007</start>
						<end>47382</end>
						<in>375</in>
						<out>750</out>
						<pproTicksIn>3810240000000</pproTicksIn>
						<pproTicksOut>7620480000000</pproTicksOut>
						<sequence id="sequence-61"/>
							<marker>
								<comment></comment>
								<name></name>
								<in>425</in>
								<out>-1</out>
								<pproColor>4292277273</pproColor>
							</marker>
							<marker>
								<comment></comment>
								<name></name>
								<in>800</in>
								<out>-1</out>
								<pproColor>4292277273</pproColor>
							</marker>
							<marker>
								<comment></comment>
								<name></name>
								<in>50</in>
								<out>-1</out>
								<pproColor>4292277273</pproColor>
							</marker>
						<labels>
							<label2>Forest</label2>
						</labels>
					</clipitem>
					<clipitem id="clipitem-822">
						<masterclipid>masterclip-392</masterclipid>
						<name>4</name>
						<enabled>TRUE</enabled>
						<duration>1125</duration>
						<rate>
							<timebase>25</timebase>
							<ntsc>FALSE</ntsc>
						</rate>
						<start>48385</start>
						<end>48760</end>
						<in>750</in>
						<out>1125</out>
						<pproTicksIn>7620480000000</pproTicksIn>
						<pproTicksOut>11430720000000</pproTicksOut>
						<sequence id="sequence-61"/>
							<marker>
								<comment></comment>
								<name></name>
								<in>425</in>
								<out>-1</out>
								<pproColor>4292277273</pproColor>
							</marker>
							<marker>
								<comment></comment>
								<name></name>
								<in>800</in>
								<out>-1</out>
								<pproColor>4292277273</pproColor>
							</marker>
							<marker>
								<comment></comment>
								<name></name>
								<in>50</in>
								<out>-1</out>
								<pproColor>4292277273</pproColor>
							</marker>
						<labels>
							<label2>Forest</label2>
						</labels>
					</clipitem>
					<clipitem id="clipitem-823">
						<masterclipid>masterclip-398</masterclipid>
						<name>3</name>
						<enabled>TRUE</enabled>
						<duration>1125</duration>
						<rate>
							<timebase>25</timebase>
							<ntsc>FALSE</ntsc>
						</rate>
						<start>51528</start>
						<end>51903</end>
						<in>0</in>
						<out>375</out>
						<pproTicksIn>0</pproTicksIn>
						<pproTicksOut>3810240000000</pproTicksOut>
						<sequence id="sequence-62" TL.SQAudioVisibleBase="0" TL.SQVideoVisibleBase="0" TL.SQVisibleBaseTime="0" TL.SQAVDividerPosition="0.5" TL.SQHideShyTracks="0" TL.SQHeaderWidth="236" Monitor.ProgramZoomOut="11430720000000" Monitor.ProgramZoomIn="0" TL.SQTimePerPixel="0.19620667102680808" AM.TrackVScrollPosition="0" AM.TrackScrollPosition="0" MZ.EditLine="9469716480000" MZ.Sequence.PreviewFrameSizeHeight="576" MZ.Sequence.PreviewFrameSizeWidth="720" MZ.Sequence.AudioTimeDisplayFormat="200" MZ.Sequence.PreviewRenderingClassID="1061109567" MZ.Sequence.PreviewRenderingPresetCodec="1685480304" MZ.Sequence.PreviewRenderingPresetPath="EncoderPresets/SequencePreview/04be6e19-a018-4e0c-a9d6-0ab44c64752b/QuickTime DV PAL.epr" MZ.Sequence.PreviewUseMaxRenderQuality="false" MZ.Sequence.PreviewUseMaxBitDepth="false" MZ.Sequence.EditingModeGUID="04be6e19-a018-4e0c-a9d6-0ab44c64752b" MZ.Sequence.VideoTimeDisplayFormat="101" MZ.WorkOutPoint="11430720000000" MZ.WorkInPoint="0" MZ.ZeroPoint="0">
							<duration>1125</duration>
							<rate>
								<timebase>25</timebase>
								<ntsc>FALSE</ntsc>
							</rate>
							<name>RU_Nested</name>
							<media>
								<video>
									<format>
										<samplecharacteristics>
											<rate>
												<timebase>25</timebase>
												<ntsc>FALSE</ntsc>
											</rate>
											<codec>
												<name>Apple ProRes 422</name>
												<appspecificdata>
													<appname>Final Cut Pro</appname>
													<appmanufacturer>Apple Inc.</appmanufacturer>
													<appversion>7.0</appversion>
													<data>
														<qtcodec>
															<codecname>Apple ProRes 422</codecname>
															<codectypename>Apple ProRes 422</codectypename>
															<codectypecode>apcn</codectypecode>
															<codecvendorcode>appl</codecvendorcode>
															<spatialquality>1024</spatialquality>
															<temporalquality>0</temporalquality>
															<keyframerate>0</keyframerate>
															<datarate>0</datarate>
														</qtcodec>
													</data>
												</appspecificdata>
											</codec>
											<width>720</width>
											<height>576</height>
											<anamorphic>TRUE</anamorphic>
											<pixelaspectratio>PAL-601</pixelaspectratio>
											<fielddominance>lower</fielddominance>
											<colordepth>24</colordepth>
										</samplecharacteristics>
									</format>
									<track TL.SQTrackShy="0" TL.SQTrackExpandedHeight="25" TL.SQTrackExpanded="0" MZ.TrackTargeted="1">
										<clipitem id="clipitem-824">
											<masterclipid>masterclip-399</masterclipid>
											<name>Plashka_Right_DV.mov</name>
											<enabled>TRUE</enabled>
											<duration>375</duration>
											<rate>
												<timebase>25</timebase>
												<ntsc>FALSE</ntsc>
											</rate>
											<start>0</start>
											<end>375</end>
											<in>0</in>
											<out>375</out>
											<pproTicksIn>0</pproTicksIn>
											<pproTicksOut>3810240000000</pproTicksOut>
											<alphatype>straight</alphatype>
											<pixelaspectratio>PAL-601</pixelaspectratio>
											<anamorphic>TRUE</anamorphic>
											<file id="file-341">
												<name>Plashka_Right_DV.mov</name>
												<pathurl>file://localhost/Volumes/1Tb/_MUZ_TV/graphika/RU-21/MOD/Plashka_Right_DV.mov</pathurl>
												<rate>
													<timebase>25</timebase>
													<ntsc>FALSE</ntsc>
												</rate>
												<duration>375</duration>
												<timecode>
													<rate>
														<timebase>25</timebase>
														<ntsc>FALSE</ntsc>
													</rate>
													<string>00:00:15:10</string>
													<frame>385</frame>
													<displayformat>NDF</displayformat>
												</timecode>
												<media>
													<video>
														<samplecharacteristics>
															<rate>
																<timebase>25</timebase>
																<ntsc>FALSE</ntsc>
															</rate>
															<width>720</width>
															<height>576</height>
															<anamorphic>TRUE</anamorphic>
															<pixelaspectratio>PAL-601</pixelaspectratio>
															<fielddominance>lower</fielddominance>
														</samplecharacteristics>
													</video>
												</media>
											</file>
											<filter>
												<effect>
													<name>Basic Motion</name>
													<effectid>basic</effectid>
													<effectcategory>motion</effectcategory>
													<effecttype>motion</effecttype>
													<mediatype>video</mediatype>
													<pproBypass>false</pproBypass>
													<parameter authoringApp="PremierePro">
														<parameterid>scale</parameterid>
														<name>Scale</name>
														<valuemin>0</valuemin>
														<valuemax>1000</valuemax>
														<value>100</value>
													</parameter>
													<parameter authoringApp="PremierePro">
														<parameterid>rotation</parameterid>
														<name>Rotation</name>
														<valuemin>-8640</valuemin>
														<valuemax>8640</valuemax>
														<value>0</value>
													</parameter>
													<parameter authoringApp="PremierePro">
														<parameterid>center</parameterid>
														<name>Center</name>
														<value>
															<horiz>-5.55112e-17</horiz>
															<vert>-1.11022e-16</vert>
														</value>
													</parameter>
													<parameter authoringApp="PremierePro">
														<parameterid>centerOffset</parameterid>
														<name>Anchor Point</name>
														<value>
															<horiz>0.402314</horiz>
															<vert>0.41875</vert>
														</value>
													</parameter>
													<parameter authoringApp="PremierePro">
														<parameterid>antiflicker</parameterid>
														<name>Anti-flicker Filter</name>
														<valuemin>0.0</valuemin>
														<valuemax>1.0</valuemax>
														<value>0</value>
													</parameter>
												</effect>
											</filter>
											<filter>
												<effect>
													<name>Distort</name>
													<effectid>deformation</effectid>
													<effectcategory>motion</effectcategory>
													<effecttype>motion</effecttype>
													<mediatype>video</mediatype>
													<parameter authoringApp="PremierePro">
														<parameterid>aspect</parameterid>
														<name>Aspect</name>
														<valuemin>-10000</valuemin>
														<valuemax>10000</valuemax>
														<value>23.4568</value>
													</parameter>
												</effect>
											</filter>
											<logginginfo>
												<description></description>
												<scene></scene>
												<shottake></shottake>
												<lognote></lognote>
												<good></good>
												<originalvideofilename></originalvideofilename>
												<originalaudiofilename></originalaudiofilename>
											</logginginfo>
											<colorinfo>
												<lut></lut>
												<lut1></lut1>
												<asc_sop></asc_sop>
												<asc_sat></asc_sat>
												<lut2></lut2>
											</colorinfo>
											<labels>
												<label2>Violet</label2>
											</labels>
										</clipitem>
										<clipitem id="clipitem-825">
											<masterclipid>masterclip-399</masterclipid>
											<name>Plashka_Right_DV.mov</name>
											<enabled>TRUE</enabled>
											<duration>375</duration>
											<rate>
												<timebase>25</timebase>
												<ntsc>FALSE</ntsc>
											</rate>
											<start>375</start>
											<end>750</end>
											<in>0</in>
											<out>375</out>
											<pproTicksIn>0</pproTicksIn>
											<pproTicksOut>3810240000000</pproTicksOut>
											<alphatype>straight</alphatype>
											<file id="file-341"/>
											<filter>
												<effect>
													<name>Basic Motion</name>
													<effectid>basic</effectid>
													<effectcategory>motion</effectcategory>
													<effecttype>motion</effecttype>
													<mediatype>video</mediatype>
													<pproBypass>false</pproBypass>
													<parameter authoringApp="PremierePro">
														<parameterid>scale</parameterid>
														<name>Scale</name>
														<valuemin>0</valuemin>
														<valuemax>1000</valuemax>
														<value>100</value>
													</parameter>
													<parameter authoringApp="PremierePro">
														<parameterid>rotation</parameterid>
														<name>Rotation</name>
														<valuemin>-8640</valuemin>
														<valuemax>8640</valuemax>
														<value>0</value>
													</parameter>
													<parameter authoringApp="PremierePro">
														<parameterid>center</parameterid>
														<name>Center</name>
														<value>
															<horiz>-5.55112e-17</horiz>
															<vert>-1.11022e-16</vert>
														</value>
													</parameter>
													<parameter authoringApp="PremierePro">
														<parameterid>centerOffset</parameterid>
														<name>Anchor Point</name>
														<value>
															<horiz>0.402314</horiz>
															<vert>0.41875</vert>
														</value>
													</parameter>
													<parameter authoringApp="PremierePro">
														<parameterid>antiflicker</parameterid>
														<name>Anti-flicker Filter</name>
														<valuemin>0.0</valuemin>
														<valuemax>1.0</valuemax>
														<value>0</value>
													</parameter>
												</effect>
											</filter>
											<filter>
												<effect>
													<name>Distort</name>
													<effectid>deformation</effectid>
													<effectcategory>motion</effectcategory>
													<effecttype>motion</effecttype>
													<mediatype>video</mediatype>
													<parameter authoringApp="PremierePro">
														<parameterid>aspect</parameterid>
														<name>Aspect</name>
														<valuemin>-10000</valuemin>
														<valuemax>10000</valuemax>
														<value>7.52688</value>
													</parameter>
												</effect>
											</filter>
											<logginginfo>
												<description></description>
												<scene></scene>
												<shottake></shottake>
												<lognote></lognote>
												<good></good>
												<originalvideofilename></originalvideofilename>
												<originalaudiofilename></originalaudiofilename>
											</logginginfo>
											<colorinfo>
												<lut></lut>
												<lut1></lut1>
												<asc_sop></asc_sop>
												<asc_sat></asc_sat>
												<lut2></lut2>
											</colorinfo>
											<labels>
												<label2>Violet</label2>
											</labels>
										</clipitem>
										<clipitem id="clipitem-826">
											<masterclipid>masterclip-399</masterclipid>
											<name>Plashka_Right_DV.mov</name>
											<enabled>TRUE</enabled>
											<duration>375</duration>
											<rate>
												<timebase>25</timebase>
												<ntsc>FALSE</ntsc>
											</rate>
											<start>750</start>
											<end>1125</end>
											<in>0</in>
											<out>375</out>
											<pproTicksIn>0</pproTicksIn>
											<pproTicksOut>3810240000000</pproTicksOut>
											<alphatype>straight</alphatype>
											<file id="file-341"/>
											<filter>
												<effect>
													<name>Basic Motion</name>
													<effectid>basic</effectid>
													<effectcategory>motion</effectcategory>
													<effecttype>motion</effecttype>
													<mediatype>video</mediatype>
													<pproBypass>false</pproBypass>
													<parameter authoringApp="PremierePro">
														<parameterid>scale</parameterid>
														<name>Scale</name>
														<valuemin>0</valuemin>
														<valuemax>1000</valuemax>
														<value>100</value>
													</parameter>
													<parameter authoringApp="PremierePro">
														<parameterid>rotation</parameterid>
														<name>Rotation</name>
														<valuemin>-8640</valuemin>
														<valuemax>8640</valuemax>
														<value>0</value>
													</parameter>
													<parameter authoringApp="PremierePro">
														<parameterid>center</parameterid>
														<name>Center</name>
														<value>
															<horiz>-5.55112e-17</horiz>
															<vert>-1.11022e-16</vert>
														</value>
													</parameter>
													<parameter authoringApp="PremierePro">
														<parameterid>centerOffset</parameterid>
														<name>Anchor Point</name>
														<value>
															<horiz>0.402314</horiz>
															<vert>0.41875</vert>
														</value>
													</parameter>
													<parameter authoringApp="PremierePro">
														<parameterid>antiflicker</parameterid>
														<name>Anti-flicker Filter</name>
														<valuemin>0.0</valuemin>
														<valuemax>1.0</valuemax>
														<value>0</value>
													</parameter>
												</effect>
											</filter>
											<filter>
												<effect>
													<name>Distort</name>
													<effectid>deformation</effectid>
													<effectcategory>motion</effectcategory>
													<effecttype>motion</effecttype>
													<mediatype>video</mediatype>
													<parameter authoringApp="PremierePro">
														<parameterid>aspect</parameterid>
														<name>Aspect</name>
														<valuemin>-10000</valuemin>
														<valuemax>10000</valuemax>
														<value>13.6364</value>
													</parameter>
												</effect>
											</filter>
											<logginginfo>
												<description></description>
												<scene></scene>
												<shottake></shottake>
												<lognote></lognote>
												<good></good>
												<originalvideofilename></originalvideofilename>
												<originalaudiofilename></originalaudiofilename>
											</logginginfo>
											<colorinfo>
												<lut></lut>
												<lut1></lut1>
												<asc_sop></asc_sop>
												<asc_sat></asc_sat>
												<lut2></lut2>
											</colorinfo>
											<labels>
												<label2>Violet</label2>
											</labels>
										</clipitem>
										<enabled>TRUE</enabled>
										<locked>FALSE</locked>
									</track>
									<track TL.SQTrackShy="0" TL.SQTrackExpandedHeight="25" TL.SQTrackExpanded="0" MZ.TrackTargeted="0">
										<transitionitem>
											<start>6</start>
											<end>35</end>
											<alignment>start-black</alignment>
											<cutPointTicks>0</cutPointTicks>
											<rate>
												<timebase>25</timebase>
												<ntsc>FALSE</ntsc>
											</rate>
											<effect>
												<name>Edge Wipe</name>
												<effectid>Edge Wipe</effectid>
												<effectcategory>Wipe</effectcategory>
												<effecttype>transition</effecttype>
												<mediatype>video</mediatype>
												<wipecode>2</wipecode>
												<wipeaccuracy>100</wipeaccuracy>
												<startratio>0</startratio>
												<endratio>1</endratio>
												<reverse>FALSE</reverse>
												<parameter authoringApp="PremierePro">
													<parameterid>directionofwipe</parameterid>
													<name>Angle</name>
													<valuemin>-360</valuemin>
													<valuemax>360</valuemax>
													<value>270</value>
												</parameter>
											</effect>
										</transitionitem>
										<clipitem id="clipitem-827">
											<masterclipid>masterclip-400</masterclipid>
											<name>3_1.png</name>
											<enabled>TRUE</enabled>
											<duration>1080000</duration>
											<rate>
												<timebase>25</timebase>
												<ntsc>FALSE</ntsc>
											</rate>
											<start>-1</start>
											<end>-1</end>
											<in>90006</in>
											<out>90369</out>
											<pproTicksIn>914518563840000</pproTicksIn>
											<pproTicksOut>918206876160000</pproTicksOut>
											<alphatype>straight</alphatype>
											<pixelaspectratio>square</pixelaspectratio>
											<anamorphic>FALSE</anamorphic>
											<file id="file-342">
												<name>3_1.png</name>
												<pathurl>file://localhost/_MUZ_TV/project_AP/RU/_TITLE/END/PNG/3_1.png</pathurl>
												<rate>
													<timebase>30</timebase>
													<ntsc>TRUE</ntsc>
												</rate>
												<timecode>
													<rate>
														<timebase>30</timebase>
														<ntsc>TRUE</ntsc>
													</rate>
													<string>00;00;00;00</string>
													<frame>0</frame>
													<displayformat>DF</displayformat>
												</timecode>
												<media>
													<video>
														<samplecharacteristics>
															<rate>
																<timebase>30</timebase>
																<ntsc>TRUE</ntsc>
															</rate>
															<width>1920</width>
															<height>1080</height>
															<anamorphic>FALSE</anamorphic>
															<pixelaspectratio>square</pixelaspectratio>
															<fielddominance>none</fielddominance>
														</samplecharacteristics>
													</video>
												</media>
											</file>
											<filter>
												<effect>
													<name>Basic Motion</name>
													<effectid>basic</effectid>
													<effectcategory>motion</effectcategory>
													<effecttype>motion</effecttype>
													<mediatype>video</mediatype>
													<pproBypass>false</pproBypass>
													<parameter authoringApp="PremierePro">
														<parameterid>scale</parameterid>
														<name>Scale</name>
														<valuemin>0</valuemin>
														<valuemax>1000</valuemax>
														<value>53.3333</value>
													</parameter>
													<parameter authoringApp="PremierePro">
														<parameterid>rotation</parameterid>
														<name>Rotation</name>
														<valuemin>-8640</valuemin>
														<valuemax>8640</valuemax>
														<value>0</value>
													</parameter>
													<parameter authoringApp="PremierePro">
														<parameterid>center</parameterid>
														<name>Center</name>
														<value>
															<horiz>0</horiz>
															<vert>0</vert>
														</value>
													</parameter>
													<parameter authoringApp="PremierePro">
														<parameterid>centerOffset</parameterid>
														<name>Anchor Point</name>
														<value>
															<horiz>0</horiz>
															<vert>0</vert>
														</value>
													</parameter>
													<parameter authoringApp="PremierePro">
														<parameterid>antiflicker</parameterid>
														<name>Anti-flicker Filter</name>
														<valuemin>0.0</valuemin>
														<valuemax>1.0</valuemax>
														<value>0</value>
													</parameter>
												</effect>
											</filter>
											<logginginfo>
												<description></description>
												<scene></scene>
												<shottake></shottake>
												<lognote></lognote>
												<good></good>
												<originalvideofilename></originalvideofilename>
												<originalaudiofilename></originalaudiofilename>
											</logginginfo>
											<colorinfo>
												<lut></lut>
												<lut1></lut1>
												<asc_sop></asc_sop>
												<asc_sat></asc_sat>
												<lut2></lut2>
											</colorinfo>
											<labels>
												<label2>Lavender</label2>
											</labels>
										</clipitem>
										<transitionitem>
											<start>344</start>
											<end>369</end>
											<alignment>end-black</alignment>
											<cutPointTicks>254016000000</cutPointTicks>
											<rate>
												<timebase>25</timebase>
												<ntsc>FALSE</ntsc>
											</rate>
											<effect>
												<name>Edge Wipe</name>
												<effectid>Edge Wipe</effectid>
												<effectcategory>Wipe</effectcategory>
												<effecttype>transition</effecttype>
												<mediatype>video</mediatype>
												<wipecode>2</wipecode>
												<wipeaccuracy>100</wipeaccuracy>
												<startratio>0</startratio>
												<endratio>1</endratio>
												<reverse>FALSE</reverse>
												<parameter authoringApp="PremierePro">
													<parameterid>directionofwipe</parameterid>
													<name>Angle</name>
													<valuemin>-360</valuemin>
													<valuemax>360</valuemax>
													<value>90</value>
												</parameter>
											</effect>
										</transitionitem>
										<transitionitem>
											<start>381</start>
											<end>410</end>
											<alignment>start-black</alignment>
											<cutPointTicks>0</cutPointTicks>
											<rate>
												<timebase>25</timebase>
												<ntsc>FALSE</ntsc>
											</rate>
											<effect>
												<name>Edge Wipe</name>
												<effectid>Edge Wipe</effectid>
												<effectcategory>Wipe</effectcategory>
												<effecttype>transition</effecttype>
												<mediatype>video</mediatype>
												<wipecode>2</wipecode>
												<wipeaccuracy>100</wipeaccuracy>
												<startratio>0</startratio>
												<endratio>1</endratio>
												<reverse>FALSE</reverse>
												<parameter authoringApp="PremierePro">
													<parameterid>directionofwipe</parameterid>
													<name>Angle</name>
													<valuemin>-360</valuemin>
													<valuemax>360</valuemax>
													<value>270</value>
												</parameter>
											</effect>
										</transitionitem>
										<clipitem id="clipitem-828">
											<masterclipid>masterclip-401</masterclipid>
											<name>3_2.png</name>
											<enabled>TRUE</enabled>
											<duration>1080000</duration>
											<rate>
												<timebase>25</timebase>
												<ntsc>FALSE</ntsc>
											</rate>
											<start>-1</start>
											<end>-1</end>
											<in>90011</in>
											<out>90374</out>
											<pproTicksIn>914569367040000</pproTicksIn>
											<pproTicksOut>918257679360000</pproTicksOut>
											<alphatype>straight</alphatype>
											<pixelaspectratio>square</pixelaspectratio>
											<anamorphic>FALSE</anamorphic>
											<file id="file-343">
												<name>3_2.png</name>
												<pathurl>file://localhost/_MUZ_TV/project_AP/RU/_TITLE/END/PNG/3_2.png</pathurl>
												<rate>
													<timebase>30</timebase>
													<ntsc>TRUE</ntsc>
												</rate>
												<timecode>
													<rate>
														<timebase>30</timebase>
														<ntsc>TRUE</ntsc>
													</rate>
													<string>00;00;00;00</string>
													<frame>0</frame>
													<displayformat>DF</displayformat>
												</timecode>
												<media>
													<video>
														<samplecharacteristics>
															<rate>
																<timebase>30</timebase>
																<ntsc>TRUE</ntsc>
															</rate>
															<width>1920</width>
															<height>1080</height>
															<anamorphic>FALSE</anamorphic>
															<pixelaspectratio>square</pixelaspectratio>
															<fielddominance>none</fielddominance>
														</samplecharacteristics>
													</video>
												</media>
											</file>
											<filter>
												<effect>
													<name>Basic Motion</name>
													<effectid>basic</effectid>
													<effectcategory>motion</effectcategory>
													<effecttype>motion</effecttype>
													<mediatype>video</mediatype>
													<pproBypass>false</pproBypass>
													<parameter authoringApp="PremierePro">
														<parameterid>scale</parameterid>
														<name>Scale</name>
														<valuemin>0</valuemin>
														<valuemax>1000</valuemax>
														<value>53.3333</value>
													</parameter>
													<parameter authoringApp="PremierePro">
														<parameterid>rotation</parameterid>
														<name>Rotation</name>
														<valuemin>-8640</valuemin>
														<valuemax>8640</valuemax>
														<value>0</value>
													</parameter>
													<parameter authoringApp="PremierePro">
														<parameterid>center</parameterid>
														<name>Center</name>
														<value>
															<horiz>0</horiz>
															<vert>0</vert>
														</value>
													</parameter>
													<parameter authoringApp="PremierePro">
														<parameterid>centerOffset</parameterid>
														<name>Anchor Point</name>
														<value>
															<horiz>0</horiz>
															<vert>0</vert>
														</value>
													</parameter>
													<parameter authoringApp="PremierePro">
														<parameterid>antiflicker</parameterid>
														<name>Anti-flicker Filter</name>
														<valuemin>0.0</valuemin>
														<valuemax>1.0</valuemax>
														<value>0</value>
													</parameter>
												</effect>
											</filter>
											<logginginfo>
												<description></description>
												<scene></scene>
												<shottake></shottake>
												<lognote></lognote>
												<good></good>
												<originalvideofilename></originalvideofilename>
												<originalaudiofilename></originalaudiofilename>
											</logginginfo>
											<colorinfo>
												<lut></lut>
												<lut1></lut1>
												<asc_sop></asc_sop>
												<asc_sat></asc_sat>
												<lut2></lut2>
											</colorinfo>
											<labels>
												<label2>Lavender</label2>
											</labels>
										</clipitem>
										<transitionitem>
											<start>719</start>
											<end>744</end>
											<alignment>end-black</alignment>
											<cutPointTicks>254016000000</cutPointTicks>
											<rate>
												<timebase>25</timebase>
												<ntsc>FALSE</ntsc>
											</rate>
											<effect>
												<name>Edge Wipe</name>
												<effectid>Edge Wipe</effectid>
												<effectcategory>Wipe</effectcategory>
												<effecttype>transition</effecttype>
												<mediatype>video</mediatype>
												<wipecode>2</wipecode>
												<wipeaccuracy>100</wipeaccuracy>
												<startratio>0</startratio>
												<endratio>1</endratio>
												<reverse>FALSE</reverse>
												<parameter authoringApp="PremierePro">
													<parameterid>directionofwipe</parameterid>
													<name>Angle</name>
													<valuemin>-360</valuemin>
													<valuemax>360</valuemax>
													<value>90</value>
												</parameter>
											</effect>
										</transitionitem>
										<transitionitem>
											<start>756</start>
											<end>785</end>
											<alignment>start-black</alignment>
											<cutPointTicks>0</cutPointTicks>
											<rate>
												<timebase>25</timebase>
												<ntsc>FALSE</ntsc>
											</rate>
											<effect>
												<name>Edge Wipe</name>
												<effectid>Edge Wipe</effectid>
												<effectcategory>Wipe</effectcategory>
												<effecttype>transition</effecttype>
												<mediatype>video</mediatype>
												<wipecode>2</wipecode>
												<wipeaccuracy>100</wipeaccuracy>
												<startratio>0</startratio>
												<endratio>1</endratio>
												<reverse>FALSE</reverse>
												<parameter authoringApp="PremierePro">
													<parameterid>directionofwipe</parameterid>
													<name>Angle</name>
													<valuemin>-360</valuemin>
													<valuemax>360</valuemax>
													<value>270</value>
												</parameter>
											</effect>
										</transitionitem>
										<clipitem id="clipitem-829">
											<masterclipid>masterclip-402</masterclipid>
											<name>3_3.png</name>
											<enabled>TRUE</enabled>
											<duration>1080000</duration>
											<rate>
												<timebase>25</timebase>
												<ntsc>FALSE</ntsc>
											</rate>
											<start>-1</start>
											<end>-1</end>
											<in>90011</in>
											<out>90375</out>
											<pproTicksIn>914569367040000</pproTicksIn>
											<pproTicksOut>918267840000000</pproTicksOut>
											<alphatype>straight</alphatype>
											<pixelaspectratio>square</pixelaspectratio>
											<anamorphic>FALSE</anamorphic>
											<file id="file-344">
												<name>3_3.png</name>
												<pathurl>file://localhost/_MUZ_TV/project_AP/RU/_TITLE/END/PNG/3_3.png</pathurl>
												<rate>
													<timebase>30</timebase>
													<ntsc>TRUE</ntsc>
												</rate>
												<timecode>
													<rate>
														<timebase>30</timebase>
														<ntsc>TRUE</ntsc>
													</rate>
													<string>00;00;00;00</string>
													<frame>0</frame>
													<displayformat>DF</displayformat>
												</timecode>
												<media>
													<video>
														<samplecharacteristics>
															<rate>
																<timebase>30</timebase>
																<ntsc>TRUE</ntsc>
															</rate>
															<width>1920</width>
															<height>1080</height>
															<anamorphic>FALSE</anamorphic>
															<pixelaspectratio>square</pixelaspectratio>
															<fielddominance>none</fielddominance>
														</samplecharacteristics>
													</video>
												</media>
											</file>
											<filter>
												<effect>
													<name>Basic Motion</name>
													<effectid>basic</effectid>
													<effectcategory>motion</effectcategory>
													<effecttype>motion</effecttype>
													<mediatype>video</mediatype>
													<pproBypass>false</pproBypass>
													<parameter authoringApp="PremierePro">
														<parameterid>scale</parameterid>
														<name>Scale</name>
														<valuemin>0</valuemin>
														<valuemax>1000</valuemax>
														<value>53.3333</value>
													</parameter>
													<parameter authoringApp="PremierePro">
														<parameterid>rotation</parameterid>
														<name>Rotation</name>
														<valuemin>-8640</valuemin>
														<valuemax>8640</valuemax>
														<value>0</value>
													</parameter>
													<parameter authoringApp="PremierePro">
														<parameterid>center</parameterid>
														<name>Center</name>
														<value>
															<horiz>0</horiz>
															<vert>0</vert>
														</value>
													</parameter>
													<parameter authoringApp="PremierePro">
														<parameterid>centerOffset</parameterid>
														<name>Anchor Point</name>
														<value>
															<horiz>0</horiz>
															<vert>0</vert>
														</value>
													</parameter>
													<parameter authoringApp="PremierePro">
														<parameterid>antiflicker</parameterid>
														<name>Anti-flicker Filter</name>
														<valuemin>0.0</valuemin>
														<valuemax>1.0</valuemax>
														<value>0</value>
													</parameter>
												</effect>
											</filter>
											<logginginfo>
												<description></description>
												<scene></scene>
												<shottake></shottake>
												<lognote></lognote>
												<good></good>
												<originalvideofilename></originalvideofilename>
												<originalaudiofilename></originalaudiofilename>
											</logginginfo>
											<colorinfo>
												<lut></lut>
												<lut1></lut1>
												<asc_sop></asc_sop>
												<asc_sat></asc_sat>
												<lut2></lut2>
											</colorinfo>
											<labels>
												<label2>Lavender</label2>
											</labels>
										</clipitem>
										<transitionitem>
											<start>1095</start>
											<end>1120</end>
											<alignment>end-black</alignment>
											<cutPointTicks>254016000000</cutPointTicks>
											<rate>
												<timebase>25</timebase>
												<ntsc>FALSE</ntsc>
											</rate>
											<effect>
												<name>Edge Wipe</name>
												<effectid>Edge Wipe</effectid>
												<effectcategory>Wipe</effectcategory>
												<effecttype>transition</effecttype>
												<mediatype>video</mediatype>
												<wipecode>2</wipecode>
												<wipeaccuracy>100</wipeaccuracy>
												<startratio>0</startratio>
												<endratio>1</endratio>
												<reverse>FALSE</reverse>
												<parameter authoringApp="PremierePro">
													<parameterid>directionofwipe</parameterid>
													<name>Angle</name>
													<valuemin>-360</valuemin>
													<valuemax>360</valuemax>
													<value>90</value>
												</parameter>
											</effect>
										</transitionitem>
										<enabled>TRUE</enabled>
										<locked>FALSE</locked>
									</track>
									<track TL.SQTrackShy="0" TL.SQTrackExpandedHeight="25" TL.SQTrackExpanded="0" MZ.TrackTargeted="0">
										<transitionitem>
											<start>755</start>
											<end>780</end>
											<alignment>start-black</alignment>
											<cutPointTicks>0</cutPointTicks>
											<rate>
												<timebase>25</timebase>
												<ntsc>FALSE</ntsc>
											</rate>
											<effect>
												<name>Edge Wipe</name>
												<effectid>Edge Wipe</effectid>
												<effectcategory>Wipe</effectcategory>
												<effecttype>transition</effecttype>
												<mediatype>video</mediatype>
												<wipecode>2</wipecode>
												<wipeaccuracy>100</wipeaccuracy>
												<startratio>0</startratio>
												<endratio>1</endratio>
												<reverse>FALSE</reverse>
												<parameter authoringApp="PremierePro">
													<parameterid>directionofwipe</parameterid>
													<name>Angle</name>
													<valuemin>-360</valuemin>
													<valuemax>360</valuemax>
													<value>270</value>
												</parameter>
											</effect>
										</transitionitem>
										<clipitem id="clipitem-830">
											<masterclipid>masterclip-403</masterclipid>
											<name>Graphic</name>
											<enabled>FALSE</enabled>
											<duration>1080000</duration>
											<rate>
												<timebase>25</timebase>
												<ntsc>FALSE</ntsc>
											</rate>
											<start>-1</start>
											<end>-1</end>
											<in>89905</in>
											<out>90272</out>
											<pproTicksIn>913492339200000</pproTicksIn>
											<pproTicksOut>917221294080000</pproTicksOut>
											<alphatype>straight</alphatype>
											<pixelaspectratio>PAL-601</pixelaspectratio>
											<anamorphic>TRUE</anamorphic>
											<file id="file-345">
												<name>Graphic</name>
												<mediaSource>GraphicAndType</mediaSource>
												<rate>
													<timebase>30</timebase>
													<ntsc>TRUE</ntsc>
												</rate>
												<timecode>
													<rate>
														<timebase>30</timebase>
														<ntsc>TRUE</ntsc>
													</rate>
													<string>00;00;00;00</string>
													<frame>0</frame>
													<displayformat>DF</displayformat>
												</timecode>
												<media>
													<video>
														<samplecharacteristics>
															<rate>
																<timebase>30</timebase>
																<ntsc>TRUE</ntsc>
															</rate>
															<width>720</width>
															<height>576</height>
															<anamorphic>TRUE</anamorphic>
															<pixelaspectratio>PAL-601</pixelaspectratio>
															<fielddominance>none</fielddominance>
														</samplecharacteristics>
													</video>
												</media>
											</file>
											<filter>
												<effect>
													<name>Vector Motion</name>
													<effectid>GraphicGroup</effectid>
													<effectcategory>graphic</effectcategory>
													<effecttype>filter</effecttype>
													<mediatype>video</mediatype>
													<pproBypass>false</pproBypass>
													<parameter authoringApp="PremierePro">
														<parameterid>1</parameterid>
														<name>Position</name>
														<IsTimeVarying>false</IsTimeVarying>
														<value>-91445760000000000,0.81693898908787344:0.49085601568222115,0,0,0,0,0,0,5,4,0,0,0,0</value>
													</parameter>
													<parameter authoringApp="PremierePro">
														<parameterid>2</parameterid>
														<name>Scale</name>
														<IsTimeVarying>false</IsTimeVarying>
														<ParameterControlType>2</ParameterControlType>
														<LowerBound>0</LowerBound>
														<UpperBound>10000</UpperBound>
														<UpperUIBound>200</UpperUIBound>
														<value>-91445760000000000,100.,0,0,0,0,0,0</value>
													</parameter>
													<parameter authoringApp="PremierePro">
														<parameterid>3</parameterid>
														<name>Scale Width</name>
														<IsTimeVarying>false</IsTimeVarying>
														<ParameterControlType>2</ParameterControlType>
														<LowerBound>0</LowerBound>
														<UpperBound>10000</UpperBound>
														<UpperUIBound>200</UpperUIBound>
														<value>-91445760000000000,100.,0,0,0,0,0,0</value>
													</parameter>
													<parameter authoringApp="PremierePro">
														<parameterid>4</parameterid>
														<name> </name>
														<IsTimeVarying>false</IsTimeVarying>
														<ParameterControlType>4</ParameterControlType>
														<LowerBound>false</LowerBound>
														<UpperBound>true</UpperBound>
														<value>-91445760000000000,true,0,0,0,0,0,0</value>
													</parameter>
													<parameter authoringApp="PremierePro">
														<parameterid>5</parameterid>
														<name>Rotation</name>
														<IsTimeVarying>false</IsTimeVarying>
														<ParameterControlType>3</ParameterControlType>
														<LowerBound>-32768</LowerBound>
														<UpperBound>32767</UpperBound>
														<value>-91445760000000000,0.,0,0,0,0,0,0</value>
													</parameter>
													<parameter authoringApp="PremierePro">
														<parameterid>6</parameterid>
														<name>Anchor Point</name>
														<IsTimeVarying>false</IsTimeVarying>
														<value>-91445760000000000,0.5:0.5,0,0,0,0,0,0,5,4,0,0,0,0</value>
													</parameter>
												</effect>
											</filter>
											<filter>
												<effect>
													<name>Данил Прытков признаётся, &#13;что сильные провалы &#13;мотивируют его на творчество &#13;не меньше, чем победы. </name>
													<effectid>GraphicAndType</effectid>
													<effectcategory>graphic</effectcategory>
													<effecttype>filter</effecttype>
													<mediatype>video</mediatype>
													<pproBypass>false</pproBypass>
													<pproExpanded>true</pproExpanded>
													<parameter authoringApp="PremierePro">
														<parameterid>1</parameterid>
														<name>Source Text</name>
														<hash>698123b5-7d57-7b79-efb1-b0df00000a31</hash>
													</parameter>
													<parameter authoringApp="PremierePro">
														<parameterid>2</parameterid>
														<name>Transform</name>
														<IsTimeVarying>false</IsTimeVarying>
														<ParameterControlType>11</ParameterControlType>
														<LowerBound>false</LowerBound>
														<UpperBound>false</UpperBound>
														<value>-91445760000000000,false,0,0,0,0,0,0</value>
													</parameter>
													<parameter authoringApp="PremierePro">
														<parameterid>3</parameterid>
														<name>Position</name>
														<IsTimeVarying>false</IsTimeVarying>
														<value>-91445760000000000,0.270416259765625:0.640594482421875,0,0,0,0,0,0,5,4,0,0,0,0</value>
													</parameter>
													<parameter authoringApp="PremierePro">
														<parameterid>4</parameterid>
														<name>Scale</name>
														<IsTimeVarying>false</IsTimeVarying>
														<ParameterControlType>2</ParameterControlType>
														<LowerBound>0</LowerBound>
														<UpperBound>4000</UpperBound>
														<value>-91445760000000000,100.,0,0,0,0,0,0</value>
													</parameter>
													<parameter authoringApp="PremierePro">
														<parameterid>5</parameterid>
														<name>Horizontal Scale</name>
														<IsTimeVarying>false</IsTimeVarying>
														<ParameterControlType>2</ParameterControlType>
														<LowerBound>0</LowerBound>
														<UpperBound>4000</UpperBound>
														<value>-91445760000000000,100.,0,0,0,0,0,0</value>
													</parameter>
													<parameter authoringApp="PremierePro">
														<parameterid>6</parameterid>
														<name> </name>
														<IsTimeVarying>false</IsTimeVarying>
														<ParameterControlType>4</ParameterControlType>
														<LowerBound>false</LowerBound>
														<UpperBound>true</UpperBound>
														<value>-91445760000000000,true,0,0,0,0,0,0</value>
													</parameter>
													<parameter authoringApp="PremierePro">
														<parameterid>7</parameterid>
														<name>Rotation</name>
														<IsTimeVarying>false</IsTimeVarying>
														<ParameterControlType>3</ParameterControlType>
														<LowerBound>-32768</LowerBound>
														<UpperBound>32767</UpperBound>
														<value>-91445760000000000,0.,0,0,0,0,0,0</value>
													</parameter>
													<parameter authoringApp="PremierePro">
														<parameterid>8</parameterid>
														<name>Opacity</name>
														<IsTimeVarying>false</IsTimeVarying>
														<ParameterControlType>2</ParameterControlType>
														<LowerBound>0</LowerBound>
														<UpperBound>100</UpperBound>
														<value>-91445760000000000,100.,0,0,0,0,0,0</value>
													</parameter>
													<parameter authoringApp="PremierePro">
														<parameterid>9</parameterid>
														<name>Anchor Point</name>
														<IsTimeVarying>false</IsTimeVarying>
														<value>-91445760000000000,0:0,0,0,0,0,0,0,5,4,0,0,0,0</value>
													</parameter>
													<parameter authoringApp="PremierePro">
														<parameterid>10</parameterid>
														<name></name>
														<IsTimeVarying>false</IsTimeVarying>
														<ParameterControlType>12</ParameterControlType>
														<LowerBound>false</LowerBound>
														<UpperBound>false</UpperBound>
														<value>-91445760000000000,false,0,0,0,0,0,0</value>
													</parameter>
													<parameter authoringApp="PremierePro">
														<parameterid>11</parameterid>
														<name> </name>
														<IsTimeVarying>false</IsTimeVarying>
														<ParameterControlType>8</ParameterControlType>
														<LowerBound>0</LowerBound>
														<UpperBound>32768</UpperBound>
														<value>-91445760000000000,0.,0,0,0,0,0,0</value>
													</parameter>
													<parameter authoringApp="PremierePro">
														<parameterid>12</parameterid>
														<name> </name>
														<IsTimeVarying>false</IsTimeVarying>
														<ParameterControlType>8</ParameterControlType>
														<LowerBound>0</LowerBound>
														<UpperBound>32768</UpperBound>
														<value>-91445760000000000,0.,0,0,0,0,0,0</value>
													</parameter>
													<parameter authoringApp="PremierePro">
														<parameterid>13</parameterid>
														<name>start</name>
														<IsTimeVarying>false</IsTimeVarying>
														<ParameterControlType>8</ParameterControlType>
														<LowerBound>-100</LowerBound>
														<UpperBound>1000000000</UpperBound>
														<value>-91445760000000000,0.,0,0,0,0,0,0</value>
													</parameter>
													<parameter authoringApp="PremierePro">
														<parameterid>14</parameterid>
														<name>end</name>
														<IsTimeVarying>false</IsTimeVarying>
														<ParameterControlType>8</ParameterControlType>
														<LowerBound>-100</LowerBound>
														<UpperBound>1000000000</UpperBound>
														<value>-91445760000000000,101.,0,0,0,0,0,0</value>
													</parameter>
													<parameter authoringApp="PremierePro">
														<parameterid>15</parameterid>
														<name> </name>
														<IsTimeVarying>false</IsTimeVarying>
														<ParameterControlType>4</ParameterControlType>
														<LowerBound>false</LowerBound>
														<UpperBound>true</UpperBound>
														<value>-91445760000000000,false,0,0,0,0,0,0</value>
													</parameter>
													<parameter authoringApp="PremierePro">
														<parameterid>16</parameterid>
														<name> </name>
														<IsTimeVarying>false</IsTimeVarying>
														<ParameterControlType>4</ParameterControlType>
														<LowerBound>false</LowerBound>
														<UpperBound>true</UpperBound>
														<value>-91445760000000000,false,0,0,0,0,0,0</value>
													</parameter>
													<parameter authoringApp="PremierePro">
														<parameterid>17</parameterid>
														<name> </name>
														<IsTimeVarying>false</IsTimeVarying>
														<ParameterControlType>4</ParameterControlType>
														<LowerBound>false</LowerBound>
														<UpperBound>true</UpperBound>
														<value>-91445760000000000,false,0,0,0,0,0,0</value>
													</parameter>
													<parameter authoringApp="PremierePro">
														<parameterid>18</parameterid>
														<name> </name>
														<IsTimeVarying>false</IsTimeVarying>
														<ParameterControlType>4</ParameterControlType>
														<LowerBound>false</LowerBound>
														<UpperBound>true</UpperBound>
														<value>-91445760000000000,false,0,0,0,0,0,0</value>
													</parameter>
													<parameter authoringApp="PremierePro">
														<parameterid>19</parameterid>
														<name>Parent Width</name>
														<IsTimeVarying>false</IsTimeVarying>
														<ParameterControlType>2</ParameterControlType>
														<LowerBound>0</LowerBound>
														<UpperBound>20000</UpperBound>
														<value>-91445760000000000,0.,0,0,0,0,0,0</value>
													</parameter>
													<parameter authoringApp="PremierePro">
														<parameterid>20</parameterid>
														<name>Parent Height</name>
														<IsTimeVarying>false</IsTimeVarying>
														<ParameterControlType>2</ParameterControlType>
														<LowerBound>0</LowerBound>
														<UpperBound>20000</UpperBound>
														<value>-91445760000000000,0.,0,0,0,0,0,0</value>
													</parameter>
													<parameter authoringApp="PremierePro">
														<parameterid>21</parameterid>
														<name>Parent Rotation</name>
														<IsTimeVarying>false</IsTimeVarying>
														<ParameterControlType>3</ParameterControlType>
														<LowerBound>-32768</LowerBound>
														<UpperBound>32767</UpperBound>
														<value>-91445760000000000,0.,0,0,0,0,0,0</value>
													</parameter>
												</effect>
											</filter>
											<logginginfo>
												<description></description>
												<scene></scene>
												<shottake></shottake>
												<lognote></lognote>
												<good></good>
												<originalvideofilename></originalvideofilename>
												<originalaudiofilename></originalaudiofilename>
											</logginginfo>
											<colorinfo>
												<lut></lut>
												<lut1></lut1>
												<asc_sop></asc_sop>
												<asc_sat></asc_sat>
												<lut2></lut2>
											</colorinfo>
										</clipitem>
										<transitionitem>
											<start>1097</start>
											<end>1122</end>
											<alignment>end-black</alignment>
											<cutPointTicks>254016000000</cutPointTicks>
											<rate>
												<timebase>25</timebase>
												<ntsc>FALSE</ntsc>
											</rate>
											<effect>
												<name>Edge Wipe</name>
												<effectid>Edge Wipe</effectid>
												<effectcategory>Wipe</effectcategory>
												<effecttype>transition</effecttype>
												<mediatype>video</mediatype>
												<wipecode>2</wipecode>
												<wipeaccuracy>100</wipeaccuracy>
												<startratio>0</startratio>
												<endratio>1</endratio>
												<reverse>FALSE</reverse>
												<parameter authoringApp="PremierePro">
													<parameterid>directionofwipe</parameterid>
													<name>Angle</name>
													<valuemin>-360</valuemin>
													<valuemax>360</valuemax>
													<value>90</value>
												</parameter>
											</effect>
										</transitionitem>
										<enabled>TRUE</enabled>
										<locked>FALSE</locked>
									</track>
								</video>
								<audio>
									<numOutputChannels>2</numOutputChannels>
									<format>
										<samplecharacteristics>
											<depth>16</depth>
											<samplerate>48000</samplerate>
										</samplecharacteristics>
									</format>
									<outputs>
										<group>
											<index>1</index>
											<numchannels>1</numchannels>
											<downmix>0</downmix>
											<channel>
												<index>1</index>
											</channel>
										</group>
										<group>
											<index>2</index>
											<numchannels>1</numchannels>
											<downmix>0</downmix>
											<channel>
												<index>2</index>
											</channel>
										</group>
									</outputs>
									<track TL.SQTrackAudioKeyframeStyle="0" TL.SQTrackShy="0" TL.SQTrackExpandedHeight="25" TL.SQTrackExpanded="0" MZ.TrackTargeted="1" PannerCurrentValue="0.5" PannerStartKeyframe="-91445760000000000,0.5,0,0,0,0,0,0" PannerName="Balance" currentExplodedTrackIndex="0" totalExplodedTrackCount="2" premiereTrackType="Stereo">
										<enabled>TRUE</enabled>
										<locked>FALSE</locked>
										<outputchannelindex>1</outputchannelindex>
									</track>
									<track TL.SQTrackAudioKeyframeStyle="0" TL.SQTrackShy="0" TL.SQTrackExpandedHeight="25" TL.SQTrackExpanded="0" MZ.TrackTargeted="1" PannerCurrentValue="0.5" PannerStartKeyframe="-91445760000000000,0.5,0,0,0,0,0,0" PannerName="Balance" currentExplodedTrackIndex="1" totalExplodedTrackCount="2" premiereTrackType="Stereo">
										<enabled>TRUE</enabled>
										<locked>FALSE</locked>
										<outputchannelindex>2</outputchannelindex>
									</track>
								</audio>
							</media>
							<timecode>
								<rate>
									<timebase>25</timebase>
									<ntsc>FALSE</ntsc>
								</rate>
								<string>00:00:00:00</string>
								<frame>0</frame>
								<displayformat>NDF</displayformat>
							</timecode>
								<marker>
									<comment></comment>
									<name></name>
									<in>50</in>
									<out>-1</out>
									<pproColor>4292277273</pproColor>
								</marker>
								<marker>
									<comment></comment>
									<name></name>
									<in>425</in>
									<out>-1</out>
									<pproColor>4292277273</pproColor>
								</marker>
								<marker>
									<comment></comment>
									<name></name>
									<in>800</in>
									<out>-1</out>
									<pproColor>4292277273</pproColor>
								</marker>
							<logginginfo>
								<description></description>
								<scene></scene>
								<shottake></shottake>
								<lognote></lognote>
								<good></good>
								<originalvideofilename></originalvideofilename>
								<originalaudiofilename></originalaudiofilename>
							</logginginfo>
						</sequence>
							<marker>
								<comment></comment>
								<name></name>
								<in>50</in>
								<out>-1</out>
								<pproColor>4292277273</pproColor>
							</marker>
							<marker>
								<comment></comment>
								<name></name>
								<in>425</in>
								<out>-1</out>
								<pproColor>4292277273</pproColor>
							</marker>
							<marker>
								<comment></comment>
								<name></name>
								<in>800</in>
								<out>-1</out>
								<pproColor>4292277273</pproColor>
							</marker>
						<labels>
							<label2>Forest</label2>
						</labels>
					</clipitem>
					<clipitem id="clipitem-831">
						<masterclipid>masterclip-398</masterclipid>
						<name>3</name>
						<enabled>TRUE</enabled>
						<duration>1125</duration>
						<rate>
							<timebase>25</timebase>
							<ntsc>FALSE</ntsc>
						</rate>
						<start>52964</start>
						<end>53339</end>
						<in>375</in>
						<out>750</out>
						<pproTicksIn>3810240000000</pproTicksIn>
						<pproTicksOut>7620480000000</pproTicksOut>
						<sequence id="sequence-62"/>
							<marker>
								<comment></comment>
								<name></name>
								<in>50</in>
								<out>-1</out>
								<pproColor>4292277273</pproColor>
							</marker>
							<marker>
								<comment></comment>
								<name></name>
								<in>425</in>
								<out>-1</out>
								<pproColor>4292277273</pproColor>
							</marker>
							<marker>
								<comment></comment>
								<name></name>
								<in>800</in>
								<out>-1</out>
								<pproColor>4292277273</pproColor>
							</marker>
						<labels>
							<label2>Forest</label2>
						</labels>
					</clipitem>
					<clipitem id="clipitem-832">
						<masterclipid>masterclip-398</masterclipid>
						<name>3</name>
						<enabled>TRUE</enabled>
						<duration>1125</duration>
						<rate>
							<timebase>25</timebase>
							<ntsc>FALSE</ntsc>
						</rate>
						<start>54419</start>
						<end>54794</end>
						<in>750</in>
						<out>1125</out>
						<pproTicksIn>7620480000000</pproTicksIn>
						<pproTicksOut>11430720000000</pproTicksOut>
						<sequence id="sequence-62"/>
							<marker>
								<comment></comment>
								<name></name>
								<in>50</in>
								<out>-1</out>
								<pproColor>4292277273</pproColor>
							</marker>
							<marker>
								<comment></comment>
								<name></name>
								<in>425</in>
								<out>-1</out>
								<pproColor>4292277273</pproColor>
							</marker>
							<marker>
								<comment></comment>
								<name></name>
								<in>800</in>
								<out>-1</out>
								<pproColor>4292277273</pproColor>
							</marker>
						<labels>
							<label2>Forest</label2>
						</labels>
					</clipitem>
					<clipitem id="clipitem-833">
						<masterclipid>masterclip-404</masterclipid>
						<name>2</name>
						<enabled>TRUE</enabled>
						<duration>1125</duration>
						<rate>
							<timebase>25</timebase>
							<ntsc>FALSE</ntsc>
						</rate>
						<start>57828</start>
						<end>58203</end>
						<in>0</in>
						<out>375</out>
						<pproTicksIn>0</pproTicksIn>
						<pproTicksOut>3810240000000</pproTicksOut>
						<sequence id="sequence-63" TL.SQAudioVisibleBase="0" TL.SQVideoVisibleBase="0" TL.SQVisibleBaseTime="0" TL.SQAVDividerPosition="0.5" TL.SQHideShyTracks="0" TL.SQHeaderWidth="236" Monitor.ProgramZoomOut="11430720000000" Monitor.ProgramZoomIn="0" TL.SQTimePerPixel="0.19620667102680808" AM.TrackVScrollPosition="0" AM.TrackScrollPosition="0" MZ.EditLine="9723732480000" MZ.Sequence.PreviewFrameSizeHeight="576" MZ.Sequence.PreviewFrameSizeWidth="720" MZ.Sequence.AudioTimeDisplayFormat="200" MZ.Sequence.PreviewRenderingClassID="1061109567" MZ.Sequence.PreviewRenderingPresetCodec="1685480304" MZ.Sequence.PreviewRenderingPresetPath="EncoderPresets/SequencePreview/04be6e19-a018-4e0c-a9d6-0ab44c64752b/QuickTime DV PAL.epr" MZ.Sequence.PreviewUseMaxRenderQuality="false" MZ.Sequence.PreviewUseMaxBitDepth="false" MZ.Sequence.EditingModeGUID="04be6e19-a018-4e0c-a9d6-0ab44c64752b" MZ.Sequence.VideoTimeDisplayFormat="101" MZ.WorkOutPoint="11430720000000" MZ.WorkInPoint="0" MZ.ZeroPoint="0">
							<duration>1125</duration>
							<rate>
								<timebase>25</timebase>
								<ntsc>FALSE</ntsc>
							</rate>
							<name>RU_Nested</name>
							<media>
								<video>
									<format>
										<samplecharacteristics>
											<rate>
												<timebase>25</timebase>
												<ntsc>FALSE</ntsc>
											</rate>
											<codec>
												<name>Apple ProRes 422</name>
												<appspecificdata>
													<appname>Final Cut Pro</appname>
													<appmanufacturer>Apple Inc.</appmanufacturer>
													<appversion>7.0</appversion>
													<data>
														<qtcodec>
															<codecname>Apple ProRes 422</codecname>
															<codectypename>Apple ProRes 422</codectypename>
															<codectypecode>apcn</codectypecode>
															<codecvendorcode>appl</codecvendorcode>
															<spatialquality>1024</spatialquality>
															<temporalquality>0</temporalquality>
															<keyframerate>0</keyframerate>
															<datarate>0</datarate>
														</qtcodec>
													</data>
												</appspecificdata>
											</codec>
											<width>720</width>
											<height>576</height>
											<anamorphic>TRUE</anamorphic>
											<pixelaspectratio>PAL-601</pixelaspectratio>
											<fielddominance>lower</fielddominance>
											<colordepth>24</colordepth>
										</samplecharacteristics>
									</format>
									<track TL.SQTrackShy="0" TL.SQTrackExpandedHeight="25" TL.SQTrackExpanded="0" MZ.TrackTargeted="1">
										<clipitem id="clipitem-834">
											<masterclipid>masterclip-405</masterclipid>
											<name>Plashka_Right_DV.mov</name>
											<enabled>TRUE</enabled>
											<duration>375</duration>
											<rate>
												<timebase>25</timebase>
												<ntsc>FALSE</ntsc>
											</rate>
											<start>0</start>
											<end>375</end>
											<in>0</in>
											<out>375</out>
											<pproTicksIn>0</pproTicksIn>
											<pproTicksOut>3810240000000</pproTicksOut>
											<alphatype>straight</alphatype>
											<pixelaspectratio>PAL-601</pixelaspectratio>
											<anamorphic>TRUE</anamorphic>
											<file id="file-346">
												<name>Plashka_Right_DV.mov</name>
												<pathurl>file://localhost/Volumes/1Tb/_MUZ_TV/graphika/RU-21/MOD/Plashka_Right_DV.mov</pathurl>
												<rate>
													<timebase>25</timebase>
													<ntsc>FALSE</ntsc>
												</rate>
												<duration>375</duration>
												<timecode>
													<rate>
														<timebase>25</timebase>
														<ntsc>FALSE</ntsc>
													</rate>
													<string>00:00:15:10</string>
													<frame>385</frame>
													<displayformat>NDF</displayformat>
												</timecode>
												<media>
													<video>
														<samplecharacteristics>
															<rate>
																<timebase>25</timebase>
																<ntsc>FALSE</ntsc>
															</rate>
															<width>720</width>
															<height>576</height>
															<anamorphic>TRUE</anamorphic>
															<pixelaspectratio>PAL-601</pixelaspectratio>
															<fielddominance>lower</fielddominance>
														</samplecharacteristics>
													</video>
												</media>
											</file>
											<filter>
												<effect>
													<name>Basic Motion</name>
													<effectid>basic</effectid>
													<effectcategory>motion</effectcategory>
													<effecttype>motion</effecttype>
													<mediatype>video</mediatype>
													<pproBypass>false</pproBypass>
													<parameter authoringApp="PremierePro">
														<parameterid>scale</parameterid>
														<name>Scale</name>
														<valuemin>0</valuemin>
														<valuemax>1000</valuemax>
														<value>100</value>
													</parameter>
													<parameter authoringApp="PremierePro">
														<parameterid>rotation</parameterid>
														<name>Rotation</name>
														<valuemin>-8640</valuemin>
														<valuemax>8640</valuemax>
														<value>0</value>
													</parameter>
													<parameter authoringApp="PremierePro">
														<parameterid>center</parameterid>
														<name>Center</name>
														<value>
															<horiz>-5.55112e-17</horiz>
															<vert>-1.11022e-16</vert>
														</value>
													</parameter>
													<parameter authoringApp="PremierePro">
														<parameterid>centerOffset</parameterid>
														<name>Anchor Point</name>
														<value>
															<horiz>0.402314</horiz>
															<vert>0.41875</vert>
														</value>
													</parameter>
													<parameter authoringApp="PremierePro">
														<parameterid>antiflicker</parameterid>
														<name>Anti-flicker Filter</name>
														<valuemin>0.0</valuemin>
														<valuemax>1.0</valuemax>
														<value>0</value>
													</parameter>
												</effect>
											</filter>
											<logginginfo>
												<description></description>
												<scene></scene>
												<shottake></shottake>
												<lognote></lognote>
												<good></good>
												<originalvideofilename></originalvideofilename>
												<originalaudiofilename></originalaudiofilename>
											</logginginfo>
											<colorinfo>
												<lut></lut>
												<lut1></lut1>
												<asc_sop></asc_sop>
												<asc_sat></asc_sat>
												<lut2></lut2>
											</colorinfo>
											<labels>
												<label2>Violet</label2>
											</labels>
										</clipitem>
										<clipitem id="clipitem-835">
											<masterclipid>masterclip-405</masterclipid>
											<name>Plashka_Right_DV.mov</name>
											<enabled>TRUE</enabled>
											<duration>375</duration>
											<rate>
												<timebase>25</timebase>
												<ntsc>FALSE</ntsc>
											</rate>
											<start>375</start>
											<end>750</end>
											<in>0</in>
											<out>375</out>
											<pproTicksIn>0</pproTicksIn>
											<pproTicksOut>3810240000000</pproTicksOut>
											<alphatype>straight</alphatype>
											<file id="file-346"/>
											<filter>
												<effect>
													<name>Basic Motion</name>
													<effectid>basic</effectid>
													<effectcategory>motion</effectcategory>
													<effecttype>motion</effecttype>
													<mediatype>video</mediatype>
													<pproBypass>false</pproBypass>
													<parameter authoringApp="PremierePro">
														<parameterid>scale</parameterid>
														<name>Scale</name>
														<valuemin>0</valuemin>
														<valuemax>1000</valuemax>
														<value>100</value>
													</parameter>
													<parameter authoringApp="PremierePro">
														<parameterid>rotation</parameterid>
														<name>Rotation</name>
														<valuemin>-8640</valuemin>
														<valuemax>8640</valuemax>
														<value>0</value>
													</parameter>
													<parameter authoringApp="PremierePro">
														<parameterid>center</parameterid>
														<name>Center</name>
														<value>
															<horiz>-5.55112e-17</horiz>
															<vert>-1.11022e-16</vert>
														</value>
													</parameter>
													<parameter authoringApp="PremierePro">
														<parameterid>centerOffset</parameterid>
														<name>Anchor Point</name>
														<value>
															<horiz>0.402314</horiz>
															<vert>0.41875</vert>
														</value>
													</parameter>
													<parameter authoringApp="PremierePro">
														<parameterid>antiflicker</parameterid>
														<name>Anti-flicker Filter</name>
														<valuemin>0.0</valuemin>
														<valuemax>1.0</valuemax>
														<value>0</value>
													</parameter>
												</effect>
											</filter>
											<filter>
												<effect>
													<name>Distort</name>
													<effectid>deformation</effectid>
													<effectcategory>motion</effectcategory>
													<effecttype>motion</effecttype>
													<mediatype>video</mediatype>
													<parameter authoringApp="PremierePro">
														<parameterid>aspect</parameterid>
														<name>Aspect</name>
														<valuemin>-10000</valuemin>
														<valuemax>10000</valuemax>
														<value>20.4819</value>
													</parameter>
												</effect>
											</filter>
											<logginginfo>
												<description></description>
												<scene></scene>
												<shottake></shottake>
												<lognote></lognote>
												<good></good>
												<originalvideofilename></originalvideofilename>
												<originalaudiofilename></originalaudiofilename>
											</logginginfo>
											<colorinfo>
												<lut></lut>
												<lut1></lut1>
												<asc_sop></asc_sop>
												<asc_sat></asc_sat>
												<lut2></lut2>
											</colorinfo>
											<labels>
												<label2>Violet</label2>
											</labels>
										</clipitem>
										<clipitem id="clipitem-836">
											<masterclipid>masterclip-405</masterclipid>
											<name>Plashka_Right_DV.mov</name>
											<enabled>TRUE</enabled>
											<duration>375</duration>
											<rate>
												<timebase>25</timebase>
												<ntsc>FALSE</ntsc>
											</rate>
											<start>750</start>
											<end>1125</end>
											<in>0</in>
											<out>375</out>
											<pproTicksIn>0</pproTicksIn>
											<pproTicksOut>3810240000000</pproTicksOut>
											<alphatype>straight</alphatype>
											<file id="file-346"/>
											<filter>
												<effect>
													<name>Basic Motion</name>
													<effectid>basic</effectid>
													<effectcategory>motion</effectcategory>
													<effecttype>motion</effecttype>
													<mediatype>video</mediatype>
													<pproBypass>false</pproBypass>
													<parameter authoringApp="PremierePro">
														<parameterid>scale</parameterid>
														<name>Scale</name>
														<valuemin>0</valuemin>
														<valuemax>1000</valuemax>
														<value>100</value>
													</parameter>
													<parameter authoringApp="PremierePro">
														<parameterid>rotation</parameterid>
														<name>Rotation</name>
														<valuemin>-8640</valuemin>
														<valuemax>8640</valuemax>
														<value>0</value>
													</parameter>
													<parameter authoringApp="PremierePro">
														<parameterid>center</parameterid>
														<name>Center</name>
														<value>
															<horiz>-5.55112e-17</horiz>
															<vert>-1.11022e-16</vert>
														</value>
													</parameter>
													<parameter authoringApp="PremierePro">
														<parameterid>centerOffset</parameterid>
														<name>Anchor Point</name>
														<value>
															<horiz>0.402314</horiz>
															<vert>0.41875</vert>
														</value>
													</parameter>
													<parameter authoringApp="PremierePro">
														<parameterid>antiflicker</parameterid>
														<name>Anti-flicker Filter</name>
														<valuemin>0.0</valuemin>
														<valuemax>1.0</valuemax>
														<value>0</value>
													</parameter>
												</effect>
											</filter>
											<filter>
												<effect>
													<name>Distort</name>
													<effectid>deformation</effectid>
													<effectcategory>motion</effectcategory>
													<effecttype>motion</effecttype>
													<mediatype>video</mediatype>
													<parameter authoringApp="PremierePro">
														<parameterid>aspect</parameterid>
														<name>Aspect</name>
														<valuemin>-10000</valuemin>
														<valuemax>10000</valuemax>
														<value>19.0476</value>
													</parameter>
												</effect>
											</filter>
											<logginginfo>
												<description></description>
												<scene></scene>
												<shottake></shottake>
												<lognote></lognote>
												<good></good>
												<originalvideofilename></originalvideofilename>
												<originalaudiofilename></originalaudiofilename>
											</logginginfo>
											<colorinfo>
												<lut></lut>
												<lut1></lut1>
												<asc_sop></asc_sop>
												<asc_sat></asc_sat>
												<lut2></lut2>
											</colorinfo>
											<labels>
												<label2>Violet</label2>
											</labels>
										</clipitem>
										<enabled>TRUE</enabled>
										<locked>FALSE</locked>
									</track>
									<track TL.SQTrackShy="0" TL.SQTrackExpandedHeight="25" TL.SQTrackExpanded="0" MZ.TrackTargeted="0">
										<transitionitem>
											<start>6</start>
											<end>35</end>
											<alignment>start-black</alignment>
											<cutPointTicks>0</cutPointTicks>
											<rate>
												<timebase>25</timebase>
												<ntsc>FALSE</ntsc>
											</rate>
											<effect>
												<name>Edge Wipe</name>
												<effectid>Edge Wipe</effectid>
												<effectcategory>Wipe</effectcategory>
												<effecttype>transition</effecttype>
												<mediatype>video</mediatype>
												<wipecode>2</wipecode>
												<wipeaccuracy>100</wipeaccuracy>
												<startratio>0</startratio>
												<endratio>1</endratio>
												<reverse>FALSE</reverse>
												<parameter authoringApp="PremierePro">
													<parameterid>directionofwipe</parameterid>
													<name>Angle</name>
													<valuemin>-360</valuemin>
													<valuemax>360</valuemax>
													<value>270</value>
												</parameter>
											</effect>
										</transitionitem>
										<clipitem id="clipitem-837">
											<masterclipid>masterclip-406</masterclipid>
											<name>2_1.png</name>
											<enabled>TRUE</enabled>
											<duration>1080000</duration>
											<rate>
												<timebase>25</timebase>
												<ntsc>FALSE</ntsc>
											</rate>
											<start>-1</start>
											<end>-1</end>
											<in>90006</in>
											<out>90369</out>
											<pproTicksIn>914518563840000</pproTicksIn>
											<pproTicksOut>918206876160000</pproTicksOut>
											<alphatype>straight</alphatype>
											<pixelaspectratio>square</pixelaspectratio>
											<anamorphic>FALSE</anamorphic>
											<file id="file-347">
												<name>2_1.png</name>
												<pathurl>file://localhost/_MUZ_TV/project_AP/RU/_TITLE/END/PNG/2_1.png</pathurl>
												<rate>
													<timebase>30</timebase>
													<ntsc>TRUE</ntsc>
												</rate>
												<timecode>
													<rate>
														<timebase>30</timebase>
														<ntsc>TRUE</ntsc>
													</rate>
													<string>00;00;00;00</string>
													<frame>0</frame>
													<displayformat>DF</displayformat>
												</timecode>
												<media>
													<video>
														<samplecharacteristics>
															<rate>
																<timebase>30</timebase>
																<ntsc>TRUE</ntsc>
															</rate>
															<width>1920</width>
															<height>1080</height>
															<anamorphic>FALSE</anamorphic>
															<pixelaspectratio>square</pixelaspectratio>
															<fielddominance>none</fielddominance>
														</samplecharacteristics>
													</video>
												</media>
											</file>
											<filter>
												<effect>
													<name>Basic Motion</name>
													<effectid>basic</effectid>
													<effectcategory>motion</effectcategory>
													<effecttype>motion</effecttype>
													<mediatype>video</mediatype>
													<pproBypass>false</pproBypass>
													<parameter authoringApp="PremierePro">
														<parameterid>scale</parameterid>
														<name>Scale</name>
														<valuemin>0</valuemin>
														<valuemax>1000</valuemax>
														<value>53.3333</value>
													</parameter>
													<parameter authoringApp="PremierePro">
														<parameterid>rotation</parameterid>
														<name>Rotation</name>
														<valuemin>-8640</valuemin>
														<valuemax>8640</valuemax>
														<value>0</value>
													</parameter>
													<parameter authoringApp="PremierePro">
														<parameterid>center</parameterid>
														<name>Center</name>
														<value>
															<horiz>0</horiz>
															<vert>0</vert>
														</value>
													</parameter>
													<parameter authoringApp="PremierePro">
														<parameterid>centerOffset</parameterid>
														<name>Anchor Point</name>
														<value>
															<horiz>0</horiz>
															<vert>0</vert>
														</value>
													</parameter>
													<parameter authoringApp="PremierePro">
														<parameterid>antiflicker</parameterid>
														<name>Anti-flicker Filter</name>
														<valuemin>0.0</valuemin>
														<valuemax>1.0</valuemax>
														<value>0</value>
													</parameter>
												</effect>
											</filter>
											<logginginfo>
												<description></description>
												<scene></scene>
												<shottake></shottake>
												<lognote></lognote>
												<good></good>
												<originalvideofilename></originalvideofilename>
												<originalaudiofilename></originalaudiofilename>
											</logginginfo>
											<colorinfo>
												<lut></lut>
												<lut1></lut1>
												<asc_sop></asc_sop>
												<asc_sat></asc_sat>
												<lut2></lut2>
											</colorinfo>
											<labels>
												<label2>Lavender</label2>
											</labels>
										</clipitem>
										<transitionitem>
											<start>344</start>
											<end>369</end>
											<alignment>end-black</alignment>
											<cutPointTicks>254016000000</cutPointTicks>
											<rate>
												<timebase>25</timebase>
												<ntsc>FALSE</ntsc>
											</rate>
											<effect>
												<name>Edge Wipe</name>
												<effectid>Edge Wipe</effectid>
												<effectcategory>Wipe</effectcategory>
												<effecttype>transition</effecttype>
												<mediatype>video</mediatype>
												<wipecode>2</wipecode>
												<wipeaccuracy>100</wipeaccuracy>
												<startratio>0</startratio>
												<endratio>1</endratio>
												<reverse>FALSE</reverse>
												<parameter authoringApp="PremierePro">
													<parameterid>directionofwipe</parameterid>
													<name>Angle</name>
													<valuemin>-360</valuemin>
													<valuemax>360</valuemax>
													<value>90</value>
												</parameter>
											</effect>
										</transitionitem>
										<transitionitem>
											<start>381</start>
											<end>410</end>
											<alignment>start-black</alignment>
											<cutPointTicks>0</cutPointTicks>
											<rate>
												<timebase>25</timebase>
												<ntsc>FALSE</ntsc>
											</rate>
											<effect>
												<name>Edge Wipe</name>
												<effectid>Edge Wipe</effectid>
												<effectcategory>Wipe</effectcategory>
												<effecttype>transition</effecttype>
												<mediatype>video</mediatype>
												<wipecode>2</wipecode>
												<wipeaccuracy>100</wipeaccuracy>
												<startratio>0</startratio>
												<endratio>1</endratio>
												<reverse>FALSE</reverse>
												<parameter authoringApp="PremierePro">
													<parameterid>directionofwipe</parameterid>
													<name>Angle</name>
													<valuemin>-360</valuemin>
													<valuemax>360</valuemax>
													<value>270</value>
												</parameter>
											</effect>
										</transitionitem>
										<clipitem id="clipitem-838">
											<masterclipid>masterclip-407</masterclipid>
											<name>2_2.png</name>
											<enabled>TRUE</enabled>
											<duration>1080000</duration>
											<rate>
												<timebase>25</timebase>
												<ntsc>FALSE</ntsc>
											</rate>
											<start>-1</start>
											<end>-1</end>
											<in>90011</in>
											<out>90374</out>
											<pproTicksIn>914569367040000</pproTicksIn>
											<pproTicksOut>918257679360000</pproTicksOut>
											<alphatype>straight</alphatype>
											<pixelaspectratio>square</pixelaspectratio>
											<anamorphic>FALSE</anamorphic>
											<file id="file-348">
												<name>2_2.png</name>
												<pathurl>file://localhost/_MUZ_TV/project_AP/RU/_TITLE/END/PNG/2_2.png</pathurl>
												<rate>
													<timebase>30</timebase>
													<ntsc>TRUE</ntsc>
												</rate>
												<timecode>
													<rate>
														<timebase>30</timebase>
														<ntsc>TRUE</ntsc>
													</rate>
													<string>00;00;00;00</string>
													<frame>0</frame>
													<displayformat>DF</displayformat>
												</timecode>
												<media>
													<video>
														<samplecharacteristics>
															<rate>
																<timebase>30</timebase>
																<ntsc>TRUE</ntsc>
															</rate>
															<width>1920</width>
															<height>1080</height>
															<anamorphic>FALSE</anamorphic>
															<pixelaspectratio>square</pixelaspectratio>
															<fielddominance>none</fielddominance>
														</samplecharacteristics>
													</video>
												</media>
											</file>
											<filter>
												<effect>
													<name>Basic Motion</name>
													<effectid>basic</effectid>
													<effectcategory>motion</effectcategory>
													<effecttype>motion</effecttype>
													<mediatype>video</mediatype>
													<pproBypass>false</pproBypass>
													<parameter authoringApp="PremierePro">
														<parameterid>scale</parameterid>
														<name>Scale</name>
														<valuemin>0</valuemin>
														<valuemax>1000</valuemax>
														<value>53.3333</value>
													</parameter>
													<parameter authoringApp="PremierePro">
														<parameterid>rotation</parameterid>
														<name>Rotation</name>
														<valuemin>-8640</valuemin>
														<valuemax>8640</valuemax>
														<value>0</value>
													</parameter>
													<parameter authoringApp="PremierePro">
														<parameterid>center</parameterid>
														<name>Center</name>
														<value>
															<horiz>0</horiz>
															<vert>0</vert>
														</value>
													</parameter>
													<parameter authoringApp="PremierePro">
														<parameterid>centerOffset</parameterid>
														<name>Anchor Point</name>
														<value>
															<horiz>0</horiz>
															<vert>0</vert>
														</value>
													</parameter>
													<parameter authoringApp="PremierePro">
														<parameterid>antiflicker</parameterid>
														<name>Anti-flicker Filter</name>
														<valuemin>0.0</valuemin>
														<valuemax>1.0</valuemax>
														<value>0</value>
													</parameter>
												</effect>
											</filter>
											<logginginfo>
												<description></description>
												<scene></scene>
												<shottake></shottake>
												<lognote></lognote>
												<good></good>
												<originalvideofilename></originalvideofilename>
												<originalaudiofilename></originalaudiofilename>
											</logginginfo>
											<colorinfo>
												<lut></lut>
												<lut1></lut1>
												<asc_sop></asc_sop>
												<asc_sat></asc_sat>
												<lut2></lut2>
											</colorinfo>
											<labels>
												<label2>Lavender</label2>
											</labels>
										</clipitem>
										<transitionitem>
											<start>719</start>
											<end>744</end>
											<alignment>end-black</alignment>
											<cutPointTicks>254016000000</cutPointTicks>
											<rate>
												<timebase>25</timebase>
												<ntsc>FALSE</ntsc>
											</rate>
											<effect>
												<name>Edge Wipe</name>
												<effectid>Edge Wipe</effectid>
												<effectcategory>Wipe</effectcategory>
												<effecttype>transition</effecttype>
												<mediatype>video</mediatype>
												<wipecode>2</wipecode>
												<wipeaccuracy>100</wipeaccuracy>
												<startratio>0</startratio>
												<endratio>1</endratio>
												<reverse>FALSE</reverse>
												<parameter authoringApp="PremierePro">
													<parameterid>directionofwipe</parameterid>
													<name>Angle</name>
													<valuemin>-360</valuemin>
													<valuemax>360</valuemax>
													<value>90</value>
												</parameter>
											</effect>
										</transitionitem>
										<transitionitem>
											<start>756</start>
											<end>785</end>
											<alignment>start-black</alignment>
											<cutPointTicks>0</cutPointTicks>
											<rate>
												<timebase>25</timebase>
												<ntsc>FALSE</ntsc>
											</rate>
											<effect>
												<name>Edge Wipe</name>
												<effectid>Edge Wipe</effectid>
												<effectcategory>Wipe</effectcategory>
												<effecttype>transition</effecttype>
												<mediatype>video</mediatype>
												<wipecode>2</wipecode>
												<wipeaccuracy>100</wipeaccuracy>
												<startratio>0</startratio>
												<endratio>1</endratio>
												<reverse>FALSE</reverse>
												<parameter authoringApp="PremierePro">
													<parameterid>directionofwipe</parameterid>
													<name>Angle</name>
													<valuemin>-360</valuemin>
													<valuemax>360</valuemax>
													<value>270</value>
												</parameter>
											</effect>
										</transitionitem>
										<clipitem id="clipitem-839">
											<masterclipid>masterclip-408</masterclipid>
											<name>2_3.png</name>
											<enabled>TRUE</enabled>
											<duration>1080000</duration>
											<rate>
												<timebase>25</timebase>
												<ntsc>FALSE</ntsc>
											</rate>
											<start>-1</start>
											<end>-1</end>
											<in>90011</in>
											<out>90375</out>
											<pproTicksIn>914569367040000</pproTicksIn>
											<pproTicksOut>918267840000000</pproTicksOut>
											<alphatype>straight</alphatype>
											<pixelaspectratio>square</pixelaspectratio>
											<anamorphic>FALSE</anamorphic>
											<file id="file-349">
												<name>2_3.png</name>
												<pathurl>file://localhost/_MUZ_TV/project_AP/RU/_TITLE/END/PNG/2_3.png</pathurl>
												<rate>
													<timebase>30</timebase>
													<ntsc>TRUE</ntsc>
												</rate>
												<timecode>
													<rate>
														<timebase>30</timebase>
														<ntsc>TRUE</ntsc>
													</rate>
													<string>00;00;00;00</string>
													<frame>0</frame>
													<displayformat>DF</displayformat>
												</timecode>
												<media>
													<video>
														<samplecharacteristics>
															<rate>
																<timebase>30</timebase>
																<ntsc>TRUE</ntsc>
															</rate>
															<width>1920</width>
															<height>1080</height>
															<anamorphic>FALSE</anamorphic>
															<pixelaspectratio>square</pixelaspectratio>
															<fielddominance>none</fielddominance>
														</samplecharacteristics>
													</video>
												</media>
											</file>
											<filter>
												<effect>
													<name>Basic Motion</name>
													<effectid>basic</effectid>
													<effectcategory>motion</effectcategory>
													<effecttype>motion</effecttype>
													<mediatype>video</mediatype>
													<pproBypass>false</pproBypass>
													<parameter authoringApp="PremierePro">
														<parameterid>scale</parameterid>
														<name>Scale</name>
														<valuemin>0</valuemin>
														<valuemax>1000</valuemax>
														<value>53.3333</value>
													</parameter>
													<parameter authoringApp="PremierePro">
														<parameterid>rotation</parameterid>
														<name>Rotation</name>
														<valuemin>-8640</valuemin>
														<valuemax>8640</valuemax>
														<value>0</value>
													</parameter>
													<parameter authoringApp="PremierePro">
														<parameterid>center</parameterid>
														<name>Center</name>
														<value>
															<horiz>0</horiz>
															<vert>0</vert>
														</value>
													</parameter>
													<parameter authoringApp="PremierePro">
														<parameterid>centerOffset</parameterid>
														<name>Anchor Point</name>
														<value>
															<horiz>0</horiz>
															<vert>0</vert>
														</value>
													</parameter>
													<parameter authoringApp="PremierePro">
														<parameterid>antiflicker</parameterid>
														<name>Anti-flicker Filter</name>
														<valuemin>0.0</valuemin>
														<valuemax>1.0</valuemax>
														<value>0</value>
													</parameter>
												</effect>
											</filter>
											<logginginfo>
												<description></description>
												<scene></scene>
												<shottake></shottake>
												<lognote></lognote>
												<good></good>
												<originalvideofilename></originalvideofilename>
												<originalaudiofilename></originalaudiofilename>
											</logginginfo>
											<colorinfo>
												<lut></lut>
												<lut1></lut1>
												<asc_sop></asc_sop>
												<asc_sat></asc_sat>
												<lut2></lut2>
											</colorinfo>
											<labels>
												<label2>Lavender</label2>
											</labels>
										</clipitem>
										<transitionitem>
											<start>1095</start>
											<end>1120</end>
											<alignment>end-black</alignment>
											<cutPointTicks>254016000000</cutPointTicks>
											<rate>
												<timebase>25</timebase>
												<ntsc>FALSE</ntsc>
											</rate>
											<effect>
												<name>Edge Wipe</name>
												<effectid>Edge Wipe</effectid>
												<effectcategory>Wipe</effectcategory>
												<effecttype>transition</effecttype>
												<mediatype>video</mediatype>
												<wipecode>2</wipecode>
												<wipeaccuracy>100</wipeaccuracy>
												<startratio>0</startratio>
												<endratio>1</endratio>
												<reverse>FALSE</reverse>
												<parameter authoringApp="PremierePro">
													<parameterid>directionofwipe</parameterid>
													<name>Angle</name>
													<valuemin>-360</valuemin>
													<valuemax>360</valuemax>
													<value>90</value>
												</parameter>
											</effect>
										</transitionitem>
										<enabled>TRUE</enabled>
										<locked>FALSE</locked>
									</track>
									<track TL.SQTrackShy="0" TL.SQTrackExpandedHeight="25" TL.SQTrackExpanded="0" MZ.TrackTargeted="0">
										<transitionitem>
											<start>755</start>
											<end>780</end>
											<alignment>start-black</alignment>
											<cutPointTicks>0</cutPointTicks>
											<rate>
												<timebase>25</timebase>
												<ntsc>FALSE</ntsc>
											</rate>
											<effect>
												<name>Edge Wipe</name>
												<effectid>Edge Wipe</effectid>
												<effectcategory>Wipe</effectcategory>
												<effecttype>transition</effecttype>
												<mediatype>video</mediatype>
												<wipecode>2</wipecode>
												<wipeaccuracy>100</wipeaccuracy>
												<startratio>0</startratio>
												<endratio>1</endratio>
												<reverse>FALSE</reverse>
												<parameter authoringApp="PremierePro">
													<parameterid>directionofwipe</parameterid>
													<name>Angle</name>
													<valuemin>-360</valuemin>
													<valuemax>360</valuemax>
													<value>270</value>
												</parameter>
											</effect>
										</transitionitem>
										<clipitem id="clipitem-840">
											<masterclipid>masterclip-409</masterclipid>
											<name>Graphic</name>
											<enabled>FALSE</enabled>
											<duration>1080000</duration>
											<rate>
												<timebase>25</timebase>
												<ntsc>FALSE</ntsc>
											</rate>
											<start>-1</start>
											<end>-1</end>
											<in>89905</in>
											<out>90272</out>
											<pproTicksIn>913492339200000</pproTicksIn>
											<pproTicksOut>917221294080000</pproTicksOut>
											<alphatype>straight</alphatype>
											<pixelaspectratio>PAL-601</pixelaspectratio>
											<anamorphic>TRUE</anamorphic>
											<file id="file-350">
												<name>Graphic</name>
												<mediaSource>GraphicAndType</mediaSource>
												<rate>
													<timebase>30</timebase>
													<ntsc>TRUE</ntsc>
												</rate>
												<timecode>
													<rate>
														<timebase>30</timebase>
														<ntsc>TRUE</ntsc>
													</rate>
													<string>00;00;00;00</string>
													<frame>0</frame>
													<displayformat>DF</displayformat>
												</timecode>
												<media>
													<video>
														<samplecharacteristics>
															<rate>
																<timebase>30</timebase>
																<ntsc>TRUE</ntsc>
															</rate>
															<width>720</width>
															<height>576</height>
															<anamorphic>TRUE</anamorphic>
															<pixelaspectratio>PAL-601</pixelaspectratio>
															<fielddominance>none</fielddominance>
														</samplecharacteristics>
													</video>
												</media>
											</file>
											<filter>
												<effect>
													<name>Vector Motion</name>
													<effectid>GraphicGroup</effectid>
													<effectcategory>graphic</effectcategory>
													<effecttype>filter</effecttype>
													<mediatype>video</mediatype>
													<pproBypass>false</pproBypass>
													<parameter authoringApp="PremierePro">
														<parameterid>1</parameterid>
														<name>Position</name>
														<IsTimeVarying>false</IsTimeVarying>
														<value>-91445760000000000,0.81693898908787344:0.49085601568222115,0,0,0,0,0,0,5,4,0,0,0,0</value>
													</parameter>
													<parameter authoringApp="PremierePro">
														<parameterid>2</parameterid>
														<name>Scale</name>
														<IsTimeVarying>false</IsTimeVarying>
														<ParameterControlType>2</ParameterControlType>
														<LowerBound>0</LowerBound>
														<UpperBound>10000</UpperBound>
														<UpperUIBound>200</UpperUIBound>
														<value>-91445760000000000,100.,0,0,0,0,0,0</value>
													</parameter>
													<parameter authoringApp="PremierePro">
														<parameterid>3</parameterid>
														<name>Scale Width</name>
														<IsTimeVarying>false</IsTimeVarying>
														<ParameterControlType>2</ParameterControlType>
														<LowerBound>0</LowerBound>
														<UpperBound>10000</UpperBound>
														<UpperUIBound>200</UpperUIBound>
														<value>-91445760000000000,100.,0,0,0,0,0,0</value>
													</parameter>
													<parameter authoringApp="PremierePro">
														<parameterid>4</parameterid>
														<name> </name>
														<IsTimeVarying>false</IsTimeVarying>
														<ParameterControlType>4</ParameterControlType>
														<LowerBound>false</LowerBound>
														<UpperBound>true</UpperBound>
														<value>-91445760000000000,true,0,0,0,0,0,0</value>
													</parameter>
													<parameter authoringApp="PremierePro">
														<parameterid>5</parameterid>
														<name>Rotation</name>
														<IsTimeVarying>false</IsTimeVarying>
														<ParameterControlType>3</ParameterControlType>
														<LowerBound>-32768</LowerBound>
														<UpperBound>32767</UpperBound>
														<value>-91445760000000000,0.,0,0,0,0,0,0</value>
													</parameter>
													<parameter authoringApp="PremierePro">
														<parameterid>6</parameterid>
														<name>Anchor Point</name>
														<IsTimeVarying>false</IsTimeVarying>
														<value>-91445760000000000,0.5:0.5,0,0,0,0,0,0,5,4,0,0,0,0</value>
													</parameter>
												</effect>
											</filter>
											<filter>
												<effect>
													<name>Данил Прытков признаётся, &#13;что сильные провалы &#13;мотивируют его на творчество &#13;не меньше, чем победы. </name>
													<effectid>GraphicAndType</effectid>
													<effectcategory>graphic</effectcategory>
													<effecttype>filter</effecttype>
													<mediatype>video</mediatype>
													<pproBypass>false</pproBypass>
													<pproExpanded>true</pproExpanded>
													<parameter authoringApp="PremierePro">
														<parameterid>1</parameterid>
														<name>Source Text</name>
														<hash>698123b5-7d57-7b79-efb1-b0df00000a31</hash>
													</parameter>
													<parameter authoringApp="PremierePro">
														<parameterid>2</parameterid>
														<name>Transform</name>
														<IsTimeVarying>false</IsTimeVarying>
														<ParameterControlType>11</ParameterControlType>
														<LowerBound>false</LowerBound>
														<UpperBound>false</UpperBound>
														<value>-91445760000000000,false,0,0,0,0,0,0</value>
													</parameter>
													<parameter authoringApp="PremierePro">
														<parameterid>3</parameterid>
														<name>Position</name>
														<IsTimeVarying>false</IsTimeVarying>
														<value>-91445760000000000,0.270416259765625:0.640594482421875,0,0,0,0,0,0,5,4,0,0,0,0</value>
													</parameter>
													<parameter authoringApp="PremierePro">
														<parameterid>4</parameterid>
														<name>Scale</name>
														<IsTimeVarying>false</IsTimeVarying>
														<ParameterControlType>2</ParameterControlType>
														<LowerBound>0</LowerBound>
														<UpperBound>4000</UpperBound>
														<value>-91445760000000000,100.,0,0,0,0,0,0</value>
													</parameter>
													<parameter authoringApp="PremierePro">
														<parameterid>5</parameterid>
														<name>Horizontal Scale</name>
														<IsTimeVarying>false</IsTimeVarying>
														<ParameterControlType>2</ParameterControlType>
														<LowerBound>0</LowerBound>
														<UpperBound>4000</UpperBound>
														<value>-91445760000000000,100.,0,0,0,0,0,0</value>
													</parameter>
													<parameter authoringApp="PremierePro">
														<parameterid>6</parameterid>
														<name> </name>
														<IsTimeVarying>false</IsTimeVarying>
														<ParameterControlType>4</ParameterControlType>
														<LowerBound>false</LowerBound>
														<UpperBound>true</UpperBound>
														<value>-91445760000000000,true,0,0,0,0,0,0</value>
													</parameter>
													<parameter authoringApp="PremierePro">
														<parameterid>7</parameterid>
														<name>Rotation</name>
														<IsTimeVarying>false</IsTimeVarying>
														<ParameterControlType>3</ParameterControlType>
														<LowerBound>-32768</LowerBound>
														<UpperBound>32767</UpperBound>
														<value>-91445760000000000,0.,0,0,0,0,0,0</value>
													</parameter>
													<parameter authoringApp="PremierePro">
														<parameterid>8</parameterid>
														<name>Opacity</name>
														<IsTimeVarying>false</IsTimeVarying>
														<ParameterControlType>2</ParameterControlType>
														<LowerBound>0</LowerBound>
														<UpperBound>100</UpperBound>
														<value>-91445760000000000,100.,0,0,0,0,0,0</value>
													</parameter>
													<parameter authoringApp="PremierePro">
														<parameterid>9</parameterid>
														<name>Anchor Point</name>
														<IsTimeVarying>false</IsTimeVarying>
														<value>-91445760000000000,0:0,0,0,0,0,0,0,5,4,0,0,0,0</value>
													</parameter>
													<parameter authoringApp="PremierePro">
														<parameterid>10</parameterid>
														<name></name>
														<IsTimeVarying>false</IsTimeVarying>
														<ParameterControlType>12</ParameterControlType>
														<LowerBound>false</LowerBound>
														<UpperBound>false</UpperBound>
														<value>-91445760000000000,false,0,0,0,0,0,0</value>
													</parameter>
													<parameter authoringApp="PremierePro">
														<parameterid>11</parameterid>
														<name> </name>
														<IsTimeVarying>false</IsTimeVarying>
														<ParameterControlType>8</ParameterControlType>
														<LowerBound>0</LowerBound>
														<UpperBound>32768</UpperBound>
														<value>-91445760000000000,0.,0,0,0,0,0,0</value>
													</parameter>
													<parameter authoringApp="PremierePro">
														<parameterid>12</parameterid>
														<name> </name>
														<IsTimeVarying>false</IsTimeVarying>
														<ParameterControlType>8</ParameterControlType>
														<LowerBound>0</LowerBound>
														<UpperBound>32768</UpperBound>
														<value>-91445760000000000,0.,0,0,0,0,0,0</value>
													</parameter>
													<parameter authoringApp="PremierePro">
														<parameterid>13</parameterid>
														<name>start</name>
														<IsTimeVarying>false</IsTimeVarying>
														<ParameterControlType>8</ParameterControlType>
														<LowerBound>-100</LowerBound>
														<UpperBound>1000000000</UpperBound>
														<value>-91445760000000000,0.,0,0,0,0,0,0</value>
													</parameter>
													<parameter authoringApp="PremierePro">
														<parameterid>14</parameterid>
														<name>end</name>
														<IsTimeVarying>false</IsTimeVarying>
														<ParameterControlType>8</ParameterControlType>
														<LowerBound>-100</LowerBound>
														<UpperBound>1000000000</UpperBound>
														<value>-91445760000000000,101.,0,0,0,0,0,0</value>
													</parameter>
													<parameter authoringApp="PremierePro">
														<parameterid>15</parameterid>
														<name> </name>
														<IsTimeVarying>false</IsTimeVarying>
														<ParameterControlType>4</ParameterControlType>
														<LowerBound>false</LowerBound>
														<UpperBound>true</UpperBound>
														<value>-91445760000000000,false,0,0,0,0,0,0</value>
													</parameter>
													<parameter authoringApp="PremierePro">
														<parameterid>16</parameterid>
														<name> </name>
														<IsTimeVarying>false</IsTimeVarying>
														<ParameterControlType>4</ParameterControlType>
														<LowerBound>false</LowerBound>
														<UpperBound>true</UpperBound>
														<value>-91445760000000000,false,0,0,0,0,0,0</value>
													</parameter>
													<parameter authoringApp="PremierePro">
														<parameterid>17</parameterid>
														<name> </name>
														<IsTimeVarying>false</IsTimeVarying>
														<ParameterControlType>4</ParameterControlType>
														<LowerBound>false</LowerBound>
														<UpperBound>true</UpperBound>
														<value>-91445760000000000,false,0,0,0,0,0,0</value>
													</parameter>
													<parameter authoringApp="PremierePro">
														<parameterid>18</parameterid>
														<name> </name>
														<IsTimeVarying>false</IsTimeVarying>
														<ParameterControlType>4</ParameterControlType>
														<LowerBound>false</LowerBound>
														<UpperBound>true</UpperBound>
														<value>-91445760000000000,false,0,0,0,0,0,0</value>
													</parameter>
													<parameter authoringApp="PremierePro">
														<parameterid>19</parameterid>
														<name>Parent Width</name>
														<IsTimeVarying>false</IsTimeVarying>
														<ParameterControlType>2</ParameterControlType>
														<LowerBound>0</LowerBound>
														<UpperBound>20000</UpperBound>
														<value>-91445760000000000,0.,0,0,0,0,0,0</value>
													</parameter>
													<parameter authoringApp="PremierePro">
														<parameterid>20</parameterid>
														<name>Parent Height</name>
														<IsTimeVarying>false</IsTimeVarying>
														<ParameterControlType>2</ParameterControlType>
														<LowerBound>0</LowerBound>
														<UpperBound>20000</UpperBound>
														<value>-91445760000000000,0.,0,0,0,0,0,0</value>
													</parameter>
													<parameter authoringApp="PremierePro">
														<parameterid>21</parameterid>
														<name>Parent Rotation</name>
														<IsTimeVarying>false</IsTimeVarying>
														<ParameterControlType>3</ParameterControlType>
														<LowerBound>-32768</LowerBound>
														<UpperBound>32767</UpperBound>
														<value>-91445760000000000,0.,0,0,0,0,0,0</value>
													</parameter>
												</effect>
											</filter>
											<logginginfo>
												<description></description>
												<scene></scene>
												<shottake></shottake>
												<lognote></lognote>
												<good></good>
												<originalvideofilename></originalvideofilename>
												<originalaudiofilename></originalaudiofilename>
											</logginginfo>
											<colorinfo>
												<lut></lut>
												<lut1></lut1>
												<asc_sop></asc_sop>
												<asc_sat></asc_sat>
												<lut2></lut2>
											</colorinfo>
										</clipitem>
										<transitionitem>
											<start>1097</start>
											<end>1122</end>
											<alignment>end-black</alignment>
											<cutPointTicks>254016000000</cutPointTicks>
											<rate>
												<timebase>25</timebase>
												<ntsc>FALSE</ntsc>
											</rate>
											<effect>
												<name>Edge Wipe</name>
												<effectid>Edge Wipe</effectid>
												<effectcategory>Wipe</effectcategory>
												<effecttype>transition</effecttype>
												<mediatype>video</mediatype>
												<wipecode>2</wipecode>
												<wipeaccuracy>100</wipeaccuracy>
												<startratio>0</startratio>
												<endratio>1</endratio>
												<reverse>FALSE</reverse>
												<parameter authoringApp="PremierePro">
													<parameterid>directionofwipe</parameterid>
													<name>Angle</name>
													<valuemin>-360</valuemin>
													<valuemax>360</valuemax>
													<value>90</value>
												</parameter>
											</effect>
										</transitionitem>
										<enabled>TRUE</enabled>
										<locked>FALSE</locked>
									</track>
								</video>
								<audio>
									<numOutputChannels>2</numOutputChannels>
									<format>
										<samplecharacteristics>
											<depth>16</depth>
											<samplerate>48000</samplerate>
										</samplecharacteristics>
									</format>
									<outputs>
										<group>
											<index>1</index>
											<numchannels>1</numchannels>
											<downmix>0</downmix>
											<channel>
												<index>1</index>
											</channel>
										</group>
										<group>
											<index>2</index>
											<numchannels>1</numchannels>
											<downmix>0</downmix>
											<channel>
												<index>2</index>
											</channel>
										</group>
									</outputs>
									<track TL.SQTrackAudioKeyframeStyle="0" TL.SQTrackShy="0" TL.SQTrackExpandedHeight="25" TL.SQTrackExpanded="0" MZ.TrackTargeted="1" PannerCurrentValue="0.5" PannerStartKeyframe="-91445760000000000,0.5,0,0,0,0,0,0" PannerName="Balance" currentExplodedTrackIndex="0" totalExplodedTrackCount="2" premiereTrackType="Stereo">
										<enabled>TRUE</enabled>
										<locked>FALSE</locked>
										<outputchannelindex>1</outputchannelindex>
									</track>
									<track TL.SQTrackAudioKeyframeStyle="0" TL.SQTrackShy="0" TL.SQTrackExpandedHeight="25" TL.SQTrackExpanded="0" MZ.TrackTargeted="1" PannerCurrentValue="0.5" PannerStartKeyframe="-91445760000000000,0.5,0,0,0,0,0,0" PannerName="Balance" currentExplodedTrackIndex="1" totalExplodedTrackCount="2" premiereTrackType="Stereo">
										<enabled>TRUE</enabled>
										<locked>FALSE</locked>
										<outputchannelindex>2</outputchannelindex>
									</track>
								</audio>
							</media>
							<timecode>
								<rate>
									<timebase>25</timebase>
									<ntsc>FALSE</ntsc>
								</rate>
								<string>00:00:00:00</string>
								<frame>0</frame>
								<displayformat>NDF</displayformat>
							</timecode>
								<marker>
									<comment></comment>
									<name></name>
									<in>800</in>
									<out>-1</out>
									<pproColor>4292277273</pproColor>
								</marker>
								<marker>
									<comment></comment>
									<name></name>
									<in>50</in>
									<out>-1</out>
									<pproColor>4292277273</pproColor>
								</marker>
								<marker>
									<comment></comment>
									<name></name>
									<in>425</in>
									<out>-1</out>
									<pproColor>4292277273</pproColor>
								</marker>
							<logginginfo>
								<description></description>
								<scene></scene>
								<shottake></shottake>
								<lognote></lognote>
								<good></good>
								<originalvideofilename></originalvideofilename>
								<originalaudiofilename></originalaudiofilename>
							</logginginfo>
						</sequence>
							<marker>
								<comment></comment>
								<name></name>
								<in>800</in>
								<out>-1</out>
								<pproColor>4292277273</pproColor>
							</marker>
							<marker>
								<comment></comment>
								<name></name>
								<in>50</in>
								<out>-1</out>
								<pproColor>4292277273</pproColor>
							</marker>
							<marker>
								<comment></comment>
								<name></name>
								<in>425</in>
								<out>-1</out>
								<pproColor>4292277273</pproColor>
							</marker>
						<labels>
							<label2>Forest</label2>
						</labels>
					</clipitem>
					<clipitem id="clipitem-841">
						<masterclipid>masterclip-404</masterclipid>
						<name>2</name>
						<enabled>TRUE</enabled>
						<duration>1125</duration>
						<rate>
							<timebase>25</timebase>
							<ntsc>FALSE</ntsc>
						</rate>
						<start>58733</start>
						<end>59108</end>
						<in>375</in>
						<out>750</out>
						<pproTicksIn>3810240000000</pproTicksIn>
						<pproTicksOut>7620480000000</pproTicksOut>
						<sequence id="sequence-63"/>
							<marker>
								<comment></comment>
								<name></name>
								<in>800</in>
								<out>-1</out>
								<pproColor>4292277273</pproColor>
							</marker>
							<marker>
								<comment></comment>
								<name></name>
								<in>50</in>
								<out>-1</out>
								<pproColor>4292277273</pproColor>
							</marker>
							<marker>
								<comment></comment>
								<name></name>
								<in>425</in>
								<out>-1</out>
								<pproColor>4292277273</pproColor>
							</marker>
						<labels>
							<label2>Forest</label2>
						</labels>
					</clipitem>
					<clipitem id="clipitem-842">
						<masterclipid>masterclip-404</masterclipid>
						<name>2</name>
						<enabled>TRUE</enabled>
						<duration>1125</duration>
						<rate>
							<timebase>25</timebase>
							<ntsc>FALSE</ntsc>
						</rate>
						<start>59639</start>
						<end>60014</end>
						<in>750</in>
						<out>1125</out>
						<pproTicksIn>7620480000000</pproTicksIn>
						<pproTicksOut>11430720000000</pproTicksOut>
						<sequence id="sequence-63"/>
							<marker>
								<comment></comment>
								<name></name>
								<in>800</in>
								<out>-1</out>
								<pproColor>4292277273</pproColor>
							</marker>
							<marker>
								<comment></comment>
								<name></name>
								<in>50</in>
								<out>-1</out>
								<pproColor>4292277273</pproColor>
							</marker>
							<marker>
								<comment></comment>
								<name></name>
								<in>425</in>
								<out>-1</out>
								<pproColor>4292277273</pproColor>
							</marker>
						<labels>
							<label2>Forest</label2>
						</labels>
					</clipitem>
					<clipitem id="clipitem-843">
						<masterclipid>masterclip-410</masterclipid>
						<name>1</name>
						<enabled>TRUE</enabled>
						<duration>1125</duration>
						<rate>
							<timebase>25</timebase>
							<ntsc>FALSE</ntsc>
						</rate>
						<start>62342</start>
						<end>62717</end>
						<in>0</in>
						<out>375</out>
						<pproTicksIn>0</pproTicksIn>
						<pproTicksOut>3810240000000</pproTicksOut>
						<sequence id="sequence-64" TL.SQAudioVisibleBase="0" TL.SQVideoVisibleBase="0" TL.SQVisibleBaseTime="0" TL.SQAVDividerPosition="0.5" TL.SQHideShyTracks="0" TL.SQHeaderWidth="236" Monitor.ProgramZoomOut="11430720000000" Monitor.ProgramZoomIn="0" TL.SQTimePerPixel="0.19620667102680808" AM.TrackVScrollPosition="0" AM.TrackScrollPosition="0" MZ.EditLine="9469716480000" MZ.Sequence.PreviewFrameSizeHeight="576" MZ.Sequence.PreviewFrameSizeWidth="720" MZ.Sequence.AudioTimeDisplayFormat="200" MZ.Sequence.PreviewRenderingClassID="1061109567" MZ.Sequence.PreviewRenderingPresetCodec="1685480304" MZ.Sequence.PreviewRenderingPresetPath="EncoderPresets/SequencePreview/04be6e19-a018-4e0c-a9d6-0ab44c64752b/QuickTime DV PAL.epr" MZ.Sequence.PreviewUseMaxRenderQuality="false" MZ.Sequence.PreviewUseMaxBitDepth="false" MZ.Sequence.EditingModeGUID="04be6e19-a018-4e0c-a9d6-0ab44c64752b" MZ.Sequence.VideoTimeDisplayFormat="101" MZ.WorkOutPoint="11430720000000" MZ.WorkInPoint="0" MZ.ZeroPoint="0">
							<duration>1125</duration>
							<rate>
								<timebase>25</timebase>
								<ntsc>FALSE</ntsc>
							</rate>
							<name>RU_Nested</name>
							<media>
								<video>
									<format>
										<samplecharacteristics>
											<rate>
												<timebase>25</timebase>
												<ntsc>FALSE</ntsc>
											</rate>
											<codec>
												<name>Apple ProRes 422</name>
												<appspecificdata>
													<appname>Final Cut Pro</appname>
													<appmanufacturer>Apple Inc.</appmanufacturer>
													<appversion>7.0</appversion>
													<data>
														<qtcodec>
															<codecname>Apple ProRes 422</codecname>
															<codectypename>Apple ProRes 422</codectypename>
															<codectypecode>apcn</codectypecode>
															<codecvendorcode>appl</codecvendorcode>
															<spatialquality>1024</spatialquality>
															<temporalquality>0</temporalquality>
															<keyframerate>0</keyframerate>
															<datarate>0</datarate>
														</qtcodec>
													</data>
												</appspecificdata>
											</codec>
											<width>720</width>
											<height>576</height>
											<anamorphic>TRUE</anamorphic>
											<pixelaspectratio>PAL-601</pixelaspectratio>
											<fielddominance>lower</fielddominance>
											<colordepth>24</colordepth>
										</samplecharacteristics>
									</format>
									<track TL.SQTrackShy="0" TL.SQTrackExpandedHeight="25" TL.SQTrackExpanded="0" MZ.TrackTargeted="1">
										<clipitem id="clipitem-844">
											<masterclipid>masterclip-411</masterclipid>
											<name>Plashka_Right_DV.mov</name>
											<enabled>TRUE</enabled>
											<duration>375</duration>
											<rate>
												<timebase>25</timebase>
												<ntsc>FALSE</ntsc>
											</rate>
											<start>0</start>
											<end>375</end>
											<in>0</in>
											<out>375</out>
											<pproTicksIn>0</pproTicksIn>
											<pproTicksOut>3810240000000</pproTicksOut>
											<alphatype>straight</alphatype>
											<pixelaspectratio>PAL-601</pixelaspectratio>
											<anamorphic>TRUE</anamorphic>
											<file id="file-351">
												<name>Plashka_Right_DV.mov</name>
												<pathurl>file://localhost/Volumes/1Tb/_MUZ_TV/graphika/RU-21/MOD/Plashka_Right_DV.mov</pathurl>
												<rate>
													<timebase>25</timebase>
													<ntsc>FALSE</ntsc>
												</rate>
												<duration>375</duration>
												<timecode>
													<rate>
														<timebase>25</timebase>
														<ntsc>FALSE</ntsc>
													</rate>
													<string>00:00:15:10</string>
													<frame>385</frame>
													<displayformat>NDF</displayformat>
												</timecode>
												<media>
													<video>
														<samplecharacteristics>
															<rate>
																<timebase>25</timebase>
																<ntsc>FALSE</ntsc>
															</rate>
															<width>720</width>
															<height>576</height>
															<anamorphic>TRUE</anamorphic>
															<pixelaspectratio>PAL-601</pixelaspectratio>
															<fielddominance>lower</fielddominance>
														</samplecharacteristics>
													</video>
												</media>
											</file>
											<filter>
												<effect>
													<name>Basic Motion</name>
													<effectid>basic</effectid>
													<effectcategory>motion</effectcategory>
													<effecttype>motion</effecttype>
													<mediatype>video</mediatype>
													<pproBypass>false</pproBypass>
													<parameter authoringApp="PremierePro">
														<parameterid>scale</parameterid>
														<name>Scale</name>
														<valuemin>0</valuemin>
														<valuemax>1000</valuemax>
														<value>100</value>
													</parameter>
													<parameter authoringApp="PremierePro">
														<parameterid>rotation</parameterid>
														<name>Rotation</name>
														<valuemin>-8640</valuemin>
														<valuemax>8640</valuemax>
														<value>0</value>
													</parameter>
													<parameter authoringApp="PremierePro">
														<parameterid>center</parameterid>
														<name>Center</name>
														<value>
															<horiz>-5.55112e-17</horiz>
															<vert>-1.11022e-16</vert>
														</value>
													</parameter>
													<parameter authoringApp="PremierePro">
														<parameterid>centerOffset</parameterid>
														<name>Anchor Point</name>
														<value>
															<horiz>0.402314</horiz>
															<vert>0.41875</vert>
														</value>
													</parameter>
													<parameter authoringApp="PremierePro">
														<parameterid>antiflicker</parameterid>
														<name>Anti-flicker Filter</name>
														<valuemin>0.0</valuemin>
														<valuemax>1.0</valuemax>
														<value>0</value>
													</parameter>
												</effect>
											</filter>
											<filter>
												<effect>
													<name>Distort</name>
													<effectid>deformation</effectid>
													<effectcategory>motion</effectcategory>
													<effecttype>motion</effecttype>
													<mediatype>video</mediatype>
													<parameter authoringApp="PremierePro">
														<parameterid>aspect</parameterid>
														<name>Aspect</name>
														<valuemin>-10000</valuemin>
														<valuemax>10000</valuemax>
														<value>13.6364</value>
													</parameter>
												</effect>
											</filter>
											<logginginfo>
												<description></description>
												<scene></scene>
												<shottake></shottake>
												<lognote></lognote>
												<good></good>
												<originalvideofilename></originalvideofilename>
												<originalaudiofilename></originalaudiofilename>
											</logginginfo>
											<colorinfo>
												<lut></lut>
												<lut1></lut1>
												<asc_sop></asc_sop>
												<asc_sat></asc_sat>
												<lut2></lut2>
											</colorinfo>
											<labels>
												<label2>Violet</label2>
											</labels>
										</clipitem>
										<clipitem id="clipitem-845">
											<masterclipid>masterclip-411</masterclipid>
											<name>Plashka_Right_DV.mov</name>
											<enabled>TRUE</enabled>
											<duration>375</duration>
											<rate>
												<timebase>25</timebase>
												<ntsc>FALSE</ntsc>
											</rate>
											<start>375</start>
											<end>750</end>
											<in>0</in>
											<out>375</out>
											<pproTicksIn>0</pproTicksIn>
											<pproTicksOut>3810240000000</pproTicksOut>
											<alphatype>straight</alphatype>
											<file id="file-351"/>
											<filter>
												<effect>
													<name>Basic Motion</name>
													<effectid>basic</effectid>
													<effectcategory>motion</effectcategory>
													<effecttype>motion</effecttype>
													<mediatype>video</mediatype>
													<pproBypass>false</pproBypass>
													<parameter authoringApp="PremierePro">
														<parameterid>scale</parameterid>
														<name>Scale</name>
														<valuemin>0</valuemin>
														<valuemax>1000</valuemax>
														<value>100</value>
													</parameter>
													<parameter authoringApp="PremierePro">
														<parameterid>rotation</parameterid>
														<name>Rotation</name>
														<valuemin>-8640</valuemin>
														<valuemax>8640</valuemax>
														<value>0</value>
													</parameter>
													<parameter authoringApp="PremierePro">
														<parameterid>center</parameterid>
														<name>Center</name>
														<value>
															<horiz>-5.55112e-17</horiz>
															<vert>-1.11022e-16</vert>
														</value>
													</parameter>
													<parameter authoringApp="PremierePro">
														<parameterid>centerOffset</parameterid>
														<name>Anchor Point</name>
														<value>
															<horiz>0.402314</horiz>
															<vert>0.41875</vert>
														</value>
													</parameter>
													<parameter authoringApp="PremierePro">
														<parameterid>antiflicker</parameterid>
														<name>Anti-flicker Filter</name>
														<valuemin>0.0</valuemin>
														<valuemax>1.0</valuemax>
														<value>0</value>
													</parameter>
												</effect>
											</filter>
											<filter>
												<effect>
													<name>Distort</name>
													<effectid>deformation</effectid>
													<effectcategory>motion</effectcategory>
													<effecttype>motion</effecttype>
													<mediatype>video</mediatype>
													<parameter authoringApp="PremierePro">
														<parameterid>aspect</parameterid>
														<name>Aspect</name>
														<valuemin>-10000</valuemin>
														<valuemax>10000</valuemax>
														<value>28.2051</value>
													</parameter>
												</effect>
											</filter>
											<logginginfo>
												<description></description>
												<scene></scene>
												<shottake></shottake>
												<lognote></lognote>
												<good></good>
												<originalvideofilename></originalvideofilename>
												<originalaudiofilename></originalaudiofilename>
											</logginginfo>
											<colorinfo>
												<lut></lut>
												<lut1></lut1>
												<asc_sop></asc_sop>
												<asc_sat></asc_sat>
												<lut2></lut2>
											</colorinfo>
											<labels>
												<label2>Violet</label2>
											</labels>
										</clipitem>
										<clipitem id="clipitem-846">
											<masterclipid>masterclip-411</masterclipid>
											<name>Plashka_Right_DV.mov</name>
											<enabled>TRUE</enabled>
											<duration>375</duration>
											<rate>
												<timebase>25</timebase>
												<ntsc>FALSE</ntsc>
											</rate>
											<start>750</start>
											<end>1125</end>
											<in>0</in>
											<out>375</out>
											<pproTicksIn>0</pproTicksIn>
											<pproTicksOut>3810240000000</pproTicksOut>
											<alphatype>straight</alphatype>
											<file id="file-351"/>
											<filter>
												<effect>
													<name>Basic Motion</name>
													<effectid>basic</effectid>
													<effectcategory>motion</effectcategory>
													<effecttype>motion</effecttype>
													<mediatype>video</mediatype>
													<pproBypass>false</pproBypass>
													<parameter authoringApp="PremierePro">
														<parameterid>scale</parameterid>
														<name>Scale</name>
														<valuemin>0</valuemin>
														<valuemax>1000</valuemax>
														<value>100</value>
													</parameter>
													<parameter authoringApp="PremierePro">
														<parameterid>rotation</parameterid>
														<name>Rotation</name>
														<valuemin>-8640</valuemin>
														<valuemax>8640</valuemax>
														<value>0</value>
													</parameter>
													<parameter authoringApp="PremierePro">
														<parameterid>center</parameterid>
														<name>Center</name>
														<value>
															<horiz>-5.55112e-17</horiz>
															<vert>-1.11022e-16</vert>
														</value>
													</parameter>
													<parameter authoringApp="PremierePro">
														<parameterid>centerOffset</parameterid>
														<name>Anchor Point</name>
														<value>
															<horiz>0.402314</horiz>
															<vert>0.41875</vert>
														</value>
													</parameter>
													<parameter authoringApp="PremierePro">
														<parameterid>antiflicker</parameterid>
														<name>Anti-flicker Filter</name>
														<valuemin>0.0</valuemin>
														<valuemax>1.0</valuemax>
														<value>0</value>
													</parameter>
												</effect>
											</filter>
											<filter>
												<effect>
													<name>Distort</name>
													<effectid>deformation</effectid>
													<effectcategory>motion</effectcategory>
													<effecttype>motion</effecttype>
													<mediatype>video</mediatype>
													<parameter authoringApp="PremierePro">
														<parameterid>aspect</parameterid>
														<name>Aspect</name>
														<valuemin>-10000</valuemin>
														<valuemax>10000</valuemax>
														<value>38.8889</value>
													</parameter>
												</effect>
											</filter>
											<logginginfo>
												<description></description>
												<scene></scene>
												<shottake></shottake>
												<lognote></lognote>
												<good></good>
												<originalvideofilename></originalvideofilename>
												<originalaudiofilename></originalaudiofilename>
											</logginginfo>
											<colorinfo>
												<lut></lut>
												<lut1></lut1>
												<asc_sop></asc_sop>
												<asc_sat></asc_sat>
												<lut2></lut2>
											</colorinfo>
											<labels>
												<label2>Violet</label2>
											</labels>
										</clipitem>
										<enabled>TRUE</enabled>
										<locked>FALSE</locked>
									</track>
									<track TL.SQTrackShy="0" TL.SQTrackExpandedHeight="25" TL.SQTrackExpanded="0" MZ.TrackTargeted="0">
										<transitionitem>
											<start>6</start>
											<end>35</end>
											<alignment>start-black</alignment>
											<cutPointTicks>0</cutPointTicks>
											<rate>
												<timebase>25</timebase>
												<ntsc>FALSE</ntsc>
											</rate>
											<effect>
												<name>Edge Wipe</name>
												<effectid>Edge Wipe</effectid>
												<effectcategory>Wipe</effectcategory>
												<effecttype>transition</effecttype>
												<mediatype>video</mediatype>
												<wipecode>2</wipecode>
												<wipeaccuracy>100</wipeaccuracy>
												<startratio>0</startratio>
												<endratio>1</endratio>
												<reverse>FALSE</reverse>
												<parameter authoringApp="PremierePro">
													<parameterid>directionofwipe</parameterid>
													<name>Angle</name>
													<valuemin>-360</valuemin>
													<valuemax>360</valuemax>
													<value>270</value>
												</parameter>
											</effect>
										</transitionitem>
										<clipitem id="clipitem-847">
											<masterclipid>masterclip-412</masterclipid>
											<name>1_1.png</name>
											<enabled>TRUE</enabled>
											<duration>1080000</duration>
											<rate>
												<timebase>25</timebase>
												<ntsc>FALSE</ntsc>
											</rate>
											<start>-1</start>
											<end>-1</end>
											<in>90006</in>
											<out>90369</out>
											<pproTicksIn>914518563840000</pproTicksIn>
											<pproTicksOut>918206876160000</pproTicksOut>
											<alphatype>straight</alphatype>
											<pixelaspectratio>square</pixelaspectratio>
											<anamorphic>FALSE</anamorphic>
											<file id="file-352">
												<name>1_1.png</name>
												<pathurl>file://localhost/_MUZ_TV/project_AP/RU/_TITLE/END/PNG/1_1.png</pathurl>
												<rate>
													<timebase>30</timebase>
													<ntsc>TRUE</ntsc>
												</rate>
												<timecode>
													<rate>
														<timebase>30</timebase>
														<ntsc>TRUE</ntsc>
													</rate>
													<string>00;00;00;00</string>
													<frame>0</frame>
													<displayformat>DF</displayformat>
												</timecode>
												<media>
													<video>
														<samplecharacteristics>
															<rate>
																<timebase>30</timebase>
																<ntsc>TRUE</ntsc>
															</rate>
															<width>1920</width>
															<height>1080</height>
															<anamorphic>FALSE</anamorphic>
															<pixelaspectratio>square</pixelaspectratio>
															<fielddominance>none</fielddominance>
														</samplecharacteristics>
													</video>
												</media>
											</file>
											<filter>
												<effect>
													<name>Basic Motion</name>
													<effectid>basic</effectid>
													<effectcategory>motion</effectcategory>
													<effecttype>motion</effecttype>
													<mediatype>video</mediatype>
													<pproBypass>false</pproBypass>
													<parameter authoringApp="PremierePro">
														<parameterid>scale</parameterid>
														<name>Scale</name>
														<valuemin>0</valuemin>
														<valuemax>1000</valuemax>
														<value>53.3333</value>
													</parameter>
													<parameter authoringApp="PremierePro">
														<parameterid>rotation</parameterid>
														<name>Rotation</name>
														<valuemin>-8640</valuemin>
														<valuemax>8640</valuemax>
														<value>0</value>
													</parameter>
													<parameter authoringApp="PremierePro">
														<parameterid>center</parameterid>
														<name>Center</name>
														<value>
															<horiz>0</horiz>
															<vert>0</vert>
														</value>
													</parameter>
													<parameter authoringApp="PremierePro">
														<parameterid>centerOffset</parameterid>
														<name>Anchor Point</name>
														<value>
															<horiz>0</horiz>
															<vert>0</vert>
														</value>
													</parameter>
													<parameter authoringApp="PremierePro">
														<parameterid>antiflicker</parameterid>
														<name>Anti-flicker Filter</name>
														<valuemin>0.0</valuemin>
														<valuemax>1.0</valuemax>
														<value>0</value>
													</parameter>
												</effect>
											</filter>
											<logginginfo>
												<description></description>
												<scene></scene>
												<shottake></shottake>
												<lognote></lognote>
												<good></good>
												<originalvideofilename></originalvideofilename>
												<originalaudiofilename></originalaudiofilename>
											</logginginfo>
											<colorinfo>
												<lut></lut>
												<lut1></lut1>
												<asc_sop></asc_sop>
												<asc_sat></asc_sat>
												<lut2></lut2>
											</colorinfo>
											<labels>
												<label2>Lavender</label2>
											</labels>
										</clipitem>
										<transitionitem>
											<start>344</start>
											<end>369</end>
											<alignment>end-black</alignment>
											<cutPointTicks>254016000000</cutPointTicks>
											<rate>
												<timebase>25</timebase>
												<ntsc>FALSE</ntsc>
											</rate>
											<effect>
												<name>Edge Wipe</name>
												<effectid>Edge Wipe</effectid>
												<effectcategory>Wipe</effectcategory>
												<effecttype>transition</effecttype>
												<mediatype>video</mediatype>
												<wipecode>2</wipecode>
												<wipeaccuracy>100</wipeaccuracy>
												<startratio>0</startratio>
												<endratio>1</endratio>
												<reverse>FALSE</reverse>
												<parameter authoringApp="PremierePro">
													<parameterid>directionofwipe</parameterid>
													<name>Angle</name>
													<valuemin>-360</valuemin>
													<valuemax>360</valuemax>
													<value>90</value>
												</parameter>
											</effect>
										</transitionitem>
										<transitionitem>
											<start>381</start>
											<end>410</end>
											<alignment>start-black</alignment>
											<cutPointTicks>0</cutPointTicks>
											<rate>
												<timebase>25</timebase>
												<ntsc>FALSE</ntsc>
											</rate>
											<effect>
												<name>Edge Wipe</name>
												<effectid>Edge Wipe</effectid>
												<effectcategory>Wipe</effectcategory>
												<effecttype>transition</effecttype>
												<mediatype>video</mediatype>
												<wipecode>2</wipecode>
												<wipeaccuracy>100</wipeaccuracy>
												<startratio>0</startratio>
												<endratio>1</endratio>
												<reverse>FALSE</reverse>
												<parameter authoringApp="PremierePro">
													<parameterid>directionofwipe</parameterid>
													<name>Angle</name>
													<valuemin>-360</valuemin>
													<valuemax>360</valuemax>
													<value>270</value>
												</parameter>
											</effect>
										</transitionitem>
										<clipitem id="clipitem-848">
											<masterclipid>masterclip-413</masterclipid>
											<name>1_2.png</name>
											<enabled>TRUE</enabled>
											<duration>1080000</duration>
											<rate>
												<timebase>25</timebase>
												<ntsc>FALSE</ntsc>
											</rate>
											<start>-1</start>
											<end>-1</end>
											<in>90011</in>
											<out>90374</out>
											<pproTicksIn>914569367040000</pproTicksIn>
											<pproTicksOut>918257679360000</pproTicksOut>
											<alphatype>straight</alphatype>
											<pixelaspectratio>square</pixelaspectratio>
											<anamorphic>FALSE</anamorphic>
											<file id="file-353">
												<name>1_2.png</name>
												<pathurl>file://localhost/_MUZ_TV/project_AP/RU/_TITLE/END/PNG/1_2.png</pathurl>
												<rate>
													<timebase>30</timebase>
													<ntsc>TRUE</ntsc>
												</rate>
												<timecode>
													<rate>
														<timebase>30</timebase>
														<ntsc>TRUE</ntsc>
													</rate>
													<string>00;00;00;00</string>
													<frame>0</frame>
													<displayformat>DF</displayformat>
												</timecode>
												<media>
													<video>
														<samplecharacteristics>
															<rate>
																<timebase>30</timebase>
																<ntsc>TRUE</ntsc>
															</rate>
															<width>1920</width>
															<height>1080</height>
															<anamorphic>FALSE</anamorphic>
															<pixelaspectratio>square</pixelaspectratio>
															<fielddominance>none</fielddominance>
														</samplecharacteristics>
													</video>
												</media>
											</file>
											<filter>
												<effect>
													<name>Basic Motion</name>
													<effectid>basic</effectid>
													<effectcategory>motion</effectcategory>
													<effecttype>motion</effecttype>
													<mediatype>video</mediatype>
													<pproBypass>false</pproBypass>
													<parameter authoringApp="PremierePro">
														<parameterid>scale</parameterid>
														<name>Scale</name>
														<valuemin>0</valuemin>
														<valuemax>1000</valuemax>
														<value>53.3333</value>
													</parameter>
													<parameter authoringApp="PremierePro">
														<parameterid>rotation</parameterid>
														<name>Rotation</name>
														<valuemin>-8640</valuemin>
														<valuemax>8640</valuemax>
														<value>0</value>
													</parameter>
													<parameter authoringApp="PremierePro">
														<parameterid>center</parameterid>
														<name>Center</name>
														<value>
															<horiz>0</horiz>
															<vert>0</vert>
														</value>
													</parameter>
													<parameter authoringApp="PremierePro">
														<parameterid>centerOffset</parameterid>
														<name>Anchor Point</name>
														<value>
															<horiz>0</horiz>
															<vert>0</vert>
														</value>
													</parameter>
													<parameter authoringApp="PremierePro">
														<parameterid>antiflicker</parameterid>
														<name>Anti-flicker Filter</name>
														<valuemin>0.0</valuemin>
														<valuemax>1.0</valuemax>
														<value>0</value>
													</parameter>
												</effect>
											</filter>
											<logginginfo>
												<description></description>
												<scene></scene>
												<shottake></shottake>
												<lognote></lognote>
												<good></good>
												<originalvideofilename></originalvideofilename>
												<originalaudiofilename></originalaudiofilename>
											</logginginfo>
											<colorinfo>
												<lut></lut>
												<lut1></lut1>
												<asc_sop></asc_sop>
												<asc_sat></asc_sat>
												<lut2></lut2>
											</colorinfo>
											<labels>
												<label2>Lavender</label2>
											</labels>
										</clipitem>
										<transitionitem>
											<start>719</start>
											<end>744</end>
											<alignment>end-black</alignment>
											<cutPointTicks>254016000000</cutPointTicks>
											<rate>
												<timebase>25</timebase>
												<ntsc>FALSE</ntsc>
											</rate>
											<effect>
												<name>Edge Wipe</name>
												<effectid>Edge Wipe</effectid>
												<effectcategory>Wipe</effectcategory>
												<effecttype>transition</effecttype>
												<mediatype>video</mediatype>
												<wipecode>2</wipecode>
												<wipeaccuracy>100</wipeaccuracy>
												<startratio>0</startratio>
												<endratio>1</endratio>
												<reverse>FALSE</reverse>
												<parameter authoringApp="PremierePro">
													<parameterid>directionofwipe</parameterid>
													<name>Angle</name>
													<valuemin>-360</valuemin>
													<valuemax>360</valuemax>
													<value>90</value>
												</parameter>
											</effect>
										</transitionitem>
										<transitionitem>
											<start>756</start>
											<end>785</end>
											<alignment>start-black</alignment>
											<cutPointTicks>0</cutPointTicks>
											<rate>
												<timebase>25</timebase>
												<ntsc>FALSE</ntsc>
											</rate>
											<effect>
												<name>Edge Wipe</name>
												<effectid>Edge Wipe</effectid>
												<effectcategory>Wipe</effectcategory>
												<effecttype>transition</effecttype>
												<mediatype>video</mediatype>
												<wipecode>2</wipecode>
												<wipeaccuracy>100</wipeaccuracy>
												<startratio>0</startratio>
												<endratio>1</endratio>
												<reverse>FALSE</reverse>
												<parameter authoringApp="PremierePro">
													<parameterid>directionofwipe</parameterid>
													<name>Angle</name>
													<valuemin>-360</valuemin>
													<valuemax>360</valuemax>
													<value>270</value>
												</parameter>
											</effect>
										</transitionitem>
										<clipitem id="clipitem-849">
											<masterclipid>masterclip-414</masterclipid>
											<name>1_3.png</name>
											<enabled>TRUE</enabled>
											<duration>1080000</duration>
											<rate>
												<timebase>25</timebase>
												<ntsc>FALSE</ntsc>
											</rate>
											<start>-1</start>
											<end>-1</end>
											<in>90011</in>
											<out>90375</out>
											<pproTicksIn>914569367040000</pproTicksIn>
											<pproTicksOut>918267840000000</pproTicksOut>
											<alphatype>straight</alphatype>
											<pixelaspectratio>square</pixelaspectratio>
											<anamorphic>FALSE</anamorphic>
											<file id="file-354">
												<name>1_3.png</name>
												<pathurl>file://localhost/_MUZ_TV/project_AP/RU/_TITLE/END/PNG/1_3.png</pathurl>
												<rate>
													<timebase>30</timebase>
													<ntsc>TRUE</ntsc>
												</rate>
												<timecode>
													<rate>
														<timebase>30</timebase>
														<ntsc>TRUE</ntsc>
													</rate>
													<string>00;00;00;00</string>
													<frame>0</frame>
													<displayformat>DF</displayformat>
												</timecode>
												<media>
													<video>
														<samplecharacteristics>
															<rate>
																<timebase>30</timebase>
																<ntsc>TRUE</ntsc>
															</rate>
															<width>1920</width>
															<height>1080</height>
															<anamorphic>FALSE</anamorphic>
															<pixelaspectratio>square</pixelaspectratio>
															<fielddominance>none</fielddominance>
														</samplecharacteristics>
													</video>
												</media>
											</file>
											<filter>
												<effect>
													<name>Basic Motion</name>
													<effectid>basic</effectid>
													<effectcategory>motion</effectcategory>
													<effecttype>motion</effecttype>
													<mediatype>video</mediatype>
													<pproBypass>false</pproBypass>
													<parameter authoringApp="PremierePro">
														<parameterid>scale</parameterid>
														<name>Scale</name>
														<valuemin>0</valuemin>
														<valuemax>1000</valuemax>
														<value>53.3333</value>
													</parameter>
													<parameter authoringApp="PremierePro">
														<parameterid>rotation</parameterid>
														<name>Rotation</name>
														<valuemin>-8640</valuemin>
														<valuemax>8640</valuemax>
														<value>0</value>
													</parameter>
													<parameter authoringApp="PremierePro">
														<parameterid>center</parameterid>
														<name>Center</name>
														<value>
															<horiz>0</horiz>
															<vert>0</vert>
														</value>
													</parameter>
													<parameter authoringApp="PremierePro">
														<parameterid>centerOffset</parameterid>
														<name>Anchor Point</name>
														<value>
															<horiz>0</horiz>
															<vert>0</vert>
														</value>
													</parameter>
													<parameter authoringApp="PremierePro">
														<parameterid>antiflicker</parameterid>
														<name>Anti-flicker Filter</name>
														<valuemin>0.0</valuemin>
														<valuemax>1.0</valuemax>
														<value>0</value>
													</parameter>
												</effect>
											</filter>
											<logginginfo>
												<description></description>
												<scene></scene>
												<shottake></shottake>
												<lognote></lognote>
												<good></good>
												<originalvideofilename></originalvideofilename>
												<originalaudiofilename></originalaudiofilename>
											</logginginfo>
											<colorinfo>
												<lut></lut>
												<lut1></lut1>
												<asc_sop></asc_sop>
												<asc_sat></asc_sat>
												<lut2></lut2>
											</colorinfo>
											<labels>
												<label2>Lavender</label2>
											</labels>
										</clipitem>
										<transitionitem>
											<start>1095</start>
											<end>1120</end>
											<alignment>end-black</alignment>
											<cutPointTicks>254016000000</cutPointTicks>
											<rate>
												<timebase>25</timebase>
												<ntsc>FALSE</ntsc>
											</rate>
											<effect>
												<name>Edge Wipe</name>
												<effectid>Edge Wipe</effectid>
												<effectcategory>Wipe</effectcategory>
												<effecttype>transition</effecttype>
												<mediatype>video</mediatype>
												<wipecode>2</wipecode>
												<wipeaccuracy>100</wipeaccuracy>
												<startratio>0</startratio>
												<endratio>1</endratio>
												<reverse>FALSE</reverse>
												<parameter authoringApp="PremierePro">
													<parameterid>directionofwipe</parameterid>
													<name>Angle</name>
													<valuemin>-360</valuemin>
													<valuemax>360</valuemax>
													<value>90</value>
												</parameter>
											</effect>
										</transitionitem>
										<enabled>TRUE</enabled>
										<locked>FALSE</locked>
									</track>
									<track TL.SQTrackShy="0" TL.SQTrackExpandedHeight="25" TL.SQTrackExpanded="0" MZ.TrackTargeted="0">
										<transitionitem>
											<start>755</start>
											<end>780</end>
											<alignment>start-black</alignment>
											<cutPointTicks>0</cutPointTicks>
											<rate>
												<timebase>25</timebase>
												<ntsc>FALSE</ntsc>
											</rate>
											<effect>
												<name>Edge Wipe</name>
												<effectid>Edge Wipe</effectid>
												<effectcategory>Wipe</effectcategory>
												<effecttype>transition</effecttype>
												<mediatype>video</mediatype>
												<wipecode>2</wipecode>
												<wipeaccuracy>100</wipeaccuracy>
												<startratio>0</startratio>
												<endratio>1</endratio>
												<reverse>FALSE</reverse>
												<parameter authoringApp="PremierePro">
													<parameterid>directionofwipe</parameterid>
													<name>Angle</name>
													<valuemin>-360</valuemin>
													<valuemax>360</valuemax>
													<value>270</value>
												</parameter>
											</effect>
										</transitionitem>
										<clipitem id="clipitem-850">
											<masterclipid>masterclip-415</masterclipid>
											<name>Graphic</name>
											<enabled>FALSE</enabled>
											<duration>1080000</duration>
											<rate>
												<timebase>25</timebase>
												<ntsc>FALSE</ntsc>
											</rate>
											<start>-1</start>
											<end>-1</end>
											<in>89905</in>
											<out>90272</out>
											<pproTicksIn>913492339200000</pproTicksIn>
											<pproTicksOut>917221294080000</pproTicksOut>
											<alphatype>straight</alphatype>
											<pixelaspectratio>PAL-601</pixelaspectratio>
											<anamorphic>TRUE</anamorphic>
											<file id="file-355">
												<name>Graphic</name>
												<mediaSource>GraphicAndType</mediaSource>
												<rate>
													<timebase>30</timebase>
													<ntsc>TRUE</ntsc>
												</rate>
												<timecode>
													<rate>
														<timebase>30</timebase>
														<ntsc>TRUE</ntsc>
													</rate>
													<string>00;00;00;00</string>
													<frame>0</frame>
													<displayformat>DF</displayformat>
												</timecode>
												<media>
													<video>
														<samplecharacteristics>
															<rate>
																<timebase>30</timebase>
																<ntsc>TRUE</ntsc>
															</rate>
															<width>720</width>
															<height>576</height>
															<anamorphic>TRUE</anamorphic>
															<pixelaspectratio>PAL-601</pixelaspectratio>
															<fielddominance>none</fielddominance>
														</samplecharacteristics>
													</video>
												</media>
											</file>
											<filter>
												<effect>
													<name>Vector Motion</name>
													<effectid>GraphicGroup</effectid>
													<effectcategory>graphic</effectcategory>
													<effecttype>filter</effecttype>
													<mediatype>video</mediatype>
													<pproBypass>false</pproBypass>
													<parameter authoringApp="PremierePro">
														<parameterid>1</parameterid>
														<name>Position</name>
														<IsTimeVarying>false</IsTimeVarying>
														<value>-91445760000000000,0.81693898908787344:0.49085601568222115,0,0,0,0,0,0,5,4,0,0,0,0</value>
													</parameter>
													<parameter authoringApp="PremierePro">
														<parameterid>2</parameterid>
														<name>Scale</name>
														<IsTimeVarying>false</IsTimeVarying>
														<ParameterControlType>2</ParameterControlType>
														<LowerBound>0</LowerBound>
														<UpperBound>10000</UpperBound>
														<UpperUIBound>200</UpperUIBound>
														<value>-91445760000000000,100.,0,0,0,0,0,0</value>
													</parameter>
													<parameter authoringApp="PremierePro">
														<parameterid>3</parameterid>
														<name>Scale Width</name>
														<IsTimeVarying>false</IsTimeVarying>
														<ParameterControlType>2</ParameterControlType>
														<LowerBound>0</LowerBound>
														<UpperBound>10000</UpperBound>
														<UpperUIBound>200</UpperUIBound>
														<value>-91445760000000000,100.,0,0,0,0,0,0</value>
													</parameter>
													<parameter authoringApp="PremierePro">
														<parameterid>4</parameterid>
														<name> </name>
														<IsTimeVarying>false</IsTimeVarying>
														<ParameterControlType>4</ParameterControlType>
														<LowerBound>false</LowerBound>
														<UpperBound>true</UpperBound>
														<value>-91445760000000000,true,0,0,0,0,0,0</value>
													</parameter>
													<parameter authoringApp="PremierePro">
														<parameterid>5</parameterid>
														<name>Rotation</name>
														<IsTimeVarying>false</IsTimeVarying>
														<ParameterControlType>3</ParameterControlType>
														<LowerBound>-32768</LowerBound>
														<UpperBound>32767</UpperBound>
														<value>-91445760000000000,0.,0,0,0,0,0,0</value>
													</parameter>
													<parameter authoringApp="PremierePro">
														<parameterid>6</parameterid>
														<name>Anchor Point</name>
														<IsTimeVarying>false</IsTimeVarying>
														<value>-91445760000000000,0.5:0.5,0,0,0,0,0,0,5,4,0,0,0,0</value>
													</parameter>
												</effect>
											</filter>
											<filter>
												<effect>
													<name>Данил Прытков признаётся, &#13;что сильные провалы &#13;мотивируют его на творчество &#13;не меньше, чем победы. </name>
													<effectid>GraphicAndType</effectid>
													<effectcategory>graphic</effectcategory>
													<effecttype>filter</effecttype>
													<mediatype>video</mediatype>
													<pproBypass>false</pproBypass>
													<pproExpanded>true</pproExpanded>
													<parameter authoringApp="PremierePro">
														<parameterid>1</parameterid>
														<name>Source Text</name>
														<hash>698123b5-7d57-7b79-efb1-b0df00000a31</hash>
													</parameter>
													<parameter authoringApp="PremierePro">
														<parameterid>2</parameterid>
														<name>Transform</name>
														<IsTimeVarying>false</IsTimeVarying>
														<ParameterControlType>11</ParameterControlType>
														<LowerBound>false</LowerBound>
														<UpperBound>false</UpperBound>
														<value>-91445760000000000,false,0,0,0,0,0,0</value>
													</parameter>
													<parameter authoringApp="PremierePro">
														<parameterid>3</parameterid>
														<name>Position</name>
														<IsTimeVarying>false</IsTimeVarying>
														<value>-91445760000000000,0.270416259765625:0.640594482421875,0,0,0,0,0,0,5,4,0,0,0,0</value>
													</parameter>
													<parameter authoringApp="PremierePro">
														<parameterid>4</parameterid>
														<name>Scale</name>
														<IsTimeVarying>false</IsTimeVarying>
														<ParameterControlType>2</ParameterControlType>
														<LowerBound>0</LowerBound>
														<UpperBound>4000</UpperBound>
														<value>-91445760000000000,100.,0,0,0,0,0,0</value>
													</parameter>
													<parameter authoringApp="PremierePro">
														<parameterid>5</parameterid>
														<name>Horizontal Scale</name>
														<IsTimeVarying>false</IsTimeVarying>
														<ParameterControlType>2</ParameterControlType>
														<LowerBound>0</LowerBound>
														<UpperBound>4000</UpperBound>
														<value>-91445760000000000,100.,0,0,0,0,0,0</value>
													</parameter>
													<parameter authoringApp="PremierePro">
														<parameterid>6</parameterid>
														<name> </name>
														<IsTimeVarying>false</IsTimeVarying>
														<ParameterControlType>4</ParameterControlType>
														<LowerBound>false</LowerBound>
														<UpperBound>true</UpperBound>
														<value>-91445760000000000,true,0,0,0,0,0,0</value>
													</parameter>
													<parameter authoringApp="PremierePro">
														<parameterid>7</parameterid>
														<name>Rotation</name>
														<IsTimeVarying>false</IsTimeVarying>
														<ParameterControlType>3</ParameterControlType>
														<LowerBound>-32768</LowerBound>
														<UpperBound>32767</UpperBound>
														<value>-91445760000000000,0.,0,0,0,0,0,0</value>
													</parameter>
													<parameter authoringApp="PremierePro">
														<parameterid>8</parameterid>
														<name>Opacity</name>
														<IsTimeVarying>false</IsTimeVarying>
														<ParameterControlType>2</ParameterControlType>
														<LowerBound>0</LowerBound>
														<UpperBound>100</UpperBound>
														<value>-91445760000000000,100.,0,0,0,0,0,0</value>
													</parameter>
													<parameter authoringApp="PremierePro">
														<parameterid>9</parameterid>
														<name>Anchor Point</name>
														<IsTimeVarying>false</IsTimeVarying>
														<value>-91445760000000000,0:0,0,0,0,0,0,0,5,4,0,0,0,0</value>
													</parameter>
													<parameter authoringApp="PremierePro">
														<parameterid>10</parameterid>
														<name></name>
														<IsTimeVarying>false</IsTimeVarying>
														<ParameterControlType>12</ParameterControlType>
														<LowerBound>false</LowerBound>
														<UpperBound>false</UpperBound>
														<value>-91445760000000000,false,0,0,0,0,0,0</value>
													</parameter>
													<parameter authoringApp="PremierePro">
														<parameterid>11</parameterid>
														<name> </name>
														<IsTimeVarying>false</IsTimeVarying>
														<ParameterControlType>8</ParameterControlType>
														<LowerBound>0</LowerBound>
														<UpperBound>32768</UpperBound>
														<value>-91445760000000000,0.,0,0,0,0,0,0</value>
													</parameter>
													<parameter authoringApp="PremierePro">
														<parameterid>12</parameterid>
														<name> </name>
														<IsTimeVarying>false</IsTimeVarying>
														<ParameterControlType>8</ParameterControlType>
														<LowerBound>0</LowerBound>
														<UpperBound>32768</UpperBound>
														<value>-91445760000000000,0.,0,0,0,0,0,0</value>
													</parameter>
													<parameter authoringApp="PremierePro">
														<parameterid>13</parameterid>
														<name>start</name>
														<IsTimeVarying>false</IsTimeVarying>
														<ParameterControlType>8</ParameterControlType>
														<LowerBound>-100</LowerBound>
														<UpperBound>1000000000</UpperBound>
														<value>-91445760000000000,0.,0,0,0,0,0,0</value>
													</parameter>
													<parameter authoringApp="PremierePro">
														<parameterid>14</parameterid>
														<name>end</name>
														<IsTimeVarying>false</IsTimeVarying>
														<ParameterControlType>8</ParameterControlType>
														<LowerBound>-100</LowerBound>
														<UpperBound>1000000000</UpperBound>
														<value>-91445760000000000,101.,0,0,0,0,0,0</value>
													</parameter>
													<parameter authoringApp="PremierePro">
														<parameterid>15</parameterid>
														<name> </name>
														<IsTimeVarying>false</IsTimeVarying>
														<ParameterControlType>4</ParameterControlType>
														<LowerBound>false</LowerBound>
														<UpperBound>true</UpperBound>
														<value>-91445760000000000,false,0,0,0,0,0,0</value>
													</parameter>
													<parameter authoringApp="PremierePro">
														<parameterid>16</parameterid>
														<name> </name>
														<IsTimeVarying>false</IsTimeVarying>
														<ParameterControlType>4</ParameterControlType>
														<LowerBound>false</LowerBound>
														<UpperBound>true</UpperBound>
														<value>-91445760000000000,false,0,0,0,0,0,0</value>
													</parameter>
													<parameter authoringApp="PremierePro">
														<parameterid>17</parameterid>
														<name> </name>
														<IsTimeVarying>false</IsTimeVarying>
														<ParameterControlType>4</ParameterControlType>
														<LowerBound>false</LowerBound>
														<UpperBound>true</UpperBound>
														<value>-91445760000000000,false,0,0,0,0,0,0</value>
													</parameter>
													<parameter authoringApp="PremierePro">
														<parameterid>18</parameterid>
														<name> </name>
														<IsTimeVarying>false</IsTimeVarying>
														<ParameterControlType>4</ParameterControlType>
														<LowerBound>false</LowerBound>
														<UpperBound>true</UpperBound>
														<value>-91445760000000000,false,0,0,0,0,0,0</value>
													</parameter>
													<parameter authoringApp="PremierePro">
														<parameterid>19</parameterid>
														<name>Parent Width</name>
														<IsTimeVarying>false</IsTimeVarying>
														<ParameterControlType>2</ParameterControlType>
														<LowerBound>0</LowerBound>
														<UpperBound>20000</UpperBound>
														<value>-91445760000000000,0.,0,0,0,0,0,0</value>
													</parameter>
													<parameter authoringApp="PremierePro">
														<parameterid>20</parameterid>
														<name>Parent Height</name>
														<IsTimeVarying>false</IsTimeVarying>
														<ParameterControlType>2</ParameterControlType>
														<LowerBound>0</LowerBound>
														<UpperBound>20000</UpperBound>
														<value>-91445760000000000,0.,0,0,0,0,0,0</value>
													</parameter>
													<parameter authoringApp="PremierePro">
														<parameterid>21</parameterid>
														<name>Parent Rotation</name>
														<IsTimeVarying>false</IsTimeVarying>
														<ParameterControlType>3</ParameterControlType>
														<LowerBound>-32768</LowerBound>
														<UpperBound>32767</UpperBound>
														<value>-91445760000000000,0.,0,0,0,0,0,0</value>
													</parameter>
												</effect>
											</filter>
											<logginginfo>
												<description></description>
												<scene></scene>
												<shottake></shottake>
												<lognote></lognote>
												<good></good>
												<originalvideofilename></originalvideofilename>
												<originalaudiofilename></originalaudiofilename>
											</logginginfo>
											<colorinfo>
												<lut></lut>
												<lut1></lut1>
												<asc_sop></asc_sop>
												<asc_sat></asc_sat>
												<lut2></lut2>
											</colorinfo>
										</clipitem>
										<transitionitem>
											<start>1097</start>
											<end>1122</end>
											<alignment>end-black</alignment>
											<cutPointTicks>254016000000</cutPointTicks>
											<rate>
												<timebase>25</timebase>
												<ntsc>FALSE</ntsc>
											</rate>
											<effect>
												<name>Edge Wipe</name>
												<effectid>Edge Wipe</effectid>
												<effectcategory>Wipe</effectcategory>
												<effecttype>transition</effecttype>
												<mediatype>video</mediatype>
												<wipecode>2</wipecode>
												<wipeaccuracy>100</wipeaccuracy>
												<startratio>0</startratio>
												<endratio>1</endratio>
												<reverse>FALSE</reverse>
												<parameter authoringApp="PremierePro">
													<parameterid>directionofwipe</parameterid>
													<name>Angle</name>
													<valuemin>-360</valuemin>
													<valuemax>360</valuemax>
													<value>90</value>
												</parameter>
											</effect>
										</transitionitem>
										<enabled>TRUE</enabled>
										<locked>FALSE</locked>
									</track>
								</video>
								<audio>
									<numOutputChannels>2</numOutputChannels>
									<format>
										<samplecharacteristics>
											<depth>16</depth>
											<samplerate>48000</samplerate>
										</samplecharacteristics>
									</format>
									<outputs>
										<group>
											<index>1</index>
											<numchannels>1</numchannels>
											<downmix>0</downmix>
											<channel>
												<index>1</index>
											</channel>
										</group>
										<group>
											<index>2</index>
											<numchannels>1</numchannels>
											<downmix>0</downmix>
											<channel>
												<index>2</index>
											</channel>
										</group>
									</outputs>
									<track TL.SQTrackAudioKeyframeStyle="0" TL.SQTrackShy="0" TL.SQTrackExpandedHeight="25" TL.SQTrackExpanded="0" MZ.TrackTargeted="1" PannerCurrentValue="0.5" PannerStartKeyframe="-91445760000000000,0.5,0,0,0,0,0,0" PannerName="Balance" currentExplodedTrackIndex="0" totalExplodedTrackCount="2" premiereTrackType="Stereo">
										<enabled>TRUE</enabled>
										<locked>FALSE</locked>
										<outputchannelindex>1</outputchannelindex>
									</track>
									<track TL.SQTrackAudioKeyframeStyle="0" TL.SQTrackShy="0" TL.SQTrackExpandedHeight="25" TL.SQTrackExpanded="0" MZ.TrackTargeted="1" PannerCurrentValue="0.5" PannerStartKeyframe="-91445760000000000,0.5,0,0,0,0,0,0" PannerName="Balance" currentExplodedTrackIndex="1" totalExplodedTrackCount="2" premiereTrackType="Stereo">
										<enabled>TRUE</enabled>
										<locked>FALSE</locked>
										<outputchannelindex>2</outputchannelindex>
									</track>
								</audio>
							</media>
							<timecode>
								<rate>
									<timebase>25</timebase>
									<ntsc>FALSE</ntsc>
								</rate>
								<string>00:00:00:00</string>
								<frame>0</frame>
								<displayformat>NDF</displayformat>
							</timecode>
								<marker>
									<comment></comment>
									<name></name>
									<in>800</in>
									<out>-1</out>
									<pproColor>4292277273</pproColor>
								</marker>
								<marker>
									<comment></comment>
									<name></name>
									<in>425</in>
									<out>-1</out>
									<pproColor>4292277273</pproColor>
								</marker>
								<marker>
									<comment></comment>
									<name></name>
									<in>50</in>
									<out>-1</out>
									<pproColor>4292277273</pproColor>
								</marker>
							<logginginfo>
								<description></description>
								<scene></scene>
								<shottake></shottake>
								<lognote></lognote>
								<good></good>
								<originalvideofilename></originalvideofilename>
								<originalaudiofilename></originalaudiofilename>
							</logginginfo>
						</sequence>
							<marker>
								<comment></comment>
								<name></name>
								<in>800</in>
								<out>-1</out>
								<pproColor>4292277273</pproColor>
							</marker>
							<marker>
								<comment></comment>
								<name></name>
								<in>425</in>
								<out>-1</out>
								<pproColor>4292277273</pproColor>
							</marker>
							<marker>
								<comment></comment>
								<name></name>
								<in>50</in>
								<out>-1</out>
								<pproColor>4292277273</pproColor>
							</marker>
						<labels>
							<label2>Forest</label2>
						</labels>
					</clipitem>
					<clipitem id="clipitem-851">
						<masterclipid>masterclip-410</masterclipid>
						<name>1</name>
						<enabled>TRUE</enabled>
						<duration>1125</duration>
						<rate>
							<timebase>25</timebase>
							<ntsc>FALSE</ntsc>
						</rate>
						<start>63124</start>
						<end>63499</end>
						<in>375</in>
						<out>750</out>
						<pproTicksIn>3810240000000</pproTicksIn>
						<pproTicksOut>7620480000000</pproTicksOut>
						<sequence id="sequence-64"/>
							<marker>
								<comment></comment>
								<name></name>
								<in>800</in>
								<out>-1</out>
								<pproColor>4292277273</pproColor>
							</marker>
							<marker>
								<comment></comment>
								<name></name>
								<in>425</in>
								<out>-1</out>
								<pproColor>4292277273</pproColor>
							</marker>
							<marker>
								<comment></comment>
								<name></name>
								<in>50</in>
								<out>-1</out>
								<pproColor>4292277273</pproColor>
							</marker>
						<labels>
							<label2>Forest</label2>
						</labels>
					</clipitem>
					<clipitem id="clipitem-852">
						<masterclipid>masterclip-410</masterclipid>
						<name>1</name>
						<enabled>TRUE</enabled>
						<duration>1125</duration>
						<rate>
							<timebase>25</timebase>
							<ntsc>FALSE</ntsc>
						</rate>
						<start>63850</start>
						<end>64225</end>
						<in>750</in>
						<out>1125</out>
						<pproTicksIn>7620480000000</pproTicksIn>
						<pproTicksOut>11430720000000</pproTicksOut>
						<sequence id="sequence-64"/>
							<marker>
								<comment></comment>
								<name></name>
								<in>800</in>
								<out>-1</out>
								<pproColor>4292277273</pproColor>
							</marker>
							<marker>
								<comment></comment>
								<name></name>
								<in>425</in>
								<out>-1</out>
								<pproColor>4292277273</pproColor>
							</marker>
							<marker>
								<comment></comment>
								<name></name>
								<in>50</in>
								<out>-1</out>
								<pproColor>4292277273</pproColor>
							</marker>
						<labels>
							<label2>Forest</label2>
						</labels>
					</clipitem>
					<enabled>TRUE</enabled>
					<locked>FALSE</locked>
				</track>
				<track TL.SQTrackShy="0" TL.SQTrackExpandedHeight="25" TL.SQTrackExpanded="0" MZ.TrackTargeted="0">
					<enabled>TRUE</enabled>
					<locked>FALSE</locked>
				</track>
			</video>
			<audio>
				<numOutputChannels>2</numOutputChannels>
				<format>
					<samplecharacteristics>
						<depth>16</depth>
						<samplerate>48000</samplerate>
					</samplecharacteristics>
				</format>
				<outputs>
					<group>
						<index>1</index>
						<numchannels>1</numchannels>
						<downmix>0</downmix>
						<channel>
							<index>1</index>
						</channel>
					</group>
					<group>
						<index>2</index>
						<numchannels>1</numchannels>
						<downmix>0</downmix>
						<channel>
							<index>2</index>
						</channel>
					</group>
				</outputs>
				<track TL.SQTrackAudioKeyframeStyle="0" TL.SQTrackShy="0" TL.SQTrackExpandedHeight="105" TL.SQTrackExpanded="0" MZ.TrackTargeted="0" PannerCurrentValue="0.5" PannerIsInverted="true" PannerStartKeyframe="-91445760000000000,0.5,0,0,0,0,0,0" PannerName="Balance" currentExplodedTrackIndex="0" totalExplodedTrackCount="2" premiereTrackType="Stereo">
					<clipitem id="clipitem-853" premiereChannelType="stereo">
						<masterclipid>masterclip-243</masterclipid>
						<name>MYZ_RusskiyChart_appProRes_v2.mov</name>
						<enabled>TRUE</enabled>
						<duration>299</duration>
						<rate>
							<timebase>25</timebase>
							<ntsc>FALSE</ntsc>
						</rate>
						<start>0</start>
						<end>274</end>
						<in>0</in>
						<out>274</out>
						<pproTicksIn>0</pproTicksIn>
						<pproTicksOut>2784015360000</pproTicksOut>
						<file id="file-212"/>
						<sourcetrack>
							<mediatype>audio</mediatype>
							<trackindex>1</trackindex>
						</sourcetrack>
						<filter>
							<effect>
								<name>Audio Levels</name>
								<effectid>audiolevels</effectid>
								<effectcategory>audiolevels</effectcategory>
								<effecttype>audiolevels</effecttype>
								<mediatype>audio</mediatype>
								<pproBypass>false</pproBypass>
								<parameter authoringApp="PremierePro">
									<parameterid>level</parameterid>
									<name>Level</name>
									<valuemin>0</valuemin>
									<valuemax>3.98109</valuemax>
									<value>0.158489</value>
									<keyframe>
										<when>262</when>
										<value>0.158489</value>
									</keyframe>
									<keyframe>
										<when>272</when>
										<value>0</value>
									</keyframe>
								</parameter>
							</effect>
						</filter>
						<link>
							<linkclipref>clipitem-584</linkclipref>
							<mediatype>video</mediatype>
							<trackindex>1</trackindex>
							<clipindex>1</clipindex>
						</link>
						<link>
							<linkclipref>clipitem-853</linkclipref>
							<mediatype>audio</mediatype>
							<trackindex>1</trackindex>
							<clipindex>1</clipindex>
							<groupindex>1</groupindex>
						</link>
						<link>
							<linkclipref>clipitem-888</linkclipref>
							<mediatype>audio</mediatype>
							<trackindex>2</trackindex>
							<clipindex>1</clipindex>
							<groupindex>1</groupindex>
						</link>
						<logginginfo>
							<description></description>
							<scene></scene>
							<shottake></shottake>
							<lognote></lognote>
							<good></good>
							<originalvideofilename></originalvideofilename>
							<originalaudiofilename></originalaudiofilename>
						</logginginfo>
						<colorinfo>
							<lut></lut>
							<lut1></lut1>
							<asc_sop></asc_sop>
							<asc_sat></asc_sat>
							<lut2></lut2>
						</colorinfo>
						<labels>
							<label2>Iris</label2>
						</labels>
					</clipitem>
					<clipitem id="clipitem-854" premiereChannelType="stereo">
						<masterclipid>masterclip-244</masterclipid>
						<name>Nested Sequence_470</name>
						<enabled>TRUE</enabled>
						<duration>13650</duration>
						<rate>
							<timebase>25</timebase>
							<ntsc>FALSE</ntsc>
						</rate>
						<start>274</start>
						<end>1402</end>
						<in>8</in>
						<out>1136</out>
						<pproTicksIn>81285120000</pproTicksIn>
						<pproTicksOut>11542487040000</pproTicksOut>
						<sequence id="sequence-36"/>
						<sourcetrack>
							<mediatype>audio</mediatype>
							<trackindex>0</trackindex>
						</sourcetrack>
						<filter>
							<effect>
								<name>Audio Levels</name>
								<effectid>audiolevels</effectid>
								<effectcategory>audiolevels</effectcategory>
								<effecttype>audiolevels</effecttype>
								<mediatype>audio</mediatype>
								<pproBypass>false</pproBypass>
								<parameter authoringApp="PremierePro">
									<parameterid>level</parameterid>
									<name>Level</name>
									<valuemin>0</valuemin>
									<valuemax>3.98109</valuemax>
									<value>0</value>
									<keyframe>
										<when>12</when>
										<value>0</value>
									</keyframe>
									<keyframe>
										<when>13</when>
										<value>1</value>
									</keyframe>
								</parameter>
							</effect>
						</filter>
						<link>
							<linkclipref>clipitem-585</linkclipref>
							<mediatype>video</mediatype>
							<trackindex>1</trackindex>
							<clipindex>2</clipindex>
						</link>
						<link>
							<linkclipref>clipitem-854</linkclipref>
							<mediatype>audio</mediatype>
							<trackindex>1</trackindex>
							<clipindex>2</clipindex>
							<groupindex>1</groupindex>
						</link>
						<link>
							<linkclipref>clipitem-889</linkclipref>
							<mediatype>audio</mediatype>
							<trackindex>2</trackindex>
							<clipindex>2</clipindex>
							<groupindex>1</groupindex>
						</link>
						<labels>
							<label2>Forest</label2>
						</labels>
					</clipitem>
					<clipitem id="clipitem-855" premiereChannelType="stereo">
						<masterclipid>masterclip-247</masterclipid>
						<name>ЛЮСЯ ЧЕБОТИНА_СОЛНЦЕ МОНАКО___MSWCLP004812.mov</name>
						<enabled>TRUE</enabled>
						<duration>7794</duration>
						<rate>
							<timebase>25</timebase>
							<ntsc>FALSE</ntsc>
						</rate>
						<start>1477</start>
						<end>5171</end>
						<in>170</in>
						<out>3864</out>
						<pproTicksIn>1727308800000</pproTicksIn>
						<pproTicksOut>39260712960000</pproTicksOut>
						<file id="file-215"/>
						<sourcetrack>
							<mediatype>audio</mediatype>
							<trackindex>1</trackindex>
						</sourcetrack>
						<filter>
							<effect>
								<name>Audio Levels</name>
								<effectid>audiolevels</effectid>
								<effectcategory>audiolevels</effectcategory>
								<effecttype>audiolevels</effecttype>
								<mediatype>audio</mediatype>
								<pproBypass>false</pproBypass>
								<parameter authoringApp="PremierePro">
									<parameterid>level</parameterid>
									<name>Level</name>
									<valuemin>0</valuemin>
									<valuemax>3.98109</valuemax>
									<value>0</value>
									<keyframe>
										<when>171</when>
										<value>0</value>
									</keyframe>
									<keyframe>
										<when>175</when>
										<value>1</value>
									</keyframe>
									<keyframe>
										<when>3826</when>
										<value>1</value>
									</keyframe>
									<keyframe>
										<when>3864</when>
										<value>0.000960128</value>
									</keyframe>
								</parameter>
							</effect>
						</filter>
						<link>
							<linkclipref>clipitem-590</linkclipref>
							<mediatype>video</mediatype>
							<trackindex>1</trackindex>
							<clipindex>4</clipindex>
						</link>
						<link>
							<linkclipref>clipitem-855</linkclipref>
							<mediatype>audio</mediatype>
							<trackindex>1</trackindex>
							<clipindex>3</clipindex>
							<groupindex>1</groupindex>
						</link>
						<link>
							<linkclipref>clipitem-890</linkclipref>
							<mediatype>audio</mediatype>
							<trackindex>2</trackindex>
							<clipindex>3</clipindex>
							<groupindex>1</groupindex>
						</link>
						<logginginfo>
							<description></description>
							<scene></scene>
							<shottake></shottake>
							<lognote></lognote>
							<good></good>
							<originalvideofilename></originalvideofilename>
							<originalaudiofilename></originalaudiofilename>
						</logginginfo>
						<colorinfo>
							<lut></lut>
							<lut1></lut1>
							<asc_sop></asc_sop>
							<asc_sat></asc_sat>
							<lut2></lut2>
						</colorinfo>
						<labels>
							<label2>Iris</label2>
						</labels>
					</clipitem>
					<clipitem id="clipitem-856" premiereChannelType="stereo">
						<masterclipid>masterclip-249</masterclipid>
						<name>ВАНЯ ДМИТРИЕНКО_ВЕНЕРА-ЮПИТЕР___MSWCLP004350.mov</name>
						<enabled>TRUE</enabled>
						<duration>3281</duration>
						<rate>
							<timebase>25</timebase>
							<ntsc>FALSE</ntsc>
						</rate>
						<start>5246</start>
						<end>8365</end>
						<in>148</in>
						<out>3267</out>
						<pproTicksIn>1503774720000</pproTicksIn>
						<pproTicksOut>33194810880000</pproTicksOut>
						<file id="file-217"/>
						<sourcetrack>
							<mediatype>audio</mediatype>
							<trackindex>1</trackindex>
						</sourcetrack>
						<filter>
							<effect>
								<name>Audio Levels</name>
								<effectid>audiolevels</effectid>
								<effectcategory>audiolevels</effectcategory>
								<effecttype>audiolevels</effecttype>
								<mediatype>audio</mediatype>
								<pproBypass>false</pproBypass>
								<parameter authoringApp="PremierePro">
									<parameterid>level</parameterid>
									<name>Level</name>
									<valuemin>0</valuemin>
									<valuemax>3.98109</valuemax>
									<value>0</value>
									<keyframe>
										<when>157</when>
										<value>0</value>
									</keyframe>
									<keyframe>
										<when>167</when>
										<value>1</value>
									</keyframe>
									<keyframe>
										<when>3262</when>
										<value>1</value>
									</keyframe>
									<keyframe>
										<when>3266</when>
										<value>0.276174</value>
									</keyframe>
								</parameter>
							</effect>
						</filter>
						<link>
							<linkclipref>clipitem-592</linkclipref>
							<mediatype>video</mediatype>
							<trackindex>1</trackindex>
							<clipindex>6</clipindex>
						</link>
						<link>
							<linkclipref>clipitem-856</linkclipref>
							<mediatype>audio</mediatype>
							<trackindex>1</trackindex>
							<clipindex>4</clipindex>
							<groupindex>1</groupindex>
						</link>
						<link>
							<linkclipref>clipitem-891</linkclipref>
							<mediatype>audio</mediatype>
							<trackindex>2</trackindex>
							<clipindex>4</clipindex>
							<groupindex>1</groupindex>
						</link>
						<logginginfo>
							<description></description>
							<scene></scene>
							<shottake></shottake>
							<lognote></lognote>
							<good></good>
							<originalvideofilename></originalvideofilename>
							<originalaudiofilename></originalaudiofilename>
						</logginginfo>
						<colorinfo>
							<lut></lut>
							<lut1></lut1>
							<asc_sop></asc_sop>
							<asc_sat></asc_sat>
							<lut2></lut2>
						</colorinfo>
						<labels>
							<label2>Iris</label2>
						</labels>
					</clipitem>
					<clipitem id="clipitem-857" premiereChannelType="stereo">
						<masterclipid>masterclip-250</masterclipid>
						<name>MYZ_RusskiyChart_OtbivkaMini_h264_v2.mp4</name>
						<enabled>TRUE</enabled>
						<duration>74</duration>
						<rate>
							<timebase>25</timebase>
							<ntsc>FALSE</ntsc>
						</rate>
						<start>8365</start>
						<end>8425</end>
						<in>0</in>
						<out>60</out>
						<pproTicksIn>0</pproTicksIn>
						<pproTicksOut>609638400000</pproTicksOut>
						<file id="file-218"/>
						<sourcetrack>
							<mediatype>audio</mediatype>
							<trackindex>1</trackindex>
						</sourcetrack>
						<filter>
							<effect>
								<name>Audio Levels</name>
								<effectid>audiolevels</effectid>
								<effectcategory>audiolevels</effectcategory>
								<effecttype>audiolevels</effecttype>
								<mediatype>audio</mediatype>
								<pproBypass>false</pproBypass>
								<parameter authoringApp="PremierePro">
									<parameterid>level</parameterid>
									<name>Level</name>
									<valuemin>0</valuemin>
									<valuemax>3.98109</valuemax>
									<value>0.251189</value>
									<keyframe>
										<when>60</when>
										<value>0.251189</value>
									</keyframe>
									<keyframe>
										<when>70</when>
										<value>0.258297</value>
									</keyframe>
								</parameter>
							</effect>
						</filter>
						<link>
							<linkclipref>clipitem-594</linkclipref>
							<mediatype>video</mediatype>
							<trackindex>1</trackindex>
							<clipindex>8</clipindex>
						</link>
						<link>
							<linkclipref>clipitem-857</linkclipref>
							<mediatype>audio</mediatype>
							<trackindex>1</trackindex>
							<clipindex>5</clipindex>
							<groupindex>1</groupindex>
						</link>
						<link>
							<linkclipref>clipitem-892</linkclipref>
							<mediatype>audio</mediatype>
							<trackindex>2</trackindex>
							<clipindex>5</clipindex>
							<groupindex>1</groupindex>
						</link>
						<logginginfo>
							<description></description>
							<scene></scene>
							<shottake></shottake>
							<lognote></lognote>
							<good></good>
							<originalvideofilename></originalvideofilename>
							<originalaudiofilename></originalaudiofilename>
						</logginginfo>
						<colorinfo>
							<lut></lut>
							<lut1></lut1>
							<asc_sop></asc_sop>
							<asc_sat></asc_sat>
							<lut2></lut2>
						</colorinfo>
						<labels>
							<label2>Purple</label2>
						</labels>
					</clipitem>
					<clipitem id="clipitem-858" premiereChannelType="stereo">
						<masterclipid>masterclip-244</masterclipid>
						<name>Nested Sequence_470</name>
						<enabled>TRUE</enabled>
						<duration>13650</duration>
						<rate>
							<timebase>25</timebase>
							<ntsc>FALSE</ntsc>
						</rate>
						<start>8425</start>
						<end>9247</end>
						<in>1188</in>
						<out>2010</out>
						<pproTicksIn>12070840320000</pproTicksIn>
						<pproTicksOut>20422886400000</pproTicksOut>
						<sequence id="sequence-36"/>
						<sourcetrack>
							<mediatype>audio</mediatype>
							<trackindex>0</trackindex>
						</sourcetrack>
						<filter>
							<effect>
								<name>Audio Levels</name>
								<effectid>audiolevels</effectid>
								<effectcategory>audiolevels</effectcategory>
								<effecttype>audiolevels</effecttype>
								<mediatype>audio</mediatype>
								<pproBypass>false</pproBypass>
								<parameter authoringApp="PremierePro">
									<parameterid>level</parameterid>
									<name>Level</name>
									<valuemin>0</valuemin>
									<valuemax>3.98109</valuemax>
									<value>0</value>
									<keyframe>
										<when>12</when>
										<value>0</value>
									</keyframe>
									<keyframe>
										<when>13</when>
										<value>0</value>
									</keyframe>
									<keyframe>
										<when>1191</when>
										<value>0</value>
									</keyframe>
									<keyframe>
										<when>1194</when>
										<value>1</value>
									</keyframe>
								</parameter>
							</effect>
						</filter>
						<link>
							<linkclipref>clipitem-595</linkclipref>
							<mediatype>video</mediatype>
							<trackindex>1</trackindex>
							<clipindex>9</clipindex>
						</link>
						<link>
							<linkclipref>clipitem-858</linkclipref>
							<mediatype>audio</mediatype>
							<trackindex>1</trackindex>
							<clipindex>6</clipindex>
							<groupindex>1</groupindex>
						</link>
						<link>
							<linkclipref>clipitem-893</linkclipref>
							<mediatype>audio</mediatype>
							<trackindex>2</trackindex>
							<clipindex>6</clipindex>
							<groupindex>1</groupindex>
						</link>
						<labels>
							<label2>Forest</label2>
						</labels>
					</clipitem>
					<clipitem id="clipitem-859" premiereChannelType="stereo">
						<masterclipid>masterclip-252</masterclipid>
						<name>GUMA_СТЕКЛЯННАЯ___MSWCLP004707.mov</name>
						<enabled>TRUE</enabled>
						<duration>4102</duration>
						<rate>
							<timebase>25</timebase>
							<ntsc>FALSE</ntsc>
						</rate>
						<start>9322</start>
						<end>13261</end>
						<in>163</in>
						<out>4102</out>
						<pproTicksIn>1656184320000</pproTicksIn>
						<pproTicksOut>41678945280000</pproTicksOut>
						<file id="file-220"/>
						<sourcetrack>
							<mediatype>audio</mediatype>
							<trackindex>1</trackindex>
						</sourcetrack>
						<filter>
							<effect>
								<name>Audio Levels</name>
								<effectid>audiolevels</effectid>
								<effectcategory>audiolevels</effectcategory>
								<effecttype>audiolevels</effecttype>
								<mediatype>audio</mediatype>
								<pproBypass>false</pproBypass>
								<parameter authoringApp="PremierePro">
									<parameterid>level</parameterid>
									<name>Level</name>
									<valuemin>0</valuemin>
									<valuemax>3.98109</valuemax>
									<value>0.161989</value>
									<keyframe>
										<when>163</when>
										<value>0.161989</value>
									</keyframe>
									<keyframe>
										<when>183</when>
										<value>1</value>
									</keyframe>
								</parameter>
							</effect>
						</filter>
						<link>
							<linkclipref>clipitem-597</linkclipref>
							<mediatype>video</mediatype>
							<trackindex>1</trackindex>
							<clipindex>11</clipindex>
						</link>
						<link>
							<linkclipref>clipitem-859</linkclipref>
							<mediatype>audio</mediatype>
							<trackindex>1</trackindex>
							<clipindex>7</clipindex>
							<groupindex>1</groupindex>
						</link>
						<link>
							<linkclipref>clipitem-894</linkclipref>
							<mediatype>audio</mediatype>
							<trackindex>2</trackindex>
							<clipindex>7</clipindex>
							<groupindex>1</groupindex>
						</link>
						<logginginfo>
							<description></description>
							<scene></scene>
							<shottake></shottake>
							<lognote></lognote>
							<good></good>
							<originalvideofilename></originalvideofilename>
							<originalaudiofilename></originalaudiofilename>
						</logginginfo>
						<colorinfo>
							<lut></lut>
							<lut1></lut1>
							<asc_sop></asc_sop>
							<asc_sat></asc_sat>
							<lut2></lut2>
						</colorinfo>
						<labels>
							<label2>Iris</label2>
						</labels>
					</clipitem>
					<clipitem id="clipitem-860" premiereChannelType="stereo">
						<masterclipid>masterclip-250</masterclipid>
						<name>MYZ_RusskiyChart_OtbivkaMini_h264_v2.mp4</name>
						<enabled>TRUE</enabled>
						<duration>74</duration>
						<rate>
							<timebase>25</timebase>
							<ntsc>FALSE</ntsc>
						</rate>
						<start>13261</start>
						<end>13321</end>
						<in>0</in>
						<out>60</out>
						<pproTicksIn>0</pproTicksIn>
						<pproTicksOut>609638400000</pproTicksOut>
						<file id="file-218"/>
						<sourcetrack>
							<mediatype>audio</mediatype>
							<trackindex>1</trackindex>
						</sourcetrack>
						<filter>
							<effect>
								<name>Audio Levels</name>
								<effectid>audiolevels</effectid>
								<effectcategory>audiolevels</effectcategory>
								<effecttype>audiolevels</effecttype>
								<mediatype>audio</mediatype>
								<pproBypass>false</pproBypass>
								<parameter authoringApp="PremierePro">
									<parameterid>level</parameterid>
									<name>Level</name>
									<valuemin>0</valuemin>
									<valuemax>3.98109</valuemax>
									<value>0.251189</value>
									<keyframe>
										<when>60</when>
										<value>0.251189</value>
									</keyframe>
									<keyframe>
										<when>70</when>
										<value>0.258297</value>
									</keyframe>
								</parameter>
							</effect>
						</filter>
						<link>
							<linkclipref>clipitem-598</linkclipref>
							<mediatype>video</mediatype>
							<trackindex>1</trackindex>
							<clipindex>12</clipindex>
						</link>
						<link>
							<linkclipref>clipitem-860</linkclipref>
							<mediatype>audio</mediatype>
							<trackindex>1</trackindex>
							<clipindex>8</clipindex>
							<groupindex>1</groupindex>
						</link>
						<link>
							<linkclipref>clipitem-895</linkclipref>
							<mediatype>audio</mediatype>
							<trackindex>2</trackindex>
							<clipindex>8</clipindex>
							<groupindex>1</groupindex>
						</link>
						<logginginfo>
							<description></description>
							<scene></scene>
							<shottake></shottake>
							<lognote></lognote>
							<good></good>
							<originalvideofilename></originalvideofilename>
							<originalaudiofilename></originalaudiofilename>
						</logginginfo>
						<colorinfo>
							<lut></lut>
							<lut1></lut1>
							<asc_sop></asc_sop>
							<asc_sat></asc_sat>
							<lut2></lut2>
						</colorinfo>
						<labels>
							<label2>Purple</label2>
						</labels>
					</clipitem>
					<clipitem id="clipitem-861" premiereChannelType="stereo">
						<masterclipid>masterclip-244</masterclipid>
						<name>Nested Sequence_470</name>
						<enabled>TRUE</enabled>
						<duration>13650</duration>
						<rate>
							<timebase>25</timebase>
							<ntsc>FALSE</ntsc>
						</rate>
						<start>13321</start>
						<end>14193</end>
						<in>2029</in>
						<out>2901</out>
						<pproTicksIn>20615938560000</pproTicksIn>
						<pproTicksOut>29476016640000</pproTicksOut>
						<sequence id="sequence-36"/>
						<sourcetrack>
							<mediatype>audio</mediatype>
							<trackindex>0</trackindex>
						</sourcetrack>
						<filter>
							<effect>
								<name>Audio Levels</name>
								<effectid>audiolevels</effectid>
								<effectcategory>audiolevels</effectcategory>
								<effecttype>audiolevels</effecttype>
								<mediatype>audio</mediatype>
								<pproBypass>false</pproBypass>
								<parameter authoringApp="PremierePro">
									<parameterid>level</parameterid>
									<name>Level</name>
									<valuemin>0</valuemin>
									<valuemax>3.98109</valuemax>
									<value>0</value>
									<keyframe>
										<when>12</when>
										<value>0</value>
									</keyframe>
									<keyframe>
										<when>13</when>
										<value>0</value>
									</keyframe>
									<keyframe>
										<when>1191</when>
										<value>0</value>
									</keyframe>
									<keyframe>
										<when>1194</when>
										<value>0</value>
									</keyframe>
									<keyframe>
										<when>2032</when>
										<value>0</value>
									</keyframe>
									<keyframe>
										<when>2034</when>
										<value>1</value>
									</keyframe>
								</parameter>
							</effect>
						</filter>
						<link>
							<linkclipref>clipitem-599</linkclipref>
							<mediatype>video</mediatype>
							<trackindex>1</trackindex>
							<clipindex>13</clipindex>
						</link>
						<link>
							<linkclipref>clipitem-861</linkclipref>
							<mediatype>audio</mediatype>
							<trackindex>1</trackindex>
							<clipindex>9</clipindex>
							<groupindex>1</groupindex>
						</link>
						<link>
							<linkclipref>clipitem-896</linkclipref>
							<mediatype>audio</mediatype>
							<trackindex>2</trackindex>
							<clipindex>9</clipindex>
							<groupindex>1</groupindex>
						</link>
						<labels>
							<label2>Forest</label2>
						</labels>
					</clipitem>
					<clipitem id="clipitem-862" premiereChannelType="stereo">
						<masterclipid>masterclip-254</masterclipid>
						<name>FILATOV &amp; KARAS vs МУМИЙ ТРОЛЛЬ_AMORE МОРЕ, GOODBYE___MSWCLP004662.mov</name>
						<enabled>TRUE</enabled>
						<duration>3313</duration>
						<rate>
							<timebase>25</timebase>
							<ntsc>FALSE</ntsc>
						</rate>
						<start>14268</start>
						<end>17521</end>
						<in>0</in>
						<out>3253</out>
						<pproTicksIn>0</pproTicksIn>
						<pproTicksOut>33052561920000</pproTicksOut>
						<file id="file-222"/>
						<sourcetrack>
							<mediatype>audio</mediatype>
							<trackindex>1</trackindex>
						</sourcetrack>
						<filter>
							<effect>
								<name>Audio Levels</name>
								<effectid>audiolevels</effectid>
								<effectcategory>audiolevels</effectcategory>
								<effecttype>audiolevels</effecttype>
								<mediatype>audio</mediatype>
								<pproBypass>false</pproBypass>
								<parameter authoringApp="PremierePro">
									<parameterid>level</parameterid>
									<name>Level</name>
									<valuemin>0</valuemin>
									<valuemax>3.98109</valuemax>
									<value>1</value>
									<keyframe>
										<when>3234</when>
										<value>1</value>
									</keyframe>
									<keyframe>
										<when>3248</when>
										<value>0</value>
									</keyframe>
								</parameter>
							</effect>
						</filter>
						<link>
							<linkclipref>clipitem-601</linkclipref>
							<mediatype>video</mediatype>
							<trackindex>1</trackindex>
							<clipindex>15</clipindex>
						</link>
						<link>
							<linkclipref>clipitem-862</linkclipref>
							<mediatype>audio</mediatype>
							<trackindex>1</trackindex>
							<clipindex>10</clipindex>
							<groupindex>1</groupindex>
						</link>
						<link>
							<linkclipref>clipitem-897</linkclipref>
							<mediatype>audio</mediatype>
							<trackindex>2</trackindex>
							<clipindex>10</clipindex>
							<groupindex>1</groupindex>
						</link>
						<logginginfo>
							<description></description>
							<scene></scene>
							<shottake></shottake>
							<lognote></lognote>
							<good></good>
							<originalvideofilename></originalvideofilename>
							<originalaudiofilename></originalaudiofilename>
						</logginginfo>
						<colorinfo>
							<lut></lut>
							<lut1></lut1>
							<asc_sop></asc_sop>
							<asc_sat></asc_sat>
							<lut2></lut2>
						</colorinfo>
						<labels>
							<label2>Iris</label2>
						</labels>
					</clipitem>
					<clipitem id="clipitem-863" premiereChannelType="stereo">
						<masterclipid>masterclip-250</masterclipid>
						<name>MYZ_RusskiyChart_OtbivkaMini_h264_v2.mp4</name>
						<enabled>TRUE</enabled>
						<duration>74</duration>
						<rate>
							<timebase>25</timebase>
							<ntsc>FALSE</ntsc>
						</rate>
						<start>17521</start>
						<end>17581</end>
						<in>0</in>
						<out>60</out>
						<pproTicksIn>0</pproTicksIn>
						<pproTicksOut>609638400000</pproTicksOut>
						<file id="file-218"/>
						<sourcetrack>
							<mediatype>audio</mediatype>
							<trackindex>1</trackindex>
						</sourcetrack>
						<filter>
							<effect>
								<name>Audio Levels</name>
								<effectid>audiolevels</effectid>
								<effectcategory>audiolevels</effectcategory>
								<effecttype>audiolevels</effecttype>
								<mediatype>audio</mediatype>
								<pproBypass>false</pproBypass>
								<parameter authoringApp="PremierePro">
									<parameterid>level</parameterid>
									<name>Level</name>
									<valuemin>0</valuemin>
									<valuemax>3.98109</valuemax>
									<value>0.251189</value>
									<keyframe>
										<when>60</when>
										<value>0.251189</value>
									</keyframe>
									<keyframe>
										<when>70</when>
										<value>0.258297</value>
									</keyframe>
								</parameter>
							</effect>
						</filter>
						<link>
							<linkclipref>clipitem-602</linkclipref>
							<mediatype>video</mediatype>
							<trackindex>1</trackindex>
							<clipindex>16</clipindex>
						</link>
						<link>
							<linkclipref>clipitem-863</linkclipref>
							<mediatype>audio</mediatype>
							<trackindex>1</trackindex>
							<clipindex>11</clipindex>
							<groupindex>1</groupindex>
						</link>
						<link>
							<linkclipref>clipitem-898</linkclipref>
							<mediatype>audio</mediatype>
							<trackindex>2</trackindex>
							<clipindex>11</clipindex>
							<groupindex>1</groupindex>
						</link>
						<logginginfo>
							<description></description>
							<scene></scene>
							<shottake></shottake>
							<lognote></lognote>
							<good></good>
							<originalvideofilename></originalvideofilename>
							<originalaudiofilename></originalaudiofilename>
						</logginginfo>
						<colorinfo>
							<lut></lut>
							<lut1></lut1>
							<asc_sop></asc_sop>
							<asc_sat></asc_sat>
							<lut2></lut2>
						</colorinfo>
						<labels>
							<label2>Purple</label2>
						</labels>
					</clipitem>
					<clipitem id="clipitem-864" premiereChannelType="stereo">
						<masterclipid>masterclip-244</masterclipid>
						<name>Nested Sequence_470</name>
						<enabled>TRUE</enabled>
						<duration>13650</duration>
						<rate>
							<timebase>25</timebase>
							<ntsc>FALSE</ntsc>
						</rate>
						<start>17581</start>
						<end>18743</end>
						<in>2922</in>
						<out>4084</out>
						<pproTicksIn>29689390080000</pproTicksIn>
						<pproTicksOut>41496053760000</pproTicksOut>
						<sequence id="sequence-36"/>
						<sourcetrack>
							<mediatype>audio</mediatype>
							<trackindex>0</trackindex>
						</sourcetrack>
						<filter>
							<effect>
								<name>Audio Levels</name>
								<effectid>audiolevels</effectid>
								<effectcategory>audiolevels</effectcategory>
								<effecttype>audiolevels</effecttype>
								<mediatype>audio</mediatype>
								<pproBypass>false</pproBypass>
								<parameter authoringApp="PremierePro">
									<parameterid>level</parameterid>
									<name>Level</name>
									<valuemin>0</valuemin>
									<valuemax>3.98109</valuemax>
									<value>0</value>
									<keyframe>
										<when>12</when>
										<value>0</value>
									</keyframe>
									<keyframe>
										<when>13</when>
										<value>0</value>
									</keyframe>
									<keyframe>
										<when>1191</when>
										<value>0</value>
									</keyframe>
									<keyframe>
										<when>1194</when>
										<value>0</value>
									</keyframe>
									<keyframe>
										<when>2032</when>
										<value>0</value>
									</keyframe>
									<keyframe>
										<when>2034</when>
										<value>0</value>
									</keyframe>
									<keyframe>
										<when>2927</when>
										<value>0</value>
									</keyframe>
									<keyframe>
										<when>2929</when>
										<value>1</value>
									</keyframe>
								</parameter>
							</effect>
						</filter>
						<link>
							<linkclipref>clipitem-603</linkclipref>
							<mediatype>video</mediatype>
							<trackindex>1</trackindex>
							<clipindex>17</clipindex>
						</link>
						<link>
							<linkclipref>clipitem-864</linkclipref>
							<mediatype>audio</mediatype>
							<trackindex>1</trackindex>
							<clipindex>12</clipindex>
							<groupindex>1</groupindex>
						</link>
						<link>
							<linkclipref>clipitem-899</linkclipref>
							<mediatype>audio</mediatype>
							<trackindex>2</trackindex>
							<clipindex>12</clipindex>
							<groupindex>1</groupindex>
						</link>
						<labels>
							<label2>Forest</label2>
						</labels>
					</clipitem>
					<clipitem id="clipitem-865" premiereChannelType="stereo">
						<masterclipid>masterclip-256</masterclipid>
						<name>DABRO_НА ЧАСАХ НОЛЬ-НОЛЬ___MSWCLP004492.mov</name>
						<enabled>TRUE</enabled>
						<duration>5559</duration>
						<rate>
							<timebase>25</timebase>
							<ntsc>FALSE</ntsc>
						</rate>
						<start>18807</start>
						<end>23890</end>
						<in>476</in>
						<out>5559</out>
						<pproTicksIn>4836464640000</pproTicksIn>
						<pproTicksOut>56482997760000</pproTicksOut>
						<file id="file-224"/>
						<sourcetrack>
							<mediatype>audio</mediatype>
							<trackindex>1</trackindex>
						</sourcetrack>
						<filter>
							<effect>
								<name>Audio Levels</name>
								<effectid>audiolevels</effectid>
								<effectcategory>audiolevels</effectcategory>
								<effecttype>audiolevels</effecttype>
								<mediatype>audio</mediatype>
								<pproBypass>false</pproBypass>
								<parameter authoringApp="PremierePro">
									<parameterid>level</parameterid>
									<name>Level</name>
									<valuemin>0</valuemin>
									<valuemax>3.98109</valuemax>
									<value>1</value>
								</parameter>
							</effect>
						</filter>
						<link>
							<linkclipref>clipitem-605</linkclipref>
							<mediatype>video</mediatype>
							<trackindex>1</trackindex>
							<clipindex>19</clipindex>
						</link>
						<link>
							<linkclipref>clipitem-865</linkclipref>
							<mediatype>audio</mediatype>
							<trackindex>1</trackindex>
							<clipindex>13</clipindex>
							<groupindex>1</groupindex>
						</link>
						<link>
							<linkclipref>clipitem-900</linkclipref>
							<mediatype>audio</mediatype>
							<trackindex>2</trackindex>
							<clipindex>13</clipindex>
							<groupindex>1</groupindex>
						</link>
						<logginginfo>
							<description></description>
							<scene></scene>
							<shottake></shottake>
							<lognote></lognote>
							<good></good>
							<originalvideofilename></originalvideofilename>
							<originalaudiofilename></originalaudiofilename>
						</logginginfo>
						<colorinfo>
							<lut></lut>
							<lut1></lut1>
							<asc_sop></asc_sop>
							<asc_sat></asc_sat>
							<lut2></lut2>
						</colorinfo>
						<labels>
							<label2>Iris</label2>
						</labels>
					</clipitem>
					<clipitem id="clipitem-866" premiereChannelType="stereo">
						<masterclipid>masterclip-258</masterclipid>
						<name>БАСТА_ТЫ БЫЛА ПРАВА___MSWCLP004606.mov</name>
						<enabled>TRUE</enabled>
						<duration>2977</duration>
						<rate>
							<timebase>25</timebase>
							<ntsc>FALSE</ntsc>
						</rate>
						<start>23930</start>
						<end>26757</end>
						<in>134</in>
						<out>2961</out>
						<pproTicksIn>1361525760000</pproTicksIn>
						<pproTicksOut>30085655040000</pproTicksOut>
						<file id="file-226"/>
						<sourcetrack>
							<mediatype>audio</mediatype>
							<trackindex>1</trackindex>
						</sourcetrack>
						<filter>
							<effect>
								<name>Audio Levels</name>
								<effectid>audiolevels</effectid>
								<effectcategory>audiolevels</effectcategory>
								<effecttype>audiolevels</effecttype>
								<mediatype>audio</mediatype>
								<pproBypass>false</pproBypass>
								<parameter authoringApp="PremierePro">
									<parameterid>level</parameterid>
									<name>Level</name>
									<valuemin>0</valuemin>
									<valuemax>3.98109</valuemax>
									<value>0</value>
									<keyframe>
										<when>4</when>
										<value>0.161989</value>
									</keyframe>
									<keyframe>
										<when>35</when>
										<value>0</value>
									</keyframe>
									<keyframe>
										<when>165</when>
										<value>0</value>
									</keyframe>
									<keyframe>
										<when>169</when>
										<value>1</value>
									</keyframe>
									<keyframe>
										<when>2946</when>
										<value>1</value>
									</keyframe>
									<keyframe>
										<when>2955</when>
										<value>0</value>
									</keyframe>
								</parameter>
							</effect>
						</filter>
						<link>
							<linkclipref>clipitem-607</linkclipref>
							<mediatype>video</mediatype>
							<trackindex>1</trackindex>
							<clipindex>21</clipindex>
						</link>
						<link>
							<linkclipref>clipitem-866</linkclipref>
							<mediatype>audio</mediatype>
							<trackindex>1</trackindex>
							<clipindex>14</clipindex>
							<groupindex>1</groupindex>
						</link>
						<link>
							<linkclipref>clipitem-901</linkclipref>
							<mediatype>audio</mediatype>
							<trackindex>2</trackindex>
							<clipindex>14</clipindex>
							<groupindex>1</groupindex>
						</link>
						<logginginfo>
							<description></description>
							<scene></scene>
							<shottake></shottake>
							<lognote></lognote>
							<good></good>
							<originalvideofilename></originalvideofilename>
							<originalaudiofilename></originalaudiofilename>
						</logginginfo>
						<colorinfo>
							<lut></lut>
							<lut1></lut1>
							<asc_sop></asc_sop>
							<asc_sat></asc_sat>
							<lut2></lut2>
						</colorinfo>
						<labels>
							<label2>Iris</label2>
						</labels>
					</clipitem>
					<clipitem id="clipitem-867" premiereChannelType="stereo">
						<masterclipid>masterclip-250</masterclipid>
						<name>MYZ_RusskiyChart_OtbivkaMini_h264_v2.mp4</name>
						<enabled>TRUE</enabled>
						<duration>74</duration>
						<rate>
							<timebase>25</timebase>
							<ntsc>FALSE</ntsc>
						</rate>
						<start>26757</start>
						<end>26817</end>
						<in>0</in>
						<out>60</out>
						<pproTicksIn>0</pproTicksIn>
						<pproTicksOut>609638400000</pproTicksOut>
						<file id="file-218"/>
						<sourcetrack>
							<mediatype>audio</mediatype>
							<trackindex>1</trackindex>
						</sourcetrack>
						<filter>
							<effect>
								<name>Audio Levels</name>
								<effectid>audiolevels</effectid>
								<effectcategory>audiolevels</effectcategory>
								<effecttype>audiolevels</effecttype>
								<mediatype>audio</mediatype>
								<pproBypass>false</pproBypass>
								<parameter authoringApp="PremierePro">
									<parameterid>level</parameterid>
									<name>Level</name>
									<valuemin>0</valuemin>
									<valuemax>3.98109</valuemax>
									<value>0.251189</value>
									<keyframe>
										<when>60</when>
										<value>0.251189</value>
									</keyframe>
									<keyframe>
										<when>70</when>
										<value>0.258297</value>
									</keyframe>
								</parameter>
							</effect>
						</filter>
						<link>
							<linkclipref>clipitem-608</linkclipref>
							<mediatype>video</mediatype>
							<trackindex>1</trackindex>
							<clipindex>22</clipindex>
						</link>
						<link>
							<linkclipref>clipitem-867</linkclipref>
							<mediatype>audio</mediatype>
							<trackindex>1</trackindex>
							<clipindex>15</clipindex>
							<groupindex>1</groupindex>
						</link>
						<link>
							<linkclipref>clipitem-902</linkclipref>
							<mediatype>audio</mediatype>
							<trackindex>2</trackindex>
							<clipindex>15</clipindex>
							<groupindex>1</groupindex>
						</link>
						<logginginfo>
							<description></description>
							<scene></scene>
							<shottake></shottake>
							<lognote></lognote>
							<good></good>
							<originalvideofilename></originalvideofilename>
							<originalaudiofilename></originalaudiofilename>
						</logginginfo>
						<colorinfo>
							<lut></lut>
							<lut1></lut1>
							<asc_sop></asc_sop>
							<asc_sat></asc_sat>
							<lut2></lut2>
						</colorinfo>
						<labels>
							<label2>Purple</label2>
						</labels>
					</clipitem>
					<clipitem id="clipitem-868" premiereChannelType="stereo">
						<masterclipid>masterclip-244</masterclipid>
						<name>Nested Sequence_470</name>
						<enabled>TRUE</enabled>
						<duration>13650</duration>
						<rate>
							<timebase>25</timebase>
							<ntsc>FALSE</ntsc>
						</rate>
						<start>26817</start>
						<end>27934</end>
						<in>4128</in>
						<out>5245</out>
						<pproTicksIn>41943121920000</pproTicksIn>
						<pproTicksOut>53292556800000</pproTicksOut>
						<sequence id="sequence-36"/>
						<sourcetrack>
							<mediatype>audio</mediatype>
							<trackindex>0</trackindex>
						</sourcetrack>
						<filter>
							<effect>
								<name>Audio Levels</name>
								<effectid>audiolevels</effectid>
								<effectcategory>audiolevels</effectcategory>
								<effecttype>audiolevels</effecttype>
								<mediatype>audio</mediatype>
								<pproBypass>false</pproBypass>
								<parameter authoringApp="PremierePro">
									<parameterid>level</parameterid>
									<name>Level</name>
									<valuemin>0</valuemin>
									<valuemax>3.98109</valuemax>
									<value>0</value>
									<keyframe>
										<when>12</when>
										<value>0</value>
									</keyframe>
									<keyframe>
										<when>13</when>
										<value>0</value>
									</keyframe>
									<keyframe>
										<when>1191</when>
										<value>0</value>
									</keyframe>
									<keyframe>
										<when>1194</when>
										<value>0</value>
									</keyframe>
									<keyframe>
										<when>2032</when>
										<value>0</value>
									</keyframe>
									<keyframe>
										<when>2034</when>
										<value>0</value>
									</keyframe>
									<keyframe>
										<when>2927</when>
										<value>0</value>
									</keyframe>
									<keyframe>
										<when>2929</when>
										<value>0</value>
									</keyframe>
									<keyframe>
										<when>4135</when>
										<value>0</value>
									</keyframe>
									<keyframe>
										<when>4138</when>
										<value>1</value>
									</keyframe>
								</parameter>
							</effect>
						</filter>
						<link>
							<linkclipref>clipitem-609</linkclipref>
							<mediatype>video</mediatype>
							<trackindex>1</trackindex>
							<clipindex>23</clipindex>
						</link>
						<link>
							<linkclipref>clipitem-868</linkclipref>
							<mediatype>audio</mediatype>
							<trackindex>1</trackindex>
							<clipindex>16</clipindex>
							<groupindex>1</groupindex>
						</link>
						<link>
							<linkclipref>clipitem-903</linkclipref>
							<mediatype>audio</mediatype>
							<trackindex>2</trackindex>
							<clipindex>16</clipindex>
							<groupindex>1</groupindex>
						</link>
						<labels>
							<label2>Forest</label2>
						</labels>
					</clipitem>
					<clipitem id="clipitem-869" premiereChannelType="stereo">
						<masterclipid>masterclip-260</masterclipid>
						<name>ARTIK &amp; ASTI_ОНА НЕ Я___MSWCLP004593.mov</name>
						<enabled>TRUE</enabled>
						<duration>5330</duration>
						<rate>
							<timebase>25</timebase>
							<ntsc>FALSE</ntsc>
						</rate>
						<start>28009</start>
						<end>32968</end>
						<in>359</in>
						<out>5318</out>
						<pproTicksIn>3647669760000</pproTicksIn>
						<pproTicksOut>54034283520000</pproTicksOut>
						<file id="file-228"/>
						<sourcetrack>
							<mediatype>audio</mediatype>
							<trackindex>1</trackindex>
						</sourcetrack>
						<filter>
							<effect>
								<name>Audio Levels</name>
								<effectid>audiolevels</effectid>
								<effectcategory>audiolevels</effectcategory>
								<effecttype>audiolevels</effecttype>
								<mediatype>audio</mediatype>
								<pproBypass>false</pproBypass>
								<parameter authoringApp="PremierePro">
									<parameterid>level</parameterid>
									<name>Level</name>
									<valuemin>0</valuemin>
									<valuemax>3.98109</valuemax>
									<value>0.117198</value>
									<keyframe>
										<when>359</when>
										<value>0.117198</value>
									</keyframe>
									<keyframe>
										<when>372</when>
										<value>1</value>
									</keyframe>
								</parameter>
							</effect>
						</filter>
						<link>
							<linkclipref>clipitem-611</linkclipref>
							<mediatype>video</mediatype>
							<trackindex>1</trackindex>
							<clipindex>25</clipindex>
						</link>
						<link>
							<linkclipref>clipitem-869</linkclipref>
							<mediatype>audio</mediatype>
							<trackindex>1</trackindex>
							<clipindex>17</clipindex>
							<groupindex>1</groupindex>
						</link>
						<link>
							<linkclipref>clipitem-904</linkclipref>
							<mediatype>audio</mediatype>
							<trackindex>2</trackindex>
							<clipindex>17</clipindex>
							<groupindex>1</groupindex>
						</link>
						<logginginfo>
							<description></description>
							<scene></scene>
							<shottake></shottake>
							<lognote></lognote>
							<good></good>
							<originalvideofilename></originalvideofilename>
							<originalaudiofilename></originalaudiofilename>
						</logginginfo>
						<colorinfo>
							<lut></lut>
							<lut1></lut1>
							<asc_sop></asc_sop>
							<asc_sat></asc_sat>
							<lut2></lut2>
						</colorinfo>
						<labels>
							<label2>Iris</label2>
						</labels>
					</clipitem>
					<clipitem id="clipitem-870" premiereChannelType="stereo">
						<masterclipid>masterclip-262</masterclipid>
						<name>SLAVA MARLOW_ТЫ ГОРИШЬ КАК ОГОНЬ___MSWCLP004382.mov</name>
						<enabled>TRUE</enabled>
						<duration>4191</duration>
						<rate>
							<timebase>25</timebase>
							<ntsc>FALSE</ntsc>
						</rate>
						<start>33043</start>
						<end>37234</end>
						<in>0</in>
						<out>4191</out>
						<pproTicksIn>0</pproTicksIn>
						<pproTicksOut>42583242240000</pproTicksOut>
						<file id="file-230"/>
						<sourcetrack>
							<mediatype>audio</mediatype>
							<trackindex>1</trackindex>
						</sourcetrack>
						<filter>
							<effect>
								<name>Audio Levels</name>
								<effectid>audiolevels</effectid>
								<effectcategory>audiolevels</effectcategory>
								<effecttype>audiolevels</effecttype>
								<mediatype>audio</mediatype>
								<pproBypass>false</pproBypass>
								<parameter authoringApp="PremierePro">
									<parameterid>level</parameterid>
									<name>Level</name>
									<valuemin>0</valuemin>
									<valuemax>3.98109</valuemax>
									<value>1</value>
								</parameter>
							</effect>
						</filter>
						<link>
							<linkclipref>clipitem-613</linkclipref>
							<mediatype>video</mediatype>
							<trackindex>1</trackindex>
							<clipindex>27</clipindex>
						</link>
						<link>
							<linkclipref>clipitem-870</linkclipref>
							<mediatype>audio</mediatype>
							<trackindex>1</trackindex>
							<clipindex>18</clipindex>
							<groupindex>1</groupindex>
						</link>
						<link>
							<linkclipref>clipitem-905</linkclipref>
							<mediatype>audio</mediatype>
							<trackindex>2</trackindex>
							<clipindex>18</clipindex>
							<groupindex>1</groupindex>
						</link>
						<logginginfo>
							<description></description>
							<scene></scene>
							<shottake></shottake>
							<lognote></lognote>
							<good></good>
							<originalvideofilename></originalvideofilename>
							<originalaudiofilename></originalaudiofilename>
						</logginginfo>
						<colorinfo>
							<lut></lut>
							<lut1></lut1>
							<asc_sop></asc_sop>
							<asc_sat></asc_sat>
							<lut2></lut2>
						</colorinfo>
						<labels>
							<label2>Iris</label2>
						</labels>
					</clipitem>
					<clipitem id="clipitem-871" premiereChannelType="stereo">
						<masterclipid>masterclip-250</masterclipid>
						<name>MYZ_RusskiyChart_OtbivkaMini_h264_v2.mp4</name>
						<enabled>TRUE</enabled>
						<duration>74</duration>
						<rate>
							<timebase>25</timebase>
							<ntsc>FALSE</ntsc>
						</rate>
						<start>37234</start>
						<end>37294</end>
						<in>0</in>
						<out>60</out>
						<pproTicksIn>0</pproTicksIn>
						<pproTicksOut>609638400000</pproTicksOut>
						<file id="file-218"/>
						<sourcetrack>
							<mediatype>audio</mediatype>
							<trackindex>1</trackindex>
						</sourcetrack>
						<filter>
							<effect>
								<name>Audio Levels</name>
								<effectid>audiolevels</effectid>
								<effectcategory>audiolevels</effectcategory>
								<effecttype>audiolevels</effecttype>
								<mediatype>audio</mediatype>
								<pproBypass>false</pproBypass>
								<parameter authoringApp="PremierePro">
									<parameterid>level</parameterid>
									<name>Level</name>
									<valuemin>0</valuemin>
									<valuemax>3.98109</valuemax>
									<value>0.251189</value>
									<keyframe>
										<when>60</when>
										<value>0.251189</value>
									</keyframe>
									<keyframe>
										<when>70</when>
										<value>0.258297</value>
									</keyframe>
								</parameter>
							</effect>
						</filter>
						<link>
							<linkclipref>clipitem-614</linkclipref>
							<mediatype>video</mediatype>
							<trackindex>1</trackindex>
							<clipindex>28</clipindex>
						</link>
						<link>
							<linkclipref>clipitem-871</linkclipref>
							<mediatype>audio</mediatype>
							<trackindex>1</trackindex>
							<clipindex>19</clipindex>
							<groupindex>1</groupindex>
						</link>
						<link>
							<linkclipref>clipitem-906</linkclipref>
							<mediatype>audio</mediatype>
							<trackindex>2</trackindex>
							<clipindex>19</clipindex>
							<groupindex>1</groupindex>
						</link>
						<logginginfo>
							<description></description>
							<scene></scene>
							<shottake></shottake>
							<lognote></lognote>
							<good></good>
							<originalvideofilename></originalvideofilename>
							<originalaudiofilename></originalaudiofilename>
						</logginginfo>
						<colorinfo>
							<lut></lut>
							<lut1></lut1>
							<asc_sop></asc_sop>
							<asc_sat></asc_sat>
							<lut2></lut2>
						</colorinfo>
						<labels>
							<label2>Purple</label2>
						</labels>
					</clipitem>
					<clipitem id="clipitem-872" premiereChannelType="stereo">
						<masterclipid>masterclip-244</masterclipid>
						<name>Nested Sequence_470</name>
						<enabled>TRUE</enabled>
						<duration>13650</duration>
						<rate>
							<timebase>25</timebase>
							<ntsc>FALSE</ntsc>
						</rate>
						<start>37294</start>
						<end>38147</end>
						<in>5289</in>
						<out>6142</out>
						<pproTicksIn>53739624960000</pproTicksIn>
						<pproTicksOut>62406650880000</pproTicksOut>
						<sequence id="sequence-36"/>
						<sourcetrack>
							<mediatype>audio</mediatype>
							<trackindex>0</trackindex>
						</sourcetrack>
						<filter>
							<effect>
								<name>Audio Levels</name>
								<effectid>audiolevels</effectid>
								<effectcategory>audiolevels</effectcategory>
								<effecttype>audiolevels</effecttype>
								<mediatype>audio</mediatype>
								<pproBypass>false</pproBypass>
								<parameter authoringApp="PremierePro">
									<parameterid>level</parameterid>
									<name>Level</name>
									<valuemin>0</valuemin>
									<valuemax>3.98109</valuemax>
									<value>0</value>
									<keyframe>
										<when>12</when>
										<value>0</value>
									</keyframe>
									<keyframe>
										<when>13</when>
										<value>0</value>
									</keyframe>
									<keyframe>
										<when>1191</when>
										<value>0</value>
									</keyframe>
									<keyframe>
										<when>1194</when>
										<value>0</value>
									</keyframe>
									<keyframe>
										<when>2032</when>
										<value>0</value>
									</keyframe>
									<keyframe>
										<when>2034</when>
										<value>0</value>
									</keyframe>
									<keyframe>
										<when>2927</when>
										<value>0</value>
									</keyframe>
									<keyframe>
										<when>2929</when>
										<value>0</value>
									</keyframe>
									<keyframe>
										<when>4135</when>
										<value>0</value>
									</keyframe>
									<keyframe>
										<when>4138</when>
										<value>0</value>
									</keyframe>
									<keyframe>
										<when>5292</when>
										<value>0</value>
									</keyframe>
									<keyframe>
										<when>5293</when>
										<value>1</value>
									</keyframe>
								</parameter>
							</effect>
						</filter>
						<link>
							<linkclipref>clipitem-615</linkclipref>
							<mediatype>video</mediatype>
							<trackindex>1</trackindex>
							<clipindex>29</clipindex>
						</link>
						<link>
							<linkclipref>clipitem-872</linkclipref>
							<mediatype>audio</mediatype>
							<trackindex>1</trackindex>
							<clipindex>20</clipindex>
							<groupindex>1</groupindex>
						</link>
						<link>
							<linkclipref>clipitem-907</linkclipref>
							<mediatype>audio</mediatype>
							<trackindex>2</trackindex>
							<clipindex>20</clipindex>
							<groupindex>1</groupindex>
						</link>
						<labels>
							<label2>Forest</label2>
						</labels>
					</clipitem>
					<clipitem id="clipitem-873" premiereChannelType="stereo">
						<masterclipid>masterclip-264</masterclipid>
						<name>LOBODA_РОДНОЙ___MSWCLP004376.mov</name>
						<enabled>TRUE</enabled>
						<duration>5466</duration>
						<rate>
							<timebase>25</timebase>
							<ntsc>FALSE</ntsc>
						</rate>
						<start>38222</start>
						<end>43544</end>
						<in>66</in>
						<out>5388</out>
						<pproTicksIn>670602240000</pproTicksIn>
						<pproTicksOut>54745528320000</pproTicksOut>
						<file id="file-232"/>
						<sourcetrack>
							<mediatype>audio</mediatype>
							<trackindex>1</trackindex>
						</sourcetrack>
						<filter>
							<effect>
								<name>Audio Levels</name>
								<effectid>audiolevels</effectid>
								<effectcategory>audiolevels</effectcategory>
								<effecttype>audiolevels</effecttype>
								<mediatype>audio</mediatype>
								<pproBypass>false</pproBypass>
								<parameter authoringApp="PremierePro">
									<parameterid>level</parameterid>
									<name>Level</name>
									<valuemin>0</valuemin>
									<valuemax>3.98109</valuemax>
									<value>1</value>
									<keyframe>
										<when>5352</when>
										<value>1</value>
									</keyframe>
									<keyframe>
										<when>5384</when>
										<value>0.080256</value>
									</keyframe>
								</parameter>
							</effect>
						</filter>
						<link>
							<linkclipref>clipitem-617</linkclipref>
							<mediatype>video</mediatype>
							<trackindex>1</trackindex>
							<clipindex>31</clipindex>
						</link>
						<link>
							<linkclipref>clipitem-873</linkclipref>
							<mediatype>audio</mediatype>
							<trackindex>1</trackindex>
							<clipindex>21</clipindex>
							<groupindex>1</groupindex>
						</link>
						<link>
							<linkclipref>clipitem-908</linkclipref>
							<mediatype>audio</mediatype>
							<trackindex>2</trackindex>
							<clipindex>21</clipindex>
							<groupindex>1</groupindex>
						</link>
						<logginginfo>
							<description></description>
							<scene></scene>
							<shottake></shottake>
							<lognote></lognote>
							<good></good>
							<originalvideofilename></originalvideofilename>
							<originalaudiofilename></originalaudiofilename>
						</logginginfo>
						<colorinfo>
							<lut></lut>
							<lut1></lut1>
							<asc_sop></asc_sop>
							<asc_sat></asc_sat>
							<lut2></lut2>
						</colorinfo>
						<labels>
							<label2>Iris</label2>
						</labels>
					</clipitem>
					<clipitem id="clipitem-874" premiereChannelType="stereo">
						<masterclipid>masterclip-250</masterclipid>
						<name>MYZ_RusskiyChart_OtbivkaMini_h264_v2.mp4</name>
						<enabled>TRUE</enabled>
						<duration>74</duration>
						<rate>
							<timebase>25</timebase>
							<ntsc>FALSE</ntsc>
						</rate>
						<start>43544</start>
						<end>43604</end>
						<in>0</in>
						<out>60</out>
						<pproTicksIn>0</pproTicksIn>
						<pproTicksOut>609638400000</pproTicksOut>
						<file id="file-218"/>
						<sourcetrack>
							<mediatype>audio</mediatype>
							<trackindex>1</trackindex>
						</sourcetrack>
						<filter>
							<effect>
								<name>Audio Levels</name>
								<effectid>audiolevels</effectid>
								<effectcategory>audiolevels</effectcategory>
								<effecttype>audiolevels</effecttype>
								<mediatype>audio</mediatype>
								<pproBypass>false</pproBypass>
								<parameter authoringApp="PremierePro">
									<parameterid>level</parameterid>
									<name>Level</name>
									<valuemin>0</valuemin>
									<valuemax>3.98109</valuemax>
									<value>0.251189</value>
									<keyframe>
										<when>60</when>
										<value>0.251189</value>
									</keyframe>
									<keyframe>
										<when>70</when>
										<value>0.258297</value>
									</keyframe>
								</parameter>
							</effect>
						</filter>
						<link>
							<linkclipref>clipitem-618</linkclipref>
							<mediatype>video</mediatype>
							<trackindex>1</trackindex>
							<clipindex>32</clipindex>
						</link>
						<link>
							<linkclipref>clipitem-874</linkclipref>
							<mediatype>audio</mediatype>
							<trackindex>1</trackindex>
							<clipindex>22</clipindex>
							<groupindex>1</groupindex>
						</link>
						<link>
							<linkclipref>clipitem-909</linkclipref>
							<mediatype>audio</mediatype>
							<trackindex>2</trackindex>
							<clipindex>22</clipindex>
							<groupindex>1</groupindex>
						</link>
						<logginginfo>
							<description></description>
							<scene></scene>
							<shottake></shottake>
							<lognote></lognote>
							<good></good>
							<originalvideofilename></originalvideofilename>
							<originalaudiofilename></originalaudiofilename>
						</logginginfo>
						<colorinfo>
							<lut></lut>
							<lut1></lut1>
							<asc_sop></asc_sop>
							<asc_sat></asc_sat>
							<lut2></lut2>
						</colorinfo>
						<labels>
							<label2>Purple</label2>
						</labels>
					</clipitem>
					<clipitem id="clipitem-875" premiereChannelType="stereo">
						<masterclipid>masterclip-244</masterclipid>
						<name>Nested Sequence_470</name>
						<enabled>TRUE</enabled>
						<duration>13650</duration>
						<rate>
							<timebase>25</timebase>
							<ntsc>FALSE</ntsc>
						</rate>
						<start>43604</start>
						<end>44786</end>
						<in>6183</in>
						<out>7365</out>
						<pproTicksIn>62823237120000</pproTicksIn>
						<pproTicksOut>74833113600000</pproTicksOut>
						<sequence id="sequence-36"/>
						<sourcetrack>
							<mediatype>audio</mediatype>
							<trackindex>0</trackindex>
						</sourcetrack>
						<filter>
							<effect>
								<name>Audio Levels</name>
								<effectid>audiolevels</effectid>
								<effectcategory>audiolevels</effectcategory>
								<effecttype>audiolevels</effecttype>
								<mediatype>audio</mediatype>
								<pproBypass>false</pproBypass>
								<parameter authoringApp="PremierePro">
									<parameterid>level</parameterid>
									<name>Level</name>
									<valuemin>0</valuemin>
									<valuemax>3.98109</valuemax>
									<value>0</value>
									<keyframe>
										<when>12</when>
										<value>0</value>
									</keyframe>
									<keyframe>
										<when>13</when>
										<value>0</value>
									</keyframe>
									<keyframe>
										<when>1191</when>
										<value>0</value>
									</keyframe>
									<keyframe>
										<when>1194</when>
										<value>0</value>
									</keyframe>
									<keyframe>
										<when>2032</when>
										<value>0</value>
									</keyframe>
									<keyframe>
										<when>2034</when>
										<value>0</value>
									</keyframe>
									<keyframe>
										<when>2927</when>
										<value>0</value>
									</keyframe>
									<keyframe>
										<when>2929</when>
										<value>0</value>
									</keyframe>
									<keyframe>
										<when>4135</when>
										<value>0</value>
									</keyframe>
									<keyframe>
										<when>4138</when>
										<value>0</value>
									</keyframe>
									<keyframe>
										<when>5292</when>
										<value>0</value>
									</keyframe>
									<keyframe>
										<when>5293</when>
										<value>0</value>
									</keyframe>
									<keyframe>
										<when>6187</when>
										<value>0</value>
									</keyframe>
									<keyframe>
										<when>6188</when>
										<value>1</value>
									</keyframe>
								</parameter>
							</effect>
						</filter>
						<link>
							<linkclipref>clipitem-619</linkclipref>
							<mediatype>video</mediatype>
							<trackindex>1</trackindex>
							<clipindex>33</clipindex>
						</link>
						<link>
							<linkclipref>clipitem-875</linkclipref>
							<mediatype>audio</mediatype>
							<trackindex>1</trackindex>
							<clipindex>23</clipindex>
							<groupindex>1</groupindex>
						</link>
						<link>
							<linkclipref>clipitem-910</linkclipref>
							<mediatype>audio</mediatype>
							<trackindex>2</trackindex>
							<clipindex>23</clipindex>
							<groupindex>1</groupindex>
						</link>
						<labels>
							<label2>Forest</label2>
						</labels>
					</clipitem>
					<clipitem id="clipitem-876" premiereChannelType="stereo">
						<masterclipid>masterclip-266</masterclipid>
						<name>СУЛТАН ЛАГУЧЕВ_ГОРЬКИЙ ВКУС___MSWCLP004337.mov</name>
						<enabled>TRUE</enabled>
						<duration>4437</duration>
						<rate>
							<timebase>25</timebase>
							<ntsc>FALSE</ntsc>
						</rate>
						<start>44861</start>
						<end>49232</end>
						<in>39</in>
						<out>4410</out>
						<pproTicksIn>396264960000</pproTicksIn>
						<pproTicksOut>44808422400000</pproTicksOut>
						<file id="file-234"/>
						<sourcetrack>
							<mediatype>audio</mediatype>
							<trackindex>1</trackindex>
						</sourcetrack>
						<filter>
							<effect>
								<name>Audio Levels</name>
								<effectid>audiolevels</effectid>
								<effectcategory>audiolevels</effectcategory>
								<effecttype>audiolevels</effecttype>
								<mediatype>audio</mediatype>
								<pproBypass>false</pproBypass>
								<parameter authoringApp="PremierePro">
									<parameterid>level</parameterid>
									<name>Level</name>
									<valuemin>0</valuemin>
									<valuemax>3.98109</valuemax>
									<value>1</value>
									<keyframe>
										<when>4382</when>
										<value>1</value>
									</keyframe>
									<keyframe>
										<when>4405</when>
										<value>0.2149</value>
									</keyframe>
								</parameter>
							</effect>
						</filter>
						<link>
							<linkclipref>clipitem-621</linkclipref>
							<mediatype>video</mediatype>
							<trackindex>1</trackindex>
							<clipindex>35</clipindex>
						</link>
						<link>
							<linkclipref>clipitem-876</linkclipref>
							<mediatype>audio</mediatype>
							<trackindex>1</trackindex>
							<clipindex>24</clipindex>
							<groupindex>1</groupindex>
						</link>
						<link>
							<linkclipref>clipitem-911</linkclipref>
							<mediatype>audio</mediatype>
							<trackindex>2</trackindex>
							<clipindex>24</clipindex>
							<groupindex>1</groupindex>
						</link>
						<logginginfo>
							<description></description>
							<scene></scene>
							<shottake></shottake>
							<lognote></lognote>
							<good></good>
							<originalvideofilename></originalvideofilename>
							<originalaudiofilename></originalaudiofilename>
						</logginginfo>
						<colorinfo>
							<lut></lut>
							<lut1></lut1>
							<asc_sop></asc_sop>
							<asc_sat></asc_sat>
							<lut2></lut2>
						</colorinfo>
						<labels>
							<label2>Iris</label2>
						</labels>
					</clipitem>
					<clipitem id="clipitem-877" premiereChannelType="stereo">
						<masterclipid>masterclip-250</masterclipid>
						<name>MYZ_RusskiyChart_OtbivkaMini_h264_v2.mp4</name>
						<enabled>TRUE</enabled>
						<duration>74</duration>
						<rate>
							<timebase>25</timebase>
							<ntsc>FALSE</ntsc>
						</rate>
						<start>49232</start>
						<end>49292</end>
						<in>0</in>
						<out>60</out>
						<pproTicksIn>0</pproTicksIn>
						<pproTicksOut>609638400000</pproTicksOut>
						<file id="file-218"/>
						<sourcetrack>
							<mediatype>audio</mediatype>
							<trackindex>1</trackindex>
						</sourcetrack>
						<filter>
							<effect>
								<name>Audio Levels</name>
								<effectid>audiolevels</effectid>
								<effectcategory>audiolevels</effectcategory>
								<effecttype>audiolevels</effecttype>
								<mediatype>audio</mediatype>
								<pproBypass>false</pproBypass>
								<parameter authoringApp="PremierePro">
									<parameterid>level</parameterid>
									<name>Level</name>
									<valuemin>0</valuemin>
									<valuemax>3.98109</valuemax>
									<value>0.251189</value>
									<keyframe>
										<when>60</when>
										<value>0.251189</value>
									</keyframe>
									<keyframe>
										<when>70</when>
										<value>0.258297</value>
									</keyframe>
								</parameter>
							</effect>
						</filter>
						<link>
							<linkclipref>clipitem-622</linkclipref>
							<mediatype>video</mediatype>
							<trackindex>1</trackindex>
							<clipindex>36</clipindex>
						</link>
						<link>
							<linkclipref>clipitem-877</linkclipref>
							<mediatype>audio</mediatype>
							<trackindex>1</trackindex>
							<clipindex>25</clipindex>
							<groupindex>1</groupindex>
						</link>
						<link>
							<linkclipref>clipitem-912</linkclipref>
							<mediatype>audio</mediatype>
							<trackindex>2</trackindex>
							<clipindex>25</clipindex>
							<groupindex>1</groupindex>
						</link>
						<logginginfo>
							<description></description>
							<scene></scene>
							<shottake></shottake>
							<lognote></lognote>
							<good></good>
							<originalvideofilename></originalvideofilename>
							<originalaudiofilename></originalaudiofilename>
						</logginginfo>
						<colorinfo>
							<lut></lut>
							<lut1></lut1>
							<asc_sop></asc_sop>
							<asc_sat></asc_sat>
							<lut2></lut2>
						</colorinfo>
						<labels>
							<label2>Purple</label2>
						</labels>
					</clipitem>
					<clipitem id="clipitem-878" premiereChannelType="stereo">
						<masterclipid>masterclip-244</masterclipid>
						<name>Nested Sequence_470</name>
						<enabled>TRUE</enabled>
						<duration>13650</duration>
						<rate>
							<timebase>25</timebase>
							<ntsc>FALSE</ntsc>
						</rate>
						<start>49292</start>
						<end>50340</end>
						<in>9043</in>
						<out>10091</out>
						<pproTicksIn>91882667520000</pproTicksIn>
						<pproTicksOut>102531018240000</pproTicksOut>
						<sequence id="sequence-36"/>
						<sourcetrack>
							<mediatype>audio</mediatype>
							<trackindex>0</trackindex>
						</sourcetrack>
						<filter>
							<effect>
								<name>Audio Levels</name>
								<effectid>audiolevels</effectid>
								<effectcategory>audiolevels</effectcategory>
								<effecttype>audiolevels</effecttype>
								<mediatype>audio</mediatype>
								<pproBypass>false</pproBypass>
								<parameter authoringApp="PremierePro">
									<parameterid>level</parameterid>
									<name>Level</name>
									<valuemin>0</valuemin>
									<valuemax>3.98109</valuemax>
									<value>0</value>
									<keyframe>
										<when>12</when>
										<value>0</value>
									</keyframe>
									<keyframe>
										<when>13</when>
										<value>0</value>
									</keyframe>
									<keyframe>
										<when>1191</when>
										<value>0</value>
									</keyframe>
									<keyframe>
										<when>1194</when>
										<value>0</value>
									</keyframe>
									<keyframe>
										<when>2032</when>
										<value>0</value>
									</keyframe>
									<keyframe>
										<when>2034</when>
										<value>0</value>
									</keyframe>
									<keyframe>
										<when>2927</when>
										<value>0</value>
									</keyframe>
									<keyframe>
										<when>2929</when>
										<value>0</value>
									</keyframe>
									<keyframe>
										<when>4135</when>
										<value>0</value>
									</keyframe>
									<keyframe>
										<when>4138</when>
										<value>0</value>
									</keyframe>
									<keyframe>
										<when>5292</when>
										<value>0</value>
									</keyframe>
									<keyframe>
										<when>5293</when>
										<value>0</value>
									</keyframe>
									<keyframe>
										<when>6187</when>
										<value>0</value>
									</keyframe>
									<keyframe>
										<when>6188</when>
										<value>0</value>
									</keyframe>
									<keyframe>
										<when>7428</when>
										<value>0</value>
									</keyframe>
									<keyframe>
										<when>7431</when>
										<value>0</value>
									</keyframe>
									<keyframe>
										<when>9047</when>
										<value>0</value>
									</keyframe>
									<keyframe>
										<when>9049</when>
										<value>1</value>
									</keyframe>
								</parameter>
							</effect>
						</filter>
						<link>
							<linkclipref>clipitem-623</linkclipref>
							<mediatype>video</mediatype>
							<trackindex>1</trackindex>
							<clipindex>37</clipindex>
						</link>
						<link>
							<linkclipref>clipitem-878</linkclipref>
							<mediatype>audio</mediatype>
							<trackindex>1</trackindex>
							<clipindex>26</clipindex>
							<groupindex>1</groupindex>
						</link>
						<link>
							<linkclipref>clipitem-913</linkclipref>
							<mediatype>audio</mediatype>
							<trackindex>2</trackindex>
							<clipindex>26</clipindex>
							<groupindex>1</groupindex>
						</link>
						<labels>
							<label2>Forest</label2>
						</labels>
					</clipitem>
					<clipitem id="clipitem-879" premiereChannelType="stereo">
						<masterclipid>masterclip-268</masterclipid>
						<name>МАКС БАРСКИХ &amp; ZIVERT_BESTSELLER___MSWCLP004396.mov</name>
						<enabled>TRUE</enabled>
						<duration>5597</duration>
						<rate>
							<timebase>25</timebase>
							<ntsc>FALSE</ntsc>
						</rate>
						<start>50415</start>
						<end>55933</end>
						<in>0</in>
						<out>5518</out>
						<pproTicksIn>0</pproTicksIn>
						<pproTicksOut>56066411520000</pproTicksOut>
						<file id="file-236"/>
						<sourcetrack>
							<mediatype>audio</mediatype>
							<trackindex>1</trackindex>
						</sourcetrack>
						<filter>
							<effect>
								<name>Audio Levels</name>
								<effectid>audiolevels</effectid>
								<effectcategory>audiolevels</effectcategory>
								<effecttype>audiolevels</effecttype>
								<mediatype>audio</mediatype>
								<pproBypass>false</pproBypass>
								<parameter authoringApp="PremierePro">
									<parameterid>level</parameterid>
									<name>Level</name>
									<valuemin>0</valuemin>
									<valuemax>3.98109</valuemax>
									<value>0</value>
									<keyframe>
										<when>2</when>
										<value>0</value>
									</keyframe>
									<keyframe>
										<when>5</when>
										<value>1</value>
									</keyframe>
									<keyframe>
										<when>5474</when>
										<value>1</value>
									</keyframe>
									<keyframe>
										<when>5518</when>
										<value>0.080256</value>
									</keyframe>
								</parameter>
							</effect>
						</filter>
						<link>
							<linkclipref>clipitem-625</linkclipref>
							<mediatype>video</mediatype>
							<trackindex>1</trackindex>
							<clipindex>39</clipindex>
						</link>
						<link>
							<linkclipref>clipitem-879</linkclipref>
							<mediatype>audio</mediatype>
							<trackindex>1</trackindex>
							<clipindex>27</clipindex>
							<groupindex>1</groupindex>
						</link>
						<link>
							<linkclipref>clipitem-914</linkclipref>
							<mediatype>audio</mediatype>
							<trackindex>2</trackindex>
							<clipindex>27</clipindex>
							<groupindex>1</groupindex>
						</link>
						<logginginfo>
							<description></description>
							<scene></scene>
							<shottake></shottake>
							<lognote></lognote>
							<good></good>
							<originalvideofilename></originalvideofilename>
							<originalaudiofilename></originalaudiofilename>
						</logginginfo>
						<colorinfo>
							<lut></lut>
							<lut1></lut1>
							<asc_sop></asc_sop>
							<asc_sat></asc_sat>
							<lut2></lut2>
						</colorinfo>
						<labels>
							<label2>Iris</label2>
						</labels>
					</clipitem>
					<clipitem id="clipitem-880" premiereChannelType="stereo">
						<masterclipid>masterclip-250</masterclipid>
						<name>MYZ_RusskiyChart_OtbivkaMini_h264_v2.mp4</name>
						<enabled>TRUE</enabled>
						<duration>74</duration>
						<rate>
							<timebase>25</timebase>
							<ntsc>FALSE</ntsc>
						</rate>
						<start>55933</start>
						<end>55993</end>
						<in>0</in>
						<out>60</out>
						<pproTicksIn>0</pproTicksIn>
						<pproTicksOut>609638400000</pproTicksOut>
						<file id="file-218"/>
						<sourcetrack>
							<mediatype>audio</mediatype>
							<trackindex>1</trackindex>
						</sourcetrack>
						<filter>
							<effect>
								<name>Audio Levels</name>
								<effectid>audiolevels</effectid>
								<effectcategory>audiolevels</effectcategory>
								<effecttype>audiolevels</effecttype>
								<mediatype>audio</mediatype>
								<pproBypass>false</pproBypass>
								<parameter authoringApp="PremierePro">
									<parameterid>level</parameterid>
									<name>Level</name>
									<valuemin>0</valuemin>
									<valuemax>3.98109</valuemax>
									<value>0.251189</value>
									<keyframe>
										<when>60</when>
										<value>0.251189</value>
									</keyframe>
									<keyframe>
										<when>70</when>
										<value>0.258297</value>
									</keyframe>
								</parameter>
							</effect>
						</filter>
						<link>
							<linkclipref>clipitem-626</linkclipref>
							<mediatype>video</mediatype>
							<trackindex>1</trackindex>
							<clipindex>40</clipindex>
						</link>
						<link>
							<linkclipref>clipitem-880</linkclipref>
							<mediatype>audio</mediatype>
							<trackindex>1</trackindex>
							<clipindex>28</clipindex>
							<groupindex>1</groupindex>
						</link>
						<link>
							<linkclipref>clipitem-915</linkclipref>
							<mediatype>audio</mediatype>
							<trackindex>2</trackindex>
							<clipindex>28</clipindex>
							<groupindex>1</groupindex>
						</link>
						<logginginfo>
							<description></description>
							<scene></scene>
							<shottake></shottake>
							<lognote></lognote>
							<good></good>
							<originalvideofilename></originalvideofilename>
							<originalaudiofilename></originalaudiofilename>
						</logginginfo>
						<colorinfo>
							<lut></lut>
							<lut1></lut1>
							<asc_sop></asc_sop>
							<asc_sat></asc_sat>
							<lut2></lut2>
						</colorinfo>
						<labels>
							<label2>Purple</label2>
						</labels>
					</clipitem>
					<clipitem id="clipitem-881" premiereChannelType="stereo">
						<masterclipid>masterclip-244</masterclipid>
						<name>Nested Sequence_470</name>
						<enabled>TRUE</enabled>
						<duration>13650</duration>
						<rate>
							<timebase>25</timebase>
							<ntsc>FALSE</ntsc>
						</rate>
						<start>55993</start>
						<end>56985</end>
						<in>10112</in>
						<out>11104</out>
						<pproTicksIn>102744391680000</pproTicksIn>
						<pproTicksOut>112823746560000</pproTicksOut>
						<sequence id="sequence-36"/>
						<sourcetrack>
							<mediatype>audio</mediatype>
							<trackindex>0</trackindex>
						</sourcetrack>
						<filter>
							<effect>
								<name>Audio Levels</name>
								<effectid>audiolevels</effectid>
								<effectcategory>audiolevels</effectcategory>
								<effecttype>audiolevels</effecttype>
								<mediatype>audio</mediatype>
								<pproBypass>false</pproBypass>
								<parameter authoringApp="PremierePro">
									<parameterid>level</parameterid>
									<name>Level</name>
									<valuemin>0</valuemin>
									<valuemax>3.98109</valuemax>
									<value>0</value>
									<keyframe>
										<when>12</when>
										<value>0</value>
									</keyframe>
									<keyframe>
										<when>13</when>
										<value>0</value>
									</keyframe>
									<keyframe>
										<when>1191</when>
										<value>0</value>
									</keyframe>
									<keyframe>
										<when>1194</when>
										<value>0</value>
									</keyframe>
									<keyframe>
										<when>2032</when>
										<value>0</value>
									</keyframe>
									<keyframe>
										<when>2034</when>
										<value>0</value>
									</keyframe>
									<keyframe>
										<when>2927</when>
										<value>0</value>
									</keyframe>
									<keyframe>
										<when>2929</when>
										<value>0</value>
									</keyframe>
									<keyframe>
										<when>4135</when>
										<value>0</value>
									</keyframe>
									<keyframe>
										<when>4138</when>
										<value>0</value>
									</keyframe>
									<keyframe>
										<when>5292</when>
										<value>0</value>
									</keyframe>
									<keyframe>
										<when>5293</when>
										<value>0</value>
									</keyframe>
									<keyframe>
										<when>6187</when>
										<value>0</value>
									</keyframe>
									<keyframe>
										<when>6188</when>
										<value>0</value>
									</keyframe>
									<keyframe>
										<when>7428</when>
										<value>0</value>
									</keyframe>
									<keyframe>
										<when>7431</when>
										<value>0</value>
									</keyframe>
									<keyframe>
										<when>9047</when>
										<value>0</value>
									</keyframe>
									<keyframe>
										<when>9049</when>
										<value>0</value>
									</keyframe>
									<keyframe>
										<when>10117</when>
										<value>0</value>
									</keyframe>
									<keyframe>
										<when>10119</when>
										<value>1</value>
									</keyframe>
								</parameter>
							</effect>
						</filter>
						<link>
							<linkclipref>clipitem-627</linkclipref>
							<mediatype>video</mediatype>
							<trackindex>1</trackindex>
							<clipindex>41</clipindex>
						</link>
						<link>
							<linkclipref>clipitem-881</linkclipref>
							<mediatype>audio</mediatype>
							<trackindex>1</trackindex>
							<clipindex>29</clipindex>
							<groupindex>1</groupindex>
						</link>
						<link>
							<linkclipref>clipitem-916</linkclipref>
							<mediatype>audio</mediatype>
							<trackindex>2</trackindex>
							<clipindex>29</clipindex>
							<groupindex>1</groupindex>
						</link>
						<labels>
							<label2>Forest</label2>
						</labels>
					</clipitem>
					<clipitem id="clipitem-882" premiereChannelType="stereo">
						<masterclipid>masterclip-270</masterclipid>
						<name>GALIBRI &amp; MAVIK_ФЕДЕРИКО ФЕЛЛИНИ___MSWCLP004538.mov</name>
						<enabled>TRUE</enabled>
						<duration>3492</duration>
						<rate>
							<timebase>25</timebase>
							<ntsc>FALSE</ntsc>
						</rate>
						<start>57060</start>
						<end>60462</end>
						<in>0</in>
						<out>3402</out>
						<pproTicksIn>0</pproTicksIn>
						<pproTicksOut>34566497280000</pproTicksOut>
						<file id="file-238"/>
						<sourcetrack>
							<mediatype>audio</mediatype>
							<trackindex>1</trackindex>
						</sourcetrack>
						<filter>
							<effect>
								<name>Audio Levels</name>
								<effectid>audiolevels</effectid>
								<effectcategory>audiolevels</effectcategory>
								<effecttype>audiolevels</effecttype>
								<mediatype>audio</mediatype>
								<pproBypass>false</pproBypass>
								<parameter authoringApp="PremierePro">
									<parameterid>level</parameterid>
									<name>Level</name>
									<valuemin>0</valuemin>
									<valuemax>3.98109</valuemax>
									<value>1</value>
									<keyframe>
										<when>3363</when>
										<value>1</value>
									</keyframe>
									<keyframe>
										<when>3397</when>
										<value>0.0227713</value>
									</keyframe>
								</parameter>
							</effect>
						</filter>
						<link>
							<linkclipref>clipitem-629</linkclipref>
							<mediatype>video</mediatype>
							<trackindex>1</trackindex>
							<clipindex>43</clipindex>
						</link>
						<link>
							<linkclipref>clipitem-882</linkclipref>
							<mediatype>audio</mediatype>
							<trackindex>1</trackindex>
							<clipindex>30</clipindex>
							<groupindex>1</groupindex>
						</link>
						<link>
							<linkclipref>clipitem-917</linkclipref>
							<mediatype>audio</mediatype>
							<trackindex>2</trackindex>
							<clipindex>30</clipindex>
							<groupindex>1</groupindex>
						</link>
						<logginginfo>
							<description></description>
							<scene></scene>
							<shottake></shottake>
							<lognote></lognote>
							<good></good>
							<originalvideofilename></originalvideofilename>
							<originalaudiofilename></originalaudiofilename>
						</logginginfo>
						<colorinfo>
							<lut></lut>
							<lut1></lut1>
							<asc_sop></asc_sop>
							<asc_sat></asc_sat>
							<lut2></lut2>
						</colorinfo>
						<labels>
							<label2>Iris</label2>
						</labels>
					</clipitem>
					<clipitem id="clipitem-883" premiereChannelType="stereo">
						<masterclipid>masterclip-250</masterclipid>
						<name>MYZ_RusskiyChart_OtbivkaMini_h264_v2.mp4</name>
						<enabled>TRUE</enabled>
						<duration>74</duration>
						<rate>
							<timebase>25</timebase>
							<ntsc>FALSE</ntsc>
						</rate>
						<start>60462</start>
						<end>60522</end>
						<in>0</in>
						<out>60</out>
						<pproTicksIn>0</pproTicksIn>
						<pproTicksOut>609638400000</pproTicksOut>
						<file id="file-218"/>
						<sourcetrack>
							<mediatype>audio</mediatype>
							<trackindex>1</trackindex>
						</sourcetrack>
						<filter>
							<effect>
								<name>Audio Levels</name>
								<effectid>audiolevels</effectid>
								<effectcategory>audiolevels</effectcategory>
								<effecttype>audiolevels</effecttype>
								<mediatype>audio</mediatype>
								<pproBypass>false</pproBypass>
								<parameter authoringApp="PremierePro">
									<parameterid>level</parameterid>
									<name>Level</name>
									<valuemin>0</valuemin>
									<valuemax>3.98109</valuemax>
									<value>0.251189</value>
									<keyframe>
										<when>60</when>
										<value>0.251189</value>
									</keyframe>
									<keyframe>
										<when>70</when>
										<value>0.258297</value>
									</keyframe>
								</parameter>
							</effect>
						</filter>
						<link>
							<linkclipref>clipitem-630</linkclipref>
							<mediatype>video</mediatype>
							<trackindex>1</trackindex>
							<clipindex>44</clipindex>
						</link>
						<link>
							<linkclipref>clipitem-883</linkclipref>
							<mediatype>audio</mediatype>
							<trackindex>1</trackindex>
							<clipindex>31</clipindex>
							<groupindex>1</groupindex>
						</link>
						<link>
							<linkclipref>clipitem-918</linkclipref>
							<mediatype>audio</mediatype>
							<trackindex>2</trackindex>
							<clipindex>31</clipindex>
							<groupindex>1</groupindex>
						</link>
						<logginginfo>
							<description></description>
							<scene></scene>
							<shottake></shottake>
							<lognote></lognote>
							<good></good>
							<originalvideofilename></originalvideofilename>
							<originalaudiofilename></originalaudiofilename>
						</logginginfo>
						<colorinfo>
							<lut></lut>
							<lut1></lut1>
							<asc_sop></asc_sop>
							<asc_sat></asc_sat>
							<lut2></lut2>
						</colorinfo>
						<labels>
							<label2>Purple</label2>
						</labels>
					</clipitem>
					<clipitem id="clipitem-884" premiereChannelType="stereo">
						<masterclipid>masterclip-244</masterclipid>
						<name>Nested Sequence_470</name>
						<enabled>TRUE</enabled>
						<duration>13650</duration>
						<rate>
							<timebase>25</timebase>
							<ntsc>FALSE</ntsc>
						</rate>
						<start>60522</start>
						<end>61499</end>
						<in>11134</in>
						<out>12111</out>
						<pproTicksIn>113128565760000</pproTicksIn>
						<pproTicksOut>123055511040000</pproTicksOut>
						<sequence id="sequence-36"/>
						<sourcetrack>
							<mediatype>audio</mediatype>
							<trackindex>0</trackindex>
						</sourcetrack>
						<filter>
							<effect>
								<name>Audio Levels</name>
								<effectid>audiolevels</effectid>
								<effectcategory>audiolevels</effectcategory>
								<effecttype>audiolevels</effecttype>
								<mediatype>audio</mediatype>
								<pproBypass>false</pproBypass>
								<parameter authoringApp="PremierePro">
									<parameterid>level</parameterid>
									<name>Level</name>
									<valuemin>0</valuemin>
									<valuemax>3.98109</valuemax>
									<value>0</value>
									<keyframe>
										<when>12</when>
										<value>0</value>
									</keyframe>
									<keyframe>
										<when>13</when>
										<value>0</value>
									</keyframe>
									<keyframe>
										<when>1191</when>
										<value>0</value>
									</keyframe>
									<keyframe>
										<when>1194</when>
										<value>0</value>
									</keyframe>
									<keyframe>
										<when>2032</when>
										<value>0</value>
									</keyframe>
									<keyframe>
										<when>2034</when>
										<value>0</value>
									</keyframe>
									<keyframe>
										<when>2927</when>
										<value>0</value>
									</keyframe>
									<keyframe>
										<when>2929</when>
										<value>0</value>
									</keyframe>
									<keyframe>
										<when>4135</when>
										<value>0</value>
									</keyframe>
									<keyframe>
										<when>4138</when>
										<value>0</value>
									</keyframe>
									<keyframe>
										<when>5292</when>
										<value>0</value>
									</keyframe>
									<keyframe>
										<when>5293</when>
										<value>0</value>
									</keyframe>
									<keyframe>
										<when>6187</when>
										<value>0</value>
									</keyframe>
									<keyframe>
										<when>6188</when>
										<value>0</value>
									</keyframe>
									<keyframe>
										<when>7428</when>
										<value>0</value>
									</keyframe>
									<keyframe>
										<when>7431</when>
										<value>0</value>
									</keyframe>
									<keyframe>
										<when>9047</when>
										<value>0</value>
									</keyframe>
									<keyframe>
										<when>9049</when>
										<value>0</value>
									</keyframe>
									<keyframe>
										<when>10117</when>
										<value>0</value>
									</keyframe>
									<keyframe>
										<when>10119</when>
										<value>0</value>
									</keyframe>
									<keyframe>
										<when>11138</when>
										<value>0</value>
									</keyframe>
									<keyframe>
										<when>11140</when>
										<value>1</value>
									</keyframe>
								</parameter>
							</effect>
						</filter>
						<link>
							<linkclipref>clipitem-631</linkclipref>
							<mediatype>video</mediatype>
							<trackindex>1</trackindex>
							<clipindex>45</clipindex>
						</link>
						<link>
							<linkclipref>clipitem-884</linkclipref>
							<mediatype>audio</mediatype>
							<trackindex>1</trackindex>
							<clipindex>32</clipindex>
							<groupindex>1</groupindex>
						</link>
						<link>
							<linkclipref>clipitem-919</linkclipref>
							<mediatype>audio</mediatype>
							<trackindex>2</trackindex>
							<clipindex>32</clipindex>
							<groupindex>1</groupindex>
						</link>
						<labels>
							<label2>Forest</label2>
						</labels>
					</clipitem>
					<clipitem id="clipitem-885" premiereChannelType="stereo">
						<masterclipid>masterclip-272</masterclipid>
						<name>ХАБИБ_ЯГОДА МАЛИНКА___MSWCLP004296.mov</name>
						<enabled>TRUE</enabled>
						<duration>3670</duration>
						<rate>
							<timebase>25</timebase>
							<ntsc>FALSE</ntsc>
						</rate>
						<start>61574</start>
						<end>65117</end>
						<in>121</in>
						<out>3664</out>
						<pproTicksIn>1229437440000</pproTicksIn>
						<pproTicksOut>37228584960000</pproTicksOut>
						<file id="file-240"/>
						<sourcetrack>
							<mediatype>audio</mediatype>
							<trackindex>1</trackindex>
						</sourcetrack>
						<filter>
							<effect>
								<name>Audio Levels</name>
								<effectid>audiolevels</effectid>
								<effectcategory>audiolevels</effectcategory>
								<effecttype>audiolevels</effecttype>
								<mediatype>audio</mediatype>
								<pproBypass>false</pproBypass>
								<parameter authoringApp="PremierePro">
									<parameterid>level</parameterid>
									<name>Level</name>
									<valuemin>0</valuemin>
									<valuemax>3.98109</valuemax>
									<value>0</value>
									<keyframe>
										<when>136</when>
										<value>0</value>
									</keyframe>
									<keyframe>
										<when>140</when>
										<value>1</value>
									</keyframe>
									<keyframe>
										<when>3656</when>
										<value>1</value>
									</keyframe>
									<keyframe>
										<when>3663</when>
										<value>0.2149</value>
									</keyframe>
								</parameter>
							</effect>
						</filter>
						<link>
							<linkclipref>clipitem-633</linkclipref>
							<mediatype>video</mediatype>
							<trackindex>1</trackindex>
							<clipindex>47</clipindex>
						</link>
						<link>
							<linkclipref>clipitem-885</linkclipref>
							<mediatype>audio</mediatype>
							<trackindex>1</trackindex>
							<clipindex>33</clipindex>
							<groupindex>1</groupindex>
						</link>
						<link>
							<linkclipref>clipitem-920</linkclipref>
							<mediatype>audio</mediatype>
							<trackindex>2</trackindex>
							<clipindex>33</clipindex>
							<groupindex>1</groupindex>
						</link>
						<logginginfo>
							<description></description>
							<scene></scene>
							<shottake></shottake>
							<lognote></lognote>
							<good></good>
							<originalvideofilename></originalvideofilename>
							<originalaudiofilename></originalaudiofilename>
						</logginginfo>
						<colorinfo>
							<lut></lut>
							<lut1></lut1>
							<asc_sop></asc_sop>
							<asc_sat></asc_sat>
							<lut2></lut2>
						</colorinfo>
						<labels>
							<label2>Iris</label2>
						</labels>
					</clipitem>
					<clipitem id="clipitem-886" premiereChannelType="stereo">
						<masterclipid>masterclip-250</masterclipid>
						<name>MYZ_RusskiyChart_OtbivkaMini_h264_v2.mp4</name>
						<enabled>TRUE</enabled>
						<duration>74</duration>
						<rate>
							<timebase>25</timebase>
							<ntsc>FALSE</ntsc>
						</rate>
						<start>65117</start>
						<end>65177</end>
						<in>0</in>
						<out>60</out>
						<pproTicksIn>0</pproTicksIn>
						<pproTicksOut>609638400000</pproTicksOut>
						<file id="file-218"/>
						<sourcetrack>
							<mediatype>audio</mediatype>
							<trackindex>1</trackindex>
						</sourcetrack>
						<filter>
							<effect>
								<name>Audio Levels</name>
								<effectid>audiolevels</effectid>
								<effectcategory>audiolevels</effectcategory>
								<effecttype>audiolevels</effecttype>
								<mediatype>audio</mediatype>
								<pproBypass>false</pproBypass>
								<parameter authoringApp="PremierePro">
									<parameterid>level</parameterid>
									<name>Level</name>
									<valuemin>0</valuemin>
									<valuemax>3.98109</valuemax>
									<value>0.251189</value>
									<keyframe>
										<when>60</when>
										<value>0.251189</value>
									</keyframe>
									<keyframe>
										<when>70</when>
										<value>0.258297</value>
									</keyframe>
								</parameter>
							</effect>
						</filter>
						<link>
							<linkclipref>clipitem-634</linkclipref>
							<mediatype>video</mediatype>
							<trackindex>1</trackindex>
							<clipindex>48</clipindex>
						</link>
						<link>
							<linkclipref>clipitem-886</linkclipref>
							<mediatype>audio</mediatype>
							<trackindex>1</trackindex>
							<clipindex>34</clipindex>
							<groupindex>1</groupindex>
						</link>
						<link>
							<linkclipref>clipitem-921</linkclipref>
							<mediatype>audio</mediatype>
							<trackindex>2</trackindex>
							<clipindex>34</clipindex>
							<groupindex>1</groupindex>
						</link>
						<logginginfo>
							<description></description>
							<scene></scene>
							<shottake></shottake>
							<lognote></lognote>
							<good></good>
							<originalvideofilename></originalvideofilename>
							<originalaudiofilename></originalaudiofilename>
						</logginginfo>
						<colorinfo>
							<lut></lut>
							<lut1></lut1>
							<asc_sop></asc_sop>
							<asc_sat></asc_sat>
							<lut2></lut2>
						</colorinfo>
						<labels>
							<label2>Purple</label2>
						</labels>
					</clipitem>
					<clipitem id="clipitem-887" premiereChannelType="stereo">
						<masterclipid>masterclip-244</masterclipid>
						<name>Nested Sequence_470</name>
						<enabled>TRUE</enabled>
						<duration>13650</duration>
						<rate>
							<timebase>25</timebase>
							<ntsc>FALSE</ntsc>
						</rate>
						<start>65177</start>
						<end>65740</end>
						<in>12135</in>
						<out>12698</out>
						<pproTicksIn>123299366400000</pproTicksIn>
						<pproTicksOut>129019806720000</pproTicksOut>
						<sequence id="sequence-36"/>
						<sourcetrack>
							<mediatype>audio</mediatype>
							<trackindex>0</trackindex>
						</sourcetrack>
						<filter>
							<effect>
								<name>Audio Levels</name>
								<effectid>audiolevels</effectid>
								<effectcategory>audiolevels</effectcategory>
								<effecttype>audiolevels</effecttype>
								<mediatype>audio</mediatype>
								<pproBypass>false</pproBypass>
								<parameter authoringApp="PremierePro">
									<parameterid>level</parameterid>
									<name>Level</name>
									<valuemin>0</valuemin>
									<valuemax>3.98109</valuemax>
									<value>0</value>
									<keyframe>
										<when>12</when>
										<value>0</value>
									</keyframe>
									<keyframe>
										<when>13</when>
										<value>0</value>
									</keyframe>
									<keyframe>
										<when>1191</when>
										<value>0</value>
									</keyframe>
									<keyframe>
										<when>1194</when>
										<value>0</value>
									</keyframe>
									<keyframe>
										<when>2032</when>
										<value>0</value>
									</keyframe>
									<keyframe>
										<when>2034</when>
										<value>0</value>
									</keyframe>
									<keyframe>
										<when>2927</when>
										<value>0</value>
									</keyframe>
									<keyframe>
										<when>2929</when>
										<value>0</value>
									</keyframe>
									<keyframe>
										<when>4135</when>
										<value>0</value>
									</keyframe>
									<keyframe>
										<when>4138</when>
										<value>0</value>
									</keyframe>
									<keyframe>
										<when>5292</when>
										<value>0</value>
									</keyframe>
									<keyframe>
										<when>5293</when>
										<value>0</value>
									</keyframe>
									<keyframe>
										<when>6187</when>
										<value>0</value>
									</keyframe>
									<keyframe>
										<when>6188</when>
										<value>0</value>
									</keyframe>
									<keyframe>
										<when>7428</when>
										<value>0</value>
									</keyframe>
									<keyframe>
										<when>7431</when>
										<value>0</value>
									</keyframe>
									<keyframe>
										<when>9047</when>
										<value>0</value>
									</keyframe>
									<keyframe>
										<when>9049</when>
										<value>0</value>
									</keyframe>
									<keyframe>
										<when>10117</when>
										<value>0</value>
									</keyframe>
									<keyframe>
										<when>10119</when>
										<value>0</value>
									</keyframe>
									<keyframe>
										<when>11138</when>
										<value>0</value>
									</keyframe>
									<keyframe>
										<when>11140</when>
										<value>0</value>
									</keyframe>
									<keyframe>
										<when>12137</when>
										<value>0</value>
									</keyframe>
									<keyframe>
										<when>12138</when>
										<value>1</value>
									</keyframe>
								</parameter>
							</effect>
						</filter>
						<link>
							<linkclipref>clipitem-635</linkclipref>
							<mediatype>video</mediatype>
							<trackindex>1</trackindex>
							<clipindex>49</clipindex>
						</link>
						<link>
							<linkclipref>clipitem-887</linkclipref>
							<mediatype>audio</mediatype>
							<trackindex>1</trackindex>
							<clipindex>35</clipindex>
							<groupindex>1</groupindex>
						</link>
						<link>
							<linkclipref>clipitem-922</linkclipref>
							<mediatype>audio</mediatype>
							<trackindex>2</trackindex>
							<clipindex>35</clipindex>
							<groupindex>1</groupindex>
						</link>
						<labels>
							<label2>Forest</label2>
						</labels>
					</clipitem>
					<enabled>TRUE</enabled>
					<locked>FALSE</locked>
					<outputchannelindex>1</outputchannelindex>
				</track>
				<track TL.SQTrackAudioKeyframeStyle="0" TL.SQTrackShy="0" TL.SQTrackExpandedHeight="105" TL.SQTrackExpanded="0" MZ.TrackTargeted="0" PannerCurrentValue="0.5" PannerIsInverted="true" PannerStartKeyframe="-91445760000000000,0.5,0,0,0,0,0,0" PannerName="Balance" currentExplodedTrackIndex="1" totalExplodedTrackCount="2" premiereTrackType="Stereo">
					<clipitem id="clipitem-888" premiereChannelType="stereo">
						<masterclipid>masterclip-243</masterclipid>
						<name>MYZ_RusskiyChart_appProRes_v2.mov</name>
						<enabled>TRUE</enabled>
						<duration>299</duration>
						<rate>
							<timebase>25</timebase>
							<ntsc>FALSE</ntsc>
						</rate>
						<start>0</start>
						<end>274</end>
						<in>0</in>
						<out>274</out>
						<pproTicksIn>0</pproTicksIn>
						<pproTicksOut>2784015360000</pproTicksOut>
						<file id="file-212"/>
						<sourcetrack>
							<mediatype>audio</mediatype>
							<trackindex>2</trackindex>
						</sourcetrack>
						<filter>
							<effect>
								<name>Audio Levels</name>
								<effectid>audiolevels</effectid>
								<effectcategory>audiolevels</effectcategory>
								<effecttype>audiolevels</effecttype>
								<mediatype>audio</mediatype>
								<pproBypass>false</pproBypass>
								<parameter authoringApp="PremierePro">
									<parameterid>level</parameterid>
									<name>Level</name>
									<valuemin>0</valuemin>
									<valuemax>3.98109</valuemax>
									<value>0.158489</value>
									<keyframe>
										<when>262</when>
										<value>0.158489</value>
									</keyframe>
									<keyframe>
										<when>272</when>
										<value>0</value>
									</keyframe>
								</parameter>
							</effect>
						</filter>
						<link>
							<linkclipref>clipitem-584</linkclipref>
							<mediatype>video</mediatype>
							<trackindex>1</trackindex>
							<clipindex>1</clipindex>
						</link>
						<link>
							<linkclipref>clipitem-853</linkclipref>
							<mediatype>audio</mediatype>
							<trackindex>1</trackindex>
							<clipindex>1</clipindex>
							<groupindex>1</groupindex>
						</link>
						<link>
							<linkclipref>clipitem-888</linkclipref>
							<mediatype>audio</mediatype>
							<trackindex>2</trackindex>
							<clipindex>1</clipindex>
							<groupindex>1</groupindex>
						</link>
						<logginginfo>
							<description></description>
							<scene></scene>
							<shottake></shottake>
							<lognote></lognote>
							<good></good>
							<originalvideofilename></originalvideofilename>
							<originalaudiofilename></originalaudiofilename>
						</logginginfo>
						<colorinfo>
							<lut></lut>
							<lut1></lut1>
							<asc_sop></asc_sop>
							<asc_sat></asc_sat>
							<lut2></lut2>
						</colorinfo>
						<labels>
							<label2>Iris</label2>
						</labels>
					</clipitem>
					<clipitem id="clipitem-889" premiereChannelType="stereo">
						<masterclipid>masterclip-244</masterclipid>
						<name>Nested Sequence_470</name>
						<enabled>TRUE</enabled>
						<duration>13650</duration>
						<rate>
							<timebase>25</timebase>
							<ntsc>FALSE</ntsc>
						</rate>
						<start>274</start>
						<end>1402</end>
						<in>8</in>
						<out>1136</out>
						<pproTicksIn>81285120000</pproTicksIn>
						<pproTicksOut>11542487040000</pproTicksOut>
						<sequence id="sequence-36"/>
						<sourcetrack>
							<mediatype>audio</mediatype>
							<trackindex>1</trackindex>
						</sourcetrack>
						<filter>
							<effect>
								<name>Audio Levels</name>
								<effectid>audiolevels</effectid>
								<effectcategory>audiolevels</effectcategory>
								<effecttype>audiolevels</effecttype>
								<mediatype>audio</mediatype>
								<pproBypass>false</pproBypass>
								<parameter authoringApp="PremierePro">
									<parameterid>level</parameterid>
									<name>Level</name>
									<valuemin>0</valuemin>
									<valuemax>3.98109</valuemax>
									<value>0</value>
									<keyframe>
										<when>12</when>
										<value>0</value>
									</keyframe>
									<keyframe>
										<when>13</when>
										<value>1</value>
									</keyframe>
								</parameter>
							</effect>
						</filter>
						<link>
							<linkclipref>clipitem-585</linkclipref>
							<mediatype>video</mediatype>
							<trackindex>1</trackindex>
							<clipindex>2</clipindex>
						</link>
						<link>
							<linkclipref>clipitem-854</linkclipref>
							<mediatype>audio</mediatype>
							<trackindex>1</trackindex>
							<clipindex>2</clipindex>
							<groupindex>1</groupindex>
						</link>
						<link>
							<linkclipref>clipitem-889</linkclipref>
							<mediatype>audio</mediatype>
							<trackindex>2</trackindex>
							<clipindex>2</clipindex>
							<groupindex>1</groupindex>
						</link>
						<labels>
							<label2>Forest</label2>
						</labels>
					</clipitem>
					<clipitem id="clipitem-890" premiereChannelType="stereo">
						<masterclipid>masterclip-247</masterclipid>
						<name>ЛЮСЯ ЧЕБОТИНА_СОЛНЦЕ МОНАКО___MSWCLP004812.mov</name>
						<enabled>TRUE</enabled>
						<duration>7794</duration>
						<rate>
							<timebase>25</timebase>
							<ntsc>FALSE</ntsc>
						</rate>
						<start>1477</start>
						<end>5171</end>
						<in>170</in>
						<out>3864</out>
						<pproTicksIn>1727308800000</pproTicksIn>
						<pproTicksOut>39260712960000</pproTicksOut>
						<file id="file-215"/>
						<sourcetrack>
							<mediatype>audio</mediatype>
							<trackindex>2</trackindex>
						</sourcetrack>
						<filter>
							<effect>
								<name>Audio Levels</name>
								<effectid>audiolevels</effectid>
								<effectcategory>audiolevels</effectcategory>
								<effecttype>audiolevels</effecttype>
								<mediatype>audio</mediatype>
								<pproBypass>false</pproBypass>
								<parameter authoringApp="PremierePro">
									<parameterid>level</parameterid>
									<name>Level</name>
									<valuemin>0</valuemin>
									<valuemax>3.98109</valuemax>
									<value>0</value>
									<keyframe>
										<when>171</when>
										<value>0</value>
									</keyframe>
									<keyframe>
										<when>175</when>
										<value>1</value>
									</keyframe>
									<keyframe>
										<when>3826</when>
										<value>1</value>
									</keyframe>
									<keyframe>
										<when>3864</when>
										<value>0.000960128</value>
									</keyframe>
								</parameter>
							</effect>
						</filter>
						<link>
							<linkclipref>clipitem-590</linkclipref>
							<mediatype>video</mediatype>
							<trackindex>1</trackindex>
							<clipindex>4</clipindex>
						</link>
						<link>
							<linkclipref>clipitem-855</linkclipref>
							<mediatype>audio</mediatype>
							<trackindex>1</trackindex>
							<clipindex>3</clipindex>
							<groupindex>1</groupindex>
						</link>
						<link>
							<linkclipref>clipitem-890</linkclipref>
							<mediatype>audio</mediatype>
							<trackindex>2</trackindex>
							<clipindex>3</clipindex>
							<groupindex>1</groupindex>
						</link>
						<logginginfo>
							<description></description>
							<scene></scene>
							<shottake></shottake>
							<lognote></lognote>
							<good></good>
							<originalvideofilename></originalvideofilename>
							<originalaudiofilename></originalaudiofilename>
						</logginginfo>
						<colorinfo>
							<lut></lut>
							<lut1></lut1>
							<asc_sop></asc_sop>
							<asc_sat></asc_sat>
							<lut2></lut2>
						</colorinfo>
						<labels>
							<label2>Iris</label2>
						</labels>
					</clipitem>
					<clipitem id="clipitem-891" premiereChannelType="stereo">
						<masterclipid>masterclip-249</masterclipid>
						<name>ВАНЯ ДМИТРИЕНКО_ВЕНЕРА-ЮПИТЕР___MSWCLP004350.mov</name>
						<enabled>TRUE</enabled>
						<duration>3281</duration>
						<rate>
							<timebase>25</timebase>
							<ntsc>FALSE</ntsc>
						</rate>
						<start>5246</start>
						<end>8365</end>
						<in>148</in>
						<out>3267</out>
						<pproTicksIn>1503774720000</pproTicksIn>
						<pproTicksOut>33194810880000</pproTicksOut>
						<file id="file-217"/>
						<sourcetrack>
							<mediatype>audio</mediatype>
							<trackindex>2</trackindex>
						</sourcetrack>
						<filter>
							<effect>
								<name>Audio Levels</name>
								<effectid>audiolevels</effectid>
								<effectcategory>audiolevels</effectcategory>
								<effecttype>audiolevels</effecttype>
								<mediatype>audio</mediatype>
								<pproBypass>false</pproBypass>
								<parameter authoringApp="PremierePro">
									<parameterid>level</parameterid>
									<name>Level</name>
									<valuemin>0</valuemin>
									<valuemax>3.98109</valuemax>
									<value>0</value>
									<keyframe>
										<when>157</when>
										<value>0</value>
									</keyframe>
									<keyframe>
										<when>167</when>
										<value>1</value>
									</keyframe>
									<keyframe>
										<when>3262</when>
										<value>1</value>
									</keyframe>
									<keyframe>
										<when>3266</when>
										<value>0.276174</value>
									</keyframe>
								</parameter>
							</effect>
						</filter>
						<link>
							<linkclipref>clipitem-592</linkclipref>
							<mediatype>video</mediatype>
							<trackindex>1</trackindex>
							<clipindex>6</clipindex>
						</link>
						<link>
							<linkclipref>clipitem-856</linkclipref>
							<mediatype>audio</mediatype>
							<trackindex>1</trackindex>
							<clipindex>4</clipindex>
							<groupindex>1</groupindex>
						</link>
						<link>
							<linkclipref>clipitem-891</linkclipref>
							<mediatype>audio</mediatype>
							<trackindex>2</trackindex>
							<clipindex>4</clipindex>
							<groupindex>1</groupindex>
						</link>
						<logginginfo>
							<description></description>
							<scene></scene>
							<shottake></shottake>
							<lognote></lognote>
							<good></good>
							<originalvideofilename></originalvideofilename>
							<originalaudiofilename></originalaudiofilename>
						</logginginfo>
						<colorinfo>
							<lut></lut>
							<lut1></lut1>
							<asc_sop></asc_sop>
							<asc_sat></asc_sat>
							<lut2></lut2>
						</colorinfo>
						<labels>
							<label2>Iris</label2>
						</labels>
					</clipitem>
					<clipitem id="clipitem-892" premiereChannelType="stereo">
						<masterclipid>masterclip-250</masterclipid>
						<name>MYZ_RusskiyChart_OtbivkaMini_h264_v2.mp4</name>
						<enabled>TRUE</enabled>
						<duration>74</duration>
						<rate>
							<timebase>25</timebase>
							<ntsc>FALSE</ntsc>
						</rate>
						<start>8365</start>
						<end>8425</end>
						<in>0</in>
						<out>60</out>
						<pproTicksIn>0</pproTicksIn>
						<pproTicksOut>609638400000</pproTicksOut>
						<file id="file-218"/>
						<sourcetrack>
							<mediatype>audio</mediatype>
							<trackindex>2</trackindex>
						</sourcetrack>
						<filter>
							<effect>
								<name>Audio Levels</name>
								<effectid>audiolevels</effectid>
								<effectcategory>audiolevels</effectcategory>
								<effecttype>audiolevels</effecttype>
								<mediatype>audio</mediatype>
								<pproBypass>false</pproBypass>
								<parameter authoringApp="PremierePro">
									<parameterid>level</parameterid>
									<name>Level</name>
									<valuemin>0</valuemin>
									<valuemax>3.98109</valuemax>
									<value>0.251189</value>
									<keyframe>
										<when>60</when>
										<value>0.251189</value>
									</keyframe>
									<keyframe>
										<when>70</when>
										<value>0.258297</value>
									</keyframe>
								</parameter>
							</effect>
						</filter>
						<link>
							<linkclipref>clipitem-594</linkclipref>
							<mediatype>video</mediatype>
							<trackindex>1</trackindex>
							<clipindex>8</clipindex>
						</link>
						<link>
							<linkclipref>clipitem-857</linkclipref>
							<mediatype>audio</mediatype>
							<trackindex>1</trackindex>
							<clipindex>5</clipindex>
							<groupindex>1</groupindex>
						</link>
						<link>
							<linkclipref>clipitem-892</linkclipref>
							<mediatype>audio</mediatype>
							<trackindex>2</trackindex>
							<clipindex>5</clipindex>
							<groupindex>1</groupindex>
						</link>
						<logginginfo>
							<description></description>
							<scene></scene>
							<shottake></shottake>
							<lognote></lognote>
							<good></good>
							<originalvideofilename></originalvideofilename>
							<originalaudiofilename></originalaudiofilename>
						</logginginfo>
						<colorinfo>
							<lut></lut>
							<lut1></lut1>
							<asc_sop></asc_sop>
							<asc_sat></asc_sat>
							<lut2></lut2>
						</colorinfo>
						<labels>
							<label2>Purple</label2>
						</labels>
					</clipitem>
					<clipitem id="clipitem-893" premiereChannelType="stereo">
						<masterclipid>masterclip-244</masterclipid>
						<name>Nested Sequence_470</name>
						<enabled>TRUE</enabled>
						<duration>13650</duration>
						<rate>
							<timebase>25</timebase>
							<ntsc>FALSE</ntsc>
						</rate>
						<start>8425</start>
						<end>9247</end>
						<in>1188</in>
						<out>2010</out>
						<pproTicksIn>12070840320000</pproTicksIn>
						<pproTicksOut>20422886400000</pproTicksOut>
						<sequence id="sequence-36"/>
						<sourcetrack>
							<mediatype>audio</mediatype>
							<trackindex>1</trackindex>
						</sourcetrack>
						<filter>
							<effect>
								<name>Audio Levels</name>
								<effectid>audiolevels</effectid>
								<effectcategory>audiolevels</effectcategory>
								<effecttype>audiolevels</effecttype>
								<mediatype>audio</mediatype>
								<pproBypass>false</pproBypass>
								<parameter authoringApp="PremierePro">
									<parameterid>level</parameterid>
									<name>Level</name>
									<valuemin>0</valuemin>
									<valuemax>3.98109</valuemax>
									<value>0</value>
									<keyframe>
										<when>12</when>
										<value>0</value>
									</keyframe>
									<keyframe>
										<when>13</when>
										<value>0</value>
									</keyframe>
									<keyframe>
										<when>1191</when>
										<value>0</value>
									</keyframe>
									<keyframe>
										<when>1194</when>
										<value>1</value>
									</keyframe>
								</parameter>
							</effect>
						</filter>
						<link>
							<linkclipref>clipitem-595</linkclipref>
							<mediatype>video</mediatype>
							<trackindex>1</trackindex>
							<clipindex>9</clipindex>
						</link>
						<link>
							<linkclipref>clipitem-858</linkclipref>
							<mediatype>audio</mediatype>
							<trackindex>1</trackindex>
							<clipindex>6</clipindex>
							<groupindex>1</groupindex>
						</link>
						<link>
							<linkclipref>clipitem-893</linkclipref>
							<mediatype>audio</mediatype>
							<trackindex>2</trackindex>
							<clipindex>6</clipindex>
							<groupindex>1</groupindex>
						</link>
						<labels>
							<label2>Forest</label2>
						</labels>
					</clipitem>
					<clipitem id="clipitem-894" premiereChannelType="stereo">
						<masterclipid>masterclip-252</masterclipid>
						<name>GUMA_СТЕКЛЯННАЯ___MSWCLP004707.mov</name>
						<enabled>TRUE</enabled>
						<duration>4102</duration>
						<rate>
							<timebase>25</timebase>
							<ntsc>FALSE</ntsc>
						</rate>
						<start>9322</start>
						<end>13261</end>
						<in>163</in>
						<out>4102</out>
						<pproTicksIn>1656184320000</pproTicksIn>
						<pproTicksOut>41678945280000</pproTicksOut>
						<file id="file-220"/>
						<sourcetrack>
							<mediatype>audio</mediatype>
							<trackindex>2</trackindex>
						</sourcetrack>
						<filter>
							<effect>
								<name>Audio Levels</name>
								<effectid>audiolevels</effectid>
								<effectcategory>audiolevels</effectcategory>
								<effecttype>audiolevels</effecttype>
								<mediatype>audio</mediatype>
								<pproBypass>false</pproBypass>
								<parameter authoringApp="PremierePro">
									<parameterid>level</parameterid>
									<name>Level</name>
									<valuemin>0</valuemin>
									<valuemax>3.98109</valuemax>
									<value>0.161989</value>
									<keyframe>
										<when>163</when>
										<value>0.161989</value>
									</keyframe>
									<keyframe>
										<when>183</when>
										<value>1</value>
									</keyframe>
								</parameter>
							</effect>
						</filter>
						<link>
							<linkclipref>clipitem-597</linkclipref>
							<mediatype>video</mediatype>
							<trackindex>1</trackindex>
							<clipindex>11</clipindex>
						</link>
						<link>
							<linkclipref>clipitem-859</linkclipref>
							<mediatype>audio</mediatype>
							<trackindex>1</trackindex>
							<clipindex>7</clipindex>
							<groupindex>1</groupindex>
						</link>
						<link>
							<linkclipref>clipitem-894</linkclipref>
							<mediatype>audio</mediatype>
							<trackindex>2</trackindex>
							<clipindex>7</clipindex>
							<groupindex>1</groupindex>
						</link>
						<logginginfo>
							<description></description>
							<scene></scene>
							<shottake></shottake>
							<lognote></lognote>
							<good></good>
							<originalvideofilename></originalvideofilename>
							<originalaudiofilename></originalaudiofilename>
						</logginginfo>
						<colorinfo>
							<lut></lut>
							<lut1></lut1>
							<asc_sop></asc_sop>
							<asc_sat></asc_sat>
							<lut2></lut2>
						</colorinfo>
						<labels>
							<label2>Iris</label2>
						</labels>
					</clipitem>
					<clipitem id="clipitem-895" premiereChannelType="stereo">
						<masterclipid>masterclip-250</masterclipid>
						<name>MYZ_RusskiyChart_OtbivkaMini_h264_v2.mp4</name>
						<enabled>TRUE</enabled>
						<duration>74</duration>
						<rate>
							<timebase>25</timebase>
							<ntsc>FALSE</ntsc>
						</rate>
						<start>13261</start>
						<end>13321</end>
						<in>0</in>
						<out>60</out>
						<pproTicksIn>0</pproTicksIn>
						<pproTicksOut>609638400000</pproTicksOut>
						<file id="file-218"/>
						<sourcetrack>
							<mediatype>audio</mediatype>
							<trackindex>2</trackindex>
						</sourcetrack>
						<filter>
							<effect>
								<name>Audio Levels</name>
								<effectid>audiolevels</effectid>
								<effectcategory>audiolevels</effectcategory>
								<effecttype>audiolevels</effecttype>
								<mediatype>audio</mediatype>
								<pproBypass>false</pproBypass>
								<parameter authoringApp="PremierePro">
									<parameterid>level</parameterid>
									<name>Level</name>
									<valuemin>0</valuemin>
									<valuemax>3.98109</valuemax>
									<value>0.251189</value>
									<keyframe>
										<when>60</when>
										<value>0.251189</value>
									</keyframe>
									<keyframe>
										<when>70</when>
										<value>0.258297</value>
									</keyframe>
								</parameter>
							</effect>
						</filter>
						<link>
							<linkclipref>clipitem-598</linkclipref>
							<mediatype>video</mediatype>
							<trackindex>1</trackindex>
							<clipindex>12</clipindex>
						</link>
						<link>
							<linkclipref>clipitem-860</linkclipref>
							<mediatype>audio</mediatype>
							<trackindex>1</trackindex>
							<clipindex>8</clipindex>
							<groupindex>1</groupindex>
						</link>
						<link>
							<linkclipref>clipitem-895</linkclipref>
							<mediatype>audio</mediatype>
							<trackindex>2</trackindex>
							<clipindex>8</clipindex>
							<groupindex>1</groupindex>
						</link>
						<logginginfo>
							<description></description>
							<scene></scene>
							<shottake></shottake>
							<lognote></lognote>
							<good></good>
							<originalvideofilename></originalvideofilename>
							<originalaudiofilename></originalaudiofilename>
						</logginginfo>
						<colorinfo>
							<lut></lut>
							<lut1></lut1>
							<asc_sop></asc_sop>
							<asc_sat></asc_sat>
							<lut2></lut2>
						</colorinfo>
						<labels>
							<label2>Purple</label2>
						</labels>
					</clipitem>
					<clipitem id="clipitem-896" premiereChannelType="stereo">
						<masterclipid>masterclip-244</masterclipid>
						<name>Nested Sequence_470</name>
						<enabled>TRUE</enabled>
						<duration>13650</duration>
						<rate>
							<timebase>25</timebase>
							<ntsc>FALSE</ntsc>
						</rate>
						<start>13321</start>
						<end>14193</end>
						<in>2029</in>
						<out>2901</out>
						<pproTicksIn>20615938560000</pproTicksIn>
						<pproTicksOut>29476016640000</pproTicksOut>
						<sequence id="sequence-36"/>
						<sourcetrack>
							<mediatype>audio</mediatype>
							<trackindex>1</trackindex>
						</sourcetrack>
						<filter>
							<effect>
								<name>Audio Levels</name>
								<effectid>audiolevels</effectid>
								<effectcategory>audiolevels</effectcategory>
								<effecttype>audiolevels</effecttype>
								<mediatype>audio</mediatype>
								<pproBypass>false</pproBypass>
								<parameter authoringApp="PremierePro">
									<parameterid>level</parameterid>
									<name>Level</name>
									<valuemin>0</valuemin>
									<valuemax>3.98109</valuemax>
									<value>0</value>
									<keyframe>
										<when>12</when>
										<value>0</value>
									</keyframe>
									<keyframe>
										<when>13</when>
										<value>0</value>
									</keyframe>
									<keyframe>
										<when>1191</when>
										<value>0</value>
									</keyframe>
									<keyframe>
										<when>1194</when>
										<value>0</value>
									</keyframe>
									<keyframe>
										<when>2032</when>
										<value>0</value>
									</keyframe>
									<keyframe>
										<when>2034</when>
										<value>1</value>
									</keyframe>
								</parameter>
							</effect>
						</filter>
						<link>
							<linkclipref>clipitem-599</linkclipref>
							<mediatype>video</mediatype>
							<trackindex>1</trackindex>
							<clipindex>13</clipindex>
						</link>
						<link>
							<linkclipref>clipitem-861</linkclipref>
							<mediatype>audio</mediatype>
							<trackindex>1</trackindex>
							<clipindex>9</clipindex>
							<groupindex>1</groupindex>
						</link>
						<link>
							<linkclipref>clipitem-896</linkclipref>
							<mediatype>audio</mediatype>
							<trackindex>2</trackindex>
							<clipindex>9</clipindex>
							<groupindex>1</groupindex>
						</link>
						<labels>
							<label2>Forest</label2>
						</labels>
					</clipitem>
					<clipitem id="clipitem-897" premiereChannelType="stereo">
						<masterclipid>masterclip-254</masterclipid>
						<name>FILATOV &amp; KARAS vs МУМИЙ ТРОЛЛЬ_AMORE МОРЕ, GOODBYE___MSWCLP004662.mov</name>
						<enabled>TRUE</enabled>
						<duration>3313</duration>
						<rate>
							<timebase>25</timebase>
							<ntsc>FALSE</ntsc>
						</rate>
						<start>14268</start>
						<end>17521</end>
						<in>0</in>
						<out>3253</out>
						<pproTicksIn>0</pproTicksIn>
						<pproTicksOut>33052561920000</pproTicksOut>
						<file id="file-222"/>
						<sourcetrack>
							<mediatype>audio</mediatype>
							<trackindex>2</trackindex>
						</sourcetrack>
						<filter>
							<effect>
								<name>Audio Levels</name>
								<effectid>audiolevels</effectid>
								<effectcategory>audiolevels</effectcategory>
								<effecttype>audiolevels</effecttype>
								<mediatype>audio</mediatype>
								<pproBypass>false</pproBypass>
								<parameter authoringApp="PremierePro">
									<parameterid>level</parameterid>
									<name>Level</name>
									<valuemin>0</valuemin>
									<valuemax>3.98109</valuemax>
									<value>1</value>
									<keyframe>
										<when>3234</when>
										<value>1</value>
									</keyframe>
									<keyframe>
										<when>3248</when>
										<value>0</value>
									</keyframe>
								</parameter>
							</effect>
						</filter>
						<link>
							<linkclipref>clipitem-601</linkclipref>
							<mediatype>video</mediatype>
							<trackindex>1</trackindex>
							<clipindex>15</clipindex>
						</link>
						<link>
							<linkclipref>clipitem-862</linkclipref>
							<mediatype>audio</mediatype>
							<trackindex>1</trackindex>
							<clipindex>10</clipindex>
							<groupindex>1</groupindex>
						</link>
						<link>
							<linkclipref>clipitem-897</linkclipref>
							<mediatype>audio</mediatype>
							<trackindex>2</trackindex>
							<clipindex>10</clipindex>
							<groupindex>1</groupindex>
						</link>
						<logginginfo>
							<description></description>
							<scene></scene>
							<shottake></shottake>
							<lognote></lognote>
							<good></good>
							<originalvideofilename></originalvideofilename>
							<originalaudiofilename></originalaudiofilename>
						</logginginfo>
						<colorinfo>
							<lut></lut>
							<lut1></lut1>
							<asc_sop></asc_sop>
							<asc_sat></asc_sat>
							<lut2></lut2>
						</colorinfo>
						<labels>
							<label2>Iris</label2>
						</labels>
					</clipitem>
					<clipitem id="clipitem-898" premiereChannelType="stereo">
						<masterclipid>masterclip-250</masterclipid>
						<name>MYZ_RusskiyChart_OtbivkaMini_h264_v2.mp4</name>
						<enabled>TRUE</enabled>
						<duration>74</duration>
						<rate>
							<timebase>25</timebase>
							<ntsc>FALSE</ntsc>
						</rate>
						<start>17521</start>
						<end>17581</end>
						<in>0</in>
						<out>60</out>
						<pproTicksIn>0</pproTicksIn>
						<pproTicksOut>609638400000</pproTicksOut>
						<file id="file-218"/>
						<sourcetrack>
							<mediatype>audio</mediatype>
							<trackindex>2</trackindex>
						</sourcetrack>
						<filter>
							<effect>
								<name>Audio Levels</name>
								<effectid>audiolevels</effectid>
								<effectcategory>audiolevels</effectcategory>
								<effecttype>audiolevels</effecttype>
								<mediatype>audio</mediatype>
								<pproBypass>false</pproBypass>
								<parameter authoringApp="PremierePro">
									<parameterid>level</parameterid>
									<name>Level</name>
									<valuemin>0</valuemin>
									<valuemax>3.98109</valuemax>
									<value>0.251189</value>
									<keyframe>
										<when>60</when>
										<value>0.251189</value>
									</keyframe>
									<keyframe>
										<when>70</when>
										<value>0.258297</value>
									</keyframe>
								</parameter>
							</effect>
						</filter>
						<link>
							<linkclipref>clipitem-602</linkclipref>
							<mediatype>video</mediatype>
							<trackindex>1</trackindex>
							<clipindex>16</clipindex>
						</link>
						<link>
							<linkclipref>clipitem-863</linkclipref>
							<mediatype>audio</mediatype>
							<trackindex>1</trackindex>
							<clipindex>11</clipindex>
							<groupindex>1</groupindex>
						</link>
						<link>
							<linkclipref>clipitem-898</linkclipref>
							<mediatype>audio</mediatype>
							<trackindex>2</trackindex>
							<clipindex>11</clipindex>
							<groupindex>1</groupindex>
						</link>
						<logginginfo>
							<description></description>
							<scene></scene>
							<shottake></shottake>
							<lognote></lognote>
							<good></good>
							<originalvideofilename></originalvideofilename>
							<originalaudiofilename></originalaudiofilename>
						</logginginfo>
						<colorinfo>
							<lut></lut>
							<lut1></lut1>
							<asc_sop></asc_sop>
							<asc_sat></asc_sat>
							<lut2></lut2>
						</colorinfo>
						<labels>
							<label2>Purple</label2>
						</labels>
					</clipitem>
					<clipitem id="clipitem-899" premiereChannelType="stereo">
						<masterclipid>masterclip-244</masterclipid>
						<name>Nested Sequence_470</name>
						<enabled>TRUE</enabled>
						<duration>13650</duration>
						<rate>
							<timebase>25</timebase>
							<ntsc>FALSE</ntsc>
						</rate>
						<start>17581</start>
						<end>18743</end>
						<in>2922</in>
						<out>4084</out>
						<pproTicksIn>29689390080000</pproTicksIn>
						<pproTicksOut>41496053760000</pproTicksOut>
						<sequence id="sequence-36"/>
						<sourcetrack>
							<mediatype>audio</mediatype>
							<trackindex>1</trackindex>
						</sourcetrack>
						<filter>
							<effect>
								<name>Audio Levels</name>
								<effectid>audiolevels</effectid>
								<effectcategory>audiolevels</effectcategory>
								<effecttype>audiolevels</effecttype>
								<mediatype>audio</mediatype>
								<pproBypass>false</pproBypass>
								<parameter authoringApp="PremierePro">
									<parameterid>level</parameterid>
									<name>Level</name>
									<valuemin>0</valuemin>
									<valuemax>3.98109</valuemax>
									<value>0</value>
									<keyframe>
										<when>12</when>
										<value>0</value>
									</keyframe>
									<keyframe>
										<when>13</when>
										<value>0</value>
									</keyframe>
									<keyframe>
										<when>1191</when>
										<value>0</value>
									</keyframe>
									<keyframe>
										<when>1194</when>
										<value>0</value>
									</keyframe>
									<keyframe>
										<when>2032</when>
										<value>0</value>
									</keyframe>
									<keyframe>
										<when>2034</when>
										<value>0</value>
									</keyframe>
									<keyframe>
										<when>2927</when>
										<value>0</value>
									</keyframe>
									<keyframe>
										<when>2929</when>
										<value>1</value>
									</keyframe>
								</parameter>
							</effect>
						</filter>
						<link>
							<linkclipref>clipitem-603</linkclipref>
							<mediatype>video</mediatype>
							<trackindex>1</trackindex>
							<clipindex>17</clipindex>
						</link>
						<link>
							<linkclipref>clipitem-864</linkclipref>
							<mediatype>audio</mediatype>
							<trackindex>1</trackindex>
							<clipindex>12</clipindex>
							<groupindex>1</groupindex>
						</link>
						<link>
							<linkclipref>clipitem-899</linkclipref>
							<mediatype>audio</mediatype>
							<trackindex>2</trackindex>
							<clipindex>12</clipindex>
							<groupindex>1</groupindex>
						</link>
						<labels>
							<label2>Forest</label2>
						</labels>
					</clipitem>
					<clipitem id="clipitem-900" premiereChannelType="stereo">
						<masterclipid>masterclip-256</masterclipid>
						<name>DABRO_НА ЧАСАХ НОЛЬ-НОЛЬ___MSWCLP004492.mov</name>
						<enabled>TRUE</enabled>
						<duration>5559</duration>
						<rate>
							<timebase>25</timebase>
							<ntsc>FALSE</ntsc>
						</rate>
						<start>18807</start>
						<end>23890</end>
						<in>476</in>
						<out>5559</out>
						<pproTicksIn>4836464640000</pproTicksIn>
						<pproTicksOut>56482997760000</pproTicksOut>
						<file id="file-224"/>
						<sourcetrack>
							<mediatype>audio</mediatype>
							<trackindex>2</trackindex>
						</sourcetrack>
						<filter>
							<effect>
								<name>Audio Levels</name>
								<effectid>audiolevels</effectid>
								<effectcategory>audiolevels</effectcategory>
								<effecttype>audiolevels</effecttype>
								<mediatype>audio</mediatype>
								<pproBypass>false</pproBypass>
								<parameter authoringApp="PremierePro">
									<parameterid>level</parameterid>
									<name>Level</name>
									<valuemin>0</valuemin>
									<valuemax>3.98109</valuemax>
									<value>1</value>
								</parameter>
							</effect>
						</filter>
						<link>
							<linkclipref>clipitem-605</linkclipref>
							<mediatype>video</mediatype>
							<trackindex>1</trackindex>
							<clipindex>19</clipindex>
						</link>
						<link>
							<linkclipref>clipitem-865</linkclipref>
							<mediatype>audio</mediatype>
							<trackindex>1</trackindex>
							<clipindex>13</clipindex>
							<groupindex>1</groupindex>
						</link>
						<link>
							<linkclipref>clipitem-900</linkclipref>
							<mediatype>audio</mediatype>
							<trackindex>2</trackindex>
							<clipindex>13</clipindex>
							<groupindex>1</groupindex>
						</link>
						<logginginfo>
							<description></description>
							<scene></scene>
							<shottake></shottake>
							<lognote></lognote>
							<good></good>
							<originalvideofilename></originalvideofilename>
							<originalaudiofilename></originalaudiofilename>
						</logginginfo>
						<colorinfo>
							<lut></lut>
							<lut1></lut1>
							<asc_sop></asc_sop>
							<asc_sat></asc_sat>
							<lut2></lut2>
						</colorinfo>
						<labels>
							<label2>Iris</label2>
						</labels>
					</clipitem>
					<clipitem id="clipitem-901" premiereChannelType="stereo">
						<masterclipid>masterclip-258</masterclipid>
						<name>БАСТА_ТЫ БЫЛА ПРАВА___MSWCLP004606.mov</name>
						<enabled>TRUE</enabled>
						<duration>2977</duration>
						<rate>
							<timebase>25</timebase>
							<ntsc>FALSE</ntsc>
						</rate>
						<start>23930</start>
						<end>26757</end>
						<in>134</in>
						<out>2961</out>
						<pproTicksIn>1361525760000</pproTicksIn>
						<pproTicksOut>30085655040000</pproTicksOut>
						<file id="file-226"/>
						<sourcetrack>
							<mediatype>audio</mediatype>
							<trackindex>2</trackindex>
						</sourcetrack>
						<filter>
							<effect>
								<name>Audio Levels</name>
								<effectid>audiolevels</effectid>
								<effectcategory>audiolevels</effectcategory>
								<effecttype>audiolevels</effecttype>
								<mediatype>audio</mediatype>
								<pproBypass>false</pproBypass>
								<parameter authoringApp="PremierePro">
									<parameterid>level</parameterid>
									<name>Level</name>
									<valuemin>0</valuemin>
									<valuemax>3.98109</valuemax>
									<value>0</value>
									<keyframe>
										<when>4</when>
										<value>0.161989</value>
									</keyframe>
									<keyframe>
										<when>35</when>
										<value>0</value>
									</keyframe>
									<keyframe>
										<when>165</when>
										<value>0</value>
									</keyframe>
									<keyframe>
										<when>169</when>
										<value>1</value>
									</keyframe>
									<keyframe>
										<when>2946</when>
										<value>1</value>
									</keyframe>
									<keyframe>
										<when>2955</when>
										<value>0</value>
									</keyframe>
								</parameter>
							</effect>
						</filter>
						<link>
							<linkclipref>clipitem-607</linkclipref>
							<mediatype>video</mediatype>
							<trackindex>1</trackindex>
							<clipindex>21</clipindex>
						</link>
						<link>
							<linkclipref>clipitem-866</linkclipref>
							<mediatype>audio</mediatype>
							<trackindex>1</trackindex>
							<clipindex>14</clipindex>
							<groupindex>1</groupindex>
						</link>
						<link>
							<linkclipref>clipitem-901</linkclipref>
							<mediatype>audio</mediatype>
							<trackindex>2</trackindex>
							<clipindex>14</clipindex>
							<groupindex>1</groupindex>
						</link>
						<logginginfo>
							<description></description>
							<scene></scene>
							<shottake></shottake>
							<lognote></lognote>
							<good></good>
							<originalvideofilename></originalvideofilename>
							<originalaudiofilename></originalaudiofilename>
						</logginginfo>
						<colorinfo>
							<lut></lut>
							<lut1></lut1>
							<asc_sop></asc_sop>
							<asc_sat></asc_sat>
							<lut2></lut2>
						</colorinfo>
						<labels>
							<label2>Iris</label2>
						</labels>
					</clipitem>
					<clipitem id="clipitem-902" premiereChannelType="stereo">
						<masterclipid>masterclip-250</masterclipid>
						<name>MYZ_RusskiyChart_OtbivkaMini_h264_v2.mp4</name>
						<enabled>TRUE</enabled>
						<duration>74</duration>
						<rate>
							<timebase>25</timebase>
							<ntsc>FALSE</ntsc>
						</rate>
						<start>26757</start>
						<end>26817</end>
						<in>0</in>
						<out>60</out>
						<pproTicksIn>0</pproTicksIn>
						<pproTicksOut>609638400000</pproTicksOut>
						<file id="file-218"/>
						<sourcetrack>
							<mediatype>audio</mediatype>
							<trackindex>2</trackindex>
						</sourcetrack>
						<filter>
							<effect>
								<name>Audio Levels</name>
								<effectid>audiolevels</effectid>
								<effectcategory>audiolevels</effectcategory>
								<effecttype>audiolevels</effecttype>
								<mediatype>audio</mediatype>
								<pproBypass>false</pproBypass>
								<parameter authoringApp="PremierePro">
									<parameterid>level</parameterid>
									<name>Level</name>
									<valuemin>0</valuemin>
									<valuemax>3.98109</valuemax>
									<value>0.251189</value>
									<keyframe>
										<when>60</when>
										<value>0.251189</value>
									</keyframe>
									<keyframe>
										<when>70</when>
										<value>0.258297</value>
									</keyframe>
								</parameter>
							</effect>
						</filter>
						<link>
							<linkclipref>clipitem-608</linkclipref>
							<mediatype>video</mediatype>
							<trackindex>1</trackindex>
							<clipindex>22</clipindex>
						</link>
						<link>
							<linkclipref>clipitem-867</linkclipref>
							<mediatype>audio</mediatype>
							<trackindex>1</trackindex>
							<clipindex>15</clipindex>
							<groupindex>1</groupindex>
						</link>
						<link>
							<linkclipref>clipitem-902</linkclipref>
							<mediatype>audio</mediatype>
							<trackindex>2</trackindex>
							<clipindex>15</clipindex>
							<groupindex>1</groupindex>
						</link>
						<logginginfo>
							<description></description>
							<scene></scene>
							<shottake></shottake>
							<lognote></lognote>
							<good></good>
							<originalvideofilename></originalvideofilename>
							<originalaudiofilename></originalaudiofilename>
						</logginginfo>
						<colorinfo>
							<lut></lut>
							<lut1></lut1>
							<asc_sop></asc_sop>
							<asc_sat></asc_sat>
							<lut2></lut2>
						</colorinfo>
						<labels>
							<label2>Purple</label2>
						</labels>
					</clipitem>
					<clipitem id="clipitem-903" premiereChannelType="stereo">
						<masterclipid>masterclip-244</masterclipid>
						<name>Nested Sequence_470</name>
						<enabled>TRUE</enabled>
						<duration>13650</duration>
						<rate>
							<timebase>25</timebase>
							<ntsc>FALSE</ntsc>
						</rate>
						<start>26817</start>
						<end>27934</end>
						<in>4128</in>
						<out>5245</out>
						<pproTicksIn>41943121920000</pproTicksIn>
						<pproTicksOut>53292556800000</pproTicksOut>
						<sequence id="sequence-36"/>
						<sourcetrack>
							<mediatype>audio</mediatype>
							<trackindex>1</trackindex>
						</sourcetrack>
						<filter>
							<effect>
								<name>Audio Levels</name>
								<effectid>audiolevels</effectid>
								<effectcategory>audiolevels</effectcategory>
								<effecttype>audiolevels</effecttype>
								<mediatype>audio</mediatype>
								<pproBypass>false</pproBypass>
								<parameter authoringApp="PremierePro">
									<parameterid>level</parameterid>
									<name>Level</name>
									<valuemin>0</valuemin>
									<valuemax>3.98109</valuemax>
									<value>0</value>
									<keyframe>
										<when>12</when>
										<value>0</value>
									</keyframe>
									<keyframe>
										<when>13</when>
										<value>0</value>
									</keyframe>
									<keyframe>
										<when>1191</when>
										<value>0</value>
									</keyframe>
									<keyframe>
										<when>1194</when>
										<value>0</value>
									</keyframe>
									<keyframe>
										<when>2032</when>
										<value>0</value>
									</keyframe>
									<keyframe>
										<when>2034</when>
										<value>0</value>
									</keyframe>
									<keyframe>
										<when>2927</when>
										<value>0</value>
									</keyframe>
									<keyframe>
										<when>2929</when>
										<value>0</value>
									</keyframe>
									<keyframe>
										<when>4135</when>
										<value>0</value>
									</keyframe>
									<keyframe>
										<when>4138</when>
										<value>1</value>
									</keyframe>
								</parameter>
							</effect>
						</filter>
						<link>
							<linkclipref>clipitem-609</linkclipref>
							<mediatype>video</mediatype>
							<trackindex>1</trackindex>
							<clipindex>23</clipindex>
						</link>
						<link>
							<linkclipref>clipitem-868</linkclipref>
							<mediatype>audio</mediatype>
							<trackindex>1</trackindex>
							<clipindex>16</clipindex>
							<groupindex>1</groupindex>
						</link>
						<link>
							<linkclipref>clipitem-903</linkclipref>
							<mediatype>audio</mediatype>
							<trackindex>2</trackindex>
							<clipindex>16</clipindex>
							<groupindex>1</groupindex>
						</link>
						<labels>
							<label2>Forest</label2>
						</labels>
					</clipitem>
					<clipitem id="clipitem-904" premiereChannelType="stereo">
						<masterclipid>masterclip-260</masterclipid>
						<name>ARTIK &amp; ASTI_ОНА НЕ Я___MSWCLP004593.mov</name>
						<enabled>TRUE</enabled>
						<duration>5330</duration>
						<rate>
							<timebase>25</timebase>
							<ntsc>FALSE</ntsc>
						</rate>
						<start>28009</start>
						<end>32968</end>
						<in>359</in>
						<out>5318</out>
						<pproTicksIn>3647669760000</pproTicksIn>
						<pproTicksOut>54034283520000</pproTicksOut>
						<file id="file-228"/>
						<sourcetrack>
							<mediatype>audio</mediatype>
							<trackindex>2</trackindex>
						</sourcetrack>
						<filter>
							<effect>
								<name>Audio Levels</name>
								<effectid>audiolevels</effectid>
								<effectcategory>audiolevels</effectcategory>
								<effecttype>audiolevels</effecttype>
								<mediatype>audio</mediatype>
								<pproBypass>false</pproBypass>
								<parameter authoringApp="PremierePro">
									<parameterid>level</parameterid>
									<name>Level</name>
									<valuemin>0</valuemin>
									<valuemax>3.98109</valuemax>
									<value>0.117198</value>
									<keyframe>
										<when>359</when>
										<value>0.117198</value>
									</keyframe>
									<keyframe>
										<when>372</when>
										<value>1</value>
									</keyframe>
								</parameter>
							</effect>
						</filter>
						<link>
							<linkclipref>clipitem-611</linkclipref>
							<mediatype>video</mediatype>
							<trackindex>1</trackindex>
							<clipindex>25</clipindex>
						</link>
						<link>
							<linkclipref>clipitem-869</linkclipref>
							<mediatype>audio</mediatype>
							<trackindex>1</trackindex>
							<clipindex>17</clipindex>
							<groupindex>1</groupindex>
						</link>
						<link>
							<linkclipref>clipitem-904</linkclipref>
							<mediatype>audio</mediatype>
							<trackindex>2</trackindex>
							<clipindex>17</clipindex>
							<groupindex>1</groupindex>
						</link>
						<logginginfo>
							<description></description>
							<scene></scene>
							<shottake></shottake>
							<lognote></lognote>
							<good></good>
							<originalvideofilename></originalvideofilename>
							<originalaudiofilename></originalaudiofilename>
						</logginginfo>
						<colorinfo>
							<lut></lut>
							<lut1></lut1>
							<asc_sop></asc_sop>
							<asc_sat></asc_sat>
							<lut2></lut2>
						</colorinfo>
						<labels>
							<label2>Iris</label2>
						</labels>
					</clipitem>
					<clipitem id="clipitem-905" premiereChannelType="stereo">
						<masterclipid>masterclip-262</masterclipid>
						<name>SLAVA MARLOW_ТЫ ГОРИШЬ КАК ОГОНЬ___MSWCLP004382.mov</name>
						<enabled>TRUE</enabled>
						<duration>4191</duration>
						<rate>
							<timebase>25</timebase>
							<ntsc>FALSE</ntsc>
						</rate>
						<start>33043</start>
						<end>37234</end>
						<in>0</in>
						<out>4191</out>
						<pproTicksIn>0</pproTicksIn>
						<pproTicksOut>42583242240000</pproTicksOut>
						<file id="file-230"/>
						<sourcetrack>
							<mediatype>audio</mediatype>
							<trackindex>2</trackindex>
						</sourcetrack>
						<filter>
							<effect>
								<name>Audio Levels</name>
								<effectid>audiolevels</effectid>
								<effectcategory>audiolevels</effectcategory>
								<effecttype>audiolevels</effecttype>
								<mediatype>audio</mediatype>
								<pproBypass>false</pproBypass>
								<parameter authoringApp="PremierePro">
									<parameterid>level</parameterid>
									<name>Level</name>
									<valuemin>0</valuemin>
									<valuemax>3.98109</valuemax>
									<value>1</value>
								</parameter>
							</effect>
						</filter>
						<link>
							<linkclipref>clipitem-613</linkclipref>
							<mediatype>video</mediatype>
							<trackindex>1</trackindex>
							<clipindex>27</clipindex>
						</link>
						<link>
							<linkclipref>clipitem-870</linkclipref>
							<mediatype>audio</mediatype>
							<trackindex>1</trackindex>
							<clipindex>18</clipindex>
							<groupindex>1</groupindex>
						</link>
						<link>
							<linkclipref>clipitem-905</linkclipref>
							<mediatype>audio</mediatype>
							<trackindex>2</trackindex>
							<clipindex>18</clipindex>
							<groupindex>1</groupindex>
						</link>
						<logginginfo>
							<description></description>
							<scene></scene>
							<shottake></shottake>
							<lognote></lognote>
							<good></good>
							<originalvideofilename></originalvideofilename>
							<originalaudiofilename></originalaudiofilename>
						</logginginfo>
						<colorinfo>
							<lut></lut>
							<lut1></lut1>
							<asc_sop></asc_sop>
							<asc_sat></asc_sat>
							<lut2></lut2>
						</colorinfo>
						<labels>
							<label2>Iris</label2>
						</labels>
					</clipitem>
					<clipitem id="clipitem-906" premiereChannelType="stereo">
						<masterclipid>masterclip-250</masterclipid>
						<name>MYZ_RusskiyChart_OtbivkaMini_h264_v2.mp4</name>
						<enabled>TRUE</enabled>
						<duration>74</duration>
						<rate>
							<timebase>25</timebase>
							<ntsc>FALSE</ntsc>
						</rate>
						<start>37234</start>
						<end>37294</end>
						<in>0</in>
						<out>60</out>
						<pproTicksIn>0</pproTicksIn>
						<pproTicksOut>609638400000</pproTicksOut>
						<file id="file-218"/>
						<sourcetrack>
							<mediatype>audio</mediatype>
							<trackindex>2</trackindex>
						</sourcetrack>
						<filter>
							<effect>
								<name>Audio Levels</name>
								<effectid>audiolevels</effectid>
								<effectcategory>audiolevels</effectcategory>
								<effecttype>audiolevels</effecttype>
								<mediatype>audio</mediatype>
								<pproBypass>false</pproBypass>
								<parameter authoringApp="PremierePro">
									<parameterid>level</parameterid>
									<name>Level</name>
									<valuemin>0</valuemin>
									<valuemax>3.98109</valuemax>
									<value>0.251189</value>
									<keyframe>
										<when>60</when>
										<value>0.251189</value>
									</keyframe>
									<keyframe>
										<when>70</when>
										<value>0.258297</value>
									</keyframe>
								</parameter>
							</effect>
						</filter>
						<link>
							<linkclipref>clipitem-614</linkclipref>
							<mediatype>video</mediatype>
							<trackindex>1</trackindex>
							<clipindex>28</clipindex>
						</link>
						<link>
							<linkclipref>clipitem-871</linkclipref>
							<mediatype>audio</mediatype>
							<trackindex>1</trackindex>
							<clipindex>19</clipindex>
							<groupindex>1</groupindex>
						</link>
						<link>
							<linkclipref>clipitem-906</linkclipref>
							<mediatype>audio</mediatype>
							<trackindex>2</trackindex>
							<clipindex>19</clipindex>
							<groupindex>1</groupindex>
						</link>
						<logginginfo>
							<description></description>
							<scene></scene>
							<shottake></shottake>
							<lognote></lognote>
							<good></good>
							<originalvideofilename></originalvideofilename>
							<originalaudiofilename></originalaudiofilename>
						</logginginfo>
						<colorinfo>
							<lut></lut>
							<lut1></lut1>
							<asc_sop></asc_sop>
							<asc_sat></asc_sat>
							<lut2></lut2>
						</colorinfo>
						<labels>
							<label2>Purple</label2>
						</labels>
					</clipitem>
					<clipitem id="clipitem-907" premiereChannelType="stereo">
						<masterclipid>masterclip-244</masterclipid>
						<name>Nested Sequence_470</name>
						<enabled>TRUE</enabled>
						<duration>13650</duration>
						<rate>
							<timebase>25</timebase>
							<ntsc>FALSE</ntsc>
						</rate>
						<start>37294</start>
						<end>38147</end>
						<in>5289</in>
						<out>6142</out>
						<pproTicksIn>53739624960000</pproTicksIn>
						<pproTicksOut>62406650880000</pproTicksOut>
						<sequence id="sequence-36"/>
						<sourcetrack>
							<mediatype>audio</mediatype>
							<trackindex>1</trackindex>
						</sourcetrack>
						<filter>
							<effect>
								<name>Audio Levels</name>
								<effectid>audiolevels</effectid>
								<effectcategory>audiolevels</effectcategory>
								<effecttype>audiolevels</effecttype>
								<mediatype>audio</mediatype>
								<pproBypass>false</pproBypass>
								<parameter authoringApp="PremierePro">
									<parameterid>level</parameterid>
									<name>Level</name>
									<valuemin>0</valuemin>
									<valuemax>3.98109</valuemax>
									<value>0</value>
									<keyframe>
										<when>12</when>
										<value>0</value>
									</keyframe>
									<keyframe>
										<when>13</when>
										<value>0</value>
									</keyframe>
									<keyframe>
										<when>1191</when>
										<value>0</value>
									</keyframe>
									<keyframe>
										<when>1194</when>
										<value>0</value>
									</keyframe>
									<keyframe>
										<when>2032</when>
										<value>0</value>
									</keyframe>
									<keyframe>
										<when>2034</when>
										<value>0</value>
									</keyframe>
									<keyframe>
										<when>2927</when>
										<value>0</value>
									</keyframe>
									<keyframe>
										<when>2929</when>
										<value>0</value>
									</keyframe>
									<keyframe>
										<when>4135</when>
										<value>0</value>
									</keyframe>
									<keyframe>
										<when>4138</when>
										<value>0</value>
									</keyframe>
									<keyframe>
										<when>5292</when>
										<value>0</value>
									</keyframe>
									<keyframe>
										<when>5293</when>
										<value>1</value>
									</keyframe>
								</parameter>
							</effect>
						</filter>
						<link>
							<linkclipref>clipitem-615</linkclipref>
							<mediatype>video</mediatype>
							<trackindex>1</trackindex>
							<clipindex>29</clipindex>
						</link>
						<link>
							<linkclipref>clipitem-872</linkclipref>
							<mediatype>audio</mediatype>
							<trackindex>1</trackindex>
							<clipindex>20</clipindex>
							<groupindex>1</groupindex>
						</link>
						<link>
							<linkclipref>clipitem-907</linkclipref>
							<mediatype>audio</mediatype>
							<trackindex>2</trackindex>
							<clipindex>20</clipindex>
							<groupindex>1</groupindex>
						</link>
						<labels>
							<label2>Forest</label2>
						</labels>
					</clipitem>
					<clipitem id="clipitem-908" premiereChannelType="stereo">
						<masterclipid>masterclip-264</masterclipid>
						<name>LOBODA_РОДНОЙ___MSWCLP004376.mov</name>
						<enabled>TRUE</enabled>
						<duration>5466</duration>
						<rate>
							<timebase>25</timebase>
							<ntsc>FALSE</ntsc>
						</rate>
						<start>38222</start>
						<end>43544</end>
						<in>66</in>
						<out>5388</out>
						<pproTicksIn>670602240000</pproTicksIn>
						<pproTicksOut>54745528320000</pproTicksOut>
						<file id="file-232"/>
						<sourcetrack>
							<mediatype>audio</mediatype>
							<trackindex>2</trackindex>
						</sourcetrack>
						<filter>
							<effect>
								<name>Audio Levels</name>
								<effectid>audiolevels</effectid>
								<effectcategory>audiolevels</effectcategory>
								<effecttype>audiolevels</effecttype>
								<mediatype>audio</mediatype>
								<pproBypass>false</pproBypass>
								<parameter authoringApp="PremierePro">
									<parameterid>level</parameterid>
									<name>Level</name>
									<valuemin>0</valuemin>
									<valuemax>3.98109</valuemax>
									<value>1</value>
									<keyframe>
										<when>5352</when>
										<value>1</value>
									</keyframe>
									<keyframe>
										<when>5384</when>
										<value>0.080256</value>
									</keyframe>
								</parameter>
							</effect>
						</filter>
						<link>
							<linkclipref>clipitem-617</linkclipref>
							<mediatype>video</mediatype>
							<trackindex>1</trackindex>
							<clipindex>31</clipindex>
						</link>
						<link>
							<linkclipref>clipitem-873</linkclipref>
							<mediatype>audio</mediatype>
							<trackindex>1</trackindex>
							<clipindex>21</clipindex>
							<groupindex>1</groupindex>
						</link>
						<link>
							<linkclipref>clipitem-908</linkclipref>
							<mediatype>audio</mediatype>
							<trackindex>2</trackindex>
							<clipindex>21</clipindex>
							<groupindex>1</groupindex>
						</link>
						<logginginfo>
							<description></description>
							<scene></scene>
							<shottake></shottake>
							<lognote></lognote>
							<good></good>
							<originalvideofilename></originalvideofilename>
							<originalaudiofilename></originalaudiofilename>
						</logginginfo>
						<colorinfo>
							<lut></lut>
							<lut1></lut1>
							<asc_sop></asc_sop>
							<asc_sat></asc_sat>
							<lut2></lut2>
						</colorinfo>
						<labels>
							<label2>Iris</label2>
						</labels>
					</clipitem>
					<clipitem id="clipitem-909" premiereChannelType="stereo">
						<masterclipid>masterclip-250</masterclipid>
						<name>MYZ_RusskiyChart_OtbivkaMini_h264_v2.mp4</name>
						<enabled>TRUE</enabled>
						<duration>74</duration>
						<rate>
							<timebase>25</timebase>
							<ntsc>FALSE</ntsc>
						</rate>
						<start>43544</start>
						<end>43604</end>
						<in>0</in>
						<out>60</out>
						<pproTicksIn>0</pproTicksIn>
						<pproTicksOut>609638400000</pproTicksOut>
						<file id="file-218"/>
						<sourcetrack>
							<mediatype>audio</mediatype>
							<trackindex>2</trackindex>
						</sourcetrack>
						<filter>
							<effect>
								<name>Audio Levels</name>
								<effectid>audiolevels</effectid>
								<effectcategory>audiolevels</effectcategory>
								<effecttype>audiolevels</effecttype>
								<mediatype>audio</mediatype>
								<pproBypass>false</pproBypass>
								<parameter authoringApp="PremierePro">
									<parameterid>level</parameterid>
									<name>Level</name>
									<valuemin>0</valuemin>
									<valuemax>3.98109</valuemax>
									<value>0.251189</value>
									<keyframe>
										<when>60</when>
										<value>0.251189</value>
									</keyframe>
									<keyframe>
										<when>70</when>
										<value>0.258297</value>
									</keyframe>
								</parameter>
							</effect>
						</filter>
						<link>
							<linkclipref>clipitem-618</linkclipref>
							<mediatype>video</mediatype>
							<trackindex>1</trackindex>
							<clipindex>32</clipindex>
						</link>
						<link>
							<linkclipref>clipitem-874</linkclipref>
							<mediatype>audio</mediatype>
							<trackindex>1</trackindex>
							<clipindex>22</clipindex>
							<groupindex>1</groupindex>
						</link>
						<link>
							<linkclipref>clipitem-909</linkclipref>
							<mediatype>audio</mediatype>
							<trackindex>2</trackindex>
							<clipindex>22</clipindex>
							<groupindex>1</groupindex>
						</link>
						<logginginfo>
							<description></description>
							<scene></scene>
							<shottake></shottake>
							<lognote></lognote>
							<good></good>
							<originalvideofilename></originalvideofilename>
							<originalaudiofilename></originalaudiofilename>
						</logginginfo>
						<colorinfo>
							<lut></lut>
							<lut1></lut1>
							<asc_sop></asc_sop>
							<asc_sat></asc_sat>
							<lut2></lut2>
						</colorinfo>
						<labels>
							<label2>Purple</label2>
						</labels>
					</clipitem>
					<clipitem id="clipitem-910" premiereChannelType="stereo">
						<masterclipid>masterclip-244</masterclipid>
						<name>Nested Sequence_470</name>
						<enabled>TRUE</enabled>
						<duration>13650</duration>
						<rate>
							<timebase>25</timebase>
							<ntsc>FALSE</ntsc>
						</rate>
						<start>43604</start>
						<end>44786</end>
						<in>6183</in>
						<out>7365</out>
						<pproTicksIn>62823237120000</pproTicksIn>
						<pproTicksOut>74833113600000</pproTicksOut>
						<sequence id="sequence-36"/>
						<sourcetrack>
							<mediatype>audio</mediatype>
							<trackindex>1</trackindex>
						</sourcetrack>
						<filter>
							<effect>
								<name>Audio Levels</name>
								<effectid>audiolevels</effectid>
								<effectcategory>audiolevels</effectcategory>
								<effecttype>audiolevels</effecttype>
								<mediatype>audio</mediatype>
								<pproBypass>false</pproBypass>
								<parameter authoringApp="PremierePro">
									<parameterid>level</parameterid>
									<name>Level</name>
									<valuemin>0</valuemin>
									<valuemax>3.98109</valuemax>
									<value>0</value>
									<keyframe>
										<when>12</when>
										<value>0</value>
									</keyframe>
									<keyframe>
										<when>13</when>
										<value>0</value>
									</keyframe>
									<keyframe>
										<when>1191</when>
										<value>0</value>
									</keyframe>
									<keyframe>
										<when>1194</when>
										<value>0</value>
									</keyframe>
									<keyframe>
										<when>2032</when>
										<value>0</value>
									</keyframe>
									<keyframe>
										<when>2034</when>
										<value>0</value>
									</keyframe>
									<keyframe>
										<when>2927</when>
										<value>0</value>
									</keyframe>
									<keyframe>
										<when>2929</when>
										<value>0</value>
									</keyframe>
									<keyframe>
										<when>4135</when>
										<value>0</value>
									</keyframe>
									<keyframe>
										<when>4138</when>
										<value>0</value>
									</keyframe>
									<keyframe>
										<when>5292</when>
										<value>0</value>
									</keyframe>
									<keyframe>
										<when>5293</when>
										<value>0</value>
									</keyframe>
									<keyframe>
										<when>6187</when>
										<value>0</value>
									</keyframe>
									<keyframe>
										<when>6188</when>
										<value>1</value>
									</keyframe>
								</parameter>
							</effect>
						</filter>
						<link>
							<linkclipref>clipitem-619</linkclipref>
							<mediatype>video</mediatype>
							<trackindex>1</trackindex>
							<clipindex>33</clipindex>
						</link>
						<link>
							<linkclipref>clipitem-875</linkclipref>
							<mediatype>audio</mediatype>
							<trackindex>1</trackindex>
							<clipindex>23</clipindex>
							<groupindex>1</groupindex>
						</link>
						<link>
							<linkclipref>clipitem-910</linkclipref>
							<mediatype>audio</mediatype>
							<trackindex>2</trackindex>
							<clipindex>23</clipindex>
							<groupindex>1</groupindex>
						</link>
						<labels>
							<label2>Forest</label2>
						</labels>
					</clipitem>
					<clipitem id="clipitem-911" premiereChannelType="stereo">
						<masterclipid>masterclip-266</masterclipid>
						<name>СУЛТАН ЛАГУЧЕВ_ГОРЬКИЙ ВКУС___MSWCLP004337.mov</name>
						<enabled>TRUE</enabled>
						<duration>4437</duration>
						<rate>
							<timebase>25</timebase>
							<ntsc>FALSE</ntsc>
						</rate>
						<start>44861</start>
						<end>49232</end>
						<in>39</in>
						<out>4410</out>
						<pproTicksIn>396264960000</pproTicksIn>
						<pproTicksOut>44808422400000</pproTicksOut>
						<file id="file-234"/>
						<sourcetrack>
							<mediatype>audio</mediatype>
							<trackindex>2</trackindex>
						</sourcetrack>
						<filter>
							<effect>
								<name>Audio Levels</name>
								<effectid>audiolevels</effectid>
								<effectcategory>audiolevels</effectcategory>
								<effecttype>audiolevels</effecttype>
								<mediatype>audio</mediatype>
								<pproBypass>false</pproBypass>
								<parameter authoringApp="PremierePro">
									<parameterid>level</parameterid>
									<name>Level</name>
									<valuemin>0</valuemin>
									<valuemax>3.98109</valuemax>
									<value>1</value>
									<keyframe>
										<when>4382</when>
										<value>1</value>
									</keyframe>
									<keyframe>
										<when>4405</when>
										<value>0.2149</value>
									</keyframe>
								</parameter>
							</effect>
						</filter>
						<link>
							<linkclipref>clipitem-621</linkclipref>
							<mediatype>video</mediatype>
							<trackindex>1</trackindex>
							<clipindex>35</clipindex>
						</link>
						<link>
							<linkclipref>clipitem-876</linkclipref>
							<mediatype>audio</mediatype>
							<trackindex>1</trackindex>
							<clipindex>24</clipindex>
							<groupindex>1</groupindex>
						</link>
						<link>
							<linkclipref>clipitem-911</linkclipref>
							<mediatype>audio</mediatype>
							<trackindex>2</trackindex>
							<clipindex>24</clipindex>
							<groupindex>1</groupindex>
						</link>
						<logginginfo>
							<description></description>
							<scene></scene>
							<shottake></shottake>
							<lognote></lognote>
							<good></good>
							<originalvideofilename></originalvideofilename>
							<originalaudiofilename></originalaudiofilename>
						</logginginfo>
						<colorinfo>
							<lut></lut>
							<lut1></lut1>
							<asc_sop></asc_sop>
							<asc_sat></asc_sat>
							<lut2></lut2>
						</colorinfo>
						<labels>
							<label2>Iris</label2>
						</labels>
					</clipitem>
					<clipitem id="clipitem-912" premiereChannelType="stereo">
						<masterclipid>masterclip-250</masterclipid>
						<name>MYZ_RusskiyChart_OtbivkaMini_h264_v2.mp4</name>
						<enabled>TRUE</enabled>
						<duration>74</duration>
						<rate>
							<timebase>25</timebase>
							<ntsc>FALSE</ntsc>
						</rate>
						<start>49232</start>
						<end>49292</end>
						<in>0</in>
						<out>60</out>
						<pproTicksIn>0</pproTicksIn>
						<pproTicksOut>609638400000</pproTicksOut>
						<file id="file-218"/>
						<sourcetrack>
							<mediatype>audio</mediatype>
							<trackindex>2</trackindex>
						</sourcetrack>
						<filter>
							<effect>
								<name>Audio Levels</name>
								<effectid>audiolevels</effectid>
								<effectcategory>audiolevels</effectcategory>
								<effecttype>audiolevels</effecttype>
								<mediatype>audio</mediatype>
								<pproBypass>false</pproBypass>
								<parameter authoringApp="PremierePro">
									<parameterid>level</parameterid>
									<name>Level</name>
									<valuemin>0</valuemin>
									<valuemax>3.98109</valuemax>
									<value>0.251189</value>
									<keyframe>
										<when>60</when>
										<value>0.251189</value>
									</keyframe>
									<keyframe>
										<when>70</when>
										<value>0.258297</value>
									</keyframe>
								</parameter>
							</effect>
						</filter>
						<link>
							<linkclipref>clipitem-622</linkclipref>
							<mediatype>video</mediatype>
							<trackindex>1</trackindex>
							<clipindex>36</clipindex>
						</link>
						<link>
							<linkclipref>clipitem-877</linkclipref>
							<mediatype>audio</mediatype>
							<trackindex>1</trackindex>
							<clipindex>25</clipindex>
							<groupindex>1</groupindex>
						</link>
						<link>
							<linkclipref>clipitem-912</linkclipref>
							<mediatype>audio</mediatype>
							<trackindex>2</trackindex>
							<clipindex>25</clipindex>
							<groupindex>1</groupindex>
						</link>
						<logginginfo>
							<description></description>
							<scene></scene>
							<shottake></shottake>
							<lognote></lognote>
							<good></good>
							<originalvideofilename></originalvideofilename>
							<originalaudiofilename></originalaudiofilename>
						</logginginfo>
						<colorinfo>
							<lut></lut>
							<lut1></lut1>
							<asc_sop></asc_sop>
							<asc_sat></asc_sat>
							<lut2></lut2>
						</colorinfo>
						<labels>
							<label2>Purple</label2>
						</labels>
					</clipitem>
					<clipitem id="clipitem-913" premiereChannelType="stereo">
						<masterclipid>masterclip-244</masterclipid>
						<name>Nested Sequence_470</name>
						<enabled>TRUE</enabled>
						<duration>13650</duration>
						<rate>
							<timebase>25</timebase>
							<ntsc>FALSE</ntsc>
						</rate>
						<start>49292</start>
						<end>50340</end>
						<in>9043</in>
						<out>10091</out>
						<pproTicksIn>91882667520000</pproTicksIn>
						<pproTicksOut>102531018240000</pproTicksOut>
						<sequence id="sequence-36"/>
						<sourcetrack>
							<mediatype>audio</mediatype>
							<trackindex>1</trackindex>
						</sourcetrack>
						<filter>
							<effect>
								<name>Audio Levels</name>
								<effectid>audiolevels</effectid>
								<effectcategory>audiolevels</effectcategory>
								<effecttype>audiolevels</effecttype>
								<mediatype>audio</mediatype>
								<pproBypass>false</pproBypass>
								<parameter authoringApp="PremierePro">
									<parameterid>level</parameterid>
									<name>Level</name>
									<valuemin>0</valuemin>
									<valuemax>3.98109</valuemax>
									<value>0</value>
									<keyframe>
										<when>12</when>
										<value>0</value>
									</keyframe>
									<keyframe>
										<when>13</when>
										<value>0</value>
									</keyframe>
									<keyframe>
										<when>1191</when>
										<value>0</value>
									</keyframe>
									<keyframe>
										<when>1194</when>
										<value>0</value>
									</keyframe>
									<keyframe>
										<when>2032</when>
										<value>0</value>
									</keyframe>
									<keyframe>
										<when>2034</when>
										<value>0</value>
									</keyframe>
									<keyframe>
										<when>2927</when>
										<value>0</value>
									</keyframe>
									<keyframe>
										<when>2929</when>
										<value>0</value>
									</keyframe>
									<keyframe>
										<when>4135</when>
										<value>0</value>
									</keyframe>
									<keyframe>
										<when>4138</when>
										<value>0</value>
									</keyframe>
									<keyframe>
										<when>5292</when>
										<value>0</value>
									</keyframe>
									<keyframe>
										<when>5293</when>
										<value>0</value>
									</keyframe>
									<keyframe>
										<when>6187</when>
										<value>0</value>
									</keyframe>
									<keyframe>
										<when>6188</when>
										<value>0</value>
									</keyframe>
									<keyframe>
										<when>7428</when>
										<value>0</value>
									</keyframe>
									<keyframe>
										<when>7431</when>
										<value>0</value>
									</keyframe>
									<keyframe>
										<when>9047</when>
										<value>0</value>
									</keyframe>
									<keyframe>
										<when>9049</when>
										<value>1</value>
									</keyframe>
								</parameter>
							</effect>
						</filter>
						<link>
							<linkclipref>clipitem-623</linkclipref>
							<mediatype>video</mediatype>
							<trackindex>1</trackindex>
							<clipindex>37</clipindex>
						</link>
						<link>
							<linkclipref>clipitem-878</linkclipref>
							<mediatype>audio</mediatype>
							<trackindex>1</trackindex>
							<clipindex>26</clipindex>
							<groupindex>1</groupindex>
						</link>
						<link>
							<linkclipref>clipitem-913</linkclipref>
							<mediatype>audio</mediatype>
							<trackindex>2</trackindex>
							<clipindex>26</clipindex>
							<groupindex>1</groupindex>
						</link>
						<labels>
							<label2>Forest</label2>
						</labels>
					</clipitem>
					<clipitem id="clipitem-914" premiereChannelType="stereo">
						<masterclipid>masterclip-268</masterclipid>
						<name>МАКС БАРСКИХ &amp; ZIVERT_BESTSELLER___MSWCLP004396.mov</name>
						<enabled>TRUE</enabled>
						<duration>5597</duration>
						<rate>
							<timebase>25</timebase>
							<ntsc>FALSE</ntsc>
						</rate>
						<start>50415</start>
						<end>55933</end>
						<in>0</in>
						<out>5518</out>
						<pproTicksIn>0</pproTicksIn>
						<pproTicksOut>56066411520000</pproTicksOut>
						<file id="file-236"/>
						<sourcetrack>
							<mediatype>audio</mediatype>
							<trackindex>2</trackindex>
						</sourcetrack>
						<filter>
							<effect>
								<name>Audio Levels</name>
								<effectid>audiolevels</effectid>
								<effectcategory>audiolevels</effectcategory>
								<effecttype>audiolevels</effecttype>
								<mediatype>audio</mediatype>
								<pproBypass>false</pproBypass>
								<parameter authoringApp="PremierePro">
									<parameterid>level</parameterid>
									<name>Level</name>
									<valuemin>0</valuemin>
									<valuemax>3.98109</valuemax>
									<value>0</value>
									<keyframe>
										<when>2</when>
										<value>0</value>
									</keyframe>
									<keyframe>
										<when>5</when>
										<value>1</value>
									</keyframe>
									<keyframe>
										<when>5474</when>
										<value>1</value>
									</keyframe>
									<keyframe>
										<when>5518</when>
										<value>0.080256</value>
									</keyframe>
								</parameter>
							</effect>
						</filter>
						<link>
							<linkclipref>clipitem-625</linkclipref>
							<mediatype>video</mediatype>
							<trackindex>1</trackindex>
							<clipindex>39</clipindex>
						</link>
						<link>
							<linkclipref>clipitem-879</linkclipref>
							<mediatype>audio</mediatype>
							<trackindex>1</trackindex>
							<clipindex>27</clipindex>
							<groupindex>1</groupindex>
						</link>
						<link>
							<linkclipref>clipitem-914</linkclipref>
							<mediatype>audio</mediatype>
							<trackindex>2</trackindex>
							<clipindex>27</clipindex>
							<groupindex>1</groupindex>
						</link>
						<logginginfo>
							<description></description>
							<scene></scene>
							<shottake></shottake>
							<lognote></lognote>
							<good></good>
							<originalvideofilename></originalvideofilename>
							<originalaudiofilename></originalaudiofilename>
						</logginginfo>
						<colorinfo>
							<lut></lut>
							<lut1></lut1>
							<asc_sop></asc_sop>
							<asc_sat></asc_sat>
							<lut2></lut2>
						</colorinfo>
						<labels>
							<label2>Iris</label2>
						</labels>
					</clipitem>
					<clipitem id="clipitem-915" premiereChannelType="stereo">
						<masterclipid>masterclip-250</masterclipid>
						<name>MYZ_RusskiyChart_OtbivkaMini_h264_v2.mp4</name>
						<enabled>TRUE</enabled>
						<duration>74</duration>
						<rate>
							<timebase>25</timebase>
							<ntsc>FALSE</ntsc>
						</rate>
						<start>55933</start>
						<end>55993</end>
						<in>0</in>
						<out>60</out>
						<pproTicksIn>0</pproTicksIn>
						<pproTicksOut>609638400000</pproTicksOut>
						<file id="file-218"/>
						<sourcetrack>
							<mediatype>audio</mediatype>
							<trackindex>2</trackindex>
						</sourcetrack>
						<filter>
							<effect>
								<name>Audio Levels</name>
								<effectid>audiolevels</effectid>
								<effectcategory>audiolevels</effectcategory>
								<effecttype>audiolevels</effecttype>
								<mediatype>audio</mediatype>
								<pproBypass>false</pproBypass>
								<parameter authoringApp="PremierePro">
									<parameterid>level</parameterid>
									<name>Level</name>
									<valuemin>0</valuemin>
									<valuemax>3.98109</valuemax>
									<value>0.251189</value>
									<keyframe>
										<when>60</when>
										<value>0.251189</value>
									</keyframe>
									<keyframe>
										<when>70</when>
										<value>0.258297</value>
									</keyframe>
								</parameter>
							</effect>
						</filter>
						<link>
							<linkclipref>clipitem-626</linkclipref>
							<mediatype>video</mediatype>
							<trackindex>1</trackindex>
							<clipindex>40</clipindex>
						</link>
						<link>
							<linkclipref>clipitem-880</linkclipref>
							<mediatype>audio</mediatype>
							<trackindex>1</trackindex>
							<clipindex>28</clipindex>
							<groupindex>1</groupindex>
						</link>
						<link>
							<linkclipref>clipitem-915</linkclipref>
							<mediatype>audio</mediatype>
							<trackindex>2</trackindex>
							<clipindex>28</clipindex>
							<groupindex>1</groupindex>
						</link>
						<logginginfo>
							<description></description>
							<scene></scene>
							<shottake></shottake>
							<lognote></lognote>
							<good></good>
							<originalvideofilename></originalvideofilename>
							<originalaudiofilename></originalaudiofilename>
						</logginginfo>
						<colorinfo>
							<lut></lut>
							<lut1></lut1>
							<asc_sop></asc_sop>
							<asc_sat></asc_sat>
							<lut2></lut2>
						</colorinfo>
						<labels>
							<label2>Purple</label2>
						</labels>
					</clipitem>
					<clipitem id="clipitem-916" premiereChannelType="stereo">
						<masterclipid>masterclip-244</masterclipid>
						<name>Nested Sequence_470</name>
						<enabled>TRUE</enabled>
						<duration>13650</duration>
						<rate>
							<timebase>25</timebase>
							<ntsc>FALSE</ntsc>
						</rate>
						<start>55993</start>
						<end>56985</end>
						<in>10112</in>
						<out>11104</out>
						<pproTicksIn>102744391680000</pproTicksIn>
						<pproTicksOut>112823746560000</pproTicksOut>
						<sequence id="sequence-36"/>
						<sourcetrack>
							<mediatype>audio</mediatype>
							<trackindex>1</trackindex>
						</sourcetrack>
						<filter>
							<effect>
								<name>Audio Levels</name>
								<effectid>audiolevels</effectid>
								<effectcategory>audiolevels</effectcategory>
								<effecttype>audiolevels</effecttype>
								<mediatype>audio</mediatype>
								<pproBypass>false</pproBypass>
								<parameter authoringApp="PremierePro">
									<parameterid>level</parameterid>
									<name>Level</name>
									<valuemin>0</valuemin>
									<valuemax>3.98109</valuemax>
									<value>0</value>
									<keyframe>
										<when>12</when>
										<value>0</value>
									</keyframe>
									<keyframe>
										<when>13</when>
										<value>0</value>
									</keyframe>
									<keyframe>
										<when>1191</when>
										<value>0</value>
									</keyframe>
									<keyframe>
										<when>1194</when>
										<value>0</value>
									</keyframe>
									<keyframe>
										<when>2032</when>
										<value>0</value>
									</keyframe>
									<keyframe>
										<when>2034</when>
										<value>0</value>
									</keyframe>
									<keyframe>
										<when>2927</when>
										<value>0</value>
									</keyframe>
									<keyframe>
										<when>2929</when>
										<value>0</value>
									</keyframe>
									<keyframe>
										<when>4135</when>
										<value>0</value>
									</keyframe>
									<keyframe>
										<when>4138</when>
										<value>0</value>
									</keyframe>
									<keyframe>
										<when>5292</when>
										<value>0</value>
									</keyframe>
									<keyframe>
										<when>5293</when>
										<value>0</value>
									</keyframe>
									<keyframe>
										<when>6187</when>
										<value>0</value>
									</keyframe>
									<keyframe>
										<when>6188</when>
										<value>0</value>
									</keyframe>
									<keyframe>
										<when>7428</when>
										<value>0</value>
									</keyframe>
									<keyframe>
										<when>7431</when>
										<value>0</value>
									</keyframe>
									<keyframe>
										<when>9047</when>
										<value>0</value>
									</keyframe>
									<keyframe>
										<when>9049</when>
										<value>0</value>
									</keyframe>
									<keyframe>
										<when>10117</when>
										<value>0</value>
									</keyframe>
									<keyframe>
										<when>10119</when>
										<value>1</value>
									</keyframe>
								</parameter>
							</effect>
						</filter>
						<link>
							<linkclipref>clipitem-627</linkclipref>
							<mediatype>video</mediatype>
							<trackindex>1</trackindex>
							<clipindex>41</clipindex>
						</link>
						<link>
							<linkclipref>clipitem-881</linkclipref>
							<mediatype>audio</mediatype>
							<trackindex>1</trackindex>
							<clipindex>29</clipindex>
							<groupindex>1</groupindex>
						</link>
						<link>
							<linkclipref>clipitem-916</linkclipref>
							<mediatype>audio</mediatype>
							<trackindex>2</trackindex>
							<clipindex>29</clipindex>
							<groupindex>1</groupindex>
						</link>
						<labels>
							<label2>Forest</label2>
						</labels>
					</clipitem>
					<clipitem id="clipitem-917" premiereChannelType="stereo">
						<masterclipid>masterclip-270</masterclipid>
						<name>GALIBRI &amp; MAVIK_ФЕДЕРИКО ФЕЛЛИНИ___MSWCLP004538.mov</name>
						<enabled>TRUE</enabled>
						<duration>3492</duration>
						<rate>
							<timebase>25</timebase>
							<ntsc>FALSE</ntsc>
						</rate>
						<start>57060</start>
						<end>60462</end>
						<in>0</in>
						<out>3402</out>
						<pproTicksIn>0</pproTicksIn>
						<pproTicksOut>34566497280000</pproTicksOut>
						<file id="file-238"/>
						<sourcetrack>
							<mediatype>audio</mediatype>
							<trackindex>2</trackindex>
						</sourcetrack>
						<filter>
							<effect>
								<name>Audio Levels</name>
								<effectid>audiolevels</effectid>
								<effectcategory>audiolevels</effectcategory>
								<effecttype>audiolevels</effecttype>
								<mediatype>audio</mediatype>
								<pproBypass>false</pproBypass>
								<parameter authoringApp="PremierePro">
									<parameterid>level</parameterid>
									<name>Level</name>
									<valuemin>0</valuemin>
									<valuemax>3.98109</valuemax>
									<value>1</value>
									<keyframe>
										<when>3363</when>
										<value>1</value>
									</keyframe>
									<keyframe>
										<when>3397</when>
										<value>0.0227713</value>
									</keyframe>
								</parameter>
							</effect>
						</filter>
						<link>
							<linkclipref>clipitem-629</linkclipref>
							<mediatype>video</mediatype>
							<trackindex>1</trackindex>
							<clipindex>43</clipindex>
						</link>
						<link>
							<linkclipref>clipitem-882</linkclipref>
							<mediatype>audio</mediatype>
							<trackindex>1</trackindex>
							<clipindex>30</clipindex>
							<groupindex>1</groupindex>
						</link>
						<link>
							<linkclipref>clipitem-917</linkclipref>
							<mediatype>audio</mediatype>
							<trackindex>2</trackindex>
							<clipindex>30</clipindex>
							<groupindex>1</groupindex>
						</link>
						<logginginfo>
							<description></description>
							<scene></scene>
							<shottake></shottake>
							<lognote></lognote>
							<good></good>
							<originalvideofilename></originalvideofilename>
							<originalaudiofilename></originalaudiofilename>
						</logginginfo>
						<colorinfo>
							<lut></lut>
							<lut1></lut1>
							<asc_sop></asc_sop>
							<asc_sat></asc_sat>
							<lut2></lut2>
						</colorinfo>
						<labels>
							<label2>Iris</label2>
						</labels>
					</clipitem>
					<clipitem id="clipitem-918" premiereChannelType="stereo">
						<masterclipid>masterclip-250</masterclipid>
						<name>MYZ_RusskiyChart_OtbivkaMini_h264_v2.mp4</name>
						<enabled>TRUE</enabled>
						<duration>74</duration>
						<rate>
							<timebase>25</timebase>
							<ntsc>FALSE</ntsc>
						</rate>
						<start>60462</start>
						<end>60522</end>
						<in>0</in>
						<out>60</out>
						<pproTicksIn>0</pproTicksIn>
						<pproTicksOut>609638400000</pproTicksOut>
						<file id="file-218"/>
						<sourcetrack>
							<mediatype>audio</mediatype>
							<trackindex>2</trackindex>
						</sourcetrack>
						<filter>
							<effect>
								<name>Audio Levels</name>
								<effectid>audiolevels</effectid>
								<effectcategory>audiolevels</effectcategory>
								<effecttype>audiolevels</effecttype>
								<mediatype>audio</mediatype>
								<pproBypass>false</pproBypass>
								<parameter authoringApp="PremierePro">
									<parameterid>level</parameterid>
									<name>Level</name>
									<valuemin>0</valuemin>
									<valuemax>3.98109</valuemax>
									<value>0.251189</value>
									<keyframe>
										<when>60</when>
										<value>0.251189</value>
									</keyframe>
									<keyframe>
										<when>70</when>
										<value>0.258297</value>
									</keyframe>
								</parameter>
							</effect>
						</filter>
						<link>
							<linkclipref>clipitem-630</linkclipref>
							<mediatype>video</mediatype>
							<trackindex>1</trackindex>
							<clipindex>44</clipindex>
						</link>
						<link>
							<linkclipref>clipitem-883</linkclipref>
							<mediatype>audio</mediatype>
							<trackindex>1</trackindex>
							<clipindex>31</clipindex>
							<groupindex>1</groupindex>
						</link>
						<link>
							<linkclipref>clipitem-918</linkclipref>
							<mediatype>audio</mediatype>
							<trackindex>2</trackindex>
							<clipindex>31</clipindex>
							<groupindex>1</groupindex>
						</link>
						<logginginfo>
							<description></description>
							<scene></scene>
							<shottake></shottake>
							<lognote></lognote>
							<good></good>
							<originalvideofilename></originalvideofilename>
							<originalaudiofilename></originalaudiofilename>
						</logginginfo>
						<colorinfo>
							<lut></lut>
							<lut1></lut1>
							<asc_sop></asc_sop>
							<asc_sat></asc_sat>
							<lut2></lut2>
						</colorinfo>
						<labels>
							<label2>Purple</label2>
						</labels>
					</clipitem>
					<clipitem id="clipitem-919" premiereChannelType="stereo">
						<masterclipid>masterclip-244</masterclipid>
						<name>Nested Sequence_470</name>
						<enabled>TRUE</enabled>
						<duration>13650</duration>
						<rate>
							<timebase>25</timebase>
							<ntsc>FALSE</ntsc>
						</rate>
						<start>60522</start>
						<end>61499</end>
						<in>11134</in>
						<out>12111</out>
						<pproTicksIn>113128565760000</pproTicksIn>
						<pproTicksOut>123055511040000</pproTicksOut>
						<sequence id="sequence-36"/>
						<sourcetrack>
							<mediatype>audio</mediatype>
							<trackindex>1</trackindex>
						</sourcetrack>
						<filter>
							<effect>
								<name>Audio Levels</name>
								<effectid>audiolevels</effectid>
								<effectcategory>audiolevels</effectcategory>
								<effecttype>audiolevels</effecttype>
								<mediatype>audio</mediatype>
								<pproBypass>false</pproBypass>
								<parameter authoringApp="PremierePro">
									<parameterid>level</parameterid>
									<name>Level</name>
									<valuemin>0</valuemin>
									<valuemax>3.98109</valuemax>
									<value>0</value>
									<keyframe>
										<when>12</when>
										<value>0</value>
									</keyframe>
									<keyframe>
										<when>13</when>
										<value>0</value>
									</keyframe>
									<keyframe>
										<when>1191</when>
										<value>0</value>
									</keyframe>
									<keyframe>
										<when>1194</when>
										<value>0</value>
									</keyframe>
									<keyframe>
										<when>2032</when>
										<value>0</value>
									</keyframe>
									<keyframe>
										<when>2034</when>
										<value>0</value>
									</keyframe>
									<keyframe>
										<when>2927</when>
										<value>0</value>
									</keyframe>
									<keyframe>
										<when>2929</when>
										<value>0</value>
									</keyframe>
									<keyframe>
										<when>4135</when>
										<value>0</value>
									</keyframe>
									<keyframe>
										<when>4138</when>
										<value>0</value>
									</keyframe>
									<keyframe>
										<when>5292</when>
										<value>0</value>
									</keyframe>
									<keyframe>
										<when>5293</when>
										<value>0</value>
									</keyframe>
									<keyframe>
										<when>6187</when>
										<value>0</value>
									</keyframe>
									<keyframe>
										<when>6188</when>
										<value>0</value>
									</keyframe>
									<keyframe>
										<when>7428</when>
										<value>0</value>
									</keyframe>
									<keyframe>
										<when>7431</when>
										<value>0</value>
									</keyframe>
									<keyframe>
										<when>9047</when>
										<value>0</value>
									</keyframe>
									<keyframe>
										<when>9049</when>
										<value>0</value>
									</keyframe>
									<keyframe>
										<when>10117</when>
										<value>0</value>
									</keyframe>
									<keyframe>
										<when>10119</when>
										<value>0</value>
									</keyframe>
									<keyframe>
										<when>11138</when>
										<value>0</value>
									</keyframe>
									<keyframe>
										<when>11140</when>
										<value>1</value>
									</keyframe>
								</parameter>
							</effect>
						</filter>
						<link>
							<linkclipref>clipitem-631</linkclipref>
							<mediatype>video</mediatype>
							<trackindex>1</trackindex>
							<clipindex>45</clipindex>
						</link>
						<link>
							<linkclipref>clipitem-884</linkclipref>
							<mediatype>audio</mediatype>
							<trackindex>1</trackindex>
							<clipindex>32</clipindex>
							<groupindex>1</groupindex>
						</link>
						<link>
							<linkclipref>clipitem-919</linkclipref>
							<mediatype>audio</mediatype>
							<trackindex>2</trackindex>
							<clipindex>32</clipindex>
							<groupindex>1</groupindex>
						</link>
						<labels>
							<label2>Forest</label2>
						</labels>
					</clipitem>
					<clipitem id="clipitem-920" premiereChannelType="stereo">
						<masterclipid>masterclip-272</masterclipid>
						<name>ХАБИБ_ЯГОДА МАЛИНКА___MSWCLP004296.mov</name>
						<enabled>TRUE</enabled>
						<duration>3670</duration>
						<rate>
							<timebase>25</timebase>
							<ntsc>FALSE</ntsc>
						</rate>
						<start>61574</start>
						<end>65117</end>
						<in>121</in>
						<out>3664</out>
						<pproTicksIn>1229437440000</pproTicksIn>
						<pproTicksOut>37228584960000</pproTicksOut>
						<file id="file-240"/>
						<sourcetrack>
							<mediatype>audio</mediatype>
							<trackindex>2</trackindex>
						</sourcetrack>
						<filter>
							<effect>
								<name>Audio Levels</name>
								<effectid>audiolevels</effectid>
								<effectcategory>audiolevels</effectcategory>
								<effecttype>audiolevels</effecttype>
								<mediatype>audio</mediatype>
								<pproBypass>false</pproBypass>
								<parameter authoringApp="PremierePro">
									<parameterid>level</parameterid>
									<name>Level</name>
									<valuemin>0</valuemin>
									<valuemax>3.98109</valuemax>
									<value>0</value>
									<keyframe>
										<when>136</when>
										<value>0</value>
									</keyframe>
									<keyframe>
										<when>140</when>
										<value>1</value>
									</keyframe>
									<keyframe>
										<when>3656</when>
										<value>1</value>
									</keyframe>
									<keyframe>
										<when>3663</when>
										<value>0.2149</value>
									</keyframe>
								</parameter>
							</effect>
						</filter>
						<link>
							<linkclipref>clipitem-633</linkclipref>
							<mediatype>video</mediatype>
							<trackindex>1</trackindex>
							<clipindex>47</clipindex>
						</link>
						<link>
							<linkclipref>clipitem-885</linkclipref>
							<mediatype>audio</mediatype>
							<trackindex>1</trackindex>
							<clipindex>33</clipindex>
							<groupindex>1</groupindex>
						</link>
						<link>
							<linkclipref>clipitem-920</linkclipref>
							<mediatype>audio</mediatype>
							<trackindex>2</trackindex>
							<clipindex>33</clipindex>
							<groupindex>1</groupindex>
						</link>
						<logginginfo>
							<description></description>
							<scene></scene>
							<shottake></shottake>
							<lognote></lognote>
							<good></good>
							<originalvideofilename></originalvideofilename>
							<originalaudiofilename></originalaudiofilename>
						</logginginfo>
						<colorinfo>
							<lut></lut>
							<lut1></lut1>
							<asc_sop></asc_sop>
							<asc_sat></asc_sat>
							<lut2></lut2>
						</colorinfo>
						<labels>
							<label2>Iris</label2>
						</labels>
					</clipitem>
					<clipitem id="clipitem-921" premiereChannelType="stereo">
						<masterclipid>masterclip-250</masterclipid>
						<name>MYZ_RusskiyChart_OtbivkaMini_h264_v2.mp4</name>
						<enabled>TRUE</enabled>
						<duration>74</duration>
						<rate>
							<timebase>25</timebase>
							<ntsc>FALSE</ntsc>
						</rate>
						<start>65117</start>
						<end>65177</end>
						<in>0</in>
						<out>60</out>
						<pproTicksIn>0</pproTicksIn>
						<pproTicksOut>609638400000</pproTicksOut>
						<file id="file-218"/>
						<sourcetrack>
							<mediatype>audio</mediatype>
							<trackindex>2</trackindex>
						</sourcetrack>
						<filter>
							<effect>
								<name>Audio Levels</name>
								<effectid>audiolevels</effectid>
								<effectcategory>audiolevels</effectcategory>
								<effecttype>audiolevels</effecttype>
								<mediatype>audio</mediatype>
								<pproBypass>false</pproBypass>
								<parameter authoringApp="PremierePro">
									<parameterid>level</parameterid>
									<name>Level</name>
									<valuemin>0</valuemin>
									<valuemax>3.98109</valuemax>
									<value>0.251189</value>
									<keyframe>
										<when>60</when>
										<value>0.251189</value>
									</keyframe>
									<keyframe>
										<when>70</when>
										<value>0.258297</value>
									</keyframe>
								</parameter>
							</effect>
						</filter>
						<link>
							<linkclipref>clipitem-634</linkclipref>
							<mediatype>video</mediatype>
							<trackindex>1</trackindex>
							<clipindex>48</clipindex>
						</link>
						<link>
							<linkclipref>clipitem-886</linkclipref>
							<mediatype>audio</mediatype>
							<trackindex>1</trackindex>
							<clipindex>34</clipindex>
							<groupindex>1</groupindex>
						</link>
						<link>
							<linkclipref>clipitem-921</linkclipref>
							<mediatype>audio</mediatype>
							<trackindex>2</trackindex>
							<clipindex>34</clipindex>
							<groupindex>1</groupindex>
						</link>
						<logginginfo>
							<description></description>
							<scene></scene>
							<shottake></shottake>
							<lognote></lognote>
							<good></good>
							<originalvideofilename></originalvideofilename>
							<originalaudiofilename></originalaudiofilename>
						</logginginfo>
						<colorinfo>
							<lut></lut>
							<lut1></lut1>
							<asc_sop></asc_sop>
							<asc_sat></asc_sat>
							<lut2></lut2>
						</colorinfo>
						<labels>
							<label2>Purple</label2>
						</labels>
					</clipitem>
					<clipitem id="clipitem-922" premiereChannelType="stereo">
						<masterclipid>masterclip-244</masterclipid>
						<name>Nested Sequence_470</name>
						<enabled>TRUE</enabled>
						<duration>13650</duration>
						<rate>
							<timebase>25</timebase>
							<ntsc>FALSE</ntsc>
						</rate>
						<start>65177</start>
						<end>65740</end>
						<in>12135</in>
						<out>12698</out>
						<pproTicksIn>123299366400000</pproTicksIn>
						<pproTicksOut>129019806720000</pproTicksOut>
						<sequence id="sequence-36"/>
						<sourcetrack>
							<mediatype>audio</mediatype>
							<trackindex>1</trackindex>
						</sourcetrack>
						<filter>
							<effect>
								<name>Audio Levels</name>
								<effectid>audiolevels</effectid>
								<effectcategory>audiolevels</effectcategory>
								<effecttype>audiolevels</effecttype>
								<mediatype>audio</mediatype>
								<pproBypass>false</pproBypass>
								<parameter authoringApp="PremierePro">
									<parameterid>level</parameterid>
									<name>Level</name>
									<valuemin>0</valuemin>
									<valuemax>3.98109</valuemax>
									<value>0</value>
									<keyframe>
										<when>12</when>
										<value>0</value>
									</keyframe>
									<keyframe>
										<when>13</when>
										<value>0</value>
									</keyframe>
									<keyframe>
										<when>1191</when>
										<value>0</value>
									</keyframe>
									<keyframe>
										<when>1194</when>
										<value>0</value>
									</keyframe>
									<keyframe>
										<when>2032</when>
										<value>0</value>
									</keyframe>
									<keyframe>
										<when>2034</when>
										<value>0</value>
									</keyframe>
									<keyframe>
										<when>2927</when>
										<value>0</value>
									</keyframe>
									<keyframe>
										<when>2929</when>
										<value>0</value>
									</keyframe>
									<keyframe>
										<when>4135</when>
										<value>0</value>
									</keyframe>
									<keyframe>
										<when>4138</when>
										<value>0</value>
									</keyframe>
									<keyframe>
										<when>5292</when>
										<value>0</value>
									</keyframe>
									<keyframe>
										<when>5293</when>
										<value>0</value>
									</keyframe>
									<keyframe>
										<when>6187</when>
										<value>0</value>
									</keyframe>
									<keyframe>
										<when>6188</when>
										<value>0</value>
									</keyframe>
									<keyframe>
										<when>7428</when>
										<value>0</value>
									</keyframe>
									<keyframe>
										<when>7431</when>
										<value>0</value>
									</keyframe>
									<keyframe>
										<when>9047</when>
										<value>0</value>
									</keyframe>
									<keyframe>
										<when>9049</when>
										<value>0</value>
									</keyframe>
									<keyframe>
										<when>10117</when>
										<value>0</value>
									</keyframe>
									<keyframe>
										<when>10119</when>
										<value>0</value>
									</keyframe>
									<keyframe>
										<when>11138</when>
										<value>0</value>
									</keyframe>
									<keyframe>
										<when>11140</when>
										<value>0</value>
									</keyframe>
									<keyframe>
										<when>12137</when>
										<value>0</value>
									</keyframe>
									<keyframe>
										<when>12138</when>
										<value>1</value>
									</keyframe>
								</parameter>
							</effect>
						</filter>
						<link>
							<linkclipref>clipitem-635</linkclipref>
							<mediatype>video</mediatype>
							<trackindex>1</trackindex>
							<clipindex>49</clipindex>
						</link>
						<link>
							<linkclipref>clipitem-887</linkclipref>
							<mediatype>audio</mediatype>
							<trackindex>1</trackindex>
							<clipindex>35</clipindex>
							<groupindex>1</groupindex>
						</link>
						<link>
							<linkclipref>clipitem-922</linkclipref>
							<mediatype>audio</mediatype>
							<trackindex>2</trackindex>
							<clipindex>35</clipindex>
							<groupindex>1</groupindex>
						</link>
						<labels>
							<label2>Forest</label2>
						</labels>
					</clipitem>
					<enabled>TRUE</enabled>
					<locked>FALSE</locked>
					<outputchannelindex>2</outputchannelindex>
				</track>
				<track TL.SQTrackAudioKeyframeStyle="0" TL.SQTrackShy="0" TL.SQTrackExpandedHeight="15" TL.SQTrackExpanded="0" MZ.TrackTargeted="0" PannerCurrentValue="0.5" PannerIsInverted="true" PannerStartKeyframe="-91445760000000000,0.5,0,0,0,0,0,0" PannerName="Balance" currentExplodedTrackIndex="0" totalExplodedTrackCount="2" premiereTrackType="Stereo">
					<clipitem id="clipitem-923" premiereChannelType="stereo">
						<masterclipid>masterclip-416</masterclipid>
						<name>OTB_Sound-1.aif</name>
						<enabled>TRUE</enabled>
						<duration>151</duration>
						<rate>
							<timebase>25</timebase>
							<ntsc>FALSE</ntsc>
						</rate>
						<start>1377</start>
						<end>1522</end>
						<in>6</in>
						<out>151</out>
						<pproTicksIn>60963840000</pproTicksIn>
						<pproTicksOut>1534256640000</pproTicksOut>
						<file id="file-356">
							<name>OTB_Sound-1.aif</name>
							<pathurl>file://localhost/Volumes/1Tb/_MUZ_TV/graphika/RU-21/MOD/OTB_Sound-1.aif</pathurl>
							<rate>
								<timebase>25</timebase>
								<ntsc>FALSE</ntsc>
							</rate>
							<duration>151</duration>
							<timecode>
								<rate>
									<timebase>25</timebase>
									<ntsc>FALSE</ntsc>
								</rate>
								<string>00:08:37:15</string>
								<frame>12940</frame>
								<displayformat>NDF</displayformat>
							</timecode>
							<media>
								<audio>
									<samplecharacteristics>
										<depth>16</depth>
										<samplerate>48000</samplerate>
									</samplecharacteristics>
									<channelcount>2</channelcount>
								</audio>
							</media>
						</file>
						<sourcetrack>
							<mediatype>audio</mediatype>
							<trackindex>1</trackindex>
						</sourcetrack>
						<filter>
							<effect>
								<name>Audio Levels</name>
								<effectid>audiolevels</effectid>
								<effectcategory>audiolevels</effectcategory>
								<effecttype>audiolevels</effecttype>
								<mediatype>audio</mediatype>
								<pproBypass>false</pproBypass>
								<parameter authoringApp="PremierePro">
									<parameterid>level</parameterid>
									<name>Level</name>
									<valuemin>0</valuemin>
									<valuemax>3.98109</valuemax>
									<value>1</value>
									<keyframe>
										<when>97</when>
										<value>1</value>
									</keyframe>
									<keyframe>
										<when>125</when>
										<value>0.228798</value>
									</keyframe>
								</parameter>
							</effect>
						</filter>
							<marker>
								<comment></comment>
								<name></name>
								<in>106</in>
								<out>-1</out>
								<pproColor>4294967295</pproColor>
							</marker>
							<marker>
								<comment></comment>
								<name></name>
								<in>31</in>
								<out>-1</out>
								<pproColor>4294967295</pproColor>
							</marker>
						<link>
							<linkclipref>clipitem-923</linkclipref>
							<mediatype>audio</mediatype>
							<trackindex>3</trackindex>
							<clipindex>1</clipindex>
							<groupindex>1</groupindex>
						</link>
						<link>
							<linkclipref>clipitem-937</linkclipref>
							<mediatype>audio</mediatype>
							<trackindex>4</trackindex>
							<clipindex>1</clipindex>
							<groupindex>1</groupindex>
						</link>
						<logginginfo>
							<description></description>
							<scene></scene>
							<shottake></shottake>
							<lognote></lognote>
							<good></good>
							<originalvideofilename></originalvideofilename>
							<originalaudiofilename></originalaudiofilename>
						</logginginfo>
						<colorinfo>
							<lut></lut>
							<lut1></lut1>
							<asc_sop></asc_sop>
							<asc_sat></asc_sat>
							<lut2></lut2>
						</colorinfo>
						<labels>
							<label2>Caribbean</label2>
						</labels>
					</clipitem>
					<clipitem id="clipitem-924" premiereChannelType="stereo">
						<masterclipid>masterclip-417</masterclipid>
						<name>OTB_Sound-1.aif</name>
						<enabled>TRUE</enabled>
						<duration>151</duration>
						<rate>
							<timebase>25</timebase>
							<ntsc>FALSE</ntsc>
						</rate>
						<start>5146</start>
						<end>5291</end>
						<in>6</in>
						<out>151</out>
						<pproTicksIn>60963840000</pproTicksIn>
						<pproTicksOut>1534256640000</pproTicksOut>
						<file id="file-357">
							<name>OTB_Sound-1.aif</name>
							<pathurl>file://localhost/Volumes/1Tb/_MUZ_TV/graphika/RU-21/MOD/OTB_Sound-1.aif</pathurl>
							<rate>
								<timebase>25</timebase>
								<ntsc>FALSE</ntsc>
							</rate>
							<duration>151</duration>
							<timecode>
								<rate>
									<timebase>25</timebase>
									<ntsc>FALSE</ntsc>
								</rate>
								<string>00:08:37:15</string>
								<frame>12940</frame>
								<displayformat>NDF</displayformat>
							</timecode>
							<media>
								<audio>
									<samplecharacteristics>
										<depth>16</depth>
										<samplerate>48000</samplerate>
									</samplecharacteristics>
									<channelcount>2</channelcount>
								</audio>
							</media>
						</file>
						<sourcetrack>
							<mediatype>audio</mediatype>
							<trackindex>1</trackindex>
						</sourcetrack>
						<filter>
							<effect>
								<name>Audio Levels</name>
								<effectid>audiolevels</effectid>
								<effectcategory>audiolevels</effectcategory>
								<effecttype>audiolevels</effecttype>
								<mediatype>audio</mediatype>
								<pproBypass>false</pproBypass>
								<parameter authoringApp="PremierePro">
									<parameterid>level</parameterid>
									<name>Level</name>
									<valuemin>0</valuemin>
									<valuemax>3.98109</valuemax>
									<value>1</value>
									<keyframe>
										<when>97</when>
										<value>1</value>
									</keyframe>
									<keyframe>
										<when>125</when>
										<value>1</value>
									</keyframe>
								</parameter>
							</effect>
						</filter>
							<marker>
								<comment></comment>
								<name></name>
								<in>31</in>
								<out>-1</out>
								<pproColor>4294967295</pproColor>
							</marker>
							<marker>
								<comment></comment>
								<name></name>
								<in>106</in>
								<out>-1</out>
								<pproColor>4294967295</pproColor>
							</marker>
						<link>
							<linkclipref>clipitem-924</linkclipref>
							<mediatype>audio</mediatype>
							<trackindex>3</trackindex>
							<clipindex>2</clipindex>
							<groupindex>1</groupindex>
						</link>
						<link>
							<linkclipref>clipitem-938</linkclipref>
							<mediatype>audio</mediatype>
							<trackindex>4</trackindex>
							<clipindex>2</clipindex>
							<groupindex>1</groupindex>
						</link>
						<logginginfo>
							<description></description>
							<scene></scene>
							<shottake></shottake>
							<lognote></lognote>
							<good></good>
							<originalvideofilename></originalvideofilename>
							<originalaudiofilename></originalaudiofilename>
						</logginginfo>
						<colorinfo>
							<lut></lut>
							<lut1></lut1>
							<asc_sop></asc_sop>
							<asc_sat></asc_sat>
							<lut2></lut2>
						</colorinfo>
						<labels>
							<label2>Caribbean</label2>
						</labels>
					</clipitem>
					<clipitem id="clipitem-925" premiereChannelType="stereo">
						<masterclipid>masterclip-418</masterclipid>
						<name>OTB_Sound-1.aif</name>
						<enabled>TRUE</enabled>
						<duration>151</duration>
						<rate>
							<timebase>25</timebase>
							<ntsc>FALSE</ntsc>
						</rate>
						<start>9215</start>
						<end>9366</end>
						<in>0</in>
						<out>151</out>
						<pproTicksIn>0</pproTicksIn>
						<pproTicksOut>1534256640000</pproTicksOut>
						<file id="file-358">
							<name>OTB_Sound-1.aif</name>
							<pathurl>file://localhost/Volumes/1Tb/_MUZ_TV/graphika/RU-21/MOD/OTB_Sound-1.aif</pathurl>
							<rate>
								<timebase>25</timebase>
								<ntsc>FALSE</ntsc>
							</rate>
							<duration>151</duration>
							<timecode>
								<rate>
									<timebase>25</timebase>
									<ntsc>FALSE</ntsc>
								</rate>
								<string>00:08:37:15</string>
								<frame>12940</frame>
								<displayformat>NDF</displayformat>
							</timecode>
							<media>
								<audio>
									<samplecharacteristics>
										<depth>16</depth>
										<samplerate>48000</samplerate>
									</samplecharacteristics>
									<channelcount>2</channelcount>
								</audio>
							</media>
						</file>
						<sourcetrack>
							<mediatype>audio</mediatype>
							<trackindex>1</trackindex>
						</sourcetrack>
						<filter>
							<effect>
								<name>Audio Levels</name>
								<effectid>audiolevels</effectid>
								<effectcategory>audiolevels</effectcategory>
								<effecttype>audiolevels</effecttype>
								<mediatype>audio</mediatype>
								<pproBypass>false</pproBypass>
								<parameter authoringApp="PremierePro">
									<parameterid>level</parameterid>
									<name>Level</name>
									<valuemin>0</valuemin>
									<valuemax>3.98109</valuemax>
									<value>1</value>
									<keyframe>
										<when>97</when>
										<value>1</value>
									</keyframe>
									<keyframe>
										<when>125</when>
										<value>1</value>
									</keyframe>
								</parameter>
							</effect>
						</filter>
							<marker>
								<comment></comment>
								<name></name>
								<in>31</in>
								<out>-1</out>
								<pproColor>4294967295</pproColor>
							</marker>
							<marker>
								<comment></comment>
								<name></name>
								<in>106</in>
								<out>-1</out>
								<pproColor>4294967295</pproColor>
							</marker>
						<link>
							<linkclipref>clipitem-925</linkclipref>
							<mediatype>audio</mediatype>
							<trackindex>3</trackindex>
							<clipindex>3</clipindex>
							<groupindex>1</groupindex>
						</link>
						<link>
							<linkclipref>clipitem-939</linkclipref>
							<mediatype>audio</mediatype>
							<trackindex>4</trackindex>
							<clipindex>3</clipindex>
							<groupindex>1</groupindex>
						</link>
						<logginginfo>
							<description></description>
							<scene></scene>
							<shottake></shottake>
							<lognote></lognote>
							<good></good>
							<originalvideofilename></originalvideofilename>
							<originalaudiofilename></originalaudiofilename>
						</logginginfo>
						<colorinfo>
							<lut></lut>
							<lut1></lut1>
							<asc_sop></asc_sop>
							<asc_sat></asc_sat>
							<lut2></lut2>
						</colorinfo>
						<labels>
							<label2>Caribbean</label2>
						</labels>
					</clipitem>
					<clipitem id="clipitem-926" premiereChannelType="stereo">
						<masterclipid>masterclip-419</masterclipid>
						<name>OTB_Sound-1.aif</name>
						<enabled>TRUE</enabled>
						<duration>151</duration>
						<rate>
							<timebase>25</timebase>
							<ntsc>FALSE</ntsc>
						</rate>
						<start>14168</start>
						<end>14313</end>
						<in>6</in>
						<out>151</out>
						<pproTicksIn>60963840000</pproTicksIn>
						<pproTicksOut>1534256640000</pproTicksOut>
						<file id="file-359">
							<name>OTB_Sound-1.aif</name>
							<pathurl>file://localhost/Volumes/1Tb/_MUZ_TV/graphika/RU-21/MOD/OTB_Sound-1.aif</pathurl>
							<rate>
								<timebase>25</timebase>
								<ntsc>FALSE</ntsc>
							</rate>
							<duration>151</duration>
							<timecode>
								<rate>
									<timebase>25</timebase>
									<ntsc>FALSE</ntsc>
								</rate>
								<string>00:08:37:15</string>
								<frame>12940</frame>
								<displayformat>NDF</displayformat>
							</timecode>
							<media>
								<audio>
									<samplecharacteristics>
										<depth>16</depth>
										<samplerate>48000</samplerate>
									</samplecharacteristics>
									<channelcount>2</channelcount>
								</audio>
							</media>
						</file>
						<sourcetrack>
							<mediatype>audio</mediatype>
							<trackindex>1</trackindex>
						</sourcetrack>
						<filter>
							<effect>
								<name>Audio Levels</name>
								<effectid>audiolevels</effectid>
								<effectcategory>audiolevels</effectcategory>
								<effecttype>audiolevels</effecttype>
								<mediatype>audio</mediatype>
								<pproBypass>false</pproBypass>
								<parameter authoringApp="PremierePro">
									<parameterid>level</parameterid>
									<name>Level</name>
									<valuemin>0</valuemin>
									<valuemax>3.98109</valuemax>
									<value>1</value>
									<keyframe>
										<when>97</when>
										<value>1</value>
									</keyframe>
									<keyframe>
										<when>125</when>
										<value>1</value>
									</keyframe>
								</parameter>
							</effect>
						</filter>
							<marker>
								<comment></comment>
								<name></name>
								<in>106</in>
								<out>-1</out>
								<pproColor>4294967295</pproColor>
							</marker>
							<marker>
								<comment></comment>
								<name></name>
								<in>31</in>
								<out>-1</out>
								<pproColor>4294967295</pproColor>
							</marker>
						<link>
							<linkclipref>clipitem-926</linkclipref>
							<mediatype>audio</mediatype>
							<trackindex>3</trackindex>
							<clipindex>4</clipindex>
							<groupindex>1</groupindex>
						</link>
						<link>
							<linkclipref>clipitem-940</linkclipref>
							<mediatype>audio</mediatype>
							<trackindex>4</trackindex>
							<clipindex>4</clipindex>
							<groupindex>1</groupindex>
						</link>
						<logginginfo>
							<description></description>
							<scene></scene>
							<shottake></shottake>
							<lognote></lognote>
							<good></good>
							<originalvideofilename></originalvideofilename>
							<originalaudiofilename></originalaudiofilename>
						</logginginfo>
						<colorinfo>
							<lut></lut>
							<lut1></lut1>
							<asc_sop></asc_sop>
							<asc_sat></asc_sat>
							<lut2></lut2>
						</colorinfo>
						<labels>
							<label2>Caribbean</label2>
						</labels>
					</clipitem>
					<clipitem id="clipitem-927" premiereChannelType="stereo">
						<masterclipid>masterclip-420</masterclipid>
						<name>OTB_Sound-1.aif</name>
						<enabled>TRUE</enabled>
						<duration>151</duration>
						<rate>
							<timebase>25</timebase>
							<ntsc>FALSE</ntsc>
						</rate>
						<start>18718</start>
						<end>18863</end>
						<in>6</in>
						<out>151</out>
						<pproTicksIn>60963840000</pproTicksIn>
						<pproTicksOut>1534256640000</pproTicksOut>
						<file id="file-360">
							<name>OTB_Sound-1.aif</name>
							<pathurl>file://localhost/Volumes/1Tb/_MUZ_TV/graphika/RU-21/MOD/OTB_Sound-1.aif</pathurl>
							<rate>
								<timebase>25</timebase>
								<ntsc>FALSE</ntsc>
							</rate>
							<duration>151</duration>
							<timecode>
								<rate>
									<timebase>25</timebase>
									<ntsc>FALSE</ntsc>
								</rate>
								<string>00:08:37:15</string>
								<frame>12940</frame>
								<displayformat>NDF</displayformat>
							</timecode>
							<media>
								<audio>
									<samplecharacteristics>
										<depth>16</depth>
										<samplerate>48000</samplerate>
									</samplecharacteristics>
									<channelcount>2</channelcount>
								</audio>
							</media>
						</file>
						<sourcetrack>
							<mediatype>audio</mediatype>
							<trackindex>1</trackindex>
						</sourcetrack>
						<filter>
							<effect>
								<name>Audio Levels</name>
								<effectid>audiolevels</effectid>
								<effectcategory>audiolevels</effectcategory>
								<effecttype>audiolevels</effecttype>
								<mediatype>audio</mediatype>
								<pproBypass>false</pproBypass>
								<parameter authoringApp="PremierePro">
									<parameterid>level</parameterid>
									<name>Level</name>
									<valuemin>0</valuemin>
									<valuemax>3.98109</valuemax>
									<value>1</value>
									<keyframe>
										<when>97</when>
										<value>1</value>
									</keyframe>
									<keyframe>
										<when>125</when>
										<value>1</value>
									</keyframe>
								</parameter>
							</effect>
						</filter>
							<marker>
								<comment></comment>
								<name></name>
								<in>106</in>
								<out>-1</out>
								<pproColor>4294967295</pproColor>
							</marker>
							<marker>
								<comment></comment>
								<name></name>
								<in>31</in>
								<out>-1</out>
								<pproColor>4294967295</pproColor>
							</marker>
						<link>
							<linkclipref>clipitem-927</linkclipref>
							<mediatype>audio</mediatype>
							<trackindex>3</trackindex>
							<clipindex>5</clipindex>
							<groupindex>1</groupindex>
						</link>
						<link>
							<linkclipref>clipitem-941</linkclipref>
							<mediatype>audio</mediatype>
							<trackindex>4</trackindex>
							<clipindex>5</clipindex>
							<groupindex>1</groupindex>
						</link>
						<logginginfo>
							<description></description>
							<scene></scene>
							<shottake></shottake>
							<lognote></lognote>
							<good></good>
							<originalvideofilename></originalvideofilename>
							<originalaudiofilename></originalaudiofilename>
						</logginginfo>
						<colorinfo>
							<lut></lut>
							<lut1></lut1>
							<asc_sop></asc_sop>
							<asc_sat></asc_sat>
							<lut2></lut2>
						</colorinfo>
						<labels>
							<label2>Caribbean</label2>
						</labels>
					</clipitem>
					<clipitem id="clipitem-928" premiereChannelType="stereo">
						<masterclipid>masterclip-421</masterclipid>
						<name>OTB_Sound-1.aif</name>
						<enabled>TRUE</enabled>
						<duration>151</duration>
						<rate>
							<timebase>25</timebase>
							<ntsc>FALSE</ntsc>
						</rate>
						<start>23865</start>
						<end>24010</end>
						<in>6</in>
						<out>151</out>
						<pproTicksIn>60963840000</pproTicksIn>
						<pproTicksOut>1534256640000</pproTicksOut>
						<file id="file-361">
							<name>OTB_Sound-1.aif</name>
							<pathurl>file://localhost/Volumes/1Tb/_MUZ_TV/graphika/RU-21/MOD/OTB_Sound-1.aif</pathurl>
							<rate>
								<timebase>25</timebase>
								<ntsc>FALSE</ntsc>
							</rate>
							<duration>151</duration>
							<timecode>
								<rate>
									<timebase>25</timebase>
									<ntsc>FALSE</ntsc>
								</rate>
								<string>00:08:37:15</string>
								<frame>12940</frame>
								<displayformat>NDF</displayformat>
							</timecode>
							<media>
								<audio>
									<samplecharacteristics>
										<depth>16</depth>
										<samplerate>48000</samplerate>
									</samplecharacteristics>
									<channelcount>2</channelcount>
								</audio>
							</media>
						</file>
						<sourcetrack>
							<mediatype>audio</mediatype>
							<trackindex>1</trackindex>
						</sourcetrack>
						<filter>
							<effect>
								<name>Audio Levels</name>
								<effectid>audiolevels</effectid>
								<effectcategory>audiolevels</effectcategory>
								<effecttype>audiolevels</effecttype>
								<mediatype>audio</mediatype>
								<pproBypass>false</pproBypass>
								<parameter authoringApp="PremierePro">
									<parameterid>level</parameterid>
									<name>Level</name>
									<valuemin>0</valuemin>
									<valuemax>3.98109</valuemax>
									<value>1</value>
									<keyframe>
										<when>97</when>
										<value>1</value>
									</keyframe>
									<keyframe>
										<when>125</when>
										<value>1</value>
									</keyframe>
								</parameter>
							</effect>
						</filter>
							<marker>
								<comment></comment>
								<name></name>
								<in>106</in>
								<out>-1</out>
								<pproColor>4294967295</pproColor>
							</marker>
							<marker>
								<comment></comment>
								<name></name>
								<in>31</in>
								<out>-1</out>
								<pproColor>4294967295</pproColor>
							</marker>
						<link>
							<linkclipref>clipitem-928</linkclipref>
							<mediatype>audio</mediatype>
							<trackindex>3</trackindex>
							<clipindex>6</clipindex>
							<groupindex>1</groupindex>
						</link>
						<link>
							<linkclipref>clipitem-942</linkclipref>
							<mediatype>audio</mediatype>
							<trackindex>4</trackindex>
							<clipindex>6</clipindex>
							<groupindex>1</groupindex>
						</link>
						<logginginfo>
							<description></description>
							<scene></scene>
							<shottake></shottake>
							<lognote></lognote>
							<good></good>
							<originalvideofilename></originalvideofilename>
							<originalaudiofilename></originalaudiofilename>
						</logginginfo>
						<colorinfo>
							<lut></lut>
							<lut1></lut1>
							<asc_sop></asc_sop>
							<asc_sat></asc_sat>
							<lut2></lut2>
						</colorinfo>
						<labels>
							<label2>Caribbean</label2>
						</labels>
					</clipitem>
					<clipitem id="clipitem-929" premiereChannelType="stereo">
						<masterclipid>masterclip-422</masterclipid>
						<name>OTB_Sound-1.aif</name>
						<enabled>TRUE</enabled>
						<duration>151</duration>
						<rate>
							<timebase>25</timebase>
							<ntsc>FALSE</ntsc>
						</rate>
						<start>27909</start>
						<end>28054</end>
						<in>6</in>
						<out>151</out>
						<pproTicksIn>60963840000</pproTicksIn>
						<pproTicksOut>1534256640000</pproTicksOut>
						<file id="file-362">
							<name>OTB_Sound-1.aif</name>
							<pathurl>file://localhost/Volumes/1Tb/_MUZ_TV/graphika/RU-21/MOD/OTB_Sound-1.aif</pathurl>
							<rate>
								<timebase>25</timebase>
								<ntsc>FALSE</ntsc>
							</rate>
							<duration>151</duration>
							<timecode>
								<rate>
									<timebase>25</timebase>
									<ntsc>FALSE</ntsc>
								</rate>
								<string>00:08:37:15</string>
								<frame>12940</frame>
								<displayformat>NDF</displayformat>
							</timecode>
							<media>
								<audio>
									<samplecharacteristics>
										<depth>16</depth>
										<samplerate>48000</samplerate>
									</samplecharacteristics>
									<channelcount>2</channelcount>
								</audio>
							</media>
						</file>
						<sourcetrack>
							<mediatype>audio</mediatype>
							<trackindex>1</trackindex>
						</sourcetrack>
						<filter>
							<effect>
								<name>Audio Levels</name>
								<effectid>audiolevels</effectid>
								<effectcategory>audiolevels</effectcategory>
								<effecttype>audiolevels</effecttype>
								<mediatype>audio</mediatype>
								<pproBypass>false</pproBypass>
								<parameter authoringApp="PremierePro">
									<parameterid>level</parameterid>
									<name>Level</name>
									<valuemin>0</valuemin>
									<valuemax>3.98109</valuemax>
									<value>1</value>
									<keyframe>
										<when>97</when>
										<value>1</value>
									</keyframe>
									<keyframe>
										<when>125</when>
										<value>1</value>
									</keyframe>
								</parameter>
							</effect>
						</filter>
							<marker>
								<comment></comment>
								<name></name>
								<in>106</in>
								<out>-1</out>
								<pproColor>4294967295</pproColor>
							</marker>
							<marker>
								<comment></comment>
								<name></name>
								<in>31</in>
								<out>-1</out>
								<pproColor>4294967295</pproColor>
							</marker>
						<link>
							<linkclipref>clipitem-929</linkclipref>
							<mediatype>audio</mediatype>
							<trackindex>3</trackindex>
							<clipindex>7</clipindex>
							<groupindex>1</groupindex>
						</link>
						<link>
							<linkclipref>clipitem-943</linkclipref>
							<mediatype>audio</mediatype>
							<trackindex>4</trackindex>
							<clipindex>7</clipindex>
							<groupindex>1</groupindex>
						</link>
						<logginginfo>
							<description></description>
							<scene></scene>
							<shottake></shottake>
							<lognote></lognote>
							<good></good>
							<originalvideofilename></originalvideofilename>
							<originalaudiofilename></originalaudiofilename>
						</logginginfo>
						<colorinfo>
							<lut></lut>
							<lut1></lut1>
							<asc_sop></asc_sop>
							<asc_sat></asc_sat>
							<lut2></lut2>
						</colorinfo>
						<labels>
							<label2>Caribbean</label2>
						</labels>
					</clipitem>
					<clipitem id="clipitem-930" premiereChannelType="stereo">
						<masterclipid>masterclip-423</masterclipid>
						<name>OTB_Sound-1.aif</name>
						<enabled>TRUE</enabled>
						<duration>151</duration>
						<rate>
							<timebase>25</timebase>
							<ntsc>FALSE</ntsc>
						</rate>
						<start>32943</start>
						<end>33088</end>
						<in>6</in>
						<out>151</out>
						<pproTicksIn>60963840000</pproTicksIn>
						<pproTicksOut>1534256640000</pproTicksOut>
						<file id="file-363">
							<name>OTB_Sound-1.aif</name>
							<pathurl>file://localhost/Volumes/1Tb/_MUZ_TV/graphika/RU-21/MOD/OTB_Sound-1.aif</pathurl>
							<rate>
								<timebase>25</timebase>
								<ntsc>FALSE</ntsc>
							</rate>
							<duration>151</duration>
							<timecode>
								<rate>
									<timebase>25</timebase>
									<ntsc>FALSE</ntsc>
								</rate>
								<string>00:08:37:15</string>
								<frame>12940</frame>
								<displayformat>NDF</displayformat>
							</timecode>
							<media>
								<audio>
									<samplecharacteristics>
										<depth>16</depth>
										<samplerate>48000</samplerate>
									</samplecharacteristics>
									<channelcount>2</channelcount>
								</audio>
							</media>
						</file>
						<sourcetrack>
							<mediatype>audio</mediatype>
							<trackindex>1</trackindex>
						</sourcetrack>
						<filter>
							<effect>
								<name>Audio Levels</name>
								<effectid>audiolevels</effectid>
								<effectcategory>audiolevels</effectcategory>
								<effecttype>audiolevels</effecttype>
								<mediatype>audio</mediatype>
								<pproBypass>false</pproBypass>
								<parameter authoringApp="PremierePro">
									<parameterid>level</parameterid>
									<name>Level</name>
									<valuemin>0</valuemin>
									<valuemax>3.98109</valuemax>
									<value>1</value>
									<keyframe>
										<when>97</when>
										<value>1</value>
									</keyframe>
									<keyframe>
										<when>125</when>
										<value>1</value>
									</keyframe>
								</parameter>
							</effect>
						</filter>
							<marker>
								<comment></comment>
								<name></name>
								<in>106</in>
								<out>-1</out>
								<pproColor>4294967295</pproColor>
							</marker>
							<marker>
								<comment></comment>
								<name></name>
								<in>31</in>
								<out>-1</out>
								<pproColor>4294967295</pproColor>
							</marker>
						<link>
							<linkclipref>clipitem-930</linkclipref>
							<mediatype>audio</mediatype>
							<trackindex>3</trackindex>
							<clipindex>8</clipindex>
							<groupindex>1</groupindex>
						</link>
						<link>
							<linkclipref>clipitem-944</linkclipref>
							<mediatype>audio</mediatype>
							<trackindex>4</trackindex>
							<clipindex>8</clipindex>
							<groupindex>1</groupindex>
						</link>
						<logginginfo>
							<description></description>
							<scene></scene>
							<shottake></shottake>
							<lognote></lognote>
							<good></good>
							<originalvideofilename></originalvideofilename>
							<originalaudiofilename></originalaudiofilename>
						</logginginfo>
						<colorinfo>
							<lut></lut>
							<lut1></lut1>
							<asc_sop></asc_sop>
							<asc_sat></asc_sat>
							<lut2></lut2>
						</colorinfo>
						<labels>
							<label2>Caribbean</label2>
						</labels>
					</clipitem>
					<clipitem id="clipitem-931" premiereChannelType="stereo">
						<masterclipid>masterclip-424</masterclipid>
						<name>OTB_Sound-1.aif</name>
						<enabled>TRUE</enabled>
						<duration>151</duration>
						<rate>
							<timebase>25</timebase>
							<ntsc>FALSE</ntsc>
						</rate>
						<start>38122</start>
						<end>38267</end>
						<in>6</in>
						<out>151</out>
						<pproTicksIn>60963840000</pproTicksIn>
						<pproTicksOut>1534256640000</pproTicksOut>
						<file id="file-364">
							<name>OTB_Sound-1.aif</name>
							<pathurl>file://localhost/Volumes/1Tb/_MUZ_TV/graphika/RU-21/MOD/OTB_Sound-1.aif</pathurl>
							<rate>
								<timebase>25</timebase>
								<ntsc>FALSE</ntsc>
							</rate>
							<duration>151</duration>
							<timecode>
								<rate>
									<timebase>25</timebase>
									<ntsc>FALSE</ntsc>
								</rate>
								<string>00:08:37:15</string>
								<frame>12940</frame>
								<displayformat>NDF</displayformat>
							</timecode>
							<media>
								<audio>
									<samplecharacteristics>
										<depth>16</depth>
										<samplerate>48000</samplerate>
									</samplecharacteristics>
									<channelcount>2</channelcount>
								</audio>
							</media>
						</file>
						<sourcetrack>
							<mediatype>audio</mediatype>
							<trackindex>1</trackindex>
						</sourcetrack>
						<filter>
							<effect>
								<name>Audio Levels</name>
								<effectid>audiolevels</effectid>
								<effectcategory>audiolevels</effectcategory>
								<effecttype>audiolevels</effecttype>
								<mediatype>audio</mediatype>
								<pproBypass>false</pproBypass>
								<parameter authoringApp="PremierePro">
									<parameterid>level</parameterid>
									<name>Level</name>
									<valuemin>0</valuemin>
									<valuemax>3.98109</valuemax>
									<value>1</value>
									<keyframe>
										<when>97</when>
										<value>1</value>
									</keyframe>
									<keyframe>
										<when>125</when>
										<value>1</value>
									</keyframe>
								</parameter>
							</effect>
						</filter>
							<marker>
								<comment></comment>
								<name></name>
								<in>106</in>
								<out>-1</out>
								<pproColor>4294967295</pproColor>
							</marker>
							<marker>
								<comment></comment>
								<name></name>
								<in>31</in>
								<out>-1</out>
								<pproColor>4294967295</pproColor>
							</marker>
						<link>
							<linkclipref>clipitem-931</linkclipref>
							<mediatype>audio</mediatype>
							<trackindex>3</trackindex>
							<clipindex>9</clipindex>
							<groupindex>1</groupindex>
						</link>
						<link>
							<linkclipref>clipitem-945</linkclipref>
							<mediatype>audio</mediatype>
							<trackindex>4</trackindex>
							<clipindex>9</clipindex>
							<groupindex>1</groupindex>
						</link>
						<logginginfo>
							<description></description>
							<scene></scene>
							<shottake></shottake>
							<lognote></lognote>
							<good></good>
							<originalvideofilename></originalvideofilename>
							<originalaudiofilename></originalaudiofilename>
						</logginginfo>
						<colorinfo>
							<lut></lut>
							<lut1></lut1>
							<asc_sop></asc_sop>
							<asc_sat></asc_sat>
							<lut2></lut2>
						</colorinfo>
						<labels>
							<label2>Caribbean</label2>
						</labels>
					</clipitem>
					<clipitem id="clipitem-932" premiereChannelType="stereo">
						<masterclipid>masterclip-425</masterclipid>
						<name>OTB_Sound-1.aif</name>
						<enabled>TRUE</enabled>
						<duration>151</duration>
						<rate>
							<timebase>25</timebase>
							<ntsc>FALSE</ntsc>
						</rate>
						<start>44761</start>
						<end>44906</end>
						<in>6</in>
						<out>151</out>
						<pproTicksIn>60963840000</pproTicksIn>
						<pproTicksOut>1534256640000</pproTicksOut>
						<file id="file-365">
							<name>OTB_Sound-1.aif</name>
							<pathurl>file://localhost/Volumes/1Tb/_MUZ_TV/graphika/RU-21/MOD/OTB_Sound-1.aif</pathurl>
							<rate>
								<timebase>25</timebase>
								<ntsc>FALSE</ntsc>
							</rate>
							<duration>151</duration>
							<timecode>
								<rate>
									<timebase>25</timebase>
									<ntsc>FALSE</ntsc>
								</rate>
								<string>00:08:37:15</string>
								<frame>12940</frame>
								<displayformat>NDF</displayformat>
							</timecode>
							<media>
								<audio>
									<samplecharacteristics>
										<depth>16</depth>
										<samplerate>48000</samplerate>
									</samplecharacteristics>
									<channelcount>2</channelcount>
								</audio>
							</media>
						</file>
						<sourcetrack>
							<mediatype>audio</mediatype>
							<trackindex>1</trackindex>
						</sourcetrack>
						<filter>
							<effect>
								<name>Audio Levels</name>
								<effectid>audiolevels</effectid>
								<effectcategory>audiolevels</effectcategory>
								<effecttype>audiolevels</effecttype>
								<mediatype>audio</mediatype>
								<pproBypass>false</pproBypass>
								<parameter authoringApp="PremierePro">
									<parameterid>level</parameterid>
									<name>Level</name>
									<valuemin>0</valuemin>
									<valuemax>3.98109</valuemax>
									<value>1</value>
									<keyframe>
										<when>97</when>
										<value>1</value>
									</keyframe>
									<keyframe>
										<when>125</when>
										<value>1</value>
									</keyframe>
								</parameter>
							</effect>
						</filter>
							<marker>
								<comment></comment>
								<name></name>
								<in>106</in>
								<out>-1</out>
								<pproColor>4294967295</pproColor>
							</marker>
							<marker>
								<comment></comment>
								<name></name>
								<in>31</in>
								<out>-1</out>
								<pproColor>4294967295</pproColor>
							</marker>
						<link>
							<linkclipref>clipitem-932</linkclipref>
							<mediatype>audio</mediatype>
							<trackindex>3</trackindex>
							<clipindex>10</clipindex>
							<groupindex>1</groupindex>
						</link>
						<link>
							<linkclipref>clipitem-946</linkclipref>
							<mediatype>audio</mediatype>
							<trackindex>4</trackindex>
							<clipindex>10</clipindex>
							<groupindex>1</groupindex>
						</link>
						<logginginfo>
							<description></description>
							<scene></scene>
							<shottake></shottake>
							<lognote></lognote>
							<good></good>
							<originalvideofilename></originalvideofilename>
							<originalaudiofilename></originalaudiofilename>
						</logginginfo>
						<colorinfo>
							<lut></lut>
							<lut1></lut1>
							<asc_sop></asc_sop>
							<asc_sat></asc_sat>
							<lut2></lut2>
						</colorinfo>
						<labels>
							<label2>Caribbean</label2>
						</labels>
					</clipitem>
					<clipitem id="clipitem-933" premiereChannelType="stereo">
						<masterclipid>masterclip-426</masterclipid>
						<name>OTB_Sound-1.aif</name>
						<enabled>TRUE</enabled>
						<duration>151</duration>
						<rate>
							<timebase>25</timebase>
							<ntsc>FALSE</ntsc>
						</rate>
						<start>50315</start>
						<end>50460</end>
						<in>6</in>
						<out>151</out>
						<pproTicksIn>60963840000</pproTicksIn>
						<pproTicksOut>1534256640000</pproTicksOut>
						<file id="file-366">
							<name>OTB_Sound-1.aif</name>
							<pathurl>file://localhost/Volumes/1Tb/_MUZ_TV/graphika/RU-21/MOD/OTB_Sound-1.aif</pathurl>
							<rate>
								<timebase>25</timebase>
								<ntsc>FALSE</ntsc>
							</rate>
							<duration>151</duration>
							<timecode>
								<rate>
									<timebase>25</timebase>
									<ntsc>FALSE</ntsc>
								</rate>
								<string>00:08:37:15</string>
								<frame>12940</frame>
								<displayformat>NDF</displayformat>
							</timecode>
							<media>
								<audio>
									<samplecharacteristics>
										<depth>16</depth>
										<samplerate>48000</samplerate>
									</samplecharacteristics>
									<channelcount>2</channelcount>
								</audio>
							</media>
						</file>
						<sourcetrack>
							<mediatype>audio</mediatype>
							<trackindex>1</trackindex>
						</sourcetrack>
						<filter>
							<effect>
								<name>Audio Levels</name>
								<effectid>audiolevels</effectid>
								<effectcategory>audiolevels</effectcategory>
								<effecttype>audiolevels</effecttype>
								<mediatype>audio</mediatype>
								<pproBypass>false</pproBypass>
								<parameter authoringApp="PremierePro">
									<parameterid>level</parameterid>
									<name>Level</name>
									<valuemin>0</valuemin>
									<valuemax>3.98109</valuemax>
									<value>1</value>
									<keyframe>
										<when>97</when>
										<value>1</value>
									</keyframe>
									<keyframe>
										<when>125</when>
										<value>1</value>
									</keyframe>
								</parameter>
							</effect>
						</filter>
							<marker>
								<comment></comment>
								<name></name>
								<in>31</in>
								<out>-1</out>
								<pproColor>4294967295</pproColor>
							</marker>
							<marker>
								<comment></comment>
								<name></name>
								<in>106</in>
								<out>-1</out>
								<pproColor>4294967295</pproColor>
							</marker>
						<link>
							<linkclipref>clipitem-933</linkclipref>
							<mediatype>audio</mediatype>
							<trackindex>3</trackindex>
							<clipindex>11</clipindex>
							<groupindex>1</groupindex>
						</link>
						<link>
							<linkclipref>clipitem-947</linkclipref>
							<mediatype>audio</mediatype>
							<trackindex>4</trackindex>
							<clipindex>11</clipindex>
							<groupindex>1</groupindex>
						</link>
						<logginginfo>
							<description></description>
							<scene></scene>
							<shottake></shottake>
							<lognote></lognote>
							<good></good>
							<originalvideofilename></originalvideofilename>
							<originalaudiofilename></originalaudiofilename>
						</logginginfo>
						<colorinfo>
							<lut></lut>
							<lut1></lut1>
							<asc_sop></asc_sop>
							<asc_sat></asc_sat>
							<lut2></lut2>
						</colorinfo>
						<labels>
							<label2>Caribbean</label2>
						</labels>
					</clipitem>
					<clipitem id="clipitem-934" premiereChannelType="stereo">
						<masterclipid>masterclip-427</masterclipid>
						<name>OTB_Sound-1.aif</name>
						<enabled>TRUE</enabled>
						<duration>151</duration>
						<rate>
							<timebase>25</timebase>
							<ntsc>FALSE</ntsc>
						</rate>
						<start>56960</start>
						<end>57105</end>
						<in>6</in>
						<out>151</out>
						<pproTicksIn>60963840000</pproTicksIn>
						<pproTicksOut>1534256640000</pproTicksOut>
						<file id="file-367">
							<name>OTB_Sound-1.aif</name>
							<pathurl>file://localhost/Volumes/1Tb/_MUZ_TV/graphika/RU-21/MOD/OTB_Sound-1.aif</pathurl>
							<rate>
								<timebase>25</timebase>
								<ntsc>FALSE</ntsc>
							</rate>
							<duration>151</duration>
							<timecode>
								<rate>
									<timebase>25</timebase>
									<ntsc>FALSE</ntsc>
								</rate>
								<string>00:08:37:15</string>
								<frame>12940</frame>
								<displayformat>NDF</displayformat>
							</timecode>
							<media>
								<audio>
									<samplecharacteristics>
										<depth>16</depth>
										<samplerate>48000</samplerate>
									</samplecharacteristics>
									<channelcount>2</channelcount>
								</audio>
							</media>
						</file>
						<sourcetrack>
							<mediatype>audio</mediatype>
							<trackindex>1</trackindex>
						</sourcetrack>
						<filter>
							<effect>
								<name>Audio Levels</name>
								<effectid>audiolevels</effectid>
								<effectcategory>audiolevels</effectcategory>
								<effecttype>audiolevels</effecttype>
								<mediatype>audio</mediatype>
								<pproBypass>false</pproBypass>
								<parameter authoringApp="PremierePro">
									<parameterid>level</parameterid>
									<name>Level</name>
									<valuemin>0</valuemin>
									<valuemax>3.98109</valuemax>
									<value>1</value>
									<keyframe>
										<when>97</when>
										<value>1</value>
									</keyframe>
									<keyframe>
										<when>125</when>
										<value>0.203053</value>
									</keyframe>
								</parameter>
							</effect>
						</filter>
							<marker>
								<comment></comment>
								<name></name>
								<in>106</in>
								<out>-1</out>
								<pproColor>4294967295</pproColor>
							</marker>
							<marker>
								<comment></comment>
								<name></name>
								<in>31</in>
								<out>-1</out>
								<pproColor>4294967295</pproColor>
							</marker>
						<link>
							<linkclipref>clipitem-934</linkclipref>
							<mediatype>audio</mediatype>
							<trackindex>3</trackindex>
							<clipindex>12</clipindex>
							<groupindex>1</groupindex>
						</link>
						<link>
							<linkclipref>clipitem-948</linkclipref>
							<mediatype>audio</mediatype>
							<trackindex>4</trackindex>
							<clipindex>12</clipindex>
							<groupindex>1</groupindex>
						</link>
						<logginginfo>
							<description></description>
							<scene></scene>
							<shottake></shottake>
							<lognote></lognote>
							<good></good>
							<originalvideofilename></originalvideofilename>
							<originalaudiofilename></originalaudiofilename>
						</logginginfo>
						<colorinfo>
							<lut></lut>
							<lut1></lut1>
							<asc_sop></asc_sop>
							<asc_sat></asc_sat>
							<lut2></lut2>
						</colorinfo>
						<labels>
							<label2>Caribbean</label2>
						</labels>
					</clipitem>
					<clipitem id="clipitem-935" premiereChannelType="stereo">
						<masterclipid>masterclip-428</masterclipid>
						<name>OTB_Sound-1.aif</name>
						<enabled>TRUE</enabled>
						<duration>151</duration>
						<rate>
							<timebase>25</timebase>
							<ntsc>FALSE</ntsc>
						</rate>
						<start>61474</start>
						<end>61619</end>
						<in>6</in>
						<out>151</out>
						<pproTicksIn>60963840000</pproTicksIn>
						<pproTicksOut>1534256640000</pproTicksOut>
						<file id="file-368">
							<name>OTB_Sound-1.aif</name>
							<pathurl>file://localhost/Volumes/1Tb/_MUZ_TV/graphika/RU-21/MOD/OTB_Sound-1.aif</pathurl>
							<rate>
								<timebase>25</timebase>
								<ntsc>FALSE</ntsc>
							</rate>
							<duration>151</duration>
							<timecode>
								<rate>
									<timebase>25</timebase>
									<ntsc>FALSE</ntsc>
								</rate>
								<string>00:08:37:15</string>
								<frame>12940</frame>
								<displayformat>NDF</displayformat>
							</timecode>
							<media>
								<audio>
									<samplecharacteristics>
										<depth>16</depth>
										<samplerate>48000</samplerate>
									</samplecharacteristics>
									<channelcount>2</channelcount>
								</audio>
							</media>
						</file>
						<sourcetrack>
							<mediatype>audio</mediatype>
							<trackindex>1</trackindex>
						</sourcetrack>
						<filter>
							<effect>
								<name>Audio Levels</name>
								<effectid>audiolevels</effectid>
								<effectcategory>audiolevels</effectcategory>
								<effecttype>audiolevels</effecttype>
								<mediatype>audio</mediatype>
								<pproBypass>false</pproBypass>
								<parameter authoringApp="PremierePro">
									<parameterid>level</parameterid>
									<name>Level</name>
									<valuemin>0</valuemin>
									<valuemax>3.98109</valuemax>
									<value>1</value>
									<keyframe>
										<when>97</when>
										<value>1</value>
									</keyframe>
									<keyframe>
										<when>125</when>
										<value>1</value>
									</keyframe>
								</parameter>
							</effect>
						</filter>
							<marker>
								<comment></comment>
								<name></name>
								<in>31</in>
								<out>-1</out>
								<pproColor>4294967295</pproColor>
							</marker>
							<marker>
								<comment></comment>
								<name></name>
								<in>106</in>
								<out>-1</out>
								<pproColor>4294967295</pproColor>
							</marker>
						<link>
							<linkclipref>clipitem-935</linkclipref>
							<mediatype>audio</mediatype>
							<trackindex>3</trackindex>
							<clipindex>13</clipindex>
							<groupindex>1</groupindex>
						</link>
						<link>
							<linkclipref>clipitem-949</linkclipref>
							<mediatype>audio</mediatype>
							<trackindex>4</trackindex>
							<clipindex>13</clipindex>
							<groupindex>1</groupindex>
						</link>
						<logginginfo>
							<description></description>
							<scene></scene>
							<shottake></shottake>
							<lognote></lognote>
							<good></good>
							<originalvideofilename></originalvideofilename>
							<originalaudiofilename></originalaudiofilename>
						</logginginfo>
						<colorinfo>
							<lut></lut>
							<lut1></lut1>
							<asc_sop></asc_sop>
							<asc_sat></asc_sat>
							<lut2></lut2>
						</colorinfo>
						<labels>
							<label2>Caribbean</label2>
						</labels>
					</clipitem>
					<clipitem id="clipitem-936" premiereChannelType="stereo">
						<masterclipid>masterclip-243</masterclipid>
						<name>MYZ_RusskiyChart_appProRes_v2.mov</name>
						<enabled>TRUE</enabled>
						<duration>299</duration>
						<rate>
							<timebase>25</timebase>
							<ntsc>FALSE</ntsc>
						</rate>
						<start>65718</start>
						<end>66000</end>
						<in>0</in>
						<out>282</out>
						<pproTicksIn>0</pproTicksIn>
						<pproTicksOut>2865300480000</pproTicksOut>
						<file id="file-212"/>
						<sourcetrack>
							<mediatype>audio</mediatype>
							<trackindex>1</trackindex>
						</sourcetrack>
						<filter>
							<effect>
								<name>Audio Levels</name>
								<effectid>audiolevels</effectid>
								<effectcategory>audiolevels</effectcategory>
								<effecttype>audiolevels</effecttype>
								<mediatype>audio</mediatype>
								<pproBypass>false</pproBypass>
								<parameter authoringApp="PremierePro">
									<parameterid>level</parameterid>
									<name>Level</name>
									<valuemin>0</valuemin>
									<valuemax>3.98109</valuemax>
									<value>0</value>
									<keyframe>
										<when>0</when>
										<value>0</value>
									</keyframe>
									<keyframe>
										<when>19</when>
										<value>0.158489</value>
									</keyframe>
									<keyframe>
										<when>262</when>
										<value>0.158489</value>
									</keyframe>
								</parameter>
							</effect>
						</filter>
						<link>
							<linkclipref>clipitem-636</linkclipref>
							<mediatype>video</mediatype>
							<trackindex>1</trackindex>
							<clipindex>50</clipindex>
						</link>
						<link>
							<linkclipref>clipitem-936</linkclipref>
							<mediatype>audio</mediatype>
							<trackindex>3</trackindex>
							<clipindex>14</clipindex>
							<groupindex>1</groupindex>
						</link>
						<link>
							<linkclipref>clipitem-950</linkclipref>
							<mediatype>audio</mediatype>
							<trackindex>4</trackindex>
							<clipindex>14</clipindex>
							<groupindex>1</groupindex>
						</link>
						<logginginfo>
							<description></description>
							<scene></scene>
							<shottake></shottake>
							<lognote></lognote>
							<good></good>
							<originalvideofilename></originalvideofilename>
							<originalaudiofilename></originalaudiofilename>
						</logginginfo>
						<colorinfo>
							<lut></lut>
							<lut1></lut1>
							<asc_sop></asc_sop>
							<asc_sat></asc_sat>
							<lut2></lut2>
						</colorinfo>
						<labels>
							<label2>Iris</label2>
						</labels>
					</clipitem>
					<enabled>TRUE</enabled>
					<locked>FALSE</locked>
					<outputchannelindex>1</outputchannelindex>
				</track>
				<track TL.SQTrackAudioKeyframeStyle="0" TL.SQTrackShy="0" TL.SQTrackExpandedHeight="15" TL.SQTrackExpanded="0" MZ.TrackTargeted="0" PannerCurrentValue="0.5" PannerIsInverted="true" PannerStartKeyframe="-91445760000000000,0.5,0,0,0,0,0,0" PannerName="Balance" currentExplodedTrackIndex="1" totalExplodedTrackCount="2" premiereTrackType="Stereo">
					<clipitem id="clipitem-937" premiereChannelType="stereo">
						<masterclipid>masterclip-416</masterclipid>
						<name>OTB_Sound-1.aif</name>
						<enabled>TRUE</enabled>
						<duration>151</duration>
						<rate>
							<timebase>25</timebase>
							<ntsc>FALSE</ntsc>
						</rate>
						<start>1377</start>
						<end>1522</end>
						<in>6</in>
						<out>151</out>
						<pproTicksIn>60963840000</pproTicksIn>
						<pproTicksOut>1534256640000</pproTicksOut>
						<file id="file-356"/>
						<sourcetrack>
							<mediatype>audio</mediatype>
							<trackindex>2</trackindex>
						</sourcetrack>
						<filter>
							<effect>
								<name>Audio Levels</name>
								<effectid>audiolevels</effectid>
								<effectcategory>audiolevels</effectcategory>
								<effecttype>audiolevels</effecttype>
								<mediatype>audio</mediatype>
								<pproBypass>false</pproBypass>
								<parameter authoringApp="PremierePro">
									<parameterid>level</parameterid>
									<name>Level</name>
									<valuemin>0</valuemin>
									<valuemax>3.98109</valuemax>
									<value>1</value>
									<keyframe>
										<when>97</when>
										<value>1</value>
									</keyframe>
									<keyframe>
										<when>125</when>
										<value>0.228798</value>
									</keyframe>
								</parameter>
							</effect>
						</filter>
							<marker>
								<comment></comment>
								<name></name>
								<in>106</in>
								<out>-1</out>
								<pproColor>4294967295</pproColor>
							</marker>
							<marker>
								<comment></comment>
								<name></name>
								<in>31</in>
								<out>-1</out>
								<pproColor>4294967295</pproColor>
							</marker>
						<link>
							<linkclipref>clipitem-923</linkclipref>
							<mediatype>audio</mediatype>
							<trackindex>3</trackindex>
							<clipindex>1</clipindex>
							<groupindex>1</groupindex>
						</link>
						<link>
							<linkclipref>clipitem-937</linkclipref>
							<mediatype>audio</mediatype>
							<trackindex>4</trackindex>
							<clipindex>1</clipindex>
							<groupindex>1</groupindex>
						</link>
						<logginginfo>
							<description></description>
							<scene></scene>
							<shottake></shottake>
							<lognote></lognote>
							<good></good>
							<originalvideofilename></originalvideofilename>
							<originalaudiofilename></originalaudiofilename>
						</logginginfo>
						<colorinfo>
							<lut></lut>
							<lut1></lut1>
							<asc_sop></asc_sop>
							<asc_sat></asc_sat>
							<lut2></lut2>
						</colorinfo>
						<labels>
							<label2>Caribbean</label2>
						</labels>
					</clipitem>
					<clipitem id="clipitem-938" premiereChannelType="stereo">
						<masterclipid>masterclip-417</masterclipid>
						<name>OTB_Sound-1.aif</name>
						<enabled>TRUE</enabled>
						<duration>151</duration>
						<rate>
							<timebase>25</timebase>
							<ntsc>FALSE</ntsc>
						</rate>
						<start>5146</start>
						<end>5291</end>
						<in>6</in>
						<out>151</out>
						<pproTicksIn>60963840000</pproTicksIn>
						<pproTicksOut>1534256640000</pproTicksOut>
						<file id="file-357"/>
						<sourcetrack>
							<mediatype>audio</mediatype>
							<trackindex>2</trackindex>
						</sourcetrack>
						<filter>
							<effect>
								<name>Audio Levels</name>
								<effectid>audiolevels</effectid>
								<effectcategory>audiolevels</effectcategory>
								<effecttype>audiolevels</effecttype>
								<mediatype>audio</mediatype>
								<pproBypass>false</pproBypass>
								<parameter authoringApp="PremierePro">
									<parameterid>level</parameterid>
									<name>Level</name>
									<valuemin>0</valuemin>
									<valuemax>3.98109</valuemax>
									<value>1</value>
									<keyframe>
										<when>97</when>
										<value>1</value>
									</keyframe>
									<keyframe>
										<when>125</when>
										<value>1</value>
									</keyframe>
								</parameter>
							</effect>
						</filter>
							<marker>
								<comment></comment>
								<name></name>
								<in>31</in>
								<out>-1</out>
								<pproColor>4294967295</pproColor>
							</marker>
							<marker>
								<comment></comment>
								<name></name>
								<in>106</in>
								<out>-1</out>
								<pproColor>4294967295</pproColor>
							</marker>
						<link>
							<linkclipref>clipitem-924</linkclipref>
							<mediatype>audio</mediatype>
							<trackindex>3</trackindex>
							<clipindex>2</clipindex>
							<groupindex>1</groupindex>
						</link>
						<link>
							<linkclipref>clipitem-938</linkclipref>
							<mediatype>audio</mediatype>
							<trackindex>4</trackindex>
							<clipindex>2</clipindex>
							<groupindex>1</groupindex>
						</link>
						<logginginfo>
							<description></description>
							<scene></scene>
							<shottake></shottake>
							<lognote></lognote>
							<good></good>
							<originalvideofilename></originalvideofilename>
							<originalaudiofilename></originalaudiofilename>
						</logginginfo>
						<colorinfo>
							<lut></lut>
							<lut1></lut1>
							<asc_sop></asc_sop>
							<asc_sat></asc_sat>
							<lut2></lut2>
						</colorinfo>
						<labels>
							<label2>Caribbean</label2>
						</labels>
					</clipitem>
					<clipitem id="clipitem-939" premiereChannelType="stereo">
						<masterclipid>masterclip-418</masterclipid>
						<name>OTB_Sound-1.aif</name>
						<enabled>TRUE</enabled>
						<duration>151</duration>
						<rate>
							<timebase>25</timebase>
							<ntsc>FALSE</ntsc>
						</rate>
						<start>9215</start>
						<end>9366</end>
						<in>0</in>
						<out>151</out>
						<pproTicksIn>0</pproTicksIn>
						<pproTicksOut>1534256640000</pproTicksOut>
						<file id="file-358"/>
						<sourcetrack>
							<mediatype>audio</mediatype>
							<trackindex>2</trackindex>
						</sourcetrack>
						<filter>
							<effect>
								<name>Audio Levels</name>
								<effectid>audiolevels</effectid>
								<effectcategory>audiolevels</effectcategory>
								<effecttype>audiolevels</effecttype>
								<mediatype>audio</mediatype>
								<pproBypass>false</pproBypass>
								<parameter authoringApp="PremierePro">
									<parameterid>level</parameterid>
									<name>Level</name>
									<valuemin>0</valuemin>
									<valuemax>3.98109</valuemax>
									<value>1</value>
									<keyframe>
										<when>97</when>
										<value>1</value>
									</keyframe>
									<keyframe>
										<when>125</when>
										<value>1</value>
									</keyframe>
								</parameter>
							</effect>
						</filter>
							<marker>
								<comment></comment>
								<name></name>
								<in>31</in>
								<out>-1</out>
								<pproColor>4294967295</pproColor>
							</marker>
							<marker>
								<comment></comment>
								<name></name>
								<in>106</in>
								<out>-1</out>
								<pproColor>4294967295</pproColor>
							</marker>
						<link>
							<linkclipref>clipitem-925</linkclipref>
							<mediatype>audio</mediatype>
							<trackindex>3</trackindex>
							<clipindex>3</clipindex>
							<groupindex>1</groupindex>
						</link>
						<link>
							<linkclipref>clipitem-939</linkclipref>
							<mediatype>audio</mediatype>
							<trackindex>4</trackindex>
							<clipindex>3</clipindex>
							<groupindex>1</groupindex>
						</link>
						<logginginfo>
							<description></description>
							<scene></scene>
							<shottake></shottake>
							<lognote></lognote>
							<good></good>
							<originalvideofilename></originalvideofilename>
							<originalaudiofilename></originalaudiofilename>
						</logginginfo>
						<colorinfo>
							<lut></lut>
							<lut1></lut1>
							<asc_sop></asc_sop>
							<asc_sat></asc_sat>
							<lut2></lut2>
						</colorinfo>
						<labels>
							<label2>Caribbean</label2>
						</labels>
					</clipitem>
					<clipitem id="clipitem-940" premiereChannelType="stereo">
						<masterclipid>masterclip-419</masterclipid>
						<name>OTB_Sound-1.aif</name>
						<enabled>TRUE</enabled>
						<duration>151</duration>
						<rate>
							<timebase>25</timebase>
							<ntsc>FALSE</ntsc>
						</rate>
						<start>14168</start>
						<end>14313</end>
						<in>6</in>
						<out>151</out>
						<pproTicksIn>60963840000</pproTicksIn>
						<pproTicksOut>1534256640000</pproTicksOut>
						<file id="file-359"/>
						<sourcetrack>
							<mediatype>audio</mediatype>
							<trackindex>2</trackindex>
						</sourcetrack>
						<filter>
							<effect>
								<name>Audio Levels</name>
								<effectid>audiolevels</effectid>
								<effectcategory>audiolevels</effectcategory>
								<effecttype>audiolevels</effecttype>
								<mediatype>audio</mediatype>
								<pproBypass>false</pproBypass>
								<parameter authoringApp="PremierePro">
									<parameterid>level</parameterid>
									<name>Level</name>
									<valuemin>0</valuemin>
									<valuemax>3.98109</valuemax>
									<value>1</value>
									<keyframe>
										<when>97</when>
										<value>1</value>
									</keyframe>
									<keyframe>
										<when>125</when>
										<value>1</value>
									</keyframe>
								</parameter>
							</effect>
						</filter>
							<marker>
								<comment></comment>
								<name></name>
								<in>106</in>
								<out>-1</out>
								<pproColor>4294967295</pproColor>
							</marker>
							<marker>
								<comment></comment>
								<name></name>
								<in>31</in>
								<out>-1</out>
								<pproColor>4294967295</pproColor>
							</marker>
						<link>
							<linkclipref>clipitem-926</linkclipref>
							<mediatype>audio</mediatype>
							<trackindex>3</trackindex>
							<clipindex>4</clipindex>
							<groupindex>1</groupindex>
						</link>
						<link>
							<linkclipref>clipitem-940</linkclipref>
							<mediatype>audio</mediatype>
							<trackindex>4</trackindex>
							<clipindex>4</clipindex>
							<groupindex>1</groupindex>
						</link>
						<logginginfo>
							<description></description>
							<scene></scene>
							<shottake></shottake>
							<lognote></lognote>
							<good></good>
							<originalvideofilename></originalvideofilename>
							<originalaudiofilename></originalaudiofilename>
						</logginginfo>
						<colorinfo>
							<lut></lut>
							<lut1></lut1>
							<asc_sop></asc_sop>
							<asc_sat></asc_sat>
							<lut2></lut2>
						</colorinfo>
						<labels>
							<label2>Caribbean</label2>
						</labels>
					</clipitem>
					<clipitem id="clipitem-941" premiereChannelType="stereo">
						<masterclipid>masterclip-420</masterclipid>
						<name>OTB_Sound-1.aif</name>
						<enabled>TRUE</enabled>
						<duration>151</duration>
						<rate>
							<timebase>25</timebase>
							<ntsc>FALSE</ntsc>
						</rate>
						<start>18718</start>
						<end>18863</end>
						<in>6</in>
						<out>151</out>
						<pproTicksIn>60963840000</pproTicksIn>
						<pproTicksOut>1534256640000</pproTicksOut>
						<file id="file-360"/>
						<sourcetrack>
							<mediatype>audio</mediatype>
							<trackindex>2</trackindex>
						</sourcetrack>
						<filter>
							<effect>
								<name>Audio Levels</name>
								<effectid>audiolevels</effectid>
								<effectcategory>audiolevels</effectcategory>
								<effecttype>audiolevels</effecttype>
								<mediatype>audio</mediatype>
								<pproBypass>false</pproBypass>
								<parameter authoringApp="PremierePro">
									<parameterid>level</parameterid>
									<name>Level</name>
									<valuemin>0</valuemin>
									<valuemax>3.98109</valuemax>
									<value>1</value>
									<keyframe>
										<when>97</when>
										<value>1</value>
									</keyframe>
									<keyframe>
										<when>125</when>
										<value>1</value>
									</keyframe>
								</parameter>
							</effect>
						</filter>
							<marker>
								<comment></comment>
								<name></name>
								<in>106</in>
								<out>-1</out>
								<pproColor>4294967295</pproColor>
							</marker>
							<marker>
								<comment></comment>
								<name></name>
								<in>31</in>
								<out>-1</out>
								<pproColor>4294967295</pproColor>
							</marker>
						<link>
							<linkclipref>clipitem-927</linkclipref>
							<mediatype>audio</mediatype>
							<trackindex>3</trackindex>
							<clipindex>5</clipindex>
							<groupindex>1</groupindex>
						</link>
						<link>
							<linkclipref>clipitem-941</linkclipref>
							<mediatype>audio</mediatype>
							<trackindex>4</trackindex>
							<clipindex>5</clipindex>
							<groupindex>1</groupindex>
						</link>
						<logginginfo>
							<description></description>
							<scene></scene>
							<shottake></shottake>
							<lognote></lognote>
							<good></good>
							<originalvideofilename></originalvideofilename>
							<originalaudiofilename></originalaudiofilename>
						</logginginfo>
						<colorinfo>
							<lut></lut>
							<lut1></lut1>
							<asc_sop></asc_sop>
							<asc_sat></asc_sat>
							<lut2></lut2>
						</colorinfo>
						<labels>
							<label2>Caribbean</label2>
						</labels>
					</clipitem>
					<clipitem id="clipitem-942" premiereChannelType="stereo">
						<masterclipid>masterclip-421</masterclipid>
						<name>OTB_Sound-1.aif</name>
						<enabled>TRUE</enabled>
						<duration>151</duration>
						<rate>
							<timebase>25</timebase>
							<ntsc>FALSE</ntsc>
						</rate>
						<start>23865</start>
						<end>24010</end>
						<in>6</in>
						<out>151</out>
						<pproTicksIn>60963840000</pproTicksIn>
						<pproTicksOut>1534256640000</pproTicksOut>
						<file id="file-361"/>
						<sourcetrack>
							<mediatype>audio</mediatype>
							<trackindex>2</trackindex>
						</sourcetrack>
						<filter>
							<effect>
								<name>Audio Levels</name>
								<effectid>audiolevels</effectid>
								<effectcategory>audiolevels</effectcategory>
								<effecttype>audiolevels</effecttype>
								<mediatype>audio</mediatype>
								<pproBypass>false</pproBypass>
								<parameter authoringApp="PremierePro">
									<parameterid>level</parameterid>
									<name>Level</name>
									<valuemin>0</valuemin>
									<valuemax>3.98109</valuemax>
									<value>1</value>
									<keyframe>
										<when>97</when>
										<value>1</value>
									</keyframe>
									<keyframe>
										<when>125</when>
										<value>1</value>
									</keyframe>
								</parameter>
							</effect>
						</filter>
							<marker>
								<comment></comment>
								<name></name>
								<in>106</in>
								<out>-1</out>
								<pproColor>4294967295</pproColor>
							</marker>
							<marker>
								<comment></comment>
								<name></name>
								<in>31</in>
								<out>-1</out>
								<pproColor>4294967295</pproColor>
							</marker>
						<link>
							<linkclipref>clipitem-928</linkclipref>
							<mediatype>audio</mediatype>
							<trackindex>3</trackindex>
							<clipindex>6</clipindex>
							<groupindex>1</groupindex>
						</link>
						<link>
							<linkclipref>clipitem-942</linkclipref>
							<mediatype>audio</mediatype>
							<trackindex>4</trackindex>
							<clipindex>6</clipindex>
							<groupindex>1</groupindex>
						</link>
						<logginginfo>
							<description></description>
							<scene></scene>
							<shottake></shottake>
							<lognote></lognote>
							<good></good>
							<originalvideofilename></originalvideofilename>
							<originalaudiofilename></originalaudiofilename>
						</logginginfo>
						<colorinfo>
							<lut></lut>
							<lut1></lut1>
							<asc_sop></asc_sop>
							<asc_sat></asc_sat>
							<lut2></lut2>
						</colorinfo>
						<labels>
							<label2>Caribbean</label2>
						</labels>
					</clipitem>
					<clipitem id="clipitem-943" premiereChannelType="stereo">
						<masterclipid>masterclip-422</masterclipid>
						<name>OTB_Sound-1.aif</name>
						<enabled>TRUE</enabled>
						<duration>151</duration>
						<rate>
							<timebase>25</timebase>
							<ntsc>FALSE</ntsc>
						</rate>
						<start>27909</start>
						<end>28054</end>
						<in>6</in>
						<out>151</out>
						<pproTicksIn>60963840000</pproTicksIn>
						<pproTicksOut>1534256640000</pproTicksOut>
						<file id="file-362"/>
						<sourcetrack>
							<mediatype>audio</mediatype>
							<trackindex>2</trackindex>
						</sourcetrack>
						<filter>
							<effect>
								<name>Audio Levels</name>
								<effectid>audiolevels</effectid>
								<effectcategory>audiolevels</effectcategory>
								<effecttype>audiolevels</effecttype>
								<mediatype>audio</mediatype>
								<pproBypass>false</pproBypass>
								<parameter authoringApp="PremierePro">
									<parameterid>level</parameterid>
									<name>Level</name>
									<valuemin>0</valuemin>
									<valuemax>3.98109</valuemax>
									<value>1</value>
									<keyframe>
										<when>97</when>
										<value>1</value>
									</keyframe>
									<keyframe>
										<when>125</when>
										<value>1</value>
									</keyframe>
								</parameter>
							</effect>
						</filter>
							<marker>
								<comment></comment>
								<name></name>
								<in>106</in>
								<out>-1</out>
								<pproColor>4294967295</pproColor>
							</marker>
							<marker>
								<comment></comment>
								<name></name>
								<in>31</in>
								<out>-1</out>
								<pproColor>4294967295</pproColor>
							</marker>
						<link>
							<linkclipref>clipitem-929</linkclipref>
							<mediatype>audio</mediatype>
							<trackindex>3</trackindex>
							<clipindex>7</clipindex>
							<groupindex>1</groupindex>
						</link>
						<link>
							<linkclipref>clipitem-943</linkclipref>
							<mediatype>audio</mediatype>
							<trackindex>4</trackindex>
							<clipindex>7</clipindex>
							<groupindex>1</groupindex>
						</link>
						<logginginfo>
							<description></description>
							<scene></scene>
							<shottake></shottake>
							<lognote></lognote>
							<good></good>
							<originalvideofilename></originalvideofilename>
							<originalaudiofilename></originalaudiofilename>
						</logginginfo>
						<colorinfo>
							<lut></lut>
							<lut1></lut1>
							<asc_sop></asc_sop>
							<asc_sat></asc_sat>
							<lut2></lut2>
						</colorinfo>
						<labels>
							<label2>Caribbean</label2>
						</labels>
					</clipitem>
					<clipitem id="clipitem-944" premiereChannelType="stereo">
						<masterclipid>masterclip-423</masterclipid>
						<name>OTB_Sound-1.aif</name>
						<enabled>TRUE</enabled>
						<duration>151</duration>
						<rate>
							<timebase>25</timebase>
							<ntsc>FALSE</ntsc>
						</rate>
						<start>32943</start>
						<end>33088</end>
						<in>6</in>
						<out>151</out>
						<pproTicksIn>60963840000</pproTicksIn>
						<pproTicksOut>1534256640000</pproTicksOut>
						<file id="file-363"/>
						<sourcetrack>
							<mediatype>audio</mediatype>
							<trackindex>2</trackindex>
						</sourcetrack>
						<filter>
							<effect>
								<name>Audio Levels</name>
								<effectid>audiolevels</effectid>
								<effectcategory>audiolevels</effectcategory>
								<effecttype>audiolevels</effecttype>
								<mediatype>audio</mediatype>
								<pproBypass>false</pproBypass>
								<parameter authoringApp="PremierePro">
									<parameterid>level</parameterid>
									<name>Level</name>
									<valuemin>0</valuemin>
									<valuemax>3.98109</valuemax>
									<value>1</value>
									<keyframe>
										<when>97</when>
										<value>1</value>
									</keyframe>
									<keyframe>
										<when>125</when>
										<value>1</value>
									</keyframe>
								</parameter>
							</effect>
						</filter>
							<marker>
								<comment></comment>
								<name></name>
								<in>106</in>
								<out>-1</out>
								<pproColor>4294967295</pproColor>
							</marker>
							<marker>
								<comment></comment>
								<name></name>
								<in>31</in>
								<out>-1</out>
								<pproColor>4294967295</pproColor>
							</marker>
						<link>
							<linkclipref>clipitem-930</linkclipref>
							<mediatype>audio</mediatype>
							<trackindex>3</trackindex>
							<clipindex>8</clipindex>
							<groupindex>1</groupindex>
						</link>
						<link>
							<linkclipref>clipitem-944</linkclipref>
							<mediatype>audio</mediatype>
							<trackindex>4</trackindex>
							<clipindex>8</clipindex>
							<groupindex>1</groupindex>
						</link>
						<logginginfo>
							<description></description>
							<scene></scene>
							<shottake></shottake>
							<lognote></lognote>
							<good></good>
							<originalvideofilename></originalvideofilename>
							<originalaudiofilename></originalaudiofilename>
						</logginginfo>
						<colorinfo>
							<lut></lut>
							<lut1></lut1>
							<asc_sop></asc_sop>
							<asc_sat></asc_sat>
							<lut2></lut2>
						</colorinfo>
						<labels>
							<label2>Caribbean</label2>
						</labels>
					</clipitem>
					<clipitem id="clipitem-945" premiereChannelType="stereo">
						<masterclipid>masterclip-424</masterclipid>
						<name>OTB_Sound-1.aif</name>
						<enabled>TRUE</enabled>
						<duration>151</duration>
						<rate>
							<timebase>25</timebase>
							<ntsc>FALSE</ntsc>
						</rate>
						<start>38122</start>
						<end>38267</end>
						<in>6</in>
						<out>151</out>
						<pproTicksIn>60963840000</pproTicksIn>
						<pproTicksOut>1534256640000</pproTicksOut>
						<file id="file-364"/>
						<sourcetrack>
							<mediatype>audio</mediatype>
							<trackindex>2</trackindex>
						</sourcetrack>
						<filter>
							<effect>
								<name>Audio Levels</name>
								<effectid>audiolevels</effectid>
								<effectcategory>audiolevels</effectcategory>
								<effecttype>audiolevels</effecttype>
								<mediatype>audio</mediatype>
								<pproBypass>false</pproBypass>
								<parameter authoringApp="PremierePro">
									<parameterid>level</parameterid>
									<name>Level</name>
									<valuemin>0</valuemin>
									<valuemax>3.98109</valuemax>
									<value>1</value>
									<keyframe>
										<when>97</when>
										<value>1</value>
									</keyframe>
									<keyframe>
										<when>125</when>
										<value>1</value>
									</keyframe>
								</parameter>
							</effect>
						</filter>
							<marker>
								<comment></comment>
								<name></name>
								<in>106</in>
								<out>-1</out>
								<pproColor>4294967295</pproColor>
							</marker>
							<marker>
								<comment></comment>
								<name></name>
								<in>31</in>
								<out>-1</out>
								<pproColor>4294967295</pproColor>
							</marker>
						<link>
							<linkclipref>clipitem-931</linkclipref>
							<mediatype>audio</mediatype>
							<trackindex>3</trackindex>
							<clipindex>9</clipindex>
							<groupindex>1</groupindex>
						</link>
						<link>
							<linkclipref>clipitem-945</linkclipref>
							<mediatype>audio</mediatype>
							<trackindex>4</trackindex>
							<clipindex>9</clipindex>
							<groupindex>1</groupindex>
						</link>
						<logginginfo>
							<description></description>
							<scene></scene>
							<shottake></shottake>
							<lognote></lognote>
							<good></good>
							<originalvideofilename></originalvideofilename>
							<originalaudiofilename></originalaudiofilename>
						</logginginfo>
						<colorinfo>
							<lut></lut>
							<lut1></lut1>
							<asc_sop></asc_sop>
							<asc_sat></asc_sat>
							<lut2></lut2>
						</colorinfo>
						<labels>
							<label2>Caribbean</label2>
						</labels>
					</clipitem>
					<clipitem id="clipitem-946" premiereChannelType="stereo">
						<masterclipid>masterclip-425</masterclipid>
						<name>OTB_Sound-1.aif</name>
						<enabled>TRUE</enabled>
						<duration>151</duration>
						<rate>
							<timebase>25</timebase>
							<ntsc>FALSE</ntsc>
						</rate>
						<start>44761</start>
						<end>44906</end>
						<in>6</in>
						<out>151</out>
						<pproTicksIn>60963840000</pproTicksIn>
						<pproTicksOut>1534256640000</pproTicksOut>
						<file id="file-365"/>
						<sourcetrack>
							<mediatype>audio</mediatype>
							<trackindex>2</trackindex>
						</sourcetrack>
						<filter>
							<effect>
								<name>Audio Levels</name>
								<effectid>audiolevels</effectid>
								<effectcategory>audiolevels</effectcategory>
								<effecttype>audiolevels</effecttype>
								<mediatype>audio</mediatype>
								<pproBypass>false</pproBypass>
								<parameter authoringApp="PremierePro">
									<parameterid>level</parameterid>
									<name>Level</name>
									<valuemin>0</valuemin>
									<valuemax>3.98109</valuemax>
									<value>1</value>
									<keyframe>
										<when>97</when>
										<value>1</value>
									</keyframe>
									<keyframe>
										<when>125</when>
										<value>1</value>
									</keyframe>
								</parameter>
							</effect>
						</filter>
							<marker>
								<comment></comment>
								<name></name>
								<in>106</in>
								<out>-1</out>
								<pproColor>4294967295</pproColor>
							</marker>
							<marker>
								<comment></comment>
								<name></name>
								<in>31</in>
								<out>-1</out>
								<pproColor>4294967295</pproColor>
							</marker>
						<link>
							<linkclipref>clipitem-932</linkclipref>
							<mediatype>audio</mediatype>
							<trackindex>3</trackindex>
							<clipindex>10</clipindex>
							<groupindex>1</groupindex>
						</link>
						<link>
							<linkclipref>clipitem-946</linkclipref>
							<mediatype>audio</mediatype>
							<trackindex>4</trackindex>
							<clipindex>10</clipindex>
							<groupindex>1</groupindex>
						</link>
						<logginginfo>
							<description></description>
							<scene></scene>
							<shottake></shottake>
							<lognote></lognote>
							<good></good>
							<originalvideofilename></originalvideofilename>
							<originalaudiofilename></originalaudiofilename>
						</logginginfo>
						<colorinfo>
							<lut></lut>
							<lut1></lut1>
							<asc_sop></asc_sop>
							<asc_sat></asc_sat>
							<lut2></lut2>
						</colorinfo>
						<labels>
							<label2>Caribbean</label2>
						</labels>
					</clipitem>
					<clipitem id="clipitem-947" premiereChannelType="stereo">
						<masterclipid>masterclip-426</masterclipid>
						<name>OTB_Sound-1.aif</name>
						<enabled>TRUE</enabled>
						<duration>151</duration>
						<rate>
							<timebase>25</timebase>
							<ntsc>FALSE</ntsc>
						</rate>
						<start>50315</start>
						<end>50460</end>
						<in>6</in>
						<out>151</out>
						<pproTicksIn>60963840000</pproTicksIn>
						<pproTicksOut>1534256640000</pproTicksOut>
						<file id="file-366"/>
						<sourcetrack>
							<mediatype>audio</mediatype>
							<trackindex>2</trackindex>
						</sourcetrack>
						<filter>
							<effect>
								<name>Audio Levels</name>
								<effectid>audiolevels</effectid>
								<effectcategory>audiolevels</effectcategory>
								<effecttype>audiolevels</effecttype>
								<mediatype>audio</mediatype>
								<pproBypass>false</pproBypass>
								<parameter authoringApp="PremierePro">
									<parameterid>level</parameterid>
									<name>Level</name>
									<valuemin>0</valuemin>
									<valuemax>3.98109</valuemax>
									<value>1</value>
									<keyframe>
										<when>97</when>
										<value>1</value>
									</keyframe>
									<keyframe>
										<when>125</when>
										<value>1</value>
									</keyframe>
								</parameter>
							</effect>
						</filter>
							<marker>
								<comment></comment>
								<name></name>
								<in>31</in>
								<out>-1</out>
								<pproColor>4294967295</pproColor>
							</marker>
							<marker>
								<comment></comment>
								<name></name>
								<in>106</in>
								<out>-1</out>
								<pproColor>4294967295</pproColor>
							</marker>
						<link>
							<linkclipref>clipitem-933</linkclipref>
							<mediatype>audio</mediatype>
							<trackindex>3</trackindex>
							<clipindex>11</clipindex>
							<groupindex>1</groupindex>
						</link>
						<link>
							<linkclipref>clipitem-947</linkclipref>
							<mediatype>audio</mediatype>
							<trackindex>4</trackindex>
							<clipindex>11</clipindex>
							<groupindex>1</groupindex>
						</link>
						<logginginfo>
							<description></description>
							<scene></scene>
							<shottake></shottake>
							<lognote></lognote>
							<good></good>
							<originalvideofilename></originalvideofilename>
							<originalaudiofilename></originalaudiofilename>
						</logginginfo>
						<colorinfo>
							<lut></lut>
							<lut1></lut1>
							<asc_sop></asc_sop>
							<asc_sat></asc_sat>
							<lut2></lut2>
						</colorinfo>
						<labels>
							<label2>Caribbean</label2>
						</labels>
					</clipitem>
					<clipitem id="clipitem-948" premiereChannelType="stereo">
						<masterclipid>masterclip-427</masterclipid>
						<name>OTB_Sound-1.aif</name>
						<enabled>TRUE</enabled>
						<duration>151</duration>
						<rate>
							<timebase>25</timebase>
							<ntsc>FALSE</ntsc>
						</rate>
						<start>56960</start>
						<end>57105</end>
						<in>6</in>
						<out>151</out>
						<pproTicksIn>60963840000</pproTicksIn>
						<pproTicksOut>1534256640000</pproTicksOut>
						<file id="file-367"/>
						<sourcetrack>
							<mediatype>audio</mediatype>
							<trackindex>2</trackindex>
						</sourcetrack>
						<filter>
							<effect>
								<name>Audio Levels</name>
								<effectid>audiolevels</effectid>
								<effectcategory>audiolevels</effectcategory>
								<effecttype>audiolevels</effecttype>
								<mediatype>audio</mediatype>
								<pproBypass>false</pproBypass>
								<parameter authoringApp="PremierePro">
									<parameterid>level</parameterid>
									<name>Level</name>
									<valuemin>0</valuemin>
									<valuemax>3.98109</valuemax>
									<value>1</value>
									<keyframe>
										<when>97</when>
										<value>1</value>
									</keyframe>
									<keyframe>
										<when>125</when>
										<value>0.203053</value>
									</keyframe>
								</parameter>
							</effect>
						</filter>
							<marker>
								<comment></comment>
								<name></name>
								<in>106</in>
								<out>-1</out>
								<pproColor>4294967295</pproColor>
							</marker>
							<marker>
								<comment></comment>
								<name></name>
								<in>31</in>
								<out>-1</out>
								<pproColor>4294967295</pproColor>
							</marker>
						<link>
							<linkclipref>clipitem-934</linkclipref>
							<mediatype>audio</mediatype>
							<trackindex>3</trackindex>
							<clipindex>12</clipindex>
							<groupindex>1</groupindex>
						</link>
						<link>
							<linkclipref>clipitem-948</linkclipref>
							<mediatype>audio</mediatype>
							<trackindex>4</trackindex>
							<clipindex>12</clipindex>
							<groupindex>1</groupindex>
						</link>
						<logginginfo>
							<description></description>
							<scene></scene>
							<shottake></shottake>
							<lognote></lognote>
							<good></good>
							<originalvideofilename></originalvideofilename>
							<originalaudiofilename></originalaudiofilename>
						</logginginfo>
						<colorinfo>
							<lut></lut>
							<lut1></lut1>
							<asc_sop></asc_sop>
							<asc_sat></asc_sat>
							<lut2></lut2>
						</colorinfo>
						<labels>
							<label2>Caribbean</label2>
						</labels>
					</clipitem>
					<clipitem id="clipitem-949" premiereChannelType="stereo">
						<masterclipid>masterclip-428</masterclipid>
						<name>OTB_Sound-1.aif</name>
						<enabled>TRUE</enabled>
						<duration>151</duration>
						<rate>
							<timebase>25</timebase>
							<ntsc>FALSE</ntsc>
						</rate>
						<start>61474</start>
						<end>61619</end>
						<in>6</in>
						<out>151</out>
						<pproTicksIn>60963840000</pproTicksIn>
						<pproTicksOut>1534256640000</pproTicksOut>
						<file id="file-368"/>
						<sourcetrack>
							<mediatype>audio</mediatype>
							<trackindex>2</trackindex>
						</sourcetrack>
						<filter>
							<effect>
								<name>Audio Levels</name>
								<effectid>audiolevels</effectid>
								<effectcategory>audiolevels</effectcategory>
								<effecttype>audiolevels</effecttype>
								<mediatype>audio</mediatype>
								<pproBypass>false</pproBypass>
								<parameter authoringApp="PremierePro">
									<parameterid>level</parameterid>
									<name>Level</name>
									<valuemin>0</valuemin>
									<valuemax>3.98109</valuemax>
									<value>1</value>
									<keyframe>
										<when>97</when>
										<value>1</value>
									</keyframe>
									<keyframe>
										<when>125</when>
										<value>1</value>
									</keyframe>
								</parameter>
							</effect>
						</filter>
							<marker>
								<comment></comment>
								<name></name>
								<in>31</in>
								<out>-1</out>
								<pproColor>4294967295</pproColor>
							</marker>
							<marker>
								<comment></comment>
								<name></name>
								<in>106</in>
								<out>-1</out>
								<pproColor>4294967295</pproColor>
							</marker>
						<link>
							<linkclipref>clipitem-935</linkclipref>
							<mediatype>audio</mediatype>
							<trackindex>3</trackindex>
							<clipindex>13</clipindex>
							<groupindex>1</groupindex>
						</link>
						<link>
							<linkclipref>clipitem-949</linkclipref>
							<mediatype>audio</mediatype>
							<trackindex>4</trackindex>
							<clipindex>13</clipindex>
							<groupindex>1</groupindex>
						</link>
						<logginginfo>
							<description></description>
							<scene></scene>
							<shottake></shottake>
							<lognote></lognote>
							<good></good>
							<originalvideofilename></originalvideofilename>
							<originalaudiofilename></originalaudiofilename>
						</logginginfo>
						<colorinfo>
							<lut></lut>
							<lut1></lut1>
							<asc_sop></asc_sop>
							<asc_sat></asc_sat>
							<lut2></lut2>
						</colorinfo>
						<labels>
							<label2>Caribbean</label2>
						</labels>
					</clipitem>
					<clipitem id="clipitem-950" premiereChannelType="stereo">
						<masterclipid>masterclip-243</masterclipid>
						<name>MYZ_RusskiyChart_appProRes_v2.mov</name>
						<enabled>TRUE</enabled>
						<duration>299</duration>
						<rate>
							<timebase>25</timebase>
							<ntsc>FALSE</ntsc>
						</rate>
						<start>65718</start>
						<end>66000</end>
						<in>0</in>
						<out>282</out>
						<pproTicksIn>0</pproTicksIn>
						<pproTicksOut>2865300480000</pproTicksOut>
						<file id="file-212"/>
						<sourcetrack>
							<mediatype>audio</mediatype>
							<trackindex>2</trackindex>
						</sourcetrack>
						<filter>
							<effect>
								<name>Audio Levels</name>
								<effectid>audiolevels</effectid>
								<effectcategory>audiolevels</effectcategory>
								<effecttype>audiolevels</effecttype>
								<mediatype>audio</mediatype>
								<pproBypass>false</pproBypass>
								<parameter authoringApp="PremierePro">
									<parameterid>level</parameterid>
									<name>Level</name>
									<valuemin>0</valuemin>
									<valuemax>3.98109</valuemax>
									<value>0</value>
									<keyframe>
										<when>0</when>
										<value>0</value>
									</keyframe>
									<keyframe>
										<when>19</when>
										<value>0.158489</value>
									</keyframe>
									<keyframe>
										<when>262</when>
										<value>0.158489</value>
									</keyframe>
								</parameter>
							</effect>
						</filter>
						<link>
							<linkclipref>clipitem-636</linkclipref>
							<mediatype>video</mediatype>
							<trackindex>1</trackindex>
							<clipindex>50</clipindex>
						</link>
						<link>
							<linkclipref>clipitem-936</linkclipref>
							<mediatype>audio</mediatype>
							<trackindex>3</trackindex>
							<clipindex>14</clipindex>
							<groupindex>1</groupindex>
						</link>
						<link>
							<linkclipref>clipitem-950</linkclipref>
							<mediatype>audio</mediatype>
							<trackindex>4</trackindex>
							<clipindex>14</clipindex>
							<groupindex>1</groupindex>
						</link>
						<logginginfo>
							<description></description>
							<scene></scene>
							<shottake></shottake>
							<lognote></lognote>
							<good></good>
							<originalvideofilename></originalvideofilename>
							<originalaudiofilename></originalaudiofilename>
						</logginginfo>
						<colorinfo>
							<lut></lut>
							<lut1></lut1>
							<asc_sop></asc_sop>
							<asc_sat></asc_sat>
							<lut2></lut2>
						</colorinfo>
						<labels>
							<label2>Iris</label2>
						</labels>
					</clipitem>
					<enabled>TRUE</enabled>
					<locked>FALSE</locked>
					<outputchannelindex>2</outputchannelindex>
				</track>
				<track TL.SQTrackAudioKeyframeStyle="0" TL.SQTrackShy="0" TL.SQTrackExpandedHeight="15" TL.SQTrackExpanded="0" MZ.TrackTargeted="0" PannerCurrentValue="0.5" PannerIsInverted="true" PannerStartKeyframe="-91445760000000000,0.5,0,0,0,0,0,0" PannerName="Balance" currentExplodedTrackIndex="0" totalExplodedTrackCount="2" premiereTrackType="Stereo">
					<clipitem id="clipitem-951" premiereChannelType="stereo">
						<masterclipid>masterclip-429</masterclipid>
						<name>SOUND_2021.mp3</name>
						<enabled>TRUE</enabled>
						<duration>45395</duration>
						<rate>
							<timebase>25</timebase>
							<ntsc>FALSE</ntsc>
						</rate>
						<start>262</start>
						<end>-1</end>
						<in>24483</in>
						<out>25623</out>
						<pproTicksIn>248762949120000</pproTicksIn>
						<pproTicksOut>260346078720000</pproTicksOut>
						<file id="file-369">
							<name>SOUND_2021.mp3</name>
							<pathurl>file://localhost/Volumes/1Tb/_MUZ_TV/graphika/sound/2021/SOUND_2021.mp3</pathurl>
							<rate>
								<timebase>30</timebase>
								<ntsc>TRUE</ntsc>
							</rate>
							<duration>54420</duration>
							<timecode>
								<rate>
									<timebase>30</timebase>
									<ntsc>TRUE</ntsc>
								</rate>
								<string>00;00;00;00</string>
								<frame>0</frame>
								<displayformat>DF</displayformat>
							</timecode>
							<media>
								<audio>
									<samplecharacteristics>
										<depth>16</depth>
										<samplerate>44100</samplerate>
									</samplecharacteristics>
									<channelcount>2</channelcount>
								</audio>
							</media>
						</file>
						<sourcetrack>
							<mediatype>audio</mediatype>
							<trackindex>1</trackindex>
						</sourcetrack>
						<filter>
							<effect>
								<name>Audio Levels</name>
								<effectid>audiolevels</effectid>
								<effectcategory>audiolevels</effectcategory>
								<effecttype>audiolevels</effecttype>
								<mediatype>audio</mediatype>
								<pproBypass>false</pproBypass>
								<parameter authoringApp="PremierePro">
									<parameterid>level</parameterid>
									<name>Level</name>
									<valuemin>0</valuemin>
									<valuemax>3.98109</valuemax>
									<value>0.177828</value>
								</parameter>
							</effect>
						</filter>
							<marker>
								<comment></comment>
								<name></name>
								<in>0</in>
								<out>-1</out>
							</marker>
							<marker>
								<comment></comment>
								<name></name>
								<in>35404</in>
								<out>-1</out>
							</marker>
							<marker>
								<comment></comment>
								<name></name>
								<in>22388</in>
								<out>-1</out>
							</marker>
							<marker>
								<comment></comment>
								<name></name>
								<in>16790</in>
								<out>-1</out>
							</marker>
							<marker>
								<comment></comment>
								<name></name>
								<in>11832</in>
								<out>-1</out>
							</marker>
							<marker>
								<comment></comment>
								<name></name>
								<in>43475</in>
								<out>-1</out>
							</marker>
							<marker>
								<comment></comment>
								<name></name>
								<in>19163</in>
								<out>-1</out>
							</marker>
							<marker>
								<comment></comment>
								<name></name>
								<in>26248</in>
								<out>-1</out>
							</marker>
							<marker>
								<comment></comment>
								<name></name>
								<in>9861</in>
								<out>-1</out>
							</marker>
							<marker>
								<comment></comment>
								<name></name>
								<in>39699</in>
								<out>-1</out>
							</marker>
							<marker>
								<comment></comment>
								<name></name>
								<in>37815</in>
								<out>-1</out>
							</marker>
							<marker>
								<comment></comment>
								<name></name>
								<in>33007</in>
								<out>-1</out>
							</marker>
							<marker>
								<comment></comment>
								<name></name>
								<in>2059</in>
								<out>-1</out>
							</marker>
							<marker>
								<comment></comment>
								<name></name>
								<in>2</in>
								<out>-1</out>
							</marker>
							<marker>
								<comment></comment>
								<name></name>
								<in>29059</in>
								<out>-1</out>
							</marker>
							<marker>
								<comment></comment>
								<name></name>
								<in>20862</in>
								<out>-1</out>
							</marker>
							<marker>
								<comment></comment>
								<name></name>
								<in>31139</in>
								<out>-1</out>
							</marker>
							<marker>
								<comment></comment>
								<name></name>
								<in>4214</in>
								<out>-1</out>
							</marker>
							<marker>
								<comment></comment>
								<name></name>
								<in>6200</in>
								<out>-1</out>
							</marker>
							<marker>
								<comment></comment>
								<name></name>
								<in>24484</in>
								<out>-1</out>
							</marker>
							<marker>
								<comment></comment>
								<name></name>
								<in>14293</in>
								<out>-1</out>
							</marker>
						<link>
							<linkclipref>clipitem-951</linkclipref>
							<mediatype>audio</mediatype>
							<trackindex>5</trackindex>
							<clipindex>1</clipindex>
							<groupindex>1</groupindex>
						</link>
						<link>
							<linkclipref>clipitem-962</linkclipref>
							<mediatype>audio</mediatype>
							<trackindex>6</trackindex>
							<clipindex>1</clipindex>
							<groupindex>1</groupindex>
						</link>
						<logginginfo>
							<description></description>
							<scene></scene>
							<shottake></shottake>
							<lognote></lognote>
							<good></good>
							<originalvideofilename></originalvideofilename>
							<originalaudiofilename></originalaudiofilename>
						</logginginfo>
						<colorinfo>
							<lut></lut>
							<lut1></lut1>
							<asc_sop></asc_sop>
							<asc_sat></asc_sat>
							<lut2></lut2>
						</colorinfo>
						<labels>
							<label2>Rose</label2>
						</labels>
					</clipitem>
					<transitionitem>
						<start>1377</start>
						<end>1402</end>
						<pproTicksIn>13991201280000</pproTicksIn>
						<pproTicksOut>14245217280000</pproTicksOut>
						<alignment>end-black</alignment>
						<cutPointTicks>254016000000</cutPointTicks>
						<rate>
							<timebase>25</timebase>
							<ntsc>FALSE</ntsc>
						</rate>
						<effect>
							<name>Cross Fade (+3dB)</name>
							<effectid>KGAudioTransCrossFade3dB</effectid>
							<effecttype>transition</effecttype>
							<mediatype>audio</mediatype>
							<wipecode>0</wipecode>
							<wipeaccuracy>100</wipeaccuracy>
							<startratio>0</startratio>
							<endratio>1</endratio>
							<reverse>FALSE</reverse>
						</effect>
					</transitionitem>
					<clipitem id="clipitem-952" premiereChannelType="stereo">
						<masterclipid>masterclip-429</masterclipid>
						<name>SOUND_2021.mp3</name>
						<enabled>TRUE</enabled>
						<duration>45395</duration>
						<rate>
							<timebase>25</timebase>
							<ntsc>FALSE</ntsc>
						</rate>
						<start>8413</start>
						<end>-1</end>
						<in>2058</in>
						<out>2892</out>
						<pproTicksIn>20910597120000</pproTicksIn>
						<pproTicksOut>29384570880000</pproTicksOut>
						<file id="file-369"/>
						<sourcetrack>
							<mediatype>audio</mediatype>
							<trackindex>1</trackindex>
						</sourcetrack>
						<filter>
							<effect>
								<name>Audio Levels</name>
								<effectid>audiolevels</effectid>
								<effectcategory>audiolevels</effectcategory>
								<effecttype>audiolevels</effecttype>
								<mediatype>audio</mediatype>
								<pproBypass>false</pproBypass>
								<parameter authoringApp="PremierePro">
									<parameterid>level</parameterid>
									<name>Level</name>
									<valuemin>0</valuemin>
									<valuemax>3.98109</valuemax>
									<value>0.177828</value>
								</parameter>
							</effect>
						</filter>
							<marker>
								<comment></comment>
								<name></name>
								<in>0</in>
								<out>-1</out>
							</marker>
							<marker>
								<comment></comment>
								<name></name>
								<in>35404</in>
								<out>-1</out>
							</marker>
							<marker>
								<comment></comment>
								<name></name>
								<in>22388</in>
								<out>-1</out>
							</marker>
							<marker>
								<comment></comment>
								<name></name>
								<in>16790</in>
								<out>-1</out>
							</marker>
							<marker>
								<comment></comment>
								<name></name>
								<in>11832</in>
								<out>-1</out>
							</marker>
							<marker>
								<comment></comment>
								<name></name>
								<in>43475</in>
								<out>-1</out>
							</marker>
							<marker>
								<comment></comment>
								<name></name>
								<in>19163</in>
								<out>-1</out>
							</marker>
							<marker>
								<comment></comment>
								<name></name>
								<in>26248</in>
								<out>-1</out>
							</marker>
							<marker>
								<comment></comment>
								<name></name>
								<in>9861</in>
								<out>-1</out>
							</marker>
							<marker>
								<comment></comment>
								<name></name>
								<in>39699</in>
								<out>-1</out>
							</marker>
							<marker>
								<comment></comment>
								<name></name>
								<in>37815</in>
								<out>-1</out>
							</marker>
							<marker>
								<comment></comment>
								<name></name>
								<in>33007</in>
								<out>-1</out>
							</marker>
							<marker>
								<comment></comment>
								<name></name>
								<in>2059</in>
								<out>-1</out>
							</marker>
							<marker>
								<comment></comment>
								<name></name>
								<in>2</in>
								<out>-1</out>
							</marker>
							<marker>
								<comment></comment>
								<name></name>
								<in>29059</in>
								<out>-1</out>
							</marker>
							<marker>
								<comment></comment>
								<name></name>
								<in>20862</in>
								<out>-1</out>
							</marker>
							<marker>
								<comment></comment>
								<name></name>
								<in>31139</in>
								<out>-1</out>
							</marker>
							<marker>
								<comment></comment>
								<name></name>
								<in>4214</in>
								<out>-1</out>
							</marker>
							<marker>
								<comment></comment>
								<name></name>
								<in>6200</in>
								<out>-1</out>
							</marker>
							<marker>
								<comment></comment>
								<name></name>
								<in>24484</in>
								<out>-1</out>
							</marker>
							<marker>
								<comment></comment>
								<name></name>
								<in>14293</in>
								<out>-1</out>
							</marker>
						<link>
							<linkclipref>clipitem-952</linkclipref>
							<mediatype>audio</mediatype>
							<trackindex>5</trackindex>
							<clipindex>3</clipindex>
							<groupindex>1</groupindex>
						</link>
						<link>
							<linkclipref>clipitem-963</linkclipref>
							<mediatype>audio</mediatype>
							<trackindex>6</trackindex>
							<clipindex>3</clipindex>
							<groupindex>1</groupindex>
						</link>
						<logginginfo>
							<description></description>
							<scene></scene>
							<shottake></shottake>
							<lognote></lognote>
							<good></good>
							<originalvideofilename></originalvideofilename>
							<originalaudiofilename></originalaudiofilename>
						</logginginfo>
						<colorinfo>
							<lut></lut>
							<lut1></lut1>
							<asc_sop></asc_sop>
							<asc_sat></asc_sat>
							<lut2></lut2>
						</colorinfo>
						<labels>
							<label2>Rose</label2>
						</labels>
					</clipitem>
					<transitionitem>
						<start>9222</start>
						<end>9247</end>
						<pproTicksIn>93701422080000</pproTicksIn>
						<pproTicksOut>93955438080000</pproTicksOut>
						<alignment>end-black</alignment>
						<cutPointTicks>254016000000</cutPointTicks>
						<rate>
							<timebase>25</timebase>
							<ntsc>FALSE</ntsc>
						</rate>
						<effect>
							<name>Cross Fade (+3dB)</name>
							<effectid>KGAudioTransCrossFade3dB</effectid>
							<effecttype>transition</effecttype>
							<mediatype>audio</mediatype>
							<wipecode>0</wipecode>
							<wipeaccuracy>100</wipeaccuracy>
							<startratio>0</startratio>
							<endratio>1</endratio>
							<reverse>FALSE</reverse>
						</effect>
					</transitionitem>
					<clipitem id="clipitem-953" premiereChannelType="stereo">
						<masterclipid>masterclip-429</masterclipid>
						<name>SOUND_2021.mp3</name>
						<enabled>TRUE</enabled>
						<duration>45395</duration>
						<rate>
							<timebase>25</timebase>
							<ntsc>FALSE</ntsc>
						</rate>
						<start>13309</start>
						<end>-1</end>
						<in>4213</in>
						<out>5097</out>
						<pproTicksIn>42806776320000</pproTicksIn>
						<pproTicksOut>51788782080000</pproTicksOut>
						<file id="file-369"/>
						<sourcetrack>
							<mediatype>audio</mediatype>
							<trackindex>1</trackindex>
						</sourcetrack>
						<filter>
							<effect>
								<name>Audio Levels</name>
								<effectid>audiolevels</effectid>
								<effectcategory>audiolevels</effectcategory>
								<effecttype>audiolevels</effecttype>
								<mediatype>audio</mediatype>
								<pproBypass>false</pproBypass>
								<parameter authoringApp="PremierePro">
									<parameterid>level</parameterid>
									<name>Level</name>
									<valuemin>0</valuemin>
									<valuemax>3.98109</valuemax>
									<value>0.177828</value>
								</parameter>
							</effect>
						</filter>
							<marker>
								<comment></comment>
								<name></name>
								<in>0</in>
								<out>-1</out>
							</marker>
							<marker>
								<comment></comment>
								<name></name>
								<in>35404</in>
								<out>-1</out>
							</marker>
							<marker>
								<comment></comment>
								<name></name>
								<in>22388</in>
								<out>-1</out>
							</marker>
							<marker>
								<comment></comment>
								<name></name>
								<in>16790</in>
								<out>-1</out>
							</marker>
							<marker>
								<comment></comment>
								<name></name>
								<in>11832</in>
								<out>-1</out>
							</marker>
							<marker>
								<comment></comment>
								<name></name>
								<in>43475</in>
								<out>-1</out>
							</marker>
							<marker>
								<comment></comment>
								<name></name>
								<in>19163</in>
								<out>-1</out>
							</marker>
							<marker>
								<comment></comment>
								<name></name>
								<in>26248</in>
								<out>-1</out>
							</marker>
							<marker>
								<comment></comment>
								<name></name>
								<in>9861</in>
								<out>-1</out>
							</marker>
							<marker>
								<comment></comment>
								<name></name>
								<in>39699</in>
								<out>-1</out>
							</marker>
							<marker>
								<comment></comment>
								<name></name>
								<in>37815</in>
								<out>-1</out>
							</marker>
							<marker>
								<comment></comment>
								<name></name>
								<in>33007</in>
								<out>-1</out>
							</marker>
							<marker>
								<comment></comment>
								<name></name>
								<in>2059</in>
								<out>-1</out>
							</marker>
							<marker>
								<comment></comment>
								<name></name>
								<in>2</in>
								<out>-1</out>
							</marker>
							<marker>
								<comment></comment>
								<name></name>
								<in>29059</in>
								<out>-1</out>
							</marker>
							<marker>
								<comment></comment>
								<name></name>
								<in>20862</in>
								<out>-1</out>
							</marker>
							<marker>
								<comment></comment>
								<name></name>
								<in>31139</in>
								<out>-1</out>
							</marker>
							<marker>
								<comment></comment>
								<name></name>
								<in>4214</in>
								<out>-1</out>
							</marker>
							<marker>
								<comment></comment>
								<name></name>
								<in>6200</in>
								<out>-1</out>
							</marker>
							<marker>
								<comment></comment>
								<name></name>
								<in>24484</in>
								<out>-1</out>
							</marker>
							<marker>
								<comment></comment>
								<name></name>
								<in>14293</in>
								<out>-1</out>
							</marker>
						<link>
							<linkclipref>clipitem-953</linkclipref>
							<mediatype>audio</mediatype>
							<trackindex>5</trackindex>
							<clipindex>5</clipindex>
							<groupindex>1</groupindex>
						</link>
						<link>
							<linkclipref>clipitem-964</linkclipref>
							<mediatype>audio</mediatype>
							<trackindex>6</trackindex>
							<clipindex>5</clipindex>
							<groupindex>1</groupindex>
						</link>
						<logginginfo>
							<description></description>
							<scene></scene>
							<shottake></shottake>
							<lognote></lognote>
							<good></good>
							<originalvideofilename></originalvideofilename>
							<originalaudiofilename></originalaudiofilename>
						</logginginfo>
						<colorinfo>
							<lut></lut>
							<lut1></lut1>
							<asc_sop></asc_sop>
							<asc_sat></asc_sat>
							<lut2></lut2>
						</colorinfo>
						<labels>
							<label2>Rose</label2>
						</labels>
					</clipitem>
					<transitionitem>
						<start>14168</start>
						<end>14193</end>
						<pproTicksIn>143955947520000</pproTicksIn>
						<pproTicksOut>144209963520000</pproTicksOut>
						<alignment>end-black</alignment>
						<cutPointTicks>254016000000</cutPointTicks>
						<rate>
							<timebase>25</timebase>
							<ntsc>FALSE</ntsc>
						</rate>
						<effect>
							<name>Cross Fade (+3dB)</name>
							<effectid>KGAudioTransCrossFade3dB</effectid>
							<effecttype>transition</effecttype>
							<mediatype>audio</mediatype>
							<wipecode>0</wipecode>
							<wipeaccuracy>100</wipeaccuracy>
							<startratio>0</startratio>
							<endratio>1</endratio>
							<reverse>FALSE</reverse>
						</effect>
					</transitionitem>
					<clipitem id="clipitem-954" premiereChannelType="stereo">
						<masterclipid>masterclip-429</masterclipid>
						<name>SOUND_2021.mp3</name>
						<enabled>TRUE</enabled>
						<duration>45395</duration>
						<rate>
							<timebase>25</timebase>
							<ntsc>FALSE</ntsc>
						</rate>
						<start>17569</start>
						<end>-1</end>
						<in>6199</in>
						<out>7373</out>
						<pproTicksIn>62985807360000</pproTicksIn>
						<pproTicksOut>74914398720000</pproTicksOut>
						<file id="file-369"/>
						<sourcetrack>
							<mediatype>audio</mediatype>
							<trackindex>1</trackindex>
						</sourcetrack>
						<filter>
							<effect>
								<name>Audio Levels</name>
								<effectid>audiolevels</effectid>
								<effectcategory>audiolevels</effectcategory>
								<effecttype>audiolevels</effecttype>
								<mediatype>audio</mediatype>
								<pproBypass>false</pproBypass>
								<parameter authoringApp="PremierePro">
									<parameterid>level</parameterid>
									<name>Level</name>
									<valuemin>0</valuemin>
									<valuemax>3.98109</valuemax>
									<value>0.177828</value>
								</parameter>
							</effect>
						</filter>
							<marker>
								<comment></comment>
								<name></name>
								<in>0</in>
								<out>-1</out>
							</marker>
							<marker>
								<comment></comment>
								<name></name>
								<in>35404</in>
								<out>-1</out>
							</marker>
							<marker>
								<comment></comment>
								<name></name>
								<in>22388</in>
								<out>-1</out>
							</marker>
							<marker>
								<comment></comment>
								<name></name>
								<in>16790</in>
								<out>-1</out>
							</marker>
							<marker>
								<comment></comment>
								<name></name>
								<in>11832</in>
								<out>-1</out>
							</marker>
							<marker>
								<comment></comment>
								<name></name>
								<in>43475</in>
								<out>-1</out>
							</marker>
							<marker>
								<comment></comment>
								<name></name>
								<in>19163</in>
								<out>-1</out>
							</marker>
							<marker>
								<comment></comment>
								<name></name>
								<in>26248</in>
								<out>-1</out>
							</marker>
							<marker>
								<comment></comment>
								<name></name>
								<in>9861</in>
								<out>-1</out>
							</marker>
							<marker>
								<comment></comment>
								<name></name>
								<in>39699</in>
								<out>-1</out>
							</marker>
							<marker>
								<comment></comment>
								<name></name>
								<in>37815</in>
								<out>-1</out>
							</marker>
							<marker>
								<comment></comment>
								<name></name>
								<in>33007</in>
								<out>-1</out>
							</marker>
							<marker>
								<comment></comment>
								<name></name>
								<in>2059</in>
								<out>-1</out>
							</marker>
							<marker>
								<comment></comment>
								<name></name>
								<in>2</in>
								<out>-1</out>
							</marker>
							<marker>
								<comment></comment>
								<name></name>
								<in>29059</in>
								<out>-1</out>
							</marker>
							<marker>
								<comment></comment>
								<name></name>
								<in>20862</in>
								<out>-1</out>
							</marker>
							<marker>
								<comment></comment>
								<name></name>
								<in>31139</in>
								<out>-1</out>
							</marker>
							<marker>
								<comment></comment>
								<name></name>
								<in>4214</in>
								<out>-1</out>
							</marker>
							<marker>
								<comment></comment>
								<name></name>
								<in>6200</in>
								<out>-1</out>
							</marker>
							<marker>
								<comment></comment>
								<name></name>
								<in>24484</in>
								<out>-1</out>
							</marker>
							<marker>
								<comment></comment>
								<name></name>
								<in>14293</in>
								<out>-1</out>
							</marker>
						<link>
							<linkclipref>clipitem-954</linkclipref>
							<mediatype>audio</mediatype>
							<trackindex>5</trackindex>
							<clipindex>7</clipindex>
							<groupindex>1</groupindex>
						</link>
						<link>
							<linkclipref>clipitem-965</linkclipref>
							<mediatype>audio</mediatype>
							<trackindex>6</trackindex>
							<clipindex>7</clipindex>
							<groupindex>1</groupindex>
						</link>
						<logginginfo>
							<description></description>
							<scene></scene>
							<shottake></shottake>
							<lognote></lognote>
							<good></good>
							<originalvideofilename></originalvideofilename>
							<originalaudiofilename></originalaudiofilename>
						</logginginfo>
						<colorinfo>
							<lut></lut>
							<lut1></lut1>
							<asc_sop></asc_sop>
							<asc_sat></asc_sat>
							<lut2></lut2>
						</colorinfo>
						<labels>
							<label2>Rose</label2>
						</labels>
					</clipitem>
					<transitionitem>
						<start>18718</start>
						<end>18743</end>
						<pproTicksIn>190186859520000</pproTicksIn>
						<pproTicksOut>190440875520000</pproTicksOut>
						<alignment>end-black</alignment>
						<cutPointTicks>254016000000</cutPointTicks>
						<rate>
							<timebase>25</timebase>
							<ntsc>FALSE</ntsc>
						</rate>
						<effect>
							<name>Cross Fade (+3dB)</name>
							<effectid>KGAudioTransCrossFade3dB</effectid>
							<effecttype>transition</effecttype>
							<mediatype>audio</mediatype>
							<wipecode>0</wipecode>
							<wipeaccuracy>100</wipeaccuracy>
							<startratio>0</startratio>
							<endratio>1</endratio>
							<reverse>FALSE</reverse>
						</effect>
					</transitionitem>
					<clipitem id="clipitem-955" premiereChannelType="stereo">
						<masterclipid>masterclip-429</masterclipid>
						<name>SOUND_2021.mp3</name>
						<enabled>TRUE</enabled>
						<duration>45395</duration>
						<rate>
							<timebase>25</timebase>
							<ntsc>FALSE</ntsc>
						</rate>
						<start>26805</start>
						<end>-1</end>
						<in>9860</in>
						<out>10989</out>
						<pproTicksIn>100183910400000</pproTicksIn>
						<pproTicksOut>111655272960000</pproTicksOut>
						<file id="file-369"/>
						<sourcetrack>
							<mediatype>audio</mediatype>
							<trackindex>1</trackindex>
						</sourcetrack>
						<filter>
							<effect>
								<name>Audio Levels</name>
								<effectid>audiolevels</effectid>
								<effectcategory>audiolevels</effectcategory>
								<effecttype>audiolevels</effecttype>
								<mediatype>audio</mediatype>
								<pproBypass>false</pproBypass>
								<parameter authoringApp="PremierePro">
									<parameterid>level</parameterid>
									<name>Level</name>
									<valuemin>0</valuemin>
									<valuemax>3.98109</valuemax>
									<value>0.177828</value>
								</parameter>
							</effect>
						</filter>
							<marker>
								<comment></comment>
								<name></name>
								<in>0</in>
								<out>-1</out>
							</marker>
							<marker>
								<comment></comment>
								<name></name>
								<in>35404</in>
								<out>-1</out>
							</marker>
							<marker>
								<comment></comment>
								<name></name>
								<in>22388</in>
								<out>-1</out>
							</marker>
							<marker>
								<comment></comment>
								<name></name>
								<in>16790</in>
								<out>-1</out>
							</marker>
							<marker>
								<comment></comment>
								<name></name>
								<in>11832</in>
								<out>-1</out>
							</marker>
							<marker>
								<comment></comment>
								<name></name>
								<in>43475</in>
								<out>-1</out>
							</marker>
							<marker>
								<comment></comment>
								<name></name>
								<in>19163</in>
								<out>-1</out>
							</marker>
							<marker>
								<comment></comment>
								<name></name>
								<in>26248</in>
								<out>-1</out>
							</marker>
							<marker>
								<comment></comment>
								<name></name>
								<in>9861</in>
								<out>-1</out>
							</marker>
							<marker>
								<comment></comment>
								<name></name>
								<in>39699</in>
								<out>-1</out>
							</marker>
							<marker>
								<comment></comment>
								<name></name>
								<in>37815</in>
								<out>-1</out>
							</marker>
							<marker>
								<comment></comment>
								<name></name>
								<in>33007</in>
								<out>-1</out>
							</marker>
							<marker>
								<comment></comment>
								<name></name>
								<in>2059</in>
								<out>-1</out>
							</marker>
							<marker>
								<comment></comment>
								<name></name>
								<in>2</in>
								<out>-1</out>
							</marker>
							<marker>
								<comment></comment>
								<name></name>
								<in>29059</in>
								<out>-1</out>
							</marker>
							<marker>
								<comment></comment>
								<name></name>
								<in>20862</in>
								<out>-1</out>
							</marker>
							<marker>
								<comment></comment>
								<name></name>
								<in>31139</in>
								<out>-1</out>
							</marker>
							<marker>
								<comment></comment>
								<name></name>
								<in>4214</in>
								<out>-1</out>
							</marker>
							<marker>
								<comment></comment>
								<name></name>
								<in>6200</in>
								<out>-1</out>
							</marker>
							<marker>
								<comment></comment>
								<name></name>
								<in>24484</in>
								<out>-1</out>
							</marker>
							<marker>
								<comment></comment>
								<name></name>
								<in>14293</in>
								<out>-1</out>
							</marker>
						<link>
							<linkclipref>clipitem-955</linkclipref>
							<mediatype>audio</mediatype>
							<trackindex>5</trackindex>
							<clipindex>9</clipindex>
							<groupindex>1</groupindex>
						</link>
						<link>
							<linkclipref>clipitem-966</linkclipref>
							<mediatype>audio</mediatype>
							<trackindex>6</trackindex>
							<clipindex>9</clipindex>
							<groupindex>1</groupindex>
						</link>
						<logginginfo>
							<description></description>
							<scene></scene>
							<shottake></shottake>
							<lognote></lognote>
							<good></good>
							<originalvideofilename></originalvideofilename>
							<originalaudiofilename></originalaudiofilename>
						</logginginfo>
						<colorinfo>
							<lut></lut>
							<lut1></lut1>
							<asc_sop></asc_sop>
							<asc_sat></asc_sat>
							<lut2></lut2>
						</colorinfo>
						<labels>
							<label2>Rose</label2>
						</labels>
					</clipitem>
					<transitionitem>
						<start>27909</start>
						<end>27934</end>
						<pproTicksIn>283573301760000</pproTicksIn>
						<pproTicksOut>283827317760000</pproTicksOut>
						<alignment>end-black</alignment>
						<cutPointTicks>254016000000</cutPointTicks>
						<rate>
							<timebase>25</timebase>
							<ntsc>FALSE</ntsc>
						</rate>
						<effect>
							<name>Cross Fade (+3dB)</name>
							<effectid>KGAudioTransCrossFade3dB</effectid>
							<effecttype>transition</effecttype>
							<mediatype>audio</mediatype>
							<wipecode>0</wipecode>
							<wipeaccuracy>100</wipeaccuracy>
							<startratio>0</startratio>
							<endratio>1</endratio>
							<reverse>FALSE</reverse>
						</effect>
					</transitionitem>
					<clipitem id="clipitem-956" premiereChannelType="stereo">
						<masterclipid>masterclip-429</masterclipid>
						<name>SOUND_2021.mp3</name>
						<enabled>TRUE</enabled>
						<duration>45395</duration>
						<rate>
							<timebase>25</timebase>
							<ntsc>FALSE</ntsc>
						</rate>
						<start>37282</start>
						<end>-1</end>
						<in>11831</in>
						<out>12696</out>
						<pproTicksIn>120210531840000</pproTicksIn>
						<pproTicksOut>128999485440000</pproTicksOut>
						<file id="file-369"/>
						<sourcetrack>
							<mediatype>audio</mediatype>
							<trackindex>1</trackindex>
						</sourcetrack>
						<filter>
							<effect>
								<name>Audio Levels</name>
								<effectid>audiolevels</effectid>
								<effectcategory>audiolevels</effectcategory>
								<effecttype>audiolevels</effecttype>
								<mediatype>audio</mediatype>
								<pproBypass>false</pproBypass>
								<parameter authoringApp="PremierePro">
									<parameterid>level</parameterid>
									<name>Level</name>
									<valuemin>0</valuemin>
									<valuemax>3.98109</valuemax>
									<value>0.177828</value>
								</parameter>
							</effect>
						</filter>
							<marker>
								<comment></comment>
								<name></name>
								<in>0</in>
								<out>-1</out>
							</marker>
							<marker>
								<comment></comment>
								<name></name>
								<in>35404</in>
								<out>-1</out>
							</marker>
							<marker>
								<comment></comment>
								<name></name>
								<in>22388</in>
								<out>-1</out>
							</marker>
							<marker>
								<comment></comment>
								<name></name>
								<in>16790</in>
								<out>-1</out>
							</marker>
							<marker>
								<comment></comment>
								<name></name>
								<in>11832</in>
								<out>-1</out>
							</marker>
							<marker>
								<comment></comment>
								<name></name>
								<in>43475</in>
								<out>-1</out>
							</marker>
							<marker>
								<comment></comment>
								<name></name>
								<in>19163</in>
								<out>-1</out>
							</marker>
							<marker>
								<comment></comment>
								<name></name>
								<in>26248</in>
								<out>-1</out>
							</marker>
							<marker>
								<comment></comment>
								<name></name>
								<in>9861</in>
								<out>-1</out>
							</marker>
							<marker>
								<comment></comment>
								<name></name>
								<in>39699</in>
								<out>-1</out>
							</marker>
							<marker>
								<comment></comment>
								<name></name>
								<in>37815</in>
								<out>-1</out>
							</marker>
							<marker>
								<comment></comment>
								<name></name>
								<in>33007</in>
								<out>-1</out>
							</marker>
							<marker>
								<comment></comment>
								<name></name>
								<in>2059</in>
								<out>-1</out>
							</marker>
							<marker>
								<comment></comment>
								<name></name>
								<in>2</in>
								<out>-1</out>
							</marker>
							<marker>
								<comment></comment>
								<name></name>
								<in>29059</in>
								<out>-1</out>
							</marker>
							<marker>
								<comment></comment>
								<name></name>
								<in>20862</in>
								<out>-1</out>
							</marker>
							<marker>
								<comment></comment>
								<name></name>
								<in>31139</in>
								<out>-1</out>
							</marker>
							<marker>
								<comment></comment>
								<name></name>
								<in>4214</in>
								<out>-1</out>
							</marker>
							<marker>
								<comment></comment>
								<name></name>
								<in>6200</in>
								<out>-1</out>
							</marker>
							<marker>
								<comment></comment>
								<name></name>
								<in>24484</in>
								<out>-1</out>
							</marker>
							<marker>
								<comment></comment>
								<name></name>
								<in>14293</in>
								<out>-1</out>
							</marker>
						<link>
							<linkclipref>clipitem-956</linkclipref>
							<mediatype>audio</mediatype>
							<trackindex>5</trackindex>
							<clipindex>11</clipindex>
							<groupindex>1</groupindex>
						</link>
						<link>
							<linkclipref>clipitem-967</linkclipref>
							<mediatype>audio</mediatype>
							<trackindex>6</trackindex>
							<clipindex>11</clipindex>
							<groupindex>1</groupindex>
						</link>
						<logginginfo>
							<description></description>
							<scene></scene>
							<shottake></shottake>
							<lognote></lognote>
							<good></good>
							<originalvideofilename></originalvideofilename>
							<originalaudiofilename></originalaudiofilename>
						</logginginfo>
						<colorinfo>
							<lut></lut>
							<lut1></lut1>
							<asc_sop></asc_sop>
							<asc_sat></asc_sat>
							<lut2></lut2>
						</colorinfo>
						<labels>
							<label2>Rose</label2>
						</labels>
					</clipitem>
					<transitionitem>
						<start>38122</start>
						<end>38147</end>
						<pproTicksIn>387343918080000</pproTicksIn>
						<pproTicksOut>387597934080000</pproTicksOut>
						<alignment>end-black</alignment>
						<cutPointTicks>254016000000</cutPointTicks>
						<rate>
							<timebase>25</timebase>
							<ntsc>FALSE</ntsc>
						</rate>
						<effect>
							<name>Cross Fade (+3dB)</name>
							<effectid>KGAudioTransCrossFade3dB</effectid>
							<effecttype>transition</effecttype>
							<mediatype>audio</mediatype>
							<wipecode>0</wipecode>
							<wipeaccuracy>100</wipeaccuracy>
							<startratio>0</startratio>
							<endratio>1</endratio>
							<reverse>FALSE</reverse>
						</effect>
					</transitionitem>
					<clipitem id="clipitem-957" premiereChannelType="stereo">
						<masterclipid>masterclip-429</masterclipid>
						<name>SOUND_2021.mp3</name>
						<enabled>TRUE</enabled>
						<duration>45395</duration>
						<rate>
							<timebase>25</timebase>
							<ntsc>FALSE</ntsc>
						</rate>
						<start>43592</start>
						<end>-1</end>
						<in>14292</in>
						<out>15486</out>
						<pproTicksIn>145215866880000</pproTicksIn>
						<pproTicksOut>157347671040000</pproTicksOut>
						<file id="file-369"/>
						<sourcetrack>
							<mediatype>audio</mediatype>
							<trackindex>1</trackindex>
						</sourcetrack>
						<filter>
							<effect>
								<name>Audio Levels</name>
								<effectid>audiolevels</effectid>
								<effectcategory>audiolevels</effectcategory>
								<effecttype>audiolevels</effecttype>
								<mediatype>audio</mediatype>
								<pproBypass>false</pproBypass>
								<parameter authoringApp="PremierePro">
									<parameterid>level</parameterid>
									<name>Level</name>
									<valuemin>0</valuemin>
									<valuemax>3.98109</valuemax>
									<value>0.177828</value>
								</parameter>
							</effect>
						</filter>
							<marker>
								<comment></comment>
								<name></name>
								<in>0</in>
								<out>-1</out>
							</marker>
							<marker>
								<comment></comment>
								<name></name>
								<in>35404</in>
								<out>-1</out>
							</marker>
							<marker>
								<comment></comment>
								<name></name>
								<in>22388</in>
								<out>-1</out>
							</marker>
							<marker>
								<comment></comment>
								<name></name>
								<in>16790</in>
								<out>-1</out>
							</marker>
							<marker>
								<comment></comment>
								<name></name>
								<in>11832</in>
								<out>-1</out>
							</marker>
							<marker>
								<comment></comment>
								<name></name>
								<in>43475</in>
								<out>-1</out>
							</marker>
							<marker>
								<comment></comment>
								<name></name>
								<in>19163</in>
								<out>-1</out>
							</marker>
							<marker>
								<comment></comment>
								<name></name>
								<in>26248</in>
								<out>-1</out>
							</marker>
							<marker>
								<comment></comment>
								<name></name>
								<in>9861</in>
								<out>-1</out>
							</marker>
							<marker>
								<comment></comment>
								<name></name>
								<in>39699</in>
								<out>-1</out>
							</marker>
							<marker>
								<comment></comment>
								<name></name>
								<in>37815</in>
								<out>-1</out>
							</marker>
							<marker>
								<comment></comment>
								<name></name>
								<in>33007</in>
								<out>-1</out>
							</marker>
							<marker>
								<comment></comment>
								<name></name>
								<in>2059</in>
								<out>-1</out>
							</marker>
							<marker>
								<comment></comment>
								<name></name>
								<in>2</in>
								<out>-1</out>
							</marker>
							<marker>
								<comment></comment>
								<name></name>
								<in>29059</in>
								<out>-1</out>
							</marker>
							<marker>
								<comment></comment>
								<name></name>
								<in>20862</in>
								<out>-1</out>
							</marker>
							<marker>
								<comment></comment>
								<name></name>
								<in>31139</in>
								<out>-1</out>
							</marker>
							<marker>
								<comment></comment>
								<name></name>
								<in>4214</in>
								<out>-1</out>
							</marker>
							<marker>
								<comment></comment>
								<name></name>
								<in>6200</in>
								<out>-1</out>
							</marker>
							<marker>
								<comment></comment>
								<name></name>
								<in>24484</in>
								<out>-1</out>
							</marker>
							<marker>
								<comment></comment>
								<name></name>
								<in>14293</in>
								<out>-1</out>
							</marker>
						<link>
							<linkclipref>clipitem-957</linkclipref>
							<mediatype>audio</mediatype>
							<trackindex>5</trackindex>
							<clipindex>13</clipindex>
							<groupindex>1</groupindex>
						</link>
						<link>
							<linkclipref>clipitem-968</linkclipref>
							<mediatype>audio</mediatype>
							<trackindex>6</trackindex>
							<clipindex>13</clipindex>
							<groupindex>1</groupindex>
						</link>
						<logginginfo>
							<description></description>
							<scene></scene>
							<shottake></shottake>
							<lognote></lognote>
							<good></good>
							<originalvideofilename></originalvideofilename>
							<originalaudiofilename></originalaudiofilename>
						</logginginfo>
						<colorinfo>
							<lut></lut>
							<lut1></lut1>
							<asc_sop></asc_sop>
							<asc_sat></asc_sat>
							<lut2></lut2>
						</colorinfo>
						<labels>
							<label2>Rose</label2>
						</labels>
					</clipitem>
					<transitionitem>
						<start>44761</start>
						<end>44786</end>
						<pproTicksIn>454800407040000</pproTicksIn>
						<pproTicksOut>455054423040000</pproTicksOut>
						<alignment>end-black</alignment>
						<cutPointTicks>254016000000</cutPointTicks>
						<rate>
							<timebase>25</timebase>
							<ntsc>FALSE</ntsc>
						</rate>
						<effect>
							<name>Cross Fade (+3dB)</name>
							<effectid>KGAudioTransCrossFade3dB</effectid>
							<effecttype>transition</effecttype>
							<mediatype>audio</mediatype>
							<wipecode>0</wipecode>
							<wipeaccuracy>100</wipeaccuracy>
							<startratio>0</startratio>
							<endratio>1</endratio>
							<reverse>FALSE</reverse>
						</effect>
					</transitionitem>
					<clipitem id="clipitem-958" premiereChannelType="stereo">
						<masterclipid>masterclip-429</masterclipid>
						<name>SOUND_2021.mp3</name>
						<enabled>TRUE</enabled>
						<duration>45395</duration>
						<rate>
							<timebase>25</timebase>
							<ntsc>FALSE</ntsc>
						</rate>
						<start>49280</start>
						<end>-1</end>
						<in>16789</in>
						<out>17849</out>
						<pproTicksIn>170586984960000</pproTicksIn>
						<pproTicksOut>181357263360000</pproTicksOut>
						<file id="file-369"/>
						<sourcetrack>
							<mediatype>audio</mediatype>
							<trackindex>1</trackindex>
						</sourcetrack>
						<filter>
							<effect>
								<name>Audio Levels</name>
								<effectid>audiolevels</effectid>
								<effectcategory>audiolevels</effectcategory>
								<effecttype>audiolevels</effecttype>
								<mediatype>audio</mediatype>
								<pproBypass>false</pproBypass>
								<parameter authoringApp="PremierePro">
									<parameterid>level</parameterid>
									<name>Level</name>
									<valuemin>0</valuemin>
									<valuemax>3.98109</valuemax>
									<value>0.177828</value>
								</parameter>
							</effect>
						</filter>
							<marker>
								<comment></comment>
								<name></name>
								<in>0</in>
								<out>-1</out>
							</marker>
							<marker>
								<comment></comment>
								<name></name>
								<in>35404</in>
								<out>-1</out>
							</marker>
							<marker>
								<comment></comment>
								<name></name>
								<in>22388</in>
								<out>-1</out>
							</marker>
							<marker>
								<comment></comment>
								<name></name>
								<in>16790</in>
								<out>-1</out>
							</marker>
							<marker>
								<comment></comment>
								<name></name>
								<in>11832</in>
								<out>-1</out>
							</marker>
							<marker>
								<comment></comment>
								<name></name>
								<in>43475</in>
								<out>-1</out>
							</marker>
							<marker>
								<comment></comment>
								<name></name>
								<in>19163</in>
								<out>-1</out>
							</marker>
							<marker>
								<comment></comment>
								<name></name>
								<in>26248</in>
								<out>-1</out>
							</marker>
							<marker>
								<comment></comment>
								<name></name>
								<in>9861</in>
								<out>-1</out>
							</marker>
							<marker>
								<comment></comment>
								<name></name>
								<in>39699</in>
								<out>-1</out>
							</marker>
							<marker>
								<comment></comment>
								<name></name>
								<in>37815</in>
								<out>-1</out>
							</marker>
							<marker>
								<comment></comment>
								<name></name>
								<in>33007</in>
								<out>-1</out>
							</marker>
							<marker>
								<comment></comment>
								<name></name>
								<in>2059</in>
								<out>-1</out>
							</marker>
							<marker>
								<comment></comment>
								<name></name>
								<in>2</in>
								<out>-1</out>
							</marker>
							<marker>
								<comment></comment>
								<name></name>
								<in>29059</in>
								<out>-1</out>
							</marker>
							<marker>
								<comment></comment>
								<name></name>
								<in>20862</in>
								<out>-1</out>
							</marker>
							<marker>
								<comment></comment>
								<name></name>
								<in>31139</in>
								<out>-1</out>
							</marker>
							<marker>
								<comment></comment>
								<name></name>
								<in>4214</in>
								<out>-1</out>
							</marker>
							<marker>
								<comment></comment>
								<name></name>
								<in>6200</in>
								<out>-1</out>
							</marker>
							<marker>
								<comment></comment>
								<name></name>
								<in>24484</in>
								<out>-1</out>
							</marker>
							<marker>
								<comment></comment>
								<name></name>
								<in>14293</in>
								<out>-1</out>
							</marker>
						<link>
							<linkclipref>clipitem-958</linkclipref>
							<mediatype>audio</mediatype>
							<trackindex>5</trackindex>
							<clipindex>15</clipindex>
							<groupindex>1</groupindex>
						</link>
						<link>
							<linkclipref>clipitem-969</linkclipref>
							<mediatype>audio</mediatype>
							<trackindex>6</trackindex>
							<clipindex>15</clipindex>
							<groupindex>1</groupindex>
						</link>
						<logginginfo>
							<description></description>
							<scene></scene>
							<shottake></shottake>
							<lognote></lognote>
							<good></good>
							<originalvideofilename></originalvideofilename>
							<originalaudiofilename></originalaudiofilename>
						</logginginfo>
						<colorinfo>
							<lut></lut>
							<lut1></lut1>
							<asc_sop></asc_sop>
							<asc_sat></asc_sat>
							<lut2></lut2>
						</colorinfo>
						<labels>
							<label2>Rose</label2>
						</labels>
					</clipitem>
					<transitionitem>
						<start>50315</start>
						<end>50340</end>
						<pproTicksIn>511232601600000</pproTicksIn>
						<pproTicksOut>511486617600000</pproTicksOut>
						<alignment>end-black</alignment>
						<cutPointTicks>254016000000</cutPointTicks>
						<rate>
							<timebase>25</timebase>
							<ntsc>FALSE</ntsc>
						</rate>
						<effect>
							<name>Cross Fade (+3dB)</name>
							<effectid>KGAudioTransCrossFade3dB</effectid>
							<effecttype>transition</effecttype>
							<mediatype>audio</mediatype>
							<wipecode>0</wipecode>
							<wipeaccuracy>100</wipeaccuracy>
							<startratio>0</startratio>
							<endratio>1</endratio>
							<reverse>FALSE</reverse>
						</effect>
					</transitionitem>
					<clipitem id="clipitem-959" premiereChannelType="stereo">
						<masterclipid>masterclip-429</masterclipid>
						<name>SOUND_2021.mp3</name>
						<enabled>TRUE</enabled>
						<duration>45395</duration>
						<rate>
							<timebase>25</timebase>
							<ntsc>FALSE</ntsc>
						</rate>
						<start>55981</start>
						<end>-1</end>
						<in>19162</in>
						<out>20166</out>
						<pproTicksIn>194698183680000</pproTicksIn>
						<pproTicksOut>204899466240000</pproTicksOut>
						<file id="file-369"/>
						<sourcetrack>
							<mediatype>audio</mediatype>
							<trackindex>1</trackindex>
						</sourcetrack>
						<filter>
							<effect>
								<name>Audio Levels</name>
								<effectid>audiolevels</effectid>
								<effectcategory>audiolevels</effectcategory>
								<effecttype>audiolevels</effecttype>
								<mediatype>audio</mediatype>
								<pproBypass>false</pproBypass>
								<parameter authoringApp="PremierePro">
									<parameterid>level</parameterid>
									<name>Level</name>
									<valuemin>0</valuemin>
									<valuemax>3.98109</valuemax>
									<value>0.177828</value>
								</parameter>
							</effect>
						</filter>
							<marker>
								<comment></comment>
								<name></name>
								<in>0</in>
								<out>-1</out>
							</marker>
							<marker>
								<comment></comment>
								<name></name>
								<in>35404</in>
								<out>-1</out>
							</marker>
							<marker>
								<comment></comment>
								<name></name>
								<in>22388</in>
								<out>-1</out>
							</marker>
							<marker>
								<comment></comment>
								<name></name>
								<in>16790</in>
								<out>-1</out>
							</marker>
							<marker>
								<comment></comment>
								<name></name>
								<in>11832</in>
								<out>-1</out>
							</marker>
							<marker>
								<comment></comment>
								<name></name>
								<in>43475</in>
								<out>-1</out>
							</marker>
							<marker>
								<comment></comment>
								<name></name>
								<in>19163</in>
								<out>-1</out>
							</marker>
							<marker>
								<comment></comment>
								<name></name>
								<in>26248</in>
								<out>-1</out>
							</marker>
							<marker>
								<comment></comment>
								<name></name>
								<in>9861</in>
								<out>-1</out>
							</marker>
							<marker>
								<comment></comment>
								<name></name>
								<in>39699</in>
								<out>-1</out>
							</marker>
							<marker>
								<comment></comment>
								<name></name>
								<in>37815</in>
								<out>-1</out>
							</marker>
							<marker>
								<comment></comment>
								<name></name>
								<in>33007</in>
								<out>-1</out>
							</marker>
							<marker>
								<comment></comment>
								<name></name>
								<in>2059</in>
								<out>-1</out>
							</marker>
							<marker>
								<comment></comment>
								<name></name>
								<in>2</in>
								<out>-1</out>
							</marker>
							<marker>
								<comment></comment>
								<name></name>
								<in>29059</in>
								<out>-1</out>
							</marker>
							<marker>
								<comment></comment>
								<name></name>
								<in>20862</in>
								<out>-1</out>
							</marker>
							<marker>
								<comment></comment>
								<name></name>
								<in>31139</in>
								<out>-1</out>
							</marker>
							<marker>
								<comment></comment>
								<name></name>
								<in>4214</in>
								<out>-1</out>
							</marker>
							<marker>
								<comment></comment>
								<name></name>
								<in>6200</in>
								<out>-1</out>
							</marker>
							<marker>
								<comment></comment>
								<name></name>
								<in>24484</in>
								<out>-1</out>
							</marker>
							<marker>
								<comment></comment>
								<name></name>
								<in>14293</in>
								<out>-1</out>
							</marker>
						<link>
							<linkclipref>clipitem-959</linkclipref>
							<mediatype>audio</mediatype>
							<trackindex>5</trackindex>
							<clipindex>17</clipindex>
							<groupindex>1</groupindex>
						</link>
						<link>
							<linkclipref>clipitem-970</linkclipref>
							<mediatype>audio</mediatype>
							<trackindex>6</trackindex>
							<clipindex>17</clipindex>
							<groupindex>1</groupindex>
						</link>
						<logginginfo>
							<description></description>
							<scene></scene>
							<shottake></shottake>
							<lognote></lognote>
							<good></good>
							<originalvideofilename></originalvideofilename>
							<originalaudiofilename></originalaudiofilename>
						</logginginfo>
						<colorinfo>
							<lut></lut>
							<lut1></lut1>
							<asc_sop></asc_sop>
							<asc_sat></asc_sat>
							<lut2></lut2>
						</colorinfo>
						<labels>
							<label2>Rose</label2>
						</labels>
					</clipitem>
					<transitionitem>
						<start>56960</start>
						<end>56985</end>
						<pproTicksIn>578750054400000</pproTicksIn>
						<pproTicksOut>579004070400000</pproTicksOut>
						<alignment>end-black</alignment>
						<cutPointTicks>254016000000</cutPointTicks>
						<rate>
							<timebase>25</timebase>
							<ntsc>FALSE</ntsc>
						</rate>
						<effect>
							<name>Cross Fade (+3dB)</name>
							<effectid>KGAudioTransCrossFade3dB</effectid>
							<effecttype>transition</effecttype>
							<mediatype>audio</mediatype>
							<wipecode>0</wipecode>
							<wipeaccuracy>100</wipeaccuracy>
							<startratio>0</startratio>
							<endratio>1</endratio>
							<reverse>FALSE</reverse>
						</effect>
					</transitionitem>
					<clipitem id="clipitem-960" premiereChannelType="stereo">
						<masterclipid>masterclip-429</masterclipid>
						<name>SOUND_2021.mp3</name>
						<enabled>TRUE</enabled>
						<duration>45395</duration>
						<rate>
							<timebase>25</timebase>
							<ntsc>FALSE</ntsc>
						</rate>
						<start>60510</start>
						<end>-1</end>
						<in>20861</in>
						<out>21850</out>
						<pproTicksIn>211961111040000</pproTicksIn>
						<pproTicksOut>222009984000000</pproTicksOut>
						<file id="file-369"/>
						<sourcetrack>
							<mediatype>audio</mediatype>
							<trackindex>1</trackindex>
						</sourcetrack>
						<filter>
							<effect>
								<name>Audio Levels</name>
								<effectid>audiolevels</effectid>
								<effectcategory>audiolevels</effectcategory>
								<effecttype>audiolevels</effecttype>
								<mediatype>audio</mediatype>
								<pproBypass>false</pproBypass>
								<parameter authoringApp="PremierePro">
									<parameterid>level</parameterid>
									<name>Level</name>
									<valuemin>0</valuemin>
									<valuemax>3.98109</valuemax>
									<value>0.177828</value>
								</parameter>
							</effect>
						</filter>
							<marker>
								<comment></comment>
								<name></name>
								<in>0</in>
								<out>-1</out>
							</marker>
							<marker>
								<comment></comment>
								<name></name>
								<in>35404</in>
								<out>-1</out>
							</marker>
							<marker>
								<comment></comment>
								<name></name>
								<in>22388</in>
								<out>-1</out>
							</marker>
							<marker>
								<comment></comment>
								<name></name>
								<in>16790</in>
								<out>-1</out>
							</marker>
							<marker>
								<comment></comment>
								<name></name>
								<in>11832</in>
								<out>-1</out>
							</marker>
							<marker>
								<comment></comment>
								<name></name>
								<in>43475</in>
								<out>-1</out>
							</marker>
							<marker>
								<comment></comment>
								<name></name>
								<in>19163</in>
								<out>-1</out>
							</marker>
							<marker>
								<comment></comment>
								<name></name>
								<in>26248</in>
								<out>-1</out>
							</marker>
							<marker>
								<comment></comment>
								<name></name>
								<in>9861</in>
								<out>-1</out>
							</marker>
							<marker>
								<comment></comment>
								<name></name>
								<in>39699</in>
								<out>-1</out>
							</marker>
							<marker>
								<comment></comment>
								<name></name>
								<in>37815</in>
								<out>-1</out>
							</marker>
							<marker>
								<comment></comment>
								<name></name>
								<in>33007</in>
								<out>-1</out>
							</marker>
							<marker>
								<comment></comment>
								<name></name>
								<in>2059</in>
								<out>-1</out>
							</marker>
							<marker>
								<comment></comment>
								<name></name>
								<in>2</in>
								<out>-1</out>
							</marker>
							<marker>
								<comment></comment>
								<name></name>
								<in>29059</in>
								<out>-1</out>
							</marker>
							<marker>
								<comment></comment>
								<name></name>
								<in>20862</in>
								<out>-1</out>
							</marker>
							<marker>
								<comment></comment>
								<name></name>
								<in>31139</in>
								<out>-1</out>
							</marker>
							<marker>
								<comment></comment>
								<name></name>
								<in>4214</in>
								<out>-1</out>
							</marker>
							<marker>
								<comment></comment>
								<name></name>
								<in>6200</in>
								<out>-1</out>
							</marker>
							<marker>
								<comment></comment>
								<name></name>
								<in>24484</in>
								<out>-1</out>
							</marker>
							<marker>
								<comment></comment>
								<name></name>
								<in>14293</in>
								<out>-1</out>
							</marker>
						<link>
							<linkclipref>clipitem-960</linkclipref>
							<mediatype>audio</mediatype>
							<trackindex>5</trackindex>
							<clipindex>19</clipindex>
							<groupindex>1</groupindex>
						</link>
						<link>
							<linkclipref>clipitem-971</linkclipref>
							<mediatype>audio</mediatype>
							<trackindex>6</trackindex>
							<clipindex>19</clipindex>
							<groupindex>1</groupindex>
						</link>
						<logginginfo>
							<description></description>
							<scene></scene>
							<shottake></shottake>
							<lognote></lognote>
							<good></good>
							<originalvideofilename></originalvideofilename>
							<originalaudiofilename></originalaudiofilename>
						</logginginfo>
						<colorinfo>
							<lut></lut>
							<lut1></lut1>
							<asc_sop></asc_sop>
							<asc_sat></asc_sat>
							<lut2></lut2>
						</colorinfo>
						<labels>
							<label2>Rose</label2>
						</labels>
					</clipitem>
					<transitionitem>
						<start>61474</start>
						<end>61499</end>
						<pproTicksIn>624615183360000</pproTicksIn>
						<pproTicksOut>624869199360000</pproTicksOut>
						<alignment>end-black</alignment>
						<cutPointTicks>254016000000</cutPointTicks>
						<rate>
							<timebase>25</timebase>
							<ntsc>FALSE</ntsc>
						</rate>
						<effect>
							<name>Cross Fade (+3dB)</name>
							<effectid>KGAudioTransCrossFade3dB</effectid>
							<effecttype>transition</effecttype>
							<mediatype>audio</mediatype>
							<wipecode>0</wipecode>
							<wipeaccuracy>100</wipeaccuracy>
							<startratio>0</startratio>
							<endratio>1</endratio>
							<reverse>FALSE</reverse>
						</effect>
					</transitionitem>
					<clipitem id="clipitem-961" premiereChannelType="stereo">
						<masterclipid>masterclip-429</masterclipid>
						<name>SOUND_2021.mp3</name>
						<enabled>TRUE</enabled>
						<duration>45395</duration>
						<rate>
							<timebase>25</timebase>
							<ntsc>FALSE</ntsc>
						</rate>
						<start>65165</start>
						<end>-1</end>
						<in>22387</in>
						<out>22962</out>
						<pproTicksIn>227466247680000</pproTicksIn>
						<pproTicksOut>233308615680000</pproTicksOut>
						<file id="file-369"/>
						<sourcetrack>
							<mediatype>audio</mediatype>
							<trackindex>1</trackindex>
						</sourcetrack>
						<filter>
							<effect>
								<name>Audio Levels</name>
								<effectid>audiolevels</effectid>
								<effectcategory>audiolevels</effectcategory>
								<effecttype>audiolevels</effecttype>
								<mediatype>audio</mediatype>
								<pproBypass>false</pproBypass>
								<parameter authoringApp="PremierePro">
									<parameterid>level</parameterid>
									<name>Level</name>
									<valuemin>0</valuemin>
									<valuemax>3.98109</valuemax>
									<value>0.177828</value>
								</parameter>
							</effect>
						</filter>
							<marker>
								<comment></comment>
								<name></name>
								<in>0</in>
								<out>-1</out>
							</marker>
							<marker>
								<comment></comment>
								<name></name>
								<in>35404</in>
								<out>-1</out>
							</marker>
							<marker>
								<comment></comment>
								<name></name>
								<in>22388</in>
								<out>-1</out>
							</marker>
							<marker>
								<comment></comment>
								<name></name>
								<in>16790</in>
								<out>-1</out>
							</marker>
							<marker>
								<comment></comment>
								<name></name>
								<in>11832</in>
								<out>-1</out>
							</marker>
							<marker>
								<comment></comment>
								<name></name>
								<in>43475</in>
								<out>-1</out>
							</marker>
							<marker>
								<comment></comment>
								<name></name>
								<in>19163</in>
								<out>-1</out>
							</marker>
							<marker>
								<comment></comment>
								<name></name>
								<in>26248</in>
								<out>-1</out>
							</marker>
							<marker>
								<comment></comment>
								<name></name>
								<in>9861</in>
								<out>-1</out>
							</marker>
							<marker>
								<comment></comment>
								<name></name>
								<in>39699</in>
								<out>-1</out>
							</marker>
							<marker>
								<comment></comment>
								<name></name>
								<in>37815</in>
								<out>-1</out>
							</marker>
							<marker>
								<comment></comment>
								<name></name>
								<in>33007</in>
								<out>-1</out>
							</marker>
							<marker>
								<comment></comment>
								<name></name>
								<in>2059</in>
								<out>-1</out>
							</marker>
							<marker>
								<comment></comment>
								<name></name>
								<in>2</in>
								<out>-1</out>
							</marker>
							<marker>
								<comment></comment>
								<name></name>
								<in>29059</in>
								<out>-1</out>
							</marker>
							<marker>
								<comment></comment>
								<name></name>
								<in>20862</in>
								<out>-1</out>
							</marker>
							<marker>
								<comment></comment>
								<name></name>
								<in>31139</in>
								<out>-1</out>
							</marker>
							<marker>
								<comment></comment>
								<name></name>
								<in>4214</in>
								<out>-1</out>
							</marker>
							<marker>
								<comment></comment>
								<name></name>
								<in>6200</in>
								<out>-1</out>
							</marker>
							<marker>
								<comment></comment>
								<name></name>
								<in>24484</in>
								<out>-1</out>
							</marker>
							<marker>
								<comment></comment>
								<name></name>
								<in>14293</in>
								<out>-1</out>
							</marker>
						<link>
							<linkclipref>clipitem-961</linkclipref>
							<mediatype>audio</mediatype>
							<trackindex>5</trackindex>
							<clipindex>21</clipindex>
							<groupindex>1</groupindex>
						</link>
						<link>
							<linkclipref>clipitem-972</linkclipref>
							<mediatype>audio</mediatype>
							<trackindex>6</trackindex>
							<clipindex>21</clipindex>
							<groupindex>1</groupindex>
						</link>
						<logginginfo>
							<description></description>
							<scene></scene>
							<shottake></shottake>
							<lognote></lognote>
							<good></good>
							<originalvideofilename></originalvideofilename>
							<originalaudiofilename></originalaudiofilename>
						</logginginfo>
						<colorinfo>
							<lut></lut>
							<lut1></lut1>
							<asc_sop></asc_sop>
							<asc_sat></asc_sat>
							<lut2></lut2>
						</colorinfo>
						<labels>
							<label2>Rose</label2>
						</labels>
					</clipitem>
					<transitionitem>
						<start>65715</start>
						<end>65740</end>
						<pproTicksIn>667706457600000</pproTicksIn>
						<pproTicksOut>667960473600000</pproTicksOut>
						<alignment>end-black</alignment>
						<cutPointTicks>254016000000</cutPointTicks>
						<rate>
							<timebase>25</timebase>
							<ntsc>FALSE</ntsc>
						</rate>
						<effect>
							<name>Cross Fade (+3dB)</name>
							<effectid>KGAudioTransCrossFade3dB</effectid>
							<effecttype>transition</effecttype>
							<mediatype>audio</mediatype>
							<wipecode>0</wipecode>
							<wipeaccuracy>100</wipeaccuracy>
							<startratio>0</startratio>
							<endratio>1</endratio>
							<reverse>FALSE</reverse>
						</effect>
					</transitionitem>
					<enabled>TRUE</enabled>
					<locked>FALSE</locked>
					<outputchannelindex>1</outputchannelindex>
				</track>
				<track TL.SQTrackAudioKeyframeStyle="0" TL.SQTrackShy="0" TL.SQTrackExpandedHeight="15" TL.SQTrackExpanded="0" MZ.TrackTargeted="0" PannerCurrentValue="0.5" PannerIsInverted="true" PannerStartKeyframe="-91445760000000000,0.5,0,0,0,0,0,0" PannerName="Balance" currentExplodedTrackIndex="1" totalExplodedTrackCount="2" premiereTrackType="Stereo">
					<clipitem id="clipitem-962" premiereChannelType="stereo">
						<masterclipid>masterclip-429</masterclipid>
						<name>SOUND_2021.mp3</name>
						<enabled>TRUE</enabled>
						<duration>45395</duration>
						<rate>
							<timebase>25</timebase>
							<ntsc>FALSE</ntsc>
						</rate>
						<start>262</start>
						<end>-1</end>
						<in>24483</in>
						<out>25623</out>
						<pproTicksIn>248762949120000</pproTicksIn>
						<pproTicksOut>260346078720000</pproTicksOut>
						<file id="file-369"/>
						<sourcetrack>
							<mediatype>audio</mediatype>
							<trackindex>2</trackindex>
						</sourcetrack>
						<filter>
							<effect>
								<name>Audio Levels</name>
								<effectid>audiolevels</effectid>
								<effectcategory>audiolevels</effectcategory>
								<effecttype>audiolevels</effecttype>
								<mediatype>audio</mediatype>
								<pproBypass>false</pproBypass>
								<parameter authoringApp="PremierePro">
									<parameterid>level</parameterid>
									<name>Level</name>
									<valuemin>0</valuemin>
									<valuemax>3.98109</valuemax>
									<value>0.177828</value>
								</parameter>
							</effect>
						</filter>
							<marker>
								<comment></comment>
								<name></name>
								<in>0</in>
								<out>-1</out>
							</marker>
							<marker>
								<comment></comment>
								<name></name>
								<in>35404</in>
								<out>-1</out>
							</marker>
							<marker>
								<comment></comment>
								<name></name>
								<in>22388</in>
								<out>-1</out>
							</marker>
							<marker>
								<comment></comment>
								<name></name>
								<in>16790</in>
								<out>-1</out>
							</marker>
							<marker>
								<comment></comment>
								<name></name>
								<in>11832</in>
								<out>-1</out>
							</marker>
							<marker>
								<comment></comment>
								<name></name>
								<in>43475</in>
								<out>-1</out>
							</marker>
							<marker>
								<comment></comment>
								<name></name>
								<in>19163</in>
								<out>-1</out>
							</marker>
							<marker>
								<comment></comment>
								<name></name>
								<in>26248</in>
								<out>-1</out>
							</marker>
							<marker>
								<comment></comment>
								<name></name>
								<in>9861</in>
								<out>-1</out>
							</marker>
							<marker>
								<comment></comment>
								<name></name>
								<in>39699</in>
								<out>-1</out>
							</marker>
							<marker>
								<comment></comment>
								<name></name>
								<in>37815</in>
								<out>-1</out>
							</marker>
							<marker>
								<comment></comment>
								<name></name>
								<in>33007</in>
								<out>-1</out>
							</marker>
							<marker>
								<comment></comment>
								<name></name>
								<in>2059</in>
								<out>-1</out>
							</marker>
							<marker>
								<comment></comment>
								<name></name>
								<in>2</in>
								<out>-1</out>
							</marker>
							<marker>
								<comment></comment>
								<name></name>
								<in>29059</in>
								<out>-1</out>
							</marker>
							<marker>
								<comment></comment>
								<name></name>
								<in>20862</in>
								<out>-1</out>
							</marker>
							<marker>
								<comment></comment>
								<name></name>
								<in>31139</in>
								<out>-1</out>
							</marker>
							<marker>
								<comment></comment>
								<name></name>
								<in>4214</in>
								<out>-1</out>
							</marker>
							<marker>
								<comment></comment>
								<name></name>
								<in>6200</in>
								<out>-1</out>
							</marker>
							<marker>
								<comment></comment>
								<name></name>
								<in>24484</in>
								<out>-1</out>
							</marker>
							<marker>
								<comment></comment>
								<name></name>
								<in>14293</in>
								<out>-1</out>
							</marker>
						<link>
							<linkclipref>clipitem-951</linkclipref>
							<mediatype>audio</mediatype>
							<trackindex>5</trackindex>
							<clipindex>1</clipindex>
							<groupindex>1</groupindex>
						</link>
						<link>
							<linkclipref>clipitem-962</linkclipref>
							<mediatype>audio</mediatype>
							<trackindex>6</trackindex>
							<clipindex>1</clipindex>
							<groupindex>1</groupindex>
						</link>
						<logginginfo>
							<description></description>
							<scene></scene>
							<shottake></shottake>
							<lognote></lognote>
							<good></good>
							<originalvideofilename></originalvideofilename>
							<originalaudiofilename></originalaudiofilename>
						</logginginfo>
						<colorinfo>
							<lut></lut>
							<lut1></lut1>
							<asc_sop></asc_sop>
							<asc_sat></asc_sat>
							<lut2></lut2>
						</colorinfo>
						<labels>
							<label2>Rose</label2>
						</labels>
					</clipitem>
					<transitionitem>
						<start>1377</start>
						<end>1402</end>
						<pproTicksIn>13991201280000</pproTicksIn>
						<pproTicksOut>14245217280000</pproTicksOut>
						<alignment>end-black</alignment>
						<cutPointTicks>254016000000</cutPointTicks>
						<rate>
							<timebase>25</timebase>
							<ntsc>FALSE</ntsc>
						</rate>
						<effect>
							<name>Cross Fade (+3dB)</name>
							<effectid>KGAudioTransCrossFade3dB</effectid>
							<effecttype>transition</effecttype>
							<mediatype>audio</mediatype>
							<wipecode>0</wipecode>
							<wipeaccuracy>100</wipeaccuracy>
							<startratio>0</startratio>
							<endratio>1</endratio>
							<reverse>FALSE</reverse>
						</effect>
					</transitionitem>
					<clipitem id="clipitem-963" premiereChannelType="stereo">
						<masterclipid>masterclip-429</masterclipid>
						<name>SOUND_2021.mp3</name>
						<enabled>TRUE</enabled>
						<duration>45395</duration>
						<rate>
							<timebase>25</timebase>
							<ntsc>FALSE</ntsc>
						</rate>
						<start>8413</start>
						<end>-1</end>
						<in>2058</in>
						<out>2892</out>
						<pproTicksIn>20910597120000</pproTicksIn>
						<pproTicksOut>29384570880000</pproTicksOut>
						<file id="file-369"/>
						<sourcetrack>
							<mediatype>audio</mediatype>
							<trackindex>2</trackindex>
						</sourcetrack>
						<filter>
							<effect>
								<name>Audio Levels</name>
								<effectid>audiolevels</effectid>
								<effectcategory>audiolevels</effectcategory>
								<effecttype>audiolevels</effecttype>
								<mediatype>audio</mediatype>
								<pproBypass>false</pproBypass>
								<parameter authoringApp="PremierePro">
									<parameterid>level</parameterid>
									<name>Level</name>
									<valuemin>0</valuemin>
									<valuemax>3.98109</valuemax>
									<value>0.177828</value>
								</parameter>
							</effect>
						</filter>
							<marker>
								<comment></comment>
								<name></name>
								<in>0</in>
								<out>-1</out>
							</marker>
							<marker>
								<comment></comment>
								<name></name>
								<in>35404</in>
								<out>-1</out>
							</marker>
							<marker>
								<comment></comment>
								<name></name>
								<in>22388</in>
								<out>-1</out>
							</marker>
							<marker>
								<comment></comment>
								<name></name>
								<in>16790</in>
								<out>-1</out>
							</marker>
							<marker>
								<comment></comment>
								<name></name>
								<in>11832</in>
								<out>-1</out>
							</marker>
							<marker>
								<comment></comment>
								<name></name>
								<in>43475</in>
								<out>-1</out>
							</marker>
							<marker>
								<comment></comment>
								<name></name>
								<in>19163</in>
								<out>-1</out>
							</marker>
							<marker>
								<comment></comment>
								<name></name>
								<in>26248</in>
								<out>-1</out>
							</marker>
							<marker>
								<comment></comment>
								<name></name>
								<in>9861</in>
								<out>-1</out>
							</marker>
							<marker>
								<comment></comment>
								<name></name>
								<in>39699</in>
								<out>-1</out>
							</marker>
							<marker>
								<comment></comment>
								<name></name>
								<in>37815</in>
								<out>-1</out>
							</marker>
							<marker>
								<comment></comment>
								<name></name>
								<in>33007</in>
								<out>-1</out>
							</marker>
							<marker>
								<comment></comment>
								<name></name>
								<in>2059</in>
								<out>-1</out>
							</marker>
							<marker>
								<comment></comment>
								<name></name>
								<in>2</in>
								<out>-1</out>
							</marker>
							<marker>
								<comment></comment>
								<name></name>
								<in>29059</in>
								<out>-1</out>
							</marker>
							<marker>
								<comment></comment>
								<name></name>
								<in>20862</in>
								<out>-1</out>
							</marker>
							<marker>
								<comment></comment>
								<name></name>
								<in>31139</in>
								<out>-1</out>
							</marker>
							<marker>
								<comment></comment>
								<name></name>
								<in>4214</in>
								<out>-1</out>
							</marker>
							<marker>
								<comment></comment>
								<name></name>
								<in>6200</in>
								<out>-1</out>
							</marker>
							<marker>
								<comment></comment>
								<name></name>
								<in>24484</in>
								<out>-1</out>
							</marker>
							<marker>
								<comment></comment>
								<name></name>
								<in>14293</in>
								<out>-1</out>
							</marker>
						<link>
							<linkclipref>clipitem-952</linkclipref>
							<mediatype>audio</mediatype>
							<trackindex>5</trackindex>
							<clipindex>3</clipindex>
							<groupindex>1</groupindex>
						</link>
						<link>
							<linkclipref>clipitem-963</linkclipref>
							<mediatype>audio</mediatype>
							<trackindex>6</trackindex>
							<clipindex>3</clipindex>
							<groupindex>1</groupindex>
						</link>
						<logginginfo>
							<description></description>
							<scene></scene>
							<shottake></shottake>
							<lognote></lognote>
							<good></good>
							<originalvideofilename></originalvideofilename>
							<originalaudiofilename></originalaudiofilename>
						</logginginfo>
						<colorinfo>
							<lut></lut>
							<lut1></lut1>
							<asc_sop></asc_sop>
							<asc_sat></asc_sat>
							<lut2></lut2>
						</colorinfo>
						<labels>
							<label2>Rose</label2>
						</labels>
					</clipitem>
					<transitionitem>
						<start>9222</start>
						<end>9247</end>
						<pproTicksIn>93701422080000</pproTicksIn>
						<pproTicksOut>93955438080000</pproTicksOut>
						<alignment>end-black</alignment>
						<cutPointTicks>254016000000</cutPointTicks>
						<rate>
							<timebase>25</timebase>
							<ntsc>FALSE</ntsc>
						</rate>
						<effect>
							<name>Cross Fade (+3dB)</name>
							<effectid>KGAudioTransCrossFade3dB</effectid>
							<effecttype>transition</effecttype>
							<mediatype>audio</mediatype>
							<wipecode>0</wipecode>
							<wipeaccuracy>100</wipeaccuracy>
							<startratio>0</startratio>
							<endratio>1</endratio>
							<reverse>FALSE</reverse>
						</effect>
					</transitionitem>
					<clipitem id="clipitem-964" premiereChannelType="stereo">
						<masterclipid>masterclip-429</masterclipid>
						<name>SOUND_2021.mp3</name>
						<enabled>TRUE</enabled>
						<duration>45395</duration>
						<rate>
							<timebase>25</timebase>
							<ntsc>FALSE</ntsc>
						</rate>
						<start>13309</start>
						<end>-1</end>
						<in>4213</in>
						<out>5097</out>
						<pproTicksIn>42806776320000</pproTicksIn>
						<pproTicksOut>51788782080000</pproTicksOut>
						<file id="file-369"/>
						<sourcetrack>
							<mediatype>audio</mediatype>
							<trackindex>2</trackindex>
						</sourcetrack>
						<filter>
							<effect>
								<name>Audio Levels</name>
								<effectid>audiolevels</effectid>
								<effectcategory>audiolevels</effectcategory>
								<effecttype>audiolevels</effecttype>
								<mediatype>audio</mediatype>
								<pproBypass>false</pproBypass>
								<parameter authoringApp="PremierePro">
									<parameterid>level</parameterid>
									<name>Level</name>
									<valuemin>0</valuemin>
									<valuemax>3.98109</valuemax>
									<value>0.177828</value>
								</parameter>
							</effect>
						</filter>
							<marker>
								<comment></comment>
								<name></name>
								<in>0</in>
								<out>-1</out>
							</marker>
							<marker>
								<comment></comment>
								<name></name>
								<in>35404</in>
								<out>-1</out>
							</marker>
							<marker>
								<comment></comment>
								<name></name>
								<in>22388</in>
								<out>-1</out>
							</marker>
							<marker>
								<comment></comment>
								<name></name>
								<in>16790</in>
								<out>-1</out>
							</marker>
							<marker>
								<comment></comment>
								<name></name>
								<in>11832</in>
								<out>-1</out>
							</marker>
							<marker>
								<comment></comment>
								<name></name>
								<in>43475</in>
								<out>-1</out>
							</marker>
							<marker>
								<comment></comment>
								<name></name>
								<in>19163</in>
								<out>-1</out>
							</marker>
							<marker>
								<comment></comment>
								<name></name>
								<in>26248</in>
								<out>-1</out>
							</marker>
							<marker>
								<comment></comment>
								<name></name>
								<in>9861</in>
								<out>-1</out>
							</marker>
							<marker>
								<comment></comment>
								<name></name>
								<in>39699</in>
								<out>-1</out>
							</marker>
							<marker>
								<comment></comment>
								<name></name>
								<in>37815</in>
								<out>-1</out>
							</marker>
							<marker>
								<comment></comment>
								<name></name>
								<in>33007</in>
								<out>-1</out>
							</marker>
							<marker>
								<comment></comment>
								<name></name>
								<in>2059</in>
								<out>-1</out>
							</marker>
							<marker>
								<comment></comment>
								<name></name>
								<in>2</in>
								<out>-1</out>
							</marker>
							<marker>
								<comment></comment>
								<name></name>
								<in>29059</in>
								<out>-1</out>
							</marker>
							<marker>
								<comment></comment>
								<name></name>
								<in>20862</in>
								<out>-1</out>
							</marker>
							<marker>
								<comment></comment>
								<name></name>
								<in>31139</in>
								<out>-1</out>
							</marker>
							<marker>
								<comment></comment>
								<name></name>
								<in>4214</in>
								<out>-1</out>
							</marker>
							<marker>
								<comment></comment>
								<name></name>
								<in>6200</in>
								<out>-1</out>
							</marker>
							<marker>
								<comment></comment>
								<name></name>
								<in>24484</in>
								<out>-1</out>
							</marker>
							<marker>
								<comment></comment>
								<name></name>
								<in>14293</in>
								<out>-1</out>
							</marker>
						<link>
							<linkclipref>clipitem-953</linkclipref>
							<mediatype>audio</mediatype>
							<trackindex>5</trackindex>
							<clipindex>5</clipindex>
							<groupindex>1</groupindex>
						</link>
						<link>
							<linkclipref>clipitem-964</linkclipref>
							<mediatype>audio</mediatype>
							<trackindex>6</trackindex>
							<clipindex>5</clipindex>
							<groupindex>1</groupindex>
						</link>
						<logginginfo>
							<description></description>
							<scene></scene>
							<shottake></shottake>
							<lognote></lognote>
							<good></good>
							<originalvideofilename></originalvideofilename>
							<originalaudiofilename></originalaudiofilename>
						</logginginfo>
						<colorinfo>
							<lut></lut>
							<lut1></lut1>
							<asc_sop></asc_sop>
							<asc_sat></asc_sat>
							<lut2></lut2>
						</colorinfo>
						<labels>
							<label2>Rose</label2>
						</labels>
					</clipitem>
					<transitionitem>
						<start>14168</start>
						<end>14193</end>
						<pproTicksIn>143955947520000</pproTicksIn>
						<pproTicksOut>144209963520000</pproTicksOut>
						<alignment>end-black</alignment>
						<cutPointTicks>254016000000</cutPointTicks>
						<rate>
							<timebase>25</timebase>
							<ntsc>FALSE</ntsc>
						</rate>
						<effect>
							<name>Cross Fade (+3dB)</name>
							<effectid>KGAudioTransCrossFade3dB</effectid>
							<effecttype>transition</effecttype>
							<mediatype>audio</mediatype>
							<wipecode>0</wipecode>
							<wipeaccuracy>100</wipeaccuracy>
							<startratio>0</startratio>
							<endratio>1</endratio>
							<reverse>FALSE</reverse>
						</effect>
					</transitionitem>
					<clipitem id="clipitem-965" premiereChannelType="stereo">
						<masterclipid>masterclip-429</masterclipid>
						<name>SOUND_2021.mp3</name>
						<enabled>TRUE</enabled>
						<duration>45395</duration>
						<rate>
							<timebase>25</timebase>
							<ntsc>FALSE</ntsc>
						</rate>
						<start>17569</start>
						<end>-1</end>
						<in>6199</in>
						<out>7373</out>
						<pproTicksIn>62985807360000</pproTicksIn>
						<pproTicksOut>74914398720000</pproTicksOut>
						<file id="file-369"/>
						<sourcetrack>
							<mediatype>audio</mediatype>
							<trackindex>2</trackindex>
						</sourcetrack>
						<filter>
							<effect>
								<name>Audio Levels</name>
								<effectid>audiolevels</effectid>
								<effectcategory>audiolevels</effectcategory>
								<effecttype>audiolevels</effecttype>
								<mediatype>audio</mediatype>
								<pproBypass>false</pproBypass>
								<parameter authoringApp="PremierePro">
									<parameterid>level</parameterid>
									<name>Level</name>
									<valuemin>0</valuemin>
									<valuemax>3.98109</valuemax>
									<value>0.177828</value>
								</parameter>
							</effect>
						</filter>
							<marker>
								<comment></comment>
								<name></name>
								<in>0</in>
								<out>-1</out>
							</marker>
							<marker>
								<comment></comment>
								<name></name>
								<in>35404</in>
								<out>-1</out>
							</marker>
							<marker>
								<comment></comment>
								<name></name>
								<in>22388</in>
								<out>-1</out>
							</marker>
							<marker>
								<comment></comment>
								<name></name>
								<in>16790</in>
								<out>-1</out>
							</marker>
							<marker>
								<comment></comment>
								<name></name>
								<in>11832</in>
								<out>-1</out>
							</marker>
							<marker>
								<comment></comment>
								<name></name>
								<in>43475</in>
								<out>-1</out>
							</marker>
							<marker>
								<comment></comment>
								<name></name>
								<in>19163</in>
								<out>-1</out>
							</marker>
							<marker>
								<comment></comment>
								<name></name>
								<in>26248</in>
								<out>-1</out>
							</marker>
							<marker>
								<comment></comment>
								<name></name>
								<in>9861</in>
								<out>-1</out>
							</marker>
							<marker>
								<comment></comment>
								<name></name>
								<in>39699</in>
								<out>-1</out>
							</marker>
							<marker>
								<comment></comment>
								<name></name>
								<in>37815</in>
								<out>-1</out>
							</marker>
							<marker>
								<comment></comment>
								<name></name>
								<in>33007</in>
								<out>-1</out>
							</marker>
							<marker>
								<comment></comment>
								<name></name>
								<in>2059</in>
								<out>-1</out>
							</marker>
							<marker>
								<comment></comment>
								<name></name>
								<in>2</in>
								<out>-1</out>
							</marker>
							<marker>
								<comment></comment>
								<name></name>
								<in>29059</in>
								<out>-1</out>
							</marker>
							<marker>
								<comment></comment>
								<name></name>
								<in>20862</in>
								<out>-1</out>
							</marker>
							<marker>
								<comment></comment>
								<name></name>
								<in>31139</in>
								<out>-1</out>
							</marker>
							<marker>
								<comment></comment>
								<name></name>
								<in>4214</in>
								<out>-1</out>
							</marker>
							<marker>
								<comment></comment>
								<name></name>
								<in>6200</in>
								<out>-1</out>
							</marker>
							<marker>
								<comment></comment>
								<name></name>
								<in>24484</in>
								<out>-1</out>
							</marker>
							<marker>
								<comment></comment>
								<name></name>
								<in>14293</in>
								<out>-1</out>
							</marker>
						<link>
							<linkclipref>clipitem-954</linkclipref>
							<mediatype>audio</mediatype>
							<trackindex>5</trackindex>
							<clipindex>7</clipindex>
							<groupindex>1</groupindex>
						</link>
						<link>
							<linkclipref>clipitem-965</linkclipref>
							<mediatype>audio</mediatype>
							<trackindex>6</trackindex>
							<clipindex>7</clipindex>
							<groupindex>1</groupindex>
						</link>
						<logginginfo>
							<description></description>
							<scene></scene>
							<shottake></shottake>
							<lognote></lognote>
							<good></good>
							<originalvideofilename></originalvideofilename>
							<originalaudiofilename></originalaudiofilename>
						</logginginfo>
						<colorinfo>
							<lut></lut>
							<lut1></lut1>
							<asc_sop></asc_sop>
							<asc_sat></asc_sat>
							<lut2></lut2>
						</colorinfo>
						<labels>
							<label2>Rose</label2>
						</labels>
					</clipitem>
					<transitionitem>
						<start>18718</start>
						<end>18743</end>
						<pproTicksIn>190186859520000</pproTicksIn>
						<pproTicksOut>190440875520000</pproTicksOut>
						<alignment>end-black</alignment>
						<cutPointTicks>254016000000</cutPointTicks>
						<rate>
							<timebase>25</timebase>
							<ntsc>FALSE</ntsc>
						</rate>
						<effect>
							<name>Cross Fade (+3dB)</name>
							<effectid>KGAudioTransCrossFade3dB</effectid>
							<effecttype>transition</effecttype>
							<mediatype>audio</mediatype>
							<wipecode>0</wipecode>
							<wipeaccuracy>100</wipeaccuracy>
							<startratio>0</startratio>
							<endratio>1</endratio>
							<reverse>FALSE</reverse>
						</effect>
					</transitionitem>
					<clipitem id="clipitem-966" premiereChannelType="stereo">
						<masterclipid>masterclip-429</masterclipid>
						<name>SOUND_2021.mp3</name>
						<enabled>TRUE</enabled>
						<duration>45395</duration>
						<rate>
							<timebase>25</timebase>
							<ntsc>FALSE</ntsc>
						</rate>
						<start>26805</start>
						<end>-1</end>
						<in>9860</in>
						<out>10989</out>
						<pproTicksIn>100183910400000</pproTicksIn>
						<pproTicksOut>111655272960000</pproTicksOut>
						<file id="file-369"/>
						<sourcetrack>
							<mediatype>audio</mediatype>
							<trackindex>2</trackindex>
						</sourcetrack>
						<filter>
							<effect>
								<name>Audio Levels</name>
								<effectid>audiolevels</effectid>
								<effectcategory>audiolevels</effectcategory>
								<effecttype>audiolevels</effecttype>
								<mediatype>audio</mediatype>
								<pproBypass>false</pproBypass>
								<parameter authoringApp="PremierePro">
									<parameterid>level</parameterid>
									<name>Level</name>
									<valuemin>0</valuemin>
									<valuemax>3.98109</valuemax>
									<value>0.177828</value>
								</parameter>
							</effect>
						</filter>
							<marker>
								<comment></comment>
								<name></name>
								<in>0</in>
								<out>-1</out>
							</marker>
							<marker>
								<comment></comment>
								<name></name>
								<in>35404</in>
								<out>-1</out>
							</marker>
							<marker>
								<comment></comment>
								<name></name>
								<in>22388</in>
								<out>-1</out>
							</marker>
							<marker>
								<comment></comment>
								<name></name>
								<in>16790</in>
								<out>-1</out>
							</marker>
							<marker>
								<comment></comment>
								<name></name>
								<in>11832</in>
								<out>-1</out>
							</marker>
							<marker>
								<comment></comment>
								<name></name>
								<in>43475</in>
								<out>-1</out>
							</marker>
							<marker>
								<comment></comment>
								<name></name>
								<in>19163</in>
								<out>-1</out>
							</marker>
							<marker>
								<comment></comment>
								<name></name>
								<in>26248</in>
								<out>-1</out>
							</marker>
							<marker>
								<comment></comment>
								<name></name>
								<in>9861</in>
								<out>-1</out>
							</marker>
							<marker>
								<comment></comment>
								<name></name>
								<in>39699</in>
								<out>-1</out>
							</marker>
							<marker>
								<comment></comment>
								<name></name>
								<in>37815</in>
								<out>-1</out>
							</marker>
							<marker>
								<comment></comment>
								<name></name>
								<in>33007</in>
								<out>-1</out>
							</marker>
							<marker>
								<comment></comment>
								<name></name>
								<in>2059</in>
								<out>-1</out>
							</marker>
							<marker>
								<comment></comment>
								<name></name>
								<in>2</in>
								<out>-1</out>
							</marker>
							<marker>
								<comment></comment>
								<name></name>
								<in>29059</in>
								<out>-1</out>
							</marker>
							<marker>
								<comment></comment>
								<name></name>
								<in>20862</in>
								<out>-1</out>
							</marker>
							<marker>
								<comment></comment>
								<name></name>
								<in>31139</in>
								<out>-1</out>
							</marker>
							<marker>
								<comment></comment>
								<name></name>
								<in>4214</in>
								<out>-1</out>
							</marker>
							<marker>
								<comment></comment>
								<name></name>
								<in>6200</in>
								<out>-1</out>
							</marker>
							<marker>
								<comment></comment>
								<name></name>
								<in>24484</in>
								<out>-1</out>
							</marker>
							<marker>
								<comment></comment>
								<name></name>
								<in>14293</in>
								<out>-1</out>
							</marker>
						<link>
							<linkclipref>clipitem-955</linkclipref>
							<mediatype>audio</mediatype>
							<trackindex>5</trackindex>
							<clipindex>9</clipindex>
							<groupindex>1</groupindex>
						</link>
						<link>
							<linkclipref>clipitem-966</linkclipref>
							<mediatype>audio</mediatype>
							<trackindex>6</trackindex>
							<clipindex>9</clipindex>
							<groupindex>1</groupindex>
						</link>
						<logginginfo>
							<description></description>
							<scene></scene>
							<shottake></shottake>
							<lognote></lognote>
							<good></good>
							<originalvideofilename></originalvideofilename>
							<originalaudiofilename></originalaudiofilename>
						</logginginfo>
						<colorinfo>
							<lut></lut>
							<lut1></lut1>
							<asc_sop></asc_sop>
							<asc_sat></asc_sat>
							<lut2></lut2>
						</colorinfo>
						<labels>
							<label2>Rose</label2>
						</labels>
					</clipitem>
					<transitionitem>
						<start>27909</start>
						<end>27934</end>
						<pproTicksIn>283573301760000</pproTicksIn>
						<pproTicksOut>283827317760000</pproTicksOut>
						<alignment>end-black</alignment>
						<cutPointTicks>254016000000</cutPointTicks>
						<rate>
							<timebase>25</timebase>
							<ntsc>FALSE</ntsc>
						</rate>
						<effect>
							<name>Cross Fade (+3dB)</name>
							<effectid>KGAudioTransCrossFade3dB</effectid>
							<effecttype>transition</effecttype>
							<mediatype>audio</mediatype>
							<wipecode>0</wipecode>
							<wipeaccuracy>100</wipeaccuracy>
							<startratio>0</startratio>
							<endratio>1</endratio>
							<reverse>FALSE</reverse>
						</effect>
					</transitionitem>
					<clipitem id="clipitem-967" premiereChannelType="stereo">
						<masterclipid>masterclip-429</masterclipid>
						<name>SOUND_2021.mp3</name>
						<enabled>TRUE</enabled>
						<duration>45395</duration>
						<rate>
							<timebase>25</timebase>
							<ntsc>FALSE</ntsc>
						</rate>
						<start>37282</start>
						<end>-1</end>
						<in>11831</in>
						<out>12696</out>
						<pproTicksIn>120210531840000</pproTicksIn>
						<pproTicksOut>128999485440000</pproTicksOut>
						<file id="file-369"/>
						<sourcetrack>
							<mediatype>audio</mediatype>
							<trackindex>2</trackindex>
						</sourcetrack>
						<filter>
							<effect>
								<name>Audio Levels</name>
								<effectid>audiolevels</effectid>
								<effectcategory>audiolevels</effectcategory>
								<effecttype>audiolevels</effecttype>
								<mediatype>audio</mediatype>
								<pproBypass>false</pproBypass>
								<parameter authoringApp="PremierePro">
									<parameterid>level</parameterid>
									<name>Level</name>
									<valuemin>0</valuemin>
									<valuemax>3.98109</valuemax>
									<value>0.177828</value>
								</parameter>
							</effect>
						</filter>
							<marker>
								<comment></comment>
								<name></name>
								<in>0</in>
								<out>-1</out>
							</marker>
							<marker>
								<comment></comment>
								<name></name>
								<in>35404</in>
								<out>-1</out>
							</marker>
							<marker>
								<comment></comment>
								<name></name>
								<in>22388</in>
								<out>-1</out>
							</marker>
							<marker>
								<comment></comment>
								<name></name>
								<in>16790</in>
								<out>-1</out>
							</marker>
							<marker>
								<comment></comment>
								<name></name>
								<in>11832</in>
								<out>-1</out>
							</marker>
							<marker>
								<comment></comment>
								<name></name>
								<in>43475</in>
								<out>-1</out>
							</marker>
							<marker>
								<comment></comment>
								<name></name>
								<in>19163</in>
								<out>-1</out>
							</marker>
							<marker>
								<comment></comment>
								<name></name>
								<in>26248</in>
								<out>-1</out>
							</marker>
							<marker>
								<comment></comment>
								<name></name>
								<in>9861</in>
								<out>-1</out>
							</marker>
							<marker>
								<comment></comment>
								<name></name>
								<in>39699</in>
								<out>-1</out>
							</marker>
							<marker>
								<comment></comment>
								<name></name>
								<in>37815</in>
								<out>-1</out>
							</marker>
							<marker>
								<comment></comment>
								<name></name>
								<in>33007</in>
								<out>-1</out>
							</marker>
							<marker>
								<comment></comment>
								<name></name>
								<in>2059</in>
								<out>-1</out>
							</marker>
							<marker>
								<comment></comment>
								<name></name>
								<in>2</in>
								<out>-1</out>
							</marker>
							<marker>
								<comment></comment>
								<name></name>
								<in>29059</in>
								<out>-1</out>
							</marker>
							<marker>
								<comment></comment>
								<name></name>
								<in>20862</in>
								<out>-1</out>
							</marker>
							<marker>
								<comment></comment>
								<name></name>
								<in>31139</in>
								<out>-1</out>
							</marker>
							<marker>
								<comment></comment>
								<name></name>
								<in>4214</in>
								<out>-1</out>
							</marker>
							<marker>
								<comment></comment>
								<name></name>
								<in>6200</in>
								<out>-1</out>
							</marker>
							<marker>
								<comment></comment>
								<name></name>
								<in>24484</in>
								<out>-1</out>
							</marker>
							<marker>
								<comment></comment>
								<name></name>
								<in>14293</in>
								<out>-1</out>
							</marker>
						<link>
							<linkclipref>clipitem-956</linkclipref>
							<mediatype>audio</mediatype>
							<trackindex>5</trackindex>
							<clipindex>11</clipindex>
							<groupindex>1</groupindex>
						</link>
						<link>
							<linkclipref>clipitem-967</linkclipref>
							<mediatype>audio</mediatype>
							<trackindex>6</trackindex>
							<clipindex>11</clipindex>
							<groupindex>1</groupindex>
						</link>
						<logginginfo>
							<description></description>
							<scene></scene>
							<shottake></shottake>
							<lognote></lognote>
							<good></good>
							<originalvideofilename></originalvideofilename>
							<originalaudiofilename></originalaudiofilename>
						</logginginfo>
						<colorinfo>
							<lut></lut>
							<lut1></lut1>
							<asc_sop></asc_sop>
							<asc_sat></asc_sat>
							<lut2></lut2>
						</colorinfo>
						<labels>
							<label2>Rose</label2>
						</labels>
					</clipitem>
					<transitionitem>
						<start>38122</start>
						<end>38147</end>
						<pproTicksIn>387343918080000</pproTicksIn>
						<pproTicksOut>387597934080000</pproTicksOut>
						<alignment>end-black</alignment>
						<cutPointTicks>254016000000</cutPointTicks>
						<rate>
							<timebase>25</timebase>
							<ntsc>FALSE</ntsc>
						</rate>
						<effect>
							<name>Cross Fade (+3dB)</name>
							<effectid>KGAudioTransCrossFade3dB</effectid>
							<effecttype>transition</effecttype>
							<mediatype>audio</mediatype>
							<wipecode>0</wipecode>
							<wipeaccuracy>100</wipeaccuracy>
							<startratio>0</startratio>
							<endratio>1</endratio>
							<reverse>FALSE</reverse>
						</effect>
					</transitionitem>
					<clipitem id="clipitem-968" premiereChannelType="stereo">
						<masterclipid>masterclip-429</masterclipid>
						<name>SOUND_2021.mp3</name>
						<enabled>TRUE</enabled>
						<duration>45395</duration>
						<rate>
							<timebase>25</timebase>
							<ntsc>FALSE</ntsc>
						</rate>
						<start>43592</start>
						<end>-1</end>
						<in>14292</in>
						<out>15486</out>
						<pproTicksIn>145215866880000</pproTicksIn>
						<pproTicksOut>157347671040000</pproTicksOut>
						<file id="file-369"/>
						<sourcetrack>
							<mediatype>audio</mediatype>
							<trackindex>2</trackindex>
						</sourcetrack>
						<filter>
							<effect>
								<name>Audio Levels</name>
								<effectid>audiolevels</effectid>
								<effectcategory>audiolevels</effectcategory>
								<effecttype>audiolevels</effecttype>
								<mediatype>audio</mediatype>
								<pproBypass>false</pproBypass>
								<parameter authoringApp="PremierePro">
									<parameterid>level</parameterid>
									<name>Level</name>
									<valuemin>0</valuemin>
									<valuemax>3.98109</valuemax>
									<value>0.177828</value>
								</parameter>
							</effect>
						</filter>
							<marker>
								<comment></comment>
								<name></name>
								<in>0</in>
								<out>-1</out>
							</marker>
							<marker>
								<comment></comment>
								<name></name>
								<in>35404</in>
								<out>-1</out>
							</marker>
							<marker>
								<comment></comment>
								<name></name>
								<in>22388</in>
								<out>-1</out>
							</marker>
							<marker>
								<comment></comment>
								<name></name>
								<in>16790</in>
								<out>-1</out>
							</marker>
							<marker>
								<comment></comment>
								<name></name>
								<in>11832</in>
								<out>-1</out>
							</marker>
							<marker>
								<comment></comment>
								<name></name>
								<in>43475</in>
								<out>-1</out>
							</marker>
							<marker>
								<comment></comment>
								<name></name>
								<in>19163</in>
								<out>-1</out>
							</marker>
							<marker>
								<comment></comment>
								<name></name>
								<in>26248</in>
								<out>-1</out>
							</marker>
							<marker>
								<comment></comment>
								<name></name>
								<in>9861</in>
								<out>-1</out>
							</marker>
							<marker>
								<comment></comment>
								<name></name>
								<in>39699</in>
								<out>-1</out>
							</marker>
							<marker>
								<comment></comment>
								<name></name>
								<in>37815</in>
								<out>-1</out>
							</marker>
							<marker>
								<comment></comment>
								<name></name>
								<in>33007</in>
								<out>-1</out>
							</marker>
							<marker>
								<comment></comment>
								<name></name>
								<in>2059</in>
								<out>-1</out>
							</marker>
							<marker>
								<comment></comment>
								<name></name>
								<in>2</in>
								<out>-1</out>
							</marker>
							<marker>
								<comment></comment>
								<name></name>
								<in>29059</in>
								<out>-1</out>
							</marker>
							<marker>
								<comment></comment>
								<name></name>
								<in>20862</in>
								<out>-1</out>
							</marker>
							<marker>
								<comment></comment>
								<name></name>
								<in>31139</in>
								<out>-1</out>
							</marker>
							<marker>
								<comment></comment>
								<name></name>
								<in>4214</in>
								<out>-1</out>
							</marker>
							<marker>
								<comment></comment>
								<name></name>
								<in>6200</in>
								<out>-1</out>
							</marker>
							<marker>
								<comment></comment>
								<name></name>
								<in>24484</in>
								<out>-1</out>
							</marker>
							<marker>
								<comment></comment>
								<name></name>
								<in>14293</in>
								<out>-1</out>
							</marker>
						<link>
							<linkclipref>clipitem-957</linkclipref>
							<mediatype>audio</mediatype>
							<trackindex>5</trackindex>
							<clipindex>13</clipindex>
							<groupindex>1</groupindex>
						</link>
						<link>
							<linkclipref>clipitem-968</linkclipref>
							<mediatype>audio</mediatype>
							<trackindex>6</trackindex>
							<clipindex>13</clipindex>
							<groupindex>1</groupindex>
						</link>
						<logginginfo>
							<description></description>
							<scene></scene>
							<shottake></shottake>
							<lognote></lognote>
							<good></good>
							<originalvideofilename></originalvideofilename>
							<originalaudiofilename></originalaudiofilename>
						</logginginfo>
						<colorinfo>
							<lut></lut>
							<lut1></lut1>
							<asc_sop></asc_sop>
							<asc_sat></asc_sat>
							<lut2></lut2>
						</colorinfo>
						<labels>
							<label2>Rose</label2>
						</labels>
					</clipitem>
					<transitionitem>
						<start>44761</start>
						<end>44786</end>
						<pproTicksIn>454800407040000</pproTicksIn>
						<pproTicksOut>455054423040000</pproTicksOut>
						<alignment>end-black</alignment>
						<cutPointTicks>254016000000</cutPointTicks>
						<rate>
							<timebase>25</timebase>
							<ntsc>FALSE</ntsc>
						</rate>
						<effect>
							<name>Cross Fade (+3dB)</name>
							<effectid>KGAudioTransCrossFade3dB</effectid>
							<effecttype>transition</effecttype>
							<mediatype>audio</mediatype>
							<wipecode>0</wipecode>
							<wipeaccuracy>100</wipeaccuracy>
							<startratio>0</startratio>
							<endratio>1</endratio>
							<reverse>FALSE</reverse>
						</effect>
					</transitionitem>
					<clipitem id="clipitem-969" premiereChannelType="stereo">
						<masterclipid>masterclip-429</masterclipid>
						<name>SOUND_2021.mp3</name>
						<enabled>TRUE</enabled>
						<duration>45395</duration>
						<rate>
							<timebase>25</timebase>
							<ntsc>FALSE</ntsc>
						</rate>
						<start>49280</start>
						<end>-1</end>
						<in>16789</in>
						<out>17849</out>
						<pproTicksIn>170586984960000</pproTicksIn>
						<pproTicksOut>181357263360000</pproTicksOut>
						<file id="file-369"/>
						<sourcetrack>
							<mediatype>audio</mediatype>
							<trackindex>2</trackindex>
						</sourcetrack>
						<filter>
							<effect>
								<name>Audio Levels</name>
								<effectid>audiolevels</effectid>
								<effectcategory>audiolevels</effectcategory>
								<effecttype>audiolevels</effecttype>
								<mediatype>audio</mediatype>
								<pproBypass>false</pproBypass>
								<parameter authoringApp="PremierePro">
									<parameterid>level</parameterid>
									<name>Level</name>
									<valuemin>0</valuemin>
									<valuemax>3.98109</valuemax>
									<value>0.177828</value>
								</parameter>
							</effect>
						</filter>
							<marker>
								<comment></comment>
								<name></name>
								<in>0</in>
								<out>-1</out>
							</marker>
							<marker>
								<comment></comment>
								<name></name>
								<in>35404</in>
								<out>-1</out>
							</marker>
							<marker>
								<comment></comment>
								<name></name>
								<in>22388</in>
								<out>-1</out>
							</marker>
							<marker>
								<comment></comment>
								<name></name>
								<in>16790</in>
								<out>-1</out>
							</marker>
							<marker>
								<comment></comment>
								<name></name>
								<in>11832</in>
								<out>-1</out>
							</marker>
							<marker>
								<comment></comment>
								<name></name>
								<in>43475</in>
								<out>-1</out>
							</marker>
							<marker>
								<comment></comment>
								<name></name>
								<in>19163</in>
								<out>-1</out>
							</marker>
							<marker>
								<comment></comment>
								<name></name>
								<in>26248</in>
								<out>-1</out>
							</marker>
							<marker>
								<comment></comment>
								<name></name>
								<in>9861</in>
								<out>-1</out>
							</marker>
							<marker>
								<comment></comment>
								<name></name>
								<in>39699</in>
								<out>-1</out>
							</marker>
							<marker>
								<comment></comment>
								<name></name>
								<in>37815</in>
								<out>-1</out>
							</marker>
							<marker>
								<comment></comment>
								<name></name>
								<in>33007</in>
								<out>-1</out>
							</marker>
							<marker>
								<comment></comment>
								<name></name>
								<in>2059</in>
								<out>-1</out>
							</marker>
							<marker>
								<comment></comment>
								<name></name>
								<in>2</in>
								<out>-1</out>
							</marker>
							<marker>
								<comment></comment>
								<name></name>
								<in>29059</in>
								<out>-1</out>
							</marker>
							<marker>
								<comment></comment>
								<name></name>
								<in>20862</in>
								<out>-1</out>
							</marker>
							<marker>
								<comment></comment>
								<name></name>
								<in>31139</in>
								<out>-1</out>
							</marker>
							<marker>
								<comment></comment>
								<name></name>
								<in>4214</in>
								<out>-1</out>
							</marker>
							<marker>
								<comment></comment>
								<name></name>
								<in>6200</in>
								<out>-1</out>
							</marker>
							<marker>
								<comment></comment>
								<name></name>
								<in>24484</in>
								<out>-1</out>
							</marker>
							<marker>
								<comment></comment>
								<name></name>
								<in>14293</in>
								<out>-1</out>
							</marker>
						<link>
							<linkclipref>clipitem-958</linkclipref>
							<mediatype>audio</mediatype>
							<trackindex>5</trackindex>
							<clipindex>15</clipindex>
							<groupindex>1</groupindex>
						</link>
						<link>
							<linkclipref>clipitem-969</linkclipref>
							<mediatype>audio</mediatype>
							<trackindex>6</trackindex>
							<clipindex>15</clipindex>
							<groupindex>1</groupindex>
						</link>
						<logginginfo>
							<description></description>
							<scene></scene>
							<shottake></shottake>
							<lognote></lognote>
							<good></good>
							<originalvideofilename></originalvideofilename>
							<originalaudiofilename></originalaudiofilename>
						</logginginfo>
						<colorinfo>
							<lut></lut>
							<lut1></lut1>
							<asc_sop></asc_sop>
							<asc_sat></asc_sat>
							<lut2></lut2>
						</colorinfo>
						<labels>
							<label2>Rose</label2>
						</labels>
					</clipitem>
					<transitionitem>
						<start>50315</start>
						<end>50340</end>
						<pproTicksIn>511232601600000</pproTicksIn>
						<pproTicksOut>511486617600000</pproTicksOut>
						<alignment>end-black</alignment>
						<cutPointTicks>254016000000</cutPointTicks>
						<rate>
							<timebase>25</timebase>
							<ntsc>FALSE</ntsc>
						</rate>
						<effect>
							<name>Cross Fade (+3dB)</name>
							<effectid>KGAudioTransCrossFade3dB</effectid>
							<effecttype>transition</effecttype>
							<mediatype>audio</mediatype>
							<wipecode>0</wipecode>
							<wipeaccuracy>100</wipeaccuracy>
							<startratio>0</startratio>
							<endratio>1</endratio>
							<reverse>FALSE</reverse>
						</effect>
					</transitionitem>
					<clipitem id="clipitem-970" premiereChannelType="stereo">
						<masterclipid>masterclip-429</masterclipid>
						<name>SOUND_2021.mp3</name>
						<enabled>TRUE</enabled>
						<duration>45395</duration>
						<rate>
							<timebase>25</timebase>
							<ntsc>FALSE</ntsc>
						</rate>
						<start>55981</start>
						<end>-1</end>
						<in>19162</in>
						<out>20166</out>
						<pproTicksIn>194698183680000</pproTicksIn>
						<pproTicksOut>204899466240000</pproTicksOut>
						<file id="file-369"/>
						<sourcetrack>
							<mediatype>audio</mediatype>
							<trackindex>2</trackindex>
						</sourcetrack>
						<filter>
							<effect>
								<name>Audio Levels</name>
								<effectid>audiolevels</effectid>
								<effectcategory>audiolevels</effectcategory>
								<effecttype>audiolevels</effecttype>
								<mediatype>audio</mediatype>
								<pproBypass>false</pproBypass>
								<parameter authoringApp="PremierePro">
									<parameterid>level</parameterid>
									<name>Level</name>
									<valuemin>0</valuemin>
									<valuemax>3.98109</valuemax>
									<value>0.177828</value>
								</parameter>
							</effect>
						</filter>
							<marker>
								<comment></comment>
								<name></name>
								<in>0</in>
								<out>-1</out>
							</marker>
							<marker>
								<comment></comment>
								<name></name>
								<in>35404</in>
								<out>-1</out>
							</marker>
							<marker>
								<comment></comment>
								<name></name>
								<in>22388</in>
								<out>-1</out>
							</marker>
							<marker>
								<comment></comment>
								<name></name>
								<in>16790</in>
								<out>-1</out>
							</marker>
							<marker>
								<comment></comment>
								<name></name>
								<in>11832</in>
								<out>-1</out>
							</marker>
							<marker>
								<comment></comment>
								<name></name>
								<in>43475</in>
								<out>-1</out>
							</marker>
							<marker>
								<comment></comment>
								<name></name>
								<in>19163</in>
								<out>-1</out>
							</marker>
							<marker>
								<comment></comment>
								<name></name>
								<in>26248</in>
								<out>-1</out>
							</marker>
							<marker>
								<comment></comment>
								<name></name>
								<in>9861</in>
								<out>-1</out>
							</marker>
							<marker>
								<comment></comment>
								<name></name>
								<in>39699</in>
								<out>-1</out>
							</marker>
							<marker>
								<comment></comment>
								<name></name>
								<in>37815</in>
								<out>-1</out>
							</marker>
							<marker>
								<comment></comment>
								<name></name>
								<in>33007</in>
								<out>-1</out>
							</marker>
							<marker>
								<comment></comment>
								<name></name>
								<in>2059</in>
								<out>-1</out>
							</marker>
							<marker>
								<comment></comment>
								<name></name>
								<in>2</in>
								<out>-1</out>
							</marker>
							<marker>
								<comment></comment>
								<name></name>
								<in>29059</in>
								<out>-1</out>
							</marker>
							<marker>
								<comment></comment>
								<name></name>
								<in>20862</in>
								<out>-1</out>
							</marker>
							<marker>
								<comment></comment>
								<name></name>
								<in>31139</in>
								<out>-1</out>
							</marker>
							<marker>
								<comment></comment>
								<name></name>
								<in>4214</in>
								<out>-1</out>
							</marker>
							<marker>
								<comment></comment>
								<name></name>
								<in>6200</in>
								<out>-1</out>
							</marker>
							<marker>
								<comment></comment>
								<name></name>
								<in>24484</in>
								<out>-1</out>
							</marker>
							<marker>
								<comment></comment>
								<name></name>
								<in>14293</in>
								<out>-1</out>
							</marker>
						<link>
							<linkclipref>clipitem-959</linkclipref>
							<mediatype>audio</mediatype>
							<trackindex>5</trackindex>
							<clipindex>17</clipindex>
							<groupindex>1</groupindex>
						</link>
						<link>
							<linkclipref>clipitem-970</linkclipref>
							<mediatype>audio</mediatype>
							<trackindex>6</trackindex>
							<clipindex>17</clipindex>
							<groupindex>1</groupindex>
						</link>
						<logginginfo>
							<description></description>
							<scene></scene>
							<shottake></shottake>
							<lognote></lognote>
							<good></good>
							<originalvideofilename></originalvideofilename>
							<originalaudiofilename></originalaudiofilename>
						</logginginfo>
						<colorinfo>
							<lut></lut>
							<lut1></lut1>
							<asc_sop></asc_sop>
							<asc_sat></asc_sat>
							<lut2></lut2>
						</colorinfo>
						<labels>
							<label2>Rose</label2>
						</labels>
					</clipitem>
					<transitionitem>
						<start>56960</start>
						<end>56985</end>
						<pproTicksIn>578750054400000</pproTicksIn>
						<pproTicksOut>579004070400000</pproTicksOut>
						<alignment>end-black</alignment>
						<cutPointTicks>254016000000</cutPointTicks>
						<rate>
							<timebase>25</timebase>
							<ntsc>FALSE</ntsc>
						</rate>
						<effect>
							<name>Cross Fade (+3dB)</name>
							<effectid>KGAudioTransCrossFade3dB</effectid>
							<effecttype>transition</effecttype>
							<mediatype>audio</mediatype>
							<wipecode>0</wipecode>
							<wipeaccuracy>100</wipeaccuracy>
							<startratio>0</startratio>
							<endratio>1</endratio>
							<reverse>FALSE</reverse>
						</effect>
					</transitionitem>
					<clipitem id="clipitem-971" premiereChannelType="stereo">
						<masterclipid>masterclip-429</masterclipid>
						<name>SOUND_2021.mp3</name>
						<enabled>TRUE</enabled>
						<duration>45395</duration>
						<rate>
							<timebase>25</timebase>
							<ntsc>FALSE</ntsc>
						</rate>
						<start>60510</start>
						<end>-1</end>
						<in>20861</in>
						<out>21850</out>
						<pproTicksIn>211961111040000</pproTicksIn>
						<pproTicksOut>222009984000000</pproTicksOut>
						<file id="file-369"/>
						<sourcetrack>
							<mediatype>audio</mediatype>
							<trackindex>2</trackindex>
						</sourcetrack>
						<filter>
							<effect>
								<name>Audio Levels</name>
								<effectid>audiolevels</effectid>
								<effectcategory>audiolevels</effectcategory>
								<effecttype>audiolevels</effecttype>
								<mediatype>audio</mediatype>
								<pproBypass>false</pproBypass>
								<parameter authoringApp="PremierePro">
									<parameterid>level</parameterid>
									<name>Level</name>
									<valuemin>0</valuemin>
									<valuemax>3.98109</valuemax>
									<value>0.177828</value>
								</parameter>
							</effect>
						</filter>
							<marker>
								<comment></comment>
								<name></name>
								<in>0</in>
								<out>-1</out>
							</marker>
							<marker>
								<comment></comment>
								<name></name>
								<in>35404</in>
								<out>-1</out>
							</marker>
							<marker>
								<comment></comment>
								<name></name>
								<in>22388</in>
								<out>-1</out>
							</marker>
							<marker>
								<comment></comment>
								<name></name>
								<in>16790</in>
								<out>-1</out>
							</marker>
							<marker>
								<comment></comment>
								<name></name>
								<in>11832</in>
								<out>-1</out>
							</marker>
							<marker>
								<comment></comment>
								<name></name>
								<in>43475</in>
								<out>-1</out>
							</marker>
							<marker>
								<comment></comment>
								<name></name>
								<in>19163</in>
								<out>-1</out>
							</marker>
							<marker>
								<comment></comment>
								<name></name>
								<in>26248</in>
								<out>-1</out>
							</marker>
							<marker>
								<comment></comment>
								<name></name>
								<in>9861</in>
								<out>-1</out>
							</marker>
							<marker>
								<comment></comment>
								<name></name>
								<in>39699</in>
								<out>-1</out>
							</marker>
							<marker>
								<comment></comment>
								<name></name>
								<in>37815</in>
								<out>-1</out>
							</marker>
							<marker>
								<comment></comment>
								<name></name>
								<in>33007</in>
								<out>-1</out>
							</marker>
							<marker>
								<comment></comment>
								<name></name>
								<in>2059</in>
								<out>-1</out>
							</marker>
							<marker>
								<comment></comment>
								<name></name>
								<in>2</in>
								<out>-1</out>
							</marker>
							<marker>
								<comment></comment>
								<name></name>
								<in>29059</in>
								<out>-1</out>
							</marker>
							<marker>
								<comment></comment>
								<name></name>
								<in>20862</in>
								<out>-1</out>
							</marker>
							<marker>
								<comment></comment>
								<name></name>
								<in>31139</in>
								<out>-1</out>
							</marker>
							<marker>
								<comment></comment>
								<name></name>
								<in>4214</in>
								<out>-1</out>
							</marker>
							<marker>
								<comment></comment>
								<name></name>
								<in>6200</in>
								<out>-1</out>
							</marker>
							<marker>
								<comment></comment>
								<name></name>
								<in>24484</in>
								<out>-1</out>
							</marker>
							<marker>
								<comment></comment>
								<name></name>
								<in>14293</in>
								<out>-1</out>
							</marker>
						<link>
							<linkclipref>clipitem-960</linkclipref>
							<mediatype>audio</mediatype>
							<trackindex>5</trackindex>
							<clipindex>19</clipindex>
							<groupindex>1</groupindex>
						</link>
						<link>
							<linkclipref>clipitem-971</linkclipref>
							<mediatype>audio</mediatype>
							<trackindex>6</trackindex>
							<clipindex>19</clipindex>
							<groupindex>1</groupindex>
						</link>
						<logginginfo>
							<description></description>
							<scene></scene>
							<shottake></shottake>
							<lognote></lognote>
							<good></good>
							<originalvideofilename></originalvideofilename>
							<originalaudiofilename></originalaudiofilename>
						</logginginfo>
						<colorinfo>
							<lut></lut>
							<lut1></lut1>
							<asc_sop></asc_sop>
							<asc_sat></asc_sat>
							<lut2></lut2>
						</colorinfo>
						<labels>
							<label2>Rose</label2>
						</labels>
					</clipitem>
					<transitionitem>
						<start>61474</start>
						<end>61499</end>
						<pproTicksIn>624615183360000</pproTicksIn>
						<pproTicksOut>624869199360000</pproTicksOut>
						<alignment>end-black</alignment>
						<cutPointTicks>254016000000</cutPointTicks>
						<rate>
							<timebase>25</timebase>
							<ntsc>FALSE</ntsc>
						</rate>
						<effect>
							<name>Cross Fade (+3dB)</name>
							<effectid>KGAudioTransCrossFade3dB</effectid>
							<effecttype>transition</effecttype>
							<mediatype>audio</mediatype>
							<wipecode>0</wipecode>
							<wipeaccuracy>100</wipeaccuracy>
							<startratio>0</startratio>
							<endratio>1</endratio>
							<reverse>FALSE</reverse>
						</effect>
					</transitionitem>
					<clipitem id="clipitem-972" premiereChannelType="stereo">
						<masterclipid>masterclip-429</masterclipid>
						<name>SOUND_2021.mp3</name>
						<enabled>TRUE</enabled>
						<duration>45395</duration>
						<rate>
							<timebase>25</timebase>
							<ntsc>FALSE</ntsc>
						</rate>
						<start>65165</start>
						<end>-1</end>
						<in>22387</in>
						<out>22962</out>
						<pproTicksIn>227466247680000</pproTicksIn>
						<pproTicksOut>233308615680000</pproTicksOut>
						<file id="file-369"/>
						<sourcetrack>
							<mediatype>audio</mediatype>
							<trackindex>2</trackindex>
						</sourcetrack>
						<filter>
							<effect>
								<name>Audio Levels</name>
								<effectid>audiolevels</effectid>
								<effectcategory>audiolevels</effectcategory>
								<effecttype>audiolevels</effecttype>
								<mediatype>audio</mediatype>
								<pproBypass>false</pproBypass>
								<parameter authoringApp="PremierePro">
									<parameterid>level</parameterid>
									<name>Level</name>
									<valuemin>0</valuemin>
									<valuemax>3.98109</valuemax>
									<value>0.177828</value>
								</parameter>
							</effect>
						</filter>
							<marker>
								<comment></comment>
								<name></name>
								<in>0</in>
								<out>-1</out>
							</marker>
							<marker>
								<comment></comment>
								<name></name>
								<in>35404</in>
								<out>-1</out>
							</marker>
							<marker>
								<comment></comment>
								<name></name>
								<in>22388</in>
								<out>-1</out>
							</marker>
							<marker>
								<comment></comment>
								<name></name>
								<in>16790</in>
								<out>-1</out>
							</marker>
							<marker>
								<comment></comment>
								<name></name>
								<in>11832</in>
								<out>-1</out>
							</marker>
							<marker>
								<comment></comment>
								<name></name>
								<in>43475</in>
								<out>-1</out>
							</marker>
							<marker>
								<comment></comment>
								<name></name>
								<in>19163</in>
								<out>-1</out>
							</marker>
							<marker>
								<comment></comment>
								<name></name>
								<in>26248</in>
								<out>-1</out>
							</marker>
							<marker>
								<comment></comment>
								<name></name>
								<in>9861</in>
								<out>-1</out>
							</marker>
							<marker>
								<comment></comment>
								<name></name>
								<in>39699</in>
								<out>-1</out>
							</marker>
							<marker>
								<comment></comment>
								<name></name>
								<in>37815</in>
								<out>-1</out>
							</marker>
							<marker>
								<comment></comment>
								<name></name>
								<in>33007</in>
								<out>-1</out>
							</marker>
							<marker>
								<comment></comment>
								<name></name>
								<in>2059</in>
								<out>-1</out>
							</marker>
							<marker>
								<comment></comment>
								<name></name>
								<in>2</in>
								<out>-1</out>
							</marker>
							<marker>
								<comment></comment>
								<name></name>
								<in>29059</in>
								<out>-1</out>
							</marker>
							<marker>
								<comment></comment>
								<name></name>
								<in>20862</in>
								<out>-1</out>
							</marker>
							<marker>
								<comment></comment>
								<name></name>
								<in>31139</in>
								<out>-1</out>
							</marker>
							<marker>
								<comment></comment>
								<name></name>
								<in>4214</in>
								<out>-1</out>
							</marker>
							<marker>
								<comment></comment>
								<name></name>
								<in>6200</in>
								<out>-1</out>
							</marker>
							<marker>
								<comment></comment>
								<name></name>
								<in>24484</in>
								<out>-1</out>
							</marker>
							<marker>
								<comment></comment>
								<name></name>
								<in>14293</in>
								<out>-1</out>
							</marker>
						<link>
							<linkclipref>clipitem-961</linkclipref>
							<mediatype>audio</mediatype>
							<trackindex>5</trackindex>
							<clipindex>21</clipindex>
							<groupindex>1</groupindex>
						</link>
						<link>
							<linkclipref>clipitem-972</linkclipref>
							<mediatype>audio</mediatype>
							<trackindex>6</trackindex>
							<clipindex>21</clipindex>
							<groupindex>1</groupindex>
						</link>
						<logginginfo>
							<description></description>
							<scene></scene>
							<shottake></shottake>
							<lognote></lognote>
							<good></good>
							<originalvideofilename></originalvideofilename>
							<originalaudiofilename></originalaudiofilename>
						</logginginfo>
						<colorinfo>
							<lut></lut>
							<lut1></lut1>
							<asc_sop></asc_sop>
							<asc_sat></asc_sat>
							<lut2></lut2>
						</colorinfo>
						<labels>
							<label2>Rose</label2>
						</labels>
					</clipitem>
					<transitionitem>
						<start>65715</start>
						<end>65740</end>
						<pproTicksIn>667706457600000</pproTicksIn>
						<pproTicksOut>667960473600000</pproTicksOut>
						<alignment>end-black</alignment>
						<cutPointTicks>254016000000</cutPointTicks>
						<rate>
							<timebase>25</timebase>
							<ntsc>FALSE</ntsc>
						</rate>
						<effect>
							<name>Cross Fade (+3dB)</name>
							<effectid>KGAudioTransCrossFade3dB</effectid>
							<effecttype>transition</effecttype>
							<mediatype>audio</mediatype>
							<wipecode>0</wipecode>
							<wipeaccuracy>100</wipeaccuracy>
							<startratio>0</startratio>
							<endratio>1</endratio>
							<reverse>FALSE</reverse>
						</effect>
					</transitionitem>
					<enabled>TRUE</enabled>
					<locked>FALSE</locked>
					<outputchannelindex>2</outputchannelindex>
				</track>
			</audio>
		</media>
		<timecode>
			<rate>
				<timebase>25</timebase>
				<ntsc>FALSE</ntsc>
			</rate>
			<string>00:00:00:00</string>
			<frame>0</frame>
			<displayformat>NDF</displayformat>
		</timecode>
		<labels>
			<label2>Forest</label2>
		</labels>
		<logginginfo>
			<description></description>
			<scene></scene>
			<shottake></shottake>
			<lognote></lognote>
			<good></good>
			<originalvideofilename></originalvideofilename>
			<originalaudiofilename></originalaudiofilename>
		</logginginfo>
	</sequence>
</xmeml>
