<?xml version="1.0" encoding="UTF-8"?>
<!DOCTYPE xmeml>
<xmeml version="4">
	<sequence id="sequence-130" TL.SQAudioVisibleBase="0" TL.SQVideoVisibleBase="0" TL.SQVisibleBaseTime="0" TL.SQAVDividerPosition="0.5" TL.SQHideShyTracks="0" TL.SQHeaderWidth="236" TL.SQDataTrackViewControlState="0" Monitor.ProgramZoomOut="670602240000000" Monitor.ProgramZoomIn="0" TL.SQTimePerPixel="0.34133333333333332" AM.TrackVScrollPosition="0" AM.TrackScrollPosition="0" MZ.EditLine="97450698240000" MZ.Sequence.PreviewFrameSizeHeight="576" MZ.Sequence.PreviewFrameSizeWidth="720" MZ.Sequence.AudioTimeDisplayFormat="200" MZ.Sequence.PreviewRenderingClassID="1061109567" MZ.Sequence.PreviewRenderingPresetCodec="1685480304" MZ.Sequence.PreviewRenderingPresetPath="EncoderPresets/SequencePreview/04be6e19-a018-4e0c-a9d6-0ab44c64752b/QuickTime DV PAL.epr" MZ.Sequence.PreviewUseMaxRenderQuality="false" MZ.Sequence.PreviewUseMaxBitDepth="false" MZ.Sequence.EditingModeGUID="04be6e19-a018-4e0c-a9d6-0ab44c64752b" MZ.Sequence.VideoTimeDisplayFormat="101" MZ.WorkOutPoint="15240960000000" MZ.WorkInPoint="0" explodedTracks="true">
		<uuid>257f4061-090b-4779-bb6b-fe9b55e54c52</uuid>
		<duration>66000</duration>
		<rate>
			<timebase>25</timebase>
			<ntsc>FALSE</ntsc>
		</rate>
		<name>RU-469</name>
		<media>
			<video>
				<format>
					<samplecharacteristics>
						<rate>
							<timebase>25</timebase>
							<ntsc>FALSE</ntsc>
						</rate>
						<codec>
							<name>Apple ProRes 422</name>
							<appspecificdata>
								<appname>Final Cut Pro</appname>
								<appmanufacturer>Apple Inc.</appmanufacturer>
								<appversion>7.0</appversion>
								<data>
									<qtcodec>
										<codecname>Apple ProRes 422</codecname>
										<codectypename>Apple ProRes 422</codectypename>
										<codectypecode>apcn</codectypecode>
										<codecvendorcode>appl</codecvendorcode>
										<spatialquality>1024</spatialquality>
										<temporalquality>0</temporalquality>
										<keyframerate>0</keyframerate>
										<datarate>0</datarate>
									</qtcodec>
								</data>
							</appspecificdata>
						</codec>
						<width>720</width>
						<height>576</height>
						<anamorphic>TRUE</anamorphic>
						<pixelaspectratio>PAL-601</pixelaspectratio>
						<fielddominance>lower</fielddominance>
						<colordepth>24</colordepth>
					</samplecharacteristics>
				</format>
				<track TL.SQTrackShy="0" TL.SQTrackExpandedHeight="25" TL.SQTrackExpanded="0" MZ.TrackTargeted="0">
					<clipitem id="clipitem-1664">
						<masterclipid>masterclip-692</masterclipid>
						<name>MYZ_RusskiyChart_appProRes_v2.mov</name>
						<enabled>TRUE</enabled>
						<duration>299</duration>
						<rate>
							<timebase>25</timebase>
							<ntsc>FALSE</ntsc>
						</rate>
						<start>0</start>
						<end>274</end>
						<in>0</in>
						<out>274</out>
						<pproTicksIn>0</pproTicksIn>
						<pproTicksOut>2784015360000</pproTicksOut>
						<alphatype>none</alphatype>
						<pixelaspectratio>square</pixelaspectratio>
						<anamorphic>FALSE</anamorphic>
						<file id="file-572">
							<name>MYZ_RusskiyChart_appProRes_v2.mov</name>
							<pathurl>file://localhost/Volumes/1Tb/_MUZ_TV/graphika/RU-21/MYZ_RusskiyChart_appProRes_v2.mov</pathurl>
							<rate>
								<timebase>25</timebase>
								<ntsc>FALSE</ntsc>
							</rate>
							<duration>299</duration>
							<timecode>
								<rate>
									<timebase>25</timebase>
									<ntsc>FALSE</ntsc>
								</rate>
								<string>00:00:00:00</string>
								<frame>0</frame>
								<displayformat>NDF</displayformat>
							</timecode>
							<media>
								<video>
									<samplecharacteristics>
										<rate>
											<timebase>25</timebase>
											<ntsc>FALSE</ntsc>
										</rate>
										<width>1920</width>
										<height>1080</height>
										<anamorphic>FALSE</anamorphic>
										<pixelaspectratio>square</pixelaspectratio>
										<fielddominance>none</fielddominance>
									</samplecharacteristics>
								</video>
								<audio>
									<samplecharacteristics>
										<depth>16</depth>
										<samplerate>48000</samplerate>
									</samplecharacteristics>
									<channelcount>2</channelcount>
								</audio>
							</media>
						</file>
						<filter>
							<effect>
								<name>Basic Motion</name>
								<effectid>basic</effectid>
								<effectcategory>motion</effectcategory>
								<effecttype>motion</effecttype>
								<mediatype>video</mediatype>
								<pproBypass>false</pproBypass>
								<parameter authoringApp="PremierePro">
									<parameterid>scale</parameterid>
									<name>Scale</name>
									<valuemin>0</valuemin>
									<valuemax>1000</valuemax>
									<value>55</value>
								</parameter>
								<parameter authoringApp="PremierePro">
									<parameterid>rotation</parameterid>
									<name>Rotation</name>
									<valuemin>-8640</valuemin>
									<valuemax>8640</valuemax>
									<value>0</value>
								</parameter>
								<parameter authoringApp="PremierePro">
									<parameterid>center</parameterid>
									<name>Center</name>
									<value>
										<horiz>0</horiz>
										<vert>0</vert>
									</value>
								</parameter>
								<parameter authoringApp="PremierePro">
									<parameterid>centerOffset</parameterid>
									<name>Anchor Point</name>
									<value>
										<horiz>0</horiz>
										<vert>0</vert>
									</value>
								</parameter>
								<parameter authoringApp="PremierePro">
									<parameterid>antiflicker</parameterid>
									<name>Anti-flicker Filter</name>
									<valuemin>0.0</valuemin>
									<valuemax>1.0</valuemax>
									<value>0</value>
								</parameter>
							</effect>
						</filter>
						<link>
							<linkclipref>clipitem-1664</linkclipref>
							<mediatype>video</mediatype>
							<trackindex>1</trackindex>
							<clipindex>1</clipindex>
						</link>
						<link>
							<linkclipref>clipitem-1921</linkclipref>
							<mediatype>audio</mediatype>
							<trackindex>1</trackindex>
							<clipindex>1</clipindex>
							<groupindex>1</groupindex>
						</link>
						<link>
							<linkclipref>clipitem-1959</linkclipref>
							<mediatype>audio</mediatype>
							<trackindex>2</trackindex>
							<clipindex>1</clipindex>
							<groupindex>1</groupindex>
						</link>
						<logginginfo>
							<description></description>
							<scene></scene>
							<shottake></shottake>
							<lognote></lognote>
							<good></good>
							<originalvideofilename></originalvideofilename>
							<originalaudiofilename></originalaudiofilename>
						</logginginfo>
						<colorinfo>
							<lut></lut>
							<lut1></lut1>
							<asc_sop></asc_sop>
							<asc_sat></asc_sat>
							<lut2></lut2>
						</colorinfo>
						<labels>
							<label2>Iris</label2>
						</labels>
					</clipitem>
					<clipitem id="clipitem-1665">
						<masterclipid>masterclip-693</masterclipid>
						<name>Nested Sequence_468</name>
						<enabled>TRUE</enabled>
						<duration>8812</duration>
						<rate>
							<timebase>25</timebase>
							<ntsc>FALSE</ntsc>
						</rate>
						<start>274</start>
						<end>809</end>
						<in>22</in>
						<out>557</out>
						<pproTicksIn>223534080000</pproTicksIn>
						<pproTicksOut>5659476480000</pproTicksOut>
						<sequence id="sequence-131" TL.SQAudioVisibleBase="0" TL.SQVideoVisibleBase="0" TL.SQVisibleBaseTime="45824486400000" TL.SQAVDividerPosition="0.5" TL.SQHideShyTracks="0" TL.SQHeaderWidth="236" Monitor.ProgramZoomOut="89535559680000" Monitor.ProgramZoomIn="0" TL.SQTimePerPixel="0.024999999999999998" AM.TrackVScrollPosition="0" AM.TrackScrollPosition="0" MZ.EditLine="50691432960000" MZ.Sequence.PreviewFrameSizeHeight="576" MZ.Sequence.PreviewFrameSizeWidth="720" MZ.Sequence.AudioTimeDisplayFormat="200" MZ.Sequence.PreviewRenderingClassID="1061109567" MZ.Sequence.PreviewRenderingPresetCodec="1685480304" MZ.Sequence.PreviewRenderingPresetPath="EncoderPresets/SequencePreview/04be6e19-a018-4e0c-a9d6-0ab44c64752b/QuickTime DV PAL.epr" MZ.Sequence.PreviewUseMaxRenderQuality="false" MZ.Sequence.PreviewUseMaxBitDepth="false" MZ.Sequence.EditingModeGUID="04be6e19-a018-4e0c-a9d6-0ab44c64752b" MZ.Sequence.VideoTimeDisplayFormat="101" MZ.WorkOutPoint="89535559680000" MZ.WorkInPoint="0">
							<duration>8812</duration>
							<rate>
								<timebase>25</timebase>
								<ntsc>FALSE</ntsc>
							</rate>
							<name>Nested Sequence_468</name>
							<media>
								<video>
									<format>
										<samplecharacteristics>
											<rate>
												<timebase>25</timebase>
												<ntsc>FALSE</ntsc>
											</rate>
											<codec>
												<name>Apple ProRes 422</name>
												<appspecificdata>
													<appname>Final Cut Pro</appname>
													<appmanufacturer>Apple Inc.</appmanufacturer>
													<appversion>7.0</appversion>
													<data>
														<qtcodec>
															<codecname>Apple ProRes 422</codecname>
															<codectypename>Apple ProRes 422</codectypename>
															<codectypecode>apcn</codectypecode>
															<codecvendorcode>appl</codecvendorcode>
															<spatialquality>1024</spatialquality>
															<temporalquality>0</temporalquality>
															<keyframerate>0</keyframerate>
															<datarate>0</datarate>
														</qtcodec>
													</data>
												</appspecificdata>
											</codec>
											<width>720</width>
											<height>576</height>
											<anamorphic>TRUE</anamorphic>
											<pixelaspectratio>PAL-601</pixelaspectratio>
											<fielddominance>lower</fielddominance>
											<colordepth>24</colordepth>
										</samplecharacteristics>
									</format>
									<track TL.SQTrackShy="0" TL.SQTrackExpandedHeight="25" TL.SQTrackExpanded="0" MZ.TrackTargeted="1">
										<clipitem id="clipitem-1666">
											<masterclipid>masterclip-694</masterclipid>
											<name>RU-469.mov</name>
											<enabled>TRUE</enabled>
											<duration>8812</duration>
											<rate>
												<timebase>25</timebase>
												<ntsc>FALSE</ntsc>
											</rate>
											<start>0</start>
											<end>8812</end>
											<in>0</in>
											<out>8812</out>
											<pproTicksIn>0</pproTicksIn>
											<pproTicksOut>89535559680000</pproTicksOut>
											<alphatype>none</alphatype>
											<pixelaspectratio>square</pixelaspectratio>
											<anamorphic>FALSE</anamorphic>
											<file id="file-573">
												<name>RU-469.mov</name>
												<pathurl>file://localhost/Volumes/1Tb/_MUZ_TV/_Studia/ProRes/RU-469.mov</pathurl>
												<rate>
													<timebase>25</timebase>
													<ntsc>FALSE</ntsc>
												</rate>
												<duration>8812</duration>
												<timecode>
													<rate>
														<timebase>25</timebase>
														<ntsc>FALSE</ntsc>
													</rate>
													<string>00:00:00:00</string>
													<frame>0</frame>
													<displayformat>NDF</displayformat>
												</timecode>
												<media>
													<video>
														<samplecharacteristics>
															<rate>
																<timebase>25</timebase>
																<ntsc>FALSE</ntsc>
															</rate>
															<width>1920</width>
															<height>1080</height>
															<anamorphic>FALSE</anamorphic>
															<pixelaspectratio>square</pixelaspectratio>
															<fielddominance>upper</fielddominance>
														</samplecharacteristics>
													</video>
													<audio>
														<samplecharacteristics>
															<depth>16</depth>
															<samplerate>48000</samplerate>
														</samplecharacteristics>
														<channelcount>2</channelcount>
													</audio>
												</media>
											</file>
											<filter>
												<effect>
													<name>Basic Motion</name>
													<effectid>basic</effectid>
													<effectcategory>motion</effectcategory>
													<effecttype>motion</effecttype>
													<mediatype>video</mediatype>
													<pproBypass>false</pproBypass>
													<parameter authoringApp="PremierePro">
														<parameterid>scale</parameterid>
														<name>Scale</name>
														<valuemin>0</valuemin>
														<valuemax>1000</valuemax>
														<value>55</value>
													</parameter>
													<parameter authoringApp="PremierePro">
														<parameterid>rotation</parameterid>
														<name>Rotation</name>
														<valuemin>-8640</valuemin>
														<valuemax>8640</valuemax>
														<value>0</value>
													</parameter>
													<parameter authoringApp="PremierePro">
														<parameterid>center</parameterid>
														<name>Center</name>
														<value>
															<horiz>0</horiz>
															<vert>0</vert>
														</value>
													</parameter>
													<parameter authoringApp="PremierePro">
														<parameterid>centerOffset</parameterid>
														<name>Anchor Point</name>
														<value>
															<horiz>0</horiz>
															<vert>0</vert>
														</value>
													</parameter>
													<parameter authoringApp="PremierePro">
														<parameterid>antiflicker</parameterid>
														<name>Anti-flicker Filter</name>
														<valuemin>0.0</valuemin>
														<valuemax>1.0</valuemax>
														<value>0</value>
													</parameter>
												</effect>
											</filter>
											<filter>
												<effect>
													<name>Distort</name>
													<effectid>deformation</effectid>
													<effectcategory>motion</effectcategory>
													<effecttype>motion</effecttype>
													<mediatype>video</mediatype>
													<parameter authoringApp="PremierePro">
														<parameterid>aspect</parameterid>
														<name>Aspect</name>
														<valuemin>-10000</valuemin>
														<valuemax>10000</valuemax>
														<value>-3.125</value>
													</parameter>
												</effect>
											</filter>
											<link>
												<linkclipref>clipitem-1666</linkclipref>
												<mediatype>video</mediatype>
												<trackindex>1</trackindex>
												<clipindex>1</clipindex>
											</link>
											<link>
												<linkclipref>clipitem-1667</linkclipref>
												<mediatype>audio</mediatype>
												<trackindex>1</trackindex>
												<clipindex>1</clipindex>
												<groupindex>1</groupindex>
											</link>
											<link>
												<linkclipref>clipitem-1668</linkclipref>
												<mediatype>audio</mediatype>
												<trackindex>2</trackindex>
												<clipindex>1</clipindex>
												<groupindex>1</groupindex>
											</link>
											<logginginfo>
												<description></description>
												<scene></scene>
												<shottake></shottake>
												<lognote></lognote>
												<good></good>
												<originalvideofilename></originalvideofilename>
												<originalaudiofilename></originalaudiofilename>
											</logginginfo>
											<colorinfo>
												<lut></lut>
												<lut1></lut1>
												<asc_sop></asc_sop>
												<asc_sat></asc_sat>
												<lut2></lut2>
											</colorinfo>
											<labels>
												<label2>Iris</label2>
											</labels>
										</clipitem>
										<enabled>TRUE</enabled>
										<locked>FALSE</locked>
									</track>
								</video>
								<audio>
									<numOutputChannels>2</numOutputChannels>
									<format>
										<samplecharacteristics>
											<depth>16</depth>
											<samplerate>48000</samplerate>
										</samplecharacteristics>
									</format>
									<outputs>
										<group>
											<index>1</index>
											<numchannels>1</numchannels>
											<downmix>0</downmix>
											<channel>
												<index>1</index>
											</channel>
										</group>
										<group>
											<index>2</index>
											<numchannels>1</numchannels>
											<downmix>0</downmix>
											<channel>
												<index>2</index>
											</channel>
										</group>
									</outputs>
									<track TL.SQTrackAudioKeyframeStyle="0" TL.SQTrackShy="0" TL.SQTrackExpandedHeight="25" TL.SQTrackExpanded="0" MZ.TrackTargeted="1" PannerCurrentValue="0.5" PannerIsInverted="true" PannerStartKeyframe="-91445760000000000,0.5,0,0,0,0,0,0" PannerName="Balance" currentExplodedTrackIndex="0" totalExplodedTrackCount="2" premiereTrackType="Stereo">
										<clipitem id="clipitem-1667" premiereChannelType="stereo">
											<masterclipid>masterclip-694</masterclipid>
											<name>RU-469.mov</name>
											<enabled>TRUE</enabled>
											<duration>8812</duration>
											<rate>
												<timebase>25</timebase>
												<ntsc>FALSE</ntsc>
											</rate>
											<start>0</start>
											<end>8812</end>
											<in>0</in>
											<out>8812</out>
											<pproTicksIn>0</pproTicksIn>
											<pproTicksOut>89535559680000</pproTicksOut>
											<file id="file-573"/>
											<sourcetrack>
												<mediatype>audio</mediatype>
												<trackindex>1</trackindex>
											</sourcetrack>
											<link>
												<linkclipref>clipitem-1666</linkclipref>
												<mediatype>video</mediatype>
												<trackindex>1</trackindex>
												<clipindex>1</clipindex>
											</link>
											<link>
												<linkclipref>clipitem-1667</linkclipref>
												<mediatype>audio</mediatype>
												<trackindex>1</trackindex>
												<clipindex>1</clipindex>
												<groupindex>1</groupindex>
											</link>
											<link>
												<linkclipref>clipitem-1668</linkclipref>
												<mediatype>audio</mediatype>
												<trackindex>2</trackindex>
												<clipindex>1</clipindex>
												<groupindex>1</groupindex>
											</link>
											<logginginfo>
												<description></description>
												<scene></scene>
												<shottake></shottake>
												<lognote></lognote>
												<good></good>
												<originalvideofilename></originalvideofilename>
												<originalaudiofilename></originalaudiofilename>
											</logginginfo>
											<colorinfo>
												<lut></lut>
												<lut1></lut1>
												<asc_sop></asc_sop>
												<asc_sat></asc_sat>
												<lut2></lut2>
											</colorinfo>
											<labels>
												<label2>Iris</label2>
											</labels>
										</clipitem>
										<enabled>TRUE</enabled>
										<locked>FALSE</locked>
										<outputchannelindex>1</outputchannelindex>
									</track>
									<track TL.SQTrackAudioKeyframeStyle="0" TL.SQTrackShy="0" TL.SQTrackExpandedHeight="25" TL.SQTrackExpanded="0" MZ.TrackTargeted="1" PannerCurrentValue="0.5" PannerIsInverted="true" PannerStartKeyframe="-91445760000000000,0.5,0,0,0,0,0,0" PannerName="Balance" currentExplodedTrackIndex="1" totalExplodedTrackCount="2" premiereTrackType="Stereo">
										<clipitem id="clipitem-1668" premiereChannelType="stereo">
											<masterclipid>masterclip-694</masterclipid>
											<name>RU-469.mov</name>
											<enabled>TRUE</enabled>
											<duration>8812</duration>
											<rate>
												<timebase>25</timebase>
												<ntsc>FALSE</ntsc>
											</rate>
											<start>0</start>
											<end>8812</end>
											<in>0</in>
											<out>8812</out>
											<pproTicksIn>0</pproTicksIn>
											<pproTicksOut>89535559680000</pproTicksOut>
											<file id="file-573"/>
											<sourcetrack>
												<mediatype>audio</mediatype>
												<trackindex>2</trackindex>
											</sourcetrack>
											<link>
												<linkclipref>clipitem-1666</linkclipref>
												<mediatype>video</mediatype>
												<trackindex>1</trackindex>
												<clipindex>1</clipindex>
											</link>
											<link>
												<linkclipref>clipitem-1667</linkclipref>
												<mediatype>audio</mediatype>
												<trackindex>1</trackindex>
												<clipindex>1</clipindex>
												<groupindex>1</groupindex>
											</link>
											<link>
												<linkclipref>clipitem-1668</linkclipref>
												<mediatype>audio</mediatype>
												<trackindex>2</trackindex>
												<clipindex>1</clipindex>
												<groupindex>1</groupindex>
											</link>
											<logginginfo>
												<description></description>
												<scene></scene>
												<shottake></shottake>
												<lognote></lognote>
												<good></good>
												<originalvideofilename></originalvideofilename>
												<originalaudiofilename></originalaudiofilename>
											</logginginfo>
											<colorinfo>
												<lut></lut>
												<lut1></lut1>
												<asc_sop></asc_sop>
												<asc_sat></asc_sat>
												<lut2></lut2>
											</colorinfo>
											<labels>
												<label2>Iris</label2>
											</labels>
										</clipitem>
										<enabled>TRUE</enabled>
										<locked>FALSE</locked>
										<outputchannelindex>2</outputchannelindex>
									</track>
								</audio>
							</media>
							<timecode>
								<rate>
									<timebase>25</timebase>
									<ntsc>FALSE</ntsc>
								</rate>
								<string>00:00:00:00</string>
								<frame>0</frame>
								<displayformat>NDF</displayformat>
							</timecode>
							<logginginfo>
								<description></description>
								<scene></scene>
								<shottake></shottake>
								<lognote></lognote>
								<good></good>
								<originalvideofilename></originalvideofilename>
								<originalaudiofilename></originalaudiofilename>
							</logginginfo>
						</sequence>
						<link>
							<linkclipref>clipitem-1665</linkclipref>
							<mediatype>video</mediatype>
							<trackindex>1</trackindex>
							<clipindex>2</clipindex>
						</link>
						<link>
							<linkclipref>clipitem-1922</linkclipref>
							<mediatype>audio</mediatype>
							<trackindex>1</trackindex>
							<clipindex>2</clipindex>
							<groupindex>1</groupindex>
						</link>
						<link>
							<linkclipref>clipitem-1960</linkclipref>
							<mediatype>audio</mediatype>
							<trackindex>2</trackindex>
							<clipindex>2</clipindex>
							<groupindex>1</groupindex>
						</link>
						<labels>
							<label2>Forest</label2>
						</labels>
					</clipitem>
					<clipitem id="clipitem-1669">
						<masterclipid>masterclip-695</masterclipid>
						<name>12_OTB</name>
						<enabled>TRUE</enabled>
						<duration>180</duration>
						<rate>
							<timebase>25</timebase>
							<ntsc>FALSE</ntsc>
						</rate>
						<start>809</start>
						<end>884</end>
						<in>0</in>
						<out>180</out>
						<pproTicksIn>0</pproTicksIn>
						<pproTicksOut>1828915200000</pproTicksOut>
						<alphatype>none</alphatype>
						<pixelaspectratio>square</pixelaspectratio>
						<anamorphic>FALSE</anamorphic>
						<file id="file-574">
							<name>NUM_0.mov</name>
							<pathurl>file://localhost/_MUZ_TV/graphika/RU-21/MOD/otb/NUM_0.mov</pathurl>
							<rate>
								<timebase>25</timebase>
								<ntsc>FALSE</ntsc>
							</rate>
							<duration>180</duration>
							<timecode>
								<rate>
									<timebase>25</timebase>
									<ntsc>FALSE</ntsc>
								</rate>
								<string>00:00:00:00</string>
								<frame>0</frame>
								<displayformat>NDF</displayformat>
							</timecode>
							<media>
								<video>
									<samplecharacteristics>
										<rate>
											<timebase>25</timebase>
											<ntsc>FALSE</ntsc>
										</rate>
										<width>1920</width>
										<height>1080</height>
										<anamorphic>FALSE</anamorphic>
										<pixelaspectratio>square</pixelaspectratio>
										<fielddominance>none</fielddominance>
									</samplecharacteristics>
								</video>
							</media>
						</file>
						<filter>
							<effect>
								<name>Basic Motion</name>
								<effectid>basic</effectid>
								<effectcategory>motion</effectcategory>
								<effecttype>motion</effecttype>
								<mediatype>video</mediatype>
								<pproBypass>false</pproBypass>
								<parameter authoringApp="PremierePro">
									<parameterid>scale</parameterid>
									<name>Scale</name>
									<valuemin>0</valuemin>
									<valuemax>1000</valuemax>
									<value>55</value>
								</parameter>
								<parameter authoringApp="PremierePro">
									<parameterid>rotation</parameterid>
									<name>Rotation</name>
									<valuemin>-8640</valuemin>
									<valuemax>8640</valuemax>
									<value>0</value>
								</parameter>
								<parameter authoringApp="PremierePro">
									<parameterid>center</parameterid>
									<name>Center</name>
									<value>
										<horiz>0</horiz>
										<vert>0</vert>
									</value>
								</parameter>
								<parameter authoringApp="PremierePro">
									<parameterid>centerOffset</parameterid>
									<name>Anchor Point</name>
									<value>
										<horiz>0</horiz>
										<vert>0</vert>
									</value>
								</parameter>
								<parameter authoringApp="PremierePro">
									<parameterid>antiflicker</parameterid>
									<name>Anti-flicker Filter</name>
									<valuemin>0.0</valuemin>
									<valuemax>1.0</valuemax>
									<value>0</value>
								</parameter>
							</effect>
						</filter>
						<filter>
							<effect>
								<name>Distort</name>
								<effectid>deformation</effectid>
								<effectcategory>motion</effectcategory>
								<effecttype>motion</effecttype>
								<mediatype>video</mediatype>
								<parameter authoringApp="PremierePro">
									<parameterid>aspect</parameterid>
									<name>Aspect</name>
									<valuemin>-10000</valuemin>
									<valuemax>10000</valuemax>
									<value>-3.12506</value>
								</parameter>
							</effect>
						</filter>
						<logginginfo>
							<description></description>
							<scene></scene>
							<shottake></shottake>
							<lognote></lognote>
							<good></good>
							<originalvideofilename></originalvideofilename>
							<originalaudiofilename></originalaudiofilename>
						</logginginfo>
						<colorinfo>
							<lut></lut>
							<lut1></lut1>
							<asc_sop></asc_sop>
							<asc_sat></asc_sat>
							<lut2></lut2>
						</colorinfo>
						<labels>
							<label2>Violet</label2>
						</labels>
					</clipitem>
					<clipitem id="clipitem-1670">
						<masterclipid>masterclip-696</masterclipid>
						<name>JONY, HAMMALI_НАВЕРНО, ТЫ МЕНЯ НЕ ПОМНИШЬ___MSWCLP004853.mov</name>
						<enabled>TRUE</enabled>
						<duration>9308</duration>
						<rate>
							<timebase>25</timebase>
							<ntsc>FALSE</ntsc>
						</rate>
						<start>884</start>
						<end>5215</end>
						<in>323</in>
						<out>4654</out>
						<pproTicksIn>3281886720000</pproTicksIn>
						<pproTicksOut>47287618560000</pproTicksOut>
						<alphatype>none</alphatype>
						<pixelaspectratio>PAL-601</pixelaspectratio>
						<anamorphic>TRUE</anamorphic>
						<pproOriginalPAR>square</pproOriginalPAR>
						<pproOriginalIsAnamorphic>FALSE</pproOriginalIsAnamorphic>
						<file id="file-575">
							<name>JONY, HAMMALI_НАВЕРНО, ТЫ МЕНЯ НЕ ПОМНИШЬ___MSWCLP004853.mov</name>
							<pathurl>file://localhost/Volumes/1Tb/_MUZ_TV/Clips/JONY,%20HAMMALI_%d0%9d%d0%90%d0%92%d0%95%d0%a0%d0%9d%d0%9e,%20%d0%a2%d0%ab%20%d0%9c%d0%95%d0%9d%d0%af%20%d0%9d%d0%95%20%d0%9f%d0%9e%d0%9c%d0%9d%d0%98%d0%a8%d0%ac___MSWCLP004853.mov</pathurl>
							<rate>
								<timebase>50</timebase>
								<ntsc>FALSE</ntsc>
							</rate>
							<duration>9308</duration>
							<timecode>
								<rate>
									<timebase>50</timebase>
									<ntsc>FALSE</ntsc>
								</rate>
								<string>00:00:00:00</string>
								<frame>0</frame>
								<displayformat>NDF</displayformat>
							</timecode>
							<media>
								<video>
									<samplecharacteristics>
										<rate>
											<timebase>50</timebase>
											<ntsc>FALSE</ntsc>
										</rate>
										<width>720</width>
										<height>576</height>
										<anamorphic>TRUE</anamorphic>
										<pixelaspectratio>PAL-601</pixelaspectratio>
										<pproOriginalIsAnamorphic>FALSE</pproOriginalIsAnamorphic>
										<pproOriginalPAR>square</pproOriginalPAR>
										<fielddominance>none</fielddominance>
									</samplecharacteristics>
								</video>
								<audio>
									<samplecharacteristics>
										<depth>16</depth>
										<samplerate>48000</samplerate>
									</samplecharacteristics>
									<channelcount>2</channelcount>
								</audio>
							</media>
						</file>
						<link>
							<linkclipref>clipitem-1670</linkclipref>
							<mediatype>video</mediatype>
							<trackindex>1</trackindex>
							<clipindex>4</clipindex>
						</link>
						<link>
							<linkclipref>clipitem-1923</linkclipref>
							<mediatype>audio</mediatype>
							<trackindex>1</trackindex>
							<clipindex>3</clipindex>
							<groupindex>1</groupindex>
						</link>
						<link>
							<linkclipref>clipitem-1961</linkclipref>
							<mediatype>audio</mediatype>
							<trackindex>2</trackindex>
							<clipindex>3</clipindex>
							<groupindex>1</groupindex>
						</link>
						<logginginfo>
							<description></description>
							<scene></scene>
							<shottake></shottake>
							<lognote></lognote>
							<good></good>
							<originalvideofilename></originalvideofilename>
							<originalaudiofilename></originalaudiofilename>
						</logginginfo>
						<colorinfo>
							<lut></lut>
							<lut1></lut1>
							<asc_sop></asc_sop>
							<asc_sat></asc_sat>
							<lut2></lut2>
						</colorinfo>
						<labels>
							<label2>Iris</label2>
						</labels>
					</clipitem>
					<clipitem id="clipitem-1671">
						<masterclipid>masterclip-697</masterclipid>
						<name>3sek_master</name>
						<enabled>TRUE</enabled>
						<duration>74</duration>
						<rate>
							<timebase>25</timebase>
							<ntsc>FALSE</ntsc>
						</rate>
						<start>5215</start>
						<end>5275</end>
						<in>0</in>
						<out>60</out>
						<pproTicksIn>0</pproTicksIn>
						<pproTicksOut>609638400000</pproTicksOut>
						<alphatype>none</alphatype>
						<pixelaspectratio>square</pixelaspectratio>
						<anamorphic>FALSE</anamorphic>
						<file id="file-576">
							<name>MYZ_RusskiyChart_OtbivkaMini_h264_v2.mp4</name>
							<pathurl>file://localhost/Volumes/1Tb/_MUZ_TV/graphika/RU-21/Otbivka/MYZ_RusskiyChart_OtbivkaMini_h264_v2.mp4</pathurl>
							<rate>
								<timebase>25</timebase>
								<ntsc>FALSE</ntsc>
							</rate>
							<duration>74</duration>
							<timecode>
								<rate>
									<timebase>25</timebase>
									<ntsc>FALSE</ntsc>
								</rate>
								<string>00:00:09:00</string>
								<frame>225</frame>
								<displayformat>NDF</displayformat>
							</timecode>
							<media>
								<video>
									<samplecharacteristics>
										<rate>
											<timebase>25</timebase>
											<ntsc>FALSE</ntsc>
										</rate>
										<width>1920</width>
										<height>1080</height>
										<anamorphic>FALSE</anamorphic>
										<pixelaspectratio>square</pixelaspectratio>
										<fielddominance>none</fielddominance>
									</samplecharacteristics>
								</video>
								<audio>
									<samplecharacteristics>
										<depth>16</depth>
										<samplerate>48000</samplerate>
									</samplecharacteristics>
									<channelcount>2</channelcount>
								</audio>
							</media>
						</file>
						<filter>
							<effect>
								<name>Basic Motion</name>
								<effectid>basic</effectid>
								<effectcategory>motion</effectcategory>
								<effecttype>motion</effecttype>
								<mediatype>video</mediatype>
								<pproBypass>false</pproBypass>
								<parameter authoringApp="PremierePro">
									<parameterid>scale</parameterid>
									<name>Scale</name>
									<valuemin>0</valuemin>
									<valuemax>1000</valuemax>
									<value>55</value>
								</parameter>
								<parameter authoringApp="PremierePro">
									<parameterid>rotation</parameterid>
									<name>Rotation</name>
									<valuemin>-8640</valuemin>
									<valuemax>8640</valuemax>
									<value>0</value>
								</parameter>
								<parameter authoringApp="PremierePro">
									<parameterid>center</parameterid>
									<name>Center</name>
									<value>
										<horiz>0</horiz>
										<vert>0</vert>
									</value>
								</parameter>
								<parameter authoringApp="PremierePro">
									<parameterid>centerOffset</parameterid>
									<name>Anchor Point</name>
									<value>
										<horiz>0</horiz>
										<vert>0</vert>
									</value>
								</parameter>
								<parameter authoringApp="PremierePro">
									<parameterid>antiflicker</parameterid>
									<name>Anti-flicker Filter</name>
									<valuemin>0.0</valuemin>
									<valuemax>1.0</valuemax>
									<value>0</value>
								</parameter>
							</effect>
						</filter>
						<filter>
							<effect>
								<name>Distort</name>
								<effectid>deformation</effectid>
								<effectcategory>motion</effectcategory>
								<effecttype>motion</effecttype>
								<mediatype>video</mediatype>
								<parameter authoringApp="PremierePro">
									<parameterid>aspect</parameterid>
									<name>Aspect</name>
									<valuemin>-10000</valuemin>
									<valuemax>10000</valuemax>
									<value>-3.125</value>
								</parameter>
							</effect>
						</filter>
						<link>
							<linkclipref>clipitem-1671</linkclipref>
							<mediatype>video</mediatype>
							<trackindex>1</trackindex>
							<clipindex>5</clipindex>
						</link>
						<link>
							<linkclipref>clipitem-1924</linkclipref>
							<mediatype>audio</mediatype>
							<trackindex>1</trackindex>
							<clipindex>4</clipindex>
							<groupindex>1</groupindex>
						</link>
						<link>
							<linkclipref>clipitem-1962</linkclipref>
							<mediatype>audio</mediatype>
							<trackindex>2</trackindex>
							<clipindex>4</clipindex>
							<groupindex>1</groupindex>
						</link>
						<logginginfo>
							<description></description>
							<scene></scene>
							<shottake></shottake>
							<lognote></lognote>
							<good></good>
							<originalvideofilename></originalvideofilename>
							<originalaudiofilename></originalaudiofilename>
						</logginginfo>
						<colorinfo>
							<lut></lut>
							<lut1></lut1>
							<asc_sop></asc_sop>
							<asc_sat></asc_sat>
							<lut2></lut2>
						</colorinfo>
						<labels>
							<label2>Purple</label2>
						</labels>
					</clipitem>
					<clipitem id="clipitem-1672">
						<masterclipid>masterclip-693</masterclipid>
						<name>Nested Sequence_468</name>
						<enabled>TRUE</enabled>
						<duration>8812</duration>
						<rate>
							<timebase>25</timebase>
							<ntsc>FALSE</ntsc>
						</rate>
						<start>5275</start>
						<end>5698</end>
						<in>579</in>
						<out>1002</out>
						<pproTicksIn>5883010560000</pproTicksIn>
						<pproTicksOut>10180961280000</pproTicksOut>
						<sequence id="sequence-131"/>
						<link>
							<linkclipref>clipitem-1672</linkclipref>
							<mediatype>video</mediatype>
							<trackindex>1</trackindex>
							<clipindex>6</clipindex>
						</link>
						<link>
							<linkclipref>clipitem-1925</linkclipref>
							<mediatype>audio</mediatype>
							<trackindex>1</trackindex>
							<clipindex>5</clipindex>
							<groupindex>1</groupindex>
						</link>
						<link>
							<linkclipref>clipitem-1963</linkclipref>
							<mediatype>audio</mediatype>
							<trackindex>2</trackindex>
							<clipindex>5</clipindex>
							<groupindex>1</groupindex>
						</link>
						<labels>
							<label2>Forest</label2>
						</labels>
					</clipitem>
					<clipitem id="clipitem-1673">
						<masterclipid>masterclip-698</masterclipid>
						<name>11_OTB</name>
						<enabled>TRUE</enabled>
						<duration>180</duration>
						<rate>
							<timebase>25</timebase>
							<ntsc>FALSE</ntsc>
						</rate>
						<start>5698</start>
						<end>5773</end>
						<in>0</in>
						<out>180</out>
						<pproTicksIn>0</pproTicksIn>
						<pproTicksOut>1828915200000</pproTicksOut>
						<alphatype>none</alphatype>
						<pixelaspectratio>square</pixelaspectratio>
						<anamorphic>FALSE</anamorphic>
						<file id="file-577">
							<name>NUM_0.mov</name>
							<pathurl>file://localhost/_MUZ_TV/graphika/RU-21/MOD/otb/NUM_0.mov</pathurl>
							<rate>
								<timebase>25</timebase>
								<ntsc>FALSE</ntsc>
							</rate>
							<duration>180</duration>
							<timecode>
								<rate>
									<timebase>25</timebase>
									<ntsc>FALSE</ntsc>
								</rate>
								<string>00:00:00:00</string>
								<frame>0</frame>
								<displayformat>NDF</displayformat>
							</timecode>
							<media>
								<video>
									<samplecharacteristics>
										<rate>
											<timebase>25</timebase>
											<ntsc>FALSE</ntsc>
										</rate>
										<width>1920</width>
										<height>1080</height>
										<anamorphic>FALSE</anamorphic>
										<pixelaspectratio>square</pixelaspectratio>
										<fielddominance>none</fielddominance>
									</samplecharacteristics>
								</video>
							</media>
						</file>
						<filter>
							<effect>
								<name>Basic Motion</name>
								<effectid>basic</effectid>
								<effectcategory>motion</effectcategory>
								<effecttype>motion</effecttype>
								<mediatype>video</mediatype>
								<pproBypass>false</pproBypass>
								<parameter authoringApp="PremierePro">
									<parameterid>scale</parameterid>
									<name>Scale</name>
									<valuemin>0</valuemin>
									<valuemax>1000</valuemax>
									<value>55</value>
								</parameter>
								<parameter authoringApp="PremierePro">
									<parameterid>rotation</parameterid>
									<name>Rotation</name>
									<valuemin>-8640</valuemin>
									<valuemax>8640</valuemax>
									<value>0</value>
								</parameter>
								<parameter authoringApp="PremierePro">
									<parameterid>center</parameterid>
									<name>Center</name>
									<value>
										<horiz>0</horiz>
										<vert>0</vert>
									</value>
								</parameter>
								<parameter authoringApp="PremierePro">
									<parameterid>centerOffset</parameterid>
									<name>Anchor Point</name>
									<value>
										<horiz>0</horiz>
										<vert>0</vert>
									</value>
								</parameter>
								<parameter authoringApp="PremierePro">
									<parameterid>antiflicker</parameterid>
									<name>Anti-flicker Filter</name>
									<valuemin>0.0</valuemin>
									<valuemax>1.0</valuemax>
									<value>0</value>
								</parameter>
							</effect>
						</filter>
						<filter>
							<effect>
								<name>Distort</name>
								<effectid>deformation</effectid>
								<effectcategory>motion</effectcategory>
								<effecttype>motion</effecttype>
								<mediatype>video</mediatype>
								<parameter authoringApp="PremierePro">
									<parameterid>aspect</parameterid>
									<name>Aspect</name>
									<valuemin>-10000</valuemin>
									<valuemax>10000</valuemax>
									<value>-3.12506</value>
								</parameter>
							</effect>
						</filter>
						<logginginfo>
							<description></description>
							<scene></scene>
							<shottake></shottake>
							<lognote></lognote>
							<good></good>
							<originalvideofilename></originalvideofilename>
							<originalaudiofilename></originalaudiofilename>
						</logginginfo>
						<colorinfo>
							<lut></lut>
							<lut1></lut1>
							<asc_sop></asc_sop>
							<asc_sat></asc_sat>
							<lut2></lut2>
						</colorinfo>
						<labels>
							<label2>Violet</label2>
						</labels>
					</clipitem>
					<clipitem id="clipitem-1674">
						<masterclipid>masterclip-699</masterclipid>
						<name>ХАННА, МИША МАРВИН_УБЬЮ ТЕБЯ___MSWCLP004826.mov</name>
						<enabled>TRUE</enabled>
						<duration>10186</duration>
						<rate>
							<timebase>25</timebase>
							<ntsc>FALSE</ntsc>
						</rate>
						<start>5773</start>
						<end>10416</end>
						<in>450</in>
						<out>5093</out>
						<pproTicksIn>4572288000000</pproTicksIn>
						<pproTicksOut>51748139520000</pproTicksOut>
						<alphatype>none</alphatype>
						<pixelaspectratio>PAL-601</pixelaspectratio>
						<anamorphic>TRUE</anamorphic>
						<pproOriginalPAR>square</pproOriginalPAR>
						<pproOriginalIsAnamorphic>FALSE</pproOriginalIsAnamorphic>
						<file id="file-578">
							<name>ХАННА, МИША МАРВИН_УБЬЮ ТЕБЯ___MSWCLP004826.mov</name>
							<pathurl>file://localhost/Volumes/1Tb/_MUZ_TV/Clips/%d0%a5%d0%90%d0%9d%d0%9d%d0%90,%20%d0%9c%d0%98%d0%a8%d0%90%20%d0%9c%d0%90%d0%a0%d0%92%d0%98%d0%9d_%d0%a3%d0%91%d0%ac%d0%ae%20%d0%a2%d0%95%d0%91%d0%af___MSWCLP004826.mov</pathurl>
							<rate>
								<timebase>50</timebase>
								<ntsc>FALSE</ntsc>
							</rate>
							<duration>10186</duration>
							<timecode>
								<rate>
									<timebase>50</timebase>
									<ntsc>FALSE</ntsc>
								</rate>
								<string>00:00:00:00</string>
								<frame>0</frame>
								<displayformat>NDF</displayformat>
							</timecode>
							<media>
								<video>
									<samplecharacteristics>
										<rate>
											<timebase>50</timebase>
											<ntsc>FALSE</ntsc>
										</rate>
										<width>720</width>
										<height>576</height>
										<anamorphic>TRUE</anamorphic>
										<pixelaspectratio>PAL-601</pixelaspectratio>
										<pproOriginalIsAnamorphic>FALSE</pproOriginalIsAnamorphic>
										<pproOriginalPAR>square</pproOriginalPAR>
										<fielddominance>none</fielddominance>
									</samplecharacteristics>
								</video>
								<audio>
									<samplecharacteristics>
										<depth>16</depth>
										<samplerate>48000</samplerate>
									</samplecharacteristics>
									<channelcount>2</channelcount>
								</audio>
							</media>
						</file>
						<link>
							<linkclipref>clipitem-1674</linkclipref>
							<mediatype>video</mediatype>
							<trackindex>1</trackindex>
							<clipindex>8</clipindex>
						</link>
						<link>
							<linkclipref>clipitem-1926</linkclipref>
							<mediatype>audio</mediatype>
							<trackindex>1</trackindex>
							<clipindex>6</clipindex>
							<groupindex>1</groupindex>
						</link>
						<link>
							<linkclipref>clipitem-1964</linkclipref>
							<mediatype>audio</mediatype>
							<trackindex>2</trackindex>
							<clipindex>6</clipindex>
							<groupindex>1</groupindex>
						</link>
						<logginginfo>
							<description></description>
							<scene></scene>
							<shottake></shottake>
							<lognote></lognote>
							<good></good>
							<originalvideofilename></originalvideofilename>
							<originalaudiofilename></originalaudiofilename>
						</logginginfo>
						<colorinfo>
							<lut></lut>
							<lut1></lut1>
							<asc_sop></asc_sop>
							<asc_sat></asc_sat>
							<lut2></lut2>
						</colorinfo>
						<labels>
							<label2>Iris</label2>
						</labels>
					</clipitem>
					<clipitem id="clipitem-1675">
						<masterclipid>masterclip-697</masterclipid>
						<name>3sek_master</name>
						<enabled>TRUE</enabled>
						<duration>74</duration>
						<rate>
							<timebase>25</timebase>
							<ntsc>FALSE</ntsc>
						</rate>
						<start>10416</start>
						<end>10476</end>
						<in>0</in>
						<out>60</out>
						<pproTicksIn>0</pproTicksIn>
						<pproTicksOut>609638400000</pproTicksOut>
						<alphatype>none</alphatype>
						<file id="file-576"/>
						<filter>
							<effect>
								<name>Basic Motion</name>
								<effectid>basic</effectid>
								<effectcategory>motion</effectcategory>
								<effecttype>motion</effecttype>
								<mediatype>video</mediatype>
								<pproBypass>false</pproBypass>
								<parameter authoringApp="PremierePro">
									<parameterid>scale</parameterid>
									<name>Scale</name>
									<valuemin>0</valuemin>
									<valuemax>1000</valuemax>
									<value>55</value>
								</parameter>
								<parameter authoringApp="PremierePro">
									<parameterid>rotation</parameterid>
									<name>Rotation</name>
									<valuemin>-8640</valuemin>
									<valuemax>8640</valuemax>
									<value>0</value>
								</parameter>
								<parameter authoringApp="PremierePro">
									<parameterid>center</parameterid>
									<name>Center</name>
									<value>
										<horiz>0</horiz>
										<vert>0</vert>
									</value>
								</parameter>
								<parameter authoringApp="PremierePro">
									<parameterid>centerOffset</parameterid>
									<name>Anchor Point</name>
									<value>
										<horiz>0</horiz>
										<vert>0</vert>
									</value>
								</parameter>
								<parameter authoringApp="PremierePro">
									<parameterid>antiflicker</parameterid>
									<name>Anti-flicker Filter</name>
									<valuemin>0.0</valuemin>
									<valuemax>1.0</valuemax>
									<value>0</value>
								</parameter>
							</effect>
						</filter>
						<filter>
							<effect>
								<name>Distort</name>
								<effectid>deformation</effectid>
								<effectcategory>motion</effectcategory>
								<effecttype>motion</effecttype>
								<mediatype>video</mediatype>
								<parameter authoringApp="PremierePro">
									<parameterid>aspect</parameterid>
									<name>Aspect</name>
									<valuemin>-10000</valuemin>
									<valuemax>10000</valuemax>
									<value>-3.125</value>
								</parameter>
							</effect>
						</filter>
						<link>
							<linkclipref>clipitem-1675</linkclipref>
							<mediatype>video</mediatype>
							<trackindex>1</trackindex>
							<clipindex>9</clipindex>
						</link>
						<link>
							<linkclipref>clipitem-1927</linkclipref>
							<mediatype>audio</mediatype>
							<trackindex>1</trackindex>
							<clipindex>7</clipindex>
							<groupindex>1</groupindex>
						</link>
						<link>
							<linkclipref>clipitem-1965</linkclipref>
							<mediatype>audio</mediatype>
							<trackindex>2</trackindex>
							<clipindex>7</clipindex>
							<groupindex>1</groupindex>
						</link>
						<logginginfo>
							<description></description>
							<scene></scene>
							<shottake></shottake>
							<lognote></lognote>
							<good></good>
							<originalvideofilename></originalvideofilename>
							<originalaudiofilename></originalaudiofilename>
						</logginginfo>
						<colorinfo>
							<lut></lut>
							<lut1></lut1>
							<asc_sop></asc_sop>
							<asc_sat></asc_sat>
							<lut2></lut2>
						</colorinfo>
						<labels>
							<label2>Purple</label2>
						</labels>
					</clipitem>
					<clipitem id="clipitem-1676">
						<masterclipid>masterclip-693</masterclipid>
						<name>Nested Sequence_468</name>
						<enabled>TRUE</enabled>
						<duration>8812</duration>
						<rate>
							<timebase>25</timebase>
							<ntsc>FALSE</ntsc>
						</rate>
						<start>10476</start>
						<end>10974</end>
						<in>1037</in>
						<out>1535</out>
						<pproTicksIn>10536583680000</pproTicksIn>
						<pproTicksOut>15596582400000</pproTicksOut>
						<sequence id="sequence-131"/>
						<link>
							<linkclipref>clipitem-1676</linkclipref>
							<mediatype>video</mediatype>
							<trackindex>1</trackindex>
							<clipindex>10</clipindex>
						</link>
						<link>
							<linkclipref>clipitem-1928</linkclipref>
							<mediatype>audio</mediatype>
							<trackindex>1</trackindex>
							<clipindex>8</clipindex>
							<groupindex>1</groupindex>
						</link>
						<link>
							<linkclipref>clipitem-1966</linkclipref>
							<mediatype>audio</mediatype>
							<trackindex>2</trackindex>
							<clipindex>8</clipindex>
							<groupindex>1</groupindex>
						</link>
						<labels>
							<label2>Forest</label2>
						</labels>
					</clipitem>
					<clipitem id="clipitem-1677">
						<masterclipid>masterclip-700</masterclipid>
						<name>10_OTB</name>
						<enabled>TRUE</enabled>
						<duration>180</duration>
						<rate>
							<timebase>25</timebase>
							<ntsc>FALSE</ntsc>
						</rate>
						<start>10974</start>
						<end>11049</end>
						<in>0</in>
						<out>180</out>
						<pproTicksIn>0</pproTicksIn>
						<pproTicksOut>1828915200000</pproTicksOut>
						<alphatype>none</alphatype>
						<pixelaspectratio>square</pixelaspectratio>
						<anamorphic>FALSE</anamorphic>
						<file id="file-579">
							<name>NUM_10.mov</name>
							<pathurl>file://localhost/_MUZ_TV/graphika/RU-21/MOD/otb/NUM_10.mov</pathurl>
							<rate>
								<timebase>25</timebase>
								<ntsc>FALSE</ntsc>
							</rate>
							<duration>180</duration>
							<timecode>
								<rate>
									<timebase>25</timebase>
									<ntsc>FALSE</ntsc>
								</rate>
								<string>00:00:00:01</string>
								<frame>1</frame>
								<displayformat>NDF</displayformat>
							</timecode>
							<media>
								<video>
									<samplecharacteristics>
										<rate>
											<timebase>25</timebase>
											<ntsc>FALSE</ntsc>
										</rate>
										<width>1920</width>
										<height>1080</height>
										<anamorphic>FALSE</anamorphic>
										<pixelaspectratio>square</pixelaspectratio>
										<fielddominance>none</fielddominance>
									</samplecharacteristics>
								</video>
							</media>
						</file>
						<filter>
							<effect>
								<name>Basic Motion</name>
								<effectid>basic</effectid>
								<effectcategory>motion</effectcategory>
								<effecttype>motion</effecttype>
								<mediatype>video</mediatype>
								<pproBypass>false</pproBypass>
								<parameter authoringApp="PremierePro">
									<parameterid>scale</parameterid>
									<name>Scale</name>
									<valuemin>0</valuemin>
									<valuemax>1000</valuemax>
									<value>55</value>
								</parameter>
								<parameter authoringApp="PremierePro">
									<parameterid>rotation</parameterid>
									<name>Rotation</name>
									<valuemin>-8640</valuemin>
									<valuemax>8640</valuemax>
									<value>0</value>
								</parameter>
								<parameter authoringApp="PremierePro">
									<parameterid>center</parameterid>
									<name>Center</name>
									<value>
										<horiz>0</horiz>
										<vert>0</vert>
									</value>
								</parameter>
								<parameter authoringApp="PremierePro">
									<parameterid>centerOffset</parameterid>
									<name>Anchor Point</name>
									<value>
										<horiz>0</horiz>
										<vert>0</vert>
									</value>
								</parameter>
								<parameter authoringApp="PremierePro">
									<parameterid>antiflicker</parameterid>
									<name>Anti-flicker Filter</name>
									<valuemin>0.0</valuemin>
									<valuemax>1.0</valuemax>
									<value>0</value>
								</parameter>
							</effect>
						</filter>
						<filter>
							<effect>
								<name>Distort</name>
								<effectid>deformation</effectid>
								<effectcategory>motion</effectcategory>
								<effecttype>motion</effecttype>
								<mediatype>video</mediatype>
								<parameter authoringApp="PremierePro">
									<parameterid>aspect</parameterid>
									<name>Aspect</name>
									<valuemin>-10000</valuemin>
									<valuemax>10000</valuemax>
									<value>-3.12506</value>
								</parameter>
							</effect>
						</filter>
						<logginginfo>
							<description></description>
							<scene></scene>
							<shottake></shottake>
							<lognote></lognote>
							<good></good>
							<originalvideofilename></originalvideofilename>
							<originalaudiofilename></originalaudiofilename>
						</logginginfo>
						<colorinfo>
							<lut></lut>
							<lut1></lut1>
							<asc_sop></asc_sop>
							<asc_sat></asc_sat>
							<lut2></lut2>
						</colorinfo>
						<labels>
							<label2>Violet</label2>
						</labels>
					</clipitem>
					<clipitem id="clipitem-1678">
						<masterclipid>masterclip-701</masterclipid>
						<name>КЛАВА КОКА_ЛА ЛА ЛА___MSWCLP004762.mov</name>
						<enabled>TRUE</enabled>
						<duration>8198</duration>
						<rate>
							<timebase>25</timebase>
							<ntsc>FALSE</ntsc>
						</rate>
						<start>11049</start>
						<end>15046</end>
						<in>102</in>
						<out>4099</out>
						<pproTicksIn>1036385280000</pproTicksIn>
						<pproTicksOut>41648463360000</pproTicksOut>
						<alphatype>none</alphatype>
						<pixelaspectratio>PAL-601</pixelaspectratio>
						<anamorphic>TRUE</anamorphic>
						<pproOriginalPAR>square</pproOriginalPAR>
						<pproOriginalIsAnamorphic>FALSE</pproOriginalIsAnamorphic>
						<file id="file-580">
							<name>КЛАВА КОКА_ЛА ЛА ЛА___MSWCLP004762.mov</name>
							<pathurl>file://localhost/Volumes/1Tb/_MUZ_TV/Clips/%d0%9a%d0%9b%d0%90%d0%92%d0%90%20%d0%9a%d0%9e%d0%9a%d0%90_%d0%9b%d0%90%20%d0%9b%d0%90%20%d0%9b%d0%90___MSWCLP004762.mov</pathurl>
							<rate>
								<timebase>50</timebase>
								<ntsc>FALSE</ntsc>
							</rate>
							<duration>8198</duration>
							<timecode>
								<rate>
									<timebase>50</timebase>
									<ntsc>FALSE</ntsc>
								</rate>
								<string>00:00:00:00</string>
								<frame>0</frame>
								<displayformat>NDF</displayformat>
							</timecode>
							<media>
								<video>
									<samplecharacteristics>
										<rate>
											<timebase>50</timebase>
											<ntsc>FALSE</ntsc>
										</rate>
										<width>720</width>
										<height>576</height>
										<anamorphic>TRUE</anamorphic>
										<pixelaspectratio>PAL-601</pixelaspectratio>
										<pproOriginalIsAnamorphic>FALSE</pproOriginalIsAnamorphic>
										<pproOriginalPAR>square</pproOriginalPAR>
										<fielddominance>none</fielddominance>
									</samplecharacteristics>
								</video>
								<audio>
									<samplecharacteristics>
										<depth>16</depth>
										<samplerate>48000</samplerate>
									</samplecharacteristics>
									<channelcount>2</channelcount>
								</audio>
							</media>
						</file>
						<link>
							<linkclipref>clipitem-1678</linkclipref>
							<mediatype>video</mediatype>
							<trackindex>1</trackindex>
							<clipindex>12</clipindex>
						</link>
						<link>
							<linkclipref>clipitem-1929</linkclipref>
							<mediatype>audio</mediatype>
							<trackindex>1</trackindex>
							<clipindex>9</clipindex>
							<groupindex>1</groupindex>
						</link>
						<link>
							<linkclipref>clipitem-1967</linkclipref>
							<mediatype>audio</mediatype>
							<trackindex>2</trackindex>
							<clipindex>9</clipindex>
							<groupindex>1</groupindex>
						</link>
						<logginginfo>
							<description></description>
							<scene></scene>
							<shottake></shottake>
							<lognote></lognote>
							<good></good>
							<originalvideofilename></originalvideofilename>
							<originalaudiofilename></originalaudiofilename>
						</logginginfo>
						<colorinfo>
							<lut></lut>
							<lut1></lut1>
							<asc_sop></asc_sop>
							<asc_sat></asc_sat>
							<lut2></lut2>
						</colorinfo>
						<labels>
							<label2>Iris</label2>
						</labels>
					</clipitem>
					<clipitem id="clipitem-1679">
						<masterclipid>masterclip-697</masterclipid>
						<name>3sek_master</name>
						<enabled>TRUE</enabled>
						<duration>74</duration>
						<rate>
							<timebase>25</timebase>
							<ntsc>FALSE</ntsc>
						</rate>
						<start>15046</start>
						<end>15106</end>
						<in>0</in>
						<out>60</out>
						<pproTicksIn>0</pproTicksIn>
						<pproTicksOut>609638400000</pproTicksOut>
						<alphatype>none</alphatype>
						<file id="file-576"/>
						<filter>
							<effect>
								<name>Basic Motion</name>
								<effectid>basic</effectid>
								<effectcategory>motion</effectcategory>
								<effecttype>motion</effecttype>
								<mediatype>video</mediatype>
								<pproBypass>false</pproBypass>
								<parameter authoringApp="PremierePro">
									<parameterid>scale</parameterid>
									<name>Scale</name>
									<valuemin>0</valuemin>
									<valuemax>1000</valuemax>
									<value>55</value>
								</parameter>
								<parameter authoringApp="PremierePro">
									<parameterid>rotation</parameterid>
									<name>Rotation</name>
									<valuemin>-8640</valuemin>
									<valuemax>8640</valuemax>
									<value>0</value>
								</parameter>
								<parameter authoringApp="PremierePro">
									<parameterid>center</parameterid>
									<name>Center</name>
									<value>
										<horiz>0</horiz>
										<vert>0</vert>
									</value>
								</parameter>
								<parameter authoringApp="PremierePro">
									<parameterid>centerOffset</parameterid>
									<name>Anchor Point</name>
									<value>
										<horiz>0</horiz>
										<vert>0</vert>
									</value>
								</parameter>
								<parameter authoringApp="PremierePro">
									<parameterid>antiflicker</parameterid>
									<name>Anti-flicker Filter</name>
									<valuemin>0.0</valuemin>
									<valuemax>1.0</valuemax>
									<value>0</value>
								</parameter>
							</effect>
						</filter>
						<filter>
							<effect>
								<name>Distort</name>
								<effectid>deformation</effectid>
								<effectcategory>motion</effectcategory>
								<effecttype>motion</effecttype>
								<mediatype>video</mediatype>
								<parameter authoringApp="PremierePro">
									<parameterid>aspect</parameterid>
									<name>Aspect</name>
									<valuemin>-10000</valuemin>
									<valuemax>10000</valuemax>
									<value>-3.125</value>
								</parameter>
							</effect>
						</filter>
						<link>
							<linkclipref>clipitem-1679</linkclipref>
							<mediatype>video</mediatype>
							<trackindex>1</trackindex>
							<clipindex>13</clipindex>
						</link>
						<link>
							<linkclipref>clipitem-1930</linkclipref>
							<mediatype>audio</mediatype>
							<trackindex>1</trackindex>
							<clipindex>10</clipindex>
							<groupindex>1</groupindex>
						</link>
						<link>
							<linkclipref>clipitem-1968</linkclipref>
							<mediatype>audio</mediatype>
							<trackindex>2</trackindex>
							<clipindex>10</clipindex>
							<groupindex>1</groupindex>
						</link>
						<logginginfo>
							<description></description>
							<scene></scene>
							<shottake></shottake>
							<lognote></lognote>
							<good></good>
							<originalvideofilename></originalvideofilename>
							<originalaudiofilename></originalaudiofilename>
						</logginginfo>
						<colorinfo>
							<lut></lut>
							<lut1></lut1>
							<asc_sop></asc_sop>
							<asc_sat></asc_sat>
							<lut2></lut2>
						</colorinfo>
						<labels>
							<label2>Purple</label2>
						</labels>
					</clipitem>
					<clipitem id="clipitem-1680">
						<masterclipid>masterclip-693</masterclipid>
						<name>Nested Sequence_468</name>
						<enabled>TRUE</enabled>
						<duration>8812</duration>
						<rate>
							<timebase>25</timebase>
							<ntsc>FALSE</ntsc>
						</rate>
						<start>15106</start>
						<end>15652</end>
						<in>1584</in>
						<out>2130</out>
						<pproTicksIn>16094453760000</pproTicksIn>
						<pproTicksOut>21642163200000</pproTicksOut>
						<sequence id="sequence-131"/>
						<link>
							<linkclipref>clipitem-1680</linkclipref>
							<mediatype>video</mediatype>
							<trackindex>1</trackindex>
							<clipindex>14</clipindex>
						</link>
						<link>
							<linkclipref>clipitem-1931</linkclipref>
							<mediatype>audio</mediatype>
							<trackindex>1</trackindex>
							<clipindex>11</clipindex>
							<groupindex>1</groupindex>
						</link>
						<link>
							<linkclipref>clipitem-1969</linkclipref>
							<mediatype>audio</mediatype>
							<trackindex>2</trackindex>
							<clipindex>11</clipindex>
							<groupindex>1</groupindex>
						</link>
						<labels>
							<label2>Forest</label2>
						</labels>
					</clipitem>
					<clipitem id="clipitem-1681">
						<masterclipid>masterclip-702</masterclipid>
						<name>9_OTB</name>
						<enabled>TRUE</enabled>
						<duration>180</duration>
						<rate>
							<timebase>25</timebase>
							<ntsc>FALSE</ntsc>
						</rate>
						<start>15652</start>
						<end>15727</end>
						<in>0</in>
						<out>180</out>
						<pproTicksIn>0</pproTicksIn>
						<pproTicksOut>1828915200000</pproTicksOut>
						<alphatype>none</alphatype>
						<pixelaspectratio>square</pixelaspectratio>
						<anamorphic>FALSE</anamorphic>
						<file id="file-581">
							<name>NUM_9.mov</name>
							<pathurl>file://localhost/_MUZ_TV/graphika/RU-21/MOD/otb/NUM_9.mov</pathurl>
							<rate>
								<timebase>25</timebase>
								<ntsc>FALSE</ntsc>
							</rate>
							<duration>180</duration>
							<timecode>
								<rate>
									<timebase>25</timebase>
									<ntsc>FALSE</ntsc>
								</rate>
								<string>00:00:00:01</string>
								<frame>1</frame>
								<displayformat>NDF</displayformat>
							</timecode>
							<media>
								<video>
									<samplecharacteristics>
										<rate>
											<timebase>25</timebase>
											<ntsc>FALSE</ntsc>
										</rate>
										<width>1920</width>
										<height>1080</height>
										<anamorphic>FALSE</anamorphic>
										<pixelaspectratio>square</pixelaspectratio>
										<fielddominance>none</fielddominance>
									</samplecharacteristics>
								</video>
							</media>
						</file>
						<filter>
							<effect>
								<name>Basic Motion</name>
								<effectid>basic</effectid>
								<effectcategory>motion</effectcategory>
								<effecttype>motion</effecttype>
								<mediatype>video</mediatype>
								<pproBypass>false</pproBypass>
								<parameter authoringApp="PremierePro">
									<parameterid>scale</parameterid>
									<name>Scale</name>
									<valuemin>0</valuemin>
									<valuemax>1000</valuemax>
									<value>55</value>
								</parameter>
								<parameter authoringApp="PremierePro">
									<parameterid>rotation</parameterid>
									<name>Rotation</name>
									<valuemin>-8640</valuemin>
									<valuemax>8640</valuemax>
									<value>0</value>
								</parameter>
								<parameter authoringApp="PremierePro">
									<parameterid>center</parameterid>
									<name>Center</name>
									<value>
										<horiz>0</horiz>
										<vert>0</vert>
									</value>
								</parameter>
								<parameter authoringApp="PremierePro">
									<parameterid>centerOffset</parameterid>
									<name>Anchor Point</name>
									<value>
										<horiz>0</horiz>
										<vert>0</vert>
									</value>
								</parameter>
								<parameter authoringApp="PremierePro">
									<parameterid>antiflicker</parameterid>
									<name>Anti-flicker Filter</name>
									<valuemin>0.0</valuemin>
									<valuemax>1.0</valuemax>
									<value>0</value>
								</parameter>
							</effect>
						</filter>
						<filter>
							<effect>
								<name>Distort</name>
								<effectid>deformation</effectid>
								<effectcategory>motion</effectcategory>
								<effecttype>motion</effecttype>
								<mediatype>video</mediatype>
								<parameter authoringApp="PremierePro">
									<parameterid>aspect</parameterid>
									<name>Aspect</name>
									<valuemin>-10000</valuemin>
									<valuemax>10000</valuemax>
									<value>-3.12506</value>
								</parameter>
							</effect>
						</filter>
						<logginginfo>
							<description></description>
							<scene></scene>
							<shottake></shottake>
							<lognote></lognote>
							<good></good>
							<originalvideofilename></originalvideofilename>
							<originalaudiofilename></originalaudiofilename>
						</logginginfo>
						<colorinfo>
							<lut></lut>
							<lut1></lut1>
							<asc_sop></asc_sop>
							<asc_sat></asc_sat>
							<lut2></lut2>
						</colorinfo>
						<labels>
							<label2>Violet</label2>
						</labels>
					</clipitem>
					<clipitem id="clipitem-1682">
						<masterclipid>masterclip-703</masterclipid>
						<name>DABRO_УСЛЫШИТ ВЕСЬ РАЙОН___MSWCLP004759.mov</name>
						<enabled>TRUE</enabled>
						<duration>9620</duration>
						<rate>
							<timebase>25</timebase>
							<ntsc>FALSE</ntsc>
						</rate>
						<start>15727</start>
						<end>20537</end>
						<in>0</in>
						<out>4810</out>
						<pproTicksIn>0</pproTicksIn>
						<pproTicksOut>48872678400000</pproTicksOut>
						<alphatype>none</alphatype>
						<pixelaspectratio>PAL-601</pixelaspectratio>
						<anamorphic>TRUE</anamorphic>
						<pproOriginalPAR>square</pproOriginalPAR>
						<pproOriginalIsAnamorphic>FALSE</pproOriginalIsAnamorphic>
						<file id="file-582">
							<name>DABRO_УСЛЫШИТ ВЕСЬ РАЙОН___MSWCLP004759.mov</name>
							<pathurl>file://localhost/Volumes/1Tb/_MUZ_TV/Clips/DABRO_%d0%a3%d0%a1%d0%9b%d0%ab%d0%a8%d0%98%d0%a2%20%d0%92%d0%95%d0%a1%d0%ac%20%d0%a0%d0%90%d0%98%cc%86%d0%9e%d0%9d___MSWCLP004759.mov</pathurl>
							<rate>
								<timebase>50</timebase>
								<ntsc>FALSE</ntsc>
							</rate>
							<duration>9620</duration>
							<timecode>
								<rate>
									<timebase>50</timebase>
									<ntsc>FALSE</ntsc>
								</rate>
								<string>00:00:00:00</string>
								<frame>0</frame>
								<displayformat>NDF</displayformat>
							</timecode>
							<media>
								<video>
									<samplecharacteristics>
										<rate>
											<timebase>50</timebase>
											<ntsc>FALSE</ntsc>
										</rate>
										<width>720</width>
										<height>576</height>
										<anamorphic>TRUE</anamorphic>
										<pixelaspectratio>PAL-601</pixelaspectratio>
										<pproOriginalIsAnamorphic>FALSE</pproOriginalIsAnamorphic>
										<pproOriginalPAR>square</pproOriginalPAR>
										<fielddominance>none</fielddominance>
									</samplecharacteristics>
								</video>
								<audio>
									<samplecharacteristics>
										<depth>16</depth>
										<samplerate>48000</samplerate>
									</samplecharacteristics>
									<channelcount>2</channelcount>
								</audio>
							</media>
						</file>
						<link>
							<linkclipref>clipitem-1682</linkclipref>
							<mediatype>video</mediatype>
							<trackindex>1</trackindex>
							<clipindex>16</clipindex>
						</link>
						<link>
							<linkclipref>clipitem-1932</linkclipref>
							<mediatype>audio</mediatype>
							<trackindex>1</trackindex>
							<clipindex>12</clipindex>
							<groupindex>1</groupindex>
						</link>
						<link>
							<linkclipref>clipitem-1970</linkclipref>
							<mediatype>audio</mediatype>
							<trackindex>2</trackindex>
							<clipindex>12</clipindex>
							<groupindex>1</groupindex>
						</link>
						<logginginfo>
							<description></description>
							<scene></scene>
							<shottake></shottake>
							<lognote></lognote>
							<good></good>
							<originalvideofilename></originalvideofilename>
							<originalaudiofilename></originalaudiofilename>
						</logginginfo>
						<colorinfo>
							<lut></lut>
							<lut1></lut1>
							<asc_sop></asc_sop>
							<asc_sat></asc_sat>
							<lut2></lut2>
						</colorinfo>
						<labels>
							<label2>Iris</label2>
						</labels>
					</clipitem>
					<clipitem id="clipitem-1683">
						<masterclipid>masterclip-697</masterclipid>
						<name>3sek_master</name>
						<enabled>TRUE</enabled>
						<duration>74</duration>
						<rate>
							<timebase>25</timebase>
							<ntsc>FALSE</ntsc>
						</rate>
						<start>20537</start>
						<end>20597</end>
						<in>0</in>
						<out>60</out>
						<pproTicksIn>0</pproTicksIn>
						<pproTicksOut>609638400000</pproTicksOut>
						<alphatype>none</alphatype>
						<file id="file-576"/>
						<filter>
							<effect>
								<name>Basic Motion</name>
								<effectid>basic</effectid>
								<effectcategory>motion</effectcategory>
								<effecttype>motion</effecttype>
								<mediatype>video</mediatype>
								<pproBypass>false</pproBypass>
								<parameter authoringApp="PremierePro">
									<parameterid>scale</parameterid>
									<name>Scale</name>
									<valuemin>0</valuemin>
									<valuemax>1000</valuemax>
									<value>55</value>
								</parameter>
								<parameter authoringApp="PremierePro">
									<parameterid>rotation</parameterid>
									<name>Rotation</name>
									<valuemin>-8640</valuemin>
									<valuemax>8640</valuemax>
									<value>0</value>
								</parameter>
								<parameter authoringApp="PremierePro">
									<parameterid>center</parameterid>
									<name>Center</name>
									<value>
										<horiz>0</horiz>
										<vert>0</vert>
									</value>
								</parameter>
								<parameter authoringApp="PremierePro">
									<parameterid>centerOffset</parameterid>
									<name>Anchor Point</name>
									<value>
										<horiz>0</horiz>
										<vert>0</vert>
									</value>
								</parameter>
								<parameter authoringApp="PremierePro">
									<parameterid>antiflicker</parameterid>
									<name>Anti-flicker Filter</name>
									<valuemin>0.0</valuemin>
									<valuemax>1.0</valuemax>
									<value>0</value>
								</parameter>
							</effect>
						</filter>
						<filter>
							<effect>
								<name>Distort</name>
								<effectid>deformation</effectid>
								<effectcategory>motion</effectcategory>
								<effecttype>motion</effecttype>
								<mediatype>video</mediatype>
								<parameter authoringApp="PremierePro">
									<parameterid>aspect</parameterid>
									<name>Aspect</name>
									<valuemin>-10000</valuemin>
									<valuemax>10000</valuemax>
									<value>-3.125</value>
								</parameter>
							</effect>
						</filter>
						<link>
							<linkclipref>clipitem-1683</linkclipref>
							<mediatype>video</mediatype>
							<trackindex>1</trackindex>
							<clipindex>17</clipindex>
						</link>
						<link>
							<linkclipref>clipitem-1933</linkclipref>
							<mediatype>audio</mediatype>
							<trackindex>1</trackindex>
							<clipindex>13</clipindex>
							<groupindex>1</groupindex>
						</link>
						<link>
							<linkclipref>clipitem-1971</linkclipref>
							<mediatype>audio</mediatype>
							<trackindex>2</trackindex>
							<clipindex>13</clipindex>
							<groupindex>1</groupindex>
						</link>
						<logginginfo>
							<description></description>
							<scene></scene>
							<shottake></shottake>
							<lognote></lognote>
							<good></good>
							<originalvideofilename></originalvideofilename>
							<originalaudiofilename></originalaudiofilename>
						</logginginfo>
						<colorinfo>
							<lut></lut>
							<lut1></lut1>
							<asc_sop></asc_sop>
							<asc_sat></asc_sat>
							<lut2></lut2>
						</colorinfo>
						<labels>
							<label2>Purple</label2>
						</labels>
					</clipitem>
					<clipitem id="clipitem-1684">
						<masterclipid>masterclip-693</masterclipid>
						<name>Nested Sequence_468</name>
						<enabled>TRUE</enabled>
						<duration>8812</duration>
						<rate>
							<timebase>25</timebase>
							<ntsc>FALSE</ntsc>
						</rate>
						<start>20597</start>
						<end>21263</end>
						<in>2190</in>
						<out>2856</out>
						<pproTicksIn>22251801600000</pproTicksIn>
						<pproTicksOut>29018787840000</pproTicksOut>
						<sequence id="sequence-131"/>
						<link>
							<linkclipref>clipitem-1684</linkclipref>
							<mediatype>video</mediatype>
							<trackindex>1</trackindex>
							<clipindex>18</clipindex>
						</link>
						<link>
							<linkclipref>clipitem-1934</linkclipref>
							<mediatype>audio</mediatype>
							<trackindex>1</trackindex>
							<clipindex>14</clipindex>
							<groupindex>1</groupindex>
						</link>
						<link>
							<linkclipref>clipitem-1972</linkclipref>
							<mediatype>audio</mediatype>
							<trackindex>2</trackindex>
							<clipindex>14</clipindex>
							<groupindex>1</groupindex>
						</link>
						<labels>
							<label2>Forest</label2>
						</labels>
					</clipitem>
					<clipitem id="clipitem-1685">
						<masterclipid>masterclip-704</masterclipid>
						<name>8_OTB</name>
						<enabled>TRUE</enabled>
						<duration>180</duration>
						<rate>
							<timebase>25</timebase>
							<ntsc>FALSE</ntsc>
						</rate>
						<start>21263</start>
						<end>21338</end>
						<in>0</in>
						<out>180</out>
						<pproTicksIn>0</pproTicksIn>
						<pproTicksOut>1828915200000</pproTicksOut>
						<alphatype>none</alphatype>
						<pixelaspectratio>square</pixelaspectratio>
						<anamorphic>FALSE</anamorphic>
						<file id="file-583">
							<name>NUM_8.mov</name>
							<pathurl>file://localhost/_MUZ_TV/graphika/RU-21/MOD/otb/NUM_8.mov</pathurl>
							<rate>
								<timebase>25</timebase>
								<ntsc>FALSE</ntsc>
							</rate>
							<duration>180</duration>
							<timecode>
								<rate>
									<timebase>25</timebase>
									<ntsc>FALSE</ntsc>
								</rate>
								<string>00:00:00:01</string>
								<frame>1</frame>
								<displayformat>NDF</displayformat>
							</timecode>
							<media>
								<video>
									<samplecharacteristics>
										<rate>
											<timebase>25</timebase>
											<ntsc>FALSE</ntsc>
										</rate>
										<width>1920</width>
										<height>1080</height>
										<anamorphic>FALSE</anamorphic>
										<pixelaspectratio>square</pixelaspectratio>
										<fielddominance>none</fielddominance>
									</samplecharacteristics>
								</video>
							</media>
						</file>
						<filter>
							<effect>
								<name>Basic Motion</name>
								<effectid>basic</effectid>
								<effectcategory>motion</effectcategory>
								<effecttype>motion</effecttype>
								<mediatype>video</mediatype>
								<pproBypass>false</pproBypass>
								<parameter authoringApp="PremierePro">
									<parameterid>scale</parameterid>
									<name>Scale</name>
									<valuemin>0</valuemin>
									<valuemax>1000</valuemax>
									<value>55</value>
								</parameter>
								<parameter authoringApp="PremierePro">
									<parameterid>rotation</parameterid>
									<name>Rotation</name>
									<valuemin>-8640</valuemin>
									<valuemax>8640</valuemax>
									<value>0</value>
								</parameter>
								<parameter authoringApp="PremierePro">
									<parameterid>center</parameterid>
									<name>Center</name>
									<value>
										<horiz>0</horiz>
										<vert>0</vert>
									</value>
								</parameter>
								<parameter authoringApp="PremierePro">
									<parameterid>centerOffset</parameterid>
									<name>Anchor Point</name>
									<value>
										<horiz>0</horiz>
										<vert>0</vert>
									</value>
								</parameter>
								<parameter authoringApp="PremierePro">
									<parameterid>antiflicker</parameterid>
									<name>Anti-flicker Filter</name>
									<valuemin>0.0</valuemin>
									<valuemax>1.0</valuemax>
									<value>0</value>
								</parameter>
							</effect>
						</filter>
						<filter>
							<effect>
								<name>Distort</name>
								<effectid>deformation</effectid>
								<effectcategory>motion</effectcategory>
								<effecttype>motion</effecttype>
								<mediatype>video</mediatype>
								<parameter authoringApp="PremierePro">
									<parameterid>aspect</parameterid>
									<name>Aspect</name>
									<valuemin>-10000</valuemin>
									<valuemax>10000</valuemax>
									<value>-3.12506</value>
								</parameter>
							</effect>
						</filter>
						<logginginfo>
							<description></description>
							<scene></scene>
							<shottake></shottake>
							<lognote></lognote>
							<good></good>
							<originalvideofilename></originalvideofilename>
							<originalaudiofilename></originalaudiofilename>
						</logginginfo>
						<colorinfo>
							<lut></lut>
							<lut1></lut1>
							<asc_sop></asc_sop>
							<asc_sat></asc_sat>
							<lut2></lut2>
						</colorinfo>
						<labels>
							<label2>Violet</label2>
						</labels>
					</clipitem>
					<clipitem id="clipitem-1686">
						<masterclipid>masterclip-705</masterclipid>
						<name>LOBODA_AMERICANO___MSWCLP004785.mov</name>
						<enabled>TRUE</enabled>
						<duration>11430</duration>
						<rate>
							<timebase>25</timebase>
							<ntsc>FALSE</ntsc>
						</rate>
						<start>21338</start>
						<end>26578</end>
						<in>475</in>
						<out>5715</out>
						<pproTicksIn>4826304000000</pproTicksIn>
						<pproTicksOut>58068057600000</pproTicksOut>
						<alphatype>none</alphatype>
						<pixelaspectratio>PAL-601</pixelaspectratio>
						<anamorphic>TRUE</anamorphic>
						<pproOriginalPAR>square</pproOriginalPAR>
						<pproOriginalIsAnamorphic>FALSE</pproOriginalIsAnamorphic>
						<file id="file-584">
							<name>LOBODA_AMERICANO___MSWCLP004785.mov</name>
							<pathurl>file://localhost/Volumes/1Tb/_MUZ_TV/Clips/LOBODA_AMERICANO___MSWCLP004785.mov</pathurl>
							<rate>
								<timebase>50</timebase>
								<ntsc>FALSE</ntsc>
							</rate>
							<duration>11430</duration>
							<timecode>
								<rate>
									<timebase>50</timebase>
									<ntsc>FALSE</ntsc>
								</rate>
								<string>00:00:00:00</string>
								<frame>0</frame>
								<displayformat>NDF</displayformat>
							</timecode>
							<media>
								<video>
									<samplecharacteristics>
										<rate>
											<timebase>50</timebase>
											<ntsc>FALSE</ntsc>
										</rate>
										<width>720</width>
										<height>576</height>
										<anamorphic>TRUE</anamorphic>
										<pixelaspectratio>PAL-601</pixelaspectratio>
										<pproOriginalIsAnamorphic>FALSE</pproOriginalIsAnamorphic>
										<pproOriginalPAR>square</pproOriginalPAR>
										<fielddominance>none</fielddominance>
									</samplecharacteristics>
								</video>
								<audio>
									<samplecharacteristics>
										<depth>16</depth>
										<samplerate>48000</samplerate>
									</samplecharacteristics>
									<channelcount>2</channelcount>
								</audio>
							</media>
						</file>
						<link>
							<linkclipref>clipitem-1686</linkclipref>
							<mediatype>video</mediatype>
							<trackindex>1</trackindex>
							<clipindex>20</clipindex>
						</link>
						<link>
							<linkclipref>clipitem-1935</linkclipref>
							<mediatype>audio</mediatype>
							<trackindex>1</trackindex>
							<clipindex>15</clipindex>
							<groupindex>1</groupindex>
						</link>
						<link>
							<linkclipref>clipitem-1973</linkclipref>
							<mediatype>audio</mediatype>
							<trackindex>2</trackindex>
							<clipindex>15</clipindex>
							<groupindex>1</groupindex>
						</link>
						<logginginfo>
							<description></description>
							<scene></scene>
							<shottake></shottake>
							<lognote></lognote>
							<good></good>
							<originalvideofilename></originalvideofilename>
							<originalaudiofilename></originalaudiofilename>
						</logginginfo>
						<colorinfo>
							<lut></lut>
							<lut1></lut1>
							<asc_sop></asc_sop>
							<asc_sat></asc_sat>
							<lut2></lut2>
						</colorinfo>
						<labels>
							<label2>Iris</label2>
						</labels>
					</clipitem>
					<clipitem id="clipitem-1687">
						<masterclipid>masterclip-697</masterclipid>
						<name>3sek_master</name>
						<enabled>TRUE</enabled>
						<duration>74</duration>
						<rate>
							<timebase>25</timebase>
							<ntsc>FALSE</ntsc>
						</rate>
						<start>26578</start>
						<end>26638</end>
						<in>0</in>
						<out>60</out>
						<pproTicksIn>0</pproTicksIn>
						<pproTicksOut>609638400000</pproTicksOut>
						<alphatype>none</alphatype>
						<file id="file-576"/>
						<filter>
							<effect>
								<name>Basic Motion</name>
								<effectid>basic</effectid>
								<effectcategory>motion</effectcategory>
								<effecttype>motion</effecttype>
								<mediatype>video</mediatype>
								<pproBypass>false</pproBypass>
								<parameter authoringApp="PremierePro">
									<parameterid>scale</parameterid>
									<name>Scale</name>
									<valuemin>0</valuemin>
									<valuemax>1000</valuemax>
									<value>55</value>
								</parameter>
								<parameter authoringApp="PremierePro">
									<parameterid>rotation</parameterid>
									<name>Rotation</name>
									<valuemin>-8640</valuemin>
									<valuemax>8640</valuemax>
									<value>0</value>
								</parameter>
								<parameter authoringApp="PremierePro">
									<parameterid>center</parameterid>
									<name>Center</name>
									<value>
										<horiz>0</horiz>
										<vert>0</vert>
									</value>
								</parameter>
								<parameter authoringApp="PremierePro">
									<parameterid>centerOffset</parameterid>
									<name>Anchor Point</name>
									<value>
										<horiz>0</horiz>
										<vert>0</vert>
									</value>
								</parameter>
								<parameter authoringApp="PremierePro">
									<parameterid>antiflicker</parameterid>
									<name>Anti-flicker Filter</name>
									<valuemin>0.0</valuemin>
									<valuemax>1.0</valuemax>
									<value>0</value>
								</parameter>
							</effect>
						</filter>
						<filter>
							<effect>
								<name>Distort</name>
								<effectid>deformation</effectid>
								<effectcategory>motion</effectcategory>
								<effecttype>motion</effecttype>
								<mediatype>video</mediatype>
								<parameter authoringApp="PremierePro">
									<parameterid>aspect</parameterid>
									<name>Aspect</name>
									<valuemin>-10000</valuemin>
									<valuemax>10000</valuemax>
									<value>-3.125</value>
								</parameter>
							</effect>
						</filter>
						<link>
							<linkclipref>clipitem-1687</linkclipref>
							<mediatype>video</mediatype>
							<trackindex>1</trackindex>
							<clipindex>21</clipindex>
						</link>
						<link>
							<linkclipref>clipitem-1936</linkclipref>
							<mediatype>audio</mediatype>
							<trackindex>1</trackindex>
							<clipindex>16</clipindex>
							<groupindex>1</groupindex>
						</link>
						<link>
							<linkclipref>clipitem-1974</linkclipref>
							<mediatype>audio</mediatype>
							<trackindex>2</trackindex>
							<clipindex>16</clipindex>
							<groupindex>1</groupindex>
						</link>
						<logginginfo>
							<description></description>
							<scene></scene>
							<shottake></shottake>
							<lognote></lognote>
							<good></good>
							<originalvideofilename></originalvideofilename>
							<originalaudiofilename></originalaudiofilename>
						</logginginfo>
						<colorinfo>
							<lut></lut>
							<lut1></lut1>
							<asc_sop></asc_sop>
							<asc_sat></asc_sat>
							<lut2></lut2>
						</colorinfo>
						<labels>
							<label2>Purple</label2>
						</labels>
					</clipitem>
					<clipitem id="clipitem-1688">
						<masterclipid>masterclip-693</masterclipid>
						<name>Nested Sequence_468</name>
						<enabled>TRUE</enabled>
						<duration>8812</duration>
						<rate>
							<timebase>25</timebase>
							<ntsc>FALSE</ntsc>
						</rate>
						<start>26638</start>
						<end>27344</end>
						<in>2908</in>
						<out>3614</out>
						<pproTicksIn>29547141120000</pproTicksIn>
						<pproTicksOut>36720552960000</pproTicksOut>
						<sequence id="sequence-131"/>
						<link>
							<linkclipref>clipitem-1688</linkclipref>
							<mediatype>video</mediatype>
							<trackindex>1</trackindex>
							<clipindex>22</clipindex>
						</link>
						<link>
							<linkclipref>clipitem-1937</linkclipref>
							<mediatype>audio</mediatype>
							<trackindex>1</trackindex>
							<clipindex>17</clipindex>
							<groupindex>1</groupindex>
						</link>
						<link>
							<linkclipref>clipitem-1975</linkclipref>
							<mediatype>audio</mediatype>
							<trackindex>2</trackindex>
							<clipindex>17</clipindex>
							<groupindex>1</groupindex>
						</link>
						<labels>
							<label2>Forest</label2>
						</labels>
					</clipitem>
					<clipitem id="clipitem-1689">
						<masterclipid>masterclip-706</masterclipid>
						<name>7_OTB</name>
						<enabled>TRUE</enabled>
						<duration>180</duration>
						<rate>
							<timebase>25</timebase>
							<ntsc>FALSE</ntsc>
						</rate>
						<start>27344</start>
						<end>27419</end>
						<in>0</in>
						<out>180</out>
						<pproTicksIn>0</pproTicksIn>
						<pproTicksOut>1828915200000</pproTicksOut>
						<alphatype>none</alphatype>
						<pixelaspectratio>square</pixelaspectratio>
						<anamorphic>FALSE</anamorphic>
						<file id="file-585">
							<name>NUM_7.mov</name>
							<pathurl>file://localhost/_MUZ_TV/graphika/RU-21/MOD/otb/NUM_7.mov</pathurl>
							<rate>
								<timebase>25</timebase>
								<ntsc>FALSE</ntsc>
							</rate>
							<duration>180</duration>
							<timecode>
								<rate>
									<timebase>25</timebase>
									<ntsc>FALSE</ntsc>
								</rate>
								<string>00:00:00:01</string>
								<frame>1</frame>
								<displayformat>NDF</displayformat>
							</timecode>
							<media>
								<video>
									<samplecharacteristics>
										<rate>
											<timebase>25</timebase>
											<ntsc>FALSE</ntsc>
										</rate>
										<width>1920</width>
										<height>1080</height>
										<anamorphic>FALSE</anamorphic>
										<pixelaspectratio>square</pixelaspectratio>
										<fielddominance>none</fielddominance>
									</samplecharacteristics>
								</video>
							</media>
						</file>
						<filter>
							<effect>
								<name>Basic Motion</name>
								<effectid>basic</effectid>
								<effectcategory>motion</effectcategory>
								<effecttype>motion</effecttype>
								<mediatype>video</mediatype>
								<pproBypass>false</pproBypass>
								<parameter authoringApp="PremierePro">
									<parameterid>scale</parameterid>
									<name>Scale</name>
									<valuemin>0</valuemin>
									<valuemax>1000</valuemax>
									<value>55</value>
								</parameter>
								<parameter authoringApp="PremierePro">
									<parameterid>rotation</parameterid>
									<name>Rotation</name>
									<valuemin>-8640</valuemin>
									<valuemax>8640</valuemax>
									<value>0</value>
								</parameter>
								<parameter authoringApp="PremierePro">
									<parameterid>center</parameterid>
									<name>Center</name>
									<value>
										<horiz>0</horiz>
										<vert>0</vert>
									</value>
								</parameter>
								<parameter authoringApp="PremierePro">
									<parameterid>centerOffset</parameterid>
									<name>Anchor Point</name>
									<value>
										<horiz>0</horiz>
										<vert>0</vert>
									</value>
								</parameter>
								<parameter authoringApp="PremierePro">
									<parameterid>antiflicker</parameterid>
									<name>Anti-flicker Filter</name>
									<valuemin>0.0</valuemin>
									<valuemax>1.0</valuemax>
									<value>0</value>
								</parameter>
							</effect>
						</filter>
						<filter>
							<effect>
								<name>Distort</name>
								<effectid>deformation</effectid>
								<effectcategory>motion</effectcategory>
								<effecttype>motion</effecttype>
								<mediatype>video</mediatype>
								<parameter authoringApp="PremierePro">
									<parameterid>aspect</parameterid>
									<name>Aspect</name>
									<valuemin>-10000</valuemin>
									<valuemax>10000</valuemax>
									<value>-3.12506</value>
								</parameter>
							</effect>
						</filter>
						<logginginfo>
							<description></description>
							<scene></scene>
							<shottake></shottake>
							<lognote></lognote>
							<good></good>
							<originalvideofilename></originalvideofilename>
							<originalaudiofilename></originalaudiofilename>
						</logginginfo>
						<colorinfo>
							<lut></lut>
							<lut1></lut1>
							<asc_sop></asc_sop>
							<asc_sat></asc_sat>
							<lut2></lut2>
						</colorinfo>
						<labels>
							<label2>Violet</label2>
						</labels>
					</clipitem>
					<clipitem id="clipitem-1690">
						<masterclipid>masterclip-707</masterclipid>
						<name>ВАЛЕРИЙ МЕЛАДЗЕ_ПОЛЮБИЛ___MSWCLP004836.mov</name>
						<enabled>TRUE</enabled>
						<duration>13128</duration>
						<rate>
							<timebase>25</timebase>
							<ntsc>FALSE</ntsc>
						</rate>
						<start>27419</start>
						<end>33978</end>
						<in>0</in>
						<out>6559</out>
						<pproTicksIn>0</pproTicksIn>
						<pproTicksOut>66643637760000</pproTicksOut>
						<alphatype>none</alphatype>
						<pixelaspectratio>PAL-601</pixelaspectratio>
						<anamorphic>TRUE</anamorphic>
						<pproOriginalPAR>square</pproOriginalPAR>
						<pproOriginalIsAnamorphic>FALSE</pproOriginalIsAnamorphic>
						<file id="file-586">
							<name>ВАЛЕРИЙ МЕЛАДЗЕ_ПОЛЮБИЛ___MSWCLP004836.mov</name>
							<pathurl>file://localhost/Volumes/1Tb/_MUZ_TV/Clips/%d0%92%d0%90%d0%9b%d0%95%d0%a0%d0%98%d0%98%cc%86%20%d0%9c%d0%95%d0%9b%d0%90%d0%94%d0%97%d0%95_%d0%9f%d0%9e%d0%9b%d0%ae%d0%91%d0%98%d0%9b___MSWCLP004836.mov</pathurl>
							<rate>
								<timebase>50</timebase>
								<ntsc>FALSE</ntsc>
							</rate>
							<duration>13128</duration>
							<timecode>
								<rate>
									<timebase>50</timebase>
									<ntsc>FALSE</ntsc>
								</rate>
								<string>00:00:00:00</string>
								<frame>0</frame>
								<displayformat>NDF</displayformat>
							</timecode>
							<media>
								<video>
									<samplecharacteristics>
										<rate>
											<timebase>50</timebase>
											<ntsc>FALSE</ntsc>
										</rate>
										<width>720</width>
										<height>576</height>
										<anamorphic>TRUE</anamorphic>
										<pixelaspectratio>PAL-601</pixelaspectratio>
										<pproOriginalIsAnamorphic>FALSE</pproOriginalIsAnamorphic>
										<pproOriginalPAR>square</pproOriginalPAR>
										<fielddominance>none</fielddominance>
									</samplecharacteristics>
								</video>
								<audio>
									<samplecharacteristics>
										<depth>16</depth>
										<samplerate>48000</samplerate>
									</samplecharacteristics>
									<channelcount>2</channelcount>
								</audio>
							</media>
						</file>
						<link>
							<linkclipref>clipitem-1690</linkclipref>
							<mediatype>video</mediatype>
							<trackindex>1</trackindex>
							<clipindex>24</clipindex>
						</link>
						<link>
							<linkclipref>clipitem-1938</linkclipref>
							<mediatype>audio</mediatype>
							<trackindex>1</trackindex>
							<clipindex>18</clipindex>
							<groupindex>1</groupindex>
						</link>
						<link>
							<linkclipref>clipitem-1976</linkclipref>
							<mediatype>audio</mediatype>
							<trackindex>2</trackindex>
							<clipindex>18</clipindex>
							<groupindex>1</groupindex>
						</link>
						<logginginfo>
							<description></description>
							<scene></scene>
							<shottake></shottake>
							<lognote></lognote>
							<good></good>
							<originalvideofilename></originalvideofilename>
							<originalaudiofilename></originalaudiofilename>
						</logginginfo>
						<colorinfo>
							<lut></lut>
							<lut1></lut1>
							<asc_sop></asc_sop>
							<asc_sat></asc_sat>
							<lut2></lut2>
						</colorinfo>
						<labels>
							<label2>Iris</label2>
						</labels>
					</clipitem>
					<clipitem id="clipitem-1691">
						<masterclipid>masterclip-697</masterclipid>
						<name>3sek_master</name>
						<enabled>TRUE</enabled>
						<duration>74</duration>
						<rate>
							<timebase>25</timebase>
							<ntsc>FALSE</ntsc>
						</rate>
						<start>33978</start>
						<end>34038</end>
						<in>0</in>
						<out>60</out>
						<pproTicksIn>0</pproTicksIn>
						<pproTicksOut>609638400000</pproTicksOut>
						<alphatype>none</alphatype>
						<file id="file-576"/>
						<filter>
							<effect>
								<name>Basic Motion</name>
								<effectid>basic</effectid>
								<effectcategory>motion</effectcategory>
								<effecttype>motion</effecttype>
								<mediatype>video</mediatype>
								<pproBypass>false</pproBypass>
								<parameter authoringApp="PremierePro">
									<parameterid>scale</parameterid>
									<name>Scale</name>
									<valuemin>0</valuemin>
									<valuemax>1000</valuemax>
									<value>55</value>
								</parameter>
								<parameter authoringApp="PremierePro">
									<parameterid>rotation</parameterid>
									<name>Rotation</name>
									<valuemin>-8640</valuemin>
									<valuemax>8640</valuemax>
									<value>0</value>
								</parameter>
								<parameter authoringApp="PremierePro">
									<parameterid>center</parameterid>
									<name>Center</name>
									<value>
										<horiz>0</horiz>
										<vert>0</vert>
									</value>
								</parameter>
								<parameter authoringApp="PremierePro">
									<parameterid>centerOffset</parameterid>
									<name>Anchor Point</name>
									<value>
										<horiz>0</horiz>
										<vert>0</vert>
									</value>
								</parameter>
								<parameter authoringApp="PremierePro">
									<parameterid>antiflicker</parameterid>
									<name>Anti-flicker Filter</name>
									<valuemin>0.0</valuemin>
									<valuemax>1.0</valuemax>
									<value>0</value>
								</parameter>
							</effect>
						</filter>
						<filter>
							<effect>
								<name>Distort</name>
								<effectid>deformation</effectid>
								<effectcategory>motion</effectcategory>
								<effecttype>motion</effecttype>
								<mediatype>video</mediatype>
								<parameter authoringApp="PremierePro">
									<parameterid>aspect</parameterid>
									<name>Aspect</name>
									<valuemin>-10000</valuemin>
									<valuemax>10000</valuemax>
									<value>-3.125</value>
								</parameter>
							</effect>
						</filter>
						<link>
							<linkclipref>clipitem-1691</linkclipref>
							<mediatype>video</mediatype>
							<trackindex>1</trackindex>
							<clipindex>25</clipindex>
						</link>
						<link>
							<linkclipref>clipitem-1939</linkclipref>
							<mediatype>audio</mediatype>
							<trackindex>1</trackindex>
							<clipindex>19</clipindex>
							<groupindex>1</groupindex>
						</link>
						<link>
							<linkclipref>clipitem-1977</linkclipref>
							<mediatype>audio</mediatype>
							<trackindex>2</trackindex>
							<clipindex>19</clipindex>
							<groupindex>1</groupindex>
						</link>
						<logginginfo>
							<description></description>
							<scene></scene>
							<shottake></shottake>
							<lognote></lognote>
							<good></good>
							<originalvideofilename></originalvideofilename>
							<originalaudiofilename></originalaudiofilename>
						</logginginfo>
						<colorinfo>
							<lut></lut>
							<lut1></lut1>
							<asc_sop></asc_sop>
							<asc_sat></asc_sat>
							<lut2></lut2>
						</colorinfo>
						<labels>
							<label2>Purple</label2>
						</labels>
					</clipitem>
					<clipitem id="clipitem-1692">
						<masterclipid>masterclip-693</masterclipid>
						<name>Nested Sequence_468</name>
						<enabled>TRUE</enabled>
						<duration>8812</duration>
						<rate>
							<timebase>25</timebase>
							<ntsc>FALSE</ntsc>
						</rate>
						<start>34038</start>
						<end>34708</end>
						<in>3681</in>
						<out>4351</out>
						<pproTicksIn>37401315840000</pproTicksIn>
						<pproTicksOut>44208944640000</pproTicksOut>
						<sequence id="sequence-131"/>
						<link>
							<linkclipref>clipitem-1692</linkclipref>
							<mediatype>video</mediatype>
							<trackindex>1</trackindex>
							<clipindex>26</clipindex>
						</link>
						<link>
							<linkclipref>clipitem-1940</linkclipref>
							<mediatype>audio</mediatype>
							<trackindex>1</trackindex>
							<clipindex>20</clipindex>
							<groupindex>1</groupindex>
						</link>
						<link>
							<linkclipref>clipitem-1978</linkclipref>
							<mediatype>audio</mediatype>
							<trackindex>2</trackindex>
							<clipindex>20</clipindex>
							<groupindex>1</groupindex>
						</link>
						<labels>
							<label2>Forest</label2>
						</labels>
					</clipitem>
					<clipitem id="clipitem-1693">
						<masterclipid>masterclip-708</masterclipid>
						<name>6_OTB</name>
						<enabled>TRUE</enabled>
						<duration>180</duration>
						<rate>
							<timebase>25</timebase>
							<ntsc>FALSE</ntsc>
						</rate>
						<start>34708</start>
						<end>34783</end>
						<in>0</in>
						<out>180</out>
						<pproTicksIn>0</pproTicksIn>
						<pproTicksOut>1828915200000</pproTicksOut>
						<alphatype>none</alphatype>
						<pixelaspectratio>square</pixelaspectratio>
						<anamorphic>FALSE</anamorphic>
						<file id="file-587">
							<name>NUM_6.mov</name>
							<pathurl>file://localhost/_MUZ_TV/graphika/RU-21/MOD/otb/NUM_6.mov</pathurl>
							<rate>
								<timebase>25</timebase>
								<ntsc>FALSE</ntsc>
							</rate>
							<duration>180</duration>
							<timecode>
								<rate>
									<timebase>25</timebase>
									<ntsc>FALSE</ntsc>
								</rate>
								<string>00:00:00:01</string>
								<frame>1</frame>
								<displayformat>NDF</displayformat>
							</timecode>
							<media>
								<video>
									<samplecharacteristics>
										<rate>
											<timebase>25</timebase>
											<ntsc>FALSE</ntsc>
										</rate>
										<width>1920</width>
										<height>1080</height>
										<anamorphic>FALSE</anamorphic>
										<pixelaspectratio>square</pixelaspectratio>
										<fielddominance>none</fielddominance>
									</samplecharacteristics>
								</video>
							</media>
						</file>
						<filter>
							<effect>
								<name>Basic Motion</name>
								<effectid>basic</effectid>
								<effectcategory>motion</effectcategory>
								<effecttype>motion</effecttype>
								<mediatype>video</mediatype>
								<pproBypass>false</pproBypass>
								<parameter authoringApp="PremierePro">
									<parameterid>scale</parameterid>
									<name>Scale</name>
									<valuemin>0</valuemin>
									<valuemax>1000</valuemax>
									<value>55</value>
								</parameter>
								<parameter authoringApp="PremierePro">
									<parameterid>rotation</parameterid>
									<name>Rotation</name>
									<valuemin>-8640</valuemin>
									<valuemax>8640</valuemax>
									<value>0</value>
								</parameter>
								<parameter authoringApp="PremierePro">
									<parameterid>center</parameterid>
									<name>Center</name>
									<value>
										<horiz>0</horiz>
										<vert>0</vert>
									</value>
								</parameter>
								<parameter authoringApp="PremierePro">
									<parameterid>centerOffset</parameterid>
									<name>Anchor Point</name>
									<value>
										<horiz>0</horiz>
										<vert>0</vert>
									</value>
								</parameter>
								<parameter authoringApp="PremierePro">
									<parameterid>antiflicker</parameterid>
									<name>Anti-flicker Filter</name>
									<valuemin>0.0</valuemin>
									<valuemax>1.0</valuemax>
									<value>0</value>
								</parameter>
							</effect>
						</filter>
						<filter>
							<effect>
								<name>Distort</name>
								<effectid>deformation</effectid>
								<effectcategory>motion</effectcategory>
								<effecttype>motion</effecttype>
								<mediatype>video</mediatype>
								<parameter authoringApp="PremierePro">
									<parameterid>aspect</parameterid>
									<name>Aspect</name>
									<valuemin>-10000</valuemin>
									<valuemax>10000</valuemax>
									<value>-3.12506</value>
								</parameter>
							</effect>
						</filter>
						<logginginfo>
							<description></description>
							<scene></scene>
							<shottake></shottake>
							<lognote></lognote>
							<good></good>
							<originalvideofilename></originalvideofilename>
							<originalaudiofilename></originalaudiofilename>
						</logginginfo>
						<colorinfo>
							<lut></lut>
							<lut1></lut1>
							<asc_sop></asc_sop>
							<asc_sat></asc_sat>
							<lut2></lut2>
						</colorinfo>
						<labels>
							<label2>Violet</label2>
						</labels>
					</clipitem>
					<clipitem id="clipitem-1694">
						<masterclipid>masterclip-709</masterclipid>
						<name>ЛОЛИТА &amp; КОСТА ЛАКОСТА_ПО-ДРУГОМУ___MSWCLP004820.mov</name>
						<enabled>TRUE</enabled>
						<duration>10218</duration>
						<rate>
							<timebase>25</timebase>
							<ntsc>FALSE</ntsc>
						</rate>
						<start>34783</start>
						<end>39492</end>
						<in>400</in>
						<out>5109</out>
						<pproTicksIn>4064256000000</pproTicksIn>
						<pproTicksOut>51910709760000</pproTicksOut>
						<alphatype>none</alphatype>
						<pixelaspectratio>PAL-601</pixelaspectratio>
						<anamorphic>TRUE</anamorphic>
						<pproOriginalPAR>square</pproOriginalPAR>
						<pproOriginalIsAnamorphic>FALSE</pproOriginalIsAnamorphic>
						<file id="file-588">
							<name>ЛОЛИТА &amp; КОСТА ЛАКОСТА_ПО-ДРУГОМУ___MSWCLP004820.mov</name>
							<pathurl>file://localhost/Volumes/1Tb/_MUZ_TV/Clips/%d0%9b%d0%9e%d0%9b%d0%98%d0%a2%d0%90%20&amp;%20%d0%9a%d0%9e%d0%a1%d0%a2%d0%90%20%d0%9b%d0%90%d0%9a%d0%9e%d0%a1%d0%a2%d0%90_%d0%9f%d0%9e-%d0%94%d0%a0%d0%a3%d0%93%d0%9e%d0%9c%d0%a3___MSWCLP004820.mov</pathurl>
							<rate>
								<timebase>50</timebase>
								<ntsc>FALSE</ntsc>
							</rate>
							<duration>10218</duration>
							<timecode>
								<rate>
									<timebase>50</timebase>
									<ntsc>FALSE</ntsc>
								</rate>
								<string>00:00:00:00</string>
								<frame>0</frame>
								<displayformat>NDF</displayformat>
							</timecode>
							<media>
								<video>
									<samplecharacteristics>
										<rate>
											<timebase>50</timebase>
											<ntsc>FALSE</ntsc>
										</rate>
										<width>720</width>
										<height>576</height>
										<anamorphic>TRUE</anamorphic>
										<pixelaspectratio>PAL-601</pixelaspectratio>
										<pproOriginalIsAnamorphic>FALSE</pproOriginalIsAnamorphic>
										<pproOriginalPAR>square</pproOriginalPAR>
										<fielddominance>none</fielddominance>
									</samplecharacteristics>
								</video>
								<audio>
									<samplecharacteristics>
										<depth>16</depth>
										<samplerate>48000</samplerate>
									</samplecharacteristics>
									<channelcount>2</channelcount>
								</audio>
							</media>
						</file>
						<link>
							<linkclipref>clipitem-1694</linkclipref>
							<mediatype>video</mediatype>
							<trackindex>1</trackindex>
							<clipindex>28</clipindex>
						</link>
						<link>
							<linkclipref>clipitem-1941</linkclipref>
							<mediatype>audio</mediatype>
							<trackindex>1</trackindex>
							<clipindex>21</clipindex>
							<groupindex>1</groupindex>
						</link>
						<link>
							<linkclipref>clipitem-1979</linkclipref>
							<mediatype>audio</mediatype>
							<trackindex>2</trackindex>
							<clipindex>21</clipindex>
							<groupindex>1</groupindex>
						</link>
						<logginginfo>
							<description></description>
							<scene></scene>
							<shottake></shottake>
							<lognote></lognote>
							<good></good>
							<originalvideofilename></originalvideofilename>
							<originalaudiofilename></originalaudiofilename>
						</logginginfo>
						<colorinfo>
							<lut></lut>
							<lut1></lut1>
							<asc_sop></asc_sop>
							<asc_sat></asc_sat>
							<lut2></lut2>
						</colorinfo>
						<labels>
							<label2>Iris</label2>
						</labels>
					</clipitem>
					<clipitem id="clipitem-1695">
						<masterclipid>masterclip-697</masterclipid>
						<name>3sek_master</name>
						<enabled>TRUE</enabled>
						<duration>74</duration>
						<rate>
							<timebase>25</timebase>
							<ntsc>FALSE</ntsc>
						</rate>
						<start>39492</start>
						<end>39552</end>
						<in>0</in>
						<out>60</out>
						<pproTicksIn>0</pproTicksIn>
						<pproTicksOut>609638400000</pproTicksOut>
						<alphatype>none</alphatype>
						<file id="file-576"/>
						<filter>
							<effect>
								<name>Basic Motion</name>
								<effectid>basic</effectid>
								<effectcategory>motion</effectcategory>
								<effecttype>motion</effecttype>
								<mediatype>video</mediatype>
								<pproBypass>false</pproBypass>
								<parameter authoringApp="PremierePro">
									<parameterid>scale</parameterid>
									<name>Scale</name>
									<valuemin>0</valuemin>
									<valuemax>1000</valuemax>
									<value>55</value>
								</parameter>
								<parameter authoringApp="PremierePro">
									<parameterid>rotation</parameterid>
									<name>Rotation</name>
									<valuemin>-8640</valuemin>
									<valuemax>8640</valuemax>
									<value>0</value>
								</parameter>
								<parameter authoringApp="PremierePro">
									<parameterid>center</parameterid>
									<name>Center</name>
									<value>
										<horiz>0</horiz>
										<vert>0</vert>
									</value>
								</parameter>
								<parameter authoringApp="PremierePro">
									<parameterid>centerOffset</parameterid>
									<name>Anchor Point</name>
									<value>
										<horiz>0</horiz>
										<vert>0</vert>
									</value>
								</parameter>
								<parameter authoringApp="PremierePro">
									<parameterid>antiflicker</parameterid>
									<name>Anti-flicker Filter</name>
									<valuemin>0.0</valuemin>
									<valuemax>1.0</valuemax>
									<value>0</value>
								</parameter>
							</effect>
						</filter>
						<filter>
							<effect>
								<name>Distort</name>
								<effectid>deformation</effectid>
								<effectcategory>motion</effectcategory>
								<effecttype>motion</effecttype>
								<mediatype>video</mediatype>
								<parameter authoringApp="PremierePro">
									<parameterid>aspect</parameterid>
									<name>Aspect</name>
									<valuemin>-10000</valuemin>
									<valuemax>10000</valuemax>
									<value>-3.125</value>
								</parameter>
							</effect>
						</filter>
						<link>
							<linkclipref>clipitem-1695</linkclipref>
							<mediatype>video</mediatype>
							<trackindex>1</trackindex>
							<clipindex>29</clipindex>
						</link>
						<link>
							<linkclipref>clipitem-1942</linkclipref>
							<mediatype>audio</mediatype>
							<trackindex>1</trackindex>
							<clipindex>22</clipindex>
							<groupindex>1</groupindex>
						</link>
						<link>
							<linkclipref>clipitem-1980</linkclipref>
							<mediatype>audio</mediatype>
							<trackindex>2</trackindex>
							<clipindex>22</clipindex>
							<groupindex>1</groupindex>
						</link>
						<logginginfo>
							<description></description>
							<scene></scene>
							<shottake></shottake>
							<lognote></lognote>
							<good></good>
							<originalvideofilename></originalvideofilename>
							<originalaudiofilename></originalaudiofilename>
						</logginginfo>
						<colorinfo>
							<lut></lut>
							<lut1></lut1>
							<asc_sop></asc_sop>
							<asc_sat></asc_sat>
							<lut2></lut2>
						</colorinfo>
						<labels>
							<label2>Purple</label2>
						</labels>
					</clipitem>
					<clipitem id="clipitem-1696">
						<masterclipid>masterclip-693</masterclipid>
						<name>Nested Sequence_468</name>
						<enabled>TRUE</enabled>
						<duration>8812</duration>
						<rate>
							<timebase>25</timebase>
							<ntsc>FALSE</ntsc>
						</rate>
						<start>39552</start>
						<end>40015</end>
						<in>4406</in>
						<out>4869</out>
						<pproTicksIn>44767779840000</pproTicksIn>
						<pproTicksOut>49472156160000</pproTicksOut>
						<sequence id="sequence-131"/>
						<link>
							<linkclipref>clipitem-1696</linkclipref>
							<mediatype>video</mediatype>
							<trackindex>1</trackindex>
							<clipindex>30</clipindex>
						</link>
						<link>
							<linkclipref>clipitem-1943</linkclipref>
							<mediatype>audio</mediatype>
							<trackindex>1</trackindex>
							<clipindex>23</clipindex>
							<groupindex>1</groupindex>
						</link>
						<link>
							<linkclipref>clipitem-1981</linkclipref>
							<mediatype>audio</mediatype>
							<trackindex>2</trackindex>
							<clipindex>23</clipindex>
							<groupindex>1</groupindex>
						</link>
						<labels>
							<label2>Forest</label2>
						</labels>
					</clipitem>
					<clipitem id="clipitem-1697">
						<masterclipid>masterclip-710</masterclipid>
						<name>5_OTB</name>
						<enabled>TRUE</enabled>
						<duration>180</duration>
						<rate>
							<timebase>25</timebase>
							<ntsc>FALSE</ntsc>
						</rate>
						<start>40015</start>
						<end>40090</end>
						<in>0</in>
						<out>180</out>
						<pproTicksIn>0</pproTicksIn>
						<pproTicksOut>1828915200000</pproTicksOut>
						<alphatype>none</alphatype>
						<pixelaspectratio>square</pixelaspectratio>
						<anamorphic>FALSE</anamorphic>
						<file id="file-589">
							<name>NUM_5.mov</name>
							<pathurl>file://localhost/_MUZ_TV/graphika/RU-21/MOD/otb/NUM_5.mov</pathurl>
							<rate>
								<timebase>25</timebase>
								<ntsc>FALSE</ntsc>
							</rate>
							<duration>180</duration>
							<timecode>
								<rate>
									<timebase>25</timebase>
									<ntsc>FALSE</ntsc>
								</rate>
								<string>00:00:00:01</string>
								<frame>1</frame>
								<displayformat>NDF</displayformat>
							</timecode>
							<media>
								<video>
									<samplecharacteristics>
										<rate>
											<timebase>25</timebase>
											<ntsc>FALSE</ntsc>
										</rate>
										<width>1920</width>
										<height>1080</height>
										<anamorphic>FALSE</anamorphic>
										<pixelaspectratio>square</pixelaspectratio>
										<fielddominance>none</fielddominance>
									</samplecharacteristics>
								</video>
							</media>
						</file>
						<filter>
							<effect>
								<name>Basic Motion</name>
								<effectid>basic</effectid>
								<effectcategory>motion</effectcategory>
								<effecttype>motion</effecttype>
								<mediatype>video</mediatype>
								<pproBypass>false</pproBypass>
								<parameter authoringApp="PremierePro">
									<parameterid>scale</parameterid>
									<name>Scale</name>
									<valuemin>0</valuemin>
									<valuemax>1000</valuemax>
									<value>55</value>
								</parameter>
								<parameter authoringApp="PremierePro">
									<parameterid>rotation</parameterid>
									<name>Rotation</name>
									<valuemin>-8640</valuemin>
									<valuemax>8640</valuemax>
									<value>0</value>
								</parameter>
								<parameter authoringApp="PremierePro">
									<parameterid>center</parameterid>
									<name>Center</name>
									<value>
										<horiz>0</horiz>
										<vert>0</vert>
									</value>
								</parameter>
								<parameter authoringApp="PremierePro">
									<parameterid>centerOffset</parameterid>
									<name>Anchor Point</name>
									<value>
										<horiz>0</horiz>
										<vert>0</vert>
									</value>
								</parameter>
								<parameter authoringApp="PremierePro">
									<parameterid>antiflicker</parameterid>
									<name>Anti-flicker Filter</name>
									<valuemin>0.0</valuemin>
									<valuemax>1.0</valuemax>
									<value>0</value>
								</parameter>
							</effect>
						</filter>
						<filter>
							<effect>
								<name>Distort</name>
								<effectid>deformation</effectid>
								<effectcategory>motion</effectcategory>
								<effecttype>motion</effecttype>
								<mediatype>video</mediatype>
								<parameter authoringApp="PremierePro">
									<parameterid>aspect</parameterid>
									<name>Aspect</name>
									<valuemin>-10000</valuemin>
									<valuemax>10000</valuemax>
									<value>-3.12506</value>
								</parameter>
							</effect>
						</filter>
						<logginginfo>
							<description></description>
							<scene></scene>
							<shottake></shottake>
							<lognote></lognote>
							<good></good>
							<originalvideofilename></originalvideofilename>
							<originalaudiofilename></originalaudiofilename>
						</logginginfo>
						<colorinfo>
							<lut></lut>
							<lut1></lut1>
							<asc_sop></asc_sop>
							<asc_sat></asc_sat>
							<lut2></lut2>
						</colorinfo>
						<labels>
							<label2>Violet</label2>
						</labels>
					</clipitem>
					<clipitem id="clipitem-1698">
						<masterclipid>masterclip-711</masterclipid>
						<name>BITTUEV_БРАТИК___MSWCLP004753.mov</name>
						<enabled>TRUE</enabled>
						<duration>5964</duration>
						<rate>
							<timebase>25</timebase>
							<ntsc>FALSE</ntsc>
						</rate>
						<start>40090</start>
						<end>43072</end>
						<in>0</in>
						<out>2982</out>
						<pproTicksIn>0</pproTicksIn>
						<pproTicksOut>30299028480000</pproTicksOut>
						<alphatype>none</alphatype>
						<pixelaspectratio>PAL-601</pixelaspectratio>
						<anamorphic>TRUE</anamorphic>
						<pproOriginalPAR>square</pproOriginalPAR>
						<pproOriginalIsAnamorphic>FALSE</pproOriginalIsAnamorphic>
						<file id="file-590">
							<name>BITTUEV_БРАТИК___MSWCLP004753.mov</name>
							<pathurl>file://localhost/Volumes/1Tb/_MUZ_TV/Clips/BITTUEV_%d0%91%d0%a0%d0%90%d0%a2%d0%98%d0%9a___MSWCLP004753.mov</pathurl>
							<rate>
								<timebase>50</timebase>
								<ntsc>FALSE</ntsc>
							</rate>
							<duration>5964</duration>
							<timecode>
								<rate>
									<timebase>50</timebase>
									<ntsc>FALSE</ntsc>
								</rate>
								<string>00:00:00:00</string>
								<frame>0</frame>
								<displayformat>NDF</displayformat>
							</timecode>
							<media>
								<video>
									<samplecharacteristics>
										<rate>
											<timebase>50</timebase>
											<ntsc>FALSE</ntsc>
										</rate>
										<width>720</width>
										<height>576</height>
										<anamorphic>TRUE</anamorphic>
										<pixelaspectratio>PAL-601</pixelaspectratio>
										<pproOriginalIsAnamorphic>FALSE</pproOriginalIsAnamorphic>
										<pproOriginalPAR>square</pproOriginalPAR>
										<fielddominance>none</fielddominance>
									</samplecharacteristics>
								</video>
								<audio>
									<samplecharacteristics>
										<depth>16</depth>
										<samplerate>48000</samplerate>
									</samplecharacteristics>
									<channelcount>2</channelcount>
								</audio>
							</media>
						</file>
						<link>
							<linkclipref>clipitem-1698</linkclipref>
							<mediatype>video</mediatype>
							<trackindex>1</trackindex>
							<clipindex>32</clipindex>
						</link>
						<link>
							<linkclipref>clipitem-1944</linkclipref>
							<mediatype>audio</mediatype>
							<trackindex>1</trackindex>
							<clipindex>24</clipindex>
							<groupindex>1</groupindex>
						</link>
						<link>
							<linkclipref>clipitem-1982</linkclipref>
							<mediatype>audio</mediatype>
							<trackindex>2</trackindex>
							<clipindex>24</clipindex>
							<groupindex>1</groupindex>
						</link>
						<logginginfo>
							<description></description>
							<scene></scene>
							<shottake></shottake>
							<lognote></lognote>
							<good></good>
							<originalvideofilename></originalvideofilename>
							<originalaudiofilename></originalaudiofilename>
						</logginginfo>
						<colorinfo>
							<lut></lut>
							<lut1></lut1>
							<asc_sop></asc_sop>
							<asc_sat></asc_sat>
							<lut2></lut2>
						</colorinfo>
						<labels>
							<label2>Iris</label2>
						</labels>
					</clipitem>
					<clipitem id="clipitem-1699">
						<masterclipid>masterclip-697</masterclipid>
						<name>3sek_master</name>
						<enabled>TRUE</enabled>
						<duration>74</duration>
						<rate>
							<timebase>25</timebase>
							<ntsc>FALSE</ntsc>
						</rate>
						<start>43072</start>
						<end>43132</end>
						<in>0</in>
						<out>60</out>
						<pproTicksIn>0</pproTicksIn>
						<pproTicksOut>609638400000</pproTicksOut>
						<alphatype>none</alphatype>
						<file id="file-576"/>
						<filter>
							<effect>
								<name>Basic Motion</name>
								<effectid>basic</effectid>
								<effectcategory>motion</effectcategory>
								<effecttype>motion</effecttype>
								<mediatype>video</mediatype>
								<pproBypass>false</pproBypass>
								<parameter authoringApp="PremierePro">
									<parameterid>scale</parameterid>
									<name>Scale</name>
									<valuemin>0</valuemin>
									<valuemax>1000</valuemax>
									<value>55</value>
								</parameter>
								<parameter authoringApp="PremierePro">
									<parameterid>rotation</parameterid>
									<name>Rotation</name>
									<valuemin>-8640</valuemin>
									<valuemax>8640</valuemax>
									<value>0</value>
								</parameter>
								<parameter authoringApp="PremierePro">
									<parameterid>center</parameterid>
									<name>Center</name>
									<value>
										<horiz>0</horiz>
										<vert>0</vert>
									</value>
								</parameter>
								<parameter authoringApp="PremierePro">
									<parameterid>centerOffset</parameterid>
									<name>Anchor Point</name>
									<value>
										<horiz>0</horiz>
										<vert>0</vert>
									</value>
								</parameter>
								<parameter authoringApp="PremierePro">
									<parameterid>antiflicker</parameterid>
									<name>Anti-flicker Filter</name>
									<valuemin>0.0</valuemin>
									<valuemax>1.0</valuemax>
									<value>0</value>
								</parameter>
							</effect>
						</filter>
						<filter>
							<effect>
								<name>Distort</name>
								<effectid>deformation</effectid>
								<effectcategory>motion</effectcategory>
								<effecttype>motion</effecttype>
								<mediatype>video</mediatype>
								<parameter authoringApp="PremierePro">
									<parameterid>aspect</parameterid>
									<name>Aspect</name>
									<valuemin>-10000</valuemin>
									<valuemax>10000</valuemax>
									<value>-3.125</value>
								</parameter>
							</effect>
						</filter>
						<link>
							<linkclipref>clipitem-1699</linkclipref>
							<mediatype>video</mediatype>
							<trackindex>1</trackindex>
							<clipindex>33</clipindex>
						</link>
						<link>
							<linkclipref>clipitem-1945</linkclipref>
							<mediatype>audio</mediatype>
							<trackindex>1</trackindex>
							<clipindex>25</clipindex>
							<groupindex>1</groupindex>
						</link>
						<link>
							<linkclipref>clipitem-1983</linkclipref>
							<mediatype>audio</mediatype>
							<trackindex>2</trackindex>
							<clipindex>25</clipindex>
							<groupindex>1</groupindex>
						</link>
						<logginginfo>
							<description></description>
							<scene></scene>
							<shottake></shottake>
							<lognote></lognote>
							<good></good>
							<originalvideofilename></originalvideofilename>
							<originalaudiofilename></originalaudiofilename>
						</logginginfo>
						<colorinfo>
							<lut></lut>
							<lut1></lut1>
							<asc_sop></asc_sop>
							<asc_sat></asc_sat>
							<lut2></lut2>
						</colorinfo>
						<labels>
							<label2>Purple</label2>
						</labels>
					</clipitem>
					<clipitem id="clipitem-1700">
						<masterclipid>masterclip-693</masterclipid>
						<name>Nested Sequence_468</name>
						<enabled>TRUE</enabled>
						<duration>8812</duration>
						<rate>
							<timebase>25</timebase>
							<ntsc>FALSE</ntsc>
						</rate>
						<start>43132</start>
						<end>43699</end>
						<in>4922</in>
						<out>5489</out>
						<pproTicksIn>50010670080000</pproTicksIn>
						<pproTicksOut>55771752960000</pproTicksOut>
						<sequence id="sequence-131"/>
						<link>
							<linkclipref>clipitem-1700</linkclipref>
							<mediatype>video</mediatype>
							<trackindex>1</trackindex>
							<clipindex>34</clipindex>
						</link>
						<link>
							<linkclipref>clipitem-1946</linkclipref>
							<mediatype>audio</mediatype>
							<trackindex>1</trackindex>
							<clipindex>26</clipindex>
							<groupindex>1</groupindex>
						</link>
						<link>
							<linkclipref>clipitem-1984</linkclipref>
							<mediatype>audio</mediatype>
							<trackindex>2</trackindex>
							<clipindex>26</clipindex>
							<groupindex>1</groupindex>
						</link>
						<labels>
							<label2>Forest</label2>
						</labels>
					</clipitem>
					<clipitem id="clipitem-1701">
						<masterclipid>masterclip-712</masterclipid>
						<name>4_OTB</name>
						<enabled>TRUE</enabled>
						<duration>180</duration>
						<rate>
							<timebase>25</timebase>
							<ntsc>FALSE</ntsc>
						</rate>
						<start>43699</start>
						<end>43774</end>
						<in>0</in>
						<out>180</out>
						<pproTicksIn>0</pproTicksIn>
						<pproTicksOut>1828915200000</pproTicksOut>
						<alphatype>none</alphatype>
						<pixelaspectratio>square</pixelaspectratio>
						<anamorphic>FALSE</anamorphic>
						<file id="file-591">
							<name>NUM_4.mov</name>
							<pathurl>file://localhost/_MUZ_TV/graphika/RU-21/MOD/otb/NUM_4.mov</pathurl>
							<rate>
								<timebase>25</timebase>
								<ntsc>FALSE</ntsc>
							</rate>
							<duration>180</duration>
							<timecode>
								<rate>
									<timebase>25</timebase>
									<ntsc>FALSE</ntsc>
								</rate>
								<string>00:00:00:01</string>
								<frame>1</frame>
								<displayformat>NDF</displayformat>
							</timecode>
							<media>
								<video>
									<samplecharacteristics>
										<rate>
											<timebase>25</timebase>
											<ntsc>FALSE</ntsc>
										</rate>
										<width>1920</width>
										<height>1080</height>
										<anamorphic>FALSE</anamorphic>
										<pixelaspectratio>square</pixelaspectratio>
										<fielddominance>none</fielddominance>
									</samplecharacteristics>
								</video>
							</media>
						</file>
						<filter>
							<effect>
								<name>Basic Motion</name>
								<effectid>basic</effectid>
								<effectcategory>motion</effectcategory>
								<effecttype>motion</effecttype>
								<mediatype>video</mediatype>
								<pproBypass>false</pproBypass>
								<parameter authoringApp="PremierePro">
									<parameterid>scale</parameterid>
									<name>Scale</name>
									<valuemin>0</valuemin>
									<valuemax>1000</valuemax>
									<value>55</value>
								</parameter>
								<parameter authoringApp="PremierePro">
									<parameterid>rotation</parameterid>
									<name>Rotation</name>
									<valuemin>-8640</valuemin>
									<valuemax>8640</valuemax>
									<value>0</value>
								</parameter>
								<parameter authoringApp="PremierePro">
									<parameterid>center</parameterid>
									<name>Center</name>
									<value>
										<horiz>0</horiz>
										<vert>0</vert>
									</value>
								</parameter>
								<parameter authoringApp="PremierePro">
									<parameterid>centerOffset</parameterid>
									<name>Anchor Point</name>
									<value>
										<horiz>0</horiz>
										<vert>0</vert>
									</value>
								</parameter>
								<parameter authoringApp="PremierePro">
									<parameterid>antiflicker</parameterid>
									<name>Anti-flicker Filter</name>
									<valuemin>0.0</valuemin>
									<valuemax>1.0</valuemax>
									<value>0</value>
								</parameter>
							</effect>
						</filter>
						<filter>
							<effect>
								<name>Distort</name>
								<effectid>deformation</effectid>
								<effectcategory>motion</effectcategory>
								<effecttype>motion</effecttype>
								<mediatype>video</mediatype>
								<parameter authoringApp="PremierePro">
									<parameterid>aspect</parameterid>
									<name>Aspect</name>
									<valuemin>-10000</valuemin>
									<valuemax>10000</valuemax>
									<value>-3.12506</value>
								</parameter>
							</effect>
						</filter>
						<logginginfo>
							<description></description>
							<scene></scene>
							<shottake></shottake>
							<lognote></lognote>
							<good></good>
							<originalvideofilename></originalvideofilename>
							<originalaudiofilename></originalaudiofilename>
						</logginginfo>
						<colorinfo>
							<lut></lut>
							<lut1></lut1>
							<asc_sop></asc_sop>
							<asc_sat></asc_sat>
							<lut2></lut2>
						</colorinfo>
						<labels>
							<label2>Violet</label2>
						</labels>
					</clipitem>
					<clipitem id="clipitem-1702">
						<masterclipid>masterclip-713</masterclipid>
						<name>GAYAZOV$ BROTHER$_МАЛИНОВАЯ ЛАДА___MSWCLP004814.mov</name>
						<enabled>TRUE</enabled>
						<duration>11542</duration>
						<rate>
							<timebase>25</timebase>
							<ntsc>FALSE</ntsc>
						</rate>
						<start>43774</start>
						<end>49300</end>
						<in>245</in>
						<out>5771</out>
						<pproTicksIn>2489356800000</pproTicksIn>
						<pproTicksOut>58637053440000</pproTicksOut>
						<alphatype>none</alphatype>
						<pixelaspectratio>PAL-601</pixelaspectratio>
						<anamorphic>TRUE</anamorphic>
						<pproOriginalPAR>square</pproOriginalPAR>
						<pproOriginalIsAnamorphic>FALSE</pproOriginalIsAnamorphic>
						<file id="file-592">
							<name>GAYAZOV$ BROTHER$_МАЛИНОВАЯ ЛАДА___MSWCLP004814.mov</name>
							<pathurl>file://localhost/Volumes/1Tb/_MUZ_TV/Clips/GAYAZOV$%20BROTHER$_%d0%9c%d0%90%d0%9b%d0%98%d0%9d%d0%9e%d0%92%d0%90%d0%af%20%d0%9b%d0%90%d0%94%d0%90___MSWCLP004814.mov</pathurl>
							<rate>
								<timebase>50</timebase>
								<ntsc>FALSE</ntsc>
							</rate>
							<duration>11542</duration>
							<timecode>
								<rate>
									<timebase>50</timebase>
									<ntsc>FALSE</ntsc>
								</rate>
								<string>00:00:00:00</string>
								<frame>0</frame>
								<displayformat>NDF</displayformat>
							</timecode>
							<media>
								<video>
									<samplecharacteristics>
										<rate>
											<timebase>50</timebase>
											<ntsc>FALSE</ntsc>
										</rate>
										<width>720</width>
										<height>576</height>
										<anamorphic>TRUE</anamorphic>
										<pixelaspectratio>PAL-601</pixelaspectratio>
										<pproOriginalIsAnamorphic>FALSE</pproOriginalIsAnamorphic>
										<pproOriginalPAR>square</pproOriginalPAR>
										<fielddominance>none</fielddominance>
									</samplecharacteristics>
								</video>
								<audio>
									<samplecharacteristics>
										<depth>16</depth>
										<samplerate>48000</samplerate>
									</samplecharacteristics>
									<channelcount>2</channelcount>
								</audio>
							</media>
						</file>
						<link>
							<linkclipref>clipitem-1702</linkclipref>
							<mediatype>video</mediatype>
							<trackindex>1</trackindex>
							<clipindex>36</clipindex>
						</link>
						<link>
							<linkclipref>clipitem-1947</linkclipref>
							<mediatype>audio</mediatype>
							<trackindex>1</trackindex>
							<clipindex>27</clipindex>
							<groupindex>1</groupindex>
						</link>
						<link>
							<linkclipref>clipitem-1985</linkclipref>
							<mediatype>audio</mediatype>
							<trackindex>2</trackindex>
							<clipindex>27</clipindex>
							<groupindex>1</groupindex>
						</link>
						<logginginfo>
							<description></description>
							<scene></scene>
							<shottake></shottake>
							<lognote></lognote>
							<good></good>
							<originalvideofilename></originalvideofilename>
							<originalaudiofilename></originalaudiofilename>
						</logginginfo>
						<colorinfo>
							<lut></lut>
							<lut1></lut1>
							<asc_sop></asc_sop>
							<asc_sat></asc_sat>
							<lut2></lut2>
						</colorinfo>
						<labels>
							<label2>Iris</label2>
						</labels>
					</clipitem>
					<clipitem id="clipitem-1703">
						<masterclipid>masterclip-697</masterclipid>
						<name>3sek_master</name>
						<enabled>TRUE</enabled>
						<duration>74</duration>
						<rate>
							<timebase>25</timebase>
							<ntsc>FALSE</ntsc>
						</rate>
						<start>49300</start>
						<end>49360</end>
						<in>0</in>
						<out>60</out>
						<pproTicksIn>0</pproTicksIn>
						<pproTicksOut>609638400000</pproTicksOut>
						<alphatype>none</alphatype>
						<file id="file-576"/>
						<filter>
							<effect>
								<name>Basic Motion</name>
								<effectid>basic</effectid>
								<effectcategory>motion</effectcategory>
								<effecttype>motion</effecttype>
								<mediatype>video</mediatype>
								<pproBypass>false</pproBypass>
								<parameter authoringApp="PremierePro">
									<parameterid>scale</parameterid>
									<name>Scale</name>
									<valuemin>0</valuemin>
									<valuemax>1000</valuemax>
									<value>55</value>
								</parameter>
								<parameter authoringApp="PremierePro">
									<parameterid>rotation</parameterid>
									<name>Rotation</name>
									<valuemin>-8640</valuemin>
									<valuemax>8640</valuemax>
									<value>0</value>
								</parameter>
								<parameter authoringApp="PremierePro">
									<parameterid>center</parameterid>
									<name>Center</name>
									<value>
										<horiz>0</horiz>
										<vert>0</vert>
									</value>
								</parameter>
								<parameter authoringApp="PremierePro">
									<parameterid>centerOffset</parameterid>
									<name>Anchor Point</name>
									<value>
										<horiz>0</horiz>
										<vert>0</vert>
									</value>
								</parameter>
								<parameter authoringApp="PremierePro">
									<parameterid>antiflicker</parameterid>
									<name>Anti-flicker Filter</name>
									<valuemin>0.0</valuemin>
									<valuemax>1.0</valuemax>
									<value>0</value>
								</parameter>
							</effect>
						</filter>
						<filter>
							<effect>
								<name>Distort</name>
								<effectid>deformation</effectid>
								<effectcategory>motion</effectcategory>
								<effecttype>motion</effecttype>
								<mediatype>video</mediatype>
								<parameter authoringApp="PremierePro">
									<parameterid>aspect</parameterid>
									<name>Aspect</name>
									<valuemin>-10000</valuemin>
									<valuemax>10000</valuemax>
									<value>-3.125</value>
								</parameter>
							</effect>
						</filter>
						<link>
							<linkclipref>clipitem-1703</linkclipref>
							<mediatype>video</mediatype>
							<trackindex>1</trackindex>
							<clipindex>37</clipindex>
						</link>
						<link>
							<linkclipref>clipitem-1948</linkclipref>
							<mediatype>audio</mediatype>
							<trackindex>1</trackindex>
							<clipindex>28</clipindex>
							<groupindex>1</groupindex>
						</link>
						<link>
							<linkclipref>clipitem-1986</linkclipref>
							<mediatype>audio</mediatype>
							<trackindex>2</trackindex>
							<clipindex>28</clipindex>
							<groupindex>1</groupindex>
						</link>
						<logginginfo>
							<description></description>
							<scene></scene>
							<shottake></shottake>
							<lognote></lognote>
							<good></good>
							<originalvideofilename></originalvideofilename>
							<originalaudiofilename></originalaudiofilename>
						</logginginfo>
						<colorinfo>
							<lut></lut>
							<lut1></lut1>
							<asc_sop></asc_sop>
							<asc_sat></asc_sat>
							<lut2></lut2>
						</colorinfo>
						<labels>
							<label2>Purple</label2>
						</labels>
					</clipitem>
					<clipitem id="clipitem-1704">
						<masterclipid>masterclip-693</masterclipid>
						<name>Nested Sequence_468</name>
						<enabled>TRUE</enabled>
						<duration>8812</duration>
						<rate>
							<timebase>25</timebase>
							<ntsc>FALSE</ntsc>
						</rate>
						<start>49360</start>
						<end>50023</end>
						<in>5535</in>
						<out>6198</out>
						<pproTicksIn>56239142400000</pproTicksIn>
						<pproTicksOut>62975646720000</pproTicksOut>
						<sequence id="sequence-131"/>
						<link>
							<linkclipref>clipitem-1704</linkclipref>
							<mediatype>video</mediatype>
							<trackindex>1</trackindex>
							<clipindex>38</clipindex>
						</link>
						<link>
							<linkclipref>clipitem-1949</linkclipref>
							<mediatype>audio</mediatype>
							<trackindex>1</trackindex>
							<clipindex>29</clipindex>
							<groupindex>1</groupindex>
						</link>
						<link>
							<linkclipref>clipitem-1987</linkclipref>
							<mediatype>audio</mediatype>
							<trackindex>2</trackindex>
							<clipindex>29</clipindex>
							<groupindex>1</groupindex>
						</link>
						<labels>
							<label2>Forest</label2>
						</labels>
					</clipitem>
					<clipitem id="clipitem-1705">
						<masterclipid>masterclip-714</masterclipid>
						<name>3_OTB</name>
						<enabled>TRUE</enabled>
						<duration>180</duration>
						<rate>
							<timebase>25</timebase>
							<ntsc>FALSE</ntsc>
						</rate>
						<start>50023</start>
						<end>50098</end>
						<in>0</in>
						<out>180</out>
						<pproTicksIn>0</pproTicksIn>
						<pproTicksOut>1828915200000</pproTicksOut>
						<alphatype>none</alphatype>
						<pixelaspectratio>square</pixelaspectratio>
						<anamorphic>FALSE</anamorphic>
						<file id="file-593">
							<name>NUM_3.mov</name>
							<pathurl>file://localhost/_MUZ_TV/graphika/RU-21/MOD/otb/NUM_3.mov</pathurl>
							<rate>
								<timebase>25</timebase>
								<ntsc>FALSE</ntsc>
							</rate>
							<duration>180</duration>
							<timecode>
								<rate>
									<timebase>25</timebase>
									<ntsc>FALSE</ntsc>
								</rate>
								<string>00:00:00:01</string>
								<frame>1</frame>
								<displayformat>NDF</displayformat>
							</timecode>
							<media>
								<video>
									<samplecharacteristics>
										<rate>
											<timebase>25</timebase>
											<ntsc>FALSE</ntsc>
										</rate>
										<width>1920</width>
										<height>1080</height>
										<anamorphic>FALSE</anamorphic>
										<pixelaspectratio>square</pixelaspectratio>
										<fielddominance>none</fielddominance>
									</samplecharacteristics>
								</video>
							</media>
						</file>
						<filter>
							<effect>
								<name>Basic Motion</name>
								<effectid>basic</effectid>
								<effectcategory>motion</effectcategory>
								<effecttype>motion</effecttype>
								<mediatype>video</mediatype>
								<pproBypass>false</pproBypass>
								<parameter authoringApp="PremierePro">
									<parameterid>scale</parameterid>
									<name>Scale</name>
									<valuemin>0</valuemin>
									<valuemax>1000</valuemax>
									<value>55</value>
								</parameter>
								<parameter authoringApp="PremierePro">
									<parameterid>rotation</parameterid>
									<name>Rotation</name>
									<valuemin>-8640</valuemin>
									<valuemax>8640</valuemax>
									<value>0</value>
								</parameter>
								<parameter authoringApp="PremierePro">
									<parameterid>center</parameterid>
									<name>Center</name>
									<value>
										<horiz>0</horiz>
										<vert>0</vert>
									</value>
								</parameter>
								<parameter authoringApp="PremierePro">
									<parameterid>centerOffset</parameterid>
									<name>Anchor Point</name>
									<value>
										<horiz>0</horiz>
										<vert>0</vert>
									</value>
								</parameter>
								<parameter authoringApp="PremierePro">
									<parameterid>antiflicker</parameterid>
									<name>Anti-flicker Filter</name>
									<valuemin>0.0</valuemin>
									<valuemax>1.0</valuemax>
									<value>0</value>
								</parameter>
							</effect>
						</filter>
						<filter>
							<effect>
								<name>Distort</name>
								<effectid>deformation</effectid>
								<effectcategory>motion</effectcategory>
								<effecttype>motion</effecttype>
								<mediatype>video</mediatype>
								<parameter authoringApp="PremierePro">
									<parameterid>aspect</parameterid>
									<name>Aspect</name>
									<valuemin>-10000</valuemin>
									<valuemax>10000</valuemax>
									<value>-3.12506</value>
								</parameter>
							</effect>
						</filter>
						<logginginfo>
							<description></description>
							<scene></scene>
							<shottake></shottake>
							<lognote></lognote>
							<good></good>
							<originalvideofilename></originalvideofilename>
							<originalaudiofilename></originalaudiofilename>
						</logginginfo>
						<colorinfo>
							<lut></lut>
							<lut1></lut1>
							<asc_sop></asc_sop>
							<asc_sat></asc_sat>
							<lut2></lut2>
						</colorinfo>
						<labels>
							<label2>Violet</label2>
						</labels>
					</clipitem>
					<clipitem id="clipitem-1706">
						<masterclipid>masterclip-715</masterclipid>
						<name>ЛЮСЯ ЧЕБОТИНА_СОЛНЦЕ МОНАКО___MSWCLP004812.mov</name>
						<enabled>TRUE</enabled>
						<duration>7794</duration>
						<rate>
							<timebase>25</timebase>
							<ntsc>FALSE</ntsc>
						</rate>
						<start>50098</start>
						<end>53995</end>
						<in>0</in>
						<out>3897</out>
						<pproTicksIn>0</pproTicksIn>
						<pproTicksOut>39596014080000</pproTicksOut>
						<alphatype>none</alphatype>
						<pixelaspectratio>PAL-601</pixelaspectratio>
						<anamorphic>TRUE</anamorphic>
						<pproOriginalPAR>square</pproOriginalPAR>
						<pproOriginalIsAnamorphic>FALSE</pproOriginalIsAnamorphic>
						<file id="file-594">
							<name>ЛЮСЯ ЧЕБОТИНА_СОЛНЦЕ МОНАКО___MSWCLP004812.mov</name>
							<pathurl>file://localhost/Volumes/1Tb/_MUZ_TV/Clips/%d0%9b%d0%ae%d0%a1%d0%af%20%d0%a7%d0%95%d0%91%d0%9e%d0%a2%d0%98%d0%9d%d0%90_%d0%a1%d0%9e%d0%9b%d0%9d%d0%a6%d0%95%20%d0%9c%d0%9e%d0%9d%d0%90%d0%9a%d0%9e___MSWCLP004812.mov</pathurl>
							<rate>
								<timebase>50</timebase>
								<ntsc>FALSE</ntsc>
							</rate>
							<duration>7794</duration>
							<timecode>
								<rate>
									<timebase>50</timebase>
									<ntsc>FALSE</ntsc>
								</rate>
								<string>00:00:00:00</string>
								<frame>0</frame>
								<displayformat>NDF</displayformat>
							</timecode>
							<media>
								<video>
									<samplecharacteristics>
										<rate>
											<timebase>50</timebase>
											<ntsc>FALSE</ntsc>
										</rate>
										<width>720</width>
										<height>576</height>
										<anamorphic>TRUE</anamorphic>
										<pixelaspectratio>PAL-601</pixelaspectratio>
										<pproOriginalIsAnamorphic>FALSE</pproOriginalIsAnamorphic>
										<pproOriginalPAR>square</pproOriginalPAR>
										<fielddominance>none</fielddominance>
									</samplecharacteristics>
								</video>
								<audio>
									<samplecharacteristics>
										<depth>16</depth>
										<samplerate>48000</samplerate>
									</samplecharacteristics>
									<channelcount>2</channelcount>
								</audio>
							</media>
						</file>
						<link>
							<linkclipref>clipitem-1706</linkclipref>
							<mediatype>video</mediatype>
							<trackindex>1</trackindex>
							<clipindex>40</clipindex>
						</link>
						<link>
							<linkclipref>clipitem-1950</linkclipref>
							<mediatype>audio</mediatype>
							<trackindex>1</trackindex>
							<clipindex>30</clipindex>
							<groupindex>1</groupindex>
						</link>
						<link>
							<linkclipref>clipitem-1988</linkclipref>
							<mediatype>audio</mediatype>
							<trackindex>2</trackindex>
							<clipindex>30</clipindex>
							<groupindex>1</groupindex>
						</link>
						<logginginfo>
							<description></description>
							<scene></scene>
							<shottake></shottake>
							<lognote></lognote>
							<good></good>
							<originalvideofilename></originalvideofilename>
							<originalaudiofilename></originalaudiofilename>
						</logginginfo>
						<colorinfo>
							<lut></lut>
							<lut1></lut1>
							<asc_sop></asc_sop>
							<asc_sat></asc_sat>
							<lut2></lut2>
						</colorinfo>
						<labels>
							<label2>Iris</label2>
						</labels>
					</clipitem>
					<clipitem id="clipitem-1707">
						<masterclipid>masterclip-697</masterclipid>
						<name>3sek_master</name>
						<enabled>TRUE</enabled>
						<duration>74</duration>
						<rate>
							<timebase>25</timebase>
							<ntsc>FALSE</ntsc>
						</rate>
						<start>53995</start>
						<end>54055</end>
						<in>0</in>
						<out>60</out>
						<pproTicksIn>0</pproTicksIn>
						<pproTicksOut>609638400000</pproTicksOut>
						<alphatype>none</alphatype>
						<file id="file-576"/>
						<filter>
							<effect>
								<name>Basic Motion</name>
								<effectid>basic</effectid>
								<effectcategory>motion</effectcategory>
								<effecttype>motion</effecttype>
								<mediatype>video</mediatype>
								<pproBypass>false</pproBypass>
								<parameter authoringApp="PremierePro">
									<parameterid>scale</parameterid>
									<name>Scale</name>
									<valuemin>0</valuemin>
									<valuemax>1000</valuemax>
									<value>55</value>
								</parameter>
								<parameter authoringApp="PremierePro">
									<parameterid>rotation</parameterid>
									<name>Rotation</name>
									<valuemin>-8640</valuemin>
									<valuemax>8640</valuemax>
									<value>0</value>
								</parameter>
								<parameter authoringApp="PremierePro">
									<parameterid>center</parameterid>
									<name>Center</name>
									<value>
										<horiz>0</horiz>
										<vert>0</vert>
									</value>
								</parameter>
								<parameter authoringApp="PremierePro">
									<parameterid>centerOffset</parameterid>
									<name>Anchor Point</name>
									<value>
										<horiz>0</horiz>
										<vert>0</vert>
									</value>
								</parameter>
								<parameter authoringApp="PremierePro">
									<parameterid>antiflicker</parameterid>
									<name>Anti-flicker Filter</name>
									<valuemin>0.0</valuemin>
									<valuemax>1.0</valuemax>
									<value>0</value>
								</parameter>
							</effect>
						</filter>
						<filter>
							<effect>
								<name>Distort</name>
								<effectid>deformation</effectid>
								<effectcategory>motion</effectcategory>
								<effecttype>motion</effecttype>
								<mediatype>video</mediatype>
								<parameter authoringApp="PremierePro">
									<parameterid>aspect</parameterid>
									<name>Aspect</name>
									<valuemin>-10000</valuemin>
									<valuemax>10000</valuemax>
									<value>-3.125</value>
								</parameter>
							</effect>
						</filter>
						<link>
							<linkclipref>clipitem-1707</linkclipref>
							<mediatype>video</mediatype>
							<trackindex>1</trackindex>
							<clipindex>41</clipindex>
						</link>
						<link>
							<linkclipref>clipitem-1951</linkclipref>
							<mediatype>audio</mediatype>
							<trackindex>1</trackindex>
							<clipindex>31</clipindex>
							<groupindex>1</groupindex>
						</link>
						<link>
							<linkclipref>clipitem-1989</linkclipref>
							<mediatype>audio</mediatype>
							<trackindex>2</trackindex>
							<clipindex>31</clipindex>
							<groupindex>1</groupindex>
						</link>
						<logginginfo>
							<description></description>
							<scene></scene>
							<shottake></shottake>
							<lognote></lognote>
							<good></good>
							<originalvideofilename></originalvideofilename>
							<originalaudiofilename></originalaudiofilename>
						</logginginfo>
						<colorinfo>
							<lut></lut>
							<lut1></lut1>
							<asc_sop></asc_sop>
							<asc_sat></asc_sat>
							<lut2></lut2>
						</colorinfo>
						<labels>
							<label2>Purple</label2>
						</labels>
					</clipitem>
					<clipitem id="clipitem-1708">
						<masterclipid>masterclip-693</masterclipid>
						<name>Nested Sequence_468</name>
						<enabled>TRUE</enabled>
						<duration>8812</duration>
						<rate>
							<timebase>25</timebase>
							<ntsc>FALSE</ntsc>
						</rate>
						<start>54055</start>
						<end>54589</end>
						<in>6279</in>
						<out>6813</out>
						<pproTicksIn>63798658560000</pproTicksIn>
						<pproTicksOut>69224440320000</pproTicksOut>
						<sequence id="sequence-131"/>
						<link>
							<linkclipref>clipitem-1708</linkclipref>
							<mediatype>video</mediatype>
							<trackindex>1</trackindex>
							<clipindex>42</clipindex>
						</link>
						<link>
							<linkclipref>clipitem-1952</linkclipref>
							<mediatype>audio</mediatype>
							<trackindex>1</trackindex>
							<clipindex>32</clipindex>
							<groupindex>1</groupindex>
						</link>
						<link>
							<linkclipref>clipitem-1990</linkclipref>
							<mediatype>audio</mediatype>
							<trackindex>2</trackindex>
							<clipindex>32</clipindex>
							<groupindex>1</groupindex>
						</link>
						<labels>
							<label2>Forest</label2>
						</labels>
					</clipitem>
					<clipitem id="clipitem-1709">
						<masterclipid>masterclip-716</masterclipid>
						<name>2_OTB</name>
						<enabled>TRUE</enabled>
						<duration>180</duration>
						<rate>
							<timebase>25</timebase>
							<ntsc>FALSE</ntsc>
						</rate>
						<start>54589</start>
						<end>54664</end>
						<in>0</in>
						<out>180</out>
						<pproTicksIn>0</pproTicksIn>
						<pproTicksOut>1828915200000</pproTicksOut>
						<alphatype>none</alphatype>
						<pixelaspectratio>square</pixelaspectratio>
						<anamorphic>FALSE</anamorphic>
						<file id="file-595">
							<name>NUM_2.mov</name>
							<pathurl>file://localhost/_MUZ_TV/graphika/RU-21/MOD/otb/NUM_2.mov</pathurl>
							<rate>
								<timebase>25</timebase>
								<ntsc>FALSE</ntsc>
							</rate>
							<duration>180</duration>
							<timecode>
								<rate>
									<timebase>25</timebase>
									<ntsc>FALSE</ntsc>
								</rate>
								<string>00:00:00:01</string>
								<frame>1</frame>
								<displayformat>NDF</displayformat>
							</timecode>
							<media>
								<video>
									<samplecharacteristics>
										<rate>
											<timebase>25</timebase>
											<ntsc>FALSE</ntsc>
										</rate>
										<width>1920</width>
										<height>1080</height>
										<anamorphic>FALSE</anamorphic>
										<pixelaspectratio>square</pixelaspectratio>
										<fielddominance>none</fielddominance>
									</samplecharacteristics>
								</video>
							</media>
						</file>
						<filter>
							<effect>
								<name>Basic Motion</name>
								<effectid>basic</effectid>
								<effectcategory>motion</effectcategory>
								<effecttype>motion</effecttype>
								<mediatype>video</mediatype>
								<pproBypass>false</pproBypass>
								<parameter authoringApp="PremierePro">
									<parameterid>scale</parameterid>
									<name>Scale</name>
									<valuemin>0</valuemin>
									<valuemax>1000</valuemax>
									<value>55</value>
								</parameter>
								<parameter authoringApp="PremierePro">
									<parameterid>rotation</parameterid>
									<name>Rotation</name>
									<valuemin>-8640</valuemin>
									<valuemax>8640</valuemax>
									<value>0</value>
								</parameter>
								<parameter authoringApp="PremierePro">
									<parameterid>center</parameterid>
									<name>Center</name>
									<value>
										<horiz>0</horiz>
										<vert>0</vert>
									</value>
								</parameter>
								<parameter authoringApp="PremierePro">
									<parameterid>centerOffset</parameterid>
									<name>Anchor Point</name>
									<value>
										<horiz>0</horiz>
										<vert>0</vert>
									</value>
								</parameter>
								<parameter authoringApp="PremierePro">
									<parameterid>antiflicker</parameterid>
									<name>Anti-flicker Filter</name>
									<valuemin>0.0</valuemin>
									<valuemax>1.0</valuemax>
									<value>0</value>
								</parameter>
							</effect>
						</filter>
						<filter>
							<effect>
								<name>Distort</name>
								<effectid>deformation</effectid>
								<effectcategory>motion</effectcategory>
								<effecttype>motion</effecttype>
								<mediatype>video</mediatype>
								<parameter authoringApp="PremierePro">
									<parameterid>aspect</parameterid>
									<name>Aspect</name>
									<valuemin>-10000</valuemin>
									<valuemax>10000</valuemax>
									<value>-3.12506</value>
								</parameter>
							</effect>
						</filter>
						<logginginfo>
							<description></description>
							<scene></scene>
							<shottake></shottake>
							<lognote></lognote>
							<good></good>
							<originalvideofilename></originalvideofilename>
							<originalaudiofilename></originalaudiofilename>
						</logginginfo>
						<colorinfo>
							<lut></lut>
							<lut1></lut1>
							<asc_sop></asc_sop>
							<asc_sat></asc_sat>
							<lut2></lut2>
						</colorinfo>
						<labels>
							<label2>Violet</label2>
						</labels>
					</clipitem>
					<clipitem id="clipitem-1710">
						<masterclipid>masterclip-717</masterclipid>
						<name>NЮ_НИКТО___MSWCLP004852.mov</name>
						<enabled>TRUE</enabled>
						<duration>10060</duration>
						<rate>
							<timebase>25</timebase>
							<ntsc>FALSE</ntsc>
						</rate>
						<start>54664</start>
						<end>59662</end>
						<in>32</in>
						<out>5030</out>
						<pproTicksIn>325140480000</pproTicksIn>
						<pproTicksOut>51108019200000</pproTicksOut>
						<alphatype>none</alphatype>
						<pixelaspectratio>PAL-601</pixelaspectratio>
						<anamorphic>TRUE</anamorphic>
						<pproOriginalPAR>square</pproOriginalPAR>
						<pproOriginalIsAnamorphic>FALSE</pproOriginalIsAnamorphic>
						<file id="file-596">
							<name>NЮ_НИКТО___MSWCLP004852.mov</name>
							<pathurl>file://localhost/Volumes/1Tb/_MUZ_TV/Clips/N%d0%ae_%d0%9d%d0%98%d0%9a%d0%a2%d0%9e___MSWCLP004852.mov</pathurl>
							<rate>
								<timebase>50</timebase>
								<ntsc>FALSE</ntsc>
							</rate>
							<duration>10060</duration>
							<timecode>
								<rate>
									<timebase>50</timebase>
									<ntsc>FALSE</ntsc>
								</rate>
								<string>00:00:00:00</string>
								<frame>0</frame>
								<displayformat>NDF</displayformat>
							</timecode>
							<media>
								<video>
									<samplecharacteristics>
										<rate>
											<timebase>50</timebase>
											<ntsc>FALSE</ntsc>
										</rate>
										<width>720</width>
										<height>576</height>
										<anamorphic>TRUE</anamorphic>
										<pixelaspectratio>PAL-601</pixelaspectratio>
										<pproOriginalIsAnamorphic>FALSE</pproOriginalIsAnamorphic>
										<pproOriginalPAR>square</pproOriginalPAR>
										<fielddominance>none</fielddominance>
									</samplecharacteristics>
								</video>
								<audio>
									<samplecharacteristics>
										<depth>16</depth>
										<samplerate>48000</samplerate>
									</samplecharacteristics>
									<channelcount>2</channelcount>
								</audio>
							</media>
						</file>
						<link>
							<linkclipref>clipitem-1710</linkclipref>
							<mediatype>video</mediatype>
							<trackindex>1</trackindex>
							<clipindex>44</clipindex>
						</link>
						<link>
							<linkclipref>clipitem-1953</linkclipref>
							<mediatype>audio</mediatype>
							<trackindex>1</trackindex>
							<clipindex>33</clipindex>
							<groupindex>1</groupindex>
						</link>
						<link>
							<linkclipref>clipitem-1991</linkclipref>
							<mediatype>audio</mediatype>
							<trackindex>2</trackindex>
							<clipindex>33</clipindex>
							<groupindex>1</groupindex>
						</link>
						<logginginfo>
							<description></description>
							<scene></scene>
							<shottake></shottake>
							<lognote></lognote>
							<good></good>
							<originalvideofilename></originalvideofilename>
							<originalaudiofilename></originalaudiofilename>
						</logginginfo>
						<colorinfo>
							<lut></lut>
							<lut1></lut1>
							<asc_sop></asc_sop>
							<asc_sat></asc_sat>
							<lut2></lut2>
						</colorinfo>
						<labels>
							<label2>Iris</label2>
						</labels>
					</clipitem>
					<clipitem id="clipitem-1711">
						<masterclipid>masterclip-697</masterclipid>
						<name>3sek_master</name>
						<enabled>TRUE</enabled>
						<duration>74</duration>
						<rate>
							<timebase>25</timebase>
							<ntsc>FALSE</ntsc>
						</rate>
						<start>59662</start>
						<end>59722</end>
						<in>0</in>
						<out>60</out>
						<pproTicksIn>0</pproTicksIn>
						<pproTicksOut>609638400000</pproTicksOut>
						<alphatype>none</alphatype>
						<file id="file-576"/>
						<filter>
							<effect>
								<name>Basic Motion</name>
								<effectid>basic</effectid>
								<effectcategory>motion</effectcategory>
								<effecttype>motion</effecttype>
								<mediatype>video</mediatype>
								<pproBypass>false</pproBypass>
								<parameter authoringApp="PremierePro">
									<parameterid>scale</parameterid>
									<name>Scale</name>
									<valuemin>0</valuemin>
									<valuemax>1000</valuemax>
									<value>55</value>
								</parameter>
								<parameter authoringApp="PremierePro">
									<parameterid>rotation</parameterid>
									<name>Rotation</name>
									<valuemin>-8640</valuemin>
									<valuemax>8640</valuemax>
									<value>0</value>
								</parameter>
								<parameter authoringApp="PremierePro">
									<parameterid>center</parameterid>
									<name>Center</name>
									<value>
										<horiz>0</horiz>
										<vert>0</vert>
									</value>
								</parameter>
								<parameter authoringApp="PremierePro">
									<parameterid>centerOffset</parameterid>
									<name>Anchor Point</name>
									<value>
										<horiz>0</horiz>
										<vert>0</vert>
									</value>
								</parameter>
								<parameter authoringApp="PremierePro">
									<parameterid>antiflicker</parameterid>
									<name>Anti-flicker Filter</name>
									<valuemin>0.0</valuemin>
									<valuemax>1.0</valuemax>
									<value>0</value>
								</parameter>
							</effect>
						</filter>
						<filter>
							<effect>
								<name>Distort</name>
								<effectid>deformation</effectid>
								<effectcategory>motion</effectcategory>
								<effecttype>motion</effecttype>
								<mediatype>video</mediatype>
								<parameter authoringApp="PremierePro">
									<parameterid>aspect</parameterid>
									<name>Aspect</name>
									<valuemin>-10000</valuemin>
									<valuemax>10000</valuemax>
									<value>-3.125</value>
								</parameter>
							</effect>
						</filter>
						<link>
							<linkclipref>clipitem-1711</linkclipref>
							<mediatype>video</mediatype>
							<trackindex>1</trackindex>
							<clipindex>45</clipindex>
						</link>
						<link>
							<linkclipref>clipitem-1954</linkclipref>
							<mediatype>audio</mediatype>
							<trackindex>1</trackindex>
							<clipindex>34</clipindex>
							<groupindex>1</groupindex>
						</link>
						<link>
							<linkclipref>clipitem-1992</linkclipref>
							<mediatype>audio</mediatype>
							<trackindex>2</trackindex>
							<clipindex>34</clipindex>
							<groupindex>1</groupindex>
						</link>
						<logginginfo>
							<description></description>
							<scene></scene>
							<shottake></shottake>
							<lognote></lognote>
							<good></good>
							<originalvideofilename></originalvideofilename>
							<originalaudiofilename></originalaudiofilename>
						</logginginfo>
						<colorinfo>
							<lut></lut>
							<lut1></lut1>
							<asc_sop></asc_sop>
							<asc_sat></asc_sat>
							<lut2></lut2>
						</colorinfo>
						<labels>
							<label2>Purple</label2>
						</labels>
					</clipitem>
					<clipitem id="clipitem-1712">
						<masterclipid>masterclip-693</masterclipid>
						<name>Nested Sequence_468</name>
						<enabled>TRUE</enabled>
						<duration>8812</duration>
						<rate>
							<timebase>25</timebase>
							<ntsc>FALSE</ntsc>
						</rate>
						<start>59722</start>
						<end>60286</end>
						<in>6881</in>
						<out>7445</out>
						<pproTicksIn>69915363840000</pproTicksIn>
						<pproTicksOut>75645964800000</pproTicksOut>
						<sequence id="sequence-131"/>
						<link>
							<linkclipref>clipitem-1712</linkclipref>
							<mediatype>video</mediatype>
							<trackindex>1</trackindex>
							<clipindex>46</clipindex>
						</link>
						<link>
							<linkclipref>clipitem-1955</linkclipref>
							<mediatype>audio</mediatype>
							<trackindex>1</trackindex>
							<clipindex>35</clipindex>
							<groupindex>1</groupindex>
						</link>
						<link>
							<linkclipref>clipitem-1993</linkclipref>
							<mediatype>audio</mediatype>
							<trackindex>2</trackindex>
							<clipindex>35</clipindex>
							<groupindex>1</groupindex>
						</link>
						<labels>
							<label2>Forest</label2>
						</labels>
					</clipitem>
					<clipitem id="clipitem-1713">
						<masterclipid>masterclip-718</masterclipid>
						<name>1_OTB</name>
						<enabled>TRUE</enabled>
						<duration>180</duration>
						<rate>
							<timebase>25</timebase>
							<ntsc>FALSE</ntsc>
						</rate>
						<start>60286</start>
						<end>60361</end>
						<in>0</in>
						<out>180</out>
						<pproTicksIn>0</pproTicksIn>
						<pproTicksOut>1828915200000</pproTicksOut>
						<alphatype>none</alphatype>
						<pixelaspectratio>square</pixelaspectratio>
						<anamorphic>FALSE</anamorphic>
						<file id="file-597">
							<name>NUM_1.mov</name>
							<pathurl>file://localhost/_MUZ_TV/graphika/RU-21/MOD/otb/NUM_1.mov</pathurl>
							<rate>
								<timebase>25</timebase>
								<ntsc>FALSE</ntsc>
							</rate>
							<duration>180</duration>
							<timecode>
								<rate>
									<timebase>25</timebase>
									<ntsc>FALSE</ntsc>
								</rate>
								<string>00:00:00:01</string>
								<frame>1</frame>
								<displayformat>NDF</displayformat>
							</timecode>
							<media>
								<video>
									<samplecharacteristics>
										<rate>
											<timebase>25</timebase>
											<ntsc>FALSE</ntsc>
										</rate>
										<width>1920</width>
										<height>1080</height>
										<anamorphic>FALSE</anamorphic>
										<pixelaspectratio>square</pixelaspectratio>
										<fielddominance>none</fielddominance>
									</samplecharacteristics>
								</video>
							</media>
						</file>
						<filter>
							<effect>
								<name>Basic Motion</name>
								<effectid>basic</effectid>
								<effectcategory>motion</effectcategory>
								<effecttype>motion</effecttype>
								<mediatype>video</mediatype>
								<pproBypass>false</pproBypass>
								<parameter authoringApp="PremierePro">
									<parameterid>scale</parameterid>
									<name>Scale</name>
									<valuemin>0</valuemin>
									<valuemax>1000</valuemax>
									<value>55</value>
								</parameter>
								<parameter authoringApp="PremierePro">
									<parameterid>rotation</parameterid>
									<name>Rotation</name>
									<valuemin>-8640</valuemin>
									<valuemax>8640</valuemax>
									<value>0</value>
								</parameter>
								<parameter authoringApp="PremierePro">
									<parameterid>center</parameterid>
									<name>Center</name>
									<value>
										<horiz>0</horiz>
										<vert>0</vert>
									</value>
								</parameter>
								<parameter authoringApp="PremierePro">
									<parameterid>centerOffset</parameterid>
									<name>Anchor Point</name>
									<value>
										<horiz>0</horiz>
										<vert>0</vert>
									</value>
								</parameter>
								<parameter authoringApp="PremierePro">
									<parameterid>antiflicker</parameterid>
									<name>Anti-flicker Filter</name>
									<valuemin>0.0</valuemin>
									<valuemax>1.0</valuemax>
									<value>0</value>
								</parameter>
							</effect>
						</filter>
						<filter>
							<effect>
								<name>Distort</name>
								<effectid>deformation</effectid>
								<effectcategory>motion</effectcategory>
								<effecttype>motion</effecttype>
								<mediatype>video</mediatype>
								<parameter authoringApp="PremierePro">
									<parameterid>aspect</parameterid>
									<name>Aspect</name>
									<valuemin>-10000</valuemin>
									<valuemax>10000</valuemax>
									<value>-3.12506</value>
								</parameter>
							</effect>
						</filter>
						<logginginfo>
							<description></description>
							<scene></scene>
							<shottake></shottake>
							<lognote></lognote>
							<good></good>
							<originalvideofilename></originalvideofilename>
							<originalaudiofilename></originalaudiofilename>
						</logginginfo>
						<colorinfo>
							<lut></lut>
							<lut1></lut1>
							<asc_sop></asc_sop>
							<asc_sat></asc_sat>
							<lut2></lut2>
						</colorinfo>
						<labels>
							<label2>Violet</label2>
						</labels>
					</clipitem>
					<clipitem id="clipitem-1714">
						<masterclipid>masterclip-719</masterclipid>
						<name>ДАНЯ МИЛОХИН &amp; МУМИЙ ТРОЛЛЬ_БАШНЯ___MSWCLP004828.mov</name>
						<enabled>TRUE</enabled>
						<duration>9870</duration>
						<rate>
							<timebase>25</timebase>
							<ntsc>FALSE</ntsc>
						</rate>
						<start>60361</start>
						<end>65296</end>
						<in>0</in>
						<out>4935</out>
						<pproTicksIn>0</pproTicksIn>
						<pproTicksOut>50142758400000</pproTicksOut>
						<alphatype>none</alphatype>
						<pixelaspectratio>PAL-601</pixelaspectratio>
						<anamorphic>TRUE</anamorphic>
						<pproOriginalPAR>square</pproOriginalPAR>
						<pproOriginalIsAnamorphic>FALSE</pproOriginalIsAnamorphic>
						<file id="file-598">
							<name>ДАНЯ МИЛОХИН &amp; МУМИЙ ТРОЛЛЬ_БАШНЯ___MSWCLP004828.mov</name>
							<pathurl>file://localhost/Volumes/1Tb/_MUZ_TV/Clips/%d0%94%d0%90%d0%9d%d0%af%20%d0%9c%d0%98%d0%9b%d0%9e%d0%a5%d0%98%d0%9d%20&amp;%20%d0%9c%d0%a3%d0%9c%d0%98%d0%98%cc%86%20%d0%a2%d0%a0%d0%9e%d0%9b%d0%9b%d0%ac_%d0%91%d0%90%d0%a8%d0%9d%d0%af___MSWCLP004828.mov</pathurl>
							<rate>
								<timebase>50</timebase>
								<ntsc>FALSE</ntsc>
							</rate>
							<duration>9870</duration>
							<timecode>
								<rate>
									<timebase>50</timebase>
									<ntsc>FALSE</ntsc>
								</rate>
								<string>00:00:00:00</string>
								<frame>0</frame>
								<displayformat>NDF</displayformat>
							</timecode>
							<media>
								<video>
									<samplecharacteristics>
										<rate>
											<timebase>50</timebase>
											<ntsc>FALSE</ntsc>
										</rate>
										<width>720</width>
										<height>576</height>
										<anamorphic>TRUE</anamorphic>
										<pixelaspectratio>PAL-601</pixelaspectratio>
										<pproOriginalIsAnamorphic>FALSE</pproOriginalIsAnamorphic>
										<pproOriginalPAR>square</pproOriginalPAR>
										<fielddominance>none</fielddominance>
									</samplecharacteristics>
								</video>
								<audio>
									<samplecharacteristics>
										<depth>16</depth>
										<samplerate>48000</samplerate>
									</samplecharacteristics>
									<channelcount>2</channelcount>
								</audio>
							</media>
						</file>
						<link>
							<linkclipref>clipitem-1714</linkclipref>
							<mediatype>video</mediatype>
							<trackindex>1</trackindex>
							<clipindex>48</clipindex>
						</link>
						<link>
							<linkclipref>clipitem-1956</linkclipref>
							<mediatype>audio</mediatype>
							<trackindex>1</trackindex>
							<clipindex>36</clipindex>
							<groupindex>1</groupindex>
						</link>
						<link>
							<linkclipref>clipitem-1994</linkclipref>
							<mediatype>audio</mediatype>
							<trackindex>2</trackindex>
							<clipindex>36</clipindex>
							<groupindex>1</groupindex>
						</link>
						<logginginfo>
							<description></description>
							<scene></scene>
							<shottake></shottake>
							<lognote></lognote>
							<good></good>
							<originalvideofilename></originalvideofilename>
							<originalaudiofilename></originalaudiofilename>
						</logginginfo>
						<colorinfo>
							<lut></lut>
							<lut1></lut1>
							<asc_sop></asc_sop>
							<asc_sat></asc_sat>
							<lut2></lut2>
						</colorinfo>
						<labels>
							<label2>Iris</label2>
						</labels>
					</clipitem>
					<clipitem id="clipitem-1715">
						<masterclipid>masterclip-697</masterclipid>
						<name>3sek_master</name>
						<enabled>TRUE</enabled>
						<duration>74</duration>
						<rate>
							<timebase>25</timebase>
							<ntsc>FALSE</ntsc>
						</rate>
						<start>65296</start>
						<end>65356</end>
						<in>0</in>
						<out>60</out>
						<pproTicksIn>0</pproTicksIn>
						<pproTicksOut>609638400000</pproTicksOut>
						<alphatype>none</alphatype>
						<file id="file-576"/>
						<filter>
							<effect>
								<name>Basic Motion</name>
								<effectid>basic</effectid>
								<effectcategory>motion</effectcategory>
								<effecttype>motion</effecttype>
								<mediatype>video</mediatype>
								<pproBypass>false</pproBypass>
								<parameter authoringApp="PremierePro">
									<parameterid>scale</parameterid>
									<name>Scale</name>
									<valuemin>0</valuemin>
									<valuemax>1000</valuemax>
									<value>55</value>
								</parameter>
								<parameter authoringApp="PremierePro">
									<parameterid>rotation</parameterid>
									<name>Rotation</name>
									<valuemin>-8640</valuemin>
									<valuemax>8640</valuemax>
									<value>0</value>
								</parameter>
								<parameter authoringApp="PremierePro">
									<parameterid>center</parameterid>
									<name>Center</name>
									<value>
										<horiz>0</horiz>
										<vert>0</vert>
									</value>
								</parameter>
								<parameter authoringApp="PremierePro">
									<parameterid>centerOffset</parameterid>
									<name>Anchor Point</name>
									<value>
										<horiz>0</horiz>
										<vert>0</vert>
									</value>
								</parameter>
								<parameter authoringApp="PremierePro">
									<parameterid>antiflicker</parameterid>
									<name>Anti-flicker Filter</name>
									<valuemin>0.0</valuemin>
									<valuemax>1.0</valuemax>
									<value>0</value>
								</parameter>
							</effect>
						</filter>
						<filter>
							<effect>
								<name>Distort</name>
								<effectid>deformation</effectid>
								<effectcategory>motion</effectcategory>
								<effecttype>motion</effecttype>
								<mediatype>video</mediatype>
								<parameter authoringApp="PremierePro">
									<parameterid>aspect</parameterid>
									<name>Aspect</name>
									<valuemin>-10000</valuemin>
									<valuemax>10000</valuemax>
									<value>-3.125</value>
								</parameter>
							</effect>
						</filter>
						<link>
							<linkclipref>clipitem-1715</linkclipref>
							<mediatype>video</mediatype>
							<trackindex>1</trackindex>
							<clipindex>49</clipindex>
						</link>
						<link>
							<linkclipref>clipitem-1957</linkclipref>
							<mediatype>audio</mediatype>
							<trackindex>1</trackindex>
							<clipindex>37</clipindex>
							<groupindex>1</groupindex>
						</link>
						<link>
							<linkclipref>clipitem-1995</linkclipref>
							<mediatype>audio</mediatype>
							<trackindex>2</trackindex>
							<clipindex>37</clipindex>
							<groupindex>1</groupindex>
						</link>
						<logginginfo>
							<description></description>
							<scene></scene>
							<shottake></shottake>
							<lognote></lognote>
							<good></good>
							<originalvideofilename></originalvideofilename>
							<originalaudiofilename></originalaudiofilename>
						</logginginfo>
						<colorinfo>
							<lut></lut>
							<lut1></lut1>
							<asc_sop></asc_sop>
							<asc_sat></asc_sat>
							<lut2></lut2>
						</colorinfo>
						<labels>
							<label2>Purple</label2>
						</labels>
					</clipitem>
					<clipitem id="clipitem-1716">
						<masterclipid>masterclip-693</masterclipid>
						<name>Nested Sequence_468</name>
						<enabled>TRUE</enabled>
						<duration>8812</duration>
						<rate>
							<timebase>25</timebase>
							<ntsc>FALSE</ntsc>
						</rate>
						<start>65356</start>
						<end>65740</end>
						<in>7507</in>
						<out>7891</out>
						<pproTicksIn>76275924480000</pproTicksIn>
						<pproTicksOut>80177610240000</pproTicksOut>
						<sequence id="sequence-131"/>
						<link>
							<linkclipref>clipitem-1716</linkclipref>
							<mediatype>video</mediatype>
							<trackindex>1</trackindex>
							<clipindex>50</clipindex>
						</link>
						<link>
							<linkclipref>clipitem-1958</linkclipref>
							<mediatype>audio</mediatype>
							<trackindex>1</trackindex>
							<clipindex>38</clipindex>
							<groupindex>1</groupindex>
						</link>
						<link>
							<linkclipref>clipitem-1996</linkclipref>
							<mediatype>audio</mediatype>
							<trackindex>2</trackindex>
							<clipindex>38</clipindex>
							<groupindex>1</groupindex>
						</link>
						<labels>
							<label2>Forest</label2>
						</labels>
					</clipitem>
					<clipitem id="clipitem-1717">
						<masterclipid>masterclip-692</masterclipid>
						<name>MYZ_RusskiyChart_appProRes_v2.mov</name>
						<enabled>TRUE</enabled>
						<duration>299</duration>
						<rate>
							<timebase>25</timebase>
							<ntsc>FALSE</ntsc>
						</rate>
						<start>65740</start>
						<end>66000</end>
						<in>22</in>
						<out>282</out>
						<pproTicksIn>223534080000</pproTicksIn>
						<pproTicksOut>2865300480000</pproTicksOut>
						<alphatype>none</alphatype>
						<file id="file-572"/>
						<filter>
							<effect>
								<name>Basic Motion</name>
								<effectid>basic</effectid>
								<effectcategory>motion</effectcategory>
								<effecttype>motion</effecttype>
								<mediatype>video</mediatype>
								<pproBypass>false</pproBypass>
								<parameter authoringApp="PremierePro">
									<parameterid>scale</parameterid>
									<name>Scale</name>
									<valuemin>0</valuemin>
									<valuemax>1000</valuemax>
									<value>55</value>
								</parameter>
								<parameter authoringApp="PremierePro">
									<parameterid>rotation</parameterid>
									<name>Rotation</name>
									<valuemin>-8640</valuemin>
									<valuemax>8640</valuemax>
									<value>0</value>
								</parameter>
								<parameter authoringApp="PremierePro">
									<parameterid>center</parameterid>
									<name>Center</name>
									<value>
										<horiz>0</horiz>
										<vert>0</vert>
									</value>
								</parameter>
								<parameter authoringApp="PremierePro">
									<parameterid>centerOffset</parameterid>
									<name>Anchor Point</name>
									<value>
										<horiz>0</horiz>
										<vert>0</vert>
									</value>
								</parameter>
								<parameter authoringApp="PremierePro">
									<parameterid>antiflicker</parameterid>
									<name>Anti-flicker Filter</name>
									<valuemin>0.0</valuemin>
									<valuemax>1.0</valuemax>
									<value>0</value>
								</parameter>
							</effect>
						</filter>
						<link>
							<linkclipref>clipitem-1717</linkclipref>
							<mediatype>video</mediatype>
							<trackindex>1</trackindex>
							<clipindex>51</clipindex>
						</link>
						<link>
							<linkclipref>clipitem-2009</linkclipref>
							<mediatype>audio</mediatype>
							<trackindex>3</trackindex>
							<clipindex>13</clipindex>
							<groupindex>1</groupindex>
						</link>
						<link>
							<linkclipref>clipitem-2022</linkclipref>
							<mediatype>audio</mediatype>
							<trackindex>4</trackindex>
							<clipindex>13</clipindex>
							<groupindex>1</groupindex>
						</link>
						<logginginfo>
							<description></description>
							<scene></scene>
							<shottake></shottake>
							<lognote></lognote>
							<good></good>
							<originalvideofilename></originalvideofilename>
							<originalaudiofilename></originalaudiofilename>
						</logginginfo>
						<colorinfo>
							<lut></lut>
							<lut1></lut1>
							<asc_sop></asc_sop>
							<asc_sat></asc_sat>
							<lut2></lut2>
						</colorinfo>
						<labels>
							<label2>Iris</label2>
						</labels>
					</clipitem>
					<enabled>TRUE</enabled>
					<locked>FALSE</locked>
				</track>
				<track TL.SQTrackShy="0" TL.SQTrackExpandedHeight="25" TL.SQTrackExpanded="0" MZ.TrackTargeted="0">
					<clipitem id="clipitem-1718">
						<masterclipid>masterclip-720</masterclipid>
						<name>титр</name>
						<enabled>TRUE</enabled>
						<duration>225</duration>
						<rate>
							<timebase>25</timebase>
							<ntsc>FALSE</ntsc>
						</rate>
						<start>460</start>
						<end>631</end>
						<in>0</in>
						<out>171</out>
						<pproTicksIn>0</pproTicksIn>
						<pproTicksOut>1737469440000</pproTicksOut>
						<sequence id="sequence-132" TL.SQAudioVisibleBase="0" TL.SQVideoVisibleBase="0" TL.SQVisibleBaseTime="0" TL.SQAVDividerPosition="0.5" TL.SQHideShyTracks="0" TL.SQHeaderWidth="236" Monitor.ProgramZoomOut="1727308800000" Monitor.ProgramZoomIn="0" TL.SQTimePerPixel="0.016155997644680363" AM.TrackVScrollPosition="0" AM.TrackScrollPosition="0" MZ.EditLine="1280240640000" MZ.Sequence.PreviewFrameSizeHeight="576" MZ.Sequence.PreviewFrameSizeWidth="720" MZ.Sequence.AudioTimeDisplayFormat="200" MZ.Sequence.PreviewRenderingClassID="1061109567" MZ.Sequence.PreviewRenderingPresetCodec="1685480304" MZ.Sequence.PreviewRenderingPresetPath="EncoderPresets/SequencePreview/04be6e19-a018-4e0c-a9d6-0ab44c64752b/QuickTime DV PAL.epr" MZ.Sequence.PreviewUseMaxRenderQuality="false" MZ.Sequence.PreviewUseMaxBitDepth="false" MZ.Sequence.EditingModeGUID="04be6e19-a018-4e0c-a9d6-0ab44c64752b" MZ.Sequence.VideoTimeDisplayFormat="101" MZ.WorkOutPoint="2286144000000" MZ.WorkInPoint="0">
							<duration>0</duration>
							<rate>
								<timebase>25</timebase>
								<ntsc>FALSE</ntsc>
							</rate>
							<name>Nested Sequence 09</name>
							<media>
								<video>
									<format>
										<samplecharacteristics>
											<rate>
												<timebase>25</timebase>
												<ntsc>FALSE</ntsc>
											</rate>
											<codec>
												<name>Apple ProRes 422</name>
												<appspecificdata>
													<appname>Final Cut Pro</appname>
													<appmanufacturer>Apple Inc.</appmanufacturer>
													<appversion>7.0</appversion>
													<data>
														<qtcodec>
															<codecname>Apple ProRes 422</codecname>
															<codectypename>Apple ProRes 422</codectypename>
															<codectypecode>apcn</codectypecode>
															<codecvendorcode>appl</codecvendorcode>
															<spatialquality>1024</spatialquality>
															<temporalquality>0</temporalquality>
															<keyframerate>0</keyframerate>
															<datarate>0</datarate>
														</qtcodec>
													</data>
												</appspecificdata>
											</codec>
											<width>720</width>
											<height>576</height>
											<anamorphic>TRUE</anamorphic>
											<pixelaspectratio>PAL-601</pixelaspectratio>
											<fielddominance>lower</fielddominance>
											<colordepth>24</colordepth>
										</samplecharacteristics>
									</format>
									<track TL.SQTrackShy="0" TL.SQTrackExpandedHeight="25" TL.SQTrackExpanded="0" MZ.TrackTargeted="1">
										<enabled>TRUE</enabled>
										<locked>FALSE</locked>
									</track>
									<track TL.SQTrackShy="0" TL.SQTrackExpandedHeight="25" TL.SQTrackExpanded="0" MZ.TrackTargeted="0">
										<enabled>TRUE</enabled>
										<locked>FALSE</locked>
									</track>
									<track TL.SQTrackShy="0" TL.SQTrackExpandedHeight="25" TL.SQTrackExpanded="0" MZ.TrackTargeted="0">
										<clipitem id="clipitem-1719">
											<masterclipid>masterclip-721</masterclipid>
											<name>clean.mov</name>
											<enabled>TRUE</enabled>
											<duration>225</duration>
											<rate>
												<timebase>25</timebase>
												<ntsc>FALSE</ntsc>
											</rate>
											<start>0</start>
											<end>-1</end>
											<in>0</in>
											<out>146</out>
											<pproTicksIn>0</pproTicksIn>
											<pproTicksOut>1483453440000</pproTicksOut>
											<alphatype>straight</alphatype>
											<pixelaspectratio>square</pixelaspectratio>
											<anamorphic>FALSE</anamorphic>
											<file id="file-599">
												<name>clean.mov</name>
												<pathurl>file://localhost/Volumes/1Tb/_MUZ_TV/graphika/RU-21/MOD/title_plashka/clean.mov</pathurl>
												<rate>
													<timebase>25</timebase>
													<ntsc>FALSE</ntsc>
												</rate>
												<duration>225</duration>
												<timecode>
													<rate>
														<timebase>25</timebase>
														<ntsc>FALSE</ntsc>
													</rate>
													<string>00:01:30:00</string>
													<frame>2250</frame>
													<displayformat>NDF</displayformat>
												</timecode>
												<media>
													<video>
														<samplecharacteristics>
															<rate>
																<timebase>25</timebase>
																<ntsc>FALSE</ntsc>
															</rate>
															<width>1920</width>
															<height>1080</height>
															<anamorphic>FALSE</anamorphic>
															<pixelaspectratio>square</pixelaspectratio>
															<fielddominance>none</fielddominance>
														</samplecharacteristics>
													</video>
												</media>
											</file>
											<filter>
												<effect>
													<name>Basic Motion</name>
													<effectid>basic</effectid>
													<effectcategory>motion</effectcategory>
													<effecttype>motion</effecttype>
													<mediatype>video</mediatype>
													<pproBypass>false</pproBypass>
													<parameter authoringApp="PremierePro">
														<parameterid>scale</parameterid>
														<name>Scale</name>
														<valuemin>0</valuemin>
														<valuemax>1000</valuemax>
														<value>55</value>
													</parameter>
													<parameter authoringApp="PremierePro">
														<parameterid>rotation</parameterid>
														<name>Rotation</name>
														<valuemin>-8640</valuemin>
														<valuemax>8640</valuemax>
														<value>0</value>
													</parameter>
													<parameter authoringApp="PremierePro">
														<parameterid>center</parameterid>
														<name>Center</name>
														<value>
															<horiz>0</horiz>
															<vert>0</vert>
														</value>
													</parameter>
													<parameter authoringApp="PremierePro">
														<parameterid>centerOffset</parameterid>
														<name>Anchor Point</name>
														<value>
															<horiz>0</horiz>
															<vert>0</vert>
														</value>
													</parameter>
													<parameter authoringApp="PremierePro">
														<parameterid>antiflicker</parameterid>
														<name>Anti-flicker Filter</name>
														<valuemin>0.0</valuemin>
														<valuemax>1.0</valuemax>
														<value>0</value>
													</parameter>
												</effect>
											</filter>
											<filter>
												<effect>
													<name>Distort</name>
													<effectid>deformation</effectid>
													<effectcategory>motion</effectcategory>
													<effecttype>motion</effecttype>
													<mediatype>video</mediatype>
													<parameter authoringApp="PremierePro">
														<parameterid>aspect</parameterid>
														<name>Aspect</name>
														<valuemin>-10000</valuemin>
														<valuemax>10000</valuemax>
														<value>-3.125</value>
													</parameter>
												</effect>
											</filter>
											<logginginfo>
												<description></description>
												<scene></scene>
												<shottake></shottake>
												<lognote></lognote>
												<good></good>
												<originalvideofilename></originalvideofilename>
												<originalaudiofilename></originalaudiofilename>
											</logginginfo>
											<colorinfo>
												<lut></lut>
												<lut1></lut1>
												<asc_sop></asc_sop>
												<asc_sat></asc_sat>
												<lut2></lut2>
											</colorinfo>
											<labels>
												<label2>Violet</label2>
											</labels>
										</clipitem>
										<transitionitem>
											<start>106</start>
											<end>146</end>
											<alignment>center</alignment>
											<cutPointTicks>203212800000</cutPointTicks>
											<rate>
												<timebase>25</timebase>
												<ntsc>FALSE</ntsc>
											</rate>
											<effect>
												<name>Cross Dissolve</name>
												<effectid>Cross Dissolve</effectid>
												<effectcategory>Dissolve</effectcategory>
												<effecttype>transition</effecttype>
												<mediatype>video</mediatype>
												<wipecode>0</wipecode>
												<wipeaccuracy>100</wipeaccuracy>
												<startratio>0</startratio>
												<endratio>1</endratio>
												<reverse>FALSE</reverse>
											</effect>
										</transitionitem>
										<clipitem id="clipitem-1720">
											<masterclipid>masterclip-721</masterclipid>
											<name>clean.mov</name>
											<enabled>TRUE</enabled>
											<duration>225</duration>
											<rate>
												<timebase>25</timebase>
												<ntsc>FALSE</ntsc>
											</rate>
											<start>-1</start>
											<end>170</end>
											<in>161</in>
											<out>225</out>
											<pproTicksIn>1635863040000</pproTicksIn>
											<pproTicksOut>2286144000000</pproTicksOut>
											<alphatype>straight</alphatype>
											<file id="file-599"/>
											<filter>
												<effect>
													<name>Basic Motion</name>
													<effectid>basic</effectid>
													<effectcategory>motion</effectcategory>
													<effecttype>motion</effecttype>
													<mediatype>video</mediatype>
													<pproBypass>false</pproBypass>
													<parameter authoringApp="PremierePro">
														<parameterid>scale</parameterid>
														<name>Scale</name>
														<valuemin>0</valuemin>
														<valuemax>1000</valuemax>
														<value>55</value>
													</parameter>
													<parameter authoringApp="PremierePro">
														<parameterid>rotation</parameterid>
														<name>Rotation</name>
														<valuemin>-8640</valuemin>
														<valuemax>8640</valuemax>
														<value>0</value>
													</parameter>
													<parameter authoringApp="PremierePro">
														<parameterid>center</parameterid>
														<name>Center</name>
														<value>
															<horiz>0</horiz>
															<vert>0</vert>
														</value>
													</parameter>
													<parameter authoringApp="PremierePro">
														<parameterid>centerOffset</parameterid>
														<name>Anchor Point</name>
														<value>
															<horiz>0</horiz>
															<vert>0</vert>
														</value>
													</parameter>
													<parameter authoringApp="PremierePro">
														<parameterid>antiflicker</parameterid>
														<name>Anti-flicker Filter</name>
														<valuemin>0.0</valuemin>
														<valuemax>1.0</valuemax>
														<value>0</value>
													</parameter>
												</effect>
											</filter>
											<filter>
												<effect>
													<name>Distort</name>
													<effectid>deformation</effectid>
													<effectcategory>motion</effectcategory>
													<effecttype>motion</effecttype>
													<mediatype>video</mediatype>
													<parameter authoringApp="PremierePro">
														<parameterid>aspect</parameterid>
														<name>Aspect</name>
														<valuemin>-10000</valuemin>
														<valuemax>10000</valuemax>
														<value>-3.125</value>
													</parameter>
												</effect>
											</filter>
											<logginginfo>
												<description></description>
												<scene></scene>
												<shottake></shottake>
												<lognote></lognote>
												<good></good>
												<originalvideofilename></originalvideofilename>
												<originalaudiofilename></originalaudiofilename>
											</logginginfo>
											<colorinfo>
												<lut></lut>
												<lut1></lut1>
												<asc_sop></asc_sop>
												<asc_sat></asc_sat>
												<lut2></lut2>
											</colorinfo>
											<labels>
												<label2>Violet</label2>
											</labels>
										</clipitem>
										<enabled>TRUE</enabled>
										<locked>FALSE</locked>
									</track>
									<track TL.SQTrackShy="0" TL.SQTrackExpandedHeight="25" TL.SQTrackExpanded="0" MZ.TrackTargeted="0">
										<transitionitem>
											<start>42</start>
											<end>99</end>
											<alignment>start-black</alignment>
											<cutPointTicks>0</cutPointTicks>
											<rate>
												<timebase>25</timebase>
												<ntsc>FALSE</ntsc>
											</rate>
											<effect>
												<name>Edge Wipe</name>
												<effectid>Edge Wipe</effectid>
												<effectcategory>Wipe</effectcategory>
												<effecttype>transition</effecttype>
												<mediatype>video</mediatype>
												<wipecode>2</wipecode>
												<wipeaccuracy>100</wipeaccuracy>
												<startratio>0</startratio>
												<endratio>1</endratio>
												<reverse>FALSE</reverse>
												<parameter authoringApp="PremierePro">
													<parameterid>directionofwipe</parameterid>
													<name>Angle</name>
													<valuemin>-360</valuemin>
													<valuemax>360</valuemax>
													<value>90</value>
												</parameter>
											</effect>
										</transitionitem>
										<clipitem id="clipitem-1721">
											<masterclipid>masterclip-722</masterclipid>
											<name>ХАБИБ</name>
											<enabled>TRUE</enabled>
											<duration>1080000</duration>
											<rate>
												<timebase>25</timebase>
												<ntsc>FALSE</ntsc>
											</rate>
											<start>-1</start>
											<end>-1</end>
											<in>89998</in>
											<out>90126</out>
											<pproTicksIn>914437278720000</pproTicksIn>
											<pproTicksOut>915737840640000</pproTicksOut>
											<alphatype>straight</alphatype>
											<pixelaspectratio>PAL-601</pixelaspectratio>
											<anamorphic>TRUE</anamorphic>
											<file id="file-600">
												<name>Graphic</name>
												<mediaSource>GraphicAndType</mediaSource>
												<rate>
													<timebase>30</timebase>
													<ntsc>TRUE</ntsc>
												</rate>
												<timecode>
													<rate>
														<timebase>30</timebase>
														<ntsc>TRUE</ntsc>
													</rate>
													<string>00;00;00;00</string>
													<frame>0</frame>
													<displayformat>DF</displayformat>
												</timecode>
												<media>
													<video>
														<samplecharacteristics>
															<rate>
																<timebase>30</timebase>
																<ntsc>TRUE</ntsc>
															</rate>
															<width>720</width>
															<height>576</height>
															<anamorphic>TRUE</anamorphic>
															<pixelaspectratio>PAL-601</pixelaspectratio>
															<fielddominance>none</fielddominance>
														</samplecharacteristics>
													</video>
												</media>
											</file>
											<filter>
												<effect>
													<name>Vector Motion</name>
													<effectid>GraphicGroup</effectid>
													<effectcategory>graphic</effectcategory>
													<effecttype>filter</effecttype>
													<mediatype>video</mediatype>
													<pproBypass>false</pproBypass>
													<parameter authoringApp="PremierePro">
														<parameterid>1</parameterid>
														<name>Position</name>
														<IsTimeVarying>false</IsTimeVarying>
														<value>-91445760000000000,0.52638888359069824:0.5,0,0,0,0,0,0,5,4,0,0,0,0</value>
													</parameter>
													<parameter authoringApp="PremierePro">
														<parameterid>2</parameterid>
														<name>Scale</name>
														<IsTimeVarying>false</IsTimeVarying>
														<ParameterControlType>2</ParameterControlType>
														<LowerBound>0</LowerBound>
														<UpperBound>10000</UpperBound>
														<UpperUIBound>200</UpperUIBound>
														<value>-91445760000000000,100.,0,0,0,0,0,0</value>
													</parameter>
													<parameter authoringApp="PremierePro">
														<parameterid>3</parameterid>
														<name>Scale Width</name>
														<IsTimeVarying>false</IsTimeVarying>
														<ParameterControlType>2</ParameterControlType>
														<LowerBound>0</LowerBound>
														<UpperBound>10000</UpperBound>
														<UpperUIBound>200</UpperUIBound>
														<value>-91445760000000000,100.,0,0,0,0,0,0</value>
													</parameter>
													<parameter authoringApp="PremierePro">
														<parameterid>4</parameterid>
														<name> </name>
														<IsTimeVarying>false</IsTimeVarying>
														<ParameterControlType>4</ParameterControlType>
														<LowerBound>false</LowerBound>
														<UpperBound>true</UpperBound>
														<value>-91445760000000000,true,0,0,0,0,0,0</value>
													</parameter>
													<parameter authoringApp="PremierePro">
														<parameterid>5</parameterid>
														<name>Rotation</name>
														<IsTimeVarying>false</IsTimeVarying>
														<ParameterControlType>3</ParameterControlType>
														<LowerBound>-32768</LowerBound>
														<UpperBound>32767</UpperBound>
														<value>-91445760000000000,0.,0,0,0,0,0,0</value>
													</parameter>
													<parameter authoringApp="PremierePro">
														<parameterid>6</parameterid>
														<name>Anchor Point</name>
														<IsTimeVarying>false</IsTimeVarying>
														<value>-91445760000000000,0.5:0.5,0,0,0,0,0,0,5,4,0,0,0,0</value>
													</parameter>
												</effect>
											</filter>
											<filter>
												<effect>
													<name>ХАБИБ</name>
													<effectid>GraphicAndType</effectid>
													<effectcategory>graphic</effectcategory>
													<effecttype>filter</effecttype>
													<mediatype>video</mediatype>
													<pproBypass>false</pproBypass>
													<pproExpanded>true</pproExpanded>
													<parameter authoringApp="PremierePro">
														<parameterid>1</parameterid>
														<name>Source Text</name>
														<hash>9a7a77cd-c5c8-9e72-c89d-9ede00000140</hash>
														<value>KAEAAAAAAABEMyIREAAAAAwAEAAEAAAACAAMAAwAAABEAAAACAAAABAAAAAAAAAACAAaAAQADAAIAAAAchZpxUj4VkD+SJX5AAAAsQAAAAAAABIAEAAIAAQAAAAAAAAAAAAMABIAAAAYAAAAMAAAAAAAgD9Y////XP///2D///8BAAAABAAAAA8AAABNb250c2VycmF0LUJvbGQAAQAAAAwAAAAIAAwABAAIAAgAAAB0AAAANAAAADAAGAAAABQAAAAAABAAAAAMAAAAAAAAAAgAAAAAAAAAAAAAAAAAAAAAAAAAAAAEADAAAAAYAAAAAACAv5qZmT8cAAAAAACAQQQABgAEAAAAAAAKAAgABQAGAAcACgAAAADl5eUEAAQABAAAAAoAAADQpdCQ0JHQmNCRAAA=</value>
													</parameter>
													<parameter authoringApp="PremierePro">
														<parameterid>2</parameterid>
														<name>Transform</name>
														<IsTimeVarying>false</IsTimeVarying>
														<ParameterControlType>11</ParameterControlType>
														<LowerBound>false</LowerBound>
														<UpperBound>false</UpperBound>
														<value>-91445760000000000,false,0,0,0,0,0,0</value>
													</parameter>
													<parameter authoringApp="PremierePro">
														<parameterid>3</parameterid>
														<name>Position</name>
														<IsTimeVarying>false</IsTimeVarying>
														<value>-91445760000000000,0.250030517578125:0.878631591796875,0,0,0,0,0,0,5,4,0,0,0,0</value>
													</parameter>
													<parameter authoringApp="PremierePro">
														<parameterid>4</parameterid>
														<name>Scale</name>
														<IsTimeVarying>false</IsTimeVarying>
														<ParameterControlType>2</ParameterControlType>
														<LowerBound>0</LowerBound>
														<UpperBound>4000</UpperBound>
														<value>-91445760000000000,100.,0,0,0,0,0,0</value>
													</parameter>
													<parameter authoringApp="PremierePro">
														<parameterid>5</parameterid>
														<name>Horizontal Scale</name>
														<IsTimeVarying>false</IsTimeVarying>
														<ParameterControlType>2</ParameterControlType>
														<LowerBound>0</LowerBound>
														<UpperBound>4000</UpperBound>
														<value>-91445760000000000,100.,0,0,0,0,0,0</value>
													</parameter>
													<parameter authoringApp="PremierePro">
														<parameterid>6</parameterid>
														<name> </name>
														<IsTimeVarying>false</IsTimeVarying>
														<ParameterControlType>4</ParameterControlType>
														<LowerBound>false</LowerBound>
														<UpperBound>true</UpperBound>
														<value>-91445760000000000,true,0,0,0,0,0,0</value>
													</parameter>
													<parameter authoringApp="PremierePro">
														<parameterid>7</parameterid>
														<name>Rotation</name>
														<IsTimeVarying>false</IsTimeVarying>
														<ParameterControlType>3</ParameterControlType>
														<LowerBound>-32768</LowerBound>
														<UpperBound>32767</UpperBound>
														<value>-91445760000000000,0.,0,0,0,0,0,0</value>
													</parameter>
													<parameter authoringApp="PremierePro">
														<parameterid>8</parameterid>
														<name>Opacity</name>
														<IsTimeVarying>false</IsTimeVarying>
														<ParameterControlType>2</ParameterControlType>
														<LowerBound>0</LowerBound>
														<UpperBound>100</UpperBound>
														<value>-91445760000000000,100.,0,0,0,0,0,0</value>
													</parameter>
													<parameter authoringApp="PremierePro">
														<parameterid>9</parameterid>
														<name>Anchor Point</name>
														<IsTimeVarying>false</IsTimeVarying>
														<value>-91445760000000000,0:0,0,0,0,0,0,0,5,4,0,0,0,0</value>
													</parameter>
													<parameter authoringApp="PremierePro">
														<parameterid>10</parameterid>
														<name></name>
														<IsTimeVarying>false</IsTimeVarying>
														<ParameterControlType>12</ParameterControlType>
														<LowerBound>false</LowerBound>
														<UpperBound>false</UpperBound>
														<value>-91445760000000000,false,0,0,0,0,0,0</value>
													</parameter>
													<parameter authoringApp="PremierePro">
														<parameterid>11</parameterid>
														<name> </name>
														<IsTimeVarying>false</IsTimeVarying>
														<ParameterControlType>8</ParameterControlType>
														<LowerBound>0</LowerBound>
														<UpperBound>32768</UpperBound>
														<value>-91445760000000000,0.,0,0,0,0,0,0</value>
													</parameter>
													<parameter authoringApp="PremierePro">
														<parameterid>12</parameterid>
														<name> </name>
														<IsTimeVarying>false</IsTimeVarying>
														<ParameterControlType>8</ParameterControlType>
														<LowerBound>0</LowerBound>
														<UpperBound>32768</UpperBound>
														<value>-91445760000000000,0.,0,0,0,0,0,0</value>
													</parameter>
													<parameter authoringApp="PremierePro">
														<parameterid>13</parameterid>
														<name>start</name>
														<IsTimeVarying>false</IsTimeVarying>
														<ParameterControlType>8</ParameterControlType>
														<LowerBound>-100</LowerBound>
														<UpperBound>1000000000</UpperBound>
														<value>-91445760000000000,5.,0,0,0,0,0,0</value>
													</parameter>
													<parameter authoringApp="PremierePro">
														<parameterid>14</parameterid>
														<name>end</name>
														<IsTimeVarying>false</IsTimeVarying>
														<ParameterControlType>8</ParameterControlType>
														<LowerBound>-100</LowerBound>
														<UpperBound>1000000000</UpperBound>
														<value>-91445760000000000,5.,0,0,0,0,0,0</value>
													</parameter>
													<parameter authoringApp="PremierePro">
														<parameterid>15</parameterid>
														<name> </name>
														<IsTimeVarying>false</IsTimeVarying>
														<ParameterControlType>4</ParameterControlType>
														<LowerBound>false</LowerBound>
														<UpperBound>true</UpperBound>
														<value>-91445760000000000,false,0,0,0,0,0,0</value>
													</parameter>
													<parameter authoringApp="PremierePro">
														<parameterid>16</parameterid>
														<name> </name>
														<IsTimeVarying>false</IsTimeVarying>
														<ParameterControlType>4</ParameterControlType>
														<LowerBound>false</LowerBound>
														<UpperBound>true</UpperBound>
														<value>-91445760000000000,false,0,0,0,0,0,0</value>
													</parameter>
													<parameter authoringApp="PremierePro">
														<parameterid>17</parameterid>
														<name> </name>
														<IsTimeVarying>false</IsTimeVarying>
														<ParameterControlType>4</ParameterControlType>
														<LowerBound>false</LowerBound>
														<UpperBound>true</UpperBound>
														<value>-91445760000000000,false,0,0,0,0,0,0</value>
													</parameter>
													<parameter authoringApp="PremierePro">
														<parameterid>18</parameterid>
														<name> </name>
														<IsTimeVarying>false</IsTimeVarying>
														<ParameterControlType>4</ParameterControlType>
														<LowerBound>false</LowerBound>
														<UpperBound>true</UpperBound>
														<value>-91445760000000000,false,0,0,0,0,0,0</value>
													</parameter>
													<parameter authoringApp="PremierePro">
														<parameterid>19</parameterid>
														<name>Parent Width</name>
														<IsTimeVarying>false</IsTimeVarying>
														<ParameterControlType>2</ParameterControlType>
														<LowerBound>0</LowerBound>
														<UpperBound>20000</UpperBound>
														<value>-91445760000000000,0.,0,0,0,0,0,0</value>
													</parameter>
													<parameter authoringApp="PremierePro">
														<parameterid>20</parameterid>
														<name>Parent Height</name>
														<IsTimeVarying>false</IsTimeVarying>
														<ParameterControlType>2</ParameterControlType>
														<LowerBound>0</LowerBound>
														<UpperBound>20000</UpperBound>
														<value>-91445760000000000,0.,0,0,0,0,0,0</value>
													</parameter>
													<parameter authoringApp="PremierePro">
														<parameterid>21</parameterid>
														<name>Parent Rotation</name>
														<IsTimeVarying>false</IsTimeVarying>
														<ParameterControlType>3</ParameterControlType>
														<LowerBound>-32768</LowerBound>
														<UpperBound>32767</UpperBound>
														<value>-91445760000000000,0.,0,0,0,0,0,0</value>
													</parameter>
												</effect>
											</filter>
											<logginginfo>
												<description></description>
												<scene></scene>
												<shottake></shottake>
												<lognote></lognote>
												<good></good>
												<originalvideofilename></originalvideofilename>
												<originalaudiofilename></originalaudiofilename>
											</logginginfo>
											<colorinfo>
												<lut></lut>
												<lut1></lut1>
												<asc_sop></asc_sop>
												<asc_sat></asc_sat>
												<lut2></lut2>
											</colorinfo>
										</clipitem>
										<transitionitem>
											<start>148</start>
											<end>170</end>
											<alignment>end-black</alignment>
											<cutPointTicks>223534080000</cutPointTicks>
											<rate>
												<timebase>25</timebase>
												<ntsc>FALSE</ntsc>
											</rate>
											<effect>
												<name>Edge Wipe</name>
												<effectid>Edge Wipe</effectid>
												<effectcategory>Wipe</effectcategory>
												<effecttype>transition</effecttype>
												<mediatype>video</mediatype>
												<wipecode>2</wipecode>
												<wipeaccuracy>100</wipeaccuracy>
												<startratio>0</startratio>
												<endratio>1</endratio>
												<reverse>FALSE</reverse>
												<parameter authoringApp="PremierePro">
													<parameterid>directionofwipe</parameterid>
													<name>Angle</name>
													<valuemin>-360</valuemin>
													<valuemax>360</valuemax>
													<value>90</value>
												</parameter>
											</effect>
										</transitionitem>
										<enabled>TRUE</enabled>
										<locked>FALSE</locked>
									</track>
								</video>
								<audio>
									<numOutputChannels>2</numOutputChannels>
									<format>
										<samplecharacteristics>
											<depth>16</depth>
											<samplerate>48000</samplerate>
										</samplecharacteristics>
									</format>
									<outputs>
										<group>
											<index>1</index>
											<numchannels>1</numchannels>
											<downmix>0</downmix>
											<channel>
												<index>1</index>
											</channel>
										</group>
										<group>
											<index>2</index>
											<numchannels>1</numchannels>
											<downmix>0</downmix>
											<channel>
												<index>2</index>
											</channel>
										</group>
									</outputs>
									<track TL.SQTrackAudioKeyframeStyle="0" TL.SQTrackShy="0" TL.SQTrackExpandedHeight="25" TL.SQTrackExpanded="0" MZ.TrackTargeted="1" PannerCurrentValue="0.5" PannerIsInverted="true" PannerStartKeyframe="-91445760000000000,0.5,0,0,0,0,0,0" PannerName="Balance" currentExplodedTrackIndex="0" totalExplodedTrackCount="2" premiereTrackType="Stereo">
										<enabled>TRUE</enabled>
										<locked>FALSE</locked>
										<outputchannelindex>1</outputchannelindex>
									</track>
									<track TL.SQTrackAudioKeyframeStyle="0" TL.SQTrackShy="0" TL.SQTrackExpandedHeight="25" TL.SQTrackExpanded="0" MZ.TrackTargeted="1" PannerCurrentValue="0.5" PannerIsInverted="true" PannerStartKeyframe="-91445760000000000,0.5,0,0,0,0,0,0" PannerName="Balance" currentExplodedTrackIndex="1" totalExplodedTrackCount="2" premiereTrackType="Stereo">
										<enabled>TRUE</enabled>
										<locked>FALSE</locked>
										<outputchannelindex>2</outputchannelindex>
									</track>
								</audio>
							</media>
							<timecode>
								<rate>
									<timebase>25</timebase>
									<ntsc>FALSE</ntsc>
								</rate>
								<string>00:00:00:00</string>
								<frame>0</frame>
								<displayformat>NDF</displayformat>
							</timecode>
								<marker>
									<comment></comment>
									<name></name>
									<in>57</in>
									<out>-1</out>
									<pproColor>4294741314</pproColor>
								</marker>
							<logginginfo>
								<description></description>
								<scene></scene>
								<shottake></shottake>
								<lognote></lognote>
								<good></good>
								<originalvideofilename></originalvideofilename>
								<originalaudiofilename></originalaudiofilename>
							</logginginfo>
						</sequence>
						<filter>
							<effect>
								<name>Opacity</name>
								<effectid>opacity</effectid>
								<effectcategory>motion</effectcategory>
								<effecttype>motion</effecttype>
								<mediatype>video</mediatype>
								<pproBypass>false</pproBypass>
								<parameter authoringApp="PremierePro">
									<parameterid>opacity</parameterid>
									<name>opacity</name>
									<valuemin>0</valuemin>
									<valuemax>100</valuemax>
									<value>100</value>
								</parameter>
							</effect>
						</filter>
							<marker>
								<comment></comment>
								<name></name>
								<in>57</in>
								<out>-1</out>
								<pproColor>4294741314</pproColor>
							</marker>
						<labels>
							<label2>Forest</label2>
						</labels>
					</clipitem>
					<clipitem id="clipitem-1722">
						<masterclipid>masterclip-723</masterclipid>
						<name>12_TITLE</name>
						<enabled>TRUE</enabled>
						<duration>475</duration>
						<rate>
							<timebase>25</timebase>
							<ntsc>FALSE</ntsc>
						</rate>
						<start>884</start>
						<end>1234</end>
						<in>0</in>
						<out>475</out>
						<pproTicksIn>0</pproTicksIn>
						<pproTicksOut>4826304000000</pproTicksOut>
						<sequence id="sequence-133" TL.SQAudioVisibleBase="0" TL.SQVideoVisibleBase="0" TL.SQVisibleBaseTime="0" TL.SQAVDividerPosition="0.5" TL.SQHideShyTracks="0" TL.SQHeaderWidth="236" TL.SQDataTrackViewControlState="0" Monitor.ProgramZoomOut="4826304000000" Monitor.ProgramZoomIn="0" TL.SQTimePerPixel="0.024999999999999998" AM.TrackVScrollPosition="0" AM.TrackScrollPosition="0" MZ.EditLine="1473292800000" MZ.Sequence.PreviewFrameSizeHeight="576" MZ.Sequence.PreviewFrameSizeWidth="720" MZ.Sequence.AudioTimeDisplayFormat="200" MZ.Sequence.PreviewRenderingClassID="1061109567" MZ.Sequence.PreviewRenderingPresetCodec="1685480304" MZ.Sequence.PreviewRenderingPresetPath="EncoderPresets/SequencePreview/04be6e19-a018-4e0c-a9d6-0ab44c64752b/QuickTime DV PAL.epr" MZ.Sequence.PreviewUseMaxRenderQuality="false" MZ.Sequence.PreviewUseMaxBitDepth="false" MZ.Sequence.EditingModeGUID="04be6e19-a018-4e0c-a9d6-0ab44c64752b" MZ.Sequence.VideoTimeDisplayFormat="101" MZ.WorkOutPoint="4826304000000" MZ.WorkInPoint="0" MZ.ZeroPoint="0">
							<duration>475</duration>
							<rate>
								<timebase>25</timebase>
								<ntsc>FALSE</ntsc>
							</rate>
							<name>титр</name>
							<media>
								<video>
									<format>
										<samplecharacteristics>
											<rate>
												<timebase>25</timebase>
												<ntsc>FALSE</ntsc>
											</rate>
											<codec>
												<name>Apple ProRes 422</name>
												<appspecificdata>
													<appname>Final Cut Pro</appname>
													<appmanufacturer>Apple Inc.</appmanufacturer>
													<appversion>7.0</appversion>
													<data>
														<qtcodec>
															<codecname>Apple ProRes 422</codecname>
															<codectypename>Apple ProRes 422</codectypename>
															<codectypecode>apcn</codectypecode>
															<codecvendorcode>appl</codecvendorcode>
															<spatialquality>1024</spatialquality>
															<temporalquality>0</temporalquality>
															<keyframerate>0</keyframerate>
															<datarate>0</datarate>
														</qtcodec>
													</data>
												</appspecificdata>
											</codec>
											<width>720</width>
											<height>576</height>
											<anamorphic>TRUE</anamorphic>
											<pixelaspectratio>PAL-601</pixelaspectratio>
											<fielddominance>lower</fielddominance>
											<colordepth>24</colordepth>
										</samplecharacteristics>
									</format>
									<track TL.SQTrackShy="0" TL.SQTrackExpandedHeight="25" TL.SQTrackExpanded="0" MZ.TrackTargeted="1">
										<clipitem id="clipitem-1723">
											<masterclipid>masterclip-724</masterclipid>
											<name>9_title.mov</name>
											<enabled>TRUE</enabled>
											<duration>225</duration>
											<rate>
												<timebase>25</timebase>
												<ntsc>FALSE</ntsc>
											</rate>
											<start>125</start>
											<end>350</end>
											<in>0</in>
											<out>225</out>
											<pproTicksIn>0</pproTicksIn>
											<pproTicksOut>2286144000000</pproTicksOut>
											<alphatype>straight</alphatype>
											<pixelaspectratio>square</pixelaspectratio>
											<anamorphic>FALSE</anamorphic>
											<file id="file-601">
												<name>0_title.mov</name>
												<pathurl>file://localhost/_MUZ_TV/graphika/RU-21/MOD/title_plashka/0_title.mov</pathurl>
												<rate>
													<timebase>25</timebase>
													<ntsc>FALSE</ntsc>
												</rate>
												<duration>225</duration>
												<timecode>
													<rate>
														<timebase>25</timebase>
														<ntsc>FALSE</ntsc>
													</rate>
													<string>00:00:01:00</string>
													<frame>25</frame>
													<displayformat>NDF</displayformat>
												</timecode>
												<media>
													<video>
														<samplecharacteristics>
															<rate>
																<timebase>25</timebase>
																<ntsc>FALSE</ntsc>
															</rate>
															<width>1920</width>
															<height>1080</height>
															<anamorphic>FALSE</anamorphic>
															<pixelaspectratio>square</pixelaspectratio>
															<fielddominance>none</fielddominance>
														</samplecharacteristics>
													</video>
												</media>
											</file>
											<filter>
												<effect>
													<name>Basic Motion</name>
													<effectid>basic</effectid>
													<effectcategory>motion</effectcategory>
													<effecttype>motion</effecttype>
													<mediatype>video</mediatype>
													<pproBypass>false</pproBypass>
													<parameter authoringApp="PremierePro">
														<parameterid>scale</parameterid>
														<name>Scale</name>
														<valuemin>0</valuemin>
														<valuemax>1000</valuemax>
														<value>55</value>
													</parameter>
													<parameter authoringApp="PremierePro">
														<parameterid>rotation</parameterid>
														<name>Rotation</name>
														<valuemin>-8640</valuemin>
														<valuemax>8640</valuemax>
														<value>0</value>
													</parameter>
													<parameter authoringApp="PremierePro">
														<parameterid>center</parameterid>
														<name>Center</name>
														<value>
															<horiz>0</horiz>
															<vert>0</vert>
														</value>
													</parameter>
													<parameter authoringApp="PremierePro">
														<parameterid>centerOffset</parameterid>
														<name>Anchor Point</name>
														<value>
															<horiz>0</horiz>
															<vert>0</vert>
														</value>
													</parameter>
													<parameter authoringApp="PremierePro">
														<parameterid>antiflicker</parameterid>
														<name>Anti-flicker Filter</name>
														<valuemin>0.0</valuemin>
														<valuemax>1.0</valuemax>
														<value>0</value>
													</parameter>
												</effect>
											</filter>
											<filter>
												<effect>
													<name>Distort</name>
													<effectid>deformation</effectid>
													<effectcategory>motion</effectcategory>
													<effecttype>motion</effecttype>
													<mediatype>video</mediatype>
													<parameter authoringApp="PremierePro">
														<parameterid>aspect</parameterid>
														<name>Aspect</name>
														<valuemin>-10000</valuemin>
														<valuemax>10000</valuemax>
														<value>-3.12506</value>
													</parameter>
												</effect>
											</filter>
											<logginginfo>
												<description></description>
												<scene></scene>
												<shottake></shottake>
												<lognote></lognote>
												<good></good>
												<originalvideofilename></originalvideofilename>
												<originalaudiofilename></originalaudiofilename>
											</logginginfo>
											<colorinfo>
												<lut></lut>
												<lut1></lut1>
												<asc_sop></asc_sop>
												<asc_sat></asc_sat>
												<lut2></lut2>
											</colorinfo>
											<labels>
												<label2>Violet</label2>
											</labels>
										</clipitem>
										<clipitem id="clipitem-1724">
											<masterclipid>masterclip-725</masterclipid>
											<name>Graphic</name>
											<enabled>FALSE</enabled>
											<duration>1080000</duration>
											<rate>
												<timebase>25</timebase>
												<ntsc>FALSE</ntsc>
											</rate>
											<start>350</start>
											<end>475</end>
											<in>90000</in>
											<out>90125</out>
											<pproTicksIn>914457600000000</pproTicksIn>
											<pproTicksOut>915727680000000</pproTicksOut>
											<alphatype>straight</alphatype>
											<pixelaspectratio>PAL-601</pixelaspectratio>
											<anamorphic>TRUE</anamorphic>
											<file id="file-602">
												<name>Graphic</name>
												<mediaSource>GraphicAndType</mediaSource>
												<rate>
													<timebase>30</timebase>
													<ntsc>TRUE</ntsc>
												</rate>
												<timecode>
													<rate>
														<timebase>30</timebase>
														<ntsc>TRUE</ntsc>
													</rate>
													<string>00;00;00;00</string>
													<frame>0</frame>
													<displayformat>DF</displayformat>
												</timecode>
												<media>
													<video>
														<samplecharacteristics>
															<rate>
																<timebase>30</timebase>
																<ntsc>TRUE</ntsc>
															</rate>
															<width>720</width>
															<height>576</height>
															<anamorphic>TRUE</anamorphic>
															<pixelaspectratio>PAL-601</pixelaspectratio>
															<fielddominance>none</fielddominance>
														</samplecharacteristics>
													</video>
												</media>
											</file>
											<filter>
												<effect>
													<name>Basic Motion</name>
													<effectid>basic</effectid>
													<effectcategory>motion</effectcategory>
													<effecttype>motion</effecttype>
													<mediatype>video</mediatype>
													<pproBypass>false</pproBypass>
													<parameter authoringApp="PremierePro">
														<parameterid>scale</parameterid>
														<name>Scale</name>
														<valuemin>0</valuemin>
														<valuemax>1000</valuemax>
														<value>133.333</value>
													</parameter>
													<parameter authoringApp="PremierePro">
														<parameterid>rotation</parameterid>
														<name>Rotation</name>
														<valuemin>-8640</valuemin>
														<valuemax>8640</valuemax>
														<value>0</value>
													</parameter>
													<parameter authoringApp="PremierePro">
														<parameterid>center</parameterid>
														<name>Center</name>
														<value>
															<horiz>0</horiz>
															<vert>0</vert>
														</value>
													</parameter>
													<parameter authoringApp="PremierePro">
														<parameterid>centerOffset</parameterid>
														<name>Anchor Point</name>
														<value>
															<horiz>0</horiz>
															<vert>0</vert>
														</value>
													</parameter>
													<parameter authoringApp="PremierePro">
														<parameterid>antiflicker</parameterid>
														<name>Anti-flicker Filter</name>
														<valuemin>0.0</valuemin>
														<valuemax>1.0</valuemax>
														<value>0</value>
													</parameter>
												</effect>
											</filter>
											<filter>
												<effect>
													<name>Distort</name>
													<effectid>deformation</effectid>
													<effectcategory>motion</effectcategory>
													<effecttype>motion</effecttype>
													<mediatype>video</mediatype>
													<parameter authoringApp="PremierePro">
														<parameterid>aspect</parameterid>
														<name>Aspect</name>
														<valuemin>-10000</valuemin>
														<valuemax>10000</valuemax>
														<value>-33.333</value>
													</parameter>
												</effect>
											</filter>
											<filter>
												<effect>
													<name></name>
													<effectid>GraphicAndType</effectid>
													<effectcategory>graphic</effectcategory>
													<effecttype>filter</effecttype>
													<mediatype>video</mediatype>
													<pproBypass>false</pproBypass>
													<parameter authoringApp="PremierePro">
														<parameterid>1</parameterid>
														<name>Source Text</name>
														<hash>3f0faa81-c1b0-8370-b66c-fa0b000009f1</hash>
													</parameter>
													<parameter authoringApp="PremierePro">
														<parameterid>2</parameterid>
														<name>Transform</name>
														<IsTimeVarying>false</IsTimeVarying>
														<ParameterControlType>11</ParameterControlType>
														<LowerBound>false</LowerBound>
														<UpperBound>false</UpperBound>
														<value>-91445760000000000,false,0,0,0,0,0,0</value>
													</parameter>
													<parameter authoringApp="PremierePro">
														<parameterid>3</parameterid>
														<name>Position</name>
														<IsTimeVarying>false</IsTimeVarying>
														<value>-91445760000000000,0.55605381727218628:0.73039215803146362,0,0,0,0,0,0,5,4,0,0,0,0</value>
													</parameter>
													<parameter authoringApp="PremierePro">
														<parameterid>4</parameterid>
														<name>Scale</name>
														<IsTimeVarying>false</IsTimeVarying>
														<ParameterControlType>2</ParameterControlType>
														<LowerBound>0</LowerBound>
														<UpperBound>4000</UpperBound>
														<value>-91445760000000000,100.,0,0,0,0,0,0</value>
													</parameter>
													<parameter authoringApp="PremierePro">
														<parameterid>5</parameterid>
														<name>Horizontal Scale</name>
														<IsTimeVarying>false</IsTimeVarying>
														<ParameterControlType>2</ParameterControlType>
														<LowerBound>0</LowerBound>
														<UpperBound>4000</UpperBound>
														<value>-91445760000000000,100.,0,0,0,0,0,0</value>
													</parameter>
													<parameter authoringApp="PremierePro">
														<parameterid>6</parameterid>
														<name> </name>
														<IsTimeVarying>false</IsTimeVarying>
														<ParameterControlType>4</ParameterControlType>
														<LowerBound>false</LowerBound>
														<UpperBound>true</UpperBound>
														<value>-91445760000000000,true,0,0,0,0,0,0</value>
													</parameter>
													<parameter authoringApp="PremierePro">
														<parameterid>7</parameterid>
														<name>Rotation</name>
														<IsTimeVarying>false</IsTimeVarying>
														<ParameterControlType>3</ParameterControlType>
														<LowerBound>-32768</LowerBound>
														<UpperBound>32767</UpperBound>
														<value>-91445760000000000,0.,0,0,0,0,0,0</value>
													</parameter>
													<parameter authoringApp="PremierePro">
														<parameterid>8</parameterid>
														<name>Opacity</name>
														<IsTimeVarying>false</IsTimeVarying>
														<ParameterControlType>2</ParameterControlType>
														<LowerBound>0</LowerBound>
														<UpperBound>100</UpperBound>
														<value>-91445760000000000,100.,0,0,0,0,0,0</value>
													</parameter>
													<parameter authoringApp="PremierePro">
														<parameterid>9</parameterid>
														<name>Anchor Point</name>
														<IsTimeVarying>false</IsTimeVarying>
														<value>-91445760000000000,0:0,0,0,0,0,0,0,5,4,0,0,0,0</value>
													</parameter>
													<parameter authoringApp="PremierePro">
														<parameterid>10</parameterid>
														<name></name>
														<IsTimeVarying>false</IsTimeVarying>
														<ParameterControlType>12</ParameterControlType>
														<LowerBound>false</LowerBound>
														<UpperBound>false</UpperBound>
														<value>-91445760000000000,false,0,0,0,0,0,0</value>
													</parameter>
													<parameter authoringApp="PremierePro">
														<parameterid>11</parameterid>
														<name> </name>
														<IsTimeVarying>false</IsTimeVarying>
														<ParameterControlType>8</ParameterControlType>
														<LowerBound>0</LowerBound>
														<UpperBound>32768</UpperBound>
														<value>-91445760000000000,0.,0,0,0,0,0,0</value>
													</parameter>
													<parameter authoringApp="PremierePro">
														<parameterid>12</parameterid>
														<name> </name>
														<IsTimeVarying>false</IsTimeVarying>
														<ParameterControlType>8</ParameterControlType>
														<LowerBound>0</LowerBound>
														<UpperBound>32768</UpperBound>
														<value>-91445760000000000,0.,0,0,0,0,0,0</value>
													</parameter>
													<parameter authoringApp="PremierePro">
														<parameterid>13</parameterid>
														<name>start</name>
														<IsTimeVarying>false</IsTimeVarying>
														<ParameterControlType>8</ParameterControlType>
														<LowerBound>-100</LowerBound>
														<UpperBound>1000000000</UpperBound>
														<value>-91445760000000000,0.,0,0,0,0,0,0</value>
													</parameter>
													<parameter authoringApp="PremierePro">
														<parameterid>14</parameterid>
														<name>end</name>
														<IsTimeVarying>false</IsTimeVarying>
														<ParameterControlType>8</ParameterControlType>
														<LowerBound>-100</LowerBound>
														<UpperBound>1000000000</UpperBound>
														<value>-91445760000000000,0.,0,0,0,0,0,0</value>
													</parameter>
													<parameter authoringApp="PremierePro">
														<parameterid>15</parameterid>
														<name> </name>
														<IsTimeVarying>false</IsTimeVarying>
														<ParameterControlType>4</ParameterControlType>
														<LowerBound>false</LowerBound>
														<UpperBound>true</UpperBound>
														<value>-91445760000000000,false,0,0,0,0,0,0</value>
													</parameter>
													<parameter authoringApp="PremierePro">
														<parameterid>16</parameterid>
														<name> </name>
														<IsTimeVarying>false</IsTimeVarying>
														<ParameterControlType>4</ParameterControlType>
														<LowerBound>false</LowerBound>
														<UpperBound>true</UpperBound>
														<value>-91445760000000000,false,0,0,0,0,0,0</value>
													</parameter>
													<parameter authoringApp="PremierePro">
														<parameterid>17</parameterid>
														<name> </name>
														<IsTimeVarying>false</IsTimeVarying>
														<ParameterControlType>4</ParameterControlType>
														<LowerBound>false</LowerBound>
														<UpperBound>true</UpperBound>
														<value>-91445760000000000,false,0,0,0,0,0,0</value>
													</parameter>
													<parameter authoringApp="PremierePro">
														<parameterid>18</parameterid>
														<name> </name>
														<IsTimeVarying>false</IsTimeVarying>
														<ParameterControlType>4</ParameterControlType>
														<LowerBound>false</LowerBound>
														<UpperBound>true</UpperBound>
														<value>-91445760000000000,false,0,0,0,0,0,0</value>
													</parameter>
													<parameter authoringApp="PremierePro">
														<parameterid>19</parameterid>
														<name>Parent Width</name>
														<IsTimeVarying>false</IsTimeVarying>
														<ParameterControlType>2</ParameterControlType>
														<LowerBound>0</LowerBound>
														<UpperBound>20000</UpperBound>
														<value>-91445760000000000,0.,0,0,0,0,0,0</value>
													</parameter>
													<parameter authoringApp="PremierePro">
														<parameterid>20</parameterid>
														<name>Parent Height</name>
														<IsTimeVarying>false</IsTimeVarying>
														<ParameterControlType>2</ParameterControlType>
														<LowerBound>0</LowerBound>
														<UpperBound>20000</UpperBound>
														<value>-91445760000000000,0.,0,0,0,0,0,0</value>
													</parameter>
													<parameter authoringApp="PremierePro">
														<parameterid>21</parameterid>
														<name>Parent Rotation</name>
														<IsTimeVarying>false</IsTimeVarying>
														<ParameterControlType>3</ParameterControlType>
														<LowerBound>-32768</LowerBound>
														<UpperBound>32767</UpperBound>
														<value>-91445760000000000,0.,0,0,0,0,0,0</value>
													</parameter>
												</effect>
											</filter>
											<logginginfo>
												<description></description>
												<scene></scene>
												<shottake></shottake>
												<lognote></lognote>
												<good></good>
												<originalvideofilename></originalvideofilename>
												<originalaudiofilename></originalaudiofilename>
											</logginginfo>
											<colorinfo>
												<lut></lut>
												<lut1></lut1>
												<asc_sop></asc_sop>
												<asc_sat></asc_sat>
												<lut2></lut2>
											</colorinfo>
										</clipitem>
										<enabled>TRUE</enabled>
										<locked>FALSE</locked>
									</track>
									<track TL.SQTrackShy="0" TL.SQTrackExpandedHeight="25" TL.SQTrackExpanded="0" MZ.TrackTargeted="0">
										<transitionitem>
											<start>167</start>
											<end>224</end>
											<alignment>start-black</alignment>
											<cutPointTicks>0</cutPointTicks>
											<rate>
												<timebase>25</timebase>
												<ntsc>FALSE</ntsc>
											</rate>
											<effect>
												<name>Edge Wipe</name>
												<effectid>Edge Wipe</effectid>
												<effectcategory>Wipe</effectcategory>
												<effecttype>transition</effecttype>
												<mediatype>video</mediatype>
												<wipecode>2</wipecode>
												<wipeaccuracy>100</wipeaccuracy>
												<startratio>0</startratio>
												<endratio>1</endratio>
												<reverse>FALSE</reverse>
												<parameter authoringApp="PremierePro">
													<parameterid>directionofwipe</parameterid>
													<name>Angle</name>
													<valuemin>-360</valuemin>
													<valuemax>360</valuemax>
													<value>90</value>
												</parameter>
											</effect>
										</transitionitem>
										<clipitem id="clipitem-1725">
											<masterclipid>masterclip-726</masterclipid>
											<name>9.png</name>
											<enabled>TRUE</enabled>
											<duration>1080000</duration>
											<rate>
												<timebase>25</timebase>
												<ntsc>FALSE</ntsc>
											</rate>
											<start>-1</start>
											<end>-1</end>
											<in>90042</in>
											<out>90225</out>
											<pproTicksIn>914884346880000</pproTicksIn>
											<pproTicksOut>916743744000000</pproTicksOut>
											<alphatype>straight</alphatype>
											<pixelaspectratio>square</pixelaspectratio>
											<anamorphic>FALSE</anamorphic>
											<file id="file-603">
												<name>12.png</name>
												<pathurl>file://localhost/_MUZ_TV/project_AP/RU/_TITLE/469/12.png</pathurl>
												<rate>
													<timebase>30</timebase>
													<ntsc>TRUE</ntsc>
												</rate>
												<timecode>
													<rate>
														<timebase>30</timebase>
														<ntsc>TRUE</ntsc>
													</rate>
													<string>00;00;00;00</string>
													<frame>0</frame>
													<displayformat>DF</displayformat>
												</timecode>
												<media>
													<video>
														<samplecharacteristics>
															<rate>
																<timebase>30</timebase>
																<ntsc>TRUE</ntsc>
															</rate>
															<width>1920</width>
															<height>1080</height>
															<anamorphic>FALSE</anamorphic>
															<pixelaspectratio>square</pixelaspectratio>
															<fielddominance>none</fielddominance>
														</samplecharacteristics>
													</video>
												</media>
											</file>
											<filter>
												<effect>
													<name>Basic Motion</name>
													<effectid>basic</effectid>
													<effectcategory>motion</effectcategory>
													<effecttype>motion</effecttype>
													<mediatype>video</mediatype>
													<pproBypass>false</pproBypass>
													<parameter authoringApp="PremierePro">
														<parameterid>scale</parameterid>
														<name>Scale</name>
														<valuemin>0</valuemin>
														<valuemax>1000</valuemax>
														<value>53.3333</value>
													</parameter>
													<parameter authoringApp="PremierePro">
														<parameterid>rotation</parameterid>
														<name>Rotation</name>
														<valuemin>-8640</valuemin>
														<valuemax>8640</valuemax>
														<value>0</value>
													</parameter>
													<parameter authoringApp="PremierePro">
														<parameterid>center</parameterid>
														<name>Center</name>
														<value>
															<horiz>0</horiz>
															<vert>0</vert>
														</value>
													</parameter>
													<parameter authoringApp="PremierePro">
														<parameterid>centerOffset</parameterid>
														<name>Anchor Point</name>
														<value>
															<horiz>0</horiz>
															<vert>0</vert>
														</value>
													</parameter>
													<parameter authoringApp="PremierePro">
														<parameterid>antiflicker</parameterid>
														<name>Anti-flicker Filter</name>
														<valuemin>0.0</valuemin>
														<valuemax>1.0</valuemax>
														<value>0</value>
													</parameter>
												</effect>
											</filter>
											<logginginfo>
												<description></description>
												<scene></scene>
												<shottake></shottake>
												<lognote></lognote>
												<good></good>
												<originalvideofilename></originalvideofilename>
												<originalaudiofilename></originalaudiofilename>
											</logginginfo>
											<colorinfo>
												<lut></lut>
												<lut1></lut1>
												<asc_sop></asc_sop>
												<asc_sat></asc_sat>
												<lut2></lut2>
											</colorinfo>
											<labels>
												<label2>Lavender</label2>
											</labels>
										</clipitem>
										<transitionitem>
											<start>328</start>
											<end>350</end>
											<alignment>end-black</alignment>
											<cutPointTicks>223534080000</cutPointTicks>
											<rate>
												<timebase>25</timebase>
												<ntsc>FALSE</ntsc>
											</rate>
											<effect>
												<name>Edge Wipe</name>
												<effectid>Edge Wipe</effectid>
												<effectcategory>Wipe</effectcategory>
												<effecttype>transition</effecttype>
												<mediatype>video</mediatype>
												<wipecode>2</wipecode>
												<wipeaccuracy>100</wipeaccuracy>
												<startratio>0</startratio>
												<endratio>1</endratio>
												<reverse>FALSE</reverse>
												<parameter authoringApp="PremierePro">
													<parameterid>directionofwipe</parameterid>
													<name>Angle</name>
													<valuemin>-360</valuemin>
													<valuemax>360</valuemax>
													<value>90</value>
												</parameter>
											</effect>
										</transitionitem>
										<enabled>TRUE</enabled>
										<locked>FALSE</locked>
									</track>
									<track TL.SQTrackShy="0" TL.SQTrackExpandedHeight="25" TL.SQTrackExpanded="0" MZ.TrackTargeted="0">
										<transitionitem>
											<start>167</start>
											<end>224</end>
											<alignment>start-black</alignment>
											<cutPointTicks>0</cutPointTicks>
											<rate>
												<timebase>25</timebase>
												<ntsc>FALSE</ntsc>
											</rate>
											<effect>
												<name>Edge Wipe</name>
												<effectid>Edge Wipe</effectid>
												<effectcategory>Wipe</effectcategory>
												<effecttype>transition</effecttype>
												<mediatype>video</mediatype>
												<wipecode>2</wipecode>
												<wipeaccuracy>100</wipeaccuracy>
												<startratio>0</startratio>
												<endratio>1</endratio>
												<reverse>FALSE</reverse>
												<parameter authoringApp="PremierePro">
													<parameterid>directionofwipe</parameterid>
													<name>Angle</name>
													<valuemin>-360</valuemin>
													<valuemax>360</valuemax>
													<value>90</value>
												</parameter>
											</effect>
										</transitionitem>
										<clipitem id="clipitem-1726">
											<masterclipid>masterclip-727</masterclipid>
											<name>Graphic</name>
											<enabled>FALSE</enabled>
											<duration>1080000</duration>
											<rate>
												<timebase>25</timebase>
												<ntsc>FALSE</ntsc>
											</rate>
											<start>-1</start>
											<end>-1</end>
											<in>89998</in>
											<out>90181</out>
											<pproTicksIn>914437278720000</pproTicksIn>
											<pproTicksOut>916296675840000</pproTicksOut>
											<alphatype>straight</alphatype>
											<pixelaspectratio>PAL-601</pixelaspectratio>
											<anamorphic>TRUE</anamorphic>
											<file id="file-604">
												<name>Graphic</name>
												<mediaSource>GraphicAndType</mediaSource>
												<rate>
													<timebase>30</timebase>
													<ntsc>TRUE</ntsc>
												</rate>
												<timecode>
													<rate>
														<timebase>30</timebase>
														<ntsc>TRUE</ntsc>
													</rate>
													<string>00;00;00;00</string>
													<frame>0</frame>
													<displayformat>DF</displayformat>
												</timecode>
												<media>
													<video>
														<samplecharacteristics>
															<rate>
																<timebase>30</timebase>
																<ntsc>TRUE</ntsc>
															</rate>
															<width>720</width>
															<height>576</height>
															<anamorphic>TRUE</anamorphic>
															<pixelaspectratio>PAL-601</pixelaspectratio>
															<fielddominance>none</fielddominance>
														</samplecharacteristics>
													</video>
												</media>
											</file>
											<filter>
												<effect>
													<name>АРТУР ПИРОЖКОВ&#13;ЛЕТОМ НА ФИЕСТЕ</name>
													<effectid>GraphicAndType</effectid>
													<effectcategory>graphic</effectcategory>
													<effecttype>filter</effecttype>
													<mediatype>video</mediatype>
													<pproBypass>false</pproBypass>
													<pproExpanded>true</pproExpanded>
													<parameter authoringApp="PremierePro">
														<parameterid>1</parameterid>
														<name>Source Text</name>
														<hash>dc092258-f6b9-fd91-a76f-c3e700000476</hash>
													</parameter>
													<parameter authoringApp="PremierePro">
														<parameterid>2</parameterid>
														<name>Transform</name>
														<IsTimeVarying>false</IsTimeVarying>
														<ParameterControlType>11</ParameterControlType>
														<LowerBound>false</LowerBound>
														<UpperBound>false</UpperBound>
														<value>-91445760000000000,false,0,0,0,0,0,0</value>
													</parameter>
													<parameter authoringApp="PremierePro">
														<parameterid>3</parameterid>
														<name>Position</name>
														<IsTimeVarying>false</IsTimeVarying>
														<value>-91445760000000000,0.36944580078125:0.86468505859375,0,0,0,0,0,0,5,4,0,0,0,0</value>
													</parameter>
													<parameter authoringApp="PremierePro">
														<parameterid>4</parameterid>
														<name>Scale</name>
														<IsTimeVarying>false</IsTimeVarying>
														<ParameterControlType>2</ParameterControlType>
														<LowerBound>0</LowerBound>
														<UpperBound>4000</UpperBound>
														<value>-91445760000000000,100.,0,0,0,0,0,0</value>
													</parameter>
													<parameter authoringApp="PremierePro">
														<parameterid>5</parameterid>
														<name>Horizontal Scale</name>
														<IsTimeVarying>false</IsTimeVarying>
														<ParameterControlType>2</ParameterControlType>
														<LowerBound>0</LowerBound>
														<UpperBound>4000</UpperBound>
														<value>-91445760000000000,100.,0,0,0,0,0,0</value>
													</parameter>
													<parameter authoringApp="PremierePro">
														<parameterid>6</parameterid>
														<name> </name>
														<IsTimeVarying>false</IsTimeVarying>
														<ParameterControlType>4</ParameterControlType>
														<LowerBound>false</LowerBound>
														<UpperBound>true</UpperBound>
														<value>-91445760000000000,true,0,0,0,0,0,0</value>
													</parameter>
													<parameter authoringApp="PremierePro">
														<parameterid>7</parameterid>
														<name>Rotation</name>
														<IsTimeVarying>false</IsTimeVarying>
														<ParameterControlType>3</ParameterControlType>
														<LowerBound>-32768</LowerBound>
														<UpperBound>32767</UpperBound>
														<value>-91445760000000000,0.,0,0,0,0,0,0</value>
													</parameter>
													<parameter authoringApp="PremierePro">
														<parameterid>8</parameterid>
														<name>Opacity</name>
														<IsTimeVarying>false</IsTimeVarying>
														<ParameterControlType>2</ParameterControlType>
														<LowerBound>0</LowerBound>
														<UpperBound>100</UpperBound>
														<value>-91445760000000000,100.,0,0,0,0,0,0</value>
													</parameter>
													<parameter authoringApp="PremierePro">
														<parameterid>9</parameterid>
														<name>Anchor Point</name>
														<IsTimeVarying>false</IsTimeVarying>
														<value>-91445760000000000,0:0,0,0,0,0,0,0,5,4,0,0,0,0</value>
													</parameter>
													<parameter authoringApp="PremierePro">
														<parameterid>10</parameterid>
														<name></name>
														<IsTimeVarying>false</IsTimeVarying>
														<ParameterControlType>12</ParameterControlType>
														<LowerBound>false</LowerBound>
														<UpperBound>false</UpperBound>
														<value>-91445760000000000,false,0,0,0,0,0,0</value>
													</parameter>
													<parameter authoringApp="PremierePro">
														<parameterid>11</parameterid>
														<name> </name>
														<IsTimeVarying>false</IsTimeVarying>
														<ParameterControlType>8</ParameterControlType>
														<LowerBound>0</LowerBound>
														<UpperBound>32768</UpperBound>
														<value>-91445760000000000,0.,0,0,0,0,0,0</value>
													</parameter>
													<parameter authoringApp="PremierePro">
														<parameterid>12</parameterid>
														<name> </name>
														<IsTimeVarying>false</IsTimeVarying>
														<ParameterControlType>8</ParameterControlType>
														<LowerBound>0</LowerBound>
														<UpperBound>32768</UpperBound>
														<value>-91445760000000000,0.,0,0,0,0,0,0</value>
													</parameter>
													<parameter authoringApp="PremierePro">
														<parameterid>13</parameterid>
														<name>start</name>
														<IsTimeVarying>false</IsTimeVarying>
														<ParameterControlType>8</ParameterControlType>
														<LowerBound>-100</LowerBound>
														<UpperBound>1000000000</UpperBound>
														<value>-91445760000000000,30.,0,0,0,0,0,0</value>
													</parameter>
													<parameter authoringApp="PremierePro">
														<parameterid>14</parameterid>
														<name>end</name>
														<IsTimeVarying>false</IsTimeVarying>
														<ParameterControlType>8</ParameterControlType>
														<LowerBound>-100</LowerBound>
														<UpperBound>1000000000</UpperBound>
														<value>-91445760000000000,30.,0,0,0,0,0,0</value>
													</parameter>
													<parameter authoringApp="PremierePro">
														<parameterid>15</parameterid>
														<name> </name>
														<IsTimeVarying>false</IsTimeVarying>
														<ParameterControlType>4</ParameterControlType>
														<LowerBound>false</LowerBound>
														<UpperBound>true</UpperBound>
														<value>-91445760000000000,false,0,0,0,0,0,0</value>
													</parameter>
													<parameter authoringApp="PremierePro">
														<parameterid>16</parameterid>
														<name> </name>
														<IsTimeVarying>false</IsTimeVarying>
														<ParameterControlType>4</ParameterControlType>
														<LowerBound>false</LowerBound>
														<UpperBound>true</UpperBound>
														<value>-91445760000000000,false,0,0,0,0,0,0</value>
													</parameter>
													<parameter authoringApp="PremierePro">
														<parameterid>17</parameterid>
														<name> </name>
														<IsTimeVarying>false</IsTimeVarying>
														<ParameterControlType>4</ParameterControlType>
														<LowerBound>false</LowerBound>
														<UpperBound>true</UpperBound>
														<value>-91445760000000000,false,0,0,0,0,0,0</value>
													</parameter>
													<parameter authoringApp="PremierePro">
														<parameterid>18</parameterid>
														<name> </name>
														<IsTimeVarying>false</IsTimeVarying>
														<ParameterControlType>4</ParameterControlType>
														<LowerBound>false</LowerBound>
														<UpperBound>true</UpperBound>
														<value>-91445760000000000,false,0,0,0,0,0,0</value>
													</parameter>
													<parameter authoringApp="PremierePro">
														<parameterid>19</parameterid>
														<name>Parent Width</name>
														<IsTimeVarying>false</IsTimeVarying>
														<ParameterControlType>2</ParameterControlType>
														<LowerBound>0</LowerBound>
														<UpperBound>20000</UpperBound>
														<value>-91445760000000000,0.,0,0,0,0,0,0</value>
													</parameter>
													<parameter authoringApp="PremierePro">
														<parameterid>20</parameterid>
														<name>Parent Height</name>
														<IsTimeVarying>false</IsTimeVarying>
														<ParameterControlType>2</ParameterControlType>
														<LowerBound>0</LowerBound>
														<UpperBound>20000</UpperBound>
														<value>-91445760000000000,0.,0,0,0,0,0,0</value>
													</parameter>
													<parameter authoringApp="PremierePro">
														<parameterid>21</parameterid>
														<name>Parent Rotation</name>
														<IsTimeVarying>false</IsTimeVarying>
														<ParameterControlType>3</ParameterControlType>
														<LowerBound>-32768</LowerBound>
														<UpperBound>32767</UpperBound>
														<value>-91445760000000000,0.,0,0,0,0,0,0</value>
													</parameter>
												</effect>
											</filter>
											<logginginfo>
												<description></description>
												<scene></scene>
												<shottake></shottake>
												<lognote></lognote>
												<good></good>
												<originalvideofilename></originalvideofilename>
												<originalaudiofilename></originalaudiofilename>
											</logginginfo>
											<colorinfo>
												<lut></lut>
												<lut1></lut1>
												<asc_sop></asc_sop>
												<asc_sat></asc_sat>
												<lut2></lut2>
											</colorinfo>
										</clipitem>
										<transitionitem>
											<start>328</start>
											<end>350</end>
											<alignment>end-black</alignment>
											<cutPointTicks>223534080000</cutPointTicks>
											<rate>
												<timebase>25</timebase>
												<ntsc>FALSE</ntsc>
											</rate>
											<effect>
												<name>Edge Wipe</name>
												<effectid>Edge Wipe</effectid>
												<effectcategory>Wipe</effectcategory>
												<effecttype>transition</effecttype>
												<mediatype>video</mediatype>
												<wipecode>2</wipecode>
												<wipeaccuracy>100</wipeaccuracy>
												<startratio>0</startratio>
												<endratio>1</endratio>
												<reverse>FALSE</reverse>
												<parameter authoringApp="PremierePro">
													<parameterid>directionofwipe</parameterid>
													<name>Angle</name>
													<valuemin>-360</valuemin>
													<valuemax>360</valuemax>
													<value>90</value>
												</parameter>
											</effect>
										</transitionitem>
										<enabled>TRUE</enabled>
										<locked>FALSE</locked>
									</track>
								</video>
								<audio>
									<numOutputChannels>2</numOutputChannels>
									<format>
										<samplecharacteristics>
											<depth>16</depth>
											<samplerate>48000</samplerate>
										</samplecharacteristics>
									</format>
									<outputs>
										<group>
											<index>1</index>
											<numchannels>1</numchannels>
											<downmix>0</downmix>
											<channel>
												<index>1</index>
											</channel>
										</group>
										<group>
											<index>2</index>
											<numchannels>1</numchannels>
											<downmix>0</downmix>
											<channel>
												<index>2</index>
											</channel>
										</group>
									</outputs>
									<track TL.SQTrackAudioKeyframeStyle="0" TL.SQTrackShy="0" TL.SQTrackExpandedHeight="25" TL.SQTrackExpanded="0" MZ.TrackTargeted="1" PannerCurrentValue="0.5" PannerStartKeyframe="-91445760000000000,0.5,0,0,0,0,0,0" PannerName="Balance" currentExplodedTrackIndex="0" totalExplodedTrackCount="2" premiereTrackType="Stereo">
										<enabled>TRUE</enabled>
										<locked>FALSE</locked>
										<outputchannelindex>1</outputchannelindex>
									</track>
									<track TL.SQTrackAudioKeyframeStyle="0" TL.SQTrackShy="0" TL.SQTrackExpandedHeight="25" TL.SQTrackExpanded="0" MZ.TrackTargeted="1" PannerCurrentValue="0.5" PannerStartKeyframe="-91445760000000000,0.5,0,0,0,0,0,0" PannerName="Balance" currentExplodedTrackIndex="1" totalExplodedTrackCount="2" premiereTrackType="Stereo">
										<enabled>TRUE</enabled>
										<locked>FALSE</locked>
										<outputchannelindex>2</outputchannelindex>
									</track>
								</audio>
							</media>
							<timecode>
								<rate>
									<timebase>25</timebase>
									<ntsc>FALSE</ntsc>
								</rate>
								<string>00:00:00:00</string>
								<frame>0</frame>
								<displayformat>NDF</displayformat>
							</timecode>
								<marker>
									<comment></comment>
									<name></name>
									<in>125</in>
									<out>-1</out>
									<pproColor>4280578025</pproColor>
								</marker>
							<logginginfo>
								<description></description>
								<scene></scene>
								<shottake></shottake>
								<lognote></lognote>
								<good></good>
								<originalvideofilename></originalvideofilename>
								<originalaudiofilename></originalaudiofilename>
							</logginginfo>
						</sequence>
							<marker>
								<comment></comment>
								<name></name>
								<in>125</in>
								<out>-1</out>
								<pproColor>4280578025</pproColor>
							</marker>
						<labels>
							<label2>Forest</label2>
						</labels>
					</clipitem>
					<clipitem id="clipitem-1727">
						<masterclipid>masterclip-723</masterclipid>
						<name>12</name>
						<enabled>TRUE</enabled>
						<duration>475</duration>
						<rate>
							<timebase>25</timebase>
							<ntsc>FALSE</ntsc>
						</rate>
						<start>4864</start>
						<end>5215</end>
						<in>124</in>
						<out>475</out>
						<pproTicksIn>1259919360000</pproTicksIn>
						<pproTicksOut>4826304000000</pproTicksOut>
						<sequence id="sequence-133"/>
							<marker>
								<comment></comment>
								<name></name>
								<in>125</in>
								<out>-1</out>
								<pproColor>4280578025</pproColor>
							</marker>
						<labels>
							<label2>Forest</label2>
						</labels>
					</clipitem>
					<clipitem id="clipitem-1728">
						<masterclipid>masterclip-728</masterclipid>
						<name>11_TITLE</name>
						<enabled>TRUE</enabled>
						<duration>475</duration>
						<rate>
							<timebase>25</timebase>
							<ntsc>FALSE</ntsc>
						</rate>
						<start>5773</start>
						<end>6123</end>
						<in>0</in>
						<out>475</out>
						<pproTicksIn>0</pproTicksIn>
						<pproTicksOut>4826304000000</pproTicksOut>
						<sequence id="sequence-134" TL.SQAudioVisibleBase="0" TL.SQVideoVisibleBase="0" TL.SQVisibleBaseTime="0" TL.SQAVDividerPosition="0.5" TL.SQHideShyTracks="0" TL.SQHeaderWidth="236" TL.SQDataTrackViewControlState="0" Monitor.ProgramZoomOut="4826304000000" Monitor.ProgramZoomIn="0" TL.SQTimePerPixel="0.024999999999999998" AM.TrackVScrollPosition="0" AM.TrackScrollPosition="0" MZ.EditLine="1473292800000" MZ.Sequence.PreviewFrameSizeHeight="576" MZ.Sequence.PreviewFrameSizeWidth="720" MZ.Sequence.AudioTimeDisplayFormat="200" MZ.Sequence.PreviewRenderingClassID="1061109567" MZ.Sequence.PreviewRenderingPresetCodec="1685480304" MZ.Sequence.PreviewRenderingPresetPath="EncoderPresets/SequencePreview/04be6e19-a018-4e0c-a9d6-0ab44c64752b/QuickTime DV PAL.epr" MZ.Sequence.PreviewUseMaxRenderQuality="false" MZ.Sequence.PreviewUseMaxBitDepth="false" MZ.Sequence.EditingModeGUID="04be6e19-a018-4e0c-a9d6-0ab44c64752b" MZ.Sequence.VideoTimeDisplayFormat="101" MZ.WorkOutPoint="4826304000000" MZ.WorkInPoint="0" MZ.ZeroPoint="0">
							<duration>475</duration>
							<rate>
								<timebase>25</timebase>
								<ntsc>FALSE</ntsc>
							</rate>
							<name>титр</name>
							<media>
								<video>
									<format>
										<samplecharacteristics>
											<rate>
												<timebase>25</timebase>
												<ntsc>FALSE</ntsc>
											</rate>
											<codec>
												<name>Apple ProRes 422</name>
												<appspecificdata>
													<appname>Final Cut Pro</appname>
													<appmanufacturer>Apple Inc.</appmanufacturer>
													<appversion>7.0</appversion>
													<data>
														<qtcodec>
															<codecname>Apple ProRes 422</codecname>
															<codectypename>Apple ProRes 422</codectypename>
															<codectypecode>apcn</codectypecode>
															<codecvendorcode>appl</codecvendorcode>
															<spatialquality>1024</spatialquality>
															<temporalquality>0</temporalquality>
															<keyframerate>0</keyframerate>
															<datarate>0</datarate>
														</qtcodec>
													</data>
												</appspecificdata>
											</codec>
											<width>720</width>
											<height>576</height>
											<anamorphic>TRUE</anamorphic>
											<pixelaspectratio>PAL-601</pixelaspectratio>
											<fielddominance>lower</fielddominance>
											<colordepth>24</colordepth>
										</samplecharacteristics>
									</format>
									<track TL.SQTrackShy="0" TL.SQTrackExpandedHeight="25" TL.SQTrackExpanded="0" MZ.TrackTargeted="1">
										<clipitem id="clipitem-1729">
											<masterclipid>masterclip-724</masterclipid>
											<name>9_title.mov</name>
											<enabled>TRUE</enabled>
											<duration>225</duration>
											<rate>
												<timebase>25</timebase>
												<ntsc>FALSE</ntsc>
											</rate>
											<start>125</start>
											<end>350</end>
											<in>0</in>
											<out>225</out>
											<pproTicksIn>0</pproTicksIn>
											<pproTicksOut>2286144000000</pproTicksOut>
											<alphatype>straight</alphatype>
											<file id="file-601"/>
											<filter>
												<effect>
													<name>Basic Motion</name>
													<effectid>basic</effectid>
													<effectcategory>motion</effectcategory>
													<effecttype>motion</effecttype>
													<mediatype>video</mediatype>
													<pproBypass>false</pproBypass>
													<parameter authoringApp="PremierePro">
														<parameterid>scale</parameterid>
														<name>Scale</name>
														<valuemin>0</valuemin>
														<valuemax>1000</valuemax>
														<value>55</value>
													</parameter>
													<parameter authoringApp="PremierePro">
														<parameterid>rotation</parameterid>
														<name>Rotation</name>
														<valuemin>-8640</valuemin>
														<valuemax>8640</valuemax>
														<value>0</value>
													</parameter>
													<parameter authoringApp="PremierePro">
														<parameterid>center</parameterid>
														<name>Center</name>
														<value>
															<horiz>0</horiz>
															<vert>0</vert>
														</value>
													</parameter>
													<parameter authoringApp="PremierePro">
														<parameterid>centerOffset</parameterid>
														<name>Anchor Point</name>
														<value>
															<horiz>0</horiz>
															<vert>0</vert>
														</value>
													</parameter>
													<parameter authoringApp="PremierePro">
														<parameterid>antiflicker</parameterid>
														<name>Anti-flicker Filter</name>
														<valuemin>0.0</valuemin>
														<valuemax>1.0</valuemax>
														<value>0</value>
													</parameter>
												</effect>
											</filter>
											<filter>
												<effect>
													<name>Distort</name>
													<effectid>deformation</effectid>
													<effectcategory>motion</effectcategory>
													<effecttype>motion</effecttype>
													<mediatype>video</mediatype>
													<parameter authoringApp="PremierePro">
														<parameterid>aspect</parameterid>
														<name>Aspect</name>
														<valuemin>-10000</valuemin>
														<valuemax>10000</valuemax>
														<value>-3.12506</value>
													</parameter>
												</effect>
											</filter>
											<logginginfo>
												<description></description>
												<scene></scene>
												<shottake></shottake>
												<lognote></lognote>
												<good></good>
												<originalvideofilename></originalvideofilename>
												<originalaudiofilename></originalaudiofilename>
											</logginginfo>
											<colorinfo>
												<lut></lut>
												<lut1></lut1>
												<asc_sop></asc_sop>
												<asc_sat></asc_sat>
												<lut2></lut2>
											</colorinfo>
											<labels>
												<label2>Violet</label2>
											</labels>
										</clipitem>
										<clipitem id="clipitem-1730">
											<masterclipid>masterclip-729</masterclipid>
											<name>Graphic</name>
											<enabled>FALSE</enabled>
											<duration>1080000</duration>
											<rate>
												<timebase>25</timebase>
												<ntsc>FALSE</ntsc>
											</rate>
											<start>350</start>
											<end>475</end>
											<in>90000</in>
											<out>90125</out>
											<pproTicksIn>914457600000000</pproTicksIn>
											<pproTicksOut>915727680000000</pproTicksOut>
											<alphatype>straight</alphatype>
											<pixelaspectratio>PAL-601</pixelaspectratio>
											<anamorphic>TRUE</anamorphic>
											<file id="file-605">
												<name>Graphic</name>
												<mediaSource>GraphicAndType</mediaSource>
												<rate>
													<timebase>30</timebase>
													<ntsc>TRUE</ntsc>
												</rate>
												<timecode>
													<rate>
														<timebase>30</timebase>
														<ntsc>TRUE</ntsc>
													</rate>
													<string>00;00;00;00</string>
													<frame>0</frame>
													<displayformat>DF</displayformat>
												</timecode>
												<media>
													<video>
														<samplecharacteristics>
															<rate>
																<timebase>30</timebase>
																<ntsc>TRUE</ntsc>
															</rate>
															<width>720</width>
															<height>576</height>
															<anamorphic>TRUE</anamorphic>
															<pixelaspectratio>PAL-601</pixelaspectratio>
															<fielddominance>none</fielddominance>
														</samplecharacteristics>
													</video>
												</media>
											</file>
											<filter>
												<effect>
													<name>Basic Motion</name>
													<effectid>basic</effectid>
													<effectcategory>motion</effectcategory>
													<effecttype>motion</effecttype>
													<mediatype>video</mediatype>
													<pproBypass>false</pproBypass>
													<parameter authoringApp="PremierePro">
														<parameterid>scale</parameterid>
														<name>Scale</name>
														<valuemin>0</valuemin>
														<valuemax>1000</valuemax>
														<value>133.333</value>
													</parameter>
													<parameter authoringApp="PremierePro">
														<parameterid>rotation</parameterid>
														<name>Rotation</name>
														<valuemin>-8640</valuemin>
														<valuemax>8640</valuemax>
														<value>0</value>
													</parameter>
													<parameter authoringApp="PremierePro">
														<parameterid>center</parameterid>
														<name>Center</name>
														<value>
															<horiz>0</horiz>
															<vert>0</vert>
														</value>
													</parameter>
													<parameter authoringApp="PremierePro">
														<parameterid>centerOffset</parameterid>
														<name>Anchor Point</name>
														<value>
															<horiz>0</horiz>
															<vert>0</vert>
														</value>
													</parameter>
													<parameter authoringApp="PremierePro">
														<parameterid>antiflicker</parameterid>
														<name>Anti-flicker Filter</name>
														<valuemin>0.0</valuemin>
														<valuemax>1.0</valuemax>
														<value>0</value>
													</parameter>
												</effect>
											</filter>
											<filter>
												<effect>
													<name>Distort</name>
													<effectid>deformation</effectid>
													<effectcategory>motion</effectcategory>
													<effecttype>motion</effecttype>
													<mediatype>video</mediatype>
													<parameter authoringApp="PremierePro">
														<parameterid>aspect</parameterid>
														<name>Aspect</name>
														<valuemin>-10000</valuemin>
														<valuemax>10000</valuemax>
														<value>-33.333</value>
													</parameter>
												</effect>
											</filter>
											<filter>
												<effect>
													<name></name>
													<effectid>GraphicAndType</effectid>
													<effectcategory>graphic</effectcategory>
													<effecttype>filter</effecttype>
													<mediatype>video</mediatype>
													<pproBypass>false</pproBypass>
													<parameter authoringApp="PremierePro">
														<parameterid>1</parameterid>
														<name>Source Text</name>
														<hash>3f0faa81-c1b0-8370-b66c-fa0b000009f1</hash>
													</parameter>
													<parameter authoringApp="PremierePro">
														<parameterid>2</parameterid>
														<name>Transform</name>
														<IsTimeVarying>false</IsTimeVarying>
														<ParameterControlType>11</ParameterControlType>
														<LowerBound>false</LowerBound>
														<UpperBound>false</UpperBound>
														<value>-91445760000000000,false,0,0,0,0,0,0</value>
													</parameter>
													<parameter authoringApp="PremierePro">
														<parameterid>3</parameterid>
														<name>Position</name>
														<IsTimeVarying>false</IsTimeVarying>
														<value>-91445760000000000,0.55605381727218628:0.73039215803146362,0,0,0,0,0,0,5,4,0,0,0,0</value>
													</parameter>
													<parameter authoringApp="PremierePro">
														<parameterid>4</parameterid>
														<name>Scale</name>
														<IsTimeVarying>false</IsTimeVarying>
														<ParameterControlType>2</ParameterControlType>
														<LowerBound>0</LowerBound>
														<UpperBound>4000</UpperBound>
														<value>-91445760000000000,100.,0,0,0,0,0,0</value>
													</parameter>
													<parameter authoringApp="PremierePro">
														<parameterid>5</parameterid>
														<name>Horizontal Scale</name>
														<IsTimeVarying>false</IsTimeVarying>
														<ParameterControlType>2</ParameterControlType>
														<LowerBound>0</LowerBound>
														<UpperBound>4000</UpperBound>
														<value>-91445760000000000,100.,0,0,0,0,0,0</value>
													</parameter>
													<parameter authoringApp="PremierePro">
														<parameterid>6</parameterid>
														<name> </name>
														<IsTimeVarying>false</IsTimeVarying>
														<ParameterControlType>4</ParameterControlType>
														<LowerBound>false</LowerBound>
														<UpperBound>true</UpperBound>
														<value>-91445760000000000,true,0,0,0,0,0,0</value>
													</parameter>
													<parameter authoringApp="PremierePro">
														<parameterid>7</parameterid>
														<name>Rotation</name>
														<IsTimeVarying>false</IsTimeVarying>
														<ParameterControlType>3</ParameterControlType>
														<LowerBound>-32768</LowerBound>
														<UpperBound>32767</UpperBound>
														<value>-91445760000000000,0.,0,0,0,0,0,0</value>
													</parameter>
													<parameter authoringApp="PremierePro">
														<parameterid>8</parameterid>
														<name>Opacity</name>
														<IsTimeVarying>false</IsTimeVarying>
														<ParameterControlType>2</ParameterControlType>
														<LowerBound>0</LowerBound>
														<UpperBound>100</UpperBound>
														<value>-91445760000000000,100.,0,0,0,0,0,0</value>
													</parameter>
													<parameter authoringApp="PremierePro">
														<parameterid>9</parameterid>
														<name>Anchor Point</name>
														<IsTimeVarying>false</IsTimeVarying>
														<value>-91445760000000000,0:0,0,0,0,0,0,0,5,4,0,0,0,0</value>
													</parameter>
													<parameter authoringApp="PremierePro">
														<parameterid>10</parameterid>
														<name></name>
														<IsTimeVarying>false</IsTimeVarying>
														<ParameterControlType>12</ParameterControlType>
														<LowerBound>false</LowerBound>
														<UpperBound>false</UpperBound>
														<value>-91445760000000000,false,0,0,0,0,0,0</value>
													</parameter>
													<parameter authoringApp="PremierePro">
														<parameterid>11</parameterid>
														<name> </name>
														<IsTimeVarying>false</IsTimeVarying>
														<ParameterControlType>8</ParameterControlType>
														<LowerBound>0</LowerBound>
														<UpperBound>32768</UpperBound>
														<value>-91445760000000000,0.,0,0,0,0,0,0</value>
													</parameter>
													<parameter authoringApp="PremierePro">
														<parameterid>12</parameterid>
														<name> </name>
														<IsTimeVarying>false</IsTimeVarying>
														<ParameterControlType>8</ParameterControlType>
														<LowerBound>0</LowerBound>
														<UpperBound>32768</UpperBound>
														<value>-91445760000000000,0.,0,0,0,0,0,0</value>
													</parameter>
													<parameter authoringApp="PremierePro">
														<parameterid>13</parameterid>
														<name>start</name>
														<IsTimeVarying>false</IsTimeVarying>
														<ParameterControlType>8</ParameterControlType>
														<LowerBound>-100</LowerBound>
														<UpperBound>1000000000</UpperBound>
														<value>-91445760000000000,0.,0,0,0,0,0,0</value>
													</parameter>
													<parameter authoringApp="PremierePro">
														<parameterid>14</parameterid>
														<name>end</name>
														<IsTimeVarying>false</IsTimeVarying>
														<ParameterControlType>8</ParameterControlType>
														<LowerBound>-100</LowerBound>
														<UpperBound>1000000000</UpperBound>
														<value>-91445760000000000,0.,0,0,0,0,0,0</value>
													</parameter>
													<parameter authoringApp="PremierePro">
														<parameterid>15</parameterid>
														<name> </name>
														<IsTimeVarying>false</IsTimeVarying>
														<ParameterControlType>4</ParameterControlType>
														<LowerBound>false</LowerBound>
														<UpperBound>true</UpperBound>
														<value>-91445760000000000,false,0,0,0,0,0,0</value>
													</parameter>
													<parameter authoringApp="PremierePro">
														<parameterid>16</parameterid>
														<name> </name>
														<IsTimeVarying>false</IsTimeVarying>
														<ParameterControlType>4</ParameterControlType>
														<LowerBound>false</LowerBound>
														<UpperBound>true</UpperBound>
														<value>-91445760000000000,false,0,0,0,0,0,0</value>
													</parameter>
													<parameter authoringApp="PremierePro">
														<parameterid>17</parameterid>
														<name> </name>
														<IsTimeVarying>false</IsTimeVarying>
														<ParameterControlType>4</ParameterControlType>
														<LowerBound>false</LowerBound>
														<UpperBound>true</UpperBound>
														<value>-91445760000000000,false,0,0,0,0,0,0</value>
													</parameter>
													<parameter authoringApp="PremierePro">
														<parameterid>18</parameterid>
														<name> </name>
														<IsTimeVarying>false</IsTimeVarying>
														<ParameterControlType>4</ParameterControlType>
														<LowerBound>false</LowerBound>
														<UpperBound>true</UpperBound>
														<value>-91445760000000000,false,0,0,0,0,0,0</value>
													</parameter>
													<parameter authoringApp="PremierePro">
														<parameterid>19</parameterid>
														<name>Parent Width</name>
														<IsTimeVarying>false</IsTimeVarying>
														<ParameterControlType>2</ParameterControlType>
														<LowerBound>0</LowerBound>
														<UpperBound>20000</UpperBound>
														<value>-91445760000000000,0.,0,0,0,0,0,0</value>
													</parameter>
													<parameter authoringApp="PremierePro">
														<parameterid>20</parameterid>
														<name>Parent Height</name>
														<IsTimeVarying>false</IsTimeVarying>
														<ParameterControlType>2</ParameterControlType>
														<LowerBound>0</LowerBound>
														<UpperBound>20000</UpperBound>
														<value>-91445760000000000,0.,0,0,0,0,0,0</value>
													</parameter>
													<parameter authoringApp="PremierePro">
														<parameterid>21</parameterid>
														<name>Parent Rotation</name>
														<IsTimeVarying>false</IsTimeVarying>
														<ParameterControlType>3</ParameterControlType>
														<LowerBound>-32768</LowerBound>
														<UpperBound>32767</UpperBound>
														<value>-91445760000000000,0.,0,0,0,0,0,0</value>
													</parameter>
												</effect>
											</filter>
											<logginginfo>
												<description></description>
												<scene></scene>
												<shottake></shottake>
												<lognote></lognote>
												<good></good>
												<originalvideofilename></originalvideofilename>
												<originalaudiofilename></originalaudiofilename>
											</logginginfo>
											<colorinfo>
												<lut></lut>
												<lut1></lut1>
												<asc_sop></asc_sop>
												<asc_sat></asc_sat>
												<lut2></lut2>
											</colorinfo>
										</clipitem>
										<enabled>TRUE</enabled>
										<locked>FALSE</locked>
									</track>
									<track TL.SQTrackShy="0" TL.SQTrackExpandedHeight="25" TL.SQTrackExpanded="0" MZ.TrackTargeted="0">
										<transitionitem>
											<start>167</start>
											<end>224</end>
											<alignment>start-black</alignment>
											<cutPointTicks>0</cutPointTicks>
											<rate>
												<timebase>25</timebase>
												<ntsc>FALSE</ntsc>
											</rate>
											<effect>
												<name>Edge Wipe</name>
												<effectid>Edge Wipe</effectid>
												<effectcategory>Wipe</effectcategory>
												<effecttype>transition</effecttype>
												<mediatype>video</mediatype>
												<wipecode>2</wipecode>
												<wipeaccuracy>100</wipeaccuracy>
												<startratio>0</startratio>
												<endratio>1</endratio>
												<reverse>FALSE</reverse>
												<parameter authoringApp="PremierePro">
													<parameterid>directionofwipe</parameterid>
													<name>Angle</name>
													<valuemin>-360</valuemin>
													<valuemax>360</valuemax>
													<value>90</value>
												</parameter>
											</effect>
										</transitionitem>
										<clipitem id="clipitem-1731">
											<masterclipid>masterclip-730</masterclipid>
											<name>9.png</name>
											<enabled>TRUE</enabled>
											<duration>1080000</duration>
											<rate>
												<timebase>25</timebase>
												<ntsc>FALSE</ntsc>
											</rate>
											<start>-1</start>
											<end>-1</end>
											<in>90042</in>
											<out>90225</out>
											<pproTicksIn>914884346880000</pproTicksIn>
											<pproTicksOut>916743744000000</pproTicksOut>
											<alphatype>straight</alphatype>
											<pixelaspectratio>square</pixelaspectratio>
											<anamorphic>FALSE</anamorphic>
											<file id="file-606">
												<name>11.png</name>
												<pathurl>file://localhost/_MUZ_TV/project_AP/RU/_TITLE/469/11.png</pathurl>
												<rate>
													<timebase>30</timebase>
													<ntsc>TRUE</ntsc>
												</rate>
												<timecode>
													<rate>
														<timebase>30</timebase>
														<ntsc>TRUE</ntsc>
													</rate>
													<string>00;00;00;00</string>
													<frame>0</frame>
													<displayformat>DF</displayformat>
												</timecode>
												<media>
													<video>
														<samplecharacteristics>
															<rate>
																<timebase>30</timebase>
																<ntsc>TRUE</ntsc>
															</rate>
															<width>1920</width>
															<height>1080</height>
															<anamorphic>FALSE</anamorphic>
															<pixelaspectratio>square</pixelaspectratio>
															<fielddominance>none</fielddominance>
														</samplecharacteristics>
													</video>
												</media>
											</file>
											<filter>
												<effect>
													<name>Basic Motion</name>
													<effectid>basic</effectid>
													<effectcategory>motion</effectcategory>
													<effecttype>motion</effecttype>
													<mediatype>video</mediatype>
													<pproBypass>false</pproBypass>
													<parameter authoringApp="PremierePro">
														<parameterid>scale</parameterid>
														<name>Scale</name>
														<valuemin>0</valuemin>
														<valuemax>1000</valuemax>
														<value>53.3333</value>
													</parameter>
													<parameter authoringApp="PremierePro">
														<parameterid>rotation</parameterid>
														<name>Rotation</name>
														<valuemin>-8640</valuemin>
														<valuemax>8640</valuemax>
														<value>0</value>
													</parameter>
													<parameter authoringApp="PremierePro">
														<parameterid>center</parameterid>
														<name>Center</name>
														<value>
															<horiz>0</horiz>
															<vert>0</vert>
														</value>
													</parameter>
													<parameter authoringApp="PremierePro">
														<parameterid>centerOffset</parameterid>
														<name>Anchor Point</name>
														<value>
															<horiz>0</horiz>
															<vert>0</vert>
														</value>
													</parameter>
													<parameter authoringApp="PremierePro">
														<parameterid>antiflicker</parameterid>
														<name>Anti-flicker Filter</name>
														<valuemin>0.0</valuemin>
														<valuemax>1.0</valuemax>
														<value>0</value>
													</parameter>
												</effect>
											</filter>
											<logginginfo>
												<description></description>
												<scene></scene>
												<shottake></shottake>
												<lognote></lognote>
												<good></good>
												<originalvideofilename></originalvideofilename>
												<originalaudiofilename></originalaudiofilename>
											</logginginfo>
											<colorinfo>
												<lut></lut>
												<lut1></lut1>
												<asc_sop></asc_sop>
												<asc_sat></asc_sat>
												<lut2></lut2>
											</colorinfo>
											<labels>
												<label2>Lavender</label2>
											</labels>
										</clipitem>
										<transitionitem>
											<start>328</start>
											<end>350</end>
											<alignment>end-black</alignment>
											<cutPointTicks>223534080000</cutPointTicks>
											<rate>
												<timebase>25</timebase>
												<ntsc>FALSE</ntsc>
											</rate>
											<effect>
												<name>Edge Wipe</name>
												<effectid>Edge Wipe</effectid>
												<effectcategory>Wipe</effectcategory>
												<effecttype>transition</effecttype>
												<mediatype>video</mediatype>
												<wipecode>2</wipecode>
												<wipeaccuracy>100</wipeaccuracy>
												<startratio>0</startratio>
												<endratio>1</endratio>
												<reverse>FALSE</reverse>
												<parameter authoringApp="PremierePro">
													<parameterid>directionofwipe</parameterid>
													<name>Angle</name>
													<valuemin>-360</valuemin>
													<valuemax>360</valuemax>
													<value>90</value>
												</parameter>
											</effect>
										</transitionitem>
										<enabled>TRUE</enabled>
										<locked>FALSE</locked>
									</track>
									<track TL.SQTrackShy="0" TL.SQTrackExpandedHeight="25" TL.SQTrackExpanded="0" MZ.TrackTargeted="0">
										<transitionitem>
											<start>167</start>
											<end>224</end>
											<alignment>start-black</alignment>
											<cutPointTicks>0</cutPointTicks>
											<rate>
												<timebase>25</timebase>
												<ntsc>FALSE</ntsc>
											</rate>
											<effect>
												<name>Edge Wipe</name>
												<effectid>Edge Wipe</effectid>
												<effectcategory>Wipe</effectcategory>
												<effecttype>transition</effecttype>
												<mediatype>video</mediatype>
												<wipecode>2</wipecode>
												<wipeaccuracy>100</wipeaccuracy>
												<startratio>0</startratio>
												<endratio>1</endratio>
												<reverse>FALSE</reverse>
												<parameter authoringApp="PremierePro">
													<parameterid>directionofwipe</parameterid>
													<name>Angle</name>
													<valuemin>-360</valuemin>
													<valuemax>360</valuemax>
													<value>90</value>
												</parameter>
											</effect>
										</transitionitem>
										<clipitem id="clipitem-1732">
											<masterclipid>masterclip-731</masterclipid>
											<name>Graphic</name>
											<enabled>FALSE</enabled>
											<duration>1080000</duration>
											<rate>
												<timebase>25</timebase>
												<ntsc>FALSE</ntsc>
											</rate>
											<start>-1</start>
											<end>-1</end>
											<in>89998</in>
											<out>90181</out>
											<pproTicksIn>914437278720000</pproTicksIn>
											<pproTicksOut>916296675840000</pproTicksOut>
											<alphatype>straight</alphatype>
											<pixelaspectratio>PAL-601</pixelaspectratio>
											<anamorphic>TRUE</anamorphic>
											<file id="file-607">
												<name>Graphic</name>
												<mediaSource>GraphicAndType</mediaSource>
												<rate>
													<timebase>30</timebase>
													<ntsc>TRUE</ntsc>
												</rate>
												<timecode>
													<rate>
														<timebase>30</timebase>
														<ntsc>TRUE</ntsc>
													</rate>
													<string>00;00;00;00</string>
													<frame>0</frame>
													<displayformat>DF</displayformat>
												</timecode>
												<media>
													<video>
														<samplecharacteristics>
															<rate>
																<timebase>30</timebase>
																<ntsc>TRUE</ntsc>
															</rate>
															<width>720</width>
															<height>576</height>
															<anamorphic>TRUE</anamorphic>
															<pixelaspectratio>PAL-601</pixelaspectratio>
															<fielddominance>none</fielddominance>
														</samplecharacteristics>
													</video>
												</media>
											</file>
											<filter>
												<effect>
													<name>АРТУР ПИРОЖКОВ&#13;ЛЕТОМ НА ФИЕСТЕ</name>
													<effectid>GraphicAndType</effectid>
													<effectcategory>graphic</effectcategory>
													<effecttype>filter</effecttype>
													<mediatype>video</mediatype>
													<pproBypass>false</pproBypass>
													<pproExpanded>true</pproExpanded>
													<parameter authoringApp="PremierePro">
														<parameterid>1</parameterid>
														<name>Source Text</name>
														<hash>dc092258-f6b9-fd91-a76f-c3e700000476</hash>
													</parameter>
													<parameter authoringApp="PremierePro">
														<parameterid>2</parameterid>
														<name>Transform</name>
														<IsTimeVarying>false</IsTimeVarying>
														<ParameterControlType>11</ParameterControlType>
														<LowerBound>false</LowerBound>
														<UpperBound>false</UpperBound>
														<value>-91445760000000000,false,0,0,0,0,0,0</value>
													</parameter>
													<parameter authoringApp="PremierePro">
														<parameterid>3</parameterid>
														<name>Position</name>
														<IsTimeVarying>false</IsTimeVarying>
														<value>-91445760000000000,0.36944580078125:0.86468505859375,0,0,0,0,0,0,5,4,0,0,0,0</value>
													</parameter>
													<parameter authoringApp="PremierePro">
														<parameterid>4</parameterid>
														<name>Scale</name>
														<IsTimeVarying>false</IsTimeVarying>
														<ParameterControlType>2</ParameterControlType>
														<LowerBound>0</LowerBound>
														<UpperBound>4000</UpperBound>
														<value>-91445760000000000,100.,0,0,0,0,0,0</value>
													</parameter>
													<parameter authoringApp="PremierePro">
														<parameterid>5</parameterid>
														<name>Horizontal Scale</name>
														<IsTimeVarying>false</IsTimeVarying>
														<ParameterControlType>2</ParameterControlType>
														<LowerBound>0</LowerBound>
														<UpperBound>4000</UpperBound>
														<value>-91445760000000000,100.,0,0,0,0,0,0</value>
													</parameter>
													<parameter authoringApp="PremierePro">
														<parameterid>6</parameterid>
														<name> </name>
														<IsTimeVarying>false</IsTimeVarying>
														<ParameterControlType>4</ParameterControlType>
														<LowerBound>false</LowerBound>
														<UpperBound>true</UpperBound>
														<value>-91445760000000000,true,0,0,0,0,0,0</value>
													</parameter>
													<parameter authoringApp="PremierePro">
														<parameterid>7</parameterid>
														<name>Rotation</name>
														<IsTimeVarying>false</IsTimeVarying>
														<ParameterControlType>3</ParameterControlType>
														<LowerBound>-32768</LowerBound>
														<UpperBound>32767</UpperBound>
														<value>-91445760000000000,0.,0,0,0,0,0,0</value>
													</parameter>
													<parameter authoringApp="PremierePro">
														<parameterid>8</parameterid>
														<name>Opacity</name>
														<IsTimeVarying>false</IsTimeVarying>
														<ParameterControlType>2</ParameterControlType>
														<LowerBound>0</LowerBound>
														<UpperBound>100</UpperBound>
														<value>-91445760000000000,100.,0,0,0,0,0,0</value>
													</parameter>
													<parameter authoringApp="PremierePro">
														<parameterid>9</parameterid>
														<name>Anchor Point</name>
														<IsTimeVarying>false</IsTimeVarying>
														<value>-91445760000000000,0:0,0,0,0,0,0,0,5,4,0,0,0,0</value>
													</parameter>
													<parameter authoringApp="PremierePro">
														<parameterid>10</parameterid>
														<name></name>
														<IsTimeVarying>false</IsTimeVarying>
														<ParameterControlType>12</ParameterControlType>
														<LowerBound>false</LowerBound>
														<UpperBound>false</UpperBound>
														<value>-91445760000000000,false,0,0,0,0,0,0</value>
													</parameter>
													<parameter authoringApp="PremierePro">
														<parameterid>11</parameterid>
														<name> </name>
														<IsTimeVarying>false</IsTimeVarying>
														<ParameterControlType>8</ParameterControlType>
														<LowerBound>0</LowerBound>
														<UpperBound>32768</UpperBound>
														<value>-91445760000000000,0.,0,0,0,0,0,0</value>
													</parameter>
													<parameter authoringApp="PremierePro">
														<parameterid>12</parameterid>
														<name> </name>
														<IsTimeVarying>false</IsTimeVarying>
														<ParameterControlType>8</ParameterControlType>
														<LowerBound>0</LowerBound>
														<UpperBound>32768</UpperBound>
														<value>-91445760000000000,0.,0,0,0,0,0,0</value>
													</parameter>
													<parameter authoringApp="PremierePro">
														<parameterid>13</parameterid>
														<name>start</name>
														<IsTimeVarying>false</IsTimeVarying>
														<ParameterControlType>8</ParameterControlType>
														<LowerBound>-100</LowerBound>
														<UpperBound>1000000000</UpperBound>
														<value>-91445760000000000,30.,0,0,0,0,0,0</value>
													</parameter>
													<parameter authoringApp="PremierePro">
														<parameterid>14</parameterid>
														<name>end</name>
														<IsTimeVarying>false</IsTimeVarying>
														<ParameterControlType>8</ParameterControlType>
														<LowerBound>-100</LowerBound>
														<UpperBound>1000000000</UpperBound>
														<value>-91445760000000000,30.,0,0,0,0,0,0</value>
													</parameter>
													<parameter authoringApp="PremierePro">
														<parameterid>15</parameterid>
														<name> </name>
														<IsTimeVarying>false</IsTimeVarying>
														<ParameterControlType>4</ParameterControlType>
														<LowerBound>false</LowerBound>
														<UpperBound>true</UpperBound>
														<value>-91445760000000000,false,0,0,0,0,0,0</value>
													</parameter>
													<parameter authoringApp="PremierePro">
														<parameterid>16</parameterid>
														<name> </name>
														<IsTimeVarying>false</IsTimeVarying>
														<ParameterControlType>4</ParameterControlType>
														<LowerBound>false</LowerBound>
														<UpperBound>true</UpperBound>
														<value>-91445760000000000,false,0,0,0,0,0,0</value>
													</parameter>
													<parameter authoringApp="PremierePro">
														<parameterid>17</parameterid>
														<name> </name>
														<IsTimeVarying>false</IsTimeVarying>
														<ParameterControlType>4</ParameterControlType>
														<LowerBound>false</LowerBound>
														<UpperBound>true</UpperBound>
														<value>-91445760000000000,false,0,0,0,0,0,0</value>
													</parameter>
													<parameter authoringApp="PremierePro">
														<parameterid>18</parameterid>
														<name> </name>
														<IsTimeVarying>false</IsTimeVarying>
														<ParameterControlType>4</ParameterControlType>
														<LowerBound>false</LowerBound>
														<UpperBound>true</UpperBound>
														<value>-91445760000000000,false,0,0,0,0,0,0</value>
													</parameter>
													<parameter authoringApp="PremierePro">
														<parameterid>19</parameterid>
														<name>Parent Width</name>
														<IsTimeVarying>false</IsTimeVarying>
														<ParameterControlType>2</ParameterControlType>
														<LowerBound>0</LowerBound>
														<UpperBound>20000</UpperBound>
														<value>-91445760000000000,0.,0,0,0,0,0,0</value>
													</parameter>
													<parameter authoringApp="PremierePro">
														<parameterid>20</parameterid>
														<name>Parent Height</name>
														<IsTimeVarying>false</IsTimeVarying>
														<ParameterControlType>2</ParameterControlType>
														<LowerBound>0</LowerBound>
														<UpperBound>20000</UpperBound>
														<value>-91445760000000000,0.,0,0,0,0,0,0</value>
													</parameter>
													<parameter authoringApp="PremierePro">
														<parameterid>21</parameterid>
														<name>Parent Rotation</name>
														<IsTimeVarying>false</IsTimeVarying>
														<ParameterControlType>3</ParameterControlType>
														<LowerBound>-32768</LowerBound>
														<UpperBound>32767</UpperBound>
														<value>-91445760000000000,0.,0,0,0,0,0,0</value>
													</parameter>
												</effect>
											</filter>
											<logginginfo>
												<description></description>
												<scene></scene>
												<shottake></shottake>
												<lognote></lognote>
												<good></good>
												<originalvideofilename></originalvideofilename>
												<originalaudiofilename></originalaudiofilename>
											</logginginfo>
											<colorinfo>
												<lut></lut>
												<lut1></lut1>
												<asc_sop></asc_sop>
												<asc_sat></asc_sat>
												<lut2></lut2>
											</colorinfo>
										</clipitem>
										<transitionitem>
											<start>328</start>
											<end>350</end>
											<alignment>end-black</alignment>
											<cutPointTicks>223534080000</cutPointTicks>
											<rate>
												<timebase>25</timebase>
												<ntsc>FALSE</ntsc>
											</rate>
											<effect>
												<name>Edge Wipe</name>
												<effectid>Edge Wipe</effectid>
												<effectcategory>Wipe</effectcategory>
												<effecttype>transition</effecttype>
												<mediatype>video</mediatype>
												<wipecode>2</wipecode>
												<wipeaccuracy>100</wipeaccuracy>
												<startratio>0</startratio>
												<endratio>1</endratio>
												<reverse>FALSE</reverse>
												<parameter authoringApp="PremierePro">
													<parameterid>directionofwipe</parameterid>
													<name>Angle</name>
													<valuemin>-360</valuemin>
													<valuemax>360</valuemax>
													<value>90</value>
												</parameter>
											</effect>
										</transitionitem>
										<enabled>TRUE</enabled>
										<locked>FALSE</locked>
									</track>
								</video>
								<audio>
									<numOutputChannels>2</numOutputChannels>
									<format>
										<samplecharacteristics>
											<depth>16</depth>
											<samplerate>48000</samplerate>
										</samplecharacteristics>
									</format>
									<outputs>
										<group>
											<index>1</index>
											<numchannels>1</numchannels>
											<downmix>0</downmix>
											<channel>
												<index>1</index>
											</channel>
										</group>
										<group>
											<index>2</index>
											<numchannels>1</numchannels>
											<downmix>0</downmix>
											<channel>
												<index>2</index>
											</channel>
										</group>
									</outputs>
									<track TL.SQTrackAudioKeyframeStyle="0" TL.SQTrackShy="0" TL.SQTrackExpandedHeight="25" TL.SQTrackExpanded="0" MZ.TrackTargeted="1" PannerCurrentValue="0.5" PannerStartKeyframe="-91445760000000000,0.5,0,0,0,0,0,0" PannerName="Balance" currentExplodedTrackIndex="0" totalExplodedTrackCount="2" premiereTrackType="Stereo">
										<enabled>TRUE</enabled>
										<locked>FALSE</locked>
										<outputchannelindex>1</outputchannelindex>
									</track>
									<track TL.SQTrackAudioKeyframeStyle="0" TL.SQTrackShy="0" TL.SQTrackExpandedHeight="25" TL.SQTrackExpanded="0" MZ.TrackTargeted="1" PannerCurrentValue="0.5" PannerStartKeyframe="-91445760000000000,0.5,0,0,0,0,0,0" PannerName="Balance" currentExplodedTrackIndex="1" totalExplodedTrackCount="2" premiereTrackType="Stereo">
										<enabled>TRUE</enabled>
										<locked>FALSE</locked>
										<outputchannelindex>2</outputchannelindex>
									</track>
								</audio>
							</media>
							<timecode>
								<rate>
									<timebase>25</timebase>
									<ntsc>FALSE</ntsc>
								</rate>
								<string>00:00:00:00</string>
								<frame>0</frame>
								<displayformat>NDF</displayformat>
							</timecode>
								<marker>
									<comment></comment>
									<name></name>
									<in>125</in>
									<out>-1</out>
									<pproColor>4280578025</pproColor>
								</marker>
							<logginginfo>
								<description></description>
								<scene></scene>
								<shottake></shottake>
								<lognote></lognote>
								<good></good>
								<originalvideofilename></originalvideofilename>
								<originalaudiofilename></originalaudiofilename>
							</logginginfo>
						</sequence>
							<marker>
								<comment></comment>
								<name></name>
								<in>125</in>
								<out>-1</out>
								<pproColor>4280578025</pproColor>
							</marker>
						<labels>
							<label2>Forest</label2>
						</labels>
					</clipitem>
					<clipitem id="clipitem-1733">
						<masterclipid>masterclip-728</masterclipid>
						<name>11</name>
						<enabled>TRUE</enabled>
						<duration>475</duration>
						<rate>
							<timebase>25</timebase>
							<ntsc>FALSE</ntsc>
						</rate>
						<start>10065</start>
						<end>10416</end>
						<in>124</in>
						<out>475</out>
						<pproTicksIn>1259919360000</pproTicksIn>
						<pproTicksOut>4826304000000</pproTicksOut>
						<sequence id="sequence-134"/>
							<marker>
								<comment></comment>
								<name></name>
								<in>125</in>
								<out>-1</out>
								<pproColor>4280578025</pproColor>
							</marker>
						<labels>
							<label2>Forest</label2>
						</labels>
					</clipitem>
					<clipitem id="clipitem-1734">
						<masterclipid>masterclip-720</masterclipid>
						<name>титр</name>
						<enabled>TRUE</enabled>
						<duration>225</duration>
						<rate>
							<timebase>25</timebase>
							<ntsc>FALSE</ntsc>
						</rate>
						<start>10476</start>
						<end>10647</end>
						<in>0</in>
						<out>171</out>
						<pproTicksIn>0</pproTicksIn>
						<pproTicksOut>1737469440000</pproTicksOut>
						<sequence id="sequence-132"/>
						<filter>
							<effect>
								<name>Opacity</name>
								<effectid>opacity</effectid>
								<effectcategory>motion</effectcategory>
								<effecttype>motion</effecttype>
								<mediatype>video</mediatype>
								<pproBypass>false</pproBypass>
								<parameter authoringApp="PremierePro">
									<parameterid>opacity</parameterid>
									<name>opacity</name>
									<valuemin>0</valuemin>
									<valuemax>100</valuemax>
									<value>100</value>
								</parameter>
							</effect>
						</filter>
							<marker>
								<comment></comment>
								<name></name>
								<in>57</in>
								<out>-1</out>
								<pproColor>4294741314</pproColor>
							</marker>
						<labels>
							<label2>Forest</label2>
						</labels>
					</clipitem>
					<clipitem id="clipitem-1735">
						<masterclipid>masterclip-732</masterclipid>
						<name>10_TITLE</name>
						<enabled>TRUE</enabled>
						<duration>475</duration>
						<rate>
							<timebase>25</timebase>
							<ntsc>FALSE</ntsc>
						</rate>
						<start>11049</start>
						<end>11399</end>
						<in>0</in>
						<out>475</out>
						<pproTicksIn>0</pproTicksIn>
						<pproTicksOut>4826304000000</pproTicksOut>
						<sequence id="sequence-135" TL.SQAudioVisibleBase="0" TL.SQVideoVisibleBase="0" TL.SQVisibleBaseTime="0" TL.SQAVDividerPosition="0.5" TL.SQHideShyTracks="0" TL.SQHeaderWidth="236" TL.SQDataTrackViewControlState="0" Monitor.ProgramZoomOut="4826304000000" Monitor.ProgramZoomIn="0" TL.SQTimePerPixel="0.024999999999999998" AM.TrackVScrollPosition="0" AM.TrackScrollPosition="0" MZ.EditLine="1473292800000" MZ.Sequence.PreviewFrameSizeHeight="576" MZ.Sequence.PreviewFrameSizeWidth="720" MZ.Sequence.AudioTimeDisplayFormat="200" MZ.Sequence.PreviewRenderingClassID="1061109567" MZ.Sequence.PreviewRenderingPresetCodec="1685480304" MZ.Sequence.PreviewRenderingPresetPath="EncoderPresets/SequencePreview/04be6e19-a018-4e0c-a9d6-0ab44c64752b/QuickTime DV PAL.epr" MZ.Sequence.PreviewUseMaxRenderQuality="false" MZ.Sequence.PreviewUseMaxBitDepth="false" MZ.Sequence.EditingModeGUID="04be6e19-a018-4e0c-a9d6-0ab44c64752b" MZ.Sequence.VideoTimeDisplayFormat="101" MZ.WorkOutPoint="4826304000000" MZ.WorkInPoint="0" MZ.ZeroPoint="0">
							<duration>475</duration>
							<rate>
								<timebase>25</timebase>
								<ntsc>FALSE</ntsc>
							</rate>
							<name>титр</name>
							<media>
								<video>
									<format>
										<samplecharacteristics>
											<rate>
												<timebase>25</timebase>
												<ntsc>FALSE</ntsc>
											</rate>
											<codec>
												<name>Apple ProRes 422</name>
												<appspecificdata>
													<appname>Final Cut Pro</appname>
													<appmanufacturer>Apple Inc.</appmanufacturer>
													<appversion>7.0</appversion>
													<data>
														<qtcodec>
															<codecname>Apple ProRes 422</codecname>
															<codectypename>Apple ProRes 422</codectypename>
															<codectypecode>apcn</codectypecode>
															<codecvendorcode>appl</codecvendorcode>
															<spatialquality>1024</spatialquality>
															<temporalquality>0</temporalquality>
															<keyframerate>0</keyframerate>
															<datarate>0</datarate>
														</qtcodec>
													</data>
												</appspecificdata>
											</codec>
											<width>720</width>
											<height>576</height>
											<anamorphic>TRUE</anamorphic>
											<pixelaspectratio>PAL-601</pixelaspectratio>
											<fielddominance>lower</fielddominance>
											<colordepth>24</colordepth>
										</samplecharacteristics>
									</format>
									<track TL.SQTrackShy="0" TL.SQTrackExpandedHeight="25" TL.SQTrackExpanded="0" MZ.TrackTargeted="1">
										<clipitem id="clipitem-1736">
											<masterclipid>masterclip-733</masterclipid>
											<name>9_title.mov</name>
											<enabled>TRUE</enabled>
											<duration>225</duration>
											<rate>
												<timebase>25</timebase>
												<ntsc>FALSE</ntsc>
											</rate>
											<start>125</start>
											<end>350</end>
											<in>0</in>
											<out>225</out>
											<pproTicksIn>0</pproTicksIn>
											<pproTicksOut>2286144000000</pproTicksOut>
											<alphatype>straight</alphatype>
											<pixelaspectratio>square</pixelaspectratio>
											<anamorphic>FALSE</anamorphic>
											<file id="file-608">
												<name>10_title.mov</name>
												<pathurl>file://localhost/_MUZ_TV/graphika/RU-21/MOD/title_plashka/10_title.mov</pathurl>
												<rate>
													<timebase>25</timebase>
													<ntsc>FALSE</ntsc>
												</rate>
												<duration>225</duration>
												<timecode>
													<rate>
														<timebase>25</timebase>
														<ntsc>FALSE</ntsc>
													</rate>
													<string>00:00:00:00</string>
													<frame>0</frame>
													<displayformat>NDF</displayformat>
												</timecode>
												<media>
													<video>
														<samplecharacteristics>
															<rate>
																<timebase>25</timebase>
																<ntsc>FALSE</ntsc>
															</rate>
															<width>1920</width>
															<height>1080</height>
															<anamorphic>FALSE</anamorphic>
															<pixelaspectratio>square</pixelaspectratio>
															<fielddominance>none</fielddominance>
														</samplecharacteristics>
													</video>
												</media>
											</file>
											<filter>
												<effect>
													<name>Basic Motion</name>
													<effectid>basic</effectid>
													<effectcategory>motion</effectcategory>
													<effecttype>motion</effecttype>
													<mediatype>video</mediatype>
													<pproBypass>false</pproBypass>
													<parameter authoringApp="PremierePro">
														<parameterid>scale</parameterid>
														<name>Scale</name>
														<valuemin>0</valuemin>
														<valuemax>1000</valuemax>
														<value>55</value>
													</parameter>
													<parameter authoringApp="PremierePro">
														<parameterid>rotation</parameterid>
														<name>Rotation</name>
														<valuemin>-8640</valuemin>
														<valuemax>8640</valuemax>
														<value>0</value>
													</parameter>
													<parameter authoringApp="PremierePro">
														<parameterid>center</parameterid>
														<name>Center</name>
														<value>
															<horiz>0</horiz>
															<vert>0</vert>
														</value>
													</parameter>
													<parameter authoringApp="PremierePro">
														<parameterid>centerOffset</parameterid>
														<name>Anchor Point</name>
														<value>
															<horiz>0</horiz>
															<vert>0</vert>
														</value>
													</parameter>
													<parameter authoringApp="PremierePro">
														<parameterid>antiflicker</parameterid>
														<name>Anti-flicker Filter</name>
														<valuemin>0.0</valuemin>
														<valuemax>1.0</valuemax>
														<value>0</value>
													</parameter>
												</effect>
											</filter>
											<filter>
												<effect>
													<name>Distort</name>
													<effectid>deformation</effectid>
													<effectcategory>motion</effectcategory>
													<effecttype>motion</effecttype>
													<mediatype>video</mediatype>
													<parameter authoringApp="PremierePro">
														<parameterid>aspect</parameterid>
														<name>Aspect</name>
														<valuemin>-10000</valuemin>
														<valuemax>10000</valuemax>
														<value>-3.12506</value>
													</parameter>
												</effect>
											</filter>
											<logginginfo>
												<description></description>
												<scene></scene>
												<shottake></shottake>
												<lognote></lognote>
												<good></good>
												<originalvideofilename></originalvideofilename>
												<originalaudiofilename></originalaudiofilename>
											</logginginfo>
											<colorinfo>
												<lut></lut>
												<lut1></lut1>
												<asc_sop></asc_sop>
												<asc_sat></asc_sat>
												<lut2></lut2>
											</colorinfo>
											<labels>
												<label2>Violet</label2>
											</labels>
										</clipitem>
										<clipitem id="clipitem-1737">
											<masterclipid>masterclip-734</masterclipid>
											<name>Graphic</name>
											<enabled>FALSE</enabled>
											<duration>1080000</duration>
											<rate>
												<timebase>25</timebase>
												<ntsc>FALSE</ntsc>
											</rate>
											<start>350</start>
											<end>475</end>
											<in>90000</in>
											<out>90125</out>
											<pproTicksIn>914457600000000</pproTicksIn>
											<pproTicksOut>915727680000000</pproTicksOut>
											<alphatype>straight</alphatype>
											<pixelaspectratio>PAL-601</pixelaspectratio>
											<anamorphic>TRUE</anamorphic>
											<file id="file-609">
												<name>Graphic</name>
												<mediaSource>GraphicAndType</mediaSource>
												<rate>
													<timebase>30</timebase>
													<ntsc>TRUE</ntsc>
												</rate>
												<timecode>
													<rate>
														<timebase>30</timebase>
														<ntsc>TRUE</ntsc>
													</rate>
													<string>00;00;00;00</string>
													<frame>0</frame>
													<displayformat>DF</displayformat>
												</timecode>
												<media>
													<video>
														<samplecharacteristics>
															<rate>
																<timebase>30</timebase>
																<ntsc>TRUE</ntsc>
															</rate>
															<width>720</width>
															<height>576</height>
															<anamorphic>TRUE</anamorphic>
															<pixelaspectratio>PAL-601</pixelaspectratio>
															<fielddominance>none</fielddominance>
														</samplecharacteristics>
													</video>
												</media>
											</file>
											<filter>
												<effect>
													<name>Basic Motion</name>
													<effectid>basic</effectid>
													<effectcategory>motion</effectcategory>
													<effecttype>motion</effecttype>
													<mediatype>video</mediatype>
													<pproBypass>false</pproBypass>
													<parameter authoringApp="PremierePro">
														<parameterid>scale</parameterid>
														<name>Scale</name>
														<valuemin>0</valuemin>
														<valuemax>1000</valuemax>
														<value>133.333</value>
													</parameter>
													<parameter authoringApp="PremierePro">
														<parameterid>rotation</parameterid>
														<name>Rotation</name>
														<valuemin>-8640</valuemin>
														<valuemax>8640</valuemax>
														<value>0</value>
													</parameter>
													<parameter authoringApp="PremierePro">
														<parameterid>center</parameterid>
														<name>Center</name>
														<value>
															<horiz>0</horiz>
															<vert>0</vert>
														</value>
													</parameter>
													<parameter authoringApp="PremierePro">
														<parameterid>centerOffset</parameterid>
														<name>Anchor Point</name>
														<value>
															<horiz>0</horiz>
															<vert>0</vert>
														</value>
													</parameter>
													<parameter authoringApp="PremierePro">
														<parameterid>antiflicker</parameterid>
														<name>Anti-flicker Filter</name>
														<valuemin>0.0</valuemin>
														<valuemax>1.0</valuemax>
														<value>0</value>
													</parameter>
												</effect>
											</filter>
											<filter>
												<effect>
													<name>Distort</name>
													<effectid>deformation</effectid>
													<effectcategory>motion</effectcategory>
													<effecttype>motion</effecttype>
													<mediatype>video</mediatype>
													<parameter authoringApp="PremierePro">
														<parameterid>aspect</parameterid>
														<name>Aspect</name>
														<valuemin>-10000</valuemin>
														<valuemax>10000</valuemax>
														<value>-33.333</value>
													</parameter>
												</effect>
											</filter>
											<filter>
												<effect>
													<name></name>
													<effectid>GraphicAndType</effectid>
													<effectcategory>graphic</effectcategory>
													<effecttype>filter</effecttype>
													<mediatype>video</mediatype>
													<pproBypass>false</pproBypass>
													<parameter authoringApp="PremierePro">
														<parameterid>1</parameterid>
														<name>Source Text</name>
														<hash>3f0faa81-c1b0-8370-b66c-fa0b000009f1</hash>
													</parameter>
													<parameter authoringApp="PremierePro">
														<parameterid>2</parameterid>
														<name>Transform</name>
														<IsTimeVarying>false</IsTimeVarying>
														<ParameterControlType>11</ParameterControlType>
														<LowerBound>false</LowerBound>
														<UpperBound>false</UpperBound>
														<value>-91445760000000000,false,0,0,0,0,0,0</value>
													</parameter>
													<parameter authoringApp="PremierePro">
														<parameterid>3</parameterid>
														<name>Position</name>
														<IsTimeVarying>false</IsTimeVarying>
														<value>-91445760000000000,0.55605381727218628:0.73039215803146362,0,0,0,0,0,0,5,4,0,0,0,0</value>
													</parameter>
													<parameter authoringApp="PremierePro">
														<parameterid>4</parameterid>
														<name>Scale</name>
														<IsTimeVarying>false</IsTimeVarying>
														<ParameterControlType>2</ParameterControlType>
														<LowerBound>0</LowerBound>
														<UpperBound>4000</UpperBound>
														<value>-91445760000000000,100.,0,0,0,0,0,0</value>
													</parameter>
													<parameter authoringApp="PremierePro">
														<parameterid>5</parameterid>
														<name>Horizontal Scale</name>
														<IsTimeVarying>false</IsTimeVarying>
														<ParameterControlType>2</ParameterControlType>
														<LowerBound>0</LowerBound>
														<UpperBound>4000</UpperBound>
														<value>-91445760000000000,100.,0,0,0,0,0,0</value>
													</parameter>
													<parameter authoringApp="PremierePro">
														<parameterid>6</parameterid>
														<name> </name>
														<IsTimeVarying>false</IsTimeVarying>
														<ParameterControlType>4</ParameterControlType>
														<LowerBound>false</LowerBound>
														<UpperBound>true</UpperBound>
														<value>-91445760000000000,true,0,0,0,0,0,0</value>
													</parameter>
													<parameter authoringApp="PremierePro">
														<parameterid>7</parameterid>
														<name>Rotation</name>
														<IsTimeVarying>false</IsTimeVarying>
														<ParameterControlType>3</ParameterControlType>
														<LowerBound>-32768</LowerBound>
														<UpperBound>32767</UpperBound>
														<value>-91445760000000000,0.,0,0,0,0,0,0</value>
													</parameter>
													<parameter authoringApp="PremierePro">
														<parameterid>8</parameterid>
														<name>Opacity</name>
														<IsTimeVarying>false</IsTimeVarying>
														<ParameterControlType>2</ParameterControlType>
														<LowerBound>0</LowerBound>
														<UpperBound>100</UpperBound>
														<value>-91445760000000000,100.,0,0,0,0,0,0</value>
													</parameter>
													<parameter authoringApp="PremierePro">
														<parameterid>9</parameterid>
														<name>Anchor Point</name>
														<IsTimeVarying>false</IsTimeVarying>
														<value>-91445760000000000,0:0,0,0,0,0,0,0,5,4,0,0,0,0</value>
													</parameter>
													<parameter authoringApp="PremierePro">
														<parameterid>10</parameterid>
														<name></name>
														<IsTimeVarying>false</IsTimeVarying>
														<ParameterControlType>12</ParameterControlType>
														<LowerBound>false</LowerBound>
														<UpperBound>false</UpperBound>
														<value>-91445760000000000,false,0,0,0,0,0,0</value>
													</parameter>
													<parameter authoringApp="PremierePro">
														<parameterid>11</parameterid>
														<name> </name>
														<IsTimeVarying>false</IsTimeVarying>
														<ParameterControlType>8</ParameterControlType>
														<LowerBound>0</LowerBound>
														<UpperBound>32768</UpperBound>
														<value>-91445760000000000,0.,0,0,0,0,0,0</value>
													</parameter>
													<parameter authoringApp="PremierePro">
														<parameterid>12</parameterid>
														<name> </name>
														<IsTimeVarying>false</IsTimeVarying>
														<ParameterControlType>8</ParameterControlType>
														<LowerBound>0</LowerBound>
														<UpperBound>32768</UpperBound>
														<value>-91445760000000000,0.,0,0,0,0,0,0</value>
													</parameter>
													<parameter authoringApp="PremierePro">
														<parameterid>13</parameterid>
														<name>start</name>
														<IsTimeVarying>false</IsTimeVarying>
														<ParameterControlType>8</ParameterControlType>
														<LowerBound>-100</LowerBound>
														<UpperBound>1000000000</UpperBound>
														<value>-91445760000000000,0.,0,0,0,0,0,0</value>
													</parameter>
													<parameter authoringApp="PremierePro">
														<parameterid>14</parameterid>
														<name>end</name>
														<IsTimeVarying>false</IsTimeVarying>
														<ParameterControlType>8</ParameterControlType>
														<LowerBound>-100</LowerBound>
														<UpperBound>1000000000</UpperBound>
														<value>-91445760000000000,0.,0,0,0,0,0,0</value>
													</parameter>
													<parameter authoringApp="PremierePro">
														<parameterid>15</parameterid>
														<name> </name>
														<IsTimeVarying>false</IsTimeVarying>
														<ParameterControlType>4</ParameterControlType>
														<LowerBound>false</LowerBound>
														<UpperBound>true</UpperBound>
														<value>-91445760000000000,false,0,0,0,0,0,0</value>
													</parameter>
													<parameter authoringApp="PremierePro">
														<parameterid>16</parameterid>
														<name> </name>
														<IsTimeVarying>false</IsTimeVarying>
														<ParameterControlType>4</ParameterControlType>
														<LowerBound>false</LowerBound>
														<UpperBound>true</UpperBound>
														<value>-91445760000000000,false,0,0,0,0,0,0</value>
													</parameter>
													<parameter authoringApp="PremierePro">
														<parameterid>17</parameterid>
														<name> </name>
														<IsTimeVarying>false</IsTimeVarying>
														<ParameterControlType>4</ParameterControlType>
														<LowerBound>false</LowerBound>
														<UpperBound>true</UpperBound>
														<value>-91445760000000000,false,0,0,0,0,0,0</value>
													</parameter>
													<parameter authoringApp="PremierePro">
														<parameterid>18</parameterid>
														<name> </name>
														<IsTimeVarying>false</IsTimeVarying>
														<ParameterControlType>4</ParameterControlType>
														<LowerBound>false</LowerBound>
														<UpperBound>true</UpperBound>
														<value>-91445760000000000,false,0,0,0,0,0,0</value>
													</parameter>
													<parameter authoringApp="PremierePro">
														<parameterid>19</parameterid>
														<name>Parent Width</name>
														<IsTimeVarying>false</IsTimeVarying>
														<ParameterControlType>2</ParameterControlType>
														<LowerBound>0</LowerBound>
														<UpperBound>20000</UpperBound>
														<value>-91445760000000000,0.,0,0,0,0,0,0</value>
													</parameter>
													<parameter authoringApp="PremierePro">
														<parameterid>20</parameterid>
														<name>Parent Height</name>
														<IsTimeVarying>false</IsTimeVarying>
														<ParameterControlType>2</ParameterControlType>
														<LowerBound>0</LowerBound>
														<UpperBound>20000</UpperBound>
														<value>-91445760000000000,0.,0,0,0,0,0,0</value>
													</parameter>
													<parameter authoringApp="PremierePro">
														<parameterid>21</parameterid>
														<name>Parent Rotation</name>
														<IsTimeVarying>false</IsTimeVarying>
														<ParameterControlType>3</ParameterControlType>
														<LowerBound>-32768</LowerBound>
														<UpperBound>32767</UpperBound>
														<value>-91445760000000000,0.,0,0,0,0,0,0</value>
													</parameter>
												</effect>
											</filter>
											<logginginfo>
												<description></description>
												<scene></scene>
												<shottake></shottake>
												<lognote></lognote>
												<good></good>
												<originalvideofilename></originalvideofilename>
												<originalaudiofilename></originalaudiofilename>
											</logginginfo>
											<colorinfo>
												<lut></lut>
												<lut1></lut1>
												<asc_sop></asc_sop>
												<asc_sat></asc_sat>
												<lut2></lut2>
											</colorinfo>
										</clipitem>
										<enabled>TRUE</enabled>
										<locked>FALSE</locked>
									</track>
									<track TL.SQTrackShy="0" TL.SQTrackExpandedHeight="25" TL.SQTrackExpanded="0" MZ.TrackTargeted="0">
										<transitionitem>
											<start>167</start>
											<end>224</end>
											<alignment>start-black</alignment>
											<cutPointTicks>0</cutPointTicks>
											<rate>
												<timebase>25</timebase>
												<ntsc>FALSE</ntsc>
											</rate>
											<effect>
												<name>Edge Wipe</name>
												<effectid>Edge Wipe</effectid>
												<effectcategory>Wipe</effectcategory>
												<effecttype>transition</effecttype>
												<mediatype>video</mediatype>
												<wipecode>2</wipecode>
												<wipeaccuracy>100</wipeaccuracy>
												<startratio>0</startratio>
												<endratio>1</endratio>
												<reverse>FALSE</reverse>
												<parameter authoringApp="PremierePro">
													<parameterid>directionofwipe</parameterid>
													<name>Angle</name>
													<valuemin>-360</valuemin>
													<valuemax>360</valuemax>
													<value>90</value>
												</parameter>
											</effect>
										</transitionitem>
										<clipitem id="clipitem-1738">
											<masterclipid>masterclip-735</masterclipid>
											<name>9.png</name>
											<enabled>TRUE</enabled>
											<duration>1080000</duration>
											<rate>
												<timebase>25</timebase>
												<ntsc>FALSE</ntsc>
											</rate>
											<start>-1</start>
											<end>-1</end>
											<in>90042</in>
											<out>90225</out>
											<pproTicksIn>914884346880000</pproTicksIn>
											<pproTicksOut>916743744000000</pproTicksOut>
											<alphatype>straight</alphatype>
											<pixelaspectratio>square</pixelaspectratio>
											<anamorphic>FALSE</anamorphic>
											<file id="file-610">
												<name>10.png</name>
												<pathurl>file://localhost/_MUZ_TV/project_AP/RU/_TITLE/469/10.png</pathurl>
												<rate>
													<timebase>30</timebase>
													<ntsc>TRUE</ntsc>
												</rate>
												<timecode>
													<rate>
														<timebase>30</timebase>
														<ntsc>TRUE</ntsc>
													</rate>
													<string>00;00;00;00</string>
													<frame>0</frame>
													<displayformat>DF</displayformat>
												</timecode>
												<media>
													<video>
														<samplecharacteristics>
															<rate>
																<timebase>30</timebase>
																<ntsc>TRUE</ntsc>
															</rate>
															<width>1920</width>
															<height>1080</height>
															<anamorphic>FALSE</anamorphic>
															<pixelaspectratio>square</pixelaspectratio>
															<fielddominance>none</fielddominance>
														</samplecharacteristics>
													</video>
												</media>
											</file>
											<filter>
												<effect>
													<name>Basic Motion</name>
													<effectid>basic</effectid>
													<effectcategory>motion</effectcategory>
													<effecttype>motion</effecttype>
													<mediatype>video</mediatype>
													<pproBypass>false</pproBypass>
													<parameter authoringApp="PremierePro">
														<parameterid>scale</parameterid>
														<name>Scale</name>
														<valuemin>0</valuemin>
														<valuemax>1000</valuemax>
														<value>53.3333</value>
													</parameter>
													<parameter authoringApp="PremierePro">
														<parameterid>rotation</parameterid>
														<name>Rotation</name>
														<valuemin>-8640</valuemin>
														<valuemax>8640</valuemax>
														<value>0</value>
													</parameter>
													<parameter authoringApp="PremierePro">
														<parameterid>center</parameterid>
														<name>Center</name>
														<value>
															<horiz>0</horiz>
															<vert>0</vert>
														</value>
													</parameter>
													<parameter authoringApp="PremierePro">
														<parameterid>centerOffset</parameterid>
														<name>Anchor Point</name>
														<value>
															<horiz>0</horiz>
															<vert>0</vert>
														</value>
													</parameter>
													<parameter authoringApp="PremierePro">
														<parameterid>antiflicker</parameterid>
														<name>Anti-flicker Filter</name>
														<valuemin>0.0</valuemin>
														<valuemax>1.0</valuemax>
														<value>0</value>
													</parameter>
												</effect>
											</filter>
											<logginginfo>
												<description></description>
												<scene></scene>
												<shottake></shottake>
												<lognote></lognote>
												<good></good>
												<originalvideofilename></originalvideofilename>
												<originalaudiofilename></originalaudiofilename>
											</logginginfo>
											<colorinfo>
												<lut></lut>
												<lut1></lut1>
												<asc_sop></asc_sop>
												<asc_sat></asc_sat>
												<lut2></lut2>
											</colorinfo>
											<labels>
												<label2>Lavender</label2>
											</labels>
										</clipitem>
										<transitionitem>
											<start>328</start>
											<end>350</end>
											<alignment>end-black</alignment>
											<cutPointTicks>223534080000</cutPointTicks>
											<rate>
												<timebase>25</timebase>
												<ntsc>FALSE</ntsc>
											</rate>
											<effect>
												<name>Edge Wipe</name>
												<effectid>Edge Wipe</effectid>
												<effectcategory>Wipe</effectcategory>
												<effecttype>transition</effecttype>
												<mediatype>video</mediatype>
												<wipecode>2</wipecode>
												<wipeaccuracy>100</wipeaccuracy>
												<startratio>0</startratio>
												<endratio>1</endratio>
												<reverse>FALSE</reverse>
												<parameter authoringApp="PremierePro">
													<parameterid>directionofwipe</parameterid>
													<name>Angle</name>
													<valuemin>-360</valuemin>
													<valuemax>360</valuemax>
													<value>90</value>
												</parameter>
											</effect>
										</transitionitem>
										<enabled>TRUE</enabled>
										<locked>FALSE</locked>
									</track>
									<track TL.SQTrackShy="0" TL.SQTrackExpandedHeight="25" TL.SQTrackExpanded="0" MZ.TrackTargeted="0">
										<transitionitem>
											<start>167</start>
											<end>224</end>
											<alignment>start-black</alignment>
											<cutPointTicks>0</cutPointTicks>
											<rate>
												<timebase>25</timebase>
												<ntsc>FALSE</ntsc>
											</rate>
											<effect>
												<name>Edge Wipe</name>
												<effectid>Edge Wipe</effectid>
												<effectcategory>Wipe</effectcategory>
												<effecttype>transition</effecttype>
												<mediatype>video</mediatype>
												<wipecode>2</wipecode>
												<wipeaccuracy>100</wipeaccuracy>
												<startratio>0</startratio>
												<endratio>1</endratio>
												<reverse>FALSE</reverse>
												<parameter authoringApp="PremierePro">
													<parameterid>directionofwipe</parameterid>
													<name>Angle</name>
													<valuemin>-360</valuemin>
													<valuemax>360</valuemax>
													<value>90</value>
												</parameter>
											</effect>
										</transitionitem>
										<clipitem id="clipitem-1739">
											<masterclipid>masterclip-736</masterclipid>
											<name>Graphic</name>
											<enabled>FALSE</enabled>
											<duration>1080000</duration>
											<rate>
												<timebase>25</timebase>
												<ntsc>FALSE</ntsc>
											</rate>
											<start>-1</start>
											<end>-1</end>
											<in>89998</in>
											<out>90181</out>
											<pproTicksIn>914437278720000</pproTicksIn>
											<pproTicksOut>916296675840000</pproTicksOut>
											<alphatype>straight</alphatype>
											<pixelaspectratio>PAL-601</pixelaspectratio>
											<anamorphic>TRUE</anamorphic>
											<file id="file-611">
												<name>Graphic</name>
												<mediaSource>GraphicAndType</mediaSource>
												<rate>
													<timebase>30</timebase>
													<ntsc>TRUE</ntsc>
												</rate>
												<timecode>
													<rate>
														<timebase>30</timebase>
														<ntsc>TRUE</ntsc>
													</rate>
													<string>00;00;00;00</string>
													<frame>0</frame>
													<displayformat>DF</displayformat>
												</timecode>
												<media>
													<video>
														<samplecharacteristics>
															<rate>
																<timebase>30</timebase>
																<ntsc>TRUE</ntsc>
															</rate>
															<width>720</width>
															<height>576</height>
															<anamorphic>TRUE</anamorphic>
															<pixelaspectratio>PAL-601</pixelaspectratio>
															<fielddominance>none</fielddominance>
														</samplecharacteristics>
													</video>
												</media>
											</file>
											<filter>
												<effect>
													<name>АРТУР ПИРОЖКОВ&#13;ЛЕТОМ НА ФИЕСТЕ</name>
													<effectid>GraphicAndType</effectid>
													<effectcategory>graphic</effectcategory>
													<effecttype>filter</effecttype>
													<mediatype>video</mediatype>
													<pproBypass>false</pproBypass>
													<pproExpanded>true</pproExpanded>
													<parameter authoringApp="PremierePro">
														<parameterid>1</parameterid>
														<name>Source Text</name>
														<hash>dc092258-f6b9-fd91-a76f-c3e700000476</hash>
													</parameter>
													<parameter authoringApp="PremierePro">
														<parameterid>2</parameterid>
														<name>Transform</name>
														<IsTimeVarying>false</IsTimeVarying>
														<ParameterControlType>11</ParameterControlType>
														<LowerBound>false</LowerBound>
														<UpperBound>false</UpperBound>
														<value>-91445760000000000,false,0,0,0,0,0,0</value>
													</parameter>
													<parameter authoringApp="PremierePro">
														<parameterid>3</parameterid>
														<name>Position</name>
														<IsTimeVarying>false</IsTimeVarying>
														<value>-91445760000000000,0.36944580078125:0.86468505859375,0,0,0,0,0,0,5,4,0,0,0,0</value>
													</parameter>
													<parameter authoringApp="PremierePro">
														<parameterid>4</parameterid>
														<name>Scale</name>
														<IsTimeVarying>false</IsTimeVarying>
														<ParameterControlType>2</ParameterControlType>
														<LowerBound>0</LowerBound>
														<UpperBound>4000</UpperBound>
														<value>-91445760000000000,100.,0,0,0,0,0,0</value>
													</parameter>
													<parameter authoringApp="PremierePro">
														<parameterid>5</parameterid>
														<name>Horizontal Scale</name>
														<IsTimeVarying>false</IsTimeVarying>
														<ParameterControlType>2</ParameterControlType>
														<LowerBound>0</LowerBound>
														<UpperBound>4000</UpperBound>
														<value>-91445760000000000,100.,0,0,0,0,0,0</value>
													</parameter>
													<parameter authoringApp="PremierePro">
														<parameterid>6</parameterid>
														<name> </name>
														<IsTimeVarying>false</IsTimeVarying>
														<ParameterControlType>4</ParameterControlType>
														<LowerBound>false</LowerBound>
														<UpperBound>true</UpperBound>
														<value>-91445760000000000,true,0,0,0,0,0,0</value>
													</parameter>
													<parameter authoringApp="PremierePro">
														<parameterid>7</parameterid>
														<name>Rotation</name>
														<IsTimeVarying>false</IsTimeVarying>
														<ParameterControlType>3</ParameterControlType>
														<LowerBound>-32768</LowerBound>
														<UpperBound>32767</UpperBound>
														<value>-91445760000000000,0.,0,0,0,0,0,0</value>
													</parameter>
													<parameter authoringApp="PremierePro">
														<parameterid>8</parameterid>
														<name>Opacity</name>
														<IsTimeVarying>false</IsTimeVarying>
														<ParameterControlType>2</ParameterControlType>
														<LowerBound>0</LowerBound>
														<UpperBound>100</UpperBound>
														<value>-91445760000000000,100.,0,0,0,0,0,0</value>
													</parameter>
													<parameter authoringApp="PremierePro">
														<parameterid>9</parameterid>
														<name>Anchor Point</name>
														<IsTimeVarying>false</IsTimeVarying>
														<value>-91445760000000000,0:0,0,0,0,0,0,0,5,4,0,0,0,0</value>
													</parameter>
													<parameter authoringApp="PremierePro">
														<parameterid>10</parameterid>
														<name></name>
														<IsTimeVarying>false</IsTimeVarying>
														<ParameterControlType>12</ParameterControlType>
														<LowerBound>false</LowerBound>
														<UpperBound>false</UpperBound>
														<value>-91445760000000000,false,0,0,0,0,0,0</value>
													</parameter>
													<parameter authoringApp="PremierePro">
														<parameterid>11</parameterid>
														<name> </name>
														<IsTimeVarying>false</IsTimeVarying>
														<ParameterControlType>8</ParameterControlType>
														<LowerBound>0</LowerBound>
														<UpperBound>32768</UpperBound>
														<value>-91445760000000000,0.,0,0,0,0,0,0</value>
													</parameter>
													<parameter authoringApp="PremierePro">
														<parameterid>12</parameterid>
														<name> </name>
														<IsTimeVarying>false</IsTimeVarying>
														<ParameterControlType>8</ParameterControlType>
														<LowerBound>0</LowerBound>
														<UpperBound>32768</UpperBound>
														<value>-91445760000000000,0.,0,0,0,0,0,0</value>
													</parameter>
													<parameter authoringApp="PremierePro">
														<parameterid>13</parameterid>
														<name>start</name>
														<IsTimeVarying>false</IsTimeVarying>
														<ParameterControlType>8</ParameterControlType>
														<LowerBound>-100</LowerBound>
														<UpperBound>1000000000</UpperBound>
														<value>-91445760000000000,30.,0,0,0,0,0,0</value>
													</parameter>
													<parameter authoringApp="PremierePro">
														<parameterid>14</parameterid>
														<name>end</name>
														<IsTimeVarying>false</IsTimeVarying>
														<ParameterControlType>8</ParameterControlType>
														<LowerBound>-100</LowerBound>
														<UpperBound>1000000000</UpperBound>
														<value>-91445760000000000,30.,0,0,0,0,0,0</value>
													</parameter>
													<parameter authoringApp="PremierePro">
														<parameterid>15</parameterid>
														<name> </name>
														<IsTimeVarying>false</IsTimeVarying>
														<ParameterControlType>4</ParameterControlType>
														<LowerBound>false</LowerBound>
														<UpperBound>true</UpperBound>
														<value>-91445760000000000,false,0,0,0,0,0,0</value>
													</parameter>
													<parameter authoringApp="PremierePro">
														<parameterid>16</parameterid>
														<name> </name>
														<IsTimeVarying>false</IsTimeVarying>
														<ParameterControlType>4</ParameterControlType>
														<LowerBound>false</LowerBound>
														<UpperBound>true</UpperBound>
														<value>-91445760000000000,false,0,0,0,0,0,0</value>
													</parameter>
													<parameter authoringApp="PremierePro">
														<parameterid>17</parameterid>
														<name> </name>
														<IsTimeVarying>false</IsTimeVarying>
														<ParameterControlType>4</ParameterControlType>
														<LowerBound>false</LowerBound>
														<UpperBound>true</UpperBound>
														<value>-91445760000000000,false,0,0,0,0,0,0</value>
													</parameter>
													<parameter authoringApp="PremierePro">
														<parameterid>18</parameterid>
														<name> </name>
														<IsTimeVarying>false</IsTimeVarying>
														<ParameterControlType>4</ParameterControlType>
														<LowerBound>false</LowerBound>
														<UpperBound>true</UpperBound>
														<value>-91445760000000000,false,0,0,0,0,0,0</value>
													</parameter>
													<parameter authoringApp="PremierePro">
														<parameterid>19</parameterid>
														<name>Parent Width</name>
														<IsTimeVarying>false</IsTimeVarying>
														<ParameterControlType>2</ParameterControlType>
														<LowerBound>0</LowerBound>
														<UpperBound>20000</UpperBound>
														<value>-91445760000000000,0.,0,0,0,0,0,0</value>
													</parameter>
													<parameter authoringApp="PremierePro">
														<parameterid>20</parameterid>
														<name>Parent Height</name>
														<IsTimeVarying>false</IsTimeVarying>
														<ParameterControlType>2</ParameterControlType>
														<LowerBound>0</LowerBound>
														<UpperBound>20000</UpperBound>
														<value>-91445760000000000,0.,0,0,0,0,0,0</value>
													</parameter>
													<parameter authoringApp="PremierePro">
														<parameterid>21</parameterid>
														<name>Parent Rotation</name>
														<IsTimeVarying>false</IsTimeVarying>
														<ParameterControlType>3</ParameterControlType>
														<LowerBound>-32768</LowerBound>
														<UpperBound>32767</UpperBound>
														<value>-91445760000000000,0.,0,0,0,0,0,0</value>
													</parameter>
												</effect>
											</filter>
											<logginginfo>
												<description></description>
												<scene></scene>
												<shottake></shottake>
												<lognote></lognote>
												<good></good>
												<originalvideofilename></originalvideofilename>
												<originalaudiofilename></originalaudiofilename>
											</logginginfo>
											<colorinfo>
												<lut></lut>
												<lut1></lut1>
												<asc_sop></asc_sop>
												<asc_sat></asc_sat>
												<lut2></lut2>
											</colorinfo>
										</clipitem>
										<transitionitem>
											<start>328</start>
											<end>350</end>
											<alignment>end-black</alignment>
											<cutPointTicks>223534080000</cutPointTicks>
											<rate>
												<timebase>25</timebase>
												<ntsc>FALSE</ntsc>
											</rate>
											<effect>
												<name>Edge Wipe</name>
												<effectid>Edge Wipe</effectid>
												<effectcategory>Wipe</effectcategory>
												<effecttype>transition</effecttype>
												<mediatype>video</mediatype>
												<wipecode>2</wipecode>
												<wipeaccuracy>100</wipeaccuracy>
												<startratio>0</startratio>
												<endratio>1</endratio>
												<reverse>FALSE</reverse>
												<parameter authoringApp="PremierePro">
													<parameterid>directionofwipe</parameterid>
													<name>Angle</name>
													<valuemin>-360</valuemin>
													<valuemax>360</valuemax>
													<value>90</value>
												</parameter>
											</effect>
										</transitionitem>
										<enabled>TRUE</enabled>
										<locked>FALSE</locked>
									</track>
								</video>
								<audio>
									<numOutputChannels>2</numOutputChannels>
									<format>
										<samplecharacteristics>
											<depth>16</depth>
											<samplerate>48000</samplerate>
										</samplecharacteristics>
									</format>
									<outputs>
										<group>
											<index>1</index>
											<numchannels>1</numchannels>
											<downmix>0</downmix>
											<channel>
												<index>1</index>
											</channel>
										</group>
										<group>
											<index>2</index>
											<numchannels>1</numchannels>
											<downmix>0</downmix>
											<channel>
												<index>2</index>
											</channel>
										</group>
									</outputs>
									<track TL.SQTrackAudioKeyframeStyle="0" TL.SQTrackShy="0" TL.SQTrackExpandedHeight="25" TL.SQTrackExpanded="0" MZ.TrackTargeted="1" PannerCurrentValue="0.5" PannerStartKeyframe="-91445760000000000,0.5,0,0,0,0,0,0" PannerName="Balance" currentExplodedTrackIndex="0" totalExplodedTrackCount="2" premiereTrackType="Stereo">
										<enabled>TRUE</enabled>
										<locked>FALSE</locked>
										<outputchannelindex>1</outputchannelindex>
									</track>
									<track TL.SQTrackAudioKeyframeStyle="0" TL.SQTrackShy="0" TL.SQTrackExpandedHeight="25" TL.SQTrackExpanded="0" MZ.TrackTargeted="1" PannerCurrentValue="0.5" PannerStartKeyframe="-91445760000000000,0.5,0,0,0,0,0,0" PannerName="Balance" currentExplodedTrackIndex="1" totalExplodedTrackCount="2" premiereTrackType="Stereo">
										<enabled>TRUE</enabled>
										<locked>FALSE</locked>
										<outputchannelindex>2</outputchannelindex>
									</track>
								</audio>
							</media>
							<timecode>
								<rate>
									<timebase>25</timebase>
									<ntsc>FALSE</ntsc>
								</rate>
								<string>00:00:00:00</string>
								<frame>0</frame>
								<displayformat>NDF</displayformat>
							</timecode>
								<marker>
									<comment></comment>
									<name></name>
									<in>125</in>
									<out>-1</out>
									<pproColor>4280578025</pproColor>
								</marker>
							<logginginfo>
								<description></description>
								<scene></scene>
								<shottake></shottake>
								<lognote></lognote>
								<good></good>
								<originalvideofilename></originalvideofilename>
								<originalaudiofilename></originalaudiofilename>
							</logginginfo>
						</sequence>
							<marker>
								<comment></comment>
								<name></name>
								<in>125</in>
								<out>-1</out>
								<pproColor>4280578025</pproColor>
							</marker>
						<labels>
							<label2>Forest</label2>
						</labels>
					</clipitem>
					<clipitem id="clipitem-1740">
						<masterclipid>masterclip-732</masterclipid>
						<name>10</name>
						<enabled>TRUE</enabled>
						<duration>475</duration>
						<rate>
							<timebase>25</timebase>
							<ntsc>FALSE</ntsc>
						</rate>
						<start>14695</start>
						<end>15046</end>
						<in>124</in>
						<out>475</out>
						<pproTicksIn>1259919360000</pproTicksIn>
						<pproTicksOut>4826304000000</pproTicksOut>
						<sequence id="sequence-135"/>
							<marker>
								<comment></comment>
								<name></name>
								<in>125</in>
								<out>-1</out>
								<pproColor>4280578025</pproColor>
							</marker>
						<labels>
							<label2>Forest</label2>
						</labels>
					</clipitem>
					<clipitem id="clipitem-1741">
						<masterclipid>masterclip-737</masterclipid>
						<name>9_TITLE</name>
						<enabled>TRUE</enabled>
						<duration>475</duration>
						<rate>
							<timebase>25</timebase>
							<ntsc>FALSE</ntsc>
						</rate>
						<start>15727</start>
						<end>16077</end>
						<in>0</in>
						<out>475</out>
						<pproTicksIn>0</pproTicksIn>
						<pproTicksOut>4826304000000</pproTicksOut>
						<sequence id="sequence-136" TL.SQAudioVisibleBase="0" TL.SQVideoVisibleBase="0" TL.SQVisibleBaseTime="0" TL.SQAVDividerPosition="0.5" TL.SQHideShyTracks="0" TL.SQHeaderWidth="236" TL.SQDataTrackViewControlState="0" Monitor.ProgramZoomOut="4826304000000" Monitor.ProgramZoomIn="0" TL.SQTimePerPixel="0.024999999999999998" AM.TrackVScrollPosition="0" AM.TrackScrollPosition="0" MZ.EditLine="1473292800000" MZ.Sequence.PreviewFrameSizeHeight="576" MZ.Sequence.PreviewFrameSizeWidth="720" MZ.Sequence.AudioTimeDisplayFormat="200" MZ.Sequence.PreviewRenderingClassID="1061109567" MZ.Sequence.PreviewRenderingPresetCodec="1685480304" MZ.Sequence.PreviewRenderingPresetPath="EncoderPresets/SequencePreview/04be6e19-a018-4e0c-a9d6-0ab44c64752b/QuickTime DV PAL.epr" MZ.Sequence.PreviewUseMaxRenderQuality="false" MZ.Sequence.PreviewUseMaxBitDepth="false" MZ.Sequence.EditingModeGUID="04be6e19-a018-4e0c-a9d6-0ab44c64752b" MZ.Sequence.VideoTimeDisplayFormat="101" MZ.WorkOutPoint="4826304000000" MZ.WorkInPoint="0" MZ.ZeroPoint="0">
							<duration>475</duration>
							<rate>
								<timebase>25</timebase>
								<ntsc>FALSE</ntsc>
							</rate>
							<name>титр</name>
							<media>
								<video>
									<format>
										<samplecharacteristics>
											<rate>
												<timebase>25</timebase>
												<ntsc>FALSE</ntsc>
											</rate>
											<codec>
												<name>Apple ProRes 422</name>
												<appspecificdata>
													<appname>Final Cut Pro</appname>
													<appmanufacturer>Apple Inc.</appmanufacturer>
													<appversion>7.0</appversion>
													<data>
														<qtcodec>
															<codecname>Apple ProRes 422</codecname>
															<codectypename>Apple ProRes 422</codectypename>
															<codectypecode>apcn</codectypecode>
															<codecvendorcode>appl</codecvendorcode>
															<spatialquality>1024</spatialquality>
															<temporalquality>0</temporalquality>
															<keyframerate>0</keyframerate>
															<datarate>0</datarate>
														</qtcodec>
													</data>
												</appspecificdata>
											</codec>
											<width>720</width>
											<height>576</height>
											<anamorphic>TRUE</anamorphic>
											<pixelaspectratio>PAL-601</pixelaspectratio>
											<fielddominance>lower</fielddominance>
											<colordepth>24</colordepth>
										</samplecharacteristics>
									</format>
									<track TL.SQTrackShy="0" TL.SQTrackExpandedHeight="25" TL.SQTrackExpanded="0" MZ.TrackTargeted="1">
										<clipitem id="clipitem-1742">
											<masterclipid>masterclip-738</masterclipid>
											<name>9_title.mov</name>
											<enabled>TRUE</enabled>
											<duration>225</duration>
											<rate>
												<timebase>25</timebase>
												<ntsc>FALSE</ntsc>
											</rate>
											<start>125</start>
											<end>350</end>
											<in>0</in>
											<out>225</out>
											<pproTicksIn>0</pproTicksIn>
											<pproTicksOut>2286144000000</pproTicksOut>
											<alphatype>straight</alphatype>
											<pixelaspectratio>square</pixelaspectratio>
											<anamorphic>FALSE</anamorphic>
											<file id="file-612">
												<name>9_title.mov</name>
												<pathurl>file://localhost/_MUZ_TV/graphika/RU-21/MOD/title_plashka/9_title.mov</pathurl>
												<rate>
													<timebase>25</timebase>
													<ntsc>FALSE</ntsc>
												</rate>
												<duration>225</duration>
												<timecode>
													<rate>
														<timebase>25</timebase>
														<ntsc>FALSE</ntsc>
													</rate>
													<string>00:00:09:00</string>
													<frame>225</frame>
													<displayformat>NDF</displayformat>
												</timecode>
												<media>
													<video>
														<samplecharacteristics>
															<rate>
																<timebase>25</timebase>
																<ntsc>FALSE</ntsc>
															</rate>
															<width>1920</width>
															<height>1080</height>
															<anamorphic>FALSE</anamorphic>
															<pixelaspectratio>square</pixelaspectratio>
															<fielddominance>none</fielddominance>
														</samplecharacteristics>
													</video>
												</media>
											</file>
											<filter>
												<effect>
													<name>Basic Motion</name>
													<effectid>basic</effectid>
													<effectcategory>motion</effectcategory>
													<effecttype>motion</effecttype>
													<mediatype>video</mediatype>
													<pproBypass>false</pproBypass>
													<parameter authoringApp="PremierePro">
														<parameterid>scale</parameterid>
														<name>Scale</name>
														<valuemin>0</valuemin>
														<valuemax>1000</valuemax>
														<value>55</value>
													</parameter>
													<parameter authoringApp="PremierePro">
														<parameterid>rotation</parameterid>
														<name>Rotation</name>
														<valuemin>-8640</valuemin>
														<valuemax>8640</valuemax>
														<value>0</value>
													</parameter>
													<parameter authoringApp="PremierePro">
														<parameterid>center</parameterid>
														<name>Center</name>
														<value>
															<horiz>0</horiz>
															<vert>0</vert>
														</value>
													</parameter>
													<parameter authoringApp="PremierePro">
														<parameterid>centerOffset</parameterid>
														<name>Anchor Point</name>
														<value>
															<horiz>0</horiz>
															<vert>0</vert>
														</value>
													</parameter>
													<parameter authoringApp="PremierePro">
														<parameterid>antiflicker</parameterid>
														<name>Anti-flicker Filter</name>
														<valuemin>0.0</valuemin>
														<valuemax>1.0</valuemax>
														<value>0</value>
													</parameter>
												</effect>
											</filter>
											<filter>
												<effect>
													<name>Distort</name>
													<effectid>deformation</effectid>
													<effectcategory>motion</effectcategory>
													<effecttype>motion</effecttype>
													<mediatype>video</mediatype>
													<parameter authoringApp="PremierePro">
														<parameterid>aspect</parameterid>
														<name>Aspect</name>
														<valuemin>-10000</valuemin>
														<valuemax>10000</valuemax>
														<value>-3.12506</value>
													</parameter>
												</effect>
											</filter>
											<logginginfo>
												<description></description>
												<scene></scene>
												<shottake></shottake>
												<lognote></lognote>
												<good></good>
												<originalvideofilename></originalvideofilename>
												<originalaudiofilename></originalaudiofilename>
											</logginginfo>
											<colorinfo>
												<lut></lut>
												<lut1></lut1>
												<asc_sop></asc_sop>
												<asc_sat></asc_sat>
												<lut2></lut2>
											</colorinfo>
											<labels>
												<label2>Violet</label2>
											</labels>
										</clipitem>
										<clipitem id="clipitem-1743">
											<masterclipid>masterclip-739</masterclipid>
											<name>Graphic</name>
											<enabled>FALSE</enabled>
											<duration>1080000</duration>
											<rate>
												<timebase>25</timebase>
												<ntsc>FALSE</ntsc>
											</rate>
											<start>350</start>
											<end>475</end>
											<in>90000</in>
											<out>90125</out>
											<pproTicksIn>914457600000000</pproTicksIn>
											<pproTicksOut>915727680000000</pproTicksOut>
											<alphatype>straight</alphatype>
											<pixelaspectratio>PAL-601</pixelaspectratio>
											<anamorphic>TRUE</anamorphic>
											<file id="file-613">
												<name>Graphic</name>
												<mediaSource>GraphicAndType</mediaSource>
												<rate>
													<timebase>30</timebase>
													<ntsc>TRUE</ntsc>
												</rate>
												<timecode>
													<rate>
														<timebase>30</timebase>
														<ntsc>TRUE</ntsc>
													</rate>
													<string>00;00;00;00</string>
													<frame>0</frame>
													<displayformat>DF</displayformat>
												</timecode>
												<media>
													<video>
														<samplecharacteristics>
															<rate>
																<timebase>30</timebase>
																<ntsc>TRUE</ntsc>
															</rate>
															<width>720</width>
															<height>576</height>
															<anamorphic>TRUE</anamorphic>
															<pixelaspectratio>PAL-601</pixelaspectratio>
															<fielddominance>none</fielddominance>
														</samplecharacteristics>
													</video>
												</media>
											</file>
											<filter>
												<effect>
													<name>Basic Motion</name>
													<effectid>basic</effectid>
													<effectcategory>motion</effectcategory>
													<effecttype>motion</effecttype>
													<mediatype>video</mediatype>
													<pproBypass>false</pproBypass>
													<parameter authoringApp="PremierePro">
														<parameterid>scale</parameterid>
														<name>Scale</name>
														<valuemin>0</valuemin>
														<valuemax>1000</valuemax>
														<value>133.333</value>
													</parameter>
													<parameter authoringApp="PremierePro">
														<parameterid>rotation</parameterid>
														<name>Rotation</name>
														<valuemin>-8640</valuemin>
														<valuemax>8640</valuemax>
														<value>0</value>
													</parameter>
													<parameter authoringApp="PremierePro">
														<parameterid>center</parameterid>
														<name>Center</name>
														<value>
															<horiz>0</horiz>
															<vert>0</vert>
														</value>
													</parameter>
													<parameter authoringApp="PremierePro">
														<parameterid>centerOffset</parameterid>
														<name>Anchor Point</name>
														<value>
															<horiz>0</horiz>
															<vert>0</vert>
														</value>
													</parameter>
													<parameter authoringApp="PremierePro">
														<parameterid>antiflicker</parameterid>
														<name>Anti-flicker Filter</name>
														<valuemin>0.0</valuemin>
														<valuemax>1.0</valuemax>
														<value>0</value>
													</parameter>
												</effect>
											</filter>
											<filter>
												<effect>
													<name>Distort</name>
													<effectid>deformation</effectid>
													<effectcategory>motion</effectcategory>
													<effecttype>motion</effecttype>
													<mediatype>video</mediatype>
													<parameter authoringApp="PremierePro">
														<parameterid>aspect</parameterid>
														<name>Aspect</name>
														<valuemin>-10000</valuemin>
														<valuemax>10000</valuemax>
														<value>-33.333</value>
													</parameter>
												</effect>
											</filter>
											<filter>
												<effect>
													<name></name>
													<effectid>GraphicAndType</effectid>
													<effectcategory>graphic</effectcategory>
													<effecttype>filter</effecttype>
													<mediatype>video</mediatype>
													<pproBypass>false</pproBypass>
													<parameter authoringApp="PremierePro">
														<parameterid>1</parameterid>
														<name>Source Text</name>
														<hash>3f0faa81-c1b0-8370-b66c-fa0b000009f1</hash>
													</parameter>
													<parameter authoringApp="PremierePro">
														<parameterid>2</parameterid>
														<name>Transform</name>
														<IsTimeVarying>false</IsTimeVarying>
														<ParameterControlType>11</ParameterControlType>
														<LowerBound>false</LowerBound>
														<UpperBound>false</UpperBound>
														<value>-91445760000000000,false,0,0,0,0,0,0</value>
													</parameter>
													<parameter authoringApp="PremierePro">
														<parameterid>3</parameterid>
														<name>Position</name>
														<IsTimeVarying>false</IsTimeVarying>
														<value>-91445760000000000,0.55605381727218628:0.73039215803146362,0,0,0,0,0,0,5,4,0,0,0,0</value>
													</parameter>
													<parameter authoringApp="PremierePro">
														<parameterid>4</parameterid>
														<name>Scale</name>
														<IsTimeVarying>false</IsTimeVarying>
														<ParameterControlType>2</ParameterControlType>
														<LowerBound>0</LowerBound>
														<UpperBound>4000</UpperBound>
														<value>-91445760000000000,100.,0,0,0,0,0,0</value>
													</parameter>
													<parameter authoringApp="PremierePro">
														<parameterid>5</parameterid>
														<name>Horizontal Scale</name>
														<IsTimeVarying>false</IsTimeVarying>
														<ParameterControlType>2</ParameterControlType>
														<LowerBound>0</LowerBound>
														<UpperBound>4000</UpperBound>
														<value>-91445760000000000,100.,0,0,0,0,0,0</value>
													</parameter>
													<parameter authoringApp="PremierePro">
														<parameterid>6</parameterid>
														<name> </name>
														<IsTimeVarying>false</IsTimeVarying>
														<ParameterControlType>4</ParameterControlType>
														<LowerBound>false</LowerBound>
														<UpperBound>true</UpperBound>
														<value>-91445760000000000,true,0,0,0,0,0,0</value>
													</parameter>
													<parameter authoringApp="PremierePro">
														<parameterid>7</parameterid>
														<name>Rotation</name>
														<IsTimeVarying>false</IsTimeVarying>
														<ParameterControlType>3</ParameterControlType>
														<LowerBound>-32768</LowerBound>
														<UpperBound>32767</UpperBound>
														<value>-91445760000000000,0.,0,0,0,0,0,0</value>
													</parameter>
													<parameter authoringApp="PremierePro">
														<parameterid>8</parameterid>
														<name>Opacity</name>
														<IsTimeVarying>false</IsTimeVarying>
														<ParameterControlType>2</ParameterControlType>
														<LowerBound>0</LowerBound>
														<UpperBound>100</UpperBound>
														<value>-91445760000000000,100.,0,0,0,0,0,0</value>
													</parameter>
													<parameter authoringApp="PremierePro">
														<parameterid>9</parameterid>
														<name>Anchor Point</name>
														<IsTimeVarying>false</IsTimeVarying>
														<value>-91445760000000000,0:0,0,0,0,0,0,0,5,4,0,0,0,0</value>
													</parameter>
													<parameter authoringApp="PremierePro">
														<parameterid>10</parameterid>
														<name></name>
														<IsTimeVarying>false</IsTimeVarying>
														<ParameterControlType>12</ParameterControlType>
														<LowerBound>false</LowerBound>
														<UpperBound>false</UpperBound>
														<value>-91445760000000000,false,0,0,0,0,0,0</value>
													</parameter>
													<parameter authoringApp="PremierePro">
														<parameterid>11</parameterid>
														<name> </name>
														<IsTimeVarying>false</IsTimeVarying>
														<ParameterControlType>8</ParameterControlType>
														<LowerBound>0</LowerBound>
														<UpperBound>32768</UpperBound>
														<value>-91445760000000000,0.,0,0,0,0,0,0</value>
													</parameter>
													<parameter authoringApp="PremierePro">
														<parameterid>12</parameterid>
														<name> </name>
														<IsTimeVarying>false</IsTimeVarying>
														<ParameterControlType>8</ParameterControlType>
														<LowerBound>0</LowerBound>
														<UpperBound>32768</UpperBound>
														<value>-91445760000000000,0.,0,0,0,0,0,0</value>
													</parameter>
													<parameter authoringApp="PremierePro">
														<parameterid>13</parameterid>
														<name>start</name>
														<IsTimeVarying>false</IsTimeVarying>
														<ParameterControlType>8</ParameterControlType>
														<LowerBound>-100</LowerBound>
														<UpperBound>1000000000</UpperBound>
														<value>-91445760000000000,0.,0,0,0,0,0,0</value>
													</parameter>
													<parameter authoringApp="PremierePro">
														<parameterid>14</parameterid>
														<name>end</name>
														<IsTimeVarying>false</IsTimeVarying>
														<ParameterControlType>8</ParameterControlType>
														<LowerBound>-100</LowerBound>
														<UpperBound>1000000000</UpperBound>
														<value>-91445760000000000,0.,0,0,0,0,0,0</value>
													</parameter>
													<parameter authoringApp="PremierePro">
														<parameterid>15</parameterid>
														<name> </name>
														<IsTimeVarying>false</IsTimeVarying>
														<ParameterControlType>4</ParameterControlType>
														<LowerBound>false</LowerBound>
														<UpperBound>true</UpperBound>
														<value>-91445760000000000,false,0,0,0,0,0,0</value>
													</parameter>
													<parameter authoringApp="PremierePro">
														<parameterid>16</parameterid>
														<name> </name>
														<IsTimeVarying>false</IsTimeVarying>
														<ParameterControlType>4</ParameterControlType>
														<LowerBound>false</LowerBound>
														<UpperBound>true</UpperBound>
														<value>-91445760000000000,false,0,0,0,0,0,0</value>
													</parameter>
													<parameter authoringApp="PremierePro">
														<parameterid>17</parameterid>
														<name> </name>
														<IsTimeVarying>false</IsTimeVarying>
														<ParameterControlType>4</ParameterControlType>
														<LowerBound>false</LowerBound>
														<UpperBound>true</UpperBound>
														<value>-91445760000000000,false,0,0,0,0,0,0</value>
													</parameter>
													<parameter authoringApp="PremierePro">
														<parameterid>18</parameterid>
														<name> </name>
														<IsTimeVarying>false</IsTimeVarying>
														<ParameterControlType>4</ParameterControlType>
														<LowerBound>false</LowerBound>
														<UpperBound>true</UpperBound>
														<value>-91445760000000000,false,0,0,0,0,0,0</value>
													</parameter>
													<parameter authoringApp="PremierePro">
														<parameterid>19</parameterid>
														<name>Parent Width</name>
														<IsTimeVarying>false</IsTimeVarying>
														<ParameterControlType>2</ParameterControlType>
														<LowerBound>0</LowerBound>
														<UpperBound>20000</UpperBound>
														<value>-91445760000000000,0.,0,0,0,0,0,0</value>
													</parameter>
													<parameter authoringApp="PremierePro">
														<parameterid>20</parameterid>
														<name>Parent Height</name>
														<IsTimeVarying>false</IsTimeVarying>
														<ParameterControlType>2</ParameterControlType>
														<LowerBound>0</LowerBound>
														<UpperBound>20000</UpperBound>
														<value>-91445760000000000,0.,0,0,0,0,0,0</value>
													</parameter>
													<parameter authoringApp="PremierePro">
														<parameterid>21</parameterid>
														<name>Parent Rotation</name>
														<IsTimeVarying>false</IsTimeVarying>
														<ParameterControlType>3</ParameterControlType>
														<LowerBound>-32768</LowerBound>
														<UpperBound>32767</UpperBound>
														<value>-91445760000000000,0.,0,0,0,0,0,0</value>
													</parameter>
												</effect>
											</filter>
											<logginginfo>
												<description></description>
												<scene></scene>
												<shottake></shottake>
												<lognote></lognote>
												<good></good>
												<originalvideofilename></originalvideofilename>
												<originalaudiofilename></originalaudiofilename>
											</logginginfo>
											<colorinfo>
												<lut></lut>
												<lut1></lut1>
												<asc_sop></asc_sop>
												<asc_sat></asc_sat>
												<lut2></lut2>
											</colorinfo>
										</clipitem>
										<enabled>TRUE</enabled>
										<locked>FALSE</locked>
									</track>
									<track TL.SQTrackShy="0" TL.SQTrackExpandedHeight="25" TL.SQTrackExpanded="0" MZ.TrackTargeted="0">
										<transitionitem>
											<start>167</start>
											<end>224</end>
											<alignment>start-black</alignment>
											<cutPointTicks>0</cutPointTicks>
											<rate>
												<timebase>25</timebase>
												<ntsc>FALSE</ntsc>
											</rate>
											<effect>
												<name>Edge Wipe</name>
												<effectid>Edge Wipe</effectid>
												<effectcategory>Wipe</effectcategory>
												<effecttype>transition</effecttype>
												<mediatype>video</mediatype>
												<wipecode>2</wipecode>
												<wipeaccuracy>100</wipeaccuracy>
												<startratio>0</startratio>
												<endratio>1</endratio>
												<reverse>FALSE</reverse>
												<parameter authoringApp="PremierePro">
													<parameterid>directionofwipe</parameterid>
													<name>Angle</name>
													<valuemin>-360</valuemin>
													<valuemax>360</valuemax>
													<value>90</value>
												</parameter>
											</effect>
										</transitionitem>
										<clipitem id="clipitem-1744">
											<masterclipid>masterclip-740</masterclipid>
											<name>9.png</name>
											<enabled>TRUE</enabled>
											<duration>1080000</duration>
											<rate>
												<timebase>25</timebase>
												<ntsc>FALSE</ntsc>
											</rate>
											<start>-1</start>
											<end>-1</end>
											<in>90042</in>
											<out>90225</out>
											<pproTicksIn>914884346880000</pproTicksIn>
											<pproTicksOut>916743744000000</pproTicksOut>
											<alphatype>straight</alphatype>
											<pixelaspectratio>square</pixelaspectratio>
											<anamorphic>FALSE</anamorphic>
											<file id="file-614">
												<name>9.png</name>
												<pathurl>file://localhost/_MUZ_TV/project_AP/RU/_TITLE/469/9.png</pathurl>
												<rate>
													<timebase>30</timebase>
													<ntsc>TRUE</ntsc>
												</rate>
												<timecode>
													<rate>
														<timebase>30</timebase>
														<ntsc>TRUE</ntsc>
													</rate>
													<string>00;00;00;00</string>
													<frame>0</frame>
													<displayformat>DF</displayformat>
												</timecode>
												<media>
													<video>
														<samplecharacteristics>
															<rate>
																<timebase>30</timebase>
																<ntsc>TRUE</ntsc>
															</rate>
															<width>1920</width>
															<height>1080</height>
															<anamorphic>FALSE</anamorphic>
															<pixelaspectratio>square</pixelaspectratio>
															<fielddominance>none</fielddominance>
														</samplecharacteristics>
													</video>
												</media>
											</file>
											<filter>
												<effect>
													<name>Basic Motion</name>
													<effectid>basic</effectid>
													<effectcategory>motion</effectcategory>
													<effecttype>motion</effecttype>
													<mediatype>video</mediatype>
													<pproBypass>false</pproBypass>
													<parameter authoringApp="PremierePro">
														<parameterid>scale</parameterid>
														<name>Scale</name>
														<valuemin>0</valuemin>
														<valuemax>1000</valuemax>
														<value>53.3333</value>
													</parameter>
													<parameter authoringApp="PremierePro">
														<parameterid>rotation</parameterid>
														<name>Rotation</name>
														<valuemin>-8640</valuemin>
														<valuemax>8640</valuemax>
														<value>0</value>
													</parameter>
													<parameter authoringApp="PremierePro">
														<parameterid>center</parameterid>
														<name>Center</name>
														<value>
															<horiz>0</horiz>
															<vert>0</vert>
														</value>
													</parameter>
													<parameter authoringApp="PremierePro">
														<parameterid>centerOffset</parameterid>
														<name>Anchor Point</name>
														<value>
															<horiz>0</horiz>
															<vert>0</vert>
														</value>
													</parameter>
													<parameter authoringApp="PremierePro">
														<parameterid>antiflicker</parameterid>
														<name>Anti-flicker Filter</name>
														<valuemin>0.0</valuemin>
														<valuemax>1.0</valuemax>
														<value>0</value>
													</parameter>
												</effect>
											</filter>
											<logginginfo>
												<description></description>
												<scene></scene>
												<shottake></shottake>
												<lognote></lognote>
												<good></good>
												<originalvideofilename></originalvideofilename>
												<originalaudiofilename></originalaudiofilename>
											</logginginfo>
											<colorinfo>
												<lut></lut>
												<lut1></lut1>
												<asc_sop></asc_sop>
												<asc_sat></asc_sat>
												<lut2></lut2>
											</colorinfo>
											<labels>
												<label2>Lavender</label2>
											</labels>
										</clipitem>
										<transitionitem>
											<start>328</start>
											<end>350</end>
											<alignment>end-black</alignment>
											<cutPointTicks>223534080000</cutPointTicks>
											<rate>
												<timebase>25</timebase>
												<ntsc>FALSE</ntsc>
											</rate>
											<effect>
												<name>Edge Wipe</name>
												<effectid>Edge Wipe</effectid>
												<effectcategory>Wipe</effectcategory>
												<effecttype>transition</effecttype>
												<mediatype>video</mediatype>
												<wipecode>2</wipecode>
												<wipeaccuracy>100</wipeaccuracy>
												<startratio>0</startratio>
												<endratio>1</endratio>
												<reverse>FALSE</reverse>
												<parameter authoringApp="PremierePro">
													<parameterid>directionofwipe</parameterid>
													<name>Angle</name>
													<valuemin>-360</valuemin>
													<valuemax>360</valuemax>
													<value>90</value>
												</parameter>
											</effect>
										</transitionitem>
										<enabled>TRUE</enabled>
										<locked>FALSE</locked>
									</track>
									<track TL.SQTrackShy="0" TL.SQTrackExpandedHeight="25" TL.SQTrackExpanded="0" MZ.TrackTargeted="0">
										<transitionitem>
											<start>167</start>
											<end>224</end>
											<alignment>start-black</alignment>
											<cutPointTicks>0</cutPointTicks>
											<rate>
												<timebase>25</timebase>
												<ntsc>FALSE</ntsc>
											</rate>
											<effect>
												<name>Edge Wipe</name>
												<effectid>Edge Wipe</effectid>
												<effectcategory>Wipe</effectcategory>
												<effecttype>transition</effecttype>
												<mediatype>video</mediatype>
												<wipecode>2</wipecode>
												<wipeaccuracy>100</wipeaccuracy>
												<startratio>0</startratio>
												<endratio>1</endratio>
												<reverse>FALSE</reverse>
												<parameter authoringApp="PremierePro">
													<parameterid>directionofwipe</parameterid>
													<name>Angle</name>
													<valuemin>-360</valuemin>
													<valuemax>360</valuemax>
													<value>90</value>
												</parameter>
											</effect>
										</transitionitem>
										<clipitem id="clipitem-1745">
											<masterclipid>masterclip-741</masterclipid>
											<name>Graphic</name>
											<enabled>FALSE</enabled>
											<duration>1080000</duration>
											<rate>
												<timebase>25</timebase>
												<ntsc>FALSE</ntsc>
											</rate>
											<start>-1</start>
											<end>-1</end>
											<in>89998</in>
											<out>90181</out>
											<pproTicksIn>914437278720000</pproTicksIn>
											<pproTicksOut>916296675840000</pproTicksOut>
											<alphatype>straight</alphatype>
											<pixelaspectratio>PAL-601</pixelaspectratio>
											<anamorphic>TRUE</anamorphic>
											<file id="file-615">
												<name>Graphic</name>
												<mediaSource>GraphicAndType</mediaSource>
												<rate>
													<timebase>30</timebase>
													<ntsc>TRUE</ntsc>
												</rate>
												<timecode>
													<rate>
														<timebase>30</timebase>
														<ntsc>TRUE</ntsc>
													</rate>
													<string>00;00;00;00</string>
													<frame>0</frame>
													<displayformat>DF</displayformat>
												</timecode>
												<media>
													<video>
														<samplecharacteristics>
															<rate>
																<timebase>30</timebase>
																<ntsc>TRUE</ntsc>
															</rate>
															<width>720</width>
															<height>576</height>
															<anamorphic>TRUE</anamorphic>
															<pixelaspectratio>PAL-601</pixelaspectratio>
															<fielddominance>none</fielddominance>
														</samplecharacteristics>
													</video>
												</media>
											</file>
											<filter>
												<effect>
													<name>АРТУР ПИРОЖКОВ&#13;ЛЕТОМ НА ФИЕСТЕ</name>
													<effectid>GraphicAndType</effectid>
													<effectcategory>graphic</effectcategory>
													<effecttype>filter</effecttype>
													<mediatype>video</mediatype>
													<pproBypass>false</pproBypass>
													<pproExpanded>true</pproExpanded>
													<parameter authoringApp="PremierePro">
														<parameterid>1</parameterid>
														<name>Source Text</name>
														<hash>dc092258-f6b9-fd91-a76f-c3e700000476</hash>
													</parameter>
													<parameter authoringApp="PremierePro">
														<parameterid>2</parameterid>
														<name>Transform</name>
														<IsTimeVarying>false</IsTimeVarying>
														<ParameterControlType>11</ParameterControlType>
														<LowerBound>false</LowerBound>
														<UpperBound>false</UpperBound>
														<value>-91445760000000000,false,0,0,0,0,0,0</value>
													</parameter>
													<parameter authoringApp="PremierePro">
														<parameterid>3</parameterid>
														<name>Position</name>
														<IsTimeVarying>false</IsTimeVarying>
														<value>-91445760000000000,0.36944580078125:0.86468505859375,0,0,0,0,0,0,5,4,0,0,0,0</value>
													</parameter>
													<parameter authoringApp="PremierePro">
														<parameterid>4</parameterid>
														<name>Scale</name>
														<IsTimeVarying>false</IsTimeVarying>
														<ParameterControlType>2</ParameterControlType>
														<LowerBound>0</LowerBound>
														<UpperBound>4000</UpperBound>
														<value>-91445760000000000,100.,0,0,0,0,0,0</value>
													</parameter>
													<parameter authoringApp="PremierePro">
														<parameterid>5</parameterid>
														<name>Horizontal Scale</name>
														<IsTimeVarying>false</IsTimeVarying>
														<ParameterControlType>2</ParameterControlType>
														<LowerBound>0</LowerBound>
														<UpperBound>4000</UpperBound>
														<value>-91445760000000000,100.,0,0,0,0,0,0</value>
													</parameter>
													<parameter authoringApp="PremierePro">
														<parameterid>6</parameterid>
														<name> </name>
														<IsTimeVarying>false</IsTimeVarying>
														<ParameterControlType>4</ParameterControlType>
														<LowerBound>false</LowerBound>
														<UpperBound>true</UpperBound>
														<value>-91445760000000000,true,0,0,0,0,0,0</value>
													</parameter>
													<parameter authoringApp="PremierePro">
														<parameterid>7</parameterid>
														<name>Rotation</name>
														<IsTimeVarying>false</IsTimeVarying>
														<ParameterControlType>3</ParameterControlType>
														<LowerBound>-32768</LowerBound>
														<UpperBound>32767</UpperBound>
														<value>-91445760000000000,0.,0,0,0,0,0,0</value>
													</parameter>
													<parameter authoringApp="PremierePro">
														<parameterid>8</parameterid>
														<name>Opacity</name>
														<IsTimeVarying>false</IsTimeVarying>
														<ParameterControlType>2</ParameterControlType>
														<LowerBound>0</LowerBound>
														<UpperBound>100</UpperBound>
														<value>-91445760000000000,100.,0,0,0,0,0,0</value>
													</parameter>
													<parameter authoringApp="PremierePro">
														<parameterid>9</parameterid>
														<name>Anchor Point</name>
														<IsTimeVarying>false</IsTimeVarying>
														<value>-91445760000000000,0:0,0,0,0,0,0,0,5,4,0,0,0,0</value>
													</parameter>
													<parameter authoringApp="PremierePro">
														<parameterid>10</parameterid>
														<name></name>
														<IsTimeVarying>false</IsTimeVarying>
														<ParameterControlType>12</ParameterControlType>
														<LowerBound>false</LowerBound>
														<UpperBound>false</UpperBound>
														<value>-91445760000000000,false,0,0,0,0,0,0</value>
													</parameter>
													<parameter authoringApp="PremierePro">
														<parameterid>11</parameterid>
														<name> </name>
														<IsTimeVarying>false</IsTimeVarying>
														<ParameterControlType>8</ParameterControlType>
														<LowerBound>0</LowerBound>
														<UpperBound>32768</UpperBound>
														<value>-91445760000000000,0.,0,0,0,0,0,0</value>
													</parameter>
													<parameter authoringApp="PremierePro">
														<parameterid>12</parameterid>
														<name> </name>
														<IsTimeVarying>false</IsTimeVarying>
														<ParameterControlType>8</ParameterControlType>
														<LowerBound>0</LowerBound>
														<UpperBound>32768</UpperBound>
														<value>-91445760000000000,0.,0,0,0,0,0,0</value>
													</parameter>
													<parameter authoringApp="PremierePro">
														<parameterid>13</parameterid>
														<name>start</name>
														<IsTimeVarying>false</IsTimeVarying>
														<ParameterControlType>8</ParameterControlType>
														<LowerBound>-100</LowerBound>
														<UpperBound>1000000000</UpperBound>
														<value>-91445760000000000,30.,0,0,0,0,0,0</value>
													</parameter>
													<parameter authoringApp="PremierePro">
														<parameterid>14</parameterid>
														<name>end</name>
														<IsTimeVarying>false</IsTimeVarying>
														<ParameterControlType>8</ParameterControlType>
														<LowerBound>-100</LowerBound>
														<UpperBound>1000000000</UpperBound>
														<value>-91445760000000000,30.,0,0,0,0,0,0</value>
													</parameter>
													<parameter authoringApp="PremierePro">
														<parameterid>15</parameterid>
														<name> </name>
														<IsTimeVarying>false</IsTimeVarying>
														<ParameterControlType>4</ParameterControlType>
														<LowerBound>false</LowerBound>
														<UpperBound>true</UpperBound>
														<value>-91445760000000000,false,0,0,0,0,0,0</value>
													</parameter>
													<parameter authoringApp="PremierePro">
														<parameterid>16</parameterid>
														<name> </name>
														<IsTimeVarying>false</IsTimeVarying>
														<ParameterControlType>4</ParameterControlType>
														<LowerBound>false</LowerBound>
														<UpperBound>true</UpperBound>
														<value>-91445760000000000,false,0,0,0,0,0,0</value>
													</parameter>
													<parameter authoringApp="PremierePro">
														<parameterid>17</parameterid>
														<name> </name>
														<IsTimeVarying>false</IsTimeVarying>
														<ParameterControlType>4</ParameterControlType>
														<LowerBound>false</LowerBound>
														<UpperBound>true</UpperBound>
														<value>-91445760000000000,false,0,0,0,0,0,0</value>
													</parameter>
													<parameter authoringApp="PremierePro">
														<parameterid>18</parameterid>
														<name> </name>
														<IsTimeVarying>false</IsTimeVarying>
														<ParameterControlType>4</ParameterControlType>
														<LowerBound>false</LowerBound>
														<UpperBound>true</UpperBound>
														<value>-91445760000000000,false,0,0,0,0,0,0</value>
													</parameter>
													<parameter authoringApp="PremierePro">
														<parameterid>19</parameterid>
														<name>Parent Width</name>
														<IsTimeVarying>false</IsTimeVarying>
														<ParameterControlType>2</ParameterControlType>
														<LowerBound>0</LowerBound>
														<UpperBound>20000</UpperBound>
														<value>-91445760000000000,0.,0,0,0,0,0,0</value>
													</parameter>
													<parameter authoringApp="PremierePro">
														<parameterid>20</parameterid>
														<name>Parent Height</name>
														<IsTimeVarying>false</IsTimeVarying>
														<ParameterControlType>2</ParameterControlType>
														<LowerBound>0</LowerBound>
														<UpperBound>20000</UpperBound>
														<value>-91445760000000000,0.,0,0,0,0,0,0</value>
													</parameter>
													<parameter authoringApp="PremierePro">
														<parameterid>21</parameterid>
														<name>Parent Rotation</name>
														<IsTimeVarying>false</IsTimeVarying>
														<ParameterControlType>3</ParameterControlType>
														<LowerBound>-32768</LowerBound>
														<UpperBound>32767</UpperBound>
														<value>-91445760000000000,0.,0,0,0,0,0,0</value>
													</parameter>
												</effect>
											</filter>
											<logginginfo>
												<description></description>
												<scene></scene>
												<shottake></shottake>
												<lognote></lognote>
												<good></good>
												<originalvideofilename></originalvideofilename>
												<originalaudiofilename></originalaudiofilename>
											</logginginfo>
											<colorinfo>
												<lut></lut>
												<lut1></lut1>
												<asc_sop></asc_sop>
												<asc_sat></asc_sat>
												<lut2></lut2>
											</colorinfo>
										</clipitem>
										<transitionitem>
											<start>328</start>
											<end>350</end>
											<alignment>end-black</alignment>
											<cutPointTicks>223534080000</cutPointTicks>
											<rate>
												<timebase>25</timebase>
												<ntsc>FALSE</ntsc>
											</rate>
											<effect>
												<name>Edge Wipe</name>
												<effectid>Edge Wipe</effectid>
												<effectcategory>Wipe</effectcategory>
												<effecttype>transition</effecttype>
												<mediatype>video</mediatype>
												<wipecode>2</wipecode>
												<wipeaccuracy>100</wipeaccuracy>
												<startratio>0</startratio>
												<endratio>1</endratio>
												<reverse>FALSE</reverse>
												<parameter authoringApp="PremierePro">
													<parameterid>directionofwipe</parameterid>
													<name>Angle</name>
													<valuemin>-360</valuemin>
													<valuemax>360</valuemax>
													<value>90</value>
												</parameter>
											</effect>
										</transitionitem>
										<enabled>TRUE</enabled>
										<locked>FALSE</locked>
									</track>
								</video>
								<audio>
									<numOutputChannels>2</numOutputChannels>
									<format>
										<samplecharacteristics>
											<depth>16</depth>
											<samplerate>48000</samplerate>
										</samplecharacteristics>
									</format>
									<outputs>
										<group>
											<index>1</index>
											<numchannels>1</numchannels>
											<downmix>0</downmix>
											<channel>
												<index>1</index>
											</channel>
										</group>
										<group>
											<index>2</index>
											<numchannels>1</numchannels>
											<downmix>0</downmix>
											<channel>
												<index>2</index>
											</channel>
										</group>
									</outputs>
									<track TL.SQTrackAudioKeyframeStyle="0" TL.SQTrackShy="0" TL.SQTrackExpandedHeight="25" TL.SQTrackExpanded="0" MZ.TrackTargeted="1" PannerCurrentValue="0.5" PannerStartKeyframe="-91445760000000000,0.5,0,0,0,0,0,0" PannerName="Balance" currentExplodedTrackIndex="0" totalExplodedTrackCount="2" premiereTrackType="Stereo">
										<enabled>TRUE</enabled>
										<locked>FALSE</locked>
										<outputchannelindex>1</outputchannelindex>
									</track>
									<track TL.SQTrackAudioKeyframeStyle="0" TL.SQTrackShy="0" TL.SQTrackExpandedHeight="25" TL.SQTrackExpanded="0" MZ.TrackTargeted="1" PannerCurrentValue="0.5" PannerStartKeyframe="-91445760000000000,0.5,0,0,0,0,0,0" PannerName="Balance" currentExplodedTrackIndex="1" totalExplodedTrackCount="2" premiereTrackType="Stereo">
										<enabled>TRUE</enabled>
										<locked>FALSE</locked>
										<outputchannelindex>2</outputchannelindex>
									</track>
								</audio>
							</media>
							<timecode>
								<rate>
									<timebase>25</timebase>
									<ntsc>FALSE</ntsc>
								</rate>
								<string>00:00:00:00</string>
								<frame>0</frame>
								<displayformat>NDF</displayformat>
							</timecode>
								<marker>
									<comment></comment>
									<name></name>
									<in>125</in>
									<out>-1</out>
									<pproColor>4280578025</pproColor>
								</marker>
							<logginginfo>
								<description></description>
								<scene></scene>
								<shottake></shottake>
								<lognote></lognote>
								<good></good>
								<originalvideofilename></originalvideofilename>
								<originalaudiofilename></originalaudiofilename>
							</logginginfo>
						</sequence>
							<marker>
								<comment></comment>
								<name></name>
								<in>125</in>
								<out>-1</out>
								<pproColor>4280578025</pproColor>
							</marker>
						<labels>
							<label2>Forest</label2>
						</labels>
					</clipitem>
					<clipitem id="clipitem-1746">
						<masterclipid>masterclip-737</masterclipid>
						<name>9</name>
						<enabled>TRUE</enabled>
						<duration>475</duration>
						<rate>
							<timebase>25</timebase>
							<ntsc>FALSE</ntsc>
						</rate>
						<start>20186</start>
						<end>20537</end>
						<in>124</in>
						<out>475</out>
						<pproTicksIn>1259919360000</pproTicksIn>
						<pproTicksOut>4826304000000</pproTicksOut>
						<sequence id="sequence-136"/>
							<marker>
								<comment></comment>
								<name></name>
								<in>125</in>
								<out>-1</out>
								<pproColor>4280578025</pproColor>
							</marker>
						<labels>
							<label2>Forest</label2>
						</labels>
					</clipitem>
					<clipitem id="clipitem-1747">
						<masterclipid>masterclip-720</masterclipid>
						<name>титр</name>
						<enabled>TRUE</enabled>
						<duration>225</duration>
						<rate>
							<timebase>25</timebase>
							<ntsc>FALSE</ntsc>
						</rate>
						<start>20597</start>
						<end>20768</end>
						<in>0</in>
						<out>171</out>
						<pproTicksIn>0</pproTicksIn>
						<pproTicksOut>1737469440000</pproTicksOut>
						<sequence id="sequence-132"/>
						<filter>
							<effect>
								<name>Opacity</name>
								<effectid>opacity</effectid>
								<effectcategory>motion</effectcategory>
								<effecttype>motion</effecttype>
								<mediatype>video</mediatype>
								<pproBypass>false</pproBypass>
								<parameter authoringApp="PremierePro">
									<parameterid>opacity</parameterid>
									<name>opacity</name>
									<valuemin>0</valuemin>
									<valuemax>100</valuemax>
									<value>100</value>
								</parameter>
							</effect>
						</filter>
							<marker>
								<comment></comment>
								<name></name>
								<in>57</in>
								<out>-1</out>
								<pproColor>4294741314</pproColor>
							</marker>
						<labels>
							<label2>Forest</label2>
						</labels>
					</clipitem>
					<clipitem id="clipitem-1748">
						<masterclipid>masterclip-742</masterclipid>
						<name>8_TITLE</name>
						<enabled>TRUE</enabled>
						<duration>475</duration>
						<rate>
							<timebase>25</timebase>
							<ntsc>FALSE</ntsc>
						</rate>
						<start>21338</start>
						<end>21688</end>
						<in>0</in>
						<out>475</out>
						<pproTicksIn>0</pproTicksIn>
						<pproTicksOut>4826304000000</pproTicksOut>
						<sequence id="sequence-137" TL.SQAudioVisibleBase="0" TL.SQVideoVisibleBase="0" TL.SQVisibleBaseTime="0" TL.SQAVDividerPosition="0.5" TL.SQHideShyTracks="0" TL.SQHeaderWidth="236" TL.SQDataTrackViewControlState="0" Monitor.ProgramZoomOut="4826304000000" Monitor.ProgramZoomIn="0" TL.SQTimePerPixel="0.024999999999999998" AM.TrackVScrollPosition="0" AM.TrackScrollPosition="0" MZ.EditLine="1473292800000" MZ.Sequence.PreviewFrameSizeHeight="576" MZ.Sequence.PreviewFrameSizeWidth="720" MZ.Sequence.AudioTimeDisplayFormat="200" MZ.Sequence.PreviewRenderingClassID="1061109567" MZ.Sequence.PreviewRenderingPresetCodec="1685480304" MZ.Sequence.PreviewRenderingPresetPath="EncoderPresets/SequencePreview/04be6e19-a018-4e0c-a9d6-0ab44c64752b/QuickTime DV PAL.epr" MZ.Sequence.PreviewUseMaxRenderQuality="false" MZ.Sequence.PreviewUseMaxBitDepth="false" MZ.Sequence.EditingModeGUID="04be6e19-a018-4e0c-a9d6-0ab44c64752b" MZ.Sequence.VideoTimeDisplayFormat="101" MZ.WorkOutPoint="4826304000000" MZ.WorkInPoint="0" MZ.ZeroPoint="0">
							<duration>475</duration>
							<rate>
								<timebase>25</timebase>
								<ntsc>FALSE</ntsc>
							</rate>
							<name>титр</name>
							<media>
								<video>
									<format>
										<samplecharacteristics>
											<rate>
												<timebase>25</timebase>
												<ntsc>FALSE</ntsc>
											</rate>
											<codec>
												<name>Apple ProRes 422</name>
												<appspecificdata>
													<appname>Final Cut Pro</appname>
													<appmanufacturer>Apple Inc.</appmanufacturer>
													<appversion>7.0</appversion>
													<data>
														<qtcodec>
															<codecname>Apple ProRes 422</codecname>
															<codectypename>Apple ProRes 422</codectypename>
															<codectypecode>apcn</codectypecode>
															<codecvendorcode>appl</codecvendorcode>
															<spatialquality>1024</spatialquality>
															<temporalquality>0</temporalquality>
															<keyframerate>0</keyframerate>
															<datarate>0</datarate>
														</qtcodec>
													</data>
												</appspecificdata>
											</codec>
											<width>720</width>
											<height>576</height>
											<anamorphic>TRUE</anamorphic>
											<pixelaspectratio>PAL-601</pixelaspectratio>
											<fielddominance>lower</fielddominance>
											<colordepth>24</colordepth>
										</samplecharacteristics>
									</format>
									<track TL.SQTrackShy="0" TL.SQTrackExpandedHeight="25" TL.SQTrackExpanded="0" MZ.TrackTargeted="1">
										<clipitem id="clipitem-1749">
											<masterclipid>masterclip-743</masterclipid>
											<name>9_title.mov</name>
											<enabled>TRUE</enabled>
											<duration>225</duration>
											<rate>
												<timebase>25</timebase>
												<ntsc>FALSE</ntsc>
											</rate>
											<start>125</start>
											<end>350</end>
											<in>0</in>
											<out>225</out>
											<pproTicksIn>0</pproTicksIn>
											<pproTicksOut>2286144000000</pproTicksOut>
											<alphatype>straight</alphatype>
											<pixelaspectratio>square</pixelaspectratio>
											<anamorphic>FALSE</anamorphic>
											<file id="file-616">
												<name>8_title.mov</name>
												<pathurl>file://localhost/_MUZ_TV/graphika/RU-21/MOD/title_plashka/8_title.mov</pathurl>
												<rate>
													<timebase>25</timebase>
													<ntsc>FALSE</ntsc>
												</rate>
												<duration>225</duration>
												<timecode>
													<rate>
														<timebase>25</timebase>
														<ntsc>FALSE</ntsc>
													</rate>
													<string>00:00:18:00</string>
													<frame>450</frame>
													<displayformat>NDF</displayformat>
												</timecode>
												<media>
													<video>
														<samplecharacteristics>
															<rate>
																<timebase>25</timebase>
																<ntsc>FALSE</ntsc>
															</rate>
															<width>1920</width>
															<height>1080</height>
															<anamorphic>FALSE</anamorphic>
															<pixelaspectratio>square</pixelaspectratio>
															<fielddominance>none</fielddominance>
														</samplecharacteristics>
													</video>
												</media>
											</file>
											<filter>
												<effect>
													<name>Basic Motion</name>
													<effectid>basic</effectid>
													<effectcategory>motion</effectcategory>
													<effecttype>motion</effecttype>
													<mediatype>video</mediatype>
													<pproBypass>false</pproBypass>
													<parameter authoringApp="PremierePro">
														<parameterid>scale</parameterid>
														<name>Scale</name>
														<valuemin>0</valuemin>
														<valuemax>1000</valuemax>
														<value>55</value>
													</parameter>
													<parameter authoringApp="PremierePro">
														<parameterid>rotation</parameterid>
														<name>Rotation</name>
														<valuemin>-8640</valuemin>
														<valuemax>8640</valuemax>
														<value>0</value>
													</parameter>
													<parameter authoringApp="PremierePro">
														<parameterid>center</parameterid>
														<name>Center</name>
														<value>
															<horiz>0</horiz>
															<vert>0</vert>
														</value>
													</parameter>
													<parameter authoringApp="PremierePro">
														<parameterid>centerOffset</parameterid>
														<name>Anchor Point</name>
														<value>
															<horiz>0</horiz>
															<vert>0</vert>
														</value>
													</parameter>
													<parameter authoringApp="PremierePro">
														<parameterid>antiflicker</parameterid>
														<name>Anti-flicker Filter</name>
														<valuemin>0.0</valuemin>
														<valuemax>1.0</valuemax>
														<value>0</value>
													</parameter>
												</effect>
											</filter>
											<filter>
												<effect>
													<name>Distort</name>
													<effectid>deformation</effectid>
													<effectcategory>motion</effectcategory>
													<effecttype>motion</effecttype>
													<mediatype>video</mediatype>
													<parameter authoringApp="PremierePro">
														<parameterid>aspect</parameterid>
														<name>Aspect</name>
														<valuemin>-10000</valuemin>
														<valuemax>10000</valuemax>
														<value>-3.12506</value>
													</parameter>
												</effect>
											</filter>
											<logginginfo>
												<description></description>
												<scene></scene>
												<shottake></shottake>
												<lognote></lognote>
												<good></good>
												<originalvideofilename></originalvideofilename>
												<originalaudiofilename></originalaudiofilename>
											</logginginfo>
											<colorinfo>
												<lut></lut>
												<lut1></lut1>
												<asc_sop></asc_sop>
												<asc_sat></asc_sat>
												<lut2></lut2>
											</colorinfo>
											<labels>
												<label2>Violet</label2>
											</labels>
										</clipitem>
										<clipitem id="clipitem-1750">
											<masterclipid>masterclip-744</masterclipid>
											<name>Graphic</name>
											<enabled>FALSE</enabled>
											<duration>1080000</duration>
											<rate>
												<timebase>25</timebase>
												<ntsc>FALSE</ntsc>
											</rate>
											<start>350</start>
											<end>475</end>
											<in>90000</in>
											<out>90125</out>
											<pproTicksIn>914457600000000</pproTicksIn>
											<pproTicksOut>915727680000000</pproTicksOut>
											<alphatype>straight</alphatype>
											<pixelaspectratio>PAL-601</pixelaspectratio>
											<anamorphic>TRUE</anamorphic>
											<file id="file-617">
												<name>Graphic</name>
												<mediaSource>GraphicAndType</mediaSource>
												<rate>
													<timebase>30</timebase>
													<ntsc>TRUE</ntsc>
												</rate>
												<timecode>
													<rate>
														<timebase>30</timebase>
														<ntsc>TRUE</ntsc>
													</rate>
													<string>00;00;00;00</string>
													<frame>0</frame>
													<displayformat>DF</displayformat>
												</timecode>
												<media>
													<video>
														<samplecharacteristics>
															<rate>
																<timebase>30</timebase>
																<ntsc>TRUE</ntsc>
															</rate>
															<width>720</width>
															<height>576</height>
															<anamorphic>TRUE</anamorphic>
															<pixelaspectratio>PAL-601</pixelaspectratio>
															<fielddominance>none</fielddominance>
														</samplecharacteristics>
													</video>
												</media>
											</file>
											<filter>
												<effect>
													<name>Basic Motion</name>
													<effectid>basic</effectid>
													<effectcategory>motion</effectcategory>
													<effecttype>motion</effecttype>
													<mediatype>video</mediatype>
													<pproBypass>false</pproBypass>
													<parameter authoringApp="PremierePro">
														<parameterid>scale</parameterid>
														<name>Scale</name>
														<valuemin>0</valuemin>
														<valuemax>1000</valuemax>
														<value>133.333</value>
													</parameter>
													<parameter authoringApp="PremierePro">
														<parameterid>rotation</parameterid>
														<name>Rotation</name>
														<valuemin>-8640</valuemin>
														<valuemax>8640</valuemax>
														<value>0</value>
													</parameter>
													<parameter authoringApp="PremierePro">
														<parameterid>center</parameterid>
														<name>Center</name>
														<value>
															<horiz>0</horiz>
															<vert>0</vert>
														</value>
													</parameter>
													<parameter authoringApp="PremierePro">
														<parameterid>centerOffset</parameterid>
														<name>Anchor Point</name>
														<value>
															<horiz>0</horiz>
															<vert>0</vert>
														</value>
													</parameter>
													<parameter authoringApp="PremierePro">
														<parameterid>antiflicker</parameterid>
														<name>Anti-flicker Filter</name>
														<valuemin>0.0</valuemin>
														<valuemax>1.0</valuemax>
														<value>0</value>
													</parameter>
												</effect>
											</filter>
											<filter>
												<effect>
													<name>Distort</name>
													<effectid>deformation</effectid>
													<effectcategory>motion</effectcategory>
													<effecttype>motion</effecttype>
													<mediatype>video</mediatype>
													<parameter authoringApp="PremierePro">
														<parameterid>aspect</parameterid>
														<name>Aspect</name>
														<valuemin>-10000</valuemin>
														<valuemax>10000</valuemax>
														<value>-33.333</value>
													</parameter>
												</effect>
											</filter>
											<filter>
												<effect>
													<name></name>
													<effectid>GraphicAndType</effectid>
													<effectcategory>graphic</effectcategory>
													<effecttype>filter</effecttype>
													<mediatype>video</mediatype>
													<pproBypass>false</pproBypass>
													<parameter authoringApp="PremierePro">
														<parameterid>1</parameterid>
														<name>Source Text</name>
														<hash>3f0faa81-c1b0-8370-b66c-fa0b000009f1</hash>
													</parameter>
													<parameter authoringApp="PremierePro">
														<parameterid>2</parameterid>
														<name>Transform</name>
														<IsTimeVarying>false</IsTimeVarying>
														<ParameterControlType>11</ParameterControlType>
														<LowerBound>false</LowerBound>
														<UpperBound>false</UpperBound>
														<value>-91445760000000000,false,0,0,0,0,0,0</value>
													</parameter>
													<parameter authoringApp="PremierePro">
														<parameterid>3</parameterid>
														<name>Position</name>
														<IsTimeVarying>false</IsTimeVarying>
														<value>-91445760000000000,0.55605381727218628:0.73039215803146362,0,0,0,0,0,0,5,4,0,0,0,0</value>
													</parameter>
													<parameter authoringApp="PremierePro">
														<parameterid>4</parameterid>
														<name>Scale</name>
														<IsTimeVarying>false</IsTimeVarying>
														<ParameterControlType>2</ParameterControlType>
														<LowerBound>0</LowerBound>
														<UpperBound>4000</UpperBound>
														<value>-91445760000000000,100.,0,0,0,0,0,0</value>
													</parameter>
													<parameter authoringApp="PremierePro">
														<parameterid>5</parameterid>
														<name>Horizontal Scale</name>
														<IsTimeVarying>false</IsTimeVarying>
														<ParameterControlType>2</ParameterControlType>
														<LowerBound>0</LowerBound>
														<UpperBound>4000</UpperBound>
														<value>-91445760000000000,100.,0,0,0,0,0,0</value>
													</parameter>
													<parameter authoringApp="PremierePro">
														<parameterid>6</parameterid>
														<name> </name>
														<IsTimeVarying>false</IsTimeVarying>
														<ParameterControlType>4</ParameterControlType>
														<LowerBound>false</LowerBound>
														<UpperBound>true</UpperBound>
														<value>-91445760000000000,true,0,0,0,0,0,0</value>
													</parameter>
													<parameter authoringApp="PremierePro">
														<parameterid>7</parameterid>
														<name>Rotation</name>
														<IsTimeVarying>false</IsTimeVarying>
														<ParameterControlType>3</ParameterControlType>
														<LowerBound>-32768</LowerBound>
														<UpperBound>32767</UpperBound>
														<value>-91445760000000000,0.,0,0,0,0,0,0</value>
													</parameter>
													<parameter authoringApp="PremierePro">
														<parameterid>8</parameterid>
														<name>Opacity</name>
														<IsTimeVarying>false</IsTimeVarying>
														<ParameterControlType>2</ParameterControlType>
														<LowerBound>0</LowerBound>
														<UpperBound>100</UpperBound>
														<value>-91445760000000000,100.,0,0,0,0,0,0</value>
													</parameter>
													<parameter authoringApp="PremierePro">
														<parameterid>9</parameterid>
														<name>Anchor Point</name>
														<IsTimeVarying>false</IsTimeVarying>
														<value>-91445760000000000,0:0,0,0,0,0,0,0,5,4,0,0,0,0</value>
													</parameter>
													<parameter authoringApp="PremierePro">
														<parameterid>10</parameterid>
														<name></name>
														<IsTimeVarying>false</IsTimeVarying>
														<ParameterControlType>12</ParameterControlType>
														<LowerBound>false</LowerBound>
														<UpperBound>false</UpperBound>
														<value>-91445760000000000,false,0,0,0,0,0,0</value>
													</parameter>
													<parameter authoringApp="PremierePro">
														<parameterid>11</parameterid>
														<name> </name>
														<IsTimeVarying>false</IsTimeVarying>
														<ParameterControlType>8</ParameterControlType>
														<LowerBound>0</LowerBound>
														<UpperBound>32768</UpperBound>
														<value>-91445760000000000,0.,0,0,0,0,0,0</value>
													</parameter>
													<parameter authoringApp="PremierePro">
														<parameterid>12</parameterid>
														<name> </name>
														<IsTimeVarying>false</IsTimeVarying>
														<ParameterControlType>8</ParameterControlType>
														<LowerBound>0</LowerBound>
														<UpperBound>32768</UpperBound>
														<value>-91445760000000000,0.,0,0,0,0,0,0</value>
													</parameter>
													<parameter authoringApp="PremierePro">
														<parameterid>13</parameterid>
														<name>start</name>
														<IsTimeVarying>false</IsTimeVarying>
														<ParameterControlType>8</ParameterControlType>
														<LowerBound>-100</LowerBound>
														<UpperBound>1000000000</UpperBound>
														<value>-91445760000000000,0.,0,0,0,0,0,0</value>
													</parameter>
													<parameter authoringApp="PremierePro">
														<parameterid>14</parameterid>
														<name>end</name>
														<IsTimeVarying>false</IsTimeVarying>
														<ParameterControlType>8</ParameterControlType>
														<LowerBound>-100</LowerBound>
														<UpperBound>1000000000</UpperBound>
														<value>-91445760000000000,0.,0,0,0,0,0,0</value>
													</parameter>
													<parameter authoringApp="PremierePro">
														<parameterid>15</parameterid>
														<name> </name>
														<IsTimeVarying>false</IsTimeVarying>
														<ParameterControlType>4</ParameterControlType>
														<LowerBound>false</LowerBound>
														<UpperBound>true</UpperBound>
														<value>-91445760000000000,false,0,0,0,0,0,0</value>
													</parameter>
													<parameter authoringApp="PremierePro">
														<parameterid>16</parameterid>
														<name> </name>
														<IsTimeVarying>false</IsTimeVarying>
														<ParameterControlType>4</ParameterControlType>
														<LowerBound>false</LowerBound>
														<UpperBound>true</UpperBound>
														<value>-91445760000000000,false,0,0,0,0,0,0</value>
													</parameter>
													<parameter authoringApp="PremierePro">
														<parameterid>17</parameterid>
														<name> </name>
														<IsTimeVarying>false</IsTimeVarying>
														<ParameterControlType>4</ParameterControlType>
														<LowerBound>false</LowerBound>
														<UpperBound>true</UpperBound>
														<value>-91445760000000000,false,0,0,0,0,0,0</value>
													</parameter>
													<parameter authoringApp="PremierePro">
														<parameterid>18</parameterid>
														<name> </name>
														<IsTimeVarying>false</IsTimeVarying>
														<ParameterControlType>4</ParameterControlType>
														<LowerBound>false</LowerBound>
														<UpperBound>true</UpperBound>
														<value>-91445760000000000,false,0,0,0,0,0,0</value>
													</parameter>
													<parameter authoringApp="PremierePro">
														<parameterid>19</parameterid>
														<name>Parent Width</name>
														<IsTimeVarying>false</IsTimeVarying>
														<ParameterControlType>2</ParameterControlType>
														<LowerBound>0</LowerBound>
														<UpperBound>20000</UpperBound>
														<value>-91445760000000000,0.,0,0,0,0,0,0</value>
													</parameter>
													<parameter authoringApp="PremierePro">
														<parameterid>20</parameterid>
														<name>Parent Height</name>
														<IsTimeVarying>false</IsTimeVarying>
														<ParameterControlType>2</ParameterControlType>
														<LowerBound>0</LowerBound>
														<UpperBound>20000</UpperBound>
														<value>-91445760000000000,0.,0,0,0,0,0,0</value>
													</parameter>
													<parameter authoringApp="PremierePro">
														<parameterid>21</parameterid>
														<name>Parent Rotation</name>
														<IsTimeVarying>false</IsTimeVarying>
														<ParameterControlType>3</ParameterControlType>
														<LowerBound>-32768</LowerBound>
														<UpperBound>32767</UpperBound>
														<value>-91445760000000000,0.,0,0,0,0,0,0</value>
													</parameter>
												</effect>
											</filter>
											<logginginfo>
												<description></description>
												<scene></scene>
												<shottake></shottake>
												<lognote></lognote>
												<good></good>
												<originalvideofilename></originalvideofilename>
												<originalaudiofilename></originalaudiofilename>
											</logginginfo>
											<colorinfo>
												<lut></lut>
												<lut1></lut1>
												<asc_sop></asc_sop>
												<asc_sat></asc_sat>
												<lut2></lut2>
											</colorinfo>
										</clipitem>
										<enabled>TRUE</enabled>
										<locked>FALSE</locked>
									</track>
									<track TL.SQTrackShy="0" TL.SQTrackExpandedHeight="25" TL.SQTrackExpanded="0" MZ.TrackTargeted="0">
										<transitionitem>
											<start>167</start>
											<end>224</end>
											<alignment>start-black</alignment>
											<cutPointTicks>0</cutPointTicks>
											<rate>
												<timebase>25</timebase>
												<ntsc>FALSE</ntsc>
											</rate>
											<effect>
												<name>Edge Wipe</name>
												<effectid>Edge Wipe</effectid>
												<effectcategory>Wipe</effectcategory>
												<effecttype>transition</effecttype>
												<mediatype>video</mediatype>
												<wipecode>2</wipecode>
												<wipeaccuracy>100</wipeaccuracy>
												<startratio>0</startratio>
												<endratio>1</endratio>
												<reverse>FALSE</reverse>
												<parameter authoringApp="PremierePro">
													<parameterid>directionofwipe</parameterid>
													<name>Angle</name>
													<valuemin>-360</valuemin>
													<valuemax>360</valuemax>
													<value>90</value>
												</parameter>
											</effect>
										</transitionitem>
										<clipitem id="clipitem-1751">
											<masterclipid>masterclip-745</masterclipid>
											<name>9.png</name>
											<enabled>TRUE</enabled>
											<duration>1080000</duration>
											<rate>
												<timebase>25</timebase>
												<ntsc>FALSE</ntsc>
											</rate>
											<start>-1</start>
											<end>-1</end>
											<in>90042</in>
											<out>90225</out>
											<pproTicksIn>914884346880000</pproTicksIn>
											<pproTicksOut>916743744000000</pproTicksOut>
											<alphatype>straight</alphatype>
											<pixelaspectratio>square</pixelaspectratio>
											<anamorphic>FALSE</anamorphic>
											<file id="file-618">
												<name>8.png</name>
												<pathurl>file://localhost/_MUZ_TV/project_AP/RU/_TITLE/469/8.png</pathurl>
												<rate>
													<timebase>30</timebase>
													<ntsc>TRUE</ntsc>
												</rate>
												<timecode>
													<rate>
														<timebase>30</timebase>
														<ntsc>TRUE</ntsc>
													</rate>
													<string>00;00;00;00</string>
													<frame>0</frame>
													<displayformat>DF</displayformat>
												</timecode>
												<media>
													<video>
														<samplecharacteristics>
															<rate>
																<timebase>30</timebase>
																<ntsc>TRUE</ntsc>
															</rate>
															<width>1920</width>
															<height>1080</height>
															<anamorphic>FALSE</anamorphic>
															<pixelaspectratio>square</pixelaspectratio>
															<fielddominance>none</fielddominance>
														</samplecharacteristics>
													</video>
												</media>
											</file>
											<filter>
												<effect>
													<name>Basic Motion</name>
													<effectid>basic</effectid>
													<effectcategory>motion</effectcategory>
													<effecttype>motion</effecttype>
													<mediatype>video</mediatype>
													<pproBypass>false</pproBypass>
													<parameter authoringApp="PremierePro">
														<parameterid>scale</parameterid>
														<name>Scale</name>
														<valuemin>0</valuemin>
														<valuemax>1000</valuemax>
														<value>53.3333</value>
													</parameter>
													<parameter authoringApp="PremierePro">
														<parameterid>rotation</parameterid>
														<name>Rotation</name>
														<valuemin>-8640</valuemin>
														<valuemax>8640</valuemax>
														<value>0</value>
													</parameter>
													<parameter authoringApp="PremierePro">
														<parameterid>center</parameterid>
														<name>Center</name>
														<value>
															<horiz>0</horiz>
															<vert>0</vert>
														</value>
													</parameter>
													<parameter authoringApp="PremierePro">
														<parameterid>centerOffset</parameterid>
														<name>Anchor Point</name>
														<value>
															<horiz>0</horiz>
															<vert>0</vert>
														</value>
													</parameter>
													<parameter authoringApp="PremierePro">
														<parameterid>antiflicker</parameterid>
														<name>Anti-flicker Filter</name>
														<valuemin>0.0</valuemin>
														<valuemax>1.0</valuemax>
														<value>0</value>
													</parameter>
												</effect>
											</filter>
											<logginginfo>
												<description></description>
												<scene></scene>
												<shottake></shottake>
												<lognote></lognote>
												<good></good>
												<originalvideofilename></originalvideofilename>
												<originalaudiofilename></originalaudiofilename>
											</logginginfo>
											<colorinfo>
												<lut></lut>
												<lut1></lut1>
												<asc_sop></asc_sop>
												<asc_sat></asc_sat>
												<lut2></lut2>
											</colorinfo>
											<labels>
												<label2>Lavender</label2>
											</labels>
										</clipitem>
										<transitionitem>
											<start>328</start>
											<end>350</end>
											<alignment>end-black</alignment>
											<cutPointTicks>223534080000</cutPointTicks>
											<rate>
												<timebase>25</timebase>
												<ntsc>FALSE</ntsc>
											</rate>
											<effect>
												<name>Edge Wipe</name>
												<effectid>Edge Wipe</effectid>
												<effectcategory>Wipe</effectcategory>
												<effecttype>transition</effecttype>
												<mediatype>video</mediatype>
												<wipecode>2</wipecode>
												<wipeaccuracy>100</wipeaccuracy>
												<startratio>0</startratio>
												<endratio>1</endratio>
												<reverse>FALSE</reverse>
												<parameter authoringApp="PremierePro">
													<parameterid>directionofwipe</parameterid>
													<name>Angle</name>
													<valuemin>-360</valuemin>
													<valuemax>360</valuemax>
													<value>90</value>
												</parameter>
											</effect>
										</transitionitem>
										<enabled>TRUE</enabled>
										<locked>FALSE</locked>
									</track>
									<track TL.SQTrackShy="0" TL.SQTrackExpandedHeight="25" TL.SQTrackExpanded="0" MZ.TrackTargeted="0">
										<transitionitem>
											<start>167</start>
											<end>224</end>
											<alignment>start-black</alignment>
											<cutPointTicks>0</cutPointTicks>
											<rate>
												<timebase>25</timebase>
												<ntsc>FALSE</ntsc>
											</rate>
											<effect>
												<name>Edge Wipe</name>
												<effectid>Edge Wipe</effectid>
												<effectcategory>Wipe</effectcategory>
												<effecttype>transition</effecttype>
												<mediatype>video</mediatype>
												<wipecode>2</wipecode>
												<wipeaccuracy>100</wipeaccuracy>
												<startratio>0</startratio>
												<endratio>1</endratio>
												<reverse>FALSE</reverse>
												<parameter authoringApp="PremierePro">
													<parameterid>directionofwipe</parameterid>
													<name>Angle</name>
													<valuemin>-360</valuemin>
													<valuemax>360</valuemax>
													<value>90</value>
												</parameter>
											</effect>
										</transitionitem>
										<clipitem id="clipitem-1752">
											<masterclipid>masterclip-746</masterclipid>
											<name>Graphic</name>
											<enabled>FALSE</enabled>
											<duration>1080000</duration>
											<rate>
												<timebase>25</timebase>
												<ntsc>FALSE</ntsc>
											</rate>
											<start>-1</start>
											<end>-1</end>
											<in>89998</in>
											<out>90181</out>
											<pproTicksIn>914437278720000</pproTicksIn>
											<pproTicksOut>916296675840000</pproTicksOut>
											<alphatype>straight</alphatype>
											<pixelaspectratio>PAL-601</pixelaspectratio>
											<anamorphic>TRUE</anamorphic>
											<file id="file-619">
												<name>Graphic</name>
												<mediaSource>GraphicAndType</mediaSource>
												<rate>
													<timebase>30</timebase>
													<ntsc>TRUE</ntsc>
												</rate>
												<timecode>
													<rate>
														<timebase>30</timebase>
														<ntsc>TRUE</ntsc>
													</rate>
													<string>00;00;00;00</string>
													<frame>0</frame>
													<displayformat>DF</displayformat>
												</timecode>
												<media>
													<video>
														<samplecharacteristics>
															<rate>
																<timebase>30</timebase>
																<ntsc>TRUE</ntsc>
															</rate>
															<width>720</width>
															<height>576</height>
															<anamorphic>TRUE</anamorphic>
															<pixelaspectratio>PAL-601</pixelaspectratio>
															<fielddominance>none</fielddominance>
														</samplecharacteristics>
													</video>
												</media>
											</file>
											<filter>
												<effect>
													<name>АРТУР ПИРОЖКОВ&#13;ЛЕТОМ НА ФИЕСТЕ</name>
													<effectid>GraphicAndType</effectid>
													<effectcategory>graphic</effectcategory>
													<effecttype>filter</effecttype>
													<mediatype>video</mediatype>
													<pproBypass>false</pproBypass>
													<pproExpanded>true</pproExpanded>
													<parameter authoringApp="PremierePro">
														<parameterid>1</parameterid>
														<name>Source Text</name>
														<hash>dc092258-f6b9-fd91-a76f-c3e700000476</hash>
													</parameter>
													<parameter authoringApp="PremierePro">
														<parameterid>2</parameterid>
														<name>Transform</name>
														<IsTimeVarying>false</IsTimeVarying>
														<ParameterControlType>11</ParameterControlType>
														<LowerBound>false</LowerBound>
														<UpperBound>false</UpperBound>
														<value>-91445760000000000,false,0,0,0,0,0,0</value>
													</parameter>
													<parameter authoringApp="PremierePro">
														<parameterid>3</parameterid>
														<name>Position</name>
														<IsTimeVarying>false</IsTimeVarying>
														<value>-91445760000000000,0.36944580078125:0.86468505859375,0,0,0,0,0,0,5,4,0,0,0,0</value>
													</parameter>
													<parameter authoringApp="PremierePro">
														<parameterid>4</parameterid>
														<name>Scale</name>
														<IsTimeVarying>false</IsTimeVarying>
														<ParameterControlType>2</ParameterControlType>
														<LowerBound>0</LowerBound>
														<UpperBound>4000</UpperBound>
														<value>-91445760000000000,100.,0,0,0,0,0,0</value>
													</parameter>
													<parameter authoringApp="PremierePro">
														<parameterid>5</parameterid>
														<name>Horizontal Scale</name>
														<IsTimeVarying>false</IsTimeVarying>
														<ParameterControlType>2</ParameterControlType>
														<LowerBound>0</LowerBound>
														<UpperBound>4000</UpperBound>
														<value>-91445760000000000,100.,0,0,0,0,0,0</value>
													</parameter>
													<parameter authoringApp="PremierePro">
														<parameterid>6</parameterid>
														<name> </name>
														<IsTimeVarying>false</IsTimeVarying>
														<ParameterControlType>4</ParameterControlType>
														<LowerBound>false</LowerBound>
														<UpperBound>true</UpperBound>
														<value>-91445760000000000,true,0,0,0,0,0,0</value>
													</parameter>
													<parameter authoringApp="PremierePro">
														<parameterid>7</parameterid>
														<name>Rotation</name>
														<IsTimeVarying>false</IsTimeVarying>
														<ParameterControlType>3</ParameterControlType>
														<LowerBound>-32768</LowerBound>
														<UpperBound>32767</UpperBound>
														<value>-91445760000000000,0.,0,0,0,0,0,0</value>
													</parameter>
													<parameter authoringApp="PremierePro">
														<parameterid>8</parameterid>
														<name>Opacity</name>
														<IsTimeVarying>false</IsTimeVarying>
														<ParameterControlType>2</ParameterControlType>
														<LowerBound>0</LowerBound>
														<UpperBound>100</UpperBound>
														<value>-91445760000000000,100.,0,0,0,0,0,0</value>
													</parameter>
													<parameter authoringApp="PremierePro">
														<parameterid>9</parameterid>
														<name>Anchor Point</name>
														<IsTimeVarying>false</IsTimeVarying>
														<value>-91445760000000000,0:0,0,0,0,0,0,0,5,4,0,0,0,0</value>
													</parameter>
													<parameter authoringApp="PremierePro">
														<parameterid>10</parameterid>
														<name></name>
														<IsTimeVarying>false</IsTimeVarying>
														<ParameterControlType>12</ParameterControlType>
														<LowerBound>false</LowerBound>
														<UpperBound>false</UpperBound>
														<value>-91445760000000000,false,0,0,0,0,0,0</value>
													</parameter>
													<parameter authoringApp="PremierePro">
														<parameterid>11</parameterid>
														<name> </name>
														<IsTimeVarying>false</IsTimeVarying>
														<ParameterControlType>8</ParameterControlType>
														<LowerBound>0</LowerBound>
														<UpperBound>32768</UpperBound>
														<value>-91445760000000000,0.,0,0,0,0,0,0</value>
													</parameter>
													<parameter authoringApp="PremierePro">
														<parameterid>12</parameterid>
														<name> </name>
														<IsTimeVarying>false</IsTimeVarying>
														<ParameterControlType>8</ParameterControlType>
														<LowerBound>0</LowerBound>
														<UpperBound>32768</UpperBound>
														<value>-91445760000000000,0.,0,0,0,0,0,0</value>
													</parameter>
													<parameter authoringApp="PremierePro">
														<parameterid>13</parameterid>
														<name>start</name>
														<IsTimeVarying>false</IsTimeVarying>
														<ParameterControlType>8</ParameterControlType>
														<LowerBound>-100</LowerBound>
														<UpperBound>1000000000</UpperBound>
														<value>-91445760000000000,30.,0,0,0,0,0,0</value>
													</parameter>
													<parameter authoringApp="PremierePro">
														<parameterid>14</parameterid>
														<name>end</name>
														<IsTimeVarying>false</IsTimeVarying>
														<ParameterControlType>8</ParameterControlType>
														<LowerBound>-100</LowerBound>
														<UpperBound>1000000000</UpperBound>
														<value>-91445760000000000,30.,0,0,0,0,0,0</value>
													</parameter>
													<parameter authoringApp="PremierePro">
														<parameterid>15</parameterid>
														<name> </name>
														<IsTimeVarying>false</IsTimeVarying>
														<ParameterControlType>4</ParameterControlType>
														<LowerBound>false</LowerBound>
														<UpperBound>true</UpperBound>
														<value>-91445760000000000,false,0,0,0,0,0,0</value>
													</parameter>
													<parameter authoringApp="PremierePro">
														<parameterid>16</parameterid>
														<name> </name>
														<IsTimeVarying>false</IsTimeVarying>
														<ParameterControlType>4</ParameterControlType>
														<LowerBound>false</LowerBound>
														<UpperBound>true</UpperBound>
														<value>-91445760000000000,false,0,0,0,0,0,0</value>
													</parameter>
													<parameter authoringApp="PremierePro">
														<parameterid>17</parameterid>
														<name> </name>
														<IsTimeVarying>false</IsTimeVarying>
														<ParameterControlType>4</ParameterControlType>
														<LowerBound>false</LowerBound>
														<UpperBound>true</UpperBound>
														<value>-91445760000000000,false,0,0,0,0,0,0</value>
													</parameter>
													<parameter authoringApp="PremierePro">
														<parameterid>18</parameterid>
														<name> </name>
														<IsTimeVarying>false</IsTimeVarying>
														<ParameterControlType>4</ParameterControlType>
														<LowerBound>false</LowerBound>
														<UpperBound>true</UpperBound>
														<value>-91445760000000000,false,0,0,0,0,0,0</value>
													</parameter>
													<parameter authoringApp="PremierePro">
														<parameterid>19</parameterid>
														<name>Parent Width</name>
														<IsTimeVarying>false</IsTimeVarying>
														<ParameterControlType>2</ParameterControlType>
														<LowerBound>0</LowerBound>
														<UpperBound>20000</UpperBound>
														<value>-91445760000000000,0.,0,0,0,0,0,0</value>
													</parameter>
													<parameter authoringApp="PremierePro">
														<parameterid>20</parameterid>
														<name>Parent Height</name>
														<IsTimeVarying>false</IsTimeVarying>
														<ParameterControlType>2</ParameterControlType>
														<LowerBound>0</LowerBound>
														<UpperBound>20000</UpperBound>
														<value>-91445760000000000,0.,0,0,0,0,0,0</value>
													</parameter>
													<parameter authoringApp="PremierePro">
														<parameterid>21</parameterid>
														<name>Parent Rotation</name>
														<IsTimeVarying>false</IsTimeVarying>
														<ParameterControlType>3</ParameterControlType>
														<LowerBound>-32768</LowerBound>
														<UpperBound>32767</UpperBound>
														<value>-91445760000000000,0.,0,0,0,0,0,0</value>
													</parameter>
												</effect>
											</filter>
											<logginginfo>
												<description></description>
												<scene></scene>
												<shottake></shottake>
												<lognote></lognote>
												<good></good>
												<originalvideofilename></originalvideofilename>
												<originalaudiofilename></originalaudiofilename>
											</logginginfo>
											<colorinfo>
												<lut></lut>
												<lut1></lut1>
												<asc_sop></asc_sop>
												<asc_sat></asc_sat>
												<lut2></lut2>
											</colorinfo>
										</clipitem>
										<transitionitem>
											<start>328</start>
											<end>350</end>
											<alignment>end-black</alignment>
											<cutPointTicks>223534080000</cutPointTicks>
											<rate>
												<timebase>25</timebase>
												<ntsc>FALSE</ntsc>
											</rate>
											<effect>
												<name>Edge Wipe</name>
												<effectid>Edge Wipe</effectid>
												<effectcategory>Wipe</effectcategory>
												<effecttype>transition</effecttype>
												<mediatype>video</mediatype>
												<wipecode>2</wipecode>
												<wipeaccuracy>100</wipeaccuracy>
												<startratio>0</startratio>
												<endratio>1</endratio>
												<reverse>FALSE</reverse>
												<parameter authoringApp="PremierePro">
													<parameterid>directionofwipe</parameterid>
													<name>Angle</name>
													<valuemin>-360</valuemin>
													<valuemax>360</valuemax>
													<value>90</value>
												</parameter>
											</effect>
										</transitionitem>
										<enabled>TRUE</enabled>
										<locked>FALSE</locked>
									</track>
								</video>
								<audio>
									<numOutputChannels>2</numOutputChannels>
									<format>
										<samplecharacteristics>
											<depth>16</depth>
											<samplerate>48000</samplerate>
										</samplecharacteristics>
									</format>
									<outputs>
										<group>
											<index>1</index>
											<numchannels>1</numchannels>
											<downmix>0</downmix>
											<channel>
												<index>1</index>
											</channel>
										</group>
										<group>
											<index>2</index>
											<numchannels>1</numchannels>
											<downmix>0</downmix>
											<channel>
												<index>2</index>
											</channel>
										</group>
									</outputs>
									<track TL.SQTrackAudioKeyframeStyle="0" TL.SQTrackShy="0" TL.SQTrackExpandedHeight="25" TL.SQTrackExpanded="0" MZ.TrackTargeted="1" PannerCurrentValue="0.5" PannerStartKeyframe="-91445760000000000,0.5,0,0,0,0,0,0" PannerName="Balance" currentExplodedTrackIndex="0" totalExplodedTrackCount="2" premiereTrackType="Stereo">
										<enabled>TRUE</enabled>
										<locked>FALSE</locked>
										<outputchannelindex>1</outputchannelindex>
									</track>
									<track TL.SQTrackAudioKeyframeStyle="0" TL.SQTrackShy="0" TL.SQTrackExpandedHeight="25" TL.SQTrackExpanded="0" MZ.TrackTargeted="1" PannerCurrentValue="0.5" PannerStartKeyframe="-91445760000000000,0.5,0,0,0,0,0,0" PannerName="Balance" currentExplodedTrackIndex="1" totalExplodedTrackCount="2" premiereTrackType="Stereo">
										<enabled>TRUE</enabled>
										<locked>FALSE</locked>
										<outputchannelindex>2</outputchannelindex>
									</track>
								</audio>
							</media>
							<timecode>
								<rate>
									<timebase>25</timebase>
									<ntsc>FALSE</ntsc>
								</rate>
								<string>00:00:00:00</string>
								<frame>0</frame>
								<displayformat>NDF</displayformat>
							</timecode>
								<marker>
									<comment></comment>
									<name></name>
									<in>125</in>
									<out>-1</out>
									<pproColor>4280578025</pproColor>
								</marker>
							<logginginfo>
								<description></description>
								<scene></scene>
								<shottake></shottake>
								<lognote></lognote>
								<good></good>
								<originalvideofilename></originalvideofilename>
								<originalaudiofilename></originalaudiofilename>
							</logginginfo>
						</sequence>
							<marker>
								<comment></comment>
								<name></name>
								<in>125</in>
								<out>-1</out>
								<pproColor>4280578025</pproColor>
							</marker>
						<labels>
							<label2>Forest</label2>
						</labels>
					</clipitem>
					<clipitem id="clipitem-1753">
						<masterclipid>masterclip-742</masterclipid>
						<name>8</name>
						<enabled>TRUE</enabled>
						<duration>475</duration>
						<rate>
							<timebase>25</timebase>
							<ntsc>FALSE</ntsc>
						</rate>
						<start>26227</start>
						<end>26578</end>
						<in>124</in>
						<out>475</out>
						<pproTicksIn>1259919360000</pproTicksIn>
						<pproTicksOut>4826304000000</pproTicksOut>
						<sequence id="sequence-137"/>
							<marker>
								<comment></comment>
								<name></name>
								<in>125</in>
								<out>-1</out>
								<pproColor>4280578025</pproColor>
							</marker>
						<labels>
							<label2>Forest</label2>
						</labels>
					</clipitem>
					<clipitem id="clipitem-1754">
						<masterclipid>masterclip-747</masterclipid>
						<name>7_TITLE</name>
						<enabled>TRUE</enabled>
						<duration>475</duration>
						<rate>
							<timebase>25</timebase>
							<ntsc>FALSE</ntsc>
						</rate>
						<start>27419</start>
						<end>27769</end>
						<in>0</in>
						<out>475</out>
						<pproTicksIn>0</pproTicksIn>
						<pproTicksOut>4826304000000</pproTicksOut>
						<sequence id="sequence-138" TL.SQAudioVisibleBase="0" TL.SQVideoVisibleBase="0" TL.SQVisibleBaseTime="0" TL.SQAVDividerPosition="0.5" TL.SQHideShyTracks="0" TL.SQHeaderWidth="236" TL.SQDataTrackViewControlState="0" Monitor.ProgramZoomOut="4826304000000" Monitor.ProgramZoomIn="0" TL.SQTimePerPixel="0.024999999999999998" AM.TrackVScrollPosition="0" AM.TrackScrollPosition="0" MZ.EditLine="1473292800000" MZ.Sequence.PreviewFrameSizeHeight="576" MZ.Sequence.PreviewFrameSizeWidth="720" MZ.Sequence.AudioTimeDisplayFormat="200" MZ.Sequence.PreviewRenderingClassID="1061109567" MZ.Sequence.PreviewRenderingPresetCodec="1685480304" MZ.Sequence.PreviewRenderingPresetPath="EncoderPresets/SequencePreview/04be6e19-a018-4e0c-a9d6-0ab44c64752b/QuickTime DV PAL.epr" MZ.Sequence.PreviewUseMaxRenderQuality="false" MZ.Sequence.PreviewUseMaxBitDepth="false" MZ.Sequence.EditingModeGUID="04be6e19-a018-4e0c-a9d6-0ab44c64752b" MZ.Sequence.VideoTimeDisplayFormat="101" MZ.WorkOutPoint="4826304000000" MZ.WorkInPoint="0" MZ.ZeroPoint="0">
							<duration>475</duration>
							<rate>
								<timebase>25</timebase>
								<ntsc>FALSE</ntsc>
							</rate>
							<name>титр</name>
							<media>
								<video>
									<format>
										<samplecharacteristics>
											<rate>
												<timebase>25</timebase>
												<ntsc>FALSE</ntsc>
											</rate>
											<codec>
												<name>Apple ProRes 422</name>
												<appspecificdata>
													<appname>Final Cut Pro</appname>
													<appmanufacturer>Apple Inc.</appmanufacturer>
													<appversion>7.0</appversion>
													<data>
														<qtcodec>
															<codecname>Apple ProRes 422</codecname>
															<codectypename>Apple ProRes 422</codectypename>
															<codectypecode>apcn</codectypecode>
															<codecvendorcode>appl</codecvendorcode>
															<spatialquality>1024</spatialquality>
															<temporalquality>0</temporalquality>
															<keyframerate>0</keyframerate>
															<datarate>0</datarate>
														</qtcodec>
													</data>
												</appspecificdata>
											</codec>
											<width>720</width>
											<height>576</height>
											<anamorphic>TRUE</anamorphic>
											<pixelaspectratio>PAL-601</pixelaspectratio>
											<fielddominance>lower</fielddominance>
											<colordepth>24</colordepth>
										</samplecharacteristics>
									</format>
									<track TL.SQTrackShy="0" TL.SQTrackExpandedHeight="25" TL.SQTrackExpanded="0" MZ.TrackTargeted="1">
										<clipitem id="clipitem-1755">
											<masterclipid>masterclip-748</masterclipid>
											<name>9_title.mov</name>
											<enabled>TRUE</enabled>
											<duration>225</duration>
											<rate>
												<timebase>25</timebase>
												<ntsc>FALSE</ntsc>
											</rate>
											<start>125</start>
											<end>350</end>
											<in>0</in>
											<out>225</out>
											<pproTicksIn>0</pproTicksIn>
											<pproTicksOut>2286144000000</pproTicksOut>
											<alphatype>straight</alphatype>
											<pixelaspectratio>square</pixelaspectratio>
											<anamorphic>FALSE</anamorphic>
											<file id="file-620">
												<name>7_title.mov</name>
												<pathurl>file://localhost/_MUZ_TV/graphika/RU-21/MOD/title_plashka/7_title.mov</pathurl>
												<rate>
													<timebase>25</timebase>
													<ntsc>FALSE</ntsc>
												</rate>
												<duration>225</duration>
												<timecode>
													<rate>
														<timebase>25</timebase>
														<ntsc>FALSE</ntsc>
													</rate>
													<string>00:00:27:00</string>
													<frame>675</frame>
													<displayformat>NDF</displayformat>
												</timecode>
												<media>
													<video>
														<samplecharacteristics>
															<rate>
																<timebase>25</timebase>
																<ntsc>FALSE</ntsc>
															</rate>
															<width>1920</width>
															<height>1080</height>
															<anamorphic>FALSE</anamorphic>
															<pixelaspectratio>square</pixelaspectratio>
															<fielddominance>none</fielddominance>
														</samplecharacteristics>
													</video>
												</media>
											</file>
											<filter>
												<effect>
													<name>Basic Motion</name>
													<effectid>basic</effectid>
													<effectcategory>motion</effectcategory>
													<effecttype>motion</effecttype>
													<mediatype>video</mediatype>
													<pproBypass>false</pproBypass>
													<parameter authoringApp="PremierePro">
														<parameterid>scale</parameterid>
														<name>Scale</name>
														<valuemin>0</valuemin>
														<valuemax>1000</valuemax>
														<value>55</value>
													</parameter>
													<parameter authoringApp="PremierePro">
														<parameterid>rotation</parameterid>
														<name>Rotation</name>
														<valuemin>-8640</valuemin>
														<valuemax>8640</valuemax>
														<value>0</value>
													</parameter>
													<parameter authoringApp="PremierePro">
														<parameterid>center</parameterid>
														<name>Center</name>
														<value>
															<horiz>0</horiz>
															<vert>0</vert>
														</value>
													</parameter>
													<parameter authoringApp="PremierePro">
														<parameterid>centerOffset</parameterid>
														<name>Anchor Point</name>
														<value>
															<horiz>0</horiz>
															<vert>0</vert>
														</value>
													</parameter>
													<parameter authoringApp="PremierePro">
														<parameterid>antiflicker</parameterid>
														<name>Anti-flicker Filter</name>
														<valuemin>0.0</valuemin>
														<valuemax>1.0</valuemax>
														<value>0</value>
													</parameter>
												</effect>
											</filter>
											<filter>
												<effect>
													<name>Distort</name>
													<effectid>deformation</effectid>
													<effectcategory>motion</effectcategory>
													<effecttype>motion</effecttype>
													<mediatype>video</mediatype>
													<parameter authoringApp="PremierePro">
														<parameterid>aspect</parameterid>
														<name>Aspect</name>
														<valuemin>-10000</valuemin>
														<valuemax>10000</valuemax>
														<value>-3.12506</value>
													</parameter>
												</effect>
											</filter>
											<logginginfo>
												<description></description>
												<scene></scene>
												<shottake></shottake>
												<lognote></lognote>
												<good></good>
												<originalvideofilename></originalvideofilename>
												<originalaudiofilename></originalaudiofilename>
											</logginginfo>
											<colorinfo>
												<lut></lut>
												<lut1></lut1>
												<asc_sop></asc_sop>
												<asc_sat></asc_sat>
												<lut2></lut2>
											</colorinfo>
											<labels>
												<label2>Violet</label2>
											</labels>
										</clipitem>
										<clipitem id="clipitem-1756">
											<masterclipid>masterclip-749</masterclipid>
											<name>Graphic</name>
											<enabled>FALSE</enabled>
											<duration>1080000</duration>
											<rate>
												<timebase>25</timebase>
												<ntsc>FALSE</ntsc>
											</rate>
											<start>350</start>
											<end>475</end>
											<in>90000</in>
											<out>90125</out>
											<pproTicksIn>914457600000000</pproTicksIn>
											<pproTicksOut>915727680000000</pproTicksOut>
											<alphatype>straight</alphatype>
											<pixelaspectratio>PAL-601</pixelaspectratio>
											<anamorphic>TRUE</anamorphic>
											<file id="file-621">
												<name>Graphic</name>
												<mediaSource>GraphicAndType</mediaSource>
												<rate>
													<timebase>30</timebase>
													<ntsc>TRUE</ntsc>
												</rate>
												<timecode>
													<rate>
														<timebase>30</timebase>
														<ntsc>TRUE</ntsc>
													</rate>
													<string>00;00;00;00</string>
													<frame>0</frame>
													<displayformat>DF</displayformat>
												</timecode>
												<media>
													<video>
														<samplecharacteristics>
															<rate>
																<timebase>30</timebase>
																<ntsc>TRUE</ntsc>
															</rate>
															<width>720</width>
															<height>576</height>
															<anamorphic>TRUE</anamorphic>
															<pixelaspectratio>PAL-601</pixelaspectratio>
															<fielddominance>none</fielddominance>
														</samplecharacteristics>
													</video>
												</media>
											</file>
											<filter>
												<effect>
													<name>Basic Motion</name>
													<effectid>basic</effectid>
													<effectcategory>motion</effectcategory>
													<effecttype>motion</effecttype>
													<mediatype>video</mediatype>
													<pproBypass>false</pproBypass>
													<parameter authoringApp="PremierePro">
														<parameterid>scale</parameterid>
														<name>Scale</name>
														<valuemin>0</valuemin>
														<valuemax>1000</valuemax>
														<value>133.333</value>
													</parameter>
													<parameter authoringApp="PremierePro">
														<parameterid>rotation</parameterid>
														<name>Rotation</name>
														<valuemin>-8640</valuemin>
														<valuemax>8640</valuemax>
														<value>0</value>
													</parameter>
													<parameter authoringApp="PremierePro">
														<parameterid>center</parameterid>
														<name>Center</name>
														<value>
															<horiz>0</horiz>
															<vert>0</vert>
														</value>
													</parameter>
													<parameter authoringApp="PremierePro">
														<parameterid>centerOffset</parameterid>
														<name>Anchor Point</name>
														<value>
															<horiz>0</horiz>
															<vert>0</vert>
														</value>
													</parameter>
													<parameter authoringApp="PremierePro">
														<parameterid>antiflicker</parameterid>
														<name>Anti-flicker Filter</name>
														<valuemin>0.0</valuemin>
														<valuemax>1.0</valuemax>
														<value>0</value>
													</parameter>
												</effect>
											</filter>
											<filter>
												<effect>
													<name>Distort</name>
													<effectid>deformation</effectid>
													<effectcategory>motion</effectcategory>
													<effecttype>motion</effecttype>
													<mediatype>video</mediatype>
													<parameter authoringApp="PremierePro">
														<parameterid>aspect</parameterid>
														<name>Aspect</name>
														<valuemin>-10000</valuemin>
														<valuemax>10000</valuemax>
														<value>-33.333</value>
													</parameter>
												</effect>
											</filter>
											<filter>
												<effect>
													<name></name>
													<effectid>GraphicAndType</effectid>
													<effectcategory>graphic</effectcategory>
													<effecttype>filter</effecttype>
													<mediatype>video</mediatype>
													<pproBypass>false</pproBypass>
													<parameter authoringApp="PremierePro">
														<parameterid>1</parameterid>
														<name>Source Text</name>
														<hash>3f0faa81-c1b0-8370-b66c-fa0b000009f1</hash>
													</parameter>
													<parameter authoringApp="PremierePro">
														<parameterid>2</parameterid>
														<name>Transform</name>
														<IsTimeVarying>false</IsTimeVarying>
														<ParameterControlType>11</ParameterControlType>
														<LowerBound>false</LowerBound>
														<UpperBound>false</UpperBound>
														<value>-91445760000000000,false,0,0,0,0,0,0</value>
													</parameter>
													<parameter authoringApp="PremierePro">
														<parameterid>3</parameterid>
														<name>Position</name>
														<IsTimeVarying>false</IsTimeVarying>
														<value>-91445760000000000,0.55605381727218628:0.73039215803146362,0,0,0,0,0,0,5,4,0,0,0,0</value>
													</parameter>
													<parameter authoringApp="PremierePro">
														<parameterid>4</parameterid>
														<name>Scale</name>
														<IsTimeVarying>false</IsTimeVarying>
														<ParameterControlType>2</ParameterControlType>
														<LowerBound>0</LowerBound>
														<UpperBound>4000</UpperBound>
														<value>-91445760000000000,100.,0,0,0,0,0,0</value>
													</parameter>
													<parameter authoringApp="PremierePro">
														<parameterid>5</parameterid>
														<name>Horizontal Scale</name>
														<IsTimeVarying>false</IsTimeVarying>
														<ParameterControlType>2</ParameterControlType>
														<LowerBound>0</LowerBound>
														<UpperBound>4000</UpperBound>
														<value>-91445760000000000,100.,0,0,0,0,0,0</value>
													</parameter>
													<parameter authoringApp="PremierePro">
														<parameterid>6</parameterid>
														<name> </name>
														<IsTimeVarying>false</IsTimeVarying>
														<ParameterControlType>4</ParameterControlType>
														<LowerBound>false</LowerBound>
														<UpperBound>true</UpperBound>
														<value>-91445760000000000,true,0,0,0,0,0,0</value>
													</parameter>
													<parameter authoringApp="PremierePro">
														<parameterid>7</parameterid>
														<name>Rotation</name>
														<IsTimeVarying>false</IsTimeVarying>
														<ParameterControlType>3</ParameterControlType>
														<LowerBound>-32768</LowerBound>
														<UpperBound>32767</UpperBound>
														<value>-91445760000000000,0.,0,0,0,0,0,0</value>
													</parameter>
													<parameter authoringApp="PremierePro">
														<parameterid>8</parameterid>
														<name>Opacity</name>
														<IsTimeVarying>false</IsTimeVarying>
														<ParameterControlType>2</ParameterControlType>
														<LowerBound>0</LowerBound>
														<UpperBound>100</UpperBound>
														<value>-91445760000000000,100.,0,0,0,0,0,0</value>
													</parameter>
													<parameter authoringApp="PremierePro">
														<parameterid>9</parameterid>
														<name>Anchor Point</name>
														<IsTimeVarying>false</IsTimeVarying>
														<value>-91445760000000000,0:0,0,0,0,0,0,0,5,4,0,0,0,0</value>
													</parameter>
													<parameter authoringApp="PremierePro">
														<parameterid>10</parameterid>
														<name></name>
														<IsTimeVarying>false</IsTimeVarying>
														<ParameterControlType>12</ParameterControlType>
														<LowerBound>false</LowerBound>
														<UpperBound>false</UpperBound>
														<value>-91445760000000000,false,0,0,0,0,0,0</value>
													</parameter>
													<parameter authoringApp="PremierePro">
														<parameterid>11</parameterid>
														<name> </name>
														<IsTimeVarying>false</IsTimeVarying>
														<ParameterControlType>8</ParameterControlType>
														<LowerBound>0</LowerBound>
														<UpperBound>32768</UpperBound>
														<value>-91445760000000000,0.,0,0,0,0,0,0</value>
													</parameter>
													<parameter authoringApp="PremierePro">
														<parameterid>12</parameterid>
														<name> </name>
														<IsTimeVarying>false</IsTimeVarying>
														<ParameterControlType>8</ParameterControlType>
														<LowerBound>0</LowerBound>
														<UpperBound>32768</UpperBound>
														<value>-91445760000000000,0.,0,0,0,0,0,0</value>
													</parameter>
													<parameter authoringApp="PremierePro">
														<parameterid>13</parameterid>
														<name>start</name>
														<IsTimeVarying>false</IsTimeVarying>
														<ParameterControlType>8</ParameterControlType>
														<LowerBound>-100</LowerBound>
														<UpperBound>1000000000</UpperBound>
														<value>-91445760000000000,0.,0,0,0,0,0,0</value>
													</parameter>
													<parameter authoringApp="PremierePro">
														<parameterid>14</parameterid>
														<name>end</name>
														<IsTimeVarying>false</IsTimeVarying>
														<ParameterControlType>8</ParameterControlType>
														<LowerBound>-100</LowerBound>
														<UpperBound>1000000000</UpperBound>
														<value>-91445760000000000,0.,0,0,0,0,0,0</value>
													</parameter>
													<parameter authoringApp="PremierePro">
														<parameterid>15</parameterid>
														<name> </name>
														<IsTimeVarying>false</IsTimeVarying>
														<ParameterControlType>4</ParameterControlType>
														<LowerBound>false</LowerBound>
														<UpperBound>true</UpperBound>
														<value>-91445760000000000,false,0,0,0,0,0,0</value>
													</parameter>
													<parameter authoringApp="PremierePro">
														<parameterid>16</parameterid>
														<name> </name>
														<IsTimeVarying>false</IsTimeVarying>
														<ParameterControlType>4</ParameterControlType>
														<LowerBound>false</LowerBound>
														<UpperBound>true</UpperBound>
														<value>-91445760000000000,false,0,0,0,0,0,0</value>
													</parameter>
													<parameter authoringApp="PremierePro">
														<parameterid>17</parameterid>
														<name> </name>
														<IsTimeVarying>false</IsTimeVarying>
														<ParameterControlType>4</ParameterControlType>
														<LowerBound>false</LowerBound>
														<UpperBound>true</UpperBound>
														<value>-91445760000000000,false,0,0,0,0,0,0</value>
													</parameter>
													<parameter authoringApp="PremierePro">
														<parameterid>18</parameterid>
														<name> </name>
														<IsTimeVarying>false</IsTimeVarying>
														<ParameterControlType>4</ParameterControlType>
														<LowerBound>false</LowerBound>
														<UpperBound>true</UpperBound>
														<value>-91445760000000000,false,0,0,0,0,0,0</value>
													</parameter>
													<parameter authoringApp="PremierePro">
														<parameterid>19</parameterid>
														<name>Parent Width</name>
														<IsTimeVarying>false</IsTimeVarying>
														<ParameterControlType>2</ParameterControlType>
														<LowerBound>0</LowerBound>
														<UpperBound>20000</UpperBound>
														<value>-91445760000000000,0.,0,0,0,0,0,0</value>
													</parameter>
													<parameter authoringApp="PremierePro">
														<parameterid>20</parameterid>
														<name>Parent Height</name>
														<IsTimeVarying>false</IsTimeVarying>
														<ParameterControlType>2</ParameterControlType>
														<LowerBound>0</LowerBound>
														<UpperBound>20000</UpperBound>
														<value>-91445760000000000,0.,0,0,0,0,0,0</value>
													</parameter>
													<parameter authoringApp="PremierePro">
														<parameterid>21</parameterid>
														<name>Parent Rotation</name>
														<IsTimeVarying>false</IsTimeVarying>
														<ParameterControlType>3</ParameterControlType>
														<LowerBound>-32768</LowerBound>
														<UpperBound>32767</UpperBound>
														<value>-91445760000000000,0.,0,0,0,0,0,0</value>
													</parameter>
												</effect>
											</filter>
											<logginginfo>
												<description></description>
												<scene></scene>
												<shottake></shottake>
												<lognote></lognote>
												<good></good>
												<originalvideofilename></originalvideofilename>
												<originalaudiofilename></originalaudiofilename>
											</logginginfo>
											<colorinfo>
												<lut></lut>
												<lut1></lut1>
												<asc_sop></asc_sop>
												<asc_sat></asc_sat>
												<lut2></lut2>
											</colorinfo>
										</clipitem>
										<enabled>TRUE</enabled>
										<locked>FALSE</locked>
									</track>
									<track TL.SQTrackShy="0" TL.SQTrackExpandedHeight="25" TL.SQTrackExpanded="0" MZ.TrackTargeted="0">
										<transitionitem>
											<start>167</start>
											<end>224</end>
											<alignment>start-black</alignment>
											<cutPointTicks>0</cutPointTicks>
											<rate>
												<timebase>25</timebase>
												<ntsc>FALSE</ntsc>
											</rate>
											<effect>
												<name>Edge Wipe</name>
												<effectid>Edge Wipe</effectid>
												<effectcategory>Wipe</effectcategory>
												<effecttype>transition</effecttype>
												<mediatype>video</mediatype>
												<wipecode>2</wipecode>
												<wipeaccuracy>100</wipeaccuracy>
												<startratio>0</startratio>
												<endratio>1</endratio>
												<reverse>FALSE</reverse>
												<parameter authoringApp="PremierePro">
													<parameterid>directionofwipe</parameterid>
													<name>Angle</name>
													<valuemin>-360</valuemin>
													<valuemax>360</valuemax>
													<value>90</value>
												</parameter>
											</effect>
										</transitionitem>
										<clipitem id="clipitem-1757">
											<masterclipid>masterclip-750</masterclipid>
											<name>9.png</name>
											<enabled>TRUE</enabled>
											<duration>1080000</duration>
											<rate>
												<timebase>25</timebase>
												<ntsc>FALSE</ntsc>
											</rate>
											<start>-1</start>
											<end>-1</end>
											<in>90042</in>
											<out>90225</out>
											<pproTicksIn>914884346880000</pproTicksIn>
											<pproTicksOut>916743744000000</pproTicksOut>
											<alphatype>straight</alphatype>
											<pixelaspectratio>square</pixelaspectratio>
											<anamorphic>FALSE</anamorphic>
											<file id="file-622">
												<name>7.png</name>
												<pathurl>file://localhost/_MUZ_TV/project_AP/RU/_TITLE/469/7.png</pathurl>
												<rate>
													<timebase>30</timebase>
													<ntsc>TRUE</ntsc>
												</rate>
												<timecode>
													<rate>
														<timebase>30</timebase>
														<ntsc>TRUE</ntsc>
													</rate>
													<string>00;00;00;00</string>
													<frame>0</frame>
													<displayformat>DF</displayformat>
												</timecode>
												<media>
													<video>
														<samplecharacteristics>
															<rate>
																<timebase>30</timebase>
																<ntsc>TRUE</ntsc>
															</rate>
															<width>1920</width>
															<height>1080</height>
															<anamorphic>FALSE</anamorphic>
															<pixelaspectratio>square</pixelaspectratio>
															<fielddominance>none</fielddominance>
														</samplecharacteristics>
													</video>
												</media>
											</file>
											<filter>
												<effect>
													<name>Basic Motion</name>
													<effectid>basic</effectid>
													<effectcategory>motion</effectcategory>
													<effecttype>motion</effecttype>
													<mediatype>video</mediatype>
													<pproBypass>false</pproBypass>
													<parameter authoringApp="PremierePro">
														<parameterid>scale</parameterid>
														<name>Scale</name>
														<valuemin>0</valuemin>
														<valuemax>1000</valuemax>
														<value>53.3333</value>
													</parameter>
													<parameter authoringApp="PremierePro">
														<parameterid>rotation</parameterid>
														<name>Rotation</name>
														<valuemin>-8640</valuemin>
														<valuemax>8640</valuemax>
														<value>0</value>
													</parameter>
													<parameter authoringApp="PremierePro">
														<parameterid>center</parameterid>
														<name>Center</name>
														<value>
															<horiz>0</horiz>
															<vert>0</vert>
														</value>
													</parameter>
													<parameter authoringApp="PremierePro">
														<parameterid>centerOffset</parameterid>
														<name>Anchor Point</name>
														<value>
															<horiz>0</horiz>
															<vert>0</vert>
														</value>
													</parameter>
													<parameter authoringApp="PremierePro">
														<parameterid>antiflicker</parameterid>
														<name>Anti-flicker Filter</name>
														<valuemin>0.0</valuemin>
														<valuemax>1.0</valuemax>
														<value>0</value>
													</parameter>
												</effect>
											</filter>
											<logginginfo>
												<description></description>
												<scene></scene>
												<shottake></shottake>
												<lognote></lognote>
												<good></good>
												<originalvideofilename></originalvideofilename>
												<originalaudiofilename></originalaudiofilename>
											</logginginfo>
											<colorinfo>
												<lut></lut>
												<lut1></lut1>
												<asc_sop></asc_sop>
												<asc_sat></asc_sat>
												<lut2></lut2>
											</colorinfo>
											<labels>
												<label2>Lavender</label2>
											</labels>
										</clipitem>
										<transitionitem>
											<start>328</start>
											<end>350</end>
											<alignment>end-black</alignment>
											<cutPointTicks>223534080000</cutPointTicks>
											<rate>
												<timebase>25</timebase>
												<ntsc>FALSE</ntsc>
											</rate>
											<effect>
												<name>Edge Wipe</name>
												<effectid>Edge Wipe</effectid>
												<effectcategory>Wipe</effectcategory>
												<effecttype>transition</effecttype>
												<mediatype>video</mediatype>
												<wipecode>2</wipecode>
												<wipeaccuracy>100</wipeaccuracy>
												<startratio>0</startratio>
												<endratio>1</endratio>
												<reverse>FALSE</reverse>
												<parameter authoringApp="PremierePro">
													<parameterid>directionofwipe</parameterid>
													<name>Angle</name>
													<valuemin>-360</valuemin>
													<valuemax>360</valuemax>
													<value>90</value>
												</parameter>
											</effect>
										</transitionitem>
										<enabled>TRUE</enabled>
										<locked>FALSE</locked>
									</track>
									<track TL.SQTrackShy="0" TL.SQTrackExpandedHeight="25" TL.SQTrackExpanded="0" MZ.TrackTargeted="0">
										<transitionitem>
											<start>167</start>
											<end>224</end>
											<alignment>start-black</alignment>
											<cutPointTicks>0</cutPointTicks>
											<rate>
												<timebase>25</timebase>
												<ntsc>FALSE</ntsc>
											</rate>
											<effect>
												<name>Edge Wipe</name>
												<effectid>Edge Wipe</effectid>
												<effectcategory>Wipe</effectcategory>
												<effecttype>transition</effecttype>
												<mediatype>video</mediatype>
												<wipecode>2</wipecode>
												<wipeaccuracy>100</wipeaccuracy>
												<startratio>0</startratio>
												<endratio>1</endratio>
												<reverse>FALSE</reverse>
												<parameter authoringApp="PremierePro">
													<parameterid>directionofwipe</parameterid>
													<name>Angle</name>
													<valuemin>-360</valuemin>
													<valuemax>360</valuemax>
													<value>90</value>
												</parameter>
											</effect>
										</transitionitem>
										<clipitem id="clipitem-1758">
											<masterclipid>masterclip-751</masterclipid>
											<name>Graphic</name>
											<enabled>FALSE</enabled>
											<duration>1080000</duration>
											<rate>
												<timebase>25</timebase>
												<ntsc>FALSE</ntsc>
											</rate>
											<start>-1</start>
											<end>-1</end>
											<in>89998</in>
											<out>90181</out>
											<pproTicksIn>914437278720000</pproTicksIn>
											<pproTicksOut>916296675840000</pproTicksOut>
											<alphatype>straight</alphatype>
											<pixelaspectratio>PAL-601</pixelaspectratio>
											<anamorphic>TRUE</anamorphic>
											<file id="file-623">
												<name>Graphic</name>
												<mediaSource>GraphicAndType</mediaSource>
												<rate>
													<timebase>30</timebase>
													<ntsc>TRUE</ntsc>
												</rate>
												<timecode>
													<rate>
														<timebase>30</timebase>
														<ntsc>TRUE</ntsc>
													</rate>
													<string>00;00;00;00</string>
													<frame>0</frame>
													<displayformat>DF</displayformat>
												</timecode>
												<media>
													<video>
														<samplecharacteristics>
															<rate>
																<timebase>30</timebase>
																<ntsc>TRUE</ntsc>
															</rate>
															<width>720</width>
															<height>576</height>
															<anamorphic>TRUE</anamorphic>
															<pixelaspectratio>PAL-601</pixelaspectratio>
															<fielddominance>none</fielddominance>
														</samplecharacteristics>
													</video>
												</media>
											</file>
											<filter>
												<effect>
													<name>АРТУР ПИРОЖКОВ&#13;ЛЕТОМ НА ФИЕСТЕ</name>
													<effectid>GraphicAndType</effectid>
													<effectcategory>graphic</effectcategory>
													<effecttype>filter</effecttype>
													<mediatype>video</mediatype>
													<pproBypass>false</pproBypass>
													<pproExpanded>true</pproExpanded>
													<parameter authoringApp="PremierePro">
														<parameterid>1</parameterid>
														<name>Source Text</name>
														<hash>dc092258-f6b9-fd91-a76f-c3e700000476</hash>
													</parameter>
													<parameter authoringApp="PremierePro">
														<parameterid>2</parameterid>
														<name>Transform</name>
														<IsTimeVarying>false</IsTimeVarying>
														<ParameterControlType>11</ParameterControlType>
														<LowerBound>false</LowerBound>
														<UpperBound>false</UpperBound>
														<value>-91445760000000000,false,0,0,0,0,0,0</value>
													</parameter>
													<parameter authoringApp="PremierePro">
														<parameterid>3</parameterid>
														<name>Position</name>
														<IsTimeVarying>false</IsTimeVarying>
														<value>-91445760000000000,0.36944580078125:0.86468505859375,0,0,0,0,0,0,5,4,0,0,0,0</value>
													</parameter>
													<parameter authoringApp="PremierePro">
														<parameterid>4</parameterid>
														<name>Scale</name>
														<IsTimeVarying>false</IsTimeVarying>
														<ParameterControlType>2</ParameterControlType>
														<LowerBound>0</LowerBound>
														<UpperBound>4000</UpperBound>
														<value>-91445760000000000,100.,0,0,0,0,0,0</value>
													</parameter>
													<parameter authoringApp="PremierePro">
														<parameterid>5</parameterid>
														<name>Horizontal Scale</name>
														<IsTimeVarying>false</IsTimeVarying>
														<ParameterControlType>2</ParameterControlType>
														<LowerBound>0</LowerBound>
														<UpperBound>4000</UpperBound>
														<value>-91445760000000000,100.,0,0,0,0,0,0</value>
													</parameter>
													<parameter authoringApp="PremierePro">
														<parameterid>6</parameterid>
														<name> </name>
														<IsTimeVarying>false</IsTimeVarying>
														<ParameterControlType>4</ParameterControlType>
														<LowerBound>false</LowerBound>
														<UpperBound>true</UpperBound>
														<value>-91445760000000000,true,0,0,0,0,0,0</value>
													</parameter>
													<parameter authoringApp="PremierePro">
														<parameterid>7</parameterid>
														<name>Rotation</name>
														<IsTimeVarying>false</IsTimeVarying>
														<ParameterControlType>3</ParameterControlType>
														<LowerBound>-32768</LowerBound>
														<UpperBound>32767</UpperBound>
														<value>-91445760000000000,0.,0,0,0,0,0,0</value>
													</parameter>
													<parameter authoringApp="PremierePro">
														<parameterid>8</parameterid>
														<name>Opacity</name>
														<IsTimeVarying>false</IsTimeVarying>
														<ParameterControlType>2</ParameterControlType>
														<LowerBound>0</LowerBound>
														<UpperBound>100</UpperBound>
														<value>-91445760000000000,100.,0,0,0,0,0,0</value>
													</parameter>
													<parameter authoringApp="PremierePro">
														<parameterid>9</parameterid>
														<name>Anchor Point</name>
														<IsTimeVarying>false</IsTimeVarying>
														<value>-91445760000000000,0:0,0,0,0,0,0,0,5,4,0,0,0,0</value>
													</parameter>
													<parameter authoringApp="PremierePro">
														<parameterid>10</parameterid>
														<name></name>
														<IsTimeVarying>false</IsTimeVarying>
														<ParameterControlType>12</ParameterControlType>
														<LowerBound>false</LowerBound>
														<UpperBound>false</UpperBound>
														<value>-91445760000000000,false,0,0,0,0,0,0</value>
													</parameter>
													<parameter authoringApp="PremierePro">
														<parameterid>11</parameterid>
														<name> </name>
														<IsTimeVarying>false</IsTimeVarying>
														<ParameterControlType>8</ParameterControlType>
														<LowerBound>0</LowerBound>
														<UpperBound>32768</UpperBound>
														<value>-91445760000000000,0.,0,0,0,0,0,0</value>
													</parameter>
													<parameter authoringApp="PremierePro">
														<parameterid>12</parameterid>
														<name> </name>
														<IsTimeVarying>false</IsTimeVarying>
														<ParameterControlType>8</ParameterControlType>
														<LowerBound>0</LowerBound>
														<UpperBound>32768</UpperBound>
														<value>-91445760000000000,0.,0,0,0,0,0,0</value>
													</parameter>
													<parameter authoringApp="PremierePro">
														<parameterid>13</parameterid>
														<name>start</name>
														<IsTimeVarying>false</IsTimeVarying>
														<ParameterControlType>8</ParameterControlType>
														<LowerBound>-100</LowerBound>
														<UpperBound>1000000000</UpperBound>
														<value>-91445760000000000,30.,0,0,0,0,0,0</value>
													</parameter>
													<parameter authoringApp="PremierePro">
														<parameterid>14</parameterid>
														<name>end</name>
														<IsTimeVarying>false</IsTimeVarying>
														<ParameterControlType>8</ParameterControlType>
														<LowerBound>-100</LowerBound>
														<UpperBound>1000000000</UpperBound>
														<value>-91445760000000000,30.,0,0,0,0,0,0</value>
													</parameter>
													<parameter authoringApp="PremierePro">
														<parameterid>15</parameterid>
														<name> </name>
														<IsTimeVarying>false</IsTimeVarying>
														<ParameterControlType>4</ParameterControlType>
														<LowerBound>false</LowerBound>
														<UpperBound>true</UpperBound>
														<value>-91445760000000000,false,0,0,0,0,0,0</value>
													</parameter>
													<parameter authoringApp="PremierePro">
														<parameterid>16</parameterid>
														<name> </name>
														<IsTimeVarying>false</IsTimeVarying>
														<ParameterControlType>4</ParameterControlType>
														<LowerBound>false</LowerBound>
														<UpperBound>true</UpperBound>
														<value>-91445760000000000,false,0,0,0,0,0,0</value>
													</parameter>
													<parameter authoringApp="PremierePro">
														<parameterid>17</parameterid>
														<name> </name>
														<IsTimeVarying>false</IsTimeVarying>
														<ParameterControlType>4</ParameterControlType>
														<LowerBound>false</LowerBound>
														<UpperBound>true</UpperBound>
														<value>-91445760000000000,false,0,0,0,0,0,0</value>
													</parameter>
													<parameter authoringApp="PremierePro">
														<parameterid>18</parameterid>
														<name> </name>
														<IsTimeVarying>false</IsTimeVarying>
														<ParameterControlType>4</ParameterControlType>
														<LowerBound>false</LowerBound>
														<UpperBound>true</UpperBound>
														<value>-91445760000000000,false,0,0,0,0,0,0</value>
													</parameter>
													<parameter authoringApp="PremierePro">
														<parameterid>19</parameterid>
														<name>Parent Width</name>
														<IsTimeVarying>false</IsTimeVarying>
														<ParameterControlType>2</ParameterControlType>
														<LowerBound>0</LowerBound>
														<UpperBound>20000</UpperBound>
														<value>-91445760000000000,0.,0,0,0,0,0,0</value>
													</parameter>
													<parameter authoringApp="PremierePro">
														<parameterid>20</parameterid>
														<name>Parent Height</name>
														<IsTimeVarying>false</IsTimeVarying>
														<ParameterControlType>2</ParameterControlType>
														<LowerBound>0</LowerBound>
														<UpperBound>20000</UpperBound>
														<value>-91445760000000000,0.,0,0,0,0,0,0</value>
													</parameter>
													<parameter authoringApp="PremierePro">
														<parameterid>21</parameterid>
														<name>Parent Rotation</name>
														<IsTimeVarying>false</IsTimeVarying>
														<ParameterControlType>3</ParameterControlType>
														<LowerBound>-32768</LowerBound>
														<UpperBound>32767</UpperBound>
														<value>-91445760000000000,0.,0,0,0,0,0,0</value>
													</parameter>
												</effect>
											</filter>
											<logginginfo>
												<description></description>
												<scene></scene>
												<shottake></shottake>
												<lognote></lognote>
												<good></good>
												<originalvideofilename></originalvideofilename>
												<originalaudiofilename></originalaudiofilename>
											</logginginfo>
											<colorinfo>
												<lut></lut>
												<lut1></lut1>
												<asc_sop></asc_sop>
												<asc_sat></asc_sat>
												<lut2></lut2>
											</colorinfo>
										</clipitem>
										<transitionitem>
											<start>328</start>
											<end>350</end>
											<alignment>end-black</alignment>
											<cutPointTicks>223534080000</cutPointTicks>
											<rate>
												<timebase>25</timebase>
												<ntsc>FALSE</ntsc>
											</rate>
											<effect>
												<name>Edge Wipe</name>
												<effectid>Edge Wipe</effectid>
												<effectcategory>Wipe</effectcategory>
												<effecttype>transition</effecttype>
												<mediatype>video</mediatype>
												<wipecode>2</wipecode>
												<wipeaccuracy>100</wipeaccuracy>
												<startratio>0</startratio>
												<endratio>1</endratio>
												<reverse>FALSE</reverse>
												<parameter authoringApp="PremierePro">
													<parameterid>directionofwipe</parameterid>
													<name>Angle</name>
													<valuemin>-360</valuemin>
													<valuemax>360</valuemax>
													<value>90</value>
												</parameter>
											</effect>
										</transitionitem>
										<enabled>TRUE</enabled>
										<locked>FALSE</locked>
									</track>
								</video>
								<audio>
									<numOutputChannels>2</numOutputChannels>
									<format>
										<samplecharacteristics>
											<depth>16</depth>
											<samplerate>48000</samplerate>
										</samplecharacteristics>
									</format>
									<outputs>
										<group>
											<index>1</index>
											<numchannels>1</numchannels>
											<downmix>0</downmix>
											<channel>
												<index>1</index>
											</channel>
										</group>
										<group>
											<index>2</index>
											<numchannels>1</numchannels>
											<downmix>0</downmix>
											<channel>
												<index>2</index>
											</channel>
										</group>
									</outputs>
									<track TL.SQTrackAudioKeyframeStyle="0" TL.SQTrackShy="0" TL.SQTrackExpandedHeight="25" TL.SQTrackExpanded="0" MZ.TrackTargeted="1" PannerCurrentValue="0.5" PannerStartKeyframe="-91445760000000000,0.5,0,0,0,0,0,0" PannerName="Balance" currentExplodedTrackIndex="0" totalExplodedTrackCount="2" premiereTrackType="Stereo">
										<enabled>TRUE</enabled>
										<locked>FALSE</locked>
										<outputchannelindex>1</outputchannelindex>
									</track>
									<track TL.SQTrackAudioKeyframeStyle="0" TL.SQTrackShy="0" TL.SQTrackExpandedHeight="25" TL.SQTrackExpanded="0" MZ.TrackTargeted="1" PannerCurrentValue="0.5" PannerStartKeyframe="-91445760000000000,0.5,0,0,0,0,0,0" PannerName="Balance" currentExplodedTrackIndex="1" totalExplodedTrackCount="2" premiereTrackType="Stereo">
										<enabled>TRUE</enabled>
										<locked>FALSE</locked>
										<outputchannelindex>2</outputchannelindex>
									</track>
								</audio>
							</media>
							<timecode>
								<rate>
									<timebase>25</timebase>
									<ntsc>FALSE</ntsc>
								</rate>
								<string>00:00:00:00</string>
								<frame>0</frame>
								<displayformat>NDF</displayformat>
							</timecode>
								<marker>
									<comment></comment>
									<name></name>
									<in>125</in>
									<out>-1</out>
									<pproColor>4280578025</pproColor>
								</marker>
							<logginginfo>
								<description></description>
								<scene></scene>
								<shottake></shottake>
								<lognote></lognote>
								<good></good>
								<originalvideofilename></originalvideofilename>
								<originalaudiofilename></originalaudiofilename>
							</logginginfo>
						</sequence>
							<marker>
								<comment></comment>
								<name></name>
								<in>125</in>
								<out>-1</out>
								<pproColor>4280578025</pproColor>
							</marker>
						<labels>
							<label2>Forest</label2>
						</labels>
					</clipitem>
					<clipitem id="clipitem-1759">
						<masterclipid>masterclip-747</masterclipid>
						<name>7</name>
						<enabled>TRUE</enabled>
						<duration>475</duration>
						<rate>
							<timebase>25</timebase>
							<ntsc>FALSE</ntsc>
						</rate>
						<start>33627</start>
						<end>33978</end>
						<in>124</in>
						<out>475</out>
						<pproTicksIn>1259919360000</pproTicksIn>
						<pproTicksOut>4826304000000</pproTicksOut>
						<sequence id="sequence-138"/>
							<marker>
								<comment></comment>
								<name></name>
								<in>125</in>
								<out>-1</out>
								<pproColor>4280578025</pproColor>
							</marker>
						<labels>
							<label2>Forest</label2>
						</labels>
					</clipitem>
					<clipitem id="clipitem-1760">
						<masterclipid>masterclip-720</masterclipid>
						<name>титр</name>
						<enabled>TRUE</enabled>
						<duration>225</duration>
						<rate>
							<timebase>25</timebase>
							<ntsc>FALSE</ntsc>
						</rate>
						<start>34038</start>
						<end>34209</end>
						<in>0</in>
						<out>171</out>
						<pproTicksIn>0</pproTicksIn>
						<pproTicksOut>1737469440000</pproTicksOut>
						<sequence id="sequence-132"/>
						<filter>
							<effect>
								<name>Opacity</name>
								<effectid>opacity</effectid>
								<effectcategory>motion</effectcategory>
								<effecttype>motion</effecttype>
								<mediatype>video</mediatype>
								<pproBypass>false</pproBypass>
								<parameter authoringApp="PremierePro">
									<parameterid>opacity</parameterid>
									<name>opacity</name>
									<valuemin>0</valuemin>
									<valuemax>100</valuemax>
									<value>100</value>
								</parameter>
							</effect>
						</filter>
							<marker>
								<comment></comment>
								<name></name>
								<in>57</in>
								<out>-1</out>
								<pproColor>4294741314</pproColor>
							</marker>
						<labels>
							<label2>Forest</label2>
						</labels>
					</clipitem>
					<clipitem id="clipitem-1761">
						<masterclipid>masterclip-752</masterclipid>
						<name>6_TITLE</name>
						<enabled>TRUE</enabled>
						<duration>475</duration>
						<rate>
							<timebase>25</timebase>
							<ntsc>FALSE</ntsc>
						</rate>
						<start>34783</start>
						<end>35133</end>
						<in>0</in>
						<out>475</out>
						<pproTicksIn>0</pproTicksIn>
						<pproTicksOut>4826304000000</pproTicksOut>
						<sequence id="sequence-139" TL.SQAudioVisibleBase="0" TL.SQVideoVisibleBase="0" TL.SQVisibleBaseTime="0" TL.SQAVDividerPosition="0.5" TL.SQHideShyTracks="0" TL.SQHeaderWidth="236" TL.SQDataTrackViewControlState="0" Monitor.ProgramZoomOut="4826304000000" Monitor.ProgramZoomIn="0" TL.SQTimePerPixel="0.024999999999999998" AM.TrackVScrollPosition="0" AM.TrackScrollPosition="0" MZ.EditLine="1473292800000" MZ.Sequence.PreviewFrameSizeHeight="576" MZ.Sequence.PreviewFrameSizeWidth="720" MZ.Sequence.AudioTimeDisplayFormat="200" MZ.Sequence.PreviewRenderingClassID="1061109567" MZ.Sequence.PreviewRenderingPresetCodec="1685480304" MZ.Sequence.PreviewRenderingPresetPath="EncoderPresets/SequencePreview/04be6e19-a018-4e0c-a9d6-0ab44c64752b/QuickTime DV PAL.epr" MZ.Sequence.PreviewUseMaxRenderQuality="false" MZ.Sequence.PreviewUseMaxBitDepth="false" MZ.Sequence.EditingModeGUID="04be6e19-a018-4e0c-a9d6-0ab44c64752b" MZ.Sequence.VideoTimeDisplayFormat="101" MZ.WorkOutPoint="4826304000000" MZ.WorkInPoint="0" MZ.ZeroPoint="0">
							<duration>475</duration>
							<rate>
								<timebase>25</timebase>
								<ntsc>FALSE</ntsc>
							</rate>
							<name>титр</name>
							<media>
								<video>
									<format>
										<samplecharacteristics>
											<rate>
												<timebase>25</timebase>
												<ntsc>FALSE</ntsc>
											</rate>
											<codec>
												<name>Apple ProRes 422</name>
												<appspecificdata>
													<appname>Final Cut Pro</appname>
													<appmanufacturer>Apple Inc.</appmanufacturer>
													<appversion>7.0</appversion>
													<data>
														<qtcodec>
															<codecname>Apple ProRes 422</codecname>
															<codectypename>Apple ProRes 422</codectypename>
															<codectypecode>apcn</codectypecode>
															<codecvendorcode>appl</codecvendorcode>
															<spatialquality>1024</spatialquality>
															<temporalquality>0</temporalquality>
															<keyframerate>0</keyframerate>
															<datarate>0</datarate>
														</qtcodec>
													</data>
												</appspecificdata>
											</codec>
											<width>720</width>
											<height>576</height>
											<anamorphic>TRUE</anamorphic>
											<pixelaspectratio>PAL-601</pixelaspectratio>
											<fielddominance>lower</fielddominance>
											<colordepth>24</colordepth>
										</samplecharacteristics>
									</format>
									<track TL.SQTrackShy="0" TL.SQTrackExpandedHeight="25" TL.SQTrackExpanded="0" MZ.TrackTargeted="1">
										<clipitem id="clipitem-1762">
											<masterclipid>masterclip-753</masterclipid>
											<name>9_title.mov</name>
											<enabled>TRUE</enabled>
											<duration>225</duration>
											<rate>
												<timebase>25</timebase>
												<ntsc>FALSE</ntsc>
											</rate>
											<start>125</start>
											<end>350</end>
											<in>0</in>
											<out>225</out>
											<pproTicksIn>0</pproTicksIn>
											<pproTicksOut>2286144000000</pproTicksOut>
											<alphatype>straight</alphatype>
											<pixelaspectratio>square</pixelaspectratio>
											<anamorphic>FALSE</anamorphic>
											<file id="file-624">
												<name>6_title.mov</name>
												<pathurl>file://localhost/_MUZ_TV/graphika/RU-21/MOD/title_plashka/6_title.mov</pathurl>
												<rate>
													<timebase>25</timebase>
													<ntsc>FALSE</ntsc>
												</rate>
												<duration>225</duration>
												<timecode>
													<rate>
														<timebase>25</timebase>
														<ntsc>FALSE</ntsc>
													</rate>
													<string>00:00:36:00</string>
													<frame>900</frame>
													<displayformat>NDF</displayformat>
												</timecode>
												<media>
													<video>
														<samplecharacteristics>
															<rate>
																<timebase>25</timebase>
																<ntsc>FALSE</ntsc>
															</rate>
															<width>1920</width>
															<height>1080</height>
															<anamorphic>FALSE</anamorphic>
															<pixelaspectratio>square</pixelaspectratio>
															<fielddominance>none</fielddominance>
														</samplecharacteristics>
													</video>
												</media>
											</file>
											<filter>
												<effect>
													<name>Basic Motion</name>
													<effectid>basic</effectid>
													<effectcategory>motion</effectcategory>
													<effecttype>motion</effecttype>
													<mediatype>video</mediatype>
													<pproBypass>false</pproBypass>
													<parameter authoringApp="PremierePro">
														<parameterid>scale</parameterid>
														<name>Scale</name>
														<valuemin>0</valuemin>
														<valuemax>1000</valuemax>
														<value>55</value>
													</parameter>
													<parameter authoringApp="PremierePro">
														<parameterid>rotation</parameterid>
														<name>Rotation</name>
														<valuemin>-8640</valuemin>
														<valuemax>8640</valuemax>
														<value>0</value>
													</parameter>
													<parameter authoringApp="PremierePro">
														<parameterid>center</parameterid>
														<name>Center</name>
														<value>
															<horiz>0</horiz>
															<vert>0</vert>
														</value>
													</parameter>
													<parameter authoringApp="PremierePro">
														<parameterid>centerOffset</parameterid>
														<name>Anchor Point</name>
														<value>
															<horiz>0</horiz>
															<vert>0</vert>
														</value>
													</parameter>
													<parameter authoringApp="PremierePro">
														<parameterid>antiflicker</parameterid>
														<name>Anti-flicker Filter</name>
														<valuemin>0.0</valuemin>
														<valuemax>1.0</valuemax>
														<value>0</value>
													</parameter>
												</effect>
											</filter>
											<filter>
												<effect>
													<name>Distort</name>
													<effectid>deformation</effectid>
													<effectcategory>motion</effectcategory>
													<effecttype>motion</effecttype>
													<mediatype>video</mediatype>
													<parameter authoringApp="PremierePro">
														<parameterid>aspect</parameterid>
														<name>Aspect</name>
														<valuemin>-10000</valuemin>
														<valuemax>10000</valuemax>
														<value>-3.12506</value>
													</parameter>
												</effect>
											</filter>
											<logginginfo>
												<description></description>
												<scene></scene>
												<shottake></shottake>
												<lognote></lognote>
												<good></good>
												<originalvideofilename></originalvideofilename>
												<originalaudiofilename></originalaudiofilename>
											</logginginfo>
											<colorinfo>
												<lut></lut>
												<lut1></lut1>
												<asc_sop></asc_sop>
												<asc_sat></asc_sat>
												<lut2></lut2>
											</colorinfo>
											<labels>
												<label2>Violet</label2>
											</labels>
										</clipitem>
										<clipitem id="clipitem-1763">
											<masterclipid>masterclip-754</masterclipid>
											<name>Graphic</name>
											<enabled>FALSE</enabled>
											<duration>1080000</duration>
											<rate>
												<timebase>25</timebase>
												<ntsc>FALSE</ntsc>
											</rate>
											<start>350</start>
											<end>475</end>
											<in>90000</in>
											<out>90125</out>
											<pproTicksIn>914457600000000</pproTicksIn>
											<pproTicksOut>915727680000000</pproTicksOut>
											<alphatype>straight</alphatype>
											<pixelaspectratio>PAL-601</pixelaspectratio>
											<anamorphic>TRUE</anamorphic>
											<file id="file-625">
												<name>Graphic</name>
												<mediaSource>GraphicAndType</mediaSource>
												<rate>
													<timebase>30</timebase>
													<ntsc>TRUE</ntsc>
												</rate>
												<timecode>
													<rate>
														<timebase>30</timebase>
														<ntsc>TRUE</ntsc>
													</rate>
													<string>00;00;00;00</string>
													<frame>0</frame>
													<displayformat>DF</displayformat>
												</timecode>
												<media>
													<video>
														<samplecharacteristics>
															<rate>
																<timebase>30</timebase>
																<ntsc>TRUE</ntsc>
															</rate>
															<width>720</width>
															<height>576</height>
															<anamorphic>TRUE</anamorphic>
															<pixelaspectratio>PAL-601</pixelaspectratio>
															<fielddominance>none</fielddominance>
														</samplecharacteristics>
													</video>
												</media>
											</file>
											<filter>
												<effect>
													<name>Basic Motion</name>
													<effectid>basic</effectid>
													<effectcategory>motion</effectcategory>
													<effecttype>motion</effecttype>
													<mediatype>video</mediatype>
													<pproBypass>false</pproBypass>
													<parameter authoringApp="PremierePro">
														<parameterid>scale</parameterid>
														<name>Scale</name>
														<valuemin>0</valuemin>
														<valuemax>1000</valuemax>
														<value>133.333</value>
													</parameter>
													<parameter authoringApp="PremierePro">
														<parameterid>rotation</parameterid>
														<name>Rotation</name>
														<valuemin>-8640</valuemin>
														<valuemax>8640</valuemax>
														<value>0</value>
													</parameter>
													<parameter authoringApp="PremierePro">
														<parameterid>center</parameterid>
														<name>Center</name>
														<value>
															<horiz>0</horiz>
															<vert>0</vert>
														</value>
													</parameter>
													<parameter authoringApp="PremierePro">
														<parameterid>centerOffset</parameterid>
														<name>Anchor Point</name>
														<value>
															<horiz>0</horiz>
															<vert>0</vert>
														</value>
													</parameter>
													<parameter authoringApp="PremierePro">
														<parameterid>antiflicker</parameterid>
														<name>Anti-flicker Filter</name>
														<valuemin>0.0</valuemin>
														<valuemax>1.0</valuemax>
														<value>0</value>
													</parameter>
												</effect>
											</filter>
											<filter>
												<effect>
													<name>Distort</name>
													<effectid>deformation</effectid>
													<effectcategory>motion</effectcategory>
													<effecttype>motion</effecttype>
													<mediatype>video</mediatype>
													<parameter authoringApp="PremierePro">
														<parameterid>aspect</parameterid>
														<name>Aspect</name>
														<valuemin>-10000</valuemin>
														<valuemax>10000</valuemax>
														<value>-33.333</value>
													</parameter>
												</effect>
											</filter>
											<filter>
												<effect>
													<name></name>
													<effectid>GraphicAndType</effectid>
													<effectcategory>graphic</effectcategory>
													<effecttype>filter</effecttype>
													<mediatype>video</mediatype>
													<pproBypass>false</pproBypass>
													<parameter authoringApp="PremierePro">
														<parameterid>1</parameterid>
														<name>Source Text</name>
														<hash>3f0faa81-c1b0-8370-b66c-fa0b000009f1</hash>
													</parameter>
													<parameter authoringApp="PremierePro">
														<parameterid>2</parameterid>
														<name>Transform</name>
														<IsTimeVarying>false</IsTimeVarying>
														<ParameterControlType>11</ParameterControlType>
														<LowerBound>false</LowerBound>
														<UpperBound>false</UpperBound>
														<value>-91445760000000000,false,0,0,0,0,0,0</value>
													</parameter>
													<parameter authoringApp="PremierePro">
														<parameterid>3</parameterid>
														<name>Position</name>
														<IsTimeVarying>false</IsTimeVarying>
														<value>-91445760000000000,0.55605381727218628:0.73039215803146362,0,0,0,0,0,0,5,4,0,0,0,0</value>
													</parameter>
													<parameter authoringApp="PremierePro">
														<parameterid>4</parameterid>
														<name>Scale</name>
														<IsTimeVarying>false</IsTimeVarying>
														<ParameterControlType>2</ParameterControlType>
														<LowerBound>0</LowerBound>
														<UpperBound>4000</UpperBound>
														<value>-91445760000000000,100.,0,0,0,0,0,0</value>
													</parameter>
													<parameter authoringApp="PremierePro">
														<parameterid>5</parameterid>
														<name>Horizontal Scale</name>
														<IsTimeVarying>false</IsTimeVarying>
														<ParameterControlType>2</ParameterControlType>
														<LowerBound>0</LowerBound>
														<UpperBound>4000</UpperBound>
														<value>-91445760000000000,100.,0,0,0,0,0,0</value>
													</parameter>
													<parameter authoringApp="PremierePro">
														<parameterid>6</parameterid>
														<name> </name>
														<IsTimeVarying>false</IsTimeVarying>
														<ParameterControlType>4</ParameterControlType>
														<LowerBound>false</LowerBound>
														<UpperBound>true</UpperBound>
														<value>-91445760000000000,true,0,0,0,0,0,0</value>
													</parameter>
													<parameter authoringApp="PremierePro">
														<parameterid>7</parameterid>
														<name>Rotation</name>
														<IsTimeVarying>false</IsTimeVarying>
														<ParameterControlType>3</ParameterControlType>
														<LowerBound>-32768</LowerBound>
														<UpperBound>32767</UpperBound>
														<value>-91445760000000000,0.,0,0,0,0,0,0</value>
													</parameter>
													<parameter authoringApp="PremierePro">
														<parameterid>8</parameterid>
														<name>Opacity</name>
														<IsTimeVarying>false</IsTimeVarying>
														<ParameterControlType>2</ParameterControlType>
														<LowerBound>0</LowerBound>
														<UpperBound>100</UpperBound>
														<value>-91445760000000000,100.,0,0,0,0,0,0</value>
													</parameter>
													<parameter authoringApp="PremierePro">
														<parameterid>9</parameterid>
														<name>Anchor Point</name>
														<IsTimeVarying>false</IsTimeVarying>
														<value>-91445760000000000,0:0,0,0,0,0,0,0,5,4,0,0,0,0</value>
													</parameter>
													<parameter authoringApp="PremierePro">
														<parameterid>10</parameterid>
														<name></name>
														<IsTimeVarying>false</IsTimeVarying>
														<ParameterControlType>12</ParameterControlType>
														<LowerBound>false</LowerBound>
														<UpperBound>false</UpperBound>
														<value>-91445760000000000,false,0,0,0,0,0,0</value>
													</parameter>
													<parameter authoringApp="PremierePro">
														<parameterid>11</parameterid>
														<name> </name>
														<IsTimeVarying>false</IsTimeVarying>
														<ParameterControlType>8</ParameterControlType>
														<LowerBound>0</LowerBound>
														<UpperBound>32768</UpperBound>
														<value>-91445760000000000,0.,0,0,0,0,0,0</value>
													</parameter>
													<parameter authoringApp="PremierePro">
														<parameterid>12</parameterid>
														<name> </name>
														<IsTimeVarying>false</IsTimeVarying>
														<ParameterControlType>8</ParameterControlType>
														<LowerBound>0</LowerBound>
														<UpperBound>32768</UpperBound>
														<value>-91445760000000000,0.,0,0,0,0,0,0</value>
													</parameter>
													<parameter authoringApp="PremierePro">
														<parameterid>13</parameterid>
														<name>start</name>
														<IsTimeVarying>false</IsTimeVarying>
														<ParameterControlType>8</ParameterControlType>
														<LowerBound>-100</LowerBound>
														<UpperBound>1000000000</UpperBound>
														<value>-91445760000000000,0.,0,0,0,0,0,0</value>
													</parameter>
													<parameter authoringApp="PremierePro">
														<parameterid>14</parameterid>
														<name>end</name>
														<IsTimeVarying>false</IsTimeVarying>
														<ParameterControlType>8</ParameterControlType>
														<LowerBound>-100</LowerBound>
														<UpperBound>1000000000</UpperBound>
														<value>-91445760000000000,0.,0,0,0,0,0,0</value>
													</parameter>
													<parameter authoringApp="PremierePro">
														<parameterid>15</parameterid>
														<name> </name>
														<IsTimeVarying>false</IsTimeVarying>
														<ParameterControlType>4</ParameterControlType>
														<LowerBound>false</LowerBound>
														<UpperBound>true</UpperBound>
														<value>-91445760000000000,false,0,0,0,0,0,0</value>
													</parameter>
													<parameter authoringApp="PremierePro">
														<parameterid>16</parameterid>
														<name> </name>
														<IsTimeVarying>false</IsTimeVarying>
														<ParameterControlType>4</ParameterControlType>
														<LowerBound>false</LowerBound>
														<UpperBound>true</UpperBound>
														<value>-91445760000000000,false,0,0,0,0,0,0</value>
													</parameter>
													<parameter authoringApp="PremierePro">
														<parameterid>17</parameterid>
														<name> </name>
														<IsTimeVarying>false</IsTimeVarying>
														<ParameterControlType>4</ParameterControlType>
														<LowerBound>false</LowerBound>
														<UpperBound>true</UpperBound>
														<value>-91445760000000000,false,0,0,0,0,0,0</value>
													</parameter>
													<parameter authoringApp="PremierePro">
														<parameterid>18</parameterid>
														<name> </name>
														<IsTimeVarying>false</IsTimeVarying>
														<ParameterControlType>4</ParameterControlType>
														<LowerBound>false</LowerBound>
														<UpperBound>true</UpperBound>
														<value>-91445760000000000,false,0,0,0,0,0,0</value>
													</parameter>
													<parameter authoringApp="PremierePro">
														<parameterid>19</parameterid>
														<name>Parent Width</name>
														<IsTimeVarying>false</IsTimeVarying>
														<ParameterControlType>2</ParameterControlType>
														<LowerBound>0</LowerBound>
														<UpperBound>20000</UpperBound>
														<value>-91445760000000000,0.,0,0,0,0,0,0</value>
													</parameter>
													<parameter authoringApp="PremierePro">
														<parameterid>20</parameterid>
														<name>Parent Height</name>
														<IsTimeVarying>false</IsTimeVarying>
														<ParameterControlType>2</ParameterControlType>
														<LowerBound>0</LowerBound>
														<UpperBound>20000</UpperBound>
														<value>-91445760000000000,0.,0,0,0,0,0,0</value>
													</parameter>
													<parameter authoringApp="PremierePro">
														<parameterid>21</parameterid>
														<name>Parent Rotation</name>
														<IsTimeVarying>false</IsTimeVarying>
														<ParameterControlType>3</ParameterControlType>
														<LowerBound>-32768</LowerBound>
														<UpperBound>32767</UpperBound>
														<value>-91445760000000000,0.,0,0,0,0,0,0</value>
													</parameter>
												</effect>
											</filter>
											<logginginfo>
												<description></description>
												<scene></scene>
												<shottake></shottake>
												<lognote></lognote>
												<good></good>
												<originalvideofilename></originalvideofilename>
												<originalaudiofilename></originalaudiofilename>
											</logginginfo>
											<colorinfo>
												<lut></lut>
												<lut1></lut1>
												<asc_sop></asc_sop>
												<asc_sat></asc_sat>
												<lut2></lut2>
											</colorinfo>
										</clipitem>
										<enabled>TRUE</enabled>
										<locked>FALSE</locked>
									</track>
									<track TL.SQTrackShy="0" TL.SQTrackExpandedHeight="25" TL.SQTrackExpanded="0" MZ.TrackTargeted="0">
										<transitionitem>
											<start>167</start>
											<end>224</end>
											<alignment>start-black</alignment>
											<cutPointTicks>0</cutPointTicks>
											<rate>
												<timebase>25</timebase>
												<ntsc>FALSE</ntsc>
											</rate>
											<effect>
												<name>Edge Wipe</name>
												<effectid>Edge Wipe</effectid>
												<effectcategory>Wipe</effectcategory>
												<effecttype>transition</effecttype>
												<mediatype>video</mediatype>
												<wipecode>2</wipecode>
												<wipeaccuracy>100</wipeaccuracy>
												<startratio>0</startratio>
												<endratio>1</endratio>
												<reverse>FALSE</reverse>
												<parameter authoringApp="PremierePro">
													<parameterid>directionofwipe</parameterid>
													<name>Angle</name>
													<valuemin>-360</valuemin>
													<valuemax>360</valuemax>
													<value>90</value>
												</parameter>
											</effect>
										</transitionitem>
										<clipitem id="clipitem-1764">
											<masterclipid>masterclip-755</masterclipid>
											<name>9.png</name>
											<enabled>TRUE</enabled>
											<duration>1080000</duration>
											<rate>
												<timebase>25</timebase>
												<ntsc>FALSE</ntsc>
											</rate>
											<start>-1</start>
											<end>-1</end>
											<in>90042</in>
											<out>90225</out>
											<pproTicksIn>914884346880000</pproTicksIn>
											<pproTicksOut>916743744000000</pproTicksOut>
											<alphatype>straight</alphatype>
											<pixelaspectratio>square</pixelaspectratio>
											<anamorphic>FALSE</anamorphic>
											<file id="file-626">
												<name>6.png</name>
												<pathurl>file://localhost/_MUZ_TV/project_AP/RU/_TITLE/469/6.png</pathurl>
												<rate>
													<timebase>30</timebase>
													<ntsc>TRUE</ntsc>
												</rate>
												<timecode>
													<rate>
														<timebase>30</timebase>
														<ntsc>TRUE</ntsc>
													</rate>
													<string>00;00;00;00</string>
													<frame>0</frame>
													<displayformat>DF</displayformat>
												</timecode>
												<media>
													<video>
														<samplecharacteristics>
															<rate>
																<timebase>30</timebase>
																<ntsc>TRUE</ntsc>
															</rate>
															<width>1920</width>
															<height>1080</height>
															<anamorphic>FALSE</anamorphic>
															<pixelaspectratio>square</pixelaspectratio>
															<fielddominance>none</fielddominance>
														</samplecharacteristics>
													</video>
												</media>
											</file>
											<filter>
												<effect>
													<name>Basic Motion</name>
													<effectid>basic</effectid>
													<effectcategory>motion</effectcategory>
													<effecttype>motion</effecttype>
													<mediatype>video</mediatype>
													<pproBypass>false</pproBypass>
													<parameter authoringApp="PremierePro">
														<parameterid>scale</parameterid>
														<name>Scale</name>
														<valuemin>0</valuemin>
														<valuemax>1000</valuemax>
														<value>53.3333</value>
													</parameter>
													<parameter authoringApp="PremierePro">
														<parameterid>rotation</parameterid>
														<name>Rotation</name>
														<valuemin>-8640</valuemin>
														<valuemax>8640</valuemax>
														<value>0</value>
													</parameter>
													<parameter authoringApp="PremierePro">
														<parameterid>center</parameterid>
														<name>Center</name>
														<value>
															<horiz>0</horiz>
															<vert>0</vert>
														</value>
													</parameter>
													<parameter authoringApp="PremierePro">
														<parameterid>centerOffset</parameterid>
														<name>Anchor Point</name>
														<value>
															<horiz>0</horiz>
															<vert>0</vert>
														</value>
													</parameter>
													<parameter authoringApp="PremierePro">
														<parameterid>antiflicker</parameterid>
														<name>Anti-flicker Filter</name>
														<valuemin>0.0</valuemin>
														<valuemax>1.0</valuemax>
														<value>0</value>
													</parameter>
												</effect>
											</filter>
											<logginginfo>
												<description></description>
												<scene></scene>
												<shottake></shottake>
												<lognote></lognote>
												<good></good>
												<originalvideofilename></originalvideofilename>
												<originalaudiofilename></originalaudiofilename>
											</logginginfo>
											<colorinfo>
												<lut></lut>
												<lut1></lut1>
												<asc_sop></asc_sop>
												<asc_sat></asc_sat>
												<lut2></lut2>
											</colorinfo>
											<labels>
												<label2>Lavender</label2>
											</labels>
										</clipitem>
										<transitionitem>
											<start>328</start>
											<end>350</end>
											<alignment>end-black</alignment>
											<cutPointTicks>223534080000</cutPointTicks>
											<rate>
												<timebase>25</timebase>
												<ntsc>FALSE</ntsc>
											</rate>
											<effect>
												<name>Edge Wipe</name>
												<effectid>Edge Wipe</effectid>
												<effectcategory>Wipe</effectcategory>
												<effecttype>transition</effecttype>
												<mediatype>video</mediatype>
												<wipecode>2</wipecode>
												<wipeaccuracy>100</wipeaccuracy>
												<startratio>0</startratio>
												<endratio>1</endratio>
												<reverse>FALSE</reverse>
												<parameter authoringApp="PremierePro">
													<parameterid>directionofwipe</parameterid>
													<name>Angle</name>
													<valuemin>-360</valuemin>
													<valuemax>360</valuemax>
													<value>90</value>
												</parameter>
											</effect>
										</transitionitem>
										<enabled>TRUE</enabled>
										<locked>FALSE</locked>
									</track>
									<track TL.SQTrackShy="0" TL.SQTrackExpandedHeight="25" TL.SQTrackExpanded="0" MZ.TrackTargeted="0">
										<transitionitem>
											<start>167</start>
											<end>224</end>
											<alignment>start-black</alignment>
											<cutPointTicks>0</cutPointTicks>
											<rate>
												<timebase>25</timebase>
												<ntsc>FALSE</ntsc>
											</rate>
											<effect>
												<name>Edge Wipe</name>
												<effectid>Edge Wipe</effectid>
												<effectcategory>Wipe</effectcategory>
												<effecttype>transition</effecttype>
												<mediatype>video</mediatype>
												<wipecode>2</wipecode>
												<wipeaccuracy>100</wipeaccuracy>
												<startratio>0</startratio>
												<endratio>1</endratio>
												<reverse>FALSE</reverse>
												<parameter authoringApp="PremierePro">
													<parameterid>directionofwipe</parameterid>
													<name>Angle</name>
													<valuemin>-360</valuemin>
													<valuemax>360</valuemax>
													<value>90</value>
												</parameter>
											</effect>
										</transitionitem>
										<clipitem id="clipitem-1765">
											<masterclipid>masterclip-756</masterclipid>
											<name>Graphic</name>
											<enabled>FALSE</enabled>
											<duration>1080000</duration>
											<rate>
												<timebase>25</timebase>
												<ntsc>FALSE</ntsc>
											</rate>
											<start>-1</start>
											<end>-1</end>
											<in>89998</in>
											<out>90181</out>
											<pproTicksIn>914437278720000</pproTicksIn>
											<pproTicksOut>916296675840000</pproTicksOut>
											<alphatype>straight</alphatype>
											<pixelaspectratio>PAL-601</pixelaspectratio>
											<anamorphic>TRUE</anamorphic>
											<file id="file-627">
												<name>Graphic</name>
												<mediaSource>GraphicAndType</mediaSource>
												<rate>
													<timebase>30</timebase>
													<ntsc>TRUE</ntsc>
												</rate>
												<timecode>
													<rate>
														<timebase>30</timebase>
														<ntsc>TRUE</ntsc>
													</rate>
													<string>00;00;00;00</string>
													<frame>0</frame>
													<displayformat>DF</displayformat>
												</timecode>
												<media>
													<video>
														<samplecharacteristics>
															<rate>
																<timebase>30</timebase>
																<ntsc>TRUE</ntsc>
															</rate>
															<width>720</width>
															<height>576</height>
															<anamorphic>TRUE</anamorphic>
															<pixelaspectratio>PAL-601</pixelaspectratio>
															<fielddominance>none</fielddominance>
														</samplecharacteristics>
													</video>
												</media>
											</file>
											<filter>
												<effect>
													<name>АРТУР ПИРОЖКОВ&#13;ЛЕТОМ НА ФИЕСТЕ</name>
													<effectid>GraphicAndType</effectid>
													<effectcategory>graphic</effectcategory>
													<effecttype>filter</effecttype>
													<mediatype>video</mediatype>
													<pproBypass>false</pproBypass>
													<pproExpanded>true</pproExpanded>
													<parameter authoringApp="PremierePro">
														<parameterid>1</parameterid>
														<name>Source Text</name>
														<hash>dc092258-f6b9-fd91-a76f-c3e700000476</hash>
													</parameter>
													<parameter authoringApp="PremierePro">
														<parameterid>2</parameterid>
														<name>Transform</name>
														<IsTimeVarying>false</IsTimeVarying>
														<ParameterControlType>11</ParameterControlType>
														<LowerBound>false</LowerBound>
														<UpperBound>false</UpperBound>
														<value>-91445760000000000,false,0,0,0,0,0,0</value>
													</parameter>
													<parameter authoringApp="PremierePro">
														<parameterid>3</parameterid>
														<name>Position</name>
														<IsTimeVarying>false</IsTimeVarying>
														<value>-91445760000000000,0.36944580078125:0.86468505859375,0,0,0,0,0,0,5,4,0,0,0,0</value>
													</parameter>
													<parameter authoringApp="PremierePro">
														<parameterid>4</parameterid>
														<name>Scale</name>
														<IsTimeVarying>false</IsTimeVarying>
														<ParameterControlType>2</ParameterControlType>
														<LowerBound>0</LowerBound>
														<UpperBound>4000</UpperBound>
														<value>-91445760000000000,100.,0,0,0,0,0,0</value>
													</parameter>
													<parameter authoringApp="PremierePro">
														<parameterid>5</parameterid>
														<name>Horizontal Scale</name>
														<IsTimeVarying>false</IsTimeVarying>
														<ParameterControlType>2</ParameterControlType>
														<LowerBound>0</LowerBound>
														<UpperBound>4000</UpperBound>
														<value>-91445760000000000,100.,0,0,0,0,0,0</value>
													</parameter>
													<parameter authoringApp="PremierePro">
														<parameterid>6</parameterid>
														<name> </name>
														<IsTimeVarying>false</IsTimeVarying>
														<ParameterControlType>4</ParameterControlType>
														<LowerBound>false</LowerBound>
														<UpperBound>true</UpperBound>
														<value>-91445760000000000,true,0,0,0,0,0,0</value>
													</parameter>
													<parameter authoringApp="PremierePro">
														<parameterid>7</parameterid>
														<name>Rotation</name>
														<IsTimeVarying>false</IsTimeVarying>
														<ParameterControlType>3</ParameterControlType>
														<LowerBound>-32768</LowerBound>
														<UpperBound>32767</UpperBound>
														<value>-91445760000000000,0.,0,0,0,0,0,0</value>
													</parameter>
													<parameter authoringApp="PremierePro">
														<parameterid>8</parameterid>
														<name>Opacity</name>
														<IsTimeVarying>false</IsTimeVarying>
														<ParameterControlType>2</ParameterControlType>
														<LowerBound>0</LowerBound>
														<UpperBound>100</UpperBound>
														<value>-91445760000000000,100.,0,0,0,0,0,0</value>
													</parameter>
													<parameter authoringApp="PremierePro">
														<parameterid>9</parameterid>
														<name>Anchor Point</name>
														<IsTimeVarying>false</IsTimeVarying>
														<value>-91445760000000000,0:0,0,0,0,0,0,0,5,4,0,0,0,0</value>
													</parameter>
													<parameter authoringApp="PremierePro">
														<parameterid>10</parameterid>
														<name></name>
														<IsTimeVarying>false</IsTimeVarying>
														<ParameterControlType>12</ParameterControlType>
														<LowerBound>false</LowerBound>
														<UpperBound>false</UpperBound>
														<value>-91445760000000000,false,0,0,0,0,0,0</value>
													</parameter>
													<parameter authoringApp="PremierePro">
														<parameterid>11</parameterid>
														<name> </name>
														<IsTimeVarying>false</IsTimeVarying>
														<ParameterControlType>8</ParameterControlType>
														<LowerBound>0</LowerBound>
														<UpperBound>32768</UpperBound>
														<value>-91445760000000000,0.,0,0,0,0,0,0</value>
													</parameter>
													<parameter authoringApp="PremierePro">
														<parameterid>12</parameterid>
														<name> </name>
														<IsTimeVarying>false</IsTimeVarying>
														<ParameterControlType>8</ParameterControlType>
														<LowerBound>0</LowerBound>
														<UpperBound>32768</UpperBound>
														<value>-91445760000000000,0.,0,0,0,0,0,0</value>
													</parameter>
													<parameter authoringApp="PremierePro">
														<parameterid>13</parameterid>
														<name>start</name>
														<IsTimeVarying>false</IsTimeVarying>
														<ParameterControlType>8</ParameterControlType>
														<LowerBound>-100</LowerBound>
														<UpperBound>1000000000</UpperBound>
														<value>-91445760000000000,30.,0,0,0,0,0,0</value>
													</parameter>
													<parameter authoringApp="PremierePro">
														<parameterid>14</parameterid>
														<name>end</name>
														<IsTimeVarying>false</IsTimeVarying>
														<ParameterControlType>8</ParameterControlType>
														<LowerBound>-100</LowerBound>
														<UpperBound>1000000000</UpperBound>
														<value>-91445760000000000,30.,0,0,0,0,0,0</value>
													</parameter>
													<parameter authoringApp="PremierePro">
														<parameterid>15</parameterid>
														<name> </name>
														<IsTimeVarying>false</IsTimeVarying>
														<ParameterControlType>4</ParameterControlType>
														<LowerBound>false</LowerBound>
														<UpperBound>true</UpperBound>
														<value>-91445760000000000,false,0,0,0,0,0,0</value>
													</parameter>
													<parameter authoringApp="PremierePro">
														<parameterid>16</parameterid>
														<name> </name>
														<IsTimeVarying>false</IsTimeVarying>
														<ParameterControlType>4</ParameterControlType>
														<LowerBound>false</LowerBound>
														<UpperBound>true</UpperBound>
														<value>-91445760000000000,false,0,0,0,0,0,0</value>
													</parameter>
													<parameter authoringApp="PremierePro">
														<parameterid>17</parameterid>
														<name> </name>
														<IsTimeVarying>false</IsTimeVarying>
														<ParameterControlType>4</ParameterControlType>
														<LowerBound>false</LowerBound>
														<UpperBound>true</UpperBound>
														<value>-91445760000000000,false,0,0,0,0,0,0</value>
													</parameter>
													<parameter authoringApp="PremierePro">
														<parameterid>18</parameterid>
														<name> </name>
														<IsTimeVarying>false</IsTimeVarying>
														<ParameterControlType>4</ParameterControlType>
														<LowerBound>false</LowerBound>
														<UpperBound>true</UpperBound>
														<value>-91445760000000000,false,0,0,0,0,0,0</value>
													</parameter>
													<parameter authoringApp="PremierePro">
														<parameterid>19</parameterid>
														<name>Parent Width</name>
														<IsTimeVarying>false</IsTimeVarying>
														<ParameterControlType>2</ParameterControlType>
														<LowerBound>0</LowerBound>
														<UpperBound>20000</UpperBound>
														<value>-91445760000000000,0.,0,0,0,0,0,0</value>
													</parameter>
													<parameter authoringApp="PremierePro">
														<parameterid>20</parameterid>
														<name>Parent Height</name>
														<IsTimeVarying>false</IsTimeVarying>
														<ParameterControlType>2</ParameterControlType>
														<LowerBound>0</LowerBound>
														<UpperBound>20000</UpperBound>
														<value>-91445760000000000,0.,0,0,0,0,0,0</value>
													</parameter>
													<parameter authoringApp="PremierePro">
														<parameterid>21</parameterid>
														<name>Parent Rotation</name>
														<IsTimeVarying>false</IsTimeVarying>
														<ParameterControlType>3</ParameterControlType>
														<LowerBound>-32768</LowerBound>
														<UpperBound>32767</UpperBound>
														<value>-91445760000000000,0.,0,0,0,0,0,0</value>
													</parameter>
												</effect>
											</filter>
											<logginginfo>
												<description></description>
												<scene></scene>
												<shottake></shottake>
												<lognote></lognote>
												<good></good>
												<originalvideofilename></originalvideofilename>
												<originalaudiofilename></originalaudiofilename>
											</logginginfo>
											<colorinfo>
												<lut></lut>
												<lut1></lut1>
												<asc_sop></asc_sop>
												<asc_sat></asc_sat>
												<lut2></lut2>
											</colorinfo>
										</clipitem>
										<transitionitem>
											<start>328</start>
											<end>350</end>
											<alignment>end-black</alignment>
											<cutPointTicks>223534080000</cutPointTicks>
											<rate>
												<timebase>25</timebase>
												<ntsc>FALSE</ntsc>
											</rate>
											<effect>
												<name>Edge Wipe</name>
												<effectid>Edge Wipe</effectid>
												<effectcategory>Wipe</effectcategory>
												<effecttype>transition</effecttype>
												<mediatype>video</mediatype>
												<wipecode>2</wipecode>
												<wipeaccuracy>100</wipeaccuracy>
												<startratio>0</startratio>
												<endratio>1</endratio>
												<reverse>FALSE</reverse>
												<parameter authoringApp="PremierePro">
													<parameterid>directionofwipe</parameterid>
													<name>Angle</name>
													<valuemin>-360</valuemin>
													<valuemax>360</valuemax>
													<value>90</value>
												</parameter>
											</effect>
										</transitionitem>
										<enabled>TRUE</enabled>
										<locked>FALSE</locked>
									</track>
								</video>
								<audio>
									<numOutputChannels>2</numOutputChannels>
									<format>
										<samplecharacteristics>
											<depth>16</depth>
											<samplerate>48000</samplerate>
										</samplecharacteristics>
									</format>
									<outputs>
										<group>
											<index>1</index>
											<numchannels>1</numchannels>
											<downmix>0</downmix>
											<channel>
												<index>1</index>
											</channel>
										</group>
										<group>
											<index>2</index>
											<numchannels>1</numchannels>
											<downmix>0</downmix>
											<channel>
												<index>2</index>
											</channel>
										</group>
									</outputs>
									<track TL.SQTrackAudioKeyframeStyle="0" TL.SQTrackShy="0" TL.SQTrackExpandedHeight="25" TL.SQTrackExpanded="0" MZ.TrackTargeted="1" PannerCurrentValue="0.5" PannerStartKeyframe="-91445760000000000,0.5,0,0,0,0,0,0" PannerName="Balance" currentExplodedTrackIndex="0" totalExplodedTrackCount="2" premiereTrackType="Stereo">
										<enabled>TRUE</enabled>
										<locked>FALSE</locked>
										<outputchannelindex>1</outputchannelindex>
									</track>
									<track TL.SQTrackAudioKeyframeStyle="0" TL.SQTrackShy="0" TL.SQTrackExpandedHeight="25" TL.SQTrackExpanded="0" MZ.TrackTargeted="1" PannerCurrentValue="0.5" PannerStartKeyframe="-91445760000000000,0.5,0,0,0,0,0,0" PannerName="Balance" currentExplodedTrackIndex="1" totalExplodedTrackCount="2" premiereTrackType="Stereo">
										<enabled>TRUE</enabled>
										<locked>FALSE</locked>
										<outputchannelindex>2</outputchannelindex>
									</track>
								</audio>
							</media>
							<timecode>
								<rate>
									<timebase>25</timebase>
									<ntsc>FALSE</ntsc>
								</rate>
								<string>00:00:00:00</string>
								<frame>0</frame>
								<displayformat>NDF</displayformat>
							</timecode>
								<marker>
									<comment></comment>
									<name></name>
									<in>125</in>
									<out>-1</out>
									<pproColor>4280578025</pproColor>
								</marker>
							<logginginfo>
								<description></description>
								<scene></scene>
								<shottake></shottake>
								<lognote></lognote>
								<good></good>
								<originalvideofilename></originalvideofilename>
								<originalaudiofilename></originalaudiofilename>
							</logginginfo>
						</sequence>
							<marker>
								<comment></comment>
								<name></name>
								<in>125</in>
								<out>-1</out>
								<pproColor>4280578025</pproColor>
							</marker>
						<labels>
							<label2>Forest</label2>
						</labels>
					</clipitem>
					<clipitem id="clipitem-1766">
						<masterclipid>masterclip-752</masterclipid>
						<name>6</name>
						<enabled>TRUE</enabled>
						<duration>475</duration>
						<rate>
							<timebase>25</timebase>
							<ntsc>FALSE</ntsc>
						</rate>
						<start>39141</start>
						<end>39492</end>
						<in>124</in>
						<out>475</out>
						<pproTicksIn>1259919360000</pproTicksIn>
						<pproTicksOut>4826304000000</pproTicksOut>
						<sequence id="sequence-139"/>
							<marker>
								<comment></comment>
								<name></name>
								<in>125</in>
								<out>-1</out>
								<pproColor>4280578025</pproColor>
							</marker>
						<labels>
							<label2>Forest</label2>
						</labels>
					</clipitem>
					<clipitem id="clipitem-1767">
						<masterclipid>masterclip-757</masterclipid>
						<name>5_TITLE</name>
						<enabled>TRUE</enabled>
						<duration>475</duration>
						<rate>
							<timebase>25</timebase>
							<ntsc>FALSE</ntsc>
						</rate>
						<start>40090</start>
						<end>40440</end>
						<in>0</in>
						<out>475</out>
						<pproTicksIn>0</pproTicksIn>
						<pproTicksOut>4826304000000</pproTicksOut>
						<sequence id="sequence-140" TL.SQAudioVisibleBase="0" TL.SQVideoVisibleBase="0" TL.SQVisibleBaseTime="0" TL.SQAVDividerPosition="0.5" TL.SQHideShyTracks="0" TL.SQHeaderWidth="236" TL.SQDataTrackViewControlState="0" Monitor.ProgramZoomOut="4826304000000" Monitor.ProgramZoomIn="0" TL.SQTimePerPixel="0.024999999999999998" AM.TrackVScrollPosition="0" AM.TrackScrollPosition="0" MZ.EditLine="1473292800000" MZ.Sequence.PreviewFrameSizeHeight="576" MZ.Sequence.PreviewFrameSizeWidth="720" MZ.Sequence.AudioTimeDisplayFormat="200" MZ.Sequence.PreviewRenderingClassID="1061109567" MZ.Sequence.PreviewRenderingPresetCodec="1685480304" MZ.Sequence.PreviewRenderingPresetPath="EncoderPresets/SequencePreview/04be6e19-a018-4e0c-a9d6-0ab44c64752b/QuickTime DV PAL.epr" MZ.Sequence.PreviewUseMaxRenderQuality="false" MZ.Sequence.PreviewUseMaxBitDepth="false" MZ.Sequence.EditingModeGUID="04be6e19-a018-4e0c-a9d6-0ab44c64752b" MZ.Sequence.VideoTimeDisplayFormat="101" MZ.WorkOutPoint="4826304000000" MZ.WorkInPoint="0" MZ.ZeroPoint="0">
							<duration>475</duration>
							<rate>
								<timebase>25</timebase>
								<ntsc>FALSE</ntsc>
							</rate>
							<name>титр</name>
							<media>
								<video>
									<format>
										<samplecharacteristics>
											<rate>
												<timebase>25</timebase>
												<ntsc>FALSE</ntsc>
											</rate>
											<codec>
												<name>Apple ProRes 422</name>
												<appspecificdata>
													<appname>Final Cut Pro</appname>
													<appmanufacturer>Apple Inc.</appmanufacturer>
													<appversion>7.0</appversion>
													<data>
														<qtcodec>
															<codecname>Apple ProRes 422</codecname>
															<codectypename>Apple ProRes 422</codectypename>
															<codectypecode>apcn</codectypecode>
															<codecvendorcode>appl</codecvendorcode>
															<spatialquality>1024</spatialquality>
															<temporalquality>0</temporalquality>
															<keyframerate>0</keyframerate>
															<datarate>0</datarate>
														</qtcodec>
													</data>
												</appspecificdata>
											</codec>
											<width>720</width>
											<height>576</height>
											<anamorphic>TRUE</anamorphic>
											<pixelaspectratio>PAL-601</pixelaspectratio>
											<fielddominance>lower</fielddominance>
											<colordepth>24</colordepth>
										</samplecharacteristics>
									</format>
									<track TL.SQTrackShy="0" TL.SQTrackExpandedHeight="25" TL.SQTrackExpanded="0" MZ.TrackTargeted="1">
										<clipitem id="clipitem-1768">
											<masterclipid>masterclip-758</masterclipid>
											<name>9_title.mov</name>
											<enabled>TRUE</enabled>
											<duration>225</duration>
											<rate>
												<timebase>25</timebase>
												<ntsc>FALSE</ntsc>
											</rate>
											<start>125</start>
											<end>350</end>
											<in>0</in>
											<out>225</out>
											<pproTicksIn>0</pproTicksIn>
											<pproTicksOut>2286144000000</pproTicksOut>
											<alphatype>straight</alphatype>
											<pixelaspectratio>square</pixelaspectratio>
											<anamorphic>FALSE</anamorphic>
											<file id="file-628">
												<name>5_title.mov</name>
												<pathurl>file://localhost/_MUZ_TV/graphika/RU-21/MOD/title_plashka/5_title.mov</pathurl>
												<rate>
													<timebase>25</timebase>
													<ntsc>FALSE</ntsc>
												</rate>
												<duration>225</duration>
												<timecode>
													<rate>
														<timebase>25</timebase>
														<ntsc>FALSE</ntsc>
													</rate>
													<string>00:00:45:00</string>
													<frame>1125</frame>
													<displayformat>NDF</displayformat>
												</timecode>
												<media>
													<video>
														<samplecharacteristics>
															<rate>
																<timebase>25</timebase>
																<ntsc>FALSE</ntsc>
															</rate>
															<width>1920</width>
															<height>1080</height>
															<anamorphic>FALSE</anamorphic>
															<pixelaspectratio>square</pixelaspectratio>
															<fielddominance>none</fielddominance>
														</samplecharacteristics>
													</video>
												</media>
											</file>
											<filter>
												<effect>
													<name>Basic Motion</name>
													<effectid>basic</effectid>
													<effectcategory>motion</effectcategory>
													<effecttype>motion</effecttype>
													<mediatype>video</mediatype>
													<pproBypass>false</pproBypass>
													<parameter authoringApp="PremierePro">
														<parameterid>scale</parameterid>
														<name>Scale</name>
														<valuemin>0</valuemin>
														<valuemax>1000</valuemax>
														<value>55</value>
													</parameter>
													<parameter authoringApp="PremierePro">
														<parameterid>rotation</parameterid>
														<name>Rotation</name>
														<valuemin>-8640</valuemin>
														<valuemax>8640</valuemax>
														<value>0</value>
													</parameter>
													<parameter authoringApp="PremierePro">
														<parameterid>center</parameterid>
														<name>Center</name>
														<value>
															<horiz>0</horiz>
															<vert>0</vert>
														</value>
													</parameter>
													<parameter authoringApp="PremierePro">
														<parameterid>centerOffset</parameterid>
														<name>Anchor Point</name>
														<value>
															<horiz>0</horiz>
															<vert>0</vert>
														</value>
													</parameter>
													<parameter authoringApp="PremierePro">
														<parameterid>antiflicker</parameterid>
														<name>Anti-flicker Filter</name>
														<valuemin>0.0</valuemin>
														<valuemax>1.0</valuemax>
														<value>0</value>
													</parameter>
												</effect>
											</filter>
											<filter>
												<effect>
													<name>Distort</name>
													<effectid>deformation</effectid>
													<effectcategory>motion</effectcategory>
													<effecttype>motion</effecttype>
													<mediatype>video</mediatype>
													<parameter authoringApp="PremierePro">
														<parameterid>aspect</parameterid>
														<name>Aspect</name>
														<valuemin>-10000</valuemin>
														<valuemax>10000</valuemax>
														<value>-3.12506</value>
													</parameter>
												</effect>
											</filter>
											<logginginfo>
												<description></description>
												<scene></scene>
												<shottake></shottake>
												<lognote></lognote>
												<good></good>
												<originalvideofilename></originalvideofilename>
												<originalaudiofilename></originalaudiofilename>
											</logginginfo>
											<colorinfo>
												<lut></lut>
												<lut1></lut1>
												<asc_sop></asc_sop>
												<asc_sat></asc_sat>
												<lut2></lut2>
											</colorinfo>
											<labels>
												<label2>Violet</label2>
											</labels>
										</clipitem>
										<clipitem id="clipitem-1769">
											<masterclipid>masterclip-759</masterclipid>
											<name>Graphic</name>
											<enabled>FALSE</enabled>
											<duration>1080000</duration>
											<rate>
												<timebase>25</timebase>
												<ntsc>FALSE</ntsc>
											</rate>
											<start>350</start>
											<end>475</end>
											<in>90000</in>
											<out>90125</out>
											<pproTicksIn>914457600000000</pproTicksIn>
											<pproTicksOut>915727680000000</pproTicksOut>
											<alphatype>straight</alphatype>
											<pixelaspectratio>PAL-601</pixelaspectratio>
											<anamorphic>TRUE</anamorphic>
											<file id="file-629">
												<name>Graphic</name>
												<mediaSource>GraphicAndType</mediaSource>
												<rate>
													<timebase>30</timebase>
													<ntsc>TRUE</ntsc>
												</rate>
												<timecode>
													<rate>
														<timebase>30</timebase>
														<ntsc>TRUE</ntsc>
													</rate>
													<string>00;00;00;00</string>
													<frame>0</frame>
													<displayformat>DF</displayformat>
												</timecode>
												<media>
													<video>
														<samplecharacteristics>
															<rate>
																<timebase>30</timebase>
																<ntsc>TRUE</ntsc>
															</rate>
															<width>720</width>
															<height>576</height>
															<anamorphic>TRUE</anamorphic>
															<pixelaspectratio>PAL-601</pixelaspectratio>
															<fielddominance>none</fielddominance>
														</samplecharacteristics>
													</video>
												</media>
											</file>
											<filter>
												<effect>
													<name>Basic Motion</name>
													<effectid>basic</effectid>
													<effectcategory>motion</effectcategory>
													<effecttype>motion</effecttype>
													<mediatype>video</mediatype>
													<pproBypass>false</pproBypass>
													<parameter authoringApp="PremierePro">
														<parameterid>scale</parameterid>
														<name>Scale</name>
														<valuemin>0</valuemin>
														<valuemax>1000</valuemax>
														<value>133.333</value>
													</parameter>
													<parameter authoringApp="PremierePro">
														<parameterid>rotation</parameterid>
														<name>Rotation</name>
														<valuemin>-8640</valuemin>
														<valuemax>8640</valuemax>
														<value>0</value>
													</parameter>
													<parameter authoringApp="PremierePro">
														<parameterid>center</parameterid>
														<name>Center</name>
														<value>
															<horiz>0</horiz>
															<vert>0</vert>
														</value>
													</parameter>
													<parameter authoringApp="PremierePro">
														<parameterid>centerOffset</parameterid>
														<name>Anchor Point</name>
														<value>
															<horiz>0</horiz>
															<vert>0</vert>
														</value>
													</parameter>
													<parameter authoringApp="PremierePro">
														<parameterid>antiflicker</parameterid>
														<name>Anti-flicker Filter</name>
														<valuemin>0.0</valuemin>
														<valuemax>1.0</valuemax>
														<value>0</value>
													</parameter>
												</effect>
											</filter>
											<filter>
												<effect>
													<name>Distort</name>
													<effectid>deformation</effectid>
													<effectcategory>motion</effectcategory>
													<effecttype>motion</effecttype>
													<mediatype>video</mediatype>
													<parameter authoringApp="PremierePro">
														<parameterid>aspect</parameterid>
														<name>Aspect</name>
														<valuemin>-10000</valuemin>
														<valuemax>10000</valuemax>
														<value>-33.333</value>
													</parameter>
												</effect>
											</filter>
											<filter>
												<effect>
													<name></name>
													<effectid>GraphicAndType</effectid>
													<effectcategory>graphic</effectcategory>
													<effecttype>filter</effecttype>
													<mediatype>video</mediatype>
													<pproBypass>false</pproBypass>
													<parameter authoringApp="PremierePro">
														<parameterid>1</parameterid>
														<name>Source Text</name>
														<hash>3f0faa81-c1b0-8370-b66c-fa0b000009f1</hash>
													</parameter>
													<parameter authoringApp="PremierePro">
														<parameterid>2</parameterid>
														<name>Transform</name>
														<IsTimeVarying>false</IsTimeVarying>
														<ParameterControlType>11</ParameterControlType>
														<LowerBound>false</LowerBound>
														<UpperBound>false</UpperBound>
														<value>-91445760000000000,false,0,0,0,0,0,0</value>
													</parameter>
													<parameter authoringApp="PremierePro">
														<parameterid>3</parameterid>
														<name>Position</name>
														<IsTimeVarying>false</IsTimeVarying>
														<value>-91445760000000000,0.55605381727218628:0.73039215803146362,0,0,0,0,0,0,5,4,0,0,0,0</value>
													</parameter>
													<parameter authoringApp="PremierePro">
														<parameterid>4</parameterid>
														<name>Scale</name>
														<IsTimeVarying>false</IsTimeVarying>
														<ParameterControlType>2</ParameterControlType>
														<LowerBound>0</LowerBound>
														<UpperBound>4000</UpperBound>
														<value>-91445760000000000,100.,0,0,0,0,0,0</value>
													</parameter>
													<parameter authoringApp="PremierePro">
														<parameterid>5</parameterid>
														<name>Horizontal Scale</name>
														<IsTimeVarying>false</IsTimeVarying>
														<ParameterControlType>2</ParameterControlType>
														<LowerBound>0</LowerBound>
														<UpperBound>4000</UpperBound>
														<value>-91445760000000000,100.,0,0,0,0,0,0</value>
													</parameter>
													<parameter authoringApp="PremierePro">
														<parameterid>6</parameterid>
														<name> </name>
														<IsTimeVarying>false</IsTimeVarying>
														<ParameterControlType>4</ParameterControlType>
														<LowerBound>false</LowerBound>
														<UpperBound>true</UpperBound>
														<value>-91445760000000000,true,0,0,0,0,0,0</value>
													</parameter>
													<parameter authoringApp="PremierePro">
														<parameterid>7</parameterid>
														<name>Rotation</name>
														<IsTimeVarying>false</IsTimeVarying>
														<ParameterControlType>3</ParameterControlType>
														<LowerBound>-32768</LowerBound>
														<UpperBound>32767</UpperBound>
														<value>-91445760000000000,0.,0,0,0,0,0,0</value>
													</parameter>
													<parameter authoringApp="PremierePro">
														<parameterid>8</parameterid>
														<name>Opacity</name>
														<IsTimeVarying>false</IsTimeVarying>
														<ParameterControlType>2</ParameterControlType>
														<LowerBound>0</LowerBound>
														<UpperBound>100</UpperBound>
														<value>-91445760000000000,100.,0,0,0,0,0,0</value>
													</parameter>
													<parameter authoringApp="PremierePro">
														<parameterid>9</parameterid>
														<name>Anchor Point</name>
														<IsTimeVarying>false</IsTimeVarying>
														<value>-91445760000000000,0:0,0,0,0,0,0,0,5,4,0,0,0,0</value>
													</parameter>
													<parameter authoringApp="PremierePro">
														<parameterid>10</parameterid>
														<name></name>
														<IsTimeVarying>false</IsTimeVarying>
														<ParameterControlType>12</ParameterControlType>
														<LowerBound>false</LowerBound>
														<UpperBound>false</UpperBound>
														<value>-91445760000000000,false,0,0,0,0,0,0</value>
													</parameter>
													<parameter authoringApp="PremierePro">
														<parameterid>11</parameterid>
														<name> </name>
														<IsTimeVarying>false</IsTimeVarying>
														<ParameterControlType>8</ParameterControlType>
														<LowerBound>0</LowerBound>
														<UpperBound>32768</UpperBound>
														<value>-91445760000000000,0.,0,0,0,0,0,0</value>
													</parameter>
													<parameter authoringApp="PremierePro">
														<parameterid>12</parameterid>
														<name> </name>
														<IsTimeVarying>false</IsTimeVarying>
														<ParameterControlType>8</ParameterControlType>
														<LowerBound>0</LowerBound>
														<UpperBound>32768</UpperBound>
														<value>-91445760000000000,0.,0,0,0,0,0,0</value>
													</parameter>
													<parameter authoringApp="PremierePro">
														<parameterid>13</parameterid>
														<name>start</name>
														<IsTimeVarying>false</IsTimeVarying>
														<ParameterControlType>8</ParameterControlType>
														<LowerBound>-100</LowerBound>
														<UpperBound>1000000000</UpperBound>
														<value>-91445760000000000,0.,0,0,0,0,0,0</value>
													</parameter>
													<parameter authoringApp="PremierePro">
														<parameterid>14</parameterid>
														<name>end</name>
														<IsTimeVarying>false</IsTimeVarying>
														<ParameterControlType>8</ParameterControlType>
														<LowerBound>-100</LowerBound>
														<UpperBound>1000000000</UpperBound>
														<value>-91445760000000000,0.,0,0,0,0,0,0</value>
													</parameter>
													<parameter authoringApp="PremierePro">
														<parameterid>15</parameterid>
														<name> </name>
														<IsTimeVarying>false</IsTimeVarying>
														<ParameterControlType>4</ParameterControlType>
														<LowerBound>false</LowerBound>
														<UpperBound>true</UpperBound>
														<value>-91445760000000000,false,0,0,0,0,0,0</value>
													</parameter>
													<parameter authoringApp="PremierePro">
														<parameterid>16</parameterid>
														<name> </name>
														<IsTimeVarying>false</IsTimeVarying>
														<ParameterControlType>4</ParameterControlType>
														<LowerBound>false</LowerBound>
														<UpperBound>true</UpperBound>
														<value>-91445760000000000,false,0,0,0,0,0,0</value>
													</parameter>
													<parameter authoringApp="PremierePro">
														<parameterid>17</parameterid>
														<name> </name>
														<IsTimeVarying>false</IsTimeVarying>
														<ParameterControlType>4</ParameterControlType>
														<LowerBound>false</LowerBound>
														<UpperBound>true</UpperBound>
														<value>-91445760000000000,false,0,0,0,0,0,0</value>
													</parameter>
													<parameter authoringApp="PremierePro">
														<parameterid>18</parameterid>
														<name> </name>
														<IsTimeVarying>false</IsTimeVarying>
														<ParameterControlType>4</ParameterControlType>
														<LowerBound>false</LowerBound>
														<UpperBound>true</UpperBound>
														<value>-91445760000000000,false,0,0,0,0,0,0</value>
													</parameter>
													<parameter authoringApp="PremierePro">
														<parameterid>19</parameterid>
														<name>Parent Width</name>
														<IsTimeVarying>false</IsTimeVarying>
														<ParameterControlType>2</ParameterControlType>
														<LowerBound>0</LowerBound>
														<UpperBound>20000</UpperBound>
														<value>-91445760000000000,0.,0,0,0,0,0,0</value>
													</parameter>
													<parameter authoringApp="PremierePro">
														<parameterid>20</parameterid>
														<name>Parent Height</name>
														<IsTimeVarying>false</IsTimeVarying>
														<ParameterControlType>2</ParameterControlType>
														<LowerBound>0</LowerBound>
														<UpperBound>20000</UpperBound>
														<value>-91445760000000000,0.,0,0,0,0,0,0</value>
													</parameter>
													<parameter authoringApp="PremierePro">
														<parameterid>21</parameterid>
														<name>Parent Rotation</name>
														<IsTimeVarying>false</IsTimeVarying>
														<ParameterControlType>3</ParameterControlType>
														<LowerBound>-32768</LowerBound>
														<UpperBound>32767</UpperBound>
														<value>-91445760000000000,0.,0,0,0,0,0,0</value>
													</parameter>
												</effect>
											</filter>
											<logginginfo>
												<description></description>
												<scene></scene>
												<shottake></shottake>
												<lognote></lognote>
												<good></good>
												<originalvideofilename></originalvideofilename>
												<originalaudiofilename></originalaudiofilename>
											</logginginfo>
											<colorinfo>
												<lut></lut>
												<lut1></lut1>
												<asc_sop></asc_sop>
												<asc_sat></asc_sat>
												<lut2></lut2>
											</colorinfo>
										</clipitem>
										<enabled>TRUE</enabled>
										<locked>FALSE</locked>
									</track>
									<track TL.SQTrackShy="0" TL.SQTrackExpandedHeight="25" TL.SQTrackExpanded="0" MZ.TrackTargeted="0">
										<transitionitem>
											<start>167</start>
											<end>224</end>
											<alignment>start-black</alignment>
											<cutPointTicks>0</cutPointTicks>
											<rate>
												<timebase>25</timebase>
												<ntsc>FALSE</ntsc>
											</rate>
											<effect>
												<name>Edge Wipe</name>
												<effectid>Edge Wipe</effectid>
												<effectcategory>Wipe</effectcategory>
												<effecttype>transition</effecttype>
												<mediatype>video</mediatype>
												<wipecode>2</wipecode>
												<wipeaccuracy>100</wipeaccuracy>
												<startratio>0</startratio>
												<endratio>1</endratio>
												<reverse>FALSE</reverse>
												<parameter authoringApp="PremierePro">
													<parameterid>directionofwipe</parameterid>
													<name>Angle</name>
													<valuemin>-360</valuemin>
													<valuemax>360</valuemax>
													<value>90</value>
												</parameter>
											</effect>
										</transitionitem>
										<clipitem id="clipitem-1770">
											<masterclipid>masterclip-760</masterclipid>
											<name>9.png</name>
											<enabled>TRUE</enabled>
											<duration>1080000</duration>
											<rate>
												<timebase>25</timebase>
												<ntsc>FALSE</ntsc>
											</rate>
											<start>-1</start>
											<end>-1</end>
											<in>90042</in>
											<out>90225</out>
											<pproTicksIn>914884346880000</pproTicksIn>
											<pproTicksOut>916743744000000</pproTicksOut>
											<alphatype>straight</alphatype>
											<pixelaspectratio>square</pixelaspectratio>
											<anamorphic>FALSE</anamorphic>
											<file id="file-630">
												<name>5.png</name>
												<pathurl>file://localhost/_MUZ_TV/project_AP/RU/_TITLE/469/5.png</pathurl>
												<rate>
													<timebase>30</timebase>
													<ntsc>TRUE</ntsc>
												</rate>
												<timecode>
													<rate>
														<timebase>30</timebase>
														<ntsc>TRUE</ntsc>
													</rate>
													<string>00;00;00;00</string>
													<frame>0</frame>
													<displayformat>DF</displayformat>
												</timecode>
												<media>
													<video>
														<samplecharacteristics>
															<rate>
																<timebase>30</timebase>
																<ntsc>TRUE</ntsc>
															</rate>
															<width>1920</width>
															<height>1080</height>
															<anamorphic>FALSE</anamorphic>
															<pixelaspectratio>square</pixelaspectratio>
															<fielddominance>none</fielddominance>
														</samplecharacteristics>
													</video>
												</media>
											</file>
											<filter>
												<effect>
													<name>Basic Motion</name>
													<effectid>basic</effectid>
													<effectcategory>motion</effectcategory>
													<effecttype>motion</effecttype>
													<mediatype>video</mediatype>
													<pproBypass>false</pproBypass>
													<parameter authoringApp="PremierePro">
														<parameterid>scale</parameterid>
														<name>Scale</name>
														<valuemin>0</valuemin>
														<valuemax>1000</valuemax>
														<value>53.3333</value>
													</parameter>
													<parameter authoringApp="PremierePro">
														<parameterid>rotation</parameterid>
														<name>Rotation</name>
														<valuemin>-8640</valuemin>
														<valuemax>8640</valuemax>
														<value>0</value>
													</parameter>
													<parameter authoringApp="PremierePro">
														<parameterid>center</parameterid>
														<name>Center</name>
														<value>
															<horiz>0</horiz>
															<vert>0</vert>
														</value>
													</parameter>
													<parameter authoringApp="PremierePro">
														<parameterid>centerOffset</parameterid>
														<name>Anchor Point</name>
														<value>
															<horiz>0</horiz>
															<vert>0</vert>
														</value>
													</parameter>
													<parameter authoringApp="PremierePro">
														<parameterid>antiflicker</parameterid>
														<name>Anti-flicker Filter</name>
														<valuemin>0.0</valuemin>
														<valuemax>1.0</valuemax>
														<value>0</value>
													</parameter>
												</effect>
											</filter>
											<logginginfo>
												<description></description>
												<scene></scene>
												<shottake></shottake>
												<lognote></lognote>
												<good></good>
												<originalvideofilename></originalvideofilename>
												<originalaudiofilename></originalaudiofilename>
											</logginginfo>
											<colorinfo>
												<lut></lut>
												<lut1></lut1>
												<asc_sop></asc_sop>
												<asc_sat></asc_sat>
												<lut2></lut2>
											</colorinfo>
											<labels>
												<label2>Lavender</label2>
											</labels>
										</clipitem>
										<transitionitem>
											<start>328</start>
											<end>350</end>
											<alignment>end-black</alignment>
											<cutPointTicks>223534080000</cutPointTicks>
											<rate>
												<timebase>25</timebase>
												<ntsc>FALSE</ntsc>
											</rate>
											<effect>
												<name>Edge Wipe</name>
												<effectid>Edge Wipe</effectid>
												<effectcategory>Wipe</effectcategory>
												<effecttype>transition</effecttype>
												<mediatype>video</mediatype>
												<wipecode>2</wipecode>
												<wipeaccuracy>100</wipeaccuracy>
												<startratio>0</startratio>
												<endratio>1</endratio>
												<reverse>FALSE</reverse>
												<parameter authoringApp="PremierePro">
													<parameterid>directionofwipe</parameterid>
													<name>Angle</name>
													<valuemin>-360</valuemin>
													<valuemax>360</valuemax>
													<value>90</value>
												</parameter>
											</effect>
										</transitionitem>
										<enabled>TRUE</enabled>
										<locked>FALSE</locked>
									</track>
									<track TL.SQTrackShy="0" TL.SQTrackExpandedHeight="25" TL.SQTrackExpanded="0" MZ.TrackTargeted="0">
										<transitionitem>
											<start>167</start>
											<end>224</end>
											<alignment>start-black</alignment>
											<cutPointTicks>0</cutPointTicks>
											<rate>
												<timebase>25</timebase>
												<ntsc>FALSE</ntsc>
											</rate>
											<effect>
												<name>Edge Wipe</name>
												<effectid>Edge Wipe</effectid>
												<effectcategory>Wipe</effectcategory>
												<effecttype>transition</effecttype>
												<mediatype>video</mediatype>
												<wipecode>2</wipecode>
												<wipeaccuracy>100</wipeaccuracy>
												<startratio>0</startratio>
												<endratio>1</endratio>
												<reverse>FALSE</reverse>
												<parameter authoringApp="PremierePro">
													<parameterid>directionofwipe</parameterid>
													<name>Angle</name>
													<valuemin>-360</valuemin>
													<valuemax>360</valuemax>
													<value>90</value>
												</parameter>
											</effect>
										</transitionitem>
										<clipitem id="clipitem-1771">
											<masterclipid>masterclip-761</masterclipid>
											<name>Graphic</name>
											<enabled>FALSE</enabled>
											<duration>1080000</duration>
											<rate>
												<timebase>25</timebase>
												<ntsc>FALSE</ntsc>
											</rate>
											<start>-1</start>
											<end>-1</end>
											<in>89998</in>
											<out>90181</out>
											<pproTicksIn>914437278720000</pproTicksIn>
											<pproTicksOut>916296675840000</pproTicksOut>
											<alphatype>straight</alphatype>
											<pixelaspectratio>PAL-601</pixelaspectratio>
											<anamorphic>TRUE</anamorphic>
											<file id="file-631">
												<name>Graphic</name>
												<mediaSource>GraphicAndType</mediaSource>
												<rate>
													<timebase>30</timebase>
													<ntsc>TRUE</ntsc>
												</rate>
												<timecode>
													<rate>
														<timebase>30</timebase>
														<ntsc>TRUE</ntsc>
													</rate>
													<string>00;00;00;00</string>
													<frame>0</frame>
													<displayformat>DF</displayformat>
												</timecode>
												<media>
													<video>
														<samplecharacteristics>
															<rate>
																<timebase>30</timebase>
																<ntsc>TRUE</ntsc>
															</rate>
															<width>720</width>
															<height>576</height>
															<anamorphic>TRUE</anamorphic>
															<pixelaspectratio>PAL-601</pixelaspectratio>
															<fielddominance>none</fielddominance>
														</samplecharacteristics>
													</video>
												</media>
											</file>
											<filter>
												<effect>
													<name>АРТУР ПИРОЖКОВ&#13;ЛЕТОМ НА ФИЕСТЕ</name>
													<effectid>GraphicAndType</effectid>
													<effectcategory>graphic</effectcategory>
													<effecttype>filter</effecttype>
													<mediatype>video</mediatype>
													<pproBypass>false</pproBypass>
													<pproExpanded>true</pproExpanded>
													<parameter authoringApp="PremierePro">
														<parameterid>1</parameterid>
														<name>Source Text</name>
														<hash>dc092258-f6b9-fd91-a76f-c3e700000476</hash>
													</parameter>
													<parameter authoringApp="PremierePro">
														<parameterid>2</parameterid>
														<name>Transform</name>
														<IsTimeVarying>false</IsTimeVarying>
														<ParameterControlType>11</ParameterControlType>
														<LowerBound>false</LowerBound>
														<UpperBound>false</UpperBound>
														<value>-91445760000000000,false,0,0,0,0,0,0</value>
													</parameter>
													<parameter authoringApp="PremierePro">
														<parameterid>3</parameterid>
														<name>Position</name>
														<IsTimeVarying>false</IsTimeVarying>
														<value>-91445760000000000,0.36944580078125:0.86468505859375,0,0,0,0,0,0,5,4,0,0,0,0</value>
													</parameter>
													<parameter authoringApp="PremierePro">
														<parameterid>4</parameterid>
														<name>Scale</name>
														<IsTimeVarying>false</IsTimeVarying>
														<ParameterControlType>2</ParameterControlType>
														<LowerBound>0</LowerBound>
														<UpperBound>4000</UpperBound>
														<value>-91445760000000000,100.,0,0,0,0,0,0</value>
													</parameter>
													<parameter authoringApp="PremierePro">
														<parameterid>5</parameterid>
														<name>Horizontal Scale</name>
														<IsTimeVarying>false</IsTimeVarying>
														<ParameterControlType>2</ParameterControlType>
														<LowerBound>0</LowerBound>
														<UpperBound>4000</UpperBound>
														<value>-91445760000000000,100.,0,0,0,0,0,0</value>
													</parameter>
													<parameter authoringApp="PremierePro">
														<parameterid>6</parameterid>
														<name> </name>
														<IsTimeVarying>false</IsTimeVarying>
														<ParameterControlType>4</ParameterControlType>
														<LowerBound>false</LowerBound>
														<UpperBound>true</UpperBound>
														<value>-91445760000000000,true,0,0,0,0,0,0</value>
													</parameter>
													<parameter authoringApp="PremierePro">
														<parameterid>7</parameterid>
														<name>Rotation</name>
														<IsTimeVarying>false</IsTimeVarying>
														<ParameterControlType>3</ParameterControlType>
														<LowerBound>-32768</LowerBound>
														<UpperBound>32767</UpperBound>
														<value>-91445760000000000,0.,0,0,0,0,0,0</value>
													</parameter>
													<parameter authoringApp="PremierePro">
														<parameterid>8</parameterid>
														<name>Opacity</name>
														<IsTimeVarying>false</IsTimeVarying>
														<ParameterControlType>2</ParameterControlType>
														<LowerBound>0</LowerBound>
														<UpperBound>100</UpperBound>
														<value>-91445760000000000,100.,0,0,0,0,0,0</value>
													</parameter>
													<parameter authoringApp="PremierePro">
														<parameterid>9</parameterid>
														<name>Anchor Point</name>
														<IsTimeVarying>false</IsTimeVarying>
														<value>-91445760000000000,0:0,0,0,0,0,0,0,5,4,0,0,0,0</value>
													</parameter>
													<parameter authoringApp="PremierePro">
														<parameterid>10</parameterid>
														<name></name>
														<IsTimeVarying>false</IsTimeVarying>
														<ParameterControlType>12</ParameterControlType>
														<LowerBound>false</LowerBound>
														<UpperBound>false</UpperBound>
														<value>-91445760000000000,false,0,0,0,0,0,0</value>
													</parameter>
													<parameter authoringApp="PremierePro">
														<parameterid>11</parameterid>
														<name> </name>
														<IsTimeVarying>false</IsTimeVarying>
														<ParameterControlType>8</ParameterControlType>
														<LowerBound>0</LowerBound>
														<UpperBound>32768</UpperBound>
														<value>-91445760000000000,0.,0,0,0,0,0,0</value>
													</parameter>
													<parameter authoringApp="PremierePro">
														<parameterid>12</parameterid>
														<name> </name>
														<IsTimeVarying>false</IsTimeVarying>
														<ParameterControlType>8</ParameterControlType>
														<LowerBound>0</LowerBound>
														<UpperBound>32768</UpperBound>
														<value>-91445760000000000,0.,0,0,0,0,0,0</value>
													</parameter>
													<parameter authoringApp="PremierePro">
														<parameterid>13</parameterid>
														<name>start</name>
														<IsTimeVarying>false</IsTimeVarying>
														<ParameterControlType>8</ParameterControlType>
														<LowerBound>-100</LowerBound>
														<UpperBound>1000000000</UpperBound>
														<value>-91445760000000000,30.,0,0,0,0,0,0</value>
													</parameter>
													<parameter authoringApp="PremierePro">
														<parameterid>14</parameterid>
														<name>end</name>
														<IsTimeVarying>false</IsTimeVarying>
														<ParameterControlType>8</ParameterControlType>
														<LowerBound>-100</LowerBound>
														<UpperBound>1000000000</UpperBound>
														<value>-91445760000000000,30.,0,0,0,0,0,0</value>
													</parameter>
													<parameter authoringApp="PremierePro">
														<parameterid>15</parameterid>
														<name> </name>
														<IsTimeVarying>false</IsTimeVarying>
														<ParameterControlType>4</ParameterControlType>
														<LowerBound>false</LowerBound>
														<UpperBound>true</UpperBound>
														<value>-91445760000000000,false,0,0,0,0,0,0</value>
													</parameter>
													<parameter authoringApp="PremierePro">
														<parameterid>16</parameterid>
														<name> </name>
														<IsTimeVarying>false</IsTimeVarying>
														<ParameterControlType>4</ParameterControlType>
														<LowerBound>false</LowerBound>
														<UpperBound>true</UpperBound>
														<value>-91445760000000000,false,0,0,0,0,0,0</value>
													</parameter>
													<parameter authoringApp="PremierePro">
														<parameterid>17</parameterid>
														<name> </name>
														<IsTimeVarying>false</IsTimeVarying>
														<ParameterControlType>4</ParameterControlType>
														<LowerBound>false</LowerBound>
														<UpperBound>true</UpperBound>
														<value>-91445760000000000,false,0,0,0,0,0,0</value>
													</parameter>
													<parameter authoringApp="PremierePro">
														<parameterid>18</parameterid>
														<name> </name>
														<IsTimeVarying>false</IsTimeVarying>
														<ParameterControlType>4</ParameterControlType>
														<LowerBound>false</LowerBound>
														<UpperBound>true</UpperBound>
														<value>-91445760000000000,false,0,0,0,0,0,0</value>
													</parameter>
													<parameter authoringApp="PremierePro">
														<parameterid>19</parameterid>
														<name>Parent Width</name>
														<IsTimeVarying>false</IsTimeVarying>
														<ParameterControlType>2</ParameterControlType>
														<LowerBound>0</LowerBound>
														<UpperBound>20000</UpperBound>
														<value>-91445760000000000,0.,0,0,0,0,0,0</value>
													</parameter>
													<parameter authoringApp="PremierePro">
														<parameterid>20</parameterid>
														<name>Parent Height</name>
														<IsTimeVarying>false</IsTimeVarying>
														<ParameterControlType>2</ParameterControlType>
														<LowerBound>0</LowerBound>
														<UpperBound>20000</UpperBound>
														<value>-91445760000000000,0.,0,0,0,0,0,0</value>
													</parameter>
													<parameter authoringApp="PremierePro">
														<parameterid>21</parameterid>
														<name>Parent Rotation</name>
														<IsTimeVarying>false</IsTimeVarying>
														<ParameterControlType>3</ParameterControlType>
														<LowerBound>-32768</LowerBound>
														<UpperBound>32767</UpperBound>
														<value>-91445760000000000,0.,0,0,0,0,0,0</value>
													</parameter>
												</effect>
											</filter>
											<logginginfo>
												<description></description>
												<scene></scene>
												<shottake></shottake>
												<lognote></lognote>
												<good></good>
												<originalvideofilename></originalvideofilename>
												<originalaudiofilename></originalaudiofilename>
											</logginginfo>
											<colorinfo>
												<lut></lut>
												<lut1></lut1>
												<asc_sop></asc_sop>
												<asc_sat></asc_sat>
												<lut2></lut2>
											</colorinfo>
										</clipitem>
										<transitionitem>
											<start>328</start>
											<end>350</end>
											<alignment>end-black</alignment>
											<cutPointTicks>223534080000</cutPointTicks>
											<rate>
												<timebase>25</timebase>
												<ntsc>FALSE</ntsc>
											</rate>
											<effect>
												<name>Edge Wipe</name>
												<effectid>Edge Wipe</effectid>
												<effectcategory>Wipe</effectcategory>
												<effecttype>transition</effecttype>
												<mediatype>video</mediatype>
												<wipecode>2</wipecode>
												<wipeaccuracy>100</wipeaccuracy>
												<startratio>0</startratio>
												<endratio>1</endratio>
												<reverse>FALSE</reverse>
												<parameter authoringApp="PremierePro">
													<parameterid>directionofwipe</parameterid>
													<name>Angle</name>
													<valuemin>-360</valuemin>
													<valuemax>360</valuemax>
													<value>90</value>
												</parameter>
											</effect>
										</transitionitem>
										<enabled>TRUE</enabled>
										<locked>FALSE</locked>
									</track>
								</video>
								<audio>
									<numOutputChannels>2</numOutputChannels>
									<format>
										<samplecharacteristics>
											<depth>16</depth>
											<samplerate>48000</samplerate>
										</samplecharacteristics>
									</format>
									<outputs>
										<group>
											<index>1</index>
											<numchannels>1</numchannels>
											<downmix>0</downmix>
											<channel>
												<index>1</index>
											</channel>
										</group>
										<group>
											<index>2</index>
											<numchannels>1</numchannels>
											<downmix>0</downmix>
											<channel>
												<index>2</index>
											</channel>
										</group>
									</outputs>
									<track TL.SQTrackAudioKeyframeStyle="0" TL.SQTrackShy="0" TL.SQTrackExpandedHeight="25" TL.SQTrackExpanded="0" MZ.TrackTargeted="1" PannerCurrentValue="0.5" PannerStartKeyframe="-91445760000000000,0.5,0,0,0,0,0,0" PannerName="Balance" currentExplodedTrackIndex="0" totalExplodedTrackCount="2" premiereTrackType="Stereo">
										<enabled>TRUE</enabled>
										<locked>FALSE</locked>
										<outputchannelindex>1</outputchannelindex>
									</track>
									<track TL.SQTrackAudioKeyframeStyle="0" TL.SQTrackShy="0" TL.SQTrackExpandedHeight="25" TL.SQTrackExpanded="0" MZ.TrackTargeted="1" PannerCurrentValue="0.5" PannerStartKeyframe="-91445760000000000,0.5,0,0,0,0,0,0" PannerName="Balance" currentExplodedTrackIndex="1" totalExplodedTrackCount="2" premiereTrackType="Stereo">
										<enabled>TRUE</enabled>
										<locked>FALSE</locked>
										<outputchannelindex>2</outputchannelindex>
									</track>
								</audio>
							</media>
							<timecode>
								<rate>
									<timebase>25</timebase>
									<ntsc>FALSE</ntsc>
								</rate>
								<string>00:00:00:00</string>
								<frame>0</frame>
								<displayformat>NDF</displayformat>
							</timecode>
								<marker>
									<comment></comment>
									<name></name>
									<in>125</in>
									<out>-1</out>
									<pproColor>4280578025</pproColor>
								</marker>
							<logginginfo>
								<description></description>
								<scene></scene>
								<shottake></shottake>
								<lognote></lognote>
								<good></good>
								<originalvideofilename></originalvideofilename>
								<originalaudiofilename></originalaudiofilename>
							</logginginfo>
						</sequence>
							<marker>
								<comment></comment>
								<name></name>
								<in>125</in>
								<out>-1</out>
								<pproColor>4280578025</pproColor>
							</marker>
						<labels>
							<label2>Forest</label2>
						</labels>
					</clipitem>
					<clipitem id="clipitem-1772">
						<masterclipid>masterclip-757</masterclipid>
						<name>5</name>
						<enabled>TRUE</enabled>
						<duration>475</duration>
						<rate>
							<timebase>25</timebase>
							<ntsc>FALSE</ntsc>
						</rate>
						<start>42721</start>
						<end>43072</end>
						<in>124</in>
						<out>475</out>
						<pproTicksIn>1259919360000</pproTicksIn>
						<pproTicksOut>4826304000000</pproTicksOut>
						<sequence id="sequence-140"/>
							<marker>
								<comment></comment>
								<name></name>
								<in>125</in>
								<out>-1</out>
								<pproColor>4280578025</pproColor>
							</marker>
						<labels>
							<label2>Forest</label2>
						</labels>
					</clipitem>
					<clipitem id="clipitem-1773">
						<masterclipid>masterclip-720</masterclipid>
						<name>титр</name>
						<enabled>TRUE</enabled>
						<duration>225</duration>
						<rate>
							<timebase>25</timebase>
							<ntsc>FALSE</ntsc>
						</rate>
						<start>43132</start>
						<end>43303</end>
						<in>0</in>
						<out>171</out>
						<pproTicksIn>0</pproTicksIn>
						<pproTicksOut>1737469440000</pproTicksOut>
						<sequence id="sequence-132"/>
						<filter>
							<effect>
								<name>Opacity</name>
								<effectid>opacity</effectid>
								<effectcategory>motion</effectcategory>
								<effecttype>motion</effecttype>
								<mediatype>video</mediatype>
								<pproBypass>false</pproBypass>
								<parameter authoringApp="PremierePro">
									<parameterid>opacity</parameterid>
									<name>opacity</name>
									<valuemin>0</valuemin>
									<valuemax>100</valuemax>
									<value>100</value>
								</parameter>
							</effect>
						</filter>
							<marker>
								<comment></comment>
								<name></name>
								<in>57</in>
								<out>-1</out>
								<pproColor>4294741314</pproColor>
							</marker>
						<labels>
							<label2>Forest</label2>
						</labels>
					</clipitem>
					<clipitem id="clipitem-1774">
						<masterclipid>masterclip-762</masterclipid>
						<name>4_TITLE</name>
						<enabled>TRUE</enabled>
						<duration>475</duration>
						<rate>
							<timebase>25</timebase>
							<ntsc>FALSE</ntsc>
						</rate>
						<start>43774</start>
						<end>44124</end>
						<in>0</in>
						<out>475</out>
						<pproTicksIn>0</pproTicksIn>
						<pproTicksOut>4826304000000</pproTicksOut>
						<sequence id="sequence-141" TL.SQAudioVisibleBase="0" TL.SQVideoVisibleBase="0" TL.SQVisibleBaseTime="0" TL.SQAVDividerPosition="0.5" TL.SQHideShyTracks="0" TL.SQHeaderWidth="236" TL.SQDataTrackViewControlState="0" Monitor.ProgramZoomOut="4826304000000" Monitor.ProgramZoomIn="0" TL.SQTimePerPixel="0.024999999999999998" AM.TrackVScrollPosition="0" AM.TrackScrollPosition="0" MZ.EditLine="1473292800000" MZ.Sequence.PreviewFrameSizeHeight="576" MZ.Sequence.PreviewFrameSizeWidth="720" MZ.Sequence.AudioTimeDisplayFormat="200" MZ.Sequence.PreviewRenderingClassID="1061109567" MZ.Sequence.PreviewRenderingPresetCodec="1685480304" MZ.Sequence.PreviewRenderingPresetPath="EncoderPresets/SequencePreview/04be6e19-a018-4e0c-a9d6-0ab44c64752b/QuickTime DV PAL.epr" MZ.Sequence.PreviewUseMaxRenderQuality="false" MZ.Sequence.PreviewUseMaxBitDepth="false" MZ.Sequence.EditingModeGUID="04be6e19-a018-4e0c-a9d6-0ab44c64752b" MZ.Sequence.VideoTimeDisplayFormat="101" MZ.WorkOutPoint="4826304000000" MZ.WorkInPoint="0" MZ.ZeroPoint="0">
							<duration>475</duration>
							<rate>
								<timebase>25</timebase>
								<ntsc>FALSE</ntsc>
							</rate>
							<name>титр</name>
							<media>
								<video>
									<format>
										<samplecharacteristics>
											<rate>
												<timebase>25</timebase>
												<ntsc>FALSE</ntsc>
											</rate>
											<codec>
												<name>Apple ProRes 422</name>
												<appspecificdata>
													<appname>Final Cut Pro</appname>
													<appmanufacturer>Apple Inc.</appmanufacturer>
													<appversion>7.0</appversion>
													<data>
														<qtcodec>
															<codecname>Apple ProRes 422</codecname>
															<codectypename>Apple ProRes 422</codectypename>
															<codectypecode>apcn</codectypecode>
															<codecvendorcode>appl</codecvendorcode>
															<spatialquality>1024</spatialquality>
															<temporalquality>0</temporalquality>
															<keyframerate>0</keyframerate>
															<datarate>0</datarate>
														</qtcodec>
													</data>
												</appspecificdata>
											</codec>
											<width>720</width>
											<height>576</height>
											<anamorphic>TRUE</anamorphic>
											<pixelaspectratio>PAL-601</pixelaspectratio>
											<fielddominance>lower</fielddominance>
											<colordepth>24</colordepth>
										</samplecharacteristics>
									</format>
									<track TL.SQTrackShy="0" TL.SQTrackExpandedHeight="25" TL.SQTrackExpanded="0" MZ.TrackTargeted="1">
										<clipitem id="clipitem-1775">
											<masterclipid>masterclip-763</masterclipid>
											<name>9_title.mov</name>
											<enabled>TRUE</enabled>
											<duration>225</duration>
											<rate>
												<timebase>25</timebase>
												<ntsc>FALSE</ntsc>
											</rate>
											<start>125</start>
											<end>350</end>
											<in>0</in>
											<out>225</out>
											<pproTicksIn>0</pproTicksIn>
											<pproTicksOut>2286144000000</pproTicksOut>
											<alphatype>straight</alphatype>
											<pixelaspectratio>square</pixelaspectratio>
											<anamorphic>FALSE</anamorphic>
											<file id="file-632">
												<name>4_title.mov</name>
												<pathurl>file://localhost/_MUZ_TV/graphika/RU-21/MOD/title_plashka/4_title.mov</pathurl>
												<rate>
													<timebase>25</timebase>
													<ntsc>FALSE</ntsc>
												</rate>
												<duration>225</duration>
												<timecode>
													<rate>
														<timebase>25</timebase>
														<ntsc>FALSE</ntsc>
													</rate>
													<string>00:00:54:00</string>
													<frame>1350</frame>
													<displayformat>NDF</displayformat>
												</timecode>
												<media>
													<video>
														<samplecharacteristics>
															<rate>
																<timebase>25</timebase>
																<ntsc>FALSE</ntsc>
															</rate>
															<width>1920</width>
															<height>1080</height>
															<anamorphic>FALSE</anamorphic>
															<pixelaspectratio>square</pixelaspectratio>
															<fielddominance>none</fielddominance>
														</samplecharacteristics>
													</video>
												</media>
											</file>
											<filter>
												<effect>
													<name>Basic Motion</name>
													<effectid>basic</effectid>
													<effectcategory>motion</effectcategory>
													<effecttype>motion</effecttype>
													<mediatype>video</mediatype>
													<pproBypass>false</pproBypass>
													<parameter authoringApp="PremierePro">
														<parameterid>scale</parameterid>
														<name>Scale</name>
														<valuemin>0</valuemin>
														<valuemax>1000</valuemax>
														<value>55</value>
													</parameter>
													<parameter authoringApp="PremierePro">
														<parameterid>rotation</parameterid>
														<name>Rotation</name>
														<valuemin>-8640</valuemin>
														<valuemax>8640</valuemax>
														<value>0</value>
													</parameter>
													<parameter authoringApp="PremierePro">
														<parameterid>center</parameterid>
														<name>Center</name>
														<value>
															<horiz>0</horiz>
															<vert>0</vert>
														</value>
													</parameter>
													<parameter authoringApp="PremierePro">
														<parameterid>centerOffset</parameterid>
														<name>Anchor Point</name>
														<value>
															<horiz>0</horiz>
															<vert>0</vert>
														</value>
													</parameter>
													<parameter authoringApp="PremierePro">
														<parameterid>antiflicker</parameterid>
														<name>Anti-flicker Filter</name>
														<valuemin>0.0</valuemin>
														<valuemax>1.0</valuemax>
														<value>0</value>
													</parameter>
												</effect>
											</filter>
											<filter>
												<effect>
													<name>Distort</name>
													<effectid>deformation</effectid>
													<effectcategory>motion</effectcategory>
													<effecttype>motion</effecttype>
													<mediatype>video</mediatype>
													<parameter authoringApp="PremierePro">
														<parameterid>aspect</parameterid>
														<name>Aspect</name>
														<valuemin>-10000</valuemin>
														<valuemax>10000</valuemax>
														<value>-3.12506</value>
													</parameter>
												</effect>
											</filter>
											<logginginfo>
												<description></description>
												<scene></scene>
												<shottake></shottake>
												<lognote></lognote>
												<good></good>
												<originalvideofilename></originalvideofilename>
												<originalaudiofilename></originalaudiofilename>
											</logginginfo>
											<colorinfo>
												<lut></lut>
												<lut1></lut1>
												<asc_sop></asc_sop>
												<asc_sat></asc_sat>
												<lut2></lut2>
											</colorinfo>
											<labels>
												<label2>Violet</label2>
											</labels>
										</clipitem>
										<clipitem id="clipitem-1776">
											<masterclipid>masterclip-764</masterclipid>
											<name>Graphic</name>
											<enabled>FALSE</enabled>
											<duration>1080000</duration>
											<rate>
												<timebase>25</timebase>
												<ntsc>FALSE</ntsc>
											</rate>
											<start>350</start>
											<end>475</end>
											<in>90000</in>
											<out>90125</out>
											<pproTicksIn>914457600000000</pproTicksIn>
											<pproTicksOut>915727680000000</pproTicksOut>
											<alphatype>straight</alphatype>
											<pixelaspectratio>PAL-601</pixelaspectratio>
											<anamorphic>TRUE</anamorphic>
											<file id="file-633">
												<name>Graphic</name>
												<mediaSource>GraphicAndType</mediaSource>
												<rate>
													<timebase>30</timebase>
													<ntsc>TRUE</ntsc>
												</rate>
												<timecode>
													<rate>
														<timebase>30</timebase>
														<ntsc>TRUE</ntsc>
													</rate>
													<string>00;00;00;00</string>
													<frame>0</frame>
													<displayformat>DF</displayformat>
												</timecode>
												<media>
													<video>
														<samplecharacteristics>
															<rate>
																<timebase>30</timebase>
																<ntsc>TRUE</ntsc>
															</rate>
															<width>720</width>
															<height>576</height>
															<anamorphic>TRUE</anamorphic>
															<pixelaspectratio>PAL-601</pixelaspectratio>
															<fielddominance>none</fielddominance>
														</samplecharacteristics>
													</video>
												</media>
											</file>
											<filter>
												<effect>
													<name>Basic Motion</name>
													<effectid>basic</effectid>
													<effectcategory>motion</effectcategory>
													<effecttype>motion</effecttype>
													<mediatype>video</mediatype>
													<pproBypass>false</pproBypass>
													<parameter authoringApp="PremierePro">
														<parameterid>scale</parameterid>
														<name>Scale</name>
														<valuemin>0</valuemin>
														<valuemax>1000</valuemax>
														<value>133.333</value>
													</parameter>
													<parameter authoringApp="PremierePro">
														<parameterid>rotation</parameterid>
														<name>Rotation</name>
														<valuemin>-8640</valuemin>
														<valuemax>8640</valuemax>
														<value>0</value>
													</parameter>
													<parameter authoringApp="PremierePro">
														<parameterid>center</parameterid>
														<name>Center</name>
														<value>
															<horiz>0</horiz>
															<vert>0</vert>
														</value>
													</parameter>
													<parameter authoringApp="PremierePro">
														<parameterid>centerOffset</parameterid>
														<name>Anchor Point</name>
														<value>
															<horiz>0</horiz>
															<vert>0</vert>
														</value>
													</parameter>
													<parameter authoringApp="PremierePro">
														<parameterid>antiflicker</parameterid>
														<name>Anti-flicker Filter</name>
														<valuemin>0.0</valuemin>
														<valuemax>1.0</valuemax>
														<value>0</value>
													</parameter>
												</effect>
											</filter>
											<filter>
												<effect>
													<name>Distort</name>
													<effectid>deformation</effectid>
													<effectcategory>motion</effectcategory>
													<effecttype>motion</effecttype>
													<mediatype>video</mediatype>
													<parameter authoringApp="PremierePro">
														<parameterid>aspect</parameterid>
														<name>Aspect</name>
														<valuemin>-10000</valuemin>
														<valuemax>10000</valuemax>
														<value>-33.333</value>
													</parameter>
												</effect>
											</filter>
											<filter>
												<effect>
													<name></name>
													<effectid>GraphicAndType</effectid>
													<effectcategory>graphic</effectcategory>
													<effecttype>filter</effecttype>
													<mediatype>video</mediatype>
													<pproBypass>false</pproBypass>
													<parameter authoringApp="PremierePro">
														<parameterid>1</parameterid>
														<name>Source Text</name>
														<hash>3f0faa81-c1b0-8370-b66c-fa0b000009f1</hash>
													</parameter>
													<parameter authoringApp="PremierePro">
														<parameterid>2</parameterid>
														<name>Transform</name>
														<IsTimeVarying>false</IsTimeVarying>
														<ParameterControlType>11</ParameterControlType>
														<LowerBound>false</LowerBound>
														<UpperBound>false</UpperBound>
														<value>-91445760000000000,false,0,0,0,0,0,0</value>
													</parameter>
													<parameter authoringApp="PremierePro">
														<parameterid>3</parameterid>
														<name>Position</name>
														<IsTimeVarying>false</IsTimeVarying>
														<value>-91445760000000000,0.55605381727218628:0.73039215803146362,0,0,0,0,0,0,5,4,0,0,0,0</value>
													</parameter>
													<parameter authoringApp="PremierePro">
														<parameterid>4</parameterid>
														<name>Scale</name>
														<IsTimeVarying>false</IsTimeVarying>
														<ParameterControlType>2</ParameterControlType>
														<LowerBound>0</LowerBound>
														<UpperBound>4000</UpperBound>
														<value>-91445760000000000,100.,0,0,0,0,0,0</value>
													</parameter>
													<parameter authoringApp="PremierePro">
														<parameterid>5</parameterid>
														<name>Horizontal Scale</name>
														<IsTimeVarying>false</IsTimeVarying>
														<ParameterControlType>2</ParameterControlType>
														<LowerBound>0</LowerBound>
														<UpperBound>4000</UpperBound>
														<value>-91445760000000000,100.,0,0,0,0,0,0</value>
													</parameter>
													<parameter authoringApp="PremierePro">
														<parameterid>6</parameterid>
														<name> </name>
														<IsTimeVarying>false</IsTimeVarying>
														<ParameterControlType>4</ParameterControlType>
														<LowerBound>false</LowerBound>
														<UpperBound>true</UpperBound>
														<value>-91445760000000000,true,0,0,0,0,0,0</value>
													</parameter>
													<parameter authoringApp="PremierePro">
														<parameterid>7</parameterid>
														<name>Rotation</name>
														<IsTimeVarying>false</IsTimeVarying>
														<ParameterControlType>3</ParameterControlType>
														<LowerBound>-32768</LowerBound>
														<UpperBound>32767</UpperBound>
														<value>-91445760000000000,0.,0,0,0,0,0,0</value>
													</parameter>
													<parameter authoringApp="PremierePro">
														<parameterid>8</parameterid>
														<name>Opacity</name>
														<IsTimeVarying>false</IsTimeVarying>
														<ParameterControlType>2</ParameterControlType>
														<LowerBound>0</LowerBound>
														<UpperBound>100</UpperBound>
														<value>-91445760000000000,100.,0,0,0,0,0,0</value>
													</parameter>
													<parameter authoringApp="PremierePro">
														<parameterid>9</parameterid>
														<name>Anchor Point</name>
														<IsTimeVarying>false</IsTimeVarying>
														<value>-91445760000000000,0:0,0,0,0,0,0,0,5,4,0,0,0,0</value>
													</parameter>
													<parameter authoringApp="PremierePro">
														<parameterid>10</parameterid>
														<name></name>
														<IsTimeVarying>false</IsTimeVarying>
														<ParameterControlType>12</ParameterControlType>
														<LowerBound>false</LowerBound>
														<UpperBound>false</UpperBound>
														<value>-91445760000000000,false,0,0,0,0,0,0</value>
													</parameter>
													<parameter authoringApp="PremierePro">
														<parameterid>11</parameterid>
														<name> </name>
														<IsTimeVarying>false</IsTimeVarying>
														<ParameterControlType>8</ParameterControlType>
														<LowerBound>0</LowerBound>
														<UpperBound>32768</UpperBound>
														<value>-91445760000000000,0.,0,0,0,0,0,0</value>
													</parameter>
													<parameter authoringApp="PremierePro">
														<parameterid>12</parameterid>
														<name> </name>
														<IsTimeVarying>false</IsTimeVarying>
														<ParameterControlType>8</ParameterControlType>
														<LowerBound>0</LowerBound>
														<UpperBound>32768</UpperBound>
														<value>-91445760000000000,0.,0,0,0,0,0,0</value>
													</parameter>
													<parameter authoringApp="PremierePro">
														<parameterid>13</parameterid>
														<name>start</name>
														<IsTimeVarying>false</IsTimeVarying>
														<ParameterControlType>8</ParameterControlType>
														<LowerBound>-100</LowerBound>
														<UpperBound>1000000000</UpperBound>
														<value>-91445760000000000,0.,0,0,0,0,0,0</value>
													</parameter>
													<parameter authoringApp="PremierePro">
														<parameterid>14</parameterid>
														<name>end</name>
														<IsTimeVarying>false</IsTimeVarying>
														<ParameterControlType>8</ParameterControlType>
														<LowerBound>-100</LowerBound>
														<UpperBound>1000000000</UpperBound>
														<value>-91445760000000000,0.,0,0,0,0,0,0</value>
													</parameter>
													<parameter authoringApp="PremierePro">
														<parameterid>15</parameterid>
														<name> </name>
														<IsTimeVarying>false</IsTimeVarying>
														<ParameterControlType>4</ParameterControlType>
														<LowerBound>false</LowerBound>
														<UpperBound>true</UpperBound>
														<value>-91445760000000000,false,0,0,0,0,0,0</value>
													</parameter>
													<parameter authoringApp="PremierePro">
														<parameterid>16</parameterid>
														<name> </name>
														<IsTimeVarying>false</IsTimeVarying>
														<ParameterControlType>4</ParameterControlType>
														<LowerBound>false</LowerBound>
														<UpperBound>true</UpperBound>
														<value>-91445760000000000,false,0,0,0,0,0,0</value>
													</parameter>
													<parameter authoringApp="PremierePro">
														<parameterid>17</parameterid>
														<name> </name>
														<IsTimeVarying>false</IsTimeVarying>
														<ParameterControlType>4</ParameterControlType>
														<LowerBound>false</LowerBound>
														<UpperBound>true</UpperBound>
														<value>-91445760000000000,false,0,0,0,0,0,0</value>
													</parameter>
													<parameter authoringApp="PremierePro">
														<parameterid>18</parameterid>
														<name> </name>
														<IsTimeVarying>false</IsTimeVarying>
														<ParameterControlType>4</ParameterControlType>
														<LowerBound>false</LowerBound>
														<UpperBound>true</UpperBound>
														<value>-91445760000000000,false,0,0,0,0,0,0</value>
													</parameter>
													<parameter authoringApp="PremierePro">
														<parameterid>19</parameterid>
														<name>Parent Width</name>
														<IsTimeVarying>false</IsTimeVarying>
														<ParameterControlType>2</ParameterControlType>
														<LowerBound>0</LowerBound>
														<UpperBound>20000</UpperBound>
														<value>-91445760000000000,0.,0,0,0,0,0,0</value>
													</parameter>
													<parameter authoringApp="PremierePro">
														<parameterid>20</parameterid>
														<name>Parent Height</name>
														<IsTimeVarying>false</IsTimeVarying>
														<ParameterControlType>2</ParameterControlType>
														<LowerBound>0</LowerBound>
														<UpperBound>20000</UpperBound>
														<value>-91445760000000000,0.,0,0,0,0,0,0</value>
													</parameter>
													<parameter authoringApp="PremierePro">
														<parameterid>21</parameterid>
														<name>Parent Rotation</name>
														<IsTimeVarying>false</IsTimeVarying>
														<ParameterControlType>3</ParameterControlType>
														<LowerBound>-32768</LowerBound>
														<UpperBound>32767</UpperBound>
														<value>-91445760000000000,0.,0,0,0,0,0,0</value>
													</parameter>
												</effect>
											</filter>
											<logginginfo>
												<description></description>
												<scene></scene>
												<shottake></shottake>
												<lognote></lognote>
												<good></good>
												<originalvideofilename></originalvideofilename>
												<originalaudiofilename></originalaudiofilename>
											</logginginfo>
											<colorinfo>
												<lut></lut>
												<lut1></lut1>
												<asc_sop></asc_sop>
												<asc_sat></asc_sat>
												<lut2></lut2>
											</colorinfo>
										</clipitem>
										<enabled>TRUE</enabled>
										<locked>FALSE</locked>
									</track>
									<track TL.SQTrackShy="0" TL.SQTrackExpandedHeight="25" TL.SQTrackExpanded="0" MZ.TrackTargeted="0">
										<transitionitem>
											<start>167</start>
											<end>224</end>
											<alignment>start-black</alignment>
											<cutPointTicks>0</cutPointTicks>
											<rate>
												<timebase>25</timebase>
												<ntsc>FALSE</ntsc>
											</rate>
											<effect>
												<name>Edge Wipe</name>
												<effectid>Edge Wipe</effectid>
												<effectcategory>Wipe</effectcategory>
												<effecttype>transition</effecttype>
												<mediatype>video</mediatype>
												<wipecode>2</wipecode>
												<wipeaccuracy>100</wipeaccuracy>
												<startratio>0</startratio>
												<endratio>1</endratio>
												<reverse>FALSE</reverse>
												<parameter authoringApp="PremierePro">
													<parameterid>directionofwipe</parameterid>
													<name>Angle</name>
													<valuemin>-360</valuemin>
													<valuemax>360</valuemax>
													<value>90</value>
												</parameter>
											</effect>
										</transitionitem>
										<clipitem id="clipitem-1777">
											<masterclipid>masterclip-765</masterclipid>
											<name>9.png</name>
											<enabled>TRUE</enabled>
											<duration>1080000</duration>
											<rate>
												<timebase>25</timebase>
												<ntsc>FALSE</ntsc>
											</rate>
											<start>-1</start>
											<end>-1</end>
											<in>90042</in>
											<out>90225</out>
											<pproTicksIn>914884346880000</pproTicksIn>
											<pproTicksOut>916743744000000</pproTicksOut>
											<alphatype>straight</alphatype>
											<pixelaspectratio>square</pixelaspectratio>
											<anamorphic>FALSE</anamorphic>
											<file id="file-634">
												<name>4.png</name>
												<pathurl>file://localhost/_MUZ_TV/project_AP/RU/_TITLE/469/4.png</pathurl>
												<rate>
													<timebase>30</timebase>
													<ntsc>TRUE</ntsc>
												</rate>
												<timecode>
													<rate>
														<timebase>30</timebase>
														<ntsc>TRUE</ntsc>
													</rate>
													<string>00;00;00;00</string>
													<frame>0</frame>
													<displayformat>DF</displayformat>
												</timecode>
												<media>
													<video>
														<samplecharacteristics>
															<rate>
																<timebase>30</timebase>
																<ntsc>TRUE</ntsc>
															</rate>
															<width>1920</width>
															<height>1080</height>
															<anamorphic>FALSE</anamorphic>
															<pixelaspectratio>square</pixelaspectratio>
															<fielddominance>none</fielddominance>
														</samplecharacteristics>
													</video>
												</media>
											</file>
											<filter>
												<effect>
													<name>Basic Motion</name>
													<effectid>basic</effectid>
													<effectcategory>motion</effectcategory>
													<effecttype>motion</effecttype>
													<mediatype>video</mediatype>
													<pproBypass>false</pproBypass>
													<parameter authoringApp="PremierePro">
														<parameterid>scale</parameterid>
														<name>Scale</name>
														<valuemin>0</valuemin>
														<valuemax>1000</valuemax>
														<value>53.3333</value>
													</parameter>
													<parameter authoringApp="PremierePro">
														<parameterid>rotation</parameterid>
														<name>Rotation</name>
														<valuemin>-8640</valuemin>
														<valuemax>8640</valuemax>
														<value>0</value>
													</parameter>
													<parameter authoringApp="PremierePro">
														<parameterid>center</parameterid>
														<name>Center</name>
														<value>
															<horiz>0</horiz>
															<vert>0</vert>
														</value>
													</parameter>
													<parameter authoringApp="PremierePro">
														<parameterid>centerOffset</parameterid>
														<name>Anchor Point</name>
														<value>
															<horiz>0</horiz>
															<vert>0</vert>
														</value>
													</parameter>
													<parameter authoringApp="PremierePro">
														<parameterid>antiflicker</parameterid>
														<name>Anti-flicker Filter</name>
														<valuemin>0.0</valuemin>
														<valuemax>1.0</valuemax>
														<value>0</value>
													</parameter>
												</effect>
											</filter>
											<logginginfo>
												<description></description>
												<scene></scene>
												<shottake></shottake>
												<lognote></lognote>
												<good></good>
												<originalvideofilename></originalvideofilename>
												<originalaudiofilename></originalaudiofilename>
											</logginginfo>
											<colorinfo>
												<lut></lut>
												<lut1></lut1>
												<asc_sop></asc_sop>
												<asc_sat></asc_sat>
												<lut2></lut2>
											</colorinfo>
											<labels>
												<label2>Lavender</label2>
											</labels>
										</clipitem>
										<transitionitem>
											<start>328</start>
											<end>350</end>
											<alignment>end-black</alignment>
											<cutPointTicks>223534080000</cutPointTicks>
											<rate>
												<timebase>25</timebase>
												<ntsc>FALSE</ntsc>
											</rate>
											<effect>
												<name>Edge Wipe</name>
												<effectid>Edge Wipe</effectid>
												<effectcategory>Wipe</effectcategory>
												<effecttype>transition</effecttype>
												<mediatype>video</mediatype>
												<wipecode>2</wipecode>
												<wipeaccuracy>100</wipeaccuracy>
												<startratio>0</startratio>
												<endratio>1</endratio>
												<reverse>FALSE</reverse>
												<parameter authoringApp="PremierePro">
													<parameterid>directionofwipe</parameterid>
													<name>Angle</name>
													<valuemin>-360</valuemin>
													<valuemax>360</valuemax>
													<value>90</value>
												</parameter>
											</effect>
										</transitionitem>
										<enabled>TRUE</enabled>
										<locked>FALSE</locked>
									</track>
									<track TL.SQTrackShy="0" TL.SQTrackExpandedHeight="25" TL.SQTrackExpanded="0" MZ.TrackTargeted="0">
										<transitionitem>
											<start>167</start>
											<end>224</end>
											<alignment>start-black</alignment>
											<cutPointTicks>0</cutPointTicks>
											<rate>
												<timebase>25</timebase>
												<ntsc>FALSE</ntsc>
											</rate>
											<effect>
												<name>Edge Wipe</name>
												<effectid>Edge Wipe</effectid>
												<effectcategory>Wipe</effectcategory>
												<effecttype>transition</effecttype>
												<mediatype>video</mediatype>
												<wipecode>2</wipecode>
												<wipeaccuracy>100</wipeaccuracy>
												<startratio>0</startratio>
												<endratio>1</endratio>
												<reverse>FALSE</reverse>
												<parameter authoringApp="PremierePro">
													<parameterid>directionofwipe</parameterid>
													<name>Angle</name>
													<valuemin>-360</valuemin>
													<valuemax>360</valuemax>
													<value>90</value>
												</parameter>
											</effect>
										</transitionitem>
										<clipitem id="clipitem-1778">
											<masterclipid>masterclip-766</masterclipid>
											<name>Graphic</name>
											<enabled>FALSE</enabled>
											<duration>1080000</duration>
											<rate>
												<timebase>25</timebase>
												<ntsc>FALSE</ntsc>
											</rate>
											<start>-1</start>
											<end>-1</end>
											<in>89998</in>
											<out>90181</out>
											<pproTicksIn>914437278720000</pproTicksIn>
											<pproTicksOut>916296675840000</pproTicksOut>
											<alphatype>straight</alphatype>
											<pixelaspectratio>PAL-601</pixelaspectratio>
											<anamorphic>TRUE</anamorphic>
											<file id="file-635">
												<name>Graphic</name>
												<mediaSource>GraphicAndType</mediaSource>
												<rate>
													<timebase>30</timebase>
													<ntsc>TRUE</ntsc>
												</rate>
												<timecode>
													<rate>
														<timebase>30</timebase>
														<ntsc>TRUE</ntsc>
													</rate>
													<string>00;00;00;00</string>
													<frame>0</frame>
													<displayformat>DF</displayformat>
												</timecode>
												<media>
													<video>
														<samplecharacteristics>
															<rate>
																<timebase>30</timebase>
																<ntsc>TRUE</ntsc>
															</rate>
															<width>720</width>
															<height>576</height>
															<anamorphic>TRUE</anamorphic>
															<pixelaspectratio>PAL-601</pixelaspectratio>
															<fielddominance>none</fielddominance>
														</samplecharacteristics>
													</video>
												</media>
											</file>
											<filter>
												<effect>
													<name>АРТУР ПИРОЖКОВ&#13;ЛЕТОМ НА ФИЕСТЕ</name>
													<effectid>GraphicAndType</effectid>
													<effectcategory>graphic</effectcategory>
													<effecttype>filter</effecttype>
													<mediatype>video</mediatype>
													<pproBypass>false</pproBypass>
													<pproExpanded>true</pproExpanded>
													<parameter authoringApp="PremierePro">
														<parameterid>1</parameterid>
														<name>Source Text</name>
														<hash>dc092258-f6b9-fd91-a76f-c3e700000476</hash>
													</parameter>
													<parameter authoringApp="PremierePro">
														<parameterid>2</parameterid>
														<name>Transform</name>
														<IsTimeVarying>false</IsTimeVarying>
														<ParameterControlType>11</ParameterControlType>
														<LowerBound>false</LowerBound>
														<UpperBound>false</UpperBound>
														<value>-91445760000000000,false,0,0,0,0,0,0</value>
													</parameter>
													<parameter authoringApp="PremierePro">
														<parameterid>3</parameterid>
														<name>Position</name>
														<IsTimeVarying>false</IsTimeVarying>
														<value>-91445760000000000,0.36944580078125:0.86468505859375,0,0,0,0,0,0,5,4,0,0,0,0</value>
													</parameter>
													<parameter authoringApp="PremierePro">
														<parameterid>4</parameterid>
														<name>Scale</name>
														<IsTimeVarying>false</IsTimeVarying>
														<ParameterControlType>2</ParameterControlType>
														<LowerBound>0</LowerBound>
														<UpperBound>4000</UpperBound>
														<value>-91445760000000000,100.,0,0,0,0,0,0</value>
													</parameter>
													<parameter authoringApp="PremierePro">
														<parameterid>5</parameterid>
														<name>Horizontal Scale</name>
														<IsTimeVarying>false</IsTimeVarying>
														<ParameterControlType>2</ParameterControlType>
														<LowerBound>0</LowerBound>
														<UpperBound>4000</UpperBound>
														<value>-91445760000000000,100.,0,0,0,0,0,0</value>
													</parameter>
													<parameter authoringApp="PremierePro">
														<parameterid>6</parameterid>
														<name> </name>
														<IsTimeVarying>false</IsTimeVarying>
														<ParameterControlType>4</ParameterControlType>
														<LowerBound>false</LowerBound>
														<UpperBound>true</UpperBound>
														<value>-91445760000000000,true,0,0,0,0,0,0</value>
													</parameter>
													<parameter authoringApp="PremierePro">
														<parameterid>7</parameterid>
														<name>Rotation</name>
														<IsTimeVarying>false</IsTimeVarying>
														<ParameterControlType>3</ParameterControlType>
														<LowerBound>-32768</LowerBound>
														<UpperBound>32767</UpperBound>
														<value>-91445760000000000,0.,0,0,0,0,0,0</value>
													</parameter>
													<parameter authoringApp="PremierePro">
														<parameterid>8</parameterid>
														<name>Opacity</name>
														<IsTimeVarying>false</IsTimeVarying>
														<ParameterControlType>2</ParameterControlType>
														<LowerBound>0</LowerBound>
														<UpperBound>100</UpperBound>
														<value>-91445760000000000,100.,0,0,0,0,0,0</value>
													</parameter>
													<parameter authoringApp="PremierePro">
														<parameterid>9</parameterid>
														<name>Anchor Point</name>
														<IsTimeVarying>false</IsTimeVarying>
														<value>-91445760000000000,0:0,0,0,0,0,0,0,5,4,0,0,0,0</value>
													</parameter>
													<parameter authoringApp="PremierePro">
														<parameterid>10</parameterid>
														<name></name>
														<IsTimeVarying>false</IsTimeVarying>
														<ParameterControlType>12</ParameterControlType>
														<LowerBound>false</LowerBound>
														<UpperBound>false</UpperBound>
														<value>-91445760000000000,false,0,0,0,0,0,0</value>
													</parameter>
													<parameter authoringApp="PremierePro">
														<parameterid>11</parameterid>
														<name> </name>
														<IsTimeVarying>false</IsTimeVarying>
														<ParameterControlType>8</ParameterControlType>
														<LowerBound>0</LowerBound>
														<UpperBound>32768</UpperBound>
														<value>-91445760000000000,0.,0,0,0,0,0,0</value>
													</parameter>
													<parameter authoringApp="PremierePro">
														<parameterid>12</parameterid>
														<name> </name>
														<IsTimeVarying>false</IsTimeVarying>
														<ParameterControlType>8</ParameterControlType>
														<LowerBound>0</LowerBound>
														<UpperBound>32768</UpperBound>
														<value>-91445760000000000,0.,0,0,0,0,0,0</value>
													</parameter>
													<parameter authoringApp="PremierePro">
														<parameterid>13</parameterid>
														<name>start</name>
														<IsTimeVarying>false</IsTimeVarying>
														<ParameterControlType>8</ParameterControlType>
														<LowerBound>-100</LowerBound>
														<UpperBound>1000000000</UpperBound>
														<value>-91445760000000000,30.,0,0,0,0,0,0</value>
													</parameter>
													<parameter authoringApp="PremierePro">
														<parameterid>14</parameterid>
														<name>end</name>
														<IsTimeVarying>false</IsTimeVarying>
														<ParameterControlType>8</ParameterControlType>
														<LowerBound>-100</LowerBound>
														<UpperBound>1000000000</UpperBound>
														<value>-91445760000000000,30.,0,0,0,0,0,0</value>
													</parameter>
													<parameter authoringApp="PremierePro">
														<parameterid>15</parameterid>
														<name> </name>
														<IsTimeVarying>false</IsTimeVarying>
														<ParameterControlType>4</ParameterControlType>
														<LowerBound>false</LowerBound>
														<UpperBound>true</UpperBound>
														<value>-91445760000000000,false,0,0,0,0,0,0</value>
													</parameter>
													<parameter authoringApp="PremierePro">
														<parameterid>16</parameterid>
														<name> </name>
														<IsTimeVarying>false</IsTimeVarying>
														<ParameterControlType>4</ParameterControlType>
														<LowerBound>false</LowerBound>
														<UpperBound>true</UpperBound>
														<value>-91445760000000000,false,0,0,0,0,0,0</value>
													</parameter>
													<parameter authoringApp="PremierePro">
														<parameterid>17</parameterid>
														<name> </name>
														<IsTimeVarying>false</IsTimeVarying>
														<ParameterControlType>4</ParameterControlType>
														<LowerBound>false</LowerBound>
														<UpperBound>true</UpperBound>
														<value>-91445760000000000,false,0,0,0,0,0,0</value>
													</parameter>
													<parameter authoringApp="PremierePro">
														<parameterid>18</parameterid>
														<name> </name>
														<IsTimeVarying>false</IsTimeVarying>
														<ParameterControlType>4</ParameterControlType>
														<LowerBound>false</LowerBound>
														<UpperBound>true</UpperBound>
														<value>-91445760000000000,false,0,0,0,0,0,0</value>
													</parameter>
													<parameter authoringApp="PremierePro">
														<parameterid>19</parameterid>
														<name>Parent Width</name>
														<IsTimeVarying>false</IsTimeVarying>
														<ParameterControlType>2</ParameterControlType>
														<LowerBound>0</LowerBound>
														<UpperBound>20000</UpperBound>
														<value>-91445760000000000,0.,0,0,0,0,0,0</value>
													</parameter>
													<parameter authoringApp="PremierePro">
														<parameterid>20</parameterid>
														<name>Parent Height</name>
														<IsTimeVarying>false</IsTimeVarying>
														<ParameterControlType>2</ParameterControlType>
														<LowerBound>0</LowerBound>
														<UpperBound>20000</UpperBound>
														<value>-91445760000000000,0.,0,0,0,0,0,0</value>
													</parameter>
													<parameter authoringApp="PremierePro">
														<parameterid>21</parameterid>
														<name>Parent Rotation</name>
														<IsTimeVarying>false</IsTimeVarying>
														<ParameterControlType>3</ParameterControlType>
														<LowerBound>-32768</LowerBound>
														<UpperBound>32767</UpperBound>
														<value>-91445760000000000,0.,0,0,0,0,0,0</value>
													</parameter>
												</effect>
											</filter>
											<logginginfo>
												<description></description>
												<scene></scene>
												<shottake></shottake>
												<lognote></lognote>
												<good></good>
												<originalvideofilename></originalvideofilename>
												<originalaudiofilename></originalaudiofilename>
											</logginginfo>
											<colorinfo>
												<lut></lut>
												<lut1></lut1>
												<asc_sop></asc_sop>
												<asc_sat></asc_sat>
												<lut2></lut2>
											</colorinfo>
										</clipitem>
										<transitionitem>
											<start>328</start>
											<end>350</end>
											<alignment>end-black</alignment>
											<cutPointTicks>223534080000</cutPointTicks>
											<rate>
												<timebase>25</timebase>
												<ntsc>FALSE</ntsc>
											</rate>
											<effect>
												<name>Edge Wipe</name>
												<effectid>Edge Wipe</effectid>
												<effectcategory>Wipe</effectcategory>
												<effecttype>transition</effecttype>
												<mediatype>video</mediatype>
												<wipecode>2</wipecode>
												<wipeaccuracy>100</wipeaccuracy>
												<startratio>0</startratio>
												<endratio>1</endratio>
												<reverse>FALSE</reverse>
												<parameter authoringApp="PremierePro">
													<parameterid>directionofwipe</parameterid>
													<name>Angle</name>
													<valuemin>-360</valuemin>
													<valuemax>360</valuemax>
													<value>90</value>
												</parameter>
											</effect>
										</transitionitem>
										<enabled>TRUE</enabled>
										<locked>FALSE</locked>
									</track>
								</video>
								<audio>
									<numOutputChannels>2</numOutputChannels>
									<format>
										<samplecharacteristics>
											<depth>16</depth>
											<samplerate>48000</samplerate>
										</samplecharacteristics>
									</format>
									<outputs>
										<group>
											<index>1</index>
											<numchannels>1</numchannels>
											<downmix>0</downmix>
											<channel>
												<index>1</index>
											</channel>
										</group>
										<group>
											<index>2</index>
											<numchannels>1</numchannels>
											<downmix>0</downmix>
											<channel>
												<index>2</index>
											</channel>
										</group>
									</outputs>
									<track TL.SQTrackAudioKeyframeStyle="0" TL.SQTrackShy="0" TL.SQTrackExpandedHeight="25" TL.SQTrackExpanded="0" MZ.TrackTargeted="1" PannerCurrentValue="0.5" PannerStartKeyframe="-91445760000000000,0.5,0,0,0,0,0,0" PannerName="Balance" currentExplodedTrackIndex="0" totalExplodedTrackCount="2" premiereTrackType="Stereo">
										<enabled>TRUE</enabled>
										<locked>FALSE</locked>
										<outputchannelindex>1</outputchannelindex>
									</track>
									<track TL.SQTrackAudioKeyframeStyle="0" TL.SQTrackShy="0" TL.SQTrackExpandedHeight="25" TL.SQTrackExpanded="0" MZ.TrackTargeted="1" PannerCurrentValue="0.5" PannerStartKeyframe="-91445760000000000,0.5,0,0,0,0,0,0" PannerName="Balance" currentExplodedTrackIndex="1" totalExplodedTrackCount="2" premiereTrackType="Stereo">
										<enabled>TRUE</enabled>
										<locked>FALSE</locked>
										<outputchannelindex>2</outputchannelindex>
									</track>
								</audio>
							</media>
							<timecode>
								<rate>
									<timebase>25</timebase>
									<ntsc>FALSE</ntsc>
								</rate>
								<string>00:00:00:00</string>
								<frame>0</frame>
								<displayformat>NDF</displayformat>
							</timecode>
								<marker>
									<comment></comment>
									<name></name>
									<in>125</in>
									<out>-1</out>
									<pproColor>4280578025</pproColor>
								</marker>
							<logginginfo>
								<description></description>
								<scene></scene>
								<shottake></shottake>
								<lognote></lognote>
								<good></good>
								<originalvideofilename></originalvideofilename>
								<originalaudiofilename></originalaudiofilename>
							</logginginfo>
						</sequence>
							<marker>
								<comment></comment>
								<name></name>
								<in>125</in>
								<out>-1</out>
								<pproColor>4280578025</pproColor>
							</marker>
						<labels>
							<label2>Forest</label2>
						</labels>
					</clipitem>
					<clipitem id="clipitem-1779">
						<masterclipid>masterclip-762</masterclipid>
						<name>4</name>
						<enabled>TRUE</enabled>
						<duration>475</duration>
						<rate>
							<timebase>25</timebase>
							<ntsc>FALSE</ntsc>
						</rate>
						<start>48949</start>
						<end>49300</end>
						<in>124</in>
						<out>475</out>
						<pproTicksIn>1259919360000</pproTicksIn>
						<pproTicksOut>4826304000000</pproTicksOut>
						<sequence id="sequence-141"/>
							<marker>
								<comment></comment>
								<name></name>
								<in>125</in>
								<out>-1</out>
								<pproColor>4280578025</pproColor>
							</marker>
						<labels>
							<label2>Forest</label2>
						</labels>
					</clipitem>
					<clipitem id="clipitem-1780">
						<masterclipid>masterclip-767</masterclipid>
						<name>3_TITLE</name>
						<enabled>TRUE</enabled>
						<duration>475</duration>
						<rate>
							<timebase>25</timebase>
							<ntsc>FALSE</ntsc>
						</rate>
						<start>50098</start>
						<end>50448</end>
						<in>0</in>
						<out>475</out>
						<pproTicksIn>0</pproTicksIn>
						<pproTicksOut>4826304000000</pproTicksOut>
						<sequence id="sequence-142" TL.SQAudioVisibleBase="0" TL.SQVideoVisibleBase="0" TL.SQVisibleBaseTime="0" TL.SQAVDividerPosition="0.5" TL.SQHideShyTracks="0" TL.SQHeaderWidth="236" TL.SQDataTrackViewControlState="0" Monitor.ProgramZoomOut="4826304000000" Monitor.ProgramZoomIn="0" TL.SQTimePerPixel="0.024999999999999998" AM.TrackVScrollPosition="0" AM.TrackScrollPosition="0" MZ.EditLine="1473292800000" MZ.Sequence.PreviewFrameSizeHeight="576" MZ.Sequence.PreviewFrameSizeWidth="720" MZ.Sequence.AudioTimeDisplayFormat="200" MZ.Sequence.PreviewRenderingClassID="1061109567" MZ.Sequence.PreviewRenderingPresetCodec="1685480304" MZ.Sequence.PreviewRenderingPresetPath="EncoderPresets/SequencePreview/04be6e19-a018-4e0c-a9d6-0ab44c64752b/QuickTime DV PAL.epr" MZ.Sequence.PreviewUseMaxRenderQuality="false" MZ.Sequence.PreviewUseMaxBitDepth="false" MZ.Sequence.EditingModeGUID="04be6e19-a018-4e0c-a9d6-0ab44c64752b" MZ.Sequence.VideoTimeDisplayFormat="101" MZ.WorkOutPoint="4826304000000" MZ.WorkInPoint="0" MZ.ZeroPoint="0">
							<duration>475</duration>
							<rate>
								<timebase>25</timebase>
								<ntsc>FALSE</ntsc>
							</rate>
							<name>титр</name>
							<media>
								<video>
									<format>
										<samplecharacteristics>
											<rate>
												<timebase>25</timebase>
												<ntsc>FALSE</ntsc>
											</rate>
											<codec>
												<name>Apple ProRes 422</name>
												<appspecificdata>
													<appname>Final Cut Pro</appname>
													<appmanufacturer>Apple Inc.</appmanufacturer>
													<appversion>7.0</appversion>
													<data>
														<qtcodec>
															<codecname>Apple ProRes 422</codecname>
															<codectypename>Apple ProRes 422</codectypename>
															<codectypecode>apcn</codectypecode>
															<codecvendorcode>appl</codecvendorcode>
															<spatialquality>1024</spatialquality>
															<temporalquality>0</temporalquality>
															<keyframerate>0</keyframerate>
															<datarate>0</datarate>
														</qtcodec>
													</data>
												</appspecificdata>
											</codec>
											<width>720</width>
											<height>576</height>
											<anamorphic>TRUE</anamorphic>
											<pixelaspectratio>PAL-601</pixelaspectratio>
											<fielddominance>lower</fielddominance>
											<colordepth>24</colordepth>
										</samplecharacteristics>
									</format>
									<track TL.SQTrackShy="0" TL.SQTrackExpandedHeight="25" TL.SQTrackExpanded="0" MZ.TrackTargeted="1">
										<clipitem id="clipitem-1781">
											<masterclipid>masterclip-768</masterclipid>
											<name>9_title.mov</name>
											<enabled>TRUE</enabled>
											<duration>225</duration>
											<rate>
												<timebase>25</timebase>
												<ntsc>FALSE</ntsc>
											</rate>
											<start>125</start>
											<end>350</end>
											<in>0</in>
											<out>225</out>
											<pproTicksIn>0</pproTicksIn>
											<pproTicksOut>2286144000000</pproTicksOut>
											<alphatype>straight</alphatype>
											<pixelaspectratio>square</pixelaspectratio>
											<anamorphic>FALSE</anamorphic>
											<file id="file-636">
												<name>3_title.mov</name>
												<pathurl>file://localhost/_MUZ_TV/graphika/RU-21/MOD/title_plashka/3_title.mov</pathurl>
												<rate>
													<timebase>25</timebase>
													<ntsc>FALSE</ntsc>
												</rate>
												<duration>225</duration>
												<timecode>
													<rate>
														<timebase>25</timebase>
														<ntsc>FALSE</ntsc>
													</rate>
													<string>00:01:03:00</string>
													<frame>1575</frame>
													<displayformat>NDF</displayformat>
												</timecode>
												<media>
													<video>
														<samplecharacteristics>
															<rate>
																<timebase>25</timebase>
																<ntsc>FALSE</ntsc>
															</rate>
															<width>1920</width>
															<height>1080</height>
															<anamorphic>FALSE</anamorphic>
															<pixelaspectratio>square</pixelaspectratio>
															<fielddominance>none</fielddominance>
														</samplecharacteristics>
													</video>
												</media>
											</file>
											<filter>
												<effect>
													<name>Basic Motion</name>
													<effectid>basic</effectid>
													<effectcategory>motion</effectcategory>
													<effecttype>motion</effecttype>
													<mediatype>video</mediatype>
													<pproBypass>false</pproBypass>
													<parameter authoringApp="PremierePro">
														<parameterid>scale</parameterid>
														<name>Scale</name>
														<valuemin>0</valuemin>
														<valuemax>1000</valuemax>
														<value>55</value>
													</parameter>
													<parameter authoringApp="PremierePro">
														<parameterid>rotation</parameterid>
														<name>Rotation</name>
														<valuemin>-8640</valuemin>
														<valuemax>8640</valuemax>
														<value>0</value>
													</parameter>
													<parameter authoringApp="PremierePro">
														<parameterid>center</parameterid>
														<name>Center</name>
														<value>
															<horiz>0</horiz>
															<vert>0</vert>
														</value>
													</parameter>
													<parameter authoringApp="PremierePro">
														<parameterid>centerOffset</parameterid>
														<name>Anchor Point</name>
														<value>
															<horiz>0</horiz>
															<vert>0</vert>
														</value>
													</parameter>
													<parameter authoringApp="PremierePro">
														<parameterid>antiflicker</parameterid>
														<name>Anti-flicker Filter</name>
														<valuemin>0.0</valuemin>
														<valuemax>1.0</valuemax>
														<value>0</value>
													</parameter>
												</effect>
											</filter>
											<filter>
												<effect>
													<name>Distort</name>
													<effectid>deformation</effectid>
													<effectcategory>motion</effectcategory>
													<effecttype>motion</effecttype>
													<mediatype>video</mediatype>
													<parameter authoringApp="PremierePro">
														<parameterid>aspect</parameterid>
														<name>Aspect</name>
														<valuemin>-10000</valuemin>
														<valuemax>10000</valuemax>
														<value>-3.12506</value>
													</parameter>
												</effect>
											</filter>
											<logginginfo>
												<description></description>
												<scene></scene>
												<shottake></shottake>
												<lognote></lognote>
												<good></good>
												<originalvideofilename></originalvideofilename>
												<originalaudiofilename></originalaudiofilename>
											</logginginfo>
											<colorinfo>
												<lut></lut>
												<lut1></lut1>
												<asc_sop></asc_sop>
												<asc_sat></asc_sat>
												<lut2></lut2>
											</colorinfo>
											<labels>
												<label2>Violet</label2>
											</labels>
										</clipitem>
										<clipitem id="clipitem-1782">
											<masterclipid>masterclip-769</masterclipid>
											<name>Graphic</name>
											<enabled>FALSE</enabled>
											<duration>1080000</duration>
											<rate>
												<timebase>25</timebase>
												<ntsc>FALSE</ntsc>
											</rate>
											<start>350</start>
											<end>475</end>
											<in>90000</in>
											<out>90125</out>
											<pproTicksIn>914457600000000</pproTicksIn>
											<pproTicksOut>915727680000000</pproTicksOut>
											<alphatype>straight</alphatype>
											<pixelaspectratio>PAL-601</pixelaspectratio>
											<anamorphic>TRUE</anamorphic>
											<file id="file-637">
												<name>Graphic</name>
												<mediaSource>GraphicAndType</mediaSource>
												<rate>
													<timebase>30</timebase>
													<ntsc>TRUE</ntsc>
												</rate>
												<timecode>
													<rate>
														<timebase>30</timebase>
														<ntsc>TRUE</ntsc>
													</rate>
													<string>00;00;00;00</string>
													<frame>0</frame>
													<displayformat>DF</displayformat>
												</timecode>
												<media>
													<video>
														<samplecharacteristics>
															<rate>
																<timebase>30</timebase>
																<ntsc>TRUE</ntsc>
															</rate>
															<width>720</width>
															<height>576</height>
															<anamorphic>TRUE</anamorphic>
															<pixelaspectratio>PAL-601</pixelaspectratio>
															<fielddominance>none</fielddominance>
														</samplecharacteristics>
													</video>
												</media>
											</file>
											<filter>
												<effect>
													<name>Basic Motion</name>
													<effectid>basic</effectid>
													<effectcategory>motion</effectcategory>
													<effecttype>motion</effecttype>
													<mediatype>video</mediatype>
													<pproBypass>false</pproBypass>
													<parameter authoringApp="PremierePro">
														<parameterid>scale</parameterid>
														<name>Scale</name>
														<valuemin>0</valuemin>
														<valuemax>1000</valuemax>
														<value>133.333</value>
													</parameter>
													<parameter authoringApp="PremierePro">
														<parameterid>rotation</parameterid>
														<name>Rotation</name>
														<valuemin>-8640</valuemin>
														<valuemax>8640</valuemax>
														<value>0</value>
													</parameter>
													<parameter authoringApp="PremierePro">
														<parameterid>center</parameterid>
														<name>Center</name>
														<value>
															<horiz>0</horiz>
															<vert>0</vert>
														</value>
													</parameter>
													<parameter authoringApp="PremierePro">
														<parameterid>centerOffset</parameterid>
														<name>Anchor Point</name>
														<value>
															<horiz>0</horiz>
															<vert>0</vert>
														</value>
													</parameter>
													<parameter authoringApp="PremierePro">
														<parameterid>antiflicker</parameterid>
														<name>Anti-flicker Filter</name>
														<valuemin>0.0</valuemin>
														<valuemax>1.0</valuemax>
														<value>0</value>
													</parameter>
												</effect>
											</filter>
											<filter>
												<effect>
													<name>Distort</name>
													<effectid>deformation</effectid>
													<effectcategory>motion</effectcategory>
													<effecttype>motion</effecttype>
													<mediatype>video</mediatype>
													<parameter authoringApp="PremierePro">
														<parameterid>aspect</parameterid>
														<name>Aspect</name>
														<valuemin>-10000</valuemin>
														<valuemax>10000</valuemax>
														<value>-33.333</value>
													</parameter>
												</effect>
											</filter>
											<filter>
												<effect>
													<name></name>
													<effectid>GraphicAndType</effectid>
													<effectcategory>graphic</effectcategory>
													<effecttype>filter</effecttype>
													<mediatype>video</mediatype>
													<pproBypass>false</pproBypass>
													<parameter authoringApp="PremierePro">
														<parameterid>1</parameterid>
														<name>Source Text</name>
														<hash>3f0faa81-c1b0-8370-b66c-fa0b000009f1</hash>
													</parameter>
													<parameter authoringApp="PremierePro">
														<parameterid>2</parameterid>
														<name>Transform</name>
														<IsTimeVarying>false</IsTimeVarying>
														<ParameterControlType>11</ParameterControlType>
														<LowerBound>false</LowerBound>
														<UpperBound>false</UpperBound>
														<value>-91445760000000000,false,0,0,0,0,0,0</value>
													</parameter>
													<parameter authoringApp="PremierePro">
														<parameterid>3</parameterid>
														<name>Position</name>
														<IsTimeVarying>false</IsTimeVarying>
														<value>-91445760000000000,0.55605381727218628:0.73039215803146362,0,0,0,0,0,0,5,4,0,0,0,0</value>
													</parameter>
													<parameter authoringApp="PremierePro">
														<parameterid>4</parameterid>
														<name>Scale</name>
														<IsTimeVarying>false</IsTimeVarying>
														<ParameterControlType>2</ParameterControlType>
														<LowerBound>0</LowerBound>
														<UpperBound>4000</UpperBound>
														<value>-91445760000000000,100.,0,0,0,0,0,0</value>
													</parameter>
													<parameter authoringApp="PremierePro">
														<parameterid>5</parameterid>
														<name>Horizontal Scale</name>
														<IsTimeVarying>false</IsTimeVarying>
														<ParameterControlType>2</ParameterControlType>
														<LowerBound>0</LowerBound>
														<UpperBound>4000</UpperBound>
														<value>-91445760000000000,100.,0,0,0,0,0,0</value>
													</parameter>
													<parameter authoringApp="PremierePro">
														<parameterid>6</parameterid>
														<name> </name>
														<IsTimeVarying>false</IsTimeVarying>
														<ParameterControlType>4</ParameterControlType>
														<LowerBound>false</LowerBound>
														<UpperBound>true</UpperBound>
														<value>-91445760000000000,true,0,0,0,0,0,0</value>
													</parameter>
													<parameter authoringApp="PremierePro">
														<parameterid>7</parameterid>
														<name>Rotation</name>
														<IsTimeVarying>false</IsTimeVarying>
														<ParameterControlType>3</ParameterControlType>
														<LowerBound>-32768</LowerBound>
														<UpperBound>32767</UpperBound>
														<value>-91445760000000000,0.,0,0,0,0,0,0</value>
													</parameter>
													<parameter authoringApp="PremierePro">
														<parameterid>8</parameterid>
														<name>Opacity</name>
														<IsTimeVarying>false</IsTimeVarying>
														<ParameterControlType>2</ParameterControlType>
														<LowerBound>0</LowerBound>
														<UpperBound>100</UpperBound>
														<value>-91445760000000000,100.,0,0,0,0,0,0</value>
													</parameter>
													<parameter authoringApp="PremierePro">
														<parameterid>9</parameterid>
														<name>Anchor Point</name>
														<IsTimeVarying>false</IsTimeVarying>
														<value>-91445760000000000,0:0,0,0,0,0,0,0,5,4,0,0,0,0</value>
													</parameter>
													<parameter authoringApp="PremierePro">
														<parameterid>10</parameterid>
														<name></name>
														<IsTimeVarying>false</IsTimeVarying>
														<ParameterControlType>12</ParameterControlType>
														<LowerBound>false</LowerBound>
														<UpperBound>false</UpperBound>
														<value>-91445760000000000,false,0,0,0,0,0,0</value>
													</parameter>
													<parameter authoringApp="PremierePro">
														<parameterid>11</parameterid>
														<name> </name>
														<IsTimeVarying>false</IsTimeVarying>
														<ParameterControlType>8</ParameterControlType>
														<LowerBound>0</LowerBound>
														<UpperBound>32768</UpperBound>
														<value>-91445760000000000,0.,0,0,0,0,0,0</value>
													</parameter>
													<parameter authoringApp="PremierePro">
														<parameterid>12</parameterid>
														<name> </name>
														<IsTimeVarying>false</IsTimeVarying>
														<ParameterControlType>8</ParameterControlType>
														<LowerBound>0</LowerBound>
														<UpperBound>32768</UpperBound>
														<value>-91445760000000000,0.,0,0,0,0,0,0</value>
													</parameter>
													<parameter authoringApp="PremierePro">
														<parameterid>13</parameterid>
														<name>start</name>
														<IsTimeVarying>false</IsTimeVarying>
														<ParameterControlType>8</ParameterControlType>
														<LowerBound>-100</LowerBound>
														<UpperBound>1000000000</UpperBound>
														<value>-91445760000000000,0.,0,0,0,0,0,0</value>
													</parameter>
													<parameter authoringApp="PremierePro">
														<parameterid>14</parameterid>
														<name>end</name>
														<IsTimeVarying>false</IsTimeVarying>
														<ParameterControlType>8</ParameterControlType>
														<LowerBound>-100</LowerBound>
														<UpperBound>1000000000</UpperBound>
														<value>-91445760000000000,0.,0,0,0,0,0,0</value>
													</parameter>
													<parameter authoringApp="PremierePro">
														<parameterid>15</parameterid>
														<name> </name>
														<IsTimeVarying>false</IsTimeVarying>
														<ParameterControlType>4</ParameterControlType>
														<LowerBound>false</LowerBound>
														<UpperBound>true</UpperBound>
														<value>-91445760000000000,false,0,0,0,0,0,0</value>
													</parameter>
													<parameter authoringApp="PremierePro">
														<parameterid>16</parameterid>
														<name> </name>
														<IsTimeVarying>false</IsTimeVarying>
														<ParameterControlType>4</ParameterControlType>
														<LowerBound>false</LowerBound>
														<UpperBound>true</UpperBound>
														<value>-91445760000000000,false,0,0,0,0,0,0</value>
													</parameter>
													<parameter authoringApp="PremierePro">
														<parameterid>17</parameterid>
														<name> </name>
														<IsTimeVarying>false</IsTimeVarying>
														<ParameterControlType>4</ParameterControlType>
														<LowerBound>false</LowerBound>
														<UpperBound>true</UpperBound>
														<value>-91445760000000000,false,0,0,0,0,0,0</value>
													</parameter>
													<parameter authoringApp="PremierePro">
														<parameterid>18</parameterid>
														<name> </name>
														<IsTimeVarying>false</IsTimeVarying>
														<ParameterControlType>4</ParameterControlType>
														<LowerBound>false</LowerBound>
														<UpperBound>true</UpperBound>
														<value>-91445760000000000,false,0,0,0,0,0,0</value>
													</parameter>
													<parameter authoringApp="PremierePro">
														<parameterid>19</parameterid>
														<name>Parent Width</name>
														<IsTimeVarying>false</IsTimeVarying>
														<ParameterControlType>2</ParameterControlType>
														<LowerBound>0</LowerBound>
														<UpperBound>20000</UpperBound>
														<value>-91445760000000000,0.,0,0,0,0,0,0</value>
													</parameter>
													<parameter authoringApp="PremierePro">
														<parameterid>20</parameterid>
														<name>Parent Height</name>
														<IsTimeVarying>false</IsTimeVarying>
														<ParameterControlType>2</ParameterControlType>
														<LowerBound>0</LowerBound>
														<UpperBound>20000</UpperBound>
														<value>-91445760000000000,0.,0,0,0,0,0,0</value>
													</parameter>
													<parameter authoringApp="PremierePro">
														<parameterid>21</parameterid>
														<name>Parent Rotation</name>
														<IsTimeVarying>false</IsTimeVarying>
														<ParameterControlType>3</ParameterControlType>
														<LowerBound>-32768</LowerBound>
														<UpperBound>32767</UpperBound>
														<value>-91445760000000000,0.,0,0,0,0,0,0</value>
													</parameter>
												</effect>
											</filter>
											<logginginfo>
												<description></description>
												<scene></scene>
												<shottake></shottake>
												<lognote></lognote>
												<good></good>
												<originalvideofilename></originalvideofilename>
												<originalaudiofilename></originalaudiofilename>
											</logginginfo>
											<colorinfo>
												<lut></lut>
												<lut1></lut1>
												<asc_sop></asc_sop>
												<asc_sat></asc_sat>
												<lut2></lut2>
											</colorinfo>
										</clipitem>
										<enabled>TRUE</enabled>
										<locked>FALSE</locked>
									</track>
									<track TL.SQTrackShy="0" TL.SQTrackExpandedHeight="25" TL.SQTrackExpanded="0" MZ.TrackTargeted="0">
										<transitionitem>
											<start>167</start>
											<end>224</end>
											<alignment>start-black</alignment>
											<cutPointTicks>0</cutPointTicks>
											<rate>
												<timebase>25</timebase>
												<ntsc>FALSE</ntsc>
											</rate>
											<effect>
												<name>Edge Wipe</name>
												<effectid>Edge Wipe</effectid>
												<effectcategory>Wipe</effectcategory>
												<effecttype>transition</effecttype>
												<mediatype>video</mediatype>
												<wipecode>2</wipecode>
												<wipeaccuracy>100</wipeaccuracy>
												<startratio>0</startratio>
												<endratio>1</endratio>
												<reverse>FALSE</reverse>
												<parameter authoringApp="PremierePro">
													<parameterid>directionofwipe</parameterid>
													<name>Angle</name>
													<valuemin>-360</valuemin>
													<valuemax>360</valuemax>
													<value>90</value>
												</parameter>
											</effect>
										</transitionitem>
										<clipitem id="clipitem-1783">
											<masterclipid>masterclip-770</masterclipid>
											<name>9.png</name>
											<enabled>TRUE</enabled>
											<duration>1080000</duration>
											<rate>
												<timebase>25</timebase>
												<ntsc>FALSE</ntsc>
											</rate>
											<start>-1</start>
											<end>-1</end>
											<in>90042</in>
											<out>90225</out>
											<pproTicksIn>914884346880000</pproTicksIn>
											<pproTicksOut>916743744000000</pproTicksOut>
											<alphatype>straight</alphatype>
											<pixelaspectratio>square</pixelaspectratio>
											<anamorphic>FALSE</anamorphic>
											<file id="file-638">
												<name>3.png</name>
												<pathurl>file://localhost/_MUZ_TV/project_AP/RU/_TITLE/469/3.png</pathurl>
												<rate>
													<timebase>30</timebase>
													<ntsc>TRUE</ntsc>
												</rate>
												<timecode>
													<rate>
														<timebase>30</timebase>
														<ntsc>TRUE</ntsc>
													</rate>
													<string>00;00;00;00</string>
													<frame>0</frame>
													<displayformat>DF</displayformat>
												</timecode>
												<media>
													<video>
														<samplecharacteristics>
															<rate>
																<timebase>30</timebase>
																<ntsc>TRUE</ntsc>
															</rate>
															<width>1920</width>
															<height>1080</height>
															<anamorphic>FALSE</anamorphic>
															<pixelaspectratio>square</pixelaspectratio>
															<fielddominance>none</fielddominance>
														</samplecharacteristics>
													</video>
												</media>
											</file>
											<filter>
												<effect>
													<name>Basic Motion</name>
													<effectid>basic</effectid>
													<effectcategory>motion</effectcategory>
													<effecttype>motion</effecttype>
													<mediatype>video</mediatype>
													<pproBypass>false</pproBypass>
													<parameter authoringApp="PremierePro">
														<parameterid>scale</parameterid>
														<name>Scale</name>
														<valuemin>0</valuemin>
														<valuemax>1000</valuemax>
														<value>53.3333</value>
													</parameter>
													<parameter authoringApp="PremierePro">
														<parameterid>rotation</parameterid>
														<name>Rotation</name>
														<valuemin>-8640</valuemin>
														<valuemax>8640</valuemax>
														<value>0</value>
													</parameter>
													<parameter authoringApp="PremierePro">
														<parameterid>center</parameterid>
														<name>Center</name>
														<value>
															<horiz>0</horiz>
															<vert>0</vert>
														</value>
													</parameter>
													<parameter authoringApp="PremierePro">
														<parameterid>centerOffset</parameterid>
														<name>Anchor Point</name>
														<value>
															<horiz>0</horiz>
															<vert>0</vert>
														</value>
													</parameter>
													<parameter authoringApp="PremierePro">
														<parameterid>antiflicker</parameterid>
														<name>Anti-flicker Filter</name>
														<valuemin>0.0</valuemin>
														<valuemax>1.0</valuemax>
														<value>0</value>
													</parameter>
												</effect>
											</filter>
											<logginginfo>
												<description></description>
												<scene></scene>
												<shottake></shottake>
												<lognote></lognote>
												<good></good>
												<originalvideofilename></originalvideofilename>
												<originalaudiofilename></originalaudiofilename>
											</logginginfo>
											<colorinfo>
												<lut></lut>
												<lut1></lut1>
												<asc_sop></asc_sop>
												<asc_sat></asc_sat>
												<lut2></lut2>
											</colorinfo>
											<labels>
												<label2>Lavender</label2>
											</labels>
										</clipitem>
										<transitionitem>
											<start>328</start>
											<end>350</end>
											<alignment>end-black</alignment>
											<cutPointTicks>223534080000</cutPointTicks>
											<rate>
												<timebase>25</timebase>
												<ntsc>FALSE</ntsc>
											</rate>
											<effect>
												<name>Edge Wipe</name>
												<effectid>Edge Wipe</effectid>
												<effectcategory>Wipe</effectcategory>
												<effecttype>transition</effecttype>
												<mediatype>video</mediatype>
												<wipecode>2</wipecode>
												<wipeaccuracy>100</wipeaccuracy>
												<startratio>0</startratio>
												<endratio>1</endratio>
												<reverse>FALSE</reverse>
												<parameter authoringApp="PremierePro">
													<parameterid>directionofwipe</parameterid>
													<name>Angle</name>
													<valuemin>-360</valuemin>
													<valuemax>360</valuemax>
													<value>90</value>
												</parameter>
											</effect>
										</transitionitem>
										<enabled>TRUE</enabled>
										<locked>FALSE</locked>
									</track>
									<track TL.SQTrackShy="0" TL.SQTrackExpandedHeight="25" TL.SQTrackExpanded="0" MZ.TrackTargeted="0">
										<transitionitem>
											<start>167</start>
											<end>224</end>
											<alignment>start-black</alignment>
											<cutPointTicks>0</cutPointTicks>
											<rate>
												<timebase>25</timebase>
												<ntsc>FALSE</ntsc>
											</rate>
											<effect>
												<name>Edge Wipe</name>
												<effectid>Edge Wipe</effectid>
												<effectcategory>Wipe</effectcategory>
												<effecttype>transition</effecttype>
												<mediatype>video</mediatype>
												<wipecode>2</wipecode>
												<wipeaccuracy>100</wipeaccuracy>
												<startratio>0</startratio>
												<endratio>1</endratio>
												<reverse>FALSE</reverse>
												<parameter authoringApp="PremierePro">
													<parameterid>directionofwipe</parameterid>
													<name>Angle</name>
													<valuemin>-360</valuemin>
													<valuemax>360</valuemax>
													<value>90</value>
												</parameter>
											</effect>
										</transitionitem>
										<clipitem id="clipitem-1784">
											<masterclipid>masterclip-771</masterclipid>
											<name>Graphic</name>
											<enabled>FALSE</enabled>
											<duration>1080000</duration>
											<rate>
												<timebase>25</timebase>
												<ntsc>FALSE</ntsc>
											</rate>
											<start>-1</start>
											<end>-1</end>
											<in>89998</in>
											<out>90181</out>
											<pproTicksIn>914437278720000</pproTicksIn>
											<pproTicksOut>916296675840000</pproTicksOut>
											<alphatype>straight</alphatype>
											<pixelaspectratio>PAL-601</pixelaspectratio>
											<anamorphic>TRUE</anamorphic>
											<file id="file-639">
												<name>Graphic</name>
												<mediaSource>GraphicAndType</mediaSource>
												<rate>
													<timebase>30</timebase>
													<ntsc>TRUE</ntsc>
												</rate>
												<timecode>
													<rate>
														<timebase>30</timebase>
														<ntsc>TRUE</ntsc>
													</rate>
													<string>00;00;00;00</string>
													<frame>0</frame>
													<displayformat>DF</displayformat>
												</timecode>
												<media>
													<video>
														<samplecharacteristics>
															<rate>
																<timebase>30</timebase>
																<ntsc>TRUE</ntsc>
															</rate>
															<width>720</width>
															<height>576</height>
															<anamorphic>TRUE</anamorphic>
															<pixelaspectratio>PAL-601</pixelaspectratio>
															<fielddominance>none</fielddominance>
														</samplecharacteristics>
													</video>
												</media>
											</file>
											<filter>
												<effect>
													<name>АРТУР ПИРОЖКОВ&#13;ЛЕТОМ НА ФИЕСТЕ</name>
													<effectid>GraphicAndType</effectid>
													<effectcategory>graphic</effectcategory>
													<effecttype>filter</effecttype>
													<mediatype>video</mediatype>
													<pproBypass>false</pproBypass>
													<pproExpanded>true</pproExpanded>
													<parameter authoringApp="PremierePro">
														<parameterid>1</parameterid>
														<name>Source Text</name>
														<hash>dc092258-f6b9-fd91-a76f-c3e700000476</hash>
													</parameter>
													<parameter authoringApp="PremierePro">
														<parameterid>2</parameterid>
														<name>Transform</name>
														<IsTimeVarying>false</IsTimeVarying>
														<ParameterControlType>11</ParameterControlType>
														<LowerBound>false</LowerBound>
														<UpperBound>false</UpperBound>
														<value>-91445760000000000,false,0,0,0,0,0,0</value>
													</parameter>
													<parameter authoringApp="PremierePro">
														<parameterid>3</parameterid>
														<name>Position</name>
														<IsTimeVarying>false</IsTimeVarying>
														<value>-91445760000000000,0.36944580078125:0.86468505859375,0,0,0,0,0,0,5,4,0,0,0,0</value>
													</parameter>
													<parameter authoringApp="PremierePro">
														<parameterid>4</parameterid>
														<name>Scale</name>
														<IsTimeVarying>false</IsTimeVarying>
														<ParameterControlType>2</ParameterControlType>
														<LowerBound>0</LowerBound>
														<UpperBound>4000</UpperBound>
														<value>-91445760000000000,100.,0,0,0,0,0,0</value>
													</parameter>
													<parameter authoringApp="PremierePro">
														<parameterid>5</parameterid>
														<name>Horizontal Scale</name>
														<IsTimeVarying>false</IsTimeVarying>
														<ParameterControlType>2</ParameterControlType>
														<LowerBound>0</LowerBound>
														<UpperBound>4000</UpperBound>
														<value>-91445760000000000,100.,0,0,0,0,0,0</value>
													</parameter>
													<parameter authoringApp="PremierePro">
														<parameterid>6</parameterid>
														<name> </name>
														<IsTimeVarying>false</IsTimeVarying>
														<ParameterControlType>4</ParameterControlType>
														<LowerBound>false</LowerBound>
														<UpperBound>true</UpperBound>
														<value>-91445760000000000,true,0,0,0,0,0,0</value>
													</parameter>
													<parameter authoringApp="PremierePro">
														<parameterid>7</parameterid>
														<name>Rotation</name>
														<IsTimeVarying>false</IsTimeVarying>
														<ParameterControlType>3</ParameterControlType>
														<LowerBound>-32768</LowerBound>
														<UpperBound>32767</UpperBound>
														<value>-91445760000000000,0.,0,0,0,0,0,0</value>
													</parameter>
													<parameter authoringApp="PremierePro">
														<parameterid>8</parameterid>
														<name>Opacity</name>
														<IsTimeVarying>false</IsTimeVarying>
														<ParameterControlType>2</ParameterControlType>
														<LowerBound>0</LowerBound>
														<UpperBound>100</UpperBound>
														<value>-91445760000000000,100.,0,0,0,0,0,0</value>
													</parameter>
													<parameter authoringApp="PremierePro">
														<parameterid>9</parameterid>
														<name>Anchor Point</name>
														<IsTimeVarying>false</IsTimeVarying>
														<value>-91445760000000000,0:0,0,0,0,0,0,0,5,4,0,0,0,0</value>
													</parameter>
													<parameter authoringApp="PremierePro">
														<parameterid>10</parameterid>
														<name></name>
														<IsTimeVarying>false</IsTimeVarying>
														<ParameterControlType>12</ParameterControlType>
														<LowerBound>false</LowerBound>
														<UpperBound>false</UpperBound>
														<value>-91445760000000000,false,0,0,0,0,0,0</value>
													</parameter>
													<parameter authoringApp="PremierePro">
														<parameterid>11</parameterid>
														<name> </name>
														<IsTimeVarying>false</IsTimeVarying>
														<ParameterControlType>8</ParameterControlType>
														<LowerBound>0</LowerBound>
														<UpperBound>32768</UpperBound>
														<value>-91445760000000000,0.,0,0,0,0,0,0</value>
													</parameter>
													<parameter authoringApp="PremierePro">
														<parameterid>12</parameterid>
														<name> </name>
														<IsTimeVarying>false</IsTimeVarying>
														<ParameterControlType>8</ParameterControlType>
														<LowerBound>0</LowerBound>
														<UpperBound>32768</UpperBound>
														<value>-91445760000000000,0.,0,0,0,0,0,0</value>
													</parameter>
													<parameter authoringApp="PremierePro">
														<parameterid>13</parameterid>
														<name>start</name>
														<IsTimeVarying>false</IsTimeVarying>
														<ParameterControlType>8</ParameterControlType>
														<LowerBound>-100</LowerBound>
														<UpperBound>1000000000</UpperBound>
														<value>-91445760000000000,30.,0,0,0,0,0,0</value>
													</parameter>
													<parameter authoringApp="PremierePro">
														<parameterid>14</parameterid>
														<name>end</name>
														<IsTimeVarying>false</IsTimeVarying>
														<ParameterControlType>8</ParameterControlType>
														<LowerBound>-100</LowerBound>
														<UpperBound>1000000000</UpperBound>
														<value>-91445760000000000,30.,0,0,0,0,0,0</value>
													</parameter>
													<parameter authoringApp="PremierePro">
														<parameterid>15</parameterid>
														<name> </name>
														<IsTimeVarying>false</IsTimeVarying>
														<ParameterControlType>4</ParameterControlType>
														<LowerBound>false</LowerBound>
														<UpperBound>true</UpperBound>
														<value>-91445760000000000,false,0,0,0,0,0,0</value>
													</parameter>
													<parameter authoringApp="PremierePro">
														<parameterid>16</parameterid>
														<name> </name>
														<IsTimeVarying>false</IsTimeVarying>
														<ParameterControlType>4</ParameterControlType>
														<LowerBound>false</LowerBound>
														<UpperBound>true</UpperBound>
														<value>-91445760000000000,false,0,0,0,0,0,0</value>
													</parameter>
													<parameter authoringApp="PremierePro">
														<parameterid>17</parameterid>
														<name> </name>
														<IsTimeVarying>false</IsTimeVarying>
														<ParameterControlType>4</ParameterControlType>
														<LowerBound>false</LowerBound>
														<UpperBound>true</UpperBound>
														<value>-91445760000000000,false,0,0,0,0,0,0</value>
													</parameter>
													<parameter authoringApp="PremierePro">
														<parameterid>18</parameterid>
														<name> </name>
														<IsTimeVarying>false</IsTimeVarying>
														<ParameterControlType>4</ParameterControlType>
														<LowerBound>false</LowerBound>
														<UpperBound>true</UpperBound>
														<value>-91445760000000000,false,0,0,0,0,0,0</value>
													</parameter>
													<parameter authoringApp="PremierePro">
														<parameterid>19</parameterid>
														<name>Parent Width</name>
														<IsTimeVarying>false</IsTimeVarying>
														<ParameterControlType>2</ParameterControlType>
														<LowerBound>0</LowerBound>
														<UpperBound>20000</UpperBound>
														<value>-91445760000000000,0.,0,0,0,0,0,0</value>
													</parameter>
													<parameter authoringApp="PremierePro">
														<parameterid>20</parameterid>
														<name>Parent Height</name>
														<IsTimeVarying>false</IsTimeVarying>
														<ParameterControlType>2</ParameterControlType>
														<LowerBound>0</LowerBound>
														<UpperBound>20000</UpperBound>
														<value>-91445760000000000,0.,0,0,0,0,0,0</value>
													</parameter>
													<parameter authoringApp="PremierePro">
														<parameterid>21</parameterid>
														<name>Parent Rotation</name>
														<IsTimeVarying>false</IsTimeVarying>
														<ParameterControlType>3</ParameterControlType>
														<LowerBound>-32768</LowerBound>
														<UpperBound>32767</UpperBound>
														<value>-91445760000000000,0.,0,0,0,0,0,0</value>
													</parameter>
												</effect>
											</filter>
											<logginginfo>
												<description></description>
												<scene></scene>
												<shottake></shottake>
												<lognote></lognote>
												<good></good>
												<originalvideofilename></originalvideofilename>
												<originalaudiofilename></originalaudiofilename>
											</logginginfo>
											<colorinfo>
												<lut></lut>
												<lut1></lut1>
												<asc_sop></asc_sop>
												<asc_sat></asc_sat>
												<lut2></lut2>
											</colorinfo>
										</clipitem>
										<transitionitem>
											<start>328</start>
											<end>350</end>
											<alignment>end-black</alignment>
											<cutPointTicks>223534080000</cutPointTicks>
											<rate>
												<timebase>25</timebase>
												<ntsc>FALSE</ntsc>
											</rate>
											<effect>
												<name>Edge Wipe</name>
												<effectid>Edge Wipe</effectid>
												<effectcategory>Wipe</effectcategory>
												<effecttype>transition</effecttype>
												<mediatype>video</mediatype>
												<wipecode>2</wipecode>
												<wipeaccuracy>100</wipeaccuracy>
												<startratio>0</startratio>
												<endratio>1</endratio>
												<reverse>FALSE</reverse>
												<parameter authoringApp="PremierePro">
													<parameterid>directionofwipe</parameterid>
													<name>Angle</name>
													<valuemin>-360</valuemin>
													<valuemax>360</valuemax>
													<value>90</value>
												</parameter>
											</effect>
										</transitionitem>
										<enabled>TRUE</enabled>
										<locked>FALSE</locked>
									</track>
								</video>
								<audio>
									<numOutputChannels>2</numOutputChannels>
									<format>
										<samplecharacteristics>
											<depth>16</depth>
											<samplerate>48000</samplerate>
										</samplecharacteristics>
									</format>
									<outputs>
										<group>
											<index>1</index>
											<numchannels>1</numchannels>
											<downmix>0</downmix>
											<channel>
												<index>1</index>
											</channel>
										</group>
										<group>
											<index>2</index>
											<numchannels>1</numchannels>
											<downmix>0</downmix>
											<channel>
												<index>2</index>
											</channel>
										</group>
									</outputs>
									<track TL.SQTrackAudioKeyframeStyle="0" TL.SQTrackShy="0" TL.SQTrackExpandedHeight="25" TL.SQTrackExpanded="0" MZ.TrackTargeted="1" PannerCurrentValue="0.5" PannerStartKeyframe="-91445760000000000,0.5,0,0,0,0,0,0" PannerName="Balance" currentExplodedTrackIndex="0" totalExplodedTrackCount="2" premiereTrackType="Stereo">
										<enabled>TRUE</enabled>
										<locked>FALSE</locked>
										<outputchannelindex>1</outputchannelindex>
									</track>
									<track TL.SQTrackAudioKeyframeStyle="0" TL.SQTrackShy="0" TL.SQTrackExpandedHeight="25" TL.SQTrackExpanded="0" MZ.TrackTargeted="1" PannerCurrentValue="0.5" PannerStartKeyframe="-91445760000000000,0.5,0,0,0,0,0,0" PannerName="Balance" currentExplodedTrackIndex="1" totalExplodedTrackCount="2" premiereTrackType="Stereo">
										<enabled>TRUE</enabled>
										<locked>FALSE</locked>
										<outputchannelindex>2</outputchannelindex>
									</track>
								</audio>
							</media>
							<timecode>
								<rate>
									<timebase>25</timebase>
									<ntsc>FALSE</ntsc>
								</rate>
								<string>00:00:00:00</string>
								<frame>0</frame>
								<displayformat>NDF</displayformat>
							</timecode>
								<marker>
									<comment></comment>
									<name></name>
									<in>125</in>
									<out>-1</out>
									<pproColor>4280578025</pproColor>
								</marker>
							<logginginfo>
								<description></description>
								<scene></scene>
								<shottake></shottake>
								<lognote></lognote>
								<good></good>
								<originalvideofilename></originalvideofilename>
								<originalaudiofilename></originalaudiofilename>
							</logginginfo>
						</sequence>
							<marker>
								<comment></comment>
								<name></name>
								<in>125</in>
								<out>-1</out>
								<pproColor>4280578025</pproColor>
							</marker>
						<labels>
							<label2>Forest</label2>
						</labels>
					</clipitem>
					<clipitem id="clipitem-1785">
						<masterclipid>masterclip-767</masterclipid>
						<name>3</name>
						<enabled>TRUE</enabled>
						<duration>475</duration>
						<rate>
							<timebase>25</timebase>
							<ntsc>FALSE</ntsc>
						</rate>
						<start>53644</start>
						<end>53995</end>
						<in>124</in>
						<out>475</out>
						<pproTicksIn>1259919360000</pproTicksIn>
						<pproTicksOut>4826304000000</pproTicksOut>
						<sequence id="sequence-142"/>
							<marker>
								<comment></comment>
								<name></name>
								<in>125</in>
								<out>-1</out>
								<pproColor>4280578025</pproColor>
							</marker>
						<labels>
							<label2>Forest</label2>
						</labels>
					</clipitem>
					<clipitem id="clipitem-1786">
						<masterclipid>masterclip-720</masterclipid>
						<name>титр</name>
						<enabled>TRUE</enabled>
						<duration>225</duration>
						<rate>
							<timebase>25</timebase>
							<ntsc>FALSE</ntsc>
						</rate>
						<start>54055</start>
						<end>54226</end>
						<in>0</in>
						<out>171</out>
						<pproTicksIn>0</pproTicksIn>
						<pproTicksOut>1737469440000</pproTicksOut>
						<sequence id="sequence-132"/>
						<filter>
							<effect>
								<name>Opacity</name>
								<effectid>opacity</effectid>
								<effectcategory>motion</effectcategory>
								<effecttype>motion</effecttype>
								<mediatype>video</mediatype>
								<pproBypass>false</pproBypass>
								<parameter authoringApp="PremierePro">
									<parameterid>opacity</parameterid>
									<name>opacity</name>
									<valuemin>0</valuemin>
									<valuemax>100</valuemax>
									<value>100</value>
								</parameter>
							</effect>
						</filter>
							<marker>
								<comment></comment>
								<name></name>
								<in>57</in>
								<out>-1</out>
								<pproColor>4294741314</pproColor>
							</marker>
						<labels>
							<label2>Forest</label2>
						</labels>
					</clipitem>
					<clipitem id="clipitem-1787">
						<masterclipid>masterclip-772</masterclipid>
						<name>2_TITLE</name>
						<enabled>TRUE</enabled>
						<duration>475</duration>
						<rate>
							<timebase>25</timebase>
							<ntsc>FALSE</ntsc>
						</rate>
						<start>54664</start>
						<end>55014</end>
						<in>0</in>
						<out>475</out>
						<pproTicksIn>0</pproTicksIn>
						<pproTicksOut>4826304000000</pproTicksOut>
						<sequence id="sequence-143" TL.SQAudioVisibleBase="0" TL.SQVideoVisibleBase="0" TL.SQVisibleBaseTime="0" TL.SQAVDividerPosition="0.5" TL.SQHideShyTracks="0" TL.SQHeaderWidth="236" TL.SQDataTrackViewControlState="0" Monitor.ProgramZoomOut="4826304000000" Monitor.ProgramZoomIn="0" TL.SQTimePerPixel="0.024999999999999998" AM.TrackVScrollPosition="0" AM.TrackScrollPosition="0" MZ.EditLine="1473292800000" MZ.Sequence.PreviewFrameSizeHeight="576" MZ.Sequence.PreviewFrameSizeWidth="720" MZ.Sequence.AudioTimeDisplayFormat="200" MZ.Sequence.PreviewRenderingClassID="1061109567" MZ.Sequence.PreviewRenderingPresetCodec="1685480304" MZ.Sequence.PreviewRenderingPresetPath="EncoderPresets/SequencePreview/04be6e19-a018-4e0c-a9d6-0ab44c64752b/QuickTime DV PAL.epr" MZ.Sequence.PreviewUseMaxRenderQuality="false" MZ.Sequence.PreviewUseMaxBitDepth="false" MZ.Sequence.EditingModeGUID="04be6e19-a018-4e0c-a9d6-0ab44c64752b" MZ.Sequence.VideoTimeDisplayFormat="101" MZ.WorkOutPoint="4826304000000" MZ.WorkInPoint="0" MZ.ZeroPoint="0">
							<duration>475</duration>
							<rate>
								<timebase>25</timebase>
								<ntsc>FALSE</ntsc>
							</rate>
							<name>титр</name>
							<media>
								<video>
									<format>
										<samplecharacteristics>
											<rate>
												<timebase>25</timebase>
												<ntsc>FALSE</ntsc>
											</rate>
											<codec>
												<name>Apple ProRes 422</name>
												<appspecificdata>
													<appname>Final Cut Pro</appname>
													<appmanufacturer>Apple Inc.</appmanufacturer>
													<appversion>7.0</appversion>
													<data>
														<qtcodec>
															<codecname>Apple ProRes 422</codecname>
															<codectypename>Apple ProRes 422</codectypename>
															<codectypecode>apcn</codectypecode>
															<codecvendorcode>appl</codecvendorcode>
															<spatialquality>1024</spatialquality>
															<temporalquality>0</temporalquality>
															<keyframerate>0</keyframerate>
															<datarate>0</datarate>
														</qtcodec>
													</data>
												</appspecificdata>
											</codec>
											<width>720</width>
											<height>576</height>
											<anamorphic>TRUE</anamorphic>
											<pixelaspectratio>PAL-601</pixelaspectratio>
											<fielddominance>lower</fielddominance>
											<colordepth>24</colordepth>
										</samplecharacteristics>
									</format>
									<track TL.SQTrackShy="0" TL.SQTrackExpandedHeight="25" TL.SQTrackExpanded="0" MZ.TrackTargeted="1">
										<clipitem id="clipitem-1788">
											<masterclipid>masterclip-773</masterclipid>
											<name>9_title.mov</name>
											<enabled>TRUE</enabled>
											<duration>225</duration>
											<rate>
												<timebase>25</timebase>
												<ntsc>FALSE</ntsc>
											</rate>
											<start>125</start>
											<end>350</end>
											<in>0</in>
											<out>225</out>
											<pproTicksIn>0</pproTicksIn>
											<pproTicksOut>2286144000000</pproTicksOut>
											<alphatype>straight</alphatype>
											<pixelaspectratio>square</pixelaspectratio>
											<anamorphic>FALSE</anamorphic>
											<file id="file-640">
												<name>2_title.mov</name>
												<pathurl>file://localhost/_MUZ_TV/graphika/RU-21/MOD/title_plashka/2_title.mov</pathurl>
												<rate>
													<timebase>25</timebase>
													<ntsc>FALSE</ntsc>
												</rate>
												<duration>225</duration>
												<timecode>
													<rate>
														<timebase>25</timebase>
														<ntsc>FALSE</ntsc>
													</rate>
													<string>00:01:12:00</string>
													<frame>1800</frame>
													<displayformat>NDF</displayformat>
												</timecode>
												<media>
													<video>
														<samplecharacteristics>
															<rate>
																<timebase>25</timebase>
																<ntsc>FALSE</ntsc>
															</rate>
															<width>1920</width>
															<height>1080</height>
															<anamorphic>FALSE</anamorphic>
															<pixelaspectratio>square</pixelaspectratio>
															<fielddominance>none</fielddominance>
														</samplecharacteristics>
													</video>
												</media>
											</file>
											<filter>
												<effect>
													<name>Basic Motion</name>
													<effectid>basic</effectid>
													<effectcategory>motion</effectcategory>
													<effecttype>motion</effecttype>
													<mediatype>video</mediatype>
													<pproBypass>false</pproBypass>
													<parameter authoringApp="PremierePro">
														<parameterid>scale</parameterid>
														<name>Scale</name>
														<valuemin>0</valuemin>
														<valuemax>1000</valuemax>
														<value>55</value>
													</parameter>
													<parameter authoringApp="PremierePro">
														<parameterid>rotation</parameterid>
														<name>Rotation</name>
														<valuemin>-8640</valuemin>
														<valuemax>8640</valuemax>
														<value>0</value>
													</parameter>
													<parameter authoringApp="PremierePro">
														<parameterid>center</parameterid>
														<name>Center</name>
														<value>
															<horiz>0</horiz>
															<vert>0</vert>
														</value>
													</parameter>
													<parameter authoringApp="PremierePro">
														<parameterid>centerOffset</parameterid>
														<name>Anchor Point</name>
														<value>
															<horiz>0</horiz>
															<vert>0</vert>
														</value>
													</parameter>
													<parameter authoringApp="PremierePro">
														<parameterid>antiflicker</parameterid>
														<name>Anti-flicker Filter</name>
														<valuemin>0.0</valuemin>
														<valuemax>1.0</valuemax>
														<value>0</value>
													</parameter>
												</effect>
											</filter>
											<filter>
												<effect>
													<name>Distort</name>
													<effectid>deformation</effectid>
													<effectcategory>motion</effectcategory>
													<effecttype>motion</effecttype>
													<mediatype>video</mediatype>
													<parameter authoringApp="PremierePro">
														<parameterid>aspect</parameterid>
														<name>Aspect</name>
														<valuemin>-10000</valuemin>
														<valuemax>10000</valuemax>
														<value>-3.12506</value>
													</parameter>
												</effect>
											</filter>
											<logginginfo>
												<description></description>
												<scene></scene>
												<shottake></shottake>
												<lognote></lognote>
												<good></good>
												<originalvideofilename></originalvideofilename>
												<originalaudiofilename></originalaudiofilename>
											</logginginfo>
											<colorinfo>
												<lut></lut>
												<lut1></lut1>
												<asc_sop></asc_sop>
												<asc_sat></asc_sat>
												<lut2></lut2>
											</colorinfo>
											<labels>
												<label2>Violet</label2>
											</labels>
										</clipitem>
										<clipitem id="clipitem-1789">
											<masterclipid>masterclip-774</masterclipid>
											<name>Graphic</name>
											<enabled>FALSE</enabled>
											<duration>1080000</duration>
											<rate>
												<timebase>25</timebase>
												<ntsc>FALSE</ntsc>
											</rate>
											<start>350</start>
											<end>475</end>
											<in>90000</in>
											<out>90125</out>
											<pproTicksIn>914457600000000</pproTicksIn>
											<pproTicksOut>915727680000000</pproTicksOut>
											<alphatype>straight</alphatype>
											<pixelaspectratio>PAL-601</pixelaspectratio>
											<anamorphic>TRUE</anamorphic>
											<file id="file-641">
												<name>Graphic</name>
												<mediaSource>GraphicAndType</mediaSource>
												<rate>
													<timebase>30</timebase>
													<ntsc>TRUE</ntsc>
												</rate>
												<timecode>
													<rate>
														<timebase>30</timebase>
														<ntsc>TRUE</ntsc>
													</rate>
													<string>00;00;00;00</string>
													<frame>0</frame>
													<displayformat>DF</displayformat>
												</timecode>
												<media>
													<video>
														<samplecharacteristics>
															<rate>
																<timebase>30</timebase>
																<ntsc>TRUE</ntsc>
															</rate>
															<width>720</width>
															<height>576</height>
															<anamorphic>TRUE</anamorphic>
															<pixelaspectratio>PAL-601</pixelaspectratio>
															<fielddominance>none</fielddominance>
														</samplecharacteristics>
													</video>
												</media>
											</file>
											<filter>
												<effect>
													<name>Basic Motion</name>
													<effectid>basic</effectid>
													<effectcategory>motion</effectcategory>
													<effecttype>motion</effecttype>
													<mediatype>video</mediatype>
													<pproBypass>false</pproBypass>
													<parameter authoringApp="PremierePro">
														<parameterid>scale</parameterid>
														<name>Scale</name>
														<valuemin>0</valuemin>
														<valuemax>1000</valuemax>
														<value>133.333</value>
													</parameter>
													<parameter authoringApp="PremierePro">
														<parameterid>rotation</parameterid>
														<name>Rotation</name>
														<valuemin>-8640</valuemin>
														<valuemax>8640</valuemax>
														<value>0</value>
													</parameter>
													<parameter authoringApp="PremierePro">
														<parameterid>center</parameterid>
														<name>Center</name>
														<value>
															<horiz>0</horiz>
															<vert>0</vert>
														</value>
													</parameter>
													<parameter authoringApp="PremierePro">
														<parameterid>centerOffset</parameterid>
														<name>Anchor Point</name>
														<value>
															<horiz>0</horiz>
															<vert>0</vert>
														</value>
													</parameter>
													<parameter authoringApp="PremierePro">
														<parameterid>antiflicker</parameterid>
														<name>Anti-flicker Filter</name>
														<valuemin>0.0</valuemin>
														<valuemax>1.0</valuemax>
														<value>0</value>
													</parameter>
												</effect>
											</filter>
											<filter>
												<effect>
													<name>Distort</name>
													<effectid>deformation</effectid>
													<effectcategory>motion</effectcategory>
													<effecttype>motion</effecttype>
													<mediatype>video</mediatype>
													<parameter authoringApp="PremierePro">
														<parameterid>aspect</parameterid>
														<name>Aspect</name>
														<valuemin>-10000</valuemin>
														<valuemax>10000</valuemax>
														<value>-33.333</value>
													</parameter>
												</effect>
											</filter>
											<filter>
												<effect>
													<name></name>
													<effectid>GraphicAndType</effectid>
													<effectcategory>graphic</effectcategory>
													<effecttype>filter</effecttype>
													<mediatype>video</mediatype>
													<pproBypass>false</pproBypass>
													<parameter authoringApp="PremierePro">
														<parameterid>1</parameterid>
														<name>Source Text</name>
														<hash>3f0faa81-c1b0-8370-b66c-fa0b000009f1</hash>
													</parameter>
													<parameter authoringApp="PremierePro">
														<parameterid>2</parameterid>
														<name>Transform</name>
														<IsTimeVarying>false</IsTimeVarying>
														<ParameterControlType>11</ParameterControlType>
														<LowerBound>false</LowerBound>
														<UpperBound>false</UpperBound>
														<value>-91445760000000000,false,0,0,0,0,0,0</value>
													</parameter>
													<parameter authoringApp="PremierePro">
														<parameterid>3</parameterid>
														<name>Position</name>
														<IsTimeVarying>false</IsTimeVarying>
														<value>-91445760000000000,0.55605381727218628:0.73039215803146362,0,0,0,0,0,0,5,4,0,0,0,0</value>
													</parameter>
													<parameter authoringApp="PremierePro">
														<parameterid>4</parameterid>
														<name>Scale</name>
														<IsTimeVarying>false</IsTimeVarying>
														<ParameterControlType>2</ParameterControlType>
														<LowerBound>0</LowerBound>
														<UpperBound>4000</UpperBound>
														<value>-91445760000000000,100.,0,0,0,0,0,0</value>
													</parameter>
													<parameter authoringApp="PremierePro">
														<parameterid>5</parameterid>
														<name>Horizontal Scale</name>
														<IsTimeVarying>false</IsTimeVarying>
														<ParameterControlType>2</ParameterControlType>
														<LowerBound>0</LowerBound>
														<UpperBound>4000</UpperBound>
														<value>-91445760000000000,100.,0,0,0,0,0,0</value>
													</parameter>
													<parameter authoringApp="PremierePro">
														<parameterid>6</parameterid>
														<name> </name>
														<IsTimeVarying>false</IsTimeVarying>
														<ParameterControlType>4</ParameterControlType>
														<LowerBound>false</LowerBound>
														<UpperBound>true</UpperBound>
														<value>-91445760000000000,true,0,0,0,0,0,0</value>
													</parameter>
													<parameter authoringApp="PremierePro">
														<parameterid>7</parameterid>
														<name>Rotation</name>
														<IsTimeVarying>false</IsTimeVarying>
														<ParameterControlType>3</ParameterControlType>
														<LowerBound>-32768</LowerBound>
														<UpperBound>32767</UpperBound>
														<value>-91445760000000000,0.,0,0,0,0,0,0</value>
													</parameter>
													<parameter authoringApp="PremierePro">
														<parameterid>8</parameterid>
														<name>Opacity</name>
														<IsTimeVarying>false</IsTimeVarying>
														<ParameterControlType>2</ParameterControlType>
														<LowerBound>0</LowerBound>
														<UpperBound>100</UpperBound>
														<value>-91445760000000000,100.,0,0,0,0,0,0</value>
													</parameter>
													<parameter authoringApp="PremierePro">
														<parameterid>9</parameterid>
														<name>Anchor Point</name>
														<IsTimeVarying>false</IsTimeVarying>
														<value>-91445760000000000,0:0,0,0,0,0,0,0,5,4,0,0,0,0</value>
													</parameter>
													<parameter authoringApp="PremierePro">
														<parameterid>10</parameterid>
														<name></name>
														<IsTimeVarying>false</IsTimeVarying>
														<ParameterControlType>12</ParameterControlType>
														<LowerBound>false</LowerBound>
														<UpperBound>false</UpperBound>
														<value>-91445760000000000,false,0,0,0,0,0,0</value>
													</parameter>
													<parameter authoringApp="PremierePro">
														<parameterid>11</parameterid>
														<name> </name>
														<IsTimeVarying>false</IsTimeVarying>
														<ParameterControlType>8</ParameterControlType>
														<LowerBound>0</LowerBound>
														<UpperBound>32768</UpperBound>
														<value>-91445760000000000,0.,0,0,0,0,0,0</value>
													</parameter>
													<parameter authoringApp="PremierePro">
														<parameterid>12</parameterid>
														<name> </name>
														<IsTimeVarying>false</IsTimeVarying>
														<ParameterControlType>8</ParameterControlType>
														<LowerBound>0</LowerBound>
														<UpperBound>32768</UpperBound>
														<value>-91445760000000000,0.,0,0,0,0,0,0</value>
													</parameter>
													<parameter authoringApp="PremierePro">
														<parameterid>13</parameterid>
														<name>start</name>
														<IsTimeVarying>false</IsTimeVarying>
														<ParameterControlType>8</ParameterControlType>
														<LowerBound>-100</LowerBound>
														<UpperBound>1000000000</UpperBound>
														<value>-91445760000000000,0.,0,0,0,0,0,0</value>
													</parameter>
													<parameter authoringApp="PremierePro">
														<parameterid>14</parameterid>
														<name>end</name>
														<IsTimeVarying>false</IsTimeVarying>
														<ParameterControlType>8</ParameterControlType>
														<LowerBound>-100</LowerBound>
														<UpperBound>1000000000</UpperBound>
														<value>-91445760000000000,0.,0,0,0,0,0,0</value>
													</parameter>
													<parameter authoringApp="PremierePro">
														<parameterid>15</parameterid>
														<name> </name>
														<IsTimeVarying>false</IsTimeVarying>
														<ParameterControlType>4</ParameterControlType>
														<LowerBound>false</LowerBound>
														<UpperBound>true</UpperBound>
														<value>-91445760000000000,false,0,0,0,0,0,0</value>
													</parameter>
													<parameter authoringApp="PremierePro">
														<parameterid>16</parameterid>
														<name> </name>
														<IsTimeVarying>false</IsTimeVarying>
														<ParameterControlType>4</ParameterControlType>
														<LowerBound>false</LowerBound>
														<UpperBound>true</UpperBound>
														<value>-91445760000000000,false,0,0,0,0,0,0</value>
													</parameter>
													<parameter authoringApp="PremierePro">
														<parameterid>17</parameterid>
														<name> </name>
														<IsTimeVarying>false</IsTimeVarying>
														<ParameterControlType>4</ParameterControlType>
														<LowerBound>false</LowerBound>
														<UpperBound>true</UpperBound>
														<value>-91445760000000000,false,0,0,0,0,0,0</value>
													</parameter>
													<parameter authoringApp="PremierePro">
														<parameterid>18</parameterid>
														<name> </name>
														<IsTimeVarying>false</IsTimeVarying>
														<ParameterControlType>4</ParameterControlType>
														<LowerBound>false</LowerBound>
														<UpperBound>true</UpperBound>
														<value>-91445760000000000,false,0,0,0,0,0,0</value>
													</parameter>
													<parameter authoringApp="PremierePro">
														<parameterid>19</parameterid>
														<name>Parent Width</name>
														<IsTimeVarying>false</IsTimeVarying>
														<ParameterControlType>2</ParameterControlType>
														<LowerBound>0</LowerBound>
														<UpperBound>20000</UpperBound>
														<value>-91445760000000000,0.,0,0,0,0,0,0</value>
													</parameter>
													<parameter authoringApp="PremierePro">
														<parameterid>20</parameterid>
														<name>Parent Height</name>
														<IsTimeVarying>false</IsTimeVarying>
														<ParameterControlType>2</ParameterControlType>
														<LowerBound>0</LowerBound>
														<UpperBound>20000</UpperBound>
														<value>-91445760000000000,0.,0,0,0,0,0,0</value>
													</parameter>
													<parameter authoringApp="PremierePro">
														<parameterid>21</parameterid>
														<name>Parent Rotation</name>
														<IsTimeVarying>false</IsTimeVarying>
														<ParameterControlType>3</ParameterControlType>
														<LowerBound>-32768</LowerBound>
														<UpperBound>32767</UpperBound>
														<value>-91445760000000000,0.,0,0,0,0,0,0</value>
													</parameter>
												</effect>
											</filter>
											<logginginfo>
												<description></description>
												<scene></scene>
												<shottake></shottake>
												<lognote></lognote>
												<good></good>
												<originalvideofilename></originalvideofilename>
												<originalaudiofilename></originalaudiofilename>
											</logginginfo>
											<colorinfo>
												<lut></lut>
												<lut1></lut1>
												<asc_sop></asc_sop>
												<asc_sat></asc_sat>
												<lut2></lut2>
											</colorinfo>
										</clipitem>
										<enabled>TRUE</enabled>
										<locked>FALSE</locked>
									</track>
									<track TL.SQTrackShy="0" TL.SQTrackExpandedHeight="25" TL.SQTrackExpanded="0" MZ.TrackTargeted="0">
										<transitionitem>
											<start>167</start>
											<end>224</end>
											<alignment>start-black</alignment>
											<cutPointTicks>0</cutPointTicks>
											<rate>
												<timebase>25</timebase>
												<ntsc>FALSE</ntsc>
											</rate>
											<effect>
												<name>Edge Wipe</name>
												<effectid>Edge Wipe</effectid>
												<effectcategory>Wipe</effectcategory>
												<effecttype>transition</effecttype>
												<mediatype>video</mediatype>
												<wipecode>2</wipecode>
												<wipeaccuracy>100</wipeaccuracy>
												<startratio>0</startratio>
												<endratio>1</endratio>
												<reverse>FALSE</reverse>
												<parameter authoringApp="PremierePro">
													<parameterid>directionofwipe</parameterid>
													<name>Angle</name>
													<valuemin>-360</valuemin>
													<valuemax>360</valuemax>
													<value>90</value>
												</parameter>
											</effect>
										</transitionitem>
										<clipitem id="clipitem-1790">
											<masterclipid>masterclip-775</masterclipid>
											<name>9.png</name>
											<enabled>TRUE</enabled>
											<duration>1080000</duration>
											<rate>
												<timebase>25</timebase>
												<ntsc>FALSE</ntsc>
											</rate>
											<start>-1</start>
											<end>-1</end>
											<in>90042</in>
											<out>90225</out>
											<pproTicksIn>914884346880000</pproTicksIn>
											<pproTicksOut>916743744000000</pproTicksOut>
											<alphatype>straight</alphatype>
											<pixelaspectratio>square</pixelaspectratio>
											<anamorphic>FALSE</anamorphic>
											<file id="file-642">
												<name>2.png</name>
												<pathurl>file://localhost/_MUZ_TV/project_AP/RU/_TITLE/469/2.png</pathurl>
												<rate>
													<timebase>30</timebase>
													<ntsc>TRUE</ntsc>
												</rate>
												<timecode>
													<rate>
														<timebase>30</timebase>
														<ntsc>TRUE</ntsc>
													</rate>
													<string>00;00;00;00</string>
													<frame>0</frame>
													<displayformat>DF</displayformat>
												</timecode>
												<media>
													<video>
														<samplecharacteristics>
															<rate>
																<timebase>30</timebase>
																<ntsc>TRUE</ntsc>
															</rate>
															<width>1920</width>
															<height>1080</height>
															<anamorphic>FALSE</anamorphic>
															<pixelaspectratio>square</pixelaspectratio>
															<fielddominance>none</fielddominance>
														</samplecharacteristics>
													</video>
												</media>
											</file>
											<filter>
												<effect>
													<name>Basic Motion</name>
													<effectid>basic</effectid>
													<effectcategory>motion</effectcategory>
													<effecttype>motion</effecttype>
													<mediatype>video</mediatype>
													<pproBypass>false</pproBypass>
													<parameter authoringApp="PremierePro">
														<parameterid>scale</parameterid>
														<name>Scale</name>
														<valuemin>0</valuemin>
														<valuemax>1000</valuemax>
														<value>53.3333</value>
													</parameter>
													<parameter authoringApp="PremierePro">
														<parameterid>rotation</parameterid>
														<name>Rotation</name>
														<valuemin>-8640</valuemin>
														<valuemax>8640</valuemax>
														<value>0</value>
													</parameter>
													<parameter authoringApp="PremierePro">
														<parameterid>center</parameterid>
														<name>Center</name>
														<value>
															<horiz>0</horiz>
															<vert>0</vert>
														</value>
													</parameter>
													<parameter authoringApp="PremierePro">
														<parameterid>centerOffset</parameterid>
														<name>Anchor Point</name>
														<value>
															<horiz>0</horiz>
															<vert>0</vert>
														</value>
													</parameter>
													<parameter authoringApp="PremierePro">
														<parameterid>antiflicker</parameterid>
														<name>Anti-flicker Filter</name>
														<valuemin>0.0</valuemin>
														<valuemax>1.0</valuemax>
														<value>0</value>
													</parameter>
												</effect>
											</filter>
											<logginginfo>
												<description></description>
												<scene></scene>
												<shottake></shottake>
												<lognote></lognote>
												<good></good>
												<originalvideofilename></originalvideofilename>
												<originalaudiofilename></originalaudiofilename>
											</logginginfo>
											<colorinfo>
												<lut></lut>
												<lut1></lut1>
												<asc_sop></asc_sop>
												<asc_sat></asc_sat>
												<lut2></lut2>
											</colorinfo>
											<labels>
												<label2>Lavender</label2>
											</labels>
										</clipitem>
										<transitionitem>
											<start>328</start>
											<end>350</end>
											<alignment>end-black</alignment>
											<cutPointTicks>223534080000</cutPointTicks>
											<rate>
												<timebase>25</timebase>
												<ntsc>FALSE</ntsc>
											</rate>
											<effect>
												<name>Edge Wipe</name>
												<effectid>Edge Wipe</effectid>
												<effectcategory>Wipe</effectcategory>
												<effecttype>transition</effecttype>
												<mediatype>video</mediatype>
												<wipecode>2</wipecode>
												<wipeaccuracy>100</wipeaccuracy>
												<startratio>0</startratio>
												<endratio>1</endratio>
												<reverse>FALSE</reverse>
												<parameter authoringApp="PremierePro">
													<parameterid>directionofwipe</parameterid>
													<name>Angle</name>
													<valuemin>-360</valuemin>
													<valuemax>360</valuemax>
													<value>90</value>
												</parameter>
											</effect>
										</transitionitem>
										<enabled>TRUE</enabled>
										<locked>FALSE</locked>
									</track>
									<track TL.SQTrackShy="0" TL.SQTrackExpandedHeight="25" TL.SQTrackExpanded="0" MZ.TrackTargeted="0">
										<transitionitem>
											<start>167</start>
											<end>224</end>
											<alignment>start-black</alignment>
											<cutPointTicks>0</cutPointTicks>
											<rate>
												<timebase>25</timebase>
												<ntsc>FALSE</ntsc>
											</rate>
											<effect>
												<name>Edge Wipe</name>
												<effectid>Edge Wipe</effectid>
												<effectcategory>Wipe</effectcategory>
												<effecttype>transition</effecttype>
												<mediatype>video</mediatype>
												<wipecode>2</wipecode>
												<wipeaccuracy>100</wipeaccuracy>
												<startratio>0</startratio>
												<endratio>1</endratio>
												<reverse>FALSE</reverse>
												<parameter authoringApp="PremierePro">
													<parameterid>directionofwipe</parameterid>
													<name>Angle</name>
													<valuemin>-360</valuemin>
													<valuemax>360</valuemax>
													<value>90</value>
												</parameter>
											</effect>
										</transitionitem>
										<clipitem id="clipitem-1791">
											<masterclipid>masterclip-776</masterclipid>
											<name>Graphic</name>
											<enabled>FALSE</enabled>
											<duration>1080000</duration>
											<rate>
												<timebase>25</timebase>
												<ntsc>FALSE</ntsc>
											</rate>
											<start>-1</start>
											<end>-1</end>
											<in>89998</in>
											<out>90181</out>
											<pproTicksIn>914437278720000</pproTicksIn>
											<pproTicksOut>916296675840000</pproTicksOut>
											<alphatype>straight</alphatype>
											<pixelaspectratio>PAL-601</pixelaspectratio>
											<anamorphic>TRUE</anamorphic>
											<file id="file-643">
												<name>Graphic</name>
												<mediaSource>GraphicAndType</mediaSource>
												<rate>
													<timebase>30</timebase>
													<ntsc>TRUE</ntsc>
												</rate>
												<timecode>
													<rate>
														<timebase>30</timebase>
														<ntsc>TRUE</ntsc>
													</rate>
													<string>00;00;00;00</string>
													<frame>0</frame>
													<displayformat>DF</displayformat>
												</timecode>
												<media>
													<video>
														<samplecharacteristics>
															<rate>
																<timebase>30</timebase>
																<ntsc>TRUE</ntsc>
															</rate>
															<width>720</width>
															<height>576</height>
															<anamorphic>TRUE</anamorphic>
															<pixelaspectratio>PAL-601</pixelaspectratio>
															<fielddominance>none</fielddominance>
														</samplecharacteristics>
													</video>
												</media>
											</file>
											<filter>
												<effect>
													<name>АРТУР ПИРОЖКОВ&#13;ЛЕТОМ НА ФИЕСТЕ</name>
													<effectid>GraphicAndType</effectid>
													<effectcategory>graphic</effectcategory>
													<effecttype>filter</effecttype>
													<mediatype>video</mediatype>
													<pproBypass>false</pproBypass>
													<pproExpanded>true</pproExpanded>
													<parameter authoringApp="PremierePro">
														<parameterid>1</parameterid>
														<name>Source Text</name>
														<hash>dc092258-f6b9-fd91-a76f-c3e700000476</hash>
													</parameter>
													<parameter authoringApp="PremierePro">
														<parameterid>2</parameterid>
														<name>Transform</name>
														<IsTimeVarying>false</IsTimeVarying>
														<ParameterControlType>11</ParameterControlType>
														<LowerBound>false</LowerBound>
														<UpperBound>false</UpperBound>
														<value>-91445760000000000,false,0,0,0,0,0,0</value>
													</parameter>
													<parameter authoringApp="PremierePro">
														<parameterid>3</parameterid>
														<name>Position</name>
														<IsTimeVarying>false</IsTimeVarying>
														<value>-91445760000000000,0.36944580078125:0.86468505859375,0,0,0,0,0,0,5,4,0,0,0,0</value>
													</parameter>
													<parameter authoringApp="PremierePro">
														<parameterid>4</parameterid>
														<name>Scale</name>
														<IsTimeVarying>false</IsTimeVarying>
														<ParameterControlType>2</ParameterControlType>
														<LowerBound>0</LowerBound>
														<UpperBound>4000</UpperBound>
														<value>-91445760000000000,100.,0,0,0,0,0,0</value>
													</parameter>
													<parameter authoringApp="PremierePro">
														<parameterid>5</parameterid>
														<name>Horizontal Scale</name>
														<IsTimeVarying>false</IsTimeVarying>
														<ParameterControlType>2</ParameterControlType>
														<LowerBound>0</LowerBound>
														<UpperBound>4000</UpperBound>
														<value>-91445760000000000,100.,0,0,0,0,0,0</value>
													</parameter>
													<parameter authoringApp="PremierePro">
														<parameterid>6</parameterid>
														<name> </name>
														<IsTimeVarying>false</IsTimeVarying>
														<ParameterControlType>4</ParameterControlType>
														<LowerBound>false</LowerBound>
														<UpperBound>true</UpperBound>
														<value>-91445760000000000,true,0,0,0,0,0,0</value>
													</parameter>
													<parameter authoringApp="PremierePro">
														<parameterid>7</parameterid>
														<name>Rotation</name>
														<IsTimeVarying>false</IsTimeVarying>
														<ParameterControlType>3</ParameterControlType>
														<LowerBound>-32768</LowerBound>
														<UpperBound>32767</UpperBound>
														<value>-91445760000000000,0.,0,0,0,0,0,0</value>
													</parameter>
													<parameter authoringApp="PremierePro">
														<parameterid>8</parameterid>
														<name>Opacity</name>
														<IsTimeVarying>false</IsTimeVarying>
														<ParameterControlType>2</ParameterControlType>
														<LowerBound>0</LowerBound>
														<UpperBound>100</UpperBound>
														<value>-91445760000000000,100.,0,0,0,0,0,0</value>
													</parameter>
													<parameter authoringApp="PremierePro">
														<parameterid>9</parameterid>
														<name>Anchor Point</name>
														<IsTimeVarying>false</IsTimeVarying>
														<value>-91445760000000000,0:0,0,0,0,0,0,0,5,4,0,0,0,0</value>
													</parameter>
													<parameter authoringApp="PremierePro">
														<parameterid>10</parameterid>
														<name></name>
														<IsTimeVarying>false</IsTimeVarying>
														<ParameterControlType>12</ParameterControlType>
														<LowerBound>false</LowerBound>
														<UpperBound>false</UpperBound>
														<value>-91445760000000000,false,0,0,0,0,0,0</value>
													</parameter>
													<parameter authoringApp="PremierePro">
														<parameterid>11</parameterid>
														<name> </name>
														<IsTimeVarying>false</IsTimeVarying>
														<ParameterControlType>8</ParameterControlType>
														<LowerBound>0</LowerBound>
														<UpperBound>32768</UpperBound>
														<value>-91445760000000000,0.,0,0,0,0,0,0</value>
													</parameter>
													<parameter authoringApp="PremierePro">
														<parameterid>12</parameterid>
														<name> </name>
														<IsTimeVarying>false</IsTimeVarying>
														<ParameterControlType>8</ParameterControlType>
														<LowerBound>0</LowerBound>
														<UpperBound>32768</UpperBound>
														<value>-91445760000000000,0.,0,0,0,0,0,0</value>
													</parameter>
													<parameter authoringApp="PremierePro">
														<parameterid>13</parameterid>
														<name>start</name>
														<IsTimeVarying>false</IsTimeVarying>
														<ParameterControlType>8</ParameterControlType>
														<LowerBound>-100</LowerBound>
														<UpperBound>1000000000</UpperBound>
														<value>-91445760000000000,30.,0,0,0,0,0,0</value>
													</parameter>
													<parameter authoringApp="PremierePro">
														<parameterid>14</parameterid>
														<name>end</name>
														<IsTimeVarying>false</IsTimeVarying>
														<ParameterControlType>8</ParameterControlType>
														<LowerBound>-100</LowerBound>
														<UpperBound>1000000000</UpperBound>
														<value>-91445760000000000,30.,0,0,0,0,0,0</value>
													</parameter>
													<parameter authoringApp="PremierePro">
														<parameterid>15</parameterid>
														<name> </name>
														<IsTimeVarying>false</IsTimeVarying>
														<ParameterControlType>4</ParameterControlType>
														<LowerBound>false</LowerBound>
														<UpperBound>true</UpperBound>
														<value>-91445760000000000,false,0,0,0,0,0,0</value>
													</parameter>
													<parameter authoringApp="PremierePro">
														<parameterid>16</parameterid>
														<name> </name>
														<IsTimeVarying>false</IsTimeVarying>
														<ParameterControlType>4</ParameterControlType>
														<LowerBound>false</LowerBound>
														<UpperBound>true</UpperBound>
														<value>-91445760000000000,false,0,0,0,0,0,0</value>
													</parameter>
													<parameter authoringApp="PremierePro">
														<parameterid>17</parameterid>
														<name> </name>
														<IsTimeVarying>false</IsTimeVarying>
														<ParameterControlType>4</ParameterControlType>
														<LowerBound>false</LowerBound>
														<UpperBound>true</UpperBound>
														<value>-91445760000000000,false,0,0,0,0,0,0</value>
													</parameter>
													<parameter authoringApp="PremierePro">
														<parameterid>18</parameterid>
														<name> </name>
														<IsTimeVarying>false</IsTimeVarying>
														<ParameterControlType>4</ParameterControlType>
														<LowerBound>false</LowerBound>
														<UpperBound>true</UpperBound>
														<value>-91445760000000000,false,0,0,0,0,0,0</value>
													</parameter>
													<parameter authoringApp="PremierePro">
														<parameterid>19</parameterid>
														<name>Parent Width</name>
														<IsTimeVarying>false</IsTimeVarying>
														<ParameterControlType>2</ParameterControlType>
														<LowerBound>0</LowerBound>
														<UpperBound>20000</UpperBound>
														<value>-91445760000000000,0.,0,0,0,0,0,0</value>
													</parameter>
													<parameter authoringApp="PremierePro">
														<parameterid>20</parameterid>
														<name>Parent Height</name>
														<IsTimeVarying>false</IsTimeVarying>
														<ParameterControlType>2</ParameterControlType>
														<LowerBound>0</LowerBound>
														<UpperBound>20000</UpperBound>
														<value>-91445760000000000,0.,0,0,0,0,0,0</value>
													</parameter>
													<parameter authoringApp="PremierePro">
														<parameterid>21</parameterid>
														<name>Parent Rotation</name>
														<IsTimeVarying>false</IsTimeVarying>
														<ParameterControlType>3</ParameterControlType>
														<LowerBound>-32768</LowerBound>
														<UpperBound>32767</UpperBound>
														<value>-91445760000000000,0.,0,0,0,0,0,0</value>
													</parameter>
												</effect>
											</filter>
											<logginginfo>
												<description></description>
												<scene></scene>
												<shottake></shottake>
												<lognote></lognote>
												<good></good>
												<originalvideofilename></originalvideofilename>
												<originalaudiofilename></originalaudiofilename>
											</logginginfo>
											<colorinfo>
												<lut></lut>
												<lut1></lut1>
												<asc_sop></asc_sop>
												<asc_sat></asc_sat>
												<lut2></lut2>
											</colorinfo>
										</clipitem>
										<transitionitem>
											<start>328</start>
											<end>350</end>
											<alignment>end-black</alignment>
											<cutPointTicks>223534080000</cutPointTicks>
											<rate>
												<timebase>25</timebase>
												<ntsc>FALSE</ntsc>
											</rate>
											<effect>
												<name>Edge Wipe</name>
												<effectid>Edge Wipe</effectid>
												<effectcategory>Wipe</effectcategory>
												<effecttype>transition</effecttype>
												<mediatype>video</mediatype>
												<wipecode>2</wipecode>
												<wipeaccuracy>100</wipeaccuracy>
												<startratio>0</startratio>
												<endratio>1</endratio>
												<reverse>FALSE</reverse>
												<parameter authoringApp="PremierePro">
													<parameterid>directionofwipe</parameterid>
													<name>Angle</name>
													<valuemin>-360</valuemin>
													<valuemax>360</valuemax>
													<value>90</value>
												</parameter>
											</effect>
										</transitionitem>
										<enabled>TRUE</enabled>
										<locked>FALSE</locked>
									</track>
								</video>
								<audio>
									<numOutputChannels>2</numOutputChannels>
									<format>
										<samplecharacteristics>
											<depth>16</depth>
											<samplerate>48000</samplerate>
										</samplecharacteristics>
									</format>
									<outputs>
										<group>
											<index>1</index>
											<numchannels>1</numchannels>
											<downmix>0</downmix>
											<channel>
												<index>1</index>
											</channel>
										</group>
										<group>
											<index>2</index>
											<numchannels>1</numchannels>
											<downmix>0</downmix>
											<channel>
												<index>2</index>
											</channel>
										</group>
									</outputs>
									<track TL.SQTrackAudioKeyframeStyle="0" TL.SQTrackShy="0" TL.SQTrackExpandedHeight="25" TL.SQTrackExpanded="0" MZ.TrackTargeted="1" PannerCurrentValue="0.5" PannerStartKeyframe="-91445760000000000,0.5,0,0,0,0,0,0" PannerName="Balance" currentExplodedTrackIndex="0" totalExplodedTrackCount="2" premiereTrackType="Stereo">
										<enabled>TRUE</enabled>
										<locked>FALSE</locked>
										<outputchannelindex>1</outputchannelindex>
									</track>
									<track TL.SQTrackAudioKeyframeStyle="0" TL.SQTrackShy="0" TL.SQTrackExpandedHeight="25" TL.SQTrackExpanded="0" MZ.TrackTargeted="1" PannerCurrentValue="0.5" PannerStartKeyframe="-91445760000000000,0.5,0,0,0,0,0,0" PannerName="Balance" currentExplodedTrackIndex="1" totalExplodedTrackCount="2" premiereTrackType="Stereo">
										<enabled>TRUE</enabled>
										<locked>FALSE</locked>
										<outputchannelindex>2</outputchannelindex>
									</track>
								</audio>
							</media>
							<timecode>
								<rate>
									<timebase>25</timebase>
									<ntsc>FALSE</ntsc>
								</rate>
								<string>00:00:00:00</string>
								<frame>0</frame>
								<displayformat>NDF</displayformat>
							</timecode>
								<marker>
									<comment></comment>
									<name></name>
									<in>125</in>
									<out>-1</out>
									<pproColor>4280578025</pproColor>
								</marker>
							<logginginfo>
								<description></description>
								<scene></scene>
								<shottake></shottake>
								<lognote></lognote>
								<good></good>
								<originalvideofilename></originalvideofilename>
								<originalaudiofilename></originalaudiofilename>
							</logginginfo>
						</sequence>
							<marker>
								<comment></comment>
								<name></name>
								<in>125</in>
								<out>-1</out>
								<pproColor>4280578025</pproColor>
							</marker>
						<labels>
							<label2>Forest</label2>
						</labels>
					</clipitem>
					<clipitem id="clipitem-1792">
						<masterclipid>masterclip-772</masterclipid>
						<name>2</name>
						<enabled>TRUE</enabled>
						<duration>475</duration>
						<rate>
							<timebase>25</timebase>
							<ntsc>FALSE</ntsc>
						</rate>
						<start>59311</start>
						<end>59662</end>
						<in>124</in>
						<out>475</out>
						<pproTicksIn>1259919360000</pproTicksIn>
						<pproTicksOut>4826304000000</pproTicksOut>
						<sequence id="sequence-143"/>
							<marker>
								<comment></comment>
								<name></name>
								<in>125</in>
								<out>-1</out>
								<pproColor>4280578025</pproColor>
							</marker>
						<labels>
							<label2>Forest</label2>
						</labels>
					</clipitem>
					<clipitem id="clipitem-1793">
						<masterclipid>masterclip-777</masterclipid>
						<name>1_TITLE</name>
						<enabled>TRUE</enabled>
						<duration>475</duration>
						<rate>
							<timebase>25</timebase>
							<ntsc>FALSE</ntsc>
						</rate>
						<start>60361</start>
						<end>60711</end>
						<in>0</in>
						<out>475</out>
						<pproTicksIn>0</pproTicksIn>
						<pproTicksOut>4826304000000</pproTicksOut>
						<sequence id="sequence-144" TL.SQAudioVisibleBase="0" TL.SQVideoVisibleBase="0" TL.SQVisibleBaseTime="0" TL.SQAVDividerPosition="0.5" TL.SQHideShyTracks="0" TL.SQHeaderWidth="236" TL.SQDataTrackViewControlState="0" Monitor.ProgramZoomOut="4826304000000" Monitor.ProgramZoomIn="0" TL.SQTimePerPixel="0.024999999999999998" AM.TrackVScrollPosition="0" AM.TrackScrollPosition="0" MZ.EditLine="1473292800000" MZ.Sequence.PreviewFrameSizeHeight="576" MZ.Sequence.PreviewFrameSizeWidth="720" MZ.Sequence.AudioTimeDisplayFormat="200" MZ.Sequence.PreviewRenderingClassID="1061109567" MZ.Sequence.PreviewRenderingPresetCodec="1685480304" MZ.Sequence.PreviewRenderingPresetPath="EncoderPresets/SequencePreview/04be6e19-a018-4e0c-a9d6-0ab44c64752b/QuickTime DV PAL.epr" MZ.Sequence.PreviewUseMaxRenderQuality="false" MZ.Sequence.PreviewUseMaxBitDepth="false" MZ.Sequence.EditingModeGUID="04be6e19-a018-4e0c-a9d6-0ab44c64752b" MZ.Sequence.VideoTimeDisplayFormat="101" MZ.WorkOutPoint="4826304000000" MZ.WorkInPoint="0" MZ.ZeroPoint="0">
							<duration>475</duration>
							<rate>
								<timebase>25</timebase>
								<ntsc>FALSE</ntsc>
							</rate>
							<name>титр</name>
							<media>
								<video>
									<format>
										<samplecharacteristics>
											<rate>
												<timebase>25</timebase>
												<ntsc>FALSE</ntsc>
											</rate>
											<codec>
												<name>Apple ProRes 422</name>
												<appspecificdata>
													<appname>Final Cut Pro</appname>
													<appmanufacturer>Apple Inc.</appmanufacturer>
													<appversion>7.0</appversion>
													<data>
														<qtcodec>
															<codecname>Apple ProRes 422</codecname>
															<codectypename>Apple ProRes 422</codectypename>
															<codectypecode>apcn</codectypecode>
															<codecvendorcode>appl</codecvendorcode>
															<spatialquality>1024</spatialquality>
															<temporalquality>0</temporalquality>
															<keyframerate>0</keyframerate>
															<datarate>0</datarate>
														</qtcodec>
													</data>
												</appspecificdata>
											</codec>
											<width>720</width>
											<height>576</height>
											<anamorphic>TRUE</anamorphic>
											<pixelaspectratio>PAL-601</pixelaspectratio>
											<fielddominance>lower</fielddominance>
											<colordepth>24</colordepth>
										</samplecharacteristics>
									</format>
									<track TL.SQTrackShy="0" TL.SQTrackExpandedHeight="25" TL.SQTrackExpanded="0" MZ.TrackTargeted="1">
										<clipitem id="clipitem-1794">
											<masterclipid>masterclip-778</masterclipid>
											<name>9_title.mov</name>
											<enabled>TRUE</enabled>
											<duration>225</duration>
											<rate>
												<timebase>25</timebase>
												<ntsc>FALSE</ntsc>
											</rate>
											<start>125</start>
											<end>350</end>
											<in>0</in>
											<out>225</out>
											<pproTicksIn>0</pproTicksIn>
											<pproTicksOut>2286144000000</pproTicksOut>
											<alphatype>straight</alphatype>
											<pixelaspectratio>square</pixelaspectratio>
											<anamorphic>FALSE</anamorphic>
											<file id="file-644">
												<name>1_title.mov</name>
												<pathurl>file://localhost/_MUZ_TV/graphika/RU-21/MOD/title_plashka/1_title.mov</pathurl>
												<rate>
													<timebase>25</timebase>
													<ntsc>FALSE</ntsc>
												</rate>
												<duration>225</duration>
												<timecode>
													<rate>
														<timebase>25</timebase>
														<ntsc>FALSE</ntsc>
													</rate>
													<string>00:01:21:00</string>
													<frame>2025</frame>
													<displayformat>NDF</displayformat>
												</timecode>
												<media>
													<video>
														<samplecharacteristics>
															<rate>
																<timebase>25</timebase>
																<ntsc>FALSE</ntsc>
															</rate>
															<width>1920</width>
															<height>1080</height>
															<anamorphic>FALSE</anamorphic>
															<pixelaspectratio>square</pixelaspectratio>
															<fielddominance>none</fielddominance>
														</samplecharacteristics>
													</video>
												</media>
											</file>
											<filter>
												<effect>
													<name>Basic Motion</name>
													<effectid>basic</effectid>
													<effectcategory>motion</effectcategory>
													<effecttype>motion</effecttype>
													<mediatype>video</mediatype>
													<pproBypass>false</pproBypass>
													<parameter authoringApp="PremierePro">
														<parameterid>scale</parameterid>
														<name>Scale</name>
														<valuemin>0</valuemin>
														<valuemax>1000</valuemax>
														<value>55</value>
													</parameter>
													<parameter authoringApp="PremierePro">
														<parameterid>rotation</parameterid>
														<name>Rotation</name>
														<valuemin>-8640</valuemin>
														<valuemax>8640</valuemax>
														<value>0</value>
													</parameter>
													<parameter authoringApp="PremierePro">
														<parameterid>center</parameterid>
														<name>Center</name>
														<value>
															<horiz>0</horiz>
															<vert>0</vert>
														</value>
													</parameter>
													<parameter authoringApp="PremierePro">
														<parameterid>centerOffset</parameterid>
														<name>Anchor Point</name>
														<value>
															<horiz>0</horiz>
															<vert>0</vert>
														</value>
													</parameter>
													<parameter authoringApp="PremierePro">
														<parameterid>antiflicker</parameterid>
														<name>Anti-flicker Filter</name>
														<valuemin>0.0</valuemin>
														<valuemax>1.0</valuemax>
														<value>0</value>
													</parameter>
												</effect>
											</filter>
											<filter>
												<effect>
													<name>Distort</name>
													<effectid>deformation</effectid>
													<effectcategory>motion</effectcategory>
													<effecttype>motion</effecttype>
													<mediatype>video</mediatype>
													<parameter authoringApp="PremierePro">
														<parameterid>aspect</parameterid>
														<name>Aspect</name>
														<valuemin>-10000</valuemin>
														<valuemax>10000</valuemax>
														<value>-3.12506</value>
													</parameter>
												</effect>
											</filter>
											<logginginfo>
												<description></description>
												<scene></scene>
												<shottake></shottake>
												<lognote></lognote>
												<good></good>
												<originalvideofilename></originalvideofilename>
												<originalaudiofilename></originalaudiofilename>
											</logginginfo>
											<colorinfo>
												<lut></lut>
												<lut1></lut1>
												<asc_sop></asc_sop>
												<asc_sat></asc_sat>
												<lut2></lut2>
											</colorinfo>
											<labels>
												<label2>Violet</label2>
											</labels>
										</clipitem>
										<clipitem id="clipitem-1795">
											<masterclipid>masterclip-779</masterclipid>
											<name>Graphic</name>
											<enabled>FALSE</enabled>
											<duration>1080000</duration>
											<rate>
												<timebase>25</timebase>
												<ntsc>FALSE</ntsc>
											</rate>
											<start>350</start>
											<end>475</end>
											<in>90000</in>
											<out>90125</out>
											<pproTicksIn>914457600000000</pproTicksIn>
											<pproTicksOut>915727680000000</pproTicksOut>
											<alphatype>straight</alphatype>
											<pixelaspectratio>PAL-601</pixelaspectratio>
											<anamorphic>TRUE</anamorphic>
											<file id="file-645">
												<name>Graphic</name>
												<mediaSource>GraphicAndType</mediaSource>
												<rate>
													<timebase>30</timebase>
													<ntsc>TRUE</ntsc>
												</rate>
												<timecode>
													<rate>
														<timebase>30</timebase>
														<ntsc>TRUE</ntsc>
													</rate>
													<string>00;00;00;00</string>
													<frame>0</frame>
													<displayformat>DF</displayformat>
												</timecode>
												<media>
													<video>
														<samplecharacteristics>
															<rate>
																<timebase>30</timebase>
																<ntsc>TRUE</ntsc>
															</rate>
															<width>720</width>
															<height>576</height>
															<anamorphic>TRUE</anamorphic>
															<pixelaspectratio>PAL-601</pixelaspectratio>
															<fielddominance>none</fielddominance>
														</samplecharacteristics>
													</video>
												</media>
											</file>
											<filter>
												<effect>
													<name>Basic Motion</name>
													<effectid>basic</effectid>
													<effectcategory>motion</effectcategory>
													<effecttype>motion</effecttype>
													<mediatype>video</mediatype>
													<pproBypass>false</pproBypass>
													<parameter authoringApp="PremierePro">
														<parameterid>scale</parameterid>
														<name>Scale</name>
														<valuemin>0</valuemin>
														<valuemax>1000</valuemax>
														<value>133.333</value>
													</parameter>
													<parameter authoringApp="PremierePro">
														<parameterid>rotation</parameterid>
														<name>Rotation</name>
														<valuemin>-8640</valuemin>
														<valuemax>8640</valuemax>
														<value>0</value>
													</parameter>
													<parameter authoringApp="PremierePro">
														<parameterid>center</parameterid>
														<name>Center</name>
														<value>
															<horiz>0</horiz>
															<vert>0</vert>
														</value>
													</parameter>
													<parameter authoringApp="PremierePro">
														<parameterid>centerOffset</parameterid>
														<name>Anchor Point</name>
														<value>
															<horiz>0</horiz>
															<vert>0</vert>
														</value>
													</parameter>
													<parameter authoringApp="PremierePro">
														<parameterid>antiflicker</parameterid>
														<name>Anti-flicker Filter</name>
														<valuemin>0.0</valuemin>
														<valuemax>1.0</valuemax>
														<value>0</value>
													</parameter>
												</effect>
											</filter>
											<filter>
												<effect>
													<name>Distort</name>
													<effectid>deformation</effectid>
													<effectcategory>motion</effectcategory>
													<effecttype>motion</effecttype>
													<mediatype>video</mediatype>
													<parameter authoringApp="PremierePro">
														<parameterid>aspect</parameterid>
														<name>Aspect</name>
														<valuemin>-10000</valuemin>
														<valuemax>10000</valuemax>
														<value>-33.333</value>
													</parameter>
												</effect>
											</filter>
											<filter>
												<effect>
													<name></name>
													<effectid>GraphicAndType</effectid>
													<effectcategory>graphic</effectcategory>
													<effecttype>filter</effecttype>
													<mediatype>video</mediatype>
													<pproBypass>false</pproBypass>
													<parameter authoringApp="PremierePro">
														<parameterid>1</parameterid>
														<name>Source Text</name>
														<hash>3f0faa81-c1b0-8370-b66c-fa0b000009f1</hash>
														<value>8AAAAAAAAABEMyIREAAAAAwAEAAEAAAACAAMAAwAAABEAAAACAAAABAAAAAAAAAACAAWAAQADAAIAAAABHUnue56F4lVUlAsAAAAEQAAFgAMAAAABAAAAAAAAAAAAAAAAAAIABYAAAAUAAAANAAAAIT///+I////jP///wEAAAAEAAAADAAAAEx1Y2lkYUdyYW5kZQAAAAAIAAwABAAIAAgAAABQAAAANAAAADAACAAAAAAAAAAAAAAAAAAAAAAAAAAAAAAAAAAAAAAAAAAAAAAAAAAAAAAAAAAEADAAAAAEAAAA+P////z///8EAAQABAAAAAAAAAAAAAAAAAAAAAAAAAAAAAAAAAAAAAAAAAAAAAAAAAAAAAAAAAAAAAAAAAAAAAAAAAAAAAAAAAAAAAAAAAAAAAAAAAAAAAAAAAAAAAAAAAAAAAAAAAAAAAAAAAAAAAAAAAAAAAAAAAAAAAAAAAAAAAAAAAAAAAAAAAAAAAAAAAAAAAAAAAAAAAAAAAAAAAAAAAAAAAAAAAAAAAAAAAAAAAAAAAAAAAAAAAAAAAAAAAAAAAAAAAAAAAAAAAAAAAAAAAAAAAAAAAAAAAAAAAAAAAAAAAAAAAAAAAAAAAAAAAAAAAAAAAAAAAAAAAAAAAAAAAAAAAAAAAAAAAAAAAAAAAAAAAAAAAAAAAAAAAAAAAAAAAAAAAAAAAAAAAAAAAAAAAAAAAAAAAAAAAAAAAAAAAAAAAAAAAAAAAAAAAAAAAAAAAAAAAAAAAAAAAAAAAAAAAAAAAAAAAAAAAAAAAAAAAAAAAAAAAAAAAAAAAAAAAAAAAAAAAAAAAAAAAAAAAAAAAAAAAAAAAAAAAAAAAAAAAAAAAAAAAAAAAAAAAAAAAAAAAAAAAAAAAAAAAAAAAAAAAAAAAAAAAAAAAAAAAAAAAAAAAAAAAAAAAAAAAAAAAAAAAAAAAAAAAAAAAAAAAAAAAAAAAAAAAAAAAAAAAAAAAAAAAAAAAAAAAAAAAAAAAAAAAAAAAAAAAAAAAAAAAAAAAAAAAAAAAAAAAAAAAAAAAAAAAAAAAAAAAAAAAAAAAAAAAAAAAAAAAAAAAAAAAAAAAAAAAAAAAAAAAAAAAAAAAAAAAAAAAAAAAAAAAAAAAAAAAAAAAAAAAAAAAAAAAAAAAAAAAAAAAAAAAAAAAAAAAAAAAAAAAAAAAAAAAAAAAAAAAAAAAAAAAAAAAAAAAAAAAAAAAAAAAAAAAAAAAAAAAAAAAAAAAAAAAAAAAAAAAAAAAAAAAAAAAAAAAAAAAAAAAAAAAAAAAAAAAAAAAAAAAAAAAAAAAAAAAAAAAAAAAAAAAAAAAAAAAAAAAAAAAAAAAAAAAAAAAAAAAAAAAAAAAAAAAAAAAAAAAAAAAAAAAAAAAAAAAAAAAAAAAAAAAAAAAAAAAAAAAAAAAAAAAAAAAAAAAAAAAAAAAAAAAAAAAAAAAAAAAAAAAAAAAAAAAAAAAAAAAAAAAAAAAAAAAAAAAAAAAAAAAAAAAAAAAAAAAAAAAAAAAAAAAAAAAAAAAAAAAAAAAAAAAAAAAAAAAAAAAAAAAAAAAAAAAAAAAAAAAAAAAAAAAAAAAAAAAAAAAAAAAAAAAAAAAAAAAAAAAAAAAAAAAAAAAAAAAAAAAAAAAAAAAAAAAAAAAAAAAAAAAAAAAAAAAAAAAAAAAAAAAAAAAAAAAAAAAAAAAAAAAAAAAAAAAAAAAAAAAAAAAAAAAAAAAAAAAAAAAAAAAAAAAAAAAAAAAAAAAAAAAAAAAAAAAAAAAAAAAAAAAAAAAAAAAAAAAAAAAAAAAAAAAAAAAAAAAAAAAAAAAAAAAAAAAAAAAAAAAAAAAAAAAAAAAAAAAAAAAAAAAAAAAAAAAAAAAAAAAAAAAAAAAAAAAAAAAAAAAAAAAAAAAAAAAAAAAAAAAAAAAAAAAAAAAAAAAAAAAAAAAAAAAAAAAAAAAAAAAAAAAAAAAAAAAAAAAAAAAAAAAAAAAAAAAAAAAAAAAAAAAAAAAAAAAAAAAAAAAAAAAAAAAAAAAAAAAAAAAAAAAAAAAAAAAAAAAAAAAAAAAAAAAAAAAAAAAAAAAAAAAAAAAAAAAAAAAAAAAAAAAAAAAAAAAAAAAAAAAAAAAAAAAAAAAAAAAAAAAAAAAAAAAAAAAAAAAAAAAAAAAAAAAAAAAAAAAAAAAAAAAAAAAAAAAAAAAAAAAAAAAAAAAAAAAAAAAAAAAAAAAAAAAAAAAAAAAAAAAAAAAAAAAAAAAAAAAAAAAAAAAAAAAAAAAAAAAAAAAAAAAAAAAAAAAAAAAAAAAAAAAAAAAAAAAAAAAAAAAAAAAAAAAAAAAAAAAAAAAAAAAAAAAAAAAAAAAAAAAAAAAAAAAAAAAAAAAAAAAAAAAAAAAAAAAAAAAAAAAAAAAAAAAAAAAAAAAAAAAAAAAAAAAAAAAAAAAAAAAAAAAAAAAAAAAAAAAAAAAAAAAAAAAAAAAAAAAAAAAAAAAAAAAAAAAAAAAAAAAAAAAAAAAAAAAAAAAAAAAAAAAAAAAAAAAAAAAAAAAAAAAAAAAAAAAAAAAAAAAAAAAAAAAAAAAAAAAAAAAAAAAAAAAAAAAAAAAAAAAAAAAAAAAAAAAAAAAAAAAAAAAAAAAAAAAAAAAAAAAAAAAAAAAAAAAAAAAAAAAAAAAAAAAAAAAAAAAAAAAAAAAAAAAAAAAAAAAAAAAAAAAAAAAAAAAAAAAAAAAAAAAAAAAAAAAAAAAAAAAAAAAAAAAAAAAAAAAAAAAAAAAAAAAAAAAAAAAAAAAAAAAAAAAAAAAAAAAAAAAAAAAAAAAAAAAAAAAAAAAAAAAAAAAAAAAAAAAAAAAAAAAAAAAAAAAAAAAAAAAAAAAAAAAAAAAAAAAAAAAAAAAAAAAAAAAAAAAAAAAAAAAAAAAAAAAAAAAAAAAAAAAAAAAAAAAAAAAAAAAAAAAAAAAAAAAAAAAAAAAAAAAAAAAAAAAAAAAAAAAAAAAAAAAAAAAAAAAAAAAAAAAAAAAAAAAAAAAAAAAAAAAAAAAAAAAAAAAAAAAAAAAAAAAAAAAAAAAAAAAAAAAAAAAAAAAAAAAAAAAAAAAAAAAAAAAAAAAAAAAAAAAAAAAAAAAAAAAAAAAAAAAAAAAAAAAAAAAAAAAAAAAAAAAAAAAAAAAAAAAAAAAAAAAAAAAAAAAAAAAAAAAAAAAAAAAAAAAAAAAAAAAAAAAAAAAAAAAAAAAAAAAAAAAAAAAAAAAAAAAAAAAAAAAAAAAAAAAAAAAAAAAAAAAAAAAAAAAAAAAAAAAAAAAAAAAAAAAAAAAAAAAAAAAAAAAAAAAAAAAAAAAAAAAAAAAAAAAAAAAAAAAAAAAAAAAAAAAAAAAAAAAAAAAAAAA==</value>
													</parameter>
													<parameter authoringApp="PremierePro">
														<parameterid>2</parameterid>
														<name>Transform</name>
														<IsTimeVarying>false</IsTimeVarying>
														<ParameterControlType>11</ParameterControlType>
														<LowerBound>false</LowerBound>
														<UpperBound>false</UpperBound>
														<value>-91445760000000000,false,0,0,0,0,0,0</value>
													</parameter>
													<parameter authoringApp="PremierePro">
														<parameterid>3</parameterid>
														<name>Position</name>
														<IsTimeVarying>false</IsTimeVarying>
														<value>-91445760000000000,0.55605381727218628:0.73039215803146362,0,0,0,0,0,0,5,4,0,0,0,0</value>
													</parameter>
													<parameter authoringApp="PremierePro">
														<parameterid>4</parameterid>
														<name>Scale</name>
														<IsTimeVarying>false</IsTimeVarying>
														<ParameterControlType>2</ParameterControlType>
														<LowerBound>0</LowerBound>
														<UpperBound>4000</UpperBound>
														<value>-91445760000000000,100.,0,0,0,0,0,0</value>
													</parameter>
													<parameter authoringApp="PremierePro">
														<parameterid>5</parameterid>
														<name>Horizontal Scale</name>
														<IsTimeVarying>false</IsTimeVarying>
														<ParameterControlType>2</ParameterControlType>
														<LowerBound>0</LowerBound>
														<UpperBound>4000</UpperBound>
														<value>-91445760000000000,100.,0,0,0,0,0,0</value>
													</parameter>
													<parameter authoringApp="PremierePro">
														<parameterid>6</parameterid>
														<name> </name>
														<IsTimeVarying>false</IsTimeVarying>
														<ParameterControlType>4</ParameterControlType>
														<LowerBound>false</LowerBound>
														<UpperBound>true</UpperBound>
														<value>-91445760000000000,true,0,0,0,0,0,0</value>
													</parameter>
													<parameter authoringApp="PremierePro">
														<parameterid>7</parameterid>
														<name>Rotation</name>
														<IsTimeVarying>false</IsTimeVarying>
														<ParameterControlType>3</ParameterControlType>
														<LowerBound>-32768</LowerBound>
														<UpperBound>32767</UpperBound>
														<value>-91445760000000000,0.,0,0,0,0,0,0</value>
													</parameter>
													<parameter authoringApp="PremierePro">
														<parameterid>8</parameterid>
														<name>Opacity</name>
														<IsTimeVarying>false</IsTimeVarying>
														<ParameterControlType>2</ParameterControlType>
														<LowerBound>0</LowerBound>
														<UpperBound>100</UpperBound>
														<value>-91445760000000000,100.,0,0,0,0,0,0</value>
													</parameter>
													<parameter authoringApp="PremierePro">
														<parameterid>9</parameterid>
														<name>Anchor Point</name>
														<IsTimeVarying>false</IsTimeVarying>
														<value>-91445760000000000,0:0,0,0,0,0,0,0,5,4,0,0,0,0</value>
													</parameter>
													<parameter authoringApp="PremierePro">
														<parameterid>10</parameterid>
														<name></name>
														<IsTimeVarying>false</IsTimeVarying>
														<ParameterControlType>12</ParameterControlType>
														<LowerBound>false</LowerBound>
														<UpperBound>false</UpperBound>
														<value>-91445760000000000,false,0,0,0,0,0,0</value>
													</parameter>
													<parameter authoringApp="PremierePro">
														<parameterid>11</parameterid>
														<name> </name>
														<IsTimeVarying>false</IsTimeVarying>
														<ParameterControlType>8</ParameterControlType>
														<LowerBound>0</LowerBound>
														<UpperBound>32768</UpperBound>
														<value>-91445760000000000,0.,0,0,0,0,0,0</value>
													</parameter>
													<parameter authoringApp="PremierePro">
														<parameterid>12</parameterid>
														<name> </name>
														<IsTimeVarying>false</IsTimeVarying>
														<ParameterControlType>8</ParameterControlType>
														<LowerBound>0</LowerBound>
														<UpperBound>32768</UpperBound>
														<value>-91445760000000000,0.,0,0,0,0,0,0</value>
													</parameter>
													<parameter authoringApp="PremierePro">
														<parameterid>13</parameterid>
														<name>start</name>
														<IsTimeVarying>false</IsTimeVarying>
														<ParameterControlType>8</ParameterControlType>
														<LowerBound>-100</LowerBound>
														<UpperBound>1000000000</UpperBound>
														<value>-91445760000000000,0.,0,0,0,0,0,0</value>
													</parameter>
													<parameter authoringApp="PremierePro">
														<parameterid>14</parameterid>
														<name>end</name>
														<IsTimeVarying>false</IsTimeVarying>
														<ParameterControlType>8</ParameterControlType>
														<LowerBound>-100</LowerBound>
														<UpperBound>1000000000</UpperBound>
														<value>-91445760000000000,0.,0,0,0,0,0,0</value>
													</parameter>
													<parameter authoringApp="PremierePro">
														<parameterid>15</parameterid>
														<name> </name>
														<IsTimeVarying>false</IsTimeVarying>
														<ParameterControlType>4</ParameterControlType>
														<LowerBound>false</LowerBound>
														<UpperBound>true</UpperBound>
														<value>-91445760000000000,false,0,0,0,0,0,0</value>
													</parameter>
													<parameter authoringApp="PremierePro">
														<parameterid>16</parameterid>
														<name> </name>
														<IsTimeVarying>false</IsTimeVarying>
														<ParameterControlType>4</ParameterControlType>
														<LowerBound>false</LowerBound>
														<UpperBound>true</UpperBound>
														<value>-91445760000000000,false,0,0,0,0,0,0</value>
													</parameter>
													<parameter authoringApp="PremierePro">
														<parameterid>17</parameterid>
														<name> </name>
														<IsTimeVarying>false</IsTimeVarying>
														<ParameterControlType>4</ParameterControlType>
														<LowerBound>false</LowerBound>
														<UpperBound>true</UpperBound>
														<value>-91445760000000000,false,0,0,0,0,0,0</value>
													</parameter>
													<parameter authoringApp="PremierePro">
														<parameterid>18</parameterid>
														<name> </name>
														<IsTimeVarying>false</IsTimeVarying>
														<ParameterControlType>4</ParameterControlType>
														<LowerBound>false</LowerBound>
														<UpperBound>true</UpperBound>
														<value>-91445760000000000,false,0,0,0,0,0,0</value>
													</parameter>
													<parameter authoringApp="PremierePro">
														<parameterid>19</parameterid>
														<name>Parent Width</name>
														<IsTimeVarying>false</IsTimeVarying>
														<ParameterControlType>2</ParameterControlType>
														<LowerBound>0</LowerBound>
														<UpperBound>20000</UpperBound>
														<value>-91445760000000000,0.,0,0,0,0,0,0</value>
													</parameter>
													<parameter authoringApp="PremierePro">
														<parameterid>20</parameterid>
														<name>Parent Height</name>
														<IsTimeVarying>false</IsTimeVarying>
														<ParameterControlType>2</ParameterControlType>
														<LowerBound>0</LowerBound>
														<UpperBound>20000</UpperBound>
														<value>-91445760000000000,0.,0,0,0,0,0,0</value>
													</parameter>
													<parameter authoringApp="PremierePro">
														<parameterid>21</parameterid>
														<name>Parent Rotation</name>
														<IsTimeVarying>false</IsTimeVarying>
														<ParameterControlType>3</ParameterControlType>
														<LowerBound>-32768</LowerBound>
														<UpperBound>32767</UpperBound>
														<value>-91445760000000000,0.,0,0,0,0,0,0</value>
													</parameter>
												</effect>
											</filter>
											<logginginfo>
												<description></description>
												<scene></scene>
												<shottake></shottake>
												<lognote></lognote>
												<good></good>
												<originalvideofilename></originalvideofilename>
												<originalaudiofilename></originalaudiofilename>
											</logginginfo>
											<colorinfo>
												<lut></lut>
												<lut1></lut1>
												<asc_sop></asc_sop>
												<asc_sat></asc_sat>
												<lut2></lut2>
											</colorinfo>
										</clipitem>
										<enabled>TRUE</enabled>
										<locked>FALSE</locked>
									</track>
									<track TL.SQTrackShy="0" TL.SQTrackExpandedHeight="25" TL.SQTrackExpanded="0" MZ.TrackTargeted="0">
										<transitionitem>
											<start>167</start>
											<end>224</end>
											<alignment>start-black</alignment>
											<cutPointTicks>0</cutPointTicks>
											<rate>
												<timebase>25</timebase>
												<ntsc>FALSE</ntsc>
											</rate>
											<effect>
												<name>Edge Wipe</name>
												<effectid>Edge Wipe</effectid>
												<effectcategory>Wipe</effectcategory>
												<effecttype>transition</effecttype>
												<mediatype>video</mediatype>
												<wipecode>2</wipecode>
												<wipeaccuracy>100</wipeaccuracy>
												<startratio>0</startratio>
												<endratio>1</endratio>
												<reverse>FALSE</reverse>
												<parameter authoringApp="PremierePro">
													<parameterid>directionofwipe</parameterid>
													<name>Angle</name>
													<valuemin>-360</valuemin>
													<valuemax>360</valuemax>
													<value>90</value>
												</parameter>
											</effect>
										</transitionitem>
										<clipitem id="clipitem-1796">
											<masterclipid>masterclip-780</masterclipid>
											<name>9.png</name>
											<enabled>TRUE</enabled>
											<duration>1080000</duration>
											<rate>
												<timebase>25</timebase>
												<ntsc>FALSE</ntsc>
											</rate>
											<start>-1</start>
											<end>-1</end>
											<in>90042</in>
											<out>90225</out>
											<pproTicksIn>914884346880000</pproTicksIn>
											<pproTicksOut>916743744000000</pproTicksOut>
											<alphatype>straight</alphatype>
											<pixelaspectratio>square</pixelaspectratio>
											<anamorphic>FALSE</anamorphic>
											<file id="file-646">
												<name>1.png</name>
												<pathurl>file://localhost/_MUZ_TV/project_AP/RU/_TITLE/469/1.png</pathurl>
												<rate>
													<timebase>30</timebase>
													<ntsc>TRUE</ntsc>
												</rate>
												<timecode>
													<rate>
														<timebase>30</timebase>
														<ntsc>TRUE</ntsc>
													</rate>
													<string>00;00;00;00</string>
													<frame>0</frame>
													<displayformat>DF</displayformat>
												</timecode>
												<media>
													<video>
														<samplecharacteristics>
															<rate>
																<timebase>30</timebase>
																<ntsc>TRUE</ntsc>
															</rate>
															<width>1920</width>
															<height>1080</height>
															<anamorphic>FALSE</anamorphic>
															<pixelaspectratio>square</pixelaspectratio>
															<fielddominance>none</fielddominance>
														</samplecharacteristics>
													</video>
												</media>
											</file>
											<filter>
												<effect>
													<name>Basic Motion</name>
													<effectid>basic</effectid>
													<effectcategory>motion</effectcategory>
													<effecttype>motion</effecttype>
													<mediatype>video</mediatype>
													<pproBypass>false</pproBypass>
													<parameter authoringApp="PremierePro">
														<parameterid>scale</parameterid>
														<name>Scale</name>
														<valuemin>0</valuemin>
														<valuemax>1000</valuemax>
														<value>53.3333</value>
													</parameter>
													<parameter authoringApp="PremierePro">
														<parameterid>rotation</parameterid>
														<name>Rotation</name>
														<valuemin>-8640</valuemin>
														<valuemax>8640</valuemax>
														<value>0</value>
													</parameter>
													<parameter authoringApp="PremierePro">
														<parameterid>center</parameterid>
														<name>Center</name>
														<value>
															<horiz>0</horiz>
															<vert>0</vert>
														</value>
													</parameter>
													<parameter authoringApp="PremierePro">
														<parameterid>centerOffset</parameterid>
														<name>Anchor Point</name>
														<value>
															<horiz>0</horiz>
															<vert>0</vert>
														</value>
													</parameter>
													<parameter authoringApp="PremierePro">
														<parameterid>antiflicker</parameterid>
														<name>Anti-flicker Filter</name>
														<valuemin>0.0</valuemin>
														<valuemax>1.0</valuemax>
														<value>0</value>
													</parameter>
												</effect>
											</filter>
											<logginginfo>
												<description></description>
												<scene></scene>
												<shottake></shottake>
												<lognote></lognote>
												<good></good>
												<originalvideofilename></originalvideofilename>
												<originalaudiofilename></originalaudiofilename>
											</logginginfo>
											<colorinfo>
												<lut></lut>
												<lut1></lut1>
												<asc_sop></asc_sop>
												<asc_sat></asc_sat>
												<lut2></lut2>
											</colorinfo>
											<labels>
												<label2>Lavender</label2>
											</labels>
										</clipitem>
										<transitionitem>
											<start>328</start>
											<end>350</end>
											<alignment>end-black</alignment>
											<cutPointTicks>223534080000</cutPointTicks>
											<rate>
												<timebase>25</timebase>
												<ntsc>FALSE</ntsc>
											</rate>
											<effect>
												<name>Edge Wipe</name>
												<effectid>Edge Wipe</effectid>
												<effectcategory>Wipe</effectcategory>
												<effecttype>transition</effecttype>
												<mediatype>video</mediatype>
												<wipecode>2</wipecode>
												<wipeaccuracy>100</wipeaccuracy>
												<startratio>0</startratio>
												<endratio>1</endratio>
												<reverse>FALSE</reverse>
												<parameter authoringApp="PremierePro">
													<parameterid>directionofwipe</parameterid>
													<name>Angle</name>
													<valuemin>-360</valuemin>
													<valuemax>360</valuemax>
													<value>90</value>
												</parameter>
											</effect>
										</transitionitem>
										<enabled>TRUE</enabled>
										<locked>FALSE</locked>
									</track>
									<track TL.SQTrackShy="0" TL.SQTrackExpandedHeight="25" TL.SQTrackExpanded="0" MZ.TrackTargeted="0">
										<transitionitem>
											<start>167</start>
											<end>224</end>
											<alignment>start-black</alignment>
											<cutPointTicks>0</cutPointTicks>
											<rate>
												<timebase>25</timebase>
												<ntsc>FALSE</ntsc>
											</rate>
											<effect>
												<name>Edge Wipe</name>
												<effectid>Edge Wipe</effectid>
												<effectcategory>Wipe</effectcategory>
												<effecttype>transition</effecttype>
												<mediatype>video</mediatype>
												<wipecode>2</wipecode>
												<wipeaccuracy>100</wipeaccuracy>
												<startratio>0</startratio>
												<endratio>1</endratio>
												<reverse>FALSE</reverse>
												<parameter authoringApp="PremierePro">
													<parameterid>directionofwipe</parameterid>
													<name>Angle</name>
													<valuemin>-360</valuemin>
													<valuemax>360</valuemax>
													<value>90</value>
												</parameter>
											</effect>
										</transitionitem>
										<clipitem id="clipitem-1797">
											<masterclipid>masterclip-781</masterclipid>
											<name>Graphic</name>
											<enabled>FALSE</enabled>
											<duration>1080000</duration>
											<rate>
												<timebase>25</timebase>
												<ntsc>FALSE</ntsc>
											</rate>
											<start>-1</start>
											<end>-1</end>
											<in>89998</in>
											<out>90181</out>
											<pproTicksIn>914437278720000</pproTicksIn>
											<pproTicksOut>916296675840000</pproTicksOut>
											<alphatype>straight</alphatype>
											<pixelaspectratio>PAL-601</pixelaspectratio>
											<anamorphic>TRUE</anamorphic>
											<file id="file-647">
												<name>Graphic</name>
												<mediaSource>GraphicAndType</mediaSource>
												<rate>
													<timebase>30</timebase>
													<ntsc>TRUE</ntsc>
												</rate>
												<timecode>
													<rate>
														<timebase>30</timebase>
														<ntsc>TRUE</ntsc>
													</rate>
													<string>00;00;00;00</string>
													<frame>0</frame>
													<displayformat>DF</displayformat>
												</timecode>
												<media>
													<video>
														<samplecharacteristics>
															<rate>
																<timebase>30</timebase>
																<ntsc>TRUE</ntsc>
															</rate>
															<width>720</width>
															<height>576</height>
															<anamorphic>TRUE</anamorphic>
															<pixelaspectratio>PAL-601</pixelaspectratio>
															<fielddominance>none</fielddominance>
														</samplecharacteristics>
													</video>
												</media>
											</file>
											<filter>
												<effect>
													<name>АРТУР ПИРОЖКОВ&#13;ЛЕТОМ НА ФИЕСТЕ</name>
													<effectid>GraphicAndType</effectid>
													<effectcategory>graphic</effectcategory>
													<effecttype>filter</effecttype>
													<mediatype>video</mediatype>
													<pproBypass>false</pproBypass>
													<pproExpanded>true</pproExpanded>
													<parameter authoringApp="PremierePro">
														<parameterid>1</parameterid>
														<name>Source Text</name>
														<hash>dc092258-f6b9-fd91-a76f-c3e700000476</hash>
														<value>WAEAAAAAAABEMyIREAAAAAwAEAAEAAAACAAMAAwAAABEAAAACAAAABAAAAAAAAAACAAaAAQADAAIAAAAlX6GQZLUglGh3VTnAAAD0QAAAAAAABIAEAAIAAQAAAAAAAAAAAAMABIAAAAYAAAAMAAAAAAAgD9Y////XP///2D///8BAAAABAAAAA8AAABNb250c2VycmF0LUJvbGQAAQAAAAwAAAAIAAwABAAIAAgAAAB0AAAANAAAADAAGAAAABQAAAAAABAAAAAMAAAAAAAAAAgAAAAAAAAAAAAAAAAAAAAAAAAAAAAEADAAAAAYAAAAAACAv5qZmT8cAAAAAABAQQQABgAEAAAAAAAKAAgABQAGAAcACgAAAADl5eUEAAQABAAAADgAAADQkNCg0KLQo9CgINCf0JjQoNCe0JbQmtCe0JIN0JvQldCi0J7QnCDQndCQINCk0JjQldCh0KLQlQAAAAAAAAAAAAAAAAAAAAAAAAAAAAAAAAAAAAAAAAAAAAAAAAAAAAAAAAAAAAAAAAAAAAAAAAAAAAAAAAAAAAAAAAAAAAAAAAAAAAAAAAAAAAAAAAAAAAAAAAAAAAAAAAAAAAAAAAAAAAAAAAAAAAAAAAAAAAAAAAAAAAAAAAAAAAAAAAAAAAAAAAAAAAAAAAAAAAAAAAAAAAAAAAAAAAAAAAAAAAAAAAAAAAAAAAAAAAAAAAAAAAAAAAAAAAAAAAAAAAAAAAAAAAAAAAAAAAAAAAAAAAAAAAAAAAAAAAAAAAAAAAAAAAAAAAAAAAAAAAAAAAAAAAAAAAAAAAAAAAAAAAAAAAAAAAAAAAAAAAAAAAAAAAAAAAAAAAAAAAAAAAAAAAAAAAAAAAAAAAAAAAAAAAAAAAAAAAAAAAAAAAAAAAAAAAAAAAAAAAAAAAAAAAAAAAAAAAAAAAAAAAAAAAAAAAAAAAAAAAAAAAAAAAAAAAAAAAAAAAAAAAAAAAAAAAAAAAAAAAAAAAAAAAAAAAAAAAAAAAAAAAAAAAAAAAAAAAAAAAAAAAAAAAAAAAAAAAAAAAAAAAAAAAAAAAAAAAAAAAAAAAAAAAAAAAAAAAAAAAAAAAAAAAAAAAAAAAAAAAAAAAAAAAAAAAAAAAAAAAAAAAAAAAAAAAAAAAAAAAAAAAAAAAAAAAAAAAAAAAAAAAAAAAAAAAAAAAAAAAAAAAAAAAAAAAAAAAAAAAAAAAAAAAAAAAAAAAAAAAAAAAAAAAAAAAAAAAAAAAAAAAAAAAAAAAAAAAAAAAAAAAAAAAAAAAAAAAAAAAAAAAAAAAAAAAAAAAAAAAAAAAAAAAAAAAAAAAAAAAAAAAAAAAAAAAAAAAAAAAAAAAAAAAAAAAAAAAAAAAAAAAAAAAAAAAAAAAAAAAAAAAAAAAAAAAAAAAAAAAAAAAAAAAAAAAAAAAAAAAAAAAAAAAAAAAAAAAAAAAAAAAAAAAAAAAAAAAAAAAAAAAAAAAAAAAAAAAAAAAAAAAAAAAAAAAAAAAA=</value>
													</parameter>
													<parameter authoringApp="PremierePro">
														<parameterid>2</parameterid>
														<name>Transform</name>
														<IsTimeVarying>false</IsTimeVarying>
														<ParameterControlType>11</ParameterControlType>
														<LowerBound>false</LowerBound>
														<UpperBound>false</UpperBound>
														<value>-91445760000000000,false,0,0,0,0,0,0</value>
													</parameter>
													<parameter authoringApp="PremierePro">
														<parameterid>3</parameterid>
														<name>Position</name>
														<IsTimeVarying>false</IsTimeVarying>
														<value>-91445760000000000,0.36944580078125:0.86468505859375,0,0,0,0,0,0,5,4,0,0,0,0</value>
													</parameter>
													<parameter authoringApp="PremierePro">
														<parameterid>4</parameterid>
														<name>Scale</name>
														<IsTimeVarying>false</IsTimeVarying>
														<ParameterControlType>2</ParameterControlType>
														<LowerBound>0</LowerBound>
														<UpperBound>4000</UpperBound>
														<value>-91445760000000000,100.,0,0,0,0,0,0</value>
													</parameter>
													<parameter authoringApp="PremierePro">
														<parameterid>5</parameterid>
														<name>Horizontal Scale</name>
														<IsTimeVarying>false</IsTimeVarying>
														<ParameterControlType>2</ParameterControlType>
														<LowerBound>0</LowerBound>
														<UpperBound>4000</UpperBound>
														<value>-91445760000000000,100.,0,0,0,0,0,0</value>
													</parameter>
													<parameter authoringApp="PremierePro">
														<parameterid>6</parameterid>
														<name> </name>
														<IsTimeVarying>false</IsTimeVarying>
														<ParameterControlType>4</ParameterControlType>
														<LowerBound>false</LowerBound>
														<UpperBound>true</UpperBound>
														<value>-91445760000000000,true,0,0,0,0,0,0</value>
													</parameter>
													<parameter authoringApp="PremierePro">
														<parameterid>7</parameterid>
														<name>Rotation</name>
														<IsTimeVarying>false</IsTimeVarying>
														<ParameterControlType>3</ParameterControlType>
														<LowerBound>-32768</LowerBound>
														<UpperBound>32767</UpperBound>
														<value>-91445760000000000,0.,0,0,0,0,0,0</value>
													</parameter>
													<parameter authoringApp="PremierePro">
														<parameterid>8</parameterid>
														<name>Opacity</name>
														<IsTimeVarying>false</IsTimeVarying>
														<ParameterControlType>2</ParameterControlType>
														<LowerBound>0</LowerBound>
														<UpperBound>100</UpperBound>
														<value>-91445760000000000,100.,0,0,0,0,0,0</value>
													</parameter>
													<parameter authoringApp="PremierePro">
														<parameterid>9</parameterid>
														<name>Anchor Point</name>
														<IsTimeVarying>false</IsTimeVarying>
														<value>-91445760000000000,0:0,0,0,0,0,0,0,5,4,0,0,0,0</value>
													</parameter>
													<parameter authoringApp="PremierePro">
														<parameterid>10</parameterid>
														<name></name>
														<IsTimeVarying>false</IsTimeVarying>
														<ParameterControlType>12</ParameterControlType>
														<LowerBound>false</LowerBound>
														<UpperBound>false</UpperBound>
														<value>-91445760000000000,false,0,0,0,0,0,0</value>
													</parameter>
													<parameter authoringApp="PremierePro">
														<parameterid>11</parameterid>
														<name> </name>
														<IsTimeVarying>false</IsTimeVarying>
														<ParameterControlType>8</ParameterControlType>
														<LowerBound>0</LowerBound>
														<UpperBound>32768</UpperBound>
														<value>-91445760000000000,0.,0,0,0,0,0,0</value>
													</parameter>
													<parameter authoringApp="PremierePro">
														<parameterid>12</parameterid>
														<name> </name>
														<IsTimeVarying>false</IsTimeVarying>
														<ParameterControlType>8</ParameterControlType>
														<LowerBound>0</LowerBound>
														<UpperBound>32768</UpperBound>
														<value>-91445760000000000,0.,0,0,0,0,0,0</value>
													</parameter>
													<parameter authoringApp="PremierePro">
														<parameterid>13</parameterid>
														<name>start</name>
														<IsTimeVarying>false</IsTimeVarying>
														<ParameterControlType>8</ParameterControlType>
														<LowerBound>-100</LowerBound>
														<UpperBound>1000000000</UpperBound>
														<value>-91445760000000000,30.,0,0,0,0,0,0</value>
													</parameter>
													<parameter authoringApp="PremierePro">
														<parameterid>14</parameterid>
														<name>end</name>
														<IsTimeVarying>false</IsTimeVarying>
														<ParameterControlType>8</ParameterControlType>
														<LowerBound>-100</LowerBound>
														<UpperBound>1000000000</UpperBound>
														<value>-91445760000000000,30.,0,0,0,0,0,0</value>
													</parameter>
													<parameter authoringApp="PremierePro">
														<parameterid>15</parameterid>
														<name> </name>
														<IsTimeVarying>false</IsTimeVarying>
														<ParameterControlType>4</ParameterControlType>
														<LowerBound>false</LowerBound>
														<UpperBound>true</UpperBound>
														<value>-91445760000000000,false,0,0,0,0,0,0</value>
													</parameter>
													<parameter authoringApp="PremierePro">
														<parameterid>16</parameterid>
														<name> </name>
														<IsTimeVarying>false</IsTimeVarying>
														<ParameterControlType>4</ParameterControlType>
														<LowerBound>false</LowerBound>
														<UpperBound>true</UpperBound>
														<value>-91445760000000000,false,0,0,0,0,0,0</value>
													</parameter>
													<parameter authoringApp="PremierePro">
														<parameterid>17</parameterid>
														<name> </name>
														<IsTimeVarying>false</IsTimeVarying>
														<ParameterControlType>4</ParameterControlType>
														<LowerBound>false</LowerBound>
														<UpperBound>true</UpperBound>
														<value>-91445760000000000,false,0,0,0,0,0,0</value>
													</parameter>
													<parameter authoringApp="PremierePro">
														<parameterid>18</parameterid>
														<name> </name>
														<IsTimeVarying>false</IsTimeVarying>
														<ParameterControlType>4</ParameterControlType>
														<LowerBound>false</LowerBound>
														<UpperBound>true</UpperBound>
														<value>-91445760000000000,false,0,0,0,0,0,0</value>
													</parameter>
													<parameter authoringApp="PremierePro">
														<parameterid>19</parameterid>
														<name>Parent Width</name>
														<IsTimeVarying>false</IsTimeVarying>
														<ParameterControlType>2</ParameterControlType>
														<LowerBound>0</LowerBound>
														<UpperBound>20000</UpperBound>
														<value>-91445760000000000,0.,0,0,0,0,0,0</value>
													</parameter>
													<parameter authoringApp="PremierePro">
														<parameterid>20</parameterid>
														<name>Parent Height</name>
														<IsTimeVarying>false</IsTimeVarying>
														<ParameterControlType>2</ParameterControlType>
														<LowerBound>0</LowerBound>
														<UpperBound>20000</UpperBound>
														<value>-91445760000000000,0.,0,0,0,0,0,0</value>
													</parameter>
													<parameter authoringApp="PremierePro">
														<parameterid>21</parameterid>
														<name>Parent Rotation</name>
														<IsTimeVarying>false</IsTimeVarying>
														<ParameterControlType>3</ParameterControlType>
														<LowerBound>-32768</LowerBound>
														<UpperBound>32767</UpperBound>
														<value>-91445760000000000,0.,0,0,0,0,0,0</value>
													</parameter>
												</effect>
											</filter>
											<logginginfo>
												<description></description>
												<scene></scene>
												<shottake></shottake>
												<lognote></lognote>
												<good></good>
												<originalvideofilename></originalvideofilename>
												<originalaudiofilename></originalaudiofilename>
											</logginginfo>
											<colorinfo>
												<lut></lut>
												<lut1></lut1>
												<asc_sop></asc_sop>
												<asc_sat></asc_sat>
												<lut2></lut2>
											</colorinfo>
										</clipitem>
										<transitionitem>
											<start>328</start>
											<end>350</end>
											<alignment>end-black</alignment>
											<cutPointTicks>223534080000</cutPointTicks>
											<rate>
												<timebase>25</timebase>
												<ntsc>FALSE</ntsc>
											</rate>
											<effect>
												<name>Edge Wipe</name>
												<effectid>Edge Wipe</effectid>
												<effectcategory>Wipe</effectcategory>
												<effecttype>transition</effecttype>
												<mediatype>video</mediatype>
												<wipecode>2</wipecode>
												<wipeaccuracy>100</wipeaccuracy>
												<startratio>0</startratio>
												<endratio>1</endratio>
												<reverse>FALSE</reverse>
												<parameter authoringApp="PremierePro">
													<parameterid>directionofwipe</parameterid>
													<name>Angle</name>
													<valuemin>-360</valuemin>
													<valuemax>360</valuemax>
													<value>90</value>
												</parameter>
											</effect>
										</transitionitem>
										<enabled>TRUE</enabled>
										<locked>FALSE</locked>
									</track>
								</video>
								<audio>
									<numOutputChannels>2</numOutputChannels>
									<format>
										<samplecharacteristics>
											<depth>16</depth>
											<samplerate>48000</samplerate>
										</samplecharacteristics>
									</format>
									<outputs>
										<group>
											<index>1</index>
											<numchannels>1</numchannels>
											<downmix>0</downmix>
											<channel>
												<index>1</index>
											</channel>
										</group>
										<group>
											<index>2</index>
											<numchannels>1</numchannels>
											<downmix>0</downmix>
											<channel>
												<index>2</index>
											</channel>
										</group>
									</outputs>
									<track TL.SQTrackAudioKeyframeStyle="0" TL.SQTrackShy="0" TL.SQTrackExpandedHeight="25" TL.SQTrackExpanded="0" MZ.TrackTargeted="1" PannerCurrentValue="0.5" PannerStartKeyframe="-91445760000000000,0.5,0,0,0,0,0,0" PannerName="Balance" currentExplodedTrackIndex="0" totalExplodedTrackCount="2" premiereTrackType="Stereo">
										<enabled>TRUE</enabled>
										<locked>FALSE</locked>
										<outputchannelindex>1</outputchannelindex>
									</track>
									<track TL.SQTrackAudioKeyframeStyle="0" TL.SQTrackShy="0" TL.SQTrackExpandedHeight="25" TL.SQTrackExpanded="0" MZ.TrackTargeted="1" PannerCurrentValue="0.5" PannerStartKeyframe="-91445760000000000,0.5,0,0,0,0,0,0" PannerName="Balance" currentExplodedTrackIndex="1" totalExplodedTrackCount="2" premiereTrackType="Stereo">
										<enabled>TRUE</enabled>
										<locked>FALSE</locked>
										<outputchannelindex>2</outputchannelindex>
									</track>
								</audio>
							</media>
							<timecode>
								<rate>
									<timebase>25</timebase>
									<ntsc>FALSE</ntsc>
								</rate>
								<string>00:00:00:00</string>
								<frame>0</frame>
								<displayformat>NDF</displayformat>
							</timecode>
								<marker>
									<comment></comment>
									<name></name>
									<in>125</in>
									<out>-1</out>
									<pproColor>4280578025</pproColor>
								</marker>
							<logginginfo>
								<description></description>
								<scene></scene>
								<shottake></shottake>
								<lognote></lognote>
								<good></good>
								<originalvideofilename></originalvideofilename>
								<originalaudiofilename></originalaudiofilename>
							</logginginfo>
						</sequence>
							<marker>
								<comment></comment>
								<name></name>
								<in>125</in>
								<out>-1</out>
								<pproColor>4280578025</pproColor>
							</marker>
						<labels>
							<label2>Forest</label2>
						</labels>
					</clipitem>
					<clipitem id="clipitem-1798">
						<masterclipid>masterclip-777</masterclipid>
						<name>1</name>
						<enabled>TRUE</enabled>
						<duration>475</duration>
						<rate>
							<timebase>25</timebase>
							<ntsc>FALSE</ntsc>
						</rate>
						<start>64945</start>
						<end>65296</end>
						<in>124</in>
						<out>475</out>
						<pproTicksIn>1259919360000</pproTicksIn>
						<pproTicksOut>4826304000000</pproTicksOut>
						<sequence id="sequence-144"/>
							<marker>
								<comment></comment>
								<name></name>
								<in>125</in>
								<out>-1</out>
								<pproColor>4280578025</pproColor>
							</marker>
						<labels>
							<label2>Forest</label2>
						</labels>
					</clipitem>
					<clipitem id="clipitem-1799">
						<masterclipid>masterclip-720</masterclipid>
						<name>титр</name>
						<enabled>TRUE</enabled>
						<duration>225</duration>
						<rate>
							<timebase>25</timebase>
							<ntsc>FALSE</ntsc>
						</rate>
						<start>65591</start>
						<end>65740</end>
						<in>0</in>
						<out>149</out>
						<pproTicksIn>0</pproTicksIn>
						<pproTicksOut>1513935360000</pproTicksOut>
						<sequence id="sequence-132"/>
						<filter>
							<effect>
								<name>Opacity</name>
								<effectid>opacity</effectid>
								<effectcategory>motion</effectcategory>
								<effecttype>motion</effecttype>
								<mediatype>video</mediatype>
								<pproBypass>false</pproBypass>
								<parameter authoringApp="PremierePro">
									<parameterid>opacity</parameterid>
									<name>opacity</name>
									<valuemin>0</valuemin>
									<valuemax>100</valuemax>
									<value>100</value>
								</parameter>
							</effect>
						</filter>
							<marker>
								<comment></comment>
								<name></name>
								<in>57</in>
								<out>-1</out>
								<pproColor>4294741314</pproColor>
							</marker>
						<labels>
							<label2>Forest</label2>
						</labels>
					</clipitem>
					<transitionitem>
						<start>65941</start>
						<end>65954</end>
						<alignment>start-black</alignment>
						<cutPointTicks>0</cutPointTicks>
						<rate>
							<timebase>25</timebase>
							<ntsc>FALSE</ntsc>
						</rate>
						<effect>
							<name>Cross Dissolve</name>
							<effectid>Cross Dissolve</effectid>
							<effectcategory>Dissolve</effectcategory>
							<effecttype>transition</effecttype>
							<mediatype>video</mediatype>
							<wipecode>0</wipecode>
							<wipeaccuracy>100</wipeaccuracy>
							<startratio>0</startratio>
							<endratio>1</endratio>
							<reverse>FALSE</reverse>
						</effect>
					</transitionitem>
					<clipitem id="clipitem-1800">
						<masterclipid>masterclip-782</masterclipid>
						<name>Graphic</name>
						<enabled>TRUE</enabled>
						<duration>1080000</duration>
						<rate>
							<timebase>25</timebase>
							<ntsc>FALSE</ntsc>
						</rate>
						<start>-1</start>
						<end>66000</end>
						<in>90066</in>
						<out>90125</out>
						<pproTicksIn>915128202240000</pproTicksIn>
						<pproTicksOut>915727680000000</pproTicksOut>
						<alphatype>straight</alphatype>
						<pixelaspectratio>PAL-601</pixelaspectratio>
						<anamorphic>TRUE</anamorphic>
						<file id="file-648">
							<name>Graphic</name>
							<mediaSource>GraphicAndType</mediaSource>
							<rate>
								<timebase>30</timebase>
								<ntsc>TRUE</ntsc>
							</rate>
							<timecode>
								<rate>
									<timebase>30</timebase>
									<ntsc>TRUE</ntsc>
								</rate>
								<string>00;00;00;00</string>
								<frame>0</frame>
								<displayformat>DF</displayformat>
							</timecode>
							<media>
								<video>
									<samplecharacteristics>
										<rate>
											<timebase>30</timebase>
											<ntsc>TRUE</ntsc>
										</rate>
										<width>720</width>
										<height>576</height>
										<anamorphic>TRUE</anamorphic>
										<pixelaspectratio>PAL-601</pixelaspectratio>
										<fielddominance>none</fielddominance>
									</samplecharacteristics>
								</video>
							</media>
						</file>
						<filter>
							<effect>
								<name>©  ООО «Муз ТВ Операционная компания»</name>
								<effectid>GraphicAndType</effectid>
								<effectcategory>graphic</effectcategory>
								<effecttype>filter</effecttype>
								<mediatype>video</mediatype>
								<pproBypass>false</pproBypass>
								<pproExpanded>true</pproExpanded>
								<parameter authoringApp="PremierePro">
									<parameterid>1</parameterid>
									<name>Source Text</name>
									<hash>23fe30ae-95d8-0f51-d4ad-465000000220</hash>
									<value>CAIAAAAAAABEMyIRGAAAAAAAAAAAAA4AGAAEABcADAAQAAsADgAAAEAAAAAAAAABDAAAABQAAAAAAAABAAAAAAgAGAAEAAwACAAAACC5nj4BLdw/n7QkpQAAA4kAAAAACAAMAAgABAAIAAAAGAAAACwAAAD4/////P///wQABAAEAAAAAQAAAAQAAAALAAAASGVsaW9zLUJvbGQAAQAAAAwAAAAIAAwABAAIAAgAAAAYAQAANAAAADAAGgAAABQAEAAAAAwAAAAIAAAAAAAAAAAAAAAAAAAAAAAAAAAAAAAAAAAAAAAEADAAAAAgAAAAmpmZP7gAAADIAAAAAACQQQAACgAMAAAACAAEAAoAAAAIAAAAPAAAAAIAAAAsAAAAEAAAAAAACgAOAAAABAAIAAoAAAAAAIA/AAAAPwAACgAIAAAAAAAEAAoAAAAAAAA/AgAAADgAAAAQAAAAAAAKABAABAAIAAwACgAAABAAAAAAAIA/AAAAPwQABgAEAAAAAAAKAAwABAAAAAgACgAAAAgAAAAAAAA/9v///wAAAOXl5QoACgAHAAgACQAKAAAAAAAA5eXlCgAIAAUABgAHAAoAAAAA3d3dRAAAAMKpICDQntCe0J4gwqvQnNGD0Lcg0KLQkiDQntC/0LXRgNCw0YbQuNC+0L3QvdCw0Y8g0LrQvtC80L/QsNC90LjRj8K7AAAAAA==</value>
								</parameter>
								<parameter authoringApp="PremierePro">
									<parameterid>2</parameterid>
									<name>Transform</name>
									<IsTimeVarying>false</IsTimeVarying>
									<ParameterControlType>11</ParameterControlType>
									<LowerBound>false</LowerBound>
									<UpperBound>false</UpperBound>
									<value>-91445760000000000,false,0,0,0,0,0,0</value>
								</parameter>
								<parameter authoringApp="PremierePro">
									<parameterid>3</parameterid>
									<name>Position</name>
									<IsTimeVarying>false</IsTimeVarying>
									<value>-91445760000000000,0.53887939453125:0.901458740234375,0,0,0,0,0,0,5,4,0,0,0,0</value>
								</parameter>
								<parameter authoringApp="PremierePro">
									<parameterid>4</parameterid>
									<name>Scale</name>
									<IsTimeVarying>false</IsTimeVarying>
									<ParameterControlType>2</ParameterControlType>
									<LowerBound>0</LowerBound>
									<UpperBound>4000</UpperBound>
									<value>-91445760000000000,100.,0,0,0,0,0,0</value>
								</parameter>
								<parameter authoringApp="PremierePro">
									<parameterid>5</parameterid>
									<name>Horizontal Scale</name>
									<IsTimeVarying>false</IsTimeVarying>
									<ParameterControlType>2</ParameterControlType>
									<LowerBound>0</LowerBound>
									<UpperBound>4000</UpperBound>
									<value>-91445760000000000,100.,0,0,0,0,0,0</value>
								</parameter>
								<parameter authoringApp="PremierePro">
									<parameterid>6</parameterid>
									<name> </name>
									<IsTimeVarying>false</IsTimeVarying>
									<ParameterControlType>4</ParameterControlType>
									<LowerBound>false</LowerBound>
									<UpperBound>true</UpperBound>
									<value>-91445760000000000,true,0,0,0,0,0,0</value>
								</parameter>
								<parameter authoringApp="PremierePro">
									<parameterid>7</parameterid>
									<name>Rotation</name>
									<IsTimeVarying>false</IsTimeVarying>
									<ParameterControlType>3</ParameterControlType>
									<LowerBound>-32768</LowerBound>
									<UpperBound>32767</UpperBound>
									<value>-91445760000000000,0.,0,0,0,0,0,0</value>
								</parameter>
								<parameter authoringApp="PremierePro">
									<parameterid>8</parameterid>
									<name>Opacity</name>
									<IsTimeVarying>false</IsTimeVarying>
									<ParameterControlType>2</ParameterControlType>
									<LowerBound>0</LowerBound>
									<UpperBound>100</UpperBound>
									<value>-91445760000000000,100.,0,0,0,0,0,0</value>
								</parameter>
								<parameter authoringApp="PremierePro">
									<parameterid>9</parameterid>
									<name>Anchor Point</name>
									<IsTimeVarying>false</IsTimeVarying>
									<value>-91445760000000000,0:0,0,0,0,0,0,0,5,4,0,0,0,0</value>
								</parameter>
								<parameter authoringApp="PremierePro">
									<parameterid>10</parameterid>
									<name></name>
									<IsTimeVarying>false</IsTimeVarying>
									<ParameterControlType>12</ParameterControlType>
									<LowerBound>false</LowerBound>
									<UpperBound>false</UpperBound>
									<value>-91445760000000000,false,0,0,0,0,0,0</value>
								</parameter>
								<parameter authoringApp="PremierePro">
									<parameterid>11</parameterid>
									<name> </name>
									<IsTimeVarying>false</IsTimeVarying>
									<ParameterControlType>8</ParameterControlType>
									<LowerBound>0</LowerBound>
									<UpperBound>32768</UpperBound>
									<value>-91445760000000000,0.,0,0,0,0,0,0</value>
								</parameter>
								<parameter authoringApp="PremierePro">
									<parameterid>12</parameterid>
									<name> </name>
									<IsTimeVarying>false</IsTimeVarying>
									<ParameterControlType>8</ParameterControlType>
									<LowerBound>0</LowerBound>
									<UpperBound>32768</UpperBound>
									<value>-91445760000000000,0.,0,0,0,0,0,0</value>
								</parameter>
								<parameter authoringApp="PremierePro">
									<parameterid>13</parameterid>
									<name>start</name>
									<IsTimeVarying>false</IsTimeVarying>
									<ParameterControlType>8</ParameterControlType>
									<LowerBound>-100</LowerBound>
									<UpperBound>1000000000</UpperBound>
									<value>-91445760000000000,-1.,0,0,0,0,0,0</value>
								</parameter>
								<parameter authoringApp="PremierePro">
									<parameterid>14</parameterid>
									<name>end</name>
									<IsTimeVarying>false</IsTimeVarying>
									<ParameterControlType>8</ParameterControlType>
									<LowerBound>-100</LowerBound>
									<UpperBound>1000000000</UpperBound>
									<value>-91445760000000000,-1.,0,0,0,0,0,0</value>
								</parameter>
								<parameter authoringApp="PremierePro">
									<parameterid>15</parameterid>
									<name> </name>
									<IsTimeVarying>false</IsTimeVarying>
									<ParameterControlType>4</ParameterControlType>
									<LowerBound>false</LowerBound>
									<UpperBound>true</UpperBound>
									<value>-91445760000000000,false,0,0,0,0,0,0</value>
								</parameter>
								<parameter authoringApp="PremierePro">
									<parameterid>16</parameterid>
									<name> </name>
									<IsTimeVarying>false</IsTimeVarying>
									<ParameterControlType>4</ParameterControlType>
									<LowerBound>false</LowerBound>
									<UpperBound>true</UpperBound>
									<value>-91445760000000000,false,0,0,0,0,0,0</value>
								</parameter>
								<parameter authoringApp="PremierePro">
									<parameterid>17</parameterid>
									<name> </name>
									<IsTimeVarying>false</IsTimeVarying>
									<ParameterControlType>4</ParameterControlType>
									<LowerBound>false</LowerBound>
									<UpperBound>true</UpperBound>
									<value>-91445760000000000,false,0,0,0,0,0,0</value>
								</parameter>
								<parameter authoringApp="PremierePro">
									<parameterid>18</parameterid>
									<name> </name>
									<IsTimeVarying>false</IsTimeVarying>
									<ParameterControlType>4</ParameterControlType>
									<LowerBound>false</LowerBound>
									<UpperBound>true</UpperBound>
									<value>-91445760000000000,false,0,0,0,0,0,0</value>
								</parameter>
								<parameter authoringApp="PremierePro">
									<parameterid>19</parameterid>
									<name>Parent Width</name>
									<IsTimeVarying>false</IsTimeVarying>
									<ParameterControlType>2</ParameterControlType>
									<LowerBound>0</LowerBound>
									<UpperBound>20000</UpperBound>
									<value>-91445760000000000,0.,0,0,0,0,0,0</value>
								</parameter>
								<parameter authoringApp="PremierePro">
									<parameterid>20</parameterid>
									<name>Parent Height</name>
									<IsTimeVarying>false</IsTimeVarying>
									<ParameterControlType>2</ParameterControlType>
									<LowerBound>0</LowerBound>
									<UpperBound>20000</UpperBound>
									<value>-91445760000000000,0.,0,0,0,0,0,0</value>
								</parameter>
								<parameter authoringApp="PremierePro">
									<parameterid>21</parameterid>
									<name>Parent Rotation</name>
									<IsTimeVarying>false</IsTimeVarying>
									<ParameterControlType>3</ParameterControlType>
									<LowerBound>-32768</LowerBound>
									<UpperBound>32767</UpperBound>
									<value>-91445760000000000,0.,0,0,0,0,0,0</value>
								</parameter>
							</effect>
						</filter>
						<logginginfo>
							<description></description>
							<scene></scene>
							<shottake></shottake>
							<lognote></lognote>
							<good></good>
							<originalvideofilename></originalvideofilename>
							<originalaudiofilename></originalaudiofilename>
						</logginginfo>
						<colorinfo>
							<lut></lut>
							<lut1></lut1>
							<asc_sop></asc_sop>
							<asc_sat></asc_sat>
							<lut2></lut2>
						</colorinfo>
						<labels>
							<label2>Rose</label2>
						</labels>
					</clipitem>
					<enabled>TRUE</enabled>
					<locked>FALSE</locked>
				</track>
				<track TL.SQTrackShy="0" TL.SQTrackExpandedHeight="25" TL.SQTrackExpanded="0" MZ.TrackTargeted="0">
					<enabled>TRUE</enabled>
					<locked>FALSE</locked>
				</track>
				<track TL.SQTrackShy="0" TL.SQTrackExpandedHeight="25" TL.SQTrackExpanded="0" MZ.TrackTargeted="0">
					<clipitem id="clipitem-1801">
						<masterclipid>masterclip-783</masterclipid>
						<name>12</name>
						<enabled>FALSE</enabled>
						<duration>1125</duration>
						<rate>
							<timebase>25</timebase>
							<ntsc>FALSE</ntsc>
						</rate>
						<start>1496</start>
						<end>1871</end>
						<in>0</in>
						<out>375</out>
						<pproTicksIn>0</pproTicksIn>
						<pproTicksOut>3810240000000</pproTicksOut>
						<sequence id="sequence-145" TL.SQAudioVisibleBase="0" TL.SQVideoVisibleBase="0" TL.SQVisibleBaseTime="0" TL.SQAVDividerPosition="0.5" TL.SQHideShyTracks="0" TL.SQHeaderWidth="236" Monitor.ProgramZoomOut="11430720000000" Monitor.ProgramZoomIn="0" TL.SQTimePerPixel="0.19620667102680819" AM.TrackVScrollPosition="0" AM.TrackScrollPosition="0" MZ.EditLine="7691604480000" MZ.Sequence.PreviewFrameSizeHeight="576" MZ.Sequence.PreviewFrameSizeWidth="720" MZ.Sequence.AudioTimeDisplayFormat="200" MZ.Sequence.PreviewRenderingClassID="1061109567" MZ.Sequence.PreviewRenderingPresetCodec="1685480304" MZ.Sequence.PreviewRenderingPresetPath="EncoderPresets/SequencePreview/04be6e19-a018-4e0c-a9d6-0ab44c64752b/QuickTime DV PAL.epr" MZ.Sequence.PreviewUseMaxRenderQuality="false" MZ.Sequence.PreviewUseMaxBitDepth="false" MZ.Sequence.EditingModeGUID="04be6e19-a018-4e0c-a9d6-0ab44c64752b" MZ.Sequence.VideoTimeDisplayFormat="101" MZ.WorkOutPoint="11430720000000" MZ.WorkInPoint="0" MZ.ZeroPoint="0">
							<duration>1125</duration>
							<rate>
								<timebase>25</timebase>
								<ntsc>FALSE</ntsc>
							</rate>
							<name>RU_Nested</name>
							<media>
								<video>
									<format>
										<samplecharacteristics>
											<rate>
												<timebase>25</timebase>
												<ntsc>FALSE</ntsc>
											</rate>
											<codec>
												<name>Apple ProRes 422</name>
												<appspecificdata>
													<appname>Final Cut Pro</appname>
													<appmanufacturer>Apple Inc.</appmanufacturer>
													<appversion>7.0</appversion>
													<data>
														<qtcodec>
															<codecname>Apple ProRes 422</codecname>
															<codectypename>Apple ProRes 422</codectypename>
															<codectypecode>apcn</codectypecode>
															<codecvendorcode>appl</codecvendorcode>
															<spatialquality>1024</spatialquality>
															<temporalquality>0</temporalquality>
															<keyframerate>0</keyframerate>
															<datarate>0</datarate>
														</qtcodec>
													</data>
												</appspecificdata>
											</codec>
											<width>720</width>
											<height>576</height>
											<anamorphic>TRUE</anamorphic>
											<pixelaspectratio>PAL-601</pixelaspectratio>
											<fielddominance>lower</fielddominance>
											<colordepth>24</colordepth>
										</samplecharacteristics>
									</format>
									<track TL.SQTrackShy="0" TL.SQTrackExpandedHeight="25" TL.SQTrackExpanded="0" MZ.TrackTargeted="1">
										<clipitem id="clipitem-1802">
											<masterclipid>masterclip-784</masterclipid>
											<name>Plashka_Right_DV.mov</name>
											<enabled>TRUE</enabled>
											<duration>375</duration>
											<rate>
												<timebase>25</timebase>
												<ntsc>FALSE</ntsc>
											</rate>
											<start>0</start>
											<end>375</end>
											<in>0</in>
											<out>375</out>
											<pproTicksIn>0</pproTicksIn>
											<pproTicksOut>3810240000000</pproTicksOut>
											<alphatype>straight</alphatype>
											<pixelaspectratio>PAL-601</pixelaspectratio>
											<anamorphic>TRUE</anamorphic>
											<file id="file-649">
												<name>Plashka_Right_DV.mov</name>
												<pathurl>file://localhost/Volumes/1Tb/_MUZ_TV/graphika/RU-21/MOD/Plashka_Right_DV.mov</pathurl>
												<rate>
													<timebase>25</timebase>
													<ntsc>FALSE</ntsc>
												</rate>
												<duration>375</duration>
												<timecode>
													<rate>
														<timebase>25</timebase>
														<ntsc>FALSE</ntsc>
													</rate>
													<string>00:00:15:10</string>
													<frame>385</frame>
													<displayformat>NDF</displayformat>
												</timecode>
												<media>
													<video>
														<samplecharacteristics>
															<rate>
																<timebase>25</timebase>
																<ntsc>FALSE</ntsc>
															</rate>
															<width>720</width>
															<height>576</height>
															<anamorphic>TRUE</anamorphic>
															<pixelaspectratio>PAL-601</pixelaspectratio>
															<fielddominance>lower</fielddominance>
														</samplecharacteristics>
													</video>
												</media>
											</file>
											<filter>
												<effect>
													<name>Basic Motion</name>
													<effectid>basic</effectid>
													<effectcategory>motion</effectcategory>
													<effecttype>motion</effecttype>
													<mediatype>video</mediatype>
													<pproBypass>false</pproBypass>
													<parameter authoringApp="PremierePro">
														<parameterid>scale</parameterid>
														<name>Scale</name>
														<valuemin>0</valuemin>
														<valuemax>1000</valuemax>
														<value>100</value>
													</parameter>
													<parameter authoringApp="PremierePro">
														<parameterid>rotation</parameterid>
														<name>Rotation</name>
														<valuemin>-8640</valuemin>
														<valuemax>8640</valuemax>
														<value>0</value>
													</parameter>
													<parameter authoringApp="PremierePro">
														<parameterid>center</parameterid>
														<name>Center</name>
														<value>
															<horiz>-5.55112e-17</horiz>
															<vert>-1.11022e-16</vert>
														</value>
													</parameter>
													<parameter authoringApp="PremierePro">
														<parameterid>centerOffset</parameterid>
														<name>Anchor Point</name>
														<value>
															<horiz>0.402314</horiz>
															<vert>0.41875</vert>
														</value>
													</parameter>
													<parameter authoringApp="PremierePro">
														<parameterid>antiflicker</parameterid>
														<name>Anti-flicker Filter</name>
														<valuemin>0.0</valuemin>
														<valuemax>1.0</valuemax>
														<value>0</value>
													</parameter>
												</effect>
											</filter>
											<filter>
												<effect>
													<name>Distort</name>
													<effectid>deformation</effectid>
													<effectcategory>motion</effectcategory>
													<effecttype>motion</effecttype>
													<mediatype>video</mediatype>
													<parameter authoringApp="PremierePro">
														<parameterid>aspect</parameterid>
														<name>Aspect</name>
														<valuemin>-10000</valuemin>
														<valuemax>10000</valuemax>
														<value>11.1111</value>
													</parameter>
												</effect>
											</filter>
											<logginginfo>
												<description></description>
												<scene></scene>
												<shottake></shottake>
												<lognote></lognote>
												<good></good>
												<originalvideofilename></originalvideofilename>
												<originalaudiofilename></originalaudiofilename>
											</logginginfo>
											<colorinfo>
												<lut></lut>
												<lut1></lut1>
												<asc_sop></asc_sop>
												<asc_sat></asc_sat>
												<lut2></lut2>
											</colorinfo>
											<labels>
												<label2>Violet</label2>
											</labels>
										</clipitem>
										<clipitem id="clipitem-1803">
											<masterclipid>masterclip-784</masterclipid>
											<name>Plashka_Right_DV.mov</name>
											<enabled>TRUE</enabled>
											<duration>375</duration>
											<rate>
												<timebase>25</timebase>
												<ntsc>FALSE</ntsc>
											</rate>
											<start>375</start>
											<end>750</end>
											<in>0</in>
											<out>375</out>
											<pproTicksIn>0</pproTicksIn>
											<pproTicksOut>3810240000000</pproTicksOut>
											<alphatype>straight</alphatype>
											<file id="file-649"/>
											<filter>
												<effect>
													<name>Basic Motion</name>
													<effectid>basic</effectid>
													<effectcategory>motion</effectcategory>
													<effecttype>motion</effecttype>
													<mediatype>video</mediatype>
													<pproBypass>false</pproBypass>
													<parameter authoringApp="PremierePro">
														<parameterid>scale</parameterid>
														<name>Scale</name>
														<valuemin>0</valuemin>
														<valuemax>1000</valuemax>
														<value>100</value>
													</parameter>
													<parameter authoringApp="PremierePro">
														<parameterid>rotation</parameterid>
														<name>Rotation</name>
														<valuemin>-8640</valuemin>
														<valuemax>8640</valuemax>
														<value>0</value>
													</parameter>
													<parameter authoringApp="PremierePro">
														<parameterid>center</parameterid>
														<name>Center</name>
														<value>
															<horiz>-5.55112e-17</horiz>
															<vert>-1.11022e-16</vert>
														</value>
													</parameter>
													<parameter authoringApp="PremierePro">
														<parameterid>centerOffset</parameterid>
														<name>Anchor Point</name>
														<value>
															<horiz>0.402314</horiz>
															<vert>0.41875</vert>
														</value>
													</parameter>
													<parameter authoringApp="PremierePro">
														<parameterid>antiflicker</parameterid>
														<name>Anti-flicker Filter</name>
														<valuemin>0.0</valuemin>
														<valuemax>1.0</valuemax>
														<value>0</value>
													</parameter>
												</effect>
											</filter>
											<filter>
												<effect>
													<name>Distort</name>
													<effectid>deformation</effectid>
													<effectcategory>motion</effectcategory>
													<effecttype>motion</effecttype>
													<mediatype>video</mediatype>
													<parameter authoringApp="PremierePro">
														<parameterid>aspect</parameterid>
														<name>Aspect</name>
														<valuemin>-10000</valuemin>
														<valuemax>10000</valuemax>
														<value>11.1111</value>
													</parameter>
												</effect>
											</filter>
											<logginginfo>
												<description></description>
												<scene></scene>
												<shottake></shottake>
												<lognote></lognote>
												<good></good>
												<originalvideofilename></originalvideofilename>
												<originalaudiofilename></originalaudiofilename>
											</logginginfo>
											<colorinfo>
												<lut></lut>
												<lut1></lut1>
												<asc_sop></asc_sop>
												<asc_sat></asc_sat>
												<lut2></lut2>
											</colorinfo>
											<labels>
												<label2>Violet</label2>
											</labels>
										</clipitem>
										<clipitem id="clipitem-1804">
											<masterclipid>masterclip-784</masterclipid>
											<name>Plashka_Right_DV.mov</name>
											<enabled>TRUE</enabled>
											<duration>375</duration>
											<rate>
												<timebase>25</timebase>
												<ntsc>FALSE</ntsc>
											</rate>
											<start>750</start>
											<end>1125</end>
											<in>0</in>
											<out>375</out>
											<pproTicksIn>0</pproTicksIn>
											<pproTicksOut>3810240000000</pproTicksOut>
											<alphatype>straight</alphatype>
											<file id="file-649"/>
											<filter>
												<effect>
													<name>Basic Motion</name>
													<effectid>basic</effectid>
													<effectcategory>motion</effectcategory>
													<effecttype>motion</effecttype>
													<mediatype>video</mediatype>
													<pproBypass>false</pproBypass>
													<parameter authoringApp="PremierePro">
														<parameterid>scale</parameterid>
														<name>Scale</name>
														<valuemin>0</valuemin>
														<valuemax>1000</valuemax>
														<value>100</value>
													</parameter>
													<parameter authoringApp="PremierePro">
														<parameterid>rotation</parameterid>
														<name>Rotation</name>
														<valuemin>-8640</valuemin>
														<valuemax>8640</valuemax>
														<value>0</value>
													</parameter>
													<parameter authoringApp="PremierePro">
														<parameterid>center</parameterid>
														<name>Center</name>
														<value>
															<horiz>-5.55112e-17</horiz>
															<vert>-1.11022e-16</vert>
														</value>
													</parameter>
													<parameter authoringApp="PremierePro">
														<parameterid>centerOffset</parameterid>
														<name>Anchor Point</name>
														<value>
															<horiz>0.402314</horiz>
															<vert>0.41875</vert>
														</value>
													</parameter>
													<parameter authoringApp="PremierePro">
														<parameterid>antiflicker</parameterid>
														<name>Anti-flicker Filter</name>
														<valuemin>0.0</valuemin>
														<valuemax>1.0</valuemax>
														<value>0</value>
													</parameter>
												</effect>
											</filter>
											<filter>
												<effect>
													<name>Distort</name>
													<effectid>deformation</effectid>
													<effectcategory>motion</effectcategory>
													<effecttype>motion</effecttype>
													<mediatype>video</mediatype>
													<parameter authoringApp="PremierePro">
														<parameterid>aspect</parameterid>
														<name>Aspect</name>
														<valuemin>-10000</valuemin>
														<valuemax>10000</valuemax>
														<value>11.1111</value>
													</parameter>
												</effect>
											</filter>
											<logginginfo>
												<description></description>
												<scene></scene>
												<shottake></shottake>
												<lognote></lognote>
												<good></good>
												<originalvideofilename></originalvideofilename>
												<originalaudiofilename></originalaudiofilename>
											</logginginfo>
											<colorinfo>
												<lut></lut>
												<lut1></lut1>
												<asc_sop></asc_sop>
												<asc_sat></asc_sat>
												<lut2></lut2>
											</colorinfo>
											<labels>
												<label2>Violet</label2>
											</labels>
										</clipitem>
										<enabled>TRUE</enabled>
										<locked>FALSE</locked>
									</track>
									<track TL.SQTrackShy="0" TL.SQTrackExpandedHeight="25" TL.SQTrackExpanded="0" MZ.TrackTargeted="0">
										<transitionitem>
											<start>6</start>
											<end>35</end>
											<alignment>start-black</alignment>
											<cutPointTicks>0</cutPointTicks>
											<rate>
												<timebase>25</timebase>
												<ntsc>FALSE</ntsc>
											</rate>
											<effect>
												<name>Edge Wipe</name>
												<effectid>Edge Wipe</effectid>
												<effectcategory>Wipe</effectcategory>
												<effecttype>transition</effecttype>
												<mediatype>video</mediatype>
												<wipecode>2</wipecode>
												<wipeaccuracy>100</wipeaccuracy>
												<startratio>0</startratio>
												<endratio>1</endratio>
												<reverse>FALSE</reverse>
												<parameter authoringApp="PremierePro">
													<parameterid>directionofwipe</parameterid>
													<name>Angle</name>
													<valuemin>-360</valuemin>
													<valuemax>360</valuemax>
													<value>270</value>
												</parameter>
											</effect>
										</transitionitem>
										<clipitem id="clipitem-1805">
											<masterclipid>masterclip-785</masterclipid>
											<name>12_1.png</name>
											<enabled>TRUE</enabled>
											<duration>1080000</duration>
											<rate>
												<timebase>25</timebase>
												<ntsc>FALSE</ntsc>
											</rate>
											<start>-1</start>
											<end>-1</end>
											<in>90006</in>
											<out>90369</out>
											<pproTicksIn>914518563840000</pproTicksIn>
											<pproTicksOut>918206876160000</pproTicksOut>
											<alphatype>straight</alphatype>
											<pixelaspectratio>square</pixelaspectratio>
											<anamorphic>FALSE</anamorphic>
											<file id="file-650">
												<name>12_1.png</name>
												<pathurl>file://localhost/_MUZ_TV/project_AP/RU/_TITLE/468/PNG/12_1.png</pathurl>
												<rate>
													<timebase>30</timebase>
													<ntsc>TRUE</ntsc>
												</rate>
												<timecode>
													<rate>
														<timebase>30</timebase>
														<ntsc>TRUE</ntsc>
													</rate>
													<string>00;00;00;00</string>
													<frame>0</frame>
													<displayformat>DF</displayformat>
												</timecode>
												<media>
													<video>
														<samplecharacteristics>
															<rate>
																<timebase>30</timebase>
																<ntsc>TRUE</ntsc>
															</rate>
															<width>1920</width>
															<height>1080</height>
															<anamorphic>FALSE</anamorphic>
															<pixelaspectratio>square</pixelaspectratio>
															<fielddominance>none</fielddominance>
														</samplecharacteristics>
													</video>
												</media>
											</file>
											<filter>
												<effect>
													<name>Basic Motion</name>
													<effectid>basic</effectid>
													<effectcategory>motion</effectcategory>
													<effecttype>motion</effecttype>
													<mediatype>video</mediatype>
													<pproBypass>false</pproBypass>
													<parameter authoringApp="PremierePro">
														<parameterid>scale</parameterid>
														<name>Scale</name>
														<valuemin>0</valuemin>
														<valuemax>1000</valuemax>
														<value>53.3333</value>
													</parameter>
													<parameter authoringApp="PremierePro">
														<parameterid>rotation</parameterid>
														<name>Rotation</name>
														<valuemin>-8640</valuemin>
														<valuemax>8640</valuemax>
														<value>0</value>
													</parameter>
													<parameter authoringApp="PremierePro">
														<parameterid>center</parameterid>
														<name>Center</name>
														<value>
															<horiz>0</horiz>
															<vert>0</vert>
														</value>
													</parameter>
													<parameter authoringApp="PremierePro">
														<parameterid>centerOffset</parameterid>
														<name>Anchor Point</name>
														<value>
															<horiz>0</horiz>
															<vert>0</vert>
														</value>
													</parameter>
													<parameter authoringApp="PremierePro">
														<parameterid>antiflicker</parameterid>
														<name>Anti-flicker Filter</name>
														<valuemin>0.0</valuemin>
														<valuemax>1.0</valuemax>
														<value>0</value>
													</parameter>
												</effect>
											</filter>
											<logginginfo>
												<description></description>
												<scene></scene>
												<shottake></shottake>
												<lognote></lognote>
												<good></good>
												<originalvideofilename></originalvideofilename>
												<originalaudiofilename></originalaudiofilename>
											</logginginfo>
											<colorinfo>
												<lut></lut>
												<lut1></lut1>
												<asc_sop></asc_sop>
												<asc_sat></asc_sat>
												<lut2></lut2>
											</colorinfo>
											<labels>
												<label2>Lavender</label2>
											</labels>
										</clipitem>
										<transitionitem>
											<start>344</start>
											<end>369</end>
											<alignment>end-black</alignment>
											<cutPointTicks>254016000000</cutPointTicks>
											<rate>
												<timebase>25</timebase>
												<ntsc>FALSE</ntsc>
											</rate>
											<effect>
												<name>Edge Wipe</name>
												<effectid>Edge Wipe</effectid>
												<effectcategory>Wipe</effectcategory>
												<effecttype>transition</effecttype>
												<mediatype>video</mediatype>
												<wipecode>2</wipecode>
												<wipeaccuracy>100</wipeaccuracy>
												<startratio>0</startratio>
												<endratio>1</endratio>
												<reverse>FALSE</reverse>
												<parameter authoringApp="PremierePro">
													<parameterid>directionofwipe</parameterid>
													<name>Angle</name>
													<valuemin>-360</valuemin>
													<valuemax>360</valuemax>
													<value>90</value>
												</parameter>
											</effect>
										</transitionitem>
										<transitionitem>
											<start>381</start>
											<end>410</end>
											<alignment>start-black</alignment>
											<cutPointTicks>0</cutPointTicks>
											<rate>
												<timebase>25</timebase>
												<ntsc>FALSE</ntsc>
											</rate>
											<effect>
												<name>Edge Wipe</name>
												<effectid>Edge Wipe</effectid>
												<effectcategory>Wipe</effectcategory>
												<effecttype>transition</effecttype>
												<mediatype>video</mediatype>
												<wipecode>2</wipecode>
												<wipeaccuracy>100</wipeaccuracy>
												<startratio>0</startratio>
												<endratio>1</endratio>
												<reverse>FALSE</reverse>
												<parameter authoringApp="PremierePro">
													<parameterid>directionofwipe</parameterid>
													<name>Angle</name>
													<valuemin>-360</valuemin>
													<valuemax>360</valuemax>
													<value>270</value>
												</parameter>
											</effect>
										</transitionitem>
										<clipitem id="clipitem-1806">
											<masterclipid>masterclip-786</masterclipid>
											<name>12_2.png</name>
											<enabled>TRUE</enabled>
											<duration>1080000</duration>
											<rate>
												<timebase>25</timebase>
												<ntsc>FALSE</ntsc>
											</rate>
											<start>-1</start>
											<end>-1</end>
											<in>90011</in>
											<out>90374</out>
											<pproTicksIn>914569367040000</pproTicksIn>
											<pproTicksOut>918257679360000</pproTicksOut>
											<alphatype>straight</alphatype>
											<pixelaspectratio>square</pixelaspectratio>
											<anamorphic>FALSE</anamorphic>
											<file id="file-651">
												<name>12_2.png</name>
												<pathurl>file://localhost/_MUZ_TV/project_AP/RU/_TITLE/468/PNG/12_2.png</pathurl>
												<rate>
													<timebase>30</timebase>
													<ntsc>TRUE</ntsc>
												</rate>
												<timecode>
													<rate>
														<timebase>30</timebase>
														<ntsc>TRUE</ntsc>
													</rate>
													<string>00;00;00;00</string>
													<frame>0</frame>
													<displayformat>DF</displayformat>
												</timecode>
												<media>
													<video>
														<samplecharacteristics>
															<rate>
																<timebase>30</timebase>
																<ntsc>TRUE</ntsc>
															</rate>
															<width>1920</width>
															<height>1080</height>
															<anamorphic>FALSE</anamorphic>
															<pixelaspectratio>square</pixelaspectratio>
															<fielddominance>none</fielddominance>
														</samplecharacteristics>
													</video>
												</media>
											</file>
											<filter>
												<effect>
													<name>Basic Motion</name>
													<effectid>basic</effectid>
													<effectcategory>motion</effectcategory>
													<effecttype>motion</effecttype>
													<mediatype>video</mediatype>
													<pproBypass>false</pproBypass>
													<parameter authoringApp="PremierePro">
														<parameterid>scale</parameterid>
														<name>Scale</name>
														<valuemin>0</valuemin>
														<valuemax>1000</valuemax>
														<value>53.3333</value>
													</parameter>
													<parameter authoringApp="PremierePro">
														<parameterid>rotation</parameterid>
														<name>Rotation</name>
														<valuemin>-8640</valuemin>
														<valuemax>8640</valuemax>
														<value>0</value>
													</parameter>
													<parameter authoringApp="PremierePro">
														<parameterid>center</parameterid>
														<name>Center</name>
														<value>
															<horiz>0</horiz>
															<vert>0</vert>
														</value>
													</parameter>
													<parameter authoringApp="PremierePro">
														<parameterid>centerOffset</parameterid>
														<name>Anchor Point</name>
														<value>
															<horiz>0</horiz>
															<vert>0</vert>
														</value>
													</parameter>
													<parameter authoringApp="PremierePro">
														<parameterid>antiflicker</parameterid>
														<name>Anti-flicker Filter</name>
														<valuemin>0.0</valuemin>
														<valuemax>1.0</valuemax>
														<value>0</value>
													</parameter>
												</effect>
											</filter>
											<logginginfo>
												<description></description>
												<scene></scene>
												<shottake></shottake>
												<lognote></lognote>
												<good></good>
												<originalvideofilename></originalvideofilename>
												<originalaudiofilename></originalaudiofilename>
											</logginginfo>
											<colorinfo>
												<lut></lut>
												<lut1></lut1>
												<asc_sop></asc_sop>
												<asc_sat></asc_sat>
												<lut2></lut2>
											</colorinfo>
											<labels>
												<label2>Lavender</label2>
											</labels>
										</clipitem>
										<transitionitem>
											<start>719</start>
											<end>744</end>
											<alignment>end-black</alignment>
											<cutPointTicks>254016000000</cutPointTicks>
											<rate>
												<timebase>25</timebase>
												<ntsc>FALSE</ntsc>
											</rate>
											<effect>
												<name>Edge Wipe</name>
												<effectid>Edge Wipe</effectid>
												<effectcategory>Wipe</effectcategory>
												<effecttype>transition</effecttype>
												<mediatype>video</mediatype>
												<wipecode>2</wipecode>
												<wipeaccuracy>100</wipeaccuracy>
												<startratio>0</startratio>
												<endratio>1</endratio>
												<reverse>FALSE</reverse>
												<parameter authoringApp="PremierePro">
													<parameterid>directionofwipe</parameterid>
													<name>Angle</name>
													<valuemin>-360</valuemin>
													<valuemax>360</valuemax>
													<value>90</value>
												</parameter>
											</effect>
										</transitionitem>
										<transitionitem>
											<start>756</start>
											<end>785</end>
											<alignment>start-black</alignment>
											<cutPointTicks>0</cutPointTicks>
											<rate>
												<timebase>25</timebase>
												<ntsc>FALSE</ntsc>
											</rate>
											<effect>
												<name>Edge Wipe</name>
												<effectid>Edge Wipe</effectid>
												<effectcategory>Wipe</effectcategory>
												<effecttype>transition</effecttype>
												<mediatype>video</mediatype>
												<wipecode>2</wipecode>
												<wipeaccuracy>100</wipeaccuracy>
												<startratio>0</startratio>
												<endratio>1</endratio>
												<reverse>FALSE</reverse>
												<parameter authoringApp="PremierePro">
													<parameterid>directionofwipe</parameterid>
													<name>Angle</name>
													<valuemin>-360</valuemin>
													<valuemax>360</valuemax>
													<value>270</value>
												</parameter>
											</effect>
										</transitionitem>
										<clipitem id="clipitem-1807">
											<masterclipid>masterclip-787</masterclipid>
											<name>12_3.png</name>
											<enabled>TRUE</enabled>
											<duration>1080000</duration>
											<rate>
												<timebase>25</timebase>
												<ntsc>FALSE</ntsc>
											</rate>
											<start>-1</start>
											<end>-1</end>
											<in>90011</in>
											<out>90375</out>
											<pproTicksIn>914569367040000</pproTicksIn>
											<pproTicksOut>918267840000000</pproTicksOut>
											<alphatype>straight</alphatype>
											<pixelaspectratio>square</pixelaspectratio>
											<anamorphic>FALSE</anamorphic>
											<file id="file-652">
												<name>12_3.png</name>
												<pathurl>file://localhost/_MUZ_TV/project_AP/RU/_TITLE/468/PNG/12_3.png</pathurl>
												<rate>
													<timebase>30</timebase>
													<ntsc>TRUE</ntsc>
												</rate>
												<timecode>
													<rate>
														<timebase>30</timebase>
														<ntsc>TRUE</ntsc>
													</rate>
													<string>00;00;00;00</string>
													<frame>0</frame>
													<displayformat>DF</displayformat>
												</timecode>
												<media>
													<video>
														<samplecharacteristics>
															<rate>
																<timebase>30</timebase>
																<ntsc>TRUE</ntsc>
															</rate>
															<width>1920</width>
															<height>1080</height>
															<anamorphic>FALSE</anamorphic>
															<pixelaspectratio>square</pixelaspectratio>
															<fielddominance>none</fielddominance>
														</samplecharacteristics>
													</video>
												</media>
											</file>
											<filter>
												<effect>
													<name>Basic Motion</name>
													<effectid>basic</effectid>
													<effectcategory>motion</effectcategory>
													<effecttype>motion</effecttype>
													<mediatype>video</mediatype>
													<pproBypass>false</pproBypass>
													<parameter authoringApp="PremierePro">
														<parameterid>scale</parameterid>
														<name>Scale</name>
														<valuemin>0</valuemin>
														<valuemax>1000</valuemax>
														<value>53.3333</value>
													</parameter>
													<parameter authoringApp="PremierePro">
														<parameterid>rotation</parameterid>
														<name>Rotation</name>
														<valuemin>-8640</valuemin>
														<valuemax>8640</valuemax>
														<value>0</value>
													</parameter>
													<parameter authoringApp="PremierePro">
														<parameterid>center</parameterid>
														<name>Center</name>
														<value>
															<horiz>0</horiz>
															<vert>0</vert>
														</value>
													</parameter>
													<parameter authoringApp="PremierePro">
														<parameterid>centerOffset</parameterid>
														<name>Anchor Point</name>
														<value>
															<horiz>0</horiz>
															<vert>0</vert>
														</value>
													</parameter>
													<parameter authoringApp="PremierePro">
														<parameterid>antiflicker</parameterid>
														<name>Anti-flicker Filter</name>
														<valuemin>0.0</valuemin>
														<valuemax>1.0</valuemax>
														<value>0</value>
													</parameter>
												</effect>
											</filter>
											<logginginfo>
												<description></description>
												<scene></scene>
												<shottake></shottake>
												<lognote></lognote>
												<good></good>
												<originalvideofilename></originalvideofilename>
												<originalaudiofilename></originalaudiofilename>
											</logginginfo>
											<colorinfo>
												<lut></lut>
												<lut1></lut1>
												<asc_sop></asc_sop>
												<asc_sat></asc_sat>
												<lut2></lut2>
											</colorinfo>
											<labels>
												<label2>Lavender</label2>
											</labels>
										</clipitem>
										<transitionitem>
											<start>1095</start>
											<end>1120</end>
											<alignment>end-black</alignment>
											<cutPointTicks>254016000000</cutPointTicks>
											<rate>
												<timebase>25</timebase>
												<ntsc>FALSE</ntsc>
											</rate>
											<effect>
												<name>Edge Wipe</name>
												<effectid>Edge Wipe</effectid>
												<effectcategory>Wipe</effectcategory>
												<effecttype>transition</effecttype>
												<mediatype>video</mediatype>
												<wipecode>2</wipecode>
												<wipeaccuracy>100</wipeaccuracy>
												<startratio>0</startratio>
												<endratio>1</endratio>
												<reverse>FALSE</reverse>
												<parameter authoringApp="PremierePro">
													<parameterid>directionofwipe</parameterid>
													<name>Angle</name>
													<valuemin>-360</valuemin>
													<valuemax>360</valuemax>
													<value>90</value>
												</parameter>
											</effect>
										</transitionitem>
										<enabled>TRUE</enabled>
										<locked>FALSE</locked>
									</track>
									<track TL.SQTrackShy="0" TL.SQTrackExpandedHeight="25" TL.SQTrackExpanded="0" MZ.TrackTargeted="0">
										<transitionitem>
											<start>755</start>
											<end>780</end>
											<alignment>start-black</alignment>
											<cutPointTicks>0</cutPointTicks>
											<rate>
												<timebase>25</timebase>
												<ntsc>FALSE</ntsc>
											</rate>
											<effect>
												<name>Edge Wipe</name>
												<effectid>Edge Wipe</effectid>
												<effectcategory>Wipe</effectcategory>
												<effecttype>transition</effecttype>
												<mediatype>video</mediatype>
												<wipecode>2</wipecode>
												<wipeaccuracy>100</wipeaccuracy>
												<startratio>0</startratio>
												<endratio>1</endratio>
												<reverse>FALSE</reverse>
												<parameter authoringApp="PremierePro">
													<parameterid>directionofwipe</parameterid>
													<name>Angle</name>
													<valuemin>-360</valuemin>
													<valuemax>360</valuemax>
													<value>270</value>
												</parameter>
											</effect>
										</transitionitem>
										<clipitem id="clipitem-1808">
											<masterclipid>masterclip-788</masterclipid>
											<name>Graphic</name>
											<enabled>FALSE</enabled>
											<duration>1080000</duration>
											<rate>
												<timebase>25</timebase>
												<ntsc>FALSE</ntsc>
											</rate>
											<start>-1</start>
											<end>-1</end>
											<in>89905</in>
											<out>90272</out>
											<pproTicksIn>913492339200000</pproTicksIn>
											<pproTicksOut>917221294080000</pproTicksOut>
											<alphatype>straight</alphatype>
											<pixelaspectratio>PAL-601</pixelaspectratio>
											<anamorphic>TRUE</anamorphic>
											<file id="file-653">
												<name>Graphic</name>
												<mediaSource>GraphicAndType</mediaSource>
												<rate>
													<timebase>30</timebase>
													<ntsc>TRUE</ntsc>
												</rate>
												<timecode>
													<rate>
														<timebase>30</timebase>
														<ntsc>TRUE</ntsc>
													</rate>
													<string>00;00;00;00</string>
													<frame>0</frame>
													<displayformat>DF</displayformat>
												</timecode>
												<media>
													<video>
														<samplecharacteristics>
															<rate>
																<timebase>30</timebase>
																<ntsc>TRUE</ntsc>
															</rate>
															<width>720</width>
															<height>576</height>
															<anamorphic>TRUE</anamorphic>
															<pixelaspectratio>PAL-601</pixelaspectratio>
															<fielddominance>none</fielddominance>
														</samplecharacteristics>
													</video>
												</media>
											</file>
											<filter>
												<effect>
													<name>Vector Motion</name>
													<effectid>GraphicGroup</effectid>
													<effectcategory>graphic</effectcategory>
													<effecttype>filter</effecttype>
													<mediatype>video</mediatype>
													<pproBypass>false</pproBypass>
													<parameter authoringApp="PremierePro">
														<parameterid>1</parameterid>
														<name>Position</name>
														<IsTimeVarying>false</IsTimeVarying>
														<value>-91445760000000000,0.81693898908787344:0.49085601568222115,0,0,0,0,0,0,5,4,0,0,0,0</value>
													</parameter>
													<parameter authoringApp="PremierePro">
														<parameterid>2</parameterid>
														<name>Scale</name>
														<IsTimeVarying>false</IsTimeVarying>
														<ParameterControlType>2</ParameterControlType>
														<LowerBound>0</LowerBound>
														<UpperBound>10000</UpperBound>
														<UpperUIBound>200</UpperUIBound>
														<value>-91445760000000000,100.,0,0,0,0,0,0</value>
													</parameter>
													<parameter authoringApp="PremierePro">
														<parameterid>3</parameterid>
														<name>Scale Width</name>
														<IsTimeVarying>false</IsTimeVarying>
														<ParameterControlType>2</ParameterControlType>
														<LowerBound>0</LowerBound>
														<UpperBound>10000</UpperBound>
														<UpperUIBound>200</UpperUIBound>
														<value>-91445760000000000,100.,0,0,0,0,0,0</value>
													</parameter>
													<parameter authoringApp="PremierePro">
														<parameterid>4</parameterid>
														<name> </name>
														<IsTimeVarying>false</IsTimeVarying>
														<ParameterControlType>4</ParameterControlType>
														<LowerBound>false</LowerBound>
														<UpperBound>true</UpperBound>
														<value>-91445760000000000,true,0,0,0,0,0,0</value>
													</parameter>
													<parameter authoringApp="PremierePro">
														<parameterid>5</parameterid>
														<name>Rotation</name>
														<IsTimeVarying>false</IsTimeVarying>
														<ParameterControlType>3</ParameterControlType>
														<LowerBound>-32768</LowerBound>
														<UpperBound>32767</UpperBound>
														<value>-91445760000000000,0.,0,0,0,0,0,0</value>
													</parameter>
													<parameter authoringApp="PremierePro">
														<parameterid>6</parameterid>
														<name>Anchor Point</name>
														<IsTimeVarying>false</IsTimeVarying>
														<value>-91445760000000000,0.5:0.5,0,0,0,0,0,0,5,4,0,0,0,0</value>
													</parameter>
												</effect>
											</filter>
											<filter>
												<effect>
													<name>Данил Прытков признаётся, &#13;что сильные провалы &#13;мотивируют его на творчество &#13;не меньше, чем победы. </name>
													<effectid>GraphicAndType</effectid>
													<effectcategory>graphic</effectcategory>
													<effecttype>filter</effecttype>
													<mediatype>video</mediatype>
													<pproBypass>false</pproBypass>
													<pproExpanded>true</pproExpanded>
													<parameter authoringApp="PremierePro">
														<parameterid>1</parameterid>
														<name>Source Text</name>
														<hash>698123b5-7d57-7b79-efb1-b0df00000a31</hash>
													</parameter>
													<parameter authoringApp="PremierePro">
														<parameterid>2</parameterid>
														<name>Transform</name>
														<IsTimeVarying>false</IsTimeVarying>
														<ParameterControlType>11</ParameterControlType>
														<LowerBound>false</LowerBound>
														<UpperBound>false</UpperBound>
														<value>-91445760000000000,false,0,0,0,0,0,0</value>
													</parameter>
													<parameter authoringApp="PremierePro">
														<parameterid>3</parameterid>
														<name>Position</name>
														<IsTimeVarying>false</IsTimeVarying>
														<value>-91445760000000000,0.270416259765625:0.640594482421875,0,0,0,0,0,0,5,4,0,0,0,0</value>
													</parameter>
													<parameter authoringApp="PremierePro">
														<parameterid>4</parameterid>
														<name>Scale</name>
														<IsTimeVarying>false</IsTimeVarying>
														<ParameterControlType>2</ParameterControlType>
														<LowerBound>0</LowerBound>
														<UpperBound>4000</UpperBound>
														<value>-91445760000000000,100.,0,0,0,0,0,0</value>
													</parameter>
													<parameter authoringApp="PremierePro">
														<parameterid>5</parameterid>
														<name>Horizontal Scale</name>
														<IsTimeVarying>false</IsTimeVarying>
														<ParameterControlType>2</ParameterControlType>
														<LowerBound>0</LowerBound>
														<UpperBound>4000</UpperBound>
														<value>-91445760000000000,100.,0,0,0,0,0,0</value>
													</parameter>
													<parameter authoringApp="PremierePro">
														<parameterid>6</parameterid>
														<name> </name>
														<IsTimeVarying>false</IsTimeVarying>
														<ParameterControlType>4</ParameterControlType>
														<LowerBound>false</LowerBound>
														<UpperBound>true</UpperBound>
														<value>-91445760000000000,true,0,0,0,0,0,0</value>
													</parameter>
													<parameter authoringApp="PremierePro">
														<parameterid>7</parameterid>
														<name>Rotation</name>
														<IsTimeVarying>false</IsTimeVarying>
														<ParameterControlType>3</ParameterControlType>
														<LowerBound>-32768</LowerBound>
														<UpperBound>32767</UpperBound>
														<value>-91445760000000000,0.,0,0,0,0,0,0</value>
													</parameter>
													<parameter authoringApp="PremierePro">
														<parameterid>8</parameterid>
														<name>Opacity</name>
														<IsTimeVarying>false</IsTimeVarying>
														<ParameterControlType>2</ParameterControlType>
														<LowerBound>0</LowerBound>
														<UpperBound>100</UpperBound>
														<value>-91445760000000000,100.,0,0,0,0,0,0</value>
													</parameter>
													<parameter authoringApp="PremierePro">
														<parameterid>9</parameterid>
														<name>Anchor Point</name>
														<IsTimeVarying>false</IsTimeVarying>
														<value>-91445760000000000,0:0,0,0,0,0,0,0,5,4,0,0,0,0</value>
													</parameter>
													<parameter authoringApp="PremierePro">
														<parameterid>10</parameterid>
														<name></name>
														<IsTimeVarying>false</IsTimeVarying>
														<ParameterControlType>12</ParameterControlType>
														<LowerBound>false</LowerBound>
														<UpperBound>false</UpperBound>
														<value>-91445760000000000,false,0,0,0,0,0,0</value>
													</parameter>
													<parameter authoringApp="PremierePro">
														<parameterid>11</parameterid>
														<name> </name>
														<IsTimeVarying>false</IsTimeVarying>
														<ParameterControlType>8</ParameterControlType>
														<LowerBound>0</LowerBound>
														<UpperBound>32768</UpperBound>
														<value>-91445760000000000,0.,0,0,0,0,0,0</value>
													</parameter>
													<parameter authoringApp="PremierePro">
														<parameterid>12</parameterid>
														<name> </name>
														<IsTimeVarying>false</IsTimeVarying>
														<ParameterControlType>8</ParameterControlType>
														<LowerBound>0</LowerBound>
														<UpperBound>32768</UpperBound>
														<value>-91445760000000000,0.,0,0,0,0,0,0</value>
													</parameter>
													<parameter authoringApp="PremierePro">
														<parameterid>13</parameterid>
														<name>start</name>
														<IsTimeVarying>false</IsTimeVarying>
														<ParameterControlType>8</ParameterControlType>
														<LowerBound>-100</LowerBound>
														<UpperBound>1000000000</UpperBound>
														<value>-91445760000000000,0.,0,0,0,0,0,0</value>
													</parameter>
													<parameter authoringApp="PremierePro">
														<parameterid>14</parameterid>
														<name>end</name>
														<IsTimeVarying>false</IsTimeVarying>
														<ParameterControlType>8</ParameterControlType>
														<LowerBound>-100</LowerBound>
														<UpperBound>1000000000</UpperBound>
														<value>-91445760000000000,101.,0,0,0,0,0,0</value>
													</parameter>
													<parameter authoringApp="PremierePro">
														<parameterid>15</parameterid>
														<name> </name>
														<IsTimeVarying>false</IsTimeVarying>
														<ParameterControlType>4</ParameterControlType>
														<LowerBound>false</LowerBound>
														<UpperBound>true</UpperBound>
														<value>-91445760000000000,false,0,0,0,0,0,0</value>
													</parameter>
													<parameter authoringApp="PremierePro">
														<parameterid>16</parameterid>
														<name> </name>
														<IsTimeVarying>false</IsTimeVarying>
														<ParameterControlType>4</ParameterControlType>
														<LowerBound>false</LowerBound>
														<UpperBound>true</UpperBound>
														<value>-91445760000000000,false,0,0,0,0,0,0</value>
													</parameter>
													<parameter authoringApp="PremierePro">
														<parameterid>17</parameterid>
														<name> </name>
														<IsTimeVarying>false</IsTimeVarying>
														<ParameterControlType>4</ParameterControlType>
														<LowerBound>false</LowerBound>
														<UpperBound>true</UpperBound>
														<value>-91445760000000000,false,0,0,0,0,0,0</value>
													</parameter>
													<parameter authoringApp="PremierePro">
														<parameterid>18</parameterid>
														<name> </name>
														<IsTimeVarying>false</IsTimeVarying>
														<ParameterControlType>4</ParameterControlType>
														<LowerBound>false</LowerBound>
														<UpperBound>true</UpperBound>
														<value>-91445760000000000,false,0,0,0,0,0,0</value>
													</parameter>
													<parameter authoringApp="PremierePro">
														<parameterid>19</parameterid>
														<name>Parent Width</name>
														<IsTimeVarying>false</IsTimeVarying>
														<ParameterControlType>2</ParameterControlType>
														<LowerBound>0</LowerBound>
														<UpperBound>20000</UpperBound>
														<value>-91445760000000000,0.,0,0,0,0,0,0</value>
													</parameter>
													<parameter authoringApp="PremierePro">
														<parameterid>20</parameterid>
														<name>Parent Height</name>
														<IsTimeVarying>false</IsTimeVarying>
														<ParameterControlType>2</ParameterControlType>
														<LowerBound>0</LowerBound>
														<UpperBound>20000</UpperBound>
														<value>-91445760000000000,0.,0,0,0,0,0,0</value>
													</parameter>
													<parameter authoringApp="PremierePro">
														<parameterid>21</parameterid>
														<name>Parent Rotation</name>
														<IsTimeVarying>false</IsTimeVarying>
														<ParameterControlType>3</ParameterControlType>
														<LowerBound>-32768</LowerBound>
														<UpperBound>32767</UpperBound>
														<value>-91445760000000000,0.,0,0,0,0,0,0</value>
													</parameter>
												</effect>
											</filter>
											<logginginfo>
												<description></description>
												<scene></scene>
												<shottake></shottake>
												<lognote></lognote>
												<good></good>
												<originalvideofilename></originalvideofilename>
												<originalaudiofilename></originalaudiofilename>
											</logginginfo>
											<colorinfo>
												<lut></lut>
												<lut1></lut1>
												<asc_sop></asc_sop>
												<asc_sat></asc_sat>
												<lut2></lut2>
											</colorinfo>
										</clipitem>
										<transitionitem>
											<start>1097</start>
											<end>1122</end>
											<alignment>end-black</alignment>
											<cutPointTicks>254016000000</cutPointTicks>
											<rate>
												<timebase>25</timebase>
												<ntsc>FALSE</ntsc>
											</rate>
											<effect>
												<name>Edge Wipe</name>
												<effectid>Edge Wipe</effectid>
												<effectcategory>Wipe</effectcategory>
												<effecttype>transition</effecttype>
												<mediatype>video</mediatype>
												<wipecode>2</wipecode>
												<wipeaccuracy>100</wipeaccuracy>
												<startratio>0</startratio>
												<endratio>1</endratio>
												<reverse>FALSE</reverse>
												<parameter authoringApp="PremierePro">
													<parameterid>directionofwipe</parameterid>
													<name>Angle</name>
													<valuemin>-360</valuemin>
													<valuemax>360</valuemax>
													<value>90</value>
												</parameter>
											</effect>
										</transitionitem>
										<enabled>TRUE</enabled>
										<locked>FALSE</locked>
									</track>
								</video>
								<audio>
									<numOutputChannels>2</numOutputChannels>
									<format>
										<samplecharacteristics>
											<depth>16</depth>
											<samplerate>48000</samplerate>
										</samplecharacteristics>
									</format>
									<outputs>
										<group>
											<index>1</index>
											<numchannels>1</numchannels>
											<downmix>0</downmix>
											<channel>
												<index>1</index>
											</channel>
										</group>
										<group>
											<index>2</index>
											<numchannels>1</numchannels>
											<downmix>0</downmix>
											<channel>
												<index>2</index>
											</channel>
										</group>
									</outputs>
									<track TL.SQTrackAudioKeyframeStyle="0" TL.SQTrackShy="0" TL.SQTrackExpandedHeight="25" TL.SQTrackExpanded="0" MZ.TrackTargeted="1" PannerCurrentValue="0.5" PannerStartKeyframe="-91445760000000000,0.5,0,0,0,0,0,0" PannerName="Balance" currentExplodedTrackIndex="0" totalExplodedTrackCount="2" premiereTrackType="Stereo">
										<enabled>TRUE</enabled>
										<locked>FALSE</locked>
										<outputchannelindex>1</outputchannelindex>
									</track>
									<track TL.SQTrackAudioKeyframeStyle="0" TL.SQTrackShy="0" TL.SQTrackExpandedHeight="25" TL.SQTrackExpanded="0" MZ.TrackTargeted="1" PannerCurrentValue="0.5" PannerStartKeyframe="-91445760000000000,0.5,0,0,0,0,0,0" PannerName="Balance" currentExplodedTrackIndex="1" totalExplodedTrackCount="2" premiereTrackType="Stereo">
										<enabled>TRUE</enabled>
										<locked>FALSE</locked>
										<outputchannelindex>2</outputchannelindex>
									</track>
								</audio>
							</media>
							<timecode>
								<rate>
									<timebase>25</timebase>
									<ntsc>FALSE</ntsc>
								</rate>
								<string>00:00:00:00</string>
								<frame>0</frame>
								<displayformat>NDF</displayformat>
							</timecode>
								<marker>
									<comment></comment>
									<name></name>
									<in>50</in>
									<out>-1</out>
									<pproColor>4292277273</pproColor>
								</marker>
								<marker>
									<comment></comment>
									<name></name>
									<in>425</in>
									<out>-1</out>
									<pproColor>4292277273</pproColor>
								</marker>
								<marker>
									<comment></comment>
									<name></name>
									<in>800</in>
									<out>-1</out>
									<pproColor>4292277273</pproColor>
								</marker>
							<logginginfo>
								<description></description>
								<scene></scene>
								<shottake></shottake>
								<lognote></lognote>
								<good></good>
								<originalvideofilename></originalvideofilename>
								<originalaudiofilename></originalaudiofilename>
							</logginginfo>
						</sequence>
							<marker>
								<comment></comment>
								<name></name>
								<in>50</in>
								<out>-1</out>
								<pproColor>4292277273</pproColor>
							</marker>
							<marker>
								<comment></comment>
								<name></name>
								<in>425</in>
								<out>-1</out>
								<pproColor>4292277273</pproColor>
							</marker>
							<marker>
								<comment></comment>
								<name></name>
								<in>800</in>
								<out>-1</out>
								<pproColor>4292277273</pproColor>
							</marker>
						<labels>
							<label2>Forest</label2>
						</labels>
					</clipitem>
					<clipitem id="clipitem-1809">
						<masterclipid>masterclip-783</masterclipid>
						<name>12</name>
						<enabled>FALSE</enabled>
						<duration>1125</duration>
						<rate>
							<timebase>25</timebase>
							<ntsc>FALSE</ntsc>
						</rate>
						<start>2828</start>
						<end>3203</end>
						<in>375</in>
						<out>750</out>
						<pproTicksIn>3810240000000</pproTicksIn>
						<pproTicksOut>7620480000000</pproTicksOut>
						<sequence id="sequence-145"/>
							<marker>
								<comment></comment>
								<name></name>
								<in>50</in>
								<out>-1</out>
								<pproColor>4292277273</pproColor>
							</marker>
							<marker>
								<comment></comment>
								<name></name>
								<in>425</in>
								<out>-1</out>
								<pproColor>4292277273</pproColor>
							</marker>
							<marker>
								<comment></comment>
								<name></name>
								<in>800</in>
								<out>-1</out>
								<pproColor>4292277273</pproColor>
							</marker>
						<labels>
							<label2>Forest</label2>
						</labels>
					</clipitem>
					<clipitem id="clipitem-1810">
						<masterclipid>masterclip-783</masterclipid>
						<name>12</name>
						<enabled>FALSE</enabled>
						<duration>1125</duration>
						<rate>
							<timebase>25</timebase>
							<ntsc>FALSE</ntsc>
						</rate>
						<start>4089</start>
						<end>4464</end>
						<in>750</in>
						<out>1125</out>
						<pproTicksIn>7620480000000</pproTicksIn>
						<pproTicksOut>11430720000000</pproTicksOut>
						<sequence id="sequence-145"/>
							<marker>
								<comment></comment>
								<name></name>
								<in>50</in>
								<out>-1</out>
								<pproColor>4292277273</pproColor>
							</marker>
							<marker>
								<comment></comment>
								<name></name>
								<in>425</in>
								<out>-1</out>
								<pproColor>4292277273</pproColor>
							</marker>
							<marker>
								<comment></comment>
								<name></name>
								<in>800</in>
								<out>-1</out>
								<pproColor>4292277273</pproColor>
							</marker>
						<labels>
							<label2>Forest</label2>
						</labels>
					</clipitem>
					<clipitem id="clipitem-1811">
						<masterclipid>masterclip-789</masterclipid>
						<name>11</name>
						<enabled>FALSE</enabled>
						<duration>1125</duration>
						<rate>
							<timebase>25</timebase>
							<ntsc>FALSE</ntsc>
						</rate>
						<start>6702</start>
						<end>7077</end>
						<in>0</in>
						<out>375</out>
						<pproTicksIn>0</pproTicksIn>
						<pproTicksOut>3810240000000</pproTicksOut>
						<sequence id="sequence-146" TL.SQAudioVisibleBase="0" TL.SQVideoVisibleBase="0" TL.SQVisibleBaseTime="0" TL.SQAVDividerPosition="0.5" TL.SQHideShyTracks="0" TL.SQHeaderWidth="236" Monitor.ProgramZoomOut="11430720000000" Monitor.ProgramZoomIn="0" TL.SQTimePerPixel="0.19620667102680819" AM.TrackVScrollPosition="0" AM.TrackScrollPosition="0" MZ.EditLine="7691604480000" MZ.Sequence.PreviewFrameSizeHeight="576" MZ.Sequence.PreviewFrameSizeWidth="720" MZ.Sequence.AudioTimeDisplayFormat="200" MZ.Sequence.PreviewRenderingClassID="1061109567" MZ.Sequence.PreviewRenderingPresetCodec="1685480304" MZ.Sequence.PreviewRenderingPresetPath="EncoderPresets/SequencePreview/04be6e19-a018-4e0c-a9d6-0ab44c64752b/QuickTime DV PAL.epr" MZ.Sequence.PreviewUseMaxRenderQuality="false" MZ.Sequence.PreviewUseMaxBitDepth="false" MZ.Sequence.EditingModeGUID="04be6e19-a018-4e0c-a9d6-0ab44c64752b" MZ.Sequence.VideoTimeDisplayFormat="101" MZ.WorkOutPoint="11430720000000" MZ.WorkInPoint="0" MZ.ZeroPoint="0">
							<duration>1125</duration>
							<rate>
								<timebase>25</timebase>
								<ntsc>FALSE</ntsc>
							</rate>
							<name>RU_Nested</name>
							<media>
								<video>
									<format>
										<samplecharacteristics>
											<rate>
												<timebase>25</timebase>
												<ntsc>FALSE</ntsc>
											</rate>
											<codec>
												<name>Apple ProRes 422</name>
												<appspecificdata>
													<appname>Final Cut Pro</appname>
													<appmanufacturer>Apple Inc.</appmanufacturer>
													<appversion>7.0</appversion>
													<data>
														<qtcodec>
															<codecname>Apple ProRes 422</codecname>
															<codectypename>Apple ProRes 422</codectypename>
															<codectypecode>apcn</codectypecode>
															<codecvendorcode>appl</codecvendorcode>
															<spatialquality>1024</spatialquality>
															<temporalquality>0</temporalquality>
															<keyframerate>0</keyframerate>
															<datarate>0</datarate>
														</qtcodec>
													</data>
												</appspecificdata>
											</codec>
											<width>720</width>
											<height>576</height>
											<anamorphic>TRUE</anamorphic>
											<pixelaspectratio>PAL-601</pixelaspectratio>
											<fielddominance>lower</fielddominance>
											<colordepth>24</colordepth>
										</samplecharacteristics>
									</format>
									<track TL.SQTrackShy="0" TL.SQTrackExpandedHeight="25" TL.SQTrackExpanded="0" MZ.TrackTargeted="1">
										<clipitem id="clipitem-1812">
											<masterclipid>masterclip-790</masterclipid>
											<name>Plashka_Right_DV.mov</name>
											<enabled>TRUE</enabled>
											<duration>375</duration>
											<rate>
												<timebase>25</timebase>
												<ntsc>FALSE</ntsc>
											</rate>
											<start>0</start>
											<end>375</end>
											<in>0</in>
											<out>375</out>
											<pproTicksIn>0</pproTicksIn>
											<pproTicksOut>3810240000000</pproTicksOut>
											<alphatype>straight</alphatype>
											<pixelaspectratio>PAL-601</pixelaspectratio>
											<anamorphic>TRUE</anamorphic>
											<file id="file-654">
												<name>Plashka_Right_DV.mov</name>
												<pathurl>file://localhost/Volumes/1Tb/_MUZ_TV/graphika/RU-21/MOD/Plashka_Right_DV.mov</pathurl>
												<rate>
													<timebase>25</timebase>
													<ntsc>FALSE</ntsc>
												</rate>
												<duration>375</duration>
												<timecode>
													<rate>
														<timebase>25</timebase>
														<ntsc>FALSE</ntsc>
													</rate>
													<string>00:00:15:10</string>
													<frame>385</frame>
													<displayformat>NDF</displayformat>
												</timecode>
												<media>
													<video>
														<samplecharacteristics>
															<rate>
																<timebase>25</timebase>
																<ntsc>FALSE</ntsc>
															</rate>
															<width>720</width>
															<height>576</height>
															<anamorphic>TRUE</anamorphic>
															<pixelaspectratio>PAL-601</pixelaspectratio>
															<fielddominance>lower</fielddominance>
														</samplecharacteristics>
													</video>
												</media>
											</file>
											<filter>
												<effect>
													<name>Basic Motion</name>
													<effectid>basic</effectid>
													<effectcategory>motion</effectcategory>
													<effecttype>motion</effecttype>
													<mediatype>video</mediatype>
													<pproBypass>false</pproBypass>
													<parameter authoringApp="PremierePro">
														<parameterid>scale</parameterid>
														<name>Scale</name>
														<valuemin>0</valuemin>
														<valuemax>1000</valuemax>
														<value>100</value>
													</parameter>
													<parameter authoringApp="PremierePro">
														<parameterid>rotation</parameterid>
														<name>Rotation</name>
														<valuemin>-8640</valuemin>
														<valuemax>8640</valuemax>
														<value>0</value>
													</parameter>
													<parameter authoringApp="PremierePro">
														<parameterid>center</parameterid>
														<name>Center</name>
														<value>
															<horiz>-5.55112e-17</horiz>
															<vert>-1.11022e-16</vert>
														</value>
													</parameter>
													<parameter authoringApp="PremierePro">
														<parameterid>centerOffset</parameterid>
														<name>Anchor Point</name>
														<value>
															<horiz>0.402314</horiz>
															<vert>0.41875</vert>
														</value>
													</parameter>
													<parameter authoringApp="PremierePro">
														<parameterid>antiflicker</parameterid>
														<name>Anti-flicker Filter</name>
														<valuemin>0.0</valuemin>
														<valuemax>1.0</valuemax>
														<value>0</value>
													</parameter>
												</effect>
											</filter>
											<filter>
												<effect>
													<name>Distort</name>
													<effectid>deformation</effectid>
													<effectcategory>motion</effectcategory>
													<effecttype>motion</effecttype>
													<mediatype>video</mediatype>
													<parameter authoringApp="PremierePro">
														<parameterid>aspect</parameterid>
														<name>Aspect</name>
														<valuemin>-10000</valuemin>
														<valuemax>10000</valuemax>
														<value>11.1111</value>
													</parameter>
												</effect>
											</filter>
											<logginginfo>
												<description></description>
												<scene></scene>
												<shottake></shottake>
												<lognote></lognote>
												<good></good>
												<originalvideofilename></originalvideofilename>
												<originalaudiofilename></originalaudiofilename>
											</logginginfo>
											<colorinfo>
												<lut></lut>
												<lut1></lut1>
												<asc_sop></asc_sop>
												<asc_sat></asc_sat>
												<lut2></lut2>
											</colorinfo>
											<labels>
												<label2>Violet</label2>
											</labels>
										</clipitem>
										<clipitem id="clipitem-1813">
											<masterclipid>masterclip-790</masterclipid>
											<name>Plashka_Right_DV.mov</name>
											<enabled>TRUE</enabled>
											<duration>375</duration>
											<rate>
												<timebase>25</timebase>
												<ntsc>FALSE</ntsc>
											</rate>
											<start>375</start>
											<end>750</end>
											<in>0</in>
											<out>375</out>
											<pproTicksIn>0</pproTicksIn>
											<pproTicksOut>3810240000000</pproTicksOut>
											<alphatype>straight</alphatype>
											<file id="file-654"/>
											<filter>
												<effect>
													<name>Basic Motion</name>
													<effectid>basic</effectid>
													<effectcategory>motion</effectcategory>
													<effecttype>motion</effecttype>
													<mediatype>video</mediatype>
													<pproBypass>false</pproBypass>
													<parameter authoringApp="PremierePro">
														<parameterid>scale</parameterid>
														<name>Scale</name>
														<valuemin>0</valuemin>
														<valuemax>1000</valuemax>
														<value>100</value>
													</parameter>
													<parameter authoringApp="PremierePro">
														<parameterid>rotation</parameterid>
														<name>Rotation</name>
														<valuemin>-8640</valuemin>
														<valuemax>8640</valuemax>
														<value>0</value>
													</parameter>
													<parameter authoringApp="PremierePro">
														<parameterid>center</parameterid>
														<name>Center</name>
														<value>
															<horiz>-5.55112e-17</horiz>
															<vert>-1.11022e-16</vert>
														</value>
													</parameter>
													<parameter authoringApp="PremierePro">
														<parameterid>centerOffset</parameterid>
														<name>Anchor Point</name>
														<value>
															<horiz>0.402314</horiz>
															<vert>0.41875</vert>
														</value>
													</parameter>
													<parameter authoringApp="PremierePro">
														<parameterid>antiflicker</parameterid>
														<name>Anti-flicker Filter</name>
														<valuemin>0.0</valuemin>
														<valuemax>1.0</valuemax>
														<value>0</value>
													</parameter>
												</effect>
											</filter>
											<filter>
												<effect>
													<name>Distort</name>
													<effectid>deformation</effectid>
													<effectcategory>motion</effectcategory>
													<effecttype>motion</effecttype>
													<mediatype>video</mediatype>
													<parameter authoringApp="PremierePro">
														<parameterid>aspect</parameterid>
														<name>Aspect</name>
														<valuemin>-10000</valuemin>
														<valuemax>10000</valuemax>
														<value>11.1111</value>
													</parameter>
												</effect>
											</filter>
											<logginginfo>
												<description></description>
												<scene></scene>
												<shottake></shottake>
												<lognote></lognote>
												<good></good>
												<originalvideofilename></originalvideofilename>
												<originalaudiofilename></originalaudiofilename>
											</logginginfo>
											<colorinfo>
												<lut></lut>
												<lut1></lut1>
												<asc_sop></asc_sop>
												<asc_sat></asc_sat>
												<lut2></lut2>
											</colorinfo>
											<labels>
												<label2>Violet</label2>
											</labels>
										</clipitem>
										<clipitem id="clipitem-1814">
											<masterclipid>masterclip-790</masterclipid>
											<name>Plashka_Right_DV.mov</name>
											<enabled>TRUE</enabled>
											<duration>375</duration>
											<rate>
												<timebase>25</timebase>
												<ntsc>FALSE</ntsc>
											</rate>
											<start>750</start>
											<end>1125</end>
											<in>0</in>
											<out>375</out>
											<pproTicksIn>0</pproTicksIn>
											<pproTicksOut>3810240000000</pproTicksOut>
											<alphatype>straight</alphatype>
											<file id="file-654"/>
											<filter>
												<effect>
													<name>Basic Motion</name>
													<effectid>basic</effectid>
													<effectcategory>motion</effectcategory>
													<effecttype>motion</effecttype>
													<mediatype>video</mediatype>
													<pproBypass>false</pproBypass>
													<parameter authoringApp="PremierePro">
														<parameterid>scale</parameterid>
														<name>Scale</name>
														<valuemin>0</valuemin>
														<valuemax>1000</valuemax>
														<value>100</value>
													</parameter>
													<parameter authoringApp="PremierePro">
														<parameterid>rotation</parameterid>
														<name>Rotation</name>
														<valuemin>-8640</valuemin>
														<valuemax>8640</valuemax>
														<value>0</value>
													</parameter>
													<parameter authoringApp="PremierePro">
														<parameterid>center</parameterid>
														<name>Center</name>
														<value>
															<horiz>-5.55112e-17</horiz>
															<vert>-1.11022e-16</vert>
														</value>
													</parameter>
													<parameter authoringApp="PremierePro">
														<parameterid>centerOffset</parameterid>
														<name>Anchor Point</name>
														<value>
															<horiz>0.402314</horiz>
															<vert>0.41875</vert>
														</value>
													</parameter>
													<parameter authoringApp="PremierePro">
														<parameterid>antiflicker</parameterid>
														<name>Anti-flicker Filter</name>
														<valuemin>0.0</valuemin>
														<valuemax>1.0</valuemax>
														<value>0</value>
													</parameter>
												</effect>
											</filter>
											<filter>
												<effect>
													<name>Distort</name>
													<effectid>deformation</effectid>
													<effectcategory>motion</effectcategory>
													<effecttype>motion</effecttype>
													<mediatype>video</mediatype>
													<parameter authoringApp="PremierePro">
														<parameterid>aspect</parameterid>
														<name>Aspect</name>
														<valuemin>-10000</valuemin>
														<valuemax>10000</valuemax>
														<value>11.1111</value>
													</parameter>
												</effect>
											</filter>
											<logginginfo>
												<description></description>
												<scene></scene>
												<shottake></shottake>
												<lognote></lognote>
												<good></good>
												<originalvideofilename></originalvideofilename>
												<originalaudiofilename></originalaudiofilename>
											</logginginfo>
											<colorinfo>
												<lut></lut>
												<lut1></lut1>
												<asc_sop></asc_sop>
												<asc_sat></asc_sat>
												<lut2></lut2>
											</colorinfo>
											<labels>
												<label2>Violet</label2>
											</labels>
										</clipitem>
										<enabled>TRUE</enabled>
										<locked>FALSE</locked>
									</track>
									<track TL.SQTrackShy="0" TL.SQTrackExpandedHeight="25" TL.SQTrackExpanded="0" MZ.TrackTargeted="0">
										<transitionitem>
											<start>6</start>
											<end>35</end>
											<alignment>start-black</alignment>
											<cutPointTicks>0</cutPointTicks>
											<rate>
												<timebase>25</timebase>
												<ntsc>FALSE</ntsc>
											</rate>
											<effect>
												<name>Edge Wipe</name>
												<effectid>Edge Wipe</effectid>
												<effectcategory>Wipe</effectcategory>
												<effecttype>transition</effecttype>
												<mediatype>video</mediatype>
												<wipecode>2</wipecode>
												<wipeaccuracy>100</wipeaccuracy>
												<startratio>0</startratio>
												<endratio>1</endratio>
												<reverse>FALSE</reverse>
												<parameter authoringApp="PremierePro">
													<parameterid>directionofwipe</parameterid>
													<name>Angle</name>
													<valuemin>-360</valuemin>
													<valuemax>360</valuemax>
													<value>270</value>
												</parameter>
											</effect>
										</transitionitem>
										<clipitem id="clipitem-1815">
											<masterclipid>masterclip-791</masterclipid>
											<name>11_1.png</name>
											<enabled>TRUE</enabled>
											<duration>1080000</duration>
											<rate>
												<timebase>25</timebase>
												<ntsc>FALSE</ntsc>
											</rate>
											<start>-1</start>
											<end>-1</end>
											<in>90006</in>
											<out>90369</out>
											<pproTicksIn>914518563840000</pproTicksIn>
											<pproTicksOut>918206876160000</pproTicksOut>
											<alphatype>straight</alphatype>
											<pixelaspectratio>square</pixelaspectratio>
											<anamorphic>FALSE</anamorphic>
											<file id="file-655">
												<name>11_1.png</name>
												<pathurl>file://localhost/_MUZ_TV/project_AP/RU/_TITLE/468/PNG/11_1.png</pathurl>
												<rate>
													<timebase>30</timebase>
													<ntsc>TRUE</ntsc>
												</rate>
												<timecode>
													<rate>
														<timebase>30</timebase>
														<ntsc>TRUE</ntsc>
													</rate>
													<string>00;00;00;00</string>
													<frame>0</frame>
													<displayformat>DF</displayformat>
												</timecode>
												<media>
													<video>
														<samplecharacteristics>
															<rate>
																<timebase>30</timebase>
																<ntsc>TRUE</ntsc>
															</rate>
															<width>1920</width>
															<height>1080</height>
															<anamorphic>FALSE</anamorphic>
															<pixelaspectratio>square</pixelaspectratio>
															<fielddominance>none</fielddominance>
														</samplecharacteristics>
													</video>
												</media>
											</file>
											<filter>
												<effect>
													<name>Basic Motion</name>
													<effectid>basic</effectid>
													<effectcategory>motion</effectcategory>
													<effecttype>motion</effecttype>
													<mediatype>video</mediatype>
													<pproBypass>false</pproBypass>
													<parameter authoringApp="PremierePro">
														<parameterid>scale</parameterid>
														<name>Scale</name>
														<valuemin>0</valuemin>
														<valuemax>1000</valuemax>
														<value>53.3333</value>
													</parameter>
													<parameter authoringApp="PremierePro">
														<parameterid>rotation</parameterid>
														<name>Rotation</name>
														<valuemin>-8640</valuemin>
														<valuemax>8640</valuemax>
														<value>0</value>
													</parameter>
													<parameter authoringApp="PremierePro">
														<parameterid>center</parameterid>
														<name>Center</name>
														<value>
															<horiz>0</horiz>
															<vert>0</vert>
														</value>
													</parameter>
													<parameter authoringApp="PremierePro">
														<parameterid>centerOffset</parameterid>
														<name>Anchor Point</name>
														<value>
															<horiz>0</horiz>
															<vert>0</vert>
														</value>
													</parameter>
													<parameter authoringApp="PremierePro">
														<parameterid>antiflicker</parameterid>
														<name>Anti-flicker Filter</name>
														<valuemin>0.0</valuemin>
														<valuemax>1.0</valuemax>
														<value>0</value>
													</parameter>
												</effect>
											</filter>
											<logginginfo>
												<description></description>
												<scene></scene>
												<shottake></shottake>
												<lognote></lognote>
												<good></good>
												<originalvideofilename></originalvideofilename>
												<originalaudiofilename></originalaudiofilename>
											</logginginfo>
											<colorinfo>
												<lut></lut>
												<lut1></lut1>
												<asc_sop></asc_sop>
												<asc_sat></asc_sat>
												<lut2></lut2>
											</colorinfo>
											<labels>
												<label2>Lavender</label2>
											</labels>
										</clipitem>
										<transitionitem>
											<start>344</start>
											<end>369</end>
											<alignment>end-black</alignment>
											<cutPointTicks>254016000000</cutPointTicks>
											<rate>
												<timebase>25</timebase>
												<ntsc>FALSE</ntsc>
											</rate>
											<effect>
												<name>Edge Wipe</name>
												<effectid>Edge Wipe</effectid>
												<effectcategory>Wipe</effectcategory>
												<effecttype>transition</effecttype>
												<mediatype>video</mediatype>
												<wipecode>2</wipecode>
												<wipeaccuracy>100</wipeaccuracy>
												<startratio>0</startratio>
												<endratio>1</endratio>
												<reverse>FALSE</reverse>
												<parameter authoringApp="PremierePro">
													<parameterid>directionofwipe</parameterid>
													<name>Angle</name>
													<valuemin>-360</valuemin>
													<valuemax>360</valuemax>
													<value>90</value>
												</parameter>
											</effect>
										</transitionitem>
										<transitionitem>
											<start>381</start>
											<end>410</end>
											<alignment>start-black</alignment>
											<cutPointTicks>0</cutPointTicks>
											<rate>
												<timebase>25</timebase>
												<ntsc>FALSE</ntsc>
											</rate>
											<effect>
												<name>Edge Wipe</name>
												<effectid>Edge Wipe</effectid>
												<effectcategory>Wipe</effectcategory>
												<effecttype>transition</effecttype>
												<mediatype>video</mediatype>
												<wipecode>2</wipecode>
												<wipeaccuracy>100</wipeaccuracy>
												<startratio>0</startratio>
												<endratio>1</endratio>
												<reverse>FALSE</reverse>
												<parameter authoringApp="PremierePro">
													<parameterid>directionofwipe</parameterid>
													<name>Angle</name>
													<valuemin>-360</valuemin>
													<valuemax>360</valuemax>
													<value>270</value>
												</parameter>
											</effect>
										</transitionitem>
										<clipitem id="clipitem-1816">
											<masterclipid>masterclip-792</masterclipid>
											<name>11_2.png</name>
											<enabled>TRUE</enabled>
											<duration>1080000</duration>
											<rate>
												<timebase>25</timebase>
												<ntsc>FALSE</ntsc>
											</rate>
											<start>-1</start>
											<end>-1</end>
											<in>90011</in>
											<out>90374</out>
											<pproTicksIn>914569367040000</pproTicksIn>
											<pproTicksOut>918257679360000</pproTicksOut>
											<alphatype>straight</alphatype>
											<pixelaspectratio>square</pixelaspectratio>
											<anamorphic>FALSE</anamorphic>
											<file id="file-656">
												<name>11_2.png</name>
												<pathurl>file://localhost/_MUZ_TV/project_AP/RU/_TITLE/468/PNG/11_2.png</pathurl>
												<rate>
													<timebase>30</timebase>
													<ntsc>TRUE</ntsc>
												</rate>
												<timecode>
													<rate>
														<timebase>30</timebase>
														<ntsc>TRUE</ntsc>
													</rate>
													<string>00;00;00;00</string>
													<frame>0</frame>
													<displayformat>DF</displayformat>
												</timecode>
												<media>
													<video>
														<samplecharacteristics>
															<rate>
																<timebase>30</timebase>
																<ntsc>TRUE</ntsc>
															</rate>
															<width>1920</width>
															<height>1080</height>
															<anamorphic>FALSE</anamorphic>
															<pixelaspectratio>square</pixelaspectratio>
															<fielddominance>none</fielddominance>
														</samplecharacteristics>
													</video>
												</media>
											</file>
											<filter>
												<effect>
													<name>Basic Motion</name>
													<effectid>basic</effectid>
													<effectcategory>motion</effectcategory>
													<effecttype>motion</effecttype>
													<mediatype>video</mediatype>
													<pproBypass>false</pproBypass>
													<parameter authoringApp="PremierePro">
														<parameterid>scale</parameterid>
														<name>Scale</name>
														<valuemin>0</valuemin>
														<valuemax>1000</valuemax>
														<value>53.3333</value>
													</parameter>
													<parameter authoringApp="PremierePro">
														<parameterid>rotation</parameterid>
														<name>Rotation</name>
														<valuemin>-8640</valuemin>
														<valuemax>8640</valuemax>
														<value>0</value>
													</parameter>
													<parameter authoringApp="PremierePro">
														<parameterid>center</parameterid>
														<name>Center</name>
														<value>
															<horiz>0</horiz>
															<vert>0</vert>
														</value>
													</parameter>
													<parameter authoringApp="PremierePro">
														<parameterid>centerOffset</parameterid>
														<name>Anchor Point</name>
														<value>
															<horiz>0</horiz>
															<vert>0</vert>
														</value>
													</parameter>
													<parameter authoringApp="PremierePro">
														<parameterid>antiflicker</parameterid>
														<name>Anti-flicker Filter</name>
														<valuemin>0.0</valuemin>
														<valuemax>1.0</valuemax>
														<value>0</value>
													</parameter>
												</effect>
											</filter>
											<logginginfo>
												<description></description>
												<scene></scene>
												<shottake></shottake>
												<lognote></lognote>
												<good></good>
												<originalvideofilename></originalvideofilename>
												<originalaudiofilename></originalaudiofilename>
											</logginginfo>
											<colorinfo>
												<lut></lut>
												<lut1></lut1>
												<asc_sop></asc_sop>
												<asc_sat></asc_sat>
												<lut2></lut2>
											</colorinfo>
											<labels>
												<label2>Lavender</label2>
											</labels>
										</clipitem>
										<transitionitem>
											<start>719</start>
											<end>744</end>
											<alignment>end-black</alignment>
											<cutPointTicks>254016000000</cutPointTicks>
											<rate>
												<timebase>25</timebase>
												<ntsc>FALSE</ntsc>
											</rate>
											<effect>
												<name>Edge Wipe</name>
												<effectid>Edge Wipe</effectid>
												<effectcategory>Wipe</effectcategory>
												<effecttype>transition</effecttype>
												<mediatype>video</mediatype>
												<wipecode>2</wipecode>
												<wipeaccuracy>100</wipeaccuracy>
												<startratio>0</startratio>
												<endratio>1</endratio>
												<reverse>FALSE</reverse>
												<parameter authoringApp="PremierePro">
													<parameterid>directionofwipe</parameterid>
													<name>Angle</name>
													<valuemin>-360</valuemin>
													<valuemax>360</valuemax>
													<value>90</value>
												</parameter>
											</effect>
										</transitionitem>
										<transitionitem>
											<start>756</start>
											<end>785</end>
											<alignment>start-black</alignment>
											<cutPointTicks>0</cutPointTicks>
											<rate>
												<timebase>25</timebase>
												<ntsc>FALSE</ntsc>
											</rate>
											<effect>
												<name>Edge Wipe</name>
												<effectid>Edge Wipe</effectid>
												<effectcategory>Wipe</effectcategory>
												<effecttype>transition</effecttype>
												<mediatype>video</mediatype>
												<wipecode>2</wipecode>
												<wipeaccuracy>100</wipeaccuracy>
												<startratio>0</startratio>
												<endratio>1</endratio>
												<reverse>FALSE</reverse>
												<parameter authoringApp="PremierePro">
													<parameterid>directionofwipe</parameterid>
													<name>Angle</name>
													<valuemin>-360</valuemin>
													<valuemax>360</valuemax>
													<value>270</value>
												</parameter>
											</effect>
										</transitionitem>
										<clipitem id="clipitem-1817">
											<masterclipid>masterclip-793</masterclipid>
											<name>11_3.png</name>
											<enabled>TRUE</enabled>
											<duration>1080000</duration>
											<rate>
												<timebase>25</timebase>
												<ntsc>FALSE</ntsc>
											</rate>
											<start>-1</start>
											<end>-1</end>
											<in>90011</in>
											<out>90375</out>
											<pproTicksIn>914569367040000</pproTicksIn>
											<pproTicksOut>918267840000000</pproTicksOut>
											<alphatype>straight</alphatype>
											<pixelaspectratio>square</pixelaspectratio>
											<anamorphic>FALSE</anamorphic>
											<file id="file-657">
												<name>11_3.png</name>
												<pathurl>file://localhost/_MUZ_TV/project_AP/RU/_TITLE/468/PNG/11_3.png</pathurl>
												<rate>
													<timebase>30</timebase>
													<ntsc>TRUE</ntsc>
												</rate>
												<timecode>
													<rate>
														<timebase>30</timebase>
														<ntsc>TRUE</ntsc>
													</rate>
													<string>00;00;00;00</string>
													<frame>0</frame>
													<displayformat>DF</displayformat>
												</timecode>
												<media>
													<video>
														<samplecharacteristics>
															<rate>
																<timebase>30</timebase>
																<ntsc>TRUE</ntsc>
															</rate>
															<width>1920</width>
															<height>1080</height>
															<anamorphic>FALSE</anamorphic>
															<pixelaspectratio>square</pixelaspectratio>
															<fielddominance>none</fielddominance>
														</samplecharacteristics>
													</video>
												</media>
											</file>
											<filter>
												<effect>
													<name>Basic Motion</name>
													<effectid>basic</effectid>
													<effectcategory>motion</effectcategory>
													<effecttype>motion</effecttype>
													<mediatype>video</mediatype>
													<pproBypass>false</pproBypass>
													<parameter authoringApp="PremierePro">
														<parameterid>scale</parameterid>
														<name>Scale</name>
														<valuemin>0</valuemin>
														<valuemax>1000</valuemax>
														<value>53.3333</value>
													</parameter>
													<parameter authoringApp="PremierePro">
														<parameterid>rotation</parameterid>
														<name>Rotation</name>
														<valuemin>-8640</valuemin>
														<valuemax>8640</valuemax>
														<value>0</value>
													</parameter>
													<parameter authoringApp="PremierePro">
														<parameterid>center</parameterid>
														<name>Center</name>
														<value>
															<horiz>0</horiz>
															<vert>0</vert>
														</value>
													</parameter>
													<parameter authoringApp="PremierePro">
														<parameterid>centerOffset</parameterid>
														<name>Anchor Point</name>
														<value>
															<horiz>0</horiz>
															<vert>0</vert>
														</value>
													</parameter>
													<parameter authoringApp="PremierePro">
														<parameterid>antiflicker</parameterid>
														<name>Anti-flicker Filter</name>
														<valuemin>0.0</valuemin>
														<valuemax>1.0</valuemax>
														<value>0</value>
													</parameter>
												</effect>
											</filter>
											<logginginfo>
												<description></description>
												<scene></scene>
												<shottake></shottake>
												<lognote></lognote>
												<good></good>
												<originalvideofilename></originalvideofilename>
												<originalaudiofilename></originalaudiofilename>
											</logginginfo>
											<colorinfo>
												<lut></lut>
												<lut1></lut1>
												<asc_sop></asc_sop>
												<asc_sat></asc_sat>
												<lut2></lut2>
											</colorinfo>
											<labels>
												<label2>Lavender</label2>
											</labels>
										</clipitem>
										<transitionitem>
											<start>1095</start>
											<end>1120</end>
											<alignment>end-black</alignment>
											<cutPointTicks>254016000000</cutPointTicks>
											<rate>
												<timebase>25</timebase>
												<ntsc>FALSE</ntsc>
											</rate>
											<effect>
												<name>Edge Wipe</name>
												<effectid>Edge Wipe</effectid>
												<effectcategory>Wipe</effectcategory>
												<effecttype>transition</effecttype>
												<mediatype>video</mediatype>
												<wipecode>2</wipecode>
												<wipeaccuracy>100</wipeaccuracy>
												<startratio>0</startratio>
												<endratio>1</endratio>
												<reverse>FALSE</reverse>
												<parameter authoringApp="PremierePro">
													<parameterid>directionofwipe</parameterid>
													<name>Angle</name>
													<valuemin>-360</valuemin>
													<valuemax>360</valuemax>
													<value>90</value>
												</parameter>
											</effect>
										</transitionitem>
										<enabled>TRUE</enabled>
										<locked>FALSE</locked>
									</track>
									<track TL.SQTrackShy="0" TL.SQTrackExpandedHeight="25" TL.SQTrackExpanded="0" MZ.TrackTargeted="0">
										<transitionitem>
											<start>755</start>
											<end>780</end>
											<alignment>start-black</alignment>
											<cutPointTicks>0</cutPointTicks>
											<rate>
												<timebase>25</timebase>
												<ntsc>FALSE</ntsc>
											</rate>
											<effect>
												<name>Edge Wipe</name>
												<effectid>Edge Wipe</effectid>
												<effectcategory>Wipe</effectcategory>
												<effecttype>transition</effecttype>
												<mediatype>video</mediatype>
												<wipecode>2</wipecode>
												<wipeaccuracy>100</wipeaccuracy>
												<startratio>0</startratio>
												<endratio>1</endratio>
												<reverse>FALSE</reverse>
												<parameter authoringApp="PremierePro">
													<parameterid>directionofwipe</parameterid>
													<name>Angle</name>
													<valuemin>-360</valuemin>
													<valuemax>360</valuemax>
													<value>270</value>
												</parameter>
											</effect>
										</transitionitem>
										<clipitem id="clipitem-1818">
											<masterclipid>masterclip-794</masterclipid>
											<name>Graphic</name>
											<enabled>FALSE</enabled>
											<duration>1080000</duration>
											<rate>
												<timebase>25</timebase>
												<ntsc>FALSE</ntsc>
											</rate>
											<start>-1</start>
											<end>-1</end>
											<in>89905</in>
											<out>90272</out>
											<pproTicksIn>913492339200000</pproTicksIn>
											<pproTicksOut>917221294080000</pproTicksOut>
											<alphatype>straight</alphatype>
											<pixelaspectratio>PAL-601</pixelaspectratio>
											<anamorphic>TRUE</anamorphic>
											<file id="file-658">
												<name>Graphic</name>
												<mediaSource>GraphicAndType</mediaSource>
												<rate>
													<timebase>30</timebase>
													<ntsc>TRUE</ntsc>
												</rate>
												<timecode>
													<rate>
														<timebase>30</timebase>
														<ntsc>TRUE</ntsc>
													</rate>
													<string>00;00;00;00</string>
													<frame>0</frame>
													<displayformat>DF</displayformat>
												</timecode>
												<media>
													<video>
														<samplecharacteristics>
															<rate>
																<timebase>30</timebase>
																<ntsc>TRUE</ntsc>
															</rate>
															<width>720</width>
															<height>576</height>
															<anamorphic>TRUE</anamorphic>
															<pixelaspectratio>PAL-601</pixelaspectratio>
															<fielddominance>none</fielddominance>
														</samplecharacteristics>
													</video>
												</media>
											</file>
											<filter>
												<effect>
													<name>Vector Motion</name>
													<effectid>GraphicGroup</effectid>
													<effectcategory>graphic</effectcategory>
													<effecttype>filter</effecttype>
													<mediatype>video</mediatype>
													<pproBypass>false</pproBypass>
													<parameter authoringApp="PremierePro">
														<parameterid>1</parameterid>
														<name>Position</name>
														<IsTimeVarying>false</IsTimeVarying>
														<value>-91445760000000000,0.81693898908787344:0.49085601568222115,0,0,0,0,0,0,5,4,0,0,0,0</value>
													</parameter>
													<parameter authoringApp="PremierePro">
														<parameterid>2</parameterid>
														<name>Scale</name>
														<IsTimeVarying>false</IsTimeVarying>
														<ParameterControlType>2</ParameterControlType>
														<LowerBound>0</LowerBound>
														<UpperBound>10000</UpperBound>
														<UpperUIBound>200</UpperUIBound>
														<value>-91445760000000000,100.,0,0,0,0,0,0</value>
													</parameter>
													<parameter authoringApp="PremierePro">
														<parameterid>3</parameterid>
														<name>Scale Width</name>
														<IsTimeVarying>false</IsTimeVarying>
														<ParameterControlType>2</ParameterControlType>
														<LowerBound>0</LowerBound>
														<UpperBound>10000</UpperBound>
														<UpperUIBound>200</UpperUIBound>
														<value>-91445760000000000,100.,0,0,0,0,0,0</value>
													</parameter>
													<parameter authoringApp="PremierePro">
														<parameterid>4</parameterid>
														<name> </name>
														<IsTimeVarying>false</IsTimeVarying>
														<ParameterControlType>4</ParameterControlType>
														<LowerBound>false</LowerBound>
														<UpperBound>true</UpperBound>
														<value>-91445760000000000,true,0,0,0,0,0,0</value>
													</parameter>
													<parameter authoringApp="PremierePro">
														<parameterid>5</parameterid>
														<name>Rotation</name>
														<IsTimeVarying>false</IsTimeVarying>
														<ParameterControlType>3</ParameterControlType>
														<LowerBound>-32768</LowerBound>
														<UpperBound>32767</UpperBound>
														<value>-91445760000000000,0.,0,0,0,0,0,0</value>
													</parameter>
													<parameter authoringApp="PremierePro">
														<parameterid>6</parameterid>
														<name>Anchor Point</name>
														<IsTimeVarying>false</IsTimeVarying>
														<value>-91445760000000000,0.5:0.5,0,0,0,0,0,0,5,4,0,0,0,0</value>
													</parameter>
												</effect>
											</filter>
											<filter>
												<effect>
													<name>Данил Прытков признаётся, &#13;что сильные провалы &#13;мотивируют его на творчество &#13;не меньше, чем победы. </name>
													<effectid>GraphicAndType</effectid>
													<effectcategory>graphic</effectcategory>
													<effecttype>filter</effecttype>
													<mediatype>video</mediatype>
													<pproBypass>false</pproBypass>
													<pproExpanded>true</pproExpanded>
													<parameter authoringApp="PremierePro">
														<parameterid>1</parameterid>
														<name>Source Text</name>
														<hash>698123b5-7d57-7b79-efb1-b0df00000a31</hash>
													</parameter>
													<parameter authoringApp="PremierePro">
														<parameterid>2</parameterid>
														<name>Transform</name>
														<IsTimeVarying>false</IsTimeVarying>
														<ParameterControlType>11</ParameterControlType>
														<LowerBound>false</LowerBound>
														<UpperBound>false</UpperBound>
														<value>-91445760000000000,false,0,0,0,0,0,0</value>
													</parameter>
													<parameter authoringApp="PremierePro">
														<parameterid>3</parameterid>
														<name>Position</name>
														<IsTimeVarying>false</IsTimeVarying>
														<value>-91445760000000000,0.270416259765625:0.640594482421875,0,0,0,0,0,0,5,4,0,0,0,0</value>
													</parameter>
													<parameter authoringApp="PremierePro">
														<parameterid>4</parameterid>
														<name>Scale</name>
														<IsTimeVarying>false</IsTimeVarying>
														<ParameterControlType>2</ParameterControlType>
														<LowerBound>0</LowerBound>
														<UpperBound>4000</UpperBound>
														<value>-91445760000000000,100.,0,0,0,0,0,0</value>
													</parameter>
													<parameter authoringApp="PremierePro">
														<parameterid>5</parameterid>
														<name>Horizontal Scale</name>
														<IsTimeVarying>false</IsTimeVarying>
														<ParameterControlType>2</ParameterControlType>
														<LowerBound>0</LowerBound>
														<UpperBound>4000</UpperBound>
														<value>-91445760000000000,100.,0,0,0,0,0,0</value>
													</parameter>
													<parameter authoringApp="PremierePro">
														<parameterid>6</parameterid>
														<name> </name>
														<IsTimeVarying>false</IsTimeVarying>
														<ParameterControlType>4</ParameterControlType>
														<LowerBound>false</LowerBound>
														<UpperBound>true</UpperBound>
														<value>-91445760000000000,true,0,0,0,0,0,0</value>
													</parameter>
													<parameter authoringApp="PremierePro">
														<parameterid>7</parameterid>
														<name>Rotation</name>
														<IsTimeVarying>false</IsTimeVarying>
														<ParameterControlType>3</ParameterControlType>
														<LowerBound>-32768</LowerBound>
														<UpperBound>32767</UpperBound>
														<value>-91445760000000000,0.,0,0,0,0,0,0</value>
													</parameter>
													<parameter authoringApp="PremierePro">
														<parameterid>8</parameterid>
														<name>Opacity</name>
														<IsTimeVarying>false</IsTimeVarying>
														<ParameterControlType>2</ParameterControlType>
														<LowerBound>0</LowerBound>
														<UpperBound>100</UpperBound>
														<value>-91445760000000000,100.,0,0,0,0,0,0</value>
													</parameter>
													<parameter authoringApp="PremierePro">
														<parameterid>9</parameterid>
														<name>Anchor Point</name>
														<IsTimeVarying>false</IsTimeVarying>
														<value>-91445760000000000,0:0,0,0,0,0,0,0,5,4,0,0,0,0</value>
													</parameter>
													<parameter authoringApp="PremierePro">
														<parameterid>10</parameterid>
														<name></name>
														<IsTimeVarying>false</IsTimeVarying>
														<ParameterControlType>12</ParameterControlType>
														<LowerBound>false</LowerBound>
														<UpperBound>false</UpperBound>
														<value>-91445760000000000,false,0,0,0,0,0,0</value>
													</parameter>
													<parameter authoringApp="PremierePro">
														<parameterid>11</parameterid>
														<name> </name>
														<IsTimeVarying>false</IsTimeVarying>
														<ParameterControlType>8</ParameterControlType>
														<LowerBound>0</LowerBound>
														<UpperBound>32768</UpperBound>
														<value>-91445760000000000,0.,0,0,0,0,0,0</value>
													</parameter>
													<parameter authoringApp="PremierePro">
														<parameterid>12</parameterid>
														<name> </name>
														<IsTimeVarying>false</IsTimeVarying>
														<ParameterControlType>8</ParameterControlType>
														<LowerBound>0</LowerBound>
														<UpperBound>32768</UpperBound>
														<value>-91445760000000000,0.,0,0,0,0,0,0</value>
													</parameter>
													<parameter authoringApp="PremierePro">
														<parameterid>13</parameterid>
														<name>start</name>
														<IsTimeVarying>false</IsTimeVarying>
														<ParameterControlType>8</ParameterControlType>
														<LowerBound>-100</LowerBound>
														<UpperBound>1000000000</UpperBound>
														<value>-91445760000000000,0.,0,0,0,0,0,0</value>
													</parameter>
													<parameter authoringApp="PremierePro">
														<parameterid>14</parameterid>
														<name>end</name>
														<IsTimeVarying>false</IsTimeVarying>
														<ParameterControlType>8</ParameterControlType>
														<LowerBound>-100</LowerBound>
														<UpperBound>1000000000</UpperBound>
														<value>-91445760000000000,101.,0,0,0,0,0,0</value>
													</parameter>
													<parameter authoringApp="PremierePro">
														<parameterid>15</parameterid>
														<name> </name>
														<IsTimeVarying>false</IsTimeVarying>
														<ParameterControlType>4</ParameterControlType>
														<LowerBound>false</LowerBound>
														<UpperBound>true</UpperBound>
														<value>-91445760000000000,false,0,0,0,0,0,0</value>
													</parameter>
													<parameter authoringApp="PremierePro">
														<parameterid>16</parameterid>
														<name> </name>
														<IsTimeVarying>false</IsTimeVarying>
														<ParameterControlType>4</ParameterControlType>
														<LowerBound>false</LowerBound>
														<UpperBound>true</UpperBound>
														<value>-91445760000000000,false,0,0,0,0,0,0</value>
													</parameter>
													<parameter authoringApp="PremierePro">
														<parameterid>17</parameterid>
														<name> </name>
														<IsTimeVarying>false</IsTimeVarying>
														<ParameterControlType>4</ParameterControlType>
														<LowerBound>false</LowerBound>
														<UpperBound>true</UpperBound>
														<value>-91445760000000000,false,0,0,0,0,0,0</value>
													</parameter>
													<parameter authoringApp="PremierePro">
														<parameterid>18</parameterid>
														<name> </name>
														<IsTimeVarying>false</IsTimeVarying>
														<ParameterControlType>4</ParameterControlType>
														<LowerBound>false</LowerBound>
														<UpperBound>true</UpperBound>
														<value>-91445760000000000,false,0,0,0,0,0,0</value>
													</parameter>
													<parameter authoringApp="PremierePro">
														<parameterid>19</parameterid>
														<name>Parent Width</name>
														<IsTimeVarying>false</IsTimeVarying>
														<ParameterControlType>2</ParameterControlType>
														<LowerBound>0</LowerBound>
														<UpperBound>20000</UpperBound>
														<value>-91445760000000000,0.,0,0,0,0,0,0</value>
													</parameter>
													<parameter authoringApp="PremierePro">
														<parameterid>20</parameterid>
														<name>Parent Height</name>
														<IsTimeVarying>false</IsTimeVarying>
														<ParameterControlType>2</ParameterControlType>
														<LowerBound>0</LowerBound>
														<UpperBound>20000</UpperBound>
														<value>-91445760000000000,0.,0,0,0,0,0,0</value>
													</parameter>
													<parameter authoringApp="PremierePro">
														<parameterid>21</parameterid>
														<name>Parent Rotation</name>
														<IsTimeVarying>false</IsTimeVarying>
														<ParameterControlType>3</ParameterControlType>
														<LowerBound>-32768</LowerBound>
														<UpperBound>32767</UpperBound>
														<value>-91445760000000000,0.,0,0,0,0,0,0</value>
													</parameter>
												</effect>
											</filter>
											<logginginfo>
												<description></description>
												<scene></scene>
												<shottake></shottake>
												<lognote></lognote>
												<good></good>
												<originalvideofilename></originalvideofilename>
												<originalaudiofilename></originalaudiofilename>
											</logginginfo>
											<colorinfo>
												<lut></lut>
												<lut1></lut1>
												<asc_sop></asc_sop>
												<asc_sat></asc_sat>
												<lut2></lut2>
											</colorinfo>
										</clipitem>
										<transitionitem>
											<start>1097</start>
											<end>1122</end>
											<alignment>end-black</alignment>
											<cutPointTicks>254016000000</cutPointTicks>
											<rate>
												<timebase>25</timebase>
												<ntsc>FALSE</ntsc>
											</rate>
											<effect>
												<name>Edge Wipe</name>
												<effectid>Edge Wipe</effectid>
												<effectcategory>Wipe</effectcategory>
												<effecttype>transition</effecttype>
												<mediatype>video</mediatype>
												<wipecode>2</wipecode>
												<wipeaccuracy>100</wipeaccuracy>
												<startratio>0</startratio>
												<endratio>1</endratio>
												<reverse>FALSE</reverse>
												<parameter authoringApp="PremierePro">
													<parameterid>directionofwipe</parameterid>
													<name>Angle</name>
													<valuemin>-360</valuemin>
													<valuemax>360</valuemax>
													<value>90</value>
												</parameter>
											</effect>
										</transitionitem>
										<enabled>TRUE</enabled>
										<locked>FALSE</locked>
									</track>
								</video>
								<audio>
									<numOutputChannels>2</numOutputChannels>
									<format>
										<samplecharacteristics>
											<depth>16</depth>
											<samplerate>48000</samplerate>
										</samplecharacteristics>
									</format>
									<outputs>
										<group>
											<index>1</index>
											<numchannels>1</numchannels>
											<downmix>0</downmix>
											<channel>
												<index>1</index>
											</channel>
										</group>
										<group>
											<index>2</index>
											<numchannels>1</numchannels>
											<downmix>0</downmix>
											<channel>
												<index>2</index>
											</channel>
										</group>
									</outputs>
									<track TL.SQTrackAudioKeyframeStyle="0" TL.SQTrackShy="0" TL.SQTrackExpandedHeight="25" TL.SQTrackExpanded="0" MZ.TrackTargeted="1" PannerCurrentValue="0.5" PannerStartKeyframe="-91445760000000000,0.5,0,0,0,0,0,0" PannerName="Balance" currentExplodedTrackIndex="0" totalExplodedTrackCount="2" premiereTrackType="Stereo">
										<enabled>TRUE</enabled>
										<locked>FALSE</locked>
										<outputchannelindex>1</outputchannelindex>
									</track>
									<track TL.SQTrackAudioKeyframeStyle="0" TL.SQTrackShy="0" TL.SQTrackExpandedHeight="25" TL.SQTrackExpanded="0" MZ.TrackTargeted="1" PannerCurrentValue="0.5" PannerStartKeyframe="-91445760000000000,0.5,0,0,0,0,0,0" PannerName="Balance" currentExplodedTrackIndex="1" totalExplodedTrackCount="2" premiereTrackType="Stereo">
										<enabled>TRUE</enabled>
										<locked>FALSE</locked>
										<outputchannelindex>2</outputchannelindex>
									</track>
								</audio>
							</media>
							<timecode>
								<rate>
									<timebase>25</timebase>
									<ntsc>FALSE</ntsc>
								</rate>
								<string>00:00:00:00</string>
								<frame>0</frame>
								<displayformat>NDF</displayformat>
							</timecode>
								<marker>
									<comment></comment>
									<name></name>
									<in>50</in>
									<out>-1</out>
									<pproColor>4292277273</pproColor>
								</marker>
								<marker>
									<comment></comment>
									<name></name>
									<in>800</in>
									<out>-1</out>
									<pproColor>4292277273</pproColor>
								</marker>
								<marker>
									<comment></comment>
									<name></name>
									<in>425</in>
									<out>-1</out>
									<pproColor>4292277273</pproColor>
								</marker>
							<logginginfo>
								<description></description>
								<scene></scene>
								<shottake></shottake>
								<lognote></lognote>
								<good></good>
								<originalvideofilename></originalvideofilename>
								<originalaudiofilename></originalaudiofilename>
							</logginginfo>
						</sequence>
							<marker>
								<comment></comment>
								<name></name>
								<in>50</in>
								<out>-1</out>
								<pproColor>4292277273</pproColor>
							</marker>
							<marker>
								<comment></comment>
								<name></name>
								<in>800</in>
								<out>-1</out>
								<pproColor>4292277273</pproColor>
							</marker>
							<marker>
								<comment></comment>
								<name></name>
								<in>425</in>
								<out>-1</out>
								<pproColor>4292277273</pproColor>
							</marker>
						<labels>
							<label2>Forest</label2>
						</labels>
					</clipitem>
					<clipitem id="clipitem-1819">
						<masterclipid>masterclip-789</masterclipid>
						<name>11</name>
						<enabled>FALSE</enabled>
						<duration>1125</duration>
						<rate>
							<timebase>25</timebase>
							<ntsc>FALSE</ntsc>
						</rate>
						<start>8074</start>
						<end>8449</end>
						<in>375</in>
						<out>750</out>
						<pproTicksIn>3810240000000</pproTicksIn>
						<pproTicksOut>7620480000000</pproTicksOut>
						<sequence id="sequence-146"/>
							<marker>
								<comment></comment>
								<name></name>
								<in>50</in>
								<out>-1</out>
								<pproColor>4292277273</pproColor>
							</marker>
							<marker>
								<comment></comment>
								<name></name>
								<in>800</in>
								<out>-1</out>
								<pproColor>4292277273</pproColor>
							</marker>
							<marker>
								<comment></comment>
								<name></name>
								<in>425</in>
								<out>-1</out>
								<pproColor>4292277273</pproColor>
							</marker>
						<labels>
							<label2>Forest</label2>
						</labels>
					</clipitem>
					<clipitem id="clipitem-1820">
						<masterclipid>masterclip-789</masterclipid>
						<name>11</name>
						<enabled>FALSE</enabled>
						<duration>1125</duration>
						<rate>
							<timebase>25</timebase>
							<ntsc>FALSE</ntsc>
						</rate>
						<start>9333</start>
						<end>9708</end>
						<in>750</in>
						<out>1125</out>
						<pproTicksIn>7620480000000</pproTicksIn>
						<pproTicksOut>11430720000000</pproTicksOut>
						<sequence id="sequence-146"/>
							<marker>
								<comment></comment>
								<name></name>
								<in>50</in>
								<out>-1</out>
								<pproColor>4292277273</pproColor>
							</marker>
							<marker>
								<comment></comment>
								<name></name>
								<in>800</in>
								<out>-1</out>
								<pproColor>4292277273</pproColor>
							</marker>
							<marker>
								<comment></comment>
								<name></name>
								<in>425</in>
								<out>-1</out>
								<pproColor>4292277273</pproColor>
							</marker>
						<labels>
							<label2>Forest</label2>
						</labels>
					</clipitem>
					<clipitem id="clipitem-1821">
						<masterclipid>masterclip-795</masterclipid>
						<name>10</name>
						<enabled>FALSE</enabled>
						<duration>1125</duration>
						<rate>
							<timebase>25</timebase>
							<ntsc>FALSE</ntsc>
						</rate>
						<start>11715</start>
						<end>12090</end>
						<in>0</in>
						<out>375</out>
						<pproTicksIn>0</pproTicksIn>
						<pproTicksOut>3810240000000</pproTicksOut>
						<sequence id="sequence-147" TL.SQAudioVisibleBase="0" TL.SQVideoVisibleBase="0" TL.SQVisibleBaseTime="0" TL.SQAVDividerPosition="0.5" TL.SQHideShyTracks="0" TL.SQHeaderWidth="236" Monitor.ProgramZoomOut="11430720000000" Monitor.ProgramZoomIn="0" TL.SQTimePerPixel="0.19620667102680819" AM.TrackVScrollPosition="0" AM.TrackScrollPosition="0" MZ.EditLine="7691604480000" MZ.Sequence.PreviewFrameSizeHeight="576" MZ.Sequence.PreviewFrameSizeWidth="720" MZ.Sequence.AudioTimeDisplayFormat="200" MZ.Sequence.PreviewRenderingClassID="1061109567" MZ.Sequence.PreviewRenderingPresetCodec="1685480304" MZ.Sequence.PreviewRenderingPresetPath="EncoderPresets/SequencePreview/04be6e19-a018-4e0c-a9d6-0ab44c64752b/QuickTime DV PAL.epr" MZ.Sequence.PreviewUseMaxRenderQuality="false" MZ.Sequence.PreviewUseMaxBitDepth="false" MZ.Sequence.EditingModeGUID="04be6e19-a018-4e0c-a9d6-0ab44c64752b" MZ.Sequence.VideoTimeDisplayFormat="101" MZ.WorkOutPoint="11430720000000" MZ.WorkInPoint="0" MZ.ZeroPoint="0">
							<duration>1125</duration>
							<rate>
								<timebase>25</timebase>
								<ntsc>FALSE</ntsc>
							</rate>
							<name>RU_Nested</name>
							<media>
								<video>
									<format>
										<samplecharacteristics>
											<rate>
												<timebase>25</timebase>
												<ntsc>FALSE</ntsc>
											</rate>
											<codec>
												<name>Apple ProRes 422</name>
												<appspecificdata>
													<appname>Final Cut Pro</appname>
													<appmanufacturer>Apple Inc.</appmanufacturer>
													<appversion>7.0</appversion>
													<data>
														<qtcodec>
															<codecname>Apple ProRes 422</codecname>
															<codectypename>Apple ProRes 422</codectypename>
															<codectypecode>apcn</codectypecode>
															<codecvendorcode>appl</codecvendorcode>
															<spatialquality>1024</spatialquality>
															<temporalquality>0</temporalquality>
															<keyframerate>0</keyframerate>
															<datarate>0</datarate>
														</qtcodec>
													</data>
												</appspecificdata>
											</codec>
											<width>720</width>
											<height>576</height>
											<anamorphic>TRUE</anamorphic>
											<pixelaspectratio>PAL-601</pixelaspectratio>
											<fielddominance>lower</fielddominance>
											<colordepth>24</colordepth>
										</samplecharacteristics>
									</format>
									<track TL.SQTrackShy="0" TL.SQTrackExpandedHeight="25" TL.SQTrackExpanded="0" MZ.TrackTargeted="1">
										<clipitem id="clipitem-1822">
											<masterclipid>masterclip-796</masterclipid>
											<name>Plashka_Right_DV.mov</name>
											<enabled>TRUE</enabled>
											<duration>375</duration>
											<rate>
												<timebase>25</timebase>
												<ntsc>FALSE</ntsc>
											</rate>
											<start>0</start>
											<end>375</end>
											<in>0</in>
											<out>375</out>
											<pproTicksIn>0</pproTicksIn>
											<pproTicksOut>3810240000000</pproTicksOut>
											<alphatype>straight</alphatype>
											<pixelaspectratio>PAL-601</pixelaspectratio>
											<anamorphic>TRUE</anamorphic>
											<file id="file-659">
												<name>Plashka_Right_DV.mov</name>
												<pathurl>file://localhost/Volumes/1Tb/_MUZ_TV/graphika/RU-21/MOD/Plashka_Right_DV.mov</pathurl>
												<rate>
													<timebase>25</timebase>
													<ntsc>FALSE</ntsc>
												</rate>
												<duration>375</duration>
												<timecode>
													<rate>
														<timebase>25</timebase>
														<ntsc>FALSE</ntsc>
													</rate>
													<string>00:00:15:10</string>
													<frame>385</frame>
													<displayformat>NDF</displayformat>
												</timecode>
												<media>
													<video>
														<samplecharacteristics>
															<rate>
																<timebase>25</timebase>
																<ntsc>FALSE</ntsc>
															</rate>
															<width>720</width>
															<height>576</height>
															<anamorphic>TRUE</anamorphic>
															<pixelaspectratio>PAL-601</pixelaspectratio>
															<fielddominance>lower</fielddominance>
														</samplecharacteristics>
													</video>
												</media>
											</file>
											<filter>
												<effect>
													<name>Basic Motion</name>
													<effectid>basic</effectid>
													<effectcategory>motion</effectcategory>
													<effecttype>motion</effecttype>
													<mediatype>video</mediatype>
													<pproBypass>false</pproBypass>
													<parameter authoringApp="PremierePro">
														<parameterid>scale</parameterid>
														<name>Scale</name>
														<valuemin>0</valuemin>
														<valuemax>1000</valuemax>
														<value>100</value>
													</parameter>
													<parameter authoringApp="PremierePro">
														<parameterid>rotation</parameterid>
														<name>Rotation</name>
														<valuemin>-8640</valuemin>
														<valuemax>8640</valuemax>
														<value>0</value>
													</parameter>
													<parameter authoringApp="PremierePro">
														<parameterid>center</parameterid>
														<name>Center</name>
														<value>
															<horiz>-5.55112e-17</horiz>
															<vert>-1.11022e-16</vert>
														</value>
													</parameter>
													<parameter authoringApp="PremierePro">
														<parameterid>centerOffset</parameterid>
														<name>Anchor Point</name>
														<value>
															<horiz>0.402314</horiz>
															<vert>0.41875</vert>
														</value>
													</parameter>
													<parameter authoringApp="PremierePro">
														<parameterid>antiflicker</parameterid>
														<name>Anti-flicker Filter</name>
														<valuemin>0.0</valuemin>
														<valuemax>1.0</valuemax>
														<value>0</value>
													</parameter>
												</effect>
											</filter>
											<filter>
												<effect>
													<name>Distort</name>
													<effectid>deformation</effectid>
													<effectcategory>motion</effectcategory>
													<effecttype>motion</effecttype>
													<mediatype>video</mediatype>
													<parameter authoringApp="PremierePro">
														<parameterid>aspect</parameterid>
														<name>Aspect</name>
														<valuemin>-10000</valuemin>
														<valuemax>10000</valuemax>
														<value>11.1111</value>
													</parameter>
												</effect>
											</filter>
											<logginginfo>
												<description></description>
												<scene></scene>
												<shottake></shottake>
												<lognote></lognote>
												<good></good>
												<originalvideofilename></originalvideofilename>
												<originalaudiofilename></originalaudiofilename>
											</logginginfo>
											<colorinfo>
												<lut></lut>
												<lut1></lut1>
												<asc_sop></asc_sop>
												<asc_sat></asc_sat>
												<lut2></lut2>
											</colorinfo>
											<labels>
												<label2>Violet</label2>
											</labels>
										</clipitem>
										<clipitem id="clipitem-1823">
											<masterclipid>masterclip-796</masterclipid>
											<name>Plashka_Right_DV.mov</name>
											<enabled>TRUE</enabled>
											<duration>375</duration>
											<rate>
												<timebase>25</timebase>
												<ntsc>FALSE</ntsc>
											</rate>
											<start>375</start>
											<end>750</end>
											<in>0</in>
											<out>375</out>
											<pproTicksIn>0</pproTicksIn>
											<pproTicksOut>3810240000000</pproTicksOut>
											<alphatype>straight</alphatype>
											<file id="file-659"/>
											<filter>
												<effect>
													<name>Basic Motion</name>
													<effectid>basic</effectid>
													<effectcategory>motion</effectcategory>
													<effecttype>motion</effecttype>
													<mediatype>video</mediatype>
													<pproBypass>false</pproBypass>
													<parameter authoringApp="PremierePro">
														<parameterid>scale</parameterid>
														<name>Scale</name>
														<valuemin>0</valuemin>
														<valuemax>1000</valuemax>
														<value>100</value>
													</parameter>
													<parameter authoringApp="PremierePro">
														<parameterid>rotation</parameterid>
														<name>Rotation</name>
														<valuemin>-8640</valuemin>
														<valuemax>8640</valuemax>
														<value>0</value>
													</parameter>
													<parameter authoringApp="PremierePro">
														<parameterid>center</parameterid>
														<name>Center</name>
														<value>
															<horiz>-5.55112e-17</horiz>
															<vert>-1.11022e-16</vert>
														</value>
													</parameter>
													<parameter authoringApp="PremierePro">
														<parameterid>centerOffset</parameterid>
														<name>Anchor Point</name>
														<value>
															<horiz>0.402314</horiz>
															<vert>0.41875</vert>
														</value>
													</parameter>
													<parameter authoringApp="PremierePro">
														<parameterid>antiflicker</parameterid>
														<name>Anti-flicker Filter</name>
														<valuemin>0.0</valuemin>
														<valuemax>1.0</valuemax>
														<value>0</value>
													</parameter>
												</effect>
											</filter>
											<filter>
												<effect>
													<name>Distort</name>
													<effectid>deformation</effectid>
													<effectcategory>motion</effectcategory>
													<effecttype>motion</effecttype>
													<mediatype>video</mediatype>
													<parameter authoringApp="PremierePro">
														<parameterid>aspect</parameterid>
														<name>Aspect</name>
														<valuemin>-10000</valuemin>
														<valuemax>10000</valuemax>
														<value>11.1111</value>
													</parameter>
												</effect>
											</filter>
											<logginginfo>
												<description></description>
												<scene></scene>
												<shottake></shottake>
												<lognote></lognote>
												<good></good>
												<originalvideofilename></originalvideofilename>
												<originalaudiofilename></originalaudiofilename>
											</logginginfo>
											<colorinfo>
												<lut></lut>
												<lut1></lut1>
												<asc_sop></asc_sop>
												<asc_sat></asc_sat>
												<lut2></lut2>
											</colorinfo>
											<labels>
												<label2>Violet</label2>
											</labels>
										</clipitem>
										<clipitem id="clipitem-1824">
											<masterclipid>masterclip-796</masterclipid>
											<name>Plashka_Right_DV.mov</name>
											<enabled>TRUE</enabled>
											<duration>375</duration>
											<rate>
												<timebase>25</timebase>
												<ntsc>FALSE</ntsc>
											</rate>
											<start>750</start>
											<end>1125</end>
											<in>0</in>
											<out>375</out>
											<pproTicksIn>0</pproTicksIn>
											<pproTicksOut>3810240000000</pproTicksOut>
											<alphatype>straight</alphatype>
											<file id="file-659"/>
											<filter>
												<effect>
													<name>Basic Motion</name>
													<effectid>basic</effectid>
													<effectcategory>motion</effectcategory>
													<effecttype>motion</effecttype>
													<mediatype>video</mediatype>
													<pproBypass>false</pproBypass>
													<parameter authoringApp="PremierePro">
														<parameterid>scale</parameterid>
														<name>Scale</name>
														<valuemin>0</valuemin>
														<valuemax>1000</valuemax>
														<value>100</value>
													</parameter>
													<parameter authoringApp="PremierePro">
														<parameterid>rotation</parameterid>
														<name>Rotation</name>
														<valuemin>-8640</valuemin>
														<valuemax>8640</valuemax>
														<value>0</value>
													</parameter>
													<parameter authoringApp="PremierePro">
														<parameterid>center</parameterid>
														<name>Center</name>
														<value>
															<horiz>-5.55112e-17</horiz>
															<vert>-1.11022e-16</vert>
														</value>
													</parameter>
													<parameter authoringApp="PremierePro">
														<parameterid>centerOffset</parameterid>
														<name>Anchor Point</name>
														<value>
															<horiz>0.402314</horiz>
															<vert>0.41875</vert>
														</value>
													</parameter>
													<parameter authoringApp="PremierePro">
														<parameterid>antiflicker</parameterid>
														<name>Anti-flicker Filter</name>
														<valuemin>0.0</valuemin>
														<valuemax>1.0</valuemax>
														<value>0</value>
													</parameter>
												</effect>
											</filter>
											<filter>
												<effect>
													<name>Distort</name>
													<effectid>deformation</effectid>
													<effectcategory>motion</effectcategory>
													<effecttype>motion</effecttype>
													<mediatype>video</mediatype>
													<parameter authoringApp="PremierePro">
														<parameterid>aspect</parameterid>
														<name>Aspect</name>
														<valuemin>-10000</valuemin>
														<valuemax>10000</valuemax>
														<value>11.1111</value>
													</parameter>
												</effect>
											</filter>
											<logginginfo>
												<description></description>
												<scene></scene>
												<shottake></shottake>
												<lognote></lognote>
												<good></good>
												<originalvideofilename></originalvideofilename>
												<originalaudiofilename></originalaudiofilename>
											</logginginfo>
											<colorinfo>
												<lut></lut>
												<lut1></lut1>
												<asc_sop></asc_sop>
												<asc_sat></asc_sat>
												<lut2></lut2>
											</colorinfo>
											<labels>
												<label2>Violet</label2>
											</labels>
										</clipitem>
										<enabled>TRUE</enabled>
										<locked>FALSE</locked>
									</track>
									<track TL.SQTrackShy="0" TL.SQTrackExpandedHeight="25" TL.SQTrackExpanded="0" MZ.TrackTargeted="0">
										<transitionitem>
											<start>6</start>
											<end>35</end>
											<alignment>start-black</alignment>
											<cutPointTicks>0</cutPointTicks>
											<rate>
												<timebase>25</timebase>
												<ntsc>FALSE</ntsc>
											</rate>
											<effect>
												<name>Edge Wipe</name>
												<effectid>Edge Wipe</effectid>
												<effectcategory>Wipe</effectcategory>
												<effecttype>transition</effecttype>
												<mediatype>video</mediatype>
												<wipecode>2</wipecode>
												<wipeaccuracy>100</wipeaccuracy>
												<startratio>0</startratio>
												<endratio>1</endratio>
												<reverse>FALSE</reverse>
												<parameter authoringApp="PremierePro">
													<parameterid>directionofwipe</parameterid>
													<name>Angle</name>
													<valuemin>-360</valuemin>
													<valuemax>360</valuemax>
													<value>270</value>
												</parameter>
											</effect>
										</transitionitem>
										<clipitem id="clipitem-1825">
											<masterclipid>masterclip-797</masterclipid>
											<name>10_1.png</name>
											<enabled>TRUE</enabled>
											<duration>1080000</duration>
											<rate>
												<timebase>25</timebase>
												<ntsc>FALSE</ntsc>
											</rate>
											<start>-1</start>
											<end>-1</end>
											<in>90006</in>
											<out>90369</out>
											<pproTicksIn>914518563840000</pproTicksIn>
											<pproTicksOut>918206876160000</pproTicksOut>
											<alphatype>straight</alphatype>
											<pixelaspectratio>square</pixelaspectratio>
											<anamorphic>FALSE</anamorphic>
											<file id="file-660">
												<name>10_1.png</name>
												<pathurl>file://localhost/_MUZ_TV/project_AP/RU/_TITLE/468/PNG/10_1.png</pathurl>
												<rate>
													<timebase>30</timebase>
													<ntsc>TRUE</ntsc>
												</rate>
												<timecode>
													<rate>
														<timebase>30</timebase>
														<ntsc>TRUE</ntsc>
													</rate>
													<string>00;00;00;00</string>
													<frame>0</frame>
													<displayformat>DF</displayformat>
												</timecode>
												<media>
													<video>
														<samplecharacteristics>
															<rate>
																<timebase>30</timebase>
																<ntsc>TRUE</ntsc>
															</rate>
															<width>1920</width>
															<height>1080</height>
															<anamorphic>FALSE</anamorphic>
															<pixelaspectratio>square</pixelaspectratio>
															<fielddominance>none</fielddominance>
														</samplecharacteristics>
													</video>
												</media>
											</file>
											<filter>
												<effect>
													<name>Basic Motion</name>
													<effectid>basic</effectid>
													<effectcategory>motion</effectcategory>
													<effecttype>motion</effecttype>
													<mediatype>video</mediatype>
													<pproBypass>false</pproBypass>
													<parameter authoringApp="PremierePro">
														<parameterid>scale</parameterid>
														<name>Scale</name>
														<valuemin>0</valuemin>
														<valuemax>1000</valuemax>
														<value>53.3333</value>
													</parameter>
													<parameter authoringApp="PremierePro">
														<parameterid>rotation</parameterid>
														<name>Rotation</name>
														<valuemin>-8640</valuemin>
														<valuemax>8640</valuemax>
														<value>0</value>
													</parameter>
													<parameter authoringApp="PremierePro">
														<parameterid>center</parameterid>
														<name>Center</name>
														<value>
															<horiz>0</horiz>
															<vert>0</vert>
														</value>
													</parameter>
													<parameter authoringApp="PremierePro">
														<parameterid>centerOffset</parameterid>
														<name>Anchor Point</name>
														<value>
															<horiz>0</horiz>
															<vert>0</vert>
														</value>
													</parameter>
													<parameter authoringApp="PremierePro">
														<parameterid>antiflicker</parameterid>
														<name>Anti-flicker Filter</name>
														<valuemin>0.0</valuemin>
														<valuemax>1.0</valuemax>
														<value>0</value>
													</parameter>
												</effect>
											</filter>
											<logginginfo>
												<description></description>
												<scene></scene>
												<shottake></shottake>
												<lognote></lognote>
												<good></good>
												<originalvideofilename></originalvideofilename>
												<originalaudiofilename></originalaudiofilename>
											</logginginfo>
											<colorinfo>
												<lut></lut>
												<lut1></lut1>
												<asc_sop></asc_sop>
												<asc_sat></asc_sat>
												<lut2></lut2>
											</colorinfo>
											<labels>
												<label2>Lavender</label2>
											</labels>
										</clipitem>
										<transitionitem>
											<start>344</start>
											<end>369</end>
											<alignment>end-black</alignment>
											<cutPointTicks>254016000000</cutPointTicks>
											<rate>
												<timebase>25</timebase>
												<ntsc>FALSE</ntsc>
											</rate>
											<effect>
												<name>Edge Wipe</name>
												<effectid>Edge Wipe</effectid>
												<effectcategory>Wipe</effectcategory>
												<effecttype>transition</effecttype>
												<mediatype>video</mediatype>
												<wipecode>2</wipecode>
												<wipeaccuracy>100</wipeaccuracy>
												<startratio>0</startratio>
												<endratio>1</endratio>
												<reverse>FALSE</reverse>
												<parameter authoringApp="PremierePro">
													<parameterid>directionofwipe</parameterid>
													<name>Angle</name>
													<valuemin>-360</valuemin>
													<valuemax>360</valuemax>
													<value>90</value>
												</parameter>
											</effect>
										</transitionitem>
										<transitionitem>
											<start>381</start>
											<end>410</end>
											<alignment>start-black</alignment>
											<cutPointTicks>0</cutPointTicks>
											<rate>
												<timebase>25</timebase>
												<ntsc>FALSE</ntsc>
											</rate>
											<effect>
												<name>Edge Wipe</name>
												<effectid>Edge Wipe</effectid>
												<effectcategory>Wipe</effectcategory>
												<effecttype>transition</effecttype>
												<mediatype>video</mediatype>
												<wipecode>2</wipecode>
												<wipeaccuracy>100</wipeaccuracy>
												<startratio>0</startratio>
												<endratio>1</endratio>
												<reverse>FALSE</reverse>
												<parameter authoringApp="PremierePro">
													<parameterid>directionofwipe</parameterid>
													<name>Angle</name>
													<valuemin>-360</valuemin>
													<valuemax>360</valuemax>
													<value>270</value>
												</parameter>
											</effect>
										</transitionitem>
										<clipitem id="clipitem-1826">
											<masterclipid>masterclip-798</masterclipid>
											<name>10_2.png</name>
											<enabled>TRUE</enabled>
											<duration>1080000</duration>
											<rate>
												<timebase>25</timebase>
												<ntsc>FALSE</ntsc>
											</rate>
											<start>-1</start>
											<end>-1</end>
											<in>90011</in>
											<out>90374</out>
											<pproTicksIn>914569367040000</pproTicksIn>
											<pproTicksOut>918257679360000</pproTicksOut>
											<alphatype>straight</alphatype>
											<pixelaspectratio>square</pixelaspectratio>
											<anamorphic>FALSE</anamorphic>
											<file id="file-661">
												<name>10_2.png</name>
												<pathurl>file://localhost/_MUZ_TV/project_AP/RU/_TITLE/468/PNG/10_2.png</pathurl>
												<rate>
													<timebase>30</timebase>
													<ntsc>TRUE</ntsc>
												</rate>
												<timecode>
													<rate>
														<timebase>30</timebase>
														<ntsc>TRUE</ntsc>
													</rate>
													<string>00;00;00;00</string>
													<frame>0</frame>
													<displayformat>DF</displayformat>
												</timecode>
												<media>
													<video>
														<samplecharacteristics>
															<rate>
																<timebase>30</timebase>
																<ntsc>TRUE</ntsc>
															</rate>
															<width>1920</width>
															<height>1080</height>
															<anamorphic>FALSE</anamorphic>
															<pixelaspectratio>square</pixelaspectratio>
															<fielddominance>none</fielddominance>
														</samplecharacteristics>
													</video>
												</media>
											</file>
											<filter>
												<effect>
													<name>Basic Motion</name>
													<effectid>basic</effectid>
													<effectcategory>motion</effectcategory>
													<effecttype>motion</effecttype>
													<mediatype>video</mediatype>
													<pproBypass>false</pproBypass>
													<parameter authoringApp="PremierePro">
														<parameterid>scale</parameterid>
														<name>Scale</name>
														<valuemin>0</valuemin>
														<valuemax>1000</valuemax>
														<value>53.3333</value>
													</parameter>
													<parameter authoringApp="PremierePro">
														<parameterid>rotation</parameterid>
														<name>Rotation</name>
														<valuemin>-8640</valuemin>
														<valuemax>8640</valuemax>
														<value>0</value>
													</parameter>
													<parameter authoringApp="PremierePro">
														<parameterid>center</parameterid>
														<name>Center</name>
														<value>
															<horiz>0</horiz>
															<vert>0</vert>
														</value>
													</parameter>
													<parameter authoringApp="PremierePro">
														<parameterid>centerOffset</parameterid>
														<name>Anchor Point</name>
														<value>
															<horiz>0</horiz>
															<vert>0</vert>
														</value>
													</parameter>
													<parameter authoringApp="PremierePro">
														<parameterid>antiflicker</parameterid>
														<name>Anti-flicker Filter</name>
														<valuemin>0.0</valuemin>
														<valuemax>1.0</valuemax>
														<value>0</value>
													</parameter>
												</effect>
											</filter>
											<logginginfo>
												<description></description>
												<scene></scene>
												<shottake></shottake>
												<lognote></lognote>
												<good></good>
												<originalvideofilename></originalvideofilename>
												<originalaudiofilename></originalaudiofilename>
											</logginginfo>
											<colorinfo>
												<lut></lut>
												<lut1></lut1>
												<asc_sop></asc_sop>
												<asc_sat></asc_sat>
												<lut2></lut2>
											</colorinfo>
											<labels>
												<label2>Lavender</label2>
											</labels>
										</clipitem>
										<transitionitem>
											<start>719</start>
											<end>744</end>
											<alignment>end-black</alignment>
											<cutPointTicks>254016000000</cutPointTicks>
											<rate>
												<timebase>25</timebase>
												<ntsc>FALSE</ntsc>
											</rate>
											<effect>
												<name>Edge Wipe</name>
												<effectid>Edge Wipe</effectid>
												<effectcategory>Wipe</effectcategory>
												<effecttype>transition</effecttype>
												<mediatype>video</mediatype>
												<wipecode>2</wipecode>
												<wipeaccuracy>100</wipeaccuracy>
												<startratio>0</startratio>
												<endratio>1</endratio>
												<reverse>FALSE</reverse>
												<parameter authoringApp="PremierePro">
													<parameterid>directionofwipe</parameterid>
													<name>Angle</name>
													<valuemin>-360</valuemin>
													<valuemax>360</valuemax>
													<value>90</value>
												</parameter>
											</effect>
										</transitionitem>
										<transitionitem>
											<start>756</start>
											<end>785</end>
											<alignment>start-black</alignment>
											<cutPointTicks>0</cutPointTicks>
											<rate>
												<timebase>25</timebase>
												<ntsc>FALSE</ntsc>
											</rate>
											<effect>
												<name>Edge Wipe</name>
												<effectid>Edge Wipe</effectid>
												<effectcategory>Wipe</effectcategory>
												<effecttype>transition</effecttype>
												<mediatype>video</mediatype>
												<wipecode>2</wipecode>
												<wipeaccuracy>100</wipeaccuracy>
												<startratio>0</startratio>
												<endratio>1</endratio>
												<reverse>FALSE</reverse>
												<parameter authoringApp="PremierePro">
													<parameterid>directionofwipe</parameterid>
													<name>Angle</name>
													<valuemin>-360</valuemin>
													<valuemax>360</valuemax>
													<value>270</value>
												</parameter>
											</effect>
										</transitionitem>
										<clipitem id="clipitem-1827">
											<masterclipid>masterclip-799</masterclipid>
											<name>10_3.png</name>
											<enabled>TRUE</enabled>
											<duration>1080000</duration>
											<rate>
												<timebase>25</timebase>
												<ntsc>FALSE</ntsc>
											</rate>
											<start>-1</start>
											<end>-1</end>
											<in>90011</in>
											<out>90375</out>
											<pproTicksIn>914569367040000</pproTicksIn>
											<pproTicksOut>918267840000000</pproTicksOut>
											<alphatype>straight</alphatype>
											<pixelaspectratio>square</pixelaspectratio>
											<anamorphic>FALSE</anamorphic>
											<file id="file-662">
												<name>10_3.png</name>
												<pathurl>file://localhost/_MUZ_TV/project_AP/RU/_TITLE/468/PNG/10_3.png</pathurl>
												<rate>
													<timebase>30</timebase>
													<ntsc>TRUE</ntsc>
												</rate>
												<timecode>
													<rate>
														<timebase>30</timebase>
														<ntsc>TRUE</ntsc>
													</rate>
													<string>00;00;00;00</string>
													<frame>0</frame>
													<displayformat>DF</displayformat>
												</timecode>
												<media>
													<video>
														<samplecharacteristics>
															<rate>
																<timebase>30</timebase>
																<ntsc>TRUE</ntsc>
															</rate>
															<width>1920</width>
															<height>1080</height>
															<anamorphic>FALSE</anamorphic>
															<pixelaspectratio>square</pixelaspectratio>
															<fielddominance>none</fielddominance>
														</samplecharacteristics>
													</video>
												</media>
											</file>
											<filter>
												<effect>
													<name>Basic Motion</name>
													<effectid>basic</effectid>
													<effectcategory>motion</effectcategory>
													<effecttype>motion</effecttype>
													<mediatype>video</mediatype>
													<pproBypass>false</pproBypass>
													<parameter authoringApp="PremierePro">
														<parameterid>scale</parameterid>
														<name>Scale</name>
														<valuemin>0</valuemin>
														<valuemax>1000</valuemax>
														<value>53.3333</value>
													</parameter>
													<parameter authoringApp="PremierePro">
														<parameterid>rotation</parameterid>
														<name>Rotation</name>
														<valuemin>-8640</valuemin>
														<valuemax>8640</valuemax>
														<value>0</value>
													</parameter>
													<parameter authoringApp="PremierePro">
														<parameterid>center</parameterid>
														<name>Center</name>
														<value>
															<horiz>0</horiz>
															<vert>0</vert>
														</value>
													</parameter>
													<parameter authoringApp="PremierePro">
														<parameterid>centerOffset</parameterid>
														<name>Anchor Point</name>
														<value>
															<horiz>0</horiz>
															<vert>0</vert>
														</value>
													</parameter>
													<parameter authoringApp="PremierePro">
														<parameterid>antiflicker</parameterid>
														<name>Anti-flicker Filter</name>
														<valuemin>0.0</valuemin>
														<valuemax>1.0</valuemax>
														<value>0</value>
													</parameter>
												</effect>
											</filter>
											<logginginfo>
												<description></description>
												<scene></scene>
												<shottake></shottake>
												<lognote></lognote>
												<good></good>
												<originalvideofilename></originalvideofilename>
												<originalaudiofilename></originalaudiofilename>
											</logginginfo>
											<colorinfo>
												<lut></lut>
												<lut1></lut1>
												<asc_sop></asc_sop>
												<asc_sat></asc_sat>
												<lut2></lut2>
											</colorinfo>
											<labels>
												<label2>Lavender</label2>
											</labels>
										</clipitem>
										<transitionitem>
											<start>1095</start>
											<end>1120</end>
											<alignment>end-black</alignment>
											<cutPointTicks>254016000000</cutPointTicks>
											<rate>
												<timebase>25</timebase>
												<ntsc>FALSE</ntsc>
											</rate>
											<effect>
												<name>Edge Wipe</name>
												<effectid>Edge Wipe</effectid>
												<effectcategory>Wipe</effectcategory>
												<effecttype>transition</effecttype>
												<mediatype>video</mediatype>
												<wipecode>2</wipecode>
												<wipeaccuracy>100</wipeaccuracy>
												<startratio>0</startratio>
												<endratio>1</endratio>
												<reverse>FALSE</reverse>
												<parameter authoringApp="PremierePro">
													<parameterid>directionofwipe</parameterid>
													<name>Angle</name>
													<valuemin>-360</valuemin>
													<valuemax>360</valuemax>
													<value>90</value>
												</parameter>
											</effect>
										</transitionitem>
										<enabled>TRUE</enabled>
										<locked>FALSE</locked>
									</track>
									<track TL.SQTrackShy="0" TL.SQTrackExpandedHeight="25" TL.SQTrackExpanded="0" MZ.TrackTargeted="0">
										<transitionitem>
											<start>755</start>
											<end>780</end>
											<alignment>start-black</alignment>
											<cutPointTicks>0</cutPointTicks>
											<rate>
												<timebase>25</timebase>
												<ntsc>FALSE</ntsc>
											</rate>
											<effect>
												<name>Edge Wipe</name>
												<effectid>Edge Wipe</effectid>
												<effectcategory>Wipe</effectcategory>
												<effecttype>transition</effecttype>
												<mediatype>video</mediatype>
												<wipecode>2</wipecode>
												<wipeaccuracy>100</wipeaccuracy>
												<startratio>0</startratio>
												<endratio>1</endratio>
												<reverse>FALSE</reverse>
												<parameter authoringApp="PremierePro">
													<parameterid>directionofwipe</parameterid>
													<name>Angle</name>
													<valuemin>-360</valuemin>
													<valuemax>360</valuemax>
													<value>270</value>
												</parameter>
											</effect>
										</transitionitem>
										<clipitem id="clipitem-1828">
											<masterclipid>masterclip-800</masterclipid>
											<name>Graphic</name>
											<enabled>FALSE</enabled>
											<duration>1080000</duration>
											<rate>
												<timebase>25</timebase>
												<ntsc>FALSE</ntsc>
											</rate>
											<start>-1</start>
											<end>-1</end>
											<in>89905</in>
											<out>90272</out>
											<pproTicksIn>913492339200000</pproTicksIn>
											<pproTicksOut>917221294080000</pproTicksOut>
											<alphatype>straight</alphatype>
											<pixelaspectratio>PAL-601</pixelaspectratio>
											<anamorphic>TRUE</anamorphic>
											<file id="file-663">
												<name>Graphic</name>
												<mediaSource>GraphicAndType</mediaSource>
												<rate>
													<timebase>30</timebase>
													<ntsc>TRUE</ntsc>
												</rate>
												<timecode>
													<rate>
														<timebase>30</timebase>
														<ntsc>TRUE</ntsc>
													</rate>
													<string>00;00;00;00</string>
													<frame>0</frame>
													<displayformat>DF</displayformat>
												</timecode>
												<media>
													<video>
														<samplecharacteristics>
															<rate>
																<timebase>30</timebase>
																<ntsc>TRUE</ntsc>
															</rate>
															<width>720</width>
															<height>576</height>
															<anamorphic>TRUE</anamorphic>
															<pixelaspectratio>PAL-601</pixelaspectratio>
															<fielddominance>none</fielddominance>
														</samplecharacteristics>
													</video>
												</media>
											</file>
											<filter>
												<effect>
													<name>Vector Motion</name>
													<effectid>GraphicGroup</effectid>
													<effectcategory>graphic</effectcategory>
													<effecttype>filter</effecttype>
													<mediatype>video</mediatype>
													<pproBypass>false</pproBypass>
													<parameter authoringApp="PremierePro">
														<parameterid>1</parameterid>
														<name>Position</name>
														<IsTimeVarying>false</IsTimeVarying>
														<value>-91445760000000000,0.81693898908787344:0.49085601568222115,0,0,0,0,0,0,5,4,0,0,0,0</value>
													</parameter>
													<parameter authoringApp="PremierePro">
														<parameterid>2</parameterid>
														<name>Scale</name>
														<IsTimeVarying>false</IsTimeVarying>
														<ParameterControlType>2</ParameterControlType>
														<LowerBound>0</LowerBound>
														<UpperBound>10000</UpperBound>
														<UpperUIBound>200</UpperUIBound>
														<value>-91445760000000000,100.,0,0,0,0,0,0</value>
													</parameter>
													<parameter authoringApp="PremierePro">
														<parameterid>3</parameterid>
														<name>Scale Width</name>
														<IsTimeVarying>false</IsTimeVarying>
														<ParameterControlType>2</ParameterControlType>
														<LowerBound>0</LowerBound>
														<UpperBound>10000</UpperBound>
														<UpperUIBound>200</UpperUIBound>
														<value>-91445760000000000,100.,0,0,0,0,0,0</value>
													</parameter>
													<parameter authoringApp="PremierePro">
														<parameterid>4</parameterid>
														<name> </name>
														<IsTimeVarying>false</IsTimeVarying>
														<ParameterControlType>4</ParameterControlType>
														<LowerBound>false</LowerBound>
														<UpperBound>true</UpperBound>
														<value>-91445760000000000,true,0,0,0,0,0,0</value>
													</parameter>
													<parameter authoringApp="PremierePro">
														<parameterid>5</parameterid>
														<name>Rotation</name>
														<IsTimeVarying>false</IsTimeVarying>
														<ParameterControlType>3</ParameterControlType>
														<LowerBound>-32768</LowerBound>
														<UpperBound>32767</UpperBound>
														<value>-91445760000000000,0.,0,0,0,0,0,0</value>
													</parameter>
													<parameter authoringApp="PremierePro">
														<parameterid>6</parameterid>
														<name>Anchor Point</name>
														<IsTimeVarying>false</IsTimeVarying>
														<value>-91445760000000000,0.5:0.5,0,0,0,0,0,0,5,4,0,0,0,0</value>
													</parameter>
												</effect>
											</filter>
											<filter>
												<effect>
													<name>Данил Прытков признаётся, &#13;что сильные провалы &#13;мотивируют его на творчество &#13;не меньше, чем победы. </name>
													<effectid>GraphicAndType</effectid>
													<effectcategory>graphic</effectcategory>
													<effecttype>filter</effecttype>
													<mediatype>video</mediatype>
													<pproBypass>false</pproBypass>
													<pproExpanded>true</pproExpanded>
													<parameter authoringApp="PremierePro">
														<parameterid>1</parameterid>
														<name>Source Text</name>
														<hash>698123b5-7d57-7b79-efb1-b0df00000a31</hash>
													</parameter>
													<parameter authoringApp="PremierePro">
														<parameterid>2</parameterid>
														<name>Transform</name>
														<IsTimeVarying>false</IsTimeVarying>
														<ParameterControlType>11</ParameterControlType>
														<LowerBound>false</LowerBound>
														<UpperBound>false</UpperBound>
														<value>-91445760000000000,false,0,0,0,0,0,0</value>
													</parameter>
													<parameter authoringApp="PremierePro">
														<parameterid>3</parameterid>
														<name>Position</name>
														<IsTimeVarying>false</IsTimeVarying>
														<value>-91445760000000000,0.270416259765625:0.640594482421875,0,0,0,0,0,0,5,4,0,0,0,0</value>
													</parameter>
													<parameter authoringApp="PremierePro">
														<parameterid>4</parameterid>
														<name>Scale</name>
														<IsTimeVarying>false</IsTimeVarying>
														<ParameterControlType>2</ParameterControlType>
														<LowerBound>0</LowerBound>
														<UpperBound>4000</UpperBound>
														<value>-91445760000000000,100.,0,0,0,0,0,0</value>
													</parameter>
													<parameter authoringApp="PremierePro">
														<parameterid>5</parameterid>
														<name>Horizontal Scale</name>
														<IsTimeVarying>false</IsTimeVarying>
														<ParameterControlType>2</ParameterControlType>
														<LowerBound>0</LowerBound>
														<UpperBound>4000</UpperBound>
														<value>-91445760000000000,100.,0,0,0,0,0,0</value>
													</parameter>
													<parameter authoringApp="PremierePro">
														<parameterid>6</parameterid>
														<name> </name>
														<IsTimeVarying>false</IsTimeVarying>
														<ParameterControlType>4</ParameterControlType>
														<LowerBound>false</LowerBound>
														<UpperBound>true</UpperBound>
														<value>-91445760000000000,true,0,0,0,0,0,0</value>
													</parameter>
													<parameter authoringApp="PremierePro">
														<parameterid>7</parameterid>
														<name>Rotation</name>
														<IsTimeVarying>false</IsTimeVarying>
														<ParameterControlType>3</ParameterControlType>
														<LowerBound>-32768</LowerBound>
														<UpperBound>32767</UpperBound>
														<value>-91445760000000000,0.,0,0,0,0,0,0</value>
													</parameter>
													<parameter authoringApp="PremierePro">
														<parameterid>8</parameterid>
														<name>Opacity</name>
														<IsTimeVarying>false</IsTimeVarying>
														<ParameterControlType>2</ParameterControlType>
														<LowerBound>0</LowerBound>
														<UpperBound>100</UpperBound>
														<value>-91445760000000000,100.,0,0,0,0,0,0</value>
													</parameter>
													<parameter authoringApp="PremierePro">
														<parameterid>9</parameterid>
														<name>Anchor Point</name>
														<IsTimeVarying>false</IsTimeVarying>
														<value>-91445760000000000,0:0,0,0,0,0,0,0,5,4,0,0,0,0</value>
													</parameter>
													<parameter authoringApp="PremierePro">
														<parameterid>10</parameterid>
														<name></name>
														<IsTimeVarying>false</IsTimeVarying>
														<ParameterControlType>12</ParameterControlType>
														<LowerBound>false</LowerBound>
														<UpperBound>false</UpperBound>
														<value>-91445760000000000,false,0,0,0,0,0,0</value>
													</parameter>
													<parameter authoringApp="PremierePro">
														<parameterid>11</parameterid>
														<name> </name>
														<IsTimeVarying>false</IsTimeVarying>
														<ParameterControlType>8</ParameterControlType>
														<LowerBound>0</LowerBound>
														<UpperBound>32768</UpperBound>
														<value>-91445760000000000,0.,0,0,0,0,0,0</value>
													</parameter>
													<parameter authoringApp="PremierePro">
														<parameterid>12</parameterid>
														<name> </name>
														<IsTimeVarying>false</IsTimeVarying>
														<ParameterControlType>8</ParameterControlType>
														<LowerBound>0</LowerBound>
														<UpperBound>32768</UpperBound>
														<value>-91445760000000000,0.,0,0,0,0,0,0</value>
													</parameter>
													<parameter authoringApp="PremierePro">
														<parameterid>13</parameterid>
														<name>start</name>
														<IsTimeVarying>false</IsTimeVarying>
														<ParameterControlType>8</ParameterControlType>
														<LowerBound>-100</LowerBound>
														<UpperBound>1000000000</UpperBound>
														<value>-91445760000000000,0.,0,0,0,0,0,0</value>
													</parameter>
													<parameter authoringApp="PremierePro">
														<parameterid>14</parameterid>
														<name>end</name>
														<IsTimeVarying>false</IsTimeVarying>
														<ParameterControlType>8</ParameterControlType>
														<LowerBound>-100</LowerBound>
														<UpperBound>1000000000</UpperBound>
														<value>-91445760000000000,101.,0,0,0,0,0,0</value>
													</parameter>
													<parameter authoringApp="PremierePro">
														<parameterid>15</parameterid>
														<name> </name>
														<IsTimeVarying>false</IsTimeVarying>
														<ParameterControlType>4</ParameterControlType>
														<LowerBound>false</LowerBound>
														<UpperBound>true</UpperBound>
														<value>-91445760000000000,false,0,0,0,0,0,0</value>
													</parameter>
													<parameter authoringApp="PremierePro">
														<parameterid>16</parameterid>
														<name> </name>
														<IsTimeVarying>false</IsTimeVarying>
														<ParameterControlType>4</ParameterControlType>
														<LowerBound>false</LowerBound>
														<UpperBound>true</UpperBound>
														<value>-91445760000000000,false,0,0,0,0,0,0</value>
													</parameter>
													<parameter authoringApp="PremierePro">
														<parameterid>17</parameterid>
														<name> </name>
														<IsTimeVarying>false</IsTimeVarying>
														<ParameterControlType>4</ParameterControlType>
														<LowerBound>false</LowerBound>
														<UpperBound>true</UpperBound>
														<value>-91445760000000000,false,0,0,0,0,0,0</value>
													</parameter>
													<parameter authoringApp="PremierePro">
														<parameterid>18</parameterid>
														<name> </name>
														<IsTimeVarying>false</IsTimeVarying>
														<ParameterControlType>4</ParameterControlType>
														<LowerBound>false</LowerBound>
														<UpperBound>true</UpperBound>
														<value>-91445760000000000,false,0,0,0,0,0,0</value>
													</parameter>
													<parameter authoringApp="PremierePro">
														<parameterid>19</parameterid>
														<name>Parent Width</name>
														<IsTimeVarying>false</IsTimeVarying>
														<ParameterControlType>2</ParameterControlType>
														<LowerBound>0</LowerBound>
														<UpperBound>20000</UpperBound>
														<value>-91445760000000000,0.,0,0,0,0,0,0</value>
													</parameter>
													<parameter authoringApp="PremierePro">
														<parameterid>20</parameterid>
														<name>Parent Height</name>
														<IsTimeVarying>false</IsTimeVarying>
														<ParameterControlType>2</ParameterControlType>
														<LowerBound>0</LowerBound>
														<UpperBound>20000</UpperBound>
														<value>-91445760000000000,0.,0,0,0,0,0,0</value>
													</parameter>
													<parameter authoringApp="PremierePro">
														<parameterid>21</parameterid>
														<name>Parent Rotation</name>
														<IsTimeVarying>false</IsTimeVarying>
														<ParameterControlType>3</ParameterControlType>
														<LowerBound>-32768</LowerBound>
														<UpperBound>32767</UpperBound>
														<value>-91445760000000000,0.,0,0,0,0,0,0</value>
													</parameter>
												</effect>
											</filter>
											<logginginfo>
												<description></description>
												<scene></scene>
												<shottake></shottake>
												<lognote></lognote>
												<good></good>
												<originalvideofilename></originalvideofilename>
												<originalaudiofilename></originalaudiofilename>
											</logginginfo>
											<colorinfo>
												<lut></lut>
												<lut1></lut1>
												<asc_sop></asc_sop>
												<asc_sat></asc_sat>
												<lut2></lut2>
											</colorinfo>
										</clipitem>
										<transitionitem>
											<start>1097</start>
											<end>1122</end>
											<alignment>end-black</alignment>
											<cutPointTicks>254016000000</cutPointTicks>
											<rate>
												<timebase>25</timebase>
												<ntsc>FALSE</ntsc>
											</rate>
											<effect>
												<name>Edge Wipe</name>
												<effectid>Edge Wipe</effectid>
												<effectcategory>Wipe</effectcategory>
												<effecttype>transition</effecttype>
												<mediatype>video</mediatype>
												<wipecode>2</wipecode>
												<wipeaccuracy>100</wipeaccuracy>
												<startratio>0</startratio>
												<endratio>1</endratio>
												<reverse>FALSE</reverse>
												<parameter authoringApp="PremierePro">
													<parameterid>directionofwipe</parameterid>
													<name>Angle</name>
													<valuemin>-360</valuemin>
													<valuemax>360</valuemax>
													<value>90</value>
												</parameter>
											</effect>
										</transitionitem>
										<enabled>TRUE</enabled>
										<locked>FALSE</locked>
									</track>
								</video>
								<audio>
									<numOutputChannels>2</numOutputChannels>
									<format>
										<samplecharacteristics>
											<depth>16</depth>
											<samplerate>48000</samplerate>
										</samplecharacteristics>
									</format>
									<outputs>
										<group>
											<index>1</index>
											<numchannels>1</numchannels>
											<downmix>0</downmix>
											<channel>
												<index>1</index>
											</channel>
										</group>
										<group>
											<index>2</index>
											<numchannels>1</numchannels>
											<downmix>0</downmix>
											<channel>
												<index>2</index>
											</channel>
										</group>
									</outputs>
									<track TL.SQTrackAudioKeyframeStyle="0" TL.SQTrackShy="0" TL.SQTrackExpandedHeight="25" TL.SQTrackExpanded="0" MZ.TrackTargeted="1" PannerCurrentValue="0.5" PannerStartKeyframe="-91445760000000000,0.5,0,0,0,0,0,0" PannerName="Balance" currentExplodedTrackIndex="0" totalExplodedTrackCount="2" premiereTrackType="Stereo">
										<enabled>TRUE</enabled>
										<locked>FALSE</locked>
										<outputchannelindex>1</outputchannelindex>
									</track>
									<track TL.SQTrackAudioKeyframeStyle="0" TL.SQTrackShy="0" TL.SQTrackExpandedHeight="25" TL.SQTrackExpanded="0" MZ.TrackTargeted="1" PannerCurrentValue="0.5" PannerStartKeyframe="-91445760000000000,0.5,0,0,0,0,0,0" PannerName="Balance" currentExplodedTrackIndex="1" totalExplodedTrackCount="2" premiereTrackType="Stereo">
										<enabled>TRUE</enabled>
										<locked>FALSE</locked>
										<outputchannelindex>2</outputchannelindex>
									</track>
								</audio>
							</media>
							<timecode>
								<rate>
									<timebase>25</timebase>
									<ntsc>FALSE</ntsc>
								</rate>
								<string>00:00:00:00</string>
								<frame>0</frame>
								<displayformat>NDF</displayformat>
							</timecode>
								<marker>
									<comment></comment>
									<name></name>
									<in>425</in>
									<out>-1</out>
									<pproColor>4292277273</pproColor>
								</marker>
								<marker>
									<comment></comment>
									<name></name>
									<in>50</in>
									<out>-1</out>
									<pproColor>4292277273</pproColor>
								</marker>
								<marker>
									<comment></comment>
									<name></name>
									<in>800</in>
									<out>-1</out>
									<pproColor>4292277273</pproColor>
								</marker>
							<logginginfo>
								<description></description>
								<scene></scene>
								<shottake></shottake>
								<lognote></lognote>
								<good></good>
								<originalvideofilename></originalvideofilename>
								<originalaudiofilename></originalaudiofilename>
							</logginginfo>
						</sequence>
							<marker>
								<comment></comment>
								<name></name>
								<in>425</in>
								<out>-1</out>
								<pproColor>4292277273</pproColor>
							</marker>
							<marker>
								<comment></comment>
								<name></name>
								<in>50</in>
								<out>-1</out>
								<pproColor>4292277273</pproColor>
							</marker>
							<marker>
								<comment></comment>
								<name></name>
								<in>800</in>
								<out>-1</out>
								<pproColor>4292277273</pproColor>
							</marker>
						<labels>
							<label2>Forest</label2>
						</labels>
					</clipitem>
					<clipitem id="clipitem-1829">
						<masterclipid>masterclip-795</masterclipid>
						<name>10</name>
						<enabled>FALSE</enabled>
						<duration>1125</duration>
						<rate>
							<timebase>25</timebase>
							<ntsc>FALSE</ntsc>
						</rate>
						<start>12924</start>
						<end>13299</end>
						<in>375</in>
						<out>750</out>
						<pproTicksIn>3810240000000</pproTicksIn>
						<pproTicksOut>7620480000000</pproTicksOut>
						<sequence id="sequence-147"/>
							<marker>
								<comment></comment>
								<name></name>
								<in>425</in>
								<out>-1</out>
								<pproColor>4292277273</pproColor>
							</marker>
							<marker>
								<comment></comment>
								<name></name>
								<in>50</in>
								<out>-1</out>
								<pproColor>4292277273</pproColor>
							</marker>
							<marker>
								<comment></comment>
								<name></name>
								<in>800</in>
								<out>-1</out>
								<pproColor>4292277273</pproColor>
							</marker>
						<labels>
							<label2>Forest</label2>
						</labels>
					</clipitem>
					<clipitem id="clipitem-1830">
						<masterclipid>masterclip-795</masterclipid>
						<name>10</name>
						<enabled>FALSE</enabled>
						<duration>1125</duration>
						<rate>
							<timebase>25</timebase>
							<ntsc>FALSE</ntsc>
						</rate>
						<start>14083</start>
						<end>14458</end>
						<in>750</in>
						<out>1125</out>
						<pproTicksIn>7620480000000</pproTicksIn>
						<pproTicksOut>11430720000000</pproTicksOut>
						<sequence id="sequence-147"/>
							<marker>
								<comment></comment>
								<name></name>
								<in>425</in>
								<out>-1</out>
								<pproColor>4292277273</pproColor>
							</marker>
							<marker>
								<comment></comment>
								<name></name>
								<in>50</in>
								<out>-1</out>
								<pproColor>4292277273</pproColor>
							</marker>
							<marker>
								<comment></comment>
								<name></name>
								<in>800</in>
								<out>-1</out>
								<pproColor>4292277273</pproColor>
							</marker>
						<labels>
							<label2>Forest</label2>
						</labels>
					</clipitem>
					<clipitem id="clipitem-1831">
						<masterclipid>masterclip-801</masterclipid>
						<name>9</name>
						<enabled>FALSE</enabled>
						<duration>1125</duration>
						<rate>
							<timebase>25</timebase>
							<ntsc>FALSE</ntsc>
						</rate>
						<start>16495</start>
						<end>16870</end>
						<in>0</in>
						<out>375</out>
						<pproTicksIn>0</pproTicksIn>
						<pproTicksOut>3810240000000</pproTicksOut>
						<sequence id="sequence-148" TL.SQAudioVisibleBase="0" TL.SQVideoVisibleBase="0" TL.SQVisibleBaseTime="0" TL.SQAVDividerPosition="0.5" TL.SQHideShyTracks="0" TL.SQHeaderWidth="236" Monitor.ProgramZoomOut="11430720000000" Monitor.ProgramZoomIn="0" TL.SQTimePerPixel="0.19620667102680819" AM.TrackVScrollPosition="0" AM.TrackScrollPosition="0" MZ.EditLine="7691604480000" MZ.Sequence.PreviewFrameSizeHeight="576" MZ.Sequence.PreviewFrameSizeWidth="720" MZ.Sequence.AudioTimeDisplayFormat="200" MZ.Sequence.PreviewRenderingClassID="1061109567" MZ.Sequence.PreviewRenderingPresetCodec="1685480304" MZ.Sequence.PreviewRenderingPresetPath="EncoderPresets/SequencePreview/04be6e19-a018-4e0c-a9d6-0ab44c64752b/QuickTime DV PAL.epr" MZ.Sequence.PreviewUseMaxRenderQuality="false" MZ.Sequence.PreviewUseMaxBitDepth="false" MZ.Sequence.EditingModeGUID="04be6e19-a018-4e0c-a9d6-0ab44c64752b" MZ.Sequence.VideoTimeDisplayFormat="101" MZ.WorkOutPoint="11430720000000" MZ.WorkInPoint="0" MZ.ZeroPoint="0">
							<duration>1125</duration>
							<rate>
								<timebase>25</timebase>
								<ntsc>FALSE</ntsc>
							</rate>
							<name>RU_Nested</name>
							<media>
								<video>
									<format>
										<samplecharacteristics>
											<rate>
												<timebase>25</timebase>
												<ntsc>FALSE</ntsc>
											</rate>
											<codec>
												<name>Apple ProRes 422</name>
												<appspecificdata>
													<appname>Final Cut Pro</appname>
													<appmanufacturer>Apple Inc.</appmanufacturer>
													<appversion>7.0</appversion>
													<data>
														<qtcodec>
															<codecname>Apple ProRes 422</codecname>
															<codectypename>Apple ProRes 422</codectypename>
															<codectypecode>apcn</codectypecode>
															<codecvendorcode>appl</codecvendorcode>
															<spatialquality>1024</spatialquality>
															<temporalquality>0</temporalquality>
															<keyframerate>0</keyframerate>
															<datarate>0</datarate>
														</qtcodec>
													</data>
												</appspecificdata>
											</codec>
											<width>720</width>
											<height>576</height>
											<anamorphic>TRUE</anamorphic>
											<pixelaspectratio>PAL-601</pixelaspectratio>
											<fielddominance>lower</fielddominance>
											<colordepth>24</colordepth>
										</samplecharacteristics>
									</format>
									<track TL.SQTrackShy="0" TL.SQTrackExpandedHeight="25" TL.SQTrackExpanded="0" MZ.TrackTargeted="1">
										<clipitem id="clipitem-1832">
											<masterclipid>masterclip-802</masterclipid>
											<name>Plashka_Right_DV.mov</name>
											<enabled>TRUE</enabled>
											<duration>375</duration>
											<rate>
												<timebase>25</timebase>
												<ntsc>FALSE</ntsc>
											</rate>
											<start>0</start>
											<end>375</end>
											<in>0</in>
											<out>375</out>
											<pproTicksIn>0</pproTicksIn>
											<pproTicksOut>3810240000000</pproTicksOut>
											<alphatype>straight</alphatype>
											<pixelaspectratio>PAL-601</pixelaspectratio>
											<anamorphic>TRUE</anamorphic>
											<file id="file-664">
												<name>Plashka_Right_DV.mov</name>
												<pathurl>file://localhost/Volumes/1Tb/_MUZ_TV/graphika/RU-21/MOD/Plashka_Right_DV.mov</pathurl>
												<rate>
													<timebase>25</timebase>
													<ntsc>FALSE</ntsc>
												</rate>
												<duration>375</duration>
												<timecode>
													<rate>
														<timebase>25</timebase>
														<ntsc>FALSE</ntsc>
													</rate>
													<string>00:00:15:10</string>
													<frame>385</frame>
													<displayformat>NDF</displayformat>
												</timecode>
												<media>
													<video>
														<samplecharacteristics>
															<rate>
																<timebase>25</timebase>
																<ntsc>FALSE</ntsc>
															</rate>
															<width>720</width>
															<height>576</height>
															<anamorphic>TRUE</anamorphic>
															<pixelaspectratio>PAL-601</pixelaspectratio>
															<fielddominance>lower</fielddominance>
														</samplecharacteristics>
													</video>
												</media>
											</file>
											<filter>
												<effect>
													<name>Basic Motion</name>
													<effectid>basic</effectid>
													<effectcategory>motion</effectcategory>
													<effecttype>motion</effecttype>
													<mediatype>video</mediatype>
													<pproBypass>false</pproBypass>
													<parameter authoringApp="PremierePro">
														<parameterid>scale</parameterid>
														<name>Scale</name>
														<valuemin>0</valuemin>
														<valuemax>1000</valuemax>
														<value>100</value>
													</parameter>
													<parameter authoringApp="PremierePro">
														<parameterid>rotation</parameterid>
														<name>Rotation</name>
														<valuemin>-8640</valuemin>
														<valuemax>8640</valuemax>
														<value>0</value>
													</parameter>
													<parameter authoringApp="PremierePro">
														<parameterid>center</parameterid>
														<name>Center</name>
														<value>
															<horiz>-5.55112e-17</horiz>
															<vert>-1.11022e-16</vert>
														</value>
													</parameter>
													<parameter authoringApp="PremierePro">
														<parameterid>centerOffset</parameterid>
														<name>Anchor Point</name>
														<value>
															<horiz>0.402314</horiz>
															<vert>0.41875</vert>
														</value>
													</parameter>
													<parameter authoringApp="PremierePro">
														<parameterid>antiflicker</parameterid>
														<name>Anti-flicker Filter</name>
														<valuemin>0.0</valuemin>
														<valuemax>1.0</valuemax>
														<value>0</value>
													</parameter>
												</effect>
											</filter>
											<filter>
												<effect>
													<name>Distort</name>
													<effectid>deformation</effectid>
													<effectcategory>motion</effectcategory>
													<effecttype>motion</effecttype>
													<mediatype>video</mediatype>
													<parameter authoringApp="PremierePro">
														<parameterid>aspect</parameterid>
														<name>Aspect</name>
														<valuemin>-10000</valuemin>
														<valuemax>10000</valuemax>
														<value>11.1111</value>
													</parameter>
												</effect>
											</filter>
											<logginginfo>
												<description></description>
												<scene></scene>
												<shottake></shottake>
												<lognote></lognote>
												<good></good>
												<originalvideofilename></originalvideofilename>
												<originalaudiofilename></originalaudiofilename>
											</logginginfo>
											<colorinfo>
												<lut></lut>
												<lut1></lut1>
												<asc_sop></asc_sop>
												<asc_sat></asc_sat>
												<lut2></lut2>
											</colorinfo>
											<labels>
												<label2>Violet</label2>
											</labels>
										</clipitem>
										<clipitem id="clipitem-1833">
											<masterclipid>masterclip-802</masterclipid>
											<name>Plashka_Right_DV.mov</name>
											<enabled>TRUE</enabled>
											<duration>375</duration>
											<rate>
												<timebase>25</timebase>
												<ntsc>FALSE</ntsc>
											</rate>
											<start>375</start>
											<end>750</end>
											<in>0</in>
											<out>375</out>
											<pproTicksIn>0</pproTicksIn>
											<pproTicksOut>3810240000000</pproTicksOut>
											<alphatype>straight</alphatype>
											<file id="file-664"/>
											<filter>
												<effect>
													<name>Basic Motion</name>
													<effectid>basic</effectid>
													<effectcategory>motion</effectcategory>
													<effecttype>motion</effecttype>
													<mediatype>video</mediatype>
													<pproBypass>false</pproBypass>
													<parameter authoringApp="PremierePro">
														<parameterid>scale</parameterid>
														<name>Scale</name>
														<valuemin>0</valuemin>
														<valuemax>1000</valuemax>
														<value>100</value>
													</parameter>
													<parameter authoringApp="PremierePro">
														<parameterid>rotation</parameterid>
														<name>Rotation</name>
														<valuemin>-8640</valuemin>
														<valuemax>8640</valuemax>
														<value>0</value>
													</parameter>
													<parameter authoringApp="PremierePro">
														<parameterid>center</parameterid>
														<name>Center</name>
														<value>
															<horiz>-5.55112e-17</horiz>
															<vert>-1.11022e-16</vert>
														</value>
													</parameter>
													<parameter authoringApp="PremierePro">
														<parameterid>centerOffset</parameterid>
														<name>Anchor Point</name>
														<value>
															<horiz>0.402314</horiz>
															<vert>0.41875</vert>
														</value>
													</parameter>
													<parameter authoringApp="PremierePro">
														<parameterid>antiflicker</parameterid>
														<name>Anti-flicker Filter</name>
														<valuemin>0.0</valuemin>
														<valuemax>1.0</valuemax>
														<value>0</value>
													</parameter>
												</effect>
											</filter>
											<filter>
												<effect>
													<name>Distort</name>
													<effectid>deformation</effectid>
													<effectcategory>motion</effectcategory>
													<effecttype>motion</effecttype>
													<mediatype>video</mediatype>
													<parameter authoringApp="PremierePro">
														<parameterid>aspect</parameterid>
														<name>Aspect</name>
														<valuemin>-10000</valuemin>
														<valuemax>10000</valuemax>
														<value>11.1111</value>
													</parameter>
												</effect>
											</filter>
											<logginginfo>
												<description></description>
												<scene></scene>
												<shottake></shottake>
												<lognote></lognote>
												<good></good>
												<originalvideofilename></originalvideofilename>
												<originalaudiofilename></originalaudiofilename>
											</logginginfo>
											<colorinfo>
												<lut></lut>
												<lut1></lut1>
												<asc_sop></asc_sop>
												<asc_sat></asc_sat>
												<lut2></lut2>
											</colorinfo>
											<labels>
												<label2>Violet</label2>
											</labels>
										</clipitem>
										<clipitem id="clipitem-1834">
											<masterclipid>masterclip-802</masterclipid>
											<name>Plashka_Right_DV.mov</name>
											<enabled>TRUE</enabled>
											<duration>375</duration>
											<rate>
												<timebase>25</timebase>
												<ntsc>FALSE</ntsc>
											</rate>
											<start>750</start>
											<end>1125</end>
											<in>0</in>
											<out>375</out>
											<pproTicksIn>0</pproTicksIn>
											<pproTicksOut>3810240000000</pproTicksOut>
											<alphatype>straight</alphatype>
											<file id="file-664"/>
											<filter>
												<effect>
													<name>Basic Motion</name>
													<effectid>basic</effectid>
													<effectcategory>motion</effectcategory>
													<effecttype>motion</effecttype>
													<mediatype>video</mediatype>
													<pproBypass>false</pproBypass>
													<parameter authoringApp="PremierePro">
														<parameterid>scale</parameterid>
														<name>Scale</name>
														<valuemin>0</valuemin>
														<valuemax>1000</valuemax>
														<value>100</value>
													</parameter>
													<parameter authoringApp="PremierePro">
														<parameterid>rotation</parameterid>
														<name>Rotation</name>
														<valuemin>-8640</valuemin>
														<valuemax>8640</valuemax>
														<value>0</value>
													</parameter>
													<parameter authoringApp="PremierePro">
														<parameterid>center</parameterid>
														<name>Center</name>
														<value>
															<horiz>-5.55112e-17</horiz>
															<vert>-1.11022e-16</vert>
														</value>
													</parameter>
													<parameter authoringApp="PremierePro">
														<parameterid>centerOffset</parameterid>
														<name>Anchor Point</name>
														<value>
															<horiz>0.402314</horiz>
															<vert>0.41875</vert>
														</value>
													</parameter>
													<parameter authoringApp="PremierePro">
														<parameterid>antiflicker</parameterid>
														<name>Anti-flicker Filter</name>
														<valuemin>0.0</valuemin>
														<valuemax>1.0</valuemax>
														<value>0</value>
													</parameter>
												</effect>
											</filter>
											<filter>
												<effect>
													<name>Distort</name>
													<effectid>deformation</effectid>
													<effectcategory>motion</effectcategory>
													<effecttype>motion</effecttype>
													<mediatype>video</mediatype>
													<parameter authoringApp="PremierePro">
														<parameterid>aspect</parameterid>
														<name>Aspect</name>
														<valuemin>-10000</valuemin>
														<valuemax>10000</valuemax>
														<value>11.1111</value>
													</parameter>
												</effect>
											</filter>
											<logginginfo>
												<description></description>
												<scene></scene>
												<shottake></shottake>
												<lognote></lognote>
												<good></good>
												<originalvideofilename></originalvideofilename>
												<originalaudiofilename></originalaudiofilename>
											</logginginfo>
											<colorinfo>
												<lut></lut>
												<lut1></lut1>
												<asc_sop></asc_sop>
												<asc_sat></asc_sat>
												<lut2></lut2>
											</colorinfo>
											<labels>
												<label2>Violet</label2>
											</labels>
										</clipitem>
										<enabled>TRUE</enabled>
										<locked>FALSE</locked>
									</track>
									<track TL.SQTrackShy="0" TL.SQTrackExpandedHeight="25" TL.SQTrackExpanded="0" MZ.TrackTargeted="0">
										<transitionitem>
											<start>6</start>
											<end>35</end>
											<alignment>start-black</alignment>
											<cutPointTicks>0</cutPointTicks>
											<rate>
												<timebase>25</timebase>
												<ntsc>FALSE</ntsc>
											</rate>
											<effect>
												<name>Edge Wipe</name>
												<effectid>Edge Wipe</effectid>
												<effectcategory>Wipe</effectcategory>
												<effecttype>transition</effecttype>
												<mediatype>video</mediatype>
												<wipecode>2</wipecode>
												<wipeaccuracy>100</wipeaccuracy>
												<startratio>0</startratio>
												<endratio>1</endratio>
												<reverse>FALSE</reverse>
												<parameter authoringApp="PremierePro">
													<parameterid>directionofwipe</parameterid>
													<name>Angle</name>
													<valuemin>-360</valuemin>
													<valuemax>360</valuemax>
													<value>270</value>
												</parameter>
											</effect>
										</transitionitem>
										<clipitem id="clipitem-1835">
											<masterclipid>masterclip-803</masterclipid>
											<name>9_1.png</name>
											<enabled>TRUE</enabled>
											<duration>1080000</duration>
											<rate>
												<timebase>25</timebase>
												<ntsc>FALSE</ntsc>
											</rate>
											<start>-1</start>
											<end>-1</end>
											<in>90006</in>
											<out>90369</out>
											<pproTicksIn>914518563840000</pproTicksIn>
											<pproTicksOut>918206876160000</pproTicksOut>
											<alphatype>straight</alphatype>
											<pixelaspectratio>square</pixelaspectratio>
											<anamorphic>FALSE</anamorphic>
											<file id="file-665">
												<name>9_1.png</name>
												<pathurl>file://localhost/_MUZ_TV/project_AP/RU/_TITLE/468/PNG/9_1.png</pathurl>
												<rate>
													<timebase>30</timebase>
													<ntsc>TRUE</ntsc>
												</rate>
												<timecode>
													<rate>
														<timebase>30</timebase>
														<ntsc>TRUE</ntsc>
													</rate>
													<string>00;00;00;00</string>
													<frame>0</frame>
													<displayformat>DF</displayformat>
												</timecode>
												<media>
													<video>
														<samplecharacteristics>
															<rate>
																<timebase>30</timebase>
																<ntsc>TRUE</ntsc>
															</rate>
															<width>1920</width>
															<height>1080</height>
															<anamorphic>FALSE</anamorphic>
															<pixelaspectratio>square</pixelaspectratio>
															<fielddominance>none</fielddominance>
														</samplecharacteristics>
													</video>
												</media>
											</file>
											<filter>
												<effect>
													<name>Basic Motion</name>
													<effectid>basic</effectid>
													<effectcategory>motion</effectcategory>
													<effecttype>motion</effecttype>
													<mediatype>video</mediatype>
													<pproBypass>false</pproBypass>
													<parameter authoringApp="PremierePro">
														<parameterid>scale</parameterid>
														<name>Scale</name>
														<valuemin>0</valuemin>
														<valuemax>1000</valuemax>
														<value>53.3333</value>
													</parameter>
													<parameter authoringApp="PremierePro">
														<parameterid>rotation</parameterid>
														<name>Rotation</name>
														<valuemin>-8640</valuemin>
														<valuemax>8640</valuemax>
														<value>0</value>
													</parameter>
													<parameter authoringApp="PremierePro">
														<parameterid>center</parameterid>
														<name>Center</name>
														<value>
															<horiz>0</horiz>
															<vert>0</vert>
														</value>
													</parameter>
													<parameter authoringApp="PremierePro">
														<parameterid>centerOffset</parameterid>
														<name>Anchor Point</name>
														<value>
															<horiz>0</horiz>
															<vert>0</vert>
														</value>
													</parameter>
													<parameter authoringApp="PremierePro">
														<parameterid>antiflicker</parameterid>
														<name>Anti-flicker Filter</name>
														<valuemin>0.0</valuemin>
														<valuemax>1.0</valuemax>
														<value>0</value>
													</parameter>
												</effect>
											</filter>
											<logginginfo>
												<description></description>
												<scene></scene>
												<shottake></shottake>
												<lognote></lognote>
												<good></good>
												<originalvideofilename></originalvideofilename>
												<originalaudiofilename></originalaudiofilename>
											</logginginfo>
											<colorinfo>
												<lut></lut>
												<lut1></lut1>
												<asc_sop></asc_sop>
												<asc_sat></asc_sat>
												<lut2></lut2>
											</colorinfo>
											<labels>
												<label2>Lavender</label2>
											</labels>
										</clipitem>
										<transitionitem>
											<start>344</start>
											<end>369</end>
											<alignment>end-black</alignment>
											<cutPointTicks>254016000000</cutPointTicks>
											<rate>
												<timebase>25</timebase>
												<ntsc>FALSE</ntsc>
											</rate>
											<effect>
												<name>Edge Wipe</name>
												<effectid>Edge Wipe</effectid>
												<effectcategory>Wipe</effectcategory>
												<effecttype>transition</effecttype>
												<mediatype>video</mediatype>
												<wipecode>2</wipecode>
												<wipeaccuracy>100</wipeaccuracy>
												<startratio>0</startratio>
												<endratio>1</endratio>
												<reverse>FALSE</reverse>
												<parameter authoringApp="PremierePro">
													<parameterid>directionofwipe</parameterid>
													<name>Angle</name>
													<valuemin>-360</valuemin>
													<valuemax>360</valuemax>
													<value>90</value>
												</parameter>
											</effect>
										</transitionitem>
										<transitionitem>
											<start>381</start>
											<end>410</end>
											<alignment>start-black</alignment>
											<cutPointTicks>0</cutPointTicks>
											<rate>
												<timebase>25</timebase>
												<ntsc>FALSE</ntsc>
											</rate>
											<effect>
												<name>Edge Wipe</name>
												<effectid>Edge Wipe</effectid>
												<effectcategory>Wipe</effectcategory>
												<effecttype>transition</effecttype>
												<mediatype>video</mediatype>
												<wipecode>2</wipecode>
												<wipeaccuracy>100</wipeaccuracy>
												<startratio>0</startratio>
												<endratio>1</endratio>
												<reverse>FALSE</reverse>
												<parameter authoringApp="PremierePro">
													<parameterid>directionofwipe</parameterid>
													<name>Angle</name>
													<valuemin>-360</valuemin>
													<valuemax>360</valuemax>
													<value>270</value>
												</parameter>
											</effect>
										</transitionitem>
										<clipitem id="clipitem-1836">
											<masterclipid>masterclip-804</masterclipid>
											<name>9_2.png</name>
											<enabled>TRUE</enabled>
											<duration>1080000</duration>
											<rate>
												<timebase>25</timebase>
												<ntsc>FALSE</ntsc>
											</rate>
											<start>-1</start>
											<end>-1</end>
											<in>90011</in>
											<out>90374</out>
											<pproTicksIn>914569367040000</pproTicksIn>
											<pproTicksOut>918257679360000</pproTicksOut>
											<alphatype>straight</alphatype>
											<pixelaspectratio>square</pixelaspectratio>
											<anamorphic>FALSE</anamorphic>
											<file id="file-666">
												<name>9_2.png</name>
												<pathurl>file://localhost/_MUZ_TV/project_AP/RU/_TITLE/468/PNG/9_2.png</pathurl>
												<rate>
													<timebase>30</timebase>
													<ntsc>TRUE</ntsc>
												</rate>
												<timecode>
													<rate>
														<timebase>30</timebase>
														<ntsc>TRUE</ntsc>
													</rate>
													<string>00;00;00;00</string>
													<frame>0</frame>
													<displayformat>DF</displayformat>
												</timecode>
												<media>
													<video>
														<samplecharacteristics>
															<rate>
																<timebase>30</timebase>
																<ntsc>TRUE</ntsc>
															</rate>
															<width>1920</width>
															<height>1080</height>
															<anamorphic>FALSE</anamorphic>
															<pixelaspectratio>square</pixelaspectratio>
															<fielddominance>none</fielddominance>
														</samplecharacteristics>
													</video>
												</media>
											</file>
											<filter>
												<effect>
													<name>Basic Motion</name>
													<effectid>basic</effectid>
													<effectcategory>motion</effectcategory>
													<effecttype>motion</effecttype>
													<mediatype>video</mediatype>
													<pproBypass>false</pproBypass>
													<parameter authoringApp="PremierePro">
														<parameterid>scale</parameterid>
														<name>Scale</name>
														<valuemin>0</valuemin>
														<valuemax>1000</valuemax>
														<value>53.3333</value>
													</parameter>
													<parameter authoringApp="PremierePro">
														<parameterid>rotation</parameterid>
														<name>Rotation</name>
														<valuemin>-8640</valuemin>
														<valuemax>8640</valuemax>
														<value>0</value>
													</parameter>
													<parameter authoringApp="PremierePro">
														<parameterid>center</parameterid>
														<name>Center</name>
														<value>
															<horiz>0</horiz>
															<vert>0</vert>
														</value>
													</parameter>
													<parameter authoringApp="PremierePro">
														<parameterid>centerOffset</parameterid>
														<name>Anchor Point</name>
														<value>
															<horiz>0</horiz>
															<vert>0</vert>
														</value>
													</parameter>
													<parameter authoringApp="PremierePro">
														<parameterid>antiflicker</parameterid>
														<name>Anti-flicker Filter</name>
														<valuemin>0.0</valuemin>
														<valuemax>1.0</valuemax>
														<value>0</value>
													</parameter>
												</effect>
											</filter>
											<logginginfo>
												<description></description>
												<scene></scene>
												<shottake></shottake>
												<lognote></lognote>
												<good></good>
												<originalvideofilename></originalvideofilename>
												<originalaudiofilename></originalaudiofilename>
											</logginginfo>
											<colorinfo>
												<lut></lut>
												<lut1></lut1>
												<asc_sop></asc_sop>
												<asc_sat></asc_sat>
												<lut2></lut2>
											</colorinfo>
											<labels>
												<label2>Lavender</label2>
											</labels>
										</clipitem>
										<transitionitem>
											<start>719</start>
											<end>744</end>
											<alignment>end-black</alignment>
											<cutPointTicks>254016000000</cutPointTicks>
											<rate>
												<timebase>25</timebase>
												<ntsc>FALSE</ntsc>
											</rate>
											<effect>
												<name>Edge Wipe</name>
												<effectid>Edge Wipe</effectid>
												<effectcategory>Wipe</effectcategory>
												<effecttype>transition</effecttype>
												<mediatype>video</mediatype>
												<wipecode>2</wipecode>
												<wipeaccuracy>100</wipeaccuracy>
												<startratio>0</startratio>
												<endratio>1</endratio>
												<reverse>FALSE</reverse>
												<parameter authoringApp="PremierePro">
													<parameterid>directionofwipe</parameterid>
													<name>Angle</name>
													<valuemin>-360</valuemin>
													<valuemax>360</valuemax>
													<value>90</value>
												</parameter>
											</effect>
										</transitionitem>
										<transitionitem>
											<start>756</start>
											<end>785</end>
											<alignment>start-black</alignment>
											<cutPointTicks>0</cutPointTicks>
											<rate>
												<timebase>25</timebase>
												<ntsc>FALSE</ntsc>
											</rate>
											<effect>
												<name>Edge Wipe</name>
												<effectid>Edge Wipe</effectid>
												<effectcategory>Wipe</effectcategory>
												<effecttype>transition</effecttype>
												<mediatype>video</mediatype>
												<wipecode>2</wipecode>
												<wipeaccuracy>100</wipeaccuracy>
												<startratio>0</startratio>
												<endratio>1</endratio>
												<reverse>FALSE</reverse>
												<parameter authoringApp="PremierePro">
													<parameterid>directionofwipe</parameterid>
													<name>Angle</name>
													<valuemin>-360</valuemin>
													<valuemax>360</valuemax>
													<value>270</value>
												</parameter>
											</effect>
										</transitionitem>
										<clipitem id="clipitem-1837">
											<masterclipid>masterclip-805</masterclipid>
											<name>9_3.png</name>
											<enabled>TRUE</enabled>
											<duration>1080000</duration>
											<rate>
												<timebase>25</timebase>
												<ntsc>FALSE</ntsc>
											</rate>
											<start>-1</start>
											<end>-1</end>
											<in>90011</in>
											<out>90375</out>
											<pproTicksIn>914569367040000</pproTicksIn>
											<pproTicksOut>918267840000000</pproTicksOut>
											<alphatype>none</alphatype>
											<pixelaspectratio>PAL-601</pixelaspectratio>
											<anamorphic>TRUE</anamorphic>
											<file id="file-667">
												<name>9_3.png</name>
												<pathurl>file://localhost/_MUZ_TV/project_AP/RU/_TITLE/468/PNG/9_3.png</pathurl>
												<rate>
													<timebase>25</timebase>
													<ntsc>FALSE</ntsc>
												</rate>
												<duration>1080000</duration>
												<timecode>
													<rate>
														<timebase>25</timebase>
														<ntsc>FALSE</ntsc>
													</rate>
													<string>00:00:00:00</string>
													<frame>0</frame>
													<displayformat>NDF</displayformat>
												</timecode>
												<media>
													<video>
														<samplecharacteristics>
															<rate>
																<timebase>25</timebase>
																<ntsc>FALSE</ntsc>
															</rate>
															<width>1920</width>
															<height>1080</height>
															<anamorphic>TRUE</anamorphic>
															<pixelaspectratio>PAL-601</pixelaspectratio>
															<fielddominance>none</fielddominance>
														</samplecharacteristics>
													</video>
												</media>
											</file>
											<filter>
												<effect>
													<name>Basic Motion</name>
													<effectid>basic</effectid>
													<effectcategory>motion</effectcategory>
													<effecttype>motion</effecttype>
													<mediatype>video</mediatype>
													<pproBypass>false</pproBypass>
													<parameter authoringApp="PremierePro">
														<parameterid>scale</parameterid>
														<name>Scale</name>
														<valuemin>0</valuemin>
														<valuemax>1000</valuemax>
														<value>53.3333</value>
													</parameter>
													<parameter authoringApp="PremierePro">
														<parameterid>rotation</parameterid>
														<name>Rotation</name>
														<valuemin>-8640</valuemin>
														<valuemax>8640</valuemax>
														<value>0</value>
													</parameter>
													<parameter authoringApp="PremierePro">
														<parameterid>center</parameterid>
														<name>Center</name>
														<value>
															<horiz>0</horiz>
															<vert>0</vert>
														</value>
													</parameter>
													<parameter authoringApp="PremierePro">
														<parameterid>centerOffset</parameterid>
														<name>Anchor Point</name>
														<value>
															<horiz>0</horiz>
															<vert>0</vert>
														</value>
													</parameter>
													<parameter authoringApp="PremierePro">
														<parameterid>antiflicker</parameterid>
														<name>Anti-flicker Filter</name>
														<valuemin>0.0</valuemin>
														<valuemax>1.0</valuemax>
														<value>0</value>
													</parameter>
												</effect>
											</filter>
											<logginginfo>
												<description></description>
												<scene></scene>
												<shottake></shottake>
												<lognote></lognote>
												<good></good>
												<originalvideofilename></originalvideofilename>
												<originalaudiofilename></originalaudiofilename>
											</logginginfo>
											<colorinfo>
												<lut></lut>
												<lut1></lut1>
												<asc_sop></asc_sop>
												<asc_sat></asc_sat>
												<lut2></lut2>
											</colorinfo>
											<labels>
												<label2>Lavender</label2>
											</labels>
										</clipitem>
										<transitionitem>
											<start>1095</start>
											<end>1120</end>
											<alignment>end-black</alignment>
											<cutPointTicks>254016000000</cutPointTicks>
											<rate>
												<timebase>25</timebase>
												<ntsc>FALSE</ntsc>
											</rate>
											<effect>
												<name>Edge Wipe</name>
												<effectid>Edge Wipe</effectid>
												<effectcategory>Wipe</effectcategory>
												<effecttype>transition</effecttype>
												<mediatype>video</mediatype>
												<wipecode>2</wipecode>
												<wipeaccuracy>100</wipeaccuracy>
												<startratio>0</startratio>
												<endratio>1</endratio>
												<reverse>FALSE</reverse>
												<parameter authoringApp="PremierePro">
													<parameterid>directionofwipe</parameterid>
													<name>Angle</name>
													<valuemin>-360</valuemin>
													<valuemax>360</valuemax>
													<value>90</value>
												</parameter>
											</effect>
										</transitionitem>
										<enabled>TRUE</enabled>
										<locked>FALSE</locked>
									</track>
									<track TL.SQTrackShy="0" TL.SQTrackExpandedHeight="25" TL.SQTrackExpanded="0" MZ.TrackTargeted="0">
										<transitionitem>
											<start>755</start>
											<end>780</end>
											<alignment>start-black</alignment>
											<cutPointTicks>0</cutPointTicks>
											<rate>
												<timebase>25</timebase>
												<ntsc>FALSE</ntsc>
											</rate>
											<effect>
												<name>Edge Wipe</name>
												<effectid>Edge Wipe</effectid>
												<effectcategory>Wipe</effectcategory>
												<effecttype>transition</effecttype>
												<mediatype>video</mediatype>
												<wipecode>2</wipecode>
												<wipeaccuracy>100</wipeaccuracy>
												<startratio>0</startratio>
												<endratio>1</endratio>
												<reverse>FALSE</reverse>
												<parameter authoringApp="PremierePro">
													<parameterid>directionofwipe</parameterid>
													<name>Angle</name>
													<valuemin>-360</valuemin>
													<valuemax>360</valuemax>
													<value>270</value>
												</parameter>
											</effect>
										</transitionitem>
										<clipitem id="clipitem-1838">
											<masterclipid>masterclip-806</masterclipid>
											<name>Graphic</name>
											<enabled>FALSE</enabled>
											<duration>1080000</duration>
											<rate>
												<timebase>25</timebase>
												<ntsc>FALSE</ntsc>
											</rate>
											<start>-1</start>
											<end>-1</end>
											<in>89905</in>
											<out>90272</out>
											<pproTicksIn>913492339200000</pproTicksIn>
											<pproTicksOut>917221294080000</pproTicksOut>
											<alphatype>straight</alphatype>
											<pixelaspectratio>PAL-601</pixelaspectratio>
											<anamorphic>TRUE</anamorphic>
											<file id="file-668">
												<name>Graphic</name>
												<mediaSource>GraphicAndType</mediaSource>
												<rate>
													<timebase>30</timebase>
													<ntsc>TRUE</ntsc>
												</rate>
												<timecode>
													<rate>
														<timebase>30</timebase>
														<ntsc>TRUE</ntsc>
													</rate>
													<string>00;00;00;00</string>
													<frame>0</frame>
													<displayformat>DF</displayformat>
												</timecode>
												<media>
													<video>
														<samplecharacteristics>
															<rate>
																<timebase>30</timebase>
																<ntsc>TRUE</ntsc>
															</rate>
															<width>720</width>
															<height>576</height>
															<anamorphic>TRUE</anamorphic>
															<pixelaspectratio>PAL-601</pixelaspectratio>
															<fielddominance>none</fielddominance>
														</samplecharacteristics>
													</video>
												</media>
											</file>
											<filter>
												<effect>
													<name>Vector Motion</name>
													<effectid>GraphicGroup</effectid>
													<effectcategory>graphic</effectcategory>
													<effecttype>filter</effecttype>
													<mediatype>video</mediatype>
													<pproBypass>false</pproBypass>
													<parameter authoringApp="PremierePro">
														<parameterid>1</parameterid>
														<name>Position</name>
														<IsTimeVarying>false</IsTimeVarying>
														<value>-91445760000000000,0.81693898908787344:0.49085601568222115,0,0,0,0,0,0,5,4,0,0,0,0</value>
													</parameter>
													<parameter authoringApp="PremierePro">
														<parameterid>2</parameterid>
														<name>Scale</name>
														<IsTimeVarying>false</IsTimeVarying>
														<ParameterControlType>2</ParameterControlType>
														<LowerBound>0</LowerBound>
														<UpperBound>10000</UpperBound>
														<UpperUIBound>200</UpperUIBound>
														<value>-91445760000000000,100.,0,0,0,0,0,0</value>
													</parameter>
													<parameter authoringApp="PremierePro">
														<parameterid>3</parameterid>
														<name>Scale Width</name>
														<IsTimeVarying>false</IsTimeVarying>
														<ParameterControlType>2</ParameterControlType>
														<LowerBound>0</LowerBound>
														<UpperBound>10000</UpperBound>
														<UpperUIBound>200</UpperUIBound>
														<value>-91445760000000000,100.,0,0,0,0,0,0</value>
													</parameter>
													<parameter authoringApp="PremierePro">
														<parameterid>4</parameterid>
														<name> </name>
														<IsTimeVarying>false</IsTimeVarying>
														<ParameterControlType>4</ParameterControlType>
														<LowerBound>false</LowerBound>
														<UpperBound>true</UpperBound>
														<value>-91445760000000000,true,0,0,0,0,0,0</value>
													</parameter>
													<parameter authoringApp="PremierePro">
														<parameterid>5</parameterid>
														<name>Rotation</name>
														<IsTimeVarying>false</IsTimeVarying>
														<ParameterControlType>3</ParameterControlType>
														<LowerBound>-32768</LowerBound>
														<UpperBound>32767</UpperBound>
														<value>-91445760000000000,0.,0,0,0,0,0,0</value>
													</parameter>
													<parameter authoringApp="PremierePro">
														<parameterid>6</parameterid>
														<name>Anchor Point</name>
														<IsTimeVarying>false</IsTimeVarying>
														<value>-91445760000000000,0.5:0.5,0,0,0,0,0,0,5,4,0,0,0,0</value>
													</parameter>
												</effect>
											</filter>
											<filter>
												<effect>
													<name>Данил Прытков признаётся, &#13;что сильные провалы &#13;мотивируют его на творчество &#13;не меньше, чем победы. </name>
													<effectid>GraphicAndType</effectid>
													<effectcategory>graphic</effectcategory>
													<effecttype>filter</effecttype>
													<mediatype>video</mediatype>
													<pproBypass>false</pproBypass>
													<pproExpanded>true</pproExpanded>
													<parameter authoringApp="PremierePro">
														<parameterid>1</parameterid>
														<name>Source Text</name>
														<hash>698123b5-7d57-7b79-efb1-b0df00000a31</hash>
													</parameter>
													<parameter authoringApp="PremierePro">
														<parameterid>2</parameterid>
														<name>Transform</name>
														<IsTimeVarying>false</IsTimeVarying>
														<ParameterControlType>11</ParameterControlType>
														<LowerBound>false</LowerBound>
														<UpperBound>false</UpperBound>
														<value>-91445760000000000,false,0,0,0,0,0,0</value>
													</parameter>
													<parameter authoringApp="PremierePro">
														<parameterid>3</parameterid>
														<name>Position</name>
														<IsTimeVarying>false</IsTimeVarying>
														<value>-91445760000000000,0.270416259765625:0.640594482421875,0,0,0,0,0,0,5,4,0,0,0,0</value>
													</parameter>
													<parameter authoringApp="PremierePro">
														<parameterid>4</parameterid>
														<name>Scale</name>
														<IsTimeVarying>false</IsTimeVarying>
														<ParameterControlType>2</ParameterControlType>
														<LowerBound>0</LowerBound>
														<UpperBound>4000</UpperBound>
														<value>-91445760000000000,100.,0,0,0,0,0,0</value>
													</parameter>
													<parameter authoringApp="PremierePro">
														<parameterid>5</parameterid>
														<name>Horizontal Scale</name>
														<IsTimeVarying>false</IsTimeVarying>
														<ParameterControlType>2</ParameterControlType>
														<LowerBound>0</LowerBound>
														<UpperBound>4000</UpperBound>
														<value>-91445760000000000,100.,0,0,0,0,0,0</value>
													</parameter>
													<parameter authoringApp="PremierePro">
														<parameterid>6</parameterid>
														<name> </name>
														<IsTimeVarying>false</IsTimeVarying>
														<ParameterControlType>4</ParameterControlType>
														<LowerBound>false</LowerBound>
														<UpperBound>true</UpperBound>
														<value>-91445760000000000,true,0,0,0,0,0,0</value>
													</parameter>
													<parameter authoringApp="PremierePro">
														<parameterid>7</parameterid>
														<name>Rotation</name>
														<IsTimeVarying>false</IsTimeVarying>
														<ParameterControlType>3</ParameterControlType>
														<LowerBound>-32768</LowerBound>
														<UpperBound>32767</UpperBound>
														<value>-91445760000000000,0.,0,0,0,0,0,0</value>
													</parameter>
													<parameter authoringApp="PremierePro">
														<parameterid>8</parameterid>
														<name>Opacity</name>
														<IsTimeVarying>false</IsTimeVarying>
														<ParameterControlType>2</ParameterControlType>
														<LowerBound>0</LowerBound>
														<UpperBound>100</UpperBound>
														<value>-91445760000000000,100.,0,0,0,0,0,0</value>
													</parameter>
													<parameter authoringApp="PremierePro">
														<parameterid>9</parameterid>
														<name>Anchor Point</name>
														<IsTimeVarying>false</IsTimeVarying>
														<value>-91445760000000000,0:0,0,0,0,0,0,0,5,4,0,0,0,0</value>
													</parameter>
													<parameter authoringApp="PremierePro">
														<parameterid>10</parameterid>
														<name></name>
														<IsTimeVarying>false</IsTimeVarying>
														<ParameterControlType>12</ParameterControlType>
														<LowerBound>false</LowerBound>
														<UpperBound>false</UpperBound>
														<value>-91445760000000000,false,0,0,0,0,0,0</value>
													</parameter>
													<parameter authoringApp="PremierePro">
														<parameterid>11</parameterid>
														<name> </name>
														<IsTimeVarying>false</IsTimeVarying>
														<ParameterControlType>8</ParameterControlType>
														<LowerBound>0</LowerBound>
														<UpperBound>32768</UpperBound>
														<value>-91445760000000000,0.,0,0,0,0,0,0</value>
													</parameter>
													<parameter authoringApp="PremierePro">
														<parameterid>12</parameterid>
														<name> </name>
														<IsTimeVarying>false</IsTimeVarying>
														<ParameterControlType>8</ParameterControlType>
														<LowerBound>0</LowerBound>
														<UpperBound>32768</UpperBound>
														<value>-91445760000000000,0.,0,0,0,0,0,0</value>
													</parameter>
													<parameter authoringApp="PremierePro">
														<parameterid>13</parameterid>
														<name>start</name>
														<IsTimeVarying>false</IsTimeVarying>
														<ParameterControlType>8</ParameterControlType>
														<LowerBound>-100</LowerBound>
														<UpperBound>1000000000</UpperBound>
														<value>-91445760000000000,0.,0,0,0,0,0,0</value>
													</parameter>
													<parameter authoringApp="PremierePro">
														<parameterid>14</parameterid>
														<name>end</name>
														<IsTimeVarying>false</IsTimeVarying>
														<ParameterControlType>8</ParameterControlType>
														<LowerBound>-100</LowerBound>
														<UpperBound>1000000000</UpperBound>
														<value>-91445760000000000,101.,0,0,0,0,0,0</value>
													</parameter>
													<parameter authoringApp="PremierePro">
														<parameterid>15</parameterid>
														<name> </name>
														<IsTimeVarying>false</IsTimeVarying>
														<ParameterControlType>4</ParameterControlType>
														<LowerBound>false</LowerBound>
														<UpperBound>true</UpperBound>
														<value>-91445760000000000,false,0,0,0,0,0,0</value>
													</parameter>
													<parameter authoringApp="PremierePro">
														<parameterid>16</parameterid>
														<name> </name>
														<IsTimeVarying>false</IsTimeVarying>
														<ParameterControlType>4</ParameterControlType>
														<LowerBound>false</LowerBound>
														<UpperBound>true</UpperBound>
														<value>-91445760000000000,false,0,0,0,0,0,0</value>
													</parameter>
													<parameter authoringApp="PremierePro">
														<parameterid>17</parameterid>
														<name> </name>
														<IsTimeVarying>false</IsTimeVarying>
														<ParameterControlType>4</ParameterControlType>
														<LowerBound>false</LowerBound>
														<UpperBound>true</UpperBound>
														<value>-91445760000000000,false,0,0,0,0,0,0</value>
													</parameter>
													<parameter authoringApp="PremierePro">
														<parameterid>18</parameterid>
														<name> </name>
														<IsTimeVarying>false</IsTimeVarying>
														<ParameterControlType>4</ParameterControlType>
														<LowerBound>false</LowerBound>
														<UpperBound>true</UpperBound>
														<value>-91445760000000000,false,0,0,0,0,0,0</value>
													</parameter>
													<parameter authoringApp="PremierePro">
														<parameterid>19</parameterid>
														<name>Parent Width</name>
														<IsTimeVarying>false</IsTimeVarying>
														<ParameterControlType>2</ParameterControlType>
														<LowerBound>0</LowerBound>
														<UpperBound>20000</UpperBound>
														<value>-91445760000000000,0.,0,0,0,0,0,0</value>
													</parameter>
													<parameter authoringApp="PremierePro">
														<parameterid>20</parameterid>
														<name>Parent Height</name>
														<IsTimeVarying>false</IsTimeVarying>
														<ParameterControlType>2</ParameterControlType>
														<LowerBound>0</LowerBound>
														<UpperBound>20000</UpperBound>
														<value>-91445760000000000,0.,0,0,0,0,0,0</value>
													</parameter>
													<parameter authoringApp="PremierePro">
														<parameterid>21</parameterid>
														<name>Parent Rotation</name>
														<IsTimeVarying>false</IsTimeVarying>
														<ParameterControlType>3</ParameterControlType>
														<LowerBound>-32768</LowerBound>
														<UpperBound>32767</UpperBound>
														<value>-91445760000000000,0.,0,0,0,0,0,0</value>
													</parameter>
												</effect>
											</filter>
											<logginginfo>
												<description></description>
												<scene></scene>
												<shottake></shottake>
												<lognote></lognote>
												<good></good>
												<originalvideofilename></originalvideofilename>
												<originalaudiofilename></originalaudiofilename>
											</logginginfo>
											<colorinfo>
												<lut></lut>
												<lut1></lut1>
												<asc_sop></asc_sop>
												<asc_sat></asc_sat>
												<lut2></lut2>
											</colorinfo>
										</clipitem>
										<transitionitem>
											<start>1097</start>
											<end>1122</end>
											<alignment>end-black</alignment>
											<cutPointTicks>254016000000</cutPointTicks>
											<rate>
												<timebase>25</timebase>
												<ntsc>FALSE</ntsc>
											</rate>
											<effect>
												<name>Edge Wipe</name>
												<effectid>Edge Wipe</effectid>
												<effectcategory>Wipe</effectcategory>
												<effecttype>transition</effecttype>
												<mediatype>video</mediatype>
												<wipecode>2</wipecode>
												<wipeaccuracy>100</wipeaccuracy>
												<startratio>0</startratio>
												<endratio>1</endratio>
												<reverse>FALSE</reverse>
												<parameter authoringApp="PremierePro">
													<parameterid>directionofwipe</parameterid>
													<name>Angle</name>
													<valuemin>-360</valuemin>
													<valuemax>360</valuemax>
													<value>90</value>
												</parameter>
											</effect>
										</transitionitem>
										<enabled>TRUE</enabled>
										<locked>FALSE</locked>
									</track>
								</video>
								<audio>
									<numOutputChannels>2</numOutputChannels>
									<format>
										<samplecharacteristics>
											<depth>16</depth>
											<samplerate>48000</samplerate>
										</samplecharacteristics>
									</format>
									<outputs>
										<group>
											<index>1</index>
											<numchannels>1</numchannels>
											<downmix>0</downmix>
											<channel>
												<index>1</index>
											</channel>
										</group>
										<group>
											<index>2</index>
											<numchannels>1</numchannels>
											<downmix>0</downmix>
											<channel>
												<index>2</index>
											</channel>
										</group>
									</outputs>
									<track TL.SQTrackAudioKeyframeStyle="0" TL.SQTrackShy="0" TL.SQTrackExpandedHeight="25" TL.SQTrackExpanded="0" MZ.TrackTargeted="1" PannerCurrentValue="0.5" PannerStartKeyframe="-91445760000000000,0.5,0,0,0,0,0,0" PannerName="Balance" currentExplodedTrackIndex="0" totalExplodedTrackCount="2" premiereTrackType="Stereo">
										<enabled>TRUE</enabled>
										<locked>FALSE</locked>
										<outputchannelindex>1</outputchannelindex>
									</track>
									<track TL.SQTrackAudioKeyframeStyle="0" TL.SQTrackShy="0" TL.SQTrackExpandedHeight="25" TL.SQTrackExpanded="0" MZ.TrackTargeted="1" PannerCurrentValue="0.5" PannerStartKeyframe="-91445760000000000,0.5,0,0,0,0,0,0" PannerName="Balance" currentExplodedTrackIndex="1" totalExplodedTrackCount="2" premiereTrackType="Stereo">
										<enabled>TRUE</enabled>
										<locked>FALSE</locked>
										<outputchannelindex>2</outputchannelindex>
									</track>
								</audio>
							</media>
							<timecode>
								<rate>
									<timebase>25</timebase>
									<ntsc>FALSE</ntsc>
								</rate>
								<string>00:00:00:00</string>
								<frame>0</frame>
								<displayformat>NDF</displayformat>
							</timecode>
								<marker>
									<comment></comment>
									<name></name>
									<in>800</in>
									<out>-1</out>
									<pproColor>4292277273</pproColor>
								</marker>
								<marker>
									<comment></comment>
									<name></name>
									<in>425</in>
									<out>-1</out>
									<pproColor>4292277273</pproColor>
								</marker>
								<marker>
									<comment></comment>
									<name></name>
									<in>50</in>
									<out>-1</out>
									<pproColor>4292277273</pproColor>
								</marker>
							<logginginfo>
								<description></description>
								<scene></scene>
								<shottake></shottake>
								<lognote></lognote>
								<good></good>
								<originalvideofilename></originalvideofilename>
								<originalaudiofilename></originalaudiofilename>
							</logginginfo>
						</sequence>
							<marker>
								<comment></comment>
								<name></name>
								<in>800</in>
								<out>-1</out>
								<pproColor>4292277273</pproColor>
							</marker>
							<marker>
								<comment></comment>
								<name></name>
								<in>425</in>
								<out>-1</out>
								<pproColor>4292277273</pproColor>
							</marker>
							<marker>
								<comment></comment>
								<name></name>
								<in>50</in>
								<out>-1</out>
								<pproColor>4292277273</pproColor>
							</marker>
						<labels>
							<label2>Forest</label2>
						</labels>
					</clipitem>
					<clipitem id="clipitem-1839">
						<masterclipid>masterclip-801</masterclipid>
						<name>9</name>
						<enabled>FALSE</enabled>
						<duration>1125</duration>
						<rate>
							<timebase>25</timebase>
							<ntsc>FALSE</ntsc>
						</rate>
						<start>18059</start>
						<end>18434</end>
						<in>375</in>
						<out>750</out>
						<pproTicksIn>3810240000000</pproTicksIn>
						<pproTicksOut>7620480000000</pproTicksOut>
						<sequence id="sequence-148"/>
							<marker>
								<comment></comment>
								<name></name>
								<in>800</in>
								<out>-1</out>
								<pproColor>4292277273</pproColor>
							</marker>
							<marker>
								<comment></comment>
								<name></name>
								<in>425</in>
								<out>-1</out>
								<pproColor>4292277273</pproColor>
							</marker>
							<marker>
								<comment></comment>
								<name></name>
								<in>50</in>
								<out>-1</out>
								<pproColor>4292277273</pproColor>
							</marker>
						<labels>
							<label2>Forest</label2>
						</labels>
					</clipitem>
					<clipitem id="clipitem-1840">
						<masterclipid>masterclip-801</masterclipid>
						<name>9</name>
						<enabled>FALSE</enabled>
						<duration>1125</duration>
						<rate>
							<timebase>25</timebase>
							<ntsc>FALSE</ntsc>
						</rate>
						<start>19377</start>
						<end>19752</end>
						<in>750</in>
						<out>1125</out>
						<pproTicksIn>7620480000000</pproTicksIn>
						<pproTicksOut>11430720000000</pproTicksOut>
						<sequence id="sequence-148"/>
							<marker>
								<comment></comment>
								<name></name>
								<in>800</in>
								<out>-1</out>
								<pproColor>4292277273</pproColor>
							</marker>
							<marker>
								<comment></comment>
								<name></name>
								<in>425</in>
								<out>-1</out>
								<pproColor>4292277273</pproColor>
							</marker>
							<marker>
								<comment></comment>
								<name></name>
								<in>50</in>
								<out>-1</out>
								<pproColor>4292277273</pproColor>
							</marker>
						<labels>
							<label2>Forest</label2>
						</labels>
					</clipitem>
					<clipitem id="clipitem-1841">
						<masterclipid>masterclip-807</masterclipid>
						<name>8</name>
						<enabled>FALSE</enabled>
						<duration>1125</duration>
						<rate>
							<timebase>25</timebase>
							<ntsc>FALSE</ntsc>
						</rate>
						<start>22251</start>
						<end>22626</end>
						<in>0</in>
						<out>375</out>
						<pproTicksIn>0</pproTicksIn>
						<pproTicksOut>3810240000000</pproTicksOut>
						<sequence id="sequence-149" TL.SQAudioVisibleBase="0" TL.SQVideoVisibleBase="0" TL.SQVisibleBaseTime="0" TL.SQAVDividerPosition="0.5" TL.SQHideShyTracks="0" TL.SQHeaderWidth="236" Monitor.ProgramZoomOut="11430720000000" Monitor.ProgramZoomIn="0" TL.SQTimePerPixel="0.19620667102680819" AM.TrackVScrollPosition="0" AM.TrackScrollPosition="0" MZ.EditLine="7691604480000" MZ.Sequence.PreviewFrameSizeHeight="576" MZ.Sequence.PreviewFrameSizeWidth="720" MZ.Sequence.AudioTimeDisplayFormat="200" MZ.Sequence.PreviewRenderingClassID="1061109567" MZ.Sequence.PreviewRenderingPresetCodec="1685480304" MZ.Sequence.PreviewRenderingPresetPath="EncoderPresets/SequencePreview/04be6e19-a018-4e0c-a9d6-0ab44c64752b/QuickTime DV PAL.epr" MZ.Sequence.PreviewUseMaxRenderQuality="false" MZ.Sequence.PreviewUseMaxBitDepth="false" MZ.Sequence.EditingModeGUID="04be6e19-a018-4e0c-a9d6-0ab44c64752b" MZ.Sequence.VideoTimeDisplayFormat="101" MZ.WorkOutPoint="11430720000000" MZ.WorkInPoint="0" MZ.ZeroPoint="0">
							<duration>1125</duration>
							<rate>
								<timebase>25</timebase>
								<ntsc>FALSE</ntsc>
							</rate>
							<name>RU_Nested</name>
							<media>
								<video>
									<format>
										<samplecharacteristics>
											<rate>
												<timebase>25</timebase>
												<ntsc>FALSE</ntsc>
											</rate>
											<codec>
												<name>Apple ProRes 422</name>
												<appspecificdata>
													<appname>Final Cut Pro</appname>
													<appmanufacturer>Apple Inc.</appmanufacturer>
													<appversion>7.0</appversion>
													<data>
														<qtcodec>
															<codecname>Apple ProRes 422</codecname>
															<codectypename>Apple ProRes 422</codectypename>
															<codectypecode>apcn</codectypecode>
															<codecvendorcode>appl</codecvendorcode>
															<spatialquality>1024</spatialquality>
															<temporalquality>0</temporalquality>
															<keyframerate>0</keyframerate>
															<datarate>0</datarate>
														</qtcodec>
													</data>
												</appspecificdata>
											</codec>
											<width>720</width>
											<height>576</height>
											<anamorphic>TRUE</anamorphic>
											<pixelaspectratio>PAL-601</pixelaspectratio>
											<fielddominance>lower</fielddominance>
											<colordepth>24</colordepth>
										</samplecharacteristics>
									</format>
									<track TL.SQTrackShy="0" TL.SQTrackExpandedHeight="25" TL.SQTrackExpanded="0" MZ.TrackTargeted="1">
										<clipitem id="clipitem-1842">
											<masterclipid>masterclip-808</masterclipid>
											<name>Plashka_Right_DV.mov</name>
											<enabled>TRUE</enabled>
											<duration>375</duration>
											<rate>
												<timebase>25</timebase>
												<ntsc>FALSE</ntsc>
											</rate>
											<start>0</start>
											<end>375</end>
											<in>0</in>
											<out>375</out>
											<pproTicksIn>0</pproTicksIn>
											<pproTicksOut>3810240000000</pproTicksOut>
											<alphatype>straight</alphatype>
											<pixelaspectratio>PAL-601</pixelaspectratio>
											<anamorphic>TRUE</anamorphic>
											<file id="file-669">
												<name>Plashka_Right_DV.mov</name>
												<pathurl>file://localhost/Volumes/1Tb/_MUZ_TV/graphika/RU-21/MOD/Plashka_Right_DV.mov</pathurl>
												<rate>
													<timebase>25</timebase>
													<ntsc>FALSE</ntsc>
												</rate>
												<duration>375</duration>
												<timecode>
													<rate>
														<timebase>25</timebase>
														<ntsc>FALSE</ntsc>
													</rate>
													<string>00:00:15:10</string>
													<frame>385</frame>
													<displayformat>NDF</displayformat>
												</timecode>
												<media>
													<video>
														<samplecharacteristics>
															<rate>
																<timebase>25</timebase>
																<ntsc>FALSE</ntsc>
															</rate>
															<width>720</width>
															<height>576</height>
															<anamorphic>TRUE</anamorphic>
															<pixelaspectratio>PAL-601</pixelaspectratio>
															<fielddominance>lower</fielddominance>
														</samplecharacteristics>
													</video>
												</media>
											</file>
											<filter>
												<effect>
													<name>Basic Motion</name>
													<effectid>basic</effectid>
													<effectcategory>motion</effectcategory>
													<effecttype>motion</effecttype>
													<mediatype>video</mediatype>
													<pproBypass>false</pproBypass>
													<parameter authoringApp="PremierePro">
														<parameterid>scale</parameterid>
														<name>Scale</name>
														<valuemin>0</valuemin>
														<valuemax>1000</valuemax>
														<value>100</value>
													</parameter>
													<parameter authoringApp="PremierePro">
														<parameterid>rotation</parameterid>
														<name>Rotation</name>
														<valuemin>-8640</valuemin>
														<valuemax>8640</valuemax>
														<value>0</value>
													</parameter>
													<parameter authoringApp="PremierePro">
														<parameterid>center</parameterid>
														<name>Center</name>
														<value>
															<horiz>-5.55112e-17</horiz>
															<vert>-1.11022e-16</vert>
														</value>
													</parameter>
													<parameter authoringApp="PremierePro">
														<parameterid>centerOffset</parameterid>
														<name>Anchor Point</name>
														<value>
															<horiz>0.402314</horiz>
															<vert>0.41875</vert>
														</value>
													</parameter>
													<parameter authoringApp="PremierePro">
														<parameterid>antiflicker</parameterid>
														<name>Anti-flicker Filter</name>
														<valuemin>0.0</valuemin>
														<valuemax>1.0</valuemax>
														<value>0</value>
													</parameter>
												</effect>
											</filter>
											<filter>
												<effect>
													<name>Distort</name>
													<effectid>deformation</effectid>
													<effectcategory>motion</effectcategory>
													<effecttype>motion</effecttype>
													<mediatype>video</mediatype>
													<parameter authoringApp="PremierePro">
														<parameterid>aspect</parameterid>
														<name>Aspect</name>
														<valuemin>-10000</valuemin>
														<valuemax>10000</valuemax>
														<value>11.1111</value>
													</parameter>
												</effect>
											</filter>
											<logginginfo>
												<description></description>
												<scene></scene>
												<shottake></shottake>
												<lognote></lognote>
												<good></good>
												<originalvideofilename></originalvideofilename>
												<originalaudiofilename></originalaudiofilename>
											</logginginfo>
											<colorinfo>
												<lut></lut>
												<lut1></lut1>
												<asc_sop></asc_sop>
												<asc_sat></asc_sat>
												<lut2></lut2>
											</colorinfo>
											<labels>
												<label2>Violet</label2>
											</labels>
										</clipitem>
										<clipitem id="clipitem-1843">
											<masterclipid>masterclip-808</masterclipid>
											<name>Plashka_Right_DV.mov</name>
											<enabled>TRUE</enabled>
											<duration>375</duration>
											<rate>
												<timebase>25</timebase>
												<ntsc>FALSE</ntsc>
											</rate>
											<start>375</start>
											<end>750</end>
											<in>0</in>
											<out>375</out>
											<pproTicksIn>0</pproTicksIn>
											<pproTicksOut>3810240000000</pproTicksOut>
											<alphatype>straight</alphatype>
											<file id="file-669"/>
											<filter>
												<effect>
													<name>Basic Motion</name>
													<effectid>basic</effectid>
													<effectcategory>motion</effectcategory>
													<effecttype>motion</effecttype>
													<mediatype>video</mediatype>
													<pproBypass>false</pproBypass>
													<parameter authoringApp="PremierePro">
														<parameterid>scale</parameterid>
														<name>Scale</name>
														<valuemin>0</valuemin>
														<valuemax>1000</valuemax>
														<value>100</value>
													</parameter>
													<parameter authoringApp="PremierePro">
														<parameterid>rotation</parameterid>
														<name>Rotation</name>
														<valuemin>-8640</valuemin>
														<valuemax>8640</valuemax>
														<value>0</value>
													</parameter>
													<parameter authoringApp="PremierePro">
														<parameterid>center</parameterid>
														<name>Center</name>
														<value>
															<horiz>-5.55112e-17</horiz>
															<vert>-1.11022e-16</vert>
														</value>
													</parameter>
													<parameter authoringApp="PremierePro">
														<parameterid>centerOffset</parameterid>
														<name>Anchor Point</name>
														<value>
															<horiz>0.402314</horiz>
															<vert>0.41875</vert>
														</value>
													</parameter>
													<parameter authoringApp="PremierePro">
														<parameterid>antiflicker</parameterid>
														<name>Anti-flicker Filter</name>
														<valuemin>0.0</valuemin>
														<valuemax>1.0</valuemax>
														<value>0</value>
													</parameter>
												</effect>
											</filter>
											<filter>
												<effect>
													<name>Distort</name>
													<effectid>deformation</effectid>
													<effectcategory>motion</effectcategory>
													<effecttype>motion</effecttype>
													<mediatype>video</mediatype>
													<parameter authoringApp="PremierePro">
														<parameterid>aspect</parameterid>
														<name>Aspect</name>
														<valuemin>-10000</valuemin>
														<valuemax>10000</valuemax>
														<value>11.1111</value>
													</parameter>
												</effect>
											</filter>
											<logginginfo>
												<description></description>
												<scene></scene>
												<shottake></shottake>
												<lognote></lognote>
												<good></good>
												<originalvideofilename></originalvideofilename>
												<originalaudiofilename></originalaudiofilename>
											</logginginfo>
											<colorinfo>
												<lut></lut>
												<lut1></lut1>
												<asc_sop></asc_sop>
												<asc_sat></asc_sat>
												<lut2></lut2>
											</colorinfo>
											<labels>
												<label2>Violet</label2>
											</labels>
										</clipitem>
										<clipitem id="clipitem-1844">
											<masterclipid>masterclip-808</masterclipid>
											<name>Plashka_Right_DV.mov</name>
											<enabled>TRUE</enabled>
											<duration>375</duration>
											<rate>
												<timebase>25</timebase>
												<ntsc>FALSE</ntsc>
											</rate>
											<start>750</start>
											<end>1125</end>
											<in>0</in>
											<out>375</out>
											<pproTicksIn>0</pproTicksIn>
											<pproTicksOut>3810240000000</pproTicksOut>
											<alphatype>straight</alphatype>
											<file id="file-669"/>
											<filter>
												<effect>
													<name>Basic Motion</name>
													<effectid>basic</effectid>
													<effectcategory>motion</effectcategory>
													<effecttype>motion</effecttype>
													<mediatype>video</mediatype>
													<pproBypass>false</pproBypass>
													<parameter authoringApp="PremierePro">
														<parameterid>scale</parameterid>
														<name>Scale</name>
														<valuemin>0</valuemin>
														<valuemax>1000</valuemax>
														<value>100</value>
													</parameter>
													<parameter authoringApp="PremierePro">
														<parameterid>rotation</parameterid>
														<name>Rotation</name>
														<valuemin>-8640</valuemin>
														<valuemax>8640</valuemax>
														<value>0</value>
													</parameter>
													<parameter authoringApp="PremierePro">
														<parameterid>center</parameterid>
														<name>Center</name>
														<value>
															<horiz>-5.55112e-17</horiz>
															<vert>-1.11022e-16</vert>
														</value>
													</parameter>
													<parameter authoringApp="PremierePro">
														<parameterid>centerOffset</parameterid>
														<name>Anchor Point</name>
														<value>
															<horiz>0.402314</horiz>
															<vert>0.41875</vert>
														</value>
													</parameter>
													<parameter authoringApp="PremierePro">
														<parameterid>antiflicker</parameterid>
														<name>Anti-flicker Filter</name>
														<valuemin>0.0</valuemin>
														<valuemax>1.0</valuemax>
														<value>0</value>
													</parameter>
												</effect>
											</filter>
											<filter>
												<effect>
													<name>Distort</name>
													<effectid>deformation</effectid>
													<effectcategory>motion</effectcategory>
													<effecttype>motion</effecttype>
													<mediatype>video</mediatype>
													<parameter authoringApp="PremierePro">
														<parameterid>aspect</parameterid>
														<name>Aspect</name>
														<valuemin>-10000</valuemin>
														<valuemax>10000</valuemax>
														<value>11.1111</value>
													</parameter>
												</effect>
											</filter>
											<logginginfo>
												<description></description>
												<scene></scene>
												<shottake></shottake>
												<lognote></lognote>
												<good></good>
												<originalvideofilename></originalvideofilename>
												<originalaudiofilename></originalaudiofilename>
											</logginginfo>
											<colorinfo>
												<lut></lut>
												<lut1></lut1>
												<asc_sop></asc_sop>
												<asc_sat></asc_sat>
												<lut2></lut2>
											</colorinfo>
											<labels>
												<label2>Violet</label2>
											</labels>
										</clipitem>
										<enabled>TRUE</enabled>
										<locked>FALSE</locked>
									</track>
									<track TL.SQTrackShy="0" TL.SQTrackExpandedHeight="25" TL.SQTrackExpanded="0" MZ.TrackTargeted="0">
										<transitionitem>
											<start>6</start>
											<end>35</end>
											<alignment>start-black</alignment>
											<cutPointTicks>0</cutPointTicks>
											<rate>
												<timebase>25</timebase>
												<ntsc>FALSE</ntsc>
											</rate>
											<effect>
												<name>Edge Wipe</name>
												<effectid>Edge Wipe</effectid>
												<effectcategory>Wipe</effectcategory>
												<effecttype>transition</effecttype>
												<mediatype>video</mediatype>
												<wipecode>2</wipecode>
												<wipeaccuracy>100</wipeaccuracy>
												<startratio>0</startratio>
												<endratio>1</endratio>
												<reverse>FALSE</reverse>
												<parameter authoringApp="PremierePro">
													<parameterid>directionofwipe</parameterid>
													<name>Angle</name>
													<valuemin>-360</valuemin>
													<valuemax>360</valuemax>
													<value>270</value>
												</parameter>
											</effect>
										</transitionitem>
										<clipitem id="clipitem-1845">
											<masterclipid>masterclip-809</masterclipid>
											<name>8_1.png</name>
											<enabled>TRUE</enabled>
											<duration>1080000</duration>
											<rate>
												<timebase>25</timebase>
												<ntsc>FALSE</ntsc>
											</rate>
											<start>-1</start>
											<end>-1</end>
											<in>90006</in>
											<out>90369</out>
											<pproTicksIn>914518563840000</pproTicksIn>
											<pproTicksOut>918206876160000</pproTicksOut>
											<alphatype>straight</alphatype>
											<pixelaspectratio>square</pixelaspectratio>
											<anamorphic>FALSE</anamorphic>
											<file id="file-670">
												<name>8_1.png</name>
												<pathurl>file://localhost/_MUZ_TV/project_AP/RU/_TITLE/468/PNG/8_1.png</pathurl>
												<rate>
													<timebase>30</timebase>
													<ntsc>TRUE</ntsc>
												</rate>
												<timecode>
													<rate>
														<timebase>30</timebase>
														<ntsc>TRUE</ntsc>
													</rate>
													<string>00;00;00;00</string>
													<frame>0</frame>
													<displayformat>DF</displayformat>
												</timecode>
												<media>
													<video>
														<samplecharacteristics>
															<rate>
																<timebase>30</timebase>
																<ntsc>TRUE</ntsc>
															</rate>
															<width>1920</width>
															<height>1080</height>
															<anamorphic>FALSE</anamorphic>
															<pixelaspectratio>square</pixelaspectratio>
															<fielddominance>none</fielddominance>
														</samplecharacteristics>
													</video>
												</media>
											</file>
											<filter>
												<effect>
													<name>Basic Motion</name>
													<effectid>basic</effectid>
													<effectcategory>motion</effectcategory>
													<effecttype>motion</effecttype>
													<mediatype>video</mediatype>
													<pproBypass>false</pproBypass>
													<parameter authoringApp="PremierePro">
														<parameterid>scale</parameterid>
														<name>Scale</name>
														<valuemin>0</valuemin>
														<valuemax>1000</valuemax>
														<value>53.3333</value>
													</parameter>
													<parameter authoringApp="PremierePro">
														<parameterid>rotation</parameterid>
														<name>Rotation</name>
														<valuemin>-8640</valuemin>
														<valuemax>8640</valuemax>
														<value>0</value>
													</parameter>
													<parameter authoringApp="PremierePro">
														<parameterid>center</parameterid>
														<name>Center</name>
														<value>
															<horiz>0</horiz>
															<vert>0</vert>
														</value>
													</parameter>
													<parameter authoringApp="PremierePro">
														<parameterid>centerOffset</parameterid>
														<name>Anchor Point</name>
														<value>
															<horiz>0</horiz>
															<vert>0</vert>
														</value>
													</parameter>
													<parameter authoringApp="PremierePro">
														<parameterid>antiflicker</parameterid>
														<name>Anti-flicker Filter</name>
														<valuemin>0.0</valuemin>
														<valuemax>1.0</valuemax>
														<value>0</value>
													</parameter>
												</effect>
											</filter>
											<logginginfo>
												<description></description>
												<scene></scene>
												<shottake></shottake>
												<lognote></lognote>
												<good></good>
												<originalvideofilename></originalvideofilename>
												<originalaudiofilename></originalaudiofilename>
											</logginginfo>
											<colorinfo>
												<lut></lut>
												<lut1></lut1>
												<asc_sop></asc_sop>
												<asc_sat></asc_sat>
												<lut2></lut2>
											</colorinfo>
											<labels>
												<label2>Lavender</label2>
											</labels>
										</clipitem>
										<transitionitem>
											<start>344</start>
											<end>369</end>
											<alignment>end-black</alignment>
											<cutPointTicks>254016000000</cutPointTicks>
											<rate>
												<timebase>25</timebase>
												<ntsc>FALSE</ntsc>
											</rate>
											<effect>
												<name>Edge Wipe</name>
												<effectid>Edge Wipe</effectid>
												<effectcategory>Wipe</effectcategory>
												<effecttype>transition</effecttype>
												<mediatype>video</mediatype>
												<wipecode>2</wipecode>
												<wipeaccuracy>100</wipeaccuracy>
												<startratio>0</startratio>
												<endratio>1</endratio>
												<reverse>FALSE</reverse>
												<parameter authoringApp="PremierePro">
													<parameterid>directionofwipe</parameterid>
													<name>Angle</name>
													<valuemin>-360</valuemin>
													<valuemax>360</valuemax>
													<value>90</value>
												</parameter>
											</effect>
										</transitionitem>
										<transitionitem>
											<start>381</start>
											<end>410</end>
											<alignment>start-black</alignment>
											<cutPointTicks>0</cutPointTicks>
											<rate>
												<timebase>25</timebase>
												<ntsc>FALSE</ntsc>
											</rate>
											<effect>
												<name>Edge Wipe</name>
												<effectid>Edge Wipe</effectid>
												<effectcategory>Wipe</effectcategory>
												<effecttype>transition</effecttype>
												<mediatype>video</mediatype>
												<wipecode>2</wipecode>
												<wipeaccuracy>100</wipeaccuracy>
												<startratio>0</startratio>
												<endratio>1</endratio>
												<reverse>FALSE</reverse>
												<parameter authoringApp="PremierePro">
													<parameterid>directionofwipe</parameterid>
													<name>Angle</name>
													<valuemin>-360</valuemin>
													<valuemax>360</valuemax>
													<value>270</value>
												</parameter>
											</effect>
										</transitionitem>
										<clipitem id="clipitem-1846">
											<masterclipid>masterclip-810</masterclipid>
											<name>8_2.png</name>
											<enabled>TRUE</enabled>
											<duration>1080000</duration>
											<rate>
												<timebase>25</timebase>
												<ntsc>FALSE</ntsc>
											</rate>
											<start>-1</start>
											<end>-1</end>
											<in>90011</in>
											<out>90374</out>
											<pproTicksIn>914569367040000</pproTicksIn>
											<pproTicksOut>918257679360000</pproTicksOut>
											<alphatype>straight</alphatype>
											<pixelaspectratio>square</pixelaspectratio>
											<anamorphic>FALSE</anamorphic>
											<file id="file-671">
												<name>8_2.png</name>
												<pathurl>file://localhost/_MUZ_TV/project_AP/RU/_TITLE/468/PNG/8_2.png</pathurl>
												<rate>
													<timebase>30</timebase>
													<ntsc>TRUE</ntsc>
												</rate>
												<timecode>
													<rate>
														<timebase>30</timebase>
														<ntsc>TRUE</ntsc>
													</rate>
													<string>00;00;00;00</string>
													<frame>0</frame>
													<displayformat>DF</displayformat>
												</timecode>
												<media>
													<video>
														<samplecharacteristics>
															<rate>
																<timebase>30</timebase>
																<ntsc>TRUE</ntsc>
															</rate>
															<width>1920</width>
															<height>1080</height>
															<anamorphic>FALSE</anamorphic>
															<pixelaspectratio>square</pixelaspectratio>
															<fielddominance>none</fielddominance>
														</samplecharacteristics>
													</video>
												</media>
											</file>
											<filter>
												<effect>
													<name>Basic Motion</name>
													<effectid>basic</effectid>
													<effectcategory>motion</effectcategory>
													<effecttype>motion</effecttype>
													<mediatype>video</mediatype>
													<pproBypass>false</pproBypass>
													<parameter authoringApp="PremierePro">
														<parameterid>scale</parameterid>
														<name>Scale</name>
														<valuemin>0</valuemin>
														<valuemax>1000</valuemax>
														<value>53.3333</value>
													</parameter>
													<parameter authoringApp="PremierePro">
														<parameterid>rotation</parameterid>
														<name>Rotation</name>
														<valuemin>-8640</valuemin>
														<valuemax>8640</valuemax>
														<value>0</value>
													</parameter>
													<parameter authoringApp="PremierePro">
														<parameterid>center</parameterid>
														<name>Center</name>
														<value>
															<horiz>0</horiz>
															<vert>0</vert>
														</value>
													</parameter>
													<parameter authoringApp="PremierePro">
														<parameterid>centerOffset</parameterid>
														<name>Anchor Point</name>
														<value>
															<horiz>0</horiz>
															<vert>0</vert>
														</value>
													</parameter>
													<parameter authoringApp="PremierePro">
														<parameterid>antiflicker</parameterid>
														<name>Anti-flicker Filter</name>
														<valuemin>0.0</valuemin>
														<valuemax>1.0</valuemax>
														<value>0</value>
													</parameter>
												</effect>
											</filter>
											<logginginfo>
												<description></description>
												<scene></scene>
												<shottake></shottake>
												<lognote></lognote>
												<good></good>
												<originalvideofilename></originalvideofilename>
												<originalaudiofilename></originalaudiofilename>
											</logginginfo>
											<colorinfo>
												<lut></lut>
												<lut1></lut1>
												<asc_sop></asc_sop>
												<asc_sat></asc_sat>
												<lut2></lut2>
											</colorinfo>
											<labels>
												<label2>Lavender</label2>
											</labels>
										</clipitem>
										<transitionitem>
											<start>719</start>
											<end>744</end>
											<alignment>end-black</alignment>
											<cutPointTicks>254016000000</cutPointTicks>
											<rate>
												<timebase>25</timebase>
												<ntsc>FALSE</ntsc>
											</rate>
											<effect>
												<name>Edge Wipe</name>
												<effectid>Edge Wipe</effectid>
												<effectcategory>Wipe</effectcategory>
												<effecttype>transition</effecttype>
												<mediatype>video</mediatype>
												<wipecode>2</wipecode>
												<wipeaccuracy>100</wipeaccuracy>
												<startratio>0</startratio>
												<endratio>1</endratio>
												<reverse>FALSE</reverse>
												<parameter authoringApp="PremierePro">
													<parameterid>directionofwipe</parameterid>
													<name>Angle</name>
													<valuemin>-360</valuemin>
													<valuemax>360</valuemax>
													<value>90</value>
												</parameter>
											</effect>
										</transitionitem>
										<transitionitem>
											<start>756</start>
											<end>785</end>
											<alignment>start-black</alignment>
											<cutPointTicks>0</cutPointTicks>
											<rate>
												<timebase>25</timebase>
												<ntsc>FALSE</ntsc>
											</rate>
											<effect>
												<name>Edge Wipe</name>
												<effectid>Edge Wipe</effectid>
												<effectcategory>Wipe</effectcategory>
												<effecttype>transition</effecttype>
												<mediatype>video</mediatype>
												<wipecode>2</wipecode>
												<wipeaccuracy>100</wipeaccuracy>
												<startratio>0</startratio>
												<endratio>1</endratio>
												<reverse>FALSE</reverse>
												<parameter authoringApp="PremierePro">
													<parameterid>directionofwipe</parameterid>
													<name>Angle</name>
													<valuemin>-360</valuemin>
													<valuemax>360</valuemax>
													<value>270</value>
												</parameter>
											</effect>
										</transitionitem>
										<clipitem id="clipitem-1847">
											<masterclipid>masterclip-811</masterclipid>
											<name>8_3.png</name>
											<enabled>TRUE</enabled>
											<duration>1080000</duration>
											<rate>
												<timebase>25</timebase>
												<ntsc>FALSE</ntsc>
											</rate>
											<start>-1</start>
											<end>-1</end>
											<in>90011</in>
											<out>90375</out>
											<pproTicksIn>914569367040000</pproTicksIn>
											<pproTicksOut>918267840000000</pproTicksOut>
											<alphatype>straight</alphatype>
											<pixelaspectratio>square</pixelaspectratio>
											<anamorphic>FALSE</anamorphic>
											<file id="file-672">
												<name>8_3.png</name>
												<pathurl>file://localhost/_MUZ_TV/project_AP/RU/_TITLE/468/PNG/8_3.png</pathurl>
												<rate>
													<timebase>30</timebase>
													<ntsc>TRUE</ntsc>
												</rate>
												<timecode>
													<rate>
														<timebase>30</timebase>
														<ntsc>TRUE</ntsc>
													</rate>
													<string>00;00;00;00</string>
													<frame>0</frame>
													<displayformat>DF</displayformat>
												</timecode>
												<media>
													<video>
														<samplecharacteristics>
															<rate>
																<timebase>30</timebase>
																<ntsc>TRUE</ntsc>
															</rate>
															<width>1920</width>
															<height>1080</height>
															<anamorphic>FALSE</anamorphic>
															<pixelaspectratio>square</pixelaspectratio>
															<fielddominance>none</fielddominance>
														</samplecharacteristics>
													</video>
												</media>
											</file>
											<filter>
												<effect>
													<name>Basic Motion</name>
													<effectid>basic</effectid>
													<effectcategory>motion</effectcategory>
													<effecttype>motion</effecttype>
													<mediatype>video</mediatype>
													<pproBypass>false</pproBypass>
													<parameter authoringApp="PremierePro">
														<parameterid>scale</parameterid>
														<name>Scale</name>
														<valuemin>0</valuemin>
														<valuemax>1000</valuemax>
														<value>53.3333</value>
													</parameter>
													<parameter authoringApp="PremierePro">
														<parameterid>rotation</parameterid>
														<name>Rotation</name>
														<valuemin>-8640</valuemin>
														<valuemax>8640</valuemax>
														<value>0</value>
													</parameter>
													<parameter authoringApp="PremierePro">
														<parameterid>center</parameterid>
														<name>Center</name>
														<value>
															<horiz>0</horiz>
															<vert>0</vert>
														</value>
													</parameter>
													<parameter authoringApp="PremierePro">
														<parameterid>centerOffset</parameterid>
														<name>Anchor Point</name>
														<value>
															<horiz>0</horiz>
															<vert>0</vert>
														</value>
													</parameter>
													<parameter authoringApp="PremierePro">
														<parameterid>antiflicker</parameterid>
														<name>Anti-flicker Filter</name>
														<valuemin>0.0</valuemin>
														<valuemax>1.0</valuemax>
														<value>0</value>
													</parameter>
												</effect>
											</filter>
											<logginginfo>
												<description></description>
												<scene></scene>
												<shottake></shottake>
												<lognote></lognote>
												<good></good>
												<originalvideofilename></originalvideofilename>
												<originalaudiofilename></originalaudiofilename>
											</logginginfo>
											<colorinfo>
												<lut></lut>
												<lut1></lut1>
												<asc_sop></asc_sop>
												<asc_sat></asc_sat>
												<lut2></lut2>
											</colorinfo>
											<labels>
												<label2>Lavender</label2>
											</labels>
										</clipitem>
										<transitionitem>
											<start>1095</start>
											<end>1120</end>
											<alignment>end-black</alignment>
											<cutPointTicks>254016000000</cutPointTicks>
											<rate>
												<timebase>25</timebase>
												<ntsc>FALSE</ntsc>
											</rate>
											<effect>
												<name>Edge Wipe</name>
												<effectid>Edge Wipe</effectid>
												<effectcategory>Wipe</effectcategory>
												<effecttype>transition</effecttype>
												<mediatype>video</mediatype>
												<wipecode>2</wipecode>
												<wipeaccuracy>100</wipeaccuracy>
												<startratio>0</startratio>
												<endratio>1</endratio>
												<reverse>FALSE</reverse>
												<parameter authoringApp="PremierePro">
													<parameterid>directionofwipe</parameterid>
													<name>Angle</name>
													<valuemin>-360</valuemin>
													<valuemax>360</valuemax>
													<value>90</value>
												</parameter>
											</effect>
										</transitionitem>
										<enabled>TRUE</enabled>
										<locked>FALSE</locked>
									</track>
									<track TL.SQTrackShy="0" TL.SQTrackExpandedHeight="25" TL.SQTrackExpanded="0" MZ.TrackTargeted="0">
										<transitionitem>
											<start>755</start>
											<end>780</end>
											<alignment>start-black</alignment>
											<cutPointTicks>0</cutPointTicks>
											<rate>
												<timebase>25</timebase>
												<ntsc>FALSE</ntsc>
											</rate>
											<effect>
												<name>Edge Wipe</name>
												<effectid>Edge Wipe</effectid>
												<effectcategory>Wipe</effectcategory>
												<effecttype>transition</effecttype>
												<mediatype>video</mediatype>
												<wipecode>2</wipecode>
												<wipeaccuracy>100</wipeaccuracy>
												<startratio>0</startratio>
												<endratio>1</endratio>
												<reverse>FALSE</reverse>
												<parameter authoringApp="PremierePro">
													<parameterid>directionofwipe</parameterid>
													<name>Angle</name>
													<valuemin>-360</valuemin>
													<valuemax>360</valuemax>
													<value>270</value>
												</parameter>
											</effect>
										</transitionitem>
										<clipitem id="clipitem-1848">
											<masterclipid>masterclip-812</masterclipid>
											<name>Graphic</name>
											<enabled>FALSE</enabled>
											<duration>1080000</duration>
											<rate>
												<timebase>25</timebase>
												<ntsc>FALSE</ntsc>
											</rate>
											<start>-1</start>
											<end>-1</end>
											<in>89905</in>
											<out>90272</out>
											<pproTicksIn>913492339200000</pproTicksIn>
											<pproTicksOut>917221294080000</pproTicksOut>
											<alphatype>straight</alphatype>
											<pixelaspectratio>PAL-601</pixelaspectratio>
											<anamorphic>TRUE</anamorphic>
											<file id="file-673">
												<name>Graphic</name>
												<mediaSource>GraphicAndType</mediaSource>
												<rate>
													<timebase>30</timebase>
													<ntsc>TRUE</ntsc>
												</rate>
												<timecode>
													<rate>
														<timebase>30</timebase>
														<ntsc>TRUE</ntsc>
													</rate>
													<string>00;00;00;00</string>
													<frame>0</frame>
													<displayformat>DF</displayformat>
												</timecode>
												<media>
													<video>
														<samplecharacteristics>
															<rate>
																<timebase>30</timebase>
																<ntsc>TRUE</ntsc>
															</rate>
															<width>720</width>
															<height>576</height>
															<anamorphic>TRUE</anamorphic>
															<pixelaspectratio>PAL-601</pixelaspectratio>
															<fielddominance>none</fielddominance>
														</samplecharacteristics>
													</video>
												</media>
											</file>
											<filter>
												<effect>
													<name>Vector Motion</name>
													<effectid>GraphicGroup</effectid>
													<effectcategory>graphic</effectcategory>
													<effecttype>filter</effecttype>
													<mediatype>video</mediatype>
													<pproBypass>false</pproBypass>
													<parameter authoringApp="PremierePro">
														<parameterid>1</parameterid>
														<name>Position</name>
														<IsTimeVarying>false</IsTimeVarying>
														<value>-91445760000000000,0.81693898908787344:0.49085601568222115,0,0,0,0,0,0,5,4,0,0,0,0</value>
													</parameter>
													<parameter authoringApp="PremierePro">
														<parameterid>2</parameterid>
														<name>Scale</name>
														<IsTimeVarying>false</IsTimeVarying>
														<ParameterControlType>2</ParameterControlType>
														<LowerBound>0</LowerBound>
														<UpperBound>10000</UpperBound>
														<UpperUIBound>200</UpperUIBound>
														<value>-91445760000000000,100.,0,0,0,0,0,0</value>
													</parameter>
													<parameter authoringApp="PremierePro">
														<parameterid>3</parameterid>
														<name>Scale Width</name>
														<IsTimeVarying>false</IsTimeVarying>
														<ParameterControlType>2</ParameterControlType>
														<LowerBound>0</LowerBound>
														<UpperBound>10000</UpperBound>
														<UpperUIBound>200</UpperUIBound>
														<value>-91445760000000000,100.,0,0,0,0,0,0</value>
													</parameter>
													<parameter authoringApp="PremierePro">
														<parameterid>4</parameterid>
														<name> </name>
														<IsTimeVarying>false</IsTimeVarying>
														<ParameterControlType>4</ParameterControlType>
														<LowerBound>false</LowerBound>
														<UpperBound>true</UpperBound>
														<value>-91445760000000000,true,0,0,0,0,0,0</value>
													</parameter>
													<parameter authoringApp="PremierePro">
														<parameterid>5</parameterid>
														<name>Rotation</name>
														<IsTimeVarying>false</IsTimeVarying>
														<ParameterControlType>3</ParameterControlType>
														<LowerBound>-32768</LowerBound>
														<UpperBound>32767</UpperBound>
														<value>-91445760000000000,0.,0,0,0,0,0,0</value>
													</parameter>
													<parameter authoringApp="PremierePro">
														<parameterid>6</parameterid>
														<name>Anchor Point</name>
														<IsTimeVarying>false</IsTimeVarying>
														<value>-91445760000000000,0.5:0.5,0,0,0,0,0,0,5,4,0,0,0,0</value>
													</parameter>
												</effect>
											</filter>
											<filter>
												<effect>
													<name>Данил Прытков признаётся, &#13;что сильные провалы &#13;мотивируют его на творчество &#13;не меньше, чем победы. </name>
													<effectid>GraphicAndType</effectid>
													<effectcategory>graphic</effectcategory>
													<effecttype>filter</effecttype>
													<mediatype>video</mediatype>
													<pproBypass>false</pproBypass>
													<pproExpanded>true</pproExpanded>
													<parameter authoringApp="PremierePro">
														<parameterid>1</parameterid>
														<name>Source Text</name>
														<hash>698123b5-7d57-7b79-efb1-b0df00000a31</hash>
														<value>wAEAAAAAAABEMyIRFAAAAAAADgAUAAQAAAAMABAACwAOAAAASAAAAAAAAAEIAAAAEAAAAAAAAAAIABoABAAMAAgAAACLyt42dOPmQL2WjgkAAAyxAAAAAAAAEgAUAAgABAAAAAAAAAAQAAwAEgAAABwAAAA0AAAAAAAAwAEAAAB4////fP///4D///8BAAAABAAAAA8AAABNb250c2VycmF0LUJvbGQAAQAAAAwAAAAIAAwABAAIAAgAAABUAAAANAAAADAADAAAAAgAAAAAAAAAAAAAAAAAAAAAAAAAAAAAAAAAAAAAAAAAAAAAAAAAAAAEADAAAAAIAAAAAACIQfj////8////BAAEAAQAAAC2AAAA0JTQsNC90LjQuyDQn9GA0YvRgtC60L7QsiDQv9GA0LjQt9C90LDRkdGC0YHRjywgDdGH0YLQviDRgdC40LvRjNC90YvQtSDQv9GA0L7QstCw0LvRiyAN0LzQvtGC0LjQstC40YDRg9GO0YIg0LXQs9C+INC90LAg0YLQstC+0YDRh9C10YHRgtCy0L4gDdC90LUg0LzQtdC90YzRiNC1LCDRh9C10Lwg0L/QvtCx0LXQtNGLLiAAAAAAAAAAAAAAAAAAAAAAAAAAAAAAAAAAAAAAAAAAAAAAAAAAAAAAAAAAAAAAAAAAAAAAAAAAAAAAAAAAAAAAAAAAAAAAAAAAAAAAAAAAAAAAAAAAAAAAAAAAAAAAAAAAAAAAAAAAAAAAAAAAAAAAAAAAAAAAAAAAAAAAAAAAAAAAAAAAAAAAAAAAAAAAAAAAAAAAAAAAAAAAAAAAAAAAAAAAAAAAAAAAAAAAAAAAAAAAAAAAAAAAAAAAAAAAAAAAAAAAAAAAAAAAAAAAAAAAAAAAAAAAAAAAAAAAAAAAAAAAAAAAAAAAAAAAAAAAAAAAAAAAAAAAAAAAAAAAAAAAAAAAAAAAAAAAAAAAAAAAAAAAAAAAAAAAAAAAAAAAAAAAAAAAAAAAAAAAAAAAAAAAAAAAAAAAAAAAAAAAAAAAAAAAAAAAAAAAAAAAAAAAAAAAAAAAAAAAAAAAAAAAAAAAAAAAAAAAAAAAAAAAAAAAAAAAAAAAAAAAAAAAAAAAAAAAAAAAAAAAAAAAAAAAAAAAAAAAAAAAAAAAAAAAAAAAAAAAAAAAAAAAAAAAAAAAAAAAAAAAAAAAAAAAAAAAAAAAAAAAAAAAAAAAAAAAAAAAAAAAAAAAAAAAAAAAAAAAAAAAAAAAAAAAAAAAAAAAAAAAAAAAAAAAAAAAAAAAAAAAAAAAAAAAAAAAAAAAAAAAAAAAAAAAAAAAAAAAAAAAAAAAAAAAAAAAAAAAAAAAAAAAAAAAAAAAAAAAAAAAAAAAAAAAAAAAAAAAAAAAAAAAAAAAAAAAAAAAAAAAAAAAAAAAAAAAAAAAAAAAAAAAAAAAAAAAAAAAAAAAAAAAAAAAAAAAAAAAAAAAAAAAAAAAAAAAAAAAAAAAAAAAAAAAAAAAAAAAAAAAAAAAAAAAAAAAAAAAAAAAAAAAAAAAAAAAAAAAAAAAAAAAAAAAAAAAAAAAAAAAAAAAAAAAAAAAAAAAAAAAAAAAAAAAAAAAAAAAAAAAAAAAAAAAAAAAAAAAAAAAAAAAAAAAAAAAAAAAAAAAAAAAAAAAAAAAAAAAAAAAAAAAAAAAAAAAAAAAAAAAAAAAAAAAAAAAAAAAAAAAAAAAAAAAAAAAAAAAAAAAAAAAAAAAAAAAAAAAAAAAAAAAAAAAAAAAAAAAAAAAAAAAAAAAAAAAAAAAAAAAAAAAAAAAAAAAAAAAAAAAAAAAAAAAAAAAAAAAAAAAAAAAAAAAAAAAAAAAAAAAAAAAAAAAAAAAAAAAAAAAAAAAAAAAAAAAAAAAAAAAAAAAAAAAAAAAAAAAAAAAAAAAAAAAAAAAAAAAAAAAAAAAAAAAAAAAAAAAAAAAAAAAAAAAAAAAAAAAAAAAAAAAAAAAAAAAAAAAAAAAAAAAAAAAAAAAAAAAAAAAAAAAAAAAAAAAAAAAAAAAAAAAAAAAAAAAAAAAAAAAAAAAAAAAAAAAAAAAAAAAAAAAAAAAAAAAAAAAAAAAAAAAAAAAAAAAAAAAAAAAAAAAAAAAAAAAAAAAAAAAAAAAAAAAAAAAAAAAAAAAAAAAAAAAAAAAAAAAAAAAAAAAAAAAAAAAAAAAAAAAAAAAAAAAAAAAAAAAAAAAAAAAAAAAAAAAAAAAAAAAAAAAAAAAAAAAAAAAAAAAAAAAAAAAAAAAAAAAAAAAAAAAAAAAAAAAAAAAAAAAAAAAAAAAAAAAAAAAAAAAAAAAAAAAAAAAAAAAAAAAAAAAAAAAAAAAAAAAAAAAAAAAAAAAAAAAAAAAAAAAAAAAAAAAAAAAAAAAAAAAAAAAAAAAAAAAAAAAAAAAAAAAAAAAAAAAAAAAAAAAAAAAAAAAAAAAAAAAAAAAAAAAAAAAAAAAAAAAAAAAAAAAAAAAAAAAAAAAAAAAAAAAAAAAAAAAAAAAAAAAAAAAAAAAAAAAAAAAAAAAAAAAAAAAAAAAAAAAAAAAAAAAAAAAAAAAAAAAAAAAAAAAAAAAAAAAAAAAAAAAAAAAAAAAAAAAAAAAAAAAAAAAAAAAAAAAAAAAAAAAAAAAAAAAAAAAAAAAAAAAAAAAAAAAAAAAAAAAAAAAAAAAAAAAAAAAAAAAAAAAAAAAAAAAAAAAAAAAAAAAAAAAAAAAAAAAAAAAAAAAAAAAAAAAAAAAAAAAAAAAAAAAAAAAAAAAAAAAAAAAAAAAAAAAAAAAAAAAAAAAAAAAAAAAAAAAAAAAAAAAAAAAAAAAAAAAAAAAAAAAAAAAAAAAAAAAAAAAAAAAAAAAAAAAAAAAAAAAAAAAAAAAAAAAAAAAAAAAAAAAAAAAAAAAAAAAAAAAAAAAAAAAAAAAAAAAAAAAAAAAAAAAAAAAAAAAAAAAAAAAAAAAAAAAAAAAAAAAAAAAAAAAAAAAAAAAAAAAAAAAAAAAAAAAAAAAAAAAAAAAAAAAAAAAAAAAAAAAAAAAAAAAAAAAAAAAAAAAAAAAAAAAAAAAAAAAAAAAAAAAAAAAAAAAAAAAAAAAAAAAAAAAAAAAAAAAAAAAAAAAAAAAAAAAAAAAAAAAAAAAAAAAAAAAAAAAAAAAAAAAAAAAAAAAAAAAAAAAAAAAAAAAAAAAAAAAAAAAAAAAAAAAAAAAAAAAAAAAAAAAAAAAAAAAAAAAAAAAAAAAAAAAAAAAAAAAAAAAAAAAAAAAAAAAAAAAAAAAAAAAAAAAAAAAAAAAAAAAAAAAAAAAAAAAAAAAAAAAAAAAAAAAAAAAAAAAAAAAAAAAAAAAAAAAAAAAAAAAAAAAAAAAAAAAAAAAAAAAAAAAAAAAAAAAAAAAAAAAAAAAAAAAAAAAAAAAAAAAAAAAAAAAAAAAAAAAAAAAAAAAAAAAAAAAAAAAAAAAAAAAAAAAAAAAAAA=</value>
													</parameter>
													<parameter authoringApp="PremierePro">
														<parameterid>2</parameterid>
														<name>Transform</name>
														<IsTimeVarying>false</IsTimeVarying>
														<ParameterControlType>11</ParameterControlType>
														<LowerBound>false</LowerBound>
														<UpperBound>false</UpperBound>
														<value>-91445760000000000,false,0,0,0,0,0,0</value>
													</parameter>
													<parameter authoringApp="PremierePro">
														<parameterid>3</parameterid>
														<name>Position</name>
														<IsTimeVarying>false</IsTimeVarying>
														<value>-91445760000000000,0.270416259765625:0.640594482421875,0,0,0,0,0,0,5,4,0,0,0,0</value>
													</parameter>
													<parameter authoringApp="PremierePro">
														<parameterid>4</parameterid>
														<name>Scale</name>
														<IsTimeVarying>false</IsTimeVarying>
														<ParameterControlType>2</ParameterControlType>
														<LowerBound>0</LowerBound>
														<UpperBound>4000</UpperBound>
														<value>-91445760000000000,100.,0,0,0,0,0,0</value>
													</parameter>
													<parameter authoringApp="PremierePro">
														<parameterid>5</parameterid>
														<name>Horizontal Scale</name>
														<IsTimeVarying>false</IsTimeVarying>
														<ParameterControlType>2</ParameterControlType>
														<LowerBound>0</LowerBound>
														<UpperBound>4000</UpperBound>
														<value>-91445760000000000,100.,0,0,0,0,0,0</value>
													</parameter>
													<parameter authoringApp="PremierePro">
														<parameterid>6</parameterid>
														<name> </name>
														<IsTimeVarying>false</IsTimeVarying>
														<ParameterControlType>4</ParameterControlType>
														<LowerBound>false</LowerBound>
														<UpperBound>true</UpperBound>
														<value>-91445760000000000,true,0,0,0,0,0,0</value>
													</parameter>
													<parameter authoringApp="PremierePro">
														<parameterid>7</parameterid>
														<name>Rotation</name>
														<IsTimeVarying>false</IsTimeVarying>
														<ParameterControlType>3</ParameterControlType>
														<LowerBound>-32768</LowerBound>
														<UpperBound>32767</UpperBound>
														<value>-91445760000000000,0.,0,0,0,0,0,0</value>
													</parameter>
													<parameter authoringApp="PremierePro">
														<parameterid>8</parameterid>
														<name>Opacity</name>
														<IsTimeVarying>false</IsTimeVarying>
														<ParameterControlType>2</ParameterControlType>
														<LowerBound>0</LowerBound>
														<UpperBound>100</UpperBound>
														<value>-91445760000000000,100.,0,0,0,0,0,0</value>
													</parameter>
													<parameter authoringApp="PremierePro">
														<parameterid>9</parameterid>
														<name>Anchor Point</name>
														<IsTimeVarying>false</IsTimeVarying>
														<value>-91445760000000000,0:0,0,0,0,0,0,0,5,4,0,0,0,0</value>
													</parameter>
													<parameter authoringApp="PremierePro">
														<parameterid>10</parameterid>
														<name></name>
														<IsTimeVarying>false</IsTimeVarying>
														<ParameterControlType>12</ParameterControlType>
														<LowerBound>false</LowerBound>
														<UpperBound>false</UpperBound>
														<value>-91445760000000000,false,0,0,0,0,0,0</value>
													</parameter>
													<parameter authoringApp="PremierePro">
														<parameterid>11</parameterid>
														<name> </name>
														<IsTimeVarying>false</IsTimeVarying>
														<ParameterControlType>8</ParameterControlType>
														<LowerBound>0</LowerBound>
														<UpperBound>32768</UpperBound>
														<value>-91445760000000000,0.,0,0,0,0,0,0</value>
													</parameter>
													<parameter authoringApp="PremierePro">
														<parameterid>12</parameterid>
														<name> </name>
														<IsTimeVarying>false</IsTimeVarying>
														<ParameterControlType>8</ParameterControlType>
														<LowerBound>0</LowerBound>
														<UpperBound>32768</UpperBound>
														<value>-91445760000000000,0.,0,0,0,0,0,0</value>
													</parameter>
													<parameter authoringApp="PremierePro">
														<parameterid>13</parameterid>
														<name>start</name>
														<IsTimeVarying>false</IsTimeVarying>
														<ParameterControlType>8</ParameterControlType>
														<LowerBound>-100</LowerBound>
														<UpperBound>1000000000</UpperBound>
														<value>-91445760000000000,0.,0,0,0,0,0,0</value>
													</parameter>
													<parameter authoringApp="PremierePro">
														<parameterid>14</parameterid>
														<name>end</name>
														<IsTimeVarying>false</IsTimeVarying>
														<ParameterControlType>8</ParameterControlType>
														<LowerBound>-100</LowerBound>
														<UpperBound>1000000000</UpperBound>
														<value>-91445760000000000,101.,0,0,0,0,0,0</value>
													</parameter>
													<parameter authoringApp="PremierePro">
														<parameterid>15</parameterid>
														<name> </name>
														<IsTimeVarying>false</IsTimeVarying>
														<ParameterControlType>4</ParameterControlType>
														<LowerBound>false</LowerBound>
														<UpperBound>true</UpperBound>
														<value>-91445760000000000,false,0,0,0,0,0,0</value>
													</parameter>
													<parameter authoringApp="PremierePro">
														<parameterid>16</parameterid>
														<name> </name>
														<IsTimeVarying>false</IsTimeVarying>
														<ParameterControlType>4</ParameterControlType>
														<LowerBound>false</LowerBound>
														<UpperBound>true</UpperBound>
														<value>-91445760000000000,false,0,0,0,0,0,0</value>
													</parameter>
													<parameter authoringApp="PremierePro">
														<parameterid>17</parameterid>
														<name> </name>
														<IsTimeVarying>false</IsTimeVarying>
														<ParameterControlType>4</ParameterControlType>
														<LowerBound>false</LowerBound>
														<UpperBound>true</UpperBound>
														<value>-91445760000000000,false,0,0,0,0,0,0</value>
													</parameter>
													<parameter authoringApp="PremierePro">
														<parameterid>18</parameterid>
														<name> </name>
														<IsTimeVarying>false</IsTimeVarying>
														<ParameterControlType>4</ParameterControlType>
														<LowerBound>false</LowerBound>
														<UpperBound>true</UpperBound>
														<value>-91445760000000000,false,0,0,0,0,0,0</value>
													</parameter>
													<parameter authoringApp="PremierePro">
														<parameterid>19</parameterid>
														<name>Parent Width</name>
														<IsTimeVarying>false</IsTimeVarying>
														<ParameterControlType>2</ParameterControlType>
														<LowerBound>0</LowerBound>
														<UpperBound>20000</UpperBound>
														<value>-91445760000000000,0.,0,0,0,0,0,0</value>
													</parameter>
													<parameter authoringApp="PremierePro">
														<parameterid>20</parameterid>
														<name>Parent Height</name>
														<IsTimeVarying>false</IsTimeVarying>
														<ParameterControlType>2</ParameterControlType>
														<LowerBound>0</LowerBound>
														<UpperBound>20000</UpperBound>
														<value>-91445760000000000,0.,0,0,0,0,0,0</value>
													</parameter>
													<parameter authoringApp="PremierePro">
														<parameterid>21</parameterid>
														<name>Parent Rotation</name>
														<IsTimeVarying>false</IsTimeVarying>
														<ParameterControlType>3</ParameterControlType>
														<LowerBound>-32768</LowerBound>
														<UpperBound>32767</UpperBound>
														<value>-91445760000000000,0.,0,0,0,0,0,0</value>
													</parameter>
												</effect>
											</filter>
											<logginginfo>
												<description></description>
												<scene></scene>
												<shottake></shottake>
												<lognote></lognote>
												<good></good>
												<originalvideofilename></originalvideofilename>
												<originalaudiofilename></originalaudiofilename>
											</logginginfo>
											<colorinfo>
												<lut></lut>
												<lut1></lut1>
												<asc_sop></asc_sop>
												<asc_sat></asc_sat>
												<lut2></lut2>
											</colorinfo>
										</clipitem>
										<transitionitem>
											<start>1097</start>
											<end>1122</end>
											<alignment>end-black</alignment>
											<cutPointTicks>254016000000</cutPointTicks>
											<rate>
												<timebase>25</timebase>
												<ntsc>FALSE</ntsc>
											</rate>
											<effect>
												<name>Edge Wipe</name>
												<effectid>Edge Wipe</effectid>
												<effectcategory>Wipe</effectcategory>
												<effecttype>transition</effecttype>
												<mediatype>video</mediatype>
												<wipecode>2</wipecode>
												<wipeaccuracy>100</wipeaccuracy>
												<startratio>0</startratio>
												<endratio>1</endratio>
												<reverse>FALSE</reverse>
												<parameter authoringApp="PremierePro">
													<parameterid>directionofwipe</parameterid>
													<name>Angle</name>
													<valuemin>-360</valuemin>
													<valuemax>360</valuemax>
													<value>90</value>
												</parameter>
											</effect>
										</transitionitem>
										<enabled>TRUE</enabled>
										<locked>FALSE</locked>
									</track>
								</video>
								<audio>
									<numOutputChannels>2</numOutputChannels>
									<format>
										<samplecharacteristics>
											<depth>16</depth>
											<samplerate>48000</samplerate>
										</samplecharacteristics>
									</format>
									<outputs>
										<group>
											<index>1</index>
											<numchannels>1</numchannels>
											<downmix>0</downmix>
											<channel>
												<index>1</index>
											</channel>
										</group>
										<group>
											<index>2</index>
											<numchannels>1</numchannels>
											<downmix>0</downmix>
											<channel>
												<index>2</index>
											</channel>
										</group>
									</outputs>
									<track TL.SQTrackAudioKeyframeStyle="0" TL.SQTrackShy="0" TL.SQTrackExpandedHeight="25" TL.SQTrackExpanded="0" MZ.TrackTargeted="1" PannerCurrentValue="0.5" PannerStartKeyframe="-91445760000000000,0.5,0,0,0,0,0,0" PannerName="Balance" currentExplodedTrackIndex="0" totalExplodedTrackCount="2" premiereTrackType="Stereo">
										<enabled>TRUE</enabled>
										<locked>FALSE</locked>
										<outputchannelindex>1</outputchannelindex>
									</track>
									<track TL.SQTrackAudioKeyframeStyle="0" TL.SQTrackShy="0" TL.SQTrackExpandedHeight="25" TL.SQTrackExpanded="0" MZ.TrackTargeted="1" PannerCurrentValue="0.5" PannerStartKeyframe="-91445760000000000,0.5,0,0,0,0,0,0" PannerName="Balance" currentExplodedTrackIndex="1" totalExplodedTrackCount="2" premiereTrackType="Stereo">
										<enabled>TRUE</enabled>
										<locked>FALSE</locked>
										<outputchannelindex>2</outputchannelindex>
									</track>
								</audio>
							</media>
							<timecode>
								<rate>
									<timebase>25</timebase>
									<ntsc>FALSE</ntsc>
								</rate>
								<string>00:00:00:00</string>
								<frame>0</frame>
								<displayformat>NDF</displayformat>
							</timecode>
								<marker>
									<comment></comment>
									<name></name>
									<in>800</in>
									<out>-1</out>
									<pproColor>4292277273</pproColor>
								</marker>
								<marker>
									<comment></comment>
									<name></name>
									<in>425</in>
									<out>-1</out>
									<pproColor>4292277273</pproColor>
								</marker>
								<marker>
									<comment></comment>
									<name></name>
									<in>50</in>
									<out>-1</out>
									<pproColor>4292277273</pproColor>
								</marker>
							<logginginfo>
								<description></description>
								<scene></scene>
								<shottake></shottake>
								<lognote></lognote>
								<good></good>
								<originalvideofilename></originalvideofilename>
								<originalaudiofilename></originalaudiofilename>
							</logginginfo>
						</sequence>
							<marker>
								<comment></comment>
								<name></name>
								<in>800</in>
								<out>-1</out>
								<pproColor>4292277273</pproColor>
							</marker>
							<marker>
								<comment></comment>
								<name></name>
								<in>425</in>
								<out>-1</out>
								<pproColor>4292277273</pproColor>
							</marker>
							<marker>
								<comment></comment>
								<name></name>
								<in>50</in>
								<out>-1</out>
								<pproColor>4292277273</pproColor>
							</marker>
						<labels>
							<label2>Forest</label2>
						</labels>
					</clipitem>
					<clipitem id="clipitem-1849">
						<masterclipid>masterclip-807</masterclipid>
						<name>8</name>
						<enabled>FALSE</enabled>
						<duration>1125</duration>
						<rate>
							<timebase>25</timebase>
							<ntsc>FALSE</ntsc>
						</rate>
						<start>23639</start>
						<end>24014</end>
						<in>375</in>
						<out>750</out>
						<pproTicksIn>3810240000000</pproTicksIn>
						<pproTicksOut>7620480000000</pproTicksOut>
						<sequence id="sequence-149"/>
							<marker>
								<comment></comment>
								<name></name>
								<in>800</in>
								<out>-1</out>
								<pproColor>4292277273</pproColor>
							</marker>
							<marker>
								<comment></comment>
								<name></name>
								<in>425</in>
								<out>-1</out>
								<pproColor>4292277273</pproColor>
							</marker>
							<marker>
								<comment></comment>
								<name></name>
								<in>50</in>
								<out>-1</out>
								<pproColor>4292277273</pproColor>
							</marker>
						<labels>
							<label2>Forest</label2>
						</labels>
					</clipitem>
					<clipitem id="clipitem-1850">
						<masterclipid>masterclip-807</masterclipid>
						<name>8</name>
						<enabled>FALSE</enabled>
						<duration>1125</duration>
						<rate>
							<timebase>25</timebase>
							<ntsc>FALSE</ntsc>
						</rate>
						<start>25104</start>
						<end>25479</end>
						<in>750</in>
						<out>1125</out>
						<pproTicksIn>7620480000000</pproTicksIn>
						<pproTicksOut>11430720000000</pproTicksOut>
						<sequence id="sequence-149"/>
							<marker>
								<comment></comment>
								<name></name>
								<in>800</in>
								<out>-1</out>
								<pproColor>4292277273</pproColor>
							</marker>
							<marker>
								<comment></comment>
								<name></name>
								<in>425</in>
								<out>-1</out>
								<pproColor>4292277273</pproColor>
							</marker>
							<marker>
								<comment></comment>
								<name></name>
								<in>50</in>
								<out>-1</out>
								<pproColor>4292277273</pproColor>
							</marker>
						<labels>
							<label2>Forest</label2>
						</labels>
					</clipitem>
					<clipitem id="clipitem-1851">
						<masterclipid>masterclip-813</masterclipid>
						<name>7</name>
						<enabled>FALSE</enabled>
						<duration>1125</duration>
						<rate>
							<timebase>25</timebase>
							<ntsc>FALSE</ntsc>
						</rate>
						<start>28690</start>
						<end>29065</end>
						<in>0</in>
						<out>375</out>
						<pproTicksIn>0</pproTicksIn>
						<pproTicksOut>3810240000000</pproTicksOut>
						<sequence id="sequence-150" TL.SQAudioVisibleBase="0" TL.SQVideoVisibleBase="0" TL.SQVisibleBaseTime="0" TL.SQAVDividerPosition="0.5" TL.SQHideShyTracks="0" TL.SQHeaderWidth="236" Monitor.ProgramZoomOut="11430720000000" Monitor.ProgramZoomIn="0" TL.SQTimePerPixel="0.19620667102680819" AM.TrackVScrollPosition="0" AM.TrackScrollPosition="0" MZ.EditLine="7691604480000" MZ.Sequence.PreviewFrameSizeHeight="576" MZ.Sequence.PreviewFrameSizeWidth="720" MZ.Sequence.AudioTimeDisplayFormat="200" MZ.Sequence.PreviewRenderingClassID="1061109567" MZ.Sequence.PreviewRenderingPresetCodec="1685480304" MZ.Sequence.PreviewRenderingPresetPath="EncoderPresets/SequencePreview/04be6e19-a018-4e0c-a9d6-0ab44c64752b/QuickTime DV PAL.epr" MZ.Sequence.PreviewUseMaxRenderQuality="false" MZ.Sequence.PreviewUseMaxBitDepth="false" MZ.Sequence.EditingModeGUID="04be6e19-a018-4e0c-a9d6-0ab44c64752b" MZ.Sequence.VideoTimeDisplayFormat="101" MZ.WorkOutPoint="11430720000000" MZ.WorkInPoint="0" MZ.ZeroPoint="0">
							<duration>1125</duration>
							<rate>
								<timebase>25</timebase>
								<ntsc>FALSE</ntsc>
							</rate>
							<name>RU_Nested</name>
							<media>
								<video>
									<format>
										<samplecharacteristics>
											<rate>
												<timebase>25</timebase>
												<ntsc>FALSE</ntsc>
											</rate>
											<codec>
												<name>Apple ProRes 422</name>
												<appspecificdata>
													<appname>Final Cut Pro</appname>
													<appmanufacturer>Apple Inc.</appmanufacturer>
													<appversion>7.0</appversion>
													<data>
														<qtcodec>
															<codecname>Apple ProRes 422</codecname>
															<codectypename>Apple ProRes 422</codectypename>
															<codectypecode>apcn</codectypecode>
															<codecvendorcode>appl</codecvendorcode>
															<spatialquality>1024</spatialquality>
															<temporalquality>0</temporalquality>
															<keyframerate>0</keyframerate>
															<datarate>0</datarate>
														</qtcodec>
													</data>
												</appspecificdata>
											</codec>
											<width>720</width>
											<height>576</height>
											<anamorphic>TRUE</anamorphic>
											<pixelaspectratio>PAL-601</pixelaspectratio>
											<fielddominance>lower</fielddominance>
											<colordepth>24</colordepth>
										</samplecharacteristics>
									</format>
									<track TL.SQTrackShy="0" TL.SQTrackExpandedHeight="25" TL.SQTrackExpanded="0" MZ.TrackTargeted="1">
										<clipitem id="clipitem-1852">
											<masterclipid>masterclip-814</masterclipid>
											<name>Plashka_Right_DV.mov</name>
											<enabled>TRUE</enabled>
											<duration>375</duration>
											<rate>
												<timebase>25</timebase>
												<ntsc>FALSE</ntsc>
											</rate>
											<start>0</start>
											<end>375</end>
											<in>0</in>
											<out>375</out>
											<pproTicksIn>0</pproTicksIn>
											<pproTicksOut>3810240000000</pproTicksOut>
											<alphatype>straight</alphatype>
											<pixelaspectratio>PAL-601</pixelaspectratio>
											<anamorphic>TRUE</anamorphic>
											<file id="file-674">
												<name>Plashka_Right_DV.mov</name>
												<pathurl>file://localhost/Volumes/1Tb/_MUZ_TV/graphika/RU-21/MOD/Plashka_Right_DV.mov</pathurl>
												<rate>
													<timebase>25</timebase>
													<ntsc>FALSE</ntsc>
												</rate>
												<duration>375</duration>
												<timecode>
													<rate>
														<timebase>25</timebase>
														<ntsc>FALSE</ntsc>
													</rate>
													<string>00:00:15:10</string>
													<frame>385</frame>
													<displayformat>NDF</displayformat>
												</timecode>
												<media>
													<video>
														<samplecharacteristics>
															<rate>
																<timebase>25</timebase>
																<ntsc>FALSE</ntsc>
															</rate>
															<width>720</width>
															<height>576</height>
															<anamorphic>TRUE</anamorphic>
															<pixelaspectratio>PAL-601</pixelaspectratio>
															<fielddominance>lower</fielddominance>
														</samplecharacteristics>
													</video>
												</media>
											</file>
											<filter>
												<effect>
													<name>Basic Motion</name>
													<effectid>basic</effectid>
													<effectcategory>motion</effectcategory>
													<effecttype>motion</effecttype>
													<mediatype>video</mediatype>
													<pproBypass>false</pproBypass>
													<parameter authoringApp="PremierePro">
														<parameterid>scale</parameterid>
														<name>Scale</name>
														<valuemin>0</valuemin>
														<valuemax>1000</valuemax>
														<value>100</value>
													</parameter>
													<parameter authoringApp="PremierePro">
														<parameterid>rotation</parameterid>
														<name>Rotation</name>
														<valuemin>-8640</valuemin>
														<valuemax>8640</valuemax>
														<value>0</value>
													</parameter>
													<parameter authoringApp="PremierePro">
														<parameterid>center</parameterid>
														<name>Center</name>
														<value>
															<horiz>-5.55112e-17</horiz>
															<vert>-1.11022e-16</vert>
														</value>
													</parameter>
													<parameter authoringApp="PremierePro">
														<parameterid>centerOffset</parameterid>
														<name>Anchor Point</name>
														<value>
															<horiz>0.402314</horiz>
															<vert>0.41875</vert>
														</value>
													</parameter>
													<parameter authoringApp="PremierePro">
														<parameterid>antiflicker</parameterid>
														<name>Anti-flicker Filter</name>
														<valuemin>0.0</valuemin>
														<valuemax>1.0</valuemax>
														<value>0</value>
													</parameter>
												</effect>
											</filter>
											<filter>
												<effect>
													<name>Distort</name>
													<effectid>deformation</effectid>
													<effectcategory>motion</effectcategory>
													<effecttype>motion</effecttype>
													<mediatype>video</mediatype>
													<parameter authoringApp="PremierePro">
														<parameterid>aspect</parameterid>
														<name>Aspect</name>
														<valuemin>-10000</valuemin>
														<valuemax>10000</valuemax>
														<value>11.1111</value>
													</parameter>
												</effect>
											</filter>
											<logginginfo>
												<description></description>
												<scene></scene>
												<shottake></shottake>
												<lognote></lognote>
												<good></good>
												<originalvideofilename></originalvideofilename>
												<originalaudiofilename></originalaudiofilename>
											</logginginfo>
											<colorinfo>
												<lut></lut>
												<lut1></lut1>
												<asc_sop></asc_sop>
												<asc_sat></asc_sat>
												<lut2></lut2>
											</colorinfo>
											<labels>
												<label2>Violet</label2>
											</labels>
										</clipitem>
										<clipitem id="clipitem-1853">
											<masterclipid>masterclip-814</masterclipid>
											<name>Plashka_Right_DV.mov</name>
											<enabled>TRUE</enabled>
											<duration>375</duration>
											<rate>
												<timebase>25</timebase>
												<ntsc>FALSE</ntsc>
											</rate>
											<start>375</start>
											<end>750</end>
											<in>0</in>
											<out>375</out>
											<pproTicksIn>0</pproTicksIn>
											<pproTicksOut>3810240000000</pproTicksOut>
											<alphatype>straight</alphatype>
											<file id="file-674"/>
											<filter>
												<effect>
													<name>Basic Motion</name>
													<effectid>basic</effectid>
													<effectcategory>motion</effectcategory>
													<effecttype>motion</effecttype>
													<mediatype>video</mediatype>
													<pproBypass>false</pproBypass>
													<parameter authoringApp="PremierePro">
														<parameterid>scale</parameterid>
														<name>Scale</name>
														<valuemin>0</valuemin>
														<valuemax>1000</valuemax>
														<value>100</value>
													</parameter>
													<parameter authoringApp="PremierePro">
														<parameterid>rotation</parameterid>
														<name>Rotation</name>
														<valuemin>-8640</valuemin>
														<valuemax>8640</valuemax>
														<value>0</value>
													</parameter>
													<parameter authoringApp="PremierePro">
														<parameterid>center</parameterid>
														<name>Center</name>
														<value>
															<horiz>-5.55112e-17</horiz>
															<vert>-1.11022e-16</vert>
														</value>
													</parameter>
													<parameter authoringApp="PremierePro">
														<parameterid>centerOffset</parameterid>
														<name>Anchor Point</name>
														<value>
															<horiz>0.402314</horiz>
															<vert>0.41875</vert>
														</value>
													</parameter>
													<parameter authoringApp="PremierePro">
														<parameterid>antiflicker</parameterid>
														<name>Anti-flicker Filter</name>
														<valuemin>0.0</valuemin>
														<valuemax>1.0</valuemax>
														<value>0</value>
													</parameter>
												</effect>
											</filter>
											<filter>
												<effect>
													<name>Distort</name>
													<effectid>deformation</effectid>
													<effectcategory>motion</effectcategory>
													<effecttype>motion</effecttype>
													<mediatype>video</mediatype>
													<parameter authoringApp="PremierePro">
														<parameterid>aspect</parameterid>
														<name>Aspect</name>
														<valuemin>-10000</valuemin>
														<valuemax>10000</valuemax>
														<value>11.1111</value>
													</parameter>
												</effect>
											</filter>
											<logginginfo>
												<description></description>
												<scene></scene>
												<shottake></shottake>
												<lognote></lognote>
												<good></good>
												<originalvideofilename></originalvideofilename>
												<originalaudiofilename></originalaudiofilename>
											</logginginfo>
											<colorinfo>
												<lut></lut>
												<lut1></lut1>
												<asc_sop></asc_sop>
												<asc_sat></asc_sat>
												<lut2></lut2>
											</colorinfo>
											<labels>
												<label2>Violet</label2>
											</labels>
										</clipitem>
										<clipitem id="clipitem-1854">
											<masterclipid>masterclip-814</masterclipid>
											<name>Plashka_Right_DV.mov</name>
											<enabled>TRUE</enabled>
											<duration>375</duration>
											<rate>
												<timebase>25</timebase>
												<ntsc>FALSE</ntsc>
											</rate>
											<start>750</start>
											<end>1125</end>
											<in>0</in>
											<out>375</out>
											<pproTicksIn>0</pproTicksIn>
											<pproTicksOut>3810240000000</pproTicksOut>
											<alphatype>straight</alphatype>
											<file id="file-674"/>
											<filter>
												<effect>
													<name>Basic Motion</name>
													<effectid>basic</effectid>
													<effectcategory>motion</effectcategory>
													<effecttype>motion</effecttype>
													<mediatype>video</mediatype>
													<pproBypass>false</pproBypass>
													<parameter authoringApp="PremierePro">
														<parameterid>scale</parameterid>
														<name>Scale</name>
														<valuemin>0</valuemin>
														<valuemax>1000</valuemax>
														<value>100</value>
													</parameter>
													<parameter authoringApp="PremierePro">
														<parameterid>rotation</parameterid>
														<name>Rotation</name>
														<valuemin>-8640</valuemin>
														<valuemax>8640</valuemax>
														<value>0</value>
													</parameter>
													<parameter authoringApp="PremierePro">
														<parameterid>center</parameterid>
														<name>Center</name>
														<value>
															<horiz>-5.55112e-17</horiz>
															<vert>-1.11022e-16</vert>
														</value>
													</parameter>
													<parameter authoringApp="PremierePro">
														<parameterid>centerOffset</parameterid>
														<name>Anchor Point</name>
														<value>
															<horiz>0.402314</horiz>
															<vert>0.41875</vert>
														</value>
													</parameter>
													<parameter authoringApp="PremierePro">
														<parameterid>antiflicker</parameterid>
														<name>Anti-flicker Filter</name>
														<valuemin>0.0</valuemin>
														<valuemax>1.0</valuemax>
														<value>0</value>
													</parameter>
												</effect>
											</filter>
											<filter>
												<effect>
													<name>Distort</name>
													<effectid>deformation</effectid>
													<effectcategory>motion</effectcategory>
													<effecttype>motion</effecttype>
													<mediatype>video</mediatype>
													<parameter authoringApp="PremierePro">
														<parameterid>aspect</parameterid>
														<name>Aspect</name>
														<valuemin>-10000</valuemin>
														<valuemax>10000</valuemax>
														<value>11.1111</value>
													</parameter>
												</effect>
											</filter>
											<logginginfo>
												<description></description>
												<scene></scene>
												<shottake></shottake>
												<lognote></lognote>
												<good></good>
												<originalvideofilename></originalvideofilename>
												<originalaudiofilename></originalaudiofilename>
											</logginginfo>
											<colorinfo>
												<lut></lut>
												<lut1></lut1>
												<asc_sop></asc_sop>
												<asc_sat></asc_sat>
												<lut2></lut2>
											</colorinfo>
											<labels>
												<label2>Violet</label2>
											</labels>
										</clipitem>
										<enabled>TRUE</enabled>
										<locked>FALSE</locked>
									</track>
									<track TL.SQTrackShy="0" TL.SQTrackExpandedHeight="25" TL.SQTrackExpanded="0" MZ.TrackTargeted="0">
										<transitionitem>
											<start>6</start>
											<end>35</end>
											<alignment>start-black</alignment>
											<cutPointTicks>0</cutPointTicks>
											<rate>
												<timebase>25</timebase>
												<ntsc>FALSE</ntsc>
											</rate>
											<effect>
												<name>Edge Wipe</name>
												<effectid>Edge Wipe</effectid>
												<effectcategory>Wipe</effectcategory>
												<effecttype>transition</effecttype>
												<mediatype>video</mediatype>
												<wipecode>2</wipecode>
												<wipeaccuracy>100</wipeaccuracy>
												<startratio>0</startratio>
												<endratio>1</endratio>
												<reverse>FALSE</reverse>
												<parameter authoringApp="PremierePro">
													<parameterid>directionofwipe</parameterid>
													<name>Angle</name>
													<valuemin>-360</valuemin>
													<valuemax>360</valuemax>
													<value>270</value>
												</parameter>
											</effect>
										</transitionitem>
										<clipitem id="clipitem-1855">
											<masterclipid>masterclip-815</masterclipid>
											<name>7_1.png</name>
											<enabled>TRUE</enabled>
											<duration>1080000</duration>
											<rate>
												<timebase>25</timebase>
												<ntsc>FALSE</ntsc>
											</rate>
											<start>-1</start>
											<end>-1</end>
											<in>90006</in>
											<out>90369</out>
											<pproTicksIn>914518563840000</pproTicksIn>
											<pproTicksOut>918206876160000</pproTicksOut>
											<alphatype>straight</alphatype>
											<pixelaspectratio>square</pixelaspectratio>
											<anamorphic>FALSE</anamorphic>
											<file id="file-675">
												<name>7_1.png</name>
												<pathurl>file://localhost/_MUZ_TV/project_AP/RU/_TITLE/468/PNG/7_1.png</pathurl>
												<rate>
													<timebase>30</timebase>
													<ntsc>TRUE</ntsc>
												</rate>
												<timecode>
													<rate>
														<timebase>30</timebase>
														<ntsc>TRUE</ntsc>
													</rate>
													<string>00;00;00;00</string>
													<frame>0</frame>
													<displayformat>DF</displayformat>
												</timecode>
												<media>
													<video>
														<samplecharacteristics>
															<rate>
																<timebase>30</timebase>
																<ntsc>TRUE</ntsc>
															</rate>
															<width>1920</width>
															<height>1080</height>
															<anamorphic>FALSE</anamorphic>
															<pixelaspectratio>square</pixelaspectratio>
															<fielddominance>none</fielddominance>
														</samplecharacteristics>
													</video>
												</media>
											</file>
											<filter>
												<effect>
													<name>Basic Motion</name>
													<effectid>basic</effectid>
													<effectcategory>motion</effectcategory>
													<effecttype>motion</effecttype>
													<mediatype>video</mediatype>
													<pproBypass>false</pproBypass>
													<parameter authoringApp="PremierePro">
														<parameterid>scale</parameterid>
														<name>Scale</name>
														<valuemin>0</valuemin>
														<valuemax>1000</valuemax>
														<value>53.3333</value>
													</parameter>
													<parameter authoringApp="PremierePro">
														<parameterid>rotation</parameterid>
														<name>Rotation</name>
														<valuemin>-8640</valuemin>
														<valuemax>8640</valuemax>
														<value>0</value>
													</parameter>
													<parameter authoringApp="PremierePro">
														<parameterid>center</parameterid>
														<name>Center</name>
														<value>
															<horiz>0</horiz>
															<vert>0</vert>
														</value>
													</parameter>
													<parameter authoringApp="PremierePro">
														<parameterid>centerOffset</parameterid>
														<name>Anchor Point</name>
														<value>
															<horiz>0</horiz>
															<vert>0</vert>
														</value>
													</parameter>
													<parameter authoringApp="PremierePro">
														<parameterid>antiflicker</parameterid>
														<name>Anti-flicker Filter</name>
														<valuemin>0.0</valuemin>
														<valuemax>1.0</valuemax>
														<value>0</value>
													</parameter>
												</effect>
											</filter>
											<logginginfo>
												<description></description>
												<scene></scene>
												<shottake></shottake>
												<lognote></lognote>
												<good></good>
												<originalvideofilename></originalvideofilename>
												<originalaudiofilename></originalaudiofilename>
											</logginginfo>
											<colorinfo>
												<lut></lut>
												<lut1></lut1>
												<asc_sop></asc_sop>
												<asc_sat></asc_sat>
												<lut2></lut2>
											</colorinfo>
											<labels>
												<label2>Lavender</label2>
											</labels>
										</clipitem>
										<transitionitem>
											<start>344</start>
											<end>369</end>
											<alignment>end-black</alignment>
											<cutPointTicks>254016000000</cutPointTicks>
											<rate>
												<timebase>25</timebase>
												<ntsc>FALSE</ntsc>
											</rate>
											<effect>
												<name>Edge Wipe</name>
												<effectid>Edge Wipe</effectid>
												<effectcategory>Wipe</effectcategory>
												<effecttype>transition</effecttype>
												<mediatype>video</mediatype>
												<wipecode>2</wipecode>
												<wipeaccuracy>100</wipeaccuracy>
												<startratio>0</startratio>
												<endratio>1</endratio>
												<reverse>FALSE</reverse>
												<parameter authoringApp="PremierePro">
													<parameterid>directionofwipe</parameterid>
													<name>Angle</name>
													<valuemin>-360</valuemin>
													<valuemax>360</valuemax>
													<value>90</value>
												</parameter>
											</effect>
										</transitionitem>
										<transitionitem>
											<start>381</start>
											<end>410</end>
											<alignment>start-black</alignment>
											<cutPointTicks>0</cutPointTicks>
											<rate>
												<timebase>25</timebase>
												<ntsc>FALSE</ntsc>
											</rate>
											<effect>
												<name>Edge Wipe</name>
												<effectid>Edge Wipe</effectid>
												<effectcategory>Wipe</effectcategory>
												<effecttype>transition</effecttype>
												<mediatype>video</mediatype>
												<wipecode>2</wipecode>
												<wipeaccuracy>100</wipeaccuracy>
												<startratio>0</startratio>
												<endratio>1</endratio>
												<reverse>FALSE</reverse>
												<parameter authoringApp="PremierePro">
													<parameterid>directionofwipe</parameterid>
													<name>Angle</name>
													<valuemin>-360</valuemin>
													<valuemax>360</valuemax>
													<value>270</value>
												</parameter>
											</effect>
										</transitionitem>
										<clipitem id="clipitem-1856">
											<masterclipid>masterclip-816</masterclipid>
											<name>7_2.png</name>
											<enabled>TRUE</enabled>
											<duration>1080000</duration>
											<rate>
												<timebase>25</timebase>
												<ntsc>FALSE</ntsc>
											</rate>
											<start>-1</start>
											<end>-1</end>
											<in>90011</in>
											<out>90374</out>
											<pproTicksIn>914569367040000</pproTicksIn>
											<pproTicksOut>918257679360000</pproTicksOut>
											<alphatype>straight</alphatype>
											<pixelaspectratio>square</pixelaspectratio>
											<anamorphic>FALSE</anamorphic>
											<file id="file-676">
												<name>7_2.png</name>
												<pathurl>file://localhost/_MUZ_TV/project_AP/RU/_TITLE/468/PNG/7_2.png</pathurl>
												<rate>
													<timebase>30</timebase>
													<ntsc>TRUE</ntsc>
												</rate>
												<timecode>
													<rate>
														<timebase>30</timebase>
														<ntsc>TRUE</ntsc>
													</rate>
													<string>00;00;00;00</string>
													<frame>0</frame>
													<displayformat>DF</displayformat>
												</timecode>
												<media>
													<video>
														<samplecharacteristics>
															<rate>
																<timebase>30</timebase>
																<ntsc>TRUE</ntsc>
															</rate>
															<width>1920</width>
															<height>1080</height>
															<anamorphic>FALSE</anamorphic>
															<pixelaspectratio>square</pixelaspectratio>
															<fielddominance>none</fielddominance>
														</samplecharacteristics>
													</video>
												</media>
											</file>
											<filter>
												<effect>
													<name>Basic Motion</name>
													<effectid>basic</effectid>
													<effectcategory>motion</effectcategory>
													<effecttype>motion</effecttype>
													<mediatype>video</mediatype>
													<pproBypass>false</pproBypass>
													<parameter authoringApp="PremierePro">
														<parameterid>scale</parameterid>
														<name>Scale</name>
														<valuemin>0</valuemin>
														<valuemax>1000</valuemax>
														<value>53.3333</value>
													</parameter>
													<parameter authoringApp="PremierePro">
														<parameterid>rotation</parameterid>
														<name>Rotation</name>
														<valuemin>-8640</valuemin>
														<valuemax>8640</valuemax>
														<value>0</value>
													</parameter>
													<parameter authoringApp="PremierePro">
														<parameterid>center</parameterid>
														<name>Center</name>
														<value>
															<horiz>0</horiz>
															<vert>0</vert>
														</value>
													</parameter>
													<parameter authoringApp="PremierePro">
														<parameterid>centerOffset</parameterid>
														<name>Anchor Point</name>
														<value>
															<horiz>0</horiz>
															<vert>0</vert>
														</value>
													</parameter>
													<parameter authoringApp="PremierePro">
														<parameterid>antiflicker</parameterid>
														<name>Anti-flicker Filter</name>
														<valuemin>0.0</valuemin>
														<valuemax>1.0</valuemax>
														<value>0</value>
													</parameter>
												</effect>
											</filter>
											<logginginfo>
												<description></description>
												<scene></scene>
												<shottake></shottake>
												<lognote></lognote>
												<good></good>
												<originalvideofilename></originalvideofilename>
												<originalaudiofilename></originalaudiofilename>
											</logginginfo>
											<colorinfo>
												<lut></lut>
												<lut1></lut1>
												<asc_sop></asc_sop>
												<asc_sat></asc_sat>
												<lut2></lut2>
											</colorinfo>
											<labels>
												<label2>Lavender</label2>
											</labels>
										</clipitem>
										<transitionitem>
											<start>719</start>
											<end>744</end>
											<alignment>end-black</alignment>
											<cutPointTicks>254016000000</cutPointTicks>
											<rate>
												<timebase>25</timebase>
												<ntsc>FALSE</ntsc>
											</rate>
											<effect>
												<name>Edge Wipe</name>
												<effectid>Edge Wipe</effectid>
												<effectcategory>Wipe</effectcategory>
												<effecttype>transition</effecttype>
												<mediatype>video</mediatype>
												<wipecode>2</wipecode>
												<wipeaccuracy>100</wipeaccuracy>
												<startratio>0</startratio>
												<endratio>1</endratio>
												<reverse>FALSE</reverse>
												<parameter authoringApp="PremierePro">
													<parameterid>directionofwipe</parameterid>
													<name>Angle</name>
													<valuemin>-360</valuemin>
													<valuemax>360</valuemax>
													<value>90</value>
												</parameter>
											</effect>
										</transitionitem>
										<transitionitem>
											<start>756</start>
											<end>785</end>
											<alignment>start-black</alignment>
											<cutPointTicks>0</cutPointTicks>
											<rate>
												<timebase>25</timebase>
												<ntsc>FALSE</ntsc>
											</rate>
											<effect>
												<name>Edge Wipe</name>
												<effectid>Edge Wipe</effectid>
												<effectcategory>Wipe</effectcategory>
												<effecttype>transition</effecttype>
												<mediatype>video</mediatype>
												<wipecode>2</wipecode>
												<wipeaccuracy>100</wipeaccuracy>
												<startratio>0</startratio>
												<endratio>1</endratio>
												<reverse>FALSE</reverse>
												<parameter authoringApp="PremierePro">
													<parameterid>directionofwipe</parameterid>
													<name>Angle</name>
													<valuemin>-360</valuemin>
													<valuemax>360</valuemax>
													<value>270</value>
												</parameter>
											</effect>
										</transitionitem>
										<clipitem id="clipitem-1857">
											<masterclipid>masterclip-817</masterclipid>
											<name>7_3.png</name>
											<enabled>TRUE</enabled>
											<duration>1080000</duration>
											<rate>
												<timebase>25</timebase>
												<ntsc>FALSE</ntsc>
											</rate>
											<start>-1</start>
											<end>-1</end>
											<in>90011</in>
											<out>90375</out>
											<pproTicksIn>914569367040000</pproTicksIn>
											<pproTicksOut>918267840000000</pproTicksOut>
											<alphatype>none</alphatype>
											<pixelaspectratio>PAL-601</pixelaspectratio>
											<anamorphic>TRUE</anamorphic>
											<file id="file-677">
												<name>7_3.png</name>
												<pathurl>file://localhost/_MUZ_TV/project_AP/RU/_TITLE/468/PNG/7_3.png</pathurl>
												<rate>
													<timebase>25</timebase>
													<ntsc>FALSE</ntsc>
												</rate>
												<duration>1080000</duration>
												<timecode>
													<rate>
														<timebase>25</timebase>
														<ntsc>FALSE</ntsc>
													</rate>
													<string>00:00:00:00</string>
													<frame>0</frame>
													<displayformat>NDF</displayformat>
												</timecode>
												<media>
													<video>
														<samplecharacteristics>
															<rate>
																<timebase>25</timebase>
																<ntsc>FALSE</ntsc>
															</rate>
															<width>1920</width>
															<height>1080</height>
															<anamorphic>TRUE</anamorphic>
															<pixelaspectratio>PAL-601</pixelaspectratio>
															<fielddominance>none</fielddominance>
														</samplecharacteristics>
													</video>
												</media>
											</file>
											<filter>
												<effect>
													<name>Basic Motion</name>
													<effectid>basic</effectid>
													<effectcategory>motion</effectcategory>
													<effecttype>motion</effecttype>
													<mediatype>video</mediatype>
													<pproBypass>false</pproBypass>
													<parameter authoringApp="PremierePro">
														<parameterid>scale</parameterid>
														<name>Scale</name>
														<valuemin>0</valuemin>
														<valuemax>1000</valuemax>
														<value>53.3333</value>
													</parameter>
													<parameter authoringApp="PremierePro">
														<parameterid>rotation</parameterid>
														<name>Rotation</name>
														<valuemin>-8640</valuemin>
														<valuemax>8640</valuemax>
														<value>0</value>
													</parameter>
													<parameter authoringApp="PremierePro">
														<parameterid>center</parameterid>
														<name>Center</name>
														<value>
															<horiz>0</horiz>
															<vert>0</vert>
														</value>
													</parameter>
													<parameter authoringApp="PremierePro">
														<parameterid>centerOffset</parameterid>
														<name>Anchor Point</name>
														<value>
															<horiz>0</horiz>
															<vert>0</vert>
														</value>
													</parameter>
													<parameter authoringApp="PremierePro">
														<parameterid>antiflicker</parameterid>
														<name>Anti-flicker Filter</name>
														<valuemin>0.0</valuemin>
														<valuemax>1.0</valuemax>
														<value>0</value>
													</parameter>
												</effect>
											</filter>
											<logginginfo>
												<description></description>
												<scene></scene>
												<shottake></shottake>
												<lognote></lognote>
												<good></good>
												<originalvideofilename></originalvideofilename>
												<originalaudiofilename></originalaudiofilename>
											</logginginfo>
											<colorinfo>
												<lut></lut>
												<lut1></lut1>
												<asc_sop></asc_sop>
												<asc_sat></asc_sat>
												<lut2></lut2>
											</colorinfo>
											<labels>
												<label2>Lavender</label2>
											</labels>
										</clipitem>
										<transitionitem>
											<start>1095</start>
											<end>1120</end>
											<alignment>end-black</alignment>
											<cutPointTicks>254016000000</cutPointTicks>
											<rate>
												<timebase>25</timebase>
												<ntsc>FALSE</ntsc>
											</rate>
											<effect>
												<name>Edge Wipe</name>
												<effectid>Edge Wipe</effectid>
												<effectcategory>Wipe</effectcategory>
												<effecttype>transition</effecttype>
												<mediatype>video</mediatype>
												<wipecode>2</wipecode>
												<wipeaccuracy>100</wipeaccuracy>
												<startratio>0</startratio>
												<endratio>1</endratio>
												<reverse>FALSE</reverse>
												<parameter authoringApp="PremierePro">
													<parameterid>directionofwipe</parameterid>
													<name>Angle</name>
													<valuemin>-360</valuemin>
													<valuemax>360</valuemax>
													<value>90</value>
												</parameter>
											</effect>
										</transitionitem>
										<enabled>TRUE</enabled>
										<locked>FALSE</locked>
									</track>
									<track TL.SQTrackShy="0" TL.SQTrackExpandedHeight="25" TL.SQTrackExpanded="0" MZ.TrackTargeted="0">
										<transitionitem>
											<start>755</start>
											<end>780</end>
											<alignment>start-black</alignment>
											<cutPointTicks>0</cutPointTicks>
											<rate>
												<timebase>25</timebase>
												<ntsc>FALSE</ntsc>
											</rate>
											<effect>
												<name>Edge Wipe</name>
												<effectid>Edge Wipe</effectid>
												<effectcategory>Wipe</effectcategory>
												<effecttype>transition</effecttype>
												<mediatype>video</mediatype>
												<wipecode>2</wipecode>
												<wipeaccuracy>100</wipeaccuracy>
												<startratio>0</startratio>
												<endratio>1</endratio>
												<reverse>FALSE</reverse>
												<parameter authoringApp="PremierePro">
													<parameterid>directionofwipe</parameterid>
													<name>Angle</name>
													<valuemin>-360</valuemin>
													<valuemax>360</valuemax>
													<value>270</value>
												</parameter>
											</effect>
										</transitionitem>
										<clipitem id="clipitem-1858">
											<masterclipid>masterclip-818</masterclipid>
											<name>Graphic</name>
											<enabled>FALSE</enabled>
											<duration>1080000</duration>
											<rate>
												<timebase>25</timebase>
												<ntsc>FALSE</ntsc>
											</rate>
											<start>-1</start>
											<end>-1</end>
											<in>89905</in>
											<out>90272</out>
											<pproTicksIn>913492339200000</pproTicksIn>
											<pproTicksOut>917221294080000</pproTicksOut>
											<alphatype>straight</alphatype>
											<pixelaspectratio>PAL-601</pixelaspectratio>
											<anamorphic>TRUE</anamorphic>
											<file id="file-678">
												<name>Graphic</name>
												<mediaSource>GraphicAndType</mediaSource>
												<rate>
													<timebase>30</timebase>
													<ntsc>TRUE</ntsc>
												</rate>
												<timecode>
													<rate>
														<timebase>30</timebase>
														<ntsc>TRUE</ntsc>
													</rate>
													<string>00;00;00;00</string>
													<frame>0</frame>
													<displayformat>DF</displayformat>
												</timecode>
												<media>
													<video>
														<samplecharacteristics>
															<rate>
																<timebase>30</timebase>
																<ntsc>TRUE</ntsc>
															</rate>
															<width>720</width>
															<height>576</height>
															<anamorphic>TRUE</anamorphic>
															<pixelaspectratio>PAL-601</pixelaspectratio>
															<fielddominance>none</fielddominance>
														</samplecharacteristics>
													</video>
												</media>
											</file>
											<filter>
												<effect>
													<name>Vector Motion</name>
													<effectid>GraphicGroup</effectid>
													<effectcategory>graphic</effectcategory>
													<effecttype>filter</effecttype>
													<mediatype>video</mediatype>
													<pproBypass>false</pproBypass>
													<parameter authoringApp="PremierePro">
														<parameterid>1</parameterid>
														<name>Position</name>
														<IsTimeVarying>false</IsTimeVarying>
														<value>-91445760000000000,0.81693898908787344:0.49085601568222115,0,0,0,0,0,0,5,4,0,0,0,0</value>
													</parameter>
													<parameter authoringApp="PremierePro">
														<parameterid>2</parameterid>
														<name>Scale</name>
														<IsTimeVarying>false</IsTimeVarying>
														<ParameterControlType>2</ParameterControlType>
														<LowerBound>0</LowerBound>
														<UpperBound>10000</UpperBound>
														<UpperUIBound>200</UpperUIBound>
														<value>-91445760000000000,100.,0,0,0,0,0,0</value>
													</parameter>
													<parameter authoringApp="PremierePro">
														<parameterid>3</parameterid>
														<name>Scale Width</name>
														<IsTimeVarying>false</IsTimeVarying>
														<ParameterControlType>2</ParameterControlType>
														<LowerBound>0</LowerBound>
														<UpperBound>10000</UpperBound>
														<UpperUIBound>200</UpperUIBound>
														<value>-91445760000000000,100.,0,0,0,0,0,0</value>
													</parameter>
													<parameter authoringApp="PremierePro">
														<parameterid>4</parameterid>
														<name> </name>
														<IsTimeVarying>false</IsTimeVarying>
														<ParameterControlType>4</ParameterControlType>
														<LowerBound>false</LowerBound>
														<UpperBound>true</UpperBound>
														<value>-91445760000000000,true,0,0,0,0,0,0</value>
													</parameter>
													<parameter authoringApp="PremierePro">
														<parameterid>5</parameterid>
														<name>Rotation</name>
														<IsTimeVarying>false</IsTimeVarying>
														<ParameterControlType>3</ParameterControlType>
														<LowerBound>-32768</LowerBound>
														<UpperBound>32767</UpperBound>
														<value>-91445760000000000,0.,0,0,0,0,0,0</value>
													</parameter>
													<parameter authoringApp="PremierePro">
														<parameterid>6</parameterid>
														<name>Anchor Point</name>
														<IsTimeVarying>false</IsTimeVarying>
														<value>-91445760000000000,0.5:0.5,0,0,0,0,0,0,5,4,0,0,0,0</value>
													</parameter>
												</effect>
											</filter>
											<filter>
												<effect>
													<name>Данил Прытков признаётся, &#13;что сильные провалы &#13;мотивируют его на творчество &#13;не меньше, чем победы. </name>
													<effectid>GraphicAndType</effectid>
													<effectcategory>graphic</effectcategory>
													<effecttype>filter</effecttype>
													<mediatype>video</mediatype>
													<pproBypass>false</pproBypass>
													<pproExpanded>true</pproExpanded>
													<parameter authoringApp="PremierePro">
														<parameterid>1</parameterid>
														<name>Source Text</name>
														<hash>698123b5-7d57-7b79-efb1-b0df00000a31</hash>
													</parameter>
													<parameter authoringApp="PremierePro">
														<parameterid>2</parameterid>
														<name>Transform</name>
														<IsTimeVarying>false</IsTimeVarying>
														<ParameterControlType>11</ParameterControlType>
														<LowerBound>false</LowerBound>
														<UpperBound>false</UpperBound>
														<value>-91445760000000000,false,0,0,0,0,0,0</value>
													</parameter>
													<parameter authoringApp="PremierePro">
														<parameterid>3</parameterid>
														<name>Position</name>
														<IsTimeVarying>false</IsTimeVarying>
														<value>-91445760000000000,0.270416259765625:0.640594482421875,0,0,0,0,0,0,5,4,0,0,0,0</value>
													</parameter>
													<parameter authoringApp="PremierePro">
														<parameterid>4</parameterid>
														<name>Scale</name>
														<IsTimeVarying>false</IsTimeVarying>
														<ParameterControlType>2</ParameterControlType>
														<LowerBound>0</LowerBound>
														<UpperBound>4000</UpperBound>
														<value>-91445760000000000,100.,0,0,0,0,0,0</value>
													</parameter>
													<parameter authoringApp="PremierePro">
														<parameterid>5</parameterid>
														<name>Horizontal Scale</name>
														<IsTimeVarying>false</IsTimeVarying>
														<ParameterControlType>2</ParameterControlType>
														<LowerBound>0</LowerBound>
														<UpperBound>4000</UpperBound>
														<value>-91445760000000000,100.,0,0,0,0,0,0</value>
													</parameter>
													<parameter authoringApp="PremierePro">
														<parameterid>6</parameterid>
														<name> </name>
														<IsTimeVarying>false</IsTimeVarying>
														<ParameterControlType>4</ParameterControlType>
														<LowerBound>false</LowerBound>
														<UpperBound>true</UpperBound>
														<value>-91445760000000000,true,0,0,0,0,0,0</value>
													</parameter>
													<parameter authoringApp="PremierePro">
														<parameterid>7</parameterid>
														<name>Rotation</name>
														<IsTimeVarying>false</IsTimeVarying>
														<ParameterControlType>3</ParameterControlType>
														<LowerBound>-32768</LowerBound>
														<UpperBound>32767</UpperBound>
														<value>-91445760000000000,0.,0,0,0,0,0,0</value>
													</parameter>
													<parameter authoringApp="PremierePro">
														<parameterid>8</parameterid>
														<name>Opacity</name>
														<IsTimeVarying>false</IsTimeVarying>
														<ParameterControlType>2</ParameterControlType>
														<LowerBound>0</LowerBound>
														<UpperBound>100</UpperBound>
														<value>-91445760000000000,100.,0,0,0,0,0,0</value>
													</parameter>
													<parameter authoringApp="PremierePro">
														<parameterid>9</parameterid>
														<name>Anchor Point</name>
														<IsTimeVarying>false</IsTimeVarying>
														<value>-91445760000000000,0:0,0,0,0,0,0,0,5,4,0,0,0,0</value>
													</parameter>
													<parameter authoringApp="PremierePro">
														<parameterid>10</parameterid>
														<name></name>
														<IsTimeVarying>false</IsTimeVarying>
														<ParameterControlType>12</ParameterControlType>
														<LowerBound>false</LowerBound>
														<UpperBound>false</UpperBound>
														<value>-91445760000000000,false,0,0,0,0,0,0</value>
													</parameter>
													<parameter authoringApp="PremierePro">
														<parameterid>11</parameterid>
														<name> </name>
														<IsTimeVarying>false</IsTimeVarying>
														<ParameterControlType>8</ParameterControlType>
														<LowerBound>0</LowerBound>
														<UpperBound>32768</UpperBound>
														<value>-91445760000000000,0.,0,0,0,0,0,0</value>
													</parameter>
													<parameter authoringApp="PremierePro">
														<parameterid>12</parameterid>
														<name> </name>
														<IsTimeVarying>false</IsTimeVarying>
														<ParameterControlType>8</ParameterControlType>
														<LowerBound>0</LowerBound>
														<UpperBound>32768</UpperBound>
														<value>-91445760000000000,0.,0,0,0,0,0,0</value>
													</parameter>
													<parameter authoringApp="PremierePro">
														<parameterid>13</parameterid>
														<name>start</name>
														<IsTimeVarying>false</IsTimeVarying>
														<ParameterControlType>8</ParameterControlType>
														<LowerBound>-100</LowerBound>
														<UpperBound>1000000000</UpperBound>
														<value>-91445760000000000,0.,0,0,0,0,0,0</value>
													</parameter>
													<parameter authoringApp="PremierePro">
														<parameterid>14</parameterid>
														<name>end</name>
														<IsTimeVarying>false</IsTimeVarying>
														<ParameterControlType>8</ParameterControlType>
														<LowerBound>-100</LowerBound>
														<UpperBound>1000000000</UpperBound>
														<value>-91445760000000000,101.,0,0,0,0,0,0</value>
													</parameter>
													<parameter authoringApp="PremierePro">
														<parameterid>15</parameterid>
														<name> </name>
														<IsTimeVarying>false</IsTimeVarying>
														<ParameterControlType>4</ParameterControlType>
														<LowerBound>false</LowerBound>
														<UpperBound>true</UpperBound>
														<value>-91445760000000000,false,0,0,0,0,0,0</value>
													</parameter>
													<parameter authoringApp="PremierePro">
														<parameterid>16</parameterid>
														<name> </name>
														<IsTimeVarying>false</IsTimeVarying>
														<ParameterControlType>4</ParameterControlType>
														<LowerBound>false</LowerBound>
														<UpperBound>true</UpperBound>
														<value>-91445760000000000,false,0,0,0,0,0,0</value>
													</parameter>
													<parameter authoringApp="PremierePro">
														<parameterid>17</parameterid>
														<name> </name>
														<IsTimeVarying>false</IsTimeVarying>
														<ParameterControlType>4</ParameterControlType>
														<LowerBound>false</LowerBound>
														<UpperBound>true</UpperBound>
														<value>-91445760000000000,false,0,0,0,0,0,0</value>
													</parameter>
													<parameter authoringApp="PremierePro">
														<parameterid>18</parameterid>
														<name> </name>
														<IsTimeVarying>false</IsTimeVarying>
														<ParameterControlType>4</ParameterControlType>
														<LowerBound>false</LowerBound>
														<UpperBound>true</UpperBound>
														<value>-91445760000000000,false,0,0,0,0,0,0</value>
													</parameter>
													<parameter authoringApp="PremierePro">
														<parameterid>19</parameterid>
														<name>Parent Width</name>
														<IsTimeVarying>false</IsTimeVarying>
														<ParameterControlType>2</ParameterControlType>
														<LowerBound>0</LowerBound>
														<UpperBound>20000</UpperBound>
														<value>-91445760000000000,0.,0,0,0,0,0,0</value>
													</parameter>
													<parameter authoringApp="PremierePro">
														<parameterid>20</parameterid>
														<name>Parent Height</name>
														<IsTimeVarying>false</IsTimeVarying>
														<ParameterControlType>2</ParameterControlType>
														<LowerBound>0</LowerBound>
														<UpperBound>20000</UpperBound>
														<value>-91445760000000000,0.,0,0,0,0,0,0</value>
													</parameter>
													<parameter authoringApp="PremierePro">
														<parameterid>21</parameterid>
														<name>Parent Rotation</name>
														<IsTimeVarying>false</IsTimeVarying>
														<ParameterControlType>3</ParameterControlType>
														<LowerBound>-32768</LowerBound>
														<UpperBound>32767</UpperBound>
														<value>-91445760000000000,0.,0,0,0,0,0,0</value>
													</parameter>
												</effect>
											</filter>
											<logginginfo>
												<description></description>
												<scene></scene>
												<shottake></shottake>
												<lognote></lognote>
												<good></good>
												<originalvideofilename></originalvideofilename>
												<originalaudiofilename></originalaudiofilename>
											</logginginfo>
											<colorinfo>
												<lut></lut>
												<lut1></lut1>
												<asc_sop></asc_sop>
												<asc_sat></asc_sat>
												<lut2></lut2>
											</colorinfo>
										</clipitem>
										<transitionitem>
											<start>1097</start>
											<end>1122</end>
											<alignment>end-black</alignment>
											<cutPointTicks>254016000000</cutPointTicks>
											<rate>
												<timebase>25</timebase>
												<ntsc>FALSE</ntsc>
											</rate>
											<effect>
												<name>Edge Wipe</name>
												<effectid>Edge Wipe</effectid>
												<effectcategory>Wipe</effectcategory>
												<effecttype>transition</effecttype>
												<mediatype>video</mediatype>
												<wipecode>2</wipecode>
												<wipeaccuracy>100</wipeaccuracy>
												<startratio>0</startratio>
												<endratio>1</endratio>
												<reverse>FALSE</reverse>
												<parameter authoringApp="PremierePro">
													<parameterid>directionofwipe</parameterid>
													<name>Angle</name>
													<valuemin>-360</valuemin>
													<valuemax>360</valuemax>
													<value>90</value>
												</parameter>
											</effect>
										</transitionitem>
										<enabled>TRUE</enabled>
										<locked>FALSE</locked>
									</track>
								</video>
								<audio>
									<numOutputChannels>2</numOutputChannels>
									<format>
										<samplecharacteristics>
											<depth>16</depth>
											<samplerate>48000</samplerate>
										</samplecharacteristics>
									</format>
									<outputs>
										<group>
											<index>1</index>
											<numchannels>1</numchannels>
											<downmix>0</downmix>
											<channel>
												<index>1</index>
											</channel>
										</group>
										<group>
											<index>2</index>
											<numchannels>1</numchannels>
											<downmix>0</downmix>
											<channel>
												<index>2</index>
											</channel>
										</group>
									</outputs>
									<track TL.SQTrackAudioKeyframeStyle="0" TL.SQTrackShy="0" TL.SQTrackExpandedHeight="25" TL.SQTrackExpanded="0" MZ.TrackTargeted="1" PannerCurrentValue="0.5" PannerStartKeyframe="-91445760000000000,0.5,0,0,0,0,0,0" PannerName="Balance" currentExplodedTrackIndex="0" totalExplodedTrackCount="2" premiereTrackType="Stereo">
										<enabled>TRUE</enabled>
										<locked>FALSE</locked>
										<outputchannelindex>1</outputchannelindex>
									</track>
									<track TL.SQTrackAudioKeyframeStyle="0" TL.SQTrackShy="0" TL.SQTrackExpandedHeight="25" TL.SQTrackExpanded="0" MZ.TrackTargeted="1" PannerCurrentValue="0.5" PannerStartKeyframe="-91445760000000000,0.5,0,0,0,0,0,0" PannerName="Balance" currentExplodedTrackIndex="1" totalExplodedTrackCount="2" premiereTrackType="Stereo">
										<enabled>TRUE</enabled>
										<locked>FALSE</locked>
										<outputchannelindex>2</outputchannelindex>
									</track>
								</audio>
							</media>
							<timecode>
								<rate>
									<timebase>25</timebase>
									<ntsc>FALSE</ntsc>
								</rate>
								<string>00:00:00:00</string>
								<frame>0</frame>
								<displayformat>NDF</displayformat>
							</timecode>
								<marker>
									<comment></comment>
									<name></name>
									<in>425</in>
									<out>-1</out>
									<pproColor>4292277273</pproColor>
								</marker>
								<marker>
									<comment></comment>
									<name></name>
									<in>800</in>
									<out>-1</out>
									<pproColor>4292277273</pproColor>
								</marker>
								<marker>
									<comment></comment>
									<name></name>
									<in>50</in>
									<out>-1</out>
									<pproColor>4292277273</pproColor>
								</marker>
							<logginginfo>
								<description></description>
								<scene></scene>
								<shottake></shottake>
								<lognote></lognote>
								<good></good>
								<originalvideofilename></originalvideofilename>
								<originalaudiofilename></originalaudiofilename>
							</logginginfo>
						</sequence>
							<marker>
								<comment></comment>
								<name></name>
								<in>425</in>
								<out>-1</out>
								<pproColor>4292277273</pproColor>
							</marker>
							<marker>
								<comment></comment>
								<name></name>
								<in>800</in>
								<out>-1</out>
								<pproColor>4292277273</pproColor>
							</marker>
							<marker>
								<comment></comment>
								<name></name>
								<in>50</in>
								<out>-1</out>
								<pproColor>4292277273</pproColor>
							</marker>
						<labels>
							<label2>Forest</label2>
						</labels>
					</clipitem>
					<clipitem id="clipitem-1859">
						<masterclipid>masterclip-813</masterclipid>
						<name>7</name>
						<enabled>FALSE</enabled>
						<duration>1125</duration>
						<rate>
							<timebase>25</timebase>
							<ntsc>FALSE</ntsc>
						</rate>
						<start>30626</start>
						<end>31001</end>
						<in>375</in>
						<out>750</out>
						<pproTicksIn>3810240000000</pproTicksIn>
						<pproTicksOut>7620480000000</pproTicksOut>
						<sequence id="sequence-150"/>
							<marker>
								<comment></comment>
								<name></name>
								<in>425</in>
								<out>-1</out>
								<pproColor>4292277273</pproColor>
							</marker>
							<marker>
								<comment></comment>
								<name></name>
								<in>800</in>
								<out>-1</out>
								<pproColor>4292277273</pproColor>
							</marker>
							<marker>
								<comment></comment>
								<name></name>
								<in>50</in>
								<out>-1</out>
								<pproColor>4292277273</pproColor>
							</marker>
						<labels>
							<label2>Forest</label2>
						</labels>
					</clipitem>
					<clipitem id="clipitem-1860">
						<masterclipid>masterclip-813</masterclipid>
						<name>7</name>
						<enabled>FALSE</enabled>
						<duration>1125</duration>
						<rate>
							<timebase>25</timebase>
							<ntsc>FALSE</ntsc>
						</rate>
						<start>32297</start>
						<end>32672</end>
						<in>750</in>
						<out>1125</out>
						<pproTicksIn>7620480000000</pproTicksIn>
						<pproTicksOut>11430720000000</pproTicksOut>
						<sequence id="sequence-150"/>
							<marker>
								<comment></comment>
								<name></name>
								<in>425</in>
								<out>-1</out>
								<pproColor>4292277273</pproColor>
							</marker>
							<marker>
								<comment></comment>
								<name></name>
								<in>800</in>
								<out>-1</out>
								<pproColor>4292277273</pproColor>
							</marker>
							<marker>
								<comment></comment>
								<name></name>
								<in>50</in>
								<out>-1</out>
								<pproColor>4292277273</pproColor>
							</marker>
						<labels>
							<label2>Forest</label2>
						</labels>
					</clipitem>
					<clipitem id="clipitem-1861">
						<masterclipid>masterclip-819</masterclipid>
						<name>6</name>
						<enabled>FALSE</enabled>
						<duration>1125</duration>
						<rate>
							<timebase>25</timebase>
							<ntsc>FALSE</ntsc>
						</rate>
						<start>35551</start>
						<end>35926</end>
						<in>0</in>
						<out>375</out>
						<pproTicksIn>0</pproTicksIn>
						<pproTicksOut>3810240000000</pproTicksOut>
						<sequence id="sequence-151" TL.SQAudioVisibleBase="0" TL.SQVideoVisibleBase="0" TL.SQVisibleBaseTime="0" TL.SQAVDividerPosition="0.5" TL.SQHideShyTracks="0" TL.SQHeaderWidth="236" Monitor.ProgramZoomOut="11430720000000" Monitor.ProgramZoomIn="0" TL.SQTimePerPixel="0.19620667102680819" AM.TrackVScrollPosition="0" AM.TrackScrollPosition="0" MZ.EditLine="7691604480000" MZ.Sequence.PreviewFrameSizeHeight="576" MZ.Sequence.PreviewFrameSizeWidth="720" MZ.Sequence.AudioTimeDisplayFormat="200" MZ.Sequence.PreviewRenderingClassID="1061109567" MZ.Sequence.PreviewRenderingPresetCodec="1685480304" MZ.Sequence.PreviewRenderingPresetPath="EncoderPresets/SequencePreview/04be6e19-a018-4e0c-a9d6-0ab44c64752b/QuickTime DV PAL.epr" MZ.Sequence.PreviewUseMaxRenderQuality="false" MZ.Sequence.PreviewUseMaxBitDepth="false" MZ.Sequence.EditingModeGUID="04be6e19-a018-4e0c-a9d6-0ab44c64752b" MZ.Sequence.VideoTimeDisplayFormat="101" MZ.WorkOutPoint="11430720000000" MZ.WorkInPoint="0" MZ.ZeroPoint="0">
							<duration>1125</duration>
							<rate>
								<timebase>25</timebase>
								<ntsc>FALSE</ntsc>
							</rate>
							<name>RU_Nested</name>
							<media>
								<video>
									<format>
										<samplecharacteristics>
											<rate>
												<timebase>25</timebase>
												<ntsc>FALSE</ntsc>
											</rate>
											<codec>
												<name>Apple ProRes 422</name>
												<appspecificdata>
													<appname>Final Cut Pro</appname>
													<appmanufacturer>Apple Inc.</appmanufacturer>
													<appversion>7.0</appversion>
													<data>
														<qtcodec>
															<codecname>Apple ProRes 422</codecname>
															<codectypename>Apple ProRes 422</codectypename>
															<codectypecode>apcn</codectypecode>
															<codecvendorcode>appl</codecvendorcode>
															<spatialquality>1024</spatialquality>
															<temporalquality>0</temporalquality>
															<keyframerate>0</keyframerate>
															<datarate>0</datarate>
														</qtcodec>
													</data>
												</appspecificdata>
											</codec>
											<width>720</width>
											<height>576</height>
											<anamorphic>TRUE</anamorphic>
											<pixelaspectratio>PAL-601</pixelaspectratio>
											<fielddominance>lower</fielddominance>
											<colordepth>24</colordepth>
										</samplecharacteristics>
									</format>
									<track TL.SQTrackShy="0" TL.SQTrackExpandedHeight="25" TL.SQTrackExpanded="0" MZ.TrackTargeted="1">
										<clipitem id="clipitem-1862">
											<masterclipid>masterclip-820</masterclipid>
											<name>Plashka_Right_DV.mov</name>
											<enabled>TRUE</enabled>
											<duration>375</duration>
											<rate>
												<timebase>25</timebase>
												<ntsc>FALSE</ntsc>
											</rate>
											<start>0</start>
											<end>375</end>
											<in>0</in>
											<out>375</out>
											<pproTicksIn>0</pproTicksIn>
											<pproTicksOut>3810240000000</pproTicksOut>
											<alphatype>straight</alphatype>
											<pixelaspectratio>PAL-601</pixelaspectratio>
											<anamorphic>TRUE</anamorphic>
											<file id="file-679">
												<name>Plashka_Right_DV.mov</name>
												<pathurl>file://localhost/Volumes/1Tb/_MUZ_TV/graphika/RU-21/MOD/Plashka_Right_DV.mov</pathurl>
												<rate>
													<timebase>25</timebase>
													<ntsc>FALSE</ntsc>
												</rate>
												<duration>375</duration>
												<timecode>
													<rate>
														<timebase>25</timebase>
														<ntsc>FALSE</ntsc>
													</rate>
													<string>00:00:15:10</string>
													<frame>385</frame>
													<displayformat>NDF</displayformat>
												</timecode>
												<media>
													<video>
														<samplecharacteristics>
															<rate>
																<timebase>25</timebase>
																<ntsc>FALSE</ntsc>
															</rate>
															<width>720</width>
															<height>576</height>
															<anamorphic>TRUE</anamorphic>
															<pixelaspectratio>PAL-601</pixelaspectratio>
															<fielddominance>lower</fielddominance>
														</samplecharacteristics>
													</video>
												</media>
											</file>
											<filter>
												<effect>
													<name>Basic Motion</name>
													<effectid>basic</effectid>
													<effectcategory>motion</effectcategory>
													<effecttype>motion</effecttype>
													<mediatype>video</mediatype>
													<pproBypass>false</pproBypass>
													<parameter authoringApp="PremierePro">
														<parameterid>scale</parameterid>
														<name>Scale</name>
														<valuemin>0</valuemin>
														<valuemax>1000</valuemax>
														<value>100</value>
													</parameter>
													<parameter authoringApp="PremierePro">
														<parameterid>rotation</parameterid>
														<name>Rotation</name>
														<valuemin>-8640</valuemin>
														<valuemax>8640</valuemax>
														<value>0</value>
													</parameter>
													<parameter authoringApp="PremierePro">
														<parameterid>center</parameterid>
														<name>Center</name>
														<value>
															<horiz>-5.55112e-17</horiz>
															<vert>-1.11022e-16</vert>
														</value>
													</parameter>
													<parameter authoringApp="PremierePro">
														<parameterid>centerOffset</parameterid>
														<name>Anchor Point</name>
														<value>
															<horiz>0.402314</horiz>
															<vert>0.41875</vert>
														</value>
													</parameter>
													<parameter authoringApp="PremierePro">
														<parameterid>antiflicker</parameterid>
														<name>Anti-flicker Filter</name>
														<valuemin>0.0</valuemin>
														<valuemax>1.0</valuemax>
														<value>0</value>
													</parameter>
												</effect>
											</filter>
											<filter>
												<effect>
													<name>Distort</name>
													<effectid>deformation</effectid>
													<effectcategory>motion</effectcategory>
													<effecttype>motion</effecttype>
													<mediatype>video</mediatype>
													<parameter authoringApp="PremierePro">
														<parameterid>aspect</parameterid>
														<name>Aspect</name>
														<valuemin>-10000</valuemin>
														<valuemax>10000</valuemax>
														<value>11.1111</value>
													</parameter>
												</effect>
											</filter>
											<logginginfo>
												<description></description>
												<scene></scene>
												<shottake></shottake>
												<lognote></lognote>
												<good></good>
												<originalvideofilename></originalvideofilename>
												<originalaudiofilename></originalaudiofilename>
											</logginginfo>
											<colorinfo>
												<lut></lut>
												<lut1></lut1>
												<asc_sop></asc_sop>
												<asc_sat></asc_sat>
												<lut2></lut2>
											</colorinfo>
											<labels>
												<label2>Violet</label2>
											</labels>
										</clipitem>
										<clipitem id="clipitem-1863">
											<masterclipid>masterclip-820</masterclipid>
											<name>Plashka_Right_DV.mov</name>
											<enabled>TRUE</enabled>
											<duration>375</duration>
											<rate>
												<timebase>25</timebase>
												<ntsc>FALSE</ntsc>
											</rate>
											<start>375</start>
											<end>750</end>
											<in>0</in>
											<out>375</out>
											<pproTicksIn>0</pproTicksIn>
											<pproTicksOut>3810240000000</pproTicksOut>
											<alphatype>straight</alphatype>
											<file id="file-679"/>
											<filter>
												<effect>
													<name>Basic Motion</name>
													<effectid>basic</effectid>
													<effectcategory>motion</effectcategory>
													<effecttype>motion</effecttype>
													<mediatype>video</mediatype>
													<pproBypass>false</pproBypass>
													<parameter authoringApp="PremierePro">
														<parameterid>scale</parameterid>
														<name>Scale</name>
														<valuemin>0</valuemin>
														<valuemax>1000</valuemax>
														<value>100</value>
													</parameter>
													<parameter authoringApp="PremierePro">
														<parameterid>rotation</parameterid>
														<name>Rotation</name>
														<valuemin>-8640</valuemin>
														<valuemax>8640</valuemax>
														<value>0</value>
													</parameter>
													<parameter authoringApp="PremierePro">
														<parameterid>center</parameterid>
														<name>Center</name>
														<value>
															<horiz>-5.55112e-17</horiz>
															<vert>-1.11022e-16</vert>
														</value>
													</parameter>
													<parameter authoringApp="PremierePro">
														<parameterid>centerOffset</parameterid>
														<name>Anchor Point</name>
														<value>
															<horiz>0.402314</horiz>
															<vert>0.41875</vert>
														</value>
													</parameter>
													<parameter authoringApp="PremierePro">
														<parameterid>antiflicker</parameterid>
														<name>Anti-flicker Filter</name>
														<valuemin>0.0</valuemin>
														<valuemax>1.0</valuemax>
														<value>0</value>
													</parameter>
												</effect>
											</filter>
											<filter>
												<effect>
													<name>Distort</name>
													<effectid>deformation</effectid>
													<effectcategory>motion</effectcategory>
													<effecttype>motion</effecttype>
													<mediatype>video</mediatype>
													<parameter authoringApp="PremierePro">
														<parameterid>aspect</parameterid>
														<name>Aspect</name>
														<valuemin>-10000</valuemin>
														<valuemax>10000</valuemax>
														<value>11.1111</value>
													</parameter>
												</effect>
											</filter>
											<logginginfo>
												<description></description>
												<scene></scene>
												<shottake></shottake>
												<lognote></lognote>
												<good></good>
												<originalvideofilename></originalvideofilename>
												<originalaudiofilename></originalaudiofilename>
											</logginginfo>
											<colorinfo>
												<lut></lut>
												<lut1></lut1>
												<asc_sop></asc_sop>
												<asc_sat></asc_sat>
												<lut2></lut2>
											</colorinfo>
											<labels>
												<label2>Violet</label2>
											</labels>
										</clipitem>
										<clipitem id="clipitem-1864">
											<masterclipid>masterclip-820</masterclipid>
											<name>Plashka_Right_DV.mov</name>
											<enabled>TRUE</enabled>
											<duration>375</duration>
											<rate>
												<timebase>25</timebase>
												<ntsc>FALSE</ntsc>
											</rate>
											<start>750</start>
											<end>1125</end>
											<in>0</in>
											<out>375</out>
											<pproTicksIn>0</pproTicksIn>
											<pproTicksOut>3810240000000</pproTicksOut>
											<alphatype>straight</alphatype>
											<file id="file-679"/>
											<filter>
												<effect>
													<name>Basic Motion</name>
													<effectid>basic</effectid>
													<effectcategory>motion</effectcategory>
													<effecttype>motion</effecttype>
													<mediatype>video</mediatype>
													<pproBypass>false</pproBypass>
													<parameter authoringApp="PremierePro">
														<parameterid>scale</parameterid>
														<name>Scale</name>
														<valuemin>0</valuemin>
														<valuemax>1000</valuemax>
														<value>100</value>
													</parameter>
													<parameter authoringApp="PremierePro">
														<parameterid>rotation</parameterid>
														<name>Rotation</name>
														<valuemin>-8640</valuemin>
														<valuemax>8640</valuemax>
														<value>0</value>
													</parameter>
													<parameter authoringApp="PremierePro">
														<parameterid>center</parameterid>
														<name>Center</name>
														<value>
															<horiz>-5.55112e-17</horiz>
															<vert>-1.11022e-16</vert>
														</value>
													</parameter>
													<parameter authoringApp="PremierePro">
														<parameterid>centerOffset</parameterid>
														<name>Anchor Point</name>
														<value>
															<horiz>0.402314</horiz>
															<vert>0.41875</vert>
														</value>
													</parameter>
													<parameter authoringApp="PremierePro">
														<parameterid>antiflicker</parameterid>
														<name>Anti-flicker Filter</name>
														<valuemin>0.0</valuemin>
														<valuemax>1.0</valuemax>
														<value>0</value>
													</parameter>
												</effect>
											</filter>
											<filter>
												<effect>
													<name>Distort</name>
													<effectid>deformation</effectid>
													<effectcategory>motion</effectcategory>
													<effecttype>motion</effecttype>
													<mediatype>video</mediatype>
													<parameter authoringApp="PremierePro">
														<parameterid>aspect</parameterid>
														<name>Aspect</name>
														<valuemin>-10000</valuemin>
														<valuemax>10000</valuemax>
														<value>11.1111</value>
													</parameter>
												</effect>
											</filter>
											<logginginfo>
												<description></description>
												<scene></scene>
												<shottake></shottake>
												<lognote></lognote>
												<good></good>
												<originalvideofilename></originalvideofilename>
												<originalaudiofilename></originalaudiofilename>
											</logginginfo>
											<colorinfo>
												<lut></lut>
												<lut1></lut1>
												<asc_sop></asc_sop>
												<asc_sat></asc_sat>
												<lut2></lut2>
											</colorinfo>
											<labels>
												<label2>Violet</label2>
											</labels>
										</clipitem>
										<enabled>TRUE</enabled>
										<locked>FALSE</locked>
									</track>
									<track TL.SQTrackShy="0" TL.SQTrackExpandedHeight="25" TL.SQTrackExpanded="0" MZ.TrackTargeted="0">
										<transitionitem>
											<start>6</start>
											<end>35</end>
											<alignment>start-black</alignment>
											<cutPointTicks>0</cutPointTicks>
											<rate>
												<timebase>25</timebase>
												<ntsc>FALSE</ntsc>
											</rate>
											<effect>
												<name>Edge Wipe</name>
												<effectid>Edge Wipe</effectid>
												<effectcategory>Wipe</effectcategory>
												<effecttype>transition</effecttype>
												<mediatype>video</mediatype>
												<wipecode>2</wipecode>
												<wipeaccuracy>100</wipeaccuracy>
												<startratio>0</startratio>
												<endratio>1</endratio>
												<reverse>FALSE</reverse>
												<parameter authoringApp="PremierePro">
													<parameterid>directionofwipe</parameterid>
													<name>Angle</name>
													<valuemin>-360</valuemin>
													<valuemax>360</valuemax>
													<value>270</value>
												</parameter>
											</effect>
										</transitionitem>
										<clipitem id="clipitem-1865">
											<masterclipid>masterclip-821</masterclipid>
											<name>6_1.png</name>
											<enabled>TRUE</enabled>
											<duration>1080000</duration>
											<rate>
												<timebase>25</timebase>
												<ntsc>FALSE</ntsc>
											</rate>
											<start>-1</start>
											<end>-1</end>
											<in>90006</in>
											<out>90369</out>
											<pproTicksIn>914518563840000</pproTicksIn>
											<pproTicksOut>918206876160000</pproTicksOut>
											<alphatype>straight</alphatype>
											<pixelaspectratio>square</pixelaspectratio>
											<anamorphic>FALSE</anamorphic>
											<file id="file-680">
												<name>6_1.png</name>
												<pathurl>file://localhost/_MUZ_TV/project_AP/RU/_TITLE/468/PNG/6_1.png</pathurl>
												<rate>
													<timebase>30</timebase>
													<ntsc>TRUE</ntsc>
												</rate>
												<timecode>
													<rate>
														<timebase>30</timebase>
														<ntsc>TRUE</ntsc>
													</rate>
													<string>00;00;00;00</string>
													<frame>0</frame>
													<displayformat>DF</displayformat>
												</timecode>
												<media>
													<video>
														<samplecharacteristics>
															<rate>
																<timebase>30</timebase>
																<ntsc>TRUE</ntsc>
															</rate>
															<width>1920</width>
															<height>1080</height>
															<anamorphic>FALSE</anamorphic>
															<pixelaspectratio>square</pixelaspectratio>
															<fielddominance>none</fielddominance>
														</samplecharacteristics>
													</video>
												</media>
											</file>
											<filter>
												<effect>
													<name>Basic Motion</name>
													<effectid>basic</effectid>
													<effectcategory>motion</effectcategory>
													<effecttype>motion</effecttype>
													<mediatype>video</mediatype>
													<pproBypass>false</pproBypass>
													<parameter authoringApp="PremierePro">
														<parameterid>scale</parameterid>
														<name>Scale</name>
														<valuemin>0</valuemin>
														<valuemax>1000</valuemax>
														<value>53.3333</value>
													</parameter>
													<parameter authoringApp="PremierePro">
														<parameterid>rotation</parameterid>
														<name>Rotation</name>
														<valuemin>-8640</valuemin>
														<valuemax>8640</valuemax>
														<value>0</value>
													</parameter>
													<parameter authoringApp="PremierePro">
														<parameterid>center</parameterid>
														<name>Center</name>
														<value>
															<horiz>0</horiz>
															<vert>0</vert>
														</value>
													</parameter>
													<parameter authoringApp="PremierePro">
														<parameterid>centerOffset</parameterid>
														<name>Anchor Point</name>
														<value>
															<horiz>0</horiz>
															<vert>0</vert>
														</value>
													</parameter>
													<parameter authoringApp="PremierePro">
														<parameterid>antiflicker</parameterid>
														<name>Anti-flicker Filter</name>
														<valuemin>0.0</valuemin>
														<valuemax>1.0</valuemax>
														<value>0</value>
													</parameter>
												</effect>
											</filter>
											<logginginfo>
												<description></description>
												<scene></scene>
												<shottake></shottake>
												<lognote></lognote>
												<good></good>
												<originalvideofilename></originalvideofilename>
												<originalaudiofilename></originalaudiofilename>
											</logginginfo>
											<colorinfo>
												<lut></lut>
												<lut1></lut1>
												<asc_sop></asc_sop>
												<asc_sat></asc_sat>
												<lut2></lut2>
											</colorinfo>
											<labels>
												<label2>Lavender</label2>
											</labels>
										</clipitem>
										<transitionitem>
											<start>344</start>
											<end>369</end>
											<alignment>end-black</alignment>
											<cutPointTicks>254016000000</cutPointTicks>
											<rate>
												<timebase>25</timebase>
												<ntsc>FALSE</ntsc>
											</rate>
											<effect>
												<name>Edge Wipe</name>
												<effectid>Edge Wipe</effectid>
												<effectcategory>Wipe</effectcategory>
												<effecttype>transition</effecttype>
												<mediatype>video</mediatype>
												<wipecode>2</wipecode>
												<wipeaccuracy>100</wipeaccuracy>
												<startratio>0</startratio>
												<endratio>1</endratio>
												<reverse>FALSE</reverse>
												<parameter authoringApp="PremierePro">
													<parameterid>directionofwipe</parameterid>
													<name>Angle</name>
													<valuemin>-360</valuemin>
													<valuemax>360</valuemax>
													<value>90</value>
												</parameter>
											</effect>
										</transitionitem>
										<transitionitem>
											<start>381</start>
											<end>410</end>
											<alignment>start-black</alignment>
											<cutPointTicks>0</cutPointTicks>
											<rate>
												<timebase>25</timebase>
												<ntsc>FALSE</ntsc>
											</rate>
											<effect>
												<name>Edge Wipe</name>
												<effectid>Edge Wipe</effectid>
												<effectcategory>Wipe</effectcategory>
												<effecttype>transition</effecttype>
												<mediatype>video</mediatype>
												<wipecode>2</wipecode>
												<wipeaccuracy>100</wipeaccuracy>
												<startratio>0</startratio>
												<endratio>1</endratio>
												<reverse>FALSE</reverse>
												<parameter authoringApp="PremierePro">
													<parameterid>directionofwipe</parameterid>
													<name>Angle</name>
													<valuemin>-360</valuemin>
													<valuemax>360</valuemax>
													<value>270</value>
												</parameter>
											</effect>
										</transitionitem>
										<clipitem id="clipitem-1866">
											<masterclipid>masterclip-822</masterclipid>
											<name>6_2.png</name>
											<enabled>TRUE</enabled>
											<duration>1080000</duration>
											<rate>
												<timebase>25</timebase>
												<ntsc>FALSE</ntsc>
											</rate>
											<start>-1</start>
											<end>-1</end>
											<in>90011</in>
											<out>90374</out>
											<pproTicksIn>914569367040000</pproTicksIn>
											<pproTicksOut>918257679360000</pproTicksOut>
											<alphatype>straight</alphatype>
											<pixelaspectratio>square</pixelaspectratio>
											<anamorphic>FALSE</anamorphic>
											<file id="file-681">
												<name>6_2.png</name>
												<pathurl>file://localhost/_MUZ_TV/project_AP/RU/_TITLE/468/PNG/6_2.png</pathurl>
												<rate>
													<timebase>30</timebase>
													<ntsc>TRUE</ntsc>
												</rate>
												<timecode>
													<rate>
														<timebase>30</timebase>
														<ntsc>TRUE</ntsc>
													</rate>
													<string>00;00;00;00</string>
													<frame>0</frame>
													<displayformat>DF</displayformat>
												</timecode>
												<media>
													<video>
														<samplecharacteristics>
															<rate>
																<timebase>30</timebase>
																<ntsc>TRUE</ntsc>
															</rate>
															<width>1920</width>
															<height>1080</height>
															<anamorphic>FALSE</anamorphic>
															<pixelaspectratio>square</pixelaspectratio>
															<fielddominance>none</fielddominance>
														</samplecharacteristics>
													</video>
												</media>
											</file>
											<filter>
												<effect>
													<name>Basic Motion</name>
													<effectid>basic</effectid>
													<effectcategory>motion</effectcategory>
													<effecttype>motion</effecttype>
													<mediatype>video</mediatype>
													<pproBypass>false</pproBypass>
													<parameter authoringApp="PremierePro">
														<parameterid>scale</parameterid>
														<name>Scale</name>
														<valuemin>0</valuemin>
														<valuemax>1000</valuemax>
														<value>53.3333</value>
													</parameter>
													<parameter authoringApp="PremierePro">
														<parameterid>rotation</parameterid>
														<name>Rotation</name>
														<valuemin>-8640</valuemin>
														<valuemax>8640</valuemax>
														<value>0</value>
													</parameter>
													<parameter authoringApp="PremierePro">
														<parameterid>center</parameterid>
														<name>Center</name>
														<value>
															<horiz>0</horiz>
															<vert>0</vert>
														</value>
													</parameter>
													<parameter authoringApp="PremierePro">
														<parameterid>centerOffset</parameterid>
														<name>Anchor Point</name>
														<value>
															<horiz>0</horiz>
															<vert>0</vert>
														</value>
													</parameter>
													<parameter authoringApp="PremierePro">
														<parameterid>antiflicker</parameterid>
														<name>Anti-flicker Filter</name>
														<valuemin>0.0</valuemin>
														<valuemax>1.0</valuemax>
														<value>0</value>
													</parameter>
												</effect>
											</filter>
											<logginginfo>
												<description></description>
												<scene></scene>
												<shottake></shottake>
												<lognote></lognote>
												<good></good>
												<originalvideofilename></originalvideofilename>
												<originalaudiofilename></originalaudiofilename>
											</logginginfo>
											<colorinfo>
												<lut></lut>
												<lut1></lut1>
												<asc_sop></asc_sop>
												<asc_sat></asc_sat>
												<lut2></lut2>
											</colorinfo>
											<labels>
												<label2>Lavender</label2>
											</labels>
										</clipitem>
										<transitionitem>
											<start>719</start>
											<end>744</end>
											<alignment>end-black</alignment>
											<cutPointTicks>254016000000</cutPointTicks>
											<rate>
												<timebase>25</timebase>
												<ntsc>FALSE</ntsc>
											</rate>
											<effect>
												<name>Edge Wipe</name>
												<effectid>Edge Wipe</effectid>
												<effectcategory>Wipe</effectcategory>
												<effecttype>transition</effecttype>
												<mediatype>video</mediatype>
												<wipecode>2</wipecode>
												<wipeaccuracy>100</wipeaccuracy>
												<startratio>0</startratio>
												<endratio>1</endratio>
												<reverse>FALSE</reverse>
												<parameter authoringApp="PremierePro">
													<parameterid>directionofwipe</parameterid>
													<name>Angle</name>
													<valuemin>-360</valuemin>
													<valuemax>360</valuemax>
													<value>90</value>
												</parameter>
											</effect>
										</transitionitem>
										<transitionitem>
											<start>756</start>
											<end>785</end>
											<alignment>start-black</alignment>
											<cutPointTicks>0</cutPointTicks>
											<rate>
												<timebase>25</timebase>
												<ntsc>FALSE</ntsc>
											</rate>
											<effect>
												<name>Edge Wipe</name>
												<effectid>Edge Wipe</effectid>
												<effectcategory>Wipe</effectcategory>
												<effecttype>transition</effecttype>
												<mediatype>video</mediatype>
												<wipecode>2</wipecode>
												<wipeaccuracy>100</wipeaccuracy>
												<startratio>0</startratio>
												<endratio>1</endratio>
												<reverse>FALSE</reverse>
												<parameter authoringApp="PremierePro">
													<parameterid>directionofwipe</parameterid>
													<name>Angle</name>
													<valuemin>-360</valuemin>
													<valuemax>360</valuemax>
													<value>270</value>
												</parameter>
											</effect>
										</transitionitem>
										<clipitem id="clipitem-1867">
											<masterclipid>masterclip-823</masterclipid>
											<name>6_3.png</name>
											<enabled>TRUE</enabled>
											<duration>1080000</duration>
											<rate>
												<timebase>25</timebase>
												<ntsc>FALSE</ntsc>
											</rate>
											<start>-1</start>
											<end>-1</end>
											<in>90011</in>
											<out>90375</out>
											<pproTicksIn>914569367040000</pproTicksIn>
											<pproTicksOut>918267840000000</pproTicksOut>
											<alphatype>straight</alphatype>
											<pixelaspectratio>square</pixelaspectratio>
											<anamorphic>FALSE</anamorphic>
											<file id="file-682">
												<name>6_3.png</name>
												<pathurl>file://localhost/_MUZ_TV/project_AP/RU/_TITLE/468/PNG/6_3.png</pathurl>
												<rate>
													<timebase>30</timebase>
													<ntsc>TRUE</ntsc>
												</rate>
												<timecode>
													<rate>
														<timebase>30</timebase>
														<ntsc>TRUE</ntsc>
													</rate>
													<string>00;00;00;00</string>
													<frame>0</frame>
													<displayformat>DF</displayformat>
												</timecode>
												<media>
													<video>
														<samplecharacteristics>
															<rate>
																<timebase>30</timebase>
																<ntsc>TRUE</ntsc>
															</rate>
															<width>1920</width>
															<height>1080</height>
															<anamorphic>FALSE</anamorphic>
															<pixelaspectratio>square</pixelaspectratio>
															<fielddominance>none</fielddominance>
														</samplecharacteristics>
													</video>
												</media>
											</file>
											<filter>
												<effect>
													<name>Basic Motion</name>
													<effectid>basic</effectid>
													<effectcategory>motion</effectcategory>
													<effecttype>motion</effecttype>
													<mediatype>video</mediatype>
													<pproBypass>false</pproBypass>
													<parameter authoringApp="PremierePro">
														<parameterid>scale</parameterid>
														<name>Scale</name>
														<valuemin>0</valuemin>
														<valuemax>1000</valuemax>
														<value>53.3333</value>
													</parameter>
													<parameter authoringApp="PremierePro">
														<parameterid>rotation</parameterid>
														<name>Rotation</name>
														<valuemin>-8640</valuemin>
														<valuemax>8640</valuemax>
														<value>0</value>
													</parameter>
													<parameter authoringApp="PremierePro">
														<parameterid>center</parameterid>
														<name>Center</name>
														<value>
															<horiz>0</horiz>
															<vert>0</vert>
														</value>
													</parameter>
													<parameter authoringApp="PremierePro">
														<parameterid>centerOffset</parameterid>
														<name>Anchor Point</name>
														<value>
															<horiz>0</horiz>
															<vert>0</vert>
														</value>
													</parameter>
													<parameter authoringApp="PremierePro">
														<parameterid>antiflicker</parameterid>
														<name>Anti-flicker Filter</name>
														<valuemin>0.0</valuemin>
														<valuemax>1.0</valuemax>
														<value>0</value>
													</parameter>
												</effect>
											</filter>
											<logginginfo>
												<description></description>
												<scene></scene>
												<shottake></shottake>
												<lognote></lognote>
												<good></good>
												<originalvideofilename></originalvideofilename>
												<originalaudiofilename></originalaudiofilename>
											</logginginfo>
											<colorinfo>
												<lut></lut>
												<lut1></lut1>
												<asc_sop></asc_sop>
												<asc_sat></asc_sat>
												<lut2></lut2>
											</colorinfo>
											<labels>
												<label2>Lavender</label2>
											</labels>
										</clipitem>
										<transitionitem>
											<start>1095</start>
											<end>1120</end>
											<alignment>end-black</alignment>
											<cutPointTicks>254016000000</cutPointTicks>
											<rate>
												<timebase>25</timebase>
												<ntsc>FALSE</ntsc>
											</rate>
											<effect>
												<name>Edge Wipe</name>
												<effectid>Edge Wipe</effectid>
												<effectcategory>Wipe</effectcategory>
												<effecttype>transition</effecttype>
												<mediatype>video</mediatype>
												<wipecode>2</wipecode>
												<wipeaccuracy>100</wipeaccuracy>
												<startratio>0</startratio>
												<endratio>1</endratio>
												<reverse>FALSE</reverse>
												<parameter authoringApp="PremierePro">
													<parameterid>directionofwipe</parameterid>
													<name>Angle</name>
													<valuemin>-360</valuemin>
													<valuemax>360</valuemax>
													<value>90</value>
												</parameter>
											</effect>
										</transitionitem>
										<enabled>TRUE</enabled>
										<locked>FALSE</locked>
									</track>
									<track TL.SQTrackShy="0" TL.SQTrackExpandedHeight="25" TL.SQTrackExpanded="0" MZ.TrackTargeted="0">
										<transitionitem>
											<start>755</start>
											<end>780</end>
											<alignment>start-black</alignment>
											<cutPointTicks>0</cutPointTicks>
											<rate>
												<timebase>25</timebase>
												<ntsc>FALSE</ntsc>
											</rate>
											<effect>
												<name>Edge Wipe</name>
												<effectid>Edge Wipe</effectid>
												<effectcategory>Wipe</effectcategory>
												<effecttype>transition</effecttype>
												<mediatype>video</mediatype>
												<wipecode>2</wipecode>
												<wipeaccuracy>100</wipeaccuracy>
												<startratio>0</startratio>
												<endratio>1</endratio>
												<reverse>FALSE</reverse>
												<parameter authoringApp="PremierePro">
													<parameterid>directionofwipe</parameterid>
													<name>Angle</name>
													<valuemin>-360</valuemin>
													<valuemax>360</valuemax>
													<value>270</value>
												</parameter>
											</effect>
										</transitionitem>
										<clipitem id="clipitem-1868">
											<masterclipid>masterclip-824</masterclipid>
											<name>Graphic</name>
											<enabled>FALSE</enabled>
											<duration>1080000</duration>
											<rate>
												<timebase>25</timebase>
												<ntsc>FALSE</ntsc>
											</rate>
											<start>-1</start>
											<end>-1</end>
											<in>89905</in>
											<out>90272</out>
											<pproTicksIn>913492339200000</pproTicksIn>
											<pproTicksOut>917221294080000</pproTicksOut>
											<alphatype>straight</alphatype>
											<pixelaspectratio>PAL-601</pixelaspectratio>
											<anamorphic>TRUE</anamorphic>
											<file id="file-683">
												<name>Graphic</name>
												<mediaSource>GraphicAndType</mediaSource>
												<rate>
													<timebase>30</timebase>
													<ntsc>TRUE</ntsc>
												</rate>
												<timecode>
													<rate>
														<timebase>30</timebase>
														<ntsc>TRUE</ntsc>
													</rate>
													<string>00;00;00;00</string>
													<frame>0</frame>
													<displayformat>DF</displayformat>
												</timecode>
												<media>
													<video>
														<samplecharacteristics>
															<rate>
																<timebase>30</timebase>
																<ntsc>TRUE</ntsc>
															</rate>
															<width>720</width>
															<height>576</height>
															<anamorphic>TRUE</anamorphic>
															<pixelaspectratio>PAL-601</pixelaspectratio>
															<fielddominance>none</fielddominance>
														</samplecharacteristics>
													</video>
												</media>
											</file>
											<filter>
												<effect>
													<name>Vector Motion</name>
													<effectid>GraphicGroup</effectid>
													<effectcategory>graphic</effectcategory>
													<effecttype>filter</effecttype>
													<mediatype>video</mediatype>
													<pproBypass>false</pproBypass>
													<parameter authoringApp="PremierePro">
														<parameterid>1</parameterid>
														<name>Position</name>
														<IsTimeVarying>false</IsTimeVarying>
														<value>-91445760000000000,0.81693898908787344:0.49085601568222115,0,0,0,0,0,0,5,4,0,0,0,0</value>
													</parameter>
													<parameter authoringApp="PremierePro">
														<parameterid>2</parameterid>
														<name>Scale</name>
														<IsTimeVarying>false</IsTimeVarying>
														<ParameterControlType>2</ParameterControlType>
														<LowerBound>0</LowerBound>
														<UpperBound>10000</UpperBound>
														<UpperUIBound>200</UpperUIBound>
														<value>-91445760000000000,100.,0,0,0,0,0,0</value>
													</parameter>
													<parameter authoringApp="PremierePro">
														<parameterid>3</parameterid>
														<name>Scale Width</name>
														<IsTimeVarying>false</IsTimeVarying>
														<ParameterControlType>2</ParameterControlType>
														<LowerBound>0</LowerBound>
														<UpperBound>10000</UpperBound>
														<UpperUIBound>200</UpperUIBound>
														<value>-91445760000000000,100.,0,0,0,0,0,0</value>
													</parameter>
													<parameter authoringApp="PremierePro">
														<parameterid>4</parameterid>
														<name> </name>
														<IsTimeVarying>false</IsTimeVarying>
														<ParameterControlType>4</ParameterControlType>
														<LowerBound>false</LowerBound>
														<UpperBound>true</UpperBound>
														<value>-91445760000000000,true,0,0,0,0,0,0</value>
													</parameter>
													<parameter authoringApp="PremierePro">
														<parameterid>5</parameterid>
														<name>Rotation</name>
														<IsTimeVarying>false</IsTimeVarying>
														<ParameterControlType>3</ParameterControlType>
														<LowerBound>-32768</LowerBound>
														<UpperBound>32767</UpperBound>
														<value>-91445760000000000,0.,0,0,0,0,0,0</value>
													</parameter>
													<parameter authoringApp="PremierePro">
														<parameterid>6</parameterid>
														<name>Anchor Point</name>
														<IsTimeVarying>false</IsTimeVarying>
														<value>-91445760000000000,0.5:0.5,0,0,0,0,0,0,5,4,0,0,0,0</value>
													</parameter>
												</effect>
											</filter>
											<filter>
												<effect>
													<name>Данил Прытков признаётся, &#13;что сильные провалы &#13;мотивируют его на творчество &#13;не меньше, чем победы. </name>
													<effectid>GraphicAndType</effectid>
													<effectcategory>graphic</effectcategory>
													<effecttype>filter</effecttype>
													<mediatype>video</mediatype>
													<pproBypass>false</pproBypass>
													<pproExpanded>true</pproExpanded>
													<parameter authoringApp="PremierePro">
														<parameterid>1</parameterid>
														<name>Source Text</name>
														<hash>698123b5-7d57-7b79-efb1-b0df00000a31</hash>
													</parameter>
													<parameter authoringApp="PremierePro">
														<parameterid>2</parameterid>
														<name>Transform</name>
														<IsTimeVarying>false</IsTimeVarying>
														<ParameterControlType>11</ParameterControlType>
														<LowerBound>false</LowerBound>
														<UpperBound>false</UpperBound>
														<value>-91445760000000000,false,0,0,0,0,0,0</value>
													</parameter>
													<parameter authoringApp="PremierePro">
														<parameterid>3</parameterid>
														<name>Position</name>
														<IsTimeVarying>false</IsTimeVarying>
														<value>-91445760000000000,0.270416259765625:0.640594482421875,0,0,0,0,0,0,5,4,0,0,0,0</value>
													</parameter>
													<parameter authoringApp="PremierePro">
														<parameterid>4</parameterid>
														<name>Scale</name>
														<IsTimeVarying>false</IsTimeVarying>
														<ParameterControlType>2</ParameterControlType>
														<LowerBound>0</LowerBound>
														<UpperBound>4000</UpperBound>
														<value>-91445760000000000,100.,0,0,0,0,0,0</value>
													</parameter>
													<parameter authoringApp="PremierePro">
														<parameterid>5</parameterid>
														<name>Horizontal Scale</name>
														<IsTimeVarying>false</IsTimeVarying>
														<ParameterControlType>2</ParameterControlType>
														<LowerBound>0</LowerBound>
														<UpperBound>4000</UpperBound>
														<value>-91445760000000000,100.,0,0,0,0,0,0</value>
													</parameter>
													<parameter authoringApp="PremierePro">
														<parameterid>6</parameterid>
														<name> </name>
														<IsTimeVarying>false</IsTimeVarying>
														<ParameterControlType>4</ParameterControlType>
														<LowerBound>false</LowerBound>
														<UpperBound>true</UpperBound>
														<value>-91445760000000000,true,0,0,0,0,0,0</value>
													</parameter>
													<parameter authoringApp="PremierePro">
														<parameterid>7</parameterid>
														<name>Rotation</name>
														<IsTimeVarying>false</IsTimeVarying>
														<ParameterControlType>3</ParameterControlType>
														<LowerBound>-32768</LowerBound>
														<UpperBound>32767</UpperBound>
														<value>-91445760000000000,0.,0,0,0,0,0,0</value>
													</parameter>
													<parameter authoringApp="PremierePro">
														<parameterid>8</parameterid>
														<name>Opacity</name>
														<IsTimeVarying>false</IsTimeVarying>
														<ParameterControlType>2</ParameterControlType>
														<LowerBound>0</LowerBound>
														<UpperBound>100</UpperBound>
														<value>-91445760000000000,100.,0,0,0,0,0,0</value>
													</parameter>
													<parameter authoringApp="PremierePro">
														<parameterid>9</parameterid>
														<name>Anchor Point</name>
														<IsTimeVarying>false</IsTimeVarying>
														<value>-91445760000000000,0:0,0,0,0,0,0,0,5,4,0,0,0,0</value>
													</parameter>
													<parameter authoringApp="PremierePro">
														<parameterid>10</parameterid>
														<name></name>
														<IsTimeVarying>false</IsTimeVarying>
														<ParameterControlType>12</ParameterControlType>
														<LowerBound>false</LowerBound>
														<UpperBound>false</UpperBound>
														<value>-91445760000000000,false,0,0,0,0,0,0</value>
													</parameter>
													<parameter authoringApp="PremierePro">
														<parameterid>11</parameterid>
														<name> </name>
														<IsTimeVarying>false</IsTimeVarying>
														<ParameterControlType>8</ParameterControlType>
														<LowerBound>0</LowerBound>
														<UpperBound>32768</UpperBound>
														<value>-91445760000000000,0.,0,0,0,0,0,0</value>
													</parameter>
													<parameter authoringApp="PremierePro">
														<parameterid>12</parameterid>
														<name> </name>
														<IsTimeVarying>false</IsTimeVarying>
														<ParameterControlType>8</ParameterControlType>
														<LowerBound>0</LowerBound>
														<UpperBound>32768</UpperBound>
														<value>-91445760000000000,0.,0,0,0,0,0,0</value>
													</parameter>
													<parameter authoringApp="PremierePro">
														<parameterid>13</parameterid>
														<name>start</name>
														<IsTimeVarying>false</IsTimeVarying>
														<ParameterControlType>8</ParameterControlType>
														<LowerBound>-100</LowerBound>
														<UpperBound>1000000000</UpperBound>
														<value>-91445760000000000,0.,0,0,0,0,0,0</value>
													</parameter>
													<parameter authoringApp="PremierePro">
														<parameterid>14</parameterid>
														<name>end</name>
														<IsTimeVarying>false</IsTimeVarying>
														<ParameterControlType>8</ParameterControlType>
														<LowerBound>-100</LowerBound>
														<UpperBound>1000000000</UpperBound>
														<value>-91445760000000000,101.,0,0,0,0,0,0</value>
													</parameter>
													<parameter authoringApp="PremierePro">
														<parameterid>15</parameterid>
														<name> </name>
														<IsTimeVarying>false</IsTimeVarying>
														<ParameterControlType>4</ParameterControlType>
														<LowerBound>false</LowerBound>
														<UpperBound>true</UpperBound>
														<value>-91445760000000000,false,0,0,0,0,0,0</value>
													</parameter>
													<parameter authoringApp="PremierePro">
														<parameterid>16</parameterid>
														<name> </name>
														<IsTimeVarying>false</IsTimeVarying>
														<ParameterControlType>4</ParameterControlType>
														<LowerBound>false</LowerBound>
														<UpperBound>true</UpperBound>
														<value>-91445760000000000,false,0,0,0,0,0,0</value>
													</parameter>
													<parameter authoringApp="PremierePro">
														<parameterid>17</parameterid>
														<name> </name>
														<IsTimeVarying>false</IsTimeVarying>
														<ParameterControlType>4</ParameterControlType>
														<LowerBound>false</LowerBound>
														<UpperBound>true</UpperBound>
														<value>-91445760000000000,false,0,0,0,0,0,0</value>
													</parameter>
													<parameter authoringApp="PremierePro">
														<parameterid>18</parameterid>
														<name> </name>
														<IsTimeVarying>false</IsTimeVarying>
														<ParameterControlType>4</ParameterControlType>
														<LowerBound>false</LowerBound>
														<UpperBound>true</UpperBound>
														<value>-91445760000000000,false,0,0,0,0,0,0</value>
													</parameter>
													<parameter authoringApp="PremierePro">
														<parameterid>19</parameterid>
														<name>Parent Width</name>
														<IsTimeVarying>false</IsTimeVarying>
														<ParameterControlType>2</ParameterControlType>
														<LowerBound>0</LowerBound>
														<UpperBound>20000</UpperBound>
														<value>-91445760000000000,0.,0,0,0,0,0,0</value>
													</parameter>
													<parameter authoringApp="PremierePro">
														<parameterid>20</parameterid>
														<name>Parent Height</name>
														<IsTimeVarying>false</IsTimeVarying>
														<ParameterControlType>2</ParameterControlType>
														<LowerBound>0</LowerBound>
														<UpperBound>20000</UpperBound>
														<value>-91445760000000000,0.,0,0,0,0,0,0</value>
													</parameter>
													<parameter authoringApp="PremierePro">
														<parameterid>21</parameterid>
														<name>Parent Rotation</name>
														<IsTimeVarying>false</IsTimeVarying>
														<ParameterControlType>3</ParameterControlType>
														<LowerBound>-32768</LowerBound>
														<UpperBound>32767</UpperBound>
														<value>-91445760000000000,0.,0,0,0,0,0,0</value>
													</parameter>
												</effect>
											</filter>
											<logginginfo>
												<description></description>
												<scene></scene>
												<shottake></shottake>
												<lognote></lognote>
												<good></good>
												<originalvideofilename></originalvideofilename>
												<originalaudiofilename></originalaudiofilename>
											</logginginfo>
											<colorinfo>
												<lut></lut>
												<lut1></lut1>
												<asc_sop></asc_sop>
												<asc_sat></asc_sat>
												<lut2></lut2>
											</colorinfo>
										</clipitem>
										<transitionitem>
											<start>1097</start>
											<end>1122</end>
											<alignment>end-black</alignment>
											<cutPointTicks>254016000000</cutPointTicks>
											<rate>
												<timebase>25</timebase>
												<ntsc>FALSE</ntsc>
											</rate>
											<effect>
												<name>Edge Wipe</name>
												<effectid>Edge Wipe</effectid>
												<effectcategory>Wipe</effectcategory>
												<effecttype>transition</effecttype>
												<mediatype>video</mediatype>
												<wipecode>2</wipecode>
												<wipeaccuracy>100</wipeaccuracy>
												<startratio>0</startratio>
												<endratio>1</endratio>
												<reverse>FALSE</reverse>
												<parameter authoringApp="PremierePro">
													<parameterid>directionofwipe</parameterid>
													<name>Angle</name>
													<valuemin>-360</valuemin>
													<valuemax>360</valuemax>
													<value>90</value>
												</parameter>
											</effect>
										</transitionitem>
										<enabled>TRUE</enabled>
										<locked>FALSE</locked>
									</track>
								</video>
								<audio>
									<numOutputChannels>2</numOutputChannels>
									<format>
										<samplecharacteristics>
											<depth>16</depth>
											<samplerate>48000</samplerate>
										</samplecharacteristics>
									</format>
									<outputs>
										<group>
											<index>1</index>
											<numchannels>1</numchannels>
											<downmix>0</downmix>
											<channel>
												<index>1</index>
											</channel>
										</group>
										<group>
											<index>2</index>
											<numchannels>1</numchannels>
											<downmix>0</downmix>
											<channel>
												<index>2</index>
											</channel>
										</group>
									</outputs>
									<track TL.SQTrackAudioKeyframeStyle="0" TL.SQTrackShy="0" TL.SQTrackExpandedHeight="25" TL.SQTrackExpanded="0" MZ.TrackTargeted="1" PannerCurrentValue="0.5" PannerStartKeyframe="-91445760000000000,0.5,0,0,0,0,0,0" PannerName="Balance" currentExplodedTrackIndex="0" totalExplodedTrackCount="2" premiereTrackType="Stereo">
										<enabled>TRUE</enabled>
										<locked>FALSE</locked>
										<outputchannelindex>1</outputchannelindex>
									</track>
									<track TL.SQTrackAudioKeyframeStyle="0" TL.SQTrackShy="0" TL.SQTrackExpandedHeight="25" TL.SQTrackExpanded="0" MZ.TrackTargeted="1" PannerCurrentValue="0.5" PannerStartKeyframe="-91445760000000000,0.5,0,0,0,0,0,0" PannerName="Balance" currentExplodedTrackIndex="1" totalExplodedTrackCount="2" premiereTrackType="Stereo">
										<enabled>TRUE</enabled>
										<locked>FALSE</locked>
										<outputchannelindex>2</outputchannelindex>
									</track>
								</audio>
							</media>
							<timecode>
								<rate>
									<timebase>25</timebase>
									<ntsc>FALSE</ntsc>
								</rate>
								<string>00:00:00:00</string>
								<frame>0</frame>
								<displayformat>NDF</displayformat>
							</timecode>
								<marker>
									<comment></comment>
									<name></name>
									<in>425</in>
									<out>-1</out>
									<pproColor>4292277273</pproColor>
								</marker>
								<marker>
									<comment></comment>
									<name></name>
									<in>800</in>
									<out>-1</out>
									<pproColor>4292277273</pproColor>
								</marker>
								<marker>
									<comment></comment>
									<name></name>
									<in>50</in>
									<out>-1</out>
									<pproColor>4292277273</pproColor>
								</marker>
							<logginginfo>
								<description></description>
								<scene></scene>
								<shottake></shottake>
								<lognote></lognote>
								<good></good>
								<originalvideofilename></originalvideofilename>
								<originalaudiofilename></originalaudiofilename>
							</logginginfo>
						</sequence>
							<marker>
								<comment></comment>
								<name></name>
								<in>425</in>
								<out>-1</out>
								<pproColor>4292277273</pproColor>
							</marker>
							<marker>
								<comment></comment>
								<name></name>
								<in>800</in>
								<out>-1</out>
								<pproColor>4292277273</pproColor>
							</marker>
							<marker>
								<comment></comment>
								<name></name>
								<in>50</in>
								<out>-1</out>
								<pproColor>4292277273</pproColor>
							</marker>
						<labels>
							<label2>Forest</label2>
						</labels>
					</clipitem>
					<clipitem id="clipitem-1869">
						<masterclipid>masterclip-819</masterclipid>
						<name>6</name>
						<enabled>FALSE</enabled>
						<duration>1125</duration>
						<rate>
							<timebase>25</timebase>
							<ntsc>FALSE</ntsc>
						</rate>
						<start>37065</start>
						<end>37440</end>
						<in>375</in>
						<out>750</out>
						<pproTicksIn>3810240000000</pproTicksIn>
						<pproTicksOut>7620480000000</pproTicksOut>
						<sequence id="sequence-151"/>
							<marker>
								<comment></comment>
								<name></name>
								<in>425</in>
								<out>-1</out>
								<pproColor>4292277273</pproColor>
							</marker>
							<marker>
								<comment></comment>
								<name></name>
								<in>800</in>
								<out>-1</out>
								<pproColor>4292277273</pproColor>
							</marker>
							<marker>
								<comment></comment>
								<name></name>
								<in>50</in>
								<out>-1</out>
								<pproColor>4292277273</pproColor>
							</marker>
						<labels>
							<label2>Forest</label2>
						</labels>
					</clipitem>
					<clipitem id="clipitem-1870">
						<masterclipid>masterclip-819</masterclipid>
						<name>6</name>
						<enabled>FALSE</enabled>
						<duration>1125</duration>
						<rate>
							<timebase>25</timebase>
							<ntsc>FALSE</ntsc>
						</rate>
						<start>38400</start>
						<end>38775</end>
						<in>750</in>
						<out>1125</out>
						<pproTicksIn>7620480000000</pproTicksIn>
						<pproTicksOut>11430720000000</pproTicksOut>
						<sequence id="sequence-151"/>
							<marker>
								<comment></comment>
								<name></name>
								<in>425</in>
								<out>-1</out>
								<pproColor>4292277273</pproColor>
							</marker>
							<marker>
								<comment></comment>
								<name></name>
								<in>800</in>
								<out>-1</out>
								<pproColor>4292277273</pproColor>
							</marker>
							<marker>
								<comment></comment>
								<name></name>
								<in>50</in>
								<out>-1</out>
								<pproColor>4292277273</pproColor>
							</marker>
						<labels>
							<label2>Forest</label2>
						</labels>
					</clipitem>
					<clipitem id="clipitem-1871">
						<masterclipid>masterclip-825</masterclipid>
						<name>5</name>
						<enabled>FALSE</enabled>
						<duration>1125</duration>
						<rate>
							<timebase>25</timebase>
							<ntsc>FALSE</ntsc>
						</rate>
						<start>40858</start>
						<end>41233</end>
						<in>0</in>
						<out>375</out>
						<pproTicksIn>0</pproTicksIn>
						<pproTicksOut>3810240000000</pproTicksOut>
						<sequence id="sequence-152" TL.SQAudioVisibleBase="0" TL.SQVideoVisibleBase="0" TL.SQVisibleBaseTime="0" TL.SQAVDividerPosition="0.5" TL.SQHideShyTracks="0" TL.SQHeaderWidth="236" Monitor.ProgramZoomOut="11430720000000" Monitor.ProgramZoomIn="0" TL.SQTimePerPixel="0.19620667102680819" AM.TrackVScrollPosition="0" AM.TrackScrollPosition="0" MZ.EditLine="7691604480000" MZ.Sequence.PreviewFrameSizeHeight="576" MZ.Sequence.PreviewFrameSizeWidth="720" MZ.Sequence.AudioTimeDisplayFormat="200" MZ.Sequence.PreviewRenderingClassID="1061109567" MZ.Sequence.PreviewRenderingPresetCodec="1685480304" MZ.Sequence.PreviewRenderingPresetPath="EncoderPresets/SequencePreview/04be6e19-a018-4e0c-a9d6-0ab44c64752b/QuickTime DV PAL.epr" MZ.Sequence.PreviewUseMaxRenderQuality="false" MZ.Sequence.PreviewUseMaxBitDepth="false" MZ.Sequence.EditingModeGUID="04be6e19-a018-4e0c-a9d6-0ab44c64752b" MZ.Sequence.VideoTimeDisplayFormat="101" MZ.WorkOutPoint="11430720000000" MZ.WorkInPoint="0" MZ.ZeroPoint="0">
							<duration>1125</duration>
							<rate>
								<timebase>25</timebase>
								<ntsc>FALSE</ntsc>
							</rate>
							<name>RU_Nested</name>
							<media>
								<video>
									<format>
										<samplecharacteristics>
											<rate>
												<timebase>25</timebase>
												<ntsc>FALSE</ntsc>
											</rate>
											<codec>
												<name>Apple ProRes 422</name>
												<appspecificdata>
													<appname>Final Cut Pro</appname>
													<appmanufacturer>Apple Inc.</appmanufacturer>
													<appversion>7.0</appversion>
													<data>
														<qtcodec>
															<codecname>Apple ProRes 422</codecname>
															<codectypename>Apple ProRes 422</codectypename>
															<codectypecode>apcn</codectypecode>
															<codecvendorcode>appl</codecvendorcode>
															<spatialquality>1024</spatialquality>
															<temporalquality>0</temporalquality>
															<keyframerate>0</keyframerate>
															<datarate>0</datarate>
														</qtcodec>
													</data>
												</appspecificdata>
											</codec>
											<width>720</width>
											<height>576</height>
											<anamorphic>TRUE</anamorphic>
											<pixelaspectratio>PAL-601</pixelaspectratio>
											<fielddominance>lower</fielddominance>
											<colordepth>24</colordepth>
										</samplecharacteristics>
									</format>
									<track TL.SQTrackShy="0" TL.SQTrackExpandedHeight="25" TL.SQTrackExpanded="0" MZ.TrackTargeted="1">
										<clipitem id="clipitem-1872">
											<masterclipid>masterclip-826</masterclipid>
											<name>Plashka_Right_DV.mov</name>
											<enabled>TRUE</enabled>
											<duration>375</duration>
											<rate>
												<timebase>25</timebase>
												<ntsc>FALSE</ntsc>
											</rate>
											<start>0</start>
											<end>375</end>
											<in>0</in>
											<out>375</out>
											<pproTicksIn>0</pproTicksIn>
											<pproTicksOut>3810240000000</pproTicksOut>
											<alphatype>straight</alphatype>
											<pixelaspectratio>PAL-601</pixelaspectratio>
											<anamorphic>TRUE</anamorphic>
											<file id="file-684">
												<name>Plashka_Right_DV.mov</name>
												<pathurl>file://localhost/Volumes/1Tb/_MUZ_TV/graphika/RU-21/MOD/Plashka_Right_DV.mov</pathurl>
												<rate>
													<timebase>25</timebase>
													<ntsc>FALSE</ntsc>
												</rate>
												<duration>375</duration>
												<timecode>
													<rate>
														<timebase>25</timebase>
														<ntsc>FALSE</ntsc>
													</rate>
													<string>00:00:15:10</string>
													<frame>385</frame>
													<displayformat>NDF</displayformat>
												</timecode>
												<media>
													<video>
														<samplecharacteristics>
															<rate>
																<timebase>25</timebase>
																<ntsc>FALSE</ntsc>
															</rate>
															<width>720</width>
															<height>576</height>
															<anamorphic>TRUE</anamorphic>
															<pixelaspectratio>PAL-601</pixelaspectratio>
															<fielddominance>lower</fielddominance>
														</samplecharacteristics>
													</video>
												</media>
											</file>
											<filter>
												<effect>
													<name>Basic Motion</name>
													<effectid>basic</effectid>
													<effectcategory>motion</effectcategory>
													<effecttype>motion</effecttype>
													<mediatype>video</mediatype>
													<pproBypass>false</pproBypass>
													<parameter authoringApp="PremierePro">
														<parameterid>scale</parameterid>
														<name>Scale</name>
														<valuemin>0</valuemin>
														<valuemax>1000</valuemax>
														<value>100</value>
													</parameter>
													<parameter authoringApp="PremierePro">
														<parameterid>rotation</parameterid>
														<name>Rotation</name>
														<valuemin>-8640</valuemin>
														<valuemax>8640</valuemax>
														<value>0</value>
													</parameter>
													<parameter authoringApp="PremierePro">
														<parameterid>center</parameterid>
														<name>Center</name>
														<value>
															<horiz>-5.55112e-17</horiz>
															<vert>-1.11022e-16</vert>
														</value>
													</parameter>
													<parameter authoringApp="PremierePro">
														<parameterid>centerOffset</parameterid>
														<name>Anchor Point</name>
														<value>
															<horiz>0.402314</horiz>
															<vert>0.41875</vert>
														</value>
													</parameter>
													<parameter authoringApp="PremierePro">
														<parameterid>antiflicker</parameterid>
														<name>Anti-flicker Filter</name>
														<valuemin>0.0</valuemin>
														<valuemax>1.0</valuemax>
														<value>0</value>
													</parameter>
												</effect>
											</filter>
											<filter>
												<effect>
													<name>Distort</name>
													<effectid>deformation</effectid>
													<effectcategory>motion</effectcategory>
													<effecttype>motion</effecttype>
													<mediatype>video</mediatype>
													<parameter authoringApp="PremierePro">
														<parameterid>aspect</parameterid>
														<name>Aspect</name>
														<valuemin>-10000</valuemin>
														<valuemax>10000</valuemax>
														<value>11.1111</value>
													</parameter>
												</effect>
											</filter>
											<logginginfo>
												<description></description>
												<scene></scene>
												<shottake></shottake>
												<lognote></lognote>
												<good></good>
												<originalvideofilename></originalvideofilename>
												<originalaudiofilename></originalaudiofilename>
											</logginginfo>
											<colorinfo>
												<lut></lut>
												<lut1></lut1>
												<asc_sop></asc_sop>
												<asc_sat></asc_sat>
												<lut2></lut2>
											</colorinfo>
											<labels>
												<label2>Violet</label2>
											</labels>
										</clipitem>
										<clipitem id="clipitem-1873">
											<masterclipid>masterclip-826</masterclipid>
											<name>Plashka_Right_DV.mov</name>
											<enabled>TRUE</enabled>
											<duration>375</duration>
											<rate>
												<timebase>25</timebase>
												<ntsc>FALSE</ntsc>
											</rate>
											<start>375</start>
											<end>750</end>
											<in>0</in>
											<out>375</out>
											<pproTicksIn>0</pproTicksIn>
											<pproTicksOut>3810240000000</pproTicksOut>
											<alphatype>straight</alphatype>
											<file id="file-684"/>
											<filter>
												<effect>
													<name>Basic Motion</name>
													<effectid>basic</effectid>
													<effectcategory>motion</effectcategory>
													<effecttype>motion</effecttype>
													<mediatype>video</mediatype>
													<pproBypass>false</pproBypass>
													<parameter authoringApp="PremierePro">
														<parameterid>scale</parameterid>
														<name>Scale</name>
														<valuemin>0</valuemin>
														<valuemax>1000</valuemax>
														<value>100</value>
													</parameter>
													<parameter authoringApp="PremierePro">
														<parameterid>rotation</parameterid>
														<name>Rotation</name>
														<valuemin>-8640</valuemin>
														<valuemax>8640</valuemax>
														<value>0</value>
													</parameter>
													<parameter authoringApp="PremierePro">
														<parameterid>center</parameterid>
														<name>Center</name>
														<value>
															<horiz>-5.55112e-17</horiz>
															<vert>-1.11022e-16</vert>
														</value>
													</parameter>
													<parameter authoringApp="PremierePro">
														<parameterid>centerOffset</parameterid>
														<name>Anchor Point</name>
														<value>
															<horiz>0.402314</horiz>
															<vert>0.41875</vert>
														</value>
													</parameter>
													<parameter authoringApp="PremierePro">
														<parameterid>antiflicker</parameterid>
														<name>Anti-flicker Filter</name>
														<valuemin>0.0</valuemin>
														<valuemax>1.0</valuemax>
														<value>0</value>
													</parameter>
												</effect>
											</filter>
											<filter>
												<effect>
													<name>Distort</name>
													<effectid>deformation</effectid>
													<effectcategory>motion</effectcategory>
													<effecttype>motion</effecttype>
													<mediatype>video</mediatype>
													<parameter authoringApp="PremierePro">
														<parameterid>aspect</parameterid>
														<name>Aspect</name>
														<valuemin>-10000</valuemin>
														<valuemax>10000</valuemax>
														<value>11.1111</value>
													</parameter>
												</effect>
											</filter>
											<logginginfo>
												<description></description>
												<scene></scene>
												<shottake></shottake>
												<lognote></lognote>
												<good></good>
												<originalvideofilename></originalvideofilename>
												<originalaudiofilename></originalaudiofilename>
											</logginginfo>
											<colorinfo>
												<lut></lut>
												<lut1></lut1>
												<asc_sop></asc_sop>
												<asc_sat></asc_sat>
												<lut2></lut2>
											</colorinfo>
											<labels>
												<label2>Violet</label2>
											</labels>
										</clipitem>
										<clipitem id="clipitem-1874">
											<masterclipid>masterclip-826</masterclipid>
											<name>Plashka_Right_DV.mov</name>
											<enabled>TRUE</enabled>
											<duration>375</duration>
											<rate>
												<timebase>25</timebase>
												<ntsc>FALSE</ntsc>
											</rate>
											<start>750</start>
											<end>1125</end>
											<in>0</in>
											<out>375</out>
											<pproTicksIn>0</pproTicksIn>
											<pproTicksOut>3810240000000</pproTicksOut>
											<alphatype>straight</alphatype>
											<file id="file-684"/>
											<filter>
												<effect>
													<name>Basic Motion</name>
													<effectid>basic</effectid>
													<effectcategory>motion</effectcategory>
													<effecttype>motion</effecttype>
													<mediatype>video</mediatype>
													<pproBypass>false</pproBypass>
													<parameter authoringApp="PremierePro">
														<parameterid>scale</parameterid>
														<name>Scale</name>
														<valuemin>0</valuemin>
														<valuemax>1000</valuemax>
														<value>100</value>
													</parameter>
													<parameter authoringApp="PremierePro">
														<parameterid>rotation</parameterid>
														<name>Rotation</name>
														<valuemin>-8640</valuemin>
														<valuemax>8640</valuemax>
														<value>0</value>
													</parameter>
													<parameter authoringApp="PremierePro">
														<parameterid>center</parameterid>
														<name>Center</name>
														<value>
															<horiz>-5.55112e-17</horiz>
															<vert>-1.11022e-16</vert>
														</value>
													</parameter>
													<parameter authoringApp="PremierePro">
														<parameterid>centerOffset</parameterid>
														<name>Anchor Point</name>
														<value>
															<horiz>0.402314</horiz>
															<vert>0.41875</vert>
														</value>
													</parameter>
													<parameter authoringApp="PremierePro">
														<parameterid>antiflicker</parameterid>
														<name>Anti-flicker Filter</name>
														<valuemin>0.0</valuemin>
														<valuemax>1.0</valuemax>
														<value>0</value>
													</parameter>
												</effect>
											</filter>
											<filter>
												<effect>
													<name>Distort</name>
													<effectid>deformation</effectid>
													<effectcategory>motion</effectcategory>
													<effecttype>motion</effecttype>
													<mediatype>video</mediatype>
													<parameter authoringApp="PremierePro">
														<parameterid>aspect</parameterid>
														<name>Aspect</name>
														<valuemin>-10000</valuemin>
														<valuemax>10000</valuemax>
														<value>11.1111</value>
													</parameter>
												</effect>
											</filter>
											<logginginfo>
												<description></description>
												<scene></scene>
												<shottake></shottake>
												<lognote></lognote>
												<good></good>
												<originalvideofilename></originalvideofilename>
												<originalaudiofilename></originalaudiofilename>
											</logginginfo>
											<colorinfo>
												<lut></lut>
												<lut1></lut1>
												<asc_sop></asc_sop>
												<asc_sat></asc_sat>
												<lut2></lut2>
											</colorinfo>
											<labels>
												<label2>Violet</label2>
											</labels>
										</clipitem>
										<enabled>TRUE</enabled>
										<locked>FALSE</locked>
									</track>
									<track TL.SQTrackShy="0" TL.SQTrackExpandedHeight="25" TL.SQTrackExpanded="0" MZ.TrackTargeted="0">
										<transitionitem>
											<start>6</start>
											<end>35</end>
											<alignment>start-black</alignment>
											<cutPointTicks>0</cutPointTicks>
											<rate>
												<timebase>25</timebase>
												<ntsc>FALSE</ntsc>
											</rate>
											<effect>
												<name>Edge Wipe</name>
												<effectid>Edge Wipe</effectid>
												<effectcategory>Wipe</effectcategory>
												<effecttype>transition</effecttype>
												<mediatype>video</mediatype>
												<wipecode>2</wipecode>
												<wipeaccuracy>100</wipeaccuracy>
												<startratio>0</startratio>
												<endratio>1</endratio>
												<reverse>FALSE</reverse>
												<parameter authoringApp="PremierePro">
													<parameterid>directionofwipe</parameterid>
													<name>Angle</name>
													<valuemin>-360</valuemin>
													<valuemax>360</valuemax>
													<value>270</value>
												</parameter>
											</effect>
										</transitionitem>
										<clipitem id="clipitem-1875">
											<masterclipid>masterclip-827</masterclipid>
											<name>5_1.png</name>
											<enabled>TRUE</enabled>
											<duration>1080000</duration>
											<rate>
												<timebase>25</timebase>
												<ntsc>FALSE</ntsc>
											</rate>
											<start>-1</start>
											<end>-1</end>
											<in>90006</in>
											<out>90369</out>
											<pproTicksIn>914518563840000</pproTicksIn>
											<pproTicksOut>918206876160000</pproTicksOut>
											<alphatype>straight</alphatype>
											<pixelaspectratio>square</pixelaspectratio>
											<anamorphic>FALSE</anamorphic>
											<file id="file-685">
												<name>5_1.png</name>
												<pathurl>file://localhost/_MUZ_TV/project_AP/RU/_TITLE/468/PNG/5_1.png</pathurl>
												<rate>
													<timebase>30</timebase>
													<ntsc>TRUE</ntsc>
												</rate>
												<timecode>
													<rate>
														<timebase>30</timebase>
														<ntsc>TRUE</ntsc>
													</rate>
													<string>00;00;00;00</string>
													<frame>0</frame>
													<displayformat>DF</displayformat>
												</timecode>
												<media>
													<video>
														<samplecharacteristics>
															<rate>
																<timebase>30</timebase>
																<ntsc>TRUE</ntsc>
															</rate>
															<width>1920</width>
															<height>1080</height>
															<anamorphic>FALSE</anamorphic>
															<pixelaspectratio>square</pixelaspectratio>
															<fielddominance>none</fielddominance>
														</samplecharacteristics>
													</video>
												</media>
											</file>
											<filter>
												<effect>
													<name>Basic Motion</name>
													<effectid>basic</effectid>
													<effectcategory>motion</effectcategory>
													<effecttype>motion</effecttype>
													<mediatype>video</mediatype>
													<pproBypass>false</pproBypass>
													<parameter authoringApp="PremierePro">
														<parameterid>scale</parameterid>
														<name>Scale</name>
														<valuemin>0</valuemin>
														<valuemax>1000</valuemax>
														<value>53.3333</value>
													</parameter>
													<parameter authoringApp="PremierePro">
														<parameterid>rotation</parameterid>
														<name>Rotation</name>
														<valuemin>-8640</valuemin>
														<valuemax>8640</valuemax>
														<value>0</value>
													</parameter>
													<parameter authoringApp="PremierePro">
														<parameterid>center</parameterid>
														<name>Center</name>
														<value>
															<horiz>0</horiz>
															<vert>0</vert>
														</value>
													</parameter>
													<parameter authoringApp="PremierePro">
														<parameterid>centerOffset</parameterid>
														<name>Anchor Point</name>
														<value>
															<horiz>0</horiz>
															<vert>0</vert>
														</value>
													</parameter>
													<parameter authoringApp="PremierePro">
														<parameterid>antiflicker</parameterid>
														<name>Anti-flicker Filter</name>
														<valuemin>0.0</valuemin>
														<valuemax>1.0</valuemax>
														<value>0</value>
													</parameter>
												</effect>
											</filter>
											<logginginfo>
												<description></description>
												<scene></scene>
												<shottake></shottake>
												<lognote></lognote>
												<good></good>
												<originalvideofilename></originalvideofilename>
												<originalaudiofilename></originalaudiofilename>
											</logginginfo>
											<colorinfo>
												<lut></lut>
												<lut1></lut1>
												<asc_sop></asc_sop>
												<asc_sat></asc_sat>
												<lut2></lut2>
											</colorinfo>
											<labels>
												<label2>Lavender</label2>
											</labels>
										</clipitem>
										<transitionitem>
											<start>344</start>
											<end>369</end>
											<alignment>end-black</alignment>
											<cutPointTicks>254016000000</cutPointTicks>
											<rate>
												<timebase>25</timebase>
												<ntsc>FALSE</ntsc>
											</rate>
											<effect>
												<name>Edge Wipe</name>
												<effectid>Edge Wipe</effectid>
												<effectcategory>Wipe</effectcategory>
												<effecttype>transition</effecttype>
												<mediatype>video</mediatype>
												<wipecode>2</wipecode>
												<wipeaccuracy>100</wipeaccuracy>
												<startratio>0</startratio>
												<endratio>1</endratio>
												<reverse>FALSE</reverse>
												<parameter authoringApp="PremierePro">
													<parameterid>directionofwipe</parameterid>
													<name>Angle</name>
													<valuemin>-360</valuemin>
													<valuemax>360</valuemax>
													<value>90</value>
												</parameter>
											</effect>
										</transitionitem>
										<transitionitem>
											<start>381</start>
											<end>410</end>
											<alignment>start-black</alignment>
											<cutPointTicks>0</cutPointTicks>
											<rate>
												<timebase>25</timebase>
												<ntsc>FALSE</ntsc>
											</rate>
											<effect>
												<name>Edge Wipe</name>
												<effectid>Edge Wipe</effectid>
												<effectcategory>Wipe</effectcategory>
												<effecttype>transition</effecttype>
												<mediatype>video</mediatype>
												<wipecode>2</wipecode>
												<wipeaccuracy>100</wipeaccuracy>
												<startratio>0</startratio>
												<endratio>1</endratio>
												<reverse>FALSE</reverse>
												<parameter authoringApp="PremierePro">
													<parameterid>directionofwipe</parameterid>
													<name>Angle</name>
													<valuemin>-360</valuemin>
													<valuemax>360</valuemax>
													<value>270</value>
												</parameter>
											</effect>
										</transitionitem>
										<clipitem id="clipitem-1876">
											<masterclipid>masterclip-828</masterclipid>
											<name>5_2.png</name>
											<enabled>TRUE</enabled>
											<duration>1080000</duration>
											<rate>
												<timebase>25</timebase>
												<ntsc>FALSE</ntsc>
											</rate>
											<start>-1</start>
											<end>-1</end>
											<in>90011</in>
											<out>90374</out>
											<pproTicksIn>914569367040000</pproTicksIn>
											<pproTicksOut>918257679360000</pproTicksOut>
											<alphatype>straight</alphatype>
											<pixelaspectratio>square</pixelaspectratio>
											<anamorphic>FALSE</anamorphic>
											<file id="file-686">
												<name>5_2.png</name>
												<pathurl>file://localhost/_MUZ_TV/project_AP/RU/_TITLE/468/PNG/5_2.png</pathurl>
												<rate>
													<timebase>30</timebase>
													<ntsc>TRUE</ntsc>
												</rate>
												<timecode>
													<rate>
														<timebase>30</timebase>
														<ntsc>TRUE</ntsc>
													</rate>
													<string>00;00;00;00</string>
													<frame>0</frame>
													<displayformat>DF</displayformat>
												</timecode>
												<media>
													<video>
														<samplecharacteristics>
															<rate>
																<timebase>30</timebase>
																<ntsc>TRUE</ntsc>
															</rate>
															<width>1920</width>
															<height>1080</height>
															<anamorphic>FALSE</anamorphic>
															<pixelaspectratio>square</pixelaspectratio>
															<fielddominance>none</fielddominance>
														</samplecharacteristics>
													</video>
												</media>
											</file>
											<filter>
												<effect>
													<name>Basic Motion</name>
													<effectid>basic</effectid>
													<effectcategory>motion</effectcategory>
													<effecttype>motion</effecttype>
													<mediatype>video</mediatype>
													<pproBypass>false</pproBypass>
													<parameter authoringApp="PremierePro">
														<parameterid>scale</parameterid>
														<name>Scale</name>
														<valuemin>0</valuemin>
														<valuemax>1000</valuemax>
														<value>53.3333</value>
													</parameter>
													<parameter authoringApp="PremierePro">
														<parameterid>rotation</parameterid>
														<name>Rotation</name>
														<valuemin>-8640</valuemin>
														<valuemax>8640</valuemax>
														<value>0</value>
													</parameter>
													<parameter authoringApp="PremierePro">
														<parameterid>center</parameterid>
														<name>Center</name>
														<value>
															<horiz>0</horiz>
															<vert>0</vert>
														</value>
													</parameter>
													<parameter authoringApp="PremierePro">
														<parameterid>centerOffset</parameterid>
														<name>Anchor Point</name>
														<value>
															<horiz>0</horiz>
															<vert>0</vert>
														</value>
													</parameter>
													<parameter authoringApp="PremierePro">
														<parameterid>antiflicker</parameterid>
														<name>Anti-flicker Filter</name>
														<valuemin>0.0</valuemin>
														<valuemax>1.0</valuemax>
														<value>0</value>
													</parameter>
												</effect>
											</filter>
											<logginginfo>
												<description></description>
												<scene></scene>
												<shottake></shottake>
												<lognote></lognote>
												<good></good>
												<originalvideofilename></originalvideofilename>
												<originalaudiofilename></originalaudiofilename>
											</logginginfo>
											<colorinfo>
												<lut></lut>
												<lut1></lut1>
												<asc_sop></asc_sop>
												<asc_sat></asc_sat>
												<lut2></lut2>
											</colorinfo>
											<labels>
												<label2>Lavender</label2>
											</labels>
										</clipitem>
										<transitionitem>
											<start>719</start>
											<end>744</end>
											<alignment>end-black</alignment>
											<cutPointTicks>254016000000</cutPointTicks>
											<rate>
												<timebase>25</timebase>
												<ntsc>FALSE</ntsc>
											</rate>
											<effect>
												<name>Edge Wipe</name>
												<effectid>Edge Wipe</effectid>
												<effectcategory>Wipe</effectcategory>
												<effecttype>transition</effecttype>
												<mediatype>video</mediatype>
												<wipecode>2</wipecode>
												<wipeaccuracy>100</wipeaccuracy>
												<startratio>0</startratio>
												<endratio>1</endratio>
												<reverse>FALSE</reverse>
												<parameter authoringApp="PremierePro">
													<parameterid>directionofwipe</parameterid>
													<name>Angle</name>
													<valuemin>-360</valuemin>
													<valuemax>360</valuemax>
													<value>90</value>
												</parameter>
											</effect>
										</transitionitem>
										<transitionitem>
											<start>756</start>
											<end>785</end>
											<alignment>start-black</alignment>
											<cutPointTicks>0</cutPointTicks>
											<rate>
												<timebase>25</timebase>
												<ntsc>FALSE</ntsc>
											</rate>
											<effect>
												<name>Edge Wipe</name>
												<effectid>Edge Wipe</effectid>
												<effectcategory>Wipe</effectcategory>
												<effecttype>transition</effecttype>
												<mediatype>video</mediatype>
												<wipecode>2</wipecode>
												<wipeaccuracy>100</wipeaccuracy>
												<startratio>0</startratio>
												<endratio>1</endratio>
												<reverse>FALSE</reverse>
												<parameter authoringApp="PremierePro">
													<parameterid>directionofwipe</parameterid>
													<name>Angle</name>
													<valuemin>-360</valuemin>
													<valuemax>360</valuemax>
													<value>270</value>
												</parameter>
											</effect>
										</transitionitem>
										<clipitem id="clipitem-1877">
											<masterclipid>masterclip-829</masterclipid>
											<name>5_3.png</name>
											<enabled>TRUE</enabled>
											<duration>1080000</duration>
											<rate>
												<timebase>25</timebase>
												<ntsc>FALSE</ntsc>
											</rate>
											<start>-1</start>
											<end>-1</end>
											<in>90011</in>
											<out>90375</out>
											<pproTicksIn>914569367040000</pproTicksIn>
											<pproTicksOut>918267840000000</pproTicksOut>
											<alphatype>straight</alphatype>
											<pixelaspectratio>square</pixelaspectratio>
											<anamorphic>FALSE</anamorphic>
											<file id="file-687">
												<name>5_3.png</name>
												<pathurl>file://localhost/_MUZ_TV/project_AP/RU/_TITLE/468/PNG/5_3.png</pathurl>
												<rate>
													<timebase>30</timebase>
													<ntsc>TRUE</ntsc>
												</rate>
												<timecode>
													<rate>
														<timebase>30</timebase>
														<ntsc>TRUE</ntsc>
													</rate>
													<string>00;00;00;00</string>
													<frame>0</frame>
													<displayformat>DF</displayformat>
												</timecode>
												<media>
													<video>
														<samplecharacteristics>
															<rate>
																<timebase>30</timebase>
																<ntsc>TRUE</ntsc>
															</rate>
															<width>1920</width>
															<height>1080</height>
															<anamorphic>FALSE</anamorphic>
															<pixelaspectratio>square</pixelaspectratio>
															<fielddominance>none</fielddominance>
														</samplecharacteristics>
													</video>
												</media>
											</file>
											<filter>
												<effect>
													<name>Basic Motion</name>
													<effectid>basic</effectid>
													<effectcategory>motion</effectcategory>
													<effecttype>motion</effecttype>
													<mediatype>video</mediatype>
													<pproBypass>false</pproBypass>
													<parameter authoringApp="PremierePro">
														<parameterid>scale</parameterid>
														<name>Scale</name>
														<valuemin>0</valuemin>
														<valuemax>1000</valuemax>
														<value>53.3333</value>
													</parameter>
													<parameter authoringApp="PremierePro">
														<parameterid>rotation</parameterid>
														<name>Rotation</name>
														<valuemin>-8640</valuemin>
														<valuemax>8640</valuemax>
														<value>0</value>
													</parameter>
													<parameter authoringApp="PremierePro">
														<parameterid>center</parameterid>
														<name>Center</name>
														<value>
															<horiz>0</horiz>
															<vert>0</vert>
														</value>
													</parameter>
													<parameter authoringApp="PremierePro">
														<parameterid>centerOffset</parameterid>
														<name>Anchor Point</name>
														<value>
															<horiz>0</horiz>
															<vert>0</vert>
														</value>
													</parameter>
													<parameter authoringApp="PremierePro">
														<parameterid>antiflicker</parameterid>
														<name>Anti-flicker Filter</name>
														<valuemin>0.0</valuemin>
														<valuemax>1.0</valuemax>
														<value>0</value>
													</parameter>
												</effect>
											</filter>
											<logginginfo>
												<description></description>
												<scene></scene>
												<shottake></shottake>
												<lognote></lognote>
												<good></good>
												<originalvideofilename></originalvideofilename>
												<originalaudiofilename></originalaudiofilename>
											</logginginfo>
											<colorinfo>
												<lut></lut>
												<lut1></lut1>
												<asc_sop></asc_sop>
												<asc_sat></asc_sat>
												<lut2></lut2>
											</colorinfo>
											<labels>
												<label2>Lavender</label2>
											</labels>
										</clipitem>
										<transitionitem>
											<start>1095</start>
											<end>1120</end>
											<alignment>end-black</alignment>
											<cutPointTicks>254016000000</cutPointTicks>
											<rate>
												<timebase>25</timebase>
												<ntsc>FALSE</ntsc>
											</rate>
											<effect>
												<name>Edge Wipe</name>
												<effectid>Edge Wipe</effectid>
												<effectcategory>Wipe</effectcategory>
												<effecttype>transition</effecttype>
												<mediatype>video</mediatype>
												<wipecode>2</wipecode>
												<wipeaccuracy>100</wipeaccuracy>
												<startratio>0</startratio>
												<endratio>1</endratio>
												<reverse>FALSE</reverse>
												<parameter authoringApp="PremierePro">
													<parameterid>directionofwipe</parameterid>
													<name>Angle</name>
													<valuemin>-360</valuemin>
													<valuemax>360</valuemax>
													<value>90</value>
												</parameter>
											</effect>
										</transitionitem>
										<enabled>TRUE</enabled>
										<locked>FALSE</locked>
									</track>
									<track TL.SQTrackShy="0" TL.SQTrackExpandedHeight="25" TL.SQTrackExpanded="0" MZ.TrackTargeted="0">
										<transitionitem>
											<start>755</start>
											<end>780</end>
											<alignment>start-black</alignment>
											<cutPointTicks>0</cutPointTicks>
											<rate>
												<timebase>25</timebase>
												<ntsc>FALSE</ntsc>
											</rate>
											<effect>
												<name>Edge Wipe</name>
												<effectid>Edge Wipe</effectid>
												<effectcategory>Wipe</effectcategory>
												<effecttype>transition</effecttype>
												<mediatype>video</mediatype>
												<wipecode>2</wipecode>
												<wipeaccuracy>100</wipeaccuracy>
												<startratio>0</startratio>
												<endratio>1</endratio>
												<reverse>FALSE</reverse>
												<parameter authoringApp="PremierePro">
													<parameterid>directionofwipe</parameterid>
													<name>Angle</name>
													<valuemin>-360</valuemin>
													<valuemax>360</valuemax>
													<value>270</value>
												</parameter>
											</effect>
										</transitionitem>
										<clipitem id="clipitem-1878">
											<masterclipid>masterclip-830</masterclipid>
											<name>Graphic</name>
											<enabled>FALSE</enabled>
											<duration>1080000</duration>
											<rate>
												<timebase>25</timebase>
												<ntsc>FALSE</ntsc>
											</rate>
											<start>-1</start>
											<end>-1</end>
											<in>89905</in>
											<out>90272</out>
											<pproTicksIn>913492339200000</pproTicksIn>
											<pproTicksOut>917221294080000</pproTicksOut>
											<alphatype>straight</alphatype>
											<pixelaspectratio>PAL-601</pixelaspectratio>
											<anamorphic>TRUE</anamorphic>
											<file id="file-688">
												<name>Graphic</name>
												<mediaSource>GraphicAndType</mediaSource>
												<rate>
													<timebase>30</timebase>
													<ntsc>TRUE</ntsc>
												</rate>
												<timecode>
													<rate>
														<timebase>30</timebase>
														<ntsc>TRUE</ntsc>
													</rate>
													<string>00;00;00;00</string>
													<frame>0</frame>
													<displayformat>DF</displayformat>
												</timecode>
												<media>
													<video>
														<samplecharacteristics>
															<rate>
																<timebase>30</timebase>
																<ntsc>TRUE</ntsc>
															</rate>
															<width>720</width>
															<height>576</height>
															<anamorphic>TRUE</anamorphic>
															<pixelaspectratio>PAL-601</pixelaspectratio>
															<fielddominance>none</fielddominance>
														</samplecharacteristics>
													</video>
												</media>
											</file>
											<filter>
												<effect>
													<name>Vector Motion</name>
													<effectid>GraphicGroup</effectid>
													<effectcategory>graphic</effectcategory>
													<effecttype>filter</effecttype>
													<mediatype>video</mediatype>
													<pproBypass>false</pproBypass>
													<parameter authoringApp="PremierePro">
														<parameterid>1</parameterid>
														<name>Position</name>
														<IsTimeVarying>false</IsTimeVarying>
														<value>-91445760000000000,0.81693898908787344:0.49085601568222115,0,0,0,0,0,0,5,4,0,0,0,0</value>
													</parameter>
													<parameter authoringApp="PremierePro">
														<parameterid>2</parameterid>
														<name>Scale</name>
														<IsTimeVarying>false</IsTimeVarying>
														<ParameterControlType>2</ParameterControlType>
														<LowerBound>0</LowerBound>
														<UpperBound>10000</UpperBound>
														<UpperUIBound>200</UpperUIBound>
														<value>-91445760000000000,100.,0,0,0,0,0,0</value>
													</parameter>
													<parameter authoringApp="PremierePro">
														<parameterid>3</parameterid>
														<name>Scale Width</name>
														<IsTimeVarying>false</IsTimeVarying>
														<ParameterControlType>2</ParameterControlType>
														<LowerBound>0</LowerBound>
														<UpperBound>10000</UpperBound>
														<UpperUIBound>200</UpperUIBound>
														<value>-91445760000000000,100.,0,0,0,0,0,0</value>
													</parameter>
													<parameter authoringApp="PremierePro">
														<parameterid>4</parameterid>
														<name> </name>
														<IsTimeVarying>false</IsTimeVarying>
														<ParameterControlType>4</ParameterControlType>
														<LowerBound>false</LowerBound>
														<UpperBound>true</UpperBound>
														<value>-91445760000000000,true,0,0,0,0,0,0</value>
													</parameter>
													<parameter authoringApp="PremierePro">
														<parameterid>5</parameterid>
														<name>Rotation</name>
														<IsTimeVarying>false</IsTimeVarying>
														<ParameterControlType>3</ParameterControlType>
														<LowerBound>-32768</LowerBound>
														<UpperBound>32767</UpperBound>
														<value>-91445760000000000,0.,0,0,0,0,0,0</value>
													</parameter>
													<parameter authoringApp="PremierePro">
														<parameterid>6</parameterid>
														<name>Anchor Point</name>
														<IsTimeVarying>false</IsTimeVarying>
														<value>-91445760000000000,0.5:0.5,0,0,0,0,0,0,5,4,0,0,0,0</value>
													</parameter>
												</effect>
											</filter>
											<filter>
												<effect>
													<name>Данил Прытков признаётся, &#13;что сильные провалы &#13;мотивируют его на творчество &#13;не меньше, чем победы. </name>
													<effectid>GraphicAndType</effectid>
													<effectcategory>graphic</effectcategory>
													<effecttype>filter</effecttype>
													<mediatype>video</mediatype>
													<pproBypass>false</pproBypass>
													<pproExpanded>true</pproExpanded>
													<parameter authoringApp="PremierePro">
														<parameterid>1</parameterid>
														<name>Source Text</name>
														<hash>698123b5-7d57-7b79-efb1-b0df00000a31</hash>
													</parameter>
													<parameter authoringApp="PremierePro">
														<parameterid>2</parameterid>
														<name>Transform</name>
														<IsTimeVarying>false</IsTimeVarying>
														<ParameterControlType>11</ParameterControlType>
														<LowerBound>false</LowerBound>
														<UpperBound>false</UpperBound>
														<value>-91445760000000000,false,0,0,0,0,0,0</value>
													</parameter>
													<parameter authoringApp="PremierePro">
														<parameterid>3</parameterid>
														<name>Position</name>
														<IsTimeVarying>false</IsTimeVarying>
														<value>-91445760000000000,0.270416259765625:0.640594482421875,0,0,0,0,0,0,5,4,0,0,0,0</value>
													</parameter>
													<parameter authoringApp="PremierePro">
														<parameterid>4</parameterid>
														<name>Scale</name>
														<IsTimeVarying>false</IsTimeVarying>
														<ParameterControlType>2</ParameterControlType>
														<LowerBound>0</LowerBound>
														<UpperBound>4000</UpperBound>
														<value>-91445760000000000,100.,0,0,0,0,0,0</value>
													</parameter>
													<parameter authoringApp="PremierePro">
														<parameterid>5</parameterid>
														<name>Horizontal Scale</name>
														<IsTimeVarying>false</IsTimeVarying>
														<ParameterControlType>2</ParameterControlType>
														<LowerBound>0</LowerBound>
														<UpperBound>4000</UpperBound>
														<value>-91445760000000000,100.,0,0,0,0,0,0</value>
													</parameter>
													<parameter authoringApp="PremierePro">
														<parameterid>6</parameterid>
														<name> </name>
														<IsTimeVarying>false</IsTimeVarying>
														<ParameterControlType>4</ParameterControlType>
														<LowerBound>false</LowerBound>
														<UpperBound>true</UpperBound>
														<value>-91445760000000000,true,0,0,0,0,0,0</value>
													</parameter>
													<parameter authoringApp="PremierePro">
														<parameterid>7</parameterid>
														<name>Rotation</name>
														<IsTimeVarying>false</IsTimeVarying>
														<ParameterControlType>3</ParameterControlType>
														<LowerBound>-32768</LowerBound>
														<UpperBound>32767</UpperBound>
														<value>-91445760000000000,0.,0,0,0,0,0,0</value>
													</parameter>
													<parameter authoringApp="PremierePro">
														<parameterid>8</parameterid>
														<name>Opacity</name>
														<IsTimeVarying>false</IsTimeVarying>
														<ParameterControlType>2</ParameterControlType>
														<LowerBound>0</LowerBound>
														<UpperBound>100</UpperBound>
														<value>-91445760000000000,100.,0,0,0,0,0,0</value>
													</parameter>
													<parameter authoringApp="PremierePro">
														<parameterid>9</parameterid>
														<name>Anchor Point</name>
														<IsTimeVarying>false</IsTimeVarying>
														<value>-91445760000000000,0:0,0,0,0,0,0,0,5,4,0,0,0,0</value>
													</parameter>
													<parameter authoringApp="PremierePro">
														<parameterid>10</parameterid>
														<name></name>
														<IsTimeVarying>false</IsTimeVarying>
														<ParameterControlType>12</ParameterControlType>
														<LowerBound>false</LowerBound>
														<UpperBound>false</UpperBound>
														<value>-91445760000000000,false,0,0,0,0,0,0</value>
													</parameter>
													<parameter authoringApp="PremierePro">
														<parameterid>11</parameterid>
														<name> </name>
														<IsTimeVarying>false</IsTimeVarying>
														<ParameterControlType>8</ParameterControlType>
														<LowerBound>0</LowerBound>
														<UpperBound>32768</UpperBound>
														<value>-91445760000000000,0.,0,0,0,0,0,0</value>
													</parameter>
													<parameter authoringApp="PremierePro">
														<parameterid>12</parameterid>
														<name> </name>
														<IsTimeVarying>false</IsTimeVarying>
														<ParameterControlType>8</ParameterControlType>
														<LowerBound>0</LowerBound>
														<UpperBound>32768</UpperBound>
														<value>-91445760000000000,0.,0,0,0,0,0,0</value>
													</parameter>
													<parameter authoringApp="PremierePro">
														<parameterid>13</parameterid>
														<name>start</name>
														<IsTimeVarying>false</IsTimeVarying>
														<ParameterControlType>8</ParameterControlType>
														<LowerBound>-100</LowerBound>
														<UpperBound>1000000000</UpperBound>
														<value>-91445760000000000,0.,0,0,0,0,0,0</value>
													</parameter>
													<parameter authoringApp="PremierePro">
														<parameterid>14</parameterid>
														<name>end</name>
														<IsTimeVarying>false</IsTimeVarying>
														<ParameterControlType>8</ParameterControlType>
														<LowerBound>-100</LowerBound>
														<UpperBound>1000000000</UpperBound>
														<value>-91445760000000000,101.,0,0,0,0,0,0</value>
													</parameter>
													<parameter authoringApp="PremierePro">
														<parameterid>15</parameterid>
														<name> </name>
														<IsTimeVarying>false</IsTimeVarying>
														<ParameterControlType>4</ParameterControlType>
														<LowerBound>false</LowerBound>
														<UpperBound>true</UpperBound>
														<value>-91445760000000000,false,0,0,0,0,0,0</value>
													</parameter>
													<parameter authoringApp="PremierePro">
														<parameterid>16</parameterid>
														<name> </name>
														<IsTimeVarying>false</IsTimeVarying>
														<ParameterControlType>4</ParameterControlType>
														<LowerBound>false</LowerBound>
														<UpperBound>true</UpperBound>
														<value>-91445760000000000,false,0,0,0,0,0,0</value>
													</parameter>
													<parameter authoringApp="PremierePro">
														<parameterid>17</parameterid>
														<name> </name>
														<IsTimeVarying>false</IsTimeVarying>
														<ParameterControlType>4</ParameterControlType>
														<LowerBound>false</LowerBound>
														<UpperBound>true</UpperBound>
														<value>-91445760000000000,false,0,0,0,0,0,0</value>
													</parameter>
													<parameter authoringApp="PremierePro">
														<parameterid>18</parameterid>
														<name> </name>
														<IsTimeVarying>false</IsTimeVarying>
														<ParameterControlType>4</ParameterControlType>
														<LowerBound>false</LowerBound>
														<UpperBound>true</UpperBound>
														<value>-91445760000000000,false,0,0,0,0,0,0</value>
													</parameter>
													<parameter authoringApp="PremierePro">
														<parameterid>19</parameterid>
														<name>Parent Width</name>
														<IsTimeVarying>false</IsTimeVarying>
														<ParameterControlType>2</ParameterControlType>
														<LowerBound>0</LowerBound>
														<UpperBound>20000</UpperBound>
														<value>-91445760000000000,0.,0,0,0,0,0,0</value>
													</parameter>
													<parameter authoringApp="PremierePro">
														<parameterid>20</parameterid>
														<name>Parent Height</name>
														<IsTimeVarying>false</IsTimeVarying>
														<ParameterControlType>2</ParameterControlType>
														<LowerBound>0</LowerBound>
														<UpperBound>20000</UpperBound>
														<value>-91445760000000000,0.,0,0,0,0,0,0</value>
													</parameter>
													<parameter authoringApp="PremierePro">
														<parameterid>21</parameterid>
														<name>Parent Rotation</name>
														<IsTimeVarying>false</IsTimeVarying>
														<ParameterControlType>3</ParameterControlType>
														<LowerBound>-32768</LowerBound>
														<UpperBound>32767</UpperBound>
														<value>-91445760000000000,0.,0,0,0,0,0,0</value>
													</parameter>
												</effect>
											</filter>
											<logginginfo>
												<description></description>
												<scene></scene>
												<shottake></shottake>
												<lognote></lognote>
												<good></good>
												<originalvideofilename></originalvideofilename>
												<originalaudiofilename></originalaudiofilename>
											</logginginfo>
											<colorinfo>
												<lut></lut>
												<lut1></lut1>
												<asc_sop></asc_sop>
												<asc_sat></asc_sat>
												<lut2></lut2>
											</colorinfo>
										</clipitem>
										<transitionitem>
											<start>1097</start>
											<end>1122</end>
											<alignment>end-black</alignment>
											<cutPointTicks>254016000000</cutPointTicks>
											<rate>
												<timebase>25</timebase>
												<ntsc>FALSE</ntsc>
											</rate>
											<effect>
												<name>Edge Wipe</name>
												<effectid>Edge Wipe</effectid>
												<effectcategory>Wipe</effectcategory>
												<effecttype>transition</effecttype>
												<mediatype>video</mediatype>
												<wipecode>2</wipecode>
												<wipeaccuracy>100</wipeaccuracy>
												<startratio>0</startratio>
												<endratio>1</endratio>
												<reverse>FALSE</reverse>
												<parameter authoringApp="PremierePro">
													<parameterid>directionofwipe</parameterid>
													<name>Angle</name>
													<valuemin>-360</valuemin>
													<valuemax>360</valuemax>
													<value>90</value>
												</parameter>
											</effect>
										</transitionitem>
										<enabled>TRUE</enabled>
										<locked>FALSE</locked>
									</track>
								</video>
								<audio>
									<numOutputChannels>2</numOutputChannels>
									<format>
										<samplecharacteristics>
											<depth>16</depth>
											<samplerate>48000</samplerate>
										</samplecharacteristics>
									</format>
									<outputs>
										<group>
											<index>1</index>
											<numchannels>1</numchannels>
											<downmix>0</downmix>
											<channel>
												<index>1</index>
											</channel>
										</group>
										<group>
											<index>2</index>
											<numchannels>1</numchannels>
											<downmix>0</downmix>
											<channel>
												<index>2</index>
											</channel>
										</group>
									</outputs>
									<track TL.SQTrackAudioKeyframeStyle="0" TL.SQTrackShy="0" TL.SQTrackExpandedHeight="25" TL.SQTrackExpanded="0" MZ.TrackTargeted="1" PannerCurrentValue="0.5" PannerStartKeyframe="-91445760000000000,0.5,0,0,0,0,0,0" PannerName="Balance" currentExplodedTrackIndex="0" totalExplodedTrackCount="2" premiereTrackType="Stereo">
										<enabled>TRUE</enabled>
										<locked>FALSE</locked>
										<outputchannelindex>1</outputchannelindex>
									</track>
									<track TL.SQTrackAudioKeyframeStyle="0" TL.SQTrackShy="0" TL.SQTrackExpandedHeight="25" TL.SQTrackExpanded="0" MZ.TrackTargeted="1" PannerCurrentValue="0.5" PannerStartKeyframe="-91445760000000000,0.5,0,0,0,0,0,0" PannerName="Balance" currentExplodedTrackIndex="1" totalExplodedTrackCount="2" premiereTrackType="Stereo">
										<enabled>TRUE</enabled>
										<locked>FALSE</locked>
										<outputchannelindex>2</outputchannelindex>
									</track>
								</audio>
							</media>
							<timecode>
								<rate>
									<timebase>25</timebase>
									<ntsc>FALSE</ntsc>
								</rate>
								<string>00:00:00:00</string>
								<frame>0</frame>
								<displayformat>NDF</displayformat>
							</timecode>
								<marker>
									<comment></comment>
									<name></name>
									<in>425</in>
									<out>-1</out>
									<pproColor>4292277273</pproColor>
								</marker>
								<marker>
									<comment></comment>
									<name></name>
									<in>50</in>
									<out>-1</out>
									<pproColor>4292277273</pproColor>
								</marker>
								<marker>
									<comment></comment>
									<name></name>
									<in>800</in>
									<out>-1</out>
									<pproColor>4292277273</pproColor>
								</marker>
							<logginginfo>
								<description></description>
								<scene></scene>
								<shottake></shottake>
								<lognote></lognote>
								<good></good>
								<originalvideofilename></originalvideofilename>
								<originalaudiofilename></originalaudiofilename>
							</logginginfo>
						</sequence>
							<marker>
								<comment></comment>
								<name></name>
								<in>425</in>
								<out>-1</out>
								<pproColor>4292277273</pproColor>
							</marker>
							<marker>
								<comment></comment>
								<name></name>
								<in>50</in>
								<out>-1</out>
								<pproColor>4292277273</pproColor>
							</marker>
							<marker>
								<comment></comment>
								<name></name>
								<in>800</in>
								<out>-1</out>
								<pproColor>4292277273</pproColor>
							</marker>
						<labels>
							<label2>Forest</label2>
						</labels>
					</clipitem>
					<clipitem id="clipitem-1879">
						<masterclipid>masterclip-825</masterclipid>
						<name>5</name>
						<enabled>FALSE</enabled>
						<duration>1125</duration>
						<rate>
							<timebase>25</timebase>
							<ntsc>FALSE</ntsc>
						</rate>
						<start>41508</start>
						<end>41883</end>
						<in>375</in>
						<out>750</out>
						<pproTicksIn>3810240000000</pproTicksIn>
						<pproTicksOut>7620480000000</pproTicksOut>
						<sequence id="sequence-152"/>
							<marker>
								<comment></comment>
								<name></name>
								<in>425</in>
								<out>-1</out>
								<pproColor>4292277273</pproColor>
							</marker>
							<marker>
								<comment></comment>
								<name></name>
								<in>50</in>
								<out>-1</out>
								<pproColor>4292277273</pproColor>
							</marker>
							<marker>
								<comment></comment>
								<name></name>
								<in>800</in>
								<out>-1</out>
								<pproColor>4292277273</pproColor>
							</marker>
						<labels>
							<label2>Forest</label2>
						</labels>
					</clipitem>
					<clipitem id="clipitem-1880">
						<masterclipid>masterclip-825</masterclipid>
						<name>5</name>
						<enabled>FALSE</enabled>
						<duration>1125</duration>
						<rate>
							<timebase>25</timebase>
							<ntsc>FALSE</ntsc>
						</rate>
						<start>42159</start>
						<end>42534</end>
						<in>750</in>
						<out>1125</out>
						<pproTicksIn>7620480000000</pproTicksIn>
						<pproTicksOut>11430720000000</pproTicksOut>
						<sequence id="sequence-152"/>
							<marker>
								<comment></comment>
								<name></name>
								<in>425</in>
								<out>-1</out>
								<pproColor>4292277273</pproColor>
							</marker>
							<marker>
								<comment></comment>
								<name></name>
								<in>50</in>
								<out>-1</out>
								<pproColor>4292277273</pproColor>
							</marker>
							<marker>
								<comment></comment>
								<name></name>
								<in>800</in>
								<out>-1</out>
								<pproColor>4292277273</pproColor>
							</marker>
						<labels>
							<label2>Forest</label2>
						</labels>
					</clipitem>
					<clipitem id="clipitem-1881">
						<masterclipid>masterclip-831</masterclipid>
						<name>4</name>
						<enabled>FALSE</enabled>
						<duration>1125</duration>
						<rate>
							<timebase>25</timebase>
							<ntsc>FALSE</ntsc>
						</rate>
						<start>44542</start>
						<end>44917</end>
						<in>0</in>
						<out>375</out>
						<pproTicksIn>0</pproTicksIn>
						<pproTicksOut>3810240000000</pproTicksOut>
						<sequence id="sequence-153" TL.SQAudioVisibleBase="0" TL.SQVideoVisibleBase="0" TL.SQVisibleBaseTime="0" TL.SQAVDividerPosition="0.5" TL.SQHideShyTracks="0" TL.SQHeaderWidth="236" Monitor.ProgramZoomOut="11430720000000" Monitor.ProgramZoomIn="0" TL.SQTimePerPixel="0.19620667102680819" AM.TrackVScrollPosition="0" AM.TrackScrollPosition="0" MZ.EditLine="7691604480000" MZ.Sequence.PreviewFrameSizeHeight="576" MZ.Sequence.PreviewFrameSizeWidth="720" MZ.Sequence.AudioTimeDisplayFormat="200" MZ.Sequence.PreviewRenderingClassID="1061109567" MZ.Sequence.PreviewRenderingPresetCodec="1685480304" MZ.Sequence.PreviewRenderingPresetPath="EncoderPresets/SequencePreview/04be6e19-a018-4e0c-a9d6-0ab44c64752b/QuickTime DV PAL.epr" MZ.Sequence.PreviewUseMaxRenderQuality="false" MZ.Sequence.PreviewUseMaxBitDepth="false" MZ.Sequence.EditingModeGUID="04be6e19-a018-4e0c-a9d6-0ab44c64752b" MZ.Sequence.VideoTimeDisplayFormat="101" MZ.WorkOutPoint="11430720000000" MZ.WorkInPoint="0" MZ.ZeroPoint="0">
							<duration>1125</duration>
							<rate>
								<timebase>25</timebase>
								<ntsc>FALSE</ntsc>
							</rate>
							<name>RU_Nested</name>
							<media>
								<video>
									<format>
										<samplecharacteristics>
											<rate>
												<timebase>25</timebase>
												<ntsc>FALSE</ntsc>
											</rate>
											<codec>
												<name>Apple ProRes 422</name>
												<appspecificdata>
													<appname>Final Cut Pro</appname>
													<appmanufacturer>Apple Inc.</appmanufacturer>
													<appversion>7.0</appversion>
													<data>
														<qtcodec>
															<codecname>Apple ProRes 422</codecname>
															<codectypename>Apple ProRes 422</codectypename>
															<codectypecode>apcn</codectypecode>
															<codecvendorcode>appl</codecvendorcode>
															<spatialquality>1024</spatialquality>
															<temporalquality>0</temporalquality>
															<keyframerate>0</keyframerate>
															<datarate>0</datarate>
														</qtcodec>
													</data>
												</appspecificdata>
											</codec>
											<width>720</width>
											<height>576</height>
											<anamorphic>TRUE</anamorphic>
											<pixelaspectratio>PAL-601</pixelaspectratio>
											<fielddominance>lower</fielddominance>
											<colordepth>24</colordepth>
										</samplecharacteristics>
									</format>
									<track TL.SQTrackShy="0" TL.SQTrackExpandedHeight="25" TL.SQTrackExpanded="0" MZ.TrackTargeted="1">
										<clipitem id="clipitem-1882">
											<masterclipid>masterclip-832</masterclipid>
											<name>Plashka_Right_DV.mov</name>
											<enabled>TRUE</enabled>
											<duration>375</duration>
											<rate>
												<timebase>25</timebase>
												<ntsc>FALSE</ntsc>
											</rate>
											<start>0</start>
											<end>375</end>
											<in>0</in>
											<out>375</out>
											<pproTicksIn>0</pproTicksIn>
											<pproTicksOut>3810240000000</pproTicksOut>
											<alphatype>straight</alphatype>
											<pixelaspectratio>PAL-601</pixelaspectratio>
											<anamorphic>TRUE</anamorphic>
											<file id="file-689">
												<name>Plashka_Right_DV.mov</name>
												<pathurl>file://localhost/Volumes/1Tb/_MUZ_TV/graphika/RU-21/MOD/Plashka_Right_DV.mov</pathurl>
												<rate>
													<timebase>25</timebase>
													<ntsc>FALSE</ntsc>
												</rate>
												<duration>375</duration>
												<timecode>
													<rate>
														<timebase>25</timebase>
														<ntsc>FALSE</ntsc>
													</rate>
													<string>00:00:15:10</string>
													<frame>385</frame>
													<displayformat>NDF</displayformat>
												</timecode>
												<media>
													<video>
														<samplecharacteristics>
															<rate>
																<timebase>25</timebase>
																<ntsc>FALSE</ntsc>
															</rate>
															<width>720</width>
															<height>576</height>
															<anamorphic>TRUE</anamorphic>
															<pixelaspectratio>PAL-601</pixelaspectratio>
															<fielddominance>lower</fielddominance>
														</samplecharacteristics>
													</video>
												</media>
											</file>
											<filter>
												<effect>
													<name>Basic Motion</name>
													<effectid>basic</effectid>
													<effectcategory>motion</effectcategory>
													<effecttype>motion</effecttype>
													<mediatype>video</mediatype>
													<pproBypass>false</pproBypass>
													<parameter authoringApp="PremierePro">
														<parameterid>scale</parameterid>
														<name>Scale</name>
														<valuemin>0</valuemin>
														<valuemax>1000</valuemax>
														<value>100</value>
													</parameter>
													<parameter authoringApp="PremierePro">
														<parameterid>rotation</parameterid>
														<name>Rotation</name>
														<valuemin>-8640</valuemin>
														<valuemax>8640</valuemax>
														<value>0</value>
													</parameter>
													<parameter authoringApp="PremierePro">
														<parameterid>center</parameterid>
														<name>Center</name>
														<value>
															<horiz>-5.55112e-17</horiz>
															<vert>-1.11022e-16</vert>
														</value>
													</parameter>
													<parameter authoringApp="PremierePro">
														<parameterid>centerOffset</parameterid>
														<name>Anchor Point</name>
														<value>
															<horiz>0.402314</horiz>
															<vert>0.41875</vert>
														</value>
													</parameter>
													<parameter authoringApp="PremierePro">
														<parameterid>antiflicker</parameterid>
														<name>Anti-flicker Filter</name>
														<valuemin>0.0</valuemin>
														<valuemax>1.0</valuemax>
														<value>0</value>
													</parameter>
												</effect>
											</filter>
											<filter>
												<effect>
													<name>Distort</name>
													<effectid>deformation</effectid>
													<effectcategory>motion</effectcategory>
													<effecttype>motion</effecttype>
													<mediatype>video</mediatype>
													<parameter authoringApp="PremierePro">
														<parameterid>aspect</parameterid>
														<name>Aspect</name>
														<valuemin>-10000</valuemin>
														<valuemax>10000</valuemax>
														<value>11.1111</value>
													</parameter>
												</effect>
											</filter>
											<logginginfo>
												<description></description>
												<scene></scene>
												<shottake></shottake>
												<lognote></lognote>
												<good></good>
												<originalvideofilename></originalvideofilename>
												<originalaudiofilename></originalaudiofilename>
											</logginginfo>
											<colorinfo>
												<lut></lut>
												<lut1></lut1>
												<asc_sop></asc_sop>
												<asc_sat></asc_sat>
												<lut2></lut2>
											</colorinfo>
											<labels>
												<label2>Violet</label2>
											</labels>
										</clipitem>
										<clipitem id="clipitem-1883">
											<masterclipid>masterclip-832</masterclipid>
											<name>Plashka_Right_DV.mov</name>
											<enabled>TRUE</enabled>
											<duration>375</duration>
											<rate>
												<timebase>25</timebase>
												<ntsc>FALSE</ntsc>
											</rate>
											<start>375</start>
											<end>750</end>
											<in>0</in>
											<out>375</out>
											<pproTicksIn>0</pproTicksIn>
											<pproTicksOut>3810240000000</pproTicksOut>
											<alphatype>straight</alphatype>
											<file id="file-689"/>
											<filter>
												<effect>
													<name>Basic Motion</name>
													<effectid>basic</effectid>
													<effectcategory>motion</effectcategory>
													<effecttype>motion</effecttype>
													<mediatype>video</mediatype>
													<pproBypass>false</pproBypass>
													<parameter authoringApp="PremierePro">
														<parameterid>scale</parameterid>
														<name>Scale</name>
														<valuemin>0</valuemin>
														<valuemax>1000</valuemax>
														<value>100</value>
													</parameter>
													<parameter authoringApp="PremierePro">
														<parameterid>rotation</parameterid>
														<name>Rotation</name>
														<valuemin>-8640</valuemin>
														<valuemax>8640</valuemax>
														<value>0</value>
													</parameter>
													<parameter authoringApp="PremierePro">
														<parameterid>center</parameterid>
														<name>Center</name>
														<value>
															<horiz>-5.55112e-17</horiz>
															<vert>-1.11022e-16</vert>
														</value>
													</parameter>
													<parameter authoringApp="PremierePro">
														<parameterid>centerOffset</parameterid>
														<name>Anchor Point</name>
														<value>
															<horiz>0.402314</horiz>
															<vert>0.41875</vert>
														</value>
													</parameter>
													<parameter authoringApp="PremierePro">
														<parameterid>antiflicker</parameterid>
														<name>Anti-flicker Filter</name>
														<valuemin>0.0</valuemin>
														<valuemax>1.0</valuemax>
														<value>0</value>
													</parameter>
												</effect>
											</filter>
											<filter>
												<effect>
													<name>Distort</name>
													<effectid>deformation</effectid>
													<effectcategory>motion</effectcategory>
													<effecttype>motion</effecttype>
													<mediatype>video</mediatype>
													<parameter authoringApp="PremierePro">
														<parameterid>aspect</parameterid>
														<name>Aspect</name>
														<valuemin>-10000</valuemin>
														<valuemax>10000</valuemax>
														<value>11.1111</value>
													</parameter>
												</effect>
											</filter>
											<logginginfo>
												<description></description>
												<scene></scene>
												<shottake></shottake>
												<lognote></lognote>
												<good></good>
												<originalvideofilename></originalvideofilename>
												<originalaudiofilename></originalaudiofilename>
											</logginginfo>
											<colorinfo>
												<lut></lut>
												<lut1></lut1>
												<asc_sop></asc_sop>
												<asc_sat></asc_sat>
												<lut2></lut2>
											</colorinfo>
											<labels>
												<label2>Violet</label2>
											</labels>
										</clipitem>
										<clipitem id="clipitem-1884">
											<masterclipid>masterclip-832</masterclipid>
											<name>Plashka_Right_DV.mov</name>
											<enabled>TRUE</enabled>
											<duration>375</duration>
											<rate>
												<timebase>25</timebase>
												<ntsc>FALSE</ntsc>
											</rate>
											<start>750</start>
											<end>1125</end>
											<in>0</in>
											<out>375</out>
											<pproTicksIn>0</pproTicksIn>
											<pproTicksOut>3810240000000</pproTicksOut>
											<alphatype>straight</alphatype>
											<file id="file-689"/>
											<filter>
												<effect>
													<name>Basic Motion</name>
													<effectid>basic</effectid>
													<effectcategory>motion</effectcategory>
													<effecttype>motion</effecttype>
													<mediatype>video</mediatype>
													<pproBypass>false</pproBypass>
													<parameter authoringApp="PremierePro">
														<parameterid>scale</parameterid>
														<name>Scale</name>
														<valuemin>0</valuemin>
														<valuemax>1000</valuemax>
														<value>100</value>
													</parameter>
													<parameter authoringApp="PremierePro">
														<parameterid>rotation</parameterid>
														<name>Rotation</name>
														<valuemin>-8640</valuemin>
														<valuemax>8640</valuemax>
														<value>0</value>
													</parameter>
													<parameter authoringApp="PremierePro">
														<parameterid>center</parameterid>
														<name>Center</name>
														<value>
															<horiz>-5.55112e-17</horiz>
															<vert>-1.11022e-16</vert>
														</value>
													</parameter>
													<parameter authoringApp="PremierePro">
														<parameterid>centerOffset</parameterid>
														<name>Anchor Point</name>
														<value>
															<horiz>0.402314</horiz>
															<vert>0.41875</vert>
														</value>
													</parameter>
													<parameter authoringApp="PremierePro">
														<parameterid>antiflicker</parameterid>
														<name>Anti-flicker Filter</name>
														<valuemin>0.0</valuemin>
														<valuemax>1.0</valuemax>
														<value>0</value>
													</parameter>
												</effect>
											</filter>
											<filter>
												<effect>
													<name>Distort</name>
													<effectid>deformation</effectid>
													<effectcategory>motion</effectcategory>
													<effecttype>motion</effecttype>
													<mediatype>video</mediatype>
													<parameter authoringApp="PremierePro">
														<parameterid>aspect</parameterid>
														<name>Aspect</name>
														<valuemin>-10000</valuemin>
														<valuemax>10000</valuemax>
														<value>11.1111</value>
													</parameter>
												</effect>
											</filter>
											<logginginfo>
												<description></description>
												<scene></scene>
												<shottake></shottake>
												<lognote></lognote>
												<good></good>
												<originalvideofilename></originalvideofilename>
												<originalaudiofilename></originalaudiofilename>
											</logginginfo>
											<colorinfo>
												<lut></lut>
												<lut1></lut1>
												<asc_sop></asc_sop>
												<asc_sat></asc_sat>
												<lut2></lut2>
											</colorinfo>
											<labels>
												<label2>Violet</label2>
											</labels>
										</clipitem>
										<enabled>TRUE</enabled>
										<locked>FALSE</locked>
									</track>
									<track TL.SQTrackShy="0" TL.SQTrackExpandedHeight="25" TL.SQTrackExpanded="0" MZ.TrackTargeted="0">
										<transitionitem>
											<start>6</start>
											<end>35</end>
											<alignment>start-black</alignment>
											<cutPointTicks>0</cutPointTicks>
											<rate>
												<timebase>25</timebase>
												<ntsc>FALSE</ntsc>
											</rate>
											<effect>
												<name>Edge Wipe</name>
												<effectid>Edge Wipe</effectid>
												<effectcategory>Wipe</effectcategory>
												<effecttype>transition</effecttype>
												<mediatype>video</mediatype>
												<wipecode>2</wipecode>
												<wipeaccuracy>100</wipeaccuracy>
												<startratio>0</startratio>
												<endratio>1</endratio>
												<reverse>FALSE</reverse>
												<parameter authoringApp="PremierePro">
													<parameterid>directionofwipe</parameterid>
													<name>Angle</name>
													<valuemin>-360</valuemin>
													<valuemax>360</valuemax>
													<value>270</value>
												</parameter>
											</effect>
										</transitionitem>
										<clipitem id="clipitem-1885">
											<masterclipid>masterclip-833</masterclipid>
											<name>4_1.png</name>
											<enabled>TRUE</enabled>
											<duration>1080000</duration>
											<rate>
												<timebase>25</timebase>
												<ntsc>FALSE</ntsc>
											</rate>
											<start>-1</start>
											<end>-1</end>
											<in>90006</in>
											<out>90369</out>
											<pproTicksIn>914518563840000</pproTicksIn>
											<pproTicksOut>918206876160000</pproTicksOut>
											<alphatype>straight</alphatype>
											<pixelaspectratio>square</pixelaspectratio>
											<anamorphic>FALSE</anamorphic>
											<file id="file-690">
												<name>4_1.png</name>
												<pathurl>file://localhost/_MUZ_TV/project_AP/RU/_TITLE/468/PNG/4_1.png</pathurl>
												<rate>
													<timebase>30</timebase>
													<ntsc>TRUE</ntsc>
												</rate>
												<timecode>
													<rate>
														<timebase>30</timebase>
														<ntsc>TRUE</ntsc>
													</rate>
													<string>00;00;00;00</string>
													<frame>0</frame>
													<displayformat>DF</displayformat>
												</timecode>
												<media>
													<video>
														<samplecharacteristics>
															<rate>
																<timebase>30</timebase>
																<ntsc>TRUE</ntsc>
															</rate>
															<width>1920</width>
															<height>1080</height>
															<anamorphic>FALSE</anamorphic>
															<pixelaspectratio>square</pixelaspectratio>
															<fielddominance>none</fielddominance>
														</samplecharacteristics>
													</video>
												</media>
											</file>
											<filter>
												<effect>
													<name>Basic Motion</name>
													<effectid>basic</effectid>
													<effectcategory>motion</effectcategory>
													<effecttype>motion</effecttype>
													<mediatype>video</mediatype>
													<pproBypass>false</pproBypass>
													<parameter authoringApp="PremierePro">
														<parameterid>scale</parameterid>
														<name>Scale</name>
														<valuemin>0</valuemin>
														<valuemax>1000</valuemax>
														<value>53.3333</value>
													</parameter>
													<parameter authoringApp="PremierePro">
														<parameterid>rotation</parameterid>
														<name>Rotation</name>
														<valuemin>-8640</valuemin>
														<valuemax>8640</valuemax>
														<value>0</value>
													</parameter>
													<parameter authoringApp="PremierePro">
														<parameterid>center</parameterid>
														<name>Center</name>
														<value>
															<horiz>0</horiz>
															<vert>0</vert>
														</value>
													</parameter>
													<parameter authoringApp="PremierePro">
														<parameterid>centerOffset</parameterid>
														<name>Anchor Point</name>
														<value>
															<horiz>0</horiz>
															<vert>0</vert>
														</value>
													</parameter>
													<parameter authoringApp="PremierePro">
														<parameterid>antiflicker</parameterid>
														<name>Anti-flicker Filter</name>
														<valuemin>0.0</valuemin>
														<valuemax>1.0</valuemax>
														<value>0</value>
													</parameter>
												</effect>
											</filter>
											<logginginfo>
												<description></description>
												<scene></scene>
												<shottake></shottake>
												<lognote></lognote>
												<good></good>
												<originalvideofilename></originalvideofilename>
												<originalaudiofilename></originalaudiofilename>
											</logginginfo>
											<colorinfo>
												<lut></lut>
												<lut1></lut1>
												<asc_sop></asc_sop>
												<asc_sat></asc_sat>
												<lut2></lut2>
											</colorinfo>
											<labels>
												<label2>Lavender</label2>
											</labels>
										</clipitem>
										<transitionitem>
											<start>344</start>
											<end>369</end>
											<alignment>end-black</alignment>
											<cutPointTicks>254016000000</cutPointTicks>
											<rate>
												<timebase>25</timebase>
												<ntsc>FALSE</ntsc>
											</rate>
											<effect>
												<name>Edge Wipe</name>
												<effectid>Edge Wipe</effectid>
												<effectcategory>Wipe</effectcategory>
												<effecttype>transition</effecttype>
												<mediatype>video</mediatype>
												<wipecode>2</wipecode>
												<wipeaccuracy>100</wipeaccuracy>
												<startratio>0</startratio>
												<endratio>1</endratio>
												<reverse>FALSE</reverse>
												<parameter authoringApp="PremierePro">
													<parameterid>directionofwipe</parameterid>
													<name>Angle</name>
													<valuemin>-360</valuemin>
													<valuemax>360</valuemax>
													<value>90</value>
												</parameter>
											</effect>
										</transitionitem>
										<transitionitem>
											<start>381</start>
											<end>410</end>
											<alignment>start-black</alignment>
											<cutPointTicks>0</cutPointTicks>
											<rate>
												<timebase>25</timebase>
												<ntsc>FALSE</ntsc>
											</rate>
											<effect>
												<name>Edge Wipe</name>
												<effectid>Edge Wipe</effectid>
												<effectcategory>Wipe</effectcategory>
												<effecttype>transition</effecttype>
												<mediatype>video</mediatype>
												<wipecode>2</wipecode>
												<wipeaccuracy>100</wipeaccuracy>
												<startratio>0</startratio>
												<endratio>1</endratio>
												<reverse>FALSE</reverse>
												<parameter authoringApp="PremierePro">
													<parameterid>directionofwipe</parameterid>
													<name>Angle</name>
													<valuemin>-360</valuemin>
													<valuemax>360</valuemax>
													<value>270</value>
												</parameter>
											</effect>
										</transitionitem>
										<clipitem id="clipitem-1886">
											<masterclipid>masterclip-834</masterclipid>
											<name>4_2.png</name>
											<enabled>TRUE</enabled>
											<duration>1080000</duration>
											<rate>
												<timebase>25</timebase>
												<ntsc>FALSE</ntsc>
											</rate>
											<start>-1</start>
											<end>-1</end>
											<in>90011</in>
											<out>90374</out>
											<pproTicksIn>914569367040000</pproTicksIn>
											<pproTicksOut>918257679360000</pproTicksOut>
											<alphatype>straight</alphatype>
											<pixelaspectratio>square</pixelaspectratio>
											<anamorphic>FALSE</anamorphic>
											<file id="file-691">
												<name>4_2.png</name>
												<pathurl>file://localhost/_MUZ_TV/project_AP/RU/_TITLE/468/PNG/4_2.png</pathurl>
												<rate>
													<timebase>30</timebase>
													<ntsc>TRUE</ntsc>
												</rate>
												<timecode>
													<rate>
														<timebase>30</timebase>
														<ntsc>TRUE</ntsc>
													</rate>
													<string>00;00;00;00</string>
													<frame>0</frame>
													<displayformat>DF</displayformat>
												</timecode>
												<media>
													<video>
														<samplecharacteristics>
															<rate>
																<timebase>30</timebase>
																<ntsc>TRUE</ntsc>
															</rate>
															<width>1920</width>
															<height>1080</height>
															<anamorphic>FALSE</anamorphic>
															<pixelaspectratio>square</pixelaspectratio>
															<fielddominance>none</fielddominance>
														</samplecharacteristics>
													</video>
												</media>
											</file>
											<filter>
												<effect>
													<name>Basic Motion</name>
													<effectid>basic</effectid>
													<effectcategory>motion</effectcategory>
													<effecttype>motion</effecttype>
													<mediatype>video</mediatype>
													<pproBypass>false</pproBypass>
													<parameter authoringApp="PremierePro">
														<parameterid>scale</parameterid>
														<name>Scale</name>
														<valuemin>0</valuemin>
														<valuemax>1000</valuemax>
														<value>53.3333</value>
													</parameter>
													<parameter authoringApp="PremierePro">
														<parameterid>rotation</parameterid>
														<name>Rotation</name>
														<valuemin>-8640</valuemin>
														<valuemax>8640</valuemax>
														<value>0</value>
													</parameter>
													<parameter authoringApp="PremierePro">
														<parameterid>center</parameterid>
														<name>Center</name>
														<value>
															<horiz>0</horiz>
															<vert>0</vert>
														</value>
													</parameter>
													<parameter authoringApp="PremierePro">
														<parameterid>centerOffset</parameterid>
														<name>Anchor Point</name>
														<value>
															<horiz>0</horiz>
															<vert>0</vert>
														</value>
													</parameter>
													<parameter authoringApp="PremierePro">
														<parameterid>antiflicker</parameterid>
														<name>Anti-flicker Filter</name>
														<valuemin>0.0</valuemin>
														<valuemax>1.0</valuemax>
														<value>0</value>
													</parameter>
												</effect>
											</filter>
											<logginginfo>
												<description></description>
												<scene></scene>
												<shottake></shottake>
												<lognote></lognote>
												<good></good>
												<originalvideofilename></originalvideofilename>
												<originalaudiofilename></originalaudiofilename>
											</logginginfo>
											<colorinfo>
												<lut></lut>
												<lut1></lut1>
												<asc_sop></asc_sop>
												<asc_sat></asc_sat>
												<lut2></lut2>
											</colorinfo>
											<labels>
												<label2>Lavender</label2>
											</labels>
										</clipitem>
										<transitionitem>
											<start>719</start>
											<end>744</end>
											<alignment>end-black</alignment>
											<cutPointTicks>254016000000</cutPointTicks>
											<rate>
												<timebase>25</timebase>
												<ntsc>FALSE</ntsc>
											</rate>
											<effect>
												<name>Edge Wipe</name>
												<effectid>Edge Wipe</effectid>
												<effectcategory>Wipe</effectcategory>
												<effecttype>transition</effecttype>
												<mediatype>video</mediatype>
												<wipecode>2</wipecode>
												<wipeaccuracy>100</wipeaccuracy>
												<startratio>0</startratio>
												<endratio>1</endratio>
												<reverse>FALSE</reverse>
												<parameter authoringApp="PremierePro">
													<parameterid>directionofwipe</parameterid>
													<name>Angle</name>
													<valuemin>-360</valuemin>
													<valuemax>360</valuemax>
													<value>90</value>
												</parameter>
											</effect>
										</transitionitem>
										<transitionitem>
											<start>756</start>
											<end>785</end>
											<alignment>start-black</alignment>
											<cutPointTicks>0</cutPointTicks>
											<rate>
												<timebase>25</timebase>
												<ntsc>FALSE</ntsc>
											</rate>
											<effect>
												<name>Edge Wipe</name>
												<effectid>Edge Wipe</effectid>
												<effectcategory>Wipe</effectcategory>
												<effecttype>transition</effecttype>
												<mediatype>video</mediatype>
												<wipecode>2</wipecode>
												<wipeaccuracy>100</wipeaccuracy>
												<startratio>0</startratio>
												<endratio>1</endratio>
												<reverse>FALSE</reverse>
												<parameter authoringApp="PremierePro">
													<parameterid>directionofwipe</parameterid>
													<name>Angle</name>
													<valuemin>-360</valuemin>
													<valuemax>360</valuemax>
													<value>270</value>
												</parameter>
											</effect>
										</transitionitem>
										<clipitem id="clipitem-1887">
											<masterclipid>masterclip-835</masterclipid>
											<name>4_3.png</name>
											<enabled>TRUE</enabled>
											<duration>1080000</duration>
											<rate>
												<timebase>25</timebase>
												<ntsc>FALSE</ntsc>
											</rate>
											<start>-1</start>
											<end>-1</end>
											<in>90011</in>
											<out>90375</out>
											<pproTicksIn>914569367040000</pproTicksIn>
											<pproTicksOut>918267840000000</pproTicksOut>
											<alphatype>straight</alphatype>
											<pixelaspectratio>square</pixelaspectratio>
											<anamorphic>FALSE</anamorphic>
											<file id="file-692">
												<name>4_3.png</name>
												<pathurl>file://localhost/_MUZ_TV/project_AP/RU/_TITLE/468/PNG/4_3.png</pathurl>
												<rate>
													<timebase>30</timebase>
													<ntsc>TRUE</ntsc>
												</rate>
												<timecode>
													<rate>
														<timebase>30</timebase>
														<ntsc>TRUE</ntsc>
													</rate>
													<string>00;00;00;00</string>
													<frame>0</frame>
													<displayformat>DF</displayformat>
												</timecode>
												<media>
													<video>
														<samplecharacteristics>
															<rate>
																<timebase>30</timebase>
																<ntsc>TRUE</ntsc>
															</rate>
															<width>1920</width>
															<height>1080</height>
															<anamorphic>FALSE</anamorphic>
															<pixelaspectratio>square</pixelaspectratio>
															<fielddominance>none</fielddominance>
														</samplecharacteristics>
													</video>
												</media>
											</file>
											<filter>
												<effect>
													<name>Basic Motion</name>
													<effectid>basic</effectid>
													<effectcategory>motion</effectcategory>
													<effecttype>motion</effecttype>
													<mediatype>video</mediatype>
													<pproBypass>false</pproBypass>
													<parameter authoringApp="PremierePro">
														<parameterid>scale</parameterid>
														<name>Scale</name>
														<valuemin>0</valuemin>
														<valuemax>1000</valuemax>
														<value>53.3333</value>
													</parameter>
													<parameter authoringApp="PremierePro">
														<parameterid>rotation</parameterid>
														<name>Rotation</name>
														<valuemin>-8640</valuemin>
														<valuemax>8640</valuemax>
														<value>0</value>
													</parameter>
													<parameter authoringApp="PremierePro">
														<parameterid>center</parameterid>
														<name>Center</name>
														<value>
															<horiz>0</horiz>
															<vert>0</vert>
														</value>
													</parameter>
													<parameter authoringApp="PremierePro">
														<parameterid>centerOffset</parameterid>
														<name>Anchor Point</name>
														<value>
															<horiz>0</horiz>
															<vert>0</vert>
														</value>
													</parameter>
													<parameter authoringApp="PremierePro">
														<parameterid>antiflicker</parameterid>
														<name>Anti-flicker Filter</name>
														<valuemin>0.0</valuemin>
														<valuemax>1.0</valuemax>
														<value>0</value>
													</parameter>
												</effect>
											</filter>
											<logginginfo>
												<description></description>
												<scene></scene>
												<shottake></shottake>
												<lognote></lognote>
												<good></good>
												<originalvideofilename></originalvideofilename>
												<originalaudiofilename></originalaudiofilename>
											</logginginfo>
											<colorinfo>
												<lut></lut>
												<lut1></lut1>
												<asc_sop></asc_sop>
												<asc_sat></asc_sat>
												<lut2></lut2>
											</colorinfo>
											<labels>
												<label2>Lavender</label2>
											</labels>
										</clipitem>
										<transitionitem>
											<start>1095</start>
											<end>1120</end>
											<alignment>end-black</alignment>
											<cutPointTicks>254016000000</cutPointTicks>
											<rate>
												<timebase>25</timebase>
												<ntsc>FALSE</ntsc>
											</rate>
											<effect>
												<name>Edge Wipe</name>
												<effectid>Edge Wipe</effectid>
												<effectcategory>Wipe</effectcategory>
												<effecttype>transition</effecttype>
												<mediatype>video</mediatype>
												<wipecode>2</wipecode>
												<wipeaccuracy>100</wipeaccuracy>
												<startratio>0</startratio>
												<endratio>1</endratio>
												<reverse>FALSE</reverse>
												<parameter authoringApp="PremierePro">
													<parameterid>directionofwipe</parameterid>
													<name>Angle</name>
													<valuemin>-360</valuemin>
													<valuemax>360</valuemax>
													<value>90</value>
												</parameter>
											</effect>
										</transitionitem>
										<enabled>TRUE</enabled>
										<locked>FALSE</locked>
									</track>
									<track TL.SQTrackShy="0" TL.SQTrackExpandedHeight="25" TL.SQTrackExpanded="0" MZ.TrackTargeted="0">
										<transitionitem>
											<start>755</start>
											<end>780</end>
											<alignment>start-black</alignment>
											<cutPointTicks>0</cutPointTicks>
											<rate>
												<timebase>25</timebase>
												<ntsc>FALSE</ntsc>
											</rate>
											<effect>
												<name>Edge Wipe</name>
												<effectid>Edge Wipe</effectid>
												<effectcategory>Wipe</effectcategory>
												<effecttype>transition</effecttype>
												<mediatype>video</mediatype>
												<wipecode>2</wipecode>
												<wipeaccuracy>100</wipeaccuracy>
												<startratio>0</startratio>
												<endratio>1</endratio>
												<reverse>FALSE</reverse>
												<parameter authoringApp="PremierePro">
													<parameterid>directionofwipe</parameterid>
													<name>Angle</name>
													<valuemin>-360</valuemin>
													<valuemax>360</valuemax>
													<value>270</value>
												</parameter>
											</effect>
										</transitionitem>
										<clipitem id="clipitem-1888">
											<masterclipid>masterclip-836</masterclipid>
											<name>Graphic</name>
											<enabled>FALSE</enabled>
											<duration>1080000</duration>
											<rate>
												<timebase>25</timebase>
												<ntsc>FALSE</ntsc>
											</rate>
											<start>-1</start>
											<end>-1</end>
											<in>89905</in>
											<out>90272</out>
											<pproTicksIn>913492339200000</pproTicksIn>
											<pproTicksOut>917221294080000</pproTicksOut>
											<alphatype>straight</alphatype>
											<pixelaspectratio>PAL-601</pixelaspectratio>
											<anamorphic>TRUE</anamorphic>
											<file id="file-693">
												<name>Graphic</name>
												<mediaSource>GraphicAndType</mediaSource>
												<rate>
													<timebase>30</timebase>
													<ntsc>TRUE</ntsc>
												</rate>
												<timecode>
													<rate>
														<timebase>30</timebase>
														<ntsc>TRUE</ntsc>
													</rate>
													<string>00;00;00;00</string>
													<frame>0</frame>
													<displayformat>DF</displayformat>
												</timecode>
												<media>
													<video>
														<samplecharacteristics>
															<rate>
																<timebase>30</timebase>
																<ntsc>TRUE</ntsc>
															</rate>
															<width>720</width>
															<height>576</height>
															<anamorphic>TRUE</anamorphic>
															<pixelaspectratio>PAL-601</pixelaspectratio>
															<fielddominance>none</fielddominance>
														</samplecharacteristics>
													</video>
												</media>
											</file>
											<filter>
												<effect>
													<name>Vector Motion</name>
													<effectid>GraphicGroup</effectid>
													<effectcategory>graphic</effectcategory>
													<effecttype>filter</effecttype>
													<mediatype>video</mediatype>
													<pproBypass>false</pproBypass>
													<parameter authoringApp="PremierePro">
														<parameterid>1</parameterid>
														<name>Position</name>
														<IsTimeVarying>false</IsTimeVarying>
														<value>-91445760000000000,0.81693898908787344:0.49085601568222115,0,0,0,0,0,0,5,4,0,0,0,0</value>
													</parameter>
													<parameter authoringApp="PremierePro">
														<parameterid>2</parameterid>
														<name>Scale</name>
														<IsTimeVarying>false</IsTimeVarying>
														<ParameterControlType>2</ParameterControlType>
														<LowerBound>0</LowerBound>
														<UpperBound>10000</UpperBound>
														<UpperUIBound>200</UpperUIBound>
														<value>-91445760000000000,100.,0,0,0,0,0,0</value>
													</parameter>
													<parameter authoringApp="PremierePro">
														<parameterid>3</parameterid>
														<name>Scale Width</name>
														<IsTimeVarying>false</IsTimeVarying>
														<ParameterControlType>2</ParameterControlType>
														<LowerBound>0</LowerBound>
														<UpperBound>10000</UpperBound>
														<UpperUIBound>200</UpperUIBound>
														<value>-91445760000000000,100.,0,0,0,0,0,0</value>
													</parameter>
													<parameter authoringApp="PremierePro">
														<parameterid>4</parameterid>
														<name> </name>
														<IsTimeVarying>false</IsTimeVarying>
														<ParameterControlType>4</ParameterControlType>
														<LowerBound>false</LowerBound>
														<UpperBound>true</UpperBound>
														<value>-91445760000000000,true,0,0,0,0,0,0</value>
													</parameter>
													<parameter authoringApp="PremierePro">
														<parameterid>5</parameterid>
														<name>Rotation</name>
														<IsTimeVarying>false</IsTimeVarying>
														<ParameterControlType>3</ParameterControlType>
														<LowerBound>-32768</LowerBound>
														<UpperBound>32767</UpperBound>
														<value>-91445760000000000,0.,0,0,0,0,0,0</value>
													</parameter>
													<parameter authoringApp="PremierePro">
														<parameterid>6</parameterid>
														<name>Anchor Point</name>
														<IsTimeVarying>false</IsTimeVarying>
														<value>-91445760000000000,0.5:0.5,0,0,0,0,0,0,5,4,0,0,0,0</value>
													</parameter>
												</effect>
											</filter>
											<filter>
												<effect>
													<name>Данил Прытков признаётся, &#13;что сильные провалы &#13;мотивируют его на творчество &#13;не меньше, чем победы. </name>
													<effectid>GraphicAndType</effectid>
													<effectcategory>graphic</effectcategory>
													<effecttype>filter</effecttype>
													<mediatype>video</mediatype>
													<pproBypass>false</pproBypass>
													<pproExpanded>true</pproExpanded>
													<parameter authoringApp="PremierePro">
														<parameterid>1</parameterid>
														<name>Source Text</name>
														<hash>698123b5-7d57-7b79-efb1-b0df00000a31</hash>
													</parameter>
													<parameter authoringApp="PremierePro">
														<parameterid>2</parameterid>
														<name>Transform</name>
														<IsTimeVarying>false</IsTimeVarying>
														<ParameterControlType>11</ParameterControlType>
														<LowerBound>false</LowerBound>
														<UpperBound>false</UpperBound>
														<value>-91445760000000000,false,0,0,0,0,0,0</value>
													</parameter>
													<parameter authoringApp="PremierePro">
														<parameterid>3</parameterid>
														<name>Position</name>
														<IsTimeVarying>false</IsTimeVarying>
														<value>-91445760000000000,0.270416259765625:0.640594482421875,0,0,0,0,0,0,5,4,0,0,0,0</value>
													</parameter>
													<parameter authoringApp="PremierePro">
														<parameterid>4</parameterid>
														<name>Scale</name>
														<IsTimeVarying>false</IsTimeVarying>
														<ParameterControlType>2</ParameterControlType>
														<LowerBound>0</LowerBound>
														<UpperBound>4000</UpperBound>
														<value>-91445760000000000,100.,0,0,0,0,0,0</value>
													</parameter>
													<parameter authoringApp="PremierePro">
														<parameterid>5</parameterid>
														<name>Horizontal Scale</name>
														<IsTimeVarying>false</IsTimeVarying>
														<ParameterControlType>2</ParameterControlType>
														<LowerBound>0</LowerBound>
														<UpperBound>4000</UpperBound>
														<value>-91445760000000000,100.,0,0,0,0,0,0</value>
													</parameter>
													<parameter authoringApp="PremierePro">
														<parameterid>6</parameterid>
														<name> </name>
														<IsTimeVarying>false</IsTimeVarying>
														<ParameterControlType>4</ParameterControlType>
														<LowerBound>false</LowerBound>
														<UpperBound>true</UpperBound>
														<value>-91445760000000000,true,0,0,0,0,0,0</value>
													</parameter>
													<parameter authoringApp="PremierePro">
														<parameterid>7</parameterid>
														<name>Rotation</name>
														<IsTimeVarying>false</IsTimeVarying>
														<ParameterControlType>3</ParameterControlType>
														<LowerBound>-32768</LowerBound>
														<UpperBound>32767</UpperBound>
														<value>-91445760000000000,0.,0,0,0,0,0,0</value>
													</parameter>
													<parameter authoringApp="PremierePro">
														<parameterid>8</parameterid>
														<name>Opacity</name>
														<IsTimeVarying>false</IsTimeVarying>
														<ParameterControlType>2</ParameterControlType>
														<LowerBound>0</LowerBound>
														<UpperBound>100</UpperBound>
														<value>-91445760000000000,100.,0,0,0,0,0,0</value>
													</parameter>
													<parameter authoringApp="PremierePro">
														<parameterid>9</parameterid>
														<name>Anchor Point</name>
														<IsTimeVarying>false</IsTimeVarying>
														<value>-91445760000000000,0:0,0,0,0,0,0,0,5,4,0,0,0,0</value>
													</parameter>
													<parameter authoringApp="PremierePro">
														<parameterid>10</parameterid>
														<name></name>
														<IsTimeVarying>false</IsTimeVarying>
														<ParameterControlType>12</ParameterControlType>
														<LowerBound>false</LowerBound>
														<UpperBound>false</UpperBound>
														<value>-91445760000000000,false,0,0,0,0,0,0</value>
													</parameter>
													<parameter authoringApp="PremierePro">
														<parameterid>11</parameterid>
														<name> </name>
														<IsTimeVarying>false</IsTimeVarying>
														<ParameterControlType>8</ParameterControlType>
														<LowerBound>0</LowerBound>
														<UpperBound>32768</UpperBound>
														<value>-91445760000000000,0.,0,0,0,0,0,0</value>
													</parameter>
													<parameter authoringApp="PremierePro">
														<parameterid>12</parameterid>
														<name> </name>
														<IsTimeVarying>false</IsTimeVarying>
														<ParameterControlType>8</ParameterControlType>
														<LowerBound>0</LowerBound>
														<UpperBound>32768</UpperBound>
														<value>-91445760000000000,0.,0,0,0,0,0,0</value>
													</parameter>
													<parameter authoringApp="PremierePro">
														<parameterid>13</parameterid>
														<name>start</name>
														<IsTimeVarying>false</IsTimeVarying>
														<ParameterControlType>8</ParameterControlType>
														<LowerBound>-100</LowerBound>
														<UpperBound>1000000000</UpperBound>
														<value>-91445760000000000,0.,0,0,0,0,0,0</value>
													</parameter>
													<parameter authoringApp="PremierePro">
														<parameterid>14</parameterid>
														<name>end</name>
														<IsTimeVarying>false</IsTimeVarying>
														<ParameterControlType>8</ParameterControlType>
														<LowerBound>-100</LowerBound>
														<UpperBound>1000000000</UpperBound>
														<value>-91445760000000000,101.,0,0,0,0,0,0</value>
													</parameter>
													<parameter authoringApp="PremierePro">
														<parameterid>15</parameterid>
														<name> </name>
														<IsTimeVarying>false</IsTimeVarying>
														<ParameterControlType>4</ParameterControlType>
														<LowerBound>false</LowerBound>
														<UpperBound>true</UpperBound>
														<value>-91445760000000000,false,0,0,0,0,0,0</value>
													</parameter>
													<parameter authoringApp="PremierePro">
														<parameterid>16</parameterid>
														<name> </name>
														<IsTimeVarying>false</IsTimeVarying>
														<ParameterControlType>4</ParameterControlType>
														<LowerBound>false</LowerBound>
														<UpperBound>true</UpperBound>
														<value>-91445760000000000,false,0,0,0,0,0,0</value>
													</parameter>
													<parameter authoringApp="PremierePro">
														<parameterid>17</parameterid>
														<name> </name>
														<IsTimeVarying>false</IsTimeVarying>
														<ParameterControlType>4</ParameterControlType>
														<LowerBound>false</LowerBound>
														<UpperBound>true</UpperBound>
														<value>-91445760000000000,false,0,0,0,0,0,0</value>
													</parameter>
													<parameter authoringApp="PremierePro">
														<parameterid>18</parameterid>
														<name> </name>
														<IsTimeVarying>false</IsTimeVarying>
														<ParameterControlType>4</ParameterControlType>
														<LowerBound>false</LowerBound>
														<UpperBound>true</UpperBound>
														<value>-91445760000000000,false,0,0,0,0,0,0</value>
													</parameter>
													<parameter authoringApp="PremierePro">
														<parameterid>19</parameterid>
														<name>Parent Width</name>
														<IsTimeVarying>false</IsTimeVarying>
														<ParameterControlType>2</ParameterControlType>
														<LowerBound>0</LowerBound>
														<UpperBound>20000</UpperBound>
														<value>-91445760000000000,0.,0,0,0,0,0,0</value>
													</parameter>
													<parameter authoringApp="PremierePro">
														<parameterid>20</parameterid>
														<name>Parent Height</name>
														<IsTimeVarying>false</IsTimeVarying>
														<ParameterControlType>2</ParameterControlType>
														<LowerBound>0</LowerBound>
														<UpperBound>20000</UpperBound>
														<value>-91445760000000000,0.,0,0,0,0,0,0</value>
													</parameter>
													<parameter authoringApp="PremierePro">
														<parameterid>21</parameterid>
														<name>Parent Rotation</name>
														<IsTimeVarying>false</IsTimeVarying>
														<ParameterControlType>3</ParameterControlType>
														<LowerBound>-32768</LowerBound>
														<UpperBound>32767</UpperBound>
														<value>-91445760000000000,0.,0,0,0,0,0,0</value>
													</parameter>
												</effect>
											</filter>
											<logginginfo>
												<description></description>
												<scene></scene>
												<shottake></shottake>
												<lognote></lognote>
												<good></good>
												<originalvideofilename></originalvideofilename>
												<originalaudiofilename></originalaudiofilename>
											</logginginfo>
											<colorinfo>
												<lut></lut>
												<lut1></lut1>
												<asc_sop></asc_sop>
												<asc_sat></asc_sat>
												<lut2></lut2>
											</colorinfo>
										</clipitem>
										<transitionitem>
											<start>1097</start>
											<end>1122</end>
											<alignment>end-black</alignment>
											<cutPointTicks>254016000000</cutPointTicks>
											<rate>
												<timebase>25</timebase>
												<ntsc>FALSE</ntsc>
											</rate>
											<effect>
												<name>Edge Wipe</name>
												<effectid>Edge Wipe</effectid>
												<effectcategory>Wipe</effectcategory>
												<effecttype>transition</effecttype>
												<mediatype>video</mediatype>
												<wipecode>2</wipecode>
												<wipeaccuracy>100</wipeaccuracy>
												<startratio>0</startratio>
												<endratio>1</endratio>
												<reverse>FALSE</reverse>
												<parameter authoringApp="PremierePro">
													<parameterid>directionofwipe</parameterid>
													<name>Angle</name>
													<valuemin>-360</valuemin>
													<valuemax>360</valuemax>
													<value>90</value>
												</parameter>
											</effect>
										</transitionitem>
										<enabled>TRUE</enabled>
										<locked>FALSE</locked>
									</track>
								</video>
								<audio>
									<numOutputChannels>2</numOutputChannels>
									<format>
										<samplecharacteristics>
											<depth>16</depth>
											<samplerate>48000</samplerate>
										</samplecharacteristics>
									</format>
									<outputs>
										<group>
											<index>1</index>
											<numchannels>1</numchannels>
											<downmix>0</downmix>
											<channel>
												<index>1</index>
											</channel>
										</group>
										<group>
											<index>2</index>
											<numchannels>1</numchannels>
											<downmix>0</downmix>
											<channel>
												<index>2</index>
											</channel>
										</group>
									</outputs>
									<track TL.SQTrackAudioKeyframeStyle="0" TL.SQTrackShy="0" TL.SQTrackExpandedHeight="25" TL.SQTrackExpanded="0" MZ.TrackTargeted="1" PannerCurrentValue="0.5" PannerStartKeyframe="-91445760000000000,0.5,0,0,0,0,0,0" PannerName="Balance" currentExplodedTrackIndex="0" totalExplodedTrackCount="2" premiereTrackType="Stereo">
										<enabled>TRUE</enabled>
										<locked>FALSE</locked>
										<outputchannelindex>1</outputchannelindex>
									</track>
									<track TL.SQTrackAudioKeyframeStyle="0" TL.SQTrackShy="0" TL.SQTrackExpandedHeight="25" TL.SQTrackExpanded="0" MZ.TrackTargeted="1" PannerCurrentValue="0.5" PannerStartKeyframe="-91445760000000000,0.5,0,0,0,0,0,0" PannerName="Balance" currentExplodedTrackIndex="1" totalExplodedTrackCount="2" premiereTrackType="Stereo">
										<enabled>TRUE</enabled>
										<locked>FALSE</locked>
										<outputchannelindex>2</outputchannelindex>
									</track>
								</audio>
							</media>
							<timecode>
								<rate>
									<timebase>25</timebase>
									<ntsc>FALSE</ntsc>
								</rate>
								<string>00:00:00:00</string>
								<frame>0</frame>
								<displayformat>NDF</displayformat>
							</timecode>
								<marker>
									<comment></comment>
									<name></name>
									<in>800</in>
									<out>-1</out>
									<pproColor>4292277273</pproColor>
								</marker>
								<marker>
									<comment></comment>
									<name></name>
									<in>50</in>
									<out>-1</out>
									<pproColor>4292277273</pproColor>
								</marker>
								<marker>
									<comment></comment>
									<name></name>
									<in>425</in>
									<out>-1</out>
									<pproColor>4292277273</pproColor>
								</marker>
							<logginginfo>
								<description></description>
								<scene></scene>
								<shottake></shottake>
								<lognote></lognote>
								<good></good>
								<originalvideofilename></originalvideofilename>
								<originalaudiofilename></originalaudiofilename>
							</logginginfo>
						</sequence>
							<marker>
								<comment></comment>
								<name></name>
								<in>800</in>
								<out>-1</out>
								<pproColor>4292277273</pproColor>
							</marker>
							<marker>
								<comment></comment>
								<name></name>
								<in>50</in>
								<out>-1</out>
								<pproColor>4292277273</pproColor>
							</marker>
							<marker>
								<comment></comment>
								<name></name>
								<in>425</in>
								<out>-1</out>
								<pproColor>4292277273</pproColor>
							</marker>
						<labels>
							<label2>Forest</label2>
						</labels>
					</clipitem>
					<clipitem id="clipitem-1889">
						<masterclipid>masterclip-831</masterclipid>
						<name>4</name>
						<enabled>FALSE</enabled>
						<duration>1125</duration>
						<rate>
							<timebase>25</timebase>
							<ntsc>FALSE</ntsc>
						</rate>
						<start>46464</start>
						<end>46839</end>
						<in>375</in>
						<out>750</out>
						<pproTicksIn>3810240000000</pproTicksIn>
						<pproTicksOut>7620480000000</pproTicksOut>
						<sequence id="sequence-153"/>
							<marker>
								<comment></comment>
								<name></name>
								<in>800</in>
								<out>-1</out>
								<pproColor>4292277273</pproColor>
							</marker>
							<marker>
								<comment></comment>
								<name></name>
								<in>50</in>
								<out>-1</out>
								<pproColor>4292277273</pproColor>
							</marker>
							<marker>
								<comment></comment>
								<name></name>
								<in>425</in>
								<out>-1</out>
								<pproColor>4292277273</pproColor>
							</marker>
						<labels>
							<label2>Forest</label2>
						</labels>
					</clipitem>
					<clipitem id="clipitem-1890">
						<masterclipid>masterclip-831</masterclipid>
						<name>4</name>
						<enabled>FALSE</enabled>
						<duration>1125</duration>
						<rate>
							<timebase>25</timebase>
							<ntsc>FALSE</ntsc>
						</rate>
						<start>48148</start>
						<end>48523</end>
						<in>750</in>
						<out>1125</out>
						<pproTicksIn>7620480000000</pproTicksIn>
						<pproTicksOut>11430720000000</pproTicksOut>
						<sequence id="sequence-153"/>
							<marker>
								<comment></comment>
								<name></name>
								<in>800</in>
								<out>-1</out>
								<pproColor>4292277273</pproColor>
							</marker>
							<marker>
								<comment></comment>
								<name></name>
								<in>50</in>
								<out>-1</out>
								<pproColor>4292277273</pproColor>
							</marker>
							<marker>
								<comment></comment>
								<name></name>
								<in>425</in>
								<out>-1</out>
								<pproColor>4292277273</pproColor>
							</marker>
						<labels>
							<label2>Forest</label2>
						</labels>
					</clipitem>
					<clipitem id="clipitem-1891">
						<masterclipid>masterclip-837</masterclipid>
						<name>3</name>
						<enabled>FALSE</enabled>
						<duration>1125</duration>
						<rate>
							<timebase>25</timebase>
							<ntsc>FALSE</ntsc>
						</rate>
						<start>50866</start>
						<end>51241</end>
						<in>0</in>
						<out>375</out>
						<pproTicksIn>0</pproTicksIn>
						<pproTicksOut>3810240000000</pproTicksOut>
						<sequence id="sequence-154" TL.SQAudioVisibleBase="0" TL.SQVideoVisibleBase="0" TL.SQVisibleBaseTime="0" TL.SQAVDividerPosition="0.5" TL.SQHideShyTracks="0" TL.SQHeaderWidth="236" Monitor.ProgramZoomOut="11430720000000" Monitor.ProgramZoomIn="0" TL.SQTimePerPixel="0.19620667102680819" AM.TrackVScrollPosition="0" AM.TrackScrollPosition="0" MZ.EditLine="7691604480000" MZ.Sequence.PreviewFrameSizeHeight="576" MZ.Sequence.PreviewFrameSizeWidth="720" MZ.Sequence.AudioTimeDisplayFormat="200" MZ.Sequence.PreviewRenderingClassID="1061109567" MZ.Sequence.PreviewRenderingPresetCodec="1685480304" MZ.Sequence.PreviewRenderingPresetPath="EncoderPresets/SequencePreview/04be6e19-a018-4e0c-a9d6-0ab44c64752b/QuickTime DV PAL.epr" MZ.Sequence.PreviewUseMaxRenderQuality="false" MZ.Sequence.PreviewUseMaxBitDepth="false" MZ.Sequence.EditingModeGUID="04be6e19-a018-4e0c-a9d6-0ab44c64752b" MZ.Sequence.VideoTimeDisplayFormat="101" MZ.WorkOutPoint="11430720000000" MZ.WorkInPoint="0" MZ.ZeroPoint="0">
							<duration>1125</duration>
							<rate>
								<timebase>25</timebase>
								<ntsc>FALSE</ntsc>
							</rate>
							<name>RU_Nested</name>
							<media>
								<video>
									<format>
										<samplecharacteristics>
											<rate>
												<timebase>25</timebase>
												<ntsc>FALSE</ntsc>
											</rate>
											<codec>
												<name>Apple ProRes 422</name>
												<appspecificdata>
													<appname>Final Cut Pro</appname>
													<appmanufacturer>Apple Inc.</appmanufacturer>
													<appversion>7.0</appversion>
													<data>
														<qtcodec>
															<codecname>Apple ProRes 422</codecname>
															<codectypename>Apple ProRes 422</codectypename>
															<codectypecode>apcn</codectypecode>
															<codecvendorcode>appl</codecvendorcode>
															<spatialquality>1024</spatialquality>
															<temporalquality>0</temporalquality>
															<keyframerate>0</keyframerate>
															<datarate>0</datarate>
														</qtcodec>
													</data>
												</appspecificdata>
											</codec>
											<width>720</width>
											<height>576</height>
											<anamorphic>TRUE</anamorphic>
											<pixelaspectratio>PAL-601</pixelaspectratio>
											<fielddominance>lower</fielddominance>
											<colordepth>24</colordepth>
										</samplecharacteristics>
									</format>
									<track TL.SQTrackShy="0" TL.SQTrackExpandedHeight="25" TL.SQTrackExpanded="0" MZ.TrackTargeted="1">
										<clipitem id="clipitem-1892">
											<masterclipid>masterclip-838</masterclipid>
											<name>Plashka_Right_DV.mov</name>
											<enabled>TRUE</enabled>
											<duration>375</duration>
											<rate>
												<timebase>25</timebase>
												<ntsc>FALSE</ntsc>
											</rate>
											<start>0</start>
											<end>375</end>
											<in>0</in>
											<out>375</out>
											<pproTicksIn>0</pproTicksIn>
											<pproTicksOut>3810240000000</pproTicksOut>
											<alphatype>straight</alphatype>
											<pixelaspectratio>PAL-601</pixelaspectratio>
											<anamorphic>TRUE</anamorphic>
											<file id="file-694">
												<name>Plashka_Right_DV.mov</name>
												<pathurl>file://localhost/Volumes/1Tb/_MUZ_TV/graphika/RU-21/MOD/Plashka_Right_DV.mov</pathurl>
												<rate>
													<timebase>25</timebase>
													<ntsc>FALSE</ntsc>
												</rate>
												<duration>375</duration>
												<timecode>
													<rate>
														<timebase>25</timebase>
														<ntsc>FALSE</ntsc>
													</rate>
													<string>00:00:15:10</string>
													<frame>385</frame>
													<displayformat>NDF</displayformat>
												</timecode>
												<media>
													<video>
														<samplecharacteristics>
															<rate>
																<timebase>25</timebase>
																<ntsc>FALSE</ntsc>
															</rate>
															<width>720</width>
															<height>576</height>
															<anamorphic>TRUE</anamorphic>
															<pixelaspectratio>PAL-601</pixelaspectratio>
															<fielddominance>lower</fielddominance>
														</samplecharacteristics>
													</video>
												</media>
											</file>
											<filter>
												<effect>
													<name>Basic Motion</name>
													<effectid>basic</effectid>
													<effectcategory>motion</effectcategory>
													<effecttype>motion</effecttype>
													<mediatype>video</mediatype>
													<pproBypass>false</pproBypass>
													<parameter authoringApp="PremierePro">
														<parameterid>scale</parameterid>
														<name>Scale</name>
														<valuemin>0</valuemin>
														<valuemax>1000</valuemax>
														<value>100</value>
													</parameter>
													<parameter authoringApp="PremierePro">
														<parameterid>rotation</parameterid>
														<name>Rotation</name>
														<valuemin>-8640</valuemin>
														<valuemax>8640</valuemax>
														<value>0</value>
													</parameter>
													<parameter authoringApp="PremierePro">
														<parameterid>center</parameterid>
														<name>Center</name>
														<value>
															<horiz>-5.55112e-17</horiz>
															<vert>-1.11022e-16</vert>
														</value>
													</parameter>
													<parameter authoringApp="PremierePro">
														<parameterid>centerOffset</parameterid>
														<name>Anchor Point</name>
														<value>
															<horiz>0.402314</horiz>
															<vert>0.41875</vert>
														</value>
													</parameter>
													<parameter authoringApp="PremierePro">
														<parameterid>antiflicker</parameterid>
														<name>Anti-flicker Filter</name>
														<valuemin>0.0</valuemin>
														<valuemax>1.0</valuemax>
														<value>0</value>
													</parameter>
												</effect>
											</filter>
											<filter>
												<effect>
													<name>Distort</name>
													<effectid>deformation</effectid>
													<effectcategory>motion</effectcategory>
													<effecttype>motion</effecttype>
													<mediatype>video</mediatype>
													<parameter authoringApp="PremierePro">
														<parameterid>aspect</parameterid>
														<name>Aspect</name>
														<valuemin>-10000</valuemin>
														<valuemax>10000</valuemax>
														<value>11.1111</value>
													</parameter>
												</effect>
											</filter>
											<logginginfo>
												<description></description>
												<scene></scene>
												<shottake></shottake>
												<lognote></lognote>
												<good></good>
												<originalvideofilename></originalvideofilename>
												<originalaudiofilename></originalaudiofilename>
											</logginginfo>
											<colorinfo>
												<lut></lut>
												<lut1></lut1>
												<asc_sop></asc_sop>
												<asc_sat></asc_sat>
												<lut2></lut2>
											</colorinfo>
											<labels>
												<label2>Violet</label2>
											</labels>
										</clipitem>
										<clipitem id="clipitem-1893">
											<masterclipid>masterclip-838</masterclipid>
											<name>Plashka_Right_DV.mov</name>
											<enabled>TRUE</enabled>
											<duration>375</duration>
											<rate>
												<timebase>25</timebase>
												<ntsc>FALSE</ntsc>
											</rate>
											<start>375</start>
											<end>750</end>
											<in>0</in>
											<out>375</out>
											<pproTicksIn>0</pproTicksIn>
											<pproTicksOut>3810240000000</pproTicksOut>
											<alphatype>straight</alphatype>
											<file id="file-694"/>
											<filter>
												<effect>
													<name>Basic Motion</name>
													<effectid>basic</effectid>
													<effectcategory>motion</effectcategory>
													<effecttype>motion</effecttype>
													<mediatype>video</mediatype>
													<pproBypass>false</pproBypass>
													<parameter authoringApp="PremierePro">
														<parameterid>scale</parameterid>
														<name>Scale</name>
														<valuemin>0</valuemin>
														<valuemax>1000</valuemax>
														<value>100</value>
													</parameter>
													<parameter authoringApp="PremierePro">
														<parameterid>rotation</parameterid>
														<name>Rotation</name>
														<valuemin>-8640</valuemin>
														<valuemax>8640</valuemax>
														<value>0</value>
													</parameter>
													<parameter authoringApp="PremierePro">
														<parameterid>center</parameterid>
														<name>Center</name>
														<value>
															<horiz>-5.55112e-17</horiz>
															<vert>-1.11022e-16</vert>
														</value>
													</parameter>
													<parameter authoringApp="PremierePro">
														<parameterid>centerOffset</parameterid>
														<name>Anchor Point</name>
														<value>
															<horiz>0.402314</horiz>
															<vert>0.41875</vert>
														</value>
													</parameter>
													<parameter authoringApp="PremierePro">
														<parameterid>antiflicker</parameterid>
														<name>Anti-flicker Filter</name>
														<valuemin>0.0</valuemin>
														<valuemax>1.0</valuemax>
														<value>0</value>
													</parameter>
												</effect>
											</filter>
											<filter>
												<effect>
													<name>Distort</name>
													<effectid>deformation</effectid>
													<effectcategory>motion</effectcategory>
													<effecttype>motion</effecttype>
													<mediatype>video</mediatype>
													<parameter authoringApp="PremierePro">
														<parameterid>aspect</parameterid>
														<name>Aspect</name>
														<valuemin>-10000</valuemin>
														<valuemax>10000</valuemax>
														<value>11.1111</value>
													</parameter>
												</effect>
											</filter>
											<logginginfo>
												<description></description>
												<scene></scene>
												<shottake></shottake>
												<lognote></lognote>
												<good></good>
												<originalvideofilename></originalvideofilename>
												<originalaudiofilename></originalaudiofilename>
											</logginginfo>
											<colorinfo>
												<lut></lut>
												<lut1></lut1>
												<asc_sop></asc_sop>
												<asc_sat></asc_sat>
												<lut2></lut2>
											</colorinfo>
											<labels>
												<label2>Violet</label2>
											</labels>
										</clipitem>
										<clipitem id="clipitem-1894">
											<masterclipid>masterclip-838</masterclipid>
											<name>Plashka_Right_DV.mov</name>
											<enabled>TRUE</enabled>
											<duration>375</duration>
											<rate>
												<timebase>25</timebase>
												<ntsc>FALSE</ntsc>
											</rate>
											<start>750</start>
											<end>1125</end>
											<in>0</in>
											<out>375</out>
											<pproTicksIn>0</pproTicksIn>
											<pproTicksOut>3810240000000</pproTicksOut>
											<alphatype>straight</alphatype>
											<file id="file-694"/>
											<filter>
												<effect>
													<name>Basic Motion</name>
													<effectid>basic</effectid>
													<effectcategory>motion</effectcategory>
													<effecttype>motion</effecttype>
													<mediatype>video</mediatype>
													<pproBypass>false</pproBypass>
													<parameter authoringApp="PremierePro">
														<parameterid>scale</parameterid>
														<name>Scale</name>
														<valuemin>0</valuemin>
														<valuemax>1000</valuemax>
														<value>100</value>
													</parameter>
													<parameter authoringApp="PremierePro">
														<parameterid>rotation</parameterid>
														<name>Rotation</name>
														<valuemin>-8640</valuemin>
														<valuemax>8640</valuemax>
														<value>0</value>
													</parameter>
													<parameter authoringApp="PremierePro">
														<parameterid>center</parameterid>
														<name>Center</name>
														<value>
															<horiz>-5.55112e-17</horiz>
															<vert>-1.11022e-16</vert>
														</value>
													</parameter>
													<parameter authoringApp="PremierePro">
														<parameterid>centerOffset</parameterid>
														<name>Anchor Point</name>
														<value>
															<horiz>0.402314</horiz>
															<vert>0.41875</vert>
														</value>
													</parameter>
													<parameter authoringApp="PremierePro">
														<parameterid>antiflicker</parameterid>
														<name>Anti-flicker Filter</name>
														<valuemin>0.0</valuemin>
														<valuemax>1.0</valuemax>
														<value>0</value>
													</parameter>
												</effect>
											</filter>
											<filter>
												<effect>
													<name>Distort</name>
													<effectid>deformation</effectid>
													<effectcategory>motion</effectcategory>
													<effecttype>motion</effecttype>
													<mediatype>video</mediatype>
													<parameter authoringApp="PremierePro">
														<parameterid>aspect</parameterid>
														<name>Aspect</name>
														<valuemin>-10000</valuemin>
														<valuemax>10000</valuemax>
														<value>11.1111</value>
													</parameter>
												</effect>
											</filter>
											<logginginfo>
												<description></description>
												<scene></scene>
												<shottake></shottake>
												<lognote></lognote>
												<good></good>
												<originalvideofilename></originalvideofilename>
												<originalaudiofilename></originalaudiofilename>
											</logginginfo>
											<colorinfo>
												<lut></lut>
												<lut1></lut1>
												<asc_sop></asc_sop>
												<asc_sat></asc_sat>
												<lut2></lut2>
											</colorinfo>
											<labels>
												<label2>Violet</label2>
											</labels>
										</clipitem>
										<enabled>TRUE</enabled>
										<locked>FALSE</locked>
									</track>
									<track TL.SQTrackShy="0" TL.SQTrackExpandedHeight="25" TL.SQTrackExpanded="0" MZ.TrackTargeted="0">
										<transitionitem>
											<start>6</start>
											<end>35</end>
											<alignment>start-black</alignment>
											<cutPointTicks>0</cutPointTicks>
											<rate>
												<timebase>25</timebase>
												<ntsc>FALSE</ntsc>
											</rate>
											<effect>
												<name>Edge Wipe</name>
												<effectid>Edge Wipe</effectid>
												<effectcategory>Wipe</effectcategory>
												<effecttype>transition</effecttype>
												<mediatype>video</mediatype>
												<wipecode>2</wipecode>
												<wipeaccuracy>100</wipeaccuracy>
												<startratio>0</startratio>
												<endratio>1</endratio>
												<reverse>FALSE</reverse>
												<parameter authoringApp="PremierePro">
													<parameterid>directionofwipe</parameterid>
													<name>Angle</name>
													<valuemin>-360</valuemin>
													<valuemax>360</valuemax>
													<value>270</value>
												</parameter>
											</effect>
										</transitionitem>
										<clipitem id="clipitem-1895">
											<masterclipid>masterclip-839</masterclipid>
											<name>3_1.png</name>
											<enabled>TRUE</enabled>
											<duration>1080000</duration>
											<rate>
												<timebase>25</timebase>
												<ntsc>FALSE</ntsc>
											</rate>
											<start>-1</start>
											<end>-1</end>
											<in>90006</in>
											<out>90369</out>
											<pproTicksIn>914518563840000</pproTicksIn>
											<pproTicksOut>918206876160000</pproTicksOut>
											<alphatype>straight</alphatype>
											<pixelaspectratio>square</pixelaspectratio>
											<anamorphic>FALSE</anamorphic>
											<file id="file-695">
												<name>3_1.png</name>
												<pathurl>file://localhost/_MUZ_TV/project_AP/RU/_TITLE/468/PNG/3_1.png</pathurl>
												<rate>
													<timebase>30</timebase>
													<ntsc>TRUE</ntsc>
												</rate>
												<timecode>
													<rate>
														<timebase>30</timebase>
														<ntsc>TRUE</ntsc>
													</rate>
													<string>00;00;00;00</string>
													<frame>0</frame>
													<displayformat>DF</displayformat>
												</timecode>
												<media>
													<video>
														<samplecharacteristics>
															<rate>
																<timebase>30</timebase>
																<ntsc>TRUE</ntsc>
															</rate>
															<width>1920</width>
															<height>1080</height>
															<anamorphic>FALSE</anamorphic>
															<pixelaspectratio>square</pixelaspectratio>
															<fielddominance>none</fielddominance>
														</samplecharacteristics>
													</video>
												</media>
											</file>
											<filter>
												<effect>
													<name>Basic Motion</name>
													<effectid>basic</effectid>
													<effectcategory>motion</effectcategory>
													<effecttype>motion</effecttype>
													<mediatype>video</mediatype>
													<pproBypass>false</pproBypass>
													<parameter authoringApp="PremierePro">
														<parameterid>scale</parameterid>
														<name>Scale</name>
														<valuemin>0</valuemin>
														<valuemax>1000</valuemax>
														<value>53.3333</value>
													</parameter>
													<parameter authoringApp="PremierePro">
														<parameterid>rotation</parameterid>
														<name>Rotation</name>
														<valuemin>-8640</valuemin>
														<valuemax>8640</valuemax>
														<value>0</value>
													</parameter>
													<parameter authoringApp="PremierePro">
														<parameterid>center</parameterid>
														<name>Center</name>
														<value>
															<horiz>0</horiz>
															<vert>0</vert>
														</value>
													</parameter>
													<parameter authoringApp="PremierePro">
														<parameterid>centerOffset</parameterid>
														<name>Anchor Point</name>
														<value>
															<horiz>0</horiz>
															<vert>0</vert>
														</value>
													</parameter>
													<parameter authoringApp="PremierePro">
														<parameterid>antiflicker</parameterid>
														<name>Anti-flicker Filter</name>
														<valuemin>0.0</valuemin>
														<valuemax>1.0</valuemax>
														<value>0</value>
													</parameter>
												</effect>
											</filter>
											<logginginfo>
												<description></description>
												<scene></scene>
												<shottake></shottake>
												<lognote></lognote>
												<good></good>
												<originalvideofilename></originalvideofilename>
												<originalaudiofilename></originalaudiofilename>
											</logginginfo>
											<colorinfo>
												<lut></lut>
												<lut1></lut1>
												<asc_sop></asc_sop>
												<asc_sat></asc_sat>
												<lut2></lut2>
											</colorinfo>
											<labels>
												<label2>Lavender</label2>
											</labels>
										</clipitem>
										<transitionitem>
											<start>344</start>
											<end>369</end>
											<alignment>end-black</alignment>
											<cutPointTicks>254016000000</cutPointTicks>
											<rate>
												<timebase>25</timebase>
												<ntsc>FALSE</ntsc>
											</rate>
											<effect>
												<name>Edge Wipe</name>
												<effectid>Edge Wipe</effectid>
												<effectcategory>Wipe</effectcategory>
												<effecttype>transition</effecttype>
												<mediatype>video</mediatype>
												<wipecode>2</wipecode>
												<wipeaccuracy>100</wipeaccuracy>
												<startratio>0</startratio>
												<endratio>1</endratio>
												<reverse>FALSE</reverse>
												<parameter authoringApp="PremierePro">
													<parameterid>directionofwipe</parameterid>
													<name>Angle</name>
													<valuemin>-360</valuemin>
													<valuemax>360</valuemax>
													<value>90</value>
												</parameter>
											</effect>
										</transitionitem>
										<transitionitem>
											<start>381</start>
											<end>410</end>
											<alignment>start-black</alignment>
											<cutPointTicks>0</cutPointTicks>
											<rate>
												<timebase>25</timebase>
												<ntsc>FALSE</ntsc>
											</rate>
											<effect>
												<name>Edge Wipe</name>
												<effectid>Edge Wipe</effectid>
												<effectcategory>Wipe</effectcategory>
												<effecttype>transition</effecttype>
												<mediatype>video</mediatype>
												<wipecode>2</wipecode>
												<wipeaccuracy>100</wipeaccuracy>
												<startratio>0</startratio>
												<endratio>1</endratio>
												<reverse>FALSE</reverse>
												<parameter authoringApp="PremierePro">
													<parameterid>directionofwipe</parameterid>
													<name>Angle</name>
													<valuemin>-360</valuemin>
													<valuemax>360</valuemax>
													<value>270</value>
												</parameter>
											</effect>
										</transitionitem>
										<clipitem id="clipitem-1896">
											<masterclipid>masterclip-840</masterclipid>
											<name>3_2.png</name>
											<enabled>TRUE</enabled>
											<duration>1080000</duration>
											<rate>
												<timebase>25</timebase>
												<ntsc>FALSE</ntsc>
											</rate>
											<start>-1</start>
											<end>-1</end>
											<in>90011</in>
											<out>90374</out>
											<pproTicksIn>914569367040000</pproTicksIn>
											<pproTicksOut>918257679360000</pproTicksOut>
											<alphatype>straight</alphatype>
											<pixelaspectratio>square</pixelaspectratio>
											<anamorphic>FALSE</anamorphic>
											<file id="file-696">
												<name>3_2.png</name>
												<pathurl>file://localhost/_MUZ_TV/project_AP/RU/_TITLE/468/PNG/3_2.png</pathurl>
												<rate>
													<timebase>30</timebase>
													<ntsc>TRUE</ntsc>
												</rate>
												<timecode>
													<rate>
														<timebase>30</timebase>
														<ntsc>TRUE</ntsc>
													</rate>
													<string>00;00;00;00</string>
													<frame>0</frame>
													<displayformat>DF</displayformat>
												</timecode>
												<media>
													<video>
														<samplecharacteristics>
															<rate>
																<timebase>30</timebase>
																<ntsc>TRUE</ntsc>
															</rate>
															<width>1920</width>
															<height>1080</height>
															<anamorphic>FALSE</anamorphic>
															<pixelaspectratio>square</pixelaspectratio>
															<fielddominance>none</fielddominance>
														</samplecharacteristics>
													</video>
												</media>
											</file>
											<filter>
												<effect>
													<name>Basic Motion</name>
													<effectid>basic</effectid>
													<effectcategory>motion</effectcategory>
													<effecttype>motion</effecttype>
													<mediatype>video</mediatype>
													<pproBypass>false</pproBypass>
													<parameter authoringApp="PremierePro">
														<parameterid>scale</parameterid>
														<name>Scale</name>
														<valuemin>0</valuemin>
														<valuemax>1000</valuemax>
														<value>53.3333</value>
													</parameter>
													<parameter authoringApp="PremierePro">
														<parameterid>rotation</parameterid>
														<name>Rotation</name>
														<valuemin>-8640</valuemin>
														<valuemax>8640</valuemax>
														<value>0</value>
													</parameter>
													<parameter authoringApp="PremierePro">
														<parameterid>center</parameterid>
														<name>Center</name>
														<value>
															<horiz>0</horiz>
															<vert>0</vert>
														</value>
													</parameter>
													<parameter authoringApp="PremierePro">
														<parameterid>centerOffset</parameterid>
														<name>Anchor Point</name>
														<value>
															<horiz>0</horiz>
															<vert>0</vert>
														</value>
													</parameter>
													<parameter authoringApp="PremierePro">
														<parameterid>antiflicker</parameterid>
														<name>Anti-flicker Filter</name>
														<valuemin>0.0</valuemin>
														<valuemax>1.0</valuemax>
														<value>0</value>
													</parameter>
												</effect>
											</filter>
											<logginginfo>
												<description></description>
												<scene></scene>
												<shottake></shottake>
												<lognote></lognote>
												<good></good>
												<originalvideofilename></originalvideofilename>
												<originalaudiofilename></originalaudiofilename>
											</logginginfo>
											<colorinfo>
												<lut></lut>
												<lut1></lut1>
												<asc_sop></asc_sop>
												<asc_sat></asc_sat>
												<lut2></lut2>
											</colorinfo>
											<labels>
												<label2>Lavender</label2>
											</labels>
										</clipitem>
										<transitionitem>
											<start>719</start>
											<end>744</end>
											<alignment>end-black</alignment>
											<cutPointTicks>254016000000</cutPointTicks>
											<rate>
												<timebase>25</timebase>
												<ntsc>FALSE</ntsc>
											</rate>
											<effect>
												<name>Edge Wipe</name>
												<effectid>Edge Wipe</effectid>
												<effectcategory>Wipe</effectcategory>
												<effecttype>transition</effecttype>
												<mediatype>video</mediatype>
												<wipecode>2</wipecode>
												<wipeaccuracy>100</wipeaccuracy>
												<startratio>0</startratio>
												<endratio>1</endratio>
												<reverse>FALSE</reverse>
												<parameter authoringApp="PremierePro">
													<parameterid>directionofwipe</parameterid>
													<name>Angle</name>
													<valuemin>-360</valuemin>
													<valuemax>360</valuemax>
													<value>90</value>
												</parameter>
											</effect>
										</transitionitem>
										<transitionitem>
											<start>756</start>
											<end>785</end>
											<alignment>start-black</alignment>
											<cutPointTicks>0</cutPointTicks>
											<rate>
												<timebase>25</timebase>
												<ntsc>FALSE</ntsc>
											</rate>
											<effect>
												<name>Edge Wipe</name>
												<effectid>Edge Wipe</effectid>
												<effectcategory>Wipe</effectcategory>
												<effecttype>transition</effecttype>
												<mediatype>video</mediatype>
												<wipecode>2</wipecode>
												<wipeaccuracy>100</wipeaccuracy>
												<startratio>0</startratio>
												<endratio>1</endratio>
												<reverse>FALSE</reverse>
												<parameter authoringApp="PremierePro">
													<parameterid>directionofwipe</parameterid>
													<name>Angle</name>
													<valuemin>-360</valuemin>
													<valuemax>360</valuemax>
													<value>270</value>
												</parameter>
											</effect>
										</transitionitem>
										<clipitem id="clipitem-1897">
											<masterclipid>masterclip-841</masterclipid>
											<name>3_3.png</name>
											<enabled>TRUE</enabled>
											<duration>1080000</duration>
											<rate>
												<timebase>25</timebase>
												<ntsc>FALSE</ntsc>
											</rate>
											<start>-1</start>
											<end>-1</end>
											<in>90011</in>
											<out>90375</out>
											<pproTicksIn>914569367040000</pproTicksIn>
											<pproTicksOut>918267840000000</pproTicksOut>
											<alphatype>straight</alphatype>
											<pixelaspectratio>square</pixelaspectratio>
											<anamorphic>FALSE</anamorphic>
											<file id="file-697">
												<name>3_3.png</name>
												<pathurl>file://localhost/_MUZ_TV/project_AP/RU/_TITLE/468/PNG/3_3.png</pathurl>
												<rate>
													<timebase>30</timebase>
													<ntsc>TRUE</ntsc>
												</rate>
												<timecode>
													<rate>
														<timebase>30</timebase>
														<ntsc>TRUE</ntsc>
													</rate>
													<string>00;00;00;00</string>
													<frame>0</frame>
													<displayformat>DF</displayformat>
												</timecode>
												<media>
													<video>
														<samplecharacteristics>
															<rate>
																<timebase>30</timebase>
																<ntsc>TRUE</ntsc>
															</rate>
															<width>1920</width>
															<height>1080</height>
															<anamorphic>FALSE</anamorphic>
															<pixelaspectratio>square</pixelaspectratio>
															<fielddominance>none</fielddominance>
														</samplecharacteristics>
													</video>
												</media>
											</file>
											<filter>
												<effect>
													<name>Basic Motion</name>
													<effectid>basic</effectid>
													<effectcategory>motion</effectcategory>
													<effecttype>motion</effecttype>
													<mediatype>video</mediatype>
													<pproBypass>false</pproBypass>
													<parameter authoringApp="PremierePro">
														<parameterid>scale</parameterid>
														<name>Scale</name>
														<valuemin>0</valuemin>
														<valuemax>1000</valuemax>
														<value>53.3333</value>
													</parameter>
													<parameter authoringApp="PremierePro">
														<parameterid>rotation</parameterid>
														<name>Rotation</name>
														<valuemin>-8640</valuemin>
														<valuemax>8640</valuemax>
														<value>0</value>
													</parameter>
													<parameter authoringApp="PremierePro">
														<parameterid>center</parameterid>
														<name>Center</name>
														<value>
															<horiz>0</horiz>
															<vert>0</vert>
														</value>
													</parameter>
													<parameter authoringApp="PremierePro">
														<parameterid>centerOffset</parameterid>
														<name>Anchor Point</name>
														<value>
															<horiz>0</horiz>
															<vert>0</vert>
														</value>
													</parameter>
													<parameter authoringApp="PremierePro">
														<parameterid>antiflicker</parameterid>
														<name>Anti-flicker Filter</name>
														<valuemin>0.0</valuemin>
														<valuemax>1.0</valuemax>
														<value>0</value>
													</parameter>
												</effect>
											</filter>
											<logginginfo>
												<description></description>
												<scene></scene>
												<shottake></shottake>
												<lognote></lognote>
												<good></good>
												<originalvideofilename></originalvideofilename>
												<originalaudiofilename></originalaudiofilename>
											</logginginfo>
											<colorinfo>
												<lut></lut>
												<lut1></lut1>
												<asc_sop></asc_sop>
												<asc_sat></asc_sat>
												<lut2></lut2>
											</colorinfo>
											<labels>
												<label2>Lavender</label2>
											</labels>
										</clipitem>
										<transitionitem>
											<start>1095</start>
											<end>1120</end>
											<alignment>end-black</alignment>
											<cutPointTicks>254016000000</cutPointTicks>
											<rate>
												<timebase>25</timebase>
												<ntsc>FALSE</ntsc>
											</rate>
											<effect>
												<name>Edge Wipe</name>
												<effectid>Edge Wipe</effectid>
												<effectcategory>Wipe</effectcategory>
												<effecttype>transition</effecttype>
												<mediatype>video</mediatype>
												<wipecode>2</wipecode>
												<wipeaccuracy>100</wipeaccuracy>
												<startratio>0</startratio>
												<endratio>1</endratio>
												<reverse>FALSE</reverse>
												<parameter authoringApp="PremierePro">
													<parameterid>directionofwipe</parameterid>
													<name>Angle</name>
													<valuemin>-360</valuemin>
													<valuemax>360</valuemax>
													<value>90</value>
												</parameter>
											</effect>
										</transitionitem>
										<enabled>TRUE</enabled>
										<locked>FALSE</locked>
									</track>
									<track TL.SQTrackShy="0" TL.SQTrackExpandedHeight="25" TL.SQTrackExpanded="0" MZ.TrackTargeted="0">
										<transitionitem>
											<start>755</start>
											<end>780</end>
											<alignment>start-black</alignment>
											<cutPointTicks>0</cutPointTicks>
											<rate>
												<timebase>25</timebase>
												<ntsc>FALSE</ntsc>
											</rate>
											<effect>
												<name>Edge Wipe</name>
												<effectid>Edge Wipe</effectid>
												<effectcategory>Wipe</effectcategory>
												<effecttype>transition</effecttype>
												<mediatype>video</mediatype>
												<wipecode>2</wipecode>
												<wipeaccuracy>100</wipeaccuracy>
												<startratio>0</startratio>
												<endratio>1</endratio>
												<reverse>FALSE</reverse>
												<parameter authoringApp="PremierePro">
													<parameterid>directionofwipe</parameterid>
													<name>Angle</name>
													<valuemin>-360</valuemin>
													<valuemax>360</valuemax>
													<value>270</value>
												</parameter>
											</effect>
										</transitionitem>
										<clipitem id="clipitem-1898">
											<masterclipid>masterclip-842</masterclipid>
											<name>Graphic</name>
											<enabled>FALSE</enabled>
											<duration>1080000</duration>
											<rate>
												<timebase>25</timebase>
												<ntsc>FALSE</ntsc>
											</rate>
											<start>-1</start>
											<end>-1</end>
											<in>89905</in>
											<out>90272</out>
											<pproTicksIn>913492339200000</pproTicksIn>
											<pproTicksOut>917221294080000</pproTicksOut>
											<alphatype>straight</alphatype>
											<pixelaspectratio>PAL-601</pixelaspectratio>
											<anamorphic>TRUE</anamorphic>
											<file id="file-698">
												<name>Graphic</name>
												<mediaSource>GraphicAndType</mediaSource>
												<rate>
													<timebase>30</timebase>
													<ntsc>TRUE</ntsc>
												</rate>
												<timecode>
													<rate>
														<timebase>30</timebase>
														<ntsc>TRUE</ntsc>
													</rate>
													<string>00;00;00;00</string>
													<frame>0</frame>
													<displayformat>DF</displayformat>
												</timecode>
												<media>
													<video>
														<samplecharacteristics>
															<rate>
																<timebase>30</timebase>
																<ntsc>TRUE</ntsc>
															</rate>
															<width>720</width>
															<height>576</height>
															<anamorphic>TRUE</anamorphic>
															<pixelaspectratio>PAL-601</pixelaspectratio>
															<fielddominance>none</fielddominance>
														</samplecharacteristics>
													</video>
												</media>
											</file>
											<filter>
												<effect>
													<name>Vector Motion</name>
													<effectid>GraphicGroup</effectid>
													<effectcategory>graphic</effectcategory>
													<effecttype>filter</effecttype>
													<mediatype>video</mediatype>
													<pproBypass>false</pproBypass>
													<parameter authoringApp="PremierePro">
														<parameterid>1</parameterid>
														<name>Position</name>
														<IsTimeVarying>false</IsTimeVarying>
														<value>-91445760000000000,0.81693898908787344:0.49085601568222115,0,0,0,0,0,0,5,4,0,0,0,0</value>
													</parameter>
													<parameter authoringApp="PremierePro">
														<parameterid>2</parameterid>
														<name>Scale</name>
														<IsTimeVarying>false</IsTimeVarying>
														<ParameterControlType>2</ParameterControlType>
														<LowerBound>0</LowerBound>
														<UpperBound>10000</UpperBound>
														<UpperUIBound>200</UpperUIBound>
														<value>-91445760000000000,100.,0,0,0,0,0,0</value>
													</parameter>
													<parameter authoringApp="PremierePro">
														<parameterid>3</parameterid>
														<name>Scale Width</name>
														<IsTimeVarying>false</IsTimeVarying>
														<ParameterControlType>2</ParameterControlType>
														<LowerBound>0</LowerBound>
														<UpperBound>10000</UpperBound>
														<UpperUIBound>200</UpperUIBound>
														<value>-91445760000000000,100.,0,0,0,0,0,0</value>
													</parameter>
													<parameter authoringApp="PremierePro">
														<parameterid>4</parameterid>
														<name> </name>
														<IsTimeVarying>false</IsTimeVarying>
														<ParameterControlType>4</ParameterControlType>
														<LowerBound>false</LowerBound>
														<UpperBound>true</UpperBound>
														<value>-91445760000000000,true,0,0,0,0,0,0</value>
													</parameter>
													<parameter authoringApp="PremierePro">
														<parameterid>5</parameterid>
														<name>Rotation</name>
														<IsTimeVarying>false</IsTimeVarying>
														<ParameterControlType>3</ParameterControlType>
														<LowerBound>-32768</LowerBound>
														<UpperBound>32767</UpperBound>
														<value>-91445760000000000,0.,0,0,0,0,0,0</value>
													</parameter>
													<parameter authoringApp="PremierePro">
														<parameterid>6</parameterid>
														<name>Anchor Point</name>
														<IsTimeVarying>false</IsTimeVarying>
														<value>-91445760000000000,0.5:0.5,0,0,0,0,0,0,5,4,0,0,0,0</value>
													</parameter>
												</effect>
											</filter>
											<filter>
												<effect>
													<name>Данил Прытков признаётся, &#13;что сильные провалы &#13;мотивируют его на творчество &#13;не меньше, чем победы. </name>
													<effectid>GraphicAndType</effectid>
													<effectcategory>graphic</effectcategory>
													<effecttype>filter</effecttype>
													<mediatype>video</mediatype>
													<pproBypass>false</pproBypass>
													<pproExpanded>true</pproExpanded>
													<parameter authoringApp="PremierePro">
														<parameterid>1</parameterid>
														<name>Source Text</name>
														<hash>698123b5-7d57-7b79-efb1-b0df00000a31</hash>
													</parameter>
													<parameter authoringApp="PremierePro">
														<parameterid>2</parameterid>
														<name>Transform</name>
														<IsTimeVarying>false</IsTimeVarying>
														<ParameterControlType>11</ParameterControlType>
														<LowerBound>false</LowerBound>
														<UpperBound>false</UpperBound>
														<value>-91445760000000000,false,0,0,0,0,0,0</value>
													</parameter>
													<parameter authoringApp="PremierePro">
														<parameterid>3</parameterid>
														<name>Position</name>
														<IsTimeVarying>false</IsTimeVarying>
														<value>-91445760000000000,0.270416259765625:0.640594482421875,0,0,0,0,0,0,5,4,0,0,0,0</value>
													</parameter>
													<parameter authoringApp="PremierePro">
														<parameterid>4</parameterid>
														<name>Scale</name>
														<IsTimeVarying>false</IsTimeVarying>
														<ParameterControlType>2</ParameterControlType>
														<LowerBound>0</LowerBound>
														<UpperBound>4000</UpperBound>
														<value>-91445760000000000,100.,0,0,0,0,0,0</value>
													</parameter>
													<parameter authoringApp="PremierePro">
														<parameterid>5</parameterid>
														<name>Horizontal Scale</name>
														<IsTimeVarying>false</IsTimeVarying>
														<ParameterControlType>2</ParameterControlType>
														<LowerBound>0</LowerBound>
														<UpperBound>4000</UpperBound>
														<value>-91445760000000000,100.,0,0,0,0,0,0</value>
													</parameter>
													<parameter authoringApp="PremierePro">
														<parameterid>6</parameterid>
														<name> </name>
														<IsTimeVarying>false</IsTimeVarying>
														<ParameterControlType>4</ParameterControlType>
														<LowerBound>false</LowerBound>
														<UpperBound>true</UpperBound>
														<value>-91445760000000000,true,0,0,0,0,0,0</value>
													</parameter>
													<parameter authoringApp="PremierePro">
														<parameterid>7</parameterid>
														<name>Rotation</name>
														<IsTimeVarying>false</IsTimeVarying>
														<ParameterControlType>3</ParameterControlType>
														<LowerBound>-32768</LowerBound>
														<UpperBound>32767</UpperBound>
														<value>-91445760000000000,0.,0,0,0,0,0,0</value>
													</parameter>
													<parameter authoringApp="PremierePro">
														<parameterid>8</parameterid>
														<name>Opacity</name>
														<IsTimeVarying>false</IsTimeVarying>
														<ParameterControlType>2</ParameterControlType>
														<LowerBound>0</LowerBound>
														<UpperBound>100</UpperBound>
														<value>-91445760000000000,100.,0,0,0,0,0,0</value>
													</parameter>
													<parameter authoringApp="PremierePro">
														<parameterid>9</parameterid>
														<name>Anchor Point</name>
														<IsTimeVarying>false</IsTimeVarying>
														<value>-91445760000000000,0:0,0,0,0,0,0,0,5,4,0,0,0,0</value>
													</parameter>
													<parameter authoringApp="PremierePro">
														<parameterid>10</parameterid>
														<name></name>
														<IsTimeVarying>false</IsTimeVarying>
														<ParameterControlType>12</ParameterControlType>
														<LowerBound>false</LowerBound>
														<UpperBound>false</UpperBound>
														<value>-91445760000000000,false,0,0,0,0,0,0</value>
													</parameter>
													<parameter authoringApp="PremierePro">
														<parameterid>11</parameterid>
														<name> </name>
														<IsTimeVarying>false</IsTimeVarying>
														<ParameterControlType>8</ParameterControlType>
														<LowerBound>0</LowerBound>
														<UpperBound>32768</UpperBound>
														<value>-91445760000000000,0.,0,0,0,0,0,0</value>
													</parameter>
													<parameter authoringApp="PremierePro">
														<parameterid>12</parameterid>
														<name> </name>
														<IsTimeVarying>false</IsTimeVarying>
														<ParameterControlType>8</ParameterControlType>
														<LowerBound>0</LowerBound>
														<UpperBound>32768</UpperBound>
														<value>-91445760000000000,0.,0,0,0,0,0,0</value>
													</parameter>
													<parameter authoringApp="PremierePro">
														<parameterid>13</parameterid>
														<name>start</name>
														<IsTimeVarying>false</IsTimeVarying>
														<ParameterControlType>8</ParameterControlType>
														<LowerBound>-100</LowerBound>
														<UpperBound>1000000000</UpperBound>
														<value>-91445760000000000,0.,0,0,0,0,0,0</value>
													</parameter>
													<parameter authoringApp="PremierePro">
														<parameterid>14</parameterid>
														<name>end</name>
														<IsTimeVarying>false</IsTimeVarying>
														<ParameterControlType>8</ParameterControlType>
														<LowerBound>-100</LowerBound>
														<UpperBound>1000000000</UpperBound>
														<value>-91445760000000000,101.,0,0,0,0,0,0</value>
													</parameter>
													<parameter authoringApp="PremierePro">
														<parameterid>15</parameterid>
														<name> </name>
														<IsTimeVarying>false</IsTimeVarying>
														<ParameterControlType>4</ParameterControlType>
														<LowerBound>false</LowerBound>
														<UpperBound>true</UpperBound>
														<value>-91445760000000000,false,0,0,0,0,0,0</value>
													</parameter>
													<parameter authoringApp="PremierePro">
														<parameterid>16</parameterid>
														<name> </name>
														<IsTimeVarying>false</IsTimeVarying>
														<ParameterControlType>4</ParameterControlType>
														<LowerBound>false</LowerBound>
														<UpperBound>true</UpperBound>
														<value>-91445760000000000,false,0,0,0,0,0,0</value>
													</parameter>
													<parameter authoringApp="PremierePro">
														<parameterid>17</parameterid>
														<name> </name>
														<IsTimeVarying>false</IsTimeVarying>
														<ParameterControlType>4</ParameterControlType>
														<LowerBound>false</LowerBound>
														<UpperBound>true</UpperBound>
														<value>-91445760000000000,false,0,0,0,0,0,0</value>
													</parameter>
													<parameter authoringApp="PremierePro">
														<parameterid>18</parameterid>
														<name> </name>
														<IsTimeVarying>false</IsTimeVarying>
														<ParameterControlType>4</ParameterControlType>
														<LowerBound>false</LowerBound>
														<UpperBound>true</UpperBound>
														<value>-91445760000000000,false,0,0,0,0,0,0</value>
													</parameter>
													<parameter authoringApp="PremierePro">
														<parameterid>19</parameterid>
														<name>Parent Width</name>
														<IsTimeVarying>false</IsTimeVarying>
														<ParameterControlType>2</ParameterControlType>
														<LowerBound>0</LowerBound>
														<UpperBound>20000</UpperBound>
														<value>-91445760000000000,0.,0,0,0,0,0,0</value>
													</parameter>
													<parameter authoringApp="PremierePro">
														<parameterid>20</parameterid>
														<name>Parent Height</name>
														<IsTimeVarying>false</IsTimeVarying>
														<ParameterControlType>2</ParameterControlType>
														<LowerBound>0</LowerBound>
														<UpperBound>20000</UpperBound>
														<value>-91445760000000000,0.,0,0,0,0,0,0</value>
													</parameter>
													<parameter authoringApp="PremierePro">
														<parameterid>21</parameterid>
														<name>Parent Rotation</name>
														<IsTimeVarying>false</IsTimeVarying>
														<ParameterControlType>3</ParameterControlType>
														<LowerBound>-32768</LowerBound>
														<UpperBound>32767</UpperBound>
														<value>-91445760000000000,0.,0,0,0,0,0,0</value>
													</parameter>
												</effect>
											</filter>
											<logginginfo>
												<description></description>
												<scene></scene>
												<shottake></shottake>
												<lognote></lognote>
												<good></good>
												<originalvideofilename></originalvideofilename>
												<originalaudiofilename></originalaudiofilename>
											</logginginfo>
											<colorinfo>
												<lut></lut>
												<lut1></lut1>
												<asc_sop></asc_sop>
												<asc_sat></asc_sat>
												<lut2></lut2>
											</colorinfo>
										</clipitem>
										<transitionitem>
											<start>1097</start>
											<end>1122</end>
											<alignment>end-black</alignment>
											<cutPointTicks>254016000000</cutPointTicks>
											<rate>
												<timebase>25</timebase>
												<ntsc>FALSE</ntsc>
											</rate>
											<effect>
												<name>Edge Wipe</name>
												<effectid>Edge Wipe</effectid>
												<effectcategory>Wipe</effectcategory>
												<effecttype>transition</effecttype>
												<mediatype>video</mediatype>
												<wipecode>2</wipecode>
												<wipeaccuracy>100</wipeaccuracy>
												<startratio>0</startratio>
												<endratio>1</endratio>
												<reverse>FALSE</reverse>
												<parameter authoringApp="PremierePro">
													<parameterid>directionofwipe</parameterid>
													<name>Angle</name>
													<valuemin>-360</valuemin>
													<valuemax>360</valuemax>
													<value>90</value>
												</parameter>
											</effect>
										</transitionitem>
										<enabled>TRUE</enabled>
										<locked>FALSE</locked>
									</track>
								</video>
								<audio>
									<numOutputChannels>2</numOutputChannels>
									<format>
										<samplecharacteristics>
											<depth>16</depth>
											<samplerate>48000</samplerate>
										</samplecharacteristics>
									</format>
									<outputs>
										<group>
											<index>1</index>
											<numchannels>1</numchannels>
											<downmix>0</downmix>
											<channel>
												<index>1</index>
											</channel>
										</group>
										<group>
											<index>2</index>
											<numchannels>1</numchannels>
											<downmix>0</downmix>
											<channel>
												<index>2</index>
											</channel>
										</group>
									</outputs>
									<track TL.SQTrackAudioKeyframeStyle="0" TL.SQTrackShy="0" TL.SQTrackExpandedHeight="25" TL.SQTrackExpanded="0" MZ.TrackTargeted="1" PannerCurrentValue="0.5" PannerStartKeyframe="-91445760000000000,0.5,0,0,0,0,0,0" PannerName="Balance" currentExplodedTrackIndex="0" totalExplodedTrackCount="2" premiereTrackType="Stereo">
										<enabled>TRUE</enabled>
										<locked>FALSE</locked>
										<outputchannelindex>1</outputchannelindex>
									</track>
									<track TL.SQTrackAudioKeyframeStyle="0" TL.SQTrackShy="0" TL.SQTrackExpandedHeight="25" TL.SQTrackExpanded="0" MZ.TrackTargeted="1" PannerCurrentValue="0.5" PannerStartKeyframe="-91445760000000000,0.5,0,0,0,0,0,0" PannerName="Balance" currentExplodedTrackIndex="1" totalExplodedTrackCount="2" premiereTrackType="Stereo">
										<enabled>TRUE</enabled>
										<locked>FALSE</locked>
										<outputchannelindex>2</outputchannelindex>
									</track>
								</audio>
							</media>
							<timecode>
								<rate>
									<timebase>25</timebase>
									<ntsc>FALSE</ntsc>
								</rate>
								<string>00:00:00:00</string>
								<frame>0</frame>
								<displayformat>NDF</displayformat>
							</timecode>
								<marker>
									<comment></comment>
									<name></name>
									<in>425</in>
									<out>-1</out>
									<pproColor>4292277273</pproColor>
								</marker>
								<marker>
									<comment></comment>
									<name></name>
									<in>800</in>
									<out>-1</out>
									<pproColor>4292277273</pproColor>
								</marker>
								<marker>
									<comment></comment>
									<name></name>
									<in>50</in>
									<out>-1</out>
									<pproColor>4292277273</pproColor>
								</marker>
							<logginginfo>
								<description></description>
								<scene></scene>
								<shottake></shottake>
								<lognote></lognote>
								<good></good>
								<originalvideofilename></originalvideofilename>
								<originalaudiofilename></originalaudiofilename>
							</logginginfo>
						</sequence>
							<marker>
								<comment></comment>
								<name></name>
								<in>425</in>
								<out>-1</out>
								<pproColor>4292277273</pproColor>
							</marker>
							<marker>
								<comment></comment>
								<name></name>
								<in>800</in>
								<out>-1</out>
								<pproColor>4292277273</pproColor>
							</marker>
							<marker>
								<comment></comment>
								<name></name>
								<in>50</in>
								<out>-1</out>
								<pproColor>4292277273</pproColor>
							</marker>
						<labels>
							<label2>Forest</label2>
						</labels>
					</clipitem>
					<clipitem id="clipitem-1899">
						<masterclipid>masterclip-837</masterclipid>
						<name>3</name>
						<enabled>FALSE</enabled>
						<duration>1125</duration>
						<rate>
							<timebase>25</timebase>
							<ntsc>FALSE</ntsc>
						</rate>
						<start>51974</start>
						<end>52349</end>
						<in>375</in>
						<out>750</out>
						<pproTicksIn>3810240000000</pproTicksIn>
						<pproTicksOut>7620480000000</pproTicksOut>
						<sequence id="sequence-154"/>
							<marker>
								<comment></comment>
								<name></name>
								<in>425</in>
								<out>-1</out>
								<pproColor>4292277273</pproColor>
							</marker>
							<marker>
								<comment></comment>
								<name></name>
								<in>800</in>
								<out>-1</out>
								<pproColor>4292277273</pproColor>
							</marker>
							<marker>
								<comment></comment>
								<name></name>
								<in>50</in>
								<out>-1</out>
								<pproColor>4292277273</pproColor>
							</marker>
						<labels>
							<label2>Forest</label2>
						</labels>
					</clipitem>
					<clipitem id="clipitem-1900">
						<masterclipid>masterclip-837</masterclipid>
						<name>3</name>
						<enabled>FALSE</enabled>
						<duration>1125</duration>
						<rate>
							<timebase>25</timebase>
							<ntsc>FALSE</ntsc>
						</rate>
						<start>53082</start>
						<end>53457</end>
						<in>750</in>
						<out>1125</out>
						<pproTicksIn>7620480000000</pproTicksIn>
						<pproTicksOut>11430720000000</pproTicksOut>
						<sequence id="sequence-154"/>
							<marker>
								<comment></comment>
								<name></name>
								<in>425</in>
								<out>-1</out>
								<pproColor>4292277273</pproColor>
							</marker>
							<marker>
								<comment></comment>
								<name></name>
								<in>800</in>
								<out>-1</out>
								<pproColor>4292277273</pproColor>
							</marker>
							<marker>
								<comment></comment>
								<name></name>
								<in>50</in>
								<out>-1</out>
								<pproColor>4292277273</pproColor>
							</marker>
						<labels>
							<label2>Forest</label2>
						</labels>
					</clipitem>
					<clipitem id="clipitem-1901">
						<masterclipid>masterclip-843</masterclipid>
						<name>2</name>
						<enabled>FALSE</enabled>
						<duration>1125</duration>
						<rate>
							<timebase>25</timebase>
							<ntsc>FALSE</ntsc>
						</rate>
						<start>55705</start>
						<end>56080</end>
						<in>0</in>
						<out>375</out>
						<pproTicksIn>0</pproTicksIn>
						<pproTicksOut>3810240000000</pproTicksOut>
						<sequence id="sequence-155" TL.SQAudioVisibleBase="0" TL.SQVideoVisibleBase="0" TL.SQVisibleBaseTime="0" TL.SQAVDividerPosition="0.5" TL.SQHideShyTracks="0" TL.SQHeaderWidth="236" Monitor.ProgramZoomOut="11430720000000" Monitor.ProgramZoomIn="0" TL.SQTimePerPixel="0.19620667102680819" AM.TrackVScrollPosition="0" AM.TrackScrollPosition="0" MZ.EditLine="7691604480000" MZ.Sequence.PreviewFrameSizeHeight="576" MZ.Sequence.PreviewFrameSizeWidth="720" MZ.Sequence.AudioTimeDisplayFormat="200" MZ.Sequence.PreviewRenderingClassID="1061109567" MZ.Sequence.PreviewRenderingPresetCodec="1685480304" MZ.Sequence.PreviewRenderingPresetPath="EncoderPresets/SequencePreview/04be6e19-a018-4e0c-a9d6-0ab44c64752b/QuickTime DV PAL.epr" MZ.Sequence.PreviewUseMaxRenderQuality="false" MZ.Sequence.PreviewUseMaxBitDepth="false" MZ.Sequence.EditingModeGUID="04be6e19-a018-4e0c-a9d6-0ab44c64752b" MZ.Sequence.VideoTimeDisplayFormat="101" MZ.WorkOutPoint="11430720000000" MZ.WorkInPoint="0" MZ.ZeroPoint="0">
							<duration>1125</duration>
							<rate>
								<timebase>25</timebase>
								<ntsc>FALSE</ntsc>
							</rate>
							<name>RU_Nested</name>
							<media>
								<video>
									<format>
										<samplecharacteristics>
											<rate>
												<timebase>25</timebase>
												<ntsc>FALSE</ntsc>
											</rate>
											<codec>
												<name>Apple ProRes 422</name>
												<appspecificdata>
													<appname>Final Cut Pro</appname>
													<appmanufacturer>Apple Inc.</appmanufacturer>
													<appversion>7.0</appversion>
													<data>
														<qtcodec>
															<codecname>Apple ProRes 422</codecname>
															<codectypename>Apple ProRes 422</codectypename>
															<codectypecode>apcn</codectypecode>
															<codecvendorcode>appl</codecvendorcode>
															<spatialquality>1024</spatialquality>
															<temporalquality>0</temporalquality>
															<keyframerate>0</keyframerate>
															<datarate>0</datarate>
														</qtcodec>
													</data>
												</appspecificdata>
											</codec>
											<width>720</width>
											<height>576</height>
											<anamorphic>TRUE</anamorphic>
											<pixelaspectratio>PAL-601</pixelaspectratio>
											<fielddominance>lower</fielddominance>
											<colordepth>24</colordepth>
										</samplecharacteristics>
									</format>
									<track TL.SQTrackShy="0" TL.SQTrackExpandedHeight="25" TL.SQTrackExpanded="0" MZ.TrackTargeted="1">
										<clipitem id="clipitem-1902">
											<masterclipid>masterclip-844</masterclipid>
											<name>Plashka_Right_DV.mov</name>
											<enabled>TRUE</enabled>
											<duration>375</duration>
											<rate>
												<timebase>25</timebase>
												<ntsc>FALSE</ntsc>
											</rate>
											<start>0</start>
											<end>375</end>
											<in>0</in>
											<out>375</out>
											<pproTicksIn>0</pproTicksIn>
											<pproTicksOut>3810240000000</pproTicksOut>
											<alphatype>straight</alphatype>
											<pixelaspectratio>PAL-601</pixelaspectratio>
											<anamorphic>TRUE</anamorphic>
											<file id="file-699">
												<name>Plashka_Right_DV.mov</name>
												<pathurl>file://localhost/Volumes/1Tb/_MUZ_TV/graphika/RU-21/MOD/Plashka_Right_DV.mov</pathurl>
												<rate>
													<timebase>25</timebase>
													<ntsc>FALSE</ntsc>
												</rate>
												<duration>375</duration>
												<timecode>
													<rate>
														<timebase>25</timebase>
														<ntsc>FALSE</ntsc>
													</rate>
													<string>00:00:15:10</string>
													<frame>385</frame>
													<displayformat>NDF</displayformat>
												</timecode>
												<media>
													<video>
														<samplecharacteristics>
															<rate>
																<timebase>25</timebase>
																<ntsc>FALSE</ntsc>
															</rate>
															<width>720</width>
															<height>576</height>
															<anamorphic>TRUE</anamorphic>
															<pixelaspectratio>PAL-601</pixelaspectratio>
															<fielddominance>lower</fielddominance>
														</samplecharacteristics>
													</video>
												</media>
											</file>
											<filter>
												<effect>
													<name>Basic Motion</name>
													<effectid>basic</effectid>
													<effectcategory>motion</effectcategory>
													<effecttype>motion</effecttype>
													<mediatype>video</mediatype>
													<pproBypass>false</pproBypass>
													<parameter authoringApp="PremierePro">
														<parameterid>scale</parameterid>
														<name>Scale</name>
														<valuemin>0</valuemin>
														<valuemax>1000</valuemax>
														<value>100</value>
													</parameter>
													<parameter authoringApp="PremierePro">
														<parameterid>rotation</parameterid>
														<name>Rotation</name>
														<valuemin>-8640</valuemin>
														<valuemax>8640</valuemax>
														<value>0</value>
													</parameter>
													<parameter authoringApp="PremierePro">
														<parameterid>center</parameterid>
														<name>Center</name>
														<value>
															<horiz>-5.55112e-17</horiz>
															<vert>-1.11022e-16</vert>
														</value>
													</parameter>
													<parameter authoringApp="PremierePro">
														<parameterid>centerOffset</parameterid>
														<name>Anchor Point</name>
														<value>
															<horiz>0.402314</horiz>
															<vert>0.41875</vert>
														</value>
													</parameter>
													<parameter authoringApp="PremierePro">
														<parameterid>antiflicker</parameterid>
														<name>Anti-flicker Filter</name>
														<valuemin>0.0</valuemin>
														<valuemax>1.0</valuemax>
														<value>0</value>
													</parameter>
												</effect>
											</filter>
											<filter>
												<effect>
													<name>Distort</name>
													<effectid>deformation</effectid>
													<effectcategory>motion</effectcategory>
													<effecttype>motion</effecttype>
													<mediatype>video</mediatype>
													<parameter authoringApp="PremierePro">
														<parameterid>aspect</parameterid>
														<name>Aspect</name>
														<valuemin>-10000</valuemin>
														<valuemax>10000</valuemax>
														<value>11.1111</value>
													</parameter>
												</effect>
											</filter>
											<logginginfo>
												<description></description>
												<scene></scene>
												<shottake></shottake>
												<lognote></lognote>
												<good></good>
												<originalvideofilename></originalvideofilename>
												<originalaudiofilename></originalaudiofilename>
											</logginginfo>
											<colorinfo>
												<lut></lut>
												<lut1></lut1>
												<asc_sop></asc_sop>
												<asc_sat></asc_sat>
												<lut2></lut2>
											</colorinfo>
											<labels>
												<label2>Violet</label2>
											</labels>
										</clipitem>
										<clipitem id="clipitem-1903">
											<masterclipid>masterclip-844</masterclipid>
											<name>Plashka_Right_DV.mov</name>
											<enabled>TRUE</enabled>
											<duration>375</duration>
											<rate>
												<timebase>25</timebase>
												<ntsc>FALSE</ntsc>
											</rate>
											<start>375</start>
											<end>750</end>
											<in>0</in>
											<out>375</out>
											<pproTicksIn>0</pproTicksIn>
											<pproTicksOut>3810240000000</pproTicksOut>
											<alphatype>straight</alphatype>
											<file id="file-699"/>
											<filter>
												<effect>
													<name>Basic Motion</name>
													<effectid>basic</effectid>
													<effectcategory>motion</effectcategory>
													<effecttype>motion</effecttype>
													<mediatype>video</mediatype>
													<pproBypass>false</pproBypass>
													<parameter authoringApp="PremierePro">
														<parameterid>scale</parameterid>
														<name>Scale</name>
														<valuemin>0</valuemin>
														<valuemax>1000</valuemax>
														<value>100</value>
													</parameter>
													<parameter authoringApp="PremierePro">
														<parameterid>rotation</parameterid>
														<name>Rotation</name>
														<valuemin>-8640</valuemin>
														<valuemax>8640</valuemax>
														<value>0</value>
													</parameter>
													<parameter authoringApp="PremierePro">
														<parameterid>center</parameterid>
														<name>Center</name>
														<value>
															<horiz>-5.55112e-17</horiz>
															<vert>-1.11022e-16</vert>
														</value>
													</parameter>
													<parameter authoringApp="PremierePro">
														<parameterid>centerOffset</parameterid>
														<name>Anchor Point</name>
														<value>
															<horiz>0.402314</horiz>
															<vert>0.41875</vert>
														</value>
													</parameter>
													<parameter authoringApp="PremierePro">
														<parameterid>antiflicker</parameterid>
														<name>Anti-flicker Filter</name>
														<valuemin>0.0</valuemin>
														<valuemax>1.0</valuemax>
														<value>0</value>
													</parameter>
												</effect>
											</filter>
											<filter>
												<effect>
													<name>Distort</name>
													<effectid>deformation</effectid>
													<effectcategory>motion</effectcategory>
													<effecttype>motion</effecttype>
													<mediatype>video</mediatype>
													<parameter authoringApp="PremierePro">
														<parameterid>aspect</parameterid>
														<name>Aspect</name>
														<valuemin>-10000</valuemin>
														<valuemax>10000</valuemax>
														<value>11.1111</value>
													</parameter>
												</effect>
											</filter>
											<logginginfo>
												<description></description>
												<scene></scene>
												<shottake></shottake>
												<lognote></lognote>
												<good></good>
												<originalvideofilename></originalvideofilename>
												<originalaudiofilename></originalaudiofilename>
											</logginginfo>
											<colorinfo>
												<lut></lut>
												<lut1></lut1>
												<asc_sop></asc_sop>
												<asc_sat></asc_sat>
												<lut2></lut2>
											</colorinfo>
											<labels>
												<label2>Violet</label2>
											</labels>
										</clipitem>
										<clipitem id="clipitem-1904">
											<masterclipid>masterclip-844</masterclipid>
											<name>Plashka_Right_DV.mov</name>
											<enabled>TRUE</enabled>
											<duration>375</duration>
											<rate>
												<timebase>25</timebase>
												<ntsc>FALSE</ntsc>
											</rate>
											<start>750</start>
											<end>1125</end>
											<in>0</in>
											<out>375</out>
											<pproTicksIn>0</pproTicksIn>
											<pproTicksOut>3810240000000</pproTicksOut>
											<alphatype>straight</alphatype>
											<file id="file-699"/>
											<filter>
												<effect>
													<name>Basic Motion</name>
													<effectid>basic</effectid>
													<effectcategory>motion</effectcategory>
													<effecttype>motion</effecttype>
													<mediatype>video</mediatype>
													<pproBypass>false</pproBypass>
													<parameter authoringApp="PremierePro">
														<parameterid>scale</parameterid>
														<name>Scale</name>
														<valuemin>0</valuemin>
														<valuemax>1000</valuemax>
														<value>100</value>
													</parameter>
													<parameter authoringApp="PremierePro">
														<parameterid>rotation</parameterid>
														<name>Rotation</name>
														<valuemin>-8640</valuemin>
														<valuemax>8640</valuemax>
														<value>0</value>
													</parameter>
													<parameter authoringApp="PremierePro">
														<parameterid>center</parameterid>
														<name>Center</name>
														<value>
															<horiz>-5.55112e-17</horiz>
															<vert>-1.11022e-16</vert>
														</value>
													</parameter>
													<parameter authoringApp="PremierePro">
														<parameterid>centerOffset</parameterid>
														<name>Anchor Point</name>
														<value>
															<horiz>0.402314</horiz>
															<vert>0.41875</vert>
														</value>
													</parameter>
													<parameter authoringApp="PremierePro">
														<parameterid>antiflicker</parameterid>
														<name>Anti-flicker Filter</name>
														<valuemin>0.0</valuemin>
														<valuemax>1.0</valuemax>
														<value>0</value>
													</parameter>
												</effect>
											</filter>
											<filter>
												<effect>
													<name>Distort</name>
													<effectid>deformation</effectid>
													<effectcategory>motion</effectcategory>
													<effecttype>motion</effecttype>
													<mediatype>video</mediatype>
													<parameter authoringApp="PremierePro">
														<parameterid>aspect</parameterid>
														<name>Aspect</name>
														<valuemin>-10000</valuemin>
														<valuemax>10000</valuemax>
														<value>11.1111</value>
													</parameter>
												</effect>
											</filter>
											<logginginfo>
												<description></description>
												<scene></scene>
												<shottake></shottake>
												<lognote></lognote>
												<good></good>
												<originalvideofilename></originalvideofilename>
												<originalaudiofilename></originalaudiofilename>
											</logginginfo>
											<colorinfo>
												<lut></lut>
												<lut1></lut1>
												<asc_sop></asc_sop>
												<asc_sat></asc_sat>
												<lut2></lut2>
											</colorinfo>
											<labels>
												<label2>Violet</label2>
											</labels>
										</clipitem>
										<enabled>TRUE</enabled>
										<locked>FALSE</locked>
									</track>
									<track TL.SQTrackShy="0" TL.SQTrackExpandedHeight="25" TL.SQTrackExpanded="0" MZ.TrackTargeted="0">
										<transitionitem>
											<start>6</start>
											<end>35</end>
											<alignment>start-black</alignment>
											<cutPointTicks>0</cutPointTicks>
											<rate>
												<timebase>25</timebase>
												<ntsc>FALSE</ntsc>
											</rate>
											<effect>
												<name>Edge Wipe</name>
												<effectid>Edge Wipe</effectid>
												<effectcategory>Wipe</effectcategory>
												<effecttype>transition</effecttype>
												<mediatype>video</mediatype>
												<wipecode>2</wipecode>
												<wipeaccuracy>100</wipeaccuracy>
												<startratio>0</startratio>
												<endratio>1</endratio>
												<reverse>FALSE</reverse>
												<parameter authoringApp="PremierePro">
													<parameterid>directionofwipe</parameterid>
													<name>Angle</name>
													<valuemin>-360</valuemin>
													<valuemax>360</valuemax>
													<value>270</value>
												</parameter>
											</effect>
										</transitionitem>
										<clipitem id="clipitem-1905">
											<masterclipid>masterclip-845</masterclipid>
											<name>2_1.png</name>
											<enabled>TRUE</enabled>
											<duration>1080000</duration>
											<rate>
												<timebase>25</timebase>
												<ntsc>FALSE</ntsc>
											</rate>
											<start>-1</start>
											<end>-1</end>
											<in>90006</in>
											<out>90369</out>
											<pproTicksIn>914518563840000</pproTicksIn>
											<pproTicksOut>918206876160000</pproTicksOut>
											<alphatype>straight</alphatype>
											<pixelaspectratio>square</pixelaspectratio>
											<anamorphic>FALSE</anamorphic>
											<file id="file-700">
												<name>2_1.png</name>
												<pathurl>file://localhost/_MUZ_TV/project_AP/RU/_TITLE/468/PNG/2_1.png</pathurl>
												<rate>
													<timebase>30</timebase>
													<ntsc>TRUE</ntsc>
												</rate>
												<timecode>
													<rate>
														<timebase>30</timebase>
														<ntsc>TRUE</ntsc>
													</rate>
													<string>00;00;00;00</string>
													<frame>0</frame>
													<displayformat>DF</displayformat>
												</timecode>
												<media>
													<video>
														<samplecharacteristics>
															<rate>
																<timebase>30</timebase>
																<ntsc>TRUE</ntsc>
															</rate>
															<width>1920</width>
															<height>1080</height>
															<anamorphic>FALSE</anamorphic>
															<pixelaspectratio>square</pixelaspectratio>
															<fielddominance>none</fielddominance>
														</samplecharacteristics>
													</video>
												</media>
											</file>
											<filter>
												<effect>
													<name>Basic Motion</name>
													<effectid>basic</effectid>
													<effectcategory>motion</effectcategory>
													<effecttype>motion</effecttype>
													<mediatype>video</mediatype>
													<pproBypass>false</pproBypass>
													<parameter authoringApp="PremierePro">
														<parameterid>scale</parameterid>
														<name>Scale</name>
														<valuemin>0</valuemin>
														<valuemax>1000</valuemax>
														<value>53.3333</value>
													</parameter>
													<parameter authoringApp="PremierePro">
														<parameterid>rotation</parameterid>
														<name>Rotation</name>
														<valuemin>-8640</valuemin>
														<valuemax>8640</valuemax>
														<value>0</value>
													</parameter>
													<parameter authoringApp="PremierePro">
														<parameterid>center</parameterid>
														<name>Center</name>
														<value>
															<horiz>0</horiz>
															<vert>0</vert>
														</value>
													</parameter>
													<parameter authoringApp="PremierePro">
														<parameterid>centerOffset</parameterid>
														<name>Anchor Point</name>
														<value>
															<horiz>0</horiz>
															<vert>0</vert>
														</value>
													</parameter>
													<parameter authoringApp="PremierePro">
														<parameterid>antiflicker</parameterid>
														<name>Anti-flicker Filter</name>
														<valuemin>0.0</valuemin>
														<valuemax>1.0</valuemax>
														<value>0</value>
													</parameter>
												</effect>
											</filter>
											<logginginfo>
												<description></description>
												<scene></scene>
												<shottake></shottake>
												<lognote></lognote>
												<good></good>
												<originalvideofilename></originalvideofilename>
												<originalaudiofilename></originalaudiofilename>
											</logginginfo>
											<colorinfo>
												<lut></lut>
												<lut1></lut1>
												<asc_sop></asc_sop>
												<asc_sat></asc_sat>
												<lut2></lut2>
											</colorinfo>
											<labels>
												<label2>Lavender</label2>
											</labels>
										</clipitem>
										<transitionitem>
											<start>344</start>
											<end>369</end>
											<alignment>end-black</alignment>
											<cutPointTicks>254016000000</cutPointTicks>
											<rate>
												<timebase>25</timebase>
												<ntsc>FALSE</ntsc>
											</rate>
											<effect>
												<name>Edge Wipe</name>
												<effectid>Edge Wipe</effectid>
												<effectcategory>Wipe</effectcategory>
												<effecttype>transition</effecttype>
												<mediatype>video</mediatype>
												<wipecode>2</wipecode>
												<wipeaccuracy>100</wipeaccuracy>
												<startratio>0</startratio>
												<endratio>1</endratio>
												<reverse>FALSE</reverse>
												<parameter authoringApp="PremierePro">
													<parameterid>directionofwipe</parameterid>
													<name>Angle</name>
													<valuemin>-360</valuemin>
													<valuemax>360</valuemax>
													<value>90</value>
												</parameter>
											</effect>
										</transitionitem>
										<transitionitem>
											<start>381</start>
											<end>410</end>
											<alignment>start-black</alignment>
											<cutPointTicks>0</cutPointTicks>
											<rate>
												<timebase>25</timebase>
												<ntsc>FALSE</ntsc>
											</rate>
											<effect>
												<name>Edge Wipe</name>
												<effectid>Edge Wipe</effectid>
												<effectcategory>Wipe</effectcategory>
												<effecttype>transition</effecttype>
												<mediatype>video</mediatype>
												<wipecode>2</wipecode>
												<wipeaccuracy>100</wipeaccuracy>
												<startratio>0</startratio>
												<endratio>1</endratio>
												<reverse>FALSE</reverse>
												<parameter authoringApp="PremierePro">
													<parameterid>directionofwipe</parameterid>
													<name>Angle</name>
													<valuemin>-360</valuemin>
													<valuemax>360</valuemax>
													<value>270</value>
												</parameter>
											</effect>
										</transitionitem>
										<clipitem id="clipitem-1906">
											<masterclipid>masterclip-846</masterclipid>
											<name>2_2.png</name>
											<enabled>TRUE</enabled>
											<duration>1080000</duration>
											<rate>
												<timebase>25</timebase>
												<ntsc>FALSE</ntsc>
											</rate>
											<start>-1</start>
											<end>-1</end>
											<in>90011</in>
											<out>90374</out>
											<pproTicksIn>914569367040000</pproTicksIn>
											<pproTicksOut>918257679360000</pproTicksOut>
											<alphatype>straight</alphatype>
											<pixelaspectratio>square</pixelaspectratio>
											<anamorphic>FALSE</anamorphic>
											<file id="file-701">
												<name>2_2.png</name>
												<pathurl>file://localhost/_MUZ_TV/project_AP/RU/_TITLE/468/PNG/2_2.png</pathurl>
												<rate>
													<timebase>30</timebase>
													<ntsc>TRUE</ntsc>
												</rate>
												<timecode>
													<rate>
														<timebase>30</timebase>
														<ntsc>TRUE</ntsc>
													</rate>
													<string>00;00;00;00</string>
													<frame>0</frame>
													<displayformat>DF</displayformat>
												</timecode>
												<media>
													<video>
														<samplecharacteristics>
															<rate>
																<timebase>30</timebase>
																<ntsc>TRUE</ntsc>
															</rate>
															<width>1920</width>
															<height>1080</height>
															<anamorphic>FALSE</anamorphic>
															<pixelaspectratio>square</pixelaspectratio>
															<fielddominance>none</fielddominance>
														</samplecharacteristics>
													</video>
												</media>
											</file>
											<filter>
												<effect>
													<name>Basic Motion</name>
													<effectid>basic</effectid>
													<effectcategory>motion</effectcategory>
													<effecttype>motion</effecttype>
													<mediatype>video</mediatype>
													<pproBypass>false</pproBypass>
													<parameter authoringApp="PremierePro">
														<parameterid>scale</parameterid>
														<name>Scale</name>
														<valuemin>0</valuemin>
														<valuemax>1000</valuemax>
														<value>53.3333</value>
													</parameter>
													<parameter authoringApp="PremierePro">
														<parameterid>rotation</parameterid>
														<name>Rotation</name>
														<valuemin>-8640</valuemin>
														<valuemax>8640</valuemax>
														<value>0</value>
													</parameter>
													<parameter authoringApp="PremierePro">
														<parameterid>center</parameterid>
														<name>Center</name>
														<value>
															<horiz>0</horiz>
															<vert>0</vert>
														</value>
													</parameter>
													<parameter authoringApp="PremierePro">
														<parameterid>centerOffset</parameterid>
														<name>Anchor Point</name>
														<value>
															<horiz>0</horiz>
															<vert>0</vert>
														</value>
													</parameter>
													<parameter authoringApp="PremierePro">
														<parameterid>antiflicker</parameterid>
														<name>Anti-flicker Filter</name>
														<valuemin>0.0</valuemin>
														<valuemax>1.0</valuemax>
														<value>0</value>
													</parameter>
												</effect>
											</filter>
											<logginginfo>
												<description></description>
												<scene></scene>
												<shottake></shottake>
												<lognote></lognote>
												<good></good>
												<originalvideofilename></originalvideofilename>
												<originalaudiofilename></originalaudiofilename>
											</logginginfo>
											<colorinfo>
												<lut></lut>
												<lut1></lut1>
												<asc_sop></asc_sop>
												<asc_sat></asc_sat>
												<lut2></lut2>
											</colorinfo>
											<labels>
												<label2>Lavender</label2>
											</labels>
										</clipitem>
										<transitionitem>
											<start>719</start>
											<end>744</end>
											<alignment>end-black</alignment>
											<cutPointTicks>254016000000</cutPointTicks>
											<rate>
												<timebase>25</timebase>
												<ntsc>FALSE</ntsc>
											</rate>
											<effect>
												<name>Edge Wipe</name>
												<effectid>Edge Wipe</effectid>
												<effectcategory>Wipe</effectcategory>
												<effecttype>transition</effecttype>
												<mediatype>video</mediatype>
												<wipecode>2</wipecode>
												<wipeaccuracy>100</wipeaccuracy>
												<startratio>0</startratio>
												<endratio>1</endratio>
												<reverse>FALSE</reverse>
												<parameter authoringApp="PremierePro">
													<parameterid>directionofwipe</parameterid>
													<name>Angle</name>
													<valuemin>-360</valuemin>
													<valuemax>360</valuemax>
													<value>90</value>
												</parameter>
											</effect>
										</transitionitem>
										<transitionitem>
											<start>756</start>
											<end>785</end>
											<alignment>start-black</alignment>
											<cutPointTicks>0</cutPointTicks>
											<rate>
												<timebase>25</timebase>
												<ntsc>FALSE</ntsc>
											</rate>
											<effect>
												<name>Edge Wipe</name>
												<effectid>Edge Wipe</effectid>
												<effectcategory>Wipe</effectcategory>
												<effecttype>transition</effecttype>
												<mediatype>video</mediatype>
												<wipecode>2</wipecode>
												<wipeaccuracy>100</wipeaccuracy>
												<startratio>0</startratio>
												<endratio>1</endratio>
												<reverse>FALSE</reverse>
												<parameter authoringApp="PremierePro">
													<parameterid>directionofwipe</parameterid>
													<name>Angle</name>
													<valuemin>-360</valuemin>
													<valuemax>360</valuemax>
													<value>270</value>
												</parameter>
											</effect>
										</transitionitem>
										<clipitem id="clipitem-1907">
											<masterclipid>masterclip-847</masterclipid>
											<name>2_3.png</name>
											<enabled>TRUE</enabled>
											<duration>1080000</duration>
											<rate>
												<timebase>25</timebase>
												<ntsc>FALSE</ntsc>
											</rate>
											<start>-1</start>
											<end>-1</end>
											<in>90011</in>
											<out>90375</out>
											<pproTicksIn>914569367040000</pproTicksIn>
											<pproTicksOut>918267840000000</pproTicksOut>
											<alphatype>straight</alphatype>
											<pixelaspectratio>square</pixelaspectratio>
											<anamorphic>FALSE</anamorphic>
											<file id="file-702">
												<name>2_3.png</name>
												<pathurl>file://localhost/_MUZ_TV/project_AP/RU/_TITLE/468/PNG/2_3.png</pathurl>
												<rate>
													<timebase>30</timebase>
													<ntsc>TRUE</ntsc>
												</rate>
												<timecode>
													<rate>
														<timebase>30</timebase>
														<ntsc>TRUE</ntsc>
													</rate>
													<string>00;00;00;00</string>
													<frame>0</frame>
													<displayformat>DF</displayformat>
												</timecode>
												<media>
													<video>
														<samplecharacteristics>
															<rate>
																<timebase>30</timebase>
																<ntsc>TRUE</ntsc>
															</rate>
															<width>1920</width>
															<height>1080</height>
															<anamorphic>FALSE</anamorphic>
															<pixelaspectratio>square</pixelaspectratio>
															<fielddominance>none</fielddominance>
														</samplecharacteristics>
													</video>
												</media>
											</file>
											<filter>
												<effect>
													<name>Basic Motion</name>
													<effectid>basic</effectid>
													<effectcategory>motion</effectcategory>
													<effecttype>motion</effecttype>
													<mediatype>video</mediatype>
													<pproBypass>false</pproBypass>
													<parameter authoringApp="PremierePro">
														<parameterid>scale</parameterid>
														<name>Scale</name>
														<valuemin>0</valuemin>
														<valuemax>1000</valuemax>
														<value>53.3333</value>
													</parameter>
													<parameter authoringApp="PremierePro">
														<parameterid>rotation</parameterid>
														<name>Rotation</name>
														<valuemin>-8640</valuemin>
														<valuemax>8640</valuemax>
														<value>0</value>
													</parameter>
													<parameter authoringApp="PremierePro">
														<parameterid>center</parameterid>
														<name>Center</name>
														<value>
															<horiz>0</horiz>
															<vert>0</vert>
														</value>
													</parameter>
													<parameter authoringApp="PremierePro">
														<parameterid>centerOffset</parameterid>
														<name>Anchor Point</name>
														<value>
															<horiz>0</horiz>
															<vert>0</vert>
														</value>
													</parameter>
													<parameter authoringApp="PremierePro">
														<parameterid>antiflicker</parameterid>
														<name>Anti-flicker Filter</name>
														<valuemin>0.0</valuemin>
														<valuemax>1.0</valuemax>
														<value>0</value>
													</parameter>
												</effect>
											</filter>
											<logginginfo>
												<description></description>
												<scene></scene>
												<shottake></shottake>
												<lognote></lognote>
												<good></good>
												<originalvideofilename></originalvideofilename>
												<originalaudiofilename></originalaudiofilename>
											</logginginfo>
											<colorinfo>
												<lut></lut>
												<lut1></lut1>
												<asc_sop></asc_sop>
												<asc_sat></asc_sat>
												<lut2></lut2>
											</colorinfo>
											<labels>
												<label2>Lavender</label2>
											</labels>
										</clipitem>
										<transitionitem>
											<start>1095</start>
											<end>1120</end>
											<alignment>end-black</alignment>
											<cutPointTicks>254016000000</cutPointTicks>
											<rate>
												<timebase>25</timebase>
												<ntsc>FALSE</ntsc>
											</rate>
											<effect>
												<name>Edge Wipe</name>
												<effectid>Edge Wipe</effectid>
												<effectcategory>Wipe</effectcategory>
												<effecttype>transition</effecttype>
												<mediatype>video</mediatype>
												<wipecode>2</wipecode>
												<wipeaccuracy>100</wipeaccuracy>
												<startratio>0</startratio>
												<endratio>1</endratio>
												<reverse>FALSE</reverse>
												<parameter authoringApp="PremierePro">
													<parameterid>directionofwipe</parameterid>
													<name>Angle</name>
													<valuemin>-360</valuemin>
													<valuemax>360</valuemax>
													<value>90</value>
												</parameter>
											</effect>
										</transitionitem>
										<enabled>TRUE</enabled>
										<locked>FALSE</locked>
									</track>
									<track TL.SQTrackShy="0" TL.SQTrackExpandedHeight="25" TL.SQTrackExpanded="0" MZ.TrackTargeted="0">
										<transitionitem>
											<start>755</start>
											<end>780</end>
											<alignment>start-black</alignment>
											<cutPointTicks>0</cutPointTicks>
											<rate>
												<timebase>25</timebase>
												<ntsc>FALSE</ntsc>
											</rate>
											<effect>
												<name>Edge Wipe</name>
												<effectid>Edge Wipe</effectid>
												<effectcategory>Wipe</effectcategory>
												<effecttype>transition</effecttype>
												<mediatype>video</mediatype>
												<wipecode>2</wipecode>
												<wipeaccuracy>100</wipeaccuracy>
												<startratio>0</startratio>
												<endratio>1</endratio>
												<reverse>FALSE</reverse>
												<parameter authoringApp="PremierePro">
													<parameterid>directionofwipe</parameterid>
													<name>Angle</name>
													<valuemin>-360</valuemin>
													<valuemax>360</valuemax>
													<value>270</value>
												</parameter>
											</effect>
										</transitionitem>
										<clipitem id="clipitem-1908">
											<masterclipid>masterclip-848</masterclipid>
											<name>Graphic</name>
											<enabled>FALSE</enabled>
											<duration>1080000</duration>
											<rate>
												<timebase>25</timebase>
												<ntsc>FALSE</ntsc>
											</rate>
											<start>-1</start>
											<end>-1</end>
											<in>89905</in>
											<out>90272</out>
											<pproTicksIn>913492339200000</pproTicksIn>
											<pproTicksOut>917221294080000</pproTicksOut>
											<alphatype>straight</alphatype>
											<pixelaspectratio>PAL-601</pixelaspectratio>
											<anamorphic>TRUE</anamorphic>
											<file id="file-703">
												<name>Graphic</name>
												<mediaSource>GraphicAndType</mediaSource>
												<rate>
													<timebase>30</timebase>
													<ntsc>TRUE</ntsc>
												</rate>
												<timecode>
													<rate>
														<timebase>30</timebase>
														<ntsc>TRUE</ntsc>
													</rate>
													<string>00;00;00;00</string>
													<frame>0</frame>
													<displayformat>DF</displayformat>
												</timecode>
												<media>
													<video>
														<samplecharacteristics>
															<rate>
																<timebase>30</timebase>
																<ntsc>TRUE</ntsc>
															</rate>
															<width>720</width>
															<height>576</height>
															<anamorphic>TRUE</anamorphic>
															<pixelaspectratio>PAL-601</pixelaspectratio>
															<fielddominance>none</fielddominance>
														</samplecharacteristics>
													</video>
												</media>
											</file>
											<filter>
												<effect>
													<name>Vector Motion</name>
													<effectid>GraphicGroup</effectid>
													<effectcategory>graphic</effectcategory>
													<effecttype>filter</effecttype>
													<mediatype>video</mediatype>
													<pproBypass>false</pproBypass>
													<parameter authoringApp="PremierePro">
														<parameterid>1</parameterid>
														<name>Position</name>
														<IsTimeVarying>false</IsTimeVarying>
														<value>-91445760000000000,0.81693898908787344:0.49085601568222115,0,0,0,0,0,0,5,4,0,0,0,0</value>
													</parameter>
													<parameter authoringApp="PremierePro">
														<parameterid>2</parameterid>
														<name>Scale</name>
														<IsTimeVarying>false</IsTimeVarying>
														<ParameterControlType>2</ParameterControlType>
														<LowerBound>0</LowerBound>
														<UpperBound>10000</UpperBound>
														<UpperUIBound>200</UpperUIBound>
														<value>-91445760000000000,100.,0,0,0,0,0,0</value>
													</parameter>
													<parameter authoringApp="PremierePro">
														<parameterid>3</parameterid>
														<name>Scale Width</name>
														<IsTimeVarying>false</IsTimeVarying>
														<ParameterControlType>2</ParameterControlType>
														<LowerBound>0</LowerBound>
														<UpperBound>10000</UpperBound>
														<UpperUIBound>200</UpperUIBound>
														<value>-91445760000000000,100.,0,0,0,0,0,0</value>
													</parameter>
													<parameter authoringApp="PremierePro">
														<parameterid>4</parameterid>
														<name> </name>
														<IsTimeVarying>false</IsTimeVarying>
														<ParameterControlType>4</ParameterControlType>
														<LowerBound>false</LowerBound>
														<UpperBound>true</UpperBound>
														<value>-91445760000000000,true,0,0,0,0,0,0</value>
													</parameter>
													<parameter authoringApp="PremierePro">
														<parameterid>5</parameterid>
														<name>Rotation</name>
														<IsTimeVarying>false</IsTimeVarying>
														<ParameterControlType>3</ParameterControlType>
														<LowerBound>-32768</LowerBound>
														<UpperBound>32767</UpperBound>
														<value>-91445760000000000,0.,0,0,0,0,0,0</value>
													</parameter>
													<parameter authoringApp="PremierePro">
														<parameterid>6</parameterid>
														<name>Anchor Point</name>
														<IsTimeVarying>false</IsTimeVarying>
														<value>-91445760000000000,0.5:0.5,0,0,0,0,0,0,5,4,0,0,0,0</value>
													</parameter>
												</effect>
											</filter>
											<filter>
												<effect>
													<name>Данил Прытков признаётся, &#13;что сильные провалы &#13;мотивируют его на творчество &#13;не меньше, чем победы. </name>
													<effectid>GraphicAndType</effectid>
													<effectcategory>graphic</effectcategory>
													<effecttype>filter</effecttype>
													<mediatype>video</mediatype>
													<pproBypass>false</pproBypass>
													<pproExpanded>true</pproExpanded>
													<parameter authoringApp="PremierePro">
														<parameterid>1</parameterid>
														<name>Source Text</name>
														<hash>698123b5-7d57-7b79-efb1-b0df00000a31</hash>
													</parameter>
													<parameter authoringApp="PremierePro">
														<parameterid>2</parameterid>
														<name>Transform</name>
														<IsTimeVarying>false</IsTimeVarying>
														<ParameterControlType>11</ParameterControlType>
														<LowerBound>false</LowerBound>
														<UpperBound>false</UpperBound>
														<value>-91445760000000000,false,0,0,0,0,0,0</value>
													</parameter>
													<parameter authoringApp="PremierePro">
														<parameterid>3</parameterid>
														<name>Position</name>
														<IsTimeVarying>false</IsTimeVarying>
														<value>-91445760000000000,0.270416259765625:0.640594482421875,0,0,0,0,0,0,5,4,0,0,0,0</value>
													</parameter>
													<parameter authoringApp="PremierePro">
														<parameterid>4</parameterid>
														<name>Scale</name>
														<IsTimeVarying>false</IsTimeVarying>
														<ParameterControlType>2</ParameterControlType>
														<LowerBound>0</LowerBound>
														<UpperBound>4000</UpperBound>
														<value>-91445760000000000,100.,0,0,0,0,0,0</value>
													</parameter>
													<parameter authoringApp="PremierePro">
														<parameterid>5</parameterid>
														<name>Horizontal Scale</name>
														<IsTimeVarying>false</IsTimeVarying>
														<ParameterControlType>2</ParameterControlType>
														<LowerBound>0</LowerBound>
														<UpperBound>4000</UpperBound>
														<value>-91445760000000000,100.,0,0,0,0,0,0</value>
													</parameter>
													<parameter authoringApp="PremierePro">
														<parameterid>6</parameterid>
														<name> </name>
														<IsTimeVarying>false</IsTimeVarying>
														<ParameterControlType>4</ParameterControlType>
														<LowerBound>false</LowerBound>
														<UpperBound>true</UpperBound>
														<value>-91445760000000000,true,0,0,0,0,0,0</value>
													</parameter>
													<parameter authoringApp="PremierePro">
														<parameterid>7</parameterid>
														<name>Rotation</name>
														<IsTimeVarying>false</IsTimeVarying>
														<ParameterControlType>3</ParameterControlType>
														<LowerBound>-32768</LowerBound>
														<UpperBound>32767</UpperBound>
														<value>-91445760000000000,0.,0,0,0,0,0,0</value>
													</parameter>
													<parameter authoringApp="PremierePro">
														<parameterid>8</parameterid>
														<name>Opacity</name>
														<IsTimeVarying>false</IsTimeVarying>
														<ParameterControlType>2</ParameterControlType>
														<LowerBound>0</LowerBound>
														<UpperBound>100</UpperBound>
														<value>-91445760000000000,100.,0,0,0,0,0,0</value>
													</parameter>
													<parameter authoringApp="PremierePro">
														<parameterid>9</parameterid>
														<name>Anchor Point</name>
														<IsTimeVarying>false</IsTimeVarying>
														<value>-91445760000000000,0:0,0,0,0,0,0,0,5,4,0,0,0,0</value>
													</parameter>
													<parameter authoringApp="PremierePro">
														<parameterid>10</parameterid>
														<name></name>
														<IsTimeVarying>false</IsTimeVarying>
														<ParameterControlType>12</ParameterControlType>
														<LowerBound>false</LowerBound>
														<UpperBound>false</UpperBound>
														<value>-91445760000000000,false,0,0,0,0,0,0</value>
													</parameter>
													<parameter authoringApp="PremierePro">
														<parameterid>11</parameterid>
														<name> </name>
														<IsTimeVarying>false</IsTimeVarying>
														<ParameterControlType>8</ParameterControlType>
														<LowerBound>0</LowerBound>
														<UpperBound>32768</UpperBound>
														<value>-91445760000000000,0.,0,0,0,0,0,0</value>
													</parameter>
													<parameter authoringApp="PremierePro">
														<parameterid>12</parameterid>
														<name> </name>
														<IsTimeVarying>false</IsTimeVarying>
														<ParameterControlType>8</ParameterControlType>
														<LowerBound>0</LowerBound>
														<UpperBound>32768</UpperBound>
														<value>-91445760000000000,0.,0,0,0,0,0,0</value>
													</parameter>
													<parameter authoringApp="PremierePro">
														<parameterid>13</parameterid>
														<name>start</name>
														<IsTimeVarying>false</IsTimeVarying>
														<ParameterControlType>8</ParameterControlType>
														<LowerBound>-100</LowerBound>
														<UpperBound>1000000000</UpperBound>
														<value>-91445760000000000,0.,0,0,0,0,0,0</value>
													</parameter>
													<parameter authoringApp="PremierePro">
														<parameterid>14</parameterid>
														<name>end</name>
														<IsTimeVarying>false</IsTimeVarying>
														<ParameterControlType>8</ParameterControlType>
														<LowerBound>-100</LowerBound>
														<UpperBound>1000000000</UpperBound>
														<value>-91445760000000000,101.,0,0,0,0,0,0</value>
													</parameter>
													<parameter authoringApp="PremierePro">
														<parameterid>15</parameterid>
														<name> </name>
														<IsTimeVarying>false</IsTimeVarying>
														<ParameterControlType>4</ParameterControlType>
														<LowerBound>false</LowerBound>
														<UpperBound>true</UpperBound>
														<value>-91445760000000000,false,0,0,0,0,0,0</value>
													</parameter>
													<parameter authoringApp="PremierePro">
														<parameterid>16</parameterid>
														<name> </name>
														<IsTimeVarying>false</IsTimeVarying>
														<ParameterControlType>4</ParameterControlType>
														<LowerBound>false</LowerBound>
														<UpperBound>true</UpperBound>
														<value>-91445760000000000,false,0,0,0,0,0,0</value>
													</parameter>
													<parameter authoringApp="PremierePro">
														<parameterid>17</parameterid>
														<name> </name>
														<IsTimeVarying>false</IsTimeVarying>
														<ParameterControlType>4</ParameterControlType>
														<LowerBound>false</LowerBound>
														<UpperBound>true</UpperBound>
														<value>-91445760000000000,false,0,0,0,0,0,0</value>
													</parameter>
													<parameter authoringApp="PremierePro">
														<parameterid>18</parameterid>
														<name> </name>
														<IsTimeVarying>false</IsTimeVarying>
														<ParameterControlType>4</ParameterControlType>
														<LowerBound>false</LowerBound>
														<UpperBound>true</UpperBound>
														<value>-91445760000000000,false,0,0,0,0,0,0</value>
													</parameter>
													<parameter authoringApp="PremierePro">
														<parameterid>19</parameterid>
														<name>Parent Width</name>
														<IsTimeVarying>false</IsTimeVarying>
														<ParameterControlType>2</ParameterControlType>
														<LowerBound>0</LowerBound>
														<UpperBound>20000</UpperBound>
														<value>-91445760000000000,0.,0,0,0,0,0,0</value>
													</parameter>
													<parameter authoringApp="PremierePro">
														<parameterid>20</parameterid>
														<name>Parent Height</name>
														<IsTimeVarying>false</IsTimeVarying>
														<ParameterControlType>2</ParameterControlType>
														<LowerBound>0</LowerBound>
														<UpperBound>20000</UpperBound>
														<value>-91445760000000000,0.,0,0,0,0,0,0</value>
													</parameter>
													<parameter authoringApp="PremierePro">
														<parameterid>21</parameterid>
														<name>Parent Rotation</name>
														<IsTimeVarying>false</IsTimeVarying>
														<ParameterControlType>3</ParameterControlType>
														<LowerBound>-32768</LowerBound>
														<UpperBound>32767</UpperBound>
														<value>-91445760000000000,0.,0,0,0,0,0,0</value>
													</parameter>
												</effect>
											</filter>
											<logginginfo>
												<description></description>
												<scene></scene>
												<shottake></shottake>
												<lognote></lognote>
												<good></good>
												<originalvideofilename></originalvideofilename>
												<originalaudiofilename></originalaudiofilename>
											</logginginfo>
											<colorinfo>
												<lut></lut>
												<lut1></lut1>
												<asc_sop></asc_sop>
												<asc_sat></asc_sat>
												<lut2></lut2>
											</colorinfo>
										</clipitem>
										<transitionitem>
											<start>1097</start>
											<end>1122</end>
											<alignment>end-black</alignment>
											<cutPointTicks>254016000000</cutPointTicks>
											<rate>
												<timebase>25</timebase>
												<ntsc>FALSE</ntsc>
											</rate>
											<effect>
												<name>Edge Wipe</name>
												<effectid>Edge Wipe</effectid>
												<effectcategory>Wipe</effectcategory>
												<effecttype>transition</effecttype>
												<mediatype>video</mediatype>
												<wipecode>2</wipecode>
												<wipeaccuracy>100</wipeaccuracy>
												<startratio>0</startratio>
												<endratio>1</endratio>
												<reverse>FALSE</reverse>
												<parameter authoringApp="PremierePro">
													<parameterid>directionofwipe</parameterid>
													<name>Angle</name>
													<valuemin>-360</valuemin>
													<valuemax>360</valuemax>
													<value>90</value>
												</parameter>
											</effect>
										</transitionitem>
										<enabled>TRUE</enabled>
										<locked>FALSE</locked>
									</track>
								</video>
								<audio>
									<numOutputChannels>2</numOutputChannels>
									<format>
										<samplecharacteristics>
											<depth>16</depth>
											<samplerate>48000</samplerate>
										</samplecharacteristics>
									</format>
									<outputs>
										<group>
											<index>1</index>
											<numchannels>1</numchannels>
											<downmix>0</downmix>
											<channel>
												<index>1</index>
											</channel>
										</group>
										<group>
											<index>2</index>
											<numchannels>1</numchannels>
											<downmix>0</downmix>
											<channel>
												<index>2</index>
											</channel>
										</group>
									</outputs>
									<track TL.SQTrackAudioKeyframeStyle="0" TL.SQTrackShy="0" TL.SQTrackExpandedHeight="25" TL.SQTrackExpanded="0" MZ.TrackTargeted="1" PannerCurrentValue="0.5" PannerStartKeyframe="-91445760000000000,0.5,0,0,0,0,0,0" PannerName="Balance" currentExplodedTrackIndex="0" totalExplodedTrackCount="2" premiereTrackType="Stereo">
										<enabled>TRUE</enabled>
										<locked>FALSE</locked>
										<outputchannelindex>1</outputchannelindex>
									</track>
									<track TL.SQTrackAudioKeyframeStyle="0" TL.SQTrackShy="0" TL.SQTrackExpandedHeight="25" TL.SQTrackExpanded="0" MZ.TrackTargeted="1" PannerCurrentValue="0.5" PannerStartKeyframe="-91445760000000000,0.5,0,0,0,0,0,0" PannerName="Balance" currentExplodedTrackIndex="1" totalExplodedTrackCount="2" premiereTrackType="Stereo">
										<enabled>TRUE</enabled>
										<locked>FALSE</locked>
										<outputchannelindex>2</outputchannelindex>
									</track>
								</audio>
							</media>
							<timecode>
								<rate>
									<timebase>25</timebase>
									<ntsc>FALSE</ntsc>
								</rate>
								<string>00:00:00:00</string>
								<frame>0</frame>
								<displayformat>NDF</displayformat>
							</timecode>
								<marker>
									<comment></comment>
									<name></name>
									<in>50</in>
									<out>-1</out>
									<pproColor>4292277273</pproColor>
								</marker>
								<marker>
									<comment></comment>
									<name></name>
									<in>800</in>
									<out>-1</out>
									<pproColor>4292277273</pproColor>
								</marker>
								<marker>
									<comment></comment>
									<name></name>
									<in>425</in>
									<out>-1</out>
									<pproColor>4292277273</pproColor>
								</marker>
							<logginginfo>
								<description></description>
								<scene></scene>
								<shottake></shottake>
								<lognote></lognote>
								<good></good>
								<originalvideofilename></originalvideofilename>
								<originalaudiofilename></originalaudiofilename>
							</logginginfo>
						</sequence>
							<marker>
								<comment></comment>
								<name></name>
								<in>50</in>
								<out>-1</out>
								<pproColor>4292277273</pproColor>
							</marker>
							<marker>
								<comment></comment>
								<name></name>
								<in>800</in>
								<out>-1</out>
								<pproColor>4292277273</pproColor>
							</marker>
							<marker>
								<comment></comment>
								<name></name>
								<in>425</in>
								<out>-1</out>
								<pproColor>4292277273</pproColor>
							</marker>
						<labels>
							<label2>Forest</label2>
						</labels>
					</clipitem>
					<clipitem id="clipitem-1909">
						<masterclipid>masterclip-843</masterclipid>
						<name>2</name>
						<enabled>FALSE</enabled>
						<duration>1125</duration>
						<rate>
							<timebase>25</timebase>
							<ntsc>FALSE</ntsc>
						</rate>
						<start>57056</start>
						<end>57431</end>
						<in>375</in>
						<out>750</out>
						<pproTicksIn>3810240000000</pproTicksIn>
						<pproTicksOut>7620480000000</pproTicksOut>
						<sequence id="sequence-155"/>
							<marker>
								<comment></comment>
								<name></name>
								<in>50</in>
								<out>-1</out>
								<pproColor>4292277273</pproColor>
							</marker>
							<marker>
								<comment></comment>
								<name></name>
								<in>800</in>
								<out>-1</out>
								<pproColor>4292277273</pproColor>
							</marker>
							<marker>
								<comment></comment>
								<name></name>
								<in>425</in>
								<out>-1</out>
								<pproColor>4292277273</pproColor>
							</marker>
						<labels>
							<label2>Forest</label2>
						</labels>
					</clipitem>
					<clipitem id="clipitem-1910">
						<masterclipid>masterclip-843</masterclipid>
						<name>2</name>
						<enabled>FALSE</enabled>
						<duration>1125</duration>
						<rate>
							<timebase>25</timebase>
							<ntsc>FALSE</ntsc>
						</rate>
						<start>58252</start>
						<end>58627</end>
						<in>750</in>
						<out>1125</out>
						<pproTicksIn>7620480000000</pproTicksIn>
						<pproTicksOut>11430720000000</pproTicksOut>
						<sequence id="sequence-155"/>
							<marker>
								<comment></comment>
								<name></name>
								<in>50</in>
								<out>-1</out>
								<pproColor>4292277273</pproColor>
							</marker>
							<marker>
								<comment></comment>
								<name></name>
								<in>800</in>
								<out>-1</out>
								<pproColor>4292277273</pproColor>
							</marker>
							<marker>
								<comment></comment>
								<name></name>
								<in>425</in>
								<out>-1</out>
								<pproColor>4292277273</pproColor>
							</marker>
						<labels>
							<label2>Forest</label2>
						</labels>
					</clipitem>
					<clipitem id="clipitem-1911">
						<masterclipid>masterclip-849</masterclipid>
						<name>1</name>
						<enabled>FALSE</enabled>
						<duration>1125</duration>
						<rate>
							<timebase>25</timebase>
							<ntsc>FALSE</ntsc>
						</rate>
						<start>61129</start>
						<end>61504</end>
						<in>0</in>
						<out>375</out>
						<pproTicksIn>0</pproTicksIn>
						<pproTicksOut>3810240000000</pproTicksOut>
						<sequence id="sequence-156" TL.SQAudioVisibleBase="0" TL.SQVideoVisibleBase="0" TL.SQVisibleBaseTime="0" TL.SQAVDividerPosition="0.5" TL.SQHideShyTracks="0" TL.SQHeaderWidth="236" Monitor.ProgramZoomOut="11430720000000" Monitor.ProgramZoomIn="0" TL.SQTimePerPixel="0.19620667102680819" AM.TrackVScrollPosition="0" AM.TrackScrollPosition="0" MZ.EditLine="7691604480000" MZ.Sequence.PreviewFrameSizeHeight="576" MZ.Sequence.PreviewFrameSizeWidth="720" MZ.Sequence.AudioTimeDisplayFormat="200" MZ.Sequence.PreviewRenderingClassID="1061109567" MZ.Sequence.PreviewRenderingPresetCodec="1685480304" MZ.Sequence.PreviewRenderingPresetPath="EncoderPresets/SequencePreview/04be6e19-a018-4e0c-a9d6-0ab44c64752b/QuickTime DV PAL.epr" MZ.Sequence.PreviewUseMaxRenderQuality="false" MZ.Sequence.PreviewUseMaxBitDepth="false" MZ.Sequence.EditingModeGUID="04be6e19-a018-4e0c-a9d6-0ab44c64752b" MZ.Sequence.VideoTimeDisplayFormat="101" MZ.WorkOutPoint="11430720000000" MZ.WorkInPoint="0" MZ.ZeroPoint="0">
							<duration>1125</duration>
							<rate>
								<timebase>25</timebase>
								<ntsc>FALSE</ntsc>
							</rate>
							<name>RU_Nested</name>
							<media>
								<video>
									<format>
										<samplecharacteristics>
											<rate>
												<timebase>25</timebase>
												<ntsc>FALSE</ntsc>
											</rate>
											<codec>
												<name>Apple ProRes 422</name>
												<appspecificdata>
													<appname>Final Cut Pro</appname>
													<appmanufacturer>Apple Inc.</appmanufacturer>
													<appversion>7.0</appversion>
													<data>
														<qtcodec>
															<codecname>Apple ProRes 422</codecname>
															<codectypename>Apple ProRes 422</codectypename>
															<codectypecode>apcn</codectypecode>
															<codecvendorcode>appl</codecvendorcode>
															<spatialquality>1024</spatialquality>
															<temporalquality>0</temporalquality>
															<keyframerate>0</keyframerate>
															<datarate>0</datarate>
														</qtcodec>
													</data>
												</appspecificdata>
											</codec>
											<width>720</width>
											<height>576</height>
											<anamorphic>TRUE</anamorphic>
											<pixelaspectratio>PAL-601</pixelaspectratio>
											<fielddominance>lower</fielddominance>
											<colordepth>24</colordepth>
										</samplecharacteristics>
									</format>
									<track TL.SQTrackShy="0" TL.SQTrackExpandedHeight="25" TL.SQTrackExpanded="0" MZ.TrackTargeted="1">
										<clipitem id="clipitem-1912">
											<masterclipid>masterclip-850</masterclipid>
											<name>Plashka_Right_DV.mov</name>
											<enabled>TRUE</enabled>
											<duration>375</duration>
											<rate>
												<timebase>25</timebase>
												<ntsc>FALSE</ntsc>
											</rate>
											<start>0</start>
											<end>375</end>
											<in>0</in>
											<out>375</out>
											<pproTicksIn>0</pproTicksIn>
											<pproTicksOut>3810240000000</pproTicksOut>
											<alphatype>straight</alphatype>
											<pixelaspectratio>PAL-601</pixelaspectratio>
											<anamorphic>TRUE</anamorphic>
											<file id="file-704">
												<name>Plashka_Right_DV.mov</name>
												<pathurl>file://localhost/Volumes/1Tb/_MUZ_TV/graphika/RU-21/MOD/Plashka_Right_DV.mov</pathurl>
												<rate>
													<timebase>25</timebase>
													<ntsc>FALSE</ntsc>
												</rate>
												<duration>375</duration>
												<timecode>
													<rate>
														<timebase>25</timebase>
														<ntsc>FALSE</ntsc>
													</rate>
													<string>00:00:15:10</string>
													<frame>385</frame>
													<displayformat>NDF</displayformat>
												</timecode>
												<media>
													<video>
														<samplecharacteristics>
															<rate>
																<timebase>25</timebase>
																<ntsc>FALSE</ntsc>
															</rate>
															<width>720</width>
															<height>576</height>
															<anamorphic>TRUE</anamorphic>
															<pixelaspectratio>PAL-601</pixelaspectratio>
															<fielddominance>lower</fielddominance>
														</samplecharacteristics>
													</video>
												</media>
											</file>
											<filter>
												<effect>
													<name>Basic Motion</name>
													<effectid>basic</effectid>
													<effectcategory>motion</effectcategory>
													<effecttype>motion</effecttype>
													<mediatype>video</mediatype>
													<pproBypass>false</pproBypass>
													<parameter authoringApp="PremierePro">
														<parameterid>scale</parameterid>
														<name>Scale</name>
														<valuemin>0</valuemin>
														<valuemax>1000</valuemax>
														<value>100</value>
													</parameter>
													<parameter authoringApp="PremierePro">
														<parameterid>rotation</parameterid>
														<name>Rotation</name>
														<valuemin>-8640</valuemin>
														<valuemax>8640</valuemax>
														<value>0</value>
													</parameter>
													<parameter authoringApp="PremierePro">
														<parameterid>center</parameterid>
														<name>Center</name>
														<value>
															<horiz>-5.55112e-17</horiz>
															<vert>-1.11022e-16</vert>
														</value>
													</parameter>
													<parameter authoringApp="PremierePro">
														<parameterid>centerOffset</parameterid>
														<name>Anchor Point</name>
														<value>
															<horiz>0.402314</horiz>
															<vert>0.41875</vert>
														</value>
													</parameter>
													<parameter authoringApp="PremierePro">
														<parameterid>antiflicker</parameterid>
														<name>Anti-flicker Filter</name>
														<valuemin>0.0</valuemin>
														<valuemax>1.0</valuemax>
														<value>0</value>
													</parameter>
												</effect>
											</filter>
											<filter>
												<effect>
													<name>Distort</name>
													<effectid>deformation</effectid>
													<effectcategory>motion</effectcategory>
													<effecttype>motion</effecttype>
													<mediatype>video</mediatype>
													<parameter authoringApp="PremierePro">
														<parameterid>aspect</parameterid>
														<name>Aspect</name>
														<valuemin>-10000</valuemin>
														<valuemax>10000</valuemax>
														<value>11.1111</value>
													</parameter>
												</effect>
											</filter>
											<logginginfo>
												<description></description>
												<scene></scene>
												<shottake></shottake>
												<lognote></lognote>
												<good></good>
												<originalvideofilename></originalvideofilename>
												<originalaudiofilename></originalaudiofilename>
											</logginginfo>
											<colorinfo>
												<lut></lut>
												<lut1></lut1>
												<asc_sop></asc_sop>
												<asc_sat></asc_sat>
												<lut2></lut2>
											</colorinfo>
											<labels>
												<label2>Violet</label2>
											</labels>
										</clipitem>
										<clipitem id="clipitem-1913">
											<masterclipid>masterclip-850</masterclipid>
											<name>Plashka_Right_DV.mov</name>
											<enabled>TRUE</enabled>
											<duration>375</duration>
											<rate>
												<timebase>25</timebase>
												<ntsc>FALSE</ntsc>
											</rate>
											<start>375</start>
											<end>750</end>
											<in>0</in>
											<out>375</out>
											<pproTicksIn>0</pproTicksIn>
											<pproTicksOut>3810240000000</pproTicksOut>
											<alphatype>straight</alphatype>
											<file id="file-704"/>
											<filter>
												<effect>
													<name>Basic Motion</name>
													<effectid>basic</effectid>
													<effectcategory>motion</effectcategory>
													<effecttype>motion</effecttype>
													<mediatype>video</mediatype>
													<pproBypass>false</pproBypass>
													<parameter authoringApp="PremierePro">
														<parameterid>scale</parameterid>
														<name>Scale</name>
														<valuemin>0</valuemin>
														<valuemax>1000</valuemax>
														<value>100</value>
													</parameter>
													<parameter authoringApp="PremierePro">
														<parameterid>rotation</parameterid>
														<name>Rotation</name>
														<valuemin>-8640</valuemin>
														<valuemax>8640</valuemax>
														<value>0</value>
													</parameter>
													<parameter authoringApp="PremierePro">
														<parameterid>center</parameterid>
														<name>Center</name>
														<value>
															<horiz>-5.55112e-17</horiz>
															<vert>-1.11022e-16</vert>
														</value>
													</parameter>
													<parameter authoringApp="PremierePro">
														<parameterid>centerOffset</parameterid>
														<name>Anchor Point</name>
														<value>
															<horiz>0.402314</horiz>
															<vert>0.41875</vert>
														</value>
													</parameter>
													<parameter authoringApp="PremierePro">
														<parameterid>antiflicker</parameterid>
														<name>Anti-flicker Filter</name>
														<valuemin>0.0</valuemin>
														<valuemax>1.0</valuemax>
														<value>0</value>
													</parameter>
												</effect>
											</filter>
											<filter>
												<effect>
													<name>Distort</name>
													<effectid>deformation</effectid>
													<effectcategory>motion</effectcategory>
													<effecttype>motion</effecttype>
													<mediatype>video</mediatype>
													<parameter authoringApp="PremierePro">
														<parameterid>aspect</parameterid>
														<name>Aspect</name>
														<valuemin>-10000</valuemin>
														<valuemax>10000</valuemax>
														<value>11.1111</value>
													</parameter>
												</effect>
											</filter>
											<logginginfo>
												<description></description>
												<scene></scene>
												<shottake></shottake>
												<lognote></lognote>
												<good></good>
												<originalvideofilename></originalvideofilename>
												<originalaudiofilename></originalaudiofilename>
											</logginginfo>
											<colorinfo>
												<lut></lut>
												<lut1></lut1>
												<asc_sop></asc_sop>
												<asc_sat></asc_sat>
												<lut2></lut2>
											</colorinfo>
											<labels>
												<label2>Violet</label2>
											</labels>
										</clipitem>
										<clipitem id="clipitem-1914">
											<masterclipid>masterclip-850</masterclipid>
											<name>Plashka_Right_DV.mov</name>
											<enabled>TRUE</enabled>
											<duration>375</duration>
											<rate>
												<timebase>25</timebase>
												<ntsc>FALSE</ntsc>
											</rate>
											<start>750</start>
											<end>1125</end>
											<in>0</in>
											<out>375</out>
											<pproTicksIn>0</pproTicksIn>
											<pproTicksOut>3810240000000</pproTicksOut>
											<alphatype>straight</alphatype>
											<file id="file-704"/>
											<filter>
												<effect>
													<name>Basic Motion</name>
													<effectid>basic</effectid>
													<effectcategory>motion</effectcategory>
													<effecttype>motion</effecttype>
													<mediatype>video</mediatype>
													<pproBypass>false</pproBypass>
													<parameter authoringApp="PremierePro">
														<parameterid>scale</parameterid>
														<name>Scale</name>
														<valuemin>0</valuemin>
														<valuemax>1000</valuemax>
														<value>100</value>
													</parameter>
													<parameter authoringApp="PremierePro">
														<parameterid>rotation</parameterid>
														<name>Rotation</name>
														<valuemin>-8640</valuemin>
														<valuemax>8640</valuemax>
														<value>0</value>
													</parameter>
													<parameter authoringApp="PremierePro">
														<parameterid>center</parameterid>
														<name>Center</name>
														<value>
															<horiz>-5.55112e-17</horiz>
															<vert>-1.11022e-16</vert>
														</value>
													</parameter>
													<parameter authoringApp="PremierePro">
														<parameterid>centerOffset</parameterid>
														<name>Anchor Point</name>
														<value>
															<horiz>0.402314</horiz>
															<vert>0.41875</vert>
														</value>
													</parameter>
													<parameter authoringApp="PremierePro">
														<parameterid>antiflicker</parameterid>
														<name>Anti-flicker Filter</name>
														<valuemin>0.0</valuemin>
														<valuemax>1.0</valuemax>
														<value>0</value>
													</parameter>
												</effect>
											</filter>
											<filter>
												<effect>
													<name>Distort</name>
													<effectid>deformation</effectid>
													<effectcategory>motion</effectcategory>
													<effecttype>motion</effecttype>
													<mediatype>video</mediatype>
													<parameter authoringApp="PremierePro">
														<parameterid>aspect</parameterid>
														<name>Aspect</name>
														<valuemin>-10000</valuemin>
														<valuemax>10000</valuemax>
														<value>11.1111</value>
													</parameter>
												</effect>
											</filter>
											<logginginfo>
												<description></description>
												<scene></scene>
												<shottake></shottake>
												<lognote></lognote>
												<good></good>
												<originalvideofilename></originalvideofilename>
												<originalaudiofilename></originalaudiofilename>
											</logginginfo>
											<colorinfo>
												<lut></lut>
												<lut1></lut1>
												<asc_sop></asc_sop>
												<asc_sat></asc_sat>
												<lut2></lut2>
											</colorinfo>
											<labels>
												<label2>Violet</label2>
											</labels>
										</clipitem>
										<enabled>TRUE</enabled>
										<locked>FALSE</locked>
									</track>
									<track TL.SQTrackShy="0" TL.SQTrackExpandedHeight="25" TL.SQTrackExpanded="0" MZ.TrackTargeted="0">
										<transitionitem>
											<start>6</start>
											<end>35</end>
											<alignment>start-black</alignment>
											<cutPointTicks>0</cutPointTicks>
											<rate>
												<timebase>25</timebase>
												<ntsc>FALSE</ntsc>
											</rate>
											<effect>
												<name>Edge Wipe</name>
												<effectid>Edge Wipe</effectid>
												<effectcategory>Wipe</effectcategory>
												<effecttype>transition</effecttype>
												<mediatype>video</mediatype>
												<wipecode>2</wipecode>
												<wipeaccuracy>100</wipeaccuracy>
												<startratio>0</startratio>
												<endratio>1</endratio>
												<reverse>FALSE</reverse>
												<parameter authoringApp="PremierePro">
													<parameterid>directionofwipe</parameterid>
													<name>Angle</name>
													<valuemin>-360</valuemin>
													<valuemax>360</valuemax>
													<value>270</value>
												</parameter>
											</effect>
										</transitionitem>
										<clipitem id="clipitem-1915">
											<masterclipid>masterclip-851</masterclipid>
											<name>1_1.png</name>
											<enabled>TRUE</enabled>
											<duration>1080000</duration>
											<rate>
												<timebase>25</timebase>
												<ntsc>FALSE</ntsc>
											</rate>
											<start>-1</start>
											<end>-1</end>
											<in>90006</in>
											<out>90369</out>
											<pproTicksIn>914518563840000</pproTicksIn>
											<pproTicksOut>918206876160000</pproTicksOut>
											<alphatype>straight</alphatype>
											<pixelaspectratio>square</pixelaspectratio>
											<anamorphic>FALSE</anamorphic>
											<file id="file-705">
												<name>1_1.png</name>
												<pathurl>file://localhost/_MUZ_TV/project_AP/RU/_TITLE/468/PNG/1_1.png</pathurl>
												<rate>
													<timebase>30</timebase>
													<ntsc>TRUE</ntsc>
												</rate>
												<timecode>
													<rate>
														<timebase>30</timebase>
														<ntsc>TRUE</ntsc>
													</rate>
													<string>00;00;00;00</string>
													<frame>0</frame>
													<displayformat>DF</displayformat>
												</timecode>
												<media>
													<video>
														<samplecharacteristics>
															<rate>
																<timebase>30</timebase>
																<ntsc>TRUE</ntsc>
															</rate>
															<width>1920</width>
															<height>1080</height>
															<anamorphic>FALSE</anamorphic>
															<pixelaspectratio>square</pixelaspectratio>
															<fielddominance>none</fielddominance>
														</samplecharacteristics>
													</video>
												</media>
											</file>
											<filter>
												<effect>
													<name>Basic Motion</name>
													<effectid>basic</effectid>
													<effectcategory>motion</effectcategory>
													<effecttype>motion</effecttype>
													<mediatype>video</mediatype>
													<pproBypass>false</pproBypass>
													<parameter authoringApp="PremierePro">
														<parameterid>scale</parameterid>
														<name>Scale</name>
														<valuemin>0</valuemin>
														<valuemax>1000</valuemax>
														<value>53.3333</value>
													</parameter>
													<parameter authoringApp="PremierePro">
														<parameterid>rotation</parameterid>
														<name>Rotation</name>
														<valuemin>-8640</valuemin>
														<valuemax>8640</valuemax>
														<value>0</value>
													</parameter>
													<parameter authoringApp="PremierePro">
														<parameterid>center</parameterid>
														<name>Center</name>
														<value>
															<horiz>0</horiz>
															<vert>0</vert>
														</value>
													</parameter>
													<parameter authoringApp="PremierePro">
														<parameterid>centerOffset</parameterid>
														<name>Anchor Point</name>
														<value>
															<horiz>0</horiz>
															<vert>0</vert>
														</value>
													</parameter>
													<parameter authoringApp="PremierePro">
														<parameterid>antiflicker</parameterid>
														<name>Anti-flicker Filter</name>
														<valuemin>0.0</valuemin>
														<valuemax>1.0</valuemax>
														<value>0</value>
													</parameter>
												</effect>
											</filter>
											<logginginfo>
												<description></description>
												<scene></scene>
												<shottake></shottake>
												<lognote></lognote>
												<good></good>
												<originalvideofilename></originalvideofilename>
												<originalaudiofilename></originalaudiofilename>
											</logginginfo>
											<colorinfo>
												<lut></lut>
												<lut1></lut1>
												<asc_sop></asc_sop>
												<asc_sat></asc_sat>
												<lut2></lut2>
											</colorinfo>
											<labels>
												<label2>Lavender</label2>
											</labels>
										</clipitem>
										<transitionitem>
											<start>344</start>
											<end>369</end>
											<alignment>end-black</alignment>
											<cutPointTicks>254016000000</cutPointTicks>
											<rate>
												<timebase>25</timebase>
												<ntsc>FALSE</ntsc>
											</rate>
											<effect>
												<name>Edge Wipe</name>
												<effectid>Edge Wipe</effectid>
												<effectcategory>Wipe</effectcategory>
												<effecttype>transition</effecttype>
												<mediatype>video</mediatype>
												<wipecode>2</wipecode>
												<wipeaccuracy>100</wipeaccuracy>
												<startratio>0</startratio>
												<endratio>1</endratio>
												<reverse>FALSE</reverse>
												<parameter authoringApp="PremierePro">
													<parameterid>directionofwipe</parameterid>
													<name>Angle</name>
													<valuemin>-360</valuemin>
													<valuemax>360</valuemax>
													<value>90</value>
												</parameter>
											</effect>
										</transitionitem>
										<transitionitem>
											<start>381</start>
											<end>410</end>
											<alignment>start-black</alignment>
											<cutPointTicks>0</cutPointTicks>
											<rate>
												<timebase>25</timebase>
												<ntsc>FALSE</ntsc>
											</rate>
											<effect>
												<name>Edge Wipe</name>
												<effectid>Edge Wipe</effectid>
												<effectcategory>Wipe</effectcategory>
												<effecttype>transition</effecttype>
												<mediatype>video</mediatype>
												<wipecode>2</wipecode>
												<wipeaccuracy>100</wipeaccuracy>
												<startratio>0</startratio>
												<endratio>1</endratio>
												<reverse>FALSE</reverse>
												<parameter authoringApp="PremierePro">
													<parameterid>directionofwipe</parameterid>
													<name>Angle</name>
													<valuemin>-360</valuemin>
													<valuemax>360</valuemax>
													<value>270</value>
												</parameter>
											</effect>
										</transitionitem>
										<clipitem id="clipitem-1916">
											<masterclipid>masterclip-852</masterclipid>
											<name>1_2.png</name>
											<enabled>TRUE</enabled>
											<duration>1080000</duration>
											<rate>
												<timebase>25</timebase>
												<ntsc>FALSE</ntsc>
											</rate>
											<start>-1</start>
											<end>-1</end>
											<in>90011</in>
											<out>90374</out>
											<pproTicksIn>914569367040000</pproTicksIn>
											<pproTicksOut>918257679360000</pproTicksOut>
											<alphatype>straight</alphatype>
											<pixelaspectratio>square</pixelaspectratio>
											<anamorphic>FALSE</anamorphic>
											<file id="file-706">
												<name>1_2.png</name>
												<pathurl>file://localhost/_MUZ_TV/project_AP/RU/_TITLE/468/PNG/1_2.png</pathurl>
												<rate>
													<timebase>30</timebase>
													<ntsc>TRUE</ntsc>
												</rate>
												<timecode>
													<rate>
														<timebase>30</timebase>
														<ntsc>TRUE</ntsc>
													</rate>
													<string>00;00;00;00</string>
													<frame>0</frame>
													<displayformat>DF</displayformat>
												</timecode>
												<media>
													<video>
														<samplecharacteristics>
															<rate>
																<timebase>30</timebase>
																<ntsc>TRUE</ntsc>
															</rate>
															<width>1920</width>
															<height>1080</height>
															<anamorphic>FALSE</anamorphic>
															<pixelaspectratio>square</pixelaspectratio>
															<fielddominance>none</fielddominance>
														</samplecharacteristics>
													</video>
												</media>
											</file>
											<filter>
												<effect>
													<name>Basic Motion</name>
													<effectid>basic</effectid>
													<effectcategory>motion</effectcategory>
													<effecttype>motion</effecttype>
													<mediatype>video</mediatype>
													<pproBypass>false</pproBypass>
													<parameter authoringApp="PremierePro">
														<parameterid>scale</parameterid>
														<name>Scale</name>
														<valuemin>0</valuemin>
														<valuemax>1000</valuemax>
														<value>53.3333</value>
													</parameter>
													<parameter authoringApp="PremierePro">
														<parameterid>rotation</parameterid>
														<name>Rotation</name>
														<valuemin>-8640</valuemin>
														<valuemax>8640</valuemax>
														<value>0</value>
													</parameter>
													<parameter authoringApp="PremierePro">
														<parameterid>center</parameterid>
														<name>Center</name>
														<value>
															<horiz>0</horiz>
															<vert>0</vert>
														</value>
													</parameter>
													<parameter authoringApp="PremierePro">
														<parameterid>centerOffset</parameterid>
														<name>Anchor Point</name>
														<value>
															<horiz>0</horiz>
															<vert>0</vert>
														</value>
													</parameter>
													<parameter authoringApp="PremierePro">
														<parameterid>antiflicker</parameterid>
														<name>Anti-flicker Filter</name>
														<valuemin>0.0</valuemin>
														<valuemax>1.0</valuemax>
														<value>0</value>
													</parameter>
												</effect>
											</filter>
											<logginginfo>
												<description></description>
												<scene></scene>
												<shottake></shottake>
												<lognote></lognote>
												<good></good>
												<originalvideofilename></originalvideofilename>
												<originalaudiofilename></originalaudiofilename>
											</logginginfo>
											<colorinfo>
												<lut></lut>
												<lut1></lut1>
												<asc_sop></asc_sop>
												<asc_sat></asc_sat>
												<lut2></lut2>
											</colorinfo>
											<labels>
												<label2>Lavender</label2>
											</labels>
										</clipitem>
										<transitionitem>
											<start>719</start>
											<end>744</end>
											<alignment>end-black</alignment>
											<cutPointTicks>254016000000</cutPointTicks>
											<rate>
												<timebase>25</timebase>
												<ntsc>FALSE</ntsc>
											</rate>
											<effect>
												<name>Edge Wipe</name>
												<effectid>Edge Wipe</effectid>
												<effectcategory>Wipe</effectcategory>
												<effecttype>transition</effecttype>
												<mediatype>video</mediatype>
												<wipecode>2</wipecode>
												<wipeaccuracy>100</wipeaccuracy>
												<startratio>0</startratio>
												<endratio>1</endratio>
												<reverse>FALSE</reverse>
												<parameter authoringApp="PremierePro">
													<parameterid>directionofwipe</parameterid>
													<name>Angle</name>
													<valuemin>-360</valuemin>
													<valuemax>360</valuemax>
													<value>90</value>
												</parameter>
											</effect>
										</transitionitem>
										<transitionitem>
											<start>756</start>
											<end>785</end>
											<alignment>start-black</alignment>
											<cutPointTicks>0</cutPointTicks>
											<rate>
												<timebase>25</timebase>
												<ntsc>FALSE</ntsc>
											</rate>
											<effect>
												<name>Edge Wipe</name>
												<effectid>Edge Wipe</effectid>
												<effectcategory>Wipe</effectcategory>
												<effecttype>transition</effecttype>
												<mediatype>video</mediatype>
												<wipecode>2</wipecode>
												<wipeaccuracy>100</wipeaccuracy>
												<startratio>0</startratio>
												<endratio>1</endratio>
												<reverse>FALSE</reverse>
												<parameter authoringApp="PremierePro">
													<parameterid>directionofwipe</parameterid>
													<name>Angle</name>
													<valuemin>-360</valuemin>
													<valuemax>360</valuemax>
													<value>270</value>
												</parameter>
											</effect>
										</transitionitem>
										<clipitem id="clipitem-1917">
											<masterclipid>masterclip-853</masterclipid>
											<name>1_3.png</name>
											<enabled>TRUE</enabled>
											<duration>1080000</duration>
											<rate>
												<timebase>25</timebase>
												<ntsc>FALSE</ntsc>
											</rate>
											<start>-1</start>
											<end>-1</end>
											<in>90011</in>
											<out>90375</out>
											<pproTicksIn>914569367040000</pproTicksIn>
											<pproTicksOut>918267840000000</pproTicksOut>
											<alphatype>none</alphatype>
											<pixelaspectratio>PAL-601</pixelaspectratio>
											<anamorphic>TRUE</anamorphic>
											<file id="file-707">
												<name>1_3.png</name>
												<pathurl>file://localhost/_MUZ_TV/project_AP/RU/_TITLE/468/PNG/1_3.png</pathurl>
												<rate>
													<timebase>25</timebase>
													<ntsc>FALSE</ntsc>
												</rate>
												<duration>1080000</duration>
												<timecode>
													<rate>
														<timebase>25</timebase>
														<ntsc>FALSE</ntsc>
													</rate>
													<string>00:00:00:00</string>
													<frame>0</frame>
													<displayformat>NDF</displayformat>
												</timecode>
												<media>
													<video>
														<samplecharacteristics>
															<rate>
																<timebase>25</timebase>
																<ntsc>FALSE</ntsc>
															</rate>
															<width>1920</width>
															<height>1080</height>
															<anamorphic>TRUE</anamorphic>
															<pixelaspectratio>PAL-601</pixelaspectratio>
															<fielddominance>none</fielddominance>
														</samplecharacteristics>
													</video>
												</media>
											</file>
											<filter>
												<effect>
													<name>Basic Motion</name>
													<effectid>basic</effectid>
													<effectcategory>motion</effectcategory>
													<effecttype>motion</effecttype>
													<mediatype>video</mediatype>
													<pproBypass>false</pproBypass>
													<parameter authoringApp="PremierePro">
														<parameterid>scale</parameterid>
														<name>Scale</name>
														<valuemin>0</valuemin>
														<valuemax>1000</valuemax>
														<value>53.3333</value>
													</parameter>
													<parameter authoringApp="PremierePro">
														<parameterid>rotation</parameterid>
														<name>Rotation</name>
														<valuemin>-8640</valuemin>
														<valuemax>8640</valuemax>
														<value>0</value>
													</parameter>
													<parameter authoringApp="PremierePro">
														<parameterid>center</parameterid>
														<name>Center</name>
														<value>
															<horiz>0</horiz>
															<vert>0</vert>
														</value>
													</parameter>
													<parameter authoringApp="PremierePro">
														<parameterid>centerOffset</parameterid>
														<name>Anchor Point</name>
														<value>
															<horiz>0</horiz>
															<vert>0</vert>
														</value>
													</parameter>
													<parameter authoringApp="PremierePro">
														<parameterid>antiflicker</parameterid>
														<name>Anti-flicker Filter</name>
														<valuemin>0.0</valuemin>
														<valuemax>1.0</valuemax>
														<value>0</value>
													</parameter>
												</effect>
											</filter>
											<logginginfo>
												<description></description>
												<scene></scene>
												<shottake></shottake>
												<lognote></lognote>
												<good></good>
												<originalvideofilename></originalvideofilename>
												<originalaudiofilename></originalaudiofilename>
											</logginginfo>
											<colorinfo>
												<lut></lut>
												<lut1></lut1>
												<asc_sop></asc_sop>
												<asc_sat></asc_sat>
												<lut2></lut2>
											</colorinfo>
											<labels>
												<label2>Lavender</label2>
											</labels>
										</clipitem>
										<transitionitem>
											<start>1095</start>
											<end>1120</end>
											<alignment>end-black</alignment>
											<cutPointTicks>254016000000</cutPointTicks>
											<rate>
												<timebase>25</timebase>
												<ntsc>FALSE</ntsc>
											</rate>
											<effect>
												<name>Edge Wipe</name>
												<effectid>Edge Wipe</effectid>
												<effectcategory>Wipe</effectcategory>
												<effecttype>transition</effecttype>
												<mediatype>video</mediatype>
												<wipecode>2</wipecode>
												<wipeaccuracy>100</wipeaccuracy>
												<startratio>0</startratio>
												<endratio>1</endratio>
												<reverse>FALSE</reverse>
												<parameter authoringApp="PremierePro">
													<parameterid>directionofwipe</parameterid>
													<name>Angle</name>
													<valuemin>-360</valuemin>
													<valuemax>360</valuemax>
													<value>90</value>
												</parameter>
											</effect>
										</transitionitem>
										<enabled>TRUE</enabled>
										<locked>FALSE</locked>
									</track>
									<track TL.SQTrackShy="0" TL.SQTrackExpandedHeight="25" TL.SQTrackExpanded="0" MZ.TrackTargeted="0">
										<transitionitem>
											<start>755</start>
											<end>780</end>
											<alignment>start-black</alignment>
											<cutPointTicks>0</cutPointTicks>
											<rate>
												<timebase>25</timebase>
												<ntsc>FALSE</ntsc>
											</rate>
											<effect>
												<name>Edge Wipe</name>
												<effectid>Edge Wipe</effectid>
												<effectcategory>Wipe</effectcategory>
												<effecttype>transition</effecttype>
												<mediatype>video</mediatype>
												<wipecode>2</wipecode>
												<wipeaccuracy>100</wipeaccuracy>
												<startratio>0</startratio>
												<endratio>1</endratio>
												<reverse>FALSE</reverse>
												<parameter authoringApp="PremierePro">
													<parameterid>directionofwipe</parameterid>
													<name>Angle</name>
													<valuemin>-360</valuemin>
													<valuemax>360</valuemax>
													<value>270</value>
												</parameter>
											</effect>
										</transitionitem>
										<clipitem id="clipitem-1918">
											<masterclipid>masterclip-854</masterclipid>
											<name>Graphic</name>
											<enabled>FALSE</enabled>
											<duration>1080000</duration>
											<rate>
												<timebase>25</timebase>
												<ntsc>FALSE</ntsc>
											</rate>
											<start>-1</start>
											<end>-1</end>
											<in>89905</in>
											<out>90272</out>
											<pproTicksIn>913492339200000</pproTicksIn>
											<pproTicksOut>917221294080000</pproTicksOut>
											<alphatype>straight</alphatype>
											<pixelaspectratio>PAL-601</pixelaspectratio>
											<anamorphic>TRUE</anamorphic>
											<file id="file-708">
												<name>Graphic</name>
												<mediaSource>GraphicAndType</mediaSource>
												<rate>
													<timebase>30</timebase>
													<ntsc>TRUE</ntsc>
												</rate>
												<timecode>
													<rate>
														<timebase>30</timebase>
														<ntsc>TRUE</ntsc>
													</rate>
													<string>00;00;00;00</string>
													<frame>0</frame>
													<displayformat>DF</displayformat>
												</timecode>
												<media>
													<video>
														<samplecharacteristics>
															<rate>
																<timebase>30</timebase>
																<ntsc>TRUE</ntsc>
															</rate>
															<width>720</width>
															<height>576</height>
															<anamorphic>TRUE</anamorphic>
															<pixelaspectratio>PAL-601</pixelaspectratio>
															<fielddominance>none</fielddominance>
														</samplecharacteristics>
													</video>
												</media>
											</file>
											<filter>
												<effect>
													<name>Vector Motion</name>
													<effectid>GraphicGroup</effectid>
													<effectcategory>graphic</effectcategory>
													<effecttype>filter</effecttype>
													<mediatype>video</mediatype>
													<pproBypass>false</pproBypass>
													<parameter authoringApp="PremierePro">
														<parameterid>1</parameterid>
														<name>Position</name>
														<IsTimeVarying>false</IsTimeVarying>
														<value>-91445760000000000,0.81693898908787344:0.49085601568222115,0,0,0,0,0,0,5,4,0,0,0,0</value>
													</parameter>
													<parameter authoringApp="PremierePro">
														<parameterid>2</parameterid>
														<name>Scale</name>
														<IsTimeVarying>false</IsTimeVarying>
														<ParameterControlType>2</ParameterControlType>
														<LowerBound>0</LowerBound>
														<UpperBound>10000</UpperBound>
														<UpperUIBound>200</UpperUIBound>
														<value>-91445760000000000,100.,0,0,0,0,0,0</value>
													</parameter>
													<parameter authoringApp="PremierePro">
														<parameterid>3</parameterid>
														<name>Scale Width</name>
														<IsTimeVarying>false</IsTimeVarying>
														<ParameterControlType>2</ParameterControlType>
														<LowerBound>0</LowerBound>
														<UpperBound>10000</UpperBound>
														<UpperUIBound>200</UpperUIBound>
														<value>-91445760000000000,100.,0,0,0,0,0,0</value>
													</parameter>
													<parameter authoringApp="PremierePro">
														<parameterid>4</parameterid>
														<name> </name>
														<IsTimeVarying>false</IsTimeVarying>
														<ParameterControlType>4</ParameterControlType>
														<LowerBound>false</LowerBound>
														<UpperBound>true</UpperBound>
														<value>-91445760000000000,true,0,0,0,0,0,0</value>
													</parameter>
													<parameter authoringApp="PremierePro">
														<parameterid>5</parameterid>
														<name>Rotation</name>
														<IsTimeVarying>false</IsTimeVarying>
														<ParameterControlType>3</ParameterControlType>
														<LowerBound>-32768</LowerBound>
														<UpperBound>32767</UpperBound>
														<value>-91445760000000000,0.,0,0,0,0,0,0</value>
													</parameter>
													<parameter authoringApp="PremierePro">
														<parameterid>6</parameterid>
														<name>Anchor Point</name>
														<IsTimeVarying>false</IsTimeVarying>
														<value>-91445760000000000,0.5:0.5,0,0,0,0,0,0,5,4,0,0,0,0</value>
													</parameter>
												</effect>
											</filter>
											<filter>
												<effect>
													<name>Данил Прытков признаётся, &#13;что сильные провалы &#13;мотивируют его на творчество &#13;не меньше, чем победы. </name>
													<effectid>GraphicAndType</effectid>
													<effectcategory>graphic</effectcategory>
													<effecttype>filter</effecttype>
													<mediatype>video</mediatype>
													<pproBypass>false</pproBypass>
													<pproExpanded>true</pproExpanded>
													<parameter authoringApp="PremierePro">
														<parameterid>1</parameterid>
														<name>Source Text</name>
														<hash>698123b5-7d57-7b79-efb1-b0df00000a31</hash>
													</parameter>
													<parameter authoringApp="PremierePro">
														<parameterid>2</parameterid>
														<name>Transform</name>
														<IsTimeVarying>false</IsTimeVarying>
														<ParameterControlType>11</ParameterControlType>
														<LowerBound>false</LowerBound>
														<UpperBound>false</UpperBound>
														<value>-91445760000000000,false,0,0,0,0,0,0</value>
													</parameter>
													<parameter authoringApp="PremierePro">
														<parameterid>3</parameterid>
														<name>Position</name>
														<IsTimeVarying>false</IsTimeVarying>
														<value>-91445760000000000,0.270416259765625:0.640594482421875,0,0,0,0,0,0,5,4,0,0,0,0</value>
													</parameter>
													<parameter authoringApp="PremierePro">
														<parameterid>4</parameterid>
														<name>Scale</name>
														<IsTimeVarying>false</IsTimeVarying>
														<ParameterControlType>2</ParameterControlType>
														<LowerBound>0</LowerBound>
														<UpperBound>4000</UpperBound>
														<value>-91445760000000000,100.,0,0,0,0,0,0</value>
													</parameter>
													<parameter authoringApp="PremierePro">
														<parameterid>5</parameterid>
														<name>Horizontal Scale</name>
														<IsTimeVarying>false</IsTimeVarying>
														<ParameterControlType>2</ParameterControlType>
														<LowerBound>0</LowerBound>
														<UpperBound>4000</UpperBound>
														<value>-91445760000000000,100.,0,0,0,0,0,0</value>
													</parameter>
													<parameter authoringApp="PremierePro">
														<parameterid>6</parameterid>
														<name> </name>
														<IsTimeVarying>false</IsTimeVarying>
														<ParameterControlType>4</ParameterControlType>
														<LowerBound>false</LowerBound>
														<UpperBound>true</UpperBound>
														<value>-91445760000000000,true,0,0,0,0,0,0</value>
													</parameter>
													<parameter authoringApp="PremierePro">
														<parameterid>7</parameterid>
														<name>Rotation</name>
														<IsTimeVarying>false</IsTimeVarying>
														<ParameterControlType>3</ParameterControlType>
														<LowerBound>-32768</LowerBound>
														<UpperBound>32767</UpperBound>
														<value>-91445760000000000,0.,0,0,0,0,0,0</value>
													</parameter>
													<parameter authoringApp="PremierePro">
														<parameterid>8</parameterid>
														<name>Opacity</name>
														<IsTimeVarying>false</IsTimeVarying>
														<ParameterControlType>2</ParameterControlType>
														<LowerBound>0</LowerBound>
														<UpperBound>100</UpperBound>
														<value>-91445760000000000,100.,0,0,0,0,0,0</value>
													</parameter>
													<parameter authoringApp="PremierePro">
														<parameterid>9</parameterid>
														<name>Anchor Point</name>
														<IsTimeVarying>false</IsTimeVarying>
														<value>-91445760000000000,0:0,0,0,0,0,0,0,5,4,0,0,0,0</value>
													</parameter>
													<parameter authoringApp="PremierePro">
														<parameterid>10</parameterid>
														<name></name>
														<IsTimeVarying>false</IsTimeVarying>
														<ParameterControlType>12</ParameterControlType>
														<LowerBound>false</LowerBound>
														<UpperBound>false</UpperBound>
														<value>-91445760000000000,false,0,0,0,0,0,0</value>
													</parameter>
													<parameter authoringApp="PremierePro">
														<parameterid>11</parameterid>
														<name> </name>
														<IsTimeVarying>false</IsTimeVarying>
														<ParameterControlType>8</ParameterControlType>
														<LowerBound>0</LowerBound>
														<UpperBound>32768</UpperBound>
														<value>-91445760000000000,0.,0,0,0,0,0,0</value>
													</parameter>
													<parameter authoringApp="PremierePro">
														<parameterid>12</parameterid>
														<name> </name>
														<IsTimeVarying>false</IsTimeVarying>
														<ParameterControlType>8</ParameterControlType>
														<LowerBound>0</LowerBound>
														<UpperBound>32768</UpperBound>
														<value>-91445760000000000,0.,0,0,0,0,0,0</value>
													</parameter>
													<parameter authoringApp="PremierePro">
														<parameterid>13</parameterid>
														<name>start</name>
														<IsTimeVarying>false</IsTimeVarying>
														<ParameterControlType>8</ParameterControlType>
														<LowerBound>-100</LowerBound>
														<UpperBound>1000000000</UpperBound>
														<value>-91445760000000000,0.,0,0,0,0,0,0</value>
													</parameter>
													<parameter authoringApp="PremierePro">
														<parameterid>14</parameterid>
														<name>end</name>
														<IsTimeVarying>false</IsTimeVarying>
														<ParameterControlType>8</ParameterControlType>
														<LowerBound>-100</LowerBound>
														<UpperBound>1000000000</UpperBound>
														<value>-91445760000000000,101.,0,0,0,0,0,0</value>
													</parameter>
													<parameter authoringApp="PremierePro">
														<parameterid>15</parameterid>
														<name> </name>
														<IsTimeVarying>false</IsTimeVarying>
														<ParameterControlType>4</ParameterControlType>
														<LowerBound>false</LowerBound>
														<UpperBound>true</UpperBound>
														<value>-91445760000000000,false,0,0,0,0,0,0</value>
													</parameter>
													<parameter authoringApp="PremierePro">
														<parameterid>16</parameterid>
														<name> </name>
														<IsTimeVarying>false</IsTimeVarying>
														<ParameterControlType>4</ParameterControlType>
														<LowerBound>false</LowerBound>
														<UpperBound>true</UpperBound>
														<value>-91445760000000000,false,0,0,0,0,0,0</value>
													</parameter>
													<parameter authoringApp="PremierePro">
														<parameterid>17</parameterid>
														<name> </name>
														<IsTimeVarying>false</IsTimeVarying>
														<ParameterControlType>4</ParameterControlType>
														<LowerBound>false</LowerBound>
														<UpperBound>true</UpperBound>
														<value>-91445760000000000,false,0,0,0,0,0,0</value>
													</parameter>
													<parameter authoringApp="PremierePro">
														<parameterid>18</parameterid>
														<name> </name>
														<IsTimeVarying>false</IsTimeVarying>
														<ParameterControlType>4</ParameterControlType>
														<LowerBound>false</LowerBound>
														<UpperBound>true</UpperBound>
														<value>-91445760000000000,false,0,0,0,0,0,0</value>
													</parameter>
													<parameter authoringApp="PremierePro">
														<parameterid>19</parameterid>
														<name>Parent Width</name>
														<IsTimeVarying>false</IsTimeVarying>
														<ParameterControlType>2</ParameterControlType>
														<LowerBound>0</LowerBound>
														<UpperBound>20000</UpperBound>
														<value>-91445760000000000,0.,0,0,0,0,0,0</value>
													</parameter>
													<parameter authoringApp="PremierePro">
														<parameterid>20</parameterid>
														<name>Parent Height</name>
														<IsTimeVarying>false</IsTimeVarying>
														<ParameterControlType>2</ParameterControlType>
														<LowerBound>0</LowerBound>
														<UpperBound>20000</UpperBound>
														<value>-91445760000000000,0.,0,0,0,0,0,0</value>
													</parameter>
													<parameter authoringApp="PremierePro">
														<parameterid>21</parameterid>
														<name>Parent Rotation</name>
														<IsTimeVarying>false</IsTimeVarying>
														<ParameterControlType>3</ParameterControlType>
														<LowerBound>-32768</LowerBound>
														<UpperBound>32767</UpperBound>
														<value>-91445760000000000,0.,0,0,0,0,0,0</value>
													</parameter>
												</effect>
											</filter>
											<logginginfo>
												<description></description>
												<scene></scene>
												<shottake></shottake>
												<lognote></lognote>
												<good></good>
												<originalvideofilename></originalvideofilename>
												<originalaudiofilename></originalaudiofilename>
											</logginginfo>
											<colorinfo>
												<lut></lut>
												<lut1></lut1>
												<asc_sop></asc_sop>
												<asc_sat></asc_sat>
												<lut2></lut2>
											</colorinfo>
										</clipitem>
										<transitionitem>
											<start>1097</start>
											<end>1122</end>
											<alignment>end-black</alignment>
											<cutPointTicks>254016000000</cutPointTicks>
											<rate>
												<timebase>25</timebase>
												<ntsc>FALSE</ntsc>
											</rate>
											<effect>
												<name>Edge Wipe</name>
												<effectid>Edge Wipe</effectid>
												<effectcategory>Wipe</effectcategory>
												<effecttype>transition</effecttype>
												<mediatype>video</mediatype>
												<wipecode>2</wipecode>
												<wipeaccuracy>100</wipeaccuracy>
												<startratio>0</startratio>
												<endratio>1</endratio>
												<reverse>FALSE</reverse>
												<parameter authoringApp="PremierePro">
													<parameterid>directionofwipe</parameterid>
													<name>Angle</name>
													<valuemin>-360</valuemin>
													<valuemax>360</valuemax>
													<value>90</value>
												</parameter>
											</effect>
										</transitionitem>
										<enabled>TRUE</enabled>
										<locked>FALSE</locked>
									</track>
								</video>
								<audio>
									<numOutputChannels>2</numOutputChannels>
									<format>
										<samplecharacteristics>
											<depth>16</depth>
											<samplerate>48000</samplerate>
										</samplecharacteristics>
									</format>
									<outputs>
										<group>
											<index>1</index>
											<numchannels>1</numchannels>
											<downmix>0</downmix>
											<channel>
												<index>1</index>
											</channel>
										</group>
										<group>
											<index>2</index>
											<numchannels>1</numchannels>
											<downmix>0</downmix>
											<channel>
												<index>2</index>
											</channel>
										</group>
									</outputs>
									<track TL.SQTrackAudioKeyframeStyle="0" TL.SQTrackShy="0" TL.SQTrackExpandedHeight="25" TL.SQTrackExpanded="0" MZ.TrackTargeted="1" PannerCurrentValue="0.5" PannerStartKeyframe="-91445760000000000,0.5,0,0,0,0,0,0" PannerName="Balance" currentExplodedTrackIndex="0" totalExplodedTrackCount="2" premiereTrackType="Stereo">
										<enabled>TRUE</enabled>
										<locked>FALSE</locked>
										<outputchannelindex>1</outputchannelindex>
									</track>
									<track TL.SQTrackAudioKeyframeStyle="0" TL.SQTrackShy="0" TL.SQTrackExpandedHeight="25" TL.SQTrackExpanded="0" MZ.TrackTargeted="1" PannerCurrentValue="0.5" PannerStartKeyframe="-91445760000000000,0.5,0,0,0,0,0,0" PannerName="Balance" currentExplodedTrackIndex="1" totalExplodedTrackCount="2" premiereTrackType="Stereo">
										<enabled>TRUE</enabled>
										<locked>FALSE</locked>
										<outputchannelindex>2</outputchannelindex>
									</track>
								</audio>
							</media>
							<timecode>
								<rate>
									<timebase>25</timebase>
									<ntsc>FALSE</ntsc>
								</rate>
								<string>00:00:00:00</string>
								<frame>0</frame>
								<displayformat>NDF</displayformat>
							</timecode>
								<marker>
									<comment></comment>
									<name></name>
									<in>800</in>
									<out>-1</out>
									<pproColor>4292277273</pproColor>
								</marker>
								<marker>
									<comment></comment>
									<name></name>
									<in>425</in>
									<out>-1</out>
									<pproColor>4292277273</pproColor>
								</marker>
								<marker>
									<comment></comment>
									<name></name>
									<in>50</in>
									<out>-1</out>
									<pproColor>4292277273</pproColor>
								</marker>
							<logginginfo>
								<description></description>
								<scene></scene>
								<shottake></shottake>
								<lognote></lognote>
								<good></good>
								<originalvideofilename></originalvideofilename>
								<originalaudiofilename></originalaudiofilename>
							</logginginfo>
						</sequence>
							<marker>
								<comment></comment>
								<name></name>
								<in>800</in>
								<out>-1</out>
								<pproColor>4292277273</pproColor>
							</marker>
							<marker>
								<comment></comment>
								<name></name>
								<in>425</in>
								<out>-1</out>
								<pproColor>4292277273</pproColor>
							</marker>
							<marker>
								<comment></comment>
								<name></name>
								<in>50</in>
								<out>-1</out>
								<pproColor>4292277273</pproColor>
							</marker>
						<labels>
							<label2>Forest</label2>
						</labels>
					</clipitem>
					<clipitem id="clipitem-1919">
						<masterclipid>masterclip-849</masterclipid>
						<name>1</name>
						<enabled>FALSE</enabled>
						<duration>1125</duration>
						<rate>
							<timebase>25</timebase>
							<ntsc>FALSE</ntsc>
						</rate>
						<start>62756</start>
						<end>63131</end>
						<in>375</in>
						<out>750</out>
						<pproTicksIn>3810240000000</pproTicksIn>
						<pproTicksOut>7620480000000</pproTicksOut>
						<sequence id="sequence-156"/>
							<marker>
								<comment></comment>
								<name></name>
								<in>800</in>
								<out>-1</out>
								<pproColor>4292277273</pproColor>
							</marker>
							<marker>
								<comment></comment>
								<name></name>
								<in>425</in>
								<out>-1</out>
								<pproColor>4292277273</pproColor>
							</marker>
							<marker>
								<comment></comment>
								<name></name>
								<in>50</in>
								<out>-1</out>
								<pproColor>4292277273</pproColor>
							</marker>
						<labels>
							<label2>Forest</label2>
						</labels>
					</clipitem>
					<clipitem id="clipitem-1920">
						<masterclipid>masterclip-849</masterclipid>
						<name>1</name>
						<enabled>FALSE</enabled>
						<duration>1125</duration>
						<rate>
							<timebase>25</timebase>
							<ntsc>FALSE</ntsc>
						</rate>
						<start>64182</start>
						<end>64557</end>
						<in>750</in>
						<out>1125</out>
						<pproTicksIn>7620480000000</pproTicksIn>
						<pproTicksOut>11430720000000</pproTicksOut>
						<sequence id="sequence-156"/>
							<marker>
								<comment></comment>
								<name></name>
								<in>800</in>
								<out>-1</out>
								<pproColor>4292277273</pproColor>
							</marker>
							<marker>
								<comment></comment>
								<name></name>
								<in>425</in>
								<out>-1</out>
								<pproColor>4292277273</pproColor>
							</marker>
							<marker>
								<comment></comment>
								<name></name>
								<in>50</in>
								<out>-1</out>
								<pproColor>4292277273</pproColor>
							</marker>
						<labels>
							<label2>Forest</label2>
						</labels>
					</clipitem>
					<enabled>TRUE</enabled>
					<locked>FALSE</locked>
				</track>
			</video>
			<audio>
				<numOutputChannels>2</numOutputChannels>
				<format>
					<samplecharacteristics>
						<depth>16</depth>
						<samplerate>48000</samplerate>
					</samplecharacteristics>
				</format>
				<outputs>
					<group>
						<index>1</index>
						<numchannels>1</numchannels>
						<downmix>0</downmix>
						<channel>
							<index>1</index>
						</channel>
					</group>
					<group>
						<index>2</index>
						<numchannels>1</numchannels>
						<downmix>0</downmix>
						<channel>
							<index>2</index>
						</channel>
					</group>
				</outputs>
				<track TL.SQTrackAudioKeyframeStyle="0" TL.SQTrackShy="0" TL.SQTrackExpandedHeight="65" TL.SQTrackExpanded="0" MZ.TrackTargeted="0" PannerCurrentValue="0.5" PannerIsInverted="true" PannerStartKeyframe="-91445760000000000,0.5,0,0,0,0,0,0" PannerName="Balance" currentExplodedTrackIndex="0" totalExplodedTrackCount="2" premiereTrackType="Stereo">
					<clipitem id="clipitem-1921" premiereChannelType="stereo">
						<masterclipid>masterclip-692</masterclipid>
						<name>MYZ_RusskiyChart_appProRes_v2.mov</name>
						<enabled>TRUE</enabled>
						<duration>299</duration>
						<rate>
							<timebase>25</timebase>
							<ntsc>FALSE</ntsc>
						</rate>
						<start>0</start>
						<end>274</end>
						<in>0</in>
						<out>274</out>
						<pproTicksIn>0</pproTicksIn>
						<pproTicksOut>2784015360000</pproTicksOut>
						<file id="file-572"/>
						<sourcetrack>
							<mediatype>audio</mediatype>
							<trackindex>1</trackindex>
						</sourcetrack>
						<filter>
							<effect>
								<name>Audio Levels</name>
								<effectid>audiolevels</effectid>
								<effectcategory>audiolevels</effectcategory>
								<effecttype>audiolevels</effecttype>
								<mediatype>audio</mediatype>
								<pproBypass>false</pproBypass>
								<parameter authoringApp="PremierePro">
									<parameterid>level</parameterid>
									<name>Level</name>
									<valuemin>0</valuemin>
									<valuemax>3.98109</valuemax>
									<value>0</value>
									<keyframe>
										<when>262</when>
										<value>0.158489</value>
									</keyframe>
									<keyframe>
										<when>272</when>
										<value>0</value>
									</keyframe>
								</parameter>
							</effect>
						</filter>
						<link>
							<linkclipref>clipitem-1664</linkclipref>
							<mediatype>video</mediatype>
							<trackindex>1</trackindex>
							<clipindex>1</clipindex>
						</link>
						<link>
							<linkclipref>clipitem-1921</linkclipref>
							<mediatype>audio</mediatype>
							<trackindex>1</trackindex>
							<clipindex>1</clipindex>
							<groupindex>1</groupindex>
						</link>
						<link>
							<linkclipref>clipitem-1959</linkclipref>
							<mediatype>audio</mediatype>
							<trackindex>2</trackindex>
							<clipindex>1</clipindex>
							<groupindex>1</groupindex>
						</link>
						<logginginfo>
							<description></description>
							<scene></scene>
							<shottake></shottake>
							<lognote></lognote>
							<good></good>
							<originalvideofilename></originalvideofilename>
							<originalaudiofilename></originalaudiofilename>
						</logginginfo>
						<colorinfo>
							<lut></lut>
							<lut1></lut1>
							<asc_sop></asc_sop>
							<asc_sat></asc_sat>
							<lut2></lut2>
						</colorinfo>
						<labels>
							<label2>Iris</label2>
						</labels>
					</clipitem>
					<clipitem id="clipitem-1922" premiereChannelType="stereo">
						<masterclipid>masterclip-693</masterclipid>
						<name>Nested Sequence_468</name>
						<enabled>TRUE</enabled>
						<duration>8812</duration>
						<rate>
							<timebase>25</timebase>
							<ntsc>FALSE</ntsc>
						</rate>
						<start>274</start>
						<end>809</end>
						<in>22</in>
						<out>557</out>
						<pproTicksIn>223534080000</pproTicksIn>
						<pproTicksOut>5659476480000</pproTicksOut>
						<sequence id="sequence-131"/>
						<sourcetrack>
							<mediatype>audio</mediatype>
							<trackindex>0</trackindex>
						</sourcetrack>
						<filter>
							<effect>
								<name>Audio Levels</name>
								<effectid>audiolevels</effectid>
								<effectcategory>audiolevels</effectcategory>
								<effecttype>audiolevels</effecttype>
								<mediatype>audio</mediatype>
								<pproBypass>false</pproBypass>
								<parameter authoringApp="PremierePro">
									<parameterid>level</parameterid>
									<name>Level</name>
									<valuemin>0</valuemin>
									<valuemax>3.98109</valuemax>
									<value>1</value>
									<keyframe>
										<when>26</when>
										<value>0</value>
									</keyframe>
									<keyframe>
										<when>27</when>
										<value>1</value>
									</keyframe>
								</parameter>
							</effect>
						</filter>
						<link>
							<linkclipref>clipitem-1665</linkclipref>
							<mediatype>video</mediatype>
							<trackindex>1</trackindex>
							<clipindex>2</clipindex>
						</link>
						<link>
							<linkclipref>clipitem-1922</linkclipref>
							<mediatype>audio</mediatype>
							<trackindex>1</trackindex>
							<clipindex>2</clipindex>
							<groupindex>1</groupindex>
						</link>
						<link>
							<linkclipref>clipitem-1960</linkclipref>
							<mediatype>audio</mediatype>
							<trackindex>2</trackindex>
							<clipindex>2</clipindex>
							<groupindex>1</groupindex>
						</link>
						<labels>
							<label2>Forest</label2>
						</labels>
					</clipitem>
					<clipitem id="clipitem-1923" premiereChannelType="stereo">
						<masterclipid>masterclip-696</masterclipid>
						<name>JONY, HAMMALI_НАВЕРНО, ТЫ МЕНЯ НЕ ПОМНИШЬ___MSWCLP004853.mov</name>
						<enabled>TRUE</enabled>
						<duration>9308</duration>
						<rate>
							<timebase>25</timebase>
							<ntsc>FALSE</ntsc>
						</rate>
						<start>884</start>
						<end>5215</end>
						<in>323</in>
						<out>4654</out>
						<pproTicksIn>3281886720000</pproTicksIn>
						<pproTicksOut>47287618560000</pproTicksOut>
						<file id="file-575"/>
						<sourcetrack>
							<mediatype>audio</mediatype>
							<trackindex>1</trackindex>
						</sourcetrack>
						<filter>
							<effect>
								<name>Audio Levels</name>
								<effectid>audiolevels</effectid>
								<effectcategory>audiolevels</effectcategory>
								<effecttype>audiolevels</effecttype>
								<mediatype>audio</mediatype>
								<pproBypass>false</pproBypass>
								<parameter authoringApp="PremierePro">
									<parameterid>level</parameterid>
									<name>Level</name>
									<valuemin>0</valuemin>
									<valuemax>3.98109</valuemax>
									<value>1</value>
									<keyframe>
										<when>331</when>
										<value>0</value>
									</keyframe>
									<keyframe>
										<when>349</when>
										<value>1</value>
									</keyframe>
								</parameter>
							</effect>
						</filter>
						<link>
							<linkclipref>clipitem-1670</linkclipref>
							<mediatype>video</mediatype>
							<trackindex>1</trackindex>
							<clipindex>4</clipindex>
						</link>
						<link>
							<linkclipref>clipitem-1923</linkclipref>
							<mediatype>audio</mediatype>
							<trackindex>1</trackindex>
							<clipindex>3</clipindex>
							<groupindex>1</groupindex>
						</link>
						<link>
							<linkclipref>clipitem-1961</linkclipref>
							<mediatype>audio</mediatype>
							<trackindex>2</trackindex>
							<clipindex>3</clipindex>
							<groupindex>1</groupindex>
						</link>
						<logginginfo>
							<description></description>
							<scene></scene>
							<shottake></shottake>
							<lognote></lognote>
							<good></good>
							<originalvideofilename></originalvideofilename>
							<originalaudiofilename></originalaudiofilename>
						</logginginfo>
						<colorinfo>
							<lut></lut>
							<lut1></lut1>
							<asc_sop></asc_sop>
							<asc_sat></asc_sat>
							<lut2></lut2>
						</colorinfo>
						<labels>
							<label2>Iris</label2>
						</labels>
					</clipitem>
					<clipitem id="clipitem-1924" premiereChannelType="stereo">
						<masterclipid>masterclip-697</masterclipid>
						<name>MYZ_RusskiyChart_OtbivkaMini_h264_v2.mp4</name>
						<enabled>TRUE</enabled>
						<duration>74</duration>
						<rate>
							<timebase>25</timebase>
							<ntsc>FALSE</ntsc>
						</rate>
						<start>5215</start>
						<end>5275</end>
						<in>0</in>
						<out>60</out>
						<pproTicksIn>0</pproTicksIn>
						<pproTicksOut>609638400000</pproTicksOut>
						<file id="file-576"/>
						<sourcetrack>
							<mediatype>audio</mediatype>
							<trackindex>1</trackindex>
						</sourcetrack>
						<filter>
							<effect>
								<name>Audio Levels</name>
								<effectid>audiolevels</effectid>
								<effectcategory>audiolevels</effectcategory>
								<effecttype>audiolevels</effecttype>
								<mediatype>audio</mediatype>
								<pproBypass>false</pproBypass>
								<parameter authoringApp="PremierePro">
									<parameterid>level</parameterid>
									<name>Level</name>
									<valuemin>0</valuemin>
									<valuemax>3.98109</valuemax>
									<value>0.258297</value>
									<keyframe>
										<when>60</when>
										<value>0.251189</value>
									</keyframe>
									<keyframe>
										<when>70</when>
										<value>0.258297</value>
									</keyframe>
								</parameter>
							</effect>
						</filter>
						<link>
							<linkclipref>clipitem-1671</linkclipref>
							<mediatype>video</mediatype>
							<trackindex>1</trackindex>
							<clipindex>5</clipindex>
						</link>
						<link>
							<linkclipref>clipitem-1924</linkclipref>
							<mediatype>audio</mediatype>
							<trackindex>1</trackindex>
							<clipindex>4</clipindex>
							<groupindex>1</groupindex>
						</link>
						<link>
							<linkclipref>clipitem-1962</linkclipref>
							<mediatype>audio</mediatype>
							<trackindex>2</trackindex>
							<clipindex>4</clipindex>
							<groupindex>1</groupindex>
						</link>
						<logginginfo>
							<description></description>
							<scene></scene>
							<shottake></shottake>
							<lognote></lognote>
							<good></good>
							<originalvideofilename></originalvideofilename>
							<originalaudiofilename></originalaudiofilename>
						</logginginfo>
						<colorinfo>
							<lut></lut>
							<lut1></lut1>
							<asc_sop></asc_sop>
							<asc_sat></asc_sat>
							<lut2></lut2>
						</colorinfo>
						<labels>
							<label2>Purple</label2>
						</labels>
					</clipitem>
					<clipitem id="clipitem-1925" premiereChannelType="stereo">
						<masterclipid>masterclip-693</masterclipid>
						<name>Nested Sequence_468</name>
						<enabled>TRUE</enabled>
						<duration>8812</duration>
						<rate>
							<timebase>25</timebase>
							<ntsc>FALSE</ntsc>
						</rate>
						<start>5275</start>
						<end>5698</end>
						<in>579</in>
						<out>1002</out>
						<pproTicksIn>5883010560000</pproTicksIn>
						<pproTicksOut>10180961280000</pproTicksOut>
						<sequence id="sequence-131"/>
						<sourcetrack>
							<mediatype>audio</mediatype>
							<trackindex>0</trackindex>
						</sourcetrack>
						<filter>
							<effect>
								<name>Audio Levels</name>
								<effectid>audiolevels</effectid>
								<effectcategory>audiolevels</effectcategory>
								<effecttype>audiolevels</effecttype>
								<mediatype>audio</mediatype>
								<pproBypass>false</pproBypass>
								<parameter authoringApp="PremierePro">
									<parameterid>level</parameterid>
									<name>Level</name>
									<valuemin>0</valuemin>
									<valuemax>3.98109</valuemax>
									<value>1</value>
									<keyframe>
										<when>26</when>
										<value>0</value>
									</keyframe>
									<keyframe>
										<when>27</when>
										<value>0</value>
									</keyframe>
									<keyframe>
										<when>584</when>
										<value>0</value>
									</keyframe>
									<keyframe>
										<when>586</when>
										<value>1</value>
									</keyframe>
								</parameter>
							</effect>
						</filter>
						<link>
							<linkclipref>clipitem-1672</linkclipref>
							<mediatype>video</mediatype>
							<trackindex>1</trackindex>
							<clipindex>6</clipindex>
						</link>
						<link>
							<linkclipref>clipitem-1925</linkclipref>
							<mediatype>audio</mediatype>
							<trackindex>1</trackindex>
							<clipindex>5</clipindex>
							<groupindex>1</groupindex>
						</link>
						<link>
							<linkclipref>clipitem-1963</linkclipref>
							<mediatype>audio</mediatype>
							<trackindex>2</trackindex>
							<clipindex>5</clipindex>
							<groupindex>1</groupindex>
						</link>
						<labels>
							<label2>Forest</label2>
						</labels>
					</clipitem>
					<clipitem id="clipitem-1926" premiereChannelType="stereo">
						<masterclipid>masterclip-699</masterclipid>
						<name>ХАННА, МИША МАРВИН_УБЬЮ ТЕБЯ___MSWCLP004826.mov</name>
						<enabled>TRUE</enabled>
						<duration>10186</duration>
						<rate>
							<timebase>25</timebase>
							<ntsc>FALSE</ntsc>
						</rate>
						<start>5773</start>
						<end>10416</end>
						<in>450</in>
						<out>5093</out>
						<pproTicksIn>4572288000000</pproTicksIn>
						<pproTicksOut>51748139520000</pproTicksOut>
						<file id="file-578"/>
						<sourcetrack>
							<mediatype>audio</mediatype>
							<trackindex>1</trackindex>
						</sourcetrack>
						<filter>
							<effect>
								<name>Audio Levels</name>
								<effectid>audiolevels</effectid>
								<effectcategory>audiolevels</effectcategory>
								<effecttype>audiolevels</effecttype>
								<mediatype>audio</mediatype>
								<pproBypass>false</pproBypass>
								<parameter authoringApp="PremierePro">
									<parameterid>level</parameterid>
									<name>Level</name>
									<valuemin>0</valuemin>
									<valuemax>3.98109</valuemax>
									<value>1</value>
									<keyframe>
										<when>461</when>
										<value>0</value>
									</keyframe>
									<keyframe>
										<when>468</when>
										<value>1</value>
									</keyframe>
								</parameter>
							</effect>
						</filter>
						<link>
							<linkclipref>clipitem-1674</linkclipref>
							<mediatype>video</mediatype>
							<trackindex>1</trackindex>
							<clipindex>8</clipindex>
						</link>
						<link>
							<linkclipref>clipitem-1926</linkclipref>
							<mediatype>audio</mediatype>
							<trackindex>1</trackindex>
							<clipindex>6</clipindex>
							<groupindex>1</groupindex>
						</link>
						<link>
							<linkclipref>clipitem-1964</linkclipref>
							<mediatype>audio</mediatype>
							<trackindex>2</trackindex>
							<clipindex>6</clipindex>
							<groupindex>1</groupindex>
						</link>
						<logginginfo>
							<description></description>
							<scene></scene>
							<shottake></shottake>
							<lognote></lognote>
							<good></good>
							<originalvideofilename></originalvideofilename>
							<originalaudiofilename></originalaudiofilename>
						</logginginfo>
						<colorinfo>
							<lut></lut>
							<lut1></lut1>
							<asc_sop></asc_sop>
							<asc_sat></asc_sat>
							<lut2></lut2>
						</colorinfo>
						<labels>
							<label2>Iris</label2>
						</labels>
					</clipitem>
					<clipitem id="clipitem-1927" premiereChannelType="stereo">
						<masterclipid>masterclip-697</masterclipid>
						<name>MYZ_RusskiyChart_OtbivkaMini_h264_v2.mp4</name>
						<enabled>TRUE</enabled>
						<duration>74</duration>
						<rate>
							<timebase>25</timebase>
							<ntsc>FALSE</ntsc>
						</rate>
						<start>10416</start>
						<end>10476</end>
						<in>0</in>
						<out>60</out>
						<pproTicksIn>0</pproTicksIn>
						<pproTicksOut>609638400000</pproTicksOut>
						<file id="file-576"/>
						<sourcetrack>
							<mediatype>audio</mediatype>
							<trackindex>1</trackindex>
						</sourcetrack>
						<filter>
							<effect>
								<name>Audio Levels</name>
								<effectid>audiolevels</effectid>
								<effectcategory>audiolevels</effectcategory>
								<effecttype>audiolevels</effecttype>
								<mediatype>audio</mediatype>
								<pproBypass>false</pproBypass>
								<parameter authoringApp="PremierePro">
									<parameterid>level</parameterid>
									<name>Level</name>
									<valuemin>0</valuemin>
									<valuemax>3.98109</valuemax>
									<value>0.251189</value>
									<keyframe>
										<when>60</when>
										<value>0.251189</value>
									</keyframe>
									<keyframe>
										<when>70</when>
										<value>0.258297</value>
									</keyframe>
								</parameter>
							</effect>
						</filter>
						<link>
							<linkclipref>clipitem-1675</linkclipref>
							<mediatype>video</mediatype>
							<trackindex>1</trackindex>
							<clipindex>9</clipindex>
						</link>
						<link>
							<linkclipref>clipitem-1927</linkclipref>
							<mediatype>audio</mediatype>
							<trackindex>1</trackindex>
							<clipindex>7</clipindex>
							<groupindex>1</groupindex>
						</link>
						<link>
							<linkclipref>clipitem-1965</linkclipref>
							<mediatype>audio</mediatype>
							<trackindex>2</trackindex>
							<clipindex>7</clipindex>
							<groupindex>1</groupindex>
						</link>
						<logginginfo>
							<description></description>
							<scene></scene>
							<shottake></shottake>
							<lognote></lognote>
							<good></good>
							<originalvideofilename></originalvideofilename>
							<originalaudiofilename></originalaudiofilename>
						</logginginfo>
						<colorinfo>
							<lut></lut>
							<lut1></lut1>
							<asc_sop></asc_sop>
							<asc_sat></asc_sat>
							<lut2></lut2>
						</colorinfo>
						<labels>
							<label2>Purple</label2>
						</labels>
					</clipitem>
					<clipitem id="clipitem-1928" premiereChannelType="stereo">
						<masterclipid>masterclip-693</masterclipid>
						<name>Nested Sequence_468</name>
						<enabled>TRUE</enabled>
						<duration>8812</duration>
						<rate>
							<timebase>25</timebase>
							<ntsc>FALSE</ntsc>
						</rate>
						<start>10476</start>
						<end>10974</end>
						<in>1037</in>
						<out>1535</out>
						<pproTicksIn>10536583680000</pproTicksIn>
						<pproTicksOut>15596582400000</pproTicksOut>
						<sequence id="sequence-131"/>
						<sourcetrack>
							<mediatype>audio</mediatype>
							<trackindex>0</trackindex>
						</sourcetrack>
						<filter>
							<effect>
								<name>Audio Levels</name>
								<effectid>audiolevels</effectid>
								<effectcategory>audiolevels</effectcategory>
								<effecttype>audiolevels</effecttype>
								<mediatype>audio</mediatype>
								<pproBypass>false</pproBypass>
								<parameter authoringApp="PremierePro">
									<parameterid>level</parameterid>
									<name>Level</name>
									<valuemin>0</valuemin>
									<valuemax>3.98109</valuemax>
									<value>0</value>
									<keyframe>
										<when>26</when>
										<value>0</value>
									</keyframe>
									<keyframe>
										<when>27</when>
										<value>0</value>
									</keyframe>
									<keyframe>
										<when>584</when>
										<value>0</value>
									</keyframe>
									<keyframe>
										<when>586</when>
										<value>0</value>
									</keyframe>
									<keyframe>
										<when>1042</when>
										<value>0</value>
									</keyframe>
									<keyframe>
										<when>1045</when>
										<value>1</value>
									</keyframe>
								</parameter>
							</effect>
						</filter>
						<link>
							<linkclipref>clipitem-1676</linkclipref>
							<mediatype>video</mediatype>
							<trackindex>1</trackindex>
							<clipindex>10</clipindex>
						</link>
						<link>
							<linkclipref>clipitem-1928</linkclipref>
							<mediatype>audio</mediatype>
							<trackindex>1</trackindex>
							<clipindex>8</clipindex>
							<groupindex>1</groupindex>
						</link>
						<link>
							<linkclipref>clipitem-1966</linkclipref>
							<mediatype>audio</mediatype>
							<trackindex>2</trackindex>
							<clipindex>8</clipindex>
							<groupindex>1</groupindex>
						</link>
						<labels>
							<label2>Forest</label2>
						</labels>
					</clipitem>
					<clipitem id="clipitem-1929" premiereChannelType="stereo">
						<masterclipid>masterclip-701</masterclipid>
						<name>КЛАВА КОКА_ЛА ЛА ЛА___MSWCLP004762.mov</name>
						<enabled>TRUE</enabled>
						<duration>8198</duration>
						<rate>
							<timebase>25</timebase>
							<ntsc>FALSE</ntsc>
						</rate>
						<start>11049</start>
						<end>15046</end>
						<in>102</in>
						<out>4099</out>
						<pproTicksIn>1036385280000</pproTicksIn>
						<pproTicksOut>41648463360000</pproTicksOut>
						<file id="file-580"/>
						<sourcetrack>
							<mediatype>audio</mediatype>
							<trackindex>1</trackindex>
						</sourcetrack>
						<filter>
							<effect>
								<name>Audio Levels</name>
								<effectid>audiolevels</effectid>
								<effectcategory>audiolevels</effectcategory>
								<effecttype>audiolevels</effecttype>
								<mediatype>audio</mediatype>
								<pproBypass>false</pproBypass>
								<parameter authoringApp="PremierePro">
									<parameterid>level</parameterid>
									<name>Level</name>
									<valuemin>0</valuemin>
									<valuemax>3.98109</valuemax>
									<value>0</value>
									<keyframe>
										<when>2</when>
										<value>0.618238</value>
									</keyframe>
									<keyframe>
										<when>26</when>
										<value>1</value>
									</keyframe>
									<keyframe>
										<when>102</when>
										<value>0</value>
									</keyframe>
									<keyframe>
										<when>122</when>
										<value>1</value>
									</keyframe>
								</parameter>
							</effect>
						</filter>
						<link>
							<linkclipref>clipitem-1678</linkclipref>
							<mediatype>video</mediatype>
							<trackindex>1</trackindex>
							<clipindex>12</clipindex>
						</link>
						<link>
							<linkclipref>clipitem-1929</linkclipref>
							<mediatype>audio</mediatype>
							<trackindex>1</trackindex>
							<clipindex>9</clipindex>
							<groupindex>1</groupindex>
						</link>
						<link>
							<linkclipref>clipitem-1967</linkclipref>
							<mediatype>audio</mediatype>
							<trackindex>2</trackindex>
							<clipindex>9</clipindex>
							<groupindex>1</groupindex>
						</link>
						<logginginfo>
							<description></description>
							<scene></scene>
							<shottake></shottake>
							<lognote></lognote>
							<good></good>
							<originalvideofilename></originalvideofilename>
							<originalaudiofilename></originalaudiofilename>
						</logginginfo>
						<colorinfo>
							<lut></lut>
							<lut1></lut1>
							<asc_sop></asc_sop>
							<asc_sat></asc_sat>
							<lut2></lut2>
						</colorinfo>
						<labels>
							<label2>Iris</label2>
						</labels>
					</clipitem>
					<clipitem id="clipitem-1930" premiereChannelType="stereo">
						<masterclipid>masterclip-697</masterclipid>
						<name>MYZ_RusskiyChart_OtbivkaMini_h264_v2.mp4</name>
						<enabled>TRUE</enabled>
						<duration>74</duration>
						<rate>
							<timebase>25</timebase>
							<ntsc>FALSE</ntsc>
						</rate>
						<start>15046</start>
						<end>15106</end>
						<in>0</in>
						<out>60</out>
						<pproTicksIn>0</pproTicksIn>
						<pproTicksOut>609638400000</pproTicksOut>
						<file id="file-576"/>
						<sourcetrack>
							<mediatype>audio</mediatype>
							<trackindex>1</trackindex>
						</sourcetrack>
						<filter>
							<effect>
								<name>Audio Levels</name>
								<effectid>audiolevels</effectid>
								<effectcategory>audiolevels</effectcategory>
								<effecttype>audiolevels</effecttype>
								<mediatype>audio</mediatype>
								<pproBypass>false</pproBypass>
								<parameter authoringApp="PremierePro">
									<parameterid>level</parameterid>
									<name>Level</name>
									<valuemin>0</valuemin>
									<valuemax>3.98109</valuemax>
									<value>0.251189</value>
									<keyframe>
										<when>60</when>
										<value>0.251189</value>
									</keyframe>
									<keyframe>
										<when>70</when>
										<value>0.258297</value>
									</keyframe>
								</parameter>
							</effect>
						</filter>
						<link>
							<linkclipref>clipitem-1679</linkclipref>
							<mediatype>video</mediatype>
							<trackindex>1</trackindex>
							<clipindex>13</clipindex>
						</link>
						<link>
							<linkclipref>clipitem-1930</linkclipref>
							<mediatype>audio</mediatype>
							<trackindex>1</trackindex>
							<clipindex>10</clipindex>
							<groupindex>1</groupindex>
						</link>
						<link>
							<linkclipref>clipitem-1968</linkclipref>
							<mediatype>audio</mediatype>
							<trackindex>2</trackindex>
							<clipindex>10</clipindex>
							<groupindex>1</groupindex>
						</link>
						<logginginfo>
							<description></description>
							<scene></scene>
							<shottake></shottake>
							<lognote></lognote>
							<good></good>
							<originalvideofilename></originalvideofilename>
							<originalaudiofilename></originalaudiofilename>
						</logginginfo>
						<colorinfo>
							<lut></lut>
							<lut1></lut1>
							<asc_sop></asc_sop>
							<asc_sat></asc_sat>
							<lut2></lut2>
						</colorinfo>
						<labels>
							<label2>Purple</label2>
						</labels>
					</clipitem>
					<clipitem id="clipitem-1931" premiereChannelType="stereo">
						<masterclipid>masterclip-693</masterclipid>
						<name>Nested Sequence_468</name>
						<enabled>TRUE</enabled>
						<duration>8812</duration>
						<rate>
							<timebase>25</timebase>
							<ntsc>FALSE</ntsc>
						</rate>
						<start>15106</start>
						<end>15652</end>
						<in>1584</in>
						<out>2130</out>
						<pproTicksIn>16094453760000</pproTicksIn>
						<pproTicksOut>21642163200000</pproTicksOut>
						<sequence id="sequence-131"/>
						<sourcetrack>
							<mediatype>audio</mediatype>
							<trackindex>0</trackindex>
						</sourcetrack>
						<filter>
							<effect>
								<name>Audio Levels</name>
								<effectid>audiolevels</effectid>
								<effectcategory>audiolevels</effectcategory>
								<effecttype>audiolevels</effecttype>
								<mediatype>audio</mediatype>
								<pproBypass>false</pproBypass>
								<parameter authoringApp="PremierePro">
									<parameterid>level</parameterid>
									<name>Level</name>
									<valuemin>0</valuemin>
									<valuemax>3.98109</valuemax>
									<value>3.97328e-05</value>
									<keyframe>
										<when>26</when>
										<value>0</value>
									</keyframe>
									<keyframe>
										<when>27</when>
										<value>0</value>
									</keyframe>
									<keyframe>
										<when>584</when>
										<value>0</value>
									</keyframe>
									<keyframe>
										<when>586</when>
										<value>0</value>
									</keyframe>
									<keyframe>
										<when>1042</when>
										<value>0</value>
									</keyframe>
									<keyframe>
										<when>1045</when>
										<value>1</value>
									</keyframe>
									<keyframe>
										<when>1589</when>
										<value>0</value>
									</keyframe>
									<keyframe>
										<when>1591</when>
										<value>1</value>
									</keyframe>
								</parameter>
							</effect>
						</filter>
						<link>
							<linkclipref>clipitem-1680</linkclipref>
							<mediatype>video</mediatype>
							<trackindex>1</trackindex>
							<clipindex>14</clipindex>
						</link>
						<link>
							<linkclipref>clipitem-1931</linkclipref>
							<mediatype>audio</mediatype>
							<trackindex>1</trackindex>
							<clipindex>11</clipindex>
							<groupindex>1</groupindex>
						</link>
						<link>
							<linkclipref>clipitem-1969</linkclipref>
							<mediatype>audio</mediatype>
							<trackindex>2</trackindex>
							<clipindex>11</clipindex>
							<groupindex>1</groupindex>
						</link>
						<labels>
							<label2>Forest</label2>
						</labels>
					</clipitem>
					<clipitem id="clipitem-1932" premiereChannelType="stereo">
						<masterclipid>masterclip-703</masterclipid>
						<name>DABRO_УСЛЫШИТ ВЕСЬ РАЙОН___MSWCLP004759.mov</name>
						<enabled>TRUE</enabled>
						<duration>9620</duration>
						<rate>
							<timebase>25</timebase>
							<ntsc>FALSE</ntsc>
						</rate>
						<start>15727</start>
						<end>20537</end>
						<in>0</in>
						<out>4810</out>
						<pproTicksIn>0</pproTicksIn>
						<pproTicksOut>48872678400000</pproTicksOut>
						<file id="file-582"/>
						<sourcetrack>
							<mediatype>audio</mediatype>
							<trackindex>1</trackindex>
						</sourcetrack>
						<filter>
							<effect>
								<name>Audio Levels</name>
								<effectid>audiolevels</effectid>
								<effectcategory>audiolevels</effectcategory>
								<effecttype>audiolevels</effecttype>
								<mediatype>audio</mediatype>
								<pproBypass>false</pproBypass>
								<parameter authoringApp="PremierePro">
									<parameterid>level</parameterid>
									<name>Level</name>
									<valuemin>0</valuemin>
									<valuemax>3.98109</valuemax>
									<value>1</value>
									<keyframe>
										<when>4796</when>
										<value>1</value>
									</keyframe>
									<keyframe>
										<when>4808</when>
										<value>0.371266</value>
									</keyframe>
								</parameter>
							</effect>
						</filter>
						<link>
							<linkclipref>clipitem-1682</linkclipref>
							<mediatype>video</mediatype>
							<trackindex>1</trackindex>
							<clipindex>16</clipindex>
						</link>
						<link>
							<linkclipref>clipitem-1932</linkclipref>
							<mediatype>audio</mediatype>
							<trackindex>1</trackindex>
							<clipindex>12</clipindex>
							<groupindex>1</groupindex>
						</link>
						<link>
							<linkclipref>clipitem-1970</linkclipref>
							<mediatype>audio</mediatype>
							<trackindex>2</trackindex>
							<clipindex>12</clipindex>
							<groupindex>1</groupindex>
						</link>
						<logginginfo>
							<description></description>
							<scene></scene>
							<shottake></shottake>
							<lognote></lognote>
							<good></good>
							<originalvideofilename></originalvideofilename>
							<originalaudiofilename></originalaudiofilename>
						</logginginfo>
						<colorinfo>
							<lut></lut>
							<lut1></lut1>
							<asc_sop></asc_sop>
							<asc_sat></asc_sat>
							<lut2></lut2>
						</colorinfo>
						<labels>
							<label2>Iris</label2>
						</labels>
					</clipitem>
					<clipitem id="clipitem-1933" premiereChannelType="stereo">
						<masterclipid>masterclip-697</masterclipid>
						<name>MYZ_RusskiyChart_OtbivkaMini_h264_v2.mp4</name>
						<enabled>TRUE</enabled>
						<duration>74</duration>
						<rate>
							<timebase>25</timebase>
							<ntsc>FALSE</ntsc>
						</rate>
						<start>20537</start>
						<end>20597</end>
						<in>0</in>
						<out>60</out>
						<pproTicksIn>0</pproTicksIn>
						<pproTicksOut>609638400000</pproTicksOut>
						<file id="file-576"/>
						<sourcetrack>
							<mediatype>audio</mediatype>
							<trackindex>1</trackindex>
						</sourcetrack>
						<filter>
							<effect>
								<name>Audio Levels</name>
								<effectid>audiolevels</effectid>
								<effectcategory>audiolevels</effectcategory>
								<effecttype>audiolevels</effecttype>
								<mediatype>audio</mediatype>
								<pproBypass>false</pproBypass>
								<parameter authoringApp="PremierePro">
									<parameterid>level</parameterid>
									<name>Level</name>
									<valuemin>0</valuemin>
									<valuemax>3.98109</valuemax>
									<value>0.251189</value>
									<keyframe>
										<when>60</when>
										<value>0.251189</value>
									</keyframe>
									<keyframe>
										<when>70</when>
										<value>0.258297</value>
									</keyframe>
								</parameter>
							</effect>
						</filter>
						<link>
							<linkclipref>clipitem-1683</linkclipref>
							<mediatype>video</mediatype>
							<trackindex>1</trackindex>
							<clipindex>17</clipindex>
						</link>
						<link>
							<linkclipref>clipitem-1933</linkclipref>
							<mediatype>audio</mediatype>
							<trackindex>1</trackindex>
							<clipindex>13</clipindex>
							<groupindex>1</groupindex>
						</link>
						<link>
							<linkclipref>clipitem-1971</linkclipref>
							<mediatype>audio</mediatype>
							<trackindex>2</trackindex>
							<clipindex>13</clipindex>
							<groupindex>1</groupindex>
						</link>
						<logginginfo>
							<description></description>
							<scene></scene>
							<shottake></shottake>
							<lognote></lognote>
							<good></good>
							<originalvideofilename></originalvideofilename>
							<originalaudiofilename></originalaudiofilename>
						</logginginfo>
						<colorinfo>
							<lut></lut>
							<lut1></lut1>
							<asc_sop></asc_sop>
							<asc_sat></asc_sat>
							<lut2></lut2>
						</colorinfo>
						<labels>
							<label2>Purple</label2>
						</labels>
					</clipitem>
					<clipitem id="clipitem-1934" premiereChannelType="stereo">
						<masterclipid>masterclip-693</masterclipid>
						<name>Nested Sequence_468</name>
						<enabled>TRUE</enabled>
						<duration>8812</duration>
						<rate>
							<timebase>25</timebase>
							<ntsc>FALSE</ntsc>
						</rate>
						<start>20597</start>
						<end>21263</end>
						<in>2190</in>
						<out>2856</out>
						<pproTicksIn>22251801600000</pproTicksIn>
						<pproTicksOut>29018787840000</pproTicksOut>
						<sequence id="sequence-131"/>
						<sourcetrack>
							<mediatype>audio</mediatype>
							<trackindex>0</trackindex>
						</sourcetrack>
						<filter>
							<effect>
								<name>Audio Levels</name>
								<effectid>audiolevels</effectid>
								<effectcategory>audiolevels</effectcategory>
								<effecttype>audiolevels</effecttype>
								<mediatype>audio</mediatype>
								<pproBypass>false</pproBypass>
								<parameter authoringApp="PremierePro">
									<parameterid>level</parameterid>
									<name>Level</name>
									<valuemin>0</valuemin>
									<valuemax>3.98109</valuemax>
									<value>0</value>
									<keyframe>
										<when>26</when>
										<value>0</value>
									</keyframe>
									<keyframe>
										<when>27</when>
										<value>0</value>
									</keyframe>
									<keyframe>
										<when>584</when>
										<value>0</value>
									</keyframe>
									<keyframe>
										<when>586</when>
										<value>0</value>
									</keyframe>
									<keyframe>
										<when>1042</when>
										<value>0</value>
									</keyframe>
									<keyframe>
										<when>1045</when>
										<value>1</value>
									</keyframe>
									<keyframe>
										<when>1589</when>
										<value>0</value>
									</keyframe>
									<keyframe>
										<when>1591</when>
										<value>0</value>
									</keyframe>
									<keyframe>
										<when>2195</when>
										<value>0</value>
									</keyframe>
									<keyframe>
										<when>2196</when>
										<value>1</value>
									</keyframe>
								</parameter>
							</effect>
						</filter>
						<link>
							<linkclipref>clipitem-1684</linkclipref>
							<mediatype>video</mediatype>
							<trackindex>1</trackindex>
							<clipindex>18</clipindex>
						</link>
						<link>
							<linkclipref>clipitem-1934</linkclipref>
							<mediatype>audio</mediatype>
							<trackindex>1</trackindex>
							<clipindex>14</clipindex>
							<groupindex>1</groupindex>
						</link>
						<link>
							<linkclipref>clipitem-1972</linkclipref>
							<mediatype>audio</mediatype>
							<trackindex>2</trackindex>
							<clipindex>14</clipindex>
							<groupindex>1</groupindex>
						</link>
						<labels>
							<label2>Forest</label2>
						</labels>
					</clipitem>
					<clipitem id="clipitem-1935" premiereChannelType="stereo">
						<masterclipid>masterclip-705</masterclipid>
						<name>LOBODA_AMERICANO___MSWCLP004785.mov</name>
						<enabled>TRUE</enabled>
						<duration>11430</duration>
						<rate>
							<timebase>25</timebase>
							<ntsc>FALSE</ntsc>
						</rate>
						<start>21311</start>
						<end>26578</end>
						<in>448</in>
						<out>5715</out>
						<pproTicksIn>4551966720000</pproTicksIn>
						<pproTicksOut>58068057600000</pproTicksOut>
						<file id="file-584"/>
						<sourcetrack>
							<mediatype>audio</mediatype>
							<trackindex>1</trackindex>
						</sourcetrack>
						<filter>
							<effect>
								<name>Audio Levels</name>
								<effectid>audiolevels</effectid>
								<effectcategory>audiolevels</effectcategory>
								<effecttype>audiolevels</effecttype>
								<mediatype>audio</mediatype>
								<pproBypass>false</pproBypass>
								<parameter authoringApp="PremierePro">
									<parameterid>level</parameterid>
									<name>Level</name>
									<valuemin>0</valuemin>
									<valuemax>3.98109</valuemax>
									<value>0</value>
									<keyframe>
										<when>217</when>
										<value>0.0040588</value>
									</keyframe>
									<keyframe>
										<when>262</when>
										<value>0</value>
									</keyframe>
									<keyframe>
										<when>470</when>
										<value>0</value>
									</keyframe>
									<keyframe>
										<when>473</when>
										<value>1</value>
									</keyframe>
									<keyframe>
										<when>481</when>
										<value>1</value>
									</keyframe>
								</parameter>
							</effect>
						</filter>
						<link>
							<linkclipref>clipitem-1686</linkclipref>
							<mediatype>video</mediatype>
							<trackindex>1</trackindex>
							<clipindex>20</clipindex>
						</link>
						<link>
							<linkclipref>clipitem-1935</linkclipref>
							<mediatype>audio</mediatype>
							<trackindex>1</trackindex>
							<clipindex>15</clipindex>
							<groupindex>1</groupindex>
						</link>
						<link>
							<linkclipref>clipitem-1973</linkclipref>
							<mediatype>audio</mediatype>
							<trackindex>2</trackindex>
							<clipindex>15</clipindex>
							<groupindex>1</groupindex>
						</link>
						<logginginfo>
							<description></description>
							<scene></scene>
							<shottake></shottake>
							<lognote></lognote>
							<good></good>
							<originalvideofilename></originalvideofilename>
							<originalaudiofilename></originalaudiofilename>
						</logginginfo>
						<colorinfo>
							<lut></lut>
							<lut1></lut1>
							<asc_sop></asc_sop>
							<asc_sat></asc_sat>
							<lut2></lut2>
						</colorinfo>
						<labels>
							<label2>Iris</label2>
						</labels>
					</clipitem>
					<clipitem id="clipitem-1936" premiereChannelType="stereo">
						<masterclipid>masterclip-697</masterclipid>
						<name>MYZ_RusskiyChart_OtbivkaMini_h264_v2.mp4</name>
						<enabled>TRUE</enabled>
						<duration>74</duration>
						<rate>
							<timebase>25</timebase>
							<ntsc>FALSE</ntsc>
						</rate>
						<start>26578</start>
						<end>26638</end>
						<in>0</in>
						<out>60</out>
						<pproTicksIn>0</pproTicksIn>
						<pproTicksOut>609638400000</pproTicksOut>
						<file id="file-576"/>
						<sourcetrack>
							<mediatype>audio</mediatype>
							<trackindex>1</trackindex>
						</sourcetrack>
						<filter>
							<effect>
								<name>Audio Levels</name>
								<effectid>audiolevels</effectid>
								<effectcategory>audiolevels</effectcategory>
								<effecttype>audiolevels</effecttype>
								<mediatype>audio</mediatype>
								<pproBypass>false</pproBypass>
								<parameter authoringApp="PremierePro">
									<parameterid>level</parameterid>
									<name>Level</name>
									<valuemin>0</valuemin>
									<valuemax>3.98109</valuemax>
									<value>0.251189</value>
									<keyframe>
										<when>60</when>
										<value>0.251189</value>
									</keyframe>
									<keyframe>
										<when>70</when>
										<value>0.258297</value>
									</keyframe>
								</parameter>
							</effect>
						</filter>
						<link>
							<linkclipref>clipitem-1687</linkclipref>
							<mediatype>video</mediatype>
							<trackindex>1</trackindex>
							<clipindex>21</clipindex>
						</link>
						<link>
							<linkclipref>clipitem-1936</linkclipref>
							<mediatype>audio</mediatype>
							<trackindex>1</trackindex>
							<clipindex>16</clipindex>
							<groupindex>1</groupindex>
						</link>
						<link>
							<linkclipref>clipitem-1974</linkclipref>
							<mediatype>audio</mediatype>
							<trackindex>2</trackindex>
							<clipindex>16</clipindex>
							<groupindex>1</groupindex>
						</link>
						<logginginfo>
							<description></description>
							<scene></scene>
							<shottake></shottake>
							<lognote></lognote>
							<good></good>
							<originalvideofilename></originalvideofilename>
							<originalaudiofilename></originalaudiofilename>
						</logginginfo>
						<colorinfo>
							<lut></lut>
							<lut1></lut1>
							<asc_sop></asc_sop>
							<asc_sat></asc_sat>
							<lut2></lut2>
						</colorinfo>
						<labels>
							<label2>Purple</label2>
						</labels>
					</clipitem>
					<clipitem id="clipitem-1937" premiereChannelType="stereo">
						<masterclipid>masterclip-693</masterclipid>
						<name>Nested Sequence_468</name>
						<enabled>TRUE</enabled>
						<duration>8812</duration>
						<rate>
							<timebase>25</timebase>
							<ntsc>FALSE</ntsc>
						</rate>
						<start>26638</start>
						<end>27344</end>
						<in>2908</in>
						<out>3614</out>
						<pproTicksIn>29547141120000</pproTicksIn>
						<pproTicksOut>36720552960000</pproTicksOut>
						<sequence id="sequence-131"/>
						<sourcetrack>
							<mediatype>audio</mediatype>
							<trackindex>0</trackindex>
						</sourcetrack>
						<filter>
							<effect>
								<name>Audio Levels</name>
								<effectid>audiolevels</effectid>
								<effectcategory>audiolevels</effectcategory>
								<effecttype>audiolevels</effecttype>
								<mediatype>audio</mediatype>
								<pproBypass>false</pproBypass>
								<parameter authoringApp="PremierePro">
									<parameterid>level</parameterid>
									<name>Level</name>
									<valuemin>0</valuemin>
									<valuemax>3.98109</valuemax>
									<value>0</value>
									<keyframe>
										<when>26</when>
										<value>0</value>
									</keyframe>
									<keyframe>
										<when>27</when>
										<value>0</value>
									</keyframe>
									<keyframe>
										<when>584</when>
										<value>0</value>
									</keyframe>
									<keyframe>
										<when>586</when>
										<value>0</value>
									</keyframe>
									<keyframe>
										<when>1042</when>
										<value>0</value>
									</keyframe>
									<keyframe>
										<when>1045</when>
										<value>1</value>
									</keyframe>
									<keyframe>
										<when>1589</when>
										<value>0</value>
									</keyframe>
									<keyframe>
										<when>1591</when>
										<value>0</value>
									</keyframe>
									<keyframe>
										<when>2195</when>
										<value>0</value>
									</keyframe>
									<keyframe>
										<when>2196</when>
										<value>0</value>
									</keyframe>
									<keyframe>
										<when>2912</when>
										<value>0</value>
									</keyframe>
									<keyframe>
										<when>2914</when>
										<value>1</value>
									</keyframe>
								</parameter>
							</effect>
						</filter>
						<link>
							<linkclipref>clipitem-1688</linkclipref>
							<mediatype>video</mediatype>
							<trackindex>1</trackindex>
							<clipindex>22</clipindex>
						</link>
						<link>
							<linkclipref>clipitem-1937</linkclipref>
							<mediatype>audio</mediatype>
							<trackindex>1</trackindex>
							<clipindex>17</clipindex>
							<groupindex>1</groupindex>
						</link>
						<link>
							<linkclipref>clipitem-1975</linkclipref>
							<mediatype>audio</mediatype>
							<trackindex>2</trackindex>
							<clipindex>17</clipindex>
							<groupindex>1</groupindex>
						</link>
						<labels>
							<label2>Forest</label2>
						</labels>
					</clipitem>
					<clipitem id="clipitem-1938" premiereChannelType="stereo">
						<masterclipid>masterclip-707</masterclipid>
						<name>ВАЛЕРИЙ МЕЛАДЗЕ_ПОЛЮБИЛ___MSWCLP004836.mov</name>
						<enabled>TRUE</enabled>
						<duration>13128</duration>
						<rate>
							<timebase>25</timebase>
							<ntsc>FALSE</ntsc>
						</rate>
						<start>27419</start>
						<end>33978</end>
						<in>0</in>
						<out>6559</out>
						<pproTicksIn>0</pproTicksIn>
						<pproTicksOut>66643637760000</pproTicksOut>
						<file id="file-586"/>
						<sourcetrack>
							<mediatype>audio</mediatype>
							<trackindex>1</trackindex>
						</sourcetrack>
						<filter>
							<effect>
								<name>Audio Levels</name>
								<effectid>audiolevels</effectid>
								<effectcategory>audiolevels</effectcategory>
								<effecttype>audiolevels</effecttype>
								<mediatype>audio</mediatype>
								<pproBypass>false</pproBypass>
								<parameter authoringApp="PremierePro">
									<parameterid>level</parameterid>
									<name>Level</name>
									<valuemin>0</valuemin>
									<valuemax>3.98109</valuemax>
									<value>1</value>
									<keyframe>
										<when>6219</when>
										<value>1</value>
									</keyframe>
									<keyframe>
										<when>6471</when>
										<value>1</value>
									</keyframe>
									<keyframe>
										<when>6534</when>
										<value>1</value>
									</keyframe>
									<keyframe>
										<when>6559</when>
										<value>0.0230063</value>
									</keyframe>
								</parameter>
							</effect>
						</filter>
						<link>
							<linkclipref>clipitem-1690</linkclipref>
							<mediatype>video</mediatype>
							<trackindex>1</trackindex>
							<clipindex>24</clipindex>
						</link>
						<link>
							<linkclipref>clipitem-1938</linkclipref>
							<mediatype>audio</mediatype>
							<trackindex>1</trackindex>
							<clipindex>18</clipindex>
							<groupindex>1</groupindex>
						</link>
						<link>
							<linkclipref>clipitem-1976</linkclipref>
							<mediatype>audio</mediatype>
							<trackindex>2</trackindex>
							<clipindex>18</clipindex>
							<groupindex>1</groupindex>
						</link>
						<logginginfo>
							<description></description>
							<scene></scene>
							<shottake></shottake>
							<lognote></lognote>
							<good></good>
							<originalvideofilename></originalvideofilename>
							<originalaudiofilename></originalaudiofilename>
						</logginginfo>
						<colorinfo>
							<lut></lut>
							<lut1></lut1>
							<asc_sop></asc_sop>
							<asc_sat></asc_sat>
							<lut2></lut2>
						</colorinfo>
						<labels>
							<label2>Iris</label2>
						</labels>
					</clipitem>
					<clipitem id="clipitem-1939" premiereChannelType="stereo">
						<masterclipid>masterclip-697</masterclipid>
						<name>MYZ_RusskiyChart_OtbivkaMini_h264_v2.mp4</name>
						<enabled>TRUE</enabled>
						<duration>74</duration>
						<rate>
							<timebase>25</timebase>
							<ntsc>FALSE</ntsc>
						</rate>
						<start>33978</start>
						<end>34038</end>
						<in>0</in>
						<out>60</out>
						<pproTicksIn>0</pproTicksIn>
						<pproTicksOut>609638400000</pproTicksOut>
						<file id="file-576"/>
						<sourcetrack>
							<mediatype>audio</mediatype>
							<trackindex>1</trackindex>
						</sourcetrack>
						<filter>
							<effect>
								<name>Audio Levels</name>
								<effectid>audiolevels</effectid>
								<effectcategory>audiolevels</effectcategory>
								<effecttype>audiolevels</effecttype>
								<mediatype>audio</mediatype>
								<pproBypass>false</pproBypass>
								<parameter authoringApp="PremierePro">
									<parameterid>level</parameterid>
									<name>Level</name>
									<valuemin>0</valuemin>
									<valuemax>3.98109</valuemax>
									<value>0.251189</value>
									<keyframe>
										<when>60</when>
										<value>0.251189</value>
									</keyframe>
									<keyframe>
										<when>70</when>
										<value>0.258297</value>
									</keyframe>
								</parameter>
							</effect>
						</filter>
						<link>
							<linkclipref>clipitem-1691</linkclipref>
							<mediatype>video</mediatype>
							<trackindex>1</trackindex>
							<clipindex>25</clipindex>
						</link>
						<link>
							<linkclipref>clipitem-1939</linkclipref>
							<mediatype>audio</mediatype>
							<trackindex>1</trackindex>
							<clipindex>19</clipindex>
							<groupindex>1</groupindex>
						</link>
						<link>
							<linkclipref>clipitem-1977</linkclipref>
							<mediatype>audio</mediatype>
							<trackindex>2</trackindex>
							<clipindex>19</clipindex>
							<groupindex>1</groupindex>
						</link>
						<logginginfo>
							<description></description>
							<scene></scene>
							<shottake></shottake>
							<lognote></lognote>
							<good></good>
							<originalvideofilename></originalvideofilename>
							<originalaudiofilename></originalaudiofilename>
						</logginginfo>
						<colorinfo>
							<lut></lut>
							<lut1></lut1>
							<asc_sop></asc_sop>
							<asc_sat></asc_sat>
							<lut2></lut2>
						</colorinfo>
						<labels>
							<label2>Purple</label2>
						</labels>
					</clipitem>
					<clipitem id="clipitem-1940" premiereChannelType="stereo">
						<masterclipid>masterclip-693</masterclipid>
						<name>Nested Sequence_468</name>
						<enabled>TRUE</enabled>
						<duration>8812</duration>
						<rate>
							<timebase>25</timebase>
							<ntsc>FALSE</ntsc>
						</rate>
						<start>34038</start>
						<end>34708</end>
						<in>3681</in>
						<out>4351</out>
						<pproTicksIn>37401315840000</pproTicksIn>
						<pproTicksOut>44208944640000</pproTicksOut>
						<sequence id="sequence-131"/>
						<sourcetrack>
							<mediatype>audio</mediatype>
							<trackindex>0</trackindex>
						</sourcetrack>
						<filter>
							<effect>
								<name>Audio Levels</name>
								<effectid>audiolevels</effectid>
								<effectcategory>audiolevels</effectcategory>
								<effecttype>audiolevels</effecttype>
								<mediatype>audio</mediatype>
								<pproBypass>false</pproBypass>
								<parameter authoringApp="PremierePro">
									<parameterid>level</parameterid>
									<name>Level</name>
									<valuemin>0</valuemin>
									<valuemax>3.98109</valuemax>
									<value>0</value>
									<keyframe>
										<when>26</when>
										<value>0</value>
									</keyframe>
									<keyframe>
										<when>27</when>
										<value>0</value>
									</keyframe>
									<keyframe>
										<when>584</when>
										<value>0</value>
									</keyframe>
									<keyframe>
										<when>586</when>
										<value>0</value>
									</keyframe>
									<keyframe>
										<when>1042</when>
										<value>0</value>
									</keyframe>
									<keyframe>
										<when>1045</when>
										<value>1</value>
									</keyframe>
									<keyframe>
										<when>1589</when>
										<value>0</value>
									</keyframe>
									<keyframe>
										<when>1591</when>
										<value>0</value>
									</keyframe>
									<keyframe>
										<when>2195</when>
										<value>0</value>
									</keyframe>
									<keyframe>
										<when>2196</when>
										<value>0</value>
									</keyframe>
									<keyframe>
										<when>2912</when>
										<value>0</value>
									</keyframe>
									<keyframe>
										<when>2914</when>
										<value>0</value>
									</keyframe>
									<keyframe>
										<when>3684</when>
										<value>0</value>
									</keyframe>
									<keyframe>
										<when>3685</when>
										<value>1</value>
									</keyframe>
								</parameter>
							</effect>
						</filter>
						<link>
							<linkclipref>clipitem-1692</linkclipref>
							<mediatype>video</mediatype>
							<trackindex>1</trackindex>
							<clipindex>26</clipindex>
						</link>
						<link>
							<linkclipref>clipitem-1940</linkclipref>
							<mediatype>audio</mediatype>
							<trackindex>1</trackindex>
							<clipindex>20</clipindex>
							<groupindex>1</groupindex>
						</link>
						<link>
							<linkclipref>clipitem-1978</linkclipref>
							<mediatype>audio</mediatype>
							<trackindex>2</trackindex>
							<clipindex>20</clipindex>
							<groupindex>1</groupindex>
						</link>
						<labels>
							<label2>Forest</label2>
						</labels>
					</clipitem>
					<clipitem id="clipitem-1941" premiereChannelType="stereo">
						<masterclipid>masterclip-709</masterclipid>
						<name>ЛОЛИТА &amp; КОСТА ЛАКОСТА_ПО-ДРУГОМУ___MSWCLP004820.mov</name>
						<enabled>TRUE</enabled>
						<duration>10218</duration>
						<rate>
							<timebase>25</timebase>
							<ntsc>FALSE</ntsc>
						</rate>
						<start>34783</start>
						<end>39492</end>
						<in>400</in>
						<out>5109</out>
						<pproTicksIn>4064256000000</pproTicksIn>
						<pproTicksOut>51910709760000</pproTicksOut>
						<file id="file-588"/>
						<sourcetrack>
							<mediatype>audio</mediatype>
							<trackindex>1</trackindex>
						</sourcetrack>
						<filter>
							<effect>
								<name>Audio Levels</name>
								<effectid>audiolevels</effectid>
								<effectcategory>audiolevels</effectcategory>
								<effecttype>audiolevels</effecttype>
								<mediatype>audio</mediatype>
								<pproBypass>false</pproBypass>
								<parameter authoringApp="PremierePro">
									<parameterid>level</parameterid>
									<name>Level</name>
									<valuemin>0</valuemin>
									<valuemax>3.98109</valuemax>
									<value>0</value>
									<keyframe>
										<when>406</when>
										<value>0</value>
									</keyframe>
									<keyframe>
										<when>416</when>
										<value>1</value>
									</keyframe>
								</parameter>
							</effect>
						</filter>
						<link>
							<linkclipref>clipitem-1694</linkclipref>
							<mediatype>video</mediatype>
							<trackindex>1</trackindex>
							<clipindex>28</clipindex>
						</link>
						<link>
							<linkclipref>clipitem-1941</linkclipref>
							<mediatype>audio</mediatype>
							<trackindex>1</trackindex>
							<clipindex>21</clipindex>
							<groupindex>1</groupindex>
						</link>
						<link>
							<linkclipref>clipitem-1979</linkclipref>
							<mediatype>audio</mediatype>
							<trackindex>2</trackindex>
							<clipindex>21</clipindex>
							<groupindex>1</groupindex>
						</link>
						<logginginfo>
							<description></description>
							<scene></scene>
							<shottake></shottake>
							<lognote></lognote>
							<good></good>
							<originalvideofilename></originalvideofilename>
							<originalaudiofilename></originalaudiofilename>
						</logginginfo>
						<colorinfo>
							<lut></lut>
							<lut1></lut1>
							<asc_sop></asc_sop>
							<asc_sat></asc_sat>
							<lut2></lut2>
						</colorinfo>
						<labels>
							<label2>Iris</label2>
						</labels>
					</clipitem>
					<clipitem id="clipitem-1942" premiereChannelType="stereo">
						<masterclipid>masterclip-697</masterclipid>
						<name>MYZ_RusskiyChart_OtbivkaMini_h264_v2.mp4</name>
						<enabled>TRUE</enabled>
						<duration>74</duration>
						<rate>
							<timebase>25</timebase>
							<ntsc>FALSE</ntsc>
						</rate>
						<start>39492</start>
						<end>39552</end>
						<in>0</in>
						<out>60</out>
						<pproTicksIn>0</pproTicksIn>
						<pproTicksOut>609638400000</pproTicksOut>
						<file id="file-576"/>
						<sourcetrack>
							<mediatype>audio</mediatype>
							<trackindex>1</trackindex>
						</sourcetrack>
						<filter>
							<effect>
								<name>Audio Levels</name>
								<effectid>audiolevels</effectid>
								<effectcategory>audiolevels</effectcategory>
								<effecttype>audiolevels</effecttype>
								<mediatype>audio</mediatype>
								<pproBypass>false</pproBypass>
								<parameter authoringApp="PremierePro">
									<parameterid>level</parameterid>
									<name>Level</name>
									<valuemin>0</valuemin>
									<valuemax>3.98109</valuemax>
									<value>0.251189</value>
									<keyframe>
										<when>60</when>
										<value>0.251189</value>
									</keyframe>
									<keyframe>
										<when>70</when>
										<value>0.258297</value>
									</keyframe>
								</parameter>
							</effect>
						</filter>
						<link>
							<linkclipref>clipitem-1695</linkclipref>
							<mediatype>video</mediatype>
							<trackindex>1</trackindex>
							<clipindex>29</clipindex>
						</link>
						<link>
							<linkclipref>clipitem-1942</linkclipref>
							<mediatype>audio</mediatype>
							<trackindex>1</trackindex>
							<clipindex>22</clipindex>
							<groupindex>1</groupindex>
						</link>
						<link>
							<linkclipref>clipitem-1980</linkclipref>
							<mediatype>audio</mediatype>
							<trackindex>2</trackindex>
							<clipindex>22</clipindex>
							<groupindex>1</groupindex>
						</link>
						<logginginfo>
							<description></description>
							<scene></scene>
							<shottake></shottake>
							<lognote></lognote>
							<good></good>
							<originalvideofilename></originalvideofilename>
							<originalaudiofilename></originalaudiofilename>
						</logginginfo>
						<colorinfo>
							<lut></lut>
							<lut1></lut1>
							<asc_sop></asc_sop>
							<asc_sat></asc_sat>
							<lut2></lut2>
						</colorinfo>
						<labels>
							<label2>Purple</label2>
						</labels>
					</clipitem>
					<clipitem id="clipitem-1943" premiereChannelType="stereo">
						<masterclipid>masterclip-693</masterclipid>
						<name>Nested Sequence_468</name>
						<enabled>TRUE</enabled>
						<duration>8812</duration>
						<rate>
							<timebase>25</timebase>
							<ntsc>FALSE</ntsc>
						</rate>
						<start>39552</start>
						<end>40015</end>
						<in>4406</in>
						<out>4869</out>
						<pproTicksIn>44767779840000</pproTicksIn>
						<pproTicksOut>49472156160000</pproTicksOut>
						<sequence id="sequence-131"/>
						<sourcetrack>
							<mediatype>audio</mediatype>
							<trackindex>0</trackindex>
						</sourcetrack>
						<filter>
							<effect>
								<name>Audio Levels</name>
								<effectid>audiolevels</effectid>
								<effectcategory>audiolevels</effectcategory>
								<effecttype>audiolevels</effecttype>
								<mediatype>audio</mediatype>
								<pproBypass>false</pproBypass>
								<parameter authoringApp="PremierePro">
									<parameterid>level</parameterid>
									<name>Level</name>
									<valuemin>0</valuemin>
									<valuemax>3.98109</valuemax>
									<value>0</value>
									<keyframe>
										<when>26</when>
										<value>0</value>
									</keyframe>
									<keyframe>
										<when>27</when>
										<value>0</value>
									</keyframe>
									<keyframe>
										<when>584</when>
										<value>0</value>
									</keyframe>
									<keyframe>
										<when>586</when>
										<value>0</value>
									</keyframe>
									<keyframe>
										<when>1042</when>
										<value>0</value>
									</keyframe>
									<keyframe>
										<when>1045</when>
										<value>1</value>
									</keyframe>
									<keyframe>
										<when>1589</when>
										<value>0</value>
									</keyframe>
									<keyframe>
										<when>1591</when>
										<value>0</value>
									</keyframe>
									<keyframe>
										<when>2195</when>
										<value>0</value>
									</keyframe>
									<keyframe>
										<when>2196</when>
										<value>0</value>
									</keyframe>
									<keyframe>
										<when>2912</when>
										<value>0</value>
									</keyframe>
									<keyframe>
										<when>2914</when>
										<value>0</value>
									</keyframe>
									<keyframe>
										<when>3684</when>
										<value>0</value>
									</keyframe>
									<keyframe>
										<when>3685</when>
										<value>0</value>
									</keyframe>
									<keyframe>
										<when>4408</when>
										<value>0</value>
									</keyframe>
									<keyframe>
										<when>4410</when>
										<value>1</value>
									</keyframe>
								</parameter>
							</effect>
						</filter>
						<link>
							<linkclipref>clipitem-1696</linkclipref>
							<mediatype>video</mediatype>
							<trackindex>1</trackindex>
							<clipindex>30</clipindex>
						</link>
						<link>
							<linkclipref>clipitem-1943</linkclipref>
							<mediatype>audio</mediatype>
							<trackindex>1</trackindex>
							<clipindex>23</clipindex>
							<groupindex>1</groupindex>
						</link>
						<link>
							<linkclipref>clipitem-1981</linkclipref>
							<mediatype>audio</mediatype>
							<trackindex>2</trackindex>
							<clipindex>23</clipindex>
							<groupindex>1</groupindex>
						</link>
						<labels>
							<label2>Forest</label2>
						</labels>
					</clipitem>
					<clipitem id="clipitem-1944" premiereChannelType="stereo">
						<masterclipid>masterclip-711</masterclipid>
						<name>BITTUEV_БРАТИК___MSWCLP004753.mov</name>
						<enabled>TRUE</enabled>
						<duration>5964</duration>
						<rate>
							<timebase>25</timebase>
							<ntsc>FALSE</ntsc>
						</rate>
						<start>40090</start>
						<end>43072</end>
						<in>0</in>
						<out>2982</out>
						<pproTicksIn>0</pproTicksIn>
						<pproTicksOut>30299028480000</pproTicksOut>
						<file id="file-590"/>
						<sourcetrack>
							<mediatype>audio</mediatype>
							<trackindex>1</trackindex>
						</sourcetrack>
						<filter>
							<effect>
								<name>Audio Levels</name>
								<effectid>audiolevels</effectid>
								<effectcategory>audiolevels</effectcategory>
								<effecttype>audiolevels</effecttype>
								<mediatype>audio</mediatype>
								<pproBypass>false</pproBypass>
								<parameter authoringApp="PremierePro">
									<parameterid>level</parameterid>
									<name>Level</name>
									<valuemin>0</valuemin>
									<valuemax>3.98109</valuemax>
									<value>1</value>
								</parameter>
							</effect>
						</filter>
						<link>
							<linkclipref>clipitem-1698</linkclipref>
							<mediatype>video</mediatype>
							<trackindex>1</trackindex>
							<clipindex>32</clipindex>
						</link>
						<link>
							<linkclipref>clipitem-1944</linkclipref>
							<mediatype>audio</mediatype>
							<trackindex>1</trackindex>
							<clipindex>24</clipindex>
							<groupindex>1</groupindex>
						</link>
						<link>
							<linkclipref>clipitem-1982</linkclipref>
							<mediatype>audio</mediatype>
							<trackindex>2</trackindex>
							<clipindex>24</clipindex>
							<groupindex>1</groupindex>
						</link>
						<logginginfo>
							<description></description>
							<scene></scene>
							<shottake></shottake>
							<lognote></lognote>
							<good></good>
							<originalvideofilename></originalvideofilename>
							<originalaudiofilename></originalaudiofilename>
						</logginginfo>
						<colorinfo>
							<lut></lut>
							<lut1></lut1>
							<asc_sop></asc_sop>
							<asc_sat></asc_sat>
							<lut2></lut2>
						</colorinfo>
						<labels>
							<label2>Iris</label2>
						</labels>
					</clipitem>
					<clipitem id="clipitem-1945" premiereChannelType="stereo">
						<masterclipid>masterclip-697</masterclipid>
						<name>MYZ_RusskiyChart_OtbivkaMini_h264_v2.mp4</name>
						<enabled>TRUE</enabled>
						<duration>74</duration>
						<rate>
							<timebase>25</timebase>
							<ntsc>FALSE</ntsc>
						</rate>
						<start>43072</start>
						<end>43132</end>
						<in>0</in>
						<out>60</out>
						<pproTicksIn>0</pproTicksIn>
						<pproTicksOut>609638400000</pproTicksOut>
						<file id="file-576"/>
						<sourcetrack>
							<mediatype>audio</mediatype>
							<trackindex>1</trackindex>
						</sourcetrack>
						<filter>
							<effect>
								<name>Audio Levels</name>
								<effectid>audiolevels</effectid>
								<effectcategory>audiolevels</effectcategory>
								<effecttype>audiolevels</effecttype>
								<mediatype>audio</mediatype>
								<pproBypass>false</pproBypass>
								<parameter authoringApp="PremierePro">
									<parameterid>level</parameterid>
									<name>Level</name>
									<valuemin>0</valuemin>
									<valuemax>3.98109</valuemax>
									<value>0.251189</value>
									<keyframe>
										<when>60</when>
										<value>0.251189</value>
									</keyframe>
									<keyframe>
										<when>70</when>
										<value>0.258297</value>
									</keyframe>
								</parameter>
							</effect>
						</filter>
						<link>
							<linkclipref>clipitem-1699</linkclipref>
							<mediatype>video</mediatype>
							<trackindex>1</trackindex>
							<clipindex>33</clipindex>
						</link>
						<link>
							<linkclipref>clipitem-1945</linkclipref>
							<mediatype>audio</mediatype>
							<trackindex>1</trackindex>
							<clipindex>25</clipindex>
							<groupindex>1</groupindex>
						</link>
						<link>
							<linkclipref>clipitem-1983</linkclipref>
							<mediatype>audio</mediatype>
							<trackindex>2</trackindex>
							<clipindex>25</clipindex>
							<groupindex>1</groupindex>
						</link>
						<logginginfo>
							<description></description>
							<scene></scene>
							<shottake></shottake>
							<lognote></lognote>
							<good></good>
							<originalvideofilename></originalvideofilename>
							<originalaudiofilename></originalaudiofilename>
						</logginginfo>
						<colorinfo>
							<lut></lut>
							<lut1></lut1>
							<asc_sop></asc_sop>
							<asc_sat></asc_sat>
							<lut2></lut2>
						</colorinfo>
						<labels>
							<label2>Purple</label2>
						</labels>
					</clipitem>
					<clipitem id="clipitem-1946" premiereChannelType="stereo">
						<masterclipid>masterclip-693</masterclipid>
						<name>Nested Sequence_468</name>
						<enabled>TRUE</enabled>
						<duration>8812</duration>
						<rate>
							<timebase>25</timebase>
							<ntsc>FALSE</ntsc>
						</rate>
						<start>43132</start>
						<end>43699</end>
						<in>4922</in>
						<out>5489</out>
						<pproTicksIn>50010670080000</pproTicksIn>
						<pproTicksOut>55771752960000</pproTicksOut>
						<sequence id="sequence-131"/>
						<sourcetrack>
							<mediatype>audio</mediatype>
							<trackindex>0</trackindex>
						</sourcetrack>
						<filter>
							<effect>
								<name>Audio Levels</name>
								<effectid>audiolevels</effectid>
								<effectcategory>audiolevels</effectcategory>
								<effecttype>audiolevels</effecttype>
								<mediatype>audio</mediatype>
								<pproBypass>false</pproBypass>
								<parameter authoringApp="PremierePro">
									<parameterid>level</parameterid>
									<name>Level</name>
									<valuemin>0</valuemin>
									<valuemax>3.98109</valuemax>
									<value>0</value>
									<keyframe>
										<when>26</when>
										<value>0</value>
									</keyframe>
									<keyframe>
										<when>27</when>
										<value>0</value>
									</keyframe>
									<keyframe>
										<when>584</when>
										<value>0</value>
									</keyframe>
									<keyframe>
										<when>586</when>
										<value>0</value>
									</keyframe>
									<keyframe>
										<when>1042</when>
										<value>0</value>
									</keyframe>
									<keyframe>
										<when>1045</when>
										<value>1</value>
									</keyframe>
									<keyframe>
										<when>1589</when>
										<value>0</value>
									</keyframe>
									<keyframe>
										<when>1591</when>
										<value>0</value>
									</keyframe>
									<keyframe>
										<when>2195</when>
										<value>0</value>
									</keyframe>
									<keyframe>
										<when>2196</when>
										<value>0</value>
									</keyframe>
									<keyframe>
										<when>2912</when>
										<value>0</value>
									</keyframe>
									<keyframe>
										<when>2914</when>
										<value>0</value>
									</keyframe>
									<keyframe>
										<when>3684</when>
										<value>0</value>
									</keyframe>
									<keyframe>
										<when>3685</when>
										<value>0</value>
									</keyframe>
									<keyframe>
										<when>4408</when>
										<value>0</value>
									</keyframe>
									<keyframe>
										<when>4410</when>
										<value>0</value>
									</keyframe>
									<keyframe>
										<when>4925</when>
										<value>0</value>
									</keyframe>
									<keyframe>
										<when>4927</when>
										<value>1</value>
									</keyframe>
								</parameter>
							</effect>
						</filter>
						<link>
							<linkclipref>clipitem-1700</linkclipref>
							<mediatype>video</mediatype>
							<trackindex>1</trackindex>
							<clipindex>34</clipindex>
						</link>
						<link>
							<linkclipref>clipitem-1946</linkclipref>
							<mediatype>audio</mediatype>
							<trackindex>1</trackindex>
							<clipindex>26</clipindex>
							<groupindex>1</groupindex>
						</link>
						<link>
							<linkclipref>clipitem-1984</linkclipref>
							<mediatype>audio</mediatype>
							<trackindex>2</trackindex>
							<clipindex>26</clipindex>
							<groupindex>1</groupindex>
						</link>
						<labels>
							<label2>Forest</label2>
						</labels>
					</clipitem>
					<clipitem id="clipitem-1947" premiereChannelType="stereo">
						<masterclipid>masterclip-713</masterclipid>
						<name>GAYAZOV$ BROTHER$_МАЛИНОВАЯ ЛАДА___MSWCLP004814.mov</name>
						<enabled>TRUE</enabled>
						<duration>11542</duration>
						<rate>
							<timebase>25</timebase>
							<ntsc>FALSE</ntsc>
						</rate>
						<start>43774</start>
						<end>49300</end>
						<in>245</in>
						<out>5771</out>
						<pproTicksIn>2489356800000</pproTicksIn>
						<pproTicksOut>58637053440000</pproTicksOut>
						<file id="file-592"/>
						<sourcetrack>
							<mediatype>audio</mediatype>
							<trackindex>1</trackindex>
						</sourcetrack>
						<filter>
							<effect>
								<name>Audio Levels</name>
								<effectid>audiolevels</effectid>
								<effectcategory>audiolevels</effectcategory>
								<effecttype>audiolevels</effecttype>
								<mediatype>audio</mediatype>
								<pproBypass>false</pproBypass>
								<parameter authoringApp="PremierePro">
									<parameterid>level</parameterid>
									<name>Level</name>
									<valuemin>0</valuemin>
									<valuemax>3.98109</valuemax>
									<value>0</value>
									<keyframe>
										<when>254</when>
										<value>0</value>
									</keyframe>
									<keyframe>
										<when>256</when>
										<value>1</value>
									</keyframe>
								</parameter>
							</effect>
						</filter>
						<link>
							<linkclipref>clipitem-1702</linkclipref>
							<mediatype>video</mediatype>
							<trackindex>1</trackindex>
							<clipindex>36</clipindex>
						</link>
						<link>
							<linkclipref>clipitem-1947</linkclipref>
							<mediatype>audio</mediatype>
							<trackindex>1</trackindex>
							<clipindex>27</clipindex>
							<groupindex>1</groupindex>
						</link>
						<link>
							<linkclipref>clipitem-1985</linkclipref>
							<mediatype>audio</mediatype>
							<trackindex>2</trackindex>
							<clipindex>27</clipindex>
							<groupindex>1</groupindex>
						</link>
						<logginginfo>
							<description></description>
							<scene></scene>
							<shottake></shottake>
							<lognote></lognote>
							<good></good>
							<originalvideofilename></originalvideofilename>
							<originalaudiofilename></originalaudiofilename>
						</logginginfo>
						<colorinfo>
							<lut></lut>
							<lut1></lut1>
							<asc_sop></asc_sop>
							<asc_sat></asc_sat>
							<lut2></lut2>
						</colorinfo>
						<labels>
							<label2>Iris</label2>
						</labels>
					</clipitem>
					<clipitem id="clipitem-1948" premiereChannelType="stereo">
						<masterclipid>masterclip-697</masterclipid>
						<name>MYZ_RusskiyChart_OtbivkaMini_h264_v2.mp4</name>
						<enabled>TRUE</enabled>
						<duration>74</duration>
						<rate>
							<timebase>25</timebase>
							<ntsc>FALSE</ntsc>
						</rate>
						<start>49300</start>
						<end>49360</end>
						<in>0</in>
						<out>60</out>
						<pproTicksIn>0</pproTicksIn>
						<pproTicksOut>609638400000</pproTicksOut>
						<file id="file-576"/>
						<sourcetrack>
							<mediatype>audio</mediatype>
							<trackindex>1</trackindex>
						</sourcetrack>
						<filter>
							<effect>
								<name>Audio Levels</name>
								<effectid>audiolevels</effectid>
								<effectcategory>audiolevels</effectcategory>
								<effecttype>audiolevels</effecttype>
								<mediatype>audio</mediatype>
								<pproBypass>false</pproBypass>
								<parameter authoringApp="PremierePro">
									<parameterid>level</parameterid>
									<name>Level</name>
									<valuemin>0</valuemin>
									<valuemax>3.98109</valuemax>
									<value>0.251189</value>
									<keyframe>
										<when>60</when>
										<value>0.251189</value>
									</keyframe>
									<keyframe>
										<when>70</when>
										<value>0.258297</value>
									</keyframe>
								</parameter>
							</effect>
						</filter>
						<link>
							<linkclipref>clipitem-1703</linkclipref>
							<mediatype>video</mediatype>
							<trackindex>1</trackindex>
							<clipindex>37</clipindex>
						</link>
						<link>
							<linkclipref>clipitem-1948</linkclipref>
							<mediatype>audio</mediatype>
							<trackindex>1</trackindex>
							<clipindex>28</clipindex>
							<groupindex>1</groupindex>
						</link>
						<link>
							<linkclipref>clipitem-1986</linkclipref>
							<mediatype>audio</mediatype>
							<trackindex>2</trackindex>
							<clipindex>28</clipindex>
							<groupindex>1</groupindex>
						</link>
						<logginginfo>
							<description></description>
							<scene></scene>
							<shottake></shottake>
							<lognote></lognote>
							<good></good>
							<originalvideofilename></originalvideofilename>
							<originalaudiofilename></originalaudiofilename>
						</logginginfo>
						<colorinfo>
							<lut></lut>
							<lut1></lut1>
							<asc_sop></asc_sop>
							<asc_sat></asc_sat>
							<lut2></lut2>
						</colorinfo>
						<labels>
							<label2>Purple</label2>
						</labels>
					</clipitem>
					<clipitem id="clipitem-1949" premiereChannelType="stereo">
						<masterclipid>masterclip-693</masterclipid>
						<name>Nested Sequence_468</name>
						<enabled>TRUE</enabled>
						<duration>8812</duration>
						<rate>
							<timebase>25</timebase>
							<ntsc>FALSE</ntsc>
						</rate>
						<start>49360</start>
						<end>50023</end>
						<in>5535</in>
						<out>6198</out>
						<pproTicksIn>56239142400000</pproTicksIn>
						<pproTicksOut>62975646720000</pproTicksOut>
						<sequence id="sequence-131"/>
						<sourcetrack>
							<mediatype>audio</mediatype>
							<trackindex>0</trackindex>
						</sourcetrack>
						<filter>
							<effect>
								<name>Audio Levels</name>
								<effectid>audiolevels</effectid>
								<effectcategory>audiolevels</effectcategory>
								<effecttype>audiolevels</effecttype>
								<mediatype>audio</mediatype>
								<pproBypass>false</pproBypass>
								<parameter authoringApp="PremierePro">
									<parameterid>level</parameterid>
									<name>Level</name>
									<valuemin>0</valuemin>
									<valuemax>3.98109</valuemax>
									<value>0</value>
									<keyframe>
										<when>26</when>
										<value>0</value>
									</keyframe>
									<keyframe>
										<when>27</when>
										<value>0</value>
									</keyframe>
									<keyframe>
										<when>584</when>
										<value>0</value>
									</keyframe>
									<keyframe>
										<when>586</when>
										<value>0</value>
									</keyframe>
									<keyframe>
										<when>1042</when>
										<value>0</value>
									</keyframe>
									<keyframe>
										<when>1045</when>
										<value>1</value>
									</keyframe>
									<keyframe>
										<when>1589</when>
										<value>0</value>
									</keyframe>
									<keyframe>
										<when>1591</when>
										<value>0</value>
									</keyframe>
									<keyframe>
										<when>2195</when>
										<value>0</value>
									</keyframe>
									<keyframe>
										<when>2196</when>
										<value>0</value>
									</keyframe>
									<keyframe>
										<when>2912</when>
										<value>0</value>
									</keyframe>
									<keyframe>
										<when>2914</when>
										<value>0</value>
									</keyframe>
									<keyframe>
										<when>3684</when>
										<value>0</value>
									</keyframe>
									<keyframe>
										<when>3685</when>
										<value>0</value>
									</keyframe>
									<keyframe>
										<when>4408</when>
										<value>0</value>
									</keyframe>
									<keyframe>
										<when>4410</when>
										<value>0</value>
									</keyframe>
									<keyframe>
										<when>4925</when>
										<value>0</value>
									</keyframe>
									<keyframe>
										<when>4927</when>
										<value>0</value>
									</keyframe>
									<keyframe>
										<when>5539</when>
										<value>0</value>
									</keyframe>
									<keyframe>
										<when>5541</when>
										<value>1</value>
									</keyframe>
								</parameter>
							</effect>
						</filter>
						<link>
							<linkclipref>clipitem-1704</linkclipref>
							<mediatype>video</mediatype>
							<trackindex>1</trackindex>
							<clipindex>38</clipindex>
						</link>
						<link>
							<linkclipref>clipitem-1949</linkclipref>
							<mediatype>audio</mediatype>
							<trackindex>1</trackindex>
							<clipindex>29</clipindex>
							<groupindex>1</groupindex>
						</link>
						<link>
							<linkclipref>clipitem-1987</linkclipref>
							<mediatype>audio</mediatype>
							<trackindex>2</trackindex>
							<clipindex>29</clipindex>
							<groupindex>1</groupindex>
						</link>
						<labels>
							<label2>Forest</label2>
						</labels>
					</clipitem>
					<clipitem id="clipitem-1950" premiereChannelType="stereo">
						<masterclipid>masterclip-715</masterclipid>
						<name>ЛЮСЯ ЧЕБОТИНА_СОЛНЦЕ МОНАКО___MSWCLP004812.mov</name>
						<enabled>TRUE</enabled>
						<duration>7794</duration>
						<rate>
							<timebase>25</timebase>
							<ntsc>FALSE</ntsc>
						</rate>
						<start>50098</start>
						<end>53995</end>
						<in>0</in>
						<out>3897</out>
						<pproTicksIn>0</pproTicksIn>
						<pproTicksOut>39596014080000</pproTicksOut>
						<file id="file-594"/>
						<sourcetrack>
							<mediatype>audio</mediatype>
							<trackindex>1</trackindex>
						</sourcetrack>
						<filter>
							<effect>
								<name>Audio Levels</name>
								<effectid>audiolevels</effectid>
								<effectcategory>audiolevels</effectcategory>
								<effecttype>audiolevels</effecttype>
								<mediatype>audio</mediatype>
								<pproBypass>false</pproBypass>
								<parameter authoringApp="PremierePro">
									<parameterid>level</parameterid>
									<name>Level</name>
									<valuemin>0</valuemin>
									<valuemax>3.98109</valuemax>
									<value>1</value>
								</parameter>
							</effect>
						</filter>
						<link>
							<linkclipref>clipitem-1706</linkclipref>
							<mediatype>video</mediatype>
							<trackindex>1</trackindex>
							<clipindex>40</clipindex>
						</link>
						<link>
							<linkclipref>clipitem-1950</linkclipref>
							<mediatype>audio</mediatype>
							<trackindex>1</trackindex>
							<clipindex>30</clipindex>
							<groupindex>1</groupindex>
						</link>
						<link>
							<linkclipref>clipitem-1988</linkclipref>
							<mediatype>audio</mediatype>
							<trackindex>2</trackindex>
							<clipindex>30</clipindex>
							<groupindex>1</groupindex>
						</link>
						<logginginfo>
							<description></description>
							<scene></scene>
							<shottake></shottake>
							<lognote></lognote>
							<good></good>
							<originalvideofilename></originalvideofilename>
							<originalaudiofilename></originalaudiofilename>
						</logginginfo>
						<colorinfo>
							<lut></lut>
							<lut1></lut1>
							<asc_sop></asc_sop>
							<asc_sat></asc_sat>
							<lut2></lut2>
						</colorinfo>
						<labels>
							<label2>Iris</label2>
						</labels>
					</clipitem>
					<clipitem id="clipitem-1951" premiereChannelType="stereo">
						<masterclipid>masterclip-697</masterclipid>
						<name>MYZ_RusskiyChart_OtbivkaMini_h264_v2.mp4</name>
						<enabled>TRUE</enabled>
						<duration>74</duration>
						<rate>
							<timebase>25</timebase>
							<ntsc>FALSE</ntsc>
						</rate>
						<start>53995</start>
						<end>54055</end>
						<in>0</in>
						<out>60</out>
						<pproTicksIn>0</pproTicksIn>
						<pproTicksOut>609638400000</pproTicksOut>
						<file id="file-576"/>
						<sourcetrack>
							<mediatype>audio</mediatype>
							<trackindex>1</trackindex>
						</sourcetrack>
						<filter>
							<effect>
								<name>Audio Levels</name>
								<effectid>audiolevels</effectid>
								<effectcategory>audiolevels</effectcategory>
								<effecttype>audiolevels</effecttype>
								<mediatype>audio</mediatype>
								<pproBypass>false</pproBypass>
								<parameter authoringApp="PremierePro">
									<parameterid>level</parameterid>
									<name>Level</name>
									<valuemin>0</valuemin>
									<valuemax>3.98109</valuemax>
									<value>0.251189</value>
									<keyframe>
										<when>60</when>
										<value>0.251189</value>
									</keyframe>
									<keyframe>
										<when>70</when>
										<value>0.258297</value>
									</keyframe>
								</parameter>
							</effect>
						</filter>
						<link>
							<linkclipref>clipitem-1707</linkclipref>
							<mediatype>video</mediatype>
							<trackindex>1</trackindex>
							<clipindex>41</clipindex>
						</link>
						<link>
							<linkclipref>clipitem-1951</linkclipref>
							<mediatype>audio</mediatype>
							<trackindex>1</trackindex>
							<clipindex>31</clipindex>
							<groupindex>1</groupindex>
						</link>
						<link>
							<linkclipref>clipitem-1989</linkclipref>
							<mediatype>audio</mediatype>
							<trackindex>2</trackindex>
							<clipindex>31</clipindex>
							<groupindex>1</groupindex>
						</link>
						<logginginfo>
							<description></description>
							<scene></scene>
							<shottake></shottake>
							<lognote></lognote>
							<good></good>
							<originalvideofilename></originalvideofilename>
							<originalaudiofilename></originalaudiofilename>
						</logginginfo>
						<colorinfo>
							<lut></lut>
							<lut1></lut1>
							<asc_sop></asc_sop>
							<asc_sat></asc_sat>
							<lut2></lut2>
						</colorinfo>
						<labels>
							<label2>Purple</label2>
						</labels>
					</clipitem>
					<clipitem id="clipitem-1952" premiereChannelType="stereo">
						<masterclipid>masterclip-693</masterclipid>
						<name>Nested Sequence_468</name>
						<enabled>TRUE</enabled>
						<duration>8812</duration>
						<rate>
							<timebase>25</timebase>
							<ntsc>FALSE</ntsc>
						</rate>
						<start>54055</start>
						<end>54589</end>
						<in>6279</in>
						<out>6813</out>
						<pproTicksIn>63798658560000</pproTicksIn>
						<pproTicksOut>69224440320000</pproTicksOut>
						<sequence id="sequence-131"/>
						<sourcetrack>
							<mediatype>audio</mediatype>
							<trackindex>0</trackindex>
						</sourcetrack>
						<filter>
							<effect>
								<name>Audio Levels</name>
								<effectid>audiolevels</effectid>
								<effectcategory>audiolevels</effectcategory>
								<effecttype>audiolevels</effecttype>
								<mediatype>audio</mediatype>
								<pproBypass>false</pproBypass>
								<parameter authoringApp="PremierePro">
									<parameterid>level</parameterid>
									<name>Level</name>
									<valuemin>0</valuemin>
									<valuemax>3.98109</valuemax>
									<value>0</value>
									<keyframe>
										<when>26</when>
										<value>0</value>
									</keyframe>
									<keyframe>
										<when>27</when>
										<value>0</value>
									</keyframe>
									<keyframe>
										<when>584</when>
										<value>0</value>
									</keyframe>
									<keyframe>
										<when>586</when>
										<value>0</value>
									</keyframe>
									<keyframe>
										<when>1042</when>
										<value>0</value>
									</keyframe>
									<keyframe>
										<when>1045</when>
										<value>1</value>
									</keyframe>
									<keyframe>
										<when>1589</when>
										<value>0</value>
									</keyframe>
									<keyframe>
										<when>1591</when>
										<value>0</value>
									</keyframe>
									<keyframe>
										<when>2195</when>
										<value>0</value>
									</keyframe>
									<keyframe>
										<when>2196</when>
										<value>0</value>
									</keyframe>
									<keyframe>
										<when>2912</when>
										<value>0</value>
									</keyframe>
									<keyframe>
										<when>2914</when>
										<value>0</value>
									</keyframe>
									<keyframe>
										<when>3684</when>
										<value>0</value>
									</keyframe>
									<keyframe>
										<when>3685</when>
										<value>0</value>
									</keyframe>
									<keyframe>
										<when>4408</when>
										<value>0</value>
									</keyframe>
									<keyframe>
										<when>4410</when>
										<value>0</value>
									</keyframe>
									<keyframe>
										<when>4925</when>
										<value>0</value>
									</keyframe>
									<keyframe>
										<when>4927</when>
										<value>0</value>
									</keyframe>
									<keyframe>
										<when>5539</when>
										<value>0</value>
									</keyframe>
									<keyframe>
										<when>5541</when>
										<value>0</value>
									</keyframe>
									<keyframe>
										<when>6284</when>
										<value>0</value>
									</keyframe>
									<keyframe>
										<when>6285</when>
										<value>1</value>
									</keyframe>
								</parameter>
							</effect>
						</filter>
						<link>
							<linkclipref>clipitem-1708</linkclipref>
							<mediatype>video</mediatype>
							<trackindex>1</trackindex>
							<clipindex>42</clipindex>
						</link>
						<link>
							<linkclipref>clipitem-1952</linkclipref>
							<mediatype>audio</mediatype>
							<trackindex>1</trackindex>
							<clipindex>32</clipindex>
							<groupindex>1</groupindex>
						</link>
						<link>
							<linkclipref>clipitem-1990</linkclipref>
							<mediatype>audio</mediatype>
							<trackindex>2</trackindex>
							<clipindex>32</clipindex>
							<groupindex>1</groupindex>
						</link>
						<labels>
							<label2>Forest</label2>
						</labels>
					</clipitem>
					<clipitem id="clipitem-1953" premiereChannelType="stereo">
						<masterclipid>masterclip-717</masterclipid>
						<name>NЮ_НИКТО___MSWCLP004852.mov</name>
						<enabled>TRUE</enabled>
						<duration>10060</duration>
						<rate>
							<timebase>25</timebase>
							<ntsc>FALSE</ntsc>
						</rate>
						<start>54664</start>
						<end>59662</end>
						<in>32</in>
						<out>5030</out>
						<pproTicksIn>325140480000</pproTicksIn>
						<pproTicksOut>51108019200000</pproTicksOut>
						<file id="file-596"/>
						<sourcetrack>
							<mediatype>audio</mediatype>
							<trackindex>1</trackindex>
						</sourcetrack>
						<filter>
							<effect>
								<name>Audio Levels</name>
								<effectid>audiolevels</effectid>
								<effectcategory>audiolevels</effectcategory>
								<effecttype>audiolevels</effecttype>
								<mediatype>audio</mediatype>
								<pproBypass>false</pproBypass>
								<parameter authoringApp="PremierePro">
									<parameterid>level</parameterid>
									<name>Level</name>
									<valuemin>0</valuemin>
									<valuemax>3.98109</valuemax>
									<value>1</value>
									<keyframe>
										<when>5002</when>
										<value>1</value>
									</keyframe>
									<keyframe>
										<when>5027</when>
										<value>0.0086983</value>
									</keyframe>
								</parameter>
							</effect>
						</filter>
						<link>
							<linkclipref>clipitem-1710</linkclipref>
							<mediatype>video</mediatype>
							<trackindex>1</trackindex>
							<clipindex>44</clipindex>
						</link>
						<link>
							<linkclipref>clipitem-1953</linkclipref>
							<mediatype>audio</mediatype>
							<trackindex>1</trackindex>
							<clipindex>33</clipindex>
							<groupindex>1</groupindex>
						</link>
						<link>
							<linkclipref>clipitem-1991</linkclipref>
							<mediatype>audio</mediatype>
							<trackindex>2</trackindex>
							<clipindex>33</clipindex>
							<groupindex>1</groupindex>
						</link>
						<logginginfo>
							<description></description>
							<scene></scene>
							<shottake></shottake>
							<lognote></lognote>
							<good></good>
							<originalvideofilename></originalvideofilename>
							<originalaudiofilename></originalaudiofilename>
						</logginginfo>
						<colorinfo>
							<lut></lut>
							<lut1></lut1>
							<asc_sop></asc_sop>
							<asc_sat></asc_sat>
							<lut2></lut2>
						</colorinfo>
						<labels>
							<label2>Iris</label2>
						</labels>
					</clipitem>
					<clipitem id="clipitem-1954" premiereChannelType="stereo">
						<masterclipid>masterclip-697</masterclipid>
						<name>MYZ_RusskiyChart_OtbivkaMini_h264_v2.mp4</name>
						<enabled>TRUE</enabled>
						<duration>74</duration>
						<rate>
							<timebase>25</timebase>
							<ntsc>FALSE</ntsc>
						</rate>
						<start>59662</start>
						<end>59722</end>
						<in>0</in>
						<out>60</out>
						<pproTicksIn>0</pproTicksIn>
						<pproTicksOut>609638400000</pproTicksOut>
						<file id="file-576"/>
						<sourcetrack>
							<mediatype>audio</mediatype>
							<trackindex>1</trackindex>
						</sourcetrack>
						<filter>
							<effect>
								<name>Audio Levels</name>
								<effectid>audiolevels</effectid>
								<effectcategory>audiolevels</effectcategory>
								<effecttype>audiolevels</effecttype>
								<mediatype>audio</mediatype>
								<pproBypass>false</pproBypass>
								<parameter authoringApp="PremierePro">
									<parameterid>level</parameterid>
									<name>Level</name>
									<valuemin>0</valuemin>
									<valuemax>3.98109</valuemax>
									<value>0.251189</value>
									<keyframe>
										<when>60</when>
										<value>0.251189</value>
									</keyframe>
									<keyframe>
										<when>70</when>
										<value>0.258297</value>
									</keyframe>
								</parameter>
							</effect>
						</filter>
						<link>
							<linkclipref>clipitem-1711</linkclipref>
							<mediatype>video</mediatype>
							<trackindex>1</trackindex>
							<clipindex>45</clipindex>
						</link>
						<link>
							<linkclipref>clipitem-1954</linkclipref>
							<mediatype>audio</mediatype>
							<trackindex>1</trackindex>
							<clipindex>34</clipindex>
							<groupindex>1</groupindex>
						</link>
						<link>
							<linkclipref>clipitem-1992</linkclipref>
							<mediatype>audio</mediatype>
							<trackindex>2</trackindex>
							<clipindex>34</clipindex>
							<groupindex>1</groupindex>
						</link>
						<logginginfo>
							<description></description>
							<scene></scene>
							<shottake></shottake>
							<lognote></lognote>
							<good></good>
							<originalvideofilename></originalvideofilename>
							<originalaudiofilename></originalaudiofilename>
						</logginginfo>
						<colorinfo>
							<lut></lut>
							<lut1></lut1>
							<asc_sop></asc_sop>
							<asc_sat></asc_sat>
							<lut2></lut2>
						</colorinfo>
						<labels>
							<label2>Purple</label2>
						</labels>
					</clipitem>
					<clipitem id="clipitem-1955" premiereChannelType="stereo">
						<masterclipid>masterclip-693</masterclipid>
						<name>Nested Sequence_468</name>
						<enabled>TRUE</enabled>
						<duration>8812</duration>
						<rate>
							<timebase>25</timebase>
							<ntsc>FALSE</ntsc>
						</rate>
						<start>59722</start>
						<end>60286</end>
						<in>6881</in>
						<out>7445</out>
						<pproTicksIn>69915363840000</pproTicksIn>
						<pproTicksOut>75645964800000</pproTicksOut>
						<sequence id="sequence-131"/>
						<sourcetrack>
							<mediatype>audio</mediatype>
							<trackindex>0</trackindex>
						</sourcetrack>
						<filter>
							<effect>
								<name>Audio Levels</name>
								<effectid>audiolevels</effectid>
								<effectcategory>audiolevels</effectcategory>
								<effecttype>audiolevels</effecttype>
								<mediatype>audio</mediatype>
								<pproBypass>false</pproBypass>
								<parameter authoringApp="PremierePro">
									<parameterid>level</parameterid>
									<name>Level</name>
									<valuemin>0</valuemin>
									<valuemax>3.98109</valuemax>
									<value>0</value>
									<keyframe>
										<when>26</when>
										<value>0</value>
									</keyframe>
									<keyframe>
										<when>27</when>
										<value>0</value>
									</keyframe>
									<keyframe>
										<when>584</when>
										<value>0</value>
									</keyframe>
									<keyframe>
										<when>586</when>
										<value>0</value>
									</keyframe>
									<keyframe>
										<when>1042</when>
										<value>0</value>
									</keyframe>
									<keyframe>
										<when>1045</when>
										<value>1</value>
									</keyframe>
									<keyframe>
										<when>1589</when>
										<value>0</value>
									</keyframe>
									<keyframe>
										<when>1591</when>
										<value>0</value>
									</keyframe>
									<keyframe>
										<when>2195</when>
										<value>0</value>
									</keyframe>
									<keyframe>
										<when>2196</when>
										<value>0</value>
									</keyframe>
									<keyframe>
										<when>2912</when>
										<value>0</value>
									</keyframe>
									<keyframe>
										<when>2914</when>
										<value>0</value>
									</keyframe>
									<keyframe>
										<when>3684</when>
										<value>0</value>
									</keyframe>
									<keyframe>
										<when>3685</when>
										<value>0</value>
									</keyframe>
									<keyframe>
										<when>4408</when>
										<value>0</value>
									</keyframe>
									<keyframe>
										<when>4410</when>
										<value>0</value>
									</keyframe>
									<keyframe>
										<when>4925</when>
										<value>0</value>
									</keyframe>
									<keyframe>
										<when>4927</when>
										<value>0</value>
									</keyframe>
									<keyframe>
										<when>5539</when>
										<value>0</value>
									</keyframe>
									<keyframe>
										<when>5541</when>
										<value>0</value>
									</keyframe>
									<keyframe>
										<when>6284</when>
										<value>0</value>
									</keyframe>
									<keyframe>
										<when>6285</when>
										<value>0</value>
									</keyframe>
									<keyframe>
										<when>6884</when>
										<value>0</value>
									</keyframe>
									<keyframe>
										<when>6884</when>
										<value>1</value>
									</keyframe>
								</parameter>
							</effect>
						</filter>
						<link>
							<linkclipref>clipitem-1712</linkclipref>
							<mediatype>video</mediatype>
							<trackindex>1</trackindex>
							<clipindex>46</clipindex>
						</link>
						<link>
							<linkclipref>clipitem-1955</linkclipref>
							<mediatype>audio</mediatype>
							<trackindex>1</trackindex>
							<clipindex>35</clipindex>
							<groupindex>1</groupindex>
						</link>
						<link>
							<linkclipref>clipitem-1993</linkclipref>
							<mediatype>audio</mediatype>
							<trackindex>2</trackindex>
							<clipindex>35</clipindex>
							<groupindex>1</groupindex>
						</link>
						<labels>
							<label2>Forest</label2>
						</labels>
					</clipitem>
					<clipitem id="clipitem-1956" premiereChannelType="stereo">
						<masterclipid>masterclip-719</masterclipid>
						<name>ДАНЯ МИЛОХИН &amp; МУМИЙ ТРОЛЛЬ_БАШНЯ___MSWCLP004828.mov</name>
						<enabled>TRUE</enabled>
						<duration>9870</duration>
						<rate>
							<timebase>25</timebase>
							<ntsc>FALSE</ntsc>
						</rate>
						<start>60361</start>
						<end>65296</end>
						<in>0</in>
						<out>4935</out>
						<pproTicksIn>0</pproTicksIn>
						<pproTicksOut>50142758400000</pproTicksOut>
						<file id="file-598"/>
						<sourcetrack>
							<mediatype>audio</mediatype>
							<trackindex>1</trackindex>
						</sourcetrack>
						<filter>
							<effect>
								<name>Audio Levels</name>
								<effectid>audiolevels</effectid>
								<effectcategory>audiolevels</effectcategory>
								<effecttype>audiolevels</effecttype>
								<mediatype>audio</mediatype>
								<pproBypass>false</pproBypass>
								<parameter authoringApp="PremierePro">
									<parameterid>level</parameterid>
									<name>Level</name>
									<valuemin>0</valuemin>
									<valuemax>3.98109</valuemax>
									<value>1</value>
									<keyframe>
										<when>4897</when>
										<value>1</value>
									</keyframe>
									<keyframe>
										<when>4931</when>
										<value>0.1886</value>
									</keyframe>
								</parameter>
							</effect>
						</filter>
						<link>
							<linkclipref>clipitem-1714</linkclipref>
							<mediatype>video</mediatype>
							<trackindex>1</trackindex>
							<clipindex>48</clipindex>
						</link>
						<link>
							<linkclipref>clipitem-1956</linkclipref>
							<mediatype>audio</mediatype>
							<trackindex>1</trackindex>
							<clipindex>36</clipindex>
							<groupindex>1</groupindex>
						</link>
						<link>
							<linkclipref>clipitem-1994</linkclipref>
							<mediatype>audio</mediatype>
							<trackindex>2</trackindex>
							<clipindex>36</clipindex>
							<groupindex>1</groupindex>
						</link>
						<logginginfo>
							<description></description>
							<scene></scene>
							<shottake></shottake>
							<lognote></lognote>
							<good></good>
							<originalvideofilename></originalvideofilename>
							<originalaudiofilename></originalaudiofilename>
						</logginginfo>
						<colorinfo>
							<lut></lut>
							<lut1></lut1>
							<asc_sop></asc_sop>
							<asc_sat></asc_sat>
							<lut2></lut2>
						</colorinfo>
						<labels>
							<label2>Iris</label2>
						</labels>
					</clipitem>
					<clipitem id="clipitem-1957" premiereChannelType="stereo">
						<masterclipid>masterclip-697</masterclipid>
						<name>MYZ_RusskiyChart_OtbivkaMini_h264_v2.mp4</name>
						<enabled>TRUE</enabled>
						<duration>74</duration>
						<rate>
							<timebase>25</timebase>
							<ntsc>FALSE</ntsc>
						</rate>
						<start>65296</start>
						<end>65356</end>
						<in>0</in>
						<out>60</out>
						<pproTicksIn>0</pproTicksIn>
						<pproTicksOut>609638400000</pproTicksOut>
						<file id="file-576"/>
						<sourcetrack>
							<mediatype>audio</mediatype>
							<trackindex>1</trackindex>
						</sourcetrack>
						<filter>
							<effect>
								<name>Audio Levels</name>
								<effectid>audiolevels</effectid>
								<effectcategory>audiolevels</effectcategory>
								<effecttype>audiolevels</effecttype>
								<mediatype>audio</mediatype>
								<pproBypass>false</pproBypass>
								<parameter authoringApp="PremierePro">
									<parameterid>level</parameterid>
									<name>Level</name>
									<valuemin>0</valuemin>
									<valuemax>3.98109</valuemax>
									<value>0.251189</value>
									<keyframe>
										<when>60</when>
										<value>0.251189</value>
									</keyframe>
									<keyframe>
										<when>70</when>
										<value>0.258297</value>
									</keyframe>
								</parameter>
							</effect>
						</filter>
						<link>
							<linkclipref>clipitem-1715</linkclipref>
							<mediatype>video</mediatype>
							<trackindex>1</trackindex>
							<clipindex>49</clipindex>
						</link>
						<link>
							<linkclipref>clipitem-1957</linkclipref>
							<mediatype>audio</mediatype>
							<trackindex>1</trackindex>
							<clipindex>37</clipindex>
							<groupindex>1</groupindex>
						</link>
						<link>
							<linkclipref>clipitem-1995</linkclipref>
							<mediatype>audio</mediatype>
							<trackindex>2</trackindex>
							<clipindex>37</clipindex>
							<groupindex>1</groupindex>
						</link>
						<logginginfo>
							<description></description>
							<scene></scene>
							<shottake></shottake>
							<lognote></lognote>
							<good></good>
							<originalvideofilename></originalvideofilename>
							<originalaudiofilename></originalaudiofilename>
						</logginginfo>
						<colorinfo>
							<lut></lut>
							<lut1></lut1>
							<asc_sop></asc_sop>
							<asc_sat></asc_sat>
							<lut2></lut2>
						</colorinfo>
						<labels>
							<label2>Purple</label2>
						</labels>
					</clipitem>
					<clipitem id="clipitem-1958" premiereChannelType="stereo">
						<masterclipid>masterclip-693</masterclipid>
						<name>Nested Sequence_468</name>
						<enabled>TRUE</enabled>
						<duration>8812</duration>
						<rate>
							<timebase>25</timebase>
							<ntsc>FALSE</ntsc>
						</rate>
						<start>65356</start>
						<end>65740</end>
						<in>7507</in>
						<out>7891</out>
						<pproTicksIn>76275924480000</pproTicksIn>
						<pproTicksOut>80177610240000</pproTicksOut>
						<sequence id="sequence-131"/>
						<sourcetrack>
							<mediatype>audio</mediatype>
							<trackindex>0</trackindex>
						</sourcetrack>
						<filter>
							<effect>
								<name>Audio Levels</name>
								<effectid>audiolevels</effectid>
								<effectcategory>audiolevels</effectcategory>
								<effecttype>audiolevels</effecttype>
								<mediatype>audio</mediatype>
								<pproBypass>false</pproBypass>
								<parameter authoringApp="PremierePro">
									<parameterid>level</parameterid>
									<name>Level</name>
									<valuemin>0</valuemin>
									<valuemax>3.98109</valuemax>
									<value>0</value>
									<keyframe>
										<when>26</when>
										<value>0</value>
									</keyframe>
									<keyframe>
										<when>27</when>
										<value>0</value>
									</keyframe>
									<keyframe>
										<when>584</when>
										<value>0</value>
									</keyframe>
									<keyframe>
										<when>586</when>
										<value>0</value>
									</keyframe>
									<keyframe>
										<when>1042</when>
										<value>0</value>
									</keyframe>
									<keyframe>
										<when>1045</when>
										<value>1</value>
									</keyframe>
									<keyframe>
										<when>1589</when>
										<value>0</value>
									</keyframe>
									<keyframe>
										<when>1591</when>
										<value>0</value>
									</keyframe>
									<keyframe>
										<when>2195</when>
										<value>0</value>
									</keyframe>
									<keyframe>
										<when>2196</when>
										<value>0</value>
									</keyframe>
									<keyframe>
										<when>2912</when>
										<value>0</value>
									</keyframe>
									<keyframe>
										<when>2914</when>
										<value>0</value>
									</keyframe>
									<keyframe>
										<when>3684</when>
										<value>0</value>
									</keyframe>
									<keyframe>
										<when>3685</when>
										<value>0</value>
									</keyframe>
									<keyframe>
										<when>4408</when>
										<value>0</value>
									</keyframe>
									<keyframe>
										<when>4410</when>
										<value>0</value>
									</keyframe>
									<keyframe>
										<when>4925</when>
										<value>0</value>
									</keyframe>
									<keyframe>
										<when>4927</when>
										<value>0</value>
									</keyframe>
									<keyframe>
										<when>5539</when>
										<value>0</value>
									</keyframe>
									<keyframe>
										<when>5541</when>
										<value>0</value>
									</keyframe>
									<keyframe>
										<when>6284</when>
										<value>0</value>
									</keyframe>
									<keyframe>
										<when>6285</when>
										<value>0</value>
									</keyframe>
									<keyframe>
										<when>6884</when>
										<value>0</value>
									</keyframe>
									<keyframe>
										<when>6884</when>
										<value>0</value>
									</keyframe>
									<keyframe>
										<when>7511</when>
										<value>0</value>
									</keyframe>
									<keyframe>
										<when>7512</when>
										<value>1</value>
									</keyframe>
								</parameter>
							</effect>
						</filter>
						<link>
							<linkclipref>clipitem-1716</linkclipref>
							<mediatype>video</mediatype>
							<trackindex>1</trackindex>
							<clipindex>50</clipindex>
						</link>
						<link>
							<linkclipref>clipitem-1958</linkclipref>
							<mediatype>audio</mediatype>
							<trackindex>1</trackindex>
							<clipindex>38</clipindex>
							<groupindex>1</groupindex>
						</link>
						<link>
							<linkclipref>clipitem-1996</linkclipref>
							<mediatype>audio</mediatype>
							<trackindex>2</trackindex>
							<clipindex>38</clipindex>
							<groupindex>1</groupindex>
						</link>
						<labels>
							<label2>Forest</label2>
						</labels>
					</clipitem>
					<enabled>TRUE</enabled>
					<locked>FALSE</locked>
					<outputchannelindex>1</outputchannelindex>
				</track>
				<track TL.SQTrackAudioKeyframeStyle="0" TL.SQTrackShy="0" TL.SQTrackExpandedHeight="65" TL.SQTrackExpanded="0" MZ.TrackTargeted="0" PannerCurrentValue="0.5" PannerIsInverted="true" PannerStartKeyframe="-91445760000000000,0.5,0,0,0,0,0,0" PannerName="Balance" currentExplodedTrackIndex="1" totalExplodedTrackCount="2" premiereTrackType="Stereo">
					<clipitem id="clipitem-1959" premiereChannelType="stereo">
						<masterclipid>masterclip-692</masterclipid>
						<name>MYZ_RusskiyChart_appProRes_v2.mov</name>
						<enabled>TRUE</enabled>
						<duration>299</duration>
						<rate>
							<timebase>25</timebase>
							<ntsc>FALSE</ntsc>
						</rate>
						<start>0</start>
						<end>274</end>
						<in>0</in>
						<out>274</out>
						<pproTicksIn>0</pproTicksIn>
						<pproTicksOut>2784015360000</pproTicksOut>
						<file id="file-572"/>
						<sourcetrack>
							<mediatype>audio</mediatype>
							<trackindex>2</trackindex>
						</sourcetrack>
						<filter>
							<effect>
								<name>Audio Levels</name>
								<effectid>audiolevels</effectid>
								<effectcategory>audiolevels</effectcategory>
								<effecttype>audiolevels</effecttype>
								<mediatype>audio</mediatype>
								<pproBypass>false</pproBypass>
								<parameter authoringApp="PremierePro">
									<parameterid>level</parameterid>
									<name>Level</name>
									<valuemin>0</valuemin>
									<valuemax>3.98109</valuemax>
									<value>0</value>
									<keyframe>
										<when>262</when>
										<value>0.158489</value>
									</keyframe>
									<keyframe>
										<when>272</when>
										<value>0</value>
									</keyframe>
								</parameter>
							</effect>
						</filter>
						<link>
							<linkclipref>clipitem-1664</linkclipref>
							<mediatype>video</mediatype>
							<trackindex>1</trackindex>
							<clipindex>1</clipindex>
						</link>
						<link>
							<linkclipref>clipitem-1921</linkclipref>
							<mediatype>audio</mediatype>
							<trackindex>1</trackindex>
							<clipindex>1</clipindex>
							<groupindex>1</groupindex>
						</link>
						<link>
							<linkclipref>clipitem-1959</linkclipref>
							<mediatype>audio</mediatype>
							<trackindex>2</trackindex>
							<clipindex>1</clipindex>
							<groupindex>1</groupindex>
						</link>
						<logginginfo>
							<description></description>
							<scene></scene>
							<shottake></shottake>
							<lognote></lognote>
							<good></good>
							<originalvideofilename></originalvideofilename>
							<originalaudiofilename></originalaudiofilename>
						</logginginfo>
						<colorinfo>
							<lut></lut>
							<lut1></lut1>
							<asc_sop></asc_sop>
							<asc_sat></asc_sat>
							<lut2></lut2>
						</colorinfo>
						<labels>
							<label2>Iris</label2>
						</labels>
					</clipitem>
					<clipitem id="clipitem-1960" premiereChannelType="stereo">
						<masterclipid>masterclip-693</masterclipid>
						<name>Nested Sequence_468</name>
						<enabled>TRUE</enabled>
						<duration>8812</duration>
						<rate>
							<timebase>25</timebase>
							<ntsc>FALSE</ntsc>
						</rate>
						<start>274</start>
						<end>809</end>
						<in>22</in>
						<out>557</out>
						<pproTicksIn>223534080000</pproTicksIn>
						<pproTicksOut>5659476480000</pproTicksOut>
						<sequence id="sequence-131"/>
						<sourcetrack>
							<mediatype>audio</mediatype>
							<trackindex>1</trackindex>
						</sourcetrack>
						<filter>
							<effect>
								<name>Audio Levels</name>
								<effectid>audiolevels</effectid>
								<effectcategory>audiolevels</effectcategory>
								<effecttype>audiolevels</effecttype>
								<mediatype>audio</mediatype>
								<pproBypass>false</pproBypass>
								<parameter authoringApp="PremierePro">
									<parameterid>level</parameterid>
									<name>Level</name>
									<valuemin>0</valuemin>
									<valuemax>3.98109</valuemax>
									<value>1</value>
									<keyframe>
										<when>26</when>
										<value>0</value>
									</keyframe>
									<keyframe>
										<when>27</when>
										<value>1</value>
									</keyframe>
								</parameter>
							</effect>
						</filter>
						<link>
							<linkclipref>clipitem-1665</linkclipref>
							<mediatype>video</mediatype>
							<trackindex>1</trackindex>
							<clipindex>2</clipindex>
						</link>
						<link>
							<linkclipref>clipitem-1922</linkclipref>
							<mediatype>audio</mediatype>
							<trackindex>1</trackindex>
							<clipindex>2</clipindex>
							<groupindex>1</groupindex>
						</link>
						<link>
							<linkclipref>clipitem-1960</linkclipref>
							<mediatype>audio</mediatype>
							<trackindex>2</trackindex>
							<clipindex>2</clipindex>
							<groupindex>1</groupindex>
						</link>
						<labels>
							<label2>Forest</label2>
						</labels>
					</clipitem>
					<clipitem id="clipitem-1961" premiereChannelType="stereo">
						<masterclipid>masterclip-696</masterclipid>
						<name>JONY, HAMMALI_НАВЕРНО, ТЫ МЕНЯ НЕ ПОМНИШЬ___MSWCLP004853.mov</name>
						<enabled>TRUE</enabled>
						<duration>9308</duration>
						<rate>
							<timebase>25</timebase>
							<ntsc>FALSE</ntsc>
						</rate>
						<start>884</start>
						<end>5215</end>
						<in>323</in>
						<out>4654</out>
						<pproTicksIn>3281886720000</pproTicksIn>
						<pproTicksOut>47287618560000</pproTicksOut>
						<file id="file-575"/>
						<sourcetrack>
							<mediatype>audio</mediatype>
							<trackindex>2</trackindex>
						</sourcetrack>
						<filter>
							<effect>
								<name>Audio Levels</name>
								<effectid>audiolevels</effectid>
								<effectcategory>audiolevels</effectcategory>
								<effecttype>audiolevels</effecttype>
								<mediatype>audio</mediatype>
								<pproBypass>false</pproBypass>
								<parameter authoringApp="PremierePro">
									<parameterid>level</parameterid>
									<name>Level</name>
									<valuemin>0</valuemin>
									<valuemax>3.98109</valuemax>
									<value>1</value>
									<keyframe>
										<when>331</when>
										<value>0</value>
									</keyframe>
									<keyframe>
										<when>349</when>
										<value>1</value>
									</keyframe>
								</parameter>
							</effect>
						</filter>
						<link>
							<linkclipref>clipitem-1670</linkclipref>
							<mediatype>video</mediatype>
							<trackindex>1</trackindex>
							<clipindex>4</clipindex>
						</link>
						<link>
							<linkclipref>clipitem-1923</linkclipref>
							<mediatype>audio</mediatype>
							<trackindex>1</trackindex>
							<clipindex>3</clipindex>
							<groupindex>1</groupindex>
						</link>
						<link>
							<linkclipref>clipitem-1961</linkclipref>
							<mediatype>audio</mediatype>
							<trackindex>2</trackindex>
							<clipindex>3</clipindex>
							<groupindex>1</groupindex>
						</link>
						<logginginfo>
							<description></description>
							<scene></scene>
							<shottake></shottake>
							<lognote></lognote>
							<good></good>
							<originalvideofilename></originalvideofilename>
							<originalaudiofilename></originalaudiofilename>
						</logginginfo>
						<colorinfo>
							<lut></lut>
							<lut1></lut1>
							<asc_sop></asc_sop>
							<asc_sat></asc_sat>
							<lut2></lut2>
						</colorinfo>
						<labels>
							<label2>Iris</label2>
						</labels>
					</clipitem>
					<clipitem id="clipitem-1962" premiereChannelType="stereo">
						<masterclipid>masterclip-697</masterclipid>
						<name>MYZ_RusskiyChart_OtbivkaMini_h264_v2.mp4</name>
						<enabled>TRUE</enabled>
						<duration>74</duration>
						<rate>
							<timebase>25</timebase>
							<ntsc>FALSE</ntsc>
						</rate>
						<start>5215</start>
						<end>5275</end>
						<in>0</in>
						<out>60</out>
						<pproTicksIn>0</pproTicksIn>
						<pproTicksOut>609638400000</pproTicksOut>
						<file id="file-576"/>
						<sourcetrack>
							<mediatype>audio</mediatype>
							<trackindex>2</trackindex>
						</sourcetrack>
						<filter>
							<effect>
								<name>Audio Levels</name>
								<effectid>audiolevels</effectid>
								<effectcategory>audiolevels</effectcategory>
								<effecttype>audiolevels</effecttype>
								<mediatype>audio</mediatype>
								<pproBypass>false</pproBypass>
								<parameter authoringApp="PremierePro">
									<parameterid>level</parameterid>
									<name>Level</name>
									<valuemin>0</valuemin>
									<valuemax>3.98109</valuemax>
									<value>0.258297</value>
									<keyframe>
										<when>60</when>
										<value>0.251189</value>
									</keyframe>
									<keyframe>
										<when>70</when>
										<value>0.258297</value>
									</keyframe>
								</parameter>
							</effect>
						</filter>
						<link>
							<linkclipref>clipitem-1671</linkclipref>
							<mediatype>video</mediatype>
							<trackindex>1</trackindex>
							<clipindex>5</clipindex>
						</link>
						<link>
							<linkclipref>clipitem-1924</linkclipref>
							<mediatype>audio</mediatype>
							<trackindex>1</trackindex>
							<clipindex>4</clipindex>
							<groupindex>1</groupindex>
						</link>
						<link>
							<linkclipref>clipitem-1962</linkclipref>
							<mediatype>audio</mediatype>
							<trackindex>2</trackindex>
							<clipindex>4</clipindex>
							<groupindex>1</groupindex>
						</link>
						<logginginfo>
							<description></description>
							<scene></scene>
							<shottake></shottake>
							<lognote></lognote>
							<good></good>
							<originalvideofilename></originalvideofilename>
							<originalaudiofilename></originalaudiofilename>
						</logginginfo>
						<colorinfo>
							<lut></lut>
							<lut1></lut1>
							<asc_sop></asc_sop>
							<asc_sat></asc_sat>
							<lut2></lut2>
						</colorinfo>
						<labels>
							<label2>Purple</label2>
						</labels>
					</clipitem>
					<clipitem id="clipitem-1963" premiereChannelType="stereo">
						<masterclipid>masterclip-693</masterclipid>
						<name>Nested Sequence_468</name>
						<enabled>TRUE</enabled>
						<duration>8812</duration>
						<rate>
							<timebase>25</timebase>
							<ntsc>FALSE</ntsc>
						</rate>
						<start>5275</start>
						<end>5698</end>
						<in>579</in>
						<out>1002</out>
						<pproTicksIn>5883010560000</pproTicksIn>
						<pproTicksOut>10180961280000</pproTicksOut>
						<sequence id="sequence-131"/>
						<sourcetrack>
							<mediatype>audio</mediatype>
							<trackindex>1</trackindex>
						</sourcetrack>
						<filter>
							<effect>
								<name>Audio Levels</name>
								<effectid>audiolevels</effectid>
								<effectcategory>audiolevels</effectcategory>
								<effecttype>audiolevels</effecttype>
								<mediatype>audio</mediatype>
								<pproBypass>false</pproBypass>
								<parameter authoringApp="PremierePro">
									<parameterid>level</parameterid>
									<name>Level</name>
									<valuemin>0</valuemin>
									<valuemax>3.98109</valuemax>
									<value>1</value>
									<keyframe>
										<when>26</when>
										<value>0</value>
									</keyframe>
									<keyframe>
										<when>27</when>
										<value>0</value>
									</keyframe>
									<keyframe>
										<when>584</when>
										<value>0</value>
									</keyframe>
									<keyframe>
										<when>586</when>
										<value>1</value>
									</keyframe>
								</parameter>
							</effect>
						</filter>
						<link>
							<linkclipref>clipitem-1672</linkclipref>
							<mediatype>video</mediatype>
							<trackindex>1</trackindex>
							<clipindex>6</clipindex>
						</link>
						<link>
							<linkclipref>clipitem-1925</linkclipref>
							<mediatype>audio</mediatype>
							<trackindex>1</trackindex>
							<clipindex>5</clipindex>
							<groupindex>1</groupindex>
						</link>
						<link>
							<linkclipref>clipitem-1963</linkclipref>
							<mediatype>audio</mediatype>
							<trackindex>2</trackindex>
							<clipindex>5</clipindex>
							<groupindex>1</groupindex>
						</link>
						<labels>
							<label2>Forest</label2>
						</labels>
					</clipitem>
					<clipitem id="clipitem-1964" premiereChannelType="stereo">
						<masterclipid>masterclip-699</masterclipid>
						<name>ХАННА, МИША МАРВИН_УБЬЮ ТЕБЯ___MSWCLP004826.mov</name>
						<enabled>TRUE</enabled>
						<duration>10186</duration>
						<rate>
							<timebase>25</timebase>
							<ntsc>FALSE</ntsc>
						</rate>
						<start>5773</start>
						<end>10416</end>
						<in>450</in>
						<out>5093</out>
						<pproTicksIn>4572288000000</pproTicksIn>
						<pproTicksOut>51748139520000</pproTicksOut>
						<file id="file-578"/>
						<sourcetrack>
							<mediatype>audio</mediatype>
							<trackindex>2</trackindex>
						</sourcetrack>
						<filter>
							<effect>
								<name>Audio Levels</name>
								<effectid>audiolevels</effectid>
								<effectcategory>audiolevels</effectcategory>
								<effecttype>audiolevels</effecttype>
								<mediatype>audio</mediatype>
								<pproBypass>false</pproBypass>
								<parameter authoringApp="PremierePro">
									<parameterid>level</parameterid>
									<name>Level</name>
									<valuemin>0</valuemin>
									<valuemax>3.98109</valuemax>
									<value>1</value>
									<keyframe>
										<when>461</when>
										<value>0</value>
									</keyframe>
									<keyframe>
										<when>468</when>
										<value>1</value>
									</keyframe>
								</parameter>
							</effect>
						</filter>
						<link>
							<linkclipref>clipitem-1674</linkclipref>
							<mediatype>video</mediatype>
							<trackindex>1</trackindex>
							<clipindex>8</clipindex>
						</link>
						<link>
							<linkclipref>clipitem-1926</linkclipref>
							<mediatype>audio</mediatype>
							<trackindex>1</trackindex>
							<clipindex>6</clipindex>
							<groupindex>1</groupindex>
						</link>
						<link>
							<linkclipref>clipitem-1964</linkclipref>
							<mediatype>audio</mediatype>
							<trackindex>2</trackindex>
							<clipindex>6</clipindex>
							<groupindex>1</groupindex>
						</link>
						<logginginfo>
							<description></description>
							<scene></scene>
							<shottake></shottake>
							<lognote></lognote>
							<good></good>
							<originalvideofilename></originalvideofilename>
							<originalaudiofilename></originalaudiofilename>
						</logginginfo>
						<colorinfo>
							<lut></lut>
							<lut1></lut1>
							<asc_sop></asc_sop>
							<asc_sat></asc_sat>
							<lut2></lut2>
						</colorinfo>
						<labels>
							<label2>Iris</label2>
						</labels>
					</clipitem>
					<clipitem id="clipitem-1965" premiereChannelType="stereo">
						<masterclipid>masterclip-697</masterclipid>
						<name>MYZ_RusskiyChart_OtbivkaMini_h264_v2.mp4</name>
						<enabled>TRUE</enabled>
						<duration>74</duration>
						<rate>
							<timebase>25</timebase>
							<ntsc>FALSE</ntsc>
						</rate>
						<start>10416</start>
						<end>10476</end>
						<in>0</in>
						<out>60</out>
						<pproTicksIn>0</pproTicksIn>
						<pproTicksOut>609638400000</pproTicksOut>
						<file id="file-576"/>
						<sourcetrack>
							<mediatype>audio</mediatype>
							<trackindex>2</trackindex>
						</sourcetrack>
						<filter>
							<effect>
								<name>Audio Levels</name>
								<effectid>audiolevels</effectid>
								<effectcategory>audiolevels</effectcategory>
								<effecttype>audiolevels</effecttype>
								<mediatype>audio</mediatype>
								<pproBypass>false</pproBypass>
								<parameter authoringApp="PremierePro">
									<parameterid>level</parameterid>
									<name>Level</name>
									<valuemin>0</valuemin>
									<valuemax>3.98109</valuemax>
									<value>0.251189</value>
									<keyframe>
										<when>60</when>
										<value>0.251189</value>
									</keyframe>
									<keyframe>
										<when>70</when>
										<value>0.258297</value>
									</keyframe>
								</parameter>
							</effect>
						</filter>
						<link>
							<linkclipref>clipitem-1675</linkclipref>
							<mediatype>video</mediatype>
							<trackindex>1</trackindex>
							<clipindex>9</clipindex>
						</link>
						<link>
							<linkclipref>clipitem-1927</linkclipref>
							<mediatype>audio</mediatype>
							<trackindex>1</trackindex>
							<clipindex>7</clipindex>
							<groupindex>1</groupindex>
						</link>
						<link>
							<linkclipref>clipitem-1965</linkclipref>
							<mediatype>audio</mediatype>
							<trackindex>2</trackindex>
							<clipindex>7</clipindex>
							<groupindex>1</groupindex>
						</link>
						<logginginfo>
							<description></description>
							<scene></scene>
							<shottake></shottake>
							<lognote></lognote>
							<good></good>
							<originalvideofilename></originalvideofilename>
							<originalaudiofilename></originalaudiofilename>
						</logginginfo>
						<colorinfo>
							<lut></lut>
							<lut1></lut1>
							<asc_sop></asc_sop>
							<asc_sat></asc_sat>
							<lut2></lut2>
						</colorinfo>
						<labels>
							<label2>Purple</label2>
						</labels>
					</clipitem>
					<clipitem id="clipitem-1966" premiereChannelType="stereo">
						<masterclipid>masterclip-693</masterclipid>
						<name>Nested Sequence_468</name>
						<enabled>TRUE</enabled>
						<duration>8812</duration>
						<rate>
							<timebase>25</timebase>
							<ntsc>FALSE</ntsc>
						</rate>
						<start>10476</start>
						<end>10974</end>
						<in>1037</in>
						<out>1535</out>
						<pproTicksIn>10536583680000</pproTicksIn>
						<pproTicksOut>15596582400000</pproTicksOut>
						<sequence id="sequence-131"/>
						<sourcetrack>
							<mediatype>audio</mediatype>
							<trackindex>1</trackindex>
						</sourcetrack>
						<filter>
							<effect>
								<name>Audio Levels</name>
								<effectid>audiolevels</effectid>
								<effectcategory>audiolevels</effectcategory>
								<effecttype>audiolevels</effecttype>
								<mediatype>audio</mediatype>
								<pproBypass>false</pproBypass>
								<parameter authoringApp="PremierePro">
									<parameterid>level</parameterid>
									<name>Level</name>
									<valuemin>0</valuemin>
									<valuemax>3.98109</valuemax>
									<value>0</value>
									<keyframe>
										<when>26</when>
										<value>0</value>
									</keyframe>
									<keyframe>
										<when>27</when>
										<value>0</value>
									</keyframe>
									<keyframe>
										<when>584</when>
										<value>0</value>
									</keyframe>
									<keyframe>
										<when>586</when>
										<value>0</value>
									</keyframe>
									<keyframe>
										<when>1042</when>
										<value>0</value>
									</keyframe>
									<keyframe>
										<when>1045</when>
										<value>1</value>
									</keyframe>
								</parameter>
							</effect>
						</filter>
						<link>
							<linkclipref>clipitem-1676</linkclipref>
							<mediatype>video</mediatype>
							<trackindex>1</trackindex>
							<clipindex>10</clipindex>
						</link>
						<link>
							<linkclipref>clipitem-1928</linkclipref>
							<mediatype>audio</mediatype>
							<trackindex>1</trackindex>
							<clipindex>8</clipindex>
							<groupindex>1</groupindex>
						</link>
						<link>
							<linkclipref>clipitem-1966</linkclipref>
							<mediatype>audio</mediatype>
							<trackindex>2</trackindex>
							<clipindex>8</clipindex>
							<groupindex>1</groupindex>
						</link>
						<labels>
							<label2>Forest</label2>
						</labels>
					</clipitem>
					<clipitem id="clipitem-1967" premiereChannelType="stereo">
						<masterclipid>masterclip-701</masterclipid>
						<name>КЛАВА КОКА_ЛА ЛА ЛА___MSWCLP004762.mov</name>
						<enabled>TRUE</enabled>
						<duration>8198</duration>
						<rate>
							<timebase>25</timebase>
							<ntsc>FALSE</ntsc>
						</rate>
						<start>11049</start>
						<end>15046</end>
						<in>102</in>
						<out>4099</out>
						<pproTicksIn>1036385280000</pproTicksIn>
						<pproTicksOut>41648463360000</pproTicksOut>
						<file id="file-580"/>
						<sourcetrack>
							<mediatype>audio</mediatype>
							<trackindex>2</trackindex>
						</sourcetrack>
						<filter>
							<effect>
								<name>Audio Levels</name>
								<effectid>audiolevels</effectid>
								<effectcategory>audiolevels</effectcategory>
								<effecttype>audiolevels</effecttype>
								<mediatype>audio</mediatype>
								<pproBypass>false</pproBypass>
								<parameter authoringApp="PremierePro">
									<parameterid>level</parameterid>
									<name>Level</name>
									<valuemin>0</valuemin>
									<valuemax>3.98109</valuemax>
									<value>0</value>
									<keyframe>
										<when>2</when>
										<value>0.618238</value>
									</keyframe>
									<keyframe>
										<when>26</when>
										<value>1</value>
									</keyframe>
									<keyframe>
										<when>102</when>
										<value>0</value>
									</keyframe>
									<keyframe>
										<when>122</when>
										<value>1</value>
									</keyframe>
								</parameter>
							</effect>
						</filter>
						<link>
							<linkclipref>clipitem-1678</linkclipref>
							<mediatype>video</mediatype>
							<trackindex>1</trackindex>
							<clipindex>12</clipindex>
						</link>
						<link>
							<linkclipref>clipitem-1929</linkclipref>
							<mediatype>audio</mediatype>
							<trackindex>1</trackindex>
							<clipindex>9</clipindex>
							<groupindex>1</groupindex>
						</link>
						<link>
							<linkclipref>clipitem-1967</linkclipref>
							<mediatype>audio</mediatype>
							<trackindex>2</trackindex>
							<clipindex>9</clipindex>
							<groupindex>1</groupindex>
						</link>
						<logginginfo>
							<description></description>
							<scene></scene>
							<shottake></shottake>
							<lognote></lognote>
							<good></good>
							<originalvideofilename></originalvideofilename>
							<originalaudiofilename></originalaudiofilename>
						</logginginfo>
						<colorinfo>
							<lut></lut>
							<lut1></lut1>
							<asc_sop></asc_sop>
							<asc_sat></asc_sat>
							<lut2></lut2>
						</colorinfo>
						<labels>
							<label2>Iris</label2>
						</labels>
					</clipitem>
					<clipitem id="clipitem-1968" premiereChannelType="stereo">
						<masterclipid>masterclip-697</masterclipid>
						<name>MYZ_RusskiyChart_OtbivkaMini_h264_v2.mp4</name>
						<enabled>TRUE</enabled>
						<duration>74</duration>
						<rate>
							<timebase>25</timebase>
							<ntsc>FALSE</ntsc>
						</rate>
						<start>15046</start>
						<end>15106</end>
						<in>0</in>
						<out>60</out>
						<pproTicksIn>0</pproTicksIn>
						<pproTicksOut>609638400000</pproTicksOut>
						<file id="file-576"/>
						<sourcetrack>
							<mediatype>audio</mediatype>
							<trackindex>2</trackindex>
						</sourcetrack>
						<filter>
							<effect>
								<name>Audio Levels</name>
								<effectid>audiolevels</effectid>
								<effectcategory>audiolevels</effectcategory>
								<effecttype>audiolevels</effecttype>
								<mediatype>audio</mediatype>
								<pproBypass>false</pproBypass>
								<parameter authoringApp="PremierePro">
									<parameterid>level</parameterid>
									<name>Level</name>
									<valuemin>0</valuemin>
									<valuemax>3.98109</valuemax>
									<value>0.251189</value>
									<keyframe>
										<when>60</when>
										<value>0.251189</value>
									</keyframe>
									<keyframe>
										<when>70</when>
										<value>0.258297</value>
									</keyframe>
								</parameter>
							</effect>
						</filter>
						<link>
							<linkclipref>clipitem-1679</linkclipref>
							<mediatype>video</mediatype>
							<trackindex>1</trackindex>
							<clipindex>13</clipindex>
						</link>
						<link>
							<linkclipref>clipitem-1930</linkclipref>
							<mediatype>audio</mediatype>
							<trackindex>1</trackindex>
							<clipindex>10</clipindex>
							<groupindex>1</groupindex>
						</link>
						<link>
							<linkclipref>clipitem-1968</linkclipref>
							<mediatype>audio</mediatype>
							<trackindex>2</trackindex>
							<clipindex>10</clipindex>
							<groupindex>1</groupindex>
						</link>
						<logginginfo>
							<description></description>
							<scene></scene>
							<shottake></shottake>
							<lognote></lognote>
							<good></good>
							<originalvideofilename></originalvideofilename>
							<originalaudiofilename></originalaudiofilename>
						</logginginfo>
						<colorinfo>
							<lut></lut>
							<lut1></lut1>
							<asc_sop></asc_sop>
							<asc_sat></asc_sat>
							<lut2></lut2>
						</colorinfo>
						<labels>
							<label2>Purple</label2>
						</labels>
					</clipitem>
					<clipitem id="clipitem-1969" premiereChannelType="stereo">
						<masterclipid>masterclip-693</masterclipid>
						<name>Nested Sequence_468</name>
						<enabled>TRUE</enabled>
						<duration>8812</duration>
						<rate>
							<timebase>25</timebase>
							<ntsc>FALSE</ntsc>
						</rate>
						<start>15106</start>
						<end>15652</end>
						<in>1584</in>
						<out>2130</out>
						<pproTicksIn>16094453760000</pproTicksIn>
						<pproTicksOut>21642163200000</pproTicksOut>
						<sequence id="sequence-131"/>
						<sourcetrack>
							<mediatype>audio</mediatype>
							<trackindex>1</trackindex>
						</sourcetrack>
						<filter>
							<effect>
								<name>Audio Levels</name>
								<effectid>audiolevels</effectid>
								<effectcategory>audiolevels</effectcategory>
								<effecttype>audiolevels</effecttype>
								<mediatype>audio</mediatype>
								<pproBypass>false</pproBypass>
								<parameter authoringApp="PremierePro">
									<parameterid>level</parameterid>
									<name>Level</name>
									<valuemin>0</valuemin>
									<valuemax>3.98109</valuemax>
									<value>3.97328e-05</value>
									<keyframe>
										<when>26</when>
										<value>0</value>
									</keyframe>
									<keyframe>
										<when>27</when>
										<value>0</value>
									</keyframe>
									<keyframe>
										<when>584</when>
										<value>0</value>
									</keyframe>
									<keyframe>
										<when>586</when>
										<value>0</value>
									</keyframe>
									<keyframe>
										<when>1042</when>
										<value>0</value>
									</keyframe>
									<keyframe>
										<when>1045</when>
										<value>1</value>
									</keyframe>
									<keyframe>
										<when>1589</when>
										<value>0</value>
									</keyframe>
									<keyframe>
										<when>1591</when>
										<value>1</value>
									</keyframe>
								</parameter>
							</effect>
						</filter>
						<link>
							<linkclipref>clipitem-1680</linkclipref>
							<mediatype>video</mediatype>
							<trackindex>1</trackindex>
							<clipindex>14</clipindex>
						</link>
						<link>
							<linkclipref>clipitem-1931</linkclipref>
							<mediatype>audio</mediatype>
							<trackindex>1</trackindex>
							<clipindex>11</clipindex>
							<groupindex>1</groupindex>
						</link>
						<link>
							<linkclipref>clipitem-1969</linkclipref>
							<mediatype>audio</mediatype>
							<trackindex>2</trackindex>
							<clipindex>11</clipindex>
							<groupindex>1</groupindex>
						</link>
						<labels>
							<label2>Forest</label2>
						</labels>
					</clipitem>
					<clipitem id="clipitem-1970" premiereChannelType="stereo">
						<masterclipid>masterclip-703</masterclipid>
						<name>DABRO_УСЛЫШИТ ВЕСЬ РАЙОН___MSWCLP004759.mov</name>
						<enabled>TRUE</enabled>
						<duration>9620</duration>
						<rate>
							<timebase>25</timebase>
							<ntsc>FALSE</ntsc>
						</rate>
						<start>15727</start>
						<end>20537</end>
						<in>0</in>
						<out>4810</out>
						<pproTicksIn>0</pproTicksIn>
						<pproTicksOut>48872678400000</pproTicksOut>
						<file id="file-582"/>
						<sourcetrack>
							<mediatype>audio</mediatype>
							<trackindex>2</trackindex>
						</sourcetrack>
						<filter>
							<effect>
								<name>Audio Levels</name>
								<effectid>audiolevels</effectid>
								<effectcategory>audiolevels</effectcategory>
								<effecttype>audiolevels</effecttype>
								<mediatype>audio</mediatype>
								<pproBypass>false</pproBypass>
								<parameter authoringApp="PremierePro">
									<parameterid>level</parameterid>
									<name>Level</name>
									<valuemin>0</valuemin>
									<valuemax>3.98109</valuemax>
									<value>1</value>
									<keyframe>
										<when>4796</when>
										<value>1</value>
									</keyframe>
									<keyframe>
										<when>4808</when>
										<value>0.371266</value>
									</keyframe>
								</parameter>
							</effect>
						</filter>
						<link>
							<linkclipref>clipitem-1682</linkclipref>
							<mediatype>video</mediatype>
							<trackindex>1</trackindex>
							<clipindex>16</clipindex>
						</link>
						<link>
							<linkclipref>clipitem-1932</linkclipref>
							<mediatype>audio</mediatype>
							<trackindex>1</trackindex>
							<clipindex>12</clipindex>
							<groupindex>1</groupindex>
						</link>
						<link>
							<linkclipref>clipitem-1970</linkclipref>
							<mediatype>audio</mediatype>
							<trackindex>2</trackindex>
							<clipindex>12</clipindex>
							<groupindex>1</groupindex>
						</link>
						<logginginfo>
							<description></description>
							<scene></scene>
							<shottake></shottake>
							<lognote></lognote>
							<good></good>
							<originalvideofilename></originalvideofilename>
							<originalaudiofilename></originalaudiofilename>
						</logginginfo>
						<colorinfo>
							<lut></lut>
							<lut1></lut1>
							<asc_sop></asc_sop>
							<asc_sat></asc_sat>
							<lut2></lut2>
						</colorinfo>
						<labels>
							<label2>Iris</label2>
						</labels>
					</clipitem>
					<clipitem id="clipitem-1971" premiereChannelType="stereo">
						<masterclipid>masterclip-697</masterclipid>
						<name>MYZ_RusskiyChart_OtbivkaMini_h264_v2.mp4</name>
						<enabled>TRUE</enabled>
						<duration>74</duration>
						<rate>
							<timebase>25</timebase>
							<ntsc>FALSE</ntsc>
						</rate>
						<start>20537</start>
						<end>20597</end>
						<in>0</in>
						<out>60</out>
						<pproTicksIn>0</pproTicksIn>
						<pproTicksOut>609638400000</pproTicksOut>
						<file id="file-576"/>
						<sourcetrack>
							<mediatype>audio</mediatype>
							<trackindex>2</trackindex>
						</sourcetrack>
						<filter>
							<effect>
								<name>Audio Levels</name>
								<effectid>audiolevels</effectid>
								<effectcategory>audiolevels</effectcategory>
								<effecttype>audiolevels</effecttype>
								<mediatype>audio</mediatype>
								<pproBypass>false</pproBypass>
								<parameter authoringApp="PremierePro">
									<parameterid>level</parameterid>
									<name>Level</name>
									<valuemin>0</valuemin>
									<valuemax>3.98109</valuemax>
									<value>0.251189</value>
									<keyframe>
										<when>60</when>
										<value>0.251189</value>
									</keyframe>
									<keyframe>
										<when>70</when>
										<value>0.258297</value>
									</keyframe>
								</parameter>
							</effect>
						</filter>
						<link>
							<linkclipref>clipitem-1683</linkclipref>
							<mediatype>video</mediatype>
							<trackindex>1</trackindex>
							<clipindex>17</clipindex>
						</link>
						<link>
							<linkclipref>clipitem-1933</linkclipref>
							<mediatype>audio</mediatype>
							<trackindex>1</trackindex>
							<clipindex>13</clipindex>
							<groupindex>1</groupindex>
						</link>
						<link>
							<linkclipref>clipitem-1971</linkclipref>
							<mediatype>audio</mediatype>
							<trackindex>2</trackindex>
							<clipindex>13</clipindex>
							<groupindex>1</groupindex>
						</link>
						<logginginfo>
							<description></description>
							<scene></scene>
							<shottake></shottake>
							<lognote></lognote>
							<good></good>
							<originalvideofilename></originalvideofilename>
							<originalaudiofilename></originalaudiofilename>
						</logginginfo>
						<colorinfo>
							<lut></lut>
							<lut1></lut1>
							<asc_sop></asc_sop>
							<asc_sat></asc_sat>
							<lut2></lut2>
						</colorinfo>
						<labels>
							<label2>Purple</label2>
						</labels>
					</clipitem>
					<clipitem id="clipitem-1972" premiereChannelType="stereo">
						<masterclipid>masterclip-693</masterclipid>
						<name>Nested Sequence_468</name>
						<enabled>TRUE</enabled>
						<duration>8812</duration>
						<rate>
							<timebase>25</timebase>
							<ntsc>FALSE</ntsc>
						</rate>
						<start>20597</start>
						<end>21263</end>
						<in>2190</in>
						<out>2856</out>
						<pproTicksIn>22251801600000</pproTicksIn>
						<pproTicksOut>29018787840000</pproTicksOut>
						<sequence id="sequence-131"/>
						<sourcetrack>
							<mediatype>audio</mediatype>
							<trackindex>1</trackindex>
						</sourcetrack>
						<filter>
							<effect>
								<name>Audio Levels</name>
								<effectid>audiolevels</effectid>
								<effectcategory>audiolevels</effectcategory>
								<effecttype>audiolevels</effecttype>
								<mediatype>audio</mediatype>
								<pproBypass>false</pproBypass>
								<parameter authoringApp="PremierePro">
									<parameterid>level</parameterid>
									<name>Level</name>
									<valuemin>0</valuemin>
									<valuemax>3.98109</valuemax>
									<value>0</value>
									<keyframe>
										<when>26</when>
										<value>0</value>
									</keyframe>
									<keyframe>
										<when>27</when>
										<value>0</value>
									</keyframe>
									<keyframe>
										<when>584</when>
										<value>0</value>
									</keyframe>
									<keyframe>
										<when>586</when>
										<value>0</value>
									</keyframe>
									<keyframe>
										<when>1042</when>
										<value>0</value>
									</keyframe>
									<keyframe>
										<when>1045</when>
										<value>1</value>
									</keyframe>
									<keyframe>
										<when>1589</when>
										<value>0</value>
									</keyframe>
									<keyframe>
										<when>1591</when>
										<value>0</value>
									</keyframe>
									<keyframe>
										<when>2195</when>
										<value>0</value>
									</keyframe>
									<keyframe>
										<when>2196</when>
										<value>1</value>
									</keyframe>
								</parameter>
							</effect>
						</filter>
						<link>
							<linkclipref>clipitem-1684</linkclipref>
							<mediatype>video</mediatype>
							<trackindex>1</trackindex>
							<clipindex>18</clipindex>
						</link>
						<link>
							<linkclipref>clipitem-1934</linkclipref>
							<mediatype>audio</mediatype>
							<trackindex>1</trackindex>
							<clipindex>14</clipindex>
							<groupindex>1</groupindex>
						</link>
						<link>
							<linkclipref>clipitem-1972</linkclipref>
							<mediatype>audio</mediatype>
							<trackindex>2</trackindex>
							<clipindex>14</clipindex>
							<groupindex>1</groupindex>
						</link>
						<labels>
							<label2>Forest</label2>
						</labels>
					</clipitem>
					<clipitem id="clipitem-1973" premiereChannelType="stereo">
						<masterclipid>masterclip-705</masterclipid>
						<name>LOBODA_AMERICANO___MSWCLP004785.mov</name>
						<enabled>TRUE</enabled>
						<duration>11430</duration>
						<rate>
							<timebase>25</timebase>
							<ntsc>FALSE</ntsc>
						</rate>
						<start>21311</start>
						<end>26578</end>
						<in>448</in>
						<out>5715</out>
						<pproTicksIn>4551966720000</pproTicksIn>
						<pproTicksOut>58068057600000</pproTicksOut>
						<file id="file-584"/>
						<sourcetrack>
							<mediatype>audio</mediatype>
							<trackindex>2</trackindex>
						</sourcetrack>
						<filter>
							<effect>
								<name>Audio Levels</name>
								<effectid>audiolevels</effectid>
								<effectcategory>audiolevels</effectcategory>
								<effecttype>audiolevels</effecttype>
								<mediatype>audio</mediatype>
								<pproBypass>false</pproBypass>
								<parameter authoringApp="PremierePro">
									<parameterid>level</parameterid>
									<name>Level</name>
									<valuemin>0</valuemin>
									<valuemax>3.98109</valuemax>
									<value>0</value>
									<keyframe>
										<when>217</when>
										<value>0.0040588</value>
									</keyframe>
									<keyframe>
										<when>262</when>
										<value>0</value>
									</keyframe>
									<keyframe>
										<when>470</when>
										<value>0</value>
									</keyframe>
									<keyframe>
										<when>473</when>
										<value>1</value>
									</keyframe>
									<keyframe>
										<when>481</when>
										<value>1</value>
									</keyframe>
								</parameter>
							</effect>
						</filter>
						<link>
							<linkclipref>clipitem-1686</linkclipref>
							<mediatype>video</mediatype>
							<trackindex>1</trackindex>
							<clipindex>20</clipindex>
						</link>
						<link>
							<linkclipref>clipitem-1935</linkclipref>
							<mediatype>audio</mediatype>
							<trackindex>1</trackindex>
							<clipindex>15</clipindex>
							<groupindex>1</groupindex>
						</link>
						<link>
							<linkclipref>clipitem-1973</linkclipref>
							<mediatype>audio</mediatype>
							<trackindex>2</trackindex>
							<clipindex>15</clipindex>
							<groupindex>1</groupindex>
						</link>
						<logginginfo>
							<description></description>
							<scene></scene>
							<shottake></shottake>
							<lognote></lognote>
							<good></good>
							<originalvideofilename></originalvideofilename>
							<originalaudiofilename></originalaudiofilename>
						</logginginfo>
						<colorinfo>
							<lut></lut>
							<lut1></lut1>
							<asc_sop></asc_sop>
							<asc_sat></asc_sat>
							<lut2></lut2>
						</colorinfo>
						<labels>
							<label2>Iris</label2>
						</labels>
					</clipitem>
					<clipitem id="clipitem-1974" premiereChannelType="stereo">
						<masterclipid>masterclip-697</masterclipid>
						<name>MYZ_RusskiyChart_OtbivkaMini_h264_v2.mp4</name>
						<enabled>TRUE</enabled>
						<duration>74</duration>
						<rate>
							<timebase>25</timebase>
							<ntsc>FALSE</ntsc>
						</rate>
						<start>26578</start>
						<end>26638</end>
						<in>0</in>
						<out>60</out>
						<pproTicksIn>0</pproTicksIn>
						<pproTicksOut>609638400000</pproTicksOut>
						<file id="file-576"/>
						<sourcetrack>
							<mediatype>audio</mediatype>
							<trackindex>2</trackindex>
						</sourcetrack>
						<filter>
							<effect>
								<name>Audio Levels</name>
								<effectid>audiolevels</effectid>
								<effectcategory>audiolevels</effectcategory>
								<effecttype>audiolevels</effecttype>
								<mediatype>audio</mediatype>
								<pproBypass>false</pproBypass>
								<parameter authoringApp="PremierePro">
									<parameterid>level</parameterid>
									<name>Level</name>
									<valuemin>0</valuemin>
									<valuemax>3.98109</valuemax>
									<value>0.251189</value>
									<keyframe>
										<when>60</when>
										<value>0.251189</value>
									</keyframe>
									<keyframe>
										<when>70</when>
										<value>0.258297</value>
									</keyframe>
								</parameter>
							</effect>
						</filter>
						<link>
							<linkclipref>clipitem-1687</linkclipref>
							<mediatype>video</mediatype>
							<trackindex>1</trackindex>
							<clipindex>21</clipindex>
						</link>
						<link>
							<linkclipref>clipitem-1936</linkclipref>
							<mediatype>audio</mediatype>
							<trackindex>1</trackindex>
							<clipindex>16</clipindex>
							<groupindex>1</groupindex>
						</link>
						<link>
							<linkclipref>clipitem-1974</linkclipref>
							<mediatype>audio</mediatype>
							<trackindex>2</trackindex>
							<clipindex>16</clipindex>
							<groupindex>1</groupindex>
						</link>
						<logginginfo>
							<description></description>
							<scene></scene>
							<shottake></shottake>
							<lognote></lognote>
							<good></good>
							<originalvideofilename></originalvideofilename>
							<originalaudiofilename></originalaudiofilename>
						</logginginfo>
						<colorinfo>
							<lut></lut>
							<lut1></lut1>
							<asc_sop></asc_sop>
							<asc_sat></asc_sat>
							<lut2></lut2>
						</colorinfo>
						<labels>
							<label2>Purple</label2>
						</labels>
					</clipitem>
					<clipitem id="clipitem-1975" premiereChannelType="stereo">
						<masterclipid>masterclip-693</masterclipid>
						<name>Nested Sequence_468</name>
						<enabled>TRUE</enabled>
						<duration>8812</duration>
						<rate>
							<timebase>25</timebase>
							<ntsc>FALSE</ntsc>
						</rate>
						<start>26638</start>
						<end>27344</end>
						<in>2908</in>
						<out>3614</out>
						<pproTicksIn>29547141120000</pproTicksIn>
						<pproTicksOut>36720552960000</pproTicksOut>
						<sequence id="sequence-131"/>
						<sourcetrack>
							<mediatype>audio</mediatype>
							<trackindex>1</trackindex>
						</sourcetrack>
						<filter>
							<effect>
								<name>Audio Levels</name>
								<effectid>audiolevels</effectid>
								<effectcategory>audiolevels</effectcategory>
								<effecttype>audiolevels</effecttype>
								<mediatype>audio</mediatype>
								<pproBypass>false</pproBypass>
								<parameter authoringApp="PremierePro">
									<parameterid>level</parameterid>
									<name>Level</name>
									<valuemin>0</valuemin>
									<valuemax>3.98109</valuemax>
									<value>0</value>
									<keyframe>
										<when>26</when>
										<value>0</value>
									</keyframe>
									<keyframe>
										<when>27</when>
										<value>0</value>
									</keyframe>
									<keyframe>
										<when>584</when>
										<value>0</value>
									</keyframe>
									<keyframe>
										<when>586</when>
										<value>0</value>
									</keyframe>
									<keyframe>
										<when>1042</when>
										<value>0</value>
									</keyframe>
									<keyframe>
										<when>1045</when>
										<value>1</value>
									</keyframe>
									<keyframe>
										<when>1589</when>
										<value>0</value>
									</keyframe>
									<keyframe>
										<when>1591</when>
										<value>0</value>
									</keyframe>
									<keyframe>
										<when>2195</when>
										<value>0</value>
									</keyframe>
									<keyframe>
										<when>2196</when>
										<value>0</value>
									</keyframe>
									<keyframe>
										<when>2912</when>
										<value>0</value>
									</keyframe>
									<keyframe>
										<when>2914</when>
										<value>1</value>
									</keyframe>
								</parameter>
							</effect>
						</filter>
						<link>
							<linkclipref>clipitem-1688</linkclipref>
							<mediatype>video</mediatype>
							<trackindex>1</trackindex>
							<clipindex>22</clipindex>
						</link>
						<link>
							<linkclipref>clipitem-1937</linkclipref>
							<mediatype>audio</mediatype>
							<trackindex>1</trackindex>
							<clipindex>17</clipindex>
							<groupindex>1</groupindex>
						</link>
						<link>
							<linkclipref>clipitem-1975</linkclipref>
							<mediatype>audio</mediatype>
							<trackindex>2</trackindex>
							<clipindex>17</clipindex>
							<groupindex>1</groupindex>
						</link>
						<labels>
							<label2>Forest</label2>
						</labels>
					</clipitem>
					<clipitem id="clipitem-1976" premiereChannelType="stereo">
						<masterclipid>masterclip-707</masterclipid>
						<name>ВАЛЕРИЙ МЕЛАДЗЕ_ПОЛЮБИЛ___MSWCLP004836.mov</name>
						<enabled>TRUE</enabled>
						<duration>13128</duration>
						<rate>
							<timebase>25</timebase>
							<ntsc>FALSE</ntsc>
						</rate>
						<start>27419</start>
						<end>33978</end>
						<in>0</in>
						<out>6559</out>
						<pproTicksIn>0</pproTicksIn>
						<pproTicksOut>66643637760000</pproTicksOut>
						<file id="file-586"/>
						<sourcetrack>
							<mediatype>audio</mediatype>
							<trackindex>2</trackindex>
						</sourcetrack>
						<filter>
							<effect>
								<name>Audio Levels</name>
								<effectid>audiolevels</effectid>
								<effectcategory>audiolevels</effectcategory>
								<effecttype>audiolevels</effecttype>
								<mediatype>audio</mediatype>
								<pproBypass>false</pproBypass>
								<parameter authoringApp="PremierePro">
									<parameterid>level</parameterid>
									<name>Level</name>
									<valuemin>0</valuemin>
									<valuemax>3.98109</valuemax>
									<value>1</value>
									<keyframe>
										<when>6219</when>
										<value>1</value>
									</keyframe>
									<keyframe>
										<when>6471</when>
										<value>1</value>
									</keyframe>
									<keyframe>
										<when>6534</when>
										<value>1</value>
									</keyframe>
									<keyframe>
										<when>6559</when>
										<value>0.0230063</value>
									</keyframe>
								</parameter>
							</effect>
						</filter>
						<link>
							<linkclipref>clipitem-1690</linkclipref>
							<mediatype>video</mediatype>
							<trackindex>1</trackindex>
							<clipindex>24</clipindex>
						</link>
						<link>
							<linkclipref>clipitem-1938</linkclipref>
							<mediatype>audio</mediatype>
							<trackindex>1</trackindex>
							<clipindex>18</clipindex>
							<groupindex>1</groupindex>
						</link>
						<link>
							<linkclipref>clipitem-1976</linkclipref>
							<mediatype>audio</mediatype>
							<trackindex>2</trackindex>
							<clipindex>18</clipindex>
							<groupindex>1</groupindex>
						</link>
						<logginginfo>
							<description></description>
							<scene></scene>
							<shottake></shottake>
							<lognote></lognote>
							<good></good>
							<originalvideofilename></originalvideofilename>
							<originalaudiofilename></originalaudiofilename>
						</logginginfo>
						<colorinfo>
							<lut></lut>
							<lut1></lut1>
							<asc_sop></asc_sop>
							<asc_sat></asc_sat>
							<lut2></lut2>
						</colorinfo>
						<labels>
							<label2>Iris</label2>
						</labels>
					</clipitem>
					<clipitem id="clipitem-1977" premiereChannelType="stereo">
						<masterclipid>masterclip-697</masterclipid>
						<name>MYZ_RusskiyChart_OtbivkaMini_h264_v2.mp4</name>
						<enabled>TRUE</enabled>
						<duration>74</duration>
						<rate>
							<timebase>25</timebase>
							<ntsc>FALSE</ntsc>
						</rate>
						<start>33978</start>
						<end>34038</end>
						<in>0</in>
						<out>60</out>
						<pproTicksIn>0</pproTicksIn>
						<pproTicksOut>609638400000</pproTicksOut>
						<file id="file-576"/>
						<sourcetrack>
							<mediatype>audio</mediatype>
							<trackindex>2</trackindex>
						</sourcetrack>
						<filter>
							<effect>
								<name>Audio Levels</name>
								<effectid>audiolevels</effectid>
								<effectcategory>audiolevels</effectcategory>
								<effecttype>audiolevels</effecttype>
								<mediatype>audio</mediatype>
								<pproBypass>false</pproBypass>
								<parameter authoringApp="PremierePro">
									<parameterid>level</parameterid>
									<name>Level</name>
									<valuemin>0</valuemin>
									<valuemax>3.98109</valuemax>
									<value>0.251189</value>
									<keyframe>
										<when>60</when>
										<value>0.251189</value>
									</keyframe>
									<keyframe>
										<when>70</when>
										<value>0.258297</value>
									</keyframe>
								</parameter>
							</effect>
						</filter>
						<link>
							<linkclipref>clipitem-1691</linkclipref>
							<mediatype>video</mediatype>
							<trackindex>1</trackindex>
							<clipindex>25</clipindex>
						</link>
						<link>
							<linkclipref>clipitem-1939</linkclipref>
							<mediatype>audio</mediatype>
							<trackindex>1</trackindex>
							<clipindex>19</clipindex>
							<groupindex>1</groupindex>
						</link>
						<link>
							<linkclipref>clipitem-1977</linkclipref>
							<mediatype>audio</mediatype>
							<trackindex>2</trackindex>
							<clipindex>19</clipindex>
							<groupindex>1</groupindex>
						</link>
						<logginginfo>
							<description></description>
							<scene></scene>
							<shottake></shottake>
							<lognote></lognote>
							<good></good>
							<originalvideofilename></originalvideofilename>
							<originalaudiofilename></originalaudiofilename>
						</logginginfo>
						<colorinfo>
							<lut></lut>
							<lut1></lut1>
							<asc_sop></asc_sop>
							<asc_sat></asc_sat>
							<lut2></lut2>
						</colorinfo>
						<labels>
							<label2>Purple</label2>
						</labels>
					</clipitem>
					<clipitem id="clipitem-1978" premiereChannelType="stereo">
						<masterclipid>masterclip-693</masterclipid>
						<name>Nested Sequence_468</name>
						<enabled>TRUE</enabled>
						<duration>8812</duration>
						<rate>
							<timebase>25</timebase>
							<ntsc>FALSE</ntsc>
						</rate>
						<start>34038</start>
						<end>34708</end>
						<in>3681</in>
						<out>4351</out>
						<pproTicksIn>37401315840000</pproTicksIn>
						<pproTicksOut>44208944640000</pproTicksOut>
						<sequence id="sequence-131"/>
						<sourcetrack>
							<mediatype>audio</mediatype>
							<trackindex>1</trackindex>
						</sourcetrack>
						<filter>
							<effect>
								<name>Audio Levels</name>
								<effectid>audiolevels</effectid>
								<effectcategory>audiolevels</effectcategory>
								<effecttype>audiolevels</effecttype>
								<mediatype>audio</mediatype>
								<pproBypass>false</pproBypass>
								<parameter authoringApp="PremierePro">
									<parameterid>level</parameterid>
									<name>Level</name>
									<valuemin>0</valuemin>
									<valuemax>3.98109</valuemax>
									<value>0</value>
									<keyframe>
										<when>26</when>
										<value>0</value>
									</keyframe>
									<keyframe>
										<when>27</when>
										<value>0</value>
									</keyframe>
									<keyframe>
										<when>584</when>
										<value>0</value>
									</keyframe>
									<keyframe>
										<when>586</when>
										<value>0</value>
									</keyframe>
									<keyframe>
										<when>1042</when>
										<value>0</value>
									</keyframe>
									<keyframe>
										<when>1045</when>
										<value>1</value>
									</keyframe>
									<keyframe>
										<when>1589</when>
										<value>0</value>
									</keyframe>
									<keyframe>
										<when>1591</when>
										<value>0</value>
									</keyframe>
									<keyframe>
										<when>2195</when>
										<value>0</value>
									</keyframe>
									<keyframe>
										<when>2196</when>
										<value>0</value>
									</keyframe>
									<keyframe>
										<when>2912</when>
										<value>0</value>
									</keyframe>
									<keyframe>
										<when>2914</when>
										<value>0</value>
									</keyframe>
									<keyframe>
										<when>3684</when>
										<value>0</value>
									</keyframe>
									<keyframe>
										<when>3685</when>
										<value>1</value>
									</keyframe>
								</parameter>
							</effect>
						</filter>
						<link>
							<linkclipref>clipitem-1692</linkclipref>
							<mediatype>video</mediatype>
							<trackindex>1</trackindex>
							<clipindex>26</clipindex>
						</link>
						<link>
							<linkclipref>clipitem-1940</linkclipref>
							<mediatype>audio</mediatype>
							<trackindex>1</trackindex>
							<clipindex>20</clipindex>
							<groupindex>1</groupindex>
						</link>
						<link>
							<linkclipref>clipitem-1978</linkclipref>
							<mediatype>audio</mediatype>
							<trackindex>2</trackindex>
							<clipindex>20</clipindex>
							<groupindex>1</groupindex>
						</link>
						<labels>
							<label2>Forest</label2>
						</labels>
					</clipitem>
					<clipitem id="clipitem-1979" premiereChannelType="stereo">
						<masterclipid>masterclip-709</masterclipid>
						<name>ЛОЛИТА &amp; КОСТА ЛАКОСТА_ПО-ДРУГОМУ___MSWCLP004820.mov</name>
						<enabled>TRUE</enabled>
						<duration>10218</duration>
						<rate>
							<timebase>25</timebase>
							<ntsc>FALSE</ntsc>
						</rate>
						<start>34783</start>
						<end>39492</end>
						<in>400</in>
						<out>5109</out>
						<pproTicksIn>4064256000000</pproTicksIn>
						<pproTicksOut>51910709760000</pproTicksOut>
						<file id="file-588"/>
						<sourcetrack>
							<mediatype>audio</mediatype>
							<trackindex>2</trackindex>
						</sourcetrack>
						<filter>
							<effect>
								<name>Audio Levels</name>
								<effectid>audiolevels</effectid>
								<effectcategory>audiolevels</effectcategory>
								<effecttype>audiolevels</effecttype>
								<mediatype>audio</mediatype>
								<pproBypass>false</pproBypass>
								<parameter authoringApp="PremierePro">
									<parameterid>level</parameterid>
									<name>Level</name>
									<valuemin>0</valuemin>
									<valuemax>3.98109</valuemax>
									<value>0</value>
									<keyframe>
										<when>406</when>
										<value>0</value>
									</keyframe>
									<keyframe>
										<when>416</when>
										<value>1</value>
									</keyframe>
								</parameter>
							</effect>
						</filter>
						<link>
							<linkclipref>clipitem-1694</linkclipref>
							<mediatype>video</mediatype>
							<trackindex>1</trackindex>
							<clipindex>28</clipindex>
						</link>
						<link>
							<linkclipref>clipitem-1941</linkclipref>
							<mediatype>audio</mediatype>
							<trackindex>1</trackindex>
							<clipindex>21</clipindex>
							<groupindex>1</groupindex>
						</link>
						<link>
							<linkclipref>clipitem-1979</linkclipref>
							<mediatype>audio</mediatype>
							<trackindex>2</trackindex>
							<clipindex>21</clipindex>
							<groupindex>1</groupindex>
						</link>
						<logginginfo>
							<description></description>
							<scene></scene>
							<shottake></shottake>
							<lognote></lognote>
							<good></good>
							<originalvideofilename></originalvideofilename>
							<originalaudiofilename></originalaudiofilename>
						</logginginfo>
						<colorinfo>
							<lut></lut>
							<lut1></lut1>
							<asc_sop></asc_sop>
							<asc_sat></asc_sat>
							<lut2></lut2>
						</colorinfo>
						<labels>
							<label2>Iris</label2>
						</labels>
					</clipitem>
					<clipitem id="clipitem-1980" premiereChannelType="stereo">
						<masterclipid>masterclip-697</masterclipid>
						<name>MYZ_RusskiyChart_OtbivkaMini_h264_v2.mp4</name>
						<enabled>TRUE</enabled>
						<duration>74</duration>
						<rate>
							<timebase>25</timebase>
							<ntsc>FALSE</ntsc>
						</rate>
						<start>39492</start>
						<end>39552</end>
						<in>0</in>
						<out>60</out>
						<pproTicksIn>0</pproTicksIn>
						<pproTicksOut>609638400000</pproTicksOut>
						<file id="file-576"/>
						<sourcetrack>
							<mediatype>audio</mediatype>
							<trackindex>2</trackindex>
						</sourcetrack>
						<filter>
							<effect>
								<name>Audio Levels</name>
								<effectid>audiolevels</effectid>
								<effectcategory>audiolevels</effectcategory>
								<effecttype>audiolevels</effecttype>
								<mediatype>audio</mediatype>
								<pproBypass>false</pproBypass>
								<parameter authoringApp="PremierePro">
									<parameterid>level</parameterid>
									<name>Level</name>
									<valuemin>0</valuemin>
									<valuemax>3.98109</valuemax>
									<value>0.251189</value>
									<keyframe>
										<when>60</when>
										<value>0.251189</value>
									</keyframe>
									<keyframe>
										<when>70</when>
										<value>0.258297</value>
									</keyframe>
								</parameter>
							</effect>
						</filter>
						<link>
							<linkclipref>clipitem-1695</linkclipref>
							<mediatype>video</mediatype>
							<trackindex>1</trackindex>
							<clipindex>29</clipindex>
						</link>
						<link>
							<linkclipref>clipitem-1942</linkclipref>
							<mediatype>audio</mediatype>
							<trackindex>1</trackindex>
							<clipindex>22</clipindex>
							<groupindex>1</groupindex>
						</link>
						<link>
							<linkclipref>clipitem-1980</linkclipref>
							<mediatype>audio</mediatype>
							<trackindex>2</trackindex>
							<clipindex>22</clipindex>
							<groupindex>1</groupindex>
						</link>
						<logginginfo>
							<description></description>
							<scene></scene>
							<shottake></shottake>
							<lognote></lognote>
							<good></good>
							<originalvideofilename></originalvideofilename>
							<originalaudiofilename></originalaudiofilename>
						</logginginfo>
						<colorinfo>
							<lut></lut>
							<lut1></lut1>
							<asc_sop></asc_sop>
							<asc_sat></asc_sat>
							<lut2></lut2>
						</colorinfo>
						<labels>
							<label2>Purple</label2>
						</labels>
					</clipitem>
					<clipitem id="clipitem-1981" premiereChannelType="stereo">
						<masterclipid>masterclip-693</masterclipid>
						<name>Nested Sequence_468</name>
						<enabled>TRUE</enabled>
						<duration>8812</duration>
						<rate>
							<timebase>25</timebase>
							<ntsc>FALSE</ntsc>
						</rate>
						<start>39552</start>
						<end>40015</end>
						<in>4406</in>
						<out>4869</out>
						<pproTicksIn>44767779840000</pproTicksIn>
						<pproTicksOut>49472156160000</pproTicksOut>
						<sequence id="sequence-131"/>
						<sourcetrack>
							<mediatype>audio</mediatype>
							<trackindex>1</trackindex>
						</sourcetrack>
						<filter>
							<effect>
								<name>Audio Levels</name>
								<effectid>audiolevels</effectid>
								<effectcategory>audiolevels</effectcategory>
								<effecttype>audiolevels</effecttype>
								<mediatype>audio</mediatype>
								<pproBypass>false</pproBypass>
								<parameter authoringApp="PremierePro">
									<parameterid>level</parameterid>
									<name>Level</name>
									<valuemin>0</valuemin>
									<valuemax>3.98109</valuemax>
									<value>0</value>
									<keyframe>
										<when>26</when>
										<value>0</value>
									</keyframe>
									<keyframe>
										<when>27</when>
										<value>0</value>
									</keyframe>
									<keyframe>
										<when>584</when>
										<value>0</value>
									</keyframe>
									<keyframe>
										<when>586</when>
										<value>0</value>
									</keyframe>
									<keyframe>
										<when>1042</when>
										<value>0</value>
									</keyframe>
									<keyframe>
										<when>1045</when>
										<value>1</value>
									</keyframe>
									<keyframe>
										<when>1589</when>
										<value>0</value>
									</keyframe>
									<keyframe>
										<when>1591</when>
										<value>0</value>
									</keyframe>
									<keyframe>
										<when>2195</when>
										<value>0</value>
									</keyframe>
									<keyframe>
										<when>2196</when>
										<value>0</value>
									</keyframe>
									<keyframe>
										<when>2912</when>
										<value>0</value>
									</keyframe>
									<keyframe>
										<when>2914</when>
										<value>0</value>
									</keyframe>
									<keyframe>
										<when>3684</when>
										<value>0</value>
									</keyframe>
									<keyframe>
										<when>3685</when>
										<value>0</value>
									</keyframe>
									<keyframe>
										<when>4408</when>
										<value>0</value>
									</keyframe>
									<keyframe>
										<when>4410</when>
										<value>1</value>
									</keyframe>
								</parameter>
							</effect>
						</filter>
						<link>
							<linkclipref>clipitem-1696</linkclipref>
							<mediatype>video</mediatype>
							<trackindex>1</trackindex>
							<clipindex>30</clipindex>
						</link>
						<link>
							<linkclipref>clipitem-1943</linkclipref>
							<mediatype>audio</mediatype>
							<trackindex>1</trackindex>
							<clipindex>23</clipindex>
							<groupindex>1</groupindex>
						</link>
						<link>
							<linkclipref>clipitem-1981</linkclipref>
							<mediatype>audio</mediatype>
							<trackindex>2</trackindex>
							<clipindex>23</clipindex>
							<groupindex>1</groupindex>
						</link>
						<labels>
							<label2>Forest</label2>
						</labels>
					</clipitem>
					<clipitem id="clipitem-1982" premiereChannelType="stereo">
						<masterclipid>masterclip-711</masterclipid>
						<name>BITTUEV_БРАТИК___MSWCLP004753.mov</name>
						<enabled>TRUE</enabled>
						<duration>5964</duration>
						<rate>
							<timebase>25</timebase>
							<ntsc>FALSE</ntsc>
						</rate>
						<start>40090</start>
						<end>43072</end>
						<in>0</in>
						<out>2982</out>
						<pproTicksIn>0</pproTicksIn>
						<pproTicksOut>30299028480000</pproTicksOut>
						<file id="file-590"/>
						<sourcetrack>
							<mediatype>audio</mediatype>
							<trackindex>2</trackindex>
						</sourcetrack>
						<filter>
							<effect>
								<name>Audio Levels</name>
								<effectid>audiolevels</effectid>
								<effectcategory>audiolevels</effectcategory>
								<effecttype>audiolevels</effecttype>
								<mediatype>audio</mediatype>
								<pproBypass>false</pproBypass>
								<parameter authoringApp="PremierePro">
									<parameterid>level</parameterid>
									<name>Level</name>
									<valuemin>0</valuemin>
									<valuemax>3.98109</valuemax>
									<value>1</value>
								</parameter>
							</effect>
						</filter>
						<link>
							<linkclipref>clipitem-1698</linkclipref>
							<mediatype>video</mediatype>
							<trackindex>1</trackindex>
							<clipindex>32</clipindex>
						</link>
						<link>
							<linkclipref>clipitem-1944</linkclipref>
							<mediatype>audio</mediatype>
							<trackindex>1</trackindex>
							<clipindex>24</clipindex>
							<groupindex>1</groupindex>
						</link>
						<link>
							<linkclipref>clipitem-1982</linkclipref>
							<mediatype>audio</mediatype>
							<trackindex>2</trackindex>
							<clipindex>24</clipindex>
							<groupindex>1</groupindex>
						</link>
						<logginginfo>
							<description></description>
							<scene></scene>
							<shottake></shottake>
							<lognote></lognote>
							<good></good>
							<originalvideofilename></originalvideofilename>
							<originalaudiofilename></originalaudiofilename>
						</logginginfo>
						<colorinfo>
							<lut></lut>
							<lut1></lut1>
							<asc_sop></asc_sop>
							<asc_sat></asc_sat>
							<lut2></lut2>
						</colorinfo>
						<labels>
							<label2>Iris</label2>
						</labels>
					</clipitem>
					<clipitem id="clipitem-1983" premiereChannelType="stereo">
						<masterclipid>masterclip-697</masterclipid>
						<name>MYZ_RusskiyChart_OtbivkaMini_h264_v2.mp4</name>
						<enabled>TRUE</enabled>
						<duration>74</duration>
						<rate>
							<timebase>25</timebase>
							<ntsc>FALSE</ntsc>
						</rate>
						<start>43072</start>
						<end>43132</end>
						<in>0</in>
						<out>60</out>
						<pproTicksIn>0</pproTicksIn>
						<pproTicksOut>609638400000</pproTicksOut>
						<file id="file-576"/>
						<sourcetrack>
							<mediatype>audio</mediatype>
							<trackindex>2</trackindex>
						</sourcetrack>
						<filter>
							<effect>
								<name>Audio Levels</name>
								<effectid>audiolevels</effectid>
								<effectcategory>audiolevels</effectcategory>
								<effecttype>audiolevels</effecttype>
								<mediatype>audio</mediatype>
								<pproBypass>false</pproBypass>
								<parameter authoringApp="PremierePro">
									<parameterid>level</parameterid>
									<name>Level</name>
									<valuemin>0</valuemin>
									<valuemax>3.98109</valuemax>
									<value>0.251189</value>
									<keyframe>
										<when>60</when>
										<value>0.251189</value>
									</keyframe>
									<keyframe>
										<when>70</when>
										<value>0.258297</value>
									</keyframe>
								</parameter>
							</effect>
						</filter>
						<link>
							<linkclipref>clipitem-1699</linkclipref>
							<mediatype>video</mediatype>
							<trackindex>1</trackindex>
							<clipindex>33</clipindex>
						</link>
						<link>
							<linkclipref>clipitem-1945</linkclipref>
							<mediatype>audio</mediatype>
							<trackindex>1</trackindex>
							<clipindex>25</clipindex>
							<groupindex>1</groupindex>
						</link>
						<link>
							<linkclipref>clipitem-1983</linkclipref>
							<mediatype>audio</mediatype>
							<trackindex>2</trackindex>
							<clipindex>25</clipindex>
							<groupindex>1</groupindex>
						</link>
						<logginginfo>
							<description></description>
							<scene></scene>
							<shottake></shottake>
							<lognote></lognote>
							<good></good>
							<originalvideofilename></originalvideofilename>
							<originalaudiofilename></originalaudiofilename>
						</logginginfo>
						<colorinfo>
							<lut></lut>
							<lut1></lut1>
							<asc_sop></asc_sop>
							<asc_sat></asc_sat>
							<lut2></lut2>
						</colorinfo>
						<labels>
							<label2>Purple</label2>
						</labels>
					</clipitem>
					<clipitem id="clipitem-1984" premiereChannelType="stereo">
						<masterclipid>masterclip-693</masterclipid>
						<name>Nested Sequence_468</name>
						<enabled>TRUE</enabled>
						<duration>8812</duration>
						<rate>
							<timebase>25</timebase>
							<ntsc>FALSE</ntsc>
						</rate>
						<start>43132</start>
						<end>43699</end>
						<in>4922</in>
						<out>5489</out>
						<pproTicksIn>50010670080000</pproTicksIn>
						<pproTicksOut>55771752960000</pproTicksOut>
						<sequence id="sequence-131"/>
						<sourcetrack>
							<mediatype>audio</mediatype>
							<trackindex>1</trackindex>
						</sourcetrack>
						<filter>
							<effect>
								<name>Audio Levels</name>
								<effectid>audiolevels</effectid>
								<effectcategory>audiolevels</effectcategory>
								<effecttype>audiolevels</effecttype>
								<mediatype>audio</mediatype>
								<pproBypass>false</pproBypass>
								<parameter authoringApp="PremierePro">
									<parameterid>level</parameterid>
									<name>Level</name>
									<valuemin>0</valuemin>
									<valuemax>3.98109</valuemax>
									<value>0</value>
									<keyframe>
										<when>26</when>
										<value>0</value>
									</keyframe>
									<keyframe>
										<when>27</when>
										<value>0</value>
									</keyframe>
									<keyframe>
										<when>584</when>
										<value>0</value>
									</keyframe>
									<keyframe>
										<when>586</when>
										<value>0</value>
									</keyframe>
									<keyframe>
										<when>1042</when>
										<value>0</value>
									</keyframe>
									<keyframe>
										<when>1045</when>
										<value>1</value>
									</keyframe>
									<keyframe>
										<when>1589</when>
										<value>0</value>
									</keyframe>
									<keyframe>
										<when>1591</when>
										<value>0</value>
									</keyframe>
									<keyframe>
										<when>2195</when>
										<value>0</value>
									</keyframe>
									<keyframe>
										<when>2196</when>
										<value>0</value>
									</keyframe>
									<keyframe>
										<when>2912</when>
										<value>0</value>
									</keyframe>
									<keyframe>
										<when>2914</when>
										<value>0</value>
									</keyframe>
									<keyframe>
										<when>3684</when>
										<value>0</value>
									</keyframe>
									<keyframe>
										<when>3685</when>
										<value>0</value>
									</keyframe>
									<keyframe>
										<when>4408</when>
										<value>0</value>
									</keyframe>
									<keyframe>
										<when>4410</when>
										<value>0</value>
									</keyframe>
									<keyframe>
										<when>4925</when>
										<value>0</value>
									</keyframe>
									<keyframe>
										<when>4927</when>
										<value>1</value>
									</keyframe>
								</parameter>
							</effect>
						</filter>
						<link>
							<linkclipref>clipitem-1700</linkclipref>
							<mediatype>video</mediatype>
							<trackindex>1</trackindex>
							<clipindex>34</clipindex>
						</link>
						<link>
							<linkclipref>clipitem-1946</linkclipref>
							<mediatype>audio</mediatype>
							<trackindex>1</trackindex>
							<clipindex>26</clipindex>
							<groupindex>1</groupindex>
						</link>
						<link>
							<linkclipref>clipitem-1984</linkclipref>
							<mediatype>audio</mediatype>
							<trackindex>2</trackindex>
							<clipindex>26</clipindex>
							<groupindex>1</groupindex>
						</link>
						<labels>
							<label2>Forest</label2>
						</labels>
					</clipitem>
					<clipitem id="clipitem-1985" premiereChannelType="stereo">
						<masterclipid>masterclip-713</masterclipid>
						<name>GAYAZOV$ BROTHER$_МАЛИНОВАЯ ЛАДА___MSWCLP004814.mov</name>
						<enabled>TRUE</enabled>
						<duration>11542</duration>
						<rate>
							<timebase>25</timebase>
							<ntsc>FALSE</ntsc>
						</rate>
						<start>43774</start>
						<end>49300</end>
						<in>245</in>
						<out>5771</out>
						<pproTicksIn>2489356800000</pproTicksIn>
						<pproTicksOut>58637053440000</pproTicksOut>
						<file id="file-592"/>
						<sourcetrack>
							<mediatype>audio</mediatype>
							<trackindex>2</trackindex>
						</sourcetrack>
						<filter>
							<effect>
								<name>Audio Levels</name>
								<effectid>audiolevels</effectid>
								<effectcategory>audiolevels</effectcategory>
								<effecttype>audiolevels</effecttype>
								<mediatype>audio</mediatype>
								<pproBypass>false</pproBypass>
								<parameter authoringApp="PremierePro">
									<parameterid>level</parameterid>
									<name>Level</name>
									<valuemin>0</valuemin>
									<valuemax>3.98109</valuemax>
									<value>0</value>
									<keyframe>
										<when>254</when>
										<value>0</value>
									</keyframe>
									<keyframe>
										<when>256</when>
										<value>1</value>
									</keyframe>
								</parameter>
							</effect>
						</filter>
						<link>
							<linkclipref>clipitem-1702</linkclipref>
							<mediatype>video</mediatype>
							<trackindex>1</trackindex>
							<clipindex>36</clipindex>
						</link>
						<link>
							<linkclipref>clipitem-1947</linkclipref>
							<mediatype>audio</mediatype>
							<trackindex>1</trackindex>
							<clipindex>27</clipindex>
							<groupindex>1</groupindex>
						</link>
						<link>
							<linkclipref>clipitem-1985</linkclipref>
							<mediatype>audio</mediatype>
							<trackindex>2</trackindex>
							<clipindex>27</clipindex>
							<groupindex>1</groupindex>
						</link>
						<logginginfo>
							<description></description>
							<scene></scene>
							<shottake></shottake>
							<lognote></lognote>
							<good></good>
							<originalvideofilename></originalvideofilename>
							<originalaudiofilename></originalaudiofilename>
						</logginginfo>
						<colorinfo>
							<lut></lut>
							<lut1></lut1>
							<asc_sop></asc_sop>
							<asc_sat></asc_sat>
							<lut2></lut2>
						</colorinfo>
						<labels>
							<label2>Iris</label2>
						</labels>
					</clipitem>
					<clipitem id="clipitem-1986" premiereChannelType="stereo">
						<masterclipid>masterclip-697</masterclipid>
						<name>MYZ_RusskiyChart_OtbivkaMini_h264_v2.mp4</name>
						<enabled>TRUE</enabled>
						<duration>74</duration>
						<rate>
							<timebase>25</timebase>
							<ntsc>FALSE</ntsc>
						</rate>
						<start>49300</start>
						<end>49360</end>
						<in>0</in>
						<out>60</out>
						<pproTicksIn>0</pproTicksIn>
						<pproTicksOut>609638400000</pproTicksOut>
						<file id="file-576"/>
						<sourcetrack>
							<mediatype>audio</mediatype>
							<trackindex>2</trackindex>
						</sourcetrack>
						<filter>
							<effect>
								<name>Audio Levels</name>
								<effectid>audiolevels</effectid>
								<effectcategory>audiolevels</effectcategory>
								<effecttype>audiolevels</effecttype>
								<mediatype>audio</mediatype>
								<pproBypass>false</pproBypass>
								<parameter authoringApp="PremierePro">
									<parameterid>level</parameterid>
									<name>Level</name>
									<valuemin>0</valuemin>
									<valuemax>3.98109</valuemax>
									<value>0.251189</value>
									<keyframe>
										<when>60</when>
										<value>0.251189</value>
									</keyframe>
									<keyframe>
										<when>70</when>
										<value>0.258297</value>
									</keyframe>
								</parameter>
							</effect>
						</filter>
						<link>
							<linkclipref>clipitem-1703</linkclipref>
							<mediatype>video</mediatype>
							<trackindex>1</trackindex>
							<clipindex>37</clipindex>
						</link>
						<link>
							<linkclipref>clipitem-1948</linkclipref>
							<mediatype>audio</mediatype>
							<trackindex>1</trackindex>
							<clipindex>28</clipindex>
							<groupindex>1</groupindex>
						</link>
						<link>
							<linkclipref>clipitem-1986</linkclipref>
							<mediatype>audio</mediatype>
							<trackindex>2</trackindex>
							<clipindex>28</clipindex>
							<groupindex>1</groupindex>
						</link>
						<logginginfo>
							<description></description>
							<scene></scene>
							<shottake></shottake>
							<lognote></lognote>
							<good></good>
							<originalvideofilename></originalvideofilename>
							<originalaudiofilename></originalaudiofilename>
						</logginginfo>
						<colorinfo>
							<lut></lut>
							<lut1></lut1>
							<asc_sop></asc_sop>
							<asc_sat></asc_sat>
							<lut2></lut2>
						</colorinfo>
						<labels>
							<label2>Purple</label2>
						</labels>
					</clipitem>
					<clipitem id="clipitem-1987" premiereChannelType="stereo">
						<masterclipid>masterclip-693</masterclipid>
						<name>Nested Sequence_468</name>
						<enabled>TRUE</enabled>
						<duration>8812</duration>
						<rate>
							<timebase>25</timebase>
							<ntsc>FALSE</ntsc>
						</rate>
						<start>49360</start>
						<end>50023</end>
						<in>5535</in>
						<out>6198</out>
						<pproTicksIn>56239142400000</pproTicksIn>
						<pproTicksOut>62975646720000</pproTicksOut>
						<sequence id="sequence-131"/>
						<sourcetrack>
							<mediatype>audio</mediatype>
							<trackindex>1</trackindex>
						</sourcetrack>
						<filter>
							<effect>
								<name>Audio Levels</name>
								<effectid>audiolevels</effectid>
								<effectcategory>audiolevels</effectcategory>
								<effecttype>audiolevels</effecttype>
								<mediatype>audio</mediatype>
								<pproBypass>false</pproBypass>
								<parameter authoringApp="PremierePro">
									<parameterid>level</parameterid>
									<name>Level</name>
									<valuemin>0</valuemin>
									<valuemax>3.98109</valuemax>
									<value>0</value>
									<keyframe>
										<when>26</when>
										<value>0</value>
									</keyframe>
									<keyframe>
										<when>27</when>
										<value>0</value>
									</keyframe>
									<keyframe>
										<when>584</when>
										<value>0</value>
									</keyframe>
									<keyframe>
										<when>586</when>
										<value>0</value>
									</keyframe>
									<keyframe>
										<when>1042</when>
										<value>0</value>
									</keyframe>
									<keyframe>
										<when>1045</when>
										<value>1</value>
									</keyframe>
									<keyframe>
										<when>1589</when>
										<value>0</value>
									</keyframe>
									<keyframe>
										<when>1591</when>
										<value>0</value>
									</keyframe>
									<keyframe>
										<when>2195</when>
										<value>0</value>
									</keyframe>
									<keyframe>
										<when>2196</when>
										<value>0</value>
									</keyframe>
									<keyframe>
										<when>2912</when>
										<value>0</value>
									</keyframe>
									<keyframe>
										<when>2914</when>
										<value>0</value>
									</keyframe>
									<keyframe>
										<when>3684</when>
										<value>0</value>
									</keyframe>
									<keyframe>
										<when>3685</when>
										<value>0</value>
									</keyframe>
									<keyframe>
										<when>4408</when>
										<value>0</value>
									</keyframe>
									<keyframe>
										<when>4410</when>
										<value>0</value>
									</keyframe>
									<keyframe>
										<when>4925</when>
										<value>0</value>
									</keyframe>
									<keyframe>
										<when>4927</when>
										<value>0</value>
									</keyframe>
									<keyframe>
										<when>5539</when>
										<value>0</value>
									</keyframe>
									<keyframe>
										<when>5541</when>
										<value>1</value>
									</keyframe>
								</parameter>
							</effect>
						</filter>
						<link>
							<linkclipref>clipitem-1704</linkclipref>
							<mediatype>video</mediatype>
							<trackindex>1</trackindex>
							<clipindex>38</clipindex>
						</link>
						<link>
							<linkclipref>clipitem-1949</linkclipref>
							<mediatype>audio</mediatype>
							<trackindex>1</trackindex>
							<clipindex>29</clipindex>
							<groupindex>1</groupindex>
						</link>
						<link>
							<linkclipref>clipitem-1987</linkclipref>
							<mediatype>audio</mediatype>
							<trackindex>2</trackindex>
							<clipindex>29</clipindex>
							<groupindex>1</groupindex>
						</link>
						<labels>
							<label2>Forest</label2>
						</labels>
					</clipitem>
					<clipitem id="clipitem-1988" premiereChannelType="stereo">
						<masterclipid>masterclip-715</masterclipid>
						<name>ЛЮСЯ ЧЕБОТИНА_СОЛНЦЕ МОНАКО___MSWCLP004812.mov</name>
						<enabled>TRUE</enabled>
						<duration>7794</duration>
						<rate>
							<timebase>25</timebase>
							<ntsc>FALSE</ntsc>
						</rate>
						<start>50098</start>
						<end>53995</end>
						<in>0</in>
						<out>3897</out>
						<pproTicksIn>0</pproTicksIn>
						<pproTicksOut>39596014080000</pproTicksOut>
						<file id="file-594"/>
						<sourcetrack>
							<mediatype>audio</mediatype>
							<trackindex>2</trackindex>
						</sourcetrack>
						<filter>
							<effect>
								<name>Audio Levels</name>
								<effectid>audiolevels</effectid>
								<effectcategory>audiolevels</effectcategory>
								<effecttype>audiolevels</effecttype>
								<mediatype>audio</mediatype>
								<pproBypass>false</pproBypass>
								<parameter authoringApp="PremierePro">
									<parameterid>level</parameterid>
									<name>Level</name>
									<valuemin>0</valuemin>
									<valuemax>3.98109</valuemax>
									<value>1</value>
								</parameter>
							</effect>
						</filter>
						<link>
							<linkclipref>clipitem-1706</linkclipref>
							<mediatype>video</mediatype>
							<trackindex>1</trackindex>
							<clipindex>40</clipindex>
						</link>
						<link>
							<linkclipref>clipitem-1950</linkclipref>
							<mediatype>audio</mediatype>
							<trackindex>1</trackindex>
							<clipindex>30</clipindex>
							<groupindex>1</groupindex>
						</link>
						<link>
							<linkclipref>clipitem-1988</linkclipref>
							<mediatype>audio</mediatype>
							<trackindex>2</trackindex>
							<clipindex>30</clipindex>
							<groupindex>1</groupindex>
						</link>
						<logginginfo>
							<description></description>
							<scene></scene>
							<shottake></shottake>
							<lognote></lognote>
							<good></good>
							<originalvideofilename></originalvideofilename>
							<originalaudiofilename></originalaudiofilename>
						</logginginfo>
						<colorinfo>
							<lut></lut>
							<lut1></lut1>
							<asc_sop></asc_sop>
							<asc_sat></asc_sat>
							<lut2></lut2>
						</colorinfo>
						<labels>
							<label2>Iris</label2>
						</labels>
					</clipitem>
					<clipitem id="clipitem-1989" premiereChannelType="stereo">
						<masterclipid>masterclip-697</masterclipid>
						<name>MYZ_RusskiyChart_OtbivkaMini_h264_v2.mp4</name>
						<enabled>TRUE</enabled>
						<duration>74</duration>
						<rate>
							<timebase>25</timebase>
							<ntsc>FALSE</ntsc>
						</rate>
						<start>53995</start>
						<end>54055</end>
						<in>0</in>
						<out>60</out>
						<pproTicksIn>0</pproTicksIn>
						<pproTicksOut>609638400000</pproTicksOut>
						<file id="file-576"/>
						<sourcetrack>
							<mediatype>audio</mediatype>
							<trackindex>2</trackindex>
						</sourcetrack>
						<filter>
							<effect>
								<name>Audio Levels</name>
								<effectid>audiolevels</effectid>
								<effectcategory>audiolevels</effectcategory>
								<effecttype>audiolevels</effecttype>
								<mediatype>audio</mediatype>
								<pproBypass>false</pproBypass>
								<parameter authoringApp="PremierePro">
									<parameterid>level</parameterid>
									<name>Level</name>
									<valuemin>0</valuemin>
									<valuemax>3.98109</valuemax>
									<value>0.251189</value>
									<keyframe>
										<when>60</when>
										<value>0.251189</value>
									</keyframe>
									<keyframe>
										<when>70</when>
										<value>0.258297</value>
									</keyframe>
								</parameter>
							</effect>
						</filter>
						<link>
							<linkclipref>clipitem-1707</linkclipref>
							<mediatype>video</mediatype>
							<trackindex>1</trackindex>
							<clipindex>41</clipindex>
						</link>
						<link>
							<linkclipref>clipitem-1951</linkclipref>
							<mediatype>audio</mediatype>
							<trackindex>1</trackindex>
							<clipindex>31</clipindex>
							<groupindex>1</groupindex>
						</link>
						<link>
							<linkclipref>clipitem-1989</linkclipref>
							<mediatype>audio</mediatype>
							<trackindex>2</trackindex>
							<clipindex>31</clipindex>
							<groupindex>1</groupindex>
						</link>
						<logginginfo>
							<description></description>
							<scene></scene>
							<shottake></shottake>
							<lognote></lognote>
							<good></good>
							<originalvideofilename></originalvideofilename>
							<originalaudiofilename></originalaudiofilename>
						</logginginfo>
						<colorinfo>
							<lut></lut>
							<lut1></lut1>
							<asc_sop></asc_sop>
							<asc_sat></asc_sat>
							<lut2></lut2>
						</colorinfo>
						<labels>
							<label2>Purple</label2>
						</labels>
					</clipitem>
					<clipitem id="clipitem-1990" premiereChannelType="stereo">
						<masterclipid>masterclip-693</masterclipid>
						<name>Nested Sequence_468</name>
						<enabled>TRUE</enabled>
						<duration>8812</duration>
						<rate>
							<timebase>25</timebase>
							<ntsc>FALSE</ntsc>
						</rate>
						<start>54055</start>
						<end>54589</end>
						<in>6279</in>
						<out>6813</out>
						<pproTicksIn>63798658560000</pproTicksIn>
						<pproTicksOut>69224440320000</pproTicksOut>
						<sequence id="sequence-131"/>
						<sourcetrack>
							<mediatype>audio</mediatype>
							<trackindex>1</trackindex>
						</sourcetrack>
						<filter>
							<effect>
								<name>Audio Levels</name>
								<effectid>audiolevels</effectid>
								<effectcategory>audiolevels</effectcategory>
								<effecttype>audiolevels</effecttype>
								<mediatype>audio</mediatype>
								<pproBypass>false</pproBypass>
								<parameter authoringApp="PremierePro">
									<parameterid>level</parameterid>
									<name>Level</name>
									<valuemin>0</valuemin>
									<valuemax>3.98109</valuemax>
									<value>0</value>
									<keyframe>
										<when>26</when>
										<value>0</value>
									</keyframe>
									<keyframe>
										<when>27</when>
										<value>0</value>
									</keyframe>
									<keyframe>
										<when>584</when>
										<value>0</value>
									</keyframe>
									<keyframe>
										<when>586</when>
										<value>0</value>
									</keyframe>
									<keyframe>
										<when>1042</when>
										<value>0</value>
									</keyframe>
									<keyframe>
										<when>1045</when>
										<value>1</value>
									</keyframe>
									<keyframe>
										<when>1589</when>
										<value>0</value>
									</keyframe>
									<keyframe>
										<when>1591</when>
										<value>0</value>
									</keyframe>
									<keyframe>
										<when>2195</when>
										<value>0</value>
									</keyframe>
									<keyframe>
										<when>2196</when>
										<value>0</value>
									</keyframe>
									<keyframe>
										<when>2912</when>
										<value>0</value>
									</keyframe>
									<keyframe>
										<when>2914</when>
										<value>0</value>
									</keyframe>
									<keyframe>
										<when>3684</when>
										<value>0</value>
									</keyframe>
									<keyframe>
										<when>3685</when>
										<value>0</value>
									</keyframe>
									<keyframe>
										<when>4408</when>
										<value>0</value>
									</keyframe>
									<keyframe>
										<when>4410</when>
										<value>0</value>
									</keyframe>
									<keyframe>
										<when>4925</when>
										<value>0</value>
									</keyframe>
									<keyframe>
										<when>4927</when>
										<value>0</value>
									</keyframe>
									<keyframe>
										<when>5539</when>
										<value>0</value>
									</keyframe>
									<keyframe>
										<when>5541</when>
										<value>0</value>
									</keyframe>
									<keyframe>
										<when>6284</when>
										<value>0</value>
									</keyframe>
									<keyframe>
										<when>6285</when>
										<value>1</value>
									</keyframe>
								</parameter>
							</effect>
						</filter>
						<link>
							<linkclipref>clipitem-1708</linkclipref>
							<mediatype>video</mediatype>
							<trackindex>1</trackindex>
							<clipindex>42</clipindex>
						</link>
						<link>
							<linkclipref>clipitem-1952</linkclipref>
							<mediatype>audio</mediatype>
							<trackindex>1</trackindex>
							<clipindex>32</clipindex>
							<groupindex>1</groupindex>
						</link>
						<link>
							<linkclipref>clipitem-1990</linkclipref>
							<mediatype>audio</mediatype>
							<trackindex>2</trackindex>
							<clipindex>32</clipindex>
							<groupindex>1</groupindex>
						</link>
						<labels>
							<label2>Forest</label2>
						</labels>
					</clipitem>
					<clipitem id="clipitem-1991" premiereChannelType="stereo">
						<masterclipid>masterclip-717</masterclipid>
						<name>NЮ_НИКТО___MSWCLP004852.mov</name>
						<enabled>TRUE</enabled>
						<duration>10060</duration>
						<rate>
							<timebase>25</timebase>
							<ntsc>FALSE</ntsc>
						</rate>
						<start>54664</start>
						<end>59662</end>
						<in>32</in>
						<out>5030</out>
						<pproTicksIn>325140480000</pproTicksIn>
						<pproTicksOut>51108019200000</pproTicksOut>
						<file id="file-596"/>
						<sourcetrack>
							<mediatype>audio</mediatype>
							<trackindex>2</trackindex>
						</sourcetrack>
						<filter>
							<effect>
								<name>Audio Levels</name>
								<effectid>audiolevels</effectid>
								<effectcategory>audiolevels</effectcategory>
								<effecttype>audiolevels</effecttype>
								<mediatype>audio</mediatype>
								<pproBypass>false</pproBypass>
								<parameter authoringApp="PremierePro">
									<parameterid>level</parameterid>
									<name>Level</name>
									<valuemin>0</valuemin>
									<valuemax>3.98109</valuemax>
									<value>1</value>
									<keyframe>
										<when>5002</when>
										<value>1</value>
									</keyframe>
									<keyframe>
										<when>5027</when>
										<value>0.0086983</value>
									</keyframe>
								</parameter>
							</effect>
						</filter>
						<link>
							<linkclipref>clipitem-1710</linkclipref>
							<mediatype>video</mediatype>
							<trackindex>1</trackindex>
							<clipindex>44</clipindex>
						</link>
						<link>
							<linkclipref>clipitem-1953</linkclipref>
							<mediatype>audio</mediatype>
							<trackindex>1</trackindex>
							<clipindex>33</clipindex>
							<groupindex>1</groupindex>
						</link>
						<link>
							<linkclipref>clipitem-1991</linkclipref>
							<mediatype>audio</mediatype>
							<trackindex>2</trackindex>
							<clipindex>33</clipindex>
							<groupindex>1</groupindex>
						</link>
						<logginginfo>
							<description></description>
							<scene></scene>
							<shottake></shottake>
							<lognote></lognote>
							<good></good>
							<originalvideofilename></originalvideofilename>
							<originalaudiofilename></originalaudiofilename>
						</logginginfo>
						<colorinfo>
							<lut></lut>
							<lut1></lut1>
							<asc_sop></asc_sop>
							<asc_sat></asc_sat>
							<lut2></lut2>
						</colorinfo>
						<labels>
							<label2>Iris</label2>
						</labels>
					</clipitem>
					<clipitem id="clipitem-1992" premiereChannelType="stereo">
						<masterclipid>masterclip-697</masterclipid>
						<name>MYZ_RusskiyChart_OtbivkaMini_h264_v2.mp4</name>
						<enabled>TRUE</enabled>
						<duration>74</duration>
						<rate>
							<timebase>25</timebase>
							<ntsc>FALSE</ntsc>
						</rate>
						<start>59662</start>
						<end>59722</end>
						<in>0</in>
						<out>60</out>
						<pproTicksIn>0</pproTicksIn>
						<pproTicksOut>609638400000</pproTicksOut>
						<file id="file-576"/>
						<sourcetrack>
							<mediatype>audio</mediatype>
							<trackindex>2</trackindex>
						</sourcetrack>
						<filter>
							<effect>
								<name>Audio Levels</name>
								<effectid>audiolevels</effectid>
								<effectcategory>audiolevels</effectcategory>
								<effecttype>audiolevels</effecttype>
								<mediatype>audio</mediatype>
								<pproBypass>false</pproBypass>
								<parameter authoringApp="PremierePro">
									<parameterid>level</parameterid>
									<name>Level</name>
									<valuemin>0</valuemin>
									<valuemax>3.98109</valuemax>
									<value>0.251189</value>
									<keyframe>
										<when>60</when>
										<value>0.251189</value>
									</keyframe>
									<keyframe>
										<when>70</when>
										<value>0.258297</value>
									</keyframe>
								</parameter>
							</effect>
						</filter>
						<link>
							<linkclipref>clipitem-1711</linkclipref>
							<mediatype>video</mediatype>
							<trackindex>1</trackindex>
							<clipindex>45</clipindex>
						</link>
						<link>
							<linkclipref>clipitem-1954</linkclipref>
							<mediatype>audio</mediatype>
							<trackindex>1</trackindex>
							<clipindex>34</clipindex>
							<groupindex>1</groupindex>
						</link>
						<link>
							<linkclipref>clipitem-1992</linkclipref>
							<mediatype>audio</mediatype>
							<trackindex>2</trackindex>
							<clipindex>34</clipindex>
							<groupindex>1</groupindex>
						</link>
						<logginginfo>
							<description></description>
							<scene></scene>
							<shottake></shottake>
							<lognote></lognote>
							<good></good>
							<originalvideofilename></originalvideofilename>
							<originalaudiofilename></originalaudiofilename>
						</logginginfo>
						<colorinfo>
							<lut></lut>
							<lut1></lut1>
							<asc_sop></asc_sop>
							<asc_sat></asc_sat>
							<lut2></lut2>
						</colorinfo>
						<labels>
							<label2>Purple</label2>
						</labels>
					</clipitem>
					<clipitem id="clipitem-1993" premiereChannelType="stereo">
						<masterclipid>masterclip-693</masterclipid>
						<name>Nested Sequence_468</name>
						<enabled>TRUE</enabled>
						<duration>8812</duration>
						<rate>
							<timebase>25</timebase>
							<ntsc>FALSE</ntsc>
						</rate>
						<start>59722</start>
						<end>60286</end>
						<in>6881</in>
						<out>7445</out>
						<pproTicksIn>69915363840000</pproTicksIn>
						<pproTicksOut>75645964800000</pproTicksOut>
						<sequence id="sequence-131"/>
						<sourcetrack>
							<mediatype>audio</mediatype>
							<trackindex>1</trackindex>
						</sourcetrack>
						<filter>
							<effect>
								<name>Audio Levels</name>
								<effectid>audiolevels</effectid>
								<effectcategory>audiolevels</effectcategory>
								<effecttype>audiolevels</effecttype>
								<mediatype>audio</mediatype>
								<pproBypass>false</pproBypass>
								<parameter authoringApp="PremierePro">
									<parameterid>level</parameterid>
									<name>Level</name>
									<valuemin>0</valuemin>
									<valuemax>3.98109</valuemax>
									<value>0</value>
									<keyframe>
										<when>26</when>
										<value>0</value>
									</keyframe>
									<keyframe>
										<when>27</when>
										<value>0</value>
									</keyframe>
									<keyframe>
										<when>584</when>
										<value>0</value>
									</keyframe>
									<keyframe>
										<when>586</when>
										<value>0</value>
									</keyframe>
									<keyframe>
										<when>1042</when>
										<value>0</value>
									</keyframe>
									<keyframe>
										<when>1045</when>
										<value>1</value>
									</keyframe>
									<keyframe>
										<when>1589</when>
										<value>0</value>
									</keyframe>
									<keyframe>
										<when>1591</when>
										<value>0</value>
									</keyframe>
									<keyframe>
										<when>2195</when>
										<value>0</value>
									</keyframe>
									<keyframe>
										<when>2196</when>
										<value>0</value>
									</keyframe>
									<keyframe>
										<when>2912</when>
										<value>0</value>
									</keyframe>
									<keyframe>
										<when>2914</when>
										<value>0</value>
									</keyframe>
									<keyframe>
										<when>3684</when>
										<value>0</value>
									</keyframe>
									<keyframe>
										<when>3685</when>
										<value>0</value>
									</keyframe>
									<keyframe>
										<when>4408</when>
										<value>0</value>
									</keyframe>
									<keyframe>
										<when>4410</when>
										<value>0</value>
									</keyframe>
									<keyframe>
										<when>4925</when>
										<value>0</value>
									</keyframe>
									<keyframe>
										<when>4927</when>
										<value>0</value>
									</keyframe>
									<keyframe>
										<when>5539</when>
										<value>0</value>
									</keyframe>
									<keyframe>
										<when>5541</when>
										<value>0</value>
									</keyframe>
									<keyframe>
										<when>6284</when>
										<value>0</value>
									</keyframe>
									<keyframe>
										<when>6285</when>
										<value>0</value>
									</keyframe>
									<keyframe>
										<when>6884</when>
										<value>0</value>
									</keyframe>
									<keyframe>
										<when>6884</when>
										<value>1</value>
									</keyframe>
								</parameter>
							</effect>
						</filter>
						<link>
							<linkclipref>clipitem-1712</linkclipref>
							<mediatype>video</mediatype>
							<trackindex>1</trackindex>
							<clipindex>46</clipindex>
						</link>
						<link>
							<linkclipref>clipitem-1955</linkclipref>
							<mediatype>audio</mediatype>
							<trackindex>1</trackindex>
							<clipindex>35</clipindex>
							<groupindex>1</groupindex>
						</link>
						<link>
							<linkclipref>clipitem-1993</linkclipref>
							<mediatype>audio</mediatype>
							<trackindex>2</trackindex>
							<clipindex>35</clipindex>
							<groupindex>1</groupindex>
						</link>
						<labels>
							<label2>Forest</label2>
						</labels>
					</clipitem>
					<clipitem id="clipitem-1994" premiereChannelType="stereo">
						<masterclipid>masterclip-719</masterclipid>
						<name>ДАНЯ МИЛОХИН &amp; МУМИЙ ТРОЛЛЬ_БАШНЯ___MSWCLP004828.mov</name>
						<enabled>TRUE</enabled>
						<duration>9870</duration>
						<rate>
							<timebase>25</timebase>
							<ntsc>FALSE</ntsc>
						</rate>
						<start>60361</start>
						<end>65296</end>
						<in>0</in>
						<out>4935</out>
						<pproTicksIn>0</pproTicksIn>
						<pproTicksOut>50142758400000</pproTicksOut>
						<file id="file-598"/>
						<sourcetrack>
							<mediatype>audio</mediatype>
							<trackindex>2</trackindex>
						</sourcetrack>
						<filter>
							<effect>
								<name>Audio Levels</name>
								<effectid>audiolevels</effectid>
								<effectcategory>audiolevels</effectcategory>
								<effecttype>audiolevels</effecttype>
								<mediatype>audio</mediatype>
								<pproBypass>false</pproBypass>
								<parameter authoringApp="PremierePro">
									<parameterid>level</parameterid>
									<name>Level</name>
									<valuemin>0</valuemin>
									<valuemax>3.98109</valuemax>
									<value>1</value>
									<keyframe>
										<when>4897</when>
										<value>1</value>
									</keyframe>
									<keyframe>
										<when>4931</when>
										<value>0.1886</value>
									</keyframe>
								</parameter>
							</effect>
						</filter>
						<link>
							<linkclipref>clipitem-1714</linkclipref>
							<mediatype>video</mediatype>
							<trackindex>1</trackindex>
							<clipindex>48</clipindex>
						</link>
						<link>
							<linkclipref>clipitem-1956</linkclipref>
							<mediatype>audio</mediatype>
							<trackindex>1</trackindex>
							<clipindex>36</clipindex>
							<groupindex>1</groupindex>
						</link>
						<link>
							<linkclipref>clipitem-1994</linkclipref>
							<mediatype>audio</mediatype>
							<trackindex>2</trackindex>
							<clipindex>36</clipindex>
							<groupindex>1</groupindex>
						</link>
						<logginginfo>
							<description></description>
							<scene></scene>
							<shottake></shottake>
							<lognote></lognote>
							<good></good>
							<originalvideofilename></originalvideofilename>
							<originalaudiofilename></originalaudiofilename>
						</logginginfo>
						<colorinfo>
							<lut></lut>
							<lut1></lut1>
							<asc_sop></asc_sop>
							<asc_sat></asc_sat>
							<lut2></lut2>
						</colorinfo>
						<labels>
							<label2>Iris</label2>
						</labels>
					</clipitem>
					<clipitem id="clipitem-1995" premiereChannelType="stereo">
						<masterclipid>masterclip-697</masterclipid>
						<name>MYZ_RusskiyChart_OtbivkaMini_h264_v2.mp4</name>
						<enabled>TRUE</enabled>
						<duration>74</duration>
						<rate>
							<timebase>25</timebase>
							<ntsc>FALSE</ntsc>
						</rate>
						<start>65296</start>
						<end>65356</end>
						<in>0</in>
						<out>60</out>
						<pproTicksIn>0</pproTicksIn>
						<pproTicksOut>609638400000</pproTicksOut>
						<file id="file-576"/>
						<sourcetrack>
							<mediatype>audio</mediatype>
							<trackindex>2</trackindex>
						</sourcetrack>
						<filter>
							<effect>
								<name>Audio Levels</name>
								<effectid>audiolevels</effectid>
								<effectcategory>audiolevels</effectcategory>
								<effecttype>audiolevels</effecttype>
								<mediatype>audio</mediatype>
								<pproBypass>false</pproBypass>
								<parameter authoringApp="PremierePro">
									<parameterid>level</parameterid>
									<name>Level</name>
									<valuemin>0</valuemin>
									<valuemax>3.98109</valuemax>
									<value>0.251189</value>
									<keyframe>
										<when>60</when>
										<value>0.251189</value>
									</keyframe>
									<keyframe>
										<when>70</when>
										<value>0.258297</value>
									</keyframe>
								</parameter>
							</effect>
						</filter>
						<link>
							<linkclipref>clipitem-1715</linkclipref>
							<mediatype>video</mediatype>
							<trackindex>1</trackindex>
							<clipindex>49</clipindex>
						</link>
						<link>
							<linkclipref>clipitem-1957</linkclipref>
							<mediatype>audio</mediatype>
							<trackindex>1</trackindex>
							<clipindex>37</clipindex>
							<groupindex>1</groupindex>
						</link>
						<link>
							<linkclipref>clipitem-1995</linkclipref>
							<mediatype>audio</mediatype>
							<trackindex>2</trackindex>
							<clipindex>37</clipindex>
							<groupindex>1</groupindex>
						</link>
						<logginginfo>
							<description></description>
							<scene></scene>
							<shottake></shottake>
							<lognote></lognote>
							<good></good>
							<originalvideofilename></originalvideofilename>
							<originalaudiofilename></originalaudiofilename>
						</logginginfo>
						<colorinfo>
							<lut></lut>
							<lut1></lut1>
							<asc_sop></asc_sop>
							<asc_sat></asc_sat>
							<lut2></lut2>
						</colorinfo>
						<labels>
							<label2>Purple</label2>
						</labels>
					</clipitem>
					<clipitem id="clipitem-1996" premiereChannelType="stereo">
						<masterclipid>masterclip-693</masterclipid>
						<name>Nested Sequence_468</name>
						<enabled>TRUE</enabled>
						<duration>8812</duration>
						<rate>
							<timebase>25</timebase>
							<ntsc>FALSE</ntsc>
						</rate>
						<start>65356</start>
						<end>65740</end>
						<in>7507</in>
						<out>7891</out>
						<pproTicksIn>76275924480000</pproTicksIn>
						<pproTicksOut>80177610240000</pproTicksOut>
						<sequence id="sequence-131"/>
						<sourcetrack>
							<mediatype>audio</mediatype>
							<trackindex>1</trackindex>
						</sourcetrack>
						<filter>
							<effect>
								<name>Audio Levels</name>
								<effectid>audiolevels</effectid>
								<effectcategory>audiolevels</effectcategory>
								<effecttype>audiolevels</effecttype>
								<mediatype>audio</mediatype>
								<pproBypass>false</pproBypass>
								<parameter authoringApp="PremierePro">
									<parameterid>level</parameterid>
									<name>Level</name>
									<valuemin>0</valuemin>
									<valuemax>3.98109</valuemax>
									<value>0</value>
									<keyframe>
										<when>26</when>
										<value>0</value>
									</keyframe>
									<keyframe>
										<when>27</when>
										<value>0</value>
									</keyframe>
									<keyframe>
										<when>584</when>
										<value>0</value>
									</keyframe>
									<keyframe>
										<when>586</when>
										<value>0</value>
									</keyframe>
									<keyframe>
										<when>1042</when>
										<value>0</value>
									</keyframe>
									<keyframe>
										<when>1045</when>
										<value>1</value>
									</keyframe>
									<keyframe>
										<when>1589</when>
										<value>0</value>
									</keyframe>
									<keyframe>
										<when>1591</when>
										<value>0</value>
									</keyframe>
									<keyframe>
										<when>2195</when>
										<value>0</value>
									</keyframe>
									<keyframe>
										<when>2196</when>
										<value>0</value>
									</keyframe>
									<keyframe>
										<when>2912</when>
										<value>0</value>
									</keyframe>
									<keyframe>
										<when>2914</when>
										<value>0</value>
									</keyframe>
									<keyframe>
										<when>3684</when>
										<value>0</value>
									</keyframe>
									<keyframe>
										<when>3685</when>
										<value>0</value>
									</keyframe>
									<keyframe>
										<when>4408</when>
										<value>0</value>
									</keyframe>
									<keyframe>
										<when>4410</when>
										<value>0</value>
									</keyframe>
									<keyframe>
										<when>4925</when>
										<value>0</value>
									</keyframe>
									<keyframe>
										<when>4927</when>
										<value>0</value>
									</keyframe>
									<keyframe>
										<when>5539</when>
										<value>0</value>
									</keyframe>
									<keyframe>
										<when>5541</when>
										<value>0</value>
									</keyframe>
									<keyframe>
										<when>6284</when>
										<value>0</value>
									</keyframe>
									<keyframe>
										<when>6285</when>
										<value>0</value>
									</keyframe>
									<keyframe>
										<when>6884</when>
										<value>0</value>
									</keyframe>
									<keyframe>
										<when>6884</when>
										<value>0</value>
									</keyframe>
									<keyframe>
										<when>7511</when>
										<value>0</value>
									</keyframe>
									<keyframe>
										<when>7512</when>
										<value>1</value>
									</keyframe>
								</parameter>
							</effect>
						</filter>
						<link>
							<linkclipref>clipitem-1716</linkclipref>
							<mediatype>video</mediatype>
							<trackindex>1</trackindex>
							<clipindex>50</clipindex>
						</link>
						<link>
							<linkclipref>clipitem-1958</linkclipref>
							<mediatype>audio</mediatype>
							<trackindex>1</trackindex>
							<clipindex>38</clipindex>
							<groupindex>1</groupindex>
						</link>
						<link>
							<linkclipref>clipitem-1996</linkclipref>
							<mediatype>audio</mediatype>
							<trackindex>2</trackindex>
							<clipindex>38</clipindex>
							<groupindex>1</groupindex>
						</link>
						<labels>
							<label2>Forest</label2>
						</labels>
					</clipitem>
					<enabled>TRUE</enabled>
					<locked>FALSE</locked>
					<outputchannelindex>2</outputchannelindex>
				</track>
				<track TL.SQTrackAudioKeyframeStyle="0" TL.SQTrackShy="0" TL.SQTrackExpandedHeight="25" TL.SQTrackExpanded="0" MZ.TrackTargeted="0" PannerCurrentValue="0.5" PannerIsInverted="true" PannerStartKeyframe="-91445760000000000,0.5,0,0,0,0,0,0" PannerName="Balance" currentExplodedTrackIndex="0" totalExplodedTrackCount="2" premiereTrackType="Stereo">
					<clipitem id="clipitem-1997" premiereChannelType="stereo">
						<masterclipid>masterclip-855</masterclipid>
						<name>OTB_Sound-1.aif</name>
						<enabled>TRUE</enabled>
						<duration>151</duration>
						<rate>
							<timebase>25</timebase>
							<ntsc>FALSE</ntsc>
						</rate>
						<start>784</start>
						<end>929</end>
						<in>6</in>
						<out>151</out>
						<pproTicksIn>60963840000</pproTicksIn>
						<pproTicksOut>1534256640000</pproTicksOut>
						<file id="file-709">
							<name>OTB_Sound-1.aif</name>
							<pathurl>file://localhost/Volumes/1Tb/_MUZ_TV/graphika/RU-21/MOD/OTB_Sound-1.aif</pathurl>
							<rate>
								<timebase>25</timebase>
								<ntsc>FALSE</ntsc>
							</rate>
							<duration>151</duration>
							<timecode>
								<rate>
									<timebase>25</timebase>
									<ntsc>FALSE</ntsc>
								</rate>
								<string>00:08:37:15</string>
								<frame>12940</frame>
								<displayformat>NDF</displayformat>
							</timecode>
							<media>
								<audio>
									<samplecharacteristics>
										<depth>16</depth>
										<samplerate>48000</samplerate>
									</samplecharacteristics>
									<channelcount>2</channelcount>
								</audio>
							</media>
						</file>
						<sourcetrack>
							<mediatype>audio</mediatype>
							<trackindex>1</trackindex>
						</sourcetrack>
						<filter>
							<effect>
								<name>Audio Levels</name>
								<effectid>audiolevels</effectid>
								<effectcategory>audiolevels</effectcategory>
								<effecttype>audiolevels</effecttype>
								<mediatype>audio</mediatype>
								<pproBypass>false</pproBypass>
								<parameter authoringApp="PremierePro">
									<parameterid>level</parameterid>
									<name>Level</name>
									<valuemin>0</valuemin>
									<valuemax>3.98109</valuemax>
									<value>0.346289</value>
									<keyframe>
										<when>97</when>
										<value>1</value>
									</keyframe>
									<keyframe>
										<when>125</when>
										<value>0.346289</value>
									</keyframe>
								</parameter>
							</effect>
						</filter>
							<marker>
								<comment></comment>
								<name></name>
								<in>31</in>
								<out>-1</out>
								<pproColor>4294967295</pproColor>
							</marker>
							<marker>
								<comment></comment>
								<name></name>
								<in>106</in>
								<out>-1</out>
								<pproColor>4294967295</pproColor>
							</marker>
						<link>
							<linkclipref>clipitem-1997</linkclipref>
							<mediatype>audio</mediatype>
							<trackindex>3</trackindex>
							<clipindex>1</clipindex>
							<groupindex>1</groupindex>
						</link>
						<link>
							<linkclipref>clipitem-2010</linkclipref>
							<mediatype>audio</mediatype>
							<trackindex>4</trackindex>
							<clipindex>1</clipindex>
							<groupindex>1</groupindex>
						</link>
						<logginginfo>
							<description></description>
							<scene></scene>
							<shottake></shottake>
							<lognote></lognote>
							<good></good>
							<originalvideofilename></originalvideofilename>
							<originalaudiofilename></originalaudiofilename>
						</logginginfo>
						<colorinfo>
							<lut></lut>
							<lut1></lut1>
							<asc_sop></asc_sop>
							<asc_sat></asc_sat>
							<lut2></lut2>
						</colorinfo>
						<labels>
							<label2>Caribbean</label2>
						</labels>
					</clipitem>
					<clipitem id="clipitem-1998" premiereChannelType="stereo">
						<masterclipid>masterclip-856</masterclipid>
						<name>OTB_Sound-1.aif</name>
						<enabled>TRUE</enabled>
						<duration>151</duration>
						<rate>
							<timebase>25</timebase>
							<ntsc>FALSE</ntsc>
						</rate>
						<start>5673</start>
						<end>5818</end>
						<in>6</in>
						<out>151</out>
						<pproTicksIn>60963840000</pproTicksIn>
						<pproTicksOut>1534256640000</pproTicksOut>
						<file id="file-710">
							<name>OTB_Sound-1.aif</name>
							<pathurl>file://localhost/Volumes/1Tb/_MUZ_TV/graphika/RU-21/MOD/OTB_Sound-1.aif</pathurl>
							<rate>
								<timebase>25</timebase>
								<ntsc>FALSE</ntsc>
							</rate>
							<duration>151</duration>
							<timecode>
								<rate>
									<timebase>25</timebase>
									<ntsc>FALSE</ntsc>
								</rate>
								<string>00:08:37:15</string>
								<frame>12940</frame>
								<displayformat>NDF</displayformat>
							</timecode>
							<media>
								<audio>
									<samplecharacteristics>
										<depth>16</depth>
										<samplerate>48000</samplerate>
									</samplecharacteristics>
									<channelcount>2</channelcount>
								</audio>
							</media>
						</file>
						<sourcetrack>
							<mediatype>audio</mediatype>
							<trackindex>1</trackindex>
						</sourcetrack>
						<filter>
							<effect>
								<name>Audio Levels</name>
								<effectid>audiolevels</effectid>
								<effectcategory>audiolevels</effectcategory>
								<effecttype>audiolevels</effecttype>
								<mediatype>audio</mediatype>
								<pproBypass>false</pproBypass>
								<parameter authoringApp="PremierePro">
									<parameterid>level</parameterid>
									<name>Level</name>
									<valuemin>0</valuemin>
									<valuemax>3.98109</valuemax>
									<value>0.346289</value>
									<keyframe>
										<when>97</when>
										<value>1</value>
									</keyframe>
									<keyframe>
										<when>125</when>
										<value>0.346289</value>
									</keyframe>
								</parameter>
							</effect>
						</filter>
							<marker>
								<comment></comment>
								<name></name>
								<in>106</in>
								<out>-1</out>
								<pproColor>4294967295</pproColor>
							</marker>
							<marker>
								<comment></comment>
								<name></name>
								<in>31</in>
								<out>-1</out>
								<pproColor>4294967295</pproColor>
							</marker>
						<link>
							<linkclipref>clipitem-1998</linkclipref>
							<mediatype>audio</mediatype>
							<trackindex>3</trackindex>
							<clipindex>2</clipindex>
							<groupindex>1</groupindex>
						</link>
						<link>
							<linkclipref>clipitem-2011</linkclipref>
							<mediatype>audio</mediatype>
							<trackindex>4</trackindex>
							<clipindex>2</clipindex>
							<groupindex>1</groupindex>
						</link>
						<logginginfo>
							<description></description>
							<scene></scene>
							<shottake></shottake>
							<lognote></lognote>
							<good></good>
							<originalvideofilename></originalvideofilename>
							<originalaudiofilename></originalaudiofilename>
						</logginginfo>
						<colorinfo>
							<lut></lut>
							<lut1></lut1>
							<asc_sop></asc_sop>
							<asc_sat></asc_sat>
							<lut2></lut2>
						</colorinfo>
						<labels>
							<label2>Caribbean</label2>
						</labels>
					</clipitem>
					<clipitem id="clipitem-1999" premiereChannelType="stereo">
						<masterclipid>masterclip-857</masterclipid>
						<name>OTB_Sound-1.aif</name>
						<enabled>TRUE</enabled>
						<duration>151</duration>
						<rate>
							<timebase>25</timebase>
							<ntsc>FALSE</ntsc>
						</rate>
						<start>10949</start>
						<end>11094</end>
						<in>6</in>
						<out>151</out>
						<pproTicksIn>60963840000</pproTicksIn>
						<pproTicksOut>1534256640000</pproTicksOut>
						<file id="file-711">
							<name>OTB_Sound-1.aif</name>
							<pathurl>file://localhost/Volumes/1Tb/_MUZ_TV/graphika/RU-21/MOD/OTB_Sound-1.aif</pathurl>
							<rate>
								<timebase>25</timebase>
								<ntsc>FALSE</ntsc>
							</rate>
							<duration>151</duration>
							<timecode>
								<rate>
									<timebase>25</timebase>
									<ntsc>FALSE</ntsc>
								</rate>
								<string>00:08:37:15</string>
								<frame>12940</frame>
								<displayformat>NDF</displayformat>
							</timecode>
							<media>
								<audio>
									<samplecharacteristics>
										<depth>16</depth>
										<samplerate>48000</samplerate>
									</samplecharacteristics>
									<channelcount>2</channelcount>
								</audio>
							</media>
						</file>
						<sourcetrack>
							<mediatype>audio</mediatype>
							<trackindex>1</trackindex>
						</sourcetrack>
						<filter>
							<effect>
								<name>Audio Levels</name>
								<effectid>audiolevels</effectid>
								<effectcategory>audiolevels</effectcategory>
								<effecttype>audiolevels</effecttype>
								<mediatype>audio</mediatype>
								<pproBypass>false</pproBypass>
								<parameter authoringApp="PremierePro">
									<parameterid>level</parameterid>
									<name>Level</name>
									<valuemin>0</valuemin>
									<valuemax>3.98109</valuemax>
									<value>1</value>
									<keyframe>
										<when>97</when>
										<value>1</value>
									</keyframe>
									<keyframe>
										<when>125</when>
										<value>1</value>
									</keyframe>
								</parameter>
							</effect>
						</filter>
							<marker>
								<comment></comment>
								<name></name>
								<in>31</in>
								<out>-1</out>
								<pproColor>4294967295</pproColor>
							</marker>
							<marker>
								<comment></comment>
								<name></name>
								<in>106</in>
								<out>-1</out>
								<pproColor>4294967295</pproColor>
							</marker>
						<link>
							<linkclipref>clipitem-1999</linkclipref>
							<mediatype>audio</mediatype>
							<trackindex>3</trackindex>
							<clipindex>3</clipindex>
							<groupindex>1</groupindex>
						</link>
						<link>
							<linkclipref>clipitem-2012</linkclipref>
							<mediatype>audio</mediatype>
							<trackindex>4</trackindex>
							<clipindex>3</clipindex>
							<groupindex>1</groupindex>
						</link>
						<logginginfo>
							<description></description>
							<scene></scene>
							<shottake></shottake>
							<lognote></lognote>
							<good></good>
							<originalvideofilename></originalvideofilename>
							<originalaudiofilename></originalaudiofilename>
						</logginginfo>
						<colorinfo>
							<lut></lut>
							<lut1></lut1>
							<asc_sop></asc_sop>
							<asc_sat></asc_sat>
							<lut2></lut2>
						</colorinfo>
						<labels>
							<label2>Caribbean</label2>
						</labels>
					</clipitem>
					<clipitem id="clipitem-2000" premiereChannelType="stereo">
						<masterclipid>masterclip-858</masterclipid>
						<name>OTB_Sound-1.aif</name>
						<enabled>TRUE</enabled>
						<duration>151</duration>
						<rate>
							<timebase>25</timebase>
							<ntsc>FALSE</ntsc>
						</rate>
						<start>15627</start>
						<end>15772</end>
						<in>6</in>
						<out>151</out>
						<pproTicksIn>60963840000</pproTicksIn>
						<pproTicksOut>1534256640000</pproTicksOut>
						<file id="file-712">
							<name>OTB_Sound-1.aif</name>
							<pathurl>file://localhost/Volumes/1Tb/_MUZ_TV/graphika/RU-21/MOD/OTB_Sound-1.aif</pathurl>
							<rate>
								<timebase>25</timebase>
								<ntsc>FALSE</ntsc>
							</rate>
							<duration>151</duration>
							<timecode>
								<rate>
									<timebase>25</timebase>
									<ntsc>FALSE</ntsc>
								</rate>
								<string>00:08:37:15</string>
								<frame>12940</frame>
								<displayformat>NDF</displayformat>
							</timecode>
							<media>
								<audio>
									<samplecharacteristics>
										<depth>16</depth>
										<samplerate>48000</samplerate>
									</samplecharacteristics>
									<channelcount>2</channelcount>
								</audio>
							</media>
						</file>
						<sourcetrack>
							<mediatype>audio</mediatype>
							<trackindex>1</trackindex>
						</sourcetrack>
						<filter>
							<effect>
								<name>Audio Levels</name>
								<effectid>audiolevels</effectid>
								<effectcategory>audiolevels</effectcategory>
								<effecttype>audiolevels</effecttype>
								<mediatype>audio</mediatype>
								<pproBypass>false</pproBypass>
								<parameter authoringApp="PremierePro">
									<parameterid>level</parameterid>
									<name>Level</name>
									<valuemin>0</valuemin>
									<valuemax>3.98109</valuemax>
									<value>1</value>
									<keyframe>
										<when>97</when>
										<value>1</value>
									</keyframe>
									<keyframe>
										<when>125</when>
										<value>1</value>
									</keyframe>
								</parameter>
							</effect>
						</filter>
							<marker>
								<comment></comment>
								<name></name>
								<in>106</in>
								<out>-1</out>
								<pproColor>4294967295</pproColor>
							</marker>
							<marker>
								<comment></comment>
								<name></name>
								<in>31</in>
								<out>-1</out>
								<pproColor>4294967295</pproColor>
							</marker>
						<link>
							<linkclipref>clipitem-2000</linkclipref>
							<mediatype>audio</mediatype>
							<trackindex>3</trackindex>
							<clipindex>4</clipindex>
							<groupindex>1</groupindex>
						</link>
						<link>
							<linkclipref>clipitem-2013</linkclipref>
							<mediatype>audio</mediatype>
							<trackindex>4</trackindex>
							<clipindex>4</clipindex>
							<groupindex>1</groupindex>
						</link>
						<logginginfo>
							<description></description>
							<scene></scene>
							<shottake></shottake>
							<lognote></lognote>
							<good></good>
							<originalvideofilename></originalvideofilename>
							<originalaudiofilename></originalaudiofilename>
						</logginginfo>
						<colorinfo>
							<lut></lut>
							<lut1></lut1>
							<asc_sop></asc_sop>
							<asc_sat></asc_sat>
							<lut2></lut2>
						</colorinfo>
						<labels>
							<label2>Caribbean</label2>
						</labels>
					</clipitem>
					<clipitem id="clipitem-2001" premiereChannelType="stereo">
						<masterclipid>masterclip-859</masterclipid>
						<name>OTB_Sound-1.aif</name>
						<enabled>TRUE</enabled>
						<duration>151</duration>
						<rate>
							<timebase>25</timebase>
							<ntsc>FALSE</ntsc>
						</rate>
						<start>21238</start>
						<end>21383</end>
						<in>6</in>
						<out>151</out>
						<pproTicksIn>60963840000</pproTicksIn>
						<pproTicksOut>1534256640000</pproTicksOut>
						<file id="file-713">
							<name>OTB_Sound-1.aif</name>
							<pathurl>file://localhost/Volumes/1Tb/_MUZ_TV/graphika/RU-21/MOD/OTB_Sound-1.aif</pathurl>
							<rate>
								<timebase>25</timebase>
								<ntsc>FALSE</ntsc>
							</rate>
							<duration>151</duration>
							<timecode>
								<rate>
									<timebase>25</timebase>
									<ntsc>FALSE</ntsc>
								</rate>
								<string>00:08:37:15</string>
								<frame>12940</frame>
								<displayformat>NDF</displayformat>
							</timecode>
							<media>
								<audio>
									<samplecharacteristics>
										<depth>16</depth>
										<samplerate>48000</samplerate>
									</samplecharacteristics>
									<channelcount>2</channelcount>
								</audio>
							</media>
						</file>
						<sourcetrack>
							<mediatype>audio</mediatype>
							<trackindex>1</trackindex>
						</sourcetrack>
						<filter>
							<effect>
								<name>Audio Levels</name>
								<effectid>audiolevels</effectid>
								<effectcategory>audiolevels</effectcategory>
								<effecttype>audiolevels</effecttype>
								<mediatype>audio</mediatype>
								<pproBypass>false</pproBypass>
								<parameter authoringApp="PremierePro">
									<parameterid>level</parameterid>
									<name>Level</name>
									<valuemin>0</valuemin>
									<valuemax>3.98109</valuemax>
									<value>1</value>
									<keyframe>
										<when>97</when>
										<value>1</value>
									</keyframe>
									<keyframe>
										<when>125</when>
										<value>1</value>
									</keyframe>
								</parameter>
							</effect>
						</filter>
							<marker>
								<comment></comment>
								<name></name>
								<in>106</in>
								<out>-1</out>
								<pproColor>4294967295</pproColor>
							</marker>
							<marker>
								<comment></comment>
								<name></name>
								<in>31</in>
								<out>-1</out>
								<pproColor>4294967295</pproColor>
							</marker>
						<link>
							<linkclipref>clipitem-2001</linkclipref>
							<mediatype>audio</mediatype>
							<trackindex>3</trackindex>
							<clipindex>5</clipindex>
							<groupindex>1</groupindex>
						</link>
						<link>
							<linkclipref>clipitem-2014</linkclipref>
							<mediatype>audio</mediatype>
							<trackindex>4</trackindex>
							<clipindex>5</clipindex>
							<groupindex>1</groupindex>
						</link>
						<logginginfo>
							<description></description>
							<scene></scene>
							<shottake></shottake>
							<lognote></lognote>
							<good></good>
							<originalvideofilename></originalvideofilename>
							<originalaudiofilename></originalaudiofilename>
						</logginginfo>
						<colorinfo>
							<lut></lut>
							<lut1></lut1>
							<asc_sop></asc_sop>
							<asc_sat></asc_sat>
							<lut2></lut2>
						</colorinfo>
						<labels>
							<label2>Caribbean</label2>
						</labels>
					</clipitem>
					<clipitem id="clipitem-2002" premiereChannelType="stereo">
						<masterclipid>masterclip-860</masterclipid>
						<name>OTB_Sound-1.aif</name>
						<enabled>TRUE</enabled>
						<duration>151</duration>
						<rate>
							<timebase>25</timebase>
							<ntsc>FALSE</ntsc>
						</rate>
						<start>27319</start>
						<end>27464</end>
						<in>6</in>
						<out>151</out>
						<pproTicksIn>60963840000</pproTicksIn>
						<pproTicksOut>1534256640000</pproTicksOut>
						<file id="file-714">
							<name>OTB_Sound-1.aif</name>
							<pathurl>file://localhost/Volumes/1Tb/_MUZ_TV/graphika/RU-21/MOD/OTB_Sound-1.aif</pathurl>
							<rate>
								<timebase>25</timebase>
								<ntsc>FALSE</ntsc>
							</rate>
							<duration>151</duration>
							<timecode>
								<rate>
									<timebase>25</timebase>
									<ntsc>FALSE</ntsc>
								</rate>
								<string>00:08:37:15</string>
								<frame>12940</frame>
								<displayformat>NDF</displayformat>
							</timecode>
							<media>
								<audio>
									<samplecharacteristics>
										<depth>16</depth>
										<samplerate>48000</samplerate>
									</samplecharacteristics>
									<channelcount>2</channelcount>
								</audio>
							</media>
						</file>
						<sourcetrack>
							<mediatype>audio</mediatype>
							<trackindex>1</trackindex>
						</sourcetrack>
						<filter>
							<effect>
								<name>Audio Levels</name>
								<effectid>audiolevels</effectid>
								<effectcategory>audiolevels</effectcategory>
								<effecttype>audiolevels</effecttype>
								<mediatype>audio</mediatype>
								<pproBypass>false</pproBypass>
								<parameter authoringApp="PremierePro">
									<parameterid>level</parameterid>
									<name>Level</name>
									<valuemin>0</valuemin>
									<valuemax>3.98109</valuemax>
									<value>1</value>
									<keyframe>
										<when>97</when>
										<value>1</value>
									</keyframe>
									<keyframe>
										<when>125</when>
										<value>1</value>
									</keyframe>
								</parameter>
							</effect>
						</filter>
							<marker>
								<comment></comment>
								<name></name>
								<in>31</in>
								<out>-1</out>
								<pproColor>4294967295</pproColor>
							</marker>
							<marker>
								<comment></comment>
								<name></name>
								<in>106</in>
								<out>-1</out>
								<pproColor>4294967295</pproColor>
							</marker>
						<link>
							<linkclipref>clipitem-2002</linkclipref>
							<mediatype>audio</mediatype>
							<trackindex>3</trackindex>
							<clipindex>6</clipindex>
							<groupindex>1</groupindex>
						</link>
						<link>
							<linkclipref>clipitem-2015</linkclipref>
							<mediatype>audio</mediatype>
							<trackindex>4</trackindex>
							<clipindex>6</clipindex>
							<groupindex>1</groupindex>
						</link>
						<logginginfo>
							<description></description>
							<scene></scene>
							<shottake></shottake>
							<lognote></lognote>
							<good></good>
							<originalvideofilename></originalvideofilename>
							<originalaudiofilename></originalaudiofilename>
						</logginginfo>
						<colorinfo>
							<lut></lut>
							<lut1></lut1>
							<asc_sop></asc_sop>
							<asc_sat></asc_sat>
							<lut2></lut2>
						</colorinfo>
						<labels>
							<label2>Caribbean</label2>
						</labels>
					</clipitem>
					<clipitem id="clipitem-2003" premiereChannelType="stereo">
						<masterclipid>masterclip-861</masterclipid>
						<name>OTB_Sound-1.aif</name>
						<enabled>TRUE</enabled>
						<duration>151</duration>
						<rate>
							<timebase>25</timebase>
							<ntsc>FALSE</ntsc>
						</rate>
						<start>34683</start>
						<end>34828</end>
						<in>6</in>
						<out>151</out>
						<pproTicksIn>60963840000</pproTicksIn>
						<pproTicksOut>1534256640000</pproTicksOut>
						<file id="file-715">
							<name>OTB_Sound-1.aif</name>
							<pathurl>file://localhost/Volumes/1Tb/_MUZ_TV/graphika/RU-21/MOD/OTB_Sound-1.aif</pathurl>
							<rate>
								<timebase>25</timebase>
								<ntsc>FALSE</ntsc>
							</rate>
							<duration>151</duration>
							<timecode>
								<rate>
									<timebase>25</timebase>
									<ntsc>FALSE</ntsc>
								</rate>
								<string>00:08:37:15</string>
								<frame>12940</frame>
								<displayformat>NDF</displayformat>
							</timecode>
							<media>
								<audio>
									<samplecharacteristics>
										<depth>16</depth>
										<samplerate>48000</samplerate>
									</samplecharacteristics>
									<channelcount>2</channelcount>
								</audio>
							</media>
						</file>
						<sourcetrack>
							<mediatype>audio</mediatype>
							<trackindex>1</trackindex>
						</sourcetrack>
						<filter>
							<effect>
								<name>Audio Levels</name>
								<effectid>audiolevels</effectid>
								<effectcategory>audiolevels</effectcategory>
								<effecttype>audiolevels</effecttype>
								<mediatype>audio</mediatype>
								<pproBypass>false</pproBypass>
								<parameter authoringApp="PremierePro">
									<parameterid>level</parameterid>
									<name>Level</name>
									<valuemin>0</valuemin>
									<valuemax>3.98109</valuemax>
									<value>1</value>
									<keyframe>
										<when>97</when>
										<value>1</value>
									</keyframe>
									<keyframe>
										<when>125</when>
										<value>1</value>
									</keyframe>
								</parameter>
							</effect>
						</filter>
							<marker>
								<comment></comment>
								<name></name>
								<in>106</in>
								<out>-1</out>
								<pproColor>4294967295</pproColor>
							</marker>
							<marker>
								<comment></comment>
								<name></name>
								<in>31</in>
								<out>-1</out>
								<pproColor>4294967295</pproColor>
							</marker>
						<link>
							<linkclipref>clipitem-2003</linkclipref>
							<mediatype>audio</mediatype>
							<trackindex>3</trackindex>
							<clipindex>7</clipindex>
							<groupindex>1</groupindex>
						</link>
						<link>
							<linkclipref>clipitem-2016</linkclipref>
							<mediatype>audio</mediatype>
							<trackindex>4</trackindex>
							<clipindex>7</clipindex>
							<groupindex>1</groupindex>
						</link>
						<logginginfo>
							<description></description>
							<scene></scene>
							<shottake></shottake>
							<lognote></lognote>
							<good></good>
							<originalvideofilename></originalvideofilename>
							<originalaudiofilename></originalaudiofilename>
						</logginginfo>
						<colorinfo>
							<lut></lut>
							<lut1></lut1>
							<asc_sop></asc_sop>
							<asc_sat></asc_sat>
							<lut2></lut2>
						</colorinfo>
						<labels>
							<label2>Caribbean</label2>
						</labels>
					</clipitem>
					<clipitem id="clipitem-2004" premiereChannelType="stereo">
						<masterclipid>masterclip-862</masterclipid>
						<name>OTB_Sound-1.aif</name>
						<enabled>TRUE</enabled>
						<duration>151</duration>
						<rate>
							<timebase>25</timebase>
							<ntsc>FALSE</ntsc>
						</rate>
						<start>39990</start>
						<end>40135</end>
						<in>6</in>
						<out>151</out>
						<pproTicksIn>60963840000</pproTicksIn>
						<pproTicksOut>1534256640000</pproTicksOut>
						<file id="file-716">
							<name>OTB_Sound-1.aif</name>
							<pathurl>file://localhost/Volumes/1Tb/_MUZ_TV/graphika/RU-21/MOD/OTB_Sound-1.aif</pathurl>
							<rate>
								<timebase>25</timebase>
								<ntsc>FALSE</ntsc>
							</rate>
							<duration>151</duration>
							<timecode>
								<rate>
									<timebase>25</timebase>
									<ntsc>FALSE</ntsc>
								</rate>
								<string>00:08:37:15</string>
								<frame>12940</frame>
								<displayformat>NDF</displayformat>
							</timecode>
							<media>
								<audio>
									<samplecharacteristics>
										<depth>16</depth>
										<samplerate>48000</samplerate>
									</samplecharacteristics>
									<channelcount>2</channelcount>
								</audio>
							</media>
						</file>
						<sourcetrack>
							<mediatype>audio</mediatype>
							<trackindex>1</trackindex>
						</sourcetrack>
						<filter>
							<effect>
								<name>Audio Levels</name>
								<effectid>audiolevels</effectid>
								<effectcategory>audiolevels</effectcategory>
								<effecttype>audiolevels</effecttype>
								<mediatype>audio</mediatype>
								<pproBypass>false</pproBypass>
								<parameter authoringApp="PremierePro">
									<parameterid>level</parameterid>
									<name>Level</name>
									<valuemin>0</valuemin>
									<valuemax>3.98109</valuemax>
									<value>1</value>
									<keyframe>
										<when>97</when>
										<value>1</value>
									</keyframe>
									<keyframe>
										<when>125</when>
										<value>1</value>
									</keyframe>
								</parameter>
							</effect>
						</filter>
							<marker>
								<comment></comment>
								<name></name>
								<in>31</in>
								<out>-1</out>
								<pproColor>4294967295</pproColor>
							</marker>
							<marker>
								<comment></comment>
								<name></name>
								<in>106</in>
								<out>-1</out>
								<pproColor>4294967295</pproColor>
							</marker>
						<link>
							<linkclipref>clipitem-2004</linkclipref>
							<mediatype>audio</mediatype>
							<trackindex>3</trackindex>
							<clipindex>8</clipindex>
							<groupindex>1</groupindex>
						</link>
						<link>
							<linkclipref>clipitem-2017</linkclipref>
							<mediatype>audio</mediatype>
							<trackindex>4</trackindex>
							<clipindex>8</clipindex>
							<groupindex>1</groupindex>
						</link>
						<logginginfo>
							<description></description>
							<scene></scene>
							<shottake></shottake>
							<lognote></lognote>
							<good></good>
							<originalvideofilename></originalvideofilename>
							<originalaudiofilename></originalaudiofilename>
						</logginginfo>
						<colorinfo>
							<lut></lut>
							<lut1></lut1>
							<asc_sop></asc_sop>
							<asc_sat></asc_sat>
							<lut2></lut2>
						</colorinfo>
						<labels>
							<label2>Caribbean</label2>
						</labels>
					</clipitem>
					<clipitem id="clipitem-2005" premiereChannelType="stereo">
						<masterclipid>masterclip-863</masterclipid>
						<name>OTB_Sound-1.aif</name>
						<enabled>TRUE</enabled>
						<duration>151</duration>
						<rate>
							<timebase>25</timebase>
							<ntsc>FALSE</ntsc>
						</rate>
						<start>43674</start>
						<end>43819</end>
						<in>6</in>
						<out>151</out>
						<pproTicksIn>60963840000</pproTicksIn>
						<pproTicksOut>1534256640000</pproTicksOut>
						<file id="file-717">
							<name>OTB_Sound-1.aif</name>
							<pathurl>file://localhost/Volumes/1Tb/_MUZ_TV/graphika/RU-21/MOD/OTB_Sound-1.aif</pathurl>
							<rate>
								<timebase>25</timebase>
								<ntsc>FALSE</ntsc>
							</rate>
							<duration>151</duration>
							<timecode>
								<rate>
									<timebase>25</timebase>
									<ntsc>FALSE</ntsc>
								</rate>
								<string>00:08:37:15</string>
								<frame>12940</frame>
								<displayformat>NDF</displayformat>
							</timecode>
							<media>
								<audio>
									<samplecharacteristics>
										<depth>16</depth>
										<samplerate>48000</samplerate>
									</samplecharacteristics>
									<channelcount>2</channelcount>
								</audio>
							</media>
						</file>
						<sourcetrack>
							<mediatype>audio</mediatype>
							<trackindex>1</trackindex>
						</sourcetrack>
						<filter>
							<effect>
								<name>Audio Levels</name>
								<effectid>audiolevels</effectid>
								<effectcategory>audiolevels</effectcategory>
								<effecttype>audiolevels</effecttype>
								<mediatype>audio</mediatype>
								<pproBypass>false</pproBypass>
								<parameter authoringApp="PremierePro">
									<parameterid>level</parameterid>
									<name>Level</name>
									<valuemin>0</valuemin>
									<valuemax>3.98109</valuemax>
									<value>1</value>
									<keyframe>
										<when>97</when>
										<value>1</value>
									</keyframe>
									<keyframe>
										<when>125</when>
										<value>1</value>
									</keyframe>
								</parameter>
							</effect>
						</filter>
							<marker>
								<comment></comment>
								<name></name>
								<in>106</in>
								<out>-1</out>
								<pproColor>4294967295</pproColor>
							</marker>
							<marker>
								<comment></comment>
								<name></name>
								<in>31</in>
								<out>-1</out>
								<pproColor>4294967295</pproColor>
							</marker>
						<link>
							<linkclipref>clipitem-2005</linkclipref>
							<mediatype>audio</mediatype>
							<trackindex>3</trackindex>
							<clipindex>9</clipindex>
							<groupindex>1</groupindex>
						</link>
						<link>
							<linkclipref>clipitem-2018</linkclipref>
							<mediatype>audio</mediatype>
							<trackindex>4</trackindex>
							<clipindex>9</clipindex>
							<groupindex>1</groupindex>
						</link>
						<logginginfo>
							<description></description>
							<scene></scene>
							<shottake></shottake>
							<lognote></lognote>
							<good></good>
							<originalvideofilename></originalvideofilename>
							<originalaudiofilename></originalaudiofilename>
						</logginginfo>
						<colorinfo>
							<lut></lut>
							<lut1></lut1>
							<asc_sop></asc_sop>
							<asc_sat></asc_sat>
							<lut2></lut2>
						</colorinfo>
						<labels>
							<label2>Caribbean</label2>
						</labels>
					</clipitem>
					<clipitem id="clipitem-2006" premiereChannelType="stereo">
						<masterclipid>masterclip-864</masterclipid>
						<name>OTB_Sound-1.aif</name>
						<enabled>TRUE</enabled>
						<duration>151</duration>
						<rate>
							<timebase>25</timebase>
							<ntsc>FALSE</ntsc>
						</rate>
						<start>49998</start>
						<end>50143</end>
						<in>6</in>
						<out>151</out>
						<pproTicksIn>60963840000</pproTicksIn>
						<pproTicksOut>1534256640000</pproTicksOut>
						<file id="file-718">
							<name>OTB_Sound-1.aif</name>
							<pathurl>file://localhost/Volumes/1Tb/_MUZ_TV/graphika/RU-21/MOD/OTB_Sound-1.aif</pathurl>
							<rate>
								<timebase>25</timebase>
								<ntsc>FALSE</ntsc>
							</rate>
							<duration>151</duration>
							<timecode>
								<rate>
									<timebase>25</timebase>
									<ntsc>FALSE</ntsc>
								</rate>
								<string>00:08:37:15</string>
								<frame>12940</frame>
								<displayformat>NDF</displayformat>
							</timecode>
							<media>
								<audio>
									<samplecharacteristics>
										<depth>16</depth>
										<samplerate>48000</samplerate>
									</samplecharacteristics>
									<channelcount>2</channelcount>
								</audio>
							</media>
						</file>
						<sourcetrack>
							<mediatype>audio</mediatype>
							<trackindex>1</trackindex>
						</sourcetrack>
						<filter>
							<effect>
								<name>Audio Levels</name>
								<effectid>audiolevels</effectid>
								<effectcategory>audiolevels</effectcategory>
								<effecttype>audiolevels</effecttype>
								<mediatype>audio</mediatype>
								<pproBypass>false</pproBypass>
								<parameter authoringApp="PremierePro">
									<parameterid>level</parameterid>
									<name>Level</name>
									<valuemin>0</valuemin>
									<valuemax>3.98109</valuemax>
									<value>1</value>
									<keyframe>
										<when>97</when>
										<value>1</value>
									</keyframe>
									<keyframe>
										<when>125</when>
										<value>1</value>
									</keyframe>
								</parameter>
							</effect>
						</filter>
							<marker>
								<comment></comment>
								<name></name>
								<in>31</in>
								<out>-1</out>
								<pproColor>4294967295</pproColor>
							</marker>
							<marker>
								<comment></comment>
								<name></name>
								<in>106</in>
								<out>-1</out>
								<pproColor>4294967295</pproColor>
							</marker>
						<link>
							<linkclipref>clipitem-2006</linkclipref>
							<mediatype>audio</mediatype>
							<trackindex>3</trackindex>
							<clipindex>10</clipindex>
							<groupindex>1</groupindex>
						</link>
						<link>
							<linkclipref>clipitem-2019</linkclipref>
							<mediatype>audio</mediatype>
							<trackindex>4</trackindex>
							<clipindex>10</clipindex>
							<groupindex>1</groupindex>
						</link>
						<logginginfo>
							<description></description>
							<scene></scene>
							<shottake></shottake>
							<lognote></lognote>
							<good></good>
							<originalvideofilename></originalvideofilename>
							<originalaudiofilename></originalaudiofilename>
						</logginginfo>
						<colorinfo>
							<lut></lut>
							<lut1></lut1>
							<asc_sop></asc_sop>
							<asc_sat></asc_sat>
							<lut2></lut2>
						</colorinfo>
						<labels>
							<label2>Caribbean</label2>
						</labels>
					</clipitem>
					<clipitem id="clipitem-2007" premiereChannelType="stereo">
						<masterclipid>masterclip-865</masterclipid>
						<name>OTB_Sound-1.aif</name>
						<enabled>TRUE</enabled>
						<duration>151</duration>
						<rate>
							<timebase>25</timebase>
							<ntsc>FALSE</ntsc>
						</rate>
						<start>54564</start>
						<end>54709</end>
						<in>6</in>
						<out>151</out>
						<pproTicksIn>60963840000</pproTicksIn>
						<pproTicksOut>1534256640000</pproTicksOut>
						<file id="file-719">
							<name>OTB_Sound-1.aif</name>
							<pathurl>file://localhost/Volumes/1Tb/_MUZ_TV/graphika/RU-21/MOD/OTB_Sound-1.aif</pathurl>
							<rate>
								<timebase>25</timebase>
								<ntsc>FALSE</ntsc>
							</rate>
							<duration>151</duration>
							<timecode>
								<rate>
									<timebase>25</timebase>
									<ntsc>FALSE</ntsc>
								</rate>
								<string>00:08:37:15</string>
								<frame>12940</frame>
								<displayformat>NDF</displayformat>
							</timecode>
							<media>
								<audio>
									<samplecharacteristics>
										<depth>16</depth>
										<samplerate>48000</samplerate>
									</samplecharacteristics>
									<channelcount>2</channelcount>
								</audio>
							</media>
						</file>
						<sourcetrack>
							<mediatype>audio</mediatype>
							<trackindex>1</trackindex>
						</sourcetrack>
						<filter>
							<effect>
								<name>Audio Levels</name>
								<effectid>audiolevels</effectid>
								<effectcategory>audiolevels</effectcategory>
								<effecttype>audiolevels</effecttype>
								<mediatype>audio</mediatype>
								<pproBypass>false</pproBypass>
								<parameter authoringApp="PremierePro">
									<parameterid>level</parameterid>
									<name>Level</name>
									<valuemin>0</valuemin>
									<valuemax>3.98109</valuemax>
									<value>1</value>
									<keyframe>
										<when>97</when>
										<value>1</value>
									</keyframe>
									<keyframe>
										<when>125</when>
										<value>0.346289</value>
									</keyframe>
								</parameter>
							</effect>
						</filter>
							<marker>
								<comment></comment>
								<name></name>
								<in>106</in>
								<out>-1</out>
								<pproColor>4294967295</pproColor>
							</marker>
							<marker>
								<comment></comment>
								<name></name>
								<in>31</in>
								<out>-1</out>
								<pproColor>4294967295</pproColor>
							</marker>
						<link>
							<linkclipref>clipitem-2007</linkclipref>
							<mediatype>audio</mediatype>
							<trackindex>3</trackindex>
							<clipindex>11</clipindex>
							<groupindex>1</groupindex>
						</link>
						<link>
							<linkclipref>clipitem-2020</linkclipref>
							<mediatype>audio</mediatype>
							<trackindex>4</trackindex>
							<clipindex>11</clipindex>
							<groupindex>1</groupindex>
						</link>
						<logginginfo>
							<description></description>
							<scene></scene>
							<shottake></shottake>
							<lognote></lognote>
							<good></good>
							<originalvideofilename></originalvideofilename>
							<originalaudiofilename></originalaudiofilename>
						</logginginfo>
						<colorinfo>
							<lut></lut>
							<lut1></lut1>
							<asc_sop></asc_sop>
							<asc_sat></asc_sat>
							<lut2></lut2>
						</colorinfo>
						<labels>
							<label2>Caribbean</label2>
						</labels>
					</clipitem>
					<clipitem id="clipitem-2008" premiereChannelType="stereo">
						<masterclipid>masterclip-866</masterclipid>
						<name>OTB_Sound-1.aif</name>
						<enabled>TRUE</enabled>
						<duration>151</duration>
						<rate>
							<timebase>25</timebase>
							<ntsc>FALSE</ntsc>
						</rate>
						<start>60261</start>
						<end>60406</end>
						<in>6</in>
						<out>151</out>
						<pproTicksIn>60963840000</pproTicksIn>
						<pproTicksOut>1534256640000</pproTicksOut>
						<file id="file-720">
							<name>OTB_Sound-1.aif</name>
							<pathurl>file://localhost/Volumes/1Tb/_MUZ_TV/graphika/RU-21/MOD/OTB_Sound-1.aif</pathurl>
							<rate>
								<timebase>25</timebase>
								<ntsc>FALSE</ntsc>
							</rate>
							<duration>151</duration>
							<timecode>
								<rate>
									<timebase>25</timebase>
									<ntsc>FALSE</ntsc>
								</rate>
								<string>00:08:37:15</string>
								<frame>12940</frame>
								<displayformat>NDF</displayformat>
							</timecode>
							<media>
								<audio>
									<samplecharacteristics>
										<depth>16</depth>
										<samplerate>48000</samplerate>
									</samplecharacteristics>
									<channelcount>2</channelcount>
								</audio>
							</media>
						</file>
						<sourcetrack>
							<mediatype>audio</mediatype>
							<trackindex>1</trackindex>
						</sourcetrack>
						<filter>
							<effect>
								<name>Audio Levels</name>
								<effectid>audiolevels</effectid>
								<effectcategory>audiolevels</effectcategory>
								<effecttype>audiolevels</effecttype>
								<mediatype>audio</mediatype>
								<pproBypass>false</pproBypass>
								<parameter authoringApp="PremierePro">
									<parameterid>level</parameterid>
									<name>Level</name>
									<valuemin>0</valuemin>
									<valuemax>3.98109</valuemax>
									<value>1</value>
									<keyframe>
										<when>97</when>
										<value>1</value>
									</keyframe>
									<keyframe>
										<when>125</when>
										<value>1</value>
									</keyframe>
								</parameter>
							</effect>
						</filter>
							<marker>
								<comment></comment>
								<name></name>
								<in>31</in>
								<out>-1</out>
								<pproColor>4294967295</pproColor>
							</marker>
							<marker>
								<comment></comment>
								<name></name>
								<in>106</in>
								<out>-1</out>
								<pproColor>4294967295</pproColor>
							</marker>
						<link>
							<linkclipref>clipitem-2008</linkclipref>
							<mediatype>audio</mediatype>
							<trackindex>3</trackindex>
							<clipindex>12</clipindex>
							<groupindex>1</groupindex>
						</link>
						<link>
							<linkclipref>clipitem-2021</linkclipref>
							<mediatype>audio</mediatype>
							<trackindex>4</trackindex>
							<clipindex>12</clipindex>
							<groupindex>1</groupindex>
						</link>
						<logginginfo>
							<description></description>
							<scene></scene>
							<shottake></shottake>
							<lognote></lognote>
							<good></good>
							<originalvideofilename></originalvideofilename>
							<originalaudiofilename></originalaudiofilename>
						</logginginfo>
						<colorinfo>
							<lut></lut>
							<lut1></lut1>
							<asc_sop></asc_sop>
							<asc_sat></asc_sat>
							<lut2></lut2>
						</colorinfo>
						<labels>
							<label2>Caribbean</label2>
						</labels>
					</clipitem>
					<clipitem id="clipitem-2009" premiereChannelType="stereo">
						<masterclipid>masterclip-692</masterclipid>
						<name>MYZ_RusskiyChart_appProRes_v2.mov</name>
						<enabled>TRUE</enabled>
						<duration>299</duration>
						<rate>
							<timebase>25</timebase>
							<ntsc>FALSE</ntsc>
						</rate>
						<start>65718</start>
						<end>66000</end>
						<in>0</in>
						<out>282</out>
						<pproTicksIn>0</pproTicksIn>
						<pproTicksOut>2865300480000</pproTicksOut>
						<file id="file-572"/>
						<sourcetrack>
							<mediatype>audio</mediatype>
							<trackindex>1</trackindex>
						</sourcetrack>
						<filter>
							<effect>
								<name>Audio Levels</name>
								<effectid>audiolevels</effectid>
								<effectcategory>audiolevels</effectcategory>
								<effecttype>audiolevels</effecttype>
								<mediatype>audio</mediatype>
								<pproBypass>false</pproBypass>
								<parameter authoringApp="PremierePro">
									<parameterid>level</parameterid>
									<name>Level</name>
									<valuemin>0</valuemin>
									<valuemax>3.98109</valuemax>
									<value>0</value>
									<keyframe>
										<when>0</when>
										<value>0</value>
									</keyframe>
									<keyframe>
										<when>19</when>
										<value>0.158489</value>
									</keyframe>
									<keyframe>
										<when>262</when>
										<value>0.158489</value>
									</keyframe>
								</parameter>
							</effect>
						</filter>
						<link>
							<linkclipref>clipitem-1717</linkclipref>
							<mediatype>video</mediatype>
							<trackindex>1</trackindex>
							<clipindex>51</clipindex>
						</link>
						<link>
							<linkclipref>clipitem-2009</linkclipref>
							<mediatype>audio</mediatype>
							<trackindex>3</trackindex>
							<clipindex>13</clipindex>
							<groupindex>1</groupindex>
						</link>
						<link>
							<linkclipref>clipitem-2022</linkclipref>
							<mediatype>audio</mediatype>
							<trackindex>4</trackindex>
							<clipindex>13</clipindex>
							<groupindex>1</groupindex>
						</link>
						<logginginfo>
							<description></description>
							<scene></scene>
							<shottake></shottake>
							<lognote></lognote>
							<good></good>
							<originalvideofilename></originalvideofilename>
							<originalaudiofilename></originalaudiofilename>
						</logginginfo>
						<colorinfo>
							<lut></lut>
							<lut1></lut1>
							<asc_sop></asc_sop>
							<asc_sat></asc_sat>
							<lut2></lut2>
						</colorinfo>
						<labels>
							<label2>Iris</label2>
						</labels>
					</clipitem>
					<enabled>TRUE</enabled>
					<locked>FALSE</locked>
					<outputchannelindex>1</outputchannelindex>
				</track>
				<track TL.SQTrackAudioKeyframeStyle="0" TL.SQTrackShy="0" TL.SQTrackExpandedHeight="25" TL.SQTrackExpanded="0" MZ.TrackTargeted="0" PannerCurrentValue="0.5" PannerIsInverted="true" PannerStartKeyframe="-91445760000000000,0.5,0,0,0,0,0,0" PannerName="Balance" currentExplodedTrackIndex="1" totalExplodedTrackCount="2" premiereTrackType="Stereo">
					<clipitem id="clipitem-2010" premiereChannelType="stereo">
						<masterclipid>masterclip-855</masterclipid>
						<name>OTB_Sound-1.aif</name>
						<enabled>TRUE</enabled>
						<duration>151</duration>
						<rate>
							<timebase>25</timebase>
							<ntsc>FALSE</ntsc>
						</rate>
						<start>784</start>
						<end>929</end>
						<in>6</in>
						<out>151</out>
						<pproTicksIn>60963840000</pproTicksIn>
						<pproTicksOut>1534256640000</pproTicksOut>
						<file id="file-709"/>
						<sourcetrack>
							<mediatype>audio</mediatype>
							<trackindex>2</trackindex>
						</sourcetrack>
						<filter>
							<effect>
								<name>Audio Levels</name>
								<effectid>audiolevels</effectid>
								<effectcategory>audiolevels</effectcategory>
								<effecttype>audiolevels</effecttype>
								<mediatype>audio</mediatype>
								<pproBypass>false</pproBypass>
								<parameter authoringApp="PremierePro">
									<parameterid>level</parameterid>
									<name>Level</name>
									<valuemin>0</valuemin>
									<valuemax>3.98109</valuemax>
									<value>0.346289</value>
									<keyframe>
										<when>97</when>
										<value>1</value>
									</keyframe>
									<keyframe>
										<when>125</when>
										<value>0.346289</value>
									</keyframe>
								</parameter>
							</effect>
						</filter>
							<marker>
								<comment></comment>
								<name></name>
								<in>31</in>
								<out>-1</out>
								<pproColor>4294967295</pproColor>
							</marker>
							<marker>
								<comment></comment>
								<name></name>
								<in>106</in>
								<out>-1</out>
								<pproColor>4294967295</pproColor>
							</marker>
						<link>
							<linkclipref>clipitem-1997</linkclipref>
							<mediatype>audio</mediatype>
							<trackindex>3</trackindex>
							<clipindex>1</clipindex>
							<groupindex>1</groupindex>
						</link>
						<link>
							<linkclipref>clipitem-2010</linkclipref>
							<mediatype>audio</mediatype>
							<trackindex>4</trackindex>
							<clipindex>1</clipindex>
							<groupindex>1</groupindex>
						</link>
						<logginginfo>
							<description></description>
							<scene></scene>
							<shottake></shottake>
							<lognote></lognote>
							<good></good>
							<originalvideofilename></originalvideofilename>
							<originalaudiofilename></originalaudiofilename>
						</logginginfo>
						<colorinfo>
							<lut></lut>
							<lut1></lut1>
							<asc_sop></asc_sop>
							<asc_sat></asc_sat>
							<lut2></lut2>
						</colorinfo>
						<labels>
							<label2>Caribbean</label2>
						</labels>
					</clipitem>
					<clipitem id="clipitem-2011" premiereChannelType="stereo">
						<masterclipid>masterclip-856</masterclipid>
						<name>OTB_Sound-1.aif</name>
						<enabled>TRUE</enabled>
						<duration>151</duration>
						<rate>
							<timebase>25</timebase>
							<ntsc>FALSE</ntsc>
						</rate>
						<start>5673</start>
						<end>5818</end>
						<in>6</in>
						<out>151</out>
						<pproTicksIn>60963840000</pproTicksIn>
						<pproTicksOut>1534256640000</pproTicksOut>
						<file id="file-710"/>
						<sourcetrack>
							<mediatype>audio</mediatype>
							<trackindex>2</trackindex>
						</sourcetrack>
						<filter>
							<effect>
								<name>Audio Levels</name>
								<effectid>audiolevels</effectid>
								<effectcategory>audiolevels</effectcategory>
								<effecttype>audiolevels</effecttype>
								<mediatype>audio</mediatype>
								<pproBypass>false</pproBypass>
								<parameter authoringApp="PremierePro">
									<parameterid>level</parameterid>
									<name>Level</name>
									<valuemin>0</valuemin>
									<valuemax>3.98109</valuemax>
									<value>0.346289</value>
									<keyframe>
										<when>97</when>
										<value>1</value>
									</keyframe>
									<keyframe>
										<when>125</when>
										<value>0.346289</value>
									</keyframe>
								</parameter>
							</effect>
						</filter>
							<marker>
								<comment></comment>
								<name></name>
								<in>106</in>
								<out>-1</out>
								<pproColor>4294967295</pproColor>
							</marker>
							<marker>
								<comment></comment>
								<name></name>
								<in>31</in>
								<out>-1</out>
								<pproColor>4294967295</pproColor>
							</marker>
						<link>
							<linkclipref>clipitem-1998</linkclipref>
							<mediatype>audio</mediatype>
							<trackindex>3</trackindex>
							<clipindex>2</clipindex>
							<groupindex>1</groupindex>
						</link>
						<link>
							<linkclipref>clipitem-2011</linkclipref>
							<mediatype>audio</mediatype>
							<trackindex>4</trackindex>
							<clipindex>2</clipindex>
							<groupindex>1</groupindex>
						</link>
						<logginginfo>
							<description></description>
							<scene></scene>
							<shottake></shottake>
							<lognote></lognote>
							<good></good>
							<originalvideofilename></originalvideofilename>
							<originalaudiofilename></originalaudiofilename>
						</logginginfo>
						<colorinfo>
							<lut></lut>
							<lut1></lut1>
							<asc_sop></asc_sop>
							<asc_sat></asc_sat>
							<lut2></lut2>
						</colorinfo>
						<labels>
							<label2>Caribbean</label2>
						</labels>
					</clipitem>
					<clipitem id="clipitem-2012" premiereChannelType="stereo">
						<masterclipid>masterclip-857</masterclipid>
						<name>OTB_Sound-1.aif</name>
						<enabled>TRUE</enabled>
						<duration>151</duration>
						<rate>
							<timebase>25</timebase>
							<ntsc>FALSE</ntsc>
						</rate>
						<start>10949</start>
						<end>11094</end>
						<in>6</in>
						<out>151</out>
						<pproTicksIn>60963840000</pproTicksIn>
						<pproTicksOut>1534256640000</pproTicksOut>
						<file id="file-711"/>
						<sourcetrack>
							<mediatype>audio</mediatype>
							<trackindex>2</trackindex>
						</sourcetrack>
						<filter>
							<effect>
								<name>Audio Levels</name>
								<effectid>audiolevels</effectid>
								<effectcategory>audiolevels</effectcategory>
								<effecttype>audiolevels</effecttype>
								<mediatype>audio</mediatype>
								<pproBypass>false</pproBypass>
								<parameter authoringApp="PremierePro">
									<parameterid>level</parameterid>
									<name>Level</name>
									<valuemin>0</valuemin>
									<valuemax>3.98109</valuemax>
									<value>1</value>
									<keyframe>
										<when>97</when>
										<value>1</value>
									</keyframe>
									<keyframe>
										<when>125</when>
										<value>1</value>
									</keyframe>
								</parameter>
							</effect>
						</filter>
							<marker>
								<comment></comment>
								<name></name>
								<in>31</in>
								<out>-1</out>
								<pproColor>4294967295</pproColor>
							</marker>
							<marker>
								<comment></comment>
								<name></name>
								<in>106</in>
								<out>-1</out>
								<pproColor>4294967295</pproColor>
							</marker>
						<link>
							<linkclipref>clipitem-1999</linkclipref>
							<mediatype>audio</mediatype>
							<trackindex>3</trackindex>
							<clipindex>3</clipindex>
							<groupindex>1</groupindex>
						</link>
						<link>
							<linkclipref>clipitem-2012</linkclipref>
							<mediatype>audio</mediatype>
							<trackindex>4</trackindex>
							<clipindex>3</clipindex>
							<groupindex>1</groupindex>
						</link>
						<logginginfo>
							<description></description>
							<scene></scene>
							<shottake></shottake>
							<lognote></lognote>
							<good></good>
							<originalvideofilename></originalvideofilename>
							<originalaudiofilename></originalaudiofilename>
						</logginginfo>
						<colorinfo>
							<lut></lut>
							<lut1></lut1>
							<asc_sop></asc_sop>
							<asc_sat></asc_sat>
							<lut2></lut2>
						</colorinfo>
						<labels>
							<label2>Caribbean</label2>
						</labels>
					</clipitem>
					<clipitem id="clipitem-2013" premiereChannelType="stereo">
						<masterclipid>masterclip-858</masterclipid>
						<name>OTB_Sound-1.aif</name>
						<enabled>TRUE</enabled>
						<duration>151</duration>
						<rate>
							<timebase>25</timebase>
							<ntsc>FALSE</ntsc>
						</rate>
						<start>15627</start>
						<end>15772</end>
						<in>6</in>
						<out>151</out>
						<pproTicksIn>60963840000</pproTicksIn>
						<pproTicksOut>1534256640000</pproTicksOut>
						<file id="file-712"/>
						<sourcetrack>
							<mediatype>audio</mediatype>
							<trackindex>2</trackindex>
						</sourcetrack>
						<filter>
							<effect>
								<name>Audio Levels</name>
								<effectid>audiolevels</effectid>
								<effectcategory>audiolevels</effectcategory>
								<effecttype>audiolevels</effecttype>
								<mediatype>audio</mediatype>
								<pproBypass>false</pproBypass>
								<parameter authoringApp="PremierePro">
									<parameterid>level</parameterid>
									<name>Level</name>
									<valuemin>0</valuemin>
									<valuemax>3.98109</valuemax>
									<value>1</value>
									<keyframe>
										<when>97</when>
										<value>1</value>
									</keyframe>
									<keyframe>
										<when>125</when>
										<value>1</value>
									</keyframe>
								</parameter>
							</effect>
						</filter>
							<marker>
								<comment></comment>
								<name></name>
								<in>106</in>
								<out>-1</out>
								<pproColor>4294967295</pproColor>
							</marker>
							<marker>
								<comment></comment>
								<name></name>
								<in>31</in>
								<out>-1</out>
								<pproColor>4294967295</pproColor>
							</marker>
						<link>
							<linkclipref>clipitem-2000</linkclipref>
							<mediatype>audio</mediatype>
							<trackindex>3</trackindex>
							<clipindex>4</clipindex>
							<groupindex>1</groupindex>
						</link>
						<link>
							<linkclipref>clipitem-2013</linkclipref>
							<mediatype>audio</mediatype>
							<trackindex>4</trackindex>
							<clipindex>4</clipindex>
							<groupindex>1</groupindex>
						</link>
						<logginginfo>
							<description></description>
							<scene></scene>
							<shottake></shottake>
							<lognote></lognote>
							<good></good>
							<originalvideofilename></originalvideofilename>
							<originalaudiofilename></originalaudiofilename>
						</logginginfo>
						<colorinfo>
							<lut></lut>
							<lut1></lut1>
							<asc_sop></asc_sop>
							<asc_sat></asc_sat>
							<lut2></lut2>
						</colorinfo>
						<labels>
							<label2>Caribbean</label2>
						</labels>
					</clipitem>
					<clipitem id="clipitem-2014" premiereChannelType="stereo">
						<masterclipid>masterclip-859</masterclipid>
						<name>OTB_Sound-1.aif</name>
						<enabled>TRUE</enabled>
						<duration>151</duration>
						<rate>
							<timebase>25</timebase>
							<ntsc>FALSE</ntsc>
						</rate>
						<start>21238</start>
						<end>21383</end>
						<in>6</in>
						<out>151</out>
						<pproTicksIn>60963840000</pproTicksIn>
						<pproTicksOut>1534256640000</pproTicksOut>
						<file id="file-713"/>
						<sourcetrack>
							<mediatype>audio</mediatype>
							<trackindex>2</trackindex>
						</sourcetrack>
						<filter>
							<effect>
								<name>Audio Levels</name>
								<effectid>audiolevels</effectid>
								<effectcategory>audiolevels</effectcategory>
								<effecttype>audiolevels</effecttype>
								<mediatype>audio</mediatype>
								<pproBypass>false</pproBypass>
								<parameter authoringApp="PremierePro">
									<parameterid>level</parameterid>
									<name>Level</name>
									<valuemin>0</valuemin>
									<valuemax>3.98109</valuemax>
									<value>1</value>
									<keyframe>
										<when>97</when>
										<value>1</value>
									</keyframe>
									<keyframe>
										<when>125</when>
										<value>1</value>
									</keyframe>
								</parameter>
							</effect>
						</filter>
							<marker>
								<comment></comment>
								<name></name>
								<in>106</in>
								<out>-1</out>
								<pproColor>4294967295</pproColor>
							</marker>
							<marker>
								<comment></comment>
								<name></name>
								<in>31</in>
								<out>-1</out>
								<pproColor>4294967295</pproColor>
							</marker>
						<link>
							<linkclipref>clipitem-2001</linkclipref>
							<mediatype>audio</mediatype>
							<trackindex>3</trackindex>
							<clipindex>5</clipindex>
							<groupindex>1</groupindex>
						</link>
						<link>
							<linkclipref>clipitem-2014</linkclipref>
							<mediatype>audio</mediatype>
							<trackindex>4</trackindex>
							<clipindex>5</clipindex>
							<groupindex>1</groupindex>
						</link>
						<logginginfo>
							<description></description>
							<scene></scene>
							<shottake></shottake>
							<lognote></lognote>
							<good></good>
							<originalvideofilename></originalvideofilename>
							<originalaudiofilename></originalaudiofilename>
						</logginginfo>
						<colorinfo>
							<lut></lut>
							<lut1></lut1>
							<asc_sop></asc_sop>
							<asc_sat></asc_sat>
							<lut2></lut2>
						</colorinfo>
						<labels>
							<label2>Caribbean</label2>
						</labels>
					</clipitem>
					<clipitem id="clipitem-2015" premiereChannelType="stereo">
						<masterclipid>masterclip-860</masterclipid>
						<name>OTB_Sound-1.aif</name>
						<enabled>TRUE</enabled>
						<duration>151</duration>
						<rate>
							<timebase>25</timebase>
							<ntsc>FALSE</ntsc>
						</rate>
						<start>27319</start>
						<end>27464</end>
						<in>6</in>
						<out>151</out>
						<pproTicksIn>60963840000</pproTicksIn>
						<pproTicksOut>1534256640000</pproTicksOut>
						<file id="file-714"/>
						<sourcetrack>
							<mediatype>audio</mediatype>
							<trackindex>2</trackindex>
						</sourcetrack>
						<filter>
							<effect>
								<name>Audio Levels</name>
								<effectid>audiolevels</effectid>
								<effectcategory>audiolevels</effectcategory>
								<effecttype>audiolevels</effecttype>
								<mediatype>audio</mediatype>
								<pproBypass>false</pproBypass>
								<parameter authoringApp="PremierePro">
									<parameterid>level</parameterid>
									<name>Level</name>
									<valuemin>0</valuemin>
									<valuemax>3.98109</valuemax>
									<value>1</value>
									<keyframe>
										<when>97</when>
										<value>1</value>
									</keyframe>
									<keyframe>
										<when>125</when>
										<value>1</value>
									</keyframe>
								</parameter>
							</effect>
						</filter>
							<marker>
								<comment></comment>
								<name></name>
								<in>31</in>
								<out>-1</out>
								<pproColor>4294967295</pproColor>
							</marker>
							<marker>
								<comment></comment>
								<name></name>
								<in>106</in>
								<out>-1</out>
								<pproColor>4294967295</pproColor>
							</marker>
						<link>
							<linkclipref>clipitem-2002</linkclipref>
							<mediatype>audio</mediatype>
							<trackindex>3</trackindex>
							<clipindex>6</clipindex>
							<groupindex>1</groupindex>
						</link>
						<link>
							<linkclipref>clipitem-2015</linkclipref>
							<mediatype>audio</mediatype>
							<trackindex>4</trackindex>
							<clipindex>6</clipindex>
							<groupindex>1</groupindex>
						</link>
						<logginginfo>
							<description></description>
							<scene></scene>
							<shottake></shottake>
							<lognote></lognote>
							<good></good>
							<originalvideofilename></originalvideofilename>
							<originalaudiofilename></originalaudiofilename>
						</logginginfo>
						<colorinfo>
							<lut></lut>
							<lut1></lut1>
							<asc_sop></asc_sop>
							<asc_sat></asc_sat>
							<lut2></lut2>
						</colorinfo>
						<labels>
							<label2>Caribbean</label2>
						</labels>
					</clipitem>
					<clipitem id="clipitem-2016" premiereChannelType="stereo">
						<masterclipid>masterclip-861</masterclipid>
						<name>OTB_Sound-1.aif</name>
						<enabled>TRUE</enabled>
						<duration>151</duration>
						<rate>
							<timebase>25</timebase>
							<ntsc>FALSE</ntsc>
						</rate>
						<start>34683</start>
						<end>34828</end>
						<in>6</in>
						<out>151</out>
						<pproTicksIn>60963840000</pproTicksIn>
						<pproTicksOut>1534256640000</pproTicksOut>
						<file id="file-715"/>
						<sourcetrack>
							<mediatype>audio</mediatype>
							<trackindex>2</trackindex>
						</sourcetrack>
						<filter>
							<effect>
								<name>Audio Levels</name>
								<effectid>audiolevels</effectid>
								<effectcategory>audiolevels</effectcategory>
								<effecttype>audiolevels</effecttype>
								<mediatype>audio</mediatype>
								<pproBypass>false</pproBypass>
								<parameter authoringApp="PremierePro">
									<parameterid>level</parameterid>
									<name>Level</name>
									<valuemin>0</valuemin>
									<valuemax>3.98109</valuemax>
									<value>1</value>
									<keyframe>
										<when>97</when>
										<value>1</value>
									</keyframe>
									<keyframe>
										<when>125</when>
										<value>1</value>
									</keyframe>
								</parameter>
							</effect>
						</filter>
							<marker>
								<comment></comment>
								<name></name>
								<in>106</in>
								<out>-1</out>
								<pproColor>4294967295</pproColor>
							</marker>
							<marker>
								<comment></comment>
								<name></name>
								<in>31</in>
								<out>-1</out>
								<pproColor>4294967295</pproColor>
							</marker>
						<link>
							<linkclipref>clipitem-2003</linkclipref>
							<mediatype>audio</mediatype>
							<trackindex>3</trackindex>
							<clipindex>7</clipindex>
							<groupindex>1</groupindex>
						</link>
						<link>
							<linkclipref>clipitem-2016</linkclipref>
							<mediatype>audio</mediatype>
							<trackindex>4</trackindex>
							<clipindex>7</clipindex>
							<groupindex>1</groupindex>
						</link>
						<logginginfo>
							<description></description>
							<scene></scene>
							<shottake></shottake>
							<lognote></lognote>
							<good></good>
							<originalvideofilename></originalvideofilename>
							<originalaudiofilename></originalaudiofilename>
						</logginginfo>
						<colorinfo>
							<lut></lut>
							<lut1></lut1>
							<asc_sop></asc_sop>
							<asc_sat></asc_sat>
							<lut2></lut2>
						</colorinfo>
						<labels>
							<label2>Caribbean</label2>
						</labels>
					</clipitem>
					<clipitem id="clipitem-2017" premiereChannelType="stereo">
						<masterclipid>masterclip-862</masterclipid>
						<name>OTB_Sound-1.aif</name>
						<enabled>TRUE</enabled>
						<duration>151</duration>
						<rate>
							<timebase>25</timebase>
							<ntsc>FALSE</ntsc>
						</rate>
						<start>39990</start>
						<end>40135</end>
						<in>6</in>
						<out>151</out>
						<pproTicksIn>60963840000</pproTicksIn>
						<pproTicksOut>1534256640000</pproTicksOut>
						<file id="file-716"/>
						<sourcetrack>
							<mediatype>audio</mediatype>
							<trackindex>2</trackindex>
						</sourcetrack>
						<filter>
							<effect>
								<name>Audio Levels</name>
								<effectid>audiolevels</effectid>
								<effectcategory>audiolevels</effectcategory>
								<effecttype>audiolevels</effecttype>
								<mediatype>audio</mediatype>
								<pproBypass>false</pproBypass>
								<parameter authoringApp="PremierePro">
									<parameterid>level</parameterid>
									<name>Level</name>
									<valuemin>0</valuemin>
									<valuemax>3.98109</valuemax>
									<value>1</value>
									<keyframe>
										<when>97</when>
										<value>1</value>
									</keyframe>
									<keyframe>
										<when>125</when>
										<value>1</value>
									</keyframe>
								</parameter>
							</effect>
						</filter>
							<marker>
								<comment></comment>
								<name></name>
								<in>31</in>
								<out>-1</out>
								<pproColor>4294967295</pproColor>
							</marker>
							<marker>
								<comment></comment>
								<name></name>
								<in>106</in>
								<out>-1</out>
								<pproColor>4294967295</pproColor>
							</marker>
						<link>
							<linkclipref>clipitem-2004</linkclipref>
							<mediatype>audio</mediatype>
							<trackindex>3</trackindex>
							<clipindex>8</clipindex>
							<groupindex>1</groupindex>
						</link>
						<link>
							<linkclipref>clipitem-2017</linkclipref>
							<mediatype>audio</mediatype>
							<trackindex>4</trackindex>
							<clipindex>8</clipindex>
							<groupindex>1</groupindex>
						</link>
						<logginginfo>
							<description></description>
							<scene></scene>
							<shottake></shottake>
							<lognote></lognote>
							<good></good>
							<originalvideofilename></originalvideofilename>
							<originalaudiofilename></originalaudiofilename>
						</logginginfo>
						<colorinfo>
							<lut></lut>
							<lut1></lut1>
							<asc_sop></asc_sop>
							<asc_sat></asc_sat>
							<lut2></lut2>
						</colorinfo>
						<labels>
							<label2>Caribbean</label2>
						</labels>
					</clipitem>
					<clipitem id="clipitem-2018" premiereChannelType="stereo">
						<masterclipid>masterclip-863</masterclipid>
						<name>OTB_Sound-1.aif</name>
						<enabled>TRUE</enabled>
						<duration>151</duration>
						<rate>
							<timebase>25</timebase>
							<ntsc>FALSE</ntsc>
						</rate>
						<start>43674</start>
						<end>43819</end>
						<in>6</in>
						<out>151</out>
						<pproTicksIn>60963840000</pproTicksIn>
						<pproTicksOut>1534256640000</pproTicksOut>
						<file id="file-717"/>
						<sourcetrack>
							<mediatype>audio</mediatype>
							<trackindex>2</trackindex>
						</sourcetrack>
						<filter>
							<effect>
								<name>Audio Levels</name>
								<effectid>audiolevels</effectid>
								<effectcategory>audiolevels</effectcategory>
								<effecttype>audiolevels</effecttype>
								<mediatype>audio</mediatype>
								<pproBypass>false</pproBypass>
								<parameter authoringApp="PremierePro">
									<parameterid>level</parameterid>
									<name>Level</name>
									<valuemin>0</valuemin>
									<valuemax>3.98109</valuemax>
									<value>1</value>
									<keyframe>
										<when>97</when>
										<value>1</value>
									</keyframe>
									<keyframe>
										<when>125</when>
										<value>1</value>
									</keyframe>
								</parameter>
							</effect>
						</filter>
							<marker>
								<comment></comment>
								<name></name>
								<in>106</in>
								<out>-1</out>
								<pproColor>4294967295</pproColor>
							</marker>
							<marker>
								<comment></comment>
								<name></name>
								<in>31</in>
								<out>-1</out>
								<pproColor>4294967295</pproColor>
							</marker>
						<link>
							<linkclipref>clipitem-2005</linkclipref>
							<mediatype>audio</mediatype>
							<trackindex>3</trackindex>
							<clipindex>9</clipindex>
							<groupindex>1</groupindex>
						</link>
						<link>
							<linkclipref>clipitem-2018</linkclipref>
							<mediatype>audio</mediatype>
							<trackindex>4</trackindex>
							<clipindex>9</clipindex>
							<groupindex>1</groupindex>
						</link>
						<logginginfo>
							<description></description>
							<scene></scene>
							<shottake></shottake>
							<lognote></lognote>
							<good></good>
							<originalvideofilename></originalvideofilename>
							<originalaudiofilename></originalaudiofilename>
						</logginginfo>
						<colorinfo>
							<lut></lut>
							<lut1></lut1>
							<asc_sop></asc_sop>
							<asc_sat></asc_sat>
							<lut2></lut2>
						</colorinfo>
						<labels>
							<label2>Caribbean</label2>
						</labels>
					</clipitem>
					<clipitem id="clipitem-2019" premiereChannelType="stereo">
						<masterclipid>masterclip-864</masterclipid>
						<name>OTB_Sound-1.aif</name>
						<enabled>TRUE</enabled>
						<duration>151</duration>
						<rate>
							<timebase>25</timebase>
							<ntsc>FALSE</ntsc>
						</rate>
						<start>49998</start>
						<end>50143</end>
						<in>6</in>
						<out>151</out>
						<pproTicksIn>60963840000</pproTicksIn>
						<pproTicksOut>1534256640000</pproTicksOut>
						<file id="file-718"/>
						<sourcetrack>
							<mediatype>audio</mediatype>
							<trackindex>2</trackindex>
						</sourcetrack>
						<filter>
							<effect>
								<name>Audio Levels</name>
								<effectid>audiolevels</effectid>
								<effectcategory>audiolevels</effectcategory>
								<effecttype>audiolevels</effecttype>
								<mediatype>audio</mediatype>
								<pproBypass>false</pproBypass>
								<parameter authoringApp="PremierePro">
									<parameterid>level</parameterid>
									<name>Level</name>
									<valuemin>0</valuemin>
									<valuemax>3.98109</valuemax>
									<value>1</value>
									<keyframe>
										<when>97</when>
										<value>1</value>
									</keyframe>
									<keyframe>
										<when>125</when>
										<value>1</value>
									</keyframe>
								</parameter>
							</effect>
						</filter>
							<marker>
								<comment></comment>
								<name></name>
								<in>31</in>
								<out>-1</out>
								<pproColor>4294967295</pproColor>
							</marker>
							<marker>
								<comment></comment>
								<name></name>
								<in>106</in>
								<out>-1</out>
								<pproColor>4294967295</pproColor>
							</marker>
						<link>
							<linkclipref>clipitem-2006</linkclipref>
							<mediatype>audio</mediatype>
							<trackindex>3</trackindex>
							<clipindex>10</clipindex>
							<groupindex>1</groupindex>
						</link>
						<link>
							<linkclipref>clipitem-2019</linkclipref>
							<mediatype>audio</mediatype>
							<trackindex>4</trackindex>
							<clipindex>10</clipindex>
							<groupindex>1</groupindex>
						</link>
						<logginginfo>
							<description></description>
							<scene></scene>
							<shottake></shottake>
							<lognote></lognote>
							<good></good>
							<originalvideofilename></originalvideofilename>
							<originalaudiofilename></originalaudiofilename>
						</logginginfo>
						<colorinfo>
							<lut></lut>
							<lut1></lut1>
							<asc_sop></asc_sop>
							<asc_sat></asc_sat>
							<lut2></lut2>
						</colorinfo>
						<labels>
							<label2>Caribbean</label2>
						</labels>
					</clipitem>
					<clipitem id="clipitem-2020" premiereChannelType="stereo">
						<masterclipid>masterclip-865</masterclipid>
						<name>OTB_Sound-1.aif</name>
						<enabled>TRUE</enabled>
						<duration>151</duration>
						<rate>
							<timebase>25</timebase>
							<ntsc>FALSE</ntsc>
						</rate>
						<start>54564</start>
						<end>54709</end>
						<in>6</in>
						<out>151</out>
						<pproTicksIn>60963840000</pproTicksIn>
						<pproTicksOut>1534256640000</pproTicksOut>
						<file id="file-719"/>
						<sourcetrack>
							<mediatype>audio</mediatype>
							<trackindex>2</trackindex>
						</sourcetrack>
						<filter>
							<effect>
								<name>Audio Levels</name>
								<effectid>audiolevels</effectid>
								<effectcategory>audiolevels</effectcategory>
								<effecttype>audiolevels</effecttype>
								<mediatype>audio</mediatype>
								<pproBypass>false</pproBypass>
								<parameter authoringApp="PremierePro">
									<parameterid>level</parameterid>
									<name>Level</name>
									<valuemin>0</valuemin>
									<valuemax>3.98109</valuemax>
									<value>1</value>
									<keyframe>
										<when>97</when>
										<value>1</value>
									</keyframe>
									<keyframe>
										<when>125</when>
										<value>0.346289</value>
									</keyframe>
								</parameter>
							</effect>
						</filter>
							<marker>
								<comment></comment>
								<name></name>
								<in>106</in>
								<out>-1</out>
								<pproColor>4294967295</pproColor>
							</marker>
							<marker>
								<comment></comment>
								<name></name>
								<in>31</in>
								<out>-1</out>
								<pproColor>4294967295</pproColor>
							</marker>
						<link>
							<linkclipref>clipitem-2007</linkclipref>
							<mediatype>audio</mediatype>
							<trackindex>3</trackindex>
							<clipindex>11</clipindex>
							<groupindex>1</groupindex>
						</link>
						<link>
							<linkclipref>clipitem-2020</linkclipref>
							<mediatype>audio</mediatype>
							<trackindex>4</trackindex>
							<clipindex>11</clipindex>
							<groupindex>1</groupindex>
						</link>
						<logginginfo>
							<description></description>
							<scene></scene>
							<shottake></shottake>
							<lognote></lognote>
							<good></good>
							<originalvideofilename></originalvideofilename>
							<originalaudiofilename></originalaudiofilename>
						</logginginfo>
						<colorinfo>
							<lut></lut>
							<lut1></lut1>
							<asc_sop></asc_sop>
							<asc_sat></asc_sat>
							<lut2></lut2>
						</colorinfo>
						<labels>
							<label2>Caribbean</label2>
						</labels>
					</clipitem>
					<clipitem id="clipitem-2021" premiereChannelType="stereo">
						<masterclipid>masterclip-866</masterclipid>
						<name>OTB_Sound-1.aif</name>
						<enabled>TRUE</enabled>
						<duration>151</duration>
						<rate>
							<timebase>25</timebase>
							<ntsc>FALSE</ntsc>
						</rate>
						<start>60261</start>
						<end>60406</end>
						<in>6</in>
						<out>151</out>
						<pproTicksIn>60963840000</pproTicksIn>
						<pproTicksOut>1534256640000</pproTicksOut>
						<file id="file-720"/>
						<sourcetrack>
							<mediatype>audio</mediatype>
							<trackindex>2</trackindex>
						</sourcetrack>
						<filter>
							<effect>
								<name>Audio Levels</name>
								<effectid>audiolevels</effectid>
								<effectcategory>audiolevels</effectcategory>
								<effecttype>audiolevels</effecttype>
								<mediatype>audio</mediatype>
								<pproBypass>false</pproBypass>
								<parameter authoringApp="PremierePro">
									<parameterid>level</parameterid>
									<name>Level</name>
									<valuemin>0</valuemin>
									<valuemax>3.98109</valuemax>
									<value>1</value>
									<keyframe>
										<when>97</when>
										<value>1</value>
									</keyframe>
									<keyframe>
										<when>125</when>
										<value>1</value>
									</keyframe>
								</parameter>
							</effect>
						</filter>
							<marker>
								<comment></comment>
								<name></name>
								<in>31</in>
								<out>-1</out>
								<pproColor>4294967295</pproColor>
							</marker>
							<marker>
								<comment></comment>
								<name></name>
								<in>106</in>
								<out>-1</out>
								<pproColor>4294967295</pproColor>
							</marker>
						<link>
							<linkclipref>clipitem-2008</linkclipref>
							<mediatype>audio</mediatype>
							<trackindex>3</trackindex>
							<clipindex>12</clipindex>
							<groupindex>1</groupindex>
						</link>
						<link>
							<linkclipref>clipitem-2021</linkclipref>
							<mediatype>audio</mediatype>
							<trackindex>4</trackindex>
							<clipindex>12</clipindex>
							<groupindex>1</groupindex>
						</link>
						<logginginfo>
							<description></description>
							<scene></scene>
							<shottake></shottake>
							<lognote></lognote>
							<good></good>
							<originalvideofilename></originalvideofilename>
							<originalaudiofilename></originalaudiofilename>
						</logginginfo>
						<colorinfo>
							<lut></lut>
							<lut1></lut1>
							<asc_sop></asc_sop>
							<asc_sat></asc_sat>
							<lut2></lut2>
						</colorinfo>
						<labels>
							<label2>Caribbean</label2>
						</labels>
					</clipitem>
					<clipitem id="clipitem-2022" premiereChannelType="stereo">
						<masterclipid>masterclip-692</masterclipid>
						<name>MYZ_RusskiyChart_appProRes_v2.mov</name>
						<enabled>TRUE</enabled>
						<duration>299</duration>
						<rate>
							<timebase>25</timebase>
							<ntsc>FALSE</ntsc>
						</rate>
						<start>65718</start>
						<end>66000</end>
						<in>0</in>
						<out>282</out>
						<pproTicksIn>0</pproTicksIn>
						<pproTicksOut>2865300480000</pproTicksOut>
						<file id="file-572"/>
						<sourcetrack>
							<mediatype>audio</mediatype>
							<trackindex>2</trackindex>
						</sourcetrack>
						<filter>
							<effect>
								<name>Audio Levels</name>
								<effectid>audiolevels</effectid>
								<effectcategory>audiolevels</effectcategory>
								<effecttype>audiolevels</effecttype>
								<mediatype>audio</mediatype>
								<pproBypass>false</pproBypass>
								<parameter authoringApp="PremierePro">
									<parameterid>level</parameterid>
									<name>Level</name>
									<valuemin>0</valuemin>
									<valuemax>3.98109</valuemax>
									<value>0</value>
									<keyframe>
										<when>0</when>
										<value>0</value>
									</keyframe>
									<keyframe>
										<when>19</when>
										<value>0.158489</value>
									</keyframe>
									<keyframe>
										<when>262</when>
										<value>0.158489</value>
									</keyframe>
								</parameter>
							</effect>
						</filter>
						<link>
							<linkclipref>clipitem-1717</linkclipref>
							<mediatype>video</mediatype>
							<trackindex>1</trackindex>
							<clipindex>51</clipindex>
						</link>
						<link>
							<linkclipref>clipitem-2009</linkclipref>
							<mediatype>audio</mediatype>
							<trackindex>3</trackindex>
							<clipindex>13</clipindex>
							<groupindex>1</groupindex>
						</link>
						<link>
							<linkclipref>clipitem-2022</linkclipref>
							<mediatype>audio</mediatype>
							<trackindex>4</trackindex>
							<clipindex>13</clipindex>
							<groupindex>1</groupindex>
						</link>
						<logginginfo>
							<description></description>
							<scene></scene>
							<shottake></shottake>
							<lognote></lognote>
							<good></good>
							<originalvideofilename></originalvideofilename>
							<originalaudiofilename></originalaudiofilename>
						</logginginfo>
						<colorinfo>
							<lut></lut>
							<lut1></lut1>
							<asc_sop></asc_sop>
							<asc_sat></asc_sat>
							<lut2></lut2>
						</colorinfo>
						<labels>
							<label2>Iris</label2>
						</labels>
					</clipitem>
					<enabled>TRUE</enabled>
					<locked>FALSE</locked>
					<outputchannelindex>2</outputchannelindex>
				</track>
				<track TL.SQTrackAudioKeyframeStyle="0" TL.SQTrackShy="0" TL.SQTrackExpandedHeight="15" TL.SQTrackExpanded="0" MZ.TrackTargeted="0" PannerCurrentValue="0.5" PannerIsInverted="true" PannerStartKeyframe="-91445760000000000,0.5,0,0,0,0,0,0" PannerName="Balance" currentExplodedTrackIndex="0" totalExplodedTrackCount="2" premiereTrackType="Stereo">
					<clipitem id="clipitem-2023" premiereChannelType="stereo">
						<masterclipid>masterclip-867</masterclipid>
						<name>SOUND_2021.mp3</name>
						<enabled>TRUE</enabled>
						<duration>45395</duration>
						<rate>
							<timebase>25</timebase>
							<ntsc>FALSE</ntsc>
						</rate>
						<start>262</start>
						<end>-1</end>
						<in>29058</in>
						<out>29605</out>
						<pproTicksIn>295247877120000</pproTicksIn>
						<pproTicksOut>300805747200000</pproTicksOut>
						<file id="file-721">
							<name>SOUND_2021.mp3</name>
							<pathurl>file://localhost/Volumes/1Tb/_MUZ_TV/graphika/sound/2021/SOUND_2021.mp3</pathurl>
							<rate>
								<timebase>30</timebase>
								<ntsc>TRUE</ntsc>
							</rate>
							<duration>54420</duration>
							<timecode>
								<rate>
									<timebase>30</timebase>
									<ntsc>TRUE</ntsc>
								</rate>
								<string>00;00;00;00</string>
								<frame>0</frame>
								<displayformat>DF</displayformat>
							</timecode>
							<media>
								<audio>
									<samplecharacteristics>
										<depth>16</depth>
										<samplerate>44100</samplerate>
									</samplecharacteristics>
									<channelcount>2</channelcount>
								</audio>
							</media>
						</file>
						<sourcetrack>
							<mediatype>audio</mediatype>
							<trackindex>1</trackindex>
						</sourcetrack>
						<filter>
							<effect>
								<name>Audio Levels</name>
								<effectid>audiolevels</effectid>
								<effectcategory>audiolevels</effectcategory>
								<effecttype>audiolevels</effecttype>
								<mediatype>audio</mediatype>
								<pproBypass>false</pproBypass>
								<parameter authoringApp="PremierePro">
									<parameterid>level</parameterid>
									<name>Level</name>
									<valuemin>0</valuemin>
									<valuemax>3.98109</valuemax>
									<value>0.177828</value>
								</parameter>
							</effect>
						</filter>
							<marker>
								<comment></comment>
								<name></name>
								<in>0</in>
								<out>-1</out>
							</marker>
							<marker>
								<comment></comment>
								<name></name>
								<in>35404</in>
								<out>-1</out>
							</marker>
							<marker>
								<comment></comment>
								<name></name>
								<in>22388</in>
								<out>-1</out>
							</marker>
							<marker>
								<comment></comment>
								<name></name>
								<in>16790</in>
								<out>-1</out>
							</marker>
							<marker>
								<comment></comment>
								<name></name>
								<in>11832</in>
								<out>-1</out>
							</marker>
							<marker>
								<comment></comment>
								<name></name>
								<in>43475</in>
								<out>-1</out>
							</marker>
							<marker>
								<comment></comment>
								<name></name>
								<in>19163</in>
								<out>-1</out>
							</marker>
							<marker>
								<comment></comment>
								<name></name>
								<in>26248</in>
								<out>-1</out>
							</marker>
							<marker>
								<comment></comment>
								<name></name>
								<in>9861</in>
								<out>-1</out>
							</marker>
							<marker>
								<comment></comment>
								<name></name>
								<in>39699</in>
								<out>-1</out>
							</marker>
							<marker>
								<comment></comment>
								<name></name>
								<in>37815</in>
								<out>-1</out>
							</marker>
							<marker>
								<comment></comment>
								<name></name>
								<in>33007</in>
								<out>-1</out>
							</marker>
							<marker>
								<comment></comment>
								<name></name>
								<in>2059</in>
								<out>-1</out>
							</marker>
							<marker>
								<comment></comment>
								<name></name>
								<in>2</in>
								<out>-1</out>
							</marker>
							<marker>
								<comment></comment>
								<name></name>
								<in>29059</in>
								<out>-1</out>
							</marker>
							<marker>
								<comment></comment>
								<name></name>
								<in>20862</in>
								<out>-1</out>
							</marker>
							<marker>
								<comment></comment>
								<name></name>
								<in>31139</in>
								<out>-1</out>
							</marker>
							<marker>
								<comment></comment>
								<name></name>
								<in>4214</in>
								<out>-1</out>
							</marker>
							<marker>
								<comment></comment>
								<name></name>
								<in>6200</in>
								<out>-1</out>
							</marker>
							<marker>
								<comment></comment>
								<name></name>
								<in>24484</in>
								<out>-1</out>
							</marker>
							<marker>
								<comment></comment>
								<name></name>
								<in>14293</in>
								<out>-1</out>
							</marker>
						<link>
							<linkclipref>clipitem-2023</linkclipref>
							<mediatype>audio</mediatype>
							<trackindex>5</trackindex>
							<clipindex>1</clipindex>
							<groupindex>1</groupindex>
						</link>
						<link>
							<linkclipref>clipitem-2036</linkclipref>
							<mediatype>audio</mediatype>
							<trackindex>6</trackindex>
							<clipindex>1</clipindex>
							<groupindex>1</groupindex>
						</link>
						<logginginfo>
							<description></description>
							<scene></scene>
							<shottake></shottake>
							<lognote></lognote>
							<good></good>
							<originalvideofilename></originalvideofilename>
							<originalaudiofilename></originalaudiofilename>
						</logginginfo>
						<colorinfo>
							<lut></lut>
							<lut1></lut1>
							<asc_sop></asc_sop>
							<asc_sat></asc_sat>
							<lut2></lut2>
						</colorinfo>
						<labels>
							<label2>Rose</label2>
						</labels>
					</clipitem>
					<transitionitem>
						<start>784</start>
						<end>809</end>
						<pproTicksIn>7965941760000</pproTicksIn>
						<pproTicksOut>8219957760000</pproTicksOut>
						<alignment>end-black</alignment>
						<cutPointTicks>254016000000</cutPointTicks>
						<rate>
							<timebase>25</timebase>
							<ntsc>FALSE</ntsc>
						</rate>
						<effect>
							<name>Cross Fade (+3dB)</name>
							<effectid>KGAudioTransCrossFade3dB</effectid>
							<effecttype>transition</effecttype>
							<mediatype>audio</mediatype>
							<wipecode>0</wipecode>
							<wipeaccuracy>100</wipeaccuracy>
							<startratio>0</startratio>
							<endratio>1</endratio>
							<reverse>FALSE</reverse>
						</effect>
					</transitionitem>
					<clipitem id="clipitem-2024" premiereChannelType="stereo">
						<masterclipid>masterclip-867</masterclipid>
						<name>SOUND_2021.mp3</name>
						<enabled>TRUE</enabled>
						<duration>45395</duration>
						<rate>
							<timebase>25</timebase>
							<ntsc>FALSE</ntsc>
						</rate>
						<start>5263</start>
						<end>-1</end>
						<in>31138</in>
						<out>31573</out>
						<pproTicksIn>316382008320000</pproTicksIn>
						<pproTicksOut>320801886720000</pproTicksOut>
						<file id="file-721"/>
						<sourcetrack>
							<mediatype>audio</mediatype>
							<trackindex>1</trackindex>
						</sourcetrack>
						<filter>
							<effect>
								<name>Audio Levels</name>
								<effectid>audiolevels</effectid>
								<effectcategory>audiolevels</effectcategory>
								<effecttype>audiolevels</effecttype>
								<mediatype>audio</mediatype>
								<pproBypass>false</pproBypass>
								<parameter authoringApp="PremierePro">
									<parameterid>level</parameterid>
									<name>Level</name>
									<valuemin>0</valuemin>
									<valuemax>3.98109</valuemax>
									<value>0.177828</value>
								</parameter>
							</effect>
						</filter>
							<marker>
								<comment></comment>
								<name></name>
								<in>0</in>
								<out>-1</out>
							</marker>
							<marker>
								<comment></comment>
								<name></name>
								<in>35404</in>
								<out>-1</out>
							</marker>
							<marker>
								<comment></comment>
								<name></name>
								<in>22388</in>
								<out>-1</out>
							</marker>
							<marker>
								<comment></comment>
								<name></name>
								<in>16790</in>
								<out>-1</out>
							</marker>
							<marker>
								<comment></comment>
								<name></name>
								<in>11832</in>
								<out>-1</out>
							</marker>
							<marker>
								<comment></comment>
								<name></name>
								<in>43475</in>
								<out>-1</out>
							</marker>
							<marker>
								<comment></comment>
								<name></name>
								<in>19163</in>
								<out>-1</out>
							</marker>
							<marker>
								<comment></comment>
								<name></name>
								<in>26248</in>
								<out>-1</out>
							</marker>
							<marker>
								<comment></comment>
								<name></name>
								<in>9861</in>
								<out>-1</out>
							</marker>
							<marker>
								<comment></comment>
								<name></name>
								<in>39699</in>
								<out>-1</out>
							</marker>
							<marker>
								<comment></comment>
								<name></name>
								<in>37815</in>
								<out>-1</out>
							</marker>
							<marker>
								<comment></comment>
								<name></name>
								<in>33007</in>
								<out>-1</out>
							</marker>
							<marker>
								<comment></comment>
								<name></name>
								<in>2059</in>
								<out>-1</out>
							</marker>
							<marker>
								<comment></comment>
								<name></name>
								<in>2</in>
								<out>-1</out>
							</marker>
							<marker>
								<comment></comment>
								<name></name>
								<in>29059</in>
								<out>-1</out>
							</marker>
							<marker>
								<comment></comment>
								<name></name>
								<in>20862</in>
								<out>-1</out>
							</marker>
							<marker>
								<comment></comment>
								<name></name>
								<in>31139</in>
								<out>-1</out>
							</marker>
							<marker>
								<comment></comment>
								<name></name>
								<in>4214</in>
								<out>-1</out>
							</marker>
							<marker>
								<comment></comment>
								<name></name>
								<in>6200</in>
								<out>-1</out>
							</marker>
							<marker>
								<comment></comment>
								<name></name>
								<in>24484</in>
								<out>-1</out>
							</marker>
							<marker>
								<comment></comment>
								<name></name>
								<in>14293</in>
								<out>-1</out>
							</marker>
						<link>
							<linkclipref>clipitem-2024</linkclipref>
							<mediatype>audio</mediatype>
							<trackindex>5</trackindex>
							<clipindex>3</clipindex>
							<groupindex>1</groupindex>
						</link>
						<link>
							<linkclipref>clipitem-2037</linkclipref>
							<mediatype>audio</mediatype>
							<trackindex>6</trackindex>
							<clipindex>3</clipindex>
							<groupindex>1</groupindex>
						</link>
						<logginginfo>
							<description></description>
							<scene></scene>
							<shottake></shottake>
							<lognote></lognote>
							<good></good>
							<originalvideofilename></originalvideofilename>
							<originalaudiofilename></originalaudiofilename>
						</logginginfo>
						<colorinfo>
							<lut></lut>
							<lut1></lut1>
							<asc_sop></asc_sop>
							<asc_sat></asc_sat>
							<lut2></lut2>
						</colorinfo>
						<labels>
							<label2>Rose</label2>
						</labels>
					</clipitem>
					<transitionitem>
						<start>5673</start>
						<end>5698</end>
						<pproTicksIn>57641310720000</pproTicksIn>
						<pproTicksOut>57895326720000</pproTicksOut>
						<alignment>end-black</alignment>
						<cutPointTicks>254016000000</cutPointTicks>
						<rate>
							<timebase>25</timebase>
							<ntsc>FALSE</ntsc>
						</rate>
						<effect>
							<name>Cross Fade (+3dB)</name>
							<effectid>KGAudioTransCrossFade3dB</effectid>
							<effecttype>transition</effecttype>
							<mediatype>audio</mediatype>
							<wipecode>0</wipecode>
							<wipeaccuracy>100</wipeaccuracy>
							<startratio>0</startratio>
							<endratio>1</endratio>
							<reverse>FALSE</reverse>
						</effect>
					</transitionitem>
					<clipitem id="clipitem-2025" premiereChannelType="stereo">
						<masterclipid>masterclip-867</masterclipid>
						<name>SOUND_2021.mp3</name>
						<enabled>TRUE</enabled>
						<duration>45395</duration>
						<rate>
							<timebase>25</timebase>
							<ntsc>FALSE</ntsc>
						</rate>
						<start>10464</start>
						<end>-1</end>
						<in>33006</in>
						<out>33516</out>
						<pproTicksIn>335362083840000</pproTicksIn>
						<pproTicksOut>340544010240000</pproTicksOut>
						<file id="file-721"/>
						<sourcetrack>
							<mediatype>audio</mediatype>
							<trackindex>1</trackindex>
						</sourcetrack>
						<filter>
							<effect>
								<name>Audio Levels</name>
								<effectid>audiolevels</effectid>
								<effectcategory>audiolevels</effectcategory>
								<effecttype>audiolevels</effecttype>
								<mediatype>audio</mediatype>
								<pproBypass>false</pproBypass>
								<parameter authoringApp="PremierePro">
									<parameterid>level</parameterid>
									<name>Level</name>
									<valuemin>0</valuemin>
									<valuemax>3.98109</valuemax>
									<value>0.177828</value>
								</parameter>
							</effect>
						</filter>
							<marker>
								<comment></comment>
								<name></name>
								<in>0</in>
								<out>-1</out>
							</marker>
							<marker>
								<comment></comment>
								<name></name>
								<in>35404</in>
								<out>-1</out>
							</marker>
							<marker>
								<comment></comment>
								<name></name>
								<in>22388</in>
								<out>-1</out>
							</marker>
							<marker>
								<comment></comment>
								<name></name>
								<in>16790</in>
								<out>-1</out>
							</marker>
							<marker>
								<comment></comment>
								<name></name>
								<in>11832</in>
								<out>-1</out>
							</marker>
							<marker>
								<comment></comment>
								<name></name>
								<in>43475</in>
								<out>-1</out>
							</marker>
							<marker>
								<comment></comment>
								<name></name>
								<in>19163</in>
								<out>-1</out>
							</marker>
							<marker>
								<comment></comment>
								<name></name>
								<in>26248</in>
								<out>-1</out>
							</marker>
							<marker>
								<comment></comment>
								<name></name>
								<in>9861</in>
								<out>-1</out>
							</marker>
							<marker>
								<comment></comment>
								<name></name>
								<in>39699</in>
								<out>-1</out>
							</marker>
							<marker>
								<comment></comment>
								<name></name>
								<in>37815</in>
								<out>-1</out>
							</marker>
							<marker>
								<comment></comment>
								<name></name>
								<in>33007</in>
								<out>-1</out>
							</marker>
							<marker>
								<comment></comment>
								<name></name>
								<in>2059</in>
								<out>-1</out>
							</marker>
							<marker>
								<comment></comment>
								<name></name>
								<in>2</in>
								<out>-1</out>
							</marker>
							<marker>
								<comment></comment>
								<name></name>
								<in>29059</in>
								<out>-1</out>
							</marker>
							<marker>
								<comment></comment>
								<name></name>
								<in>20862</in>
								<out>-1</out>
							</marker>
							<marker>
								<comment></comment>
								<name></name>
								<in>31139</in>
								<out>-1</out>
							</marker>
							<marker>
								<comment></comment>
								<name></name>
								<in>4214</in>
								<out>-1</out>
							</marker>
							<marker>
								<comment></comment>
								<name></name>
								<in>6200</in>
								<out>-1</out>
							</marker>
							<marker>
								<comment></comment>
								<name></name>
								<in>24484</in>
								<out>-1</out>
							</marker>
							<marker>
								<comment></comment>
								<name></name>
								<in>14293</in>
								<out>-1</out>
							</marker>
						<link>
							<linkclipref>clipitem-2025</linkclipref>
							<mediatype>audio</mediatype>
							<trackindex>5</trackindex>
							<clipindex>5</clipindex>
							<groupindex>1</groupindex>
						</link>
						<link>
							<linkclipref>clipitem-2038</linkclipref>
							<mediatype>audio</mediatype>
							<trackindex>6</trackindex>
							<clipindex>5</clipindex>
							<groupindex>1</groupindex>
						</link>
						<logginginfo>
							<description></description>
							<scene></scene>
							<shottake></shottake>
							<lognote></lognote>
							<good></good>
							<originalvideofilename></originalvideofilename>
							<originalaudiofilename></originalaudiofilename>
						</logginginfo>
						<colorinfo>
							<lut></lut>
							<lut1></lut1>
							<asc_sop></asc_sop>
							<asc_sat></asc_sat>
							<lut2></lut2>
						</colorinfo>
						<labels>
							<label2>Rose</label2>
						</labels>
					</clipitem>
					<transitionitem>
						<start>10949</start>
						<end>10974</end>
						<pproTicksIn>111248847360000</pproTicksIn>
						<pproTicksOut>111502863360000</pproTicksOut>
						<alignment>end-black</alignment>
						<cutPointTicks>254016000000</cutPointTicks>
						<rate>
							<timebase>25</timebase>
							<ntsc>FALSE</ntsc>
						</rate>
						<effect>
							<name>Cross Fade (+3dB)</name>
							<effectid>KGAudioTransCrossFade3dB</effectid>
							<effecttype>transition</effecttype>
							<mediatype>audio</mediatype>
							<wipecode>0</wipecode>
							<wipeaccuracy>100</wipeaccuracy>
							<startratio>0</startratio>
							<endratio>1</endratio>
							<reverse>FALSE</reverse>
						</effect>
					</transitionitem>
					<clipitem id="clipitem-2026" premiereChannelType="stereo">
						<masterclipid>masterclip-867</masterclipid>
						<name>SOUND_2021.mp3</name>
						<enabled>TRUE</enabled>
						<duration>45395</duration>
						<rate>
							<timebase>25</timebase>
							<ntsc>FALSE</ntsc>
						</rate>
						<start>15094</start>
						<end>-1</end>
						<in>35403</in>
						<out>35961</out>
						<pproTicksIn>359717137920000</pproTicksIn>
						<pproTicksOut>365386775040000</pproTicksOut>
						<file id="file-721"/>
						<sourcetrack>
							<mediatype>audio</mediatype>
							<trackindex>1</trackindex>
						</sourcetrack>
						<filter>
							<effect>
								<name>Audio Levels</name>
								<effectid>audiolevels</effectid>
								<effectcategory>audiolevels</effectcategory>
								<effecttype>audiolevels</effecttype>
								<mediatype>audio</mediatype>
								<pproBypass>false</pproBypass>
								<parameter authoringApp="PremierePro">
									<parameterid>level</parameterid>
									<name>Level</name>
									<valuemin>0</valuemin>
									<valuemax>3.98109</valuemax>
									<value>0.177828</value>
								</parameter>
							</effect>
						</filter>
							<marker>
								<comment></comment>
								<name></name>
								<in>0</in>
								<out>-1</out>
							</marker>
							<marker>
								<comment></comment>
								<name></name>
								<in>35404</in>
								<out>-1</out>
							</marker>
							<marker>
								<comment></comment>
								<name></name>
								<in>22388</in>
								<out>-1</out>
							</marker>
							<marker>
								<comment></comment>
								<name></name>
								<in>16790</in>
								<out>-1</out>
							</marker>
							<marker>
								<comment></comment>
								<name></name>
								<in>11832</in>
								<out>-1</out>
							</marker>
							<marker>
								<comment></comment>
								<name></name>
								<in>43475</in>
								<out>-1</out>
							</marker>
							<marker>
								<comment></comment>
								<name></name>
								<in>19163</in>
								<out>-1</out>
							</marker>
							<marker>
								<comment></comment>
								<name></name>
								<in>26248</in>
								<out>-1</out>
							</marker>
							<marker>
								<comment></comment>
								<name></name>
								<in>9861</in>
								<out>-1</out>
							</marker>
							<marker>
								<comment></comment>
								<name></name>
								<in>39699</in>
								<out>-1</out>
							</marker>
							<marker>
								<comment></comment>
								<name></name>
								<in>37815</in>
								<out>-1</out>
							</marker>
							<marker>
								<comment></comment>
								<name></name>
								<in>33007</in>
								<out>-1</out>
							</marker>
							<marker>
								<comment></comment>
								<name></name>
								<in>2059</in>
								<out>-1</out>
							</marker>
							<marker>
								<comment></comment>
								<name></name>
								<in>2</in>
								<out>-1</out>
							</marker>
							<marker>
								<comment></comment>
								<name></name>
								<in>29059</in>
								<out>-1</out>
							</marker>
							<marker>
								<comment></comment>
								<name></name>
								<in>20862</in>
								<out>-1</out>
							</marker>
							<marker>
								<comment></comment>
								<name></name>
								<in>31139</in>
								<out>-1</out>
							</marker>
							<marker>
								<comment></comment>
								<name></name>
								<in>4214</in>
								<out>-1</out>
							</marker>
							<marker>
								<comment></comment>
								<name></name>
								<in>6200</in>
								<out>-1</out>
							</marker>
							<marker>
								<comment></comment>
								<name></name>
								<in>24484</in>
								<out>-1</out>
							</marker>
							<marker>
								<comment></comment>
								<name></name>
								<in>14293</in>
								<out>-1</out>
							</marker>
						<link>
							<linkclipref>clipitem-2026</linkclipref>
							<mediatype>audio</mediatype>
							<trackindex>5</trackindex>
							<clipindex>7</clipindex>
							<groupindex>1</groupindex>
						</link>
						<link>
							<linkclipref>clipitem-2039</linkclipref>
							<mediatype>audio</mediatype>
							<trackindex>6</trackindex>
							<clipindex>7</clipindex>
							<groupindex>1</groupindex>
						</link>
						<logginginfo>
							<description></description>
							<scene></scene>
							<shottake></shottake>
							<lognote></lognote>
							<good></good>
							<originalvideofilename></originalvideofilename>
							<originalaudiofilename></originalaudiofilename>
						</logginginfo>
						<colorinfo>
							<lut></lut>
							<lut1></lut1>
							<asc_sop></asc_sop>
							<asc_sat></asc_sat>
							<lut2></lut2>
						</colorinfo>
						<labels>
							<label2>Rose</label2>
						</labels>
					</clipitem>
					<transitionitem>
						<start>15627</start>
						<end>15652</end>
						<pproTicksIn>158780321280000</pproTicksIn>
						<pproTicksOut>159034337280000</pproTicksOut>
						<alignment>end-black</alignment>
						<cutPointTicks>254016000000</cutPointTicks>
						<rate>
							<timebase>25</timebase>
							<ntsc>FALSE</ntsc>
						</rate>
						<effect>
							<name>Cross Fade (+3dB)</name>
							<effectid>KGAudioTransCrossFade3dB</effectid>
							<effecttype>transition</effecttype>
							<mediatype>audio</mediatype>
							<wipecode>0</wipecode>
							<wipeaccuracy>100</wipeaccuracy>
							<startratio>0</startratio>
							<endratio>1</endratio>
							<reverse>FALSE</reverse>
						</effect>
					</transitionitem>
					<clipitem id="clipitem-2027" premiereChannelType="stereo">
						<masterclipid>masterclip-867</masterclipid>
						<name>SOUND_2021.mp3</name>
						<enabled>TRUE</enabled>
						<duration>45395</duration>
						<rate>
							<timebase>25</timebase>
							<ntsc>FALSE</ntsc>
						</rate>
						<start>20585</start>
						<end>-1</end>
						<in>37814</in>
						<out>38492</out>
						<pproTicksIn>384214440960000</pproTicksIn>
						<pproTicksOut>391103354880000</pproTicksOut>
						<file id="file-721"/>
						<sourcetrack>
							<mediatype>audio</mediatype>
							<trackindex>1</trackindex>
						</sourcetrack>
						<filter>
							<effect>
								<name>Audio Levels</name>
								<effectid>audiolevels</effectid>
								<effectcategory>audiolevels</effectcategory>
								<effecttype>audiolevels</effecttype>
								<mediatype>audio</mediatype>
								<pproBypass>false</pproBypass>
								<parameter authoringApp="PremierePro">
									<parameterid>level</parameterid>
									<name>Level</name>
									<valuemin>0</valuemin>
									<valuemax>3.98109</valuemax>
									<value>0.177828</value>
								</parameter>
							</effect>
						</filter>
							<marker>
								<comment></comment>
								<name></name>
								<in>0</in>
								<out>-1</out>
							</marker>
							<marker>
								<comment></comment>
								<name></name>
								<in>35404</in>
								<out>-1</out>
							</marker>
							<marker>
								<comment></comment>
								<name></name>
								<in>22388</in>
								<out>-1</out>
							</marker>
							<marker>
								<comment></comment>
								<name></name>
								<in>16790</in>
								<out>-1</out>
							</marker>
							<marker>
								<comment></comment>
								<name></name>
								<in>11832</in>
								<out>-1</out>
							</marker>
							<marker>
								<comment></comment>
								<name></name>
								<in>43475</in>
								<out>-1</out>
							</marker>
							<marker>
								<comment></comment>
								<name></name>
								<in>19163</in>
								<out>-1</out>
							</marker>
							<marker>
								<comment></comment>
								<name></name>
								<in>26248</in>
								<out>-1</out>
							</marker>
							<marker>
								<comment></comment>
								<name></name>
								<in>9861</in>
								<out>-1</out>
							</marker>
							<marker>
								<comment></comment>
								<name></name>
								<in>39699</in>
								<out>-1</out>
							</marker>
							<marker>
								<comment></comment>
								<name></name>
								<in>37815</in>
								<out>-1</out>
							</marker>
							<marker>
								<comment></comment>
								<name></name>
								<in>33007</in>
								<out>-1</out>
							</marker>
							<marker>
								<comment></comment>
								<name></name>
								<in>2059</in>
								<out>-1</out>
							</marker>
							<marker>
								<comment></comment>
								<name></name>
								<in>2</in>
								<out>-1</out>
							</marker>
							<marker>
								<comment></comment>
								<name></name>
								<in>29059</in>
								<out>-1</out>
							</marker>
							<marker>
								<comment></comment>
								<name></name>
								<in>20862</in>
								<out>-1</out>
							</marker>
							<marker>
								<comment></comment>
								<name></name>
								<in>31139</in>
								<out>-1</out>
							</marker>
							<marker>
								<comment></comment>
								<name></name>
								<in>4214</in>
								<out>-1</out>
							</marker>
							<marker>
								<comment></comment>
								<name></name>
								<in>6200</in>
								<out>-1</out>
							</marker>
							<marker>
								<comment></comment>
								<name></name>
								<in>24484</in>
								<out>-1</out>
							</marker>
							<marker>
								<comment></comment>
								<name></name>
								<in>14293</in>
								<out>-1</out>
							</marker>
						<link>
							<linkclipref>clipitem-2027</linkclipref>
							<mediatype>audio</mediatype>
							<trackindex>5</trackindex>
							<clipindex>9</clipindex>
							<groupindex>1</groupindex>
						</link>
						<link>
							<linkclipref>clipitem-2040</linkclipref>
							<mediatype>audio</mediatype>
							<trackindex>6</trackindex>
							<clipindex>9</clipindex>
							<groupindex>1</groupindex>
						</link>
						<logginginfo>
							<description></description>
							<scene></scene>
							<shottake></shottake>
							<lognote></lognote>
							<good></good>
							<originalvideofilename></originalvideofilename>
							<originalaudiofilename></originalaudiofilename>
						</logginginfo>
						<colorinfo>
							<lut></lut>
							<lut1></lut1>
							<asc_sop></asc_sop>
							<asc_sat></asc_sat>
							<lut2></lut2>
						</colorinfo>
						<labels>
							<label2>Rose</label2>
						</labels>
					</clipitem>
					<transitionitem>
						<start>21238</start>
						<end>21263</end>
						<pproTicksIn>215791672320000</pproTicksIn>
						<pproTicksOut>216045688320000</pproTicksOut>
						<alignment>end-black</alignment>
						<cutPointTicks>254016000000</cutPointTicks>
						<rate>
							<timebase>25</timebase>
							<ntsc>FALSE</ntsc>
						</rate>
						<effect>
							<name>Cross Fade (+3dB)</name>
							<effectid>KGAudioTransCrossFade3dB</effectid>
							<effecttype>transition</effecttype>
							<mediatype>audio</mediatype>
							<wipecode>0</wipecode>
							<wipeaccuracy>100</wipeaccuracy>
							<startratio>0</startratio>
							<endratio>1</endratio>
							<reverse>FALSE</reverse>
						</effect>
					</transitionitem>
					<clipitem id="clipitem-2028" premiereChannelType="stereo">
						<masterclipid>masterclip-867</masterclipid>
						<name>SOUND_2021.mp3</name>
						<enabled>TRUE</enabled>
						<duration>45395</duration>
						<rate>
							<timebase>25</timebase>
							<ntsc>FALSE</ntsc>
						</rate>
						<start>26626</start>
						<end>-1</end>
						<in>39698</in>
						<out>40416</out>
						<pproTicksIn>403357086720000</pproTicksIn>
						<pproTicksOut>410652426240000</pproTicksOut>
						<file id="file-721"/>
						<sourcetrack>
							<mediatype>audio</mediatype>
							<trackindex>1</trackindex>
						</sourcetrack>
						<filter>
							<effect>
								<name>Audio Levels</name>
								<effectid>audiolevels</effectid>
								<effectcategory>audiolevels</effectcategory>
								<effecttype>audiolevels</effecttype>
								<mediatype>audio</mediatype>
								<pproBypass>false</pproBypass>
								<parameter authoringApp="PremierePro">
									<parameterid>level</parameterid>
									<name>Level</name>
									<valuemin>0</valuemin>
									<valuemax>3.98109</valuemax>
									<value>0.177828</value>
								</parameter>
							</effect>
						</filter>
							<marker>
								<comment></comment>
								<name></name>
								<in>0</in>
								<out>-1</out>
							</marker>
							<marker>
								<comment></comment>
								<name></name>
								<in>35404</in>
								<out>-1</out>
							</marker>
							<marker>
								<comment></comment>
								<name></name>
								<in>22388</in>
								<out>-1</out>
							</marker>
							<marker>
								<comment></comment>
								<name></name>
								<in>16790</in>
								<out>-1</out>
							</marker>
							<marker>
								<comment></comment>
								<name></name>
								<in>11832</in>
								<out>-1</out>
							</marker>
							<marker>
								<comment></comment>
								<name></name>
								<in>43475</in>
								<out>-1</out>
							</marker>
							<marker>
								<comment></comment>
								<name></name>
								<in>19163</in>
								<out>-1</out>
							</marker>
							<marker>
								<comment></comment>
								<name></name>
								<in>26248</in>
								<out>-1</out>
							</marker>
							<marker>
								<comment></comment>
								<name></name>
								<in>9861</in>
								<out>-1</out>
							</marker>
							<marker>
								<comment></comment>
								<name></name>
								<in>39699</in>
								<out>-1</out>
							</marker>
							<marker>
								<comment></comment>
								<name></name>
								<in>37815</in>
								<out>-1</out>
							</marker>
							<marker>
								<comment></comment>
								<name></name>
								<in>33007</in>
								<out>-1</out>
							</marker>
							<marker>
								<comment></comment>
								<name></name>
								<in>2059</in>
								<out>-1</out>
							</marker>
							<marker>
								<comment></comment>
								<name></name>
								<in>2</in>
								<out>-1</out>
							</marker>
							<marker>
								<comment></comment>
								<name></name>
								<in>29059</in>
								<out>-1</out>
							</marker>
							<marker>
								<comment></comment>
								<name></name>
								<in>20862</in>
								<out>-1</out>
							</marker>
							<marker>
								<comment></comment>
								<name></name>
								<in>31139</in>
								<out>-1</out>
							</marker>
							<marker>
								<comment></comment>
								<name></name>
								<in>4214</in>
								<out>-1</out>
							</marker>
							<marker>
								<comment></comment>
								<name></name>
								<in>6200</in>
								<out>-1</out>
							</marker>
							<marker>
								<comment></comment>
								<name></name>
								<in>24484</in>
								<out>-1</out>
							</marker>
							<marker>
								<comment></comment>
								<name></name>
								<in>14293</in>
								<out>-1</out>
							</marker>
						<link>
							<linkclipref>clipitem-2028</linkclipref>
							<mediatype>audio</mediatype>
							<trackindex>5</trackindex>
							<clipindex>11</clipindex>
							<groupindex>1</groupindex>
						</link>
						<link>
							<linkclipref>clipitem-2041</linkclipref>
							<mediatype>audio</mediatype>
							<trackindex>6</trackindex>
							<clipindex>11</clipindex>
							<groupindex>1</groupindex>
						</link>
						<logginginfo>
							<description></description>
							<scene></scene>
							<shottake></shottake>
							<lognote></lognote>
							<good></good>
							<originalvideofilename></originalvideofilename>
							<originalaudiofilename></originalaudiofilename>
						</logginginfo>
						<colorinfo>
							<lut></lut>
							<lut1></lut1>
							<asc_sop></asc_sop>
							<asc_sat></asc_sat>
							<lut2></lut2>
						</colorinfo>
						<labels>
							<label2>Rose</label2>
						</labels>
					</clipitem>
					<transitionitem>
						<start>27319</start>
						<end>27344</end>
						<pproTicksIn>277578524160000</pproTicksIn>
						<pproTicksOut>277832540160000</pproTicksOut>
						<alignment>end-black</alignment>
						<cutPointTicks>254016000000</cutPointTicks>
						<rate>
							<timebase>25</timebase>
							<ntsc>FALSE</ntsc>
						</rate>
						<effect>
							<name>Cross Fade (+3dB)</name>
							<effectid>KGAudioTransCrossFade3dB</effectid>
							<effecttype>transition</effecttype>
							<mediatype>audio</mediatype>
							<wipecode>0</wipecode>
							<wipeaccuracy>100</wipeaccuracy>
							<startratio>0</startratio>
							<endratio>1</endratio>
							<reverse>FALSE</reverse>
						</effect>
					</transitionitem>
					<clipitem id="clipitem-2029" premiereChannelType="stereo">
						<masterclipid>masterclip-867</masterclipid>
						<name>SOUND_2021.mp3</name>
						<enabled>TRUE</enabled>
						<duration>45395</duration>
						<rate>
							<timebase>25</timebase>
							<ntsc>FALSE</ntsc>
						</rate>
						<start>34026</start>
						<end>-1</end>
						<in>43474</in>
						<out>44156</out>
						<pproTicksIn>441723663360000</pproTicksIn>
						<pproTicksOut>448653219840000</pproTicksOut>
						<file id="file-721"/>
						<sourcetrack>
							<mediatype>audio</mediatype>
							<trackindex>1</trackindex>
						</sourcetrack>
						<filter>
							<effect>
								<name>Audio Levels</name>
								<effectid>audiolevels</effectid>
								<effectcategory>audiolevels</effectcategory>
								<effecttype>audiolevels</effecttype>
								<mediatype>audio</mediatype>
								<pproBypass>false</pproBypass>
								<parameter authoringApp="PremierePro">
									<parameterid>level</parameterid>
									<name>Level</name>
									<valuemin>0</valuemin>
									<valuemax>3.98109</valuemax>
									<value>0.177828</value>
								</parameter>
							</effect>
						</filter>
							<marker>
								<comment></comment>
								<name></name>
								<in>0</in>
								<out>-1</out>
							</marker>
							<marker>
								<comment></comment>
								<name></name>
								<in>35404</in>
								<out>-1</out>
							</marker>
							<marker>
								<comment></comment>
								<name></name>
								<in>22388</in>
								<out>-1</out>
							</marker>
							<marker>
								<comment></comment>
								<name></name>
								<in>16790</in>
								<out>-1</out>
							</marker>
							<marker>
								<comment></comment>
								<name></name>
								<in>11832</in>
								<out>-1</out>
							</marker>
							<marker>
								<comment></comment>
								<name></name>
								<in>43475</in>
								<out>-1</out>
							</marker>
							<marker>
								<comment></comment>
								<name></name>
								<in>19163</in>
								<out>-1</out>
							</marker>
							<marker>
								<comment></comment>
								<name></name>
								<in>26248</in>
								<out>-1</out>
							</marker>
							<marker>
								<comment></comment>
								<name></name>
								<in>9861</in>
								<out>-1</out>
							</marker>
							<marker>
								<comment></comment>
								<name></name>
								<in>39699</in>
								<out>-1</out>
							</marker>
							<marker>
								<comment></comment>
								<name></name>
								<in>37815</in>
								<out>-1</out>
							</marker>
							<marker>
								<comment></comment>
								<name></name>
								<in>33007</in>
								<out>-1</out>
							</marker>
							<marker>
								<comment></comment>
								<name></name>
								<in>2059</in>
								<out>-1</out>
							</marker>
							<marker>
								<comment></comment>
								<name></name>
								<in>2</in>
								<out>-1</out>
							</marker>
							<marker>
								<comment></comment>
								<name></name>
								<in>29059</in>
								<out>-1</out>
							</marker>
							<marker>
								<comment></comment>
								<name></name>
								<in>20862</in>
								<out>-1</out>
							</marker>
							<marker>
								<comment></comment>
								<name></name>
								<in>31139</in>
								<out>-1</out>
							</marker>
							<marker>
								<comment></comment>
								<name></name>
								<in>4214</in>
								<out>-1</out>
							</marker>
							<marker>
								<comment></comment>
								<name></name>
								<in>6200</in>
								<out>-1</out>
							</marker>
							<marker>
								<comment></comment>
								<name></name>
								<in>24484</in>
								<out>-1</out>
							</marker>
							<marker>
								<comment></comment>
								<name></name>
								<in>14293</in>
								<out>-1</out>
							</marker>
						<link>
							<linkclipref>clipitem-2029</linkclipref>
							<mediatype>audio</mediatype>
							<trackindex>5</trackindex>
							<clipindex>13</clipindex>
							<groupindex>1</groupindex>
						</link>
						<link>
							<linkclipref>clipitem-2042</linkclipref>
							<mediatype>audio</mediatype>
							<trackindex>6</trackindex>
							<clipindex>13</clipindex>
							<groupindex>1</groupindex>
						</link>
						<logginginfo>
							<description></description>
							<scene></scene>
							<shottake></shottake>
							<lognote></lognote>
							<good></good>
							<originalvideofilename></originalvideofilename>
							<originalaudiofilename></originalaudiofilename>
						</logginginfo>
						<colorinfo>
							<lut></lut>
							<lut1></lut1>
							<asc_sop></asc_sop>
							<asc_sat></asc_sat>
							<lut2></lut2>
						</colorinfo>
						<labels>
							<label2>Rose</label2>
						</labels>
					</clipitem>
					<transitionitem>
						<start>34683</start>
						<end>34708</end>
						<pproTicksIn>352401477120000</pproTicksIn>
						<pproTicksOut>352655493120000</pproTicksOut>
						<alignment>end-black</alignment>
						<cutPointTicks>254016000000</cutPointTicks>
						<rate>
							<timebase>25</timebase>
							<ntsc>FALSE</ntsc>
						</rate>
						<effect>
							<name>Cross Fade (+3dB)</name>
							<effectid>KGAudioTransCrossFade3dB</effectid>
							<effecttype>transition</effecttype>
							<mediatype>audio</mediatype>
							<wipecode>0</wipecode>
							<wipeaccuracy>100</wipeaccuracy>
							<startratio>0</startratio>
							<endratio>1</endratio>
							<reverse>FALSE</reverse>
						</effect>
					</transitionitem>
					<clipitem id="clipitem-2030" premiereChannelType="stereo">
						<masterclipid>masterclip-867</masterclipid>
						<name>SOUND_2021.mp3</name>
						<enabled>TRUE</enabled>
						<duration>45395</duration>
						<rate>
							<timebase>25</timebase>
							<ntsc>FALSE</ntsc>
						</rate>
						<start>39540</start>
						<end>-1</end>
						<in>16789</in>
						<out>17264</out>
						<pproTicksIn>170586984960000</pproTicksIn>
						<pproTicksOut>175413288960000</pproTicksOut>
						<file id="file-721"/>
						<sourcetrack>
							<mediatype>audio</mediatype>
							<trackindex>1</trackindex>
						</sourcetrack>
						<filter>
							<effect>
								<name>Audio Levels</name>
								<effectid>audiolevels</effectid>
								<effectcategory>audiolevels</effectcategory>
								<effecttype>audiolevels</effecttype>
								<mediatype>audio</mediatype>
								<pproBypass>false</pproBypass>
								<parameter authoringApp="PremierePro">
									<parameterid>level</parameterid>
									<name>Level</name>
									<valuemin>0</valuemin>
									<valuemax>3.98109</valuemax>
									<value>0.177828</value>
								</parameter>
							</effect>
						</filter>
							<marker>
								<comment></comment>
								<name></name>
								<in>0</in>
								<out>-1</out>
							</marker>
							<marker>
								<comment></comment>
								<name></name>
								<in>35404</in>
								<out>-1</out>
							</marker>
							<marker>
								<comment></comment>
								<name></name>
								<in>22388</in>
								<out>-1</out>
							</marker>
							<marker>
								<comment></comment>
								<name></name>
								<in>16790</in>
								<out>-1</out>
							</marker>
							<marker>
								<comment></comment>
								<name></name>
								<in>11832</in>
								<out>-1</out>
							</marker>
							<marker>
								<comment></comment>
								<name></name>
								<in>43475</in>
								<out>-1</out>
							</marker>
							<marker>
								<comment></comment>
								<name></name>
								<in>19163</in>
								<out>-1</out>
							</marker>
							<marker>
								<comment></comment>
								<name></name>
								<in>26248</in>
								<out>-1</out>
							</marker>
							<marker>
								<comment></comment>
								<name></name>
								<in>9861</in>
								<out>-1</out>
							</marker>
							<marker>
								<comment></comment>
								<name></name>
								<in>39699</in>
								<out>-1</out>
							</marker>
							<marker>
								<comment></comment>
								<name></name>
								<in>37815</in>
								<out>-1</out>
							</marker>
							<marker>
								<comment></comment>
								<name></name>
								<in>33007</in>
								<out>-1</out>
							</marker>
							<marker>
								<comment></comment>
								<name></name>
								<in>2059</in>
								<out>-1</out>
							</marker>
							<marker>
								<comment></comment>
								<name></name>
								<in>2</in>
								<out>-1</out>
							</marker>
							<marker>
								<comment></comment>
								<name></name>
								<in>29059</in>
								<out>-1</out>
							</marker>
							<marker>
								<comment></comment>
								<name></name>
								<in>20862</in>
								<out>-1</out>
							</marker>
							<marker>
								<comment></comment>
								<name></name>
								<in>31139</in>
								<out>-1</out>
							</marker>
							<marker>
								<comment></comment>
								<name></name>
								<in>4214</in>
								<out>-1</out>
							</marker>
							<marker>
								<comment></comment>
								<name></name>
								<in>6200</in>
								<out>-1</out>
							</marker>
							<marker>
								<comment></comment>
								<name></name>
								<in>24484</in>
								<out>-1</out>
							</marker>
							<marker>
								<comment></comment>
								<name></name>
								<in>14293</in>
								<out>-1</out>
							</marker>
						<link>
							<linkclipref>clipitem-2030</linkclipref>
							<mediatype>audio</mediatype>
							<trackindex>5</trackindex>
							<clipindex>15</clipindex>
							<groupindex>1</groupindex>
						</link>
						<link>
							<linkclipref>clipitem-2043</linkclipref>
							<mediatype>audio</mediatype>
							<trackindex>6</trackindex>
							<clipindex>15</clipindex>
							<groupindex>1</groupindex>
						</link>
						<logginginfo>
							<description></description>
							<scene></scene>
							<shottake></shottake>
							<lognote></lognote>
							<good></good>
							<originalvideofilename></originalvideofilename>
							<originalaudiofilename></originalaudiofilename>
						</logginginfo>
						<colorinfo>
							<lut></lut>
							<lut1></lut1>
							<asc_sop></asc_sop>
							<asc_sat></asc_sat>
							<lut2></lut2>
						</colorinfo>
						<labels>
							<label2>Rose</label2>
						</labels>
					</clipitem>
					<transitionitem>
						<start>39990</start>
						<end>40015</end>
						<pproTicksIn>406323993600000</pproTicksIn>
						<pproTicksOut>406578009600000</pproTicksOut>
						<alignment>end-black</alignment>
						<cutPointTicks>254016000000</cutPointTicks>
						<rate>
							<timebase>25</timebase>
							<ntsc>FALSE</ntsc>
						</rate>
						<effect>
							<name>Cross Fade (+3dB)</name>
							<effectid>KGAudioTransCrossFade3dB</effectid>
							<effecttype>transition</effecttype>
							<mediatype>audio</mediatype>
							<wipecode>0</wipecode>
							<wipeaccuracy>100</wipeaccuracy>
							<startratio>0</startratio>
							<endratio>1</endratio>
							<reverse>FALSE</reverse>
						</effect>
					</transitionitem>
					<clipitem id="clipitem-2031" premiereChannelType="stereo">
						<masterclipid>masterclip-867</masterclipid>
						<name>SOUND_2021.mp3</name>
						<enabled>TRUE</enabled>
						<duration>45395</duration>
						<rate>
							<timebase>25</timebase>
							<ntsc>FALSE</ntsc>
						</rate>
						<start>43120</start>
						<end>-1</end>
						<in>19162</in>
						<out>19741</out>
						<pproTicksIn>194698183680000</pproTicksIn>
						<pproTicksOut>200581194240000</pproTicksOut>
						<file id="file-721"/>
						<sourcetrack>
							<mediatype>audio</mediatype>
							<trackindex>1</trackindex>
						</sourcetrack>
						<filter>
							<effect>
								<name>Audio Levels</name>
								<effectid>audiolevels</effectid>
								<effectcategory>audiolevels</effectcategory>
								<effecttype>audiolevels</effecttype>
								<mediatype>audio</mediatype>
								<pproBypass>false</pproBypass>
								<parameter authoringApp="PremierePro">
									<parameterid>level</parameterid>
									<name>Level</name>
									<valuemin>0</valuemin>
									<valuemax>3.98109</valuemax>
									<value>0.177828</value>
								</parameter>
							</effect>
						</filter>
							<marker>
								<comment></comment>
								<name></name>
								<in>0</in>
								<out>-1</out>
							</marker>
							<marker>
								<comment></comment>
								<name></name>
								<in>35404</in>
								<out>-1</out>
							</marker>
							<marker>
								<comment></comment>
								<name></name>
								<in>22388</in>
								<out>-1</out>
							</marker>
							<marker>
								<comment></comment>
								<name></name>
								<in>16790</in>
								<out>-1</out>
							</marker>
							<marker>
								<comment></comment>
								<name></name>
								<in>11832</in>
								<out>-1</out>
							</marker>
							<marker>
								<comment></comment>
								<name></name>
								<in>43475</in>
								<out>-1</out>
							</marker>
							<marker>
								<comment></comment>
								<name></name>
								<in>19163</in>
								<out>-1</out>
							</marker>
							<marker>
								<comment></comment>
								<name></name>
								<in>26248</in>
								<out>-1</out>
							</marker>
							<marker>
								<comment></comment>
								<name></name>
								<in>9861</in>
								<out>-1</out>
							</marker>
							<marker>
								<comment></comment>
								<name></name>
								<in>39699</in>
								<out>-1</out>
							</marker>
							<marker>
								<comment></comment>
								<name></name>
								<in>37815</in>
								<out>-1</out>
							</marker>
							<marker>
								<comment></comment>
								<name></name>
								<in>33007</in>
								<out>-1</out>
							</marker>
							<marker>
								<comment></comment>
								<name></name>
								<in>2059</in>
								<out>-1</out>
							</marker>
							<marker>
								<comment></comment>
								<name></name>
								<in>2</in>
								<out>-1</out>
							</marker>
							<marker>
								<comment></comment>
								<name></name>
								<in>29059</in>
								<out>-1</out>
							</marker>
							<marker>
								<comment></comment>
								<name></name>
								<in>20862</in>
								<out>-1</out>
							</marker>
							<marker>
								<comment></comment>
								<name></name>
								<in>31139</in>
								<out>-1</out>
							</marker>
							<marker>
								<comment></comment>
								<name></name>
								<in>4214</in>
								<out>-1</out>
							</marker>
							<marker>
								<comment></comment>
								<name></name>
								<in>6200</in>
								<out>-1</out>
							</marker>
							<marker>
								<comment></comment>
								<name></name>
								<in>24484</in>
								<out>-1</out>
							</marker>
							<marker>
								<comment></comment>
								<name></name>
								<in>14293</in>
								<out>-1</out>
							</marker>
						<link>
							<linkclipref>clipitem-2031</linkclipref>
							<mediatype>audio</mediatype>
							<trackindex>5</trackindex>
							<clipindex>17</clipindex>
							<groupindex>1</groupindex>
						</link>
						<link>
							<linkclipref>clipitem-2044</linkclipref>
							<mediatype>audio</mediatype>
							<trackindex>6</trackindex>
							<clipindex>17</clipindex>
							<groupindex>1</groupindex>
						</link>
						<logginginfo>
							<description></description>
							<scene></scene>
							<shottake></shottake>
							<lognote></lognote>
							<good></good>
							<originalvideofilename></originalvideofilename>
							<originalaudiofilename></originalaudiofilename>
						</logginginfo>
						<colorinfo>
							<lut></lut>
							<lut1></lut1>
							<asc_sop></asc_sop>
							<asc_sat></asc_sat>
							<lut2></lut2>
						</colorinfo>
						<labels>
							<label2>Rose</label2>
						</labels>
					</clipitem>
					<transitionitem>
						<start>43674</start>
						<end>43699</end>
						<pproTicksIn>443755791360000</pproTicksIn>
						<pproTicksOut>444009807360000</pproTicksOut>
						<alignment>end-black</alignment>
						<cutPointTicks>254016000000</cutPointTicks>
						<rate>
							<timebase>25</timebase>
							<ntsc>FALSE</ntsc>
						</rate>
						<effect>
							<name>Cross Fade (+3dB)</name>
							<effectid>KGAudioTransCrossFade3dB</effectid>
							<effecttype>transition</effecttype>
							<mediatype>audio</mediatype>
							<wipecode>0</wipecode>
							<wipeaccuracy>100</wipeaccuracy>
							<startratio>0</startratio>
							<endratio>1</endratio>
							<reverse>FALSE</reverse>
						</effect>
					</transitionitem>
					<clipitem id="clipitem-2032" premiereChannelType="stereo">
						<masterclipid>masterclip-867</masterclipid>
						<name>SOUND_2021.mp3</name>
						<enabled>TRUE</enabled>
						<duration>45395</duration>
						<rate>
							<timebase>25</timebase>
							<ntsc>FALSE</ntsc>
						</rate>
						<start>49348</start>
						<end>-1</end>
						<in>20861</in>
						<out>21536</out>
						<pproTicksIn>211961111040000</pproTicksIn>
						<pproTicksOut>218819543040000</pproTicksOut>
						<file id="file-721"/>
						<sourcetrack>
							<mediatype>audio</mediatype>
							<trackindex>1</trackindex>
						</sourcetrack>
						<filter>
							<effect>
								<name>Audio Levels</name>
								<effectid>audiolevels</effectid>
								<effectcategory>audiolevels</effectcategory>
								<effecttype>audiolevels</effecttype>
								<mediatype>audio</mediatype>
								<pproBypass>false</pproBypass>
								<parameter authoringApp="PremierePro">
									<parameterid>level</parameterid>
									<name>Level</name>
									<valuemin>0</valuemin>
									<valuemax>3.98109</valuemax>
									<value>0.177828</value>
								</parameter>
							</effect>
						</filter>
							<marker>
								<comment></comment>
								<name></name>
								<in>0</in>
								<out>-1</out>
							</marker>
							<marker>
								<comment></comment>
								<name></name>
								<in>35404</in>
								<out>-1</out>
							</marker>
							<marker>
								<comment></comment>
								<name></name>
								<in>22388</in>
								<out>-1</out>
							</marker>
							<marker>
								<comment></comment>
								<name></name>
								<in>16790</in>
								<out>-1</out>
							</marker>
							<marker>
								<comment></comment>
								<name></name>
								<in>11832</in>
								<out>-1</out>
							</marker>
							<marker>
								<comment></comment>
								<name></name>
								<in>43475</in>
								<out>-1</out>
							</marker>
							<marker>
								<comment></comment>
								<name></name>
								<in>19163</in>
								<out>-1</out>
							</marker>
							<marker>
								<comment></comment>
								<name></name>
								<in>26248</in>
								<out>-1</out>
							</marker>
							<marker>
								<comment></comment>
								<name></name>
								<in>9861</in>
								<out>-1</out>
							</marker>
							<marker>
								<comment></comment>
								<name></name>
								<in>39699</in>
								<out>-1</out>
							</marker>
							<marker>
								<comment></comment>
								<name></name>
								<in>37815</in>
								<out>-1</out>
							</marker>
							<marker>
								<comment></comment>
								<name></name>
								<in>33007</in>
								<out>-1</out>
							</marker>
							<marker>
								<comment></comment>
								<name></name>
								<in>2059</in>
								<out>-1</out>
							</marker>
							<marker>
								<comment></comment>
								<name></name>
								<in>2</in>
								<out>-1</out>
							</marker>
							<marker>
								<comment></comment>
								<name></name>
								<in>29059</in>
								<out>-1</out>
							</marker>
							<marker>
								<comment></comment>
								<name></name>
								<in>20862</in>
								<out>-1</out>
							</marker>
							<marker>
								<comment></comment>
								<name></name>
								<in>31139</in>
								<out>-1</out>
							</marker>
							<marker>
								<comment></comment>
								<name></name>
								<in>4214</in>
								<out>-1</out>
							</marker>
							<marker>
								<comment></comment>
								<name></name>
								<in>6200</in>
								<out>-1</out>
							</marker>
							<marker>
								<comment></comment>
								<name></name>
								<in>24484</in>
								<out>-1</out>
							</marker>
							<marker>
								<comment></comment>
								<name></name>
								<in>14293</in>
								<out>-1</out>
							</marker>
						<link>
							<linkclipref>clipitem-2032</linkclipref>
							<mediatype>audio</mediatype>
							<trackindex>5</trackindex>
							<clipindex>19</clipindex>
							<groupindex>1</groupindex>
						</link>
						<link>
							<linkclipref>clipitem-2045</linkclipref>
							<mediatype>audio</mediatype>
							<trackindex>6</trackindex>
							<clipindex>19</clipindex>
							<groupindex>1</groupindex>
						</link>
						<logginginfo>
							<description></description>
							<scene></scene>
							<shottake></shottake>
							<lognote></lognote>
							<good></good>
							<originalvideofilename></originalvideofilename>
							<originalaudiofilename></originalaudiofilename>
						</logginginfo>
						<colorinfo>
							<lut></lut>
							<lut1></lut1>
							<asc_sop></asc_sop>
							<asc_sat></asc_sat>
							<lut2></lut2>
						</colorinfo>
						<labels>
							<label2>Rose</label2>
						</labels>
					</clipitem>
					<transitionitem>
						<start>49998</start>
						<end>50023</end>
						<pproTicksIn>508011678720000</pproTicksIn>
						<pproTicksOut>508265694720000</pproTicksOut>
						<alignment>end-black</alignment>
						<cutPointTicks>254016000000</cutPointTicks>
						<rate>
							<timebase>25</timebase>
							<ntsc>FALSE</ntsc>
						</rate>
						<effect>
							<name>Cross Fade (+3dB)</name>
							<effectid>KGAudioTransCrossFade3dB</effectid>
							<effecttype>transition</effecttype>
							<mediatype>audio</mediatype>
							<wipecode>0</wipecode>
							<wipeaccuracy>100</wipeaccuracy>
							<startratio>0</startratio>
							<endratio>1</endratio>
							<reverse>FALSE</reverse>
						</effect>
					</transitionitem>
					<clipitem id="clipitem-2033" premiereChannelType="stereo">
						<masterclipid>masterclip-867</masterclipid>
						<name>SOUND_2021.mp3</name>
						<enabled>TRUE</enabled>
						<duration>45395</duration>
						<rate>
							<timebase>25</timebase>
							<ntsc>FALSE</ntsc>
						</rate>
						<start>54043</start>
						<end>-1</end>
						<in>22387</in>
						<out>22933</out>
						<pproTicksIn>227466247680000</pproTicksIn>
						<pproTicksOut>233013957120000</pproTicksOut>
						<file id="file-721"/>
						<sourcetrack>
							<mediatype>audio</mediatype>
							<trackindex>1</trackindex>
						</sourcetrack>
						<filter>
							<effect>
								<name>Audio Levels</name>
								<effectid>audiolevels</effectid>
								<effectcategory>audiolevels</effectcategory>
								<effecttype>audiolevels</effecttype>
								<mediatype>audio</mediatype>
								<pproBypass>false</pproBypass>
								<parameter authoringApp="PremierePro">
									<parameterid>level</parameterid>
									<name>Level</name>
									<valuemin>0</valuemin>
									<valuemax>3.98109</valuemax>
									<value>0.177828</value>
								</parameter>
							</effect>
						</filter>
							<marker>
								<comment></comment>
								<name></name>
								<in>0</in>
								<out>-1</out>
							</marker>
							<marker>
								<comment></comment>
								<name></name>
								<in>35404</in>
								<out>-1</out>
							</marker>
							<marker>
								<comment></comment>
								<name></name>
								<in>22388</in>
								<out>-1</out>
							</marker>
							<marker>
								<comment></comment>
								<name></name>
								<in>16790</in>
								<out>-1</out>
							</marker>
							<marker>
								<comment></comment>
								<name></name>
								<in>11832</in>
								<out>-1</out>
							</marker>
							<marker>
								<comment></comment>
								<name></name>
								<in>43475</in>
								<out>-1</out>
							</marker>
							<marker>
								<comment></comment>
								<name></name>
								<in>19163</in>
								<out>-1</out>
							</marker>
							<marker>
								<comment></comment>
								<name></name>
								<in>26248</in>
								<out>-1</out>
							</marker>
							<marker>
								<comment></comment>
								<name></name>
								<in>9861</in>
								<out>-1</out>
							</marker>
							<marker>
								<comment></comment>
								<name></name>
								<in>39699</in>
								<out>-1</out>
							</marker>
							<marker>
								<comment></comment>
								<name></name>
								<in>37815</in>
								<out>-1</out>
							</marker>
							<marker>
								<comment></comment>
								<name></name>
								<in>33007</in>
								<out>-1</out>
							</marker>
							<marker>
								<comment></comment>
								<name></name>
								<in>2059</in>
								<out>-1</out>
							</marker>
							<marker>
								<comment></comment>
								<name></name>
								<in>2</in>
								<out>-1</out>
							</marker>
							<marker>
								<comment></comment>
								<name></name>
								<in>29059</in>
								<out>-1</out>
							</marker>
							<marker>
								<comment></comment>
								<name></name>
								<in>20862</in>
								<out>-1</out>
							</marker>
							<marker>
								<comment></comment>
								<name></name>
								<in>31139</in>
								<out>-1</out>
							</marker>
							<marker>
								<comment></comment>
								<name></name>
								<in>4214</in>
								<out>-1</out>
							</marker>
							<marker>
								<comment></comment>
								<name></name>
								<in>6200</in>
								<out>-1</out>
							</marker>
							<marker>
								<comment></comment>
								<name></name>
								<in>24484</in>
								<out>-1</out>
							</marker>
							<marker>
								<comment></comment>
								<name></name>
								<in>14293</in>
								<out>-1</out>
							</marker>
						<link>
							<linkclipref>clipitem-2033</linkclipref>
							<mediatype>audio</mediatype>
							<trackindex>5</trackindex>
							<clipindex>21</clipindex>
							<groupindex>1</groupindex>
						</link>
						<link>
							<linkclipref>clipitem-2046</linkclipref>
							<mediatype>audio</mediatype>
							<trackindex>6</trackindex>
							<clipindex>21</clipindex>
							<groupindex>1</groupindex>
						</link>
						<logginginfo>
							<description></description>
							<scene></scene>
							<shottake></shottake>
							<lognote></lognote>
							<good></good>
							<originalvideofilename></originalvideofilename>
							<originalaudiofilename></originalaudiofilename>
						</logginginfo>
						<colorinfo>
							<lut></lut>
							<lut1></lut1>
							<asc_sop></asc_sop>
							<asc_sat></asc_sat>
							<lut2></lut2>
						</colorinfo>
						<labels>
							<label2>Rose</label2>
						</labels>
					</clipitem>
					<transitionitem>
						<start>54564</start>
						<end>54589</end>
						<pproTicksIn>554405160960000</pproTicksIn>
						<pproTicksOut>554659176960000</pproTicksOut>
						<alignment>end-black</alignment>
						<cutPointTicks>254016000000</cutPointTicks>
						<rate>
							<timebase>25</timebase>
							<ntsc>FALSE</ntsc>
						</rate>
						<effect>
							<name>Cross Fade (+3dB)</name>
							<effectid>KGAudioTransCrossFade3dB</effectid>
							<effecttype>transition</effecttype>
							<mediatype>audio</mediatype>
							<wipecode>0</wipecode>
							<wipeaccuracy>100</wipeaccuracy>
							<startratio>0</startratio>
							<endratio>1</endratio>
							<reverse>FALSE</reverse>
						</effect>
					</transitionitem>
					<clipitem id="clipitem-2034" premiereChannelType="stereo">
						<masterclipid>masterclip-867</masterclipid>
						<name>SOUND_2021.mp3</name>
						<enabled>TRUE</enabled>
						<duration>45395</duration>
						<rate>
							<timebase>25</timebase>
							<ntsc>FALSE</ntsc>
						</rate>
						<start>59710</start>
						<end>-1</end>
						<in>24483</in>
						<out>25059</out>
						<pproTicksIn>248762949120000</pproTicksIn>
						<pproTicksOut>254615477760000</pproTicksOut>
						<file id="file-721"/>
						<sourcetrack>
							<mediatype>audio</mediatype>
							<trackindex>1</trackindex>
						</sourcetrack>
						<filter>
							<effect>
								<name>Audio Levels</name>
								<effectid>audiolevels</effectid>
								<effectcategory>audiolevels</effectcategory>
								<effecttype>audiolevels</effecttype>
								<mediatype>audio</mediatype>
								<pproBypass>false</pproBypass>
								<parameter authoringApp="PremierePro">
									<parameterid>level</parameterid>
									<name>Level</name>
									<valuemin>0</valuemin>
									<valuemax>3.98109</valuemax>
									<value>0.177828</value>
								</parameter>
							</effect>
						</filter>
							<marker>
								<comment></comment>
								<name></name>
								<in>0</in>
								<out>-1</out>
							</marker>
							<marker>
								<comment></comment>
								<name></name>
								<in>35404</in>
								<out>-1</out>
							</marker>
							<marker>
								<comment></comment>
								<name></name>
								<in>22388</in>
								<out>-1</out>
							</marker>
							<marker>
								<comment></comment>
								<name></name>
								<in>16790</in>
								<out>-1</out>
							</marker>
							<marker>
								<comment></comment>
								<name></name>
								<in>11832</in>
								<out>-1</out>
							</marker>
							<marker>
								<comment></comment>
								<name></name>
								<in>43475</in>
								<out>-1</out>
							</marker>
							<marker>
								<comment></comment>
								<name></name>
								<in>19163</in>
								<out>-1</out>
							</marker>
							<marker>
								<comment></comment>
								<name></name>
								<in>26248</in>
								<out>-1</out>
							</marker>
							<marker>
								<comment></comment>
								<name></name>
								<in>9861</in>
								<out>-1</out>
							</marker>
							<marker>
								<comment></comment>
								<name></name>
								<in>39699</in>
								<out>-1</out>
							</marker>
							<marker>
								<comment></comment>
								<name></name>
								<in>37815</in>
								<out>-1</out>
							</marker>
							<marker>
								<comment></comment>
								<name></name>
								<in>33007</in>
								<out>-1</out>
							</marker>
							<marker>
								<comment></comment>
								<name></name>
								<in>2059</in>
								<out>-1</out>
							</marker>
							<marker>
								<comment></comment>
								<name></name>
								<in>2</in>
								<out>-1</out>
							</marker>
							<marker>
								<comment></comment>
								<name></name>
								<in>29059</in>
								<out>-1</out>
							</marker>
							<marker>
								<comment></comment>
								<name></name>
								<in>20862</in>
								<out>-1</out>
							</marker>
							<marker>
								<comment></comment>
								<name></name>
								<in>31139</in>
								<out>-1</out>
							</marker>
							<marker>
								<comment></comment>
								<name></name>
								<in>4214</in>
								<out>-1</out>
							</marker>
							<marker>
								<comment></comment>
								<name></name>
								<in>6200</in>
								<out>-1</out>
							</marker>
							<marker>
								<comment></comment>
								<name></name>
								<in>24484</in>
								<out>-1</out>
							</marker>
							<marker>
								<comment></comment>
								<name></name>
								<in>14293</in>
								<out>-1</out>
							</marker>
						<link>
							<linkclipref>clipitem-2034</linkclipref>
							<mediatype>audio</mediatype>
							<trackindex>5</trackindex>
							<clipindex>23</clipindex>
							<groupindex>1</groupindex>
						</link>
						<link>
							<linkclipref>clipitem-2047</linkclipref>
							<mediatype>audio</mediatype>
							<trackindex>6</trackindex>
							<clipindex>23</clipindex>
							<groupindex>1</groupindex>
						</link>
						<logginginfo>
							<description></description>
							<scene></scene>
							<shottake></shottake>
							<lognote></lognote>
							<good></good>
							<originalvideofilename></originalvideofilename>
							<originalaudiofilename></originalaudiofilename>
						</logginginfo>
						<colorinfo>
							<lut></lut>
							<lut1></lut1>
							<asc_sop></asc_sop>
							<asc_sat></asc_sat>
							<lut2></lut2>
						</colorinfo>
						<labels>
							<label2>Rose</label2>
						</labels>
					</clipitem>
					<transitionitem>
						<start>60261</start>
						<end>60286</end>
						<pproTicksIn>612290327040000</pproTicksIn>
						<pproTicksOut>612544343040000</pproTicksOut>
						<alignment>end-black</alignment>
						<cutPointTicks>254016000000</cutPointTicks>
						<rate>
							<timebase>25</timebase>
							<ntsc>FALSE</ntsc>
						</rate>
						<effect>
							<name>Cross Fade (+3dB)</name>
							<effectid>KGAudioTransCrossFade3dB</effectid>
							<effecttype>transition</effecttype>
							<mediatype>audio</mediatype>
							<wipecode>0</wipecode>
							<wipeaccuracy>100</wipeaccuracy>
							<startratio>0</startratio>
							<endratio>1</endratio>
							<reverse>FALSE</reverse>
						</effect>
					</transitionitem>
					<clipitem id="clipitem-2035" premiereChannelType="stereo">
						<masterclipid>masterclip-867</masterclipid>
						<name>SOUND_2021.mp3</name>
						<enabled>TRUE</enabled>
						<duration>45395</duration>
						<rate>
							<timebase>25</timebase>
							<ntsc>FALSE</ntsc>
						</rate>
						<start>65344</start>
						<end>-1</end>
						<in>26247</in>
						<out>26643</out>
						<pproTicksIn>266686318080000</pproTicksIn>
						<pproTicksOut>270709931520000</pproTicksOut>
						<file id="file-721"/>
						<sourcetrack>
							<mediatype>audio</mediatype>
							<trackindex>1</trackindex>
						</sourcetrack>
						<filter>
							<effect>
								<name>Audio Levels</name>
								<effectid>audiolevels</effectid>
								<effectcategory>audiolevels</effectcategory>
								<effecttype>audiolevels</effecttype>
								<mediatype>audio</mediatype>
								<pproBypass>false</pproBypass>
								<parameter authoringApp="PremierePro">
									<parameterid>level</parameterid>
									<name>Level</name>
									<valuemin>0</valuemin>
									<valuemax>3.98109</valuemax>
									<value>0.177828</value>
								</parameter>
							</effect>
						</filter>
							<marker>
								<comment></comment>
								<name></name>
								<in>0</in>
								<out>-1</out>
							</marker>
							<marker>
								<comment></comment>
								<name></name>
								<in>35404</in>
								<out>-1</out>
							</marker>
							<marker>
								<comment></comment>
								<name></name>
								<in>22388</in>
								<out>-1</out>
							</marker>
							<marker>
								<comment></comment>
								<name></name>
								<in>16790</in>
								<out>-1</out>
							</marker>
							<marker>
								<comment></comment>
								<name></name>
								<in>11832</in>
								<out>-1</out>
							</marker>
							<marker>
								<comment></comment>
								<name></name>
								<in>43475</in>
								<out>-1</out>
							</marker>
							<marker>
								<comment></comment>
								<name></name>
								<in>19163</in>
								<out>-1</out>
							</marker>
							<marker>
								<comment></comment>
								<name></name>
								<in>26248</in>
								<out>-1</out>
							</marker>
							<marker>
								<comment></comment>
								<name></name>
								<in>9861</in>
								<out>-1</out>
							</marker>
							<marker>
								<comment></comment>
								<name></name>
								<in>39699</in>
								<out>-1</out>
							</marker>
							<marker>
								<comment></comment>
								<name></name>
								<in>37815</in>
								<out>-1</out>
							</marker>
							<marker>
								<comment></comment>
								<name></name>
								<in>33007</in>
								<out>-1</out>
							</marker>
							<marker>
								<comment></comment>
								<name></name>
								<in>2059</in>
								<out>-1</out>
							</marker>
							<marker>
								<comment></comment>
								<name></name>
								<in>2</in>
								<out>-1</out>
							</marker>
							<marker>
								<comment></comment>
								<name></name>
								<in>29059</in>
								<out>-1</out>
							</marker>
							<marker>
								<comment></comment>
								<name></name>
								<in>20862</in>
								<out>-1</out>
							</marker>
							<marker>
								<comment></comment>
								<name></name>
								<in>31139</in>
								<out>-1</out>
							</marker>
							<marker>
								<comment></comment>
								<name></name>
								<in>4214</in>
								<out>-1</out>
							</marker>
							<marker>
								<comment></comment>
								<name></name>
								<in>6200</in>
								<out>-1</out>
							</marker>
							<marker>
								<comment></comment>
								<name></name>
								<in>24484</in>
								<out>-1</out>
							</marker>
							<marker>
								<comment></comment>
								<name></name>
								<in>14293</in>
								<out>-1</out>
							</marker>
						<link>
							<linkclipref>clipitem-2035</linkclipref>
							<mediatype>audio</mediatype>
							<trackindex>5</trackindex>
							<clipindex>25</clipindex>
							<groupindex>1</groupindex>
						</link>
						<link>
							<linkclipref>clipitem-2048</linkclipref>
							<mediatype>audio</mediatype>
							<trackindex>6</trackindex>
							<clipindex>25</clipindex>
							<groupindex>1</groupindex>
						</link>
						<logginginfo>
							<description></description>
							<scene></scene>
							<shottake></shottake>
							<lognote></lognote>
							<good></good>
							<originalvideofilename></originalvideofilename>
							<originalaudiofilename></originalaudiofilename>
						</logginginfo>
						<colorinfo>
							<lut></lut>
							<lut1></lut1>
							<asc_sop></asc_sop>
							<asc_sat></asc_sat>
							<lut2></lut2>
						</colorinfo>
						<labels>
							<label2>Rose</label2>
						</labels>
					</clipitem>
					<transitionitem>
						<start>65715</start>
						<end>65740</end>
						<pproTicksIn>667706457600000</pproTicksIn>
						<pproTicksOut>667960473600000</pproTicksOut>
						<alignment>end-black</alignment>
						<cutPointTicks>254016000000</cutPointTicks>
						<rate>
							<timebase>25</timebase>
							<ntsc>FALSE</ntsc>
						</rate>
						<effect>
							<name>Cross Fade (+3dB)</name>
							<effectid>KGAudioTransCrossFade3dB</effectid>
							<effecttype>transition</effecttype>
							<mediatype>audio</mediatype>
							<wipecode>0</wipecode>
							<wipeaccuracy>100</wipeaccuracy>
							<startratio>0</startratio>
							<endratio>1</endratio>
							<reverse>FALSE</reverse>
						</effect>
					</transitionitem>
					<enabled>TRUE</enabled>
					<locked>FALSE</locked>
					<outputchannelindex>1</outputchannelindex>
				</track>
				<track TL.SQTrackAudioKeyframeStyle="0" TL.SQTrackShy="0" TL.SQTrackExpandedHeight="15" TL.SQTrackExpanded="0" MZ.TrackTargeted="0" PannerCurrentValue="0.5" PannerIsInverted="true" PannerStartKeyframe="-91445760000000000,0.5,0,0,0,0,0,0" PannerName="Balance" currentExplodedTrackIndex="1" totalExplodedTrackCount="2" premiereTrackType="Stereo">
					<clipitem id="clipitem-2036" premiereChannelType="stereo">
						<masterclipid>masterclip-867</masterclipid>
						<name>SOUND_2021.mp3</name>
						<enabled>TRUE</enabled>
						<duration>45395</duration>
						<rate>
							<timebase>25</timebase>
							<ntsc>FALSE</ntsc>
						</rate>
						<start>262</start>
						<end>-1</end>
						<in>29058</in>
						<out>29605</out>
						<pproTicksIn>295247877120000</pproTicksIn>
						<pproTicksOut>300805747200000</pproTicksOut>
						<file id="file-721"/>
						<sourcetrack>
							<mediatype>audio</mediatype>
							<trackindex>2</trackindex>
						</sourcetrack>
						<filter>
							<effect>
								<name>Audio Levels</name>
								<effectid>audiolevels</effectid>
								<effectcategory>audiolevels</effectcategory>
								<effecttype>audiolevels</effecttype>
								<mediatype>audio</mediatype>
								<pproBypass>false</pproBypass>
								<parameter authoringApp="PremierePro">
									<parameterid>level</parameterid>
									<name>Level</name>
									<valuemin>0</valuemin>
									<valuemax>3.98109</valuemax>
									<value>0.177828</value>
								</parameter>
							</effect>
						</filter>
							<marker>
								<comment></comment>
								<name></name>
								<in>0</in>
								<out>-1</out>
							</marker>
							<marker>
								<comment></comment>
								<name></name>
								<in>35404</in>
								<out>-1</out>
							</marker>
							<marker>
								<comment></comment>
								<name></name>
								<in>22388</in>
								<out>-1</out>
							</marker>
							<marker>
								<comment></comment>
								<name></name>
								<in>16790</in>
								<out>-1</out>
							</marker>
							<marker>
								<comment></comment>
								<name></name>
								<in>11832</in>
								<out>-1</out>
							</marker>
							<marker>
								<comment></comment>
								<name></name>
								<in>43475</in>
								<out>-1</out>
							</marker>
							<marker>
								<comment></comment>
								<name></name>
								<in>19163</in>
								<out>-1</out>
							</marker>
							<marker>
								<comment></comment>
								<name></name>
								<in>26248</in>
								<out>-1</out>
							</marker>
							<marker>
								<comment></comment>
								<name></name>
								<in>9861</in>
								<out>-1</out>
							</marker>
							<marker>
								<comment></comment>
								<name></name>
								<in>39699</in>
								<out>-1</out>
							</marker>
							<marker>
								<comment></comment>
								<name></name>
								<in>37815</in>
								<out>-1</out>
							</marker>
							<marker>
								<comment></comment>
								<name></name>
								<in>33007</in>
								<out>-1</out>
							</marker>
							<marker>
								<comment></comment>
								<name></name>
								<in>2059</in>
								<out>-1</out>
							</marker>
							<marker>
								<comment></comment>
								<name></name>
								<in>2</in>
								<out>-1</out>
							</marker>
							<marker>
								<comment></comment>
								<name></name>
								<in>29059</in>
								<out>-1</out>
							</marker>
							<marker>
								<comment></comment>
								<name></name>
								<in>20862</in>
								<out>-1</out>
							</marker>
							<marker>
								<comment></comment>
								<name></name>
								<in>31139</in>
								<out>-1</out>
							</marker>
							<marker>
								<comment></comment>
								<name></name>
								<in>4214</in>
								<out>-1</out>
							</marker>
							<marker>
								<comment></comment>
								<name></name>
								<in>6200</in>
								<out>-1</out>
							</marker>
							<marker>
								<comment></comment>
								<name></name>
								<in>24484</in>
								<out>-1</out>
							</marker>
							<marker>
								<comment></comment>
								<name></name>
								<in>14293</in>
								<out>-1</out>
							</marker>
						<link>
							<linkclipref>clipitem-2023</linkclipref>
							<mediatype>audio</mediatype>
							<trackindex>5</trackindex>
							<clipindex>1</clipindex>
							<groupindex>1</groupindex>
						</link>
						<link>
							<linkclipref>clipitem-2036</linkclipref>
							<mediatype>audio</mediatype>
							<trackindex>6</trackindex>
							<clipindex>1</clipindex>
							<groupindex>1</groupindex>
						</link>
						<logginginfo>
							<description></description>
							<scene></scene>
							<shottake></shottake>
							<lognote></lognote>
							<good></good>
							<originalvideofilename></originalvideofilename>
							<originalaudiofilename></originalaudiofilename>
						</logginginfo>
						<colorinfo>
							<lut></lut>
							<lut1></lut1>
							<asc_sop></asc_sop>
							<asc_sat></asc_sat>
							<lut2></lut2>
						</colorinfo>
						<labels>
							<label2>Rose</label2>
						</labels>
					</clipitem>
					<transitionitem>
						<start>784</start>
						<end>809</end>
						<pproTicksIn>7965941760000</pproTicksIn>
						<pproTicksOut>8219957760000</pproTicksOut>
						<alignment>end-black</alignment>
						<cutPointTicks>254016000000</cutPointTicks>
						<rate>
							<timebase>25</timebase>
							<ntsc>FALSE</ntsc>
						</rate>
						<effect>
							<name>Cross Fade (+3dB)</name>
							<effectid>KGAudioTransCrossFade3dB</effectid>
							<effecttype>transition</effecttype>
							<mediatype>audio</mediatype>
							<wipecode>0</wipecode>
							<wipeaccuracy>100</wipeaccuracy>
							<startratio>0</startratio>
							<endratio>1</endratio>
							<reverse>FALSE</reverse>
						</effect>
					</transitionitem>
					<clipitem id="clipitem-2037" premiereChannelType="stereo">
						<masterclipid>masterclip-867</masterclipid>
						<name>SOUND_2021.mp3</name>
						<enabled>TRUE</enabled>
						<duration>45395</duration>
						<rate>
							<timebase>25</timebase>
							<ntsc>FALSE</ntsc>
						</rate>
						<start>5263</start>
						<end>-1</end>
						<in>31138</in>
						<out>31573</out>
						<pproTicksIn>316382008320000</pproTicksIn>
						<pproTicksOut>320801886720000</pproTicksOut>
						<file id="file-721"/>
						<sourcetrack>
							<mediatype>audio</mediatype>
							<trackindex>2</trackindex>
						</sourcetrack>
						<filter>
							<effect>
								<name>Audio Levels</name>
								<effectid>audiolevels</effectid>
								<effectcategory>audiolevels</effectcategory>
								<effecttype>audiolevels</effecttype>
								<mediatype>audio</mediatype>
								<pproBypass>false</pproBypass>
								<parameter authoringApp="PremierePro">
									<parameterid>level</parameterid>
									<name>Level</name>
									<valuemin>0</valuemin>
									<valuemax>3.98109</valuemax>
									<value>0.177828</value>
								</parameter>
							</effect>
						</filter>
							<marker>
								<comment></comment>
								<name></name>
								<in>0</in>
								<out>-1</out>
							</marker>
							<marker>
								<comment></comment>
								<name></name>
								<in>35404</in>
								<out>-1</out>
							</marker>
							<marker>
								<comment></comment>
								<name></name>
								<in>22388</in>
								<out>-1</out>
							</marker>
							<marker>
								<comment></comment>
								<name></name>
								<in>16790</in>
								<out>-1</out>
							</marker>
							<marker>
								<comment></comment>
								<name></name>
								<in>11832</in>
								<out>-1</out>
							</marker>
							<marker>
								<comment></comment>
								<name></name>
								<in>43475</in>
								<out>-1</out>
							</marker>
							<marker>
								<comment></comment>
								<name></name>
								<in>19163</in>
								<out>-1</out>
							</marker>
							<marker>
								<comment></comment>
								<name></name>
								<in>26248</in>
								<out>-1</out>
							</marker>
							<marker>
								<comment></comment>
								<name></name>
								<in>9861</in>
								<out>-1</out>
							</marker>
							<marker>
								<comment></comment>
								<name></name>
								<in>39699</in>
								<out>-1</out>
							</marker>
							<marker>
								<comment></comment>
								<name></name>
								<in>37815</in>
								<out>-1</out>
							</marker>
							<marker>
								<comment></comment>
								<name></name>
								<in>33007</in>
								<out>-1</out>
							</marker>
							<marker>
								<comment></comment>
								<name></name>
								<in>2059</in>
								<out>-1</out>
							</marker>
							<marker>
								<comment></comment>
								<name></name>
								<in>2</in>
								<out>-1</out>
							</marker>
							<marker>
								<comment></comment>
								<name></name>
								<in>29059</in>
								<out>-1</out>
							</marker>
							<marker>
								<comment></comment>
								<name></name>
								<in>20862</in>
								<out>-1</out>
							</marker>
							<marker>
								<comment></comment>
								<name></name>
								<in>31139</in>
								<out>-1</out>
							</marker>
							<marker>
								<comment></comment>
								<name></name>
								<in>4214</in>
								<out>-1</out>
							</marker>
							<marker>
								<comment></comment>
								<name></name>
								<in>6200</in>
								<out>-1</out>
							</marker>
							<marker>
								<comment></comment>
								<name></name>
								<in>24484</in>
								<out>-1</out>
							</marker>
							<marker>
								<comment></comment>
								<name></name>
								<in>14293</in>
								<out>-1</out>
							</marker>
						<link>
							<linkclipref>clipitem-2024</linkclipref>
							<mediatype>audio</mediatype>
							<trackindex>5</trackindex>
							<clipindex>3</clipindex>
							<groupindex>1</groupindex>
						</link>
						<link>
							<linkclipref>clipitem-2037</linkclipref>
							<mediatype>audio</mediatype>
							<trackindex>6</trackindex>
							<clipindex>3</clipindex>
							<groupindex>1</groupindex>
						</link>
						<logginginfo>
							<description></description>
							<scene></scene>
							<shottake></shottake>
							<lognote></lognote>
							<good></good>
							<originalvideofilename></originalvideofilename>
							<originalaudiofilename></originalaudiofilename>
						</logginginfo>
						<colorinfo>
							<lut></lut>
							<lut1></lut1>
							<asc_sop></asc_sop>
							<asc_sat></asc_sat>
							<lut2></lut2>
						</colorinfo>
						<labels>
							<label2>Rose</label2>
						</labels>
					</clipitem>
					<transitionitem>
						<start>5673</start>
						<end>5698</end>
						<pproTicksIn>57641310720000</pproTicksIn>
						<pproTicksOut>57895326720000</pproTicksOut>
						<alignment>end-black</alignment>
						<cutPointTicks>254016000000</cutPointTicks>
						<rate>
							<timebase>25</timebase>
							<ntsc>FALSE</ntsc>
						</rate>
						<effect>
							<name>Cross Fade (+3dB)</name>
							<effectid>KGAudioTransCrossFade3dB</effectid>
							<effecttype>transition</effecttype>
							<mediatype>audio</mediatype>
							<wipecode>0</wipecode>
							<wipeaccuracy>100</wipeaccuracy>
							<startratio>0</startratio>
							<endratio>1</endratio>
							<reverse>FALSE</reverse>
						</effect>
					</transitionitem>
					<clipitem id="clipitem-2038" premiereChannelType="stereo">
						<masterclipid>masterclip-867</masterclipid>
						<name>SOUND_2021.mp3</name>
						<enabled>TRUE</enabled>
						<duration>45395</duration>
						<rate>
							<timebase>25</timebase>
							<ntsc>FALSE</ntsc>
						</rate>
						<start>10464</start>
						<end>-1</end>
						<in>33006</in>
						<out>33516</out>
						<pproTicksIn>335362083840000</pproTicksIn>
						<pproTicksOut>340544010240000</pproTicksOut>
						<file id="file-721"/>
						<sourcetrack>
							<mediatype>audio</mediatype>
							<trackindex>2</trackindex>
						</sourcetrack>
						<filter>
							<effect>
								<name>Audio Levels</name>
								<effectid>audiolevels</effectid>
								<effectcategory>audiolevels</effectcategory>
								<effecttype>audiolevels</effecttype>
								<mediatype>audio</mediatype>
								<pproBypass>false</pproBypass>
								<parameter authoringApp="PremierePro">
									<parameterid>level</parameterid>
									<name>Level</name>
									<valuemin>0</valuemin>
									<valuemax>3.98109</valuemax>
									<value>0.177828</value>
								</parameter>
							</effect>
						</filter>
							<marker>
								<comment></comment>
								<name></name>
								<in>0</in>
								<out>-1</out>
							</marker>
							<marker>
								<comment></comment>
								<name></name>
								<in>35404</in>
								<out>-1</out>
							</marker>
							<marker>
								<comment></comment>
								<name></name>
								<in>22388</in>
								<out>-1</out>
							</marker>
							<marker>
								<comment></comment>
								<name></name>
								<in>16790</in>
								<out>-1</out>
							</marker>
							<marker>
								<comment></comment>
								<name></name>
								<in>11832</in>
								<out>-1</out>
							</marker>
							<marker>
								<comment></comment>
								<name></name>
								<in>43475</in>
								<out>-1</out>
							</marker>
							<marker>
								<comment></comment>
								<name></name>
								<in>19163</in>
								<out>-1</out>
							</marker>
							<marker>
								<comment></comment>
								<name></name>
								<in>26248</in>
								<out>-1</out>
							</marker>
							<marker>
								<comment></comment>
								<name></name>
								<in>9861</in>
								<out>-1</out>
							</marker>
							<marker>
								<comment></comment>
								<name></name>
								<in>39699</in>
								<out>-1</out>
							</marker>
							<marker>
								<comment></comment>
								<name></name>
								<in>37815</in>
								<out>-1</out>
							</marker>
							<marker>
								<comment></comment>
								<name></name>
								<in>33007</in>
								<out>-1</out>
							</marker>
							<marker>
								<comment></comment>
								<name></name>
								<in>2059</in>
								<out>-1</out>
							</marker>
							<marker>
								<comment></comment>
								<name></name>
								<in>2</in>
								<out>-1</out>
							</marker>
							<marker>
								<comment></comment>
								<name></name>
								<in>29059</in>
								<out>-1</out>
							</marker>
							<marker>
								<comment></comment>
								<name></name>
								<in>20862</in>
								<out>-1</out>
							</marker>
							<marker>
								<comment></comment>
								<name></name>
								<in>31139</in>
								<out>-1</out>
							</marker>
							<marker>
								<comment></comment>
								<name></name>
								<in>4214</in>
								<out>-1</out>
							</marker>
							<marker>
								<comment></comment>
								<name></name>
								<in>6200</in>
								<out>-1</out>
							</marker>
							<marker>
								<comment></comment>
								<name></name>
								<in>24484</in>
								<out>-1</out>
							</marker>
							<marker>
								<comment></comment>
								<name></name>
								<in>14293</in>
								<out>-1</out>
							</marker>
						<link>
							<linkclipref>clipitem-2025</linkclipref>
							<mediatype>audio</mediatype>
							<trackindex>5</trackindex>
							<clipindex>5</clipindex>
							<groupindex>1</groupindex>
						</link>
						<link>
							<linkclipref>clipitem-2038</linkclipref>
							<mediatype>audio</mediatype>
							<trackindex>6</trackindex>
							<clipindex>5</clipindex>
							<groupindex>1</groupindex>
						</link>
						<logginginfo>
							<description></description>
							<scene></scene>
							<shottake></shottake>
							<lognote></lognote>
							<good></good>
							<originalvideofilename></originalvideofilename>
							<originalaudiofilename></originalaudiofilename>
						</logginginfo>
						<colorinfo>
							<lut></lut>
							<lut1></lut1>
							<asc_sop></asc_sop>
							<asc_sat></asc_sat>
							<lut2></lut2>
						</colorinfo>
						<labels>
							<label2>Rose</label2>
						</labels>
					</clipitem>
					<transitionitem>
						<start>10949</start>
						<end>10974</end>
						<pproTicksIn>111248847360000</pproTicksIn>
						<pproTicksOut>111502863360000</pproTicksOut>
						<alignment>end-black</alignment>
						<cutPointTicks>254016000000</cutPointTicks>
						<rate>
							<timebase>25</timebase>
							<ntsc>FALSE</ntsc>
						</rate>
						<effect>
							<name>Cross Fade (+3dB)</name>
							<effectid>KGAudioTransCrossFade3dB</effectid>
							<effecttype>transition</effecttype>
							<mediatype>audio</mediatype>
							<wipecode>0</wipecode>
							<wipeaccuracy>100</wipeaccuracy>
							<startratio>0</startratio>
							<endratio>1</endratio>
							<reverse>FALSE</reverse>
						</effect>
					</transitionitem>
					<clipitem id="clipitem-2039" premiereChannelType="stereo">
						<masterclipid>masterclip-867</masterclipid>
						<name>SOUND_2021.mp3</name>
						<enabled>TRUE</enabled>
						<duration>45395</duration>
						<rate>
							<timebase>25</timebase>
							<ntsc>FALSE</ntsc>
						</rate>
						<start>15094</start>
						<end>-1</end>
						<in>35403</in>
						<out>35961</out>
						<pproTicksIn>359717137920000</pproTicksIn>
						<pproTicksOut>365386775040000</pproTicksOut>
						<file id="file-721"/>
						<sourcetrack>
							<mediatype>audio</mediatype>
							<trackindex>2</trackindex>
						</sourcetrack>
						<filter>
							<effect>
								<name>Audio Levels</name>
								<effectid>audiolevels</effectid>
								<effectcategory>audiolevels</effectcategory>
								<effecttype>audiolevels</effecttype>
								<mediatype>audio</mediatype>
								<pproBypass>false</pproBypass>
								<parameter authoringApp="PremierePro">
									<parameterid>level</parameterid>
									<name>Level</name>
									<valuemin>0</valuemin>
									<valuemax>3.98109</valuemax>
									<value>0.177828</value>
								</parameter>
							</effect>
						</filter>
							<marker>
								<comment></comment>
								<name></name>
								<in>0</in>
								<out>-1</out>
							</marker>
							<marker>
								<comment></comment>
								<name></name>
								<in>35404</in>
								<out>-1</out>
							</marker>
							<marker>
								<comment></comment>
								<name></name>
								<in>22388</in>
								<out>-1</out>
							</marker>
							<marker>
								<comment></comment>
								<name></name>
								<in>16790</in>
								<out>-1</out>
							</marker>
							<marker>
								<comment></comment>
								<name></name>
								<in>11832</in>
								<out>-1</out>
							</marker>
							<marker>
								<comment></comment>
								<name></name>
								<in>43475</in>
								<out>-1</out>
							</marker>
							<marker>
								<comment></comment>
								<name></name>
								<in>19163</in>
								<out>-1</out>
							</marker>
							<marker>
								<comment></comment>
								<name></name>
								<in>26248</in>
								<out>-1</out>
							</marker>
							<marker>
								<comment></comment>
								<name></name>
								<in>9861</in>
								<out>-1</out>
							</marker>
							<marker>
								<comment></comment>
								<name></name>
								<in>39699</in>
								<out>-1</out>
							</marker>
							<marker>
								<comment></comment>
								<name></name>
								<in>37815</in>
								<out>-1</out>
							</marker>
							<marker>
								<comment></comment>
								<name></name>
								<in>33007</in>
								<out>-1</out>
							</marker>
							<marker>
								<comment></comment>
								<name></name>
								<in>2059</in>
								<out>-1</out>
							</marker>
							<marker>
								<comment></comment>
								<name></name>
								<in>2</in>
								<out>-1</out>
							</marker>
							<marker>
								<comment></comment>
								<name></name>
								<in>29059</in>
								<out>-1</out>
							</marker>
							<marker>
								<comment></comment>
								<name></name>
								<in>20862</in>
								<out>-1</out>
							</marker>
							<marker>
								<comment></comment>
								<name></name>
								<in>31139</in>
								<out>-1</out>
							</marker>
							<marker>
								<comment></comment>
								<name></name>
								<in>4214</in>
								<out>-1</out>
							</marker>
							<marker>
								<comment></comment>
								<name></name>
								<in>6200</in>
								<out>-1</out>
							</marker>
							<marker>
								<comment></comment>
								<name></name>
								<in>24484</in>
								<out>-1</out>
							</marker>
							<marker>
								<comment></comment>
								<name></name>
								<in>14293</in>
								<out>-1</out>
							</marker>
						<link>
							<linkclipref>clipitem-2026</linkclipref>
							<mediatype>audio</mediatype>
							<trackindex>5</trackindex>
							<clipindex>7</clipindex>
							<groupindex>1</groupindex>
						</link>
						<link>
							<linkclipref>clipitem-2039</linkclipref>
							<mediatype>audio</mediatype>
							<trackindex>6</trackindex>
							<clipindex>7</clipindex>
							<groupindex>1</groupindex>
						</link>
						<logginginfo>
							<description></description>
							<scene></scene>
							<shottake></shottake>
							<lognote></lognote>
							<good></good>
							<originalvideofilename></originalvideofilename>
							<originalaudiofilename></originalaudiofilename>
						</logginginfo>
						<colorinfo>
							<lut></lut>
							<lut1></lut1>
							<asc_sop></asc_sop>
							<asc_sat></asc_sat>
							<lut2></lut2>
						</colorinfo>
						<labels>
							<label2>Rose</label2>
						</labels>
					</clipitem>
					<transitionitem>
						<start>15627</start>
						<end>15652</end>
						<pproTicksIn>158780321280000</pproTicksIn>
						<pproTicksOut>159034337280000</pproTicksOut>
						<alignment>end-black</alignment>
						<cutPointTicks>254016000000</cutPointTicks>
						<rate>
							<timebase>25</timebase>
							<ntsc>FALSE</ntsc>
						</rate>
						<effect>
							<name>Cross Fade (+3dB)</name>
							<effectid>KGAudioTransCrossFade3dB</effectid>
							<effecttype>transition</effecttype>
							<mediatype>audio</mediatype>
							<wipecode>0</wipecode>
							<wipeaccuracy>100</wipeaccuracy>
							<startratio>0</startratio>
							<endratio>1</endratio>
							<reverse>FALSE</reverse>
						</effect>
					</transitionitem>
					<clipitem id="clipitem-2040" premiereChannelType="stereo">
						<masterclipid>masterclip-867</masterclipid>
						<name>SOUND_2021.mp3</name>
						<enabled>TRUE</enabled>
						<duration>45395</duration>
						<rate>
							<timebase>25</timebase>
							<ntsc>FALSE</ntsc>
						</rate>
						<start>20585</start>
						<end>-1</end>
						<in>37814</in>
						<out>38492</out>
						<pproTicksIn>384214440960000</pproTicksIn>
						<pproTicksOut>391103354880000</pproTicksOut>
						<file id="file-721"/>
						<sourcetrack>
							<mediatype>audio</mediatype>
							<trackindex>2</trackindex>
						</sourcetrack>
						<filter>
							<effect>
								<name>Audio Levels</name>
								<effectid>audiolevels</effectid>
								<effectcategory>audiolevels</effectcategory>
								<effecttype>audiolevels</effecttype>
								<mediatype>audio</mediatype>
								<pproBypass>false</pproBypass>
								<parameter authoringApp="PremierePro">
									<parameterid>level</parameterid>
									<name>Level</name>
									<valuemin>0</valuemin>
									<valuemax>3.98109</valuemax>
									<value>0.177828</value>
								</parameter>
							</effect>
						</filter>
							<marker>
								<comment></comment>
								<name></name>
								<in>0</in>
								<out>-1</out>
							</marker>
							<marker>
								<comment></comment>
								<name></name>
								<in>35404</in>
								<out>-1</out>
							</marker>
							<marker>
								<comment></comment>
								<name></name>
								<in>22388</in>
								<out>-1</out>
							</marker>
							<marker>
								<comment></comment>
								<name></name>
								<in>16790</in>
								<out>-1</out>
							</marker>
							<marker>
								<comment></comment>
								<name></name>
								<in>11832</in>
								<out>-1</out>
							</marker>
							<marker>
								<comment></comment>
								<name></name>
								<in>43475</in>
								<out>-1</out>
							</marker>
							<marker>
								<comment></comment>
								<name></name>
								<in>19163</in>
								<out>-1</out>
							</marker>
							<marker>
								<comment></comment>
								<name></name>
								<in>26248</in>
								<out>-1</out>
							</marker>
							<marker>
								<comment></comment>
								<name></name>
								<in>9861</in>
								<out>-1</out>
							</marker>
							<marker>
								<comment></comment>
								<name></name>
								<in>39699</in>
								<out>-1</out>
							</marker>
							<marker>
								<comment></comment>
								<name></name>
								<in>37815</in>
								<out>-1</out>
							</marker>
							<marker>
								<comment></comment>
								<name></name>
								<in>33007</in>
								<out>-1</out>
							</marker>
							<marker>
								<comment></comment>
								<name></name>
								<in>2059</in>
								<out>-1</out>
							</marker>
							<marker>
								<comment></comment>
								<name></name>
								<in>2</in>
								<out>-1</out>
							</marker>
							<marker>
								<comment></comment>
								<name></name>
								<in>29059</in>
								<out>-1</out>
							</marker>
							<marker>
								<comment></comment>
								<name></name>
								<in>20862</in>
								<out>-1</out>
							</marker>
							<marker>
								<comment></comment>
								<name></name>
								<in>31139</in>
								<out>-1</out>
							</marker>
							<marker>
								<comment></comment>
								<name></name>
								<in>4214</in>
								<out>-1</out>
							</marker>
							<marker>
								<comment></comment>
								<name></name>
								<in>6200</in>
								<out>-1</out>
							</marker>
							<marker>
								<comment></comment>
								<name></name>
								<in>24484</in>
								<out>-1</out>
							</marker>
							<marker>
								<comment></comment>
								<name></name>
								<in>14293</in>
								<out>-1</out>
							</marker>
						<link>
							<linkclipref>clipitem-2027</linkclipref>
							<mediatype>audio</mediatype>
							<trackindex>5</trackindex>
							<clipindex>9</clipindex>
							<groupindex>1</groupindex>
						</link>
						<link>
							<linkclipref>clipitem-2040</linkclipref>
							<mediatype>audio</mediatype>
							<trackindex>6</trackindex>
							<clipindex>9</clipindex>
							<groupindex>1</groupindex>
						</link>
						<logginginfo>
							<description></description>
							<scene></scene>
							<shottake></shottake>
							<lognote></lognote>
							<good></good>
							<originalvideofilename></originalvideofilename>
							<originalaudiofilename></originalaudiofilename>
						</logginginfo>
						<colorinfo>
							<lut></lut>
							<lut1></lut1>
							<asc_sop></asc_sop>
							<asc_sat></asc_sat>
							<lut2></lut2>
						</colorinfo>
						<labels>
							<label2>Rose</label2>
						</labels>
					</clipitem>
					<transitionitem>
						<start>21238</start>
						<end>21263</end>
						<pproTicksIn>215791672320000</pproTicksIn>
						<pproTicksOut>216045688320000</pproTicksOut>
						<alignment>end-black</alignment>
						<cutPointTicks>254016000000</cutPointTicks>
						<rate>
							<timebase>25</timebase>
							<ntsc>FALSE</ntsc>
						</rate>
						<effect>
							<name>Cross Fade (+3dB)</name>
							<effectid>KGAudioTransCrossFade3dB</effectid>
							<effecttype>transition</effecttype>
							<mediatype>audio</mediatype>
							<wipecode>0</wipecode>
							<wipeaccuracy>100</wipeaccuracy>
							<startratio>0</startratio>
							<endratio>1</endratio>
							<reverse>FALSE</reverse>
						</effect>
					</transitionitem>
					<clipitem id="clipitem-2041" premiereChannelType="stereo">
						<masterclipid>masterclip-867</masterclipid>
						<name>SOUND_2021.mp3</name>
						<enabled>TRUE</enabled>
						<duration>45395</duration>
						<rate>
							<timebase>25</timebase>
							<ntsc>FALSE</ntsc>
						</rate>
						<start>26626</start>
						<end>-1</end>
						<in>39698</in>
						<out>40416</out>
						<pproTicksIn>403357086720000</pproTicksIn>
						<pproTicksOut>410652426240000</pproTicksOut>
						<file id="file-721"/>
						<sourcetrack>
							<mediatype>audio</mediatype>
							<trackindex>2</trackindex>
						</sourcetrack>
						<filter>
							<effect>
								<name>Audio Levels</name>
								<effectid>audiolevels</effectid>
								<effectcategory>audiolevels</effectcategory>
								<effecttype>audiolevels</effecttype>
								<mediatype>audio</mediatype>
								<pproBypass>false</pproBypass>
								<parameter authoringApp="PremierePro">
									<parameterid>level</parameterid>
									<name>Level</name>
									<valuemin>0</valuemin>
									<valuemax>3.98109</valuemax>
									<value>0.177828</value>
								</parameter>
							</effect>
						</filter>
							<marker>
								<comment></comment>
								<name></name>
								<in>0</in>
								<out>-1</out>
							</marker>
							<marker>
								<comment></comment>
								<name></name>
								<in>35404</in>
								<out>-1</out>
							</marker>
							<marker>
								<comment></comment>
								<name></name>
								<in>22388</in>
								<out>-1</out>
							</marker>
							<marker>
								<comment></comment>
								<name></name>
								<in>16790</in>
								<out>-1</out>
							</marker>
							<marker>
								<comment></comment>
								<name></name>
								<in>11832</in>
								<out>-1</out>
							</marker>
							<marker>
								<comment></comment>
								<name></name>
								<in>43475</in>
								<out>-1</out>
							</marker>
							<marker>
								<comment></comment>
								<name></name>
								<in>19163</in>
								<out>-1</out>
							</marker>
							<marker>
								<comment></comment>
								<name></name>
								<in>26248</in>
								<out>-1</out>
							</marker>
							<marker>
								<comment></comment>
								<name></name>
								<in>9861</in>
								<out>-1</out>
							</marker>
							<marker>
								<comment></comment>
								<name></name>
								<in>39699</in>
								<out>-1</out>
							</marker>
							<marker>
								<comment></comment>
								<name></name>
								<in>37815</in>
								<out>-1</out>
							</marker>
							<marker>
								<comment></comment>
								<name></name>
								<in>33007</in>
								<out>-1</out>
							</marker>
							<marker>
								<comment></comment>
								<name></name>
								<in>2059</in>
								<out>-1</out>
							</marker>
							<marker>
								<comment></comment>
								<name></name>
								<in>2</in>
								<out>-1</out>
							</marker>
							<marker>
								<comment></comment>
								<name></name>
								<in>29059</in>
								<out>-1</out>
							</marker>
							<marker>
								<comment></comment>
								<name></name>
								<in>20862</in>
								<out>-1</out>
							</marker>
							<marker>
								<comment></comment>
								<name></name>
								<in>31139</in>
								<out>-1</out>
							</marker>
							<marker>
								<comment></comment>
								<name></name>
								<in>4214</in>
								<out>-1</out>
							</marker>
							<marker>
								<comment></comment>
								<name></name>
								<in>6200</in>
								<out>-1</out>
							</marker>
							<marker>
								<comment></comment>
								<name></name>
								<in>24484</in>
								<out>-1</out>
							</marker>
							<marker>
								<comment></comment>
								<name></name>
								<in>14293</in>
								<out>-1</out>
							</marker>
						<link>
							<linkclipref>clipitem-2028</linkclipref>
							<mediatype>audio</mediatype>
							<trackindex>5</trackindex>
							<clipindex>11</clipindex>
							<groupindex>1</groupindex>
						</link>
						<link>
							<linkclipref>clipitem-2041</linkclipref>
							<mediatype>audio</mediatype>
							<trackindex>6</trackindex>
							<clipindex>11</clipindex>
							<groupindex>1</groupindex>
						</link>
						<logginginfo>
							<description></description>
							<scene></scene>
							<shottake></shottake>
							<lognote></lognote>
							<good></good>
							<originalvideofilename></originalvideofilename>
							<originalaudiofilename></originalaudiofilename>
						</logginginfo>
						<colorinfo>
							<lut></lut>
							<lut1></lut1>
							<asc_sop></asc_sop>
							<asc_sat></asc_sat>
							<lut2></lut2>
						</colorinfo>
						<labels>
							<label2>Rose</label2>
						</labels>
					</clipitem>
					<transitionitem>
						<start>27319</start>
						<end>27344</end>
						<pproTicksIn>277578524160000</pproTicksIn>
						<pproTicksOut>277832540160000</pproTicksOut>
						<alignment>end-black</alignment>
						<cutPointTicks>254016000000</cutPointTicks>
						<rate>
							<timebase>25</timebase>
							<ntsc>FALSE</ntsc>
						</rate>
						<effect>
							<name>Cross Fade (+3dB)</name>
							<effectid>KGAudioTransCrossFade3dB</effectid>
							<effecttype>transition</effecttype>
							<mediatype>audio</mediatype>
							<wipecode>0</wipecode>
							<wipeaccuracy>100</wipeaccuracy>
							<startratio>0</startratio>
							<endratio>1</endratio>
							<reverse>FALSE</reverse>
						</effect>
					</transitionitem>
					<clipitem id="clipitem-2042" premiereChannelType="stereo">
						<masterclipid>masterclip-867</masterclipid>
						<name>SOUND_2021.mp3</name>
						<enabled>TRUE</enabled>
						<duration>45395</duration>
						<rate>
							<timebase>25</timebase>
							<ntsc>FALSE</ntsc>
						</rate>
						<start>34026</start>
						<end>-1</end>
						<in>43474</in>
						<out>44156</out>
						<pproTicksIn>441723663360000</pproTicksIn>
						<pproTicksOut>448653219840000</pproTicksOut>
						<file id="file-721"/>
						<sourcetrack>
							<mediatype>audio</mediatype>
							<trackindex>2</trackindex>
						</sourcetrack>
						<filter>
							<effect>
								<name>Audio Levels</name>
								<effectid>audiolevels</effectid>
								<effectcategory>audiolevels</effectcategory>
								<effecttype>audiolevels</effecttype>
								<mediatype>audio</mediatype>
								<pproBypass>false</pproBypass>
								<parameter authoringApp="PremierePro">
									<parameterid>level</parameterid>
									<name>Level</name>
									<valuemin>0</valuemin>
									<valuemax>3.98109</valuemax>
									<value>0.177828</value>
								</parameter>
							</effect>
						</filter>
							<marker>
								<comment></comment>
								<name></name>
								<in>0</in>
								<out>-1</out>
							</marker>
							<marker>
								<comment></comment>
								<name></name>
								<in>35404</in>
								<out>-1</out>
							</marker>
							<marker>
								<comment></comment>
								<name></name>
								<in>22388</in>
								<out>-1</out>
							</marker>
							<marker>
								<comment></comment>
								<name></name>
								<in>16790</in>
								<out>-1</out>
							</marker>
							<marker>
								<comment></comment>
								<name></name>
								<in>11832</in>
								<out>-1</out>
							</marker>
							<marker>
								<comment></comment>
								<name></name>
								<in>43475</in>
								<out>-1</out>
							</marker>
							<marker>
								<comment></comment>
								<name></name>
								<in>19163</in>
								<out>-1</out>
							</marker>
							<marker>
								<comment></comment>
								<name></name>
								<in>26248</in>
								<out>-1</out>
							</marker>
							<marker>
								<comment></comment>
								<name></name>
								<in>9861</in>
								<out>-1</out>
							</marker>
							<marker>
								<comment></comment>
								<name></name>
								<in>39699</in>
								<out>-1</out>
							</marker>
							<marker>
								<comment></comment>
								<name></name>
								<in>37815</in>
								<out>-1</out>
							</marker>
							<marker>
								<comment></comment>
								<name></name>
								<in>33007</in>
								<out>-1</out>
							</marker>
							<marker>
								<comment></comment>
								<name></name>
								<in>2059</in>
								<out>-1</out>
							</marker>
							<marker>
								<comment></comment>
								<name></name>
								<in>2</in>
								<out>-1</out>
							</marker>
							<marker>
								<comment></comment>
								<name></name>
								<in>29059</in>
								<out>-1</out>
							</marker>
							<marker>
								<comment></comment>
								<name></name>
								<in>20862</in>
								<out>-1</out>
							</marker>
							<marker>
								<comment></comment>
								<name></name>
								<in>31139</in>
								<out>-1</out>
							</marker>
							<marker>
								<comment></comment>
								<name></name>
								<in>4214</in>
								<out>-1</out>
							</marker>
							<marker>
								<comment></comment>
								<name></name>
								<in>6200</in>
								<out>-1</out>
							</marker>
							<marker>
								<comment></comment>
								<name></name>
								<in>24484</in>
								<out>-1</out>
							</marker>
							<marker>
								<comment></comment>
								<name></name>
								<in>14293</in>
								<out>-1</out>
							</marker>
						<link>
							<linkclipref>clipitem-2029</linkclipref>
							<mediatype>audio</mediatype>
							<trackindex>5</trackindex>
							<clipindex>13</clipindex>
							<groupindex>1</groupindex>
						</link>
						<link>
							<linkclipref>clipitem-2042</linkclipref>
							<mediatype>audio</mediatype>
							<trackindex>6</trackindex>
							<clipindex>13</clipindex>
							<groupindex>1</groupindex>
						</link>
						<logginginfo>
							<description></description>
							<scene></scene>
							<shottake></shottake>
							<lognote></lognote>
							<good></good>
							<originalvideofilename></originalvideofilename>
							<originalaudiofilename></originalaudiofilename>
						</logginginfo>
						<colorinfo>
							<lut></lut>
							<lut1></lut1>
							<asc_sop></asc_sop>
							<asc_sat></asc_sat>
							<lut2></lut2>
						</colorinfo>
						<labels>
							<label2>Rose</label2>
						</labels>
					</clipitem>
					<transitionitem>
						<start>34683</start>
						<end>34708</end>
						<pproTicksIn>352401477120000</pproTicksIn>
						<pproTicksOut>352655493120000</pproTicksOut>
						<alignment>end-black</alignment>
						<cutPointTicks>254016000000</cutPointTicks>
						<rate>
							<timebase>25</timebase>
							<ntsc>FALSE</ntsc>
						</rate>
						<effect>
							<name>Cross Fade (+3dB)</name>
							<effectid>KGAudioTransCrossFade3dB</effectid>
							<effecttype>transition</effecttype>
							<mediatype>audio</mediatype>
							<wipecode>0</wipecode>
							<wipeaccuracy>100</wipeaccuracy>
							<startratio>0</startratio>
							<endratio>1</endratio>
							<reverse>FALSE</reverse>
						</effect>
					</transitionitem>
					<clipitem id="clipitem-2043" premiereChannelType="stereo">
						<masterclipid>masterclip-867</masterclipid>
						<name>SOUND_2021.mp3</name>
						<enabled>TRUE</enabled>
						<duration>45395</duration>
						<rate>
							<timebase>25</timebase>
							<ntsc>FALSE</ntsc>
						</rate>
						<start>39540</start>
						<end>-1</end>
						<in>16789</in>
						<out>17264</out>
						<pproTicksIn>170586984960000</pproTicksIn>
						<pproTicksOut>175413288960000</pproTicksOut>
						<file id="file-721"/>
						<sourcetrack>
							<mediatype>audio</mediatype>
							<trackindex>2</trackindex>
						</sourcetrack>
						<filter>
							<effect>
								<name>Audio Levels</name>
								<effectid>audiolevels</effectid>
								<effectcategory>audiolevels</effectcategory>
								<effecttype>audiolevels</effecttype>
								<mediatype>audio</mediatype>
								<pproBypass>false</pproBypass>
								<parameter authoringApp="PremierePro">
									<parameterid>level</parameterid>
									<name>Level</name>
									<valuemin>0</valuemin>
									<valuemax>3.98109</valuemax>
									<value>0.177828</value>
								</parameter>
							</effect>
						</filter>
							<marker>
								<comment></comment>
								<name></name>
								<in>0</in>
								<out>-1</out>
							</marker>
							<marker>
								<comment></comment>
								<name></name>
								<in>35404</in>
								<out>-1</out>
							</marker>
							<marker>
								<comment></comment>
								<name></name>
								<in>22388</in>
								<out>-1</out>
							</marker>
							<marker>
								<comment></comment>
								<name></name>
								<in>16790</in>
								<out>-1</out>
							</marker>
							<marker>
								<comment></comment>
								<name></name>
								<in>11832</in>
								<out>-1</out>
							</marker>
							<marker>
								<comment></comment>
								<name></name>
								<in>43475</in>
								<out>-1</out>
							</marker>
							<marker>
								<comment></comment>
								<name></name>
								<in>19163</in>
								<out>-1</out>
							</marker>
							<marker>
								<comment></comment>
								<name></name>
								<in>26248</in>
								<out>-1</out>
							</marker>
							<marker>
								<comment></comment>
								<name></name>
								<in>9861</in>
								<out>-1</out>
							</marker>
							<marker>
								<comment></comment>
								<name></name>
								<in>39699</in>
								<out>-1</out>
							</marker>
							<marker>
								<comment></comment>
								<name></name>
								<in>37815</in>
								<out>-1</out>
							</marker>
							<marker>
								<comment></comment>
								<name></name>
								<in>33007</in>
								<out>-1</out>
							</marker>
							<marker>
								<comment></comment>
								<name></name>
								<in>2059</in>
								<out>-1</out>
							</marker>
							<marker>
								<comment></comment>
								<name></name>
								<in>2</in>
								<out>-1</out>
							</marker>
							<marker>
								<comment></comment>
								<name></name>
								<in>29059</in>
								<out>-1</out>
							</marker>
							<marker>
								<comment></comment>
								<name></name>
								<in>20862</in>
								<out>-1</out>
							</marker>
							<marker>
								<comment></comment>
								<name></name>
								<in>31139</in>
								<out>-1</out>
							</marker>
							<marker>
								<comment></comment>
								<name></name>
								<in>4214</in>
								<out>-1</out>
							</marker>
							<marker>
								<comment></comment>
								<name></name>
								<in>6200</in>
								<out>-1</out>
							</marker>
							<marker>
								<comment></comment>
								<name></name>
								<in>24484</in>
								<out>-1</out>
							</marker>
							<marker>
								<comment></comment>
								<name></name>
								<in>14293</in>
								<out>-1</out>
							</marker>
						<link>
							<linkclipref>clipitem-2030</linkclipref>
							<mediatype>audio</mediatype>
							<trackindex>5</trackindex>
							<clipindex>15</clipindex>
							<groupindex>1</groupindex>
						</link>
						<link>
							<linkclipref>clipitem-2043</linkclipref>
							<mediatype>audio</mediatype>
							<trackindex>6</trackindex>
							<clipindex>15</clipindex>
							<groupindex>1</groupindex>
						</link>
						<logginginfo>
							<description></description>
							<scene></scene>
							<shottake></shottake>
							<lognote></lognote>
							<good></good>
							<originalvideofilename></originalvideofilename>
							<originalaudiofilename></originalaudiofilename>
						</logginginfo>
						<colorinfo>
							<lut></lut>
							<lut1></lut1>
							<asc_sop></asc_sop>
							<asc_sat></asc_sat>
							<lut2></lut2>
						</colorinfo>
						<labels>
							<label2>Rose</label2>
						</labels>
					</clipitem>
					<transitionitem>
						<start>39990</start>
						<end>40015</end>
						<pproTicksIn>406323993600000</pproTicksIn>
						<pproTicksOut>406578009600000</pproTicksOut>
						<alignment>end-black</alignment>
						<cutPointTicks>254016000000</cutPointTicks>
						<rate>
							<timebase>25</timebase>
							<ntsc>FALSE</ntsc>
						</rate>
						<effect>
							<name>Cross Fade (+3dB)</name>
							<effectid>KGAudioTransCrossFade3dB</effectid>
							<effecttype>transition</effecttype>
							<mediatype>audio</mediatype>
							<wipecode>0</wipecode>
							<wipeaccuracy>100</wipeaccuracy>
							<startratio>0</startratio>
							<endratio>1</endratio>
							<reverse>FALSE</reverse>
						</effect>
					</transitionitem>
					<clipitem id="clipitem-2044" premiereChannelType="stereo">
						<masterclipid>masterclip-867</masterclipid>
						<name>SOUND_2021.mp3</name>
						<enabled>TRUE</enabled>
						<duration>45395</duration>
						<rate>
							<timebase>25</timebase>
							<ntsc>FALSE</ntsc>
						</rate>
						<start>43120</start>
						<end>-1</end>
						<in>19162</in>
						<out>19741</out>
						<pproTicksIn>194698183680000</pproTicksIn>
						<pproTicksOut>200581194240000</pproTicksOut>
						<file id="file-721"/>
						<sourcetrack>
							<mediatype>audio</mediatype>
							<trackindex>2</trackindex>
						</sourcetrack>
						<filter>
							<effect>
								<name>Audio Levels</name>
								<effectid>audiolevels</effectid>
								<effectcategory>audiolevels</effectcategory>
								<effecttype>audiolevels</effecttype>
								<mediatype>audio</mediatype>
								<pproBypass>false</pproBypass>
								<parameter authoringApp="PremierePro">
									<parameterid>level</parameterid>
									<name>Level</name>
									<valuemin>0</valuemin>
									<valuemax>3.98109</valuemax>
									<value>0.177828</value>
								</parameter>
							</effect>
						</filter>
							<marker>
								<comment></comment>
								<name></name>
								<in>0</in>
								<out>-1</out>
							</marker>
							<marker>
								<comment></comment>
								<name></name>
								<in>35404</in>
								<out>-1</out>
							</marker>
							<marker>
								<comment></comment>
								<name></name>
								<in>22388</in>
								<out>-1</out>
							</marker>
							<marker>
								<comment></comment>
								<name></name>
								<in>16790</in>
								<out>-1</out>
							</marker>
							<marker>
								<comment></comment>
								<name></name>
								<in>11832</in>
								<out>-1</out>
							</marker>
							<marker>
								<comment></comment>
								<name></name>
								<in>43475</in>
								<out>-1</out>
							</marker>
							<marker>
								<comment></comment>
								<name></name>
								<in>19163</in>
								<out>-1</out>
							</marker>
							<marker>
								<comment></comment>
								<name></name>
								<in>26248</in>
								<out>-1</out>
							</marker>
							<marker>
								<comment></comment>
								<name></name>
								<in>9861</in>
								<out>-1</out>
							</marker>
							<marker>
								<comment></comment>
								<name></name>
								<in>39699</in>
								<out>-1</out>
							</marker>
							<marker>
								<comment></comment>
								<name></name>
								<in>37815</in>
								<out>-1</out>
							</marker>
							<marker>
								<comment></comment>
								<name></name>
								<in>33007</in>
								<out>-1</out>
							</marker>
							<marker>
								<comment></comment>
								<name></name>
								<in>2059</in>
								<out>-1</out>
							</marker>
							<marker>
								<comment></comment>
								<name></name>
								<in>2</in>
								<out>-1</out>
							</marker>
							<marker>
								<comment></comment>
								<name></name>
								<in>29059</in>
								<out>-1</out>
							</marker>
							<marker>
								<comment></comment>
								<name></name>
								<in>20862</in>
								<out>-1</out>
							</marker>
							<marker>
								<comment></comment>
								<name></name>
								<in>31139</in>
								<out>-1</out>
							</marker>
							<marker>
								<comment></comment>
								<name></name>
								<in>4214</in>
								<out>-1</out>
							</marker>
							<marker>
								<comment></comment>
								<name></name>
								<in>6200</in>
								<out>-1</out>
							</marker>
							<marker>
								<comment></comment>
								<name></name>
								<in>24484</in>
								<out>-1</out>
							</marker>
							<marker>
								<comment></comment>
								<name></name>
								<in>14293</in>
								<out>-1</out>
							</marker>
						<link>
							<linkclipref>clipitem-2031</linkclipref>
							<mediatype>audio</mediatype>
							<trackindex>5</trackindex>
							<clipindex>17</clipindex>
							<groupindex>1</groupindex>
						</link>
						<link>
							<linkclipref>clipitem-2044</linkclipref>
							<mediatype>audio</mediatype>
							<trackindex>6</trackindex>
							<clipindex>17</clipindex>
							<groupindex>1</groupindex>
						</link>
						<logginginfo>
							<description></description>
							<scene></scene>
							<shottake></shottake>
							<lognote></lognote>
							<good></good>
							<originalvideofilename></originalvideofilename>
							<originalaudiofilename></originalaudiofilename>
						</logginginfo>
						<colorinfo>
							<lut></lut>
							<lut1></lut1>
							<asc_sop></asc_sop>
							<asc_sat></asc_sat>
							<lut2></lut2>
						</colorinfo>
						<labels>
							<label2>Rose</label2>
						</labels>
					</clipitem>
					<transitionitem>
						<start>43674</start>
						<end>43699</end>
						<pproTicksIn>443755791360000</pproTicksIn>
						<pproTicksOut>444009807360000</pproTicksOut>
						<alignment>end-black</alignment>
						<cutPointTicks>254016000000</cutPointTicks>
						<rate>
							<timebase>25</timebase>
							<ntsc>FALSE</ntsc>
						</rate>
						<effect>
							<name>Cross Fade (+3dB)</name>
							<effectid>KGAudioTransCrossFade3dB</effectid>
							<effecttype>transition</effecttype>
							<mediatype>audio</mediatype>
							<wipecode>0</wipecode>
							<wipeaccuracy>100</wipeaccuracy>
							<startratio>0</startratio>
							<endratio>1</endratio>
							<reverse>FALSE</reverse>
						</effect>
					</transitionitem>
					<clipitem id="clipitem-2045" premiereChannelType="stereo">
						<masterclipid>masterclip-867</masterclipid>
						<name>SOUND_2021.mp3</name>
						<enabled>TRUE</enabled>
						<duration>45395</duration>
						<rate>
							<timebase>25</timebase>
							<ntsc>FALSE</ntsc>
						</rate>
						<start>49348</start>
						<end>-1</end>
						<in>20861</in>
						<out>21536</out>
						<pproTicksIn>211961111040000</pproTicksIn>
						<pproTicksOut>218819543040000</pproTicksOut>
						<file id="file-721"/>
						<sourcetrack>
							<mediatype>audio</mediatype>
							<trackindex>2</trackindex>
						</sourcetrack>
						<filter>
							<effect>
								<name>Audio Levels</name>
								<effectid>audiolevels</effectid>
								<effectcategory>audiolevels</effectcategory>
								<effecttype>audiolevels</effecttype>
								<mediatype>audio</mediatype>
								<pproBypass>false</pproBypass>
								<parameter authoringApp="PremierePro">
									<parameterid>level</parameterid>
									<name>Level</name>
									<valuemin>0</valuemin>
									<valuemax>3.98109</valuemax>
									<value>0.177828</value>
								</parameter>
							</effect>
						</filter>
							<marker>
								<comment></comment>
								<name></name>
								<in>0</in>
								<out>-1</out>
							</marker>
							<marker>
								<comment></comment>
								<name></name>
								<in>35404</in>
								<out>-1</out>
							</marker>
							<marker>
								<comment></comment>
								<name></name>
								<in>22388</in>
								<out>-1</out>
							</marker>
							<marker>
								<comment></comment>
								<name></name>
								<in>16790</in>
								<out>-1</out>
							</marker>
							<marker>
								<comment></comment>
								<name></name>
								<in>11832</in>
								<out>-1</out>
							</marker>
							<marker>
								<comment></comment>
								<name></name>
								<in>43475</in>
								<out>-1</out>
							</marker>
							<marker>
								<comment></comment>
								<name></name>
								<in>19163</in>
								<out>-1</out>
							</marker>
							<marker>
								<comment></comment>
								<name></name>
								<in>26248</in>
								<out>-1</out>
							</marker>
							<marker>
								<comment></comment>
								<name></name>
								<in>9861</in>
								<out>-1</out>
							</marker>
							<marker>
								<comment></comment>
								<name></name>
								<in>39699</in>
								<out>-1</out>
							</marker>
							<marker>
								<comment></comment>
								<name></name>
								<in>37815</in>
								<out>-1</out>
							</marker>
							<marker>
								<comment></comment>
								<name></name>
								<in>33007</in>
								<out>-1</out>
							</marker>
							<marker>
								<comment></comment>
								<name></name>
								<in>2059</in>
								<out>-1</out>
							</marker>
							<marker>
								<comment></comment>
								<name></name>
								<in>2</in>
								<out>-1</out>
							</marker>
							<marker>
								<comment></comment>
								<name></name>
								<in>29059</in>
								<out>-1</out>
							</marker>
							<marker>
								<comment></comment>
								<name></name>
								<in>20862</in>
								<out>-1</out>
							</marker>
							<marker>
								<comment></comment>
								<name></name>
								<in>31139</in>
								<out>-1</out>
							</marker>
							<marker>
								<comment></comment>
								<name></name>
								<in>4214</in>
								<out>-1</out>
							</marker>
							<marker>
								<comment></comment>
								<name></name>
								<in>6200</in>
								<out>-1</out>
							</marker>
							<marker>
								<comment></comment>
								<name></name>
								<in>24484</in>
								<out>-1</out>
							</marker>
							<marker>
								<comment></comment>
								<name></name>
								<in>14293</in>
								<out>-1</out>
							</marker>
						<link>
							<linkclipref>clipitem-2032</linkclipref>
							<mediatype>audio</mediatype>
							<trackindex>5</trackindex>
							<clipindex>19</clipindex>
							<groupindex>1</groupindex>
						</link>
						<link>
							<linkclipref>clipitem-2045</linkclipref>
							<mediatype>audio</mediatype>
							<trackindex>6</trackindex>
							<clipindex>19</clipindex>
							<groupindex>1</groupindex>
						</link>
						<logginginfo>
							<description></description>
							<scene></scene>
							<shottake></shottake>
							<lognote></lognote>
							<good></good>
							<originalvideofilename></originalvideofilename>
							<originalaudiofilename></originalaudiofilename>
						</logginginfo>
						<colorinfo>
							<lut></lut>
							<lut1></lut1>
							<asc_sop></asc_sop>
							<asc_sat></asc_sat>
							<lut2></lut2>
						</colorinfo>
						<labels>
							<label2>Rose</label2>
						</labels>
					</clipitem>
					<transitionitem>
						<start>49998</start>
						<end>50023</end>
						<pproTicksIn>508011678720000</pproTicksIn>
						<pproTicksOut>508265694720000</pproTicksOut>
						<alignment>end-black</alignment>
						<cutPointTicks>254016000000</cutPointTicks>
						<rate>
							<timebase>25</timebase>
							<ntsc>FALSE</ntsc>
						</rate>
						<effect>
							<name>Cross Fade (+3dB)</name>
							<effectid>KGAudioTransCrossFade3dB</effectid>
							<effecttype>transition</effecttype>
							<mediatype>audio</mediatype>
							<wipecode>0</wipecode>
							<wipeaccuracy>100</wipeaccuracy>
							<startratio>0</startratio>
							<endratio>1</endratio>
							<reverse>FALSE</reverse>
						</effect>
					</transitionitem>
					<clipitem id="clipitem-2046" premiereChannelType="stereo">
						<masterclipid>masterclip-867</masterclipid>
						<name>SOUND_2021.mp3</name>
						<enabled>TRUE</enabled>
						<duration>45395</duration>
						<rate>
							<timebase>25</timebase>
							<ntsc>FALSE</ntsc>
						</rate>
						<start>54043</start>
						<end>-1</end>
						<in>22387</in>
						<out>22933</out>
						<pproTicksIn>227466247680000</pproTicksIn>
						<pproTicksOut>233013957120000</pproTicksOut>
						<file id="file-721"/>
						<sourcetrack>
							<mediatype>audio</mediatype>
							<trackindex>2</trackindex>
						</sourcetrack>
						<filter>
							<effect>
								<name>Audio Levels</name>
								<effectid>audiolevels</effectid>
								<effectcategory>audiolevels</effectcategory>
								<effecttype>audiolevels</effecttype>
								<mediatype>audio</mediatype>
								<pproBypass>false</pproBypass>
								<parameter authoringApp="PremierePro">
									<parameterid>level</parameterid>
									<name>Level</name>
									<valuemin>0</valuemin>
									<valuemax>3.98109</valuemax>
									<value>0.177828</value>
								</parameter>
							</effect>
						</filter>
							<marker>
								<comment></comment>
								<name></name>
								<in>0</in>
								<out>-1</out>
							</marker>
							<marker>
								<comment></comment>
								<name></name>
								<in>35404</in>
								<out>-1</out>
							</marker>
							<marker>
								<comment></comment>
								<name></name>
								<in>22388</in>
								<out>-1</out>
							</marker>
							<marker>
								<comment></comment>
								<name></name>
								<in>16790</in>
								<out>-1</out>
							</marker>
							<marker>
								<comment></comment>
								<name></name>
								<in>11832</in>
								<out>-1</out>
							</marker>
							<marker>
								<comment></comment>
								<name></name>
								<in>43475</in>
								<out>-1</out>
							</marker>
							<marker>
								<comment></comment>
								<name></name>
								<in>19163</in>
								<out>-1</out>
							</marker>
							<marker>
								<comment></comment>
								<name></name>
								<in>26248</in>
								<out>-1</out>
							</marker>
							<marker>
								<comment></comment>
								<name></name>
								<in>9861</in>
								<out>-1</out>
							</marker>
							<marker>
								<comment></comment>
								<name></name>
								<in>39699</in>
								<out>-1</out>
							</marker>
							<marker>
								<comment></comment>
								<name></name>
								<in>37815</in>
								<out>-1</out>
							</marker>
							<marker>
								<comment></comment>
								<name></name>
								<in>33007</in>
								<out>-1</out>
							</marker>
							<marker>
								<comment></comment>
								<name></name>
								<in>2059</in>
								<out>-1</out>
							</marker>
							<marker>
								<comment></comment>
								<name></name>
								<in>2</in>
								<out>-1</out>
							</marker>
							<marker>
								<comment></comment>
								<name></name>
								<in>29059</in>
								<out>-1</out>
							</marker>
							<marker>
								<comment></comment>
								<name></name>
								<in>20862</in>
								<out>-1</out>
							</marker>
							<marker>
								<comment></comment>
								<name></name>
								<in>31139</in>
								<out>-1</out>
							</marker>
							<marker>
								<comment></comment>
								<name></name>
								<in>4214</in>
								<out>-1</out>
							</marker>
							<marker>
								<comment></comment>
								<name></name>
								<in>6200</in>
								<out>-1</out>
							</marker>
							<marker>
								<comment></comment>
								<name></name>
								<in>24484</in>
								<out>-1</out>
							</marker>
							<marker>
								<comment></comment>
								<name></name>
								<in>14293</in>
								<out>-1</out>
							</marker>
						<link>
							<linkclipref>clipitem-2033</linkclipref>
							<mediatype>audio</mediatype>
							<trackindex>5</trackindex>
							<clipindex>21</clipindex>
							<groupindex>1</groupindex>
						</link>
						<link>
							<linkclipref>clipitem-2046</linkclipref>
							<mediatype>audio</mediatype>
							<trackindex>6</trackindex>
							<clipindex>21</clipindex>
							<groupindex>1</groupindex>
						</link>
						<logginginfo>
							<description></description>
							<scene></scene>
							<shottake></shottake>
							<lognote></lognote>
							<good></good>
							<originalvideofilename></originalvideofilename>
							<originalaudiofilename></originalaudiofilename>
						</logginginfo>
						<colorinfo>
							<lut></lut>
							<lut1></lut1>
							<asc_sop></asc_sop>
							<asc_sat></asc_sat>
							<lut2></lut2>
						</colorinfo>
						<labels>
							<label2>Rose</label2>
						</labels>
					</clipitem>
					<transitionitem>
						<start>54564</start>
						<end>54589</end>
						<pproTicksIn>554405160960000</pproTicksIn>
						<pproTicksOut>554659176960000</pproTicksOut>
						<alignment>end-black</alignment>
						<cutPointTicks>254016000000</cutPointTicks>
						<rate>
							<timebase>25</timebase>
							<ntsc>FALSE</ntsc>
						</rate>
						<effect>
							<name>Cross Fade (+3dB)</name>
							<effectid>KGAudioTransCrossFade3dB</effectid>
							<effecttype>transition</effecttype>
							<mediatype>audio</mediatype>
							<wipecode>0</wipecode>
							<wipeaccuracy>100</wipeaccuracy>
							<startratio>0</startratio>
							<endratio>1</endratio>
							<reverse>FALSE</reverse>
						</effect>
					</transitionitem>
					<clipitem id="clipitem-2047" premiereChannelType="stereo">
						<masterclipid>masterclip-867</masterclipid>
						<name>SOUND_2021.mp3</name>
						<enabled>TRUE</enabled>
						<duration>45395</duration>
						<rate>
							<timebase>25</timebase>
							<ntsc>FALSE</ntsc>
						</rate>
						<start>59710</start>
						<end>-1</end>
						<in>24483</in>
						<out>25059</out>
						<pproTicksIn>248762949120000</pproTicksIn>
						<pproTicksOut>254615477760000</pproTicksOut>
						<file id="file-721"/>
						<sourcetrack>
							<mediatype>audio</mediatype>
							<trackindex>2</trackindex>
						</sourcetrack>
						<filter>
							<effect>
								<name>Audio Levels</name>
								<effectid>audiolevels</effectid>
								<effectcategory>audiolevels</effectcategory>
								<effecttype>audiolevels</effecttype>
								<mediatype>audio</mediatype>
								<pproBypass>false</pproBypass>
								<parameter authoringApp="PremierePro">
									<parameterid>level</parameterid>
									<name>Level</name>
									<valuemin>0</valuemin>
									<valuemax>3.98109</valuemax>
									<value>0.177828</value>
								</parameter>
							</effect>
						</filter>
							<marker>
								<comment></comment>
								<name></name>
								<in>0</in>
								<out>-1</out>
							</marker>
							<marker>
								<comment></comment>
								<name></name>
								<in>35404</in>
								<out>-1</out>
							</marker>
							<marker>
								<comment></comment>
								<name></name>
								<in>22388</in>
								<out>-1</out>
							</marker>
							<marker>
								<comment></comment>
								<name></name>
								<in>16790</in>
								<out>-1</out>
							</marker>
							<marker>
								<comment></comment>
								<name></name>
								<in>11832</in>
								<out>-1</out>
							</marker>
							<marker>
								<comment></comment>
								<name></name>
								<in>43475</in>
								<out>-1</out>
							</marker>
							<marker>
								<comment></comment>
								<name></name>
								<in>19163</in>
								<out>-1</out>
							</marker>
							<marker>
								<comment></comment>
								<name></name>
								<in>26248</in>
								<out>-1</out>
							</marker>
							<marker>
								<comment></comment>
								<name></name>
								<in>9861</in>
								<out>-1</out>
							</marker>
							<marker>
								<comment></comment>
								<name></name>
								<in>39699</in>
								<out>-1</out>
							</marker>
							<marker>
								<comment></comment>
								<name></name>
								<in>37815</in>
								<out>-1</out>
							</marker>
							<marker>
								<comment></comment>
								<name></name>
								<in>33007</in>
								<out>-1</out>
							</marker>
							<marker>
								<comment></comment>
								<name></name>
								<in>2059</in>
								<out>-1</out>
							</marker>
							<marker>
								<comment></comment>
								<name></name>
								<in>2</in>
								<out>-1</out>
							</marker>
							<marker>
								<comment></comment>
								<name></name>
								<in>29059</in>
								<out>-1</out>
							</marker>
							<marker>
								<comment></comment>
								<name></name>
								<in>20862</in>
								<out>-1</out>
							</marker>
							<marker>
								<comment></comment>
								<name></name>
								<in>31139</in>
								<out>-1</out>
							</marker>
							<marker>
								<comment></comment>
								<name></name>
								<in>4214</in>
								<out>-1</out>
							</marker>
							<marker>
								<comment></comment>
								<name></name>
								<in>6200</in>
								<out>-1</out>
							</marker>
							<marker>
								<comment></comment>
								<name></name>
								<in>24484</in>
								<out>-1</out>
							</marker>
							<marker>
								<comment></comment>
								<name></name>
								<in>14293</in>
								<out>-1</out>
							</marker>
						<link>
							<linkclipref>clipitem-2034</linkclipref>
							<mediatype>audio</mediatype>
							<trackindex>5</trackindex>
							<clipindex>23</clipindex>
							<groupindex>1</groupindex>
						</link>
						<link>
							<linkclipref>clipitem-2047</linkclipref>
							<mediatype>audio</mediatype>
							<trackindex>6</trackindex>
							<clipindex>23</clipindex>
							<groupindex>1</groupindex>
						</link>
						<logginginfo>
							<description></description>
							<scene></scene>
							<shottake></shottake>
							<lognote></lognote>
							<good></good>
							<originalvideofilename></originalvideofilename>
							<originalaudiofilename></originalaudiofilename>
						</logginginfo>
						<colorinfo>
							<lut></lut>
							<lut1></lut1>
							<asc_sop></asc_sop>
							<asc_sat></asc_sat>
							<lut2></lut2>
						</colorinfo>
						<labels>
							<label2>Rose</label2>
						</labels>
					</clipitem>
					<transitionitem>
						<start>60261</start>
						<end>60286</end>
						<pproTicksIn>612290327040000</pproTicksIn>
						<pproTicksOut>612544343040000</pproTicksOut>
						<alignment>end-black</alignment>
						<cutPointTicks>254016000000</cutPointTicks>
						<rate>
							<timebase>25</timebase>
							<ntsc>FALSE</ntsc>
						</rate>
						<effect>
							<name>Cross Fade (+3dB)</name>
							<effectid>KGAudioTransCrossFade3dB</effectid>
							<effecttype>transition</effecttype>
							<mediatype>audio</mediatype>
							<wipecode>0</wipecode>
							<wipeaccuracy>100</wipeaccuracy>
							<startratio>0</startratio>
							<endratio>1</endratio>
							<reverse>FALSE</reverse>
						</effect>
					</transitionitem>
					<clipitem id="clipitem-2048" premiereChannelType="stereo">
						<masterclipid>masterclip-867</masterclipid>
						<name>SOUND_2021.mp3</name>
						<enabled>TRUE</enabled>
						<duration>45395</duration>
						<rate>
							<timebase>25</timebase>
							<ntsc>FALSE</ntsc>
						</rate>
						<start>65344</start>
						<end>-1</end>
						<in>26247</in>
						<out>26643</out>
						<pproTicksIn>266686318080000</pproTicksIn>
						<pproTicksOut>270709931520000</pproTicksOut>
						<file id="file-721"/>
						<sourcetrack>
							<mediatype>audio</mediatype>
							<trackindex>2</trackindex>
						</sourcetrack>
						<filter>
							<effect>
								<name>Audio Levels</name>
								<effectid>audiolevels</effectid>
								<effectcategory>audiolevels</effectcategory>
								<effecttype>audiolevels</effecttype>
								<mediatype>audio</mediatype>
								<pproBypass>false</pproBypass>
								<parameter authoringApp="PremierePro">
									<parameterid>level</parameterid>
									<name>Level</name>
									<valuemin>0</valuemin>
									<valuemax>3.98109</valuemax>
									<value>0.177828</value>
								</parameter>
							</effect>
						</filter>
							<marker>
								<comment></comment>
								<name></name>
								<in>0</in>
								<out>-1</out>
							</marker>
							<marker>
								<comment></comment>
								<name></name>
								<in>35404</in>
								<out>-1</out>
							</marker>
							<marker>
								<comment></comment>
								<name></name>
								<in>22388</in>
								<out>-1</out>
							</marker>
							<marker>
								<comment></comment>
								<name></name>
								<in>16790</in>
								<out>-1</out>
							</marker>
							<marker>
								<comment></comment>
								<name></name>
								<in>11832</in>
								<out>-1</out>
							</marker>
							<marker>
								<comment></comment>
								<name></name>
								<in>43475</in>
								<out>-1</out>
							</marker>
							<marker>
								<comment></comment>
								<name></name>
								<in>19163</in>
								<out>-1</out>
							</marker>
							<marker>
								<comment></comment>
								<name></name>
								<in>26248</in>
								<out>-1</out>
							</marker>
							<marker>
								<comment></comment>
								<name></name>
								<in>9861</in>
								<out>-1</out>
							</marker>
							<marker>
								<comment></comment>
								<name></name>
								<in>39699</in>
								<out>-1</out>
							</marker>
							<marker>
								<comment></comment>
								<name></name>
								<in>37815</in>
								<out>-1</out>
							</marker>
							<marker>
								<comment></comment>
								<name></name>
								<in>33007</in>
								<out>-1</out>
							</marker>
							<marker>
								<comment></comment>
								<name></name>
								<in>2059</in>
								<out>-1</out>
							</marker>
							<marker>
								<comment></comment>
								<name></name>
								<in>2</in>
								<out>-1</out>
							</marker>
							<marker>
								<comment></comment>
								<name></name>
								<in>29059</in>
								<out>-1</out>
							</marker>
							<marker>
								<comment></comment>
								<name></name>
								<in>20862</in>
								<out>-1</out>
							</marker>
							<marker>
								<comment></comment>
								<name></name>
								<in>31139</in>
								<out>-1</out>
							</marker>
							<marker>
								<comment></comment>
								<name></name>
								<in>4214</in>
								<out>-1</out>
							</marker>
							<marker>
								<comment></comment>
								<name></name>
								<in>6200</in>
								<out>-1</out>
							</marker>
							<marker>
								<comment></comment>
								<name></name>
								<in>24484</in>
								<out>-1</out>
							</marker>
							<marker>
								<comment></comment>
								<name></name>
								<in>14293</in>
								<out>-1</out>
							</marker>
						<link>
							<linkclipref>clipitem-2035</linkclipref>
							<mediatype>audio</mediatype>
							<trackindex>5</trackindex>
							<clipindex>25</clipindex>
							<groupindex>1</groupindex>
						</link>
						<link>
							<linkclipref>clipitem-2048</linkclipref>
							<mediatype>audio</mediatype>
							<trackindex>6</trackindex>
							<clipindex>25</clipindex>
							<groupindex>1</groupindex>
						</link>
						<logginginfo>
							<description></description>
							<scene></scene>
							<shottake></shottake>
							<lognote></lognote>
							<good></good>
							<originalvideofilename></originalvideofilename>
							<originalaudiofilename></originalaudiofilename>
						</logginginfo>
						<colorinfo>
							<lut></lut>
							<lut1></lut1>
							<asc_sop></asc_sop>
							<asc_sat></asc_sat>
							<lut2></lut2>
						</colorinfo>
						<labels>
							<label2>Rose</label2>
						</labels>
					</clipitem>
					<transitionitem>
						<start>65715</start>
						<end>65740</end>
						<pproTicksIn>667706457600000</pproTicksIn>
						<pproTicksOut>667960473600000</pproTicksOut>
						<alignment>end-black</alignment>
						<cutPointTicks>254016000000</cutPointTicks>
						<rate>
							<timebase>25</timebase>
							<ntsc>FALSE</ntsc>
						</rate>
						<effect>
							<name>Cross Fade (+3dB)</name>
							<effectid>KGAudioTransCrossFade3dB</effectid>
							<effecttype>transition</effecttype>
							<mediatype>audio</mediatype>
							<wipecode>0</wipecode>
							<wipeaccuracy>100</wipeaccuracy>
							<startratio>0</startratio>
							<endratio>1</endratio>
							<reverse>FALSE</reverse>
						</effect>
					</transitionitem>
					<enabled>TRUE</enabled>
					<locked>FALSE</locked>
					<outputchannelindex>2</outputchannelindex>
				</track>
			</audio>
		</media>
		<timecode>
			<rate>
				<timebase>25</timebase>
				<ntsc>FALSE</ntsc>
			</rate>
			<string>00:00:00:00</string>
			<frame>0</frame>
			<displayformat>NDF</displayformat>
		</timecode>
		<labels>
			<label2>Forest</label2>
		</labels>
		<logginginfo>
			<description></description>
			<scene></scene>
			<shottake></shottake>
			<lognote></lognote>
			<good></good>
			<originalvideofilename></originalvideofilename>
			<originalaudiofilename></originalaudiofilename>
		</logginginfo>
	</sequence>
</xmeml>
